<svg xmlns="http://www.w3.org/2000/svg" width="520" height="320"><rect x="0" y="0" width="520" height="320" fill="floralwhite"/><rect x="10" y="10" width="500" height="300" stroke="black" stroke-width="1" fill="none"/><path stroke="black" stroke-width="1" fill="none" stroke-linecap="round" stroke-linejoin="round" d="
M 189.16 116 200.33 108.91 205.9 105.69 211.47 102.77 222.61 97.39 228.18 95.21 233.75 93.62 239.32 92.41 256.03 91.83 261.6 92.87 267.17 94.94 272.74 97.49 289.45 105.87 295.02 109 311.73 119.82 329.1 130.42 
M 329.1 186.85 311.73 199.67 300.59 206.79 295.02 209.79 283.88 215.35 278.31 217.39 267.17 220.78 261.6 221.63 256.03 222.2 250.46 221.96 239.32 222.15 233.75 221.01 228.18 219.14 222.61 216.97 217.04 214.57 211.47 212.48 205.9 210.01 200.33 206.86 194.78 203.2 
M 329.1 145.49 324.01 144.71 299.42 141.64 296.71 141.12 290.29 139.43 
M 287.82 138.79 276.58 136.34 269.4 134.41 262.3 133.04 259.84 132.84 254.81 132.93 243.5 134.19 
M 238.26 135.06 235.59 135.44 
M 232.92 135.71 230.29 135.82 
M 220.36 135.99 216.53 136.35 212.5 137 
M 201.84 139.06 197.44 139.8 
M 200.33 199.4 202.3 201.69 
M 203.38 197.16 205.32 199.55 
M 207.28 201.78 209.27 203.85 
M 200.41 186.96 206.29 194.87 
M 212.18 201.82 214.14 203.85 
M 201.3 182.34 203.11 184.46 
M 207.19 189.92 209.94 193.86 211.88 196.33 214.94 199.74 
M 222.3 207.7 223.92 209.45 
M 207.11 183.69 211.67 190.2 
M 221.67 201.99 223.56 204.08 
M 225.34 206.09 228.65 209.72 
M 211.88 183.93 212.56 184.95 
M 214.41 187.72 217.23 191.67 222.45 197.73 
M 231.79 208.19 234.92 211.34 
M 217.11 184.72 220.15 189.17 225.31 195.55 
M 227.41 197.96 231.37 202.47 
M 234.87 206.45 237.89 209.62 
M 199.04 151.77 202.98 158.06 
M 223.16 186.53 226.19 190.65 
M 228.24 193.24 230.3 195.73 
M 236.09 202.5 237.75 204.4 
M 240.62 207.56 241.98 208.88 
M 246.48 212.22 248.12 213.19 
M 197.52 140.24 202.83 150.18 204.61 153.26 207.75 157.98 
M 228.53 187.19 235.11 195.79 
M 238.78 200.13 243.23 205.25 
M 246 207.93 247.53 209.15 
M 193.72 127.27 198.95 134.84 201.68 139.33 
M 203.4 142.38 207.56 150.16 209.37 153.22 212.66 157.89 
M 233.27 187.08 234.03 188.16 
M 237.82 193.19 242.97 199.36 
M 247.24 204.28 248.71 205.71 
M 250.26 207.07 251.85 208.37 
M 257.92 213.16 259.36 214.22 
M 189.99 115.48 201.66 132 205.52 137.86 208.16 142.34 
M 209.84 145.41 211.53 148.51 
M 213.33 151.58 214.27 153.1 217.8 157.8 
M 238.29 187.39 238.67 187.88 
M 243.98 194.53 248.58 200.19 
M 260.58 211.67 262 212.84 
M 192.87 113.67 196.69 118.41 208.35 135.01 212.11 140.76 215.59 146.86 218.45 151.43 
M 220.63 154.37 223.29 157.7 
M 244.92 189.34 246.64 191.48 
M 253.01 199.43 254.58 201.17 
M 256.14 202.8 257.69 204.35 
M 260.62 207.29 261.99 208.7 
M 195.62 111.93 199.46 116.24 201.31 118.55 210.16 130.96 
M 212.13 133.73 216.98 140.79 220.62 146.84 222.68 149.81 228.38 157.08 
M 254.39 194.88 256.03 196.89 
M 198.33 110.19 202.25 114.32 206.15 118.95 218.83 136.77 
M 222.59 142.55 224.59 145.46 
M 226.81 148.32 230.33 152.56 232.5 155.49 233.78 157.51 
M 254.79 188.89 255.62 189.92 
M 259.05 194.25 260.64 196.29 
M 201.08 108.48 207 114.69 211.06 119.5 218.68 130.39 226.09 141.51 228.22 144.27 231.76 148.34 
M 234.07 151.12 235.19 152.54 238.32 157.42 
M 261.99 191.51 264.98 195.71 
M 266.33 197.68 267.63 199.6 
M 268.9 201.47 270.16 203.31 
M 203.93 106.83 211.81 115.16 215.84 120.02 227.62 137.81 
M 229.58 140.47 235.29 146.99 238.71 151.25 
M 268.94 195.3 272.69 201.59 
M 274.03 203.51 275.49 205.32 
M 206.87 105.18 214.52 113.35 218.6 118 222.48 123.44 231.21 136.75 233.17 139.24 239.93 147.01 242.18 149.96 245.21 154.59 
M 209.96 103.56 221.46 116 223.46 118.57 226.32 122.72 
M 228.17 125.48 234.13 134.26 242.24 144.1 244.46 147.03 246.59 150.14 250.99 157.2 
M 273.67 190.19 273.76 190.38 
M 275.08 192.88 276.44 195.34 
M 213.18 101.96 222.48 111.54 224.53 113.83 226.49 116.34 229.26 120.4 
M 231.09 123.11 232.9 125.7 
M 234.64 128.16 238.83 133.9 244.63 141.08 249.83 148.59 
M 251.77 151.63 255.06 157.12 
M 277.56 190.4 280.62 195.42 
M 216.55 100.37 222.76 106.29 
M 224.78 108.25 227.76 111.47 229.63 113.9 234.87 121.8 237.53 125.5 
M 239.23 127.83 247.1 138.13 251.03 143.82 254.79 149.75 259.14 157.05 
M 280.23 188.01 281.76 190.44 
M 219.95 98.7 227.17 105.03 229.15 106.97 231.01 109.08 232.75 111.41 238.56 120.27 
M 240.3 122.69 243.74 127.32 
M 245.41 129.55 251.5 137.88 255.32 143.48 260.1 151.78 263.4 156.97 
M 286.24 190.51 287.9 192.93 
M 223.34 97.1 230.35 102.9 232.31 104.81 234.09 106.86 235.71 109.07 240.39 116.33 256.04 137.51 257.89 140.23 259.58 143.01 264.11 151.27 267.67 156.89 
M 226.79 95.75 233.23 100.94 235.16 102.83 236.9 104.83 242.94 113.77 248.26 120.5 255.88 130.98 
M 257.73 133.33 260.53 137.11 262.25 139.83 269.13 152.55 
M 270.97 155.46 271.87 156.82 
M 230.25 94.62 233.94 97.46 237.78 100.95 239.49 102.89 245.45 111.31 248.08 114.49 
M 249.9 116.65 252.54 120.05 257.46 127.18 260.21 130.59 
M 262.1 132.94 263.93 135.46 
M 265.63 138.15 267.19 140.95 
M 268.67 143.83 270.14 146.76 
M 271.69 149.72 274.29 154.07 275.32 155.52 
M 233.66 93.64 236.62 95.82 239.44 98.24 
M 241.19 100.01 243.58 102.87 245.78 105.87 
M 247.31 107.86 253.32 115 260.74 125.7 
M 262.57 127.99 265.4 131.42 267.23 133.88 268.97 136.57 276.08 149.79 
M 279.9 155.49 280.78 156.66 
M 302.78 188.07 304.56 190.32 
M 237.37 92.84 241.22 95.63 243.84 98.04 
M 245.46 99.79 254.24 110.13 257.55 114.47 262.31 121.84 264.03 124.24 269.58 131.15 271.39 133.73 274.86 139.36 277.31 143.83 
M 280.75 149.78 284.85 155.55 
M 305.42 185.43 307.19 187.77 
M 241.72 92.3 243.99 93.85 247.43 96.79 255.44 105.49 258.66 109.41 264.1 117.77 
M 265.72 120.2 269.19 124.85 
M 271.03 127.18 273.82 130.92 277.55 136.43 282.83 145.36 285.77 149.88 
M 246.84 92.12 250.23 94.71 255.14 99.42 259.92 104.72 262.22 107.8 
M 263.72 110.08 269.17 118.4 275.38 126.76 
M 277.29 129.4 279.23 132.15 
M 282.98 137.89 287.65 145.51 290.84 150.02 
M 294.83 155.74 295.24 156.39 
M 251.96 92 254.7 94.1 258 97.1 261.2 100.44 263.5 103.27 
M 266.51 107.51 269.58 112.11 
M 271.14 114.37 281.79 129.34 
M 287.34 138.06 291.32 144.13 
M 297.54 152.88 299.31 155.62 
M 318.57 184.38 320.42 186.83 
M 257.26 92.06 259.14 93.55 262.41 96.57 265.5 100.09 268.57 104.1 278 117.31 282.45 123.88 
M 284.28 126.69 293.72 141.17 
M 295.87 144.13 298.03 147.05 
M 300.06 149.89 301.91 152.62 
M 303.63 155.27 304.25 156.23 
M 264.22 93.84 268.27 98.13 273.01 104.12 280.84 114.85 285.01 121.37 
M 286.77 124.17 296.21 138.15 
M 300.5 143.91 304.45 149.54 
M 306.23 152.26 308.79 156.15 
M 271.49 96.92 277.44 104.14 282.84 111.45 
M 284.37 113.76 285.95 116.27 
M 287.61 118.95 289.32 121.7 
M 291.11 124.42 292.96 127.08 
M 296.89 132.39 304.27 142.13 307.14 146.41 
M 310.71 152.04 313.37 156.07 
M 278.99 100.72 284.73 108.1 292.83 120.47 297.6 126.93 
M 299.69 129.5 306.13 137.56 
M 308.15 140.4 310.03 143.3 
M 311.81 146.23 313.58 149.13 
M 315.39 151.95 318.06 155.98 
M 285.98 104.19 288.77 107.91 296.51 119.01 
M 298.43 121.58 300.44 124.14 
M 302.55 126.67 308 133.14 310.09 135.92 312.04 138.81 316.59 146.18 
M 318.38 149.06 320.2 151.89 
M 293.21 107.99 302.37 120.06 307.57 126.46 
M 309.71 129.05 312.86 133.08 316.91 138.9 326.87 154.92 
M 302.96 114.19 317.79 133.22 321.96 139.15 324.74 143.54 
M 326.49 146.43 328.2 149.34 
M 312.57 120.33 316.15 125.1 322.88 133.52 325.07 136.52 327.98 140.96 
M 321.56 125.85 325.65 130.85 329.1 135.39 
M 198.37 110.17 194.61 114.13 190.75 118.69 
M 210.65 103.2 206.36 107.01 199.07 114.18 195.42 118.4 192.34 122.54 
M 222.45 97.47 213.1 105.39 203.73 114.41 199.99 118.49 198.09 120.88 193.75 127.37 
M 230.13 94.65 215.91 107.42 212.08 111.16 204.77 118.82 200.88 123.6 195.4 132.33 
M 236.87 92.94 231.58 97.48 218.9 109.46 213.31 115.3 205.72 123.97 202.09 129.16 197.64 136.29 
M 242.07 92.29 236.26 97.44 220.99 112.61 
M 219.02 114.7 216.3 117.75 208.72 126.89 206.87 129.42 201.41 137.84 197.96 142.82 
M 246.34 92.13 240.78 97.31 227.3 111.48 221.1 118.29 217.35 122.68 211.69 129.76 207.07 136.43 
M 203.08 142.38 198.82 148.53 
M 250.3 92.07 245.21 97.02 237.29 105.88 
M 235.39 107.97 227.03 117.62 
M 225.01 119.98 218.29 127.86 213.69 133.83 
M 211.82 136.48 209.89 139.32 
M 205.7 145.47 199.56 154.66 
M 254.32 91.9 249.65 96.51 244.01 102.85 236.88 111.44 228.83 121.69 221.09 130.73 218.42 134.15 
M 216.62 136.63 209.39 146.99 202.46 157.72 
M 257.88 92.17 252.18 97.98 246.32 104.78 242.73 109.2 236.48 117.8 
M 234.54 120.49 229.66 126.89 222.91 134.73 
M 221.21 137.04 212.08 150.07 209.1 154.72 
M 207.28 157.75 207.14 157.99 
M 261.16 92.79 258.59 95.26 254.7 99.5 246.84 108.98 243.41 113.74 237.22 122.97 
M 233.34 128.2 231.27 130.65 
M 227.3 135.29 224.74 138.77 222.22 142.56 
M 218.18 148.39 216.03 151.51 
M 214.01 154.61 212.05 157.9 
M 264.06 93.79 261.11 96.7 257.22 101.04 253.22 105.9 249.41 110.89 238.95 126.64 230.88 136.74 229.12 139.18 224.32 146.88 217.27 157.52 
M 201.91 184.4 200.19 186.95 
M 267 94.88 263.56 98.29 259.72 102.66 253.85 110.19 243.44 126.14 233.78 139.22 229.99 145.66 
M 228.45 148.35 222.39 157.71 
M 269.91 96.2 267.85 98.13 264.06 102.17 260.2 106.87 257.34 110.8 
M 255.53 113.49 249.66 122.89 245.07 129.58 
M 243.16 132.2 238.52 138.91 236.88 141.65 233.35 148.34 
M 230.08 154.05 227.73 157.62 
M 211.45 184.9 209.66 187.49 
M 207.9 189.97 206.09 192.39 
M 272.91 97.58 270.3 100.04 266.43 104.15 262.6 108.93 258.88 114.31 252.16 125.18 244.06 137.07 
M 240.83 142.75 238.02 148.38 
M 234.99 154.02 233.17 156.98 
M 216.49 184.6 216.16 185.05 
M 207.06 197.31 205.13 199.55 
M 275.81 99.08 272.78 102.05 268.85 106.29 264.96 111.22 261.27 116.68 254.64 127.42 248.51 136.73 
M 246.89 139.55 245.38 142.5 
M 243.96 145.52 241.15 151.36 
M 239.6 154.21 237.61 157.44 
M 218.99 187.81 217.03 190.39 
M 211.77 197.47 209.99 199.67 
M 278.68 100.56 271.3 108.5 267.36 113.55 261.97 121.86 251.27 139.32 
M 249.75 142.35 246.32 150.13 244.07 154.52 
M 242.37 157.35 242.37 157.35 
M 281.51 101.98 273.75 110.66 271.74 113.12 267.96 118.6 254.9 140.5 253.32 143.66 249.88 151.71 
M 228.96 188.07 225.02 193.12 
M 284.26 103.36 282.06 106.11 276.2 112.75 272.29 117.91 268.8 123.63 257.59 143.23 255.98 146.48 253.88 151.42 
M 252.51 154.61 251.23 157.19 
M 234.51 187.11 233.83 188.16 
M 226.24 197.9 224.36 200.02 
M 286.99 104.68 284.38 108.11 276.73 117.39 273.14 122.97 260.01 145.91 258.35 149.14 254.89 157.12 
M 238.75 187.45 238.47 187.92 
M 289.79 106.06 281.22 117.26 278.49 121.18 
M 276.73 123.94 268.66 138.02 
M 266.91 140.96 261.46 150.12 
M 239.45 192.98 235.93 198.12 
M 292.66 107.68 282.07 122.51 278.7 127.95 272.85 137.93 
M 271.08 140.86 264.68 151.23 263.1 154.26 261.92 157 
M 245.76 188.94 245.62 189.18 
M 242.11 194.95 240.38 197.64 
M 238.64 200.15 236.84 202.46 
M 295.71 109.45 288.1 120.3 284.76 125.36 278.14 136.42 270.61 148.24 268.04 152.56 
M 266.52 155.52 265.86 156.93 
M 244.61 196.74 242.84 199.39 
M 235.41 208.2 233.26 209.86 
M 298.76 111.44 294.28 117.77 289.06 125.66 280.88 139.31 274.02 149.77 
M 272.26 152.61 270.71 155.47 
M 253.56 189.04 252.66 190.36 
M 248.85 195.8 245.13 200.96 
M 241.54 205.64 239.7 207.74 
M 301.93 113.51 297.07 120.32 293.46 125.76 283.54 142.35 277.56 151.26 275.79 154.09 274.4 156.77 
M 255.33 192.4 253.31 195.05 
M 251.29 197.6 249.31 200.06 
M 241.86 208.9 240 210.77 
M 305.17 115.64 300.01 122.84 296.33 128.32 292.94 133.88 286.37 145.47 280.44 154.06 278.95 156.69 
M 262.29 188.56 259.99 191.77 
M 253.78 199.31 251.71 201.61 
M 308.47 117.76 303.1 125.33 297.56 133.75 294.15 139.67 291.9 144.14 
M 290.3 147.08 289.45 148.54 283.87 156.6 
M 262.51 193.79 260.48 196.3 
M 258.39 198.69 254.17 203.07 
M 250.14 207.09 248.27 209 
M 311.78 119.86 306.28 127.82 300.65 136.44 298.84 139.5 295.02 147.13 
M 293.44 150.06 292.6 151.5 289.68 155.67 
M 269.29 189.36 268.47 190.64 
M 266.71 193.22 262.87 198.12 
M 315.09 121.86 303.82 139.17 301.99 142.3 297.24 151.48 294.1 156.42 
M 272.43 189.98 272.17 190.39 
M 270.52 192.89 266.99 197.61 
M 259.09 205.85 257.05 207.67 
M 318.42 123.9 306.87 141.96 298.63 156.33 
M 276.95 188.69 275.85 190.37 
M 270.79 197.44 269.03 199.53 
M 267.23 201.52 263.39 205.37 
M 261.38 207.21 259.37 208.95 
M 321.92 126.07 319.21 130.53 314.6 137.39 
M 312.65 140.3 307.76 147.84 302.81 156.26 
M 279.87 190.42 276.3 195.33 
M 272.79 199.61 269.28 203.29 
M 267.44 205.05 265.52 206.81 
M 261.59 210.2 259.68 211.74 
M 325.68 128.35 322.52 133.49 314.42 144.73 310.43 150.62 306.93 156.18 
M 286.16 188.02 282.35 192.98 
M 280.46 195.42 277.63 198.82 273.12 203.46 
M 271.34 205.09 269.51 206.69 
M 267.64 208.28 265.73 209.86 
M 329.1 131.52 325.73 136.57 317.17 147.64 311.32 156.1 
M 291.49 187.32 286.84 192.97 
M 279.1 201.91 275.36 205.31 
M 329.1 139.16 323.19 146.29 
M 321.02 149.06 316 156.02 
M 295.85 187.67 295.39 188.25 
M 291.4 192.92 285.46 199.71 
M 275.98 208.42 274.14 209.74 
M 268.55 213.58 267.38 214.34 
M 329.1 145.46 324.84 150.54 320.84 155.93 
M 295.96 192.89 293.92 195.08 
M 289.95 199.39 286.16 203.53 
M 282.4 207.08 280.51 208.58 
M 278.62 209.92 275.06 212.19 
M 329.1 151.67 325.87 155.84 
M 306.81 184.29 305.24 186.72 302.53 190.45 
M 300.58 192.79 294.48 199.23 
M 292.56 201.24 288.85 205.12 
M 311.38 183.49 306.21 191.35 302.38 195.93 299.24 199.14 
M 315.74 183.16 314.81 184.61 
M 327.07 179.96 325.65 181.89 
M 323.84 184.37 322.06 186.82 
M 200.33 108.91 200.33 108.91 
M 203.34 107.17 196.4 83.28 197.17 80.39 197.06 78.44 197.54 77.09 197.7 75.4 198.59 73.59 199.85 72.06 200.79 67.44 201.8 65.77 202.17 63.72 203.21 62.35 203.58 57.65 205.17 56.6 208.47 51.64 210.33 50.69 212.33 49.9 213.61 48.39 215.07 47.09 216.25 45.5 218.01 44.48 219.43 43.09 221.25 42.11 222.18 40.22 226.02 38.47 229.85 33.91 231.23 32.51 232.99 31.5 234.5 30.24 236.21 30 238.1 30.12 247.59 33.38 251.45 34.37 253.23 34.64 255.83 34.24 257.97 34.6 260.79 35.48 262.84 35.58 264.6 36.83 265.87 38.68 269.28 40.02 275.19 40.76 279.45 41.57 281.31 41.58 282.79 41.05 284.88 41.13 287.5 41.75 291.83 42.07 293.39 41.62 295.09 41.57 296.83 41.76 302.98 43.27 304.7 44.03 307.47 44.89 312.28 51.67 314.21 54.8 316.25 57.67 315.98 59.54 316.06 61.96 315.52 63.77 315.07 67.66 313.53 70.24 314.1 72.56 315.12 75.23 316.18 77.14 316.57 79.4 318.39 85.5 318.69 87.44 316.54 90.37 315.85 92.1 315.76 94.36 314.28 97.61 313.55 104.35 313.22 105.97 305.98 116.18 
M 300.59 112.63 300.59 112.63 
M 203.21 107.25 203.03 104.6 202 99.01 201.94 97.84 201.59 96.46 
M 206.09 105.59 206.04 104.3 205.52 100.91 204.44 97.53 204.44 95.68 203.54 91.45 
M 209.03 104.05 208.51 99.37 207.86 97.29 207.9 95.37 208.19 93.67 207.54 91.73 206.2 89.79 206.23 87.35 205.3 82.4 204.72 80.85 203.73 78.96 202.54 78.55 
M 211.98 102.52 211.81 101.2 211.3 99.38 211.7 94.35 211.27 90.51 210.54 88.55 210.35 86.35 209.67 84.37 209.28 82.48 209.45 81.24 209.24 79.78 208.78 78.37 207.81 77.11 207.7 74.76 
M 214.99 101.11 214.96 99.58 214.48 96.36 214.83 92.75 214.35 91.19 213.94 87.56 213.43 85.59 212.64 83.42 211.76 79.9 211.74 78.4 210.93 75.07 210.53 71.27 209.6 69.26 209.11 67.66 208.32 66.25 208.15 64.24 
M 217.99 99.67 217.68 94.93 217.38 93.11 217.33 89.71 216.75 85.86 215.32 82.25 214.28 79.14 214.11 77.5 214.31 75.49 213.98 73.99 213.2 72.78 212.65 70.1 212.78 67.97 212.34 66.3 
M 220.97 98.2 221.08 96.89 219.76 84.55 218.03 80.57 217.97 78.84 217.04 73.68 217.07 71.69 216.62 69.62 216.52 67.78 215.94 65.71 215.76 63.17 216.25 60.8 216.03 58.53 214.8 58.5 214.25 57.1 213.79 55.06 
M 224 96.84 224.29 95.55 223.89 91.94 224.21 88.59 224.27 84.73 223.55 82.61 222.21 80.93 222.16 77.88 221.36 74.03 221.23 72.1 221.44 69.48 221.38 67.03 
M 227.1 95.63 227.5 94.31 227.49 92.38 227.26 90.6 227.72 86.97 227.51 83.23 227.31 81.04 226.83 79.15 226.69 77.93 226.03 76.63 225.44 74.63 225.1 72.23 225.26 67.42 224.96 65.3 224.41 63.94 224.27 62.8 224.26 60.88 223.82 58.37 223.87 55.98 
M 230.27 94.62 230.85 93.2 230.92 91.49 230.58 89.66 230.81 86.05 230.78 83.92 230.35 81.3 230.54 79 230.18 77.78 230.18 76.87 229.82 75.45 229.89 73.17 230.49 70.47 230.43 67.69 230.27 65.69 230.02 64.6 230.18 63.71 230.86 62.2 229.32 57.36 229.63 53.86 229.61 50.71 228.78 50.04 
M 233.46 93.7 234.16 92.46 234.17 88.63 234.56 82.69 234.38 78.82 234.97 75.72 235.12 71.93 234.93 69.38 234.5 67.18 234.61 64.86 235.54 63.44 235.73 62.78 
M 236.71 92.98 237.45 91.71 237.74 89.77 238.29 87.76 239.02 82.64 239.59 80.74 240.39 72.72 240.18 70.48 239.56 68.26 239.05 65.55 239.29 64.28 239.5 60.34 
M 239.98 92.38 241.05 91.22 241.85 85.51 244 77.94 244.74 74.61 245.07 72.66 244.57 68.5 244.97 66.35 245.98 62.39 246.42 58.3 
M 243.3 92.23 244.48 91.11 244.88 89.57 244.99 88.01 245.33 86.18 248.73 76.51 249.21 74.41 250.06 72.55 250.34 68.98 251.13 67 251.88 63.75 252.56 62.22 253.75 56.16 254.64 53.92 255.07 51.85 256.26 49.5 256.74 47.64 
M 246.62 92.13 247.62 90.83 248.26 89.08 248.4 87.34 249.78 83.39 251.72 80.54 252.21 78.79 253.36 76.43 253.97 73.84 254.4 69.14 254.39 65.19 255.93 62.13 256.75 57.51 256.87 55.59 257.94 53.4 
M 249.94 92.07 250.73 90.65 251.36 88.84 252.34 84.63 252.88 83.49 253.73 82.25 254.64 80.22 255.02 78.25 256.9 72.43 257.47 70.01 257.63 68.77 257.6 66.63 257.84 65.27 258.53 64.06 259.8 60.66 260.04 57.93 261.28 55.6 262.74 51.61 
M 253.26 91.95 254.16 90.57 255.81 85.18 256.59 83.4 257.64 79.4 259.44 76.42 261.38 70.3 262.77 64.91 263.47 63.85 263.28 62.59 264.78 60.66 265.98 57.39 266.44 55.38 267.31 54 267.53 50.86 266.82 49.82 267.85 47.79 267.93 44.83 
M 256.59 91.93 257.9 90.95 258.82 89.22 261.94 81.75 262.24 79.68 263.19 77.9 265.11 75.71 267.1 71.75 269.33 67.93 270.87 64.37 271.1 61.87 271.9 59.89 272.88 58.18 273.58 57.53 
M 259.85 92.54 261.26 91.45 262.58 90.04 263.79 88.38 264.86 86.68 266.32 82.97 268.62 80.28 269.59 78.75 270.73 77.35 272.41 74.21 274.04 72.44 276.4 69.18 277.02 66.95 278.98 62.89 279.42 60.66 280.19 59.44 281.88 57.86 283.27 56.13 284.51 55.07 285.29 52.04 
M 263.06 93.41 264.75 92.56 265.99 91.23 267.55 89.25 268.76 87.38 270.27 85.88 273.07 82.15 274.73 80.57 276.77 77.88 278.41 76.31 279.85 75.21 281.13 73.14 281.51 71.16 282.45 68.95 284.17 67.66 284.99 66.23 286.16 64.85 287.06 61.98 288.63 59.93 289.62 58.91 290.44 57.37 293.47 55.22 295.37 53.23 295.93 51.4 296.11 49.46 297.43 48.4 299.19 47.31 
M 266.18 94.57 267.98 93.66 271.19 90.68 277.51 83.6 280.33 81.34 281.79 79.77 282.89 77.69 285.75 73.84 287.62 71.8 289.55 70.2 291.28 67.98 
M 269.23 95.89 271.11 94.8 272.84 93.55 274.23 92.24 276.68 89 278.24 88.05 280.88 85.19 283.86 82.31 284.74 80.75 286.02 79.14 289.06 76.77 292.05 72.6 293.87 71.14 295.21 69.21 296.44 67.92 297.56 67.09 297.79 65.51 299.48 64.03 301.79 63.95 304.64 61.16 306.93 60.3 307.87 57.29 308.97 55.1 
M 272.25 97.27 274.13 96.25 277.25 93.7 280.39 90.98 281.94 89.29 286.43 85.5 287.82 84.6 288.81 83.08 290.68 81.74 294.28 78.77 296.24 75.39 298.24 73.82 300.1 71.7 301.31 70.86 301.29 69.82 301.89 68.75 303.08 67.81 305.38 66.9 308.09 65.22 309.09 64.32 310.22 62.14 312.77 59.63 
M 275.22 98.77 282.01 94.09 283.53 92.39 285.49 90.71 288.7 88.75 289.7 87.59 291.16 86.36 293.34 85.55 294.91 83.71 295.86 82.28 299.1 80.05 302.16 75.97 302.62 74.92 303.55 73.71 
M 278.17 100.3 281.67 98.38 283.4 97.22 285.33 95.59 286.9 93.71 288.28 92.48 290.41 92.06 291.93 90.77 293.11 89.59 294.28 88.07 295.95 86.69 297.69 84.89 300.53 83.86 301.92 81.81 303.74 79.95 304.41 78.23 305.8 76.96 306.45 75.59 308.28 73.7 
M 281.14 101.8 283.17 101.14 284.74 100.17 288.55 97.69 292.03 94.7 294.18 93.62 296.47 91.44 299.07 88.01 300.55 86.9 303.27 85.21 304.63 82.98 307.18 80.3 
M 284.11 103.28 286.42 102.43 288.17 101.47 291.23 98.64 293.1 97.14 296.22 95.49 297.26 94.2 298.29 92.51 300.11 91.59 
M 287.1 104.73 289.27 103.79 290.98 102.82 294.34 100.09 295.77 98.6 298.41 97.21 299.55 95.52 302.79 92.26 304.92 91.13 
M 290.07 106.22 292.42 105.51 294.23 104.53 295.35 103.24 297.18 102.41 300.37 100.13 301.81 99.42 303.2 98.17 304.95 96.16 307.15 94.88 
M 292.97 107.85 295.16 107.46 296.72 106.94 298.04 105.81 302.2 104 304.41 102.78 307.47 100.48 308.77 98.82 310.14 96.48 311.66 95.37 
M 295.84 109.53 298.33 109.71 306.61 105.08 308.33 104.91 309.76 103.45 310.7 102.13 
M 298.62 111.35 301.84 111.85 304.09 110.71 306.59 109.77 308.74 108.75 310.31 107.84 311.61 106.68 
M 198.9 156.95 414.9 153.43 414.92 154.1 198.94 159.31 
M 198.95 159.77 388.84 166.32 388.82 166.98 198.96 162.13 
M 198.95 162.59 362.38 176.58 362.32 177.24 198.89 164.95 
M 198.88 165.4 335.7 184.2 335.61 184.86 198.7 167.75 
M 198.66 168.17 309.01 189.18 308.89 189.84 198.43 170.52 
M 198.39 170.91 282.5 191.54 282.35 192.19 198.15 173.26 
M 198.11 173.63 256.37 191.31 256.19 191.95 197.96 176.01 
M 197.98 176.37 230.81 188.53 230.6 189.16 198.08 178.81 
M 198.11 180.23 206.02 184.15 205.77 184.76 198.05 182.35 
M 393 154.63 387.42 156.3 382.02 158.34 376.87 160.93 369.54 165.65 
M 369.51 166.49 363.93 167.61 358.49 169.11 353.26 171.18 345.72 175.15 
M 345.65 175.99 340.12 176.56 334.68 177.51 329.4 179.07 321.72 182.28 
M 321.61 183.11 316.16 183.13 310.77 183.56 305.48 184.59 297.7 187.03 
M 297.55 187.85 292.23 187.35 286.93 187.24 281.67 187.75 273.85 189.42 
M 273.66 190.24 265.92 188.84 260.74 188.51 255.55 188.8 250.34 189.48 
M 250.11 190.29 242.67 188.13 237.63 187.3 232.52 187.07 227.34 187.24 
M 227.07 188.03 222.34 186.22 217.53 184.81 212.6 183.99 205.03 183.66 
M 390.2 155.44 384.69 157.26 382.02 158.34 376.87 160.93 371.95 164.01 
M 373.18 155.8 368.15 157.46 365.71 158.44 361.02 160.81 356.53 163.62 
M 356.17 156.15 351.62 157.66 349.41 158.55 345.17 160.69 341.11 163.23 
M 339.15 156.51 335.09 157.85 331.19 159.56 325.69 162.84 
M 322.13 156.87 316.81 158.76 313.47 160.44 310.27 162.44 
M 305.12 157.23 300.51 158.86 297.62 160.32 294.85 162.05 
M 288.1 157.58 284.21 158.96 281.77 160.19 279.43 161.66 
M 271.08 157.94 267.91 159.07 265.92 160.07 264.01 161.26 
M 366.71 167.02 361.19 168.29 358.49 169.11 353.26 171.18 348.21 173.76 
M 349.61 166.54 344.64 167.68 342.21 168.42 337.5 170.28 332.96 172.6 
M 332.51 166.06 328.09 167.07 325.94 167.72 321.75 169.38 317.71 171.45 
M 315.41 165.57 311.55 166.46 307.81 167.7 302.46 170.29 
M 298.32 165.09 293.38 166.34 290.24 167.58 287.21 169.13 
M 281.22 164.6 277.11 165.65 274.49 166.68 271.96 167.97 
M 264.12 164.12 260.83 164.95 258.74 165.78 256.72 166.81 
M 342.88 176.24 337.38 176.97 334.68 177.51 329.4 179.07 324.26 181.14 
M 325.71 174.91 320.85 175.55 318.47 176.04 313.81 177.41 309.26 179.24 
M 308.54 173.58 302.26 174.56 298.21 175.75 294.27 177.34 
M 291.37 172.25 286.05 173.08 282.61 174.09 279.27 175.43 
M 274.2 170.92 269.83 171.6 267.02 172.43 264.28 173.53 
M 257.04 169.59 253.62 170.12 251.42 170.77 249.28 171.63 
M 318.88 183.09 313.45 183.28 310.77 183.56 305.48 184.59 300.28 186.14 
M 301.64 180.91 296.97 181.07 294.66 181.31 290.12 182.19 285.64 183.53 
M 284.39 178.73 280.49 178.86 276.64 179.38 271.01 180.92 
M 267.15 176.55 262.45 176.81 259.38 177.41 256.37 178.31 
M 249.91 174.36 246.34 174.57 244.02 175.02 241.73 175.71 
M 294.89 187.57 289.57 187.23 286.93 187.24 281.67 187.75 276.45 188.79 
M 277.53 184.53 273.15 184.24 270.97 184.25 266.63 184.67 262.32 185.53 
M 260.18 181.48 255.01 181.27 251.59 181.59 248.2 182.27 
M 242.82 178.43 239.04 178.28 236.55 178.52 234.07 179.01 
M 271.08 189.7 265.92 188.84 263.34 188.59 258.15 188.58 252.94 189.11 
M 244.7 183.79 239.67 183.07 236.3 183.07 232.92 183.41 
M 247.64 189.5 242.67 188.13 240.16 187.64 235.08 187.12 229.93 187.13 
M 233.75 221.01 238.32 227.27 239.69 229.49 239.72 231.57 240.42 234.22 256.5 273.37 254.27 273.96 252.24 274.74 250.44 275.76 249.14 277.27 245.83 279 242.05 280 241.25 279.29 240.67 278.01 236.55 271.77 233.94 267.03 230.19 261.02 220.79 228.13 219.82 223.98 217.82 220.26 217.83 217.63 217.04 214.57 
M 230.6 219.95 232.82 224.57 236.2 230.41 236.82 232.48 237.25 234.72 238.88 237.8 240.09 239.54 241.24 241.77 242.7 243.79 243.48 247.35 244.14 249.15 
M 227.46 218.86 228.62 221.34 230.01 225.55 230.92 227.58 233.97 233.49 234.37 235.84 234.93 237.95 235.1 239.76 236.63 243.18 238.86 247.04 239.42 251.52 240.35 253.83 241.13 255.63 243.64 259.08 244.64 261.33 244.57 264.93 244.77 267.11 245.39 269.08 247.4 270.45 248.17 272.11 249.16 273.64 
M 224.36 217.65 226.11 222.56 227.12 226.86 228.95 230.88 230.23 235.2 230.9 236.8 231.17 238.98 231.95 241.07 232.19 244.75 232.85 248.44 232.99 251.33 234.06 256.05 237.18 259.52 
M 221.28 216.4 223.38 223.61 223.58 225.74 224.13 227.96 224.85 230.26 225.98 232.75 226.58 235.04 226.51 237.18 227.18 239.28 228.06 241.32 228.1 243.1 228.71 244.81 228.89 246.82 
M 317.3 195.68 320.61 198.39 325.83 201.64 334.37 211.13 334.8 213.28 334.8 215.01 333.21 218.31 332.05 219.83 331.62 222.04 330.2 223.29 325.12 226.35 324.13 228.17 322.48 229.34 321.07 230.74 318.68 230.42 316.53 230.35 314.73 230.63 312.97 230.55 307.78 229.43 305.39 228.76 303.37 228.57 302.2 229.53 300.46 229.92 298.36 229.95 296.56 229.71 286.67 226.42 285.49 224.3 283.84 222.35 278.31 217.39 
M 314.59 197.62 317.13 199.86 319.27 201.14 320.76 202.53 322.65 203.46 325.25 204.4 
M 311.89 199.55 316.39 203.06 318.11 204.83 319.75 206.09 321.93 207.39 324.36 207.7 326.07 208.66 327.25 209.97 
M 309.12 201.38 311.39 203.37 313.43 204.66 316.8 207.93 319.02 209.23 322.41 210.75 324.09 212.01 324.52 213.57 327.05 215.1 
M 306.34 203.21 310.57 206.37 312.76 207.48 314.38 209.42 316.18 210.72 318.57 211.57 321.03 213.04 323.4 215.48 324.18 216.01 326.48 217.08 
M 303.52 204.97 306.26 207.02 309.69 210.32 311.77 211.1 315.35 213.9 317.45 214.49 
M 300.69 206.72 303.52 208.84 305.1 210.74 308.69 213.88 310.61 214.74 312.29 216.03 314.05 217.06 315.98 217.72 318.4 219.17 320.16 219.98 
M 297.77 208.3 302.52 212.08 303.89 213.69 305.8 215.42 309.03 217.21 311.77 219.84 314.07 221.41 316.6 222.61 318.84 224.33 321.2 226.92 
M 294.84 209.87 297.6 211.92 301.4 215.22 303.02 216.87 305.93 218.4 307.31 219.52 
M 291.87 211.36 296.61 215.38 300.31 218.14 302.01 220.08 304 221.13 305.1 221.32 306.76 222.67 308.19 224.53 311.49 227.1 312.43 228.72 
M 288.9 212.85 293.31 216.57 297.83 219.63 301.32 223.39 302.33 223.87 
M 285.92 214.33 297.5 224.08 
M 282.9 215.71 287.77 220.28 290.04 221.92 291.59 223.84 
M 328.44 130.02 330.77 129.6 332.66 128.85 334.24 127.97 339.11 124.66 341.26 123.59 343.37 122.24 347.4 119.44 350.52 118.06 352.08 117.71 353.4 116.48 360.63 112.32 362.23 110.86 364.77 109.03 366.65 108.17 368.15 106.54 370.6 105.26 374.95 104.53 376.46 102.79 377.22 101.08 378.65 99.9 379.77 99.55 381.6 97.49 383.01 95.53 384.94 93.84 372.75 110.47 372.27 112.4 370.71 115.64 370.56 117.88 369.08 121.43 368.63 123.55 367.97 125.51 367.1 127.36 365.96 131.62 364.18 134.72 363.46 136.45 363.44 138.5 363.16 140.24 363.61 142.7 363.13 144.82 361.76 146.13 361.17 147.86 360.93 149.63 361.08 155.2 
M 361.94 168.11 362 172.61 363.13 178.61 363.73 180.62 363.44 182.12 363.4 183.85 363.62 185.77 364.23 187.51 365.41 189.83 366.13 191.68 367.47 194.09 368.01 195.46 368.16 196.43 368.02 199.79 368.79 203.9 370.79 208.07 371.27 209.64 372.35 212.01 386.4 229.17 382.42 225.84 379.17 222.85 375.82 221 374.62 219.4 370.87 217.13 366 212.77 362.41 211.29 359.77 209.97 357.45 209.13 356.91 207.43 355.4 205.92 352.09 204.08 350.05 203.35 346.5 200.51 343.02 198.32 341.17 197.34 328.44 187.34 
M 333.01 132.04 334.74 131.31 338.17 129.26 340.2 128.38 342.17 126.82 344.31 125.57 346.28 124.7 351.83 122.71 354.39 122.16 356.7 121.01 359.96 118.35 364.8 116.5 367.36 115.98 368.95 114.82 
M 331.17 135.6 333.23 135.09 337.15 132.97 339.1 132.27 342.8 130.49 346.76 128.89 348.82 128.26 350.32 128 351.87 127.28 353.67 126.88 355.54 125.77 356.81 125.37 358.68 125.54 
M 331.14 138.57 333.32 138.08 339.67 135.38 341.3 135.23 342.53 134.4 344.06 134.34 346.11 133.72 352.81 130.96 356.1 130.21 357.82 129.59 
M 335.79 140.46 341.18 138.42 343.12 138.22 344.9 137.42 349.49 136.78 351.71 135.06 
M 333.69 144.35 337.86 143.58 339.97 142.64 341.25 142.27 343.4 141.76 345.91 141.41 347.88 140.8 349.89 139.09 352.01 139.56 354.12 138.96 355.97 138.68 360.83 139.27 
M 333.69 147.51 335.49 147.25 338.09 147.73 340.02 147.71 341.7 147.47 343.57 147.05 345.19 146.19 347.76 145.92 350.6 144.89 353.67 144.31 
M 335.35 150.49 342.27 150.33 343.95 150.44 345.9 149.85 350.24 149.58 351.96 148.99 356.18 148.86 
M 328.44 152.95 330.94 153.64 335.49 154 340.15 153.2 341.63 152.62 348.53 152.8 
M 345.58 175.99 348.72 177.41 
M 337.64 176.93 339.57 177.88 346.14 179.28 
M 332.03 178.21 336.21 180.83 338.47 181.84 345.4 182.91 347.25 183.88 348.94 185.5 
M 335.07 182.73 336.89 183.87 339.21 184.89 342.82 185.92 346.2 187.68 348.55 188.55 353.93 191.68 
M 330.78 183.46 336.92 186.65 342.58 190.03 349.18 192.99 351.43 194.44 354.63 197.09 
M 334.68 188.82 340.48 192.96 343 193.48 346.08 195.92 348.37 197.35 350.38 198.23 352.02 199.57 354.39 200.92 355.94 202.38 357.38 202.89 359.31 205.26 360.68 206.27 362.49 208.07 364.73 208.68 366.96 208.86 368.86 210.16 371.1 211.17 
M 311.73 119.82 314.81 115.84 317.11 113.42 318.5 112.44 320.16 111.75 322.13 111.36 324.34 111.21 326.78 111.51 329.14 112.82 330.67 114.69 330.94 116.62 330.11 118.34 328.63 119.67 327.05 120.63 325.73 121.82 324.65 123.25 322.87 126.65 
M 316.51 116.66 318.5 115.1 320.16 114.41 322.13 114.02 324.34 113.87 325.56 114.02 
M 116.74 160.98 117.64 158.99 119.18 156.38 121.2 153.4 123.67 150.47 126.85 147.86 131.14 145.06 139.44 137.88 144.72 134.57 156.36 128.62 162.53 125.64 168.75 123.13 179.29 118.57 183.65 117.11 187.18 116.29 189.16 116 191.77 120.43 193 124.96 195.98 133.98 197.22 138.51 198 143.07 199.09 152.22 198.9 156.84 198.86 166.06 197.94 175.33 198.12 179.93 197.98 189.15 197.55 193.79 196.61 198.45 194.78 203.14 183.4 202.63 175.02 201.71 167.8 200.13 161.2 198.25 154.85 196.02 148.71 193.22 138.76 187.42 129.81 181.69 
M 127.39 179.8 126.04 178.75 123.2 175.58 120.1 170.99 
M 177.25 145 177.48 148.93 176.09 156.36 175.11 159.7 172.92 165.75 173.05 170.99 175.27 179.77 175.44 183.59 162.43 183.67 157.33 183.25 152.28 182.52 147.1 181.36 141.93 179.42 137.44 176.98 
M 128.77 181.27 126.12 178.41 114.52 163.94 114.17 162.32 115.2 160.98 116.88 160.98 118.07 162.23 121.38 167.94 124.18 172.23 127.45 177.97 129.93 181.6 
M 128.29 181.99 124.61 181.85 121.29 181.36 114.52 180.83 106.39 179.98 105.13 178.98 105.07 177.26 106.25 176.14 107.77 176.24 117.41 178.53 124.02 180.35 128.86 181.29 
M 129.55 181.43 129.71 181.47 
M 146.26 156.18 144.53 153.74 143.67 150.88 143.8 147.89 144.88 145.1 146.82 142.81 149.39 141.28 152.32 140.67 155.29 141.04 157.97 142.35 160.09 144.47 161.4 147.16 161.77 150.13 161.16 153.06 159.63 155.63 157.35 157.56 154.56 158.65 151.57 158.77 148.7 157.92 146.26 156.18 
M 158.61 145.53 159.66 147.68 159.96 150.05 159.47 152.39 158.24 154.45 156.41 156 154.18 156.87 151.79 156.97 149.5 156.28 147.55 154.89 
M 149.62 151.82 148.93 150.85 148.59 149.7 148.63 148.51 149.07 147.39 149.84 146.48 150.87 145.87 152.04 145.62 153.23 145.77 154.31 146.29 155.15 147.14 155.68 148.21 155.83 149.4 155.58 150.57 154.97 151.6 154.05 152.38 152.94 152.81 151.74 152.86 150.6 152.52 149.62 151.82 
M 148.84 149.53 152.16 152.84 
M 149.3 148.19 153.65 152.54 
M 150.59 147.68 154.72 151.81 
M 151.06 146.36 155.47 150.77 
M 152.68 146.18 155.82 149.32 
M 117.15 160.06 119.97 162.88 
M 118.54 157.46 121.53 160.46 
M 120.1 155.03 123.59 158.53 
M 121.78 152.72 125.66 156.6 
M 123.6 150.55 126.3 153.25 
M 125.78 148.74 129.24 152.21 
M 128.08 147.06 130.66 149.64 
M 130.49 145.48 133.09 148.08 
M 132.71 143.71 135.57 146.57 
M 134.86 141.88 138.59 145.6 
M 136.99 140.02 139.65 142.67 
M 139.12 138.16 142.49 141.53 
M 141.53 136.57 144.88 139.92 
M 143.98 135.04 146.77 137.82 
M 146.55 133.62 148.79 135.86 
M 149.17 132.25 152.05 135.13 
M 151.81 130.9 154.8 133.89 
M 154.47 129.57 158.35 133.45 
M 157.13 128.24 159.66 130.77 
M 159.82 126.95 163.13 130.26 
M 162.51 125.65 165.45 128.58 
M 165.36 124.5 169.17 128.32 
M 168.2 123.35 170.54 125.7 
M 171 122.17 174.33 125.5 
M 173.79 120.97 176.87 124.05 
M 176.57 119.76 179.45 122.64 
M 179.34 118.55 181.71 120.91 
M 182.34 117.55 186.25 121.46 
M 185.46 116.69 189.21 120.44 
M 188.81 116.05 189.67 116.91 
M 148.28 187.7 146.56 187.65 145.6 187.11 145.49 186.53 145.59 186.15 146.6 184.09 
M 171.68 164.6 171.88 164.1 172.86 163.26 173.29 163.13 173.88 163.25 174 163.55 173.74 163.91 
M 160.46 194.51 160.96 193.85 161.04 193.42 160.89 191.95 161.07 190.68 160.73 189.87 
M 190.89 155.3 190.82 153.77 190.64 153.27 189.1 151.04 188.49 149.22 187.88 147.97 187.6 146.79 
M 159.69 173.09 159.75 172.56 159.43 170.34 158.64 169.05 158.46 168.2 158.27 167.99 
M 189.67 181.08 188.96 180.96 188.05 180.27 
M 190.95 148.93 190.41 149.19 189.57 148.63 189.06 148.02 188.88 147.4 
M 181.66 141.25 180.59 139.41 179.27 138.77 178.49 138.85 176.7 140.02 
M 144.15 184.46 144.99 183.47 146.22 181.34 147.47 180.22 148.26 180.08 
M 127.98 158.87 127.47 158.9 
M 168.53 179.99 167.67 179.3 166.62 178.86 165.54 179.1 164.73 179.75 
M 183.2 119.02 182.11 118.52 181.54 117.81 
M 135.77 171.49 136.49 170.9 137.25 171.14 
M 164.2 156.69 164.86 155.65 166.6 155.25 166.95 154.89 
M 182.02 151.08 181.16 149.14 179.95 148.23 
M 141.7 146.3 141.55 148.42 140.79 150.31 
M 168.81 191.07 166.95 190.31 165.8 190.03 162.5 190.15 162.03 190.06 160.68 189.04 
M 192.14 190.11 191.79 189.45 191.6 188.54 192.39 186.56 
M 185.07 120.16 182.11 118.76 181.48 117.83 
M 178.34 145.18 176.05 144.6 175.06 144.62 174.68 144.82 174.23 145.48 174.14 146.15 174.26 146.99 
M 149.34 183 149.19 183.41 148.95 183.57 148.69 183.41 148.69 183.01 
M 193.26 139.76 193.64 140.01 194.18 140.94 194.28 142.2 194.49 142.84 195.19 143.59 196.33 144.07 
M 134.41 184.68 133.55 181.04 133.06 179.81 132.15 178.91 130.88 177.98 
M 177.38 192.07 175.24 193.15 173.86 193.2 172.86 192.66 171.13 191.02 169.92 190.12 168.84 189.59 
M 178.24 149.64 176.62 149.64 176.05 149.87 175.24 150.6 173.92 152.53 
M 173.65 138.7 172.69 140.29 172.36 141.23 172.57 141.87 173.64 143.05 173.83 143.98 
M 160.86 168.04 158.61 167.24 156.96 167.71 155.48 167.61 
M 190.49 199.95 192.28 200.03 193.25 200.69 
M 124.32 176.08 123.75 176.19 
M 131.45 180 130.7 178.72 129.14 177.42 127.47 176.35 127 175.8 
M 184.19 124.72 183.37 124.18 181.97 122.41 181.16 120.24 180.63 118.12 
M 177.9 163.52 176.3 163.9 174.7 165.05 173.48 165.59 
M 164.43 144.24 162.66 145.7 161.87 146.04 160.88 146.09 
M 182.75 201.72 182.96 202.19 183.29 202.36 185.09 202.56 185.88 202.33 
M 146.36 168.36 144.75 167.26 143.64 166.24 143.22 166.14 
M 169.01 162.12 169.61 161.69 172.71 160.57 173.56 160.56 174.61 160.8 
M 149.17 184.12 148.59 183.92 148.29 183.39 148.14 182.6 148.18 181.14 
M 172.72 135.42 172.11 135.65 171.21 137.37 170.18 138.87 169.44 139.67 168.97 139.9 
M 198.03 177.55 196.32 177.97 195.47 178.37 194.66 179.19 193.73 180.96 192.58 182.05 
M 171.25 147.24 172.32 147.99 172.83 148.7 173.24 149.8 173 150.48 
M 143.13 174.81 143.93 173.84 144.27 172.95 144.71 169.34 144.64 168.66 143.55 167.37 
M 144.91 145.07 144.06 144.79 143.33 144.9 142.82 145.38 142.31 146.33 
M 147.16 188.61 145.63 188.74 143.61 188.37 142.64 187.4 141.96 185.94 
M 196.85 152.15 196.6 151.4 196.84 150.77 
M 132.23 183.27 132.16 181.1 131.94 180.36 131.24 179.06 130.15 178.02 
M 134.52 143.81 134.07 144.08 133.82 144.04 
M 187.68 132.76 187.58 133.14 187.33 133.27 186.35 133.27 183.96 133.72 
M 182.91 180.9 182.13 180.56 180.32 179.33 179.97 179.26 178.69 179.63 178.09 179.65 
M 184.45 174.66 184.08 173.51 184.03 172.31 184.51 169.84 184.49 169.05 184.05 168.62 182.77 168.09 181.41 167.75 
M 198.08 178.82 196.91 178.88 195.93 179.26 194.94 180.06 193.53 181.63 192.49 182.44 191.93 182.68 
M 183.65 155.05 183.77 154.35 183.61 153.34 182.3 149.2 
M 173.61 197.9 174.14 196.81 174.5 196.53 175.13 196.55 175.4 197.12 
M 157.64 129.64 156.41 128.59 
M 192.94 143.72 195.26 145.24 198.39 146.07 
M 196.25 184.73 194.37 183.58 192.89 183.28 
M 191.07 129.53 191.42 129 191.4 128.65 190.97 127.73 190.23 126.79 188.46 125.77 186.99 125.2 185.31 123.64 
M 178.08 184.34 178.67 182.68 178.68 181.81 178.45 180.95 177.78 180.48 175.77 180.06 
M 128.81 166.57 129.23 166.36 130.37 164.82 131.97 164.21 
M 188.73 141.91 189.49 141.23 190.28 141.07 190.86 141.14 193.5 142.22 194.39 143.21 
M 190.42 120.87 190.17 120.59 189.96 119.85 190.13 117.65 
M 187.7 138.14 186.78 138 185.84 137.5 183.8 136.01 183.17 135.38 181.84 134.56 
M 133.06 173.3 132.96 172.65 132.64 171.99 130.43 170.19 129.09 168.54 128.87 167.28 
M 125.85 165.73 126.94 164.49 127.55 163.3 127.94 162.88 129.81 162.02 130.51 161.48 131.08 160.49 131.29 159.18 
M 133.52 184.11 133.38 181.8 133.05 180.35 132.75 179.76 131.8 178.84 
M 170.51 143.57 171.54 144.67 173.14 145.9 173.57 146.49 174.01 147.71 
M 194.14 160.68 194.04 160.15 194.23 159.33 194.58 159.05 195.82 158.68 
M 192.6 170.66 189.35 169.3 189.09 169.05 
M 130.44 181.21 129.92 179.94 129.6 179.63 128.15 179.02 
M 163.29 143.34 161.99 143.66 159 143.38 
M 188.46 119 187.69 118.33 186.02 117.78 183.47 117.71 182.68 117.43 
M 138.24 167.96 136.83 169.86 136.59 170.58 
M 187.52 162.21 187.29 162.53 186.85 162.67 185.37 162.51 
M 187.29 172.38 187.36 171 187.71 169.64 187.65 169.03 186.72 168.22 184.88 167.62 
M 170.56 170.94 172.45 172.11 173.93 172.7 174.19 173.1 173.79 173.98 
M 139.35 184.6 138.04 184.16 135.76 182.93 135 182.07 134.64 180.6 133.65 179.37 
M 171.91 134.6 171.84 134.73 
M 160.52 193.5 160.82 192.94 161.05 190.89 160.82 190.06 160.12 188.99 
M 169.81 154.25 170.34 154.98 172.65 155.96 173.85 156.89 
M 164.87 180.16 165.14 180.56 165.71 180.7 
M 188.89 154.25 188.4 150.79 187.04 147.05 186.88 146.18 
M 196.75 192.11 195.77 194.09 195.26 195.76 
M 184.26 160.53 184.36 161.02 184.21 161.42 183 161.82 
M 176.6 146.1 175.56 145.65 174.74 145.77 174.47 146.22 174.4 147.2 
M 184.85 190.77 185.88 190 186.49 189.77 186.63 189.47 
M 132.54 152.74 129.38 152.61 128.35 152.37 127.14 151.43 126.33 150.01 
M 191.69 124.2 189.03 122.55 188.42 121.76 187.86 120.06 187.25 119.39 186.14 118.79 
M 183.8 181.09 183.4 181.49 182.8 181.48 181.86 180.98 180.51 179.8 179.82 179.65 179.4 179.74 
M 183.74 133.48 182.09 133.99 181.03 133.67 179.9 133.04 
M 195.19 174.79 194.7 176.06 191.95 180 
M 135.44 149.07 135.4 149.29 135.13 149.25 
M 178.14 199.3 179.2 201 179.67 202.22 
M 175.17 168.95 173.79 167.99 173.47 166.94 
M 168.81 200.35 170.05 199.38 172.17 197.07 172.84 195.65 172.87 194.96 
M 186.28 153.17 186.44 150.09 185.63 145.84 
M 160.06 189.75 160.01 188.91 159.15 188.31 
M 173.18 177.28 172.14 175.91 172.03 175.46 172.15 175.04 172.72 174.38 173.71 174.03 
M 198.48 155.2 198.99 154.75 
M 130.53 182.41 129.84 183.01 128.93 184.42 128.51 186.12 128.51 187.01 128.93 188.81 130.76 193.43 132.37 198.17 130.33 193.62 127.95 189.2 127.23 187.2 127.1 186.09 127.38 183.88 127.79 182.81 128.4 181.81 129.12 181 
M 129.81 181.69 130.21 182.25 
M 127.68 180.09 127.67 180.24 127.77 180.19 
M 125.76 177.95 125.52 178.76 126.08 178.35 
M 124.12 175.81 123.65 176.34 123.36 177.29 123.89 176.66 124.56 176.39 
M 122.43 173.79 121.64 174.6 121.21 175.82 121.87 174.93 122.96 174.42 
M 120.75 171.79 119.62 172.87 119.05 174.35 119.85 173.19 121.3 172.45 
M 119.09 169.77 117.6 171.13 116.9 172.88 117.83 171.46 119.66 170.46 
M 117.48 167.73 115.58 169.4 114.74 171.41 115.81 169.72 118.04 168.46 
M 115.91 165.66 113.56 167.66 112.59 169.94 113.79 167.99 116.5 166.41 
M 114.43 163.51 111.55 165.93 110.44 168.47 111.78 166.25 114.89 164.4 
M 129.69 181.68 130.48 181.82 
M 126.57 180.85 127.3 180.25 127.48 180.99 
M 123.67 180.25 124.17 179.29 124.77 178.79 124.56 179.36 124.73 180.51 
M 120.89 179.48 121.44 178.1 122.24 177.33 121.83 178.16 121.91 179.74 
M 118.1 178.71 118.71 176.91 119.71 175.87 119.11 176.97 119.09 178.97 
M 115.27 178.06 115.98 175.71 117.19 174.41 116.38 175.78 116.28 178.29 
M 112.45 177.39 113.26 174.52 114.66 172.95 113.65 174.59 113.46 177.64 
M 109.64 176.68 110.53 173.33 112.13 171.49 110.92 173.4 110.65 176.93 
M 106.78 176.18 107.8 172.14 109.6 170.04 108.19 172.21 107.84 176.26 
M 112.08 180.54 118.74 183.79 122.68 185.44 127.2 186.93 
M 128.56 187.3 135.02 188.83 143.46 190.25 
M 126.49 184.47 124.67 185.21 123.76 185.8 
M 126.65 185.53 124.98 186.21 
M 127.18 186.8 126.9 186.85 
M 190.69 118.6 195.86 123.76 
M 191.77 114.36 196.01 118.6 
M 195.03 112.3 200.11 117.37 
M 198.28 110.23 205.96 117.91 
M 201.56 108.2 209.02 115.66 
M 204.94 106.25 211.27 112.58 
M 208.39 104.38 216.21 112.21 
M 211.89 102.57 218.41 109.09 
M 215.51 100.86 220.92 106.28 
M 219.09 99.13 224.66 104.7 
M 222.65 97.37 227.86 102.58 
M 226.48 95.88 232.8 102.2 
M 230.47 94.56 236.24 100.33 
M 234.66 93.42 242.18 100.94 
M 239.03 92.48 246.46 99.9 
M 244.07 92.2 249.07 97.2 
M 249.27 92.08 253.82 96.63 
M 254.4 91.9 258.65 96.15 
M 260.49 92.66 265.51 97.68 
M 268.86 95.71 273.93 100.78 
M 279.37 100.91 285.27 106.81 
M 289.91 106.13 295.01 111.23 
M 303.92 114.82 310.01 120.91 
M 318.16 123.74 325.53 131.11 
M 331.77 132.04 333.84 134.11 
"/></svg>