<svg xmlns="http://www.w3.org/2000/svg" width="520" height="320"><rect x="0" y="0" width="520" height="320" fill="floralwhite"/><rect x="10" y="10" width="500" height="300" stroke="black" stroke-width="1" fill="none"/><path stroke="black" stroke-width="1" fill="none" stroke-linecap="round" stroke-linejoin="round" d="
M 150.69 104.66 159.96 101.85 178.47 98.9 196.98 94.59 206.23 93 215.48 92.19 224.74 91.82 233.99 91.67 252.5 92.02 261.75 91.64 271.01 91.67 280.26 92.64 289.51 94 308.02 97.19 317.28 99.69 335.78 105.74 345.04 108.48 354.29 111.54 363.54 115.91 372.8 122.2 382.05 137.01 
M 382.05 158.59 372.8 171.44 363.54 176.48 354.29 180.04 345.04 182.53 335.78 184.79 326.53 187.54 317.28 190.73 308.02 193.42 298.77 194.84 289.51 195.6 271.01 196.38 252.5 196.14 243.24 196.9 233.99 198.1 224.74 199 215.48 199.12 206.23 198.15 196.98 195.98 187.72 192.92 178.47 189.3 169.21 185.39 159.96 182.04 150.71 179.87 141.47 178.75 
M 148.69 168.53 150.47 164.48 150.71 163.54 
M 161.14 170.34 161.14 168.22 
M 150.28 165.46 150.71 165.37 
M 149.98 168.35 152.83 168.36 
M 156.89 168.39 156.94 168.39 
M 151.62 106.48 151 104.57 
M 160.87 170.27 161.15 169.94 161.76 168.54 
M 154.19 116.26 155.4 115.67 160.48 110.66 163.77 104.99 163.77 101.49 163.62 101.23 
M 154.27 103.58 157.98 103.59 
M 152.22 107.09 157.71 107.87 
M 169.6 132.35 167.58 127.09 163.64 121.24 160.56 118.95 
M 157.71 132.03 165.15 130.61 
M 173.43 174.04 174.85 170.15 174.85 166.53 174.61 165.87 
M 164.6 168.07 170.6 168.1 
M 168.45 172.41 171.01 172.87 
M 162.59 104.87 163.54 104.44 167.8 100.52 
M 171.42 132.28 173.6 129.49 176.24 123.55 176.24 119.87 173.6 113.93 169.5 108.68 166.3 106.63 
M 163.19 118.61 171.74 117.24 
M 163.25 121.37 171.52 121.63 
M 165.76 125.04 171.75 126.54 
M 174.09 167.83 174.87 167.03 175.56 165.63 
M 179.94 176.18 179.73 175.54 176.94 170.86 174.76 169.03 
M 175.3 119.88 179.22 115.89 182.08 110.75 182.08 107.58 179.22 102.45 176.08 99.25 
M 167.85 106.62 176.74 105.55 
M 169.49 109.29 176.79 109.17 
M 171.82 112.24 176.97 113.09 
M 184.43 131.78 183.81 130.34 179.97 125.18 176.97 123.17 
M 184.52 177.54 186.27 174.91 188.39 169.26 188.39 165.77 187.75 164.07 
M 177.97 167.61 184.92 167.74 
M 178.11 170.29 184.38 171.85 
M 179.39 103.1 180.76 101.35 182.25 98.02 
M 178.52 98.89 179.17 98.99 
M 189.66 131.58 191.59 126.5 191.59 122.99 189.44 117.33 186.09 112.32 183.48 110.37 
M 181.19 121.49 187.74 120.82 
M 181.2 124.8 187.95 124.42 
M 181.38 127.66 187.82 128.98 
M 195.59 180.43 193.77 174.87 190.96 169.97 188.77 168.07 
M 188.49 178.68 192.32 177.76 
M 190.82 121.83 194.72 117.63 197.36 112.63 197.36 109.54 194.72 104.55 190.63 100.14 187.44 98.42 
M 184.35 108.74 192.61 107.3 
M 184.88 111.15 192.83 111.11 
M 186.99 114.25 192.48 115.18 
M 198.66 131.23 195.1 126.61 192.13 124.69 
M 195.38 180.38 197.06 179.21 200.57 174.32 202.84 168.77 202.84 165.34 200.57 159.79 199.68 158.54 
M 191.65 164.09 199.08 162.78 
M 191.78 166.93 198.48 166.79 
M 191.75 170 199 171.58 
M 195.59 105.93 198.33 103.21 200.78 98.92 200.78 96.27 199.57 94.15 
M 188.96 97.64 196.01 97.89 
M 189.76 99.75 196.14 100.85 
M 206.62 130.92 207.66 128.28 207.66 124.87 205.5 119.37 202.15 114.51 199.54 112.61 
M 197.26 124.15 203.92 122.05 
M 197.27 126.87 203.61 126.75 
M 196.95 128.98 204.04 130.58 
M 202.03 164.9 202.74 164.36 205.98 159.53 207.53 155.48 
M 210.09 182.67 210.09 180.33 208.21 174.84 205.3 170 203.02 168.11 
M 200.75 179.4 206.79 178.11 
M 202.41 181.71 206.52 181.64 
M 202.21 101.88 206.03 100.9 210.92 98.39 214.08 95.55 214.08 93.79 212.59 92.45 
M 199.9 94.51 208.48 94.53 
M 199.9 96.41 208.02 96.87 
M 206.89 125.47 208.44 124.74 212.82 120.64 215.64 116 215.64 113.12 212.82 108.48 208.44 104.37 205.02 102.77 
M 201.46 112.48 210.77 110.79 
M 202.04 114.74 210.84 114.92 
M 203.7 117.31 210.15 117.87 
M 208.59 154.51 209.9 153.72 
M 212.68 130.69 211.58 129.37 208.52 127.54 
M 209.71 181.72 212.58 179.88 216.25 175.17 218.62 169.83 218.62 166.53 216.25 161.19 212.58 156.48 209.71 154.64 
M 206.89 165.13 214.49 163.9 
M 206.83 167.83 214.47 168.2 
M 206.71 171.1 214.61 172.08 
M 210.86 182.73 210.73 182.65 
M 213.63 96.62 216.88 96.07 221.04 94.65 223.73 93.05 223.73 92.06 223.42 91.87 
M 212.95 92.57 218.68 92.63 
M 212.95 93.14 218.72 93.43 
M 214.63 112.84 215.47 112.51 219.6 109.24 222.27 105.53 222.27 103.24 219.6 99.53 215.57 96.34 
M 208.74 102.12 217.13 101.92 
M 208.9 104.51 217.54 104.08 
M 209.61 105.94 217.79 106.98 
M 224.78 130.22 224.78 128.1 222.65 123.02 219.35 118.53 216.78 116.78 
M 214.14 126.9 220.91 125.5 
M 214.11 130.01 220.9 129.38 
M 217.77 168.69 220.03 167.04 223.2 162.42 225.24 157.19 225.24 153.95 222.93 148.34 
M 215.5 153.28 221.76 151.37 
M 214.83 155.45 221.17 155.86 
M 215.09 158.14 221.6 159.56 
M 225.14 182.89 225.14 181.16 223.26 176.01 220.33 171.46 218.05 169.68 
M 216.03 180.32 221.87 178.88 
M 215.91 183.06 222.06 182.37 
M 222.15 107.33 225.66 106.42 230.16 104.1 233.06 101.47 233.06 99.85 230.16 97.22 225.66 94.9 222.39 94.05 
M 219.15 99.53 227.67 98.64 
M 220.67 100.71 227.6 100.58 
M 221.32 102.09 228.1 102.71 
M 224.02 128.91 226.45 127.83 230.62 124.13 233.31 119.95 233.31 117.36 230.62 113.17 226.45 109.47 223.19 108.03 
M 220.09 116.67 228.82 115.58 
M 220.4 118.38 228.25 118.82 
M 220.71 120.89 228.38 121.86 
M 224.61 155.56 227.5 153.84 231.2 149.44 233.59 144.45 233.59 141.37 233.23 140.61 
M 224.91 145.96 229.28 147.07 
M 224.94 182.23 227.71 180.45 231.26 175.89 233.55 170.73 233.55 167.53 231.26 162.36 227.71 157.8 224.94 156.02 
M 222.65 166.46 229.01 165.27 
M 221.96 169.52 229.32 169 
M 222.38 171.99 229.65 173.34 
M 232.02 100.5 233.86 100.05 237.07 98.49 239.14 96.72 239.14 95.62 237.07 93.85 233.86 92.29 231.49 91.71 
M 228.8 95.57 235.25 94.97 
M 228.9 96.15 235.73 95.85 
M 229.31 96.68 235.73 97.63 
M 232.35 117.83 234.1 117.06 237.58 114.03 239.82 110.59 239.82 108.47 237.58 105.03 234.1 102 232.02 101.09 
M 229.09 107.71 235.38 106.65 
M 228.81 109.58 236.04 109.18 
M 229 111.43 235.55 112.11 
M 232.74 142.23 234.7 140.92 237.71 136.9 
M 239.62 129.65 237.69 125.09 234.7 121.1 232.37 119.54 
M 230.07 128.72 236.38 127.34 
M 232.73 167.55 233.98 166.58 236.87 162.07 238.73 156.96 238.73 153.8 236.87 148.7 233.98 144.19 232.74 143.22 
M 229.91 152.6 235.39 151.41 
M 229.22 155.56 235.52 155.3 
M 229.77 158.04 235.6 159.49 
M 239.36 181.57 239.36 181.2 237.52 176.02 234.66 171.46 232.73 169.92 
M 230.49 180.24 236.23 178.5 
M 239.02 109.61 241.55 108.81 245.21 106.47 247.57 103.83 247.57 102.2 245.21 99.55 241.55 97.22 238.69 96.31 
M 235.58 101.56 243.01 101.03 
M 235.79 102.94 243.48 103.36 
M 236.91 104.78 242.96 105.07 
M 241.37 129.58 242.11 129.22 245.74 125.71 248.09 121.74 248.09 119.27 245.74 115.3 242.11 111.78 239.26 110.41 
M 236.6 118.39 244.01 117.15 
M 236.64 120.34 243.46 120.68 
M 236.34 122.22 243.59 123.31 
M 239.37 155.54 242.08 153.88 245.56 149.64 247.8 144.84 247.8 141.87 245.56 137.07 242.39 133.2 
M 237 141.23 243.72 139.52 
M 236.51 143.27 244.1 143.48 
M 236.6 145.6 244.08 147.13 
M 240.59 181.43 242.08 180.46 245.53 175.94 247.76 170.81 247.76 167.64 245.53 162.52 242.08 158 239.38 156.23 
M 237 166.54 243.89 165.12 
M 236.7 169.59 243.95 169.55 
M 237.07 171.82 243.95 172.77 
M 246.36 100.52 247.57 100.14 250.2 98.46 251.89 96.56 251.89 95.38 250.2 93.48 247.81 91.96 
M 243.4 95.02 248.78 94.65 
M 243.35 95.99 248.78 96.1 
M 243.25 96.83 248.48 97.06 
M 247.25 118.78 248.76 117.98 251.64 114.92 253.49 111.45 253.49 109.31 251.64 105.84 248.76 102.78 246.72 101.7 
M 244.63 108.81 250.19 107.75 
M 244.26 110.14 250.13 110.18 
M 244.35 112.01 249.9 113.1 
M 246.99 142.34 248.96 140.94 251.74 136.97 253.54 132.49 253.54 129.71 251.74 125.22 248.96 121.26 247.25 120.04 
M 244.36 128.8 249.91 127.34 
M 244.7 130.86 250.44 131.08 
M 244.43 133.32 250.01 134.87 
M 246.96 168.56 248.86 167.1 251.79 162.6 253.67 157.5 253.67 154.35 251.79 149.26 248.86 144.76 246.99 143.32 
M 244.23 153.65 249.93 152.42 
M 244.19 156.04 250.1 156.1 
M 244.32 158.51 250.53 159.65 
M 253.43 180.53 251.85 176.1 249 171.58 246.96 169.96 
M 244.58 179.88 250.59 179.04 
M 252.83 109.32 254.98 108.5 258.2 106.04 260.29 103.25 260.29 101.53 258.2 98.75 254.98 96.29 252.46 95.33 
M 250.19 101.37 256.6 100.39 
M 249.83 102.77 256.19 102.76 
M 250.19 104.12 256.33 104.74 
M 253.46 130.6 256.01 129.21 259.27 125.64 261.37 121.6 261.37 119.1 259.27 115.05 256.01 111.49 253.46 110.09 
M 251.03 118.27 257.22 117.09 
M 250.69 120.24 257.4 120.28 
M 250.78 122.11 257.52 123.37 
M 253.7 155.6 256.28 153.94 259.59 149.67 261.72 144.84 261.72 141.84 259.59 137.01 256.28 132.74 253.7 131.08 
M 250.81 141.16 258.05 139.46 
M 251.4 143.01 257.82 143.11 
M 250.89 145.86 257.84 147.39 
M 256.6 180.54 259.96 176.1 262.16 170.98 262.16 167.81 259.96 162.7 256.55 158.18 253.88 156.41 
M 251.13 166.51 258.12 165.36 
M 251.6 169.19 257.79 169.08 
M 250.99 171.78 258.28 172.97 
M 257.92 98.79 259.53 98.19 262.05 96.3 263.68 94.17 263.68 92.85 262.76 91.64 
M 255.45 92.5 260.74 92.04 
M 255.56 93.33 260.37 93.35 
M 255.82 94.82 261 95.07 
M 260.62 118.72 262.37 117.69 265.1 114.47 266.86 110.84 266.86 108.58 265.1 104.95 262.37 101.74 260.24 100.48 
M 258.16 107.55 263.71 106.86 
M 257.98 109.94 263.55 109.7 
M 258.13 111.91 263.44 112.45 
M 260.96 141.27 262.23 140.23 264.72 136.19 266.32 131.62 266.32 128.78 264.72 124.21 262.23 120.17 260.62 118.85 
M 258.06 128.03 263.46 126.69 
M 258.59 130.29 263.35 129.95 
M 258.82 132.79 263.68 133.67 
M 261.37 169.06 263.34 167.48 266.18 162.91 268.02 157.74 268.02 154.53 266.18 149.36 263.34 144.79 261.12 143 
M 259.21 153.89 264.47 151.85 
M 259.08 156.36 264.91 156.5 
M 259.11 159.04 265.02 160.23 
M 267.57 180.63 265.97 176.07 263.2 171.58 261.37 170.11 
M 259.22 180.41 264.86 178.73 
M 266.23 108.09 268.2 107.35 271.56 104.83 273.73 101.96 273.73 100.19 271.56 97.33 268.2 94.8 265.57 93.82 
M 262.84 99.84 269.58 99.24 
M 262.73 101.01 269.48 100.91 
M 263.05 102.31 269.86 103.06 
M 266.38 129.17 268.95 127.76 272.25 124.16 274.38 120.08 274.38 117.56 272.25 113.48 268.95 109.88 266.38 108.48 
M 263.9 117 270.57 116.06 
M 263.59 118.68 270.5 119.07 
M 263.75 120.84 270.57 121.61 
M 267.36 154.46 269.52 153.04 272.87 148.65 275.04 143.67 275.04 140.59 272.87 135.61 269.52 131.21 266.91 129.49 
M 264.41 139.3 271.36 138.23 
M 264.33 142.3 271.19 141.99 
M 264.29 144.66 271.25 145.57 
M 270.49 180.66 274 175.97 276.17 170.75 276.17 167.52 274 162.31 270.62 157.7 267.98 155.9 
M 265.52 166.23 272.54 164.81 
M 265.27 168.99 272.05 169.1 
M 265.39 171.57 272.19 173.22 
M 271.4 97.47 273.03 96.97 276.22 94.99 278.27 92.75 278.27 92.43 
M 267.76 91.72 274.58 92.35 
M 268.13 93.53 274.67 93.64 
M 273.95 117.75 276.12 116.57 278.89 113.54 280.68 110.1 280.68 107.98 278.89 104.54 276.12 101.51 273.95 100.32 
M 271.61 107.33 277.55 106.35 
M 272.1 109.23 277.64 109 
M 272.07 110.71 277.67 111.48 
M 273.3 136.62 276.38 132.45 278.32 127.78 278.32 124.9 276.38 120.23 274.09 117.1 
M 272.81 123.18 275.1 122.63 
M 269.84 126.38 274.44 126.55 
M 268.98 128.99 275.17 130 
M 275.39 169.61 277.4 167.89 280.24 163.04 282.08 157.54 282.08 154.13 280.24 148.63 277.4 143.77 275.18 141.88 
M 272.75 153.17 278.52 151.76 
M 273.35 155.87 279.01 155.84 
M 272.66 158.37 278.75 159.66 
M 281.39 180.5 279.58 175.17 276.78 170.66 275.39 169.54 
M 272.19 179.12 278.06 177.89 
M 280.4 108.39 283.3 107.47 287.01 105.1 289.4 102.42 289.4 100.77 287.01 98.09 283.3 95.72 280.4 94.8 
M 277.9 100.19 285.37 99.58 
M 277.49 101.76 284.89 101.36 
M 277.83 103.14 284.7 103.38 
M 280.61 128.92 283.45 127.53 287.09 123.97 289.44 119.94 289.44 117.45 287.09 113.42 283.45 109.86 280.61 108.47 
M 277.56 116.51 285.06 115.9 
M 277.87 118.52 284.97 118.57 
M 277.78 121.02 284.93 122.13 
M 281.42 154.74 284.13 153.1 287.75 148.7 290.08 143.73 290.08 140.65 287.75 135.68 284.13 131.28 281.31 129.57 
M 278.74 139.83 286.01 138.06 
M 278.77 142.27 285.78 142.26 
M 278.82 144.82 286.06 145.85 
M 284.66 180.44 288.19 175.76 290.37 170.57 290.37 167.35 288.19 162.16 284.8 157.57 282.16 155.78 
M 279.41 166.26 286.03 164.85 
M 279.24 168.77 286.54 168.94 
M 279.25 171.9 286.07 172.97 
M 288.98 100.68 291.63 100.1 295.02 98.63 297.21 96.95 297.21 95.92 296.12 95.08 
M 286.47 95.24 293.07 95.18 
M 286.69 96.13 293.14 96.26 
M 286.77 97.06 293.39 97.43 
M 288.6 117.16 290.47 116.24 293.49 113.26 295.43 109.89 295.43 107.81 293.49 104.44 290.47 101.46 288.54 100.51 
M 286.23 107.14 291.99 106.44 
M 286.06 108.98 292.05 108.74 
M 286.02 110.82 291.61 111.33 
M 289.32 142.36 291.93 140.76 295.27 136.65 297.43 132 297.43 129.12 295.27 124.47 291.93 120.36 289.32 118.76 
M 286.41 128.49 293.67 126.9 
M 286.55 130.21 293.57 130.48 
M 286.94 132.6 293.47 134.44 
M 289.7 168.91 291.94 167.16 294.8 162.68 296.65 157.6 296.65 154.45 294.8 149.37 291.94 144.89 289.7 143.14 
M 287.3 153.8 293.03 151.77 
M 287.61 155.73 293.37 156.25 
M 287.37 158.42 293.26 159.65 
M 295.73 180.08 294.1 175.45 291.32 170.96 289.59 169.56 
M 286.67 179.42 292.72 178.15 
M 296.35 109.74 299.21 108.87 302.88 106.63 305.25 104.1 305.25 102.53 302.88 99.99 299.21 97.76 296.43 96.91 
M 293.3 102.11 300.81 101.42 
M 293.49 103.41 301.07 103.47 
M 293.32 104.43 300.95 105.16 
M 296.66 130.21 299.29 128.95 302.95 125.46 305.3 121.51 305.3 119.06 302.95 115.11 299.29 111.62 296.43 110.26 
M 293.77 118.18 301.11 117.22 
M 293.92 120.57 300.67 120.22 
M 293.85 122.52 300.95 123.02 
M 296.79 155.53 299.57 153.89 303.14 149.67 305.44 144.89 305.44 141.93 303.14 137.15 299.57 132.93 296.79 131.28 
M 294.12 141.28 301 139.52 
M 293.8 143.49 301.4 143.33 
M 294.28 146.21 301.21 146.85 
M 298.58 179.95 298.89 179.74 302.18 175.32 304.31 170.32 304.31 167.22 302.18 162.22 298.89 157.8 296.32 156.07 
M 293.6 166.14 300.83 165.07 
M 293.82 168.39 300.73 169.12 
M 293.68 171.37 300.24 172.74 
M 304.4 101.74 306.39 101.2 309.27 99.64 310.99 97.99 
M 302.3 97.59 307.37 97.31 
M 301.97 97.93 307.52 98.5 
M 304.46 118.94 306.45 117.95 309.39 115.01 311.29 111.68 311.29 109.62 309.39 106.3 306.45 103.36 304.4 102.34 
M 302.29 108.77 308.13 107.99 
M 301.61 110.33 307.99 110.88 
M 302.31 112.31 307.5 113.01 
M 304.62 142.09 306.4 140.87 309.29 136.93 311.15 132.46 311.15 129.7 309.29 125.23 306.4 121.29 304.46 119.96 
M 302.17 129.18 307.93 127.76 
M 301.62 130.74 307.62 131.23 
M 302.11 133.25 307.54 134.21 
M 303.99 168.45 306.17 166.76 308.96 162.41 310.76 157.49 310.76 154.44 308.96 149.52 306.17 145.18 304.62 143.97 
M 302.22 153.83 307.34 152.61 
M 302.04 155.84 307.47 156.25 
M 302.16 158.2 307.86 159.47 
M 308.42 178.91 306.97 174.52 304.43 170.17 303.55 169.41 
M 300.39 178.74 305.9 177.12 
M 310.94 110.06 313.55 109.18 316.88 106.92 319.04 104.37 319.04 102.79 316.88 100.24 315.28 99.15 
M 308.17 101.96 315.26 101.43 
M 308.54 103.69 315.17 103.25 
M 308.72 104.54 315.3 105.23 
M 311.05 130.52 313.67 129.17 317.01 125.71 319.17 121.79 319.17 119.37 317.01 115.45 313.67 111.99 311.05 110.64 
M 308.62 118.32 314.87 117.48 
M 308.74 120.9 315.53 120.24 
M 308.15 122.92 315.05 123.46 
M 311.05 155.11 313.62 153.5 316.92 149.4 319.04 144.75 319.04 141.88 316.92 137.23 313.62 133.13 311.05 131.53 
M 308.3 141.13 315.08 139.55 
M 308.5 143.24 315.55 143.6 
M 308.24 145.6 315.49 147.04 
M 312.14 178.14 315.15 173.99 317.15 169.16 317.15 166.17 315.15 161.33 312.05 157.07 310.12 155.73 
M 307.02 164.99 313.78 163.61 
M 307.02 167.55 313.27 167.28 
M 307.27 169.76 313.37 170.99 
M 317.86 101.05 319.77 100.51 
M 318.4 117.82 319.63 117.11 322.21 114.13 323.87 110.75 323.87 108.66 322.21 105.29 319.63 102.31 318.26 101.52 
M 315.42 107.84 321.1 107.28 
M 315.93 109.57 320.83 109.33 
M 315.68 111.05 320.83 112.31 
M 318.31 142.29 320.45 140.74 323.18 136.77 324.95 132.27 324.95 129.49 323.18 124.99 320.45 121.02 318.4 119.53 
M 316.18 128.92 321.73 127.81 
M 316.09 130.63 321.57 131.08 
M 316.26 133.38 321.72 134.66 
M 317.74 167.27 319.75 165.65 322.33 161.5 323.99 156.79 323.99 153.88 322.33 149.18 319.75 145.02 318.28 143.84 
M 315.48 153.04 321.35 151.98 
M 315.58 155.14 321.32 155.53 
M 315.64 157.39 321.27 158.61 
M 320.07 176.39 318.66 172.11 316.43 168.23 
M 313.81 175.35 317.42 174.35 
M 312.52 178.05 312.56 178.05 
M 324.2 108.8 326.59 107.93 329.66 105.71 330.9 104.14 
M 322.24 102.21 325.93 102.51 
M 321.95 103.78 328.4 104.56 
M 324.36 129.43 326.73 128.07 329.78 124.61 331.75 120.68 331.75 118.25 329.78 114.33 326.73 110.86 324.36 109.51 
M 322.2 117.33 327.95 116.49 
M 322.37 119.59 328.16 119.36 
M 322.43 121.25 327.92 122.26 
M 324.31 153.72 326.65 152.15 329.64 148.13 331.57 143.57 331.57 140.75 329.64 136.19 326.65 132.17 324.32 130.6 
M 322.24 139.59 327.82 138.52 
M 322.01 141.97 328.35 142.03 
M 322.06 144.25 327.91 145.77 
M 324.78 175.24 327.22 171.76 329.12 166.99 329.12 164.04 327.22 159.28 324.28 155.07 323.39 154.45 
M 321.2 162.85 325.96 162.25 
M 319.63 165.45 325.53 165.67 
M 320.01 167.87 325.96 169.09 
M 330.57 115.58 331.77 114.85 334.2 111.88 335.77 108.51 335.77 106.43 335.39 105.61 
M 329.54 105.57 332.7 104.97 
M 328.18 107.18 333.29 107.39 
M 327.98 109.15 332.55 110.24 
M 331.64 141.13 333.52 139.59 335.92 135.65 337.46 131.18 337.46 128.42 335.92 123.95 333.52 120.01 331.64 118.47 
M 330.03 127.72 334.77 126.29 
M 329.46 130.03 334.7 129.77 
M 329.89 131.73 335.02 132.83 
M 329.55 164.19 331.32 162.62 333.58 158.59 335.03 154.03 335.03 151.21 333.58 146.65 331.32 142.62 330.88 142.23 
M 327.85 150.08 332.73 149.15 
M 328.01 152.28 332.3 152.4 
M 327.93 154.8 332.42 156.06 
M 332.29 173.65 330.82 169.18 328.44 165.07 
M 326.19 172.77 329.22 171.99 
M 336.29 106.24 336.83 106.05 
M 336.78 125.77 338.32 124.9 341.27 121.55 343.18 117.76 343.18 115.41 341.27 111.62 338.32 108.27 336.01 106.96 
M 333.99 115.01 339.64 113.35 
M 333.45 116.63 339.35 116.93 
M 333.42 118.3 339.51 119.65 
M 335.1 149.88 337.31 148.31 340.14 144.3 341.97 139.76 341.97 136.95 340.14 132.4 337.31 128.39 336.91 128.11 
M 335.73 135.54 338.53 134.6 
M 334.15 138.09 338.66 138.51 
M 333.3 141.01 338.27 141.81 
M 336.26 172.86 338.76 169.09 340.67 164.04 340.67 160.91 338.76 155.85 335.79 151.38 334.51 150.42 
M 332.84 159.46 337.15 158.49 
M 331.23 162.29 337.22 162.36 
M 331.32 165.23 337.36 166.6 
M 341.83 112.59 343.61 111.63 346.19 108.86 
M 341.32 134.67 342.83 133.52 345.23 129.85 346.77 125.7 346.77 123.14 345.23 118.99 342.83 115.32 342.49 115.07 
M 340.59 121.96 344.04 121.36 
M 339.29 124.08 343.86 124.23 
M 339.2 126.39 343.66 127.44 
M 339.78 157.83 340.11 157.53 342.49 153.12 344.03 148.12 344.03 145.02 342.49 140.02 341.32 137.85 
M 340.86 142.88 341.35 142.76 
M 338.01 146.85 341.38 146.84 
M 336.58 148.88 341.24 150.67 
M 345.77 171.29 344.62 167.53 341.93 162.54 339.99 160.73 
M 337.56 171.9 343.09 170.76 
M 348.16 123.5 350.75 122.24 354.06 119.02 356.2 115.37 356.2 113.11 355.66 112.19 
M 345.81 112.73 352.2 111.41 
M 345.31 113.96 351.99 113.89 
M 345.76 116.18 352.31 116.89 
M 346.26 146.5 348.76 144.93 351.95 140.91 354.01 136.36 354.01 133.54 351.95 128.99 348.76 124.97 346.26 123.4 
M 344.13 132.3 349.99 131.7 
M 343.86 135.24 350.5 135.33 
M 343.71 137.24 350.64 138.39 
M 349.1 170.7 351.52 167.21 353.62 161.87 353.62 158.57 351.52 153.24 348.26 148.54 345.72 146.7 
M 343.41 157.31 350.19 155.86 
M 343.26 160.1 350.04 160.28 
M 343.44 163.09 349.78 163.97 
M 355.86 112.73 356.34 112.51 
M 354.24 133.58 356.49 132.18 359.37 128.6 361.22 124.54 361.22 122.03 359.37 117.98 356.49 114.4 355.43 113.74 
M 352.36 121.39 357.9 120.08 
M 351.81 123.13 357.89 123.67 
M 351.96 125.05 358.08 126.69 
M 352.87 157.29 353.95 156.5 356.93 152.08 358.86 147.08 358.86 143.98 356.93 138.98 353.95 134.56 353.28 134.06 
M 349.76 143.21 355.27 142.03 
M 349.55 145.83 355.48 145.83 
M 349.46 148 355.17 149.49 
M 358.85 168.6 358.16 166.44 355.36 161.43 353.17 159.48 
M 363.23 124.06 366.04 122.83 369.4 119.89 
M 360.18 114.71 361.05 114.73 
M 360.4 116.48 365.49 117.23 
M 360.93 146.69 363.69 145.14 367.23 141.17 369.51 136.68 369.51 133.9 367.23 129.41 363.69 125.45 360.93 123.9 
M 358.47 133.28 365.35 131.77 
M 358.63 135.55 365.14 134.92 
M 358.28 137.23 365.25 138.56 
M 367.13 166.1 368.95 162 368.95 158.75 366.62 153.5 363.02 148.87 360.2 147.06 
M 357.36 158 364.53 156.7 
M 357.85 160.5 365.04 160.51 
M 357.45 162.78 364.93 164.6 
M 369.79 134.71 372 133.33 374.84 129.81 375.98 127.3 
M 367.37 122.9 372.08 121.71 
M 367.87 124.55 372.96 124.54 
M 367.66 126.75 373 127.32 
M 368.11 160.21 370.48 158.55 373.57 154.21 375.57 149.3 375.57 146.26 373.57 141.36 370.48 137.02 368.69 135.77 
M 365.51 145.38 371.82 143.99 
M 366.07 148.04 371.73 148.17 
M 365.93 150.04 371.81 151.89 
M 371.71 164.45 370.41 162.45 368.11 160.7 
M 375.74 145.29 378.47 144 382.05 140.54 
M 373.39 133.8 379.69 133.22 
M 372.99 135.46 380.24 135.81 
M 372.78 138.07 380.42 138.41 
M 381.6 155.78 378.57 152.71 375.77 151.3 
M 373.32 159.91 378.47 158.72 
M 372.79 161.68 375.28 161.72 
M 144.32 175.53 144.65 174.8 
M 145.87 172.79 147.78 170.61 148.69 168.53 
M 158.08 177.64 158.92 176.37 161.14 170.34 
M 150.21 172 156.86 173.32 
M 163.56 179.24 164.6 179.07 
M 163.62 101.23 163.62 101.23 
M 154.27 103.58 154.27 103.58 
M 169.37 181.2 172.72 176 173.43 174.04 
M 164.4 171.68 168.45 172.41 
M 180.99 185.69 181.53 184.12 181.53 180.84 179.94 176.18 
M 172.73 182.41 178.57 182.25 
M 176.08 99.25 176.08 99.25 
M 187.83 188.15 184.62 184.2 181.87 182.51 
M 193.5 189.86 193.77 189.38 195.59 183.84 195.59 180.43 
M 186.95 181.95 192.64 182.03 
M 186.6 184.75 192.3 186 
M 194.94 180.69 195.38 180.38 
M 200.16 191.59 200.9 191.47 
M 199.57 94.15 199.57 94.15 
M 206.02 192.84 208.21 189.21 210.09 183.72 210.09 182.67 
M 219.14 193.72 216.91 188.69 213.44 184.34 210.86 182.73 
M 208.15 192.44 214.74 191.38 
M 223.42 91.87 223.42 91.87 
M 220.56 193.7 223.26 189.5 225.14 184.35 225.14 182.89 
M 215.56 185.37 221.77 186.49 
M 231.49 91.71 231.49 91.71 
M 230.26 182.84 236.01 182.72 
M 246.77 191.38 245.69 189.04 242.28 184.8 239.61 183.14 
M 250.87 191.06 251.85 189.51 253.68 184.39 253.68 181.22 253.43 180.53 
M 244.65 182.96 250.31 183.02 
M 244.7 185.35 250.62 186.55 
M 260.83 191.01 259.92 189.01 256.53 184.79 253.88 183.15 
M 262.76 91.64 262.76 91.64 
M 259.04 183.1 264.14 182.55 
M 267.98 182.38 270.49 180.66 
M 275.02 191.02 273.99 188.77 270.62 184.58 267.98 182.94 
M 278.27 92.43 278.27 92.43 
M 278.12 190.92 279.58 188.57 281.39 183.46 281.39 180.5 
M 272.19 184.57 278.35 185.71 
M 288.98 190.54 288.11 188.62 284.77 184.42 282.17 182.79 
M 296.12 95.08 296.12 95.08 
M 293.17 190.26 294.1 188.76 295.89 183.68 295.89 180.53 295.73 180.08 
M 287.16 185.05 292.9 185.59 
M 296.32 181.46 298.58 179.95 
M 306.13 188.87 306.97 187.43 308.6 182.5 308.6 179.45 308.42 178.91 
M 300.87 183.56 305.48 184.38 
M 319.77 100.51 319.77 100.51 
M 317.87 186 318.66 184.61 320.23 179.84 320.23 176.89 320.07 176.39 
M 312.56 178.05 317.26 178.59 
M 312.67 180.43 317.66 182.03 
M 326.16 183.41 323.34 179.58 320.89 177.91 
M 324.27 175.76 329.4 175.38 
M 324.56 178.19 329.73 179.83 
M 333.47 175.3 335.79 173.56 336.26 172.86 
M 346.19 108.86 346.19 108.86 
M 337.95 175.22 343.49 175.07 
M 337.56 178.18 343.13 179.24 
M 356.34 112.51 356.34 112.51 
M 359.97 174.68 359.97 172.11 358.85 168.6 
M 351.05 173.83 356.6 173.64 
M 351.22 176.37 352.78 176.98 
M 360.2 173.7 363.02 171.89 366.62 167.25 367.13 166.1 
M 375.98 127.3 375.98 127.3 
M 373.75 167.8 373.54 167.24 371.71 164.45 
M 379.69 133.22 379.69 133.22 
M 382.05 156.23 381.6 155.78 
M 375.28 161.72 378.62 161.77 
M 206.23 93 207.22 90.99 210.24 79.78 212.38 73.48 213.28 71.38 214.57 69.17 215.54 65.02 216.66 63.06 218.07 61.08 221.82 56.9 224.02 55.84 226.38 54.3 227.85 52.09 229.01 51.06 230.74 48.45 232.33 46.67 234.17 45.66 234.63 44.26 237 40.98 238.08 46.78 239.89 49.06 240.43 50.06 241.47 53.76 242.85 56.16 244.82 59.07 245.82 61.83 246.03 63.62 246.51 65.23 252.13 75.27 259.62 82.17 263 84.93 266.6 88.77 270.03 90.95 270.38 91.67 
M 271.01 91.67 271.01 91.67 
M 210.14 92.66 211.17 90.6 213.81 79.34 214.81 76.73 217.27 70.89 218.61 69.7 218.89 67.23 219.7 64.51 222.3 62.17 
M 214.04 92.32 215.09 90.59 216.31 86.23 216.69 83.99 216.85 81.4 218.08 78.75 219.39 76.54 220.08 74.68 220.37 72.82 221.76 71.59 224.11 67.31 224.96 64.57 226.82 61.86 
M 217.96 92.09 219.38 90.59 221.37 81.55 224.21 74.77 225.77 73.35 228.31 70.36 
M 221.87 91.94 222.96 90.1 223.72 84.21 224.52 81.49 226.16 78.93 230.04 74.33 231.43 72.38 233.19 70.92 233.64 69.04 234.95 66.03 236.37 63.6 239.63 60 
M 225.79 91.8 226.99 90.25 227.13 88.4 228.01 83.43 229.05 81.15 231.42 78.22 232.45 76.13 233.95 73.74 235.2 72.48 238.16 68.28 
M 229.71 91.74 230.92 90.08 231.19 87.82 231.93 85.44 233.32 81.85 235.49 78.61 
M 233.63 91.68 234.49 89.98 235.03 87.8 236.2 86.01 236.77 83.75 237.97 81.79 238.88 79.68 239.82 78.07 242.07 76.13 244.84 72.9 246.98 72.18 
M 237.55 91.76 238.48 90.39 240.93 82.91 242.1 81.22 
M 241.47 91.85 242.97 90.31 243.77 87.66 245.52 83.2 246.63 81.84 247.66 80.01 249.2 78.38 
M 245.4 91.92 246.78 90.58 247.51 88.21 248.82 85.96 249.28 84.04 
M 249.32 91.98 249.8 90.62 251.21 88.71 
M 253.24 91.99 254.49 90.84 255.89 89.16 
M 257.15 91.83 258.96 91.3 262.79 89.3 
M 261.07 91.66 263.13 91.36 265.09 90.13 
M 264.99 91.65 267.07 91.02 
M 268.91 91.66 268.92 91.66 
M 155.98 131.49 260.54 127.9 260.58 128.68 155.85 134.22 
M 155.81 134.83 251.17 135.37 251.17 136.15 155.51 137.56 
M 155.35 138.15 241.63 142.09 241.61 142.88 154.61 140.86 
M 154.5 141.4 231.99 148.08 231.93 148.86 153.99 144.11 
M 153.89 144.61 222.27 153.32 222.18 154.09 153.22 147.29 
M 153.1 147.74 212.53 157.8 212.41 158.58 152.23 150.4 
M 152.1 150.76 202.8 161.55 202.65 162.32 151.14 153.41 
M 151.05 153.67 193.14 164.55 192.96 165.31 150.39 156.41 
M 151.08 156.81 183.58 166.81 183.37 167.57 150.33 159.54 
M 151.13 159.97 174.17 168.35 173.93 169.1 150.28 162.66 
M 151.19 163.12 164.94 169.17 164.68 169.91 150.23 165.78 
M 151.24 166.43 155.95 169.44 155.65 170.17 150.18 169.05 
M 249.6 129.26 245.98 130.17 243.99 131.36 242.42 133.15 241.12 135.31 
M 241.12 136.3 238.68 136.64 236.49 137.38 234.68 138.73 232.54 141.68 
M 232.51 142.67 230.11 142.83 227.93 143.4 226.1 144.62 223.87 147.38 
M 223.8 148.36 220.33 148.48 218.33 149.21 216.63 150.59 215.13 152.41 
M 215.02 153.39 212.73 153.2 210.61 153.45 208.76 154.37 206.37 156.76 
M 206.22 157.74 204 157.38 201.93 157.47 200.08 158.25 197.62 160.44 
M 197.43 161.41 195.31 160.89 193.29 160.82 191.45 161.46 188.93 163.46 
M 188.7 164.42 186.68 163.74 184.73 163.52 182.9 164.01 180.33 165.81 
M 180.07 166.77 177.21 165.66 175.37 165.64 173.6 166.34 171.86 167.51 
M 171.56 168.46 169.77 167.47 167.99 166.96 166.21 167.17 163.57 168.57 
M 163.23 169.5 160.71 168.02 158.99 167.76 157.25 168.21 155.48 169.14 
M 248.34 129.5 245.98 130.17 243.99 131.36 243.16 132.19 241.75 134.2 
M 225.56 130.7 223.75 131.22 222.22 132.13 221.59 132.76 220.51 134.31 
M 202.78 131.9 201.52 132.26 200.46 132.9 199.26 134.41 
M 239.89 136.44 237.54 136.94 236.49 137.38 234.68 138.73 233.21 140.63 
M 219.08 136.75 217.28 137.14 216.47 137.48 215.09 138.51 213.96 139.96 
M 198.27 137.07 197.02 137.34 195.95 137.89 194.71 139.3 
M 231.29 142.72 228.98 143.04 227.93 143.4 226.1 144.62 224.57 146.38 
M 212.49 142.3 210.72 142.55 209.91 142.83 208.51 143.75 207.34 145.11 
M 193.69 141.88 191.89 142.25 190.92 142.89 190.1 143.84 
M 222.61 148.33 220.33 148.48 219.29 148.76 217.44 149.83 215.87 151.47 
M 197.44 146.83 195.29 147.12 194.09 147.81 193.06 148.88 
M 213.86 153.26 211.64 153.25 210.61 153.45 208.76 154.37 207.13 155.89 
M 191.76 151.14 189.64 151.26 188.44 151.86 187.38 152.84 
M 205.1 157.53 202.94 157.34 201.93 157.47 200.08 158.25 198.41 159.63 
M 186.06 155.01 184 154.97 182.8 155.48 181.72 156.38 
M 196.36 161.12 194.28 160.78 193.29 160.82 191.45 161.46 189.75 162.71 
M 187.69 164.05 185.69 163.55 183.8 163.67 182.9 164.01 181.17 165.13 
M 196.98 195.98 199.33 198.52 200.92 200.73 202.08 202.9 204.98 207.03 208.9 211.32 211.18 215.68 212.03 218.69 214.26 221.82 216.16 224.04 217.67 225 218.71 226.7 219.83 229.35 220.46 235.68 219.29 237.4 218.36 239.35 218.01 241.9 217.03 244.09 216.35 246.72 214.24 247.91 211.56 248.56 210.34 250.66 209.41 253.05 206.36 256.62 204.29 257.84 202.99 259.82 201.5 262.6 194.95 269.01 193.77 265.44 194.4 263.11 193.64 260 191.15 251.51 191.31 249.4 190.89 246.91 190.84 244.42 190.49 242.16 191.13 239.96 191.33 237.03 191.76 234.69 191.43 232.84 190.03 227.44 190.7 225.5 190.24 220.76 190.47 218.17 188.99 208.75 189.12 203.37 188.99 201.24 187.72 192.92 
M 195.49 195.49 197.65 198.25 199.17 200.73 201.28 204.9 202.06 207.09 204.26 209.29 206.88 211.45 208.06 213.3 208.05 215.99 208.98 218.81 210.2 221.77 211.94 224.65 213.77 226.53 214.39 228.85 215.33 230.65 217.15 232.19 
M 194 195 195.93 197.78 199.13 205.28 199.7 207.56 200.96 209.89 203.08 212.07 204.14 213.75 204.09 216.01 204.44 218.6 205.25 221 207.12 223.2 209.08 225.89 209.81 228.08 
M 192.51 194.5 194.97 200.09 196.61 205.24 197.62 207.83 198.87 212.73 201.82 218.75 203.04 223.16 204.16 225.36 205.43 228.5 205.98 231.05 206.22 234.19 207.6 236.4 208.97 239.51 210.66 242.16 211.6 244.08 212.13 245.75 
M 191.02 194.01 192.16 197.08 192.75 199.65 194.98 207.4 195.53 210.05 195.57 212.24 196.62 214.9 199.12 219.19 199.71 221.35 200.54 225.88 201.75 227.49 201.78 230.86 202.46 233.95 202.48 237.26 202.89 239.82 203.33 241.46 204.75 243.82 205.92 246.86 205.69 248.05 
M 189.53 193.52 190.28 196.79 191.18 202.05 191.84 204.59 192.87 211.81 193.85 216.72 195.16 220.95 196.13 225.28 196.93 227.68 197.21 230.26 198.11 233.29 199.05 239.57 199.51 240.79 199.96 245.95 
M 345.04 182.53 348.84 187.33 352.52 189.33 355.16 191.72 354.14 199.56 353.05 201.36 351.01 202.64 350.14 205.09 348.51 206.78 346.59 207.51 344 207.88 341.55 208.63 340.05 210.46 337.76 211.49 333.53 212.85 331.95 213.78 329.42 213.74 324.6 214.75 319.41 214.78 317.38 215.72 315.47 216.98 313.61 217.85 310.93 217.85 308.84 218.61 305.53 221.27 303.01 220.77 292.15 215.6 287.56 216.06 284.79 215.25 281.5 214 278.86 213.61 276.93 213.92 265.13 205.66 265.05 202.87 264.76 200.48 261.75 196.25 
M 341.23 183.46 348.11 192.42 
M 337.42 184.39 342.25 190.43 344.6 192.76 345.42 195.29 346.6 197.8 348.44 199.58 351.03 200.66 
M 333.64 185.43 336.16 188.6 340.75 192.84 342.57 195.28 
M 329.88 186.55 337.16 193.71 341.1 198.67 342.38 200.63 344.25 202.61 
M 326.12 187.68 328.95 189.91 330.72 192.19 332.85 193.82 335.08 196.33 338 200.81 339.86 202.48 
M 322.42 188.96 325.25 191.35 327.11 193.3 328.68 195.33 330.53 197.16 332.27 199.4 334.78 201.58 
M 318.71 190.24 321.47 193.01 326.39 198.56 328.01 200.72 331.2 202.15 334.16 203.98 336.37 208.35 337.12 210.81 
M 314.97 191.4 317.37 194.56 321.27 198.75 323.06 201.36 324.73 203.04 
M 311.2 192.5 313.81 195.18 319.13 201.88 320.78 204.42 321.92 206.51 
M 307.42 193.52 309.53 196.7 311.41 198.93 312.93 201.21 314.94 202.79 316.6 204.74 318.07 207.7 320.01 209.9 322.34 210.9 325.05 213.38 
M 303.54 194.11 306.02 197.59 310.05 202.34 311.65 204.47 312.69 206.7 314.11 208.57 315.87 210.5 
M 299.66 194.7 302.14 198.4 306.19 202.8 308.03 205.38 309.32 207.36 310.77 210.42 
M 295.76 195.09 300.24 200.76 303.59 205.78 
M 291.85 195.41 294.21 198.49 296.97 203.41 300.61 208 
M 287.94 195.67 290.04 198.99 293.97 206.37 297.43 211.25 300.27 212.9 301.4 215.7 303.41 218.07 
M 284.02 195.85 288.08 201.35 290.33 206.12 293.33 210.15 294.2 212.54 
M 280.11 196.03 282.2 199.91 284.17 202.41 286.41 204.54 
M 276.19 196.18 278.33 199.75 282.05 204.39 
M 272.27 196.33 274.3 200.31 275.36 202.77 280.03 210.46 
M 268.35 196.34 270.69 199.96 271.5 202.54 271.89 204.95 273.48 207.78 275.81 211.29 
M 264.43 196.28 266.73 200.35 267.54 202.74 268.01 205.4 
M 382.05 137.01 384.11 135.3 387.18 130.98 391.99 125.44 396.88 120.43 398.34 118.33 402.33 114.06 404.29 110.13 405.54 108.85 407.66 106.93 411.9 103.94 413.35 102.06 414.7 100.89 415.72 99.17 417.32 97.66 422.57 94.8 426.65 93.44 432.45 88.06 434.41 87.59 438.83 87.57 441.57 86.97 447.11 82.43 449.56 80.98 451.98 80.05 454.66 79.96 457.72 78.78 460.8 78.59 463.5 78.1 465.28 77.05 468.23 76.98 473.55 75.94 475.39 74.95 476.76 74.55 478.96 75.24 481.2 75.06 484.19 72.25 486 84.49 486.12 86.94 487.63 93.12 487.39 95.21 486.3 96.45 485.95 98.43 484.24 99.9 483.23 102.16 482.54 104.74 479.65 108.37 478.78 110.77 478.09 113.35 476.83 115.35 475.06 116.91 473 118.18 471.58 120.09 465.88 124.37 464.84 126.66 462.7 127.84 461.03 129.49 458.56 130.32 456.6 131.65 453.41 135.05 451.59 136.52 449.3 137.53 447.86 139.38 446.08 140.89 444 142.02 442.53 143.49 440.55 144.45 438.16 145 432.38 145.1 429.19 144.84 427.34 145.94 425.98 147.51 424.06 148.53 421.71 149.12 420.76 151.49 420.3 154.01 424.59 155.4 428.18 155.93 429.75 155.97 432.49 157.19 434.65 157.82 437.62 159.27 440.01 160.12 441.79 160.38 444.39 161.46 455.05 169.21 458.03 171.1 464.54 176.08 474.81 187.61 476.48 189.98 480.44 196.42 481.26 198.07 484.1 202.56 484.72 204.14 486.89 211.19 490 218.57 485.59 230.38 480.84 228.9 476.45 228.73 474.98 228.17 473.51 227.12 470.6 226.23 468.15 226.03 465.92 225.27 460.06 224.15 457.07 223.05 455.2 221.66 452.09 220.68 449.83 218.83 446.89 218.38 442.75 216.09 439.6 214.67 436.73 214.46 434.76 213.21 433.04 211.05 430.37 210.6 429.28 209.72 421 205.08 418.9 202.79 416.81 201.28 415.47 199.22 413.83 197.69 410.06 194.78 408.14 193.09 406.18 190.84 404.65 188.47 403.17 186.83 401.21 184.99 400.09 183.24 399.06 181.12 397.16 179.42 395.59 177 394.16 174.39 390.73 169.6 385.66 163.54 382.05 158.59 
M 382.05 138.73 384.48 137.45 391.84 130 398.82 124.22 400.52 122.15 403 120.43 405.63 118.24 407.04 116.62 407.86 114.99 408.94 113.85 411.07 112.79 413.23 110.79 415.56 109.84 417.2 108.58 418.87 106.96 422.82 105.17 424.92 103.39 427.11 102.09 429.9 101.71 433.82 98.58 440.26 96.46 442.09 96.44 446.67 95.09 449.32 94.11 454.23 92.79 456.44 92.44 463.31 91.92 465.04 90.92 467.09 90.44 467.84 88.95 
M 389.01 136.52 391.15 135.18 396.69 130.59 399.32 129.37 400.99 127.3 402.67 126.24 405.38 125.39 407.64 124.2 410.52 121.02 411.79 119.09 414.08 118.05 417.67 116.71 419.93 115.61 421.79 115.49 423.62 113.68 425.23 112.89 434.87 111.11 437.19 110.3 441.21 107.81 445.15 106.57 447.17 105.46 450.55 103.92 453.8 104.04 456.21 103.61 460.38 104.26 463.25 103.55 465.18 104.24 466.92 103.37 468.81 102.7 
M 389.49 139.36 391.87 138.44 393.87 137.2 395.5 135.46 397.58 134.32 404.83 131.16 407.67 130.2 409.79 128.99 414.92 125.05 420.31 124.4 425.13 122.54 428.38 121.59 431.02 121.13 
M 385.15 143.68 387.73 142.94 394.36 140.54 398.38 138.32 400.65 137.58 406.58 136.8 411.15 134.57 412.32 133.16 414.21 133.09 420.01 132.37 422.7 132.47 427.11 131.75 429.22 130.38 
M 387.92 145.46 390.28 145.01 392.34 144.25 396.71 143.85 399.35 142.84 402.12 142.36 408.03 141.94 410.2 141.38 412.76 141.04 414.49 140.15 415.89 139.66 418.6 139.84 422.09 140.44 425.48 140.58 429.03 140.1 433.62 140.56 436.81 140.04 439.98 140.88 
M 382.05 147.35 385.79 148.13 390.26 148.39 392.19 148.81 395.06 148.88 399.97 148.24 402.74 148.73 405.79 149.04 410.53 148.71 412.37 148.9 414.89 148.32 
M 388.02 151.48 390.08 152.17 395.52 153.31 398.15 153.24 400.04 153.8 402.91 153.84 407.83 155.03 410.57 154.97 413.03 154.43 
M 387.62 153.59 392.65 155.09 395.49 156.14 397.92 156.76 401.86 158.12 404.36 158.64 407.52 159.61 409.93 160.68 412.49 160.4 413.71 160.49 415.42 161 418.14 160.89 421.12 162.3 423.05 163.47 428.84 162.98 431.72 163.59 434.56 163.14 437.14 163.23 440.21 162.17 
M 382.05 152.52 384.74 154.37 387.24 155.75 389.91 156.97 392.66 157.68 396.9 160.31 398.86 161.27 401.15 161.96 406.08 164.56 408.37 165.17 412.62 167.61 413.88 167.69 416.31 168.69 420.94 171.27 422.79 172.06 425.99 171.35 428.91 171.45 431.29 172.08 440.84 173.94 445.48 173.65 448.52 174.29 
M 384.64 156.3 386.89 158.08 391.9 160.51 397.85 165.21 400.32 166.27 402.75 167.88 405.1 169.16 409.33 171.08 412.18 174.01 419.35 176.81 421.29 177.92 424.24 178.89 429.22 179.66 431.33 180.23 434.84 183.11 436.24 183.8 442.17 184.7 445.79 184.11 449.05 183.86 450.33 184.42 452.57 184.97 455.59 184.44 457.77 184.9 461.66 187.31 464.78 187.4 467.82 188.09 
M 386.52 159.97 392.99 164.78 394.99 166.6 401.49 171.82 406.42 176.66 408.71 177.77 417.12 184.13 419.65 183.96 422.2 184.96 424.16 186.26 426.23 187.17 427.49 187.92 430.06 188.58 431.43 190.89 433.39 192.89 436.07 193.93 438.03 194.39 440.07 194.62 442.9 195.5 445.93 196.11 447.97 196.77 449.75 196.72 453.87 197.45 459.35 199.75 461.43 199.67 464.45 200.54 467.53 200.97 
M 384.18 160.24 392.01 167.31 393.99 169.47 397.83 174.07 399.56 175.81 400.88 177.78 402.49 179.75 403.88 181.88 408.1 185.13 412.2 188.87 413.65 189.92 415.27 191.38 417.57 192.99 421.18 195.99 423.53 196.83 425.36 198.37 428.83 200.65 431.03 201.46 433.68 202.07 435.26 203.36 437.75 204.12 442 207.22 443.87 208.09 446.94 208.78 
M 362.1 175.04 360.84 175.81 359.31 176.31 358.1 177.29 356.14 179.71 354.38 179.42 352.43 178.18 354.29 180.04 
M 80.14 167.75 81.28 165.9 83.39 163.1 86.77 160.41 90.11 156.52 93.18 151.19 97.11 145.76 106.4 137.22 110.4 132.61 115.06 127.59 120.29 123.08 125.86 118.82 131.15 115.14 136.29 111.84 141.17 109.05 145.51 106.97 150.69 104.73 152.91 108.89 153.52 112.93 155.35 121.08 155.98 125.12 156.06 129.09 155.68 136.96 154.62 140.79 153.88 144.66 152.91 148.5 150.17 156.07 149.55 159.96 147.72 167.65 146.39 171.44 144.46 175.16 141.47 178.67 110.72 176.71 98.25 175.33 
M 137.34 138.71 136.98 142.12 134.8 147.65 
M 129.4 158.87 129.22 160.32 129.26 162.31 128.77 166.32 127.76 168.68 122.09 168.26 117.82 168.21 105.87 168.94 102.1 168.89 98.6 168.53 
M 94.27 175.3 78.73 172.09 77.08 171 76.84 169.07 78.05 167.62 79.98 167.68 87.22 170.61 92.82 173.14 98.31 175.08 
M 98.27 175.84 94.42 176.69 82.69 178.84 76.89 179.7 75.31 178.65 75.06 176.8 76.32 175.36 78.28 175.18 88.22 175.1 94.15 175.31 98.16 175.07 
M 113.38 157.46 110.96 154.07 109.78 150.08 109.95 145.92 111.46 142.04 114.15 138.86 117.73 136.73 121.81 135.87 125.94 136.39 129.68 138.22 132.63 141.16 134.46 144.9 134.97 149.03 134.12 153.11 131.98 156.69 128.81 159.38 124.93 160.89 120.77 161.07 116.77 159.88 113.38 157.46 
M 130.57 142.63 132.03 145.62 132.44 148.93 131.76 152.19 130.05 155.05 127.51 157.21 124.41 158.42 121.08 158.56 117.88 157.6 115.17 155.67 
M 118.16 151.5 117.2 150.15 116.72 148.55 116.79 146.88 117.39 145.33 118.47 144.06 119.9 143.21 121.53 142.87 123.19 143.07 124.68 143.8 125.86 144.98 126.59 146.48 126.8 148.13 126.46 149.76 125.6 151.19 124.33 152.27 122.78 152.88 121.12 152.95 119.52 152.47 118.16 151.5 
M 117.59 149.59 120.89 152.88 
M 118.83 148.7 122.94 152.81 
M 117.98 145.73 124.43 152.19 
M 121.91 147.55 125.58 151.22 
M 122.74 146.26 126.38 149.9 
M 123.99 145.4 126.79 148.19 
M 124.57 143.86 126.02 145.3 
M 81.05 166.27 84.21 169.42 
M 83.05 163.56 86.11 166.62 
M 85.57 161.37 89.66 165.46 
M 87.95 159.04 91.58 162.68 
M 90.12 156.51 94.67 161.07 
M 91.84 153.52 95.21 156.9 
M 93.61 150.59 97.2 154.18 
M 95.59 147.86 98.83 151.1 
M 97.67 145.25 102.06 149.63 
M 100.15 143.01 103.95 146.81 
M 102.61 140.77 106.4 144.56 
M 105.04 138.49 107.58 141.03 
M 107.36 136.11 109.72 138.47 
M 109.55 133.59 114.21 138.26 
M 111.78 131.12 115.64 134.97 
M 114.04 128.68 118.37 133 
M 116.46 126.38 119.97 129.89 
M 118.98 124.21 123.15 128.37 
M 121.58 122.1 125.95 126.47 
M 124.25 120.06 126.89 122.71 
M 126.96 118.06 129.87 120.98 
M 129.73 116.13 132.37 118.77 
M 132.55 114.24 135.2 116.9 
M 135.42 112.41 138.55 115.54 
M 138.37 110.65 141.32 113.61 
M 141.37 108.95 145.32 112.9 
M 144.55 107.43 147.99 110.86 
M 147.8 105.97 151.04 109.21 
M 146.67 106.86 147.51 106.1 
M 96.27 156.29 97.12 154.19 97.51 153.62 98.53 152.91 99.75 152.32 100.51 151.62 101.19 150.47 101.47 148.93 
M 138.49 175.28 138.75 176.02 139.29 176.43 
M 134.26 160.3 134.06 159.27 133.77 158.91 133.27 158.77 132.23 159.07 131.24 158.88 
M 148.36 161.73 149.04 161.97 
M 151.47 107.51 151.82 106.85 
M 107.16 173.06 107.38 171.38 108.09 168.43 107.9 166.39 108.34 164.88 
M 147.77 130.45 149.04 131.77 150.81 133.16 151.27 133.86 151.73 135.28 
M 112.44 139.05 110.64 140.24 110.08 141.03 109.72 142.52 110.11 143.79 
M 114.57 133.55 113.94 135.8 112.87 137.88 
M 147.61 118.22 149.29 118.05 151.01 118.26 
M 124.5 164.21 124.41 165.07 124.11 165.86 123.68 166.36 122.2 167.22 121.81 167.24 121.72 166.98 
M 140.92 171.3 139.11 171.98 138.93 171.98 138.79 171.72 
M 132.16 176.53 131.04 175.73 130.31 174.61 130.17 174.04 130.42 172.73 130.86 172.04 133.24 170.48 133.95 169.84 134.42 169.22 134.97 167.92 
M 149.51 119.42 149.92 119.24 150.29 119.31 
M 114.34 137.38 113.48 137.76 111.25 139.67 
M 120.63 161.03 120.71 161.96 121.74 163.43 
M 90.42 155.99 90.55 155.93 
M 152.05 141.75 151.02 142.88 150.73 143.96 150.96 145.27 151.67 146.26 
M 116.14 131.27 115.33 131.68 114.48 132.73 114.13 133.54 113.78 135.75 113.52 136.48 
M 140.94 111.5 140.96 112.85 140.71 113.33 140.21 113.52 138.25 113.65 
M 98.69 155.91 98.97 154.56 99.84 153.43 102.06 151.18 102.44 149.69 
M 144.62 158.14 144.73 158.38 144.6 158.61 143.42 159.26 141.91 158.99 
M 142.58 176.9 142.73 177.19 
M 98.31 159.23 98.45 158.33 99.47 157.01 
M 143.37 125.45 141.08 125 140.15 124.55 138.71 123.49 138.11 123.29 136.7 123.03 133.93 123.1 
M 103.14 175.84 102.74 173.65 102.33 172.98 101.24 171.73 99.18 170.14 97.76 169.29 
M 151.15 116.67 150.66 117.21 150.74 117.43 150.97 117.53 
M 133.07 120.79 132.08 120.37 130.66 119.35 129.96 118.2 129.42 116.34 
M 129.04 122.05 129.29 122.81 129.14 123.83 128.27 126.43 127.54 127.64 127.19 128.72 
M 136.73 150.59 135.43 149.79 134.81 149.82 
M 105.69 142.74 103.75 141.84 101.62 141.68 
M 119.43 170.73 119.74 170.7 119.99 170.89 120.31 172.34 120.72 172.94 
M 116.51 169.4 117.52 168.93 118.53 168.21 119.67 167.15 120.48 166.08 120.96 165.78 121.89 165.58 122.24 165.91 122.33 166.43 
M 115.49 161.45 115.86 159.77 115.59 159.03 
M 140.04 128.62 139.33 129.6 138.75 129.95 138.04 130.11 134.77 129.83 131.5 130.1 129.96 129.91 
M 124.04 132.59 127.99 133.97 128.42 133.55 128.54 132.62 
M 150.99 122.76 148.07 126.69 147.64 127.67 147.58 128.25 147.81 129.45 148.05 130.09 148.51 130.68 
M 141.05 119.18 138.62 118.91 137.24 118.09 134.95 116.34 133.04 113.93 
M 142.69 108.32 142.33 109.21 142.51 110.88 142.21 112.09 
M 120.06 171.91 120.54 172.8 121.8 173.63 
M 147.97 164.74 148.31 164.97 
M 97.06 164.98 96.61 164.42 96.43 163.83 96.16 161.04 96.75 159.57 97.9 158.46 
M 125.69 166.96 122.43 167.81 122 167.85 121.85 167.73 
M 95.74 154.61 96.75 153.23 97.32 152.76 99.83 151.78 100.61 150.9 101.14 149.53 101.18 148.71 100.98 146.77 100.69 145.82 
M 127.22 125.25 127.63 125.81 127.68 126.29 127.13 128.56 127.24 129.94 
M 121.03 161.06 121 162.14 122.03 163.86 122.57 165.46 
M 96.11 147.14 96.65 148.47 
M 102.03 158.72 101.09 157.42 101.05 156.91 101.92 156.09 102.75 155.79 103.69 155.68 
M 154.77 118.75 151.58 117.46 
M 113.9 128.84 115.02 130.64 115.03 130.97 114.79 131.35 
M 86.88 160.78 86.81 160.37 
M 89.46 157.28 91.99 155.62 93.76 154.21 
M 97.18 172 96.43 171.34 95.59 171.27 
M 140.31 110.59 140.43 111.42 140.35 113.17 139.94 113.45 138.33 113.65 
M 135.7 166.88 135.72 166.13 134.7 162.02 133.68 160.48 133.44 159.34 
M 108.39 168.96 108.19 166.18 108.5 164.78 108.46 163.9 
M 94.33 149.59 95.93 150.99 96.5 151.08 97.25 150.95 99.44 149.96 100.03 149.16 100.13 148.58 
M 135.29 177.65 133.06 176.02 131.96 174.52 131.73 173.7 131.82 172.93 132.2 172.23 134.46 170.43 134.98 169.79 135.62 168.35 
M 119.96 168.25 121.11 166.8 121.82 166.54 122.06 166.8 121.86 167 
M 129.82 126.93 127.91 128 127.3 129.08 127.28 129.95 
M 94.85 148.87 95.92 149.92 96.58 150.07 96.97 149.96 97.47 149.51 97.62 148.99 97.44 148.54 
M 150.58 109.09 151.81 106.84 
M 148.72 142.97 151.71 146.36 
M 140.06 161.96 139.18 161.69 133.91 158.49 133.04 158.44 132.29 158.79 
M 94.17 153.82 96.21 152.34 98.66 151.54 99.77 151.01 100.19 150.66 100.75 149.47 100.82 148.72 100.72 146.83 100.48 145.88 
M 146.09 161.57 148.7 163.3 
M 122.89 165.53 122.62 166.48 122.1 167.02 121.85 167.08 121.81 166.93 
M 110.51 142.5 110.76 143.84 
M 142.29 108.51 142.13 109.12 142.33 110.49 142.27 111.58 
M 123.73 129.01 124.56 129.64 125.62 130.96 126.67 131.59 127.85 131.65 128.17 131.49 128.33 131 
M 89.95 159.78 89.85 159.09 89.97 158.26 90.89 156.89 96.1 152.53 96.82 152.18 
M 111.56 141.92 111.36 141.93 
M 109.52 165.61 109.41 164.69 108.68 164.27 108.5 163.94 
M 84.95 169.08 86.97 169.81 88.92 170.1 89.22 170.3 90.32 171.95 
M 131.1 139.08 130.9 139.43 
M 107.76 155.45 106.97 157.4 106.25 158.31 105.59 158.48 
M 133.09 159.97 132.91 159.42 132.63 159.25 131.09 158.86 129.98 158.76 
M 147.16 121.43 146.31 122.25 145.35 122.88 144.09 123.15 143.14 123 140.83 121.84 139.12 121.54 
M 132.74 119.3 131.24 117.84 130.05 115.91 
M 145.34 146.35 146.46 145.84 147.64 145.67 150.75 145.98 151.63 146.4 
M 111.26 175.81 110.34 174.77 110.07 173.95 110.12 173.12 110.8 172.09 112.43 171.13 113.05 170.95 
M 107.38 171.93 108.21 168.49 107.99 166.43 108.41 164.46 
M 122.54 162.71 122.79 165.87 122.28 166.84 121.95 167.07 121.78 167.02 
M 150.88 145.82 151.77 146.46 
M 149.29 120.78 148.56 121.74 148.1 122.76 146.62 125.07 146.2 125.56 144.82 126.37 
M 108.12 135.24 108.28 136.4 108.13 137.11 107.82 137.66 107.32 137.99 105.92 137.74 
M 105.32 143.95 106.62 143.43 107.11 143.45 108.82 144.88 
M 104.82 175.03 104.15 173.31 103.19 172.26 101.85 171.12 98.58 168.85 97.61 167.92 
M 149.69 120.1 149.37 119.72 
M 110.72 155.36 109.5 157.12 109.25 159.03 109.02 159.51 107.7 161.38 
M 147.36 152.42 149.52 151.37 150.74 151.42 151.68 151.93 
M 134.38 165.95 134.69 164.79 134.49 162.21 133.43 160.2 133.22 159.31 
M 151.88 137.75 151.29 139.38 150.75 139.71 149.67 139.84 149.02 140.35 
M 126.68 160.21 126.16 160.86 
M 126.86 160.14 126.16 161.04 
M 97.47 179.14 93.46 187.73 92.14 189.81 90.55 191.74 88.68 193.4 86.62 194.76 84.47 195.9 71.51 201.42 69.58 202.6 67.85 204.04 66.31 205.7 65.01 207.57 62.61 211.65 56.57 218.86 55.33 220.81 54.36 222.88 53.68 225.08 53.28 227.34 53.2 229.63 53.53 231.9 54.33 234.04 55.49 236.04 56.9 237.89 58.49 239.59 60.25 241.13 67.89 246.61 71.52 249.6 74.97 252.8 69.67 248.15 65.87 245.38 60.01 241.43 58.19 239.91 56.53 238.21 55.04 236.35 53.79 234.31 52.89 232.07 52.49 229.68 52.52 227.27 52.88 224.89 53.54 222.58 54.51 220.37 55.75 218.31 57.16 216.38 61.62 210.97 63.89 206.88 65.24 204.86 66.86 203.02 68.71 201.41 70.77 200.08 83.64 194.24 85.62 193.12 87.46 191.85 89.07 190.35 90.44 188.61 91.59 186.69 95.34 178.14 
M 96.47 181.22 96.3 183.27 96.55 185.39 97.21 187.43 98.24 189.34 99.57 191.02 101.26 192.36 103.21 193.44 107.45 195.24 114.13 197.45 120.74 199.95 125.15 201.44 127.38 201.96 129.66 202.24 136.67 202.65 138.99 202.64 146 202.13 148.32 201.89 150.58 201.44 152.78 200.73 154.87 199.75 156.83 198.52 158.64 197.06 160.33 195.45 164.91 190.1 167.81 186.41 174.62 176.82 166.6 188.44 162.23 193.99 159.01 197.47 157.18 199 155.19 200.33 153.05 201.38 150.78 202.18 148.45 202.7 146.09 203 139.04 203.68 136.65 203.74 129.56 203.49 127.16 203.25 124.8 202.77 122.51 202.07 113.61 199.01 106.83 196.94 102.37 195.17 100.18 194.01 98.16 192.47 96.51 190.5 95.26 188.29 94.41 185.84 
M 94.3 180.46 94.91 178.36 
M 97.52 179.51 96.4 182.04 
M 85.62 193.12 84.61 193.47 82.1 193.81 79.58 193.69 77.11 193.07 74.87 191.93 69.25 187.52 67.4 186.16 65.45 185.04 63.38 184.31 61.22 184.13 59.12 184.6 57.29 185.73 55.9 187.4 55.08 189.42 54.88 191.64 55.33 196.29 55.37 198.68 55.17 201.07 54.71 203.42 54.01 205.71 52 210.02 50.74 212.03 47.87 215.8 46.28 217.55 42.78 220.72 40.87 222.12 38.85 223.34 36.73 224.38 34.53 225.22 30 226.47 34.51 225.17 36.69 224.28 38.77 223.2 40.75 221.93 42.6 220.51 46 217.28 47.53 215.52 50.28 211.73 51.48 209.73 52.49 207.64 53.33 205.47 53.97 203.25 54.36 200.97 54.5 198.67 54.4 196.36 53.84 191.65 54.01 189.18 54.91 186.82 56.49 184.83 58.63 183.44 61.11 182.82 63.64 182.97 66.03 183.74 68.19 184.91 75.74 190.48 77.71 191.43 79.82 191.9 82 191.96 84.15 191.61 86.19 190.86 88.06 189.75 89.73 188.34 91.18 186.68 92.79 184.12 
M 84.7 178.4 88.76 178.86 92.43 179.07 96.1 179 103.36 178.16 110.72 176.71 
M 99.46 177.97 99.35 176.93 
M 95.44 178.26 93.79 179.04 
M 103.45 178.14 103.6 176.85 
M 153.58 113.22 155.5 115.14 
M 151.15 104.52 160.1 113.47 
M 155.97 103.06 162.17 109.27 
M 160.87 101.7 166.17 106.99 
M 166.24 100.79 174.69 109.24 
M 171.64 99.92 176.63 104.91 
M 177.1 99.1 185.67 107.68 
M 182.28 98.01 189.68 105.41 
M 187.37 96.82 192.77 102.23 
M 192.46 95.64 197.5 100.68 
M 197.58 94.49 203.79 100.69 
M 202.93 93.57 209.39 100.02 
M 208.45 92.81 216.21 100.57 
M 214.22 92.3 220.98 99.06 
M 220.19 92 228.02 99.83 
M 226.26 91.8 232.51 98.05 
M 232.43 91.7 238.8 98.06 
M 238.8 91.79 245.74 98.73 
M 245.2 91.92 251.08 97.8 
M 251.57 92.01 257.58 98.03 
M 257.64 91.81 266.7 100.87 
M 263.75 91.64 269.76 97.66 
M 270.05 91.67 276.74 98.36 
M 276.95 92.3 285.6 100.95 
M 284.14 93.21 293.23 102.31 
M 291.53 94.33 297.93 100.73 
M 299.04 95.57 307.94 104.47 
M 306.7 96.96 314.74 105 
M 315.14 99.11 320.38 104.36 
M 324.27 101.97 332.09 109.79 
M 333.59 105.02 342.21 113.64 
M 342.6 107.76 349.88 115.04 
M 351.85 110.74 358.91 117.79 
M 363.08 115.69 369.38 121.98 
"/></svg>