<svg xmlns="http://www.w3.org/2000/svg" width="520" height="320"><rect x="0" y="0" width="520" height="320" fill="floralwhite"/><rect x="10" y="10" width="500" height="300" stroke="black" stroke-width="1" fill="none"/><path stroke="black" stroke-width="1" fill="none" stroke-linecap="round" stroke-linejoin="round" d="
M 173.21 119.99 181.89 115.64 190.52 112.97 207.78 110.15 225.03 106.05 233.66 104.54 242.29 103.77 250.92 103.41 259.55 103.27 276.81 103.61 285.44 103.24 294.07 103.27 302.7 104.2 311.33 105.48 328.58 108.53 337.21 110.91 354.47 116.67 363.1 119.28 371.73 122.2 380.36 126.36 388.99 132.35 397.62 146.45 
M 397.62 183.27 388.99 195.51 380.36 200.31 371.73 203.7 363.1 206.07 354.47 208.23 345.84 210.84 337.21 213.88 328.58 216.45 319.95 217.8 311.33 218.51 294.07 219.26 276.81 219.04 268.18 219.76 259.55 220.9 250.92 221.75 242.29 221.88 233.66 220.94 225.03 218.88 216.4 215.97 207.78 212.52 199.15 208.79 190.52 205.6 181.94 203.55 
M 177.92 124.76 178.15 123.98 178.15 122.95 177.66 121.3 176.9 119.84 176.3 119.27 
M 175.94 120.32 176.44 119.77 177.17 118 
M 187.59 144.54 187.88 143.46 187.88 142.43 187.44 140.78 186.75 139.32 186.21 138.76 
M 180.72 126.37 181.34 125.81 182.13 124.36 182.63 122.71 182.63 121.69 182.13 120.05 181.34 118.6 180.72 118.03 
M 180.51 119.06 181.04 118.52 181.72 117.15 182.16 115.55 
M 185.46 132.5 185.98 131.9 186.65 130.38 187.08 128.66 187.08 127.59 186.65 125.87 185.98 124.35 185.46 123.76 
M 201.13 204.73 201.28 204.43 201.28 203.79 200.74 202.75 199.89 201.83 199.23 201.47 
M 185.47 125.38 186.13 124.82 186.98 123.39 187.52 121.77 187.52 120.76 186.98 119.14 186.13 117.71 185.47 117.15 
M 202.23 202.44 203 202.08 203.98 201.14 204.61 200.08 204.61 199.42 203.98 198.36 203 197.43 202.23 197.06 
M 185.57 118.27 186.16 117.76 186.92 116.45 187.4 114.96 187.37 113.94 
M 196.33 146.16 196.9 145.56 197.63 144 198.1 142.24 198.1 141.14 197.63 139.38 196.9 137.83 196.33 137.22 
M 205.16 198.07 205.78 197.69 206.57 196.73 206.95 195.93 
M 205.81 206.61 206.59 205.72 207.11 204.66 207.11 204.01 206.59 202.95 205.78 202.02 205.14 201.66 
M 190.75 124.88 191.5 124.33 192.48 122.93 193.1 121.35 193.1 120.37 192.48 118.78 191.5 117.38 190.75 116.83 
M 202.23 144.86 201.37 144.06 
M 207.98 202.54 208.72 202.17 209.67 201.21 210.28 200.14 210.28 199.47 209.67 198.39 208.72 197.44 207.98 197.07 
M 210.23 208.3 209.7 207.41 208.74 206.49 207.98 206.13 
M 195.77 131.36 196.43 130.78 197.28 129.28 197.82 127.58 197.82 126.53 197.28 124.84 196.43 123.34 195.77 122.75 
M 202.46 144.77 203.05 143.61 203.56 141.86 203.56 140.77 203.05 139.02 202.26 137.47 201.64 136.87 
M 210.75 198.01 211.13 197.77 
M 210.85 207.06 211.46 206.69 212.25 205.75 212.76 204.68 212.76 204.02 212.25 202.95 211.46 202.01 210.85 201.64 
M 193.52 113.37 194.49 112.92 195.36 112.13 
M 197 125.29 197.92 124.77 199.09 123.42 199.84 121.89 199.84 120.94 199.09 119.41 197.92 118.07 197 117.54 
M 201.88 138.78 202.71 138.2 203.78 136.71 204.46 135.03 204.46 133.99 203.78 132.31 202.71 130.82 201.88 130.24 
M 213.59 202.49 214.32 202.11 215.25 201.15 215.85 199.86 
M 215.34 210.18 215.97 209.11 215.97 208.46 215.36 207.4 214.42 206.47 213.68 206.11 
M 202.44 132.12 203.24 131.56 204.27 130.14 204.93 128.53 204.93 127.54 204.27 125.93 203.24 124.51 202.44 123.95 
M 209.81 141.79 209.81 141.11 209.24 139.45 208.35 137.97 207.65 137.4 
M 216.47 207.01 217.08 206.63 217.86 205.68 218.36 204.61 218.36 203.94 217.86 202.87 217.08 201.92 216.47 201.55 
M 216.6 210.63 216.53 210.6 
M 201.41 115.44 202.53 115.01 203.97 113.9 204.9 112.64 204.9 111.86 204.06 110.72 
M 204.49 126.87 205.55 126.37 206.9 125.09 207.78 123.64 207.78 122.75 206.9 121.3 205.55 120.03 204.49 119.53 
M 208.66 139.58 209.6 139.04 210.8 137.65 211.57 136.08 211.57 135.11 210.8 133.53 209.6 132.14 208.66 131.6 
M 219.14 202.38 220.11 201.74 
M 219.31 211.42 220.04 211.06 220.98 210.12 221.59 209.05 221.59 208.4 220.98 207.33 220.04 206.39 219.31 206.03 
M 204.45 111.54 205.45 111.14 206.43 110.36 
M 206.84 122 207.81 121.55 209.05 120.39 209.85 119.07 209.85 118.26 209.05 116.95 207.81 115.79 206.84 115.33 
M 210.18 133.84 211.07 133.33 212.2 132.02 212.93 130.53 212.93 129.61 212.2 128.13 211.07 126.82 210.18 126.3 
M 215.31 139.57 214.35 138.75 
M 222.05 206.93 222.66 206.55 223.44 205.59 223.94 204.51 223.94 203.84 223.32 202.6 
M 224.1 212.95 223.59 211.83 222.81 210.91 222.19 210.54 
M 209.99 118.2 211.15 117.78 212.64 116.71 213.59 115.49 213.59 114.74 212.64 113.52 211.15 112.45 209.99 112.03 
M 212.64 129.07 213.74 128.61 215.14 127.41 216.04 126.06 216.04 125.22 215.14 123.87 213.74 122.67 212.64 122.21 
M 218.68 138.2 218.99 137.65 218.99 136.76 218.18 135.32 216.94 134.04 215.97 133.55 
M 224.93 211.37 225.66 211 226.59 210.06 227.2 208.98 227.2 208.32 226.59 207.24 225.66 206.29 224.93 205.92 
M 213.24 114.57 214.21 114.18 215.45 113.17 216.25 112.03 216.25 111.33 215.45 110.19 214.21 109.18 213.34 108.83 
M 215.41 124.7 216.35 124.27 217.54 123.16 218.32 121.91 218.32 121.13 217.54 119.88 216.35 118.77 215.41 118.34 
M 218.13 135.76 218.99 135.29 220.09 134.09 220.8 132.73 220.8 131.88 220.09 130.52 218.99 129.32 218.13 128.85 
M 216.46 111.17 217.57 110.8 218.99 109.85 219.9 108.77 219.9 108.1 219.32 107.41 
M 218.34 120.74 219.41 120.33 220.79 119.29 221.68 118.12 221.68 117.39 220.79 116.22 219.41 115.18 218.34 114.77 
M 220.58 131.1 221.6 130.66 222.9 129.54 223.74 128.27 223.74 127.48 222.9 126.21 221.6 125.09 220.58 124.65 
M 224.87 136.57 224.09 135.79 223.17 135.33 
M 219.76 107.86 220.64 107.51 221.38 106.92 
M 221.4 116.94 222.25 116.56 223.35 115.58 224.06 114.47 224.06 113.78 223.35 112.67 222.25 111.69 221.4 111.31 
M 223.3 126.74 224.12 126.33 225.17 125.27 225.85 124.07 225.85 123.33 225.17 122.13 224.12 121.07 223.3 120.66 
M 226.41 136.6 227.25 135.64 227.89 134.37 227.89 133.58 227.25 132.31 226.27 131.19 225.5 130.75 
M 224.19 113.12 225.16 112.76 226.41 111.83 227.21 110.78 227.21 110.13 226.41 109.08 225.16 108.15 224.19 107.79 
M 225.83 122.43 226.79 122.04 228 121.04 228.79 119.9 228.79 119.2 228 118.06 226.79 117.06 225.83 116.67 
M 227.74 132.4 228.65 131.98 229.81 130.91 230.56 129.7 230.56 128.95 229.81 127.74 228.65 126.67 227.74 126.26 
M 230.14 136.63 229.81 136.46 
M 227.1 109.42 227.85 109.08 228.81 108.2 229.44 107.21 229.44 106.59 228.62 105.42 
M 228.51 118.26 229.26 117.89 230.22 116.94 230.84 115.86 230.84 115.2 230.22 114.12 229.26 113.17 228.51 112.8 
M 230.14 127.78 230.88 127.38 231.83 126.36 232.44 125.2 232.44 124.49 231.83 123.33 230.88 122.31 230.14 121.91 
M 233.42 136.61 234.19 135.16 234.19 134.41 233.61 133.19 232.71 132.12 232.01 131.7 
M 229.6 105.63 230.75 105.05 
M 231.01 114.23 231.86 113.87 232.96 112.94 233.66 111.9 233.66 111.25 232.96 110.2 231.86 109.28 231.01 108.92 
M 232.6 123.46 233.48 123.07 234.59 122.08 235.31 120.97 235.31 120.27 234.59 119.15 233.48 118.17 232.6 117.78 
M 234.31 133.17 235.16 132.77 236.26 131.73 236.97 130.56 236.97 129.83 236.26 128.66 235.16 127.63 234.31 127.22 
M 233.4 110.08 234.05 109.73 234.88 108.84 235.41 107.82 235.41 107.19 234.88 106.18 234.05 105.28 233.4 104.93 
M 235.03 119.14 235.73 118.76 236.62 117.79 237.19 116.7 237.19 116.02 236.62 114.92 235.73 113.96 235.03 113.58 
M 236.74 128.64 237.46 128.25 238.38 127.24 238.98 126.1 238.98 125.39 238.38 124.24 237.46 123.23 236.74 122.84 
M 240.25 136.25 240.49 135.78 240.49 135.06 239.91 133.89 239.03 132.85 238.34 132.45 
M 235.41 105.81 236.13 105.47 237.29 104.21 
M 237.15 114.79 237.93 114.42 238.93 113.45 239.58 112.36 239.58 111.69 238.93 110.6 237.93 109.63 237.15 109.26 
M 239.07 124.28 239.91 123.89 240.98 122.88 241.67 121.74 241.67 121.04 240.98 119.9 239.91 118.89 239.07 118.5 
M 240.76 133.86 241.6 133.46 242.68 132.45 243.38 131.31 243.38 130.6 242.68 129.45 241.6 128.44 240.76 128.04 
M 238.95 110.13 239.55 109.75 240.3 108.79 240.79 107.71 240.79 107.03 240.3 105.95 239.55 104.99 238.95 104.61 
M 241.23 119.82 241.89 119.41 242.75 118.39 243.3 117.22 243.3 116.5 242.75 115.33 241.89 114.31 241.23 113.9 
M 243.29 129.52 244 129.12 244.91 128.1 245.5 126.95 245.5 126.24 244.91 125.08 244 124.07 243.29 123.67 
M 240.62 105.47 241.3 105.11 242.42 103.76 
M 245.37 125 246.19 124.59 247.24 123.54 247.92 122.36 247.92 121.63 247.24 120.45 246.19 119.4 245.37 118.99 
M 247.15 134.51 247.98 134.12 249.04 133.13 249.72 131.99 249.72 131.29 249.04 130.16 247.98 129.16 247.15 128.77 
M 254.54 215.49 254.14 215.09 253.39 214.72 
M 244.26 109.96 244.85 109.56 245.61 108.52 246.1 107.35 246.1 106.62 245.61 105.45 244.85 104.41 244.26 104.01 
M 247.26 120.36 247.92 119.93 248.76 118.83 249.31 117.59 249.31 116.81 248.76 115.57 247.92 114.47 247.26 114.04 
M 249.72 130.29 250.41 129.89 251.3 128.86 251.87 127.69 251.87 126.96 251.3 125.79 250.41 124.76 249.72 124.36 
M 256.96 215.27 257.56 214.51 258.08 213.36 258.08 212.65 257.56 211.51 256.76 210.5 256.14 210.1 
M 245.87 105.16 246.6 104.78 247.68 103.55 
M 248.67 115.29 249.44 114.86 250.42 113.77 251.06 112.54 251.06 111.77 250.42 110.54 249.44 109.45 248.67 109.02 
M 251.56 125.59 252.37 125.17 253.41 124.09 254.07 122.87 254.07 122.11 253.41 120.89 252.37 119.81 251.56 119.39 
M 258.2 210.9 258.93 210.47 259.87 209.39 260.47 208.16 260.47 207.4 259.87 206.18 258.93 205.09 258.2 204.67 
M 259.67 215.01 259.09 214.72 
M 249.85 110.01 250.5 109.58 251.32 108.5 251.86 107.27 251.86 106.51 251.32 105.28 250.5 104.2 249.85 103.77 
M 253.31 120.83 253.97 120.39 254.83 119.24 255.38 117.95 255.38 117.15 254.83 115.86 253.97 114.71 253.31 114.27 
M 255.97 130.87 256.65 130.46 257.51 129.43 258.06 128.25 258.06 127.52 257.51 126.35 256.65 125.31 255.97 124.9 
M 260.15 205.79 260.75 205.34 261.52 204.17 262.01 202.85 262.01 202.03 261.52 200.71 260.75 199.55 260.15 199.09 
M 263.25 214.56 263.77 213.39 263.77 212.67 263.26 211.52 262.47 210.49 261.85 210.09 
M 251.72 105.35 252.53 104.97 253.57 104 253.96 103.36 
M 257.71 126.06 258.52 125.63 259.56 124.55 260.23 123.32 260.23 122.56 259.56 121.33 258.52 120.24 257.71 119.82 
M 261.81 131.94 261.36 131.19 260.33 130.21 259.53 129.83 
M 261.72 199.97 262.43 199.52 263.53 197.97 
M 263.79 210.84 264.52 210.41 265.46 209.31 266.06 208.07 266.06 207.3 265.46 206.05 264.52 204.95 263.79 204.52 
M 256.09 110.52 256.79 110.1 257.7 109.02 258.28 107.8 258.28 107.05 257.7 105.83 256.79 104.75 256.09 104.33 
M 259.49 121.29 260.18 120.85 261.06 119.72 261.63 118.43 261.63 117.64 261.06 116.35 260.18 115.22 259.49 114.78 
M 262.07 131.24 262.74 130.84 263.6 129.81 264.16 128.65 264.16 127.93 263.6 126.76 262.74 125.74 262.07 125.33 
M 265.67 205.66 266.28 205.2 267.06 204.02 267.56 202.69 267.56 201.86 267.06 200.53 266.28 199.35 265.67 198.89 
M 269.18 213.87 269.4 213.34 269.4 212.62 268.89 211.44 268.11 210.41 267.49 210.01 
M 258.23 106.13 259.12 105.76 260.26 104.8 261 103.71 261 103.31 
M 261.07 116.3 261.93 115.88 263.04 114.78 263.75 113.55 263.75 112.78 263.04 111.55 261.93 110.45 261.07 110.03 
M 263.95 126.55 264.78 126.14 265.84 125.07 266.53 123.86 266.53 123.11 265.84 121.9 264.78 120.83 263.95 120.41 
M 267.4 134.61 268.18 133.41 268.18 132.73 267.51 131.63 266.47 130.66 265.66 130.28 
M 267.26 199.83 267.99 199.37 268.93 198.22 269.53 196.91 269.53 196.1 268.71 194.52 
M 269.41 210.8 270.15 210.36 271.1 209.26 271.71 208 271.71 207.22 271.1 205.97 270.15 204.86 269.41 204.42 
M 262.78 111.44 263.54 111.03 264.51 109.98 265.13 108.79 265.13 108.05 264.51 106.86 263.54 105.81 262.78 105.4 
M 265.93 121.95 266.65 121.52 267.57 120.42 268.17 119.17 268.17 118.39 267.57 117.14 266.65 116.04 265.93 115.61 
M 268.3 131.73 268.99 131.33 269.88 130.32 270.45 129.18 270.45 128.47 269.88 127.33 268.99 126.32 268.3 125.92 
M 270.51 139.45 271.33 138.13 271.33 137.49 270.76 136.44 269.89 135.52 269.21 135.16 
M 271.31 205.62 271.93 205.16 272.72 203.97 273.24 202.63 273.24 201.8 272.72 200.46 271.93 199.27 271.31 198.81 
M 275.09 213.4 275.12 212.61 274.6 211.44 273.8 210.4 273.18 209.99 
M 265.19 107.32 266.14 106.96 267.35 106.02 268.13 104.96 268.13 104.3 267.51 103.46 
M 267.79 117.23 268.69 116.81 269.85 115.75 270.6 114.55 270.6 113.81 269.85 112.61 268.69 111.55 267.79 111.14 
M 270.4 127.23 271.26 126.82 272.36 125.78 273.07 124.6 273.07 123.87 272.36 122.69 271.26 121.65 270.4 121.24 
M 271.95 136.43 272.78 136.05 273.85 135.09 274.55 134 274.55 133.32 273.85 132.23 272.78 131.27 271.95 130.9 
M 274.94 141.87 274.45 141.14 273.38 140.22 272.53 139.86 
M 272.94 199.81 273.69 199.36 274.66 198.2 275.28 196.89 275.28 196.08 274.66 194.77 273.69 193.62 272.94 193.17 
M 275.13 210.83 275.89 210.4 276.86 209.29 277.48 208.03 277.48 207.25 276.86 205.99 275.89 204.88 275.13 204.45 
M 269.81 112.67 270.6 112.27 271.62 111.26 272.28 110.11 272.28 109.4 271.62 108.24 270.6 107.23 269.81 106.83 
M 272.63 122.84 273.38 122.43 274.34 121.36 274.95 120.15 274.95 119.41 274.34 118.2 273.38 117.14 272.63 116.72 
M 274.72 132.39 275.44 132.01 276.35 131.02 276.94 129.9 276.94 129.2 276.35 128.09 275.44 127.1 274.72 126.71 
M 275.55 141.13 276.25 140.76 277.15 139.84 277.73 138.79 277.73 138.13 277.15 137.08 276.25 136.16 275.55 135.79 
M 277.06 149.21 277.6 148.66 278.2 147.61 278.2 146.96 277.6 145.91 276.68 144.99 276.19 144.74 
M 276.57 167.56 276.97 167.37 277.94 166.47 278.56 165.46 278.56 164.83 277.94 163.82 277.53 163.45 
M 276.98 174.45 277.54 173.56 277.54 172.97 276.95 172.01 276.35 171.47 
M 274.53 193.94 275.17 193.51 275.99 192.39 276.52 191.12 276.52 190.33 276.07 189.26 
M 277.1 205.74 277.75 205.27 278.57 204.08 279.1 202.74 279.1 201.9 278.57 200.56 277.75 199.37 277.1 198.91 
M 280.9 213.3 280.9 212.69 280.38 211.52 279.58 210.49 278.95 210.09 
M 272.46 108.8 273.44 108.45 274.7 107.54 275.51 106.51 275.51 105.87 274.7 104.84 273.44 103.94 272.46 103.58 
M 274.76 118.39 275.7 117.99 276.9 116.97 277.67 115.81 277.67 115.1 276.9 113.94 275.7 112.92 274.76 112.52 
M 277.05 128.09 277.93 127.7 279.07 126.69 279.8 125.54 279.8 124.83 279.07 123.69 277.93 122.68 277.05 122.28 
M 278.41 137.16 279.26 136.79 280.36 135.84 281.07 134.76 281.07 134.09 280.36 133.01 279.26 132.06 278.41 131.69 
M 279.03 145.98 279.89 145.61 280.99 144.68 281.7 143.63 281.7 142.97 280.99 141.92 279.89 140.99 279.03 140.62 
M 280.9 154.06 281.41 153.63 282.14 152.57 282.14 151.91 281.41 150.85 280.29 149.91 279.41 149.55 
M 279.6 163.85 280.49 163.49 281.63 162.58 282.36 161.54 282.36 160.9 281.63 159.86 280.77 159.17 
M 279.14 172.22 280.03 171.88 281.16 171.02 281.89 170.04 281.89 169.44 281.16 168.46 280.03 167.6 279.14 167.26 
M 279.09 179.52 279.87 178.9 280.58 177.92 280.58 177.31 279.87 176.33 278.78 175.46 277.93 175.12 
M 277.39 189.08 278.2 188.69 278.61 188.29 
M 278.84 199.99 279.63 199.54 280.64 198.39 281.29 197.1 281.29 196.29 280.64 194.99 279.63 193.85 278.84 193.4 
M 280.98 210.95 281.75 210.52 282.73 209.42 283.37 208.18 283.37 207.41 282.73 206.16 281.75 205.06 280.98 204.63 
M 275.22 105.07 276.06 104.76 277.42 103.58 
M 277.07 114.12 277.89 113.74 278.93 112.76 279.6 111.65 279.6 110.97 278.93 109.86 277.89 108.88 277.07 108.5 
M 279.52 123.92 280.29 123.52 281.27 122.49 281.91 121.33 281.91 120.62 281.27 119.46 280.29 118.43 279.52 118.04 
M 281.31 133.21 282.04 132.83 282.97 131.87 283.57 130.78 283.57 130.1 282.97 129.01 282.04 128.05 281.31 127.67 
M 282.04 141.92 282.75 141.56 283.67 140.63 284.26 139.58 284.26 138.92 283.67 137.87 282.75 136.94 282.04 136.58 
M 282.58 150.92 283.3 150.55 284.22 149.61 284.82 148.54 284.82 147.88 284.22 146.81 283.3 145.87 282.58 145.5 
M 282.95 159.99 283.69 159.62 284.63 158.68 285.23 157.61 285.23 156.95 284.63 155.88 283.69 154.94 282.95 154.57 
M 283.05 168.84 283.79 168.49 284.73 167.6 285.34 166.59 285.34 165.97 284.73 164.96 283.79 164.07 283.05 163.72 
M 281.99 176.63 282.73 176.31 283.67 175.48 284.28 174.55 284.28 173.98 283.67 173.05 282.73 172.23 281.99 171.91 
M 282.13 182.84 282.58 182.08 282.58 181.45 281.99 180.45 281.08 179.56 280.37 179.21 
M 280.6 194.27 281.28 193.84 282.16 192.73 282.73 191.48 282.73 190.71 282.16 189.46 281.28 188.36 280.6 187.93 
M 283.11 206 283.77 205.54 284.63 204.37 285.17 203.04 285.17 202.22 284.63 200.89 283.77 199.72 283.11 199.26 
M 279.88 110.43 280.87 110.09 282.15 109.21 282.97 108.21 282.97 107.6 282.15 106.6 280.87 105.72 279.88 105.38 
M 281.88 119.7 282.83 119.31 284.05 118.33 284.83 117.22 284.83 116.53 284.05 115.42 282.83 114.44 281.88 114.06 
M 283.83 129.08 284.73 128.7 285.88 127.72 286.63 126.62 286.63 125.93 285.88 124.83 284.73 123.85 283.83 123.47 
M 284.98 138 285.85 137.63 286.96 136.69 287.67 135.63 287.67 134.97 286.96 133.91 285.85 132.97 284.98 132.6 
M 285.58 146.84 286.43 146.47 287.53 145.54 288.24 144.48 288.24 143.82 287.53 142.77 286.43 141.83 285.58 141.47 
M 286.04 155.88 286.9 155.51 287.99 154.57 288.7 153.5 288.7 152.84 287.99 151.77 286.9 150.83 286.04 150.46 
M 286.28 164.85 287.14 164.49 288.24 163.57 288.95 162.53 288.95 161.89 288.24 160.84 287.14 159.93 286.28 159.57 
M 285.83 173.2 286.7 172.87 287.81 172.01 288.53 171.03 288.53 170.43 287.81 169.46 286.7 168.6 285.83 168.27 
M 284.52 180.96 285.39 180.62 286.51 179.77 287.23 178.8 287.23 178.2 286.51 177.24 285.39 176.38 284.52 176.05 
M 283.77 189.71 284.63 189.32 285.74 188.34 286.45 187.22 286.45 186.53 285.85 185.6 
M 285.58 185.27 284.63 184.42 283.77 184.04 
M 285.03 200.41 285.85 199.97 286.91 198.85 287.59 197.58 287.59 196.8 286.91 195.53 285.85 194.41 285.03 193.97 
M 282.79 106.89 283.64 106.58 284.72 105.79 285.42 104.89 285.42 104.34 284.49 103.28 
M 284.42 115.66 285.24 115.29 286.28 114.35 286.95 113.28 286.95 112.62 286.28 111.56 285.24 110.61 284.42 110.25 
M 286.51 125.09 287.28 124.7 288.27 123.72 288.9 122.61 288.9 121.92 288.27 120.81 287.28 119.82 286.51 119.44 
M 287.99 134.12 288.72 133.75 289.66 132.81 290.26 131.75 290.26 131.09 289.66 130.03 288.72 129.09 287.99 128.72 
M 288.58 142.75 289.3 142.39 290.21 141.47 290.8 140.42 290.8 139.77 290.21 138.73 289.3 137.81 288.58 137.45 
M 289.12 151.76 289.82 151.39 290.72 150.45 291.3 149.38 291.3 148.72 290.72 147.65 289.82 146.71 289.12 146.34 
M 289.51 160.85 290.21 160.48 291.1 159.54 291.68 158.47 291.68 157.8 291.1 156.73 290.21 155.79 289.51 155.42 
M 289.61 169.71 290.31 169.36 291.2 168.47 291.78 167.45 291.78 166.82 291.2 165.81 290.31 164.91 289.61 164.56 
M 288.68 177.62 289.4 177.3 290.32 176.48 290.92 175.54 290.92 174.96 290.32 174.03 289.4 173.2 288.68 172.88 
M 287.03 185.25 287.78 184.91 288.73 184.03 289.34 183.04 289.34 182.42 288.73 181.43 287.78 180.55 287.03 180.21 
M 287.1 194.99 287.82 194.57 288.76 193.49 289.36 192.28 289.36 191.52 288.76 190.3 287.82 189.23 287.1 188.81 
M 286.33 104.24 287.35 103.97 288.66 103.25 
M 287.31 112.09 288.31 111.76 289.58 110.9 290.4 109.94 290.4 109.34 289.58 108.37 288.31 107.52 287.31 107.19 
M 289.03 121.03 289.97 120.66 291.18 119.72 291.96 118.65 291.96 117.99 291.18 116.92 289.97 115.98 289.03 115.61 
M 290.64 130.09 291.53 129.73 292.67 128.78 293.41 127.71 293.41 127.05 292.67 125.98 291.53 125.04 290.64 124.67 
M 291.56 138.82 292.41 138.46 293.51 137.55 294.21 136.5 294.21 135.86 293.51 134.82 292.41 133.9 291.56 133.54 
M 292.04 147.58 292.88 147.22 293.95 146.29 294.63 145.24 294.63 144.59 293.95 143.55 292.88 142.62 292.04 142.26 
M 292.44 156.57 293.26 156.2 294.3 155.26 294.98 154.2 294.98 153.54 294.3 152.48 293.26 151.54 292.44 151.18 
M 292.66 165.53 293.47 165.17 294.5 164.25 295.17 163.21 295.17 162.56 294.5 161.52 293.47 160.6 292.66 160.24 
M 292.3 174.01 293.13 173.67 294.18 172.8 294.87 171.81 294.87 171.2 294.18 170.21 293.13 169.34 292.3 169 
M 291.17 181.93 292.04 181.6 293.14 180.74 293.85 179.76 293.85 179.16 293.14 178.18 292.04 177.32 291.17 176.98 
M 290.46 190.65 291.34 190.27 292.47 189.3 293.2 188.2 293.2 187.52 292.47 186.42 291.34 185.45 290.46 185.07 
M 290.32 108.67 291.17 108.36 292.25 107.59 292.94 106.71 292.94 106.17 292.25 105.29 291.17 104.52 290.32 104.22 
M 291.72 117.15 292.53 116.8 293.56 115.89 294.22 114.87 294.22 114.23 293.56 113.21 292.53 112.3 291.72 111.95 
M 293.45 126.21 294.21 125.84 295.17 124.9 295.79 123.83 295.79 123.17 295.17 122.11 294.21 121.16 293.45 120.8 
M 294.61 134.96 295.33 134.61 296.24 133.7 296.83 132.67 296.83 132.03 296.24 131 295.33 130.08 294.61 129.73 
M 295.05 143.47 295.74 143.11 296.63 142.21 297.2 141.18 297.2 140.55 296.63 139.52 295.74 138.62 295.05 138.26 
M 295.43 152.33 296.1 151.97 296.96 151.04 297.51 149.99 297.51 149.34 296.96 148.29 296.1 147.36 295.43 147 
M 295.71 161.33 296.36 160.97 297.2 160.03 297.74 158.97 297.74 158.31 297.2 157.25 296.36 156.31 295.71 155.95 
M 293.86 195.96 294.59 195.55 295.53 194.51 296.14 193.33 296.14 192.6 295.53 191.42 294.59 190.38 293.86 189.97 
M 293.89 106.07 294.9 105.8 296.18 105.1 297.01 104.32 297.01 103.83 296.72 103.55 
M 294.71 113.69 295.68 113.37 296.93 112.55 297.74 111.61 297.74 111.04 296.93 110.11 295.68 109.28 294.71 108.96 
M 297.98 139.48 298.81 139.13 299.86 138.23 300.55 137.22 300.55 136.59 299.86 135.58 298.81 134.68 297.98 134.33 
M 298.64 165.83 299.4 165.47 300.38 164.55 301.01 163.5 301.01 162.85 300.38 161.81 299.4 160.89 298.64 160.53 
M 298.41 174.48 299.19 174.13 300.18 173.24 300.82 172.23 300.82 171.61 300.18 170.59 299.19 169.7 298.41 169.35 
M 297.86 110.43 298.68 110.13 299.74 109.38 300.42 108.53 300.42 108.01 299.74 107.16 298.68 106.41 297.86 106.11 
M 298.92 118.51 299.7 118.17 300.7 117.32 301.35 116.35 301.35 115.74 300.7 114.77 299.7 113.92 298.92 113.58 
M 300.18 127.1 300.9 126.75 301.83 125.86 302.43 124.84 302.43 124.22 301.83 123.21 300.9 122.31 300.18 121.96 
M 300.99 135.56 301.68 135.22 302.55 134.33 303.11 133.34 303.11 132.72 302.55 131.72 301.68 130.84 300.99 130.49 
M 301.26 143.92 301.93 143.58 302.78 142.69 303.33 141.69 303.33 141.07 302.78 140.07 301.93 139.19 301.26 138.84 
M 300.38 187.31 301.08 186.96 301.98 186.04 302.56 185 302.56 184.36 301.98 183.32 301.08 182.41 300.38 182.05 
M 301.32 107.76 302.29 107.5 303.53 106.81 304.32 106.04 304.32 105.56 303.53 104.79 302.39 104.16 
M 301.93 115.11 302.87 114.8 304.07 114.01 304.84 113.12 304.84 112.57 304.07 111.68 302.87 110.9 301.93 110.59 
M 302.89 123.23 303.77 122.9 304.9 122.04 305.62 121.08 305.62 120.48 304.9 119.51 303.77 118.66 302.89 118.33 
M 304.16 139.9 304.96 139.56 305.98 138.69 306.64 137.7 306.64 137.09 305.98 136.1 304.96 135.23 304.16 134.89 
M 304.3 156.95 305.05 156.6 306 155.69 306.62 154.66 306.62 154.03 306 153 305.05 152.09 304.3 151.74 
M 304.82 105.17 305.99 104.69 
M 305.12 111.91 305.89 111.63 306.89 110.9 307.53 110.08 307.53 109.57 306.89 108.75 305.89 108.02 305.12 107.74 
M 305.83 119.58 306.57 119.27 307.51 118.46 308.12 117.54 308.12 116.97 307.51 116.05 306.57 115.24 305.83 114.92 
M 306.63 127.73 307.32 127.39 308.2 126.54 308.77 125.58 308.77 124.99 308.2 124.02 307.32 123.18 306.63 122.84 
M 307.13 135.94 307.79 135.6 308.63 134.74 309.18 133.77 309.18 133.17 308.63 132.2 307.79 131.34 307.13 131.01 
M 307.27 144.18 307.92 143.85 308.75 142.98 309.28 142 309.28 141.39 308.75 140.41 307.92 139.55 307.27 139.21 
M 307.2 152.59 307.83 152.25 308.63 151.36 309.15 150.36 309.15 149.74 308.63 148.74 307.83 147.86 307.2 147.51 
M 307.11 170.23 307.71 169.87 308.48 168.94 308.97 167.88 308.97 167.23 308.48 166.18 307.71 165.25 307.11 164.89 
M 308.38 109.09 309.28 108.82 310.43 108.15 311.18 107.39 311.18 106.92 310.43 106.16 309.28 105.49 308.38 105.23 
M 308.79 116.18 309.67 115.89 310.8 115.13 311.52 114.28 311.52 113.75 310.8 112.89 309.67 112.14 308.79 111.84 
M 309.4 123.93 310.24 123.61 311.3 122.8 311.99 121.88 311.99 121.31 311.3 120.39 310.24 119.57 309.4 119.25 
M 309.92 131.98 310.71 131.66 311.73 130.81 312.39 129.86 312.39 129.27 311.73 128.32 310.71 127.47 309.92 127.15 
M 310.16 140.15 310.93 139.82 311.93 138.96 312.57 138 312.57 137.4 311.93 136.43 310.93 135.57 310.16 135.24 
M 309.84 165.63 310.56 165.27 311.49 164.35 312.08 163.31 312.08 162.67 311.49 161.62 310.56 160.7 309.84 160.35 
M 311.67 106.32 312.89 105.75 
M 311.9 112.94 312.61 112.66 313.53 111.95 314.13 111.15 314.13 110.66 313.53 109.86 312.61 109.15 311.9 108.87 
M 312.81 128.12 313.47 127.8 314.32 126.98 314.86 126.05 314.86 125.48 314.32 124.55 313.47 123.73 312.81 123.41 
M 313.15 144.34 313.78 144 314.6 143.15 315.12 142.18 315.12 141.58 314.6 140.61 313.78 139.76 313.15 139.42 
M 312.95 152.59 313.57 152.25 314.38 151.39 314.89 150.41 314.89 149.8 314.38 148.82 313.57 147.96 312.95 147.62 
M 312.59 161.03 313.19 160.68 313.97 159.78 314.47 158.76 314.47 158.13 313.97 157.11 313.19 156.21 312.59 155.86 
M 314.95 109.94 315.79 109.68 316.86 109.02 317.55 108.27 317.55 107.8 316.86 107.05 315.79 106.39 314.95 106.13 
M 315.6 124.36 316.4 124.06 317.42 123.27 318.07 122.37 318.07 121.82 317.42 120.93 316.4 120.14 315.6 119.83 
M 316.03 140.3 316.79 139.97 317.76 139.12 318.39 138.17 318.39 137.57 317.76 136.62 316.79 135.77 316.03 135.44 
M 315.94 148.5 316.7 148.17 317.66 147.31 318.29 146.34 318.29 145.74 317.66 144.77 316.7 143.91 315.94 143.58 
M 315.39 165.49 316.13 165.13 317.07 164.22 317.68 163.18 317.68 162.53 317.07 161.49 316.13 160.58 315.39 160.22 
M 318.04 106.98 318.74 106.73 
M 318.2 113.51 318.87 113.24 319.73 112.55 320.29 111.76 320.29 111.27 319.73 110.48 318.87 109.79 318.2 109.51 
M 318.49 120.7 319.14 120.4 319.99 119.65 320.53 118.79 320.53 118.25 319.99 117.4 319.14 116.64 318.49 116.34 
M 318.94 144.43 319.57 144.1 320.37 143.25 320.89 142.28 320.89 141.68 320.37 140.72 319.57 139.87 318.94 139.54 
M 318.72 152.66 319.35 152.32 320.16 151.46 320.68 150.49 320.68 149.89 320.16 148.92 319.35 148.06 318.72 147.72 
M 320.47 212.18 319.48 210.89 318.87 210.54 
M 321.13 110.4 321.92 110.15 322.93 109.49 323.59 108.74 323.59 108.28 322.82 107.46 
M 321.32 117.23 322.1 116.94 323.11 116.22 323.75 115.4 323.75 114.89 323.11 114.07 322.1 113.35 321.32 113.07 
M 321.56 124.59 322.33 124.29 323.32 123.51 323.95 122.64 323.95 122.09 323.32 121.21 322.33 120.44 321.56 120.13 
M 321.74 132.34 322.5 132.02 323.46 131.21 324.09 130.29 324.09 129.72 323.46 128.79 322.5 127.98 321.74 127.66 
M 321.8 140.37 322.55 140.05 323.52 139.2 324.14 138.25 324.14 137.66 323.52 136.71 322.55 135.87 321.8 135.54 
M 321.4 156.89 322.15 156.54 323.12 155.67 323.74 154.67 323.74 154.06 323.12 153.07 322.15 152.19 321.4 151.85 
M 321.14 165.54 321.89 165.19 322.86 164.27 323.49 163.23 323.49 162.59 322.86 161.55 321.89 160.63 321.14 160.27 
M 321.19 174.67 321.95 174.3 322.92 173.35 323.55 172.27 323.55 171.6 322.92 170.52 321.95 169.56 321.19 169.19 
M 321.72 202.46 322.47 202.09 323.44 201.13 324.06 200.05 324.06 199.38 323.44 198.3 322.47 197.35 321.72 196.97 
M 321.77 211.38 322.52 211.03 323.47 210.1 324.08 209.06 324.08 208.41 323.47 207.37 322.52 206.45 321.77 206.09 
M 324.19 113.79 324.84 113.52 325.67 112.84 326.2 112.05 326.2 111.57 325.67 110.79 324.84 110.1 324.19 109.83 
M 324.4 120.89 325.04 120.6 325.85 119.85 326.38 119 326.38 118.48 325.85 117.63 325.04 116.88 324.4 116.59 
M 324.59 128.44 325.22 128.13 326.02 127.34 326.54 126.44 326.54 125.88 326.02 124.98 325.22 124.19 324.59 123.88 
M 324.67 136.31 325.3 135.99 326.09 135.16 326.61 134.22 326.61 133.64 326.09 132.71 325.3 131.88 324.67 131.55 
M 324.68 144.48 325.3 144.15 326.1 143.3 326.61 142.33 326.61 141.73 326.1 140.76 325.3 139.91 324.68 139.57 
M 324.52 152.78 325.15 152.44 325.96 151.58 326.47 150.6 326.47 150 325.96 149.02 325.15 148.15 324.52 147.81 
M 324.1 161.14 324.74 160.79 325.55 159.9 326.08 158.89 326.08 158.26 325.55 157.25 324.74 156.36 324.1 156.01 
M 324.03 170.11 324.67 169.74 325.48 168.8 326.01 167.74 326.01 167.08 325.48 166.01 324.67 165.07 324.03 164.7 
M 324.2 179.39 324.84 179.01 325.66 178.05 326.19 176.95 326.19 176.28 325.66 175.18 324.84 174.22 324.2 173.84 
M 324.38 188.68 325.02 188.3 325.84 187.33 326.36 186.24 326.36 185.56 325.84 184.47 325.02 183.5 324.38 183.12 
M 324.51 197.9 325.14 197.53 325.95 196.56 326.47 195.47 326.47 194.8 325.95 193.71 325.14 192.74 324.51 192.37 
M 324.68 207.05 325.3 206.69 326.1 205.75 326.61 204.68 326.61 204.02 326.1 202.96 325.3 202.02 324.68 201.65 
M 325.68 211.45 325.18 210.89 324.56 210.54 
M 327.07 110.65 327.84 110.39 328.83 109.74 329.46 109 329.46 108.77 
M 327.22 117.41 327.98 117.13 328.96 116.41 329.59 115.6 329.59 115.1 328.96 114.29 327.98 113.57 327.22 113.29 
M 327.38 124.7 328.14 124.4 329.1 123.63 329.73 122.76 329.73 122.22 329.1 121.35 328.14 120.58 327.38 120.28 
M 327.49 132.39 328.24 132.07 329.2 131.26 329.82 130.35 329.82 129.78 329.2 128.86 328.24 128.06 327.49 127.74 
M 327.53 140.4 328.27 140.08 329.23 139.23 329.84 138.28 329.84 137.69 329.23 136.74 328.27 135.9 327.53 135.57 
M 327.46 148.65 328.21 148.32 329.17 147.46 329.78 146.48 329.78 145.88 329.17 144.9 328.21 144.04 327.46 143.7 
M 327.2 157.02 327.96 156.67 328.92 155.79 329.55 154.79 329.55 154.17 328.92 153.17 327.96 152.29 327.2 151.95 
M 326.99 165.71 327.75 165.35 328.72 164.43 329.35 163.39 329.35 162.74 328.72 161.7 327.75 160.78 326.99 160.42 
M 327.06 174.85 327.82 174.48 328.8 173.52 329.44 172.44 329.44 171.77 328.8 170.69 327.82 169.73 327.06 169.36 
M 327.24 184.14 328.01 183.76 328.99 182.8 329.62 181.7 329.62 181.03 328.99 179.93 328.01 178.97 327.24 178.59 
M 327.38 193.37 328.14 193 329.11 192.03 329.74 190.95 329.74 190.27 329.11 189.18 328.14 188.22 327.38 187.85 
M 327.48 202.51 328.23 202.14 329.19 201.19 329.81 200.12 329.81 199.45 329.19 198.38 328.23 197.43 327.48 197.06 
M 328.07 211.12 329.18 210.12 329.8 209.08 329.8 208.43 329.18 207.39 328.23 206.47 327.48 206.11 
M 330.07 113.96 330.7 113.69 331.51 113.01 332.03 112.23 332.03 111.75 331.51 110.98 330.7 110.29 330.07 110.02 
M 330.21 120.99 330.84 120.7 331.64 119.96 332.16 119.12 332.16 118.6 331.64 117.76 330.84 117.01 330.21 116.72 
M 330.33 128.48 330.95 128.17 331.75 127.38 332.26 126.49 332.26 125.94 331.75 125.04 330.95 124.26 330.33 123.95 
M 330.38 136.32 331 136 331.79 135.17 332.3 134.24 332.3 133.66 331.79 132.72 331 131.9 330.38 131.57 
M 330.38 144.5 331 144.16 331.79 143.31 332.3 142.34 332.3 141.74 331.79 140.77 331 139.91 330.38 139.58 
M 330.27 152.85 330.89 152.51 331.69 151.64 332.2 150.65 332.2 150.04 331.69 149.06 330.89 148.19 330.27 147.85 
M 329.92 161.29 330.55 160.94 331.36 160.04 331.88 159.02 331.88 158.39 331.36 157.37 330.55 156.47 329.92 156.12 
M 329.89 170.29 330.53 169.92 331.34 168.98 331.86 167.9 331.86 167.24 331.34 166.17 330.53 165.22 329.89 164.85 
M 330.11 179.61 330.75 179.23 331.57 178.27 332.1 177.17 332.1 176.49 331.57 175.39 330.75 174.43 330.11 174.05 
M 330.28 188.88 330.92 188.51 331.74 187.54 332.26 186.45 332.26 185.78 331.74 184.68 330.92 183.72 330.28 183.34 
M 330.35 198.02 330.98 197.65 331.78 196.7 332.3 195.62 332.3 194.95 331.78 193.87 330.98 192.92 330.35 192.55 
M 330.38 207.04 331 206.68 331.79 205.74 332.3 204.69 332.3 204.03 331.79 202.97 331 202.04 330.38 201.67 
M 330.33 210.58 330.31 210.57 
M 332.91 110.79 333.66 110.53 334.29 110.1 
M 333.02 117.5 333.77 117.22 334.73 116.51 335.35 115.71 335.35 115.21 334.73 114.4 333.77 113.69 333.02 113.41 
M 333.13 124.74 333.88 124.44 334.83 123.68 335.45 122.82 335.45 122.28 334.83 121.42 333.88 120.65 333.13 120.35 
M 333.2 132.4 333.95 132.08 334.9 131.28 335.51 130.36 335.51 129.8 334.9 128.89 333.95 128.08 333.2 127.77 
M 333.22 140.41 333.97 140.08 334.92 139.24 335.53 138.29 335.53 137.7 334.92 136.74 333.97 135.9 333.22 135.58 
M 333.17 148.68 333.91 148.34 334.86 147.48 335.48 146.5 335.48 145.89 334.86 144.91 333.91 144.05 333.17 143.71 
M 332.96 157.09 333.7 156.74 334.66 155.86 335.28 154.85 335.28 154.23 334.66 153.23 333.7 152.34 332.96 151.99 
M 332.8 165.84 333.55 165.48 334.52 164.56 335.14 163.51 335.14 162.86 334.52 161.81 333.55 160.88 332.8 160.52 
M 332.92 175.03 333.68 174.66 334.66 173.7 335.29 172.61 335.29 171.94 334.66 170.85 333.68 169.9 332.92 169.52 
M 333.11 184.31 333.87 183.93 334.84 182.97 335.47 181.88 335.47 181.2 334.84 180.11 333.87 179.15 333.11 178.77 
M 333.19 193.47 333.94 193.1 334.89 192.14 335.51 191.06 335.51 190.39 334.89 189.31 333.94 188.36 333.19 187.98 
M 333.21 202.53 333.95 202.16 334.9 201.22 335.51 200.15 335.51 199.49 334.9 198.42 333.95 197.48 333.21 197.11 
M 335.45 209.21 335.51 208.46 334.9 207.41 333.94 206.48 333.2 206.12 
M 335.84 114.04 336.47 113.77 337.26 113.09 337.78 112.32 337.78 111.84 337.02 110.86 
M 335.95 121.02 336.57 120.73 337.36 120 337.87 119.16 337.87 118.64 337.36 117.81 336.57 117.07 335.95 116.78 
M 336.03 128.48 336.65 128.17 337.44 127.39 337.95 126.5 337.95 125.95 337.44 125.06 336.65 124.27 336.03 123.96 
M 336.07 136.32 336.69 136 337.48 135.17 337.99 134.24 337.99 133.66 337.48 132.72 336.69 131.9 336.07 131.57 
M 336.07 144.5 336.69 144.16 337.48 143.31 337.99 142.34 337.99 141.74 337.48 140.77 336.69 139.91 336.07 139.57 
M 335.96 152.86 336.58 152.52 337.37 151.65 337.88 150.66 337.88 150.05 337.37 149.06 336.58 148.18 335.96 147.84 
M 335.67 161.37 336.3 161.01 337.09 160.11 337.61 159.08 337.61 158.45 337.09 157.42 336.3 156.51 335.67 156.16 
M 335.71 170.43 336.34 170.06 337.14 169.11 337.66 168.03 337.66 167.36 337.14 166.29 336.34 165.33 335.71 164.96 
M 335.97 179.78 336.61 179.4 337.42 178.44 337.94 177.34 337.94 176.66 337.42 175.57 336.61 174.6 335.97 174.22 
M 336.07 188.95 336.69 188.58 337.49 187.63 338 186.54 338 185.88 337.49 184.79 336.69 183.84 336.07 183.47 
M 336.05 198.01 336.66 197.64 337.44 196.7 337.94 195.63 337.94 194.96 337.44 193.89 336.66 192.95 336.05 192.58 
M 336.05 207.03 336.66 206.66 337.45 205.72 337.96 204.66 337.96 204.01 337.45 202.94 336.66 202.01 336.05 201.64 
M 338.73 117.52 339.47 117.25 340.42 116.53 341.03 115.73 341.03 115.23 340.42 114.43 339.47 113.72 338.73 113.44 
M 338.82 124.74 339.56 124.44 340.51 123.68 341.12 122.82 341.12 122.28 340.51 121.42 339.56 120.66 338.82 120.36 
M 338.88 132.39 339.62 132.07 340.57 131.27 341.18 130.35 341.18 129.79 340.57 128.88 339.62 128.07 338.88 127.76 
M 338.9 140.4 339.64 140.07 340.59 139.23 341.2 138.28 341.2 137.69 340.59 136.73 339.64 135.89 338.9 135.56 
M 338.84 148.66 339.58 148.32 340.53 147.46 341.13 146.48 341.13 145.87 340.53 144.89 339.58 144.03 338.84 143.69 
M 338.65 157.1 339.39 156.76 340.33 155.86 340.94 154.86 340.94 154.23 340.33 153.22 339.39 152.33 338.65 151.98 
M 338.55 165.92 339.3 165.56 340.25 164.63 340.87 163.57 340.87 162.92 340.25 161.86 339.3 160.93 338.55 160.57 
M 338.72 175.14 339.48 174.77 340.44 173.81 341.06 172.72 341.06 172.05 340.44 170.97 339.48 170.01 338.72 169.63 
M 338.87 184.35 339.61 183.97 340.57 183.02 341.18 181.94 341.18 181.27 340.57 180.19 339.61 179.23 338.87 178.86 
M 338.84 193.4 339.56 193.03 340.5 192.09 341.1 191.01 341.1 190.35 340.5 189.28 339.56 188.33 338.84 187.96 
M 338.83 202.47 339.56 202.1 340.5 201.15 341.1 200.08 341.1 199.42 340.5 198.35 339.56 197.41 338.83 197.04 
M 340.71 207.62 339.63 206.47 338.89 206.1 
M 341.53 114.03 342.14 113.76 343.07 112.86 
M 341.61 121 342.23 120.71 343.01 119.97 343.51 119.14 343.51 118.62 343.01 117.79 342.23 117.05 341.61 116.76 
M 341.69 128.45 342.31 128.14 343.09 127.36 343.6 126.47 343.6 125.92 343.09 125.03 342.31 124.24 341.69 123.93 
M 341.74 136.3 342.35 135.98 343.14 135.15 343.64 134.22 343.64 133.64 343.14 132.7 342.35 131.87 341.74 131.55 
M 341.74 144.47 342.35 144.14 343.14 143.28 343.65 142.31 343.65 141.71 343.14 140.75 342.35 139.89 341.74 139.56 
M 341.61 152.82 342.21 152.47 342.99 151.6 343.5 150.61 343.5 150 342.99 149.01 342.21 148.13 341.61 147.79 
M 341.35 161.37 341.97 161.01 342.75 160.1 343.26 159.07 343.26 158.43 342.75 157.4 341.97 156.49 341.35 156.13 
M 341.47 170.52 342.09 170.14 342.89 169.19 343.4 168.1 343.4 167.43 342.89 166.35 342.09 165.39 341.47 165.02 
M 341.75 179.84 342.37 179.46 343.17 178.5 343.69 177.42 343.69 176.75 343.17 175.66 342.37 174.7 341.75 174.33 
M 341.67 188.82 342.28 188.45 343.05 187.51 343.55 186.45 343.55 185.79 343.05 184.72 342.28 183.78 341.67 183.41 
M 341.55 197.83 342.14 197.46 342.91 196.51 343.4 195.43 343.4 194.77 342.91 193.7 342.14 192.75 341.55 192.38 
M 341.68 207 342.3 206.63 343.08 205.68 343.59 204.61 343.59 203.94 343.08 202.87 342.3 201.92 341.68 201.55 
M 344.36 117.46 345.08 117.18 346.01 116.47 346.61 115.67 346.61 115.17 346.01 114.36 345.08 113.65 344.36 113.38 
M 344.45 124.67 345.17 124.37 346.1 123.61 346.7 122.75 346.7 122.21 346.1 121.35 345.17 120.59 344.45 120.29 
M 344.52 132.33 345.24 132.02 346.18 131.21 346.78 130.3 346.78 129.73 346.18 128.82 345.24 128.01 344.52 127.7 
M 344.54 140.34 345.27 140.02 346.21 139.18 346.81 138.22 346.81 137.63 346.21 136.68 345.27 135.84 344.54 135.52 
M 344.47 148.59 345.19 148.25 346.12 147.39 346.72 146.41 346.72 145.8 346.12 144.83 345.19 143.96 344.47 143.63 
M 344.27 157.04 345 156.69 345.93 155.8 346.53 154.78 346.53 154.16 345.93 153.14 345 152.25 344.27 151.9 
M 344.23 165.93 344.97 165.56 345.92 164.62 346.53 163.56 346.53 162.9 345.92 161.84 344.97 160.9 344.23 160.54 
M 344.46 175.18 345.2 174.81 346.16 173.85 346.78 172.76 346.78 172.09 346.16 171.01 345.2 170.05 344.46 169.68 
M 344.52 184.28 345.26 183.91 346.2 182.97 346.81 181.9 346.81 181.24 346.2 180.17 345.26 179.22 344.52 178.85 
M 344.36 193.23 345.08 192.86 346.01 191.92 346.61 190.85 346.61 190.19 346.01 189.12 345.08 188.18 344.36 187.81 
M 344.39 202.35 345.12 201.98 346.05 201.03 346.64 199.95 346.64 199.29 346.05 198.21 345.12 197.26 344.39 196.88 
M 344.97 206.27 344.55 206.06 
M 347.19 120.89 347.79 120.6 348.56 119.86 349.05 119.02 349.05 118.51 348.56 117.67 347.79 116.93 347.19 116.64 
M 347.28 128.35 347.88 128.05 348.65 127.26 349.15 126.37 349.15 125.82 348.65 124.92 347.88 124.14 347.28 123.83 
M 347.35 136.22 347.95 135.9 348.72 135.07 349.22 134.13 349.22 133.55 348.72 132.62 347.95 131.79 347.35 131.47 
M 347.35 144.38 347.95 144.05 348.72 143.2 349.22 142.23 349.22 141.63 348.72 140.67 347.95 139.82 347.35 139.48 
M 347.17 152.68 347.77 152.34 348.53 151.47 349.03 150.48 349.03 149.87 348.53 148.88 347.77 148.01 347.17 147.67 
M 346.94 161.29 347.55 160.93 348.33 160.01 348.83 158.97 348.83 158.33 348.33 157.29 347.55 156.37 346.94 156.01 
M 347.16 170.54 347.78 170.16 348.58 169.2 349.09 168.11 349.09 167.43 348.58 166.34 347.78 165.38 347.16 165 
M 347.46 179.83 348.08 179.46 348.87 178.51 349.38 177.43 349.38 176.77 348.87 175.69 348.08 174.74 347.46 174.37 
M 347.22 188.64 347.82 188.28 348.6 187.35 349.1 186.3 349.1 185.65 348.6 184.59 347.82 183.67 347.22 183.3 
M 347.02 197.62 347.62 197.25 348.38 196.29 348.88 195.22 348.88 194.55 348.38 193.47 347.62 192.52 347.02 192.14 
M 348.94 205.15 349.21 204.55 349.21 203.88 348.71 202.79 347.93 201.83 347.31 201.46 
M 349.86 117.27 350.57 116.99 351.48 116.28 351.84 115.79 
M 349.95 124.49 350.66 124.19 351.56 123.43 352.15 122.56 352.15 122.03 351.56 121.17 350.66 120.4 349.95 120.11 
M 350.03 132.16 350.74 131.84 351.64 131.04 352.22 130.12 352.22 129.56 351.64 128.64 350.74 127.83 350.03 127.52 
M 350.07 140.18 350.77 139.85 351.67 139.01 352.25 138.06 352.25 137.47 351.67 136.52 350.77 135.68 350.07 135.35 
M 349.98 148.42 350.69 148.08 351.6 147.22 352.18 146.24 352.18 145.63 351.6 144.65 350.69 143.79 349.98 143.45 
M 349.81 156.91 350.54 156.56 351.46 155.66 352.06 154.64 352.06 154.01 351.46 152.99 350.54 152.09 349.81 151.74 
M 349.88 165.9 350.62 165.53 351.57 164.59 352.18 163.52 352.18 162.85 351.57 161.78 350.62 160.84 349.88 160.47 
M 350.16 175.19 350.9 174.81 351.86 173.86 352.47 172.77 352.47 172.1 351.86 171.02 350.9 170.06 350.16 169.69 
M 350.15 184.2 350.89 183.83 351.82 182.9 352.43 181.84 352.43 181.18 351.82 180.12 350.89 179.18 350.15 178.82 
M 349.9 193.06 350.62 192.7 351.54 191.76 352.14 190.69 352.14 190.03 351.54 188.97 350.62 188.03 349.9 187.66 
M 349.96 202.25 350.68 201.87 351.61 200.92 352.2 199.83 352.2 199.16 351.61 198.07 350.68 197.11 349.96 196.74 
M 352.62 120.62 353.2 120.34 353.95 119.6 354.43 118.76 354.43 118.24 353.95 117.41 353.2 116.67 352.62 116.38 
M 352.71 128.09 353.29 127.78 354.02 127 354.49 126.1 354.49 125.55 354.02 124.66 353.29 123.87 352.71 123.57 
M 352.79 135.97 353.35 135.65 354.08 134.82 354.55 133.88 354.55 133.3 354.08 132.36 353.35 131.54 352.79 131.21 
M 352.79 144.14 353.36 143.81 354.09 142.95 354.57 141.99 354.57 141.39 354.09 140.42 353.36 139.57 352.79 139.23 
M 352.56 197.48 353.16 197.11 353.92 196.15 354.42 195.07 354.42 194.4 353.92 193.32 353.16 192.37 352.56 191.99 
M 355.24 116.94 355.3 116.92 
M 355.26 131.68 355.92 131.37 356.77 130.57 357.31 129.66 357.31 129.1 356.77 128.19 355.92 127.38 355.26 127.07 
M 355.3 148.09 355.98 147.75 356.85 146.87 357.41 145.87 357.41 145.25 356.85 144.25 355.98 143.37 355.3 143.02 
M 355.36 156.83 356.09 156.47 357.02 155.55 357.62 154.51 357.62 153.86 357.02 152.81 356.09 151.89 355.36 151.53 
M 355.88 175.2 356.63 174.83 357.58 173.88 358.2 172.8 358.2 172.14 357.58 171.06 356.63 170.11 355.88 169.74 
M 355.74 184.06 356.47 183.7 357.39 182.78 357.99 181.73 357.99 181.08 357.39 180.03 356.47 179.11 355.74 178.75 
M 357.8 127.45 358.34 127.14 359.03 126.37 359.48 125.5 359.48 124.96 359.03 124.08 358.34 123.31 357.8 123.01 
M 357.74 135.23 358.26 134.91 358.93 134.08 359.36 133.15 359.36 132.57 358.93 131.64 358.26 130.81 357.74 130.49 
M 357.8 143.52 358.33 143.18 359.01 142.3 359.44 141.31 359.44 140.7 359.01 139.71 358.33 138.84 357.8 138.5 
M 358.32 161.4 358.96 161.03 359.78 160.07 360.3 158.98 360.3 158.31 359.78 157.23 358.96 156.27 358.32 155.89 
M 360.32 123.39 360.98 123.1 361.83 122.37 362.37 121.55 362.37 121.03 361.83 120.21 360.98 119.48 360.32 119.19 
M 360.96 156.86 361.69 156.49 362.63 155.52 363.23 154.43 363.23 153.75 362.63 152.66 361.69 151.69 360.96 151.31 
M 362.55 126.39 363.07 126.11 363.74 125.38 364.18 124.55 364.18 124.03 363.74 123.21 363.07 122.47 362.55 122.19 
M 362.11 133.89 362.61 133.57 363.24 132.76 363.64 131.84 363.64 131.27 363.24 130.35 362.61 129.54 362.11 129.22 
M 362.31 142.49 362.81 142.13 363.45 141.21 363.87 140.16 363.87 139.51 363.45 138.46 362.81 137.53 362.31 137.17 
M 363.3 152.11 363.88 151.72 364.63 150.72 365.11 149.59 365.11 148.89 364.63 147.76 363.88 146.76 363.3 146.37 
M 365.29 122.56 365.95 122.29 366.81 121.6 367.36 120.72 
M 364.38 137.55 364.99 137.21 365.77 136.33 366.27 135.33 366.27 134.71 365.77 133.71 364.99 132.83 364.38 132.48 
M 367.16 174.98 367.88 174.62 368.81 173.71 369.41 172.68 369.41 172.04 368.81 171.01 367.88 170.1 367.16 169.75 
M 366.36 132.41 366.88 132.1 367.54 131.3 367.96 130.4 367.96 129.84 367.54 128.94 366.88 128.14 366.36 127.83 
M 368.94 187.52 369.53 187.17 370.28 186.27 370.77 185.25 370.77 184.62 370.28 183.6 369.53 182.69 368.94 182.34 
M 369.35 128.53 370.04 128.25 370.91 127.51 371.47 126.68 371.47 126.16 370.91 125.33 370.04 124.59 369.35 124.31 
M 369.03 136.59 369.71 136.23 370.58 135.33 371.13 134.31 371.13 133.67 370.58 132.65 369.71 131.75 369.03 131.39 
M 372.48 124.76 373.08 124.5 374.17 123.37 
M 371.75 140.86 372.36 140.46 373.14 139.43 373.64 138.27 373.64 137.54 373.14 136.38 372.36 135.35 371.75 134.95 
M 378.35 174.75 379.1 174.4 380.05 173.5 380.67 172.49 380.67 171.86 380.05 170.85 379.1 169.96 378.35 169.61 
M 380.07 152.1 380.72 151.67 381.56 150.57 382.09 149.33 382.09 148.56 381.56 147.31 380.72 146.21 380.07 145.78 
M 381.51 161.93 382.13 161.54 382.92 160.54 383.43 159.41 383.43 158.71 382.92 157.58 382.13 156.59 381.51 156.2 
M 381.5 170.56 382.12 170.21 382.91 169.3 383.43 168.27 383.43 167.63 382.91 166.61 382.12 165.7 381.5 165.34 
M 380.94 178.98 381.57 178.64 382.38 177.75 382.9 176.75 382.9 176.13 382.38 175.12 381.57 174.24 380.94 173.89 
M 380.27 187.48 380.92 187.13 381.74 186.23 382.28 185.2 382.28 184.57 381.74 183.54 380.92 182.64 380.27 182.28 
M 380.02 196.48 380.67 196.11 381.51 195.16 382.05 194.08 382.05 193.41 381.51 192.33 380.67 191.38 380.02 191.01 
M 381.13 137.28 382.03 136.93 383.18 136.03 383.92 135.01 383.92 134.38 383.18 133.37 382.03 132.47 381.13 132.12 
M 382.22 146.98 383.06 146.58 384.14 145.55 384.83 144.39 384.83 143.68 384.14 142.52 383.06 141.49 382.22 141.09 
M 383.74 157.05 384.51 156.65 385.49 155.63 386.13 154.47 386.13 153.75 385.49 152.59 384.51 151.56 383.74 151.16 
M 384.36 166.24 385.1 165.87 386.06 164.92 386.67 163.85 386.67 163.18 386.06 162.11 385.1 161.16 384.36 160.79 
M 384.11 174.84 384.87 174.49 385.83 173.58 386.45 172.56 386.45 171.93 385.83 170.9 384.87 170 384.11 169.65 
M 383.58 183.39 384.36 183.04 385.35 182.13 385.98 181.11 385.98 180.48 385.35 179.45 384.36 178.55 383.58 178.2 
M 383.19 192.19 383.98 191.83 384.99 190.9 385.64 189.84 385.64 189.19 384.99 188.14 383.98 187.21 383.19 186.84 
M 384.47 133.51 385.25 133.18 386.25 132.36 386.9 131.43 386.9 130.9 
M 384.77 142.28 385.54 141.91 386.52 140.95 387.16 139.87 387.16 139.2 386.52 138.11 385.54 137.16 384.77 136.78 
M 386.19 152.31 386.86 151.91 387.71 150.88 388.27 149.72 388.27 149 387.71 147.84 386.86 146.81 386.19 146.41 
M 387.2 161.86 387.82 161.48 388.61 160.51 389.12 159.4 389.12 158.72 388.61 157.62 387.82 156.64 387.2 156.26 
M 387.22 170.62 387.84 170.26 388.64 169.34 389.15 168.31 389.15 167.66 388.64 166.63 387.84 165.71 387.22 165.35 
M 386.79 179.19 387.43 178.84 388.25 177.94 388.77 176.92 388.77 176.28 388.25 175.26 387.43 174.36 386.79 174.01 
M 386.33 187.89 386.99 187.53 387.84 186.62 388.39 185.57 388.39 184.93 387.84 183.89 386.99 182.97 386.33 182.61 
M 387.77 192.95 386.82 191.83 386.15 191.47 
M 388.14 138.54 389.05 138.19 390.22 137.31 390.97 136.31 390.97 135.7 390.22 134.7 389.05 133.82 388.14 133.47 
M 388.77 147.64 389.62 147.27 390.71 146.31 391.41 145.22 391.41 144.55 390.71 143.46 389.62 142.5 388.77 142.12 
M 389.66 157.14 390.43 156.76 391.42 155.78 392.06 154.67 392.06 153.99 391.42 152.88 390.43 151.91 389.66 151.52 
M 390.07 166.24 390.81 165.87 391.77 164.93 392.38 163.86 392.38 163.2 391.77 162.14 390.81 161.2 390.07 160.83 
M 389.9 174.97 390.66 174.61 391.62 173.7 392.24 172.66 392.24 172.02 391.62 170.98 390.66 170.07 389.9 169.71 
M 389.55 183.7 390.32 183.34 391.31 182.42 391.95 181.38 391.95 180.74 391.31 179.7 390.32 178.78 389.55 178.42 
M 391.5 189.17 391.1 188.54 390.09 187.6 389.3 187.24 
M 391.75 143.4 392.49 143.05 393.44 142.15 394.05 141.12 394.05 140.62 
M 393.21 139.25 392.49 138.56 391.75 138.21 
M 392.36 152.58 393.02 152.21 393.87 151.25 394.42 150.17 394.42 149.5 393.87 148.42 393.02 147.46 392.36 147.09 
M 392.9 161.8 393.52 161.43 394.32 160.48 394.83 159.4 394.83 158.74 394.32 157.66 393.52 156.71 392.9 156.34 
M 392.94 170.67 393.56 170.31 394.36 169.38 394.87 168.34 394.87 167.69 394.36 166.64 393.56 165.72 392.94 165.36 
M 392.65 179.41 393.28 179.05 394.09 178.13 394.62 177.09 394.62 176.44 394.09 175.4 393.28 174.48 392.65 174.12 
M 394.43 185.46 393.89 184.25 393.06 183.31 392.4 182.95 
M 395.18 148.22 396 147.87 397.05 146.95 397.5 146.26 
M 395.61 143.16 395.18 142.98 
M 395.57 157.24 396.34 156.87 397.32 155.94 397.62 155.43 
M 397.62 153.66 397.32 153.16 396.34 152.22 395.57 151.85 
M 395.78 166.23 396.52 165.87 397.62 164.69 
M 397.62 162.41 396.52 161.23 395.78 160.87 
M 395.66 175.07 396.41 174.71 397.62 173.36 
M 397.62 171.46 396.41 170.11 395.66 169.75 
M 395.45 183.94 395.74 183.81 
M 397.62 180.62 397.18 179.89 396.21 178.96 395.45 178.59 
M 197.14 111.37 199.15 111.47 
M 213.55 108.2 217.89 51.77 219 51.83 217.57 107.82 
M 229.91 104.62 239.3 35.96 240.41 36.09 233.95 104.51 
M 246.6 103.06 263.54 35.5 264.63 35.75 250.62 103.43 
M 263.33 102.87 283.78 35.21 284.85 35.51 267.32 103.46 
M 280.06 102.8 299.91 42.67 300.97 43 284.08 103.3 
M 296.81 103.02 313.04 66.24 314.07 66.65 300.73 103.99 
M 318.15 106.06 319.96 106.93 
M 199.92 111.35 205.12 99.93 207.55 94.07 209.76 88.14 211.72 82.13 213.42 76.04 214.9 69.88 217.46 57.42 
M 218.86 57.49 224.05 55.37 226.52 54.14 228.85 52.73 231.01 51.1 233.02 49.26 234.89 47.23 238.36 42.83 
M 239.76 42.99 244.71 44.26 247.19 44.67 249.65 44.86 252.1 44.78 254.55 44.43 256.99 43.85 261.85 42.26 
M 263.22 42.57 267.38 43.87 269.45 44.3 271.52 44.5 273.57 44.43 275.62 44.1 277.66 43.54 281.73 41.97 
M 283.09 42.35 285.82 45.08 287.27 46.24 288.82 47.18 290.47 47.89 292.22 48.35 294.06 48.6 297.92 48.69 
M 299.27 49.1 300.73 54.45 301.65 57.01 302.77 59.46 304.12 61.77 305.7 63.95 307.48 66.01 311.41 69.92 
M 312.72 70.44 312.78 78.74 313.02 82.85 313.5 86.92 314.23 90.94 315.22 94.91 316.45 98.84 319.32 106.63 
M 221.48 56.47 226.52 54.14 228.85 52.73 231.01 51.1 233.02 49.26 236.66 45.06 
M 221.8 63.48 226.13 61.48 228.13 60.26 229.99 58.86 231.72 57.28 234.85 53.68 
M 222.11 70.5 225.74 68.82 228.97 66.63 230.42 65.31 233.04 62.29 
M 222.43 77.51 225.35 76.16 226.7 75.34 229.12 73.33 231.23 70.9 
M 222.74 84.53 225.98 82.88 227.82 81.35 229.42 79.51 
M 242.24 43.67 247.19 44.67 249.65 44.86 252.1 44.78 254.55 44.43 259.42 43.1 
M 242 50.73 246.37 51.62 248.55 51.78 250.72 51.71 252.88 51.4 257.18 50.23 
M 241.77 57.79 245.56 58.56 247.45 58.7 249.33 58.64 251.21 58.37 254.94 57.35 
M 241.53 64.85 244.75 65.5 247.95 65.57 249.54 65.34 252.7 64.48 
M 241.3 71.91 243.94 72.44 246.56 72.5 247.87 72.31 250.46 71.6 
M 241.07 78.97 243.13 79.38 245.18 79.43 248.22 78.73 
M 265.3 43.27 269.45 44.3 271.52 44.5 273.57 44.43 275.62 44.1 279.7 42.8 
M 264.32 50.29 267.99 51.2 269.81 51.38 271.63 51.32 273.44 51.03 277.04 49.88 
M 263.34 57.31 266.52 58.1 268.11 58.26 269.69 58.2 271.26 57.95 274.38 56.95 
M 262.36 64.33 265.06 65.01 267.74 65.09 269.07 64.88 271.72 64.03 
M 261.38 71.36 263.6 71.91 264.7 72.01 266.89 71.8 269.06 71.11 
M 260.4 78.38 262.14 78.81 263.85 78.86 266.41 78.18 
M 284.43 43.76 287.27 46.24 288.82 47.18 290.47 47.89 292.22 48.35 295.98 48.68 
M 282.92 52.11 285.36 54.24 286.69 55.05 288.11 55.66 289.62 56.06 292.85 56.34 
M 281.41 60.45 283.45 62.24 285.75 63.43 287.01 63.76 289.72 64 
M 279.89 68.8 281.54 70.24 282.43 70.79 284.41 71.47 286.59 71.66 
M 278.38 77.15 280.31 78.66 281.8 79.18 283.46 79.32 
M 299.96 51.79 301.65 57.01 302.77 59.46 304.12 61.77 305.7 63.95 309.41 67.99 
M 297.71 63.88 299.01 67.87 299.87 69.75 300.9 71.52 302.11 73.2 304.95 76.29 
M 295.46 75.96 296.36 78.74 296.96 80.04 298.52 82.44 300.5 84.6 
M 188.47 148.34 226.46 133.61 226.9 134.63 189.2 152.11 
M 189.35 152.93 275.28 128 275.61 129.06 189.27 157.01 
M 189.2 157.92 285.94 140.38 286.15 141.48 189.24 161.88 
M 189.25 162.82 294.19 154.85 294.29 155.96 189.05 166.76 
M 188.94 167.7 286.49 170.6 286.48 171.71 188.27 171.6 
M 188.12 172.42 297.03 186.95 296.9 188.05 187.41 176.31 
M 187.45 177 275.83 198.6 275.59 199.69 187.66 181.08 
M 187.63 181.72 259.04 207.55 258.68 208.6 187.43 185.79 
M 190.62 186.81 226.35 204.74 225.89 205.75 187.38 189.43 
M 222.81 136.53 232.64 136.64 237.53 136.47 242.39 136.08 247.22 135.42 252 134.51 256.76 133.36 266.21 130.63 
M 266.62 131.97 267.6 135.2 268.25 136.67 269.08 137.99 270.1 139.13 271.32 140.09 272.71 140.9 275.82 142.22 
M 276.09 143.6 276.46 147.01 276.83 148.61 277.4 150.09 278.19 151.43 279.22 152.64 280.45 153.73 283.27 155.68 
M 283.4 157.08 280.57 159.34 279.35 160.58 278.33 161.92 277.55 163.39 277.01 164.98 276.66 166.69 276.36 170.29 
M 276.34 171.7 277.28 175.57 277.93 177.38 278.77 179.06 279.83 180.59 281.11 181.97 282.58 183.22 285.87 185.46 
M 285.7 186.85 280.86 187.7 278.54 188.31 276.32 189.14 274.22 190.2 272.24 191.49 270.36 193 266.81 196.4 
M 266.5 197.76 262.59 198.06 260.73 198.41 258.98 198.96 257.33 199.75 255.81 200.78 254.38 202.03 251.72 204.9 
M 251.27 206.23 245.01 204.03 241.85 203.14 238.67 202.49 235.45 202.1 232.2 201.97 228.93 202.07 222.32 202.71 
M 227.73 136.63 237.53 136.47 242.39 136.08 247.22 135.42 252 134.51 261.49 132.04 
M 267.08 133.62 268.25 136.67 269.08 137.99 270.1 139.13 271.32 140.09 274.23 141.59 
M 238.41 142.31 239.18 144.3 239.71 145.15 241.17 146.52 243.06 147.49 
M 276.23 145.33 276.83 148.61 277.4 150.09 278.19 151.43 279.22 152.64 281.82 154.73 
M 244.36 151.48 244.75 153.61 245.12 154.58 246.3 156.23 247.99 157.59 
M 281.94 158.19 279.35 160.58 278.33 161.92 277.55 163.39 277.01 164.98 276.47 168.47 
M 248.07 161.4 246.39 162.95 245.73 163.83 244.86 165.82 244.52 168.08 
M 276.77 173.66 277.93 177.38 278.77 179.06 279.83 180.59 281.11 181.97 284.19 184.36 
M 244.71 173.02 245.47 175.44 246.7 177.52 247.53 178.42 249.53 179.97 
M 283.26 187.23 278.54 188.31 276.32 189.14 274.22 190.2 272.24 191.49 268.57 194.65 
M 248.93 183.4 245.86 184.1 244.42 184.64 241.77 186.17 239.38 188.22 
M 264.53 197.87 260.73 198.41 258.98 198.96 257.33 199.75 255.81 200.78 253.03 203.42 
M 236.75 191.87 234.29 192.22 232.08 193.1 231.09 193.77 229.28 195.48 
M 248.14 205.08 241.85 203.14 238.67 202.49 235.45 202.1 232.2 201.97 225.63 202.35 
M 226.71 217.79 235.32 233.63 234.39 234.24 223.35 219.98 
M 224.74 217.33 225.28 218.72 
M 228.13 226.15 232.81 238.35 231.8 238.81 221.1 219.01 
M 222.74 216.89 223.02 218.12 
M 224.86 225.97 228.89 243.18 227.82 243.49 218.89 218.02 
M 220.69 216.47 220.78 217.47 
M 221.51 225.48 223.54 247.82 222.43 247.97 216.72 217.02 
M 218.41 215.99 218.37 216.79 
M 218 223.99 216.58 251.91 215.47 251.9 214.4 215.95 
M 233.28 232.81 231.66 233.07 230.66 233.57 230.52 233.95 230.62 234.43 232 236.24 
M 230.73 236.83 228.3 237.01 227.81 237.28 227.54 237.69 227.63 238.93 228.28 240.55 
M 226.93 240.94 225.09 240.77 223.73 241.07 223.32 241.48 223.1 242.09 223.25 244.69 
M 221.86 244.88 219.93 244.46 219.08 244.43 218.37 244.59 217.8 244.97 217.38 245.57 217.1 246.37 216.77 248.32 
M 232.43 232.93 231.05 233.28 230.66 233.57 230.52 233.95 230.62 234.43 231.43 235.6 
M 229.82 236.82 228.3 237.01 227.81 237.28 227.54 237.69 227.48 238.25 227.91 239.72 
M 227.04 230.17 225.73 230.46 225.52 231.09 225.8 232.05 
M 225.98 240.82 224.33 240.84 223.73 241.07 223.32 241.48 223.1 242.09 223.12 243.74 
M 223.8 232.52 222.73 232.53 222.07 232.95 221.93 233.34 221.94 234.41 
M 220.87 244.63 219.08 244.43 218.37 244.59 217.8 244.97 217.38 245.57 216.91 247.31 
M 219.71 234.73 218.55 234.6 217.71 234.96 217.44 235.35 217.13 236.47 
M 363.1 206.07 367.46 212.55 368.64 216.46 372.77 221.7 363.84 222.67 361.35 224.89 359.35 227.48 357.55 230.27 356.32 233.62 355.32 237.2 351.93 243.12 349.04 244.95 344.98 250.25 340.37 254.95 339.52 258.62 339.76 262.51 339.27 267.23 337.78 274.78 334.72 271.7 332.64 268.38 327.77 261.9 321.63 252.78 319.12 249.47 315.54 243.4 313.17 237.41 311.21 234.01 308.77 230.24 305.52 223.13 302.7 218.93 
M 357.7 207.42 362.34 211.88 364.53 215.97 366.72 219.27 
M 352.32 208.88 360.02 216.16 362.32 219.19 
M 346.99 210.49 352.79 215.16 356.11 218.93 
M 341.72 212.29 346.41 217.24 349.63 221.81 354.14 228.8 
M 336.45 214.11 340.75 219.75 346.4 226.56 349.41 229.71 353.44 231.41 
M 331.12 215.69 338.31 225.1 341.28 227.68 344.09 231 346.64 233.41 
M 325.68 216.9 331.52 225.07 334.97 228.03 336.94 231.89 
M 320.18 217.76 323.09 222 325.18 225.75 328.46 233.31 330.54 237.36 
M 314.63 218.24 317.55 222.32 319.36 225.99 321 230.16 323.21 233.88 324.16 237.66 326.87 240.72 329.81 243.26 333.24 245.76 334.68 248.17 335.55 250.38 335.88 253.61 
M 309.07 218.62 311.9 222.53 313.97 226.39 315.57 230.46 317.6 233.84 319.4 237.44 321.3 240.06 323.81 242.62 326.24 245.5 328.1 249.48 
M 397.62 146.45 400.79 144.53 403.45 142.13 405.89 139.55 407.74 136.79 410.3 134.09 412.53 130.82 414.22 127.74 416.51 125.46 419.34 123.28 421.44 120.76 423.82 119.25 427.43 117.42 430.56 113.62 432.27 110.93 435.48 109.6 437.56 108.97 439.8 108.82 447.17 106.29 450.5 104.44 455 102.45 458.69 101.22 461.6 99.98 464.62 99.37 468.02 99.37 472.85 100.13 476.09 97.95 479.17 95.63 483.26 95.17 487.32 95.25 490 103.81 488.87 106.21 488.87 109.72 489.35 113.71 488.68 117.4 487.31 120.53 485.27 122.97 483.81 126.05 481.73 128.66 480.69 132.32 477.6 133.92 475.55 136.6 472.21 137.98 469.29 139.78 467.33 142.54 465.58 145.51 463.65 148.28 459.92 149.25 458.72 152.76 455.87 154.62 453 156.06 450.61 157.97 445.47 161.44 441.77 162.09 437.35 162.1 433.98 163.18 431.25 164.88 431.65 168.86 433.82 172.46 438.11 175.64 440.91 177.32 445.45 179.64 446.52 179.63 453.62 184.55 457.83 187.76 461.26 190.61 462.59 191.36 464.9 193.09 467.69 195.3 470.77 198.32 477.09 205.39 478.9 208 481 211.17 483.9 216.21 482.95 217.37 483.78 220.45 485.98 224.91 487.6 229.21 487.18 233.06 485.33 235.48 483.71 236.25 485.82 245.25 482.05 243.82 477.74 242.86 474.81 240.06 471.03 239.46 467.96 237.88 465.09 237.79 462.14 237.46 459.78 236.3 455.45 236.5 451.96 235.63 448.12 234.01 441.51 230.08 438.8 228.89 437.9 225.92 434.98 223.35 430.87 220.75 426.67 219.63 424.97 216.14 422.72 213.53 416.92 208.28 413.77 206.24 412.11 203.47 408.48 196.72 403.53 190.29 397.62 183.27 
M 401.11 147.06 404.03 144.81 406.4 142.64 408.71 140.11 411.87 138.42 414.62 135.36 416.3 132.83 418.7 130.05 421.77 128.14 424.58 126.12 427.29 123.16 430.36 121.45 433.04 119.04 435.89 117.37 438.06 116.7 440.84 115.41 443.11 114.08 447.1 113.26 450.47 113.03 454.03 110.47 457.96 108.5 465.22 107.1 467.22 105.59 469.59 106.36 473.44 105.59 478.58 105.19 
M 404.53 147.93 407.03 145.35 409.51 143.46 413.01 142.51 415.64 140.6 422.6 133.57 426.48 131.34 430.22 127.99 433.06 126.82 435.9 125.34 438.86 124.04 442.6 123.36 446.16 123.41 449.35 122.87 454.94 119.19 457.74 118.02 460.84 117.47 465.11 116.28 468.58 116.47 472.85 115.97 476.06 116.1 479.16 115.46 
M 404.44 150.69 407.27 148.45 410.25 146.75 416.98 144.34 419.27 142.91 422.44 141.58 425.1 139.53 428.08 137.98 434.59 134.13 437.45 132.95 441.5 130.91 445.21 129.92 453.29 130.21 455.64 129.52 459.27 129.33 462.34 128.16 469.19 126.55 472.07 125.63 
M 401.37 154.55 407.75 152.11 411.03 150.37 423.75 145.42 426.78 143.81 429.97 143.32 433.27 142.01 436.42 140.52 439.94 140.05 443.71 139.33 446.64 138.14 458.33 136.56 
M 401.59 157.11 404.81 156.11 408.31 155.31 412.16 154.08 415.47 152.55 418.72 150.81 424.87 148.35 428.59 147.69 432.22 147.52 437.68 146.57 445.95 146.63 449.14 146.13 
M 409.39 158.8 413.03 158.22 416.12 156.8 419.84 155.66 422.65 153.82 429.73 153.71 433.9 153.15 436.48 153 439.73 151.89 443.16 153.02 
M 410.68 162.68 414.71 162.31 421.63 161.1 
M 412.48 167.7 416.17 167.85 
M 407.77 170.56 412.25 171.92 416.12 172.52 419.58 172.28 423.57 172.99 
M 406.07 173 410.27 174.79 419.73 177.41 423.69 177.6 426.95 177.29 
M 405.18 175.19 408.68 176.88 411.6 179.06 415.13 180.6 418.42 181.59 422.49 181.93 424.61 183.02 427.78 183.28 432.08 183.21 436.73 185.08 440.27 186.05 
M 407.77 179.41 414.28 184.6 418.13 185.81 421.09 186.03 427.93 188.21 432.71 189.28 436.13 191.49 440.22 192.49 451.54 191.95 
M 407.31 182.35 410.38 184.65 413.54 187.29 417.4 188.81 421.11 189.53 423.65 191.7 426.89 193.01 430.21 195.52 433.99 197.42 438.31 198.93 441.05 199.53 444.51 199.27 446.99 199.67 451.12 199.88 456.88 201.56 460.51 202.91 463.1 203.11 465.94 204.47 
M 401.01 180.39 413.62 189.77 417.12 191.72 420.59 194.34 422.85 196.75 425.49 197.85 432.59 203.34 433.93 205.55 436.83 207.22 441.53 206.91 450.43 207.51 453.16 207.91 455.27 209.56 
M 397.62 179.61 401.16 183.08 404.39 185.55 410.44 190.73 413.5 192.82 416.15 195.16 418.47 198.02 421.16 200.76 423.63 203.77 427.11 205.41 429.87 207.36 431.35 210.52 433.15 213.05 437.42 214.28 441.36 213.72 
M 407.06 191.32 412.39 196.62 416.49 202.12 418.83 204.75 425.14 208.99 429.81 215.33 433.16 217.18 437.02 218.85 439.73 219.73 441.69 221.37 442.49 223.15 446.27 225.15 450.21 227.93 455.09 229.87 
M 363.1 119.28 364.34 116.43 365.78 113.78 367.57 111.49 371.85 107.6 373.75 105.41 375.49 103.07 377.58 101.06 380.34 99.74 383.72 99.14 387.78 100.56 391.78 104.13 394.91 109.17 396.13 114.17 394.86 117.58 391.77 118.9 388.55 119.46 385.97 120.64 383.89 122.32 382.03 124.22 380.36 126.36 
M 366.67 117.09 367.57 115.94 371.85 112.05 373.75 109.86 375.49 107.52 377.58 105.52 380.34 104.19 383.72 103.59 387.78 105.01 391.78 108.59 393.35 111.11 
M 47.12 144.83 49.9 143.36 58.26 142.13 64.94 140.69 72.36 138.87 79.38 136.51 87.55 134.06 107.2 129.89 117.45 127.9 127.7 126.26 137.77 124.4 147.49 123.27 163.51 120.65 173.19 119.97 177.54 123.96 179.56 128.2 181.87 132.41 184.46 136.59 186.5 140.82 187.76 145.14 189.52 153.84 189.16 158.33 189.25 162.76 189.03 167.23 187.41 176.29 187.69 180.71 187.37 189.63 186.62 194.15 185.02 198.76 181.94 203.43 162.42 202.61 148.05 201.26 135.19 199.13 123.02 196.57 112.52 193.62 102.84 190.16 94.02 186.73 86 183.35 78.47 179.14 71.92 174.73 66.68 170.51 
M 60.55 166 56.95 163.25 53.99 160.32 52.02 157.7 
M 151.86 141.87 152.2 145.59 150.96 149.26 149.67 152.72 147.93 156.1 145.9 159.33 144.43 162.25 144.61 167.49 148.67 176.75 149.09 180.76 136.11 180.82 126.56 180.61 117.42 179.9 108.03 178.64 99.48 176.83 91.33 174.3 83.82 171.45 
M 62.52 167.85 51.87 157.56 45.47 151.89 43.43 149.9 42.75 147.25 44.35 145.02 47.12 144.83 49.23 146.52 56.3 155.14 62.81 164.67 66.94 170.29 
M 64.35 170.47 58.23 168.26 51.85 165.55 
M 49.79 164.75 32.31 157.92 30.17 156.22 29.99 153.46 31.89 151.43 34.62 151.58 49.77 160.3 
M 51.15 161.05 58.99 165.85 65.35 169.41 
M 65.84 169.67 66.77 170.18 
M 103.32 150.04 101.45 147.43 100.53 144.34 100.67 141.13 101.84 138.14 103.92 135.68 106.68 134.04 109.83 133.38 113.02 133.77 115.91 135.19 118.18 137.46 119.59 140.35 119.99 143.54 119.33 146.69 117.68 149.45 115.23 151.53 112.23 152.7 109.02 152.83 105.94 151.91 103.32 150.04 
M 116.59 138.6 117.72 140.91 118.04 143.46 117.51 145.98 116.19 148.19 114.23 149.85 111.83 150.79 109.26 150.89 106.8 150.16 104.7 148.66 
M 106.63 145.06 105.88 144.02 105.52 142.78 105.57 141.5 106.04 140.3 106.87 139.32 107.97 138.66 109.23 138.4 110.51 138.56 111.66 139.12 112.57 140.03 113.14 141.19 113.3 142.46 113.03 143.72 112.38 144.83 111.39 145.66 110.2 146.13 108.91 146.18 107.68 145.81 106.63 145.06 
M 106.29 143.95 108.36 146.01 
M 106.44 141.08 111.12 145.77 
M 107.74 139.38 112.68 144.32 
M 110.06 138.69 113.22 141.85 
M 47.21 144.75 47.96 145.5 
M 50.46 148 51.87 149.4 
M 52.12 142.98 55.53 146.38 
M 57.99 142.16 62.81 146.98 
M 63.51 141 68.31 145.8 
M 68.91 139.72 74.81 145.61 
M 74.15 138.27 77.53 141.65 
M 79.16 136.59 84.68 142.12 
M 84.29 135.04 90.97 141.72 
M 89.58 133.64 93.39 137.46 
M 95.11 132.5 100.02 137.41 
M 100.62 131.32 104.58 135.28 
M 106.11 130.13 109.44 133.46 
M 111.69 129.02 116.91 134.25 
M 117.28 127.93 120.65 131.3 
M 123.04 127.01 127.39 131.36 
M 128.78 126.06 134.83 132.12 
M 134.42 125.02 140.01 130.61 
M 140.2 124.12 145.45 129.37 
M 146.19 123.42 152.64 129.87 
M 151.98 122.53 156.72 127.27 
M 157.71 121.58 161.63 125.5 
M 163.47 120.66 169 126.18 
M 169.64 120.14 174.33 124.83 
M 174.93 130.86 175.65 132.06 175.73 133.88 176.35 136.38 
M 142.15 200.29 141.49 199.29 140.58 196.84 139.56 195.45 138.45 194.37 138.11 193.7 138.05 193.02 138.22 192.47 138.76 191.8 
M 112.07 158.48 110.8 160.24 110.49 161.15 110.98 162.17 111.94 163.08 
M 129.05 180.54 127.88 180.75 127.19 180.64 122.82 179.29 121.22 178.98 119.39 178.91 117.22 179.11 114.79 178.91 
M 159.53 187.29 160.46 183.97 160.44 183.18 160.01 182.47 159.11 181.88 157.93 181.53 156.55 181.42 154.33 180.67 148.88 180.05 
M 174.01 148.22 175.15 148.65 176.83 148.79 177.3 149.25 
M 169.35 129.08 171.02 128.97 172.12 129.05 172.96 129.31 174.62 130.49 175.52 131.71 175.7 132.48 
M 99.57 179.35 99.69 181.21 97.92 185.05 97.88 185.75 98.86 188.61 
M 177.82 176.05 178.94 177.81 179.22 179.07 178.96 180.32 178.02 181.22 
M 177.63 124.16 176.53 123.85 176.13 123.52 
M 185.42 197.62 185.06 197.51 
M 124.53 141.77 121.51 144.2 119.74 144.72 
M 129.29 177.18 130.1 177.57 131.37 177.89 133.13 178.02 133.74 177.9 134.35 177.6 134.88 177.09 135.65 175.26 
M 181.48 150.6 182.63 149.24 184.02 148.09 186.2 147.5 187.29 147.53 
M 117.9 128.35 116.63 128.06 
M 128.75 147.62 127.77 149.52 127.23 149.75 126.5 149.6 
M 90.46 152.68 87.87 152.24 86.08 152.25 84.85 152.53 82.17 154.14 81.37 155.19 80.93 156.32 
M 86.4 153.76 85.64 153.87 83.15 154.9 82.53 155.3 81.61 156.7 81.49 157.65 
M 75.39 150.12 74.79 149.72 74.38 148.99 
M 105.91 165.24 107.1 163.15 107.4 163.14 107.81 163.56 
M 159.03 133.64 158.03 132.74 156.2 130.31 153.94 128.97 153.01 128.6 150.64 128.07 150.28 127.47 
M 122.87 128.72 119.76 127.53 
M 65.42 142.32 63.94 140.91 
M 147.53 143.33 143.7 142.37 142.8 142.36 142.08 142.57 141.49 142.98 140.9 144.05 141.01 145.98 
M 118.12 183.75 116.52 182.6 115.86 181.01 115.07 180.34 114.09 180.18 112.74 180.74 111.64 180.66 
M 180.74 149.89 181.37 149.6 184.08 147.63 186.51 146.93 187.55 146.99 
M 139.69 199.88 138.31 196.77 136.51 194.26 136.42 193.49 136.71 192.86 137.93 191.74 138.49 191.43 139.43 191.25 
M 98.07 171.74 96.28 169.55 95.07 168.42 93.47 167.96 89.77 167.56 
M 130.14 149.98 130.03 150.75 130.45 152.92 130.32 154.58 
M 159.09 166.36 160.04 167.39 160.68 169.35 
M 84.74 154.42 83.02 155.11 82.28 155.73 81.59 157.08 81.75 158.51 
M 112.27 175.63 110.95 176.45 108.98 178.55 107.44 180.59 105.91 181.8 
M 61.74 151.27 59.09 148.44 55.34 147.07 
M 120.61 180.37 119.68 180.39 117.9 180 116.87 180.02 114.92 179.6 114.1 179.62 111.61 180.45 109.46 180.42 
M 151.24 138.34 149.38 136.94 148.47 136.51 147.71 136.47 142.76 137.34 
M 136.64 148.4 137.5 149.35 138.23 150.77 138.32 151.33 138.06 151.86 
M 147.87 150.41 145.01 150.35 143.99 150.68 142.58 151.89 140.42 155.05 
M 67.82 171.65 65.08 173.97 63.46 174.96 61.58 175.65 59.56 175.86 57.59 175.56 55.78 174.83 54.17 173.77 52.83 172.4 51.82 170.84 50.48 167.55 49.67 164.16 49.51 162.37 49.68 160.55 50.28 158.82 51.19 157.26 52.38 155.93 53.76 154.85 55.26 153.97 58.48 152.78 60.17 152.49 61.87 152.43 65.21 152.9 69.95 154.56 66.79 153.48 63.52 152.91 60.25 153.06 58.66 153.44 55.7 154.78 54.37 155.68 53.2 156.75 52.24 157.98 51.55 159.35 51.16 160.82 51.12 162.33 51.79 165.39 52.95 168.37 53.7 169.72 54.59 170.9 55.66 171.86 56.89 172.56 58.21 172.98 59.55 173.1 60.84 172.86 62.07 172.3 63.24 171.46 65.45 169.29 
M 42.15 161.73 50.48 167.57 
M 53.53 169.41 60.01 173.01 
M 63.69 174.82 67.29 176.5 73.38 178.98 86 183.35 
M 60.41 172.94 61.05 172.18 62 171.49 63.1 170.97 
M 180.21 129.4 183.68 132.86 
M 177.54 117.81 190.21 130.48 
M 183.72 115.07 196.59 127.95 
M 190.52 112.97 200.69 123.13 
M 198.11 111.65 205.94 119.47 
M 205.83 110.45 216.32 120.95 
M 213.16 108.87 223.01 118.72 
M 220.36 107.16 232.5 119.3 
M 227.69 105.58 235.53 113.42 
M 235.4 104.38 244.25 113.23 
M 243.64 103.71 253.51 113.57 
M 252.24 103.39 262.52 113.68 
M 261.06 103.31 272.49 114.74 
M 270.17 103.51 279.87 113.21 
M 279.09 103.51 288.32 112.74 
M 287.74 103.25 298.05 113.56 
M 296.98 103.58 305.84 112.43 
M 307.18 104.86 314.45 112.14 
M 317.79 106.57 325.84 114.61 
M 328.7 108.56 336.53 116.4 
M 341.33 112.28 349.68 120.63 
M 354.7 116.74 364.81 126.85 
M 367.71 120.84 377.69 130.82 
M 386.18 130.4 389.19 133.41 
M 205.55 109.27 205.99 110.15 
M 205.47 99.09 210.56 109.27 
M 207.73 93.59 215.13 108.38 
M 209.86 87.83 219.67 107.43 
M 211.83 81.73 224.2 106.47 
M 213.61 75.26 228.73 105.52 
M 215.21 68.44 233.35 104.73 
M 216.68 61.36 236.11 100.21 
M 219.61 57.19 234.06 86.09 
M 223.77 55.49 229.25 66.45 
M 227.74 53.4 228.24 54.4 
M 262.25 92.34 267.78 103.4 
M 261.45 80.72 272.79 103.4 
M 260.94 69.68 277.8 103.39 
M 259.89 57.54 282.82 103.4 
M 259.41 46.56 287.89 103.52 
M 262.33 42.37 292.96 103.63 
M 268.17 44.03 293.58 94.85 
M 273.39 44.44 289.82 77.32 
M 277.9 43.45 289.36 66.37 
M 282.25 42.12 290.72 59.05 
M 290.06 47.72 291.56 50.7 
"/></svg>