<svg xmlns="http://www.w3.org/2000/svg" width="520" height="320"><rect x="0" y="0" width="520" height="320" fill="floralwhite"/><rect x="10" y="10" width="500" height="300" stroke="black" stroke-width="1" fill="none"/><path stroke="black" stroke-width="1" fill="none" stroke-linecap="round" stroke-linejoin="round" d="
M 115.61 111.46 118.36 110.78 126.46 109.36 151 106.99 167.29 104.8 183.64 103.09 191.85 102.67 208.28 102.29 216.5 102.23 232.93 102.42 249.37 102.2 257.59 102.22 265.8 102.55 274 103.1 290.37 104.57 306.71 106.33 314.83 107.6 347.17 113.51 355.25 115.01 363.28 116.75 371.21 118.92 378.89 121.85 385.9 126.13 394.19 133.8 
M 394.19 172.11 386.89 177.96 379.78 182.08 371.94 184.55 363.92 186.34 355.83 187.81 339.57 190.2 331.47 191.56 315.32 194.63 307.21 196 299.05 196.89 290.85 197.49 282.64 197.88 266.21 198.29 257.99 198.4 241.55 198.28 233.34 198.49 208.73 200.02 200.51 200.28 192.3 200.26 184.09 199.75 175.93 198.77 167.82 197.48 159.75 195.92 135.73 190.32 127.69 188.64 119.56 187.46 111.38 186.63 104.45 186.16 
M 187.79 143.39 194.35 144.53 196.24 144.59 
M 199.98 144.65 205.39 144.5 207.02 144.26 
M 213.33 143.07 218.07 142.17 220.86 141.21 223.25 139.84 225.91 138.75 229.14 138.23 236.23 137.82 237.87 137.59 
M 251.23 136.17 257.14 136.66 258.93 136.66 
M 262.34 136.53 267.22 136.13 270.75 136.16 281.47 136.46 283.65 136.88 
M 288.22 137.9 295.13 139.33 299.11 139.57 306.76 139.59 315.59 140.61 319.8 140.88 335.28 140.53 342.45 139.81 347.94 139.44 
M 351.57 139.22 367.07 138.16 370.69 138.37 381.53 139.68 383.27 140.02 
M 386.94 140.99 392.65 142.97 
M 118.52 115.02 118.03 115.58 
M 120.49 180.96 122.43 184.73 
M 124.38 117.1 121.97 119.67 
M 119.63 122.32 119.38 122.64 
M 121.8 168.54 123.53 172.27 
M 125.31 176.03 129.11 183.76 
M 134.58 108.85 133.11 112.28 
M 125.01 124.01 122.89 126.89 
M 133.17 176.42 134.91 180.24 
M 137.95 187.39 139.53 191.21 
M 138.31 113.79 137.62 115.55 136.76 117.16 
M 134.91 120.24 130.91 126.16 
M 129.06 129.3 127.24 132.48 
M 136.64 165 138.73 170.42 
M 146.07 188.55 147.81 193.17 
M 146.1 112.7 144.6 118.53 143.92 120.3 
M 138.34 129.52 137.41 131.07 134.87 136.79 
M 147.24 171.8 150.82 179.86 
M 153.38 186.84 156.12 195.1 
M 154.13 111.86 153.44 113.6 152.5 117.52 151.01 125.8 150.39 127.62 
M 148.92 131.07 147.19 134.26 
M 145.38 137.39 143.25 141.04 
M 153.6 168.77 158.35 179.22 160.22 184.48 
M 162.38 191.09 164.46 196.83 
M 161.54 115.35 160.47 116.71 159.15 120.25 158.02 126.44 
M 155.62 133.82 152.26 142.42 
M 166.83 181.49 167.97 184.91 
M 168.98 188.18 171.24 194.91 
M 176.3 111.81 175.32 113.24 174.13 114.47 
M 165.08 124.84 164.37 126.58 162.71 132.25 
M 159.83 139.47 159.08 141.47 
M 168.23 165.98 169.92 170.01 
M 171.73 174.16 174.98 182.03 
M 177.36 188.97 178.61 192.49 
M 184.16 111.26 181.84 116.21 179.87 119.11 177.48 121.59 176.13 122.68 
M 173.54 124.97 172.29 126.16 170.43 129.19 169.26 132.91 168.4 136.96 167 141.51 
M 174.04 159.2 175.53 163.04 
M 177.01 166.87 178.56 170.76 
M 184.81 186.25 187.01 191.87 189.95 200.11 
M 192.18 110.93 191.33 112.52 189.17 117.67 
M 187.7 121.09 186.89 122.72 185.78 124.06 
M 183.45 126.62 182.24 127.86 180.13 130.67 178.38 133.82 177.04 137.39 176.32 139.78 
M 187.08 171.2 190.29 179.02 
M 191.84 182.87 197.4 197.45 
M 196.94 117.11 195.56 120.64 
M 194.36 124.36 193.78 126.24 192.27 129.64 186.46 138.63 184.23 142.73 
M 189.47 153.78 191.27 157.91 
M 194.15 165.43 196.76 172.65 
M 198.7 179.17 200.1 182.84 
M 201.56 186.57 206.78 200.08 
M 199.88 131.45 195.22 142.35 
M 202.67 165.61 204.46 170.84 205.87 175.68 
M 207.04 179.13 208.42 182.78 
M 209.82 186.44 214.16 197.49 
M 215.25 113.89 213.5 117.08 
M 211.64 120.17 210.71 121.72 209.14 125.11 206.28 132.19 205.72 134.12 
M 204.68 138.05 204.19 140.06 202.7 144.64 
M 208.12 160.34 210.67 166.32 212.3 171.38 
M 213.32 174.68 218.4 188.82 
M 219.84 192.5 221.48 196.36 
M 223.64 113.9 218.21 123.4 
M 216.52 126.71 213.91 131.59 212.4 135.09 210.27 143.69 
M 218.88 169.47 220.14 173.01 
M 221.39 176.55 222.56 180 
M 223.76 183.47 227.4 192.74 229.19 197.85 
M 230.15 116.86 226.77 120.98 223.94 125.67 
M 222.21 128.97 220.61 132.39 
M 219.24 136.06 218.02 140.12 
M 224.53 164.36 227.52 175.43 229.77 181.12 
M 231.61 185.22 234.26 191.26 235.5 194.73 236.58 198.41 
M 244.49 107.53 242.97 110.97 
M 241.35 114.32 240.5 115.97 239.39 117.36 
M 236.96 119.93 233.08 123.59 231.91 124.94 
M 227.6 130.73 225.7 133.88 
M 232.73 168.84 234.14 173.75 235.76 177.68 240.26 186.78 241.08 188.73 
M 242.45 192.35 244.4 198.3 
M 250.37 109.84 247.85 114.79 245.92 117.87 238.1 127.72 
M 233.63 133.4 232.5 134.81 230.35 138.13 
M 236.98 157.69 238.93 163.2 241.29 171.47 
M 244.3 179.16 247.79 187.25 
M 249.52 191.25 252.49 198.36 
M 257.52 108.82 255.77 112.05 
M 253.84 115.13 251.74 118.06 
M 245.47 127 240.16 134.45 239.24 136.01 
M 245.25 157.57 246.59 161.3 
M 248.5 168 249.33 171.21 
M 250.53 174.77 255.72 186.94 
M 257.42 190.9 260.04 197.94 
M 260.53 113.96 257.6 118.6 251.98 128.27 249.65 131.06 247.14 133.69 246.23 134.91 
M 254.3 160.71 257.27 170.88 
M 258.54 174.53 260.18 178.52 
M 262.02 182.69 268.65 198.24 
M 268.62 109.4 265.94 114.25 259.44 128.14 257.55 131.39 256.49 132.91 
M 254.67 135.41 253.92 136.38 
M 260.14 153.46 264.52 166.33 269.14 178.11 272.98 188.89 276.51 198.04 
M 277.17 105.5 276.5 107.32 275.68 109 
M 273.94 112.27 271.26 117.17 268.9 122.45 
M 267.33 126.01 262.21 136.55 
M 267.02 149.81 269.93 157.58 
M 271.58 161.67 277.44 175.93 278.69 179.53 280.09 184.41 
M 280.9 187.5 282.39 192.35 284.42 197.8 
M 285.23 106.19 283.22 111.69 282.4 113.39 
M 280.57 116.62 278.57 119.69 
M 276.72 122.94 274.23 128.15 271.1 133.81 
M 273.43 145.8 276.16 153.37 
M 277.81 157.44 283.5 170.33 
M 285.14 174.33 287.1 179.76 290.47 191.92 291.84 196.26 
M 294.36 104.97 293.36 106.88 
M 290.05 113.73 284.71 123.78 
M 283 127.23 277.86 136.31 
M 288.61 162.47 291.5 168.82 292.89 172.47 298.59 189.88 
M 299.89 193.28 300.63 195.1 
M 302.01 108.28 297.77 116.91 294.01 123.53 292.37 127.1 291.05 131.01 289.43 134.63 287.15 137.63 
M 294.25 154.98 296.3 159.26 
M 298 163.17 298.72 164.99 301.78 174.42 306.03 184.68 309.21 192.92 
M 308.39 112.68 306.27 118.38 303.78 123.75 
M 302.16 127.39 301.36 129.24 298.59 137.06 298 138.3 
M 305.45 159.34 307.84 165.83 
M 309.03 169.02 311.46 175.33 
M 312.76 178.52 316 186.33 318.1 190.54 
M 319.15 108.39 317.02 111.5 316.24 113.34 
M 314.91 117.25 313.15 123.39 310.21 131.06 308.56 134.74 306.07 139.55 
M 315.46 159.94 320.47 173.33 325.61 184.57 
M 327.11 187.54 327.76 188.81 
M 325.65 115.45 324.67 117.09 322.94 120.64 321.43 124.41 320.1 128.4 317.84 136.84 316.06 140.66 
M 320.96 150.3 323.99 157.03 
M 326.77 163.39 332.65 177.8 
M 333.91 180.69 336.73 186.47 
M 336.63 113.69 333.5 118.42 331.86 122.03 328.97 129.74 325.16 140.75 
M 332.99 156.44 335.75 161.72 340.4 172.87 344.39 181.59 345.34 184.03 
M 343.35 118.29 340.26 123.04 338.68 126.72 334 140.6 
M 341.75 155.66 344.65 160.92 346.12 163.94 350.11 173.29 
M 351.08 175.78 352.77 180.6 
M 353.89 116.7 351.6 122.16 347.69 128.67 345.85 132.08 342.22 139.83 
M 350.06 154.49 352.05 157.96 
M 353.79 161.18 355.84 165.43 357.98 170.53 360.66 177.8 
M 361.69 118.27 358.54 125.37 
M 356.86 128.86 355.96 130.54 350.54 139.28 
M 354.76 147.07 359.12 154.96 362.17 160.82 364.78 166.29 368.29 174.95 
M 369.27 120.8 368.12 122.19 366.07 125.22 362.82 132.2 360.9 135.44 358.62 138.73 
M 365.42 151.5 369.51 158.96 373.38 167.04 376.19 172.37 
M 378.93 122.58 377.67 123.82 368.91 135.25 366.27 138.17 
M 370.41 145.34 373.19 149.95 383.24 168.41 
M 292.46 193.72 293.64 193.67 294.43 193.95 294.64 194.37 294.46 195.18 
M 286.53 148.16 286.49 147.25 286.94 144.96 286.43 143.2 285.51 141.33 
M 266.96 166.22 265.27 166.11 265.04 165.74 265.43 165.31 
M 339.43 135.55 339.11 136.05 338.67 136.24 337.04 136.01 336.06 135.01 335.42 133.41 
M 189.76 150.77 190.55 149.54 190.69 148.37 190.62 147.61 189.71 145.35 188.9 142.44 188.31 141.18 
M 209.84 124.48 208.72 123.47 208.45 123 208.56 122.3 209.02 121.32 
M 218.63 135.1 217.72 136.5 217.51 137.39 217.52 138.15 218.15 139.62 219.37 140.91 
M 202.27 159.29 202.46 158.28 203.03 157.31 204.89 155.61 
M 205.72 161.09 204.31 159.44 203.89 158.51 204.55 155.99 
M 226.48 115.99 228.42 116.46 230.62 116.48 232.97 116.95 235.25 118.3 236.66 119.61 237.31 120.87 237.34 121.82 
M 187.71 156 190.14 154.37 191.03 154.13 193.37 154.03 194.21 153.83 196.02 153.04 
M 142.88 114 143.06 112.97 142.43 111.93 140.84 110.58 139.3 110.04 
M 247.02 180.79 245.73 179.77 244.86 179.7 242.5 181.42 239.86 182.82 
M 353.51 188.16 353.44 187.24 353.6 186.58 354.27 185.23 354.73 184.72 
M 336.39 167.7 334.83 168.16 332.34 168.14 
M 186.43 132.01 185.74 131.51 185.64 130.97 185.76 130.52 
M 330.83 156.63 329.84 156.8 327.55 157.98 324.72 158.58 
M 306.87 136.97 305.69 136.9 303.08 135.86 302.5 135.34 301.91 134.39 
M 183.91 174.1 182.5 173.75 179.62 173.48 178.78 172.92 177.7 171.54 
M 286.16 165.69 285.48 165.74 285.1 165.59 
M 125.44 138.62 124.34 138.4 122.71 137.73 122.27 137.86 121.82 138.34 
M 349.77 116.52 348.52 115.59 347.63 114.44 346.87 113.9 345.59 113.95 344.87 114.16 341.81 115.87 
M 235.04 197.44 231.47 196.42 229.28 196.17 226.6 196.27 223.6 196.81 222.26 197.24 
M 132.1 142.26 131.5 140.25 130.87 139.48 129.75 138.72 128.34 138.07 125.87 137.46 
M 330.4 132.4 330.19 131.28 328.76 129.09 328.07 127.24 
M 256.9 146.06 257.39 145.99 258.77 146.44 259.29 146.28 259.91 145.79 
M 131.67 168.01 128.45 166.75 127.77 166.03 
M 314.11 194.41 313.25 194.16 309.89 194.12 304.78 193.3 
M 382.16 165.51 382.42 166.18 382.42 166.84 381.29 169.47 378.08 171.86 
M 175.78 142.71 175.26 141.08 174.79 140.37 174.44 140.12 173.46 139.95 170.87 139.91 169.46 140.06 
M 373.32 148.87 373.22 149.24 373.86 150.03 374.13 150.65 
M 146.22 115.16 146.67 114.76 147.13 113.66 147.07 112.81 146.84 112.44 145.13 110.12 144.52 109.57 141.58 107.9 
M 257.88 142.78 258.53 141.93 259.87 141.28 261.89 141.2 264.88 141.74 
M 225.77 125.56 225.15 125.43 224.47 125.51 223.45 126.35 222.77 127.66 222.29 130.05 
M 293.94 166.53 294.05 167.46 293.87 167.96 292.06 170.79 289.97 173.59 
M 323.29 168.34 323.08 166.91 322.31 165.2 321.09 163.14 320.13 162.15 
M 289.77 161.57 288.26 160.6 286.59 159.05 286.23 158.46 
M 141.02 140.53 140.56 139.71 139.94 137.95 139.83 136.73 139.96 136.32 140.67 135.7 142.06 135.35 142.98 135.36 143.88 135.84 
M 209.61 175.74 209.15 173.66 207.47 171.32 205.13 169.54 203.07 168.33 202.62 167.89 
M 182.45 103.15 184.26 98.42 188.51 85.05 188.67 82.92 189.63 80.18 190.91 77.57 191.62 74.86 192.76 71.8 196.17 66.99 196.73 65.09 198.47 63.9 200 61.97 201.36 59.58 202.69 56.63 204.7 53.4 205.52 51.23 207.09 49.73 208.52 47.96 211.32 45.29 213.78 41.71 216.28 40.16 218.04 40.02 220.1 39.31 222.75 36.69 225.71 34.65 229.44 32.78 231.05 30 231.29 35.03 231.05 36.65 231.67 39.11 231.74 41.95 231.45 44.57 231.36 47.4 231.97 56.11 232.73 58.83 235.02 64.92 235.97 69.45 237.85 72.37 240.64 77.45 242.14 79.87 243.94 82.26 245.04 84.36 245.2 85.92 246.16 88.19 247.73 90.74 250.74 93.32 251.86 96.1 256.32 99.45 258.62 102.22 
M 260.46 102.22 260.46 102.22 
M 186.96 102.92 188.29 100.69 189.71 95.43 190.59 92.91 191.12 90.16 191.88 87.52 192.59 85.51 193.8 83.23 195.22 77.51 196.17 75.07 197.78 72.19 199.46 70.17 200.62 67.43 202.38 65.63 204.74 62.39 206.91 60.08 207.69 57.12 208.91 54.31 210.9 52.48 217.21 45.31 219.48 43.97 
M 191.46 102.69 192.83 100.48 193.39 97.83 193.75 95.07 194.65 92.46 195.99 90.16 196.45 87.59 197.47 85.28 197.24 82.6 198.3 80.57 199.85 75.27 203.8 69.93 207.21 67.06 209.42 64.89 211.4 63.52 211.96 60.8 212.7 59.46 213.27 57.95 215.1 55.72 217.63 51.84 
M 195.97 102.53 197.01 100.23 197.52 97.5 199.36 92.26 200.86 87.13 201.08 84.64 201.77 81.15 203.05 78.06 205.06 75.27 207.35 72.67 208.74 70.7 
M 200.49 102.43 201.51 100.28 203.33 95.45 204.12 92.14 205.91 86.6 205.96 84.75 206.33 82.83 206.6 79.77 210.22 75.75 212.01 74.19 213.89 72.81 215.33 69.84 217.34 67.41 218.73 64.99 222.09 60.98 
M 205 102.33 206.42 100.71 207.41 98.29 208.02 95.08 208.79 92.39 208.52 89.83 208.97 87.05 210.14 84.83 210.88 81.85 212.86 79.93 214.22 77.68 216.97 74.85 220.25 69.19 222.25 67.21 223.69 65.32 225.62 63.84 228.04 61.37 
M 209.51 102.28 210.85 100.58 211.22 98.08 211.88 95.48 211.95 92.27 212.77 86.95 214.42 84.9 215.97 82.43 
M 214.03 102.24 214.79 100.69 215.07 98.3 215.03 95.15 215.86 92.42 218.54 88.19 219.74 85.21 221.73 81.96 223.41 79.75 224.8 77.41 229.05 74.91 
M 218.54 102.26 219.24 100.71 219.65 98.53 221.83 93.77 223.86 91.64 225.31 89.11 225.79 85.46 227.84 82.27 230.09 80.22 
M 223.05 102.32 224.14 100.73 224.49 98.3 225.78 95.82 228.37 91.85 228.91 89.2 230.47 86.29 
M 227.57 102.38 229.09 100.93 230.19 98.38 230.23 95.61 230.5 93.17 232.43 89.09 234.68 86.74 
M 232.08 102.42 234.2 101.16 235.12 98.78 235.77 93.73 236.66 91.83 239.62 89.4 
M 236.59 102.46 238.33 101.27 238.82 99.51 
M 241.11 102.4 242.07 101.79 242.49 99.68 243.93 97.06 247.26 94.64 
M 245.62 102.29 247.27 101.66 
M 250.13 102.2 253.37 102.18 
M 254.65 102.21 254.65 102.21 
M 121.2 142.54 182.04 140.78 182.08 141.68 120.64 145.63 
M 120.33 146.58 171.58 149.45 171.55 150.36 119.49 149.62 
M 119.31 150.44 160.8 156.4 160.7 157.3 118.53 153.45 
M 118.33 154.14 149.93 161.61 149.75 162.49 117.31 157.1 
M 117.11 157.58 139.16 165.09 138.91 165.95 115.88 160.51 
M 116.16 160.86 128.71 166.87 128.39 167.71 115.01 163.9 
M 117.76 164.69 118.78 165.7 118.39 166.52 114.88 166.15 
M 175.44 142.11 172.65 142.74 170.18 143.81 169.13 144.59 168.2 145.54 167.39 146.65 165.99 149.14 
M 165.95 150.28 163.23 150.49 160.78 151.17 159.71 151.77 158.74 152.57 157.87 153.53 156.3 155.76 
M 156.17 156.89 153.59 156.68 151.21 156.98 150.14 157.42 149.15 158.05 148.23 158.86 146.52 160.81 
M 146.3 161.92 143.91 161.32 141.66 161.25 140.61 161.52 139.61 161.99 138.66 162.65 136.85 164.3 
M 136.53 165.39 134.4 164.43 132.33 164.01 131.32 164.11 130.33 164.42 129.36 164.92 127.45 166.27 
M 127.05 167.33 125.41 165.78 124.55 165.18 123.65 164.76 122.7 164.55 120.67 164.74 118.53 165.45 
M 174.02 142.39 171.36 143.2 170.18 143.81 169.13 144.59 168.2 145.54 166.67 147.86 
M 164.57 150.35 161.96 150.74 160.78 151.17 159.71 151.77 158.74 152.57 157.07 154.61 
M 154.86 156.75 152.36 156.74 151.21 156.98 150.14 157.42 149.15 158.05 147.36 159.8 
M 149.01 193.49 151.67 196.67 153.88 198.96 158.65 206.22 160.19 209.9 162.21 212.78 166.48 216.51 167.58 218.87 171.24 223.36 173.03 226.48 173.31 228.86 175.38 230.96 177.17 232.51 177.67 241.93 176.99 244.66 176.02 247.11 174.76 249.26 173.15 251.07 172.23 253.56 169.93 255.06 167.91 256.84 166.2 258.94 164.83 261.36 162.86 263.23 161.53 265.68 160.65 268.58 158.57 271.64 149.23 280 148.66 275.16 148.69 272.34 148.31 269.46 150.01 265.66 150.97 261.59 148.28 258.17 147.18 255.75 147.08 253.58 147.78 251.45 148.05 248.18 147.2 244.85 147.48 243.05 146.49 240.05 146.2 236.51 144.56 234.45 143.91 231.18 143.11 228.73 142.94 222.21 143.52 220.16 143.17 217.47 142.05 211.94 141.21 209.4 140.67 206.53 140.11 200.86 139.52 197.58 137.87 190.77 
M 147.26 193.06 149.56 196.36 151.41 198.58 154.44 203.35 156.47 205.87 157.75 208.39 159.23 211.84 160.98 214.97 
M 145.51 192.64 147.58 196.05 152.53 203.54 153.19 206.27 155.17 208.2 158.17 218.2 159.02 220.48 160.7 222.98 165.16 228.85 166.89 232.48 168.36 234.78 169.46 238.11 
M 143.75 192.21 145.36 195.64 147.24 198.07 149.89 203.79 150.44 207.09 153.58 215.74 154.45 218.73 159.39 226.27 160.88 231.55 161.11 234.78 162.38 237.45 163.72 238.98 164.87 241.33 165.58 243.25 165.58 245.4 167.55 248.35 
M 142 191.78 143.45 195.2 146.34 200.54 147.67 207.42 148.02 210.25 148.96 213.23 150.11 215.77 150.75 218.94 151.82 221.98 153.72 224.1 154.61 226.19 156.41 231.63 156.52 235.35 156.3 237.7 157.76 240.45 158.74 241.85 159.14 243 159.25 245.67 160.86 249.21 162.36 251.69 163.27 253.56 163.59 256.95 
M 140.25 191.35 142.57 197.87 143.3 200.67 143.94 203.52 144.22 207.11 145.81 212.81 146.86 214.95 146.94 218.07 147.78 220.66 149.05 223.23 149.43 226.1 150.09 228.73 151.16 231.21 151.99 234.44 153.03 239.77 153.36 242.99 154.21 245.34 154.68 247.33 154.75 248.84 154.58 251.87 155.04 255.49 156.24 258.95 157.85 262 159.53 264.64 
M 349.61 188.78 355.44 196.95 359.23 200.04 354.52 200.65 351.79 201.56 349.88 203.31 348.38 205.3 346.24 206.56 343.3 205.93 340.25 205.66 336.95 205.61 335.1 207.38 330.09 209.25 327.84 210.64 322.09 212.44 320.68 214.84 318.53 216.5 313.65 218.99 309.75 226.53 308.18 228.77 306.14 230.53 303.41 231.61 301.67 233.59 300.55 236.44 296.05 241.12 295.11 238.29 293.45 235.9 292.9 234.48 290.2 231.25 288.14 227.82 284.53 222.92 283.1 220.54 281.6 217.85 280.65 215.18 279.57 212.9 277.99 210.85 275.19 204.65 271.6 198.18 
M 345.14 189.41 348.81 194.38 
M 340.67 190.04 344.67 195.34 
M 336.21 190.74 339.72 195.54 342 199.09 
M 331.76 191.5 335.5 196.56 337.46 199.64 
M 327.32 192.27 331.33 195.78 334.36 202.98 
M 322.89 193.15 326.85 196.43 329.15 198.67 330.64 201.69 
M 318.46 194.03 323.93 200.14 
M 314.02 194.85 317.72 198.21 319.97 200.89 
M 309.57 195.6 318.27 208.46 319.69 211.13 321.43 213.41 
M 305.12 196.35 307.55 200.87 309.78 203.99 313.18 209.64 315.49 212.35 
M 300.63 196.75 308.17 209.04 
M 296.13 197.15 298.94 200.38 301.91 207.54 302.78 210.22 
M 291.63 197.46 293.96 201.71 295.87 204.64 297.17 207.89 298.72 211.11 303.33 216.45 305 218.67 305.91 221.08 
M 287.12 197.67 289.45 201.93 291.61 204.27 294.29 210.38 296.22 213.68 298.46 216.07 299.95 217.99 301.44 220.79 
M 282.61 197.88 285.16 201.68 288.55 207.2 289.66 210.17 291.78 212.75 293.38 215.29 294.58 218.12 296.31 220.63 298.51 223.4 299.48 226.12 299.61 228.76 
M 278.1 198 280.56 201.87 283.79 207.68 285.61 210.41 286.65 212.56 288.75 218.12 290.98 220.37 292.84 223.39 
M 394.19 133.8 397.39 132.68 399.93 131.48 404.92 129.6 407.49 128.35 409.92 126.95 412.42 125.28 415.08 122.87 417.08 121.64 418.57 119.73 426.25 115.88 431.41 113.81 433.88 110.84 435.89 109.07 442.24 106.66 444.9 105.9 447.37 105.53 449.58 103.61 451.87 100.87 453.89 97.87 455.18 97.09 460.69 97.47 463.07 96.22 477.14 96.96 484.37 104.84 485.24 107.17 487.11 116.52 486.75 119.26 484.83 121.13 482.56 122.63 481.67 125.52 478.58 129.99 473.83 132.87 471.85 134.72 468.88 139.4 467.06 141.37 465.49 143.46 464.81 146.44 462.38 151.31 462.85 153.91 463.85 157.05 464.18 159.51 465.13 162.34 468.49 168.77 469.07 170.88 470.55 172.93 479.7 183.61 481.01 186.1 481.43 187.92 484.27 193.57 484.9 195.6 483.96 197.43 482.43 205.52 480.77 207.64 478.33 209.03 475.56 210.09 464.33 220.03 460.95 218.53 458.54 217.12 456.27 215.79 453.81 213.88 451.84 213.21 448.45 210.1 445.93 208.42 443.67 207.26 440.68 205.41 437.75 203.32 435.23 201.76 433.75 199.73 431.58 198.26 428.93 196.97 423.75 193.81 420.83 191.82 418.7 189.69 416.7 188.01 413.87 186.42 410.17 184.02 407.96 182.13 405.19 180.19 402.72 177.81 397.35 174.04 394.19 172.11 
M 400.15 134.47 407.7 131.98 410.38 130.94 412.82 129.26 416.2 127.72 419.09 125.87 420.48 124.4 424.02 122.66 429.85 120.15 432.43 119.66 434.42 117.86 436.4 116.46 438.78 115.76 441.34 114.52 444.29 112.81 446.8 111.67 448.65 111.46 451.95 109.16 
M 400.55 137.92 408.83 135.52 411.13 134.19 413.39 133.24 417.03 132.83 419.6 131.86 424.63 127.71 427.93 126.76 431.8 125.05 437.13 124.47 438.85 123.26 441.46 122.48 444.9 122.12 447.52 122.14 449.47 120.95 452.52 119.87 455.09 118.73 457.54 117.28 458.82 115.45 461.07 114.91 470.34 110.88 473.69 110.29 476.03 109.68 478.28 108.83 480.68 108.54 
M 403.34 140.95 405.98 140.02 408.69 139.55 414.44 138.06 417.59 137.48 420.48 136.73 424.7 134.75 427.04 133.38 433.12 132.51 438.99 130.61 441.27 130.47 446.12 129.58 449.04 129.27 453.97 129.02 456.63 127.53 459.35 125.03 465.11 124.09 466.61 123.55 468.15 121.57 478.03 119.62 481.42 119.13 
M 402.92 145.13 405.71 144.31 408.47 143.83 411.84 144.15 415.3 143.78 418.59 142.9 420.99 141.6 422.38 140.52 424.6 140.57 427.75 139.92 435.01 140.42 437.42 140.24 440.44 139.39 443.99 136.49 446.99 136.02 450.71 136.6 455.97 137.06 458.24 135.62 466.07 131.54 468.01 131.3 
M 397.68 148.72 403.22 149.01 408.89 148.16 412.32 148.45 416.14 148.29 421.83 147.58 425.3 146.23 428.16 145.95 432.3 146.66 439.55 145.34 445.34 144.76 449.19 143.72 455.97 145.09 459.1 144.97 461.55 143.93 462.73 142.44 
M 394.19 151.07 397.4 152.06 403.33 152.73 406.18 152.52 409.08 152.58 412.52 152.98 415.41 152.95 418.24 152.57 420.99 152.75 425.84 152.06 428.66 152.17 431.8 153.33 435.45 152.68 438.23 153.01 441.82 152.24 444.79 152.61 
M 403.55 156.17 411.98 157.28 414.71 157.83 424.91 157.74 428.24 158.14 432.23 158.17 435.53 159.35 438.43 160.13 447.6 159.58 450.56 160.24 453.56 160.59 455.45 161.04 459.09 160.94 
M 404.01 159.25 415.37 161.55 418.27 162.46 421.37 162.74 423.02 162.52 425.06 163.1 427.97 163.39 431.44 164.79 433.43 166.34 436.41 166.67 
M 401.13 161.93 406.28 163.72 409.07 164.1 411.61 164.78 414.74 166.12 417.53 166.78 422.79 168.81 424.35 168.98 426.97 169.71 432.58 172.7 434.86 173.74 438.16 173.1 441.49 173.44 444.32 174.07 449.23 175.73 452.28 176.47 455.13 177.67 457.01 177.87 463.63 179.3 
M 394.19 162.58 397.87 164.06 405.9 167.73 408.86 168.49 411.91 169.82 414.82 170.88 420.14 172.28 421.69 173.25 423.79 174.95 426.14 175.84 432.34 177.48 434.47 178.65 437.92 179.79 443.88 180.58 446.27 181.29 448.77 183.2 451.56 185.92 458.47 187.42 466.15 187.23 467.59 188.29 469.98 189.44 473.39 189.25 475.64 190.11 
M 397.61 167.22 400.48 168.49 409.33 173.1 411.78 174.11 418.37 178.04 421.24 178.87 426.85 182.11 429.64 183.5 431.7 184.82 434.89 184.17 437.96 185.15 440.3 186.55 442.68 187.34 444.15 188.12 447 188.96 448.6 191.74 450.89 194.26 456.11 196.19 
M 397.6 170.09 400.41 171.36 408.59 177.01 411 178.4 417.17 183.67 420 184.78 425.76 188.29 428.13 189.94 429.95 190.59 432.1 192.14 439.39 196.59 442.29 197.43 444.45 199.07 448.39 201.43 451.04 202.47 454.05 203.14 455.72 205 
M 44.76 142.32 45.15 141.49 46.47 139.58 48.25 137.64 50.62 136.06 62.57 130.23 71.92 125.15 77.29 122.75 94.94 116.91 105.45 113.95 115.56 111.35 118.08 115.67 118.75 119.79 119.67 123.96 120.8 128.16 121.49 132.29 121.56 136.32 121.06 144.31 119.83 148.15 118.95 152.05 117.81 155.91 114.6 163.49 113.87 167.41 111.71 175.14 110.15 178.94 107.92 182.63 104.45 186.06 95.43 185.35 88.73 184.37 82.85 182.94 77.55 181.24 72.63 179.22 67.99 176.84 63.81 174.3 60.1 171.45 56.98 168.24 
M 102.27 135.44 101.78 138.83 98.73 144.95 96.96 147.7 93.15 152.67 92.11 157.16 91.89 161.82 91.48 164.49 90.23 167.41 79.93 167.3 75.74 166.96 71.65 166.32 67.62 165.23 63.7 163.56 60.14 161.42 
M 55.51 167.46 51.09 161.05 41.72 145.65 41.82 143.36 43.68 142.04 45.95 142.62 47.25 144.53 50.75 152.96 53.01 159.22 57.04 168.21 
M 56.59 168.9 36.36 165.08 34.23 164.45 32.88 162.48 33.45 160.26 35.57 159.23 37.73 159.93 46.19 163.52 50.15 165.39 56.76 167.99 
M 68.62 144.06 67.48 139.72 67.81 135.26 69.56 131.14 72.57 127.81 76.48 125.64 80.89 124.86 85.32 125.55 89.28 127.65 92.34 130.91 94.18 135 94.6 139.46 93.54 143.81 91.13 147.58 87.62 150.37 83.4 151.86 78.92 151.91 74.67 150.5 71.11 147.78 68.62 144.06 
M 68.46 143.67 67.91 142.08 67.56 140.43 67.43 138.75 67.5 137.06 67.77 135.4 68.25 133.78 68.93 132.24 69.79 130.79 70.83 129.46 72.02 128.27 73.35 127.23 74.8 126.37 76.35 125.69 77.96 125.21 79.63 124.93 81.31 124.86 82.99 125 84.64 125.35 86.24 125.9 
M 70.13 142.98 69.65 141.6 69.23 138.71 69.29 137.25 69.83 134.81 
M 72.73 130.11 74.37 128.72 75.63 127.97 78.37 126.97 81.27 126.67 84.16 127.09 85.54 127.56 
M 71.79 142.29 71.39 141.12 71.04 138.67 71.09 137.44 71.56 135.3 
M 74.19 131.2 75.39 130.21 76.45 129.58 78.78 128.73 80 128.52 82.47 128.58 84.85 129.23 
M 73.46 141.6 73.13 140.64 72.84 138.64 72.88 137.62 73.28 135.83 
M 75.76 132.21 77.28 131.18 78.21 130.78 80.18 130.32 82.21 130.36 84.16 130.9 
M 76.07 140.7 75.61 138.97 75.74 137.18 75.93 136.74 
M 78.03 133.99 79.21 133.34 80.97 133.02 82.74 133.3 84.33 134.14 85.56 135.44 86.29 137.08 86.46 138.86 86.03 140.6 85.07 142.11 83.67 143.23 81.98 143.83 80.19 143.84 78.49 143.28 77.06 142.19 76.07 140.7 
M 78.7 133.62 78.36 134.29 
M 76.99 137.04 75.75 139.51 
M 80.29 133.15 79.22 135.29 
M 78.26 137.21 76.32 141.08 
M 81.65 133.13 80.04 136.34 
M 79.85 136.73 77.1 142.22 
M 82.88 133.37 78.08 142.97 
M 83.95 133.94 79.17 143.51 
M 84.9 134.75 80.36 143.84 
M 85.72 135.82 81.72 143.83 
M 86.32 137.34 83.31 143.35 
M 47.92 146.26 49.74 148.08 
M 46.56 139.49 50.33 143.26 
M 49.38 136.89 54.08 141.59 
M 52.9 135 56.92 139.02 
M 56.54 133.22 59.98 136.66 
M 60.16 131.42 64.81 136.07 
M 63.73 129.58 68.29 134.13 
M 67.21 127.64 70.11 130.54 
M 70.76 125.77 72.72 127.73 
M 74.43 124.03 76.2 125.8 
M 78.24 122.42 80.71 124.89 
M 82.26 121.02 87.45 126.21 
M 86.33 119.68 91.38 124.73 
M 90.42 118.35 93.78 121.71 
M 94.52 117.04 98.02 120.54 
M 98.73 115.83 103.48 120.58 
M 102.96 114.64 107.19 118.87 
M 107.23 113.49 111.85 118.12 
M 111.57 112.42 116.97 117.82 
M 101.88 171.4 101.78 169.87 101.54 169.1 100.49 167.41 100.23 166.23 99.62 166.04 
M 83.84 183.18 85.58 182.43 86.18 182.39 86.84 182.65 
M 69.89 161.39 69.76 163.32 69.47 164.35 68.96 165.07 68.34 165.23 
M 82.62 181.83 83.82 181.52 84.25 181.56 85.68 182 86.69 182.51 
M 49.67 149.12 49.37 149.62 
M 74.13 164.79 73.25 166.79 72.01 168.63 71.28 169.34 
M 58.09 142.22 55.78 139.81 55.1 139.42 52.8 138.61 
M 60.14 151.78 59.72 150.84 58.96 150.81 58.33 151.23 57.82 152.35 
M 94.35 154.95 95.72 154.38 96.45 154.53 96.99 155.05 97.3 155.79 97.23 156.25 96.62 157.03 95.82 157.33 
M 104.99 146.47 108.25 146.81 110.63 147.37 111.57 147.26 
M 81.6 161.72 80.71 161.98 79.05 162.87 78.64 163.25 
M 106.03 166.68 105.07 166.69 103.13 165.67 100.45 165.03 99.89 165.09 98.54 165.65 97.32 165.6 
M 101.78 116.56 100.82 115.24 
M 74.4 157.44 74.97 158.18 75.24 158.9 75.18 159.64 74.38 161.53 72.99 163.47 72.71 164.17 72.64 165.67 72.11 166.75 
M 48.63 143.48 47.87 143.89 47.23 144.5 
M 93.73 127.85 93.67 128.81 93.09 130.96 93.07 131.65 93.29 132.48 
M 55.1 164.05 55.39 163.25 57.63 160.69 58.57 159.2 59.26 158.75 61.8 157.69 62.67 156.63 
M 64.79 166.03 63.33 163.97 63.21 163.6 63.39 163.17 63.9 162.67 64.8 162.26 65.84 162.07 
M 101.64 122.11 98.69 120.46 97.77 119.74 97.15 118.95 96.08 116.58 
M 115.9 142.87 115.09 144.07 114.61 145.2 114.69 145.82 115.54 147.88 
M 90.5 182.24 90.82 183.05 90.62 184.65 
M 63.93 130.58 64.38 129.6 65 128.87 
M 63.99 132.71 63.56 132.23 63.67 131.31 64.2 129.88 64.9 128.93 
M 81.86 155.56 77.81 155.58 77.2 155.46 76.84 155.18 
M 107.75 139.61 105.75 139.5 104.9 139.78 104.5 140.24 104.48 140.66 105.27 141.59 
M 89.37 150.83 89.5 148.88 
M 113.56 135.49 114.14 136.81 117.46 139.8 118.45 140.98 
M 62.3 160.77 66.23 159.67 66.7 159.73 67.41 160.13 
M 113.95 136.34 114.39 136.94 117.7 139.71 118.63 140.87 118.9 141.48 
M 104.31 181.04 105.94 179.08 106.16 178.39 106.16 177.42 
M 78.16 172.53 78.72 172.11 79.6 170.71 80.25 168.89 80.38 166.6 79.86 165.7 79.67 164.94 
M 101.59 166.8 101.34 165.99 101.09 165.71 100.39 165.42 98.7 165.87 96.86 165.58 
M 72.12 169.94 71.69 170.12 71.71 170.58 
M 109.26 147.72 110.49 148.24 111.42 148.27 113.5 146.46 
M 67.28 131.97 66.63 132.88 
M 57.24 154.37 57.7 154.62 58.13 154.55 58.43 154.2 58.31 153.83 
M 94.96 139.4 95.92 141.14 96.17 142.92 
M 77.04 173.75 78.23 173.57 78.73 173.34 79.64 172.37 80.58 168.65 80.66 167.81 80.65 166.96 79.87 165.54 
M 85.97 174.74 87 174.38 87.34 174.76 87.18 175.03 86.98 175.02 
M 107.77 181.09 106.63 181.85 106.33 182.39 106.31 183.09 
M 94.27 135.88 94.46 135.22 
M 96.18 174.58 96.79 174.33 97.45 173.73 98.35 172.1 
M 71.74 151.73 76.15 152.6 76.75 152.6 
M 72.78 164.77 72.57 166.13 71.73 167.48 70.89 168.46 70.46 169.45 
M 48.62 139.19 45.95 140.33 
M 110.73 150.51 111.88 149.06 112.3 147.95 112.88 147.05 113.66 146.46 
M 69.81 162.05 69.67 163.75 69.36 164.59 68.82 165.15 68.24 165.22 
M 87.24 169.52 87.23 170.18 87.8 172.18 88 173.54 87.78 174.47 87.32 175.05 86.99 175.11 
M 99.96 157.56 99.59 158.57 98.96 159.43 96.63 161.63 94.73 165.26 94.03 166.03 
M 100.43 123.75 96.97 122.85 96.17 122.48 95.6 120.41 95.5 118.71 
M 91.05 123.95 93 124.9 93.78 125.6 94.13 126.45 94.14 127.98 93.27 130.25 93.1 131.75 
M 108.13 160.47 106.98 157.99 106.93 157.41 107.29 153.01 107.81 151.19 108.46 149.95 
M 106.05 133.37 104.32 133.74 103.23 133.59 99.45 132.86 97.05 132.62 95.72 132.29 94.79 131.77 
M 81.15 172.84 81.59 169.87 81.76 167.92 81.66 167.01 81.27 166.36 79.44 164.48 
M 111.02 153.53 111.23 150.89 112.55 147.92 
M 56.99 168.24 57.46 169.11 
M 52.47 163.14 52.34 163.6 52.67 163.41 
M 48.76 157.13 48.22 157.62 47.64 158.88 48.47 158.09 49.21 157.89 
M 45.21 151.37 43.87 152.39 42.95 154.17 44.13 152.86 45.79 152.28 
M 41.72 145.62 39.53 147.16 38.25 149.46 39.79 147.64 42.29 146.64 
M 56.72 168.22 57.9 168.57 
M 49.73 165.2 50.3 164.43 51.13 163.91 50.82 164.58 50.87 165.64 
M 43.04 162.17 43.82 160.62 45.24 159.5 44.34 160.77 44.12 162.65 
M 36.21 159.44 37.35 156.81 39.34 155.1 37.87 156.97 37.37 159.81 
M 41.99 166.1 46.36 168.84 49.76 170.74 53.22 172.42 56.77 173.81 60.44 174.96 67.99 176.84 
M 118.54 118.5 121.56 121.52 
M 118.09 110.83 124.07 116.81 
M 124.24 109.75 131.85 117.37 
M 130.64 108.93 139.58 117.88 
M 137.21 108.28 147.62 118.69 
M 143.85 107.7 152.97 116.82 
M 150.44 107.06 156.9 113.53 
M 156.8 106.21 162.23 111.63 
M 163.17 105.35 169.23 111.41 
M 169.53 104.49 177.09 112.05 
M 176.05 103.79 184.59 112.33 
M 182.62 103.14 190.21 110.73 
M 189.5 102.79 196.42 109.72 
M 196.45 102.52 203.25 109.33 
M 203.5 102.36 209.13 107.98 
M 210.64 102.27 219.97 111.6 
M 217.84 102.25 228 112.41 
M 225.16 102.35 235.51 112.69 
M 232.46 102.42 242.16 112.12 
M 239.69 102.43 245.89 108.63 
M 246.74 102.26 252.37 107.89 
M 253.91 102.21 264.01 112.31 
M 261.19 102.27 270.02 111.1 
M 268.88 102.74 276.02 109.87 
M 276.7 103.33 282.75 109.38 
M 284.61 104.02 294.79 114.2 
M 292.59 104.78 300.73 112.92 
M 300.64 105.61 308.21 113.18 
M 308.93 106.68 318.25 116 
M 317.54 108.07 326.42 116.95 
M 326.44 109.74 333.13 116.43 
M 335.35 111.43 342.63 118.71 
M 344.13 112.99 349.75 118.6 
M 352.93 114.57 361.32 122.96 
M 361.98 116.4 371.98 126.39 
M 371.92 119.11 380.21 127.41 
M 389.35 129.32 391.78 131.75 
M 109.58 179.88 110.47 181.66 
M 111.11 176.62 112.5 179.41 
M 113.31 181.02 114.12 182.64 
M 112.33 172.75 115.31 178.7 
M 117.73 183.55 119.7 187.48 
M 113.48 168.72 114.08 169.92 
M 114.89 171.54 116.5 174.77 
M 118.92 179.61 121.35 184.46 
M 122.15 186.07 123.09 187.94 
M 120.92 177.29 126.48 188.4 
M 122.09 173.31 122.9 174.92 
M 124.51 178.15 130 189.12 
M 123.21 169.23 127.25 177.3 
M 128.06 178.92 130.48 183.76 
M 124.29 165.06 129.98 176.45 
M 132.41 181.3 136.55 189.58 
M 127.89 165.94 131.91 173.99 
M 132.72 175.6 133.53 177.22 
M 135.14 180.45 139.18 188.52 
M 130.62 165.08 134.65 173.16 
M 137.08 178 140.31 184.46 
M 121.38 140.29 122.89 143.31 
M 133.3 164.12 134.19 165.91 
M 135 167.53 136.61 170.76 
M 139.84 177.22 140.65 178.83 
M 141.46 180.45 143.07 183.68 
M 121.62 134.45 126.36 143.93 
M 124.39 133.66 128.42 141.74 
M 127.19 132.94 127.99 134.56 
M 128.8 136.17 130.42 139.4 
M 157.06 192.69 158.54 195.65 
M 122.82 117.9 126.86 125.98 
M 151.89 176.04 153.51 179.27 
M 159.16 190.57 162.06 196.38 
M 123.31 112.55 127.34 120.62 
M 128.15 122.24 130.57 127.08 
M 153.18 172.3 158.03 181.99 
M 159.64 185.22 165.56 197.05 
M 127.02 113.65 133.48 126.57 
M 154.47 168.56 159.32 178.25 
M 160.12 179.86 160.93 181.48 
M 162.55 184.71 169.05 197.71 
M 129.16 111.62 134.81 122.92 
M 157.42 168.14 158.23 169.75 
M 159.04 171.37 163.88 181.06 
M 167.11 187.52 172.03 197.35 
M 132.17 111.32 137.02 121.01 
M 139.44 125.85 143.48 133.93 
M 161.24 169.46 166.08 179.14 
M 170.12 187.22 172.54 192.06 
M 173.35 193.68 174.16 195.29 
M 135.18 111.02 135.99 112.64 
M 141.64 123.94 145.68 132.02 
M 165.87 172.39 166.67 174 
M 143.85 122.03 149.5 133.34 
M 159.01 152.35 159.19 152.71 
M 177.76 189.86 180.99 196.32 
M 182.43 199.2 182.66 199.67 
M 146.06 120.14 147.68 123.37 
M 148.49 124.99 151.72 131.45 
M 167.06 162.13 170.29 168.59 
M 178.36 184.74 184.82 197.66 
M 149.9 121.5 150.71 123.11 
M 168.47 158.64 173.31 168.33 
M 174.12 169.94 174.93 171.56 
M 181.39 184.48 187.04 195.78 
M 170.69 156.76 172.31 159.99 
M 173.11 161.61 175.54 166.45 
M 176.34 168.07 177.15 169.68 
M 184.42 184.22 186.84 189.06 
M 187.65 190.68 188.46 192.29 
M 189.26 193.91 190.07 195.52 
M 149.09 107.25 150.3 109.67 
M 168.23 145.52 172.1 153.27 
M 174.53 158.11 179.37 167.8 
M 188.25 185.57 189.06 187.18 
M 189.87 188.8 190.67 190.41 
M 163.76 130.26 165.37 133.49 
M 170.46 143.66 175.87 154.49 
M 179.91 162.56 180.72 164.17 
M 165.11 126.63 169.95 136.32 
M 172.37 141.17 172.89 142.2 
M 173.1 142.62 178.02 152.47 
M 178.83 154.09 179.64 155.7 
M 165.64 121.39 172.1 134.31 
M 172.91 135.92 173.72 137.54 
M 175.33 140.77 180.98 152.07 
M 167.8 119.38 175.06 133.91 
M 176.68 137.14 183.14 150.06 
M 200.09 183.97 200.9 185.59 
M 202.52 188.82 204.13 192.05 
M 163.89 105.25 165.91 109.29 
M 166.72 110.9 167.53 112.52 
M 170.76 118.98 172.37 122.21 
M 173.18 123.82 177.22 131.9 
M 192.56 162.58 197.4 172.27 
M 202.25 181.96 206.28 190.03 
M 166.85 104.85 169.68 110.51 
M 173.72 118.58 174.52 120.2 
M 175.33 121.81 177.75 126.66 
M 178.56 128.27 179.37 129.88 
M 180.18 131.5 183.41 137.96 
M 194.71 160.57 199.56 170.26 
M 200.36 171.87 201.17 173.49 
M 203.59 178.33 210.05 191.25 
M 169.81 104.46 173.45 111.72 
M 182.33 129.49 186.37 137.56 
M 196.86 158.55 200.9 166.63 
M 201.71 168.24 203.32 171.47 
M 205.75 176.32 212.2 189.24 
M 172.8 104.11 174.01 106.53 
M 184.51 127.52 189.35 137.21 
M 199.85 158.21 205.5 169.51 
M 208.73 175.97 210.35 179.2 
M 211.15 180.81 211.96 182.43 
M 212.77 184.04 214.38 187.27 
M 215.19 188.89 217.61 193.73 
M 187.52 127.22 192.36 136.91 
M 194.78 141.76 197.21 146.6 
M 198.01 148.22 198.82 149.83 
M 202.86 157.91 206.09 164.37 
M 206.9 165.98 208.51 169.21 
M 216.59 185.36 218.2 188.59 
M 219.01 190.2 221.43 195.05 
M 223.04 198.26 223.43 199.06 
M 196.99 139.84 201.83 149.53 
M 205.87 157.61 206.68 159.22 
M 207.48 160.84 209.1 164.07 
M 217.98 181.83 224.44 194.75 
M 225.25 196.36 226.48 198.83 
M 200 139.55 204.84 149.23 
M 212.11 163.77 212.92 165.38 
M 213.72 167 215.34 170.23 
M 220.99 181.53 225.84 191.22 
M 229.11 197.77 229.56 198.67 
M 203.1 139.44 205.53 144.28 
M 212.79 158.82 218.44 170.12 
M 224.9 183.04 228.13 189.5 
M 230.56 194.34 232.64 198.52 
M 198.68 124.28 202.72 132.35 
M 214.02 154.96 215.64 158.19 
M 216.45 159.8 221.29 169.49 
M 194.26 109.11 197.49 115.57 
M 200.72 122.03 205.56 131.72 
M 217.68 155.94 224.14 168.86 
M 225.75 172.09 226.56 173.71 
M 188.24 90.75 192.27 98.82 
M 196.31 106.89 201.16 116.58 
M 203.58 121.43 209.23 132.73 
M 222.15 158.57 222.96 160.19 
M 223.76 161.8 224.57 163.42 
M 226.99 168.26 230.22 174.72 
M 189.95 87.85 194.79 97.54 
M 198.02 104 202.06 112.07 
M 206.9 121.76 210.94 129.84 
M 219.02 145.99 219.82 147.6 
M 223.86 155.67 226.28 160.52 
M 227.9 163.75 234.36 176.67 
M 191.34 84.31 196.99 95.61 
M 202.64 106.91 204.25 110.14 
M 211.52 124.68 212.33 126.29 
M 218.79 139.21 219.6 140.83 
M 220.4 142.44 223.63 148.9 
M 230.9 163.44 236.55 174.74 
M 247.9 197.43 248.34 198.32 
M 195.89 87.09 199.93 95.17 
M 210.42 116.16 212.04 119.39 
M 220.92 137.16 227.38 150.07 
M 232.22 159.76 239.49 174.3 
M 250.95 197.22 251.52 198.35 
M 198.81 86.63 199.62 88.24 
M 211.73 112.46 215.77 120.54 
M 216.58 122.15 218.19 125.38 
M 223.84 136.69 230.3 149.61 
M 235.96 160.91 237.57 164.14 
M 238.38 165.75 239.99 168.98 
M 240.8 170.6 241.61 172.21 
M 244.03 177.06 247.26 183.52 
M 248.07 185.13 249.68 188.36 
M 206.33 95.34 207.95 98.57 
M 213.6 109.87 220.06 122.79 
M 227.32 137.33 232.98 148.63 
M 241.05 164.78 241.86 166.39 
M 245.89 174.47 253.16 189 
M 207.26 90.87 211.29 98.95 
M 216.95 110.25 221.79 119.94 
M 228.25 132.86 229.06 134.47 
M 229.86 136.09 234.71 145.78 
M 237.94 152.24 239.55 155.47 
M 241.17 158.7 241.98 160.31 
M 249.24 174.84 254.89 186.15 
M 201.16 72.36 201.97 73.97 
M 202.77 75.59 203.58 77.2 
M 209.23 88.51 214.89 99.81 
M 218.92 107.88 224.57 119.19 
M 231.03 132.11 231.84 133.72 
M 233.46 136.95 235.07 140.18 
M 239.11 148.26 244.76 159.56 
M 251.22 172.48 252.03 174.09 
M 252.83 175.71 253.64 177.32 
M 254.45 178.94 257.68 185.4 
M 202.27 68.27 203.08 69.88 
M 203.89 71.5 207.93 79.57 
M 211.96 87.64 217.61 98.95 
M 223.27 110.25 225.69 115.1 
M 229.73 123.17 236.99 137.71 
M 242.64 149.01 246.68 157.08 
M 254.76 173.23 256.37 176.46 
M 257.18 178.08 257.99 179.69 
M 265.25 194.23 266.06 195.84 
M 266.87 197.46 267.28 198.27 
M 203.89 65.18 210.35 78.1 
M 211.16 79.72 211.96 81.33 
M 215.19 87.79 216 89.41 
M 216.81 91.02 219.23 95.86 
M 232.15 121.7 239.42 136.24 
M 245.07 147.54 249.11 155.61 
M 267.68 192.76 270.4 198.2 
M 206.31 63.71 213.58 78.24 
M 234.57 120.23 242.65 136.38 
M 249.91 150.91 250.72 152.52 
M 271.71 194.51 273.52 198.13 
M 209.56 63.88 215.21 75.19 
M 220.86 86.49 221.67 88.1 
M 222.48 89.72 224.9 94.56 
M 237.82 120.4 245.09 134.94 
M 261.23 167.23 262.04 168.85 
M 262.85 170.46 263.66 172.08 
M 273.35 191.46 276.64 198.04 
M 213.08 64.61 216.31 71.06 
M 224.38 87.21 230.04 98.52 
M 234.07 106.59 234.88 108.21 
M 236.5 111.44 239.73 117.9 
M 240.53 119.51 244.57 127.59 
M 246.19 130.82 246.99 132.43 
M 263.95 166.34 268.79 176.03 
M 279.32 197.09 279.76 197.96 
M 221.55 75.22 222.35 76.83 
M 223.16 78.45 224.78 81.68 
M 225.58 83.29 226.39 84.91 
M 227.2 86.52 232.85 97.83 
M 236.08 104.28 236.89 105.9 
M 237.69 107.51 242.54 117.2 
M 265.95 164.03 270.8 173.72 
M 222.07 69.94 223.68 73.17 
M 224.49 74.79 234.99 95.78 
M 238.22 102.24 244.68 115.16 
M 268.09 161.99 268.9 163.61 
M 269.71 165.22 271.32 168.45 
M 276.97 179.75 277.78 181.37 
M 225.53 70.55 230.38 80.24 
M 232.8 85.09 236.84 93.16 
M 240.87 101.23 247.33 114.15 
M 256.22 131.92 258.64 136.76 
M 263.48 146.45 264.29 148.07 
M 265.1 149.68 267.52 154.53 
M 278.82 177.13 283.67 186.82 
M 288.58 196.64 289.05 197.58 
M 227.7 68.57 232.55 78.26 
M 234.16 81.49 234.97 83.11 
M 235.78 84.72 236.59 86.34 
M 237.39 87.95 240.62 94.41 
M 241.43 96.03 242.24 97.64 
M 246.27 105.72 247.89 108.95 
M 257.58 128.32 262.42 138.01 
M 264.85 142.86 270.5 154.16 
M 281.8 176.77 285.84 184.84 
M 291.61 196.39 292.13 197.43 
M 224 54.85 226.42 59.69 
M 227.23 61.31 228.04 62.92 
M 231.27 69.38 232.07 70.99 
M 232.88 72.61 235.3 77.45 
M 239.34 85.53 243.38 93.6 
M 244.18 95.22 244.99 96.83 
M 253.07 112.98 254.68 116.21 
M 256.3 119.44 257.91 122.67 
M 259.53 125.9 265.18 137.2 
M 268.41 143.66 273.25 153.35 
M 282.94 172.73 287.79 182.42 
M 294.92 196.69 295.19 197.24 
M 220.53 41.59 220.93 42.4 
M 226.59 53.7 231.43 63.39 
M 241.12 82.77 247.58 95.69 
M 254.04 108.61 258.88 118.29 
M 259.69 119.91 261.31 123.14 
M 262.11 124.75 266.96 134.44 
M 270.99 142.52 274.22 148.98 
M 287.14 174.82 290.37 181.27 
M 297.73 195.98 298.22 196.97 
M 222.64 39.5 224.66 43.54 
M 227.89 50 231.94 58.08 
M 257 108.22 263.46 121.14 
M 265.89 125.98 266.69 127.6 
M 267.5 129.21 268.31 130.82 
M 279.61 153.43 282.84 159.89 
M 224.98 37.86 227 41.89 
M 230.23 48.35 231.39 50.67 
M 257.16 102.22 258.37 104.64 
M 259.18 106.25 265.64 119.17 
M 280.17 148.24 286.63 161.16 
M 227.48 36.54 228.69 38.96 
M 260.73 103.03 261.54 104.65 
M 263.15 107.87 268.8 119.18 
M 275.26 132.1 276.07 133.71 
M 283.34 148.25 288.99 159.55 
M 305.14 191.85 307.21 196 
M 263.58 102.41 264.79 104.84 
M 266.41 108.07 270.44 116.14 
M 276.1 127.44 280.94 137.13 
M 286.59 148.44 289.82 154.9 
M 305.97 187.19 310.13 195.51 
M 276.93 122.8 284.2 137.33 
M 289.85 148.63 293.08 155.09 
M 309.23 187.39 313.04 195.02 
M 280.19 122.99 286.65 135.91 
M 293.11 148.83 293.92 150.45 
M 301.99 166.6 302.8 168.21 
M 304.41 171.44 305.22 173.06 
M 311.68 185.97 315.63 193.88 
M 275.4 107.09 277.82 111.93 
M 278.63 113.55 281.05 118.39 
M 281.86 120.01 287.51 131.31 
M 288.32 132.93 289.12 134.54 
M 302.85 161.99 308.5 173.3 
M 314.96 186.22 317.38 191.06 
M 277.08 104.14 277.89 105.75 
M 278.7 107.37 285.15 120.29 
M 285.96 121.9 290.81 131.59 
M 306.15 162.27 310.99 171.96 
M 280.38 104.42 286.84 117.33 
M 290.07 123.79 290.88 125.41 
M 291.68 127.02 292.49 128.64 
M 302.18 148.02 306.22 156.09 
M 307.83 159.32 315.1 173.85 
M 324.08 191.81 324.58 192.81 
M 283.28 103.89 289.33 116 
M 303.87 145.07 317.59 172.52 
M 326.48 190.29 327.45 192.24 
M 287 105.02 287.81 106.63 
M 289.42 109.86 291.04 113.09 
M 306.38 143.77 312.03 155.08 
M 313.64 158.31 318.49 167.99 
M 321.72 174.45 324.95 180.91 
M 308.08 140.86 309.69 144.09 
M 310.5 145.7 314.54 153.78 
M 324.23 173.15 328.26 181.23 
M 301.71 121.79 302.51 123.41 
M 304.13 126.64 307.36 133.1 
M 311.4 141.17 315.43 149.25 
M 325.93 170.24 330.77 179.93 
M 302.62 117.29 309.08 130.21 
M 315.53 143.13 316.34 144.75 
M 329.26 170.58 333.3 178.66 
M 299.89 105.53 301.91 109.57 
M 305.14 116.03 312.41 130.56 
M 337.44 180.62 341.56 188.87 
M 303.23 105.88 305.25 109.92 
M 309.28 117.99 314.13 127.68 
M 338.35 176.13 345 189.43 
M 306.61 106.31 307.01 107.12 
M 311.05 115.2 317.51 128.12 
M 328.81 150.72 330.43 153.95 
M 336.08 165.26 339.31 171.72 
M 341.73 176.56 347.95 189.01 
M 315.28 117.35 316.09 118.96 
M 316.9 120.58 318.51 123.81 
M 329.81 146.41 331.43 149.64 
M 332.24 151.26 333.85 154.49 
M 337.08 160.95 341.93 170.64 
M 344.35 175.48 350.65 188.09 
M 313.86 108.19 315.48 111.42 
M 330.82 142.1 338.09 156.64 
M 339.7 159.87 344.55 169.56 
M 346.97 174.4 351.81 184.09 
M 316.9 107.95 318.92 111.98 
M 333.45 141.05 338.3 150.74 
M 339.1 152.35 339.91 153.97 
M 342.33 158.81 346.37 166.89 
M 352.83 179.81 353.64 181.42 
M 320.39 108.6 322.41 112.64 
M 331.29 130.4 332.1 132.02 
M 332.9 133.63 336.13 140.09 
M 336.94 141.71 343.4 154.63 
M 323.88 109.26 324.28 110.07 
M 334.78 131.06 338.01 137.52 
M 340.43 142.37 341.24 143.98 
M 342.04 145.59 343.66 148.82 
M 351.73 164.97 354.16 169.82 
M 354.96 171.43 356.58 174.66 
M 335.84 126.87 341.49 138.18 
M 350.38 155.94 351.18 157.56 
M 355.22 165.63 360.07 175.32 
M 338.53 125.92 340.14 129.15 
M 340.95 130.76 342.56 133.99 
M 349.83 148.53 354.67 158.22 
M 356.29 161.45 364.36 177.6 
M 334.34 111.24 336.36 115.28 
M 350.9 144.34 357.36 157.26 
M 358.97 160.49 366.24 175.03 
M 337.84 111.9 339.05 114.32 
M 353.58 143.39 360.04 156.31 
M 363.27 162.77 366.5 169.23 
M 368.92 174.07 369.73 175.69 
M 373.61 183.45 373.86 183.95 
M 341.3 112.51 342.51 114.93 
M 356.23 142.38 362.69 155.3 
M 365.92 161.76 371.58 173.06 
M 372.38 174.68 373.19 176.29 
M 375.61 181.14 376.3 182.52 
M 359.69 142.97 364.53 152.66 
M 370.19 163.97 376.65 176.88 
M 372.03 161.33 372.83 162.94 
M 373.64 164.56 378.49 174.25 
M 381.68 180.63 382.05 181.37 
M 357.74 126.44 360.16 131.28 
M 374.7 160.35 381.16 173.27 
M 359.62 123.88 363.66 131.95 
M 379 162.63 379.81 164.25 
M 380.61 165.86 382.23 169.09 
M 361.5 121.32 367.15 132.62 
M 370.38 139.08 374.42 147.15 
M 381.69 161.69 382.49 163.3 
M 365.87 123.73 369.1 130.19 
M 370.71 133.42 375.56 143.11 
M 376.37 144.73 377.98 147.96 
M 382.82 157.65 386.05 164.11 
M 386.86 165.72 387.67 167.34 
M 373.56 132.81 380.02 145.73 
M 383.25 152.18 389.71 165.1 
M 390.52 166.72 391.33 168.33 
M 376.42 132.19 383.68 146.72 
M 386.1 151.57 393.37 166.1 
M 378.56 130.15 382.59 138.23 
M 383.4 139.84 384.21 141.46 
M 385.02 143.07 385.82 144.69 
M 389.86 152.76 394.19 161.42 
M 383.3 133.31 384.1 134.93 
M 392.99 152.69 394.19 155.1 
"/></svg>