<svg xmlns="http://www.w3.org/2000/svg" width="520" height="320"><rect x="0" y="0" width="520" height="320" fill="floralwhite"/><rect x="10" y="10" width="500" height="300" stroke="black" stroke-width="1" fill="none"/><path stroke="black" stroke-width="1" fill="none" stroke-linecap="round" stroke-linejoin="round" d="
M 128.39 128.26 138.28 124.14 148.14 120.44 158 117.07 177.72 110.89 187.59 108.38 197.45 106.55 207.31 105.16 236.89 104.49 246.75 105.69 256.62 108.07 266.48 111 286.2 117.54 296.06 120.64 305.92 124.24 335.51 136.7 365.94 148.76 
M 365.94 177.27 345.37 187.27 335.51 191.86 325.65 196.06 315.79 200.05 305.92 203.49 286.2 209.89 276.34 212.25 266.48 214.3 256.62 216.15 246.75 217.12 236.89 217.78 227.03 217.5 217.17 217.51 207.31 217.72 197.45 216.41 187.59 214.26 177.72 211.76 167.86 209 158 206.6 148.14 203.75 138.28 200.12 118.56 191.52 
M 365.94 155.59 354.82 154.88 348.46 154.18 341.87 153.03 325.28 149.46 313.08 147.35 
M 309.63 146.77 301.2 145.41 297.86 145.1 284.36 144.49 281.06 144.11 274.47 142.93 264.75 140.74 246.3 137.75 237.19 137.68 222.81 138.84 
M 219.67 139.05 216.44 139.38 
M 213.14 139.79 204.76 140.69 199.77 140.87 
M 196.55 140.81 193.39 140.64 
M 166.37 142.48 162.96 142.92 
M 159.53 143.32 155.36 143.85 
M 145.56 145.31 141.99 145.8 
M 129.35 183.48 132.75 188.82 136.41 193.69 
M 134.76 183.69 138.44 188.88 142.41 193.81 
M 145.79 190.72 148.59 193.97 
M 154.83 194.16 160.57 200.16 
M 161.04 194.41 163.96 197.49 
M 134.08 147.04 135.13 149.07 
M 164.08 191.45 167.08 194.7 
M 172.25 200.81 174.55 203.65 
M 129.05 127.98 139.59 147.46 
M 170.13 191.66 170.18 191.72 
M 133.28 126.22 142.59 142.8 
M 173.49 188.5 176.25 191.94 
M 181.09 198.37 183.45 201.3 
M 137.46 124.48 142.94 133.81 149.3 143.96 
M 179.78 188.6 187 198.47 
M 141.74 122.84 146.4 130.06 151.12 136.97 155.36 143.85 
M 182.13 183.33 183.32 185 
M 185.83 188.62 190.6 195.41 
M 193.06 198.61 195.6 201.64 
M 146.13 121.19 157.16 136.8 161.24 143.9 
M 186.02 180.31 186.62 181.16 
M 191.63 188.48 194.05 192.02 
M 199.13 198.75 201.67 201.8 
M 150.59 119.6 154.34 124.56 
M 156.87 127.93 160.64 133.24 162.97 136.9 166.75 143.46 
M 190.87 178.74 192.29 180.83 
M 197.27 188.27 203.75 197.22 207.48 201.77 
M 155.04 118.08 163.88 129.79 168.73 136.94 172.07 142.52 
M 195.3 176.67 200.3 184.27 
M 202.91 188.12 206.9 193.73 210.67 198.48 
M 213.04 201.13 215.3 203.41 
M 219.65 207.3 221.73 208.99 
M 223.78 210.52 225.31 211.55 
M 159.44 116.63 169.64 129.96 174.53 136.92 177.26 141.23 
M 190.58 161.39 194.88 166.95 197.39 170.67 203.37 180.24 
M 211.23 191.6 214.97 196.29 218.44 200 
M 220.66 202.2 222.83 204.26 
M 224.96 206.2 227.09 207.99 
M 163.87 115.28 172.94 126.84 180.4 136.98 182.81 140.57 187.4 148.16 188.7 150.05 
M 191.44 153.77 194.36 157.44 
M 197.22 161.13 201.02 166.71 207.8 178.26 214.25 187.7 
M 221.53 196.46 226.04 201.14 
M 237.06 210.27 239.01 211.45 
M 168.25 113.93 173.82 120.82 183.76 133.81 186.2 137.27 190.92 144.58 195.02 150.03 
M 200.86 157.27 203.46 161 
M 205.75 164.78 211.11 174.39 213.46 178.25 215.99 182.06 219.76 187.19 
M 226.92 195.51 231.62 200.28 
M 233.94 202.48 236.2 204.52 
M 172.47 112.57 174.88 115.28 184.57 127.76 194 141.4 196.65 144.89 202.63 151.77 205.48 155.36 209.19 161.09 
M 211.4 164.94 213.49 168.77 
M 215.59 172.56 219 178.15 223.95 185.05 228.83 190.83 232.54 194.69 
M 176.49 111.28 180.77 115.94 183.11 118.97 190.16 128.55 196.9 138.47 200.93 143.42 
M 203.89 146.7 206.88 150.09 
M 212.37 157.52 215.86 163.35 221.01 172.55 
M 223.21 176.09 226.82 181.27 230.62 185.95 
M 233.18 188.79 238.23 193.96 
M 244.93 200.97 246.84 203.07 
M 248.64 205.05 250.36 206.93 
M 180.53 110.17 184.09 113.76 186.52 116.65 191.25 122.99 200.02 135.57 203.85 140.24 
M 206.66 143.39 211.08 148.37 213.95 152.05 216.61 155.94 222.22 165.42 
M 224.22 168.94 228.51 175.78 
M 236.19 185.47 241.28 190.78 
M 243.65 193.24 245.84 195.65 
M 247.85 198.04 249.71 200.38 
M 254.85 206.85 256.58 208.76 
M 184.62 109.14 187.45 111.81 189.93 114.55 194.73 120.68 200.24 128.26 
M 202.38 131.17 205.76 135.49 213.8 144.78 216.65 148.4 219.38 152.29 225.33 161.84 
M 227.35 165.32 230.36 170.38 232.65 173.82 235.17 177.29 239.04 182.1 
M 246.39 190.09 248.56 192.58 
M 250.55 195.1 254.17 200.11 
M 255.91 202.51 258.57 205.92 261.44 208.88 
M 188.93 108.13 190.93 109.91 193.42 112.49 195.82 115.32 207.03 129.58 217.99 142.81 
M 220.68 146.49 227.05 156.22 233.19 166.51 235.46 169.99 239.24 175.26 
M 244.23 181.56 246.65 184.32 
M 248.99 186.97 251.15 189.58 
M 253.14 192.2 256.84 197.49 
M 193.73 107.24 197.02 110.33 199.36 112.97 219.6 137.39 222.08 140.74 227.2 148.29 237.99 165.85 243.09 173.06 246.83 177.96 
M 249.29 180.97 252.8 185.23 255.83 189.35 
M 257.7 192.08 259.59 194.8 
M 261.58 197.49 265.77 202.6 
M 198.79 106.36 200.67 108.1 202.93 110.5 211.83 120.78 220.44 131.05 224.96 137.08 229.87 144.12 235.2 153.02 
M 237.16 156.39 242.92 165.21 249.51 174.2 
M 256.76 183.58 258.79 186.46 
M 262.6 192.08 264.64 194.85 
M 203.91 105.64 206.39 108.1 215.08 117.65 219.45 122.67 224.75 129.23 
M 226.95 132.07 230.45 136.69 233.96 141.82 
M 238.02 148.81 240.89 153.96 248.02 164.82 259.86 180.43 
M 261.97 183.49 266.84 190.77 268.95 193.63 272.37 197.81 
M 208.82 105.12 218.24 114.61 222.68 119.51 233.62 133.03 237.12 137.88 
M 239.24 141.29 245.94 153.61 248.12 157.2 251.91 162.8 
M 254.71 166.54 257.6 170.18 
M 262.94 177.11 267.22 183.52 
M 275.72 195.29 278.05 198.04 
M 213.8 104.97 221.32 111.77 225.82 116.4 232.08 124.22 239.07 132.53 241.36 135.74 243.44 139.13 246.26 144.43 
M 248.11 148.06 250.04 151.76 
M 252.16 155.43 255.83 160.96 257.25 162.81 
M 263.09 170.09 267.09 175.41 272.39 183.68 
M 274.49 186.77 277.85 191.22 281.36 195.45 
M 218.97 104.85 224.37 109.12 226.63 111.17 228.8 113.44 234.98 121.18 241.94 129.17 245.37 133.77 
M 247.49 137.14 256.33 153.73 258.66 157.34 261.33 160.94 268.53 170.1 
M 277.6 183.86 282.23 189.88 
M 224.99 104.78 227.42 106.58 229.62 108.47 231.75 110.61 240.02 120.8 247.06 128.82 250.44 133.56 
M 254.63 140.63 260.78 151.89 
M 265.8 159.12 271.4 166.51 
M 273.92 170.22 276.21 173.85 
M 231.2 104.65 232.68 105.84 234.76 107.85 236.78 110.11 242.95 117.79 249.84 125.59 253.32 130.14 
M 255.61 133.46 258.96 138.74 262.16 144.35 
M 266.7 151.92 273.35 161.08 277.1 166.64 
M 279.36 170.32 281.56 173.93 
M 286.13 180.61 288.45 183.59 
M 290.78 186.46 293.08 189.31 
M 295.37 192.13 297.61 194.83 
M 237.14 104.52 239.88 107.33 249.27 118.36 
M 251.55 120.95 255.06 125.16 257.44 128.3 262.24 135.09 270.31 148.28 
M 278.16 159.39 280.53 163.04 
M 282.73 166.7 284.86 170.27 
M 289.25 176.83 291.5 179.82 
M 293.79 182.76 296.09 185.73 
M 298.38 188.71 300.66 191.62 
M 243.56 105.3 254.57 117.57 
M 256.89 120.33 262.94 128.15 265.35 131.59 268.83 137 
M 271.15 140.78 274.92 146.56 280.37 154.06 283.92 159.41 
M 286.08 162.95 289.21 168.09 292.39 172.79 
M 250.61 106.62 256.61 112.99 263.57 121.58 268.32 128.25 277.9 142.88 287.08 155.72 
M 289.3 159.15 293.48 165.72 
M 297.72 171.84 302.13 178.11 
M 258.57 108.65 262.11 112.62 266.62 118.55 273.56 128.51 280.73 139.17 288.86 150.15 298.82 165.08 
M 309.93 181.29 312.28 184.58 
M 266.04 110.87 285.1 137.2 
M 287.81 140.77 291.86 146.16 295.43 151.46 
M 297.68 154.92 304.31 164.85 
M 308.72 171.38 310.96 174.74 
M 313.24 178.12 315.57 181.49 
M 317.91 184.79 322.57 191.13 
M 272.71 113.1 279.52 122.29 291.13 136.84 
M 293.81 140.36 298.69 147.54 
M 303.21 154.71 310 164.89 
M 312.24 168.27 316.7 175.15 
M 279.63 115.39 285.18 122.1 293.27 131.35 298.61 138.21 301.04 141.82 307.8 152.84 313.57 161.59 
M 315.82 165.1 318.05 168.66 
M 322.43 175.68 326.84 182.47 
M 287.82 118.05 296.71 127.81 299.44 131.03 302.06 134.46 308.01 143.64 
M 310.29 147.33 317.17 158.15 
M 319.44 161.8 323.84 169.16 
M 330.26 179.67 332.44 183.05 
M 296.8 120.91 302.73 127.66 307.97 134.52 310.49 138.2 315.2 145.59 325.29 162.23 
M 329.57 169.75 331.68 173.36 
M 305.58 124.12 311.41 131.19 316.67 138.53 321.3 145.84 328.9 158.99 
M 331.02 162.86 333.13 166.69 
M 337.35 174.01 339.41 177.48 
M 341.45 180.85 343.39 183.95 
M 314.73 127.97 320.37 135.25 325.21 142.61 329.41 150.02 337.69 165.52 342.94 174.62 
M 346.94 181.4 348.11 183.36 
M 323.77 131.83 326.6 135.7 329 139.43 331.15 143.17 342.22 164.31 
M 344.33 168.05 348.42 175.23 
M 331.83 135.18 334.77 140.07 336.82 143.87 345.75 161.12 
M 347.78 164.89 349.81 168.61 
M 338.86 138.02 347.43 154 
M 349.33 157.77 355.17 169.04 
M 357.2 172.81 359.22 176.42 
M 345.9 140.8 350.29 148.83 354.75 157.95 
M 356.6 161.64 360.62 169.28 
M 362.74 173.05 364.27 175.63 
M 353.4 143.82 356.03 149.04 359.26 156.12 362.07 161.63 
M 360.7 146.7 364.03 154.32 
M 132.83 126.41 129.85 130.58 
M 139.9 123.53 135.41 130.35 131.51 135.86 
M 146.91 120.9 138.27 133.93 133.03 141.47 
M 154.23 118.36 149.75 124.69 
M 147.38 128.25 134.1 147.83 
M 161.98 115.85 158.81 119.74 150.79 131.62 
M 148.23 135.33 139.67 147.43 
M 171.4 112.92 166.93 117.2 164.53 119.98 162.27 123 155.55 133.23 148.85 142.58 
M 181.55 109.91 175.48 115.35 170.48 120.47 168.1 123.34 165.85 126.45 160.17 135.03 
M 157.63 138.66 153.92 143.8 
M 129.08 183.49 126.84 187.08 
M 190.94 107.76 186.01 111.64 183.68 113.71 178.92 118.51 174.05 123.83 171.69 126.76 168.26 131.66 
M 165.92 135.15 159.8 143.93 
M 134.42 183.55 134.41 183.57 
M 199.32 106.29 191.96 112.33 187.1 116.74 182.29 121.71 176.39 128.67 
M 174.04 131.8 171.68 135.18 
M 169.22 138.79 165.94 143.55 
M 206.38 105.29 203.08 108.11 197.93 112.88 188.04 122.48 183.37 127.63 177.5 135.24 
M 175.04 138.75 172.49 142.42 
M 211.93 105.02 206.24 110.48 200.01 117.02 
M 197.54 119.6 195.06 122.12 
M 192.58 124.61 188.99 128.37 186.74 131.01 179.67 140.54 
M 216.97 104.87 211.64 110.29 205.74 117.06 
M 203.32 119.87 198.29 125.3 
M 195.75 127.9 193.33 130.5 
M 191.07 133.15 182.24 145.32 
M 221.74 104.82 216.87 109.91 205.32 124.03 197.57 132.45 195.28 135.21 190.01 142.8 
M 187.58 146.32 186.39 148.02 
M 159.76 191.26 156.67 195.75 155.48 197.16 
M 226.43 104.77 222.15 109.38 220.02 111.92 209.67 125.16 
M 204.52 131.13 199.66 137.09 
M 197.57 140.1 195.61 143.2 
M 191.2 150.07 188.28 154.34 
M 166.59 190.49 163.91 194.54 
M 231.13 104.65 225.36 111.32 216.43 123.03 210.25 130.74 
M 207.75 133.87 204.23 138.65 202.19 141.84 197.47 150.07 
M 190.09 161.42 187.17 166.25 
M 175.85 186.33 174.34 188.5 
M 235.81 104.52 232.63 108.1 230.52 110.74 221.85 122.39 214.68 131.68 210.02 138.29 207.02 143.35 
M 205.23 146.68 202.57 151.77 199.27 157.3 
M 196.73 161.15 194.14 165.08 
M 191.7 169.08 189.51 173.14 
M 183.04 185 180.58 188.6 
M 240.11 104.88 237.75 107.53 233.44 113.01 217.94 134.32 215.74 137.73 213.68 141.28 206.41 155.38 203 161.01 
M 200.42 164.84 196.51 170.72 193.16 176.83 
M 186.56 188.59 185.33 190.39 181.5 195.3 
M 244.44 105.41 240.63 109.79 238.42 112.6 228.99 125.93 
M 226.74 129.05 222.3 135.59 
M 220.25 139.08 217.41 144.64 213.9 152.05 212.03 155.62 208.75 161.08 
M 206.28 164.79 201.1 172.46 
M 196.58 180.52 193.44 186.55 191.16 190.31 187.41 195.36 
M 248.59 106.13 245.81 109.31 243.55 112.19 239.22 118.08 228.81 133.47 225.61 138.82 
M 223.7 142.57 219.34 152.29 216.47 157.81 
M 211.91 164.98 209.38 168.65 
M 204.37 176.3 202.12 180.26 
M 197.94 188.22 195.73 191.96 
M 188.3 201.4 185.81 204.04 
M 252.51 107.08 248.76 111.49 246.52 114.55 240.35 123.55 234.35 132.96 229.99 140.31 228.03 144.27 225.44 150.37 
M 223.7 154.33 220.8 159.96 219.7 161.73 
M 214.94 168.85 211.23 174.39 208.91 178.26 203.62 188.11 
M 199.3 195.46 196.94 198.69 
M 191.9 204.22 189.42 206.64 
M 256.43 108.02 254.08 110.68 249.58 116.87 243.61 126.13 235.43 139.83 233.25 143.78 231.28 147.89 227.84 156.16 225.99 160.03 222.7 165.45 
M 217.97 172.6 214.55 178.24 211.4 184.11 
M 207.26 191.86 205.14 195.48 
M 260.41 109.19 257.16 112.93 254.9 116.04 251.71 120.9 
M 249.72 124.1 236.19 147.2 234.19 151.33 229.78 161.49 
M 225.58 168.9 222.19 174.33 219.04 180.04 
M 217 183.88 214.95 187.69 
M 199.22 209.31 197.69 210.65 
M 264.59 110.44 260.36 115.52 255.98 121.93 241.18 146.59 238.91 150.54 236.9 154.58 232.56 164.72 
M 230.62 168.56 224.41 179.67 
M 218.39 190.8 216.31 194.43 
M 212.01 201.3 209.75 204.33 
M 205.15 209.43 203.39 211.05 
M 268.89 111.81 265.82 115.52 261.46 121.6 257.22 128.31 242.81 151.96 
M 238.91 159.85 237.25 163.99 
M 235.57 168.06 234.7 170.06 231.77 175.64 
M 229.78 179.29 225.82 186.49 
M 223.8 189.99 219.6 196.88 
M 215.22 203.43 212.99 206.39 
M 273.23 113.27 268.97 118.7 266.89 121.67 252.56 144.34 
M 243.85 159.27 242.13 163.33 
M 240.53 167.49 238.91 171.55 
M 237.15 175.39 233.31 182.51 
M 229.23 189.25 227.11 192.57 
M 277.59 114.73 274.23 119.1 270.12 125.05 263.92 135.08 251.89 153.63 249.83 157.2 248.02 160.95 243.99 171.02 
M 242.37 174.97 239.72 180.46 236.87 185.43 
M 234.84 188.64 228.22 198.11 
M 225.95 201.16 223.67 204.09 
M 281.91 116.14 275.37 125.34 267.14 138.75 257.22 153.74 255.05 157.3 254.13 159.12 
M 252.38 162.82 250.76 166.65 
M 249.14 170.54 246.6 176.29 242.24 184.9 
M 240.38 188.06 237.31 192.69 233.9 197.29 
M 229.13 203.17 226.74 205.89 
M 286.39 117.6 282.95 122.19 278.66 128.64 270.37 142.61 266.69 148.19 
M 264.13 151.88 260.53 157.32 258.59 160.97 253.68 172.15 249.07 181 
M 241.75 193.51 239.58 196.53 
M 291.04 119.06 286.52 125.16 282.03 131.96 279.88 135.52 273.87 146.53 270.25 152 
M 267.71 155.56 265.35 159.12 
M 263.35 162.76 259.17 171.97 256.33 177.27 
M 250.46 186.83 248.67 189.81 
M 242.77 198.75 241.66 200.21 238.06 204.27 
M 295.8 120.56 290.26 128.17 285.55 135.35 283.39 139.11 279.64 146.66 277.62 150.37 275.29 153.97 270.31 161 267.28 166.44 
M 265.51 170.07 262.8 175.42 260.73 178.82 253.38 189.44 
M 300.46 122.25 294.09 131.29 289.28 138.8 287.13 142.69 283.35 150.4 281.31 154.07 274.06 164.75 271.91 168.35 268.11 175.42 264.94 180.37 
M 262.64 183.48 257.03 190.71 251.4 198.99 248.4 202.88 
M 246.26 205.31 244.01 207.59 
M 305.1 123.94 300.24 131.01 295.42 138.38 293.03 142.29 286.82 153.96 284.65 157.6 277.44 168.48 271.17 178.89 269.01 182.04 265.47 186.45 
M 263.08 189.29 260.79 192.07 
M 256.76 197.48 254.86 200.08 
M 248.86 207.02 246.72 209.01 
M 309.72 125.85 306.14 131 298.97 141.9 296.53 145.8 293.19 151.65 
M 291.06 155.45 287.76 161.06 284.19 166.67 
M 281.77 170.34 274.11 182.21 269.54 188.03 263.66 194.83 
M 261.5 197.49 255.38 204.77 
M 251.34 208.7 249.29 210.37 
M 314.55 127.89 302.26 145.53 299.78 149.34 294.14 158.73 
M 284.9 173.85 282.62 177.42 
M 280.41 180.75 278.24 183.88 
M 319.54 130.02 316.01 134.94 310.75 141.85 305.48 149.22 294.88 165.56 
M 292.58 169.34 286.97 178.89 283.69 183.92 
M 279.27 189.83 276.99 192.59 
M 267.55 202.64 262.91 207 
M 324.62 132.2 322.27 135.39 311.36 149.16 297.92 168.51 
M 293.41 176.03 289.12 183.47 
M 282.59 192.71 277.96 198.04 
M 275.55 200.48 273.1 202.77 
M 270.66 204.95 268.26 207.01 
M 329.59 134.26 325.83 139.16 317.38 149.21 314.66 152.75 302.17 169.75 299.85 173.22 296.55 178.83 
M 294.44 182.61 292.35 186.22 
M 290.24 189.55 288.07 192.6 
M 334.43 136.25 329.1 142.95 320.64 152.87 314.12 161.57 
M 311.54 164.9 309 168.13 
M 306.52 171.33 302.97 176.34 295.57 189.01 
M 293.45 192.27 290.17 196.7 286.72 200.58 
M 339.19 138.15 334.84 143.62 326.6 153.31 317.38 165.17 
M 314.78 168.41 309.72 174.69 
M 307.34 177.95 305.1 181.39 
M 302.95 184.92 298.76 191.79 
M 343.96 140.03 336.43 149.13 
M 333.73 152.34 331.07 155.62 
M 325.83 162.28 323.21 165.61 
M 320.59 168.86 312.98 178.13 
M 304.05 191.3 301.9 194.43 
M 348.76 141.95 338.03 154.72 328.95 166.19 
M 326.35 169.4 323.75 172.53 
M 321.19 175.56 318.69 178.54 
M 316.28 181.55 311.69 187.78 
M 353.48 143.85 343.67 155.43 333.34 168.47 329.46 173.12 
M 326.87 176.12 324.36 179.06 
M 319.58 184.91 317.27 187.84 
M 358.02 145.65 352.07 152.49 338.97 169.17 335.14 173.76 
M 318.27 193.67 316.49 195.72 
M 362.35 147.35 357.59 152.58 354.73 156.13 347.05 166.6 342.04 172.89 333.14 183.13 
M 365.94 149.62 363.17 152.56 360.15 156.11 351.23 168.71 
M 346.3 174.98 341.2 180.83 
M 365.94 155.9 362.94 159.73 354.16 172.51 
M 351.69 175.64 344.19 184.21 
M 365.94 163.58 359.59 172.94 
M 357.08 176.24 354.55 179.23 
M 365.94 172.08 365.23 173.07 
M 186.22 107.73 224.66 30 225.42 30.36 189.41 108.04 
M 198.65 105.54 227.71 46.01 228.47 46.36 201.8 105.94 
M 211.25 104.32 233.89 61.78 234.64 62.16 214.3 104.95 
M 223.87 104.11 239.19 75.41 239.95 75.78 226.9 104.76 
M 236.53 103.89 246.61 87.43 247.36 87.83 239.44 104.8 
M 249.08 105.71 254.65 99.29 255.35 99.76 251.84 106.91 
M 265.22 110.16 266.48 111 
M 221.78 38.23 221.39 41.51 221.5 44.69 222.37 47.7 223.07 49.14 224.8 51.96 
M 225.76 52.41 226.07 55.87 226.84 59.12 228.33 62.07 229.33 63.44 231.62 66.04 
M 232.57 66.52 232.71 69.56 233.31 72.4 234.63 74.94 235.54 76.1 237.66 78.28 
M 238.61 78.75 239.27 81.65 240.35 84.27 242.07 86.45 243.16 87.39 245.61 89.08 
M 246.54 89.58 247.34 92.52 247.88 93.89 249.39 96.31 251.54 98.27 254.09 99.93 
M 254.97 100.52 256.7 103.58 258.77 106.27 261.36 108.38 262.85 109.24 266.04 110.71 
M 221.55 39.88 221.36 43.12 221.5 44.69 222.37 47.7 223.9 50.56 
M 218.77 46.62 218.6 49.54 218.73 50.95 219.51 53.66 220.89 56.23 
M 216 53.36 215.85 55.95 215.96 57.21 216.66 59.61 217.88 61.9 
M 213.23 60.1 213.09 62.37 213.19 63.47 213.8 65.57 214.87 67.58 
M 210.45 66.84 210.42 69.73 210.94 71.53 211.86 73.25 
M 207.68 73.58 207.65 75.99 208.09 77.49 208.85 78.92 
M 204.9 80.32 204.88 82.25 205.23 83.45 205.84 84.59 
M 225.88 54.15 226.38 57.53 226.84 59.12 228.33 62.07 230.44 64.75 
M 223.14 61.35 223.57 64.26 223.97 65.63 225.25 68.16 227.06 70.47 
M 220.4 68.56 220.76 70.99 221.1 72.13 222.17 74.26 223.69 76.19 
M 217.66 75.76 218.22 78.64 219.08 80.35 220.31 81.91 
M 214.92 82.96 215.35 85.15 216 86.44 216.93 87.62 
M 232.61 68.05 232.93 71.02 233.31 72.4 234.63 74.94 236.57 77.2 
M 229.41 76.65 229.66 78.92 230.39 80.99 230.96 81.93 232.45 83.66 
M 226.22 85.24 226.39 86.82 226.9 88.26 228.33 90.12 
M 238.91 80.22 239.74 83.01 240.35 84.27 242.07 86.45 244.35 88.25 
M 236.34 88.78 236.87 90.6 237.77 92.16 238.38 92.84 239.87 94.01 
M 246.91 91.07 247.88 93.89 249.39 96.31 250.39 97.34 252.79 99.12 
M 134.11 148.02 152.93 141.58 153.23 142.36 134.11 150.44 
M 134.04 152.31 186.91 138.65 187.13 139.46 133.84 155.15 
M 133.6 156.78 194.04 147.1 194.18 147.92 132.58 159.75 
M 132.24 161.19 199.59 156.84 199.65 157.68 131.45 164.06 
M 131.05 165.34 194.17 167.36 194.16 168.2 129.88 168.14 
M 129.41 169.17 201.57 178.29 201.47 179.13 128.13 171.94 
M 127.82 172.72 187.01 186.2 186.83 187.03 127.26 175.56 
M 127.08 176.22 175.55 192.43 175.3 193.23 126.18 178.99 
M 127.57 179.39 152.86 191.07 152.53 191.85 125.46 181.57 
M 150.34 143.58 157.17 143.93 163.95 143.77 170.64 142.84 173.96 142.1 180.56 140.29 
M 180.84 141.31 181.4 143.57 182.33 145.49 183.85 146.89 186.99 148.23 
M 187.17 149.27 187.32 151.62 187.89 153.7 189.14 155.39 192 157.33 
M 192.08 158.39 190.04 159.8 188.44 161.46 187.52 163.5 187.3 164.66 187.14 167.13 
M 187.12 168.19 187.74 170.86 188.76 173.23 190.4 175.13 191.45 175.92 193.81 177.31 
M 193.69 178.37 190.33 178.82 187.19 179.73 184.4 181.33 183.12 182.38 180.72 184.77 
M 180.5 185.81 177.79 185.93 175.3 186.5 173.14 187.77 172.19 188.65 170.42 190.71 
M 170.11 191.72 165.75 190.21 161.34 189.2 156.85 188.96 154.58 189.12 150.01 189.76 
M 153.76 143.79 160.57 143.93 163.95 143.77 170.64 142.84 177.26 141.23 
M 181.09 142.46 181.8 144.59 182.33 145.49 183.85 146.89 185.88 147.84 
M 161.05 147.97 161.85 149.94 162.84 150.85 164.16 151.47 
M 187.22 150.46 187.53 152.71 188.43 154.6 189.14 155.39 190.97 156.73 
M 165.03 154.35 165.47 156.46 166.28 157.55 167.47 158.42 
M 191.03 159.08 189.16 160.58 188.44 161.46 187.52 163.5 187.19 165.88 
M 167.51 161.13 165.82 162.68 165.22 164 165.01 165.55 
M 187.4 169.55 188.18 172.09 188.76 173.23 190.4 175.13 192.6 176.64 
M 165.15 169.11 165.65 170.77 166.51 172.16 167.1 172.74 168.53 173.72 
M 191.99 178.56 188.72 179.19 187.19 179.73 184.4 181.33 181.91 183.54 
M 168.13 176.15 166 176.56 164.07 177.37 163.19 177.95 161.58 179.39 
M 179.13 185.84 176.5 186.13 175.3 186.5 173.14 187.77 171.29 189.65 
M 167.93 190.93 163.55 189.62 161.34 189.2 156.85 188.96 152.3 189.4 
M 158 206.6 162.17 211.6 163.76 214.67 165.49 217.5 169.48 221.5 172.48 226.08 173.81 227.77 175.56 230.7 176.52 232.92 178.24 235.23 180.61 237.17 182.51 238.48 182.75 245.97 182.47 248.75 181.51 250.86 180.16 252.7 178.58 254.4 177.77 256.89 176.42 258.82 174.37 260.3 172.11 261.53 168.62 265.02 167.15 267.11 164.79 271.88 163.49 273.18 154.78 280 154.16 277.9 154.86 274.93 154.72 272.17 157 265.29 156.32 263.38 155.88 261.23 153.85 259.7 153.78 256.98 154.48 255.23 155.01 252.76 154.29 246.93 153.94 241.85 152.18 233.67 151.88 231.22 151.65 226.04 150.87 223.59 150.91 220.73 149.57 213.14 149.52 209.85 149.18 206.9 148.14 203.75 
M 156.38 206.13 161.89 213.4 163.2 216.39 164.85 219.42 165.89 221.76 168.92 225.91 169.62 228.78 
M 154.76 205.66 156.89 208.6 158.06 211.09 159.67 213.19 161.02 215.92 163.64 224.41 164.99 226.86 167.84 230.84 
M 153.15 205.2 155.11 208.16 156.36 210.94 157.07 213.76 158.13 216.42 159.98 222.2 161.31 225.01 164.15 229.7 165.14 232.19 165.82 234.65 166.09 237.62 167.1 240.53 169.36 244.07 170.21 246.42 
M 151.53 204.73 153.29 207.86 154.18 210.76 154.54 213.95 155.34 216.75 156.29 219.27 156.8 222.45 157.55 225.32 158.79 227.59 160.33 229.69 161.21 232.11 162.48 237.83 161.9 240.42 164.44 246.09 164.24 248.12 165.26 251.47 
M 149.91 204.26 151.42 207.3 152.46 213.75 152.74 216.52 153.56 218.76 154.24 221.54 154.49 224.03 156.3 229.35 157.48 234.37 158.82 236.96 158.49 239.75 158.93 242.36 159.05 245.14 160.26 248.93 160.47 250.65 160.69 253.27 160.43 256.87 160.87 259.93 163.84 265.78 164.81 268.06 
M 335.51 191.86 339.54 196.54 342.42 198.5 344.33 201.04 350.97 212.95 349.73 215.29 346.95 219.5 344.41 220.53 342.65 222.34 341.81 224.81 340.6 227.17 338.45 227.44 335.42 226.85 329.68 226.99 326.48 226.49 323.82 226.34 322.1 228.15 321.04 230.65 318.89 231.88 316.25 231.44 313.09 229.81 310.88 229.42 308.61 229.37 306.54 229.54 304.7 230.48 302.11 231.08 299.71 231.05 298.27 230.61 295.39 228.78 284.59 222.53 282.58 219.33 280.38 217.09 276.34 212.25 
M 331.63 193.51 334.73 196.87 337.58 199.3 341.18 204.2 343.9 205.83 
M 327.76 195.16 330.7 198.55 333.14 200.95 339.69 208.75 342.05 210.04 343.78 212.51 
M 323.87 196.78 326.99 199.9 332.97 207.07 335.59 209.76 337.21 211.95 338.35 214.14 339.87 216.42 343.02 217.29 
M 319.97 198.35 323.43 200.91 325.35 203.19 327.02 206.11 329.03 208.34 331.56 210.18 333.61 212.85 335.53 214.98 337.42 220.64 
M 316.07 199.93 321.38 204.2 323.11 206.77 327.45 211.46 329.77 214.4 331.53 217.06 333.29 218.66 
M 312.1 201.34 319.14 208.03 320.53 210.54 324.67 214.51 326.73 217.44 327.88 219.54 329.8 221.34 
M 308.12 202.73 311.33 205.33 313.56 207.72 316.98 211.99 318.16 214.11 
M 304.13 204.08 306.77 207.33 310.92 211.94 312.8 214.4 314.77 216.42 315.63 218.16 
M 300.13 205.38 304.65 211.12 306.44 213.66 308.84 216.12 310.16 218.07 315.47 224.91 317.83 226.34 
M 296.13 206.69 300.65 212.3 302.78 214.11 304.64 216.27 306 218.91 308.14 220.83 309.71 223.64 311.11 225.66 313.6 228.14 316.15 229.49 
M 292.12 207.98 298.29 216.27 300.43 218.3 302.02 220.5 304.42 221.97 
M 288.11 209.27 292.78 216.1 295.32 218.24 301.71 224.4 
M 284.06 210.4 286.93 214.04 291.7 219.62 296.01 223.62 
M 279.96 211.38 283.58 215.02 285.54 217.61 288.06 219.92 289.71 222.7 
M 365.09 148.43 367.56 147.5 369.7 146.41 374.21 143.72 376.69 142.07 378.87 140.16 381.1 139.11 383.24 137.75 385.69 136.89 387.9 135.42 390.21 134.55 393.62 131.45 397.68 128.9 402.21 125.61 404.62 124.48 411.92 120.09 414.41 119.34 416.26 117.71 417.62 117.04 421.02 116.01 423.78 114.65 425.96 112.94 428.93 111.01 431.84 108.34 434.39 106.6 436.02 106.22 439.55 103.88 442.05 101.99 443.6 101.22 446.3 98.91 449.04 97.06 452.48 95.2 455.13 92.53 458.05 90.39 460.08 88.3 461.79 88.12 463.07 87.12 465.45 84.69 468.13 84.66 469.09 95.96 469.05 98.67 468.3 100.68 467.34 102.47 466.89 107.79 465.41 109.49 464.11 111.36 463.58 117.13 462.68 119.24 462.43 125.13 461.43 127.51 460.15 129.62 458.62 131.48 457.75 133.96 456.25 135.8 454.98 137.88 454.98 140.51 454.32 142.33 453.88 147.56 453.4 150.2 452.12 155.06 451.74 157.7 451.73 160.53 452.79 165.63 453.76 168.6 455.25 171.96 455.7 174.28 455.79 176.77 455.27 178.87 455.06 181.29 456.17 184.34 456.29 186.32 456.99 188.35 459.3 192.75 459.74 197.75 458.96 199.4 459.84 202.42 460.87 207.65 460.95 209.83 461.69 212.38 462.11 214.63 461.69 216.02 461.66 217.87 463.48 223.67 464.58 228.75 464.64 230.67 465.37 233.17 467.53 239.2 470.05 250.78 466.27 249.43 458.58 244.13 456.45 242.25 454.45 240.75 452.74 238.52 451.22 235.59 449.17 233.82 441.24 230.38 439.54 229.31 437.11 228.11 435.06 227.67 432.73 225.68 430.15 224.42 428.44 220.59 425.25 218.7 422.54 217.42 419.54 216.32 416.92 214.89 414.91 213.23 413.21 211.36 411.32 210.5 405.67 208.66 403.45 206.87 401.97 205.12 399.84 203.16 398.1 201.13 392.15 196.2 390.12 194.8 388.43 192.61 383.2 190.3 380.74 189.45 378.62 188.29 374.08 184.73 372.26 182.97 365.09 177.67 
M 367.71 149.15 369.9 148.14 377.19 144.18 379.39 142.45 384.11 140.83 388.94 138.61 393.44 136.27 395.08 134.82 397.1 133.74 399.2 132.29 401.16 130.6 403.61 129.2 405.7 128.26 408.15 126.64 416.51 124.2 419.2 121.64 420.17 119.66 426.21 118.33 428.74 117.6 431.71 117.27 433.56 115.57 
M 367.87 150.86 370.3 149.98 374.87 147.49 377.56 146.36 379.94 145 382.14 143.98 384.76 143.23 387.57 141.95 389.81 141.15 392.17 140.69 394.2 139.77 396.87 138.81 399.03 137.73 401.81 135.49 404.06 134.39 405.74 132.68 407.32 131.92 409.37 131.31 412.18 129.9 414.98 128.93 
M 365.09 152.81 368.04 152.54 370.56 151.99 373.04 150.97 382.7 146.12 390.35 143.8 392.29 143.74 394.92 143.08 397.45 142.19 402.68 139.7 406.09 137.88 408.87 135.67 410.42 134.92 412.93 134.48 416.02 132.76 418.91 132.7 422.58 130.4 427.48 129.3 429.7 127.77 432.15 126.82 435.68 126.5 
M 365.09 154.28 368.05 154.19 370.59 153.73 376 151.99 381.1 149.84 383.43 148.61 388.71 146.96 390.92 146.4 393.3 146.06 398.38 144.82 400.34 143.76 406.92 142.38 408.97 140.69 409.68 139.75 413.62 138.01 417.53 136.6 
M 370.67 155.5 373.64 155.06 379.23 153.74 384.41 151.53 387.19 151.23 391.89 149.56 394.02 149.04 397.09 148.62 399.46 147.33 401.37 147.01 407.63 146.66 413.5 143.23 415.59 142.32 419.15 141.84 422.37 140.96 424.55 140.89 426.88 139.9 428.92 139.72 431.41 139.87 433.43 139.16 435.59 139.83 438.84 139.68 
M 373.8 157.01 376.78 156.53 384.58 154.68 387.25 154.74 389.91 154.33 391.86 153.22 394.25 152.24 396.2 152.23 399.18 151.5 402.35 151.37 408.43 150.28 414.03 147.37 416.96 147.2 420.6 147.94 422.89 147.97 425.23 147.08 427.45 146.58 429.36 145.29 430.86 144.61 437.04 144.39 438.78 145.62 443.3 143.53 446.47 141.03 448.9 139.89 
M 373.73 158.51 379.65 158.46 382.27 157.85 390.16 157.2 393.84 155.96 396.08 155.54 399.65 155.49 402.94 155.87 408.6 154.33 409.9 152.72 411.45 152.86 417.82 152.82 420.74 153.13 423.14 152.38 425.38 152.47 427.94 151.14 429.96 149.72 432.29 149.14 436.08 150.17 439.57 150.11 443.2 150.69 446.73 147.88 449.23 146.63 
M 373.93 160.28 376.75 160.27 382.81 160.62 387.14 159.87 389.68 159.72 391.76 160.01 394.21 159.65 396.57 158.97 403.69 159.14 406.2 158.68 409.08 158.46 410.98 157.75 412.01 156.98 
M 374.48 162.27 379.66 162.88 382.09 162.64 384.62 163.07 386.77 162.7 391.73 163.09 397.14 162.32 403.19 162.7 405.87 161.96 408.46 162.28 412.53 161.26 414.64 161.17 417.71 162.37 421.25 161.4 423.34 161.8 426.92 161.12 432.14 161.73 434.36 161.33 440.76 160.63 445.3 160.91 
M 374.47 164.16 380.15 164.78 388.88 166.11 396.75 165.78 400.02 166.45 402.55 166.33 404.56 165.92 406.95 166.18 409.63 165.84 411.97 165.27 415.12 165.36 418.81 166.4 425.55 166.7 427.27 165.79 429.87 165.38 433.2 165.81 435.66 166.51 437.12 167.91 442.93 167.4 445.66 168.5 
M 365.09 164.51 368.58 165.26 374.32 166.17 376.95 166.84 379.56 166.95 384.15 167.95 386.77 167.84 392.59 168.37 397.38 168.31 402.74 169.35 406.16 170.23 408.69 170.32 410.72 169.38 
M 373.76 168.24 376.26 168.92 381.55 169.97 390.25 170.38 393.17 171.08 397.27 171.65 399.67 171.72 402.8 172.29 405.59 173.69 408.38 173.8 410.18 173.16 411.57 173.89 414.12 173.97 417.23 175.09 419.4 176.66 422.47 176.88 425.19 176.87 433.99 177.72 440.38 176.99 442.54 177.38 443.81 178.14 447.69 178.71 450.71 178.25 452.46 179.63 
M 373.53 169.94 381.51 172.32 384.37 172.91 387.84 172.82 390.62 173.32 394.85 174.82 396.68 174.54 399.85 175.28 402.64 176.34 405.27 176.68 407.97 177.5 409.99 178.48 413.64 178.73 416.06 180.19 421.06 182.33 424.03 181.48 427.26 181.61 432.27 182.72 434.75 183.56 
M 368.13 170.1 370.65 171.03 373.37 171.65 378.81 173.72 381.39 174.45 387.04 175.66 389.78 176.04 394.33 178.15 397.25 178.45 400.03 179.41 405.46 180.59 407.74 180.93 409.19 181.61 412.77 184.16 416.07 184.51 418.8 185.08 420.33 186.3 426.27 187.65 434.52 188.65 436.12 190.08 437.44 190.88 447.69 192.18 
M 368.08 171.67 370.49 172.77 373.28 173.55 375.7 174.63 378.47 176.16 386.64 177.87 389.51 178.33 391.98 179.3 395 180.84 397.65 182.44 404.18 184.15 406.48 185.52 408.83 185.69 413.5 188.03 419.47 189.78 421.82 189.4 425.05 189.57 426.42 190.3 428.71 191.17 436.94 195.29 439.46 197.14 442.71 197.97 446.25 197.48 449.74 197.37 453.28 198.73 456.28 199.04 
M 373.1 175.51 378.5 178.12 386.22 180.21 388.99 180.8 391.46 181.68 394.25 183.32 396.91 185.16 399.34 186.04 400.86 187.32 405.14 190.09 407.29 190.85 410.58 191.69 415.55 194 417.45 194.52 420.25 194.47 423.03 195.38 427.18 197.41 432.5 197.07 433.82 199.84 436.01 202.17 439.12 203.47 440.97 203.65 442.95 204.14 
M 372.91 177.44 375.6 178.67 381.15 180.68 383.19 181.98 387.92 183.69 390.68 184.9 393.48 186.46 395.75 188.42 398.27 189.94 400.91 190.55 404.48 193.24 409.46 194.99 414.62 198.52 416.34 198.92 423.36 202.39 425.28 203.5 428.06 204 432.37 206.38 434.27 207.2 436.59 207.74 439.71 207.84 441.58 209.75 444.26 210.78 446.8 212.41 448.51 214.35 
M 365.09 174.75 367.76 176.6 370.32 177.91 375.1 180.7 378.12 181.96 380.54 183.66 387.44 186.15 389.98 187.56 392.36 189.63 395.01 191.53 397.12 192.71 403.06 195.32 407.38 198.36 410.18 200.13 415.23 202.48 
M 367.81 178.09 379.57 185.95 381.83 186.93 386.74 188.55 389.23 190 391.34 192.11 393.42 193.91 399.52 197.36 405.83 202.52 408.59 203.53 411.43 205.05 413.06 206.61 415.76 208.1 
M 296.06 120.64 300.39 126.21 313.62 109.06 315.77 107.73 316.88 105.37 318.84 103.86 321.2 102.74 323.94 102.12 326.95 103.6 329.45 104.58 332.22 104.55 334.61 103.76 337.31 103.28 339.61 103.83 341.5 104.93 344.66 108.95 346.44 110.1 348.11 110.74 351.15 110.72 353.8 111.72 355.57 112.92 355.62 114.33 354.37 115.99 354.02 118.54 354.07 121.36 354.84 124.33 355.28 127.11 355.47 130.05 348.8 144.35 345.37 140.59 
M 300.02 122.09 302.79 120.84 304.33 118.92 305.65 117.95 307.66 117.21 309.48 116.24 310.76 114.1 
M 303.97 123.53 306.54 122.11 309.69 119.76 311.88 118.7 313.83 117.11 315.45 114.67 316.6 112.3 317.31 110.2 318.92 108.41 320.41 105.87 
M 307.89 125.07 310.11 124.37 311.58 123.19 313.6 121.9 315.18 119.51 317.25 117.04 319.07 115.45 
M 311.77 126.72 314.15 125.91 316 124.46 317.79 122.91 321.52 118.86 322.72 117.32 
M 315.65 128.36 318.56 127.47 325.63 121.34 330.5 118.13 332.21 116.72 334.24 114.25 335.57 108.99 
M 319.52 130.01 322.44 129.1 327.97 124.94 330.09 123.65 332.33 121.76 
M 323.39 131.67 326.35 131.2 328.49 129.84 332.01 126.91 334.49 123 336.46 120.84 337.62 119.21 
M 327.27 133.3 330.17 132.61 332.34 131 338.41 124.23 340.16 122.04 
M 331.16 134.91 334.06 133.77 336.43 132.02 339.86 128.58 343.28 124.82 
M 335.06 136.51 338.02 135.16 340.16 133.87 341.43 132.18 344.88 129.34 
M 338.97 138.06 341.63 137.04 343.57 135.91 345.07 134.31 346.82 133.11 
M 342.89 139.61 346.1 139.12 348.31 137.04 
M 55.98 164.79 56.45 163.86 58.02 161.7 60.2 159.17 62.78 156.44 65.96 153.85 70.02 151.48 74.95 149.26 79.72 146.86 84.37 143.95 89.65 141.06 95.41 138.58 107.49 134.1 118.18 130.9 128.39 128.31 130.77 132.03 131.43 135.54 133.39 142.67 134.06 146.18 134.15 149.61 133.75 156.37 132.62 159.6 131.83 162.89 130.8 166.14 127.86 172.5 127.21 175.81 125.25 182.33 123.83 185.52 121.77 188.61 118.56 191.44 109.04 190.88 102.08 190.11 95.88 189.16 85.18 186.83 80.27 185.34 75.79 183.74 71.82 182.03 68.31 180.14 65.39 178.06 
M 114.34 151.83 113.91 154.7 111.05 159.93 109.41 162.25 105.84 166.17 104.95 169.9 104.92 173.61 104.64 175.65 103.59 177.88 88.33 177.42 84.04 177.1 79.83 176.58 75.67 175.61 71.85 174.3 
M 58.41 173.08 53.51 168.91 52.46 167.01 53.34 165.01 55.31 164.36 57.11 165.5 61.61 172.64 65.49 177.96 
M 65 178.66 52.64 174.9 50.65 174.02 49.94 172.05 50.96 170.15 53.12 169.66 54.98 170.67 61.77 175.61 65.35 177.86 
M 85.21 161.25 83.38 158.69 82.48 155.67 82.61 152.52 83.75 149.58 85.79 147.18 88.5 145.56 91.58 144.92 94.71 145.31 97.54 146.69 99.77 148.92 101.16 151.75 101.55 154.88 100.9 157.96 99.29 160.67 96.88 162.71 93.94 163.85 90.79 163.98 87.77 163.08 85.21 161.25 
M 98.21 150.03 99.32 152.3 99.63 154.8 99.11 157.27 97.82 159.43 95.9 161.06 93.55 161.98 91.03 162.08 88.61 161.36 86.56 159.9 
M 88.64 156.56 87.91 155.53 87.55 154.32 87.6 153.07 88.06 151.89 88.87 150.93 89.96 150.28 91.19 150.02 92.44 150.18 93.57 150.73 94.46 151.63 95.02 152.76 95.17 154.01 94.92 155.24 94.27 156.33 93.31 157.14 92.13 157.6 90.87 157.65 89.67 157.29 88.64 156.56 
M 88.55 156.39 88.95 156.78 
M 89.8 155.36 92.05 157.6 
M 90.18 153.46 93.61 156.89 
M 91.81 152.82 94.66 155.67 
M 92.96 151.69 95.16 153.9 
M 57.12 162.94 61.43 167.25 
M 59.37 160.13 63.25 164.02 
M 61.78 157.5 65.73 161.44 
M 64.44 155.09 68.56 159.22 
M 67.4 153.01 71.99 157.6 
M 70.64 151.2 75.69 156.25 
M 74.13 149.63 78.9 154.4 
M 77.52 147.97 82.14 152.59 
M 80.79 146.19 83.95 149.35 
M 83.9 144.24 86.44 146.79 
M 87.14 142.43 89.97 145.26 
M 90.47 140.7 94.71 144.95 
M 94 139.18 97.33 142.51 
M 97.61 137.74 100.51 140.65 
M 101.27 136.35 105.01 140.09 
M 104.98 135.01 109.04 139.07 
M 108.73 133.71 112.47 137.44 
M 112.58 132.5 115.88 135.8 
M 116.5 131.37 120.73 135.6 
M 120.46 130.28 124.77 134.59 
M 124.48 129.24 129.28 134.05 
M 106.53 135.93 105.38 136.12 105.05 136.49 103.63 139.74 102.65 141.39 102.4 142.5 
M 101.53 160.45 101.52 159.31 102.02 158.46 102.61 158.14 102.98 158.3 103.21 158.61 
M 109.72 159.54 109.53 160.51 109.92 161.15 110.46 161.38 111.42 161.23 
M 84.74 144.1 85.39 144.45 86.22 145.21 86.58 146.08 86.64 146.67 
M 111.86 178.76 110.99 177.38 110.01 176.36 109.58 174.76 108.97 174.49 108.17 174.71 
M 102.77 135.8 103.41 136.61 103.58 138.2 103.4 139.52 102.62 141.21 102.37 142.39 
M 123.89 165.41 126.79 163.9 128.72 163.67 129.16 163.38 129.42 162.98 
M 127.57 165.28 130.46 165.57 
M 119.11 139.26 117.61 139.13 116.06 139.34 113.69 138.7 112.91 138.62 110.86 138.91 109.52 139.32 
M 110.46 174.62 109.57 174.12 109.12 174.05 107.59 174.58 105.77 174.39 104.97 174.45 
M 87.4 169.53 84.31 172.66 84 173.21 83.52 175.02 82.72 176.23 
M 64.14 161.21 65.82 162.67 66.52 163.6 68.64 165.59 69.07 165.84 70.45 165.75 
M 131.88 137.38 130.89 138 130.26 139.03 129.5 139.74 
M 102.05 153.9 101.51 154.59 
M 101.18 156.64 101.4 156.72 
M 79.23 178.27 79.32 175.67 78.67 174.21 78.23 173.72 
M 110.92 161.82 111.82 161.35 113.56 159.55 114.48 159.11 114.98 159.06 
M 114.82 176.5 113.26 175.99 111.56 174.85 109.43 173.98 108.93 173.96 107.68 174.47 107.01 174.52 
M 122.14 155.56 123.38 158.16 124.22 158.77 
M 122.28 180.78 122.35 181.09 122.68 181.34 123.73 181.49 125.32 182.08 
M 111.15 171.73 108.96 172.29 107.23 173 103.89 174.73 
M 67.05 166.7 67.43 166.56 69.21 166.68 70.05 166.52 71.78 166.04 72.9 165.55 73.63 164.67 73.85 163.23 
M 128.91 161.37 128.84 161.18 
M 94.29 139.06 97.97 140.21 99.73 141.45 100.76 142.59 102.14 143.75 
M 122.51 143.22 122.76 144.23 123.09 144.75 127.89 148.18 128.59 149.23 
M 62.5 163.2 61.89 163.74 60.96 163.76 60.31 163.53 59.42 162.47 58.84 160.75 
M 101.46 137.33 102.52 138.09 103.05 138.76 103.06 139.81 102.59 141.01 102.36 142.23 102.46 143.33 
M 83.47 182.89 83.36 181 82.39 180.07 
M 123.3 167.31 125.92 166.17 127.31 165.78 128.37 165.89 130.04 166.48 
M 131.31 134.92 130.7 135.22 130.14 135.21 
M 109.8 177.69 109.03 176.16 108.79 175.15 108.55 174.95 107.37 174.67 
M 80.23 164.62 80.79 164.97 81.21 165.78 81.71 167.12 82.41 169.87 81.54 172.06 
M 123.94 180.23 125.52 181.37 
M 110.98 149.71 109.15 150.21 106.78 151.4 105.9 152.03 105.46 152.73 105.4 153.12 105.43 155.06 
M 73.49 156.65 70.45 156.45 69.16 155.49 68.45 154.46 
M 107.8 155.49 105.81 159.45 105.8 160.03 
M 123.86 149.85 125.54 151.63 125.7 152.39 125.45 153.57 
M 66.01 166.32 66.88 166.31 
M 103.77 190.3 105.36 187.67 106.83 186.07 108.01 184.3 108.5 182.47 
M 77.14 169.54 78.07 169.91 79.47 171.57 80.03 172.88 80.02 173.43 79.74 173.88 
M 115.84 153.36 117.97 153.04 118.92 152.46 119.16 152.04 
M 104.28 177.45 104.69 177.55 105.06 177.4 105.38 176.96 105.55 176.28 105.35 175.16 104.98 174.76 104.64 174.64 
M 118.55 137.9 117.18 137.39 114.7 135.85 109.53 134.63 107.85 133.99 
M 108.18 159.4 107.74 160.02 107.81 160.46 108.8 161.58 109.89 162.06 
M 78 162.05 78.78 161.39 79.74 161.15 80.31 161.17 82.69 161.85 84.45 161.99 86.65 162.4 
M 108 141.96 107.03 142.75 106.36 142.94 104.87 143.01 103.5 142.73 102.72 143.2 
M 86.63 183.44 87.56 182.89 89.13 182.39 90.27 180.96 91 176.48 90.93 175.66 90.65 175.11 
M 111.82 139.76 110.84 139.84 109.22 140.43 106.9 142.25 104.7 142.71 103.77 142.6 
M 116.09 184.78 115.38 185.05 115.05 184.88 114.44 182.85 113.19 181.34 
M 99.42 178.74 99.18 181.19 98.9 181.96 98.51 182.49 97.54 183.21 96.88 183.48 96.56 183.29 
M 78.31 174.07 77.68 173.24 77.68 173.04 77.93 173 
M 64.51 158.01 65.89 157.4 65.9 156.09 
M 89.12 175.92 89.77 175.24 89.85 174.03 89.55 173.51 
M 125.5 159.77 128.14 160.54 128.83 161.17 
M 120.29 143.32 115.47 147.1 114.35 147.69 109.81 148.38 108 148.28 
M 125.86 175.33 127.44 174.63 
M 59.92 177.19 62.71 178.93 65.19 180.24 67.73 181.34 70.35 182.25 75.79 183.74 
M 129.11 129.43 133.21 133.53 
M 132.83 126.41 138.97 132.55 
M 137.58 124.43 146.57 133.41 
M 142.46 122.57 149.18 129.29 
M 147.36 120.73 153.92 127.29 
M 152.36 119 157.65 124.28 
M 157.38 117.28 164.99 124.89 
M 162.53 115.69 172.13 125.29 
M 167.68 114.11 173.04 119.46 
M 172.78 112.47 182.72 122.41 
M 177.89 110.84 182.97 115.92 
M 183.27 109.48 190.45 116.66 
M 188.7 108.18 195.46 114.94 
M 194.38 107.12 202.9 115.64 
M 200.16 106.17 206.93 112.94 
M 206.07 105.34 212.89 112.16 
M 212.48 105.01 219.62 112.15 
M 219.05 104.85 224.36 110.15 
M 225.72 104.77 233.82 112.87 
M 232.3 104.62 240.3 112.62 
M 239.19 104.77 246.38 111.96 
M 246.87 105.71 256.93 115.77 
M 255.75 107.86 261.62 113.73 
M 265.27 110.64 271.62 116.99 
M 275.35 113.99 282.75 121.38 
M 285.37 117.26 294.42 126.32 
M 295.22 120.38 303.66 128.82 
M 305.76 124.18 311.74 130.16 
M 317.44 129.12 324.64 136.33 
M 329.11 134.06 335.17 140.12 
M 340.42 138.64 347.67 145.88 
M 351.63 143.11 359.74 151.22 
M 362.78 147.52 372.17 156.91 
M 373.87 151.88 374.92 152.92 
"/></svg>