<svg xmlns="http://www.w3.org/2000/svg" width="520" height="320"><rect x="0" y="0" width="520" height="320" fill="floralwhite"/><rect x="10" y="10" width="500" height="300" stroke="black" stroke-width="1" fill="none"/><path stroke="black" stroke-width="1" fill="none" stroke-linecap="round" stroke-linejoin="round" d="
M 154.54 98.83 163.23 94.24 174.62 88.91 180.39 86.4 197.91 79.4 203.88 77.43 209.93 75.7 216.05 74.26 222.24 73.15 228.5 72.54 247.36 72.05 253.65 72.29 259.86 73.25 265.88 75.08 271.83 77.12 277.71 79.35 306.71 91.51 312.42 94.15 340.17 108.94 374.25 126.08 
M 374.25 168.51 348.28 184.49 337.42 190.85 320.7 199.58 314.95 202.14 297.54 209.39 291.59 211.45 285.57 213.25 273.38 216.36 267.22 217.65 260.98 218.44 254.72 219.01 248.43 219.21 242.15 218.99 229.57 219.11 223.28 218.98 217.08 217.93 210.99 216.35 204.96 214.57 187.08 208.55 181.07 206.69 175.17 204.53 169.36 202.12 163.66 199.46 145.8 189.62 
M 174.45 134.62 176.2 134.73 179.21 134.47 180.52 134.14 
M 185.67 132.75 191.03 131.59 
M 194 131.31 198.89 131.39 204.2 131.91 
M 218.48 133.47 222.77 132.91 228.13 131.79 229.6 131.64 
M 232.52 131.35 235.34 130.98 
M 237.95 130.38 241.75 129.4 244.65 129.11 250.93 129.27 257.81 129 
M 260.59 129.03 272.54 130.18 
M 275.26 130.27 279.51 130.57 288.56 131.61 292.02 132.21 300.02 134.42 303.54 135.03 310.01 135.65 311.81 136 
M 315.54 136.8 321.24 137.98 324.68 138.33 334.63 138.71 337.78 138.62 348.51 137.75 
M 351.6 137.56 361.61 136.39 364.67 136.37 372.46 137.07 
M 148.9 184.58 150.19 189.33 150.7 192.34 
M 151.57 176.92 153.88 184.23 
M 160.54 190.41 160.89 193.24 
M 162.66 99.81 161.87 102.73 
M 161.97 175.9 163.64 182.75 
M 164.13 111.4 163.58 114.54 
M 161.17 123.32 160.78 124.81 160.03 129.71 
M 167.35 173.57 167.62 175.48 
M 170.15 191.09 172.06 200.61 
M 168.13 121.73 167.54 124.84 
M 166.79 131.85 166.69 133.94 
M 174.33 176.01 174.87 181.91 
M 175.37 187.7 175.89 190.84 
M 177.19 197.26 179.22 206.01 
M 178.02 94.46 176.76 96.83 
M 175.6 99.27 175.06 100.52 174.26 103.31 174.12 104.97 
M 174.78 116.46 175.03 120.35 
M 175.14 124.11 175.12 125.92 174.03 134.63 
M 180.63 173.23 181.14 179.18 
M 181.31 182.05 181.8 187.9 
M 182.28 191.02 183.46 197.35 
M 184.21 200.61 185.76 207.02 
M 183.5 99.11 181.8 102.76 180.99 105.51 180.46 108.54 180.19 113.64 
M 180.32 117.37 180.68 121.34 
M 180.93 125.22 180.83 128.75 
M 186.36 170.58 186.67 172.88 
M 186.93 175.9 187.27 180.35 187.86 185.02 
M 188.72 191.24 189.38 195.82 189.75 197.46 
M 191.49 204.15 193.1 210.57 
M 191.05 91.34 190.97 96.65 190.58 99.83 189.53 104.1 
M 188.77 106.87 186.75 113.7 186.13 116.64 186.08 118.38 
M 186.23 125.71 186.22 127.5 185.47 132.77 
M 191.73 167.84 191.96 168.98 
M 192.96 178.33 193.23 181.36 
M 193.56 184.44 194.75 193.71 
M 195.41 196.95 196.36 200.41 
M 197.51 204 198.6 207.47 
M 199.35 210.53 199.72 212.88 
M 197.34 93.36 197.39 100.54 
M 197.18 103.86 196.64 108.61 195.97 111.45 191.77 121.41 191.01 124.23 190.78 127.59 190.89 131.56 
M 199.21 178.19 200.2 187.47 
M 200.59 190.59 201.4 195.39 204.97 208.75 205.37 212.54 
M 203.68 95.54 203.41 97.05 202.84 105.32 
M 202.13 111.61 201.56 114.54 
M 200.8 117.3 199.82 119.86 
M 198.66 122.25 198.06 123.42 197.67 124.82 
M 203.4 164.24 203.51 164.79 
M 205.41 175.19 205.89 178.48 
M 206.28 181.67 206.58 184.75 
M 206.83 187.78 207.18 190.87 
M 208.61 197.62 209.98 203.97 
M 210.37 206.74 210.7 211.61 
M 210.62 213.71 210.56 214.73 210.73 216.27 
M 210.65 94.93 209.69 99.3 208.68 105.34 207.79 113.18 
M 207.56 116.45 207.43 118.08 206.88 121.06 206.42 122.37 
M 204.8 127.84 204.39 130.62 
M 209.43 161.46 209.98 164.87 
M 210.57 168.31 211.2 171.78 
M 211.81 175.22 212.34 178.57 
M 213.11 184.95 213.54 188.17 
M 213.97 191.36 214.91 197.66 
M 215.78 203.53 216.32 207.63 216.53 210.11 216.47 211.15 
M 216.23 215.22 216.3 216.35 216.61 217.62 
M 216.39 100.41 214.96 106.01 
M 212.95 125.04 211.99 133.23 
M 212.86 138.4 213.56 141.97 
M 216.96 162.61 217.03 165.56 
M 217.96 175.02 218.99 183.11 220.36 190.05 221.16 197.61 
M 221.8 203.28 222.16 206.04 
M 222.44 208.63 222.53 210.97 
M 222.49 213.13 222.62 215.4 
M 223.51 89.92 223.06 93.04 
M 222.53 96.07 220.58 106.45 219.56 114.16 
M 219.27 117.38 219.17 119.04 219.27 126.2 218.92 131.52 
M 224.33 174.89 224.8 178.19 
M 225.25 181.46 225.73 184.75 
M 226.21 188.03 226.95 194.28 
M 227.46 200.02 228.05 207.84 
M 228.31 210.37 228.71 212.99 
M 229.25 215.7 230.01 219.1 
M 230.47 83.11 230.53 86.76 
M 228.53 99.02 227.81 101.83 
M 227.15 104.68 226.36 109.14 225.35 116.89 
M 225.05 120.12 224.5 130.54 
M 228.32 158.05 228.82 161.43 
M 229.27 167.62 231.31 181.03 
M 233.11 191.22 233.8 198.63 233.77 201.15 233.47 204.51 
M 233.41 206.82 233.45 208.03 234.39 212.35 
M 236.85 90.15 236.83 91.92 236.16 96.59 
M 234.8 102.3 233.52 106.3 232.96 109.23 232.28 115.56 231.04 123.17 
M 230.2 129.72 230 131.57 
M 233.09 149.73 233.21 150.62 
M 234.13 163.11 234.66 166.51 
M 235.7 173.28 236.32 178.17 238.66 188.95 238.88 190.55 
M 239.49 196.59 239.59 200.58 239.04 204.95 239.11 206.21 
M 240.45 212.18 241.54 215.51 
M 241.2 77.13 241.38 80.89 
M 241.55 84.63 241.87 92.08 
M 241.3 102.12 240.12 106.21 239.31 110.65 
M 238.37 116.74 237.44 121.13 235.86 130.94 
M 238.95 158.68 239.92 168.32 
M 240.44 171.72 242.84 184.06 243.75 191.91 
M 244.62 198.1 244.84 200.87 
M 244.95 203.46 245.2 206.15 
M 245.85 209.18 248.59 217.69 248.93 219.19 
M 247.72 91.68 247.95 95.45 
M 248.06 99.1 248.05 100.85 247.62 103.94 246.16 111.24 
M 245.48 114.08 243.26 120.73 240.97 129.55 
M 243.24 147.83 243.66 154.1 
M 243.95 160.23 244.12 164.77 244.36 166.44 
M 245.01 169.98 245.94 173.78 
M 247.57 181.09 248.79 192.05 251.44 206.24 
M 253.04 212.65 253.83 215.79 
M 254.42 218.71 254.48 219.02 
M 254.08 92.59 253.72 97.52 253.74 102.82 
M 253.62 106.21 253.32 109.42 
M 252.9 112.51 252.32 115.46 
M 251.39 118.09 250.24 120.51 
M 249.13 122.99 247.33 128.03 
M 250.42 169.15 252.37 175.41 253.32 179.22 253.65 182.37 253.8 188.11 254.15 191.21 255.24 197.6 256.46 202.66 
M 258.81 212.41 259.42 215.42 
M 259.98 83.51 260.23 87.28 
M 260.03 94.13 259.78 102.65 259.43 107.55 
M 259.08 110.71 258.39 115.3 257.52 117.99 255.3 122.95 253.16 129.19 
M 253.75 145.98 254.28 149.49 
M 254.79 152.95 255.14 156.26 
M 255.24 159.31 255.3 163.78 255.85 167.24 257.85 175.01 258.97 180.4 
M 260.79 193.29 261.56 198.04 262.75 203.1 
M 263.62 206.5 265.73 217.84 
M 266.04 92.49 265.49 102.43 
M 264.8 108.72 264.02 113.2 263.6 114.56 
M 262.66 117.18 261.67 119.78 
M 260.79 122.5 259.55 126.71 259.07 127.83 
M 261.4 159.94 261.39 162.87 
M 262.38 169.7 265.3 182.63 265.9 186.02 267.39 198.32 269.19 206.57 
M 269.84 209.74 270.44 212.86 
M 271.4 216.77 271.4 216.78 
M 272.07 87.69 271.85 90.95 
M 271.46 97.51 270.23 108.46 269.61 111.34 267.9 116.73 266.78 121.01 
M 266.12 123.98 265.16 127.42 
M 264.42 130.73 264.37 133.64 
M 265.91 144.14 266.36 147.57 
M 266.95 154.15 267.17 157.35 
M 267.85 166.88 270.75 179.85 271.4 184.72 
M 271.76 187.84 272.72 194.24 
M 273.17 197.34 273.7 200.5 
M 274.43 203.83 275.17 207.14 
M 275.84 210.36 277 215.47 
M 276.22 95.27 275.73 103.43 275.43 106.59 275.14 108.04 
M 274.46 110.86 273.29 114.99 272.64 117.93 270.99 128.74 
M 272.31 145.1 272.67 148.46 
M 272.92 151.72 273.52 158.3 
M 274.08 164.79 274.93 170.03 277.38 182.48 
M 278 185.89 279.33 196.72 281.73 208.27 
M 282.53 211.63 283.09 213.9 
M 280.46 95.98 280.43 99.39 
M 280.41 102.8 280.35 104.46 279.41 108.74 
M 278.67 111.51 277.88 116.05 277.4 120.96 
M 277.09 124.28 276.3 130.3 
M 277.25 138.73 277.94 142.43 
M 279.59 153.12 280.24 156.77 
M 281.48 163.97 282.26 170.63 
M 282.4 173.67 282.57 176.71 
M 282.97 179.95 283.86 185.04 285.03 194.4 289.04 212.21 
M 285.46 97.44 284.38 111.93 283.6 118.25 283.06 124.93 282.28 130.92 
M 284.33 146.52 285.88 154.1 
M 286.81 158.03 287.65 161.86 
M 288.89 174.82 288.82 179.04 289.91 188.47 290.48 191.76 293.42 203.99 
M 294.09 207.26 294.76 210.35 
M 293.85 88.59 293.04 91.19 
M 291.7 96.67 291.19 99.57 
M 290.73 105.97 290.83 111.29 290.63 114.6 289.82 119.14 
M 289.43 122.34 289.15 125.68 
M 290.13 146.92 291.06 150.86 
M 293.13 158.94 293.96 162.75 
M 294.55 166.3 295 171.15 294.87 179.6 295.02 182.55 295.26 185.55 296.06 190.43 
M 296.94 193.99 300.84 208.04 
M 298.79 93.46 298.25 96.32 
M 297.15 102.01 296.76 106.77 296.52 113.5 295.74 123.4 295.97 129.05 
M 296 132.12 295.96 133.3 
M 296.73 144.6 297.01 146.38 299 154.38 299.76 158.13 300.21 161.55 300.84 170.95 300.78 178.02 
M 300.79 180.82 301.04 185.2 301.6 188.48 303.51 195.74 306.43 205.73 
M 303.96 98.61 303.09 109.68 302.72 121.59 
M 302.8 125.24 303.39 131.21 303.58 135.03 
M 305.84 156.67 305.97 159.75 
M 306.04 162.76 306.27 167.35 306.99 173.79 307.76 184.29 
M 308.06 187.31 308.57 191.85 309.36 195.3 311.65 202.93 
M 309.69 104.62 309.39 109.41 309.5 114.68 
M 309.57 121.72 310.15 135.67 
M 312.31 159.92 312.61 167.43 313.33 173.82 313.44 176.72 313.98 182.78 314.71 188.93 315.87 194.11 
M 316.9 197.72 317.43 199.51 
M 315.13 106.9 315.06 110.2 
M 315.26 113.79 316.55 125.37 
M 317.48 133.25 317.75 137.32 
M 319.6 152.34 319.56 155.21 
M 319.32 160.74 319.12 164.84 319.18 167.74 319.47 173.65 319.78 176.75 321.28 186.48 323.42 195.99 
M 321.76 103.71 321.52 106.76 
M 321.34 109.89 321.4 113.28 
M 321.76 116.97 322.86 124.8 
M 323.58 128.9 324.67 135.08 325.02 138.35 
M 326.59 150.07 326.7 153.06 
M 326.74 155.98 326.4 162.8 326.38 169.84 
M 326.54 172.81 327.83 182.42 
M 328.23 185.57 329.3 192.18 
M 328.49 113.64 328.8 118.84 329.58 124.54 
M 330.22 128.47 331.23 134.42 331.74 138.63 
M 332.61 146.7 333.98 155.24 333.98 158.09 333.25 168.71 333.21 171.48 334.97 188.07 
M 334.89 110.15 335.13 118.33 335.52 121.9 337.29 131.64 
M 339.73 150.08 340.5 155.14 340.48 157.98 340.02 164.63 
M 340.03 170.32 340.16 174.69 340.07 180.25 340.25 183.55 
M 341.54 113.28 341.68 118.05 342.29 123.27 
M 342.95 127.01 343.92 132.59 344.45 138 
M 344.78 142.65 345.18 145.93 
M 345.86 149.48 346.74 154.67 346.79 156.15 
M 346.6 161.7 345.97 171.12 345.08 178.63 
M 347.75 115.99 348.96 121.65 349.51 125.17 350.77 137.63 
M 350.88 139.19 351.09 142.31 
M 352.36 152.3 352.57 153.96 352.64 156.94 352.29 160.95 
M 352 163.57 351.46 167.41 350.19 174.11 
M 355.12 122.73 356.3 130.98 356.75 137.04 
M 356.78 141.5 356.99 144.66 
M 357.36 147.98 357.86 152.91 357.82 158.8 357.19 164.13 356 170.5 
M 252.89 186.83 252.24 187.03 250.44 187.14 246.39 186.24 244.92 186.45 243.83 186.28 
M 238.41 117.25 240.86 119.02 243.12 119.6 244.81 120.69 247.07 121.31 
M 329.58 148.04 327.81 146.75 325.5 145.67 
M 319.3 156.74 317.53 156.54 315.63 155.93 313.84 155.06 312.35 153.81 311.59 152.88 311.37 152.34 
M 183.31 143.04 182.36 142.53 
M 265.73 176.67 263.17 176.97 262.51 176.9 260.35 175.23 259.49 174.82 
M 229.54 107.21 229.58 107.47 230.07 107.89 232.17 108.81 
M 208.55 192.29 207.22 193.02 206.3 194.28 204.48 195.83 
M 330.88 134.45 329.81 132.92 328.67 130.05 328.58 128.46 
M 317.06 144.98 318.67 143.64 319.07 142.62 
M 351.13 126.99 349.13 126.44 346.38 126.33 345.69 126.04 
M 202.51 141.97 203 140 203.77 139.67 
M 236.55 77.63 237.45 77.87 237.54 77.59 
M 265.6 178.1 263.62 178.57 262.92 178.57 262.34 178.37 261.35 176.67 259.88 175.1 
M 166.2 98.2 163.01 98.91 162.16 98.49 161.12 97.62 
M 309.09 155.72 307.96 154.13 308.01 153.31 308.64 152.4 310.33 151.52 
M 246.41 116.71 247.45 116.93 249.25 118.01 249.95 118.63 250.86 119.71 251.89 121.98 
M 229.67 218.91 229.49 217.63 229.54 216.29 229.4 215.92 228.8 215.16 227.43 214.01 
M 183.38 132.34 185.2 131.52 185.13 130.55 
M 235.93 131.07 234.83 132.68 234.48 134.05 234.74 135.35 235.74 136.69 
M 282.9 131.08 281.58 131.38 278.06 132.76 276.42 133.81 
M 297.52 174.16 298 173.69 298.66 173.37 299.23 171.71 
M 179.54 86.39 180.92 86.17 
M 190.35 82.13 187.53 55.38 188.3 55.27 193.04 81.39 
M 201.21 77.96 199.26 43.18 200.03 43.11 203.95 77.41 
M 212.41 74.78 213.65 37.23 214.42 37.24 215.19 74.46 
M 223.84 72.49 230.26 30 231.03 30.09 226.63 72.62 
M 235.47 72.01 245.2 31.01 245.95 31.17 238.25 72.29 
M 247.1 71.63 259.45 32.66 260.19 32.88 249.9 71.97 
M 258.73 72.66 276.67 38.11 277.37 38.45 261.33 73.68 
M 269.89 76.05 295.25 40.06 295.9 40.49 272.38 77.33 
M 280.72 80.29 305.54 48.49 306.16 48.95 283.15 81.68 
M 291.43 84.78 310.28 61.33 310.9 61.8 293.86 86.16 
M 302.22 89.11 318.29 70.3 318.9 70.78 304.62 90.54 
M 312.79 93.97 324.99 81.7 325.57 82.21 315.08 95.56 
M 320.5 98.07 321.52 99.03 
M 181.45 85.97 184.84 77.05 186.45 70.86 187.36 64.51 187.82 58.05 
M 188.78 57.92 191.88 56.1 194.63 53.96 196.87 51.33 199.45 46.65 
M 200.42 46.57 203.73 46.25 206.84 45.49 209.68 44.08 213.52 40.99 
M 214.5 40.99 220.09 39.97 223.52 38.64 226.66 36.65 229.62 34.24 
M 230.59 34.37 233.56 35.53 236.56 36.22 239.61 36.2 244.22 35.11 
M 245.18 35.31 247.98 36.58 250.83 37.39 253.74 37.48 258.21 36.56 
M 259.15 36.83 262.36 38.84 265.7 40.39 269.25 41.27 274.88 41.56 
M 275.76 41.99 279.43 43.35 283.14 44.25 286.93 44.44 292.72 43.66 
M 293.53 44.2 295.88 47.75 297.88 49.55 300.32 50.79 303.05 51.67 
M 303.84 52.25 304.11 56.56 304.95 59.16 306.46 61.51 308.39 63.68 
M 309.17 64.26 310.7 67.82 312.24 69.71 314.29 71.11 316.68 72.18 
M 317.45 72.79 318.01 75.57 318.97 78.1 320.53 80.25 323.77 82.92 
M 324.5 83.57 322.79 86.72 321.53 89.96 320.97 93.36 321.16 98.69 
M 190.35 57.03 193.31 55.08 194.63 53.96 196.87 51.33 198.65 48.27 
M 191.94 62.36 194.21 60.87 195.22 60.01 196.94 57.99 198.3 55.65 
M 193.53 67.7 195.81 66.06 197.01 64.66 197.96 63.02 
M 202.09 46.44 205.32 45.94 206.84 45.49 209.68 44.08 212.28 42.09 
M 203.16 51.67 205.82 51.26 207.08 50.89 209.42 49.72 211.56 48.08 
M 204.23 56.9 206.33 56.57 208.26 55.88 210.85 54.07 
M 205.3 62.12 207.56 61.67 208.9 61 210.14 60.06 
M 216.39 40.73 220.09 39.97 223.52 38.64 225.13 37.72 228.15 35.48 
M 216.94 46.5 219.99 45.88 221.43 45.4 224.14 44.02 226.64 42.17 
M 217.49 52.28 219.88 51.78 222.12 50.92 225.13 48.87 
M 218.03 58.05 220.62 57.42 222.18 56.62 223.62 55.56 
M 232.07 34.98 235.06 35.96 236.56 36.22 239.61 36.2 242.68 35.56 
M 231.93 40.23 234.49 41.07 235.79 41.3 238.4 41.28 241.05 40.73 
M 231.78 45.48 233.93 46.18 235.01 46.38 237.2 46.36 239.42 45.9 
M 231.63 50.73 234.24 51.45 236 51.44 237.79 51.07 
M 231.49 55.98 232.8 56.41 234.13 56.57 236.15 56.24 
M 246.58 35.98 249.4 37.06 250.83 37.39 253.74 37.48 256.71 36.95 
M 246.02 41.05 248.45 41.98 250.92 42.37 252.18 42.33 254.74 41.88 
M 245.47 46.11 247.5 46.89 249.58 47.22 250.63 47.19 252.77 46.81 
M 244.92 51.18 247.39 51.99 249.08 52.05 250.8 51.74 
M 244.37 56.24 246.24 56.86 247.52 56.9 248.83 56.67 
M 260.74 37.86 264 39.69 265.7 40.39 269.25 41.27 272.98 41.54 
M 259.83 42.73 262.63 44.31 264.09 44.91 267.14 45.66 270.35 45.9 
M 258.91 47.6 261.26 48.92 263.74 49.8 265.04 50.05 267.72 50.25 
M 258 52.47 260.88 53.94 262.93 54.45 265.1 54.61 
M 257.09 57.34 258.52 58.15 260.04 58.69 262.47 58.96 
M 277.59 42.7 281.28 43.88 285.03 44.44 286.93 44.44 290.78 44 
M 275.9 47.23 279.07 48.24 280.68 48.56 283.93 48.72 287.24 48.35 
M 274.21 51.76 276.86 52.61 278.21 52.87 280.94 53.01 283.71 52.7 
M 272.52 56.29 275.74 57.19 277.94 57.3 280.17 57.04 
M 270.83 60.82 272.45 61.34 274.1 61.58 276.63 61.39 
M 294.26 45.45 295.88 47.75 297.88 49.55 299.05 50.24 301.67 51.26 
M 291.76 50.14 293.15 52.12 294.88 53.67 295.89 54.26 298.14 55.14 
M 289.27 54.84 290.43 56.49 291.88 57.79 292.72 58.28 294.6 59.02 
M 286.78 59.53 287.71 60.86 288.88 61.91 291.07 62.9 
M 284.28 64.22 284.99 65.23 285.87 66.03 287.54 66.78 
M 303.85 53.72 304.11 56.56 304.95 59.16 305.63 60.36 307.39 62.6 
M 299.96 60.64 300.16 62.81 300.81 64.81 301.33 65.73 302.68 67.45 
M 296.08 67.55 296.21 69.07 296.66 70.46 297.97 72.29 
M 309.62 65.51 310.7 67.82 312.24 69.71 313.21 70.46 315.46 71.67 
M 306.89 70.71 307.72 72.48 308.9 73.93 309.64 74.51 311.37 75.43 
M 304.17 75.91 305.12 77.68 306.08 78.55 307.28 79.19 
M 317.7 74.19 318.42 76.87 318.97 78.1 320.53 80.25 322.62 82.08 
M 314.51 80.58 314.97 82.32 315.78 83.85 317.7 85.7 
M 158.84 141.56 253.03 142.48 253.03 143.25 158.37 144.16 
M 158.24 145.02 243.07 149.2 243.04 149.97 157.84 147.6 
M 157.68 148.44 233 155.15 232.94 155.92 157.17 150.99 
M 157.01 151.81 222.87 160.34 222.78 161.1 156.32 154.32 
M 156.11 155.08 212.71 164.75 212.6 165.52 155.4 157.57 
M 155.19 158.29 202.58 168.41 202.43 169.17 154.48 160.75 
M 154.29 161.42 192.51 171.3 192.34 172.05 153.97 163.96 
M 153.88 164.64 182.56 173.44 182.35 174.18 153.51 167.13 
M 153.37 167.81 172.75 174.83 172.52 175.57 152.89 170.2 
M 152.74 170.94 163.14 175.49 162.88 176.21 152.35 173.2 
M 152.14 174.41 153.76 175.47 153.47 176.19 151.86 175.87 
M 242.61 143.35 240.1 143.7 237.84 144.44 235.94 145.79 233.65 148.73 
M 233.61 149.71 231.15 149.87 228.9 150.44 226.98 151.65 224.59 154.4 
M 224.52 155.37 222.11 155.35 219.88 155.76 217.95 156.82 215.48 159.38 
M 215.37 160.35 213.02 160.15 210.83 160.39 208.89 161.3 206.34 163.66 
M 206.19 164.63 203.92 164.26 201.78 164.34 199.84 165.1 197.23 167.26 
M 197.04 168.22 193.8 167.56 191.79 167.82 189.93 168.77 188.17 170.18 
M 187.95 171.13 185.86 170.43 183.85 170.19 181.93 170.66 179.22 172.41 
M 178.96 173.35 176.01 172.22 174.09 172.18 172.23 172.85 170.4 173.98 
M 170.1 174.91 167.32 173.56 165.47 173.37 163.61 173.89 161.75 174.88 
M 161.42 175.8 159.7 174.67 157.93 174 156.12 174.05 153.32 175.18 
M 241.34 143.5 238.93 144 237.84 144.44 235.94 145.79 234.37 147.68 
M 219.74 143.71 217.9 144.09 216.3 144.89 215.61 145.47 214.4 146.92 
M 198.15 143.92 196.86 144.19 195.75 144.74 194.43 146.15 
M 232.36 149.76 229.99 150.08 228.9 150.44 226.98 151.65 225.35 153.41 
M 212.86 149.23 211.04 149.48 210.21 149.76 208.73 150.68 207.48 152.03 
M 193.36 148.71 192.09 148.88 190.98 149.35 189.62 150.65 
M 223.3 155.33 220.96 155.48 219.88 155.76 217.95 156.82 216.27 158.45 
M 197.22 153.68 195 153.95 193.74 154.64 192.65 155.7 
M 214.18 160.22 211.89 160.19 210.83 160.39 208.89 161.3 207.16 162.8 
M 191.29 157.94 189.81 157.92 188.46 158.29 186.73 159.61 
M 205.05 164.41 202.83 164.22 201.78 164.34 199.84 165.1 198.08 166.46 
M 185.36 161.75 183.23 161.7 181.97 162.19 180.82 163.08 
M 195.94 167.92 193.8 167.56 191.79 167.82 190.84 168.22 189.04 169.44 
M 186.9 170.75 184.84 170.23 183.85 170.19 181.93 170.66 180.11 171.75 
M 182.09 205.89 201.91 238.69 201.26 239.11 179.74 207.39 
M 180.71 205.48 181.18 206.47 
M 186.07 216.72 199.96 245.83 199.27 246.18 178.22 206.74 
M 179.31 205.08 179.65 206.01 
M 183.43 216.49 196.64 253.14 195.92 253.42 176.71 206.07 
M 177.9 204.68 178.11 205.53 
M 180.76 216.07 191.91 260.42 191.16 260.63 175.21 205.4 
M 176.48 204.28 176.59 205.03 
M 178.12 215.49 185.76 267.47 185 267.59 173.72 204.73 
M 175.04 203.89 175.07 204.51 
M 175.53 214.82 178.22 274.07 177.45 274.12 172.25 204.06 
M 173.52 203.48 173.49 203.98 
M 172.96 213.57 169.27 280 168.5 279.96 170.74 203.36 
M 199.11 235.94 197.43 237.65 197.01 238.92 197.3 240.32 198.04 241.8 
M 197.17 242.24 195.73 243.25 194.73 244.42 194.4 245.84 194.91 248.34 
M 194 248.68 192.35 249.56 191.12 250.67 190.5 252.13 190.51 254.85 
M 189.57 255.1 186.93 256.29 185.74 257.52 185.1 259.19 184.83 261.15 
M 183.87 261.31 181.85 261.87 180.16 262.76 178.96 264.17 177.9 267.05 
M 176.93 267.11 174.74 267.47 172.82 268.2 171.32 269.51 169.7 272.34 
M 198.47 236.49 197.43 237.65 197.01 238.92 197.07 239.6 197.63 241.05 
M 195.27 231.22 194.41 232.18 194.17 232.69 194.12 233.79 194.58 234.98 
M 192.07 225.95 191.4 226.7 191.12 227.53 191.53 228.91 
M 188.87 220.68 188.24 221.52 188.21 222.16 188.48 222.85 
M 196.42 242.73 195.16 243.8 194.48 245.1 194.4 245.84 194.66 247.47 
M 193.94 237.57 192.86 238.49 192.49 239.02 192.21 240.24 192.43 241.65 
M 191.47 232.4 190.56 233.17 190.07 234.1 190.2 235.82 
M 188.99 227.24 188.01 228.22 187.82 229.04 187.97 229.99 
M 186.52 222.07 185.96 222.54 185.66 223.11 185.74 224.16 
M 193.15 249.11 191.67 250.08 191.12 250.67 190.5 252.13 190.43 253.9 
M 191.3 244 189.99 244.86 189.5 245.38 188.96 246.67 188.9 248.23 
M 189.44 238.89 188.31 239.63 187.59 240.61 187.42 241.21 187.37 242.57 
M 187.59 233.78 186.27 234.8 185.88 235.75 185.83 236.9 
M 185.74 228.67 184.95 229.19 184.45 229.87 184.3 231.23 
M 183.89 223.56 183.05 224.21 182.79 224.82 182.76 225.56 
M 188.62 255.45 186.93 256.29 185.74 257.52 185.36 258.31 184.94 260.15 
M 187.34 250.38 185.82 251.14 184.75 252.25 184.4 252.96 184.03 254.62 
M 186.06 245.31 184.71 245.99 184.17 246.44 183.45 247.6 183.12 249.08 
M 184.78 240.25 183.13 241.23 182.5 242.25 182.21 243.54 
M 183.5 235.18 182.49 235.69 181.77 236.42 181.3 238 
M 182.22 230.11 181.04 230.81 180.59 231.54 180.38 232.46 
M 180.95 225.04 180 225.61 179.64 226.19 179.47 226.93 
M 182.84 261.57 180.95 262.26 180.16 262.76 178.96 264.17 178.2 266.03 
M 182.1 256.55 180.38 257.18 179.65 257.64 178.56 258.93 177.86 260.63 
M 181.36 251.53 179.8 252.1 178.6 253.05 178.16 253.68 177.53 255.22 
M 180.62 246.52 179.22 247.03 178.64 247.4 177.76 248.44 177.19 249.81 
M 179.88 241.5 178.14 242.28 177.36 243.2 176.86 244.41 
M 179.14 236.49 177.63 237.16 176.95 237.95 176.52 239 
M 178.39 231.47 177.5 231.8 176.81 232.34 176.19 233.59 
M 177.65 226.45 176.62 226.92 176.15 227.46 175.86 228.19 
M 175.82 267.26 173.73 267.77 172.82 268.2 171.32 269.51 170.19 271.33 
M 175.59 262.32 173.67 262.78 172.83 263.18 171.44 264.39 170.4 266.07 
M 175.36 257.37 173.6 257.8 172.83 258.17 171.56 259.27 170.61 260.81 
M 175.13 252.43 173.53 252.82 172.84 253.15 171.69 254.16 170.82 255.55 
M 174.9 247.49 172.84 248.13 171.81 249.04 171.03 250.29 
M 174.68 242.54 172.85 243.12 171.93 243.92 171.24 245.03 
M 174.45 237.6 172.85 238.1 172.05 238.8 171.45 239.77 
M 174.22 232.65 173.27 232.88 172.49 233.35 171.66 234.51 
M 173.99 227.71 172.86 228.06 172.29 228.56 171.87 229.25 
M 339.91 188.82 344.68 193.52 344.22 194.14 338.28 191.07 
M 329.71 194.33 345.29 207.4 344.83 208.02 328.02 196.55 
M 319.34 199.51 336.56 215.17 336.06 215.76 317.56 201.65 
M 308.71 204.14 325.26 220.35 324.75 220.93 306.85 206.21 
M 298.03 208.61 313.91 225.84 313.37 226.39 296.06 210.58 
M 287.03 212.23 300.49 229.24 299.91 229.75 284.93 214.05 
M 275.82 215.17 285.02 228.28 284.42 228.77 273.65 216.91 
M 269.89 216.6 273.17 222.44 272.56 222.91 267.69 218.31 
M 343.63 193.84 342.66 196.57 342.15 199.3 342.36 202.02 343.73 206.1 
M 343.15 206.87 339.53 208.07 337.57 209.43 336.06 211.33 334.83 213.6 
M 334.21 214.35 331.47 214.4 328.92 214.89 326.63 216.03 323.61 218.73 
M 322.96 219.46 320.19 219.58 317.62 220.13 315.33 221.34 312.33 224.12 
M 311.64 224.81 307.19 224.41 304.37 224.84 301.71 225.96 299.14 227.54 
M 298.41 228.18 295.31 226.92 292.18 226.12 288.98 226.04 284.1 226.97 
M 283.34 227.58 281.48 225.43 279.4 223.7 276.98 222.58 272.84 221.85 
M 341.89 207.21 339.53 208.07 337.57 209.43 336.76 210.32 335.42 212.44 
M 335.51 203.99 333.98 204.55 332.7 205.43 331.31 207.39 
M 332.83 214.35 330.16 214.57 328.92 214.89 326.63 216.03 324.58 217.75 
M 325.93 210.33 323.39 210.68 321.9 211.43 320.57 212.55 
M 321.56 219.49 318.87 219.78 317.62 220.13 315.33 221.34 313.29 223.12 
M 314.86 215.25 313.11 215.44 311.53 216.01 309.48 217.61 
M 310.14 224.6 307.19 224.41 304.37 224.84 303.02 225.32 300.42 226.72 
M 303.62 219.97 301.7 219.85 299.87 220.12 297.3 221.34 
M 296.86 227.52 293.75 226.44 292.18 226.12 288.98 226.04 285.73 226.58 
M 291.09 222.99 289.06 222.29 287.01 222 283.85 222.38 
M 374.25 126.08 376.22 124.47 380.71 118.71 383.81 115.1 385.73 113.79 387.24 112.41 388.82 110.41 390.47 109.02 394.58 105.87 396.33 104.93 399.81 100.43 403.47 97.1 405.8 95.66 410.18 93.69 414.6 92.32 417.13 92.48 422.43 89.82 425.35 89.78 427.04 89 428.65 88.88 432.41 87.55 434.52 86.32 436.98 85.81 441.3 85.35 442.76 86 443.16 92.2 443.6 94.45 444.51 97.18 444.86 99.35 443.64 100.78 443.66 103.63 442.99 105.92 442.76 108.65 442.01 110.85 440.55 112.24 439.56 114.09 438.37 118.78 435.11 122.02 433.8 123.95 430.38 127.1 428.55 128.55 427.56 130.84 425.79 132.33 424.39 134.2 423.35 136.43 421.76 138.03 417.65 139.67 415.35 140.24 410.98 142.23 409.44 143.97 408.26 146.06 406.27 147.27 403.81 147.78 401.91 148.83 398.8 148.68 396.6 149.44 397.08 152.52 399.36 153.77 401.12 154.04 402.56 153.99 404.92 154.86 407.16 156.11 412.82 160.28 419.29 166.73 423.11 168.79 427.23 171.35 433.19 177 434.26 178.9 435.37 181.7 437.03 184.2 440.41 190.12 440.41 191.77 440.88 194.02 441.06 195.97 442.62 198.68 443.54 200.7 444.03 202.85 444.34 205.7 443.57 215.23 440.9 215.14 437.13 214.58 434.76 213.32 432.32 213.25 430.62 212.41 428.13 212.78 426.02 212.42 424.66 211.35 422.67 210.86 419.96 209.37 416.84 208.62 413.9 207.25 411.24 206.34 409.06 205.11 405.93 202.14 404.11 201.46 401.33 200.84 399.15 199.54 397.69 197.81 395.76 196.2 393.97 194.22 391.93 192.49 388.69 187.61 387.65 186.3 385.73 184.36 384.12 181.95 382.24 180 379.07 175.98 374.25 168.51 
M 376.35 126.5 383.16 119.02 384.86 117.41 386.78 116.22 388.51 114.85 389.72 113.04 391.57 111.17 395.28 108.74 399.44 105.18 403.53 102.71 
M 378.33 126.81 380.31 124.82 384.01 121.59 386.06 120.28 387.96 118.75 390.07 117.52 391.98 116.13 393.17 114.56 395.13 113.07 396.77 112.06 398.4 110.3 400.82 108.9 402.63 107.62 404.91 106.38 407.97 105.27 
M 374.25 131.56 376.38 130.42 378.55 128.9 380.66 126.94 384.62 124.56 386.79 122.9 388.97 121.91 391.05 120.36 392.98 119.57 394.57 118.19 400.87 113.87 402.68 112.46 404.44 111.43 406.19 111.15 409.28 109.93 
M 381.04 129.51 383.05 127.87 385.14 127.04 387.6 125.64 391.63 123.66 393.89 123.15 398.3 120.93 403.4 118.03 405.54 116.71 406.48 115.85 407.94 115.04 410.55 114.51 412.67 113.54 415.74 113.91 417.93 113.35 419.61 112.23 421.83 111.98 423.75 112.23 426.53 111.35 429.26 110.73 432.62 111.4 434.4 111.32 437.16 109.79 439.38 109.79 
M 381.41 131.83 383.41 130.39 385.72 129.1 390.49 126.94 399.15 124.58 401.22 122.86 404.65 121.8 408.33 119.84 409.31 119.09 413.82 118.65 416.85 117.04 419.79 118.25 422.01 118.08 424.2 118.11 430.11 118.8 
M 377.01 136.67 381.92 134.33 386.35 131.67 388.76 130.81 391.16 129.68 398.32 128.08 402.14 126.46 
M 379.9 138.08 382.62 137.16 387.42 134.8 390.09 134.5 394.18 132.77 396 132.22 398.98 131.96 401.09 130.85 
M 382.85 139.62 387.76 138.27 390.37 138.36 392.73 137.97 394.13 136.52 396.19 136.18 405.17 136.34 408.02 136.07 412.63 134.52 415.36 134.55 
M 374.25 142.52 377.44 142.79 383.24 142.6 385.78 141.92 388.47 141.6 393 141.43 394.29 141.22 396.42 140.48 398.59 140.42 
M 383.62 145.22 386.75 145.43 390.5 144.87 393.05 144.94 394.53 145.95 397.15 145.78 399.86 145.35 
M 381.48 147.72 384.06 148.26 386.3 148.3 
M 381.49 150.39 384.41 150.82 387.77 152.06 392.36 153.15 
M 383.03 153.43 385.49 154.35 387.94 154.85 390.43 154.6 393.44 155.29 
M 382.19 155.77 387.81 157.32 390.91 157.43 393.6 157.87 395.79 158.82 
M 382.36 157.86 384.64 159.42 387.38 160.13 390.53 160.29 396.89 162.75 398.77 162.77 401.96 163.85 406.97 164.33 411.04 165.51 414.55 165.04 
M 374.25 155.3 377.02 156.99 381.93 160.39 391.86 164.05 396.59 166.47 401.84 167.97 404.39 168.26 406.6 168.78 408.91 168.9 409.88 169.13 411.42 170.41 419.43 170.74 
M 376.9 158.94 381.68 162.46 391.44 166.27 393.96 167.47 396.35 169.71 398.86 171.29 400.89 171.56 402.89 172.65 406.5 174.11 409.21 174.17 413.93 176.25 416.63 176.57 419.27 176.62 422.3 175.31 424.84 175.36 
M 379.24 162.72 384.09 165.53 385.76 166.87 390.75 168.94 393 170.28 395.4 172.31 397.87 174.13 399.82 175.1 402.85 177.59 404.99 178.99 410.35 180.33 413.2 181.6 414.99 181.84 419.91 181.65 422.41 182.55 424.96 182.96 
M 381.63 166.28 383.78 168.23 385.81 169.57 387.79 170.57 389.52 172.04 392.19 173.71 394.21 175.94 396.57 177.63 400.98 180.01 402.14 181.12 404.53 182.38 407.09 183.13 408.96 184.07 411.63 185.84 413.93 186.71 415.7 186.87 420.04 188.7 
M 374.25 162.61 376.53 164.99 382.84 170.69 387.03 173.3 388.87 174.63 393.32 179 395.5 180.91 398.51 182.98 400.57 183.9 404.53 186.34 406.98 188.08 409.68 189.43 412.1 190.39 416.98 191.67 419.11 192.06 423.25 194.36 425.18 195.82 431.01 195.8 432.47 196.22 
M 376.43 166.88 378.19 169.08 382 173.1 386.18 175.58 388.53 177.25 391.88 181.48 393.62 183.06 398.96 187.28 402.71 190.78 408.23 192.96 409.77 194.6 412.24 195.57 415.02 196.28 424.57 199.87 426.94 200.31 431.64 202.03 
M 376.17 168.81 379.55 173.58 381.26 175.57 385.01 178.65 387.28 180.15 388.68 182.57 395.59 189.7 397.03 191.78 400.21 195.41 402.33 197.07 411.85 200.14 
M 355.36 177.98 352.44 179.32 351.27 180.33 349.83 182.99 348.39 183.43 346.16 183.01 347.88 184.74 
M 82.67 120.07 83.64 119.1 85.29 118.05 87.62 116.86 90.64 115.48 94.2 114.19 112.27 108.64 123.84 105.54 129.63 104.19 154.54 98.89 156.75 103.87 157.38 108.75 159.23 118.57 159.87 123.45 159.97 128.28 159.63 137.89 158.61 142.61 157.89 147.36 156.96 152.08 154.27 161.46 153.69 166.23 151.91 175.69 150.61 180.39 148.72 185.02 145.8 189.47 137.03 188.66 130.53 187.19 124.7 184.92 119.4 182.03 114.54 178.84 109.98 175.42 105.69 171.26 102.04 167.03 98.85 162.39 92.21 147.91 
M 141.08 122.72 140.7 126.82 138.04 134.3 136.52 137.65 133.36 143.6 132.39 149.4 132.7 155.78 132.64 159.48 131.83 163.49 126.13 163.73 121.87 163.65 117.73 162.95 113.61 161.57 109.6 159.67 105.73 157.21 102.05 153.7 
M 90.39 144.95 86.9 137.32 80.72 123.08 80.88 121.11 82.38 119.99 84.22 120.48 85.14 122.19 85.58 124.06 90.62 140.67 92.44 147.84 
M 91.04 147.46 75.91 133.57 75.13 131.88 75.96 130.1 77.82 129.57 79.42 130.58 92.37 147.7 
M 106.75 130.38 105.42 125.34 105.8 120.13 107.85 115.33 111.34 111.45 115.91 108.92 121.05 108.01 126.2 108.82 130.82 111.26 134.39 115.06 136.54 119.82 137.02 125.02 135.79 130.09 132.98 134.49 128.89 137.74 123.97 139.48 118.75 139.53 113.8 137.89 109.65 134.72 106.75 130.38 
M 106.56 129.94 105.92 128.08 105.51 126.15 105.35 124.2 105.43 122.23 105.76 120.29 106.32 118.41 107.11 116.61 108.11 114.92 109.32 113.37 110.71 111.98 112.26 110.78 113.95 109.77 115.75 108.98 117.63 108.42 119.57 108.1 121.53 108.02 123.49 108.18 125.41 108.58 127.27 109.22 
M 107.99 129.34 107.41 127.67 107.05 125.93 106.9 124.16 106.97 122.39 107.27 120.64 107.77 118.94 108.48 117.32 109.39 115.8 110.48 114.4 111.73 113.14 113.13 112.06 114.66 111.15 116.28 110.44 117.98 109.93 119.73 109.64 121.5 109.56 123.27 109.71 125 110.07 126.68 110.65 
M 109.42 128.75 108.9 127.26 108.45 124.13 108.51 122.55 108.82 120.83 
M 112.01 115.06 114.01 113.33 115.37 112.52 118.33 111.44 119.89 111.18 123.04 111.24 126.09 112.08 
M 110.85 128.16 110.11 125.49 110 124.1 110.27 121.45 
M 113.04 116.21 114.88 114.61 116.07 113.9 118.68 112.95 121.44 112.66 124.18 113.06 125.49 113.51 
M 112.28 127.57 111.64 125.26 111.55 124.07 111.71 122.18 
M 114.11 117.33 115.75 115.89 116.78 115.28 119.03 114.46 121.4 114.21 122.6 114.31 124.9 114.94 
M 113.71 126.97 113.18 125.04 113.09 124.04 113.23 122.48 
M 115.09 118.54 116.63 117.17 117.49 116.66 119.38 115.96 121.37 115.76 122.37 115.84 124.31 116.37 
M 115.42 126.47 114.89 124.46 115.01 122.75 
M 116.5 119.74 117.26 118.9 119.09 117.89 121.14 117.53 123.2 117.85 125.05 118.83 126.48 120.35 127.34 122.25 127.53 124.33 127.04 126.36 125.91 128.12 124.28 129.42 122.31 130.11 120.22 130.13 118.24 129.48 116.58 128.21 115.42 126.47 
M 116.91 119.29 116.63 119.85 
M 115.17 122.77 114.99 123.14 
M 118.65 118.13 117.45 120.55 
M 116.27 122.9 115.1 125.24 
M 120.02 117.73 118.23 121.3 
M 117.32 123.12 115.55 126.66 
M 121.27 117.55 119.02 122.04 
M 118.34 123.4 116.21 127.66 
M 122.34 117.72 119.79 122.81 
M 119.38 123.64 116.95 128.5 
M 123.39 117.95 120.57 123.59 
M 120.44 123.86 117.8 129.14 
M 124.31 118.43 118.71 129.63 
M 125.2 118.98 119.71 129.96 
M 125.95 119.79 120.78 130.13 
M 126.65 120.72 121.95 130.12 
M 127.2 121.94 123.29 129.77 
M 127.47 123.72 124.85 128.96 
M 103.27 168.45 106.62 171.8 
M 96.3 156.84 98.71 159.25 
M 92.37 148.26 95 150.9 
M 91.06 142.31 93.9 145.14 
M 89.04 135.64 90.87 137.47 
M 87.12 129.08 88.31 130.27 
M 82.7 120.01 82.78 120.09 
M 85.22 122.53 87.22 124.53 
M 85.35 118.02 88.67 121.33 
M 88.45 116.47 93.02 121.04 
M 91.71 115.09 94.28 117.65 
M 95.16 113.89 98.58 117.31 
M 98.7 112.79 101.66 115.75 
M 102.2 111.63 104.93 114.36 
M 105.76 110.55 108.61 113.41 
M 109.34 109.49 111.33 111.47 
M 112.96 108.46 114.31 109.81 
M 116.63 107.48 117.74 108.6 
M 120.29 106.5 121.95 108.15 
M 123.95 105.51 128.44 110 
M 127.72 104.64 131.71 108.63 
M 131.51 103.79 135.86 108.13 
M 135.34 102.96 139.54 107.17 
M 139.18 102.16 143.28 106.26 
M 143 101.34 146.93 105.26 
M 146.82 100.51 149.5 103.19 
M 150.66 99.7 153.98 103.02 
M 154.5 98.9 154.55 98.95 
M 157.51 117.5 153.41 116.19 152.64 116.25 
M 129.51 168.35 129.88 167.15 
M 157.28 136.61 155.4 136.61 154.71 136.78 153.53 137.73 152.84 138.96 
M 139.45 158.25 137.89 158.31 136.69 157.94 134.13 157.58 132.41 158.15 131.27 158.11 
M 131.46 169.01 132.92 166.57 133.64 164.44 134.18 161.68 133.85 160.6 
M 124.11 183 122.02 183.46 
M 151.04 112.8 152.85 112.75 154.04 112.26 154.46 111.16 154.33 110.18 
M 95.82 124.1 93.84 124.13 92.13 124.55 
M 138.93 132.25 138.06 132.65 137.16 132.7 134.37 132.31 
M 142.05 147.1 142.92 144.77 144.01 143.81 144.73 142.43 
M 137.88 164.83 136.84 163.37 135.87 161.27 134.68 159.79 134.47 158.69 134.19 158.39 
M 135.82 163.44 135.45 161.48 134.46 159.91 134.18 158.72 133.75 158.5 
M 102.26 142.5 100.85 142.15 98.99 142.16 98.39 142.4 97.87 143 
M 91.49 133.56 89.45 134.3 88.64 134.26 
M 134.77 103.47 135.03 103.03 
M 126.91 142.83 127.33 142.55 127.66 142.56 128.38 143.02 128.74 143.55 
M 125.94 142.96 126.23 142.23 126.73 141.92 127.29 142 127.99 142.52 
M 100.96 135.96 99.68 135.84 98.15 134.96 97.08 134.61 94.31 134.3 
M 119.61 157.09 118.94 157.11 116.94 156.18 116.52 156.15 116.11 156.34 
M 155.53 153.85 154.35 154.4 152.96 155.51 152.11 155.92 151.61 155.88 
M 144.89 162.81 143.93 163.37 143.33 163.43 141.79 163.2 140.31 162.76 138.3 161.77 135.49 159.65 
M 105.37 129.66 105.14 129.79 
M 128.5 155.21 128.22 157.99 127.63 159.16 126.83 160.22 126.45 161.1 
M 99.14 146.07 98.6 146.11 98.15 146.54 97.87 147.04 97.86 147.62 
M 155.43 157.46 152.46 157.04 
M 107.18 140.34 104.33 139.17 102.73 138.84 101.05 138.87 99.46 138.66 98.31 138.07 97.13 137.17 
M 126.56 138.56 125.38 140.86 125.39 141.43 125.82 141.63 
M 122 176.2 122.08 173.82 122.54 173.35 122.8 173.38 123.08 173.66 
M 94.16 148.81 95.97 150.23 97.03 150.76 98.4 150.66 100.39 149.98 
M 147.08 111.51 149.1 109.23 151.43 105.73 153.44 103.92 
M 154.41 154.06 153.08 155.12 151.96 155.71 151.6 155.74 
M 155.77 105.79 155.47 103.42 155.45 100.95 
M 93.02 148.7 91 150.22 89.83 150.79 88.56 151.16 87.22 151.24 85.92 150.99 84.76 150.44 83.78 149.66 82.97 148.76 80.29 144.92 83.39 148.36 85.2 149.58 86.2 149.86 87.21 149.89 88.18 149.65 89.08 149.21 89.91 148.61 91.37 147.06 
M 80.3 137.6 83.61 143.59 87.69 149.77 
M 88.69 151.12 93.3 156.63 98.85 162.39 
M 84.8 142.39 84 142.48 83.5 142.34 
M 82.04 139.63 82.12 139.31 
M 154.71 98.75 160.52 104.56 
M 158.76 96.61 165.31 103.16 
M 162.81 94.46 171.63 103.28 
M 166.99 92.44 173.85 99.31 
M 171.18 90.44 180.19 99.45 
M 175.47 88.54 183.69 96.76 
M 179.79 86.66 188.08 94.96 
M 184.21 84.89 191.02 91.7 
M 188.67 83.16 197.12 91.61 
M 193.08 81.37 200.47 88.77 
M 197.48 79.58 203.05 85.15 
M 202.1 78 210.04 85.94 
M 206.78 76.49 214.56 84.27 
M 211.76 75.27 216.5 80.01 
M 216.8 74.12 225.92 83.24 
M 222.06 73.18 230.83 81.95 
M 227.64 72.58 233.12 78.05 
M 233.61 72.35 242.75 81.49 
M 239.72 72.26 247.26 79.81 
M 245.76 72.11 253.69 80.04 
M 251.87 72.02 258.53 78.69 
M 259.19 73.15 265.26 79.22 
M 267.95 75.71 277.23 85 
M 277.84 79.41 284.11 85.68 
M 288.61 83.98 296.84 92.22 
M 299.1 88.28 304.02 93.2 
M 310.08 93.07 318.93 101.92 
M 323.08 99.88 329.59 106.38 
M 336.39 106.99 342.89 113.49 
M 348.96 113.37 354.23 118.63 
M 361.52 119.73 370.68 128.89 
M 373.89 125.91 374.23 126.24 
M 151.34 185.54 152.03 186.92 
M 153.5 184.45 156.96 191.37 
M 157.02 186.06 160.48 192.99 
M 154.1 174.8 154.3 175.21 
M 159.15 184.91 160.54 187.68 
M 156.41 174.01 157.13 175.44 
M 157.82 176.82 159.9 180.98 
M 159.38 174.52 162.03 179.82 
M 163.45 177.25 164.15 178.64 
M 175.35 184.78 176.04 186.17 
M 176.82 182.3 178.2 185.07 
M 179.67 182.58 181.05 185.35 
M 187.29 197.82 187.98 199.2 
M 190.75 204.74 191.44 206.13 
M 192.83 208.9 193.48 210.2 
M 181.14 180.1 183.21 184.25 
M 189.45 196.72 190.14 198.1 
M 194.99 207.8 197.08 211.99 
M 179.79 171.98 180.53 173.46 
M 184.68 181.77 185.38 183.15 
M 186.07 184.54 187.45 187.31 
M 199.23 210.86 199.96 212.32 
M 181.86 170.7 181.99 170.96 
M 188.22 183.42 190.3 187.58 
M 200.69 208.35 202.07 211.13 
M 159.49 120.55 161.28 124.13 
M 163.36 128.29 164.05 129.67 
M 165.44 132.44 170.7 142.97 
M 202.84 207.24 204.91 211.39 
M 206.38 214.32 206.8 215.17 
M 157.93 112 162.74 121.63 
M 166.2 128.55 166.9 129.94 
M 167.59 131.32 173.42 142.99 
M 187.39 170.92 188.37 172.88 
M 207.76 211.66 209.96 216.06 
M 161.43 113.58 164.2 119.12 
M 167.66 126.05 169.74 130.21 
M 171.82 134.36 175.97 142.67 
M 189.27 169.27 191.21 173.14 
M 211.29 213.31 212.72 216.16 
M 156.3 97.91 159.42 104.14 
M 163.57 112.45 164.96 115.22 
M 166.34 117.99 171.88 129.07 
M 176.04 137.38 178.86 143.02 
M 191.35 168 193.35 172.01 
M 158.45 96.78 162.95 105.78 
M 165.72 111.32 174.03 127.94 
M 178.18 136.25 181.57 143.03 
M 193.84 167.57 194.11 168.11 
M 160.93 96.33 166.47 107.41 
M 167.86 110.18 173.4 121.26 
M 181.02 136.5 184.29 143.04 
M 196.85 168.17 197.64 169.74 
M 162.73 94.51 168.62 106.28 
M 170 109.05 176.24 121.52 
M 184.55 138.14 186.62 142.29 
M 164.91 93.44 178.41 120.45 
M 186.72 137.07 188.11 139.84 
M 167.09 92.39 175.06 108.32 
M 176.44 111.09 180.6 119.4 
M 188.91 136.02 189.6 137.41 
M 169.28 91.35 177.25 107.28 
M 178.63 110.05 184.17 121.13 
M 191.1 134.98 191.79 136.36 
M 171.47 90.3 179.43 106.23 
M 180.82 109 187.05 121.47 
M 190.51 128.39 193.28 133.93 
M 207.54 162.44 208.52 164.41 
M 210.6 168.56 212.68 172.72 
M 173.68 89.31 189.96 121.86 
M 194.11 130.17 195.5 132.94 
M 209.5 160.95 210.74 163.42 
M 212.81 167.57 214.89 171.73 
M 221.12 184.19 223.89 189.73 
M 175.91 88.35 192.88 122.28 
M 197.03 130.59 200.5 137.52 
M 201.19 138.9 203.31 143.15 
M 211.84 160.2 213.66 163.83 
M 221.97 180.46 223.35 183.23 
M 227.51 191.54 228.2 192.92 
M 232.35 201.23 233.05 202.62 
M 178.14 87.38 194.41 119.93 
M 198.57 128.24 202.03 135.17 
M 202.72 136.55 204.8 140.71 
M 221.42 173.95 222.81 176.72 
M 224.19 179.49 226.27 183.64 
M 233.2 197.49 235.27 201.65 
M 180.36 86.41 197.33 120.35 
M 199.41 124.5 205.64 136.97 
M 218.11 161.9 218.8 163.29 
M 224.34 174.37 225.03 175.75 
M 227.11 179.91 228.5 182.68 
M 235.42 196.53 236.81 199.3 
M 240.96 207.61 241.65 208.99 
M 182.61 85.48 185.72 91.71 
M 187.11 94.48 191.96 104.17 
M 193.34 106.95 195.42 111.1 
M 197.5 115.26 200.27 120.8 
M 201.65 123.57 203.04 126.34 
M 203.73 127.72 205.81 131.88 
M 211.35 142.96 211.46 143.19 
M 218.19 156.65 218.27 156.81 
M 227.27 174.81 228.66 177.58 
M 243.2 206.67 243.9 208.06 
M 183.79 82.42 187.6 90.04 
M 189.68 94.2 193.14 101.12 
M 195.91 106.66 197.99 110.82 
M 204.22 123.28 204.91 124.67 
M 230.54 175.92 231.23 177.3 
M 238.85 192.54 240.92 196.69 
M 184.89 79.21 191.47 92.37 
M 192.16 93.75 193.55 96.52 
M 197.01 103.45 197.7 104.83 
M 199.09 107.6 200.47 110.37 
M 201.17 111.76 201.86 113.14 
M 212.94 135.3 216.9 143.22 
M 185.87 75.74 194.52 93.05 
M 197.29 98.59 200.06 104.13 
M 202.14 108.28 202.83 109.67 
M 204.91 113.83 211.14 126.29 
M 215.99 135.99 219.61 143.23 
M 233.3 170.61 234 172 
M 234.69 173.38 235.38 174.77 
M 188.4 75.38 215.4 129.39 
M 219.56 137.7 222.33 143.25 
M 227.87 154.33 228.56 155.71 
M 234.8 168.18 238.26 175.1 
M 187.26 67.68 188.3 69.76 
M 191.07 75.3 218.77 130.7 
M 220.16 133.47 220.85 134.86 
M 229.85 152.87 230.54 154.25 
M 231.24 155.64 231.93 157.02 
M 238.85 170.87 239.55 172.26 
M 253.4 199.96 254.78 202.73 
M 255.47 204.11 258.94 211.04 
M 193.54 74.82 220.55 128.84 
M 233.01 153.77 234.4 156.54 
M 240.63 169.01 242.71 173.16 
M 195.5 73.32 197.57 77.47 
M 198.27 78.86 198.96 80.24 
M 200.35 83.01 201.04 84.4 
M 203.12 88.55 209.35 101.02 
M 212.12 106.56 222.51 127.34 
M 235.66 153.65 236.36 155.04 
M 241.9 166.12 243.28 168.89 
M 196.91 70.72 198.98 74.87 
M 203.14 83.18 204.52 85.95 
M 205.22 87.34 211.45 99.8 
M 214.91 106.73 225.3 127.5 
M 193.05 57.59 201.71 74.9 
M 205.86 83.21 213.48 98.45 
M 216.95 105.38 228.03 127.54 
M 228.72 128.92 232.18 135.85 
M 194.94 55.95 196.68 59.41 
M 199.45 64.96 204.29 74.65 
M 208.45 82.96 216.07 98.2 
M 218.84 103.74 220.91 107.89 
M 222.3 110.66 234.76 135.59 
M 247.23 160.53 250 166.07 
M 271.47 209 274.24 214.54 
M 196.65 53.94 199.76 60.17 
M 202.54 65.71 207.38 75.41 
M 208.77 78.18 209.46 79.57 
M 210.15 80.95 217.77 96.19 
M 224.7 110.04 225.39 111.42 
M 226.08 112.81 233.01 126.66 
M 233.7 128.04 237.16 134.97 
M 239.24 139.12 241.32 143.28 
M 246.86 154.36 253.09 166.83 
M 273.87 208.38 275.25 211.15 
M 198.15 51.52 201.96 59.14 
M 205.42 66.07 206.81 68.84 
M 207.5 70.22 208.88 72.99 
M 210.96 77.15 221.35 97.92 
M 226.2 107.62 227.58 110.39 
M 228.97 113.16 234.51 124.24 
M 236.59 128.4 237.97 131.17 
M 238.66 132.55 244.2 143.63 
M 244.9 145.02 254.59 164.41 
M 256.67 168.56 258.05 171.33 
M 268.44 192.11 269.83 194.88 
M 278.14 211.5 278.83 212.89 
M 199.58 48.97 204.78 59.35 
M 209.62 69.05 210.32 70.44 
M 214.47 78.75 226.24 102.29 
M 228.32 106.45 229.71 109.22 
M 231.09 111.99 237.32 124.45 
M 238.02 125.84 251.87 153.54 
M 256.02 161.85 257.41 164.62 
M 258.1 166.01 258.79 167.39 
M 260.18 170.16 260.87 171.55 
M 270.57 190.94 272.64 195.09 
M 202.18 48.75 207.38 59.14 
M 208.76 61.91 209.45 63.29 
M 217.07 78.53 229.54 103.46 
M 230.92 106.23 231.62 107.62 
M 233 110.39 238.54 121.47 
M 242.7 129.78 243.39 131.16 
M 244.08 132.55 247.54 139.47 
M 248.93 142.24 253.08 150.55 
M 261.4 167.17 262.09 168.56 
M 273.17 190.72 274.55 193.49 
M 204.71 48.38 214.06 67.08 
M 218.91 76.78 233.45 105.86 
M 236.22 111.4 241.76 122.48 
M 245.22 129.41 245.91 130.79 
M 246.61 132.18 249.38 137.72 
M 251.46 141.88 252.15 143.26 
M 252.84 144.65 254.92 148.8 
M 207.08 47.71 216.43 66.41 
M 222.67 78.88 225.44 84.42 
M 226.13 85.8 229.59 92.73 
M 230.28 94.11 236.52 106.58 
M 237.21 107.96 243.44 120.43 
M 244.83 123.2 246.91 127.35 
M 248.29 130.12 251.75 137.05 
M 271.84 177.22 272.53 178.6 
M 209.26 46.65 219.3 66.73 
M 226.92 81.96 231.77 91.66 
M 232.46 93.05 245.62 119.36 
M 249.77 127.67 253.93 135.98 
M 255.31 138.75 256.7 141.52 
M 274.01 176.15 275.4 178.92 
M 211.27 45.24 222.7 68.1 
M 228.24 79.18 230.32 83.33 
M 231.7 86.1 232.39 87.49 
M 233.78 90.26 249.01 120.73 
M 251.78 126.27 255.25 133.2 
M 255.94 134.58 259.4 141.51 
M 277.41 177.52 280.87 184.45 
M 213.17 43.62 225.29 67.86 
M 229.44 76.17 232.91 83.1 
M 239.14 95.56 249.53 116.34 
M 250.91 119.11 251.61 120.49 
M 252.99 123.27 255.76 128.81 
M 257.84 132.96 258.53 134.35 
M 268.23 153.74 270.3 157.89 
M 280 177.28 284.15 185.59 
M 215.64 43.15 220.84 53.54 
M 222.22 56.31 227.76 67.39 
M 231.23 74.32 236.07 84.01 
M 238.84 89.55 254.77 121.41 
M 255.47 122.8 256.85 125.57 
M 258.24 128.34 258.93 129.72 
M 259.62 131.11 260.31 132.49 
M 270.7 153.27 273.47 158.81 
M 276.93 165.73 278.32 168.5 
M 282.47 176.81 285.25 182.35 
M 218.15 42.74 222.65 51.75 
M 225.42 57.29 230.27 66.98 
M 233.73 73.91 238.58 83.6 
M 240.66 87.76 256.59 119.62 
M 257.97 122.39 262.13 130.7 
M 272.51 151.47 275.98 158.4 
M 278.75 163.94 280.82 168.09 
M 281.52 169.48 283.59 173.63 
M 285.67 177.79 286.37 179.17 
M 220.55 42.13 225.75 52.52 
M 227.83 56.68 233.37 67.76 
M 236.14 73.3 240.98 82.99 
M 243.06 87.15 258.3 117.62 
M 259.68 120.39 263.84 128.7 
M 274.92 150.86 276.3 153.63 
M 278.38 157.79 285.31 171.64 
M 222.83 41.27 228.72 53.04 
M 230.8 57.19 236.34 68.28 
M 237.72 71.05 266.11 127.83 
M 269.58 134.76 272.35 140.3 
M 276.5 148.61 277.89 151.38 
M 280.66 156.92 282.74 161.08 
M 286.89 169.39 288.28 172.16 
M 224.97 40.13 230.17 50.52 
M 233.63 57.44 236.4 62.98 
M 237.09 64.37 237.78 65.75 
M 240.55 71.29 262.72 115.62 
M 264.1 118.39 267.56 125.31 
M 269.64 129.47 275.18 140.55 
M 279.34 148.86 280.72 151.63 
M 293.19 176.56 294.57 179.33 
M 226.98 38.73 232.87 50.5 
M 235.64 56.04 237.72 60.2 
M 241.18 67.12 263.34 111.44 
M 267.49 119.75 268.19 121.14 
M 272.34 129.45 279.96 144.69 
M 228.91 37.16 232.72 44.78 
M 237.57 54.48 240.34 60.02 
M 243.11 65.56 244.49 68.33 
M 246.57 72.48 263.19 105.73 
M 267.35 114.04 270.12 119.58 
M 275.66 130.66 282.58 144.51 
M 299.2 177.75 299.9 179.14 
M 308.21 195.76 308.9 197.14 
M 231.59 37.1 235.4 44.72 
M 238.86 51.65 243.02 59.96 
M 245.09 64.11 254.1 82.12 
M 255.48 84.89 256.17 86.27 
M 257.56 89.04 265.87 105.66 
M 267.95 109.82 273.49 120.9 
M 281.11 136.14 283.88 141.68 
M 300.5 174.92 301.88 177.69 
M 234.86 38.22 237.97 44.45 
M 240.05 48.61 254.6 77.7 
M 255.98 80.47 256.67 81.85 
M 258.75 86.01 262.91 94.32 
M 263.6 95.7 269.83 108.17 
M 271.22 110.94 276.06 120.63 
M 284.37 137.25 287.14 142.79 
M 301.69 171.88 305.15 178.81 
M 310.69 189.89 312.08 192.66 
M 314.15 196.81 314.85 198.2 
M 237.76 38.61 240.88 44.84 
M 242.96 49 263.04 89.17 
M 265.81 94.71 272.74 108.56 
M 274.12 111.33 278.97 121.02 
M 287.28 137.64 287.97 139.03 
M 288.66 140.41 290.05 143.18 
M 293.51 150.11 294.9 152.88 
M 304.59 172.27 306.67 176.43 
M 312.9 188.89 313.6 190.28 
M 318.4 199.88 318.69 200.47 
M 240.37 38.4 242.79 43.24 
M 244.87 47.4 264.26 86.18 
M 267.72 93.11 280.19 118.04 
M 289.19 136.04 291.96 141.58 
M 302.35 162.36 303.73 165.13 
M 307.89 173.44 309.27 176.21 
M 309.97 177.6 310.66 178.98 
M 242.8 37.85 265.31 82.86 
M 266 84.25 266.69 85.63 
M 268.08 88.4 283.31 118.87 
M 286.78 125.8 287.47 127.18 
M 290.93 134.11 292.32 136.88 
M 299.24 150.73 306.17 164.58 
M 311.71 175.66 313.79 179.82 
M 245.48 37.78 247.21 41.24 
M 247.9 42.63 267.99 82.8 
M 268.68 84.18 276.99 100.8 
M 277.68 102.19 285.99 118.81 
M 286.68 120.19 288.07 122.96 
M 288.76 124.35 290.15 127.12 
M 290.84 128.5 294.99 136.81 
M 301.23 149.28 306.08 158.97 
M 250.64 42.68 278.34 98.09 
M 281.11 103.63 286.65 114.71 
M 288.04 117.48 297.04 135.48 
M 301.89 145.18 307.43 156.26 
M 309.51 160.42 311.58 164.57 
M 252.26 40.51 261.26 58.51 
M 261.96 59.9 279.96 95.91 
M 284.81 105.6 287.58 111.14 
M 291.04 118.07 293.81 123.61 
M 295.2 126.38 300.05 136.08 
M 302.12 140.23 302.82 141.62 
M 303.51 143 306.28 148.54 
M 311.13 158.24 315.28 166.55 
M 254.56 39.69 263.91 58.39 
M 264.6 59.77 276.38 83.32 
M 278.45 87.47 282.61 95.78 
M 286.76 104.09 288.84 108.25 
M 289.53 109.63 295.77 122.1 
M 299.23 129.03 303.39 137.34 
M 304.08 138.72 308.23 147.03 
M 313.77 158.11 317.24 165.04 
M 257.02 39.19 260.83 46.81 
M 262.22 49.58 266.37 57.89 
M 267.06 59.27 279.53 84.21 
M 280.22 85.59 286.46 98.06 
M 289.23 103.6 298.92 122.99 
M 299.61 124.37 300.31 125.76 
M 301.69 128.53 306.54 138.22 
M 310.69 146.53 312.08 149.3 
M 315.54 156.23 318.31 161.77 
M 259.99 39.7 261.72 43.16 
M 265.18 50.08 281.8 83.33 
M 283.88 87.48 289.42 98.56 
M 291.5 102.72 298.42 116.57 
M 299.11 117.95 299.81 119.34 
M 303.96 127.65 308.81 137.34 
M 313.66 147.04 314.35 148.42 
M 318.51 156.74 321.97 163.66 
M 263.8 41.91 264.15 42.6 
M 268.3 50.91 283.54 81.38 
M 286.31 86.92 292.54 99.39 
M 293.24 100.78 299.47 113.24 
M 307.78 129.86 309.86 134.02 
M 314.01 142.33 319.55 153.41 
M 320.94 156.18 321.63 157.56 
M 270.94 50.77 285.48 79.85 
M 287.56 84.01 302.1 113.09 
M 310.42 129.72 312.49 133.87 
M 315.96 140.8 318.03 144.95 
M 318.73 146.34 322.19 153.26 
M 271.84 47.15 272.53 48.53 
M 273.92 51.3 286.38 76.23 
M 290.54 84.54 298.85 101.16 
M 299.54 102.55 305.08 113.63 
M 307.85 119.17 309.24 121.94 
M 312.7 128.87 314.09 131.64 
M 317.55 138.56 318.24 139.95 
M 321.01 145.49 323.09 149.64 
M 323.78 151.03 324.47 152.41 
M 273.95 45.94 287.8 73.64 
M 288.49 75.03 289.18 76.41 
M 290.57 79.18 300.96 99.96 
M 302.34 102.73 308.58 115.2 
M 314.12 126.28 316.19 130.43 
M 319.66 137.36 321.04 140.13 
M 321.73 141.51 325.89 149.82 
M 275.87 44.36 303.22 99.07 
M 304.61 101.84 311.53 115.69 
M 314.3 121.23 317.07 126.77 
M 322.61 137.85 328.84 150.31 
M 329.54 151.7 331.62 155.85 
M 333.69 160.01 335.77 164.17 
M 279.19 45.59 314.86 116.92 
M 316.24 119.69 319.01 125.23 
M 324.56 136.32 328.71 144.63 
M 330.1 147.4 334.94 157.09 
M 336.33 159.86 339.1 165.4 
M 344.64 176.48 347.41 182.02 
M 282.31 46.41 284.04 49.87 
M 287.51 56.8 293.05 67.88 
M 296.51 74.8 316.59 114.97 
M 319.36 120.51 337.37 156.52 
M 340.14 162.06 340.83 163.45 
M 345.68 173.14 347.06 175.91 
M 347.76 177.3 348.45 178.68 
M 285.2 46.76 286.93 50.22 
M 289.7 55.76 294.55 65.46 
M 298.7 73.77 318.79 113.94 
M 322.25 120.86 329.17 134.71 
M 329.87 136.1 337.48 151.33 
M 345.1 166.57 346.49 169.34 
M 347.87 172.11 349.95 176.26 
M 350.64 177.65 351.33 179.03 
M 287.87 46.68 288.91 48.76 
M 290.99 52.92 297.22 65.38 
M 300.68 72.31 321.46 113.86 
M 322.84 116.63 330.46 131.87 
M 332.54 136.02 339.46 149.87 
M 341.54 154.03 342.23 155.41 
M 347.77 166.49 348.47 167.88 
M 350.54 172.03 351.93 174.8 
M 290.43 46.38 299.08 63.69 
M 302.55 70.62 309.47 84.47 
M 310.86 87.24 315.7 96.93 
M 317.09 99.7 318.47 102.47 
M 320.55 106.63 324.71 114.94 
M 325.4 116.32 330.94 127.4 
M 335.09 135.71 342.02 149.57 
M 343.41 152.34 344.1 153.72 
M 351.02 167.57 353.79 173.11 
M 293.05 46.21 298.94 57.98 
M 299.63 59.37 300.32 60.75 
M 301.71 63.52 302.4 64.91 
M 303.09 66.29 303.79 67.68 
M 305.86 71.83 311.4 82.91 
M 313.48 87.07 317.64 95.38 
M 319.71 99.53 321.79 103.69 
M 324.56 109.23 325.95 112 
M 327.33 114.77 328.72 117.54 
M 337.03 134.16 337.72 135.55 
M 338.41 136.93 340.49 141.09 
M 342.57 145.24 343.95 148.01 
M 346.72 153.55 347.42 154.94 
M 353.65 167.4 354.34 168.79 
M 298.89 52.47 304.78 64.24 
M 308.24 71.17 315.17 85.02 
M 315.86 86.4 317.94 90.56 
M 322.76 100.21 325.53 105.75 
M 329.69 114.06 330.38 115.44 
M 337.3 129.29 343.54 141.76 
M 357.39 169.46 358.08 170.85 
M 302.24 53.75 303.9 57.07 
M 309.38 68.02 318.38 86.02 
M 326.14 101.54 326.48 102.23 
M 328.56 106.39 334.79 118.85 
M 338.95 127.16 346.57 142.4 
M 356.96 163.17 359.03 167.33 
M 314.95 73.74 322.7 89.24 
M 329.86 103.56 339.21 122.26 
M 341.98 127.8 349.6 143.04 
M 350.98 145.81 352.37 148.58 
M 357.91 159.66 362.06 167.97 
M 323.2 84.83 324.09 86.61 
M 333.54 105.5 342.89 124.2 
M 343.58 125.58 344.27 126.97 
M 344.96 128.35 345.66 129.74 
M 349.12 136.66 351.89 142.2 
M 353.27 144.97 356.04 150.51 
M 362.28 162.98 362.97 164.36 
M 337.21 107.42 345.17 123.35 
M 345.86 124.73 347.25 127.5 
M 351.4 135.81 354.17 141.35 
M 356.25 145.51 357.64 148.28 
M 363.87 160.74 365.95 164.9 
M 340.85 109.29 346.74 121.06 
M 353.66 134.91 355.74 139.07 
M 358.51 144.61 360.59 148.76 
M 365.44 158.46 368.21 164 
M 344.47 111.1 348.97 120.11 
M 348.09 112.92 356.05 128.85 
M 351.73 114.78 358.31 127.94 
M 370.77 152.87 373.54 158.41 
M 355.37 116.64 361.26 128.42 
M 362.64 131.19 364.72 135.34 
M 370.26 146.42 374.25 154.4 
M 358.99 118.47 374.25 148.97 
M 362.6 120.27 374.25 143.56 
M 366.21 122.07 374.25 138.13 
M 369.83 123.88 372.94 130.11 
M 373.44 125.68 374.25 127.3 
"/></svg>