<svg xmlns="http://www.w3.org/2000/svg" width="520" height="320"><rect x="0" y="0" width="520" height="320" fill="floralwhite"/><rect x="10" y="10" width="500" height="300" stroke="black" stroke-width="1" fill="none"/><path stroke="black" stroke-width="1" fill="none" stroke-linecap="round" stroke-linejoin="round" d="
M 194.17 99.81 216.24 86.43 227.8 80.28 251.6 69.31 264.06 65.25 276.9 62.62 303.09 61.84 315.83 64.9 327.95 69.88 351.51 81.36 363.18 87.32 374.36 94.16 385.42 101.19 421.07 122.47 
M 421.07 172.57 400.1 187.74 389.24 195.07 378.1 201.97 366.6 208.24 354.82 213.99 342.78 219.16 330.32 223.22 317.61 226.38 304.6 227.96 291.5 227.78 278.4 227.99 265.45 225.95 253.06 221.69 240.91 216.79 228.66 212.14 216.83 206.51 203.26 198.19 
M 231.63 130.95 235.62 130.68 
M 276.61 130.07 285.56 128.75 287.15 128.3 
M 290.22 127.34 291.71 126.83 293.37 126.48 
M 300.78 126.14 306.52 126.54 311.59 126.35 
M 314.9 126.29 316.59 126.31 320.41 126.79 328.67 128.46 331.53 128.83 
M 337.48 129.13 337.66 129.13 
M 341.36 129.32 350.96 130.35 354.9 131 357.26 131.68 
M 362.17 133.23 369.53 135.43 373.93 136.31 382.68 137.57 392.44 139.43 394.8 139.71 
M 399.29 140.03 401.43 140.07 413.72 139.58 419.6 139.05 
M 199.78 96.38 199.75 96.47 
M 211.08 90.32 209.98 91.81 209.24 93.65 
M 206.77 106.79 205.37 113.25 203.89 117.03 203.47 117.75 
M 208.16 165.66 212.09 174.68 
M 213.64 178.75 216.06 186.16 
M 219.57 197.02 222.55 204.76 
M 224.09 208.6 224.8 210.3 
M 220.79 98.2 219.79 99.76 218.96 101.5 
M 216.75 109.58 216.19 116.78 215.43 121.21 214.83 123.21 
M 213.61 127.21 210.9 135.12 
M 222.21 169.62 224.94 176.38 225.56 178.33 
M 233.48 204.44 235.74 210.31 238.34 215.81 
M 239.01 94.02 237.64 97.71 
M 231.44 106.7 229.23 109.57 
M 222.9 129.7 222.06 132.26 
M 234.09 168.59 236.63 175.36 237.99 179.52 239.48 185.18 
M 240.55 189.01 242.9 196.83 
M 244.09 200.73 246.22 206.82 247.15 209.01 
M 249.02 213.35 252.25 221.36 
M 244.71 108.46 243.88 110.16 241.77 113.12 239.34 115.77 238.26 117.25 
M 235.43 124.63 234.88 128.77 
M 246.63 167.81 248.05 172.03 
M 249.53 176.42 251 180.77 
M 252.41 185.06 256.96 200.95 
M 258.2 204.96 260.72 212.76 
M 261.86 216.37 262.97 219.85 
M 268.85 76.41 267.56 80.27 
M 261.82 94.92 260.33 98.47 
M 257.57 105.81 256.48 109.79 
M 252.66 121.22 251 124.67 
M 260.23 165.03 261 168.18 
M 266.09 187.88 267.83 193.94 270.51 202.32 276.25 224.55 
M 279.69 83.82 276.9 88.72 274.34 93.81 
M 270.22 104.9 269.06 108.84 
M 268.1 112.97 266.97 119.51 265.48 125.72 
M 264.34 129.9 263.97 131.35 
M 273.82 167.28 274.58 171 
M 276.62 178.92 279.63 189.22 283.02 199.8 
M 284.21 203.84 286.47 212.9 286.91 215.9 287.16 221 287.52 222.53 
M 290.02 90.62 287.23 95.49 285.77 99.12 283.31 106.86 280.26 114.07 277 123.7 
M 276.02 127.92 275.68 130.19 
M 283.2 157.26 284.1 162.44 285.63 168.44 
M 287.98 176.72 290.02 184.66 
M 291.29 188.85 293.36 195.29 294.81 201.04 
M 295.64 204.68 297.58 212.01 
M 298.38 215.38 299.13 218.63 
M 300.12 222.06 300.71 223.86 302.42 227.93 
M 308.13 73.02 307.13 77.19 
M 306.11 81.34 304.89 87.85 304.33 89.87 
M 303.01 93.69 299.01 102.52 293.35 112.39 291.72 115.96 290.24 119.7 288.78 123.46 288.09 125.87 
M 295.67 164.97 296.67 170.46 297.85 174.62 302.92 188.52 303.99 192.49 305.07 197.86 
M 306.97 205.34 308.16 209.21 
M 309.54 213.22 314.76 226.73 
M 318.04 85.83 317.03 89.99 
M 315.93 94.05 313.45 101.9 
M 312.06 105.71 311.31 107.56 309.23 110.7 304.49 116.48 303.42 118.05 
M 299.34 124.39 298.38 125.91 
M 298.66 127.67 299.07 130.04 
M 307.06 163.16 308.15 168.76 309.58 173.17 310.56 175.64 
M 312.49 180.52 314.89 187.31 320.13 205.27 
M 321.25 209.08 323.89 216.98 
M 328.96 90.44 325.62 100.02 324.04 103.64 322.19 107.03 318.1 113.51 314.36 120.41 311.49 125.04 
M 316.4 148.57 317.59 152.79 
M 318.68 156.89 319.19 158.92 320.29 166.02 321.23 169.93 322.63 174.3 325.19 181.24 
M 326.88 185.82 329.02 192.25 331.09 199.89 334.68 211.52 338.03 220.71 
M 338.5 93.58 337.9 95.57 337.13 97.38 
M 333.74 104.45 331.19 109.83 328.86 115.5 
M 327.26 119.26 326.43 121.11 324.44 124.51 322.61 127.21 
M 328.18 146.17 329.22 150.21 
M 331.22 158.19 332.18 162.13 
M 335.95 174.72 342.14 192.27 
M 343.61 196.48 346.19 205.77 347.54 209.73 349.77 215.36 
M 350.95 84.77 349.62 88.58 
M 345.77 100.29 343.47 105.9 339.55 118 335.56 128.68 
M 338.68 139.75 340.12 144.14 
M 342.95 152.88 346.27 162.09 
M 347.91 166.64 350.08 173.16 351.52 178.87 
M 352.24 182.4 353.31 187.62 357.52 201.15 
M 359.06 205.26 361.08 210.11 
M 360.8 95.4 359.67 99.52 
M 358.49 103.63 357.85 105.63 355.32 111.1 
M 352.32 118.85 347.83 129.93 
M 352.09 144.37 354.71 151.36 359.86 163.71 
M 361.56 168.25 363.53 174.4 364.82 179.77 
M 365.49 183.11 367.23 191.32 368.24 194.83 370.84 201.46 
M 371.28 106.95 367.57 116.79 365.76 125.92 365.03 127.95 
M 363.26 131.61 362.21 133.24 
M 371.19 157.38 371.99 159.53 373.09 163.3 374.87 170.32 375.96 173.96 378.62 181.61 382.5 193.54 
M 384.92 110.25 379.89 129.97 378.54 134.18 377.49 136.89 
M 381.51 147.31 382.88 151.21 
M 386.3 162.04 388.96 170.64 390.76 175.89 
M 391.97 179.36 394.08 184.76 
M 397.05 122.48 396.17 129.92 395.11 134.43 393.2 139.57 
M 394.15 141.69 395.97 145.85 
M 398.68 153.17 399.82 156.57 
M 401.02 160 406.87 176.81 
M 362.14 172.76 360.66 172.99 359.75 172.91 358.69 172.6 358.16 172.03 
M 228.1 121.58 228.57 120.59 228.91 119.14 228.97 116.38 228.81 115.32 229 114.09 
M 266 224.2 263.13 221.67 261.55 219.28 261.1 217.83 260.98 216.23 261.45 214.8 
M 366.93 151.15 367.5 152.27 367.6 153.32 367.28 155.02 367.01 155.69 366.68 156.01 
M 322.02 180.49 318.97 180.15 315.92 178.94 315.29 179.15 
M 335.77 73.75 335.77 73.73 
M 419.39 139.78 421.07 137.62 
M 261.5 77.6 263.9 77.97 266.12 78.71 266.74 78.61 267.5 78.18 
M 282.62 209.24 282.32 209.7 282.32 210.17 282.95 211.7 286.19 214.69 
M 289.93 67.95 288.02 68.25 
M 277.1 194.19 277.24 192.23 277.98 191.05 278.14 190.04 278.44 189.52 
M 243.38 173.74 240.81 168.64 239.43 166.97 
M 406.41 125.45 406.23 122.85 405.24 118.2 
M 399.01 142.6 398.03 141.31 396.18 140.39 395.3 138.98 
M 380.22 187.16 378.96 187.72 374.89 190.88 371.84 192.62 
M 324.44 165.08 323.66 165.75 321.64 166.48 321.23 166.4 321.17 166.01 
M 231.81 189.09 231 189.33 229.68 190.09 227.64 192.75 226.86 193.24 225.93 193.54 223.74 193.81 221.61 194.66 220.78 195.34 220.2 196.29 
M 321.97 115.54 319.99 116.55 319.01 116.76 317.84 116.65 315.55 116.16 313.56 115.42 310.01 114.77 308.73 114.18 
M 381.91 166.2 381.76 167.67 381.93 170.03 380.79 171.58 
M 356.62 166.05 357.33 166.32 358.48 167.75 358.4 168.36 357.8 168.45 
M 290.86 194.12 289.31 194.59 287.77 194.17 286.55 193.44 
M 345.04 216.93 340.75 216.52 339.01 215.91 337.85 215.11 337.57 214.7 336.95 212.95 
M 302.66 127.78 302.55 129.28 302.81 129.61 303.39 129.88 
M 311.22 153.56 311.29 152 311 151.34 310.05 151.02 308.65 151.26 
M 373.32 133.63 373.99 133.46 375.61 132.58 376.25 132.1 376.34 131.86 
M 233.5 87.36 232.8 88.42 232.21 88.9 228.39 90.69 227.26 90.97 224.92 91.22 222.09 91.16 220.99 90.92 219.56 90.29 
M 360.41 201.66 359.93 201.08 360.28 200.43 
M 225.12 185.49 224.9 188.54 224.21 190.19 223.52 190.96 223.08 191.14 222.44 191.12 
M 322.06 67.46 320.64 71.56 
M 221.31 83.59 221.31 83.59 
M 226.64 80.87 225.88 73.55 226.68 70.32 228.14 67.76 229.4 64.99 232.21 63.64 234.29 61.58 237.48 60.68 240.84 59.97 242.86 57.81 244.29 55.06 246.24 52.87 248.6 51.15 251.91 50.52 262.94 45.84 265.17 44.25 266.95 42.1 269.06 40.25 271.72 39.03 273.59 37.05 277.22 36.82 287.05 35.59 290.17 35.82 293.39 36.75 296.46 38.65 299.14 39.14 302.82 36.73 306.45 36.99 315.03 38.26 317.83 39.15 321.21 40.63 323.56 41.3 329.2 43.63 331.27 43.69 334.66 44.96 337.23 44.81 340.37 45.02 342.94 44.69 346.12 45.51 348.68 45.71 351 47.03 360.08 55.12 361.28 57.09 366.51 69.93 368.1 73.13 371.02 74.45 373.47 75.17 375.73 75.58 377.67 75.63 380.28 77.26 381.45 79.16 383.52 81.91 385.42 85.29 385.47 88.25 385.73 91.07 387.24 93.88 389.8 98.06 389.63 103.78 
M 384.6 100.68 383.95 100.28 
M 225.7 81.35 226.76 80.53 227.31 79.05 226.89 76.76 
M 230.09 79.11 231.56 77.92 230.74 75.63 
M 234.56 77.05 236.02 75.9 235.21 70.19 
M 239.04 75 240.28 73.55 240.29 70.68 239.94 68.59 238.57 65.85 
M 243.49 72.88 244.77 72.08 244.86 70.21 244.35 66.13 243.04 62.96 
M 247.93 70.75 249.08 69.77 249.34 66.87 249.13 63.63 247.52 60.99 247.55 58.3 248.72 56.32 248.6 55.45 
M 252.52 68.96 253.74 67.17 254.21 62.9 254.14 58.22 253.43 55.32 
M 257.13 67.21 258.57 65.73 259.15 63.6 260.03 61.69 260.46 59.09 259.96 56.28 
M 261.87 65.86 263.35 64.2 264.24 61.59 264.85 59.07 265.2 56.82 
M 266.62 64.55 268.52 62.82 269.73 59.81 270.12 57.26 270.12 55.36 271.16 53.67 271.1 50.85 
M 271.44 63.54 273.46 62.19 274.71 59.33 275.43 57.24 276.51 53.17 276.95 46.12 
M 276.29 62.65 278.46 61.14 279.91 59.06 283.21 52.85 
M 281.21 62.43 283.67 61.36 284.92 59.79 286.16 56.8 289.49 53.29 
M 286.13 62.25 288.47 61.56 290.91 56.5 291.92 51.56 292.97 48.39 
M 291.06 62.17 293.16 60.88 295.67 56.19 296.31 50.87 
M 295.99 62.03 297.97 60.58 299.57 58.11 300.76 53.96 302.16 51.98 302.61 48.58 
M 300.91 61.83 306.2 56.91 307.3 55.42 308.23 52.54 310.53 49.39 311.4 46.87 
M 305.81 62.34 308.46 61.14 310.35 59.09 312.62 57.66 313.35 55.54 314.83 53.52 316.55 51.81 319.11 48.78 
M 310.66 63.22 314.09 62.32 316.71 60.2 318.18 58.14 319.97 56.5 321.74 54.58 323.66 51.81 
M 315.35 64.73 318.96 63.63 320.69 60.86 322.99 58.15 325.06 56.84 327.27 55.11 
M 319.98 66.4 323.03 65.71 325.29 63.35 329.05 58.27 331.74 57.15 333.72 54.96 336.8 53.67 
M 324.51 68.35 327.6 67.67 331.88 62.77 336.51 58.2 338.36 57.78 341.33 55.84 344.05 53.57 
M 329.01 70.35 331.67 69.51 334.3 67.99 339.26 63.59 341.84 63.02 344.26 61.25 
M 333.43 72.53 336.21 71.96 341.47 68.49 344.91 66.48 347.56 65.47 349.55 64.19 355.38 59.82 357.59 56.79 
M 337.83 74.74 340.93 74.26 346.78 70.78 348.61 68.32 352.09 67.08 354.54 65.1 355.99 62.56 358.61 60.5 361.34 58.81 
M 342.26 76.91 345.6 76.68 347.91 74.58 350.75 72.77 353.18 70.43 356.52 69.2 359.01 67.46 360.71 64.68 
M 346.69 79.07 350.57 79.27 353.87 77.26 358.64 73.21 
M 351.14 81.19 355.91 81.15 359.16 80.2 361.21 79.06 
M 355.6 83.28 360.15 83.56 364.01 83.12 366.15 81.57 368.43 80.28 
M 359.96 85.57 364.93 85.93 368.22 85.34 370.89 84.33 374.36 82.38 376.84 80.16 
M 364.29 87.93 369.07 87.73 372.08 86.88 375.33 85.63 378.49 83.63 
M 368.51 90.46 373.74 90.38 376.97 89.27 380 88.61 383.3 87.27 
M 372.68 93.1 377.86 93.54 381.21 92.85 
M 376.84 95.74 382.34 95.96 
M 380.99 98.39 386.82 98.87 
M 212.2 131.5 354.07 126.8 354.11 127.79 212.35 135.04 
M 212.3 135.44 337.35 138.42 337.34 139.41 212.25 138.99 
M 212.4 139.39 320.28 148.16 320.21 149.14 212.15 142.93 
M 212.49 143.34 302.99 156 302.87 156.98 212.05 146.86 
M 212.59 147.3 285.67 161.95 285.49 162.92 211.95 150.79 
M 212.69 151.26 268.45 166.01 268.22 166.97 211.86 154.71 
M 212.78 155.23 251.49 168.21 251.21 169.15 211.76 158.62 
M 212.88 159.2 234.96 168.57 234.62 169.5 211.67 162.53 
M 212.97 164.92 218.99 168.88 218.61 169.79 211.58 168.18 
M 339.93 128.51 335.9 129.58 333.99 130.28 332.18 131.15 330.51 132.22 328.96 133.48 327.52 134.92 324.85 138.12 
M 324.83 139.37 320.84 140 318.93 140.49 317.12 141.16 315.42 142.04 313.82 143.13 312.32 144.4 309.49 147.28 
M 309.4 148.52 305.49 148.73 303.61 149.01 301.81 149.48 300.09 150.17 298.46 151.08 296.91 152.18 293.94 154.74 
M 293.79 155.97 290 155.76 288.17 155.84 286.39 156.11 284.67 156.62 283.02 157.34 281.43 158.27 278.36 160.49 
M 278.13 161.71 274.51 161.09 272.74 160.97 271 161.06 269.3 161.37 267.65 161.91 266.03 162.66 262.87 164.54 
M 262.58 165.74 259.16 164.74 257.46 164.43 255.78 164.33 254.12 164.46 252.47 164.82 250.85 165.39 247.62 166.91 
M 247.26 168.1 244.08 166.73 242.48 166.24 240.88 165.95 239.26 165.9 237.64 166.08 236.02 166.47 232.75 167.63 
M 232.33 168.8 229.26 167.46 227.72 166.99 226.18 166.72 224.63 166.69 223.07 166.88 221.52 167.29 218.39 168.49 
M 337.89 129.01 333.99 130.28 332.18 131.15 330.51 132.22 328.96 133.48 326.16 136.49 
M 308.58 130.47 305.59 131.44 302.92 132.92 301.73 133.89 299.59 136.2 
M 279.27 131.92 277.19 132.6 275.33 133.63 273.01 135.91 
M 322.82 139.65 318.93 140.49 317.12 141.16 315.42 142.04 313.82 143.13 310.88 145.8 
M 297.02 139.54 294.05 140.18 292.66 140.7 290.12 142.21 287.87 144.26 
M 271.23 139.43 268.19 140.24 266.43 141.29 264.86 142.72 
M 307.43 148.59 303.61 149.01 301.81 149.48 300.09 150.17 298.46 151.08 295.41 153.42 
M 274.13 146.68 271.64 146.95 269.35 147.71 268.29 148.3 266.31 149.82 
M 291.89 155.82 288.17 155.84 286.39 156.11 284.67 156.62 283.02 157.34 279.88 159.34 
M 264.02 152.76 261.6 152.77 260.45 152.95 258.26 153.75 256.22 155.04 
M 276.32 161.36 272.74 160.97 271 161.06 269.3 161.37 267.65 161.91 264.44 163.56 
M 260.87 165.2 257.46 164.43 255.78 164.33 254.12 164.46 252.47 164.82 249.23 166.11 
M 257.45 223.35 261.34 228.37 267.73 236.1 275.81 267.21 271.54 271.23 268.83 272.7 266.92 274.4 261.33 269.82 258.28 270 255.11 270.99 252.18 269.12 244.08 259.97 240.34 254.19 238.42 250.15 233.82 243.31 225.77 222.89 224.44 218.83 224.08 214.89 221.31 208.97 
M 252.84 221.6 255.09 225.41 260.21 234.88 261.58 238.62 263.05 241.08 264.12 243.48 265.27 246.79 
M 248.24 219.85 250.38 223.57 253.37 229.6 253.95 233.07 255.34 236.99 257.28 240.5 258.78 242.84 259.88 245.27 260.96 248.77 262.09 251.13 263.97 252.83 
M 243.69 217.95 245.34 221.59 249.14 227.49 249.79 230.51 250.19 234.11 251.33 237.77 252.55 241.39 254.71 243.95 255.38 246.98 255.87 250.43 257.7 253.02 
M 239.14 216.06 241.99 223.1 244.22 226.07 245.82 228.87 245.46 231.79 246.08 238.44 248.16 241.19 249.61 244.43 251.17 247.19 253.46 255.25 255.42 258.37 257.47 262.45 258.8 265.52 
M 234.51 214.38 236.21 218.4 238.43 225.05 239.17 228.37 242.8 236.6 243.74 239.92 243.88 241.97 245.7 245.16 247.1 249 247.59 252.28 
M 229.89 212.67 231.69 217.17 233.65 223.62 234.71 230.43 236.19 233.82 238.16 236.16 239.94 238.64 
M 225.36 210.72 227.17 214.94 227.93 218.28 228.17 221.89 229.36 225.19 230.02 227.9 230.24 231.8 231.55 234.93 232.57 237.98 
M 392.98 192.69 401.61 198.11 404.18 199.51 409.52 208.76 408.25 211.38 406.28 213.31 406.53 215.67 404.4 217.58 402.79 220.09 398.07 223.66 396.17 225.85 394.96 228.68 392.18 229.58 387.02 231.85 384.98 233.65 382.09 234.23 378.48 234 376.6 236.18 375.24 239.01 373.18 240.95 370.4 242.34 368.25 243.84 365.63 244.86 362.96 245.47 359.28 245.05 352.97 243.5 349.99 243.05 346.88 242.88 344.38 243.33 334.77 242.53 331.98 241.72 329.27 241.77 319.49 238.37 316.91 233.41 311.66 227.26 
M 388.83 195.34 393.5 197.97 401.89 203.52 403.77 205.98 
M 384.67 197.98 388.16 201.34 391.44 203.6 395.05 205.7 397.77 207.99 400.01 209.38 404.65 211.9 
M 380.46 200.54 387.03 206.55 390.37 208.95 392.74 210.89 396.2 212.44 397.9 214.67 400.06 216.04 405.11 216.8 
M 376.24 203.09 379.71 206.44 382.97 208.36 388.23 213.02 390.92 215.05 393.74 218.07 395.1 220 
M 371.92 205.46 378.34 211.7 383.42 215.41 386.3 217.09 388.99 219.58 391.64 222.46 
M 367.55 207.74 371.45 211.66 378.01 216.33 380.43 218.36 382.36 220.32 385.03 221.25 
M 363.15 209.94 367.38 213.58 370.88 216.09 376.43 220.92 378.9 223.34 380.74 226.4 383.06 228.5 
M 358.72 212.1 362.42 215.53 368.95 220.1 374.86 225.37 375.61 228.45 
M 354.28 214.25 357.63 217.73 360.56 220.33 364.19 222.28 367.41 225.08 
M 349.84 216.39 353.26 219.65 361.99 227.31 366.04 229.24 368.18 232.06 371.04 234.75 
M 345.29 218.27 348.8 221.46 350.99 223.76 356.2 228.05 358.66 231.09 365.18 236.58 367.92 238.48 
M 340.65 219.92 344.08 223.89 348.47 228.54 351.42 230.95 356.88 236.19 
M 335.97 221.46 339.46 225.54 346.92 233.49 353.26 238.22 356.11 240.98 
M 331.26 222.92 334.62 227.66 337.72 230.67 340.32 233.61 342.65 235.41 346.04 237.45 
M 326.53 224.3 330.24 228.65 332.73 232.06 335.27 234.88 
M 321.78 225.62 325 229.85 327.54 232.76 333.48 238.52 
M 316.93 226.48 320.91 231.29 323.26 234.55 
M 420.09 121.89 423.47 120.9 425.96 119.33 428.69 117.91 431.58 116.67 433.88 114.99 436.51 114.14 439.67 112.59 444.4 107.88 449.05 106.07 451.4 105.6 454.7 103.94 457.12 102.57 465.98 96.89 468.29 94.96 470.72 94.27 473.14 93.24 476.78 92.88 479.02 89.63 481.15 86.99 484.2 85.99 487.05 84.44 487.86 81.93 490 91.45 487.82 96 487.75 102.94 487.16 105.97 486.22 108.65 484.86 114.6 484.61 117.4 484.7 120.33 483.04 122.34 482.73 125.73 481.46 131.56 482.77 135.49 483.36 138.69 483.26 141.21 482.36 143.2 482.17 145.93 481.59 148.68 478.89 156.99 479.25 160.46 479.71 163.22 480.51 166.08 480.89 168.32 481.66 170.92 483 174.1 483.57 177.3 484.14 183.52 484.63 186.76 484.52 189.41 484.76 192.17 483.87 193.47 484.42 196.42 485.95 200.69 487.16 204.64 487.73 208.09 485.7 212.96 488.95 222.53 484.77 219.29 482.78 217.27 480.47 216.32 477.73 213.42 475.48 210.49 473.26 208.29 470.07 206.53 467.87 205.89 466.65 203.98 463.41 203.75 460.86 202.73 454.69 199.5 452.1 197.66 450.01 195.89 448.5 193.56 446.61 191.42 443.23 188.88 439.36 187.13 436.41 185.09 434.49 182.87 428.9 179.67 425.72 178.08 422.98 176.22 420.09 173.28 
M 423.81 123.72 429.1 120.9 434.77 118.62 437.6 116.65 440.65 115.74 442.94 113.56 445.5 112.03 447.7 111.34 452.19 109.06 457.68 107.66 461.38 104.95 465.04 102.72 468.81 101.54 470.38 100.17 471.49 98.26 473.05 98.28 480.1 95.34 
M 420.09 127.03 423.84 127.17 435.24 122.02 438.08 120 440.97 118.69 443.84 117.81 446.75 116.64 448.99 116 452.03 115.45 454.61 114.4 460.42 111.21 464.35 107.84 467.78 106.27 
M 423.93 129.98 426.86 129.4 429.47 128.65 432 127.21 435.14 126.2 439.17 124.59 441.64 123.04 444.05 122.66 447.2 120.39 450.17 119.63 457.21 118.87 461.38 116.91 464.02 115.36 466.79 113.49 
M 423.93 132.44 429.84 131.73 432.85 130.94 435.53 129.88 438.61 129.15 441.73 127.73 444.19 127.36 447.38 125.64 451.14 124.6 455.1 124.19 458.01 123.31 
M 427.25 134.6 430.09 134.19 433.05 133.48 435.95 133.02 439.35 132.75 444.83 130.84 448.04 130.58 450.96 129.37 453.95 128.47 457.72 127.95 460.75 126.2 
M 420.09 137.31 424.01 137.59 429.9 136.39 445.34 134.36 448.97 134.09 451.77 133.5 454.58 133.35 457.65 131.6 460.27 130.74 462.76 131.16 465.37 130.65 
M 427.17 139.78 429.98 139.3 436.87 139.3 440.18 138.6 442.62 137.69 445.63 137.3 448.93 137.62 452.87 136.86 461.53 137.33 464.85 137.79 467.73 136.85 
M 430.65 142.53 433.45 141.94 436.99 142.11 440.39 142.6 445.54 141.48 448.71 141.84 452.91 141.32 456.03 141.39 459.31 141 462.09 142.33 464.46 142.87 468.73 143.12 473.37 142.36 476.44 141.49 479.58 140.84 
M 424.25 145.96 428.01 146.14 434.47 145.16 437.88 146.11 440.43 146.56 441.75 146.97 449.74 146.36 453.91 146.84 457.06 146.61 459.73 145.84 462.88 146.11 465.6 146.66 
M 420.09 147.58 424.64 148.75 428.43 149.23 431.86 149.14 437.37 149.7 439.74 150.96 445.27 151.24 450.07 150.93 457.51 151.59 460.4 150.87 464 150.59 
M 424.19 151.57 427.44 152.38 430.87 152.62 434.28 152.46 440.25 154.25 446.3 154.91 448.81 153.93 453.2 153.88 456.85 154.74 459.05 156.03 462.05 157 
M 430.01 155.74 436.3 156.97 439.96 157.24 442.95 158.41 446.33 159.12 452.75 158.79 455.72 159.29 458.97 160.13 461.73 160.64 463.46 161.52 470.09 161.97 
M 420.09 155.29 423.59 157.39 429.93 158.77 432.33 159.69 435.67 159.99 439.35 160.76 442.97 162.32 446.51 163.04 449.62 162.68 452.88 163.83 455.82 163.94 460.09 166.56 
M 423.47 160.09 426.9 160.93 429.96 161.49 432.86 162.34 436.47 163 440.4 164.62 443.27 166.26 449.2 167.15 451.18 167.8 453.62 167.63 457.02 168.92 
M 420.09 160.43 423.62 162.57 427.12 163.25 432.95 165.68 436.35 166.76 439.16 168.66 446.14 171.18 448.59 171.07 451.17 171.86 454.39 172.02 457.27 172.73 460.13 174.75 462.76 175.59 465.5 176.99 470.03 180.48 473.45 182.5 
M 420.09 163 427.39 166.3 430.38 167.93 432.86 168.74 436.07 170.33 439.07 172.23 441.74 174.32 444.07 175.85 447.58 175.44 451.33 175.84 
M 420.09 165.57 424.05 167.19 435.99 174.43 439.23 175.86 440.98 177.58 442.18 179.81 445.93 180.9 449.63 181.03 453.88 180.65 456.1 181.82 461.1 186.05 463.87 187.41 
M 429.54 173.63 432.52 175.44 435.58 176.43 442.48 182.8 445.79 183.91 448.56 184.13 451.06 185.66 452.66 187.29 455.63 188.98 459.17 190.53 463.01 192.75 466.57 194.16 
M 429.19 176.68 435.24 179.92 437.57 182.08 439.87 184.54 443.74 185.53 447.26 187.11 449.74 188.56 452.49 192.16 455.51 193.56 458.24 196.77 462.38 198.71 466.38 199.95 468.7 201.44 470.53 203.25 473.48 204.28 475.1 204.34 477.56 205.35 478.23 206.58 479.28 209.22 482.37 211.08 
M 409.27 178.03 406.11 180.37 404.71 181.76 402.75 185.24 401.74 186.67 402.02 186.4 
M 92.39 160.91 96.96 156.59 100.45 152.8 103.91 147.76 108.51 142.63 114.88 138.42 121.33 134.62 127.13 130.57 133.61 125.68 141.06 121.13 149.33 116.91 157.64 112.97 165.52 109.67 173.36 106.65 186.67 102.06 194.17 99.86 198.07 104.67 199.93 109.72 202.05 114.75 204.42 119.75 206.3 124.8 207.49 129.92 209.19 140.21 208.95 145.45 209.1 150.66 208.97 155.9 207.69 166.46 208 171.66 207.87 182.12 207.28 187.4 205.94 192.74 203.26 198.14 187.47 197.47 175.86 196.3 156.03 193.12 147.01 190.96 131.25 186.49 124.42 184.46 117.63 181.81 
M 113.28 180.06 106.84 176.98 104.3 175.14 
M 178.19 135.62 178.63 140.09 176.97 148.76 175.72 152.66 172.7 159.19 173.21 165.1 175.92 174.67 176.13 178.83 157.92 178.47 143.4 177.68 136.05 176.61 129.07 175.09 122.67 173.35 
M 113.87 180.39 108.73 177.8 106.66 176.59 93.62 168.82 89.32 166.07 87.59 164.25 87.76 161.79 89.77 160.27 92.28 160.81 100.06 167.38 105.92 172.05 109.54 175.22 117.85 181.44 
M 117.52 182.36 110.21 181.54 107.71 181.4 100.3 180.14 85.63 178.05 83.43 177.13 82.52 174.84 83.69 172.6 86.12 172.22 97.85 175.69 107.49 178.9 117.68 181.37 
M 136.61 151.36 134.7 148.67 133.76 145.51 133.89 142.22 135.09 139.14 137.22 136.63 140.06 134.94 143.28 134.26 146.56 134.67 149.52 136.12 151.85 138.45 153.3 141.41 153.71 144.69 153.03 147.92 151.34 150.75 148.83 152.88 145.75 154.08 142.46 154.22 139.3 153.27 136.61 151.36 
M 150.22 139.62 151.38 141.99 151.71 144.6 151.17 147.19 149.81 149.45 147.8 151.16 145.34 152.12 142.71 152.23 140.18 151.47 138.03 149.94 
M 140.12 146.37 139.36 145.29 138.98 144.03 139.04 142.71 139.52 141.48 140.37 140.48 141.5 139.8 142.79 139.53 144.1 139.69 145.29 140.27 146.22 141.2 146.8 142.39 146.96 143.7 146.69 144.99 146.02 146.12 145.01 146.98 143.78 147.46 142.46 147.51 141.2 147.13 140.12 146.37 
M 139.34 145.21 141.29 147.16 
M 140.35 143.56 144.12 147.33 
M 140.65 141.2 145.78 146.33 
M 143.11 141 146.76 144.65 
M 145.15 140.38 146.45 141.68 
M 93.8 159.53 99.42 165.15 
M 96.86 156.68 101.65 161.47 
M 99.7 153.61 105.58 159.49 
M 102.22 150.21 108.12 156.11 
M 104.75 146.82 108.74 150.82 
M 107.55 143.71 110.84 147 
M 110.84 141.09 116.36 146.61 
M 114.4 138.74 119.37 143.71 
M 118.1 136.52 121.6 140.02 
M 121.79 134.3 127.41 139.92 
M 125.27 131.87 129.1 135.7 
M 128.7 129.39 133.1 133.78 
M 132.07 126.84 136.9 131.68 
M 135.6 124.46 139.72 128.58 
M 139.27 122.22 144.38 127.33 
M 143.07 120.1 148 125.04 
M 146.99 118.11 149.97 121.09 
M 150.94 116.15 154.97 120.18 
M 154.95 114.25 160.32 119.62 
M 159.01 112.39 163.65 117.04 
M 163.18 110.65 168.81 116.28 
M 167.39 108.95 172.04 113.6 
M 171.66 107.3 174.86 110.51 
M 176 105.73 180.98 110.71 
M 180.4 104.22 185.65 109.47 
M 184.8 102.71 190 107.91 
M 189.27 101.26 192.76 104.75 
M 193.86 99.95 195.45 101.53 
M 139.72 169.65 140.22 169.08 140.87 168.77 141.59 168.65 142.17 168.74 142.79 169.3 143.01 170 142.8 170.89 142.39 171.19 
M 138.29 134.62 134.08 134.34 132.41 134.5 131.78 134.64 130.44 135.67 
M 129.26 173.73 130.98 172.56 133.23 171.52 134.26 170.58 135.28 168.83 135.73 165.79 
M 168.07 167.8 165.21 167.14 162.63 166.04 161.05 164.7 158.79 163.11 158.43 162.63 157.99 161.25 
M 159.26 130.03 157.1 130.28 156.03 130.22 154.08 129.61 152.53 128.92 151.61 127.88 150.55 127.06 
M 102.1 157.31 104.43 156.22 109.22 152.84 113.16 151.59 114.56 150.94 115.07 150.51 115.49 149.84 
M 186.5 178.52 182.92 178.62 181.82 178.24 181.06 177.31 180.21 175.23 179.76 174.58 178.3 173.15 
M 203.88 170.72 203.57 171.4 203.45 172.22 203.52 175.29 
M 153.3 146.62 155.22 148.57 155.77 149.68 155.86 150.44 155.35 152.4 154.85 153.47 152.31 155.97 151.7 157.17 
M 195.5 177.63 196.16 176.88 198.64 175.58 199.19 175.61 199.92 176.15 
M 167.64 117.49 166.08 116.81 163.66 115.37 159.06 113.94 157.15 113.2 
M 170.16 123.38 167.35 125.27 163.7 128.35 162.46 129.05 157.96 129.4 156.8 129.31 155.79 128.93 
M 113.28 156.56 113.38 155.97 113.84 155.04 117.47 151.13 117.77 150.28 117.9 148.08 
M 119.65 182.6 119.58 181.4 119 179.23 117.77 177.84 
M 141.5 182.5 141.52 181.14 141.76 180.45 142.13 180.2 142.44 180.24 142.77 180.59 142.88 180.98 
M 134.31 174.67 135.79 174.24 137.69 173.18 139.78 171.3 140.76 170.02 142.01 169.49 142.44 169.49 142.85 169.92 
M 165.35 178.61 164.95 179.15 165.09 179.86 166.04 180.71 166.92 180.98 
M 175.07 136.11 173.91 138.64 173.92 139.87 174.39 141.26 
M 188.97 120.35 188.36 119.93 187.78 119.8 186.73 119.91 183.79 120.65 183.2 121.47 
M 166.78 117.98 163.34 115.88 160.93 115.25 157.01 114.71 155.12 114.16 
M 181.09 149.66 181.39 149.38 181.32 148.76 
M 121.96 183.5 121.37 182.4 121 180.52 120.31 179.12 
M 202.29 116.77 202.76 116.25 
M 147.77 132.41 149.28 134.47 149.55 135.28 149.65 136.25 
M 161.77 139.05 163.09 139.38 167.83 139.75 168.85 140.25 169.43 140.3 
M 181.79 144.62 180.15 144.56 179.9 144.77 179.92 145.26 
M 168.64 171.91 169.12 171.52 169.54 170.55 169.5 169.83 169.13 169.06 168.79 168.7 167.53 168.09 165.74 167.72 
M 165.47 169 163.78 168.56 162.85 168.13 161.96 167.49 160.55 165.64 158.09 162.98 157.75 161.57 157.46 161.03 
M 177.21 137.69 175.11 139.46 174.9 140.01 175.02 140.85 
M 165.01 161.99 163.76 161.75 161.68 161.67 160.29 160.9 158.7 160.65 157.23 160.17 156.6 160.17 155.03 160.8 154.16 160.87 
M 126.62 154.36 126.74 155.45 126.53 156.23 123.83 160.5 123.53 161.8 
M 161.75 176.75 162.62 175.69 162.95 174.91 163.09 173.69 162.88 172.06 
M 190.38 135.21 189.63 134.84 186.9 134.08 185.92 133.95 183.61 133.99 182.49 134.59 
M 202.72 188.03 201.88 188.77 201.22 189.11 198.02 189.37 
M 187.91 128.84 183.49 127.53 182.51 127.34 181.78 127.39 181.16 127.64 180.7 128.03 180.45 128.49 180.33 129.25 180.43 130.06 
M 163.09 190.33 161.58 190.18 158.32 189.03 157.94 189.05 157.35 189.51 
M 191.22 106.1 188.95 106.5 188.19 106.38 186.22 105.45 184.33 103.46 
M 123.23 183.99 122.6 183.44 121.69 181.98 121.46 180.38 121.16 179.76 118.88 177.19 
M 205.51 177.51 205.36 178.72 205.06 179.39 203.81 180.68 203.09 180.97 
M 123.26 159.34 122.53 160.29 121.99 160.41 121.4 160.24 
M 177.31 187.93 177.88 189.71 178.31 190.46 179.63 190.97 180.93 190.98 
M 166.67 127.37 163.9 129.4 162.7 129.8 158.7 130.57 155.51 130.75 152.8 130.53 152.09 130.16 
M 164.26 189.89 161.91 189.71 161.29 189.54 157.92 187.22 157.01 187.2 156.51 187.44 
M 193.15 141.6 192.66 138.81 192.24 137.88 191.46 137.24 191.1 137.28 190.73 137.53 
M 153.95 115 153.48 114.94 
M 151.88 115.71 150.48 119.97 149.34 121.98 
M 152.93 175.02 155.01 171.42 155.9 168.99 156.68 165.4 156.59 164.57 
M 199.39 111.47 198.4 110.76 196.48 110.5 192.02 111.03 
M 122.53 149.21 123.29 149.21 123.65 149.45 124.26 150.37 125.03 152.18 125.8 155.7 124.92 157.57 
M 158.05 162.86 157.63 161.2 157.11 160.83 156.42 160.8 155.43 161.14 154.19 160.93 
M 192.75 187.37 191.68 187.21 190.63 186.65 190.16 186.18 189.77 185.14 
M 172.47 110.66 171.91 111.28 170.79 113.26 170.17 113.61 169.23 113.81 
M 195.69 158.56 191.82 158.27 189.03 159.4 187.24 159.87 182.33 159.55 
M 157.9 165.73 157.74 164.88 156.82 162.99 156.49 161.71 156.06 161.38 155.15 161.2 
M 139.62 160.28 139.03 161.25 138.44 161.36 136.61 160.26 135.13 158.96 
M 205.23 142.36 205.24 141.14 205.04 140.05 204.37 138.91 202.34 136.26 201.95 135.45 201.43 133.57 200.52 131.75 200.1 129.98 
M 115.88 185.44 115.16 188.44 113.91 191.4 112.05 194.09 109.6 196.24 106.74 197.75 103.68 198.67 100.54 198.95 97.48 198.82 79.75 196.74 76.8 195.96 73.99 194.83 68.65 192.3 65.93 191.25 60.27 189.78 54.49 188.92 51.56 188.86 48.64 189.09 42.87 190.17 40.06 191.04 37.33 192.15 34.71 193.51 30 197.06 34.66 193.43 37.24 191.98 39.96 190.78 42.76 189.81 48.57 188.52 51.53 188.19 54.52 188.16 57.5 188.4 60.45 188.85 66.28 190.16 69.12 191.15 74.55 193.51 77.26 194.5 80.05 195.14 97.6 196.63 100.46 196.66 103.2 196.34 105.77 195.48 108.1 194.14 110.03 192.34 111.46 190.11 112.43 187.59 112.99 184.81 
M 109.35 196.37 106.95 198.94 104.52 200.91 101.83 202.48 99.03 203.73 96.15 204.72 93.21 205.46 87.3 206.44 78.44 207.23 75.6 207.65 72.88 208.53 70.29 209.76 53.11 221.18 48.57 224.93 44.49 229.18 42.69 231.52 39.95 236.74 42.61 231.47 44.34 229.06 48.31 224.65 52.76 220.73 69.67 208.69 72.37 207.29 75.25 206.27 78.24 205.72 87.03 204.65 92.75 203.51 95.52 202.72 98.2 201.7 100.76 200.46 103.45 198.7 
M 107.54 194.47 108.76 192.76 110.21 190.29 112.77 185.07 
M 116.07 186.15 115.39 187.49 
M 110.49 195.46 107.65 198.76 105.21 200.71 102.57 202.35 99.72 203.64 98.18 204.02 
M 90.43 204 87.44 202.83 84.86 201.16 80.14 197.59 78.2 196.33 
M 72.03 193.89 69.69 193.85 66.97 194.57 64.48 195.94 62.29 197.8 60.41 200 58.9 202.48 56.49 207.86 53.67 213.08 50.52 218.09 47.11 222.92 50.44 218.04 53.42 212.94 56.05 207.66 58.3 202.18 59.78 199.56 61.67 197.2 63.93 195.16 66.57 193.6 69.54 192.71 
M 72.64 192.67 75.66 193.44 78.43 194.77 
M 82.09 197.09 85.83 199.74 88.25 201.21 90.85 202.15 93.58 202.53 96.32 202.33 97.2 202.08 
M 113.39 184.9 113.42 184.84 
M 96.93 179.68 102.97 182.13 108.72 184.04 114.57 185.54 120.49 186.71 126.48 187.57 138.73 188.64 
M 114.26 182.47 114.18 182.2 
M 194.17 99.86 200.3 106 
M 199.03 96.84 205.82 103.63 
M 203.92 93.85 211.96 101.89 
M 208.78 90.83 214.73 96.77 
M 213.7 87.86 225.07 99.22 
M 218.75 85.02 228.21 94.49 
M 223.88 82.28 231.89 90.28 
M 229.11 79.61 237.02 87.53 
M 234.47 77.09 245.35 87.97 
M 239.87 74.61 246.31 81.05 
M 245.2 72.06 255.15 82 
M 250.68 69.66 258.9 77.87 
M 256.4 67.49 263.43 74.51 
M 262.49 65.69 273.56 76.76 
M 268.78 64.1 276.98 72.3 
M 275.29 62.73 286.98 74.42 
M 282.8 62.36 291.5 71.05 
M 290.51 62.18 298.91 70.58 
M 298.16 61.94 305.59 69.38 
M 306.57 62.48 316.32 72.23 
M 317.48 65.5 328.27 76.29 
M 331.35 71.49 342.89 83.02 
M 346.95 79.2 357.5 89.75 
M 362.69 87.06 371.91 96.28 
M 383.54 100.02 394.75 111.23 
M 403.39 111.99 412.57 121.17 
M 422.72 123.44 427.82 128.53 
M 205.71 193.21 205.78 193.35 
M 206.93 188.77 209.27 193.45 
M 213.68 202.26 215.41 205.73 
M 207.72 183.45 213.65 195.31 
M 218.94 205.88 219.78 207.55 
M 207.86 176.82 215.39 191.88 
M 211.82 177.84 214.46 183.13 
M 216.23 186.66 217.11 188.42 
M 234.63 188.97 235.51 190.74 
M 236.39 192.5 237.27 194.26 
M 250.28 220.27 250.5 220.72 
M 206.56 125.94 209.96 132.74 
M 235.52 183.86 237.28 187.39 
M 239.05 190.91 241.69 196.2 
M 253.15 219.12 254.75 222.33 
M 202.03 109.97 210.84 127.6 
M 211.72 129.37 213.49 132.89 
M 237.29 180.49 242.57 191.07 
M 243.46 192.83 244.34 194.59 
M 256.68 219.27 258.96 223.84 
M 205.55 110.12 217.01 133.04 
M 239.93 178.88 247.86 194.74 
M 260.2 219.42 263.08 225.18 
M 209.07 110.27 215.25 122.61 
M 217.01 126.14 218.77 129.66 
M 243.45 179.02 250.5 193.13 
M 210.83 106.89 211.71 108.65 
M 212.59 110.41 219.65 124.52 
M 245.21 175.64 253.14 191.5 
M 216.11 110.54 216.99 112.3 
M 217.87 114.06 221.4 121.12 
M 223.16 124.64 224.04 126.4 
M 250.48 179.29 254.89 188.11 
M 264.59 207.5 268.99 216.31 
M 221.38 114.19 222.26 115.95 
M 228.43 128.29 229.31 130.06 
M 254 179.42 254.88 181.18 
M 266.34 204.1 272.51 216.44 
M 228.42 121.37 229.3 123.13 
M 230.18 124.89 233.71 131.95 
M 268.08 200.7 268.97 202.46 
M 269.85 204.22 276.9 218.33 
M 231.11 119.85 232.87 123.38 
M 233.75 125.14 237.35 132.34 
M 271.66 200.94 278.71 215.05 
M 279.59 216.81 280.47 218.57 
M 233.8 118.34 240.74 132.21 
M 275.23 201.2 281.4 213.54 
M 236.5 116.83 244.13 132.09 
M 277.93 199.69 280.57 204.97 
M 281.45 206.74 284.1 212.03 
M 222.92 82.77 225.12 87.18 
M 234.82 106.57 236.58 110.09 
M 237.46 111.86 238.34 113.62 
M 239.22 115.38 240.11 117.15 
M 240.99 118.91 247.16 131.25 
M 225.67 81.37 227.87 85.77 
M 236.68 103.4 241.97 113.98 
M 243.74 117.51 249.91 129.85 
M 296.62 223.28 297.5 225.04 
M 298.46 226.97 298.99 228.01 
M 226.15 75.43 231 85.13 
M 238.93 100.99 245.98 115.1 
M 246.86 116.86 249.51 122.15 
M 250.39 123.91 251.27 125.68 
M 252.15 127.44 253.03 129.2 
M 300.63 224.4 301.51 226.16 
M 302.23 227.6 302.51 228.16 
M 227.66 71.56 235.15 86.55 
M 241.32 98.89 249.26 114.75 
M 304.79 225.81 305.51 227.27 
M 229.35 68.04 236.84 83.03 
M 243.01 95.37 243.89 97.13 
M 244.78 98.89 249.18 107.71 
M 250.06 109.47 251.83 113 
M 277.39 164.12 278.27 165.88 
M 279.15 167.65 286.2 181.75 
M 232.1 66.64 235.19 72.81 
M 236.07 74.58 237.83 78.1 
M 246.64 95.73 248.41 99.26 
M 249.29 101.02 251.93 106.31 
M 252.81 108.07 253.7 109.84 
M 281.02 164.48 288.95 180.35 
M 237.55 70.65 240.2 75.94 
M 251.66 98.86 252.54 100.62 
M 253.42 102.39 254.3 104.15 
M 284.27 164.09 289.56 174.66 
M 291.32 178.19 293.09 181.72 
M 286.41 161.48 293.47 175.58 
M 294.35 177.34 295.23 179.1 
M 290.42 162.58 297.47 176.68 
M 242.91 60.66 244.23 63.31 
M 245.99 66.83 246.87 68.6 
M 291.83 158.5 294.47 163.79 
M 295.35 165.55 299.76 174.37 
M 244.77 57.49 245.21 58.37 
M 246.09 60.13 247.85 63.66 
M 277.82 123.59 278.7 125.36 
M 279.58 127.12 280.47 128.88 
M 295.45 158.85 297.21 162.38 
M 298.09 164.14 300.74 169.43 
M 247.08 55.21 253.69 68.44 
M 276.61 114.27 279.25 119.56 
M 281.02 123.09 281.9 124.85 
M 310.99 183.02 317.16 195.36 
M 249.86 53.87 252.94 60.04 
M 253.82 61.8 256.47 67.09 
M 278.5 111.16 287.32 128.79 
M 314.64 183.44 319.05 192.25 
M 252.9 53.05 260.39 68.04 
M 281.54 110.35 288.6 124.45 
M 289.48 126.21 290.36 127.97 
M 301.82 150.89 302.7 152.65 
M 315.92 179.1 323.85 194.96 
M 255.74 51.84 261.47 63.29 
M 272.05 84.45 275.57 91.5 
M 276.45 93.26 277.33 95.03 
M 283.5 107.37 292.32 125 
M 304.28 148.91 304.66 149.68 
M 305.54 151.44 306.42 153.2 
M 308.18 156.73 309.07 158.49 
M 318.76 177.88 325.81 191.98 
M 332.86 206.09 333.75 207.85 
M 259.01 51.49 264.3 62.07 
M 274 81.46 280.17 93.8 
M 286.34 106.14 296.03 125.53 
M 307.56 148.58 312.78 159.02 
M 321.6 176.65 327.77 188.99 
M 333.94 201.33 340.11 213.67 
M 261.42 49.4 262.74 52.05 
M 263.62 53.81 265.39 57.33 
M 275.96 78.49 283.02 92.59 
M 290.07 106.7 290.95 108.46 
M 291.83 110.22 295.36 117.27 
M 310.06 146.68 316.51 159.58 
M 335.9 198.36 343.83 214.23 
M 277.8 75.26 286.62 92.89 
M 293.67 107 294.55 108.76 
M 297.19 114.05 298.07 115.81 
M 312.35 144.37 318.35 156.36 
M 338.62 196.9 340.38 200.43 
M 341.26 202.19 347.43 214.53 
M 281.87 76.51 283.64 80.04 
M 284.52 81.8 288.93 90.62 
M 299.5 111.77 300.38 113.53 
M 314.84 142.44 321.54 155.84 
M 341.81 196.39 349.74 212.25 
M 280.69 67.24 281.57 69 
M 284.21 74.29 291.26 88.39 
M 302.72 111.31 303.6 113.08 
M 305.37 116.6 306.25 118.36 
M 317.56 141 321.23 148.33 
M 344.15 194.17 346.79 199.46 
M 348.56 202.98 352.08 210.03 
M 279.04 57.05 281.68 62.34 
M 284.33 67.63 286.97 72.91 
M 289.62 78.2 292.26 83.49 
M 303.72 106.41 310.77 120.51 
M 320.55 140.07 323.99 146.96 
M 350.44 199.84 353.96 206.89 
M 279.68 51.44 288.5 69.07 
M 305.25 102.56 315.82 123.72 
M 323.76 139.58 324.64 141.34 
M 326.4 144.87 327.28 146.63 
M 283.91 52.99 291.84 68.85 
M 307.71 100.58 317.4 119.97 
M 284.5 47.27 295.07 68.42 
M 305.65 89.58 307.41 93.1 
M 308.3 94.86 309.18 96.63 
M 310.94 100.15 321.52 121.31 
M 362.06 202.4 362.94 204.16 
M 363.83 205.92 365.31 208.89 
M 288.66 48.7 296.6 64.57 
M 306.29 83.96 311.58 94.54 
M 315.99 103.35 320.4 112.17 
M 321.28 113.93 322.16 115.69 
M 353.89 179.16 354.77 180.92 
M 357.42 186.21 358.3 187.97 
M 364.47 200.31 368.05 207.48 
M 292.77 50.01 296.29 57.06 
M 309.51 83.51 316.57 97.61 
M 320.97 106.42 324.5 113.47 
M 344.77 154.02 346.53 157.55 
M 355.35 175.17 362.4 189.28 
M 365.93 196.33 367.69 199.85 
M 368.57 201.62 370.79 206.05 
M 296.4 50.38 298.16 53.91 
M 311.39 80.35 320.2 97.98 
M 323.73 105.03 324.61 106.79 
M 344 145.58 345.76 149.1 
M 346.64 150.87 351.05 159.68 
M 358.98 175.55 366.04 189.65 
M 369.56 196.7 373.52 204.62 
M 307.8 66.28 308.68 68.04 
M 314.85 80.38 321.9 94.48 
M 336 122.69 336.89 124.45 
M 344.82 140.32 346.58 143.84 
M 347.46 145.61 355.4 161.47 
M 358.04 166.76 369.5 189.68 
M 372.14 194.97 376.21 203.11 
M 306.65 57.08 307.53 58.84 
M 310.17 64.13 312.82 69.42 
M 313.7 71.18 314.58 72.94 
M 318.11 79.99 320.75 85.28 
M 321.63 87.04 322.51 88.81 
M 336.62 117.01 341.9 127.59 
M 348.07 139.93 356.89 157.56 
M 361.3 166.37 367.47 178.71 
M 368.35 180.48 373.64 191.05 
M 375.4 194.58 378.86 201.51 
M 308.36 53.61 309.24 55.37 
M 310.13 57.13 316.3 69.47 
M 318.06 73 318.94 74.76 
M 338.33 113.55 339.21 115.31 
M 340.09 117.07 345.38 127.65 
M 349.79 136.46 357.72 152.33 
M 358.6 154.09 359.49 155.85 
M 365.66 168.19 376.23 189.35 
M 378 192.87 381.51 199.91 
M 311.54 53.06 321.23 72.45 
M 341.51 113 343.27 116.52 
M 344.15 118.29 348.56 127.1 
M 354.73 139.44 361.78 153.54 
M 367.95 165.88 377.65 185.28 
M 382.05 194.09 382.93 195.85 
M 313.44 49.96 315.2 53.48 
M 316.08 55.25 323.13 69.35 
M 324.01 71.11 324.89 72.88 
M 344.29 111.66 348.69 120.47 
M 349.57 122.24 352.22 127.52 
M 357.51 138.1 358.39 139.86 
M 359.27 141.63 361.91 146.92 
M 362.8 148.68 364.56 152.2 
M 370.73 164.54 376.9 176.88 
M 377.78 178.65 379.54 182.17 
M 316.28 48.76 317.17 50.52 
M 318.05 52.28 324.22 64.62 
M 325.1 66.39 326.86 69.91 
M 347.14 110.46 353.31 122.8 
M 375.34 166.87 376.22 168.63 
M 377.99 172.16 379.75 175.68 
M 380.63 177.45 382.39 180.97 
M 318.34 45.98 319.22 47.74 
M 320.11 49.5 328.04 65.37 
M 328.92 67.13 329.8 68.89 
M 351.84 112.96 352.72 114.73 
M 322.63 47.65 329.68 61.75 
M 375.51 153.42 376.4 155.18 
M 378.16 158.71 379.04 160.47 
M 326.82 49.14 329.47 54.43 
M 330.35 56.19 331.23 57.95 
M 350.62 96.73 351.5 98.5 
M 376.18 147.86 377.06 149.62 
M 377.95 151.38 385 165.49 
M 339.96 68.52 342.61 73.81 
M 347.9 84.39 348.78 86.15 
M 349.66 87.92 356.71 102.02 
M 377.87 144.33 378.75 146.09 
M 379.63 147.85 389.33 167.25 
M 340.25 62.19 347.3 76.29 
M 351.71 85.11 359.64 100.97 
M 380.79 143.28 391.37 164.44 
M 343.12 61.03 351.93 78.66 
M 353.69 82.18 358.98 92.76 
M 359.86 94.52 362.51 99.81 
M 363.39 101.58 364.27 103.34 
M 382.78 140.36 393.36 161.51 
M 344 55.89 355.45 78.81 
M 356.34 80.57 365.15 98.2 
M 370.44 108.78 372.2 112.3 
M 388.07 144.03 396 159.9 
M 347.35 55.69 353.52 68.03 
M 354.4 69.8 356.16 73.32 
M 357.04 75.09 357.92 76.85 
M 359.69 80.37 366.74 94.48 
M 372.91 106.82 379.96 120.92 
M 389.66 140.31 391.42 143.84 
M 392.3 145.6 399.35 159.7 
M 404.64 170.28 405.52 172.04 
M 406.4 173.81 409.23 179.45 
M 349.43 52.96 360 74.11 
M 362.65 79.4 365.29 84.69 
M 366.18 86.45 368.82 91.74 
M 374.11 102.32 383.8 121.71 
M 395.26 144.63 398.79 151.68 
M 406.72 167.55 411.97 178.05 
M 353.02 53.25 354.79 56.78 
M 355.67 58.54 363.6 74.41 
M 368.01 83.22 368.89 84.98 
M 377.7 102.61 386.52 120.24 
M 408.55 164.31 414.91 177.02 
M 357.81 55.93 358.25 56.81 
M 359.13 58.57 360.02 60.34 
M 360.9 62.1 361.78 63.86 
M 362.66 65.63 363.54 67.39 
M 379.41 99.12 389.1 118.51 
M 412.02 164.35 417.44 175.19 
M 383.19 99.78 389.36 112.12 
M 415.8 165.01 416.68 166.77 
M 417.56 168.53 419.98 173.36 
M 387.04 100.58 388.8 104.11 
M 389.68 105.87 390.56 107.63 
M 391.44 109.4 392.32 111.16 
M 418.77 164.05 421.41 169.33 
M 422.18 170.88 422.51 171.54 
M 399.38 111.47 401.14 115 
M 402.96 111.73 406.92 119.66 
M 415.74 137.29 418.38 142.58 
M 420.14 146.1 421.03 147.87 
M 407.89 114.69 411.85 122.62 
M 416.26 131.44 417.14 133.2 
M 418.02 134.96 420.67 140.25 
M 421.55 142.01 424.19 147.3 
M 412.8 117.61 414.12 120.26 
M 418.53 129.07 422.05 136.13 
M 422.94 137.89 425.58 143.18 
M 419.88 124.89 421.65 128.41 
M 422.53 130.17 429.12 143.37 
M 423.88 125.99 424.76 127.75 
M 426.53 131.27 428.49 135.19 
M 427.44 126.21 429.12 129.57 
"/></svg>