<svg xmlns="http://www.w3.org/2000/svg" width="520" height="320"><rect x="0" y="0" width="520" height="320" fill="floralwhite"/><rect x="10" y="10" width="500" height="300" stroke="black" stroke-width="1" fill="none"/><path stroke="black" stroke-width="1" fill="none" stroke-linecap="round" stroke-linejoin="round" d="
M 169.58 122.54 182.86 115.59 189.46 112.44 196.07 109.58 209.28 104.33 215.89 102.2 222.5 100.65 229.11 99.47 248.93 98.9 255.54 99.91 262.14 101.93 268.75 104.43 288.57 112.62 295.18 115.67 315 126.25 341.43 139.51 
M 341.43 186.3 315 202.38 301.79 209.33 295.18 212.26 281.97 217.69 275.36 219.69 262.14 223 255.54 223.83 248.93 224.39 242.32 224.15 229.11 224.34 222.5 223.23 215.89 221.4 209.28 219.28 202.68 216.93 196.07 214.9 189.46 212.48 182.86 209.4 176.28 205.82 
M 170.73 123.91 171.32 122.35 171.32 121.63 
M 173.76 128.54 174.46 126.57 174.46 125.85 174.14 124.69 173.66 123.66 173.28 123.26 
M 177.19 136.66 177.47 135.75 177.47 135.07 177.14 133.98 176.62 133.01 176.22 132.64 
M 173.25 124.01 173.7 123.61 174.28 122.57 174.65 121.39 174.65 120.66 174.45 120.01 
M 176.51 133.34 176.99 132.95 177.59 131.93 177.98 130.79 177.98 130.08 177.59 128.93 176.99 127.92 176.51 127.53 
M 179.48 141.93 180.33 140.85 180.74 139.79 180.74 139.13 180.33 138.07 179.69 137.14 179.19 136.77 
M 181.46 149.86 182.14 149.01 182.57 148.05 182.57 147.46 182.14 146.51 181.47 145.66 180.95 145.33 
M 181.99 170.7 183.1 169.87 183.6 169.1 183.6 168.63 183.1 167.86 182.21 167.13 
M 182.27 146.21 182.7 145.86 183.26 144.96 183.62 143.95 183.62 143.32 183.26 142.3 182.7 141.4 182.27 141.05 
M 183.61 153.92 184.06 153.6 184.62 152.79 184.99 151.88 184.99 151.31 184.62 150.39 184.06 149.58 183.61 149.27 
M 184.27 161.14 184.73 160.85 185.31 160.1 185.68 159.26 185.68 158.74 185.31 157.89 184.73 157.15 184.27 156.86 
M 176.59 123.11 177.05 122.7 177.63 121.65 178.01 120.45 178.01 119.71 177.56 118.39 
M 180.1 132.75 180.58 132.34 181.2 131.29 181.6 130.11 181.6 129.37 181.2 128.19 180.58 127.14 180.1 126.73 
M 183.06 141.83 183.57 141.45 184.23 140.49 184.66 139.4 184.66 138.72 184.23 137.63 183.57 136.67 183.06 136.29 
M 183.89 202.91 184.49 202.68 185.25 202.09 185.75 201.41 185.75 201 185.25 200.33 184.49 199.73 183.89 199.5 
M 187.71 153.76 188.16 153.44 188.73 152.63 189.1 151.7 189.1 151.13 188.73 150.21 188.16 149.4 187.71 149.08 
M 188.41 161.04 188.85 160.74 189.42 159.98 189.79 159.12 189.79 158.59 189.42 157.73 188.85 156.98 188.41 156.68 
M 188.61 167.98 189.07 167.7 189.67 166.97 190.05 166.16 190.05 165.65 189.67 164.84 189.07 164.11 188.61 163.83 
M 180.06 122.34 180.53 121.92 181.15 120.85 181.54 119.65 181.54 118.9 181.15 117.69 180.62 116.77 
M 187.04 141.61 187.56 141.23 188.23 140.24 188.66 139.11 188.66 138.42 188.23 137.3 187.56 136.31 187.04 135.92 
M 190.11 157.31 190.64 157.01 191.32 156.22 191.77 155.33 191.77 154.78 191.32 153.89 190.64 153.1 190.11 152.79 
M 190.57 164.46 191.12 164.16 191.81 163.42 192.26 162.58 192.26 162.05 191.81 161.21 191.12 160.47 190.57 160.17 
M 190.68 171.38 191.25 171.1 191.97 170.37 192.43 169.56 192.43 169.05 191.97 168.23 191.25 167.51 190.68 167.23 
M 189.7 197.78 190.31 197.54 191.1 196.91 191.61 196.2 191.61 195.76 191.1 195.05 190.31 194.42 189.7 194.18 
M 183.72 127.02 184.13 126.59 184.65 125.47 184.99 124.2 184.99 123.42 184.65 122.15 184.13 121.04 183.72 120.6 
M 190.44 145.93 190.88 145.57 191.46 144.64 191.82 143.59 191.82 142.94 191.46 141.89 190.88 140.96 190.44 140.6 
M 191.82 153.6 192.27 153.28 192.84 152.47 193.21 151.55 193.21 150.98 192.84 150.06 192.27 149.25 191.82 148.93 
M 192.8 167.95 193.25 167.66 193.82 166.92 194.2 166.08 194.2 165.57 193.82 164.73 193.25 163.99 192.8 163.7 
M 193.58 171.31 192.87 170.73 
M 191.62 200.89 192.14 200.66 192.79 200.07 193.22 199.4 193.22 198.98 192.79 198.31 192.14 197.72 191.62 197.49 
M 183.78 121.78 184.29 121.36 184.95 120.3 185.38 119.09 185.38 118.35 184.95 117.14 184.29 116.07 183.78 115.66 
M 193.17 149.67 193.7 149.33 194.38 148.46 194.82 147.47 194.82 146.86 194.38 145.87 193.7 145 193.17 144.66 
M 194.68 164.31 195.21 164.02 195.89 163.26 196.33 162.41 196.33 161.88 195.89 161.03 195.21 160.28 194.68 159.98 
M 196.14 170.39 196.62 169.52 196.62 169.01 196.16 168.17 195.46 167.44 194.92 167.15 
M 194.35 198.18 194.95 197.94 196 196.9 
M 183.86 116.52 184.31 116.13 185.1 114.52 
M 187.57 126.62 188.01 126.18 188.58 125.06 188.94 123.78 188.94 123 188.58 121.73 188.01 120.6 187.57 120.16 
M 191.62 136.85 192.06 136.42 192.62 135.33 192.98 134.1 192.98 133.33 192.62 132.1 192.06 131.01 191.62 130.58 
M 194.51 145.75 194.95 145.38 195.51 144.45 195.87 143.39 195.87 142.74 195.51 141.68 194.95 140.74 194.51 140.38 
M 195.89 153.39 196.33 153.08 196.9 152.27 197.26 151.35 197.26 150.78 196.9 149.86 196.33 149.05 195.89 148.73 
M 196.53 160.64 196.97 160.34 197.53 159.58 197.9 158.71 197.9 158.18 197.53 157.31 196.97 156.55 196.53 156.25 
M 196.89 167.8 197.33 167.51 197.9 166.76 198.27 165.91 198.27 165.38 197.9 164.53 197.33 163.79 196.89 163.49 
M 196.29 201.32 196.8 201.08 197.44 200.49 197.86 199.81 197.86 199.39 197.44 198.71 196.8 198.11 196.29 197.88 
M 187.89 121.57 188.48 121.16 189.23 120.12 189.71 118.93 189.71 118.2 189.23 117.01 188.48 115.96 187.89 115.56 
M 191.68 131.65 192.23 131.22 192.94 130.12 193.4 128.88 193.4 128.11 192.94 126.87 192.23 125.78 191.68 125.35 
M 195.09 141.17 195.63 140.78 196.31 139.77 196.76 138.63 196.76 137.92 196.31 136.78 195.63 135.78 195.09 135.38 
M 197.21 149.44 197.74 149.1 198.42 148.23 198.86 147.24 198.86 146.63 198.42 145.64 197.74 144.77 197.21 144.43 
M 198.74 164.12 199.27 163.82 199.95 163.06 200.38 162.2 200.38 161.67 199.95 160.81 199.27 160.05 198.74 159.76 
M 200.19 170.37 200.74 169.4 200.74 168.88 200.29 168.03 199.6 167.29 199.06 166.99 
M 188.33 116.64 188.88 116.26 189.58 115.29 190.03 114.19 190.03 113.51 189.57 112.4 
M 191.81 126.52 192.32 126.09 192.97 124.99 193.39 123.75 193.39 122.98 192.97 121.74 192.32 120.64 191.81 120.21 
M 198.52 145.48 198.97 145.12 199.54 144.19 199.91 143.13 199.91 142.48 199.54 141.43 198.97 140.49 198.52 140.13 
M 199.91 153.14 200.35 152.82 200.92 152.01 201.28 151.09 201.28 150.52 200.92 149.6 200.35 148.79 199.91 148.47 
M 200.96 167.63 201.4 167.33 201.97 166.57 202.34 165.72 202.34 165.18 201.97 164.33 201.4 163.57 200.96 163.27 
M 189.95 113 190.69 112.66 191.86 111.41 
M 192.7 122 193.38 121.61 194.27 120.6 194.83 119.46 194.83 118.76 194.27 117.62 193.38 116.61 192.7 116.22 
M 196.14 131.73 196.76 131.32 197.56 130.26 198.07 129.07 198.07 128.33 197.56 127.13 196.76 126.08 196.14 125.67 
M 199.29 141.03 199.86 140.65 200.58 139.67 201.05 138.55 201.05 137.86 200.58 136.75 199.86 135.77 199.29 135.39 
M 201.29 149.23 201.83 148.89 202.53 148.03 202.97 147.05 202.97 146.45 202.53 145.47 201.83 144.61 201.29 144.27 
M 204.2 170.32 204.84 169.25 204.84 168.72 204.4 167.87 203.71 167.11 203.17 166.82 
M 193.8 117.73 194.46 117.37 195.29 116.45 195.83 115.4 195.83 114.76 195.29 113.71 194.46 112.79 193.8 112.43 
M 196.84 127.1 197.43 126.7 198.18 125.67 198.66 124.5 198.66 123.78 198.18 122.61 197.43 121.58 196.84 121.18 
M 202.72 145.34 203.19 144.98 203.78 144.08 204.17 143.05 204.17 142.42 203.78 141.4 203.19 140.49 202.72 140.14 
M 204.02 152.95 204.47 152.64 205.05 151.84 205.42 150.93 205.42 150.36 205.05 149.45 204.47 148.65 204.02 148.34 
M 195.86 114.56 196.68 114.23 197.74 113.39 198.43 112.44 198.43 111.85 197.74 110.9 196.68 110.06 195.86 109.73 
M 201.12 132.25 201.79 131.86 202.66 130.88 203.21 129.76 203.21 129.07 202.66 127.96 201.79 126.97 201.12 126.59 
M 203.76 141.1 204.36 140.74 205.12 139.8 205.61 138.75 205.61 138.09 205.12 137.04 204.36 136.11 203.76 135.74 
M 206.87 163.71 207.4 163.42 208.08 162.66 208.52 161.79 208.52 161.26 208.08 160.4 207.4 159.64 206.87 159.34 
M 207.13 204.96 207.43 204.84 
M 198.04 111.56 198.76 111.26 199.69 110.48 200.29 109.61 200.29 109.06 199.69 108.18 
M 199.9 119.43 200.59 119.09 201.48 118.22 202.05 117.24 202.05 116.63 201.48 115.64 200.59 114.77 199.9 114.43 
M 208.73 160.01 209.18 159.71 209.75 158.95 210.12 158.1 210.12 157.57 209.75 156.71 209.18 155.96 208.73 155.66 
M 200.52 109.08 201.38 108.8 202.48 108.07 203.19 107.24 203.19 106.81 
M 202.08 116.43 202.91 116.12 203.97 115.31 204.66 114.4 204.66 113.84 203.97 112.93 202.91 112.13 202.08 111.81 
M 206.32 132.97 207 132.62 207.87 131.71 208.44 130.68 208.44 130.05 207.87 129.02 207 128.11 206.32 127.76 
M 208.38 141.29 208.99 140.95 209.76 140.08 210.26 139.08 210.26 138.47 209.76 137.48 208.99 136.61 208.38 136.27 
M 210.55 156.35 211.09 156.05 211.79 155.29 212.24 154.42 212.24 153.88 211.79 153.02 211.09 152.25 210.55 151.95 
M 210.94 163.5 211.47 163.21 212.15 162.45 212.59 161.6 212.59 161.07 212.15 160.21 211.47 159.46 210.94 159.16 
M 204.38 113.6 205.07 113.31 205.96 112.55 206.53 111.7 206.53 111.18 205.96 110.32 205.07 109.57 204.38 109.28 
M 209.92 137.46 210.45 137.12 211.12 136.25 211.55 135.27 211.55 134.66 211.12 133.67 210.45 132.81 209.92 132.47 
M 212.44 152.74 212.89 152.44 213.48 151.67 213.86 150.8 213.86 150.26 213.48 149.39 212.89 148.62 212.44 148.32 
M 212.83 159.81 213.28 159.52 213.85 158.77 214.21 157.93 214.21 157.41 213.85 156.56 213.28 155.82 212.83 155.52 
M 213.66 166.53 214.47 165.06 214.47 164.53 214.11 163.67 213.55 162.91 213.12 162.61 
M 213.79 208.67 214.28 208.41 214.92 207.75 215.33 207 215.33 206.53 214.92 205.78 214.28 205.11 213.79 204.85 
M 206.66 110.93 207.45 110.65 208.47 109.94 209.12 109.13 209.12 108.63 208.47 107.83 207.45 107.11 206.66 106.84 
M 208.04 118.06 208.8 117.76 209.78 116.99 210.41 116.11 210.41 115.57 209.78 114.7 208.8 113.93 208.04 113.63 
M 209.66 125.68 210.37 125.36 211.29 124.54 211.88 123.61 211.88 123.04 211.29 122.11 210.37 121.29 209.66 120.97 
M 211.4 133.61 212.05 133.28 212.88 132.44 213.42 131.49 213.42 130.9 212.88 129.94 212.05 129.1 211.4 128.77 
M 212.97 141.47 213.56 141.15 214.32 140.33 214.8 139.39 214.8 138.81 214.32 137.88 213.56 137.05 212.97 136.73 
M 214.69 156.18 215.23 155.89 215.92 155.14 216.36 154.28 216.36 153.76 215.92 152.91 215.23 152.16 214.69 151.86 
M 214.98 163.26 215.51 162.96 216.18 162.21 216.61 161.37 216.61 160.84 216.18 159.99 215.51 159.24 214.98 158.95 
M 216.12 205.56 216.7 205.29 217.51 204.49 
M 215.9 211.94 216.5 211.69 217.27 211.02 217.76 210.27 217.76 209.81 217.27 209.06 216.5 208.4 215.9 208.14 
M 217.38 215.82 217.03 215.33 216.24 214.69 215.63 214.44 
M 209.01 108.35 209.64 108.08 210.45 107.4 210.97 106.64 210.97 106.16 210.45 105.4 209.64 104.72 209.01 104.45 
M 210.21 115.12 210.82 114.83 211.6 114.1 212.1 113.28 212.1 112.77 211.6 111.94 210.82 111.21 210.21 110.93 
M 211.59 122.37 212.17 122.07 212.92 121.29 213.4 120.4 213.4 119.86 212.92 118.97 212.17 118.19 211.59 117.89 
M 213.13 130.01 213.67 129.69 214.37 128.88 214.81 127.95 214.81 127.38 214.37 126.46 213.67 125.65 213.13 125.33 
M 215.84 145.33 216.31 145.03 216.9 144.23 217.29 143.34 217.29 142.78 216.9 141.89 216.31 141.09 215.84 140.79 
M 216.89 159.56 217.32 159.27 217.88 158.54 218.25 157.71 218.25 157.19 217.88 156.36 217.32 155.63 216.89 155.34 
M 218.13 165.49 218.43 164.77 218.43 164.23 218.07 163.38 217.52 162.62 217.09 162.32 
M 218.25 208.92 218.73 208.66 219.35 207.97 219.74 207.2 219.74 206.73 219.35 205.95 218.73 205.27 218.25 205.01 
M 218.1 215.29 218.59 215.04 219.22 214.38 219.63 213.64 219.63 213.17 219.22 212.43 218.59 211.77 218.1 211.52 
M 211.16 105.72 211.88 105.47 212.8 104.83 213.39 104.1 213.39 103.64 212.98 103.14 
M 212.21 112.18 212.92 111.91 213.82 111.21 214.4 110.43 214.4 109.94 213.82 109.16 212.92 108.46 212.21 108.19 
M 214.77 126.43 215.42 126.12 216.25 125.34 216.79 124.46 216.79 123.91 216.25 123.02 215.42 122.24 214.77 121.93 
M 216.16 133.99 216.77 133.68 217.55 132.88 218.05 131.97 218.05 131.41 217.55 130.51 216.77 129.71 216.16 129.4 
M 217.4 141.54 217.97 141.23 218.69 140.44 219.16 139.54 219.16 138.99 218.69 138.09 217.97 137.3 217.4 136.99 
M 218.3 148.88 218.84 148.59 219.54 147.82 219.98 146.96 219.98 146.42 219.54 145.56 218.84 144.79 218.3 144.5 
M 218.76 155.94 219.29 155.65 219.96 154.91 220.39 154.08 220.39 153.56 219.96 152.73 219.29 151.99 218.76 151.7 
M 218.95 162.94 219.47 162.65 220.12 161.9 220.55 161.06 220.55 160.54 220.12 159.7 219.47 158.96 218.95 158.67 
M 220.48 205.68 221.05 205.41 222.05 204.25 
M 220.36 212.16 220.93 211.9 221.67 211.23 222.14 210.47 222.14 210 221.67 209.24 220.93 208.57 220.36 208.3 
M 221.86 216.94 221.97 216.32 221.49 215.59 220.75 214.95 220.16 214.7 
M 213.38 103.17 214.12 102.77 
M 214.29 109.32 214.85 109.06 215.56 108.41 216.02 107.66 216.02 107.2 215.56 106.45 214.85 105.79 214.29 105.53 
M 215.33 115.93 215.89 115.65 216.59 114.94 217.05 114.14 217.05 113.65 216.59 112.84 215.89 112.13 215.33 111.86 
M 216.53 122.98 217.07 122.69 217.75 121.93 218.2 121.08 218.2 120.55 217.75 119.7 217.07 118.94 216.53 118.65 
M 217.83 130.36 218.34 130.05 218.99 129.27 219.41 128.38 219.41 127.84 218.99 126.95 218.34 126.17 217.83 125.86 
M 219.07 137.84 219.54 137.54 220.15 136.75 220.55 135.86 220.55 135.31 220.15 134.42 219.54 133.63 219.07 133.32 
M 220.06 145.23 220.51 144.92 221.09 144.15 221.46 143.28 221.46 142.74 221.09 141.87 220.51 141.1 220.06 140.8 
M 220.69 152.37 221.13 152.08 221.69 151.34 222.05 150.51 222.05 149.99 221.69 149.15 221.13 148.41 220.69 148.12 
M 220.85 159.22 221.28 158.94 221.82 158.22 222.17 157.4 222.17 156.89 221.82 156.07 221.28 155.34 220.85 155.06 
M 222.6 209.01 223.06 208.74 223.67 208.06 224.05 207.28 224.05 206.8 223.67 206.02 223.06 205.34 222.6 205.07 
M 222.48 215.42 222.95 215.16 223.56 214.5 223.95 213.75 223.95 213.28 223.56 212.54 222.95 211.87 222.48 211.62 
M 216.21 106.5 216.83 106.25 217.64 105.61 218.16 104.88 218.16 104.43 217.64 103.71 216.83 103.07 216.21 102.82 
M 217.24 112.94 217.89 112.67 218.71 111.98 219.24 111.2 219.24 110.72 218.71 109.94 217.89 109.25 217.24 108.98 
M 218.37 119.75 219.01 119.47 219.84 118.74 220.37 117.92 220.37 117.41 219.84 116.58 219.01 115.86 218.37 115.57 
M 219.54 126.86 220.16 126.57 220.96 125.81 221.47 124.96 221.47 124.43 220.96 123.57 220.16 122.82 219.54 122.52 
M 220.68 134.15 221.26 133.85 222.01 133.08 222.49 132.21 222.49 131.67 222.01 130.8 221.26 130.03 220.68 129.73 
M 221.66 141.46 222.21 141.16 222.91 140.39 223.37 139.53 223.37 138.99 222.91 138.12 222.21 137.36 221.66 137.06 
M 222.38 148.64 222.91 148.35 223.58 147.6 224.01 146.76 224.01 146.24 223.58 145.39 222.91 144.64 222.38 144.35 
M 224.78 205.72 225.34 205.45 226.06 204.76 226.52 203.97 226.52 203.49 225.92 202.56 
M 224.69 212.24 225.25 211.97 225.97 211.3 226.44 210.53 226.44 210.06 225.97 209.3 225.25 208.62 224.69 208.36 
M 218.05 103.61 218.53 103.37 219.14 102.74 219.54 102.04 219.41 101.37 
M 219.1 109.91 219.61 109.65 220.26 108.97 220.67 108.21 220.67 107.74 220.26 106.97 219.61 106.3 219.1 106.04 
M 221.37 123.51 221.9 123.22 222.58 122.49 223.02 121.65 223.02 121.14 222.58 120.31 221.9 119.57 221.37 119.29 
M 222.43 130.61 222.93 130.31 223.57 129.56 223.99 128.71 223.99 128.19 223.57 127.34 222.93 126.59 222.43 126.3 
M 223.38 137.8 223.84 137.5 224.44 136.75 224.82 135.89 224.82 135.36 224.44 134.51 223.84 133.75 223.38 133.46 
M 224.13 144.97 224.57 144.67 225.13 143.93 225.5 143.08 225.5 142.55 225.13 141.7 224.57 140.96 224.13 140.66 
M 224.63 152 225.06 151.72 225.6 150.99 225.95 150.17 225.95 149.66 225.6 148.84 225.06 148.11 224.63 147.83 
M 220.72 106.83 221.29 106.57 222.02 105.9 222.5 105.15 222.5 104.68 222.02 103.92 221.29 103.25 220.72 102.99 
M 222 113.49 222.61 113.21 223.39 112.51 223.9 111.7 223.9 111.21 223.39 110.4 222.61 109.69 222 109.42 
M 223.22 120.34 223.85 120.06 224.67 119.33 225.19 118.51 225.19 118 224.67 117.18 223.85 116.46 223.22 116.17 
M 224.26 127.25 224.88 126.97 225.67 126.24 226.18 125.41 226.18 124.9 225.67 124.07 224.88 123.34 224.26 123.05 
M 225.12 134.23 225.69 133.94 226.43 133.21 226.91 132.38 226.91 131.86 226.43 131.03 225.69 130.29 225.12 130.01 
M 225.81 141.26 226.35 140.97 227.04 140.23 227.49 139.4 227.49 138.88 227.04 138.05 226.35 137.31 225.81 137.02 
M 226.55 155.12 227.05 154.84 227.69 154.13 228.11 153.32 228.11 152.81 227.69 152 227.05 151.29 226.55 151.01 
M 229.72 218.08 230.63 216.95 230.63 216.49 230.16 215.75 229.44 215.1 228.87 214.85 
M 222.15 103.54 222.59 103.29 223.15 102.63 223.51 101.89 223.51 101.43 223.03 100.55 
M 223.59 110.26 224.07 109.98 224.68 109.26 225.08 108.45 225.08 107.95 224.68 107.13 224.07 106.41 223.59 106.13 
M 225.06 117.21 225.58 116.92 226.25 116.19 226.68 115.36 226.68 114.85 226.25 114.02 225.58 113.28 225.06 113 
M 226.21 124.05 226.74 123.77 227.41 123.05 227.85 122.23 227.85 121.73 227.41 120.91 226.74 120.19 226.21 119.91 
M 227.03 130.84 227.52 130.56 228.16 129.84 228.58 129.03 228.58 128.53 228.16 127.72 227.52 127.01 227.03 126.73 
M 227.63 137.67 228.09 137.39 228.68 136.68 229.06 135.86 229.06 135.36 228.68 134.54 228.09 133.82 227.63 133.54 
M 228.1 144.59 228.53 144.31 229.09 143.59 229.44 142.76 229.44 142.26 229.09 141.43 228.53 140.71 228.1 140.43 
M 231.19 202.39 231.65 202.11 232.24 201.41 232.62 200.62 232.6 200.08 
M 231.12 215.55 231.59 215.28 232.19 214.61 232.57 213.86 232.57 213.39 232.19 212.63 231.59 211.96 231.12 211.7 
M 224.93 106.9 225.48 106.62 226.18 105.91 226.63 105.1 226.63 104.6 226.18 103.79 225.48 103.08 224.93 102.8 
M 228.01 120.89 228.64 120.6 229.43 119.87 229.95 119.04 229.95 118.53 229.43 117.7 228.64 116.97 228.01 116.69 
M 229.53 134.28 230.1 134 230.84 133.3 231.31 132.51 231.31 132.02 230.84 131.22 230.1 130.52 229.53 130.25 
M 229.91 141.01 230.45 140.73 231.14 140.02 231.58 139.22 231.58 138.72 231.14 137.92 230.45 137.21 229.91 136.94 
M 230.23 147.84 230.74 147.56 231.4 146.85 231.82 146.05 231.82 145.55 231.4 144.75 230.74 144.03 230.23 143.76 
M 230.33 154.6 230.84 154.33 231.48 153.62 231.89 152.82 231.89 152.33 231.48 151.53 230.84 150.82 230.33 150.55 
M 230.29 161.4 230.78 161.12 231.41 160.39 231.82 159.57 231.82 159.06 231.41 158.23 230.78 157.5 230.29 157.22 
M 233.29 205.71 233.85 205.44 234.56 204.74 235.02 203.95 235.02 203.46 234.56 202.67 233.85 201.97 233.29 201.7 
M 234.28 217.96 234.96 217.02 234.96 216.56 234.49 215.81 233.77 215.16 233.21 214.9 
M 226.04 103.28 226.47 103.01 227.02 102.31 227.38 101.51 227.38 101.02 226.76 99.89 
M 227.93 110.5 228.41 110.19 229.02 109.42 229.41 108.55 229.41 108.01 229.02 107.13 228.41 106.36 227.93 106.06 
M 230.99 124.55 231.51 124.27 232.17 123.56 232.59 122.75 232.59 122.25 232.17 121.44 231.51 120.73 230.99 120.45 
M 231.87 137.55 232.33 137.28 232.92 136.59 233.3 135.82 233.3 135.34 232.92 134.56 232.33 133.88 231.87 133.61 
M 232.29 151.04 232.71 150.77 233.26 150.06 233.61 149.27 233.61 148.78 233.26 147.98 232.71 147.28 232.29 147.01 
M 233.32 161.95 232.54 160.56 232.12 160.27 
M 227.37 99.97 227.94 99.67 
M 229.1 106.92 229.66 106.62 230.37 105.87 230.83 105.01 230.83 104.48 230.37 103.63 229.66 102.87 229.1 102.58 
M 231.12 114.29 231.71 113.99 232.47 113.21 232.96 112.32 232.96 111.78 232.47 110.89 231.71 110.11 231.12 109.81 
M 232.72 121.35 233.33 121.07 234.11 120.33 234.61 119.49 234.61 118.97 234.11 118.14 233.33 117.4 232.72 117.11 
M 233.58 127.94 234.18 127.67 234.95 126.98 235.45 126.2 235.45 125.71 234.95 124.93 234.18 124.24 233.58 123.97 
M 234.04 140.8 234.59 140.53 235.29 139.85 235.74 139.08 235.74 138.6 235.29 137.82 234.59 137.14 234.04 136.87 
M 234.17 147.47 234.7 147.2 235.38 146.51 235.81 145.72 235.81 145.23 235.38 144.44 234.7 143.75 234.17 143.48 
M 234.18 154.15 234.7 153.88 235.36 153.18 235.79 152.39 235.79 151.9 235.36 151.12 234.7 150.42 234.18 150.15 
M 237.6 199 238.15 198.72 238.84 198.03 
M 238.74 217.91 239.29 217.08 239.29 216.62 238.83 215.87 238.1 215.21 237.54 214.96 
M 230.09 103.16 230.56 102.87 231.16 102.14 231.54 101.31 231.54 100.79 230.71 99.41 
M 232.32 110.73 232.81 110.41 233.44 109.6 233.84 108.69 233.84 108.12 233.44 107.2 232.81 106.39 232.32 106.07 
M 234.43 118.19 234.94 117.88 235.58 117.11 236 116.23 236 115.68 235.58 114.8 234.94 114.02 234.43 113.72 
M 236.15 137.49 236.62 137.23 237.22 136.57 237.61 135.82 237.61 135.36 237.22 134.61 236.62 133.95 236.15 133.69 
M 236.12 143.95 236.57 143.68 237.15 143 237.52 142.22 237.52 141.74 237.15 140.97 236.57 140.28 236.12 140.02 
M 236.24 150.69 236.68 150.42 237.25 149.73 237.62 148.95 237.62 148.46 237.25 147.68 236.68 146.98 236.24 146.71 
M 236.98 163 237.3 162.25 237.3 161.72 236.94 160.88 236.39 160.13 235.95 159.83 
M 231.62 99.98 232.64 99.33 
M 233.48 107.09 234.08 106.79 234.84 106.02 235.33 105.14 235.33 104.6 234.84 103.72 234.08 102.95 233.48 102.64 
M 235.67 114.62 236.27 114.31 237.04 113.51 237.53 112.61 237.53 112.05 237.04 111.15 236.27 110.36 235.67 110.05 
M 238.13 128.19 238.72 127.92 239.48 127.24 239.97 126.47 239.97 126 239.48 125.23 238.72 124.55 238.13 124.28 
M 238.29 140.73 238.86 140.47 239.59 139.81 240.06 139.05 240.06 138.58 239.59 137.82 238.86 137.16 238.29 136.9 
M 238.3 147.3 238.86 147.03 239.57 146.34 240.04 145.57 240.04 145.09 239.57 144.31 238.86 143.63 238.3 143.36 
M 238.06 160.6 238.59 160.32 239.28 159.6 239.72 158.79 239.72 158.28 239.28 157.47 238.59 156.75 238.06 156.47 
M 239.2 164.1 238.32 163.38 
M 234.62 103.44 235.14 103.15 235.8 102.41 236.22 101.57 236.22 101.06 235.8 100.22 235.14 99.48 234.73 99.25 
M 236.89 111.05 237.4 110.73 238.06 109.91 238.48 108.99 238.48 108.42 238.06 107.5 237.4 106.69 236.89 106.37 
M 239.01 118.5 239.52 118.19 240.16 117.42 240.58 116.54 240.58 116 240.16 115.12 239.52 114.34 239.01 114.04 
M 240.39 143.93 240.88 143.67 241.5 142.99 241.9 142.23 241.9 141.75 241.5 140.99 240.88 140.31 240.39 140.05 
M 240.45 150.61 240.93 150.34 241.54 149.66 241.94 148.88 241.94 148.4 241.54 147.63 240.93 146.94 240.45 146.67 
M 240.19 157.09 240.66 156.82 241.25 156.13 241.64 155.35 241.64 154.87 241.25 154.09 240.66 153.41 240.19 153.14 
M 240.04 163.94 240.49 163.65 241.07 162.91 241.45 162.06 241.45 161.54 241.07 160.7 240.49 159.95 240.04 159.66 
M 236.36 100.44 237.01 100.18 238.08 99.18 
M 238.18 107.52 238.82 107.22 239.63 106.45 240.16 105.58 240.16 105.04 239.63 104.17 238.82 103.4 238.18 103.1 
M 240.31 114.98 240.93 114.67 241.73 113.89 242.24 112.99 242.24 112.44 241.73 111.55 240.93 110.76 240.31 110.46 
M 241.91 122 242.52 121.72 243.29 120.98 243.79 120.15 243.79 119.64 243.29 118.81 242.52 118.08 241.91 117.79 
M 242.66 128.44 243.26 128.18 244.03 127.5 244.52 126.74 244.52 126.27 244.03 125.5 243.26 124.83 242.66 124.56 
M 242.77 140.94 243.38 140.68 244.15 140.01 244.65 139.26 244.65 138.79 244.15 138.04 243.38 137.38 242.77 137.12 
M 242.29 160.54 242.86 160.26 243.59 159.55 244.06 158.75 244.06 158.26 243.59 157.45 242.86 156.75 242.29 156.47 
M 239.54 104.06 240.09 103.77 240.8 103.05 241.26 102.23 241.26 101.72 240.8 100.9 240.09 100.18 239.54 99.89 
M 241.68 111.52 242.22 111.21 242.9 110.42 243.35 109.51 243.35 108.96 242.9 108.05 242.22 107.26 241.68 106.95 
M 243.67 118.85 244.18 118.55 244.85 117.79 245.27 116.93 245.27 116.39 244.85 115.53 244.18 114.77 243.67 114.47 
M 245.12 131.71 245.62 131.45 246.27 130.79 246.69 130.05 246.69 129.59 246.27 128.85 245.62 128.19 245.12 127.93 
M 245.12 137.93 245.64 137.67 246.3 137.01 246.73 136.27 246.73 135.81 246.3 135.07 245.64 134.41 245.12 134.16 
M 248.25 202.39 248.72 202.12 249.31 201.41 249.7 200.61 249.7 200.11 249.31 199.31 248.72 198.6 248.25 198.33 
M 241.45 101.24 242.15 100.99 243.03 100.35 243.6 99.61 243.54 99.08 
M 243.15 108.17 243.82 107.88 244.68 107.13 245.23 106.28 245.23 105.76 244.68 104.91 243.82 104.16 243.15 103.86 
M 245.12 115.47 245.76 115.18 246.59 114.41 247.12 113.54 247.12 113 246.59 112.13 245.76 111.36 245.12 111.06 
M 246.59 122.39 247.21 122.1 248.01 121.38 248.52 120.57 248.52 120.06 248.01 119.24 247.21 118.52 246.59 118.24 
M 247.29 128.81 247.91 128.55 248.69 127.87 249.2 127.11 249.2 126.63 248.69 125.87 247.91 125.19 247.29 124.93 
M 247.51 135.1 248.14 134.84 248.94 134.18 249.45 133.43 249.45 132.96 248.94 132.21 248.14 131.55 247.51 131.29 
M 247.55 141.47 248.19 141.21 249.01 140.54 249.54 139.78 249.54 139.31 249.01 138.55 248.19 137.88 247.55 137.62 
M 247.54 147.99 248.19 147.72 249.02 147.05 249.56 146.29 249.56 145.81 249.02 145.05 248.19 144.38 247.54 144.11 
M 248.18 175.93 249.11 174.91 249.57 173.91 249.57 173.29 249.11 172.29 248.4 171.41 247.84 171.07 
M 250.43 199.04 250.98 198.76 251.7 198.05 252.16 197.23 252.16 196.73 251.7 195.92 250.98 195.2 250.43 194.92 
M 250.42 205.78 250.98 205.51 251.69 204.8 252.15 204.01 252.15 203.51 251.69 202.71 250.98 202.01 250.42 201.74 
M 244.71 104.92 245.3 104.65 246.04 103.94 246.53 103.14 246.53 102.65 246.04 101.85 245.3 101.14 244.71 100.87 
M 246.67 112.19 247.23 111.89 247.94 111.11 248.4 110.24 248.4 109.7 247.94 108.82 247.23 108.05 246.67 107.75 
M 249.45 125.88 249.97 125.61 250.63 124.93 251.06 124.15 251.06 123.67 250.63 122.89 249.97 122.2 249.45 121.94 
M 249.83 132.18 250.35 131.92 251.02 131.26 251.45 130.5 251.45 130.04 251.02 129.28 250.35 128.62 249.83 128.36 
M 249.98 138.57 250.52 138.31 251.21 137.64 251.66 136.88 251.66 136.41 251.21 135.65 250.52 134.98 249.98 134.71 
M 250.04 145.08 250.59 144.81 251.3 144.13 251.76 143.36 251.76 142.88 251.3 142.11 250.59 141.43 250.04 141.16 
M 250.03 151.61 250.58 151.35 251.29 150.69 251.75 149.94 251.75 149.47 251.29 148.72 250.58 148.06 250.03 147.8 
M 249.06 171.65 249.53 171.32 250.14 170.47 250.52 169.51 250.52 168.91 250.14 167.95 249.53 167.1 249.06 166.77 
M 250.87 180.62 251.35 180.27 251.95 179.35 252.34 178.31 252.34 177.67 251.95 176.63 251.35 175.72 250.87 175.36 
M 252.6 195.69 253.06 195.41 253.66 194.68 254.04 193.86 254.04 193.35 253.66 192.53 253.06 191.8 252.6 191.51 
M 252.52 202.39 252.98 202.11 253.57 201.41 253.95 200.6 253.95 200.11 253.57 199.31 252.98 198.6 252.52 198.32 
M 246.78 102.28 247.51 102.03 248.43 101.4 249.02 100.69 249.02 100.24 248.43 99.53 247.57 98.94 
M 250.09 116.12 250.75 115.83 251.6 115.08 252.15 114.24 252.15 113.72 251.6 112.87 250.75 112.13 250.09 111.84 
M 251.39 122.89 252.03 122.62 252.85 121.91 253.37 121.11 253.37 120.61 252.85 119.81 252.03 119.1 251.39 118.83 
M 252.35 135.71 252.99 135.45 253.81 134.77 254.34 134.01 254.34 133.54 253.81 132.77 252.99 132.1 252.35 131.84 
M 252.52 142.22 253.18 141.96 254.02 141.28 254.57 140.5 254.57 140.03 254.02 139.25 253.18 138.57 252.52 138.31 
M 252.58 148.76 253.24 148.5 254.09 147.83 254.64 147.06 254.64 146.59 254.09 145.83 253.24 145.16 252.58 144.9 
M 252.18 176.21 252.76 175.86 253.5 174.98 253.98 173.99 253.98 173.37 253.5 172.37 252.76 171.49 252.18 171.15 
M 254.68 199.02 255.23 198.74 255.94 198.03 256.4 197.22 256.4 196.71 255.94 195.9 255.23 195.19 254.68 194.91 
M 254.68 205.78 255.23 205.5 255.94 204.8 256.4 204 256.4 203.5 255.94 202.7 255.23 202 254.68 201.72 
M 248.92 99.71 250.12 99.08 
M 250.08 105.97 250.68 105.71 251.45 105.02 251.95 104.25 251.95 103.77 251.45 103 250.68 102.31 250.08 102.05 
M 251.82 113 252.39 112.71 253.13 111.97 253.6 111.12 253.6 110.6 253.13 109.76 252.39 109.01 251.82 108.72 
M 254.25 126.4 254.78 126.13 255.46 125.46 255.9 124.69 255.9 124.21 255.46 123.44 254.78 122.76 254.25 122.49 
M 254.95 139.32 255.49 139.05 256.18 138.36 256.63 137.59 256.63 137.11 256.18 136.33 255.49 135.65 254.95 135.38 
M 255.13 145.93 255.69 145.67 256.4 144.98 256.85 144.2 256.85 143.71 256.4 142.94 255.69 142.25 255.13 141.98 
M 255.12 152.42 255.67 152.16 256.38 151.51 256.84 150.77 256.84 150.31 256.38 149.56 255.67 148.91 255.12 148.65 
M 253.48 171.78 253.98 171.45 254.61 170.61 255.02 169.66 255.02 169.07 254.61 168.12 253.98 167.27 253.48 166.95 
M 255.3 180.77 255.79 180.42 256.41 179.5 256.82 178.47 256.82 177.83 256.41 176.8 255.79 175.89 255.3 175.53 
M 256.84 195.64 257.3 195.36 257.89 194.64 258.27 193.83 258.27 193.32 257.89 192.51 257.3 191.79 256.84 191.51 
M 256.75 202.36 257.21 202.09 257.8 201.38 258.18 200.57 258.18 200.08 257.8 199.27 257.21 198.56 256.75 198.29 
M 256.85 209.17 257.31 208.9 257.9 208.2 258.29 207.4 258.29 206.91 257.9 206.11 257.31 205.41 256.85 205.14 
M 252.26 103.46 253 103.22 253.94 102.6 254.55 101.91 254.55 101.48 253.94 100.78 253 100.17 252.26 99.93 
M 253.63 110.01 254.34 109.73 255.25 109.03 255.84 108.24 255.84 107.74 255.25 106.95 254.34 106.25 253.63 105.97 
M 255.18 116.88 255.85 116.6 256.72 115.88 257.28 115.06 257.28 114.56 256.72 113.74 255.85 113.02 255.18 112.74 
M 256.3 123.5 256.95 123.23 257.78 122.54 258.32 121.75 258.32 121.27 257.78 120.48 256.95 119.79 256.3 119.52 
M 256.89 129.89 257.52 129.62 258.34 128.95 258.87 128.18 258.87 127.71 258.34 126.94 257.52 126.27 256.89 126.01 
M 257.52 142.98 258.17 142.71 259 142.02 259.53 141.24 259.53 140.76 259 139.98 258.17 139.29 257.52 139.02 
M 257.62 149.54 258.27 149.28 259.11 148.61 259.65 147.85 259.65 147.37 259.11 146.61 258.27 145.94 257.62 145.68 
M 256.24 161.52 256.89 161.27 257.71 160.63 258.24 159.9 258.24 159.45 257.71 158.72 256.89 158.07 256.24 157.82 
M 258.24 184.89 258.82 184.56 259.57 183.71 260.05 182.74 260.05 182.15 259.57 181.18 258.82 180.33 258.24 180 
M 258.9 198.97 259.45 198.69 260.16 197.98 260.61 197.17 260.61 196.67 260.16 195.86 259.45 195.15 258.9 194.87 
M 260.74 217.1 260.74 216.75 260.28 215.99 259.56 215.32 259.01 215.06 
M 254.51 101.02 255.14 100.81 256.08 100.08 
M 255.55 107.13 256.16 106.87 256.94 106.21 257.44 105.46 257.44 105 256.94 104.25 256.16 103.58 255.55 103.33 
M 257.07 113.92 257.65 113.64 258.4 112.92 258.88 112.11 258.88 111.61 258.4 110.8 257.65 110.08 257.07 109.8 
M 258.42 120.65 258.97 120.38 259.68 119.68 260.14 118.89 260.14 118.4 259.68 117.6 258.97 116.91 258.42 116.63 
M 259.13 127 259.67 126.73 260.35 126.06 260.8 125.3 260.8 124.83 260.35 124.07 259.67 123.4 259.13 123.14 
M 258.11 164.73 258.65 164.47 259.34 163.8 259.79 163.05 259.79 162.58 259.34 161.83 258.65 161.17 258.11 160.91 
M 261.08 188.9 261.55 188.59 262.15 187.8 262.55 186.91 262.55 186.35 262.15 185.46 261.55 184.67 261.08 184.36 
M 257.79 104.69 258.53 104.46 259.48 103.86 260.09 103.18 260.09 102.76 259.48 102.09 258.53 101.49 257.79 101.25 
M 258.99 111.05 259.7 110.78 260.62 110.11 261.21 109.34 261.21 108.86 260.62 108.1 259.7 107.42 258.99 107.15 
M 260.32 117.7 261 117.43 261.87 116.73 262.43 115.94 262.43 115.46 261.87 114.67 261 113.97 260.32 113.7 
M 261.26 124.16 261.91 123.89 262.75 123.22 263.29 122.45 263.29 121.98 262.75 121.21 261.91 120.54 261.26 120.27 
M 262.1 136.97 262.73 136.7 263.54 136.02 264.06 135.25 264.06 134.77 263.54 134 262.73 133.31 262.1 133.05 
M 262.39 143.6 263.01 143.33 263.81 142.64 264.33 141.85 264.33 141.37 263.81 140.59 263.01 139.9 262.39 139.63 
M 262.13 156.36 262.76 156.11 263.57 155.47 264.1 154.75 264.1 154.3 263.57 153.57 262.76 152.94 262.13 152.69 
M 261.19 162.2 261.84 161.95 262.67 161.31 263.21 160.58 263.21 160.14 262.67 159.41 261.84 158.77 261.19 158.52 
M 260.64 168.8 261.29 168.51 262.12 167.77 262.66 166.93 262.66 166.42 262.12 165.58 261.29 164.84 260.64 164.55 
M 262.73 185.04 263.31 184.72 264.06 183.89 264.55 182.96 264.55 182.38 264.06 181.44 263.31 180.62 262.73 180.3 
M 263.19 192.2 263.74 191.91 264.45 191.16 264.91 190.32 264.91 189.8 264.45 188.96 263.74 188.22 263.19 187.93 
M 264.79 216.4 263.83 215.32 263.27 215.06 
M 260.1 102.34 261.36 101.69 
M 261.02 108.29 261.62 108.04 262.4 107.4 262.9 106.67 262.9 106.22 262.4 105.5 261.62 104.85 261.02 104.6 
M 262.33 114.85 262.91 114.58 263.65 113.89 264.13 113.11 264.13 112.63 263.65 111.85 262.91 111.16 262.33 110.89 
M 263.47 121.38 264.02 121.11 264.72 120.44 265.17 119.67 265.17 119.19 264.72 118.43 264.02 117.75 263.47 117.49 
M 264.03 127.61 264.57 127.35 265.25 126.69 265.69 125.95 265.69 125.48 265.25 124.74 264.57 124.08 264.03 123.82 
M 264.67 140.53 265.18 140.26 265.84 139.58 266.26 138.8 266.26 138.31 265.84 137.53 265.18 136.85 264.67 136.58 
M 264.22 159.64 264.75 159.4 265.43 158.78 265.86 158.07 265.86 157.63 265.43 156.93 264.75 156.3 264.22 156.06 
M 263.14 165.51 263.69 165.25 264.4 164.58 264.86 163.83 264.86 163.36 264.4 162.61 263.69 161.94 263.14 161.68 
M 263.13 172.81 263.68 172.49 264.38 171.69 264.83 170.78 264.83 170.21 264.38 169.3 263.68 168.5 263.13 168.19 
M 265.41 188.89 265.88 188.59 266.48 187.83 266.86 186.96 266.86 186.43 266.48 185.57 265.88 184.81 265.41 184.51 
M 265.22 195.44 265.67 195.17 266.25 194.46 266.63 193.66 266.63 193.17 266.25 192.37 265.67 191.67 265.22 191.39 
M 265.16 202.25 265.62 201.97 266.2 201.26 266.58 200.45 266.58 199.94 266.2 199.13 265.62 198.42 265.16 198.14 
M 265.35 209.16 265.81 208.88 266.4 208.17 266.78 207.37 266.78 206.87 266.4 206.07 265.81 205.36 265.35 205.08 
M 265.41 215.74 265.88 215.47 266.47 214.79 266.85 214.02 266.85 213.54 266.47 212.77 265.88 212.08 265.41 211.82 
M 263.31 105.92 264.05 105.69 264.99 105.11 265.6 104.45 265.6 104.04 264.99 103.38 264.05 102.8 263.31 102.57 
M 264.33 112.07 265.04 111.81 265.94 111.16 266.53 110.42 266.53 109.96 265.94 109.22 265.04 108.57 264.33 108.32 
M 265.44 118.49 266.11 118.22 266.96 117.55 267.51 116.79 267.51 116.32 266.96 115.57 266.11 114.9 265.44 114.63 
M 266.19 124.78 266.83 124.52 267.65 123.86 268.18 123.11 268.18 122.65 267.65 121.91 266.83 121.25 266.19 120.99 
M 266.57 131 267.19 130.75 267.99 130.09 268.5 129.34 268.5 128.88 267.99 128.14 267.19 127.48 266.57 127.22 
M 266.83 137.41 267.44 137.14 268.21 136.47 268.71 135.71 268.71 135.24 268.21 134.47 267.44 133.8 266.83 133.54 
M 267.04 143.98 267.64 143.71 268.4 143.02 268.89 142.25 268.89 141.77 268.4 140.99 267.64 140.3 267.04 140.04 
M 267.13 150.55 267.72 150.29 268.48 149.61 268.96 148.84 268.96 148.37 268.48 147.6 267.72 146.92 267.13 146.65 
M 266.86 156.86 267.46 156.61 268.23 155.96 268.73 155.22 268.73 154.76 268.23 154.02 267.46 153.37 266.86 153.12 
M 266.11 162.9 266.75 162.64 267.56 161.99 268.08 161.25 268.08 160.79 267.56 160.05 266.75 159.4 266.11 159.14 
M 265.64 169.53 266.29 169.24 267.13 168.51 267.67 167.68 267.67 167.16 267.13 166.33 266.29 165.6 265.64 165.32 
M 267.21 185.16 267.79 184.85 268.54 184.06 269.02 183.16 269.02 182.61 268.54 181.71 267.79 180.92 267.21 180.61 
M 267.28 198.81 267.83 198.53 268.54 197.82 268.99 197.02 268.99 196.52 268.54 195.71 267.83 195 267.28 194.72 
M 267.37 205.69 267.92 205.41 268.63 204.7 269.09 203.89 269.09 203.39 268.63 202.58 267.92 201.87 267.37 201.59 
M 265.69 103.64 266.21 103.47 
M 266.46 109.41 267.06 109.17 267.83 108.55 268.32 107.85 268.32 107.42 267.83 106.72 267.06 106.1 266.46 105.86 
M 267.53 115.71 268.1 115.45 268.82 114.79 269.29 114.04 269.29 113.58 268.82 112.83 268.1 112.17 267.53 111.92 
M 268.42 122 268.95 121.75 269.63 121.09 270.07 120.35 270.07 119.9 269.63 119.15 268.95 118.5 268.42 118.25 
M 268.84 128.11 269.36 127.86 270.02 127.22 270.44 126.49 270.44 126.04 270.02 125.31 269.36 124.66 268.84 124.41 
M 269.05 134.34 269.55 134.09 270.2 133.43 270.61 132.68 270.61 132.22 270.2 131.48 269.55 130.82 269.05 130.56 
M 269.24 140.81 269.73 140.54 270.35 139.87 270.75 139.1 270.75 138.63 270.35 137.86 269.73 137.18 269.24 136.92 
M 269.37 147.39 269.85 147.12 270.46 146.44 270.85 145.66 270.85 145.18 270.46 144.4 269.85 143.71 269.37 143.44 
M 269.38 153.96 269.86 153.69 270.47 153.02 270.87 152.26 270.87 151.79 270.47 151.02 269.86 150.35 269.38 150.09 
M 268.15 166.29 268.68 166.03 269.37 165.35 269.82 164.58 269.82 164.1 269.37 163.34 268.68 162.66 268.15 162.39 
M 269.37 202.21 269.83 201.93 270.42 201.21 270.8 200.39 270.8 199.89 270.42 199.07 269.83 198.35 269.37 198.07 
M 269.6 209.15 270.06 208.87 270.66 208.16 271.04 207.35 271.04 206.86 270.66 206.05 270.06 205.34 269.6 205.06 
M 268.79 107.1 269.52 106.88 270.44 106.31 271.03 105.67 271.03 105.4 
M 269.59 112.99 270.28 112.74 271.16 112.12 271.72 111.41 271.72 110.98 271.16 110.27 270.28 109.65 269.59 109.41 
M 270.43 119.14 271.08 118.89 271.9 118.25 272.44 117.52 272.44 117.07 271.9 116.34 271.08 115.7 270.43 115.45 
M 270.98 125.25 271.6 125 272.39 124.37 272.9 123.64 272.9 123.19 272.39 122.47 271.6 121.83 270.98 121.58 
M 271.24 131.37 271.84 131.12 272.61 130.47 273.1 129.74 273.1 129.29 272.61 128.56 271.84 127.92 271.24 127.66 
M 271.37 137.64 271.95 137.39 272.7 136.73 273.18 135.98 273.18 135.52 272.7 134.77 271.95 134.11 271.37 133.85 
M 271.47 144.11 272.03 143.85 272.76 143.17 273.23 142.4 273.23 141.93 272.76 141.16 272.03 140.48 271.47 140.22 
M 271.34 157.13 271.91 156.87 272.64 156.2 273.12 155.44 273.12 154.97 272.64 154.21 271.91 153.55 271.34 153.29 
M 270.56 170.18 271.19 169.89 272 169.16 272.53 168.33 272.53 167.82 272 166.99 271.19 166.26 270.56 165.98 
M 271.5 198.76 272.06 198.48 272.76 197.77 273.22 196.97 273.22 196.47 272.76 195.66 272.06 194.95 271.5 194.67 
M 271.62 205.68 272.17 205.4 272.88 204.68 273.34 203.87 273.34 203.37 272.88 202.55 272.17 201.84 271.62 201.56 
M 271.81 110.43 272.39 110.2 273.13 109.61 273.61 108.94 273.61 108.53 273.13 107.86 272.39 107.27 271.81 107.04 
M 272.58 116.4 273.12 116.16 273.82 115.53 274.26 114.82 274.26 114.38 273.82 113.67 273.12 113.05 272.58 112.8 
M 273.19 122.45 273.71 122.21 274.36 121.57 274.79 120.86 274.79 120.42 274.36 119.71 273.71 119.07 273.19 118.83 
M 273.48 128.45 273.98 128.2 274.62 127.57 275.03 126.86 275.03 126.42 274.62 125.7 273.98 125.07 273.48 124.83 
M 273.61 140.87 274.08 140.61 274.68 139.95 275.07 139.19 275.07 138.73 274.68 137.98 274.08 137.32 273.61 137.06 
M 273.63 202.2 274.09 201.92 274.69 201.2 275.07 200.38 275.07 199.88 274.69 199.06 274.09 198.34 273.63 198.06 
M 273.86 209.15 274.32 208.87 274.92 208.15 275.3 207.35 275.3 206.85 274.92 206.04 274.32 205.33 273.86 205.05 
M 274.12 108.11 274.81 107.9 275.67 107.37 
M 274.68 113.74 275.34 113.5 276.18 112.91 276.72 112.24 276.72 111.82 276.18 111.15 275.34 110.56 274.68 110.33 
M 275.25 119.63 275.87 119.39 276.67 118.77 277.18 118.07 277.18 117.64 276.67 116.94 275.87 116.33 275.25 116.09 
M 275.62 125.58 276.21 125.33 276.98 124.71 277.47 124.01 277.47 123.57 276.98 122.86 276.21 122.24 275.62 122 
M 275.76 131.59 276.34 131.34 277.09 130.71 277.57 129.99 277.57 129.55 277.09 128.84 276.34 128.2 275.76 127.96 
M 275.76 137.73 276.33 137.48 277.06 136.83 277.53 136.1 277.53 135.65 277.06 134.92 276.33 134.27 275.76 134.02 
M 275.89 205.68 276.45 205.4 277.16 204.68 277.62 203.87 277.62 203.37 277.16 202.56 276.45 201.84 275.89 201.56 
M 276.93 111.21 277.47 110.99 278.17 110.43 278.63 109.8 278.63 109.4 278.17 108.77 277.47 108.2 276.93 107.98 
M 277.81 122.75 278.3 122.51 278.94 121.9 279.35 121.21 279.35 120.78 278.94 120.08 278.3 119.47 277.81 119.24 
M 277.98 128.66 278.47 128.42 279.09 127.8 279.49 127.1 279.49 126.66 279.09 125.96 278.47 125.34 277.98 125.1 
M 277.99 134.68 278.47 134.43 279.08 133.8 279.47 133.08 279.47 132.64 279.08 131.93 278.47 131.29 277.99 131.05 
M 277.8 153.89 278.25 153.62 278.83 152.93 279.2 152.15 279.2 151.66 278.83 150.88 278.25 150.19 277.8 149.92 
M 277.56 167.29 278.05 167.01 278.69 166.29 279.1 165.48 279.1 164.98 278.69 164.17 278.05 163.45 277.56 163.17 
M 278.11 181.81 278.58 181.51 279.19 180.76 279.58 179.91 279.58 179.38 279.19 178.53 278.58 177.78 278.11 177.48 
M 278.17 188.7 278.63 188.43 279.22 187.71 279.61 186.91 279.61 186.41 279.22 185.6 278.63 184.89 278.17 184.61 
M 278.13 209.14 278.59 208.87 279.19 208.15 279.57 207.35 279.57 206.85 279.19 206.05 278.59 205.34 278.13 205.06 
M 279.18 108.87 279.24 108.85 
M 279.54 114.27 280.17 114.05 280.97 113.48 281.48 112.83 281.48 112.43 280.97 111.79 280.17 111.22 279.54 111 
M 279.9 119.95 280.49 119.72 281.26 119.12 281.75 118.45 281.75 118.03 281.26 117.36 280.49 116.76 279.9 116.53 
M 280.12 125.78 280.7 125.54 281.44 124.93 281.92 124.24 281.92 123.81 281.44 123.12 280.7 122.51 280.12 122.27 
M 279.92 143.97 280.47 143.72 281.18 143.06 281.63 142.31 281.63 141.85 281.18 141.11 280.47 140.45 279.92 140.2 
M 279.85 150.48 280.39 150.21 281.08 149.53 281.53 148.76 281.53 148.28 281.08 147.5 280.39 146.82 279.85 146.55 
M 279.82 163.99 280.39 163.71 281.13 163 281.6 162.19 281.6 161.69 281.13 160.88 280.39 160.17 279.82 159.89 
M 279.86 170.97 280.44 170.68 281.2 169.94 281.68 169.11 281.68 168.6 281.2 167.76 280.44 167.03 279.86 166.74 
M 280.29 185.26 280.85 184.97 281.56 184.24 282.03 183.42 282.03 182.91 281.56 182.08 280.85 181.35 280.29 181.07 
M 280.17 192.02 280.73 191.74 281.44 191.03 281.9 190.23 281.9 189.73 281.44 188.93 280.73 188.22 280.17 187.94 
M 281.76 111.74 282.28 111.52 283.27 110.5 
M 282.29 122.93 282.77 122.69 283.39 122.09 283.79 121.42 283.79 121 283.39 120.32 282.77 119.72 282.29 119.49 
M 282.35 134.75 282.83 134.51 283.43 133.88 283.82 133.18 283.82 132.74 283.43 132.04 282.83 131.41 282.35 131.17 
M 281.89 147.05 282.35 146.79 282.93 146.12 283.3 145.36 283.3 144.89 282.93 144.14 282.35 143.47 281.89 143.21 
M 281.92 153.77 282.38 153.49 282.96 152.79 283.33 152 283.33 151.51 282.96 150.71 282.38 150.01 281.92 149.74 
M 281.98 160.6 282.45 160.32 283.04 159.61 283.43 158.8 283.43 158.3 283.04 157.49 282.45 156.77 281.98 156.49 
M 282.04 167.54 282.52 167.26 283.14 166.53 283.54 165.71 283.54 165.2 283.14 164.37 282.52 163.64 282.04 163.36 
M 282.42 188.68 282.89 188.41 283.48 187.69 283.86 186.89 283.86 186.39 283.48 185.59 282.89 184.88 282.42 184.6 
M 282.23 202.27 282.7 201.99 283.3 201.27 283.69 200.45 283.69 199.95 283.3 199.13 282.7 198.41 282.23 198.13 
M 284.18 114.6 284.77 114.38 285.54 113.83 286.03 113.2 286.03 112.81 285.54 112.18 284.77 111.63 284.18 111.41 
M 284.39 120.15 284.97 119.92 285.72 119.34 286.19 118.68 286.19 118.27 285.72 117.61 284.97 117.02 284.39 116.8 
M 284.52 125.89 285.09 125.66 285.82 125.06 286.29 124.37 286.29 123.95 285.82 123.27 285.09 122.66 284.52 122.43 
M 284.54 131.8 285.11 131.56 285.83 130.94 286.3 130.24 286.3 129.81 285.83 129.11 285.11 128.49 284.54 128.25 
M 284.03 150.4 284.58 150.13 285.29 149.44 285.75 148.67 285.75 148.19 285.29 147.42 284.58 146.73 284.03 146.46 
M 284.19 164.12 284.76 163.84 285.49 163.12 285.96 162.3 285.96 161.79 285.49 160.97 284.76 160.24 284.19 159.96 
M 284.29 171.14 284.87 170.85 285.61 170.12 286.08 169.29 286.08 168.77 285.61 167.94 284.87 167.2 284.29 166.91 
M 284.44 192.02 285 191.74 285.72 191.03 286.18 190.23 286.18 189.73 285.72 188.93 285 188.22 284.44 187.94 
M 286.35 112.03 286.71 111.87 
M 286.54 117.41 287.02 117.19 287.64 116.62 288.04 115.98 288.04 115.58 287.64 114.94 287.02 114.38 286.54 114.16 
M 286.73 128.85 287.2 128.61 287.8 128 288.18 127.3 288.18 126.88 287.8 126.18 287.2 125.57 286.73 125.33 
M 286.69 134.82 287.16 134.58 287.76 133.95 288.15 133.25 288.15 132.81 287.76 132.11 287.16 131.48 286.69 131.24 
M 286.14 147.02 286.61 146.76 287.21 146.1 287.6 145.34 287.6 144.88 287.21 144.13 286.61 143.46 286.14 143.2 
M 286.16 153.75 286.63 153.48 287.23 152.77 287.62 151.97 287.62 151.48 287.23 150.68 286.63 149.98 286.16 149.71 
M 286.29 160.67 286.77 160.39 287.37 159.67 287.76 158.85 287.76 158.34 287.37 157.52 286.77 156.8 286.29 156.52 
M 286.43 167.67 286.91 167.39 287.52 166.66 287.91 165.83 287.91 165.32 287.52 164.49 286.91 163.76 286.43 163.47 
M 286.69 209.16 287.16 208.88 287.75 208.18 288.14 207.37 288.14 206.88 287.75 206.08 287.16 205.37 286.69 205.09 
M 288.64 114.78 289.22 114.56 289.96 114.02 290.39 113.46 
M 288.78 120.25 289.35 120.02 290.08 119.45 290.55 118.8 290.55 118.39 290.08 117.74 289.35 117.16 288.78 116.94 
M 288.86 131.85 289.42 131.61 290.14 130.99 290.6 130.29 290.6 129.86 290.14 129.16 289.42 128.54 288.86 128.3 
M 288.49 143.98 289.06 143.73 289.78 143.08 290.25 142.35 290.25 141.89 289.78 141.16 289.06 140.51 288.49 140.25 
M 288.35 150.45 288.92 150.18 289.64 149.5 290.11 148.72 290.11 148.24 289.64 147.47 288.92 146.78 288.35 146.52 
M 288.55 164.23 289.12 163.94 289.85 163.22 290.33 162.39 290.33 161.89 289.85 161.06 289.12 160.34 288.55 160.05 
M 288.76 205.74 289.32 205.46 290.04 204.75 290.5 203.94 290.5 203.44 290.04 202.63 289.32 201.92 288.76 201.64 
M 290.03 209.33 289.42 208.74 288.86 208.47 
M 290.91 117.49 291.99 116.72 292.38 116.08 292.38 115.69 291.99 115.06 290.91 114.28 
M 291 123.07 291.46 122.84 292.06 122.25 292.45 121.59 292.45 121.18 292.06 120.51 291.46 119.93 291 119.7 
M 291 134.87 291.47 134.63 292.06 134 292.45 133.29 292.45 132.85 292.06 132.14 291.47 131.52 291 131.27 
M 290.82 140.93 291.29 140.69 291.9 140.05 292.29 139.33 292.29 138.88 291.9 138.16 291.29 137.53 290.82 137.28 
M 290.54 147.16 291.01 146.9 291.63 146.23 292.02 145.48 292.02 145.01 291.63 144.26 291.01 143.59 290.54 143.33 
M 290.55 153.87 291.03 153.6 291.64 152.89 292.03 152.1 292.03 151.6 291.64 150.81 291.03 150.11 290.55 149.83 
M 290.89 174.79 291.36 174.5 291.97 173.77 292.36 172.93 292.36 172.42 291.97 171.59 291.36 170.85 290.89 170.57 
M 290.84 202.33 291.31 202.05 291.91 201.33 292.3 200.52 292.3 200.02 291.91 199.2 291.31 198.48 290.84 198.2 
M 291.56 208.77 292.04 208.19 292.43 207.39 292.43 206.9 292.04 206.1 291.45 205.39 290.98 205.12 
M 293.01 114.86 293.24 114.78 
M 293.1 120.29 293.67 120.07 294.39 119.5 294.85 118.85 294.85 118.45 294.39 117.8 293.67 117.23 293.1 117.01 
M 293.15 125.97 293.71 125.74 294.42 125.14 294.88 124.46 294.88 124.05 294.42 123.37 293.71 122.77 293.15 122.54 
M 293.06 137.92 293.62 137.68 294.34 137.04 294.8 136.33 294.8 135.88 294.34 135.17 293.62 134.54 293.06 134.29 
M 292.73 150.57 293.3 150.31 294.04 149.62 294.51 148.84 294.51 148.36 294.04 147.59 293.3 146.9 292.73 146.63 
M 293.07 205.78 293.64 205.5 294.36 204.79 294.82 203.99 294.82 203.49 294.36 202.69 293.64 201.98 293.07 201.7 
M 295.23 117.53 295.7 117.32 296.52 116.39 
M 295.28 123.08 295.75 122.85 296.34 122.27 296.72 121.6 296.72 121.2 296.34 120.53 295.75 119.95 295.28 119.72 
M 295.29 128.87 295.76 128.64 296.35 128.03 296.73 127.33 296.73 126.91 296.35 126.22 295.76 125.61 295.29 125.37 
M 295.28 134.89 295.74 134.65 296.34 134.02 296.72 133.31 296.72 132.87 296.34 132.15 295.74 131.53 295.28 131.28 
M 295.14 141 295.61 140.75 296.2 140.11 296.59 139.38 296.59 138.93 296.2 138.21 295.61 137.57 295.14 137.32 
M 294.9 147.27 295.38 147 295.98 146.34 296.37 145.58 296.37 145.11 295.98 144.35 295.38 143.68 294.9 143.42 
M 295.1 160.95 295.58 160.66 296.19 159.94 296.59 159.12 296.59 158.61 296.19 157.8 295.58 157.07 295.1 156.79 
M 295.22 167.92 295.69 167.64 296.3 166.91 296.7 166.09 296.7 165.58 296.3 164.75 295.69 164.03 295.22 163.74 
M 295.27 174.88 295.74 174.6 296.34 173.87 296.73 173.04 296.73 172.53 296.34 171.71 295.74 170.98 295.27 170.7 
M 295.18 195.56 295.65 195.28 296.26 194.56 296.66 193.75 296.66 193.25 296.26 192.44 295.65 191.72 295.18 191.45 
M 297.39 120.31 297.95 120.08 298.66 119.52 299.12 118.87 299.12 118.47 298.66 117.83 297.95 117.26 297.39 117.04 
M 297.42 125.98 297.98 125.74 298.69 125.15 299.15 124.47 299.15 124.05 298.69 123.38 297.98 122.78 297.42 122.55 
M 297.4 171.41 297.96 171.13 298.68 170.41 299.14 169.59 299.14 169.08 298.68 168.26 297.96 167.53 297.4 167.25 
M 297.38 192.18 297.94 191.9 298.66 191.18 299.13 190.37 299.13 189.86 298.66 189.05 297.94 188.33 297.38 188.05 
M 297.37 199.04 297.94 198.76 298.66 198.04 299.13 197.23 299.13 196.73 298.66 195.92 297.94 195.21 297.37 194.93 
M 297.4 205.82 297.96 205.55 298.68 204.84 299.14 204.05 299.14 203.55 298.68 202.75 297.96 202.05 297.4 201.77 
M 299.55 123.08 300.01 122.85 300.6 122.27 300.99 121.61 300.99 121.2 300.6 120.54 300.01 119.95 299.55 119.73 
M 299.56 128.87 300.02 128.63 300.62 128.02 301 127.33 301 126.91 300.62 126.22 300.02 125.61 299.56 125.37 
M 299.42 141.02 299.88 140.77 300.47 140.12 300.86 139.4 300.86 138.94 300.47 138.22 299.88 137.57 299.42 137.32 
M 299.23 147.34 299.7 147.07 300.3 146.4 300.68 145.64 300.68 145.16 300.3 144.4 299.7 143.73 299.23 143.46 
M 299.31 154.11 299.78 153.84 300.38 153.13 300.77 152.32 300.77 151.82 300.38 151.02 299.78 150.31 299.31 150.03 
M 299.49 161.07 299.96 160.79 300.57 160.07 300.96 159.25 300.96 158.74 300.57 157.92 299.96 157.2 299.49 156.92 
M 299.56 167.98 300.02 167.7 300.62 166.97 301 166.16 301 165.65 300.62 164.84 300.02 164.11 299.56 163.83 
M 299.55 174.88 300 174.6 300.59 173.87 300.97 173.06 300.97 172.55 300.59 171.73 300 171.01 299.55 170.73 
M 299.55 188.77 300.01 188.49 300.61 187.77 300.99 186.95 300.99 186.44 300.61 185.62 300.01 184.9 299.55 184.62 
M 299.55 195.67 300.02 195.39 300.62 194.67 301.01 193.86 301.01 193.35 300.62 192.54 300.02 191.82 299.55 191.54 
M 301.68 125.97 302.24 125.74 302.95 125.14 303.4 124.46 303.4 124.05 302.95 123.37 302.24 122.77 301.68 122.54 
M 301.68 131.87 302.23 131.63 302.94 131.01 303.4 130.31 303.4 129.88 302.94 129.18 302.23 128.56 301.68 128.32 
M 301.45 144.18 302.01 143.92 302.72 143.26 303.18 142.51 303.18 142.05 302.72 141.3 302.01 140.64 301.45 140.38 
M 301.42 150.75 301.98 150.48 302.7 149.78 303.16 149 303.16 148.51 302.7 147.73 301.98 147.03 301.42 146.76 
M 301.56 157.62 302.13 157.34 302.85 156.62 303.31 155.81 303.31 155.31 302.85 154.5 302.13 153.79 301.56 153.51 
M 301.64 171.37 302.19 171.09 302.89 170.37 303.34 169.56 303.34 169.05 302.89 168.24 302.19 167.52 301.64 167.24 
M 301.67 185.3 302.22 185.02 302.93 184.29 303.39 183.47 303.39 182.96 302.93 182.13 302.22 181.41 301.67 181.12 
M 301.68 192.23 302.24 191.94 302.96 191.22 303.42 190.41 303.42 189.9 302.96 189.08 302.24 188.36 301.68 188.08 
M 301.68 199.08 302.24 198.8 302.95 198.08 303.41 197.28 303.41 196.78 302.95 195.97 302.24 195.26 301.68 194.98 
M 303.8 123.06 304.26 122.83 304.85 122.25 305.23 121.59 305.15 121.04 
M 303.82 128.86 304.28 128.62 304.87 128.01 305.25 127.32 305.25 126.9 304.87 126.21 304.28 125.6 303.82 125.36 
M 303.51 147.36 303.97 147.09 304.56 146.42 304.94 145.65 304.94 145.17 304.56 144.4 303.97 143.73 303.51 143.46 
M 303.63 154.18 304.1 153.9 304.7 153.19 305.09 152.38 305.09 151.88 304.7 151.08 304.1 150.36 303.63 150.09 
M 303.69 174.75 304.13 174.47 304.71 173.75 305.08 172.93 305.08 172.42 304.71 171.6 304.13 170.88 303.69 170.6 
M 303.76 181.8 304.22 181.52 304.81 180.78 305.19 179.95 305.19 179.44 304.81 178.61 304.22 177.88 303.76 177.59 
M 303.83 188.79 304.29 188.51 304.89 187.78 305.27 186.96 305.27 186.45 304.89 185.63 304.29 184.9 303.83 184.62 
M 303.81 195.67 304.27 195.39 304.86 194.67 305.25 193.86 305.25 193.35 304.86 192.54 304.27 191.83 303.81 191.55 
M 305.91 131.84 306.46 131.6 307.16 130.98 307.62 130.28 307.62 129.84 307.16 129.14 306.46 128.53 305.91 128.28 
M 305.82 137.89 306.37 137.65 307.07 137.01 307.52 136.29 307.52 135.84 307.07 135.12 306.37 134.49 305.82 134.24 
M 305.69 150.77 306.25 150.5 306.96 149.8 307.42 149.01 307.42 148.52 306.96 147.73 306.25 147.03 305.69 146.76 
M 308.01 123.01 308.41 122.81 
M 308.04 128.82 308.49 128.58 309.08 127.97 309.45 127.28 309.45 126.85 309.08 126.16 308.49 125.55 308.04 125.32 
M 308 134.8 308.45 134.56 309.03 133.93 309.41 133.22 309.41 132.78 309.03 132.07 308.45 131.45 308 131.2 
M 307.73 147.33 308.18 147.06 308.77 146.38 309.15 145.6 309.15 145.12 308.77 144.35 308.18 143.66 307.73 143.4 
M 307.92 154.21 308.38 153.93 308.98 153.21 309.36 152.4 309.36 151.9 308.98 151.09 308.38 150.37 307.92 150.1 
M 307.97 181.77 308.43 181.48 309.02 180.74 309.4 179.9 309.4 179.38 309.02 178.54 308.43 177.8 307.97 177.51 
M 310.09 125.85 310.63 125.61 311.31 125.02 311.65 124.5 
M 310.08 131.74 310.62 131.5 311.3 130.88 311.75 130.18 311.75 129.75 311.3 129.05 310.62 128.43 310.08 128.19 
M 309.98 137.78 310.52 137.54 311.21 136.9 311.65 136.18 311.65 135.73 311.21 135.01 310.52 134.38 309.98 134.13 
M 309.86 144.07 310.41 143.81 311.11 143.14 311.56 142.39 311.56 141.92 311.11 141.16 310.41 140.49 309.86 140.23 
M 309.94 150.76 310.49 150.48 311.21 149.78 311.66 148.98 311.66 148.49 311.21 147.7 310.49 146.99 309.94 146.72 
M 310.12 164.4 310.68 164.13 311.38 163.42 311.83 162.63 311.83 162.13 311.38 161.34 310.68 160.63 310.12 160.36 
M 309.95 171.12 310.49 170.85 311.18 170.13 311.63 169.33 311.63 168.83 311.18 168.02 310.49 167.31 309.95 167.03 
M 310.14 199 310.7 198.72 311.41 198.01 311.87 197.2 311.87 196.71 311.41 195.9 310.7 195.19 310.14 194.91 
M 312.12 134.65 312.56 134.41 313.12 133.78 313.49 133.08 313.49 132.64 313.12 131.93 312.56 131.31 312.12 131.06 
M 311.92 147.27 312.38 147 312.97 146.31 313.36 145.53 313.36 145.04 312.97 144.26 312.38 143.57 311.92 143.3 
M 312.12 167.66 312.57 167.39 313.15 166.7 313.53 165.91 313.53 165.42 313.15 164.63 312.57 163.93 312.12 163.66 
M 312.28 195.59 312.75 195.31 313.35 194.6 313.73 193.79 313.73 193.29 313.35 192.48 312.75 191.77 312.28 191.49 
M 313.35 199.38 312.71 198.59 312.25 198.31 
M 314.1 131.49 314.61 131.25 315.26 130.63 315.68 129.93 315.68 129.49 315.26 128.79 314.61 128.17 314.1 127.92 
M 314.05 137.62 314.58 137.36 315.26 136.72 315.69 135.99 315.69 135.53 315.26 134.8 314.58 134.16 314.05 133.9 
M 314.33 164.32 314.87 164.05 315.57 163.35 316.02 162.56 316.02 162.07 315.57 161.29 314.87 160.59 314.33 160.32 
M 314.09 171 314.63 170.72 315.32 170.01 315.76 169.2 315.76 168.71 315.32 167.9 314.63 167.19 314.09 166.91 
M 314.14 178.05 314.67 177.76 315.36 177.02 315.81 176.18 315.81 175.67 315.36 174.83 314.67 174.09 314.14 173.8 
M 315.31 198.4 316.17 197.22 316.17 196.72 315.7 195.92 314.98 195.21 314.42 194.93 
M 316.04 128.28 316.44 128.04 317.04 127.27 
M 316.05 134.35 316.47 134.1 317 133.46 317.35 132.74 317.35 132.29 317 131.57 316.47 130.93 316.05 130.68 
M 316.08 140.69 316.53 140.43 317.11 139.76 317.48 139 317.48 138.53 317.11 137.77 316.53 137.1 316.08 136.83 
M 316.54 154.3 317.02 154.02 317.62 153.3 318.01 152.5 318.01 151.99 317.62 151.19 317.02 150.47 316.54 150.19 
M 316.25 167.5 316.69 167.23 317.26 166.54 317.63 165.76 317.63 165.28 317.26 164.5 316.69 163.81 316.25 163.54 
M 316.61 195.65 317.07 195.37 317.67 194.66 318.06 193.85 318.06 193.35 317.67 192.54 317.07 191.82 316.61 191.54 
M 317.83 131 318.31 130.75 318.92 130.11 319.32 129.39 319.32 128.94 318.91 128.21 
M 318.03 137.4 318.55 137.14 319.21 136.46 319.64 135.7 319.64 135.23 319.21 134.46 318.55 133.79 318.03 133.52 
M 318.32 144.09 318.88 143.82 319.59 143.11 320.06 142.32 320.06 141.83 319.59 141.04 318.88 140.34 318.32 140.06 
M 318.6 150.9 319.17 150.62 319.9 149.92 320.37 149.11 320.37 148.62 319.9 147.82 319.17 147.11 318.6 146.83 
M 318.72 192.22 319.27 191.94 319.97 191.21 320.43 190.38 320.43 189.86 319.97 189.03 319.27 188.3 318.72 188.02 
M 319.97 195.91 319.29 195.24 318.73 194.97 
M 319.74 133.88 320.14 133.61 320.66 132.93 320.99 132.17 320.99 131.69 320.66 130.92 320.14 130.24 319.74 129.98 
M 320.69 147.58 321.17 147.31 321.79 146.59 322.19 145.78 322.19 145.28 321.79 144.47 321.17 143.76 320.69 143.48 
M 320.89 154.33 321.36 154.06 321.96 153.36 322.34 152.57 322.34 152.08 321.96 151.29 321.36 150.59 320.89 150.32 
M 320.77 188.74 321.22 188.44 321.79 187.69 322.16 186.84 322.16 186.32 321.79 185.47 321.22 184.72 320.77 184.42 
M 321.3 130.27 322 129.76 
M 321.94 137.17 322.45 136.89 323.11 136.17 323.54 135.35 323.54 134.85 323.11 134.03 322.45 133.31 321.94 133.02 
M 322.95 150.97 323.52 150.7 324.24 150 324.7 149.2 324.7 148.71 324.24 147.91 323.52 147.21 322.95 146.94 
M 322.59 184.98 323.12 184.68 323.8 183.92 324.24 183.06 324.24 182.53 323.8 181.67 323.12 180.91 322.59 180.61 
M 323.31 133.34 323.72 133.05 324.23 132.32 324.57 131.48 324.57 131.07 
M 324.45 140.77 324.91 140.48 325.5 139.72 325.87 138.86 325.87 138.32 325.5 137.46 324.91 136.7 324.45 136.41 
M 325.09 147.72 325.57 147.44 326.17 146.73 326.56 145.91 326.56 145.41 326.17 144.6 325.57 143.88 325.09 143.6 
M 325.13 154.26 325.59 153.99 326.18 153.31 326.56 152.54 326.56 152.06 326.18 151.29 325.59 150.61 325.13 150.34 
M 324.3 166.98 324.74 166.72 325.3 166.04 325.66 165.26 325.66 164.79 325.3 164.02 324.74 163.33 324.3 163.07 
M 324.38 181.17 324.82 180.87 325.38 180.11 325.75 179.24 325.75 178.7 325.38 177.84 324.82 177.07 324.38 176.77 
M 324.83 188.56 325.27 188.26 325.84 187.5 326.21 186.64 326.21 186.11 325.84 185.24 325.27 184.48 324.83 184.19 
M 325.88 136.98 326.4 136.68 327.08 135.91 327.51 135.04 327.51 134.5 327.08 133.62 326.4 132.85 325.88 132.55 
M 326.91 144.28 327.47 143.99 328.18 143.24 328.65 142.39 328.65 141.87 328.18 141.02 327.47 140.28 326.91 139.99 
M 327.24 150.97 327.8 150.7 328.51 150.01 328.97 149.22 328.97 148.73 328.51 147.94 327.8 147.25 327.24 146.98 
M 326.59 163.7 327.12 163.44 327.81 162.76 328.25 162 328.25 161.53 327.81 160.77 327.12 160.1 326.59 159.84 
M 326.27 177.39 326.8 177.1 327.49 176.36 327.93 175.51 327.93 174.99 327.49 174.14 326.8 173.39 326.27 173.1 
M 326.64 184.77 327.18 184.47 327.86 183.7 328.3 182.84 328.3 182.3 327.86 181.44 327.18 180.67 326.64 180.38 
M 327.05 132.95 327.53 132.58 
M 329.41 147.77 329.88 147.49 330.48 146.78 330.86 145.97 330.86 145.47 330.48 144.66 329.88 143.94 329.41 143.66 
M 329.32 154.14 329.78 153.88 330.37 153.21 330.74 152.45 330.74 151.98 330.37 151.23 329.78 150.56 329.32 150.3 
M 328.37 166.79 328.82 166.52 329.4 165.84 329.77 165.07 329.77 164.59 329.4 163.82 328.82 163.14 328.37 162.87 
M 328.17 173.63 328.62 173.34 329.2 172.61 329.57 171.79 329.57 171.28 329.2 170.46 328.62 169.73 328.17 169.44 
M 328.44 180.96 328.89 180.66 329.47 179.9 329.84 179.03 329.84 178.49 329.47 177.63 328.89 176.86 328.44 176.56 
M 328.91 188.38 329.36 188.08 329.94 187.31 330.31 186.45 330.31 185.91 329.94 185.04 329.36 184.28 328.91 183.98 
M 329.98 136.89 330.54 136.58 331.25 135.78 331.71 134.66 
M 331.19 144.31 331.74 144.02 332.46 143.26 332.92 142.41 332.92 141.88 332.46 141.02 331.74 140.26 331.19 139.97 
M 331.5 150.95 332.05 150.68 332.76 149.99 333.22 149.21 333.22 148.72 332.76 147.94 332.05 147.25 331.5 146.98 
M 330.75 163.58 331.3 163.32 332.01 162.65 332.46 161.89 332.46 161.42 332.01 160.66 331.3 159.99 330.75 159.73 
M 330.79 184.65 331.34 184.35 332.04 183.59 332.5 182.72 332.5 182.18 332.04 181.32 331.34 180.55 330.79 180.25 
M 332.96 140.86 333.43 140.55 334.03 139.75 334.42 138.84 334.42 138.28 334.03 137.38 333.43 136.57 332.96 136.26 
M 333.57 154.11 334.03 153.85 334.62 153.18 335.01 152.43 335.01 151.96 334.62 151.21 334.03 150.54 333.57 150.28 
M 333.12 160.37 333.58 160.12 334.18 159.46 334.57 158.71 334.57 158.25 334.18 157.5 333.58 156.84 333.12 156.58 
M 332.61 166.76 333.08 166.49 333.68 165.81 334.07 165.04 334.07 164.56 333.68 163.79 333.08 163.11 332.61 162.84 
M 332.41 173.6 332.88 173.31 333.49 172.59 333.88 171.76 333.88 171.25 333.49 170.43 332.88 169.7 332.41 169.42 
M 332.67 180.92 333.14 180.62 333.74 179.86 334.13 178.99 334.13 178.46 333.74 177.59 333.14 176.83 332.67 176.53 
M 335.48 144.32 336.04 144.03 336.76 143.28 337.23 142.43 337.23 141.9 336.76 141.06 336.04 140.31 335.48 140.01 
M 335.76 150.95 336.32 150.68 337.04 149.99 337.5 149.21 337.5 148.72 337.04 147.94 336.32 147.25 335.76 146.98 
M 335.06 163.64 335.63 163.38 336.37 162.71 336.84 161.94 336.84 161.47 336.37 160.71 335.63 160.03 335.06 159.77 
M 334.74 170.28 335.32 170 336.06 169.3 336.54 168.5 336.54 168.01 336.06 167.21 335.32 166.5 334.74 166.23 
M 337.32 140.89 337.8 140.58 338.42 139.81 338.81 138.94 338.7 138.15 
M 337.05 166.96 337.54 166.69 338.17 166 338.58 165.22 338.58 164.74 338.17 163.96 337.54 163.27 337.05 163.01 
M 339.81 144.33 340.38 144.04 341.11 143.31 341.43 142.74 
M 341.43 141.73 341.11 141.16 340.38 140.43 339.81 140.14 
M 341.43 148.15 340.6 147.26 340.04 146.99 
M 341.43 154.93 340.41 153.76 339.84 153.5 
M 214.43 101.55 247.62 30 248.43 30.36 217.83 101.75 
M 227.5 98.83 250.02 52.22 250.83 52.58 230.73 99.41 
M 240.87 98.39 255.55 72.69 256.34 73.1 244.08 99.07 
M 254.26 99.06 261.96 89.37 262.71 89.85 257.15 100.41 
M 267.46 103.48 268.76 104.43 
M 245.32 37.61 244.73 42.03 244.61 44.22 244.67 46.39 244.94 48.53 246.09 52.74 247.77 56.88 
M 248.79 57.34 248.87 61.65 249.46 65.8 250.05 67.79 250.84 69.72 251.81 71.6 254.08 75.26 
M 255.07 75.77 255.38 79.45 256.18 82.92 256.86 84.54 257.73 86.08 258.78 87.54 261.19 90.34 
M 262.13 90.95 262.47 94.36 263.29 97.54 263.97 99 264.85 100.37 265.89 101.66 268.3 104.1 
M 244.99 39.82 244.61 44.22 244.67 46.39 244.94 48.53 245.43 50.65 246.89 54.81 
M 241.83 48.37 241.5 52.15 241.56 54.02 242.2 57.68 243.47 61.26 
M 238.67 56.91 238.4 60.08 238.44 61.64 238.98 64.7 240.04 67.7 
M 235.51 65.45 235.33 69.26 235.76 71.73 236.62 74.15 
M 232.35 74 232.19 75.93 232.33 77.83 233.19 80.59 
M 248.79 59.51 249.07 63.75 249.46 65.8 250.05 67.79 250.84 69.72 252.91 73.44 
M 245.72 68.79 245.94 72.05 246.23 73.62 247.29 76.63 248.87 79.48 
M 242.65 78.08 243 81.44 243.74 83.53 244.84 85.51 
M 255.19 77.63 255.69 81.23 256.18 82.92 256.86 84.54 257.73 86.08 259.95 88.95 
M 181.3 175.39 182.28 175.45 185.25 174.99 187.04 173.62 188.84 172.86 191.67 172.39 194.57 170.75 197.65 170.04 201.05 170.48 204.29 170.31 206.95 168.1 234.43 161.69 239.78 164.39 242.01 165.75 247.47 170.61 247.94 172.71 248.19 175.37 248.14 178.53 247.41 181.4 245.38 182.97 244.67 185.15 248.17 190.57 247.72 193.5 246.36 195.74 243.95 197.01 238.28 198.13 235.68 198.93 230.7 200.88 228.32 202.1 225.29 202.68 223.57 204.17 207.75 204.99 204.08 203.26 201.62 201.27 199.09 199.76 194.49 195.58 191.24 195 188.31 193.04 180.72 189.62 
M 181.14 176.44 184.81 176.09 187.27 175.31 189.09 174.25 199.91 171.68 204.83 171.01 210.54 168.98 
M 180.91 177.95 184.96 177.76 187.48 177.37 192.01 175.88 197.56 174.73 199.71 173.88 202.79 173.81 205.89 174.66 210.07 174.21 
M 184.83 179.5 190.71 179.01 193.36 178.62 195.32 178.28 197.62 177.63 203.19 177.48 206.79 177.66 213.25 177.43 
M 187.88 181.68 195.68 181.4 197.76 180.87 200.51 180.49 206.75 180.29 208.98 180.49 212.21 180.49 215.43 181.35 217.4 180.9 223.16 180.41 226.02 179.8 
M 181.86 182.9 190.91 184 196.27 184.22 198.46 183.75 200.98 183.64 204.25 183.95 209.25 183.37 211.74 183.37 213.98 184.65 216.91 185.93 
M 184.91 184.9 187.88 185.03 196.42 187.03 201.8 186.87 204.95 187.6 207.4 187.93 210.47 187.31 213.01 187.17 215.11 187.34 218.06 188.59 220.88 189.26 224.09 188.34 
M 184.9 186.55 187.77 186.82 191.34 187.95 199.21 190 202.45 190.09 205 191.07 207.99 191.48 210.62 191.44 216.84 192.11 219.58 191.83 221.97 192.12 226.86 194.67 
M 181.67 187.47 184.97 188.38 188.06 188.92 190.94 190.53 193.81 191.45 196.35 191.96 202.68 193.63 211.11 196.17 
M 180.74 188.44 185.04 190.07 188 190.97 190.74 192.79 193.69 193.65 198.83 196 204.99 197.6 207.16 199.09 208.86 200.73 
M 203.96 215.97 222.6 242.68 221.89 243.22 201.4 217.9 
M 202.4 215.68 202.92 216.75 
M 206.49 224.19 220.04 252.37 219.25 252.78 199.56 217.14 
M 200.8 215.4 201.08 216.36 
M 203.29 223.89 214.51 262.29 213.66 262.56 197.75 216.37 
M 199.16 215.14 199.25 215.89 
M 200.14 223.31 205.94 271.72 205.06 271.84 195.99 215.58 
M 197.67 214.94 197.65 215.35 
M 197.27 223.5 194.63 280 193.74 279.97 194.47 214.85 
M 219.84 240.69 218.37 242.25 217.43 243.91 217.25 244.8 217.29 245.73 217.5 246.7 218.27 248.7 
M 217.28 249.21 215.33 250.57 213.87 252.17 213.41 253.1 213.14 254.12 213.03 255.23 213.14 257.6 
M 212.07 257.94 209.68 259.01 207.7 260.42 206.95 261.33 206.35 262.37 205.9 263.52 205.26 266.06 
M 204.16 266.22 201.4 266.94 198.97 268.07 197.95 268.88 197.05 269.86 196.28 270.98 194.93 273.49 
M 219.07 241.46 217.81 243.06 217.43 243.91 217.25 244.8 217.29 245.73 217.85 247.69 
M 215.05 235.68 214.08 236.9 213.79 237.56 213.68 238.95 214.11 240.45 
M 211.02 229.89 210.15 231.2 210.07 232.17 210.37 233.22 
M 216.27 249.88 214.52 251.33 213.87 252.17 213.41 253.1 213.14 254.12 213.05 256.4 
M 213.45 243.97 212 245.17 211.08 246.63 210.86 247.48 210.79 249.35 
M 210.62 238.07 209.48 239.01 209.06 239.56 208.58 240.83 208.53 242.31 
M 207.8 232.17 206.96 232.86 206.44 233.7 206.27 235.27 
M 210.85 258.45 208.62 259.66 207.7 260.42 206.95 261.33 206.35 262.37 205.55 264.77 
M 209.11 252.46 207.19 253.49 205.75 254.93 205.24 255.82 204.56 257.89 
M 207.37 246.46 205.77 247.33 205.11 247.88 204.13 249.28 203.56 251.01 
M 205.63 240.46 203.81 241.61 203.02 242.73 202.56 244.13 
M 203.89 234.47 202.51 235.34 201.92 236.19 201.56 237.25 
M 202.75 266.55 200.13 267.43 198.97 268.07 197.95 268.88 197.05 269.86 195.58 272.2 
M 202.06 260.55 199.74 261.33 197.82 262.61 197.03 263.47 195.73 265.55 
M 201.37 254.55 199.36 255.23 198.47 255.72 197 257.09 195.87 258.89 
M 200.68 248.55 198.97 249.13 198.22 249.54 196.97 250.7 196.02 252.23 
M 199.99 242.55 198.59 243.02 197.42 243.8 196.16 245.57 
M 199.3 236.55 198.2 236.92 197.29 237.53 196.31 238.91 
M 321.61 198.47 324.29 202.82 327.86 205.01 330.83 207.05 333.62 207.99 328.06 211.65 326.23 213.58 323.92 214.98 321.33 215.96 319.09 217.49 317.68 219.85 316.76 222.71 315.19 224.9 310.84 227.97 308.37 229.23 306.73 231.34 304.34 232.71 301.56 233.69 299.89 235.77 297.64 240.92 296.34 243.19 295.29 245.42 293.3 247.02 291.54 248.95 289.92 251.04 287.5 252.35 287.01 255.38 286.31 258.19 284.99 260.6 282.83 262.2 278.15 265.04 276.22 266.88 275.09 269.9 274.49 274.45 273 271.34 271.12 266.6 269.4 263.64 268.3 261.38 267.82 259.4 266.79 256.74 265.92 253.74 263.96 251 260.4 245.21 259.27 242.72 256.99 238.51 255.25 236.42 253.88 233.02 252.1 230.31 250.77 227.48 248.93 224.39 
M 317.78 200.73 321.08 204.3 323.62 207.35 326.38 210.23 
M 313.93 202.96 317.82 205.72 
M 310.02 205.07 314.34 208.36 317.46 209.88 319.97 213.03 
M 306.08 207.13 309.64 211.83 312.92 214.42 
M 302.12 209.16 306.17 213.12 309.32 215.44 
M 298.07 210.98 305.13 217.35 306.97 220.1 309.82 222.39 
M 293.99 212.75 297.47 216.6 300.33 219.4 303.13 221.37 
M 289.88 214.45 292.66 218.65 297.75 222.8 299.49 225.17 
M 285.77 216.14 288.3 220.31 291.16 222.81 294.62 224.32 296.22 226.26 299.79 231.45 
M 281.64 217.79 284.66 221.47 292.53 228.98 294.19 230.69 295.42 232.43 
M 277.39 219.08 279.95 223 281.88 225.12 286.81 229.9 289.95 235.75 
M 273.11 220.29 275.53 223.62 276.86 226.11 281.2 231.94 286.41 237.27 
M 268.81 221.42 272.48 227.46 279.47 235.93 280.56 238.7 285.16 243.56 286.64 243.84 289.4 246.03 
M 264.48 222.45 268.24 228.13 270.82 230.8 272.99 233.69 274.16 236.23 278.15 241.55 279.49 244.15 281.47 245.98 282.65 248.47 
M 260.11 223.26 264.36 228.8 265.98 232.02 267.87 234.64 269.16 237.37 270.96 239.72 271.93 241.92 274.17 243.36 275.63 246.4 279.21 251.27 
M 255.7 223.81 257.94 226.63 261.47 232.7 263.67 236.04 265.3 238.98 266.27 241.22 267.28 243.1 267.84 245.36 270.23 247.57 272.02 250.89 272.63 254.42 273.37 256.94 275.27 258.26 277.13 261.6 
M 251.27 224.19 253.26 227.33 254.63 230 255.9 233.39 261.04 241.28 261.86 243.3 262.6 245.83 266.74 250.79 267.81 254.45 269.1 256.94 269.86 259.11 
M 341.43 139.51 345.68 135.62 351.31 129.4 352.92 126.81 358.19 119.76 361.65 115.52 365.91 111.4 371.18 106.81 374.69 102.92 376.53 102.09 380.69 97.82 383.75 95.95 386.22 93.7 388.71 92.76 392.37 90.56 393.63 88.68 396.09 87.06 398.43 85.65 401.82 84.49 404.3 82.86 408.58 81.14 414.62 77.76 420.03 76.88 424.51 75.31 431.49 73.85 434.5 73.68 436.64 72.42 438.92 70.75 442.34 69.71 445.28 69.98 447.07 70.42 448.82 70.23 451.35 68.74 455.14 67.29 460.01 79.22 461.61 84.51 460.75 86.53 460.33 91.89 459.83 94.47 459.79 97.68 459.44 100.58 458.53 102.91 451.94 111.13 450.28 116.85 448.67 118.75 447.59 121.19 446.32 123.55 437.65 129.69 435.83 131.62 434.41 133.94 433.32 136.58 431.78 138.78 429.31 140.04 426.22 140.72 423.95 142.01 421.22 142.84 419.29 144.45 417.69 146.49 415.76 148.31 414.12 150.44 412.63 152.71 410.44 154.28 405.72 157 403.4 157.99 399.83 157.74 393.29 157.83 389.87 161.26 387.58 162.46 382.34 164.2 380.25 165.6 377.59 166.43 378.32 169.81 381.32 171.78 385.32 171.48 390.58 172.45 391.9 171.82 396.97 175.21 403.18 178.81 405.91 179.68 409.16 181.07 411.76 181.82 413.95 182.16 416.96 183.31 419.1 184.43 427.88 192.68 429.91 194.88 433.66 199.52 437.94 204.37 445.36 211.61 447.38 213.86 452.2 220.69 456.69 229.24 458.68 232.52 459.56 237.37 459.2 239.28 459.59 242.2 459.49 244.62 459.75 247.41 460.51 250.73 460.48 253.57 460.06 256.03 460.13 258.92 454.97 264.41 448.97 263.74 447.14 262.57 444.3 261.66 440.04 261.26 436.96 261.58 434.23 261.23 429.44 259.45 426.83 258.7 424.69 256.76 423.29 254.65 421.42 253.43 418.46 253.17 414.75 252.56 411.9 251.67 409.02 250.57 406.63 248.15 403.89 248.09 401.83 247.75 399.72 247.16 398.09 246.41 395.12 244.19 392.03 243.21 389.28 241.38 387.07 238.76 384.7 237.68 379.26 232.27 377.04 230.71 375.29 229.79 373.49 227.31 371.67 225.57 370.24 222.85 368.42 220.67 366.04 217.94 361.41 213.78 359.41 211.27 358.35 209.01 354.47 204.62 350.86 199.77 348.83 197.58 343.65 189.4 341.43 186.3 
M 347.96 135.76 351.96 131.71 355.86 127.03 357.94 124.96 360.95 121.24 362.46 119.81 364.84 117.67 369.48 114.12 372.99 110.55 375.36 109.15 377.23 107.35 381.02 105.4 383.27 103.02 386.49 100.19 388.08 98.12 390.79 96.52 393.78 96.81 395.81 95.93 399.76 92.83 408.26 88.93 409.9 88 
M 341.43 143.3 345.98 140.13 350.64 136.29 352.73 134.25 354.75 131.9 358.7 127.8 360.32 126.56 363.94 123.2 365.98 121.66 368.71 119.28 371.3 117.45 373.33 115.65 379.19 111.82 381.77 110.35 386.22 107.34 391.51 104.12 393.72 102.28 398.94 101.46 401.77 100.26 404.05 97.74 406.88 96.72 410.04 96.32 412.99 94.67 416.73 94.55 425.78 91.45 428.41 91.47 431.76 90.7 435.83 90.44 439.09 89 442.44 88.04 445.27 88.37 447.62 87.73 
M 343.77 143.73 346.37 142.32 351.37 138.78 361.16 129.45 363.59 128.02 365.61 126.14 370.59 123.39 373.02 120.53 374.69 118.83 376.91 117.69 378.95 117.05 385.64 114.08 389.06 111.49 392.71 109.96 395.63 108.96 396.84 107.55 
M 343.95 145.81 351.76 141.35 355.9 138.18 358.32 136.01 360.13 134.02 364.66 131.29 367.14 130.01 369.66 127.84 372.21 126.71 374.25 124.67 376.59 123.41 378.45 122.94 380.85 121.76 382.64 120.67 385.49 119.36 388.62 118.45 390.51 116.49 395.88 113.86 398.19 113.36 400.62 112.54 402.93 112.26 409.98 110.93 412.38 109.87 415.17 109.77 417.99 109.17 419.45 109.37 422.12 108.86 424.17 108.02 427.01 106.4 429.39 104.78 
M 346.69 146.63 352 144.09 354.06 142.4 356.67 141.42 359.25 139.86 363.07 136.67 368.42 133.64 370.89 131.59 373.3 130.25 378.25 128.21 380.95 127.39 383.6 127.07 386.27 126.46 387.8 125.17 390.27 123.44 397.8 120.01 401.26 119.84 404.18 119.26 406.4 118.62 
M 347 148.99 349.98 147.87 354.43 145.14 359.74 143.68 363.91 141.11 366.11 139.38 372.47 136.49 374.42 134.93 376.5 134.37 379.36 132.5 382.08 131.82 388.56 131.15 390.33 130.62 392.97 130.16 397.92 128.12 400.42 127.35 402.52 126.12 405.19 125.66 407.63 124.98 
M 344.69 152.11 349.89 150.35 354.74 147.95 357.5 147.12 360.44 146.53 362.76 145.52 365.03 144.76 367.6 143.62 369.85 142.31 372.47 141.56 375.3 140.04 377.54 139.61 380.46 138.16 383.5 137.36 389.8 136.41 392.06 135.76 394.3 135.65 397.09 134.77 399.24 132.95 401.91 131.64 405.62 130.64 
M 344.7 154.33 349.83 152.8 355.05 150.99 357.98 149.75 363.64 148.3 370.85 145.75 374.1 145.43 378.71 143.92 381.64 143.62 384.49 142.68 
M 347.36 155.69 349.93 155.28 355.56 153.98 361.45 152.12 363.52 150.84 366.02 150.03 377.19 148.41 379.99 148.18 383.41 148.13 391.35 147.69 395.95 147.97 398.97 147.65 401.92 146.8 405.2 146.68 407.98 145.8 410.67 145.63 
M 347.55 158.38 353.67 157.27 356.25 157.45 361.88 155.7 364.57 154.49 366.82 153.71 369.37 153.48 373.12 153.89 375.91 153.62 377.89 152.74 
M 341.43 160.34 344.72 160.89 348.05 161.03 354.57 160.57 357.27 160.86 366.07 159.25 368.33 158.45 
M 352.2 164.17 358.69 164.84 364.23 164.39 
M 341.43 164.13 348.28 166.77 352.02 167.35 355.18 168.21 358.61 168.87 361.19 168.65 366.85 168.93 370.24 168.18 373.28 168.16 377.01 169.91 
M 350.8 169.58 353.79 170.71 357.28 171.67 359.45 171.95 361.76 172.56 364.76 172.93 367.51 172.95 370.38 172.43 376.41 173.89 382.15 174.04 
M 347.7 170.78 350.19 171.82 353.17 172.65 358.04 175.49 360.82 176.24 366.35 176.7 368.17 177.62 371.37 177.17 374.96 177.66 
M 347.39 172.62 352.61 174.73 354.96 176.45 360.35 179.52 363.37 179.69 366.03 180.04 375.17 182.38 378.03 183.55 
M 347.31 174.87 354.64 178.73 360.16 181.92 363.3 182.1 368.17 184.32 371.35 185.17 373.78 187 377.12 188.42 381.91 189 386.22 188.98 392.18 190.88 395.33 192.18 398.31 192.56 403.61 194.14 406.8 194.38 
M 341.43 173.6 347.2 177.25 352.58 179.8 357.66 182.76 360.22 183.75 363.29 185.42 365.63 187.01 367.6 187.76 373.01 190.86 375.74 192.74 377.86 193.85 381.03 193.55 383.81 193.49 386.64 193.94 389.06 194.71 393.36 196.93 396.04 197.72 400.52 199.86 
M 349.84 180.97 355.15 184.08 357.87 185.22 360.13 186.47 366.85 191.83 369.63 193.67 372.72 195.38 375.38 198.85 378.83 199.24 385.97 199.7 388.52 200.18 390.14 201.3 391.59 202.62 394.02 203.02 399.57 205.65 402.33 206.4 404.74 206.34 410.54 207.82 413.99 209.03 416.49 207.99 419.1 207.89 422 209.07 424.49 209.66 426.42 210.63 
M 344.5 179.75 349.58 183.36 352.18 184.89 357.24 188.29 361.46 191.39 366.05 195.02 368.62 196.08 370.93 197.95 373.96 202.41 377 203.45 380.03 203.42 383.2 203.92 385.28 204.87 387.76 206.82 396.2 210.36 398.05 211.65 400.73 212.07 404 212.99 405.48 213.96 407.82 214.77 411.06 215.25 413.57 215.85 416.24 217.24 419.09 218.12 421.9 218.63 424.33 219.69 427.37 219.77 429.54 220.72 432.4 220.74 436.75 219.63 438.99 219.79 440.14 220.88 443.12 221.03 445.95 221.75 450.39 221.38 
M 346.89 183.87 349.35 185.7 353.83 189.42 357.86 193.53 359.74 195.22 362.55 196.67 367.71 199.75 369.64 201.79 371.6 204.16 377.18 206.9 379.19 207.56 381.73 210.25 384.8 211.86 387.68 213.77 391.48 215.45 394.42 216.31 397.11 217.95 399.47 218.82 402.9 219.45 407 221.05 408.68 222.4 
M 341.43 181.17 346.65 185.96 350.96 190.6 356.09 196.94 358.44 198.69 361.34 200.03 366.22 202.98 367.81 205.29 370.08 207.57 373.66 208.79 376.37 210.78 378.45 212.57 379.14 214.54 381.34 215.46 383.73 216.98 386.37 219.54 390.01 221.13 393.09 222.11 395.13 223.27 396.94 224.61 399.52 225.24 401.38 225.42 403.69 226.28 404.76 226.91 406.48 228.67 408.87 229.85 412.18 231.16 414.74 231.75 418.08 233.12 421.27 234.13 427.44 235.41 429.96 235.37 
M 346.36 188.17 348.1 190.68 353.39 197.41 355.5 199.81 357.65 201.72 360.27 203.3 362.44 204.96 365.85 208.44 371.5 213.12 374.57 215.38 376.08 217.42 379.45 221.42 381.7 222.85 384.26 224.13 386.83 225.19 392.15 226.69 393.72 228.22 395.97 228.83 400.84 231.78 402.84 233.6 405.51 235.35 411.25 237.14 413.41 239.14 418.34 241.98 421.78 242.37 424.15 242.85 427.68 242.63 430.22 244.1 433.32 244.49 
M 341.43 184.96 343.92 187.8 349.41 195.51 351.21 197.73 353.43 200.05 355.2 202.49 359.61 206.39 362.75 210.27 364.83 212.46 370.05 217.04 372.44 219.7 374.62 221.29 375.91 224.07 377.38 225.69 379.59 226.55 381.9 227.81 383.54 229.28 392.82 235.42 395.63 236.84 402.9 241.64 405.26 242.35 406.99 243.84 409.57 244.46 412.8 246.22 415.41 247.16 417.65 248.27 420.21 248.27 426.53 250.46 428.79 252.12 
M 315 126.25 317.03 121.88 318.36 120.01 320.04 118.49 323.94 115.99 325.61 114.46 327.12 112.78 328.9 111.36 331.35 110.8 334.35 112.07 337.31 115.15 339.42 119.2 339.71 122.76 338.1 124.92 333.67 126.86 331.88 128.08 330.29 129.5 328.94 131.16 328.22 132.93 
M 317.7 124.5 318.36 123.57 320.04 122.05 323.94 119.55 325.61 118.02 327.12 116.33 328.9 114.91 331.35 114.36 334.35 115.63 335.83 117.17 
M 66.05 143.17 66.66 142.71 68.68 142.03 71.62 141.53 80.97 139.29 92.59 135.94 99.59 134.23 115.96 130.95 148.82 125.47 155.62 124.1 161.65 123.21 169.57 122.52 173.05 126.65 174.65 130.93 176.48 135.2 178.54 139.44 180.16 143.73 181.15 148.06 182.52 156.78 182.22 161.21 182.28 165.62 182.08 170.05 180.76 178.98 180.96 183.37 180.68 192.22 180.06 196.68 178.77 201.19 176.28 205.75 160.55 205.05 149.24 203.57 139.02 201.32 129.56 198.57 120.87 195.3 112.59 191.85 105.13 188.12 98.69 184.41 92.42 180.41 86.74 175.67 82.43 170.76 
M 76.09 163.62 74.99 162.44 72.52 159.14 71.04 156.54 
M 151.99 143.56 152.24 147.29 151.21 150.93 150.15 154.39 148.73 157.69 147.09 160.74 145.86 163.57 145.79 166.2 145.96 168.84 149.41 178.3 149.72 182.36 139.32 182.56 131.89 182.33 124.64 181.49 117.35 180.08 110.27 178.03 103.29 175.51 96.94 172.39 
M 79.58 168.26 71.33 156.92 65.64 149.94 63.14 146.4 63.27 144.21 65.11 142.92 67.3 143.49 70.89 149 74.33 154.71 79.47 164.91 82.61 170.65 
M 81.92 171.26 74.01 167.04 60.63 159.35 58.81 157.97 58.38 155.77 59.75 154.03 61.96 153.96 63.84 155.26 70.85 160.96 74.28 164.02 82.49 170.52 
M 101.91 155.68 100.47 150.22 100.88 144.59 103.1 139.4 106.88 135.21 111.82 132.47 117.38 131.49 122.95 132.36 127.94 135 131.81 139.11 134.13 144.26 134.65 149.88 133.32 155.37 130.28 160.12 125.86 163.63 120.54 165.52 114.89 165.58 109.53 163.8 105.05 160.37 101.91 155.68 
M 101.7 155.2 101.01 153.19 100.58 151.11 100.4 148.99 100.49 146.87 100.84 144.77 101.45 142.73 102.3 140.79 103.39 138.96 104.69 137.28 106.2 135.78 107.87 134.48 109.7 133.39 111.64 132.53 113.68 131.93 115.78 131.58 117.9 131.49 120.02 131.67 122.1 132.1 124.11 132.79 
M 103.35 154.52 102.73 152.72 102.34 150.85 102.18 148.95 102.26 147.05 102.81 144.36 
M 103.22 143.11 103.88 141.6 104.86 139.96 106.03 138.46 107.37 137.11 108.88 135.94 110.51 134.97 112.26 134.2 114.08 133.66 115.96 133.35 117.86 133.27 119.76 133.43 121.63 133.82 123.43 134.43 
M 104.99 153.84 104.44 152.24 104.1 150.59 103.96 148.92 104.03 147.23 104.45 145.08 
M 108.04 138.96 109.88 137.41 111.33 136.55 112.87 135.87 114.48 135.39 116.14 135.12 117.83 135.05 119.51 135.19 121.15 135.53 122.75 136.08 
M 106.63 153.16 105.86 150.34 105.74 148.88 105.8 147.42 106.1 145.77 
M 109.33 140.18 110.88 138.88 112.14 138.13 114.88 137.13 117.79 136.82 119.25 136.94 122.07 137.72 
M 108.28 152.47 107.62 150.08 107.51 148.84 107.76 146.42 
M 110.49 141.52 111.89 140.35 112.95 139.71 115.28 138.86 117.75 138.6 118.99 138.7 121.39 139.36 
M 111.29 151.45 110.72 149.27 110.9 146.98 
M 112.82 143.77 113.28 143.26 115.25 142.17 117.48 141.78 119.71 142.13 121.71 143.18 123.25 144.83 124.18 146.88 124.39 149.13 123.86 151.33 122.64 153.23 120.87 154.63 118.74 155.39 116.48 155.41 114.34 154.7 112.55 153.33 111.29 151.45 
M 113.32 143.24 112.97 143.94 
M 111.38 147.12 110.79 148.3 
M 115.16 142.22 113.81 144.92 
M 112.54 147.47 111.03 150.48 
M 116.64 141.92 114.71 145.8 
M 113.72 147.78 111.63 151.96 
M 118.01 141.86 115.63 146.63 
M 114.91 148.06 112.39 153.1 
M 119.25 142.05 116.58 147.39 
M 116.12 148.3 113.32 153.92 
M 120.37 142.47 117.54 148.14 
M 117.35 148.51 114.28 154.65 
M 121.43 143.03 115.41 155.06 
M 122.34 143.86 116.57 155.41 
M 123.22 144.79 117.91 155.4 
M 123.86 146.17 119.36 155.17 
M 124.28 147.99 121.02 154.52 
M 73.94 161.03 74.96 162.05 
M 66.44 142.87 66.98 143.41 
M 67.77 144.2 70.57 147 
M 70.61 141.7 74.92 146.01 
M 75 140.75 78.46 144.22 
M 79.29 139.71 82.05 142.47 
M 83.49 138.58 86.22 141.3 
M 87.65 137.4 91.48 141.22 
M 91.77 136.18 94.58 139 
M 96.02 135.1 99.16 138.24 
M 100.34 134.09 104.31 138.05 
M 104.84 133.24 106.84 135.25 
M 109.29 132.37 110.26 133.33 
M 113.7 131.43 114.29 132.03 
M 118.17 130.57 119.4 131.8 
M 122.72 129.78 126.88 133.95 
M 127.27 129 131.15 132.88 
M 131.83 128.23 137.09 133.48 
M 136.42 127.48 141.05 132.11 
M 141.02 126.74 143.89 129.61 
M 145.6 125.99 148.67 129.06 
M 150.15 125.2 154.72 129.77 
M 154.59 124.31 158.83 128.55 
M 159.19 123.57 163.14 127.53 
M 163.94 122.99 168.49 127.54 
M 168.86 122.58 172.4 126.11 
M 72.86 152.21 72.84 151.39 72.54 150.31 71.93 149.86 71.39 149.82 
M 118.26 171.1 116.35 172.5 114.16 175.4 112.97 176.37 
M 146.51 141.78 141.81 141.21 
M 100.37 163.43 98.88 162.86 97.33 161.21 96.84 159.34 96.97 157.71 
M 146.47 178.38 145.06 177.41 144.19 176.12 142.52 175.42 140.71 174.4 140.13 174.27 
M 162.47 200.4 162.12 200.25 161.86 200.6 
M 101.44 173.64 100.21 173.14 99.44 173.05 98.84 173.39 97.98 174.35 
M 160.41 158.27 159.93 155.81 159.64 152.65 157.81 147.67 
M 112.31 185.78 109.13 186.17 107.15 186.17 
M 117.26 184.12 118.33 181.97 118.88 179.49 118.87 178.77 118.43 177.94 118.2 176.8 
M 161.81 124.15 161.71 123.2 
M 146.7 134.36 146.05 134.69 144.69 135.02 142.41 136.72 
M 142.4 129.99 140.29 129.15 140.1 128.71 
M 169.14 127.84 166.56 122.75 
M 141.26 141.44 140.47 144.57 140.36 145.67 
M 134.84 187.72 134.1 186.83 133.81 186.18 133.86 185.69 134.44 184.98 135.28 184.47 136.48 184.14 139.79 183.67 
M 116.27 168.04 114.97 168.94 114.21 170.04 113.8 171.64 113.53 174.29 113.25 175.13 
M 148.93 133.48 148.6 133.25 148.11 132.24 146.69 131.6 
M 128.87 129.1 128.41 128.81 
M 80.52 147.02 78.89 145.78 78.11 144.88 77.65 144.53 77.05 144.37 75.76 144.57 73.01 146.42 
M 84.39 163.16 84.06 161.19 83.69 160.31 83.14 159.5 82.45 158.82 81.79 158.4 81.2 158.26 80.19 158.32 79.54 158.65 79.08 159.58 
M 158.32 199.08 156.13 198.75 152.97 199.37 151.51 199.34 150.64 198.98 149.87 198.42 
M 153.4 200.04 152.56 200.08 151.32 199.78 149.86 198.46 149.59 197.71 
M 142.7 202.13 142.74 202.04 
M 101.59 186.08 102.81 185.06 104.38 183.03 104.88 182.62 106.11 182.41 
M 118.85 194.42 117.8 192.51 117.84 191.64 118.15 190.81 120.69 188.73 121.33 188.06 121.8 187.25 122.14 186.42 122.51 184.07 122.05 182.31 
M 169.74 143.49 171.17 143.8 173.98 143.59 175.73 142.56 176.21 142.05 176.47 141.48 
M 93.46 148.51 93.88 150.37 93.87 152.58 93.68 153.51 92.81 155.27 92.53 156.86 
M 161.42 186.46 161.63 189.07 160.75 191.41 160.28 191.92 
M 149.66 190.33 148.48 190.06 145.82 191 143.23 191.07 142.27 190.74 141.91 190.4 141.42 189.36 
M 132.57 168.8 132.39 167.74 132.68 167.13 133.2 166.57 135.05 165.42 
M 127.9 173.24 126.21 170.63 125.66 170.09 124.12 169.49 121.4 169.5 120.56 169.74 117.83 171.25 
M 86.34 156.44 85.06 156.21 79.97 155.99 78.9 155.65 78.09 155.01 
M 67.92 163.47 72.65 167.86 76.67 171.21 80.73 174.29 84.98 177.13 89.45 179.74 98.69 184.41 
M 169.8 122.42 178.94 131.57 
M 174.48 119.99 180.84 126.35 
M 179.15 117.55 187.55 125.95 
M 183.84 115.12 194.49 125.77 
M 188.66 112.83 197.46 121.63 
M 193.6 110.65 203.52 120.58 
M 198.64 108.59 207.57 117.52 
M 203.75 106.58 209.3 112.14 
M 208.81 104.52 215.07 110.78 
M 214.16 102.76 222.78 111.39 
M 219.79 101.28 225.49 106.98 
M 225.7 100.07 233.31 107.69 
M 232.09 99.35 237.59 104.85 
M 239.02 99.17 248.24 108.39 
M 245.96 99 255.43 108.46 
M 253.71 99.63 264.26 110.18 
M 263.72 102.53 272.54 111.34 
M 275.69 107.38 284.84 116.53 
M 287.68 112.26 293.87 118.45 
M 301.72 119.18 311.61 129.07 
M 316.8 127.15 325.09 135.44 
M 331.15 134.39 339.51 142.74 
M 222.92 98.47 223.95 100.53 
M 226.41 97.46 227.57 99.78 
M 225.86 80.34 226.25 81.13 
M 230.07 72.76 234.84 82.3 
M 233.57 71.75 239.93 84.48 
M 237.07 70.75 243.43 83.47 
M 246.61 89.83 247.4 91.42 
M 248.2 93.01 249 94.61 
M 235.39 59.4 235.79 60.19 
M 241.36 71.33 243.75 76.1 
M 248.52 85.65 254.08 96.78 
M 255.08 98.77 255.67 99.96 
M 237.3 55.21 238.5 57.6 
M 252.02 84.64 256.79 94.18 
M 260.04 100.68 260.5 101.61 
M 240.4 53.41 243.58 59.77 
M 249.15 70.91 249.95 72.5 
M 252.33 77.27 253.13 78.86 
M 257.11 86.82 257.9 88.41 
M 243.9 52.4 248.61 61.83 
"/></svg>