<svg xmlns="http://www.w3.org/2000/svg" width="520" height="320"><rect x="0" y="0" width="520" height="320" fill="floralwhite"/><rect x="10" y="10" width="500" height="300" stroke="black" stroke-width="1" fill="none"/><path stroke="black" stroke-width="1" fill="none" stroke-linecap="round" stroke-linejoin="round" d="
M 163.64 92.48 180.36 84.62 188.72 81.04 197.08 77.79 213.8 71.81 222.16 69.4 230.52 67.62 238.88 66.28 263.96 65.63 272.32 66.79 280.68 69.09 289.04 71.92 314.13 81.24 322.49 84.71 347.57 96.75 373.4 108.41 
M 373.4 181.4 355.93 191.08 347.57 195.52 330.85 203.42 322.49 206.76 305.77 212.94 297.41 215.21 280.68 218.98 272.32 219.92 263.96 220.55 255.6 220.28 238.88 220.5 230.52 219.23 222.16 217.16 213.8 214.74 205.44 212.07 197.08 209.75 188.72 207.01 180.36 203.5 172 199.42 
M 373.4 131.27 367.33 130.68 361.28 129.82 321.61 121.86 315.27 121.16 302.88 120.28 295.97 118.86 
M 293.23 118.19 286.19 116.6 272.51 114.58 269.83 114.42 264.36 114.45 251.74 115.65 
M 248.91 115.95 238.63 117.42 234.13 117.81 
M 225.49 117.54 219.86 117.14 
M 216.94 117.08 210.93 117.45 
M 201.97 118.56 199.01 118.97 
M 189.86 120.39 186.71 120.96 
M 183.61 121.52 180.6 122.06 
M 177.74 122.54 174.95 122.93 
M 174.91 187.85 176.06 189.29 
M 176.17 183.69 180.68 189.43 
M 175.19 176.35 176.32 177.86 
M 180.82 183.79 185.45 189.54 
M 187.78 192.26 190.1 194.83 
M 181.47 178.59 186.81 185.36 192.6 192.33 
M 194.88 194.9 199.4 199.57 
M 176.27 165.32 177.61 167.27 
M 187.94 180.73 197.37 192.44 
M 175.47 157.58 177.61 160.86 
M 197.65 187.05 203.15 193.87 206.5 197.39 
M 175.74 151.5 177.64 154.4 
M 198.9 182.64 202.29 187.23 
M 206.67 192.65 208.91 195.09 
M 215.09 201.51 218.59 205.15 
M 175.63 144.81 181.79 154.26 
M 204.97 185.04 206.74 187.43 
M 211.21 192.71 217.5 199.52 
M 219.32 201.55 221.08 203.47 
M 175.64 137.8 178.92 143.36 185.89 154.13 
M 210.07 186.36 211.08 187.6 
M 221.79 199.63 223.62 201.73 
M 227.13 205.52 228.88 207.22 
M 230.65 208.8 232.47 210.26 
M 174.55 128.11 174.76 128.51 
M 176.47 131.79 181.2 140.08 186.64 148.59 
M 188.85 152.1 190.03 154 
M 217.77 190.33 220.05 192.83 
M 222.23 195.27 224.27 197.63 
M 226.18 199.88 228.01 201.98 
M 229.78 203.93 231.52 205.71 
M 171.96 115.39 179.76 130.15 183.61 136.79 186.79 141.85 
M 188.98 145.26 194.32 153.86 
M 218.44 186.16 219.89 187.81 
M 226.71 195.51 230.63 200.13 
M 234.19 204.06 237.62 207.28 
M 244.9 211.99 246.03 212.53 
M 167.32 100.4 171.6 107.35 178.58 120.39 188.16 136.85 198.8 153.71 
M 223.41 186.74 224.48 187.97 
M 226.84 190.67 231.22 195.76 
M 236.83 202.24 238.5 203.97 
M 165.41 91.66 170.4 98.78 174.67 105.76 
M 176.4 108.84 180.9 116.99 186.83 126.64 191.74 135.2 
M 193.8 138.67 195.95 142.12 
M 198.14 145.57 200.38 149.06 
M 229.16 188.21 239.34 200.15 
M 168.52 90.2 171.03 93.65 174.34 98.68 183.22 113.53 188.43 121.58 
M 192.44 128.25 194.34 131.77 
M 196.27 135.32 199.36 140.54 203.84 147.37 208.36 153.4 
M 235.94 190.99 239.95 195.75 
M 241.67 197.79 245.51 201.97 247.98 204.06 
M 251.58 206.62 253.42 207.8 
M 255.21 208.94 256.94 210.05 
M 171.52 88.8 176.64 96.11 185.48 110.12 192 119.8 196.02 126.54 201.69 137.18 206.04 143.95 209.84 149.07 
M 212.6 152.53 213.17 153.24 
M 238.15 188.33 240.23 190.83 
M 242.14 193.11 245.42 197.05 
M 246.92 198.75 248.47 200.32 
M 250.14 201.81 253.73 204.6 
M 174.39 87.45 178.95 93.71 196.5 119.8 200.44 126.64 206.1 137.16 208.23 140.55 211.89 145.57 
M 214.58 148.97 217.87 153.09 
M 241.82 187.31 245.97 192.36 
M 249.11 196.15 252.35 199.47 
M 254.12 201.03 257.69 204 
M 177.17 86.13 182.8 93.64 196.46 113.21 200.88 119.89 205.8 128.36 
M 207.67 131.85 210.59 137.08 211.69 138.76 
M 214.03 142.1 219.33 148.81 
M 246.45 187.29 253 195.31 
M 256.44 198.76 258.21 200.39 
M 179.89 84.84 190.23 98.24 193.16 102.33 
M 195.2 105.31 205.27 119.92 207.35 123.18 210.29 128.28 
M 212.2 131.76 215.23 136.95 217.57 140.29 221.52 145.23 
M 224.14 148.57 226.56 151.93 
M 251.6 187.91 254.58 191.7 257.14 194.61 
M 258.89 196.42 260.63 198.16 
M 182.59 83.66 194.42 98.24 196.42 100.93 211.83 123.16 216.85 131.67 
M 221.38 138.44 223.97 141.72 
M 226.55 145.01 230.05 149.99 231.65 152.64 
M 256.84 188.64 259.67 192.04 
M 261.42 194 264.82 197.66 
M 270.93 204.44 272.58 205.96 
M 185.25 82.52 190.79 89.29 196.63 95.86 200.82 101.16 216.36 123.22 220.45 129.97 222.68 133.35 230.34 143.18 231.46 144.83 
M 235.52 151.59 236.03 152.5 
M 268.85 197.21 270.31 199.03 
M 273.26 202.56 274.87 204.21 
M 187.96 81.37 192.81 87.22 200.98 96.07 205.38 101.58 218.59 120.27 223.9 128.46 
M 226.26 131.72 232.76 139.76 235.06 143.09 240.28 152.36 
M 266.48 188.81 269.72 192.98 
M 284.78 208.71 286.43 209.87 
M 190.83 80.22 194.93 85.14 203.2 93.94 207.73 99.16 209.98 102.11 218.58 114.49 227.05 127.14 230.86 131.8 
M 233.52 134.9 237.27 139.74 239.44 143.15 244.43 152.22 
M 268.92 185.99 270.52 188.29 
M 272.03 190.48 273.49 192.61 
M 193.88 79.03 199.12 85.18 207.64 94.32 212.26 99.66 214.47 102.61 227.86 122.81 
M 230.12 125.87 236.64 133.35 239.22 136.52 241.58 139.91 243.69 143.38 248.49 152.09 
M 272.79 185.47 274.25 187.87 
M 277.05 192.55 278.47 194.8 
M 279.97 196.95 281.59 198.98 
M 291.51 207.6 293.05 208.69 
M 197 77.82 203.41 85.3 212.1 94.73 216.68 100.12 218.86 103.13 230.91 121.63 233.17 124.55 240.98 133.41 243.49 136.73 245.78 140.21 250.6 148.62 
M 276.58 185.54 277.76 187.75 
M 279.15 190.28 280.59 192.72 
M 282.13 195.02 283.8 197.18 
M 293.83 206.12 295.9 207.61 
M 200.21 76.7 207.79 85.47 218.86 97.76 221.13 100.67 223.3 103.8 233.15 118.9 237.57 124.45 242.68 130.27 245.24 133.53 248.76 138.74 
M 252.8 145.45 254.58 148.58 
M 256.37 151.63 256.49 151.83 
M 280.19 185.87 282.73 190.47 
M 287.92 197.32 289.87 199.26 
M 203.36 75.6 214.33 87.98 221.15 95.4 223.45 98.21 225.65 101.26 235.6 116.13 239.68 121.41 246.93 130.19 249.38 133.63 254.82 142.2 
M 256.65 145.32 258.41 148.34 
M 260.3 151.39 260.49 151.7 
M 286.59 190.61 288.37 193.03 
M 294.16 199.12 296.24 200.93 
M 206.47 74.5 224.77 94.27 
M 227 97.11 238.1 113.28 241.95 118.38 248.67 126.78 251.06 130.13 255.62 137.13 260.25 144.88 
M 262.11 147.92 264.17 151.07 
M 287.13 185.29 288.89 188.04 
M 209.55 73.37 213.44 77.11 224.02 87.89 228.52 92.9 230.62 95.76 236.6 104.84 240.54 110.35 250.52 123.42 255.05 130.05 258.24 135.09 
M 260.13 138.25 261.91 141.25 
M 263.75 144.26 265.78 147.41 
M 268.01 150.66 268.55 151.44 
M 291.19 185.28 293 187.92 
M 212.66 72.23 216.05 75.13 226.81 85.35 229.06 87.64 231.2 90.13 233.21 92.87 238.91 101.76 245.7 111.16 
M 247.59 113.65 254.59 123.23 259.94 131.36 
M 261.81 134.53 263.55 137.57 
M 265.35 140.56 267.34 143.66 
M 269.53 146.91 271.85 150.22 
M 293.51 182.46 297.18 187.71 
M 304.91 196.66 307.05 198.74 
M 216.02 71.17 220.69 74.95 229.5 82.87 231.76 85.1 233.83 87.48 235.75 90.08 243.08 101.45 258.77 122.94 262.83 129.27 265.4 133.93 
M 269.04 140.03 271.14 143.23 
M 273.41 146.56 275.81 149.91 
M 297.76 182.46 301.4 187.53 
M 305.16 192.21 307.22 194.46 
M 219.5 70.16 223.14 72.93 229.65 78.44 234.23 82.69 236.32 85.02 238.17 87.49 243.33 95.67 245.21 98.38 253.96 110.25 
M 255.82 112.84 261.93 121.08 
M 267.51 130.36 270.03 135.03 272.89 139.77 
M 277.39 146.41 279.9 149.75 
M 309.69 192.13 314.21 196.47 
M 222.96 69.22 227.52 72.64 231.92 76.26 236.47 80.42 238.56 82.69 240.42 85.09 245.39 92.85 247.24 95.46 253.29 103.18 258.88 111.16 261.91 115.07 
M 264.02 117.79 267.11 122.21 268.92 125.31 273.9 134.87 277.83 141.37 280.18 144.71 285.06 150.9 
M 226.55 68.47 229.72 70.76 234.08 74.24 238.57 78.26 240.64 80.44 242.52 82.76 247.44 90.16 249.25 92.64 255.33 100.11 260.88 108.22 268.1 117.44 
M 270.1 120.38 271.94 123.48 
M 273.64 126.67 276.96 133.24 
M 278.77 136.55 280.8 139.81 
M 285.64 146.34 288.27 149.61 
M 310.61 182.38 312.6 184.81 
M 230.05 67.72 234.03 70.63 238.45 74.2 242.69 78.22 244.58 80.43 249.58 87.51 252.34 91.02 
M 254.32 93.38 257.31 97.07 259.22 99.7 264.72 107.92 271.01 115.73 273.03 118.61 276.69 124.94 279.22 129.94 
M 287.35 143.04 289.94 146.31 
M 312.93 179.64 314.95 182.15 
M 317.09 184.53 319.32 186.83 
M 233.64 67.12 240.61 72.25 244.8 75.99 246.7 78.07 251.87 84.82 259.36 94.01 261.23 96.6 266.63 104.96 274.9 115.5 277.87 120.05 
M 279.73 123.27 281.52 126.6 
M 283.3 129.98 286.1 135 289.4 139.82 
M 291.86 143.06 295.6 148.04 297.24 150.5 
M 237.23 66.55 242.85 70.35 247.01 73.77 250.73 77.75 256.93 85.27 
M 258.76 87.45 261.54 90.92 263.36 93.46 268.67 101.88 270.55 104.65 273.59 108.53 
M 275.68 111.14 277.77 113.9 
M 279.83 116.87 282.84 121.59 285.7 126.58 
M 289.58 133.34 292.91 138.28 296.54 143.16 
M 298.85 146.47 301.29 150.37 
M 327.81 186.3 330.02 188.73 
M 241.41 66.2 247.24 69.98 251.2 73.34 254.87 77.21 262.04 85.57 265.6 90.34 272.62 101.45 280.72 112.19 286 119.93 
M 290.02 126.58 292.04 130.02 
M 296.57 136.77 300.1 141.63 302.27 144.9 305.42 150.24 
M 321.28 173.43 323.23 176.1 
M 246.17 66.03 249.52 68.06 251.54 69.5 255.37 72.79 260.87 78.56 265.32 83.81 
M 267.05 86.12 274.79 98.19 283.77 110.48 
M 285.94 113.54 289.18 118.29 295.38 128.45 301.3 136.88 
M 303.54 140.09 305.59 143.3 
M 333.82 183.54 336.03 186.14 
M 251.19 65.95 253.76 67.54 257.65 70.52 261.4 74.04 266.81 79.98 270.2 84.53 277.07 95.02 285.82 107.28 
M 287.97 110.35 291.19 115.12 297.43 125.16 299.73 128.6 305.71 136.91 
M 307.81 140.05 313.45 149.09 
M 256.14 65.88 259.88 68.45 261.81 70.02 265.54 73.51 269.11 77.46 274.23 84.37 289.99 107.27 
M 292.08 110.45 301.59 125.27 308.81 135.21 315.64 145.68 
M 317.51 148.48 318.41 149.81 
M 342.23 183.97 344.49 186.82 
M 260.8 65.73 264.02 68.02 267.79 71.32 269.6 73.16 273.1 77.27 278.37 84.35 287.18 96.85 292.01 104.31 
M 294.04 107.49 303.46 121.93 307.05 126.89 
M 309.49 130.15 312.91 134.93 317.81 142.4 
M 335.83 169.57 339.98 175.66 
M 265.66 65.87 269.97 69.33 273.59 73.02 278.94 79.57 285.18 88.03 
M 286.91 90.44 289.5 94.16 294.08 101.46 
M 298.05 107.76 305.52 118.6 313.8 129.85 
M 315.96 133.02 317.99 136.13 
M 321.95 142.16 325.87 148 
M 340.1 169.82 342.15 172.97 
M 270.96 66.6 273.96 69.24 275.8 71.11 281.24 77.41 288.4 86.73 291.77 91.57 294.38 95.68 
M 296.2 98.66 301.09 106.38 304.29 110.85 
M 306.54 113.83 315.98 126.31 
M 318.16 129.53 320.2 132.74 
M 324.23 139.06 328.25 145.08 
M 330.23 148.09 331.09 149.4 
M 342.29 167.04 346.35 173.38 
M 348.37 176.49 350.46 179.57 
M 276.46 67.93 279.85 71.32 282.58 74.37 
M 284.38 76.46 286.17 78.61 
M 287.94 80.82 293.1 87.77 
M 294.79 90.27 303.2 103.36 307.54 109.21 311.11 113.58 
M 315.97 119.64 319.46 124.42 326.56 135.85 
M 328.62 138.99 332.68 145.16 
M 344.31 163.94 344.51 164.26 
M 281.8 69.47 287.45 75.5 292.6 81.79 297.73 88.84 305.42 100.26 310.97 107.53 
M 313.37 110.41 317.07 114.77 320.66 119.41 
M 322.88 122.65 330.01 134.18 335.14 142.12 
M 339.12 148.62 339.42 149.13 
M 348.75 164.69 350.7 167.87 
M 352.65 171.02 354.62 174.14 
M 356.64 177.25 358.75 180.38 
M 287.42 71.37 291.21 75.47 297.99 83.78 312.12 102.97 321.72 114.61 325.17 119.36 
M 327.38 122.67 338.64 140.65 343.52 149 
M 354.88 168.26 356.8 171.38 
M 293.13 73.49 301.88 83.54 309.01 92.62 
M 311.19 95.46 317.95 104.23 
M 322.65 110.1 327.41 116.23 
M 329.76 119.49 334.17 126.16 
M 336.2 129.44 338.18 132.67 
M 340.15 135.94 344.11 142.68 
M 298.92 75.69 306.08 83.34 310.27 88.3 316.93 96.69 323.62 105.67 332.07 116.42 
M 338.88 126.42 343.74 134.61 348.49 143.18 
M 305.69 78.21 310.45 83.13 317.02 90.8 321.5 96.58 328.04 105.63 334.25 113.39 
M 336.83 116.71 340.44 121.78 342.59 125.11 344.56 128.4 349.11 136.8 
M 352.78 143.75 354.64 147.18 
M 360.18 156.97 361.93 160.09 
M 365.54 166.34 367.47 169.45 
M 312.95 80.82 317.12 85.35 321.55 90.7 325.95 96.54 330.18 102.53 333.69 107.12 
M 338.97 113.63 342.88 118.74 345.16 122.13 348.11 127.18 
M 349.91 130.54 357.04 144.31 
M 320.43 83.86 326.06 90.64 336.94 105.55 345.08 115.65 347.53 119.11 350.61 124.29 
M 352.46 127.71 357.72 137.94 
M 361.31 144.8 363.25 148.35 
M 365.66 152.8 369.28 159.56 372 164.11 
M 328.24 87.49 332.78 93.33 339.11 102.45 347.11 112.57 349.69 116.07 352.99 121.34 
M 354.93 124.82 363.77 141.79 
M 365.5 145.14 367.12 148.23 
M 368.75 151.31 369.03 151.86 
M 336.03 91.27 343.89 102.72 351.77 113 354.19 116.53 357.36 121.83 
M 359.3 125.31 362.95 132.09 
M 364.65 135.4 369.59 145.3 
M 373.17 152.13 373.4 152.55 
M 342.9 94.56 346.42 99.79 353.96 109.93 358.74 116.96 364.79 127.4 366.55 130.73 370.42 138.77 
M 372.01 142.01 373.4 144.72 
M 349.62 97.67 361.17 113.79 366.58 122.52 
M 371.73 132.46 373.14 135.6 
M 356.6 100.81 364.84 112.3 
M 367.13 115.76 371.35 122.68 
M 373.16 126.06 373.4 126.53 
M 363.85 104.13 368.51 110.8 373.4 118.17 
M 370.59 107.16 373.4 111.22 
M 164.57 92.05 163.84 92.89 
M 172 88.58 166.31 94.93 
M 179.55 85 171.56 93.66 166.97 99.11 
M 185.96 82.22 176.63 92.57 
M 174.46 94.93 171.21 98.76 168.02 102.98 
M 192.6 79.53 189.09 82.97 177.28 96.1 173.02 101.42 169.2 106.89 
M 199.65 76.89 192.94 83.03 181.16 95.99 176.9 101.28 173.85 105.78 
M 171.79 108.91 170.48 110.88 
M 207.28 74.2 199.28 80.95 192.89 87.22 182.93 98.4 180.81 101.13 177.76 105.65 
M 175.73 108.85 171.84 114.94 
M 215.59 71.3 208.22 77.04 200.15 84.14 
M 198.02 86.22 193.01 91.41 186.95 98.29 182.74 103.94 177.63 112.07 
M 175.56 115.42 173.02 119.3 
M 222.37 69.35 212.7 77.11 207.91 81.15 203.34 85.29 197.15 91.46 193.12 95.81 188.96 100.9 184.78 106.94 181.67 111.94 
M 179.57 115.36 175.29 122.01 
M 227.69 68.22 212.4 81.25 207.71 85.46 199.4 93.7 196.31 97.07 
M 192.12 102.32 187.99 108.45 
M 183.79 115.18 179.37 121.98 
M 177.16 125.27 174.96 128.52 
M 233.01 67.22 228.56 70.82 214.55 83.46 209.94 87.78 204.79 92.96 
M 202.74 95.05 199.6 98.42 196.39 102.38 
M 194.31 105.3 187.17 116.68 181.38 125.18 
M 179.07 128.51 176.81 131.79 
M 238.62 66.32 234.91 68.98 232.85 70.64 214.42 87.98 204.09 98.78 201.89 101.25 198.64 105.43 
M 196.65 108.43 194.72 111.57 
M 192.74 114.84 189.49 119.88 178.78 135.09 
M 243 66.14 239.33 68.89 235.2 72.38 226.75 80.78 216.77 90.38 206.48 101.7 204.22 104.36 201.05 108.65 
M 199.09 111.7 197.16 114.87 
M 192.92 121.44 183.16 135.1 
M 180.89 138.42 176.69 144.99 
M 247.12 66 241.65 70.42 237.59 74.22 229.24 82.88 221.59 90.41 218.18 93.98 
M 216.13 96.28 206.63 107.57 203.53 111.92 
M 201.54 115.01 199.52 118.22 
M 197.39 121.49 195.09 124.81 
M 192.65 128.24 187.71 135.13 
M 183.13 141.77 179.03 148.37 
M 250.91 65.95 246.06 70.09 241.91 74.09 233.99 82.69 224.09 92.91 218.59 99.03 
M 212.28 106.72 208.02 112.2 
M 203.91 118.3 200.69 123.21 194.72 131.77 
M 192.29 135.2 187.68 141.86 
M 183.41 148.48 180.06 154.32 
M 254.53 65.91 250.39 69.63 246.17 73.84 237.3 83.86 
M 235.09 86.25 228.96 92.9 222.04 100.79 217.76 105.88 212.5 112.54 
M 210.41 115.36 206.19 121.56 
M 201.58 128.39 192.27 141.99 
M 187.86 148.62 185.8 151.96 
M 177.61 166.42 175.19 170.26 
M 258.23 65.81 254.59 69.1 248.26 75.75 233.63 92.87 216.92 112.91 
M 214.86 115.61 208.39 124.87 
M 206.02 128.35 203.61 131.9 
M 199 138.83 194.61 145.45 
M 262.01 65.69 256.67 70.65 250.22 77.8 240.11 90.14 228.83 104.57 222.27 112.22 219.23 116 
M 215.13 121.64 210.5 128.28 
M 205.67 135.41 203.43 138.88 
M 201.3 142.25 196.94 148.96 
M 265.51 65.85 260.83 70.13 256.55 74.74 249.96 82.57 244.89 88.94 
M 242.92 91.55 235.49 101.87 231.08 107.69 224.42 115.33 222.43 117.83 210.14 135.33 
M 207.87 138.85 203.71 145.66 
M 199.39 152.5 198.61 153.72 
M 268.72 66.29 264.96 69.69 260.73 74.13 251.8 84.82 247.65 90.15 236.56 106.3 
M 234.35 109.21 226.51 118.41 217.21 131.69 
M 214.75 135.22 211.29 140.49 204.24 152.58 
M 272.01 66.75 269.03 69.38 265.93 72.49 
M 263.8 74.8 258.23 81.38 251.6 89.83 244.89 99.85 
M 242.9 102.93 240.84 106.04 
M 238.69 109.07 235.25 113.4 230.65 118.82 228.64 121.47 223.04 130.04 219.53 135.11 
M 217.15 138.6 212.95 145.54 
M 211.08 149.04 209.17 152.57 
M 275.05 67.54 272.01 70.18 
M 269.98 72.16 264.67 77.96 260.18 83.45 255.74 89.24 251.76 95.02 244.01 107.18 241.86 110.22 236.14 117.47 
M 233.93 120.28 231.93 123.09 
M 230.14 125.89 228.44 128.75 
M 226.58 131.77 224.46 135.02 
M 222.15 138.42 219.85 141.89 
M 217.74 145.39 215.84 148.94 
M 214.04 152.5 213.67 153.23 
M 278.25 68.42 275 71.08 270.86 75.16 264.38 82.71 259.92 88.52 257.82 91.52 249.16 105.11 
M 247.11 108.21 237.27 121.58 234.48 125.98 
M 232.83 128.88 228.38 136.56 224.97 141.68 
M 222.71 145.19 221.62 146.96 218.44 153.07 
M 281.45 69.35 279.05 71.27 274.87 75.08 272.74 77.27 268.46 82.18 264.07 87.82 261.92 90.86 255.19 101.55 
M 253.26 104.64 247.02 113.72 
M 244.86 116.69 241.69 121.22 239.75 124.31 237.23 128.85 
M 235.67 131.84 233.21 136.47 227.74 144.97 
M 225.48 148.51 223.43 152.14 
M 284.48 70.38 281.03 73.29 276.8 77.27 272.45 81.95 270.28 84.52 268.13 87.31 263.87 93.4 256.27 105.79 251.18 113.26 
M 249.11 116.21 246.05 120.76 244.14 123.93 241.6 128.72 
M 240.03 131.84 238.46 134.93 
M 234.8 141.41 229.06 150.04 227.44 152.78 
M 196.44 197.31 194.17 199.53 
M 287.4 71.37 280.88 77.4 276.53 81.89 272.11 87.05 268.89 91.46 
M 266.8 94.55 258.23 108.45 252.21 117.34 249.34 121.97 
M 247.55 125.22 244.33 131.85 
M 242.76 135.06 239.19 141.47 
M 237.08 144.78 231.81 152.63 
M 210.71 186.32 209.77 187.56 
M 290.15 72.35 282.82 79.66 278.45 84.36 273.97 89.69 270.74 94.24 
M 268.67 97.39 260.26 111.04 254.36 120.13 251.69 125.01 
M 250.07 128.42 248.52 131.88 
M 245.29 138.5 242.47 143.3 236.25 152.49 
M 215.29 186.1 214.12 187.7 
M 292.71 73.33 280.38 86.87 275.85 92.35 271.6 98.61 261.48 115.11 
M 259.55 118.2 257.6 121.45 
M 255.76 124.83 249.4 138.76 
M 245.6 145.17 241.18 151.67 
M 219.73 186.24 214.66 192.75 
M 295.22 74.29 278.87 93.49 
M 276.68 96.51 273.57 101.31 261.83 121.08 
M 258.12 128.08 253.4 138.89 
M 251.65 142.2 247.6 148.56 
M 245.43 151.79 245.15 152.2 
M 214.9 197.37 210.38 201.56 
M 297.75 75.26 288.62 86.72 281.88 94.51 279.68 97.47 277.59 100.65 271.23 111.52 
M 269.57 114.42 266 120.71 
M 264.04 124.13 261.15 129.48 257.19 138.7 
M 255.55 142.17 254.68 143.86 251.67 148.64 
M 249.57 151.85 249.43 152.06 
M 227.76 188.11 225.65 190.6 
M 221.41 195.23 219.23 197.41 
M 300.45 76.26 295.28 82.8 
M 293.42 85.3 290.46 89.09 283.82 97.02 281.69 100.05 277.79 106.52 264.06 130.81 
M 260.68 138.16 258.36 143.54 257.47 145.23 
M 231.76 189.05 230.25 190.82 
M 225.87 195.46 223.6 197.59 
M 221.3 199.61 219 201.54 
M 303.31 77.32 299.93 81.32 294.29 88.97 288.02 96.84 285.87 99.7 283.82 102.8 280.02 109.21 272.97 121.8 266.81 132.08 264.93 135.67 262.55 141.11 
M 261.02 144.72 259.36 148.21 
M 237.29 187.78 234.78 190.97 
M 225.68 199.85 223.28 201.71 
M 306.34 78.44 301.96 83.53 300.01 86.12 290.04 99.7 286.06 105.71 276.84 121.67 268.63 135.15 266.82 138.64 264.53 144.09 
M 263.04 147.75 261.22 151.68 
M 241.64 187.31 239.14 190.91 
M 234.86 195.88 232.53 198.08 
M 309.48 79.57 306.16 83.33 302.05 88.67 294.08 99.95 290.22 105.73 280.79 121.61 272.5 134.9 270.62 138.23 268.94 141.7 266.74 147.25 
M 265.3 150.93 265.04 151.55 
M 312.67 80.72 308.4 85.73 302.11 94.37 294.27 105.99 285.89 119.93 
M 283.85 123.24 276.39 134.88 273.64 139.75 
M 272.03 143.18 268.82 151.43 
M 241.08 197.87 237.72 201.28 236.49 202.24 
M 229.01 207.23 226.59 208.65 
M 315.89 81.97 312.85 85.52 308.51 91.19 301.19 101.86 
M 299.24 104.82 296.45 109.18 289.15 121.53 278.42 138.15 276.69 141.36 273.02 150.12 
M 251.01 188.7 248.92 191.67 
M 246.89 194.5 244.87 197.18 
M 319.1 83.31 315.21 88.08 310.84 93.98 304.37 103.32 300.49 109.37 291.29 124.91 282.49 138.24 280.69 141.42 279.15 144.7 276.48 151.18 
M 254.61 188.5 252.83 190.81 
M 250.66 193.61 248.55 196.29 
M 242.31 203.49 240.08 205.49 
M 237.73 207.27 235.32 208.84 
M 322.38 84.67 317.61 90.78 306.67 106.24 300.93 115.48 293.47 128.37 290.1 133.35 
M 287.85 136.61 284.85 141.44 283.26 144.71 280.59 151.05 
M 250.23 197.95 248.16 200.39 
M 244.04 204.87 242.98 205.9 239.6 208.6 
M 325.61 86.22 320.02 93.62 309.12 109.13 305.11 115.43 300.49 123.58 
M 298.74 126.89 295.86 131.84 294.75 133.46 
M 292.5 136.67 289.25 141.4 287.52 144.66 285.34 149.65 
M 263.95 186.27 261.24 189.48 
M 328.87 87.79 324.51 93.58 318.06 102.72 309.6 115.22 305.56 121.89 300.42 131.97 298.42 135.22 295.07 139.92 
M 292.97 143.08 291.98 144.68 289.04 150.77 
M 268.27 185.59 263.16 191.58 
M 247.81 207.34 245.72 209.19 
M 332.18 89.4 329 93.46 317.44 110.22 
M 315.37 113.34 310.06 121.67 308.13 125.14 305.6 130.31 
M 303.91 133.66 303.03 135.31 300.98 138.48 296.58 144.78 293.31 150.63 
M 271.96 185.39 271.81 185.59 
M 269.63 188.4 267.36 191.06 
M 335.45 90.99 333.54 93.31 329.1 99.49 314.77 121.36 310.75 128.39 306.37 136.89 
M 304.4 140.1 299.01 148.12 297.6 150.49 
M 275.28 185.45 273.43 187.93 
M 266.84 195.42 259.95 201.98 
M 251.83 209.5 248.35 212.28 
M 338.76 92.61 335.72 96.26 331.37 102.49 317.3 124.54 314.21 129.82 
M 306.56 143.28 302.26 149.82 
M 278.5 185.7 276.98 187.74 
M 263.95 201.54 261.75 203.53 
M 342.22 94.24 337.97 99.33 335.79 102.41 331.03 110.16 
M 329.12 113.18 319.64 127.76 311.69 141.41 306.21 150.21 
M 282.38 185.17 279.46 189.07 276.51 192.53 
M 274.48 194.72 272.36 196.87 
M 267.88 201.15 263.48 205.05 
M 345.82 95.93 342.7 99.53 340.4 102.51 338.38 105.59 332.8 114.87 322.94 129.33 
M 320.74 132.71 310.26 150.08 
M 288.08 182.56 284.05 187.95 
M 280.03 192.68 278.05 194.78 
M 273.9 198.81 265.19 206.52 
M 349.56 97.64 345.24 102.81 343.12 105.82 337.56 115.14 332.09 122.85 
M 329.74 126.03 326.21 130.96 321.81 137.54 314.05 149.96 
M 290.12 185.31 285.83 190.59 
M 277.61 198.82 275.51 200.69 
M 353.39 99.37 350.19 103.2 347.99 106.19 342.33 115.46 340.29 118.55 336.83 123.12 
M 334.4 126.19 330.74 130.94 327.26 135.84 
M 325.07 139.04 317.8 149.83 
M 296.5 182.49 294.27 185.25 
M 287.73 193.03 283.47 197.16 
M 272.97 205.94 270.86 207.61 
M 357.24 101.11 352.92 106.61 350.82 109.66 345.04 118.89 342.78 121.95 335.35 131 329.48 138.97 
M 327.26 142.08 321.72 149.71 
M 302.56 180.39 298.49 185.13 
M 294.05 190.41 291.88 192.92 
M 287.58 197.31 285.44 199.17 
M 361.05 102.85 355.64 110.07 349.58 119.32 347.41 122.33 341.27 129.71 
M 338.74 132.71 325.98 149.57 
M 307.28 179.82 305.03 182.48 
M 302.74 185.04 298.23 190.11 
M 293.93 195.02 290.74 198.3 287.54 201.04 
M 274.86 210.09 272.81 211.4 
M 364.81 104.57 360.49 110.42 351.81 122.82 349.53 125.76 342.09 134.47 330.55 149.42 
M 314.58 175.38 313.57 176.86 
M 309.3 182.42 298.14 194.71 
M 289.72 202.8 287.59 204.39 
M 368.57 106.25 356.13 123.34 351.48 129.16 344.2 137.84 338.35 145.41 
M 336.02 148.38 335.32 149.26 
M 315.7 179.48 313.62 182.23 
M 304.5 192.22 302.38 194.51 
M 300.31 196.74 298.26 198.89 
M 296.2 200.91 294.1 202.78 
M 372.29 107.92 365.46 117.38 360.56 123.8 348.61 138.34 340.17 149.1 
M 323.75 172.97 323.64 173.15 
M 321.73 176.23 318.92 180.58 315.88 184.61 
M 311.32 189.71 308.97 192.15 
M 304.57 196.66 302.54 198.75 
M 300.53 200.77 298.49 202.68 
M 296.41 204.47 293.21 206.9 289.95 208.98 
M 373.4 113.24 370.28 117.56 365.19 124.13 352.92 138.91 345.03 148.95 
M 328 172.39 321.25 182.96 319.33 185.6 316.07 189.45 
M 313.74 191.94 311.37 194.34 
M 306.87 198.74 304.82 200.73 
M 373.4 119.9 369.91 124.34 357.21 139.49 349.91 148.79 
M 334.67 168.48 333.95 169.56 
M 331.92 172.58 322.7 186.59 
M 316.23 194.14 313.84 196.47 
M 373.4 125.88 365.19 135.43 
M 362.73 138.47 354.76 148.63 
M 340.25 166.85 334.15 175.44 
M 330.38 181.01 326.88 186.34 
M 318.67 196.3 313.89 200.65 
M 311.62 202.62 309.47 204.44 
M 373.4 131.06 368.15 137.15 360.04 147.83 
M 347.8 162.87 337.4 176.91 332.74 183.54 
M 330.99 186.16 329.24 188.75 
M 327.41 191.3 325.44 193.79 
M 373.4 135.93 369.85 140.37 364.17 148.32 
M 353.51 161.51 352.99 162.15 
M 350.81 164.9 346.67 170.46 
M 342.65 175.91 340.67 178.51 
M 338.75 181.05 335.11 186.12 
M 333.35 188.66 329.7 193.71 
M 373.4 141.17 368.57 148.18 
M 365 153.15 363.99 154.41 
M 361.75 157.14 355.02 165.31 
M 352.89 168.08 346.83 176.33 
M 339.28 186.28 337.48 188.74 
M 373.4 147.27 372.89 148.04 
M 371.48 150.18 367 156.32 360.3 164.32 352.94 173.99 
M 349.07 179.39 343.53 186.69 
M 373.4 153.71 371.1 156.8 363.38 166.11 
M 361.24 168.82 355.11 177.11 
M 353.22 179.85 351.39 182.49 
M 345.98 189.6 344.49 191.45 
M 373.4 159.42 369.68 163.91 
M 367.54 166.57 363.33 171.96 
M 373.4 164.85 363.48 177.84 
M 371.88 172.69 367.73 178.22 
M 373.4 176.71 372.61 177.76 
M 195.75 78.04 197.08 77.79 
M 206.34 74.28 203.11 48.91 203.85 48.79 208.94 73.59 
M 216.98 70.64 214.83 38.85 215.58 38.77 219.63 70.13 
M 227.89 67.89 228.99 31.52 229.74 31.52 230.58 67.61 
M 239.01 66.07 244.36 30.49 245.11 30.59 241.7 66.19 
M 250.25 65.68 257.67 33.78 258.41 33.93 252.94 65.93 
M 261.5 65.28 273.28 30 274 30.21 264.19 65.66 
M 272.71 66.62 288.91 36.73 289.57 37.07 275.23 67.59 
M 283.55 69.69 297.38 50.7 298 51.12 285.97 70.88 
M 294.13 73.49 305.11 60.27 305.72 60.71 296.5 74.78 
M 304.7 77.42 305.77 78.24 
M 197.58 77.62 200.77 69.23 202.25 63.44 203.06 57.49 203.44 51.45 
M 204.37 51.29 208.78 49.18 211.27 47.26 213.3 44.81 215.05 42.03 
M 215.99 41.93 219.3 41.28 222.4 40.23 225.18 38.56 228.88 35.16 
M 229.82 35.16 233.01 35.87 236.16 36.14 239.26 35.71 243.83 34.05 
M 244.76 34.17 247.25 35.73 249.84 36.85 252.58 37.3 256.93 36.97 
M 257.86 37.15 261.26 37.28 264.55 36.97 267.67 35.99 272.1 33.52 
M 273.01 33.8 275.81 36 278.79 37.79 282.03 38.95 287.29 39.72 
M 288.13 40.15 289.66 44.99 291.25 47.85 293.44 50.35 296 52.6 
M 296.78 53.12 297.66 55.63 298.88 57.84 300.62 59.61 304.02 61.59 
M 304.77 62.15 303.95 65.7 303.58 69.23 303.89 72.73 305.39 77.95 
M 205.89 50.65 208.78 49.18 211.27 47.26 212.34 46.09 214.2 43.44 
M 207.55 55.7 209.76 54.57 211.67 53.1 212.49 52.2 213.92 50.17 
M 209.2 60.74 211.44 59.48 212.64 58.31 213.63 56.9 
M 217.66 41.63 220.89 40.82 222.4 40.23 225.18 38.56 227.68 36.36 
M 218.73 46.46 221.39 45.79 222.64 45.3 224.94 43.93 227 42.11 
M 219.8 51.28 222.88 50.37 224.69 49.29 226.32 47.86 
M 220.87 56.11 222.4 55.72 223.8 55.08 225.63 53.6 
M 231.42 35.55 234.59 36.08 237.72 36.01 239.26 35.71 242.31 34.69 
M 232.01 41.06 234.63 41.51 237.21 41.45 238.48 41.2 241 40.35 
M 232.6 46.58 235.68 46.96 237.7 46.69 239.68 46.02 
M 233.19 52.09 235.44 52.37 236.91 52.17 238.36 51.68 
M 246 34.98 248.53 36.36 249.84 36.85 252.58 37.3 255.46 37.16 
M 245.99 40.42 248.08 41.57 249.16 41.97 251.42 42.34 253.8 42.22 
M 245.98 45.87 247.63 46.77 249.36 47.29 252.14 47.28 
M 245.98 51.31 247.8 52.2 249.1 52.41 250.47 52.35 
M 259.57 37.25 262.93 37.2 264.55 36.97 267.67 35.99 270.65 34.42 
M 259.15 42.25 261.92 42.21 263.26 42.02 265.84 41.21 268.29 39.92 
M 258.73 47.24 261.97 47.06 264 46.43 265.93 45.41 
M 258.31 52.24 260.68 52.11 262.16 51.64 263.58 50.9 
M 274.4 34.93 277.27 36.97 278.79 37.79 282.03 38.95 285.5 39.54 
M 273.34 40.45 275.71 42.13 276.96 42.81 279.64 43.76 282.5 44.25 
M 272.28 45.96 275.13 47.82 277.24 48.57 279.5 48.96 
M 271.22 51.48 273.31 52.84 274.85 53.38 276.5 53.67 
M 288.57 41.81 289.66 44.99 291.25 47.85 292.28 49.14 294.69 51.49 
M 286.4 48.11 287.24 50.55 288.46 52.75 289.25 53.74 291.1 55.54 
M 284.24 54.42 285.2 56.91 286.22 58.33 287.5 59.58 
M 297.2 54.4 298.21 56.79 298.88 57.84 300.62 59.61 302.82 60.98 
M 294.66 60.69 295.75 62.93 296.88 64.07 298.31 64.97 
M 177.56 153.05 400.46 146.24 400.49 146.99 177.66 155.75 
M 177.64 156.05 374.1 160.84 374.09 161.59 177.59 158.74 
M 177.71 159.05 347.21 172.55 347.16 173.3 177.51 161.73 
M 177.78 162.05 320.04 181.36 319.94 182.1 177.44 164.72 
M 177.86 165.05 292.81 187.26 292.67 188 177.37 167.7 
M 177.93 168.06 265.76 190.27 265.59 190.99 177.3 170.68 
M 178 171.07 239.13 190.42 238.92 191.13 177.22 173.66 
M 178.07 174.09 213.14 187.76 212.89 188.46 177.15 176.63 
M 183.3 178.66 188.03 181.16 187.74 181.85 177.09 178.41 
M 378.21 147.87 369.69 150.88 364.32 153.5 359.29 156.73 354.46 160.36 
M 354.44 161.3 345.89 163.4 340.45 165.44 335.27 168.11 330.26 171.2 
M 330.19 172.14 324.5 172.84 318.94 173.97 313.57 175.76 305.81 179.43 
M 305.69 180.36 300.09 180.46 294.58 180.99 289.2 182.21 281.31 185.04 
M 281.14 185.97 272.98 185.37 267.59 185.65 262.27 186.63 256.98 188.05 
M 256.76 188.96 251.5 187.89 246.24 187.28 240.96 187.35 233.02 188.48 
M 232.75 189.39 227.74 187.77 222.67 186.59 217.51 186.1 209.64 186.39 
M 209.32 187.28 204.64 184.88 199.84 182.91 194.83 181.61 187.04 180.64 
M 375.33 148.8 369.69 150.88 364.32 153.5 361.77 155.05 356.86 158.52 
M 355.56 149.51 350.48 151.39 348.03 152.49 343.35 155.13 338.93 158.26 
M 335.79 150.22 331.27 151.89 329.09 152.87 324.94 155.22 321.01 158 
M 316.01 150.93 312.06 152.39 308.31 154.22 303.08 157.73 
M 296.24 151.64 291.22 153.63 288.11 155.39 285.16 157.47 
M 276.47 152.35 272.29 154.01 269.69 155.47 267.23 157.21 
M 256.7 153.06 253.35 154.38 251.27 155.56 249.31 156.95 
M 351.56 161.93 345.89 163.4 340.45 165.44 337.83 166.7 332.76 169.63 
M 331.26 161.58 326.26 162.88 321.45 164.68 319.14 165.79 314.66 168.38 
M 310.97 161.22 306.62 162.35 302.45 163.91 300.45 164.88 296.56 167.12 
M 290.68 160.87 286.99 161.82 283.46 163.15 278.46 165.87 
M 270.38 160.51 267.36 161.3 264.46 162.38 260.36 164.62 
M 250.09 160.16 247.73 160.77 245.46 161.62 242.25 163.37 
M 327.34 172.46 321.7 173.33 318.94 173.97 313.57 175.76 308.38 178.13 
M 306.38 170.98 301.52 171.73 299.15 172.28 294.54 173.82 290.07 175.85 
M 285.42 169.5 281.35 170.13 279.37 170.59 275.5 171.87 271.76 173.58 
M 264.45 168.02 259.58 168.89 256.47 169.93 253.45 171.31 
M 243.49 166.54 239.79 167.2 237.43 167.99 235.15 169.03 
M 302.89 180.38 297.32 180.65 294.58 180.99 289.2 182.21 283.93 184.02 
M 280.96 177.67 276.37 177.89 274.11 178.17 269.67 179.17 265.32 180.67 
M 259.04 174.96 253.64 175.35 250.14 176.14 246.72 177.32 
M 237.12 172.24 233.17 172.53 230.61 173.11 228.11 173.97 
M 278.41 185.69 272.98 185.37 267.59 185.65 264.92 186.06 259.62 187.31 
M 254.89 181.53 250.73 181.29 246.6 181.5 244.55 181.82 240.49 182.77 
M 231.37 177.37 228.47 177.2 225.6 177.36 221.35 178.24 
M 254.13 188.4 248.87 187.51 246.24 187.28 240.96 187.35 235.67 188.02 
M 227.35 182.26 222.22 181.53 218.79 181.58 215.35 182.02 
M 230.25 188.54 225.21 187.1 222.67 186.59 217.51 186.1 212.27 186.21 
M 222.16 217.16 226.02 222.45 227.98 224.46 233.18 230.92 235.62 234.57 237.24 236.62 237.77 238.51 240.66 241.67 243.16 243.72 244.2 244.82 240.94 251.35 241.11 254.32 241.06 257.08 240.27 259.13 238.57 260.43 236.07 264.08 233.87 264.99 232.34 266.56 229.97 270.52 226.57 273.43 225.5 274.67 217.31 280 217.08 277.53 216.39 274.96 216.48 272.39 215.75 269.84 215.57 266.14 215.82 264.12 216.75 262.29 217.02 259.52 216.36 255.78 216.18 248.98 215.4 246.27 216.39 241.42 216.55 237.61 215.34 230.46 215.38 225.18 214.94 219.78 213.8 214.74 
M 220.72 216.74 225.62 224.4 227.6 226.81 230.68 231.4 232.3 232.86 233.96 237.19 235.12 239.11 236.51 242.37 
M 219.28 216.32 220.9 219.04 222.12 221.45 223.3 224.27 226.66 229.46 227.66 231.53 228.43 233.97 230.08 236.03 231.16 237.77 232.3 240.2 232.93 241.99 
M 217.84 215.91 219.16 218.63 220.18 221.17 222.06 226.54 224.54 231.82 226.74 236.04 228.95 242.22 
M 216.41 215.49 217.54 218.24 218.34 220.86 219.45 226.05 222.22 233.55 222.55 235.7 223.39 237.79 224.39 242.23 225.67 244.87 225.65 246.72 225.84 248.97 226.51 250.89 228.26 258.27 229.19 260.65 229.6 262.51 230.41 263.97 
M 214.97 215.08 216.61 220.31 216.86 223.02 218.3 230.6 218.33 232.7 219.35 235.4 219.72 238.31 219.53 239.54 220.01 241.69 220.05 243.76 221.08 248.19 221.2 250.82 
M 348.44 194.49 353.75 200.28 353.27 200.85 346.7 196.54 
M 338.34 199.37 356.57 216.72 356.08 217.29 336.56 201.39 
M 328.1 203.92 348.46 224.75 347.94 225.29 326.24 205.86 
M 317.65 207.97 334.87 226.88 334.34 227.4 315.72 209.86 
M 307.16 211.9 324.75 233.24 324.19 233.74 305.14 213.69 
M 296.37 214.88 307.69 231.13 307.1 231.59 294.24 216.53 
M 281.77 218.18 285.61 225.03 285.01 225.47 279.6 219.78 
M 352.61 200.42 352.04 205.46 352.34 208.73 353.32 211.89 354.75 214.99 
M 354.13 215.7 351.77 216.53 349.71 217.7 348.12 219.38 346.42 222.67 
M 345.77 223.35 342.84 222.76 339.97 222.61 337.19 223.15 333.15 224.98 
M 332.48 225.65 328.67 226.34 326.47 227.4 324.62 229.06 322.99 231.11 
M 322.28 231.73 318.92 230.28 315.5 229.28 311.98 228.96 306.56 229.51 
M 305.81 230.08 301.5 227.88 297.06 226.11 292.44 225.01 285.23 224.34 
M 352.34 202.11 352.04 205.46 352.34 208.73 352.75 210.32 354.01 213.44 
M 352.93 216.09 350.69 217.06 349.71 217.7 348.12 219.38 346.93 221.51 
M 348.12 212.95 346.4 213.69 345.65 214.19 344.43 215.47 343.52 217.11 
M 343.31 209.81 341.59 210.67 340.74 211.57 340.11 212.7 
M 344.3 223.02 341.4 222.61 339.97 222.61 337.19 223.15 334.48 224.3 
M 339.08 219.26 336.85 218.94 334.68 219.09 333.63 219.36 331.55 220.24 
M 333.86 215.5 331.55 215.28 330.07 215.57 328.62 216.18 
M 331.17 225.81 328.67 226.34 326.47 227.4 325.5 228.16 323.79 230.06 
M 326.56 222.32 324.64 222.73 322.96 223.54 322.22 224.12 320.9 225.58 
M 321.95 218.83 320.62 219.11 319.45 219.68 318.01 221.09 
M 320.61 230.98 317.22 229.71 315.5 229.28 311.98 228.96 308.38 229.25 
M 313.65 225.12 310.33 224.02 308.04 223.81 305.7 224 
M 303.66 228.95 299.3 226.92 297.06 226.11 292.44 225.01 287.65 224.49 
M 372.65 108.08 375.36 108.01 377.27 107.52 382.08 105.11 386.11 102.24 388.24 102.12 390.46 101.7 392.78 100.87 394.63 99.38 396.47 97.6 397.85 97.03 404.08 100.01 404.97 102.27 405.43 104.08 410.22 108.21 414.82 111.07 416.08 113.34 417.51 116.77 422.18 124.6 425.18 130.57 427.84 137.42 427.43 140.79 428.25 145.35 429.14 148.1 429.19 150.57 428.09 152.3 427.38 154.43 426.53 158.96 425.12 162.8 424.26 164.48 423.85 166.61 423.75 169.09 424.04 172.08 423.92 174.68 422.97 176.45 421.44 178.09 417.79 180.78 416.28 182.44 415.18 184.51 412.82 185.32 410.23 189.04 408.78 190.69 407.52 192.42 402.84 193.9 397.33 200.15 396.71 199.29 394.71 197.4 392.26 195.23 390.31 193.74 388.12 192.17 385.77 191.14 384 189.51 377.62 185.95 375.41 184.47 372.65 181.81 
M 377.57 111.38 380.02 110.08 382.94 109 387.28 106.95 388.56 105.04 390.52 105.32 392.89 105.23 395.43 103.76 397.62 101.79 
M 372.65 115.45 375.08 115.24 377.67 114.76 379.79 114.18 382.24 112.73 388.81 109.92 
M 377.79 118.8 380.12 117.7 386.7 115.16 391.62 114.17 393.64 113.44 395.67 112.44 
M 376 122.85 378.39 122.76 380.46 121.99 382.82 121.81 384.93 120.92 387.39 120.26 389.58 119.31 393.95 118.05 395.77 117.25 398.31 116.81 
M 380.67 126.07 382.95 125.77 385.25 125.05 387.32 123.6 389.52 122.71 392.1 121.99 394.01 121.93 396.32 120.98 398.97 121.15 403.85 120.49 405.22 119.77 409.09 118.52 411.13 117.29 413.63 116.34 
M 372.65 130.2 375.3 130.37 377.92 130.03 380.25 129.41 382.44 129.52 386.97 128.61 389.8 127.57 392.04 126.41 394.28 126.98 399.8 126.11 401.92 126.07 
M 380.49 134.14 385.14 133.51 387.57 132.86 389.96 132.54 394.61 131.12 397.09 130.67 401.98 130.23 404.16 130.67 407.32 130.42 
M 375.6 137.77 378.42 137.78 382.92 138.4 385.44 138.49 393.59 137.86 396.05 137.01 400.55 137.55 402.68 137.05 404.22 136.24 405.98 136.39 408.25 136.3 411.52 136.55 417.4 136.1 418.44 134.88 419.53 134.23 424.52 134.3 
M 375.72 141.89 378.33 141.8 385.48 142.3 387.97 142.11 393.63 142.95 398.13 142.86 399.84 142.58 401.9 143 403.59 143.08 405.77 142.36 408.56 142.07 411.74 142.51 414.87 142.57 416.8 142.2 419.25 142.08 420.55 141.13 421.9 140.58 424.86 141.5 
M 381.1 145.9 383.87 145.87 386.49 146.27 388.71 146.84 393.78 147.45 395.18 147.81 396.67 147.86 398.51 148.66 401.14 148.76 405.73 148.18 411.47 148.94 412.95 148.53 
M 374.63 149.04 378.33 149.83 380.51 150.54 383.18 150.63 385.46 150.95 389.87 151.89 394.91 152.58 397.84 152.64 400.6 152.24 402.94 152.33 405.14 153.05 406.25 152.9 410.86 153.06 416.62 154.84 418.81 153.84 421.15 154.08 
M 375.65 153.13 385.08 155.36 387.51 155.44 389.89 156.77 392.37 157.32 394.97 157.07 400.48 157.54 402.46 157.96 404.65 158.76 406.79 159.21 409.51 159.28 412.18 159.88 414.53 160.01 416.49 160.42 419.75 161.42 
M 375.54 157 380.26 158.53 385.28 159.65 387.54 160.35 390.78 160.82 393.52 160.93 395.1 161.47 397.46 161.74 400.27 161.67 402.55 161.95 405.4 163.23 407.75 164.83 410.1 165.45 411.51 166.21 412.99 166.63 415.02 167.73 
M 372.65 159.69 377.86 161.51 382.74 163.44 385.27 164.22 389.62 166.12 392.28 166.92 397.25 166.69 399.64 166.76 402.37 167.89 404.6 169.58 409.4 171.97 411.78 172.17 412.93 172.66 
M 380.34 166.21 388.82 170.46 391.38 171.38 396.1 172.18 399.38 171.72 401.63 172.95 403.55 174.45 
M 380.46 170.61 384.62 172.71 386.92 173.64 389.15 174.89 391.62 175.23 393.35 176.04 395.2 177.62 397.98 178.38 400.05 178.74 
M 372.65 170.75 375.33 172.26 377.44 173.66 382.61 175.75 387.3 178.76 392.22 180.4 394.29 181.4 395.76 183.03 397.95 183.76 399.57 185.56 402.25 186.5 
M 374.92 176.29 377.32 177.8 379.79 179.69 385.6 182.17 387.36 183.5 391.98 185.55 
M 372.65 178.12 375.47 180.34 380.53 183.86 385.91 186.1 387.3 187.46 389.48 188.75 390.47 189.27 392.9 190.11 394.21 191.45 395.43 193.2 398.44 194.72 
M 330.85 88.75 334.11 92.95 348.59 79.07 350.49 78.68 352.73 78.63 355.79 79.83 357.86 80.38 359.61 81.42 361.19 83.14 363.7 85.12 364.75 86.47 364.76 88.82 364.05 90.46 363.98 92.41 359.75 104.22 355.93 100.51 
M 334.21 90.39 337.03 89.3 339.5 87.78 341.37 85.8 343.08 84.9 345.2 82.41 347.55 80.81 
M 337.58 92.03 341.89 90.24 346.05 86.8 347.48 85.05 
M 340.95 93.64 343.63 92.87 345.76 91.75 347.67 90.46 352.84 86.08 
M 344.34 95.23 347.11 94.55 350.63 91.73 352.21 90.09 354.97 89.13 356.54 87.69 358.33 86.35 359.08 84.18 359.94 83.22 
M 347.73 96.82 350.35 96.2 352.21 94.71 353.55 93.01 355.74 91.44 358.27 90.61 363.98 85.57 
M 351.14 98.35 353.47 98.15 355.71 96.4 358.05 96.11 
M 102.44 152.1 105.41 146.55 109.3 138.41 111.67 134.36 114.59 130.65 118.4 126.31 121.94 121.43 126.02 116.8 130.69 112.41 141.14 104.7 146.37 101.24 155.62 96.09 159.26 94.29 163.64 92.53 166.65 97.91 168.14 103.45 171.72 114.5 173.22 120.04 174.21 125.63 175.66 136.84 175.55 142.51 175.75 148.16 175.73 153.82 174.91 165.21 175.23 170.85 175.29 182.17 174.91 187.86 173.97 193.6 172 199.36 161.82 198.81 154.36 197.76 147.7 196.3 141.41 194.2 135.75 191.6 130.8 188.88 126.26 185.87 118.89 179.1 
M 117.59 177.96 114.34 175.16 110.57 171.6 107.96 167.91 105.36 163.21 
M 155.98 129.21 156.43 134.04 155.47 143.27 154.68 147.41 152.64 154.69 152.62 158 152.79 161.11 153.94 167.62 154.46 171.57 154.38 176.21 138.02 176.2 133.19 175.55 128.58 174.24 124.39 172.47 120.5 170.01 
M 117.92 178.42 106.47 164.61 99.58 155.49 99.05 153.73 100.16 152.11 102.06 151.79 103.53 153.01 105.26 156.34 109.15 163.04 113.07 169.49 117.26 175.71 119.18 178.91 
M 118.81 179.47 113.06 178.86 99.79 177.01 92.38 176.18 90.98 175.17 90.8 173.37 92.03 172.07 93.86 172.17 118.94 178.75 
M 128.03 141.51 126.67 139.61 126.01 137.38 126.1 135.04 126.95 132.87 128.46 131.09 130.47 129.89 132.75 129.42 135.07 129.7 137.16 130.73 138.81 132.38 139.84 134.48 140.13 136.79 139.65 139.08 138.45 141.08 136.67 142.59 134.5 143.44 132.17 143.54 129.93 142.87 128.03 141.51 
M 137.66 133.2 138.48 134.88 138.71 136.73 138.33 138.56 137.37 140.17 135.95 141.37 134.21 142.05 132.34 142.13 130.55 141.6 129.03 140.51 
M 130.48 137.94 129.93 137.18 129.67 136.29 129.71 135.36 130.05 134.49 130.65 133.77 131.45 133.3 132.36 133.1 133.29 133.22 134.13 133.63 134.79 134.29 135.2 135.13 135.32 136.06 135.12 136.97 134.65 137.77 133.93 138.37 133.06 138.71 132.13 138.75 131.24 138.49 130.48 137.94 
M 130.54 137.6 131.5 138.56 
M 131.67 136.71 133.5 138.54 
M 132.66 135.68 134.68 137.71 
M 133.51 134.51 135.27 136.27 
M 102.95 151.18 105.8 154.02 
M 104.53 148.27 108.8 152.53 
M 106.02 145.26 109.24 148.49 
M 107.46 142.21 111.3 146.05 
M 108.92 139.18 112.18 142.44 
M 110.53 136.3 113.93 139.7 
M 112.29 133.57 116.75 138.03 
M 114.27 131.05 117.08 133.86 
M 116.35 128.64 120.29 132.59 
M 118.44 126.25 121.28 129.08 
M 120.33 123.65 123.14 126.46 
M 122.25 121.08 126.61 125.43 
M 124.36 118.69 127.94 122.27 
M 126.51 116.35 129.77 119.61 
M 128.82 114.17 131.6 116.95 
M 131.18 112.04 134.98 115.84 
M 133.77 110.14 136.63 113 
M 136.36 108.24 140.58 112.46 
M 138.94 106.33 143.43 110.82 
M 141.54 104.44 145.47 108.36 
M 144.24 102.65 147.06 105.46 
M 146.98 100.89 149.33 103.25 
M 149.82 99.24 154.28 103.71 
M 152.71 97.64 157.13 102.06 
M 155.64 96.08 159.01 99.45 
M 158.65 94.6 161.63 97.58 
M 161.77 93.22 164.35 95.81 
M 154.81 192.57 153.93 192.31 153.15 192.31 152.18 193.03 151.63 194.5 151.68 196.89 
M 161.78 102.41 162.64 100.91 162.71 100.43 162.74 97.52 162.46 96.14 
M 160.38 168.2 159.62 168.09 158.7 168.49 158.3 169.09 158.52 169.53 
M 109.59 150.39 112.58 148.19 
M 139.3 147.26 138.56 146.25 138.03 145.85 133.65 144.39 132.59 143.52 
M 152.9 151.05 151.28 151.57 148.61 153.12 146.08 155.36 
M 126.31 138.39 126.11 138.46 125.32 138.18 
M 149.07 114.22 147.19 111.48 146.8 109.94 146.52 109.54 145.45 108.72 144.08 108.48 
M 117.23 134.53 116.01 134.06 114.41 133.09 113.06 132.6 
M 156.97 143.96 157.47 142.57 158.21 141.5 160.34 140.97 
M 128.45 165.36 128.64 164.07 128.64 161.37 128.78 160.54 
M 130.46 119.41 130.74 117.08 131.1 115.82 131.5 115.18 
M 125.51 164.18 125.78 162.06 127.1 159.78 
M 155.85 111.2 155.66 111.55 155.39 111.68 154.05 111.4 
M 140.65 121.34 143.37 122.9 144.58 124.01 144.94 125.05 145 127.18 
M 164.96 159.8 166.43 160.81 167.14 161.13 168.14 161.29 168.35 161.56 168.21 162.2 
M 172.59 177.24 172.88 176.12 174.89 173.28 175.03 172.87 174.95 172.18 
M 151.97 153.45 151.07 153.51 149.63 153.96 146.36 155.3 
M 170.33 194.47 170.92 195.41 172.89 196.74 
M 145.42 125.83 145.07 126.93 145.12 127.45 145.3 127.62 
M 165.39 95.83 165.39 95.66 
M 163.96 93.11 163.36 92.63 
M 115.39 135.96 113.81 133.73 112.66 133.1 
M 139 117.23 140.11 115.31 141.22 111.17 141.23 110.15 141.01 109.23 140.47 108.47 140.03 108.22 
M 152.41 159.9 152.08 157.99 151.17 156.56 150.96 155.54 150.48 155.37 
M 166.3 191.79 166.33 190.61 167.56 188.79 168.67 186.39 168.56 185.25 167.96 184.11 167.47 183.66 
M 137.33 161.82 137.89 160.7 138.24 160.46 139.05 160.5 139.87 160.89 140.34 161.42 140.47 162.28 140.23 162.79 
M 126.48 149.67 126.85 150.79 126.83 151.33 125.86 153.68 124.86 154.7 
M 165.95 122.64 164.49 124.39 164.01 125.24 163.97 125.64 164.49 127.53 164.86 128.09 166.84 129.82 
M 164.79 150.57 165.58 149.46 166.5 148.99 167.14 148.99 168.55 149.33 168.82 149.73 
M 104.28 154.25 105.92 153.13 108.1 152.95 109.45 152.6 111.13 151.78 112.02 151.06 
M 119.63 144.6 119.44 142.76 118.7 141.51 117.94 141.23 117.41 141.29 116.56 142.26 
M 115.54 168.74 115.05 168.44 114.76 167.51 114.55 167.27 
M 130.72 122.39 131.41 123.63 132.67 124.76 134.05 125.73 135.4 126.3 
M 143.03 157.9 142.33 161.52 141.95 162.12 141.45 162.49 140.39 163.06 139.85 163.02 
M 171.6 159.05 171.02 159.2 170.41 159.63 169.84 160.87 168.37 162.21 
M 130.44 178.84 130.04 178.09 129.23 177.38 126.15 176.1 125.09 175.24 124.66 174.7 123.8 172.43 
M 154.64 112.34 153.93 111.55 152.6 111.11 150.74 110.12 
M 156.81 187.28 156.45 186.01 155.59 185.11 154.27 183.1 
M 160.89 146.59 161.44 146.41 162.58 146.77 163.44 146.31 
M 132.66 182.69 131.72 182.88 130.68 182.66 130.37 182.24 130.22 181.45 
M 115.2 155.35 115.95 154.23 117.03 153.11 117.81 150.62 119.07 149.28 
M 118.66 126.84 118.16 126.58 
M 160.26 130.4 158.6 131.84 157.85 132.21 155.13 132.63 154.7 132.86 153.05 134.4 
M 157.63 162.98 156.37 162.29 154.49 160.73 153.92 159.98 152.8 157.9 151.63 156.52 
M 148.21 130.4 146.41 128.72 146.16 127.52 145.85 127.19 
M 168.74 193.05 166.47 195.02 164.27 196.11 162.26 197.43 
M 168.8 119.12 167.41 118.99 166.59 119.15 164.68 122.24 
M 135.14 163.21 135.74 162.7 136.25 161.97 136.82 160.16 137.33 159.22 138.24 158.62 138.86 158.67 139.23 158.92 
M 145.58 156.63 144.98 157.03 144.46 157.85 144.18 158.84 143.98 160.82 143.33 162.12 142.79 162.51 
M 159.03 177.77 156.93 177.22 154.56 177 152.02 175.52 
M 127.42 154.72 126.9 156.48 125.99 158.15 
M 118.85 179.13 119.13 179.55 
M 116.39 176.48 116.33 177.06 116.81 177 
M 114.35 174.12 113.96 175.19 114.37 174.84 114.87 174.73 
M 112.35 171.79 111.88 172.33 111.58 173.31 112.13 172.71 112.91 172.44 
M 110.42 169.41 109.65 170.2 109.2 171.44 109.9 170.57 110.99 170.12 
M 108.5 167.04 107.42 168.06 106.82 169.57 107.67 168.43 109.08 167.77 
M 106.55 164.7 105.18 165.93 104.45 167.7 105.43 166.3 107.19 165.43 
M 104.67 162.31 102.95 163.79 102.07 165.83 103.2 164.16 105.27 163.08 
M 102.81 159.9 100.71 161.65 99.69 163.96 100.97 162.03 103.42 160.7 
M 101.01 157.45 98.48 159.52 97.32 162.09 98.73 159.89 101.61 158.29 
M 99.39 154.86 96.25 157.38 94.94 160.21 96.5 157.75 99.85 155.86 
M 118.91 178.97 119.44 179.07 
M 115.6 177.79 116.2 177.41 116.33 177.98 
M 112.65 177.05 113.05 176.38 113.68 175.9 113.49 176.46 113.63 177.31 
M 109.79 176.32 110.33 175.13 111.17 174.38 110.77 175.21 110.84 176.59 
M 106.96 175.56 107.61 173.87 108.66 172.86 108.05 173.96 108.03 175.86 
M 104.13 174.81 104.89 172.62 106.15 171.35 105.33 172.71 105.23 175.08 
M 101.3 174.09 102.17 171.37 103.63 169.83 102.61 171.45 102.41 174.4 
M 98.47 173.36 99.45 170.11 101.12 168.32 99.89 170.2 99.6 173.66 
M 95.65 172.65 96.73 168.86 98.61 166.8 97.17 168.95 96.78 172.92 
M 92.77 172.11 94.01 167.61 96.09 165.28 94.45 167.69 93.96 172.2 
M 97.63 176.76 105.02 180.7 109.2 182.64 113.44 184.35 117.72 185.8 121.98 186.98 130.8 188.88 
M 106.5 179.32 104.45 180.41 
M 166.39 97.45 169 100.05 
M 166.21 91.28 173.36 98.42 
M 170.3 89.38 176.7 95.77 
M 174.37 87.46 182.89 95.98 
M 178.43 85.53 184.88 91.98 
M 182.56 83.67 191.01 92.12 
M 186.76 81.88 192.53 87.65 
M 191.01 80.15 198.68 87.82 
M 195.32 78.47 199.9 83.05 
M 199.71 76.87 205.07 82.23 
M 204.15 75.32 209.51 80.68 
M 208.55 73.73 217.31 82.49 
M 212.93 72.13 220.57 79.76 
M 217.53 70.73 223.47 76.68 
M 222.17 69.39 229.04 76.26 
M 227.12 68.34 235.82 77.05 
M 232.12 67.37 238.36 73.6 
M 237.29 66.54 245.21 74.46 
M 242.88 66.15 247.72 70.99 
M 248.7 65.98 256.2 73.48 
M 254.62 65.91 262.04 73.33 
M 260.44 65.74 266.06 71.36 
M 266.7 66.01 274.04 73.36 
M 273.9 67.22 280.35 73.67 
M 282.3 69.64 291.19 78.52 
M 291.53 72.88 299.51 80.86 
M 301.17 76.53 309.02 84.37 
M 310.6 79.98 317.91 87.28 
M 320.51 83.89 328.92 92.3 
M 331.84 89.23 337.35 94.75 
M 343.37 94.78 349.89 101.3 
M 354.4 99.82 360.03 105.45 
M 365.41 104.84 373.28 112.71 
M 376.25 109.69 378.72 112.16 
M 177.53 187.86 178.87 190.54 
M 179.54 191.88 180.88 194.55 
M 177.67 182.9 179.68 186.92 
M 180.35 188.25 183.69 194.95 
M 180.45 183.21 185.13 192.59 
M 185.8 193.93 186.47 195.27 
M 181.21 179.51 187.91 192.9 
M 183.99 179.83 190.69 193.22 
M 187.01 180.63 188.11 182.82 
M 188.78 184.16 192.12 190.85 
M 190.2 181.77 192.21 185.79 
M 203.68 203.48 204.35 204.82 
M 206.36 208.84 207.03 210.18 
M 204.44 199.76 208.45 207.79 
M 209.12 209.13 209.79 210.47 
M 204.52 194.69 211.89 209.42 
M 206.66 193.72 216.03 212.46 
M 181.34 137.85 182.01 139.19 
M 204.93 185.02 207.45 190.07 
M 208.79 192.75 217.49 210.15 
M 175.44 120.81 176.11 122.15 
M 182.14 134.2 187.49 144.91 
M 208.45 186.82 209.59 189.1 
M 210.92 191.77 220.3 210.52 
M 163.85 92.38 166.28 97.24 
M 166.7 98.08 166.86 98.41 
M 176.23 117.15 177.57 119.83 
M 178.91 122.51 179.58 123.85 
M 182.93 130.54 183.6 131.88 
M 184.27 133.22 189.62 143.93 
M 210.81 186.31 211.72 188.12 
M 213.06 190.8 214.4 193.48 
M 215.07 194.82 221.76 208.21 
M 165.97 91.39 168.32 96.08 
M 168.99 97.42 169.66 98.76 
M 175.68 110.81 177.69 114.82 
M 178.36 116.16 181.71 122.86 
M 182.38 124.2 183.05 125.54 
M 185.72 130.89 190.41 140.27 
M 191.08 141.61 191.75 142.94 
M 192.42 144.28 193.09 145.62 
M 213.36 186.17 214.51 188.47 
M 215.85 191.15 216.52 192.49 
M 217.19 193.83 220.54 200.52 
M 221.21 201.86 223.22 205.88 
M 229.36 218.16 229.8 219.05 
M 168.1 90.4 171.11 96.43 
M 178.48 111.16 179.81 113.83 
M 180.48 115.17 185.84 125.89 
M 187.18 128.56 193.87 141.95 
M 215.95 186.1 215.97 186.14 
M 216.64 187.48 217.31 188.82 
M 217.98 190.16 218.65 191.5 
M 220.65 195.51 224.67 203.55 
M 170.22 89.41 171.9 92.76 
M 178.59 106.15 187.96 124.9 
M 189.3 127.57 190.64 130.25 
M 191.31 131.59 196 140.96 
M 196.67 142.3 197.34 143.64 
M 201.35 151.68 202.31 153.6 
M 218.6 186.17 220.1 189.17 
M 223.45 195.86 224.12 197.2 
M 173.35 90.43 174.02 91.77 
M 182.05 107.83 188.75 121.22 
M 189.42 122.56 190.09 123.9 
M 191.43 126.58 198.12 139.97 
M 204.15 152.02 204.82 153.36 
M 224.9 193.53 225.57 194.87 
M 226.24 196.21 226.91 197.55 
M 227.58 198.89 229.59 202.9 
M 237.62 218.97 238.15 220.03 
M 183.5 105.49 192.21 122.9 
M 194.88 128.25 197.56 133.61 
M 198.23 134.95 199.57 137.63 
M 205.6 149.68 207.47 153.43 
M 227.02 192.53 227.69 193.87 
M 228.36 195.2 231.71 201.9 
M 232.38 203.24 233.72 205.92 
M 237.73 213.95 240.98 220.45 
M 186.29 105.83 186.96 107.16 
M 187.63 108.5 192.98 119.22 
M 197.67 128.59 198.34 129.93 
M 199.01 131.27 199.68 132.61 
M 209.05 151.35 210.05 153.34 
M 228.47 190.18 234.49 202.23 
M 235.16 203.57 235.83 204.91 
M 238.51 210.27 243.57 220.38 
M 188.41 104.82 191.08 110.18 
M 191.75 111.52 195.77 119.55 
M 210.5 149.01 211.17 150.35 
M 212.51 153.02 212.63 153.26 
M 231.25 190.52 237.28 202.57 
M 240.63 209.26 246.16 220.32 
M 191.87 106.51 192.54 107.85 
M 193.88 110.53 194.55 111.87 
M 195.22 113.21 197.23 117.22 
M 209.28 141.33 211.29 145.34 
M 234.05 190.87 237.4 197.56 
M 238.07 198.9 239.41 201.58 
M 242.08 206.94 248.76 220.29 
M 183.99 85.5 186.67 90.86 
M 187.34 92.2 188 93.54 
M 196.71 110.94 197.38 112.28 
M 208.76 135.05 211.44 140.4 
M 212.11 141.74 213.45 144.42 
M 235.28 188.09 235.54 188.61 
M 236.88 191.29 239.56 196.64 
M 240.23 197.98 240.9 199.32 
M 245.58 208.69 250.27 218.07 
M 185.14 82.57 185.48 83.24 
M 186.15 84.58 187.48 87.26 
M 188.15 88.6 188.82 89.94 
M 189.49 91.28 190.83 93.95 
M 210.92 134.12 217.61 147.51 
M 238.37 189.02 239.04 190.36 
M 239.71 191.7 241.71 195.72 
M 249.08 210.45 249.75 211.79 
M 187.3 81.65 192.99 93.03 
M 211.74 130.52 212.41 131.86 
M 213.08 133.2 219.1 145.25 
M 189.47 80.75 196.5 94.81 
M 205.2 112.22 207.88 117.57 
M 208.55 118.91 209.22 120.25 
M 213.91 129.62 220.6 143.01 
M 221.27 144.35 221.94 145.69 
M 223.95 149.71 225.29 152.39 
M 254.75 211.3 255.42 212.64 
M 191.66 79.9 198.02 92.62 
M 206.06 108.68 212.08 120.74 
M 216.77 130.11 222.8 142.16 
M 224.13 144.84 224.8 146.18 
M 226.14 148.85 228.09 152.76 
M 254.26 205.09 256.27 209.11 
M 256.94 210.45 257.61 211.79 
M 258.28 213.13 258.95 214.47 
M 193.86 79.04 199.55 90.42 
M 207.58 106.49 211.6 114.53 
M 212.27 115.87 214.28 119.88 
M 218.96 129.26 224.99 141.31 
M 226.33 143.98 230.67 152.67 
M 256.46 204.24 261.81 214.95 
M 196.05 78.19 196.38 78.86 
M 197.72 81.54 199.06 84.21 
M 200.4 86.89 201.74 89.57 
M 209.77 105.64 215.8 117.69 
M 222.49 131.08 223.16 132.42 
M 223.83 133.76 224.5 135.1 
M 229.19 144.47 233.25 152.59 
M 256.64 199.37 257.31 200.71 
M 257.98 202.05 264.67 215.44 
M 200.61 82.06 201.28 83.4 
M 211.32 103.49 216.67 114.2 
M 218.01 116.88 218.68 118.22 
M 230.06 140.98 235.83 152.5 
M 258.85 198.56 265.55 211.95 
M 214.66 104.94 219.35 114.31 
M 232.07 139.75 238.4 152.42 
M 261.53 198.67 268.89 213.4 
M 217.75 105.88 218.42 107.22 
M 219.76 109.9 221.1 112.57 
M 221.77 113.91 224.45 119.27 
M 225.12 120.61 225.79 121.95 
M 226.46 123.29 227.8 125.96 
M 235.16 140.69 240.52 151.41 
M 263.28 196.93 263.95 198.27 
M 264.62 199.61 269.98 210.32 
M 271.98 214.34 274.15 218.67 
M 210.68 86.49 211.35 87.83 
M 213.36 91.85 214.03 93.18 
M 224.07 113.27 230.09 125.32 
M 235.45 136.03 236.12 137.37 
M 237.46 140.05 243.48 152.1 
M 266.92 198.97 267.59 200.3 
M 268.26 201.64 268.93 202.98 
M 269.6 204.32 270.93 207 
M 273.61 212.36 277.12 219.38 
M 212.12 84.13 216.14 92.16 
M 216.81 93.5 218.14 96.18 
M 224.84 109.57 225.51 110.91 
M 226.18 112.25 232.2 124.3 
M 236.22 132.33 240.91 141.71 
M 242.92 145.72 245.59 151.08 
M 263.26 186.41 263.67 187.23 
M 269.7 199.28 270.37 200.62 
M 275.05 210 279.6 219.1 
M 212.68 80.01 213.35 81.35 
M 214.02 82.68 220.71 96.08 
M 227.41 109.47 228.08 110.8 
M 228.75 112.14 234.77 124.19 
M 235.44 125.53 236.78 128.21 
M 237.45 129.55 244.14 142.94 
M 246.15 146.96 246.82 148.3 
M 266.24 187.13 266.91 188.47 
M 276.95 208.55 282.02 218.69 
M 214.36 78.13 222.4 94.2 
M 229.09 107.59 230.43 110.27 
M 231.1 111.61 233.78 116.97 
M 234.45 118.3 235.79 120.98 
M 237.79 125 240.47 130.36 
M 241.14 131.69 246.5 142.41 
M 268.1 185.61 268.59 186.59 
M 279.97 209.36 281.31 212.04 
M 281.98 213.37 282.65 214.71 
M 283.32 216.05 284.39 218.19 
M 206.97 58.11 208.31 60.79 
M 208.98 62.13 209.65 63.47 
M 210.32 64.81 210.99 66.15 
M 217.01 78.2 225.05 94.27 
M 232.41 108.99 235.76 115.69 
M 237.1 118.37 237.77 119.71 
M 240.45 125.06 248.48 141.13 
M 282.62 209.42 283.96 212.1 
M 284.63 213.44 286.75 217.68 
M 207.78 54.49 213.13 65.2 
M 218.49 75.91 219.16 77.25 
M 219.83 78.59 226.52 91.98 
M 235.23 109.39 237.24 113.41 
M 243.26 125.46 250.63 140.19 
M 284.77 208.48 285.44 209.82 
M 286.78 212.49 287.45 213.83 
M 288.12 215.17 288.79 216.51 
M 209.18 52.05 213.2 60.08 
M 213.87 61.42 216.54 66.78 
M 220.56 74.81 227.26 88.2 
M 246 125.7 252.03 137.75 
M 290.99 215.68 291.46 216.62 
M 211.08 50.62 218.45 65.35 
M 224.47 77.4 226.48 81.42 
M 227.82 84.1 229.16 86.77 
M 231.17 90.79 235.19 98.83 
M 242.55 113.55 243.89 116.23 
M 247.24 122.93 249.92 128.28 
M 250.58 129.62 253.26 134.98 
M 214.15 51.51 218.16 59.54 
M 228.21 79.63 230.21 83.64 
M 232.22 87.66 233.56 90.34 
M 234.23 91.68 237.58 98.37 
M 238.92 101.05 239.59 102.39 
M 243.6 110.42 244.94 113.1 
M 245.61 114.44 248.29 119.8 
M 249.63 122.47 250.3 123.81 
M 252.31 127.83 252.98 129.17 
M 254.32 131.85 254.99 133.19 
M 261.68 146.58 263.02 149.25 
M 216.35 50.67 221.03 60.04 
M 221.7 61.38 222.37 62.72 
M 233.76 85.48 239.78 97.53 
M 240.45 98.87 241.79 101.55 
M 245.14 108.25 245.81 109.59 
M 246.48 110.92 253.84 125.65 
M 262.54 143.06 264.55 147.08 
M 265.22 148.42 266.56 151.1 
M 221.43 55.59 222.1 56.92 
M 236.16 85.04 243.52 99.77 
M 244.19 101.11 244.86 102.45 
M 246.87 106.47 255.57 123.88 
M 264.94 142.62 269.34 151.41 
M 288.38 189.49 291.05 194.84 
M 238.56 84.62 247.26 102.02 
M 248.6 104.7 257.98 123.45 
M 265.34 138.18 266.68 140.85 
M 267.35 142.19 270.7 148.89 
M 271.37 150.23 271.92 151.33 
M 289.44 186.38 294.8 197.09 
M 240.89 84.03 248.25 98.76 
M 250.93 104.11 258.96 120.18 
M 266.33 134.91 274.36 150.98 
M 290.43 183.12 293.78 189.81 
M 294.45 191.15 296.46 195.17 
M 227.01 51.04 227.68 52.38 
M 228.35 53.72 231.03 59.07 
M 231.7 60.41 233.71 64.43 
M 239.73 76.48 241.07 79.16 
M 243.08 83.18 249.78 96.57 
M 253.12 103.26 261.16 119.33 
M 269.19 135.4 277.07 151.16 
M 292.62 182.26 299.32 195.65 
M 229.04 49.85 235.73 63.24 
M 239.75 71.27 240.42 72.61 
M 241.76 75.29 244.44 80.65 
M 245.77 83.32 247.78 87.34 
M 248.45 88.68 249.12 90.02 
M 249.79 91.36 251.8 95.38 
M 255.82 103.41 257.83 107.43 
M 258.5 108.77 261.84 115.46 
M 271.89 135.55 278.58 148.94 
M 294.65 181.07 300 191.78 
M 300.67 193.12 302.01 195.8 
M 230.92 48.37 236.94 60.42 
M 237.61 61.76 238.28 63.1 
M 241.63 69.79 246.98 80.5 
M 259.7 105.94 261.04 108.62 
M 261.71 109.96 262.38 111.3 
M 263.05 112.64 264.39 115.32 
M 275.1 136.74 275.77 138.08 
M 277.11 140.76 277.78 142.1 
M 278.45 143.44 279.12 144.78 
M 297.2 180.93 302.55 191.64 
M 308.58 203.69 309.25 205.03 
M 310.59 207.71 312.05 210.63 
M 233.35 48 239.38 60.05 
M 240.05 61.39 240.72 62.73 
M 242.72 66.75 243.39 68.08 
M 244.06 69.42 250.76 82.81 
M 280.22 141.73 280.89 143.07 
M 300.3 181.9 303.65 188.6 
M 304.32 189.93 304.99 191.27 
M 310.34 201.99 311.01 203.32 
M 311.68 204.66 314.26 209.81 
M 235.15 46.35 239.83 55.72 
M 240.5 57.06 242.51 61.08 
M 245.86 67.77 251.88 79.82 
M 304.1 184.26 305.44 186.94 
M 312.81 201.67 316.47 208.99 
M 236.71 44.24 244.07 58.97 
M 248.09 67 253.45 77.71 
M 287.59 146 288.26 147.34 
M 289.6 150.02 289.96 150.74 
M 315.04 200.9 318.68 208.17 
M 240.75 47.07 242.75 51.09 
M 243.42 52.42 244.76 55.1 
M 245.43 56.44 246.77 59.12 
M 250.79 67.15 251.46 68.49 
M 252.13 69.83 254.81 75.19 
M 257.48 80.54 258.15 81.88 
M 258.82 83.22 259.49 84.56 
M 287.61 140.8 291.63 148.83 
M 292.3 150.17 292.54 150.66 
M 307.03 179.63 309.04 183.65 
M 316.4 198.38 320.89 207.35 
M 241.86 44.07 242.53 45.4 
M 243.87 48.08 244.54 49.42 
M 245.21 50.76 247.89 56.12 
M 258.6 77.54 261.95 84.24 
M 262.62 85.57 263.96 88.25 
M 271.99 104.32 272.66 105.66 
M 273.33 107 274.67 109.68 
M 290.07 140.47 291.41 143.15 
M 292.08 144.49 295.12 150.57 
M 308.8 177.93 310.15 180.64 
M 310.82 181.98 311.49 183.32 
M 318.86 198.05 322.2 204.75 
M 322.81 205.97 323.09 206.52 
M 260.22 75.53 262.23 79.55 
M 262.9 80.89 265.57 86.25 
M 266.24 87.59 266.91 88.92 
M 271.6 98.3 277.63 110.35 
M 284.32 123.74 284.99 125.08 
M 285.66 126.42 289.01 133.11 
M 293.02 141.15 297.7 150.49 
M 310.91 176.91 314.45 183.99 
M 322.48 200.06 325.27 205.65 
M 261.74 73.33 270.44 90.74 
M 273.12 96.09 280.48 110.82 
M 285.84 121.53 288.52 126.89 
M 289.86 129.57 291.86 133.59 
M 293.87 137.6 295.21 140.28 
M 295.88 141.62 300.27 150.4 
M 313.06 175.98 316.64 183.13 
M 324.67 199.2 325.34 200.54 
M 326.68 203.21 327.24 204.33 
M 264.17 72.96 272.21 89.03 
M 275.56 95.73 280.24 105.1 
M 280.91 106.44 282.25 109.12 
M 288.28 121.17 293.63 131.88 
M 296.31 137.24 297.65 139.92 
M 298.32 141.25 299.66 143.93 
M 300.33 145.27 302.85 150.32 
M 315.26 175.14 319.07 182.76 
M 265.59 70.57 274.3 87.97 
M 278.31 96.01 282.33 104.04 
M 283 105.38 284.34 108.06 
M 289.03 117.43 295.72 130.82 
M 296.39 132.16 297.06 133.5 
M 299.74 138.86 300.41 140.19 
M 301.08 141.53 305.43 150.24 
M 317.51 174.4 319.15 177.69 
M 268.44 71.01 274.46 83.06 
M 275.13 84.4 275.8 85.74 
M 276.47 87.08 277.14 88.42 
M 281.16 96.45 283.83 101.81 
M 291.2 116.54 298.56 131.26 
M 302.58 139.3 303.25 140.64 
M 303.92 141.98 304.59 143.32 
M 305.93 145.99 306.6 147.33 
M 319.81 173.77 319.99 174.11 
M 321.33 176.79 322 178.13 
M 269.65 68.21 277.69 84.28 
M 284.38 97.67 285.05 99.01 
M 294.43 117.75 299.78 128.46 
M 272.94 69.53 276.95 77.56 
M 277.62 78.9 278.29 80.24 
M 278.96 81.58 279.63 82.92 
M 297.71 119.07 299.05 121.75 
M 300.38 124.43 301.72 127.11 
M 313.11 149.87 313.16 149.98 
M 331.85 187.36 332.52 188.7 
M 265.57 49.55 268.92 56.25 
M 269.58 57.59 270.92 60.27 
M 277.62 73.66 278.96 76.33 
M 315.11 148.64 315.74 149.9 
M 332.52 183.46 338.54 195.51 
M 266.8 46.78 272.83 58.83 
M 286.89 86.95 287.56 88.29 
M 288.23 89.63 288.9 90.97 
M 300.28 113.73 300.95 115.07 
M 301.62 116.41 302.29 117.75 
M 317.01 147.21 318.32 149.82 
M 333.08 179.35 335.09 183.36 
M 335.76 184.7 339.11 191.4 
M 339.78 192.74 340.45 194.07 
M 268.53 45 274.55 57.05 
M 275.22 58.39 275.89 59.72 
M 287.94 83.83 288.61 85.17 
M 289.95 87.84 292.63 93.2 
M 293.3 94.54 293.97 95.88 
M 297.99 103.91 299.33 106.59 
M 299.99 107.93 302.67 113.28 
M 303.34 114.62 305.35 118.64 
M 318.74 145.42 320.9 149.73 
M 335.48 178.9 344.19 196.31 
M 272.1 46.9 277.46 57.61 
M 290.85 84.4 291.52 85.73 
M 292.86 88.41 296.2 95.11 
M 299.55 101.8 300.22 103.14 
M 300.89 104.48 307.59 117.87 
M 321.64 145.99 323.47 149.65 
M 337.71 178.13 344.41 191.52 
M 274.19 45.84 279.54 56.55 
M 291.59 80.65 292.26 81.99 
M 292.93 83.33 298.29 94.04 
M 301.64 100.73 309.67 116.8 
M 310.34 118.14 311.01 119.48 
M 325.07 147.6 326.05 149.56 
M 339.13 175.72 346.49 190.45 
M 347.16 191.79 347.83 193.13 
M 278.21 48.64 278.88 49.98 
M 294.28 80.78 294.95 82.12 
M 295.62 83.46 296.29 84.8 
M 296.96 86.14 300.31 92.83 
M 303.65 99.53 310.35 112.92 
M 311.02 114.26 312.36 116.93 
M 328.43 149.07 328.63 149.48 
M 342.48 177.19 343.82 179.87 
M 344.49 181.21 347.84 187.9 
M 348.51 189.24 349.18 190.58 
M 297.29 81.55 302.64 92.26 
M 306.66 100.3 314.69 116.37 
M 344.82 176.62 348.84 184.66 
M 349.51 185.99 350.85 188.67 
M 301 83.75 301.67 85.08 
M 302.34 86.42 303.01 87.76 
M 307.7 97.14 315.06 111.86 
M 319.75 121.24 320.42 122.58 
M 328.45 138.65 330.46 142.66 
M 344.52 170.78 346.53 174.8 
M 348.54 178.82 349.88 181.49 
M 310.83 98.17 314.18 104.87 
M 314.85 106.2 317.53 111.56 
M 318.87 114.24 319.54 115.58 
M 320.88 118.26 324.22 124.95 
M 328.91 134.32 330.92 138.34 
M 332.26 141.02 333.6 143.7 
M 343.81 164.11 344.31 165.12 
M 344.98 166.46 347.66 171.82 
M 348.33 173.16 350.34 177.17 
M 351.01 178.51 351.67 179.85 
M 315.04 101.33 315.71 102.67 
M 317.71 106.69 319.05 109.37 
M 321.06 113.38 321.73 114.72 
M 323.07 117.4 326.42 124.1 
M 331.1 133.47 336.46 144.18 
M 346.05 163.36 346.5 164.27 
M 347.17 165.61 353.2 177.66 
M 293.12 52.27 294.13 54.28 
M 294.8 55.62 295.47 56.95 
M 323.92 113.87 329.28 124.58 
M 331.96 129.94 332.63 131.28 
M 333.3 132.62 338.65 143.33 
M 348.35 162.71 355.39 176.8 
M 325.11 111 329.13 119.03 
M 329.8 120.37 331.8 124.39 
M 335.15 131.09 340.51 141.8 
M 350.68 162.14 355.91 172.6 
M 356.58 173.93 357.92 176.61 
M 358.58 177.95 359.25 179.29 
M 326.96 109.47 332.99 121.52 
M 337.68 130.89 339.68 134.91 
M 340.35 136.25 341.02 137.59 
M 341.69 138.93 342.36 140.27 
M 353.03 161.61 359.77 175.08 
M 330.22 110.73 332.22 114.75 
M 332.89 116.09 334.23 118.77 
M 354.87 160.04 361.68 173.67 
M 362.35 175.01 363.02 176.34 
M 356.95 158.97 357.62 160.31 
M 358.29 161.65 362.98 171.02 
M 353.57 146.96 354.24 148.3 
M 360.93 161.69 362.94 165.7 
M 364.95 169.72 365.62 171.06 
M 328.9 92.38 329.57 93.72 
M 339.61 113.8 344.97 124.52 
M 354.34 143.26 356.99 148.56 
M 365.72 166.03 366.39 167.36 
M 373.08 180.74 373.41 181.4 
M 330.34 90.03 331.68 92.71 
M 341.72 112.79 347.75 124.84 
M 355.78 140.91 359.56 148.47 
M 362.6 154.55 363.15 155.64 
M 367.83 165.01 368.5 166.35 
M 369.17 167.69 370.51 170.37 
M 332.8 89.7 333.8 91.71 
M 335.14 94.39 335.81 95.72 
M 343.17 110.45 350.54 125.18 
M 358.57 141.25 362.14 148.39 
M 368.62 161.34 372.63 169.37 
M 336.26 91.39 337.94 94.73 
M 344.63 108.13 345.3 109.46 
M 346.64 112.14 351.33 121.52 
M 351.99 122.85 352.66 124.19 
M 360.7 140.26 361.37 141.6 
M 362.04 142.94 364.72 148.31 
M 366.7 152.26 366.72 152.31 
M 370.74 160.35 376.1 171.06 
M 339.72 93.06 340.05 93.73 
M 347.42 108.46 348.09 109.8 
M 348.76 111.14 352.11 117.84 
M 363.49 140.6 367.3 148.22 
M 371.52 156.67 372.19 158.01 
M 372.86 159.34 378.22 170.06 
M 378.89 171.4 379.56 172.73 
M 350.17 108.73 350.84 110.07 
M 351.51 111.41 354.19 116.76 
M 354.86 118.1 355.53 119.44 
M 366.91 142.2 368.25 144.88 
M 374.27 156.93 374.94 158.27 
M 375.61 159.61 378.29 164.97 
M 378.96 166.31 379.63 167.65 
M 380.3 168.98 380.82 170.03 
M 371 145.15 372.45 148.05 
M 373.2 149.54 373.68 150.51 
M 375.02 153.18 375.69 154.52 
M 377.03 157.2 381.01 165.17 
M 373.73 145.36 375.03 147.97 
M 375.43 148.77 377.07 152.05 
M 380.55 159 381.01 159.93 
M 373.09 138.84 373.76 140.18 
M 374.43 141.52 377.61 147.89 
M 377.68 148.04 379.78 152.23 
M 376.47 140.37 380.58 148.59 
M 379.2 140.59 381.01 144.21 
M 363.52 103.98 364.52 105.99 
M 365.19 107.33 365.86 108.67 
M 380.63 138.21 381.01 138.97 
M 366.9 105.5 367.23 106.17 
M 373.65 108.53 373.98 109.19 
"/></svg>