<svg xmlns="http://www.w3.org/2000/svg" width="520" height="320"><rect x="0" y="0" width="520" height="320" fill="floralwhite"/><rect x="10" y="10" width="500" height="300" stroke="black" stroke-width="1" fill="none"/><path stroke="black" stroke-width="1" fill="none" stroke-linecap="round" stroke-linejoin="round" d="
M 94.06 141.49 99.6 139.82 109.74 137.45 120.06 135.99 140.79 133.88 161.45 131.19 171.83 130.31 182.24 129.87 192.66 129.67 223.91 129.77 234.33 129.58 244.75 129.74 255.14 130.44 275.89 132.37 286.24 133.55 296.53 135.22 337.48 142.93 347.52 145.7 357.23 149.47 365.29 156.08 369.63 160.18 
M 369.63 188.37 358.2 197.31 348.28 200.47 338.11 202.78 317.52 205.92 307.25 207.69 297.03 209.73 286.77 211.54 276.41 212.63 266.01 213.22 245.18 213.8 224.34 213.72 213.93 214.05 193.13 215.42 182.72 215.68 172.31 215.3 161.95 214.18 151.68 212.43 141.49 210.24 121.21 205.45 110.96 203.59 104.68 202.89 
M 125.35 162.28 129.16 163.04 
M 159.27 164.57 162.71 164.76 
M 169.7 165.17 173.67 165.82 
M 177.76 166.54 179.79 166.88 181.57 166.96 
M 185.06 167.04 190.12 166.92 191.66 166.72 
M 194.65 166.24 197.56 165.66 
M 205.72 163.34 208.02 162.16 
M 213.79 160.95 217.08 160.75 
M 220.27 160.46 223.21 159.93 
M 226.05 159.33 227.49 159.05 230.78 158.9 238.13 159.53 241.5 159.56 247.57 159.07 250.83 159.07 260.77 159.34 262.75 159.68 
M 266.96 160.59 273.44 162 275.31 162.15 
M 278.93 162.28 282.49 162.29 
M 286.3 162.51 292.49 163.26 296.47 163.57 310.88 163.22 322.62 162.17 
M 326 161.96 340.38 160.83 345.5 161.19 
M 349 161.58 357.1 162.63 360.68 163.51 368.48 166.17 
M 105.58 201.11 107.24 203.17 
M 108.72 142.42 106.46 144.91 
M 108.11 192.06 109.58 194.08 
M 111.89 197.3 116.34 203.55 
M 110.91 147.76 104.25 154.73 
M 108.1 176.92 108.22 177.14 
M 118.25 193.39 120.44 196.72 
M 123 144.02 120.63 146.36 
M 118.29 148.74 112.52 154.85 109.13 158.68 
M 134.53 204.55 136.4 207.7 
M 137.33 137.79 135.08 142.51 134.17 143.94 
M 127.14 150.99 125.94 152.14 122.8 156.09 
M 143.5 203.64 145.03 206.54 
M 146.52 209.42 147.67 211.57 
M 147.97 137.33 146.7 138.38 145.75 139.76 
M 144.18 142.84 143 146.33 
M 141.71 149.72 140.98 151.33 140.06 152.75 
M 138.08 155.47 133.58 160.38 
M 150.22 198.65 153.4 204.74 
M 155.3 143.18 153.89 144.11 152.81 145.37 
M 148 154.6 146.21 157.51 
M 144.49 160.49 142.87 163.49 
M 158.71 196.48 161.27 201.01 165.3 208.7 
M 167.03 211.86 168.7 214.91 
M 164.38 146.46 161.41 148.19 
M 158.75 150.24 157.55 151.38 155.81 154.35 153.65 159.25 
M 169 196.54 176.55 209.9 
M 178.2 212.98 179.61 215.57 
M 178.1 145.03 177.27 146.57 175.2 149.24 169.95 153.47 167.54 155.79 165.4 158.39 161.86 164.76 
M 178.27 193.92 183.48 203.46 
M 185.24 206.65 190.15 215.49 
M 194.16 136.3 192.01 138.92 
M 188.18 144.63 184.19 152.59 182.31 155.48 180.19 158.14 177.92 160.65 174.28 164.37 
M 187.94 191.52 191.41 198.55 200.5 214.95 
M 200.81 142 198.54 144.54 
M 196.36 147.17 195.31 148.53 192.46 152.89 
M 190.73 155.98 188.46 160.92 186.8 164.06 184.88 167.04 
M 196.97 189.44 200.12 195.81 
M 204.84 204.76 206.4 207.72 
M 213.66 139.27 209.82 142.69 207.49 145.2 202.41 152.24 
M 200.37 155.04 199.35 156.44 197.6 159.54 196.88 161.23 
M 206.94 190.49 210.02 197.16 212.7 201.98 
M 214.72 205.41 216.72 208.82 
M 218.44 211.93 219.44 213.88 
M 224.92 139.51 223.87 140.88 222.55 141.99 
M 219.76 144.05 215.41 147.01 214.11 148.14 
M 211.62 150.53 208.28 154.51 206.42 157.52 205.69 159.23 
M 212.83 183.2 213.78 185.27 
M 217.56 193.48 221.79 200.63 
M 224.13 204.41 226.08 207.79 
M 227.76 210.89 229.34 213.76 
M 233.94 137.87 229.3 142.95 
M 224.5 147.92 220.86 151.64 213.25 158.74 211.41 161.16 
M 220.7 179.21 221.7 181.1 
M 223.31 184.22 226.65 191.33 228.28 194.46 239.4 213.8 
M 244.63 133.71 242.51 136.43 
M 240.3 139.07 235.87 144.4 
M 233.62 147.06 230.12 150.94 225.09 155.77 222.81 158.42 221.4 160.33 
M 230.45 177.66 232.07 180.81 
M 233.56 183.85 237.54 192.4 
M 239.29 195.67 249.88 213.69 
M 248.36 137.47 241.64 147.87 239.54 150.69 237.24 153.34 232.64 157.28 
M 238.99 174.07 242.94 181.9 247.53 190.33 
M 253.4 200.72 259.95 213.41 
M 260.51 135.39 259.53 136.81 254.78 141.76 251.59 145.91 
M 249.56 148.79 241.72 159.54 
M 249.53 174.2 251.39 177.6 
M 255.45 184.73 257.54 188.35 
M 259.56 191.88 264.54 201.28 
M 267.05 206.55 269.91 212.3 
M 268.27 138.72 262.64 145.36 257.22 152.22 
M 254.97 154.91 251.4 159.08 
M 257.33 170.21 260.08 175.2 269.52 190.42 277.03 204.24 280.9 210.7 
M 283.3 134.75 280.25 139.17 279.11 140.53 
M 276.77 143.18 274.37 145.77 
M 272.05 148.45 270.92 149.83 268.9 152.81 266.61 155.52 262.82 158.61 
M 271.14 174.88 273.69 178.71 
M 277.8 185.29 282.28 193.15 
M 285.93 198.84 291.53 207.42 
M 293.21 135.55 292.07 136.92 291.18 138.54 
M 287.51 144.97 280.02 155.23 278.03 158.33 274.91 162.18 
M 281.86 173.09 292.86 189.95 
M 294.48 192.41 298.14 197.64 
M 300.14 200.37 303.63 205.03 
M 302.63 140.72 299.1 144.78 296.99 147.75 293.32 154.3 291.23 157.34 288.77 160.01 286.18 162.46 
M 296.92 177.19 310.3 195.82 315.32 202.37 
M 313.71 142.23 312.39 143.42 310.17 146.24 298.61 163.54 
M 306.15 173.51 321.68 193.51 
M 323.28 195.62 325.56 198.74 
M 328.03 141.09 326.41 143.22 324.05 145.79 318.87 150.57 316.56 153.29 309.79 163.27 
M 319.34 175.04 321.75 177.9 
M 324.05 180.63 330.28 188.35 335.48 195.23 
M 337.19 143.55 336.05 144.8 332.03 150.45 329.69 153.01 328.41 154.19 
M 325.86 156.59 320.22 162.33 
M 325.59 168.5 335.25 179.54 340.48 185.81 345.01 191.6 
M 348.49 146.07 343.02 149.95 340.56 152.19 335.91 157.07 330.64 161.64 
M 331.69 162.75 344.82 176.89 354.81 188.41 
M 358.26 151.79 356.55 152.27 353.65 153.77 351 155.55 348.1 157.1 340.38 160.83 
M 352.67 169.89 359.18 174.89 367.46 181.54 
M 324.17 197.01 325.8 195.33 326.77 193.39 327.94 192.14 
M 310.36 199.98 309.63 200.87 309 202.06 307.33 203.18 306.96 203.95 
M 157.78 205.23 156.76 206.18 152.88 207.75 152.24 208.32 151.72 209.15 
M 226.87 197.75 224.96 197.86 221.56 196.55 220.74 196.92 
M 133.92 166.76 132.28 165.51 131.8 164.95 131.45 164.29 130.99 162.68 130.23 161.29 129.98 160.53 129.91 159.35 130.04 158.98 130.76 158.45 
M 307.12 189.37 306.78 190.09 307.07 192.69 306.97 193.26 
M 337.17 200.62 337.43 198.95 337.73 198.2 337.68 197.6 
M 136.26 195.57 136.33 197.78 136.22 198.4 134.46 201.5 
M 364.02 192.76 362.77 191.66 362.04 191.27 361.18 191.33 360.75 191.62 
M 292.58 143.13 292.26 142.02 292.42 141.47 292.87 141.19 294.23 141.02 
M 339.79 192.45 338.45 191.92 336.23 191.49 333.7 190.36 332.46 189.38 331.93 188.77 331.15 187.39 331.06 186.89 
M 315.14 154.07 318.33 156.14 
M 228.21 185.53 228.53 184.25 228.32 181.48 228.07 180.78 227.14 179.26 226.91 178.22 
M 347.82 157.58 346.11 156.62 341.15 154.94 340.57 154.62 340.12 153.82 339.95 152.32 339.39 151.61 
M 145.21 202.68 141.36 202.18 139.59 202.8 138.31 203.64 
M 324.65 204.89 326.65 203.05 328.98 201.98 330.07 201.84 
M 141.31 165.26 141.68 164.38 
M 222.5 132.61 222.24 131.44 222.49 129.77 
M 185.66 202.24 182.76 203.73 180.49 205.27 179.46 206.55 
M 114.26 151.41 113 152.4 
M 175.26 161.78 174.68 161.34 173.1 161.15 172.41 160.91 171.32 160.05 
M 217.03 210.76 216.23 210.55 215.18 210.81 214.58 211.32 213.57 212.75 213.04 213.21 211.68 213.51 210.06 213.46 
M 116.11 152.04 115.53 152.18 115.1 152.69 114.1 153.35 
M 272.28 207.89 271.51 208.53 271.15 208.51 270.25 207.77 269.65 206.94 268.45 204.49 268.37 203.98 268.64 201.87 
M 257.43 184.32 256.65 182.83 255.74 182.32 253.5 181.72 252.05 181.53 250.56 181.58 
M 280.61 178.32 281.49 179.12 282.8 179.04 283.63 178.63 285.47 176.67 
M 274.09 138.18 273.73 138.54 273.58 138.99 273.64 140.14 273.38 141.52 
M 234.77 158.26 237.67 157.5 238.07 157.7 239.17 158.78 
M 166.36 154.33 167.4 155.07 
M 227.86 164.52 228.43 164.69 229.58 164.44 230.84 163.23 
M 333.73 200.94 333.58 200.06 334.02 199.1 334.16 198.06 
M 235.96 211.77 234.96 210.89 232.77 210.2 231.71 209.56 231.26 209.13 230.73 208.06 
M 256.54 169.27 253.92 169.01 252.71 169.11 250.47 171.06 
M 207.98 164.38 206.43 163.75 206.06 163.37 205.61 162.05 205.67 161 205.29 160.21 204.54 159.67 203.59 159.55 
M 295.18 173.88 295.89 173.27 296.25 172.11 296.24 171.04 295.65 169.26 295.78 168.36 
M 184.17 201.3 181.2 203.57 177.47 205.3 176.11 206.2 175.17 207.06 
M 156.36 130.81 199.81 58.76 200.54 59.19 159.51 131.38 
M 168.89 129.65 204.03 70.25 204.76 70.67 171.97 130.31 
M 181.47 129.11 209.85 81.75 210.58 82.16 184.52 129.82 
M 194.04 128.91 215.76 92.11 216.5 92.52 197.08 129.63 
M 206.62 129.01 222.28 101.6 223.02 101.99 209.62 129.73 
M 219.17 129.19 229.31 109.99 230.07 110.35 222.18 129.82 
M 231.74 128.99 237.9 117.32 238.67 117.65 234.71 129.58 
M 244.33 129.2 247.67 124.21 248.44 124.54 247.22 129.9 
M 251.65 129.68 253.05 130.26 
M 196.38 66.5 196.31 69.08 196.7 71.46 197.8 73.53 198.6 74.46 200.52 76.19 
M 201.43 76.72 201.74 79.42 202.48 81.88 203.89 83.95 204.83 84.85 207.01 86.48 
M 207.93 87.01 208.28 89.54 209.06 91.81 210.48 93.65 211.43 94.42 213.59 95.79 
M 214.51 96.3 215.04 98.75 215.96 100.88 217.49 102.55 218.48 103.21 220.71 104.34 
M 221.65 104.83 222.34 107.14 223.4 109.11 225.02 110.55 226.03 111.08 228.3 111.91 
M 229.26 112.36 230.38 114.58 231.82 116.4 233.72 117.6 234.84 117.99 237.28 118.49 
M 238.25 118.91 239.69 121.1 240.5 122.06 242.41 123.52 244.74 124.33 247.34 124.71 
M 248.31 125.12 248.44 126.92 248.95 128.39 250.04 129.36 252.56 130.05 
M 196.31 67.8 196.42 70.3 196.7 71.46 197.8 73.53 199.53 75.34 
M 193.48 73.33 193.58 75.61 193.83 76.67 194.84 78.56 196.41 80.21 
M 190.64 78.86 190.74 80.92 190.96 81.87 191.87 83.59 193.3 85.08 
M 187.81 84.39 187.89 86.23 188.1 87.08 188.91 88.61 190.18 89.95 
M 184.98 89.92 185.23 92.29 185.95 93.64 187.07 94.82 
M 182.14 95.45 182.36 97.5 182.98 98.67 183.96 99.68 
M 179.31 100.97 179.5 102.71 180.02 103.69 180.84 104.55 
M 176.48 106.5 176.52 107.47 176.81 108.33 177.73 109.42 
M 201.56 78.09 202.03 80.69 203.1 82.96 203.89 83.95 205.89 85.68 
M 198.63 84.16 199.05 86.46 199.45 87.51 200.69 89.33 202.46 90.87 
M 195.71 90.23 196.07 92.23 196.41 93.13 197.5 94.72 199.03 96.05 
M 192.78 96.3 193.09 97.99 193.78 99.47 194.3 100.11 195.6 101.24 
M 189.86 102.37 190.35 104.39 191.1 105.5 192.17 106.42 
M 186.93 108.44 187.32 110.02 187.91 110.89 188.74 111.61 
M 208.07 88.29 208.59 90.72 209.06 91.81 210.48 93.65 212.48 95.13 
M 205.41 94.1 205.86 96.19 206.8 97.96 207.48 98.7 209.2 99.97 
M 202.75 99.9 203.13 101.65 203.46 102.43 204.49 103.76 205.92 104.82 
M 200.09 105.71 200.66 107.74 201.49 108.81 202.65 109.67 
M 197.43 111.51 197.66 112.58 198.14 113.49 199.37 114.52 
M 214.75 97.55 215.43 99.87 215.96 100.88 217.49 102.55 219.57 103.8 
M 211.69 105.04 212.22 106.83 212.62 107.6 213.8 108.88 215.39 109.84 
M 208.64 112.54 209 113.78 209.65 114.8 211.21 115.88 
M 221.97 106.01 222.8 108.19 223.4 109.11 225.02 110.55 227.14 111.52 
M 219.26 114.33 220.19 116.34 221.25 117.28 222.63 117.91 
M 229.8 113.5 231.05 115.56 231.82 116.4 233.72 117.6 236.04 118.27 
M 108.24 174.82 119.05 173.67 126.34 172.37 129.01 172.13 134.24 172.1 136.98 171.76 141.5 170.59 144.09 170.31 152.44 170.23 159.87 168.85 164.9 168.42 167.46 168.66 170.11 168.59 177.23 169.18 179.55 168.86 189.97 168.86 192.27 168.47 195.06 168.52 197.69 168.8 202.47 168.95 205.28 169.26 213.11 169.7 215.58 170.52 220.77 171.27 223.2 171.2 225.91 170.77 228.96 170.94 231.58 170.81 234.65 171.05 220.38 179.39 217.8 180.15 211.61 183.97 209.09 184.79 207.09 186.09 204.78 186.98 200 188.6 192.6 190.77 189.93 191.1 187.44 191.62 182.59 192.77 180.34 193.53 175.22 194.45 170.77 196.04 168.4 196.7 165.99 197.06 160.12 196.41 157.64 196.54 154.9 196.41 152.62 196.64 150.09 196.5 147.79 196.57 145.26 196.43 142.43 195.97 138.06 195.81 133.42 195.15 130.62 194.33 127.05 193.74 115.78 191.4 111.75 188.97 108.22 186.33 
M 108.22 176.08 119.23 175.58 123.81 174.89 126.47 174.69 136.95 174.69 141.9 173.74 147.35 173.73 152.82 174.1 157.66 173.56 165.08 173.23 167.68 174.06 170.24 174.31 172.32 174.04 177.44 174.47 180.37 174.89 
M 116.66 177.51 121.54 177.15 131.99 177.45 142.06 177.08 147.5 177.25 153.24 178.1 155.42 178.16 157.33 177.97 167.25 178.68 
M 108.22 178.59 113.8 179.18 116.69 179.3 126.35 179.3 131.98 180.03 139.74 180.42 142.28 180.83 147.4 181.09 153.06 182.02 157.39 182.27 161.87 182.94 164.47 183.73 166.94 183.94 169.2 184.85 177.29 186.64 179.86 187.63 184.51 188.81 
M 113.8 180.91 126.45 181.7 134.13 183.06 136.93 183.27 139.78 183.73 144.99 184.83 147.47 185.04 153.01 186.01 155.58 186.91 162.84 188.98 
M 116.87 182.88 126.56 184.02 131.68 185.66 134.51 185.97 137.07 186.7 139.94 187.08 142.51 187.77 145.05 188.2 149.84 190.64 154.8 192 157.36 193.13 
M 111.09 183.25 113.91 184.09 124.27 186.2 128.91 187.54 131.83 188.73 134.87 189.46 137.46 190.45 
M 114.01 185.7 116.73 186.59 119.4 187.13 121.75 188.1 126.13 189.51 128.68 190.51 131.64 192.03 134.66 193.04 136.89 194.36 
M 116.67 188.65 119.03 189.64 
M 136.47 209.09 139.14 212.82 141.39 215.12 143.84 216.7 145.86 218.63 147.07 221.35 148.57 223.49 149.81 227.25 151.66 229.38 149.7 231 148.56 233.29 147.18 235.35 145.33 240.46 144.06 242.74 139.75 245.24 137.66 246.1 132.43 248.66 131.6 245.65 131.95 239.68 132.56 237.64 132.29 235.32 130.22 227.76 129.31 222.39 129.22 219.51 127.4 212.92 126.51 210.28 125.87 206.45 
M 134.84 208.68 137.16 212.56 139.32 214.99 141.52 216.66 143.42 218.8 144.37 220.97 146.09 222.75 147.71 225.74 148.98 229.55 
M 133.21 208.27 134.88 212.25 139.17 216.5 142.63 221.15 143.56 223.02 145.59 225.04 147.3 227.23 148.6 231.51 
M 131.58 207.87 133.19 211.75 134.83 214.25 137.07 216.17 140.53 221.3 141.6 223.99 142.03 226.82 143.48 229.2 144.57 232.25 
M 129.95 207.46 133.02 213.91 136.86 218.41 137.79 221.32 138.37 225.03 138.62 228.14 
M 128.32 207.06 130.81 213.56 132.68 216.54 133.43 219.16 134.41 221.36 134.96 224.92 135.67 228.27 136.61 230.97 138.32 232.19 
M 126.7 206.65 127.72 210.44 128.75 213.01 130.98 219.75 131.14 222.3 132.19 227.78 134.78 232.52 135.45 237.54 136.3 239.83 136.43 242.52 
M 328.52 203.72 331.91 211.17 331.19 211.62 325.96 205.32 
M 316.05 205.55 328.23 226.31 327.52 226.77 313.52 207.19 
M 303.65 207.79 317.8 230.68 317.1 231.15 301.15 209.48 
M 291.31 210.17 305.93 235.34 305.22 235.79 288.75 211.78 
M 278.86 211.8 290.63 235.7 289.89 236.1 276.21 213.25 
M 266.33 212.61 278.42 240.14 277.66 240.51 263.61 213.92 
M 253.76 213.01 262.63 235.14 261.87 235.49 251.01 214.26 
M 241.19 213.24 247.68 231.06 246.91 231.39 238.41 214.43 
M 233.25 213.19 235.35 221.11 234.58 221.43 230.46 214.35 
M 330.67 210.99 328.82 213.64 328.05 215.02 327.04 217.91 326.78 221 327.01 224.23 
M 326.12 224.81 323.59 224.59 321.22 224.85 319.13 225.83 318.17 226.58 316.38 228.39 
M 315.51 228.98 312.7 228.82 310.06 229.13 307.67 230.17 306.57 230.95 304.47 232.83 
M 303.58 233.39 300.44 232.29 297.31 231.7 294.17 231.88 292.6 232.25 289.45 233.31 
M 288.52 233.82 285.69 233.58 283 233.83 280.54 234.81 279.4 235.57 277.21 237.39 
M 276.26 237.85 273.38 235.73 271.89 234.83 268.73 233.55 265.32 233 261.75 232.93 
M 260.79 233.37 258.04 231.42 256.61 230.61 253.61 229.51 250.39 229.15 247.03 229.28 
M 246.06 229.69 244.34 226.79 242.28 224.27 239.73 222.34 238.27 221.58 235.14 220.31 
M 324.84 224.67 322.37 224.64 321.22 224.85 319.13 225.83 317.27 227.45 
M 319.16 218.66 316.8 218.78 315.44 219.42 314.23 220.47 
M 314.09 228.87 311.35 228.89 310.06 229.13 307.67 230.17 305.51 231.86 
M 309.92 224.42 307.82 224.44 306.83 224.62 305 225.42 303.34 226.71 
M 305.75 219.97 303.6 220.11 302.33 220.67 301.17 221.57 
M 302.01 232.81 298.88 231.91 297.31 231.7 294.17 231.88 291.03 232.75 
M 297.76 227.9 295.36 227.21 294.15 227.05 291.75 227.19 289.34 227.85 
M 293.51 222.98 291 222.39 289.32 222.49 287.65 222.95 
M 287.09 233.67 284.32 233.62 283 233.83 280.54 234.81 278.3 236.44 
M 283.4 228.82 281.27 228.79 280.26 228.94 278.38 229.7 276.65 230.95 
M 279.7 223.97 277.52 224.06 276.21 224.58 275.01 225.45 
M 274.83 236.76 271.89 234.83 268.73 233.55 267.05 233.19 263.54 232.93 
M 269.18 228.6 267.27 227.35 266.26 226.87 264.12 226.28 261.84 226.11 
M 259.42 232.36 256.61 230.61 253.61 229.51 252.03 229.25 248.72 229.18 
M 254.76 225.84 252.93 224.7 251.98 224.28 249.95 223.82 247.8 223.77 
M 369.63 160.18 372.48 159.09 377.27 156.73 381.33 154.5 383.71 152.83 386.77 151.37 389.27 149.45 390.33 148.17 391.97 146.99 395.93 144.68 398.71 143.33 401.1 142.56 404.18 139.34 406.45 137.91 411.25 135.32 413.97 133.61 416.02 133.33 418.48 131.26 421.1 129.84 423.4 128.22 424.95 126.52 426.36 125.41 428.37 125.92 431.04 125.51 434.9 120.53 437.14 119.61 439.41 118.06 440.85 115.93 443.51 115.31 446.81 114.06 448.73 112.64 451.04 110.53 452.62 109.43 454.28 107.9 457.15 106.17 460.16 104.93 480.61 108.7 490 117.06 489.51 124.74 489.18 127.31 489.2 133.11 486.33 136.59 483.63 140.91 481.99 142.8 480.07 144.38 478.53 146.36 476.69 148.03 475.85 150.71 473.51 155.43 469.69 158.74 468.3 160.9 466.42 162.58 464.03 163.76 462.37 165.63 461.76 168.4 460.4 170.42 458.14 174.91 456.16 179.68 457.14 181.75 458.87 184.15 460.72 187.34 462.37 189.07 477.08 202.46 478.25 203.98 478.32 205.26 482.17 212.75 482.5 214.29 483.65 216.65 484.61 219.14 485.01 221.63 486.18 224.89 486.46 227.28 488.69 233.69 488.92 236.24 486.95 237.83 483.83 238.27 479.85 241.41 477.23 244.24 459.4 251.23 456.09 248.63 453.99 247.34 451.57 246.95 449.49 245.6 447.67 244.93 446.13 242.51 444.11 240.78 440.32 238.28 437.01 236.76 434.62 233.46 432.96 232.45 428.06 230.87 426.2 228.48 424.02 226.52 421.91 224.97 419.25 224.14 417.49 222.99 415.9 221.56 411.34 219.3 409.14 217.97 407.37 215.75 405.58 213.88 402.88 213.11 398.85 209.91 397.17 208.97 392.55 205.34 390.14 203.73 387.55 202.39 385.56 200.72 381.83 197.12 377.43 193.94 375.17 192.02 369.63 188.37 
M 369.63 162.52 372.51 161.8 380.06 158.47 381.94 157.26 384.52 156.39 387.36 155.79 389.64 154.35 394.4 150.1 397.37 149.07 400.43 147.38 402.99 147.25 409.21 144.56 412.14 143.86 414.58 142.95 419.45 140.1 421.03 138.62 426.31 134.44 431.56 133.34 437.39 131 439.22 129.51 441.39 129.01 444.34 127.62 446.2 127.49 
M 372.52 164.46 379.9 161.84 382.56 161.16 385.24 160.05 390.34 158.53 396.63 154.99 399.06 154.44 402.31 153.3 404.84 152.67 406.95 151.42 409.48 150.9 411.42 150.2 413.94 149.73 415.91 149.09 418.33 148.95 421.57 148.27 428.23 145.28 431.92 142.58 433.86 140.84 439.99 139.26 442.49 138.35 447.88 137.88 450.62 136.82 452.25 134.89 455.02 133.14 
M 377.37 165.94 380.25 165.35 382.87 165.36 386.08 164.47 388.72 163.6 390.56 162.43 392.48 161.58 397.67 160.29 403.45 160.25 405.81 159.74 408.43 158.68 410.27 157.65 414.97 155.91 417.52 155.42 420.09 156.12 421.82 155.83 424.22 154.63 426.94 153.02 429.33 150.98 431.66 151.19 433.78 150.79 435.97 149.47 438.39 149.11 441.71 148.87 445.2 148.16 449.06 147.62 
M 372.57 169.89 375.15 169.7 380.55 168.8 383.53 168.86 389.31 167.97 391.64 167.34 393.21 166.51 395.24 165.74 398.39 165.72 401.34 166.05 403.54 165.25 405.94 164.81 411.03 163.3 413.61 162.74 416.97 162.53 422.93 163.13 427.84 161.25 429.86 159.99 432.52 159.11 435.44 158.75 437.98 159.12 440.18 159.04 442.72 158.62 446.98 158.82 451.22 157.24 461.62 157.02 
M 377.99 172.37 383.78 172.61 386.53 172.19 392.03 171.89 393.93 171.34 395.99 171.15 398.59 171.37 401.53 171.37 407.01 170.72 409.86 170.72 412.46 170.95 417.61 170.14 420.72 170.42 423.84 170.2 425.25 169.44 426.51 168.34 428.73 168.39 432.09 168.78 435.09 167.85 436.54 167.96 438.97 167.54 442.1 169.28 446.49 169.85 449.47 169.07 452.61 169.07 455.35 168.84 456.52 167.71 459.66 167.51 
M 375.39 175.49 377.84 175.51 380.59 176.04 383.66 176.25 385.89 176 388.25 176.31 390.88 176.25 395.98 175.69 402.9 176.94 406.09 177 408.41 176.82 410.46 176.08 416.49 176.63 417.99 178.06 421.12 178.31 424.16 177.84 426.26 178.37 428.82 178.64 431.47 178.51 434.04 178.82 
M 369.63 176.58 372.76 177.56 380.81 178.8 386.3 180.14 389.17 180.58 391.74 180.15 395.28 181.02 398.15 181.15 403.4 183.27 406.68 183.53 409.62 183.43 413.11 184.09 417.95 184.36 423.27 183.88 426.35 184.01 431.36 186.39 434.24 185.94 436.11 186.09 
M 375.49 180.7 383.15 182.5 388.81 184.44 391.19 184.22 392.86 184.96 397.85 186.23 400.09 187.65 403.23 188.58 408.36 189.4 411.19 189.46 419.14 190.77 421.84 191.77 424.06 192 429.55 193.4 432.29 193.62 435.08 194.6 437.35 196.03 438.99 196.85 442.08 197.6 443.71 198.64 446.26 198.97 452 199.34 
M 375.31 183.62 380.3 185.03 382.92 186.33 388.15 187.87 392.61 189.94 394.58 190.48 400.03 193.17 401.59 194.16 403.96 195.01 407.28 194.97 412.66 196.92 415.02 197.4 419.07 199.51 421.14 200.26 427.29 201.26 430.64 202.22 432.79 202.23 435.69 202.74 438.91 202.77 441.37 204.11 443.62 204.81 445.03 206.5 447.61 208.59 449.52 208.77 452.37 209.98 455.13 211.9 
M 375.13 186.44 387.93 192.06 390.01 192.83 393.94 195.45 396.51 196.21 398.97 197.45 401.88 198.24 406.89 200.02 408.95 200.48 413.5 203.08 419.74 207.2 422.21 208.54 425.53 209.33 428.55 209.28 431.25 209.8 435.08 212.03 437.4 212.56 439.52 214.01 442.33 215.26 447.84 218.93 450.17 219.87 451.71 221.02 453.11 222.76 455.21 224.35 461.5 224.25 464.3 224.39 468.23 226.52 
M 369.63 185.95 375.07 189.28 382.51 193.45 384.55 194.76 386.51 196.32 391.3 198.84 393.54 200.39 396.27 201.86 398.28 203.46 400.31 204.56 403.02 204.78 409.32 209.07 412.2 208.93 414.43 210 416.07 212.43 418.52 214.55 423.02 216.65 424.98 218.41 427.44 219.8 431.78 221.66 433.16 222.57 435.54 223.32 439.06 224.06 442.04 225.53 443.4 226.89 447.45 230.03 450.24 231.37 453.21 233.31 455.63 234.24 457.5 235.99 458.84 238.03 460.86 239.05 
M 284.84 133.33 289.37 135.8 299.34 119.09 300.41 116.62 302.08 114.74 304.35 113.46 307.07 112.63 309.02 111.1 313.7 110.73 316.28 110.12 318.53 109.18 320.86 109.17 326.23 111.28 328.45 111.95 330.68 113 333.06 113.55 334.78 111.71 335.91 113.42 339.81 120.95 340.74 124.57 342.31 129.23 342.62 131.58 343.32 134.21 341.39 145.38 337.83 143 
M 288.99 133.98 291.1 132.74 295.46 129.04 296.37 126.98 
M 293.13 134.64 294.64 133.92 296.27 132.57 299.1 127.64 299.9 125.47 300.84 123.85 302.02 121.27 
M 297.27 135.36 299.19 134.49 300.5 132.59 301.7 130.18 304.87 126.29 305.73 121.41 
M 301.39 136.15 303.4 135.06 304.86 133.42 310.76 125.5 312.2 123.1 314.34 117.87 315.49 115.94 317.11 114.36 318.1 111.98 319.42 109.75 
M 305.51 136.94 307.77 136.05 314.46 129.07 315.66 127.17 
M 309.63 137.74 312.03 136.93 313.49 135.45 316.3 132.01 318.44 127.61 319.1 124.95 320.06 122.06 321.43 119.28 323.44 117.71 
M 313.75 138.53 315.97 137.74 317.14 136.13 319.46 131.82 323.73 126.04 327.21 122.07 328.79 120.65 
M 317.87 139.3 320.01 138.12 321.39 136.37 324 131.74 325.91 130.25 327.17 127.59 328.92 125.21 329.95 123.01 331.34 121.64 333.19 120.98 333.63 119.04 335.3 116.41 
M 322.01 140.03 324.29 138.5 329.3 132.17 330.11 130.15 333.83 125.31 334.46 124.1 334.77 121.92 336.4 119.76 
M 326.14 140.75 328.3 139.77 330.49 138.07 333.59 134.21 335.31 132.76 336.75 130.41 339.17 128.72 
M 330.26 141.53 332.63 140.51 334.63 139.17 336.32 137.52 337.12 135.44 
M 334.38 142.33 339.31 139.49 
M 39.72 183.94 43.67 178.56 47.84 171.7 50.8 168.4 54.42 165.39 62.18 159.9 69.71 153.71 73.87 150.82 78.18 148.39 86.38 144.42 94.05 141.48 97.49 144.15 99.21 147.18 103.31 153.11 105.05 156.14 106.21 159.26 107.96 165.6 107.92 168.93 108.2 172.21 108.25 175.52 107.48 182.3 107.91 185.55 108.11 192.16 107.77 195.54 106.8 199.03 104.68 202.65 94.97 202.16 87.93 201.48 81.61 200.81 70.72 199.19 65.76 198.21 57.04 195.99 53.36 194.8 50.13 193.47 
M 89.3 164.04 89.86 166.8 89.1 172.16 
M 87.54 184.47 88.12 186.55 88.38 188.83 87.9 191.5 80.97 191.21 
M 64.55 190.73 59.4 190.14 55.43 189.24 
M 48.3 193.53 37.92 188.82 36.18 187.55 35.76 185.43 37.16 183.72 39.34 183.64 40.98 184.97 43.97 187.93 50.17 193.41 
M 50.03 194.2 45.83 195.66 39.74 197.43 33.95 199.45 31.88 199.71 30.23 198.5 30 196.34 31.52 194.9 44.09 193.95 49.85 193.35 
M 57.91 183.42 56.51 178.13 56.91 172.66 59.06 167.62 62.73 163.55 67.52 160.9 72.92 159.94 78.33 160.79 83.18 163.35 86.93 167.34 89.18 172.34 89.69 177.8 88.4 183.12 85.44 187.74 81.15 191.15 75.99 192.98 70.51 193.03 65.31 191.3 60.95 187.98 57.91 183.42 
M 57.71 182.96 57.04 181.01 56.61 178.99 56.44 176.93 56.53 174.87 56.87 172.83 57.46 170.86 58.29 168.97 59.34 167.2 60.61 165.57 62.07 164.11 63.7 162.84 65.47 161.79 67.36 160.96 69.33 160.37 71.37 160.03 73.43 159.94 75.49 160.11 77.51 160.54 79.46 161.21 
M 59.26 182.31 58.66 180.56 58.27 178.74 58.12 176.9 58.2 175.04 58.47 173.4 
M 62.47 166.07 64.64 164.23 66.24 163.28 67.93 162.53 69.71 162 71.54 161.7 73.4 161.62 75.24 161.78 77.06 162.16 78.81 162.76 
M 60.81 181.67 60.27 180.11 59.94 178.5 59.8 176.86 60.1 173.82 
M 63.78 167.14 65.59 165.61 67 164.77 68.51 164.11 70.09 163.64 71.72 163.37 73.36 163.3 75 163.44 76.61 163.77 78.17 164.31 
M 62.36 181.03 61.6 178.26 61.48 176.83 61.77 174.02 
M 65.16 168.12 66.54 167 67.77 166.26 70.47 165.28 73.33 164.98 74.76 165.1 77.53 165.86 
M 63.91 180.39 63.51 179.22 63.16 176.79 63.48 174.11 
M 66.56 169.11 68.54 167.76 69.67 167.26 72.06 166.71 74.52 166.76 76.89 167.41 
M 67.02 179.32 66.46 177.2 66.64 174.96 
M 68.93 171.39 70.86 170.31 73.02 169.93 75.19 170.27 77.12 171.29 78.62 172.89 79.52 174.89 79.73 177.07 79.21 179.2 78.03 181.05 76.31 182.41 74.25 183.14 72.06 183.16 69.98 182.47 68.23 181.14 67.02 179.32 
M 67.05 175.03 66.54 176.06 
M 70.6 170.46 69.7 172.25 
M 68.22 175.21 66.72 178.21 
M 72.03 170.1 70.5 173.18 
M 69.31 175.56 67.25 179.67 
M 73.35 169.98 71.29 174.11 
M 70.36 175.97 67.97 180.75 
M 74.52 170.16 72.05 175.12 
M 71.46 176.28 68.81 181.59 
M 75.61 170.49 72.8 176.13 
M 72.58 176.56 69.72 182.28 
M 76.61 171.02 70.75 182.73 
M 77.52 171.72 71.83 183.09 
M 78.34 172.59 73.06 183.15 
M 79.02 173.76 74.34 183.11 
M 79.55 175.21 75.87 182.57 
M 79.58 177.67 77.8 181.23 
M 39.88 183.71 44.6 188.43 
M 42.04 180.83 45.41 184.19 
M 44.1 177.86 46.87 180.62 
M 46.02 174.73 50.63 179.35 
M 47.93 171.61 51.27 174.95 
M 50.3 168.95 54.97 173.62 
M 52.98 166.59 56.81 170.42 
M 55.82 164.4 59.06 167.63 
M 58.77 162.31 61.44 164.98 
M 61.72 160.22 64.22 162.73 
M 64.49 157.95 67.46 160.93 
M 67.25 155.68 70.17 158.61 
M 70.06 153.46 74.78 158.18 
M 73.04 151.4 76.92 155.28 
M 76.19 149.52 80.05 153.38 
M 79.46 147.75 84.42 152.71 
M 82.83 146.09 86.37 149.63 
M 86.26 144.48 90.59 148.81 
M 89.82 143.01 93.29 146.48 
M 93.52 141.67 97.42 145.56 
M 46.96 173.16 47.1 174.24 47.58 175.1 48.95 176.48 49.6 176.89 
M 84.48 196.03 80.81 196.23 
M 102.67 197.23 101.87 197.53 100.49 198.67 98.97 199.23 98.5 199.26 
M 69.59 198.28 72.31 197.3 74.86 196.71 76.6 195.48 78.14 193.63 
M 71.39 197.61 74.74 196.72 75.25 196.46 76.94 195.09 78.42 193.18 79.53 192.71 
M 102.57 181.03 101.93 178.24 101.94 177.39 102.34 176.27 102.99 175.26 103.35 174.1 
M 89.37 162.58 89 163.24 88.9 163.78 89.04 166.77 88.78 168.35 
M 99.07 184.38 98.09 183.95 96.64 183.62 94.69 183.73 92.57 184.14 88.54 185.9 
M 97.63 144.39 95.75 142.8 
M 105.3 200.9 104.26 200.28 102.66 199.91 101.82 200.21 100.16 201.32 
M 102.29 174.01 102.44 172.43 102.62 171.97 103.59 170.61 104.34 168.95 
M 89.75 183.83 87.51 186.22 86.09 187.33 
M 96.8 160.13 94.75 160.76 92.35 161.19 90.45 161.9 89.24 163.02 88.93 163.82 
M 85.28 199.4 86.59 198.48 87.33 196.87 87.32 196.43 87.03 196.27 
M 98.91 184.45 97.92 184.09 96.46 183.85 93.51 184.1 90.94 184.86 88.57 185.92 
M 85.06 164.84 84.9 165.18 
M 77.22 153.54 78.3 154.3 81.28 154.91 84.05 156.55 85.93 157.4 
M 52.41 189.84 52.75 188.14 53.25 187.03 54.21 185.87 55.61 185.13 
M 95.97 179.94 95.09 179.92 93.52 180.35 91.13 181.88 89.47 183.26 87.36 186.2 
M 66.14 156.57 66.81 156.79 69.78 158.66 70 159.15 70.2 160.42 
M 93.56 197.7 94.36 196.23 94.8 194.34 94.8 193.58 94.26 190.06 94.02 189.35 92.98 187.75 
M 62.43 195.91 62.25 194.54 62.4 191.75 61.13 188.83 60.91 187.92 
M 106.68 197.9 105.66 196.53 105.77 195.65 106.76 194.75 107.89 194.32 
M 73.13 195.29 74.23 194.06 74.73 192.99 
M 107.92 171.14 108.11 171.17 
M 103.58 155.01 98.29 159.05 97.25 159.36 93.52 159.77 92.58 159.77 90.98 159.24 
M 98.69 146.25 97.95 146.02 
M 96.55 158.77 93.67 158.7 92.7 158.5 89.16 156.33 87.53 154.69 
M 96.25 192.22 94.95 189.74 93.56 188.05 93.21 187.17 93.16 186.49 92.89 186.25 92.46 186.2 
M 74.96 194.47 75.5 192.98 
M 98.41 194.62 97.94 193.83 96.21 192.08 94.93 189.6 93.54 187.96 93.24 187.09 93.23 186.61 
M 102.52 158.66 101.03 159.86 100.09 160.33 97.11 160.98 96.28 161.55 94.51 163.24 
M 93.53 175.13 93.84 175.3 93.77 175.59 
M 83.86 159.41 88.04 162.93 88.46 163.47 88.66 164.11 
M 99.73 166.91 103.29 166.09 103.93 166.37 104.82 167.13 
M 57.51 171.27 56.91 170.66 55.94 170.33 54.98 170.55 54.46 171.23 
M 46.19 183.33 48.08 182.4 52.26 179.35 56.54 177.77 
M 85.94 200.25 86.8 199.74 87.47 199.12 88.45 197.14 88.88 195.6 
M 98.45 145.84 97.42 145.47 96.51 144.83 93.99 142.27 
M 82.41 155.24 83.97 156.39 85.79 157.29 86.96 157.34 87.17 157.25 87.29 156.87 
M 68.17 197.09 69.46 193.62 70.03 193.31 72.11 193.02 
M 99.2 198.48 98.83 198.44 98.61 198.18 98.18 196.36 
M 92.58 153.11 91.28 154.38 90.75 154.69 90.07 154.84 88.59 154.82 87.2 154.46 86.59 154.69 
M 74.74 199.79 75.95 198.43 78.36 196.21 79.38 194.89 
M 93.99 154.4 93.3 154.43 91.72 155 90.4 155.22 88.35 154.93 87.34 154.49 86.92 154.54 
M 92.85 178.88 91.74 180.46 89.6 182.41 87.47 185.94 86.96 186.42 
M 89.82 147.34 89.17 147.38 88.82 147.55 88.61 147.88 87.16 151.69 86.39 152.91 86.08 154.05 
M 102.18 161.44 101.34 161.71 99.87 161.38 97.54 161.4 96.69 161.81 96.11 162.62 
M 90.47 180.49 88.98 181.83 88.52 182.62 
M 88.33 183.23 88.18 183.99 87.42 185.63 86.17 187.02 
M 52.45 167.08 52.43 167.04 
M 47.89 176.43 49.18 178.32 49.43 178.44 49.65 178.3 
M 48.47 185.45 49.36 183.67 51.78 181.36 53.09 179.81 53.78 179.28 56.54 178.24 
M 99.17 182.43 98.03 181.39 97.26 181.02 95.48 180.82 93.77 181.05 90.11 182.97 87.99 185.41 
M 89.29 167.98 88.85 169.45 88.3 170.38 
M 79.69 157.21 81.11 156.73 82.28 156.64 83.56 156.99 85.52 157.98 86.65 158.18 87.02 158.01 
M 92.16 147.53 89.89 147.11 88.84 147.18 87.22 151.54 86.69 152.41 
M 50.13 193.47 50.85 193.94 
M 45.42 192.28 45.51 192.74 45.7 192.4 
M 40.94 190.22 40.79 190.61 40.87 192.01 41.21 190.88 41.59 190.51 
M 36.8 188 36.22 189.24 36.24 191.27 36.64 189.52 37.52 188.53 
M 49.89 193.53 50.97 193.31 
M 45.21 193.85 45.72 192.92 45.84 193.33 46.21 193.75 
M 40.72 194.16 40.79 193.33 41.29 192.36 41.28 193.23 41.73 194.09 
M 36.25 194.47 36.23 193.23 36.86 191.8 36.72 193.12 37.26 194.41 
M 31.78 194.87 31.68 193.13 32.44 191.24 32.17 193.02 32.79 194.75 
M 37.94 198.03 42.39 198.68 45.52 198.96 48.61 198.99 51.71 198.77 54.83 198.34 61.12 197.09 
M 52.23 198.15 50.38 197.09 
M 48.52 197.09 48.26 197.25 
M 41.41 197.59 42.99 198.03 45.15 198.35 45.76 198.96 
M 53.27 197.58 52.62 197.09 
M 54.87 197.49 54.19 197.09 
M 94.3 141.36 95.71 142.77 
M 98.02 145.07 103.33 150.38 
M 99.51 139.85 104.77 145.11 
M 104.72 138.35 112 145.63 
M 110.42 137.33 120.41 147.33 
M 116.18 136.38 123.15 143.35 
M 122.28 135.77 130.76 144.25 
M 128.41 135.18 137.86 144.64 
M 134.58 134.64 139.98 140.04 
M 140.57 133.91 150 143.35 
M 146.47 133.1 151.53 138.17 
M 152.38 132.29 162.34 142.25 
M 158.3 131.5 165.26 138.46 
M 164.4 130.89 171.02 137.51 
M 170.6 130.38 175.81 135.59 
M 176.99 130.05 183.48 136.54 
M 183.5 129.84 192.68 139.02 
M 190.06 129.7 199.89 139.52 
M 196.72 129.63 202.74 135.65 
M 203.44 129.65 212.79 138.99 
M 210.25 129.74 219.1 138.59 
M 217.03 129.8 223.66 136.44 
M 223.72 129.78 229.94 136 
M 230.27 129.62 238.02 137.37 
M 236.95 129.59 246.62 139.25 
M 243.76 129.68 253.5 139.41 
M 250.92 130.12 256.3 135.51 
M 258.21 130.7 268.06 140.55 
M 265.58 131.36 271.21 136.99 
M 273.01 132.07 282.68 141.74 
M 280.51 132.86 286.33 138.68 
M 288.23 133.86 293.97 139.6 
M 296.24 135.16 305.99 144.91 
M 304.55 136.76 311.01 143.21 
M 312.87 138.36 322.33 147.82 
M 321.09 139.86 328.01 146.79 
M 329.27 141.33 339.17 151.23 
M 337.61 142.96 343.33 148.68 
M 346.88 145.52 352.94 151.57 
M 357.76 149.68 364.71 156.63 
M 112.5 202.85 113.01 203.87 
M 108.14 188.26 111.14 194.27 
M 114.9 201.77 116.2 204.38 
M 114.43 194.97 119.49 205.09 
M 116.97 194.17 119.22 198.67 
M 121.47 203.17 122.31 204.86 
M 108.05 170.46 110.14 174.64 
M 125.6 205.56 126.07 206.5 
M 96.17 140.82 97.29 143.07 
M 107.8 164.09 112.3 173.09 
M 98.73 140.07 99.11 140.83 
M 111.12 164.85 115.73 174.07 
M 103.18 143.09 108.43 153.6 
M 117.44 171.61 118.5 173.73 
M 103.87 138.59 104.99 140.84 
M 106.49 143.85 111 152.85 
M 120.01 170.87 121.24 173.34 
M 106.52 138.03 106.9 138.78 
M 109.9 144.78 112.9 150.79 
M 109.22 137.55 110.34 139.8 
M 111.1 141.3 115.6 150.31 
M 126.11 171.33 126.62 172.34 
M 111.92 137.07 117.55 148.33 
M 141.35 195.93 143.82 200.87 
M 114.61 136.59 121.74 150.85 
M 126.25 159.86 127 161.36 
M 130 167.36 131.5 170.37 
M 117.39 136.26 123.77 149.02 
M 125.27 152.02 127.52 156.52 
M 128.27 158.03 134.28 170.04 
M 120.56 136.73 124.31 144.23 
M 128.82 153.24 129.57 154.74 
M 132.57 160.75 137.07 169.76 
M 150.45 196.52 152.84 201.28 
M 123.36 136.45 129.36 148.46 
M 130.11 149.96 132.36 154.46 
M 136.12 161.97 140.57 170.87 
M 153.41 196.56 155.63 201 
M 125.78 135.42 127.65 139.17 
M 129.16 142.17 134.41 152.68 
M 139.66 163.19 143.27 170.4 
M 156.31 196.47 157.68 199.22 
M 158.43 200.72 159.18 202.22 
M 128.59 135.17 135.72 149.43 
M 136.47 150.93 137.22 152.43 
M 141.73 161.44 146.18 170.35 
M 159.23 196.45 159.74 197.47 
M 160.49 198.97 161.24 200.47 
M 131.4 134.92 137.03 146.18 
M 145.29 162.69 148.29 168.7 
M 134.22 134.67 139.85 145.93 
M 148.86 163.95 150.36 166.95 
M 137.39 135.15 142.65 145.66 
M 151.66 163.67 153.16 166.68 
M 140.14 134.77 145.4 145.28 
M 152.9 160.29 154.41 163.3 
M 142.89 134.4 148.15 144.9 
M 153.4 155.41 156.4 161.42 
M 175.17 198.95 176.67 201.96 
M 145.27 133.27 151.65 146.03 
M 155.4 153.54 158.4 159.54 
M 177.17 197.07 179.42 201.58 
M 148.01 132.89 155.15 147.15 
M 159.65 156.16 161.15 159.16 
M 161.9 160.67 163.4 163.67 
M 180.67 198.2 181.42 199.7 
M 187.42 211.71 188.18 213.21 
M 188.97 214.79 189.38 215.63 
M 150.76 132.51 157.9 146.78 
M 161.65 154.28 168.4 167.8 
M 187.17 205.33 187.92 206.83 
M 189.42 209.83 190.92 212.84 
M 153.51 132.14 159.89 144.9 
M 162.9 150.9 168.15 161.41 
M 169.65 164.42 170.4 165.92 
M 189.17 203.45 189.92 204.95 
M 192.92 210.96 194.57 214.26 
M 156.26 131.76 158.14 135.51 
M 159.64 138.52 163.39 146.02 
M 165.65 150.53 170.9 161.04 
M 192.67 204.58 193.42 206.08 
M 159.03 131.43 160.91 135.18 
M 164.66 142.69 165.41 144.19 
M 167.67 148.7 168.42 150.2 
M 169.92 153.2 170.67 154.7 
M 188.97 191.3 189.44 192.23 
M 161.1 129.69 161.85 131.19 
M 162.6 132.69 164.86 137.2 
M 179.12 165.72 180.62 168.73 
M 162.32 126.26 162.7 127.01 
M 170.2 142.02 172.46 146.53 
M 173.96 149.53 174.71 151.03 
M 180.71 163.04 183.63 168.86 
M 163.92 123.58 177.81 151.35 
M 184.56 164.86 186.57 168.89 
M 200.33 196.39 204.83 205.4 
M 165.51 120.89 182.4 154.67 
M 204.17 198.21 206.43 202.72 
M 167.11 118.21 185.5 154.99 
M 187.75 159.5 188.5 161 
M 207.27 198.53 208.77 201.53 
M 168.71 115.53 173.59 125.29 
M 175.84 129.79 187.85 153.81 
M 208.87 195.85 210.37 198.85 
M 170.3 112.84 175.18 122.6 
M 178.94 130.11 190.2 152.63 
M 171.9 110.16 178.28 122.92 
M 181.28 128.93 193.29 152.95 
M 194.04 154.45 194.79 155.95 
M 195.55 157.45 197.05 160.46 
M 173.5 107.48 180.63 121.74 
M 183.63 127.75 185.88 132.25 
M 186.63 133.75 200.14 160.78 
M 215.16 190.8 216.66 193.81 
M 175.09 104.8 182.97 120.56 
M 185.98 126.57 187.48 129.57 
M 189.73 134.07 192.73 140.08 
M 193.48 141.58 198.74 152.09 
M 199.49 153.59 203.24 161.1 
M 214.5 183.62 219.01 192.62 
M 177.06 102.87 185.32 119.38 
M 191.33 131.39 192.83 134.39 
M 194.33 137.4 200.33 149.41 
M 202.59 153.91 204.84 158.41 
M 206.34 161.42 210.09 168.92 
M 216.2 181.15 222.85 194.45 
M 225.11 198.95 225.86 200.45 
M 178.66 100.18 189.92 122.7 
M 193.67 130.21 195.92 134.71 
M 197.43 137.72 202.68 148.22 
M 204.18 151.23 213.19 169.24 
M 218.54 179.94 219.19 181.25 
M 222.95 188.76 224.45 191.76 
M 226.7 196.27 228.2 199.27 
M 181.01 99 195.27 127.53 
M 196.02 129.03 205.78 148.54 
M 209.53 156.05 216.84 170.68 
M 221.02 179.02 221.54 180.07 
M 226.8 190.58 229.05 195.09 
M 229.8 196.59 230.55 198.09 
M 184.1 99.32 197.62 126.35 
M 201.37 133.85 207.37 145.86 
M 214.13 159.37 216.38 163.88 
M 218.63 168.38 220.02 171.15 
M 185.7 96.64 195.46 116.16 
M 196.21 117.66 196.96 119.16 
M 197.71 120.66 202.21 129.67 
M 204.47 134.17 210.47 146.18 
M 214.22 153.69 214.98 155.19 
M 215.73 156.69 219.48 164.2 
M 191.8 102.96 197.8 114.97 
M 198.56 116.48 212.82 145 
M 217.32 154.01 221.83 163.02 
M 243.6 206.56 244.35 208.06 
M 186.26 86.02 187.39 88.27 
M 194.9 103.28 196.4 106.29 
M 197.15 107.79 198.65 110.79 
M 199.4 112.29 215.92 145.32 
M 218.92 151.33 227.93 169.34 
M 246.69 206.88 247.44 208.38 
M 248.94 211.38 250.1 213.69 
M 187.86 83.34 190.49 88.59 
M 194.99 97.6 198.75 105.11 
M 202.5 112.61 204 115.61 
M 204.75 117.12 209.25 126.12 
M 210.01 127.63 216.01 139.64 
M 216.76 141.14 217.51 142.64 
M 221.27 150.14 224.27 156.15 
M 225.77 159.15 228.77 165.16 
M 237.78 183.17 239.28 186.18 
M 249.04 205.69 249.79 207.2 
M 250.54 208.7 253 213.62 
M 189.46 80.65 192.83 87.41 
M 197.34 96.42 201.84 105.43 
M 206.35 114.43 207.1 115.93 
M 207.85 117.44 222.11 145.96 
M 222.86 147.46 225.86 153.47 
M 239.38 180.49 242.38 186.5 
M 246.88 195.5 247.63 197.01 
M 252.14 206.01 255.9 213.54 
M 191.05 77.97 195.18 86.23 
M 198.93 93.73 204.19 104.24 
M 206.44 108.75 224.46 144.78 
M 225.96 147.78 227.46 150.78 
M 228.21 152.29 231.21 158.29 
M 241.72 179.31 245.48 186.82 
M 248.48 192.82 250.73 197.33 
M 253.73 203.33 256.74 209.34 
M 193.77 77.54 199.78 89.55 
M 202.03 94.05 207.29 104.56 
M 209.54 109.07 226.8 143.6 
M 228.31 146.6 232.06 154.11 
M 244.07 178.13 245.57 181.13 
M 248.57 187.14 256.08 202.15 
M 196.12 76.36 202.13 88.37 
M 204.38 92.87 208.88 101.88 
M 211.89 107.89 235.16 154.43 
M 238.91 161.93 239.66 163.44 
M 241.16 166.44 241.91 167.94 
M 246.42 176.95 247.92 179.95 
M 250.92 185.96 253.17 190.46 
M 254.67 193.46 258.43 200.97 
M 195.84 69.92 196.31 70.86 
M 200.02 78.28 201.7 81.63 
M 204.31 86.87 204.69 87.62 
M 206.94 92.12 231.71 141.67 
M 232.46 143.17 236.97 152.18 
M 239.97 158.18 245.23 168.69 
M 248.98 176.2 249.73 177.7 
M 259.49 197.22 260.24 198.72 
M 212.71 97.78 231.85 136.06 
M 235.6 143.57 237.85 148.07 
M 240.86 154.08 246.86 166.09 
M 252.12 176.6 252.87 178.1 
M 220.02 106.53 233.16 132.8 
M 237.66 141.81 238.41 143.31 
M 244.42 155.32 252.67 171.84 
M 226.6 113.82 234.49 129.59 
M 236.74 134.09 237.49 135.59 
M 238.24 137.09 242.74 146.1 
M 251 162.62 255.5 171.62 
M 271.27 203.15 272.77 206.15 
M 232.25 119.25 245.39 145.52 
M 253.65 162.03 257.4 169.54 
M 273.91 202.57 276.92 208.57 
M 235.95 120.76 240.83 130.52 
M 243.83 136.53 248.33 145.53 
M 257.34 163.55 260.34 169.55 
M 276.86 202.58 279.11 207.09 
M 241.04 125.06 250.42 143.83 
M 260.18 163.35 262.43 167.85 
M 279.7 202.38 281.2 205.39 
M 244.88 126.87 251.26 139.63 
M 261.77 160.65 264.02 165.15 
M 270.77 178.66 271.52 180.16 
M 272.27 181.67 278.28 193.68 
M 283.53 204.19 285.79 208.69 
M 248.17 127.58 248.32 127.88 
M 249.39 130.03 255.77 142.79 
M 257.28 145.79 258.03 147.3 
M 258.78 148.8 261.03 153.3 
M 264.03 159.31 265.53 162.31 
M 273.04 177.32 279.8 190.83 
M 252.43 130.22 258.06 141.48 
M 258.81 142.98 268.56 162.5 
M 275.32 176.01 279.82 185.02 
M 255.49 130.47 258.87 137.22 
M 261.87 143.23 264.87 149.23 
M 265.62 150.73 270.88 161.24 
M 273.88 167.25 279.88 179.26 
M 283.64 186.77 286.64 192.77 
M 258.56 130.73 266.44 146.49 
M 269.44 152.5 276.2 166.01 
M 277.7 169.01 280.7 175.02 
M 286.71 187.03 290.46 194.54 
M 261.63 130.99 262 131.74 
M 262.75 133.25 268.76 145.26 
M 273.26 154.26 279.27 166.28 
M 280.02 167.78 283.77 175.28 
M 289.03 185.79 291.28 190.3 
M 292.78 193.3 293.53 194.8 
M 264.7 131.27 271.83 145.53 
M 275.59 153.04 280.84 163.55 
M 285.34 172.56 286.85 175.56 
M 291.35 184.57 295.1 192.07 
M 267.79 131.57 271.17 138.32 
M 278.67 153.34 282.43 160.84 
M 287.68 171.35 289.93 175.86 
M 294.44 184.87 295.19 186.37 
M 270.88 131.87 274.25 138.62 
M 282.51 155.14 284.76 159.64 
M 289.27 168.65 290.77 171.65 
M 291.52 173.15 292.27 174.66 
M 293.02 176.16 295.27 180.66 
M 273.96 132.17 276.59 137.42 
M 284.85 153.94 287.85 159.94 
M 295.36 174.95 296.86 177.96 
M 277.06 132.49 279.69 137.75 
M 287.2 152.76 288.7 155.77 
M 292.45 163.27 293.2 164.77 
M 295.45 169.28 299.96 178.29 
M 280.17 132.83 284.3 141.08 
M 287.3 147.09 291.05 154.6 
M 294.05 160.6 301.56 175.61 
M 309.07 190.63 310.57 193.63 
M 283.27 133.16 287.4 141.41 
M 288.9 144.42 291.9 150.42 
M 297.91 162.43 309.17 184.95 
M 309.92 186.45 312.92 192.46 
M 286.42 133.58 289.79 140.33 
M 292.05 144.84 297.3 155.34 
M 300.3 161.35 306.31 173.36 
M 307.06 174.86 311.56 183.87 
M 314.57 189.88 316.07 192.88 
M 321.32 203.39 321.97 204.69 
M 289.61 134.08 292.23 139.34 
M 294.49 143.84 314 182.88 
M 320.76 196.39 321.51 197.89 
M 322.26 199.39 324.99 204.84 
M 292.8 134.59 293.92 136.84 
M 296.93 142.85 305.18 159.36 
M 306.69 162.36 314.19 177.38 
M 316.44 181.88 317.19 183.38 
M 322.45 193.89 324.7 198.4 
M 326.2 201.4 327.72 204.44 
M 296 135.12 305.38 153.88 
M 309.14 161.39 316.64 176.4 
M 318.14 179.41 319.64 182.41 
M 325.65 194.42 327.15 197.42 
M 328.65 200.42 330.11 203.34 
M 299.25 135.74 300.37 137.99 
M 301.13 139.49 305.63 148.5 
M 311.63 160.51 313.14 163.52 
M 313.89 165.02 314.64 166.52 
M 316.89 171.02 319.14 175.53 
M 322.14 181.53 323.64 184.53 
M 329.65 196.54 330.4 198.05 
M 303.62 138.62 304.37 140.12 
M 313.38 158.13 314.13 159.64 
M 314.88 161.14 318.64 168.64 
M 320.89 173.15 321.64 174.65 
M 332.9 197.17 334.4 200.17 
M 305.75 136.99 309.13 143.74 
M 313.63 152.75 321.14 167.77 
M 334.65 194.79 335.4 196.29 
M 336.15 197.79 336.9 199.29 
M 309 137.62 312.38 144.37 
M 317.63 154.88 324.39 168.39 
M 325.89 171.39 326.64 172.9 
M 334.9 189.41 338.65 196.92 
M 312.25 138.24 316.38 146.5 
M 319.38 152.5 321.63 157.01 
M 323.13 160.01 327.64 169.02 
M 329.89 173.52 330.64 175.02 
M 337.4 188.54 341.15 196.04 
M 315.5 138.87 320.38 148.63 
M 321.13 150.13 322.63 153.13 
M 327.14 162.14 330.14 168.14 
M 331.64 171.15 333.89 175.65 
M 341.4 190.66 342.15 192.17 
M 318.73 139.45 322.11 146.21 
M 329.61 161.22 332.62 167.23 
M 334.87 171.73 336.37 174.73 
M 342.38 186.75 345.38 192.75 
M 321.95 140.02 324.57 145.27 
M 338.09 172.29 338.84 173.79 
M 344.84 185.81 345.59 187.31 
M 325.17 140.58 327.04 144.33 
M 328.54 147.33 330.8 151.84 
M 328.4 141.16 334.03 152.42 
M 349.79 183.95 350.54 185.45 
M 331.65 141.8 337.28 153.06 
M 340.28 159.06 341.79 162.07 
M 348.54 175.58 353.05 184.59 
M 336.03 144.68 344.29 161.2 
M 346.54 165.7 357.8 188.22 
M 358.55 189.72 360.05 192.73 
M 338.18 143.1 353.57 173.88 
M 355.07 176.88 355.82 178.38 
M 356.57 179.88 358.82 184.39 
M 360.32 187.39 362.57 191.89 
M 341.59 144.05 355.48 171.82 
M 359.98 180.83 361.48 183.83 
M 362.23 185.33 364.48 189.84 
M 346.13 147.25 346.88 148.75 
M 347.63 150.25 350.63 156.25 
M 352.13 159.26 356.63 168.26 
M 348.41 145.94 353.29 155.7 
M 354.79 158.7 355.54 160.2 
M 356.29 161.71 358.54 166.21 
M 352.08 147.41 355.46 154.16 
M 358.46 160.17 359.21 161.67 
M 355.75 148.88 362.13 161.64 
M 359.63 150.75 363.01 157.51 
"/></svg>