<svg xmlns="http://www.w3.org/2000/svg" width="520" height="320"><rect x="0" y="0" width="520" height="320" fill="floralwhite"/><rect x="10" y="10" width="500" height="300" stroke="black" stroke-width="1" fill="none"/><path stroke="black" stroke-width="1" fill="none" stroke-linecap="round" stroke-linejoin="round" d="
M 124.89 117.1 136.23 113.43 147.56 111.17 170.21 108.78 192.87 105.31 204.2 104.03 215.53 103.37 226.85 103.07 238.18 102.95 260.84 103.24 272.16 102.92 283.49 102.95 294.82 103.74 317.48 106.06 328.8 107.41 340.13 109.43 385.44 118.99 396.77 122.51 408.1 127.59 409.05 128.59 
M 409.05 156.15 408.1 157.02 396.77 161.08 385.44 163.95 362.79 167.79 351.46 170.01 340.13 172.58 328.8 174.75 317.48 175.9 306.15 176.51 283.49 177.14 260.84 176.95 249.51 177.56 238.18 178.53 226.85 179.25 215.53 179.35 204.2 178.56 192.87 176.82 181.54 174.35 170.21 171.43 158.89 168.27 147.56 165.56 136.22 163.81 
M 130.54 120.87 128.04 116.08 
M 131.76 122.06 134.75 113.91 
M 127.83 116.75 128.81 117.02 
M 134.1 114.92 138.41 113 
M 155.01 131.9 154.05 129.38 148.88 121.62 144.85 118.59 
M 160.53 131.82 163.73 124.25 163.73 119.48 160.48 111.78 159.07 109.88 
M 147.47 117.51 157.61 115.54 
M 148.4 121.84 157.88 122.31 
M 151.71 126.73 157.89 128.18 
M 169.59 161.89 168.54 158 
M 164.96 160.86 165.92 160.66 
M 162.57 119.27 167.75 114.51 171.37 108.61 
M 159.05 110.59 165.07 111.47 
M 169.37 160.93 173.26 155.39 
M 172.26 131.64 169.21 127.29 165.47 124.63 
M 177.96 131.55 180 125.65 180 121.11 177.46 113.78 174.07 108.19 
M 167.14 120.1 175.3 118.16 
M 167.77 123.68 175.44 123.22 
M 168.43 127.02 175.42 128.81 
M 186.69 165.09 186.69 162.74 184.41 155.03 182.41 151.19 
M 175.41 161.42 182.33 159.08 
M 179.09 123.32 182.18 121.91 187.52 117.03 190.96 111.51 190.96 108.1 189.54 105.82 
M 174.48 109.62 184.69 110.14 
M 176.4 112.74 184.87 113.99 
M 185.88 162.86 187.91 161.5 192.71 155.03 195.81 147.72 195.81 145.55 
M 189.37 131.37 187.91 129.4 184.16 126.88 
M 187.34 150.61 190.23 151.01 
M 189.72 105.91 190.44 105.68 
M 200.55 131.2 201.69 128.5 201.69 124.21 198.78 117.28 194.27 111.16 190.75 108.77 
M 186.91 122.46 196.53 121.05 
M 187.64 126.43 196.52 126.44 
M 188 130.3 193.21 131.31 
M 207.1 167.53 207.1 164.68 204.5 157.37 200.47 150.92 197.32 148.4 
M 194.62 163.14 201.98 160.91 
M 200.61 166.97 202.8 167.05 
M 201.33 128.94 205.85 127.19 211.63 122.71 215.36 117.64 215.36 114.5 211.63 109.43 205.85 104.95 203.62 104.09 
M 196.73 113.05 208.42 112.47 
M 197.39 116.06 208.91 116.39 
M 199.7 119.15 208.52 119.52 
M 206.17 166.07 209.2 164.27 214.29 158.23 217.57 151.39 217.57 147.15 214.29 140.31 208.99 134.14 
M 201.04 146 211.95 143.92 
M 201.05 149.03 211.52 148.79 
M 201.85 152.91 212.05 154.6 
M 214.03 115.64 217.24 114.69 222.28 111.72 225.53 108.35 225.53 106.27 222.56 103.19 
M 209.12 105.94 219.67 104.92 
M 209.31 107.6 219.63 106.95 
M 210.46 109.01 219.31 109.59 
M 216.4 147.99 218.2 146.91 222.81 141.39 225.78 135.13 225.78 131.26 222.81 125 218.2 119.48 214.6 117.32 
M 211.08 130.23 220.53 128.71 
M 210.8 133.59 220.22 132.96 
M 210.94 136.24 220.14 138.17 
M 227.25 167.8 225.03 161.59 221.21 155.52 218.23 153.15 
M 214.91 166.86 222.79 164.99 
M 224.72 134.26 228.8 132.65 234.05 128.52 237.44 123.84 237.44 120.94 234.05 116.26 228.8 112.13 224.69 110.51 
M 220.75 119.63 231.6 118.95 
M 220.29 122.28 231.69 122.38 
M 221.92 124.54 231.03 125.5 
M 227.97 167.76 229.71 166.73 234.46 161.11 237.53 154.73 237.53 150.79 234.46 144.42 229.71 138.79 225.99 136.59 
M 222.86 149.95 231.66 147.79 
M 222.35 152.59 231.52 152.83 
M 222.42 155.72 232.27 157.22 
M 236.23 120.03 238.17 119.29 242.11 116.32 244.65 112.96 244.65 110.88 242.11 107.51 238.17 104.54 235.1 103.38 
M 231.76 110.15 240.33 109.5 
M 232.55 111.76 239.96 112.29 
M 232.27 113.78 239.66 114.45 
M 236.43 151.27 238.85 149.72 242.78 144.65 245.31 138.91 245.31 135.36 242.78 129.63 238.85 124.56 236.23 122.87 
M 233.28 133.85 240.94 133.06 
M 232.99 136.9 240.59 136.81 
M 233.09 140.18 240.33 141.65 
M 243.42 166.82 241.59 161.45 238.1 155.6 236.43 154.21 
M 232.34 166.48 239.9 164.69 
M 244.4 136.19 247.66 134.67 252.03 130.6 254.84 126 254.84 123.14 252.03 118.54 247.66 114.47 244.26 112.88 
M 241.26 122.49 249.82 120.7 
M 240.53 124.43 249.82 124.96 
M 241.21 127.02 249.37 128.45 
M 248.71 166.45 252.25 161.97 255.03 155.78 255.03 151.95 252.25 145.75 247.93 140.29 244.56 138.15 
M 241.56 151 249.91 149.24 
M 241.78 154.12 250.1 153.69 
M 241.54 157.29 250.43 159.04 
M 253.32 120.15 254.96 119.37 258.21 116.26 260.31 112.74 260.31 110.57 258.21 107.05 254.96 103.94 253.32 103.16 
M 250.11 110.17 256.81 109.08 
M 249.56 111.53 256.51 111.81 
M 249.83 113.67 256.37 114.02 
M 254.04 152.09 256.41 150.31 259.83 145.18 262.04 139.37 262.04 135.77 259.83 129.95 256.41 124.82 253.84 122.89 
M 250.88 134.26 257.78 133.1 
M 251.39 137.65 258.4 137.23 
M 251.38 140.13 258.4 142.1 
M 261.03 165.89 259.67 161.99 256.14 156.17 254.04 154.44 
M 255.58 166.13 257.91 165.44 
M 261.25 135.68 264.06 134.17 267.99 129.94 270.52 125.15 270.52 122.18 267.99 117.39 264.06 113.16 260.99 111.51 
M 257.98 121.18 265.76 120.47 
M 257.74 123.85 265.8 123.48 
M 257.79 126.48 265.98 127.12 
M 266.49 165.9 269.39 162 272.05 155.73 272.05 151.84 269.39 145.56 265.27 140.02 262.05 137.86 
M 259.31 151.05 267.46 149.45 
M 258.71 154.25 266.86 153.99 
M 259.13 156.77 267.55 158.75 
M 268.38 118.25 270.11 117.35 273.29 114.02 275.34 110.26 275.34 107.93 273.29 104.17 272.1 102.93 
M 265.19 107.45 272.05 106.57 
M 265.57 109.14 271.4 109.45 
M 265.46 111.23 271.32 112.09 
M 271.09 151 272.7 149.67 275.94 144.3 278.03 138.23 278.03 134.47 275.94 128.4 272.7 123.04 270.17 120.95 
M 268.07 132.86 274.59 131.69 
M 268.02 136.74 274.2 136.32 
M 267.91 139.43 274.03 140.71 
M 278.6 165.97 277.21 161.92 273.68 156.07 271.09 153.93 
M 273.28 165.93 275.7 165.32 
M 277.29 134.44 280.25 132.87 284.38 128.5 287.04 123.56 287.04 120.49 284.38 115.55 280.25 111.18 277.03 109.47 
M 273.45 119.68 281.84 118.59 
M 274.05 121.76 281.97 121.84 
M 273.65 124.88 281.98 125.83 
M 283.18 166.01 286.42 161.57 289.1 155.16 289.1 151.19 286.42 144.78 282.28 139.12 279.05 136.91 
M 276 149.84 284.1 147.9 
M 275.92 153.5 284.6 152.95 
M 276.33 156.39 284.12 157.92 
M 285.28 116.94 287.15 116.14 290.98 112.86 293.45 109.13 293.45 106.83 291.23 103.49 
M 281.24 106.11 288.61 105.17 
M 281.38 107.76 289.42 108.29 
M 281.36 109.72 289.26 110.67 
M 288.14 148.94 288.91 148.33 292.4 142.83 294.65 136.59 294.65 132.73 292.4 126.5 288.91 120.99 286.18 118.85 
M 284.02 131.13 290.32 130.15 
M 283.09 134.92 290.49 134.67 
M 283.59 137.76 290.68 139.36 
M 296.44 165.87 295.22 162.29 291.68 156.36 288.92 154.05 
M 292.05 165.92 293.1 165.55 
M 295.29 134.81 298.83 133.18 303.37 128.99 306.29 124.26 306.29 121.32 303.37 116.58 298.83 112.4 295.29 110.76 
M 292.1 120.1 301.14 119.56 
M 292.17 122.75 301.21 122.94 
M 291.56 125.28 301.21 126.43 
M 301.09 165.81 304.33 161.58 307.1 155.23 307.1 151.29 304.33 144.94 300.04 139.32 296.68 137.13 
M 293.07 149.66 302.51 148.8 
M 293.58 152.88 301.88 153.29 
M 293.85 156.88 302.23 158.17 
M 305.69 120.44 308.83 119.34 312.84 116.51 315.42 113.31 315.42 111.32 312.84 108.12 308.83 105.29 308.12 105.04 
M 302.47 110.68 310.79 109.62 
M 302.73 112.28 310.97 112.27 
M 302.46 114.03 310.77 114.52 
M 306.11 150.25 308.09 148.9 311.87 143.78 314.31 137.99 314.31 134.4 311.87 128.6 308.09 123.48 305.25 121.56 
M 302.11 133.15 310.1 131.85 
M 302.65 136.27 309.5 136.03 
M 302.71 139.31 310.01 141.04 
M 313.79 165.53 312.72 162.35 309.23 156.45 306.5 154.15 
M 310.34 165.63 310.52 165.58 
M 314.73 136.26 318.21 134.7 322.66 130.73 325.53 126.23 325.53 123.44 322.66 118.94 318.21 114.96 314.73 113.41 
M 311.2 122.9 320.79 121.43 
M 311.05 124.61 319.92 124.79 
M 311.39 127.26 320.09 128.65 
M 320.08 165.24 322.59 162.07 325.36 155.92 325.36 152.12 322.59 145.97 318.3 140.54 314.94 138.43 
M 311.45 151.11 320.41 149.77 
M 312.1 154.02 319.9 154.01 
M 311.75 156.95 320.59 158.98 
M 324.5 121.32 326.73 120.38 330.21 117.47 332.45 114.17 332.45 112.13 330.21 108.83 328.47 107.37 
M 321.73 111.75 328.57 110.53 
M 321.41 113.45 328.18 112.85 
M 321.75 114.82 328.73 115.33 
M 324.37 151.95 326.85 150.2 330.43 145.15 332.73 139.44 332.73 135.91 330.43 130.19 326.85 125.15 324.5 123.49 
M 321.14 134.65 328.1 132.97 
M 321.83 137.3 328.28 137.42 
M 321.83 140.74 328.78 141.76 
M 330.81 164.38 330.24 162.74 326.77 157.09 324.37 155.14 
M 332.41 136.46 335.58 134.9 339.64 130.9 342.26 126.37 342.26 123.57 339.64 119.04 335.58 115.04 332.41 113.48 
M 329.03 122.89 337.24 121.16 
M 329.51 125.16 337.59 125.18 
M 329.52 127.46 337.12 128.02 
M 338.88 163.28 339.84 162.03 342.45 156.02 342.45 152.3 339.84 146.29 335.79 140.99 332.63 138.92 
M 330.02 151.18 337.88 149.97 
M 329.42 153.74 337.36 154.15 
M 329.32 156.96 338.14 158.27 
M 340.64 120.43 343.12 119.32 346.38 116.39 348.48 113.08 348.48 111.22 
M 338.31 110.7 341.97 109.82 
M 338.2 111.59 344.96 112.18 
M 337.8 113.93 344.64 114.84 
M 341.52 151.29 343.51 149.7 346.73 144.59 348.8 138.79 348.8 135.2 346.73 129.41 343.51 124.29 341.32 122.55 
M 338.42 133.81 345.5 132.43 
M 338.93 136.59 344.93 136.76 
M 338.33 139.77 344.77 141.19 
M 346.69 162.05 343.91 157.41 341.52 155.41 
M 348.61 134.87 351.52 133.32 355.23 129.36 357.63 124.88 357.63 122.1 355.23 117.61 351.52 113.65 348.61 112.11 
M 346.08 121.46 353.04 119.84 
M 345.6 123.38 353.2 123.51 
M 345.69 125.48 352.96 127.02 
M 354.88 160.83 355.25 160.31 357.6 154.41 357.6 150.76 355.25 144.87 351.59 139.67 348.74 137.64 
M 345.77 150.06 353.58 148.06 
M 346.09 152.57 353.02 152.37 
M 346.1 155.75 353.17 157.42 
M 356.7 118.52 359.05 117.43 362.05 114.64 362.32 114.2 
M 356.76 148.3 358.45 146.85 361.36 141.84 363.24 136.16 363.24 132.65 361.36 126.97 358.45 121.96 356.77 120.52 
M 354.31 131.77 359.56 130.31 
M 354.43 134.37 360.09 134.32 
M 354.11 137.02 359.88 138.73 
M 361.24 159.97 358.6 155 356.76 153.27 
M 362.97 130.99 365.84 129.5 369.52 125.67 371.89 121.34 371.89 118.66 370.31 115.77 
M 360.4 117.54 367.63 117.06 
M 360.31 119.82 367.88 119.6 
M 360.08 122.38 367.6 123.56 
M 365.41 159.48 368.28 155.39 370.6 149.57 370.6 145.97 368.28 140.15 364.68 135.02 362.57 133.51 
M 359.38 144.66 366.07 142.95 
M 359.43 148.14 366.67 147.73 
M 358.88 150.84 366.78 152.55 
M 369.59 142.53 371.65 141.02 374.84 136.35 376.89 131.06 376.89 127.79 374.84 122.5 371.65 117.83 371.04 117.38 
M 368.37 126.45 372.87 125.59 
M 366.45 129.37 372.88 129.12 
M 366.98 132.5 372.99 133.12 
M 373.25 158.64 373.25 157.19 371.25 150.87 369.77 148.19 
M 368.17 155 369.74 154.58 
M 365.13 159.27 369.33 158.85 
M 378.46 128.62 381.74 127.15 385.94 123.37 388.17 119.84 
M 375.68 117.7 380.03 117.81 
M 375.25 119.8 384.2 121 
M 378.59 158.02 379.72 157.31 383.81 152.2 386.45 146.4 386.45 142.81 383.81 137.02 379.72 131.9 376.52 129.9 
M 373.05 141.42 381.84 140.45 
M 373.34 145.02 381.83 144.22 
M 373.26 147.74 381.71 149.48 
M 387.3 143.59 390.16 141.75 393.83 137.04 396.19 131.71 396.19 128.41 393.83 123.08 392.31 121.12 
M 384.15 126.9 391.72 125.95 
M 384.78 130.3 391.81 129.93 
M 384.97 132.63 391.48 134.09 
M 392.18 156.07 390.48 151.63 386.78 146.12 385.51 145.18 
M 381.48 156.82 388.66 155.21 
M 397.56 129.98 401.16 128.55 404.43 125.95 
M 393.88 121.64 394.02 121.66 
M 401.98 154.06 402.82 153.09 405.65 147.38 405.65 143.85 402.82 138.14 398.43 133.1 395.35 131.33 
M 391.91 143.08 400.64 141.31 
M 391.36 145.23 400.62 145.98 
M 391.67 148.48 400.56 149.8 
M 405.97 144.09 408.73 142.35 409.05 141.94 
M 402.94 129.13 408.64 128.16 
M 403.07 131.38 409.05 131.41 
M 403.48 134.16 409.05 134.94 
M 408.8 152.17 405.78 147.71 404.63 146.87 
M 138.41 113 138.41 113 
M 159.07 162.13 164.96 160.86 
M 162.83 166.38 166.11 166.64 
M 185.43 171.76 186.69 167.51 186.69 165.09 
M 175.82 165.29 182.89 165.21 
M 175.29 169.11 179.17 170.42 
M 205.08 174.89 207.1 169.2 207.1 167.53 
M 203.62 104.09 203.62 104.09 
M 226.51 175.45 227.49 172.71 227.49 168.46 227.25 167.8 
M 215.38 170.46 223.35 170.17 
M 215.32 173.85 222.15 175.49 
M 226.61 168.57 227.97 167.76 
M 253.32 103.16 253.32 103.16 
M 261.74 173.27 261.96 172.66 261.96 168.58 261.03 165.89 
M 250.42 167.64 255.58 166.13 
M 251.16 170.58 258.09 170.99 
M 262.05 169.71 265.27 167.54 266.49 165.9 
M 264.65 173.28 262.13 171.63 
M 279.24 173.39 279.49 172.65 279.49 168.55 278.6 165.97 
M 268.06 167.24 273.28 165.93 
M 268.15 170.6 275.43 170.72 
M 279.05 169.44 282.28 167.23 283.18 166.01 
M 282.68 173.42 279.38 171.24 
M 291.23 103.49 291.23 103.49 
M 297.5 173.13 297.5 169 296.44 165.87 
M 286.38 167.88 292.05 165.92 
M 285.82 171.33 292.93 171.04 
M 299.57 173.08 297.14 171.51 
M 303.86 167.69 310.34 165.63 
M 314.94 169.61 318.3 167.5 320.08 165.24 
M 315.62 172.49 314.68 171.88 
M 332.48 170.75 332.48 169.13 330.81 164.38 
M 332.63 169.4 335.79 167.33 338.88 163.28 
M 348.8 167.64 347.16 162.83 346.69 162.05 
M 338.59 168.11 345.93 166.11 
M 354.52 165.44 360.15 163.74 
M 362.2 162.29 364.68 160.52 365.41 159.48 
M 388.17 119.84 388.17 119.84 
M 376.52 159.31 378.59 158.02 
M 378.32 162.83 374.99 160.52 
M 392.31 121.12 392.31 121.12 
M 381.07 160.13 388.89 159.94 
M 394.02 121.66 394.02 121.66 
M 408.64 128.16 408.64 128.16 
M 409.05 152.54 408.8 152.17 
M 191.16 105.21 192.88 105.31 
M 205.35 103.68 212.91 43.89 213.85 43.99 208.77 103.76 
M 219.6 102.94 233.14 30.39 234.08 30.55 223.02 103.18 
M 233.86 102.62 250.93 30.43 251.86 30.64 237.28 102.96 
M 248.13 102.72 267.55 30 268.47 30.23 251.54 103.15 
M 262.38 102.72 280.4 37.75 281.32 37.98 265.8 103.1 
M 276.65 102.44 290.3 61.87 291.21 62.15 280.06 102.94 
M 293.21 103.16 294.82 103.74 
M 193.52 105.24 198.78 93.4 201.26 87.38 203.55 81.29 205.62 75.12 209.16 62.59 212.15 49.87 
M 213.34 50 218.12 48.27 220.41 47.25 222.58 46.06 224.63 44.69 228.37 41.41 231.79 37.65 
M 232.97 37.85 236.59 39.03 240.22 39.63 242.02 39.61 243.83 39.36 245.63 38.92 249.23 37.65 
M 250.4 37.91 253.83 38.99 257.24 39.49 258.93 39.42 260.61 39.12 262.28 38.63 265.61 37.27 
M 266.77 37.56 268.8 40.11 271.1 42.16 272.42 42.9 273.84 43.45 275.37 43.82 278.59 44.24 
M 279.75 44.54 280.67 49.78 281.3 52.32 282.11 54.78 283.13 57.16 285.77 61.66 288.93 65.93 
M 290.08 66.28 289.79 74.69 290.08 83.04 290.54 87.18 291.23 91.3 292.12 95.39 294.26 103.53 
M 215.75 49.17 220.41 47.25 222.58 46.06 224.63 44.69 226.55 43.13 230.1 39.56 
M 215.57 55.51 219.68 53.82 221.6 52.77 225.11 50.18 228.24 47.02 
M 215.38 61.85 218.95 60.38 220.62 59.48 223.66 57.23 226.38 54.49 
M 215.2 68.2 218.22 66.95 219.64 66.18 222.22 64.28 224.52 61.95 
M 215.01 74.54 218.65 72.89 220.77 71.32 222.66 69.42 
M 214.83 80.88 217.67 79.59 219.33 78.37 220.8 76.88 
M 234.78 38.48 238.41 39.43 240.22 39.63 242.02 39.61 243.83 39.36 247.43 38.32 
M 234.14 44.94 237.41 45.8 239.03 45.98 240.66 45.96 242.28 45.74 245.53 44.8 
M 233.51 51.4 236.41 52.16 237.85 52.33 240.74 52.11 243.62 51.28 
M 232.87 57.86 235.41 58.53 236.67 58.67 239.2 58.48 241.72 57.76 
M 232.23 64.33 234.41 64.9 236.58 65.01 237.66 64.86 239.82 64.23 
M 231.59 70.79 234.31 71.37 236.12 71.23 237.92 70.71 
M 230.96 77.25 232.41 77.63 233.85 77.7 236.02 77.19 
M 252.11 38.49 255.54 39.34 257.24 39.49 258.93 39.42 260.61 39.12 263.95 37.99 
M 251.17 44.94 254.25 45.71 255.78 45.85 257.3 45.78 258.81 45.52 261.82 44.49 
M 250.22 51.4 252.96 52.08 255.67 52.15 257.02 51.91 259.69 51 
M 249.28 57.86 251.67 58.45 252.86 58.56 255.22 58.3 257.56 57.51 
M 248.33 64.31 250.39 64.83 251.41 64.92 253.43 64.7 255.43 64.01 
M 247.39 70.77 249.95 71.27 251.63 71.09 253.3 70.52 
M 246.44 77.23 247.81 77.57 249.17 77.6 251.17 77.03 
M 267.77 38.87 269.9 41.22 271.1 42.16 272.42 42.9 273.84 43.45 276.96 44.07 
M 266.68 45.29 268.6 47.41 269.69 48.26 270.87 48.92 272.15 49.42 274.96 49.97 
M 265.59 51.72 267.3 53.6 268.27 54.35 270.46 55.39 272.95 55.88 
M 264.51 58.15 266 59.79 266.85 60.45 268.76 61.35 270.95 61.79 
M 263.42 64.58 264.71 65.99 265.43 66.55 267.07 67.32 268.94 67.7 
M 262.34 71 264.01 72.65 265.38 73.29 266.94 73.6 
M 261.25 77.43 262.59 78.75 263.68 79.26 264.93 79.51 
M 280.18 47.17 281.3 52.32 282.11 54.78 283.13 57.16 284.36 59.45 287.32 63.81 
M 278.6 56.95 279.53 61.2 280.2 63.23 282.05 67.08 284.49 70.67 
M 277.02 66.73 277.75 70.07 278.28 71.68 279.74 74.71 281.66 77.54 
M 275.44 76.51 275.98 78.95 276.85 81.25 278.83 84.41 
M 138.73 130.46 225.23 129.68 225.25 130.63 140.03 133.76 
M 140.19 134.47 214.67 137.99 214.64 138.94 140.22 137.76 
M 140.31 138.5 203.91 145.14 203.83 146.08 140.43 141.79 
M 140.35 142.53 193.05 151.13 192.92 152.07 139.81 145.74 
M 139.7 146.42 182.18 155.96 182 156.89 139.95 149.76 
M 139.98 150.5 171.4 159.64 171.17 160.56 140.07 153.78 
M 140.12 154.6 160.8 162.18 160.52 163.09 139.75 157.67 
M 139.47 158.43 150.47 163.6 150.14 164.49 138.24 161.13 
M 138.54 161.22 140.5 162.81 140.12 163.68 136.65 163.19 
M 216.35 130.96 213.54 131.44 211.05 132.38 209.99 133.12 209.06 134.05 208.25 135.13 206.83 137.62 
M 206.79 138.81 204.03 139.01 201.57 139.69 200.5 140.32 199.54 141.14 198.68 142.13 197.16 144.43 
M 197.05 145.62 194.38 145.54 193.13 145.66 191.96 145.97 190.88 146.48 189.02 148.08 187.39 150.2 
M 187.22 151.39 184.67 151.03 183.45 151.03 182.31 151.21 181.24 151.6 179.33 153 177.62 154.93 
M 177.39 156.11 174.97 155.49 173.81 155.36 172.7 155.42 171.65 155.7 169.72 156.89 167.93 158.63 
M 167.63 159.79 165.38 158.92 163.23 158.61 162.2 158.78 161.21 159.17 160.25 159.76 158.4 161.3 
M 158.04 162.44 155.98 161.34 154.97 160.97 153.96 160.8 152.97 160.86 151.02 161.63 149.11 162.96 
M 148.69 164.08 147.01 162.54 145.23 161.55 144.28 161.38 143.29 161.42 142.26 161.67 140.14 162.52 
M 214.92 131.17 212.24 131.83 211.05 132.38 209.99 133.12 209.06 134.05 207.51 136.34 
M 187.38 132.19 185.63 132.62 184.86 132.98 183.57 134.06 182.57 135.55 
M 205.39 138.87 202.75 139.26 201.57 139.69 200.5 140.32 199.54 141.14 197.9 143.25 
M 181.19 138.53 179.47 138.78 178.7 139.06 177.38 140 176.32 141.37 
M 195.7 145.55 193.13 145.66 191.96 145.97 190.88 146.48 189.91 147.19 188.19 149.11 
M 185.93 151.17 183.45 151.03 182.31 151.21 181.24 151.6 180.25 152.21 178.46 153.93 
M 176.17 155.76 173.81 155.36 172.7 155.42 171.65 155.7 170.66 156.2 168.81 157.72 
M 181.54 174.35 184.44 177.49 186.23 180.34 187.6 183.23 189.81 185.89 191.77 188.15 194.26 190.56 196.17 193.08 198.08 194.92 199.89 197.54 202.08 199.55 203.69 201.57 205.96 203.32 206.97 206.82 209.06 209.4 210.96 212.56 212.98 217.75 215.46 220.83 211.24 231.24 209.54 236.82 208.13 239.06 207.3 241.96 207.03 245.44 205.06 250.96 203.83 253.57 201.78 255.49 200.61 258.28 198.89 260.53 196.9 262.57 190.74 264.28 188.43 265.91 185.11 269.14 175.64 280 173.85 274.06 173.53 268.33 173.59 266.06 176.25 260.4 175.88 257.78 173.56 251.36 173.63 247.69 174.34 244.05 174.1 237.53 173.65 235 173.41 231.89 173.79 229.35 174.66 226.14 174.27 223.1 174.21 220.12 174 218.19 172.42 215.29 172.3 205.38 172.84 201.45 172.15 198.61 172.37 195.55 172.17 192.81 172.2 189.99 171.52 187.81 171.5 184.49 171.17 181.37 170.9 175.22 170.21 171.43 
M 179.7 173.87 182.44 177.08 185.47 183.02 186.52 185.84 188.24 188.63 192.32 194.01 194.56 195.69 196.3 197.83 196.94 200.41 198.11 203.12 199.86 205.54 201.86 210.93 203.38 213.37 
M 177.86 173.4 180.23 176.82 181.36 179.83 182.96 182.99 185.57 191.76 187.3 194.28 188.99 197.19 190.78 199.41 192.87 201.5 193.97 204.29 195.99 210.72 197.08 213.33 197.17 215.91 198.33 218.75 200.9 221.34 203.48 223.14 202.63 225.48 203.05 231.76 
M 176.02 172.92 177.96 176.48 180.65 185.73 182.69 194.98 184.25 197.6 186.74 203.79 187.31 206.2 188.33 208.81 190.14 212.16 191.29 214.76 192.15 217.27 192.71 220.72 192.5 223.13 194.61 226.25 196.35 228.15 197.83 230.48 199.09 233.28 199.41 235.98 201.71 240.6 201.96 244.55 
M 174.18 172.45 175.56 176.11 176.36 179.13 176.82 182.27 177.76 185.44 178.4 188.56 179.4 191.69 179.58 194.52 180.64 200.66 184.49 211.05 184.83 214.07 184.74 217.73 186.21 219.96 186.6 222.53 189.66 231.99 189.87 233.68 191.45 235.88 192.54 239.03 193.22 242.13 
M 172.34 171.98 173.38 175.63 174.31 181.93 176.14 190.59 176.5 193.4 176.35 196.28 177.17 202.18 178.02 205.56 178.27 209.13 177.81 212.18 178.43 215.24 179.26 217.99 180.55 220.79 181.23 223.71 180.78 227.18 180.95 230.88 181.99 235.48 182.07 236.96 181.5 239.37 181.89 242.4 184.48 245.71 184.69 247.77 184.52 250.49 183.23 257.03 
M 396.77 161.08 400.43 165.14 404.04 167.72 407.42 169.75 408.48 181.23 406.56 183.31 403.97 184.73 402.2 186.82 399.39 191.56 398.1 194.28 395.25 194.6 391.55 193.93 388.83 194.67 386.71 196.26 384.61 198.13 381.88 199.34 379.26 199.65 377.72 201 375.33 201.01 369.21 199.24 365.74 198.54 363.43 199.01 360.52 199.21 357.98 199.83 353.23 203 347.54 205.31 342.12 205.93 336.18 204.58 333.84 204.52 330.65 203.86 327.88 203.61 325.62 203.19 322.92 202.32 317.22 199.65 314.72 199.62 312.05 199.35 306.99 197.99 302.52 195.88 298.43 193.12 292.48 189.79 288.41 183.14 283.49 177.14 
M 392.17 162.25 395.7 166.11 398.46 168.23 401.16 170.96 
M 387.56 163.42 390.59 168.11 392 171.74 394.15 174.49 396.69 176.85 399.26 177.66 401.48 179.73 401.58 182.48 
M 382.91 164.4 388.46 171.3 389.62 174.58 391.34 177.79 394.97 179.91 400.4 184.04 400.73 187.12 
M 378.24 165.23 381.27 169.03 386.01 173.89 387.65 177.31 389.06 180.99 392.03 182.38 395.5 185.03 398.2 188.81 398.81 191.68 
M 373.56 166.05 378.66 172.57 380.83 175.06 383.1 177.35 
M 368.87 166.81 371.37 170.87 372.51 174.59 374.91 177.47 377.31 179.43 379.75 181.72 381.4 183.74 
M 364.18 167.57 366.62 171.75 368.19 174.92 372.84 180.73 376.2 183.09 378.47 185.17 378.99 187.59 381.19 190.48 
M 359.51 168.43 364.36 175.77 366.67 178.54 369.24 180.96 370.72 183.33 
M 354.85 169.34 357.93 173.53 359.83 176.89 364.33 182.05 366.11 184.51 368.53 187.17 
M 350.19 170.29 353.26 174.43 355.5 177.1 357.83 179.67 360.26 181.98 362.26 185.09 
M 345.56 171.35 348.79 174.91 353.33 179.44 356.9 181.06 358.7 183.92 360.91 186.85 
M 340.93 172.4 346.3 178.96 348.87 181.25 350.79 183.87 353.75 185.73 355.88 188.74 
M 336.27 173.32 338.81 177.18 341.22 180.1 346.36 185.32 348.57 186.92 
M 331.6 174.22 334.14 178.44 335.46 181.26 337.49 184.02 342.49 188.9 345.42 190.77 347.76 192.63 
M 326.91 174.94 331.56 182.13 332.54 185.13 334.29 187.47 336.19 190.66 341.83 197.76 
M 322.18 175.42 327.08 181.65 328.88 184.63 331.13 190.48 333.09 194.67 
M 317.45 175.9 320.2 179.77 322.22 181.96 324.11 185.2 327.96 189.94 329.27 192.2 332.58 200.27 
M 312.71 176.15 315.69 179.88 318.64 182.49 320.5 185.76 321.98 188.82 
M 307.97 176.41 311.05 180.85 313.02 184.54 315 186.65 316.78 189.95 318.45 194.15 319.33 197.06 321.16 199.88 
M 303.22 176.6 308.61 184.77 309.92 188.28 313.02 194.03 314.73 196.79 
M 298.47 176.74 303.68 185.15 305.61 188.97 307.9 192.22 
M 293.72 176.88 298.48 185.77 301.22 188.54 
M 288.98 177 292.93 181.93 295.28 185.77 295.82 188.7 
M 408.1 127.59 410.98 126.84 419.2 122.13 421.61 119.98 426.84 118.02 434.73 113.87 437.64 112.58 438.8 110.86 441.3 109.14 443.29 108.12 445.19 106 447.96 103.92 453.49 100.6 457.58 98.93 460.17 98.2 462.36 97.39 465.39 95.04 469.03 94.27 471.23 92.84 467.12 100.18 465.81 102.84 464.17 105.16 462.01 106.97 460.34 109.32 459.22 112.22 457.75 114.74 456.31 119.89 455.2 122.09 452.1 122.99 450.11 124.93 447.84 126.63 445.89 128.7 444.77 131.61 442.75 133.62 440.54 135.44 438.58 137.47 435.45 141.86 433.45 143.87 433 147.21 433.82 150.94 436.93 153.59 438.46 155.23 439.93 160.57 440.45 163.43 441.27 165.19 442.81 167.48 444.69 174.4 444.75 177.14 445.31 179.23 445.45 183.22 442.46 181.49 440.68 181.08 436.27 176.02 433.26 173.06 430.98 171.51 428.51 171.01 425.44 169.84 423.22 168.57 420.65 165.95 416.88 164.05 414.4 161.97 411.39 159.81 408.1 157.02 
M 414 127.26 416.39 125.77 419.61 124.35 422.38 122.62 427.69 120.65 430.85 119.17 438.42 116.36 445.52 111.06 447.96 109.57 450.02 107.49 452.38 106.27 458.38 103.88 462.12 103.36 
M 408.1 130.53 411.67 130.59 414.51 129.35 420.13 126.42 422.77 124.81 425.58 123.66 428.47 122.65 431.85 121.73 434.31 120.67 436.97 120.9 439.72 119.96 442.68 119.18 445.13 117.69 
M 414.79 131.51 417.82 130.29 426.25 125.9 429.09 125.06 432.57 123.76 
M 418.53 132.59 421.73 131.47 427.52 128.6 433.42 126.61 436 126.31 438.91 126.22 
M 419.17 135.18 422.7 134.55 425.74 133.52 428.73 131.78 432.2 131.91 434.89 131.18 437.17 130.05 
M 408.1 136.42 412.25 137.5 415.87 137.71 419.65 137.43 426.35 135.98 429.06 135.59 432.38 136.19 435.49 135.93 437.18 134.12 
M 412.24 138.98 415.77 139.02 423.36 139.68 426.48 138.9 429.78 138.74 
M 419.65 140.92 423.58 141.74 427.36 142.06 430.57 141.74 
M 420.35 143.34 423.46 144.55 426.86 144.51 
M 413.43 143.34 417.21 144.44 424.3 145.99 
M 417.16 146.28 420.72 147.5 424.18 147.8 426.57 148.88 427.88 149.77 
M 413.12 146.97 416.81 148.21 419.96 149.65 
M 418.79 151.75 421.74 152.92 425.1 153.77 
M 412.5 150.31 421.77 154.61 424.98 155.97 428.5 157.09 433.42 156.63 436.67 157.46 
M 415.05 152.94 424.85 157.81 428.46 158.84 431.71 159.53 435.17 159.96 
M 411.63 153.43 415.01 154.73 417.83 156.41 421.15 158.92 430.9 161.26 434.64 161.73 437.51 163.05 441.38 165.3 
M 417.62 158.39 420.76 160.77 424.19 161.62 427.22 162.14 430.52 163.32 
M 414.6 158.36 421.11 162.11 424.63 163.35 426.52 164.4 429.57 165.7 432.65 166.29 439.25 170.57 441.64 173.42 
M 411.35 158.17 417.6 162.12 424.43 165.26 426.89 167.72 429.58 168.37 431.79 169.29 
M 328.8 107.41 333.35 112.26 348.11 87.01 350.17 85.04 352.8 79.61 354.58 77.36 358 76.8 364.56 78.28 367.27 77.22 369.72 75.81 372.5 74.71 374.25 72.59 376.4 74.63 378.51 77.46 379.43 79.85 382.14 80.74 384.03 79 386.65 78 389.04 78.12 390.76 81.04 393.55 87.93 392.12 91.34 391.98 93.69 392.92 97.13 393.57 100.46 394.27 105.34 390.77 122.89 385.44 118.99 
M 333.48 108.24 335.67 106.66 337.45 104.39 339.98 102.07 340.87 99.53 341.44 96.93 342.62 96.29 343.82 94.72 345.89 93.11 347.06 90.63 
M 338.16 109.07 340.19 107.4 341.39 105.18 342.86 103.03 344.31 101.47 345.03 99.69 346.92 97.91 348.58 94.93 
M 342.82 110 344.79 108.63 346.33 106.62 348.1 104.68 350.97 100.34 352.35 98.06 353.51 94.97 354.85 92.94 357.09 90.21 357.9 87.42 357.76 84.32 359.95 82 
M 347.46 111 351.85 107.05 353.61 105.22 355.53 102.73 356.15 100.67 357.42 99.1 358.75 96.34 360.01 94.44 362.38 91.85 365.9 87.2 366.82 83.98 
M 352.11 112 354.58 110.55 356.58 108.44 362.67 100.28 366.79 95.54 371.39 88.59 371.44 85.11 372.11 81.94 373 78.78 
M 356.75 113 359.23 111.62 361.32 109.85 363.4 108.36 367.72 101.88 368.34 99.71 370.2 97.67 371.87 95.03 372.23 92.57 373.18 90.06 374.24 86.34 
M 361.39 114 364.3 112.71 366.16 110.89 367.77 108.86 370.41 104.56 373.36 96.99 374.99 94.74 376.71 93.12 378.82 90.23 381.39 87.95 
M 366.05 114.94 368.76 113.28 372.57 108.77 374.04 106.21 375.18 104.65 375.97 102.51 377.71 99.82 379.19 96.65 381.23 94.73 382.66 91.76 384.92 89.03 386.38 86.54 
M 370.71 115.85 373.53 114.01 375.4 111.71 377.27 110.12 378.45 107.54 379.96 105.07 383.94 100.12 
M 375.37 116.79 377.81 115.21 379.73 113.47 382.46 109.69 384.15 107.76 386.62 105.6 389.02 103.06 390.45 100.67 392.08 99.33 
M 380.01 117.8 383.11 116.87 384.94 114.54 386.66 112.95 388.72 111.59 
M 56.75 140.7 58.03 139.4 62.72 135.85 65.72 134.06 69.43 132.35 74.07 130.76 84 127.77 93.86 124.13 99.17 122.4 114.98 118.73 119.47 117.84 124.89 117.11 128.69 118.78 130.59 120.92 135.11 125.03 137.03 127.17 138.3 129.47 140.19 134.21 140.12 136.84 140.41 139.37 140.44 141.97 139.53 147.39 139.97 149.89 140.15 155.05 139.74 157.76 138.63 160.63 136.22 163.75 123.91 163.25 115.08 162.58 107.4 161.69 94.21 159.62 88.32 158.31 82.66 156.83 77.39 155.07 
M 117.2 130.51 117.73 132.54 116.56 136.72 115.68 138.64 113.4 142.21 113.78 145.19 114.68 146.75 115.41 148.53 115.85 150.57 115.48 153.02 98.49 152.57 
M 79.08 150.28 75.62 149.41 
M 75.7 154.93 63.78 150.12 55.24 146.29 53.32 144.99 52.81 142.67 54.06 140.75 56.4 140.48 62.36 144.47 69.92 149.87 77.61 154.71 
M 77.49 155.56 72.82 157.4 62.01 162.17 52.9 165.57 50.58 165.71 48.76 163.95 48.81 161.46 50.79 160.15 65.01 157.37 71.83 155.71 77.24 154.66 
M 79.97 151.53 77.27 147.75 75.95 143.29 76.14 138.65 77.83 134.32 80.83 130.77 84.82 128.39 89.37 127.44 93.98 128.02 98.16 130.06 101.45 133.34 103.49 137.52 104.06 142.13 103.11 146.68 100.73 150.67 97.18 153.68 92.85 155.37 88.21 155.56 83.76 154.23 79.97 151.53 
M 99.15 134.98 100.78 138.32 101.24 142.01 100.48 145.65 98.57 148.85 95.74 151.25 92.27 152.6 88.56 152.76 85 151.69 81.97 149.53 
M 85.25 144.83 84.17 143.32 83.64 141.53 83.72 139.68 84.39 137.94 85.59 136.53 87.19 135.57 89.01 135.19 90.85 135.42 92.53 136.24 93.84 137.55 94.66 139.22 94.89 141.07 94.5 142.89 93.55 144.48 92.13 145.69 90.4 146.36 88.54 146.44 86.76 145.91 85.25 144.83 
M 84.49 142.16 88.76 146.43 
M 83.96 139.06 91.02 146.12 
M 86.11 138.65 92.68 145.22 
M 88.11 138.09 93.91 143.88 
M 89.25 136.66 94.67 142.08 
M 91.92 136.76 94.7 139.54 
M 59.04 138.58 62.45 141.99 
M 62.31 136.15 65.88 139.72 
M 65.86 134 69.09 137.23 
M 69.79 132.23 73.32 135.76 
M 74.03 130.77 77.76 134.5 
M 78.45 129.49 80.33 131.37 
M 82.81 128.15 83.72 129.05 
M 87 126.64 88.08 127.71 
M 91.17 125.11 94.17 128.11 
M 95.39 123.63 98.81 127.05 
M 99.73 122.27 103.81 126.35 
M 104.3 121.14 108.48 125.32 
M 108.93 120.07 112.75 123.89 
M 113.6 119.03 118.33 123.77 
M 118.33 118.07 122.84 122.57 
M 123.26 117.3 126.41 120.44 
M 92.91 124.47 92.29 126.28 92.26 127.8 
M 124.53 130.49 124.06 130.61 123.89 130.89 124.04 131.25 124.38 131.5 
M 76.03 131.94 74.51 131.96 72.54 131.28 
M 125.9 129.91 124.24 129.2 122.29 129.03 121.79 129.07 121.08 129.43 120.84 130.08 
M 130 125.32 129.92 126.38 129.14 128.38 129.09 130.2 
M 139.73 149.53 138.48 150.96 138.11 151.1 
M 108.7 120.12 108.8 121.13 109.07 121.64 
M 123.41 160.67 118.84 158.19 118.31 157.71 117.82 156.85 117.03 156.23 116.1 156.08 115.24 156.44 
M 121.18 155.76 116.04 155.53 113.7 156.27 111.69 156.43 
M 69.09 138 69.72 138.18 70.25 138.61 71.88 141.25 
M 119.59 156.84 116.94 155.91 116.35 155.85 114.45 156.51 111.99 156.39 
M 71.08 150.57 72.3 149.15 75.53 147.85 76.1 147.45 76.54 146.85 
M 77.3 135.66 73.8 135.54 72.67 135.11 
M 76.06 140.6 75.6 139.6 75.1 139.16 74.61 138.98 73.62 139.07 72.75 140.14 
M 77.57 134.98 73.76 134.72 72.75 134.2 71.85 133.45 70.8 131.88 
M 113.86 132.04 113.46 132.52 112.88 133.73 111.77 137.8 110.43 139.55 
M 107.1 128.01 109.59 131.27 110.74 135.06 
M 135.14 159.29 136.87 159.9 138.43 160.88 
M 136.81 133.79 135.76 134.04 133.98 135.48 133.63 136.25 
M 122.54 140.09 124.51 139.14 127.88 138.76 
M 87.3 155.29 87.21 156.56 86.53 157.84 
M 117.88 155.36 116.88 155.22 115.96 155.32 113.97 155.95 110.78 156.68 
M 109.36 131.62 109.52 133 109.12 135.32 109.61 137.3 
M 112.03 154.94 110.6 156.5 109.62 157.14 108.58 158.16 
M 129.34 132.58 129.88 134.48 130.76 135.47 
M 70.1 149.98 71.25 148.9 72.11 148.44 74.17 147.82 75.58 147.16 76.1 146.75 76.68 145.75 
M 128.96 161.55 128.27 161.8 126.48 161.99 123.58 161.06 118.92 158.57 118.29 158.08 117.84 157.14 
M 126.47 158.1 123.07 157.19 121.05 157.14 119.69 156.44 118.13 156.23 116.7 155.78 116.08 155.79 114.57 156.4 
M 128.74 145.8 129.4 145.33 131.12 145.81 132.05 145.35 
M 111.32 124.24 110.36 123.54 110.21 121.56 109.84 121.11 
M 70.72 150.36 71.72 149.21 72.53 148.65 74.46 148.03 75.81 147.39 76.77 146.06 
M 138.96 136.99 137.98 137.94 137.55 138.85 137.71 140.07 138.58 141.38 
M 100.46 127.34 98.82 126.73 96.98 126.43 
M 81.93 156.59 80.89 155.03 
M 102.62 133.23 103.05 133.57 104.3 135.23 
M 123.83 163.24 121.49 161.93 120.07 160.42 117.95 158.68 117.14 156.61 
M 109.76 156.12 107.31 159.49 106.89 161.61 
M 103.59 134.35 104.7 135.66 
M 109.44 119.95 108.97 120.77 109 121.53 
M 130.07 139.31 131.05 137.67 131.35 137.6 131.87 138 
M 109.45 133.22 109.01 135.4 109.61 137.79 
M 112.76 134.14 111.84 137.66 111.4 138.45 109.91 140.12 
M 120.76 157.04 119.41 156.36 116.46 155.77 115.87 155.85 114.42 156.45 112.22 156.37 
M 109.58 143.89 110.62 142.91 111.26 142.65 111.9 142.95 113.38 144.59 
M 102.79 152.01 103.35 153.41 103.95 156.5 103.87 157.18 102.33 160.48 102.35 160.94 
M 123.63 149.39 123.04 148.18 122.97 147.55 122.83 142.35 123.03 141.22 123.32 140.67 124.12 139.88 
M 105.75 143.96 105.08 141 105.04 139.33 105.49 137.28 106.11 136.5 106.73 136.27 
M 131.32 152.92 132.11 152.9 133.12 152.27 133.65 151.63 134.59 149.86 135.32 149.12 136.05 148.81 137.3 148.87 
M 123.04 160.21 121.61 159.24 119.3 158.08 118 156.81 117.1 156.18 116.11 156.02 114.83 156.56 
M 103.34 135.42 103.52 134.99 103.8 134.85 104.07 134.95 104.39 135.39 
M 113.08 135.96 112.65 137.28 111.01 140.25 111.18 141.18 
M 67.87 140.83 70 143.32 71.36 144.18 71.83 144.25 
M 64.58 141.4 64.77 142.51 65.13 143.23 67.08 145.09 68.63 146.31 
M 77.41 155.04 78.52 155.63 
M 71.19 153.08 71.14 153.54 71.38 154.45 71.64 153.81 72.08 153.44 
M 65.25 150.73 64.85 152.03 65.07 153.72 65.35 152.3 66.3 151.16 
M 59.45 148.18 58.56 150.52 58.76 152.99 59.06 150.79 60.6 148.67 
M 53.81 145.33 52.27 149.01 52.46 152.26 52.77 149.29 54.94 146.09 
M 77.41 155.26 78.59 154.91 
M 70.48 156.06 70.52 155.56 70.94 154.72 71.07 155.4 71.4 155.82 
M 63.8 157.62 63.64 155.87 64.21 154.26 64.19 155.7 65.06 157.36 
M 57.2 158.93 56.76 156.17 57.47 153.8 57.3 156 58.49 158.65 
M 50.61 160.28 49.87 156.47 50.73 153.34 50.42 156.3 51.91 159.95 
M 58.41 163.48 66.38 164.1 71.02 164.08 75.64 163.7 80.27 163 84.94 162.02 94.21 159.62 
M 77.07 162.86 75.15 161.06 
M 81.52 161.36 81.13 160.6 
M 71.47 163.65 71.32 162.94 71.35 161.34 
M 126.95 116.43 135.96 125.44 
M 132.7 114.57 141.59 123.47 
M 138.67 112.95 147.14 121.42 
M 145 111.68 152.82 119.5 
M 151.64 110.71 160.03 119.1 
M 158.47 109.95 166.2 117.68 
M 165.38 109.26 176.01 119.88 
M 172.2 108.48 179.69 115.96 
M 178.79 107.47 186.35 115.03 
M 185.38 106.46 191.78 112.85 
M 191.97 105.45 200.34 113.82 
M 198.77 104.64 205.44 111.31 
M 205.67 103.94 213.15 111.42 
M 212.86 103.53 222.01 112.68 
M 220.18 103.25 229.18 112.25 
M 227.6 103.07 237.95 113.42 
M 235.12 102.99 246.35 114.22 
M 242.75 103.02 249.6 109.87 
M 250.47 103.14 258.73 111.4 
M 258.14 103.21 263.98 109.04 
M 265.64 103.1 276.65 114.11 
M 273.06 102.93 281.83 111.7 
M 280.68 102.95 291.77 114.03 
M 288.64 103.31 297.05 111.72 
M 296.87 103.93 308.23 115.29 
M 305.28 104.74 315.09 114.55 
M 313.79 105.66 320.24 112.1 
M 322.38 106.64 331.73 115.99 
M 331.17 107.83 339.22 115.88 
M 340.43 109.49 348.8 117.86 
M 350.11 111.57 355.98 117.44 
M 359.8 113.66 369.45 123.31 
M 369.32 115.58 378.11 124.37 
M 378.9 117.56 385.88 124.53 
M 389.05 120.11 396.68 127.74 
M 400.91 124.37 408.39 131.85 
"/></svg>