<svg xmlns="http://www.w3.org/2000/svg" width="520" height="320"><rect x="0" y="0" width="520" height="320" fill="floralwhite"/><rect x="10" y="10" width="500" height="300" stroke="black" stroke-width="1" fill="none"/><path stroke="black" stroke-width="1" fill="none" stroke-linecap="round" stroke-linejoin="round" d="
M 175.8 125.37 192.44 116.93 200.75 113.09 209.06 109.6 225.69 103.19 234 100.6 242.31 98.7 250.62 97.26 275.56 96.57 283.87 97.81 292.18 100.27 300.49 103.31 317.12 110.08 325.43 113.3 333.74 117.03 358.67 129.93 384.37 142.45 
M 384.37 183.38 366.99 193.77 358.67 198.53 342.05 207.01 333.74 210.58 317.12 217.21 308.8 219.64 300.49 221.77 292.18 223.68 283.87 224.69 275.56 225.38 267.24 225.09 258.93 225.1 250.62 225.32 242.31 223.96 234 221.73 225.69 219.14 217.37 216.28 209.06 213.79 200.75 210.85 192.44 207.09 184.16 202.73 
M 183.89 140.79 182.36 134 179.98 127.96 178.12 125.6 
M 189.55 172.39 189.55 169.52 188 165.33 
M 187.99 191.91 187.42 190.72 
M 182.16 134.14 182.9 132.88 185.12 126.17 185.12 122.02 184.74 120.87 
M 178.68 123.92 181.36 124.02 
M 179.98 128.69 181.01 128.94 
M 188.88 170.05 189.24 169.75 192.42 164.48 194.47 158.5 194.47 154.81 192.42 148.83 189.24 143.56 186.76 141.5 
M 187.27 153.02 190.82 152.26 
M 187.83 156.44 190.44 156.32 
M 187.83 160.41 191.13 160.96 
M 191.35 193.16 194.91 188.93 195.4 187.88 
M 191.08 172.22 188.88 170.88 
M 193.74 154.18 195.46 150.51 197.23 143.85 197.23 139.72 195.46 133.05 192.71 127.17 190.56 124.87 
M 202.07 171.3 202.07 169.14 200.41 163.81 197.84 159.1 195.83 157.26 
M 203.02 196.73 203.02 194.11 201.16 189.77 200.6 189.02 
M 196.6 138.62 199.97 134.32 202.57 128.51 202.57 124.92 199.97 119.11 196.71 114.96 
M 201.48 169.68 202.58 168.82 205.75 163.83 207.8 158.17 207.8 154.67 205.75 149.01 202.58 144.02 200.1 142.07 
M 202.5 195.32 204.97 193.63 207.77 189.83 
M 203.56 171.2 202.5 170.48 
M 204.87 197.17 204.34 196.63 202.35 195.61 
M 201.64 126.28 205.69 121.86 208.27 116.9 208.27 113.83 206.61 110.63 
M 207.06 156.01 207.85 155.34 210.69 150.52 212.53 145.06 212.53 141.68 210.69 136.23 207.85 131.41 205.63 129.53 
M 214.22 170.34 214.22 168.13 212.67 162.97 210.26 158.41 208.38 156.63 
M 206.32 167.32 211.5 165.86 
M 206.32 169.47 211.36 169.53 
M 215.46 199.43 216.33 197.09 216.33 194.15 215.11 190.85 
M 207.35 115.15 211.87 111.47 214.56 107.53 
M 211.87 141.33 212.47 140.98 216.29 136.56 218.75 131.56 218.75 128.46 216.29 123.46 212.47 119.05 209.49 117.32 
M 206.75 127.25 214.46 126.22 
M 206.84 130.31 214.36 130.1 
M 208.45 132.99 214.57 133.58 
M 213.66 168.74 215.64 167.29 218.76 162.72 220.77 157.54 220.77 154.34 218.76 149.16 215.64 144.59 213.21 142.81 
M 215.7 194.57 217.68 193.13 219.06 191.12 
M 216.57 170.23 215.29 169.3 
M 222.09 200.91 218.78 197.06 216.12 195.51 
M 217.87 127.35 220.25 124.19 222.27 119.5 222.27 116.6 220.25 111.92 217.12 107.78 215.96 107.01 
M 220.05 154.93 221.23 154 223.98 149.68 225.75 144.78 225.75 141.74 223.98 136.84 221.23 132.52 219.08 130.83 
M 225.37 169.57 225.54 169 225.54 165.79 223.99 160.61 221.6 156.04 220.35 154.85 
M 228.05 202.26 229.81 197.15 229.81 194.02 229.18 192.18 
M 221.55 117.23 222.62 116.75 226.52 113.25 229.03 109.29 229.03 106.83 226.55 102.92 
M 225.11 142.62 227.05 141.53 230.72 137.37 233.08 132.66 233.08 129.75 230.72 125.04 227.05 120.89 224.18 119.26 
M 221.15 128.62 228.44 127.56 
M 221.17 131.3 228.96 131.24 
M 221.44 133.36 228.84 134.99 
M 226.05 167.76 228.63 166.05 231.93 161.68 234.06 156.72 234.06 153.65 231.93 148.7 228.63 144.32 226.05 142.61 
M 229.19 193.41 230.62 192.28 
M 230.07 169.6 228 168.11 
M 237.2 204.18 235.79 201.02 232.51 196.86 229.95 195.23 
M 227.81 104.38 230.6 102.13 231.02 101.53 
M 232.24 129.79 235.57 125.67 237.69 121.05 237.69 118.19 235.57 113.56 232.29 109.48 229.72 107.89 
M 233.29 155.58 235.64 154.02 238.72 149.94 240.7 145.32 240.7 142.47 238.72 137.85 235.64 133.77 233.24 132.18 
M 238.24 169.69 238.9 167.78 238.9 164.61 237.11 159.48 234.43 155.11 
M 229.98 163.77 235.98 162.6 
M 229.94 166.41 235.55 166.07 
M 229.78 168.5 233.26 169.63 
M 240.24 204.77 241.59 202.44 243.31 197.19 243.31 193.95 242.81 192.42 
M 234.46 101.82 238.07 101.08 242.7 99.19 243.71 98.46 
M 236.93 120.59 239.63 119.55 243.9 116.27 246.65 112.55 246.65 110.25 243.9 106.53 239.63 103.24 236.3 101.96 
M 233.28 109.81 241.68 108.51 
M 233.22 111.11 241.84 111.39 
M 234.89 113.16 241.79 114.05 
M 239.99 144.85 242.95 143.33 246.8 139.38 249.29 134.92 249.29 132.15 246.8 127.68 242.95 123.74 239.95 122.2 
M 240.65 168.3 243.48 166.67 247.09 162.49 249.42 157.75 249.42 154.82 247.09 150.08 243.48 145.9 240.65 144.27 
M 237.74 154.21 244.84 152.64 
M 238.06 156.03 245.45 156.29 
M 237.97 158.36 245.26 160.14 
M 242.69 193.43 244.39 192.25 
M 243.66 169.8 241.66 168.48 
M 251.41 206.09 251.41 205.78 249.32 201.04 246.09 196.85 243.56 195.21 
M 240.91 204.54 247.51 203.71 
M 245.51 98.81 248.66 98.4 253.1 97.17 
M 245.66 110.96 247.13 110.5 251.1 108.04 253.66 105.26 253.66 103.54 251.1 100.75 247.56 98.56 
M 248.4 133.73 249.82 132.96 253.25 129.22 255.47 124.99 255.47 122.38 253.25 118.15 249.82 114.41 247.14 112.95 
M 249.69 158.1 252.06 156.59 255.1 152.7 257.06 148.3 257.06 145.57 255.1 141.17 252.06 137.28 249.69 135.76 
M 247.22 144.54 253.37 143.58 
M 247.16 146.8 253.59 147.14 
M 247.76 148.99 253.75 149.95 
M 255.17 169.56 255.17 166.63 253.14 161.85 249.99 157.62 248.59 156.67 
M 252.38 206.06 254.88 201.89 256.6 196.86 256.6 193.74 255.78 191.32 
M 253.67 107.39 257.07 106.7 261.43 104.94 264.24 102.95 264.24 101.72 261.43 99.73 257.07 97.97 253.67 97.28 
M 254.68 124.44 257.53 123.42 261.68 120.46 264.36 117.11 264.36 115.04 261.68 111.69 257.53 108.73 254.29 107.57 
M 251.38 114.67 259.74 113.31 
M 251.13 116.04 259.51 116.12 
M 252.9 118.15 259.25 118.92 
M 256.36 146.51 258.84 145.27 262.53 141.59 264.9 137.42 264.9 134.84 262.53 130.67 258.84 126.98 255.97 125.55 
M 253.22 133.74 260.6 132.91 
M 253.15 136.33 260.73 135.96 
M 253.08 138.18 260.96 139.51 
M 256.14 169.77 258.86 168.24 262.45 164.21 264.76 159.64 264.76 156.82 262.45 152.25 258.86 148.22 256.36 146.82 
M 253.39 156.01 260.73 154.88 
M 253.03 158.59 260.54 158.16 
M 253.05 160.53 260.86 161.71 
M 256.2 194.58 258.91 192.92 260.72 190.68 
M 264.9 205.86 262.81 201.1 259.57 197 257.05 195.4 
M 263.23 102.83 265.1 102.48 268.25 101.31 270.28 99.99 270.28 99.17 268.25 97.84 265.63 96.87 
M 263.4 116.02 265.12 115.41 268.49 113.06 270.66 110.38 270.66 108.73 268.49 106.06 265.12 103.7 263.23 103.04 
M 264.05 135.79 265.9 134.8 268.95 131.52 270.92 127.8 270.92 125.5 268.95 121.79 265.9 118.51 263.51 117.23 
M 263.93 157.96 265.68 156.74 268.44 152.91 270.21 148.58 270.21 145.9 268.44 141.56 265.68 137.73 264.05 136.6 
M 270.79 170.4 270.79 169.17 268.85 164.44 265.84 160.26 263.93 158.94 
M 265.59 205.86 268.51 201.5 270.27 196.73 270.27 193.78 268.6 189.26 
M 261.93 193.09 266.72 191.35 
M 261.28 195.29 267 195.32 
M 261.64 197.9 267.03 198.51 
M 269.88 110.08 272.53 109.42 276.08 107.64 278.37 105.63 278.37 104.38 276.08 102.37 272.53 100.59 269.76 99.89 
M 270.21 126.56 272.97 125.48 276.54 122.68 278.84 119.51 278.84 117.55 276.54 114.38 272.97 111.58 270.18 110.49 
M 267.17 116.61 274.79 116.08 
M 267.49 118.18 274.39 118.28 
M 267.82 120.48 274.85 121.3 
M 270.49 147.29 273.11 145.92 276.48 142.38 278.65 138.38 278.65 135.9 276.48 131.9 273.11 128.36 270.49 126.98 
M 268.17 134.93 274.9 133.87 
M 268 137.23 274.35 136.89 
M 268.06 139.25 275.09 140.56 
M 270.89 170.42 273.11 169.09 276.46 165.09 278.62 160.55 278.62 157.74 276.46 153.21 273.11 149.2 270.49 147.64 
M 270.57 195.2 273.18 193.57 276.53 189.38 277.36 187.56 
M 278.56 205.91 276.47 201.31 273.22 197.3 270.68 195.74 
M 277.55 103.47 278.73 103.19 281.28 101.96 282.93 100.56 282.93 99.69 281.28 98.3 278.44 97 
M 278.02 117.16 279.33 116.6 282.1 114.24 283.88 111.58 283.88 109.93 282.1 107.26 279.33 104.91 277.55 104.15 
M 277.87 136.16 279.67 135.1 282.39 131.9 284.14 128.28 284.14 126.04 282.39 122.41 279.67 119.22 278.02 118.24 
M 277.84 158.17 279.45 157.02 282.15 153.19 283.88 148.85 283.88 146.16 282.15 141.82 279.45 137.99 277.87 136.86 
M 284.16 172.2 284.16 169.74 282.42 165 279.71 160.82 277.84 159.38 
M 279.72 205.86 282.39 201.77 284.14 197.05 284.14 194.13 282.39 189.41 280.26 186.16 
M 283.24 110.09 285.45 109.41 288.52 107.53 290.49 105.39 290.49 104.07 288.52 101.93 285.45 100.05 283.06 99.31 
M 283.93 126.85 286.39 125.75 289.54 122.92 291.57 119.72 291.57 117.74 289.54 114.54 286.39 111.71 283.93 110.61 
M 284.08 147.28 286.55 145.9 289.71 142.38 291.75 138.4 291.75 135.93 289.71 131.95 286.55 128.43 284.08 127.06 
M 284.07 170.69 286.56 169.13 289.75 165.11 291.81 160.57 291.81 157.76 289.75 153.22 286.56 149.2 284.07 147.64 
M 281.32 156.78 287.85 155.6 
M 281.5 159.53 287.96 158.99 
M 281.74 161.19 287.94 162.68 
M 284.22 195.3 286.73 193.67 289.93 189.48 292 184.74 292 183.49 
M 285.89 172.34 284.22 171.25 
M 281.96 185.91 288.26 187.04 
M 291.77 205.2 290.01 201.43 286.79 197.48 284.27 195.94 
M 281.93 204.65 288.28 203.53 
M 288.16 101.92 289.95 101.37 291.9 100.19 
M 290.84 117.18 292.21 116.5 294.76 113.96 296.41 111.09 296.41 109.31 294.76 106.44 292.21 103.9 290.21 102.91 
M 291.02 135.91 292.71 134.81 295.17 131.59 296.76 127.94 296.76 125.69 295.17 122.04 292.71 118.82 290.84 117.6 
M 291.08 157.84 292.7 156.68 295.37 152.86 297.1 148.53 297.1 145.85 295.37 141.52 292.7 137.7 291.02 136.49 
M 296.63 173.12 296.94 172.23 296.94 169.28 295.29 164.52 292.72 160.31 291.08 158.96 
M 293.78 204.95 295.84 201.75 297.57 197.01 297.57 194.07 295.84 189.33 293.15 185.15 291.26 183.68 
M 295.82 108.84 297.68 108.24 300.79 106.24 302.61 104.19 
M 296.46 125.96 298.86 124.83 301.93 121.93 303.92 118.65 303.92 116.62 301.93 113.34 298.86 110.44 296.46 109.31 
M 293.86 115.83 300.56 114.83 
M 294.29 117.64 300.22 117.72 
M 293.96 119.17 300.69 120.24 
M 296.91 146.69 299.36 145.29 302.51 141.71 304.53 137.65 304.53 135.14 302.51 131.09 299.36 127.51 296.91 126.11 
M 297.22 170.37 299.72 168.79 302.91 164.74 304.97 160.15 304.97 157.31 302.91 152.73 299.72 148.68 297.22 147.1 
M 294.57 156.35 300.93 155.19 
M 295.13 158.59 301.02 158.54 
M 295.05 160.97 301.17 162.38 
M 297.42 194.99 299.91 193.35 303.09 189.14 305.15 184.37 305.15 181.41 304.12 179.04 
M 300.73 173.52 299.91 172.43 297.42 170.79 
M 304.39 203.4 303.41 201.31 300.19 197.4 297.68 195.87 
M 294.93 204.52 301.65 203.63 
M 303.21 116.18 304.85 115.39 307.48 112.89 309.17 110.05 309.17 108.3 308.06 106.44 
M 303.71 132.82 304.05 132.6 306.67 129.28 308.35 125.51 308.35 123.18 306.67 119.42 303.89 115.99 
M 304.23 158.62 306.36 157.08 309.08 153.12 310.84 148.63 310.84 145.86 309.08 141.37 306.36 137.41 304.23 135.87 
M 302.23 144.62 307.57 143.57 
M 302.23 147.1 307.35 147.31 
M 302.41 149.75 308 150.83 
M 304.41 180.96 305.42 180.18 306.96 177.77 
M 308.47 174.98 309.84 171.21 309.84 168.26 308.11 163.5 305.42 159.3 304.23 158.37 
M 301.31 167.3 306.99 166.33 
M 301.4 169.49 306.43 169.5 
M 301.42 171.96 306.46 173.42 
M 308.81 202.71 309.36 201.83 311.09 197.02 311.09 194.04 309.36 189.23 306.69 184.98 304.59 183.32 
M 308.89 108.79 311.79 107.95 
M 309.53 125.35 312.12 124.23 315.44 121.37 317.58 118.12 317.58 116.12 315.44 112.87 312.12 110.01 309.53 108.89 
M 310.25 146.6 312.84 145.18 316.15 141.55 318.29 137.44 318.29 134.89 316.15 130.78 312.84 127.15 310.25 125.74 
M 307.62 134.38 314.75 132.79 
M 307.74 136.04 314.08 136.03 
M 307.83 138.18 314.62 139.26 
M 310.81 170.44 313.37 168.85 316.65 164.79 318.77 160.19 318.77 157.34 316.65 152.74 313.37 148.68 310.81 147.09 
M 310.89 194.88 313.4 193.24 316.62 189.04 318.69 184.27 318.69 181.32 316.62 176.56 313.4 172.35 310.89 170.71 
M 316.82 201.19 313.72 197.45 311.22 195.93 
M 316.82 115.91 318.79 115.11 321.67 112.8 322.2 112.05 
M 317.52 134.69 319.05 133.83 322.01 130.51 323.91 126.75 323.91 124.42 322.01 120.66 319.05 117.34 316.82 116.08 
M 318.02 158.75 320.16 157.22 322.91 153.3 324.68 148.86 324.68 146.12 322.91 141.68 320.16 137.76 318.02 136.23 
M 317.95 182.34 319.85 180.92 322.63 176.76 324.42 172.04 324.42 169.12 322.63 164.41 319.85 160.25 318.01 158.87 
M 323.32 199.41 324.23 196.81 324.23 193.86 322.57 189.09 319.99 184.88 317.98 183.24 
M 324.13 126.18 326.83 125.1 330.28 122.33 332.51 119.19 332.51 117.25 331.7 116.12 
M 324.55 147.17 327.19 145.78 330.57 142.22 332.76 138.19 332.76 135.7 330.57 131.67 327.19 128.11 324.55 126.72 
M 324.68 170.53 327.21 168.98 330.45 165 332.53 160.49 332.53 157.7 330.45 153.19 327.21 149.21 324.68 147.66 
M 322.26 157.01 329.07 155.37 
M 322.07 159.1 328.8 159.2 
M 322.52 161.68 328.89 162.23 
M 324.33 194.6 326.74 192.98 329.84 188.83 331.83 184.12 331.83 181.21 329.84 176.51 326.74 172.36 324.33 170.73 
M 327.74 198.19 326.91 197.13 324.52 195.61 
M 331.71 117.41 333.23 116.8 
M 331.97 135.95 333.84 134.91 336.69 131.7 338.52 128.08 338.52 125.84 336.69 122.21 333.84 119.01 331.71 117.82 
M 331.83 158.65 333.95 157.17 336.68 153.37 338.43 149.08 338.43 146.42 336.68 142.12 333.95 138.33 331.97 136.95 
M 331.21 182.17 333.19 180.59 335.73 176.55 337.36 171.97 337.36 169.14 335.73 164.56 333.19 160.51 331.78 159.39 
M 328.97 168.57 334.18 166.84 
M 329.36 170.54 334.56 170.35 
M 329.14 173.16 334.69 174.21 
M 336.26 195.82 336.31 192.73 334.75 187.97 332.34 183.78 331.12 182.71 
M 338.36 126.82 340.91 125.75 344.16 123 344.43 122.61 
M 338.54 147.35 341.08 146 344.33 142.54 346.43 138.61 346.43 136.19 344.33 132.26 341.08 128.8 338.54 127.45 
M 337.87 169.71 340.25 168.21 343.29 164.38 345.25 160.04 345.25 157.35 343.29 153.01 340.25 149.18 337.87 147.68 
M 335.53 156.31 341.99 155.14 
M 335.51 158.96 341.42 158.39 
M 335.5 161.06 341.56 161.96 
M 336.67 193.08 338.92 191.49 341.79 187.42 343.65 182.81 343.65 179.95 341.79 175.34 338.92 171.27 336.78 169.76 
M 338.67 195.13 336.76 193.8 
M 345.68 136.19 347.39 135.15 350.03 131.92 351.73 128.26 351.73 126.42 
M 345.41 158.2 347.46 156.78 350.09 153.15 351.78 149.04 351.78 146.5 350.09 142.39 347.46 138.76 345.68 137.53 
M 343.03 179.82 344.79 178.31 347.06 174.45 348.51 170.07 348.51 167.36 347.06 162.98 344.55 158.9 
M 341.33 166.53 346.01 165.28 
M 341.42 168.96 345.72 169.03 
M 341.47 170.7 345.82 172.38 
M 347.74 192.2 347.74 190.59 346.22 185.86 343.84 181.68 342.98 180.92 
M 351.36 126.3 351.43 126.26 
M 351.76 146.8 354.1 145.47 357.1 142.08 359.03 138.23 359.03 135.85 357.1 132 354.1 128.61 351.76 127.28 
M 349.63 135.03 355.66 133.93 
M 349.29 137.21 355.53 137.17 
M 349.32 139.35 355.48 139.98 
M 349.96 167.76 352.18 166.32 355.02 162.62 356.85 158.44 356.85 155.85 355.02 151.67 352.18 147.97 351.17 147.32 
M 348.05 190.72 350.27 189.14 353.11 185.09 354.94 180.5 354.94 177.66 353.11 173.07 350.27 169.01 348.05 167.43 
M 346.04 176.67 351.26 175.61 
M 345.61 178.97 351.32 178.71 
M 346.03 181.16 351.95 182.39 
M 349.07 191.75 348.5 191.35 
M 358.34 135.56 359.95 134.44 362.04 131.56 
M 358.22 156.86 360.05 155.52 362.39 152.08 363.9 148.18 363.9 145.77 362.39 141.88 360.05 138.44 358.34 137.18 
M 354.29 175.23 354.94 174.66 357.18 170.82 358.62 166.48 358.62 163.78 357.18 159.44 356.2 157.75 
M 359.9 187.73 358.62 184 356.02 179.67 354.29 178.23 
M 363.36 144.54 365.44 143.25 368.14 139.9 369.88 136.12 369.88 135.39 
M 361.19 133.02 364.36 132.69 
M 361.52 134.73 366.77 135.28 
M 361.49 136.85 366.54 137.67 
M 361.09 165.32 363.22 163.86 365.95 160.12 367.71 155.89 367.71 153.27 365.95 149.03 363.36 145.48 
M 362.27 151.89 364.29 151.39 
M 360.44 154.53 364.45 154.83 
M 358.68 157.01 364.71 158.02 
M 363.46 186.26 365.31 183.64 367.24 178.83 367.24 175.86 365.31 171.06 362.31 166.82 359.98 165.16 
M 357.92 175.24 363.54 173.47 
M 357.34 177.06 363.56 177.33 
M 357.93 179.67 363.64 181.15 
M 368.25 153.25 369.87 151.89 371.95 148.41 373.29 144.47 373.29 142.03 371.95 138.09 370.53 135.71 
M 364.7 174.99 366.61 173.36 369.06 169.17 370.64 164.42 370.64 161.48 369.06 156.74 366.61 152.55 364.7 150.91 
M 363.12 160.78 368.09 158.99 
M 363.12 162.84 367.75 163.27 
M 362.71 165.1 368.01 166.75 
M 371.98 182.62 370.12 179.45 368.02 177.66 
M 373.38 140.77 375.61 139.47 376.37 138.59 
M 371.93 163.13 374.24 161.58 377.2 157.61 379.11 153.1 379.11 150.32 377.2 145.81 374.24 141.84 371.93 140.29 
M 380.09 179.09 380.45 178.2 380.45 175.05 378.43 169.96 375.3 165.46 372.85 163.71 
M 378.43 148.1 379.23 147.53 381.83 143.85 382.71 141.65 
M 377.6 175.31 379.73 173.54 382.46 169 384.22 163.85 384.22 160.66 382.46 155.51 379.73 150.97 377.6 149.2 
M 375.39 159.69 381.27 158.63 
M 375.51 161.89 381.24 162.52 
M 375.31 165.02 381.13 166.24 
M 382.28 178.15 381.1 177.08 
M 382.26 149.37 384.37 149.12 
M 382.61 151.51 384.37 151.49 
M 382.56 152.94 384.37 153.32 
M 184.74 120.87 184.74 120.87 
M 178.68 123.92 178.68 123.92 
M 189.18 201.03 191.03 200.72 
M 196.71 114.96 196.71 114.96 
M 209.41 208.68 210.29 207.1 210.29 204.51 207.96 200.33 204.87 197.17 
M 206.61 110.63 206.61 110.63 
M 210.71 209.02 209.45 208.33 
M 222.42 212.34 224.39 208.31 224.39 205.52 222.09 200.91 
M 213.48 204.45 220.33 203.85 
M 213.56 206.57 220.14 206.75 
M 215.96 107.01 215.96 107.01 
M 223.6 208.17 225.38 206.69 228.05 202.26 
M 228.3 214.08 227.87 213.07 225.06 209.34 223.6 208.37 
M 237.14 208.6 238.91 207.06 240.24 204.77 
M 243.49 217.87 241.72 213.36 238.98 209.54 237.14 208.26 
M 250.66 207.63 252.38 206.06 
M 257 218.74 257 217.75 255.26 213.37 252.57 209.51 250.66 208.15 
M 248.73 216.57 253.78 216.05 
M 264.15 206.97 265.59 205.86 
M 270.49 218.78 270.49 217.66 268.74 213.29 266.05 209.43 264.15 208.08 
M 270.68 218.74 273.22 217.18 276.47 213.18 278.56 208.65 278.56 205.91 
M 277.81 207.35 279.72 205.86 
M 284.86 218.25 286.79 217.07 290.01 213.12 292.09 208.66 292.09 205.89 291.77 205.2 
M 281.66 207.51 288.12 207.27 
M 291.9 100.19 291.9 100.19 
M 301.11 215.71 303.41 212.92 305.49 208.49 305.49 205.74 304.39 203.4 
M 295.12 207.3 301.81 206.81 
M 295.37 209.51 301.7 210.13 
M 304.74 207.62 306.69 206.08 308.81 202.71 
M 309.28 213.88 309 213.24 306.29 209.67 304.74 208.65 
M 308.5 205.2 315.37 203.92 
M 308.9 207.25 315.42 207 
M 308.9 209.42 315.1 210.48 
M 318.26 207.2 319.99 205.79 322.57 201.58 323.32 199.41 
M 331.7 116.12 331.7 116.12 
M 321.98 204.37 328.39 203.4 
M 322.5 206.89 328.42 206.94 
M 344.23 201.75 346.22 198.26 347.74 193.52 347.74 192.2 
M 353.87 197.36 350.83 193 349.07 191.75 
M 362.04 131.56 362.04 131.56 
M 359.33 194.75 360.3 191.93 360.3 188.9 359.9 187.73 
M 364.36 132.69 364.36 132.69 
M 359.98 189.54 362.31 187.88 363.46 186.26 
M 364.1 192.28 361.55 190.51 
M 373.82 187.05 372.82 184.06 371.98 182.62 
M 377.02 185.31 378.43 183.29 380.09 179.09 
M 384.37 181.2 383.1 178.89 382.28 178.15 
M 225.69 103.19 226.16 101.44 225.93 96.43 225.47 94.31 225.56 91.87 225.97 89.95 225.94 85.55 226.28 83.92 227.02 81.81 227.42 79.29 228.21 76.76 228.21 74.15 227.62 71.65 228.28 68.05 228.53 64.53 229.24 61.92 230.54 59.12 231.35 56.05 232.17 54.13 232.94 53.4 235.3 52.17 237.22 50.53 239.12 44.2 240.11 41.68 241.38 39.62 242.32 38.45 245.11 36.9 247.06 34.57 248.5 31.48 249.52 30 250.89 36.58 252.22 38.67 253.2 40.59 255.59 46.39 255.92 48.41 256.85 50.55 256.76 51.61 258.96 55.81 262.99 62.83 264.51 64.83 267.14 66.61 268.26 67.93 268.91 69.9 270.88 74.52 271.3 77.19 271.84 79.09 272.42 80.34 275.51 85.21 276.72 87.45 277.36 89.17 279 91.37 280.81 93.01 284.8 95.4 287.81 98.98 
M 283.87 97.81 283.87 97.81 
M 229.31 102.06 229.78 100.3 228.83 86.39 230.05 82.33 230.52 80.25 230.77 77.87 231.26 75.24 230.91 70.74 231.61 68.84 231.66 66.12 232.38 63.63 234.28 60.25 235.44 57.13 236.41 55.05 237.88 53.33 239.71 52.91 241.28 52.05 
M 232.94 100.93 233.22 99.03 233.43 92.82 232.88 87.81 232.91 85.68 233.71 81.39 234.94 76.98 235.05 74.56 234.78 70.93 235.05 68.88 235.57 68.26 237.09 65.25 239.72 59.06 241.15 56.89 
M 236.63 100 237.18 98.12 237.42 94.05 237.29 87.04 236.94 82.62 237.26 80.81 237.98 78.7 238.08 75.85 239.16 70.23 239.83 69.01 241.91 68.06 244.84 64.83 245.96 61.75 247.13 59.19 247.01 56.63 249.16 54.7 250.63 54.37 
M 240.33 99.15 240.87 97.41 241.2 90.52 241.71 86.55 241.06 84.15 241.23 81.88 241.85 80.15 242.46 77.66 243.64 75.39 244.27 73.25 245.63 71.45 
M 244.06 98.4 244.68 96.36 245.11 93.99 244.94 90.1 245.3 88.85 245.34 83.47 247.36 78.7 249.09 75.56 
M 247.8 97.75 248.75 96.11 249.35 89.78 249.34 88.01 249.81 85.75 249.83 82.88 250.81 80.07 251.08 78.08 253.06 74.58 256.63 70.09 
M 251.57 97.23 252.61 95.52 253.34 91.88 254.69 88.11 254.86 84.08 254.72 82.36 255.11 80.68 
M 255.36 97.09 256.49 95.68 257.24 91.65 259.07 88.25 259.98 83.51 259.89 81.72 261.24 79.85 
M 259.16 96.95 260.25 96.04 261.5 87.49 262.22 84.96 264 83.23 265.07 80.36 
M 262.96 96.9 263.87 95.85 264.09 93.39 265.63 87.49 267.25 85.81 
M 266.76 96.85 267.77 95.57 268.86 91.11 269.36 90.17 271.38 89.4 
M 270.56 96.74 271.41 95.35 271.88 93.77 
M 274.36 96.61 276.96 93.95 279.37 93.71 
M 278.14 96.95 280.9 96.66 
M 281.9 97.51 281.92 97.52 
M 284.93 98.12 287.64 98.67 
M 187.65 172.64 192.09 172.12 194.41 172.05 213.48 170.38 218.04 170.17 222.45 169.68 226.62 169.48 238.37 169.69 241.03 169.95 245.23 169.71 247.53 169.8 252.35 169.33 254.81 169.48 256.97 169.95 261.41 170.17 263.47 169.73 266.14 169.67 268.84 169.98 272.98 171.03 275.68 170.94 277.74 171.07 280.02 171.91 282.14 171.93 286.81 172.4 291.27 172.52 293.96 172.97 300.34 173.41 305.19 174.62 307.73 175.07 309.94 174.8 311.53 174.93 312.31 175.38 295.77 182.77 291.05 183.63 288.88 184.25 281.76 185.5 277.9 187.23 276.2 188.28 271.64 189.16 268.95 189.19 261.96 190.35 259.81 190.93 255.19 191.36 252.79 191.36 250.78 191.76 246.12 191.91 244.11 192.3 241.91 192.5 239.96 192.95 237.44 192.55 233.3 192.61 230.87 192.29 226.51 192.14 216.84 190.82 214.81 190.86 207.53 189.8 203.12 189.58 187.4 186.12 
M 187.48 174.32 192.21 174.01 199.6 174.06 206.71 173.53 225.1 173.91 229.11 173.6 231.6 173.82 238.42 173.76 245.18 175.56 247.57 175.57 249.87 175.33 251.62 175.61 256.55 175.73 259.22 176.54 261.53 177.02 268.86 177.18 275 178.75 277.37 179.2 279.73 179.3 282.03 180.51 284.48 180.98 286.89 180.89 292.11 181.5 294 182.07 
M 187.31 175.97 192.25 175.84 199.95 176.27 204.34 176.08 206.94 176.19 209.31 176.4 211.32 176.94 218.41 177.22 227.39 178.36 229.69 178.19 236.64 179.24 239.01 179.14 240.96 179.28 243.25 179.87 
M 187.13 177.62 194.81 178.02 202.14 179.07 206.79 179.29 213.82 180.16 215.91 180.56 218.55 180.61 220.8 181.12 223.34 181.98 225.48 182.11 229.92 183.32 
M 187.26 179.4 189.83 179.53 192.03 179.91 194.47 180.1 199.18 181.53 204.18 182.16 211.15 183.64 
M 187.38 180.98 194.35 182.62 198.98 184.36 201.29 185.01 204.06 185.34 
M 187.43 183 188.06 183.1 194.38 185.32 198.8 188.12 201.01 188.92 
M 209.06 213.79 212.33 219.09 213.48 221.44 215.09 223.17 216.31 225.16 217.63 228.06 219.2 230.25 222.76 233.86 224.1 235.58 225.33 237.52 226.78 239.13 228.18 241.71 229.39 245.53 227.12 252.14 226.21 254.1 225.97 256.73 224.26 258.24 221.81 258.98 219.61 259.96 218.44 262 218.01 264.63 217.01 266.68 215.55 268.33 214.57 270.57 212.85 272.07 211.09 274.68 203.12 280 202.72 278.47 203.39 276.1 204.25 273.8 202.82 265.58 202.95 263.14 204.35 258.66 204.66 255.75 205.11 253.47 204.36 250.99 203.38 249.1 202.84 246.93 204.17 242.68 203.75 240.86 203.56 236 203.66 233.6 203.38 231.17 203.37 228.28 202.81 226.04 202.43 221.5 201.65 216.56 201.41 213.99 200.75 210.85 
M 207.63 213.29 210.3 218.88 212.85 223.1 213.92 225.17 215.66 227.18 216.64 229.91 218.58 234.33 220.25 235.73 221.48 237.34 223.18 239.9 224.18 241.98 
M 206.2 212.78 209.94 220.93 212.24 225.41 212.64 227.95 213.79 230.34 217.24 238.59 217.82 240.33 219.65 242.47 222.96 247.95 
M 204.76 212.27 207.06 218.12 209.24 222.99 210.5 227.69 211.45 233.09 212.17 235.35 212.71 236.49 213.79 240.25 214.77 242.91 216.39 245.21 
M 203.33 211.76 204.3 215.01 204.92 217.82 206.83 222.49 207.59 224.87 208.43 230.08 208.17 232.37 209.94 237.82 209.76 239.68 210.76 242.5 211.85 244.96 212.48 249.43 212.66 252.51 213.46 253.76 213.7 259.22 214 261.56 214.54 263.41 
M 201.9 211.26 203.18 217.29 204.61 222.09 205.51 226.66 206.12 229 205.69 231.68 205.92 234.03 206.32 236.55 207.07 239.79 207.27 241.75 207.36 244.29 207.17 247.47 207.5 250.19 208.67 252.9 
M 366.99 193.77 372.82 199.03 378.36 202.25 384.98 212.04 384.18 214.23 382.94 216.14 381.19 217.56 379.74 219.21 378.45 221.06 376.3 222.07 374.51 223.47 373.36 225.5 372.45 227.77 371.28 229.73 369.69 231.31 366.84 230.7 364.34 230.45 360.6 233.01 358.03 232.62 356.02 232.5 354.88 234.09 352.89 235.04 351.34 236.54 350.56 238.89 349.18 240.67 347.03 241.15 344.33 240.71 341.9 240 340.02 239.84 338.73 240.28 336.71 240.35 334.26 240.04 328.51 238.61 326.01 238.3 324.16 238.77 322.4 239.53 320.59 240.09 310.49 237.54 300.61 234.01 297.31 230.35 292.18 223.68 
M 363.69 195.66 369.12 200.76 372.3 201.89 374.46 203.73 376.03 205.47 378.61 207.46 380.98 208.84 383.11 210.78 
M 360.39 197.54 365.78 202.88 367.88 204.74 370.03 206.08 371.89 207.97 
M 357.06 199.37 364.67 206.05 365.86 208.11 367.35 210.01 369.57 211.31 372.29 212.16 374.77 213.64 
M 353.69 201.14 356.5 203.43 358.92 205.13 361.16 207.21 364.84 211.07 365.99 213.5 368.13 215.37 371.11 216.04 
M 350.32 202.9 355.5 206.83 359.79 211.35 361.58 212.96 363.53 214.34 367.61 217.93 370.25 219.08 
M 346.92 204.59 351.27 208.56 353.29 210.01 357.28 213.79 361.5 217.17 363.53 218.6 
M 343.52 206.28 349.45 211.79 356.19 216.88 357.85 218.52 359.5 220.7 
M 340.06 207.86 346.27 214.41 348.42 215.98 351.58 217.08 353.75 218.74 354.55 220.19 
M 336.57 209.36 341.01 213.91 342.9 216.15 344.18 217.98 346.29 219.62 348.49 220.66 349.89 222 351.18 223.92 352.69 225.74 358.32 230.39 
M 333.07 210.85 335.34 213.42 337.55 215.24 339.37 217.12 341.3 219.24 343.08 221.52 345.68 222.69 
M 329.54 212.26 334.25 216.86 336.03 218.09 338.24 220.22 339.87 222.46 346.4 226.96 347.98 228.66 349.36 230.64 351.45 232.14 
M 326.01 213.67 331.15 218.37 334.41 222.58 336.48 223.65 338.06 225.24 339.78 227.3 342.36 228.01 344.13 229.39 
M 322.48 215.08 327.64 219.65 330.75 223.84 332.77 225.85 334.59 227.33 336.63 228.62 339.83 231.6 342.57 233.23 
M 318.95 216.48 321.69 219.01 324.33 220.87 328.98 227.14 331.16 228.94 332.9 229.7 334 231.35 
M 315.36 217.72 320.09 222.68 322.51 224.5 324.5 226.41 326.08 228.8 327.49 230.49 329.16 231.19 334.24 236.66 
M 311.71 218.79 320.6 228.13 322.91 230.15 324.29 231.61 325.88 234.13 328.88 235.66 
M 308.06 219.84 310.27 222.29 312.14 223.86 316.03 228.76 321.07 232.75 322.94 235.02 
M 304.37 220.78 306.89 223.72 308.5 225.93 310.55 227.75 314.85 232.1 
M 300.69 221.72 307.18 229.33 309.43 231.31 312.01 233.28 313.99 235.58 315.38 237.69 
M 296.99 222.58 299.87 226.34 303.71 230.55 306.36 232.1 
M 383.61 142.08 386.31 141.41 391.26 139.76 394.7 137.63 396.67 136.23 398.52 134.65 400.6 133.52 404.96 131.72 406.89 130.35 414.16 126.86 415.73 125.59 417.81 124.96 419.59 123.77 420.03 123.28 421.74 122.02 420.12 129.11 419.69 131.85 416.69 135.19 414.44 139.17 413.52 141.38 410.31 144.43 409.25 146.59 407.67 148.2 406.83 150.35 405.53 154.77 405.52 157.34 404.66 159.43 403.41 161.36 402.74 163.51 403.19 165.92 400.04 168.51 399 170.48 399.38 173.23 400 175.69 402.39 183.29 402.98 187.92 403.41 190.07 404.13 191.98 406.5 196.43 407.86 200.6 402.13 197.81 400.26 195.91 397.6 194.02 395.18 192.7 391.53 188.7 389.44 187.41 386.48 186.39 383.61 183.83 
M 386.51 143.78 393.4 141.84 395.51 140.65 397.62 139.82 401.69 136.99 403.83 135.9 406.49 135.07 409.97 132.23 
M 389.09 145.42 391.84 144.92 393.93 144.13 398.42 142.86 400.18 141.25 405.7 138.03 
M 391.36 147.35 394.02 146.16 396.3 145.99 398.11 145.49 
M 391.48 149.56 393.69 148.59 397.7 148.23 403.08 146.16 405.67 144.16 408.2 143.9 
M 392 152.18 394.43 152.18 396.15 151.62 
M 389.89 154.99 392.43 154.65 395.11 155.09 
M 389.96 157.32 393.2 156.96 395.11 158.03 397.59 158.53 400.19 158.83 
M 390.2 160.17 393.12 159.74 395.05 160 398.14 160.98 400.54 161.27 
M 393.58 167.69 395.85 169.09 398.79 169.19 
M 383.61 167.13 387.23 168.47 390.61 168.94 
M 392.77 172.41 395.26 173.37 397.3 174.39 
M 387.19 173.05 390.33 173.87 392.56 174.81 394.13 176.65 396.75 177.52 399.24 177.86 
M 387.18 175.19 392.13 177.46 394.38 178.69 397.56 179.64 399.9 180.91 
M 386.82 177.43 388.85 178.15 394.24 180.92 
M 383.61 177.57 386.82 179.56 391.95 181.63 394.16 183.3 396.28 184.21 
M 386.86 181.56 389.65 182.55 392.36 183.78 394.13 185.32 
M 392.42 186.56 393.95 187.72 395.65 189.55 397.39 191.06 402.26 194.29 
M 290.78 98.87 293.51 99.79 294.98 99.66 297.99 98.68 299.48 98.63 301.36 102.72 302.54 103.22 303.84 103.69 305.37 103.78 308.43 102.95 309.96 103.12 311.85 106.95 314.79 108.2 316.26 108.05 319.02 106.96 320.32 107.55 322.08 110.5 323.17 111.49 326.04 112.72 330.15 111.35 331.1 112.63 332.52 115.34 333.71 116.13 336.61 117.33 339.92 117.21 341.4 117.83 342.83 120.58 343.83 121.64 346.56 123.08 351.06 122.7 353.19 126.34 355.81 127.63 357.42 127.91 360.49 127.73 361.41 128.62 363.09 131.12 366.01 132.69 367.48 133.01 370.44 132.86 371.81 133.96 373.67 136.44 375.3 138.07 
M 116.55 154.13 116.85 153.24 117.76 151.62 119.15 150.04 121.13 148.66 127.47 145.02 134.82 140.35 138.93 138.01 143.56 135.9 153.58 132.19 167.29 127.77 175.8 125.44 178.86 129.15 180.37 133.1 183.97 140.95 185.49 144.91 186.47 148.92 187.93 157 187.81 161.13 188 165.23 187.97 169.35 187.13 177.68 187.44 181.76 187.48 189.99 187.1 194.15 186.14 198.37 184.16 202.64 174.27 201.94 167.04 200.66 160.55 199.11 154.49 196.92 148.89 194.4 143.77 191.76 139.04 189.09 134.62 185.86 130.76 182.63 127.41 179.34 124.74 175.7 122.59 171.83 
M 168.74 147.42 169.12 150.88 167.95 157.46 167.09 160.48 165.08 166.03 165.34 170.83 166.51 176.01 167 179.18 166.88 182.83 160.31 182.86 150.91 182.24 146.29 181.23 141.76 179.74 137.47 177.86 133.43 175.63 
M 119.86 168.45 114.15 157.02 114.37 155.13 115.95 154.01 117.87 154.4 118.86 156.09 121.36 167.31 122.64 172.01 
M 121.37 171.9 119.03 170.06 111.54 163.51 
M 110.56 162.64 109.22 161.35 108.11 159.76 108.45 158.44 
M 108.75 157.87 110.35 157.2 112.07 158.04 122.55 171.88 
M 136.19 155.73 135.13 151.71 135.43 147.56 137.07 143.73 139.85 140.64 143.49 138.62 147.59 137.9 151.7 138.54 155.38 140.49 158.23 143.52 159.94 147.31 160.33 151.46 159.34 155.5 157.1 159.01 153.84 161.6 149.92 162.99 145.76 163.03 141.81 161.72 138.5 159.19 136.19 155.73 
M 136.04 155.38 135.21 152.36 135.14 149.24 135.4 147.69 136.48 144.75 138.24 142.17 140.59 140.1 141.93 139.3 144.87 138.22 146.41 137.97 149.54 138.03 152.56 138.86 
M 137.44 154.8 136.71 152.14 136.6 150.77 136.66 149.39 137.13 147.21 
M 137.46 146.29 138.54 144.27 140.36 142.2 142.63 140.65 143.89 140.1 145.21 139.7 147.95 139.42 149.32 139.53 151.97 140.27 
M 138.85 154.21 138.46 153.09 138.12 150.74 138.17 149.55 138.58 147.65 
M 141.08 143.62 142.3 142.61 143.32 142 145.55 141.19 147.92 140.94 149.1 141.04 151.39 141.67 
M 140.25 153.63 139.93 152.68 139.64 150.71 139.68 149.71 140.04 148.06 
M 142.33 144.52 144.02 143.36 145.9 142.67 147.88 142.46 148.88 142.54 150.81 143.07 
M 143.11 152.62 142.68 151.01 142.8 149.35 143.03 148.82 
M 144.45 146.72 146.03 145.77 147.67 145.48 149.31 145.74 150.78 146.52 151.92 147.73 152.61 149.25 152.76 150.91 152.37 152.52 151.47 153.93 150.17 154.96 148.6 155.52 146.94 155.54 145.36 155.01 144.03 154 143.11 152.62 
M 145.14 146.26 144.76 147.04 
M 143.77 149.01 142.71 151.12 
M 146.58 145.68 145.53 147.78 
M 144.79 149.26 143.11 152.62 
M 147.8 145.5 146.29 148.53 
M 145.8 149.51 143.76 153.59 
M 148.86 145.67 147.05 149.3 
M 146.83 149.74 144.51 154.37 
M 149.83 146.01 145.34 155 
M 150.73 146.49 146.31 155.33 
M 151.48 147.26 147.35 155.53 
M 152.14 148.22 148.5 155.52 
M 152.63 149.53 149.86 155.07 
M 152.46 152.16 151.94 153.2 
M 123.25 173 127.06 176.82 
M 121.16 166.36 121.69 166.88 
M 119.91 160.55 121.12 161.76 
M 116.96 153.04 121.52 157.59 
M 118.86 150.37 122.17 153.68 
M 121.49 148.45 124.11 151.06 
M 124.37 146.77 127.51 149.9 
M 127.29 145.12 130.34 148.17 
M 130.13 143.4 133.65 146.92 
M 132.9 141.61 136.45 145.17 
M 135.7 139.85 138.26 142.41 
M 138.61 138.2 140.63 140.21 
M 141.71 136.74 143.58 138.61 
M 144.92 135.39 147.46 137.92 
M 148.25 134.15 150.73 136.63 
M 151.58 132.93 155.47 136.82 
M 154.94 131.73 158.53 135.31 
M 158.35 130.57 160.69 132.91 
M 161.8 129.47 165.06 132.73 
M 165.28 128.38 168.39 131.49 
M 168.82 127.36 172.8 131.34 
M 172.44 126.42 175.21 129.19 
M 158.14 169.51 157.56 170.3 157.23 171.33 156.29 173.02 154.88 174.45 
M 158.93 198.08 160.17 198.14 161.51 197.81 162.26 197.4 162.26 197.16 162.08 196.99 
M 128.27 158.14 127.29 158.2 126.67 158.4 126.37 158.89 126.11 160 125.7 160.71 
M 131.77 169.44 132.59 169.35 133.8 170.15 134.65 171.82 134.69 172.3 134.36 172.72 
M 176.76 201.93 173.92 199.37 171.76 198.18 170.03 196.78 168.94 196.33 166.7 195.76 
M 124.13 161.45 125.08 162.26 125.49 163.16 
M 177.53 152 177.85 153.08 177.59 153.61 177.14 153.97 
M 127.17 161.72 126.83 160.96 126.21 160.94 125.72 161.33 125.32 162.19 
M 164.48 142.88 162.29 143.12 161.3 143.4 159.62 144.75 158.88 144.96 
M 180.91 163.56 180.32 163.63 180.01 163.49 179.55 161.79 
M 129.36 144.1 129.44 143.82 
M 180.45 157.96 179.52 158.66 178.57 159.93 178.51 160.24 178.88 161.16 
M 169.86 181.18 169.74 180.64 169.01 179.93 166.93 179.43 165.5 178.82 164.81 178.24 164.27 177.5 
M 121.89 169.35 123.58 168.14 
M 167.47 140.5 165.86 139.81 165.15 139.76 161.16 140.77 159.56 140.81 158.28 141.25 157.69 141.63 
M 148.88 185.73 148.7 186.19 148.78 186.75 149.98 187.63 
M 184.39 166.96 183.37 167.71 181.11 168.53 179.95 169.42 178.58 170.17 
M 155.9 135.09 156.42 133.2 156.38 131.24 
M 180.52 135.7 178.7 134.58 178.33 134.17 178.29 133.84 
M 166 128.16 165.81 128.96 165.43 129.13 165.02 129.04 
M 168.78 158.22 169.75 158.62 170.5 158.59 171.74 157.34 172.23 157.03 
M 138.81 176.17 140.54 175.6 142.27 175.32 143.62 174.32 
M 175.87 158.42 177.29 159.48 178.87 161.16 
M 153.73 170.6 153.55 172.83 153.36 173.34 152.07 175.19 151.25 177.11 151.18 179.24 
M 131.15 171.3 132.02 170.97 132.94 171.08 133.34 171.37 133.94 172.28 
M 145.22 186.51 147.4 185.36 147.73 185.48 148.19 186.24 
M 173.77 129.64 176.69 128.45 178.11 128.24 
M 175.95 179.95 176.56 180.1 178.38 180.13 178.56 180.23 178.56 180.5 
M 167.12 151.68 165.96 151.56 165.24 151.75 165.06 152.19 165.42 152.7 
M 136.81 142.21 138.33 142.33 
M 163.3 178.15 162.55 176.23 161.47 174.76 161.26 173.65 160.79 173.45 
M 162.33 149.44 160.62 149.47 160.13 149.32 
M 134.26 162.46 137.06 163.15 138.67 163.24 140.57 163.78 141.1 163.79 
M 178.38 147.57 178.8 149.05 178.99 150.53 
M 185.75 146.9 180.57 144.96 180.07 145.11 179.37 145.97 
M 152.05 182.09 150.17 182.29 
M 124.55 175.36 125.21 173.96 125.88 173.08 127.09 172.42 
M 174.15 130.24 175.36 129.84 176.71 129.71 177.45 129.84 178.84 130.57 
M 174.92 189.66 176.62 191.13 178.75 194.74 
M 161.28 156.49 158.81 159.66 158.75 160.21 159.13 160.81 
M 149.77 137.42 151.34 137.78 154.07 138.88 154.98 139.41 155.68 140.07 155.87 141.01 
M 137.74 182.12 137.49 179.11 136.97 178.26 
M 145.19 182.86 146.43 181.99 148.27 179.86 148.75 179.55 149.32 179.37 150.08 179.53 150.36 180.01 150.4 180.56 
M 175.2 187.09 173.39 184.89 171.87 183.33 171.85 182.75 172.38 181.54 173.51 180.45 
M 135.11 152.62 134.26 152.35 133.8 151.76 
M 177.97 184.23 176.78 182.67 176.63 182.16 176.75 181.68 177.38 180.91 178.51 180.49 
M 178.41 149.93 178.75 150.71 178.78 151.96 
M 172.92 199.96 170.78 199.09 169.47 198.76 165.7 198.88 165.16 198.78 163.62 197.64 
M 158.06 142.34 157.42 142.66 
M 152.94 171.19 153.03 172.69 152.86 173.33 151.18 175.79 150.65 177.05 150.83 180.13 
M 151.77 191.12 151.57 191.65 151.21 192.01 150.64 192.22 150.16 192.16 149.57 191.67 149.2 190.19 
M 139.25 188.3 139.08 187.66 139.64 186.79 140.4 186.36 142.63 185.86 143.15 185.61 144.18 184.53 
M 123.55 172.91 121.66 174.51 120.47 175.13 119.19 175.51 117.89 175.64 115.41 175.38 114.18 175.05 113 174.48 111.96 173.68 111.13 172.69 110.49 171.58 110.07 170.37 109.89 169.13 110.02 166.73 110.54 163.37 110.56 162.31 110.37 161.27 109.99 160.28 109.43 159.38 108.69 158.61 107.8 157.99 105.74 157.31 104.65 157.29 102.5 157.84 100.59 159.04 99.74 159.79 98.25 161.51 100.51 158.93 102.39 157.6 103.46 157.15 104.6 156.89 105.79 156.84 106.96 157.04 108.08 157.46 109.11 158.08 109.99 158.91 110.7 159.9 111.2 161.01 111.5 162.2 111.55 163.42 111.22 166.85 111.22 169 111.82 170.93 113.05 172.49 113.84 173.03 114.74 173.4 115.73 173.6 117.8 173.7 119.65 173.23 120.45 172.74 121.94 171.29 
M 115.16 166.7 118.62 171.28 120.07 172.97 
M 121.53 174.58 125.55 178.48 130.76 182.63 
M 118.59 171.24 119.73 170.62 
M 123.83 176.89 124.47 175.48 
M 179.46 130.72 181.09 132.35 
M 178.72 123.9 184.67 129.85 
M 182.77 121.86 188.55 127.64 
M 186.8 119.81 195.05 128.07 
M 190.82 117.75 198.06 124.99 
M 194.92 115.78 202.41 123.26 
M 199.08 113.86 206.48 121.25 
M 203.32 112.01 211.88 120.57 
M 207.6 110.21 214.47 117.08 
M 211.97 108.51 220.18 116.71 
M 216.39 106.84 222.16 112.61 
M 220.77 105.14 229.26 113.63 
M 225.13 103.41 232.62 110.91 
M 229.73 101.93 237.28 109.49 
M 234.39 100.51 241.22 107.35 
M 239.34 99.38 246.06 106.11 
M 244.38 98.34 251.74 105.7 
M 249.56 97.45 254.23 102.11 
M 255.29 97.09 263.27 105.08 
M 261.21 96.93 270.25 105.97 
M 267.21 96.85 273.97 103.62 
M 273.09 96.65 281.38 104.94 
M 279.71 97.19 288.8 106.28 
M 287.48 98.88 292.61 104 
M 296.56 101.87 304.37 109.69 
M 306.6 105.84 312.8 112.04 
M 316.8 109.96 323.71 116.87 
M 326.88 113.95 335.01 122.09 
M 338.53 119.52 345.99 126.99 
M 351.27 126.18 356.85 131.76 
M 363.38 132.21 371.41 140.24 
M 375.34 138.09 383.52 146.27 
M 387.1 143.76 389.67 146.34 
M 225.85 93.71 226.53 95.07 
M 229.76 101.53 229.93 101.87 
M 226.29 87.74 230.37 95.9 
M 232.48 100.12 232.89 100.95 
M 227.25 82.81 233.36 95.05 
M 230.37 82.22 231.05 83.58 
M 231.73 84.94 234.45 90.37 
M 235.13 91.73 235.81 93.09 
M 227.82 70.28 228.84 72.32 
M 234.96 84.56 238.36 91.36 
M 228.51 64.81 228.85 65.49 
M 229.53 66.85 230.89 69.57 
M 248.55 91.22 249.23 92.58 
M 238.82 64.91 242.22 71.71 
M 250.38 88.02 253.1 93.46 
M 253.78 94.82 254.52 96.3 
M 241.48 63.39 246.24 72.91 
M 251.68 83.79 257.12 94.66 
M 244.13 61.85 250.25 74.09 
M 255.01 83.61 259.09 91.77 
M 246.79 60.33 250.87 68.48 
M 251.55 69.84 252.23 71.2 
M 250.4 60.7 251.08 62.06 
M 257.91 68.88 258.59 70.24 
M 268.11 89.28 269.47 92 
M 270.15 93.36 271.49 96.04 
M 259.87 65.96 262.59 71.4 
M 263.27 72.76 264.63 75.48 
M 271.43 89.08 275.23 96.69 
M 260.57 60.53 261.25 61.89 
M 261.93 63.25 268.05 75.49 
M 272.81 85 278.37 96.13 
M 266.99 66.52 270.07 72.67 
M 280.1 92.74 280.78 94.1 
"/></svg>