<svg xmlns="http://www.w3.org/2000/svg" width="520" height="320"><rect x="0" y="0" width="520" height="320" fill="floralwhite"/><rect x="10" y="10" width="500" height="300" stroke="black" stroke-width="1" fill="none"/><path stroke="black" stroke-width="1" fill="none" stroke-linecap="round" stroke-linejoin="round" d="
M 85.64 127.42 108.32 118.42 119.65 114.32 130.98 110.6 153.63 103.76 164.96 101 176.28 98.97 187.61 97.44 221.59 96.69 232.92 98.02 244.24 100.65 255.57 103.89 278.22 111.12 289.55 114.55 300.88 118.53 334.86 132.29 380.16 149.54 
M 380.16 193.49 346.18 209.33 334.86 214.4 323.53 219.05 312.2 223.45 300.88 227.26 278.22 234.33 266.9 236.93 255.57 239.2 244.24 241.24 232.92 242.32 221.59 243.05 210.26 242.74 198.94 242.75 187.61 242.99 176.28 241.54 164.96 239.16 153.63 236.4 142.3 233.35 130.98 230.69 119.65 227.55 108.32 223.54 97.04 218.88 
M 376.87 161.16 370.32 161.25 363.85 161.04 334.19 158.54 330.89 158.04 324.24 156.64 307.77 152.46 297.15 150.22 286.67 148.63 272.65 147.96 265.68 147.32 262.41 146.86 249.98 144.18 245.21 143.37 
M 241.99 142.91 232.78 141.58 
M 229.81 141.34 222.29 141.3 217.54 141.69 
M 214.32 142.01 207.9 142.62 
M 204.75 142.87 199.98 143.32 191.66 144.46 
M 188.29 144.81 184.93 145.04 
M 181.63 145.1 178.45 144.99 
M 175.35 144.75 169.1 144.19 
M 162.4 144.15 153.91 144.71 142.13 146.02 
M 135.14 146.97 131.58 147.56 
M 128.09 148.17 119.92 149.44 115.25 149.88 
M 112.11 150.13 105.66 150.74 
M 98.84 151.73 97.3 152 
M 103.9 201.99 108.54 208.6 
M 113.35 214.47 115.77 217.3 
M 103.88 194.58 108.35 201.86 
M 108.51 195.01 110.42 198.22 
M 115 205.07 119.87 211.36 
M 124.9 217.44 127.49 220.35 
M 114.01 197.25 114.61 198.18 
M 119.45 205.02 121.97 208.27 
M 129.69 217.55 132.31 220.45 
M 121.44 201.71 124.05 205.1 
M 128.8 205.22 134.22 211.65 
M 95.39 146.49 102.82 158.13 
M 127.06 197.24 127.98 198.44 
M 130.78 201.95 133.63 205.34 
M 139.13 211.77 141.73 214.88 
M 86.55 127.07 90.71 132.27 94.7 138 106.42 156.85 
M 131.63 197.45 132.57 198.6 
M 138.48 205.47 141.31 208.74 
M 143.96 211.94 146.47 215.07 
M 148.91 218.1 153.78 223.68 
M 90.4 125.55 94.93 131.43 98.95 137.39 103.1 144.02 109.83 155.62 
M 137.18 198.79 146.06 208.94 
M 148.6 212.16 150.98 215.3 
M 153.35 218.32 155.78 221.15 
M 158.28 223.78 160.81 226.2 
M 94.14 124.08 99.17 130.78 103.38 137.1 107.51 144.03 113.14 154.44 
M 138.87 195.56 146.51 204.19 150.57 209.18 
M 152.96 212.42 156.45 217.08 160.16 221.29 
M 162.72 223.86 165.24 226.24 
M 167.66 228.47 169.97 230.58 
M 97.79 122.64 103.56 130.46 107.75 137.04 111.74 144.2 116.45 153.25 
M 141.59 193.55 146.5 199.2 
M 149.58 202.7 151.06 204.43 154.84 209.46 
M 101.36 121.21 105.83 127.19 109.95 133.61 113.9 140.72 120 152.39 
M 145.66 192.93 148.07 195.77 
M 151.21 199.4 154.1 202.93 
M 156.68 206.37 159.04 209.71 
M 161.35 212.91 163.79 215.94 
M 104.84 119.81 108.01 124.05 112.05 130.23 115.99 137.17 124.35 152.71 
M 148.23 190.23 152.96 195.91 
M 155.93 199.57 161 206.58 
M 168.26 216.03 170.89 218.89 
M 173.55 221.64 176.16 224.27 
M 178.66 226.77 181.05 229.11 
M 108.23 118.45 112.13 123.9 116.05 130.15 123.94 144.48 128.9 152.83 
M 151.74 188.34 154.88 192.23 
M 157.89 196.01 163.08 203.26 
M 172.87 216.16 175.53 219.07 
M 178.18 221.85 183.2 226.98 
M 111.55 117.25 114.19 120.91 118.03 126.8 126.07 140.73 131.65 149.64 
M 156.87 188.38 162.74 196.07 
M 165.26 199.76 167.61 203.32 
M 169.96 206.76 172.41 210.09 
M 174.95 213.28 182.79 222.04 
M 185.28 224.65 187.67 227.08 
M 114.77 116.09 119.98 123.62 128.15 136.93 135.17 147.62 137.74 151.9 
M 152.68 176.61 158.78 184.45 
M 164.79 192.27 169.8 199.76 
M 172.16 203.35 177.1 210.24 
M 184.8 219.4 189.69 224.66 
M 191.92 226.91 195.83 230.59 
M 197.6 232.05 199.36 233.3 
M 117.9 114.96 121.99 120.68 130.17 133.21 137.45 143.86 139.79 147.51 141.74 150.95 
M 153.17 170.79 154.59 172.78 
M 157.46 176.62 160.55 180.49 
M 163.68 184.4 168.08 190.28 177.94 205.2 184.3 213.58 
M 189.24 219.41 191.61 221.99 
M 203.11 232.39 205.05 233.52 
M 120.99 113.88 125.89 120.53 135.75 134.81 
M 138.27 138.36 141.98 143.83 145.53 149.89 
M 155.69 167.87 156.45 168.95 
M 159.21 172.71 162.21 176.53 
M 165.31 180.4 169.81 186.23 172.49 190.08 179.91 201.51 183.8 207.04 
M 186.33 210.46 188.77 213.6 
M 191.14 216.46 197.74 223.58 
M 199.65 225.52 201.46 227.27 
M 124.09 112.87 129.88 120.4 135.25 127.92 
M 137.64 131.27 143.96 140.21 148.65 147.65 157.22 163.21 159.67 166.99 163.9 172.59 
M 166.94 176.39 172.82 184.04 
M 175.44 187.86 180.44 195.6 
M 183.02 199.52 185.65 203.38 
M 188.25 207.05 191.91 211.91 197.54 218.36 
M 209.19 229.53 213.28 232.15 
M 127.12 111.87 136.12 123.14 145.79 136.66 153.08 147.63 161.8 163.09 164.35 166.85 174.58 179.94 
M 177.18 183.73 184.73 195.46 
M 187.39 199.47 192.57 206.8 
M 194.96 209.87 197.23 212.58 
M 199.43 215.09 203.55 219.7 
M 205.5 221.82 208.4 224.78 210.38 226.54 213.41 228.88 
M 219.46 232.85 221.37 233.96 
M 130.06 110.9 138.14 120.27 150.2 136.82 157.53 147.59 165.35 161.02 
M 167.92 164.81 175.21 174.05 179.12 179.66 
M 181.5 183.46 190.43 197.43 193.06 201.25 196.78 206.2 
M 203.49 214.16 205.56 216.57 
M 209.59 221.09 212.62 224.11 215.67 226.74 
M 221.61 231.16 223.47 232.42 
M 225.28 233.57 227.1 234.61 
M 132.96 110.02 140.12 117.7 142.38 120.32 155.9 138.78 
M 158.38 142.28 162.04 147.6 168.91 159.02 170.23 160.9 
M 175.92 168.29 180.1 173.83 182.5 177.56 189.51 189.31 194.75 197.23 198.53 202.38 
M 203.21 208.15 205.42 210.77 
M 207.57 213.34 209.68 215.83 
M 211.77 218.2 215.91 222.52 
M 219.93 226.21 221.88 227.83 
M 223.76 229.32 225.56 230.72 
M 135.86 109.16 142.05 115.35 146.72 120.51 149.12 123.56 164.09 144.15 167.71 149.57 
M 170.02 153.34 173.75 158.98 182.36 169.97 184.8 173.7 188.04 179.42 
M 190.24 183.33 193.86 189.29 199 196.88 201.49 200.2 207.31 207.33 
M 211.77 212.66 213.96 215.18 
M 216.1 217.59 220.19 221.97 
M 227.61 228.91 229.32 230.44 
M 138.79 108.3 146.34 115.49 151.23 120.87 153.71 124.02 167.27 142.7 
M 172.03 149.87 175.74 155.38 184.45 166.16 187 169.91 194.57 183.37 
M 196.93 187.28 201.94 194.71 
M 204.4 197.99 206.8 201.01 
M 216.12 212.03 218.33 214.58 
M 232.97 230.42 234.73 231.97 
M 141.81 107.41 145.92 111.11 150.74 115.79 155.81 121.36 158.31 124.55 167.96 138 177.45 152.04 180.24 155.53 184.73 160.72 
M 187.58 164.31 188.93 166.15 191.36 169.99 194.58 175.76 
M 196.65 179.59 199.93 185.3 203.61 190.86 
M 206.08 194.28 210.96 200.39 
M 215.85 206.02 218.22 208.76 
M 144.88 106.47 150.23 111.33 155.21 116.19 160.36 121.87 162.81 125.06 169.89 135.19 179.05 148.9 181.73 152.29 187.7 158.98 190.59 162.53 193.24 166.32 195.62 170.22 198.78 175.95 
M 200.83 179.68 202.97 183.35 
M 210.19 193.81 213.98 198.42 222.54 208.18 
M 236.73 227.19 238.53 229.09 
M 147.95 105.52 157.11 114.04 162.27 119.38 164.78 122.34 167.19 125.56 171.9 132.45 179.63 144.19 
M 182.02 147.49 183.27 149.13 187.58 153.98 
M 190.56 157.32 193.46 160.88 
M 196.16 164.67 200.83 172.39 
M 202.89 176.09 204.91 179.67 
M 207.01 183.17 210.54 188.46 213.1 191.85 215.7 195.01 223.3 203.49 225.58 206.25 228.59 210.32 
M 230.4 212.97 232.08 215.59 
M 238.62 225.34 240.45 227.42 
M 151.03 104.57 161.55 114.42 166.68 119.81 169.2 122.88 171.63 126.22 180.57 139.69 183.89 144.4 
M 186.36 147.52 193.42 155.55 196.32 159.14 199.06 162.99 203.84 170.73 208.9 179.53 
M 226.17 201.58 229.42 205.69 233.9 212.69 
M 238.79 220.8 240.55 223.27 
M 242.43 225.54 243.41 226.62 246.58 229.39 
M 248.77 230.97 251 232.34 
M 154.17 103.63 160.99 109.88 168.63 117.39 171.21 120.3 173.69 123.5 184.9 139.84 187.1 142.82 197.71 155.48 200.51 159.26 205.6 167.1 213.92 181.03 216.33 184.55 220.21 189.66 
M 227.71 198.34 229.95 201.05 
M 232 203.86 233.87 206.75 
M 237.29 212.6 238.96 215.49 
M 240.69 218.29 242.52 220.95 
M 157.49 102.82 168.08 112.44 173.3 117.73 175.8 120.79 183.98 132.27 
M 186.13 135.32 191.5 142.53 199.16 151.75 201.9 155.41 207.15 163.29 210.52 168.79 
M 214.54 175.58 216.74 179.04 
M 221.72 186.07 224.25 189.32 
M 226.73 192.31 231.42 197.87 
M 235.43 203.6 240.79 212.62 
M 160.88 102 170.33 110.11 175.53 115.09 178.01 118 191.53 136.55 197.07 143.52 
M 199.5 146.51 204.65 153.46 
M 209.74 161.19 212 164.86 
M 216.05 171.66 219.35 176.87 221.85 180.49 228.12 188.85 
M 230.55 191.83 232.89 194.71 
M 236.99 200.49 240.7 206.55 
M 254.84 225.13 259.25 228.68 
M 261.54 230.3 262.76 231.13 
M 164.33 101.15 172.73 107.75 175.33 109.97 177.88 112.41 180.32 115.15 182.63 118.16 189.33 127.56 204.88 147.82 212.32 158.98 218.45 169.28 221.9 174.59 
M 224.42 178.24 227 181.82 
M 236.66 194.47 238.66 197.43 
M 244.4 206.57 248.56 212.71 
M 252.72 218.26 256.9 222.83 
M 259.04 224.83 261.24 226.74 
M 168.18 100.42 175.22 105.45 177.8 107.5 180.3 109.78 182.68 112.34 184.92 115.17 190.28 122.79 
M 192.47 125.78 204.36 141.2 212.63 153.02 
M 214.9 156.65 218.9 163.59 
M 220.93 166.95 224.39 172.25 228.29 177.81 
M 236.07 188.15 239.5 192.83 244.27 200.42 
M 246.26 203.51 248.4 206.63 
M 172.26 99.69 177.67 103.23 180.26 105.17 182.71 107.29 185.01 109.66 187.18 112.32 192.33 119.61 
M 194.46 122.52 205.25 136.56 
M 207.38 139.43 213.16 147.32 216.61 152.6 
M 220.56 159.59 222.51 163 
M 227.02 170.05 229.57 173.78 
M 232.27 177.52 240.18 187.97 
M 242.41 191.18 246.3 197.39 
M 252.59 206.79 254.84 209.88 
M 257.01 212.8 259.11 215.5 
M 176.4 98.96 179.99 101.16 182.57 102.98 185.02 104.99 187.27 107.22 189.35 109.68 197.44 120.77 202.99 127.71 
M 205.15 130.54 215.01 143.62 218.48 148.69 
M 220.57 152.16 225.3 160.88 230.91 169.87 
M 241.89 184.49 244.3 187.88 
M 256.91 206.97 259.16 210.01 
M 267.57 220.29 269.88 222.46 
M 180.67 98.38 184.71 100.96 187.15 102.88 189.39 104.99 191.41 107.28 199.25 117.73 206.02 125.82 211.26 132.97 
M 215.67 138.66 220.37 144.91 
M 224.51 151.79 229.17 160.69 231.25 164.31 234.87 169.85 
M 243.4 180.89 246.04 184.42 
M 248.37 187.86 252.41 194.44 
M 261.25 207.12 263.46 210.09 
M 184.67 97.84 186.71 99.14 189.11 100.94 191.34 102.93 193.37 105.09 201.03 114.85 207.84 122.59 214.1 131.2 220.98 139.74 224.41 144.57 
M 230.24 155.16 233.08 160.7 236.39 166.21 
M 238.94 169.88 247.56 180.84 
M 252.3 187.93 254.36 191.32 
M 265.52 207.19 267.71 210.1 
M 188.46 97.41 190.98 99.15 193.19 100.99 195.23 103.01 202.84 112.1 209.6 119.45 211.77 122.18 214.83 126.54 
M 216.89 129.45 223.79 137.96 
M 226.12 141.01 228.32 144.31 
M 232.28 151.43 234.15 155.15 
M 236.08 158.91 239.27 164.47 241.74 168.06 246.03 173.51 
M 248.94 177.2 252.89 182.71 259.37 193.12 262.81 197.92 
M 274.13 212.63 276.45 215.07 
M 192.5 97.3 195 99.16 197.06 101.01 204.76 109.42 211.37 116.37 213.53 119 219.63 127.73 222.98 132 
M 225.34 134.8 228.88 139.17 231.13 142.42 233.26 145.91 239.15 157.09 242.37 162.66 
M 247.54 169.84 250.41 173.54 
M 255.65 180.97 257.9 184.62 
M 262.32 191.56 264.65 194.8 
M 271.64 204.03 273.88 206.99 
M 278.39 212.35 280.8 214.75 
M 196.49 97.18 198.91 99.08 200.89 100.89 213.23 113.31 217.39 118.58 221.39 124.48 224.62 128.88 
M 226.91 131.69 231.61 137.44 
M 233.9 140.65 237.2 145.86 244.48 158.96 
M 246.81 162.64 249.39 166.26 
M 259.69 181.06 264.15 188.22 
M 268.84 194.69 275.75 203.81 
M 277.97 206.74 282.58 212.01 
M 287.46 216.75 289.91 219.03 
M 200.64 97.09 204.86 100.55 212.04 107.11 
M 214.15 109.21 217.28 112.71 219.3 115.36 225.3 124.19 227.44 127.08 230.86 131.25 
M 233.2 134.13 236.71 138.83 242.39 147.65 
M 249.01 159 251.52 162.72 
M 254.19 166.37 256.85 170.03 
M 261.64 177.44 263.83 181.12 
M 266.05 184.69 268.34 188.06 
M 275.27 197.34 279.81 203.5 
M 286.67 211.66 289.11 214.11 
M 205.15 97.05 211.07 101.67 215.21 105.33 217.28 107.38 219.31 109.66 221.29 112.2 227.2 120.83 230.35 125.09 
M 234.86 130.75 239.58 137.03 
M 241.97 140.45 245.54 145.75 252.38 157.22 256.34 162.85 
M 258.97 166.49 263.73 173.79 
M 272.45 187.49 277.02 193.67 
M 279.33 196.85 286.07 206.03 
M 210.07 97 215.29 100.91 219.39 104.61 221.39 106.76 223.34 109.19 226.22 113.27 
M 228.19 116.08 234.38 124.43 
M 236.61 127.3 245 138.61 247.4 142.16 250.85 147.72 
M 253.17 151.57 255.68 155.44 
M 261.04 162.96 265.82 170.14 
M 270.04 177.18 272.15 180.48 
M 274.31 183.62 283.37 196.39 
M 285.65 199.65 287.91 202.75 
M 294.92 211.14 297.36 213.77 
M 215.1 96.87 219.48 100.21 223.47 104.09 227.31 108.92 236.31 121.02 
M 238.47 123.84 245.54 133.39 
M 247.95 136.87 257.44 151.73 
M 260.11 155.57 265.44 162.97 
M 267.79 166.5 273.08 175.04 276.22 179.76 
M 278.37 182.83 282.82 189.23 
M 285.12 192.63 287.44 196.03 
M 292.05 202.45 294.35 205.44 
M 296.7 208.31 299.11 211.11 
M 219.99 96.74 223.57 99.69 225.52 101.66 229.41 106.2 241.52 121.94 249.66 133.47 
M 252.01 137.02 254.33 140.62 
M 256.65 144.29 260.31 149.93 267.1 159.28 
M 269.6 162.84 276.09 172.88 
M 282.46 182.23 286.93 188.92 
M 291.6 195.81 296.26 202.29 
M 225.05 97.1 229.53 101.49 233.54 106.12 241.5 116.12 246.84 123.42 
M 249.09 126.75 258.35 140.77 
M 263.21 148.07 270 157.29 275.89 165.94 
M 280.15 172.43 282.29 175.57 
M 284.44 178.73 286.62 182 
M 288.84 185.37 291.14 188.85 
M 293.49 192.34 295.84 195.76 
M 229.86 97.66 235.68 103.73 241.71 110.91 245.68 115.95 250.92 123.63 
M 253.13 127.03 258.87 135.62 267.52 147.95 
M 270.25 151.58 274.23 156.98 279.94 165.61 
M 282.13 168.93 286.49 175.41 
M 288.68 178.67 290.89 182.03 
M 293.14 185.47 295.44 188.97 
M 297.78 192.45 300.13 195.88 
M 307.09 205.91 309.42 209.1 
M 234.72 98.44 237.78 101.52 241.88 106.07 247.78 113.26 251.76 118.99 258.28 129.01 261.8 133.98 
M 264.24 137.3 266.77 140.68 
M 269.37 144.14 276.07 153.06 286.37 168.82 
M 290.81 175.43 297.5 185.74 
M 299.79 189.24 302.1 192.73 
M 304.41 196.2 306.72 199.64 
M 311.28 206.33 313.6 209.54 
M 240 99.66 245.96 105.98 249.81 110.66 253.69 116.14 260.1 125.83 262.4 129.06 268.68 137.11 
M 271.35 140.43 278.06 149.14 280.52 152.76 286.16 161.83 
M 288.45 165.36 297.45 179.09 
M 245.33 100.96 247.9 103.64 251.73 108.11 255.61 113.31 258.73 117.85 
M 260.9 121.01 266.71 128.91 277.47 141.8 281.39 147.1 
M 283.8 150.75 290.57 161.75 
M 292.88 165.29 295.18 168.77 
M 299.68 175.85 301.88 179.45 
M 304.05 183.01 306.22 186.53 
M 308.42 190.04 310.65 193.55 
M 315.1 200.45 317.31 203.81 
M 250.78 102.52 255.5 107.94 266.29 122.44 269.99 127.13 
M 275.31 133.38 280.81 139.88 
M 283.44 143.36 287.1 148.84 293.92 159.91 300.81 170.66 304.12 176.19 
M 306.28 179.85 308.41 183.44 
M 312.71 190.49 314.89 193.98 
M 256.12 104.07 261.49 110.38 273.32 125.34 284.07 138.06 289.21 145.17 299.63 161.71 
M 301.91 165.36 313.81 185.68 319.11 194.4 
M 261.97 105.97 265.71 110.2 272.94 118.91 285.9 134.73 289.9 139.86 
M 295.08 147.21 299.77 154.6 
M 301.99 158.22 304.2 161.89 
M 306.44 165.64 308.64 169.46 
M 315.01 180.78 317.1 184.38 
M 325.43 198.19 329.83 204.89 
M 268.3 108 277.59 118.7 291.8 136.51 
M 294.57 140.05 298.59 145.62 304.44 154.84 
M 306.6 158.5 310.9 166.07 
M 313.03 169.95 315.13 173.81 
M 317.23 177.6 321.4 184.86 
M 329.63 198.58 331.82 201.96 
M 274.9 110.07 282.18 118.57 289.56 128.24 297.9 138.47 303.37 145.96 305.79 149.67 310.11 157.03 321.52 178.12 
M 323.62 181.77 329.63 192.2 
M 331.68 195.63 333.83 199.02 
M 281.4 112.08 286.66 118.54 293.97 128.17 298.19 133.3 
M 301.17 136.91 305.53 142.54 306.82 144.42 
M 309.28 148.17 313.55 155.65 
M 315.53 159.44 317.53 163.29 
M 319.54 167.19 323.68 174.9 
M 325.79 178.61 333.76 192.69 
M 287.47 113.92 291.06 118.44 295.8 124.81 307.44 139.08 310.26 142.88 312.71 146.7 314.9 150.51 324.83 169.7 330 179.07 
M 332 182.72 333.95 186.29 
M 337.9 193.15 340.07 196.44 
M 293.74 116.02 300.26 124.76 312.14 139.45 315.95 145.25 
M 318.16 149.12 326.14 164.4 
M 328.12 168.24 332.12 175.77 
M 334.12 179.5 340.03 190.19 
M 342.13 193.45 344.38 196.62 
M 299.94 118.2 304.9 124.89 313.87 136.02 316.68 139.9 319.19 143.8 321.43 147.72 330.45 164.81 
M 332.34 168.56 334.25 172.29 
M 336.22 176.05 342.24 187.12 
M 346.47 193.54 348.73 196.64 
M 306.39 120.77 317.08 134.54 
M 319.85 138.41 323.6 144.28 330.98 157.66 
M 332.85 161.35 334.64 165.02 
M 342.39 180.08 346.57 187.23 
M 313.08 123.5 320.44 133.04 323.18 136.89 326.94 142.73 
M 329.27 146.62 334.49 156.08 339.63 166.86 343.5 174.36 347.79 182.04 352.95 190.37 
M 355.07 193.54 357.24 196.77 
M 319.95 126.33 325.27 133.42 327.92 137.23 332.86 144.96 337.14 152.58 343.81 166.82 346.8 172.45 
M 351.08 180.15 354.18 185.49 357.23 190.33 
M 326.78 129.09 330.14 133.68 335.28 141.3 337.66 145.14 340.8 150.83 
M 342.58 154.48 347.26 165.02 
M 351.23 172.53 353.35 176.41 
M 359.46 187.03 361.55 190.36 
M 333.45 131.73 340.1 141.45 342.45 145.23 344.54 149.05 346.32 152.73 350.78 163.27 357.77 176.54 
M 359.76 180.17 363.78 187.03 
M 339.79 134.17 344.86 141.53 347.15 145.27 349.12 149.07 352.93 158.04 
M 354.46 161.64 357.18 167.25 362.17 176.64 
M 364.09 180.17 366.06 183.63 
M 346.03 136.53 349.48 141.56 351.67 145.28 353.52 149.06 357.31 158.12 
M 358.94 161.83 360.77 165.62 
M 364.65 173.08 368.42 180.13 
M 352.15 138.9 353.91 141.56 355.97 145.24 357.73 148.97 363.37 161.96 
M 365.21 165.73 367.1 169.4 
M 372.77 180.12 374.79 183.85 
M 357.95 141.14 360.08 145.12 368.59 163.76 377.15 180.13 
M 363.17 143.12 371.01 159.77 373.85 165.22 
M 368.16 145 375.28 159.44 378.32 164.8 
M 373.22 146.91 377.58 155.53 379.89 159.54 
M 378.15 148.78 379.93 152.14 
M 89.56 125.88 87.05 129.25 
M 94.62 123.89 89.01 131.7 
M 99.94 121.77 95.07 128.28 90.36 135.06 
M 106.22 119.26 101.88 124.32 99.3 127.62 92.91 136.68 
M 112.41 116.94 108.78 121.07 101.04 130.6 94.54 139.71 
M 118.57 114.72 115.29 118.15 110.47 123.96 100.12 137.28 94.7 144.91 
M 124.51 112.73 119.22 118.09 116.84 120.84 99.1 144.22 96.14 148.45 
M 130.19 110.86 125.51 115.48 120.72 120.72 118.4 123.68 111.39 133.61 104.94 142.26 
M 102.21 145.82 99.56 149.6 
M 135.59 109.24 127 117.87 124.61 120.58 122.28 123.54 113.04 137.11 105.32 147.56 101.63 153.41 
M 99.25 157.49 98.76 158.35 
M 141.43 107.52 137.64 110.98 133.26 115.33 128.57 120.44 126.21 123.38 123.93 126.59 114.67 140.75 108.42 149.53 
M 106.07 153.35 103.55 157.88 
M 148.29 105.41 143.94 109.01 139.46 113.1 134.97 117.7 132.63 120.33 130.26 123.25 127.93 126.44 122.19 135.33 
M 119.87 139.03 111.37 151.49 108.74 156.01 
M 155.8 103.23 150.51 107.23 145.91 111.11 141.36 115.34 136.77 120.28 134.4 123.16 129.74 129.72 120.31 144.53 116.64 149.87 
M 163.11 101.45 157.32 105.52 152.52 109.37 147.93 113.34 143.31 117.75 138.62 123.13 136.26 126.26 128.09 138.78 
M 125.63 142.58 119.07 152.31 
M 169.68 100.15 164.43 103.75 159.3 107.65 152.3 113.64 147.67 117.96 142.89 123.2 140.52 126.28 137.14 131.28 
M 134.88 134.85 128.75 144.27 122.95 152.62 
M 175.75 99.07 169.22 103.69 163.8 107.85 159 111.95 153.31 117.23 
M 150.95 119.54 147.28 123.42 144.84 126.4 142.57 129.6 135.86 140.25 129.3 149.72 
M 102.95 192.75 101.65 194.61 
M 181.22 98.3 171.36 105.64 165.88 110.1 158.95 116.55 154.31 121.19 150.57 125.26 
M 148.13 128.25 144.74 133.09 137.95 143.85 131.61 152.72 
M 103.6 198.35 100.9 202.06 
M 186.62 97.57 181.92 101.06 174.99 106.55 
M 172.12 108.91 165.63 114.71 160.03 120.49 
M 157.66 123.02 153.91 127.16 151.47 130.14 149.17 133.31 143.62 142.04 
M 141.18 145.68 136.63 152.09 
M 105.48 201.96 102.87 205.52 
M 191.23 97.33 186.52 100.94 178.6 107.46 172.93 112.48 169.09 116.14 
M 166.73 118.51 162.17 123.53 
M 159.75 126.27 156.05 130.58 153.67 133.62 145.6 145.77 
M 104.89 208.76 102.39 211.94 
M 195.43 97.21 190.78 100.96 180.68 109.77 175.12 115.08 170.08 120.18 165.4 125.34 158.2 133.99 155.86 137.1 152.39 142.21 
M 150 145.82 146.88 150.42 
M 104.55 214.78 103.28 216.3 
M 199.37 97.11 194.76 101.01 185.37 109.66 177.24 117.96 169.81 125.94 165.02 131.49 160.33 137.37 157.99 140.56 151.89 149.55 
M 149.24 153.43 148.32 154.78 
M 113.81 208.36 111.43 211.57 
M 203.05 97.07 198.59 100.98 192.03 107.3 187.16 112.32 180.57 119.61 
M 175.5 125.27 169.41 132.06 164.77 137.68 160.08 144.04 151.38 156.78 
M 123.06 201.75 118.28 208.25 
M 115.87 211.4 113.49 214.45 
M 206.63 97.03 200.19 102.97 193.61 109.77 178.74 127.25 175.03 131.39 
M 172.6 134.08 169.11 138.15 166.87 141.04 160.85 149.47 
M 158.16 153.32 152.85 161.15 
M 210.15 97 204.09 102.69 197.35 109.84 192.95 115.16 183.18 127.61 180.72 130.56 173.32 138.77 170.02 143.01 
M 167.81 146.1 158.54 159.23 155.04 164.58 
M 134.9 198.07 134.53 198.69 
M 125.04 211.45 122.51 214.42 
M 213.69 96.9 210.69 99.7 205.76 104.67 201.11 109.74 198.96 112.34 185.13 130.77 175.19 142.12 161.78 161.13 
M 159.18 165.08 156.8 168.94 
M 154.56 172.78 152.62 176.09 
M 142.2 193.35 141.06 195.48 
M 137.17 202.17 134.93 205.38 
M 129.85 211.55 127.23 214.53 
M 217.21 96.81 209.93 104.03 205.08 109.38 202.83 112.1 198.6 117.78 191.86 127.4 188.23 132.23 
M 185.65 135.32 179.28 142.62 177.09 145.5 166.49 161.01 
M 161.41 168.83 157.04 176.62 
M 154.82 180.54 154.29 181.44 
M 220.82 96.72 216.64 100.67 211.66 105.98 209.23 108.79 204.7 114.5 193.74 130.34 191.29 133.59 183.53 142.86 181.21 145.87 175.12 155.36 166.18 168.68 
M 163.9 172.59 159.74 180.5 
M 155.21 188.37 152.86 192.19 
M 150.63 195.84 148.58 199.28 
M 144.55 205.7 142.24 208.78 
M 137.02 214.74 134.34 217.64 
M 224.08 96.99 218.36 102.52 213.42 108.06 208.81 113.98 203.49 121.61 
M 201.32 124.85 195.54 133.18 191.75 138.01 
M 189.2 141.19 185.54 145.95 183.39 149.13 176.33 160.82 
M 173.8 164.6 169.92 170.44 167.61 174.4 162.51 184.41 
M 157.94 192.25 155.56 195.96 
M 149.18 205.93 146.95 208.98 
M 227.32 97.36 224.86 99.58 220.05 104.51 215.19 110.3 210.71 116.46 202.07 129.37 198.52 134.31 
M 196.06 137.56 189.95 145.76 187.78 149.08 182.25 158.97 178.89 164.44 
M 176.35 168.28 173.79 172.2 
M 171.41 176.2 169.27 180.25 
M 165.16 188.34 162.88 192.26 
M 160.45 196.04 158.04 199.62 
M 230.78 97.77 226.47 101.6 224.11 104.03 219.3 109.66 214.7 115.92 207.29 127.24 
M 205.03 130.55 202.69 133.82 
M 200.31 137.06 195.54 143.67 
M 193.28 147.09 191.22 150.53 
M 189.36 153.93 184.88 162.48 183.77 164.34 
M 181.39 168.11 178.8 171.99 
M 176.24 175.94 173.91 179.99 
M 169.74 188.22 167.56 192.23 
M 157.9 206.43 155.67 209.51 
M 153.43 212.46 151.1 215.31 
M 234.22 98.32 230.51 101.48 228.09 103.8 223.32 109.19 218.65 115.43 210.17 128.5 206.79 133.39 
M 204.47 136.62 200.98 141.51 196.58 148.44 189.3 162.5 187.28 166.14 184.92 169.92 180.98 175.72 
M 178.46 179.71 177.26 181.73 170.91 194.1 167.25 199.76 
M 155.39 215.57 153.11 218.32 
M 237.48 99.08 234.63 101.48 229.73 106.19 224.92 111.89 220.31 118.3 211.9 131.4 205.13 141.15 201.9 146.29 
M 199.9 149.92 194.51 160.89 
M 192.62 164.45 189.37 169.93 185.54 175.6 
M 182.93 179.49 181.65 181.47 178.31 187.65 
M 171.73 199.72 166.65 206.71 
M 164.17 209.91 157.43 218.52 
M 240.75 99.84 236.34 103.74 231.38 108.73 228.92 111.61 226.54 114.73 221.98 121.29 213.69 134.25 207.04 144.27 204.99 147.82 203.11 151.56 197.83 162.91 194.77 168.3 
M 192.45 171.92 184.82 183.35 
M 182.53 187.4 177.29 197.71 176.14 199.63 
M 173.74 203.34 171.21 206.77 
M 163.92 215.95 161.74 218.68 
M 243.95 100.58 235.54 108.6 233.02 111.35 230.57 114.36 225.91 120.97 221.59 127.59 211.22 143.96 208.12 149.53 
M 206.29 153.4 202.83 161.24 
M 200.99 164.98 197.88 170.38 191.69 179.48 
M 189.19 183.33 186.85 187.3 
M 184.69 191.38 182.63 195.5 
M 166.14 218.78 163.96 221.39 
M 246.93 101.42 239.71 108.5 234.67 113.98 232.22 117.12 228.77 122.2 
M 226.58 125.61 214.37 145.44 
M 212.25 149.26 209.39 155.24 205.98 163.28 204.09 167.05 200.83 172.41 
M 198.44 175.96 195.97 179.6 
M 193.52 183.38 191.22 187.31 
M 189.06 191.35 186.97 195.43 
M 175.48 213.3 170.67 218.88 
M 166.2 223.91 163.96 226.23 
M 249.79 102.24 241.36 110.92 238.82 113.63 236.32 116.6 233.92 119.85 231.64 123.31 224.59 134.86 
M 220.71 141.43 216.4 148.9 
M 214.3 152.88 212.41 156.99 
M 208.95 165.15 208.05 167.11 206.01 170.79 202.56 176.11 
M 200.16 179.7 196.62 185.32 195.54 187.31 
M 193.41 191.31 189.3 199.45 
M 166.05 228.45 163.66 230.49 
M 252.57 103.03 240.47 116.19 238.02 119.27 233.49 126.15 224.74 141.11 
M 220.5 148.51 217.17 154.44 215.19 158.58 212.59 164.79 
M 210.81 168.76 209.87 170.69 207.73 174.34 203.09 181.51 199.79 187.25 
M 197.71 191.21 193.63 199.26 
M 189.44 207.03 187.19 210.46 
M 182.38 216.5 177.58 221.82 
M 172.81 226.45 170.42 228.55 
M 255.35 103.83 242.19 118.89 239.81 122.09 237.57 125.54 221.03 153.97 218.83 158 216.04 164.18 
M 214.31 168.25 211.53 174.11 210.45 175.93 
M 208.24 179.57 203.94 187.08 
M 199.92 194.93 197.88 198.87 
M 193.74 206.69 191.54 210.31 
M 189.25 213.59 184.57 219.39 
M 182.2 222.01 179.79 224.44 
M 258.15 104.73 246.38 118.77 244.02 121.82 239.54 128.57 236.45 133.81 
M 234.48 137.24 229.49 146.03 221.49 159.48 
M 219.49 163.5 215.15 173.65 213.22 177.49 208.98 184.86 206.05 190.68 
M 204.09 194.53 197.92 206.02 
M 195.77 209.74 193.54 213.23 
M 261.09 105.68 250.45 118.91 245.94 125 241.58 131.78 232.25 147.76 
M 229.97 151.47 224.15 160.98 222.1 164.88 217.01 177.13 214.1 182.82 
M 210.14 190.3 206.19 197.77 
M 204.14 201.47 202.05 205.19 
M 199.9 208.9 197.7 212.49 
M 195.48 215.9 191.06 222.03 
M 188.77 224.68 187.6 225.93 183.87 229.23 
M 264.21 106.69 261.14 110.39 252.22 122.12 247.91 128.34 226.97 162.6 
M 223.19 170.44 219.94 178.71 
M 218.17 182.62 214.32 190.02 
M 212.34 193.63 204 207.99 
M 185.76 231.36 183.14 233.18 
M 267.43 107.73 263.01 113.21 254.06 125.48 249.91 131.78 242.52 144 
M 240.23 147.67 235.44 155.15 
M 233.07 158.85 229.78 164.32 227.88 168.06 221.33 184.31 216.58 193.29 
M 201.36 217.5 199.13 220.72 
M 194.75 226.55 192.49 229.08 
M 270.79 108.78 264.92 116.17 255.97 128.88 244.45 147.62 
M 242 151.4 239.5 155.19 
M 237.07 158.92 233.69 164.35 232.73 166.15 
M 229.25 173.82 227.65 177.88 
M 226.07 181.94 224.41 185.83 
M 220.79 192.96 217.84 198 214.59 203.09 
M 212.33 206.53 210.02 209.96 
M 205.37 216.61 200.78 222.89 
M 198.56 225.78 196.36 228.46 
M 274.21 109.85 266.9 119.22 260.04 129.06 255.92 135.5 247.53 149.49 238.84 162.64 
M 234.86 169.86 233.21 173.66 
M 231.61 177.58 229.14 183.48 226.57 189.06 
M 224.84 192.55 221.08 199.2 
M 218.96 202.53 216.69 205.91 
M 214.33 209.3 211.91 212.64 
M 209.47 215.87 207.05 218.99 
M 202.34 224.88 200.08 227.61 
M 277.72 110.96 271.43 118.99 264.23 129.01 259.97 135.64 251.75 149.61 241.89 164.48 239.81 168.06 238.94 169.89 
M 237.27 173.61 234.88 179.32 232.26 184.98 
M 230.45 188.59 225.2 198.69 
M 218.71 208.7 213.75 215.21 
M 211.22 218.29 206.25 224.04 
M 199.3 231.64 197.08 233.84 
M 281.29 112.04 271.05 125.45 266.35 132.2 262.03 139.05 254.85 151.64 
M 252.58 155.34 246.29 164.45 244.06 168.03 242.24 171.71 237.32 182.89 234.45 188.25 
M 230.8 194.92 229.06 198.16 
M 220.62 211.42 216.83 216.17 210.37 223.32 
M 284.88 113.14 275.71 125.23 270.89 131.97 266.31 138.94 264.12 142.54 261.05 148.07 
M 259.11 151.78 255.99 157.34 252.29 162.75 
M 249.79 166.27 247.57 169.85 
M 245.71 173.52 243.25 179.08 240.55 184.53 
M 238.55 188.02 233.63 196.17 229.09 204.21 
M 224.81 210.86 222.4 214.04 
M 219.87 217.09 217.27 219.97 
M 288.48 114.23 276.77 130.05 
M 274.41 133.44 270.88 138.69 266.28 146.13 260.53 157.46 258.34 161.11 253.34 168.13 251.07 171.71 249.16 175.36 245.7 182.66 243.74 186.21 236.36 197.5 
M 234.5 200.62 230.77 207.04 
M 228.71 210.3 225.3 215.05 224.06 216.54 
M 216.33 224.65 213.72 227.01 
M 291.94 115.39 282.57 128.26 274.41 140.24 
M 272.02 143.98 268.63 149.77 262.91 161.18 259.37 166.5 
M 254.6 173.62 253.51 175.43 247.84 186.17 245.67 189.54 242.21 194.31 
M 240 197.4 236.1 203.57 
M 234.25 206.73 232.3 209.88 
M 218 226.45 212.85 230.65 
M 210.38 232.58 208 234.38 
M 295.38 116.6 291.63 121.65 284.82 131.48 275.54 145.58 273.18 149.48 267.17 161.15 265.08 164.78 259.05 173.73 
M 254.73 180.95 250.73 187.89 
M 246.15 194.3 243.77 197.37 
M 237.62 206.58 235.72 209.67 
M 229.4 218.41 225.9 222.39 222.2 225.93 
M 219.66 228.09 217.1 230.1 
M 298.81 117.8 295.98 121.5 293.66 124.87 279.04 147.23 
M 276.64 151.13 270.28 162.8 
M 268.13 166.49 259.82 179.25 254.6 188 
M 252.44 191.25 247.71 197.4 
M 243.13 203.48 239.12 209.6 
M 237.12 212.59 232.95 218.17 
M 230.76 220.73 226.17 225.45 
M 302.33 119.12 300.44 121.45 298.06 124.77 278.75 154.75 
M 276.48 158.66 269.97 169.98 
M 267.62 173.74 260.6 184.68 
M 258.48 188.12 255.27 192.98 247.03 203.52 
M 240.6 212.61 238.5 215.47 
M 234.26 220.64 232.1 222.95 
M 305.96 120.6 302.61 124.8 294.06 138.27 281.86 156.44 278.41 162.16 
M 276.22 165.91 269.38 177.26 
M 267.01 181.06 260.33 191.51 
M 258.16 194.66 253.52 200.68 
M 251.16 203.65 246.6 209.67 
M 244.34 212.66 239.91 218.26 
M 235.59 223.01 233.44 225.07 
M 231.26 226.99 229.03 228.82 
M 226.72 230.61 224.34 232.32 
M 309.75 122.14 307.37 125.04 305.05 128.32 298.79 138.52 287.51 154.45 
M 284.98 158.19 281.4 163.77 271.15 180.65 
M 268.88 184.5 265.55 189.94 262.28 194.78 
M 260.07 197.86 250.71 209.77 
M 248.35 212.72 244.84 217.04 241.39 220.9 
M 225.82 233.51 223.48 234.93 
M 313.67 123.74 309.88 128.64 303.57 138.82 301.25 142.23 293.36 152.62 286.88 161.82 
M 284.48 165.42 276.37 178.02 267.57 193.16 260.93 202.52 254.98 209.91 
M 250.1 215.63 247.7 218.4 
M 242.96 223.36 240.66 225.45 
M 317.62 125.37 314.76 129.03 312.52 132.34 308.34 139.14 306.04 142.57 295.25 156.29 292.58 159.92 282.79 173.89 280.46 177.4 277.07 183.09 
M 274.88 187.02 271.7 192.76 269.58 196.25 265.2 202.6 261.73 207.14 
M 259.3 210.03 256.8 212.83 
M 247.02 223.4 244.63 225.6 
M 237.75 230.66 235.55 232.01 
M 321.61 127.01 317.31 132.77 310.75 142.92 308.24 146.31 297.13 159.89 293.26 165.27 
M 290.75 168.76 285.81 175.42 
M 283.44 178.8 280.02 184.26 276.82 190.15 
M 274.73 193.98 271.58 199.31 268.28 204.12 
M 265.99 207.19 263.59 210.1 
M 258.56 215.53 256.05 218.16 
M 246.38 227.59 244 229.36 
M 325.58 128.62 322.12 133.18 315.27 143.37 312.83 146.71 305.96 154.94 
M 303.12 158.29 299.05 163.49 295.19 168.75 
M 292.64 172.13 290.12 175.41 
M 287.65 178.67 284.11 183.78 281.91 187.51 278.78 193.36 
M 276.71 197.13 273.54 202.38 271.33 205.6 267.83 210.1 
M 265.35 212.87 262.82 215.49 
M 257.78 220.51 251.74 226.41 248.18 229.35 
M 329.49 130.17 324.45 136.99 317.22 147.21 314.66 150.48 304.96 161.93 
M 302.29 165.37 299.69 168.84 
M 297.09 172.24 288.29 183.65 286.01 187.17 278.67 200.32 
M 276.53 203.75 274.33 206.97 
M 272.03 209.99 268.36 214.19 264.52 217.96 
M 262 220.35 259.53 222.68 
M 333.38 131.71 318.98 151.01 308.14 163.97 292.6 183.75 290.22 187.1 287.98 190.66 282.71 199.93 
M 280.59 203.43 276.2 209.77 
M 271.42 215.35 266.27 220.31 
M 263.76 222.57 261.34 224.73 
M 337.25 133.2 325.94 148.2 312.57 164.45 298.25 182.49 
M 295.75 185.63 292.2 190.6 284.62 203.05 
M 278.15 212.37 277.03 213.78 273.35 217.71 
M 270.76 220.18 268.15 222.51 
M 341.1 134.66 336.19 141.34 330.52 148.57 316.91 165.01 297.69 189.11 
M 293.1 195.8 290.89 199.27 
M 286.52 205.98 284.42 209.1 
M 275.41 219.94 272.81 222.33 
M 344.88 136.1 338.18 145.16 323.86 162.31 309.6 180.19 
M 307.01 183.3 304.48 186.36 
M 299.67 192.57 295.1 199.1 
M 290.63 205.64 286.46 211.67 
M 274.97 224.36 272.31 226.51 
M 348.57 137.51 345.75 141.54 339.97 148.97 328.21 162.81 315.25 179.11 308.81 186.79 
M 306.34 189.83 299.36 199.12 
M 294.82 205.42 290.57 211.36 
M 284.49 219.33 282.23 221.76 
M 352.13 138.89 347.64 145.27 344.67 149.05 335.34 159.68 319.57 179.63 315.71 184.23 
M 313.13 187.25 308.25 193.31 
M 305.93 196.34 303.63 199.36 
M 292.68 213.89 289.71 217.84 286.61 221.52 
M 355.58 140.23 352.14 145.28 349.24 149.07 339.63 159.76 336.69 163.26 327.61 175.34 
M 325.11 178.54 313.69 192.23 303.32 205.57 
M 358.91 141.5 353.64 149.06 350.53 152.74 343.93 159.76 340.86 163.27 338.08 166.86 330.56 177.39 326.84 182.12 
M 321.72 188.17 317.95 192.67 308.68 204.56 303.14 211.28 
M 362.1 142.71 357.84 148.97 354.86 152.71 345.1 163.24 342.22 166.84 333.46 179.4 
M 331.01 182.58 328.5 185.61 
M 325.95 188.59 320.95 194.59 
M 318.56 197.58 313.97 203.5 
M 303.13 216.52 301.06 218.89 
M 365.2 143.88 361.91 148.8 359.07 152.63 355.96 156.29 349.47 163.24 346.49 166.81 343.78 170.52 337.56 179.77 
M 335.11 183.07 332.63 186.12 
M 330.11 189.05 327.62 191.99 
M 322.73 197.96 320.38 200.94 
M 318.1 203.88 313.72 209.54 
M 307.38 216.91 305.28 219.17 
M 368.25 145.04 363.19 152.5 360.25 156.3 350.92 166.88 348.13 170.52 341.71 180.03 
M 339.23 183.49 328.11 196.84 317.86 209.97 
M 313.7 215.17 311.63 217.49 
M 371.35 146.21 364.49 156.24 359.99 161.85 
M 356.96 165.39 352.6 170.68 346.01 180.15 
M 343.45 183.76 342.17 185.49 338.34 190.04 
M 333.48 195.84 331.1 198.74 
M 328.74 201.66 326.42 204.59 
M 374.48 147.39 365.86 160.04 354.35 174.57 347.8 183.82 
M 345.16 187.22 342.55 190.35 
M 337.67 196.26 335.31 199.17 
M 332.97 202.08 330.64 204.97 
M 377.61 148.57 367.32 163.82 354.75 180.19 
M 352.13 183.78 346.89 190.42 
M 380.16 150.7 374.35 159.52 366.07 171.27 351.22 190.38 
M 346.28 196.63 341.56 202.72 
M 380.16 156.91 373.15 167.16 367.57 174.83 353.01 193.52 
M 350.6 196.64 348.26 199.73 
M 380.16 163.12 371.89 174.63 362.37 187.01 
M 352.5 199.79 350.22 202.85 
M 380.16 169.11 369.36 183.64 
M 366.74 187.07 359.11 196.82 
M 380.16 175.02 371.15 187.25 
M 380.16 181.02 374.3 189.27 370.58 194.19 
M 380.16 187.38 377.51 191.25 
M 174.93 98.3 204.58 41.42 205.33 41.8 178.07 98.73 
M 187.44 96.71 211.93 51.91 212.68 52.3 190.49 97.36 
M 200.05 96.36 219.82 62.42 220.55 62.82 203.09 97.07 
M 212.65 96.18 227.23 71.33 227.97 71.73 215.68 96.85 
M 225.29 96.48 236.51 80.34 237.23 80.78 228.19 97.47 
M 237.77 98.54 245.6 89.67 246.28 90.17 240.53 99.79 
M 249.98 101.7 254.07 98.25 254.73 98.77 252.62 103.05 
M 265.69 106.64 266.9 107.56 
M 202.56 47.58 203.25 50.21 204.34 52.52 206.03 54.35 207.1 55.1 209.48 56.39 
M 210.42 56.88 211.24 59.56 212.45 61.91 214.25 63.77 215.36 64.52 217.84 65.81 
M 218.77 66.32 219.54 68.72 220.67 70.78 222.38 72.31 223.43 72.89 225.78 73.82 
M 226.71 74.32 227.92 76.83 229.47 78.96 231.53 80.5 232.75 81.07 235.39 81.96 
M 236.29 82.51 237.44 85.08 238.13 86.25 239.89 88.18 242.18 89.56 244.82 90.56 
M 245.67 91.18 246.71 93.62 247.34 94.72 248.98 96.51 251.15 97.74 253.66 98.6 
M 254.49 99.25 256.55 101.92 258.9 104.17 261.67 105.78 263.21 106.36 266.47 107.24 
M 202.88 48.92 203.72 51.42 204.34 52.52 206.03 54.35 208.26 55.77 
M 200.5 54.66 201.25 56.87 202.47 58.71 203.29 59.47 205.26 60.72 
M 198.13 60.41 198.78 62.33 199.25 63.18 200.55 64.58 202.26 65.67 
M 195.76 66.16 196.31 67.79 196.7 68.5 197.81 69.7 199.26 70.62 
M 193.38 71.91 193.83 73.24 194.57 74.35 196.26 75.56 
M 191.01 77.66 191.62 79.16 192.32 79.92 193.25 80.51 
M 210.81 58.24 211.78 60.79 212.45 61.91 214.25 63.77 216.57 65.19 
M 208.05 65.07 208.85 67.17 209.41 68.09 210.89 69.62 212.81 70.8 
M 205.3 71.89 205.93 73.55 206.37 74.28 207.54 75.48 209.05 76.41 
M 202.55 78.72 203.33 80.46 204.19 81.34 205.29 82.02 
M 219.13 67.55 220.04 69.81 220.67 70.78 222.38 72.31 224.58 73.38 
M 216.46 74.42 217.16 76.15 217.64 76.9 218.95 78.07 220.63 78.89 
M 213.79 81.29 214.61 83.01 215.52 83.83 216.69 84.4 
M 227.29 75.6 228.64 77.96 230.44 79.8 231.53 80.5 234.04 81.54 
M 224.84 83.12 225.71 84.65 226.25 85.3 227.59 86.31 229.23 86.98 
M 236.84 83.82 238.13 86.25 239.89 88.18 240.98 88.93 243.48 90.08 
M 98.7 158.09 121.41 150.4 121.71 151.19 99.23 160.77 
M 99.39 161.63 152.44 148.09 152.66 148.9 99.89 164.44 
M 99.94 165.38 158.96 156.17 159.1 156.99 99.93 168.28 
M 99.93 169.25 164.02 165.44 164.08 166.27 100.09 172.11 
M 100.16 173.12 159.06 175.37 159.04 176.21 100.27 175.96 
M 100.29 176.99 165.76 185.75 165.66 186.59 100.3 179.87 
M 100.23 180.87 152.44 193.25 152.26 194.07 100.03 183.71 
M 99.97 184.67 141.96 199.19 141.7 199.99 99.75 187.53 
M 99.71 190.09 121.27 200.39 120.94 201.16 99.99 193.06 
M 119.08 152.31 125.31 152.77 131.5 152.74 137.6 151.93 140.63 151.25 146.64 149.57 
M 146.92 150.59 147.35 152.75 148.15 154.59 149.55 155.92 152.52 157.17 
M 152.71 158.21 152.74 160.45 153.22 162.43 154.37 164.03 157.09 165.85 
M 157.17 166.9 154.38 168.94 153.2 170.68 152.7 172.78 152.64 175.13 
M 152.62 176.19 153.08 178.72 153.45 179.9 154.64 181.93 156.46 183.51 158.69 184.81 
M 158.57 185.86 155.44 186.24 152.55 187.07 150.01 188.58 148.86 189.59 146.72 191.89 
M 146.49 192.93 143.96 193 142.77 193.18 140.63 194.03 138.85 195.58 137.29 197.58 
M 136.97 198.59 132.87 197.64 128.79 197.19 124.74 197.51 122.72 197.95 118.69 199.16 
M 122.2 152.57 128.41 152.84 131.5 152.74 137.6 151.93 143.64 150.44 
M 147.11 151.69 147.68 153.73 148.15 154.59 149.55 155.92 151.46 156.81 
M 128.82 156.71 129.5 158.59 130.41 159.46 131.65 160.04 
M 152.69 159.35 152.91 161.48 153.22 162.43 154.37 164.03 156.1 165.29 
M 132.45 162.86 132.8 164.87 133.54 165.9 134.67 166.72 
M 156.16 167.54 154.38 168.94 153.2 170.68 152.88 171.69 152.64 173.94 
M 134.71 169.36 133.55 170.27 132.79 171.4 132.42 173.52 
M 152.82 177.48 153.45 179.9 154.64 181.93 155.48 182.77 157.55 184.18 
M 132.54 177 132.95 178.57 133.72 179.89 135.61 181.36 
M 156.99 186.02 153.96 186.57 152.55 187.07 150.01 188.58 147.77 190.71 
M 135.24 183.72 133.27 184.09 132.36 184.41 130.71 185.39 129.25 186.77 
M 145.21 192.93 142.77 193.18 140.63 194.03 139.7 194.73 138.06 196.55 
M 134.92 198.08 130.83 197.32 128.79 197.19 124.74 197.51 120.7 198.52 
M 176.28 241.54 180.18 246.58 182.58 250.65 185.53 262.15 184.89 264.41 183.04 266.12 180.66 267.17 178.11 267.76 175.78 268.57 173.64 268.04 171.61 267.05 167.24 264.32 164.77 262.43 163.2 264.43 160.45 264.16 153.03 258.59 149.62 254.96 146.95 252.48 143.42 250.1 134.92 235.9 130.98 230.69 
M 172.17 240.67 174.32 244.21 176 247.68 178.14 250.97 179.94 252.74 
M 168.06 239.81 170.46 242.9 173.4 249.17 175.11 252.34 177.26 254.71 179.22 259.56 181.13 261.58 182.84 262.87 
M 163.96 238.92 166.34 241.95 168.12 247.41 169.52 250.11 171.92 252.79 
M 159.88 237.92 161.66 241.57 164.55 246.21 165.62 249.28 166.81 251.6 169.89 256.27 
M 155.8 236.93 157.49 240.64 159.15 243.77 162.85 248.33 164.06 250.96 164.78 253.53 167.45 257.88 167.97 261.61 
M 151.73 235.89 153.59 239.36 156.14 245.32 159.41 249.97 161.82 254.39 163.01 256.17 164.66 259.35 
M 147.67 234.79 150.53 240.66 152.26 243.71 153.34 246.39 154.84 252.19 156.59 253.57 
M 143.62 233.7 145.94 237.66 147.4 240.56 148.3 243.81 148.83 246.91 150.14 249.23 
M 139.54 232.7 143.95 239.93 146.26 246.26 146.09 249.11 
M 135.45 231.74 139.98 239.15 142.64 244.87 
M 347.24 208.25 353.16 215.58 352.57 216.18 345.12 210.41 
M 335.76 213.42 353.26 232.78 352.66 233.37 333.6 215.54 
M 324.13 218.22 344.16 241.41 343.54 241.98 321.91 220.27 
M 312.4 222.78 332.53 247.72 331.89 248.27 310.12 224.76 
M 300.48 226.81 321.02 253.99 320.37 254.51 298.13 228.71 
M 288.48 230.6 307.55 257.08 306.88 257.59 286.09 232.44 
M 276.42 234.16 293.66 260.61 292.97 261.09 273.94 235.9 
M 264.15 236.93 281.67 266.67 280.96 267.11 261.6 238.55 
M 251.81 239.36 265.52 265.37 264.8 265.79 249.19 240.87 
M 239.37 241.16 249.25 263.35 248.5 263.72 236.67 242.51 
M 226.85 242.22 233.43 261.02 232.66 261.34 224.06 243.38 
M 211.68 242.22 213.86 251.39 213.07 251.68 208.84 243.26 
M 351.83 215.61 350.68 218.97 350.27 220.66 350 224.04 350.5 227.44 351.51 230.85 
M 350.76 231.59 348.13 232.44 346.93 232.99 344.89 234.51 343.36 236.61 342.16 239.09 
M 341.38 239.81 338.48 240.05 337.11 240.32 334.61 241.34 332.45 243.06 330.51 245.23 
M 329.71 245.92 326.85 246.14 324.2 246.82 321.9 248.18 320.88 249.11 318.97 251.27 
M 318.15 251.93 315.15 251.43 312.26 251.42 309.52 252.17 308.21 252.81 305.64 254.43 
M 304.8 255.07 301.7 254.66 298.72 254.74 295.9 255.58 294.56 256.27 291.93 257.96 
M 291.07 258.57 288.14 258.73 285.42 259.34 283.03 260.66 281.95 261.57 279.92 263.69 
M 279.03 264.26 275.83 262.85 272.58 261.95 269.25 261.82 267.57 262.03 264.15 262.77 
M 263.23 263.3 260.06 261.75 256.82 260.7 253.46 260.41 251.75 260.54 248.26 261.13 
M 247.32 261.6 244.27 259.99 241.13 258.88 237.87 258.52 236.19 258.62 232.77 259.14 
M 231.8 259.54 228.24 256.56 224.47 254.03 220.35 252.2 218.16 251.52 213.64 250.48 
M 351.22 217.29 350.27 220.66 350 224.04 350.16 225.74 350.97 229.14 
M 349.42 231.99 346.93 232.99 344.89 234.51 344.07 235.49 342.73 237.83 
M 344.62 228.46 342.71 229.23 341.15 230.39 340.52 231.15 339.49 232.93 
M 339.82 224.93 337.91 225.83 336.97 226.8 336.25 228.04 
M 339.92 239.9 337.11 240.32 334.61 241.34 333.49 242.12 331.47 244.11 
M 334.6 235.61 332.45 235.93 331.46 236.25 329.67 237.31 328.12 238.84 
M 329.29 231.32 327.79 231.54 326.45 232.08 324.78 233.56 
M 328.26 246 325.48 246.4 324.2 246.82 321.9 248.18 319.91 250.16 
M 322.9 241.28 320.77 241.58 319.79 241.9 318.02 242.95 316.49 244.47 
M 317.54 236.56 315.37 236.99 314.15 237.72 313.08 238.77 
M 316.64 251.65 313.69 251.34 312.26 251.42 309.52 252.17 306.92 253.59 
M 311.2 246.51 308.93 246.27 306.77 246.55 305.74 246.91 303.74 248 
M 305.75 241.38 303.41 241.25 301.95 241.65 300.56 242.41 
M 303.25 254.83 300.19 254.62 298.72 254.74 295.9 255.58 293.24 257.08 
M 298.11 249.8 295.77 249.64 294.64 249.73 292.48 250.38 290.44 251.53 
M 292.97 244.77 290.56 244.73 289.06 245.17 287.63 245.97 
M 289.59 258.62 286.74 258.96 285.42 259.34 283.03 260.66 280.92 262.6 
M 284.79 253.43 282.61 253.69 281.6 253.99 279.76 255 278.14 256.48 
M 279.99 248.24 277.77 248.63 276.49 249.33 275.37 250.37 
M 277.43 263.52 274.21 262.31 272.58 261.95 269.25 261.82 265.86 262.36 
M 272.59 257.78 270.12 256.86 268.87 256.58 266.32 256.48 263.72 256.89 
M 267.75 252.04 265.16 251.21 263.39 251.14 261.58 251.43 
M 261.65 262.49 258.45 261.13 256.82 260.7 253.46 260.41 250.01 260.8 
M 255.57 254.96 253.49 254.08 252.42 253.79 250.24 253.61 248 253.86 
M 245.8 260.76 242.71 259.35 241.13 258.88 237.87 258.52 234.49 258.84 
M 240.88 254.31 238.87 253.39 237.84 253.08 235.72 252.85 233.52 253.06 
M 230.04 258.02 226.4 255.22 224.47 254.03 220.35 252.2 215.92 250.97 
M 380.16 149.54 383.07 148.63 385.92 147.14 391.45 143.27 393.78 142.12 395.99 140.66 398.66 139.92 400.87 138.54 402.51 136.72 406.34 134.12 416.16 129.16 418.63 127.4 423.2 124.63 424.59 122.46 426.43 122.59 428.46 122.49 431.06 121.49 432.89 118.79 434.94 116.86 437.29 115.98 439.34 114.41 440.97 112.47 447.09 110.17 448.9 108.58 451.1 106.98 454.66 103.72 457.77 102.73 459.66 101.88 462.36 99.7 475.33 103.7 477.64 104.92 481.42 106.53 483.63 107.65 486.07 109 487.91 110.52 488.75 113.17 489.58 117.6 490 120.69 488.65 125.66 488.5 128.67 487.64 130.95 486.23 132.83 483.81 137.22 482.45 139.27 480.64 140.86 479.48 143.11 477.52 144.69 476.32 147.06 474.79 149.09 473.56 151.43 472.04 153.47 469.94 154.93 467.4 159.32 465.47 160.82 463.49 165.67 462.14 167.73 461.21 170.19 459.83 172.21 459 174.77 460.14 177.77 461.36 180.31 461.53 181.81 462.22 183.7 463.17 185.48 466.08 190.04 468.41 193.2 477.03 203.16 478.72 205.4 481.48 210.32 481.99 211.9 483.1 214.08 484.01 216.74 484.44 219.35 485.32 222.4 485.75 225.02 487.41 231.42 486.08 233.39 482.86 236.74 480.58 238.02 478.7 239.7 476.88 241.42 474.01 244.73 461.36 250.7 456.35 246.8 453.76 245.14 451.73 243.93 449.67 243.71 447.63 242.5 444.41 238.76 441.25 236.54 437.82 234.43 435.52 233.48 434.83 231.61 432.73 230.01 431.07 229.34 428.25 228.72 426.19 226.62 421.81 222.77 417.58 220.64 415.6 219.42 413.9 218.1 409.1 215.5 407.27 213.66 405.44 211.39 402.99 210.53 398.63 207.27 394.63 204.6 389.86 200.99 387.34 199.43 385.08 197.78 380.16 193.49 
M 380.16 152.21 385.86 150.55 388.35 149.14 389.98 147.81 394.03 145.47 396.46 144.46 399.08 142.67 401.47 142.31 403.48 141.2 407.98 139.54 410.72 138.25 412.54 136.91 417.77 134.59 419.53 132.69 423.73 130.02 427.86 128.46 430.24 127.81 437.33 124.47 439.77 123.04 442.11 122.09 
M 380.16 154.88 385.95 153.58 388.41 152.62 390.5 151.63 394.43 148.95 405.11 145.43 406.86 144.18 409.15 143.29 414.46 142.38 416.54 141.41 419.28 140.75 421.56 139.56 423.92 137.96 425.34 136.52 427.52 135.66 432.38 133.2 435.64 131.91 438.46 131.17 442.77 129.6 447.45 128.46 449.3 127.6 452.69 124.72 454.74 123.39 457.79 121.78 461.27 120.53 463.6 118.64 
M 386.06 156.5 388.65 155.76 395.39 152.72 397.94 152.2 400.81 151.38 405.98 149.51 410.42 148.32 412.8 147.84 415.02 147.13 417.33 147.1 420.36 146.66 422.64 145.21 425.14 143.87 429.08 142.73 433.25 139.71 435.74 138.83 438.7 138.17 441.36 137.19 444.87 136.64 447.87 136.55 449.74 135.47 454.52 131.95 456.91 131.35 
M 388.74 158.87 393.11 157.26 395.82 156.57 398.7 156.33 401.64 156.36 403.95 155.97 408.67 154.35 410.64 153.28 412.85 152.48 415.82 152.03 418.54 152.06 420.11 152.35 422.92 151.16 424.99 149.94 427.8 147.97 430.43 147.35 432.36 147.46 434.38 146.12 
M 386.38 162.83 389.04 162.4 391.23 161.56 393.3 161.18 399.05 160.7 401.57 160.72 404.22 160.04 406.56 159.82 409.21 158.54 411.35 157.77 413.98 157.13 417.29 157.67 423.4 157.24 427.51 155.1 430.11 154.15 431.96 153.07 436.88 152.44 439.4 151.86 441.63 152.27 445.44 152.22 448.35 151.89 452.03 150.99 455.55 152.09 457.74 151.5 459.13 151.44 461.49 150.24 463.43 148.96 466.9 148.31 
M 383.59 166.05 389.25 165.76 393.5 164.88 396.09 164.6 399.53 164.92 403.91 164.36 406.72 163.79 412.04 163.28 415.22 162.48 418.16 162.63 421.3 163.16 424.11 163 426.49 162.3 428.02 161.13 429.95 160.39 432.97 160.06 435.51 160.09 438.45 161.19 440.9 160.81 442.51 159.56 446.95 159.92 
M 380.16 168.25 383.43 168.92 386.35 168.84 389.12 169.03 396.17 168.59 399.09 169.27 402.11 168.8 407.87 168.43 413.02 168.81 415.63 168.42 424.19 168.19 426.09 167.79 427.37 167.14 429.27 167.14 435.07 166.72 436.75 166.24 439.87 167.05 443.38 168.62 450.99 168.27 453.39 168.81 455.45 167.87 458.56 166.75 
M 385.85 172.05 388.44 172.38 390.96 172.38 393.64 172.13 396.56 172.32 399.9 172.98 406.06 173.47 408.13 172.79 410.81 172.64 413.93 172.9 416.36 173.56 418.49 174.59 421.6 174.32 424.07 174.31 426.82 175.12 429.36 174.85 431.92 174.96 433.94 174.78 435.67 174.1 437.64 173.65 441 174.11 445.69 173.39 448.07 173.42 449.8 174.8 452.5 176.17 
M 383.18 174.69 386.07 175.2 391.35 175.66 393.3 176.03 399.03 176.35 401.82 177.63 404.39 178.24 407.86 178.2 413.28 178.5 415.92 178.9 424.07 179.47 426.62 178.8 430.09 180.25 432.78 180.79 434.73 180.89 436.92 181.46 440 180.84 442.35 181.97 445.23 182.01 447.46 181.55 
M 383.37 177.33 386.21 178.22 391.21 178.84 395.94 179.92 398.75 180.67 401.25 181.82 403.84 182.34 406.64 182.41 415.6 184.25 421.41 183.91 423.83 183.97 425.77 184.88 
M 388.82 181.79 391.05 182.3 392.95 183.03 395.52 183.51 397.89 184.95 400.8 185.94 414.03 188.41 422.21 190.78 423.72 191.04 426.42 191.81 429.88 192.44 432.39 192.62 437.27 194.59 439.69 195.32 442.12 196.68 446.82 198 449.75 198.14 452.41 198.53 455.43 199.45 458.52 199.82 459.78 199.17 
M 388.66 185.04 390.9 186.08 395.33 187.6 402.37 191.25 405.17 191.45 408.28 192.14 410.98 193.21 413.44 193.91 415.39 194.68 417.49 195.58 419.98 196.95 422.14 197.57 425.57 197.81 433.66 199.61 436.88 199.34 439.91 200.16 442.3 201.29 444.07 202.48 446.16 204.91 450.72 206.2 453.65 207.91 456.08 209.11 459.16 209.18 462.64 209.03 466.79 211.03 469.76 211.92 
M 380.16 184.29 383.28 185.85 388.43 188.05 390.44 189.07 392.61 190.52 394.87 191.59 400.25 193.43 402.38 194.56 405.36 195.66 410.53 196.93 412.89 197.71 416.73 200.7 418.61 201.86 424.11 203.87 427.36 203.95 430.67 204.42 432.11 205.3 434.42 206.31 439.92 207.46 441.65 209.35 444.5 210.75 
M 385.86 190.04 388.13 191.22 392.52 193.93 397.67 196.67 400.23 197.81 402.89 198.15 405.56 199.25 413.8 203.5 415.59 205.73 418.03 207.86 420.38 208.7 422.72 209.98 425.06 210.34 430.8 212.56 432.81 213.56 434.51 214.12 436.68 215.32 438.68 216.13 441.8 217.94 444.03 219.67 445.98 220.23 448.97 221.74 451.82 222.89 453.97 224.62 457.2 225.57 459.22 226.37 461.38 226.67 
M 383.02 191.6 385.29 193.33 390.13 196.25 392.45 197.87 395.09 199.34 397.15 200.82 399.33 201.98 401.73 202.94 406.21 206.29 408.19 207.34 410.96 207.74 413.09 209.02 417.23 212.84 421.75 214.65 423.84 216.83 426.51 218.08 428.29 219.33 430.21 221.28 435.03 222.76 439.02 223.27 441.36 224.39 443.98 227.62 445.02 229.71 448.39 231.34 450.98 233.2 454.14 234.01 455.87 236.13 457.38 237.21 462.76 240.24 465.1 241.25 
M 276.47 109.36 279.4 110.05 281.11 109.9 284.08 108.37 285.88 108.47 288.65 113.17 290.36 113.88 291.97 114.46 293.52 114.27 296.45 112.84 297.98 113.03 299.68 116.05 300.77 117.45 303.82 118.65 307.26 118.13 308.85 117.63 310.06 118.5 311.72 121.47 313.08 122.46 316.17 123.46 317.73 123 319.52 122.76 321.24 122.85 323.13 125.81 324.28 127.16 325.83 127.77 327.05 128.05 331.72 127 332.94 128.13 335.23 131.19 338.58 132.69 340.24 132.9 341.79 132.52 343.52 132.33 345.14 133.32 347.16 135.83 348.81 136.7 350.39 137.32 351.93 137.59 353.45 137.38 356.56 137.31 357.51 140.97 
M 45.41 178.52 46.34 174.07 47.27 170.65 48.74 167.15 52.88 160.43 58.2 153.55 63.3 145.45 66.37 141.77 69.69 138.42 73.15 135.56 79.61 131.01 82.26 129.33 85.64 127.49 89.15 131.87 90.92 136.54 92.91 141.18 95.12 145.79 96.91 150.46 98.11 155.19 99.94 164.74 99.93 169.63 100.25 174.48 100.33 179.35 99.62 189.22 100.09 194.05 100.36 203.79 100.05 208.71 99.1 213.72 97.04 218.77 89.28 218.14 83.47 217.04 78.33 215.53 73.71 213.65 69.51 211.5 65.78 209.32 62.37 206.97 55.31 201.61 52.41 198.92 
M 49.26 194.87 48.16 193.08 46.35 189.24 
M 84.67 158.64 85.27 162.76 84.59 170.69 84 174.25 82.36 180.65 82.61 186.26 83.15 189.04 83.45 192 83.48 195.38 82.82 199.34 73.71 199.12 70.08 198.8 66.59 198.13 63.21 197.05 60.1 195.63 57.2 193.7 
M 50.99 198.22 42.65 182.41 42.3 180.36 43.37 178.64 45.35 178.46 46.78 179.89 48.89 186.02 51.59 196.38 52.42 198.96 
M 51.87 199.52 47.89 198.43 41.68 196.24 31.73 193.17 30.06 191.68 30 189.52 31.42 188.06 33.51 188.44 39.11 191.74 50.43 197.97 52.17 198.76 
M 62.53 171.1 60.04 167.61 58.82 163.5 59 159.22 60.55 155.23 63.32 151.96 67.01 149.76 71.2 148.88 75.46 149.41 79.31 151.29 82.34 154.33 84.22 158.18 84.76 162.43 83.88 166.63 81.68 170.31 78.41 173.08 74.41 174.64 70.13 174.82 66.02 173.59 62.53 171.1 
M 80.22 155.84 81.73 158.92 82.15 162.32 81.45 165.68 79.69 168.63 77.08 170.84 73.88 172.09 70.45 172.23 67.17 171.25 64.37 169.26 
M 67.43 164.95 66.43 163.55 65.94 161.91 66.01 160.19 66.64 158.6 67.75 157.29 69.22 156.41 70.9 156.06 72.6 156.27 74.14 157.02 75.35 158.24 76.11 159.78 76.32 161.48 75.97 163.16 75.09 164.63 73.78 165.74 72.18 166.36 70.47 166.43 68.82 165.94 67.43 164.95 
M 67.81 163.76 70.48 166.43 
M 67.31 161 72.54 166.22 
M 68.86 160.27 74.07 165.49 
M 69.18 158.34 75.23 164.38 
M 69.56 156.45 76.02 162.9 
M 73.3 157.91 76.24 160.85 
M 46.8 190.38 47.14 190.73 
M 49.44 187.98 49.68 188.23 
M 46.99 180.49 49.65 183.15 
M 46.21 174.67 51.14 179.6 
M 47.26 170.69 52.07 175.5 
M 48.75 167.13 53.26 171.64 
M 50.6 163.94 55.49 168.83 
M 52.58 160.89 56.87 165.17 
M 54.75 158.02 57.3 160.56 
M 56.95 155.17 59.56 157.78 
M 59.03 152.21 61.24 154.42 
M 60.96 149.1 63.63 151.77 
M 62.93 146.03 65.47 148.57 
M 65.16 143.22 68.49 146.55 
M 67.55 140.58 72.21 145.23 
M 70.1 138.08 74.02 142.01 
M 72.86 135.8 77.11 140.06 
M 75.76 133.67 79.41 137.32 
M 78.74 131.6 82.01 134.87 
M 81.8 129.62 86.55 134.37 
M 85.03 127.81 89.16 131.95 
M 79.7 135.02 80 133.46 79.94 132.32 79.72 131.78 79.21 131.28 
M 71.13 196.52 71.92 196.4 75.66 194.06 77.47 192.48 78.25 191.42 79.19 191.01 
M 99.24 161.16 99.32 161.25 
M 77.71 137.63 78.41 133.73 78.48 132.88 78.18 131.98 
M 75.01 145.43 76.79 145.84 79.9 146 81.04 146.37 83.12 147.62 84.42 148.83 84.99 149.98 85.02 150.84 
M 94 143.46 92.88 143.1 90.08 141.69 88.75 140.48 88.14 139.16 87.52 137.15 87.44 135.93 
M 72.18 207.8 71.27 205.44 70.75 204.9 67.59 204.74 65.92 204.12 
M 83.08 130.15 80.96 130.16 
M 88.11 132.78 86.71 131.59 85.77 131.16 84.03 130.96 81.1 130.32 
M 96.6 214.95 95.81 213.97 95.57 212.45 95.32 211.91 93.67 209.94 
M 58.84 191.63 58.37 189.64 57.69 188.63 56.6 187.97 55.69 187.17 54.45 185.63 54.12 184.83 54.34 183.18 
M 75.27 199.34 77.16 198.71 77.94 198.67 78.69 198.79 79.63 199.31 
M 68.35 174.48 69.22 176.21 69.22 177.49 68.07 179.58 66.75 181.29 66.46 181.87 66.39 182.57 
M 56.22 183 55.98 181.94 56.1 181.46 56.42 181.05 58.26 180.11 59.7 179.78 
M 71.09 194.06 72.84 193.52 74.83 192.23 75.84 191.02 76.33 189.59 77.03 188.6 
M 98.6 187.36 93.8 184.78 92.76 183.31 91.97 183.01 91.18 183.18 
M 49.14 186.76 49.58 186.05 50.7 182.73 53.21 177.82 53.75 177.35 55.35 176.51 
M 94.67 153.06 92.89 152.79 89.1 152.62 87.73 152.31 86.6 151.75 86.21 151.74 
M 64.3 173.6 65.83 175.05 66.21 175.73 66.86 178.31 66.8 179.07 65.46 181.09 64.69 182.89 
M 58.47 168.67 58.08 168.05 56.64 166.86 55.3 166.57 54.29 166.66 53.7 166.92 53.41 167.48 53.23 168.53 
M 90.7 168.19 90.25 168.78 90.29 169.22 91.52 170.52 92.44 170.97 
M 50.88 164.2 50.69 163.8 
M 99.77 181.3 99.34 180.78 98.77 179.39 98.13 178.31 97.67 177.82 97.03 177.47 95.67 177 94.03 176.88 92.48 177.43 91.75 177.99 
M 71.61 185.42 72.35 184.82 72.73 184.23 72.69 182.91 72.48 182.43 
M 99.44 207.02 98.6 207.3 96.23 207.13 93.24 204.48 92.44 203.96 
M 49.76 189.17 51.07 187.61 51.87 185.14 52.47 184.01 53.15 183.18 54.31 182.56 
M 84.48 217.23 83.16 216.62 81.62 215.62 81.05 215.65 80.1 215.99 
M 69.35 211.41 69.23 209.52 68.86 208.23 67.75 207.13 66.25 206.34 
M 49.31 183.67 50.72 180.6 52.11 179.08 52.91 177.6 53.46 177.12 56.29 175.79 57.05 174.68 
M 62.05 206.73 61.6 205.8 61.34 203.98 60.73 202.28 60.54 200.72 60.02 199.07 59.01 197.89 56.65 196.13 
M 81.06 135.73 81.39 134.1 81.3 132.89 80.65 131.37 79.96 130.79 
M 58.48 174.41 58.63 172.53 58.44 170.59 57.83 168.93 57.29 168.18 56.01 167.22 54.51 167.18 53.76 167.75 
M 63.72 183.3 63.61 183.89 63.81 184.82 63.53 185.33 63.22 185.29 
M 64.56 183.57 64.38 185.17 63.71 186.32 63.46 186.33 
M 93.65 150.21 91.94 150.64 90.59 151.78 90.05 152.06 89.36 152.19 87.84 152.11 86.4 151.69 
M 97.67 197.08 97.45 196.45 97.59 195.72 
M 92.85 194.2 93.74 191.75 93.81 190.31 93.24 186.81 91.99 184.71 
M 75.34 178.61 74.58 179.26 72.8 180.29 
M 93.87 148.46 92.09 149.05 89.1 150.79 86.12 151.22 
M 93.01 182.88 91.74 182.68 89.92 183.3 88.28 183.24 87.28 183.44 
M 48.51 193.33 48.38 193.44 
M 91.85 180.64 89.94 181.55 86.99 183.44 86.31 183.73 
M 61.4 189.63 61.18 188.52 60.07 186.63 59.4 184.65 57.37 181.41 
M 97.76 187.22 93.76 184.97 93.41 184.56 93.08 183.76 92.5 183.2 91.73 183.03 90.99 183.32 
M 76.68 185.98 77.26 185.82 77.54 185.91 79.54 188.54 
M 72.16 211.74 71.46 211.65 71.01 211.13 70.54 207.55 
M 86.97 191.01 86.76 191.9 86.15 192.78 85.14 193.18 83.18 193.43 
M 81.62 202.79 81.16 203.92 80.47 204.3 79.93 204.29 79.43 204.05 79.08 203.58 78.76 202.27 
M 78.17 178.88 78.44 179.65 78.8 181.98 78.49 182.98 77.68 184.38 
M 47.69 177.73 49.05 176.6 49.75 175.33 51.19 175.42 
M 46.97 180.43 51.89 176.52 55.76 175.05 56.61 174.19 
M 60.59 205.66 60.17 200.9 59.69 199.06 59.23 198.44 
M 60.3 183.55 59.69 182.5 59.56 181.87 60.1 181.56 60.96 181.85 
M 85.93 157.36 86.6 157.24 86.96 156.48 86.97 155.61 86.51 154.81 
M 66.8 192.13 66.81 189.44 
M 59.2 184.97 57.05 181.58 57.18 181.21 57.83 180.57 59.12 180.04 
M 89.1 157.53 88.49 157.5 87.86 157.2 87.51 156.71 87.11 155.53 86.49 154.74 
M 68.89 210.82 68.46 209.68 67.66 208.92 66.63 208.39 63.88 207.67 63.25 207.27 62.75 206.72 61.96 205.37 
M 90.32 153.12 88 152.51 86.55 151.76 85.95 151.83 85.5 152.2 
M 77.36 208.76 75.76 208.36 75.19 207.9 75.08 207.6 75.27 206.78 76.52 204.74 77.18 203.17 
M 74.42 198.08 76.72 197.07 77.14 197.27 78 198.26 
M 57.25 188.82 55.4 187.22 53.96 185.28 53.92 184.68 54.38 182.9 
M 92.61 147.47 91.36 147.71 90.27 147.65 88.92 148.09 86.09 150.06 85.52 150.96 
M 81.54 208.17 79.09 209.06 77.21 209.38 74.64 209.26 73.39 208.93 72.89 208.54 
M 79.09 131.93 78.82 131.55 
M 63.03 199.42 62.59 197.9 60.63 194.63 60.12 193.3 59.79 190.09 
M 52.38 198.98 52.64 199.62 
M 49.05 194.43 48.56 194.81 48.05 195.75 48.75 195.28 49.43 195.22 
M 46.73 189.95 44.9 191.02 43.78 192.66 45.08 191.49 47.27 190.96 
M 44.3 185.63 41.23 187.22 39.51 189.56 41.41 187.69 44.9 186.68 
M 42.42 181.05 37.56 183.43 35.23 186.47 37.74 183.9 42.64 182.34 
M 52.16 198.77 53.1 199.17 
M 46.99 196.03 47.99 194.82 48.94 194.33 48.45 195.02 48.25 196.77 
M 42.3 193.49 43.89 190.9 45.55 189.82 44.35 191.1 43.54 194.15 
M 37.62 190.91 39.78 186.98 42.16 185.31 40.24 187.17 38.85 191.59 
M 32.94 188.34 35.68 183.05 38.76 180.8 36.14 183.25 34.21 188.88 
M 39.19 195.5 45.22 199.71 48.46 201.55 51.82 203.13 55.28 204.51 62.37 206.97 
M 55 204.39 54.49 202.58 
M 45.23 197.48 46.12 198.79 
M 87.43 126.72 97.42 136.71 
M 92.25 124.82 100.66 133.23 
M 97.07 122.92 105.03 130.88 
M 101.87 121 110.07 129.2 
M 106.67 119.08 116.58 128.99 
M 111.56 117.25 119.09 124.79 
M 116.49 115.46 125.86 124.83 
M 121.47 113.73 129.67 121.92 
M 126.53 112.06 135.87 121.4 
M 131.6 110.42 136.75 115.56 
M 136.8 108.89 146.35 118.44 
M 141.99 107.36 147.49 112.86 
M 147.12 105.78 155.14 113.79 
M 152.26 104.19 160.05 111.98 
M 157.59 102.8 163.4 108.61 
M 162.99 101.48 170.35 108.84 
M 168.58 100.35 174.19 105.96 
M 174.28 99.33 179.42 104.47 
M 180.12 98.45 188.18 106.51 
M 186.04 97.65 194.69 106.31 
M 192.41 97.3 201.31 106.2 
M 198.94 97.11 208.78 106.95 
M 205.59 97.04 212.6 104.05 
M 212.21 96.94 218.05 102.79 
M 218.76 96.77 227.56 105.57 
M 225.91 97.2 232.14 103.43 
M 233.61 98.18 240.59 105.16 
M 242.36 100.21 250.72 108.57 
M 251.63 102.77 259.18 110.31 
M 261.35 105.76 267.6 112.01 
M 271.23 108.92 280.92 118.61 
M 280.98 111.95 287.63 118.6 
M 290.7 114.96 300.09 124.34 
M 301.07 118.61 306.64 124.17 
M 312.42 123.23 320.88 131.69 
M 323.83 127.92 333.23 137.32 
M 334.96 132.33 344.22 141.59 
M 345.79 136.44 351.67 142.32 
M 356.75 140.68 365.19 149.12 
M 367.56 144.77 372.65 149.86 
M 378.36 148.86 379.93 150.42 
M 102.05 215.62 104.31 220.12 
M 105.05 221.61 105.41 222.34 
M 104.48 214.59 109.09 223.81 
M 106.91 213.57 109.16 218.08 
M 109.91 219.58 112.66 225.07 
M 100.09 194.05 101.82 197.52 
M 107.83 209.54 115.34 224.56 
M 102.23 192.45 105 197.99 
M 111.01 210.01 117.77 223.54 
M 105.92 193.96 106.68 195.48 
M 114.19 210.5 117.95 218.02 
M 113.65 203.54 115.16 206.55 
M 114.62 199.59 118.37 207.1 
M 117.08 198.64 123.09 210.66 
M 100.01 158.62 100.23 159.06 
M 120.06 198.72 124.81 208.21 
M 87.07 126.86 94.21 141.14 
M 100.97 154.66 102.73 158.17 
M 122.63 197.98 128.02 208.75 
M 134.03 220.77 137.04 226.79 
M 89.91 126.64 95.16 137.16 
M 95.92 138.67 96.67 140.17 
M 103.43 153.69 105.22 157.28 
M 125.3 197.44 128.22 203.28 
M 134.98 216.8 140.24 227.32 
M 91.99 124.93 93.11 127.18 
M 93.86 128.68 98.37 137.7 
M 99.12 139.2 99.87 140.7 
M 105.89 152.73 107.71 156.38 
M 129.93 200.81 130.68 202.31 
M 136.69 214.33 141.2 223.35 
M 141.95 224.85 142.7 226.35 
M 146.44 233.84 146.8 234.56 
M 96.32 127.72 97.07 129.22 
M 97.82 130.72 103.83 142.74 
M 108.34 151.76 109.84 154.76 
M 133.89 202.85 134.64 204.35 
M 135.39 205.85 136.14 207.36 
M 139.9 214.87 144.41 223.88 
M 98.78 126.75 104.79 138.77 
M 105.54 140.27 106.29 141.78 
M 134.38 197.96 139.35 207.89 
M 143.86 216.91 146.11 221.42 
M 101.23 125.77 107.99 139.29 
M 137.23 197.78 138.04 199.4 
M 139.54 202.4 141.8 206.91 
M 145.55 214.42 146.31 215.93 
M 104.43 126.29 109.69 136.81 
M 111.94 141.32 112.69 142.82 
M 113.44 144.32 114.19 145.82 
M 114.95 147.33 115.7 148.83 
M 139 195.43 144.25 205.93 
M 106.13 123.81 106.88 125.31 
M 109.13 129.82 111.38 134.32 
M 113.64 138.83 119.65 150.85 
M 141.44 194.43 145.95 203.45 
M 159.47 230.49 160.97 233.5 
M 106.7 119.07 109.33 124.33 
M 110.08 125.83 111.58 128.83 
M 115.34 136.35 122.1 149.87 
M 143.68 193.04 143.89 193.45 
M 144.64 194.95 148.39 202.46 
M 152.15 209.98 153.65 212.98 
M 159.66 225 165.67 237.02 
M 109.16 118.11 114.04 127.88 
M 117.05 133.89 117.8 135.39 
M 118.55 136.9 125.31 150.42 
M 153.86 207.52 157.62 215.03 
M 162.13 224.05 168.89 237.57 
M 169.75 239.3 170.24 240.27 
M 111.65 117.21 117.28 128.48 
M 120.29 134.49 127.8 149.52 
M 154.85 203.62 161.61 217.14 
M 163.87 221.65 164.62 223.15 
M 165.37 224.65 172.13 238.18 
M 114.14 116.31 117.52 123.08 
M 118.27 124.58 120.53 129.09 
M 123.53 135.1 125.03 138.1 
M 125.79 139.61 128.04 144.11 
M 157.34 202.72 158.84 205.72 
M 159.59 207.22 163.35 214.74 
M 165.61 219.25 171.62 231.27 
M 172.37 232.77 173.87 235.77 
M 116.63 115.42 121.51 125.18 
M 127.52 137.2 128.28 138.71 
M 129.78 141.71 130.53 143.21 
M 132.78 147.72 134.29 150.73 
M 135.04 152.23 135.09 152.34 
M 159.08 200.31 165.84 213.84 
M 168.85 219.85 169.6 221.35 
M 171.1 224.36 174.11 230.37 
M 119.5 115.27 121 118.27 
M 121.75 119.78 124 124.28 
M 131.52 139.31 133.77 143.82 
M 134.52 145.32 137.8 151.88 
M 163.07 202.42 168.33 212.94 
M 172.09 220.45 172.84 221.95 
M 175.09 226.46 175.84 227.96 
M 122.01 114.42 122.77 115.93 
M 133.28 136.96 140.45 151.29 
M 152.63 175.65 154.32 179.04 
M 165.59 201.58 168.6 207.59 
M 124.54 113.59 125.29 115.1 
M 135.81 136.13 143.04 150.6 
M 153.84 172.2 158.35 181.21 
M 188.4 241.32 189 242.51 
M 126.69 112.01 127.06 112.76 
M 130.82 120.28 131.57 121.78 
M 132.32 123.28 133.07 124.78 
M 139.09 136.8 145.1 148.83 
M 154.92 168.47 155.61 169.86 
M 157.12 172.87 158.62 175.87 
M 159.37 177.38 160.12 178.88 
M 163.88 186.39 164.63 187.89 
M 165.38 189.4 166.88 192.4 
M 173.65 205.93 177.4 213.44 
M 132.59 117.94 135.6 123.95 
M 141.61 135.98 146.12 144.99 
M 146.87 146.49 151.38 155.51 
M 157.39 167.53 162.65 178.05 
M 165.65 184.06 171.66 196.08 
M 173.92 200.59 179.18 211.11 
M 186.69 226.13 188.94 230.64 
M 133.63 114.13 140.39 127.65 
M 145.65 138.17 146.4 139.68 
M 148.65 144.18 155.42 157.71 
M 161.43 169.73 162.18 171.23 
M 163.68 174.24 164.43 175.74 
M 168.19 183.25 168.94 184.75 
M 169.69 186.26 173.45 193.77 
M 176.45 199.78 181.71 210.3 
M 188.47 223.82 192.98 232.84 
M 136.19 113.38 142.95 126.9 
M 151.97 144.93 157.23 155.45 
M 157.98 156.95 158.73 158.46 
M 170 180.99 176.01 193.02 
M 176.76 194.52 177.51 196.02 
M 178.26 197.52 185.78 212.55 
M 190.29 221.57 196.3 233.59 
M 138 111.12 144.76 124.64 
M 146.27 127.65 147.02 129.15 
M 147.77 130.65 149.27 133.66 
M 150.02 135.16 150.77 136.66 
M 153.03 141.17 159.79 154.7 
M 173.31 181.74 179.32 193.76 
M 181.58 198.27 182.33 199.77 
M 183.08 201.28 186.84 208.79 
M 192.85 220.81 198.11 231.33 
M 143.57 116.37 146.58 122.39 
M 148.08 125.39 152.59 134.41 
M 153.34 135.91 154.09 137.41 
M 156.34 141.92 158.6 146.43 
M 159.35 147.93 161.6 152.44 
M 170.62 170.47 171.37 171.97 
M 175.13 179.49 175.88 180.99 
M 176.63 182.49 180.38 190 
M 184.14 197.52 184.89 199.02 
M 187.15 203.53 187.9 205.03 
M 196.16 221.56 199.92 229.07 
M 145.38 114.12 148.39 120.13 
M 150.64 124.64 151.39 126.14 
M 152.14 127.64 156.65 136.66 
M 165.67 154.69 168.67 160.7 
M 171.68 166.71 172.43 168.21 
M 173.18 169.71 176.19 175.73 
M 179.19 181.74 180.69 184.74 
M 146.43 110.33 147.93 113.33 
M 150.93 119.34 158.45 134.37 
M 166.71 150.9 170.47 158.41 
M 173.47 164.42 179.48 176.44 
M 182.49 182.46 183.24 183.96 
M 183.99 185.46 186.25 189.97 
M 196.01 209.5 196.77 211.01 
M 205.78 229.04 208.79 235.05 
M 209.54 236.55 210.29 238.05 
M 147.47 106.54 151.23 114.05 
M 151.98 115.55 160.99 133.58 
M 169.26 150.11 173.02 157.63 
M 177.52 166.64 180.53 172.65 
M 184.29 180.17 188.79 189.18 
M 197.81 207.21 203.07 217.73 
M 206.82 225.24 212.08 235.76 
M 149.64 105 150.02 105.75 
M 150.77 107.25 156.03 117.77 
M 158.28 122.28 159.03 123.78 
M 159.78 125.28 161.29 128.29 
M 165.04 135.8 165.79 137.3 
M 171.81 149.33 175.56 156.84 
M 179.32 164.35 183.83 173.37 
M 186.83 179.38 192.84 191.4 
M 199.6 204.92 204.86 215.44 
M 205.61 216.94 206.37 218.45 
M 208.62 222.95 209.37 224.46 
M 210.12 225.96 214.63 234.98 
M 152.19 104.21 156.32 112.48 
M 157.07 113.98 158.57 116.98 
M 163.83 127.5 165.34 130.51 
M 166.09 132.01 169.09 138.02 
M 169.84 139.52 170.6 141.03 
M 175.1 150.04 176.61 153.05 
M 183.37 166.57 184.12 168.07 
M 188.63 177.09 193.89 187.61 
M 201.4 202.63 208.91 217.66 
M 211.17 222.17 211.92 223.67 
M 212.67 225.17 215.67 231.18 
M 216.43 232.69 217.18 234.19 
M 154.77 103.49 161.15 116.26 
M 166.41 126.78 173.17 140.3 
M 186.7 167.35 187.45 168.85 
M 188.2 170.35 188.95 171.86 
M 191.96 177.87 194.96 183.88 
M 195.71 185.38 196.46 186.88 
M 203.98 201.91 207.73 209.42 
M 209.24 212.43 209.99 213.93 
M 216 225.95 217.5 228.96 
M 218.25 230.46 219 231.96 
M 157.39 102.85 157.76 103.6 
M 158.51 105.1 160.77 109.61 
M 161.52 111.11 163.02 114.12 
M 168.28 124.64 175.04 138.16 
M 188.57 165.21 190.82 169.71 
M 191.57 171.22 193.07 174.22 
M 195.33 178.73 196.08 180.23 
M 200.59 189.25 202.84 193.76 
M 203.59 195.26 204.34 196.76 
M 206.6 201.27 211.86 211.79 
M 222.38 232.83 226.13 240.34 
M 160.01 102.21 160.38 102.96 
M 161.13 104.46 162.64 107.47 
M 163.39 108.97 164.89 111.98 
M 170.15 122.49 177.66 137.52 
M 182.17 146.54 182.92 148.04 
M 190.43 163.06 195.69 173.58 
M 202.46 187.11 206.21 194.62 
M 207.72 197.63 208.47 199.13 
M 223.49 229.18 229.64 241.47 
M 173.52 123.36 180.28 136.88 
M 184.79 145.9 187.8 151.91 
M 191.55 159.42 196.81 169.94 
M 197.56 171.44 199.07 174.45 
M 203.57 183.46 204.32 184.96 
M 205.08 186.47 209.58 195.48 
M 226.86 230.04 232.12 240.56 
M 177.65 125.74 179.15 128.74 
M 179.91 130.25 180.66 131.75 
M 185.92 142.27 191.18 152.79 
M 194.93 160.3 200.19 170.82 
M 205.45 181.34 206.2 182.84 
M 206.95 184.34 212.21 194.86 
M 229.49 229.42 232.5 235.43 
M 169.83 104.22 170.58 105.72 
M 188.62 141.79 192.37 149.3 
M 198.38 161.32 199.13 162.82 
M 200.64 165.83 202.14 168.83 
M 209.65 183.86 214.16 192.87 
M 171.78 102.23 177.04 112.75 
M 183.8 126.28 185.3 129.28 
M 186.05 130.78 187.56 133.79 
M 190.56 139.8 191.31 141.3 
M 192.06 142.8 195.82 150.32 
M 203.33 165.34 204.09 166.85 
M 211.6 181.87 212.35 183.38 
M 213.1 184.88 213.85 186.38 
M 221.37 201.41 222.87 204.41 
M 224.37 207.42 226.63 211.93 
M 173.73 100.25 178.23 109.26 
M 178.99 110.77 179.74 112.27 
M 184.25 121.29 189.5 131.8 
M 193.26 139.32 198.52 149.84 
M 199.27 151.34 201.53 155.85 
M 215.8 184.4 217.3 187.4 
M 224.06 200.92 227.82 208.44 
M 233.08 218.96 236.84 226.47 
M 176.05 99.01 183.19 113.29 
M 186.19 119.3 186.94 120.8 
M 187.69 122.3 188.45 123.81 
M 189.2 125.31 192.2 131.32 
M 198.21 143.34 204.98 156.87 
M 226.01 198.94 232.02 210.96 
M 235.78 218.47 240.29 227.49 
M 178.28 97.59 184.66 110.36 
M 188.42 117.88 189.17 119.38 
M 189.92 120.88 195.18 131.4 
M 200.44 141.92 207.2 155.44 
M 228.24 197.52 232 205.03 
M 232.75 206.53 233.5 208.03 
M 238.01 217.05 238.76 218.55 
M 239.51 220.06 242.52 226.07 
M 180.89 96.94 181.64 98.44 
M 182.39 99.94 183.9 102.95 
M 191.41 117.97 196.67 128.49 
M 203.43 142.02 210.94 157.04 
M 217.71 170.57 219.96 175.07 
M 220.71 176.58 221.46 178.08 
M 230.48 196.11 233.48 202.12 
M 241 217.15 244.75 224.66 
M 195.15 119.58 195.9 121.08 
M 196.65 122.58 197.4 124.08 
M 207.17 143.62 211.68 152.63 
M 219.94 169.16 225.2 179.68 
M 243.99 217.25 244.74 218.75 
M 248.49 226.26 249.24 227.76 
M 250.75 230.77 251.5 232.27 
M 209.41 142.21 211.66 146.72 
M 220.68 164.75 228.19 179.78 
M 249.23 221.85 254.49 232.37 
M 193.61 104.74 195.87 109.25 
M 196.62 110.76 198.12 113.76 
M 198.87 115.26 199.63 116.77 
M 223.67 164.85 231.18 179.88 
M 251.47 220.45 252.22 221.95 
M 252.97 223.45 255.22 227.96 
M 255.97 229.46 257.48 232.47 
M 187.59 86.81 190.59 92.82 
M 195.1 101.84 202.61 116.86 
M 211.63 134.9 216.14 143.91 
M 225.15 161.94 231.16 173.96 
M 231.92 175.47 232.67 176.97 
M 241.68 195 246.94 205.52 
M 254.46 220.55 258.96 229.56 
M 189.07 83.9 193.58 92.92 
M 198.84 103.44 205.6 116.96 
M 213.87 133.49 216.87 139.5 
M 217.62 141 219.13 144.01 
M 228.89 163.54 229.65 165.05 
M 231.15 168.05 234.15 174.06 
M 243.92 193.6 249.18 204.11 
M 259.7 225.15 260.45 226.65 
M 265.15 236.05 265.71 237.17 
M 189.06 77.99 195.82 91.52 
M 196.57 93.02 197.32 94.52 
M 199.58 99.03 200.33 100.53 
M 201.08 102.03 207.09 114.05 
M 215.35 130.58 216.11 132.09 
M 216.86 133.59 221.36 142.6 
M 225.12 150.12 227.38 154.63 
M 228.13 156.13 229.63 159.13 
M 245.41 190.69 246.16 192.19 
M 246.91 193.69 251.42 202.71 
M 265.69 231.26 268.36 236.6 
M 192.05 78.09 199.56 93.12 
M 201.81 97.62 204.07 102.13 
M 204.82 103.63 210.08 114.15 
M 217.59 129.18 219.09 132.18 
M 219.85 133.69 223.6 141.2 
M 225.86 145.71 231.87 157.73 
M 248.4 190.79 252.15 198.3 
M 268.68 231.36 271 235.99 
M 194.28 76.69 200.3 88.71 
M 201.05 90.21 201.8 91.71 
M 204.8 97.72 207.81 103.73 
M 209.31 106.74 210.06 108.24 
M 215.32 118.76 216.07 120.26 
M 216.82 121.76 218.33 124.77 
M 222.08 132.28 225.09 138.29 
M 227.34 142.8 228.09 144.3 
M 228.85 145.81 234.1 156.32 
M 234.86 157.83 235.61 159.33 
M 241.62 171.35 243.12 174.36 
M 252.89 193.89 253.64 195.39 
M 254.39 196.9 255.14 198.4 
M 270.92 229.95 273.64 235.39 
M 193.14 68.52 194.27 70.77 
M 197.27 76.78 203.28 88.8 
M 211.55 105.33 212.3 106.84 
M 216.81 115.85 220.56 123.36 
M 231.08 144.4 237.09 156.42 
M 240.85 163.94 246.11 174.45 
M 273.91 230.05 274.66 231.55 
M 275.41 233.06 276.27 234.78 
M 194.63 65.61 197.26 70.87 
M 202.52 81.39 203.27 82.89 
M 217.54 111.44 224.31 124.97 
M 233.32 143 238.58 153.52 
M 239.33 155.02 240.08 156.52 
M 243.09 162.53 249.85 176.06 
M 265.63 207.61 266.38 209.11 
M 196.11 62.7 199.5 69.47 
M 219.78 110.04 226.54 123.56 
M 236.31 143.1 237.06 144.6 
M 238.56 147.6 239.32 149.11 
M 240.07 150.61 240.82 152.11 
M 245.33 161.13 252.09 174.65 
M 266.36 203.2 267.87 206.21 
M 268.62 207.71 270.12 210.71 
M 197.6 59.8 200.98 66.56 
M 222.02 108.63 222.77 110.14 
M 223.52 111.64 228.78 122.16 
M 231.79 128.17 236.29 137.18 
M 248.31 161.22 249.82 164.23 
M 250.57 165.73 253.57 171.74 
M 267.85 200.29 272.36 209.31 
M 199.46 57.64 202.47 63.65 
M 206.22 71.16 206.98 72.67 
M 207.73 74.17 208.48 75.67 
M 226.51 111.74 228.76 116.24 
M 232.52 123.76 233.27 125.26 
M 234.02 126.76 239.28 137.28 
M 252.06 162.83 254.31 167.33 
M 270.09 198.89 276.1 210.91 
M 206.96 66.75 212.22 77.27 
M 234.76 122.35 241.52 135.88 
M 272.32 197.48 277.58 208 
M 209.2 65.35 214.46 75.87 
M 220.47 87.89 222.72 92.4 
M 223.47 93.9 224.98 96.91 
M 237.75 122.45 243.76 134.47 
M 278.32 203.59 279.82 206.6 
M 211.35 63.78 216.61 74.3 
M 223.38 87.83 227.88 96.84 
M 239.15 119.38 243.66 128.4 
M 244.41 129.9 245.91 132.9 
M 263.95 168.97 264.7 170.47 
M 265.45 171.97 266.95 174.98 
M 216.51 68.22 218.76 72.72 
M 225.53 86.25 230.03 95.26 
M 233.79 102.78 234.54 104.28 
M 243.56 122.31 246.56 128.32 
M 247.31 129.82 248.07 131.33 
M 250.32 135.84 253.33 141.85 
M 265.35 165.89 269.85 174.9 
M 293.15 221.49 293.9 222.99 
M 228.54 86.39 232.29 93.9 
M 234.55 98.41 239.06 107.43 
M 248.07 125.46 248.82 126.96 
M 251.83 132.97 257.09 143.49 
M 260.09 149.5 261.6 152.51 
M 262.35 154.01 264.6 158.52 
M 267.61 164.53 273.62 176.55 
M 293.15 215.62 297.66 224.63 
M 226.7 76.83 226.77 76.98 
M 228.08 79.59 228.45 80.34 
M 229.2 81.84 229.95 83.34 
M 235.21 93.86 241.98 107.39 
M 254 131.43 259.26 141.95 
M 261.51 146.45 268.27 159.98 
M 270.53 164.49 275.03 173.5 
M 296.07 215.58 300.58 224.59 
M 239.46 96.48 243.97 105.5 
M 257.49 132.54 260.5 138.56 
M 261.25 140.06 262 141.56 
M 264.26 146.07 267.26 152.08 
M 268.01 153.58 269.52 156.59 
M 295.81 209.18 303.32 224.21 
M 241.81 95.29 245.56 102.8 
M 261.34 134.36 262.09 135.86 
M 267.35 146.38 272.61 156.9 
M 288.39 188.45 289.14 189.96 
M 299.66 210.99 303.42 218.51 
M 304.17 220.01 304.92 221.51 
M 244.51 94.82 245.26 96.32 
M 246.01 97.82 247.52 100.83 
M 269.31 144.41 270.81 147.41 
M 271.56 148.91 273.06 151.92 
M 274.56 154.92 275.32 156.43 
M 279.82 165.44 280.58 166.95 
M 281.33 168.45 284.33 174.46 
M 289.59 184.98 294.1 193.99 
M 302.36 210.52 306.12 218.04 
M 273.51 146.94 275.01 149.94 
M 281.02 161.96 284.03 167.97 
M 285.53 170.98 286.28 172.48 
M 290.79 181.5 296.8 193.52 
M 256.15 106.33 261.41 116.85 
M 276.43 146.9 277.18 148.4 
M 283.19 160.43 289.96 173.95 
M 293.71 181.46 298.97 191.98 
M 258.31 104.78 262.45 113.05 
M 278.22 144.6 281.98 152.11 
M 282.73 153.62 283.48 155.12 
M 284.98 158.12 292.5 173.15 
M 297.01 182.17 300.76 189.68 
M 261.82 105.92 265.95 114.18 
M 271.96 126.2 272.71 127.7 
M 279.48 141.23 286.99 156.25 
M 287.74 157.76 290.75 163.77 
M 291.5 165.27 293.75 169.78 
M 265.33 107.05 267.21 110.81 
M 271.71 119.82 273.22 122.83 
M 273.97 124.33 275.47 127.34 
M 276.22 128.84 276.97 130.34 
M 281.48 139.36 282.23 140.86 
M 282.98 142.36 288.24 152.88 
M 292 160.4 294.25 164.9 
M 295.01 166.41 296.51 169.41 
M 308.53 193.45 309.28 194.96 
M 310.78 197.96 311.53 199.46 
M 316.04 208.48 317.54 211.48 
M 268.82 108.16 269.2 108.92 
M 272.21 114.93 280.47 131.46 
M 284.98 140.47 290.99 152.49 
M 295.5 161.51 296.25 163.01 
M 311.27 193.06 315.03 200.58 
M 317.28 205.08 321.04 212.6 
M 274.19 113.02 283.21 131.05 
M 287.71 140.06 288.47 141.57 
M 289.22 143.07 292.97 150.58 
M 311.76 188.15 317.77 200.17 
M 318.52 201.67 325.28 215.2 
M 277.68 114.11 284.44 127.63 
M 294.21 147.17 294.96 148.67 
M 303.22 165.2 306.23 171.21 
M 315.99 190.75 319.75 198.26 
M 321.25 201.26 327.26 213.29 
M 279.66 112.19 281.16 115.19 
M 281.91 116.7 286.42 125.71 
M 305.2 163.28 309.71 172.29 
M 317.22 187.32 322.48 197.84 
M 323.23 199.34 328.49 209.86 
M 282.75 112.49 283.12 113.24 
M 284.62 116.24 285.38 117.75 
M 286.13 119.25 286.88 120.75 
M 288.38 123.76 289.13 125.26 
M 307.16 161.32 311.67 170.34 
M 321.44 189.87 322.94 192.88 
M 323.69 194.38 324.44 195.88 
M 328.2 203.4 331.21 209.41 
M 308.38 157.87 313.63 168.38 
M 293.81 122.86 294.56 124.36 
M 314.1 163.43 314.85 164.93 
M 328.37 191.98 329.12 193.48 
M 329.88 194.99 330.63 196.49 
M 331.38 197.99 332.88 201 
M 333.63 202.5 334.38 204 
M 338.24 211.72 338.72 212.67 
M 293.62 116.6 295.12 119.6 
M 295.88 121.11 298.13 125.61 
M 298.88 127.12 299.63 128.62 
M 303.39 136.13 305.64 140.64 
M 320.67 170.69 325.18 179.71 
M 331.19 191.73 336.45 202.25 
M 340.2 209.76 341.12 211.6 
M 296.81 117.1 302.45 128.37 
M 303.95 131.37 310.71 144.9 
M 322.73 168.94 327.99 179.46 
M 332.5 188.47 340.01 203.5 
M 343.08 209.64 343.52 210.52 
M 300.38 118.35 302.26 122.11 
M 303.01 123.61 305.26 128.12 
M 306.01 129.62 306.76 131.12 
M 307.52 132.63 314.28 146.15 
M 325.55 168.69 331.56 180.71 
M 335.31 188.22 342.08 201.75 
M 345.69 208.98 345.92 209.44 
M 304.05 119.82 305.93 123.58 
M 308.18 128.08 316.45 144.61 
M 328.47 168.66 329.97 171.66 
M 330.72 173.16 332.23 176.17 
M 334.48 180.68 335.23 182.18 
M 338.24 188.19 343.5 198.71 
M 307.74 121.32 308.12 122.08 
M 311.88 129.59 317.89 141.61 
M 336.67 179.18 340.43 186.69 
M 341.93 189.69 344.93 195.7 
M 346.44 198.71 347.19 200.21 
M 347.94 201.72 350.25 206.34 
M 314.07 128.09 316.32 132.6 
M 317.07 134.1 319.33 138.61 
M 338.11 176.17 343.37 186.69 
M 349.38 198.71 353.07 206.09 
M 317.01 128.1 318.52 131.11 
M 319.27 132.61 320.02 134.12 
M 320.77 135.62 321.52 137.12 
M 323.02 140.13 324.53 143.13 
M 332.79 159.66 334.29 162.67 
M 340.31 174.69 345.56 185.2 
M 350.07 194.22 355.45 204.97 
M 325.22 138.64 328.98 146.16 
M 334.24 156.68 338.75 165.69 
M 343.26 174.71 347.01 182.22 
M 352.27 192.74 357.83 203.85 
M 325.92 134.16 331.18 144.68 
M 336.44 155.19 341.7 165.71 
M 354.47 191.26 360.21 202.74 
M 328.85 134.13 333.35 143.14 
M 334.1 144.65 334.86 146.15 
M 338.61 153.66 343.87 164.18 
M 357.4 191.23 358.15 192.73 
M 358.9 194.23 362.06 200.56 
M 331.76 134.08 335.52 141.59 
M 341.53 153.61 343.78 158.12 
M 352.05 174.65 352.8 176.15 
M 363.32 197.19 364.07 198.69 
M 351.2 167.09 351.96 168.59 
M 352.71 170.09 357.22 179.11 
M 354.85 168.49 357.1 173 
M 357.85 174.5 359.35 177.51 
M 356.22 165.36 362.23 177.38 
M 358.35 163.73 359.1 165.24 
M 359.85 166.74 365.11 177.26 
M 371.87 190.78 374.14 195.32 
M 361.99 165.13 364.99 171.14 
M 365.74 172.64 367.25 175.65 
M 374.01 189.17 376.4 193.96 
M 366.38 168.04 367.89 171.05 
M 375.4 186.07 379.31 193.89 
M 356.5 142.4 357.26 143.91 
M 378.29 185.98 380.16 189.72 
M 359.01 141.54 360.14 143.8 
M 370.66 164.83 372.16 167.84 
M 372.91 169.34 373.66 170.84 
M 362.64 142.91 364.52 146.67 
M 371.28 160.19 376.54 170.71 
M 366.26 144.28 366.64 145.03 
M 372.65 157.06 380.16 172.08 
M 374.77 155.42 380.16 166.2 
M 373.51 147.02 373.89 147.77 
M 378.4 156.79 380.16 160.32 
M 377.14 148.39 377.51 149.15 
"/></svg>