<svg xmlns="http://www.w3.org/2000/svg" width="520" height="320"><rect x="0" y="0" width="520" height="320" fill="floralwhite"/><rect x="10" y="10" width="500" height="300" stroke="black" stroke-width="1" fill="none"/><path stroke="black" stroke-width="1" fill="none" stroke-linecap="round" stroke-linejoin="round" d="
M 216.26 122.35 228.83 110.72 235.11 105.45 241.38 100.65 253.93 91.83 260.2 88.27 266.48 85.65 272.75 83.67 279.02 83.25 285.3 83.1 291.57 82.72 297.84 84.42 304.12 87.81 310.39 92 322.94 101.31 329.21 105.74 335.49 110.87 354.31 128.61 373.85 145.97 
M 356.94 203.49 354.31 206.23 348.03 212.22 341.76 217.9 335.49 222.81 322.94 231.93 316.67 235.29 310.39 238.21 304.12 240.84 297.84 242.23 291.57 243.17 285.3 242.77 279.02 242.79 272.75 243.09 266.48 241.22 260.2 238.16 253.93 234.59 247.65 230.66 241.38 227.24 235.11 223.18 228.83 218.01 222.58 212 
M 222.48 137.47 223.7 134.19 223.7 131.52 222.09 127.2 219.61 123.38 217.67 121.89 
M 219.98 129.87 220.92 129.64 
M 220.84 132.7 221.12 132.69 
M 226.02 150.78 225.98 150.48 
M 222.69 128.5 223.13 127.44 224.35 122.39 224.35 119.26 223.49 115.71 
M 226.35 153.07 227.3 152.3 229.51 148.75 230.93 144.72 230.93 142.23 229.51 138.21 227.3 134.66 225.58 133.27 
M 227.02 168.15 229.39 165.4 231.08 161.96 231.08 159.83 229.39 156.39 226.77 153.35 226.48 153.18 
M 225.99 184.41 226.81 183.46 
M 228.18 175.29 227.55 174.01 226.93 173.28 
M 230.42 140.63 232.34 137.57 233.99 132.96 233.99 130.11 232.34 125.5 229.78 121.43 227.79 119.84 
M 230.98 162.08 233.17 160.75 235.97 157.34 237.78 153.49 237.78 151.1 235.97 147.24 233.17 143.84 230.98 142.51 
M 235.6 174.63 237.51 171.25 237.51 169.14 235.58 165.72 232.58 162.71 230.47 161.64 
M 227.74 194.74 230.14 193.65 233.21 190.85 235.13 187.78 
M 231.68 203.56 232.44 202.52 232.44 200.63 230.2 197.57 226.71 194.87 226.03 194.61 
M 232.84 126.71 233.43 125.56 234.9 120.53 234.9 117.42 233.43 112.39 231.45 108.52 
M 237.13 153.22 238.1 152.37 240.25 148.54 241.64 144.21 241.64 141.53 240.25 137.19 238.1 133.36 236.41 131.87 
M 237.2 171.14 239.04 169.89 241.41 166.69 242.93 163.05 242.93 160.81 241.41 157.18 239.04 153.97 237.51 152.93 
M 235.93 188.07 236.01 188.02 
M 239.51 174.28 237.89 172.39 236.82 171.77 
M 232.4 203.2 234.53 202.11 237.26 199.3 239.02 196.12 239.02 194.15 237.26 190.96 234.49 188.13 
M 234.37 118.1 237.82 114.15 239.96 109.77 239.96 107.05 238.07 103.18 
M 241.15 140.76 243.79 137 245.57 132.54 245.57 129.78 243.79 125.32 241.02 121.39 238.86 119.85 
M 242.38 162.21 244.39 160.89 247.05 157.38 248.77 153.42 248.77 150.96 247.05 147 244.39 143.5 242.32 142.13 
M 240.12 150.32 245.81 149.46 
M 239.98 152.52 245.96 152.12 
M 240.59 153.88 245.5 155.57 
M 248.74 173.29 249.36 172.09 249.36 169.87 247.53 166.3 244.69 163.14 242.47 161.91 
M 240.04 169.43 245.92 168.27 
M 240.28 171.3 246.34 171.01 
M 240.58 172.76 244.68 173.71 
M 240.82 196.81 243.24 195.66 246.35 192.71 246.77 192.01 
M 238.58 190.05 243.85 190.92 
M 244.01 209.2 244.5 208.78 246.7 205.57 246.7 203.59 244.5 200.38 241.09 197.55 238.43 196.44 
M 239.2 107.24 242.04 104.41 244.2 100.62 244.2 98.71 
M 244.94 129.44 247.12 126.27 248.83 121.91 248.83 119.21 247.12 114.85 244.47 111 242.4 109.49 
M 240.48 118.65 245.65 116.9 
M 240.54 120.38 245.99 120.41 
M 242.04 123.29 245.76 124.09 
M 248.15 151.91 248.91 151.27 251.06 147.63 252.45 143.52 252.45 140.98 251.06 136.87 248.91 133.23 247.24 131.82 
M 245.73 140.1 249.64 139.4 
M 245.26 142.15 249.99 142.28 
M 245.26 144.1 250.21 145.53 
M 248.7 171.11 250.14 170.02 252.33 166.67 253.74 162.89 253.74 160.55 252.33 156.77 250.14 153.42 248.43 152.12 
M 246.88 159.94 251.34 158.99 
M 247.06 161.65 250.88 161.94 
M 246.79 163.44 251.02 164.77 
M 250.5 173.18 250.19 172.77 248.7 171.8 
M 246.62 206.29 248.74 205.15 251.45 202.24 253.2 198.94 253.2 196.9 251.56 193.8 
M 244.79 196.03 249.97 195.32 
M 244.38 198.25 250.05 198.19 
M 244.35 199.25 250.2 200.63 
M 250.3 211.64 249.2 209.7 246.43 206.92 245.92 206.67 
M 243.43 101.69 245.51 100.95 249.35 98.2 251.82 95.09 251.82 93.35 
M 248.21 120.53 249.3 120 252.73 116.64 254.95 112.85 254.95 110.49 252.73 106.69 249.3 103.34 246.61 102.03 
M 243.82 110.07 250.87 109.13 
M 244.64 111.71 250.99 111.55 
M 246.28 114.06 250.65 114.58 
M 251.95 141.19 253.05 140.5 255.88 136.96 257.7 132.96 257.7 130.48 255.88 126.47 253.05 122.94 250.85 121.56 
M 248.46 129.99 254.51 128.32 
M 248.95 131.4 254.08 131.97 
M 249.14 134.04 254.39 134.76 
M 253.24 161.51 255.21 160.19 257.77 156.74 259.42 152.85 259.42 150.43 257.77 146.54 255.21 143.1 253.21 141.75 
M 251.49 149.48 256.28 148.67 
M 251.22 151.47 256.76 151.86 
M 250.99 153.92 256.55 154.49 
M 260.4 172.55 260.55 172.22 260.55 169.9 258.8 166.15 256.1 162.84 253.99 161.55 
M 251.6 168.98 257.34 168.26 
M 251.83 171.06 257.38 171.36 
M 252.31 172.92 253.09 173.03 
M 253.57 198.6 255.88 197.38 257.26 195.93 
M 254.96 213.59 257.72 211.08 259.77 207.78 259.77 205.74 257.72 202.44 254.53 199.53 252.58 198.64 
M 249.82 204.84 256.24 204.48 
M 249.82 206.99 256.1 206.64 
M 249.55 208.39 256.29 209.17 
M 250.93 95.31 251.78 94.98 254.62 92.73 256.19 90.55 
M 254.16 111.59 254.46 111.43 257.37 108.5 259.25 105.18 259.25 103.12 257.37 99.8 254.46 96.87 252.19 95.72 
M 250.23 102.33 255.97 101.81 
M 249.94 103.81 255.75 104.04 
M 251.6 105.96 255.7 106.32 
M 257.04 131.17 257.78 130.7 260.32 127.4 261.96 123.67 261.96 121.36 260.32 117.63 257.78 114.34 255.79 113.05 
M 253.67 120.31 259.34 119.8 
M 253.75 122.5 258.76 122.17 
M 254.14 124.37 259.04 125.51 
M 258.83 150.51 259.58 149.9 261.65 146.53 262.98 142.72 262.98 140.36 261.65 136.55 259.58 133.18 257.97 131.86 
M 256.5 139.45 260.33 138.99 
M 256.07 141.68 260.75 141.51 
M 256.41 143.75 260.83 144.15 
M 259.92 170.32 260.87 169.56 263 166.14 264.37 162.26 264.37 159.85 263 155.97 260.87 152.55 259.21 151.21 
M 257.33 159.22 261.72 157.91 
M 257.65 161.25 261.79 160.95 
M 257.5 163.35 262.1 163.74 
M 261.59 172.46 260.01 171.32 
M 259.34 208.02 261.25 206.82 263.71 203.75 265.29 200.27 265.29 198.54 
M 257.42 197.49 260.04 196.98 
M 257.38 199.04 262.57 199.44 
M 257.62 200.78 262.39 201.87 
M 264.42 217.16 264.46 215.07 262.73 211.81 260.04 208.93 259.04 208.39 
M 256.66 214.27 261.44 213.7 
M 258.58 103.57 259.05 103.37 262.26 100.69 264.33 97.66 264.33 95.79 262.26 92.75 259.05 90.08 257.88 89.59 
M 253.95 95.47 260.71 94.74 
M 254.2 96.95 260.35 96.88 
M 255.82 98.56 260.68 99.34 
M 261.37 122 262.54 121.42 265.68 118.32 267.69 114.81 267.69 112.63 265.68 109.12 262.54 106.02 260.1 104.81 
M 257.88 111.97 264.36 111.37 
M 257.92 113.86 264.36 113.85 
M 258.23 115.31 264.1 116.73 
M 262.51 141.02 264.53 139.83 267.32 136.6 269.11 132.93 269.11 130.66 267.32 126.99 264.53 123.75 262.36 122.48 
M 263.88 160.35 265.72 159.13 268.29 155.74 269.95 151.89 269.95 149.51 268.29 145.66 265.72 142.26 263.71 140.94 
M 271.54 171.27 271.54 169.51 269.82 165.62 267.16 162.19 265.09 160.85 
M 265.48 199.48 266.84 198.69 
M 264.86 216.89 267.2 215.7 270.19 212.65 272.12 209.21 272.12 207.07 270.19 203.63 267.2 200.58 264.86 199.39 
M 266.74 217.94 264.23 216.77 
M 262.61 93.32 264.12 91.8 265.67 89.08 265.67 87.39 265.03 86.26 
M 260.18 88.28 262.73 88.25 
M 258.2 89.66 262.76 90.46 
M 266.97 112.39 269.13 109.74 270.77 106.21 270.77 104.03 269.13 100.5 266.59 97.39 264.6 96.17 
M 268.47 131.48 269.72 130.69 272.16 127.63 273.74 124.17 273.74 122.02 272.16 118.55 269.72 115.49 267.81 114.3 
M 269.36 148.24 271.83 144.81 273.26 141.15 273.26 138.88 271.83 135.22 269.62 131.98 268.83 131.41 
M 270.92 169.48 271.47 169.02 273.64 165.47 275.04 161.44 275.04 158.94 273.64 154.91 271.47 151.35 269.78 149.96 
M 271.81 171.23 271.35 170.89 
M 271.43 208.71 273.05 207.6 275.39 204.4 276.91 200.57 
M 276.86 218.97 276.99 218.7 276.99 216.58 275.38 213.17 272.89 210.15 271.43 209.27 
M 266.39 89.81 269.02 89.09 272.4 87.27 274.57 85.21 274.57 83.93 274.2 83.58 
M 270.18 104.82 271.4 104.31 274.62 101.62 276.69 98.57 276.69 96.68 274.62 93.63 271.4 90.94 268.89 89.89 
M 273.17 123.21 275.01 122.31 278.11 119.27 280.11 115.83 280.11 113.7 278.11 110.26 275.01 107.22 272.59 106.04 
M 274.02 140.91 276.33 139.7 279.28 136.61 281.18 133.1 281.18 130.93 279.28 127.42 276.33 124.32 274.02 123.11 
M 274.68 159.86 276.87 158.55 279.67 155.2 281.48 151.41 281.48 149.06 279.67 145.26 276.87 141.91 274.68 140.6 
M 282.85 170.28 282.85 169.21 281.09 165.25 278.37 161.76 276.24 160.39 
M 276.99 217.82 279.21 216.6 282.05 213.47 283.89 209.93 283.89 207.73 282.05 204.19 279.29 201.15 
M 278.78 218.87 276.86 217.91 
M 273.79 84.95 275.99 84.53 279.27 83.25 
M 275.95 95.93 278.84 93.77 280.79 91.23 280.79 89.65 278.84 87.11 275.83 84.86 275.26 84.65 
M 279.4 114.36 279.79 114.15 282.56 111.15 284.34 107.76 284.34 105.66 282.56 102.27 279.79 99.27 277.63 98.1 
M 280.5 132.61 282.32 131.56 284.91 128.57 286.58 125.2 286.58 123.1 284.91 119.73 282.32 116.74 280.3 115.58 
M 280.83 149.3 282.12 148.52 284.71 145.41 286.38 141.88 286.38 139.69 284.71 136.17 282.12 133.05 280.7 132.2 
M 282.22 169.05 282.81 168.61 285.18 165.11 286.71 161.16 286.71 158.71 285.18 154.75 282.81 151.25 280.97 149.89 
M 283.23 208.99 284.71 207.95 287.02 204.71 288.05 202.14 
M 288.55 218.97 288.55 217.08 287.05 213.63 284.71 210.58 283.23 209.61 
M 282 84.07 285.04 83.72 288.53 82.9 
M 281.61 93.14 284.57 92.49 288.37 90.82 290.81 88.93 290.81 87.76 288.37 85.87 284.57 84.21 283.47 83.96 
M 283.7 107.4 285.88 106.63 289.41 104.13 291.69 101.3 291.69 99.54 289.41 96.71 285.88 94.21 283.12 93.23 
M 285.98 124.96 288.41 123.87 291.62 120.96 293.69 117.67 293.69 115.63 291.62 112.34 288.41 109.43 285.9 108.3 
M 286.94 142.15 289.34 140.97 292.41 137.96 294.39 134.55 294.39 132.44 292.41 129.03 289.34 126.02 286.94 124.84 
M 284.49 131.6 291.05 130.62 
M 284.6 133.85 290.67 133.68 
M 284.42 135.47 290.76 136.16 
M 287.08 160.48 289.41 159.22 292.4 155.99 294.33 152.32 294.33 150.06 292.4 146.39 289.41 143.16 287.08 141.9 
M 284.61 148.98 291 148.68 
M 284.86 151.36 290.57 151.52 
M 285.1 152.81 291.08 153.62 
M 294.7 169.76 294.7 169.44 292.89 165.58 290.08 162.16 287.88 160.83 
M 285.96 168.36 291.62 167.42 
M 288.64 218.1 290.8 216.87 293.55 213.72 295.33 210.15 295.33 207.94 293.55 204.37 291.94 202.53 
M 286.89 207.45 291.92 206.25 
M 286.31 208.88 292.17 209.08 
M 286.81 211.17 292.15 211.5 
M 290.1 219.04 288.63 218.26 
M 290.71 83.4 293.23 83.17 
M 290.15 89.99 292.66 89.54 295.86 88.39 297.93 87.08 297.93 86.28 295.86 84.97 292.66 83.82 290.15 83.37 
M 288.24 86 294.47 85.41 
M 289.94 86.92 294.27 86.81 
M 289.94 87.22 294.2 87.65 
M 290.88 100.19 291.83 99.89 295.03 97.86 297.09 95.57 297.09 94.15 295.03 91.85 291.63 89.76 
M 287.07 93.45 293.57 93.06 
M 286.77 95.13 293.41 94.84 
M 287.82 95.86 293.11 96.94 
M 292.95 117.11 294.22 116.48 297.03 113.74 298.84 110.63 298.84 108.71 297.03 105.6 294.22 102.86 292.03 101.79 
M 289.79 107.98 295.36 107.62 
M 289.68 109.78 295.46 109.75 
M 290.35 111.52 295.62 112.38 
M 293.69 134.39 295.63 133.28 298.16 130.37 299.8 127.08 299.8 125.04 298.16 121.75 295.63 118.85 293.65 117.72 
M 291.95 124.09 296.99 123.56 
M 291.4 126.11 296.83 126.12 
M 291.72 127.4 296.7 128.87 
M 293.73 151.73 295.7 150.54 298.23 147.5 299.86 144.05 299.86 141.91 298.23 138.47 295.7 135.42 293.73 134.23 
M 291.95 140.93 297.13 140.4 
M 292.15 143.31 297.2 143.24 
M 291.51 144.9 296.73 145.53 
M 294.61 169.77 295.46 169.21 297.93 165.93 299.53 162.21 299.53 159.91 297.93 156.19 295.46 152.91 293.64 151.69 
M 291.97 159.12 296.52 158.57 
M 291.73 160.92 296.77 161.34 
M 291.55 163.3 296.34 164.15 
M 294.69 209.09 296.17 208.03 298.44 204.77 298.96 203.46 
M 299.91 218.34 299.91 217.13 298.44 213.67 296.16 210.61 294.69 209.63 
M 292.44 216.16 297.05 215.21 
M 292.94 218.5 297.55 218.36 
M 297.52 88.17 300.26 87.82 302.87 87.14 
M 295.64 85.01 298.66 84.86 
M 296.91 85.46 299.65 85.4 
M 297.19 86.27 301.18 86.22 
M 297.15 97.02 299.94 96.4 303.5 94.81 305.8 93.02 305.8 91.9 303.5 90.11 299.94 88.52 297.31 87.94 
M 294.13 91.37 301.53 91.04 
M 295.77 92.53 301.85 92.67 
M 296.35 93.29 301.89 94.19 
M 298.19 110.13 300.48 109.36 303.88 107.08 306.07 104.5 306.07 102.9 303.88 100.32 300.48 98.04 297.83 97.15 
M 295.49 102.03 302.36 101.48 
M 294.99 103.4 302.41 103.8 
M 296.52 105.41 301.94 105.85 
M 299.21 126.25 301.57 125.21 304.63 122.5 306.61 119.44 306.61 117.54 304.63 114.47 301.57 111.77 299.18 110.71 
M 296.75 117.04 303.22 116.37 
M 296.82 118.82 303 118.56 
M 296.68 120.32 302.84 120.82 
M 299.58 143.14 301.86 141.99 304.78 139.05 306.66 135.72 306.66 133.66 304.78 130.33 301.86 127.39 299.58 126.25 
M 297.31 133.33 303.54 132.29 
M 297.64 134.81 303.29 134.43 
M 297.52 136.69 303.58 137.17 
M 299.58 161.35 301.85 160.11 304.75 156.95 306.63 153.36 306.63 151.14 304.75 147.56 301.85 144.39 299.58 143.15 
M 297.57 150.73 303 149.24 
M 297.23 152.6 302.87 152.54 
M 297.37 154.13 303.43 154.94 
M 306.33 169.36 304.79 166.17 301.97 162.86 299.77 161.57 
M 297.33 168.84 303.35 168.23 
M 300.08 218.07 302.2 216.85 304.92 213.7 306.67 210.14 306.67 207.93 304.7 204.11 
M 297.87 207.23 303.52 206.14 
M 297.93 209.27 303.8 208.85 
M 298.1 210.87 303.25 211.89 
M 300.14 218.31 299.94 218.2 
M 304.97 93.18 306.66 92.78 309.49 91.4 
M 302.57 89.19 305.44 88.7 
M 302.73 89.94 306.7 89.53 
M 304.21 90.58 307.78 90.84 
M 305.29 103.89 306.74 103.4 309.54 101.48 311.34 99.32 311.34 97.97 309.54 95.81 306.74 93.89 304.97 93.29 
M 302.64 97.41 308.25 96.98 
M 302.58 98.35 307.78 98.47 
M 302.3 99.51 307.97 100.57 
M 305.9 118.38 307.38 117.66 309.9 115.23 311.53 112.47 311.53 110.77 309.9 108.01 307.38 105.58 305.41 104.63 
M 303.68 110.5 308.24 109.61 
M 303.73 111.27 308.9 111.96 
M 303.73 112.97 308.47 113.63 
M 305.98 134.26 307.45 133.4 309.8 130.66 311.31 127.55 311.31 125.63 309.8 122.52 307.45 119.78 305.9 118.87 
M 303.68 125.29 308.73 124.14 
M 303.94 126.29 308.43 126.41 
M 304.09 128.1 308.78 128.76 
M 305.96 151.53 307.13 150.75 309.45 147.68 310.94 144.21 310.94 142.06 309.45 138.59 307.13 135.52 305.98 134.76 
M 303.48 141.49 308.46 140.26 
M 303.64 143.21 307.95 143.26 
M 303.31 144.81 308.58 145.88 
M 308.19 169.13 309.96 166.68 311.48 162.98 311.48 160.69 309.96 156.98 307.59 153.71 305.96 152.58 
M 304.05 160.08 308.62 158.81 
M 304.15 161.64 308.94 162.01 
M 304.13 163.6 308.81 164.57 
M 306.04 208.98 307.51 207.93 309.87 204.47 
M 310.82 216.16 309.78 213.71 307.54 210.7 306.04 209.69 
M 310.71 99.14 313.08 98.52 316.12 96.94 316.49 96.59 
M 311.05 111.65 313.39 110.81 316.39 108.66 318.32 106.23 318.32 104.72 316.39 102.29 313.39 100.15 311.05 99.31 
M 311.38 126.62 313.59 125.62 316.43 123.05 318.26 120.15 318.26 118.35 316.43 115.44 313.59 112.87 311.38 111.87 
M 311.3 143.31 313.47 142.17 316.25 139.27 318.05 135.99 318.05 133.96 316.25 130.67 313.47 127.77 311.3 126.64 
M 311.34 161.67 313.52 160.43 316.3 157.27 318.09 153.68 318.09 151.47 316.3 147.88 313.52 144.72 311.34 143.48 
M 317.52 168.83 316.39 166.47 313.63 163.18 311.47 161.9 
M 314.94 214.99 316.2 213.54 317.93 210.03 317.93 207.86 316.34 204.63 
M 317.63 104.78 318.83 104.3 321.21 102.42 322.33 100.86 
M 317.6 118.61 319.04 117.87 321.34 115.51 322.83 112.84 322.83 111.18 321.34 108.51 319.04 106.15 317.63 105.42 
M 317.4 134.51 319.02 133.55 321.3 130.82 322.77 127.72 322.77 125.81 321.3 122.72 319.02 119.99 317.6 119.14 
M 317.45 151.91 318.84 151 321.17 147.94 322.66 144.47 322.66 142.33 321.17 138.86 318.84 135.8 317.4 134.86 
M 319.81 168.95 321.32 166.77 322.79 163.07 322.79 160.79 321.32 157.1 319.05 153.84 317.45 152.68 
M 317.31 209.14 319.04 207.91 320.99 205.16 
M 320.48 213.19 318.58 210.61 317.31 209.74 
M 322.79 111.93 324.91 111.09 327.61 108.95 329.35 106.53 329.35 105.85 
M 322.9 126.66 324.98 125.66 327.64 123.11 329.36 120.22 329.36 118.43 327.64 115.54 324.98 112.99 322.9 112 
M 322.87 143.44 325 142.31 327.71 139.41 329.47 136.12 329.47 134.09 327.71 130.8 325 127.9 322.87 126.77 
M 322.89 161.74 325.02 160.51 327.75 157.36 329.5 153.79 329.5 151.57 327.75 148 325.02 144.85 322.89 143.62 
M 328.87 168.87 327.76 166.49 325.04 163.21 322.92 161.93 
M 328.87 209.32 328.87 207.53 327.82 205.41 
M 328.75 118.57 330.24 117.75 332.37 115.39 333.75 112.73 333.75 111.08 332.37 108.42 332.04 108.05 
M 328.84 134.37 330.23 133.48 332.39 130.72 333.79 127.6 333.79 125.66 332.39 122.54 330.23 119.78 328.75 118.83 
M 328.87 152.29 330.48 151.22 332.77 148.16 334.25 144.7 334.25 142.56 332.77 139.09 330.48 136.04 328.84 134.94 
M 331 168.75 332.48 166.57 333.91 162.9 333.91 160.63 332.48 156.96 330.28 153.72 328.87 152.69 
M 328.61 208.82 330.35 207.6 332.08 205.19 
M 328.58 209.47 328.26 209.25 
M 333.66 111.37 335.28 110.7 
M 333.66 126.06 335.65 125.05 338.21 122.47 339.86 119.55 339.86 117.74 338.21 114.82 335.65 112.24 333.66 111.23 
M 331.6 117.19 337.21 116.56 
M 331.64 118.34 337.1 118.86 
M 331.89 119.95 336.91 121.02 
M 334.05 143.32 336.13 142.17 338.79 139.22 340.5 135.88 340.5 133.81 338.79 130.47 336.13 127.52 334.05 126.37 
M 331.94 132.8 337.62 132.12 
M 332.14 134.66 337.12 134.81 
M 331.73 136.23 337.6 137.74 
M 334.18 161.62 336.27 160.39 338.96 157.22 340.69 153.64 340.69 151.42 338.96 147.84 336.27 144.68 334.18 143.44 
M 331.81 151 337.49 150.08 
M 332.29 152.52 337.9 152.24 
M 332.15 154.4 337.71 155.09 
M 340.46 169.48 338.99 166.32 336.3 163.03 334.2 161.75 
M 333.94 168.95 337.64 168.02 
M 331.29 206.27 336.55 205.09 
M 339.27 116.72 340.18 116.21 340.61 115.73 
M 339.89 133.25 340.63 132.75 342.79 129.87 344.18 126.61 344.18 124.59 342.79 121.32 340.63 118.44 339.27 117.53 
M 337.53 123.72 341.49 123.21 
M 337.07 125.88 341.94 125.33 
M 337.34 127.34 341.69 127.74 
M 340.07 152.42 341.79 151.23 344.04 148.13 345.49 144.62 345.49 142.44 344.04 138.93 341.79 135.83 340.04 134.62 
M 338.64 141.45 342.54 140.76 
M 338.16 143.46 342.99 143.48 
M 338.36 145.61 342.51 146.48 
M 340.9 169.47 343.35 166.03 344.77 162.34 344.77 160.06 343.35 156.37 341.15 153.11 340.07 152.31 
M 338.06 159.15 342.19 158.63 
M 338.06 161.11 342.44 161.13 
M 337.83 163.37 342 164.35 
M 344.26 125.31 346.37 124.29 347.96 122.75 
M 341.97 118.08 343.09 118.09 
M 342.42 119.29 344.89 119.81 
M 345.1 143.08 347.22 141.9 349.94 138.9 351.69 135.5 351.69 133.4 349.94 130 347.22 127 345.1 125.83 
M 342.77 132.75 348.59 131.66 
M 343.3 134.25 348.59 134.55 
M 342.79 136.16 348.23 137.03 
M 345.35 161.4 347.46 160.16 350.17 156.98 351.92 153.37 351.92 151.14 350.17 147.54 347.46 144.35 345.35 143.11 
M 343.14 150.46 348.97 149.5 
M 343.52 152.54 349.1 151.93 
M 342.98 153.76 348.47 154.79 
M 351.89 169.58 350.27 166.1 347.57 162.8 345.45 161.51 
M 343.6 168.8 348.6 168.24 
M 351.07 133.18 352.01 132.6 354.39 129.68 354.72 128.98 
M 348.47 123.36 348.6 123.35 
M 348.27 125.56 350.73 125.32 
M 348.17 126.96 353.14 127.72 
M 351.29 152.23 353.05 151.03 355.32 147.93 356.79 144.41 356.79 142.24 355.32 138.72 353.05 135.62 351.27 134.41 
M 349.48 141.81 354.41 140.34 
M 349.25 143.1 353.88 143.25 
M 349.36 144.93 354.04 145.82 
M 351.78 169.57 352.45 169.1 354.76 165.83 356.25 162.12 356.25 159.83 354.76 156.12 352.45 152.85 351.29 152.03 
M 349.14 158.83 353.87 157.99 
M 349.18 161.3 353.28 160.66 
M 348.65 162.75 353.45 163.76 
M 356.79 143.21 358.99 142.06 361.8 139.1 363.2 136.51 
M 356.86 161.4 359 160.17 361.74 157.01 363.51 153.44 363.51 151.22 361.74 147.65 359 144.49 356.86 143.26 
M 363.36 170.51 363.36 169.81 361.63 166.08 358.95 162.78 356.86 161.5 
M 362.89 152.22 364.67 151.04 366.96 148 368.43 144.57 368.43 142.44 367.58 140.45 
M 362.98 170.51 364.4 169.51 366.66 166.29 368.12 162.65 368.12 160.39 366.66 156.75 364.4 153.53 362.87 152.44 
M 368.62 143.36 370.05 142.62 
M 368.29 161.18 370.36 159.98 373.01 156.89 373.85 155.16 
M 373.85 149.47 373.01 147.74 370.36 144.65 368.29 143.45 
M 373.85 168.99 372.4 165.7 369.86 162.44 367.87 161.17 
M 373.45 169.76 373.85 169.45 
M 373.85 170.49 373.45 170.16 
M 223.49 115.71 223.49 115.71 
M 224.69 209.06 226.71 208.28 230.2 205.58 231.68 203.56 
M 234.61 216.93 236.05 215.64 238.08 212.44 238.08 210.45 236.05 207.25 232.9 204.42 231.64 203.86 
M 238.43 212.72 241.09 211.61 244.01 209.2 
M 241.93 212 247.92 211.25 
M 242.31 215.77 248.05 215.9 
M 246.08 223.18 245.45 222.53 244.7 222.14 
M 251.82 93.35 251.82 93.35 
M 248.49 221.56 254.77 220.81 
M 248.38 223.17 254.68 222.68 
M 257.95 224.36 260.04 223.24 262.73 220.36 264.42 217.16 
M 264 232.34 264 231.24 262.21 228.01 259.44 225.15 257.94 224.38 
M 258.75 229.92 260.45 229.74 
M 257.88 89.59 257.88 89.59 
M 265.25 232.9 266.69 232.24 269.84 229.35 271.88 226.08 271.88 224.05 269.84 220.78 266.74 217.94 
M 265.03 86.26 265.03 86.26 
M 276.96 234.91 276.96 233.31 275.31 230.14 272.76 227.35 271.15 226.47 
M 277.08 234.9 276.99 234.86 
M 279.27 83.25 279.27 83.25 
M 283.27 226.66 284.71 225.72 287.05 222.67 288.55 218.97 
M 280.83 233.41 285.96 232.46 
M 288.63 234.9 290.78 233.77 293.53 230.88 295.31 227.6 295.31 225.57 293.53 222.29 290.78 219.39 290.1 219.04 
M 286.46 225.15 291.95 223.85 
M 286.87 226.61 292.22 226.23 
M 286.2 228.35 291.9 229.19 
M 292.38 219.93 296.89 220.81 
M 292.48 233.5 297.35 232.5 
M 298.66 84.86 298.66 84.86 
M 301.18 86.22 301.18 86.22 
M 302.02 233.58 304.67 230.71 306.38 227.46 306.38 225.45 304.67 222.19 302.01 219.32 300.14 218.31 
M 298.03 225 303.61 224.23 
M 297.72 228.43 303.41 228.92 
M 309.49 91.4 309.49 91.4 
M 306.7 89.53 306.7 89.53 
M 305.79 226.81 307.54 225.64 309.78 222.63 311.23 219.22 311.23 217.11 310.82 216.16 
M 311.42 217.85 313.52 216.64 314.94 214.99 
M 316.29 228.51 317.11 226.92 317.11 224.94 315.45 221.74 312.87 218.91 310.86 217.81 
M 322.33 100.86 322.33 100.86 
M 322.52 217.29 324.56 216.11 327.18 213.08 328.87 209.65 328.87 209.32 
M 332.04 108.05 332.04 108.05 
M 331.47 219.84 332.33 217.77 332.33 215.77 330.99 212.54 328.91 209.69 328.58 209.47 
M 325.78 218.26 330.14 219.4 
M 333.33 216.5 335.37 215.34 337.98 212.37 339.66 209.01 339.66 206.92 338.55 204.69 
M 331.58 209.37 336.88 210.35 
M 342.01 212.64 341.54 211.53 339.4 208.67 339.06 208.45 
M 336.14 214.12 340.22 213.46 
M 335.84 215.69 337.85 215.57 
M 344.89 119.81 344.89 119.81 
M 342.62 205.58 347.44 204.96 
M 342.2 207.59 348.03 207.48 
M 342 209.01 345.78 209.58 
M 258.94 87.96 273.76 30 274.46 30.16 261.67 87.66 
M 269.1 84.03 284.13 40.86 284.81 41.09 271.84 83.96 
M 279.92 82.66 294.73 52.88 295.38 53.19 282.53 83.17 
M 290.88 82.05 304.84 64.46 305.43 64.89 293.26 83.17 
M 301.23 85.69 312.15 78.04 312.61 78.61 303.25 87.35 
M 310.43 91.49 315.79 89.04 316.19 89.64 312.2 93.36 
M 322.2 100.24 322.94 101.31 
M 273.16 36 275.45 39.96 277.43 42.12 279.88 43.81 282.62 45.18 
M 283.49 45.46 285.83 49.78 287.87 52.21 290.4 54.19 293.25 55.86 
M 294.07 56.24 295.48 59.1 297.2 61.65 299.41 63.75 303.45 66.22 
M 304.18 66.76 305.39 71.39 306.77 74.16 308.73 76.59 311.06 78.81 
M 311.63 79.52 311.57 82.01 311.91 84.35 312.87 86.46 315.25 89.29 
M 315.76 90.04 317.01 94.34 318.41 96.86 320.36 99.01 322.68 100.93 
M 273.87 37.38 275.45 39.96 277.43 42.12 278.6 43.02 281.23 44.51 
M 272.87 43.09 274.26 45.37 276.01 47.28 277.04 48.07 279.37 49.4 
M 271.86 48.8 273.07 50.78 274.59 52.44 275.49 53.13 277.51 54.28 
M 270.86 54.52 271.88 56.2 273.17 57.6 275.64 59.16 
M 269.86 60.23 270.7 61.61 271.76 62.76 273.78 64.04 
M 268.85 65.95 269.9 67.5 270.82 68.3 271.92 68.92 
M 284.21 46.95 285.83 49.78 287.87 52.21 289.08 53.25 291.8 55.04 
M 282.73 53.41 284.06 55.74 284.85 56.79 286.74 58.6 288.99 60.08 
M 281.24 59.86 282.29 61.7 283.62 63.27 286.17 65.11 
M 279.76 66.31 280.98 68.26 282.07 69.3 283.36 70.15 
M 294.75 57.69 296.29 60.43 297.2 61.65 299.41 63.75 302.05 65.45 
M 292.83 63.6 294.01 65.7 294.71 66.64 296.4 68.25 298.42 69.55 
M 290.91 69.51 292.22 71.62 293.39 72.74 294.8 73.64 
M 304.52 68.34 305.39 71.39 306.77 74.16 307.68 75.41 309.87 77.71 
M 226.77 175.33 228.8 175.27 237.82 174.48 248.42 173.31 257.32 172.61 261.92 172.44 272.75 171.1 277.08 171.05 279.26 170.86 283.56 170.13 288.3 169.94 290.14 170.19 294.81 169.74 298.86 169.84 303.31 169.73 307.74 169.12 310.08 169.2 316.35 168.76 323.27 169.27 325.42 169.15 327.3 168.75 328.78 168.87 333.26 168.75 335.63 169.44 337.81 169.62 345.08 169.42 353.9 169.66 356.03 169.36 362.7 170.51 364.8 170.52 366.97 170.32 369.12 170.77 371.25 170.9 375.51 170.69 377.41 170.88 381.67 171.64 384.07 171.49 385.92 171.92 390.53 172.28 395.14 173.44 399.32 173.3 401.27 173.67 403.32 173.69 405.2 174.41 414.38 175.36 416.86 176.08 418.95 176.15 421.05 175.95 425.83 176.37 430.11 177.73 438.73 178.75 440.81 179.15 408.55 191.01 402.53 193.13 400.36 193.68 398.54 194.58 394.44 195.91 387.45 197.07 385.35 197.69 383.38 198.43 381.83 199.59 379.66 199.92 377.71 200.47 373.16 200.92 371.16 201.42 364.44 202.2 360.36 203.13 349.1 204.14 347.16 204.43 340.52 204.49 328.05 205.41 319.11 205.08 314.56 204.45 308.73 204.5 300.16 203.78 297.49 203.07 295.22 202.75 282.97 201.64 278.74 201.08 271.47 199.31 263.85 198.4 236.23 188.08 233.83 187.42 226.44 183.23 
M 233.4 176.37 246.48 176.05 257.35 175.42 259.61 175.38 263.87 175.79 266.13 175.77 268.46 175.38 272.41 175.36 274.8 175.11 279.44 175.46 286.25 175.1 292.63 175.28 294.63 175.49 296.95 175.29 301.44 176.1 303.62 175.86 305.99 175.88 310.54 175.96 314.6 176.45 316.71 176.3 319.14 176.72 323.45 176.85 327.53 177.6 329.13 177.47 331.23 177.68 335.78 178.81 337.97 179.05 340.21 178.81 342.57 179.1 344.72 179.11 355.52 180.56 362.64 181.74 366.51 183.06 368.82 183.28 372.9 184.11 374.94 184.32 380.57 185.74 383.32 185.41 388.52 185.75 390.54 186.15 392.33 187.2 
M 233.42 177.97 240.16 178.3 250.92 178.33 259.64 178.58 266.32 179.27 268.6 178.96 270.72 179.24 275.35 179.38 279.9 180.13 284.12 180.1 285.95 180.34 288.07 180.3 290.38 180.77 296.94 181.69 299.37 181.92 302.07 181.92 305.92 182.58 310.58 182.66 312.86 183.1 315.03 184 317.22 184.68 319.14 184.92 322.93 185.8 327.43 186.2 329.21 186.88 331.46 187.31 336.04 187.89 340.16 188.89 344.64 189.52 346.75 190.12 350.16 191.77 352.03 192.3 359.7 193.57 364.05 194.06 366.61 194.13 370.74 195.77 374.37 197.72 376.56 198.09 378.63 198.84 
M 226.44 178.59 233.4 179.57 240.2 180.1 246.81 180.89 251.16 181.09 255.67 181.65 260.09 181.79 262.24 182.19 266.65 182.44 270.94 183.57 272.85 183.54 279.53 185.35 283.92 185.36 288.21 185.86 290.12 186.27 
M 228.97 180.15 235.72 181.42 240.17 181.92 253.44 184.44 260.12 185.39 268.46 187.15 272.54 188.6 274.82 189.12 
M 226.44 180.75 235.63 183.09 240.24 183.94 242.45 184.79 244.61 185.39 246.69 185.78 255.46 188.18 257.49 189.12 261.38 190.39 265.01 192.02 267.08 192.59 269.7 192.83 274.18 194.35 277.76 196.73 281.91 198.16 283.68 198.54 285.52 199.53 
M 229.02 182.83 231.34 183.65 240.28 186.23 242.33 187.37 244.57 188.15 252.92 191.73 
M 267.7 240.78 269.78 249.35 269.1 249.59 265.25 241.66 
M 258.13 236.03 264.84 279.87 264.13 280 255.56 236.47 
M 248.95 230.65 248.03 239.42 247.31 239.42 246.35 230.66 
M 268.71 248.8 265.97 257.48 264.79 263.39 264.27 269.4 264.17 275.49 
M 263.28 275.64 260.77 267.05 257.86 258.62 254.33 250.44 248.12 238.55 
M 267.72 251.68 265.97 257.48 264.79 263.39 264.45 266.38 264.19 272.44 
M 262.05 271.33 259.38 262.8 257.86 258.62 254.33 250.44 250.27 242.48 
M 348.58 211.04 354.78 214.95 354.47 215.61 347.49 213.4 
M 340.48 218.21 361.23 229.91 360.9 230.55 339.29 220.52 
M 331.9 224.78 353.65 238.54 353.28 239.17 330.6 227.03 
M 323.19 231.15 344.12 247.27 343.7 247.86 321.67 233.26 
M 313.63 236.13 327.19 249.53 326.71 250.07 311.9 238.07 
M 305.02 239.9 309.61 245.61 309.11 246.13 303.22 241.78 
M 353.77 215.38 354.11 218.7 354.85 221.85 356.2 224.76 359.16 228.74 
M 358.74 229.55 355.41 231.23 353.67 232.8 352.42 234.83 351.47 237.17 
M 351.01 237.96 348.41 238.96 346.09 240.3 344.21 242.14 342.03 245.66 
M 341.5 246.4 337.91 245.87 334.37 245.78 330.91 246.35 325.83 248.19 
M 325.23 248.87 320.16 246.38 316.63 245.36 312.94 244.99 309.15 245.04 
M 353.91 217.05 354.41 220.3 354.85 221.85 356.2 224.76 358.1 227.44 
M 357.58 230.05 355.41 231.23 353.67 232.8 352.99 233.76 351.92 235.98 
M 352.44 228.32 350.78 229.22 349.45 230.43 348.93 231.17 348.11 232.87 
M 347.31 226.59 345.66 227.61 344.86 228.57 344.29 229.75 
M 349.69 238.44 347.2 239.57 346.09 240.3 344.21 242.14 342.7 244.43 
M 344.36 236.25 342.45 237.12 341.6 237.67 340.16 239.09 339 240.84 
M 339.03 234.06 337.11 235.05 336.1 236.03 335.3 237.25 
M 339.7 246.11 336.13 245.75 334.37 245.78 330.91 246.35 327.52 247.5 
M 331.96 242.1 328.5 241.89 326.25 242.26 324.05 243.01 
M 323.56 247.96 320.16 246.38 318.41 245.78 314.8 245.1 311.05 244.98 
M 373.13 145.33 375.76 144.7 381.74 141.07 383.46 140.35 384.96 139.29 390.89 136.48 392.87 135.22 395.02 134.21 396.64 132.99 398.53 132.1 401.37 130.3 403.41 129.93 405.28 128.28 407.9 126.42 409.75 124.05 411.55 122.41 413.87 122.1 416.2 122.46 417.15 121.37 418.08 119.79 420.67 117.83 426.7 114.53 427.56 113.11 429.27 111.84 429.3 119.31 429.71 124.02 429.39 125.85 428.69 127.41 428.52 129.5 428.8 132.12 428.42 134.57 427.8 136.77 426.84 138.63 426.72 140.94 426 145.01 425.09 146.61 424.99 149.15 424.37 151.27 424.06 153.37 425.21 158.43 425.43 160.7 424.71 162.09 423.82 165.94 422.29 170.04 422.03 171.9 422.53 176.12 
M 424.62 185.11 426.59 193.51 426.5 195.71 426.19 197.66 425.21 198.84 425.67 200.82 428.69 206.9 428.72 209.27 428.07 211.03 427.21 212.58 427.01 213.75 431.35 226.01 428.54 223.87 425.96 222.77 424.5 222.39 420.42 219.17 417.95 217.9 415.6 215.61 413.01 214 411.06 212.33 408.93 211.21 407.3 210.01 405.96 208.78 404.38 207.85 400.39 206.78 399.17 205.27 397.98 203.34 395.7 202.39 393.49 200.34 390.97 198.51 388.38 196.9 
M 373.13 147.37 375.78 146.9 377.92 145.95 383.61 142.84 385.54 142.04 387.19 140.97 391.56 139.3 393.83 137.31 395.7 135.97 398.98 134.82 400.77 134.53 403.1 133.51 405.02 132.56 409.78 129.69 411.9 128.6 413.62 127.27 415.17 126.58 417.17 126.1 419.97 126.08 421.59 123.82 423.47 121.83 426.13 121.47 
M 375.83 149.11 377.95 148.44 383.89 145.29 388.1 143.89 390.34 142.55 392.65 142.08 396.32 139.26 399.54 138.36 401.36 137.45 403.71 136.68 405.77 136.63 407.84 135.24 410.48 133.12 413.13 132.49 414.96 131.69 415.99 130.41 417.15 130.23 419.26 129.28 422.18 128.54 
M 380.48 150.32 384.1 148.51 386.18 147.8 390.84 145.7 392.93 144.07 395.1 143.98 397.21 143.1 403.56 142.05 405.01 141.3 407.27 139.77 409.52 138.75 410.64 137.59 412.88 136.74 417.52 135.7 
M 380.6 153.16 384.4 152.19 388.34 150.28 391.37 149.34 393.7 148.12 395.29 147.87 397.49 146.6 399.65 145.85 406.6 145.28 
M 373.13 155.5 375.75 155.58 378.07 155.27 382.85 154.97 387.05 154.25 390.96 153.14 393.5 152.16 395.45 151.81 397.68 150.79 403.01 149.59 405.57 149.44 407.56 148.85 409.2 148.73 411.48 147.97 415.47 144.49 417.48 143.81 
M 373.13 157.54 375.78 157.94 380.94 157.41 385.16 156.72 387.16 156.13 389.34 155.69 393.76 155.48 398.1 154.51 400.44 154.25 402.31 153.25 
M 380.79 159.68 384.79 158.37 387.1 158.57 392.25 158.05 396.3 157.21 398.66 157.41 401.15 157.09 
M 378.71 162.42 380.98 162.1 383.41 161.99 387.36 160.72 389.75 160.76 392.46 161.14 396.28 160.2 401.1 160.27 406.69 159.78 408.07 160.79 
M 376.34 164.53 378.96 164.73 383.71 164.67 388.27 163.67 392.92 164.38 393.9 165.09 398.95 164.6 404.33 164.67 406.74 164.02 
M 376.39 166.74 378.94 167.09 381.42 167.04 383.96 167.4 388.62 167.07 390.64 167.19 392.1 168.37 393.83 168.22 395.68 168.7 399 168.11 405.02 168.44 407.02 168.4 
M 376.14 168.94 383 170.16 385.41 170.25 387.82 170.09 390.32 170.4 392.49 171.28 397.02 171.67 398.84 171.13 401.47 170.94 404.4 171.16 406.63 171.95 408.17 172.99 410.78 172.71 412.89 173.01 
M 411.61 189.89 414.37 191.12 
M 400.99 193.52 401.88 194.31 
M 397.53 194.91 399.66 195.92 400.78 197.2 401.48 198.46 403.88 199.24 405.8 201.42 408.8 202.86 411.98 203.76 
M 392.66 196.21 393.9 197.07 397.06 198.82 398.5 200.09 399.83 201.89 401.22 203.15 405.49 205.3 409.63 206.79 412.18 206.85 413.21 208.16 414.92 208.57 417.21 209.64 420.72 212.86 
M 365.65 191.61 363.64 193.68 363.07 195 362.64 197.65 361.72 198.76 358.87 199.2 357.61 199.87 356.65 200.95 355.54 201.88 354.51 204.53 354.13 206 354.31 206.23 
M 135.72 138.6 136.94 137.88 138.9 137.18 144.87 135.37 163.22 131.52 200.61 124.98 210.45 123.06 216.26 122.35 219.11 126.87 220.45 131.52 223.71 140.77 225.07 145.42 225.93 150.1 227.14 159.5 226.94 164.26 227.04 168.99 226.92 173.74 225.94 183.3 226.16 188.02 226.02 197.52 225.57 202.29 224.56 207.1 222.58 211.94 210.55 211.21 201.67 209.8 194.09 207.27 186.98 204.34 180.1 200.67 173.8 196.39 168.04 192.21 162.73 187.84 158.02 183.02 153.91 177.7 
M 203.47 143.54 203.74 147.57 202.28 155.1 201.27 158.49 199.09 164.67 199.03 167.61 199.22 170.56 201.01 177.2 201.89 181.12 202.08 185.52 194.14 185.86 188.27 185.84 182.93 184.94 177.49 183.51 171.88 181.19 166.57 177.98 161.64 174.47 
M 152.13 175.99 148.89 170.2 144.95 162.15 138.88 151.08 133.93 141.35 134.21 139.48 135.71 138.6 137.37 139.22 138.2 140.83 142.5 150.89 146.32 158.97 150.81 170.75 153.94 177.69 
M 153.39 178.15 144.78 171.59 135.25 163.51 128.11 158.12 126.94 156.83 127.1 154.96 128.66 153.85 130.41 154.26 139.4 163.16 146.85 170.87 153.85 177.57 
M 165.63 148.24 164.51 144 164.83 139.63 166.55 135.6 169.48 132.35 173.32 130.22 177.63 129.46 181.96 130.14 185.83 132.18 188.83 135.38 190.63 139.37 191.04 143.74 190.01 147.99 187.65 151.69 184.21 154.41 180.08 155.87 175.7 155.92 171.54 154.54 168.06 151.88 165.63 148.24 
M 165.47 147.86 164.93 146.3 164.59 144.69 164.46 143.04 164.52 141.4 164.8 139.77 165.27 138.19 165.93 136.68 166.77 135.26 167.79 133.96 168.95 132.79 170.25 131.78 171.67 130.93 173.18 130.27 174.76 129.8 176.39 129.53 178.04 129.46 179.68 129.6 181.3 129.94 182.86 130.47 
M 166.8 147.31 166.32 145.92 165.9 143.01 166.23 140.01 
M 169.27 134.51 171.07 132.97 172.33 132.22 175.09 131.21 178.01 130.9 179.47 131.03 182.3 131.81 
M 168.14 146.76 167.72 145.53 167.34 142.98 167.63 140.34 
M 170.42 135.4 171.88 134.16 172.99 133.5 175.41 132.62 177.98 132.35 180.53 132.72 181.75 133.14 
M 169.47 146.2 169.11 145.15 168.79 142.95 169.04 140.68 
M 171.42 136.45 172.7 135.36 173.66 134.79 175.74 134.02 176.84 133.84 179.06 133.89 181.2 134.48 
M 170.81 145.65 170.5 144.77 170.23 142.92 170.43 141.05 
M 172.36 137.54 174.32 136.07 176.07 135.43 177.92 135.24 178.85 135.32 180.65 135.81 
M 172.91 144.96 172.46 143.26 172.57 141.84 
M 173.91 139.2 174.45 138.6 175.98 137.75 177.71 137.44 179.44 137.72 180.99 138.53 182.19 139.81 182.91 141.41 183.07 143.16 182.66 144.86 181.72 146.34 180.34 147.43 178.69 148.01 176.94 148.03 175.28 147.48 173.88 146.41 172.91 144.96 
M 174.65 138.49 174.18 139.42 
M 172.92 141.95 172.5 142.79 
M 176.11 137.73 174.96 140.03 
M 173.86 142.23 172.77 144.42 
M 177.3 137.52 175.75 140.62 
M 174.81 142.51 173.29 145.53 
M 178.37 137.55 176.55 141.18 
M 176.03 142.23 173.92 146.44 
M 179.37 137.7 174.71 147.04 
M 180.24 138.14 175.53 147.56 
M 181.08 138.63 176.46 147.87 
M 181.79 139.38 177.47 148.02 
M 182.41 140.3 178.56 148.01 
M 182.92 141.46 179.84 147.6 
M 183 143.46 181.46 146.54 
M 156.08 180.54 159.78 184.24 
M 150.96 171.08 152.24 172.37 
M 148.25 164.05 148.52 164.31 
M 135.76 138.55 135.87 138.66 
M 138.77 137.23 142 140.46 
M 142.09 136.21 145.89 140.01 
M 145.46 135.25 148.86 138.64 
M 149.05 134.5 151.69 137.14 
M 152.69 133.81 154.99 136.11 
M 156.23 133.02 158.55 135.34 
M 159.8 132.24 163.66 136.11 
M 163.38 131.49 166.39 134.5 
M 167.1 130.88 169.05 132.83 
M 170.8 130.25 171.68 131.13 
M 174.49 129.6 174.84 129.95 
M 178.15 128.93 178.88 129.65 
M 181.8 128.24 184.5 130.94 
M 185.47 127.58 189.54 131.65 
M 189.15 126.92 191.97 129.74 
M 192.85 126.29 196.72 130.16 
M 196.56 125.66 200.34 129.44 
M 200.27 125.04 204.22 128.99 
M 203.87 124.3 207.81 128.24 
M 207.49 123.59 209.86 125.96 
M 211.2 122.96 215.29 127.06 
M 215.05 122.48 217.18 124.61 
M 157.61 135.99 156.65 134.7 154.75 133.35 
M 209.39 210.55 209.46 211.04 
M 217.66 202.06 216.75 201.58 216.22 201.07 215.94 198.9 
M 198.56 154.97 199.06 155.56 199.25 156.07 199.1 157.24 198.67 157.83 
M 185.82 185.85 186.7 184.64 186.95 183.97 187.24 182.14 186.49 178.38 185.56 176.89 
M 223.43 208.23 223.7 209.21 
M 174.59 130 173.81 129.72 
M 185.1 186.71 186.45 185.67 186.87 185.03 187.17 184.35 187.53 182.45 187.47 181.74 186.99 180.38 186.59 178.58 185.96 177.46 
M 182.18 160.11 181.61 161.47 180.61 162.88 180.67 163.34 
M 217.51 148.23 217.89 148.01 218.5 148.05 220.16 148.64 221.27 149.35 222.78 150.78 224.27 151.67 
M 215.82 192.8 214.59 192.43 213.93 192.41 211.82 192.95 210.55 192.91 209.77 192.77 209.11 192.3 
M 224.68 199.84 224.2 200.72 223.55 201.36 223.17 201.41 222.76 201.18 221.79 199.93 221.08 198.5 221 197.6 221.27 196.48 
M 225.74 169.9 227 170.61 
M 187.16 177.15 186.64 176.75 186.19 175.69 185.79 175.2 185.19 175 184.06 175.39 183.33 175.29 
M 173.47 189.1 174.08 188.87 174.72 189.11 175.13 189.79 175.08 190.4 
M 212.94 128.61 212.12 128.02 210.64 126.17 210.3 125.51 209.61 123.21 
M 165.9 182.8 166.31 182.51 168.09 181.96 169.07 180.72 169.68 176.86 169.6 176.17 169.34 175.74 
M 175.44 129.85 174.64 129.58 
M 188.12 127.99 186.96 128.18 186.55 127.97 186.14 127.46 
M 190.63 160.9 191.53 161.01 193.14 161.8 194.08 161.69 194.53 161.12 
M 212.87 165.55 214.27 166.96 214.78 168.35 
M 207.08 166.62 206.32 166.76 205.11 167.45 204.65 167.81 204.57 168.23 
M 219.26 181.84 218.99 180.13 218.3 178.94 
M 203.35 138.39 201.88 137.75 201.75 137.36 
M 146.69 151.71 144.01 152.52 143.28 152.56 
M 167.21 164.68 166.89 164.1 166.59 161.79 166.74 160.9 166.48 160.21 
M 179.05 194 175.38 196.1 174.01 196.53 
M 172.3 195.3 172.38 194.58 
M 225.68 183.09 225.28 183.24 221.7 188.54 
M 190.54 150.38 189.7 151.06 188.88 151.43 187.79 151.45 
M 193.55 200.7 191.93 200.88 190.22 201.31 189.58 201.23 189.14 200.99 188.45 199.78 187.1 198.32 
M 191.7 183.73 190.74 184 190.41 183.91 189.56 181.88 
M 189.6 205.42 189.5 204.95 189.07 204.31 
M 211.1 132.57 210.48 132.22 209.76 131.52 207.11 128.05 206.16 126.47 205.74 124.82 
M 192.06 170.28 191.76 168.83 192.36 167.19 193.11 163.83 193.67 162.61 
M 175.67 189.48 175.73 190.69 175.44 192.16 175.11 192.62 174.58 192.55 
M 216.86 186.17 217.51 187.09 217.69 187.64 217.47 188 216.83 188 
M 218.78 137.15 221.4 137.4 221.86 137.39 222.37 137.15 
M 168.3 166.6 167.07 166.36 166.33 165.77 
M 212.61 144.78 211.1 143.63 207.98 142.17 206.93 142.47 
M 164.86 152.91 165.63 154.66 165.83 155.79 165.26 156.95 164.41 157.71 
M 212.71 148.79 210.5 146.82 209.34 144.75 208.93 144.34 207.53 143.86 207.12 143.93 206.42 144.38 
M 189.75 201.21 189.23 201.01 188.16 199.4 187.25 198.43 186.46 197.91 
M 216.75 188.1 216.47 188.05 
M 165.46 173.58 164.42 175.17 163.97 177.26 
M 202.29 168.91 203.04 169.39 203.14 169.97 202.59 170.61 201.83 171.18 
M 170.11 188.25 171.22 187.67 171.96 187.51 173.86 188.47 
M 173.41 158.64 172.91 158.09 171.72 157.27 170.24 156.71 168.63 156.4 166.93 156.38 166.48 156.51 
M 210.55 131.02 209.94 129.81 207.78 126.61 207.59 125.86 207.79 123.54 
M 200.64 209.45 201.55 207.74 
M 183.29 201.44 184.37 201.17 185.53 201.36 186.85 201.29 187.09 201.1 187.37 200.45 187.39 199.78 187.12 199.06 
M 192.5 185.59 191.92 186.07 190.43 186.61 190.13 186.55 190.08 186.27 
M 185.44 180.01 185.62 178.83 185.53 178.19 184.97 176.88 184.73 175.9 184.06 175.51 
M 179.37 180.4 178.98 181.55 178.12 182.4 175.28 183.33 174.66 183.4 
M 161.57 168.79 162.22 171.46 161.25 173.74 160.36 174.71 
M 147.14 145.47 143.86 147.46 142.32 148.05 141.26 148 
M 160.46 178.02 160.43 176.48 160.16 175.97 
M 195.12 169.81 194.09 167.84 194.36 166.97 195.13 166.14 
M 157.97 147.67 158.07 147.78 
M 192.96 197.91 190.66 197.07 188.44 196.8 186.17 196.11 
M 214.01 130.27 211.75 128.28 210.38 126.58 209.85 125.37 209.33 123.26 
M 199.85 178.55 200.54 179.05 203.24 180.4 203.31 180.63 203.07 181.11 201.97 182.13 
M 149.88 179.11 148.79 181.1 147.29 182.93 145.44 184.43 143.31 185.49 141.01 186.07 138.66 186.16 136.38 185.78 130.17 183.67 128.13 183.16 121.72 182.24 115.36 180.72 111.16 179.93 102.56 179.43 98.28 179.7 96.15 180.05 91.99 181.07 90.01 181.91 88.14 182.96 86.37 184.2 83.18 187.1 81.74 188.72 79.18 192.21 81.69 188.68 83.09 187.02 86.22 184.01 87.97 182.71 89.84 181.58 91.83 180.67 96.05 179.5 98.19 179.09 102.55 178.69 111.27 178.95 115.6 179.63 121.93 180.96 128.42 181.7 130.59 182.18 136.75 184.08 138.75 184.37 140.73 184.24 142.62 183.7 144.35 182.78 145.83 181.5 147.03 179.95 147.96 178.1 
M 149.78 178.96 149.74 179.04 
M 146.93 183.22 145.75 184.46 143.85 185.86 141.69 186.83 139.39 187.33 137.05 187.35 134.75 186.93 132.59 186.09 130.63 184.89 128.88 183.35 
M 127.41 181.55 126.28 179.71 124.41 175.68 123.77 173.54 123.14 169.16 123.2 164.75 123.56 162.56 124.16 160.43 125.02 158.38 126.15 156.47 127.54 154.75 129.13 153.23 130.84 151.86 134.54 149.55 136.52 148.63 138.6 147.95 140.74 147.53 149.4 147.03 142.91 147.44 140.77 147.71 138.67 148.19 136.64 148.92 134.72 149.88 131.14 152.26 129.5 153.64 128 155.17 126.71 156.85 125.69 158.7 124.93 160.68 124.4 162.73 124.12 164.83 124.19 169.08 124.91 173.25 125.57 175.25 127.45 179.03 128.6 180.78 129.65 181.97 
M 145.51 181.78 146.91 179.82 147.86 177.95 
M 150.01 178.4 149.63 180.59 149.02 182.78 147.14 186.89 145.94 188.81 144.48 190.6 142.73 192.1 140.84 193.35 138.81 194.37 136.66 195.13 134.4 195.54 132.1 195.51 123.63 193.56 121.56 193.45 119.51 193.71 117.59 194.42 115.89 195.58 114.43 197.06 113.28 198.8 112.48 200.74 111.99 202.8 110.99 211.4 109.5 217.75 108.06 221.85 107.13 223.81 104.95 227.56 107.07 223.78 107.94 221.8 109.26 217.68 110.56 211.33 111.32 202.69 111.77 200.52 112.56 198.43 113.74 196.52 115.28 194.87 117.13 193.54 119.25 192.69 121.5 192.34 123.75 192.39 125.96 192.74 130.17 193.77 132.22 194.09 134.26 194.06 136.25 193.64 138.16 192.9 139.98 191.91 141.67 190.73 143.18 189.36 144.41 187.75 145.46 185.97 146.49 183.68 
M 134.63 163.05 140.77 170.23 144.86 174.48 149.06 178.51 153.5 182.26 158.19 185.71 168.04 192.21 
M 219.2 127.19 221.56 129.55 
M 218.28 120.49 225.76 127.97 
M 221.3 117.73 226.67 123.1 
M 224.3 114.95 229.09 119.74 
M 227.29 112.16 232.47 117.34 
M 230.35 109.44 234.99 114.09 
M 233.49 106.81 240.62 113.94 
M 236.7 104.23 243.94 111.47 
M 239.97 101.73 246.35 108.1 
M 243.33 99.31 251.94 107.92 
M 246.76 96.96 254.19 104.39 
M 250.14 94.56 256.95 101.36 
M 253.5 92.14 261.3 99.93 
M 257.15 90 263.97 96.83 
M 260.9 87.98 265.73 92.81 
M 264.98 86.28 271.77 93.06 
M 269.26 84.78 274.84 90.35 
M 273.86 83.6 281.78 91.52 
M 279.29 83.25 283.97 87.93 
M 284.93 83.11 291.28 89.46 
M 290.39 82.79 295.09 87.49 
M 297.79 84.41 306.02 92.64 
M 313.49 94.33 320.46 101.3 
M 341.62 116.69 347.76 122.83 
M 263.43 85 264.29 86.72 
M 263.86 79.37 267.02 85.69 
M 263.97 73.08 269.75 84.66 
M 265.05 68.74 272.76 84.16 
M 266.12 64.39 275.83 83.81 
M 267.2 60.04 278.91 83.45 
M 268.28 55.7 282.02 83.17 
M 269.36 51.35 285.21 83.06 
M 270.44 47.01 286.91 79.96 
M 271.51 42.66 287.34 74.32 
M 272.59 38.31 287.78 68.68 
M 277.94 42.52 288.6 63.84 
M 282.49 45.12 288.63 57.39 
M 311.23 89.58 313.65 94.42 
M 310.96 82.55 312.03 84.69 
M 313.02 86.67 318.81 98.25 
"/></svg>