<svg xmlns="http://www.w3.org/2000/svg" width="520" height="320"><rect x="0" y="0" width="520" height="320" fill="floralwhite"/><rect x="10" y="10" width="500" height="300" stroke="black" stroke-width="1" fill="none"/><path stroke="black" stroke-width="1" fill="none" stroke-linecap="round" stroke-linejoin="round" d="
M 115.84 127.07 127.2 125.21 149.87 123.25 172.54 120.4 183.87 119.36 195.21 118.82 217.87 118.48 240.54 118.71 251.87 118.45 263.21 118.48 274.54 119.12 285.87 120.01 308.54 122.13 319.87 123.78 365.21 131.61 376.54 134.5 387.87 138.66 399.21 148.44 
M 399.21 191.73 387.87 200.23 376.54 203.56 365.21 205.91 342.54 209.05 331.21 210.87 319.87 212.98 308.54 214.76 297.21 215.69 285.87 216.19 263.21 216.71 240.54 216.55 229.21 217.06 217.87 217.85 206.54 218.44 195.21 218.53 183.87 217.88 172.54 216.45 161.2 214.42 138.54 209.45 127.2 207.23 115.87 205.8 104.57 205.06 
M 395.89 160.33 386.15 156.68 382.81 155.91 376.04 154.79 354.84 152.16 333.67 148.4 326.09 147.48 314.74 146.51 307.48 146.23 301.95 146.28 
M 298.2 146.38 290.79 146.53 
M 287.25 146.46 282.11 146.19 268.73 144.96 255.34 144.69 249.06 144.86 245.91 145.11 231.06 146.69 
M 142.69 147.89 139.14 147.8 
M 125.88 147.4 121.41 147.57 
M 113.64 186.46 114.67 187.9 
M 118.04 184.07 120.51 187.84 
M 122.89 191.61 125.22 195.25 
M 117.43 174.54 128.24 191.68 
M 122.27 173.46 124.09 176.49 
M 126.35 180.26 132.44 189.94 135.11 193.65 139.3 198.82 
M 129.92 177.7 134.16 184.22 
M 142.47 195.59 145.39 199.02 
M 121.62 153.53 124.56 158.83 
M 137.6 181.01 139.91 184.38 
M 142.65 188.34 146.9 194.08 151.5 199.25 
M 120.18 141.55 125.48 150.87 128.59 156.84 
M 151.3 192.49 154.42 196.13 
M 116.03 127.03 120.27 132.64 122.44 136.01 126.64 143.29 132.84 155.03 
M 154.71 189.59 157.31 192.78 
M 163.87 199.8 167 202.99 
M 169.84 206 172.43 208.81 
M 121.27 126.18 123.69 129.43 125.82 132.68 133.06 145.41 
M 135.1 149.17 137.78 154.03 
M 126.2 125.37 129.06 129.41 131.15 132.75 142.7 152.4 
M 171.05 194.05 181.42 206.48 
M 183.92 209.24 186.5 211.76 
M 131.16 124.84 134.29 129.35 147.73 150.49 
M 177.86 194.39 179.81 196.88 
M 182.43 200.33 184.93 203.55 
M 187.44 206.57 190.03 209.37 
M 136.13 124.39 149.27 143.02 152.44 147.98 
M 141.21 123.95 152.85 139.19 156.56 144.81 
M 190.53 195.01 191.74 196.71 
M 146.47 123.53 156.17 135.54 158.78 139.2 162.91 145.72 
M 200.11 200.11 202.85 203.6 
M 151.71 123.02 156.6 128.77 161.97 135.68 164.58 139.33 168.3 144.95 
M 156.77 122.39 156.97 122.6 
M 158.44 124.29 161.05 127.36 
M 163.75 130.66 167.8 135.85 173.59 143.96 
M 208.9 196.21 211.65 199.8 
M 214.31 202.96 216.86 205.65 
M 161.76 121.76 165.62 126.13 171.03 132.67 178.85 142.98 
M 212.77 193.47 214.62 195.94 
M 222.33 204.58 224.75 206.78 
M 227.13 208.77 229.52 210.59 
M 166.74 121.13 174.34 129.85 179.58 136.35 183.89 142.04 
M 220.22 195.48 225.31 201.2 
M 171.63 120.52 177.69 127.31 182.84 133.54 188.47 141.18 
M 223.21 191.78 226.98 196.39 230.83 200.39 
M 176.53 120.04 181.02 124.95 186.06 131.05 188.52 134.28 192.79 140.38 
M 227.24 189.52 229.86 192.77 233.86 197.1 
M 236.54 199.69 239.19 202.07 
M 181.3 119.59 184.35 122.79 189.35 128.78 197.22 139.55 
M 231.38 187.35 232.72 189.11 236.81 193.78 
M 251.48 207.52 253.44 209.31 
M 186.01 119.25 187.7 120.9 192.74 126.64 202.01 138.65 
M 231.95 180.27 236.92 187.1 
M 242.36 193.31 251.02 201.78 254.11 205.06 
M 256.04 207.14 257.93 209.07 
M 190.84 119.03 193.63 121.79 198.62 127.34 206.67 137.05 
M 233.74 174.68 235.78 177.88 239.69 183.33 
M 242.37 186.78 245.01 189.9 
M 247.58 192.7 250.08 195.28 
M 252.44 197.76 256.65 202.54 
M 195.79 118.81 199.54 122.41 204.46 127.51 212.57 136.68 
M 235.01 168.27 238.34 173.65 240.9 177.41 244.94 182.89 
M 247.55 186.22 250.12 189.27 
M 255.04 194.81 257.23 197.42 
M 263.25 204.8 265.37 207.03 
M 201.18 118.69 205.37 122.51 210.17 127.23 217.95 135.68 
M 233.1 156.51 240.71 169.18 247.35 178.68 
M 250.09 182.29 252.77 185.67 
M 257.81 191.76 260.04 194.58 
M 264.1 199.92 266.16 202.44 
M 206.86 118.57 211.04 122.19 215.75 126.66 220.29 131.43 224.81 136.73 229.63 142.96 234.68 150.2 239.98 159.39 
M 242.09 162.97 247.02 170.48 
M 249.76 174.39 254.05 180.11 263.07 191.6 
M 265.19 194.5 267.23 197.28 
M 278.74 209.44 280.72 210.94 
M 212.77 118.52 216.58 121.61 218.93 123.73 223.51 128.37 232.72 139.24 236.47 144.24 
M 238.82 147.81 242.92 155.1 
M 244.95 158.77 248.29 164.33 252.2 170.21 
M 255.07 174.15 262.44 183.42 266.19 188.43 
M 277.13 202.8 279.58 205.3 
M 218.89 118.49 222.04 120.95 226.66 125.4 238.32 138.72 240.8 142 243.09 145.5 245.14 149.11 250.08 158.52 
M 252.28 162.36 256.05 168.2 258.97 172.14 263.61 177.85 
M 269.18 185.06 271.51 188.45 
M 273.67 191.66 278.03 197.63 
M 225.27 118.57 227.44 120.36 229.67 122.54 241.25 135.25 243.74 138.25 244.92 139.91 
M 247.19 143.35 251.25 150.74 
M 253.21 154.63 255.28 158.56 
M 257.55 162.46 260.11 166.32 
M 266.1 174 269.16 177.79 
M 271.95 181.52 276.67 188.59 
M 278.88 191.85 281.17 194.92 
M 231.22 118.63 234.71 122.11 246.5 134.85 248.93 137.91 252.33 143.13 
M 254.43 146.85 256.46 150.73 
M 260.68 158.67 263.06 162.52 
M 265.74 166.3 268.72 170.12 
M 274.65 177.85 281.84 188.75 
M 284.2 192 286.65 195.04 
M 289.14 197.87 292.83 201.8 296.42 205.32 
M 236.78 118.68 249.21 131.68 251.67 134.53 254.07 137.7 256.4 141.19 258.64 144.89 261.87 150.75 
M 264.05 154.72 267.59 160.6 276.21 172.17 278.91 176.07 283.65 183.61 287.25 188.82 
M 289.73 191.98 292.2 194.87 
M 297.08 200.21 299.47 202.69 
M 301.82 204.97 305.32 207.93 306.51 208.72 
M 242.23 118.67 251.95 128.52 254.42 131.24 256.87 134.26 260.53 139.35 
M 262.94 142.98 271.15 156.76 275.27 162.63 
M 278.1 166.48 280.83 170.36 
M 283.33 174.24 286.81 179.97 290.36 185.28 
M 292.78 188.47 297.64 194.25 
M 247.83 118.54 252.42 122.93 257.26 127.92 259.74 130.85 264.82 137.47 267.36 141.04 274.63 152.88 277.37 156.94 283 164.69 285.55 168.51 288.99 174.24 
M 291.23 177.9 295.82 184.52 
M 298.19 187.54 300.58 190.49 
M 307.82 199.16 310.2 201.72 
M 253.94 118.46 259.01 123.37 
M 261.47 126.06 265.29 130.6 270.38 137.47 277.79 149.04 287.57 162.84 
M 289.99 166.58 292.26 170.26 
M 294.46 173.83 297.77 178.83 301.21 183.45 
M 315.66 201.3 318.08 203.65 
M 320.52 205.79 322.5 207.38 
M 260.24 118.47 263.31 121.55 265.79 124.32 270.79 130.65 275.72 137.67 280.65 145.25 284.86 151.18 
M 287.76 155.11 293.07 162.66 
M 295.4 166.26 297.63 169.76 
M 299.83 173.11 302.05 176.33 
M 304.32 179.48 306.62 182.66 
M 316.32 195.59 318.79 198.46 
M 323.7 203.58 326.15 205.87 
M 266.35 118.65 271.26 124.45 277.34 132.64 
M 279.8 136.1 286.16 145.29 293.34 154.88 
M 295.99 158.62 300.72 165.78 
M 302.98 169.2 307.52 175.79 
M 309.82 179.09 315.75 187.53 319.48 192.48 
M 271.91 118.97 276.59 124.84 287.85 139.63 
M 290.57 143.24 297.68 152.58 313.16 175.72 
M 315.5 179.15 320.27 186.06 
M 322.72 189.46 327.65 195.89 
M 277.19 119.33 292.44 137.59 298.13 144.66 300.9 148.38 304.66 154.06 
M 307.03 157.86 309.43 161.64 
M 311.85 165.31 318.97 175.92 
M 321.33 179.49 323.69 183.04 
M 282.73 119.76 295.79 133.94 301.56 140.65 304.33 144.29 306.89 148.06 314.03 159.67 317.71 165.24 
M 320.12 168.9 327.19 180 
M 289.02 120.29 299.16 130.51 304.95 136.87 307.71 140.4 310.3 144.15 314 149.97 
M 316.4 153.86 328.42 172.97 
M 335.24 184.15 337.52 187.66 
M 296 120.91 305.36 130.26 308.18 133.42 313.68 140.45 318.89 148.15 328.46 163.55 331.99 169.53 
M 334.28 173.51 337.65 179.32 343.22 188.27 
M 349.97 198.01 352.27 200.96 
M 303.16 121.6 311.33 130.25 317.05 136.99 319.89 140.73 322.59 144.58 327.5 152.25 334.43 164.04 340.05 174.17 
M 344.51 181.82 351.06 192.19 
M 309.89 122.32 320.32 133.72 323.34 137.35 326.22 141.15 328.89 145 333.66 152.67 341.32 166.79 
M 343.52 170.89 350.19 182.45 
M 352.33 185.98 354.44 189.41 
M 316.75 123.32 326.59 134.06 331.11 139.7 
M 333.83 143.54 337.44 149.36 342.72 159.32 
M 346.98 167.56 349.17 171.62 
M 351.4 175.57 355.76 183.05 
M 323.79 124.47 332.92 134.46 335.95 138.25 338.64 142.14 343.22 150.05 352.65 168.26 
M 354.82 172.25 359.12 179.99 
M 361.21 183.74 363.27 187.31 
M 369.99 196.92 372.28 199.54 
M 330.95 125.73 336.01 131.25 339.11 134.98 341.94 138.84 344.46 142.79 348.92 150.77 359.28 170.72 365.62 182.49 369.85 189.48 373.33 194.07 
M 338.06 126.98 342.24 131.81 345.15 135.58 347.81 139.47 350.25 143.44 356.9 155.32 363.7 168.94 
M 367.89 176.93 370.1 180.89 
M 345.05 128.18 348.47 132.37 351.23 136.14 353.83 140.01 358.63 147.9 362.74 155.62 366.26 163.15 371.31 172.98 
M 373.56 177.03 376.99 182.85 380.25 187.88 
M 382.44 191.01 384.72 194.11 
M 352.02 129.29 356.16 134.68 
M 358.82 138.45 362.57 144.27 364.82 148.17 366.81 151.99 369.34 157.55 
M 372.81 165.02 374.88 168.94 
M 377.11 173.01 381.6 180.91 
M 383.75 184.46 388.14 191.02 
M 359.21 130.54 363.92 136.8 366.51 140.57 368.9 144.43 371 148.29 373.56 153.88 
M 375.11 157.54 377.63 163.13 380.8 169.13 
M 366.44 131.93 370.27 136.96 372.81 140.65 375.09 144.48 377.02 148.32 382.68 161.46 
M 390.97 177.23 393.02 180.85 
M 374.02 133.85 376.43 137.04 378.86 140.67 380.98 144.48 383.58 150.16 
M 386.82 157.79 389.63 163.79 394.72 173.49 
M 396.71 177.17 398.46 180.3 
M 381.85 136.45 384.56 140.61 385.55 142.49 
M 387.41 146.24 390.81 153.9 
M 392.6 157.87 394.5 161.86 
M 390.03 140.52 398.24 157.65 
M 120.67 126.28 117.4 129.96 
M 126.91 125.25 118.83 135.02 
M 132.48 124.72 119.97 140.73 
M 137.93 124.22 121.28 146.73 
M 143.49 123.77 139.32 129.19 131.94 139.89 128.06 145.23 
M 125.52 148.94 124.28 150.84 121.52 155.78 
M 149.29 123.3 147.28 125.73 142.36 132.47 128.35 152.93 
M 126.01 156.93 125.07 158.62 
M 155.6 122.53 152.95 125.65 150.57 128.79 131.92 155.48 
M 119.69 176.59 117.25 180.34 
M 114.67 184.11 113.99 185.09 
M 162.45 121.67 161.09 122.97 158.66 125.72 156.35 128.76 148.98 139.34 138.64 153.65 
M 124.89 176.45 122.73 180.26 
M 120.48 184.04 118.09 187.85 
M 170.27 120.69 167.08 123.44 164.53 126.04 162.12 128.95 155.05 139.16 148.01 148.82 
M 129.38 177.44 127.86 180.24 
M 125.76 184.07 121.29 191.62 
M 178.23 119.88 173.18 124.09 170.58 126.58 168.06 129.33 165.65 132.38 155.34 147.07 
M 133.66 179.45 133.18 180.3 
M 185.83 119.26 181.7 122.46 176.61 127.2 174.07 129.82 171.57 132.7 169.14 135.89 162.3 145.68 
M 134.38 188.08 132.1 191.76 
M 193.54 118.9 188.83 122.26 
M 186.27 124.35 183.74 126.62 
M 181.24 129.08 177.51 133.11 175.02 136.11 168.72 144.87 
M 142.39 184.47 137.92 191.9 
M 200.51 118.71 196.05 122.09 190.86 126.35 185.8 131.01 180.93 136.43 175.49 143.61 
M 206.5 118.58 191.51 131.89 186.66 137 182.52 142.29 
M 151.67 188.8 149.56 192.41 
M 147.46 195.81 145.24 199.02 
M 211.81 118.53 194.6 135.18 192.13 137.79 189.51 140.99 
M 216.77 118.49 196.56 139.67 
M 221.52 118.52 218.82 121.34 211.44 129.75 203.57 138.36 
M 161.64 202.72 159.39 205.45 
M 226.27 118.58 221.91 123.37 218.26 127.67 
M 215.74 130.63 210.18 137.13 
M 170.05 200.03 167.76 203.01 
M 230.94 118.63 221.28 129.97 
M 218.77 133 216.35 135.97 
M 178.87 196.86 176.25 200.22 
M 171.35 206.07 169.03 208.59 
M 235.54 118.67 224.27 132.41 
M 184.98 196.87 182.34 200.32 
M 240.17 118.71 237.43 121.9 231.97 128.91 
M 229.65 131.91 224.87 138.29 
M 191.89 195.08 190.82 196.72 
M 188.3 200.3 185.64 203.55 
M 245.05 118.61 242.49 121.53 238.19 127.03 231.54 136.15 228.02 141.35 
M 249.84 118.5 245.48 123.86 241.28 129.49 234.77 139.05 231.32 144.69 
M 202.85 195.17 202.22 196.3 
M 254.48 118.46 248.56 126.16 242.46 135.15 235.71 146.18 233.49 150.32 231.91 153.74 
M 208.88 194.72 205.8 200.05 
M 198.63 209.61 195.99 212.06 
M 259.21 118.47 256.07 122.35 253.84 125.44 247.69 134.77 238.75 149.75 235.49 156.19 
M 233.58 160.58 233.17 161.59 
M 264.24 118.53 261.54 121.68 257.01 127.95 252.85 134.46 241.5 153.32 239.2 157.56 233.83 169.84 
M 221.35 192.14 219.37 195.61 
M 269.47 118.83 264.78 124.35 260.24 130.82 244.14 156.9 241.87 161.05 239.92 165.28 237.27 171.78 
M 235.39 175.96 234.4 177.99 231.15 183.71 
M 224.86 195 222.71 198.57 
M 213.66 211.57 212.38 213.06 
M 274.88 119.15 272.54 121.69 268.05 127.37 263.53 134.02 255.5 146.83 
M 253.02 150.71 249.28 156.6 245.88 162.56 
M 243.88 166.71 239.53 177.55 238.58 179.57 
M 230.32 194.37 228.16 197.79 
M 225.96 201.11 221.45 207.47 
M 280.19 119.56 275.63 124.77 273.44 127.61 269.11 133.96 260.84 146.81 
M 258.28 150.73 252.08 160.45 249.93 164.29 248.02 168.34 243.77 179.1 
M 241.99 183.17 240.06 186.95 
M 235.93 193.87 233.75 197.13 
M 224.56 209.25 222.5 211.64 
M 285.34 119.97 280.97 125.1 276.6 130.96 267.75 144.8 259.81 156.7 256.23 162.44 
M 254.15 166.25 251.44 172.26 248.9 178.54 
M 247.17 182.62 245.37 186.49 
M 243.48 190.07 239.43 196.57 
M 234.88 202.62 232.49 205.52 
M 290.51 120.42 286.49 125.08 281.95 131.18 277.65 137.75 274.38 143.11 
M 272.06 146.86 269.51 150.74 
M 266.81 154.71 262.85 160.63 260.5 164.41 259.5 166.32 
M 257.64 170.19 255.93 174.15 
M 254.21 178.15 250.51 185.88 
M 248.64 189.45 246.8 192.81 
M 233.31 210.01 231.6 211.65 
M 295.87 120.9 292.38 124.83 287.51 131.11 283.01 137.89 277.6 147.08 
M 275.31 150.93 266.17 164.38 264.05 168.23 258.83 179.88 255.88 185.44 
M 250 195.29 246.11 201.19 
M 301.31 121.42 298.55 124.52 293.49 130.82 288.62 137.78 286.29 141.49 280.04 153.07 277.67 156.94 272.33 164.44 269.92 168.2 267.91 172.05 264.4 179.73 262.46 183.42 259.21 188.6 
M 251.13 200.5 249.14 203.25 
M 306.79 121.96 302.23 127.3 299.73 130.48 294.69 137.45 292.17 141.25 289.82 145.18 283.77 157.09 282.58 159 
M 280.07 162.75 276.13 168.32 273.79 172.11 267.98 183.33 264.63 188.45 
M 262.29 191.61 260 194.57 
M 257.84 197.39 255.84 200.09 
M 312.06 122.64 305.91 130.25 298.42 140.85 295.88 144.82 293.54 148.9 289.47 157.06 287.36 160.97 286.15 162.84 
M 283.63 166.59 278.57 174.14 
M 276.35 177.89 274.29 181.56 
M 269.99 188.42 267.59 191.55 
M 262.72 197.28 258.44 202.47 
M 256.49 204.91 254.54 207.23 
M 317.18 123.39 309.53 133.42 302.1 144.41 297.17 152.62 292.87 160.79 290.6 164.67 286.87 170.43 
M 281.82 178.02 279.53 181.69 
M 277.36 185.21 274.05 190.14 270.38 194.53 
M 261.01 204.8 259.02 207.04 
M 322.36 124.21 311.91 138.62 
M 309.43 142.28 302.95 152.19 297.11 162.36 
M 294.81 166.32 292.4 170.27 
M 287.34 178.07 284.87 181.79 
M 282.54 185.35 279.2 190.32 275.67 194.71 
M 270.68 200 263.7 207.02 
M 327.83 125.18 314.13 144.2 308.76 151.95 303.64 159.95 297.76 169.77 
M 295.33 173.75 290.4 181.68 
M 287.99 185.39 285.64 188.81 
M 283.35 191.98 281.04 194.91 
M 278.66 197.65 276.19 200.22 
M 273.69 202.65 271.24 204.93 
M 333.66 126.2 325.65 137.51 314.67 151.92 308.02 161.66 
M 305.55 165.45 303.12 169.21 
M 300.7 173.03 291.18 188.64 
M 339.63 127.26 336.58 131.29 331.99 137.95 329.4 141.39 320.77 152 317.88 155.78 311.22 165.31 
M 306.14 172.47 303.68 176.14 
M 294.37 191.51 290.96 196.43 288.64 199.27 285.07 203.08 
M 345.66 128.27 342.81 131.86 335.65 141.85 323.97 155.83 309.19 175.74 
M 301.99 186.78 299.75 190.61 
M 297.54 194.22 296.43 195.95 293.02 200.44 
M 351.67 129.23 349.04 132.42 338.93 145.84 327.16 159.69 318.92 170.66 314.89 175.74 
M 309.77 182.49 306.23 187.88 300.7 196.91 
M 296.17 202.89 293.84 205.42 
M 357.56 130.25 352.64 136.25 344.68 146.53 334.67 158.36 
M 331.8 161.89 324.85 170.89 318.04 179.26 
M 315.41 182.5 310.54 189.3 
M 299.28 205.15 295.76 208.59 294.55 209.54 
M 363.35 131.28 347.63 150.61 337.7 162.49 
M 334.93 166.01 332.15 169.54 
M 329.38 173.04 319.87 184.39 316.12 189.21 
M 368.85 132.54 359.43 144.13 344.82 161.5 336.6 171.9 329.73 180.23 
M 324.39 186.38 321.84 189.42 
M 319.38 192.5 316.99 195.59 
M 374.1 133.88 365.75 144.37 357.91 153.5 
M 354.9 157.02 350.52 162.25 339.62 175.97 330.14 186.9 
M 327.58 189.84 322.65 195.62 
M 320.24 198.46 317.85 201.2 
M 378.99 135.4 372.03 144.46 359.17 159.23 346.66 175.01 
M 343.99 178.28 338.55 184.51 
M 335.86 187.48 325.89 198.59 
M 383.55 137.07 378.08 144.49 374.87 148.31 364.79 159.39 361.8 163.12 353.64 174 349.67 178.95 
M 346.99 182.11 341.58 188.1 
M 336.43 193.79 333.97 196.49 
M 331.54 199.04 329.12 201.44 
M 324.26 205.8 322.08 207.56 
M 387.89 138.67 383.81 144.44 380.73 148.31 370.41 159.39 367.27 163.14 357.88 176.22 
M 355.28 179.54 352.64 182.71 
M 347.24 188.7 339.55 197.04 
M 391.14 141.47 386.32 148.2 383.1 152.04 376.15 159.37 372.87 163.1 369.93 166.96 362.03 178.48 358.15 183.34 
M 355.5 186.34 350.2 192.11 
M 347.61 194.9 345.09 197.57 
M 340.23 202.51 337.85 204.71 
M 394.33 144.23 388.7 151.97 385.44 155.82 378.72 163.17 375.66 166.94 371.46 172.96 
M 368.8 176.94 364.89 182.42 362.27 185.58 355.73 192.67 
M 353.16 195.4 350.63 198.07 
M 348.14 200.61 344.13 204.5 
M 397.54 147.01 391.17 155.87 386.35 161.63 
M 380.15 169.11 370.45 182.81 369.1 184.48 
M 366.41 187.64 356.17 198.59 
M 399.21 152.21 393.8 159.87 384.65 171.34 376.23 182.85 373.45 186.36 369.33 190.98 
M 366.73 193.84 364.22 196.56 
M 361.75 199.16 357.86 203 
M 399.21 159.93 393.59 167.8 383.32 180.93 
M 380.57 184.54 375.09 191.06 
M 369.89 196.91 367.4 199.6 
M 399.21 167.63 393.39 175.4 386.22 184.42 
M 380.8 191.01 378.19 194.06 
M 399.21 175.08 393.3 182.62 386.47 190.99 
M 383.85 194.08 381.31 197.01 
M 399.21 182.51 397.7 184.43 
M 136.95 124 138.54 124.17 
M 150.23 122.86 155.84 75.1 156.72 75.18 153.44 122.8 
M 163.46 121.2 170.12 59.13 171.01 59.21 166.67 121.14 
M 176.72 119.67 186.05 54.72 186.94 54.83 179.94 119.72 
M 190.04 118.71 204.5 42.95 205.37 43.1 193.25 118.91 
M 203.38 118.28 219.43 48.24 220.3 48.43 206.59 118.58 
M 216.73 118.11 233.3 54.29 234.17 54.5 219.92 118.5 
M 230.07 118.25 249.24 47.13 250.1 47.35 233.26 118.65 
M 243.4 118.22 261.96 48.37 262.82 48.58 246.61 118.57 
M 256.75 118.04 272.8 64.47 273.65 64.71 259.94 118.47 
M 270.1 118.45 285.26 76.38 286.1 76.66 273.26 119.05 
M 283.42 119.38 295.31 90.45 296.14 90.75 286.56 120.07 
M 295.71 120.44 297.21 121.02 
M 139.15 124.12 143.77 114.76 145.94 109.97 147.93 105.11 149.73 100.18 152.76 90.12 155.28 79.87 
M 156.39 79.98 160.15 77.48 161.9 76.12 163.51 74.63 164.96 73.01 167.4 69.35 169.45 65.33 
M 170.57 65.43 174.12 65.59 175.85 65.51 177.52 65.24 179.14 64.77 182.21 63.25 185.12 61.22 
M 186.23 61.36 190.59 59.91 192.67 59.04 194.66 58.01 196.52 56.81 199.93 53.89 203.05 50.52 
M 204.15 50.72 206.83 52.81 209.68 54.39 211.2 54.89 212.78 55.2 214.43 55.32 217.82 55.25 
M 218.92 55.48 221.32 57.69 223.92 59.41 225.33 59.98 226.82 60.36 228.39 60.57 231.65 60.67 
M 232.74 60.93 236.45 60.48 239.95 59.55 241.57 58.81 243.1 57.87 244.55 56.77 247.32 54.24 
M 248.4 54.52 250.92 55.84 252.19 56.33 253.48 56.64 254.78 56.73 257.42 56.31 260.11 55.35 
M 261.19 55.63 262.48 59.44 263.27 61.25 264.2 62.95 265.32 64.52 268.04 67.33 271.19 69.83 
M 272.27 70.13 274.05 73.3 276.19 76.07 277.47 77.23 278.88 78.24 280.42 79.11 283.74 80.59 
M 284.81 80.94 285.96 84.38 286.68 86 287.55 87.5 288.58 88.88 291.14 91.27 294.12 93.34 
M 295.17 93.73 294.37 99.81 294.14 102.84 294.09 105.86 294.26 108.87 295.21 114.86 296.68 120.82 
M 158.3 78.75 161.9 76.12 163.51 74.63 164.96 73.01 166.25 71.24 168.46 67.37 
M 158.32 84.83 161.41 82.57 162.8 81.29 165.16 78.37 167.05 75.04 
M 158.34 90.91 160.93 89.02 162.09 87.95 164.06 85.5 165.65 82.71 
M 158.36 96.99 161.38 94.6 162.97 92.63 164.25 90.39 
M 158.38 103.07 159.96 101.91 161.31 100.54 162.85 98.06 
M 172.36 65.55 175.85 65.51 177.52 65.24 179.14 64.77 180.7 64.1 183.67 62.27 
M 172.29 71.05 175.43 71.02 176.94 70.78 179.8 69.75 182.48 68.1 
M 172.22 76.56 175.02 76.53 176.36 76.31 178.9 75.4 181.28 73.94 
M 172.15 82.07 174.6 82.04 175.77 81.85 177.99 81.05 180.08 79.77 
M 172.09 87.57 175.19 87.39 177.09 86.7 178.88 85.61 
M 172.02 93.08 174.6 92.92 176.19 92.35 177.68 91.44 
M 171.95 98.58 174.02 98.46 175.29 98.01 176.48 97.27 
M 188.43 60.67 192.67 59.04 194.66 58.01 196.52 56.81 198.28 55.43 201.51 52.24 
M 188.08 66.54 191.9 65.08 195.37 63.07 196.95 61.83 199.86 58.96 
M 187.74 72.42 191.13 71.12 192.72 70.3 195.62 68.23 198.2 65.68 
M 187.39 78.29 190.36 77.16 193.06 75.6 194.28 74.63 196.55 72.4 
M 187.04 84.17 189.59 83.2 190.78 82.58 192.95 81.03 194.89 79.11 
M 186.7 90.05 189.81 88.72 191.62 87.43 193.24 85.83 
M 186.35 95.92 188.84 94.86 190.29 93.83 191.58 92.55 
M 205.48 51.8 208.23 53.69 209.68 54.39 211.2 54.89 212.78 55.2 216.11 55.32 
M 204.85 57.66 207.36 59.38 210.07 60.49 211.51 60.76 214.55 60.87 
M 204.22 63.52 206.49 65.08 207.69 65.66 210.25 66.33 212.99 66.43 
M 203.59 69.38 205.62 70.78 206.69 71.3 208.98 71.89 211.43 71.98 
M 202.96 75.25 204.75 76.48 206.68 77.26 207.71 77.46 209.87 77.54 
M 202.33 81.11 204.69 82.57 206.44 83.02 208.31 83.09 
M 201.7 86.97 203.7 88.21 205.17 88.59 206.75 88.65 
M 201.07 92.84 202.14 93.57 203.29 94.04 205.19 94.2 
M 220.1 56.62 222.58 58.63 223.92 59.41 225.33 59.98 226.82 60.36 230 60.66 
M 219.26 62.81 221.48 64.63 222.69 65.32 225.3 66.18 228.16 66.44 
M 218.41 69 220.39 70.62 221.46 71.23 223.78 72 226.33 72.23 
M 217.56 75.2 219.29 76.61 220.23 77.15 222.26 77.82 224.49 78.02 
M 216.71 81.39 219 83.06 220.74 83.64 222.65 83.81 
M 215.86 87.58 217.77 88.98 219.22 89.46 220.81 89.6 
M 215.01 93.77 216.54 94.89 217.7 95.27 218.97 95.39 
M 234.61 60.74 238.24 60.1 239.95 59.55 241.57 58.81 243.1 57.87 245.95 55.54 
M 233.64 66.52 236.91 65.95 239.91 64.78 241.29 63.94 243.85 61.84 
M 232.68 72.3 235.58 71.79 238.24 70.76 239.47 70.01 241.75 68.14 
M 231.71 78.09 234.25 77.64 235.45 77.25 237.66 76.08 239.65 74.44 
M 230.75 83.87 233.95 83.15 235.84 82.15 237.55 80.75 
M 229.78 89.65 232.45 89.05 234.03 88.22 235.45 87.05 
M 228.82 95.43 230.95 94.96 232.21 94.28 233.35 93.35 
M 249.66 55.22 252.19 56.33 253.48 56.64 254.78 56.73 256.1 56.61 258.76 55.87 
M 248.67 60.76 250.98 61.78 252.15 62.06 254.54 62.04 256.97 61.36 
M 247.67 66.31 249.76 67.23 250.82 67.48 252.98 67.46 255.18 66.85 
M 246.68 71.86 248.54 72.68 249.49 72.91 251.42 72.89 253.39 72.34 
M 245.68 77.41 247.33 78.13 249.01 78.39 249.86 78.32 251.6 77.83 
M 244.69 82.96 246.83 83.75 248.31 83.74 249.81 83.32 
M 243.69 88.5 245.51 89.18 246.75 89.17 248.01 88.81 
M 242.7 94.05 244.18 94.6 245.19 94.59 246.22 94.31 
M 261.81 57.55 263.27 61.25 264.2 62.95 265.32 64.52 266.6 65.98 269.58 68.6 
M 260.62 64.67 261.91 67.93 263.72 70.83 264.85 72.11 267.49 74.43 
M 259.43 71.78 260.55 74.61 261.27 75.92 263.11 78.24 265.39 80.25 
M 258.24 78.9 259.19 81.3 259.8 82.4 261.36 84.38 263.3 86.08 
M 257.06 86.01 258.33 88.89 259.61 90.51 261.2 91.9 
M 255.87 93.13 256.87 95.37 257.86 96.64 259.11 97.73 
M 273.14 71.74 275.06 74.75 276.19 76.07 277.47 77.23 278.88 78.24 282.06 79.87 
M 271.99 78.31 273.64 80.91 274.62 82.04 276.93 83.9 279.67 85.31 
M 270.85 84.89 272.23 87.06 273.96 88.85 274.98 89.57 277.27 90.75 
M 269.7 91.47 270.82 93.21 272.21 94.65 274.88 96.18 
M 268.56 98.04 269.4 99.37 270.46 100.46 272.48 101.62 
M 285.36 82.68 286.68 86 287.55 87.5 288.58 88.88 289.78 90.13 292.6 92.33 
M 283.7 91.26 284.72 93.8 285.38 94.96 287.1 96.97 289.26 98.66 
M 282.05 99.84 282.76 101.61 283.77 103.14 285.91 104.98 
M 121.25 159.79 124.81 158.75 127.82 157.24 130.38 156.43 132.54 155.09 137.38 154.2 140.64 152.76 143.63 152.24 146.52 151.5 149.46 149.04 154.76 147.16 158.06 146.64 161.61 145.63 163.85 145.78 218.14 135.64 230.14 146.81 231.22 148.53 231.26 150.64 231.95 153.4 231.76 155.28 232.1 157.7 233.02 160.68 233.45 163.35 233.26 165.56 233.94 171.06 233.69 176.42 232.45 178.83 231.51 181.54 230.06 183.75 227.77 188.76 226.26 190.94 223.84 191.65 221.23 192.17 218.04 192.11 215.86 193.05 213.04 193.36 210.84 194.28 208.29 194.85 205.05 194.74 200.41 195.49 165.27 193.77 163.21 191.69 159.98 190.02 157.18 189.56 154.42 189.59 150.9 188.21 148.27 186.69 145.17 185.33 142.82 183.41 139.59 182.15 138.38 181.32 131.14 178.31 127.82 176.67 124.85 174.74 118.43 171.44 
M 121.13 161.33 124.9 160.72 133.45 158.07 135.06 157.4 137.54 156.74 140.16 156.27 143.39 155.31 146.32 155.38 148.39 154.42 150.95 153.78 153.42 153.91 156.74 153.26 159.26 152.49 165.75 151.22 167.55 150.17 169.7 149.51 172.18 148.33 176.86 147.4 180.05 146.96 183.49 145.5 186.89 145.21 191.73 144.32 194.43 144.47 197.3 143.72 199.22 144.02 201.02 142.81 
M 120.57 163.17 122.19 163.13 127.94 162.36 133.94 160.86 135.8 160.54 137.76 160.45 146.99 158.91 150.05 159.34 154.7 158.4 157.82 158.34 160.81 158.37 166.5 158.92 174.43 157.71 178.68 156.13 180.62 155.08 182.99 154.4 190.09 154.01 193.5 153.53 196.93 153.58 199.08 153.35 201.54 151.88 204.44 150.67 207.03 150.22 208.37 151.03 210.42 150.95 212.67 150.21 216.42 150.53 220.03 148.67 222.23 146.95 224.82 147.01 226.16 148.03 
M 125.04 165.05 127.93 164.68 135.8 164.39 140.76 163.92 148.03 163.59 150.61 164.26 153.19 163.73 155.68 164.38 161.27 165.05 163.75 164.9 166.16 166.1 168.24 166.38 173.87 164.37 176.53 162.85 179.04 163.96 181.39 163.74 184.39 162.9 186.87 162.9 
M 119.63 166.53 124.91 167.2 127.85 167.18 131.3 168.03 136.13 168.35 141.34 168.04 147.59 169.82 150.44 170.33 153.09 170.59 155.53 170.6 157.65 170.18 160.49 170.09 164.05 171.32 170.48 172.38 175.21 171.57 180.98 171.05 183.9 171.58 187.04 173.22 189.05 173.84 
M 125.1 169.11 131.02 170.6 138.28 172.18 140.95 172.31 147.51 174.77 152.32 176.13 157.19 175.92 160.16 176.16 167.08 178.7 172.19 180.13 173.42 179.75 174.96 180.38 177.91 180.6 181.5 180.58 183.36 181.85 185.67 181.43 188.9 183.44 192.71 185.08 196.32 185.39 199.06 186.39 201.91 187.1 205.78 187.29 208.3 187.88 210.71 187.93 213.35 187.46 216.38 188.59 
M 119 169.44 122.49 170.76 125.05 171.27 127.69 172.54 133.97 174.83 135.63 175.09 140.16 177.1 143.24 178.04 146.32 179.54 150.6 181.29 154.07 181.73 156.99 183.01 162.74 184.75 165.35 185.49 168.66 185.95 171.71 186.9 176.5 189.64 179.16 190.02 181.3 191.53 
M 195.21 218.53 199.51 223.38 205.02 230.85 214.48 241.98 212.62 243.69 210.21 248.56 208.78 250.82 206.66 252.12 204.38 252.47 202.32 254.18 199.81 255.43 197.23 256.33 191.88 256.54 189.59 255.71 188.2 255.7 185.53 254.42 182.49 252.43 180 250.5 176.66 250.37 172.8 253.84 170.72 255.44 166.33 255.14 164.26 253.55 163 251.39 162.32 249.8 158.69 244.82 152.6 239.61 147.52 236.6 139.31 230.04 132.75 220.76 131.46 217.45 130.04 212.83 127.2 207.23 
M 190.77 218.27 198.19 226.96 200.95 229.58 203.28 234.65 205.3 236.69 208.37 237.94 210.85 239.88 
M 186.33 218.02 189.44 220.85 193.27 226.38 195.68 228.36 199.92 233.37 201.21 236.19 202.16 239.36 204.78 241.67 207.68 242.59 210.52 243.03 212.2 245 
M 181.9 217.63 185.25 220.54 186.89 222.47 188.39 225.34 190.69 227.77 192.74 230.25 195.11 233.62 196.76 236.33 198.31 238.19 199.83 240.53 201.76 242.76 203.82 244.8 206 247.69 
M 177.49 217.07 184.18 224.62 186.26 226.63 187.53 229.58 189.58 231.77 191.46 234.73 192.83 238 
M 173.08 216.52 175.94 219.45 177.81 221.81 179.08 224.28 180.76 226.94 182.44 228.91 183.23 231.77 188.52 239.49 190.77 241.8 191.99 243.59 193.55 246.59 193.54 249.61 195.91 253.1 
M 168.7 215.76 170.78 219.29 172.74 221.77 174.9 223.91 176.58 226.39 179.51 232.26 181.02 236.32 182.33 238.99 185.53 241.27 
M 164.32 214.98 165.99 218.63 171.16 226.89 173.9 232.07 175.64 234.84 
M 159.95 214.16 161.9 217.57 164.45 223.87 166.1 226.82 168.02 229.46 169.29 231.66 170.45 234.22 172.31 237.05 174.49 242.09 175.12 244.49 176.78 247.46 
M 155.6 213.24 157.79 216.47 158.86 219.1 160.39 221.62 162.94 228.16 164.61 231.06 165.27 233.35 167.12 235.21 167.66 238.15 168.67 240.94 170.53 242.96 171.75 245.9 174.53 250.9 
M 151.25 212.32 153.31 215.33 154.96 218.27 157.46 223.35 159.04 225.79 161.29 235.73 162.71 238.27 165.74 242.81 166.83 244.96 168.51 247.44 
M 146.91 211.36 149.43 214.58 151.09 217.41 152.17 220.48 153.64 226.9 155.2 229.63 156.33 232.49 157.18 235.66 158.57 238.13 162.44 242.88 163.96 248.12 
M 142.58 210.37 144.94 214.42 146.23 217.41 147.6 219.83 149.59 226.85 150.91 229.63 152.61 231.16 154.27 237.5 156.23 240.63 157.98 242.77 
M 138.24 209.39 142.26 217.16 144.24 222.93 146.77 228.65 148.5 230.98 
M 133.88 208.54 136.21 212.57 137.66 216.35 140.83 223.08 142.1 226.19 
M 129.52 207.68 131.64 212.45 134.21 219.34 
M 365.21 205.91 368.36 210.64 371.01 213.68 374.35 220.32 370.8 221.13 368.13 221.34 365.02 220.95 361.37 220.14 358.91 220.75 356.51 221.6 354.41 222.98 349.4 224.64 347.45 225.97 345.75 227.57 343.09 227.74 340.29 228.56 337.47 229.03 334.65 228.57 331.91 228.66 329.5 229.42 325.85 229.35 323.19 230.43 321.5 232.48 319.29 234.02 316.39 234.62 314.22 235.73 312.96 237.6 311.02 239.43 309.22 241.4 307.1 243.03 304.7 244.23 301.8 244.5 299.75 246.15 298.27 248.31 293.53 250.92 290.54 251.36 288.43 252.57 286.41 254.3 283.85 255.46 280.58 255.88 278.59 257.53 276.3 258.88 274 259.57 270.86 261.66 265.69 267.04 264.61 264.08 262.87 262.13 261.18 258.83 260.04 256.12 259.12 252.35 257.74 250.2 256.07 249.17 255.62 246.28 253.82 244.25 253.06 241.39 251.42 238.55 249.16 232.67 247.89 230.35 247.15 228.17 244.29 223.14 242.78 220.11 240.54 216.55 
M 360.81 206.55 365.74 211.47 367.26 215.09 369.34 219.11 
M 356.41 207.19 360.33 211.6 363.42 215.64 366.5 218.42 
M 352.01 207.8 355.51 211.86 
M 347.6 208.39 351.11 212.92 354.37 215.82 
M 343.19 208.97 346.74 213.93 349.6 217.53 
M 338.8 209.65 342.49 214.64 345 218.95 
M 334.41 210.36 339.71 217.66 
M 330.02 211.09 333.16 214.92 335.15 218.41 337.9 220.67 
M 325.65 211.9 329.29 214.91 331.16 217.97 336.15 224.45 
M 321.28 212.72 326.81 218.21 328.03 221.37 
M 316.9 213.44 320.31 216.62 324.14 222.13 
M 312.51 214.13 317.63 220.71 319.72 223.69 321.29 226.56 323.44 231.14 
M 308.11 214.79 312.22 221.79 314.38 225.09 316.55 227.92 
M 303.68 215.16 306.25 219.43 309.94 224.3 311.44 226.92 312.25 230.23 314.41 232.66 315.57 235.73 
M 299.25 215.52 302.11 219.27 304.66 225.49 
M 294.81 215.8 297.27 219.92 300.7 226.29 302.52 228.95 304.74 231.55 306.19 234.01 
M 290.37 215.99 293 219.99 294.82 223.32 296.2 226.62 298 229.73 300.57 232.12 
M 285.93 216.19 288.71 220.08 290.37 222.86 291.52 226.05 293.58 228.58 295.46 231.33 298.88 236.92 300.6 239.34 
M 281.49 216.3 287.73 225.85 289.06 228.39 289.79 230.47 
M 277.04 216.41 279.63 220.23 282.54 226.44 284.98 231.01 285.9 233.98 
M 272.6 216.52 275.8 223.37 277.14 226.83 279.44 228.93 280.99 230.95 281.93 233.45 282.72 236.19 284.98 238.81 286.15 240.83 287.02 243.08 
M 268.15 216.61 271.43 223.57 272.35 226.66 274 229.56 278.69 233.82 280.47 238.06 280.7 240.69 282.08 242.13 
M 263.71 216.7 265.7 220.35 268.5 226.73 271.71 231.25 273.38 233.98 274.89 236.98 
M 259.26 216.68 260.89 220.37 264 226.25 265.38 229.41 266.14 231.62 267.37 233.57 270.44 239.48 271.61 242.52 273.24 244.88 274.51 247.3 278.05 252.7 279.46 255.37 
M 254.82 216.65 256.71 220.02 258.05 223.16 261.13 228.79 261.91 231.28 262 233.46 263.27 236.17 265.15 239.75 267.55 243.23 268.52 245.36 
M 250.37 216.61 252.1 220.1 253.76 223.01 256.13 229.11 257.05 231.03 257.61 233.8 258.94 236.51 260.53 239.12 262.91 242.25 263.97 245.43 265.08 247.98 266.68 250.6 
M 245.93 216.59 248.21 219.91 251.32 225.64 252.3 228.13 253.01 230.6 252.82 233.12 254.34 235.93 257 238.75 258.78 241.36 
M 399.21 148.44 402.14 147.81 407.48 145.66 415.24 140.86 418.55 137.75 423.34 135.22 426.28 133.9 428.87 133.03 430.63 131.28 432.3 130.26 433.62 128.54 435.54 127.17 439.12 125.69 442.1 124.15 444.89 123.79 446.89 123.15 451.73 118.07 453.12 116.05 455.08 115.76 459.98 115.69 462.79 114.68 465.86 110.87 480 113.97 485.94 120.86 487.59 125.1 489 127.89 490 130.87 485.63 140.39 484.08 142.3 481.6 147.24 477.72 150.85 475.98 152.86 471.98 156.37 470.78 158.93 468.65 160.58 466.91 162.6 465.43 164.82 465.74 167.91 465.53 170.48 466.55 176.86 467.92 180.04 468.67 182.61 469.91 185.34 470.39 186.8 472.1 189.48 474.24 193.59 476.13 196.3 484.35 206.4 485.06 208.93 486.22 211.93 486.31 213.85 487.07 216.44 487.36 219.39 486.1 221.47 484.71 223.4 483.92 225.95 481.84 227.65 478.94 228.52 476.72 230.07 474.09 233.01 466.66 237.84 464.47 235.83 461 233.94 457.62 233.21 455.71 231.74 453.93 229.16 450.89 228.28 449.9 227.21 445.82 224.66 440.33 221.99 437.62 219.42 434.95 218.03 433.35 215.87 431.27 214.21 428.78 213.13 423.8 210.07 421.25 208.13 418.88 205.82 412.22 201.49 410.4 199.75 407.68 198.31 402.58 193.96 399.21 191.73 
M 402.2 150.76 407.49 149.07 410.06 147.89 412.7 146.32 416.1 144.74 418.53 143.17 419.72 141.96 421.63 140.9 423.93 140.14 426.47 138.67 429.49 137.88 431.71 136.89 433.69 135.17 435.95 134 438.01 133.32 443.56 129.99 448.03 129.17 451.08 126.37 457.56 123.97 
M 405.4 153.16 413.05 150.28 416.41 149.72 419.01 148.56 420.47 147.15 422.13 146.03 423.99 144.5 427.5 143.58 431.02 141.94 433.94 142.08 435.99 141.28 437.95 140.26 440.64 139.51 444.05 139.46 446.27 138.85 448.62 137.54 451.54 136.51 
M 408.14 155.99 413.66 154.43 419.42 153.33 421.3 152.22 426.19 149.89 428.79 149.43 435.29 147.82 437.72 146.72 444.98 145.67 447.2 145.06 449.73 145.37 453.03 145.01 455.4 142.98 458.28 141.65 462.55 140.8 464.41 139 
M 399.21 160.76 402.3 160.91 407.82 159.89 410.95 159.91 414.45 159.43 417.34 158.74 421.57 156.75 424 155.99 426.84 155.38 433.52 155.84 435.67 155.65 438.87 154.72 440.73 153.56 442.73 152.6 445.46 151.62 448.62 151.53 451.33 152.45 453.62 152.66 455.64 151.11 
M 408 163.86 411.32 164.07 415.1 164.01 420.59 163 424.2 161.19 427.23 161.12 430.73 161.73 438 160.28 443.72 158.55 447.5 158.38 450.98 159.03 454.49 159.32 457.26 158.68 461.26 157.02 464.42 155.91 467.51 155.2 470.47 155.31 473.31 156.38 
M 405.41 167.78 408.44 167.81 411.56 168.26 414.51 168.11 417.8 167.55 420.68 167.7 422.92 167.22 424.81 167.03 430.65 167.49 433.3 167.52 436.21 166.9 439.67 166.85 442.5 167.24 
M 399.21 169.99 402.57 171.16 411.6 172.35 416.45 172.35 419.2 172.55 421.81 172.44 424.51 171.64 428.27 172.16 431.9 173.32 438.61 173.46 440.18 172.31 443.62 172.12 446.9 172.85 451.21 175.14 455.19 174.51 456.98 174.51 460.19 175.95 463.02 175.26 
M 405.54 174.64 408.43 175.02 417.66 177.13 422.41 176.96 423.88 177.49 426.72 177.47 429.77 178.11 
M 402.91 177.39 408.28 178.72 411.02 179.11 414.37 180.03 417.21 181.29 420.01 181.27 423.82 182.28 426.79 182.66 429.17 184.3 432.27 185.58 441.39 186.45 443.82 186.43 446.89 187.11 450.37 187.38 455.6 188.31 457.26 189.04 
M 405.39 181.58 408.03 182.26 411.1 183.5 416.7 184.95 421.59 187.11 423.68 187.66 426.24 188.67 429.36 190.18 431.28 191.43 433.56 192.38 436.98 191.91 440.2 192.61 443.19 193.9 445.79 194.28 453 197.51 
M 408.43 186.4 411.29 187.61 414.11 188.47 416.72 189.59 419.1 190.27 423.2 192.81 425.96 193.57 428.66 194.71 431.81 195.48 434.22 196.43 437.18 197.23 439.67 197.71 442.68 198.91 444.99 199.62 447.05 201.37 
M 405.58 189.01 410.87 191.55 413.11 192.84 415.34 194.4 420.74 196.76 423.24 198.25 426.31 199.66 428.56 201.22 430.8 202.19 434.06 201.93 436.43 203.6 439.08 204.75 440.73 205.69 443.48 205.74 445.76 206.82 447.53 210.01 450.13 212.11 454.7 213.55 463.27 217.16 465.41 217.76 467.5 217.99 469.55 218.7 471.9 220.48 
M 402.63 190.31 412.76 197.15 414.72 199.16 417.05 200.59 419.98 201.87 427.5 206.73 429.55 207.68 434.13 210.95 439.05 213.41 443.69 216.29 
M 306.24 119.82 310.04 120.62 311.89 120.3 315.18 118.64 316.79 118.25 320.19 122.52 323.77 123.22 325.44 122.78 328.17 120.63 329.9 120.86 332.17 123.58 333.61 124.56 336.97 125.05 341.86 122.79 343.41 123.95 345.77 126.4 347.44 126.83 349.35 127.26 351.17 127.22 352.72 126.43 354.12 125.49 355.84 125.74 358.55 128.3 360.26 129.08 362.17 129.56 364.02 129.86 367.43 128.91 369.16 129.05 371.81 131.58 373.35 132.35 374.88 132.83 376.54 134.5 
M 46.67 167.37 47.09 166.21 48.68 163.75 53.31 158.19 56.06 155.66 69.01 147.64 73.54 144.4 78.54 141.3 84.07 138.55 95.6 133.86 105.9 130.21 115.84 127.14 118.31 131.61 118.96 135.89 119.84 140.21 120.94 144.56 121.6 148.85 121.65 153.05 121.13 161.36 119.89 165.37 119 169.43 117.86 173.46 114.66 181.38 113.93 185.46 111.76 193.53 110.21 197.49 107.99 201.36 104.57 204.96 95.73 204.32 89.2 203.39 83.47 202.16 78.22 200.68 73.32 198.77 68.83 196.65 64.82 194.46 61.21 192.02 58.08 189.34 55.57 186.49 
M 102.81 154.44 102.3 157.97 99.32 164.4 97.65 167.27 93.87 172.27 92.72 176.97 92.74 179.24 92.51 181.63 92.04 184.29 90.74 187.2 80.67 187.07 76.57 186.86 72.52 186.41 68.5 185.42 64.7 183.98 61.29 182.16 
M 53.86 185.72 49.67 179.56 45.67 174.03 44.53 172.11 43.74 170 44.42 167.99 46.39 167.21 48.31 168.3 53.99 182.96 55.59 186.48 
M 55.11 187.18 39.52 184.07 31.2 182.16 30 180.28 30.64 178.1 32.66 177.17 34.66 177.75 40.74 180.43 55.3 186.26 
M 70.38 160.14 69.72 157.64 69.91 155.06 70.93 152.68 72.66 150.76 74.92 149.5 77.47 149.05 80.03 149.45 82.32 150.66 84.09 152.55 85.15 154.91 85.39 157.48 84.78 160 83.39 162.18 81.36 163.79 78.92 164.65 76.33 164.68 73.88 163.86 71.82 162.29 70.38 160.14 
M 70.29 159.92 69.77 158.04 69.73 156.1 70.17 154.21 71.06 152.48 71.66 151.71 73.12 150.42 73.95 149.92 75.78 149.25 76.74 149.09 78.68 149.13 80.56 149.65 
M 71.93 159.24 71.47 157.04 71.81 154.92 
M 73.64 152.26 75.46 151.2 76.92 150.86 78.43 150.89 79.88 151.29 
M 74.68 158.2 74.42 157.2 74.65 155.81 
M 75.94 154.26 76.5 153.95 77.52 153.77 78.54 153.93 79.46 154.41 80.17 155.17 80.59 156.11 80.69 157.14 80.44 158.15 79.89 159.02 79.08 159.66 78.1 160.01 77.06 160.02 76.08 159.69 75.26 159.06 74.68 158.2 
M 76.26 154.08 76.11 154.39 
M 75.29 156.03 74.52 157.57 
M 77.74 153.8 77.05 155.18 
M 76.43 156.41 75.17 158.93 
M 78.91 154.12 77.91 156.12 
M 77.6 156.75 76.12 159.7 
M 79.88 154.86 78.78 157.05 
M 78.76 157.09 77.3 160.02 
M 80.59 156.1 78.75 159.78 
M 52.57 179.15 52.94 179.51 
M 49.24 170.48 50.17 171.41 
M 48.35 164.26 51.88 167.79 
M 50.71 161.27 54.44 165.01 
M 53.15 158.38 57.27 162.5 
M 55.9 155.8 61.02 160.92 
M 59.13 153.69 62.38 156.95 
M 62.47 151.7 65.22 154.45 
M 65.79 149.68 69.82 153.72 
M 69.05 147.61 72.44 151 
M 72.16 145.39 75.35 148.58 
M 75.37 143.26 79.05 146.94 
M 78.68 141.23 83.7 146.25 
M 82.24 139.46 87.12 144.34 
M 85.91 137.8 88.91 140.8 
M 89.69 136.24 94.55 141.11 
M 93.49 134.71 97.59 138.81 
M 97.34 133.23 102.39 138.28 
M 101.25 131.8 105.2 135.75 
M 105.22 130.44 109.68 134.89 
M 109.25 129.13 112.8 132.68 
M 113.36 127.91 115.96 130.5 
M 90.36 200.51 90.73 200.06 91.22 200.02 91.61 200.49 91.55 201.02 
M 113.95 142.29 107.9 139.63 106.97 138.98 104.47 136.57 
M 110.54 128.72 110.21 130.82 109.67 131.19 108.9 131.01 
M 83.18 200.41 85.1 198.88 87.14 197.81 88.25 197.71 89.42 198.43 
M 62.29 192.73 61.33 192.1 
M 90.18 193.15 90.86 191.82 91.09 191.68 91.2 191.77 
M 63.01 172.84 63.79 172.29 64.19 171.29 64.18 170.67 63.95 169.94 63.79 169.65 63.48 169.56 
M 81.01 180.17 80.26 181.16 79.84 182.04 79.84 182.7 80 182.97 80.68 183.19 83.39 183.02 
M 76.99 196.95 78.87 195.03 81.2 193.74 82.91 193.12 83.9 192.48 
M 92.44 167.31 92.58 165.89 93.09 163.97 93.5 163.52 94.26 163.58 
M 103.51 134.19 101.63 131.67 
M 113.11 160.93 115.33 160.1 115.84 160.38 116.48 161.48 
M 120.39 142.4 119.65 143.62 118.65 144.85 116.72 145.91 114.27 146.6 
M 88.17 141.41 89.6 141.13 91.36 141.29 92.33 141.62 95.62 143.26 97.64 144.75 97.81 145.88 97.38 147.16 
M 61.45 176.4 62.14 175.67 62.92 175.18 64.82 174.59 66.13 173.98 67.01 172.97 67.43 171.38 67.29 169.25 67.07 168.14 66.15 166.52 
M 87.99 178.6 88.93 179.27 89.54 180.33 89.4 181.81 88.65 183.2 
M 84.34 150.59 84.18 151.05 83.33 151.74 
M 69.91 179.14 71.05 179.12 71.68 179.27 72.21 179.66 72.91 181.27 72.88 181.7 72.59 181.91 
M 76.94 146.41 78.39 146.85 79.92 148.01 80.73 149.06 
M 77.53 164.67 78.11 165.89 
M 92.02 180.4 92.39 182 92.38 183.35 91.02 186.35 91.07 186.93 91.74 188.75 92.05 190.08 
M 51.23 164.54 50.7 164.21 50.15 164.1 48.33 164.28 
M 108.29 187.72 107.71 186.88 105.41 184.51 105.09 183.23 104.81 182.73 104.25 182.5 103.28 182.76 
M 52.21 161.44 51.49 162.21 49.78 163.39 48.69 163.73 
M 86.39 140.38 89.57 137.86 90.96 135.73 
M 116.24 168.08 116.39 167.07 117.48 164.84 117.71 164.56 118.11 164.57 
M 70.48 160.28 68.56 159.8 66.64 160.12 64.96 160 63.5 159.45 62.25 158.7 
M 66.91 170.19 66.91 169.1 66.71 168.03 66.31 167.11 65.87 166.54 64.97 166.19 64.35 166.26 63.96 166.53 63.34 167.41 
M 116.57 143.64 115.67 143.61 114.38 143.23 110.7 141.37 106.99 140.01 
M 100.25 167.61 100.5 168.08 103.99 171.27 104.47 172.01 
M 109.65 195.92 109.91 195.24 109.96 194.25 109.67 192.12 109.38 191.26 
M 102.56 158.92 101.63 159.66 100.94 160.68 100.04 164.63 99.68 165.42 99.13 166.08 
M 95.65 162.55 95.48 163.08 95.59 163.47 97.02 164.46 
M 69.77 157.83 68.76 158.19 66.92 159.22 65.59 159.53 
M 92.31 198.14 93.28 199.79 93.39 200.35 93.32 201.7 92.81 203.91 
M 53.2 180.96 54.16 180.72 57.02 179.06 61.46 175.57 63.13 174.82 65.02 174.26 
M 78.81 184.39 79.01 184.62 79.67 184.85 81.44 184.78 82.51 184.42 83.37 183.93 83.78 183.48 83.84 183.09 
M 79.79 181.77 79.54 182.9 79.85 183.54 80.17 183.67 83.27 183.3 83.64 182.98 
M 112 131.58 110.86 131.35 109.53 131.36 108.48 130.87 
M 102.04 162.92 101.61 164.25 100.28 166.83 100.17 167.54 
M 108.17 154.22 105.26 154.47 104.21 154.45 103.33 154.19 101.01 152.96 99.34 151.33 98.88 150.69 
M 105.62 131.68 104.6 130.65 
M 97.63 190.21 97.06 191.23 96.54 191.62 91.4 192.89 
M 71.45 161.74 70.04 161.23 68.15 160.86 65.31 160.65 64.37 160.47 63.69 160.15 
M 102.35 176.71 100.72 178.14 100.03 179.06 99.69 180.29 98.76 182.08 98.34 182.69 97.44 183.49 
M 102.57 191.67 103.29 189.63 103.93 186.29 103.77 185.69 103.29 184.93 103.02 183.57 
M 107.7 143.02 104.78 143.68 102.41 143.93 100.91 144.51 99.58 145.49 97.73 147.54 
M 79.19 186.23 82.58 185.41 83.98 183.9 84.07 183.54 83.96 182.84 
M 55.55 186.5 55.95 187.22 
M 52.33 183.55 52.02 184.43 52.69 184.07 
M 50.12 180.21 49.15 181.04 48.52 182.42 49.41 181.51 50.74 181.1 
M 47.88 177.07 46.04 178.46 45.03 180.41 46.3 178.93 48.59 178.05 
M 45.64 173.98 42.92 175.88 41.53 178.4 43.18 176.35 46.36 175 
M 43.94 170.53 39.81 173.3 38.03 176.38 40.06 173.76 44.42 171.81 
M 55.28 186.37 56.37 186.68 
M 51.82 184.88 52.31 184.42 52.9 184.14 52.82 184.57 53.04 185.4 
M 48.66 183.58 49.36 182.47 50.29 181.83 49.88 182.62 49.89 184.09 
M 45.52 182.26 46.42 180.53 47.68 179.53 46.93 180.67 46.75 182.77 
M 42.34 181.07 43.47 178.58 45.07 177.23 43.98 178.73 43.6 181.54 
M 39.21 179.76 40.52 176.63 42.46 174.93 41.03 176.78 40.45 180.31 
M 36.11 178.37 37.57 174.69 39.85 172.62 38.09 174.83 37.33 178.92 
M 32.91 177.25 34.63 172.74 37.24 170.32 35.14 172.89 34.2 177.62 
M 38.59 183.83 43.2 186.61 50.16 190.03 53.71 191.46 57.33 192.62 64.82 194.46 
M 118.47 132.64 119.21 133.38 
M 119.42 126.48 125.19 132.25 
M 125.53 125.48 132.76 132.7 
M 131.94 124.77 137.71 130.54 
M 138.45 124.17 148.03 133.75 
M 145.03 123.64 152.5 131.11 
M 151.55 123.04 158.91 130.4 
M 157.86 122.25 166.83 131.21 
M 164.18 121.45 174.38 131.65 
M 170.5 120.66 176.26 126.41 
M 176.95 120 182.62 125.66 
M 183.46 119.39 190.17 126.1 
M 190.24 119.05 197.85 126.67 
M 197.07 118.78 203.72 125.43 
M 204.04 118.63 210.59 125.18 
M 211.05 118.54 218.75 126.23 
M 218.11 118.48 228.07 128.44 
M 225.31 118.57 235.14 128.39 
M 232.5 118.64 238.65 124.79 
M 239.67 118.7 247.81 126.84 
M 246.65 118.57 253.59 125.51 
M 253.65 118.46 262.46 127.26 
M 260.78 118.47 268.28 125.97 
M 268.18 118.76 277.65 128.23 
M 275.75 119.21 286.41 129.88 
M 283.47 119.82 291.34 127.7 
M 291.25 120.49 300.46 129.7 
M 299.07 121.2 307.6 129.73 
M 306.96 121.97 316.44 131.46 
M 315.19 123.1 324.05 131.96 
M 323.65 124.44 329.46 130.25 
M 332.29 125.96 340.47 134.14 
M 340.93 127.49 347.8 134.37 
M 349.42 128.88 357.04 136.49 
M 357.98 130.32 365.05 137.39 
M 366.79 132.01 375.39 140.61 
M 376.33 134.44 383.38 141.49 
M 387.53 138.53 393.11 144.11 
M 104.77 204.75 104.94 205.08 
M 106.81 202.6 108.16 205.29 
M 108.69 200.13 111.37 205.5 
M 110.33 197.18 114.59 205.71 
M 111.7 193.7 115.75 201.8 
M 112.75 189.58 116.15 196.38 
M 113.88 185.62 116.55 190.95 
M 114.76 181.15 116.15 183.93 
M 143.31 207.14 145.23 210.97 
M 143.68 201.64 148.74 211.77 
M 144.04 196.14 152.23 212.53 
M 145.2 192.24 155.71 213.26 
M 144.76 185.15 159.19 214 
M 148.8 187 162.64 214.68 
M 152.91 189 166.06 215.29 
M 156.31 189.57 168.5 213.94 
M 159.62 189.96 168.99 208.7 
M 163.99 192.48 170.37 205.25 
M 167.81 193.89 170.96 200.2 
M 147.7 147.45 148.78 149.61 
M 171 194.05 171.55 195.16 
M 147.49 140.82 151.28 148.39 
M 144.16 127.92 153.92 147.45 
M 144.1 121.58 156.73 146.85 
M 145.61 118.38 159.53 146.22 
M 146.29 113.52 162.37 145.68 
M 196.39 213.72 198.78 218.5 
M 147.3 109.31 165.39 145.49 
M 196.21 207.13 201.88 218.48 
M 148.66 105.8 168.24 144.96 
M 195.97 200.43 204.98 218.45 
M 149.95 102.16 171.08 144.43 
M 197.27 196.8 208.05 218.36 
M 151.16 98.37 173.03 142.11 
M 199.71 195.46 211.08 218.2 
M 152.3 94.41 174.17 138.15 
M 202.69 195.21 214.11 218.05 
M 153.38 90.34 175.24 134.08 
M 205.58 194.76 217.15 217.89 
M 154.41 86.18 175.48 128.33 
M 208.7 194.76 220.16 217.69 
M 155.72 82.58 175.2 121.55 
M 211.44 194.03 221.32 213.79 
M 158.26 81.44 174.56 114.05 
M 214.16 193.23 221.48 207.89 
M 160.56 79.83 172.89 104.48 
M 216.94 192.58 222.99 204.68 
M 162.76 77.99 173.49 99.46 
M 219.83 192.14 223.59 199.66 
M 164.8 75.85 173.94 94.14 
M 222.8 191.86 224.04 194.34 
M 166.63 73.29 174.18 88.4 
M 168.28 70.36 174.25 82.29 
M 170.25 68.07 174.62 76.82 
M 204.04 135.67 205.24 138.05 
M 173.44 68.24 174.64 70.63 
M 204.06 129.48 208.08 137.52 
M 203.91 122.95 210.93 136.99 
M 203.5 115.91 213.77 136.46 
M 251.21 211.33 253.87 216.64 
M 202.82 108.33 216.62 135.92 
M 252.13 206.94 256.99 216.66 
M 198.8 94.06 220.88 138.22 
M 253.67 203.8 260.11 216.69 
M 196.74 83.73 226.7 143.64 
M 254.8 199.83 263.24 216.71 
M 197.03 78.08 230.43 144.88 
M 255.08 194.18 266.32 216.65 
M 198.05 73.88 229.86 137.5 
M 256.1 189.99 269.4 216.58 
M 198.95 69.47 229.97 131.5 
M 257 185.57 272.48 216.52 
M 198.9 63.15 229.92 125.18 
M 257.75 180.84 275.56 216.45 
M 199.1 57.33 229.72 118.56 
M 258.35 175.82 278.63 216.37 
M 201.18 55.25 229.41 111.72 
M 258.83 170.56 281.2 215.3 
M 203.28 53.23 227.53 101.74 
M 259.34 165.36 280.82 208.3 
M 207.83 56.1 227.31 95.07 
M 259.12 158.69 282.18 204.81 
M 211.72 57.66 227.23 88.68 
M 259.04 152.29 282.89 200.01 
M 215 57.99 226.53 81.05 
M 259.13 146.26 282.99 193.98 
M 218.1 57.97 227.24 76.26 
M 259.05 139.88 283.7 189.18 
M 222.99 61.54 226.57 68.7 
M 259.18 133.91 283.83 183.21 
M 259.86 129.04 283.71 176.75 
M 259.93 122.97 283.79 170.68 
M 257.58 112.05 283.83 164.53 
M 254.95 100.55 284.37 159.4 
M 310.61 211.89 311.79 214.25 
M 254.55 93.52 284.76 153.96 
M 309.42 203.27 314.68 213.79 
M 255.53 89.28 284.96 148.12 
M 309.61 197.43 317.56 213.34 
M 256.28 84.54 285.7 143.39 
M 309.56 191.11 320.44 212.87 
M 256.07 77.91 287.09 139.94 
M 309.36 184.47 323.29 212.34 
M 254.95 69.43 286.76 133.05 
M 309.82 179.18 326.14 211.81 
M 256.51 66.33 286.73 126.77 
M 310.58 174.48 328.98 211.28 
M 257.29 61.66 286.71 120.51 
M 310.57 168.23 331.84 210.77 
M 258.82 58.51 287.85 116.56 
M 310.12 161.1 334.72 210.31 
M 267.36 69.36 287.64 109.92 
M 310.7 156.04 337.6 209.84 
M 272.17 72.77 287.68 103.78 
M 310.97 150.36 340.48 209.38 
M 279.54 81.27 287.09 96.38 
M 311.85 145.9 341.27 204.74 
M 283.61 83.2 287.19 90.35 
M 312.74 141.44 340.57 197.11 
M 312.83 135.4 335.89 181.53 
M 311.35 126.22 332.82 169.16 
M 312.72 122.73 333.79 164.88 
M 316.07 123.22 333.97 159.01 
M 319.43 123.71 334.94 154.73 
M 322.83 124.3 335.96 150.54 
M 326.25 124.9 336.19 144.78 
M 329.66 125.5 335.62 137.43 
M 333.07 126.1 336.65 133.26 
M 369.25 198.47 372.24 204.45 
M 336.48 126.7 337.68 129.09 
M 368.69 191.12 375.06 203.86 
M 367.33 182.18 377.83 203.18 
M 362.79 166.86 380.55 202.38 
M 360.6 156.27 383.26 201.58 
M 360.01 148.86 385.97 200.79 
M 358.62 139.86 388.55 199.72 
M 358.85 134.1 390.82 198.02 
M 360.28 130.73 393.08 196.33 
M 363.7 131.34 395.34 194.63 
M 367.2 132.12 395.43 188.58 
M 370.76 133.03 392.63 176.76 
M 374.33 133.93 391.43 168.13 
M 377.99 135.03 386.34 151.73 
M 381.8 136.43 382.2 137.22 
"/></svg>