<svg xmlns="http://www.w3.org/2000/svg" width="520" height="320"><rect x="0" y="0" width="520" height="320" fill="floralwhite"/><rect x="10" y="10" width="500" height="300" stroke="black" stroke-width="1" fill="none"/><path stroke="black" stroke-width="1" fill="none" stroke-linecap="round" stroke-linejoin="round" d="
M 222.66 114.18 229.03 110.38 239.21 104.92 249.68 100.03 260.22 95.32 271.22 91.78 282.57 89.62 294.12 89.3 305.67 89.55 316.78 92.71 327.34 97.39 348.22 107.28 358.26 112.98 368.11 119.03 378.08 124.86 397.68 136.07 
M 397.68 195.62 380.69 207.46 370.99 213.74 361.05 219.63 350.72 224.79 340.25 229.68 329.35 233.52 318.24 236.67 306.81 238.32 283.71 238.59 272.28 236.91 261.33 233.22 239.76 224.93 229.46 219.71 215.51 211.04 
M 240.11 152.01 243.89 151.69 
M 256.33 151.84 263.16 152.7 270.81 152.39 274.37 151.99 280.93 150.62 286.02 149.81 
M 289.25 149.13 292.15 148.18 
M 295.03 147.24 296.53 146.83 300.03 146.65 307.39 147.26 312.26 147.2 
M 315.38 147.12 316.96 147.1 320.58 147.51 328.67 149.14 332.39 149.6 339.19 149.66 341.03 149.82 
M 344.7 150.26 353.84 151.58 358.19 152.63 367.7 155.34 372.09 156.01 380.6 156.9 394.48 158.82 397.68 158.89 
M 219.5 204.69 220.42 207.14 
M 221.65 210.41 224.28 216.48 
M 231.2 210.88 235.72 222.88 
M 243.28 105.03 242.09 108.83 
M 239.03 115.69 238.13 117.26 237.06 118.66 
M 232.35 123.83 231.15 125.11 230.13 126.57 
M 228.47 129.89 228.07 131.06 
M 228.27 175.47 229.63 179.36 
M 231.39 183.66 231.69 184.33 
M 239.68 206.83 240.9 210.47 
M 243.53 217.89 245.78 223.6 247.81 227.99 
M 242.34 128.27 240.09 130.94 
M 237.73 133.51 236.54 134.79 235.67 136.4 
M 234.33 140.01 233.16 146.28 231.66 152.54 
M 236.93 167.17 238.28 171.19 
M 251.46 209.22 252.03 211.09 
M 254.34 218.44 254.97 220.33 257.5 226.42 
M 259.1 230.28 260.06 232.73 
M 260.25 112.03 258.59 115.26 
M 257.13 118.68 256.45 120.44 254.2 127.95 252.81 131.46 250.85 134.41 249.71 135.73 
M 244.57 145.39 243.73 149.56 
M 247.4 162.66 249.02 167.03 
M 263.12 211.08 264.38 214.83 
M 265.72 218.78 268.97 229.43 
M 272.76 105.97 268.49 116.46 
M 267.14 120 264.42 127.06 
M 262.42 134.9 262.01 136.94 260.85 140.72 258.51 145.8 
M 256.83 149.61 255.94 151.72 
M 264.75 175.8 265.89 179.7 
M 274.59 211.39 276.5 217.49 
M 278.56 224.73 280.25 231.23 
M 280.96 234.22 281.72 237.17 
M 288.63 99.8 287.96 101.63 287.13 103.29 
M 283.53 109.63 280.7 114.21 278.39 119.27 
M 276.97 122.76 275.62 126.33 
M 274.39 130.04 273.82 131.94 272.52 138.07 
M 271.58 142.1 269.45 150.25 
M 288.1 217.06 289.71 222.63 291.3 229.21 291.91 235.58 
M 297.93 102.49 297.61 104.66 296.99 106.54 
M 293.67 113.15 290.98 117.88 288.97 123.27 
M 284.64 133.85 283.23 137.44 
M 281.83 141.04 281.12 142.82 280 146.72 279.4 150.89 
M 286.55 176.12 287.02 178.7 
M 297.27 214.38 299 221.38 
M 300.07 224.98 303.32 236.54 304.04 238.35 
M 308.6 104.95 307.7 109.05 
M 306.58 112.92 305.93 114.76 302.73 121.52 299.93 126.22 
M 297.96 129.27 295.19 134.05 293.62 137.54 290.73 144.79 289.62 149.08 
M 294.58 166.56 295.36 170.14 
M 295.96 173.55 296.6 176.99 
M 308.2 218.68 309.28 222.31 
M 310.52 226.04 314.9 237.15 
M 320.13 105.31 319.07 109.26 
M 317.95 113.15 316.74 116.95 
M 315.44 120.66 314.08 124.33 
M 310.39 130.76 306.81 134.82 304.56 137.69 299.62 145.2 
M 302.17 159.68 304.2 167.32 
M 305.27 171.21 306.31 175.06 
M 318.2 213.06 322.74 227.79 325.34 234.66 
M 329.94 109.33 328.61 113.01 
M 327.26 116.68 325.1 122.06 323.39 125.43 318.35 133.17 
M 316.41 136.38 310.68 145.86 
M 316.81 172.35 318.22 177.52 
M 328.97 211.71 329 211.82 
M 330.05 215.44 334.11 228.21 335.3 231.43 
M 337.18 115.79 336.51 117.63 334.87 121.05 330.36 129.32 
M 325.26 139.77 324.31 141.43 319.74 147.39 
M 321.49 153.25 323.07 157.58 
M 327.89 173.48 328.75 176.78 
M 339.87 209.54 339.94 209.73 
M 341.37 213.69 342.54 217.36 
M 343.6 220.89 345.56 226.69 
M 345.88 115.02 345.18 116.84 342.64 121.93 
M 341.1 125.52 337.03 137 
M 335.61 140.82 331.81 149.57 
M 336.33 163.62 337.56 167.58 
M 338.84 171.6 340.28 175.77 
M 350.44 207.4 354.11 218.38 
M 356.53 116.89 354.84 122.86 354.06 124.64 
M 352.34 128.08 350.52 131.45 
M 348.94 135.07 346.7 140.71 344.19 146.12 
M 342.92 148.92 342.49 149.93 
M 350.7 172.95 352.43 177.18 
M 361.18 204.92 363.61 213.36 
M 365.16 126.51 361.12 135.63 359.78 139.58 358.25 143.36 353.68 151.55 
M 363.45 175.55 364.92 178.91 
M 372.15 201.63 373.81 206.59 
M 376.3 133.16 374.12 139.02 371.92 147.61 370.45 151.56 367.79 155.36 
M 373.16 169.18 375.42 174.97 376.78 179.29 
M 346.49 125.2 346.31 124.98 346.14 123.93 345.89 123.54 
M 258.74 144.92 257.22 147.05 256.44 147.82 255 148.72 253.82 149.04 
M 291.99 132.36 294.36 135.41 294.32 135.69 293.31 136.9 
M 300.53 222.67 300.4 223.52 
M 273.87 171.83 273.61 171.31 273.53 170.6 273.84 168.84 274.31 168.24 
M 281.22 228 282.8 227.99 284.19 228.54 287.3 230.89 289.54 233.22 
M 365.01 120.29 365.49 119.42 365.67 117.53 
M 383.52 135.61 382.54 136.75 380.54 138.08 379.21 139.23 378.7 139.89 378.56 140.58 
M 230.95 174.08 231.06 172.75 232.6 168.8 234.49 167.24 236.19 165.13 
M 275.5 148.93 273.4 148.82 272.78 148.63 272.07 148.13 271.36 147.44 270.59 146.29 270.28 145.62 270.05 144.5 
M 367.6 121.19 366.89 118.28 
M 269.74 162.14 270.46 161.57 274.24 160.37 275.54 159.75 276.03 159.32 276.67 157.88 276.74 156.97 276.62 154.69 276.31 153.56 275.82 152.6 
M 250.88 99.55 250.72 100.31 250.47 100.55 
M 269.8 175.36 270.33 174.46 270.99 171.65 271.53 170.42 272.62 169.07 273.81 168.44 
M 231.75 158.23 229.88 158.21 
M 350.09 165.06 349.01 165.27 346.78 166.64 345.33 167.33 342.72 167.71 341.17 167.7 339.12 167.92 
M 321.56 213.41 320.73 213.18 319.58 213.28 316.58 214.5 
M 245.91 217.68 245.19 219.05 244.32 219.33 243.2 219.35 242.09 219.09 240.05 218.31 
M 329.65 133.05 329.03 133.86 326.56 135.6 323.29 138.3 322.01 139.1 317.84 139.75 
M 295.98 177.43 296.56 173.95 
M 230.28 142.51 230.93 143.05 231.07 143.39 230.89 144.41 230.43 145.07 
M 371.35 173.8 368.53 174.43 366.03 175.54 365.49 175.43 
M 240.67 160.56 240.24 159.24 239.39 158.26 237.99 157.2 236.12 156.26 235.09 156.12 233.93 156.2 231.44 157.01 
M 279.83 97.76 278 103.49 276.43 105.69 275.83 106.12 275.24 106.31 274.62 106.29 273.49 105.92 272.66 105.39 
M 376.11 210.42 373.92 210.71 369.8 212.12 369.12 212.8 367.81 214.88 
M 291.66 229.16 293.43 229.13 294.24 228.86 294.84 229.07 
M 364.13 138.67 365.59 139.65 367.08 140.07 370.68 140.55 373.28 140.29 
M 292.9 94 292.49 96.82 292.11 98.02 291.81 98.42 290.03 99.55 289.02 100.63 
M 346.53 221.56 347.52 221.42 349.25 220.64 350.65 219.43 351.48 218.98 
M 266.24 93.12 267.25 91.2 267.66 85.45 269.04 79.57 268.92 76.98 270.08 73.23 270.95 66.13 272.85 63.14 273.97 60.05 274.29 58.12 277.3 53.78 278.3 51.45 279.4 49.94 280.97 46.82 282.86 44.72 284.47 42.49 284.6 40.25 286.32 36.82 288.68 34.87 290.11 32.62 292.27 30 294.93 39.81 297.45 43.45 298.34 45.48 297.79 46.26 299.47 50.92 300.9 53.84 302.6 59.14 303.68 64.26 306.63 70.81 308.27 75.9 309.9 79.19 311.53 81.6 314.03 83.46 317.63 87.63 319.33 90.36 319.79 92.37 320.53 94.3 
M 316.99 92.78 316.99 92.78 
M 270.8 91.89 271.71 90.05 272.49 84.36 273.13 81.63 273.43 78.79 274.12 76.36 274.46 73.97 274.38 71.86 275.96 64.97 276.26 61.99 278.28 57.43 
M 275.38 90.79 275.73 89.14 275.91 86.23 277.11 83.06 277.6 80.6 279.76 74.11 280.44 71.51 280.6 68.65 280.53 66.1 280.31 64.59 285.01 57.6 288.25 53.71 
M 280.01 89.85 280.83 87.81 281.52 85.11 282.48 82.88 282.99 80.78 283.44 77.96 284.8 75.37 286.28 73.74 
M 284.72 89.53 286.09 87.73 286.71 85.6 287.56 83.48 288.1 80.73 289.17 77.53 289.83 74.74 291.67 69.89 293.94 67.79 295.75 64.69 297.59 62.02 
M 289.43 89.37 290.99 87.64 291.69 85.32 292.87 79.95 
M 294.15 89.3 295.59 87.03 296.12 84.7 297.04 82.59 
M 298.87 89.13 300.61 86.97 302.02 82.57 304 81.03 
M 303.58 89.18 305.41 87.35 306.38 84.99 309.7 84.31 
M 308.23 90 311.95 89.21 315.44 88.16 
M 312.76 91.31 312.77 91.32 
M 224.34 185.09 227.4 184.9 241.92 183.16 249.95 181.79 252.99 181.54 261.26 180.31 266.83 180.54 269.8 180.37 272.82 179.64 277.88 179.15 281 178.53 284.19 178.45 287.1 178.7 290.15 178.21 293.49 177.93 295.83 177.44 306.81 177.2 309.92 176.94 318.65 177.55 321.69 177.38 325.27 176.77 328.2 176.72 330.79 177.01 338.41 176.63 341.57 176.84 344.57 177.54 347.73 177.51 349.86 176.91 357.91 177.74 363.44 178.98 366.89 178.83 373.69 179.22 382.14 179.24 384.92 179.67 387.98 179.29 390.92 180.43 394.12 180.97 396.57 180.81 399.24 181.43 402.28 181.26 405.01 181.95 408.13 182.15 413.35 181.93 415.9 182.22 420.18 183.01 390.77 197.37 384.98 198.67 381.69 198.92 378.88 199.67 376.27 200.61 370.62 202.05 365.42 203.94 362.77 204.66 359.87 205.14 357.33 205.98 354.47 206.48 351.86 207.25 345.69 207.82 340.36 209.23 338.29 210.54 335.56 211.11 329.78 211.53 322.03 213.07 318.88 213.01 316 213.22 309.47 212.88 306.98 213.34 299.02 213.5 296.09 213.29 288.06 213.39 278.37 211.79 272.7 211.14 267.44 210.92 262.6 211.11 257.01 210.54 253.61 209.87 226.86 201.81 221.54 199.32 
M 224.04 187.06 230.43 186.78 236.34 186.22 244.97 186.17 250.62 185.5 256.35 185.39 259.33 184.92 264.67 184.49 270.49 185 273.51 184.37 276.16 184.56 282.2 184.38 288.15 184.98 290.79 184.88 293.66 184.49 296.32 184.69 299.08 184.58 301.6 185.12 307.62 185.28 
M 223.65 189.05 233.6 189.02 236.5 188.82 239.6 189.21 245.3 189.21 248.07 189.37 251.16 189.27 256.89 189.5 259.68 189.31 265.74 189.41 271.31 189.27 276.75 190.41 279.29 190.24 288.13 192.07 293.92 191.71 299.32 191.94 301.82 192.5 
M 223.28 190.96 236.66 191.58 239.47 192.22 251.36 193.08 262.75 194.44 268.21 194.91 271.06 195.45 273.66 195.69 279.23 196.96 282.22 197.39 284.92 198.19 286.85 199.49 289.47 200.19 293.03 200.29 296.45 200.11 300.02 200.45 302.08 200.87 306.79 202.71 312.32 204.63 314.84 205.78 317.92 206.55 320.82 206.96 324.12 206.73 
M 222.96 192.95 227.62 193.58 230.78 193.67 233.77 194.03 236.58 194.47 239.52 195.19 242.54 195.47 248.04 196.74 253.92 197.66 264.06 200.81 266.45 201.4 269.1 202.42 272.45 202.45 275.9 202.78 279.05 203.36 281.75 204.32 284.26 205.9 286.56 206.96 289.88 207.69 
M 222.64 194.87 224.87 195.38 230.98 196.11 233.75 196.76 236.16 197.58 242.42 198.92 250.33 202.38 256 204.21 261.12 206.26 263.63 206.91 266.46 208.06 
M 222.25 196.79 224.89 197.6 230.98 199.11 233.54 200.09 
M 266.24 235.01 272.43 244.67 272.53 258.8 268.85 257.27 266.36 257.08 263.49 257.34 261.17 256.72 259.83 253.92 257.94 250.59 256.67 247.87 255.59 244.82 248.66 234.44 244.49 226.9 
M 261.81 233.4 266.38 241 267.7 244.15 270.38 247.36 271.65 250.43 272.18 253.92 
M 257.39 231.72 259.67 236.29 262.21 242.33 263.72 245.35 264.84 248.5 
M 253.02 229.96 255.22 233.98 256.2 237.63 258.33 243.09 259.5 246.69 
M 248.59 228.33 250.32 232.44 252.67 238.95 
M 382.24 206.42 386.72 211.66 390.04 213.56 394.05 219.13 392.14 221.09 389.09 225.91 386.14 226.92 384.32 229.04 381.95 230.67 379.28 235.8 376.9 237.21 374.36 237.96 369 240.29 366.88 242.05 364.29 243.31 361.77 243.3 358.62 242.22 355.68 241.99 350.95 244.2 348.17 245.14 344.86 245.65 341.52 245.67 338.79 246.16 336.55 246.22 332.34 242.79 329.44 239.85 324.24 235.05 
M 378.32 209.05 381.91 213 385.16 215.85 
M 374.38 211.66 378.06 215.64 381.33 218.65 
M 370.36 214.12 374.63 217.22 377.75 219.99 380.09 222.33 385.68 225.36 
M 366.32 216.56 370.34 220.51 375.78 225.48 
M 362.24 218.93 366.37 222.89 369.19 226.03 371.73 228.35 
M 358.09 221.17 362.18 224.79 368.6 229.95 371.97 232.34 374.88 233.86 
M 353.87 223.29 358.05 226.82 360.54 228.58 363.53 231.62 366.92 233.68 369.8 236.24 
M 349.61 225.31 353.19 228.68 355.4 231.55 360.91 236.31 
M 345.34 227.32 349.52 230.45 354.1 235.37 
M 341.06 229.31 348.51 235.54 350.82 237.11 352.45 239.42 
M 336.69 231.09 340.79 234.73 346.05 240.84 
M 332.23 232.63 335.43 237.33 
M 327.72 234.01 331.25 238.75 
M 396.74 135.53 399.98 135.05 406.04 132.81 409.02 132.36 412.12 131.29 414.42 129.83 416.35 128.83 420.51 125.2 423.05 123.67 429.69 118.89 432.25 117.3 435.04 116.06 440.62 119.86 443.56 121.04 446.16 121.88 451.65 126 454.02 127.5 457.64 128.83 459.94 128.96 460.87 129.49 466.01 133.84 468.36 135.54 469.89 136.33 472.66 139.35 474.95 144.47 477.76 149.35 479.6 152 480.72 153.92 481.65 157.36 482.17 160.43 481.32 162.13 479.89 163.84 478.95 166.41 479.06 170.04 480.16 173.62 482.43 176.33 483.51 179.08 482.41 181.63 480.49 183.36 479.12 185.67 478.17 188.41 475.89 193.8 474.01 195.89 472.74 198.6 471.14 200.98 469.07 202.91 465.68 207.49 463.87 209.64 461.86 211.59 459.46 213.14 455.33 216.91 452.14 217.66 449.67 219.14 448.46 221.88 445.57 222.63 440.83 222.46 435.18 224.51 431.78 222.74 430.45 220.33 427.81 218.6 424.39 218.09 421.6 216.04 416.25 211.08 413.72 209.53 411.2 207.33 408.73 205.46 406.1 203.08 403.17 200.84 400.3 199.04 396.74 196.26 
M 405.76 135.95 409.18 135.01 412.44 134.39 414.73 133.23 420.12 129.23 422.54 128.49 
M 406.17 139.46 414.94 136.67 417.53 134.86 420.69 133.23 423.35 132.11 425.26 130.88 427.2 129.99 429.13 129.68 432.51 128.36 438.86 126.42 441.42 124.83 443.32 124.44 
M 396.74 144.64 399.77 144.35 402.59 143.61 405.84 143.12 412.53 141.16 415.32 140.17 418.14 138.2 420.73 137.31 423.24 135.8 427.47 135.26 429.76 133.99 432.67 133.42 436.28 131.46 439.4 129.05 441.8 127.84 444.36 127.44 448.74 127.57 451.74 127.09 
M 406.12 146.52 413.14 144.89 415.29 143.92 418.18 143.14 421.09 141.69 423.08 140.42 428.41 138.99 431.26 138.61 434.75 136.74 437.92 136.47 440.09 134.5 442.77 133.62 444.75 134.1 447.62 133.51 449.5 132.89 452.66 131.56 456.78 130.89 
M 400.19 150.37 409.59 149.46 412.9 148.99 415.32 148.15 421.51 147.37 425.78 145.41 428.47 144.95 438.34 140.47 440.91 140.72 443.37 139.63 446.34 138.99 450.33 139.12 
M 396.74 153.75 400.41 153.74 403.5 153.44 406.36 153.46 409.82 153.21 413.06 152.67 415.17 151.91 418.22 151.91 421.67 152.3 424.31 151.79 426.49 151.7 431.92 149.92 434.9 149.14 
M 403.69 157.17 414.81 156.36 418.15 155.54 421.7 155.45 424.66 155.17 427.12 154.74 429.64 153.94 432.47 153.51 438.11 153.51 440.83 152.81 444.28 152.54 447.12 152.11 449.49 151.4 452.8 150.16 455.18 149 457.76 149.82 460.25 149.48 462.94 148.41 467.33 147.45 
M 396.74 159.82 400.42 160.5 403.49 160.49 406.2 160.21 412.2 160.06 415.2 160.61 421.63 159.52 424.1 158.45 426.41 157.73 429.69 158.28 433.01 158.21 441.38 156.3 444.17 156.92 448.11 156.32 450.82 156.72 453.84 156.53 456.94 157.11 459.62 158.03 462.49 157.44 
M 403.14 163.84 406.49 164.17 413.12 164.23 416.24 164.58 422.02 164.13 425.33 163.67 430.39 162.48 433.45 162.55 437.04 163.55 440.86 163.48 445.26 162.87 451.35 163.19 454.4 162.31 456.83 162.95 
M 406.34 167.92 413.62 168.37 416.76 168.99 419.54 168.8 422.76 168.35 426.09 168.65 429.21 168.19 433.85 168.21 435.8 169.85 437.91 169.42 440.56 169.81 
M 403.06 170.56 412.42 172.09 416.06 172.89 421 173.25 423.97 173.65 427.12 173.65 429.99 173.21 433.34 173.72 436.27 174.59 
M 406.29 174.12 412.01 174.99 420.74 178.31 423.77 178.45 426.66 178.1 428.58 178.62 435.18 178.83 438.93 180.23 442.03 181.01 
M 400.05 176.23 403.26 177.18 414.63 179.72 417.64 180.7 420.53 182.05 426.9 182.07 429.62 183.16 432.77 183.39 435.79 184.98 439.1 186.28 442.62 186.62 446.98 186.66 
M 406.76 181.73 408.31 182.15 
M 417.87 184.14 418.97 184.38 421.84 184.58 425.27 185.98 427.71 187.5 432.64 188.89 435.55 190.38 440.25 193.56 443.69 192.4 447.63 191.7 453.94 192.64 457.16 195.19 460.45 196.17 462.04 197.51 464.91 199.01 
M 412.46 186.8 413.09 186.9 416.12 188.1 424.29 190.53 429.39 193.31 432.35 193.85 435.29 195.1 437.14 196.95 
M 407.51 189.23 415.01 192.86 419.12 195.67 421.62 196.82 425.73 196.75 429.1 197.55 432.3 198.87 434.69 200.26 436.72 202.77 440.56 203.18 444.21 204.14 446.17 204.17 447.54 205.45 
M 404.03 190.94 406.49 192.54 408.73 194.33 411.28 195.98 413.72 197.25 418.48 200.38 421.44 201.55 424.98 201.93 428 202.52 430.47 203.69 436.17 205.91 
M 406.12 196.66 408.31 198.43 411.09 200.22 414.27 201.28 417.22 202.64 419.78 204.2 423.28 205.84 425.9 206.65 432.58 210.27 436.2 211.98 439.84 214.22 
M 403.29 198.24 405.85 200.34 411.27 203.76 419.59 208.04 
M 108.34 161.88 109.42 160.01 111.68 157.27 114.69 154.4 118.76 151.81 124.61 149.15 131.05 145.98 137.06 141.91 144.46 137.97 162.5 130.99 171.58 127.94 181.5 125.15 190.91 122.26 199.26 119.32 206.87 116.97 213.66 115.44 219.29 114.55 222.66 114.18 225.61 119.5 226.55 124.69 227.75 129.9 229.19 135.13 230.15 140.32 230.45 145.47 230.41 155.71 229.34 160.75 228.65 165.82 227.69 170.87 224.78 180.89 224.25 185.97 222.45 196.08 221.04 201.1 218.92 206.06 215.51 210.86 199.99 210.15 188.6 208.8 178.47 206.85 169.15 204.61 152.04 199.35 144.66 196.42 138 193.45 131.72 190.1 125.93 186.59 
M 199.45 146.8 199.05 151.16 195.61 159.25 193.51 162.92 191.18 166.34 189.39 169.51 188.47 175.16 190.5 184.65 190.2 188.6 180.12 188.64 172.65 188.38 165.4 187.69 158.18 186.76 143.94 183.59 137.67 181.2 
M 124.38 186.19 117.19 178.74 113.66 175.36 105.81 166.78 104.89 164.62 105.8 162.36 108.04 161.69 110.15 163.03 111.53 164.97 116.46 172.86 123.28 182.46 125.97 186.55 
M 125.58 187.33 118.83 187.44 109.16 187.26 92.82 186.49 90.72 185.88 89.58 183.88 90.18 181.63 92.3 180.68 103.57 182.93 110.8 184.18 125.66 186.39 
M 155.48 157.98 153.42 155.09 152.41 151.69 152.55 148.13 153.84 144.82 156.14 142.11 159.19 140.29 162.67 139.56 166.2 140 169.39 141.56 171.91 144.08 173.47 147.27 173.91 150.8 173.18 154.27 171.36 157.33 168.65 159.62 165.33 160.92 161.78 161.06 158.38 160.05 155.48 157.98 
M 170.15 145.33 171.4 147.89 171.75 150.71 171.16 153.49 169.71 155.93 167.54 157.77 164.89 158.8 162.05 158.92 159.33 158.11 157.01 156.46 
M 159.36 152.7 158.53 151.54 158.13 150.18 158.18 148.76 158.7 147.43 159.62 146.35 160.84 145.62 162.23 145.33 163.64 145.5 164.92 146.13 165.93 147.13 166.55 148.41 166.73 149.82 166.43 151.21 165.71 152.43 164.62 153.35 163.3 153.87 161.88 153.93 160.51 153.52 159.36 152.7 
M 159.31 152.57 159.65 152.91 
M 158.28 148.99 163.17 153.87 
M 159.89 148.05 164.93 153.09 
M 162.43 148.04 166.12 151.73 
M 163.12 146.18 166.72 149.78 
M 108.91 160.89 114.38 166.37 
M 111.35 157.67 114.27 160.6 
M 114.21 154.87 117.24 157.9 
M 117.57 152.57 122.51 157.51 
M 121.31 150.65 126.5 155.83 
M 125.19 148.87 128.73 152.4 
M 128.99 147 131.98 149.99 
M 132.59 144.94 137.21 149.55 
M 135.96 142.65 138.88 145.56 
M 139.55 140.58 144.79 145.81 
M 143.25 138.61 147.53 142.89 
M 147.19 136.89 150.64 140.33 
M 151.26 135.3 155.36 139.4 
M 155.35 133.72 160.28 138.65 
M 159.45 132.16 164.66 137.37 
M 163.58 130.63 168.64 135.69 
M 167.82 129.2 171.84 133.23 
M 172.08 127.8 176.05 131.77 
M 176.5 126.56 181.68 131.74 
M 180.92 125.31 185.23 129.63 
M 185.26 124 188.86 127.59 
M 189.59 122.67 193.76 126.84 
M 193.83 121.24 198.05 125.46 
M 198.02 119.76 200.88 122.62 
M 202.3 118.39 205.33 121.41 
M 206.63 117.05 210.55 120.97 
M 211.23 115.99 214.83 119.59 
M 215.98 115.07 220.55 119.64 
M 220.93 114.37 224.73 118.16 
M 168.51 195.15 170.5 192.66 170.83 191.51 170.85 190.47 
M 199.44 170.3 198.68 170.35 196.13 170 195.35 170.09 194.39 170.52 192.81 171.76 190.63 172.49 
M 222.22 196.48 220.33 196.1 219.27 196.32 217.87 197.07 214.84 199.29 213.48 200.07 
M 177.38 186.95 176.92 186.32 175.99 185.78 172.58 184.96 170.95 184.22 167.23 181.3 
M 210.81 144.56 211.47 145.05 213.69 147.48 214.5 148.13 215.4 148.61 219.25 149.29 220.96 149.36 
M 228.46 135.79 229.17 135.09 
M 213.91 175.04 214.5 175.1 215.87 174.79 217.49 175.08 218.25 175.55 219.16 176.65 219.33 177.07 219.36 178.21 
M 195.39 188.31 193.84 188.01 190.44 187.01 189.46 187.03 187.18 187.91 186.58 187.92 
M 217.33 120.37 217.03 117.23 217.24 114.87 
M 213.51 163.17 213.2 159.22 212.96 158.52 211.65 157.06 209.75 155.72 208.73 154.48 
M 193.93 189.24 192.96 188.92 190.88 187.9 189.78 187.64 188.94 187.69 186.9 188.23 186.55 188.15 186.51 187.9 
M 149.98 138.4 151.28 138.65 153.35 139.65 154.65 140.82 155.93 142.36 
M 179.9 178.73 180.23 180.22 180.72 180.76 
M 220.15 203.17 218.89 202.82 216 201.25 214.74 201.1 
M 199.09 122.59 197.61 121.6 197.2 121.13 196.82 120.18 
M 127.56 184.55 125.25 182.93 124.31 182.06 123.16 180.52 122.88 179.7 122.88 178.39 123.01 178.01 
M 190.61 202.87 192.28 200.13 192.66 198.91 192.62 198.29 192.12 197.28 191.13 196.78 190.1 196.52 
M 219.26 123.05 219.21 120.85 219.6 119.31 220.43 118.27 222.19 117.07 222.76 116.48 223.25 115.25 
M 146.02 194.44 148.1 192.62 149.89 191.48 
M 152.37 178.82 152.29 179.48 150.89 182.6 150.91 183.19 152.01 186.49 151.99 187.6 151.8 188 
M 117.08 173.71 120.26 171.09 121.13 170.66 123.17 170.05 124.53 169.41 125.03 168.97 
M 211.27 180.23 210.09 180.34 209.31 180.1 209.1 179.84 208.92 179.06 208.36 178.54 
M 223.3 178.07 224.01 180.5 223.96 181.02 223.71 181.19 222.61 181.1 221.59 181.24 
M 197.72 180.74 195.93 180.25 194.42 179.6 192.84 178.15 190.65 177.68 189.02 177.53 
M 146.84 145.25 146.37 144.94 146.11 144.94 144.04 145.74 
M 186.3 154.13 185.76 154.89 184.29 155.48 183.46 156.29 
M 182.81 159.27 183.38 160.12 185.34 161.83 186.97 163.61 
M 177.65 188.72 178.08 187.44 177.15 186.29 175.61 185.58 172.96 184.99 
M 149.93 144.82 151.21 144.36 152.5 144.59 153.75 145.07 
M 191.57 134.71 190.89 134.68 190.37 134.98 189.06 136.74 187.89 139.06 
M 166.89 163.74 167.91 163.62 169.38 162.3 170.83 161.48 
M 172.86 170.26 173.55 168.69 173.84 166.06 174.67 163.13 175.43 161.76 176.32 161.35 
M 183.77 128.56 184.85 128.39 185.45 128.96 
M 138.97 186.65 141.47 186.3 142.05 186.1 142.57 185.66 143.36 184.18 144.05 182.23 144.26 180.51 144.2 179.75 143.94 179.32 
M 136.56 167.45 137.4 167.77 138.02 168.29 139.45 171.05 139.28 172.47 138.28 174.31 136.84 176.22 
M 195.98 188.91 194.35 188.97 193.49 188.8 190.26 187.49 189.3 187.45 187.06 188.13 186.56 188.07 
M 128.12 176.74 128.8 176.52 129.49 176.5 130.8 177.3 
M 187.58 185.58 187.89 185.92 187.94 186.27 187.23 187.33 186.63 187.81 
M 207.23 171.31 207.21 170.94 208.31 169.94 
M 203.75 170.85 201.59 170.52 199.51 170.72 197.88 170.7 
M 200.84 136.12 198.98 134.91 197.53 134.36 196.06 134.07 195.73 133.78 195.34 132.96 
M 175.48 200.62 175.53 201.09 175.37 201.44 174.4 201.96 
M 118.86 176.3 120.35 174.32 121.14 172.63 121.69 172.03 124.74 170.53 125.23 170.08 126.05 168.72 
M 226.96 167.63 228.65 165.8 
M 229.62 159.42 228.42 159.18 
M 191.31 159.18 189.88 159.44 188.89 159.99 187.75 160.9 186.69 162.38 186.66 162.74 187 163.54 
M 164.26 194.16 166.19 192.74 166.83 191.99 167.63 190.26 167.89 188.63 167.97 187.74 167.77 186.78 167.18 185.1 166.65 182.73 166.23 181.98 
M 149.81 139.44 152.22 140.24 153.09 140.72 154.34 141.63 155.49 142.89 
M 122.55 194.27 121.97 197 120.79 205.38 120.23 208.25 119.43 211.07 118.41 213.81 115.92 219.01 114.51 221.53 108.48 231.09 107.22 233.54 106.24 236.08 105.56 238.72 105.25 241.43 105.41 249.89 104.66 258.34 105.03 263.89 105.52 266.63 106.3 269.29 107.38 271.83 108.84 274.16 110.73 276.14 113.04 277.61 115.63 278.57 118.36 279.16 121.14 279.42 123.94 279.34 132.31 277.99 137.94 277.35 143.6 277.02 149.26 277.01 143.6 277.09 137.96 277.54 132.36 278.31 123.99 279.86 121.13 280 118.27 279.79 115.44 279.25 112.71 278.3 110.2 276.79 108.13 274.73 106.53 272.29 105.33 269.65 104.46 266.89 103.89 264.07 103.37 258.34 103.93 249.86 103.58 241.34 103.85 238.42 104.51 235.55 105.51 232.79 106.78 230.17 112.62 220.44 113.92 217.98 116.2 212.92 117.09 210.33 117.78 207.69 118.25 204.99 119.24 196.52 119.78 193.71 
M 122.41 194.12 122.37 194.23 
M 118.68 201.07 118.13 201.86 116.06 204.06 113.68 205.92 111.07 207.42 108.28 208.5 105.43 209.26 102.55 209.77 99.63 210.04 96.7 210.03 93.8 209.77 90.94 209.29 82.73 207.26 80.02 207.05 77.29 207.15 74.58 207.6 58.12 211.46 55.57 212.49 53.19 213.87 51.03 215.58 49.16 217.59 47.68 219.9 46.73 222.46 46.39 225.19 46.5 227.97 46.9 230.74 47.53 233.47 48.39 236.15 51.58 244.01 53.51 249.34 55.06 254.79 56.21 260.34 55 254.81 54.21 252.09 52.35 246.75 47.91 236.33 46.97 233.63 46.27 230.87 45.79 228.04 45.61 225.17 45.91 222.27 46.87 219.5 48.39 217.01 50.32 214.83 52.56 212.97 55.05 211.45 57.72 210.31 60.48 209.48 74.24 206.03 77.11 205.49 80.04 205.31 82.98 205.48 91.31 207.33 94.04 207.72 96.78 207.91 99.51 207.85 102.23 207.54 104.91 207 107.52 206.25 109.99 205.22 112.26 203.85 114.3 202.18 116.07 200.21 117.54 198 118.77 195.61 119.8 193.04 
M 112.73 203.47 110.8 204.1 107.82 204.6 104.82 204.63 101.89 204.29 90.75 202.18 82.34 201 79.5 200.47 73.97 198.94 65.89 196.36 60.48 194.91 57.74 194.41 54.99 194.16 52.26 194.32 49.58 194.93 47 195.89 44.58 197.21 42.43 198.93 40.62 201.01 39.16 203.36 38.05 205.9 37.35 208.59 37.06 211.37 37.1 214.17 37.37 216.97 38.47 222.5 39.21 225.23 41.03 230.58 42.13 233.19 44.77 238.2 42.07 233.22 40.91 230.63 38.96 225.3 37.47 219.83 36.92 217.04 36.59 214.21 36.48 211.35 36.72 208.49 37.38 205.68 38.47 203.01 39.94 200.52 41.8 198.28 44.04 196.42 46.56 194.96 49.26 193.89 52.08 193.17 55 192.94 57.9 193.13 63.54 194.2 77.16 198.09 79.87 198.71 91.05 200.14 102.21 201.99 104.92 202.25 107.58 202.16 110.17 201.67 112.63 200.8 114.85 199.49 116.74 197.75 118.29 195.7 119.48 193.27 
M 125.88 186.41 126.8 187.53 
M 122.59 184.25 122.58 184.75 122.88 184.56 
M 119.47 181.1 119.16 181.58 118.95 182.71 119.52 182.02 120.14 181.77 
M 116.52 178.1 115.73 179.08 115.33 180.66 116.09 179.52 117.32 178.88 
M 113.52 175.21 112.3 176.58 111.71 178.61 112.66 177.02 114.35 176.02 
M 110.74 172.11 108.87 174.08 108.09 176.56 109.23 174.52 111.54 173.06 
M 107.95 169.04 105.44 171.58 104.46 174.51 105.8 172.02 108.86 169.99 
M 105.38 165.77 102.02 169.08 100.84 172.46 102.38 169.52 106.03 167.01 
M 125.63 186.75 127.14 186.89 
M 121.49 185.78 122.29 185.11 122.59 185.92 
M 117.17 185.12 117.64 184.11 118.39 183.42 118.2 184.17 118.5 185.34 
M 112.91 184.52 113.5 182.78 114.49 181.73 114.07 182.84 114.32 184.7 
M 108.71 183.78 109.37 181.45 110.58 180.03 109.93 181.5 110.13 184.05 
M 104.51 183.08 105.23 180.12 106.68 178.34 105.79 180.17 105.93 183.31 
M 100.33 182.25 101.09 178.79 102.77 176.65 101.65 178.84 101.73 182.54 
M 96.16 181.42 96.95 177.46 98.87 174.96 97.51 177.51 97.54 181.69 
M 91.93 180.85 92.81 176.12 94.96 173.26 93.38 176.18 93.34 180.86 
M 99.84 186.74 109.45 190.53 115.11 192.41 120.82 193.83 126.63 194.85 132.57 195.59 144.66 196.42 
M 225 118.4 230.27 123.67 
M 226.22 112.07 236.84 122.69 
M 230.97 109.28 237.75 116.05 
M 235.87 106.63 242.39 113.14 
M 240.89 104.09 246.62 109.82 
M 246 101.65 255.07 110.72 
M 251.24 99.34 260.77 108.87 
M 256.41 96.96 266.34 106.89 
M 261.76 94.76 271.52 104.52 
M 267.36 92.81 277.34 102.79 
M 273.32 91.22 282.05 99.95 
M 279.59 89.94 286.07 96.42 
M 286.65 89.45 294.44 97.24 
M 294.05 89.3 305.1 100.35 
M 301.34 89.04 307.86 95.56 
M 310.31 90.46 316.65 96.8 
M 322.58 95.18 328.65 101.25 
M 336.9 101.95 343.43 108.48 
M 351.5 109 361.08 118.58 
M 370.49 120.44 381.7 131.65 
M 388.4 130.8 394.8 137.2 
M 223.29 211.23 225.82 216.29 
M 226.46 217.56 226.67 217.99 
M 222.5 203.04 223.34 204.73 
M 224.19 206.42 227.56 213.17 
M 228.41 214.86 229.25 216.55 
M 225.08 201.61 232.68 216.8 
M 229.36 203.55 233.58 211.99 
M 234.42 213.68 236.11 217.06 
M 232.67 203.56 233.58 205.38 
M 235.27 208.76 236.95 212.14 
M 242.86 223.95 243.79 225.81 
M 245.39 222.4 246.23 224.09 
M 247.08 225.78 248.31 228.24 
M 226.81 178.64 229.78 184.57 
M 247.92 220.85 249.6 224.22 
M 250.45 225.91 252.33 229.68 
M 228.48 175.36 232.89 184.19 
M 250.43 219.26 256.47 231.35 
M 231.83 175.46 236.03 183.87 
M 253.78 219.36 260.57 232.94 
M 235.19 175.58 239.16 183.51 
M 256.29 217.79 257.14 219.47 
M 257.98 221.16 262.2 229.6 
M 263.05 231.29 264.04 233.28 
M 237.76 174.1 242.26 183.11 
M 262.24 223.06 263.08 224.75 
M 242.01 176 242.85 177.69 
M 244.54 181.07 245.32 182.63 
M 259.38 210.74 259.74 211.45 
M 230.46 146.3 231.06 147.5 
M 246.26 177.89 247.95 181.27 
M 266.52 218.41 267.36 220.1 
M 269.05 223.47 272.42 230.23 
M 229.78 138.33 230.24 139.25 
M 231.08 140.93 233.61 146 
M 239.52 157.82 240.37 159.51 
M 241.21 161.19 243.74 166.26 
M 267.38 213.53 274.13 227.03 
M 229.41 130.99 236.17 144.5 
M 242.07 156.31 246.3 164.75 
M 247.14 166.44 249.67 171.51 
M 269.93 212.03 277.53 227.22 
M 278.37 228.91 279.22 230.6 
M 233.65 132.85 238.71 142.98 
M 244.62 154.8 252.22 169.99 
M 273.32 212.2 281.76 229.08 
M 284.29 234.15 285.14 235.84 
M 245.47 149.9 250.54 160.03 
M 251.38 161.72 256.45 171.85 
M 276.32 211.59 284.3 227.56 
M 285.99 230.93 289.35 237.65 
M 249.7 151.75 256.46 165.26 
M 257.3 166.94 258.99 170.32 
M 280.09 212.53 282.62 217.59 
M 283.47 219.28 284.31 220.97 
M 285.16 222.66 286 224.34 
M 286.84 226.03 289.38 231.1 
M 290.22 232.79 293.05 238.45 
M 243.84 133.42 245.53 136.79 
M 246.37 138.48 247.22 140.17 
M 250.59 146.92 255.66 157.05 
M 256.5 158.74 259.03 163.81 
M 260.72 167.18 261.57 168.87 
M 283.51 212.76 284.36 214.45 
M 290.27 226.27 296.38 238.49 
M 245.59 130.32 251.5 142.14 
M 254.04 147.2 259.95 159.02 
M 260.79 160.71 261.63 162.4 
M 292.87 224.86 299.75 238.63 
M 246.51 125.54 247.35 127.23 
M 248.2 128.92 254.95 142.42 
M 259.17 150.86 263.39 159.3 
M 295.47 223.46 303.08 238.68 
M 249.15 124.22 249.99 125.91 
M 251.68 129.28 255.9 137.72 
M 256.75 139.41 257.59 141.1 
M 261.81 149.54 262.65 151.23 
M 268.56 163.05 269.41 164.74 
M 298.95 223.82 299.8 225.51 
M 300.64 227.2 306.23 238.38 
M 242.09 103.5 242.51 104.34 
M 243.36 106.03 244.2 107.72 
M 252.64 124.6 260.24 139.8 
M 268.68 156.68 271.21 161.74 
M 272.06 163.43 273.75 166.81 
M 301.6 222.52 304.98 229.27 
M 305.82 230.96 309.08 237.47 
M 244.75 102.21 249.39 111.49 
M 256.14 125 261.21 135.13 
M 271.34 155.38 277.25 167.2 
M 308.48 229.67 309.32 231.36 
M 247.46 101.01 252.94 111.99 
M 272.36 150.81 278.27 162.63 
M 279.11 164.32 279.95 166.01 
M 312.03 230.16 315.27 236.64 
M 250.16 99.82 255.65 110.79 
M 275.06 149.62 284.35 168.19 
M 313.05 225.59 313.89 227.28 
M 315.58 230.66 318.55 236.59 
M 252.86 98.6 256.66 106.2 
M 271.01 134.9 275.23 143.34 
M 278.6 150.1 286.2 165.29 
M 315.74 224.38 317.43 227.75 
M 318.28 229.44 321.46 235.8 
M 255.54 97.36 261.03 108.34 
M 271.16 128.6 277.91 142.1 
M 282.97 152.23 288.04 162.36 
M 318.43 223.14 324.37 235.01 
M 258.64 96.97 261.18 102.03 
M 262.02 103.72 262.87 105.41 
M 273.84 127.35 281.44 142.55 
M 284.81 149.3 285.66 150.99 
M 287.34 154.37 289.88 159.43 
M 321.11 221.9 326.17 232.02 
M 260.98 95.04 262.25 97.57 
M 263.94 100.95 264.78 102.63 
M 275.76 124.58 283.35 139.78 
M 323.87 220.81 324.71 222.5 
M 326.4 225.88 328.94 230.94 
M 267.57 101.61 270.95 108.37 
M 271.8 110.05 273.48 113.43 
M 278.55 123.56 286.99 140.44 
M 269.54 98.93 271.23 102.31 
M 272.07 104 274.6 109.06 
M 275.45 110.75 276.29 112.44 
M 282.2 124.26 284.73 129.32 
M 286.42 132.7 287.26 134.39 
M 304.15 168.15 304.99 169.84 
M 269.75 92.76 279.88 113.01 
M 303.52 160.29 304.36 161.97 
M 305.21 163.66 311.11 175.48 
M 329.2 211.66 331.37 216 
M 272.51 91.67 282.64 111.93 
M 283.48 113.61 284.33 115.3 
M 305.43 157.51 315.32 177.29 
M 333.29 213.22 335.82 218.29 
M 274.78 89.59 275.62 91.28 
M 276.47 92.97 277.31 94.66 
M 278.15 96.35 285.75 111.54 
M 309.39 158.81 318.67 177.38 
M 335.54 211.12 338.93 217.9 
M 271.55 76.54 272.4 78.23 
M 277.46 88.36 278.31 90.05 
M 280 93.42 288.44 110.31 
M 312.07 157.58 319.67 172.77 
M 320.51 174.46 321.36 176.15 
M 338.49 210.41 341.62 216.67 
M 271.44 69.7 278.19 83.21 
M 281.57 89.96 289.16 105.15 
M 309.42 145.67 310.27 147.36 
M 313.64 154.11 323.77 174.37 
M 341.11 209.04 344.03 214.89 
M 273.28 66.78 281.72 83.67 
M 285.94 92.11 288.48 97.17 
M 290.16 100.55 291.85 103.92 
M 293.54 107.3 294.38 108.99 
M 309.58 139.38 314.64 149.51 
M 317.18 154.57 318.86 157.95 
M 319.71 159.64 323.93 168.08 
M 324.77 169.77 325.62 171.45 
M 344.03 208.28 346.72 213.66 
M 275.4 64.42 284.69 82.99 
M 291.44 96.5 293.97 101.56 
M 294.82 103.25 299.04 111.69 
M 310.01 133.64 311.7 137.01 
M 312.54 138.7 316.76 147.14 
M 317.61 148.83 319.3 152.21 
M 324.36 162.34 325.21 164.02 
M 329.43 172.47 331.11 175.84 
M 347.05 207.71 348 209.61 
M 348.84 211.3 349.69 212.98 
M 277.99 62.98 287.27 81.55 
M 295.71 98.43 303.31 113.63 
M 313.44 133.89 320.19 147.39 
M 321.04 149.08 321.88 150.77 
M 325.26 157.52 326.1 159.21 
M 332.85 172.72 334.88 176.78 
M 281.47 63.34 286.54 73.47 
M 287.38 75.16 289.07 78.54 
M 299.2 98.8 305.95 112.3 
M 316.92 134.25 322.83 146.07 
M 336.34 173.08 338.12 176.64 
M 279.87 53.53 280.71 55.22 
M 284.09 61.97 284.93 63.66 
M 286.62 67.04 291.69 77.17 
M 300.97 95.74 308.57 110.93 
M 318.7 131.19 326.29 146.38 
M 339.8 173.4 341.52 176.83 
M 281.14 49.46 283.25 53.69 
M 288.31 63.81 289.16 65.5 
M 291.69 70.57 294.22 75.63 
M 295.07 77.32 295.91 79.01 
M 296.75 80.7 297.6 82.39 
M 304.35 95.89 310.26 107.71 
M 323.77 134.72 324.61 136.41 
M 325.45 138.1 327.14 141.47 
M 343.18 173.55 345.17 177.53 
M 283.23 47.04 287.03 54.64 
M 291.25 63.08 297.16 74.89 
M 298 76.58 300.53 81.65 
M 308.97 98.53 309.82 100.22 
M 284.59 43.16 290.92 55.82 
M 293.46 60.89 302.74 79.46 
M 303.59 81.15 305.27 84.52 
M 330.6 135.17 333.13 140.24 
M 286.23 39.83 290.87 49.12 
M 291.72 50.81 292.56 52.5 
M 296.78 60.94 307.76 82.88 
M 331.39 130.15 333.08 133.53 
M 333.93 135.22 338.15 143.66 
M 352.5 172.36 353.34 174.05 
M 354.18 175.74 355.01 177.39 
M 368.53 204.44 369.38 206.13 
M 288.53 37.82 294.86 50.49 
M 300.77 62.3 306.98 74.72 
M 333.54 127.84 339.45 139.65 
M 345.35 151.47 349.58 159.91 
M 355.48 171.73 358.56 177.88 
M 370.64 202.05 372.37 205.5 
M 373.21 207.18 374.05 208.87 
M 290.86 35.89 292.55 39.26 
M 327.12 108.4 329.65 113.46 
M 335.56 125.28 343.16 140.48 
M 345.69 145.54 346.54 147.23 
M 348.22 150.61 354.98 164.11 
M 356.67 167.49 362.28 178.72 
M 373.55 201.25 376.08 206.32 
M 325.42 98.39 327.95 103.45 
M 328.79 105.14 331.33 110.2 
M 338.92 125.4 344.83 137.22 
M 349.05 145.66 357.49 162.54 
M 360.03 167.6 365.67 178.88 
M 376.49 200.53 377.75 203.06 
M 328.51 97.96 334.84 110.62 
M 341.59 124.13 342.44 125.82 
M 343.28 127.5 348.34 137.63 
M 351.72 144.39 361.01 162.96 
M 364.38 169.71 369.01 178.96 
M 379.31 199.56 381.27 203.47 
M 332.85 100.05 338.34 111.02 
M 347.63 129.59 348.47 131.28 
M 354.38 143.1 355.22 144.78 
M 356.07 146.47 362.82 159.98 
M 363.66 161.67 364.51 163.36 
M 368.73 171.8 370.42 175.17 
M 337.17 102.08 340.13 107.99 
M 356.17 140.06 358.7 145.13 
M 359.54 146.81 363.76 155.26 
M 364.61 156.94 367.14 162.01 
M 341.46 104.05 341.88 104.89 
M 342.73 106.58 343.57 108.27 
M 359.61 140.35 363.83 148.79 
M 364.68 150.48 365.52 152.16 
M 366.36 153.85 368.05 157.23 
M 389.34 199.8 389.94 201 
M 352.91 120.34 357.98 130.47 
M 363.04 140.6 363.88 142.29 
M 364.73 143.98 368.95 152.42 
M 391.3 197.12 392.39 199.29 
M 354.85 117.61 355.69 119.29 
M 357.38 122.67 360.76 129.42 
M 367.51 142.93 368.35 144.62 
M 377.64 163.19 380.17 168.25 
M 393.98 195.87 394.47 196.85 
M 356.88 115.07 364.48 130.27 
M 368.7 138.71 373.77 148.84 
M 375.45 152.21 376.3 153.9 
M 378.83 158.97 386.43 174.16 
M 396.71 194.73 397.29 195.88 
M 359.53 113.75 359.95 114.59 
M 360.79 116.28 365.86 126.41 
M 366.7 128.1 367.54 129.79 
M 370.92 136.54 374.3 143.3 
M 375.14 144.98 378.52 151.74 
M 381.05 156.8 390.34 175.37 
M 364.3 116.68 364.72 117.53 
M 365.56 119.22 369.78 127.66 
M 374.85 137.79 380.76 149.61 
M 381.6 151.29 382.44 152.98 
M 383.29 154.67 384.13 156.36 
M 384.98 158.05 392.57 173.24 
M 370.31 122.12 371.16 123.8 
M 374.54 130.56 384.66 150.82 
M 386.35 154.19 394.79 171.08 
M 378.39 131.66 387.67 150.23 
M 390.21 155.29 396.11 167.11 
M 396.96 168.8 397.8 170.49 
M 381.34 130.95 390.62 149.52 
M 392.31 152.89 393.15 154.58 
M 395.69 159.65 396.53 161.33 
M 384.27 130.21 390.18 142.02 
M 397.77 157.22 399.46 160.59 
M 388.92 132.9 389.76 134.59 
M 391.45 137.97 393.98 143.03 
"/></svg>