<svg xmlns="http://www.w3.org/2000/svg" width="520" height="320"><rect x="0" y="0" width="520" height="320" fill="floralwhite"/><rect x="10" y="10" width="500" height="300" stroke="black" stroke-width="1" fill="none"/><path stroke="black" stroke-width="1" fill="none" stroke-linecap="round" stroke-linejoin="round" d="
M 151.55 112.36 171.08 100.8 180.83 95.55 190.59 90.77 210.09 82 219.85 78.45 229.6 75.85 239.36 73.88 249.11 73.46 258.87 73.31 268.62 72.92 278.37 74.62 288.13 78 297.88 82.16 317.39 91.43 327.15 95.84 336.9 100.94 356.41 112.85 366.16 118.61 396.32 135.76 
M 396.32 186.97 375.92 201.19 366.16 207.71 356.41 213.66 346.65 219.32 336.9 224.21 317.39 233.28 307.64 236.62 297.88 239.53 288.13 242.16 278.37 243.54 268.62 244.47 258.87 244.08 249.11 244.09 239.36 244.39 229.6 242.53 219.85 239.48 210.09 235.94 200.34 232.02 190.59 228.61 180.83 224.58 171.08 219.43 161.36 213.45 
M 156.64 121.76 157.23 119.38 157.23 115.68 155.8 109.87 
M 152.4 113.61 154.34 112.87 
M 165.04 148.72 165.39 147.57 165.39 144.4 163.85 139.29 162.43 136.61 
M 165.66 172.32 166.44 170.36 
M 165.19 192.22 166.01 190.48 166.01 188.15 165.23 186.49 
M 156.7 113.97 159.11 110.56 160.51 107.11 
M 164.84 142.2 167.02 138.66 168.94 133.21 168.94 129.84 167.02 124.39 164.05 119.58 161.72 117.7 
M 159.54 128.52 165.12 127.39 
M 160.6 131.62 165.31 131.9 
M 161.83 134.86 165.21 135.36 
M 172.57 160.13 173.26 158.41 173.26 155.48 171.35 150.75 168.38 146.57 166.06 144.94 
M 165.81 153.95 170.07 153.21 
M 165.74 156.71 170.08 156.68 
M 165.7 159.83 168.16 160.36 
M 166.3 189.46 168.76 188.04 171.9 184.41 173.93 180.3 173.93 177.75 171.65 173.34 
M 170.97 201.59 172.12 199.6 172.12 197.28 169.96 193.52 166.61 190.21 165.37 189.6 
M 168.08 126.58 169.17 124.68 171.01 119.07 171.01 115.6 169.17 109.99 166.32 105.04 165.37 104.21 
M 162.13 114.6 167.86 113.26 
M 161.98 117.46 167.27 117.78 
M 164.62 121.07 167.49 121.93 
M 172.58 157.22 173.38 156.47 175.78 151.95 177.33 146.83 177.33 143.67 175.78 138.55 173.38 134.04 171.5 132.27 
M 169.47 142.71 174.33 141.7 
M 169.68 145.1 174.87 145.62 
M 169.29 147.95 174.37 149.14 
M 173.21 179.21 174.77 177.97 175.9 176.17 
M 175.75 160.1 174.77 158.52 172.85 156.99 
M 172.76 200.31 174.8 198.94 177.41 195.43 179.09 191.45 179.09 188.99 177.41 185.02 174.8 181.51 173.21 180.44 
M 170.45 188.48 175.87 186.89 
M 170.49 190.58 175.74 189.84 
M 170.78 192.25 175.99 193.29 
M 174.26 202.81 171.76 200.12 171.34 199.89 
M 170.35 117.85 171.66 117.13 175.52 112.88 178.02 108.06 178.02 105.07 175.52 100.25 174.4 99.01 
M 176.78 143.45 177.3 143.08 180.48 138.64 182.53 133.6 182.53 130.49 180.48 125.46 177.3 121.01 174.82 119.28 
M 172.6 129.07 179.19 128.56 
M 172.45 131.87 178.76 132.29 
M 173.5 134.8 178.39 135.58 
M 184.72 159.3 185.24 157.98 185.24 155.08 183.39 150.41 180.51 146.28 178.27 144.67 
M 176.25 154.59 181.56 152.98 
M 176.3 156.95 182.04 156.75 
M 175.72 158.61 180.45 159.85 
M 179.02 190.05 181.35 188.57 184.34 184.77 186.26 180.48 186.26 179.08 
M 177.12 176.96 178.06 176.77 
M 177.16 179.27 182.57 179.31 
M 176.4 181 182.74 182.69 
M 183.32 205.92 184 205.2 186.13 201.24 186.13 198.79 184 194.83 180.69 191.33 178.49 190.17 
M 177.12 107.02 177.65 106.75 181.2 103.05 183.49 98.86 183.49 96.27 182.62 94.68 
M 177.4 97.4 179.61 97.48 
M 175.12 100.26 178.92 100.91 
M 181.8 131.46 182.26 131.13 185.24 126.94 187.15 122.2 187.15 119.26 185.24 114.52 182.26 110.33 179.94 108.7 
M 177.87 118.38 183.28 116.88 
M 178.01 120.49 183.39 120.92 
M 178.46 123.14 183.88 124.4 
M 184.58 155.97 185.59 155.09 187.96 150.97 189.48 146.31 189.48 143.42 187.96 138.76 185.59 134.64 183.73 133.03 
M 181.92 142.87 187.16 140.89 
M 181.75 144.87 187.11 145.31 
M 182.03 147.57 186.54 148.67 
M 187.45 158.98 186.82 157.91 184.98 156.37 
M 185.5 201.24 187.47 199.76 190 195.98 191.62 191.7 191.62 189.05 190 184.77 187.47 180.99 185.57 179.56 
M 190.72 207.97 189.84 206.12 186.99 202.7 185.37 201.74 
M 182.67 98.02 183.66 97.6 187.5 94.4 189.67 91.22 
M 186.47 120.03 187.4 119.53 191.02 115.72 193.35 111.4 193.35 108.73 191.02 104.41 187.4 100.6 184.58 99.11 
M 181.67 108.3 189.25 106.58 
M 181.64 109.97 188.89 110 
M 183.68 112.8 189.16 113.6 
M 188.94 143.8 190.55 142.76 193.65 138.75 195.64 134.2 195.64 131.39 193.65 126.85 190.55 122.84 188.14 121.27 
M 185.97 130.62 192.33 129.67 
M 186.06 132.38 192.12 132.89 
M 185.74 134.73 191.89 136.25 
M 196.21 158.89 196.9 157.16 196.9 154.34 195.1 149.8 192.3 145.78 190.12 144.22 
M 191.27 190.09 193.54 188.55 196.45 184.62 197.45 182.24 
M 194.91 208.93 197.13 206.34 199.15 202.19 199.15 199.62 197.13 195.47 194 191.8 191.55 190.37 
M 192.51 108.45 194.98 105.38 196.82 101.37 196.82 98.89 194.98 94.89 192.14 91.36 190.95 90.61 
M 187.62 98.48 193.71 96.91 
M 187.67 99.8 193.63 99.89 
M 188.71 102.42 193.21 103.27 
M 194.93 131.88 195.68 131.34 198.36 127.51 200.09 123.17 200.09 120.49 198.36 116.15 195.68 112.33 193.59 110.83 
M 191.37 119.7 197.05 118.67 
M 191.79 121.58 197.03 121.86 
M 191.71 124.09 196.65 125.53 
M 196.26 154.15 197.07 153.46 199.37 149.56 200.84 145.13 200.84 142.4 199.37 137.97 197.07 134.07 195.28 132.54 
M 193.64 141.77 198.01 140.23 
M 193.13 144.07 198.47 144.04 
M 193.16 145.76 197.91 147.29 
M 199.47 158.61 198.28 156.52 196.49 154.93 
M 198.43 201.44 200.08 200.15 202.58 196.22 204.19 191.78 204.19 189.03 202.58 184.59 201.43 182.79 
M 204.05 211.2 204.05 210.4 202.39 206.39 199.81 202.85 198.43 201.91 
M 196.16 99.24 196.98 98.84 200.28 95.62 202.41 91.97 202.41 89.71 200.49 86.42 
M 196.79 88.05 198.12 87.79 
M 191.51 90.68 198.53 90.65 
M 193.37 93.28 198.99 94.03 
M 199.47 121.31 200.96 120.48 204.26 116.79 206.39 112.62 206.39 110.03 204.26 105.86 200.96 102.17 198.38 100.73 
M 195.67 109.58 202.31 108.14 
M 196.09 111.59 202.16 111.66 
M 195.95 113.09 202.29 114.07 
M 200.59 143.51 202.98 142.03 206.05 138.25 208.03 133.97 208.03 131.32 206.05 127.04 202.98 123.25 200.59 121.78 
M 198.55 130.13 204.15 129.34 
M 198.31 132.2 204.84 132.3 
M 198.07 134.95 204.83 135.96 
M 207.93 157.46 208.54 155.97 208.54 153.19 206.7 148.69 203.84 144.72 201.61 143.17 
M 203.61 189.63 205.57 188.26 208.3 184.45 
M 205.05 211.47 206.67 210.46 209.7 206.68 211.66 202.39 211.66 199.74 209.7 195.45 206.67 191.67 204.3 190.19 
M 201.97 198.87 208.5 197.9 
M 201.83 200.82 208.11 201.03 
M 201.72 202.79 207.71 204.21 
M 200.81 86.91 201.87 85.79 
M 205.63 109.79 208.16 106.39 209.95 102.16 209.95 99.55 208.16 95.32 205.38 91.59 203.21 90.13 
M 201.55 98.97 206.72 97.69 
M 201.28 100.91 206.63 100.44 
M 201.54 103.17 206.91 103.93 
M 207.32 132.63 208.92 131.54 211.62 127.89 213.37 123.76 213.37 121.2 211.62 117.07 208.92 113.42 206.81 112 
M 207.88 152.36 208.66 151.79 211.2 148.04 212.84 143.8 212.84 141.18 211.2 136.94 208.66 133.2 207.81 132.58 
M 211.17 157.4 209.85 155.09 207.98 153.47 
M 210.96 201.66 212.57 200.36 215.07 196.3 216.68 191.71 216.68 188.87 215.8 186.36 
M 209.15 188.24 213.45 186.35 
M 208.78 189.98 214.07 190.2 
M 209.02 192.53 213.42 194.16 
M 216.32 214.43 216.82 213.18 216.82 210.65 215.18 206.55 212.64 202.93 210.96 201.73 
M 208.69 209.53 213.44 209.13 
M 208.8 212.14 213.78 212.27 
M 209.31 100.63 210.86 99.94 214.42 96.73 216.72 93.1 216.72 90.85 214.42 87.22 210.86 84.02 208.25 82.84 
M 205.5 90.03 212.39 89.58 
M 205.38 92.04 212.22 92.19 
M 207.15 94.37 212.44 94.94 
M 212.74 122.6 214.76 121.52 218.17 117.89 220.37 113.77 220.37 111.23 218.17 107.11 214.76 103.48 212.1 102.06 
M 209.13 110.48 216.63 109.71 
M 209.85 112.13 216.45 112.65 
M 209.86 114.25 216.51 115.72 
M 213.72 143.69 216.29 142.27 219.58 138.62 221.7 134.48 221.7 131.92 219.58 127.79 216.29 124.14 213.72 122.71 
M 211.19 130.8 218.29 129.65 
M 211.19 133.4 217.76 133.21 
M 211.6 135 217.97 136.65 
M 220.84 157.27 221.57 155.69 221.57 152.96 219.54 148.55 216.4 144.66 213.95 143.14 
M 211.26 152.03 217.99 150.96 
M 211.59 154.1 217.54 154.53 
M 211.84 156.14 217.65 157.26 
M 216.1 189.23 217.92 187.99 219 186.52 
M 216.97 212.19 219.32 210.69 222.33 206.84 224.28 202.48 224.28 199.79 222.33 195.43 219.32 191.58 216.97 190.08 
M 221.33 215.66 219.35 213.43 216.96 212.08 
M 215.89 90.29 219.4 87.57 221.55 84.58 221.55 82.72 219.4 79.72 218.45 78.96 
M 211.07 82.45 217.42 81.19 
M 211.38 83.79 217.74 83.59 
M 211.54 85.01 217.78 85.63 
M 219.58 111.97 220.09 111.67 223.13 108.12 225.09 104.1 225.09 101.61 223.13 97.58 220.09 94.03 217.72 92.64 
M 215.18 100.4 221.11 100.15 
M 214.99 102.65 221.96 102.67 
M 215.41 104.45 221.31 105.9 
M 220.94 133.99 222.89 132.75 225.73 129.15 227.55 125.07 227.55 122.55 225.73 118.47 222.89 114.87 220.68 113.46 
M 218.31 122.09 223.89 120.65 
M 218.25 124.01 224.67 123.59 
M 218.49 125.89 223.81 126.6 
M 220.84 154.33 222.98 152.99 225.86 149.38 227.71 145.29 227.71 142.76 225.86 138.67 222.98 135.06 220.94 133.78 
M 223.88 157.37 222.5 155.27 220.84 154 
M 223.58 201.77 225.19 200.45 227.68 196.37 229.28 191.75 229.28 188.89 228.59 186.92 
M 227.94 217.15 229.46 213.29 229.46 210.74 227.83 206.61 225.32 202.97 223.58 201.72 
M 222.26 86.48 225.47 85.7 229.59 83.7 232.25 81.43 232.25 80.02 229.59 77.75 227.07 76.52 
M 219.2 79.25 227.44 79.3 
M 220.59 80.93 227.78 80.97 
M 220.78 81.67 227.79 82.14 
M 224.39 103.51 226.75 102.59 230.61 99.61 233.09 96.23 233.09 94.13 230.61 90.75 226.75 87.77 223.74 86.6 
M 220.8 93.41 228.61 92.56 
M 220.58 95.02 228.85 95.6 
M 222.26 96.96 228.37 97.57 
M 226.9 124.52 229.45 123.26 232.96 119.77 235.22 115.82 235.22 113.38 232.96 109.43 229.45 105.94 226.71 104.58 
M 224.32 112.87 230.77 111.74 
M 224.46 114.16 231.4 114.86 
M 224.08 116.79 230.68 117.53 
M 227.98 145.2 230.6 143.81 233.97 140.24 236.14 136.19 236.14 133.69 233.97 129.64 230.6 126.07 227.98 124.67 
M 225.47 133.27 231.97 131.87 
M 225.13 134.61 231.9 134.74 
M 225.82 136.9 231.79 137.6 
M 235.79 156.57 235.79 154.26 233.66 150 230.34 146.24 227.76 144.77 
M 224.99 153.15 231.91 152.39 
M 225.51 155.2 231.66 155.73 
M 228.7 189.37 230.88 187.99 231.34 187.41 
M 229.54 212.11 231.88 210.62 234.88 206.79 236.81 202.45 236.81 199.77 234.88 195.43 231.88 191.6 229.54 190.1 
M 235.71 218.33 235.02 216.94 232.01 213.46 229.65 212.11 
M 231.36 82.23 234.02 81.67 237.43 80.25 239.63 78.64 239.63 77.64 237.43 76.03 234.58 74.84 
M 229.13 77.39 236.03 76.7 
M 230.16 78.23 236.06 78.28 
M 231.3 78.95 235.53 79 
M 232.2 94.63 233.13 94.3 236.56 91.86 238.78 89.08 238.78 87.37 236.56 84.6 232.76 82.02 
M 228.08 86.41 235.08 86.31 
M 228.15 88.55 234.8 87.95 
M 229.46 90.2 234.5 90.67 
M 234.41 114.86 235.7 114.16 238.75 110.87 240.72 107.15 240.72 104.84 238.75 101.11 235.7 97.82 233.31 96.53 
M 235.36 135.66 237.28 134.44 240.05 130.94 241.83 126.97 241.83 124.52 240.05 120.55 237.28 117.05 235.13 115.68 
M 232.94 123.34 238.74 122.59 
M 232.84 125.64 238.22 125.42 
M 233.33 127.66 238.78 128.81 
M 235.38 156.45 237.51 155.05 240.24 151.48 242.01 147.43 242.01 144.92 240.24 140.87 237.51 137.29 235.38 135.9 
M 233.32 143.77 238.82 142.76 
M 232.96 146.16 238.43 145.93 
M 233.44 148.45 239.01 149.45 
M 235.61 156.61 235.03 156.21 
M 236.12 200.97 237.55 199.84 240.03 195.91 241.63 191.45 241.58 188.54 
M 239.49 218.81 240.42 217.46 242.04 213.31 242.04 210.74 240.42 206.59 237.91 202.93 236.12 201.62 
M 233.68 209.56 239.27 209.09 
M 234.48 212.2 239.12 212.11 
M 233.81 214.07 238.68 215.54 
M 239.34 79.71 242.3 79.28 246.09 78.16 248.53 76.89 248.53 76.1 246.09 74.84 242.4 73.75 
M 238.92 90.54 241.93 89.78 245.78 87.85 248.27 85.66 248.27 84.3 245.78 82.11 241.93 80.17 238.92 79.41 
M 236.44 83.55 243.46 83.41 
M 236.3 84.67 244.12 85 
M 237.98 86.53 243.55 86.55 
M 240.02 106.45 242.54 105.51 246.24 102.75 248.63 99.62 248.63 97.68 246.24 94.55 242.54 91.79 239.65 90.71 
M 236.79 96.83 244.03 96.44 
M 236.56 98.32 244.14 99.05 
M 237.55 100.18 244.4 101.08 
M 241.19 125.95 243.8 124.68 247.16 121.41 249.32 117.71 249.32 115.41 247.16 111.71 243.8 108.44 241.18 107.16 
M 239.01 114.67 245.44 113.52 
M 239.1 116.57 245.19 116.59 
M 238.26 118.57 245.2 119.78 
M 241.72 146.2 244.2 144.84 247.38 141.33 249.43 137.36 249.43 134.9 247.38 130.93 244.2 127.42 241.72 126.06 
M 239.39 133.73 245.55 133.14 
M 239.36 136.46 245.59 136.56 
M 239.47 137.84 245.69 138.9 
M 249.33 156.55 249.33 155.53 247.26 151.32 244.05 147.61 241.55 146.16 
M 238.71 154.89 245.69 153.42 
M 241.65 189.82 243.86 188.47 
M 242.08 211.88 244.43 210.4 247.43 206.64 249.37 202.37 249.37 199.72 247.43 195.46 244.43 191.69 242.08 190.22 
M 248.37 218.52 247.58 216.93 244.58 213.45 242.23 212.1 
M 247.65 76.78 249.34 76.55 252.22 75.77 254.07 74.88 254.07 74.34 252.07 73.41 
M 244.59 74.22 250.38 73.75 
M 244.54 74.35 250.55 74.61 
M 245.34 74.74 250.86 75.3 
M 247.38 85.59 249.27 85.1 252.21 83.57 254.11 81.83 254.11 80.75 252.21 79.02 249.27 77.48 247.65 77.06 
M 244.8 80.12 250.93 79.73 
M 244.53 81.15 250.23 81.69 
M 245.83 82.33 250.53 82.42 
M 247.77 98.63 249.29 98.06 252.35 95.72 254.33 93.07 254.33 91.43 252.35 88.78 249.29 86.44 247.38 85.72 
M 248.55 116.36 250.13 115.52 252.91 112.54 254.7 109.18 254.7 107.09 252.91 103.73 250.13 100.76 247.96 99.6 
M 245.86 106.45 251.19 105.3 
M 246.26 107.82 251.72 108.57 
M 246.03 110.19 251.13 110.7 
M 248.7 135.65 250.34 134.6 252.93 131.29 254.6 127.53 254.6 125.21 252.93 121.45 250.34 118.14 248.55 116.99 
M 246.53 124.7 251.73 123.13 
M 246.13 126.39 251.85 126.12 
M 246.56 128.52 251.2 129.46 
M 248.59 156.26 250 155.24 252.53 151.61 254.15 147.5 254.15 144.96 252.53 140.85 250 137.22 248.7 136.28 
M 246.03 143.83 251.6 143 
M 246.33 146.52 251.53 146.14 
M 246.18 147.94 251 149.26 
M 248.68 200.71 250.18 199.57 252.7 195.74 254.33 191.42 254.33 188.74 253.83 187.42 
M 252.29 218.48 253.01 217.43 254.63 213.29 254.63 210.73 253.01 206.59 250.5 202.93 248.68 201.6 
M 246.97 209.54 251.31 208.93 
M 246.48 211.61 251.89 211.6 
M 246.38 214.42 251.55 215.42 
M 253.82 81.82 256.36 81.36 259.61 80.19 261.71 78.87 261.71 78.05 259.61 76.72 256.36 75.55 253.82 75.1 
M 250.99 78.04 258.26 77.32 
M 251.46 78.79 257.6 78.31 
M 251.8 78.88 257.74 79.57 
M 253.8 92.92 256.43 92.17 259.79 90.24 261.97 88.05 261.97 86.69 259.79 84.5 256.43 82.57 253.8 81.82 
M 251.33 86.46 257.74 85.94 
M 250.93 87.37 257.85 87.32 
M 252.08 88.82 257.75 88.96 
M 254.17 108.18 256.76 107.16 260.08 104.54 262.22 101.58 262.22 99.74 260.08 96.78 256.76 94.16 254.17 93.13 
M 254.62 126.38 257.07 125.17 260.21 122.06 262.23 118.54 262.23 116.36 260.21 112.83 257.07 109.72 254.62 108.51 
M 251.82 115.49 258.88 114.99 
M 252.41 117.2 258.97 117.86 
M 252.25 119.3 258.17 119.9 
M 254.56 146.33 256.94 144.98 260 141.52 261.97 137.6 261.97 135.17 260 131.25 256.94 127.78 254.56 126.43 
M 262 157.19 262 155.94 260.02 151.72 256.95 148 254.55 146.55 
M 254.64 190.14 257.04 188.65 258.24 187.16 
M 254.72 211.81 257.08 210.36 260.1 206.62 262.05 202.4 262.05 199.78 260.1 195.55 257.08 191.82 254.72 190.36 
M 252.06 198.89 258.53 197.93 
M 252.21 201.22 258.49 200.7 
M 252.73 203.3 258.47 204.17 
M 260.94 218.52 260.18 216.99 257.17 213.56 254.83 212.22 
M 260.96 77.77 262.52 77.52 265 76.72 266.59 75.82 266.59 75.26 265 74.36 262.52 73.57 260.59 73.25 
M 258.28 75.28 263.35 74.69 
M 258.35 75.13 263.89 75.72 
M 259.08 76.22 263.96 76.47 
M 261.19 86.71 262.61 86.28 265.16 84.71 266.81 82.94 266.81 81.84 265.16 80.06 262.61 78.5 260.96 77.99 
M 258.42 81.68 263.73 80.63 
M 258.43 82.32 263.4 81.99 
M 258.54 83.63 263.63 83.57 
M 261.45 99.82 262.81 99.24 265.46 96.95 267.17 94.36 267.17 92.75 265.46 90.16 262.81 87.87 261.19 87.17 
M 258.55 92.59 263.78 91.18 
M 258.52 93.71 264.11 93.12 
M 258.84 94.78 263.65 95.88 
M 261.51 116.72 263.09 115.83 265.65 112.96 267.31 109.7 267.31 107.69 265.65 104.43 263.09 101.56 261.45 100.64 
M 261.26 135.9 263.09 134.72 265.61 131.44 267.24 127.73 267.24 125.43 265.61 121.72 263.09 118.44 261.51 117.41 
M 259.21 124.44 264.36 124.02 
M 258.99 126.5 264.72 126.83 
M 259.58 128.17 264.21 129.3 
M 261.29 156.4 262.74 155.37 265.29 151.74 266.93 147.62 266.93 145.08 265.29 140.96 262.74 137.33 261.26 136.28 
M 258.69 144.58 263.64 143.18 
M 258.39 146.61 264.02 146.72 
M 258.92 147.99 263.91 149.25 
M 261.35 200.86 262.94 199.67 265.48 195.87 267.12 191.56 267.12 188.9 266.79 188.04 
M 258.99 188.24 262.27 187.33 
M 258.65 190.35 264.23 189.79 
M 258.86 191.97 263.89 193.82 
M 264.82 218.63 265.63 217.45 267.24 213.32 267.24 210.76 265.63 206.63 263.13 202.98 261.35 201.69 
M 266.41 82 268.66 81.52 271.53 80.29 273.39 78.89 273.39 78.02 271.53 76.62 268.66 75.39 266.41 74.91 
M 263.9 77.65 269.68 77.47 
M 264.29 78.51 270.47 78.36 
M 264.02 79.2 270.28 79.73 
M 266.86 93.54 269.2 92.76 272.2 90.78 274.14 88.54 274.14 87.16 272.2 84.91 269.2 82.94 266.86 82.16 
M 267.26 108.62 269.63 107.61 272.67 105.01 274.62 102.08 274.62 100.26 272.67 97.33 269.63 94.73 267.26 93.72 
M 264.87 99.45 270.9 99.18 
M 265 100.93 271.51 100.78 
M 265.4 102.91 270.67 103.38 
M 267.4 126.47 269.74 125.27 272.72 122.2 274.65 118.71 274.65 116.55 272.72 113.07 269.74 109.99 267.4 108.79 
M 265.12 116.19 270.97 115.13 
M 265.23 117.55 270.98 117.25 
M 264.95 119.34 270.92 120.36 
M 267.31 146.48 269.66 145.13 272.68 141.67 274.63 137.75 274.63 135.33 272.68 131.41 269.66 127.95 267.31 126.6 
M 265.29 134.88 271.53 133.37 
M 265.03 136.3 270.75 136.12 
M 264.64 138.14 270.79 139.57 
M 274.62 158.54 274.62 156.09 272.67 151.88 269.65 148.16 267.29 146.7 
M 264.58 155.08 270.97 154.32 
M 265.04 157.38 270.87 157.12 
M 267.36 190.24 269.71 188.75 271.17 186.9 
M 267.39 211.85 269.75 210.4 272.76 206.68 274.7 202.47 274.7 199.86 272.76 195.65 269.75 191.93 267.39 190.48 
M 265.06 198.72 270.86 197.76 
M 265.18 201.08 270.96 200.72 
M 264.78 203.36 270.8 204.08 
M 273.4 218.47 272.69 217.04 269.72 213.67 267.4 212.36 
M 271.87 76.65 273.61 76.32 275.84 75.45 277.28 74.43 
M 270.05 73.5 271.25 73.38 
M 270.59 74.22 274.28 73.91 
M 269.9 74.41 274.69 75.13 
M 273.45 86.32 274.4 85.97 276.73 84.26 278.23 82.33 278.23 81.13 276.73 79.19 274.4 77.48 272.58 76.82 
M 270.39 81 275.23 80.02 
M 270.44 81.76 275.27 81.61 
M 270.4 82.42 275.89 82.81 
M 273.92 100.28 275.43 99.57 277.9 97.22 279.49 94.55 279.49 92.91 277.9 90.24 275.43 87.89 273.5 86.98 
M 273.96 116.75 275.6 115.79 278.04 112.94 279.61 109.7 279.61 107.7 278.04 104.47 275.6 101.61 273.92 100.63 
M 273.93 135.88 275.6 134.75 278.04 131.45 279.61 127.71 279.61 125.39 278.04 121.65 275.6 118.34 273.96 117.24 
M 272.29 124.63 277.16 123.56 
M 272.25 126.73 276.52 126.63 
M 272.06 128.35 277.11 129.72 
M 273.92 156.92 275.66 155.69 278.21 152.06 279.85 147.96 279.85 145.42 278.21 141.31 275.66 137.68 273.93 136.46 
M 271.65 144.42 276.54 143.69 
M 272.06 146.76 277.22 146.65 
M 272.08 148.36 277.19 149.86 
M 275.37 158.64 273.92 157.52 
M 274.01 201.16 275.71 199.87 278.23 196.07 279.86 191.75 279.86 189.08 278.42 185.28 
M 272.07 188.47 277.27 187.33 
M 271.92 190.08 276.77 190.59 
M 271.9 193.01 277.14 193.44 
M 277.51 218.25 278.12 217.35 279.72 213.25 279.72 210.71 278.12 206.61 275.65 202.99 274.01 201.79 
M 272.04 209.58 276.78 209.16 
M 271.7 211.82 276.88 212.28 
M 271.92 214.03 276.77 215.46 
M 277.8 81 279.93 80.48 282.66 79.15 284.42 77.65 284.41 76.71 
M 276.07 76.6 281.5 76.18 
M 276.13 77.34 281.06 76.77 
M 276.18 78.16 280.99 78.77 
M 278.92 93.2 281.12 92.4 283.97 90.33 285.81 87.98 285.81 86.53 283.97 84.19 281.12 82.12 278.89 81.31 
M 277.14 85.83 282.92 85.23 
M 276.5 87.48 282.05 86.83 
M 276.33 88.72 282.71 89.03 
M 279.58 108.4 281.83 107.38 284.7 104.76 286.56 101.8 286.56 99.97 284.7 97.01 281.83 94.39 279.58 93.37 
M 279.66 126.17 281.88 124.96 284.72 121.87 286.55 118.36 286.55 116.19 284.72 112.68 281.88 109.58 279.66 108.37 
M 277.56 115.47 283.12 114.67 
M 277.15 116.88 282.96 116.9 
M 277.4 119.42 283.35 119.69 
M 279.84 146.5 282.14 145.14 285.08 141.65 286.97 137.7 286.97 135.25 285.08 131.3 282.14 127.81 279.84 126.45 
M 286.69 159.48 287.06 158.67 287.06 156.07 285.15 151.86 282.18 148.14 279.86 146.69 
M 277.24 155.3 283.39 154.28 
M 277.48 157.35 283.93 157.32 
M 279.87 190.15 282.18 188.66 285.21 184.71 
M 279.96 211.76 282.3 210.32 285.29 206.62 287.22 202.43 287.22 199.83 285.29 195.64 282.3 191.94 279.96 190.5 
M 285.34 217.72 284.89 216.83 281.97 213.52 279.7 212.22 
M 285.09 85.21 285.74 84.95 288.04 83.13 289.52 81.07 289.52 79.8 288.28 78.06 
M 282.41 79.53 286.78 78.71 
M 282.59 80.12 287.02 80.37 
M 282.56 81.63 286.77 82.2 
M 285.89 99.88 287.42 99.11 289.82 96.71 291.37 93.99 291.37 92.3 289.82 89.58 287.42 87.18 285.54 86.24 
M 283.48 91.74 288.12 90.75 
M 283.38 93.48 288.5 92.78 
M 283.74 94.77 288.85 94.99 
M 285.89 115.96 287.37 115.04 289.64 112.19 291.11 108.96 291.11 106.97 289.64 103.74 287.37 100.89 285.89 99.97 
M 286.29 135.12 287.46 134.27 289.77 130.89 291.27 127.06 291.27 124.69 289.77 120.87 287.46 117.49 285.89 116.35 
M 284.27 123.58 288.7 122.7 
M 283.98 126.24 288.62 125.73 
M 283.56 128.21 288.61 128.36 
M 286.37 157.27 288.31 155.85 290.8 152.2 292.4 148.07 292.4 145.51 290.8 141.38 288.31 137.73 286.36 136.3 
M 284.64 144.4 289.78 144.04 
M 284.23 146.84 289.31 146.61 
M 284.21 149.03 289.41 150.14 
M 288.58 159.79 287.68 158.37 286.37 157.34 
M 286.53 201.23 288.27 199.89 290.77 196.07 292.39 191.74 292.39 189.06 290.77 184.73 290.47 184.27 
M 290.36 217.17 292.09 212.97 292.09 210.48 290.49 206.45 288 202.9 286.53 201.85 
M 289.12 79.85 291.27 79.34 
M 290.82 92.42 292.94 91.65 295.85 89.54 297.72 87.15 297.72 85.66 295.85 83.27 292.94 81.16 290.68 80.33 
M 288.05 85.12 294.45 84.5 
M 288.21 86.17 293.93 86.38 
M 288.24 87.43 294.51 88.38 
M 291.28 107.38 293.51 106.37 296.38 103.78 298.22 100.85 298.22 99.03 296.38 96.1 293.51 93.51 291.28 92.5 
M 291.12 125.08 293.34 123.85 296.19 120.72 298.03 117.18 298.03 114.98 296.19 111.43 293.34 108.3 291.12 107.08 
M 289.29 114.46 294.83 112.99 
M 288.99 116.01 294.42 115.89 
M 288.66 117.99 294.54 119.21 
M 291.89 146.15 294.18 144.75 297.11 141.19 299 137.15 299 134.65 297.11 130.61 294.18 127.04 291.89 125.65 
M 289.66 133.63 295.81 133.25 
M 289.63 135.76 295.16 135.49 
M 290.02 137.68 295.6 138.69 
M 298.23 160.72 299.3 158.33 299.3 155.71 297.4 151.47 294.44 147.72 292.13 146.26 
M 290.11 154.53 296.05 154.2 
M 290.2 157.03 295.64 156.76 
M 290.08 159.35 295.59 160.28 
M 292.17 189.9 294.48 188.41 297.44 184.57 298.8 181.48 
M 292.48 211.63 294.83 210.2 297.83 206.51 299.76 202.34 299.76 199.76 297.83 195.59 294.83 191.9 292.48 190.47 
M 296.77 216.11 294.06 213.09 291.78 211.81 
M 297.03 84.34 297.58 84.14 299.31 82.85 
M 297.63 99.31 299.53 98.4 301.96 96.06 303.53 93.42 303.53 91.79 301.96 89.14 299.53 86.81 297.63 85.9 
M 295.72 91.1 300.59 90.64 
M 296 92.48 300.45 92.26 
M 296.19 93.64 300.54 95.06 
M 297.37 113.43 298.25 112.93 300.68 110.15 302.25 107.01 302.25 105.06 300.68 101.92 298.25 99.15 297.56 98.75 
M 295.79 104.02 299.44 103.86 
M 294.4 105.96 299.81 106.01 
M 294.56 107.73 299.62 108.75 
M 298.33 133.53 298.8 133.19 301.29 129.66 302.89 125.67 302.89 123.19 301.29 119.2 298.8 115.67 297.37 114.65 
M 298.68 157.16 300.62 155.71 303.11 152 304.72 147.79 304.72 145.19 303.11 140.98 300.62 137.27 298.68 135.82 
M 296.53 144.22 301.56 143.48 
M 296.9 146.81 301.75 146.75 
M 297.21 148.95 301.71 149.6 
M 302.07 161.31 299.6 157.52 298.62 156.77 
M 299.07 201.38 300.82 200.02 303.31 196.12 304.91 191.71 304.91 188.98 303.31 184.57 300.83 180.71 
M 304.04 214.81 304.81 212.94 304.81 210.51 303.18 206.59 300.65 203.12 299.07 202.04 
M 297.1 209.65 302.05 208.64 
M 296.84 211.67 302.01 211.51 
M 296.76 213.57 301.9 214.47 
M 303.16 92.14 305.58 91.34 308.69 89.3 309.89 87.92 
M 300.48 85.01 303.49 84.86 
M 301.16 86.4 306.59 86.36 
M 300.96 87.35 307.44 87.66 
M 303.45 106.87 305.83 105.87 308.87 103.3 310.83 100.39 310.83 98.59 308.87 95.68 305.83 93.11 303.45 92.11 
M 303.38 124.8 305.8 123.57 308.91 120.41 310.91 116.83 310.91 114.61 308.91 111.04 305.8 107.88 303.38 106.65 
M 304.35 146.06 306.74 144.66 309.8 141.07 311.77 137.01 311.77 134.49 309.8 130.43 306.74 126.84 304.35 125.44 
M 302.02 133.83 307.86 132.28 
M 302.19 135.44 307.8 135.51 
M 301.64 137.5 308.61 138.74 
M 310.27 161.91 311.97 158.23 311.97 155.6 310.01 151.35 306.99 147.61 304.63 146.14 
M 302.63 154.9 308.2 153.29 
M 302.43 157 308.21 156.52 
M 302.38 158.71 308.24 160.59 
M 304.67 189.84 307.02 188.34 310.02 184.49 311.96 180.14 311.96 178.85 
M 305.11 211.63 307.44 210.2 310.43 206.52 312.36 202.37 312.36 199.79 310.43 195.63 307.44 191.96 305.11 190.53 
M 307.6 214.17 306.47 212.94 304.23 211.74 
M 310.12 98.89 311.99 98.05 314.53 95.77 316.17 93.18 316.17 91.58 315.53 90.56 
M 308.29 91.4 313.05 90.18 
M 307.93 92.06 312.91 92.79 
M 307.82 94.03 313.1 94.7 
M 310.19 115.02 311.95 114.1 314.67 111.21 316.43 107.95 316.43 105.93 314.67 102.67 311.95 99.79 310.12 98.83 
M 307.89 105.06 312.99 104.24 
M 307.98 106.51 313.5 106.61 
M 307.88 108.83 313.51 109.35 
M 311.06 135.02 312.59 134.05 315.3 130.6 317.05 126.69 317.05 124.27 315.3 120.36 312.59 116.91 310.47 115.56 
M 308.19 123.92 313.72 122.78 
M 308.03 125.6 313.68 125.9 
M 308.6 127.07 313.49 128.7 
M 311.38 157.12 313.34 155.69 315.86 152.03 317.48 147.88 317.48 145.31 315.86 141.16 313.34 137.5 311.38 136.07 
M 309.72 144.79 314.33 143.83 
M 309.65 146.94 314.88 146.93 
M 309.33 148.62 314.87 149.9 
M 315.75 162.81 315.4 161.93 312.81 158.13 311.27 157 
M 311.67 201.12 313.27 199.84 315.71 195.98 317.28 191.6 317.28 188.89 315.71 184.51 313.27 180.64 311.37 179.13 
M 317.59 211.94 317.59 210.78 315.97 206.86 313.47 203.4 311.67 202.14 
M 316.6 92.66 318.72 92.03 
M 316.67 107.55 319.16 106.54 322.34 103.96 324.4 101.04 324.4 99.23 322.34 96.31 319.16 93.73 316.67 92.72 
M 314.12 98.45 320.24 97.85 
M 313.82 100.4 321.02 99.95 
M 314.2 102.03 320.96 102.57 
M 317.01 125.85 319.53 124.62 322.75 121.48 324.83 117.91 324.83 115.7 322.75 112.14 319.53 108.99 317.01 107.76 
M 314.36 115.4 321.17 114.1 
M 314.53 116.53 321.07 116.61 
M 314.66 118.47 321.26 119.15 
M 317.47 146.39 319.9 145.02 323.01 141.51 325.01 137.53 325.01 135.07 323.01 131.09 319.9 127.58 317.47 126.21 
M 314.7 133.85 321.59 133.43 
M 314.73 136.4 321.23 136.01 
M 315.34 138.61 321.6 139.03 
M 321.85 163.88 322.85 162.66 324.8 158.46 324.8 155.87 322.85 151.68 319.83 147.97 317.47 146.53 
M 317.31 189.76 319.61 188.28 322.56 184.47 324.46 180.17 324.46 177.5 323.36 175.01 
M 317.51 211.43 319.78 210 322.67 206.32 324.54 202.16 324.54 199.59 322.67 195.43 319.78 191.75 317.51 190.32 
M 315.67 198.47 321.42 197.33 
M 315.02 200.52 321.37 201.12 
M 315.74 202.64 321.01 203.66 
M 317.2 212.05 317.01 211.95 
M 323.66 99.15 325.24 98.49 327.92 96.24 
M 321.1 93.34 321.48 93.28 
M 321.51 94.53 325.49 95.09 
M 324.09 116.46 325.79 115.54 328.48 112.62 330.21 109.3 330.21 107.26 328.48 103.95 325.79 101.02 323.69 99.88 
M 324.29 135.97 326.11 134.81 328.73 131.47 330.42 127.7 330.42 125.36 328.73 121.58 326.11 118.25 324.09 116.96 
M 322 124.79 327.45 123.61 
M 321.69 126.12 327.47 126.87 
M 321.75 128.4 327.62 129.31 
M 324.1 156.86 325.94 155.54 328.45 151.94 330.06 147.86 330.06 145.34 328.45 141.26 325.94 137.66 324.29 136.48 
M 321.79 144.68 327.48 143.14 
M 321.82 146.31 327.56 146.63 
M 322.47 149.11 327.31 149.34 
M 323.78 178.62 325.64 177.2 328.18 173.23 
M 328.95 164.64 328.09 162.36 325.64 158.61 324.1 157.44 
M 323.87 200.15 325.2 199.07 327.54 195.26 329.04 190.95 329.04 188.28 327.54 183.97 325.2 180.17 323.78 179.02 
M 328.77 208.31 328.03 206.37 325.65 202.81 323.87 201.48 
M 330.09 108.35 332.53 107.35 335.67 104.79 337.68 101.89 337.68 101.42 
M 328.03 99.82 332.55 98.67 
M 327.87 100.75 333.97 100.58 
M 327.67 102.81 334.37 103.45 
M 330.31 126.44 332.74 125.23 335.84 122.14 337.84 118.63 337.84 116.46 335.84 112.95 332.74 109.85 330.31 108.64 
M 328.26 115.62 334.24 114.74 
M 327.53 117.55 333.82 117.63 
M 328.15 118.88 334.61 120.11 
M 330.35 146.46 332.71 145.12 335.74 141.68 337.7 137.79 337.7 135.38 335.74 131.49 332.71 128.05 330.35 126.71 
M 328.12 134.22 334.54 133.34 
M 328.39 136.57 334.56 136.81 
M 328.1 138.83 334.33 139.56 
M 332.69 165.43 335.12 162.41 337 158.3 337 155.76 335.12 151.65 332.21 148.03 329.93 146.61 
M 327.92 154.7 333.57 154.24 
M 327.9 156.68 333.22 157.36 
M 328.04 158.93 333.62 160.22 
M 329.33 189 331.51 187.53 334.3 183.79 336.1 179.54 336.1 176.92 334.3 172.68 333.31 171.33 
M 333.36 206.85 334.27 205.62 336.05 201.38 336.05 198.76 334.27 194.52 331.5 190.78 329.34 189.32 
M 337.13 116.69 338.72 115.79 341.26 112.96 342.9 109.75 342.9 107.76 341.26 104.54 339.39 102.46 
M 334.58 106.72 339.56 106.09 
M 335.26 108.76 340.18 108.54 
M 335.01 110.36 339.9 111.05 
M 337 135.91 338.71 134.79 341.22 131.5 342.83 127.77 342.83 125.46 341.22 121.73 338.71 118.43 337.13 117.4 
M 335.19 124.52 340.03 123.39 
M 334.5 126.31 339.55 126.81 
M 334.77 128.55 340.25 129.37 
M 336.59 156.72 338.52 155.34 340.99 151.83 342.58 147.84 342.58 145.38 340.99 141.39 338.52 137.88 337 136.79 
M 335.46 177.45 337.22 176.04 339.49 172.4 340.86 168.54 
M 340.96 166.36 340.96 165.73 339.49 161.61 337.22 157.97 336.32 157.25 
M 335.42 198.78 336.55 197.82 338.78 194.02 340.23 189.72 340.23 187.06 338.78 182.76 336.55 178.96 335.46 178.04 
M 339.39 204.88 337.18 201.16 335.42 199.68 
M 342.85 108.54 345.16 107.54 346.23 106.61 
M 342.99 126.46 345.32 125.26 348.29 122.19 350.21 118.71 350.21 116.55 348.29 113.07 345.32 110 342.99 108.8 
M 340.52 115.64 346.51 115.13 
M 340.56 117.96 347.13 117.9 
M 340.66 119.65 346.4 120.42 
M 342.85 146.16 345.14 144.85 348.06 141.48 349.95 137.67 349.95 135.31 348.06 131.5 345.14 128.13 342.85 126.82 
M 341 134.5 346.71 133.77 
M 340.23 136.3 346.15 136.81 
M 340.89 138.79 346.72 139.22 
M 341.79 166.36 343.95 164.98 346.7 161.47 348.48 157.49 348.48 155.02 346.7 151.04 343.95 147.53 342.01 146.29 
M 339.61 154.52 345.4 153.39 
M 339.63 156.23 345.71 156.63 
M 339.73 158.38 345.22 159.45 
M 340.56 187.4 342.65 185.96 345.32 182.27 347.04 178.09 347.04 175.5 345.32 171.32 342.79 167.83 
M 340.77 166.33 340.56 166.19 
M 346.04 202.66 347.12 199.96 347.12 197.27 345.38 192.93 342.67 189.09 340.56 187.6 
M 338.74 196.04 344.3 195.7 
M 338.27 198.52 343.78 198.89 
M 338.74 201.08 343.92 202.27 
M 349.53 116.7 351.09 115.77 353.51 112.88 354.18 111.49 
M 347.71 108.81 349.52 108.63 
M 347.69 109.91 352.28 111.43 
M 349.29 135.96 351.2 134.68 353.65 131.41 355.23 127.7 355.23 125.41 353.65 121.7 351.2 118.43 349.53 117.31 
M 347.2 124.63 352.62 123.43 
M 347.67 126.56 352.43 126.95 
M 347.71 128.85 352.02 129.17 
M 348.79 155.89 350.6 154.58 352.92 151.2 354.42 147.37 354.42 145 352.92 141.18 350.6 137.8 349.27 136.83 
M 347.09 144.31 351.93 143.27 
M 347.2 146.3 352.13 146.37 
M 346.78 147.84 351.68 148.98 
M 346.42 175.3 348.02 173.98 350.15 170.45 351.52 166.46 351.52 163.99 350.15 159.99 347.85 156.33 
M 346.5 196.75 347.41 195.99 349.67 192.19 351.13 187.88 351.13 185.22 349.67 180.91 347.41 177.11 346.42 176.28 
M 349.4 201.35 348.14 199.15 346.5 197.72 
M 355.24 126.1 357.45 124.9 360.27 121.82 362.1 118.34 362.1 116.21 
M 354.8 145.18 356.95 143.91 359.71 140.65 361.49 136.95 361.49 134.66 359.71 130.97 356.95 127.7 354.8 126.43 
M 352.83 164.48 354.88 163.14 357.5 159.71 359.2 155.82 359.2 153.41 357.5 149.53 354.88 146.1 353.88 145.44 
M 351.44 185.68 353.55 184.23 356.25 180.51 358 176.3 358 173.69 356.25 169.48 353.55 165.76 351.44 164.3 
M 349.71 172.8 354.5 172.06 
M 349.41 175.36 354.86 174.79 
M 349.41 176.8 355.22 178.19 
M 358.74 197.54 358.74 195.87 356.91 191.47 354.06 187.57 351.84 186.05 
M 361.44 116.2 361.74 116 
M 361.33 135.14 363.11 133.89 365.38 130.7 366.85 127.09 366.85 124.85 365.38 121.24 363.11 118.05 361.44 116.88 
M 360.01 124.5 364.12 123.14 
M 359.25 126.12 364.52 125.91 
M 359.38 127.78 364.43 128.96 
M 359.79 153.75 361.47 152.5 363.62 149.28 365.01 145.64 365.01 143.38 363.62 139.74 361.47 136.53 360.85 136.07 
M 358.52 142.57 362.76 141.71 
M 357.9 144.37 362.22 144.38 
M 357.74 146.53 362.85 147.52 
M 357.37 172.09 358.07 171.51 360.21 167.9 361.59 163.81 361.59 161.28 360.21 157.2 358.59 154.47 
M 358.09 196.42 359.31 195.44 361.78 191.5 363.37 187.03 363.37 184.27 361.78 179.8 359.31 175.86 357.38 174.32 
M 358.96 197.44 358.09 196.76 
M 366.57 124.71 368.59 123.52 370.62 121.13 
M 365.77 143.29 367.75 142.04 370.28 138.84 371.91 135.22 371.91 132.98 370.28 129.35 367.75 126.15 366.32 125.26 
M 363.4 162.51 365.43 161.15 368.01 157.66 369.68 153.72 369.68 151.28 368.01 147.33 365.43 143.85 364.51 143.23 
M 362.9 185.01 365.13 183.48 367.98 179.58 369.82 175.17 369.82 172.43 367.98 168.02 365.13 164.12 362.9 162.6 
M 370.19 192.39 369.68 191.22 366.65 187.27 364.29 185.73 
M 371.94 132.93 373.51 131.7 375.53 128.55 376.83 124.98 376.83 124.66 
M 370.64 122.32 372.08 121.96 
M 370.46 124.22 374.55 123.49 
M 370.22 125.64 374.6 126.53 
M 370.02 151.36 371.58 150.09 373.57 146.85 374.85 143.17 374.85 140.9 373.57 137.22 371.32 133.77 
M 369.02 140.07 372.28 139.34 
M 368.56 141.73 372.43 141.77 
M 368.2 143.6 372.7 145.23 
M 369.17 170.55 371.58 166.62 373.09 162.24 373.09 159.53 371.58 155.15 369.09 151.16 
M 367.53 157.94 370.8 157.39 
M 365.56 160.55 370.29 161.01 
M 365.38 162.78 370.31 164.14 
M 375.92 189.63 376.63 187.58 376.63 184.65 374.98 179.92 372.42 175.74 370.43 174.11 
M 375.17 140.12 377.13 138.84 379.64 135.58 381.26 131.89 381.26 129.61 379.86 126.41 
M 373.06 128.57 378.28 127.98 
M 373.26 130.53 378.2 131.08 
M 373.38 132.91 378.64 134 
M 373.92 161.06 376.02 159.6 378.71 155.86 380.45 151.62 380.45 149 378.71 144.77 376.02 141.03 373.92 139.57 
M 375.18 185.3 377.48 183.69 380.41 179.57 382.3 174.91 382.3 172.02 380.41 167.36 377.48 163.24 375.18 161.64 
M 372.77 170.74 378.68 169.65 
M 372.94 173.68 379.15 173.78 
M 373.29 176.25 378.84 176.94 
M 379.68 187.71 377.17 185.92 
M 380.29 128.19 381.49 127.35 
M 378.43 147.99 380.14 146.59 382.33 142.99 383.74 138.91 383.74 136.39 382.33 132.31 380.14 128.71 378.43 127.31 
M 376.78 135.42 381.31 134.42 
M 376.62 137.34 380.92 137.56 
M 376.5 140 381.49 140.77 
M 379.81 172.87 381.72 171.22 384.17 166.97 385.75 162.16 385.75 159.19 384.17 154.38 381.72 150.14 379.81 148.48 
M 388.5 183.23 387.43 179.99 384.99 175.81 383.09 174.18 
M 381.63 184.03 386.14 182.88 
M 380.82 186.12 382.85 186.1 
M 385.6 138.01 387.87 136.71 390.78 133.39 391.07 132.8 
M 383.58 128.88 384.05 128.82 
M 383.81 129.95 387.22 130.63 
M 385.3 160.24 387.62 158.72 390.58 154.82 392.49 150.41 392.49 147.67 390.58 143.26 387.62 139.36 385.3 137.84 
M 382.65 146.59 388.58 145.77 
M 382.86 148.99 389.13 148.97 
M 382.63 151.38 389.16 152.44 
M 390.75 182.1 392.69 179.33 394.59 174.58 394.59 171.65 392.69 166.91 389.75 162.72 387.45 161.08 
M 390.95 147.84 393.05 146.45 395.74 142.87 396.32 141.52 
M 389.32 135.68 393.96 134.43 
M 388.84 137.95 394.15 137.9 
M 389.13 140.01 393.98 141.06 
M 392.03 172.27 394.02 170.64 396.32 166.88 
M 396.32 153.68 394.02 149.92 392.03 148.29 
M 390.34 157.96 394.96 157.1 
M 390.21 160.38 395.02 160.19 
M 389.74 163.11 395.62 164.12 
M 396.32 174.64 394.87 173.38 
M 160.51 107.11 160.51 107.11 
M 163.99 207.96 166.61 206.66 169.96 203.35 170.97 201.59 
M 166.9 211.18 164.23 208.92 163.39 208.56 
M 165.37 104.21 165.37 104.21 
M 173.45 214.62 174.81 213.15 176.78 209.43 176.78 207.12 174.81 203.4 174.26 202.81 
M 174.4 99.01 174.4 99.01 
M 178.1 210.06 180.69 208.7 183.32 205.92 
M 185.02 219.67 185.02 218.05 182.74 214.47 179.21 211.3 176.45 210.07 
M 182.62 94.68 182.62 94.68 
M 177.4 97.4 177.4 97.4 
M 191.55 211.43 194 210 194.91 208.93 
M 197.6 223.89 198.69 222 198.69 219.72 196.56 216.03 193.25 212.78 191.02 211.68 
M 197.93 221.73 199.81 220.44 202.39 216.9 204.05 212.89 204.05 211.2 
M 200.58 224.83 199.25 223.31 197.93 222.56 
M 200.49 86.42 200.49 86.42 
M 196.79 88.05 196.79 88.05 
M 208.62 227.71 209.6 226.65 211.63 222.82 211.63 220.44 209.6 216.61 206.46 213.23 204.01 211.9 
M 210.9 222.14 212.64 220.9 215.18 217.28 216.32 214.43 
M 209.11 214.16 213.63 215.19 
M 213.06 229.21 213.52 229.15 
M 218.56 231.01 219.35 230.57 222.41 227.12 224.38 223.21 224.38 220.79 222.41 216.88 221.33 215.66 
M 214.56 219.92 221.05 218.83 
M 215.06 221.84 220.9 222.34 
M 218.45 78.96 218.45 78.96 
M 240.93 235.82 242 233.33 242 231.01 240.39 227.26 237.89 223.95 236.27 222.88 
M 234.2 230.58 239.2 228.87 
M 234.2 232.12 238.78 232.02 
M 233.72 233.87 238.95 235.25 
M 246.58 235.64 244.39 233.37 242.1 232.18 
M 248.82 222.32 250.5 221.09 252.29 218.48 
M 253.54 235.55 254.55 233.24 254.55 230.96 252.93 227.27 250.43 224.01 248.82 222.96 
M 246.48 232.17 251.61 232.1 
M 254.83 231.92 257.17 230.59 260.18 227.16 262.11 223.27 262.11 220.87 260.94 218.52 
M 258.88 235.54 256.49 233.07 254.24 231.91 
M 261.42 222.34 263.13 221.09 264.82 218.63 
M 266.02 235.8 267.17 233.24 267.17 231.03 265.56 227.46 263.06 224.31 261.42 223.28 
M 271.25 73.38 271.25 73.38 
M 290.59 233.37 291.08 232.26 291.08 230.16 289.58 226.77 287.24 223.77 286.09 223.03 
M 284.04 229.19 288.63 228.53 
M 291.27 79.34 291.27 79.34 
M 291.78 230.57 294.06 229.29 296.98 226.03 298.87 222.33 298.87 220.05 296.77 216.11 
M 289.22 221.16 295.76 221.17 
M 289.94 223.19 295.48 224.26 
M 302.76 230.4 302.76 229.04 301.22 225.59 298.83 222.55 298.19 222.15 
M 303.49 84.86 303.49 84.86 
M 311.52 221.94 313.47 220.59 315.97 217.13 317.59 213.21 317.59 211.94 
M 314.62 227.03 313.91 225.6 311.37 222.7 310.69 222.31 
M 323.79 221.87 325.65 220.48 328.03 216.92 329.57 212.89 329.57 210.4 328.77 208.31 
M 329.34 210.82 331.5 209.36 333.36 206.85 
M 336.04 218.41 334.95 216.28 331.95 212.94 329.6 211.64 
M 338.93 217.14 339.45 216.27 340.91 211.96 340.91 209.29 339.39 204.88 
M 340.56 209.64 342.67 208.14 345.38 204.3 346.04 202.66 
M 345.78 214.09 344.04 211.89 341.81 210.49 
M 354.18 111.49 354.18 111.49 
M 349.52 108.63 349.52 108.63 
M 351.84 208.42 354.06 206.9 356.91 203.01 358.74 198.6 358.74 197.54 
M 354.46 209.63 353.3 208.87 
M 361.74 116 361.74 116 
M 363.39 204.78 362.41 202.07 359.91 198.18 358.96 197.44 
M 370.93 197.71 372.42 196.49 374.98 192.31 375.92 189.63 
M 373.07 199.06 371.39 197.83 
M 381.49 127.35 381.49 127.35 
M 388.42 189.39 389 187.65 389 184.72 388.5 183.23 
M 382.85 186.1 385.98 186.06 
M 381.25 188.89 385.85 190.18 
M 391.07 132.8 391.07 132.8 
M 384.05 128.82 384.05 128.82 
M 387.22 130.63 387.22 130.63 
M 387.45 185.15 389.75 183.52 390.75 182.1 
M 391.79 187.26 389.38 185.5 
M 208.51 82.28 210.1 82 
M 221.18 77.83 218.89 44.99 219.78 44.9 224.34 77.25 
M 234.22 74.53 236.85 35.35 237.75 35.38 237.44 74.27 
M 247.59 73.2 255.86 30 256.74 30.14 250.81 73.43 
M 261.03 72.74 272.44 34.97 273.3 35.2 264.25 73.1 
M 274.5 73.5 295.41 32.76 296.21 33.15 277.58 74.48 
M 287.43 77.29 308.29 51.12 309 51.65 290.23 78.9 
M 299.78 82.59 316.06 66 316.73 66.6 302.47 84.38 
M 316.23 90.32 317.39 91.43 
M 210.7 81.78 213.64 74.71 214.97 71.07 216.12 67.39 217.06 63.65 218.35 56.03 219.12 48.28 
M 220.24 48.16 224.42 47.19 226.43 46.56 228.35 45.75 230.16 44.77 233.5 42.25 236.59 39.27 
M 237.71 39.31 241.88 39.3 245.9 38.78 247.82 38.23 249.69 37.47 251.5 36.53 255.03 34.32 
M 256.14 34.5 259.2 36.55 262.4 38.08 264.09 38.55 265.83 38.82 267.62 38.91 271.3 38.74 
M 272.39 39.04 277.16 39.69 279.52 39.84 281.87 39.81 284.2 39.56 288.78 38.47 293.32 36.83 
M 294.33 37.32 296.04 41.64 297.03 43.7 298.18 45.65 299.5 47.47 302.63 50.76 306.2 53.73 
M 307.1 54.4 307.73 57.91 308.82 61.15 309.64 62.62 310.64 63.99 311.8 65.27 314.44 67.66 
M 315.28 68.41 314.51 73.52 314.3 76.07 314.28 78.6 314.47 81.12 315.46 86.1 316.98 91.04 
M 222.35 47.71 226.43 46.56 228.35 45.75 230.16 44.77 231.88 43.59 235.06 40.79 
M 223.97 54.34 227.1 53.46 229.96 52.08 231.28 51.18 233.72 49.04 
M 225.59 60.97 228.79 59.93 230.68 58.77 232.37 57.28 
M 239.81 39.34 243.92 39.13 245.9 38.78 247.82 38.23 249.69 37.47 253.28 35.46 
M 240.28 45.41 243.67 45.24 245.3 44.95 248.43 43.86 251.39 42.21 
M 240.75 51.48 243.42 51.34 244.71 51.12 247.17 50.26 249.51 48.96 
M 241.22 57.55 243.17 57.45 245.03 57.02 247.62 55.7 
M 257.66 35.56 260.78 37.4 262.4 38.08 264.09 38.55 265.83 38.82 269.45 38.86 
M 257.35 42.16 259.92 43.69 261.26 44.24 264.09 44.85 267.08 44.89 
M 257.04 48.77 259.06 49.97 260.12 50.41 262.35 50.89 264.7 50.92 
M 256.73 55.38 258.21 56.25 259.78 56.8 262.33 56.95 
M 274.78 39.4 279.52 39.84 281.87 39.81 284.2 39.56 286.5 39.11 291.05 37.69 
M 273.81 45.4 277.73 45.76 279.67 45.74 283.48 45.16 287.24 43.98 
M 272.85 51.4 275.93 51.68 277.46 51.66 280.47 51.21 283.43 50.28 
M 271.88 57.4 275.25 57.59 277.45 57.26 279.61 56.58 
M 295.15 39.5 297.03 43.7 298.18 45.65 299.5 47.47 300.99 49.17 304.39 52.27 
M 292.16 48.07 293.6 51.29 295.49 54.18 296.64 55.48 299.24 57.86 
M 289.17 56.64 290.78 59.92 292.28 61.8 294.09 63.45 
M 307.38 56.17 308.19 59.57 308.82 61.15 309.64 62.62 310.64 63.99 313.09 66.48 
M 303 64.85 303.52 67.06 304.46 69.04 305.11 69.93 306.7 71.55 
M 165.72 160.46 171.17 160.15 179.64 159.94 187.54 158.97 190.43 158.82 196.43 158.89 199.14 158.66 204.25 157.75 209.87 157.33 215.29 157.61 217.82 157.52 220.23 157.22 222.67 157.41 225.42 157.32 228.2 157.45 233.95 156.96 236.45 156.43 239 156.26 241.57 156.24 247.5 156.75 249.81 156.49 252.39 156.49 255.16 156.95 258.4 156.93 263.74 157.25 269.21 158.35 274.86 158.55 277.85 159.1 285.89 159.37 288.13 159.67 290.36 160.28 292.79 160.53 295.34 160.29 301.89 161.3 311.92 161.98 314.19 162.33 316.87 163.16 322.4 163.96 325.7 164.15 328.8 164.61 333.95 165.64 336.62 165.73 342.76 166.59 344.52 167.19 318.72 176.73 311.15 179.12 308.05 179.34 302.24 180.18 297.43 182.02 295.24 183.15 292.93 183.96 290.22 184.3 281.62 184.88 276.06 185.44 271.33 186.81 269.44 187.9 266.76 188.04 263.35 187.45 260.17 187.1 249.41 187.61 247.06 188.08 242.32 188.6 239.6 188.39 236.42 187.71 231.09 187.39 228 186.81 225.19 186.5 222.55 186.37 218.2 186.52 215.88 186.38 210.22 185.08 203.99 183.22 201.38 182.78 198.52 182.54 175 175.91 171.83 173.44 168.68 171.79 165.86 169.99 
M 171.22 161.84 179.74 162.14 182.34 162.03 185.06 161.66 190.6 161.56 199.32 162 204.31 161.56 209.44 161.4 215.2 162.09 226.43 162.64 229.18 162.99 237.34 163.1 240.14 162.82 242.74 162.82 247.33 164.22 249.44 164.7 
M 174.17 163.88 179.62 164.22 190.81 164.41 199.34 165.47 203.7 165.45 212.16 166.11 214.54 166.16 217.36 166.72 220.37 167.76 223.65 168.01 231.75 169.29 234.22 169.44 236.74 170.03 242.11 170.26 244.91 170.85 247.39 171.88 
M 174.14 165.79 185.13 166.92 187.84 167.35 190.71 167.5 193.49 167.86 196.46 168.51 203.97 169.3 206.45 169.82 209.24 170.14 216.99 172.17 220.16 172.69 
M 171.21 167 179.34 168.73 182.28 169.12 199.29 172.45 204.41 174.03 207.1 174.57 209.68 175.51 211.56 176.44 214.04 176.68 221.95 179.15 229.3 181.93 232.13 183.45 234.95 184.53 237.89 184.69 
M 171.17 168.75 179.25 171.14 182.36 171.68 193.37 175 198.87 176.94 203.82 179.59 209.17 181.36 
M 171.23 170.65 174.3 171.78 176.74 173.06 185.45 175.87 
M 219.85 239.48 223.02 245.36 227.35 251.81 234.2 272.03 233.17 274.71 232.66 277.92 230.14 279.18 227.16 280 224.68 279.09 219.12 275.1 218.34 275.39 213.76 274.56 210.83 273.18 203.15 262.67 202.23 261.04 201.87 259.97 191.64 251.03 187.11 236.56 186.04 233.7 180.83 224.58 
M 215.65 237.96 219.16 244.89 221.32 247.71 222.59 250.43 223.48 253.59 227.44 258.86 230.75 265.05 232.43 266.94 233.83 268.88 
M 211.45 236.43 213.09 239.71 213.78 242.76 215.51 245.21 218.54 250.89 219.76 253.58 221.15 257.7 225.31 264.16 226.54 266.74 227.04 269.45 
M 207.29 234.81 210.45 241.16 211.65 244.08 212.1 246.49 213.63 249.12 215.1 252.48 216.39 258.84 218.19 261.5 219.36 264.9 
M 203.14 233.14 204.8 237.08 208.19 242.47 209.77 247.91 211.05 250.25 212.04 253 213.7 260.09 
M 198.97 231.54 200.62 235.25 201.78 238.41 204.57 243.64 206.72 248.6 209.38 253.77 210.35 257.02 
M 194.75 230.07 196.19 233.39 197.8 236.35 199.56 242.6 200.19 245.55 201.58 247.44 206.47 259.05 208.73 265.71 
M 190.53 228.59 192.58 232.61 193.64 235.95 193.97 239.37 195.79 244.89 196.82 247.29 197.13 249.38 196.99 251.83 197.93 254.86 
M 186.41 226.88 188.67 231.19 189.93 234.62 190.99 241.34 190.89 244.11 191.89 247.38 192.49 248.82 
M 366.16 207.71 374.59 215.04 376.48 219.27 385.77 225.11 384.67 227.54 383.75 230.13 382.62 232.47 381.03 238.01 379.12 239.83 375.76 239.96 373.3 241.05 371.93 246.61 367.09 248.92 365.47 250.69 362.84 251.44 360.1 252 355.12 254.06 354.17 256.45 352.06 258.12 346.29 258.97 339.04 259.7 337.06 260.86 334.55 260.69 329.37 257.77 324.79 259.04 321.89 259.22 318.82 259.15 315.42 258.73 309.99 258.37 307.45 258.96 300.44 250.79 295.43 248.52 292.2 246.02 288.13 242.16 
M 362.35 210.03 366.37 213.17 371.82 217.75 373.76 219.97 
M 358.54 212.36 362.11 214.87 367.31 219.75 372.76 223.05 375.27 225.21 378.43 226.79 380.73 228.62 382.91 229.3 
M 354.7 214.65 360.27 219.24 365.29 222.91 367.82 225.07 370.49 226.55 
M 350.84 216.89 353.75 219.5 356.63 221.28 360.02 222.98 362.61 224.58 364.36 226.94 
M 346.97 219.13 350 222.3 352.56 224.48 358.41 227.36 361.95 231.44 364.25 234.43 
M 342.99 221.16 348.2 226.47 350.77 228.52 353.25 229.84 355.42 231.26 356.83 233.76 358.52 235.49 362.09 237.79 365.54 240.44 
M 338.99 223.16 341.84 225.91 344.69 228.26 346.83 230.42 352.7 233.86 354.44 235.74 355.9 237.73 357.32 238.52 360.3 240.81 362.86 243.13 365.24 245.76 
M 334.97 225.11 340.72 230.17 345.89 234.19 348.53 235.71 350.78 237.44 353.08 239.56 
M 330.93 227 336.59 233 339.01 234.35 343.54 238 346.44 239.16 349.11 241.09 351.55 242.27 354.15 244.76 355.73 247.74 
M 326.88 228.89 329.93 232.24 335.27 237.08 339.81 239.84 341.77 241.62 343.96 243.29 347.79 245.43 
M 322.82 230.77 326.51 233.88 331.09 238.34 335.29 240.91 336.92 243.51 339.15 244.97 342.38 247.69 345.06 249.34 
M 318.77 232.65 327.51 240.37 329.6 241.71 333.29 244.59 335.79 247.36 
M 314.59 234.24 320.79 239.87 323.12 241.8 325.24 244.21 329.05 247.19 
M 310.37 235.69 313.28 238.65 316.41 241.3 319.21 243.32 321.15 245.77 324.51 250.67 325.77 251.83 
M 306.12 237.08 309.8 240.38 314.47 245.51 317.18 248.17 319.92 252.46 321.93 254.2 324.76 256.08 
M 301.84 238.35 307.99 244.56 310.85 246.96 312.53 249.39 314.79 253.61 
M 297.55 239.62 304.06 245.54 307.11 251.14 309.01 252.99 
M 293.24 240.78 296.47 244.51 303.8 251.09 304.89 254.39 
M 395.43 135.25 404.02 132.65 408.13 129.41 414.96 124.89 419.72 122.43 422.02 120.94 430.43 117.11 432.31 115.91 435.06 114.45 436.39 113.42 437.87 112.56 440.26 110.39 442.24 109.88 445.05 107.33 447.73 105.43 449.58 103.2 451.62 102.53 439.51 118.51 438.37 121.07 437.94 124.35 436.33 126.44 435.43 128.88 433.4 133.11 433.25 136.07 432.62 138.65 432.16 141.49 431.18 144.13 430.51 146.72 431.52 149.79 431.9 152.37 431.96 155.55 430.51 157.24 429.71 159.35 429.44 161.93 427.59 167.07 427.56 169.32 428.75 174.93 429.45 179.67 430.62 182.5 431.87 187.01 433.33 189.67 434.2 192.82 434.42 195.78 434.16 198.26 434.16 200.82 433.13 202.28 433.15 204.66 437.98 212.16 439.56 215.4 451.4 227.04 449.82 226.66 447.57 225.52 442.27 221.76 439.23 220.07 436.13 217.5 434.37 216.74 432.66 215.07 431.01 214.02 428.97 212.34 427.67 210.22 426.23 208.99 424.15 207.43 421.04 205.81 416.14 202.72 410.9 198.42 407.94 196.74 405.61 195.11 403.39 192.89 401.19 191.28 398.38 189.93 395.43 187.58 
M 404.92 135.57 406.87 134.81 409.11 133.56 411.58 132.44 416.38 128.91 
M 398.88 140.32 405.2 138.86 412.86 136.46 422.44 130.97 424.67 130.09 426.95 128.92 429.97 128.24 431.82 128.08 
M 395.43 143.1 398.82 143.23 401.61 142.5 404.98 141.9 407.88 140.83 410.35 140.38 412.9 139.52 415.6 138.16 418.15 135.63 420.54 134.58 422.99 133.82 
M 401.68 145.5 407.33 143.47 412.15 143.15 417.97 140.6 421.09 138.67 423.99 137.65 
M 399.14 148.64 405 147.71 407.81 147.45 409.97 146.82 412.4 146.72 414.97 145.34 
M 402.38 151.12 405.34 150.68 408.27 151.1 410.92 150.92 414.13 150.94 416.67 149.61 419.51 148.61 
M 399.14 154.05 406.05 153.52 408.33 154.41 414.1 154.98 421.03 154.12 424.81 153.39 427.51 152.2 
M 399.56 157 402.72 157.31 405.96 156.89 408.28 157.05 411.78 157.89 414.58 158.22 
M 403.19 160.41 406.55 160.53 415.61 160.41 418.33 160.74 421.5 161.5 
M 406.36 163.68 409.39 163.45 413.03 163.41 
M 406.23 166.35 408.64 167.72 411.97 168.01 415.11 168.02 417.56 169.39 419.94 169.86 
M 402.91 168.46 405.81 169.17 408.47 170.47 411.12 170.93 
M 395.43 169.27 399.56 170.95 402.43 171.57 408.26 173.32 411.01 174.26 413.5 175.48 416.6 175.29 419.25 177.2 
M 395.43 171.88 399.21 173.52 405.29 175.54 407.15 177.35 416.47 179.38 420.13 180.67 424.04 180.73 428.15 182.13 
M 404.63 178.48 413.75 182.36 
M 398.94 179.11 404.28 181.17 410.05 184.3 415.19 186.67 420.15 190.74 423.21 191.54 426.7 190.26 
M 404.78 184.07 412.28 188.53 414.25 190.09 419.3 193.64 422.49 194.83 
M 395.43 182.35 399.06 184.26 405.19 187.14 411.28 191.81 413.76 193.21 416.64 195.37 419.35 197 421.96 197.59 424.03 198.75 426.16 201.03 431.73 202.63 
M 398.8 187.42 404.7 190.12 407.07 191.88 411.11 195.67 414.15 197.31 418.64 200.5 
M 383.5 192.18 380.61 194.27 379.54 195.7 378.18 198.97 376.59 199.62 374.26 199.54 375.92 201.19 
M 86.2 162.12 86.64 159.97 87.74 157.16 89.64 154.24 92.22 151.24 95.45 148.34 99.19 145.33 102.83 141.75 106.45 137.58 110.82 133.53 115.92 129.95 126.84 123.49 137.31 118.15 142.14 115.98 151.55 112.44 155.15 117.37 156.92 122.57 158.93 127.75 161.16 132.9 162.94 138.1 164.1 143.36 165.81 153.93 165.67 159.31 165.9 164.66 165.86 170.04 164.86 180.87 165.23 186.21 165.28 196.94 164.82 202.35 163.69 207.83 161.36 213.35 150.35 212.64 142.4 211.21 135.25 209.53 128.51 207.23 122.27 204.37 116.6 201.15 106.65 195 101.74 191.22 
M 99.33 189.08 97.9 187.81 94.58 184.41 91.77 180.87 89.74 177.16 88.18 172.94 
M 144.41 145.14 144.87 149.67 143.58 158.31 142.67 162.26 140.5 169.4 140.67 175.63 141.81 181.97 142.3 185.88 142.05 190.39 134.71 190.41 129.44 190.17 124.41 189.83 119.29 188.93 114.25 187.33 109.49 185.07 105.06 182.39 
M 100.42 190.5 97.24 186.26 92.45 178.97 85.73 169.67 83.38 165.96 83.14 163.7 84.72 162.02 86.99 162.17 88.31 163.82 90.05 167.7 94.13 175.62 99.98 187.51 101.94 191.09 
M 101.5 191.76 88.39 189.94 79.4 187.97 70.75 186.45 68.81 185.28 68.37 183.01 69.69 181.25 71.89 181.22 89.14 187.28 101.66 190.88 
M 110.15 159.16 107.87 155.97 106.75 152.22 106.91 148.3 108.34 144.65 110.87 141.66 114.24 139.66 118.07 138.85 121.96 139.34 125.48 141.06 128.25 143.83 129.97 147.35 130.45 151.23 129.65 155.07 127.64 158.43 124.65 160.97 121 162.39 117.09 162.55 113.33 161.43 110.15 159.16 
M 126.31 145.21 127.69 148.03 128.07 151.14 127.43 154.2 125.83 156.9 123.43 158.92 120.52 160.06 117.38 160.19 114.38 159.3 111.83 157.47 
M 114.53 153.44 113.61 152.16 113.17 150.66 113.23 149.1 113.8 147.64 114.81 146.44 116.16 145.64 117.69 145.32 119.25 145.51 120.66 146.2 121.77 147.31 122.45 148.71 122.65 150.27 122.33 151.8 121.52 153.15 120.33 154.16 118.87 154.73 117.3 154.8 115.8 154.35 114.53 153.44 
M 115.44 152.24 117.97 154.77 
M 114.31 148.7 119.93 154.32 
M 117.03 149 121.33 153.31 
M 116.91 146.48 122.29 151.86 
M 118.69 145.84 122.58 149.73 
M 94.44 184.24 96.75 186.54 
M 86.57 160.28 89.99 163.7 
M 88.16 156.51 92.22 160.56 
M 90.39 153.37 94.33 157.32 
M 92.96 150.58 98.07 155.69 
M 95.8 148.06 98.69 150.95 
M 98.77 145.67 103.53 150.43 
M 101.51 143.05 105.95 147.49 
M 104.11 140.28 108.4 144.58 
M 106.61 137.43 110.86 141.67 
M 109.39 134.85 113.66 139.11 
M 112.36 132.45 115.68 135.78 
M 115.51 130.24 118.38 133.11 
M 118.83 128.2 122.03 131.4 
M 122.19 126.2 126.39 130.39 
M 125.58 124.23 130.42 129.07 
M 129.05 122.34 133.54 126.82 
M 132.59 120.51 136.26 124.18 
M 136.16 118.72 139.78 122.34 
M 139.82 117.02 143.75 120.95 
M 143.59 115.42 148.02 119.86 
M 147.48 113.96 152.03 118.51 
M 151.39 112.5 151.92 113.03 
M 94.99 150.42 93.54 150.05 
M 103.66 162.69 104.34 163.28 105.23 164.88 106.08 168.08 106.06 168.9 104.69 171.57 
M 144.36 141.74 141.44 144.13 140.18 144.96 134.56 145.99 133.53 146.04 130.25 145.61 
M 154.75 205.32 153.96 205.27 153.24 204.87 150.36 202.4 149.31 201.84 148.85 201.28 148.67 200.65 
M 161.04 176.08 160.2 175.39 159.46 173.99 158.92 173.36 157.98 172.93 155.16 172.12 
M 122.31 176.26 121.63 177.73 121.98 180.65 121.89 181.82 121.31 182.62 120.92 182.76 
M 154.58 188.81 153.6 186.51 152.14 184.59 151.97 183.96 152.11 183.4 153 182.44 153.42 182.18 154.44 181.94 
M 104.17 182.86 104.25 181.64 105.73 178.91 
M 98.54 188.06 97.19 187.09 
M 120.39 197.02 119.84 193.74 120.05 191.53 120.4 190.97 
M 156.55 198.11 157.27 198.03 157.75 197.68 159.04 195.52 
M 93.11 173.71 93.67 173.16 
M 160.63 166.41 159.8 166.96 157.8 167.7 155.99 169.01 154.75 169.58 154.43 169.91 
M 145.25 170.53 144.02 169.63 142.87 167.61 142.35 165.74 142.78 164.35 
M 135.08 125.33 133 122.36 131.53 121.05 
M 159.51 192.15 159.36 191.34 159.12 191.02 156.77 189.92 155.94 189.08 154.97 186.54 
M 165.15 167.46 162.65 169.31 159.9 170.15 156.09 171.67 
M 144.85 123.33 143.68 122.65 142.04 122.16 139.07 121.75 
M 132.15 190 132.35 189.14 132.95 188.39 135.5 186.35 136.42 184.73 136.88 182.39 136.84 181.52 135.91 178.35 
M 149.07 201.96 148.24 200.87 147.75 199.37 148.03 198.99 148.66 199.1 
M 108.94 187 112.29 185.83 115.1 185.21 115.67 184.94 117.31 183.76 118.58 182.46 
M 132.92 124.35 131.56 122.5 130.58 121.54 
M 158.58 126.84 155.29 125.96 
M 137.92 143.21 135.78 142.97 134.79 142.68 132.22 141.27 129.84 140.58 128.57 139.85 128.17 139.77 
M 130.64 167.72 129.92 168.36 129.34 169.22 128.8 171.61 128.22 172.99 126.85 174.59 
M 163.43 207.05 161.46 208.38 158.96 210.76 157.97 211.87 158.14 212.52 
M 114.3 162.82 112.1 162.46 110.72 161.67 
M 165.55 157.39 163.92 157.57 159.38 157.01 157.38 156.99 
M 129.38 158.07 129.34 158.53 129.64 159.37 132.78 162.46 
M 147.27 196.26 148.27 197 149.55 199.03 150.93 200.48 
M 159.67 199.48 160.13 198.27 161.95 195.83 162.54 194.73 162.57 193.89 162.34 193.02 
M 112.18 198.41 111.64 197.45 111.27 197.24 110.05 197.09 
M 118.28 195.01 119.81 191.15 120.56 190.65 120.94 190.7 121.23 190.95 
M 125.69 139.96 126.87 140.9 127.3 140.93 127.54 140.58 
M 94.34 173.78 94.33 172.77 95.51 171.18 
M 107.77 175.09 106.5 176.63 105.6 177.28 
M 140.38 167.57 139.03 166.83 137.57 166.39 136.68 166.27 135.01 166.77 130.94 169.84 129.15 172.29 
M 105.15 143.75 106.51 144.32 107.95 145.65 
M 154.77 120.09 155.99 119.83 
M 114.14 196.91 116.21 194.31 117.39 192.1 119.12 190.39 120.13 190.05 
M 129.27 166.84 128.55 167.93 128.32 168.59 127.79 172.58 127.04 174.01 
M 149.86 166.41 151.81 165.33 152.71 165.1 154.01 165.3 155.77 166.38 
M 158.71 162.28 156.52 162.6 156.34 162.46 156.19 161.8 
M 113.57 169.92 112.29 170.62 111.12 172.43 111.03 172.87 111.23 173.13 111.94 173.33 112.62 173.31 
M 132.23 136.44 128.15 138.11 127.3 139.2 127.07 140.17 
M 157.11 153.68 155.02 155.01 154.22 155.89 154.02 156.31 153.94 157.1 154.1 157.85 154.83 158.92 
M 164.84 193.32 163.88 192.65 162.72 191.16 161.9 190.65 160.06 190.23 157.11 189.88 
M 133.62 152.6 133.43 153.11 132.36 154.47 130.77 157.37 130.68 157.83 
M 91.86 166.74 92.58 166.18 95.76 164.95 96.26 164.54 97.01 163.2 97.17 162.36 96.89 159.14 96 157.33 95.46 156.93 
M 147.76 125.49 147.14 122.63 147.36 121.89 148 121.28 
M 140.44 177.22 136.22 174.89 135.37 173.65 134.6 173.12 133.73 173.05 132.95 173.41 
M 146.03 129.08 145.07 129.11 142.52 128.54 140.51 128.51 139.7 128.25 138.31 127.31 135.77 125.2 134.31 123.17 
M 101.82 191.16 102.43 192.2 
M 97.62 186.78 97.57 187.01 97.73 186.93 
M 93.88 181.17 93.57 181.5 93.17 182.59 93.84 181.96 94.34 181.83 
M 90.29 175.9 89.44 176.65 88.76 178.17 89.71 177.11 90.85 176.7 
M 86.55 170.8 85.31 171.8 84.36 173.75 85.58 172.26 87.15 171.61 
M 83.31 165.33 81.17 166.95 79.96 169.33 81.45 167.41 83.66 166.42 
M 101.58 191.32 102.84 191.65 
M 95.52 189.08 96.47 188.41 96.39 188.85 96.52 189.35 
M 89.29 187.33 90.02 186.08 90.96 185.39 90.54 186.22 90.58 187.72 
M 83.33 185.25 84.18 183.44 85.46 182.37 84.7 183.58 84.56 185.66 
M 77.33 183.22 78.33 180.8 79.95 179.35 78.85 180.94 78.56 183.63 
M 71.31 181.23 72.49 178.17 74.45 176.34 73.01 178.3 72.56 181.49 
M 78.71 187.86 85.77 191.79 90.65 194.06 95.66 195.96 100.77 197.59 105.95 198.95 116.6 201.15 
M 84 188.98 84.67 189.65 
M 155.54 118.5 160 122.96 
M 154.7 110.51 161.03 116.84 
M 159.21 107.87 167.86 116.52 
M 163.7 105.21 172.51 114.02 
M 168.17 102.54 173.82 108.18 
M 172.71 99.92 179.98 107.19 
M 177.35 97.42 188.02 108.09 
M 182.04 94.96 190.09 103 
M 186.84 92.61 192.81 98.58 
M 191.67 90.3 199.91 98.53 
M 196.64 88.11 205.47 96.95 
M 201.59 85.92 209.13 93.46 
M 206.48 83.66 213.89 91.06 
M 211.47 81.5 217.56 87.59 
M 216.71 79.59 222.14 85.02 
M 222.11 77.84 228.72 84.45 
M 227.76 76.34 233.32 81.9 
M 233.6 75.04 242.57 84 
M 239.58 73.87 245.33 79.61 
M 246.44 73.57 253.52 80.66 
M 253.4 73.39 262.79 82.78 
M 260.41 73.25 269.58 82.42 
M 267.29 72.98 276.92 82.61 
M 275.6 74.14 285.25 83.79 
M 285.8 77.19 295.35 86.74 
M 297.95 82.19 306.2 90.45 
M 311.65 88.75 317.92 95.01 
M 324.86 94.81 330.67 100.62 
M 340.07 102.87 347.76 110.55 
M 358.35 114 368.25 123.9 
M 375.26 123.76 385.51 134.01 
M 391.93 133.28 400.73 142.09 
M 212.81 76.76 213.21 77.56 
M 214.56 72.21 217.52 78.14 
M 216.53 68.12 218.13 71.32 
M 218.93 72.92 220.53 76.12 
M 218.38 55.73 219.58 58.13 
M 221.18 61.33 222.78 64.52 
M 219.05 49.03 229.04 69.01 
M 222.4 47.69 233.19 69.27 
M 225.93 46.71 237.52 69.89 
M 229.23 45.27 240.02 66.85 
M 232.26 43.28 236.66 52.07 
M 239.05 56.86 244.65 68.05 
M 235.05 40.81 240.24 51.2 
M 242.64 55.99 249.83 70.38 
M 238.32 39.32 244.32 51.31 
M 246.71 56.1 253.11 68.89 
M 242.32 39.27 247.51 49.66 
M 250.71 56.05 253.11 60.85 
M 254.71 64.04 255.5 65.64 
M 257.1 68.84 259.3 73.23 
M 246.07 38.73 248.07 42.73 
M 253.66 53.92 256.86 60.31 
M 260.06 66.7 261.66 69.9 
M 249.5 37.54 251.5 41.54 
M 252.3 43.14 253.09 44.74 
M 255.49 49.53 260.29 59.12 
M 262.69 63.92 267.5 73.54 
M 252.66 35.83 256.26 43.02 
M 258.66 47.82 271.68 73.87 
M 256.01 34.48 259.6 41.67 
M 261.2 44.87 275.86 74.19 
M 261.68 37.78 280.63 75.68 
M 266.63 39.64 285.41 77.2 
M 270.64 39.61 280.23 58.79 
M 281.03 60.39 290.31 78.95 
M 274.53 39.36 295.47 81.22 
M 278.77 39.79 279.97 42.19 
M 282.37 46.99 300.62 83.5 
M 282.75 39.71 283.15 40.51 
M 287.95 50.11 293.54 61.29 
M 294.34 62.89 305.89 85.98 
M 286.47 39.11 286.87 39.91 
M 291.67 49.5 308.45 83.07 
M 310.8 87.77 311.15 88.48 
M 289.97 38.06 290.37 38.86 
M 292.76 43.65 294.36 46.85 
M 295.96 50.05 309.55 77.22 
M 314.34 86.81 316.42 90.97 
M 293.39 36.87 294.59 39.27 
M 296.19 42.47 314.28 78.65 
M 305.61 53.25 307.59 57.23 
M 311.39 64.82 314.77 71.59 
"/></svg>