<svg xmlns="http://www.w3.org/2000/svg" width="520" height="320"><rect x="0" y="0" width="520" height="320" fill="floralwhite"/><rect x="10" y="10" width="500" height="300" stroke="black" stroke-width="1" fill="none"/><path stroke="black" stroke-width="1" fill="none" stroke-linecap="round" stroke-linejoin="round" d="
M 114.23 81.96 124.93 79.2 135.63 77.49 157.02 75.69 178.42 73.07 189.11 72.11 199.81 71.62 210.51 71.39 221.2 71.3 242.6 71.51 253.29 71.28 263.99 71.3 274.69 71.89 296.08 73.64 306.78 74.66 317.47 76.18 360.26 83.38 370.96 86.04 381.65 89.87 382.44 90.53 
M 382.44 169.2 381.65 169.78 370.96 172.84 360.26 175.01 338.87 177.9 328.17 179.57 317.47 181.51 306.78 183.15 296.08 184.01 285.38 184.47 263.99 184.94 242.6 184.8 231.9 185.26 210.51 186.54 199.81 186.62 189.11 186.02 178.42 184.7 167.72 182.84 146.33 178.26 135.63 176.22 124.97 174.91 
M 382.44 114.97 378.22 113.91 369.57 112.71 350.56 110.89 343.92 110.1 324.91 106.93 311.25 105.45 302.99 104.94 
M 299.73 104.87 296.39 104.9 
M 292.98 104.98 286.25 105.07 
M 280.03 104.89 274.19 104.41 
M 271.3 104.13 263.88 103.7 256.47 103.69 
M 253.64 103.72 246.67 104.1 233.3 105.49 
M 230.28 105.79 227.33 106.06 
M 224.37 106.34 215.09 107.51 
M 208.76 108.03 205.65 108.07 
M 202.64 107.95 192.31 106.94 189.14 106.79 181.06 106.77 
M 177.87 106.81 174.69 106.83 
M 171.53 106.82 165.13 106.7 
M 161.82 106.73 158.49 106.8 
M 155.22 106.81 150.52 106.7 140.31 106.01 
M 129.32 152.09 131.52 155.5 
M 135.78 161.84 137.97 164.68 
M 140.21 167.33 142.47 169.86 
M 127.74 139.91 131.81 145.74 
M 139.75 158.44 139.86 158.59 
M 127.99 130.67 131.81 136.19 
M 148.45 161.58 150.87 164.51 
M 153.31 167.3 155.76 169.99 
M 127.66 119.91 128.48 121.16 
M 130.82 124.77 132.4 127.3 
M 153.13 159.29 155.19 161.74 
M 157.76 164.66 162.79 170.14 
M 124.5 104.62 130.16 113.55 
M 132.52 117.27 134.74 120.96 
M 136.72 124.48 137.16 125.29 
M 172.08 172.98 176.65 177.75 
M 116.34 84.92 119.69 88.42 123.5 93.18 127.29 98.63 130.22 103.19 
M 132.2 106.43 137.39 115.34 141.61 123.4 
M 163.26 155.93 166.14 159.11 
M 168.97 162.16 174.01 167.94 
M 176.26 170.69 178.47 173.3 
M 119.4 80.62 123.77 84.98 127.65 89.71 131.65 95.28 136.5 103.2 
M 138.38 106.58 146.39 121.89 
M 165.2 150.82 166.96 152.9 
M 169.92 156.23 172.84 159.41 
M 180.17 168.33 184.58 173.6 
M 125.16 79.16 127.85 81.87 129.86 84.15 133.93 89.32 137.81 95.17 142.44 103.45 
M 144.26 106.87 147.86 113.72 
M 149.73 117.16 152.74 122.41 
M 166.65 144.29 169.29 147.92 179.36 159.73 
M 181.78 162.84 184 165.83 
M 131.1 78.21 134.11 81.45 136.08 83.87 139.89 89.13 141.75 92.05 151.02 108.57 158.27 120.91 
M 169.54 138.89 170.76 140.75 174.93 146.28 
M 183.42 156.73 185.81 159.98 
M 136.73 77.39 140.08 81.29 141.9 83.68 145.55 88.96 153.17 101.72 159.52 111.7 166.86 124.44 
M 169.14 128.08 172.61 133.53 176.46 139.03 
M 179.3 142.7 185.11 149.95 
M 187.72 153.45 194.51 163.19 
M 196.81 166.18 199.19 169.02 
M 206.51 176.59 208.87 178.77 
M 142.21 76.9 145.75 81.17 149.28 86.01 157.29 98.11 161.85 104.69 166.13 111.61 171.13 120.95 
M 173.27 124.61 176.73 129.98 179.25 133.57 186.46 142.66 
M 189.3 146.32 193.15 151.7 198.79 160.11 
M 201.13 163.33 203.52 166.39 
M 147.43 76.45 151.31 81.01 154.97 85.81 167.21 102.91 
M 169.41 106.38 172.5 111.75 178.48 122.82 180.73 126.39 183.23 129.9 187.44 135.27 
M 193.17 142.51 197.02 147.88 202.82 156.66 
M 218.8 175.88 220.76 177.61 
M 152.65 76.04 156.96 80.83 160.89 85.66 167.58 94.62 172.35 101.33 176.79 108.16 183.88 120.86 
M 186.12 124.46 188.64 127.97 
M 191.39 131.48 196.98 138.56 
M 199.5 142.1 209.07 156.56 
M 213.96 163.31 216.24 166.13 
M 220.5 170.76 222.53 172.76 
M 157.75 75.61 162.8 80.74 164.87 83.06 176.28 98.16 183.17 108.11 189.43 118.89 191.74 122.48 199.89 132.9 203.48 138.16 
M 205.69 141.72 212.82 152.81 
M 220 162.5 224.29 167.3 
M 228.32 171.5 230.27 173.45 
M 236.19 178.39 237.38 179.21 
M 162.63 75.01 168.82 80.8 173.22 85.96 185 101.64 189.65 108.17 190.73 109.91 
M 192.89 113.45 196.32 118.79 200.36 123.97 
M 203.08 127.41 204.41 129.15 207.81 134.41 
M 209.86 137.98 213.02 143.48 216.58 149.02 
M 219.01 152.56 221.39 155.81 
M 225.91 161.34 232.25 168.37 
M 167.61 74.4 172.83 78.89 177.46 83.74 179.79 86.61 191.35 102.02 196.93 110.32 
M 199.28 113.74 200.5 115.44 206.06 122.09 208.72 125.52 211.05 129.06 214.11 134.45 
M 222.7 148.81 225.05 152.08 
M 227.35 155.04 229.59 157.76 
M 231.83 160.32 234.06 162.79 
M 238.47 167.47 240.57 169.65 
M 248.03 176.86 249.7 178.3 
M 172.68 73.78 176.85 77.24 179.22 79.42 184.02 84.48 186.31 87.36 193.01 96.49 198.38 104.39 
M 200.56 107.62 204.16 112.45 208.34 117.18 
M 211.12 120.43 212.49 122.09 214.98 125.64 217.21 129.29 222.13 138.21 
M 224.15 141.67 226.33 145.08 
M 230.93 151.43 233.28 154.27 
M 238.01 159.47 240.32 161.93 
M 244.62 166.64 246.55 168.84 
M 248.34 170.9 250.02 172.85 
M 177.64 73.17 180.85 75.75 185.65 80.07 188.04 82.51 190.36 85.17 194.83 91.21 203.17 103.51 206.53 108.04 
M 209.07 111.04 213.2 115.59 217.29 120.62 
M 219.81 124.21 223.17 129.69 227.96 138.18 
M 229.95 141.42 232.15 144.68 
M 234.52 147.88 238.18 152.32 244.15 158.7 
M 250.19 165.86 251.89 168.15 
M 182.77 72.68 189.59 78.36 192.02 80.66 194.41 83.22 198.98 89.1 204.29 96.63 
M 206.28 99.5 209.34 103.68 211.6 106.46 219.38 115.51 223.28 120.88 
M 225.68 124.56 233.64 137.92 
M 235.77 141.15 238.1 144.41 
M 240.53 147.54 245.35 153.04 
M 249.76 157.93 253.51 162.9 
M 260.02 172.63 261.73 174.81 
M 188.04 72.2 193.78 76.61 196.24 78.79 198.63 81.25 200.93 83.98 212.55 99.37 
M 214.6 101.96 222.82 111.93 225.36 115.42 229.04 120.97 
M 235.16 131.05 237.09 134.24 
M 241.56 140.84 246.29 147.04 
M 252.94 154.87 254.86 157.43 
M 260.08 165.31 261.82 167.89 
M 194.26 71.87 198.3 74.69 200.72 76.74 203.03 79.07 205.24 81.66 215.75 95.05 224.06 105.31 226.32 108.34 231.08 115.28 236.34 123.85 
M 240.18 130.19 243.52 135.22 247.15 140.27 
M 249.52 143.43 251.85 146.39 
M 254.11 149.19 257.22 153.24 259.89 157.26 
M 267.42 167.95 269.41 170.42 
M 201.41 71.58 202.98 72.65 205.28 74.56 207.46 76.75 222.78 95.59 
M 224.78 98.09 226.8 100.7 
M 228.88 103.49 234.48 111.35 236.64 114.74 242.21 124.45 245.43 129.39 
M 247.8 132.86 252.82 139.73 
M 255.3 142.94 260.81 150.34 265.31 157.27 
M 267.22 160.02 271.36 165.5 
M 273.44 168.07 275.47 170.43 
M 281.42 176.19 283.45 177.79 
M 208.36 71.44 209.66 72.52 211.67 74.54 223.66 88.68 235.99 104.43 240.3 110.78 245.69 120.59 249.8 127.26 252.17 130.79 256.09 136.05 
M 261.27 142.69 264.61 147.36 267.42 151.74 
M 275.39 163.05 277.54 165.72 
M 214.27 71.36 227.46 85.54 229.52 88.01 235.42 95.7 242 103.88 244.1 107.02 246.85 111.91 
M 248.58 115.25 251.24 120.38 254.32 125.53 
M 256.68 129.01 267.19 142.61 
M 269.33 145.83 271.26 148.92 
M 273.15 151.91 277.23 157.69 
M 219.52 71.31 229 80.37 231.12 82.57 233.14 84.95 240.02 93.94 
M 242.21 96.49 245.57 100.49 247.7 103.44 251.54 109.98 256.92 120.48 258.98 123.93 261.32 127.31 265.36 132.44 
M 272.85 142.7 277.88 150.65 281.11 155.02 
M 285.5 160.58 287.63 163.24 
M 289.71 165.73 291.79 168.01 
M 296.18 171.97 298.49 173.7 
M 300.83 175.31 303.12 176.83 
M 225.24 71.35 230.59 75.67 234.71 79.66 236.67 81.97 242.42 89.7 248.96 97.37 251.15 100.15 255.26 106.5 262.92 120.53 265.14 123.91 274.13 135.99 
M 280.53 146.12 284.91 152.17 
M 291.44 160.39 295.64 165.4 
M 232.39 71.43 236.45 74.76 238.41 76.77 240.31 79.02 248.05 89.21 254.58 96.96 258.92 103.12 264.11 111.65 
M 266.14 115.22 269.44 120.57 274.46 127.43 278.04 132.64 
M 282.25 139.55 286.49 145.99 
M 288.66 148.89 290.83 151.68 
M 295.16 157.25 297.27 159.97 
M 305.9 169.15 310.45 172.96 
M 239.68 71.49 242.23 73.97 244.08 76.15 249.73 83.44 257.02 92.29 
M 259.24 95.15 264.93 103.02 268.17 108.17 
M 270.3 111.75 275.02 118.98 
M 277.55 122.47 281.13 127.56 284.25 132.68 
M 286.23 136.03 290.27 142.21 
M 292.36 145.07 294.49 147.91 
M 296.64 150.8 303.06 159.43 
M 309.54 166.67 314.09 170.92 
M 246.06 71.44 257.52 84.95 264.11 93.35 268.63 99.77 276.43 111.99 
M 278.95 115.58 281.52 119.11 
M 283.95 122.53 290.15 132.28 
M 292.1 135.33 296.1 141.09 
M 302.44 150.11 304.62 153.21 
M 252.01 71.31 259.47 79.5 263.52 84.44 265.65 87.29 272.19 96.73 281.19 110.31 288.77 120.65 299.94 137.4 
M 301.97 140.39 304.06 143.49 
M 306.21 146.67 310.62 152.97 
M 312.83 155.96 315.02 158.83 
M 258.12 71.29 263.54 76.93 267.41 81.74 284.83 106.73 292.4 116.87 299.81 128.1 
M 308.06 140.37 316.75 153.11 
M 318.94 156.17 321.12 159.18 
M 325.45 164.91 327.67 167.59 
M 264.25 71.31 267.51 74.68 269.35 76.89 279.4 90.99 292.69 108 
M 297.42 114.73 305.95 127.99 
M 308.06 131.13 310.15 134.29 
M 312.25 137.51 318.56 147.25 
M 320.71 150.45 322.87 153.63 
M 325.01 156.74 327.14 159.76 
M 270.39 71.65 274.97 77.03 283.24 87.98 291.81 98.06 
M 294.39 101.1 298.18 105.93 300.51 109.31 305.82 117.98 
M 307.96 121.37 310.14 124.69 
M 316.52 134.65 320.62 141.34 
M 324.73 147.84 328.91 154.23 
M 335.16 163.23 337.32 166.07 
M 276.38 72.02 278.71 74.6 289.69 87.68 297.27 96.21 302.3 102.43 306.93 109.29 318.73 128.18 
M 324.87 138.62 328.85 145.25 
M 330.86 148.49 332.88 151.68 
M 334.9 154.8 336.94 157.85 
M 339.01 160.83 341.13 163.73 
M 343.3 166.57 347.14 171.33 
M 282.92 72.52 291.6 81.86 301.3 93.14 308.82 102.57 312.43 107.78 
M 314.69 111.26 318.9 118.1 
M 327.14 132.3 331.11 139.31 
M 333.07 142.66 338.91 152.25 
M 340.9 155.33 345.03 161.36 
M 290.16 73.13 293.49 76.42 298.24 81.61 312.98 99.53 315.62 102.96 318.09 106.47 322.49 113.37 329.39 125.79 
M 331.35 129.45 335.3 136.6 
M 337.27 140.02 339.2 143.32 
M 341.08 146.53 342.97 149.69 
M 353.35 164.76 355.52 167.46 
M 297.67 73.79 302.37 78.83 311.56 90.14 319.81 99.95 322.48 103.46 325.96 108.72 
M 329.92 115.75 337.46 130.27 
M 343.33 140.68 345.19 143.99 
M 355.15 159.4 359.6 164.94 
M 304.87 74.48 308.73 78.68 315.46 87.08 326.6 100.44 329.11 104.01 332.3 109.4 
M 336.1 116.55 337.94 120.13 
M 339.8 123.75 345.47 134.47 
M 349.23 141.39 351.06 144.73 
M 356.97 153.88 359.17 156.71 
M 312.57 75.48 329.12 95.73 
M 331.81 99.28 335.42 104.71 337.5 108.35 343.27 119.05 351.35 134.88 
M 353.25 138.45 355.16 141.95 
M 357.07 145.2 359.02 148.21 
M 320.28 76.66 334.57 94.58 337.16 98.12 340.69 103.53 
M 342.87 107.15 345.93 112.52 348.65 117.72 
M 350.3 121.12 351.9 124.5 
M 357.32 135.06 359.33 138.66 
M 363.29 145.23 365.22 148.17 
M 367.21 151.08 369.26 154.02 
M 327.88 77.96 338.9 91.69 343.94 98.6 348.56 105.74 350.65 109.32 352.53 112.82 354.91 117.86 
M 356.36 121.15 359.63 127.89 
M 361.56 131.45 363.57 135.1 
M 375.47 154.28 377.66 157.43 
M 335.48 79.27 343.42 88.79 348.42 95.44 353.22 102.4 355.43 105.93 358.24 111.19 
M 359.8 114.57 363.31 122.79 367.96 131.68 
M 369.9 135.26 373.64 141.91 
M 377.61 148.24 379.76 151.48 
M 343.27 80.54 347.92 85.98 356.48 97.44 
M 358.86 100.81 362.13 105.98 364.69 111.21 
M 370.66 124.87 376.19 135.38 
M 379.85 141.92 382.44 146.16 
M 350.99 81.77 354.68 86.42 361.87 95.98 366.46 102.53 368.4 105.95 370.06 109.43 373.72 118.03 
M 375.34 121.58 377.08 125.13 
M 378.86 128.6 382.44 135.39 
M 358.36 83.05 370.5 99.12 373.39 104.07 
M 375.07 107.47 379.83 117.92 
M 365.98 84.8 372.35 92.62 374.6 95.65 375.6 97.23 
M 377.45 100.47 382.44 110.55 
M 375.34 87.61 378.88 92.14 380.78 95.26 382.44 98.54 
M 115.18 81.71 114.59 82.5 
M 122.24 79.89 117.37 86.34 
M 129.12 78.53 125.85 82.12 119.07 90.99 
M 136.18 77.44 129.65 84.17 124.89 90.1 120.91 95.65 
M 142.74 76.85 138.19 81.33 131.07 89.43 126.16 95.71 122.93 100.29 
M 149.12 76.31 146.17 78.96 141.71 83.68 128.65 100.09 
M 126.12 103.49 124.77 105.36 
M 155.08 75.85 149.5 81.07 145.15 86.17 136.2 98.32 128.6 108.17 126.24 111.85 
M 161.27 75.17 157.31 78.71 152.89 83.29 148.6 88.86 145.39 93.57 
M 143.21 96.81 136.2 106.49 
M 133.83 109.88 127.68 120.28 
M 168.13 74.33 165.14 76.74 160.88 80.76 156.46 85.76 154.29 88.65 145.61 101.87 138.73 111.76 136.62 115.34 132.56 122.92 131.4 124.75 
M 128.98 128.3 127.96 129.68 
M 175.92 73.38 171.18 76.87 169.01 78.71 165.75 81.91 
M 163.54 84.35 160.23 88.5 158.06 91.56 152.52 100.04 
M 150.25 103.52 142.27 115.38 137.23 124.46 
M 130.68 134.92 128.27 138.26 
M 184.02 72.57 177.46 77.3 173.05 81.01 170.79 83.2 168.53 85.71 166.32 88.48 163.16 93.04 
M 161.03 96.31 155.25 105.02 147.98 115.43 143.35 122.66 
M 191.87 71.98 188.14 74.52 183.85 77.88 179.52 81.6 174.88 86.1 172.56 88.73 170.4 91.58 163 102.95 
M 160.57 106.45 158.01 110.01 
M 155.43 113.59 149.29 122.35 
M 131.81 152.36 128.01 157.56 
M 199.23 71.64 194.88 74.71 190.21 78.41 183.8 84.45 179.11 89.33 176.82 92.01 174.66 94.91 167.12 106.33 
M 164.64 109.83 156.83 120.65 
M 135.03 156.76 133.57 158.78 
M 131.13 162 127.5 166.39 
M 206.11 71.48 201.95 74.62 194.55 80.9 190.15 85.14 185.65 90.07 181.12 95.36 178.94 98.27 168.54 113.5 
M 165.96 117.12 161.32 123.68 
M 139.78 158.61 137.54 161.77 
M 212.54 71.37 206.19 76.75 197.66 84.89 
M 195.37 87.19 189.73 93.29 185.33 98.63 180.91 104.75 167.45 124.46 
M 165.1 127.93 164.98 128.11 
M 144.8 160.23 143.81 161.58 
M 218.31 71.32 214.66 74.57 210.13 79.15 196 94.17 193.79 96.6 190.58 100.51 
M 188.41 103.36 182.54 111.64 176.2 120.98 
M 173.84 124.61 166.56 135.7 
M 223.57 71.33 220.12 74.6 218.12 76.73 206.98 89.9 197.68 99.99 193.58 105.26 187.76 113.42 
M 185.14 117.13 180.19 124.59 
M 177.97 128.19 174.71 133.56 168.94 142.5 
M 166.82 146.02 165.74 147.9 
M 228.6 71.39 225.65 74.27 221.66 78.81 210.95 92.64 204.87 99.44 
M 202.55 102.04 199.41 105.99 186.73 124.44 
M 184.47 128.09 182.39 131.72 
M 180.33 135.38 178.19 139.04 
M 175.95 142.67 173.71 146.26 
M 171.61 149.73 169.71 153.02 
M 167.91 156.14 166.06 159.11 
M 154.36 172.5 152.76 174.07 
M 233.52 71.44 231.56 73.48 227.4 78.26 220.31 87.73 
M 218.15 90.71 214.75 95.14 207.49 103.71 205.3 106.53 200.6 113.85 
M 198.52 117.09 191.29 127.88 
M 189.13 131.56 185.23 138.98 
M 183.19 142.69 178.78 149.89 
M 163.86 170.17 161.35 172.64 
M 238.46 71.48 233.23 77.49 220.81 94.48 212.69 104.95 
M 210.56 108 207.74 112.55 203.23 120.46 
M 196.2 131.28 195.05 133.14 192.06 138.82 
M 190.16 142.6 187.12 148.16 185.98 149.94 
M 183.7 153.4 179.36 159.71 
M 177.36 162.58 175.32 165.29 
M 170.76 170.41 168.31 172.83 
M 243.5 71.49 241.11 74.1 236.88 79.4 228.91 90.84 218.98 104.35 
M 216.87 107.55 214.03 112.41 209.01 122.06 206.96 125.54 203.35 130.97 
M 198.69 138.46 193.76 148.06 190.49 153.45 
M 188.14 156.81 185.79 159.97 
M 248.94 71.37 244.62 76.11 240.38 81.62 232.5 93.23 226.1 102.17 223.05 106.97 
M 219.41 113.79 214.3 123.88 
M 200.86 145.73 198.91 149.58 
M 194.61 156.81 192.23 160.07 
M 189.83 163.12 183.23 171.12 
M 254.72 71.28 252.63 73.23 250.35 75.67 245.97 81.17 241.85 86.98 230.96 103.32 
M 228.95 106.6 226.23 111.79 221.27 122.55 219.44 125.93 217.37 129.3 213.87 134.45 
M 211.44 137.99 207.93 143.48 204.92 149.21 
M 202.97 153.02 200.92 156.68 
M 193.95 166.1 191.61 168.8 
M 187.3 173.71 185.25 175.9 
M 260.51 71.29 256.24 75.19 253.93 77.71 251.69 80.49 245.48 89.48 236.99 102.78 
M 234.94 106.17 232.01 111.55 229.54 117.23 
M 226.21 124.58 225.31 126.33 222.22 131.36 
M 219.96 134.7 217.62 138.12 
M 207.18 156.56 204.1 161.8 202.96 163.34 
M 195.93 171.49 193.7 173.84 
M 266.03 71.41 259.86 77.14 257.54 79.71 255.31 82.56 249.25 91.81 240.96 105.63 
M 238.89 109.21 235.9 114.83 235.04 116.79 
M 233.39 120.7 231.77 124.51 
M 230.01 128.13 229.06 129.88 225.85 134.89 
M 223.61 138.25 220.33 143.49 213.46 156.49 
M 211.5 160.09 209.46 163.43 
M 271.07 71.69 263.53 79.24 261.24 81.85 259.04 84.76 254.97 91.03 248.6 101.84 
M 246.7 105.17 241.42 114.14 239.39 117.95 234.36 129.46 233.44 131.25 
M 231.48 134.74 226.28 143.34 221.52 152.43 
M 219.6 156.06 217.66 159.67 
M 215.69 163.17 213.63 166.41 
M 211.46 169.3 209.24 171.9 
M 202.49 178.54 200.46 180.18 
M 276.06 72 267.21 81.74 262.93 87.33 258.86 93.6 251.28 106.59 243.71 119.08 
M 241.77 122.81 240.08 126.61 
M 238.49 130.45 236.83 134.22 
M 235.01 137.8 233.06 141.26 
M 231.15 144.76 227.48 151.85 
M 223.65 158.77 221.68 162.21 
M 217.58 168.72 215.47 171.63 
M 281.24 72.39 272.98 82.09 268.86 87.42 264.87 93.34 255.82 108.2 
M 253.65 111.68 248.16 120.43 246.19 123.97 244.43 127.66 239.77 139.22 236.17 146.18 231.48 154.51 
M 229.54 157.78 227.56 161.04 
M 221.4 170.56 219.32 173.47 
M 286.76 72.83 283.09 76.92 280.9 79.63 276.67 85.12 272.65 90.65 259.39 111.68 
M 257.09 115.2 251.73 123.79 249.14 129.11 
M 246.1 136.77 244.6 140.56 
M 241.25 147.51 239.44 150.72 
M 233.54 160.08 229.34 166.26 
M 222.97 174.96 220.9 177.58 
M 292.45 73.32 287.14 79.35 282.61 85.12 278.44 90.98 273.64 98.4 
M 271.75 101.54 266.65 109.87 259.55 120.53 256.5 125.58 
M 254.77 129.01 251.71 136.26 
M 250.17 139.95 248.58 143.54 
M 245.33 150.18 243.61 153.25 
M 239.76 159.27 233.18 168.23 
M 228.7 173.73 226.5 176.29 
M 298.27 73.85 291.37 81.87 284.5 90.86 278.46 100.14 273.65 108.38 
M 271.61 111.81 263.46 123.92 261.48 127.31 259.82 130.76 255.19 141.31 252.56 146.33 
M 250.86 149.49 248.43 154.04 245.79 158.49 
M 304.15 74.41 298.02 81.61 292.19 89.02 
M 289.93 92.08 286.63 96.79 282.44 103.39 280.47 106.82 276.82 113.77 273.64 118.95 
M 271.29 122.31 267.82 127.28 265.94 130.7 263.59 135.92 
M 262.01 139.36 260.27 142.72 
M 258.39 145.96 256.47 149.04 
M 252.93 154.87 251.24 157.75 
M 249.49 160.67 247.59 163.62 
M 309.87 75.1 306.67 78.75 299.95 87.32 295.54 93.28 291.1 99.67 286.67 106.64 280.25 119.1 
M 278.14 122.49 272.43 130.79 270.51 134.19 267.98 139.29 
M 266.22 142.61 264.27 145.81 
M 262.19 148.86 258.12 154.57 
M 254.57 160.14 252.83 162.96 
M 315.5 75.9 313.05 78.54 308.48 84.3 302.11 93.14 297.89 99.3 291.15 109.87 285.49 120.81 283.52 124.23 280.14 129.25 
M 277.85 132.64 275.71 136.03 
M 273.78 139.39 271.01 144.29 269.01 147.38 265.71 151.72 
M 257.69 162.69 255.92 165.38 
M 321.4 76.85 318.36 79.89 
M 315.92 82.69 312.57 87.12 304.39 99.22 298.91 107.64 
M 296.61 111.26 287.36 127.47 281.74 136.13 
M 277.51 142.82 275.55 145.99 
M 273.54 149 269.17 154.59 
M 266.92 157.29 262.76 162.66 
M 257.06 170.29 253.19 174.63 
M 327.65 77.92 323.88 81.53 321.35 84.26 319.04 87.14 314.04 94.8 
M 312.03 97.89 304.18 109.26 299.47 116.38 289.92 132.33 
M 287.72 135.92 280.22 147.7 277.17 152.07 
M 270.6 160.14 264.22 167.91 
M 334.13 79.04 328.35 84.75 325.93 87.55 323.74 90.48 317.8 99.82 309.49 111.09 
M 307 114.52 304.56 118.01 
M 302.24 121.47 295.71 131.63 
M 293.55 135.13 291.4 138.74 
M 289.28 142.39 285.16 149.18 
M 283.11 152.19 278.93 157.75 
M 276.75 160.41 274.53 163.02 
M 272.29 165.55 270.05 168.02 
M 267.82 170.43 265.63 172.73 
M 259.28 178.37 258.2 179.18 
M 340.61 80.13 335.53 85.32 333.03 88.12 330.7 91.03 328.59 94.04 324.63 100.28 321.25 105.03 
M 318.77 108.18 313.58 114.6 
M 311.01 117.95 299.41 134.37 
M 297.24 137.74 293.07 144.92 
M 291.07 148.5 288.09 153.47 285.01 157.83 
M 280.73 163.23 278.48 165.76 
M 273.84 170.46 271.53 172.69 
M 346.97 81.12 342.7 85.75 337.75 91.61 335.43 94.66 329.09 104.01 326.77 107.13 316.29 119.67 307.82 131.11 
M 305.47 134.18 303.18 137.26 
M 298.88 143.88 296.87 147.46 
M 294.91 151.03 291.97 156.06 288.91 160.49 
M 279.96 170.45 275.27 174.61 
M 272.98 176.56 270.79 178.34 
M 353.18 82.15 349.68 86.08 344.79 92 339.95 98.35 333.08 107.82 330.68 110.87 324.18 118.46 
M 321.58 121.6 308.17 138.83 304.8 143.49 
M 302.7 146.81 296.79 157.06 
M 294.79 160.16 291.68 164.42 288.37 168.16 
M 359.18 83.2 351.7 92.35 340.54 106.94 
M 338.07 110.1 326.75 123.76 319.35 133.23 313.28 140.69 
M 308.72 146.7 306.61 149.92 
M 304.57 153.22 302.58 156.51 
M 298.55 162.61 296.51 165.33 
M 289.92 172.35 287.53 174.35 
M 364.66 84.48 348.54 105.74 335.45 121.49 326.89 132.28 
M 324.45 135.34 314.91 146.97 
M 310.57 152.99 304.35 162.07 
M 302.34 164.82 300.38 167.38 
M 370 85.8 366.95 89.82 360.47 99.17 355.41 105.92 342.95 120.69 
M 340.37 123.81 331.88 134.56 325.81 141.86 
M 314.55 155.99 312.41 158.85 
M 306.24 166.88 304.32 169.26 
M 302.41 171.48 299.39 174.55 298.28 175.48 
M 375.08 87.52 371.27 92.69 364.61 102.53 362.1 105.98 359.31 109.49 350.46 119.46 347.78 122.72 336.84 136.8 
M 334.45 139.71 328.41 146.72 322.82 153.62 
M 320.66 156.32 318.51 158.97 
M 316.35 161.59 314.24 164.13 
M 312.19 166.56 310.22 168.88 
M 380 89.27 375.4 95.6 368.38 105.95 365.73 109.51 353.75 122.81 349.95 127.88 
M 347.57 131.23 344.09 135.98 338.18 143.22 
M 335.76 146 323.51 160.8 320.32 164.4 
M 382.44 93.96 371.75 109.37 368.98 112.89 359.82 122.78 355.85 127.9 
M 353.44 131.4 347.7 139.62 339.44 149.35 
M 334.86 154.8 332.67 157.47 
M 330.53 160.09 328.43 162.61 
M 326.36 164.99 324.31 167.2 
M 382.44 101.79 374.94 112.73 370.65 117.95 
M 367.66 121.26 363.34 126.18 360.73 129.63 357.08 135.04 
M 354.74 138.52 353.58 140.2 350.07 144.61 
M 347.72 147.32 345.4 149.98 
M 340.85 155.33 338.62 158 
M 336.45 160.61 332.3 165.59 
M 382.44 110.02 378.21 116.18 375.47 119.8 367.14 129.86 363.34 135.12 
M 360.9 138.67 357.26 143.7 349.07 153.31 
M 338.23 166.14 336.23 168.53 
M 382.44 118.4 378.97 123.36 372.3 131.92 
M 369.68 135.29 367.16 138.7 
M 364.7 142.06 362.24 145.24 
M 359.77 148.21 357.39 151.06 
M 355.12 153.81 352.91 156.49 
M 350.71 159.11 348.52 161.69 
M 346.35 164.2 344.23 166.66 
M 382.44 126.75 378.59 132.01 
M 370.84 141.96 356.91 159.46 
M 350.29 167.17 348.15 169.54 
M 382.44 134.83 369.73 151.08 
M 367.45 153.96 360.95 162.25 
M 358.74 164.93 356.47 167.49 
M 382.44 143 373.59 154.16 
M 371.29 156.98 369.09 159.72 
M 364.84 165.03 362.67 167.56 
M 382.44 151.64 375.23 160.14 
M 372.96 162.77 370.79 165.33 
M 382.44 160.05 379.41 163.35 
M 189.11 72.11 190.48 70.32 191.25 68.77 192.18 66.33 192.72 63.63 193.42 61.3 196.02 57.7 199.82 49.13 200.85 47.4 202.07 45.76 203.92 44.58 205.85 42.68 207.74 39.68 209.91 38.23 215.16 35.88 218.81 32.62 220.59 30.61 222.3 30 223.82 34.13 226.25 37.51 226.19 39.55 227.57 45.11 228.48 46.96 231.86 49.76 233.69 52.03 234.87 53.83 237.54 56.82 241.24 60.04 245.37 62.24 249.2 65.11 251.15 65.97 253.39 67.37 255.44 69.28 257.39 70.17 258.57 71.29 
M 263.99 71.3 263.99 71.3 
M 193.06 71.93 194.31 70.22 195.21 67.91 195.9 65.5 196.91 63.19 198.86 59.65 200.58 55.46 203.31 51.31 203.96 49.25 
M 197 71.75 198.36 69.86 199.97 65.4 200.46 63.45 203.58 56.32 206.14 52.88 207.77 51.92 208.23 49.71 209.42 47.18 
M 200.95 71.59 202.13 70.02 203.02 67.78 204.33 63.11 205.37 60.29 207.04 57.95 207.96 56.26 208.49 54.82 
M 204.9 71.51 206.4 70.11 207.11 68.1 207.52 65.77 209.97 60.89 211.21 58.98 212.18 56.95 214.06 55.56 214.99 54.11 216.54 52.87 218.32 51 
M 208.85 71.43 209.92 69.96 210.7 68.07 211.03 65.92 211.82 63.56 214.88 58.96 218.21 56.8 221.98 53.69 222.91 52.01 
M 212.8 71.37 213.77 70.21 213.97 68.44 214.76 65.76 216.1 63.38 217.7 61.38 218.73 59.74 
M 216.75 71.34 217.8 69.93 218.13 67.56 220.3 63.87 222.64 60.85 223.93 58.34 225.69 56.19 226.67 54.42 228.28 52.63 
M 220.7 71.3 221.78 69.62 222.75 67.71 223.41 65.73 224.7 64.05 225.25 62.6 
M 224.65 71.34 225.88 69.84 227.75 65.37 228.51 63.13 229.65 61.74 231.57 60.49 233.63 58.66 
M 228.59 71.39 230.18 69.31 231.52 65 234.11 61.81 235.75 60.1 237.85 59.39 
M 232.54 71.44 234.22 69.68 235.93 65.16 
M 236.49 71.47 238.01 70.15 238.82 67.9 239.85 65.82 
M 240.44 71.5 242.18 70.27 243.37 68.61 247.33 65.64 
M 244.39 71.47 246.6 71.27 248.17 70.18 
M 248.34 71.39 250.77 71.07 251.84 69.57 
M 252.29 71.3 254.84 71.05 
M 256.24 71.28 256.24 71.28 
M 260.19 71.29 260.19 71.29 
M 131.21 126.26 146.68 120.23 147.01 120.94 132.41 128.84 
M 131.33 129.37 163.79 118.83 164.06 119.57 132.29 132.05 
M 131.45 132.49 168.1 124.04 168.29 124.8 132.17 135.25 
M 131.58 135.63 172.9 129.82 173.03 130.6 132.04 138.43 
M 131.71 138.77 170.97 136.88 171.03 137.67 131.92 141.61 
M 131.83 141.93 170.53 143.56 170.52 144.35 131.79 144.77 
M 131.96 145.09 171.52 150.32 171.43 151.1 131.66 147.92 
M 132.09 148.27 163.44 155.53 163.29 156.3 131.53 151.06 
M 132.21 151.46 158.7 160.31 158.48 161.07 131.41 154.19 
M 132.98 154.59 147.37 161.32 147.08 162.05 131.29 156.93 
M 145.55 121.73 149.01 122.33 152.41 122.45 155.72 121.86 160.55 119.88 
M 160.88 120.82 160.91 122.39 161.29 123.65 162.22 124.43 164.43 124.88 
M 164.68 125.84 164.83 127.53 165.34 128.91 166.39 129.8 168.77 130.4 
M 168.93 131.38 167 132.85 166.41 134.05 166.5 135.48 167.04 137.07 
M 167.12 138.06 165.6 139.72 165.32 140.89 165.75 142.12 166.66 143.4 
M 166.65 144.39 165.6 146.42 165.62 147.65 166.36 148.76 167.56 149.8 
M 167.46 150.79 165.37 150.79 163.52 151.21 162.02 152.27 160.31 154.8 
M 160.11 155.78 157.85 155.98 156.82 156.65 156.28 157.86 156.05 159.42 
M 155.77 160.38 153.55 159.41 151.33 158.93 149.14 159.17 145.87 160.61 
M 160.87 121.63 161.04 123.07 161.29 123.65 162.22 124.43 163.63 124.79 
M 164.73 126.71 165.02 128.28 165.34 128.91 166.39 129.8 167.91 130.25 
M 168.21 131.84 167 132.85 166.61 133.42 166.37 134.74 166.74 136.27 
M 166.53 138.61 165.6 139.72 165.32 140.89 165.45 141.5 166.18 142.76 
M 166.22 145.08 165.6 146.42 165.62 147.65 165.91 148.22 166.93 149.29 
M 166.4 150.76 164.4 150.93 163.52 151.21 162.02 152.27 160.84 153.89 
M 159.3 155.78 157.85 155.98 156.82 156.65 156.49 157.19 156.14 158.62 
M 178.42 184.7 180.77 187.53 184.07 192.12 187.3 196.09 189.33 197.28 192.94 203.1 195.31 205.67 198.03 207.83 199.61 209.86 200.72 212.45 202.33 214.23 206.38 216.59 212.17 223.19 212.8 225.83 212.07 233.19 211.1 235.36 209.79 237.2 208.17 238.71 207.3 240.92 207.04 243.3 207.6 246.49 207.71 249.24 205.05 252.79 201.78 259.4 199.71 260.66 198.52 262.8 196.84 264.44 194.53 268.75 193.23 270.76 191.22 272.06 189.23 275.61 180.48 280 180.99 278.43 180.62 277.03 179.55 274.38 179.16 270.52 179.96 265.26 179.47 264.01 179.53 262.39 179.19 259.74 179.44 254.68 179.26 252.11 177.89 244.57 177.03 242.47 175.27 236.99 174.8 234.54 174.16 229.46 174.32 226.47 174.05 224.43 173.52 222.45 173.62 219.56 172.94 214.89 172.04 212.6 171.67 209.85 171.87 207.76 170.74 201.38 170.93 198.89 170.61 196.11 169.74 191.27 167.72 182.84 
M 176.86 184.43 182.13 191.72 183.28 194.09 184.57 196.18 187.96 199.59 189.54 201.51 190.48 204.01 193.48 207.24 195.19 210.09 197.28 212.12 198.32 214.66 200.46 217.18 202.99 219.72 206.25 223.83 208.15 224.9 
M 175.3 184.16 179.84 191.46 182.2 196.3 183.91 198.67 185.7 200.44 187.14 202.3 188.4 204.36 189.1 206.54 192.2 210.94 193.15 213.38 193.84 216.01 195.27 218.38 199.32 223.85 204.12 229.8 
M 173.75 183.89 175.39 186.55 176.4 189.09 178.95 193.8 181.27 198.5 182.61 200.5 184.37 202.71 187.49 209.03 188.99 210.85 189.56 213.85 190.79 216.6 191.53 219.29 192.68 221.84 195.27 225.94 198.66 232.47 201.83 236.98 202.25 239.48 202.95 241.64 204.05 242.6 
M 172.19 183.62 174.53 188.95 175.36 191.44 176.4 193.4 179.57 200.77 181.59 204.86 184.13 209.33 186.29 213.91 188.22 220.62 188.32 222.55 189.29 224.34 192.61 232.59 192.96 235.02 194.89 239.18 196.95 244.8 199.45 249.94 
M 170.63 183.35 173.35 191.34 174.28 193.55 174.91 195.8 176.77 200.7 177.23 203.15 178.74 207.62 179.4 210.06 180.76 212.24 183.12 217.51 183.91 220.46 184.64 224.89 186.4 229.67 186.19 231.81 
M 169.08 183.08 172.87 196.25 173 198.96 174.1 203.7 174.86 205.79 175.16 207.79 175.15 209.88 175.68 212.38 177.93 216.74 177.84 224.58 178.36 227.06 179.3 229.11 179.78 231.59 179.98 233.56 181.52 239.29 182.83 242.6 184.5 244.97 183.68 247.33 183.59 249.79 184.17 251.98 184.75 256.98 184.54 259.29 
M 349.56 176.52 353.99 181.76 357.04 186.35 352.72 185.55 348.72 186.97 343.09 186.12 340.34 186.32 338.9 188.16 336.82 189.14 332.32 190.13 326.75 190.33 324.11 190.6 321.8 191.37 318.07 193.5 316.64 195.42 314.55 196.62 312.1 197.03 309.85 197.68 307.62 198.57 305.81 200.06 303.68 201.01 301.97 202 299.01 201.62 297.19 202.68 295.98 204.83 291.77 207.31 289.92 208.79 288.65 210.76 287.09 212.18 280.73 213.24 279.35 215.87 279.08 214.05 278.27 211.3 277.62 207.58 275.75 205.42 274.38 202.96 271.2 198.12 268.49 193.53 267.23 190.81 263.99 184.94 
M 345.64 177.03 349.38 181.88 351.95 184.85 
M 341.73 177.53 347.11 185.13 
M 337.81 178.06 343.74 184.91 
M 333.91 178.67 337.14 183.73 
M 330.01 179.28 332.96 184.14 335.4 187.48 
M 326.11 179.94 329.51 184.17 331.85 186.67 
M 322.23 180.65 328.71 189.26 
M 318.34 181.35 323.51 187.2 325.36 189.69 
M 314.44 181.98 317.88 185.28 320.94 187.79 
M 310.54 182.57 313.01 186.7 314.99 189.28 316.48 190.88 
M 306.63 183.16 310.68 190.04 312.96 192.4 314.51 194.34 
M 302.7 183.48 305.05 186.84 306.64 189.86 308.35 192.46 310.48 194.03 
M 298.76 183.79 301.21 187.19 303.2 189.43 304.66 192.61 
M 294.82 184.06 297.67 187.86 299.14 190.81 300.11 193.8 303.3 197.54 304.71 200.38 
M 290.87 184.23 293.79 187.85 295.52 190.74 296.57 193.93 
M 286.93 184.4 291.63 190.48 293.19 193.25 294.87 198.36 296.35 200.65 
M 282.98 184.53 285.32 187.77 288.77 193.16 290.71 195.65 293.06 200.87 
M 279.03 184.63 282.23 190.51 283.93 193.23 286.3 195.37 
M 275.08 184.72 279.87 192.34 282.29 197.3 284.99 200.37 286.5 202.71 
M 271.13 184.8 273.51 187.97 276.39 194.51 279.3 199.77 281.51 202.55 282.94 204.97 
M 267.18 184.88 269.51 188.09 270.75 190.67 271.61 193.63 273.12 195.44 274.3 198.2 275.64 200.37 278.07 202.68 
M 381.65 89.87 384.32 89.1 388.42 87.07 392.22 84.73 396.31 81.67 398.69 80.25 401.02 79.38 402.8 78.31 404.21 76.7 406.35 75.41 408.84 74.63 411.32 73.56 414.11 72.98 415.91 71.55 418.33 70.32 420.42 69.03 422.73 67.23 426.61 64.54 427.87 62.89 429.11 61.7 431.17 60.67 436.98 55.98 438.92 54.24 443.31 52.27 445.92 50.82 447.78 49.01 449.26 48.01 451.58 47.86 454.01 46.69 456.9 46.19 458.62 44.29 459.94 43.24 464.76 40.32 466.71 39.6 468.57 37.26 460.69 50.31 459.01 54.88 457.94 56.93 457.42 59.54 456.03 64.4 455.59 67.19 454.24 69.13 453.3 71.47 451.48 72.94 449.32 74.07 447.95 75.98 445.94 80.52 445.14 82.98 440.76 88.4 438.79 92.98 437 94.47 433.92 97.95 431.56 101.97 430.66 104.27 429.34 106.13 428.6 108.58 427.32 110.64 425.06 111.72 423.32 113.33 421.46 114.77 420.65 117.12 418.61 121.3 418.09 123.74 416.84 125.43 416.62 127.74 416.69 129.83 417.28 132.44 417.23 135.39 415.31 139.97 414.81 142.3 415.21 148.35 415.08 150.27 416.37 152.74 418.01 154.42 419.32 156.45 421.49 161.55 423 172.56 425.45 177.11 427.74 182.14 428.08 186.61 428.63 189.23 428.76 194.58 431.34 203.03 428.84 201.13 426.62 200.19 424.42 197.87 422.3 196.61 421.13 196.64 419.36 196.22 417.32 194.37 412.98 191.86 409.55 189.39 407.42 187.21 402.97 184.73 401.15 183.9 397.72 181.41 395.58 179.48 390.4 176.84 388.47 175.54 386.51 173.76 381.65 169.78 
M 389 91.61 391.19 90.61 396.93 86.15 399.22 84.99 401.74 84.14 403.86 82.65 406.36 81.64 408.41 80.32 410.08 79.53 412.66 78.9 415.31 77.68 417.52 76.26 419.72 75.68 421.68 74.73 426.16 71.86 427.92 70.22 
M 388.95 95.86 393.34 94.25 395.6 92.53 397.85 91.33 400.65 90.19 402.78 89.03 409.06 86.55 410.67 86.58 412.4 86.25 415.05 85.35 420.08 82.93 
M 381.65 101.85 384.4 101.49 391.24 99.17 395.71 97.04 400.44 95.19 403.34 94.29 406.19 94.06 408.54 93.68 411.42 91.74 412.81 90.21 415.57 89.89 421.28 88.74 423.76 88.66 425.9 87.3 427.98 85.4 430.36 83.6 432.21 82.49 
M 381.65 105.85 384.73 105.74 389.47 104.66 391.89 103.85 394.39 102.71 396.73 101.96 398.72 100.93 400.6 100.78 403.23 100.19 405.98 99.05 408.68 98.7 410.98 98.01 412.51 96.75 416.43 95.36 
M 387.43 109.77 390.03 109.43 395.2 108.07 398.43 106.89 401.75 105.3 405.93 104.99 408.57 103.81 411.33 103.06 413.57 103.46 415.76 102.79 421.11 102.59 
M 384.82 113.84 392.54 113.17 395.24 112.42 398.67 112.54 401.13 111.97 405.8 109.48 409.74 109.04 
M 390.48 117.94 392.93 117.4 398.71 117.35 401.46 117.09 403.37 116.64 407.2 114.93 413.37 116.44 
M 387.26 122.58 389.6 122.48 396.03 123.39 401.6 122.54 402.94 121.27 404.55 121.6 410.77 122.03 
M 387.33 127.39 389.86 127.11 396.37 127.82 398.89 127.65 401.66 127.8 403.75 127.23 405.31 126.52 407.91 126.94 
M 381.65 129.82 384.79 131.23 387.4 131.63 389.79 131.77 392.72 132.66 395.58 132.78 397.56 132.56 399.88 133.03 404.66 132.36 407.42 132.24 411.19 133.35 414.85 133.78 
M 385.17 135.01 392.75 136.15 398.81 137.88 401.57 138.16 403.57 137.29 
M 381.65 137.81 387.9 139.94 390.47 139.94 392.82 140.21 398.41 142.18 401.29 142.9 403.28 142.92 404.11 143.32 406.37 143.17 
M 385.15 143.29 387.76 144.36 390.7 144.84 393.52 145.79 396.3 146.49 401.08 147.43 402.56 148.04 406.4 150.62 410.02 151.38 411.62 152.01 
M 381.65 145.81 385.41 147.03 388.25 148.61 391.08 149.87 393.46 150.26 397.65 152.03 400.11 152.73 402.89 152.97 404.79 154.3 407.57 155.32 410.23 155.82 413.34 156.04 
M 388.08 152.69 390.97 154.04 393.34 154.88 395.64 156.07 397.2 157.62 399.39 158.4 402.51 159.19 407.67 161.91 409.36 161.66 411.98 162.01 417.23 164.09 418.92 164.58 
M 384.99 155.51 387.86 157.13 397.04 160.78 401.54 163.15 404.06 164.88 406.92 166.37 411.72 167.3 413.55 168.62 
M 389.46 161.92 393.97 164.08 398.27 166.94 404.15 169.12 406.04 170.49 408.51 171.76 411.41 172.59 415.15 174.81 417.77 175.95 420.5 177.85 
M 386.93 164.83 389.2 166.57 391.29 167.9 393.28 169.7 395.55 170.97 397.21 172.5 399.35 173.94 402.58 174.75 407.05 176.15 411.34 178.95 414.28 180.02 422.09 183.79 423.95 186.06 425.58 187.46 427.05 189.12 
M 384.15 167.9 388.9 171.05 391.04 172.65 397.86 176.9 400.45 178.01 402.64 178.52 404.32 180.08 
M 369.6 171.49 366.47 172.08 365 172.77 362.44 174.67 360.84 174.55 358.59 173.34 360.26 175.01 
M 73.84 128.64 74.07 126.54 75.59 121 76.61 117.94 78.04 115.08 82.44 108.25 85.12 104.54 88.07 101.03 91.24 97.63 94.69 94.48 98.2 91.62 105.16 86.77 108.29 84.85 110.99 83.44 114.23 82.01 117.51 86.54 119.18 91.3 123.14 100.76 124.82 105.52 125.96 110.35 127.68 120.06 127.67 125.02 127.98 129.94 128.06 134.89 127.4 144.88 127.83 149.79 128.09 159.67 127.8 164.66 126.91 169.72 124.97 174.82 117.24 174.17 111.45 172.96 106.36 171.29 101.78 169.17 97.63 166.82 93.95 164.35 90.18 161.52 86.46 158.47 83.29 155.34 80.85 152.16 
M 112.68 111.93 113.22 116.08 112.52 124.05 111.92 127.67 110.16 134.18 110.31 139.75 111.23 145.67 111.42 149.26 110.94 153.4 101.9 153.32 98.32 152.92 94.85 152.1 91.52 150.9 88.44 149.27 85.21 146.94 
M 79.71 151.48 77.85 147.01 75.28 141.43 71.58 132.17 71.37 130.21 72.6 128.61 74.66 128.66 75.99 130.15 77.35 137.97 79.46 145.77 80.88 152.31 
M 80.33 152.82 69.12 148.01 58.63 142.99 53.21 140.81 51.61 139.66 51.42 137.72 52.86 136.26 54.84 136.35 59.72 139.17 63.02 141.42 69.82 145.66 80.69 152.07 
M 86.41 124.14 84.53 121.51 83.61 118.41 83.74 115.19 84.92 112.18 87 109.72 89.78 108.06 92.94 107.4 96.14 107.8 99.04 109.22 101.33 111.5 102.75 114.4 103.15 117.61 102.48 120.77 100.83 123.54 98.37 125.63 95.36 126.8 92.13 126.94 89.04 126.01 86.41 124.14 
M 99.73 112.64 100.87 114.96 101.19 117.53 100.66 120.05 99.33 122.27 97.36 123.94 94.95 124.88 92.37 124.99 89.9 124.25 87.8 122.75 
M 89.98 119.38 89.23 118.33 88.86 117.09 88.91 115.8 89.38 114.6 90.22 113.62 91.33 112.95 92.59 112.69 93.87 112.85 95.03 113.42 95.95 114.33 96.51 115.49 96.67 116.77 96.41 118.04 95.75 119.15 94.76 119.98 93.56 120.45 92.27 120.5 91.03 120.13 89.98 119.38 
M 89.68 117.06 93.09 120.47 
M 91.97 117.22 94.74 119.99 
M 90.58 113.7 95.85 118.97 
M 93.41 114.39 96.52 117.5 
M 94.33 113.17 96.39 115.24 
M 78.28 141.35 79.4 142.47 
M 76.84 135.17 78.15 136.48 
M 73.96 127.55 76.89 130.48 
M 74.78 123.63 78.25 127.1 
M 75.92 120.02 79.57 123.68 
M 77.26 116.63 81.82 121.19 
M 78.98 113.61 83.26 117.89 
M 80.83 110.72 83.24 113.13 
M 82.72 107.87 85.89 111.04 
M 84.7 105.11 87.9 108.31 
M 86.83 102.5 91.02 106.7 
M 89.05 99.98 93.08 104.01 
M 91.34 97.54 94.67 100.86 
M 93.82 95.28 98.46 99.92 
M 96.38 93.1 99.12 95.83 
M 99.04 91.02 103.31 95.28 
M 101.81 89.05 105.32 92.56 
M 104.64 87.13 109.07 91.57 
M 107.55 85.3 111.18 88.94 
M 110.61 83.63 114.45 87.47 
M 113.88 82.16 114.86 83.13 
M 127.51 156.04 127.43 156.54 127.99 157.18 
M 91.69 107.66 92.02 105.61 92.39 104.75 92.75 104.42 
M 85.98 131.52 86.26 129.91 86.01 127.99 85.8 127.61 85.29 127.3 84.89 127.37 84.4 127.9 
M 120.9 101.65 119.31 100.3 117.47 97.76 116.48 95.84 115.95 93.72 114.87 92.73 
M 112.57 121.64 111.44 124.08 111.59 124.48 112.15 124.65 
M 96.98 94.73 95.52 93.81 
M 115.43 128.68 116.04 129.58 116.56 129.9 
M 108.87 100.46 109.85 97.67 110.38 95.25 110.38 94.16 110.13 93.18 109.56 92.38 108.09 91.75 
M 119.99 107.19 118.58 107.38 117.22 107.98 116.64 108.42 114.87 110.27 114.3 111.79 
M 103.83 160.13 105.13 157.62 105.55 157.21 107 156.4 107.89 156.17 108.45 156.25 
M 91.04 146.63 87.08 141.77 86.55 140.6 86.62 140.13 86.98 139.47 
M 77.66 139.22 82.93 135.14 86.58 133.75 87.02 133.44 87.64 132.3 
M 80.94 149.72 80.55 150.66 
M 110.14 102.94 111.43 102.43 111.82 101.89 113.57 96.85 113.81 96.02 113.78 95.29 113.02 93.25 
M 117.03 128.12 117.34 128.68 120.73 131.83 
M 102.82 96.1 100.16 93.78 98.16 91.65 
M 79.82 147.31 81.63 145.3 83.09 142.28 83.81 141.26 84.44 140.79 
M 99.88 153.74 102.08 153.2 104.78 151.87 106.47 150.56 107.76 149.01 108.23 148.77 
M 96.08 150.94 95.88 147.66 95.47 146.73 
M 121.33 156.86 121.41 156.2 121.75 155.5 123.5 153.13 123.95 151.93 124.27 149.72 124.16 149.15 123.39 147.76 
M 108.39 123.34 108.47 123.01 108.78 122.78 109.41 122.93 
M 90.65 134.74 90.22 133.05 90.19 128.1 89.95 127.15 
M 98.44 137.54 96.94 139.58 96.66 140.12 96.37 141.95 95.01 143.81 
M 120.23 130.5 120.83 130.8 121.55 130.9 121.89 130.78 122.23 130.36 
M 108.47 104.38 110.07 104.66 112.89 105.81 113.88 106.3 114.73 106.98 115.09 107.72 115.1 108.36 114.93 109.27 114.33 110.78 
M 106.71 113.52 107.05 113.09 108.06 112.61 108.86 112.46 109.46 112.53 110.99 113.13 113.23 114.33 
M 84.68 112.79 83.91 111.98 83.53 111.83 82.35 111.88 
M 78.62 142.52 79.24 141.68 80.35 139.08 82.58 136.9 83.68 135.55 84.36 135.12 86.95 134.1 
M 85.81 149.46 83.82 147.3 83.5 146.75 83.12 144.33 83.12 143.47 83.55 142.46 84.16 141.66 
M 126.06 141.99 124.41 141.97 123.25 141.43 121.92 141.28 120.73 140.95 120.22 140.99 118.98 141.49 117.87 141.47 
M 124.35 158.81 124.18 158.11 124.24 157.53 124.71 157.19 125.1 157.21 
M 77.44 138.35 78.53 137.8 82.36 135.11 86.13 133.83 
M 89.8 133.74 89.73 129.39 89.16 127.66 88.79 127.09 87.42 125.98 86.75 125.76 85.62 125.76 
M 103.22 156.48 105.03 155.4 105.99 155.14 108.1 156 
M 78.47 133.25 79.11 134.63 79.53 134.69 79.89 134.45 
M 100.59 139.54 99.98 140.46 99.77 140.94 99.85 141.24 100.44 141.54 101.52 141.59 102.12 141.41 102.34 141.07 
M 86.98 140.79 86.89 139.97 87.27 139.38 89.02 138.49 90.88 138.2 
M 114.88 97.44 115.21 95.33 114.89 93.81 113.95 92.85 112.7 92.28 
M 122.52 172.62 123.27 171.75 123.6 168.89 123.22 167.94 122.62 167.07 
M 126.43 139.56 124.74 138.65 122.87 138.37 121.77 138.48 120.76 138.82 118.9 139.76 116.28 141.39 
M 118.51 124.96 117.27 127.47 117.21 127.89 117.36 128.31 
M 80.84 152.32 80.99 152.78 
M 78.48 148.54 78.04 149.28 78.73 149.12 
M 76.91 144.98 76.06 145.49 75.34 146.52 76.2 145.94 77.32 145.84 
M 75.33 141.54 73.75 142.33 72.63 143.77 73.89 142.78 75.73 142.48 
M 73.99 138.01 71.44 139.18 69.93 141.01 71.59 139.63 74.39 139.05 
M 72.52 134.56 69.13 136.02 67.22 138.25 69.28 136.47 72.98 135.62 
M 71.45 130.95 66.82 132.86 64.51 135.5 66.97 133.31 71.59 132.18 
M 80.04 151.68 81.45 152.39 
M 77.23 150.06 78.43 149.57 78.44 150.71 
M 74.35 148.36 75.29 147.44 76.11 147.11 75.71 147.65 75.51 149.06 
M 71.49 146.61 72.67 145.2 73.8 144.64 73.09 145.41 72.62 147.29 
M 68.6 144.9 70.04 142.95 71.48 142.18 70.47 143.17 69.71 145.59 
M 65.78 143.08 67.42 140.71 69.16 139.72 67.84 140.92 66.86 143.76 
M 62.9 141.34 64.8 138.46 66.85 137.25 65.22 138.68 63.98 142 
M 60.12 139.44 62.18 136.22 64.53 134.79 62.6 136.44 61.16 140.12 
M 57.25 137.7 59.55 133.98 62.21 132.33 59.97 134.19 58.3 138.32 
M 54.14 136.32 56.93 131.73 59.89 129.86 57.35 131.95 55.39 136.65 
M 59.49 143.39 65.21 148.01 69.09 150.79 73.08 153.4 77.15 155.76 81.38 157.82 90.18 161.52 
M 90.18 161.52 90.18 161.52 
M 114.51 82.38 123.19 91.07 
M 119.13 80.69 126.63 88.19 
M 124.16 79.4 131.25 86.49 
M 129.54 78.46 137.84 86.76 
M 134.99 77.59 143.01 85.61 
M 140.75 77.03 147.89 84.17 
M 146.55 76.52 154.92 84.89 
M 152.41 76.06 160.2 83.84 
M 158.22 75.55 163.63 80.95 
M 163.85 74.86 173.23 84.24 
M 169.48 74.17 176.07 80.76 
M 175.11 73.48 181.65 80.01 
M 180.81 72.86 189.36 81.4 
M 186.61 72.33 194.44 80.16 
M 192.54 71.95 201.89 81.29 
M 198.58 71.67 206.49 79.58 
M 204.74 71.51 210.08 76.85 
M 210.94 71.39 220.41 80.86 
M 217.2 71.33 222.59 76.72 
M 223.52 71.33 232.87 80.68 
M 229.92 71.41 236.1 77.59 
M 236.29 71.46 242.22 77.39 
M 242.66 71.51 251.94 80.79 
M 248.84 71.38 257.41 79.95 
M 255.07 71.28 263.13 79.35 
M 261.4 71.29 270.78 80.67 
M 267.94 71.52 274.23 77.8 
M 274.63 71.89 283.94 81.2 
M 281.48 72.41 290.81 81.75 
M 288.35 72.97 296.82 81.44 
M 295.27 73.57 301.2 79.5 
M 302.25 74.23 309.75 81.73 
M 309.37 75.03 317.29 82.95 
M 316.73 76.07 322.78 82.12 
M 324.33 77.35 333.54 86.56 
M 331.96 78.67 336.92 83.62 
M 339.59 79.97 346.77 87.15 
M 347.07 81.13 353.74 87.8 
M 354.67 82.41 363.68 91.43 
M 362.52 83.95 368.04 89.46 
M 370.93 86.03 377.41 92.52 
M 380.76 89.55 385.66 94.44 
M 141.14 173.22 142.56 176.04 
M 130.91 147.21 131.61 148.63 
M 141.5 168.41 142.21 169.82 
M 142.92 171.24 145.92 177.23 
M 139.18 158.23 139.75 159.36 
M 144.69 169.26 148.22 176.32 
M 147.13 168.61 148.55 171.44 
M 146.03 160.86 147.44 163.69 
M 148.12 159.52 149.86 163.01 
M 126.14 110.04 129.67 117.1 
M 133.21 124.17 134.36 126.47 
M 114.79 81.81 116.36 84.95 
M 118.34 88.91 124.33 100.89 
M 128.57 109.37 129.98 112.19 
M 134.22 120.67 136.64 125.5 
M 117.24 81.18 126.07 98.84 
M 137.38 121.45 138.92 124.54 
M 119.69 80.55 127.11 95.39 
M 131.35 103.86 134.88 110.93 
M 162.44 166.04 163.85 168.86 
M 122.14 79.92 131.68 98.99 
M 133.09 101.82 137.33 110.3 
M 164.88 165.41 167.71 171.06 
M 173.36 182.36 174.16 183.96 
M 124.59 79.29 124.94 79.99 
M 127.77 85.64 133.42 96.95 
M 136.25 102.6 139.07 108.25 
M 167.33 164.77 169.45 169.01 
M 175.81 181.73 176.68 183.46 
M 129.61 83.79 137.38 99.33 
M 138.09 100.75 142.32 109.23 
M 170.59 165.75 171.29 167.16 
M 130.05 79.14 143.47 105.99 
M 165.86 150.78 168.91 156.86 
M 174.56 168.17 175.97 170.99 
M 132.26 78.03 147.45 108.41 
M 165.99 145.5 170.05 153.63 
M 134.82 77.62 140.11 88.22 
M 142.94 93.87 149.3 106.59 
M 150.71 109.41 152.83 113.65 
M 153.54 115.07 156.76 121.5 
M 166.26 140.5 169.79 147.57 
M 137.43 77.33 142.03 86.51 
M 146.27 94.99 149.8 102.06 
M 154.04 110.54 154.74 111.95 
M 155.45 113.36 156.16 114.78 
M 158.28 119.01 159.06 120.57 
M 166.76 135.97 168.88 140.21 
M 169.58 141.62 170.29 143.04 
M 174.53 151.52 176.65 155.75 
M 140.08 77.09 144.67 86.28 
M 149.62 96.17 152.45 101.82 
M 155.98 108.89 157.39 111.71 
M 160.92 118.78 163.95 124.82 
M 164.71 126.36 165.16 127.26 
M 165.87 128.67 166.44 129.82 
M 168.7 134.32 170.11 137.15 
M 177.17 151.28 180 156.93 
M 142.73 76.86 147.32 86.04 
M 150.85 93.11 152.97 97.35 
M 154.39 100.17 160.04 111.48 
M 164.28 119.95 169.22 129.85 
M 170.64 132.67 171.34 134.08 
M 172.75 136.91 174.17 139.74 
M 178.41 148.22 181.23 153.87 
M 145.73 77.33 151.38 88.63 
M 153.5 92.87 161.98 109.83 
M 166.22 118.3 171.16 128.2 
M 176.11 138.09 176.81 139.5 
M 181.05 147.98 183.17 152.22 
M 183.88 153.63 184.59 155.04 
M 148.38 77.11 154.74 89.82 
M 155.45 91.24 161.81 103.95 
M 169.58 119.5 172.4 125.15 
M 178.06 136.45 179.47 139.28 
M 183.71 147.76 184.41 149.17 
M 150.69 76.19 164.47 103.75 
M 172.94 120.7 174.36 123.53 
M 178.6 132.01 180.72 136.25 
M 181.42 137.66 182.13 139.07 
M 182.84 140.48 184.96 144.72 
M 153.35 75.98 161.47 92.23 
M 162.18 93.65 167.13 103.54 
M 175.6 120.49 177.02 123.32 
M 184.79 138.86 186.2 141.69 
M 156.01 75.77 162.72 89.2 
M 164.84 93.44 169.79 103.33 
M 176.85 117.46 178.27 120.28 
M 186.04 135.83 188.86 141.48 
M 158.64 75.5 165.35 88.92 
M 166.76 91.75 172.41 103.05 
M 177.36 112.94 178.77 115.77 
M 179.48 117.18 180.18 118.59 
M 184.42 127.07 185.13 128.49 
M 186.54 131.31 190.08 138.38 
M 197.85 153.92 198.55 155.33 
M 161.24 75.18 167.95 88.6 
M 168.66 90.01 175.72 104.14 
M 179.26 111.21 181.38 115.45 
M 187.74 128.17 191.97 136.64 
M 192.68 138.06 197.63 147.95 
M 199.04 150.77 201.87 156.43 
M 208.93 170.56 209.64 171.97 
M 163.85 74.86 179.04 105.24 
M 182.57 112.3 184.69 116.54 
M 185.39 117.96 186.1 119.37 
M 189.63 126.43 195.29 137.74 
M 195.99 139.15 200.23 147.63 
M 203.06 153.28 203.76 154.69 
M 210.83 168.83 212.24 171.65 
M 166.45 74.54 181.64 104.92 
M 185.17 111.98 191.53 124.7 
M 192.24 126.11 202.13 145.9 
M 210.61 162.85 212.73 167.09 
M 216.97 175.57 217.67 176.98 
M 220.5 182.64 222.15 185.93 
M 169.06 74.22 182.83 101.77 
M 186.37 108.84 190.61 117.32 
M 192.02 120.14 193.43 122.97 
M 195.55 127.21 202.62 141.34 
M 204.74 145.58 205.44 146.99 
M 211.09 158.3 211.8 159.71 
M 213.92 163.95 216.75 169.6 
M 223.11 182.32 224.49 185.09 
M 171.66 73.9 172.72 76.02 
M 173.43 77.43 181.91 94.39 
M 183.32 97.22 186.85 104.28 
M 188.26 107.11 193.92 118.41 
M 198.16 126.89 204.52 139.61 
M 207.34 145.26 208.05 146.67 
M 213.7 157.98 215.11 160.8 
M 216.53 163.63 217.23 165.04 
M 176.03 77.11 180.27 85.59 
M 182.39 89.83 184.51 94.07 
M 187.34 99.72 188.75 102.55 
M 190.16 105.38 191.58 108.2 
M 192.28 109.61 193.7 112.44 
M 200.06 125.16 201.47 127.98 
M 205.71 136.46 207.12 139.29 
M 226.2 177.44 226.9 178.85 
M 177.93 75.38 180.76 81.03 
M 184.29 88.1 188.53 96.58 
M 204.07 127.67 206.19 131.9 
M 228.8 177.12 230.21 179.95 
M 179.49 72.98 181.26 76.51 
M 193.27 100.53 195.39 104.77 
M 196.8 107.6 197.51 109.01 
M 201.75 117.49 208.81 131.62 
M 221.53 157.05 222.24 158.47 
M 182.14 72.74 183.91 76.27 
M 185.32 79.1 191.68 91.81 
M 193.09 94.64 200.16 108.77 
M 205.81 120.08 212.17 132.79 
M 222.06 152.58 225.59 159.64 
M 184.78 72.5 204.21 111.36 
M 208.45 119.84 209.16 121.25 
M 211.99 126.9 215.52 133.97 
M 216.93 136.79 217.64 138.21 
M 224.7 152.34 227.53 157.99 
M 187.43 72.26 207.57 112.53 
M 208.98 115.36 209.69 116.77 
M 215.34 128.08 217.46 132.32 
M 219.58 136.55 220.99 139.38 
M 228.05 153.51 228.76 154.92 
M 190.1 72.06 196.81 85.49 
M 198.22 88.31 209.53 110.92 
M 218 127.88 219.42 130.7 
M 222.24 136.36 223.66 139.18 
M 229.31 150.49 232.13 156.14 
M 192.1 70.54 197.05 80.43 
M 201.29 88.91 211.88 110.11 
M 231.67 149.67 232.37 151.09 
M 241.56 169.46 242.26 170.87 
M 192.68 66.18 200.1 81.01 
M 203.63 88.08 214.94 110.69 
M 217.76 116.34 218.47 117.75 
M 194.93 65.14 202.7 80.68 
M 205.52 86.33 208.35 91.98 
M 209.06 93.4 221.07 117.42 
M 197.27 64.29 205.04 79.83 
M 207.86 85.48 209.28 88.31 
M 211.4 92.55 214.22 98.2 
M 214.93 99.61 224.11 117.98 
M 227.65 125.05 228.35 126.46 
M 236.13 142.01 238.95 147.66 
M 196.96 58.14 198.72 61.67 
M 199.43 63.08 207.2 78.63 
M 213.56 91.34 214.27 92.76 
M 215.68 95.58 222.04 108.3 
M 223.45 111.13 225.57 115.37 
M 227.69 119.6 230.52 125.26 
M 233.34 130.91 234.05 132.32 
M 234.76 133.74 243.23 150.69 
M 244.65 153.52 245.35 154.93 
M 255.95 176.13 257.36 178.95 
M 201.4 61.5 211.29 81.28 
M 215.53 89.76 216.95 92.59 
M 218.36 95.41 223.31 105.31 
M 224.72 108.13 239.56 137.81 
M 242.38 143.46 244.5 147.7 
M 246.62 151.94 248.03 154.76 
M 258.63 175.96 260.04 178.78 
M 202.67 58.51 216.8 86.77 
M 217.51 88.19 226.7 106.56 
M 228.11 109.38 228.82 110.8 
M 229.52 112.21 241.53 136.23 
M 245.77 144.71 247.19 147.54 
M 247.89 148.95 248.6 150.36 
M 249.3 151.77 250.01 153.19 
M 261.32 175.8 262.73 178.62 
M 200.98 49.6 201.33 50.3 
M 206.28 60.19 219 85.63 
M 222.53 92.69 228.18 104 
M 234.54 116.72 236.66 120.95 
M 238.07 123.78 242.31 132.26 
M 202.79 47.68 203.85 49.8 
M 208.08 58.28 217.27 76.65 
M 218.68 79.47 223.63 89.36 
M 225.04 92.19 231.4 104.91 
M 234.93 111.97 235.64 113.38 
M 236.35 114.8 238.47 119.04 
M 242.7 127.51 244.12 130.34 
M 259.66 161.43 260.37 162.84 
M 204.77 46.12 205.83 48.24 
M 213.6 63.78 218.55 73.67 
M 219.96 76.5 233.38 103.35 
M 237.62 111.83 241.16 118.89 
M 262.35 161.28 263.06 162.69 
M 206.49 44.03 208.97 48.98 
M 216.03 63.11 218.15 67.35 
M 218.86 68.76 235.81 102.67 
M 239.35 109.74 247.12 125.28 
M 264.78 160.61 265.49 162.02 
M 267.61 166.26 268.31 167.67 
M 269.73 170.5 270.43 171.91 
M 208.13 41.79 212.02 49.56 
M 216.97 59.45 219.79 65.1 
M 223.32 72.17 224.74 74.99 
M 226.15 77.82 236.04 97.6 
M 236.75 99.02 238.16 101.84 
M 240.99 107.49 244.52 114.56 
M 245.23 115.97 248.76 123.04 
M 256.53 138.58 257.94 141.41 
M 267.13 159.78 267.84 161.19 
M 268.54 162.6 272.07 169.67 
M 210.24 40.46 214.12 48.24 
M 218.36 56.71 222.6 65.19 
M 227.55 75.08 238.15 96.28 
M 239.56 99.11 241.68 103.34 
M 243.09 106.17 245.92 111.82 
M 258.63 137.26 260.75 141.5 
M 264.99 149.98 265.7 151.39 
M 270.65 161.28 274.18 168.34 
M 212.53 39.51 217.12 48.7 
M 219.94 54.35 225.6 65.65 
M 227.01 68.48 243.97 102.39 
M 245.38 105.22 246.79 108.04 
M 247.5 109.46 250.33 115.11 
M 260.92 136.31 263.75 141.96 
M 267.28 149.02 268.69 151.85 
M 272.93 160.33 274.35 163.15 
M 215.11 39.15 219.35 47.63 
M 220.06 49.04 220.76 50.46 
M 222.88 54.69 228.53 66 
M 229.95 68.83 246.2 101.33 
M 248.32 105.56 251.14 111.22 
M 263.15 135.24 263.86 136.65 
M 266.69 142.3 273.75 156.43 
M 217.06 37.52 223.42 50.24 
M 225.54 54.48 229.78 62.96 
M 232.6 68.61 253.8 111 
M 265.11 133.61 265.81 135.02 
M 268.64 140.68 271.46 146.33 
M 272.17 147.74 275.7 154.81 
M 220.4 38.67 225.35 48.56 
M 227.46 52.8 251.49 100.84 
M 252.19 102.26 255.73 109.32 
M 259.26 116.39 263.5 124.87 
M 267.03 131.93 268.44 134.76 
M 276.92 151.71 278.33 154.54 
M 222.89 38.12 225.01 42.36 
M 228.51 49.35 251.47 95.28 
M 254.29 100.93 257.12 106.58 
M 259.95 112.23 265.6 123.54 
M 269.84 132.02 271.25 134.84 
M 234.14 55.09 252.86 92.53 
M 262.75 112.31 270.52 127.86 
M 240.08 61.45 253.15 87.59 
M 257.39 96.07 261.63 104.55 
M 269.4 120.09 272.94 127.16 
M 288.48 158.24 290.6 162.48 
M 244.13 64 244.48 64.71 
M 247.3 70.36 263.55 102.86 
M 271.33 118.41 274.86 125.47 
M 291.11 157.97 293.94 163.62 
M 298.88 173.52 299.59 174.93 
M 248.63 67.49 252.87 75.96 
M 253.58 77.38 259.94 90.09 
M 262.76 95.75 266.29 102.81 
M 274.77 119.77 277.6 125.42 
M 293.14 156.51 295.26 160.75 
M 301.62 173.46 303.03 176.29 
M 305.15 180.53 305.99 182.2 
M 256.02 76.73 268.73 102.16 
M 277.92 120.53 280.04 124.77 
M 295.58 155.86 297.7 160.1 
M 256.06 71.28 257.12 73.4 
M 257.83 74.82 269.84 98.84 
M 279.73 118.62 281.85 122.86 
M 291.03 141.23 295.27 149.71 
M 299.51 158.19 301.63 162.42 
M 258.83 71.29 274.02 101.67 
M 275.43 104.5 276.14 105.91 
M 276.84 107.32 277.55 108.73 
M 281.08 115.8 283.2 120.04 
M 290.27 134.17 296.63 146.89 
M 297.33 148.3 298.04 149.71 
M 303.69 161.02 305.1 163.84 
M 261.59 71.29 266.89 81.89 
M 269.01 86.13 276.08 100.26 
M 276.78 101.67 285.26 118.63 
M 292.33 132.76 296.57 141.24 
M 299.39 146.89 300.1 148.31 
M 264.37 71.32 268.26 79.09 
M 271.79 86.16 276.74 96.05 
M 279.56 101.7 288.04 118.66 
M 290.87 124.31 297.23 137.03 
M 300.76 144.09 302.88 148.33 
M 267.22 71.48 270.39 77.84 
M 275.34 87.73 278.17 93.38 
M 279.58 96.21 280.29 97.62 
M 280.99 99.03 283.82 104.68 
M 285.94 108.92 293 123.05 
M 294.42 125.88 296.54 130.12 
M 302.89 142.84 306.43 149.9 
M 270.06 71.63 273.24 77.99 
M 277.48 86.47 279.6 90.71 
M 280.3 92.12 285.96 103.43 
M 290.19 111.91 300.09 131.69 
M 305.03 141.58 307.86 147.23 
M 272.9 71.79 277.49 80.98 
M 279.61 85.22 288.8 103.59 
M 292.33 110.65 297.28 120.54 
M 301.52 129.02 302.93 131.85 
M 307.17 140.32 310.7 147.39 
M 275.76 71.97 281.06 82.57 
M 281.76 83.98 288.12 96.7 
M 295.19 110.83 298.72 117.9 
M 304.37 129.2 305.78 132.03 
M 310.02 140.51 310.73 141.92 
M 311.44 143.33 312.14 144.74 
M 278.63 72.19 283.22 81.38 
M 283.93 82.79 291 96.92 
M 298.77 112.47 300.89 116.7 
M 305.13 125.18 307.95 130.84 
M 308.66 132.25 310.78 136.49 
M 281.51 72.41 293.16 95.73 
M 300.94 111.27 303.76 116.93 
M 310.83 131.06 312.24 133.88 
M 284.38 72.64 288.97 81.82 
M 290.39 84.65 296.04 95.95 
M 303.11 110.08 305.22 114.32 
M 310.88 125.63 315.12 134.1 
M 287.27 72.88 291.86 82.06 
M 293.27 84.89 301.04 100.43 
M 303.16 104.67 306.7 111.73 
M 310.23 118.8 317.29 132.93 
M 324.36 147.06 325.07 148.47 
M 290.16 73.13 294.04 80.9 
M 294.75 82.31 303.23 99.27 
M 305.35 103.51 308.17 109.16 
M 313.12 119.05 323.72 140.25 
M 325.13 143.07 327.96 148.72 
M 335.02 162.85 335.73 164.27 
M 293.05 73.38 306.12 99.52 
M 307.53 102.34 311.06 109.41 
M 311.77 110.82 312.48 112.23 
M 316.01 119.3 320.95 129.19 
M 321.66 130.6 326.61 140.5 
M 328.73 144.73 330.14 147.56 
M 336.5 160.28 340.74 168.76 
M 295.94 73.63 307.59 96.94 
M 309.71 101.18 328.79 139.33 
M 336.56 154.88 338.68 159.11 
M 339.39 160.53 340.09 161.94 
M 342.21 166.18 343.63 169.01 
M 346.45 174.66 347.52 176.79 
M 298.84 73.9 309.79 95.8 
M 311.91 100.04 316.85 109.93 
M 317.56 111.35 319.68 115.59 
M 321.8 119.82 328.87 133.96 
M 330.99 138.19 331.69 139.61 
M 336.64 149.5 338.05 152.32 
M 339.46 155.15 343 162.22 
M 348.65 173.52 350.11 176.45 
M 301.74 74.18 320.46 111.62 
M 324 118.69 331.06 132.82 
M 332.48 135.65 333.89 138.47 
M 339.54 149.78 340.95 152.6 
M 342.37 155.43 343.78 158.25 
M 349.43 169.56 350.14 170.97 
M 304.64 74.45 306.41 77.99 
M 308.53 82.23 310.65 86.47 
M 312.06 89.29 312.77 90.7 
M 313.48 92.12 315.6 96.36 
M 316.3 97.77 321.25 107.66 
M 326.19 117.55 329.02 123.2 
M 329.73 124.62 330.43 126.03 
M 331.14 127.44 333.97 133.1 
M 336.09 137.34 337.5 140.16 
M 343.15 151.47 343.86 152.88 
M 352.34 169.84 353.04 171.25 
M 310.75 81.13 311.45 82.54 
M 312.16 83.96 313.57 86.78 
M 318.52 96.67 319.93 99.5 
M 329.82 119.28 332.65 124.93 
M 334.06 127.76 335.48 130.59 
M 346.07 151.78 346.78 153.19 
M 354.55 168.74 356.67 172.98 
M 313.72 81.55 314.43 82.96 
M 319.38 92.86 322.2 98.51 
M 322.91 99.92 323.61 101.33 
M 327.85 109.81 334.92 123.94 
M 347.64 149.38 348.34 150.79 
M 357.53 169.16 358.23 170.57 
M 313.52 75.62 317.41 83.39 
M 319.52 87.63 326.59 101.76 
M 331.54 111.65 338.6 125.78 
M 347.79 144.15 351.32 151.21 
M 316.5 76.04 330.98 105.01 
M 333.81 110.66 335.93 114.9 
M 336.63 116.31 341.58 126.2 
M 342.99 129.03 344.4 131.85 
M 350.06 143.16 353.59 150.22 
M 319.5 76.53 336.81 111.15 
M 341.05 119.62 343.88 125.28 
M 345.29 128.1 347.41 132.34 
M 353.77 145.06 355.18 147.88 
M 322.53 77.04 322.88 77.75 
M 324.29 80.58 336.31 104.6 
M 337.72 107.42 338.42 108.84 
M 343.37 118.73 346.2 124.38 
M 348.32 128.62 349.73 131.45 
M 355.38 142.75 358.21 148.4 
M 327.32 81.1 337.92 102.29 
M 351.34 129.14 352.05 130.55 
M 357.7 141.86 358.41 143.27 
M 367.59 161.64 368.3 163.05 
M 329.64 80.2 340.94 102.81 
M 343.77 108.46 344.47 109.88 
M 331.95 79.31 334.07 83.55 
M 334.78 84.96 347.5 110.4 
M 334.63 79.12 335.69 81.24 
M 337.1 84.07 340.63 91.14 
M 341.34 92.55 350.52 110.92 
M 353.35 116.57 354.06 117.98 
M 361.12 132.11 365.36 140.59 
M 339.42 83.18 340.13 84.59 
M 341.54 87.42 348.6 101.55 
M 349.31 102.96 352.84 110.03 
M 353.55 111.44 357.08 118.5 
M 359.2 122.74 369.8 143.94 
M 370.51 145.35 371.92 148.18 
M 381.95 168.23 382.43 169.21 
M 341.72 82.25 343.13 85.08 
M 344.55 87.91 370.69 140.19 
M 372.1 143.02 374.22 147.25 
M 384.11 167.03 384.46 167.73 
M 344.01 81.31 345.43 84.13 
M 346.13 85.55 367.33 127.94 
M 371.57 136.42 372.98 139.24 
M 373.69 140.66 376.51 146.31 
M 348.42 84.6 355.49 98.73 
M 358.32 104.38 359.02 105.8 
M 359.73 107.21 363.26 114.28 
M 363.97 115.69 368.91 125.58 
M 351.42 85.07 357.78 97.79 
M 359.9 102.03 365.55 113.33 
M 366.97 116.16 367.67 117.57 
M 368.38 118.98 370.5 123.22 
M 352.69 82.07 359.4 95.49 
M 360.1 96.9 367.88 112.45 
M 370.7 118.1 371.41 119.51 
M 355.71 82.59 363.13 97.43 
M 365.25 101.67 373.73 118.63 
M 389.98 151.13 392.05 155.26 
M 358.74 83.12 362.63 90.89 
M 363.34 92.31 365.45 96.54 
M 366.87 99.37 375.35 116.33 
M 382.41 130.46 384.53 134.7 
M 361.84 83.78 365.01 90.13 
M 365.72 91.55 372.08 104.27 
M 372.79 105.68 373.49 107.09 
M 374.2 108.5 374.91 109.92 
M 384.09 128.29 386.92 133.94 
M 364.99 84.56 370.29 95.16 
M 371 96.57 376.65 107.87 
M 386.54 127.66 390.07 134.72 
M 368.15 85.34 372.74 94.53 
M 373.45 95.94 377.69 104.42 
M 388.28 125.61 390.4 129.85 
M 371.33 86.17 380.16 103.84 
M 382.99 109.49 384.4 112.31 
M 390.76 125.03 392.35 128.21 
M 374.69 87.38 382.11 102.21 
M 384.94 107.87 389.88 117.76 
M 378.06 88.58 378.41 89.29 
M 380.53 93.53 384.07 100.59 
M 385.48 103.42 391.92 116.29 
M 382.49 91.9 384.61 96.14 
M 388.14 103.21 392.35 111.63 
M 386.11 93.62 387.88 97.15 
M 392.05 105.51 392.35 106.1 
"/></svg>