<svg xmlns="http://www.w3.org/2000/svg" width="520" height="320"><rect x="0" y="0" width="520" height="320" fill="floralwhite"/><rect x="10" y="10" width="500" height="300" stroke="black" stroke-width="1" fill="none"/><path stroke="black" stroke-width="1" fill="none" stroke-linecap="round" stroke-linejoin="round" d="
M 152.03 107.06 163.06 103.4 174.05 101.14 196.02 98.77 218 95.3 228.99 94.02 239.98 93.37 250.96 93.07 261.95 92.95 283.93 93.24 294.91 92.92 305.9 92.95 316.89 93.74 338.87 96.05 349.85 97.4 360.84 99.4 404.79 108.94 415.78 112.45 426.77 117.51 427.91 118.75 
M 427.91 174.09 426.77 175.16 415.78 179.21 404.79 182.08 382.82 185.9 371.83 188.11 360.84 190.68 349.85 192.84 338.87 193.98 327.88 194.59 305.9 195.22 283.93 195.03 272.94 195.64 261.95 196.61 250.96 197.33 239.98 197.43 228.99 196.64 218 194.9 207.01 192.44 196.02 189.53 185.04 186.38 174.05 183.68 163.08 181.94 
M 164.33 122.04 165.73 118.02 165.73 111.49 162.94 103.44 
M 177.19 153.12 174.24 147.5 170.61 144.03 
M 163.2 103.75 163.58 103.29 
M 180.57 152.76 182.64 145 182.64 138.24 179.72 127.32 175.2 117.68 171.67 113.92 
M 181.59 141.87 183.15 140.92 189.71 132.91 193.94 123.85 193.94 118.24 189.71 109.17 183.15 101.17 181.67 100.27 
M 174.08 116.49 186.09 114.34 
M 176.22 120.99 185.95 121.59 
M 178.82 126.45 186.25 127.59 
M 196.43 151.99 195.02 149.71 191.05 146.53 
M 192.43 120.24 198.2 113.75 202.04 106.17 202.04 101.48 200.32 98.09 
M 183.6 100.5 189.83 99.39 
M 184.56 103.83 194.54 104.24 
M 188.71 108.81 194.95 109.68 
M 211.03 150.4 211.03 146.16 207.76 137.08 202.7 129.06 198.75 125.94 
M 200.67 103.86 201.77 103.45 208.25 98.54 209.71 96.61 
M 209.86 144.9 215.21 138.47 219.04 130.41 219.04 125.41 215.21 117.35 209.28 110.23 204.65 107.45 
M 199.71 123.82 211.89 122.25 
M 201.51 128.17 212.35 127.67 
M 204.47 132.78 212.65 133.73 
M 212.48 150.35 212.45 150.32 
M 216.48 119.6 218.54 116.58 221.33 109.36 221.33 104.89 218.54 97.68 217.02 95.45 
M 232.17 149.96 232.17 149.12 229.31 140.73 224.88 133.32 221.42 130.43 
M 218.59 147.53 226.56 145.67 
M 220.33 107.19 223.96 105.73 229.81 101.02 233.59 95.68 233.59 93.75 
M 217.49 96.83 226.5 98.24 
M 231.14 146.52 236.28 140.05 239.8 132.29 239.8 127.48 236.28 119.71 230.83 112.84 226.57 110.17 
M 236.58 120.8 239.68 116.74 242.83 109.51 242.83 105.04 239.68 97.81 236.45 93.58 
M 227.24 103.27 236.99 101.95 
M 226.86 106.8 236.87 107.31 
M 226.93 111.19 227.55 111.3 
M 229.16 111.6 237.41 113.13 
M 253.1 148.17 251.13 142.61 246.61 135.33 243.07 132.48 
M 244.66 112.05 249.85 110.34 256.49 105.97 260.78 101.02 260.78 97.96 256.5 93.01 
M 255.42 148.36 260.36 142.91 264.17 135.53 264.17 130.96 260.36 123.58 254.45 117.07 249.84 114.53 
M 260.21 100.99 264.91 100 270.92 97.44 274.81 94.55 274.81 93.15 
M 262.8 129.36 263.2 129.16 268.93 123.58 272.63 117.26 272.63 113.35 268.93 107.03 263.2 101.45 261.45 100.6 
M 275.43 148.85 274.68 146.89 270.12 140.07 266.56 137.4 
M 272.89 119.54 277.97 117.98 284.46 113.97 288.65 109.44 288.65 106.63 284.46 102.1 277.97 98.1 272.89 96.54 
M 284.68 148.31 285.5 147.48 289.29 140.73 289.29 136.55 285.5 129.8 279.63 123.84 275.04 121.51 
M 287.15 107.57 290.06 106.75 294.89 104.02 298.01 100.92 298.01 99.01 294.89 95.91 289.67 93.07 
M 287.93 137.2 290.31 135.99 295.38 130.85 298.65 125.03 298.65 121.42 295.38 115.6 290.31 110.45 287.15 108.85 
M 282.2 120.13 292.74 118.74 
M 282.9 122.97 292.66 123.47 
M 282.32 126.15 293.02 127.85 
M 295.88 149.43 291.82 143.37 288.53 140.91 
M 297.48 123.76 301.49 122.3 306.89 118.38 310.38 113.93 310.38 111.18 306.89 106.74 301.49 102.82 297.27 101.28 
M 307 150.59 307.4 150.15 310.79 143.74 310.79 139.77 307.4 133.36 302.16 127.7 298.07 125.49 
M 294.48 138.12 304.7 136.41 
M 294 141.57 304.8 141.3 
M 293.98 145.2 304.84 146.22 
M 309.13 109.25 311 108.58 314.92 105.78 317.45 102.62 317.45 100.65 314.92 97.49 311 94.69 307.93 93.6 
M 304.43 100.2 313.16 99.69 
M 304.65 102.14 312.69 101.94 
M 304.85 103.74 312.51 104.54 
M 309.57 139.2 311.76 137.89 315.95 132.87 318.66 127.18 318.66 123.65 315.95 117.96 311.76 112.94 309.13 111.36 
M 316.32 151.04 316.02 150.22 312.02 144.05 309.57 142.16 
M 317.69 124.41 321.2 122.88 325.85 118.84 328.84 114.26 328.84 111.43 325.85 106.85 321.2 102.81 317.58 101.24 
M 313.79 110.62 323.4 108.99 
M 314.4 112.76 323.2 113.39 
M 314.53 114.72 323.49 116.58 
M 325.9 152 327.01 150.68 330.04 144.27 330.04 140.31 327.01 133.9 322.29 128.24 318.62 126.03 
M 314.59 138.65 324.13 136.92 
M 315.47 142.52 324.91 142.62 
M 315.42 145.43 324.1 146.79 
M 326.28 107.65 328.25 106.78 331.77 103.67 334.03 100.15 334.03 97.98 332.32 95.32 
M 328.96 139.93 331.39 138.28 335.24 133.04 337.72 127.11 337.72 123.44 335.24 117.5 331.39 112.27 328.39 110.22 
M 325.11 122.05 333.72 120.97 
M 325.07 124.85 332.72 124.92 
M 325.98 128.48 333.1 130.06 
M 336.1 152.52 335.22 149.91 331.55 143.71 328.96 141.52 
M 336.83 122.81 339.51 121.57 344.05 117.37 346.97 112.6 346.97 109.65 344.05 104.89 339.51 100.68 335.97 99.04 
M 343.27 152.28 345.49 149.47 348.42 143 348.42 138.99 345.49 132.51 340.95 126.8 337.41 124.56 
M 334.11 138.24 343.26 135.68 
M 333.79 140.56 343.2 141.29 
M 334.37 144.25 343.21 145.7 
M 343.96 105.25 345.95 104.42 349.91 101.14 352.19 97.82 
M 347.37 138.66 350.08 136.81 353.88 131.61 356.34 125.72 356.34 122.07 353.88 116.18 350.08 110.98 347.1 108.94 
M 354.7 154.44 354.7 153.52 352.24 146.46 348.44 140.23 347.37 139.35 
M 355.46 122.31 359.23 120.73 364.16 116.6 367.33 111.93 367.33 109.03 364.16 104.36 359.23 100.23 355.38 98.62 
M 351.33 108.01 361.43 106.51 
M 351.53 110.02 361.78 110.12 
M 352.16 112.87 361.8 114.16 
M 359.08 154.77 360.19 154.11 364.99 148.41 368.08 141.95 368.08 137.95 364.99 131.48 360.19 125.78 356.44 123.55 
M 366.18 106.46 368.55 105.7 373.18 102.76 373.65 102.24 
M 366.97 137.74 369.77 135.98 373.8 130.89 376.41 125.13 376.41 121.56 373.8 115.8 369.77 110.71 366.61 108.72 
M 377.12 157.92 377.12 154.63 374.32 147.5 369.98 141.21 366.97 139.03 
M 363.31 153.38 371.95 151.66 
M 377.03 123.37 381.08 121.84 386.26 117.94 389.61 113.53 389.61 110.8 386.26 106.38 383.69 104.44 
M 377.46 157.17 381.4 154.97 386.45 149.33 389.71 142.94 389.71 138.99 386.45 132.6 381.4 126.96 377.46 124.76 
M 389.25 172.94 388.26 170.76 
M 388.9 110.03 392.34 109.01 395.82 106.93 
M 388.54 138.11 390.96 136.69 395.18 131.74 397.9 126.14 397.9 122.68 395.18 117.08 390.96 112.13 388.41 110.63 
M 384.31 121.6 393.13 120.18 
M 384.77 124.42 392.93 124.14 
M 385.03 127.42 392.41 128.69 
M 393.83 172.44 396.51 168.51 396.9 167.49 
M 399.24 160.44 399.24 157.08 396.51 150.03 392.26 143.8 388.95 141.37 
M 398.58 124.71 402.44 123.22 407.37 119.41 410.55 115.08 410.55 112.4 408.99 110.28 
M 394.99 111.05 405.07 110.56 
M 395.18 114.28 404.94 113.72 
M 395.38 115.42 405.24 117.44 
M 398.67 158.11 402.5 155.95 407.4 150.41 410.57 144.13 410.57 140.25 407.4 133.97 402.5 128.43 398.67 126.27 
M 407.84 170.58 406.9 168.47 404.03 164.8 
M 399.03 160.42 398.52 160.09 
M 409.43 139.65 412.03 138.02 415.99 133.06 418.54 127.44 418.54 123.96 415.99 118.34 412.03 113.38 409.41 111.74 
M 415.52 169.24 416.12 168.33 418.66 161.5 418.66 157.28 416.12 150.45 412.18 144.42 409.43 142.32 
M 406.06 155.41 414.25 154.73 
M 406.32 159.14 414.47 159.89 
M 407.68 163.42 414.57 164.75 
M 418.22 124.37 421.75 122.87 426.27 119.03 427.07 117.83 
M 418.47 157.67 422 155.53 426.52 150.06 427.91 147.12 
M 427.91 136.78 426.52 133.84 422 128.36 418.47 126.23 
M 424.72 167.01 420.71 161.63 417.75 159.65 
M 424.31 120.9 427.91 120.44 
M 424.53 124.06 427.91 123.78 
M 424.17 127.3 427.91 127.57 
M 172.45 179.33 171.77 178.05 168.65 175.13 
M 162.94 103.44 162.94 103.44 
M 179.48 180.79 180.33 177.93 
M 181.67 100.27 181.67 100.27 
M 198 185.47 200.09 182.1 200.41 181.2 
M 232.07 191.71 232.07 188.58 231.67 187.26 
M 220.56 186.57 222.82 185.95 
M 233.59 93.75 233.59 93.75 
M 251.99 192.05 252.11 191.73 252.11 189.11 
M 276.41 190.33 275.86 189 
M 282.96 189.99 283.56 189.28 
M 297.03 190.02 296.24 188.05 
M 304.69 190.09 307.19 186.98 
M 316.93 189.88 315.92 187.21 315.53 186.62 
M 325.09 189.67 327.14 186.98 327.89 185.25 
M 332.32 95.32 332.32 95.32 
M 343.96 188.62 345.89 185.97 347.42 182.3 
M 352.19 97.82 352.19 97.82 
M 355.26 187.11 354.84 185.9 352.18 181.51 
M 365.7 185.09 368.73 178.12 368.73 176.58 
M 383.69 104.44 383.69 104.44 
M 374.38 177.35 384.24 177.25 
M 391 180.61 388.93 179.03 
M 408.99 110.28 408.99 110.28 
M 409.93 177.23 409.93 175.29 407.84 170.58 
M 409.1 176.72 412.18 174.36 415.52 169.24 
M 427.01 172.08 425.05 167.46 424.72 167.01 
M 227.29 92.86 262.2 44.48 263.14 45.13 231.53 93.87 
M 244.36 92.11 269.9 54.35 270.86 54.96 248.52 93.14 
M 261.46 91.92 279.7 64.21 280.68 64.8 265.54 93.01 
M 278.54 92.25 290.2 73.11 291.21 73.63 282.59 93.22 
M 295.63 92.06 302.59 80.68 303.62 81.17 299.64 92.94 
M 312.75 92.7 316.55 88.08 317.58 88.56 316.61 93.72 
M 325.99 94 327.88 94.82 
M 259.9 50.13 260.48 52.91 260.93 54.14 261.56 55.22 262.39 56.11 263.41 56.81 264.61 57.35 267.34 58.12 
M 268.56 58.89 269.67 61.8 270.37 63.08 271.22 64.19 272.26 65.09 273.47 65.78 274.84 66.3 277.87 66.99 
M 279.11 67.72 280.44 70.53 281.24 71.75 282.19 72.78 283.29 73.59 284.55 74.18 285.96 74.58 289.03 75.02 
M 290.31 75.69 292.19 78.35 293.24 79.48 294.4 80.4 295.69 81.08 297.1 81.52 298.63 81.76 301.89 81.82 
M 303.2 82.43 305.45 85.12 306.68 86.26 308 87.18 309.44 87.86 311 88.29 312.66 88.51 316.17 88.54 
M 317.47 89.15 318.93 91.63 319.76 92.68 320.71 93.51 322.36 94.28 
M 325.8 94.62 327.22 94.54 
M 260.15 51.55 260.93 54.14 261.56 55.22 262.39 56.11 263.41 56.81 265.94 57.77 
M 254.88 61.37 255.47 63.35 255.96 64.18 256.59 64.86 257.38 65.4 259.32 66.13 
M 249.6 71.18 250.02 72.56 250.35 73.14 251.34 73.98 252.69 74.5 
M 269.08 60.38 270.37 63.08 271.22 64.19 272.26 65.09 273.47 65.78 276.33 66.68 
M 264.04 71.83 264.87 73.59 266.1 74.89 266.89 75.34 268.74 75.92 
M 279.75 69.16 281.24 71.75 282.19 72.78 283.29 73.59 284.55 74.18 287.47 74.84 
M 291.23 77.06 293.24 79.48 294.4 80.4 295.69 81.08 297.1 81.52 300.24 81.83 
M 168.58 153.79 188.07 152.21 195.46 152.07 198.74 151.79 208.37 150.51 218.84 150.17 226.41 150.27 230.03 149.96 233.7 149.96 237.29 149.72 240.26 149.3 244.04 149.14 251.01 148 257.56 148.54 260.06 149.14 263.13 148.82 267.5 148.63 275.36 148.86 285.87 148.21 289.53 148.47 292.96 149.2 305.29 150.19 308.03 150.83 311.79 151.23 318.7 150.98 326.34 152.06 332.44 152.1 335.8 152.51 339.1 152.59 342.51 152.14 346.76 152.87 350.88 154.13 358.6 154.86 361.11 154.38 365 154.63 368.78 155.53 374.81 157.9 378.97 157.94 381.86 158.38 385.55 159.5 395.32 160.5 398.02 160.3 401.19 160.66 405.11 161.41 411.75 161.88 386.46 171.44 383.24 172.44 379.71 173.14 377.02 174.66 373.85 175.71 370.14 176.22 363.41 177.94 360.36 179.11 357.08 179.98 354.12 181.09 350.78 181.81 347.23 182.33 343.34 182.51 340.06 183.3 330 185.06 326.6 185.37 323.63 186.12 319.73 185.94 316.48 186.41 313.45 187.09 305.94 187 302.98 187.62 293.01 188.37 289.79 188.72 286.77 189.27 279.59 189.25 275.75 188.99 272.37 189.19 264.88 188.88 261.59 189.17 254.53 189.29 247.74 188.8 244.21 188.24 241.07 188.08 238.17 188.15 227.94 186.79 221.47 185.73 218.7 185.67 215.38 185.06 211.17 183.56 207.37 182.47 202.69 181.57 177.91 177.53 175.46 176.57 171.88 174.45 167.77 172.45 
M 173.77 155.54 188.04 154.96 195.36 155.07 201.55 154.24 208.71 154.29 212.33 153.96 218.89 153.8 222.51 154.58 226.59 154.76 230.46 154.61 237.57 154.82 240.87 154.36 244.36 154.62 251.31 154.02 257.76 154.96 260.72 155.12 263.94 155.57 267.45 155.26 275.37 155.06 278.82 155.58 282.1 156.41 289.19 156.59 292.37 157.41 302.38 158.61 305.95 158.75 309.3 158.64 313.23 159.43 316.71 159.53 322.66 160.24 326.08 161.05 330.14 161.79 333.62 162.83 339.76 162.97 342.32 163.49 345.66 164.45 349.16 165.16 352.8 166.63 356.32 167.43 360.3 167.38 364.48 168.57 368.6 168.93 371.26 169.34 
M 168.06 157.67 181.08 157.84 188.2 157.67 191.89 157.94 208.52 157.59 212.07 157.96 215.46 157.83 218.86 158.3 226.46 158.88 229.73 158.88 233.45 159.55 239.91 159.68 243.23 160.08 250.16 160.13 261.17 161.06 
M 170.25 159.76 177.61 160.02 181.2 160.33 195.75 160.72 199.18 161.05 206 161.29 219.04 162.42 226.19 162.69 229.35 163.2 232.94 163.54 235.98 164.62 239.55 165.62 243.18 166.13 246.87 165.65 249.69 166.28 252.87 166.75 256.77 167.02 260.71 167.87 264.01 168.96 271.21 169.33 278.21 170.79 280.59 172.22 284.08 173.08 287.42 173.33 291.18 174.15 298.78 176.35 301.93 176.88 305.44 176.81 312.76 178.27 
M 168.38 161.56 195.77 163.94 202.78 165.07 206.15 165.38 212.56 166.29 215.74 166.21 222.82 167.3 226.13 167.62 232.51 168.76 235.75 169.65 239.3 170.91 
M 170.47 163.84 185.07 165.58 192.06 167 195.79 167.36 202.57 168.97 209.65 169.92 212.64 170.64 215.91 171.19 219.42 171.46 223.07 172.61 226.32 173.41 229.98 173.59 233.2 174.13 236.43 175.29 239.93 176.3 
M 168.26 165.49 174.4 166.68 181.65 167.52 185.35 168.25 192.02 170.38 195.83 170.92 199.19 171.76 202.65 172.09 210.1 174.41 
M 168.29 167.51 174.62 168.95 177.93 169.35 185.52 171.11 188.67 172.6 192.23 173.58 195.28 174.63 199.14 175.52 202.36 176.05 206.36 178.03 209.74 179.46 
M 168.24 169.53 182.13 173.72 185.42 175.01 188.84 176.73 192.29 177.97 195.21 179.4 198.94 180.7 
M 230.55 195.31 252.72 223.48 251.85 224.23 227.43 197.98 
M 228.43 195.12 229.25 196.42 
M 236.39 207.61 251.55 231.39 250.61 232.04 225.04 197.45 
M 226.28 194.95 226.9 196.17 
M 232.9 208.08 248.85 239.76 247.85 240.3 222.67 196.91 
M 224.12 194.79 224.54 195.89 
M 229.26 208.27 244.55 248.36 243.49 248.79 220.32 196.35 
M 221.94 194.63 222.19 195.58 
M 225.58 208.25 238.59 256.94 237.5 257.26 217.99 195.79 
M 220.02 194.54 220.12 195.16 
M 222.46 209.87 231.26 265.31 230.14 265.51 215.98 195.26 
M 249.41 221.6 247.9 222.93 247.37 223.6 247.08 224.28 247.06 224.96 247.31 225.65 247.81 226.35 249.23 227.76 
M 248.05 228.58 246.29 229.75 245.63 230.39 245.2 231.08 245.04 231.82 245.15 232.62 245.48 233.48 246.59 235.28 
M 245.33 235.96 243.34 236.98 242.55 237.57 241.98 238.25 241.67 239.04 241.61 239.92 241.77 240.89 242.5 243 
M 241.17 243.55 238.97 244.39 238.06 244.93 237.35 245.59 236.88 246.38 236.64 247.32 236.61 248.37 236.93 250.71 
M 235.54 251.12 233.17 251.81 232.17 252.29 231.35 252.92 230.75 253.71 230.37 254.66 230.17 255.76 230.14 258.23 
M 248.61 222.26 247.37 223.6 247.08 224.28 247.06 224.96 247.31 225.65 248.47 227.06 
M 243.77 216.24 242.82 217.27 242.6 217.79 242.58 218.31 242.78 218.84 243.66 219.92 
M 238.93 210.22 238.27 210.94 238.1 211.66 238.85 212.78 
M 247.12 229.16 245.63 230.39 245.2 231.08 245.04 231.82 245.15 232.62 245.99 234.37 
M 242.1 221.44 240.96 222.39 240.63 222.92 240.51 223.49 240.59 224.1 241.23 225.44 
M 237.08 213.73 236.06 214.76 236.03 215.58 236.48 216.51 
M 244.29 236.45 242.55 237.57 241.98 238.25 241.67 239.04 241.61 239.92 242.09 241.93 
M 240.62 229.33 239.19 230.25 238.72 230.82 238.46 231.46 238.41 232.19 238.81 233.85 
M 236.96 222.21 235.83 222.93 235.46 223.38 235.22 224.46 235.53 225.77 
M 233.29 215.08 232.2 215.94 232.02 216.73 232.25 217.68 
M 240.03 243.95 238.06 244.93 237.35 245.59 236.88 246.38 236.64 247.32 236.73 249.52 
M 237.38 237.15 235.68 237.99 235.07 238.56 234.67 239.24 234.46 240.05 234.54 241.94 
M 234.73 230.35 233.31 231.06 232.8 231.53 232.29 232.78 232.35 234.36 
M 232.08 223.55 230.93 224.12 230.52 224.5 230.11 225.51 230.16 226.78 
M 229.42 216.75 228.25 217.48 227.93 218.24 227.97 219.21 
M 234.32 251.43 232.17 252.29 231.35 252.92 230.75 253.71 230.37 254.66 230.12 256.97 
M 232.17 243.54 230.32 244.28 229.62 244.82 229.1 245.5 228.77 246.32 228.56 248.3 
M 230.03 235.65 228.48 236.26 227.46 237.28 227.18 237.97 227 239.63 
M 227.88 227.75 226.63 228.25 225.81 229.07 225.59 229.63 225.44 230.96 
M 225.73 219.86 224.42 220.51 223.99 221.28 223.88 222.3 
M 406.57 181.04 410.23 190.23 409.24 190.81 403.02 183.12 
M 389.66 183.97 394.88 195.12 393.92 195.73 386.18 186.15 
M 372.79 187.12 382.62 204.1 381.68 204.74 369.4 189.44 
M 356.07 190.81 372.59 218.01 371.64 218.65 352.66 193.1 
M 340.6 192.87 365.77 234.82 364.81 235.44 337.14 195.09 
M 408.62 190.04 405.06 189.51 403.34 189.46 401.68 189.63 400.1 190.08 398.58 190.78 397.14 191.71 394.36 194.01 
M 393.14 194.77 389.77 195.24 388.21 195.66 386.79 196.29 385.51 197.13 384.38 198.21 383.38 199.48 381.64 202.4 
M 380.45 203.21 377.18 204.99 375.73 206.01 374.46 207.19 373.4 208.53 372.55 210.04 371.9 211.7 370.93 215.29 
M 369.74 216.09 366.96 218.72 365.77 220.13 364.8 221.64 364.08 223.25 363.61 224.98 363.36 226.8 363.26 230.63 
M 391.43 194.97 388.21 195.66 386.79 196.29 385.51 197.13 384.38 198.21 382.49 200.9 
M 378.78 204.07 375.73 206.01 374.46 207.19 373.4 208.53 372.55 210.04 371.38 213.46 
M 368.31 217.39 365.77 220.13 364.8 221.64 364.08 223.25 363.61 224.98 363.26 228.7 
M 360.71 208.84 359.07 210.62 358.44 211.6 357.66 213.77 357.44 216.19 
M 426.77 117.51 430.56 116.53 434.14 115.16 437.34 113.18 443.7 109.71 446.43 107.09 449.5 105.41 451.73 104.61 457.65 101.69 460.55 100.85 463.39 99.69 468.09 95.97 476.4 92.12 477.67 89.56 479.42 88.6 481.88 88.47 486.36 87.67 488.31 84.82 485.82 91.88 485.74 94.88 485.07 97.29 485.29 100.87 485.78 105.03 484.86 108.35 482.92 111.09 482.89 118.73 481.54 121.23 480.99 124.53 480.89 128.28 481.42 132.65 481.45 135.79 482.26 139.29 482.69 142.81 481.21 145.87 482.85 152.64 480.84 154.92 479.22 157.65 478.63 161.24 478.35 164.37 478.33 167.24 480.5 170.92 483.51 174.21 484.45 178.13 483.46 181.04 483.68 185.13 483.46 188.58 483.52 191.93 485.13 195.77 485.27 198.29 486.11 201.51 486.34 203.81 490 211.43 486.28 216.58 485.71 214.96 482.98 213.99 481.29 213.92 477.97 212.42 475.87 210.16 473.34 208.36 468.48 206.56 463.78 204.14 460.3 200.31 456.49 197.94 455.28 195.36 453.38 193.33 450.37 192.23 443.03 188.29 437.6 182.31 434.23 180.43 430.77 178.26 426.77 175.16 
M 426.77 120.39 430.48 120.08 434.03 118.37 437.69 116.84 440.99 114.01 444.26 113.23 447.37 111.51 453.11 109.66 456.44 108.29 458.49 106.74 462.18 104.88 465.95 103.68 468.56 100.82 
M 433.75 122.21 437.87 120.86 441.86 118.48 448.03 115.95 451.06 114.29 454.99 113.46 458.94 113.31 461.78 112.71 463.83 110.71 469.89 106.25 
M 434.43 126.03 437.85 125.14 444.81 122.09 447.85 120.99 451.72 118.87 455.56 117.77 463.82 117.12 
M 426.77 129.04 431.17 129.75 438.16 128.48 441.53 127.74 445.23 126.18 448.32 125.64 456.45 122.92 460.6 122.46 466.97 121.23 
M 431.08 132.36 438.61 131.32 442.49 130.99 445.39 130.17 448.87 129.53 452.52 129.14 459.16 126.63 463.3 125.7 467.15 124.15 469.58 124.66 473.32 123.52 
M 426.77 134.81 430.97 134.89 442.97 133.85 445.52 133.32 453.79 132.75 456.86 131.82 460.39 131.44 464.04 130.54 466.79 129.32 469.39 129.98 
M 435.06 137.87 439.41 137.87 443.09 137.48 445.95 136.21 453.68 136.44 458.16 135.68 
M 431.39 140.94 435.04 140.58 443.14 141.43 446.25 140.58 449.45 140.19 453.35 140.64 458.06 140.15 462.26 140.08 465.51 140.67 468.62 142.02 471.51 142.46 
M 435.84 144.06 445.05 146.04 449.61 146 454.87 145.49 
M 432.34 147.42 436.23 147.86 439.36 148.68 442.37 149.7 444.77 150.27 455.06 150.29 463.35 150.97 
M 436.45 151.34 439.91 152.64 443.01 153.48 445.96 154.61 449.47 154.77 454.12 154.04 459.06 154.07 462.9 154.8 466.12 156.46 
M 431.39 154.01 435.38 154.51 443.07 157.03 450.51 158.32 454.2 158.2 462.59 158.27 465.15 160.58 468.53 160.89 471.2 161.99 
M 434.22 158.42 438.15 159.09 442.38 160.06 446.11 162.08 457.77 163.13 461.99 163.78 470.45 167.05 
M 438.05 162.45 442.42 163.8 446.37 165.63 450.27 166.59 454.18 166.37 457.65 167.72 460.43 168.44 463.02 170.51 471.31 172.28 474.53 173.71 
M 434.43 164.27 438.75 165.49 446.68 169.58 450.21 170.57 453.31 171.19 455.5 171.87 458.42 172.1 466.61 175.71 470.27 178.01 473.99 179.1 475.65 180.61 480.33 182.87 
M 438.64 169.37 442.07 171.79 449.83 175.12 452.84 175.22 455.73 176.35 459.78 176.97 462.91 177.72 465.76 179.89 468.88 181.76 472.01 183.27 474.03 185.19 477.42 187.64 
M 434.64 170.75 438.03 173.08 441.77 175.28 445.04 177.97 447.79 179.75 452.07 179.36 456.1 180.34 460.39 181.75 
M 431.19 172.26 434.5 174.12 442.17 179.34 445.84 184.28 450.14 185.56 454.12 186.07 459.05 185.77 
M 430.97 175.23 434.18 178.01 437.88 179.73 440.98 181.91 442.97 184.98 445.14 187.65 449.24 189.05 452.89 189.07 456.05 190.8 458.01 193.19 460.92 195.45 465.07 197.47 469.39 200.11 473.42 202.04 477.02 205.05 480.07 206.26 487.38 209.79 
M 393.8 106.47 395.44 103.83 397.38 101.5 399.83 99.67 408.48 95.49 411.58 94.32 414.96 93.41 418.68 92.86 422.77 92.72 427.61 94.42 432.18 98.03 435.11 102.42 435.49 106.33 433.43 108.96 429.93 110.15 422.51 110.75 419.17 111.39 415.78 112.45 
M 396.96 106.58 397.38 106.07 398.6 105.15 
M 401.24 103.51 408.48 100.06 411.58 98.88 414.96 97.98 418.68 97.43 422.77 97.29 427.61 98.98 429.9 100.79 
M 41.96 159.64 45.91 156.04 49.41 152.57 53.09 147.93 58.09 143.21 65.09 139.37 79.21 132.99 93.89 125.09 102.42 121.46 111.54 117.93 120.93 114.59 136.8 110.19 143.54 108.63 152.03 107.1 156.56 110.42 158.73 114.12 161.2 117.79 163.96 121.41 166.16 125.11 167.56 128.94 169.58 136.69 169.33 140.75 169.54 144.75 169.42 148.79 168 157.05 168.4 161.02 168.31 169.09 167.65 173.21 166.14 177.46 163.08 181.84 145.31 181.28 132.07 180.4 120.26 179.34 110.04 178.19 91.83 175.61 83.75 174.83 75.83 173.59 68.72 172.21 62.32 170.65 
M 135.27 134.95 135.8 138.3 133.94 145.01 132.53 148.04 129.15 153.07 129.82 157.51 131.83 162.21 132.73 164.9 132.75 168.18 95.9 167.14 73.99 165.35 
M 60.24 171.09 50.95 168.92 39.54 166 36.93 164.67 35.94 161.97 37.52 159.41 40.46 158.92 45.56 161.51 50.44 164.33 55.82 166.91 62.42 170.36 
M 56.56 175.28 52.64 177.66 45.03 181.64 40.01 184.63 37.3 184.84 35.4 182.77 35.62 179.92 37.86 178.25 51.69 174.07 59.86 171.23 
M 89.05 151.08 86.97 148.17 85.95 144.74 86.1 141.17 87.4 137.84 89.71 135.11 92.78 133.28 96.28 132.55 99.83 132.99 103.04 134.56 105.57 137.09 107.14 140.3 107.58 143.85 106.85 147.35 105.02 150.42 102.29 152.73 98.96 154.03 95.38 154.18 91.96 153.16 89.05 151.08 
M 103.8 138.35 105.05 140.92 105.41 143.76 104.82 146.56 103.36 149.02 101.18 150.86 98.51 151.9 95.65 152.02 92.91 151.21 90.58 149.54 
M 92.8 145.62 91.97 144.45 91.56 143.08 91.62 141.65 92.14 140.32 93.06 139.23 94.29 138.5 95.69 138.2 97.11 138.38 98.4 139.01 99.41 140.02 100.03 141.3 100.21 142.72 99.92 144.12 99.19 145.35 98.09 146.28 96.76 146.8 95.33 146.86 93.96 146.45 92.8 145.62 
M 92.65 144.86 94.35 146.56 
M 92.58 141.71 97.41 146.54 
M 93.29 139.34 99.23 145.28 
M 95.38 138.34 100.13 143.09 
M 43.67 158.06 49.32 163.71 
M 47.21 154.75 51.77 159.31 
M 50.5 151.19 54.24 154.93 
M 53.61 147.44 59.5 153.33 
M 57.13 144.11 61.16 148.14 
M 61.31 141.44 65.59 145.72 
M 65.78 139.06 69.47 142.75 
M 70.53 136.96 76.36 142.79 
M 75.25 134.82 81.06 140.63 
M 79.9 132.62 84.8 137.52 
M 84.35 130.22 88.63 134.5 
M 88.81 127.82 93.14 132.15 
M 93.26 125.42 98.8 130.96 
M 98.02 123.33 103.39 128.7 
M 102.84 121.3 108.45 126.91 
M 107.78 119.39 111.57 123.17 
M 112.75 117.5 117.43 122.18 
M 117.8 115.7 123.53 121.43 
M 122.97 114.02 126.65 117.7 
M 128.34 112.54 134.29 118.48 
M 133.71 111.05 138.55 115.89 
M 139.16 109.65 142.72 113.21 
M 144.77 108.41 148.97 112.6 
M 150.56 107.35 155.01 111.8 
M 110.68 118.26 110.33 118.4 
M 58.49 142.99 60.28 145.3 60.41 147.04 
M 44.69 161.05 45.59 160.38 47.32 160.09 
M 60.14 149.86 60.98 149.71 61.5 149.18 61.55 148.55 61.07 148.18 
M 59.85 169.07 59.81 167.04 60.02 165.74 
M 86.02 143.08 85.59 142.55 85.38 141.95 85.27 140.55 85.08 139.93 84.72 139.43 83.69 138.67 82.66 138.47 
M 110.72 160.61 108.47 162.27 107.39 163.32 105.66 164.42 
M 137.92 145.18 138.61 145.07 140.68 145.31 140.97 145.2 
M 111.3 122.62 108.64 121.5 106.9 120.29 106.09 120.39 105.52 120.88 
M 153.37 110.76 150.95 110.11 150.8 109.89 150.8 109.25 
M 69.41 157.02 71.05 156.77 71.5 156.87 72.99 158.07 73.96 159.41 74.56 160.7 74.7 161.55 74.56 162.11 
M 152.58 175.55 151.9 175.38 149.05 175.24 145.13 173.71 143.89 173.62 140.68 174.56 
M 161.47 173.23 161.73 171.16 163.13 167.52 163.29 165.64 163.11 165.14 162.68 164.7 161.91 164.27 159.59 163.57 
M 72.69 142.25 73.64 141.59 75.3 140.94 75.82 140.93 76.55 141.31 78.33 142.85 
M 123.6 161.34 121.4 160.37 119.44 159.97 118.19 159.97 113.97 160.63 108.85 162.76 
M 99.93 160.59 100.02 163.46 97.8 167.78 97.63 168.57 98.5 172.01 98.61 173.59 
M 54.46 165.76 55.41 163.87 57.13 159.79 59.25 157.62 60.7 155.53 61.39 154.78 62.34 154.24 65.64 152.86 
M 119.6 133.2 121.06 133.77 122.24 133.98 124.08 133.77 125.6 133.98 126.55 133.65 
M 158.8 177.99 160.46 176.85 160.6 176.37 160.52 175.39 
M 83.74 165.81 85.03 165.61 87.47 164.59 87.83 164.12 88.07 162.59 
M 164.02 169.66 164.06 168.88 164.7 165.96 164.27 165.23 162.37 163.9 160.3 163.24 157.64 162.78 
M 117.95 179.08 118.43 178.06 118.9 176.19 118.95 174.4 118.62 173.43 117.42 171.2 116.5 168.32 116.06 167.38 115.37 166.61 
M 113.38 168.86 113.47 167.81 113.25 167.13 112.66 166.16 112.14 163.76 111.58 163.42 110.12 163.12 
M 115.28 133.5 114.36 135.07 114 137.12 113.71 137.75 112.19 139.37 110.46 142.14 
M 152.86 123.66 151.7 122.94 147.95 121.55 146.62 121.28 143.26 120.07 142.77 120.01 142.32 120.18 
M 156.28 120.65 154.73 119.42 153.94 118.45 152.16 115.17 151.51 114.55 149.43 113.84 148.81 113.98 146.64 115.34 
M 146.8 170.2 144.57 170.77 143.88 171.15 141.5 173.51 140.43 174.23 
M 116.14 173.38 116.42 171.59 116.11 168.75 115.85 167.77 114.49 165.55 114.01 163.84 
M 122.11 135.01 123.93 134.48 126.16 134.22 127.27 133.61 127.98 132.96 
M 73.11 149.92 73.48 149.57 74.4 149.18 75.51 149.28 76.03 149.65 77.55 151.5 78.1 152.39 79.09 155.78 79.2 157.03 78.92 157.91 
M 87.2 138.34 85.77 138.13 84.07 137.62 83.4 137.58 82.02 137.92 81.31 138.64 
M 161.87 153.15 161.52 152.94 160.91 152.98 
M 60.84 169.57 60.15 166.93 60.25 165.68 60.96 164.24 61.78 163.27 62.56 162.68 
M 115.22 155.34 110.81 158.32 109.74 159.34 107.03 163.17 106.32 163.74 
M 47.09 159.19 49.7 159.27 50.85 159.03 53.58 157.71 54.95 156.66 57.31 155.23 59.09 153.85 63.66 152.41 
M 130.39 166.13 129.59 166.78 128.99 166.92 126.17 166.8 120.06 165.29 119.09 164.79 117.69 163.73 116.97 163.44 
M 80.82 163.59 80.29 165.11 78.71 167.18 77.78 167.98 
M 74.17 173.27 75.52 170.76 77.05 169.44 77.8 169.28 
M 159.16 114.76 156.44 111.66 154.13 110.4 152.01 109.89 
M 89.75 133.64 87.23 133.28 85.07 133.36 83.75 134.01 80.87 136.21 
M 156.64 135.23 155.54 131.56 154.79 130.12 153.73 128.7 152.18 127.53 151.16 127.11 149.04 126.61 
M 112.28 124.29 108.9 122.18 107.13 120.46 106.37 120.33 105.7 120.66 
M 138.52 157.29 139.88 156.39 140.39 156.41 140.51 156.56 140.36 156.74 
M 127.6 150.29 128.87 148.51 129.34 147.49 129.79 145.85 129.99 143.82 130.22 142.99 
M 76.33 173.67 77.87 170.38 
M 113.24 122.96 112.24 122.32 108.45 121.15 107 120.28 106.18 120.33 105.61 120.72 
M 114.87 161.54 112.79 161.9 107.24 163.53 
M 59.89 169.09 59.84 166.76 
M 102.23 123.01 103.95 123.91 105.6 124.32 106.61 124.16 106.81 123.27 
M 103.23 155.53 103.68 156.69 103.74 157.51 103.19 162.67 102.91 163.35 100.97 165.99 
M 151.26 135.36 148.35 136.74 143.94 138.3 141.94 139.42 
M 140.76 145.6 140.97 145.18 
M 100.93 122.09 102.11 122.89 104.64 124.12 106.31 124.23 106.6 124.12 106.73 123.84 
M 133.17 170.75 134.13 171.88 135.72 172.94 137.6 173.55 140.22 173.6 140.46 173.76 140.5 173.99 
M 131.66 148.03 132.43 147.46 134.06 147.04 135.37 146.41 138.27 145.37 140.41 145.43 
M 67.56 161.21 67.32 160.49 67.92 159.61 68.95 159.02 70.2 158.71 71.69 158.71 72.49 158.95 73.13 159.47 73.54 160.19 
M 72.76 137.89 69.67 137.34 
M 63.83 171.95 59.05 176.68 54.57 181.87 53.3 183.15 50.43 185.33 47.28 186.95 40.9 189.5 29.99 194.5 34.56 192.13 40.5 188.7 46.62 185.62 49.42 183.85 51.82 181.67 56.89 174.86 61.41 169.53 
M 62.33 170.63 63.69 171.14 
M 54.12 169.61 54.52 170.55 54.77 169.76 
M 46.03 167.65 45.9 168.48 46.42 170.36 46.54 168.73 47.05 167.92 
M 38.17 165.3 37.7 167.42 38.32 170.17 38.34 167.66 39.31 165.88 
M 62.22 170.92 63.66 170.27 
M 55.8 172.64 56.19 171.43 56.46 171.95 56.9 172.27 
M 49.55 174.74 49.37 173.58 49.76 172.12 50 173.3 50.86 174.33 
M 43.29 176.53 42.9 174.93 43.32 172.8 43.53 174.65 44.58 176.16 
M 37.17 178.77 36.44 176.28 36.89 173.49 37.06 176 38.38 178.08 
M 45.1 181.6 51.77 181.72 
M 54.73 181.68 59.32 181.34 64.22 180.61 69.1 179.54 74 178.17 83.75 174.83 
M 64.93 180.46 63.46 179.34 61.32 178.1 
M 51.66 179.51 51.97 181.5 
M 52.14 181.27 52.13 181.3 
M 50.77 179.64 51.49 181.51 
M 152.72 106.83 155.63 109.74 
M 156.9 111.01 165.71 119.82 
M 159.58 104.55 166.85 111.82 
M 166.8 102.63 176.93 112.76 
M 174.41 101.1 185.92 112.61 
M 182.6 100.16 195.09 112.65 
M 190.86 99.29 200.14 108.56 
M 199.01 98.29 210.52 109.8 
M 206.9 97.05 217.23 107.38 
M 214.79 95.81 222.32 103.34 
M 222.86 94.74 232.28 104.16 
M 231.15 93.9 244.17 106.91 
M 239.78 93.38 247.89 101.5 
M 248.67 93.14 258.08 102.55 
M 257.67 93 264.7 100.03 
M 266.84 93.03 275.82 102.02 
M 276.1 93.16 289.63 106.69 
M 285.28 93.2 295 102.92 
M 294.16 92.95 302.9 101.68 
M 303.3 92.95 312.13 101.78 
M 312.94 93.45 324.57 105.08 
M 322.96 94.34 335.95 107.32 
M 333.18 95.41 346.51 108.74 
M 343.52 96.62 356.85 109.95 
M 354.23 98.2 367.07 111.04 
M 365.64 100.46 373.1 107.93 
M 377.37 103.06 388.36 114.05 
M 388.95 105.5 396.33 112.88 
M 400.58 107.99 413.11 120.53 
M 413.41 111.69 422.84 121.12 
M 230.68 93.07 231.11 93.92 
M 233.77 88.98 236.13 93.68 
M 236.27 83.69 241.15 93.44 
M 239.27 79.42 241.83 84.53 
M 243.87 88.61 246.17 93.2 
M 244.83 80.26 245.85 82.3 
M 246.88 84.34 250.86 92.32 
M 254.3 58.08 254.81 59.1 
M 257.31 53.81 259.86 58.92 
M 262.93 65.05 263.95 67.09 
M 264.97 69.14 271.1 81.39 
M 274.16 87.52 276.98 93.16 
M 264.1 57.12 264.61 58.14 
M 266.65 62.22 275.85 80.61 
M 278.91 86.74 282.13 93.17 
M 273.59 65.83 277.17 72.98 
M 278.19 75.02 281.25 81.15 
M 283.3 85.24 287.23 93.09 
M 282.22 72.8 282.73 73.83 
M 289.88 88.13 292.33 93.01 
"/></svg>