<svg xmlns="http://www.w3.org/2000/svg" width="520" height="320"><rect x="0" y="0" width="520" height="320" fill="floralwhite"/><rect x="10" y="10" width="500" height="300" stroke="black" stroke-width="1" fill="none"/><path stroke="black" stroke-width="1" fill="none" stroke-linecap="round" stroke-linejoin="round" d="
M 105.64 119.69 118.49 114.66 131.3 111.57 144.12 109.83 156.94 108.3 182.57 103.55 195.39 101.8 208.2 100.9 221.02 100.49 233.84 100.33 259.47 100.72 272.28 100.29 285.1 100.33 297.92 101.4 323.55 104.57 336.37 106.42 349.18 109.18 374.82 115.86 387.63 118.89 400.45 122.27 413.27 127.09 426.08 134.03 427.09 135.32 
M 427.09 185.64 426.08 186.76 413.27 192.32 400.45 196.25 387.63 199 374.82 201.5 362 204.53 349.18 208.06 336.37 211.03 323.55 212.59 310.73 213.43 285.1 214.29 259.47 214.03 246.65 214.87 233.84 216.19 221.02 217.18 208.2 217.32 195.39 216.24 182.57 213.85 169.75 210.47 156.94 206.48 144.12 202.16 131.3 198.46 118.49 196.06 
M 108.66 122.21 110.57 117.76 
M 125.81 145.03 126.97 141.62 126.97 135.81 123.77 126.43 118.81 118.14 115.87 115.69 
M 115.48 132.45 121.05 131.1 
M 118.97 138.32 120.78 138.3 
M 125.82 140.91 128.62 139.51 135.25 132.89 139.53 125.4 139.53 120.76 135.25 113.26 133.29 111.3 
M 138 123.62 138.74 123.25 144.06 117.92 147.5 111.89 147.5 109.43 
M 152.71 138.17 152.06 136.67 146.89 129.95 142.86 127.32 
M 159.46 137.26 163.09 130.64 163.09 126.36 159.3 119.45 153.42 113.35 148.83 110.97 
M 167.63 194.29 167.07 193.53 
M 158.24 119.01 160.39 116.33 163.32 109.91 163.32 107.12 
M 158.07 108.09 158.48 108.12 
M 148.63 111.02 158.2 112.96 
M 170.24 134.42 169.14 132.82 165.58 130.21 
M 170.7 194.98 172.35 192.3 173.47 189.09 
M 165.55 112.5 170.63 111.03 177.14 107.25 180.38 103.96 
M 180.99 140.64 181.79 139.84 185.56 133.19 185.56 129.07 181.79 122.42 175.94 116.55 171.37 114.25 
M 187.97 173.39 189.69 169.75 189.69 165.27 186.35 158.22 
M 189.86 198.31 188.11 194.52 183.18 188.42 179.33 186.04 
M 184.21 126.59 189.55 122.09 193.29 116.56 193.29 113.14 189.55 107.62 184.42 103.3 
M 188.46 170.2 191.96 167.82 196.55 161.57 199.51 154.5 199.51 150.12 196.55 143.04 191.96 136.79 188.37 134.36 
M 193.16 198.77 196.16 194.71 199.11 187.72 199.11 183.39 196.16 176.4 191.59 170.23 190.26 169.34 
M 194.27 120.06 199.5 118.74 206.21 115.36 210.53 111.53 210.53 109.17 206.21 105.34 199.5 101.96 198.1 101.61 
M 198.45 151.08 201.52 149.73 207.53 144.45 211.41 138.46 211.41 134.76 207.53 128.78 201.52 123.49 196.82 121.43 
M 199.66 187.61 203.83 185.27 209.18 179.3 212.63 172.53 212.63 168.34 209.18 161.56 203.83 155.59 199.66 153.25 
M 211.28 199.81 209.56 196.32 204.53 190.51 200.61 188.24 
M 208.98 111.48 212.67 110.69 217.75 108.5 221.03 106.02 221.03 104.49 217.75 102.01 214.7 100.69 
M 210.02 135.77 212.47 134.76 217.79 130.39 221.23 125.43 221.23 122.37 217.79 117.41 212.47 113.04 208.98 111.61 
M 211.39 171.55 214.76 169.37 219.09 163.74 221.88 157.36 221.88 153.41 219.09 147.03 214.76 141.4 211.37 139.2 
M 216.68 199.74 218.57 197.17 221.36 190.53 221.36 186.42 218.57 179.78 214.24 173.92 211.39 171.99 
M 220 125.16 224.09 123.96 229.66 120.7 233.25 117 233.25 114.71 229.66 111.01 224.09 107.74 219.85 106.5 
M 220.88 154.5 224.83 152.69 230.2 147.78 233.65 142.22 233.65 138.78 230.2 133.22 224.83 128.31 220.65 126.39 
M 221.32 188.53 225.23 186.31 230.23 180.62 233.45 174.19 233.45 170.2 230.23 163.76 225.23 158.08 221.32 155.86 
M 217.1 169.03 227.86 166.95 
M 217.11 171.88 227.57 171.85 
M 217.09 175.06 227.58 176.81 
M 230.82 199.02 230.03 197.41 225.14 191.76 221.33 189.55 
M 231.96 113.58 233.79 113.05 237.7 110.76 240.23 108.18 240.23 106.58 237.7 103.99 233.79 101.71 230.73 100.82 
M 227.31 105.62 235.23 105.69 
M 228.01 107.18 235.51 107.12 
M 228.2 109.13 235.74 109.56 
M 232.42 138.39 234.52 137.34 238.77 133.13 241.51 128.35 241.51 125.39 238.77 120.62 234.52 116.4 231.96 115.13 
M 228.06 124.59 237.04 122.93 
M 227.69 126.51 236.88 127.37 
M 228.35 129.16 236.56 130.52 
M 232.3 170.98 234.8 169.28 238.77 163.86 241.33 157.73 241.33 153.94 238.77 147.81 234.8 142.4 232.42 140.77 
M 238.04 198.46 238.55 197.72 241.16 191.12 241.16 187.03 238.55 180.43 234.5 174.6 232.3 173.01 
M 240.53 125.96 243.74 124.78 248.36 121.4 251.35 117.56 251.35 115.18 248.36 111.35 243.74 107.96 240.13 106.64 
M 236.78 114.81 245.74 113.08 
M 236.16 116.84 246.05 116.51 
M 236.79 118.68 245.79 119.57 
M 241.25 155.27 244.89 153.36 249.55 148.47 252.55 142.94 252.55 139.51 249.55 133.98 244.89 129.09 241.25 127.19 
M 237.77 138.58 247.28 136.62 
M 237.96 141.36 246.93 141.43 
M 237.9 143.56 247.01 145.28 
M 241.46 188.68 245.07 186.48 249.69 180.84 252.67 174.44 252.67 170.49 249.69 164.1 245.07 158.45 241.46 156.25 
M 249.78 197.55 245.19 192.11 241.49 189.91 
M 248.46 111.77 250.43 111.03 253.86 108.43 256.08 105.49 256.08 103.67 253.76 100.65 
M 245.3 102.68 251.8 102.08 
M 245.43 104.81 252.34 104.27 
M 245 105.81 251.88 106.94 
M 251.48 139.08 253.82 137.71 257.63 133.26 260.09 128.22 260.09 125.1 257.63 120.05 253.82 115.6 250.85 113.86 
M 251.61 170.96 254 169.1 257.5 163.64 259.75 157.45 259.75 153.62 257.5 147.44 254 141.98 251.48 140.02 
M 248.28 152.21 255.18 150.58 
M 248.59 155.66 255.56 155.06 
M 248.5 158.48 255.38 160.54 
M 258.87 197.06 260.98 191.47 260.98 187.36 258.47 180.71 254.59 174.84 251.61 172.6 
M 259.21 124.4 261.79 123.4 266.36 119.87 269.3 115.87 269.3 113.4 266.36 109.4 261.79 105.87 258.23 104.49 
M 254.31 113 264.31 111.64 
M 255.26 114.93 264.37 114.27 
M 254.73 117.03 263.78 117.63 
M 259.42 153.73 262.95 151.8 267.46 146.87 270.38 141.28 270.38 137.83 267.46 132.24 262.95 127.31 259.42 125.38 
M 260.08 187.43 263.4 185.34 267.99 179.56 270.95 173.01 270.95 168.96 267.99 162.42 263.4 156.64 259.82 154.38 
M 256.6 168.12 265.79 165.93 
M 256.09 170.5 265.16 170.79 
M 256.43 174.73 265.75 175.96 
M 269.21 197.06 264.71 191.52 261.06 189.28 
M 265.98 109.48 268.14 108.77 272.33 105.99 275.04 102.85 275.04 100.91 274.51 100.29 
M 261.75 102.32 270.56 102.22 
M 261.84 103.49 269.72 104.2 
M 269.46 137.77 272.4 136.09 276.18 131.79 278.61 126.93 278.61 123.92 276.18 119.05 272.4 114.75 269.46 113.07 
M 269.09 164.39 273.19 158.79 275.75 152.54 275.75 148.67 273.19 142.41 269.34 137.07 
M 277.56 197.12 279.88 190.6 279.88 186.2 277.36 179.11 273.44 172.84 270.39 170.4 
M 278.1 124.31 282.03 122.99 287.06 119.63 290.3 115.82 290.3 113.46 287.06 109.65 282.03 106.28 278.1 104.97 
M 278.61 152.98 282.46 151.07 287.38 146.16 290.56 140.61 290.56 137.18 287.38 131.63 282.46 126.72 278.61 124.81 
M 274.73 135.85 284.49 135.11 
M 275.26 139 285.13 139.16 
M 274.76 142.07 285.07 142.79 
M 279.37 187.37 283.21 185.1 288.13 179.29 291.3 172.71 291.3 168.64 288.13 162.06 283.21 156.25 279.37 153.98 
M 289.01 197.14 284.25 191.18 280.61 188.94 
M 289.32 112.66 292.96 111.81 297.61 109.63 300.61 107.16 300.61 105.63 297.61 103.16 292.98 100.99 
M 285.68 105.05 295.08 104.35 
M 286.24 106.02 295.21 106.15 
M 286.29 107.81 295.19 108.59 
M 289.42 136.61 291.99 135.31 296.13 131.1 298.81 126.34 298.81 123.39 296.13 118.62 291.99 114.42 289.14 112.97 
M 290.17 170.72 293.66 168.56 298.18 162.98 301.09 156.65 301.09 152.74 298.18 146.41 293.66 140.83 290.13 138.65 
M 298.23 197.02 300.53 191.06 300.53 186.94 297.96 180.29 293.98 174.42 290.86 172.13 
M 300.06 125.85 304.03 124.61 309.13 121.42 312.41 117.81 312.41 115.58 309.13 111.97 304.03 108.78 300.06 107.54 
M 300.25 154.49 304.19 152.61 309.24 147.79 312.49 142.33 312.49 138.95 309.24 133.5 304.19 128.68 300.25 126.8 
M 300.65 188.18 304.46 185.99 309.35 180.38 312.51 174.03 312.51 170.09 309.35 163.74 304.46 158.12 300.65 155.93 
M 308.11 196.88 303.61 191.32 300.1 189.16 
M 311.24 114.7 314.33 113.85 318.4 111.63 321.02 109.11 321.02 107.55 318.4 105.03 315.68 103.54 
M 311.33 138.91 314.21 137.46 318.32 133.33 320.97 128.65 320.97 125.75 318.32 121.07 314.21 116.94 311.24 115.45 
M 311.38 171.03 314.29 169.1 318.33 163.75 320.94 157.69 320.94 153.93 318.33 147.87 314.29 142.51 311.33 140.55 
M 317.32 196.61 319.56 190.71 319.56 186.75 317.14 180.37 313.38 174.73 311.38 173.23 
M 320.55 126.48 324.18 125.23 328.83 122.04 331.83 118.43 331.83 116.2 328.83 112.58 324.18 109.4 320.55 108.15 
M 316.82 115.35 326.8 114.42 
M 317.49 116.81 326.32 117.68 
M 317.11 119.08 326.62 119.89 
M 320.71 154.84 324.34 152.99 328.98 148.25 331.98 142.88 331.98 139.56 328.98 134.19 324.34 129.45 320.71 127.6 
M 320.22 187.33 323.72 185.22 328.2 179.8 331.1 173.67 331.1 169.87 328.2 163.74 323.72 158.33 320.22 156.21 
M 316.86 168.81 325.82 166.7 
M 317.13 172.06 326.24 171.61 
M 316.58 175.07 326.14 176.25 
M 326.03 196.19 325.67 195.39 321.46 190.03 318.7 188.27 
M 330.11 113.78 333.03 112.92 336.77 110.71 339.18 108.2 339.18 107.03 
M 330.91 137.78 332.74 136.71 336.32 132.52 338.62 127.77 338.62 124.84 336.32 120.09 332.74 115.9 330.76 114.74 
M 330.75 170.75 333.68 168.69 337.45 163.4 339.87 157.41 339.87 153.71 337.45 147.72 333.68 142.43 330.91 140.48 
M 334.23 195.51 334.57 194.97 336.76 188.87 336.76 185.1 334.57 179.01 331.19 173.63 330.06 172.73 
M 338.85 124.82 342.13 123.59 346.34 120.44 349.05 116.88 349.05 114.67 346.34 111.1 342.13 107.95 340.34 107.28 
M 339.04 153.25 342.29 151.41 346.46 146.7 349.14 141.37 349.14 138.06 346.46 132.73 342.29 128.02 339.04 126.18 
M 337.98 184.94 341.13 182.87 345.17 177.57 347.77 171.56 347.77 167.84 345.17 161.83 341.13 156.53 339 155.13 
M 343.01 194.24 342.21 192.4 338.14 187.04 335.98 185.62 
M 348.73 112.05 351.37 111.25 353.12 110.2 
M 347.6 134.49 349.2 133.49 352.52 129.33 354.66 124.61 354.66 121.69 352.52 116.98 349.2 112.81 346.61 111.19 
M 348.87 168.8 351.39 166.77 354.62 161.56 356.7 155.67 356.7 152.03 354.62 146.13 351.39 140.93 348.87 138.9 
M 346.07 151.23 353.16 149.55 
M 346.08 154.06 352.51 153.61 
M 346.76 157.23 353.31 158.71 
M 347.41 193.52 349.24 190.34 351.23 184.28 351.23 180.53 349.24 174.48 346.84 170.32 
M 355.26 121.23 358.53 120.02 362.72 116.95 365.42 113.4 
M 352.24 110.49 353.84 110.39 
M 351.82 112.11 360.4 112.53 
M 352.05 114.53 360.43 114.57 
M 355.6 148.24 357.92 146.96 362.04 142.38 364.7 137.19 364.7 133.98 362.04 128.8 357.92 124.22 354.7 122.43 
M 351.96 132.92 359.42 131.6 
M 351.33 136.03 360.11 135.4 
M 351.75 138.11 359.9 139.62 
M 352.8 180.2 355.91 178.1 359.89 172.72 362.46 166.63 362.46 162.86 359.89 156.77 355.95 151.45 
M 360 191.12 358.92 188.52 354.72 182.8 351.44 180.56 
M 363.04 130.38 365.49 129.09 369.24 125.16 371.66 120.7 371.66 117.94 369.83 114.56 
M 361.54 159.87 363.46 158.48 366.89 153.47 369.11 147.79 369.11 144.28 366.89 138.61 363.74 134.01 
M 361.09 142.94 365.43 142.21 
M 358.46 146.5 365.13 146.44 
M 358.05 148.48 364.81 150.64 
M 360.86 190.95 364.09 185.52 366.36 178.78 366.36 174.61 364.09 167.87 361.54 163.58 
M 360.24 171.7 361.9 171.24 
M 356.53 176.62 362.17 176.53 
M 354.74 180.4 361.73 181.87 
M 373.12 119.34 376.89 118.13 378.91 116.83 
M 372.05 145.95 375.68 144.21 380.33 139.74 383.33 134.68 383.33 131.55 380.33 126.49 375.68 122.02 372.05 120.27 
M 369.45 177.14 372.98 175.03 377.52 169.62 380.44 163.49 380.44 159.69 377.52 153.56 372.98 148.15 369.45 146.04 
M 378.36 188.19 377.52 186.29 372.93 180.37 369.34 178.06 
M 383.8 132.11 387.17 130.56 391.49 126.57 394.28 122.06 394.28 120.64 
M 381.06 160.65 384.18 158.72 388.17 153.77 390.75 148.18 390.75 144.71 388.17 139.12 384.18 134.17 382.25 132.98 
M 384.3 187.42 385.53 185.7 388.2 179.2 388.2 175.17 385.53 168.66 381.39 162.91 379.39 161.53 
M 395.22 121.17 395.74 121.02 
M 392.91 146.58 396.79 144.88 401.77 140.54 404.97 135.61 404.97 132.57 401.77 127.64 396.79 123.29 393.28 121.76 
M 389.89 177.56 393.75 175.47 398.69 170.11 401.88 164.03 401.88 160.28 398.69 154.2 393.75 148.84 389.89 146.75 
M 397.61 185.56 393.56 180.9 389.58 178.61 
M 405.84 133.04 409.15 131.65 413.37 128.08 413.84 127.4 
M 400.93 160.52 404.09 158.61 408.12 153.72 410.73 148.17 410.73 144.74 408.12 139.19 403.83 134.14 
M 397.99 143.33 406.03 142.24 
M 397.85 145.99 406.46 146.45 
M 398.21 149.37 406.47 150.18 
M 408.64 183.48 409.85 180.59 409.85 176.48 407.07 169.85 402.76 163.99 400.74 162.61 
M 396.13 174.71 405.06 173.56 
M 395.78 178.51 405.2 178.38 
M 395.9 181.42 404.65 183.19 
M 413.65 147.13 417.76 145.48 423.02 141.24 426.41 136.44 426.41 134.45 
M 410.82 178.99 415.1 176.85 420.57 171.35 424.1 165.13 424.1 161.28 420.57 155.06 415.1 149.57 410.82 147.42 
M 414.77 182.1 411.81 180.53 
M 422.83 161.07 425.44 159.73 427.09 158.03 
M 427.09 136.5 425.2 134.68 
M 427.09 167.46 425.25 165.18 422.83 163.69 
M 417.42 177.41 427.09 175.73 
M 417.24 180.53 419.97 180.61 
M 110.57 117.76 110.57 117.76 
M 128.28 193.61 125.4 189.8 122.08 187.6 
M 115.87 115.69 115.87 115.69 
M 137.82 195.85 138.55 193.2 
M 150.61 199.58 148.94 195.49 147.43 193.4 
M 147.5 109.43 147.5 109.43 
M 152.57 200.2 154.88 195.8 155.55 193.55 
M 170.68 205.47 170.68 201.41 167.63 194.29 
M 156.16 199.76 165.41 198.29 
M 164.48 203.73 165.1 203.71 
M 163.32 107.12 163.32 107.12 
M 172.34 205.87 172.02 205.63 
M 180.38 103.96 180.38 103.96 
M 189.53 209.52 191.29 205.7 191.29 201.42 189.86 198.31 
M 184.42 103.3 184.42 103.3 
M 190.15 201.85 191.59 200.88 193.16 198.77 
M 210.6 211.47 212.81 206.99 212.81 202.91 211.28 199.81 
M 196.85 205.29 206.69 204.55 
M 214.7 100.69 214.7 100.69 
M 211.65 204.79 214.24 203.03 216.68 199.74 
M 216.26 211.4 214.64 209.14 211.65 207.06 
M 231.81 210.55 233.18 207.77 233.18 203.81 230.82 199.02 
M 235.29 210.26 234.64 209.37 232.05 207.6 
M 252.65 208.78 253 208.05 253 204.11 249.78 197.55 
M 237.59 206.36 247.17 206.1 
M 238.18 209.15 240.86 209.72 
M 253.76 100.65 253.76 100.65 
M 251.9 206.01 254.59 203.99 258.47 198.12 258.87 197.06 
M 274.51 100.29 274.51 100.29 
M 273.33 208.46 271.31 207.04 
M 291.49 208.43 291.92 207.5 291.92 203.46 289.01 197.14 
M 277.05 201.9 286.49 200.9 
M 292.98 208.4 290.85 206.87 
M 310.62 207.9 311.01 207.06 311.01 203.16 308.11 196.88 
M 311.63 207.85 311.37 207.46 309.97 206.4 
M 327.71 206.74 328.39 205.23 328.39 201.47 326.03 196.19 
M 339.18 107.03 339.18 107.03 
M 328.54 202.45 331.19 200.35 334.23 195.51 
M 329.2 206.58 327.69 204.31 327.42 204.1 
M 343.97 204.2 344.83 202.21 344.83 198.46 343.01 194.24 
M 343.89 197.64 346.16 195.69 347.41 193.52 
M 365.42 113.4 365.42 113.4 
M 369.83 114.56 369.83 114.56 
M 360.6 191.39 360.86 190.95 
M 364.76 199.35 364.57 199.04 361.68 196.67 
M 380.48 196.24 380.48 193 378.36 188.19 
M 380.87 196.17 379.73 195.3 
M 401.39 192.29 398.65 186.76 397.61 185.56 
M 413.84 127.4 413.84 127.4 
M 403.84 191.63 407.07 187.23 408.64 183.48 
M 419.69 186.58 416.21 182.87 414.77 182.1 
M 419.97 180.61 427.09 180.82 
M 417.59 184.4 422.98 185.32 
M 206.66 99.95 248.25 35.23 249.1 35.76 210.36 100.83 
M 221.77 99.54 254.91 45.84 255.78 46.35 225.43 100.44 
M 236.89 99.51 263.09 56.35 263.96 56.85 240.51 100.45 
M 251.99 99.81 271.13 65.74 272.03 66.2 255.6 100.67 
M 267.09 99.64 280.38 74.01 281.3 74.43 270.73 100.34 
M 282.24 99.54 291.97 82.21 292.88 82.65 285.8 100.39 
M 297.35 100.69 303.99 90.59 304.89 91.05 300.82 101.74 
M 312.37 102.51 315.96 98.26 316.86 98.71 315.75 103.55 
M 321.9 103.81 323.55 104.57 
M 245.17 42.37 245.55 45.1 245.9 46.34 246.42 47.47 247.13 48.45 248.04 49.29 249.12 50.01 251.6 51.21 
M 252.69 51.85 253.45 54.67 253.97 55.95 254.66 57.08 255.52 58.06 256.57 58.88 257.77 59.56 260.47 60.66 
M 261.57 61.29 262.34 63.94 262.87 65.13 263.55 66.17 264.4 67.04 265.42 67.75 266.59 68.31 269.22 69.15 
M 270.35 69.73 271.48 72.27 272.17 73.39 272.99 74.33 273.95 75.1 275.07 75.67 276.32 76.07 279.05 76.57 
M 280.21 77.11 281.91 79.72 282.87 80.86 283.94 81.83 285.14 82.59 286.46 83.14 287.9 83.52 290.99 83.94 
M 292.14 84.49 293.93 87.17 294.93 88.34 296.05 89.33 297.29 90.12 298.66 90.71 300.15 91.12 303.33 91.6 
M 304.46 92.18 306.28 94.75 307.29 95.86 308.41 96.79 309.65 97.51 311.01 98.03 312.47 98.36 315.6 98.68 
M 316.74 99.25 317.31 101.38 317.72 102.29 318.26 103.04 318.95 103.6 320.77 104.19 322.97 104.3 
M 245.32 43.76 245.9 46.34 246.42 47.47 247.13 48.45 248.04 49.29 250.32 50.63 
M 241.88 50.4 242.38 52.68 242.84 53.68 243.47 54.54 244.28 55.29 246.29 56.47 
M 238.43 57.04 238.87 59.02 239.81 60.64 240.51 61.28 242.26 62.31 
M 234.98 63.68 235.35 65.36 235.69 66.09 236.74 67.28 238.23 68.15 
M 231.53 70.32 232.11 72.3 232.98 73.27 234.2 73.99 
M 228.08 76.96 228.54 78.51 229.21 79.27 230.17 79.83 
M 253.04 53.29 253.97 55.95 254.66 57.08 255.52 58.06 256.57 58.88 259.09 60.14 
M 249.94 59.89 250.74 62.17 251.33 63.15 252.08 63.99 252.97 64.7 255.14 65.78 
M 246.84 66.49 247.51 68.4 248.63 69.93 249.38 70.52 251.2 71.42 
M 243.74 73.09 244.28 74.63 244.68 75.29 245.79 76.34 247.25 77.07 
M 240.64 79.69 241.05 80.86 241.73 81.79 243.3 82.71 
M 261.93 62.65 262.87 65.13 263.55 66.17 264.4 67.04 265.42 67.75 267.87 68.75 
M 258.22 71.49 258.94 73.39 259.46 74.19 260.89 75.4 262.78 76.17 
M 254.51 80.33 255.01 81.65 255.83 82.67 257.68 83.58 
M 270.89 71.03 272.17 73.39 272.99 74.33 273.95 75.1 275.07 75.67 277.66 76.36 
M 267.49 81.36 268.32 82.89 269.48 84 270.21 84.37 271.89 84.82 
M 281.04 78.45 282.87 80.86 283.94 81.83 285.14 82.59 286.46 83.14 289.43 83.77 
M 293.01 85.87 294.93 88.34 296.05 89.33 297.29 90.12 298.66 90.71 301.71 91.4 
M 121.24 145.3 143.55 135.85 143.98 136.76 121.93 147.99 
M 122.41 150.06 183.4 129.99 183.73 130.94 122.36 153.46 
M 122.47 155.46 192.35 139.96 192.59 140.94 122.71 158.73 
M 122.74 160.77 199.45 151.67 199.58 152.67 122.57 164.09 
M 122.36 166.13 193.51 165 193.54 166.01 121.99 169.4 
M 121.93 171.35 202.67 178.11 202.6 179.12 122.35 174.68 
M 122.38 176.71 185.57 188.7 185.4 189.7 122.46 179.97 
M 122.57 182.12 172.01 196.97 171.74 197.95 122.38 185.29 
M 122.31 186.01 144.87 195.75 144.5 196.69 121.78 188.72 
M 140.66 138.45 148.73 138.39 152.74 138.17 156.7 137.73 160.63 137.06 164.52 136.16 168.37 135.04 176 132.42 
M 176.42 133.63 177.18 136.33 177.7 137.54 178.38 138.62 179.23 139.52 180.25 140.27 181.43 140.87 184.08 141.8 
M 184.38 143.03 184.64 145.88 184.93 147.2 185.41 148.4 186.09 149.48 186.97 150.43 188.03 151.27 190.49 152.73 
M 190.65 153.99 188.27 155.9 187.26 156.93 186.43 158.07 185.82 159.3 185.42 160.65 185.22 162.08 185.16 165.13 
M 185.2 166.4 185.99 169.61 186.54 171.1 187.27 172.46 188.18 173.67 189.29 174.74 190.56 175.69 193.42 177.34 
M 193.34 178.61 189.3 179.41 187.38 179.98 185.56 180.73 183.86 181.69 182.28 182.87 180.81 184.22 178.05 187.27 
M 177.83 188.53 174.55 188.86 173 189.2 171.55 189.72 170.22 190.45 169.01 191.4 167.9 192.52 165.86 195.13 
M 165.52 196.35 160.29 194.6 157.65 193.92 155 193.45 152.32 193.22 149.63 193.23 146.92 193.44 141.46 194.28 
M 144.7 138.46 152.74 138.17 156.7 137.73 160.63 137.06 164.52 136.16 172.19 133.77 
M 176.77 135.01 177.7 137.54 178.38 138.62 179.23 139.52 180.25 140.27 182.73 141.36 
M 153.42 143.07 154.03 144.72 154.47 145.42 155.69 146.49 157.3 147.2 
M 184.47 144.48 184.93 147.2 185.41 148.4 186.09 149.48 186.97 150.43 189.22 152.02 
M 158.43 150.64 158.73 152.41 159.04 153.19 160.05 154.51 161.52 155.55 
M 189.42 154.93 187.26 156.93 186.43 158.07 185.82 159.3 185.42 160.65 185.15 163.59 
M 161.65 158.85 160.24 160.15 159.7 160.89 159.05 162.56 158.87 164.48 
M 185.56 168.03 186.54 171.1 187.27 172.46 188.18 173.67 189.29 174.74 191.96 176.54 
M 159.14 168.78 159.78 170.77 160.84 172.44 161.56 173.14 163.3 174.31 
M 191.3 178.97 187.38 179.98 185.56 180.73 183.86 181.69 182.28 182.87 179.41 185.71 
M 162.87 177.3 160.32 177.95 158.03 179.07 157.01 179.83 155.14 181.68 
M 176.17 188.66 173 189.2 171.55 189.72 170.22 190.45 169.01 191.4 166.86 193.79 
M 162.91 195.43 157.65 193.92 155 193.45 152.32 193.22 149.63 193.23 144.19 193.82 
M 209.58 216.14 216.04 225.73 215.28 226.38 206.82 218.5 
M 194.69 214.87 229.79 274.23 228.93 274.76 191.59 216.78 
M 180.02 212.09 201.55 273.03 200.6 273.38 176.62 213.37 
M 158.71 206.08 159.93 217.57 158.95 217.79 155.16 206.87 
M 214.43 225.59 215.81 235.43 216.7 240.29 217.78 245.1 219.1 249.85 220.65 254.53 222.4 259.15 226.28 268.29 
M 225.2 268.96 219.57 267.22 216.73 266.54 213.88 266.08 211.02 265.85 208.13 265.87 205.23 266.09 199.39 266.93 
M 198.2 267.38 190.71 255.28 186.8 249.34 182.73 243.54 178.46 237.88 174 232.36 169.38 226.97 159.81 216.42 
M 215.08 230.52 216.7 240.29 217.78 245.1 219.1 249.85 220.65 254.53 224.3 263.73 
M 222.38 268.05 216.73 266.54 213.88 266.08 211.02 265.85 208.13 265.87 202.31 266.47 
M 218.11 261.78 213.12 260.45 210.6 260.04 208.07 259.84 205.52 259.85 200.38 260.38 
M 213.83 255.5 209.5 254.35 205.12 253.82 202.9 253.83 198.44 254.29 
M 209.56 249.23 205.88 248.25 202.17 247.8 200.29 247.81 196.51 248.2 
M 205.28 242.95 202.27 242.15 200.75 241.9 197.68 241.79 194.58 242.11 
M 201 236.68 198.65 236.05 196.27 235.77 192.64 236.02 
M 194.49 261.3 186.8 249.34 182.73 243.54 178.46 237.88 174 232.36 164.63 221.67 
M 389.12 197.96 395.39 209.2 394.56 209.78 386.14 200.04 
M 374.26 200.91 381.11 212.54 380.29 213.14 371.32 203.05 
M 359.54 204.5 367.82 217.47 367.02 218.08 356.65 206.71 
M 344.92 208.34 354.53 224.19 353.71 224.78 341.96 210.44 
M 330.1 211.07 340.52 231.52 339.65 232.03 326.96 212.9 
M 315.07 212.44 326.6 238.66 325.7 239.11 311.82 214.06 
M 299.97 213.13 313.54 246.04 312.62 246.46 296.67 214.64 
M 284.86 213.56 300.65 254.42 299.72 254.81 281.51 214.97 
M 269.74 213.44 288.21 263.42 287.27 263.79 266.36 214.78 
M 261.16 213.36 283.46 273.38 282.53 273.76 257.78 214.7 
M 393.72 208.81 390.52 208.11 388.95 207.95 387.43 208 385.95 208.29 384.52 208.81 383.13 209.54 380.42 211.38 
M 379.4 212.13 376.24 211.79 374.72 211.82 373.27 212.04 371.89 212.49 370.58 213.16 369.35 214.04 366.99 216.17 
M 365.98 216.95 362.69 217.02 361.12 217.24 359.64 217.65 358.26 218.28 356.98 219.13 355.79 220.17 353.57 222.61 
M 352.54 223.34 349.08 223.53 347.44 223.81 345.89 224.27 344.44 224.95 343.09 225.85 341.83 226.94 339.48 229.48 
M 338.38 230.12 334.97 230.26 333.34 230.5 331.81 230.94 330.37 231.6 329.03 232.48 327.78 233.54 325.45 236.04 
M 324.31 236.6 321.03 236.81 319.48 237.09 318.02 237.56 316.68 238.24 315.44 239.14 314.29 240.22 312.18 242.75 
M 311.03 243.27 307.71 243.73 306.15 244.12 304.7 244.7 303.37 245.49 302.17 246.48 301.07 247.65 299.07 250.34 
M 297.9 250.83 294.62 251.43 293.09 251.9 291.68 252.54 290.4 253.39 289.25 254.43 288.21 255.65 286.36 258.42 
M 285.18 258.89 283.13 260.23 282.28 260.98 281.62 261.83 281.19 262.77 280.96 263.81 280.93 264.95 281.23 267.38 
M 392.11 208.42 388.95 207.95 387.43 208 385.95 208.29 384.52 208.81 381.77 210.42 
M 377.8 211.92 374.72 211.82 373.27 212.04 371.89 212.49 370.58 213.16 368.16 215.07 
M 364.32 216.95 361.12 217.24 359.64 217.65 358.26 218.28 356.98 219.13 354.67 221.35 
M 350.79 223.4 347.44 223.81 345.89 224.27 344.44 224.95 343.09 225.85 340.63 228.17 
M 336.65 230.15 333.34 230.5 331.81 230.94 330.37 231.6 329.03 232.48 326.6 234.75 
M 331.17 224.01 329.02 224.24 327.08 224.96 326.22 225.52 324.63 227 
M 322.65 236.67 319.48 237.09 318.02 237.56 316.68 238.24 315.44 239.14 313.22 241.45 
M 316.78 228.58 314.72 228.86 313.77 229.16 312.09 230.19 310.65 231.69 
M 309.35 243.46 306.15 244.12 304.7 244.7 303.37 245.49 302.17 246.48 300.05 248.96 
M 305.01 236.61 302.56 237.11 301.45 237.56 299.5 238.92 297.88 240.82 
M 300.67 229.75 298.19 230.41 296.84 231.36 295.71 232.68 
M 296.24 251.1 293.09 251.9 291.68 252.54 290.4 253.39 289.25 254.43 287.27 257 
M 292.63 244.64 290.03 245.3 288.87 245.83 286.86 247.39 285.23 249.51 
M 289.02 238.18 286.98 238.7 286.06 239.12 284.48 240.34 283.19 242.02 
M 285.41 231.72 283.92 232.1 282.64 232.81 281.15 234.52 
M 284.12 259.54 282.28 260.98 281.62 261.83 281.19 262.77 280.96 263.81 281.05 266.15 
M 281.27 253.18 279.69 254.42 279.12 255.14 278.75 255.95 278.56 256.85 278.63 258.86 
M 278.42 246.81 277.09 247.85 276.31 249.13 276.15 249.89 276.21 251.57 
M 275.57 240.44 274.5 241.28 274.12 241.77 273.74 242.92 273.79 244.27 
M 272.72 234.08 271.62 235.08 271.33 235.96 271.37 236.98 
M 426.08 134.03 429.58 132.71 432.32 131.27 440.92 127.57 445.28 124.14 453.13 119.56 455.87 117.38 461.69 114.36 467.85 110.65 470.87 109.76 475.02 106.96 476.54 107.14 478.52 106.56 482.41 105.08 484.77 103.17 488.16 101.1 487.62 109.06 486.74 112.28 484.96 114.57 484.35 117.08 484.09 125.96 483.03 127.85 482.84 130.76 483.38 137.89 482.8 140.76 482.79 144.07 482.05 146.58 482.73 150.57 481.21 153.29 478.27 154.53 478.31 160.6 480.24 163.99 480.53 166.93 479.78 170.18 478.31 172.54 478.09 175.55 478.34 178.94 479.09 184.49 477.73 186.56 477.12 189.38 479.52 191.08 482.14 192.4 484.89 199.04 484.92 201.92 484.55 204.93 483.48 207.24 483.98 210.71 484.52 213.63 486.16 217.67 489.17 223.97 490 230.89 487.43 228.73 483.65 226.85 477.25 223.35 474.42 220.98 472.23 219.66 466.65 217.8 463.62 215.7 460.06 213.7 458.05 212.12 455.85 209.08 453.54 206.34 443.72 199.11 441.53 196.56 438.72 194.45 435.6 192.67 432.34 191.35 429.54 189.67 426.08 186.76 
M 432.63 134.63 435.86 133.16 438.88 132.27 441.56 130.75 444.61 129.63 446.62 128.08 451.44 125.23 453.89 123.25 456.96 121.72 462.11 118.6 466.42 116.91 469.69 116.53 473.26 115.28 475.14 114.95 477.5 111.05 479.13 109.87 
M 426.08 139.31 432.81 137.57 436.12 136.22 442.17 134.38 444.92 133.98 450.53 131.29 453.54 129.6 456.63 127.24 459.14 126.03 461.08 124.2 463.08 124.05 470.54 121.2 
M 436.45 139.12 439.7 138.39 442.37 137.47 445.35 137.66 451.77 135.87 454.51 134.09 458.74 132.32 461.97 130.58 464.68 128.24 470.23 126.26 
M 429.94 143.98 433.23 142.86 436.47 142.22 440.05 141.06 445.68 140.3 451.84 139.7 454.72 137.61 
M 430.37 147.04 433.93 146.14 437.26 145.57 440.4 144.6 446.66 143.8 450.63 143.53 453.24 142.04 455.19 141.38 459.79 141.76 463.46 141.42 465.52 140.14 
M 434.25 149.53 437.66 149.73 441.19 149.24 446.86 147.45 449.92 147.54 453.22 146.47 456.42 146.39 464.12 145.34 466.6 144.65 468.04 143.96 470.65 142.11 474.12 142.2 478.7 142.99 
M 426.08 152.49 430.7 153.12 434.22 153.04 437.64 153.46 441.16 153.41 443.26 152.52 448.6 151.35 452.76 151.59 456.85 152.21 461.46 151.14 464.4 149.88 465.31 148.54 467.09 148.61 
M 438 156.36 440.93 156.61 443.54 156.61 446.16 156.28 448.77 155.64 453.2 155.89 457.62 156.66 461.85 155.98 
M 437.13 159.81 440.2 159.58 442.88 160.52 445.93 160.53 449.7 159.54 453.66 160.39 457.21 160.6 461.06 159.95 464.33 160.11 467.23 159.65 468.89 159 471.18 158.84 474.62 159.82 
M 430.66 161.77 433.55 162.66 436.38 163.01 439.38 163.92 446.24 163.98 449.17 163.8 452.87 164.94 456.68 165.02 
M 436.25 166.14 439.78 166.77 446.6 166.93 449.37 167.8 453.01 167.8 455.82 168.91 459.59 169.61 462.75 169.62 466.26 168.91 
M 426.08 165.67 430.25 167.59 433.72 168.4 437.26 168.65 449.57 170.91 
M 437.85 171.9 441.52 172.43 446.97 174.61 449.93 174.29 452.73 174.67 456.19 176.25 
M 437.72 175.08 441.22 175.82 446.69 178.41 449.65 178.81 453.64 180.25 459.93 181.91 462.76 183.05 
M 436.96 178.13 440.55 179.03 450.88 183.58 454.16 184.75 456.66 185.24 459.65 186.11 462.91 187.41 464.67 187.7 466.77 189.34 469.53 190.7 473.02 191.32 476.71 192.71 480.08 192.8 
M 426.08 176.21 430.08 178.47 443.77 182.79 450.19 187.28 453.16 188.42 457.31 191.32 
M 436.56 183.82 440 184.87 442.94 186.33 449.69 190.91 455.14 193.79 457.5 195.77 459.35 197.8 462.71 198.84 466.08 200.43 472.23 204.21 474.22 204.45 476.61 205.98 480.06 207.56 482.36 208.82 
M 433.38 185.73 436.41 186.86 439.05 188.38 442.68 190.15 445.62 192.72 448.96 194.93 451.54 196.87 454.03 197.99 455.83 199.22 459.11 200.58 461.99 202.13 464.25 203.69 467.25 206.22 470.76 208.36 
M 426.08 184.12 429.91 186.92 438.78 191.31 441.77 193.41 447.7 198.39 449.84 199.77 454.85 202.49 457.17 204.18 459.83 205.65 462.48 208.22 466.96 209.38 469.07 212.02 471.41 213.68 475.59 215.63 478.42 216.42 480.26 218.13 
M 42.1 133.78 44.74 132.66 50.26 131.14 76.89 125.21 100.72 120.86 105.64 119.76 109.78 123.12 111.86 126.9 114.21 130.64 116.8 134.34 118.9 138.12 120.3 142.02 122.41 149.93 122.36 154.08 122.7 158.15 122.76 162.27 121.85 170.69 122.36 174.74 122.61 182.97 122.2 187.17 121.04 191.5 118.49 195.97 107.32 195.15 99.2 193.71 91.95 191.8 85.48 189.32 79.6 186.68 73.96 183.55 68.65 179.78 64.11 175.49 53.76 162.49 51.29 158.74 
M 100.59 136.43 101.23 139.82 100.14 146.37 99.28 149.36 97.06 154.94 97.44 160.06 98.93 165.83 99.34 169.32 98.83 173.31 91.35 173.43 85.95 173.22 80.82 172.63 75.91 171.42 71.18 169.85 66.44 167.54 61.91 164.33 
M 48.28 154.28 40.64 141.42 39.41 139.14 38.37 136.76 38.94 134.35 41.13 133.32 43.43 134.4 44.56 136.76 46.09 141.53 50.31 153.28 51.75 158.53 
M 50.92 159.14 32.67 144.99 30.68 143.27 30 140.88 31.36 138.79 33.94 138.43 35.93 140.03 42.49 147.83 49.34 155.49 51.64 158.35 
M 68.61 142.5 67.04 140.3 66.27 137.71 66.38 135.01 67.37 132.49 69.11 130.43 71.43 129.04 74.08 128.49 76.76 128.82 79.19 130.01 81.1 131.92 82.29 134.35 82.62 137.03 82.07 139.68 80.68 142 78.62 143.74 76.1 144.73 73.4 144.84 70.81 144.07 68.61 142.5 
M 79.76 132.87 80.71 134.82 80.98 136.96 80.54 139.08 79.43 140.94 77.78 142.33 75.77 143.12 73.61 143.21 71.53 142.59 69.77 141.34 
M 71.34 138.26 70.71 137.38 70.4 136.34 70.45 135.26 70.84 134.25 71.54 133.43 72.47 132.87 73.53 132.65 74.6 132.79 75.57 133.26 76.34 134.03 76.81 135 76.94 136.07 76.72 137.13 76.17 138.06 75.34 138.76 74.34 139.15 73.26 139.19 72.22 138.88 71.34 138.26 
M 71.16 137.23 73.07 139.14 
M 71.18 134.52 75.38 138.72 
M 73.23 133.85 76.64 137.26 
M 75.3 133.19 76.53 134.42 
M 51.68 158.3 54.74 161.35 
M 49.05 149.61 50.98 151.54 
M 45.67 140.17 45.83 140.34 
M 44.35 132.8 50.15 138.6 
M 49.06 131.45 52.55 134.95 
M 53.96 130.3 59.04 135.38 
M 58.98 129.26 64.55 134.84 
M 63.94 128.17 67.78 132 
M 68.85 127.03 71.08 129.25 
M 73.8 125.92 76.69 128.81 
M 78.79 124.86 82.71 128.77 
M 83.91 123.93 89.32 129.33 
M 89.07 123.03 92.13 126.09 
M 94.18 122.08 98.4 126.3 
M 99.28 121.13 103.89 125.74 
M 104.33 120.12 110.26 126.05 
M 118.13 171.79 117.72 172.08 116.73 171.58 115.84 170.62 115.2 169.34 
M 58.54 168.54 60.72 167.43 
M 99.66 184.75 100.03 185.29 100.67 185.29 101.39 184.82 101.94 184 
M 117.53 150.2 118.21 150.76 118.98 152.23 119.51 152.91 
M 71.28 166.43 72.3 170.21 71.38 172.96 70.4 174.49 
M 75.65 184.49 76.05 183.7 77.35 183.38 
M 99.32 193.73 100.62 191.47 102.54 189.55 103.6 188.03 104.95 183.78 
M 91.61 160.46 91.25 158.54 91.33 156.89 91.72 154.15 91.94 153.61 92.16 153.49 
M 82.14 178.89 82.39 177.26 82.33 176.65 82 175.99 81.68 174.76 81.26 174.47 
M 101.43 193.26 102.19 192.42 105.37 190.29 106.05 189.54 106.59 188.63 106.93 187.75 107.39 185.39 106.75 181.08 
M 78.56 168.08 78.18 169.61 74.73 173.78 74.21 176.06 73.9 176.64 
M 115.27 132.16 113.46 131.29 112.27 130.31 110.73 129.68 108.9 129.32 104.65 129.14 102.87 128.72 
M 91.62 191.09 92.08 191.38 92.54 191.42 94.86 190.26 
M 95.82 152.04 95.14 153.06 95.03 153.64 95.32 154.18 96.37 154.85 
M 63.63 165.28 63.98 164.46 64.15 163.42 64.11 162.26 63.77 159.74 63.28 158.6 62.65 157.65 61.92 156.98 61.27 156.68 60.69 156.58 59.78 156.7 59.05 157.3 
M 112.93 128.61 110.11 127.54 107.87 126.27 104.03 122.59 102.59 120.5 
M 72.6 182.58 72.73 182.16 
M 58.43 159.22 57.96 159.54 57.39 160.61 57.44 161.89 
M 85.71 189.41 87.51 187.79 89.03 185.89 89.7 185.57 90.15 185.67 
M 118.29 163.58 118.83 163.33 120.38 163.38 122.76 162.03 
M 92.31 134.67 93.56 135.68 94.82 137.12 96.61 138.7 97.02 138.9 
M 94.65 122.58 94.86 121.95 
M 91.69 184.5 91.48 185.18 91.06 185.71 90.27 186.29 89.94 186.32 89.94 186.08 
M 110.1 143.26 106.67 143.5 104.35 143.3 100.96 141.37 99.47 139.82 98.94 139 
M 103.92 152.62 102.81 154.23 101.06 157.56 100.96 158.25 
M 113.62 180 112.44 179.68 110.82 178.63 108.36 177.34 105.77 175.38 104.65 175.16 103.65 175.54 
M 58.05 167.9 58.65 167.52 60.55 166.88 61.92 166.22 62.85 164.89 63.18 163.99 63.3 162.98 63.21 161.81 
M 102.06 159.06 104.56 161.1 105.28 161.38 106.41 161.38 
M 104.9 194.72 105.03 193.94 105.63 193.13 107.76 190.94 108.67 189.45 109.28 187.08 109.33 186.35 109.26 185.58 108.41 183.8 
M 71.89 168.61 72.36 170.18 72.23 170.88 71.18 173.51 70.08 174.89 69.58 175.21 
M 87.67 189.79 89.24 188.09 89.79 187.22 89.76 186.69 
M 97.09 138.91 97.35 138.72 97.29 138.52 
M 58.73 168.78 59.68 168.13 61.39 167.31 
M 120.34 176.31 119.58 178.25 118.7 179.18 117.58 179.44 115.86 179.4 113.67 178.95 
M 55.89 139.59 54.42 140.19 51.45 142.37 50.44 142.75 47.68 143.31 
M 59.71 168.92 62.32 166.97 63.67 164.89 63.94 163.96 64.02 162.88 63.75 160.39 63.4 159.16 62.83 158.12 
M 99.05 173.99 98.22 175.58 97.08 176.68 95.6 178.51 
M 80.91 129.94 82.44 131.04 83.34 131.32 85.82 131.89 89.73 132.22 91.09 132.64 93.07 133.96 94.9 135.97 
M 117.32 188.89 116.75 188.84 116.21 189.02 115.5 189.47 114.3 190.6 112.03 191.41 
M 57.44 167.11 59.97 166.34 61.47 165.66 62.02 165.24 62.79 163.77 
M 119.44 193.13 118.14 192.58 116.88 192.29 115.85 192.62 113.68 194.07 
M 100.34 165.37 100 165.41 100 165.19 100.18 165.1 
M 102.04 178.11 102.01 176.53 101.62 175.89 100.41 175.63 98.9 175.91 
M 66.74 156.18 66.14 155.27 65.47 154.88 63.03 154.33 59.8 154.17 58.33 153.82 
M 102.33 130.83 100.75 131.68 99.41 133.02 97.42 135.71 96.93 137.02 96.84 137.99 
M 102.73 166.29 102.32 167.16 101.67 168 99.55 169.89 99.1 170.78 98.68 173.44 98.38 174.34 98.06 175.15 97.5 175.88 
M 58.19 168.09 61.95 166.42 
M 115.48 184.01 112.39 183.24 110.62 182.3 109.8 181.56 109.13 180.65 106.3 177.94 105.89 176.46 
M 57.83 167.62 59.85 166.89 
M 61.76 172.62 62.57 172.01 64.28 171.41 
M 94.69 183.12 94.46 184.08 93.91 185.08 93.16 185.64 90.48 186.71 89.96 186.7 89.74 186.36 
M 83.67 164.56 81.31 164.53 79 164.73 78.68 165.26 78.66 166.96 
M 110.44 175.7 109.59 175.67 107.99 175.26 107.07 175.27 105.34 174.86 104.61 174.87 102.4 175.62 100.44 175.57 
M 97.83 124.68 98.4 122.69 98.48 121.27 
M 116.52 139.7 114.74 141.25 111.92 143.35 110.67 143.76 106.47 144.48 104.23 144.61 100.48 143.73 
M 91.56 129.1 95.3 130.92 96.6 131.79 97.53 132.64 97.63 133.98 96.95 135.9 96.74 137.67 
M 69.73 147.23 69.9 147.66 69.62 147.81 
M 83.68 188.51 85.87 186.87 87.73 184.59 88.34 184.15 89.76 183.84 90.41 184.33 
M 77.19 147.58 77.35 148.67 77.15 149.39 76.73 150.2 75.57 151.31 74.78 152.42 74.33 153.63 74.22 154.61 
M 109.51 123.95 106.74 121.51 105.45 119.81 
M 117.66 135.89 116.77 136.62 114.45 139.07 110.87 141.89 109.72 142.3 108.56 142.3 
M 72.64 158.65 74.47 159.73 77.57 160.8 78.42 160.89 78.77 160.48 
M 90.35 190.53 90.44 191.23 
M 101.17 123.95 99.97 121 
M 78.33 145.52 78.38 146.76 78.05 148.89 77.05 150.27 76.22 150.96 
M 110.28 163.25 110.21 161.91 110.43 160.48 111.13 158.73 111.5 158.27 113.08 157.46 113.99 157.19 114.73 157.18 
M 107.82 188.29 108.26 185.63 108.1 184.64 107.34 182.73 106.74 180.21 106.37 179.37 105.4 178.09 104.97 176.77 
M 65.57 129.01 67.37 127.36 
M 68.57 127.09 69.93 127.8 
M 113.59 178.26 110.3 177.56 109.4 177.15 108.12 176.19 105.46 175.12 104.26 175.14 102.85 175.74 
M 115.64 148.06 114.99 147.57 113.42 146.87 112.49 146.7 
M 82.6 182.79 83.23 178.31 83.19 177.29 82.87 176.54 82.19 175.75 81.47 174.49 
M 81.89 150.11 79.16 150.03 77.57 150.54 76.07 151.42 75.25 152.2 74.66 153.25 74.43 154.19 
M 62.13 134.72 62.54 134.15 63.82 133.17 66.09 131.87 67.19 130.47 67.66 129.1 68.45 128.06 
M 115.61 168.13 115.46 166.75 115.65 165.29 116.12 163.9 117.02 162.08 117.28 159.74 
M 83.84 143.23 82.47 143.28 81.76 143.59 80.74 144.92 79.43 147.12 
M 108.72 185.38 107.47 182.53 106.74 180 105.1 177.4 104.92 176.22 
M 103.44 172.01 101.19 173.4 98.63 175.85 97.52 176.54 
M 100.93 179.17 101.19 177.72 101.03 176.33 100.83 176.04 100.26 175.76 99.01 175.89 
M 56.63 166.09 57.74 166.04 58.82 165.8 60.58 165.18 61.72 164.54 
M 77.98 143.99 78.25 146.7 78.11 148.41 
M 57.14 134.24 56.22 134.11 
M 95.69 149.9 95.25 150.87 94.19 152.26 93.7 153.21 93.72 153.87 94.27 154.1 
M 108.87 145.8 106.91 146.97 104.46 147.85 102.84 148.7 101.31 150.07 100.81 151.31 
M 69.34 163.87 70.1 163.66 70.87 163.98 72.06 166.16 72.97 169.5 73.07 170.46 72.42 171.76 
M 83.16 143.52 82.21 143.67 81.51 144.14 80.62 145.23 78.85 147.95 
M 118.42 142.53 116.35 145.14 115.28 145.85 113.14 145.71 110.87 145.78 109.72 146.22 
M 72.63 182.61 72.83 182.01 
M 65.2 176.52 63.2 173.51 63.33 173.07 63.78 172.54 64.67 172 
M 92.93 157.83 93.32 155.55 93.74 154.76 94.49 154.26 95.47 154.4 
M 38.45 149.44 41.27 153.21 44.17 156.71 47.16 159.91 50.32 162.89 53.66 165.73 60.53 171.12 
M 110.93 125.2 115.7 129.97 
M 111.28 117.48 118.89 125.09 
M 117.08 115.21 123.75 121.88 
M 123.42 113.47 133.98 124.04 
M 129.92 111.9 138.73 120.71 
M 136.9 110.81 147.68 121.59 
M 144.01 109.85 152.24 118.07 
M 151.22 108.99 159.94 117.71 
M 158.35 108.04 168.9 118.59 
M 165.16 106.78 174.43 116.05 
M 171.97 105.51 178.11 111.66 
M 178.78 104.25 190.22 115.69 
M 185.72 103.12 193.49 110.89 
M 192.82 102.15 200.74 110.07 
M 200.21 101.46 209.03 110.28 
M 207.75 100.93 219.26 112.44 
M 215.56 100.67 227.27 112.38 
M 223.43 100.46 233.59 110.62 
M 231.4 100.36 241.5 110.46 
M 239.55 100.43 251.02 111.9 
M 247.76 100.58 253.92 106.74 
M 255.93 100.67 267.9 112.64 
M 263.9 100.57 274.71 111.38 
M 271.71 100.31 283.12 111.72 
M 279.79 100.31 288.55 109.07 
M 288.13 100.58 294.68 107.13 
M 296.94 101.32 303.67 108.05 
M 306.04 102.35 316.33 112.63 
M 315.25 103.49 322.38 110.61 
M 324.56 104.72 335.72 115.88 
M 334 106.08 344.46 116.55 
M 344.07 108.08 352.41 116.42 
M 354.67 110.61 363.75 119.69 
M 365.58 113.45 377.25 125.12 
M 376.45 116.25 386.5 126.29 
M 387.02 118.74 397.15 128.87 
M 397.97 121.61 404.12 127.77 
M 410.46 126.03 416.59 132.16 
M 216.67 98.81 217.58 100.63 
M 219.21 94.8 222.06 100.5 
M 223.55 94.39 226.58 100.45 
M 229.69 97.6 231.11 100.44 
M 233.13 95.39 235.06 99.26 
M 235.49 81.95 236.39 83.76 
M 237.3 85.56 239.1 89.17 
M 240 90.98 240.91 92.78 
M 238.02 77.94 243.44 88.77 
M 233.79 60.39 234.24 61.29 
M 238.75 70.31 240.56 73.92 
M 241.46 75.73 246.88 86.56 
M 247.78 88.37 249.59 91.98 
M 236.32 56.37 238.58 60.89 
M 242.19 68.11 244.9 73.52 
M 245.8 75.33 253.92 91.57 
M 238.86 52.36 242.02 58.68 
M 245.63 65.9 256.46 87.56 
M 257.36 89.37 258.26 91.17 
M 241.39 48.35 245.45 56.47 
M 252.68 70.91 256.29 78.13 
M 257.19 79.94 258.99 83.55 
M 243.93 44.33 247.09 50.65 
M 257.02 70.51 259.72 75.92 
M 289.42 99 290.11 100.37 
"/></svg>