<svg xmlns="http://www.w3.org/2000/svg" width="520" height="320"><rect x="0" y="0" width="520" height="320" fill="floralwhite"/><rect x="10" y="10" width="500" height="300" stroke="black" stroke-width="1" fill="none"/><path stroke="black" stroke-width="1" fill="none" stroke-linecap="round" stroke-linejoin="round" d="
M 161.62 142.61 173.32 132.01 181.57 124.9 190.18 118.24 208.2 106 217.98 101.21 228.31 97.76 250.06 96.67 260.4 100.08 269.76 105.65 296.3 124.71 304.61 131.74 320.54 146.6 347.24 170.07 
M 347.24 191.96 333.38 206.81 325.83 214.66 317.97 222.2 309.87 229.48 301.26 236.14 292.41 242.49 283.2 248.3 273.4 253.04 263.22 256.92 252.51 258.89 241.62 258.76 230.74 259 220.11 256.64 210.38 251.73 201.01 246.19 191.5 240.89 182.41 234.88 174.11 227.83 169.09 223.01 
M 192.65 165.29 193.37 165.18 
M 197.12 164.8 199.07 164.71 203.35 164.9 209.97 165.49 
M 213.97 165.6 217.56 165.29 
M 230.6 162.7 235.68 162.04 237.2 161.66 
M 240.14 160.88 244.66 159.93 248.16 159.87 249.95 160.16 
M 253.45 160.67 256.74 160.99 
M 262.68 161.32 265.86 161.76 
M 269.43 162.6 273.2 163.66 
M 276.85 164.57 278.61 164.93 285.14 165.37 288.66 165.93 299.08 168.19 301.46 168.93 
M 168.65 144.52 168.62 151.34 168.41 153.97 
M 173.53 206.18 174.92 212.17 
M 175.55 215.62 176.16 219.05 
M 176.87 222.56 178.6 229.82 
M 179.8 135.39 177.9 140.04 176.91 143.44 176.74 145.47 
M 176.65 154.22 176.59 156.39 176.28 158.31 
M 182.76 205.58 183.6 209.2 185.4 221.53 
M 186.02 225.14 187.67 234.1 189.02 239.25 
M 190.75 139.37 189.44 142.31 
M 188.06 145.19 186.6 148.02 
M 185.22 150.93 184.6 152.47 184.06 156.24 184.05 165.01 
M 193.28 207.61 193.99 211.66 194.58 216.95 
M 195.08 220.58 196.82 231.56 
M 197.62 235.36 199.91 243.37 
M 201.94 122.36 200.64 133.55 
M 200.22 137.25 199.58 142.83 198.92 146.32 197.87 149.45 196.51 152.28 195.42 155.39 195.17 157.24 
M 194.86 162.01 194.81 164.92 
M 203.29 208.02 205.26 218.13 205.96 223.66 
M 206.34 227.24 206.77 230.85 
M 208.26 238.53 209.11 242.33 
M 210.62 132.62 210.26 134.3 209.13 143.35 
M 208.92 147.25 208.72 153.22 207.34 165.22 
M 213.89 209.26 214.14 210.71 
M 216.49 226.29 217.64 232.33 217.83 234.13 
M 218.18 237.64 218.53 241.05 
M 218.91 244.39 219.36 247.7 
M 219.79 250.89 220.11 255.22 220.02 256.42 
M 223.27 114.67 222.1 121.73 
M 221.48 125.2 220.12 133.99 219.58 139.49 
M 219.28 143.24 219.09 149.16 219.22 155.43 
M 219.09 159.41 218.92 163.23 
M 224.68 209.21 227.9 231.38 228.64 238.53 228.97 246.31 
M 229.15 249.32 229.53 253.79 230.43 258.93 
M 232.61 128.76 231.38 133.62 230.2 144.59 229.46 149.99 
M 229.11 153.74 228.5 159.32 228.43 162.96 
M 234.76 209.39 235.91 217.96 238.66 230.65 239.08 234.34 239.61 241.15 239.47 244.02 238.87 247.76 
M 239.44 253.87 240.89 258.77 
M 244.65 116.79 244.87 121.12 
M 244.69 125.02 244.47 126.84 242.86 133.34 241.89 140.46 240.93 145.63 
M 239.63 152.55 238.28 161.38 
M 243.25 208.47 244.34 213.61 
M 245.26 217.89 246.32 223.94 247.03 231.23 248.28 238.81 248.84 243.91 
M 249.49 250.37 250.37 254.06 
M 251.63 258.08 251.9 258.88 
M 255.01 119.84 255.07 128.02 
M 254.88 131.87 254.32 137.36 253.8 140.88 253.39 142.51 
M 252.38 145.59 251.18 148.5 
M 250.06 151.51 247.58 159.79 
M 252.64 209.05 254.37 214.79 254.84 216.94 
M 255.44 220.89 255.6 226.02 256.29 233.2 257.62 240.74 260.04 250.58 
M 260.93 254.37 261.58 257.22 
M 264.84 117.27 264.81 121.23 
M 264.87 125.28 264.85 131.23 264.48 136.83 
M 264.1 140.45 263.88 142.23 263.45 143.82 
M 262.43 146.86 260.72 151.27 257.77 161.04 
M 261.8 206.68 264.41 217.93 
M 265.21 222.06 267.57 238.95 268.3 242.76 270.68 252.64 
M 273.92 119.35 273.94 123.26 
M 273.87 127.07 273.44 134.4 
M 273.05 137.92 272.42 141.23 
M 271.58 144.35 270.71 147.49 
M 269.99 150.79 268.99 155.88 266.87 161.92 
M 271.88 207.45 274.34 218.31 275.05 222.36 276.68 235.38 
M 277.16 239.02 278.12 244.63 279.36 250.16 
M 282.05 124.51 281.92 128.14 
M 281.76 131.76 281.68 133.57 281.21 136.9 280.19 141.66 
M 279.62 144.99 277.9 164.86 
M 281.41 203.69 284.96 223.1 
M 285.53 227 286.96 239.79 287.79 244.46 
M 288.46 120.62 288.82 124.6 
M 289 132.04 288.25 136.82 287.91 140.22 287.9 145.89 
M 288.01 149.82 288.12 155.72 287.87 165.74 
M 293.47 203.47 293.72 208.18 293.67 209.91 
M 293.58 213.36 293.75 218.76 294.72 226.58 295.39 233.94 296.06 237.83 
M 296.99 138.06 297.25 140.08 297.4 143.79 297.34 147.32 297.67 153.11 
M 297.92 157.03 298.03 160.83 
M 303.2 201.25 303.45 203.36 303.61 207.21 303.52 210.77 302.9 217.36 302.97 220.98 303.61 230.21 
M 305.31 141.7 306.58 151.1 307.6 155.43 310.15 164.64 310.43 166.6 
M 312.63 197.78 312.53 205.18 312.32 208.79 310.81 221.63 
M 286.85 135.96 284.61 135.5 283.72 135.55 
M 345.1 192.38 343.13 192.14 342.23 191.7 340.76 189.93 338.73 188.34 
M 292.6 163.74 290.34 164.7 287.04 165.01 284.98 166.26 
M 227.61 147.05 229.03 146.28 229.67 145.55 230.12 142.33 
M 334.14 203.53 334.21 204.45 334.05 204.85 333.47 205.47 332.4 206.12 329.11 207.21 328.05 207.72 
M 280.9 217.33 278.32 215.22 275.82 213.91 273.52 211.43 272.35 210.81 271.76 210.66 270.49 210.7 
M 227.75 97.94 225.26 101.47 224.49 101.77 223.27 101.82 
M 331.02 209.27 329.87 209.65 329.2 210.04 327.68 211.82 
M 209.55 238.89 208.38 238.93 205.57 238.62 203.29 238.74 202.5 238.88 200.34 239.71 
M 224.47 255.35 224.47 256.25 224.27 256.5 223.12 256.96 222.01 257.06 
M 266.78 113.58 265.77 109.65 265.05 108.92 
M 193.2 116.93 193.28 116.11 
M 249.28 236.91 248.75 236.06 248.31 236.09 247.79 236.41 
M 209.06 144.25 207.95 144.42 205.75 145.16 202.71 146.7 200.86 147.95 200.09 148.84 199.86 149.34 199.79 149.93 199.96 150.61 200.43 151.3 
M 239.6 132.47 239.25 130.66 238.85 130.15 237.21 128.42 234.71 126.56 
M 244.43 215.12 242.5 215.69 240.77 216.85 239.78 217.22 238.87 216.86 238 215.98 
M 272.79 135.7 271.47 133.63 270.44 132.6 269.27 132.02 268.16 131.69 267.31 131.16 
M 211.77 102.77 227.86 30 228.75 30.18 215.19 102.35 
M 224.63 97.94 238.64 51.07 239.52 51.31 228.04 97.8 
M 238.31 96.56 249.95 71.13 250.8 71.47 241.59 97.14 
M 252.12 96.63 259.39 87.46 260.15 87.95 255.11 97.95 
M 263.82 101.52 265.08 102.57 
M 227.38 37.5 228.54 42.12 229.28 44.34 230.18 46.47 231.28 48.5 234.02 52.26 237.24 55.76 
M 238.35 56.06 239.66 60.57 241.45 64.8 242.61 66.76 243.95 68.61 245.46 70.36 248.79 73.67 
M 249.85 74.1 250.81 77.89 251.45 79.69 252.24 81.39 253.22 82.97 255.71 85.82 258.66 88.37 
M 259.63 88.99 259.64 92.34 260.18 95.5 260.73 96.97 261.49 98.36 262.43 99.68 264.64 102.2 
M 227.93 39.83 229.28 44.34 230.18 46.47 231.28 48.5 232.56 50.42 235.6 54.03 
M 226.79 48.35 227.95 52.23 229.67 55.81 230.78 57.47 233.38 60.57 
M 225.65 56.88 226.62 60.13 227.27 61.66 228.99 64.51 231.17 67.1 
M 224.51 65.41 225.29 68.02 226.45 70.44 228.96 73.64 
M 223.37 73.93 224.36 76.86 225.41 78.6 226.75 80.18 
M 238.97 58.34 240.47 62.74 241.45 64.8 242.61 66.76 243.95 68.61 247.09 72.03 
M 237.58 67.54 238.73 70.91 239.48 72.5 241.4 75.41 243.81 78.04 
M 236.2 76.74 237.51 80.19 238.85 82.22 240.53 84.05 
M 250.3 76.02 251.45 79.69 252.24 81.39 253.22 82.97 254.38 84.45 257.15 87.11 
M 172.62 163.01 403.31 171.25 403.28 172.16 173.43 166.2 
M 173.66 167.14 379.97 182.34 379.91 183.25 174.28 170.34 
M 174.47 171.33 356.44 191.7 356.34 192.61 174.97 174.52 
M 175.13 175.56 332.82 199.33 332.69 200.24 174.93 178.66 
M 174.86 179.68 309.21 205.24 309.04 206.13 174.92 182.81 
M 174.94 183.87 285.7 209.42 285.5 210.31 174.83 186.94 
M 174.79 188.01 262.38 211.88 262.15 212.77 174.39 190.98 
M 174.24 192.04 239.36 212.66 239.1 213.53 173.8 194.94 
M 173.63 196.04 216.72 211.76 216.43 212.62 173.59 198.95 
M 173.68 200.37 194.56 209.21 194.23 210.07 173.65 202.95 
M 379.11 171.53 373.98 172.5 369.08 173.98 366.75 175 364.5 176.22 362.34 177.61 358.15 180.73 
M 358.07 181.88 352.99 182.48 350.5 182.94 348.09 183.59 345.74 184.44 341.27 186.72 336.98 189.52 
M 336.86 190.67 331.84 190.89 326.97 191.65 324.62 192.33 322.34 193.21 320.1 194.28 315.73 196.76 
M 315.57 197.89 310.63 197.76 305.82 198.16 303.48 198.66 301.18 199.38 298.92 200.28 294.48 202.44 
M 294.28 203.57 289.46 203.07 284.71 203.12 282.39 203.45 280.09 204 277.82 204.74 273.33 206.56 
M 273.08 207.68 268.39 206.84 263.74 206.54 261.44 206.71 259.15 207.09 256.88 207.66 252.35 209.15 
M 252.06 210.26 247.53 209.08 242.99 208.44 240.72 208.44 238.45 208.65 236.18 209.05 231.64 210.21 
M 231.31 211.31 226.94 209.8 222.54 208.84 220.31 208.67 218.07 208.71 215.81 208.95 211.27 209.77 
M 210.9 210.86 206.73 209.03 202.47 207.75 200.3 207.41 198.09 207.29 195.86 207.36 191.33 207.85 
M 190.92 208.92 186.91 206.98 182.8 205.58 180.68 205.19 178.53 205.01 173.55 205.22 
M 376.53 171.98 371.49 173.15 369.08 173.98 366.75 175 364.5 176.22 360.23 179.14 
M 355.05 171.39 350.51 172.44 348.34 173.19 344.22 175.21 340.37 177.83 
M 333.56 170.8 329.53 171.74 327.6 172.4 323.94 174.19 320.52 176.53 
M 312.08 170.21 308.55 171.03 306.86 171.61 303.65 173.18 300.66 175.22 
M 290.59 169.62 287.56 170.32 286.11 170.82 283.37 172.16 280.81 173.91 
M 269.1 169.03 265.37 170.03 263.09 171.15 260.95 172.61 
M 247.62 168.44 244.63 169.24 242.81 170.14 241.1 171.3 
M 355.52 182.14 350.5 182.94 348.09 183.59 345.74 184.44 343.47 185.49 339.11 188.09 
M 332.9 180.69 328.47 181.4 324.27 182.72 322.26 183.65 318.41 185.95 
M 310.29 179.24 306.44 179.86 302.79 181.01 301.05 181.81 297.71 183.8 
M 287.67 177.8 284.41 178.32 281.32 179.29 279.84 179.97 277.01 181.66 
M 265.06 176.35 261.09 177.12 258.63 178.13 256.31 179.52 
M 242.44 174.9 239.35 175.5 237.42 176.29 235.61 177.38 
M 334.34 190.74 329.38 191.18 326.97 191.65 324.62 192.33 322.34 193.21 317.91 195.48 
M 310.17 188.31 305.9 188.69 303.83 189.09 299.84 190.43 296.03 192.39 
M 285.99 185.88 282.42 186.19 279 187.02 277.35 187.66 274.16 189.29 
M 261.82 183.45 257.55 183.97 254.86 184.88 252.29 186.2 
M 237.65 181.02 234.4 181.41 232.37 182.1 230.42 183.1 
M 313.09 197.79 308.21 197.86 305.82 198.16 303.48 198.66 301.18 199.38 296.7 201.32 
M 286.59 194.15 282.56 194.22 280.59 194.46 276.77 195.47 273.07 197.07 
M 260.1 190.52 256.92 190.57 255.37 190.76 252.35 191.55 249.44 192.82 
M 233.6 186.89 230.14 187.06 227.94 187.64 225.81 188.56 
M 291.86 203.28 287.07 203 284.71 203.12 282.39 203.45 280.09 204 275.57 205.61 
M 269.08 199.32 265.13 199.09 263.18 199.19 259.37 199.92 255.64 201.25 
M 246.3 195.37 243.18 195.18 240.14 195.48 238.64 195.83 235.71 196.88 
M 223.51 191.41 221.24 191.28 219.01 191.49 215.77 192.52 
M 270.73 207.22 266.06 206.6 263.74 206.54 261.44 206.71 259.15 207.09 254.61 208.37 
M 245.29 201.88 241.7 201.4 239.93 201.36 236.41 201.77 232.93 202.75 
M 219.84 196.53 217.35 196.2 214.88 196.26 211.24 197.14 
M 249.79 209.63 245.26 208.67 242.99 208.44 240.72 208.44 238.45 208.65 233.91 209.6 
M 218.95 202.05 216 201.42 213.05 201.27 211.58 201.41 208.63 202.02 
M 229.13 210.52 224.75 209.23 222.54 208.84 220.31 208.67 218.07 208.71 213.54 209.32 
M 208.82 209.91 204.61 208.29 202.47 207.75 200.3 207.41 198.09 207.29 193.6 207.57 
M 214.96 252.95 215.36 258.72 214.48 258.97 211.8 253.85 
M 203.17 246.22 208.39 279.82 207.5 280 199.94 246.84 
M 191.31 239.63 192.59 271.47 191.68 271.54 188.04 239.88 
M 185.47 236.1 184.07 241.71 183.16 241.67 182.19 235.97 
M 214.21 258.46 211.7 262.07 210.61 263.94 209.7 265.86 209 267.86 208.17 272.07 207.87 276.46 
M 206.74 276.68 204.16 273.8 201.3 271.4 199.72 270.47 198.02 269.72 196.23 269.14 192.46 268.29 
M 191.32 268.38 190.87 262.03 190.48 258.9 189.9 255.82 189.11 252.8 186.92 246.9 184.21 241.15 
M 205.47 275.21 202.78 272.52 201.3 271.4 199.72 270.47 198.02 269.72 194.36 268.68 
M 203.17 267.73 201.11 265.67 198.76 264.09 197.46 263.52 194.66 262.72 
M 200.87 260.24 198.65 258.21 196.9 257.32 194.95 256.76 
M 317.58 221.88 323.07 226.29 322.63 227.09 315.98 224.75 
M 307.23 230.8 314.12 236.21 313.66 237 305.57 233.63 
M 296.31 238.98 307.29 247.58 306.79 248.34 294.51 241.73 
M 285 246.59 302.12 261.36 301.56 262.08 282.99 249.18 
M 273.54 252.22 299.03 275.83 298.44 276.52 271.39 254.7 
M 321.97 226.85 319.23 228 316.88 229.52 315.94 230.5 315.14 231.63 314.49 232.9 313.43 235.67 
M 312.85 236.66 310.39 238.25 308.39 240.14 307.65 241.26 307.09 242.49 306.69 243.83 306.19 246.72 
M 305.56 247.68 303.33 249.93 302.39 251.13 301.61 252.4 301.04 253.76 300.47 256.71 300.4 259.88 
M 299.7 260.79 297.85 263.32 296.53 265.99 296.17 267.39 296.02 268.86 296.06 270.37 296.48 273.47 
M 304.41 248.79 302.39 251.13 301.61 252.4 301.04 253.76 300.67 255.2 300.4 258.28 
M 298.74 262.05 297.1 264.63 296.53 265.99 296.17 267.39 296.02 268.86 296.24 271.91 
M 291.56 258.07 290.49 259.75 289.89 261.54 289.8 262.49 289.93 264.48 
M 346.33 169.28 349.14 168.41 351.82 167.18 356.72 164.52 358.87 162.92 361.55 161.91 364.15 159.9 368.16 156.46 370.38 155.25 372.96 154.09 375.46 152.01 378.02 151.08 382.39 147 386.41 144.75 388.83 143.89 391.19 142.62 393.35 141.87 396.08 139.83 404.33 134.91 405.64 132.2 410.57 131.57 413.32 129.88 415.46 127.33 418.29 125.75 421.45 124.56 422.98 123.17 423.67 121.84 424.94 120.98 426.99 120.29 434.67 115.31 441.86 111.39 451.9 103.33 453.44 103.49 454.31 102.14 457.41 100.73 460.77 100.24 466.43 96.23 468.92 94.82 470.89 91.6 471.1 104.87 470.12 107.29 468.85 109.43 468.08 115.48 467.22 118.02 466.17 120.37 465.84 123.44 465.02 126.02 464.78 129.18 464.97 132.77 462.63 137.73 459.64 142.12 459.17 144.57 459.26 147.51 457.85 151.8 457.04 160.85 456.93 164.04 455.03 168.85 455.02 172.2 453.38 173.89 452.26 176.04 451.06 181.38 451.74 185.22 451.36 187.99 451.63 196.24 451.37 198.54 451.99 202.63 454.16 207.8 457.12 213.86 458.23 218.23 458.33 220.46 458.82 223.06 459.74 226.11 460.83 229.31 463.72 235.02 464.24 236.89 465.48 239.48 466.94 245.48 466.5 247.4 466.34 249.6 467.6 255.39 467.81 257.78 469.02 261.18 469.91 264.29 470.59 278.53 468.04 275.76 465.1 273.31 463.18 271.03 460.66 269.01 456.87 268.49 453.42 267.6 451.29 266.72 448.78 264.68 447.91 263.18 446.35 262.13 444.61 260.18 441.53 258.66 436.53 254.5 433.57 253.45 431.19 253.55 428.42 251.87 426.5 249.88 424.11 247.85 422.06 245.27 416.99 242.15 414.07 240.17 412.33 237.93 404.28 232.75 402.83 231.24 397.03 229 391.51 224.85 389.25 223.67 387.34 222.06 386.23 219.9 383.85 218.27 380.48 216.68 377.42 215.67 375.64 213.19 373.4 211.53 370.79 209.89 365.58 206.96 361.74 203.35 359.64 201.71 349.27 195.12 346.33 192.93 
M 354.81 168.02 357.16 166.41 359.3 165.25 362.32 164.66 364.75 163.67 368.73 160.28 374.27 157.16 379.19 153.56 381.7 152.86 384.05 151.35 388.59 149.82 392.71 146.85 396.2 145.75 400.31 142.21 403.15 140.57 405.81 139.32 407.45 138.05 409.13 137.03 411.96 135.99 
M 352 170.62 354.74 169.88 357.24 168.48 359.72 167.5 362.79 166.92 365.42 166.2 367.57 165.32 369.9 164.13 371.96 162.4 378.41 159.53 380.49 157.98 382.73 157.33 385.37 155.28 388.06 154.38 394.02 153.42 395.39 152.29 397.78 150.73 400.3 149.23 402.77 147.53 405.15 146.22 411.28 144.63 413.41 143.7 415.6 142.2 418.66 141.75 423.65 139.33 428.81 137.87 431.48 136.9 432.45 135.07 437.08 130.37 439.95 129.16 443.31 128.71 445.84 126.65 448.87 125.94 451.29 124.78 453.62 124.32 
M 357.54 170.81 360.14 169.84 370.85 167 375.56 164.9 378.53 163.82 381.11 162.58 383.52 161.73 386.67 160.22 389.77 159.13 393.12 158.76 395.25 157.67 397.42 157.42 400.47 156.52 402.84 155.31 409.26 150.99 412.02 149.78 414.5 148.89 420.02 148.69 422.24 146.84 
M 365.1 171.06 368.83 170.02 373.96 168.31 376.99 168.06 379.39 167.36 381.77 166.3 387.29 165.03 389.93 163.74 392.68 163.07 395.78 161.84 400.37 161.05 403.5 159.82 406.12 158.14 411.97 155.21 417.68 154.54 420.42 154.51 422.91 153.83 425.75 153.53 427.56 152.51 
M 373.12 171.33 374.59 171 377.78 170.62 382.53 169.46 388.52 168.57 393.85 167.04 396.52 166.78 398.57 166.17 401.01 165.98 403.59 164.54 406.92 163.74 410.39 162.51 412.91 161.22 415.82 161.43 419.45 160.65 421.91 160.45 426.49 161.17 
M 364.1 176.48 367.16 175.88 369.73 174.85 371.9 174.2 375.08 174.1 378.14 174.2 383.07 172.72 385.65 172.38 388.92 172.11 392.37 172.12 395.03 171.67 398 171.99 400.44 172.47 403.21 172.1 406.17 171.16 409.06 169.77 412.46 169.11 415.18 168.04 418.2 167.53 420.82 167.38 424.09 166.76 426.19 166.74 
M 359.53 179.67 367.73 178.71 372.79 177.55 375.67 177.44 378.96 178.06 383.06 177.64 386.88 177.03 392.7 176.95 395.69 176.23 401.17 177.33 403.82 177.41 407.33 177.27 416.32 175.73 418.88 176.05 422.72 176.27 423.3 175.59 424.53 175.4 427.36 174.22 430.96 174.08 434.76 175.26 438.78 174.94 441.73 174.17 443.88 172.78 444.81 171.72 
M 357.68 181.92 359.34 182.14 362.1 182.02 365.19 181.63 368.27 181.7 371.24 181.22 373.75 181.05 376.36 181.38 378.19 182.04 380.15 182.27 382.96 181.94 393.91 182.01 396.41 181.34 399.13 181.15 402.74 180.61 405.46 181.32 408.59 181.92 411.08 182.29 413.37 182.33 415.76 182.76 418.04 181.91 419.55 182.56 425.37 182.54 428.32 181.64 431.47 182.16 435.25 182.47 
M 353 183.28 359.28 184.22 362.07 184.39 364.88 184.39 367.7 184.62 370.75 184.32 373.77 184.36 376.56 184.96 378.72 185.71 383.48 186.2 386.7 185.6 393.57 185.43 396.09 186.47 399.15 186.88 402.27 186.38 407.57 187.71 409.86 188.05 415.09 188.5 417.98 187.92 
M 352.67 184.95 358.85 186.38 366.69 187.54 369.64 187.72 372.32 187.66 378.39 188.83 381.34 189.19 384.1 189.82 387.04 189.59 392.87 189.55 400.07 191.56 403.3 191.89 405.51 191.75 409.29 193.28 412.24 194.21 414.91 194.8 422.61 193.47 424.65 194.71 426.77 195.17 428.51 194.79 431.46 194.76 434.51 196.21 
M 355.25 187.34 358.1 188.16 360.6 189.14 363.43 189.78 369.21 190.52 371.24 191.22 377.2 191.61 380.57 193.06 383.45 193.87 386.89 193.81 389.46 194.2 392.74 194.33 394.77 195.04 396.73 196.51 405.67 197.54 408.75 198.89 412.16 199.33 414.49 199.4 417.56 199.06 421.25 199.07 424.03 199.47 427.32 201 429.86 203.61 433.22 204.07 435.21 203.73 437.54 204.07 
M 346.33 185.97 349.52 187.24 355.02 188.88 357.61 189.84 363.22 192.51 366.17 193 368.77 193.16 377.83 195.31 380.58 196.75 383.65 197.44 388.45 198.18 393.19 199.3 399.88 201.73 402.29 202.43 404.46 203.36 411.38 205.44 414.28 205.78 417.12 205.29 419.5 205.35 421.79 205.99 425.34 207.74 428.03 209.87 431.36 211.29 434.19 211.49 
M 354.9 190.6 362.66 194.58 365.91 195.32 368.79 195.55 371.25 196.78 373.94 197.55 376.77 199.18 379.84 200.57 385.46 202.17 387.79 202.3 389.87 202.95 393.2 203.5 395.33 204.66 402.92 207.94 407.78 211.16 410.62 212.39 414.06 211.36 417.21 211.26 421.4 211.74 423.52 213.83 425.73 215.46 
M 352.03 191.48 354.65 192.78 360.14 194.98 362.86 196.44 365.92 197.41 368.91 198.66 371.03 200.06 373.37 200.64 379.01 204.01 380.92 205.82 383.41 206.79 386.86 206.55 389.96 207.19 395.37 208.86 398.78 211.74 401.05 212.56 406.8 215.85 409.43 216.93 411.77 217.21 417.04 220.37 420.65 221.23 422.3 221.2 424.76 222.67 427.55 224.91 
M 349.41 191.93 351.91 193.32 357.36 195.72 360.08 197.25 365.66 199.41 372.59 204.41 378.29 207.31 381.1 210.85 384.53 211.95 387.58 211.93 390.87 212.14 392.91 213.3 395.39 215.42 397.67 216.73 400.79 218.15 403.54 219.65 405.67 221.32 408.38 222.47 411.47 223.55 413.16 224.64 415.18 226.36 417.85 227.45 420.22 229.29 425.73 232.11 427.62 233.57 430.05 234.56 432.69 235.13 436.15 236.16 439.08 237.84 443.7 239.24 
M 346.33 191.53 352.02 195.22 362.61 200.69 369.31 205.48 371.95 207.16 374.64 208.06 378.91 212.15 381.15 213.89 386.45 215.78 388.4 217.23 389.6 218.33 392.25 219.96 395.11 222.13 398.64 224.33 401.93 225.24 404.48 226.99 409.13 229.73 412.17 230.6 414.14 231.95 415.6 233.17 417.04 234.74 420.69 237.77 425.41 240.27 
M 287.24 118.22 290.03 124.04 306.94 112.73 310.55 113.25 313.59 113.2 316.28 112.8 320.61 112.57 323.01 112.99 328.81 114.59 332.45 116.48 334.93 121.7 335.04 124.15 335.85 126.66 337.55 128.7 339.86 130.9 342.25 130.12 345.36 130.04 346.02 132.66 346.15 135.64 345 137.88 344.48 140.72 343.69 142.94 344.05 145.43 342.92 147.74 340.98 149.61 336.14 160.89 331.55 156.33 
M 290.98 120.83 294.44 121.4 297.72 120.46 300.95 118.61 303.79 116.5 305.19 115.25 
M 294.72 123.44 298.04 123.5 301.48 122.59 304.37 121.39 307.74 120.71 309.56 118.6 311.06 117.94 
M 298.27 126.29 307.6 123.93 310.75 123.42 312.81 121.81 
M 301.82 129.15 305.24 128.55 308.54 127.69 311.56 126.22 313.87 125.46 316.48 124.32 
M 305.16 132.25 308.71 132.66 315.01 130.3 320.41 127.21 322.94 126.52 
M 308.49 135.36 311.65 135.73 314.77 135.07 318.27 133.96 321.07 132.36 
M 311.81 138.49 315.4 138.66 318.68 138.58 321.34 137.56 324.17 135.75 328.07 132.11 330.69 131.85 333.93 132.75 
M 315.12 141.62 319.07 141.22 321.81 140.42 324.38 139.22 332.03 135.1 334.16 135.57 336.96 135.45 
M 318.47 144.71 321.78 144.81 324.92 143.19 331.63 140.82 333.61 139.44 334.81 139.46 
M 321.84 147.78 325.59 147.57 328.29 146.47 330.85 145.05 335.48 143.67 
M 325.23 150.82 329.44 151.33 331.89 150.13 336.79 148.52 339.69 147.84 
M 328.67 153.82 333.43 155.63 335.94 155.03 338.76 154.05 
M 62.76 166.24 63.25 165.66 65.07 164.52 76.76 161.57 82.59 159.88 88.03 157.73 94.36 155.49 109.71 151.71 117.83 149.88 133.78 146.77 148.27 144.52 154.08 143.42 161.62 142.61 165.2 146.54 166.87 150.66 168.78 154.75 170.92 158.83 172.61 162.94 173.66 167.12 175.13 175.52 174.85 179.82 174.94 184.08 174.77 188.36 173.48 197.02 173.73 201.27 173.5 209.83 172.9 214.15 171.61 218.54 169.09 222.99 153.78 222.26 142.64 220.84 132.66 218.75 123.41 216.26 106.76 210.25 99.62 206.78 92.82 203.17 
M 90.39 201.74 87.05 199.78 81.52 195.53 70.36 183.41 67.92 180.34 65.3 175.61 
M 145.43 163.84 145.72 167.43 144.72 170.94 143.71 174.26 142.33 177.46 140.71 180.49 139.54 183.26 139.68 188.3 142.81 197.22 143.08 201.06 132.9 201.2 125.53 200.92 118.47 200.19 111.39 199 97.59 194.95 91.5 192.06 
M 91.45 202.75 86.19 197.48 81.47 192.4 71.98 182.85 65.75 176.05 60.87 171.1 59.59 169.14 60.18 166.96 62.3 166.05 64.47 166.94 66.01 168.56 69.04 172.07 75.97 181.5 82.8 190.24 85.8 193.82 88.44 197.38 93.06 202.97 
M 92.67 203.72 79.1 203.92 72.5 204.28 51.82 204.1 49.65 203.15 48.89 200.9 49.94 198.91 52.01 198.4 56.68 199.27 66.04 200.35 92.74 202.82 
M 99.6 182.48 96.29 177.84 94.66 172.38 94.9 166.69 96.97 161.39 100.65 157.04 105.54 154.13 111.12 152.96 116.77 153.66 121.89 156.16 125.92 160.19 128.42 165.31 129.12 170.96 127.95 176.53 125.04 181.43 120.69 185.11 115.38 187.18 109.69 187.41 104.23 185.79 99.6 182.48 
M 123.1 162.2 125.1 166.29 125.66 170.82 124.73 175.28 122.4 179.19 118.92 182.14 114.67 183.79 110.12 183.98 105.75 182.68 102.05 180.03 
M 106.26 174.45 104.93 172.6 104.28 170.42 104.38 168.14 105.2 166.02 106.68 164.28 108.63 163.11 110.86 162.65 113.12 162.93 115.17 163.93 116.78 165.54 117.78 167.59 118.07 169.85 117.6 172.08 116.43 174.03 114.69 175.51 112.57 176.33 110.29 176.43 108.11 175.78 106.26 174.45 
M 105.9 173.12 108.74 175.97 
M 105.39 170.15 111.61 176.37 
M 106.91 169.21 113.62 175.92 
M 107.67 167.51 115.22 175.06 
M 109.34 166.72 116.52 173.89 
M 110.68 165.59 117.43 172.35 
M 113.97 166.42 117.95 170.4 
M 113.79 163.78 117.81 167.8 
M 66.73 178.31 70.39 181.97 
M 64.34 164.98 68.17 168.81 
M 68.43 163.6 71.68 166.85 
M 72.88 162.58 75.88 165.58 
M 77.21 161.44 81.41 165.64 
M 81.45 160.21 86.04 164.8 
M 85.46 158.75 89.95 163.24 
M 89.42 157.24 93.04 160.86 
M 93.46 155.81 96.39 158.74 
M 97.75 154.63 100.43 157.31 
M 102.13 153.54 103.77 155.18 
M 106.54 152.48 107.73 153.67 
M 110.96 151.43 112.68 153.15 
M 115.42 150.42 119.2 154.2 
M 119.96 149.49 123.19 152.72 
M 124.58 148.64 128.8 152.87 
M 129.14 147.73 131.96 150.55 
M 133.67 146.79 136.82 149.94 
M 138.41 146.06 142.8 150.45 
M 143.14 145.33 148.42 150.6 
M 147.87 144.58 153.17 149.88 
M 152.48 143.72 155.25 146.5 
M 157.25 143.02 160.91 146.68 
M 151.63 143.88 148.47 145.76 147.67 145.75 145.79 145.3 
M 69.22 181.25 70.11 182.23 72.04 183.72 72.78 184.22 73.54 184.44 
M 147.92 161.69 147.02 161.09 144.06 159.97 142.06 159.5 140.15 158.78 139.39 158.82 
M 138.31 176.36 137.76 177.32 137.74 177.69 138.25 178.81 
M 151.96 209.73 152.08 209.22 152.59 208.32 154.91 207.05 
M 163.06 219.05 162.22 218.43 161.72 218.33 
M 166.88 217.6 166.19 215.85 165.82 215.39 165.42 215.13 164.36 214.87 
M 74.67 188.05 75.03 187.38 75.79 186.72 
M 78.66 184.85 79.65 183 79.79 182.08 79.43 178.76 
M 88.62 191.89 88.52 193.38 87.82 194.89 87.2 195.72 
M 154.8 172.69 154.87 170 154.27 165.98 153.75 164.32 153.05 163.92 
M 112.19 193.9 111.67 193.54 110.92 193.65 109.34 194.98 
M 171.8 199.74 169.82 199.99 168.78 200.35 167.96 200.86 167.06 202.31 166.98 203.44 
M 125.42 195.99 121.61 194.97 119.7 193.71 117.39 192.72 116.34 192.76 115.46 193.19 
M 118.39 213.17 117.55 211.56 117.35 210.75 117.43 209.93 120.16 206.46 120.71 205.05 121.07 203.04 
M 111.44 191.62 110.77 193.07 108.38 195.98 
M 128.61 205.6 127.89 205.39 127.31 205.46 126.65 205.82 125.53 206.82 123.38 207.62 
M 151.32 178.73 153.95 180.75 154.57 181.59 154.79 182.4 
M 171.02 203.32 168.32 202.95 167.66 203.02 167.34 203.3 166.73 204.55 164.1 208.39 
M 156.98 185.3 157.15 185.53 157.1 185.79 156.36 186.28 
M 162 219.73 162.01 218.75 161.84 218.45 161.29 218.33 160.61 218.49 
M 141.02 159.91 140.03 159.74 138.84 160.94 138.23 162.47 138.28 164.23 
M 162.33 168.14 161.19 168.33 160.58 168.14 159.16 166.81 158.66 165.88 
M 134.04 156.87 133.95 158.36 134.5 159.85 135.73 161.25 137.48 162.85 137.91 163.79 138.17 164.93 
M 117.8 153.31 115.8 153.54 
M 96.59 154.93 98.17 155.66 99.24 155.9 101.17 156.73 
M 90.41 165.6 91.1 167.49 91.29 169.72 91.13 170.15 89.85 171.85 89.24 173.55 
M 157.68 174.56 157.77 170.14 157.35 168.57 155.72 164.37 155.72 163.41 
M 171.81 176.64 173.7 175.36 173.59 174.87 
M 91.12 197.15 92.84 196.67 93.99 196.55 95.03 196.05 96.07 194.77 96.24 194.36 96.13 193.55 
M 134.36 210.63 131.1 206.81 129.75 205.68 129.58 205.36 129.61 204.39 130.73 202.44 
M 104.5 152.97 106.37 153.95 
M 141.17 154.78 140.73 156.77 140.16 157.35 
M 98.65 158.14 99.35 158.58 
M 150.53 211.39 149.07 210.75 147.4 209.48 146.56 209.14 144.1 209.66 
M 98.74 200.24 99.19 197.73 99.67 196.29 99.94 195.82 100.65 195.25 101.06 195.33 101.39 195.67 
M 157.22 203.39 156.35 203.32 155.75 202.47 
M 87.53 188.73 86.33 191.56 85.4 192.62 84.97 192.82 
M 152 212.38 151.13 213.06 150.18 213.05 149.24 212.53 147.26 210.64 146.8 210.39 146.31 210.26 145.16 210.34 
M 169.65 194.7 168.73 194.75 167.68 195.31 166.48 197.66 165.99 198.23 
M 106.17 205.52 105.9 205.21 104.19 204.44 
M 135.76 215.03 136.52 216.57 137.4 217.71 138.22 219.17 139.01 219.54 140.11 219.46 
M 130.54 156.77 129.13 158.38 126.11 160.58 
M 89.2 201.04 89.2 200.57 
M 88.24 199.57 88.04 199.39 
M 146 216.27 146.46 215.28 146.46 214.87 145.56 211.7 144.91 211.02 143.05 210.5 
M 159.66 204.36 159.92 206.62 159.87 207.35 159.14 209.3 158.69 210.02 
M 162.97 168.31 162.19 168.09 161.08 168.31 160.76 168.24 158.93 166.49 
M 77.17 190.94 78.3 189.34 
M 138.8 206.16 136.93 204.49 136.62 204.03 136.48 203.52 136.64 202.79 137.69 202.03 
M 87.63 158.03 88.06 157.72 
M 88.88 157.43 89.85 157.5 91.24 157.91 92.18 158.58 
M 127.19 214.03 127.53 214.56 127.61 215.74 
M 92.95 203.06 93.9 204.13 
M 87.48 198.8 87.47 199.41 87.81 199.14 
M 84.86 196.09 84.67 196.43 84.56 197.4 85.04 196.84 85.42 196.68 
M 82.36 193.39 81.86 194.16 81.65 195.38 82.22 194.56 83.04 194.16 
M 79.86 190.76 79.05 191.88 78.74 193.36 79.41 192.29 80.67 191.58 
M 77.31 188.24 76.23 189.61 75.83 191.34 76.6 190.02 78.12 189.09 
M 74.76 185.71 73.42 187.34 72.92 189.32 73.78 187.75 75.62 186.56 
M 72.26 183.13 70.61 185.06 70.01 187.3 70.97 185.47 73.13 184.02 
M 69.81 180.5 67.8 182.79 67.1 185.29 68.16 183.2 70.67 181.45 
M 67.42 177.82 64.98 180.52 64.19 183.27 65.35 180.93 68.3 178.82 
M 64.93 175.25 62.17 178.25 61.28 181.25 62.53 178.65 65.9 176.2 
M 62.42 172.7 59.36 175.97 58.37 179.23 59.72 176.38 63.36 173.68 
M 60.11 169.94 56.54 173.7 55.46 177.21 56.91 174.11 60.88 171.12 
M 92.69 203.42 94.2 203.5 
M 89.25 202.59 89.75 202.27 89.92 202.64 
M 85.3 202.18 85.6 201.62 86.2 201.09 86.15 201.65 86.4 202.29 
M 81.5 201.77 81.89 200.72 82.66 199.9 82.44 200.75 82.73 201.92 
M 77.73 201.37 78.19 199.81 79.11 198.72 78.73 199.84 79.01 201.49 
M 73.94 201.12 74.48 198.91 75.57 197.54 75.02 198.94 75.31 201.23 
M 70.19 200.71 70.77 198 72.03 196.35 71.31 198.03 71.59 200.87 
M 66.43 200.39 67.06 197.1 68.48 195.17 67.61 197.13 67.86 200.51 
M 62.7 199.96 63.35 196.19 64.94 193.99 63.9 196.22 64.12 200.14 
M 58.96 199.55 59.64 195.28 61.39 192.81 60.19 195.32 60.39 199.68 
M 55.24 198.99 55.93 194.38 57.85 191.62 56.48 194.41 56.65 199.26 
M 51.51 198.52 52.23 193.47 54.3 190.44 52.77 193.5 52.91 198.56 
M 60.31 204.15 65.77 206.14 72.55 208.32 79.37 210.05 86.31 211.41 93.34 212.3 100.45 212.8 114.97 213.16 
M 69.07 204.36 68.31 205.32 
M 164.93 146.25 170.07 151.39 
M 165.3 139.33 173.84 147.87 
M 169.13 135.86 179.28 146.02 
M 172.93 132.37 179.09 138.53 
M 176.75 128.89 185.57 137.71 
M 180.74 125.59 186.3 131.15 
M 184.76 122.32 195.1 132.66 
M 188.92 119.19 194.44 124.71 
M 193.17 116.14 198.78 121.75 
M 197.52 113.2 203.07 118.75 
M 201.81 110.2 210.67 119.06 
M 206.08 107.18 213.29 114.39 
M 210.76 104.56 220.27 114.08 
M 215.65 102.16 225.24 111.75 
M 220.83 100.04 228.75 107.97 
M 226.39 98.31 234.19 106.12 
M 232.83 97.46 240.82 105.45 
M 239.84 97.18 250.32 107.66 
M 246.82 96.87 256.19 106.23 
M 255.22 97.97 262.83 105.58 
M 271 106.46 278.78 114.23 
M 297.56 125.73 306.89 135.05 
M 170.66 220.22 171.08 221.06 
M 171.89 222.69 174.77 228.45 
M 174.06 220.65 177.32 227.17 
M 177.05 220.24 178.68 223.5 
M 179.49 225.13 180.31 226.76 
M 173.53 206.82 175.13 210.03 
M 184.91 229.59 185.73 231.23 
M 175.83 205.05 178.91 211.2 
M 187.88 229.14 191.14 235.66 
M 179.02 205.05 179.43 205.86 
M 180.24 207.49 181.06 209.12 
M 189.21 225.43 194.92 236.84 
M 182.45 205.52 184.02 208.67 
M 192.99 226.61 197.88 236.39 
M 194.39 223.02 199.28 232.8 
M 190.4 208.66 192.53 212.91 
M 199.86 227.59 200.68 229.22 
M 202.31 232.48 205.57 239 
M 206.39 240.63 207.2 242.26 
M 193.08 207.63 196.37 214.22 
M 204.52 230.53 209.42 240.31 
M 212.68 246.83 216.78 255.04 
M 164.33 143.75 165.14 145.38 
M 165.96 147.01 167.59 150.28 
M 196.13 207.35 196.94 208.98 
M 205.91 226.92 213.25 241.6 
M 214.88 244.86 218.96 253.01 
M 165.71 140.14 170.6 149.92 
M 199.32 207.36 199.96 208.63 
M 209.74 228.2 210.56 229.83 
M 211.37 231.46 215.45 239.61 
M 218.71 246.14 222.79 254.29 
M 167.91 138.15 173.62 149.57 
M 179.33 160.98 181.29 164.91 
M 211.13 224.58 217.65 237.63 
M 220.91 244.15 221.73 245.78 
M 222.54 247.41 224.99 252.31 
M 228.11 258.56 228.39 259.11 
M 171.74 139.42 175.81 147.58 
M 181.52 158.99 184.53 165.02 
M 215.77 227.48 218.21 232.38 
M 176.37 142.31 177.18 143.94 
M 184.52 158.61 187.78 165.13 
M 216.32 222.21 218.77 227.11 
M 181.82 146.82 186.71 156.6 
M 188.34 159.87 191.02 165.24 
M 216.88 216.94 222.58 228.36 
M 184 144.81 189.71 156.23 
M 219.88 216.56 225.59 227.98 
M 232.92 242.66 233.74 244.29 
M 235.37 247.55 236.19 249.18 
M 186.25 142.93 189.51 149.45 
M 190.33 151.08 191.96 154.34 
M 221.31 213.05 227.02 224.47 
M 227.84 226.1 228.65 227.73 
M 233.54 237.51 236.81 244.04 
M 237.62 245.67 240.07 250.56 
M 180.76 125.57 182.8 129.64 
M 189.32 142.69 194.22 152.48 
M 223.57 211.18 224.38 212.81 
M 225.2 214.44 227.65 219.34 
M 228.46 220.97 230.09 224.23 
M 235.8 235.64 243.14 250.32 
M 183.02 123.7 186.69 131.04 
M 193.21 144.08 194.03 145.71 
M 227.46 212.58 228.27 214.21 
M 229.09 215.84 229.9 217.47 
M 238.06 233.78 245.39 248.45 
M 185.31 121.91 189.8 130.88 
M 193.06 137.4 193.87 139.03 
M 206.11 163.49 206.92 165.12 
M 229.73 210.74 229.75 210.78 
M 241.17 233.62 247.69 246.66 
M 188.04 120.98 191.3 127.5 
M 194.56 134.02 197.01 138.91 
M 197.82 140.55 198.64 142.18 
M 209.24 163.38 210.49 165.89 
M 232.53 209.97 233.7 212.3 
M 245.93 236.76 246.75 238.39 
M 247.56 240.02 249.19 243.28 
M 189.95 118.41 193.62 125.75 
M 196.88 132.28 197.69 133.91 
M 198.51 135.54 202.59 143.69 
M 205.85 150.21 206.66 151.85 
M 207.48 153.48 210.74 160 
M 211.56 161.63 213.19 164.89 
M 235.36 209.25 236.83 212.18 
M 248.25 235.01 249.06 236.65 
M 197.6 127.33 204.12 140.37 
M 209.01 150.16 214.72 161.57 
M 238.27 208.68 240 212.13 
M 248.15 228.44 248.96 230.07 
M 250.6 233.33 253.04 238.22 
M 201.61 128.98 208.13 142.03 
M 211.4 148.55 214.66 155.07 
M 215.47 156.7 217.92 161.59 
M 218.73 163.23 219.55 164.86 
M 250.53 226.83 257.06 239.87 
M 204.81 129 209.7 138.78 
M 212.97 145.31 218.67 156.72 
M 221.12 161.61 223.47 166.32 
M 245.58 210.54 248.84 217.06 
M 252.92 225.21 258.63 236.63 
M 265.15 249.68 265.97 251.31 
M 266.78 252.94 267.97 255.32 
M 208.82 130.63 211.26 135.52 
M 216.16 145.31 221.05 155.09 
M 221.86 156.72 222.68 158.35 
M 224.31 161.61 226.72 166.43 
M 248.11 209.22 253.66 220.32 
M 254.48 221.95 256.11 225.21 
M 256.93 226.84 261.82 236.63 
M 266.71 246.41 270.62 254.23 
M 212.8 132.22 213.62 133.85 
M 215.25 137.11 216.07 138.74 
M 220.14 146.9 220.96 148.53 
M 221.77 150.16 223.4 153.42 
M 226.67 159.94 229.96 166.54 
M 251.79 210.19 256.83 220.28 
M 260.1 226.8 263.36 233.33 
M 265.8 238.22 267.43 241.48 
M 269.88 246.37 273.25 253.1 
M 204.56 109.35 206.19 112.61 
M 207.01 114.24 208.64 117.5 
M 212.71 125.66 218.42 137.07 
M 224.13 148.49 224.94 150.12 
M 226.57 153.38 227.39 155.01 
M 229.02 158.27 230.65 161.53 
M 231.47 163.16 233.21 166.65 
M 254.15 208.53 258.37 216.98 
M 266.53 233.29 268.97 238.18 
M 269.79 239.81 271.42 243.07 
M 273.05 246.33 275.84 251.91 
M 206.95 107.74 211.02 115.89 
M 211.84 117.52 212.65 119.15 
M 214.28 122.42 221.62 137.09 
M 224.07 141.99 228.96 151.77 
M 229.78 153.4 230.59 155.03 
M 256.9 207.65 260.76 215.37 
M 268.1 230.05 274.62 243.09 
M 276.25 246.35 277.07 247.99 
M 209.03 105.53 214.33 116.13 
M 217.59 122.65 223.3 134.07 
M 226.56 140.59 232.27 152.01 
M 260.81 209.08 261.62 210.71 
M 270.59 228.65 277.11 241.7 
M 211.93 104.95 213.56 108.21 
M 214.38 109.84 216.82 114.73 
M 220.9 122.89 225.79 132.67 
M 229.05 139.19 234.76 150.61 
M 267.38 215.84 268.19 217.47 
M 269.82 220.73 271.45 223.99 
M 273.08 227.26 278.79 238.67 
M 224.22 123.15 225.04 124.78 
M 225.85 126.41 226.67 128.04 
M 232.38 139.46 234.82 144.35 
M 236.45 147.61 237.27 149.24 
M 268.25 211.21 269.07 212.84 
M 269.88 214.47 273.96 222.63 
M 277.22 229.15 278.04 230.78 
M 279.67 234.04 281.3 237.3 
M 285.51 245.72 286.05 246.81 
M 244.75 157.82 248.82 165.97 
M 271.65 211.63 277.36 223.05 
M 287.15 242.62 288.48 245.29 
M 215.94 93.82 217.16 96.27 
M 247.33 156.61 250.59 163.13 
M 251.41 164.76 252.68 167.3 
M 274.24 210.42 279.13 220.21 
M 279.95 221.84 280.76 223.47 
M 290.49 242.92 290.84 243.62 
M 216.89 89.35 218.93 93.43 
M 240.13 135.83 245.84 147.24 
M 249.1 153.76 255.62 166.81 
M 278.46 212.47 282.53 220.63 
M 292.96 241.48 293.19 241.94 
M 217.85 84.88 222.33 93.85 
M 242.72 134.62 245.98 141.14 
M 246.79 142.77 248.43 146.03 
M 251.69 152.55 256.58 162.34 
M 257.39 163.97 258.21 165.6 
M 281.04 211.26 281.86 212.89 
M 286.75 222.68 290.83 230.83 
M 219.21 81.22 222.47 87.74 
M 230.63 104.05 231.44 105.68 
M 232.26 107.31 233.07 108.94 
M 238.78 120.36 239.6 121.99 
M 240.41 123.62 242.04 126.88 
M 244.49 131.77 251.01 144.82 
M 255.09 152.97 258.35 159.5 
M 289.33 221.47 293.41 229.62 
M 294.23 231.25 295.04 232.88 
M 232.4 101.21 237.29 110.99 
M 239.73 115.89 245.44 127.3 
M 247.89 132.19 252.78 141.98 
M 286.21 208.84 287.03 210.47 
M 291.92 220.26 296.81 230.04 
M 222.75 75.54 223.57 77.17 
M 224.38 78.8 226.83 83.69 
M 234.98 100 239.06 108.15 
M 243.14 116.31 248.84 127.72 
M 251.29 132.61 252.92 135.88 
M 253.74 137.51 255.37 140.77 
M 257 144.03 259.44 148.92 
M 287.98 206 292.06 214.15 
M 296.95 223.94 299.4 228.83 
M 223.71 71.07 230.23 84.11 
M 237.57 98.79 242.46 108.57 
M 245.72 115.1 246.54 116.73 
M 247.35 118.36 249.8 123.25 
M 257.95 139.56 263.66 150.97 
M 267.74 159.13 268.55 160.76 
M 289.72 203.09 294.64 212.94 
M 303.61 230.88 304.87 233.4 
M 222.62 62.52 223.84 64.96 
M 227.11 71.49 232.81 82.9 
M 242.6 102.47 245.04 107.36 
M 250.75 118.78 251.57 120.41 
M 260.54 138.35 266.25 149.76 
M 268.69 154.66 271.95 161.18 
M 272.77 162.81 274.4 166.07 
M 293.08 203.42 298.05 213.36 
M 305.38 228.04 307.17 231.62 
M 223.58 58.04 224.8 60.49 
M 229.69 70.28 230.51 71.91 
M 231.32 73.54 234.58 80.06 
M 247.63 106.15 248.45 107.78 
M 249.26 109.41 251.71 114.31 
M 263.94 138.77 267.2 145.29 
M 268.02 146.92 268.83 148.55 
M 271.28 153.44 276.98 164.86 
M 295.51 201.92 299.82 210.52 
M 300.63 212.15 301.45 213.78 
M 303.08 217.04 303.89 218.68 
M 308.92 228.74 309.47 229.84 
M 232.28 69.06 233.09 70.7 
M 234.72 73.96 236.35 77.22 
M 240.43 85.37 245.32 95.16 
M 249.4 103.31 254.29 113.1 
M 262.45 129.4 263.26 131.03 
M 264.08 132.66 265.71 135.93 
M 268.97 142.45 269.79 144.08 
M 273.05 150.6 280.39 165.28 
M 298.08 200.67 298.32 201.16 
M 300.77 206.05 301.58 207.68 
M 302.4 209.31 308.92 222.36 
M 241.39 80.9 248.72 95.58 
M 251.99 102.1 258.51 115.15 
M 262.59 123.3 263.4 124.93 
M 264.22 126.56 269.11 136.35 
M 275.63 149.39 282.16 162.44 
M 304.17 206.47 310.69 219.52 
M 313.31 224.75 313.89 225.9 
M 234.19 60.12 236.63 65.01 
M 243.97 79.69 251.31 94.37 
M 255.39 102.52 259.46 110.67 
M 265.17 122.09 271.69 135.14 
M 279.85 151.44 283.93 159.6 
M 306.76 205.26 312.46 216.67 
M 313.28 218.3 314.91 221.57 
M 235.81 56.99 240.3 65.96 
M 246.82 79 254.16 93.68 
M 259.05 103.46 261.5 108.36 
M 267.2 119.77 275.36 136.08 
M 276.99 139.34 281.06 147.5 
M 282.7 150.76 284.33 154.02 
M 310.42 206.2 316.94 219.25 
M 249.04 77.07 249.86 78.7 
M 253.61 86.21 255.65 90.28 
M 266.25 111.48 267.07 113.12 
M 267.88 114.75 268.7 116.38 
M 270.33 119.64 276.03 131.05 
M 278.48 135.95 283.37 145.73 
M 313.54 206.07 316.8 212.59 
M 318.43 215.85 319.25 217.48 
M 267.8 108.21 272.7 117.99 
M 273.51 119.62 276.77 126.15 
M 277.59 127.78 279.22 131.04 
M 280.85 134.3 285.74 144.09 
M 297.16 166.92 298.11 168.82 
M 317.54 207.69 319.17 210.95 
M 320.8 214.21 321.62 215.84 
M 269.69 105.6 274.99 116.2 
M 279.07 124.35 279.88 125.98 
M 284.77 135.77 288.03 142.29 
M 298.63 163.49 301.35 168.93 
M 323.1 212.41 324.77 215.76 
M 274.57 108.99 277.43 114.7 
M 288.84 137.53 289.66 139.16 
M 301.89 163.62 303.52 166.88 
M 304.34 168.51 304.6 169.04 
M 324.72 209.28 326.88 213.59 
M 279.65 112.75 280.06 113.57 
M 285.76 124.99 289.02 131.51 
M 304.52 162.49 307.84 169.15 
M 327.35 208.15 328.98 211.42 
M 288.31 123.69 291.57 130.21 
M 299.72 146.52 302.98 153.04 
M 329.08 205.23 329.89 206.86 
M 289.99 120.67 294.88 130.45 
M 299.77 140.24 307.11 154.91 
M 325.66 192.03 328.31 197.31 
M 294.47 123.26 294.88 124.07 
M 295.69 125.7 296.51 127.33 
M 302.22 138.75 309.55 153.42 
M 315.26 164.84 317.58 169.47 
M 328.52 191.35 329.94 194.19 
M 304.28 136.5 311.62 151.17 
M 317.33 162.59 320.82 169.58 
M 331.5 190.93 332.82 193.57 
M 308.37 138.29 311.63 144.82 
M 312.45 146.45 314.08 149.71 
M 319.79 161.12 320.6 162.75 
M 321.42 164.38 324.07 169.69 
M 313.56 142.3 314.38 143.93 
M 315.19 145.56 316.01 147.19 
M 322.53 160.23 324.16 163.5 
M 326.61 168.39 327.31 169.8 
M 339.66 194.48 340.47 196.11 
M 341.17 197.52 341.47 198.11 
M 326.92 162.63 327.73 164.26 
M 341.6 191.98 343.55 195.89 
M 343.37 189.14 345.63 193.67 
M 329.07 154.16 334.37 164.76 
M 346.6 189.23 347.71 191.45 
M 334.77 159.18 337.62 164.89 
M 349.92 183.1 351.48 186.22 
M 352.81 182.51 353.71 184.3 
"/></svg>