<svg xmlns="http://www.w3.org/2000/svg" width="520" height="320"><rect x="0" y="0" width="520" height="320" fill="floralwhite"/><rect x="10" y="10" width="500" height="300" stroke="black" stroke-width="1" fill="none"/><path stroke="black" stroke-width="1" fill="none" stroke-linecap="round" stroke-linejoin="round" d="
M 149.67 95.65 158.34 91.62 166.99 89.14 184.28 86.52 201.58 82.71 210.22 81.3 218.87 80.58 236.17 80.12 253.46 80.43 262.11 80.09 270.75 80.12 279.4 80.98 288.05 82.18 305.34 85.01 313.99 87.23 331.28 92.58 339.93 95.01 348.58 97.72 357.23 101.59 365.87 107.16 374.52 120.27 
M 374.52 153.32 365.87 164.7 357.23 169.17 348.58 172.32 331.28 176.53 322.64 178.96 313.99 181.79 305.34 184.17 296.7 185.42 288.05 186.09 270.75 186.78 253.46 186.58 244.81 187.25 235.44 188.38 
M 234.45 188.47 227.52 189.1 218.87 189.22 210.22 188.35 201.58 186.43 192.93 183.72 184.28 180.52 175.64 177.05 166.99 174.09 158.36 172.17 
M 371.43 127.87 365.26 123.3 362.07 121.36 355.34 118.65 348.12 116.71 344.38 115.93 336.83 114.65 327.62 113.44 
M 324.01 113.09 318.47 112.76 307.25 112.62 300.29 112.26 283.54 110.25 270.34 109.24 267.2 109.23 260.88 109.58 242.38 111.71 
M 239.08 112.06 232.26 113.01 
M 225.2 113.91 219.87 114.28 214.65 114.18 
M 204.51 113.41 201 113.22 
M 186.42 112.96 184.62 112.87 175.73 111.85 
M 172.12 111.57 170.29 111.46 168.4 111.57 
M 164.63 112 160.88 112.65 
M 162.63 144.12 166.88 150.65 
M 163.4 134.74 165.84 138.56 
M 168.43 142.67 173.03 149.85 
M 162.54 121.97 166.44 128.59 176.81 145.02 178.59 147.58 
M 152.42 94.37 156.88 101.56 164.08 112.52 166.46 116.38 173.47 128.78 178.63 136.96 182.75 143.1 
M 157.21 92.15 168.77 108.51 171.22 112.31 174.64 118.46 
M 176.87 122.68 180.35 128.96 182.89 133.01 188.51 141.06 191.13 144.38 
M 162.45 90.44 173.19 104.68 176.9 110.47 
M 179.23 114.46 187.16 128.95 191.19 134.94 
M 194.21 138.93 195.9 141.06 
M 167.89 88.99 174.59 97.45 179.94 104.83 184.9 112.44 188.31 118.49 
M 190.56 122.62 194.13 128.8 196.87 132.77 201.64 138.8 
M 173.66 88.06 181.35 97.71 186.71 104.94 191.77 112.37 195.3 118.37 
M 197.64 122.47 200.17 126.55 
M 203 130.53 206.08 134.43 
M 179.43 87.21 189.59 99.87 
M 194.85 106.9 198.76 112.42 203.62 120.4 206.31 124.4 210.89 130.24 
M 213.95 134.13 215.5 136.2 
M 185.15 86.33 189.91 92.04 197.78 102.02 202.95 109.08 207.96 116.71 210.74 120.55 215.41 126.21 
M 218.49 130.05 219.99 132 221.91 134.94 
M 190.43 85.16 194.31 89.63 201.93 99.32 211.79 113.51 213.2 115.32 
M 216.16 118.92 220.93 124.31 223.98 128.08 227.79 133.79 
M 264.66 179.89 266.12 181.07 
M 195.53 84.04 198.61 87.32 203.62 93.64 208.5 100.31 215.55 110.47 218.28 113.88 226.06 122.56 
M 229.11 126.39 230.59 128.37 233.38 132.7 
M 200.46 82.95 202.85 85.32 207.94 91.45 219.66 107.37 222.24 110.52 231.16 120.68 234.17 124.63 238.27 130.86 
M 205.57 82.06 207.17 83.53 209.77 86.29 216.02 93.87 
M 218.38 96.87 224.05 104.13 230.44 111.61 
M 233.27 114.97 237.64 120.64 244.16 130.59 
M 266.42 161.71 268.83 164.31 
M 211.12 81.23 214.2 84.23 221.61 92.58 235.74 109.34 241.09 116.5 246.5 124.67 249.47 129.55 
M 217.29 80.72 221.07 84.46 228.22 92.21 237.35 102.75 240.91 107.29 
M 243.38 110.66 247.29 116.21 249.83 120.11 253.16 125.76 
M 255.24 129.35 258.55 134.72 261.6 139.24 
M 269.33 149.75 273.39 154.82 
M 278.08 160.89 280.13 163.77 
M 282.14 166.59 284.23 169.34 
M 291.18 177.06 293.54 179.26 
M 223.71 80.4 234.66 91.5 241.45 99.35 248.54 108.44 251.08 111.95 253.51 115.63 256.7 121.19 
M 258.7 124.84 263.17 132.18 
M 268.49 140 274.33 147.64 
M 277.14 151.19 279.71 154.56 
M 297.82 177.28 299.85 179.11 
M 230.03 80.22 236.3 85.9 241.01 90.75 252.55 104.6 255.07 107.86 257.49 111.37 259.66 115 264.62 124.31 
M 269.14 131.96 273.2 137.88 282.25 149.27 284.86 152.8 288.21 157.79 
M 290.31 160.95 294.74 166.96 
M 297.15 169.82 299.63 172.56 
M 236.56 80.13 240.2 83.03 242.62 85.18 244.94 87.55 258.93 104.02 261.37 107.31 263.62 110.87 265.67 114.56 270.62 124.24 
M 281.14 139.79 287.17 147.37 
M 294.26 157.97 298.84 164.25 
M 301.29 167.19 303.76 170 
M 243.95 80.3 246.42 82.33 248.69 84.54 255.2 92.31 262.55 100.53 265.02 103.58 267.38 106.96 269.59 110.6 274.69 120.36 
M 279.14 128.26 281.74 132.05 
M 284.66 135.87 290.7 143.64 
M 298.05 154.78 301.57 159.8 307.79 167.21 
M 310.24 169.93 312.63 172.52 
M 251.02 80.4 254.54 84.01 261.17 91.88 268.57 100.11 271 103.31 273.37 106.8 276.75 112.45 
M 278.92 116.39 281.11 120.38 
M 283.42 124.36 284.61 126.33 288.74 132.08 
M 291.69 135.96 295.92 141.85 299.54 147.62 
M 301.88 151.33 304.3 154.88 
M 309.26 161.19 311.73 164.07 
M 257.49 80.27 272.16 96.64 275.89 101.44 
M 278.37 104.93 282.06 110.44 286.7 118.39 290.52 124.46 
M 293.3 128.4 297.53 134.18 300.14 138.08 305.95 147.63 
M 308.31 151.15 310.71 154.4 
M 313.14 157.45 315.57 160.42 
M 263.88 80.1 273.46 90.27 277.17 94.62 
M 279.71 97.82 283.59 102.99 286.12 106.66 293.53 118.61 301.97 130.48 304.46 134.27 307.86 139.94 
M 312.33 146.95 314.63 150.14 
M 270.91 80.14 271.85 81.04 
M 273.92 83.09 276.22 85.51 
M 278.61 88.18 282.35 92.66 287.44 99.47 297.43 114.77 306.01 126.68 308.53 130.4 315.25 141.02 320.9 148.97 
M 323.24 152.19 325.63 155.53 
M 333.01 165.21 335.47 168.07 
M 278.9 80.93 281.48 83.63 283.87 86.43 288.72 92.79 293.63 99.75 302.52 112.87 
M 305.38 116.79 308.29 120.68 
M 311.04 124.48 313.56 128.16 
M 318.16 135.2 320.4 138.55 
M 334.55 158.73 337.05 162 
M 286.41 81.95 290.17 86.71 305 107.04 312.1 116.44 
M 317.41 123.97 322.16 131.26 
M 326.83 138.2 329.16 141.6 
M 331.5 145.04 336.26 152.04 
M 293.14 82.97 301.2 93.42 314.9 110.3 317.71 114.04 321.53 119.75 
M 328.74 131.1 331.15 134.68 
M 338.27 145.4 340.63 149.01 
M 345.39 156.06 347.81 159.5 
M 300.07 84.11 305.23 90.19 316.46 102.72 319.35 106.2 322.13 109.87 324.71 113.69 333.11 127.27 
M 335.57 131 338 134.71 
M 342.75 142.22 349.68 153.2 
M 308.42 85.8 317.9 95.87 323.68 102.4 326.43 105.98 329.07 109.78 335.27 119.56 
M 337.66 123.41 344.92 134.97 
M 351.83 146.62 356.34 153.9 
M 318.55 88.63 325.01 95.69 327.81 98.97 333.46 106.14 338.79 113.93 349.47 131.49 
M 351.79 135.54 356.3 143.54 
M 328.34 91.67 334.84 99.12 340.78 106.57 346.07 114.36 349.57 120.16 
M 351.8 124.09 356.27 132.24 
M 358.48 136.35 360.71 140.4 
M 362.95 144.34 365.18 148.13 
M 337.61 94.35 345.2 103.21 348.16 107.1 350.83 111.01 355.45 118.86 360.73 128.98 
M 365.06 137.23 369.52 145.09 
M 347.12 97.26 352.53 103.73 355.33 107.68 357.79 111.68 361.08 117.69 
M 365.25 125.76 367.34 129.85 
M 369.47 133.96 371.64 137.99 
M 357.67 101.87 359.53 104.4 362.12 108.43 365.55 114.5 
M 152.24 94.46 150.68 96.74 
M 160.84 90.9 158.36 94.32 153.92 100.94 
M 168.88 88.83 164.87 94.09 156.52 106.4 
M 176.63 87.6 173.89 90.82 171.54 94.01 164.15 104.93 159.37 111.69 
M 185.57 86.24 183.25 88.39 180.66 91.15 178.23 94.19 168.53 108.51 161.63 117.99 
M 196.26 83.88 190.35 89.17 187.71 91.81 185.16 94.66 182.72 97.79 175.49 108.49 163.21 125.52 
M 206.73 81.87 202.32 85.25 199.82 87.46 194.72 92.57 189.64 98.23 185.96 103.17 
M 183.5 106.76 178.19 114.45 
M 175.35 118.48 166.8 130.59 
M 215.93 80.83 209.23 86.22 204.06 90.84 199.01 95.96 196.53 98.77 194.04 101.78 189.04 108.6 171.2 134.71 
M 165.93 142.57 163.48 146.49 
M 223.32 80.41 218.81 84.45 208.31 94.38 205.73 96.89 202.06 100.9 
M 199.64 103.81 193.31 112.36 183.36 126.9 
M 170.31 146.79 167.88 150.7 
M 229.67 80.22 225.48 84.35 217.77 92.55 209.81 100.5 207.34 103.17 205.01 105.99 201.51 110.77 
M 198.9 114.39 190.22 126.82 
M 187.56 130.97 185.08 135.01 
M 177.42 147.07 176.44 148.56 
M 235.46 80.14 231.85 83.91 221.89 95.43 213.72 104.02 211.28 106.86 209.04 109.82 197.31 126.64 
M 194.56 130.81 189.73 139.01 
M 240.95 80.23 238.11 83.27 228.51 95.03 217.71 107.35 215.33 110.46 208.84 120.5 204.79 126.45 
M 199.34 134.7 195.74 141.14 
M 246.37 80.34 239.81 88.1 232.43 97.46 224.49 107.18 222.01 110.52 219.78 113.89 213.73 124.33 204.63 138.32 
M 251.72 80.41 248.23 84.59 233.8 103.15 230.04 108.29 
M 227.7 111.84 225.56 115.41 
M 223.62 118.96 219.81 126.19 
M 214.93 134.1 213.23 136.64 
M 257.27 80.28 251.89 86.91 240.26 102.47 237.85 105.83 234.41 111.23 
M 232.28 115 230.33 118.8 
M 224.5 130.06 221.51 135.02 
M 263.04 80.09 257.72 86.47 244.19 105.35 241.89 108.91 239.77 112.64 236.86 118.62 
M 235.01 122.64 232.16 128.47 229.25 133.51 
M 268.52 80.11 263.75 85.98 259.29 92.01 249.49 106.62 
M 247.19 110.4 244.04 116.41 240.41 124.81 237.47 130.81 
M 273.77 80.42 269.9 85.06 267.58 88.26 259.23 100.78 252.51 111.82 250.26 115.96 247.33 122.47 
M 278.96 80.94 276.18 84.09 271.52 90.56 267.29 97.11 262.22 105.51 
M 260.02 109.29 256.46 115.32 253.09 121.75 
M 251.12 126.15 249.72 129.5 
M 284.46 81.68 282.64 83.59 280.19 86.54 275.56 93.11 271.32 99.94 263.74 112.77 
M 261.29 116.79 257.63 123.03 255.49 127.34 253.5 131.98 
M 290.17 82.51 286.63 86.49 284.3 89.46 279.71 96.09 262.33 124.46 
M 260.07 128.57 259.01 130.64 257.12 135.1 
M 295.92 83.41 292.85 86.93 288.37 92.77 282.83 101.23 
M 280.54 104.88 270.76 120.3 
M 268.3 124.22 264.9 130.08 262.94 134.18 261.08 138.75 
M 301.53 84.36 296.79 90.22 292.4 96.3 283.52 110.42 273.16 126.25 270.89 130.03 268.91 133.91 265.02 143.29 
M 307.06 85.45 303.16 90.27 300.84 93.42 296.44 99.88 287.53 114.39 277.1 130.16 275.04 133.96 274.15 135.92 
M 272.41 139.9 268.72 148.43 
M 264.6 156.76 261.93 161.62 
M 312.58 86.86 307.49 93.21 302.77 99.94 298.35 107.08 291.69 118.54 285.02 128.24 
M 282.6 132.05 281.48 133.97 279.62 137.86 277.07 143.73 
M 275.27 147.61 271.28 154.96 
M 267.42 161.59 265.4 164.96 
M 318.13 88.5 312.09 96.18 307.16 103.28 304.78 107.05 302.54 110.92 298.49 118.77 296.24 122.68 288.42 133.97 286.26 137.8 283.57 143.61 
M 277.57 154.62 271.25 164.09 
M 269.33 167.05 268.66 168.07 
M 323.67 90.22 316.86 99.23 311.78 106.68 309.3 110.67 307.08 114.73 303.14 122.8 302.04 124.74 
M 299.68 128.55 297.07 132.28 
M 294.49 136.03 292.14 139.83 
M 290.07 143.63 287.17 149.23 283.89 154.49 
M 281.51 157.77 279.13 160.86 
M 272.79 169.48 271.73 171 
M 329.2 91.93 324.04 98.96 316.51 110.19 314.01 114.3 307.58 126.64 305.32 130.48 298.93 139.98 
M 294.31 147.49 292.2 151.1 
M 290.02 154.54 288.9 156.2 285.19 160.83 
M 282.67 163.76 280.29 166.58 
M 276.07 171.98 274.1 174.55 
M 334.83 93.57 328.61 102.39 321.08 113.83 318.5 117.96 311.66 130.22 309.3 134.14 297.09 153.05 293.72 157.95 
M 288.81 163.86 283.83 169.34 
M 340.76 95.27 325.3 117.63 320.17 125.72 316.68 131.67 
M 314.32 135.62 304.46 151.34 
M 299.83 158.15 297.52 161.22 
M 295.12 164.11 292.63 166.86 
M 346.94 97.21 343.07 103.07 332.18 117.6 326.72 125.47 316.9 140.77 310.88 150.83 
M 308.54 154.66 305.06 159.84 301.56 164.32 
M 299.17 167.13 296.71 169.8 
M 291.72 174.75 289.24 177.01 
M 352.99 99.69 347.91 107.08 336.38 121.5 327.02 134.72 
M 324.47 138.28 320.74 143.74 313.72 155.64 310.34 161.06 
M 308.05 164.29 304.54 168.65 302.13 171.34 299.66 173.86 295.83 177.23 
M 358.67 102.52 355.09 107.66 352.42 111.13 343.5 121.64 340.57 125.33 331.08 138.18 
M 318.84 156.4 316.62 160.21 
M 314.4 163.77 312.14 167 
M 363.77 105.8 359.27 111.85 356.52 115.26 346.21 127.43 
M 343.4 131.09 340.64 134.75 
M 337.9 138.31 335.17 141.73 
M 329.9 148.42 328.62 150.13 325.09 155.58 
M 322.85 159.33 318.43 166.46 
M 367.86 110.17 363.17 116.09 354.57 126.27 350.35 131.57 
M 347.56 135.14 333.98 151.95 
M 329.16 158.85 322.4 169.07 
M 320.12 172.04 317.79 174.71 
M 371.22 115.26 361.27 127.12 357.11 132.34 
M 354.36 135.84 348.84 142.74 
M 346.09 146.06 343.37 149.25 
M 340.7 152.37 336.89 157.13 333.29 162.06 
M 374.48 120.21 366.49 129.74 
M 363.71 133.24 360.99 136.69 
M 358.3 140.1 352.82 146.73 
M 344.82 156.02 342.31 159.04 
M 374.52 128.72 360.89 145.9 348.93 159.61 
M 346.46 162.49 344.02 165.3 
M 341.59 168.05 339.78 170.06 
M 374.52 137.65 367.49 146.66 355.49 160.28 
M 374.52 146.67 371.33 150.51 364.61 158.03 
M 362 160.94 359.48 163.77 
M 208.81 80.54 237.26 30 238.04 30.42 212.11 81.15 
M 222.13 79.69 241.7 42.79 242.5 43.19 225.36 80.34 
M 235.49 79.45 248.55 54.84 249.35 55.22 238.66 80.18 
M 248.82 79.78 256.05 65.2 256.87 65.53 251.98 80.42 
M 262.17 79.54 265.65 73.41 266.48 73.72 265.28 80.1 
M 277.89 80.46 279.41 80.98 
M 235.4 35.58 235.3 38.43 235.41 39.79 235.7 41.07 236.18 42.29 237.71 44.48 239.74 46.48 
M 240.75 46.98 241.22 49.88 242.15 52.5 242.87 53.65 243.77 54.68 244.83 55.62 247.24 57.3 
M 248.25 57.79 248.93 60.47 249.4 61.7 250.02 62.82 250.81 63.81 252.86 65.4 255.32 66.65 
M 256.36 67.08 257.65 69.53 259.26 71.55 260.25 72.32 261.37 72.93 262.61 73.39 265.3 74.02 
M 266.35 74.41 268.61 76.85 271.12 78.81 272.51 79.52 274 80.04 275.57 80.4 278.87 80.8 
M 235.32 37.02 235.41 39.79 235.7 41.07 236.18 42.29 236.86 43.42 238.69 45.5 
M 232.09 44.69 232.17 46.97 232.41 48.04 233.37 49.97 234.88 51.68 
M 228.87 52.36 228.93 54.16 229.12 55 229.87 56.52 231.06 57.87 
M 225.65 60.03 225.83 61.96 226.38 63.07 227.25 64.06 
M 240.95 48.45 241.6 51.24 242.15 52.5 242.87 53.65 243.77 54.68 246 56.48 
M 238.46 55.88 238.96 58.02 239.37 58.98 240.61 60.65 242.33 62.03 
M 235.96 63.3 236.31 64.79 236.98 66.07 238.65 67.58 
M 248.56 59.15 249.4 61.7 250.02 62.82 250.81 63.81 251.76 64.66 254.06 66.05 
M 162.47 152.89 175.34 149.09 178.13 147.74 180.75 146.86 184.92 146.88 190.29 145.29 192.16 143.29 194.09 142.03 197.36 140.28 200.49 138.91 202.74 138.7 250.45 129.36 255.62 133.77 261.51 139.15 263.52 141.27 269.05 148.9 270 151.76 268.39 153.92 266.4 155.69 264.05 157.09 262.51 159.32 261.75 161.44 272.7 171.93 271.34 174.3 268.82 175.3 267.03 177.04 261.71 178.78 258.16 178.76 255.52 179.64 254.02 181.67 249.09 183.8 246.81 185.05 244.3 186.06 241.12 186.41 234.91 188.57 205.31 182.03 199.27 182.27 190.13 179.62 187.49 178.53 182.89 175.6 179.92 174.64 177.76 173.15 174.98 171.89 169.53 169.79 164.08 167.25 161.47 165.26 
M 162.44 154.14 164.8 153.83 167.41 153.27 170.29 152.28 175.57 151.37 180.77 149.78 183.98 149.22 186.42 148.54 188.3 147.19 190.05 146.43 192.73 145.92 195.52 144.6 198.47 144.07 201.48 144.25 204.37 143.58 206.4 142.3 209 141.74 211.27 141.65 213.65 140.81 217.08 140.12 220.51 138.89 223.36 138.34 225.31 137.51 
M 167.88 155.3 170.45 154.56 176.2 153.63 178.75 153.64 184.78 152.35 187.62 152.29 189.71 151.86 191.93 150.78 193.79 150.19 199.36 149.18 201.26 148.46 204.46 148.65 207.68 149.66 217.72 148.06 
M 162.43 157.34 167.9 157.46 173.61 156.64 176.64 156.57 181.67 157.31 185.07 156.76 187.39 156.62 190.48 156.87 197.6 156.02 199.57 155.18 202.39 154.77 208.47 154.35 210.68 154.52 213.98 154.51 217.09 155.31 219.05 154.6 221.64 154.53 
M 162.45 159.13 164.46 159.62 167.47 159.86 176.46 159.96 179.46 160.3 182.35 160.29 184.66 160.61 190.79 160.34 198.65 161.6 201.45 161.13 204.05 160.89 206.94 161.43 209.18 161.21 212.2 160.59 214.2 160.52 216.46 160.7 219.1 162.15 222.39 162.22 224.98 160.72 227.8 161.16 230.17 161.06 
M 162.28 160.84 164.16 161.44 167.1 162.05 170.2 162.29 173.34 162.92 179.03 163.48 184.58 163.66 190.43 164.33 193.18 165.71 196.01 165.66 198.37 165.83 201.4 166.51 204.56 166.82 209.93 167.71 212.84 167.24 215.57 167.66 221.25 167.71 225.41 168.63 
M 164.15 163.47 166.94 164.35 170.14 164.73 178.79 167.21 185.07 167.33 187.61 168.07 189.7 169.1 193.19 169.68 195.91 169.89 197.73 171.22 200.64 172.6 205.99 173.74 208.47 174.62 210.85 175.87 213.13 176.17 214.83 177.16 216.62 177.85 219.87 178.58 227.16 177.49 230.68 177.94 233.09 178.83 234.76 181.28 237.83 181.36 241.37 181.88 
M 161.78 164.17 164.08 165.45 169.88 167.4 172.64 168.56 175.29 169.09 181.23 170.82 191.29 174.87 197.48 176.21 199.78 177.79 202.28 178.97 204.92 179.95 207.38 181.41 210.21 182.5 212.48 183.16 217.82 184.37 224.45 186.25 225.71 186.25 227.58 186.79 
M 185.66 179.69 211.18 224.45 210.41 224.91 182.91 181.34 
M 184.09 179.2 184.58 180.34 
M 189.48 191.75 208.46 236.01 207.65 236.38 181.17 180.52 
M 182.5 178.71 182.82 179.77 
M 186.28 191.29 203.21 247.79 202.36 248.06 179.44 179.68 
M 180.89 178.23 181.06 179.16 
M 183.1 190.58 195.37 259.36 194.5 259.53 177.74 178.83 
M 179.26 177.75 179.31 178.53 
M 180 189.7 184.96 270.29 184.07 270.36 176.06 177.98 
M 177.24 177.12 177.2 177.9 
M 176.76 186.01 171.68 280 170.79 279.96 174.03 176.99 
M 207.66 220.55 206.17 222.54 205.2 224.61 205.02 225.69 205.05 226.81 205.26 227.97 206.03 230.33 
M 205 230.79 203.07 232.62 201.65 234.65 201.22 235.77 200.99 236.97 200.93 238.23 201.14 240.88 
M 200.07 241.22 197.73 242.85 195.84 244.76 195.16 245.88 194.66 247.1 194.31 248.42 193.93 251.25 
M 192.82 251.46 190.09 252.83 187.76 254.56 186.82 255.62 186.04 256.83 185.4 258.15 184.39 261.04 
M 183.27 261.12 180.12 262.13 177.29 263.55 176.06 264.51 174.97 265.63 173.99 266.9 172.24 269.71 
M 206.88 221.54 205.59 223.56 205.2 224.61 205.02 225.69 205.05 226.81 205.61 229.14 
M 203.6 215.75 202.49 217.48 202.16 218.39 202.03 220.29 202.51 222.29 
M 200.32 209.96 199.4 211.41 199.11 212.17 199 213.76 199.4 215.43 
M 197.04 204.17 196.3 205.34 195.96 206.58 196.3 208.58 
M 193.76 198.38 193.2 199.27 192.94 200.21 193.2 201.73 
M 204 231.69 202.27 233.6 201.65 234.65 201.22 235.77 200.99 236.97 201 239.54 
M 201.41 225.61 199.88 227.29 199.33 228.22 198.75 230.26 198.76 232.54 
M 198.82 219.52 197.5 220.98 197.02 221.79 196.51 223.56 196.52 225.54 
M 196.23 213.43 195.11 214.67 194.7 215.35 194.27 216.86 194.28 218.54 
M 193.64 207.35 192.39 208.92 192.03 210.16 192.04 211.53 
M 191.05 201.26 190.07 202.49 189.79 203.46 189.8 204.53 
M 198.87 242.02 196.71 243.76 195.84 244.76 195.16 245.88 194.66 247.1 194.09 249.82 
M 197.23 236.49 195.26 238.08 194.47 238.99 193.39 241.13 192.87 243.61 
M 195.59 230.96 193.81 232.4 193.1 233.23 192.12 235.16 191.65 237.4 
M 193.95 225.44 192.36 226.72 191.72 227.46 190.85 229.19 190.43 231.19 
M 192.32 219.91 190.91 221.04 190.35 221.7 189.58 223.22 189.21 224.98 
M 190.68 214.39 189.46 215.37 188.59 216.56 187.99 218.77 
M 189.04 208.86 187.6 210.16 187.04 211.27 186.77 212.57 
M 187.4 203.33 186.23 204.4 185.77 205.3 185.55 206.36 
M 191.43 252.12 188.85 253.63 187.76 254.56 186.82 255.62 186.04 256.83 184.87 259.57 
M 190.42 246.37 188.05 247.77 187.04 248.62 185.45 250.71 184.37 253.24 
M 189.42 240.62 187.24 241.9 186.32 242.68 184.87 244.6 183.88 246.91 
M 188.41 234.87 186.43 236.03 185.59 236.74 184.28 238.48 183.38 240.58 
M 187.4 229.12 185.63 230.17 184.23 231.54 183.69 232.36 182.88 234.26 
M 186.4 223.38 184.82 224.3 184.15 224.86 183.11 226.25 182.39 227.93 
M 185.39 217.63 183.43 218.92 182.52 220.13 181.89 221.6 
M 184.38 211.88 183.21 212.56 182.29 213.47 181.4 215.27 
M 183.38 206.13 181.99 207.05 181.34 207.9 180.9 208.94 
M 181.67 261.6 178.65 262.77 177.29 263.55 176.06 264.51 174.97 265.63 173.09 268.27 
M 181.32 255.71 178.51 256.79 177.24 257.53 175.09 259.46 173.34 261.92 
M 180.97 249.82 178.37 250.82 177.2 251.5 175.2 253.28 173.59 255.56 
M 180.62 243.93 178.23 244.85 176.19 246.23 175.32 247.11 173.84 249.2 
M 180.26 238.04 178.09 238.88 177.11 239.45 175.44 240.94 174.09 242.85 
M 179.91 232.15 177.95 232.91 177.07 233.42 175.56 234.77 174.34 236.49 
M 179.56 226.26 177.02 227.39 175.67 228.6 174.59 230.13 
M 179.21 220.37 176.98 221.37 175.79 222.43 174.83 223.77 
M 178.86 214.48 176.93 215.34 175.91 216.25 175.08 217.42 
M 178.51 208.59 176.89 209.31 176.03 210.08 175.33 211.06 
M 313.99 181.79 317.68 185.67 319.93 189.68 321.53 192.9 334.31 212.35 331.96 213.63 329.78 215.08 327.36 216.1 325.37 216.52 321.98 215.56 320.51 215.88 305.56 197.89 305 196.04 302.5 193.56 296.7 185.42 
M 309.69 182.97 314.4 189.47 316.16 192.32 320.68 196.87 324.48 201.25 325.51 203.21 327.67 205.09 329.4 207.8 
M 305.4 184.15 308.29 187.55 311.81 193.24 313.97 196.35 318.13 200.47 320.09 203.41 321.3 205.63 322.8 209.09 323.58 211.84 325.17 213.49 
M 300.99 184.8 303.82 188.34 305.81 191.17 307.31 193.85 309.44 196.36 312.4 201.72 317.28 206.8 317.35 209.64 317.86 212.01 319.9 215.07 
M 374.52 120.27 377.33 119.61 379.71 118.59 382.14 117.03 385.05 115.7 387.65 114.29 392.68 112.34 394.5 110.55 396.64 109.56 398.68 107.67 401.25 105.62 403.51 104.05 408.91 101.78 410.82 100.64 412.8 98.91 415.86 98.19 426.4 91.94 430.11 88.48 432.77 85.22 434.54 83.74 437.44 82.52 440.79 81.71 441.79 80.07 458.78 85.9 465.1 93.36 465.96 94.61 466.1 97.44 465.2 99.83 464.73 102.64 463.78 104.98 462.41 106.89 460.78 108.68 459.45 111.07 457.83 113.15 456.9 115.92 455.56 118.3 454.6 121.04 453.18 123.33 451.58 125.47 450.3 127.97 448.48 129.94 445.51 130.74 443.28 132.29 442.18 134.97 441.69 137.37 442.18 140.75 442.02 143.49 442.76 146.46 445.1 150.93 445.81 152.71 447.26 155.23 448.09 157.13 449.25 158.43 459.31 167.59 461.06 170.35 461.49 175.41 461.49 177.72 462.18 185.8 461.47 188.79 460.44 191.48 458.59 193.34 457.56 195.36 440.84 199.76 440.06 198.62 437.61 198.3 434.47 194.51 431.26 192.87 427.94 191.49 425.53 191.16 423.37 189.24 422.32 187.42 419.68 186.22 417.11 184.33 414.77 182.33 412.27 180.69 408.58 177.14 405.66 175.44 403.27 174.42 401.46 172.57 398.56 170.72 396.18 168.78 392.57 165.01 387.86 161.95 385.12 160.36 382.35 159.26 380.08 157.96 374.52 153.32 
M 382.63 120.88 387.62 118.46 390.75 117.44 398.15 114.34 400.44 112.69 402.82 110.69 409.64 106.9 411.94 106.09 417.06 105.41 419.25 103.54 420.92 102.44 426.94 100.29 429.28 98.98 434.05 95.2 436.68 94.15 439.81 92.6 
M 380.23 124.84 388.27 122.68 393.22 120.23 397.9 119.16 403.65 116.73 406.47 114.84 409.23 114.15 411.78 114.05 414.86 112.97 417.54 112.86 420.25 111.5 422.73 111.31 429.88 107.55 432.6 106.32 434.65 104.75 436.61 103.99 438.82 103.88 442.1 102.69 445.22 101.82 448.18 101.55 
M 383.14 127.66 386.36 126.99 389.04 126.73 391.86 126.12 394.43 126.15 397.03 125.62 399.83 124.79 402.47 123.58 405.1 122.85 408.04 121.74 410.29 120.47 413.34 119.71 416.62 119.07 419.26 118.81 421.09 118.9 427.04 118.54 429.17 117.87 432.37 116.47 436.67 116.15 439.31 114.77 439.35 113.88 440.5 113.41 442.47 111.92 447.69 111.17 451.68 110.38 454.28 111.57 456.58 109.94 
M 383.49 131.54 389.46 131.12 392.61 130.51 395.16 131.09 397.62 131.3 400.76 131.27 404.51 130.75 410.33 129.65 413.19 128.78 418.45 129.21 420.87 128.29 422.61 127.09 424.72 127.13 427.41 126.86 
M 374.52 134.66 377.55 135.56 383.85 135.69 387.28 135.96 395.83 135.51 404.39 135.68 407.64 136.56 410.82 137.01 413.91 136.52 415.42 136.98 417.55 135.98 421.86 137.04 
M 383.84 139.43 390.41 140.03 393.08 140.53 399.39 140.55 407.56 142.58 410.27 142.8 411.84 143.49 
M 383.47 142.77 389.84 143.68 394.98 145.65 400.35 146.66 402.75 146.72 405.96 148.25 411.6 150.17 415.5 149.9 418.99 149.39 421.09 150.77 423.41 151.35 427.94 151.56 431.38 152.91 436.74 153.41 441.03 155.58 
M 377.75 144.79 380.54 145.97 389.26 148.12 391.93 148.98 394.19 150.14 396.63 151.15 402.3 152.62 405.22 153.98 410.91 155.37 419.88 155.91 422.92 157.72 425.44 159.86 428.19 161.19 430.2 161.67 432.1 162.46 434.22 163.81 440.14 164.75 442.41 165.75 445.8 167.52 448.46 168.2 451.04 167.96 455.05 166.83 457.15 167.98 
M 380.48 149.39 383.3 150.19 385.95 151.34 393.46 154.89 396.55 156.19 407.18 161.3 409.61 162.18 412.6 162.66 415.18 162.86 417.5 163.43 423.29 167.7 426.06 169.47 429.9 170.45 437.56 173.33 439.64 175.26 442.84 177.44 445.82 178.64 448.13 178.72 455.72 181.43 
M 374.52 149.04 377.66 151.19 385.21 155.41 390.07 157.62 392.48 159.22 399.64 163.49 404.15 167.13 407 168.67 411.89 170.83 415.13 170.95 417.58 173.05 422.08 174.95 424.85 176.85 427.03 178.66 
M 355.43 167.37 352.44 168.95 351.21 170.24 350.36 171.82 349.3 173.19 347.68 174.02 344.36 172.4 342.77 171.83 339.32 172.71 335.48 176.4 333.75 176.43 330.3 174.99 328.16 174.85 326.44 175.32 325.01 176.24 321.46 179.33 322.64 178.96 
M 65.25 150.15 68.55 146.69 71.27 143.21 74.11 138.64 78.12 134.04 83.58 130.23 89.02 126.83 93.87 123.32 99.18 119.05 105.25 114.82 119.12 107.48 125.69 104.46 132.13 101.77 143.38 97.72 149.67 95.71 153.21 99.32 154.91 103.21 156.86 107.07 159.02 110.9 160.74 114.79 161.84 118.74 163.43 126.72 163.24 130.82 163.4 134.88 163.31 138.97 162.2 147.25 162.52 151.3 162.45 159.46 161.94 163.6 160.76 167.81 158.36 172.08 144.9 171.53 134.99 170.75 126.16 169.83 118.25 168.57 110.58 167.67 97.35 165.48 91.4 164.19 81.24 161.51 77.02 160.09 
M 137.24 125.26 137.67 128.76 136.26 135.64 135.19 138.71 132.61 143.81 133.1 148.35 135.27 155.54 135.31 158.73 113.49 158.17 107.49 157.79 101.26 157.61 95.43 157.01 90.02 156.18 
M 75.21 160.28 70.3 158.26 62 154.54 60.61 152.62 61.19 150.38 63.22 149.29 65.26 150.15 77.09 160.15 
M 76.91 160.97 72.71 162.49 68.31 163.69 57.82 167.42 55.61 167.75 53.91 166.5 53.89 164.23 55.5 162.68 64.1 161.44 73.25 160.58 76.76 160.09 
M 99.44 138.96 98.45 135.19 98.73 131.31 100.26 127.72 102.87 124.83 106.28 122.95 110.11 122.27 113.96 122.87 117.4 124.69 120.07 127.53 121.67 131.08 122.03 134.96 121.11 138.74 119.01 142.02 115.96 144.44 112.29 145.75 108.4 145.78 104.7 144.56 101.6 142.19 99.44 138.96 
M 99.3 138.62 98.52 135.8 98.46 132.88 99.12 130.02 99.71 128.68 101.36 126.27 103.55 124.33 104.81 123.58 107.56 122.57 110.47 122.27 113.37 122.69 114.76 123.17 
M 100.95 137.94 100.54 136.76 100.18 134.3 100.23 133.06 100.66 131.1 
M 103.59 126.56 105.63 125.16 106.77 124.66 109.19 124.1 111.68 124.15 114.07 124.81 
M 102.59 137.26 102.26 136.29 101.97 134.27 102.01 133.24 102.38 131.54 
M 104.76 127.9 106.45 126.75 108.37 126.04 110.4 125.83 111.42 125.92 113.39 126.46 
M 105.91 136.04 105.52 134.53 105.63 133.02 
M 107 130.71 107.29 130.39 108.65 129.64 110.18 129.36 111.72 129.61 113.1 130.33 114.16 131.47 114.8 132.89 114.95 134.44 114.58 135.95 113.74 137.27 112.52 138.24 111.05 138.76 109.5 138.77 108.02 138.28 106.78 137.34 105.91 136.04 
M 105.68 133.05 105.62 133.18 
M 108.73 129.62 107.67 131.75 
M 106.77 133.55 105.78 135.53 
M 110.2 129.37 108.53 132.69 
M 108.04 133.67 106.45 136.85 
M 111.44 129.56 109.41 133.6 
M 109.37 133.69 107.34 137.76 
M 112.54 130.04 108.36 138.39 
M 113.51 130.77 109.5 138.77 
M 114.32 131.82 110.85 138.76 
M 114.85 133.42 112.43 138.27 
M 66.92 148.46 72.02 153.56 
M 69.4 145.6 72.09 148.29 
M 71.69 142.53 75.32 146.16 
M 73.74 139.24 77.5 142.99 
M 76.15 136.3 79.05 139.2 
M 78.78 133.58 82.67 137.47 
M 81.93 131.38 85.2 134.65 
M 85.15 129.25 89.98 134.08 
M 88.44 127.19 92.54 131.29 
M 91.58 124.98 96.83 130.23 
M 94.65 122.7 98.34 126.39 
M 97.61 120.31 102.32 125.03 
M 100.66 118.02 103.97 121.33 
M 103.81 115.82 108.62 120.63 
M 107.14 113.8 112.23 118.89 
M 110.61 111.92 113.47 114.78 
M 114.11 110.08 118.59 114.55 
M 117.64 108.25 122.28 112.89 
M 121.24 106.51 124.54 109.8 
M 124.91 104.82 128.43 108.35 
M 128.66 103.22 133.47 108.03 
M 132.44 101.66 136.93 106.15 
M 136.33 100.2 139.81 103.68 
M 140.27 98.79 145.34 103.86 
M 144.26 97.43 148.97 102.15 
M 148.31 96.14 151.39 99.21 
M 107.32 158.85 107.52 158.52 107.74 158.44 107.74 158.57 
M 149.35 170.23 148.79 167.55 148.23 166.81 147.12 166.39 144.17 165.95 
M 135 100.74 135.01 100.7 
M 122.39 130.6 122.66 132.11 123.14 133.48 123.66 133.79 124.37 133.56 
M 103.32 122.85 100.42 123.18 99.86 123.39 98.85 124.07 97.75 125.54 
M 140.23 156.46 140.97 156.56 141.55 156.85 141.58 157.22 141.35 157.9 
M 106 155.04 106.98 155.47 108.13 156.59 108.41 157.7 108.14 158.47 107.78 158.69 
M 152.93 100.37 152.1 100.96 151.33 101.93 150.7 102.27 149.32 102.31 147.55 101.88 
M 132.93 145.48 132.78 146.25 133.02 146.67 133.99 147.09 135.28 147.25 
M 159.86 133.22 160.68 126.89 
M 82.51 144.25 83.42 143.57 85.59 142.8 86.31 142.19 86.51 141.41 86.37 138.85 
M 99.43 163.14 103.53 160.78 105.47 159.14 106.32 157.97 106.79 157.65 107.74 157.44 
M 146.15 165.78 144.23 165.71 143.28 165.22 142.61 164.28 141.86 162.34 141.03 161.24 140.16 160.4 139.88 159.87 
M 101.59 147.93 101.05 147.41 100.47 147.26 99.56 147.88 99.09 148.68 
M 104.56 165.27 105.07 165.22 106.34 165.48 107.96 166.37 
M 97.8 160.16 98.87 159.86 99.88 159.26 100.79 158.38 101.42 157.52 101.85 156.28 102.43 151.39 
M 134.39 161.57 134.04 161.13 133.97 160.34 134.32 159.39 135.03 158.63 135.82 158.16 136.81 157.86 139.32 157.71 
M 91.33 141.23 92.2 144.28 92.16 144.93 91.24 147.28 90.38 148.42 
M 99.33 153.07 100.14 152.08 100.8 150.49 100.35 148.45 
M 142.23 136.62 142.31 135.76 141.86 135.29 
M 141.65 119.51 141.89 122.71 
M 144.35 111.54 143.77 112.98 143.23 113.46 
M 153.27 124.71 151.85 122.47 150.69 121.54 149.87 121.17 146.23 120.25 144.44 119.63 143.15 119.57 
M 110.76 159.38 107.97 159.84 
M 143.53 125.77 140.51 130.13 140.29 130.8 140.4 131.61 
M 134.56 166.4 133.36 165.2 131.7 164.44 130.7 164.61 129.94 165.04 
M 77.78 150.47 78.48 148.93 80.21 146.56 80.76 144.47 81.09 143.86 82.74 142.35 
M 106.97 165.2 107.17 165.69 108.26 166.69 108.52 167.34 
M 88.17 129.46 85.43 129.07 
M 150.97 130.41 146.12 131.43 144.68 131.56 143.37 132.13 
M 80.09 161.12 79.35 160.56 78.75 159.61 78.31 159.24 
M 142.47 104.91 141.31 104.06 140.99 103.53 141.04 103.14 
M 149.33 145.77 143.06 147.7 141.21 147.87 
M 141.55 111.96 140.8 112.87 140.63 113.39 140.67 113.86 141.13 114.37 142.25 114.93 
M 91.69 163.03 92.31 160.4 92.05 158.05 92.48 156.24 92.47 155.42 
M 145.95 155.35 144.17 155.76 141.99 157.59 141.32 157.95 
M 88.96 147.86 89.1 148.26 88.76 148.41 
M 102.22 116.93 102.18 117.34 101.97 117.64 100.42 118.41 99.76 119.06 
M 153.48 147.8 151.56 147.85 148.85 148.54 143 148.18 
M 105.87 120.15 105.24 119.83 103.95 118.25 103.12 117.77 
M 149.23 119.37 144.29 117.93 143.07 117.87 142.6 118.12 141.98 119.02 141.75 120.03 141.85 121.09 
M 96.89 165.38 99.58 164.29 101.22 162.55 103.38 161.06 
M 73.69 146.1 78.05 142.4 79.72 141.59 81.6 141.01 82.81 140.41 83.61 139.28 83.83 138.52 83.87 137.62 
M 133.34 153.3 132.28 153.74 130.67 153.85 127.78 153.28 123.42 150.9 122.58 150.04 
M 134.47 136.07 137.27 135.14 140.08 134.94 141.5 135.27 
M 144.96 167.66 144.92 167.24 144.64 166.81 143.46 166.01 142.66 165.21 141.34 162.03 
M 120.15 142.12 118.89 143.78 117.28 145.21 115.37 148.91 114.5 149.84 
M 97.35 120.52 97.56 123.5 97.19 125.76 
M 141.25 141.59 142.38 142.25 142.55 142.59 142.41 142.99 141.41 144.3 
M 148.62 118.53 144.15 116.87 143.5 116.82 142.76 117.38 142.17 118.14 141.69 119.69 
M 99.07 129.74 97.61 129.35 96.55 129.33 95.51 129.73 94.96 130.68 
M 76.98 160.05 77.86 160.59 
M 71.29 158.67 70.95 159.65 71.08 161.1 71.41 159.93 72.25 159.06 
M 66.37 156.49 65.03 159.31 65.05 162.07 65.48 159.59 67.5 157.01 
M 61.66 154.07 59.11 158.97 59.03 163.05 59.56 159.25 62.73 154.89 
M 76.78 160.2 77.97 159.92 
M 72.22 160.69 72.36 159.5 72.81 158.67 72.88 159.37 73.64 160.52 
M 67.99 161.07 67.88 158.81 68.53 157.21 68.4 158.68 69.39 160.94 
M 63.77 161.49 63.4 158.12 64.24 155.76 63.92 157.99 65.16 161.36 
M 59.57 162.08 58.92 157.43 59.95 154.3 59.44 157.3 60.97 161.87 
M 55.4 162.77 54.44 156.74 55.66 152.85 54.96 156.61 56.8 162.46 
M 62.41 165.84 68.42 166.57 72.23 166.8 76.04 166.74 79.85 166.38 83.67 165.79 91.4 164.19 
M 80.04 164.89 78.89 164.46 
M 86.46 165.24 85.48 164.31 
M 88.17 164.9 87.6 164.27 
M 88.44 164.84 87.92 164.26 
M 91.29 164.21 91.3 164.19 
M 154.11 101.37 159.21 106.48 
M 153.67 93.79 161.59 101.72 
M 158.56 91.56 165.45 98.45 
M 164.1 89.97 173.7 99.56 
M 169.93 88.66 176.14 94.87 
M 176.08 87.68 185.26 96.86 
M 182.33 86.8 189.29 93.76 
M 188.3 85.64 193.79 91.13 
M 194.14 84.35 201.3 91.51 
M 199.98 83.06 209.23 92.3 
M 206.04 81.98 216.29 92.24 
M 212.31 81.13 218.11 86.92 
M 218.9 80.58 225.57 87.25 
M 225.77 80.32 233.67 88.22 
M 232.76 80.18 240.83 88.25 
M 239.92 80.21 246.65 86.94 
M 247.19 80.35 252.94 86.1 
M 254.37 80.4 264.24 90.26 
M 261.23 80.13 268.49 87.38 
M 268.35 80.11 276.17 87.93 
M 276.02 80.65 284.38 89.01 
M 284.14 81.64 290.21 87.71 
M 292.51 82.88 302 92.37 
M 301.04 84.27 307.99 91.23 
M 310.13 86.24 320.57 96.68 
M 320.16 89.13 327.35 96.32 
M 330.49 92.33 338.23 100.07 
M 340.47 95.18 346.89 101.6 
M 351.41 98.98 361.87 109.45 
"/></svg>