<svg xmlns="http://www.w3.org/2000/svg" width="520" height="320"><rect x="0" y="0" width="520" height="320" fill="floralwhite"/><rect x="10" y="10" width="500" height="300" stroke="black" stroke-width="1" fill="none"/><path stroke="black" stroke-width="1" fill="none" stroke-linecap="round" stroke-linejoin="round" d="
M 199.63 114.45 212.8 106.56 219.35 102.99 225.9 99.73 239.01 93.76 245.56 91.35 252.11 89.58 258.67 88.24 278.32 87.59 284.88 88.75 291.43 91.04 297.98 93.88 317.64 103.18 324.19 106.65 343.85 118.67 364.41 130.51 
M 329.72 208.74 324.19 211.55 311.09 217.72 304.53 219.99 291.43 223.75 284.88 224.69 278.32 225.33 271.77 225.06 258.67 225.27 252.11 224.01 245.56 221.93 239.01 219.52 232.46 216.86 225.9 214.54 219.35 211.8 212.8 208.29 206.29 204.24 
M 364.41 142.85 352.08 141.84 341.48 141.4 334.36 140.55 327.17 138.93 320.02 136.85 316.52 135.99 306.13 134.15 295 131.26 
M 291.85 130.63 287 129.77 283.61 129.39 281.87 129.37 
M 278.37 129.42 271.45 129.93 
M 268.07 130.18 262.92 130.77 253.96 132.13 
M 250.33 132.54 243.23 133.03 
M 233.17 133.67 229.68 134.06 
M 212.62 190.75 216.88 196.2 220.61 201.32 
M 225.87 207.5 227.49 209.15 
M 219.18 188.88 225.85 198.23 
M 228.44 201.55 231.18 204.7 
M 231.42 194.87 236.76 201.78 
M 242.38 208.02 247.89 213.56 
M 216.08 162.55 223.17 171.46 
M 240.08 195.59 242.42 198.65 
M 250.52 208.19 253.13 210.91 
M 257.94 215.44 260.09 217.27 
M 211.5 142.84 214.38 148.12 216.91 152.24 219.74 156.26 227.86 166.53 
M 258.12 207.55 260.48 209.91 
M 200.82 113.75 207.9 123.57 213.08 131.35 215.48 135.36 222.5 147.93 225.2 152.02 236.2 166.09 
M 267.58 208.31 269.73 210.46 
M 206.09 110.62 215.8 123.78 221.07 131.32 223.57 135.29 228.42 143.58 231.13 147.68 240.43 159.61 243.15 163.62 246.56 169.31 
M 271.84 203.64 272.65 204.53 
M 281.7 213.2 283.92 214.92 
M 211.32 107.45 225.11 125.95 
M 227.77 129.68 234.14 139.58 236.98 143.56 241.72 149.4 
M 244.81 153.35 247.58 157.37 
M 252.31 165.57 253.86 168.37 
M 282.66 205.84 287.12 210.3 
M 216.51 104.54 218.59 107.08 228.98 121.21 239.17 136.17 242.13 139.91 248.59 147.35 251.57 151.28 255.44 157.49 
M 257.76 161.64 261.05 167.71 
M 221.48 101.93 223.95 104.68 226.55 107.96 234.14 118.72 241.26 129.45 243.87 133.02 246.82 136.53 253.25 143.64 256.36 147.53 259.22 151.66 262.96 157.94 
M 265.21 161.99 268.12 167.18 
M 226.35 99.53 229.16 102.45 231.87 105.63 234.48 109.11 244.11 123.13 248.94 129.67 257.81 139.88 260.92 143.77 263.87 147.93 266.6 152.18 272.38 162.02 
M 274.53 165.69 274.9 166.3 
M 231.58 97.21 234.64 100.23 237.34 103.34 251.93 123.05 262.45 135.81 265.4 139.68 269.7 146.02 
M 272.37 150.2 274.78 154.14 
M 276.96 157.84 281.47 165.19 
M 237.22 94.6 240.43 97.7 243 100.69 257.4 119.44 264.59 128.3 267.17 131.68 271.24 137.49 
M 273.96 141.59 276.53 145.64 
M 278.84 149.5 283.21 156.77 
M 285.63 160.54 289.21 165.76 
M 243.42 92.14 246.27 94.95 248.65 97.77 255.58 106.87 267.25 121.45 271.97 127.77 277.15 135.04 279.67 138.92 287.25 151.96 
M 289.7 155.73 295.2 163.71 
M 249.71 90.23 251.76 92.36 253.93 94.97 258.28 100.54 265.4 108.97 268.91 113.38 
M 271.18 116.32 273.44 119.29 
M 275.78 122.33 282.08 130.66 285.58 136.23 
M 287.66 139.98 289.67 143.74 
M 294.08 151.34 299.42 159.33 
M 302.43 163.36 303.43 164.65 
M 255.54 88.88 263.04 97.48 270.33 105.29 272.7 108.16 279.44 117.13 287 126.45 289.43 130.02 291.61 133.73 298.74 147.38 
M 306.73 159.29 310.84 164.41 
M 261.4 88.12 265.51 92.32 272.67 99.19 275.07 101.76 277.37 104.55 284.03 113.6 291.61 122.6 294.07 125.94 296.4 129.61 298.55 133.43 304.78 145.53 307.13 149.51 311.26 155.3 
M 314.36 159.23 317.48 163.21 
M 268.45 87.9 272.8 91.46 277.52 95.76 279.81 98.26 282.02 101 288.6 110.1 296.07 118.97 298.58 122.19 303.39 129.46 308.97 139.46 
M 311.25 143.52 315.02 149.49 319.41 155.35 
M 322.38 159.35 325.13 163.37 
M 277.09 87.64 280.27 90.18 282.52 92.33 284.71 94.76 293.37 106.39 299.36 113.7 
M 301.88 116.81 308.24 125.58 310.79 129.36 314.4 135.36 
M 330.41 159.52 332.79 163.49 
M 288.38 89.98 289.72 91.48 307.93 114.54 313.2 121.72 315.77 125.52 319.5 131.48 
M 322.03 135.6 324.76 139.76 
M 327.67 143.88 330.57 147.88 
M 335.71 155.58 341.08 164.42 
M 300.25 94.98 307.93 104.29 312.89 110.85 320.49 121.93 328.12 133.79 332.5 139.89 
M 335.43 143.89 339.49 149.65 347.51 162.04 
M 313.24 101.17 315.41 104.15 332.85 129.8 337.2 135.68 
M 340.14 139.59 345.48 147.22 
M 347.88 150.88 356.77 164.16 
M 323.83 106.46 329.92 115.13 345.27 135.14 
M 347.98 139.01 354.11 148.64 362.62 161.41 
M 337.94 115.14 346.5 125.16 349.4 128.87 352.15 132.72 354.68 136.67 360.73 146.57 
M 363.22 150.4 364.41 152.19 
M 355.04 125.14 360.18 132.66 363.94 138.67 
M 203.5 112.15 200.89 116.05 
M 221.87 101.74 216.78 106.87 211.4 112.86 208.9 116.17 205.34 121.6 
M 239.97 93.41 235.15 97.57 229.83 102.52 224.83 107.77 219.59 113.69 214.48 120.1 207.62 130.3 
M 252.75 89.45 249.39 92.35 243.68 97.75 231.41 110.25 
M 223.74 119.07 219.95 123.93 210.44 137.74 
M 261.3 88.13 259 90.18 254.2 94.98 240.71 109.99 232.79 118.51 227.89 124.42 218.58 137.41 
M 215.63 141.69 212.15 146.88 
M 268.01 87.91 263.37 92.44 258.78 97.68 246 113.63 237.84 122.5 235.37 125.4 229.47 133.54 
M 226.74 137.38 220.78 145.85 
M 217.95 150.13 215.36 154.3 
M 274.48 87.74 270.49 91.8 265.75 97.27 253.78 113.44 251.1 116.78 241.52 127.82 
M 239.2 130.95 234.69 137.72 
M 232.07 141.56 229.19 145.67 
M 223.59 154.11 221.15 158.29 
M 218.85 162.51 213.13 172.48 
M 280.42 87.96 277.95 90.59 273.04 96.42 268.45 102.52 258.75 116.16 247.92 129.69 244.51 134.76 
M 242.46 138.17 239.23 143.57 232.43 153.78 
M 229.77 158.02 227.38 162.3 
M 225.18 166.61 222.97 170.9 
M 285.69 89.03 282.8 92.29 277.93 98.5 268.71 111.8 258.39 125.64 254.63 131.03 
M 252.36 134.66 250.32 138.24 
M 248.41 141.81 245.42 147.37 241.6 153.44 
M 238.81 157.63 236.09 161.9 
M 290.63 90.76 287.46 94.46 282.59 100.94 273.49 114.5 264.82 126.59 
M 262.44 130.27 259.13 136.03 256.23 141.78 
M 254.34 145.54 251.26 151.28 248.84 155.32 244.64 161.52 
M 295.57 92.84 292.04 97.05 287.15 103.72 271.01 127.84 268.77 131.6 266.71 135.57 263.84 141.75 
M 261.95 145.79 258.93 151.64 256.61 155.53 252.62 161.48 
M 249.82 165.56 247.42 169.2 
M 229.63 198.29 224.45 204.56 
M 300.44 95.08 296.7 99.6 289.5 110.03 278.53 127.22 275.07 133.21 
M 273 137.41 268.33 148.12 266.32 152.16 262.84 157.95 
M 237.95 198.51 232.55 204.73 
M 305.18 97.39 301.42 101.96 298.95 105.51 291.28 117.77 
M 289.25 121.13 282.53 132.59 
M 280.21 136.83 277.08 143.46 273.39 152.26 271.27 156.31 267.62 162.07 
M 265.06 165.92 263.95 167.57 
M 247.01 197.73 243.63 202.01 
M 310.1 99.71 306.28 104.44 303.85 108.03 299.36 115.34 289.77 131.94 
M 287.32 136.07 283.69 142.5 281.58 146.95 278.78 153.58 
M 276.83 157.84 275.8 159.92 271.73 166.63 
M 246.62 208.14 244.05 210.85 
M 315.38 102.15 311.34 107.42 306.63 114.62 297.92 129.56 290.48 141.68 286.93 148.03 
M 284.9 152.35 281.23 161.14 
M 279.21 165.33 278.64 166.41 
M 259.17 201.48 256.91 204.78 
M 320.81 104.86 316.4 110.95 314.14 114.39 302.54 133.39 294.93 145.41 292.61 149.42 290.52 153.55 285.62 165.82 
M 264.53 202.92 264.27 203.31 
M 326.16 107.87 321.39 114.77 312.47 129.34 303.26 143.48 
M 298.51 151.3 297.44 153.24 295.56 157.36 292.96 163.92 
M 270.28 203.58 269.09 205.2 
M 331.36 111.07 326.4 118.57 317.51 133.39 309.39 145.56 305.71 151.42 
M 303.62 155.31 299.38 165.14 
M 336.68 114.37 331.54 122.21 328.17 127.87 
M 325.99 131.75 323.8 135.68 
M 318.83 143.63 314.7 149.49 312.18 153.32 311.15 155.3 
M 282.73 204.72 278.83 208.97 
M 276.07 211.78 273.36 214.42 
M 342.29 117.74 336.99 125.75 334.55 129.75 328.3 141.89 327.13 143.87 
M 324.63 147.76 321.93 151.55 
M 319.32 155.35 318.09 157.28 316 161.21 314.6 164.25 
M 348.13 121.12 342.77 129.29 340.27 133.46 333.97 145.93 331.69 149.84 326.4 157.47 323.88 161.36 322.17 164.34 
M 293.96 206.69 293.71 206.99 
M 291.18 209.76 288.55 212.33 
M 353.99 124.52 346 137.12 339.21 149.67 336.85 153.61 330.38 163.47 
M 297.81 209.07 295.44 211.5 
M 359.86 127.91 351.33 140.83 340.43 159.21 
M 337.89 163.32 337.06 164.64 
M 364.41 133.43 359.19 140.66 353.82 148.65 343.9 164.54 
M 364.41 144.6 350.66 164.32 
M 364.41 155.74 357.97 164.19 
M 239.01 93.76 239.61 91.67 239.38 89.31 239.65 78.07 240.26 72.61 241.21 68.33 240.59 65.59 240.76 62.93 242.77 58.37 243.84 54.78 245.77 50.34 248.03 47.67 250.33 45.83 253.52 40.63 254.64 37.6 254.72 34.7 255.4 31.03 257.52 30.27 259.14 30 260.53 34.76 266.12 46.05 267.66 48.67 268.24 50.56 267.8 52.67 268.12 55.53 269 58.95 268.73 61.23 270.73 63.93 273.84 67.5 274.64 69.92 275.66 73.85 276.83 76.07 278.63 78.89 282.09 83.57 285.19 86.68 287.48 89.66 
M 284.88 88.75 284.88 88.75 
M 243.26 92.2 244.02 90.49 244.08 87.94 243.84 85.29 243.28 82.25 243.74 78.95 244.45 76.01 244.48 73.56 244.3 71.78 245.18 70.24 245.07 64.33 246.36 61.04 248.94 56.41 249.82 54.41 252.53 52.4 254.13 49.86 255.5 46.77 256.99 44.61 258.39 41.88 259.84 39.96 260.24 37.15 
M 247.57 90.81 248.1 89.07 248.39 86.52 248.26 84.05 248.33 81.08 248.97 78.51 249.2 75.98 249.2 73.45 249.92 71.5 250.27 69.28 
M 251.95 89.62 252.28 87.98 252 85.92 251.93 82.89 253.04 79.84 253.66 77.4 255.08 73.72 255.89 71.64 257.25 69.16 257.63 65.89 258.24 62.94 258.3 61.3 260.56 59.03 262.81 55.57 
M 256.38 88.71 256.84 87.2 256.84 84.41 257.37 81.79 258.43 79.55 258.89 77.46 261.45 73.01 
M 260.88 88.14 261.96 86.24 262.77 82.17 266.03 75.42 
M 265.41 87.95 266.92 86.7 267.35 84.35 268.47 82.36 
M 269.94 87.88 271.35 86.33 272.33 83.57 
M 274.46 87.75 276.88 86.26 
M 279 87.71 285.48 86.97 
M 211.3 172.63 215.73 172.26 234.72 170.14 240.22 169.7 242.83 169.7 251.11 168.89 253.73 168.38 259.51 167.82 265.02 167.54 273.56 166.38 276.21 166.23 278.75 166.42 286.85 165.72 292.22 165.77 298.16 165.33 303.85 164.61 306.67 164.7 308.66 164.42 314.15 164.25 320.03 164.46 322.92 164.3 325.04 163.87 332.77 164.07 335.65 164.56 338.43 164.72 341.56 164.37 344.68 164.59 347.75 164.33 358.62 164.21 361.45 163.97 364.28 164.78 369.64 164.79 372.15 165.12 375.15 164.86 377.74 165.32 380.59 165.45 383.09 165.11 385.96 165.07 388.48 165.46 393.79 165.44 399.01 166.48 401.53 166.49 404.45 166.91 407.16 167.65 410.45 167.96 415.55 167.78 417.61 167.99 420.33 167.91 423.21 168.72 429.03 169.26 434.76 170.09 437.88 170.23 440.42 170.63 443.06 170.39 448.96 170.76 454.68 172.54 457.49 173.14 467.68 174.06 471.88 175.09 474.42 175.41 477.42 176.06 479.92 176.96 482.23 177.48 485 176.86 440.85 193.66 437.91 194.05 435.28 194.76 432.06 194.87 424.48 197.28 419.27 198.74 416.58 199.38 413.61 199.74 411.18 200.65 400.53 203.33 397.97 204.09 395.67 205.07 390.77 206.1 388.14 206.44 382.22 206.45 376.54 206.69 365.96 207.97 362.92 207.89 354.44 208.3 349.35 209.08 343.83 208.8 335.83 208.66 325.49 208.79 322.63 208.55 319.52 208.06 314.21 207.99 311.14 207.54 308.51 207.53 306.14 207.78 301.23 207.75 290.37 206.22 287 205.18 276.72 204.24 271.39 203.58 269.05 203.57 263.59 202.78 219.88 189.35 216.84 187.29 210.88 184.8 
M 212.99 174.5 221.38 174.37 226.64 173.9 237.59 173.42 240.28 173.39 245.72 173.85 248.64 173.79 251.37 173.33 259.68 173.14 265.4 173.39 270.97 172.92 276.54 172.97 278.86 173.37 287.27 173.21 292.94 173.95 295.78 173.59 298.47 173.45 304.31 173.68 306.85 174.15 309.65 174.41 312.58 174.44 315.33 174.73 320.7 174.96 327.77 175.64 330.53 176 335.75 177.14 338.29 177.37 341.65 176.91 349.76 177.61 352.57 178.15 358.34 178.8 360.49 179.2 366.84 179.75 369.67 180.21 374.48 181.73 379.82 182.9 387.52 183.87 392.72 185.16 398.97 184.87 402.18 185.17 404.62 185.95 406.85 187.29 412.38 188 414.79 187.77 417.91 188.21 420.46 188.3 423.35 189.51 428.36 190.81 
M 210.95 176.37 224.14 177.01 229.68 177.02 235.22 177.36 238.1 177.17 240.78 177.19 243.42 177.35 246.19 177.76 251.99 177.91 254.43 178.26 257.12 178.32 262.82 179.25 268.54 179.56 273.27 179.4 275.98 179.63 284.69 181.15 293.27 182.34 296.14 182.6 301.39 182.51 307.17 183.58 312.73 185.21 317.28 186.19 319.72 187.12 322.49 187.62 325.39 187.73 333.69 189.69 339.78 189.4 349.44 192.08 351.68 192.99 
M 213.13 178.43 215.97 178.68 224.29 179.92 229.99 180.27 235.54 181.09 238.18 181.14 249.31 182.28 254.57 183.63 257.03 184.01 264.75 186.25 267.53 186.59 270.81 186.29 273.81 186.5 276.65 186.98 279 187.56 288.78 190.71 291.48 191.74 294.31 192.42 297.24 192.56 
M 211.1 180.07 215.97 180.82 218.97 181.64 238.24 185.55 243.46 186.7 248.63 188.26 250.99 188.67 256.68 190.14 259.42 190.59 263.65 193.47 265.94 194.63 269.11 195.1 272.27 195.08 274.99 195.48 277.49 196.65 280.25 198.27 282.36 199.19 
M 213.3 182.57 216.13 183.22 218.85 184.48 232.67 188.56 235.27 189.81 237.27 191.31 243.79 194.56 246.16 196 248.99 196.7 
M 232.46 216.86 235.46 220.49 239.17 226.47 244.65 233.5 249.49 238.36 250.49 241.31 251.41 244.96 253.89 248.1 249.52 256.09 248.51 258.36 247.97 261.11 247.02 263.44 245.55 265.56 243.72 267.57 242.42 270.12 240.16 271.7 236.68 272.22 226.04 280 226.44 277.71 227.37 275.27 228.06 271.21 227.41 267.89 226.75 265.45 226.64 263.14 227.38 259.65 227.32 252.26 227.52 249.37 226.37 246.74 226.75 244.26 226.38 241.34 226.43 237.98 226.67 235.25 227.72 232.57 227.17 229.6 226.08 226.73 226.37 223.75 226.45 217.74 225.9 214.54 
M 230.75 216.25 233.18 219.55 234.82 222.59 236.86 228.03 242.84 239.48 243.95 243.17 245.25 245.35 246.19 247.37 
M 229.04 215.65 230.68 218.9 231.72 221.71 233.68 227.99 234.77 230.68 235.48 233.33 236.66 239.78 239.12 246.46 
M 227.33 215.04 228.3 218.38 229.65 227.23 231.26 230 232.42 232.62 231.62 235.65 230.95 241.69 232.08 244.66 233.54 250.12 233.59 253.01 234.27 257.38 
M 351.5 208.67 351.94 213.13 350.66 215.56 348.92 221.04 347.15 223.02 344.73 224.26 342.5 225.75 337.67 228.11 335.02 228.96 331.86 229.17 326.92 230.71 324.7 232.23 322.88 234.27 320.22 235.45 317.74 236.81 315.03 237.59 313.12 239.01 309.8 238.1 307.42 237.7 302.92 238.24 299.88 238.31 296.83 238.73 293.94 238.11 291.18 237.06 288.53 236.55 283.36 234.53 281.34 231.11 278.32 225.33 
M 339.69 208.72 343.08 211.76 345.45 214.15 
M 333.97 208.73 336.67 210.85 339.31 213.73 
M 328.23 209.49 332.77 213.47 335.97 215.58 338.35 217.83 
M 324.19 211.55 327.93 215.43 330.65 217.68 332.96 219.34 335.39 221.78 
M 320.09 213.49 323.73 217.26 326.7 219.36 328.25 221.69 332.99 226.53 
M 315.99 215.42 319.62 219.39 322.93 221.71 325.62 223.38 327.31 225.25 
M 311.89 217.34 315.65 220.93 318.93 223.42 321.52 226.57 
M 307.64 218.91 309.93 222.18 312.65 225.24 315.54 227.94 317.71 230.89 320.4 233.33 
M 303.35 220.35 305.78 224.09 310.99 230.47 314.01 233.59 316.29 235.59 
M 299.01 221.66 301.64 225.2 304.5 227.87 307.35 231.4 309.08 234.62 
M 294.64 222.88 297.81 226.84 300.81 229.59 302.25 232.45 
M 290.24 223.92 293.86 227.8 296.78 231.75 
M 285.75 224.57 289.38 228.85 291.92 233.25 
M 281.25 225.05 284.3 229.62 
M 363.51 129.99 366.37 129.57 371.97 126.5 377.3 124.23 381.82 122.61 384.73 120.98 386.85 120.2 390.23 116.83 392.34 114.98 395.08 113.33 398.37 112.03 401.09 109.29 404.31 107.53 407.18 105.4 409.26 104.6 411.12 104.56 413.12 104.09 414.38 102.23 416.59 101.47 428.3 101.32 432.98 102.65 435.76 103.76 438.75 104.68 445.5 106.41 447.71 106.11 449.89 106.87 455.59 111.87 458.07 113.46 460.53 114.5 466.34 117.75 472.86 125.4 477.41 129.78 480.67 135.49 483.14 139.31 484.27 141.78 484.9 143.75 485.83 149.24 484.96 153.14 486.14 155.72 486.67 157.67 487.74 160.14 488.19 163.33 487.43 166.07 486.95 169.1 486.28 171.94 484.86 174.01 483.72 177.15 
M 483.65 177.37 483.09 179.19 481.66 181.25 480.2 186.5 480.37 193.24 478.9 195.53 476.69 197.13 475.18 199.43 470.93 202.83 467.15 206.68 464.02 207.37 461.83 208.96 459.81 210.66 456.58 214.88 450.74 215.94 447.33 215.99 445.02 217.13 442.42 218.15 435.91 218.85 433.63 220.15 432.24 222.33 429.87 223.53 425.73 225.98 417.63 224.61 415.05 222.38 413.17 221.58 410.35 220.84 407.94 219.13 405.33 216.78 397.98 212.97 395.89 211.26 393.57 209.82 391.38 208.19 389.42 206.28 
M 366.48 132.34 371.33 129.89 374.22 128.93 377.22 127.47 382.61 125.97 385.34 124.77 389.66 122.14 391.67 120.19 393.7 119.23 396.74 117.38 399.96 114.8 402.89 113.7 404.98 112.22 407.44 111.93 409.71 111.34 412.78 110.12 
M 366.62 135.28 369.01 134.1 374.04 132.04 377.22 131.19 380.03 129.94 385.97 128.35 388.14 127.11 390.81 125.06 393.44 123.58 395.79 122.52 397.96 121.14 403.15 119.16 408.27 117.68 
M 371.66 136.43 374.02 135.57 386.04 132.01 393.96 127.63 396.36 127.28 397.68 126.47 402.34 125.21 
M 366.5 141.02 369.14 140.35 371.82 139.3 374.41 138.68 377.5 138.22 386.62 136 391.81 133.57 396 131.4 398.8 130.82 401.23 129.93 403.92 129.2 407.28 128.74 409.83 126.75 412.24 125.26 416.47 124.86 418.54 124.03 421.64 123.53 424.88 123.27 427.55 121.4 432.94 118.39 435.46 117.82 437.47 117.11 439.82 116.71 
M 372.14 142.5 374.64 141.86 380.71 141.32 386.77 139.89 388.98 139.17 392.23 138.5 396.45 136.57 399.14 136 402.57 135.02 405.14 134.02 407.76 132.13 410.52 132.44 415.98 131.03 418.8 131.07 422.31 131.42 426.17 129.12 428.95 128.23 434.25 125.71 437.69 125.37 440.79 125.36 442.44 124.08 444.79 122.94 447.12 123.37 449.8 123.1 
M 369.7 146.23 372.59 145.89 375.31 145.29 378.02 145.3 384.39 144.51 389.11 143.54 392.46 144.11 395.08 143.38 397.16 143.24 402.08 141.24 405.31 140.53 408.45 139.27 410.35 139.23 413.09 138.34 416.86 137.5 420.24 136.98 423.38 136.86 425.24 136.29 
M 367.03 149.67 370.1 149.4 373.15 149.55 378.44 148.96 383.8 148.73 386.26 147.96 389.17 147.55 395.36 147.11 397.92 146.77 400.22 146.33 402.89 145.59 405.98 145.68 408.28 145.36 410.83 144.56 416.73 143.91 419.06 142.85 421.94 142.18 424.71 141.03 429.34 141.28 435.84 139.44 439 137.93 444.56 138.3 448.26 137.41 450.81 137.25 
M 366.87 152.74 369.79 152.64 372.83 152.98 375.71 152.94 378.12 152.31 386.51 152.32 389.66 152.14 392.54 151.47 397.27 149.76 400.1 150.21 403.35 150.02 409.01 149.24 411.51 148.48 414.11 148.92 417.77 148.39 420.41 148.64 423.21 148.2 425.94 148.84 428.71 149.17 431.52 149.11 434.18 148.27 437.11 146.8 440.55 146.4 443.27 145.45 446.4 145.13 449.15 145.28 452.21 144.85 460.08 144.57 461.98 144.1 465.38 143.88 
M 372.5 156.02 378.24 156.38 390.48 156.51 395.87 155.79 400.91 154.68 403.61 154.53 407.21 155.33 411.06 155.2 414.73 154.69 418.27 154.72 420.79 154.9 423.86 154.22 425.91 154.56 429.15 155.46 434.95 155.29 441.42 155.62 444.42 154.72 447.16 154.65 449.44 155.07 451.23 155.14 455.42 154.02 458.39 153.64 462.33 154.73 467.15 154.43 469.6 154.13 472.1 153.44 473.03 152.56 474.27 151.93 477.7 152.24 481.92 153.2 
M 363.51 158.31 366.7 158.87 375.12 159.26 378.09 160.24 381.67 160.59 384.97 160.51 387.94 160.96 390.63 160.91 393.55 160.4 396.53 160.76 402.09 160.06 404.36 160.13 406.3 161.49 408.46 161.13 410.63 161.63 414.74 161.05 421.92 161.43 424.39 161.18 427.31 160.56 430.7 160.23 433.75 160.82 436.08 161.69 442.05 162.35 443.26 162.75 444.73 162.65 446.73 163.7 
M 366.68 161.77 375.01 163.14 381.22 163.99 383.81 164.17 387.11 165.04 392 165.27 393.24 165.46 
M 394.98 165.67 400.41 165.48 403.4 165.72 406.49 166.3 409.58 166.44 412.17 166.86 421.16 166.15 423.62 166.88 426.04 167.85 431.41 168.2 433.91 167.79 436.66 169.2 439.74 169.74 
M 456.74 187.62 460.2 188.82 462.72 188.57 464.59 189.59 465.72 191.11 
M 447.95 190.96 450.46 191.15 452.35 193.65 454.61 194.58 457.08 194.61 459.68 195.67 461.82 195.97 464.31 197.13 
M 430.16 195.45 432.03 196.06 434.27 197.28 436.73 197.6 
M 410.5 200.79 413.2 202.04 415.12 203.5 416.94 205.42 418.58 206.6 424.74 208.48 
M 402.74 202.8 406.04 203.95 409.51 205.94 412.08 207.68 414.37 209.6 
M 395.79 205.02 397.62 205.79 401.03 206.67 405.02 210.03 408.16 211.77 410.67 213.39 413.3 215.35 418.84 218.8 
M 304.53 97.08 307.73 101.26 324.74 88.3 329 85.98 331.36 85.03 334.25 86.24 336.44 86.55 339.63 87.41 342.42 87.88 347.52 89.34 349.18 89.56 352.59 93.67 355.1 94.67 358.84 95.84 361.45 98.09 362.37 101 360.82 102.95 359.44 105.06 359 107.58 359.21 110.31 360.2 112.73 361.37 114.75 353.76 127.25 350.4 122.43 
M 308.63 99.02 311.27 98.25 313.5 97.07 314.96 95.23 317.55 94.15 319.61 91.76 
M 312.73 100.94 315.66 100.46 317.43 99.52 321.83 95.89 323.17 93.14 325.57 91.01 327.68 88 330.45 86.49 
M 316.85 102.82 322.14 101.39 327.06 98.41 329.7 95.88 332.12 92.73 
M 320.88 104.9 323.75 104.23 325.83 103 328.7 101.83 331.44 99.94 334.46 98.43 336.45 97.16 336.74 95.6 338.03 93.74 338.93 91.91 341.03 90.51 
M 324.86 107.06 327.48 106.13 329.59 104.42 332.34 103.42 335.07 102.21 338.48 101.64 342.8 98.09 344.96 96.78 
M 328.72 109.44 332.19 108.4 334.54 107.18 337.49 106.07 344.87 102.58 348.06 100.83 
M 332.57 111.82 335.54 111.55 338.38 110.73 346.84 105.2 348.43 103.58 350.35 102.54 
M 336.42 114.21 339.12 114.32 344.7 111.88 350.4 107.33 354.48 104.96 
M 340.3 116.55 343.84 116.45 346.51 116.14 349.39 114.89 354.39 110.32 355.32 109.16 355.96 107.56 
M 344.19 118.87 348.46 118.57 350.56 118.01 
M 348.12 121.12 352.23 120.98 355.75 119.9 
M 91.86 167.13 95.73 162.6 98.52 158.57 102.52 154.31 108.48 150.79 114.77 147.69 120.44 144.45 126.81 140.21 134.38 136.21 143.04 132.34 151.98 128.68 160.76 125.5 177.73 120.05 184.87 117.53 191.23 115.84 196.46 114.85 199.61 114.44 203.16 118.91 204.78 123.54 206.64 128.16 208.73 132.76 210.37 137.39 211.37 142.07 212.75 151.47 212.44 156.25 212.49 160.99 212.27 165.76 210.9 175.36 211.1 180.1 210.8 189.63 210.16 194.42 208.83 199.27 206.29 204.17 189.74 203.61 177.89 202.53 167.18 200.97 148.3 197 139.57 194.66 124.29 190.2 117.59 187.84 106.28 182.71 
M 180.88 146.17 181.16 150.23 179.11 158.01 177.61 161.41 175.89 164.52 174.71 167.48 174.8 173.01 178.03 181.74 178.5 185.56 159.72 185.4 152.13 184.99 137.18 183.2 129.83 181.65 122.93 179.79 
M 100.54 179.72 94.56 175.64 88.87 171.49 87.8 169.44 88.67 167.27 90.83 166.58 92.81 167.64 95.63 171.08 100.5 176.12 106.3 182.68 
M 104.08 183.24 94.53 181.56 90.01 180.53 88.45 178.9 88.8 176.68 90.77 175.37 93.06 175.94 105.12 182.09 
M 139.23 159.28 137.49 156.84 136.63 153.96 136.75 150.96 137.85 148.16 139.79 145.87 142.37 144.33 145.31 143.72 148.28 144.09 150.98 145.41 153.11 147.53 154.42 150.23 154.8 153.21 154.18 156.15 152.64 158.73 150.35 160.67 147.55 161.76 144.55 161.88 141.68 161.03 139.23 159.28 
M 151.62 148.59 152.68 150.75 152.97 153.13 152.48 155.48 151.25 157.55 149.42 159.1 147.18 159.97 144.78 160.07 142.48 159.39 140.52 157.99 
M 142.42 154.73 141.72 153.75 141.38 152.6 141.43 151.4 141.87 150.28 142.64 149.37 143.68 148.75 144.85 148.51 146.04 148.66 147.12 149.18 147.97 150.03 148.5 151.11 148.65 152.3 148.4 153.48 147.79 154.51 146.87 155.29 145.75 155.72 144.55 155.77 143.4 155.43 142.42 154.73 
M 142.42 154.36 143.52 155.47 
M 142.8 152.3 146.09 155.59 
M 144.75 151.81 147.61 154.66 
M 146.13 150.74 148.48 153.09 
M 147.46 149.62 148.06 150.22 
M 91.89 167.1 92.01 167.22 
M 94.38 169.58 96.4 171.6 
M 94.39 164.16 97.81 167.57 
M 96.77 161.1 101.26 165.59 
M 99.08 157.97 102.43 161.33 
M 101.72 155.17 107.12 160.58 
M 104.89 152.91 109.78 157.8 
M 108.31 150.89 113.67 156.25 
M 111.94 149.08 116.8 153.94 
M 115.54 147.25 118.46 150.16 
M 119 145.27 122.31 148.58 
M 122.34 143.18 125.08 145.92 
M 125.61 141 129.18 144.58 
M 129.06 139.02 132.75 142.71 
M 132.62 137.14 136.62 141.14 
M 136.28 135.36 141.03 140.12 
M 140.04 133.68 142.9 136.55 
M 143.81 132.02 148.42 136.63 
M 147.67 130.45 151.1 133.88 
M 151.53 128.87 156.73 134.06 
M 155.5 127.4 158.89 130.79 
M 159.49 125.96 163.69 130.15 
M 163.56 124.58 167.05 128.08 
M 167.65 123.24 171.61 127.2 
M 171.77 121.92 177.05 127.2 
M 175.91 120.62 180.64 125.36 
M 179.98 119.26 183.68 122.96 
M 183.99 117.84 188.2 122.04 
M 188.23 116.64 193.36 121.77 
M 192.61 115.58 195.85 118.82 
M 197.22 114.75 202.17 119.7 
M 160.55 176.91 160.1 177.86 159.27 177.89 156.81 177.09 154.24 176.54 153.44 176.2 
M 132.67 180.03 133.41 179.61 133.77 179.8 133.7 180.03 133.53 180.04 
M 154.2 172.17 152.11 171.98 151.26 171.75 150.07 170.92 147.44 170.09 146.34 170.14 145.43 170.57 144.66 170.69 
M 154.66 148.25 156.25 147.98 158.1 147.14 158.75 147.71 
M 151.46 142.99 148.67 144.28 
M 159.93 155.3 161.09 153.31 161.39 153.06 161.8 153.22 
M 118.47 155.16 120.01 156.25 122.57 157.22 123.26 157.23 123.68 156.54 
M 123.38 142.49 123.55 144.17 122.96 146.5 
M 116.73 167.47 116.38 168.65 115.78 169.73 115.21 170.19 114.65 170.2 
M 167.35 156.86 167.96 156.77 168.16 156.37 
M 177.31 148.7 174.36 150.32 170.67 151.1 
M 205.99 129.06 206.8 128.5 
M 173.23 148.13 170.2 149.33 169.34 149.94 167.56 151.72 167 153 
M 136.42 136.5 138.01 138.43 139.2 139.13 140.19 139.22 140.74 139.07 140.98 138.78 141.08 138.06 
M 150.85 169.85 146.58 169.7 144.28 170.42 142.19 170.68 
M 154.93 194.41 153.69 194.26 153.12 193.93 151.75 192.45 151.16 191.16 
M 205.32 175.05 205.31 174.08 205.79 173.21 208.04 171.96 209.09 170.83 
M 163.98 200.29 162.5 199.28 162.26 198.86 
M 179.78 151.65 179.26 150.27 178.56 149.65 178.12 149.67 175.57 150.65 
M 162.32 124.99 161.9 125.92 160.82 127.33 160.16 127.87 158.9 128.08 157.8 127.76 
M 184.74 123.45 183.79 123.8 179.67 124.75 178.33 124.57 
M 173.75 133.62 171.56 134.04 170.86 134.74 170.06 135.17 
M 199.63 143.13 204.06 142.72 205.02 142.35 206.35 141.54 
M 209.67 169.32 210.33 168.02 210.5 167.33 210.32 165.94 210.59 164.58 211.8 161.46 212.48 160.7 
M 122.8 186.42 125.24 185.7 126.97 183.99 129.21 182.48 131.2 180.86 
M 132.87 192.75 132.54 191.32 132.64 189.55 
M 181.38 198.89 180.44 198.36 179.92 197.85 178.36 195.72 177.7 194.41 
M 126.11 180.19 126.83 179.31 127.38 178.25 127.96 174.49 128.1 172.52 127.85 171.66 126.49 170.17 
M 183.12 190.59 181.44 191.78 180.8 192 179.72 192.09 177.92 191.65 176.86 191.16 175.96 189.63 
M 167.31 135.82 168.1 136.29 168.39 136.9 167.98 139.47 167.98 141.07 
M 155.9 158.08 156.42 156.25 156.97 155.04 157.22 154.67 158.31 153.91 159.12 152.4 
M 133 172.81 132.7 174.1 132.76 174.53 133.89 176.61 134.35 177.88 134.44 178.98 134.01 179.91 
M 120.29 147.46 120.13 148.47 119.31 150.45 119.16 151.98 119.51 153.06 120.79 154.67 
M 202.31 193.92 199.64 193.44 196.08 192.1 194.31 192.07 
M 131.31 192.31 132.31 189.04 132.51 188.64 133.03 188.24 
M 102.38 171.86 103.13 170 104.23 168.18 105.46 165 106.5 164.08 108.67 162.72 
M 152.97 146.6 153.65 146.93 155.69 147.34 156.22 147.33 156.8 147.04 
M 189.37 176.23 188.64 175.49 188.48 175.11 188.36 174.23 188.55 173.09 188.31 171.96 
M 107.32 183.71 105.46 185.55 102.05 189.74 99.16 192.77 96.98 194.58 93.6 196.86 91.62 198.57 89.91 200.55 87.68 203.89 86.51 206.28 85.61 208.81 84.89 211.41 84.43 214.06 84.53 216.74 84.85 218.05 85.95 220.53 84.78 218.08 84.37 216.77 84.11 214.04 84.41 211.31 84.98 208.63 85.74 205.98 86.81 203.42 88.9 199.85 90.61 197.61 92.63 195.64 95.87 193.15 97.77 191.37 100.32 188.34 103.52 183.89 105.4 181.79 
M 103.29 184.52 102.2 186.87 101.62 189.28 101.46 191.78 101.71 194.3 103.76 202.08 104.89 207.52 105.3 213.08 105.15 215.88 104.77 218.65 104.12 221.37 102.3 226.56 100.29 231.67 99.02 234.15 97.48 236.46 95.69 238.6 93.64 240.48 91.4 242.11 89 243.49 81.57 246.88 79.18 248.14 74.65 251.08 72.51 252.74 68.54 256.44 66.68 258.42 63.39 262.74 66.62 258.37 68.42 256.33 72.31 252.51 74.41 250.77 78.91 247.67 81.29 246.33 88.6 242.73 90.88 241.34 92.99 239.71 94.9 237.86 96.53 235.78 97.94 233.53 99.08 231.13 100.91 226.07 102.55 220.95 103.09 218.36 103.37 215.74 103.43 213.1 102.89 207.83 101.67 202.66 99.34 194.73 98.97 191.86 99.08 188.93 99.7 186.04 100.81 183.42 
M 103.18 184.85 102.78 185.62 
M 98.98 191.89 95.51 196.36 91.81 200.47 89.81 202.4 87.67 204.19 85.41 205.82 80.67 208.7 78.13 209.87 72.91 211.64 59.73 215.08 54.58 216.66 52.08 217.67 47.23 220.03 44.9 221.38 40.49 224.5 38.47 226.28 36.67 228.28 35.13 230.5 33.88 232.89 32.93 235.43 32.28 238.06 31.8 243.46 32.2 238.04 32.78 235.38 33.66 232.8 34.86 230.34 36.36 228.05 38.14 225.96 40.15 224.09 44.52 220.8 46.85 219.35 51.7 216.81 56.8 214.79 69.88 210.98 74.98 209.29 77.46 208.29 79.83 207.13 82.1 205.75 86.41 202.62 88.38 200.86 92 196.96 95.33 192.77 96.86 190.58 99.59 186.04 100.46 184.22 
M 103.47 184.16 101.56 190.16 
M 99.8 196.49 97.85 205.07 97.03 207.75 95.95 210.35 94.65 212.83 93.13 215.18 91.46 217.38 84.42 225.67 79.73 232.32 73.04 240.87 71.64 243.16 70.47 245.57 69.63 248.11 69.15 250.74 69.04 253.42 69.19 255.54 
M 69.21 255.78 69.66 258.78 71.09 264.01 72.01 266.57 74.21 271.54 71.94 266.6 70.95 264.06 69.36 258.85 68.85 256.13 
M 68.83 255.92 68.57 253.44 68.61 250.69 69.03 247.96 69.82 245.31 70.95 242.8 72.32 240.4 78.78 231.64 83.31 224.83 90.11 216.34 91.66 214.17 93.03 211.91 94.18 209.55 95.12 207.09 95.82 204.55 98.24 192.89 
M 100.85 183.44 100.88 183.33 
M 99.6 182.47 103.18 184.33 
M 105.57 185.43 109.13 186.77 112.79 187.89 116.57 188.82 124.29 190.2 
M 200.51 113.93 210.23 123.65 
M 205.06 111.22 210.6 116.76 
M 209.59 108.5 220.22 119.13 
M 214.15 105.82 223.16 114.83 
M 218.85 103.26 229.09 113.51 
M 223.67 100.84 232.71 109.88 
M 228.61 98.53 237.67 107.59 
M 233.61 96.28 240.98 103.65 
M 238.56 93.98 249.07 104.49 
M 243.82 91.99 251.3 99.47 
M 249.39 90.31 257.13 98.05 
M 255.26 88.94 262.76 96.44 
M 261.69 88.11 270.76 97.18 
M 268.73 87.9 276.91 96.09 
M 275.77 87.69 285.93 97.85 
M 283.9 88.57 293.14 97.82 
M 295.29 92.71 304.12 101.55 
M 309.03 99.21 314.83 105.01 
M 323.2 106.13 328.67 111.6 
M 341.73 117.4 349.23 124.91 
M 358.99 127.42 368.81 137.23 
M 207.51 201.82 208.93 204.67 
M 209.8 200.05 212.23 204.92 
M 211.92 185.26 213.13 187.7 
M 213.06 162.17 214.68 165.41 
M 215.49 167.04 216.3 168.66 
M 217.11 170.28 217.97 172 
M 215.48 160.68 216.29 162.3 
M 219.53 168.78 220.98 171.68 
M 221.18 165.73 222.8 168.97 
M 213.1 143.23 214.72 146.47 
M 222.02 161.06 226.88 170.79 
M 201.77 114.23 209.07 128.82 
M 213.12 136.92 215.55 141.79 
M 222.03 154.75 226.9 164.48 
M 227.71 166.1 229.33 169.34 
M 203.81 111.97 211.51 127.37 
M 216.37 137.09 218 140.33 
M 225.29 154.92 230.15 164.65 
M 231.77 167.89 233 170.34 
M 248.79 201.93 252.04 208.42 
M 206.26 110.51 215.58 129.16 
M 219.63 137.26 223.68 145.37 
M 225.3 148.61 226.11 150.23 
M 226.92 151.85 236.03 170.05 
M 250.38 198.76 251.24 200.48 
M 255.29 208.58 256.91 211.83 
M 208.69 109.04 217.2 126.06 
M 222.07 135.79 226.12 143.89 
M 226.93 145.51 229.36 150.38 
M 231.79 155.24 239.08 169.81 
M 254.13 199.92 254.48 200.63 
M 262.59 216.84 265.02 221.7 
M 211.13 107.57 220.45 126.21 
M 222.88 131.07 230.17 145.66 
M 234.23 153.77 242.19 169.7 
M 265.84 216.98 266.65 218.61 
M 213.58 106.13 213.99 106.94 
M 214.8 108.56 215.61 110.18 
M 216.42 111.81 218.04 115.05 
M 220.47 119.91 224.52 128.01 
M 226.14 131.26 226.95 132.88 
M 227.76 134.5 231.01 140.98 
M 237.49 153.95 239.92 158.81 
M 240.73 160.43 245.25 169.47 
M 266.67 212.31 267.48 213.93 
M 216.07 104.77 216.48 105.58 
M 218.91 110.45 222.15 116.93 
M 228.63 129.9 229.45 131.52 
M 246.47 165.56 247.28 167.18 
M 268.35 209.33 271.59 215.81 
M 220.59 107.47 221.4 109.09 
M 223.02 112.33 225.45 117.19 
M 240.04 146.37 247.34 160.96 
M 272.46 211.21 273.27 212.83 
M 221.09 102.12 221.5 102.93 
M 222.31 104.55 223.93 107.8 
M 226.36 112.66 227.17 114.28 
M 229.6 119.14 236.08 132.11 
M 242.57 145.08 250.67 161.29 
M 223.63 100.86 241.87 137.33 
M 246.73 147.06 254.02 161.65 
M 256.46 166.51 257.23 168.07 
M 226.18 99.61 246.04 139.33 
M 253.33 153.92 257.38 162.02 
M 259.81 166.88 260.26 167.77 
M 286.56 220.38 287.37 222 
M 228.77 98.46 247.82 136.55 
M 250.25 141.42 251.06 143.04 
M 256.73 154.38 259.17 159.25 
M 262.41 165.73 263.34 167.59 
M 231.37 97.31 234.2 102.98 
M 237.45 109.46 250.41 135.4 
M 260.14 154.85 260.95 156.47 
M 265 164.58 266.41 167.39 
M 233.95 96.13 236.79 101.8 
M 240.84 109.9 253 134.22 
M 236.52 94.93 240.17 102.22 
M 243.41 108.7 256.38 134.64 
M 257.19 136.26 260.43 142.74 
M 239.1 93.73 242.74 101.03 
M 245.98 107.51 248.42 112.37 
M 249.23 113.99 263.82 143.17 
M 239.5 88.2 244.77 98.74 
M 248.82 106.84 249.63 108.46 
M 252.06 113.33 262.6 134.4 
M 263.41 136.02 267.46 144.12 
M 269.08 147.37 271.52 152.23 
M 239.59 82.04 248.91 100.68 
M 254.58 112.02 256.21 115.27 
M 257.83 118.51 264.31 131.48 
M 265.93 134.72 268.36 139.58 
M 269.17 141.2 275.66 154.17 
M 276.47 155.79 281.62 166.1 
M 304.02 210.9 305.65 214.15 
M 240.51 77.53 254.29 105.08 
M 256.72 109.95 259.15 114.81 
M 260.77 118.05 267.25 131.02 
M 268.06 132.64 277.79 152.09 
M 278.6 153.71 284.27 165.06 
M 306.97 210.45 308.59 213.69 
M 243.8 77.76 258.38 106.94 
M 259.2 108.56 260.82 111.8 
M 262.44 115.04 268.92 128.01 
M 269.73 129.63 270.54 131.25 
M 273.78 137.74 274.59 139.36 
M 275.4 140.98 279.46 149.08 
M 280.27 150.7 285.94 162.05 
M 309.45 209.06 311.07 212.3 
M 245.29 74.41 263.12 110.07 
M 265.55 114.93 272.04 127.9 
M 276.9 137.62 277.71 139.24 
M 278.52 140.87 280.95 145.73 
M 283.38 150.59 287.44 158.7 
M 242.31 62.11 243.53 64.54 
M 250.01 77.51 258.12 93.72 
M 258.93 95.34 266.22 109.93 
M 267.03 111.55 275.14 127.76 
M 275.95 129.38 278.38 134.24 
M 280 137.48 284.86 147.21 
M 243.6 58.33 246.43 64 
M 255.35 81.83 261.02 93.18 
M 261.83 94.8 277.23 125.6 
M 281.28 133.7 286.96 145.05 
M 288.58 148.29 290.2 151.54 
M 245.01 54.82 250.28 65.35 
M 256.76 78.32 259.19 83.18 
M 260.82 86.43 261.63 88.05 
M 263.25 91.29 281.08 126.95 
M 284.32 133.43 288.37 141.54 
M 289.18 143.16 293.23 151.27 
M 246.73 51.92 252.81 64.08 
M 258.49 75.43 261.73 81.91 
M 266.59 91.64 267.4 93.26 
M 269.02 96.5 281.18 120.81 
M 283.61 125.68 284.42 127.3 
M 286.04 130.54 289.29 137.02 
M 290.91 140.27 292.53 143.51 
M 293.34 145.13 294.15 146.75 
M 303.06 164.58 303.11 164.68 
M 249.23 50.56 255.71 63.53 
M 260.57 73.26 265.44 82.98 
M 268.68 89.47 283.27 118.65 
M 284.08 120.27 287.32 126.75 
M 288.94 129.99 292.18 136.48 
M 293.8 139.72 294.61 141.34 
M 305.96 164.03 306.29 164.68 
M 253.74 53.25 258.6 62.98 
M 262.66 71.08 268.33 82.43 
M 270.76 87.29 289.4 124.57 
M 291.02 127.81 292.64 131.06 
M 293.45 132.68 296.7 139.16 
M 308.85 163.48 309.33 164.42 
M 252.65 44.73 253.87 47.16 
M 256.3 52.02 262.78 64.99 
M 266.03 71.48 271.7 82.82 
M 274.13 87.69 291.96 123.35 
M 293.58 126.59 298.45 136.32 
M 311.41 162.25 312.22 163.87 
M 254.21 41.5 257.04 47.17 
M 259.48 52.03 265.96 65 
M 268.39 69.86 274.06 81.21 
M 274.88 82.83 275.69 84.45 
M 276.5 86.07 300.81 134.7 
M 305.67 144.43 308.92 150.91 
M 313.78 160.64 315.4 163.88 
M 254.89 36.52 259.35 45.43 
M 262.59 51.92 268.26 63.27 
M 270.7 68.13 297.44 121.62 
M 299.06 124.86 303.11 132.97 
M 305.55 137.83 312.03 150.8 
M 316.08 158.9 318.51 163.77 
M 256.48 33.36 262.56 45.52 
M 265.8 52 267.89 56.18 
M 283.81 88.02 298 116.39 
M 302.05 124.49 303.67 127.74 
M 307.72 135.84 317.45 155.29 
M 287.87 89.8 298 110.06 
M 303.68 121.41 306.11 126.27 
M 311.78 137.62 320.7 155.45 
M 291.73 91.17 301.05 109.82 
M 302.67 113.06 309.97 127.65 
M 318.88 145.48 321.32 150.34 
M 295.78 92.92 297.81 96.98 
M 298.62 98.6 305.91 113.19 
M 307.53 116.43 313.2 127.78 
M 322.12 145.61 325.36 152.09 
M 330.22 161.82 331.04 163.44 
M 301.11 97.24 309.21 113.45 
M 310.03 115.07 315.7 126.42 
M 326.23 147.49 328.67 152.36 
M 333.53 162.08 334.34 163.7 
M 304.09 96.86 310.98 110.64 
M 311.79 112.26 317.46 123.61 
M 328 144.68 331.24 151.16 
M 308.25 98.84 319.19 120.72 
M 320 122.34 320.81 123.96 
M 330.54 143.42 332.16 146.66 
M 339.46 161.25 341.05 164.43 
M 312.39 100.78 313.61 103.21 
M 314.42 104.83 324.15 124.29 
M 325.77 127.53 329.01 134.01 
M 330.63 137.25 331.44 138.87 
M 332.25 140.5 334.68 145.36 
M 342.79 161.57 344.28 164.56 
M 318.53 106.72 325.83 121.31 
M 326.64 122.93 337.17 144 
M 344.47 158.59 347.36 164.36 
M 322.79 108.89 326.03 115.37 
M 330.9 125.1 333.33 129.96 
M 335.76 134.83 340.62 144.55 
M 343.05 149.42 343.86 151.04 
M 344.68 152.66 345.49 154.28 
M 346.3 155.9 347.92 159.14 
M 348.73 160.76 349.54 162.38 
M 325.54 108.04 335.27 127.5 
M 339.32 135.6 344.99 146.95 
M 345.8 148.57 350.67 158.29 
M 329.71 110.05 330.12 110.86 
M 330.93 112.48 338.22 127.07 
M 342.28 135.18 348.76 148.14 
M 352.81 156.25 355.24 161.11 
M 334.31 112.9 341.2 126.68 
M 345.25 134.78 350.93 146.13 
M 355.79 155.86 357.41 159.1 
M 338.88 115.7 340.1 118.14 
M 349.02 135.97 352.26 142.45 
M 357.93 153.8 360.36 158.66 
M 361.17 160.28 363.28 164.5 
M 343.41 118.41 343.81 119.22 
M 352.73 137.05 355.16 141.91 
M 359.21 150.02 361.65 154.88 
M 362.46 156.5 366.51 164.61 
M 349.89 125.03 351.51 128.27 
M 355.56 136.37 357.99 141.24 
M 365.29 155.82 367.72 160.69 
M 368.53 162.31 369.5 164.24 
M 357.59 134.09 359.21 137.33 
M 364.07 147.06 365.7 150.3 
M 366.51 151.92 370.06 159.02 
M 357.21 126.98 361.26 135.08 
M 366.93 146.43 370.06 152.68 
M 361.24 128.7 363.27 132.75 
M 369.7 145.62 370.06 146.34 
M 365.68 131.23 368.51 136.91 
"/></svg>