<svg xmlns="http://www.w3.org/2000/svg" width="520" height="320"><rect x="0" y="0" width="520" height="320" fill="floralwhite"/><rect x="10" y="10" width="500" height="300" stroke="black" stroke-width="1" fill="none"/><path stroke="black" stroke-width="1" fill="none" stroke-linecap="round" stroke-linejoin="round" d="
M 162.11 111.1 170.14 105.44 176.13 101.6 188.4 94.39 200.97 87.73 207.37 84.61 213.96 81.93 220.74 79.79 227.66 78.12 234.74 77.42 248.96 76.99 256.08 77.01 263.05 78.45 269.63 81.14 276.05 84.2 282.34 87.53 307.2 101.38 313.25 105.12 336.41 121.67 364.79 140.81 
M 364.79 168.7 346.14 184.03 340.56 188.45 329.06 196.83 323.19 200.85 317.12 204.56 298.49 214.97 291.99 217.86 285.34 220.39 271.83 224.88 264.83 226.1 257.77 227 250.65 227.16 243.54 226.95 229.32 227.24 222.38 225.67 215.64 223.38 209.04 220.72 196.11 214.8 189.54 212.07 183.08 209.07 176.81 205.71 170.77 201.95 153.75 189.38 
M 194.87 138.59 195.72 138.32 
M 254.43 135.68 259.86 135.7 
M 262.47 135.73 266.56 136.09 270.92 136.74 
M 281.8 138.04 284.67 138.49 
M 287.57 138.92 290.52 139.32 
M 293.8 139.98 303.27 142.77 312.91 144.38 320.25 146.32 323.85 147.07 327.13 147.48 336.56 147.87 354.4 146.84 359.62 145.95 362.33 145.67 364.79 145.85 
M 155.6 186.79 157.38 192.11 
M 158.74 180.57 159.82 184.02 
M 160.94 187.51 162.56 192.64 163.43 196.6 
M 161.39 169.16 161.46 169.5 
M 162.22 172.83 163.11 176.27 
M 164.05 179.75 164.99 183.21 
M 166 186.74 167.05 190.28 
M 167.85 193.54 168.3 196.46 
M 168.57 199.19 168.67 200.43 
M 168.92 115.19 168.46 118.23 
M 167.92 121.22 167.63 122.69 166.34 126.74 
M 170.65 182.33 171.82 188.7 
M 172.28 191.75 173.61 200.72 
M 173.27 113.09 173.04 116.29 
M 172.9 119.59 172.73 122.88 
M 171.95 129.06 171.44 132.06 
M 171.07 139.23 171.07 141.5 
M 175.68 169.6 176.09 172.75 
M 176.56 175.95 176.92 179.02 
M 177.19 181.99 177.99 190.78 
M 178.33 193.75 178.8 196.84 
M 179.9 203.09 180.81 207.86 
M 178.71 108.77 178.37 110.11 178.22 111.63 
M 178.2 114.98 178.62 118.77 
M 179.46 126.41 179.82 131.91 179.74 133.54 
M 179.53 136.79 179.2 141.91 
M 182.68 169.24 183.58 172.93 
M 184.73 182.37 184.86 187.94 
M 184.84 190.62 185 193.47 
M 185.38 196.51 186.98 205.86 
M 187.61 209 188.11 211.41 
M 189.14 99.57 188.57 102.36 
M 187.02 107.5 185.68 111.14 185.21 113.98 185.14 115.57 
M 185.13 118.88 185.45 124.22 185.72 126.16 
M 186.24 130.05 186.55 133.75 
M 186.52 137.11 186.3 141.24 
M 191.79 187.59 192.96 199.58 
M 195.38 212.1 195.92 214.72 
M 193.83 114.46 193.34 117.24 
M 192.09 125.84 192.23 129.3 
M 192.45 136.19 192.28 138.59 
M 197.48 175.19 197.85 177.96 
M 198.23 186.78 198.44 189.78 
M 198.67 192.78 199.22 198.78 
M 199.7 201.9 200 203.5 202.32 212.04 
M 203.32 217.78 203.37 218.22 
M 202.46 106.96 202.58 111.97 202.39 116.62 
M 201.99 119.45 201.32 122.01 
M 198.8 129.27 198.35 130.46 197.94 133.34 198.09 135.53 
M 204.63 176.28 204.96 179.07 205.1 184.9 205.58 192.42 
M 205.8 195.43 206.12 198.49 
M 206.61 201.65 208.93 211.55 
M 209.65 216.99 209.58 220.94 
M 209.57 101.45 209.03 105.81 208.99 110.62 
M 208.85 116.9 208.7 119.94 
M 207.51 128.42 206.72 130.87 
M 206.12 133.52 206.04 134.14 
M 212.01 180.28 212.73 186.73 
M 212.9 189.74 213.13 195.62 
M 213.48 198.75 214.71 205.31 
M 215.18 208.32 215.46 211.07 
M 215.62 215.94 215.29 220.1 
M 215.57 222.9 215.66 223.39 
M 217.34 90.37 217.39 93.71 
M 217.45 97.05 217.03 103.16 
M 216.71 106.09 216.39 108.99 
M 215.7 114.71 215.34 120.71 
M 215.28 127.05 214.99 132.57 
M 219.1 180.19 220.42 192.98 
M 220.8 196.2 221.28 202.21 
M 221.5 205.07 221.98 210.59 
M 222.14 215.49 221.57 219.42 
M 224.24 91.86 224.24 98.39 
M 223.32 110.41 222.65 114.53 222.28 118.91 
M 221.95 124.94 222.33 131.29 
M 225.98 178.91 226.1 179.87 
M 226.44 183.11 226.7 186.25 
M 227 189.43 227.79 195.94 
M 228.02 198.98 228.45 207.39 
M 228.62 210.05 228.82 215.04 
M 228.8 217.32 228.95 220.83 229.62 224.76 
M 229.88 109.09 229.38 113.38 229.07 117.83 
M 228.93 120.86 228.78 127.09 
M 232.96 178.84 233.02 179.33 
M 233.79 185.9 234.96 195.66 
M 235.17 198.7 235.31 204.27 
M 235.2 206.76 235.04 211.56 
M 235.13 214.04 235.62 218.01 237.37 227 
M 237.37 86.38 237.91 90.19 
M 238.51 94.05 239.03 99.46 238.75 104.04 
M 238.38 106.88 237.04 113.54 236.64 116.31 236.34 123.97 
M 239.28 178.22 239.58 181.42 
M 239.92 184.66 241.55 193.48 242.01 196.8 242.32 202.64 242.26 205.24 241.66 208.48 
M 241.29 210.59 241.17 211.69 241.5 214.42 241.88 215.97 
M 242.71 219.11 244.64 226.98 
M 245.4 106.37 245.4 107.97 244.78 112.15 
M 243.99 117.71 243.7 122.18 242.91 127.7 
M 244.23 173.24 244.82 178.05 245.75 183.35 
M 246.81 190.19 247.32 196.4 
M 247.6 199.46 248.06 203.97 248.02 211.57 248.56 214.54 250.02 219.57 
M 250.88 222.76 251.64 227.13 
M 251.09 95.07 251.45 98.66 
M 252.28 105.9 252.46 110.88 252.09 115.28 
M 251.84 118.2 251.3 122.44 249.54 128.74 
M 248.9 131.35 248.84 131.61 
M 249.84 174.47 251.94 183.89 252.44 187.28 252.88 196.27 254.65 208.71 255.49 213.33 
M 256.16 216.46 257.18 221.12 257.92 226.98 
M 257.4 82.79 257.36 85.96 
M 258.6 96.82 258.76 98.59 258.73 104.93 259.06 110.04 
M 259.26 116.58 259.11 121.2 258.84 124.12 256 132.65 
M 255.44 134.82 255.23 135.69 
M 254.65 151.62 254.99 154.98 
M 256.2 174.17 258.27 182.12 
M 258.9 185.67 259.07 187.29 259.05 192.99 259.76 200.63 
M 260.26 203.82 262.58 215.17 264.13 226.19 
M 265.36 99.36 265.77 110.82 265.67 115.44 
M 265.51 118.43 264.98 122.66 264.62 123.91 
M 263.13 128.89 262.5 131.52 
M 261.85 134.27 261.49 135.67 
M 260.63 142.33 260.96 145.69 
M 261.94 152.75 262.57 159.46 
M 262.75 162.67 262.81 164.24 
M 262.57 167.35 262.43 169.89 262.59 171.53 
M 263.03 174.95 263.66 178.54 
M 264.35 182.15 265.04 185.75 
M 266.35 195.62 266.84 201.63 
M 267.25 204.73 268.86 212.9 269.6 218.75 270.79 225.06 
M 271.19 92.09 271.56 95.59 
M 271.9 108.42 271.66 115.97 271.4 118.84 270.92 121.52 269.66 126.67 268.4 134.3 
M 269.02 157.15 269.18 160.37 
M 269.27 163.51 269.17 170.97 269.61 174.4 271.37 183.54 
M 271.91 186.98 273.33 202.45 
M 273.69 205.51 274.84 211.96 
M 276.53 221.43 276.97 223.24 
M 277.52 92.13 277.69 95.37 
M 277.57 101.4 277.54 104.46 
M 277.52 107.51 277.46 110.52 
M 277.37 113.51 277 117.79 275.94 123.02 275.55 125.82 274.89 136.13 
M 275.86 155.25 275.96 158.42 
M 276.2 164.8 276.23 169.4 276.47 172.66 278.84 188.3 
M 279.45 194.62 280.22 203.7 
M 281.2 210.08 283.28 221.11 
M 282.98 97.73 282.35 100.13 
M 282.09 105.93 282.53 110.91 282.51 113.93 281.83 117.86 
M 281.24 123.53 281.26 131.52 281.01 137.92 
M 283.93 164.03 284.61 169.32 285.03 174.28 
M 285.02 180.27 285.12 184.8 285.79 189.81 
M 286.27 195.97 286.65 200.55 287.54 205.56 
M 288.17 208.9 289.79 218.7 
M 287.55 102.26 287.43 105.13 
M 287.46 108.14 287.52 111.18 
M 287.64 114.31 288.02 122.35 287.84 128.43 287.97 133.33 
M 290.33 161.71 291.75 169.31 
M 292.32 175.99 292.34 177.52 291.78 185.87 292.17 192.05 292.4 195.12 292.86 198.39 294.57 207.02 
M 295.07 210.24 295.98 216.09 
M 294.26 99.98 293.94 102.58 
M 293.78 105.35 293.71 108.2 
M 293.79 111.21 294.68 119.55 294.83 122.73 294.68 128.75 295.06 133.81 
M 295.35 137.97 295.49 140.42 
M 298.97 173.58 298.97 178.16 298.23 186.37 298.24 192.19 298.62 195.43 299.3 198.94 301.78 209.75 302.33 212.87 
M 300.56 103.25 300.4 105.94 
M 300.35 111.61 300.59 114.73 
M 300.91 117.97 301.52 124.52 
M 301.77 127.77 302.45 133 304.21 140.9 304.33 141.95 
M 304.69 157.44 305.33 162.8 305.41 166.01 305.15 178.1 304.92 182.38 
M 304.74 185.19 304.58 189.45 304.92 194.13 
M 305.47 197.55 307.91 208.41 
M 307.44 115.64 309.53 130.65 311.25 139.72 
M 311.75 142.84 311.94 144.18 
M 311.76 167.64 311.59 173.68 
M 311.76 176.92 311.88 181.61 311.71 196.26 312.06 199.5 313.19 204.61 
M 313.52 116.33 315.14 124.72 316.87 131.95 319.9 143.32 320.56 146.41 
M 320.41 160.53 318.9 170.04 318.56 174.38 
M 318.43 177.34 318.2 181.72 318.36 190.96 318.53 194.12 319.12 198.72 
M 318 108.5 318.37 110.88 
M 319.24 116.76 320.34 121.65 323.25 130.94 
M 324.53 134.78 326.59 140.69 328.15 146.01 
M 328.5 158.75 328.02 163.07 326.59 169.61 
M 326.1 172.3 325.37 179.45 325.48 187.36 
M 325.6 193.65 325.7 195.28 
M 327.95 124.96 333.29 139.56 
M 334.63 143.21 336 147.88 
M 335.9 162.42 335.42 165.21 
M 334.81 167.85 332.7 177.11 332.43 180.08 332.11 190.46 
M 332.36 119.76 334.52 125.98 
M 335.79 129.29 341.02 141.58 342.63 146.12 
M 342.8 152.21 342.88 155.63 
M 343.02 159.12 343.05 160.82 342.62 163.74 340.46 171.65 339.85 174.4 338.14 185.22 
M 340.66 126.82 346.45 138.49 350.16 147.08 
M 349.51 155.08 349.49 158.54 
M 349.25 161.78 349.03 163.31 348.32 166.09 346.63 171.42 344.25 180.13 
M 185.89 184.07 184.71 183.8 182 182.59 180.39 182.46 
M 345.14 140.74 345.84 141.35 346.58 141.35 346.93 141.17 347.38 140.41 347.34 140 347 139.69 
M 218.91 104.6 219.74 103.7 220.78 103.26 221.29 103.32 222.27 103.79 
M 272.1 122.55 271.32 122.54 269.25 121.63 266.16 121.21 265.18 120.73 264.03 119.72 
M 199.87 214.25 197.29 213.3 196.76 213.31 196.67 213.51 
M 202.84 118.25 202.29 119.89 201.62 121.02 200.51 125.44 
M 310.26 150.57 311.24 149.67 312.67 147.67 314.25 146.43 315.78 144.95 316.83 144.22 317.61 143.91 318.14 143.87 
M 201.73 189.75 200.95 189.18 198.25 187.86 197.78 187.89 197.37 188.12 195.98 189.74 
M 296.75 215.52 296.86 215.69 
M 273.56 154.21 274.27 153.95 274.68 153.63 275.82 151.88 276.45 151.35 277.34 151.12 278.39 151.32 
M 322.19 154.69 323.39 153.71 323.71 153.28 324.03 152.37 324.04 151.2 323.15 149.81 
M 299.09 169.17 298.46 171.21 297.39 172.2 
M 311.39 188.76 310.22 188.51 308.73 188.72 306.99 188.73 305.19 189.31 
M 285.75 220.24 284.62 219.04 283.65 218.71 
M 232.99 123.24 234.05 121.74 234.46 121.63 235.91 121.92 
M 179.92 179.79 179.05 180.54 177.55 180.91 176.54 180.96 
M 263.98 112.05 263.54 112.42 262.99 112.44 261.56 111.35 259.98 110.58 
M 220.72 178.27 219.79 179.17 218.62 179.92 215.94 180.67 
M 254.27 107.35 253.41 107.72 250.96 108.34 247.28 108.21 
M 308.72 209.35 307.9 207.53 307.11 204.28 306.84 203.86 306.11 203.37 
M 332.56 179.07 331.52 178.29 329.03 175.22 327.54 174.34 
M 254.34 102.9 252.37 102.62 251.49 102.74 250.02 103.34 248.46 104.43 
M 345.51 165.83 344.51 167.02 342.15 168.68 340.52 170.88 339.11 172.07 
M 329.17 165.39 327.19 164.4 324.97 161.82 322.82 160.36 
M 206.33 214.37 205.76 212.69 204.22 210.05 203.61 209.4 
M 228.27 77 257.61 30 258.25 30.38 231.03 77.61 
M 239.48 76.59 258.83 41.69 259.49 42.04 242.2 77.19 
M 250.75 76.19 264.61 53.47 265.26 53.83 253.49 76.78 
M 262.02 77.62 272.36 66.02 272.95 66.48 264.35 78.98 
M 272.46 81.94 277.76 77.82 278.3 78.34 274.64 83.49 
M 278.9 85.24 279.91 86.15 
M 255.49 35.18 254.84 37.54 254.65 39.83 255.14 42.03 256.89 45.18 
M 257.73 45.62 258.1 48.33 258.87 50.82 260.25 52.99 263.22 55.74 
M 264.05 56.2 264.86 59.17 266.05 61.9 267.82 64.24 271.33 67.18 
M 272.07 67.76 272.62 71.83 273.61 74.23 275.22 76.33 277.23 78.23 
M 277.91 78.88 277.34 80.65 277.2 82.31 277.74 83.81 279.55 85.83 
M 255.13 36.36 254.67 38.7 254.65 39.83 255.14 42.03 256.23 44.14 
M 252.32 42.12 251.92 44.12 251.9 45.1 252.33 46.99 253.26 48.81 
M 249.51 47.87 249.16 50.37 249.51 51.95 250.3 53.47 
M 246.7 53.62 246.42 55.63 246.7 56.91 247.34 58.13 
M 243.89 59.38 243.68 60.9 243.89 61.87 244.37 62.8 
M 257.89 46.99 258.42 49.61 258.87 50.82 260.25 52.99 262.16 54.86 
M 255.19 54 255.59 56.01 255.94 56.94 257 58.6 258.46 60.03 
M 252.48 61.01 252.77 62.41 253.33 63.65 254.76 65.21 
M 264.43 57.71 265.39 60.58 266.05 61.9 267.82 64.24 270.09 66.24 
M 262.01 64.69 262.63 66.55 263.58 68.2 265.68 70.24 
M 166.27 148.31 168.14 147.38 174.53 144.95 177.14 143.76 179.47 143.97 181.45 143.2 188.74 141.76 195.49 138.7 196.41 137.2 199.95 135.2 243.06 127.67 252.55 134.18 253.74 135.28 259.42 141.75 258.32 146.41 257.23 148.3 256.44 150.49 254.48 151.51 253.99 154 254.61 156.03 264.81 166.25 262.77 167.33 260.15 167.59 255.39 168.58 253.71 169.78 251.79 170.74 250.53 172.35 247.91 172.61 244.95 172.53 243.47 173.98 241.34 174.82 239.03 175.47 236.95 176.36 235.48 177.85 231.1 179.54 202.43 176.02 200.66 175.34 198.33 175.51 196.16 174.69 193.49 174.12 192 172.04 189.77 170.41 187.45 169.86 185.06 168.95 182.13 168.26 179.45 167.38 172.34 163.65 163.74 159.61 
M 166.29 149.71 171.94 147.55 175.13 146.73 177.76 146.1 179.92 146.23 181.98 145.09 183.72 144.55 193.1 143.37 197.84 142.2 203.5 139.86 205.21 138.58 
M 166.33 151.38 168.33 151.03 170.49 150.27 172.62 149.82 178.2 148.78 180.34 148.8 182.53 148.16 186.94 148 189.12 147.75 193.5 147.92 195.92 147.34 197.89 145.9 200.36 145.03 203.22 144.58 204.73 144.7 206.19 143.56 208.1 143.56 210.5 142.73 213.87 142.67 216.66 142.03 219.06 142.03 221.56 141.28 223.63 140.01 227.71 138.54 229.03 139.11 230.97 138.84 233.33 137.95 235.99 138.16 238.93 136.89 240.82 135.08 242.9 134.86 
M 166.27 152.98 172.99 151.99 175.52 152.19 180.67 151.71 182.92 151.84 186.62 151.41 189.1 151.41 191.69 151.1 193.83 151.95 195.61 151.75 197.92 151.24 202.73 149.26 204.53 149.54 211.4 148.33 214.1 149.2 220.37 148.83 221.74 148.28 224.35 148.87 226.8 148.85 228.52 148.17 
M 168.61 154.55 173.06 154.29 175.98 154.86 178.39 155.56 180.67 155.66 183.22 155.41 184.87 154.94 189.6 154.86 192.59 155.59 195.2 155.92 197.87 155.79 201.73 154.84 206.4 154.2 211.15 155.13 213.61 155.28 216.99 155.97 219.37 155.83 221.42 155.99 224.3 155.38 227.38 155.73 228.62 155.45 230.44 154.55 238.42 154.52 
M 164.8 155.89 168.39 156.36 170.58 156.36 172.94 156.69 178.37 158.14 182.41 158.6 184.58 158.11 189.65 158.45 192.42 159.27 197.58 160.28 199.82 160.19 201.15 159.81 205.08 159.9 207.45 160.68 210.16 161.32 214.74 162.3 217.87 162.68 220.48 162.65 222.89 163.22 229.81 163.13 
M 168.25 157.99 170.32 158.86 177.61 160.81 179.93 161.01 186.93 162.65 189.47 162.79 191.78 163.22 194.62 164.3 196.89 164.77 198.52 164.67 200.15 164.83 201.83 165.67 204.23 165.57 206.61 166.43 208.53 166.91 210.93 167.93 214.2 168.52 220.62 170 222.15 171.25 224.48 171.88 226.61 172.1 229.69 171.77 
M 164.03 158.68 168.35 159.94 172.43 161.43 175.35 162.71 177.63 163.4 179.04 164.44 181.91 164.85 189.26 167.28 191.53 167.55 196.68 169.15 201.16 171.34 205.31 172.96 208.6 173.76 210.89 174.02 215.83 175.84 
M 222.22 224.76 226.02 234.39 225.35 234.73 219.81 225.98 
M 211.77 220.91 231.04 279.75 230.33 280 209.22 221.79 
M 201.54 216.48 212.11 273.53 211.38 273.68 198.89 217.02 
M 188.71 211.04 188.73 221.4 187.98 221.47 186.02 211.3 
M 224.8 233.86 224.8 242.85 225.24 251.8 226.38 260.67 229.11 273.87 
M 228.22 274.17 224.74 271.86 221.1 269.97 217.23 268.72 211.05 267.82 
M 210.13 268.01 204.18 251.6 199.59 240.93 194.36 230.55 188.72 220.36 
M 224.76 238.36 224.94 247.33 225.72 256.24 226.38 260.67 228.12 269.48 
M 226.49 272.99 222.95 270.84 221.1 269.97 217.23 268.72 213.14 268.05 
M 224.38 267.59 221.19 265.66 219.53 264.87 216.04 263.75 212.36 263.15 
M 222.26 262.2 219.43 260.48 217.95 259.78 214.85 258.79 211.58 258.25 
M 220.15 256.81 216.38 254.69 213.67 253.82 210.81 253.35 
M 218.04 251.41 215.91 250.12 213.66 249.18 210.03 248.45 
M 215.92 246.02 213.23 244.51 211.29 243.89 209.25 243.55 
M 213.81 240.63 211.66 239.42 210.11 238.92 208.47 238.65 
M 208.22 262.51 204.18 251.6 199.59 240.93 197.04 235.71 191.57 225.44 
M 347.81 181.98 350.32 184.32 349.98 184.99 346.61 184.4 
M 339 188.96 341.55 191.44 341.19 192.1 337.72 191.34 
M 329.91 195.56 332.68 198.36 332.29 199 328.52 197.88 
M 320.59 201.83 323.74 205.15 323.32 205.78 319.08 204.07 
M 310.9 207.52 314.62 211.54 314.17 212.14 309.28 209.67 
M 301.1 212.99 305.48 217.99 305 218.56 299.35 215.05 
M 290.93 217.72 295.88 224.11 295.35 224.64 289.01 219.62 
M 280.41 221.62 285.89 229.71 285.32 230.19 278.34 223.35 
M 269.65 224.74 275.29 235.04 274.66 235.45 267.39 226.23 
M 258.59 226.47 263.61 239.51 262.93 239.83 256.15 227.61 
M 247.52 226.47 252.33 242.22 251.63 242.48 244.99 227.41 
M 349.64 184.93 346.08 185.98 344.12 187.23 342.57 189.03 341.29 191.19 
M 340.85 192.03 338.41 192.59 336.23 193.51 334.46 195 332.4 198.08 
M 331.91 198.89 329.47 199.42 327.29 200.32 325.51 201.78 323.43 204.82 
M 322.9 205.61 320.45 206.02 318.26 206.82 316.43 208.2 314.25 211.14 
M 313.68 211.89 311.23 212.33 309.04 213.14 307.21 214.53 305.04 217.49 
M 304.43 218.21 301.94 218.55 299.67 219.27 297.75 220.59 295.39 223.47 
M 294.71 224.13 291 224.57 288.84 225.47 286.99 226.98 285.34 228.9 
M 284.62 229.51 280.78 229.83 278.51 230.66 276.52 232.13 274.72 234.01 
M 273.94 234.53 269.91 234.52 267.45 235.17 265.2 236.48 263.11 238.21 
M 262.25 238.61 258.53 238.01 256.19 238.29 253.97 239.25 251.85 240.65 
M 293.44 224.21 291 224.57 288.84 225.47 287.88 226.16 286.15 227.92 
M 283.31 229.54 280.78 229.83 279.61 230.16 277.48 231.32 275.61 233.04 
M 272.57 234.45 269.91 234.52 268.65 234.76 266.3 235.75 264.15 237.31 
M 261 238.33 258.53 238.01 256.19 238.29 255.07 238.69 252.91 239.92 
M 364.03 140.31 366.45 139.87 368.84 139.03 371.28 137.66 373.35 137.17 375.34 136.15 377.5 134.67 379.48 132.5 384.85 129.22 386.66 128.49 388.77 128.01 390.95 127.93 393.58 125.88 401.79 126.33 403.95 126.2 406.14 126.77 409.67 128.6 411.85 129.48 415.03 130.07 416.68 130.55 418.69 131.38 421.36 132.87 425.64 138.61 427.15 141.98 430.2 146.06 432.26 151.03 432.76 153.16 432.98 155.36 432.53 156.89 432.44 158.85 432.13 160.9 432.62 163.77 431.99 166.2 431.1 168.38 429.93 170.21 428.14 171.38 426.99 173.19 424.29 176.84 422.09 181.01 420.81 182.91 419.2 184.49 417.88 186.34 413.69 188.18 409.32 189.32 404.6 189.81 402.67 190.6 399.64 191.1 392.83 191.26 392.08 189.77 390.94 188.65 388.51 187.95 384.49 184.46 382.83 184.17 380.69 182.54 378.62 180.59 376.46 178.98 374.96 177.31 368.93 172.57 364.03 169.31 
M 371.03 139.17 374.98 138.15 377.46 136.72 379.51 135.07 381.83 133.47 384.31 131.99 385.64 131.66 387.75 130.31 389.97 130.35 391.99 129.7 
M 364.03 143.21 366.81 142.94 371.14 141.16 374.99 139.77 379.74 137.41 382.04 135.65 389.19 133.34 391.29 133.04 393.2 132.09 395.64 131.46 396.66 130.32 398.56 129.46 
M 371.43 143.35 375.33 141.74 377.34 140.51 380.03 139.67 384.63 137.46 386.96 137.24 389.61 136.07 392.03 135.52 395.82 135.25 398.38 134.52 
M 369.32 145.45 373.86 144.78 376.17 143.92 378.36 142.76 380.5 142.04 384.92 139.78 387.36 139.03 392.17 138.02 395.95 138.24 398.52 137.67 401.02 136.87 403.35 135.51 407.04 133.86 
M 371.81 146.93 373.93 146.78 378.8 145.55 381.06 144.35 383.58 143.66 385.68 142.49 388.01 141.77 390.51 141.25 392.66 140.61 394.81 140.77 397.65 140.13 
M 364.03 149.01 366.91 149.07 369.5 148.63 371.83 148.75 376.58 148.52 384.4 146.98 386.76 145.9 389.15 145.43 391.53 145.25 395.49 143.93 397.32 143.49 400.18 143.08 401.92 142.53 404.61 142.06 
M 369.49 150.36 374.32 150.56 379.37 150.3 384.52 149.41 386.71 148.81 391.7 149.19 394.5 147.68 396.69 147.18 399.25 146.91 402.07 147.53 405.7 147.01 408.16 146.32 409.27 145 410.31 144.32 412.52 144.39 415.3 144.18 421.62 145.3 423.5 145.15 425.67 144.27 
M 364.03 151.91 367.14 152.31 372.08 152.05 376.79 152.09 379.18 151.76 382.01 152.14 384.73 152.28 387.25 151.9 391.09 151.58 393.04 151.71 394.91 151.55 396.75 150.81 399.69 150.45 402.69 151.13 406.23 150.73 408.43 150.38 410.41 149.8 411.22 149 412.58 148.38 418.61 149.24 422.07 148.41 
M 367.18 153.97 372.2 153.9 374.96 153.66 379.94 154.31 386.51 154.82 388.56 154.36 390.15 154.57 394.75 154.69 397.33 154.06 402.92 154.7 405.19 153.98 410.1 153.79 411.51 153.13 412.88 153.29 415.1 153.28 418.49 153.91 423.4 153.23 
M 367.19 155.51 369.69 155.69 375.07 155.69 379.85 156.52 387.83 157.46 389.86 158.05 392.68 158.03 396.92 157.59 402.51 158.4 404.04 157.86 406.24 157.92 408.51 157.75 412.78 156.82 419.72 158.23 422.83 158.4 424.78 158.19 426.37 157.51 429.57 157.3 432.14 157.67 
M 372.18 157.89 374.75 157.96 379.42 159.02 386.14 159.92 388.58 159.71 393.66 160.22 397.64 160.21 
M 369.49 159.15 371.78 159.9 374.45 160.12 378.82 161.02 381.12 161.76 386.12 162.68 389.21 162.73 392.01 162.36 395.71 163.73 
M 369.42 160.77 373.88 162.09 378.4 162.89 383.63 164.89 386.04 165.37 388.81 165.58 391.67 165.36 393.49 166.47 397.38 167.38 
M 366.89 161.64 371.71 163.27 373.67 164.15 376.19 164.85 378.56 165.27 380.83 166.7 383.29 167.49 385.64 167.56 391.14 168.24 393.41 168.94 398.67 171.4 401.12 172.14 
M 371.49 165.24 375.98 166.98 378.53 167.63 381.07 168.87 383.78 169.34 385.83 170.06 390.92 170.63 393.21 171.06 395.75 172.44 397.96 174.27 402.06 176.13 405.32 178.28 407.65 179.29 410.18 179.44 412.59 180.5 415.39 181.36 417.27 182.52 419.43 181.84 
M 369.11 166.02 371.09 167.35 376.1 169.04 378.22 170.14 381.37 171.07 384.05 171.61 386.11 173.06 390.11 173.76 392.03 174.77 395.05 176.03 397.24 178 399.84 179.52 402.31 180.01 403.92 180.96 
M 364.03 164.96 369.01 167.83 373.82 170.18 377.88 172.53 382.96 175.19 384.98 175.86 387.56 176.34 389.79 176.47 
M 366.63 168.01 371.39 170.83 377.39 174.65 381.56 178.1 383.81 178.99 386.41 178.64 388.8 179.08 392.07 179.97 393.86 182 
M 366.43 169.48 370.83 172.49 375.6 175.5 378.67 178.4 380.8 180.13 383.18 181.47 387.4 183.18 390.39 183.72 392.05 185.94 394.24 186.37 395.95 187.2 
M 338.8 123.33 340.52 122.63 342.42 122.1 344.55 121.8 346.91 121.73 349.51 121.9 355.35 122.89 358.63 123.74 362.22 124.9 369.65 127.52 372.73 129.21 374.25 130.86 373.95 132.24 372.11 133.17 369.21 133.46 362.97 133.28 360.19 133.53 357.69 134.05 355.62 134.7 
M 342.07 125.2 344.55 124.8 348.21 124.82 
M 350.92 125.1 355.35 125.89 358.63 126.74 367.81 129.87 
M 371.19 131.37 372.94 132.43 
M 95.81 159.49 99.8 151.83 102.11 148.4 105.12 145.22 113.1 139.12 116.88 135.25 121.2 131.31 126.34 127.87 131.9 124.67 137.23 121.72 142.66 118.97 147.96 116.47 157.08 112.92 162.11 111.17 164.26 115.5 164.87 119.73 166.68 128.26 167.3 132.49 167.4 136.67 167.09 144.96 166.1 149.02 165.41 153.11 164.51 157.18 161.92 165.23 161.36 169.34 159.65 177.49 158.4 181.52 156.57 185.49 153.75 189.26 145.13 188.66 138.77 187.82 133.03 186.66 127.8 185.28 123.04 183.8 118.63 182.3 114.43 180.37 110.61 178.37 107.23 176.43 104.32 174.35 102 172.21 
M 140.47 171.61 139.97 173.43 126.07 172.92 122.06 172.52 118.16 171.88 114.43 170.98 110.83 169.4 
M 97.23 167.79 95.1 165.22 92.89 162.17 92.91 160.34 94.38 159.23 96.22 159.57 97.25 161.1 98.59 164.64 102.01 172.2 
M 101.45 172.74 92.97 168.14 88.02 165.26 87.01 163.69 87.6 161.8 89.32 161.04 91.05 161.83 101.91 172.1 
M 118.22 160.13 116.52 153.7 117.01 147.07 119.62 140.96 124.07 136.02 129.88 132.8 136.43 131.64 143 132.67 148.88 135.77 153.43 140.62 156.16 146.68 156.78 153.3 155.21 159.76 151.63 165.37 146.42 169.5 140.15 171.72 133.51 171.79 127.2 169.69 121.91 165.66 118.22 160.13 
M 117.97 159.56 117.16 157.2 116.65 154.75 116.44 152.25 116.54 149.75 116.96 147.28 117.67 144.88 118.67 142.59 119.96 140.44 121.49 138.47 123.26 136.7 125.24 135.16 127.39 133.88 129.68 132.87 132.08 132.16 134.55 131.75 137.05 131.64 139.54 131.85 141.99 132.36 144.36 133.18 
M 119.36 158.99 118.61 156.8 118.13 154.53 117.94 152.22 118.04 149.91 118.42 147.62 119.08 145.4 120.01 143.28 121.2 141.29 122.62 139.46 124.26 137.82 126.09 136.4 128.08 135.21 130.2 134.28 132.42 133.62 134.7 133.24 137.02 133.14 139.33 133.33 141.6 133.81 143.79 134.56 
M 120.75 158.41 120.06 156.4 119.62 154.31 119.44 152.19 119.53 150.06 120.12 147.14 
M 124.9 139.3 126.93 137.64 128.76 136.55 130.71 135.69 132.76 135.08 134.86 134.73 136.99 134.64 139.11 134.82 141.2 135.26 143.21 135.95 
M 122.13 157.84 121.5 156 121.1 154.1 120.94 152.16 121.02 150.22 121.55 147.59 
M 125.9 140.42 127.78 138.88 129.45 137.88 131.23 137.1 133.1 136.55 135.01 136.23 136.96 136.15 138.89 136.31 140.8 136.7 142.64 137.34 
M 123.52 157.27 122.95 155.6 122.59 153.88 122.44 152.13 122.52 150.37 123.02 147.91 
M 127.08 141.36 128.63 140.12 130.14 139.22 131.75 138.51 133.43 138.01 135.17 137.72 136.93 137.65 138.68 137.79 140.4 138.15 142.06 138.72 
M 124.91 156.69 124.4 155.2 123.94 152.1 124.01 150.53 124.52 148.13 
M 127.96 142.59 129.47 141.36 130.82 140.55 133.77 139.47 136.89 139.15 138.46 139.28 141.49 140.11 
M 126.3 156.12 125.85 154.8 125.45 152.07 125.5 150.68 125.98 148.47 
M 128.91 143.76 130.32 142.6 131.51 141.89 134.11 140.93 135.48 140.71 138.25 140.76 140.91 141.5 
M 127.68 155.54 127.29 154.41 126.95 152.03 127 150.84 127.38 149.03 
M 129.91 144.88 131.17 143.84 132.2 143.22 134.45 142.4 135.63 142.2 138.03 142.25 140.34 142.88 
M 129.27 155.15 128.59 152.58 128.82 149.84 
M 131.22 145.94 131.61 145.51 133.93 144.22 136.55 143.76 139.18 144.17 141.53 145.41 143.35 147.35 144.44 149.77 144.69 152.42 144.06 155.01 142.63 157.25 140.55 158.9 138.04 159.79 135.38 159.82 132.86 158.98 130.74 157.37 129.27 155.15 
M 131.67 145.47 131.38 146.06 
M 129.34 150.14 128.67 151.48 
M 133.23 144.61 132.17 146.72 
M 130.33 150.4 128.81 153.44 
M 134.61 144.1 132.87 147.57 
M 131.34 150.64 129.2 154.91 
M 135.84 143.88 133.57 148.42 
M 132.31 150.94 129.81 155.96 
M 137 143.83 134.28 149.27 
M 133.28 151.26 130.45 156.92 
M 138.04 143.99 135 150.07 
M 134.32 151.43 131.19 157.7 
M 139.09 144.15 135.79 150.74 
M 135.44 151.44 132 158.32 
M 139.99 144.6 136.59 151.4 
M 136.56 151.46 132.82 158.95 
M 140.88 145.07 133.77 159.28 
M 141.73 145.62 134.74 159.6 
M 142.46 146.41 135.76 159.81 
M 143.2 147.19 136.89 159.8 
M 143.77 148.29 138.02 159.79 
M 144.31 149.47 139.39 159.31 
M 144.58 151.19 140.84 158.67 
M 144.32 153.96 142.83 156.93 
M 96.18 158.71 98.97 161.5 
M 97.73 155.76 100.54 158.56 
M 99.29 152.81 102.11 155.63 
M 101.01 150.03 104.91 153.92 
M 102.98 147.49 107.41 151.92 
M 105.17 145.18 108.75 148.76 
M 107.72 143.22 110.15 145.65 
M 110.27 141.27 112.62 143.62 
M 112.83 139.33 115.63 142.12 
M 115.09 137.08 118.95 140.94 
M 117.34 134.83 120.82 138.31 
M 119.7 132.68 122.26 135.25 
M 122.18 130.66 125.73 134.21 
M 124.87 128.85 128.9 132.87 
M 127.64 127.12 130.01 129.48 
M 130.5 125.47 134.85 129.82 
M 133.38 123.85 137.64 128.1 
M 136.28 122.24 140.04 126 
M 139.24 120.7 143.66 125.12 
M 142.24 119.19 144.57 121.52 
M 145.29 117.73 149.37 121.82 
M 148.36 116.31 151.04 118.98 
M 151.59 115.04 153.93 117.37 
M 154.84 113.78 159.09 118.03 
M 158.12 112.55 161.89 116.33 
M 161.45 111.38 162.94 112.87 
M 104.76 166.79 105.89 164.46 107.64 162.74 107.98 161.03 108.39 160.17 
M 164.7 118.55 163.98 117.97 162.66 116.48 161.61 114.73 161.62 111.35 
M 98.7 164.87 98.97 164 100 162.93 101.34 162.07 105.74 158.58 
M 104.36 160.79 106.19 158.88 106.88 158.49 108.92 157.77 109.75 157.05 110.27 155.79 110.32 155.03 110.17 153.18 109.91 152.28 
M 157.14 144.92 156.98 145.49 156.2 146.28 
M 131.09 170.98 130.98 171.96 130.55 172.53 130.21 172.58 
M 149.56 169.14 147.58 168.58 
M 136.43 171.76 136.1 172.5 135.49 172.85 132.67 173.25 
M 96.73 160.33 99.08 159.23 100.58 157.82 100.95 157.74 101.15 157.93 
M 116.52 148.94 116.87 148.99 
M 100.69 154.69 101.85 156.17 102.81 156.87 103.15 157.41 
M 108.8 157.27 109.61 156.65 110.06 155.48 109.94 152.87 109.25 151.32 108.82 150.99 108.08 150.82 107.41 151.06 
M 129.37 185.7 128.82 185.28 128.56 184.26 128.72 182.49 129.36 179.83 
M 156.3 155.26 157.17 154.87 158.61 154.84 159.07 154.67 
M 99.37 164.41 99.65 163.66 100.24 162.97 105.28 158.88 106.69 158.2 108.27 157.72 
M 160.32 139.2 159.85 139.39 159.3 140.04 159.17 141.9 
M 162.79 154.41 161.87 154.38 160.23 154.75 159.84 154.4 159.39 153.2 
M 159.89 121.55 160.6 120.84 160.93 120.16 161.09 119.07 160.82 117.66 
M 159.16 164.19 158.22 163.83 158.1 163.62 
M 114.41 180.36 114.35 179.78 
M 138.08 184.57 136.93 185.12 134.22 186.9 
M 153.51 178.86 153.08 178.2 152.11 177.39 150.45 176.88 149.71 177.06 148.13 178.04 
M 135.72 186.58 134.86 187.03 
M 161.61 147.57 159.98 148.27 158.35 149.61 157.95 150.65 158.22 151.9 
M 115.53 166.69 115.47 165.81 114.79 164.88 
M 159.31 172.81 158.59 172.76 158.18 172.58 158.2 172.27 158.52 171.96 
M 98.63 164.73 98.9 164.01 100.47 162.59 
M 112.25 174.8 111.45 173.47 110.8 170.47 110.27 169.5 109.34 168.85 107.57 166.81 107.38 166.16 107.54 165.35 
M 157.44 166.04 158.17 165.87 158.38 164.22 
M 157.26 117.97 158.35 117.01 158.75 116.29 159.72 113.66 160.61 112.36 160.76 111.61 
M 154.49 138.27 158.09 141.05 158.85 142.52 
M 132.78 129.22 134.16 129.14 135.86 129.53 136.58 130.33 136.77 130.86 136.75 131.69 
M 162.32 164 158.83 163.57 
M 135.38 186.08 134.06 186.87 
M 149.09 124.81 147.81 122.88 147.35 122.48 144.83 121.08 
M 99.66 162.85 101.8 161.49 105.46 158.67 108.96 157.36 109.74 156.64 
M 143.53 182.59 141.44 180.62 140.65 178.94 140.78 178.23 141.21 177.62 143.05 176.03 143.84 174.85 144.09 174.21 
M 101.66 171.37 104.34 168.39 105.01 167.06 
M 114.25 162.69 114.71 163.75 114.62 164 114.34 164.06 
M 116.71 170.03 117.59 169.22 
M 145.87 179.32 146.68 181.32 
M 157.49 134.2 157.37 134.74 157.62 135.4 159.1 136.39 159.08 137.52 
M 106.94 176.22 106.41 175.31 105.58 174.61 
M 137.83 183.79 135.78 184.62 132.3 186.47 
M 119.43 167.79 120.98 167.25 122.69 166.98 123.25 166.68 
M 97.32 170.53 100.69 173.16 103.04 174.66 105.49 175.99 110.61 178.37 
M 164.65 118.21 165.38 118.94 
M 162.96 110.51 168.61 116.16 
M 166.48 108.03 173.48 115.02 
M 170 105.54 178.63 114.16 
M 173.65 103.18 178.24 107.77 
M 177.32 100.85 183.36 106.89 
M 181.06 98.58 188.67 106.19 
M 184.86 96.38 192.17 103.69 
M 188.72 94.23 195.54 101.05 
M 192.67 92.18 201.23 100.74 
M 196.61 90.11 205.39 98.89 
M 200.5 87.99 206.9 94.39 
M 204.4 85.89 211.12 92.61 
M 208.6 84.08 217.19 92.68 
M 212.81 82.29 221.54 91.01 
M 217.38 80.85 225.3 88.77 
M 222 79.47 226.89 84.36 
M 226.85 78.31 232.1 83.57 
M 232.1 77.56 240.4 85.86 
M 237.82 77.27 244.99 84.44 
M 243.71 77.16 250.96 84.41 
M 249.52 76.96 255.19 82.64 
M 255.44 76.88 263.94 85.37 
M 263.01 78.44 271.34 86.77 
M 273.47 82.9 278.23 87.66 
M 286.47 89.89 295.16 98.58 
M 299.86 97.28 305.81 103.23 
M 314.76 106.17 319.78 111.19 
M 335.92 121.32 343.4 128.8 
M 354.63 134.02 362.91 142.31 
M 181.65 207.08 182.5 208.79 
M 181.55 201.62 185.98 210.49 
M 181.45 196.17 189.36 211.99 
M 181.38 190.79 192.67 213.36 
M 182 186.77 195.99 214.74 
M 182.62 182.75 199.44 216.38 
M 183.24 178.74 202.88 218.02 
M 183.85 174.71 206.27 219.53 
M 184.46 170.67 209.61 220.97 
M 186.51 169.5 212.95 222.38 
M 189.56 170.36 216.17 223.58 
M 194.14 174.26 219.39 224.77 
M 197.17 175.07 222.49 225.7 
M 199.96 175.39 225.45 226.37 
M 185.39 141.01 186.04 142.29 
M 202.93 176.08 227.02 224.26 
M 184.65 134.26 188.43 141.82 
M 205.73 176.42 224.26 213.49 
M 185.29 130.29 190.63 140.97 
M 208.53 176.77 222.22 204.15 
M 184.6 123.65 192.77 139.99 
M 211.33 177.11 221.53 197.51 
M 183.24 115.67 194.89 138.98 
M 214.13 177.45 221.51 192.21 
M 183.89 111.71 196.58 137.1 
M 216.93 177.8 221.48 186.91 
M 183.89 106.47 198.61 135.91 
M 219.73 178.14 221.49 181.67 
M 184.59 102.6 200.81 135.05 
M 184.61 97.39 203.22 134.63 
M 186.31 95.54 205.64 134.21 
M 188.37 94.41 208.06 133.78 
M 190.46 93.33 210.47 133.36 
M 192.54 92.24 212.89 132.94 
M 194.63 91.16 215.31 132.52 
M 196.7 90.06 217.72 132.1 
M 198.77 88.93 220.14 131.67 
M 200.83 87.81 222.56 131.25 
M 202.9 86.68 224.97 130.83 
M 271.05 222.98 271.97 224.83 
M 205 85.63 227.39 130.41 
M 263.75 203.13 274.24 224.11 
M 207.16 84.7 227.64 125.66 
M 262.55 195.48 276.51 223.39 
M 209.32 83.77 227.79 120.7 
M 262.7 190.52 278.77 222.67 
M 211.49 82.84 227.93 115.74 
M 263.52 186.91 281.02 221.92 
M 213.7 82.01 228.13 110.88 
M 264.39 183.4 283.26 221.13 
M 215.97 81.3 227.72 104.79 
M 265.32 179.99 285.49 220.34 
M 218.24 80.58 225.96 96.02 
M 266.24 176.59 287.72 219.55 
M 220.51 79.86 222.19 83.22 
M 267.17 173.19 289.92 218.69 
M 267.49 168.57 292.11 217.81 
M 268.49 165.32 294.29 216.92 
M 268.82 160.73 296.48 216.04 
M 269.87 157.57 298.55 214.94 
M 269.71 151.99 300.62 213.81 
M 269.81 146.95 302.68 212.68 
M 269.92 141.9 304.74 211.55 
M 269.35 135.51 306.8 210.41 
M 269.45 130.46 308.86 209.28 
M 269.56 125.42 308.5 203.3 
M 269.66 120.37 306.59 194.23 
M 269.77 115.32 306.69 189.18 
M 269.2 108.94 306.8 184.13 
M 265.95 97.18 306.9 179.09 
M 265.38 90.79 307.68 175.38 
M 266.15 87.08 307.78 170.34 
M 266.93 83.38 307.89 165.29 
M 267.71 79.68 307.99 160.25 
M 266.47 71.94 308.09 155.2 
M 266.99 67.73 307.95 149.65 
M 269.93 68.37 272.51 73.51 
M 274.8 78.09 277.3 83.11 
M 278.46 85.41 308.33 145.17 
M 282.07 87.38 308.59 140.42 
M 285.74 89.48 309.58 137.15 
M 289.41 91.55 309.88 132.51 
M 293.04 93.56 310.16 127.8 
M 296.67 95.57 310.44 123.1 
M 300.26 97.49 310.67 118.3 
M 303.84 99.41 310.22 112.16 
M 307.57 101.6 309.92 106.3 
M 351.3 173.29 353.6 177.89 
M 346.68 158.8 355.45 176.35 
M 346.1 152.39 357.32 174.82 
M 344.74 144.41 359.18 173.29 
M 345.16 140 361.04 171.76 
M 345.49 135.41 362.9 170.24 
M 345.41 130 364.77 168.71 
M 345.98 125.88 347.12 128.17 
M 347.69 129.29 366.64 167.19 
M 346.51 121.67 351.11 130.87 
M 351.68 132.01 368.5 165.67 
M 348.85 121.11 355.09 133.59 
M 355.66 134.73 370.37 164.14 
M 351.65 121.44 357.59 133.33 
M 359.6 137.36 372.24 162.62 
M 354.54 121.98 359.96 132.82 
M 363.54 139.98 372.45 157.79 
M 357.53 122.7 362.47 132.57 
M 367.48 142.61 372.45 152.54 
M 360.62 123.63 365.07 132.53 
M 371.42 145.23 372.45 147.28 
M 363.78 124.7 367.75 132.63 
M 366.97 125.82 370.36 132.59 
M 370.23 127.09 372.74 132.11 
"/></svg>