<svg xmlns="http://www.w3.org/2000/svg" width="520" height="320"><rect x="0" y="0" width="520" height="320" fill="floralwhite"/><rect x="10" y="10" width="500" height="300" stroke="black" stroke-width="1" fill="none"/><path stroke="black" stroke-width="1" fill="none" stroke-linecap="round" stroke-linejoin="round" d="
M 148.2 124.37 152.7 122.55 164.36 118.98 176.39 116.97 188.5 115.51 200.5 113.32 212.54 111.34 224.67 110.13 236.86 109.61 249.05 109.46 261.25 109.66 285.64 109.44 297.81 110.22 309.93 111.62 322.02 113.22 334.04 115.32 369.58 123.98 381.31 127.34 392.52 132.15 399.41 137.69 
M 399.41 183.47 393.88 187.75 382.4 191.89 370.55 194.75 358.58 197.08 346.71 199.89 334.9 202.94 322.89 205.08 310.74 206.11 298.55 206.62 286.36 206.9 274.16 206.78 261.97 207.13 237.66 209.15 225.46 209.02 213.36 207.53 201.46 204.84 189.76 201.4 178.17 197.61 166.39 194.45 158.21 193.18 
M 174.56 149.5 175.76 149.7 
M 257.27 146.73 258.77 146.18 262.34 145.67 268.11 145.34 
M 271.76 144.93 276.74 143.95 280.22 143.48 284.2 143.55 286.37 143.81 
M 290.64 144.28 294.65 144.5 
M 298.3 144.39 303.64 144.11 315.2 144.4 319.22 144.66 329.3 147.02 334.09 147.86 344.66 148.38 
M 349.25 148.87 356.55 149.99 361.09 150.36 375.74 150.36 
M 379.74 150.26 385.5 149.95 389.37 149.93 399.41 150.73 
M 153.1 123.34 151.78 124.77 150.33 126.04 
M 170.95 176.85 172.68 179.71 
M 177.99 188.1 180.3 191.92 
M 182.31 195.43 184.17 198.78 
M 180.85 127.44 180.19 129.5 178.59 133.37 176.51 136.77 174.08 139.82 172.73 141.22 
M 169.99 143.98 167.46 146.55 
M 186.53 184.77 188.97 188.94 
M 196.13 202.84 196.4 203.35 
M 205.48 116.78 204.19 118.2 202.64 119.38 
M 196.14 123.75 194.47 124.81 193 126.07 
M 188.79 132.77 188.04 134.75 187.09 136.54 
M 183.04 143.45 179.72 149.62 
M 196.69 183.66 201.54 192.3 204.31 197.73 
M 208.11 205.02 208.91 206.52 
M 212.84 121.99 211.68 123.56 210.28 124.9 
M 203.83 129.39 202.09 130.39 200.51 131.55 
M 197.69 134.21 196.45 135.71 193.18 143.42 190 149.29 
M 210.09 186.85 219.08 203.34 
M 220.95 206.97 221.77 208.57 
M 222.35 124.42 219.41 129.76 216.84 132.7 213.78 135.15 210.88 137.76 209.55 139.19 
M 229.21 199.65 231.12 203.31 
M 233.11 207.04 234.25 209.11 
M 236.4 120.51 234.2 123.87 
M 230.46 131.23 228.69 135.02 
M 224.31 141.76 219.35 147.54 
M 237.68 192.01 246.47 208.48 
M 249.22 121.09 248.06 122.71 244.17 127.22 
M 239.56 133.8 237.49 137.33 
M 233.92 144.96 232.66 147.74 
M 248.4 189.63 253.2 199.19 257.68 207.52 
M 261.62 120.8 257.36 124.98 254.8 128.05 253.65 129.71 
M 251.38 133.08 249.07 136.42 
M 246.77 139.75 245.66 141.46 243.81 145.24 243.02 147.29 
M 259.52 190.42 261.61 194.27 
M 263.89 198.29 266.11 202.24 
M 279.47 114.6 276.2 119.75 274.94 121.3 
M 268.79 126.46 263.89 130.06 262.45 131.46 
M 259.71 134.39 258.41 135.93 256.02 139.22 254.03 142.9 252.47 147.07 
M 270.59 189.98 272.19 192.59 
M 274.88 197.06 280.09 206.84 
M 285.39 119.94 279.99 125.88 
M 277.22 128.8 271.62 134.62 
M 268.73 137.45 264.25 141.55 260.7 145.83 
M 281.54 188.29 283.14 191.16 
M 285.5 195.32 287.9 199.5 
M 295.28 118.76 292.69 121.85 
M 290.12 124.98 286.25 129.68 282.16 134.2 
M 279.27 137.06 274.99 141.42 272.39 144.86 
M 293.25 187.43 304.11 206.39 
M 304.46 117.26 295.49 131.12 
M 293.03 134.41 291.74 136.01 288.85 138.89 284.46 142.47 
M 304.87 184.2 307.42 188.72 
M 309.42 192.51 316.03 205.66 
M 313.4 121.92 311.97 123.33 309.35 126.41 308.16 128.09 
M 305.77 131.43 300.9 138.1 
M 297.92 142.15 296.15 144.52 
M 317.77 183.38 322.14 191.57 327.12 201.86 
M 327.34 121.14 320.63 128.8 314.15 136.68 
M 311.45 139.75 307.51 144.24 
M 329.42 180.87 337.33 194.85 
M 339.11 197.78 339.95 199.15 
M 339.86 124.41 332.72 131.91 327.68 138.59 324.63 141.37 319.73 144.74 
M 340.87 177.59 345.52 184.94 352.22 194.7 
M 354.41 123.09 352.2 126.78 
M 349.73 130.24 343.04 138.4 339.16 143.44 
M 336.49 146.55 335.09 147.96 
M 352.65 173.45 355.08 176.9 
M 357.04 179.72 360.1 183.96 366.05 191.68 
M 369.93 124.08 364.71 129.75 
M 362.04 133.02 360.76 134.72 358.5 138.43 356.07 141.99 353.09 145.01 348.42 148.71 
M 364.33 168.98 379.86 188.13 
M 379.63 131.03 376.97 134.24 
M 374.35 137.52 367.47 145.53 363 150.38 
M 369.8 158.14 370.74 159.21 
M 375.97 164.99 390.31 180.51 
M 392 182.33 392.63 183.01 
M 394.21 136.66 388.95 139.89 385.62 142.29 379.42 147.66 376.03 150.36 
M 382.95 156.75 388.73 162.02 
M 391.9 164.9 394.93 167.65 
M 397.73 170.18 399.41 171.68 
M 284.36 146.47 286.75 146.77 288.53 147.35 290.57 147.08 
M 229.02 204.17 228.79 205.03 228.83 205.49 229.05 205.88 229.71 206.33 
M 354.77 122.74 355.02 122.27 355.31 122.07 357.1 121.78 357.92 121.23 
M 189.38 144.64 187.41 146.19 186.15 147.69 
M 339.3 191.72 337.98 191.58 335.08 190.82 331.44 188.77 330.11 188.62 
M 223.37 119.02 221.51 119.56 216.46 121.64 215.2 122.4 213.45 124.08 211.07 125.67 210.06 126.93 
M 399.41 174.31 398.5 173.06 397.12 171.68 391.66 167.44 
M 337.44 149.2 338.93 148.97 339.96 148.53 340.25 148.1 340.15 146.95 
M 276.93 118.21 275.14 117.29 274.39 116.47 273.19 111.61 273.34 109.57 
M 270.54 194.36 269.32 194.86 267.25 196.31 265.05 196.89 
M 231.47 128.67 230.7 128.82 229.02 129.67 226.7 131.04 226.25 131.51 225.08 132.25 224.61 132.32 223.7 131.89 
M 185.94 128.62 187.02 128.13 188.75 127.77 190.43 127.21 192.96 127.73 193.44 128.24 
M 315.65 134.85 314.79 133.57 311.28 131.05 308.12 129.78 
M 326.02 198.75 325.6 197.76 325.42 196.52 326.23 193.73 326.15 192.78 325.94 192.54 
M 356.63 191.06 354.22 191.26 351.56 191.19 349.67 191.75 349.08 192.15 348.7 192.75 347.66 195.17 
M 374.16 138.17 373.6 137.44 372.32 136.85 371.13 136.05 370.06 134.83 
M 332.62 121.93 332.7 122.62 332.54 124.03 333.13 126.5 
M 294.08 116.83 293.47 118.3 293.2 118.65 292.49 119.03 291.04 119.04 288.81 118.51 286.49 118.5 
M 329.35 135.68 331.85 136.92 333.1 137.14 
M 377.72 144.18 376.14 139.51 375.01 137.38 374.37 136.7 373.05 136.38 
M 165.08 186.5 164.28 186.87 164.1 188.17 
M 173.34 180.55 171.92 179.61 170.32 178.82 167.65 177.76 
M 366.9 123.35 367.89 124.38 
M 205.34 199.93 203.97 199.07 202.34 197.75 201.99 197 202.16 195.87 
M 234.52 199.66 237.6 196.17 238.46 194.26 239 193.44 
M 238.2 147.5 237.37 146.78 236.66 146.44 235.4 146.36 234.51 146.62 234.06 147.16 233.86 147.7 
M 307.94 137.74 304.69 137.8 303.59 138.31 302.86 139.23 
M 268.54 200.15 269.51 200.1 270.63 200.5 272.79 202.38 274.23 203 274.85 203.05 275.72 202.63 
M 176.45 116.65 178.22 116.73 
M 191.02 114.67 193.7 72.01 194.68 72.04 194.54 114.41 
M 205.48 112.01 209.59 56.67 210.57 56.72 209.01 111.81 
M 220.08 110.1 228.79 52.43 229.76 52.56 223.62 110.2 
M 234.79 109.28 249.29 42.28 250.25 42.47 238.32 109.57 
M 249.5 109.09 265.69 47.31 266.64 47.54 253.01 109.53 
M 264.2 109.29 279.43 52.7 280.38 52.93 267.72 109.74 
M 278.91 108.96 297.25 46.11 298.2 46.37 282.43 109.43 
M 293.63 109.43 316.22 49.29 317.14 49.62 297.11 110.17 
M 308.28 110.93 328.64 65.59 329.54 65.97 311.71 111.85 
M 322.89 112.8 341.26 77.55 342.14 77.98 326.29 113.83 
M 337.38 115.5 352.22 91.98 353.07 92.46 340.66 116.82 
M 346.88 117.86 348.38 118.79 
M 178.89 116.65 183.26 108.19 185.29 103.84 187.14 99.42 188.76 94.92 190.16 90.35 191.37 85.7 193.43 76.28 
M 194.66 76.32 198.77 74.08 200.69 72.83 202.46 71.43 204.08 69.86 205.53 68.12 206.83 66.24 209.18 62.2 
M 210.42 62.26 214.59 62.59 216.63 62.56 218.63 62.34 220.58 61.89 222.47 61.21 224.32 60.33 227.92 58.2 
M 229.15 58.36 233.87 57.4 236.14 56.75 238.32 55.91 240.4 54.87 242.37 53.62 244.25 52.19 247.84 48.98 
M 249.05 49.22 252.05 51.38 253.59 52.27 255.2 52.97 256.87 53.45 258.6 53.7 260.39 53.75 264.07 53.49 
M 265.27 53.77 267.65 55.98 268.9 56.9 270.23 57.63 271.63 58.13 274.67 58.52 277.9 58.36 
M 279.1 58.65 283.18 58.44 285.15 58.15 287.04 57.67 288.86 56.98 290.59 56.07 292.24 54.96 295.42 52.4 
M 296.61 52.72 300.28 54.54 302.14 55.26 304.04 55.78 305.96 56.07 307.93 56.12 309.92 55.98 313.96 55.3 
M 315.13 55.71 316.69 59.7 317.62 61.57 318.72 63.32 319.99 64.92 321.45 66.38 323.07 67.7 326.6 70.12 
M 327.74 70.6 329.5 73.86 330.5 75.35 331.65 76.69 332.94 77.86 334.4 78.85 335.99 79.69 339.42 81.08 
M 340.54 81.61 341.82 85.23 342.61 86.91 343.56 88.47 344.7 89.89 346.01 91.15 347.48 92.29 350.73 94.33 
M 351.81 94.94 349.69 99.96 348.82 102.5 348.15 105.07 347.71 107.69 347.5 110.34 347.49 113.03 347.85 118.46 
M 196.74 75.23 200.69 72.83 202.46 71.43 204.08 69.86 205.53 68.12 208.04 64.25 
M 197.32 81.91 200.57 79.93 202.03 78.77 204.56 76.05 206.63 72.85 
M 197.89 88.59 200.45 87.03 202.65 85.1 203.6 83.97 205.23 81.46 
M 198.46 95.28 201.17 93.47 202.63 91.9 203.82 90.06 
M 212.51 62.47 216.63 62.56 218.63 62.34 220.58 61.89 222.47 61.21 226.13 59.3 
M 212.8 69.29 216.34 69.37 218.06 69.18 221.36 68.21 224.51 66.57 
M 213.08 76.11 216.05 76.18 217.49 76.02 220.25 75.21 222.88 73.84 
M 213.36 82.94 215.75 82.99 216.91 82.86 219.14 82.21 221.26 81.1 
M 213.65 89.76 215.46 89.81 217.19 89.51 219.64 88.37 
M 231.52 57.91 236.14 56.75 238.32 55.91 240.4 54.87 242.37 53.62 246.07 50.62 
M 231.2 65.2 235.16 64.2 238.83 62.59 240.52 61.51 243.7 58.93 
M 230.87 72.49 234.19 71.65 235.76 71.05 238.68 69.4 241.34 67.24 
M 230.54 79.78 233.21 79.1 234.48 78.62 236.83 77.29 238.97 75.55 
M 230.21 87.07 232.24 86.56 234.11 85.73 236.61 83.86 
M 250.54 50.34 253.59 52.27 255.2 52.97 256.87 53.45 258.6 53.7 262.22 53.66 
M 249.76 57.25 252.46 58.96 253.88 59.57 255.35 59.99 256.88 60.21 260.07 60.18 
M 248.98 64.16 251.32 65.64 252.55 66.18 255.16 66.73 257.93 66.7 
M 248.2 71.07 250.19 72.32 251.23 72.78 253.44 73.25 255.79 73.22 
M 247.42 77.97 249.91 79.38 251.72 79.77 253.65 79.75 
M 246.65 84.88 248.59 85.98 250 86.28 251.51 86.27 
M 266.44 54.91 268.9 56.9 270.23 57.63 271.63 58.13 273.11 58.43 276.27 58.48 
M 265.34 62.57 267.45 64.28 268.59 64.9 271.08 65.59 273.79 65.64 
M 264.24 70.23 266.01 71.66 267.97 72.55 269.04 72.76 271.31 72.79 
M 263.13 77.88 264.56 79.04 265.33 79.46 267 79.92 268.83 79.95 
M 262.03 85.54 263.11 86.41 264.31 86.96 266.36 87.11 
M 281.16 58.58 285.15 58.15 287.04 57.67 288.86 56.98 290.59 56.07 293.84 53.72 
M 280.05 65.72 283.48 65.35 285.11 64.94 288.16 63.56 290.96 61.54 
M 278.95 72.86 281.82 72.55 283.19 72.2 285.74 71.05 288.08 69.36 
M 277.84 80 280.16 79.75 281.26 79.47 283.31 78.54 285.2 77.18 
M 276.74 87.13 278.49 86.94 280.12 86.43 282.32 84.99 
M 298.44 53.67 302.14 55.26 304.04 55.78 305.96 56.07 307.93 56.12 311.93 55.68 
M 297.21 60.21 300.49 61.61 302.16 62.07 303.86 62.32 305.6 62.37 309.14 61.98 
M 295.99 66.75 298.83 67.97 301.76 68.58 303.27 68.63 306.34 68.29 
M 294.77 73.29 297.18 74.32 298.41 74.66 300.94 74.88 303.54 74.59 
M 293.54 79.83 296.53 80.95 298.61 81.13 300.74 80.9 
M 292.32 86.37 294.65 87.24 296.28 87.39 297.95 87.2 
M 315.88 57.73 317.62 61.57 318.72 63.32 319.99 64.92 321.45 66.38 324.8 68.94 
M 314.02 65.16 315.52 68.47 316.46 69.97 318.81 72.6 321.7 74.8 
M 312.16 72.6 313.42 75.36 315.12 77.77 316.17 78.82 318.59 80.66 
M 310.3 80.03 311.32 82.26 311.95 83.27 313.53 85.04 315.48 86.53 
M 308.44 87.46 309.69 89.92 310.9 91.26 312.37 92.39 
M 328.59 72.26 330.5 75.35 331.65 76.69 332.94 77.86 334.4 78.85 337.68 80.41 
M 326.6 79.32 328.17 81.87 329.12 82.97 331.39 84.75 334.09 86.04 
M 324.6 86.38 325.84 88.39 327.43 90.01 328.38 90.66 330.51 91.67 
M 322.61 93.43 324.06 95.54 325.37 96.56 326.92 97.31 
M 341.15 83.44 342.61 86.91 343.56 88.47 344.7 89.89 346.01 91.15 349.08 93.34 
M 337.84 94.48 338.79 96.73 339.41 97.75 341 99.49 342.99 100.91 
M 163.18 150.42 176.62 149.67 185.55 149.36 188.42 149.52 191.24 149.43 200.2 147.87 203.05 148.04 209.06 147.41 211.95 147.35 215.11 147.56 218.61 147.56 224.29 147.38 230.53 147.84 235.97 147.68 241.82 147.27 245.02 147.33 250.63 147.01 259.78 147.13 262.79 146.8 268.39 147.41 283.86 147.21 287.2 147.53 290.29 148.04 295.73 148.45 298.33 148.9 301.11 149.16 304.55 149.88 311.1 150.35 313.15 150.12 325.08 152.43 330.52 153.01 336.34 153.13 339.43 153.51 342.92 154.11 346.43 155.2 352.49 156.56 356.74 156.31 359.38 156.66 362.66 157.22 365.73 157.94 375.11 160.43 381.73 161.19 385.51 161.85 366.42 168.13 360.82 170.25 358.28 171.57 355.48 172.64 352.48 173.5 347.07 175.55 344.24 176.39 341.66 177.5 338.4 177.91 335.43 178.61 333.16 179.91 327.66 181.23 325.11 182.09 322.3 182.69 319.22 183.01 316.51 183.71 312.96 183.57 306.49 183.92 303.59 184.42 300.99 185.23 298.6 186.23 296 187 293.09 187.45 286.89 187.97 280.7 188.34 277.54 188.32 272.24 189.3 270.01 190.22 267.16 190.51 263.49 189.91 260.1 189.57 257.04 189.56 251.21 189.85 248.15 189.61 243.13 189.95 237.61 189.78 234.09 188.93 231.26 188.78 225.26 188.15 222 187.56 219 187.23 216.55 187.42 213.91 187.28 211.14 187.02 205.23 186.13 201.87 185.27 198.48 184 190.76 182.65 186.7 181.66 170 176.56 168.18 175.1 162.42 171.9 
M 167.72 151.84 170.71 151.91 173.72 151.68 182.56 151.78 185.59 151.58 188.58 151.87 191.27 151.9 203.39 150.61 209.43 150.44 212.36 150.51 215.37 150.98 221.87 151.2 227.19 151 233.55 151.26 236.27 151.22 239.08 150.87 242.14 150.89 250.89 151.18 253.9 151.52 257.23 151.44 260.04 151.88 263.04 151.99 268.87 153.26 284.52 154.22 290.5 155.53 292.65 155.6 294.65 156.03 297.77 155.83 300.81 156.29 304.37 157.37 308.28 157.8 318.18 158.47 324.92 159.98 326.99 160.73 330.17 160.96 333.56 161.46 336.65 162.35 342.47 163.11 345.59 163.75 
M 163.35 153.69 176.69 153.84 185.58 153.77 188.65 154.21 191.65 154.41 194.56 154.04 203.62 153.39 212.94 153.92 218.19 154.61 224.21 154.91 227.38 154.83 230.55 154.95 235.9 154.45 238.86 155.09 247.92 155.69 250.7 155.62 260.07 157.01 263.29 157.12 269.03 158.72 
M 163.27 155.35 170.81 155.59 176.69 155.99 182.52 155.91 188.85 156.56 192 156.71 204.02 156.37 207.09 156.61 210.26 157.33 212.99 157.65 218.32 157.9 227.42 159.02 230.38 158.9 233.53 159.1 239.1 158.95 242 159.38 245.55 160.31 248.15 160.7 250.13 161.48 
M 163.37 157.02 173.8 157.94 182.56 158.1 192.46 159.39 198.04 159.17 206.83 159.63 209.77 160.64 218.42 161.57 227.82 163.05 233.68 163.51 239.76 163.6 242.69 164.19 245.06 165.3 249.59 166.86 257.04 167.61 263.15 169.02 269.13 169.88 272.03 170.6 277.47 172.73 282.79 174.42 285.69 174.89 288.7 175.08 
M 164.58 158.81 170.79 159.71 173.96 159.98 179.51 160.05 182.55 160.27 192.24 161.82 203.43 162.38 206.28 162.93 209.33 163.74 215.15 164.8 218.58 165.71 221.81 166.04 228.03 167.29 230.83 167.52 236.92 168.55 239.82 168.71 242.56 169.4 245.04 170.59 
M 164.62 160.48 170.77 161.64 173.86 162.02 179.56 162.25 182.53 162.64 185.88 163.15 189.14 163.9 195.26 164.98 197.58 165.14 206.21 166.24 208.85 166.91 211.62 167.14 214.69 168.43 218.17 169.58 221.64 170.06 
M 167.88 162.92 173.7 163.97 179.52 164.42 182.64 164.84 192.35 167.22 194.86 167.59 197.1 167.69 199.73 168.19 202.84 169.09 208.75 170.12 211.18 171.11 223.28 174.9 226.35 176.08 228.51 177.11 231.35 177.92 
M 167.82 164.77 173.55 165.89 179.56 166.8 182.54 167.52 185.64 168.04 191.81 169.95 197.13 170.74 202.58 172.18 208.21 174.05 210.88 175.35 214.04 176.15 
M 163.02 165.29 167.71 166.61 173.37 167.78 182.49 170.11 185.54 170.74 188.67 171.73 191.98 172.5 197.36 174.41 200.25 175.05 203.26 176.19 
M 164.65 167.52 173.23 170.06 176.64 170.84 179.62 171.91 188.54 174.69 191.77 175.41 197.44 177.99 200.11 179.49 202.89 180.62 205.39 182.02 207.63 182.95 
M 162.53 168.47 170.26 171.44 176.53 173.3 182.59 175.86 185.44 176.78 191.55 179.24 
M 164.75 171.21 167.95 172.58 170.17 173.88 173.48 174.97 176.96 176.38 182.81 179.22 
M 209.7 205.59 226.76 232.58 225.95 233.14 206.79 207.59 
M 207.9 205.26 208.48 206.43 
M 213.57 216.63 225 239.54 224.14 240.01 204.8 206.94 
M 206.08 204.94 206.49 206.02 
M 210.51 216.71 221.82 246.77 220.92 247.14 202.82 206.28 
M 204.25 204.63 204.5 205.59 
M 207.37 216.55 217.18 254.03 216.24 254.31 200.86 205.61 
M 202.39 204.32 202.51 205.13 
M 204.2 216.2 211.05 261.12 210.08 261.29 198.92 204.93 
M 199.99 203.88 200.03 204.73 
M 200.38 212.33 202.92 267.65 201.95 267.71 196.47 204.12 
M 224.03 230.59 222.62 231.65 221.79 232.79 221.71 233.4 221.86 234.05 223.29 236.12 
M 222.2 236.7 220.57 237.61 219.5 238.71 219.29 239.36 219.29 240.09 220.25 242.58 
M 219.11 243.05 217.28 243.8 215.97 244.83 215.61 245.5 215.46 246.28 215.49 247.16 215.88 249.09 
M 214.7 249.44 212.69 250.01 211.15 250.94 210.65 251.61 210.33 252.42 210.18 253.35 210.18 255.44 
M 208.97 255.65 206.72 255.96 205.73 256.25 204.87 256.71 204.17 257.33 203.2 259.08 202.63 261.27 
M 223.29 231.11 222.1 232.2 221.79 232.79 221.71 233.4 221.86 234.05 222.71 235.41 
M 219.56 225.33 218.65 226.17 218.34 227.09 218.46 227.58 219.11 228.63 
M 215.82 219.55 215.03 220.45 215.06 221.12 215.52 221.85 
M 221.35 237.14 219.94 238.13 219.5 238.71 219.29 239.36 219.29 240.09 219.83 241.72 
M 217.63 229.84 216.55 230.6 216.21 231.04 216.05 232.1 216.46 233.35 
M 213.91 222.54 212.92 223.38 212.81 224.11 213.1 224.98 
M 218.16 243.41 216.53 244.27 215.97 244.83 215.61 245.5 215.46 246.28 215.65 248.11 
M 215.59 236.75 214.25 237.46 213.79 237.92 213.37 239.12 213.52 240.63 
M 213.03 230.09 211.97 230.65 211.61 231.02 211.27 231.96 211.4 233.15 
M 210.46 223.43 209.42 224.11 209.18 224.8 209.27 225.67 
M 213.66 249.7 211.84 250.42 211.15 250.94 210.65 251.61 210.33 252.42 210.15 254.37 
M 211.97 243.42 210.4 244.04 209.81 244.49 209.11 245.76 208.95 247.44 
M 210.28 237.15 208.97 237.66 208.48 238.04 207.89 239.1 207.76 240.51 
M 208.6 230.87 207.14 231.59 206.67 232.45 206.56 233.58 
M 206.91 224.6 205.8 225.14 205.44 225.79 205.36 226.65 
M 207.82 255.77 205.73 256.25 204.87 256.71 204.17 257.33 203.62 258.13 202.89 260.15 
M 206.64 248.57 204.85 248.98 203.5 249.91 203.03 250.59 202.41 252.33 
M 205.47 241.36 203.97 241.71 202.84 242.49 202.45 243.06 201.93 244.51 
M 204.3 234.16 203.09 234.44 202.18 235.06 201.44 236.7 
M 203.13 226.96 202.21 227.17 201.52 227.64 200.96 228.88 
M 359.83 196.11 366.86 208.38 366.06 208.94 356.94 198.13 
M 345.54 199.56 371.54 237.71 370.74 238.28 342.68 201.63 
M 331.3 203.12 357.58 245.5 356.77 246.03 328.35 205.06 
M 316.78 204.98 340.23 250.5 339.37 250.97 313.68 206.67 
M 302.12 205.75 317.77 239.2 316.89 239.64 298.98 207.35 
M 289.89 206.11 295.23 219.21 294.36 219.66 286.75 207.74 
M 365.15 207.86 364.74 213.83 364.73 216.78 364.92 219.71 365.34 222.6 365.99 225.46 366.85 228.29 368.94 233.89 
M 367.94 234.62 364.48 234.97 362.84 235.32 361.29 235.85 359.85 236.59 358.51 237.53 357.27 238.66 354.96 241.26 
M 353.92 241.94 350.05 241.61 348.17 241.63 346.33 241.85 344.54 242.29 342.82 242.96 341.14 243.84 337.88 245.95 
M 336.8 246.54 332.8 243.05 330.72 241.47 328.53 240.08 326.25 238.89 323.85 237.91 321.36 237.11 316.2 235.85 
M 315.1 236.41 311.41 231.36 309.44 228.98 307.33 226.75 305.06 224.7 302.64 222.81 300.08 221.08 294.7 217.9 
M 364.9 210.85 364.73 216.78 364.92 219.71 365.34 222.6 365.99 225.46 367.85 231.1 
M 366.19 234.76 362.84 235.32 361.29 235.85 359.85 236.59 358.51 237.53 356.09 239.92 
M 361.07 229.08 358.31 229.55 357.03 229.99 354.74 231.38 352.75 233.35 
M 355.96 223.41 353.78 223.78 352.78 224.12 350.97 225.22 349.4 226.77 
M 350.85 217.74 348.52 218.26 347.2 219.06 346.05 220.19 
M 351.98 241.73 348.17 241.63 346.33 241.85 344.54 242.29 342.82 242.96 339.5 244.85 
M 347.86 236.58 344.58 236.49 341.46 237.07 339.98 237.64 337.13 239.27 
M 343.73 231.44 340.99 231.36 338.38 231.84 337.14 232.32 334.75 233.68 
M 339.61 226.29 337.4 226.23 336.33 226.35 334.3 227 332.37 228.1 
M 335.49 221.14 333.81 221.09 332.22 221.39 330 222.51 
M 334.82 244.76 330.72 241.47 328.53 240.08 326.25 238.89 323.85 237.91 318.8 236.44 
M 328.54 235.76 325.39 233.24 323.72 232.17 320.13 230.51 316.25 229.38 
M 322.25 226.76 318.9 224.26 316.4 223.1 313.71 222.32 
M 313.28 233.86 309.44 228.98 307.33 226.75 305.06 224.7 302.64 222.81 297.42 219.46 
M 398.43 135.29 402.09 133.99 405.04 133.16 407.85 131.59 415.64 128.44 417.46 126.88 420.4 125.17 423.56 124.03 425.81 121.59 431.56 118.07 434.13 116.81 435.39 115.06 436.91 114.67 446.67 116.75 449.91 118.19 452.49 118.96 458.54 122.21 460.9 123.14 466.92 124.8 470.92 128.1 473.34 130.53 476.69 135.17 483.43 142.19 485.25 144.48 485.56 146.43 487.83 152.3 486.68 154.3 485.97 156.73 489.78 163.87 490 167.48 486.62 176.03 485.5 178.36 485.25 181.55 484.13 184.16 482.32 186.18 481.17 188.85 479.75 191.23 479.31 194.57 478.04 197.46 476.19 199.76 474.07 201.75 470.34 201.82 464.18 203.38 460.25 207.59 456.97 208.28 453.23 208.48 450.83 210.02 448.31 211.29 445.49 213.61 440.82 215.28 438.2 214.28 435.45 212.49 432.74 211.16 429.87 208.43 426.38 206.52 422.88 204.18 419.45 202.22 417.34 199.83 415.81 197.79 412.69 196.41 409.55 195.87 406.25 194.06 404.14 191.65 402.15 189.03 398.43 185.81 
M 407.84 134.72 410.49 133.12 413.75 132.21 417.08 131.83 419.46 131.12 421.34 129.38 426.46 125.43 432.09 122.42 434.68 121.32 439.98 119.41 442.53 118.18 
M 407.58 138.12 410.71 136.45 413.91 135.35 420.51 134.08 422.33 132.81 424.92 131.96 427.38 130.19 430.51 128.33 
M 401.83 142.98 404.95 141.98 407.71 141.34 414.35 138.86 417.9 138.34 420.51 137.16 422.95 136.98 426.21 136.1 428.98 134.86 431.2 133.14 433.99 131.55 436.13 130.07 441.53 127.83 444.31 127.34 
M 407.97 144.18 411.03 143.59 413.87 142.5 417.07 141.58 420.77 140.83 423.46 139.51 425.91 139.46 428.92 138.33 431.66 136.21 434.38 134.38 438.31 132.69 440.17 132.74 
M 404.93 147.47 411.33 146.57 420.23 143.78 422.86 142.62 425.44 142.91 428.21 141.75 431.35 141 435.12 139.2 437.91 137.4 440.78 138.08 450.64 136.42 453.28 136.86 456.1 136.13 459.62 135.48 462.45 134.69 
M 408.19 149.6 411.71 149.26 425.86 146.84 428.86 146.12 431.72 144.72 435.56 143.97 438.48 142.64 444.8 141.3 448.48 140.76 453.27 141.4 459.61 141.27 462.25 139.12 467.08 138.74 470.92 137.66 472.52 136.21 472.66 135.54 
M 408.2 152.26 411.13 151.91 417.97 151.57 424.25 151.61 426.8 151.96 433.43 150.29 436.74 148.94 442.95 147.15 446.21 146.9 448.95 146.37 452.35 146.07 458.46 146.06 461.13 144.77 463.31 144.7 467.21 145.01 470.96 144.85 473.16 144.18 474.86 143.43 477.2 141.61 480.45 141.77 
M 402.22 155.9 408.11 155.47 411.32 155.56 421.21 154.77 424.21 155.54 430.75 155.95 434.86 155.39 437.72 154.55 443.51 153.81 446.57 154.49 
M 408.11 159.09 411.92 158.85 415.49 159.15 418.59 158.97 421.37 158.58 427.3 159.26 433.87 158.8 437.72 159.63 441.25 159.89 444.48 159.17 446.26 159.4 448.78 158.93 451.02 159.88 453.69 159.63 456.33 158.54 460.65 158.72 465.14 159.22 467.98 158.53 
M 404.71 162.04 418.93 162.84 421.83 162.37 428.79 162.12 435.1 163.68 440.79 164.19 442.32 164.84 444.46 164.84 447.14 165.63 453.91 165.06 456.46 164.56 
M 404.98 165.01 408.09 165.49 411.72 165.35 418.65 165.87 421.72 166.75 424.9 166.96 428.29 166.9 434.16 168.51 442.44 169.62 445.62 169.03 452.37 169.6 457.28 169.49 460.26 169.75 467.55 171.95 
M 402.16 166.99 408.53 168.25 415.11 168.58 418.5 169.04 421.06 170.31 432.7 172.18 435.96 173.46 439.17 174.29 442.41 174.8 447.09 174.18 450.42 174.18 454.85 175.85 457.41 175.12 460.17 175.08 463.45 176.6 466.97 177.65 
M 398.43 168.13 402.15 169.52 408.56 171.52 414.73 172.22 423.78 174.49 426.07 175.53 432.49 176.5 435.79 178.64 438.88 178.94 441.93 178.79 449.3 179.48 451.93 180.44 455.1 181.97 458.56 182.52 461.71 183.22 470.58 184.26 
M 408.49 174.55 411.64 174.93 414.86 176.03 418.14 176.63 422.7 179.12 426.07 179.62 432.6 181.19 436.51 182.33 440.19 182.75 441.98 183.24 445.34 183.55 448.92 183.64 451.82 184.16 455.47 186.19 458.53 188.43 461.44 189.17 463.11 190.4 464.76 191.39 467.88 192.73 470.91 192.82 474.18 193.49 
M 408.58 177.61 411.66 178.12 414.38 179.38 417.05 180.01 419.92 181.4 429.19 184.82 431.84 186.09 436.02 187.42 438.93 188.86 441.85 188.93 445.33 188.75 447.69 189.07 451.22 190.29 454.22 192.98 460.31 196.62 
M 398.43 175.71 405.52 179.51 411.25 181.75 416.34 183.23 419.76 184.64 422.33 186.13 425.75 187.78 428.91 189.09 433.37 192.54 436.61 194.25 439.52 194.18 443.77 193.63 
M 408.49 184.1 411.22 184.82 413.95 185.99 417.18 186.79 420.01 187.89 422.54 189.6 424.64 191.32 427.71 192.91 429.63 194.62 435.69 198.2 
M 402.02 183.44 407.61 187.53 410.99 188 420.61 191.92 422.34 193.48 424.16 195.48 426.65 196.66 429.65 198.75 432.7 200.51 
M 398.43 183.29 402.25 186.38 406.67 191.18 413.17 193.69 417.1 194.01 419.52 195.4 424.03 200.23 430.28 203.66 432.52 205.74 435.32 207.12 
M 61.74 130.87 69.05 130.46 78.4 130.45 83.88 130.13 95.97 129.03 110.01 127.98 117.18 127.19 130.38 126.09 148.16 124.34 152.06 127.41 153.96 130.82 156.11 134.2 158.51 137.54 160.42 140.95 161.66 144.46 163.45 151.58 163.27 155.3 163.48 158.96 163.41 162.66 162.25 170.21 162.62 173.85 162.61 181.23 162.08 185 160.81 188.87 158.21 192.87 144.3 192.09 133.86 190.67 124.71 188.63 116.61 186.12 109.13 182.97 102.36 179.86 96.14 176.24 90.43 172.05 85.49 167.57 81.26 163.07 73.15 155.22 
M 71.66 153.33 69.64 150.59 
M 136.18 137.56 136.66 140.62 135.04 146.48 133.9 149.15 132.46 151.71 131.3 154.2 131.65 158.95 133.52 164.27 134.36 167.51 134.33 171.19 125.1 171.3 118.08 171.05 111.55 170.31 105.38 169.02 99.32 166.94 93.63 164.63 88.33 161.56 
M 72.12 154.01 70.24 151.35 65.64 145.63 61.21 139.73 57 133.5 57.28 131.05 59.33 129.86 61.58 130.6 62.81 132.73 67.12 141.42 71.79 150.02 73.86 154.79 
M 73.3 155.55 63.22 154.44 53.5 153.06 51.21 152.25 50.14 150.05 51.12 147.82 53.47 147.19 55.87 147.95 62.8 150.69 67.6 152.3 73.56 154.56 
M 90.38 155.25 87.11 150.66 85.5 145.25 85.73 139.61 87.78 134.36 91.42 130.06 92.57 129.38 
M 110 127.98 112.46 129.19 116.44 133.17 118.92 138.24 119.62 143.84 118.46 149.36 115.57 154.21 111.27 157.85 106.02 159.9 100.38 160.13 94.97 158.53 90.38 155.25 
M 113.66 135.17 115.64 139.22 116.2 143.7 115.27 148.11 112.96 151.99 109.52 154.91 105.31 156.55 100.8 156.73 96.48 155.45 92.81 152.82 
M 96.92 147.24 95.61 145.41 94.96 143.24 95.06 140.99 95.88 138.89 97.33 137.17 99.27 136.01 101.48 135.55 103.72 135.83 105.75 136.82 107.34 138.41 108.33 140.44 108.61 142.68 108.15 144.89 106.99 146.83 105.27 148.28 103.17 149.1 100.92 149.2 98.75 148.55 96.92 147.24 
M 95.28 144.22 99.97 148.92 
M 96.46 142.75 102.82 149.12 
M 95.83 139.48 104.81 148.46 
M 98.92 139.93 106.36 147.36 
M 100.32 138.67 107.54 145.9 
M 101.68 137.4 108.33 144.04 
M 104.84 137.91 108.47 141.54 
M 62.01 130.85 67.56 136.4 
M 67.56 130.52 71.97 134.93 
M 73.41 130.49 78 135.08 
M 79.21 130.41 84.88 136.08 
M 84.75 130.07 88.07 133.39 
M 90.18 129.62 91.05 130.49 
M 111.86 127.78 115.07 130.99 
M 117.15 127.19 121.5 131.54 
M 122.56 126.72 125.85 130.01 
M 128 126.28 132.49 130.76 
M 133.4 125.8 137.09 129.49 
M 138.75 125.27 142.17 128.69 
M 144.13 124.77 149.7 130.34 
M 70.48 151.84 70.51 151.73 
M 70.98 148.46 70.62 147.47 70.21 147.01 
M 143.77 134.07 142.95 135.45 142.87 136.12 143.02 136.58 143.61 137.12 145 137.85 145.22 138.6 
M 88.27 130.07 88.47 129.77 
M 88.97 129.73 89.35 130.09 
M 151.65 157.23 150.08 157.04 147.32 156.99 146.32 157.31 144.94 158.18 144.67 158.43 144.57 158.93 
M 133.66 130.02 131.53 128.9 129.29 128.59 127.67 128.13 126.49 127.49 125.32 126.49 
M 131.74 157.9 132.37 157.25 134.07 156.71 135.1 155.23 
M 73.27 132.38 70.89 132.21 68.88 132.75 
M 62.34 130.81 61.8 130.99 
M 117.32 166.31 116.8 166.44 116.44 166.21 116.52 165.5 116.92 164.9 
M 127.21 170.1 126.2 169.7 124.99 169.71 122.87 170.19 121.79 170.65 118.32 172.75 115.74 175.33 
M 101.23 171.05 100.71 171.17 98.9 172.07 98.05 172.95 
M 118.83 149.98 118.11 151.13 117.29 154.94 116.94 155.9 116.43 156.7 115.52 157.65 
M 128.41 189.45 128.42 188.95 
M 144.49 167.15 145.25 167.5 145.43 167.87 144.7 169.32 144.3 169.66 
M 127.18 181.53 125.77 179.84 123.14 177.27 122.78 175.85 122.44 175.29 121.79 175.03 121.05 175.19 
M 145.5 144.4 145 146.02 
M 128.52 189.48 128.19 187.47 
M 78.94 137.96 76.63 137.44 73.97 137.31 73.04 137.5 69.77 139.41 
M 154.14 132.39 152.74 131.81 151.43 131.82 150.94 132.06 149.79 133.24 148.61 133.87 148.09 134.96 
M 133.19 135.78 132.39 136.5 131.5 138.16 130.85 138.96 128.75 140.52 126.77 141.59 125.61 141.6 123.26 141.26 121.16 140.33 
M 162.36 171.3 160.34 170.35 158.91 169.97 157.71 169.72 156.51 169.85 155.46 170.34 153.9 171.47 152.54 172.2 151.8 172.5 148.31 173.16 
M 119.07 149.77 118.26 150.85 118.03 151.47 117.04 155.71 116.58 156.54 115.63 157.52 
M 125.46 130.51 121.25 130.72 118.21 130.46 117.59 130.63 117.16 131.06 116.18 132.91 
M 135.87 169.22 135.72 168.36 134.94 166.64 134.65 165.21 
M 151.1 169.58 149.61 169.8 147.96 170.38 146.18 171.96 144.9 172.61 143.9 172.85 
M 79.96 158.82 79.61 157.96 79.16 157.47 78.28 157.18 77.48 157.44 76.55 158.6 
M 143.65 129.63 142.75 130.31 141.01 132.88 138.67 135.54 138.29 136.39 138.34 137.2 
M 129.05 136.44 127.86 137.71 127.21 137.99 125.43 138.25 122.63 138.2 120.11 139.01 119.03 139.11 
M 81.69 155.55 80.67 155.12 79.84 154.96 77.39 154.97 76.91 155.11 76.43 155.49 76.06 156.34 
M 145.78 134.82 145.05 135.65 145.22 136.61 
M 128.7 173.03 126.57 172.45 125.52 172.39 121.92 172.88 119.94 173.57 116.74 175.06 
M 120.39 129.98 118.56 129.66 117.26 129.71 116.91 130.29 116.08 132.81 
M 110.62 179.32 110.06 183.36 
M 155.08 137.17 153.85 135.3 153.19 134.79 152.6 134.6 151.08 134.7 148.8 135.2 148.21 135.67 
M 138.75 169.35 140.43 167.74 141.81 167.02 143.09 167.02 145.17 167.72 
M 130.41 166.47 131.27 164.23 131.49 162.31 132.3 159.43 132.86 158.22 134.06 157.22 
M 120.85 146.55 118.83 147.6 
M 117.42 151.1 117.39 153.27 
M 137.7 168.46 139.06 167.29 141.71 165.92 143.24 165.91 144.22 166.3 
M 76 155.98 76.08 158.14 
M 127.01 175.82 124.75 174.98 123.91 174.95 122.35 174.49 121.09 174.58 119.62 175.17 117.74 175.07 
M 72.26 162.69 71.27 165.42 69.75 170.96 67.29 185.43 66.56 188.36 65.58 191.22 64.37 193.98 62.92 196.62 61.29 199.13 54.2 208.51 47.93 218.45 41.17 228.08 39.67 230.6 37.35 235.99 39.57 230.55 40.99 227.97 47.38 218.1 53.29 207.92 60.02 198.28 61.51 195.8 62.79 193.23 63.85 190.57 64.67 187.84 65.26 185.03 67.19 170.43 68.57 164.58 69.47 161.75 
M 71.48 162.02 71.34 162.38 
M 70.23 169.04 70.94 172.6 74.94 183.64 75.65 186.6 75.97 189.67 75.8 192.74 75.15 195.76 73.94 198.6 72.3 201.15 66.84 208.1 65.21 210.49 63.9 213.05 62.97 215.78 62.48 218.62 62.41 221.52 62.69 224.42 63.21 227.3 63.99 230.12 65.04 232.86 68.09 237.87 64.95 232.9 63.78 230.19 62.9 227.38 62.26 224.49 61.86 221.55 61.83 218.57 62.22 215.6 63.09 212.73 64.36 210.01 65.95 207.48 71.13 200.36 72.58 197.91 73.58 195.29 74.07 192.54 74.12 189.74 73.73 186.97 72.96 184.25 69.03 174.62 
M 67.54 168.77 67.36 167.17 67.71 163.94 68.72 161.01 
M 72.22 161.88 72.01 162.6 
M 70.98 166.39 70.36 170.13 
M 70.31 177.76 70.67 184.74 70.67 187.75 70.37 190.78 69.74 193.74 68.84 196.64 67.59 199.41 66.03 202 64.19 204.39 62.07 206.53 59.77 208.45 57.27 210.09 54.65 211.51 51.37 213.03 
M 50.02 213.61 30 221.2 46.31 214.51 50.6 212.58 
M 52.08 211.86 56.75 209.26 59.1 207.59 61.25 205.66 63.19 203.55 64.85 201.22 66.23 198.72 67.3 196.09 68.04 193.33 68.54 190.53 68.71 187.69 68.19 180 
M 69.35 161.24 69.39 161.09 
M 73.17 155.21 73.75 156.19 
M 68.82 149.56 68.09 150.45 67.78 151.45 68.39 150.95 69.72 150.69 
M 64.69 144.4 63.09 145.79 62.31 147.56 63.39 146.3 65.53 145.49 
M 60.77 139.06 58.08 141.14 56.83 143.66 58.39 141.65 61.59 140.22 
M 57.07 133.6 53.08 136.49 51.36 139.76 53.38 137 57.88 134.83 
M 73.34 155.37 74.2 155.59 
M 66.46 151.93 66.91 151.13 67.98 150.31 67.48 151.27 67.5 152.27 
M 59.83 149.54 60.86 146.98 62.71 145.28 61.43 147.12 61.09 150.04 
M 53.26 147.25 54.8 142.83 57.44 140.24 55.37 142.97 54.64 147.56 
M 57.51 153.66 63.47 157.97 66.92 160.06 70.48 161.89 77.92 164.97 85.49 167.57 
M 60.83 154.38 59.2 154.95 
M 155.67 133.51 156.02 133.86 
M 152.59 122.59 163.07 133.07 
M 158.27 120.42 167.93 130.08 
M 164.6 118.92 171.68 125.99 
M 171.19 117.67 181.62 128.1 
M 178.11 116.75 186.9 125.54 
M 185.13 115.92 191.14 121.93 
M 191.93 114.89 200.19 123.15 
M 198.56 113.68 206.94 122.05 
M 205.19 112.47 216.8 124.07 
M 211.98 111.41 220.16 119.6 
M 218.93 110.52 226.97 118.57 
M 226.26 110.02 236.44 120.19 
M 233.79 109.71 242.45 118.36 
M 241.45 109.53 250.52 118.59 
M 249.22 109.46 259.17 119.4 
M 257.21 109.61 264.28 116.68 
M 265.15 109.71 271.98 116.54 
M 272.87 109.59 280.62 117.34 
M 280.54 109.42 286.8 115.68 
M 288.41 109.45 296.72 117.76 
M 296.95 110.15 304.43 117.63 
M 305.76 111.12 313.95 119.31 
M 314.71 112.23 322.29 119.81 
M 323.79 113.47 332.13 121.81 
M 333.33 115.17 345.02 126.86 
M 343.56 117.56 351.07 125.07 
M 354.09 120.25 360.6 126.76 
M 364.44 122.76 372.43 130.75 
M 374.87 125.36 384.91 135.39 
M 386.69 129.33 393.17 135.81 
M 159.37 191.09 160.51 193.37 
M 161.16 187.81 164.29 194.06 
M 162.32 183.27 168.06 194.76 
M 162.55 176.87 172.05 195.87 
M 163.91 172.72 176.05 197.01 
M 168.76 175.57 180.1 198.24 
M 173.17 177.53 182.33 195.85 
M 149.69 123.71 151.2 126.73 
M 177.22 178.77 182.56 189.44 
M 152.57 122.6 166.36 150.19 
M 181.27 180 182.81 183.08 
M 155.44 121.5 169.72 150.05 
M 158.33 120.41 173.05 149.84 
M 161.4 119.68 176.39 149.68 
M 164.46 118.95 179.79 149.61 
M 167.53 118.23 183.16 149.5 
M 170.71 117.73 185.17 146.66 
M 173.93 117.3 184.88 139.22 
M 177.14 116.88 184.59 131.78 
M 220.53 203.65 223.12 208.83 
M 180.37 116.48 185.2 126.12 
M 220.26 196.24 226.7 209.12 
M 182.19 113.25 182.63 114.12 
M 221.19 191.26 230.18 209.23 
M 222.85 187.71 233.59 209.19 
M 226.55 188.25 237 209.16 
M 230.18 188.65 240.35 208.99 
M 233.74 188.91 243.65 208.74 
M 237.6 189.78 246.96 208.49 
M 241.09 189.89 250.24 208.19 
M 244.5 189.85 253.5 207.86 
M 247.82 189.63 256.77 207.53 
M 226.89 140.91 230.35 147.82 
M 251.36 189.84 260.06 207.26 
M 227.83 135.92 233.72 147.7 
M 254.74 189.74 261.13 202.54 
M 228.65 130.71 237.09 147.59 
M 258.08 189.57 261.96 197.33 
M 229.29 125.14 240.4 147.35 
M 261.58 189.72 262.6 191.75 
M 228.85 117.39 243.81 147.31 
M 229.04 110.92 247.2 147.23 
M 228.44 102.85 250.52 147.02 
M 227.63 94.37 254 147.1 
M 224.95 82.16 257.39 147.04 
M 222 69.39 260.81 147.01 
M 222.74 64.02 264.23 146.99 
M 225.47 62.62 267.84 147.36 
M 228.18 61.17 270.69 146.19 
M 231.46 60.87 270.46 138.88 
M 234.53 60.15 270.03 131.15 
M 307 205.1 307.6 206.29 
M 237.47 59.18 269.47 123.16 
M 308.03 200.3 310.93 206.1 
M 240.26 57.88 269.62 116.61 
M 308.19 193.74 314.26 205.89 
M 242.84 56.2 269.58 109.67 
M 309.9 190.31 317.58 205.67 
M 245.29 54.23 269.39 102.44 
M 310 183.65 320.84 205.33 
M 247.65 52.1 266.5 89.79 
M 313.39 183.58 324.07 204.94 
M 252.25 54.44 265.84 81.61 
M 316.84 183.62 327.31 204.55 
M 256.62 56.32 265.82 74.72 
M 319.93 182.94 330.44 203.95 
M 260.23 56.68 265.93 68.08 
M 323.15 182.51 333.52 203.25 
M 263.56 56.47 266.63 62.61 
M 326.19 181.73 336.6 202.55 
M 311.93 146.35 313.87 150.23 
M 329.21 180.91 339.65 201.8 
M 311.84 139.32 317.66 150.96 
M 332.26 180.16 342.67 200.98 
M 312.7 134.17 321.52 151.82 
M 335.03 178.84 345.7 200.17 
M 312.7 127.31 325.27 152.44 
M 338.04 177.99 348.72 199.36 
M 313.4 121.86 328.86 152.78 
M 341.25 177.55 349.34 193.73 
M 313.91 116.02 332.39 152.98 
M 344.12 176.44 349.85 187.9 
M 314.18 109.7 335.88 153.1 
M 347.1 175.54 349.24 179.82 
M 312.44 99.36 339.53 153.53 
M 313.17 93.95 343.31 154.23 
M 312.21 85.18 347.31 155.38 
M 310.48 74.86 350.8 155.5 
M 309.93 66.89 350.25 147.53 
M 310.7 61.58 351.02 142.22 
M 312.59 58.5 351.6 136.51 
M 321.41 69.28 352.53 131.51 
M 326.77 73.13 347.49 114.58 
M 349.78 119.15 353.72 127.04 
M 334.57 81.88 348.02 108.77 
M 338.99 83.85 349.21 104.29 
M 348.41 95.84 350.7 100.41 
M 394.78 181.71 397.11 186.37 
M 389.03 163.36 399.61 184.52 
M 387.71 153.86 401.83 182.11 
M 387.27 146.12 404.06 179.69 
M 387.89 140.49 406.28 177.28 
M 387.71 133.28 408.44 174.73 
M 389.87 130.74 408.44 167.87 
M 394.55 133.23 408.44 161.01 
M 399.98 137.24 408.44 154.15 
"/></svg>