<svg xmlns="http://www.w3.org/2000/svg" width="520" height="320"><rect x="0" y="0" width="520" height="320" fill="floralwhite"/><rect x="10" y="10" width="500" height="300" stroke="black" stroke-width="1" fill="none"/><path stroke="black" stroke-width="1" fill="none" stroke-linecap="round" stroke-linejoin="round" d="
M 197.5 122.21 204.94 119.31 219.75 116.26 234.57 111.83 241.98 110.2 249.39 109.36 256.8 108.98 264.21 108.83 279.03 109.19 286.44 108.79 293.85 108.83 301.26 109.83 308.67 111.22 323.48 114.51 330.89 117.08 345.71 123.31 353.12 126.13 360.53 129.28 367.94 133.77 375.35 140.25 382.76 155.49 
M 382.76 173 375.35 186.23 367.94 191.42 360.53 195.08 353.12 197.65 345.71 199.97 338.3 202.8 330.89 206.09 323.48 208.86 316.08 210.32 308.67 211.09 293.85 211.9 279.03 211.66 271.62 212.44 264.21 213.67 256.8 214.59 249.39 214.72 241.98 213.72 234.57 211.49 227.16 208.34 219.75 204.61 212.35 200.59 204.94 197.14 197.53 194.9 190.18 193.76 
M 194.97 189.6 195.59 189.3 196.38 188.52 196.89 187.63 196.89 187.09 196.57 186.53 
M 198.1 186.03 198.8 185.7 199.71 184.86 200.29 183.9 200.29 183.31 199.71 182.35 198.47 181.36 
M 199.29 191.74 199.5 191.44 199.5 190.89 198.87 190 197.89 189.21 197.13 188.9 
M 201.02 182.26 201.58 181.91 202.3 180.99 202.76 179.96 202.76 179.32 202.3 178.29 201.58 177.38 201.02 177.03 
M 200.6 190.12 201.2 189.8 201.98 188.98 202.48 188.06 202.48 187.49 201.98 186.57 201.2 185.75 200.6 185.43 
M 204.34 193.09 205.18 191.98 205.18 191.41 204.56 190.48 203.61 189.67 202.87 189.35 
M 206.12 182.26 206.67 181.88 207.38 180.94 207.83 179.86 207.83 179.19 207.38 178.12 206.67 177.17 206.12 176.8 
M 206.1 190.5 206.69 190.17 207.45 189.32 207.93 188.36 207.93 187.76 207.45 186.8 206.69 185.95 206.1 185.62 
M 208.07 177.53 208.72 177.13 209.55 176.11 210.09 174.95 210.09 174.24 209.55 173.09 208.72 172.07 208.07 171.67 
M 208.71 186.41 209.39 186.06 210.26 185.14 210.82 184.1 210.82 183.46 210.26 182.42 209.39 181.51 208.71 181.15 
M 208.48 194.52 209.21 194.19 210.13 193.34 210.73 192.39 210.73 191.79 210.13 190.83 209.21 189.99 208.48 189.66 
M 212.91 196.73 212.97 196.02 212.47 195.08 211.68 194.24 211.06 193.91 
M 200.63 126.01 199.76 124.14 199.19 123.62 
M 211.26 167.43 212.09 166.69 
M 199.29 124.38 200.18 122.81 200.58 121 
M 208.32 150.04 208.82 149.49 209.45 148.08 209.86 146.48 209.86 145.49 209.45 143.89 208.82 142.48 208.32 141.93 
M 216.66 190.81 217.21 190.45 217.93 189.54 218.39 188.5 218.39 187.86 217.93 186.82 217.21 185.91 216.66 185.55 
M 203.44 130.35 204.03 129.83 204.78 128.5 205.27 126.99 205.27 126.06 204.78 124.55 204.03 123.22 203.44 122.7 
M 208.09 143.16 208.68 142.61 209.43 141.19 209.92 139.59 209.92 138.59 209.43 136.99 208.68 135.57 208.09 135.02 
M 214.37 150.45 213.41 148.61 212.78 148.08 
M 219.22 194.98 219.9 194.63 220.77 193.73 221.33 192.71 221.33 192.08 220.77 191.06 219.9 190.15 219.22 189.8 
M 207.7 136.08 208.2 135.53 208.83 134.13 209.24 132.54 209.24 131.56 208.83 129.97 208.2 128.57 207.7 128.02 
M 208.04 129.63 208.67 129.12 209.49 127.82 210.02 126.34 210.02 125.43 209.49 123.95 208.67 122.65 208.04 122.14 
M 212.65 142.54 213.28 141.98 214.08 140.55 214.59 138.93 214.59 137.93 214.08 136.31 213.28 134.88 212.65 134.32 
M 208.5 123.26 209.07 122.79 209.8 121.61 210.28 120.27 210.28 119.44 209.85 118.23 
M 212.37 135.49 212.92 134.94 213.61 133.55 214.06 131.98 214.06 131 213.61 129.43 212.92 128.04 212.37 127.5 
M 226.14 181.48 226.68 181.09 227.36 180.11 227.81 179 227.81 178.31 227.36 177.19 226.68 176.21 226.14 175.82 
M 228.58 204.18 227.7 202.98 227.13 202.63 
M 210.02 118.2 210.03 118.19 
M 213.14 129.41 213.88 128.92 214.81 127.65 215.41 126.22 215.41 125.33 214.81 123.89 213.88 122.62 213.14 122.13 
M 217.58 142.2 218.27 141.65 219.16 140.23 219.73 138.63 219.73 137.64 219.16 136.03 218.27 134.62 217.58 134.06 
M 228.03 176.66 228.68 176.25 229.51 175.21 230.04 174.03 230.04 173.29 229.76 172.66 
M 229.63 203.41 230.3 203.06 231.16 202.16 231.71 201.14 231.71 200.52 231.16 199.5 230.3 198.6 229.63 198.25 
M 214.06 123.49 214.75 123.04 215.62 121.9 216.18 120.6 216.18 119.8 215.62 118.5 214.59 117.26 
M 217.64 135.43 218.28 134.9 219.1 133.55 219.63 132.01 219.63 131.06 219.1 129.53 218.28 128.18 217.64 127.65 
M 222.67 148.82 223.26 148.26 224.02 146.81 224.51 145.16 224.51 144.15 224.02 142.51 223.26 141.06 222.67 140.49 
M 231.06 181.18 231.6 180.8 232.29 179.81 232.73 178.69 232.73 178 232.29 176.88 231.6 175.9 231.06 175.51 
M 232.07 199.09 232.62 198.73 233.32 197.81 233.77 196.77 233.77 196.13 233.32 195.09 232.62 194.17 232.07 193.81 
M 233.69 206.16 234.04 205.41 234.04 204.79 233.58 203.79 232.86 202.9 232.3 202.56 
M 219.15 130.08 220.02 129.6 221.13 128.38 221.85 127 221.85 126.14 221.13 124.75 220.02 123.53 219.15 123.05 
M 223.2 142.46 224 141.93 225.02 140.57 225.68 139.02 225.68 138.06 225.02 136.51 224 135.15 223.2 134.62 
M 232.99 176.39 233.65 175.98 234.49 174.94 234.95 173.93 
M 233.84 185.57 234.49 185.19 235.32 184.23 235.86 183.13 235.86 182.46 235.32 181.36 234.49 180.4 233.84 180.02 
M 234.72 203.3 235.38 202.95 236.23 202.04 236.78 201.02 236.78 200.38 236.23 199.35 235.38 198.45 234.72 198.09 
M 220.85 124.97 221.67 124.54 222.71 123.43 223.38 122.18 223.38 121.41 222.71 120.15 221.67 119.05 220.85 118.61 
M 224.04 136.44 224.8 135.93 225.78 134.65 226.41 133.19 226.41 132.29 225.78 130.83 224.8 129.54 224.04 129.04 
M 236.04 180.93 236.59 180.55 237.29 179.57 237.74 178.45 237.74 177.76 237.29 176.65 236.59 175.67 236.04 175.28 
M 236.6 189.96 237.15 189.59 237.84 188.64 238.29 187.56 238.29 186.9 237.84 185.83 237.15 184.88 236.6 184.51 
M 237.72 207.37 238.69 206.32 239.14 205.31 239.14 204.68 238.69 203.67 237.97 202.78 237.42 202.43 
M 223.62 121.23 224.64 120.83 225.96 119.8 226.81 118.64 226.81 117.92 225.96 116.76 224.64 115.73 223.62 115.33 
M 226.15 131.73 227.13 131.27 228.39 130.11 229.2 128.79 229.2 127.97 228.39 126.65 227.13 125.48 226.15 125.03 
M 229.63 143.45 230.52 142.95 231.65 141.67 232.38 140.22 232.38 139.32 231.65 137.87 230.52 136.59 229.63 136.09 
M 233.5 148.15 233.47 148.14 
M 238.06 176.19 238.73 175.79 239.73 174.46 
M 238.83 185.33 239.49 184.96 240.32 183.99 240.86 182.9 240.86 182.23 240.32 181.14 239.49 180.18 238.83 179.8 
M 241.95 208.53 241.55 207.82 240.7 206.94 240.03 206.59 
M 226.45 117.59 227.35 117.22 228.5 116.26 229.24 115.17 229.24 114.5 228.63 113.61 
M 228.48 127.31 229.36 126.89 230.48 125.82 231.2 124.61 231.2 123.86 230.48 122.65 229.36 121.58 228.48 121.17 
M 231.23 138.19 232.05 137.72 233.1 136.52 233.77 135.16 233.77 134.32 233.1 132.96 232.05 131.75 231.23 131.28 
M 236.58 147.83 237 146.81 237 145.92 236.41 144.49 235.51 143.23 234.8 142.74 
M 241.1 180.73 241.65 180.35 242.36 179.38 242.82 178.28 242.82 177.6 242.36 176.5 241.65 175.53 241.1 175.16 
M 242.08 198.7 242.62 198.33 243.32 197.4 243.76 196.34 243.76 195.69 243.32 194.63 242.62 193.69 242.08 193.33 
M 242.51 207.45 243.06 207.1 243.76 206.2 244.22 205.18 244.22 204.55 243.76 203.52 243.06 202.62 242.51 202.27 
M 231.36 123.72 232.41 123.33 233.75 122.33 234.62 121.19 234.62 120.49 233.75 119.36 232.41 118.36 231.36 117.97 
M 233.6 133.82 234.6 133.39 235.88 132.28 236.71 131.03 236.71 130.25 235.88 129 234.6 127.9 233.6 127.47 
M 236.45 144.79 237.35 144.33 238.51 143.14 239.25 141.8 239.25 140.97 238.51 139.63 237.35 138.44 236.45 137.98 
M 243.21 176.05 243.88 175.66 244.43 175.02 
M 243.85 185.1 244.51 184.73 245.35 183.78 245.89 182.7 245.89 182.03 245.35 180.95 244.51 180 243.85 179.63 
M 244.79 202.98 245.45 202.62 246.28 201.69 246.82 200.65 246.82 200 246.28 198.96 245.45 198.04 244.79 197.68 
M 247.2 209.19 247.2 208.7 246.65 207.69 245.8 206.8 245.14 206.46 
M 234.33 120.24 235.2 119.87 236.31 118.93 237.03 117.86 237.03 117.2 236.31 116.13 235.2 115.18 234.33 114.81 
M 236.19 129.73 237.04 129.33 238.12 128.3 238.82 127.13 238.82 126.41 238.12 125.24 237.04 124.21 236.19 123.8 
M 238.51 140.04 239.3 139.6 240.31 138.49 240.97 137.22 240.97 136.43 240.31 135.16 239.3 134.04 238.51 133.61 
M 243.39 147.18 242.83 145.89 241.94 144.73 241.24 144.28 
M 246.18 180.55 246.73 180.17 247.44 179.22 247.89 178.14 247.89 177.47 247.44 176.39 246.73 175.43 246.38 175.2 
M 246.55 189.42 247.08 189.05 247.77 188.12 248.22 187.05 248.22 186.4 247.77 185.34 247.08 184.4 246.55 184.03 
M 247.56 207.31 248.1 206.95 248.8 206.04 249.25 205.01 249.25 204.37 248.8 203.34 248.1 202.42 247.56 202.07 
M 237.24 116.97 238.24 116.62 239.52 115.71 240.35 114.69 240.35 114.06 239.52 113.04 238.24 112.14 237.24 111.79 
M 243.11 146.02 243.96 145.59 245.06 144.49 245.76 143.24 245.76 142.46 245.06 141.21 243.96 140.11 243.11 139.68 
M 248.35 175.9 249.08 175.44 
M 249.76 202.74 250.41 202.38 251.23 201.45 251.76 200.4 251.76 199.74 251.23 198.69 250.41 197.76 249.76 197.4 
M 252.13 209.4 252.25 208.54 251.71 207.53 250.87 206.63 250.21 206.28 
M 240.23 113.76 241.03 113.43 242.05 112.57 242.71 111.6 242.71 110.99 242.16 110.18 
M 241.68 122.35 242.46 121.99 243.46 121.06 244.1 120.02 244.1 119.37 243.46 118.32 242.46 117.4 241.68 117.04 
M 248.64 146.64 248.04 145.87 247.4 145.45 
M 252.54 207.11 253.08 206.75 253.77 205.82 254.21 204.78 254.21 204.13 253.77 203.08 253.08 202.16 252.54 201.79 
M 242.97 110.55 244.3 109.94 
M 244.27 118.73 245.16 118.39 246.29 117.51 247.03 116.52 247.03 115.9 246.29 114.9 245.16 114.03 244.27 113.68 
M 245.72 127.54 246.59 127.17 247.71 126.22 248.42 125.15 248.42 124.49 247.71 123.42 246.59 122.47 245.72 122.1 
M 247.4 136.95 248.24 136.55 249.31 135.55 250 134.4 250 133.7 249.31 132.56 248.24 131.55 247.4 131.15 
M 249.93 146.46 251.06 145.35 251.7 144.17 251.7 143.43 251.06 142.25 250.05 141.2 249.27 140.79 
M 253.77 184.5 254.41 184.14 255.22 183.21 255.75 182.16 255.75 181.51 255.22 180.46 254.41 179.53 253.77 179.17 
M 249.65 132.6 250.33 132.22 251.2 131.26 251.76 130.17 251.76 129.49 251.2 128.4 250.33 127.44 249.65 127.06 
M 251.32 142.15 251.97 141.75 252.8 140.74 253.34 139.58 253.34 138.87 252.8 137.72 251.97 136.7 251.32 136.31 
M 253.22 146.13 253.06 146.03 
M 249.31 111.65 250.09 111.34 251.09 110.54 251.73 109.63 251.73 109.24 
M 250.54 119.77 251.32 119.43 252.33 118.56 252.98 117.58 252.98 116.97 252.33 115.98 251.32 115.11 250.54 114.77 
M 251.92 128.49 252.72 128.13 253.74 127.19 254.4 126.14 254.4 125.49 253.74 124.43 252.72 123.5 251.92 123.14 
M 256.8 145.67 257.34 144.69 257.34 143.98 256.72 142.84 255.76 141.83 255.02 141.44 
M 252.81 115.88 253.41 115.56 254.18 114.72 254.67 113.76 254.67 113.17 254.18 112.22 253.41 111.38 252.81 111.05 
M 254.18 124.39 254.81 124.03 255.62 123.12 256.14 122.1 256.14 121.46 255.62 120.43 254.81 119.52 254.18 119.17 
M 255.66 133.37 256.32 133 257.15 132.04 257.7 130.96 257.7 130.29 257.15 129.21 256.32 128.25 255.66 127.88 
M 257.14 142.67 257.78 142.28 258.59 141.3 259.12 140.18 259.12 139.49 258.59 138.38 257.78 137.39 257.14 137.01 
M 254.76 111.91 255.43 111.6 256.29 110.78 256.85 109.86 256.85 109.29 256.67 108.99 
M 256.19 120.29 256.9 119.94 257.82 119.04 258.41 118.02 258.41 117.39 257.82 116.38 256.9 115.48 256.19 115.13 
M 257.81 129.21 258.58 128.84 259.55 127.9 260.18 126.82 260.18 126.16 259.55 125.09 258.58 124.14 257.81 123.77 
M 259.35 138.35 260.12 137.97 261.11 137.01 261.75 135.91 261.75 135.24 261.11 134.14 260.12 133.18 259.35 132.8 
M 262.94 145.14 262.95 144.43 262.34 143.33 261.4 142.36 260.66 141.98 
M 264.11 201.52 264.72 201.15 265.51 200.18 266.01 199.08 266.01 198.4 265.51 197.3 264.72 196.33 264.11 195.95 
M 267.07 207.98 267.07 207.71 266.54 206.63 265.71 205.67 265.07 205.3 
M 257.96 115.94 258.5 115.6 259.2 114.71 259.65 113.71 259.65 113.09 259.2 112.09 258.5 111.2 257.96 110.86 
M 259.8 124.94 260.41 124.57 261.18 123.61 261.68 122.53 261.68 121.86 261.18 120.77 260.41 119.82 259.8 119.44 
M 261.61 134.15 262.26 133.78 263.09 132.81 263.62 131.71 263.62 131.03 263.09 129.94 262.26 128.97 261.61 128.59 
M 262.98 143.21 263.61 142.83 264.42 141.88 264.95 140.8 264.95 140.13 264.42 139.05 263.61 138.09 262.98 137.72 
M 265.57 178.86 266.07 178.51 266.72 177.61 267.14 176.6 267.14 175.97 266.9 175.39 
M 265.88 196.46 266.38 196.08 267.02 195.11 267.43 194.02 267.43 193.34 267.02 192.24 266.38 191.27 265.88 190.9 
M 266.98 206.06 267.5 205.68 268.16 204.68 268.59 203.56 268.59 202.86 268.16 201.74 267.5 200.74 266.98 200.35 
M 259.59 111.62 260.22 111.29 261.02 110.44 261.54 109.48 261.54 108.88 
M 261.45 120.49 262.13 120.12 263 119.16 263.56 118.09 263.56 117.42 263 116.34 262.13 115.39 261.45 115.01 
M 263.54 129.83 264.28 129.45 265.23 128.46 265.84 127.35 265.84 126.66 265.23 125.54 264.28 124.56 263.54 124.17 
M 265.21 138.98 265.97 138.61 266.95 137.65 267.58 136.56 267.58 135.89 266.95 134.8 265.97 133.84 265.21 133.46 
M 268.4 144.58 267.95 143.79 267.02 142.86 266.28 142.49 
M 268.74 201 269.36 200.61 270.14 199.62 270.65 198.49 270.65 197.8 270.14 196.67 269.36 195.68 268.74 195.29 
M 271.95 207.24 271.5 206.3 270.67 205.31 270.02 204.93 
M 262.78 115.71 263.31 115.34 263.99 114.4 264.43 113.32 264.43 112.66 263.99 111.59 263.31 110.64 262.78 110.27 
M 265.25 125.36 265.84 124.96 266.6 123.94 267.09 122.78 267.09 122.06 266.6 120.9 265.84 119.88 265.25 119.48 
M 267.48 134.87 268.11 134.48 268.92 133.49 269.45 132.37 269.45 131.68 268.92 130.55 268.11 129.56 267.48 129.18 
M 268.76 143.7 269.39 143.34 270.19 142.41 270.7 141.36 270.7 140.71 270.19 139.66 269.39 138.73 268.76 138.37 
M 271.73 205.7 272.25 205.3 272.92 204.27 273.35 203.1 273.35 202.37 272.92 201.2 272.25 200.17 271.73 199.76 
M 264.31 111.22 264.95 110.87 265.78 109.99 266.31 108.89 
M 266.61 120.59 267.29 120.2 268.17 119.19 268.73 118.04 268.73 117.33 268.17 116.19 267.29 115.18 266.61 114.78 
M 273.61 144.37 272.58 143.29 271.86 142.94 
M 276.84 206.75 276.49 206.01 275.66 204.99 275 204.59 
M 267.71 115.56 268.28 115.18 269 114.18 269.46 113.05 269.46 112.35 269 111.22 268.28 110.23 267.71 109.84 
M 270.68 125.73 271.28 125.31 272.05 124.23 272.54 123.01 272.54 122.26 272.05 121.04 271.28 119.96 270.68 119.54 
M 274.44 144.11 275.05 143.76 275.83 142.85 276.34 141.82 276.34 141.18 275.83 140.15 275.05 139.24 274.44 138.89 
M 275.03 195.21 275.55 194.83 276.22 193.83 276.65 192.71 276.65 192.02 276.22 190.89 275.55 189.9 275.03 189.52 
M 276.55 205.4 277.09 204.98 277.77 203.91 278.21 202.7 278.21 201.96 277.77 200.75 277.09 199.68 276.55 199.27 
M 269.4 111.14 270.1 110.79 271.01 109.88 271.48 109.05 
M 271.94 120.8 272.66 120.39 273.58 119.35 274.18 118.17 274.18 117.44 273.58 116.26 272.66 115.22 271.94 114.81 
M 274.74 130.78 275.48 130.37 276.42 129.33 277.02 128.14 277.02 127.41 276.42 126.23 275.48 125.19 274.74 124.78 
M 277.31 190.48 277.95 190.11 278.78 189.17 279.31 188.1 279.31 187.44 278.78 186.37 277.95 185.43 277.31 185.06 
M 278.26 200.17 278.9 199.77 279.73 198.73 280.26 197.56 280.26 196.84 279.73 195.67 278.9 194.64 278.26 194.24 
M 281.89 206.56 281.53 205.78 280.69 204.74 280.03 204.33 
M 273.13 115.81 273.75 115.41 274.55 114.4 275.06 113.26 275.06 112.55 274.55 111.41 273.75 110.4 273.13 110 
M 276.24 126.1 276.86 125.68 277.65 124.59 278.16 123.36 278.16 122.6 277.65 121.36 276.86 120.27 276.24 119.85 
M 279.93 194.9 280.48 194.51 281.17 193.52 281.62 192.39 281.62 191.7 281.17 190.57 280.48 189.58 279.93 189.2 
M 281.52 205.18 282.06 204.75 282.76 203.67 283.21 202.45 283.21 201.69 282.76 200.47 282.06 199.39 281.52 198.96 
M 275.08 111.6 275.86 111.25 276.85 110.35 277.49 109.16 
M 277.61 121.25 278.37 120.84 279.35 119.8 279.98 118.62 279.98 117.89 279.35 116.72 278.37 115.68 277.61 115.27 
M 283.27 199.97 283.93 199.56 284.78 198.53 285.33 197.36 285.33 196.63 284.78 195.46 283.93 194.42 283.27 194.02 
M 287.1 206.63 286.63 205.63 285.78 204.58 285.11 204.16 
M 279.06 116.47 279.73 116.09 280.58 115.09 281.13 113.97 281.13 113.27 280.58 112.15 279.73 111.15 279.06 110.77 
M 282 126.6 282.65 126.18 283.47 125.11 284 123.9 284 123.16 283.47 121.95 282.65 120.88 282 120.46 
M 284.45 136.2 285.07 135.81 285.87 134.82 286.38 133.7 286.38 133.01 285.87 131.88 285.07 130.89 284.45 130.51 
M 286.47 143.97 286.91 143.47 287.41 142.46 287.41 141.83 286.91 140.82 286.13 139.93 285.51 139.58 
M 284.87 185.75 285.45 185.41 286.2 184.53 286.69 183.54 286.69 182.93 286.2 181.94 285.45 181.07 284.87 180.73 
M 285.03 194.75 285.59 194.36 286.31 193.38 286.77 192.27 286.77 191.58 286.31 190.47 285.59 189.49 285.03 189.1 
M 286.6 205.04 287.16 204.62 287.87 203.54 288.33 202.31 288.33 201.55 287.87 200.32 287.16 199.24 286.6 198.82 
M 281.22 112.49 282.05 112.14 283.12 111.26 283.81 110.26 283.81 109.63 283.35 108.96 
M 283.59 121.95 284.4 121.56 285.43 120.54 286.09 119.39 286.09 118.67 285.43 117.52 284.4 116.51 283.59 116.11 
M 286.17 131.7 286.94 131.31 287.93 130.29 288.57 129.14 288.57 128.43 287.93 127.27 286.94 126.26 286.17 125.86 
M 287.98 181.9 288.72 181.57 289.67 180.72 290.28 179.76 290.28 179.17 289.67 178.21 288.72 177.36 287.98 177.03 
M 288.4 199.87 289.08 199.46 289.95 198.43 290.51 197.27 290.51 196.54 289.95 195.38 289.08 194.35 288.4 193.95 
M 285.3 117.43 286 117.06 286.9 116.09 287.48 114.99 287.48 114.31 286.9 113.22 286 112.25 285.3 111.87 
M 288 127.3 288.67 126.9 289.53 125.86 290.08 124.68 290.08 123.96 289.53 122.78 288.67 121.74 288 121.34 
M 287.66 113.67 288.53 113.33 289.65 112.47 290.37 111.49 290.37 110.88 289.65 109.9 288.53 109.04 287.91 108.8 
M 289.82 122.89 290.66 122.51 291.73 121.52 292.42 120.4 292.42 119.71 291.73 118.59 290.66 117.6 289.82 117.22 
M 292.15 132.4 292.95 132.01 293.97 131.02 294.63 129.9 294.63 129.2 293.97 128.08 292.95 127.09 292.15 126.7 
M 293.65 141.26 294.42 140.9 295.41 139.98 296.05 138.93 296.05 138.28 295.41 137.23 294.42 136.3 293.65 135.94 
M 294.56 174.72 295.36 174.39 296.39 173.55 297.06 172.45 
M 290.12 110.01 290.87 109.71 291.92 108.82 
M 291.78 118.63 292.51 118.26 293.44 117.33 294.04 116.26 294.04 115.6 293.44 114.54 292.51 113.6 291.78 113.24 
M 294.2 128.19 294.89 127.8 295.77 126.8 296.34 125.66 296.34 124.96 295.77 123.82 294.89 122.82 294.2 122.43 
M 298.96 142.8 298.49 141.9 297.66 141.01 297.02 140.66 
M 294.31 115.05 295.2 114.72 296.35 113.88 297.08 112.92 297.08 112.33 296.35 111.38 295.2 110.54 294.31 110.21 
M 296.23 124 297.09 123.63 298.19 122.68 298.89 121.6 298.89 120.93 298.19 119.85 297.09 118.89 296.23 118.52 
M 298.28 133.23 299.09 132.86 300.13 131.89 300.81 130.81 300.81 130.13 300.13 129.05 299.09 128.09 298.28 127.71 
M 299.58 141.95 300.37 141.59 301.38 140.68 302.03 139.65 302.03 139.01 301.38 137.97 300.37 137.06 299.58 136.7 
M 296.92 111.58 297.69 111.28 298.66 110.53 299.29 109.56 
M 298.41 119.98 299.15 119.62 300.1 118.71 300.71 117.68 300.71 117.05 300.1 116.02 299.15 115.11 298.41 114.76 
M 300.53 129.21 301.23 128.84 302.13 127.87 302.71 126.77 302.71 126.1 302.13 125 301.23 124.03 300.53 123.66 
M 304.83 143.37 304.43 142.62 303.6 141.73 302.94 141.39 
M 304.05 172.23 304.71 171.89 305.79 170.6 
M 301.04 116.52 301.94 116.2 303.1 115.38 303.84 114.45 303.84 113.88 303.1 112.95 301.94 112.13 301.04 111.81 
M 302.73 125.21 303.59 124.85 304.7 123.93 305.42 122.88 305.42 122.24 304.7 121.19 303.59 120.27 302.73 119.91 
M 305.6 142.7 306.39 142.35 307.4 141.46 308.05 140.44 308.05 139.81 307.4 138.8 306.39 137.9 305.6 137.55 
M 308.12 206.12 307.34 205.28 306.6 204.88 
M 303.76 113.17 304.52 112.88 305.49 112.15 306.12 111.31 306.08 110.73 
M 305.07 121.36 305.81 121.02 306.76 120.14 307.37 119.14 307.37 118.52 306.76 117.53 305.81 116.65 305.07 116.3 
M 306.91 130.29 307.61 129.93 308.51 128.99 309.09 127.94 309.09 127.28 308.51 126.23 307.61 125.3 306.91 124.93 
M 308.57 206.02 309.22 205.62 310.04 204.58 310.57 203.4 310.57 202.68 310.04 201.5 309.22 200.46 308.57 200.06 
M 307.77 117.99 308.67 117.68 309.82 116.88 310.56 115.98 310.56 115.42 309.82 114.51 308.67 113.71 307.77 113.4 
M 309.22 126.41 310.08 126.06 311.18 125.17 311.89 124.17 311.89 123.54 311.18 122.54 310.08 121.65 309.22 121.3 
M 311.59 143.43 312.37 143.09 313.37 142.21 314.01 141.22 314.01 140.61 313.37 139.61 312.37 138.73 311.59 138.39 
M 310.99 201.4 311.78 201.02 312.79 200.06 313.44 198.97 313.44 198.3 312.79 197.21 311.78 196.25 310.99 195.87 
M 312.8 205.73 312.27 205.46 
M 310.56 114.74 311.32 114.46 312.29 113.73 312.92 112.91 312.92 112.4 312.66 112.06 
M 311.7 122.7 312.43 122.36 313.36 121.51 313.97 120.55 313.97 119.95 313.36 118.99 312.43 118.14 311.7 117.81 
M 313.22 131.3 313.91 130.95 314.79 130.05 315.36 129.04 315.36 128.41 314.79 127.39 313.91 126.5 313.22 126.15 
M 316.7 144.97 316.23 144.08 315.42 143.22 314.79 142.89 
M 313.55 196.97 314.22 196.62 315.08 195.72 315.64 194.69 315.64 194.06 315.08 193.03 314.22 192.13 313.55 191.78 
M 315.77 205.47 316.49 204.11 316.49 203.41 315.96 202.29 315.14 201.3 314.5 200.91 
M 314.46 119.42 315.35 119.11 316.48 118.34 317.21 117.46 317.21 116.92 316.48 116.04 315.35 115.27 314.46 114.97 
M 315.63 127.51 316.47 127.18 317.54 126.32 318.23 125.36 318.23 124.76 317.54 123.79 316.47 122.94 315.63 122.61 
M 316.98 202.11 317.75 201.74 318.74 200.8 319.38 199.74 319.38 199.09 318.74 198.02 317.75 197.09 316.98 196.72 
M 317.36 116.3 318.11 116.02 319.06 115.31 319.68 114.51 319.68 114.02 319.31 113.54 
M 318.24 123.93 318.95 123.61 319.86 122.8 320.45 121.88 320.45 121.31 319.86 120.39 318.95 119.58 318.24 119.27 
M 319.37 132.12 320.03 131.78 320.88 130.93 321.43 129.96 321.43 129.37 320.88 128.4 320.03 127.55 319.37 127.21 
M 320.17 140.25 320.8 139.92 321.6 139.08 322.12 138.12 322.12 137.53 321.6 136.57 320.8 135.72 320.17 135.39 
M 322.18 145.19 321.86 144.58 321.08 143.73 320.47 143.41 
M 322.2 204.37 322.2 203.98 321.68 202.91 320.89 201.96 320.27 201.59 
M 321.02 120.69 321.87 120.4 322.96 119.65 323.67 118.81 323.67 118.29 322.96 117.44 321.87 116.7 321.02 116.41 
M 321.86 128.42 322.67 128.1 323.7 127.29 324.36 126.37 324.36 125.8 323.7 124.88 322.67 124.07 321.86 123.75 
M 322.66 136.42 323.42 136.1 324.39 135.26 325.02 134.32 325.02 133.73 324.39 132.79 323.42 131.95 322.66 131.63 
M 323.11 144.41 323.84 144.08 324.77 143.24 325.38 142.3 325.38 141.71 324.77 140.77 323.84 139.93 323.11 139.61 
M 323.28 169.02 323.96 168.68 324.82 167.8 325.37 166.81 325.37 166.2 324.82 165.21 323.96 164.33 323.28 163.99 
M 322.78 202.65 323.53 202.29 324.48 201.37 325.1 200.33 325.1 199.68 324.48 198.64 323.53 197.72 322.78 197.36 
M 323.94 117.62 324.64 117.35 325.55 116.66 326.13 115.88 326.13 115.43 
M 324.54 124.92 325.22 124.62 326.09 123.84 326.64 122.97 326.64 122.43 326.09 121.55 325.22 120.78 324.54 120.48 
M 325.29 132.72 325.93 132.4 326.74 131.58 327.26 130.66 327.26 130.09 326.74 129.17 325.93 128.35 325.29 128.04 
M 327.17 144.72 326.58 144.07 325.98 143.75 
M 325.85 164.73 326.4 164.39 327.12 163.53 327.58 162.55 327.58 162.03 
M 325.4 198.4 326.02 198.05 326.81 197.14 327.33 196.12 327.33 195.49 326.81 194.46 326.02 193.56 325.4 193.2 
M 326.93 202.97 326.46 202.41 325.86 202.05 
M 327.28 121.68 328.09 121.4 329.11 120.68 329.78 119.86 329.78 119.35 329.11 118.54 328.09 117.82 327.28 117.53 
M 327.84 129.09 328.6 128.78 329.58 128 330.22 127.12 330.22 126.58 329.58 125.69 328.6 124.91 327.84 124.61 
M 328.34 136.81 329.07 136.5 330.01 135.69 330.61 134.78 330.61 134.21 330.01 133.3 329.07 132.49 328.34 132.17 
M 328.61 144.65 329.32 144.33 330.24 143.51 330.82 142.58 330.82 142.01 330.24 141.08 329.32 140.26 328.61 139.94 
M 328.37 168.86 329.04 168.53 329.89 167.66 330.44 166.67 330.44 166.06 329.89 165.08 329.04 164.21 328.37 163.87 
M 330.13 118.57 330.79 118.3 331.76 117.44 
M 330.52 125.61 331.16 125.32 331.98 124.57 332.5 123.73 332.5 123.21 331.98 122.36 331.16 121.62 330.52 121.33 
M 330.98 133.11 331.59 132.8 332.37 132.02 332.87 131.13 332.87 130.58 332.37 129.69 331.59 128.9 330.98 128.59 
M 331.28 140.82 331.87 140.51 332.63 139.7 333.12 138.79 333.12 138.22 332.63 137.31 331.87 136.5 331.28 136.18 
M 332.77 145.21 331.96 144.27 331.38 143.95 
M 330.96 164.57 331.52 164.24 332.23 163.39 332.7 162.43 332.7 161.84 331.84 160.41 
M 330.9 190.15 331.49 189.8 332.24 188.9 332.72 187.89 332.72 187.26 332.24 186.25 331.49 185.35 330.9 185 
M 333.19 122.33 333.95 122.05 334.92 121.35 335.54 120.55 335.54 120.06 334.92 119.26 333.95 118.56 333.19 118.28 
M 333.54 129.52 334.28 129.22 335.21 128.47 335.82 127.61 335.82 127.08 335.21 126.22 334.28 125.46 333.54 125.17 
M 333.85 137.05 334.56 136.75 335.47 135.96 336.06 135.06 336.06 134.51 335.47 133.61 334.56 132.82 333.85 132.51 
M 334 144.79 334.7 144.48 335.6 143.67 336.17 142.75 336.17 142.18 335.6 141.27 334.7 140.46 334 140.14 
M 333.73 160.57 334.42 160.25 335.3 159.42 335.86 158.47 335.86 157.99 
M 333.48 168.73 334.15 168.39 335.02 167.53 335.57 166.55 335.57 165.95 335.02 164.97 334.15 164.11 333.48 163.77 
M 336.19 126.01 336.8 125.73 337.57 125 338.07 124.18 338.07 123.67 337.57 122.84 336.8 122.12 336.19 121.83 
M 336.65 140.94 337.23 140.63 337.97 139.83 338.45 138.93 338.45 138.37 337.97 137.47 337.23 136.67 336.65 136.36 
M 337.99 145.18 337.27 144.38 336.7 144.06 
M 336.15 164.52 336.73 164.19 337.46 163.35 337.93 162.41 337.93 161.82 337.46 160.87 336.73 160.03 336.15 159.7 
M 335.95 172.86 336.52 172.51 337.25 171.63 337.72 170.63 337.72 170.01 337.25 169.02 336.52 168.14 335.95 167.79 
M 338.8 122.69 339.52 122.42 340.45 121.73 340.81 121.24 
M 339.23 137.19 339.92 136.88 340.81 136.1 341.39 135.22 341.39 134.67 340.81 133.79 339.92 133.01 339.23 132.7 
M 339.31 144.87 340 144.56 340.89 143.75 341.45 142.84 341.45 142.28 340.89 141.36 340 140.56 339.31 140.24 
M 339.02 160.64 339.71 160.31 340.6 159.48 341.17 158.54 341.17 157.96 340.6 157.02 339.71 156.18 339.23 155.96 
M 338.73 168.75 339.42 168.42 340.3 167.56 340.87 166.58 340.87 165.98 340.3 165.01 339.42 164.15 338.73 163.81 
M 341.94 141 342.51 140.69 343.25 139.9 343.72 139 343.72 138.45 343.25 137.55 342.51 136.76 341.94 136.45 
M 343.3 145.32 342.53 144.42 341.96 144.11 
M 341.86 156.73 342.44 156.41 343.18 155.59 343.65 154.65 343.65 154.07 343.35 153.48 
M 341.5 164.66 342.08 164.33 342.83 163.49 343.31 162.54 343.31 161.95 342.83 160.99 342.08 160.15 341.5 159.83 
M 341.29 172.98 341.88 172.63 342.62 171.75 343.1 170.76 343.1 170.14 342.62 169.14 341.88 168.26 341.29 167.92 
M 343.47 196.91 343.53 196.16 343.05 195.14 342.3 194.24 341.72 193.89 
M 344.23 122.89 344.48 122.79 
M 344.4 129.88 345.09 129.59 345.98 128.85 346.56 128.02 346.56 127.5 345.98 126.67 345.09 125.93 344.4 125.65 
M 344.52 137.25 345.21 136.94 346.09 136.17 346.66 135.29 346.66 134.75 346.09 133.87 345.21 133.1 344.52 132.8 
M 344.57 144.91 345.25 144.59 346.13 143.79 346.7 142.88 346.7 142.31 346.13 141.4 345.25 140.6 344.57 140.29 
M 344.54 152.78 345.57 152.14 
M 344.33 160.74 345.02 160.41 345.91 159.58 346.48 158.63 346.48 158.05 345.91 157.1 345.02 156.27 344.33 155.94 
M 344.07 168.89 344.77 168.55 345.66 167.69 346.24 166.71 346.24 166.11 345.66 165.13 344.77 164.27 344.07 163.93 
M 346.99 126.33 347.57 126.05 348.31 125.34 348.78 124.48 
M 348.64 145.55 347.76 144.43 347.19 144.11 
M 347.13 156.79 347.7 156.47 348.43 155.64 348.9 154.7 348.9 154.12 348.43 153.18 347.7 152.35 347.13 152.02 
M 346.83 164.78 347.41 164.45 348.14 163.6 348.62 162.65 348.62 162.05 348.14 161.1 347.41 160.25 346.83 159.92 
M 346.82 181.89 347.4 181.53 348.15 180.62 348.63 179.59 348.63 178.96 348.15 177.93 347.4 177.02 346.82 176.66 
M 346.99 190.61 347.58 190.26 348.33 189.35 348.82 188.33 348.82 187.69 348.33 186.67 347.58 185.76 346.99 185.4 
M 349.69 129.94 350.37 129.65 351.25 128.92 351.82 128.09 351.82 127.58 351.25 126.75 350.37 126.02 349.69 125.73 
M 349.8 144.91 350.48 144.6 351.35 143.8 351.92 142.89 351.92 142.32 351.35 141.41 350.48 140.61 349.8 140.3 
M 349.77 152.81 350.45 152.48 351.33 151.66 351.89 150.73 351.89 150.15 350.97 148.88 
M 349.6 160.81 350.29 160.48 351.17 159.64 351.73 158.69 351.73 158.1 351.17 157.15 350.29 156.31 349.6 155.98 
M 349.42 177.58 350.11 177.23 351.01 176.34 351.58 175.32 351.58 174.69 351.01 173.67 350.11 172.77 349.42 172.42 
M 349.59 186.33 350.29 185.98 351.19 185.07 351.77 184.04 351.77 183.4 351.19 182.38 350.29 181.47 349.59 181.11 
M 352.27 126.38 352.91 126.05 
M 352.37 133.52 352.93 133.23 353.66 132.48 354.13 131.63 354.13 131.1 353.66 130.25 352.93 129.5 352.37 129.2 
M 352.1 164.85 352.67 164.52 353.41 163.67 353.88 162.7 353.88 162.11 353.41 161.14 352.67 160.29 352.1 159.96 
M 351.99 173.26 352.57 172.92 353.31 172.03 353.78 171.02 353.78 170.4 353.31 169.39 352.57 168.5 351.99 168.15 
M 352.19 182.05 352.78 181.7 353.52 180.79 354 179.75 354 179.11 353.52 178.08 352.78 177.17 352.19 176.81 
M 352.37 190.76 352.95 190.41 353.69 189.51 354.17 188.49 354.17 187.85 353.69 186.83 352.95 185.93 352.37 185.58 
M 352.51 194.24 352.41 194.19 
M 354.93 129.95 355.61 129.67 356.48 128.94 357.04 128.11 357.04 127.8 
M 354.75 177.71 355.44 177.35 356.32 176.45 356.9 175.43 356.9 174.8 356.32 173.78 355.44 172.88 354.75 172.52 
M 354.93 186.44 355.62 186.09 356.51 185.18 357.08 184.16 357.08 183.52 356.51 182.5 355.62 181.59 354.93 181.24 
M 357.58 133.51 358.14 133.22 358.86 132.47 359.33 131.62 359.33 131.09 358.86 130.24 358.14 129.49 357.58 129.2 
M 357.27 173.34 357.84 172.99 358.58 172.1 359.05 171.09 359.05 170.46 358.58 169.44 357.84 168.55 357.27 168.2 
M 357.52 182.16 358.1 181.81 358.84 180.9 359.31 179.86 359.31 179.23 358.84 178.19 358.1 177.28 357.52 176.93 
M 360.12 129.92 360.93 129.52 
M 360.02 160.79 360.69 160.46 361.55 159.62 362.11 158.66 362.11 158.07 361.55 157.11 360.69 156.27 360.02 155.94 
M 359.89 169.1 360.57 168.75 361.44 167.88 362 166.88 362 166.27 361.44 165.27 360.57 164.4 359.89 164.05 
M 360.02 177.77 360.71 177.42 361.59 176.51 362.15 175.49 362.15 174.86 361.59 173.83 360.71 172.93 360.02 172.58 
M 360.19 186.46 360.87 186.11 361.74 185.21 362.31 184.19 362.31 183.56 361.74 182.55 360.87 181.65 360.19 181.3 
M 362.74 133.46 363.3 133.17 364.02 132.42 364.43 131.65 
M 362.8 140.97 363.36 140.66 364.07 139.87 364.53 138.97 364.53 138.42 364.07 137.53 363.36 136.74 362.8 136.43 
M 362.5 173.37 363.07 173.02 363.79 172.12 364.26 171.09 364.26 170.46 363.79 169.44 363.07 168.54 362.5 168.19 
M 362.8 182.21 363.37 181.85 364.1 180.94 364.57 179.92 364.57 179.28 364.1 178.25 363.37 177.35 362.8 176.99 
M 365.36 144.81 366.02 144.5 366.87 143.69 367.42 142.79 367.42 142.22 366.87 141.31 366.02 140.51 365.36 140.2 
M 365.13 160.69 365.8 160.36 366.65 159.52 367.2 158.56 367.2 157.96 366.65 157.01 365.8 156.16 365.13 155.83 
M 365.25 177.78 365.93 177.43 366.81 176.52 367.37 175.5 367.37 174.86 366.81 173.84 365.93 172.93 365.25 172.58 
M 365.4 186.43 366.08 186.08 366.95 185.19 367.51 184.18 367.51 183.55 366.95 182.54 366.08 181.65 365.4 181.31 
M 367.9 140.85 368.45 140.55 369.14 139.76 369.59 138.86 369.59 138.31 369.14 137.41 368.45 136.62 367.9 136.31 
M 367.67 173.34 368.24 172.99 368.97 172.08 369.44 171.05 369.44 170.41 368.97 169.38 368.24 168.47 367.67 168.11 
M 368.03 182.22 368.6 181.87 369.33 180.96 369.8 179.93 369.8 179.3 369.33 178.27 368.6 177.36 368.03 177.01 
M 370.31 136.92 371.07 136.51 
M 370.31 152.47 370.95 152.14 371.77 151.32 372.3 150.38 372.3 149.8 371.77 148.87 370.95 148.04 370.31 147.72 
M 370.59 186.38 371.27 186.04 372.13 185.15 372.69 184.15 372.69 183.53 372.13 182.53 371.27 181.65 370.59 181.3 
M 372.78 140.51 373.29 140.2 374.08 139.14 
M 375.02 144.03 375.61 143.72 376.51 142.64 
M 375.09 152.07 375.7 151.74 376.48 150.89 376.99 149.93 376.99 149.34 376.48 148.38 375.7 147.54 375.09 147.21 
M 376.65 181.86 375.75 181.27 
M 379.59 151.47 380.47 150.78 
M 382.76 165.88 382.43 165.28 381.54 164.36 380.84 164 
M 217.79 116.49 219.76 116.26 
M 233.58 111.66 233.31 42.42 234.41 42.39 237.52 111.18 
M 249.9 108.98 261.53 31.66 262.62 31.81 253.86 109.13 
M 266.41 108.52 285.62 30 286.69 30.24 270.34 109.01 
M 282.92 108.29 299.41 59.98 300.46 60.31 286.89 108.79 
M 306.82 110.5 308.67 111.22 
M 220.48 116.05 224.69 101.6 226.61 94.26 228.3 86.89 229.73 79.46 230.91 71.98 231.86 64.47 233.34 49.34 
M 234.72 49.31 240.93 48.42 243.96 47.78 246.9 46.92 249.75 45.82 252.51 44.47 255.18 42.92 260.37 39.4 
M 261.74 39.58 266.73 40.6 269.21 40.9 271.67 40.96 274.11 40.77 276.53 40.32 278.93 39.64 283.7 37.85 
M 285.05 38.15 286.6 44.68 287.57 47.86 288.74 50.93 290.16 53.89 291.81 56.74 293.66 59.49 297.76 64.81 
M 299.08 65.22 299.68 75.66 300.2 80.83 300.93 85.97 301.93 91.05 303.17 96.08 304.65 101.07 308.02 110.97 
M 237.84 48.91 243.96 47.78 246.9 46.92 249.75 45.82 252.51 44.47 257.79 41.2 
M 238.53 56.09 243.93 55.09 246.53 54.33 249.05 53.36 251.48 52.17 256.15 49.27 
M 239.21 63.26 243.9 62.4 246.16 61.74 250.45 59.86 254.51 57.35 
M 239.9 70.44 243.87 69.71 245.79 69.15 249.43 67.56 252.86 65.43 
M 240.58 77.62 243.84 77.01 245.41 76.56 248.4 75.25 251.22 73.5 
M 241.27 84.79 245.04 83.97 247.38 82.95 249.58 81.58 
M 264.24 40.13 269.21 40.9 271.67 40.96 274.11 40.77 276.53 40.32 281.32 38.79 
M 263.83 47.03 268.3 47.72 270.51 47.78 272.71 47.6 274.88 47.2 279.19 45.82 
M 263.41 53.93 267.39 54.54 269.35 54.59 271.31 54.44 273.24 54.07 277.07 52.85 
M 263 60.82 266.48 61.36 269.91 61.27 271.6 60.95 274.95 59.88 
M 262.58 67.72 265.57 68.18 268.5 68.1 269.96 67.83 272.83 66.91 
M 262.17 74.61 264.65 75 265.88 75.03 268.31 74.71 270.71 73.94 
M 261.76 81.51 263.74 81.81 265.7 81.77 268.59 80.97 
M 285.78 41.44 287.57 47.86 288.74 50.93 290.16 53.89 291.81 56.74 295.67 62.17 
M 284.17 53.25 285.64 58.54 286.61 61.08 287.78 63.52 289.14 65.87 292.33 70.35 
M 282.56 65.05 283.72 69.23 285.4 73.15 286.47 75 288.99 78.53 
M 280.95 76.86 281.8 79.91 283.03 82.78 285.64 86.71 
M 206.89 151.38 211.17 150.92 217.75 149.85 221.04 149.46 224.79 149.29 235.02 147.92 241.83 147.42 244.88 146.95 254.46 146.03 261.31 145.09 264.38 145.18 268.08 144.6 271.6 144.38 278.68 144.27 281.66 143.9 284.44 144.14 287.85 143.85 298.05 142.54 301.26 143.46 305.04 143.36 311.59 143.73 314.72 144.88 321.78 145.31 324.87 144.43 329.41 145 332.88 145.22 337.64 145.23 340.35 144.82 344.47 145.52 348.96 145.55 352.48 146.11 354.6 146.7 331.32 160.73 328.13 161.78 322.2 164.35 313.51 168.4 310.39 169.53 307.02 170.4 300.39 171.47 297.44 172.37 291.01 173.63 283.56 173.88 277.51 175.08 274.31 175.34 271.01 175.49 260.41 175.26 257.4 175.7 254.05 175.49 251.12 175.63 244.39 175.01 240.82 174.51 237.61 174.36 232.18 173.48 211.07 166.35 206.08 164.45 204.24 163.39 
M 207.97 153.41 211.28 153.45 218.08 152.82 221.38 152.69 224.93 152.85 235.26 152.6 242.35 153.17 248.5 153.1 255.08 152.79 258.67 152.94 264.99 152.78 268.65 153.08 271.97 153.1 
M 211.46 155.78 218.42 155.86 221.77 156.08 225.22 156.73 229.02 157.1 232.55 157.38 235.32 157.36 238.61 157.56 245.8 158.35 248.65 158.49 251.97 158.32 255.29 158.7 258.98 159.37 262.15 159.72 265.11 159.84 268.23 160.89 271.73 161.35 279.38 162.74 281.95 164.43 285.08 165.67 288.62 166.65 
M 211.63 158.34 215.12 158.71 222.28 159.83 228.33 161.38 234.98 162.76 245.29 164.08 248.36 164.21 254.72 165.86 258.65 167.49 
M 208.49 160.39 211.88 160.91 215.47 161.71 222.42 164.17 228.17 165.81 235.19 168.16 238.59 169.72 241.96 170.4 
M 205.06 161.86 212.27 163.73 215.74 164.96 218.83 167.14 221.96 168.97 
M 221.59 203.87 235.57 242 234.55 242.41 217.92 205.36 
M 219.75 203.1 220.04 204.5 
M 222.26 215.03 230.22 252.77 229.15 253.02 215.9 204.03 
M 217.86 202.35 217.94 203.54 
M 218.58 213.94 221.63 263.13 220.54 263.22 213.92 202.68 
M 215.94 201.6 215.86 202.52 
M 215 212.54 209.88 272.38 208.78 272.31 211.99 201.34 
M 214.28 201.01 214.16 201.48 
M 211.47 212.79 195.49 280 194.41 279.76 210.41 200.16 
M 232.89 238.71 230.75 240.19 229.89 241.02 229.23 241.93 228.82 242.94 228.65 244.05 228.69 245.25 229.17 247.8 
M 227.83 248.12 225.23 249.27 224.1 249.97 223.16 250.81 222.43 251.8 221.91 252.95 221.58 254.23 221.25 257.05 
M 219.87 257.17 216.86 257.91 215.5 258.44 214.28 259.15 213.24 260.05 212.37 261.15 211.64 262.43 210.48 265.3 
M 209.1 265.21 205.78 265.52 204.23 265.87 202.79 266.41 201.49 267.17 200.31 268.16 199.26 269.35 197.36 272.1 
M 231.78 239.43 229.89 241.02 229.23 241.93 228.82 242.94 228.65 244.05 228.89 246.51 
M 228.75 231.19 227.3 232.4 226.8 233.1 226.35 234.73 226.53 236.61 
M 225.72 222.94 224.71 223.79 224.36 224.27 224.05 225.4 224.18 226.71 
M 226.49 248.67 224.1 249.97 223.16 250.81 222.43 251.8 221.91 252.95 221.38 255.61 
M 224.81 240.68 222.84 241.76 222.06 242.45 221.46 243.27 221.03 244.21 220.59 246.41 
M 223.12 232.7 221.57 233.55 220.48 234.73 220.14 235.48 219.8 237.21 
M 221.43 224.71 220.3 225.33 219.51 226.2 219.01 228.01 
M 218.34 257.51 215.5 258.44 214.28 259.15 213.24 260.05 212.37 261.15 211.03 263.83 
M 217.86 249.73 215.42 250.54 214.37 251.15 213.48 251.92 212.73 252.87 211.58 255.17 
M 217.38 241.96 215.34 242.64 214.46 243.14 213.08 244.59 212.12 246.52 
M 216.91 234.19 215.26 234.73 213.95 235.67 213.44 236.31 212.67 237.86 
M 216.43 226.42 214.65 227.14 213.8 228.02 213.22 229.2 
M 207.42 265.33 204.23 265.87 202.79 266.41 201.49 267.17 200.31 268.16 198.29 270.68 
M 208.09 257.83 205.27 258.3 204 258.78 202.85 259.45 201.81 260.33 200.02 262.56 
M 208.76 250.32 206.31 250.74 205.21 251.15 203.31 252.5 201.76 254.43 
M 209.42 242.82 207.35 243.17 205.57 244.02 204.81 244.66 203.49 246.3 
M 210.09 235.32 208.39 235.61 207.63 235.9 206.31 236.83 205.23 238.18 
M 210.76 227.82 208.84 228.27 207.8 229 206.96 230.05 
M 339.63 201.34 349.05 211.84 348.31 212.66 336.97 204.26 
M 324.53 207.67 357.24 248.65 356.4 249.36 321.51 210.22 
M 308.41 210.22 332.22 253.93 331.27 254.48 304.99 212.21 
M 295.6 210.99 300.77 224.11 299.79 224.62 292.09 212.8 
M 347.17 211.82 347.3 219.38 347.58 223.11 348.07 226.8 348.83 230.44 349.84 234.03 351.07 237.56 353.97 244.55 
M 352.91 245.44 347.53 244.97 344.88 244.94 342.28 245.14 339.71 245.6 337.19 246.31 334.72 247.25 329.84 249.56 
M 328.64 250.25 323.31 243.14 320.5 239.73 317.53 236.5 314.37 233.45 311.04 230.58 307.54 227.89 300.25 222.8 
M 347.19 215.61 347.58 223.11 348.07 226.8 348.83 230.44 349.84 234.03 352.48 241.07 
M 350.21 245.16 344.88 244.94 342.28 245.14 339.71 245.6 337.19 246.31 332.27 248.36 
M 344.03 239.02 339.63 238.84 337.48 239.01 335.36 239.38 333.28 239.97 329.22 241.66 
M 337.84 232.88 334.37 232.74 332.68 232.87 329.38 233.63 326.17 234.96 
M 331.65 226.74 327.88 226.73 325.47 227.29 323.13 228.26 
M 326.01 246.66 320.5 239.73 317.53 236.5 314.37 233.45 311.04 230.58 303.93 225.31 
M 382.76 155.49 386.74 154.15 389.96 152.53 395.65 149.38 398.13 147.7 400.73 146.68 404.25 145.58 411.46 142.13 413.46 140.34 416.62 138.09 419.26 135.67 421.87 133.73 423.67 132.08 426.86 130.98 428.99 129.05 435.59 126.39 439.1 122.57 441.86 120.32 444.62 119.6 446.04 119.02 449.04 118.38 452.34 116.95 455.08 115.26 456.7 113.79 479.09 116.46 479.37 119.91 479.95 123.66 480.98 127.87 482.36 132.41 481.24 134.88 479 137.21 477.11 139.9 472.41 144.34 471.13 147.64 470.1 151.18 466.78 152.43 463.08 157.84 461.75 160.94 460.23 163.83 457.99 166.01 457.17 169.2 457.93 171.92 459.53 175.49 461.83 179.74 463.56 183.45 467 187.76 478.44 200.8 479.72 204.15 480.49 208.25 480.2 214.6 478.92 216.65 478.72 219.29 458.4 227.41 455.87 226.64 449.72 222.9 447.76 220.5 447.35 217.96 444.42 215.42 439.73 212.05 434.87 210.15 432.27 207.59 430.32 205.4 423.84 202.76 419.47 201.85 417.04 200.15 415.46 197.36 413.53 194.7 408.52 190.42 405.15 189.07 402.48 186.91 395.8 182.44 392.63 180.73 382.76 173 
M 382.76 157.79 386.8 157.06 390.33 155.58 393.97 155.01 397.13 153.96 400.13 152.57 402.65 151.73 406.52 150.84 412.29 147.99 415.34 147.15 419.03 147.09 422.21 145.41 423.49 143.63 426.26 142.21 429.35 139.59 433.86 137.85 437.24 134.65 440.29 134.69 443.26 133.12 446.29 132.05 
M 393.82 158.99 397.45 158.6 400.42 157.36 403.62 156.45 406.15 156.46 409.65 155.38 413.22 154.78 417.15 153.45 426.61 151.62 429.71 150.48 436.5 149.43 439.15 147.95 442.46 146.95 446.01 146.62 
M 393.95 162.54 400.79 162.62 408.37 162.15 415.85 162.14 418.72 160.97 422.46 160.48 425.59 158.59 427.9 157.61 431.23 157.57 
M 390.64 165.81 393.65 166.12 397.2 166.23 400.88 167.95 405.64 168.73 410.09 168.51 413.89 169.31 417.15 169.32 420.75 168.43 424.39 169.06 428.63 168.46 431.42 167.73 433.96 167.85 435.85 170.01 438.2 169.57 
M 386.56 168.17 390.08 169.27 393.39 169.88 396.79 171.09 404.61 172.91 407.44 173.26 411.27 174.51 414.4 175.88 420.07 176.74 424.44 177.6 426.81 177.36 429.92 177.96 433.81 177.64 438.01 179.28 441.5 180.94 445.93 180.41 453.04 180.57 456.51 181.04 458.75 181.98 462.11 182.98 
M 392.98 173.72 406.41 177.81 409.43 179.05 415.96 182.62 419.66 184.03 423.67 183.39 426.57 184.89 429.59 185.97 433.59 187.16 436.48 189.57 
M 389.93 176.05 392.91 177.33 399.64 180.82 402.92 182.71 409.6 185.02 413.22 186.91 417.05 187.85 419.57 188.99 430.59 197.07 433.97 197.98 436.67 200.32 437.86 203.36 440.58 205.34 444.91 205.51 448.83 204.92 452.09 205.73 
M 365.54 189.02 361.54 190.9 359.9 192.37 357.7 196.2 355.54 196.87 351.51 195.73 349.57 195.98 347.57 196.73 343.39 197.66 345.71 199.97 
M 51.72 152.64 52.46 152.05 55.76 150.09 59.81 148.36 81.24 143.74 89.18 140.9 98.52 137.88 109.27 135.57 121.22 132.71 144.84 128.39 156.59 126.83 167.33 124.58 177.52 123.4 186.45 122.68 193.45 122.26 197.47 122.18 200.91 126.35 202.06 130.28 203.51 134.23 205.22 138.22 206.4 142.14 206.8 145.99 206.86 153.61 205.67 157.29 204.92 161.02 203.86 164.72 200.59 171.99 200.02 175.74 198.04 183.15 196.46 186.79 194.05 190.35 190.18 193.65 169.98 192.9 154.91 192.04 141.52 190.39 128.74 188.34 118 186.3 99.27 181.67 91.04 178.82 83.31 175.83 70.79 169.86 
M 167.13 145.45 166.71 148.67 162.7 154.51 160.2 157.19 157.43 159.72 155.34 162.03 154.51 166.24 155.27 168.27 157.52 173.06 157.64 175.83 134.26 175.73 124.65 175.06 114.76 174.12 105.99 173.04 97.7 171.41 90.11 169.58 
M 68.68 169.67 63.08 166.67 58.36 163.74 48.59 158.45 46.69 156.38 46.93 153.62 49.19 152.04 51.93 152.69 60.39 160.01 66.51 165.75 70.97 169.65 
M 70.65 170.59 62.38 172.71 54.77 175.01 41.17 178.59 38.67 177.51 37.63 174.81 39.08 172.43 41.82 171.69 52.9 171.08 60.99 170.21 70.54 169.55 
M 109.94 153.85 108.86 149.78 109.17 145.57 110.82 141.69 113.65 138.56 117.33 136.52 121.49 135.78 125.65 136.44 129.38 138.41 132.26 141.48 134 145.32 134.39 149.52 133.39 153.62 131.12 157.17 127.82 159.79 123.85 161.2 119.63 161.24 115.63 159.91 112.28 157.36 109.94 153.85 
M 109.78 153.49 108.94 150.44 108.81 148.86 109.14 145.7 110.23 142.73 111.04 141.37 113.14 138.99 115.75 137.2 118.73 136.11 120.29 135.85 123.46 135.92 126.51 136.76 
M 111.81 152.65 111.38 151.41 111.01 148.81 111.06 147.5 111.45 145.61 
M 114.04 141.19 115.63 139.83 116.76 139.16 119.22 138.25 120.52 138.04 123.14 138.09 125.67 138.79 
M 113.84 151.81 113.29 149.8 113.2 148.76 113.24 147.72 113.6 146.09 
M 115.6 142.73 116.87 141.64 117.76 141.11 119.72 140.39 121.79 140.18 123.85 140.48 124.83 140.82 
M 116.94 150.7 116.51 149.06 116.75 147.12 
M 118.25 144.78 119.9 143.76 121.56 143.47 123.23 143.73 124.72 144.52 125.87 145.75 126.57 147.28 126.72 148.96 126.32 150.6 125.42 152.02 124.1 153.07 122.51 153.63 120.82 153.65 119.22 153.12 117.88 152.1 116.94 150.7 
M 118.43 144.58 118.3 144.83 
M 117.1 147.24 116.57 148.3 
M 120.54 143.65 119.45 145.82 
M 118.7 147.32 116.99 150.76 
M 122.23 143.57 120.61 146.81 
M 120.43 147.16 117.94 152.14 
M 123.68 143.97 119.13 153.05 
M 124.93 144.75 120.53 153.56 
M 125.97 145.97 122.14 153.64 
M 126.63 147.95 124.06 153.08 
M 53.7 151.32 58.21 155.83 
M 58.08 149.11 64.54 155.57 
M 63.17 147.61 68.76 153.19 
M 68.62 146.47 72.42 150.26 
M 74.08 145.34 78.8 150.05 
M 79.47 144.14 85.45 150.12 
M 84.5 142.58 88.14 146.22 
M 89.35 140.84 95.59 147.08 
M 94.34 139.23 99.34 144.24 
M 99.39 137.69 105.18 143.49 
M 104.81 136.53 110.44 142.16 
M 110.21 135.34 113.55 138.67 
M 115.53 134.07 117.89 136.42 
M 120.85 132.8 124.28 136.22 
M 126.42 131.77 131.33 136.68 
M 132 130.77 137.02 135.79 
M 137.56 129.74 142.71 134.88 
M 143.12 128.71 148.65 134.24 
M 148.86 127.86 154.05 133.04 
M 154.68 127.08 158.88 131.29 
M 160.25 126.06 164.54 130.35 
M 165.7 124.92 169.54 128.76 
M 171.47 124.1 177.71 130.34 
M 177.37 123.41 182.66 128.7 
M 183.46 122.92 187.8 127.26 
M 189.63 122.49 196.16 129.03 
M 195.94 122.21 200.62 126.89 
M 188.85 124.69 188.33 123.52 187.57 122.61 
M 186.21 188.2 184.01 188.54 181.98 189.71 181.13 190.69 180.86 192.6 180.64 193.14 
M 174.41 182.34 173.03 182.22 171.54 181.79 171.21 181.39 171.09 180.55 
M 91.56 177.35 90.81 178.72 
M 94.55 180.03 95.15 179.62 
M 182.26 166.71 183.92 166.26 187.69 166.23 188.87 165.91 
M 198.47 157.59 196.14 156.89 194.27 156.54 192.65 155.49 191.48 155.03 
M 75.76 146.93 76.38 147.36 76.64 148.01 76.53 148.43 75.94 148.99 
M 191.98 185.22 191.73 184.58 191.75 184 192.12 182.89 192.72 182.35 194.72 181.26 196.02 179.84 
M 139.14 146.03 141.63 148.31 142.52 149.35 143.03 150.41 142.98 151.32 
M 134.23 174.07 133.8 173.4 133.46 172.4 132.65 168.97 132.82 167.71 134.04 165.65 
M 132.62 157.05 133.41 157.21 134.26 157.17 135.01 156.95 136.23 156.3 137.03 156.11 137.77 156.39 
M 178.82 154.17 178.7 153.17 178.15 151.31 176.8 149.13 176.53 148.88 175.88 148.75 173.9 149.59 
M 111.62 177.53 110.84 180.41 109.25 182.24 108.46 183.99 
M 94 159.3 93.47 158.86 92.55 157.09 91.58 156.24 90.48 155.88 89.62 155.95 89.19 156.22 
M 182.82 179.96 182.57 181.2 181.48 182.4 180.68 184.04 
M 168.06 126.09 166.99 124.65 
M 126.18 187.85 125.19 186.76 123.35 183.76 121.92 182.36 121.44 181.2 
M 124.26 136.17 124.06 136.19 
M 113.87 138.44 113.71 138.37 
M 119.57 135.23 116.88 136.71 115.88 136.97 113.17 137.19 112.3 137.98 111.97 138.8 
M 149.47 137.76 147.56 137.44 
M 116.21 185.86 117.15 184.2 117.51 181.65 117.27 180.16 116.96 179.9 116.04 179.68 
M 109.83 155.6 110.1 156.25 111.08 156.85 112.04 157.68 
M 149.82 141.88 148.84 141.77 148.08 141.87 147.43 142.19 146.97 142.69 146.53 143.8 146.66 146.04 
M 105.96 143.94 107.66 144.34 109.25 145.39 
M 193.09 183.21 193.34 182.6 195.04 181.21 197.42 178.56 198.46 176.97 
M 192.18 152.66 190.84 151.8 190.42 151.32 190.24 150.18 190.57 149.62 
M 140.88 184.91 144.04 186.73 145.7 187.39 146.67 188.01 146.89 188.41 146.83 188.84 145.85 190.18 
M 199.28 133.3 199.78 131.36 200.13 128.21 200.39 127.52 200.84 127.33 
M 113.78 138.49 113.12 138.4 112.59 138.58 
M 72.23 152.77 71.11 152.5 70.31 152.09 68.47 150.64 66.27 148.22 64.56 147.42 
M 143.99 162.44 145.84 162.58 146.28 162.4 
M 155.49 164.34 154.47 164.8 153.69 164.87 151.24 164.67 148.4 165.21 148.09 165.18 147.74 164.89 147.36 163.72 
M 108.16 135.8 109.83 137.7 111.08 138.81 
M 95.35 149.57 92.75 150.23 90.05 152.51 
M 172.62 140.37 173.98 141.49 175.25 143.55 176.23 144.64 177.76 145.57 179.17 146.19 181.51 146.65 
M 72.62 170.74 73.6 170.29 74.16 169.82 75.14 168.31 75.53 167.37 75.69 166.26 75.64 165.02 
M 113.72 138.52 112.88 138.48 112.43 138.71 112.15 139.13 
M 113.8 138.48 113.21 138.37 112.67 138.53 
M 167.66 173.63 165.56 172.89 160.43 172.62 159.37 172.83 155.95 175.26 154.24 175.9 152.43 176.32 
M 104.46 152.44 104.92 152.58 105.36 152.95 106.64 155.22 
M 71.98 170.43 73.38 169.86 74.03 169.4 75.01 167.85 75.32 166.83 75.41 165.7 75.15 163 
M 170.15 143.47 171.89 143.2 172.89 143.38 175.13 145.13 177.51 146.64 
M 192.81 181.23 194.41 180.78 196.84 178.34 197.73 176.77 198.01 175.88 198.09 173.15 
M 146.99 148.25 147.25 147.36 147.13 147.05 
M 124.83 134.29 122.36 134.6 121.01 135.11 119.38 136.16 
M 114.27 138.22 113.72 138.13 
M 157.29 174.97 155.8 175.97 154.16 176.68 147.78 177.91 146.17 177.81 
M 174.6 170.29 173.84 167.83 173.86 167.27 174.41 166.32 175.27 165.32 175.79 163.63 
M 170.7 165.67 170.07 164.6 168.48 163.15 167.72 162.61 166.81 162.35 
M 203.42 159.54 204.97 160.79 
M 159.16 161.77 159.24 162.39 159.46 162.76 163.61 167.47 164.12 168.28 
M 105.37 162.79 104.11 159.21 103.22 157.69 102.7 157.19 100.57 155.5 98.22 154.26 95.59 153.53 94.17 153.46 
M 180.27 134.32 180.65 135.76 180.45 137.76 180.86 138.73 181.4 139.21 182.16 139.59 183.04 139.81 184.63 139.9 
M 96.25 180.62 95.69 179.73 95.48 179 
M 132.41 138.88 131.05 140.19 
M 94.54 139.17 95.35 140.09 
M 100.5 137.45 101.26 138.02 102.02 138.31 105.08 138.78 105.92 139.12 110.36 141.71 
M 192.7 134.28 193.79 133.12 195.17 132.16 196.81 129.91 198.81 127.73 199.75 127.11 200.47 127.01 
M 190.12 160.65 190.05 159.78 189.55 158.37 189.25 157.96 
M 129.73 185.08 127.55 184.14 123.28 181.78 122.71 181.23 122.19 180.2 121.33 179.48 120.29 179.28 119.77 179.43 
M 116.49 160.2 116.49 160.82 116.73 161.27 
M 164.73 151.02 164.86 148.29 164.44 146.32 164.15 145.7 163.81 145.45 162.57 145.13 161.86 144.52 
M 165.39 171.37 162.43 170.97 159.19 171.01 155.4 171.4 153.51 171.93 
M 94.5 139.18 95.27 140.1 
M 96.28 180.63 95.64 179.56 
M 138.26 136.24 138.12 137.55 138.53 139.78 138.85 140.56 139.48 141.31 140.43 142.03 143.83 144.28 145 145.24 
M 138.26 158.89 143.53 160.51 145.23 161.33 
M 194.78 160.27 194.51 159.07 194.2 158.64 192.01 157.36 189.31 156.48 
M 80.57 166.7 80.85 166.26 81.65 165.7 82.73 165.61 83.41 165.77 87.14 168.11 87.88 168.83 89.12 170.61 89.52 171.55 
M 73.49 171.16 74.62 170.06 75.66 168.58 76.07 167.73 76.3 166.63 76.31 165.39 76 162.66 75.52 161.39 74.86 160.31 74.08 159.49 
M 70.8 169.84 71.79 170.53 
M 62.5 166.31 62.37 166.76 62.51 168 62.91 167.14 63.34 166.82 
M 54.99 161.96 54.12 163.81 54.12 166.09 54.66 164.19 56.19 162.62 
M 47.69 157.48 45.87 160.86 45.74 164.19 46.41 161.24 48.77 158.55 
M 70.58 169.96 71.97 169.71 
M 62.82 170.08 62.93 169.62 63.49 168.8 63.58 169.5 63.93 170 
M 55.24 170.75 55.3 169.27 56.09 167.7 55.95 169.15 56.57 170.62 
M 47.74 171.37 47.67 168.93 48.69 166.6 48.31 168.81 49.16 171.28 
M 40.27 172.11 40.03 168.58 41.29 165.5 40.68 168.46 41.66 171.73 
M 47.53 176.82 52.77 178.1 58.25 179.16 63.67 179.89 69.05 180.24 74.45 180.21 79.95 179.91 91.04 178.82 
M 62.38 179.64 63.73 176.83 
M 74.44 178.24 74.25 177.6 
M 79.01 179.62 78.33 178.45 78.21 177.88 
M 203 132.85 205.58 135.43 
M 200.12 121.18 209.96 131.02 
M 206.66 118.93 218.68 130.96 
M 213.9 117.39 221.25 124.73 
M 221.15 115.85 230.27 124.97 
M 227.91 113.82 241.03 126.95 
M 234.68 111.81 241.69 118.82 
M 241.88 110.22 252.23 120.57 
M 249.79 109.34 256.83 116.38 
M 258.19 108.95 267.54 118.31 
M 266.93 108.91 274.09 116.07 
M 275.94 109.13 282.82 116.01 
M 284.49 108.9 292.98 117.39 
M 293.2 108.82 300.08 115.7 
M 303.4 110.23 315.91 122.74 
M 314.38 112.43 321.83 119.88 
M 326.19 115.45 337.89 127.15 
M 340.74 121.21 349.55 130.02 
M 355.42 127.11 362.19 133.87 
M 226.42 94.99 227.89 97.94 
M 227.99 88.25 228.48 89.23 
M 229.46 91.19 232.41 97.09 
M 229.4 81.18 236.77 95.92 
M 230.63 73.76 239.96 92.42 
M 247.97 108.44 248.61 109.71 
M 233.14 68.9 242.97 88.55 
M 250.83 104.27 251.81 106.24 
M 252.8 108.22 253.3 109.21 
M 236.97 66.67 237.95 68.63 
M 238.94 70.6 240.9 74.53 
M 243.85 80.42 249.74 92.21 
M 255.64 104 258.2 109.13 
M 233.33 49.5 233.82 50.48 
M 245.61 74.06 251.5 85.85 
M 252.48 87.81 256.41 95.67 
M 257.39 97.63 258.38 99.6 
M 259.36 101.56 263.1 109.04 
M 237.97 48.89 238.46 49.87 
M 248.28 69.52 249.26 71.49 
M 250.25 73.45 260.07 93.1 
M 263.02 98.99 264 100.96 
M 264.98 102.92 268 108.96 
M 250.86 64.79 252.82 68.72 
M 253.81 70.68 264.61 92.3 
M 270.51 104.09 271.49 106.05 
M 254.24 61.67 255.22 63.63 
M 257.19 67.56 263.08 79.35 
M 264.06 81.31 267.01 87.21 
M 261.28 65.86 270.12 83.54 
M 271.06 75.53 272.04 77.49 
M 277.93 89.28 282.84 99.11 
M 283.83 101.07 286.77 106.97 
M 262.98 49.5 265.93 55.39 
M 266.91 57.36 267.9 59.32 
M 280.67 84.87 281.65 86.83 
M 282.63 88.8 288.53 100.58 
M 292.52 108.58 293.08 109.69 
M 264.59 42.83 272.45 58.55 
M 282.27 78.2 283.26 80.16 
M 284.24 82.13 295.05 103.74 
M 297.01 107.67 298.28 110.2 
M 268.53 40.81 278.84 61.45 
M 286.7 77.16 299.47 102.71 
M 302.42 108.6 303.19 110.15 
M 273.47 40.82 281.82 57.52 
M 290.66 75.21 302.45 98.78 
M 277.96 39.91 286.31 56.61 
M 297.12 78.23 300.91 85.81 
M 282.17 38.45 290.52 55.15 
"/></svg>