<svg xmlns="http://www.w3.org/2000/svg" width="520" height="320"><rect x="0" y="0" width="520" height="320" fill="floralwhite"/><rect x="10" y="10" width="500" height="300" stroke="black" stroke-width="1" fill="none"/><path stroke="black" stroke-width="1" fill="none" stroke-linecap="round" stroke-linejoin="round" d="
M 188.69 128.38 196.02 126.23 210.56 123.99 225.09 120.73 232.36 119.53 239.63 118.92 254.16 118.53 268.7 118.79 275.96 118.5 283.23 118.53 290.5 119.26 297.77 120.29 312.3 122.7 319.57 124.59 348.64 133.56 355.91 136.86 363.18 141.61 370.44 152.81 
M 370.44 193.48 363.18 203.2 355.91 207.01 348.64 209.7 334.11 213.29 326.84 215.37 319.57 217.78 312.3 219.82 305.04 220.89 297.77 221.46 283.23 222.05 268.7 221.88 261.43 222.45 254.16 223.36 246.89 224.03 239.63 224.13 232.36 223.39 225.09 221.75 217.82 219.44 210.56 216.7 203.29 213.74 196.02 211.21 188.75 209.57 181.51 208.72 
M 367.88 161.31 361.81 157.04 358.44 155.64 351.44 153.63 344.39 152.24 337.53 151.35 325.15 150.68 
M 321.65 150.53 311.78 149.8 
M 308.61 149.44 305.44 149.07 
M 302.25 148.71 287.93 147.33 281.95 147.06 275.89 147.42 271.11 147.98 
M 267.86 148.37 264.61 148.74 
M 258.26 149.42 246.88 150.97 241.8 151.47 
M 238.41 151.63 233.42 151.58 228.62 151.24 
M 225.42 150.96 218.75 150.54 
M 211.77 150.21 208.33 149.9 
M 204.92 149.58 198.12 149.19 
M 188.24 200.11 191.27 203.34 
M 197.72 203.62 200.71 206.68 
M 196.29 195.52 197.86 197.25 
M 210.53 196.64 218.91 207.47 
M 194.68 165.73 195.95 167.79 
M 230.23 213.31 232.82 215.86 
M 195.44 156.09 199.24 163.15 
M 223.22 196.27 226.54 201.05 
M 193.44 142.59 197.8 149.43 206.42 165.14 208.42 168.3 
M 230 197.26 230.04 197.31 
M 232.54 200.9 235.12 204.4 
M 237.74 207.74 240.3 210.8 
M 245.13 215.8 247.43 217.74 
M 188.89 128.73 196.59 138.65 201.55 145.81 203.86 149.46 210.32 161.1 213.88 166.92 
M 234.68 195.3 238.52 200.79 
M 193.33 127.01 201.32 137.14 
M 203.89 140.59 209.97 149.4 213.32 155.08 
M 215.53 158.99 219.07 164.83 222.07 168.85 
M 240.02 194.3 241.85 196.96 
M 244.51 200.66 247.11 204.03 
M 258.67 215.39 260.48 216.77 
M 198.17 125.88 207.45 137.45 
M 209.98 140.79 213.71 145.88 217.34 151.27 
M 219.64 155.05 223.21 160.84 225.96 164.6 229.61 169.16 
M 245.92 194.1 249.12 198.59 252.89 203.26 
M 255.29 205.91 257.61 208.27 
M 262.13 212.5 264.38 214.39 
M 203.23 125.05 209.83 133.05 217.36 142.73 222.26 149.68 227.1 157.12 231.39 162.6 
M 234.36 166.24 236.79 169.45 
M 250.34 191.8 252.39 194.74 256.15 199.55 
M 263.29 207.27 265.66 209.51 
M 272.64 215.27 274.27 216.44 
M 208.31 124.31 213.56 130.58 220.89 139.98 230.5 153.81 239.36 164.32 240.72 166.19 
M 255.74 191.03 256.88 192.59 
M 261.81 198.8 264.27 201.51 
M 266.75 204.04 269.22 206.41 
M 271.66 208.66 274.03 210.78 
M 276.28 212.74 278.42 214.5 
M 213.04 123.44 214.86 125.36 217.24 128.23 222.02 134.36 233.62 150.78 242.45 160.79 243.89 162.62 
M 246.65 166.38 248.94 169.94 
M 262.49 192.09 267.6 198.13 
M 272.72 203.28 275.19 205.63 
M 277.53 207.87 281.76 211.97 
M 217.46 122.44 220.9 126.06 223.3 129.04 228.01 135.29 234.55 144.65 236.92 147.76 245.42 157.35 248.37 160.93 251.14 164.78 254.52 170.17 
M 265.65 188.36 270.84 194.78 
M 273.46 197.58 278.47 202.56 
M 282.89 207.11 284.85 209.31 
M 286.68 211.41 288.44 213.41 
M 221.84 121.46 224.56 124.17 227.01 126.99 231.76 133.02 238.29 141.8 244.3 149.06 
M 247.04 152.16 251.31 157.27 254.12 161.11 260.05 170.39 
M 269.97 186.27 273.97 191.36 
M 276.54 194.31 279.06 196.98 
M 281.46 199.45 285.79 204.23 
M 226.36 120.52 228.32 122.35 230.76 124.97 237.83 133.41 243.23 140.16 
M 245.46 142.84 251.61 150.05 254.3 153.44 259.68 161.19 263.32 166.96 
M 279.44 190.85 285.45 197.6 288.6 201.41 
M 231.32 119.71 234.57 122.86 241.55 130.63 254.92 146.42 259.9 153.25 266.05 162.73 
M 268.15 166.28 270.87 170.83 
M 282.28 187.13 287.2 193.13 
M 236.8 119.16 240.64 122.95 249.6 132.67 256.08 140.21 259.42 144.53 
M 261.77 147.71 264.22 151.15 
M 268.88 158.38 273.86 167.02 276.45 171.06 
M 282.94 180.34 285.16 183.27 
M 287.8 186.65 290.32 189.83 
M 292.66 192.84 294.77 195.72 
M 298.64 201.24 300.65 203.91 
M 307.34 211.44 311.04 214.84 
M 242.42 118.81 250.88 127.18 256.39 133.22 
M 258.52 135.75 266.34 145.61 268.75 148.92 271.04 152.39 273.1 155.91 276.89 162.88 282.21 171.29 
M 288.16 179.57 293.52 186.37 
M 306.35 204.11 308.64 206.78 
M 247.96 118.62 254.28 124.29 258.78 128.88 272.16 145.08 274.46 148.41 276.53 151.85 282.21 162.54 284.32 166.18 287.83 171.52 
M 291.21 176.1 293.69 179.21 
M 299.24 186.25 307.76 198.75 
M 309.94 201.6 312.24 204.37 
M 314.59 207.02 316.92 209.49 
M 253.69 118.54 257.61 121.62 259.91 123.65 262.13 125.88 268.41 133.42 275.42 141.5 277.76 144.6 279.92 147.97 281.89 151.46 287.58 162.56 289.75 166.27 293.57 171.75 
M 295.05 173.71 302.28 182.73 
M 306.99 189.68 309.08 192.93 
M 260.22 118.66 263.16 120.99 265.33 123.08 267.41 125.39 271.52 130.44 278.49 138.25 280.85 141.11 283.11 144.28 285.24 147.72 290.11 156.97 
M 292.12 160.78 294.3 164.51 
M 296.73 168.13 299.47 171.76 
M 302.4 175.45 306.61 181.01 307.82 182.82 
M 310.12 186.4 314.52 193.09 
M 266.72 118.77 268.51 120.4 271.57 123.78 
M 273.62 126.24 276.82 130.06 283.86 137.86 286.19 140.84 290.63 147.64 296.84 158.91 299.08 162.66 301.56 166.32 309.84 177.43 313.35 182.96 
M 315.57 186.52 317.85 189.93 
M 327.26 201.54 329.55 204.16 
M 272.57 118.64 286.91 134.61 291.62 140.67 296.28 147.57 302.97 158.94 305.49 162.76 313.44 173.84 316.85 179.39 
M 319.05 183 321.29 186.44 
M 328.22 195.41 332.85 201.01 
M 337.36 206.16 338.83 207.68 
M 278.28 118.51 287.76 128.67 292.45 134.12 299.76 143.96 303.23 149.46 
M 305.55 153.3 309.31 159.14 317.19 170.23 323.68 180.94 325.85 184.16 331.47 191.57 
M 333.77 194.54 336.09 197.53 
M 338.39 200.44 340.67 203.16 
M 284.52 118.66 291.1 125.37 295.76 130.78 300.65 137.12 306.55 145.93 
M 308.91 149.68 311.43 153.52 
M 314.14 157.37 319.5 164.82 
M 324.05 171.87 326.15 175.27 
M 330.37 181.59 332.54 184.59 
M 291.72 119.43 296.84 124.85 301.51 130.73 306.22 137.32 312.08 146.15 
M 314.57 149.86 324 162.85 327.44 168.02 
M 329.59 171.36 335.99 180.76 
M 338.17 183.88 342.71 190.39 
M 347.43 196.8 349.81 199.79 
M 352.16 202.61 353.46 204.12 
M 298.85 120.46 302.55 124.9 310.55 135.95 
M 312.92 139.26 319.02 147.96 325.86 157.05 
M 328.4 160.64 330.73 164.14 
M 332.96 167.55 335.16 170.87 
M 337.35 174.1 339.54 177.3 
M 341.74 180.52 343.97 183.79 
M 346.25 187.12 348.58 190.46 
M 350.94 193.74 355.67 199.94 
M 305.13 121.45 314.96 134.49 327.97 151.2 331.81 156.6 
M 334.15 160.2 336.41 163.76 
M 338.7 167.28 347.71 180.69 
M 349.96 184.09 352.24 187.48 
M 311.18 122.51 318.33 131.37 327.6 142.13 
M 330.34 145.49 334.3 150.78 342.36 163.64 
M 344.69 167.19 347.01 170.65 
M 349.29 174.1 356.01 184.6 
M 318.36 124.28 332.75 140.1 336.77 145.17 
M 339.26 148.77 350.84 167.13 
M 353.16 170.73 355.43 174.37 
M 357.66 178.04 359.85 181.66 
M 327.38 127.05 335.02 135.2 
M 337.73 138.32 341.68 143.34 344.25 146.97 352.47 159.92 
M 359.33 171.05 361.54 174.84 
M 336.59 129.87 345.31 140.03 349.36 145.41 
M 351.92 149.12 354.33 152.82 
M 356.6 156.49 358.81 160.16 
M 361.02 163.91 363.24 167.75 
M 365.42 171.64 369.53 179.01 
M 344.94 132.37 348.87 136.88 353.18 142.16 
M 355.91 145.84 359.66 151.4 362.97 156.93 
M 354.48 136.21 358.33 140.76 362.45 146.32 
M 367.06 153.8 369.11 157.58 
M 192.63 127.22 189.97 130.58 
M 200.42 125.51 197.12 129.06 194.86 132.02 191.94 136.31 
M 208.78 124.25 205.79 126.94 203.28 129.49 200.9 132.29 198.65 135.36 193.57 143.05 
M 218.04 122.31 212.1 127.66 207.13 132.8 204.77 135.69 202.49 138.85 195.1 149.69 
M 227.83 120.28 221.82 124.99 
M 219.41 127.18 215.79 130.82 210.96 136.14 208.6 139.11 205.08 144.08 
M 202.65 147.64 197.39 155.2 
M 236.03 119.22 229.21 124.79 224.27 129.2 219.44 134.02 217.09 136.64 212.35 142.5 209.97 145.83 195.52 166.95 
M 242.53 118.81 235.37 125.36 225.43 134.89 223.06 137.36 218.48 142.8 212.31 151.27 
M 206.84 159.16 204.17 163.17 
M 248.14 118.62 242.61 124.12 
M 240.17 126.71 236.5 130.66 226.54 140.78 224.31 143.44 218.55 151.32 
M 215.84 155.07 211.62 161.07 206.99 168.24 
M 189.32 196.86 187.33 200.08 
M 253.28 118.54 248.35 123.75 
M 246.04 126.41 240.02 133.39 232.25 141.54 229.9 144.22 227.76 147.02 217.99 160.92 212.97 168.48 
M 258.18 118.62 255.05 121.91 245.92 133.05 235.63 144.7 233.35 147.62 228.22 155.42 
M 225.87 158.97 219.19 168.74 
M 262.99 118.71 258.5 123.8 249.27 135.42 240.47 146.17 
M 238.2 149.32 236.16 152.48 
M 232.31 159.05 225.82 169.01 
M 206.71 200.87 204.53 203.93 
M 202.42 206.77 201.17 208.35 
M 267.75 118.78 264 123.21 247.71 144.07 243.17 150.73 238.56 159.08 
M 236.66 162.56 234.46 166.25 
M 215.51 197.92 208.49 207.1 
M 272.71 118.63 267.17 125.41 255.97 140.22 252.49 145.09 
M 250.28 148.51 247.24 153.82 241.86 164.34 238.83 169.53 
M 222.02 197.61 218.25 202.8 214.47 207.37 
M 277.78 118.51 274.5 122.27 270.26 127.82 259.32 142.94 256.1 148.02 
M 254.1 151.64 248.67 162.77 
M 246.75 166.38 244.77 169.77 
M 228 197.39 225.67 201.05 
M 282.74 118.53 279.89 121.82 275.49 127.44 267.27 139.21 262.79 145.9 260.68 149.5 258.79 153.28 253.5 164.93 250.65 170.01 
M 234.85 195.24 233.85 197.11 
M 231.68 200.89 229.35 204.4 
M 287.26 118.94 283.1 123.96 278.8 129.9 274.86 135.67 268.61 145.41 266.4 149.12 264.34 153.01 259.05 165.16 256.36 170.24 
M 241.19 194.39 237.68 200.78 
M 291.77 119.44 288.64 123.05 284.25 129.21 278.38 138.25 272.16 148.61 269.92 152.51 267.84 156.58 264.3 164.96 261.71 170.46 
M 247.94 192.92 241.58 204.37 
M 296.39 120.09 294.31 122.33 289.79 128.37 285.68 134.74 281.84 141.05 273.12 155.91 270.98 160.01 266.37 170.65 
M 253.73 192.82 249.59 200.34 
M 247.51 204.02 245.38 207.54 
M 301.32 120.85 297.77 124.82 295.49 127.78 290.17 135.86 
M 288.16 139.16 276.07 159.27 273.91 163.29 270.62 170.82 
M 259.41 192.4 257.42 196.09 
M 255.36 199.69 253.28 203.24 
M 244.46 215.86 242.4 217.99 
M 306.37 121.67 303.44 124.96 301.24 127.71 296.89 133.88 281.38 158.86 279.09 162.68 276.99 166.56 276.08 168.58 
M 268.07 186.45 267.04 188.31 
M 265.05 191.91 263.05 195.45 
M 254.67 208.92 252.47 212.06 
M 311.42 122.55 306.8 128.07 304.69 130.9 300.53 137.12 284.42 162.51 282.29 166.2 279.9 171.2 
M 274.21 185.17 273.98 185.68 
M 273.65 186.37 270.82 191.57 
M 268.83 194.95 264.65 201.47 
M 262.48 204.66 260.3 207.77 
M 316.16 123.71 312.34 128.45 308.14 134.23 296.05 153.18 
M 293.52 156.99 289.86 162.61 286.69 168.05 
M 281.18 180.79 278.27 187.62 
M 274.61 194.5 270.55 200.78 
M 320.83 124.99 315.83 131.44 311.61 137.58 303.2 151.31 293.23 166.33 290.43 171.62 
M 286.83 179.96 283.62 187 
M 281.83 190.55 279.22 195.53 276.39 200.12 
M 325.59 126.48 321.79 131.23 317.28 137.62 313.06 144.38 307.86 153.39 
M 305.52 157.11 299.16 166.31 296.97 169.94 296.07 171.79 
M 294.36 175.51 291.93 181.11 289.21 186.56 
M 287.27 190.01 281.81 199.4 
M 279.94 202.36 275.7 208.12 
M 273.35 210.87 270.9 213.46 
M 330.46 128.02 325.73 134.07 323.36 137.36 321.05 140.78 317.72 146.17 
M 315.68 149.86 311.7 157.32 
M 309.43 161.01 303.18 169.94 301.96 172.09 
M 301.93 172.14 301.1 173.59 295.94 184.59 294.94 186.33 
M 292.9 189.71 290.81 192.91 
M 286.9 198.84 283.22 204.52 
M 335.44 129.55 329.82 136.98 325 144.03 322.64 147.8 320.53 151.64 316.79 159.3 314.7 163 313.49 164.78 
M 311 168.33 307.35 173.69 306.31 175.51 
M 304.36 179.14 301.64 184.51 299.64 187.95 296.31 192.74 
M 288.07 204.05 286.22 206.74 
M 340.48 130.98 333.94 140.04 329.06 147.39 326.7 151.29 320.67 162.99 318.53 166.64 311.23 177.47 305.13 187.99 302.99 191.21 299.46 195.68 
M 297.09 198.51 292.79 203.88 
M 285.11 213.62 281.86 216.78 
M 345.44 132.54 337.92 143.34 333.03 150.85 329.51 156.78 
M 327.37 160.73 324.23 166.47 321.99 170.18 315.93 179.38 
M 309.38 189.75 306.11 194.36 300.11 201.25 
M 350.44 134.37 341.71 146.92 336.72 154.43 330.85 164.13 
M 328.66 167.92 324.08 175.5 
M 321.69 179.3 312.61 193.04 
M 310.41 195.99 306.92 200.12 301.02 206.48 
M 355.49 136.67 355.33 136.91 
M 354.07 138.78 342.8 154.35 337.7 161.89 321.57 188.18 318.23 193.14 
M 316.02 196.15 313.79 198.98 
M 309.13 204.23 306.75 206.69 
M 360.28 139.72 357.16 144.17 353.21 149.21 
M 350.48 152.67 346.36 158.07 337.61 170.76 
M 335.25 174.25 331.75 179.67 323.96 192.82 
M 319.58 199.07 317.34 201.83 
M 315.04 204.46 310.3 209.29 
M 364.45 143.57 361.11 147.98 352.67 158.13 349.92 161.71 341.04 174.02 
M 338.6 177.34 335.06 182.51 329.56 191.9 
M 327.44 195.49 326.38 197.22 323.12 201.77 
M 320.89 204.52 316.25 209.48 
M 367.56 148.36 366.1 150.16 
M 363.36 153.44 356.21 161.81 349.62 170.64 
M 344.49 177.29 340.77 182.14 338.41 185.51 335.12 190.95 
M 328.78 201.39 326.6 204.33 
M 370.44 152.94 362.5 162.22 350.55 177.52 
M 347.97 180.69 345.44 183.84 
M 343.03 187.07 340.74 190.47 
M 336.46 197.48 334.35 200.84 
M 370.44 160.71 365.92 166.21 355.35 179.57 348.95 187.26 
M 346.55 190.41 344.26 193.69 
M 342.06 197.02 338.84 201.92 335.59 206.32 
M 370.44 168.79 360.1 181.68 
M 357.5 184.74 351.29 192.19 347.83 196.82 
M 370.44 177.04 353.71 196.93 
M 349.11 202.65 346.91 205.29 
M 370.44 184.87 354.95 202.69 
M 230.85 119.29 232.36 119.53 
M 243.56 118.41 259.2 46.29 260.03 46.45 246.63 118.65 
M 256.31 118.24 279.24 30 280.07 30.2 259.35 118.65 
M 269.04 118.35 289.06 43.02 289.88 43.23 272.1 118.66 
M 281.79 118.07 308.66 36.96 309.47 37.22 284.79 118.69 
M 294.48 119.42 316.2 71.23 316.98 71.56 297.44 120.24 
M 310.92 122.06 312.31 122.71 
M 232.95 119.49 239.41 105.31 242.51 98.1 245.45 90.82 248.2 83.47 253.16 68.57 257.63 53.5 
M 258.68 53.71 263.43 51.25 267.86 48.39 269.89 46.73 271.79 44.92 273.58 42.97 276.95 38.82 
M 277.99 39.08 279.15 42.3 280.71 45.21 281.71 46.49 282.88 47.64 284.18 48.68 287.06 50.55 
M 288.09 50.81 292.4 50.58 296.55 49.85 298.54 49.22 300.46 48.39 302.33 47.39 305.97 45.07 
M 306.99 45.4 307.49 52.45 308.49 59.4 309.27 62.8 310.25 66.16 311.4 69.48 314.03 76.05 
M 315.01 76.47 313.21 86.62 312.48 91.7 311.92 96.8 311.57 101.92 311.44 112.18 311.82 122.48 
M 261.08 52.5 265.7 49.89 267.86 48.39 269.89 46.73 271.79 44.92 275.29 40.92 
M 260.23 58.29 264.45 55.9 266.42 54.54 270.01 51.37 273.2 47.73 
M 259.39 64.08 263.2 61.92 264.98 60.68 268.23 57.83 271.11 54.53 
M 258.55 69.87 261.95 67.94 263.54 66.83 266.44 64.28 269.02 61.33 
M 257.7 75.66 260.7 73.96 262.11 72.98 264.66 70.73 266.94 68.13 
M 256.86 81.45 260.67 79.13 262.88 77.18 264.85 74.93 
M 256.01 87.24 259.23 85.28 261.1 83.63 262.76 81.74 
M 255.17 93.03 257.79 91.43 259.32 90.09 260.67 88.54 
M 278.54 40.71 279.86 43.81 280.71 45.21 281.71 46.49 282.88 47.64 285.59 49.64 
M 277.42 46.77 278.64 49.63 279.42 50.93 281.42 53.16 283.93 55.01 
M 276.3 52.84 277.41 55.46 278.13 56.64 279.97 58.69 282.26 60.38 
M 275.18 58.9 276.19 61.28 277.62 63.33 278.51 64.21 280.59 65.74 
M 274.06 64.96 274.97 67.1 275.56 68.07 277.05 69.74 278.92 71.11 
M 272.95 71.03 274.27 73.78 275.6 75.26 277.26 76.48 
M 271.83 77.09 272.98 79.49 274.14 80.78 275.59 81.85 
M 270.71 83.15 271.31 84.57 272.15 85.78 273.92 87.22 
M 269.59 89.22 270.09 90.39 270.79 91.4 272.25 92.59 
M 290.26 50.73 294.5 50.3 296.55 49.85 298.54 49.22 300.46 48.39 304.16 46.26 
M 289.22 56.01 293.13 55.61 296.85 54.61 298.63 53.85 302.04 51.89 
M 288.18 61.29 291.76 60.93 295.17 60.01 296.79 59.31 299.92 57.52 
M 287.14 66.57 290.39 66.24 293.48 65.41 294.96 64.78 297.8 63.15 
M 286.1 71.85 289.02 71.56 290.43 71.25 293.12 70.24 295.67 68.78 
M 285.05 77.13 288.9 76.6 291.29 75.7 293.55 74.4 
M 284.01 82.41 287.37 81.95 289.46 81.16 291.43 80.03 
M 282.97 87.69 285.84 87.3 287.62 86.63 289.31 85.66 
M 281.93 92.98 283.54 92.81 285.06 92.4 287.19 91.29 
M 307.21 48.93 307.9 55.94 308.49 59.4 309.27 62.8 310.25 66.16 312.68 72.77 
M 305.15 57.14 305.76 63.33 306.28 66.38 307.84 72.36 309.98 78.2 
M 303.09 65.35 303.62 70.72 304.07 73.37 305.42 78.55 307.29 83.62 
M 301.03 73.55 301.48 78.11 301.87 80.35 303.01 84.75 304.59 89.05 
M 298.97 81.76 299.35 85.5 300.07 89.16 301.89 94.47 
M 296.92 89.97 297.45 94.32 298.18 97.14 299.2 99.9 
M 194.56 166.24 315.19 171.61 315.16 172.46 194.02 169.14 
M 193.89 169.99 299.55 179.92 299.48 180.76 193.36 172.86 
M 193.18 173.67 283.77 186.74 283.66 187.58 192.48 176.5 
M 192.24 177.23 267.96 192.06 267.81 192.9 191.35 180.02 
M 191.14 180.66 252.23 195.91 252.04 196.73 190.23 183.43 
M 190.06 183.99 236.67 198.28 236.44 199.09 189.7 186.89 
M 189.63 187.45 221.4 199.2 221.13 200 189.08 190.27 
M 188.97 190.79 206.52 198.69 206.21 199.48 188.4 193.54 
M 188.35 193.84 192.13 196.38 191.79 197.15 187.92 196.16 
M 302.25 172.1 298.66 172.62 295.29 173.6 293.73 174.35 292.26 175.28 290.86 176.37 288.22 178.85 
M 288.13 179.92 284.6 180.1 281.26 180.76 279.69 181.36 278.2 182.15 276.77 183.11 274.02 185.33 
M 273.88 186.39 270.45 186.25 267.16 186.59 265.59 187.05 264.09 187.69 262.63 188.51 259.8 190.46 
M 259.61 191.52 256.3 191.06 254.67 190.99 253.08 191.1 251.53 191.4 248.54 192.58 245.65 194.26 
M 245.4 195.3 242.24 194.54 239.12 194.28 237.59 194.44 236.09 194.8 234.6 195.33 231.65 196.74 
M 231.36 197.77 228.36 196.71 225.37 196.16 223.88 196.17 222.38 196.39 220.89 196.79 217.92 197.91 
M 217.58 198.92 214.77 197.59 211.92 196.76 210.47 196.63 209.01 196.71 207.53 196.96 204.53 197.8 
M 204.14 198.79 201.59 197.11 198.92 195.93 197.53 195.62 196.09 195.5 194.61 195.57 191.59 196.01 
M 300.44 172.33 296.93 173.03 295.29 173.6 293.73 174.35 292.26 175.28 289.52 177.58 
M 280.42 171.76 277.53 172.34 276.17 172.81 273.67 174.2 271.42 176.09 
M 260.41 171.2 258.13 171.65 257.06 172.02 255.09 173.11 253.31 174.61 
M 240.39 170.63 237.94 171.23 236.5 172.03 235.21 173.12 
M 286.35 179.98 282.9 180.35 281.26 180.76 279.69 181.36 278.2 182.15 275.38 184.19 
M 262.95 178.23 260.3 178.51 259.05 178.83 256.7 179.9 254.54 181.46 
M 239.55 176.48 236.83 176.9 235.2 177.64 233.7 178.73 
M 272.16 186.28 268.78 186.34 267.16 186.59 265.59 187.05 264.09 187.69 261.2 189.45 
M 242.02 182.64 239.83 182.68 237.76 183.14 236.78 183.56 234.9 184.7 
M 257.95 191.25 254.67 190.99 253.08 191.1 251.53 191.4 250.02 191.91 247.09 193.39 
M 232.79 187.06 230.66 186.89 228.62 187.16 227.63 187.48 225.73 188.45 
M 243.82 194.89 240.67 194.32 239.12 194.28 237.59 194.44 236.09 194.8 233.12 196 
M 229.86 197.2 226.87 196.34 225.37 196.16 223.88 196.17 222.38 196.39 219.41 197.31 
M 225.09 221.75 227.53 225.2 231.87 229.9 235.02 235.39 236.23 238.28 237.89 240.88 240.07 242.97 242.19 244.53 244.57 245.67 245.16 247.56 241.29 257.3 239.3 258.89 238.08 261.23 236.61 263.34 235.49 265.66 232.82 269.86 231.7 272.17 230.43 274.18 219.77 280 219.07 274.85 218.45 272.77 219.41 266.28 219.16 262.88 219.43 259.61 218.83 257.7 218.41 254.97 218.55 252.67 218.48 249.21 218.17 247.01 219.09 244.49 219.12 241.87 218.17 239.01 217.95 235.99 218.35 233.48 218.5 230.7 218.93 227.77 218.74 225.17 218.78 222.44 217.82 219.44 
M 223.47 221.24 226.99 227.24 228.86 229.52 230.68 232.97 234.07 240.26 235.58 242.34 236.64 245.03 239.25 247.48 240.05 250.12 240.57 253.07 241.58 256.43 
M 221.86 220.72 223.51 223.81 225.79 229.61 227.07 232.37 227.76 235.19 228.18 237.93 230.71 245.53 230.59 248.28 232.4 251.69 233.6 255.33 234.61 256.79 
M 220.24 220.21 221.59 223.06 222.28 225.78 223.2 234.02 223.41 237.18 224.32 239.92 225.44 242.07 226.05 244.8 225.37 247.95 225.49 251.43 
M 357.09 206.04 360.68 212.19 360.02 212.73 354.72 207.97 
M 345.01 210.02 349.54 217.63 348.87 218.16 342.6 211.89 
M 332.66 213.11 340.49 224.85 339.82 225.37 330.26 214.99 
M 320.52 216.92 333.65 235.66 332.98 236.18 318.11 218.79 
M 306.28 220 325.92 249.19 325.23 249.69 303.8 221.78 
M 359.49 212.25 356.74 212.28 354.19 212.78 353.03 213.29 351.96 213.99 350.95 214.85 349.08 216.87 
M 348.24 217.53 345.71 218.01 343.47 218.9 342.52 219.59 341.69 220.43 340.96 221.42 339.7 223.67 
M 338.86 224.33 336.52 225.82 334.59 227.59 333.86 228.64 333.3 229.8 332.89 231.07 332.34 233.79 
M 331.49 234.44 328.9 236.49 327.74 237.6 326.73 238.8 325.89 240.12 324.71 243.06 323.95 246.27 
M 346.95 217.74 344.54 218.38 343.47 218.9 342.52 219.59 341.69 220.43 340.31 222.52 
M 337.66 225.05 335.48 226.65 334.59 227.59 333.86 228.64 333.3 229.8 332.59 232.41 
M 330.17 235.45 327.74 237.6 326.73 238.8 325.89 240.12 325.23 241.54 324.3 244.65 
M 323.87 229.82 322.29 231.22 321.09 232.86 320.66 233.78 320.06 235.8 
M 370.44 152.81 372.85 151.07 374.35 148.86 379.55 143.03 381.5 141.05 383.63 139.34 386.89 134.46 388.94 132.78 394.71 129.47 396.75 128.96 399.44 126.64 405.48 123.83 407.15 122.29 408.89 121.08 415.1 121.6 419.93 117.83 423.17 117.64 426.16 117.26 427.57 115.97 428.86 116.53 431.06 116.99 433.35 116.3 435.72 123.16 435.21 124.68 436.41 130.18 436.53 135.84 436.16 138.61 434.93 140.97 433.31 142.93 431.04 144.23 429.33 145.8 428.49 148.23 427.96 150.98 426.22 152.83 422.4 156.04 420.28 157.48 418.55 159.31 416.96 161.29 415.82 163.73 413.94 165.42 411.75 166.82 405.62 167.36 403.6 168.68 402.29 170.73 400.32 172.13 395.52 174.08 393.27 175.2 392.3 177.76 393.5 181.01 395.51 181.25 397.35 181.04 402.39 181.99 403.62 181.61 408.43 185.73 411.86 188.33 413.47 189.14 419.06 193.14 420.61 193.9 422.51 195.34 426.24 198.77 427.81 200.96 431.15 206.4 432.23 208.53 431.91 209.92 432.36 212.22 433.82 217.34 435.94 223.31 436.45 225.76 436.77 228.47 436.19 230.28 435.27 240.99 432.48 239.5 429.87 238.64 427.39 236.63 424.86 236.22 421.67 235.03 418.08 234.01 416 232.33 407.49 229.56 406.16 228.29 403.4 227.63 400.31 226.57 397.33 224.44 394.96 222.42 392.98 221 391.15 219.33 390.57 216.84 388.6 214.87 385.85 212.81 383.17 211.35 381.82 208.37 380.16 206.01 374.29 199.02 372.78 196.54 370.44 193.48 
M 373.08 153.83 376.61 149.84 380.86 146.26 382.84 143.92 388.7 138.26 390.43 137.43 392.35 136.22 393.9 134.6 396.14 133.46 399.2 132.92 401.21 131.14 
M 373.17 156.5 375.35 154.92 376.94 153.26 384.04 147.14 385.99 145.24 392.64 141.47 394.91 140.95 397.64 140.08 401.42 136.84 403.86 135.67 
M 375.62 157.57 377.65 156.45 379.82 154.73 384.83 151.42 386.89 149.54 388.63 148.57 391.32 146.56 393.73 145.53 401.34 143.67 403.54 142.61 
M 373.46 160.84 378.13 158.94 382.72 156.4 384.93 155.43 387.53 153.82 389.65 152.97 392.24 151.42 398.24 149.65 401.14 149.21 403.23 148.58 408.22 147.74 410.21 145.52 412.99 144.43 415.12 144.02 417.43 143.81 
M 373.72 163.22 383.35 159.05 388.14 157.78 390.6 156.69 393.42 156.1 396.05 155.12 
M 378.52 163.34 381.32 162.76 384.09 161.93 391.62 160.13 399.96 159.27 402.52 158.73 406.87 158.85 409.44 158.7 411.93 157.76 415.79 157.62 418.66 156.95 
M 373.92 168.03 376.81 167.21 379.29 166.19 381.51 165.49 387.65 165.15 389.75 164.19 394.64 163.71 401.5 164.38 
M 377.52 170.29 382.54 168.99 385.52 169.09 388.73 169.79 
M 381.64 173.27 384.36 173.08 
M 381.58 177.16 384.6 177.42 387.12 178.3 388.77 179.45 390.48 179.85 
M 370.44 176.52 373.94 178.53 376.82 179.77 379.66 180.52 382.48 180.52 385.7 181.55 388.15 182.77 393.74 183.31 
M 378.77 183.22 380.85 184.41 383.63 184.99 386.86 185.41 389.72 187.25 392.5 187.68 
M 376.06 184.66 383.49 188.16 386.62 189.06 392.46 191.53 394.95 191.29 397.51 192.19 399.69 192.55 402.14 193.55 404.86 194.11 
M 373.13 185.47 378.32 188.07 380.75 189.62 383.6 190.74 386.26 192.72 388.93 194.46 393.8 196.06 397.77 196.65 400.76 197.68 406.23 199.98 410.72 201.09 413.48 202.35 416.99 203.27 422.91 201.07 
M 375.99 189.07 380.5 192.65 382.8 194.22 390.22 199.86 395.43 200.41 398.18 200.94 400.85 201.87 402.77 203.23 
M 375.98 191.63 380.06 195.48 385.09 199.73 386.71 201.98 387.88 204.05 390.83 205.07 396.95 206.26 399.78 207.03 401.66 208 403.38 209.64 405.27 210.7 408.08 211.88 413.39 213.68 416.2 213.59 417.84 214.36 420.01 215.75 423.46 215.54 
M 373.33 191.69 379.47 198.56 381.66 200.7 383.9 202.45 385.5 204.61 386.52 207.15 389.1 208.97 391.75 209.41 394.6 210.12 396.6 211.28 398.45 213.35 400.81 214.53 404.07 215.57 409.35 219.09 412.21 219.8 415.08 220.24 417.82 221.14 419.51 222.36 421.69 222.74 423.62 224.07 429.68 224.77 433.86 226.33 
M 375.05 196.53 376.81 198.84 378.98 201.1 381.13 202.9 384.71 208.09 386.51 210.16 391.18 213.02 392.86 214.69 393.59 216.01 398.57 220.14 401.8 222.31 405.29 223.42 407.85 224.47 409.6 225.48 
M 341.37 131.24 344.02 127.63 346.1 123.46 347.43 121.65 349.16 120.26 351.32 119.29 353.87 118.72 356.75 118.47 359.87 118.52 362.96 119.52 365.33 121.47 366.5 124.01 366.43 126.75 365.32 129.19 363.37 130.64 361.29 131.54 359.41 132.64 357.69 133.89 356.18 135.37 355.91 136.86 
M 344.55 129.99 346.1 126.85 347.43 125.05 349.16 123.66 351.32 122.69 353.87 122.11 355.31 121.99 
M 364.15 123.89 365.33 124.86 365.82 125.93 
M 93.17 173.11 94.01 171.48 95.89 168.81 98.46 165.89 101.9 163.1 106.65 160.54 112.23 157.86 123.27 150.57 130.31 147.31 138.18 143.94 145.85 141.06 153.73 138.35 161.9 135.98 175.65 131.3 181.3 129.7 185.92 128.76 188.69 128.37 191.29 132.84 192.1 137.18 194.38 145.92 195.21 150.25 195.44 154.54 195.32 163.06 194.32 167.23 193.66 171.44 192.76 175.62 190.07 183.91 189.55 188.13 187.86 196.5 186.55 200.65 184.61 204.74 181.51 208.65 168.56 208.03 159.05 206.97 150.52 205.63 135.51 202.09 128.82 200.14 122.86 198.11 117.25 195.89 111.97 193.52 107.25 190.9 
M 169.43 157.06 169.06 160.69 166.01 167.4 164.18 170.43 162.14 173.2 160.51 175.81 159.68 180.53 160.97 188.07 160.53 191.21 145.85 190.95 139.76 190.6 127.78 188.98 122.12 187.72 117.06 186.08 
M 105.8 190.55 100.45 185.88 97.01 183.15 90.85 177.51 89.87 175.5 90.75 173.56 92.77 172.87 94.59 173.96 99.45 180.72 107.33 190.81 
M 107.02 191.53 103 192.05 94.35 192.79 85.74 193.13 83.82 192.06 83.22 189.87 84.59 188.29 86.72 188.14 95.39 189.39 107.05 190.68 
M 132.54 171.95 129.96 168.33 128.69 164.06 128.87 159.61 130.49 155.46 133.37 152.06 137.19 149.78 141.55 148.87 145.97 149.42 149.97 151.38 153.12 154.53 155.07 158.53 155.62 162.94 154.71 167.3 152.43 171.13 149.03 174 144.88 175.62 140.44 175.81 136.17 174.54 132.54 171.95 
M 150.92 156.1 152.48 159.3 152.92 162.83 152.19 166.32 150.37 169.38 147.65 171.68 144.33 172.98 140.77 173.12 137.36 172.11 134.46 170.04 
M 137.65 165.57 136.61 164.12 136.1 162.42 136.18 160.64 136.82 158.98 137.98 157.62 139.51 156.71 141.25 156.34 143.02 156.56 144.62 157.35 145.88 158.6 146.66 160.2 146.88 161.97 146.51 163.72 145.6 165.25 144.24 166.4 142.58 167.04 140.8 167.12 139.1 166.61 137.65 165.57 
M 138.3 164.73 140.64 167.07 
M 138.43 162.58 142.81 166.95 
M 138.96 160.81 144.41 166.26 
M 138.67 158.23 145.63 165.19 
M 142.96 160.23 146.49 163.76 
M 143.57 158.55 146.86 161.84 
M 96.93 177.24 97.94 178.24 
M 94.94 170.16 99.17 174.39 
M 97.2 167.33 100.61 170.74 
M 99.78 164.82 102.44 167.48 
M 102.72 162.66 106.68 166.62 
M 106.02 160.88 110.44 165.29 
M 109.44 159.2 113.62 163.38 
M 112.8 157.47 115.82 160.48 
M 115.83 155.41 119.8 159.38 
M 118.9 153.38 123.67 158.15 
M 122 151.39 126.31 155.7 
M 125.32 149.62 130.37 154.67 
M 128.8 148.01 132.17 151.38 
M 132.33 146.45 134.99 149.11 
M 135.89 144.92 139.3 148.33 
M 139.5 143.44 143.23 147.16 
M 143.21 142.05 147.39 146.24 
M 146.93 140.69 151.83 145.59 
M 150.72 139.39 153.65 142.32 
M 154.54 138.12 158.4 141.97 
M 158.49 136.97 163.37 141.85 
M 162.42 135.81 166.94 140.33 
M 166.21 134.51 169.16 137.46 
M 170.01 133.22 173.42 136.63 
M 173.81 131.93 177.08 135.19 
M 177.7 130.72 180.46 133.49 
M 181.69 129.62 186.17 134.1 
M 185.92 128.76 190.82 133.66 
M 108.44 189.56 107.49 188.8 106.02 186.78 105.93 185.76 106.22 184.41 
M 163.54 183.43 162.98 183.71 162.89 183.59 
M 109.64 182.53 110.33 182.08 111.25 181.84 112.36 181.84 112.95 182.02 113.42 182.43 113.7 182.96 114.01 183.85 113.96 184.22 
M 184.1 153.95 185.4 154.81 187.13 156.94 188.41 158.01 189.9 158.5 192.95 158.91 
M 183.69 189.25 183.33 188.61 182.73 186.27 
M 172.58 207.94 172.4 206.27 171.54 204.73 
M 152.22 142.41 149.47 142.2 147.2 140.6 
M 185.69 168.46 185.6 167.44 185.33 166.76 182.92 163.49 182.43 161.91 181.38 159.53 181.16 158.19 
M 189.11 190.14 188.52 189.84 
M 192.17 145.45 191.57 146.02 190.83 148.48 
M 190.49 149.38 191.11 152.25 191.64 152.83 192.27 153.02 
M 180.04 184.48 178.32 183.17 177.44 182.82 175.16 182.58 173.99 182.62 170.81 184.05 170.13 184.19 168.13 184.13 
M 155.01 165.87 156.14 166.17 
M 101.65 183.55 102.22 182.39 103.67 180.84 104.49 179.34 105.04 178.84 107.93 177.49 108.71 176.38 
M 169.28 162.6 167.24 162.7 166.18 163.25 165.23 164.06 163.46 166.37 
M 180.06 185.45 177.94 184.69 174.09 184.05 170.51 184.45 168.11 184.21 
M 147.48 190.77 146.14 188.35 145.02 187.24 144.76 186.78 144.48 185.47 143.93 185.11 143.38 185.19 
M 105.2 175.93 106.53 174.77 107.06 173.47 107.1 172.03 106.87 170.65 106.38 169.92 105.87 169.79 
M 166.58 158.65 165.66 158.06 165.12 158.01 164.69 158.25 164.31 158.99 
M 179.3 143.09 178.28 142.35 177.66 142.11 176.32 142.31 173.95 142.16 
M 185.23 172.06 185.45 169.52 185.38 167.5 184.85 166.32 183.16 164.04 182.53 162.61 182.35 161.75 
M 118.92 196.55 120.19 192.76 120.39 192.52 120.97 192.28 
M 133.21 147.01 136.23 148.83 136.91 149.49 137.06 149.87 
M 102.6 184.78 103.91 182.37 104.77 180.09 105.19 179.49 106.25 178.72 107.53 178.08 
M 121.54 157.71 121.75 160.52 121.45 162.46 120.96 163.26 
M 169.22 162.59 167.21 162.7 166.16 163.26 165.22 164.07 163.45 166.39 
M 133.14 151.78 133.48 152 
M 174.81 182.35 173.73 182.5 171.47 183.72 169.98 184.15 164.88 183.96 
M 178.64 152.73 175.38 151 173.6 149.57 172.43 148.23 171.25 147.61 170.04 147.37 169.13 147.68 168.82 148.02 
M 105.3 181.18 105.49 180.5 106.17 179.47 108.23 177.8 109.39 176.07 109.62 175.3 109.6 173.37 
M 177.86 206.07 174.99 206.54 173.66 206.52 172.85 206.3 172.23 205.71 
M 179.47 162.92 178.66 158.59 178.44 157.9 177.91 157.04 
M 174.72 141.76 174.15 142 173.43 141.91 170.98 140.74 169.83 140.37 
M 137.88 184.84 135.84 187.76 135.54 188.81 135.35 191.19 
M 163.84 144.49 162.38 144.48 161.8 144.69 158.95 148.94 
M 168.41 205.95 169.03 204.85 169.37 203.82 169.36 202.65 169.18 202.12 168.42 201.48 165.52 200.7 
M 155.87 144.95 154.59 144.93 152.55 144.48 149.76 144.37 148.49 143.88 146.74 142.35 
M 152.55 201.62 153.14 201.71 153.52 202.05 
M 100.25 179.99 103.22 178.03 105.8 177.26 107.71 176.41 108.12 175.96 108.62 174.61 108.56 172.71 
M 188.88 133.88 187.75 131.63 186.85 130.8 184.03 129.15 
M 107.29 190.86 108.05 191.67 
M 104.1 189.07 104.12 189.58 104.42 189.34 
M 101.19 186.53 100.9 187.03 100.76 188.1 101.25 187.4 101.83 187.1 
M 98.35 184.21 97.7 185.11 97.41 186.63 98.05 185.48 99.11 184.81 
M 95.59 181.82 94.5 183.19 94.06 185.15 94.85 183.56 96.34 182.52 
M 92.93 179.34 91.31 181.27 90.7 183.67 91.66 181.64 93.78 180.07 
M 90.45 176.68 88.11 179.36 87.35 182.2 88.46 179.73 91.07 177.7 
M 107.04 191.04 108.32 191.08 
M 102.75 190.25 103.04 189.71 103.56 189.22 103.55 189.72 103.84 190.37 
M 98.48 189.74 98.86 188.37 99.66 187.39 99.37 188.38 99.68 189.85 
M 94.26 189.21 94.68 187.03 95.76 185.56 95.19 187.05 95.5 189.41 
M 90.05 188.65 90.5 185.69 91.85 183.73 91.01 185.71 91.3 188.81 
M 85.83 188.2 86.32 184.36 87.95 181.9 86.83 184.37 87.09 188.2 
M 92.47 192.86 98.34 195.03 102.29 196.18 106.29 197.01 110.33 197.57 114.47 197.9 122.86 198.11 
M 100.11 194.66 99.63 195.41 
M 97.17 194.61 98.24 194.59 98.61 194.77 98.88 195.19 
M 110.45 195.98 110.14 195.43 
M 95.29 193.94 98.33 193.32 
M 191.21 127.63 197.25 133.67 
M 196.51 126.15 204.56 134.19 
M 202.34 125.19 209.54 132.39 
M 208.26 124.32 217.27 133.33 
M 213.96 123.23 222.19 131.46 
M 219.51 121.99 226.01 128.49 
M 225.05 120.74 230.88 126.57 
M 230.88 119.78 236.31 125.21 
M 237.03 119.14 245.14 127.25 
M 243.45 118.77 250.43 125.76 
M 250.05 118.59 258.52 127.06 
M 256.84 118.59 263.78 125.53 
M 263.76 118.72 272.11 127.07 
M 270.55 118.72 280.7 128.88 
M 277.12 118.51 284.72 126.11 
M 284.01 118.61 289.41 124 
M 291.61 119.42 297.11 124.92 
M 299.55 120.57 304.78 125.79 
M 307.67 121.89 316.76 130.99 
M 316.3 123.74 326.46 133.9 
M 325.94 126.59 332.45 133.1 
M 335.78 129.64 341.34 135.21 
M 345.47 132.54 355.02 142.09 
M 357.82 138.11 365.28 145.57 
M 257.77 134.45 257.41 134.01 257.44 133.16 257.83 132.75 258.18 133.19 258.15 134.03 257.77 134.45 
M 258.39 133.85 257.83 133.8 257.25 133.18 257.22 132.62 257.78 132.68 258.36 133.29 258.39 133.85 
M 256.01 139.9 256.33 140.36 256.24 141.21 255.83 141.59 255.51 141.13 255.6 140.29 256.01 139.9 
M 256.28 140.21 256.13 140.75 255.42 141.21 254.86 141.14 255.01 140.6 255.72 140.13 256.28 140.21 
M 268.53 131.77 268.13 132.17 267.29 132.23 266.84 131.9 267.23 131.5 268.08 131.44 268.53 131.77 
M 267.53 132.46 267.49 131.9 268 131.22 268.55 131.1 268.59 131.66 268.08 132.34 267.53 132.46 
M 249.48 135.27 249.35 135.81 248.67 136.32 248.11 136.28 248.23 135.73 248.92 135.22 249.48 135.27 
M 249.42 135.94 248.86 135.97 248.19 135.44 248.08 134.89 248.64 134.86 249.31 135.39 249.42 135.94 
M 265.51 139.6 265.18 140.06 264.35 140.25 263.85 139.98 264.19 139.53 265.01 139.34 265.51 139.6 
M 265.24 140.11 264.69 140 264.18 139.32 264.22 138.76 264.77 138.88 265.28 139.55 265.24 140.11 
M 258.25 125.16 258.71 125.47 258.94 126.29 258.7 126.8 258.23 126.49 258.01 125.67 258.25 125.16 
M 258.6 126.61 258.33 126.12 258.5 125.29 258.95 124.95 259.22 125.44 259.05 126.27 258.6 126.61 
M 252.02 130.05 252.57 130.12 253.14 130.75 253.16 131.31 252.6 131.25 252.03 130.62 252.02 130.05 
M 252.96 130.16 252.79 130.69 252.06 131.13 251.51 131.03 251.68 130.5 252.41 130.06 252.96 130.16 
M 250.45 125.2 250.83 124.78 251.67 124.68 252.13 124.99 251.76 125.41 250.92 125.51 250.45 125.2 
M 251.83 124.74 251.48 125.18 250.64 125.32 250.16 125.03 250.52 124.6 251.35 124.45 251.83 124.74 
M 250.97 117.02 251.49 117.22 251.91 117.96 251.79 118.51 251.26 118.31 250.85 117.57 250.97 117.02 
M 250.93 117.3 251.43 117.57 251.72 118.36 251.53 118.89 251.03 118.62 250.74 117.82 250.93 117.3 
M 241.33 123 241.82 122.74 242.65 122.94 242.98 123.39 242.48 123.65 241.66 123.46 241.33 123 
M 241.97 123.82 241.96 123.26 242.49 122.6 243.05 122.5 243.06 123.06 242.53 123.72 241.97 123.82 
M 246.26 118.86 245.75 119.1 244.93 118.86 244.63 118.39 245.14 118.16 245.95 118.39 246.26 118.86 
M 245.1 118.08 245.53 118.44 245.66 119.28 245.36 119.76 244.93 119.39 244.8 118.56 245.1 118.08 
M 247.82 130.7 247.27 130.79 246.54 130.36 246.37 129.82 246.92 129.73 247.65 130.16 247.82 130.7 
M 247.34 130.86 246.98 130.43 246.99 129.58 247.37 129.16 247.73 129.59 247.71 130.44 247.34 130.86 
M 259.51 117.74 259.9 118.14 259.96 118.99 259.62 119.44 259.22 119.04 259.17 118.19 259.51 117.74 
M 259.23 119.15 259.36 118.6 260.04 118.1 260.6 118.14 260.48 118.69 259.79 119.19 259.23 119.15 
M 245.89 112.47 245.52 112.05 245.51 111.2 245.88 110.78 246.25 111.2 246.25 112.05 245.89 112.47 
M 246.36 112.06 245.85 111.82 245.5 111.05 245.67 110.51 246.17 110.75 246.52 111.53 246.36 112.06 
M 256.7 109.18 256.71 109.74 256.16 110.39 255.6 110.47 255.6 109.91 256.15 109.26 256.7 109.18 
M 255.65 109.41 256.18 109.62 256.56 110.38 256.43 110.92 255.91 110.71 255.52 109.96 255.65 109.41 
M 249.66 141.73 249.69 141.17 250.27 140.56 250.83 140.5 250.81 141.06 250.22 141.68 249.66 141.73 
M 250.86 140.91 250.41 141.24 249.56 141.18 249.16 140.79 249.61 140.45 250.46 140.51 250.86 140.91 
M 263.71 128.83 263.37 128.39 263.42 127.54 263.82 127.14 264.16 127.59 264.1 128.43 263.71 128.83 
M 263.21 127.65 263.76 127.78 264.24 128.48 264.18 129.04 263.64 128.9 263.15 128.2 263.21 127.65 
M 262.28 146.2 262.19 145.65 262.64 144.92 263.18 144.76 263.27 145.31 262.82 146.03 262.28 146.2 
M 262.22 145.09 262.74 145.28 263.16 146.01 263.05 146.56 262.52 146.38 262.1 145.64 262.22 145.09 
M 272.67 137.98 273.16 137.7 273.99 137.87 274.34 138.32 273.85 138.59 273.01 138.42 272.67 137.98 
M 272.87 138.28 273.36 138 274.19 138.17 274.54 138.61 274.05 138.89 273.22 138.72 272.87 138.28 
M 268.56 143.89 268.94 144.3 268.95 145.15 268.59 145.58 268.22 145.17 268.2 144.32 268.56 143.89 
M 268.7 145.37 268.43 144.88 268.61 144.05 269.06 143.71 269.33 144.2 269.15 145.03 268.7 145.37 
M 249.46 103.83 249.64 103.3 250.37 102.87 250.92 102.97 250.74 103.5 250.01 103.93 249.46 103.83 
M 249.64 103.74 250 103.32 250.84 103.19 251.32 103.49 250.95 103.92 250.11 104.04 249.64 103.74 
M 243.65 102.2 243.48 102.74 242.76 103.19 242.2 103.1 242.25 102.95 
M 242.43 102.52 243.09 102.11 243.65 102.2 
M 243.53 102.88 242.97 102.85 242.49 102.39 
M 242.76 101.73 243.48 102.32 243.53 102.88 
M 238.64 117.71 238.97 118.16 238.9 119.01 238.5 119.4 238.17 118.95 238.24 118.1 238.64 117.71 
M 239.21 118.46 238.7 118.71 237.88 118.49 237.57 118.03 238.07 117.78 238.89 118 239.21 118.46 
M 265.83 110.62 266.18 110.18 267.02 110.04 267.5 110.33 267.14 110.77 266.31 110.91 265.83 110.62 
M 266.03 110.33 266.59 110.28 267.28 110.78 267.4 111.33 266.84 111.38 266.16 110.88 266.03 110.33 
M 265.15 121.26 265.46 120.8 266.28 120.58 266.79 120.82 266.47 121.29 265.65 121.51 265.15 121.26 
M 265.99 120.4 266.14 120.94 265.77 121.7 265.26 121.93 265.11 121.39 265.48 120.62 265.99 120.4 
M 270.47 125.12 270.36 124.57 270.78 123.83 271.31 123.65 271.42 124.2 271 124.94 270.47 125.12 
M 271.53 124.41 270.99 124.56 270.23 124.19 270 123.68 270.54 123.53 271.31 123.9 271.53 124.41 
M 253.49 149.16 253.61 148.61 254.29 148.11 254.85 148.15 254.73 148.7 254.05 149.2 253.49 149.16 
M 254.71 148.29 254.36 148.73 253.52 148.89 253.04 148.61 253.39 148.17 254.22 148.01 254.71 148.29 
M 245.47 145.85 245.75 145.36 246.55 145.08 247.07 145.28 246.8 145.77 246 146.05 245.47 145.85 
M 245.65 145.39 246.21 145.37 246.87 145.91 246.97 146.46 246.41 146.48 245.75 145.94 245.65 145.39 
M 236.85 140.31 236.8 139.75 237.29 139.06 237.83 138.92 237.89 139.48 237.4 140.18 236.85 140.31 
M 236.84 140.02 237.15 139.55 237.97 139.33 238.47 139.57 238.16 140.04 237.34 140.26 236.84 140.02 
M 243.35 139.71 243.63 139.23 244.44 138.95 244.96 139.16 244.68 139.65 243.87 139.92 243.35 139.71 
M 243.51 139.4 244.05 139.26 244.81 139.64 245.03 140.16 244.48 140.3 243.72 139.92 243.51 139.4 
M 245.24 153.6 244.94 154.08 244.14 154.33 243.62 154.11 243.91 153.63 244.72 153.38 245.24 153.6 
M 243.92 154.25 244.24 153.79 245.06 153.58 245.56 153.83 245.24 154.29 244.42 154.5 243.92 154.25 
M 237.71 146.13 238.25 146.28 238.73 146.98 238.67 147.54 238.12 147.39 237.64 146.69 237.71 146.13 
M 237.66 146.47 238.19 146.63 238.64 147.35 238.56 147.91 238.02 147.74 237.57 147.02 237.66 146.47 
M 278.98 130.99 279.23 130.49 280.01 130.16 280.55 130.33 280.3 130.84 279.52 131.17 278.98 130.99 
M 279.29 131.11 279.57 130.62 280.36 130.33 280.89 130.53 280.61 131.02 279.82 131.31 279.29 131.11 
M 277.5 120.49 277.77 120.98 277.61 121.81 277.16 122.16 276.89 121.67 277.05 120.84 277.5 120.49 
M 276.83 121.73 277.13 121.26 277.95 121.03 278.46 121.27 278.15 121.74 277.34 121.97 276.83 121.73 
M 271.69 115.75 271.43 116.24 270.64 116.56 270.11 116.37 270.37 115.88 271.16 115.56 271.69 115.75 
M 271.16 116.65 270.79 116.23 270.78 115.38 271.14 114.95 271.51 115.37 271.53 116.22 271.16 116.65 
M 287.64 132.31 287.75 132.86 287.35 133.6 286.82 133.8 286.7 133.25 287.11 132.5 287.64 132.31 
M 287.84 132.84 287.39 133.18 286.54 133.12 286.14 132.73 286.59 132.39 287.44 132.44 287.84 132.84 
M 287.03 122.68 287.58 122.79 288.11 123.46 288.08 124.02 287.53 123.91 287.01 123.25 287.03 122.68 
M 287.14 122.86 287.62 123.16 287.87 123.97 287.65 124.48 287.17 124.19 286.91 123.38 287.14 122.86 
M 273.6 131.79 273.78 132.32 273.47 133.11 272.97 133.37 272.78 132.84 273.1 132.05 273.6 131.79 
M 273.53 131.98 273.48 132.54 272.87 133.13 272.31 133.17 272.36 132.61 272.97 132.02 273.53 131.98 
M 284.92 140.49 284.66 140 284.85 139.17 285.31 138.84 285.57 139.34 285.37 140.16 284.92 140.49 
M 284.62 139.25 285.14 139.47 285.51 140.22 285.37 140.77 284.86 140.55 284.48 139.79 284.62 139.25 
M 257.39 156.16 257.24 156.71 256.53 157.18 255.97 157.1 256.12 156.56 256.83 156.09 257.39 156.16 
M 256.38 156.06 256.78 156.46 256.84 157.3 256.51 157.75 256.11 157.36 256.05 156.51 256.38 156.06 
M 253.34 97.24 252.8 97.11 252.3 96.42 252.35 95.86 252.9 95.99 253.39 96.68 253.34 97.24 
M 252.88 97.2 252.68 96.67 252.98 95.88 253.47 95.61 253.67 96.13 253.37 96.93 252.88 97.2 
M 256.1 98.63 256.55 98.29 257.39 98.36 257.79 98.76 257.34 99.09 256.49 99.02 256.1 98.63 
M 256.92 99.34 256.77 98.8 257.13 98.03 257.65 97.8 257.79 98.35 257.43 99.11 256.92 99.34 
M 257.72 103.8 258.24 104 258.65 104.74 258.53 105.29 258.01 105.09 257.6 104.35 257.72 103.8 
M 257.94 103.93 258.25 104.39 258.16 105.23 257.75 105.61 257.43 105.15 257.52 104.31 257.94 103.93 
M 231.27 141.97 230.71 142 230.04 141.49 229.93 140.94 230.49 140.9 231.16 141.42 231.27 141.97 
M 230.98 140.93 230.8 141.46 230.07 141.9 229.52 141.8 229.7 141.27 230.43 140.83 230.98 140.93 
M 233.81 131.54 233.54 131.04 233.72 130.21 234.17 129.88 234.44 130.37 234.26 131.2 233.81 131.54 
M 234.4 130.21 234.19 130.73 233.44 131.12 232.89 130.99 233.1 130.47 233.85 130.08 234.4 130.21 
M 242.22 135.13 241.88 135.57 241.05 135.74 240.56 135.47 240.9 135.02 241.73 134.85 242.22 135.13 
M 241.23 134.67 241.53 135.15 241.39 135.98 240.96 136.34 240.66 135.87 240.8 135.03 241.23 134.67 
M 225.4 133.56 225.86 133.87 226.09 134.68 225.86 135.19 225.39 134.88 225.16 134.07 225.4 133.56 
M 225.05 134.07 225.61 134.17 226.14 134.83 226.12 135.39 225.57 135.29 225.04 134.63 225.05 134.07 
M 229.33 125.07 229.24 125.62 228.59 126.17 228.03 126.16 228.12 125.61 228.77 125.06 229.33 125.07 
M 228.09 125.35 228.65 125.41 229.22 126.04 229.23 126.6 228.68 126.53 228.1 125.91 228.09 125.35 
M 235.2 123.68 235.68 123.4 236.52 123.55 236.87 123.98 236.39 124.27 235.55 124.12 235.2 123.68 
M 236.08 124.48 235.87 123.96 236.15 123.16 236.64 122.88 236.85 123.4 236.57 124.2 236.08 124.48 
M 240.55 130.05 240.03 130.27 239.22 130.01 238.93 129.53 239.45 129.31 240.26 129.57 240.55 130.05 
M 239.09 129.82 239.62 129.62 240.42 129.91 240.69 130.4 240.17 130.6 239.37 130.32 239.09 129.82 
M 263.99 104.94 264.26 104.45 265.06 104.16 265.58 104.36 265.31 104.85 264.51 105.14 263.99 104.94 
M 264.28 105.05 264.59 104.58 265.41 104.36 265.91 104.61 265.6 105.07 264.78 105.29 264.28 105.05 
M 294.59 127.81 294.82 127.3 295.58 126.93 296.12 127.08 295.9 127.59 295.14 127.96 294.59 127.81 
M 294.82 127.09 295.36 127.24 295.83 127.95 295.76 128.5 295.22 128.35 294.75 127.65 294.82 127.09 
M 291.43 138.71 291 139.07 290.15 139.05 289.74 138.67 290.17 138.31 291.02 138.33 291.43 138.71 
M 291.23 138.62 290.71 138.85 289.9 138.6 289.61 138.12 290.12 137.9 290.93 138.15 291.23 138.62 
M 283.33 128.09 283.9 128.12 284.5 128.71 284.55 129.27 283.99 129.24 283.38 128.64 283.33 128.09 
M 283.3 128.59 283.86 128.49 284.58 128.93 284.76 129.46 284.21 129.56 283.48 129.12 283.3 128.59 
M 295.03 133.96 294.56 133.66 294.31 132.85 294.54 132.33 295.01 132.63 295.26 133.45 295.03 133.96 
M 295.07 133.72 294.68 133.32 294.63 132.48 294.97 132.03 295.36 132.43 295.42 133.28 295.07 133.72 
M 234.47 149.23 234.03 149.58 233.18 149.53 232.78 149.15 233.22 148.8 234.07 148.84 234.47 149.23 
M 233.24 148.67 233.7 149 233.89 149.82 233.63 150.32 233.17 149.99 232.98 149.17 233.24 148.67 
M 266.51 97.29 266.29 97.8 265.52 98.17 264.98 98.02 265.2 97.51 265.97 97.14 266.51 97.29 
M 266.07 97.09 265.95 97.64 265.27 98.15 264.71 98.11 264.83 97.56 265.51 97.05 266.07 97.09 
M 263.77 163.36 263.25 163.59 262.44 163.34 262.14 162.86 262.65 162.64 263.47 162.88 263.77 163.36 
M 263.21 162.52 263.15 163.08 262.54 163.66 261.98 163.69 262.03 163.13 262.65 162.55 263.21 162.52 
M 232.97 157.27 233.49 157.46 233.9 158.21 233.78 158.76 233.26 158.56 232.85 157.81 232.97 157.27 
M 233.1 157.42 233.48 157.84 233.51 158.69 233.15 159.12 232.77 158.71 232.75 157.86 233.1 157.42 
M 241.91 159.52 241.51 159.9 240.66 159.94 240.22 159.59 240.63 159.21 241.47 159.17 241.91 159.52 
M 240.98 160.2 240.88 159.64 241.32 158.91 241.85 158.74 241.95 159.29 241.51 160.02 240.98 160.2 
M 218.44 130.53 218.79 130.09 219.63 129.93 220.11 130.22 219.76 130.66 218.93 130.81 218.44 130.53 
M 218.63 130.42 219.15 130.21 219.96 130.49 220.24 130.98 219.71 131.19 218.91 130.91 218.63 130.42 
M 225.01 141.39 225.39 141.81 225.42 142.65 225.07 143.09 224.68 142.68 224.65 141.83 225.01 141.39 
M 225.26 142.85 224.91 142.41 224.96 141.56 225.35 141.15 225.69 141.6 225.65 142.44 225.26 142.85 
M 217.76 139.19 218.31 139.34 218.77 140.05 218.7 140.61 218.16 140.45 217.69 139.75 217.76 139.19 
M 217.68 140.23 218.05 139.81 218.89 139.69 219.36 139.99 218.99 140.42 218.15 140.54 217.68 140.23 
M 232.95 136.08 232.48 136.38 231.64 136.26 231.27 135.84 231.74 135.54 232.58 135.65 232.95 136.08 
M 231.55 135.64 232.1 135.76 232.61 136.43 232.58 136.99 232.03 136.88 231.51 136.2 231.55 135.64 
M 276.42 149.2 276.31 149.75 275.64 150.27 275.08 150.24 275.19 149.69 275.86 149.17 276.42 149.2 
M 275.14 149.91 275.59 149.59 276.44 149.67 276.82 150.08 276.36 150.41 275.52 150.32 275.14 149.91 
M 271.41 155.11 271.58 154.57 272.31 154.13 272.86 154.22 272.69 154.76 271.97 155.2 271.41 155.11 
M 271.94 155.28 271.94 154.72 272.5 154.08 273.05 154 273.05 154.56 272.49 155.2 271.94 155.28 
M 276.74 143.81 277.25 143.58 278.06 143.82 278.36 144.29 277.85 144.53 277.04 144.28 276.74 143.81 
M 277.31 144.65 277.35 144.09 277.95 143.49 278.51 143.45 278.47 144.01 277.87 144.61 277.31 144.65 
M 271.53 103.18 272.04 103.42 272.38 104.19 272.22 104.73 271.71 104.49 271.37 103.71 271.53 103.18 
M 271.5 104.48 271.67 103.95 272.39 103.5 272.95 103.59 272.78 104.13 272.05 104.57 271.5 104.48 
M 285.33 150.47 285.68 150.03 286.51 149.87 287 150.16 286.65 150.6 285.82 150.75 285.33 150.47 
M 285.93 150.92 285.96 150.36 286.56 149.75 287.12 149.71 287.08 150.27 286.49 150.87 285.93 150.92 
M 289.66 144.15 289.51 144.69 288.8 145.16 288.24 145.08 288.39 144.54 289.1 144.07 289.66 144.15 
M 289.53 144.9 288.97 144.82 288.42 144.17 288.43 143.61 288.98 143.7 289.53 144.34 289.53 144.9 
M 272.11 163.37 271.55 163.34 270.95 162.74 270.9 162.18 271.46 162.22 272.07 162.82 272.11 163.37 
M 272.1 162.53 271.67 162.89 270.83 162.88 270.41 162.51 270.83 162.14 271.68 162.16 272.1 162.53 
M 294.8 152.67 294.92 152.12 295.59 151.61 296.15 151.64 296.04 152.19 295.36 152.7 294.8 152.67 
M 296.12 152.24 295.56 152.34 294.83 151.91 294.66 151.37 295.21 151.27 295.94 151.71 296.12 152.24 
M 295.13 144.22 295.48 144.66 295.45 145.51 295.06 145.92 294.71 145.48 294.74 144.63 295.13 144.22 
M 294.47 144.9 295.03 144.88 295.69 145.41 295.79 145.97 295.23 145.98 294.57 145.45 294.47 144.9 
M 289.06 162.69 288.96 163.24 288.3 163.77 287.74 163.75 287.84 163.2 288.5 162.67 289.06 162.69 
M 288.13 162.63 288.51 163.05 288.52 163.9 288.16 164.33 287.79 163.91 287.77 163.06 288.13 162.63 
M 245.3 162.79 245.81 162.55 246.62 162.79 246.93 163.25 246.42 163.49 245.61 163.26 245.3 162.79 
M 245.52 162.77 246.08 162.82 246.67 163.43 246.7 163.99 246.14 163.94 245.55 163.33 245.52 162.77 
M 277.83 112.24 277.3 112.07 276.85 111.35 276.94 110.8 277.47 110.96 277.92 111.68 277.83 112.24 
M 276.78 111.28 277.34 111.32 277.94 111.92 277.98 112.48 277.42 112.44 276.82 111.84 276.78 111.28 
M 302.73 144.23 302.21 144.44 301.41 144.16 301.13 143.67 301.65 143.46 302.45 143.75 302.73 144.23 
M 302.34 144.45 301.87 144.15 301.63 143.33 301.86 142.82 302.34 143.13 302.58 143.94 302.34 144.45 
M 300.89 154.68 300.73 155.22 300.01 155.67 299.46 155.58 299.62 155.05 300.34 154.6 300.89 154.68 
M 300.71 155.5 300.17 155.34 299.71 154.62 299.79 154.07 300.33 154.23 300.79 154.94 300.71 155.5 
M 214.57 135.29 214.67 134.73 215.33 134.2 215.89 134.22 215.79 134.77 215.13 135.3 214.57 135.29 
M 214.65 134.47 215.2 134.55 215.76 135.19 215.76 135.75 215.21 135.67 214.65 135.03 214.65 134.47 
M 222.85 123.63 222.82 124.19 222.24 124.8 221.68 124.86 221.71 124.3 222.29 123.68 222.85 123.63 
M 222.24 124.89 222.09 124.35 222.45 123.58 222.97 123.35 223.12 123.9 222.76 124.66 222.24 124.89 
M 261.41 112.28 261.65 112.78 261.43 113.6 260.96 113.91 260.72 113.41 260.94 112.59 261.41 112.28 
M 260.55 113 261.1 112.91 261.82 113.36 261.99 113.9 261.43 113.98 260.71 113.53 260.55 113 
M 271.1 98.35 271.55 98.02 272.4 98.09 272.79 98.5 272.33 98.83 271.49 98.76 271.1 98.35 
M 271.3 98.33 271.86 98.24 272.58 98.69 272.74 99.23 272.19 99.31 271.47 98.86 271.3 98.33 
M 262.11 92.5 261.55 92.53 260.88 92.01 260.77 91.46 261.33 91.43 262 91.95 262.11 92.5 
M 261.47 92.62 261.28 92.1 261.58 91.3 262.07 91.04 262.27 91.56 261.97 92.36 261.47 92.62 
M 269.37 89.83 269.93 89.81 270.59 90.35 270.68 90.9 270.12 90.92 269.46 90.38 269.37 89.83 
M 270.52 90.78 270 90.57 269.61 89.81 269.75 89.27 270.27 89.48 270.66 90.23 270.52 90.78 
M 226.84 156.57 226.78 157.13 226.16 157.71 225.6 157.73 225.66 157.18 226.28 156.6 226.84 156.57 
M 226.76 156.8 226.4 157.24 225.57 157.38 225.09 157.09 225.44 156.66 226.28 156.51 226.76 156.8 
M 277.68 100.12 278.07 100.53 278.11 101.38 277.77 101.82 277.38 101.41 277.34 100.57 277.68 100.12 
M 278.37 100.95 277.84 101.14 277.05 100.83 276.79 100.34 277.31 100.15 278.11 100.45 278.37 100.95 
M 281.83 105.84 281.39 106.19 280.54 106.15 280.14 105.76 280.58 105.41 281.42 105.45 281.83 105.84 
M 281.59 106.02 281.03 106 280.41 105.42 280.35 104.86 280.91 104.88 281.53 105.46 281.59 106.02 
M 286.68 113.35 286.12 113.39 285.44 112.88 285.32 112.33 285.88 112.29 286.56 112.8 286.68 113.35 
M 285.95 112.2 286.16 112.72 285.88 113.52 285.4 113.8 285.19 113.28 285.46 112.48 285.95 112.2 
M 286.41 106.27 286.96 106.18 287.69 106.62 287.86 107.15 287.31 107.25 286.58 106.81 286.41 106.27 
M 287.76 106.54 287.29 106.85 286.45 106.73 286.08 106.31 286.55 106 287.39 106.12 287.76 106.54 
M 285.71 171.43 285.87 170.5 286.33 170.19 286.58 170.69 286.38 171.46 
M 286.68 170.69 286.3 171.1 285.45 171.19 284.99 170.87 285.38 170.46 286.22 170.37 286.68 170.69 
M 300.23 137.39 300.02 137.91 299.26 138.3 298.72 138.16 298.93 137.64 299.68 137.25 300.23 137.39 
M 298.92 137.44 299.46 137.57 299.96 138.26 299.91 138.82 299.37 138.69 298.87 138 298.92 137.44 
M 254.11 169.41 254.67 169.36 255.36 169.86 255.44 170.21 
M 254.54 170.17 254.24 169.96 254.11 169.41 
M 255.16 169.37 255 169.91 254.6 170.17 
M 253.78 170.14 253.89 169.75 254.6 169.29 255.16 169.37 
M 266.03 169.9 265.56 169.59 265.33 168.77 265.57 168.26 266.04 168.57 266.27 169.39 266.03 169.9 
M 266.43 168.93 265.95 169.22 265.11 169.08 264.76 168.65 265.24 168.35 266.07 168.5 266.43 168.93 
M 304.52 129.37 304.4 129.92 303.73 130.44 303.17 130.41 303.28 129.86 303.96 129.34 304.52 129.37 
M 304.44 129.64 304.01 130.01 303.17 130 302.74 129.63 303.17 129.27 304.02 129.27 304.44 129.64 
M 305.85 156.85 306.39 157.01 306.83 157.73 306.75 158.29 306.21 158.12 305.76 157.4 305.85 156.85 
M 305.66 157.69 306.16 157.42 306.99 157.61 307.32 158.06 306.82 158.32 306 158.14 305.66 157.69 
M 301.96 165.74 302.39 166.1 302.52 166.94 302.22 167.41 301.8 167.05 301.67 166.21 301.96 165.74 
M 302.4 166.01 302.3 166.56 301.63 167.08 301.07 167.06 301.18 166.51 301.84 165.98 302.4 166.01 
M 215.34 127.1 214.79 127.19 214.06 126.76 213.88 126.23 214.43 126.13 215.16 126.56 215.34 127.1 
M 214.1 126.27 214.63 126.46 215.04 127.2 214.93 127.75 214.4 127.56 213.99 126.82 214.1 126.27 
M 208.77 124.36 209.33 124.41 209.92 125.02 209.96 125.58 209.4 125.53 208.81 124.92 208.77 124.36 
M 209.26 125.61 209.18 125.05 209.64 124.34 210.18 124.18 210.26 124.74 209.79 125.45 209.26 125.61 
M 210.96 133.64 210.4 133.73 209.68 133.29 209.51 132.75 210.07 132.66 210.79 133.11 210.96 133.64 
M 210.74 132.8 210.43 133.26 209.61 133.48 209.1 133.24 209.42 132.77 210.24 132.55 210.74 132.8 
M 306.73 176.7 306.28 177.03 305.43 176.98 305.03 176.58 305.48 176.24 306.33 176.3 306.73 176.7 
M 306.39 177.04 305.86 176.84 305.46 176.09 305.58 175.55 306.11 175.75 306.51 176.49 306.39 177.04 
M 292.02 183.98 291.5 184.19 290.7 183.91 290.42 183.43 290.94 183.22 291.74 183.49 292.02 183.98 
M 291.4 183.08 291.41 183.64 290.88 184.3 290.33 184.4 290.31 183.84 290.84 183.18 291.4 183.08 
M 272.62 111.25 272.1 111.05 271.71 110.29 271.84 109.75 272.36 109.95 272.75 110.71 272.62 111.25 
M 272.84 110.27 272.39 110.62 271.55 110.58 271.14 110.19 271.58 109.85 272.43 109.89 272.84 110.27 
M 276.18 95.58 276.03 95.04 276.4 94.27 276.91 94.05 277.06 94.59 276.7 95.36 276.18 95.58 
M 276.8 95.41 276.44 94.98 276.44 94.14 276.81 93.71 277.17 94.14 277.17 94.99 276.8 95.41 
M 248.52 93.93 247.96 94.02 247.24 93.57 247.08 93.03 247.63 92.95 248.35 93.39 248.52 93.93 
M 248.32 93.86 247.79 93.68 247.35 92.96 247.44 92.41 247.98 92.58 248.42 93.3 248.32 93.86 
M 293.35 110.29 293.04 110.75 292.22 110.97 291.71 110.72 292.03 110.26 292.85 110.04 293.35 110.29 
M 292.14 111.02 292.33 110.49 293.07 110.07 293.62 110.18 293.43 110.71 292.69 111.13 292.14 111.02 
M 296.61 100.56 296.27 101.01 295.44 101.17 294.95 100.9 295.29 100.45 296.12 100.29 296.61 100.56 
M 296.41 100.59 295.92 100.87 295.09 100.71 294.74 100.27 295.23 99.99 296.06 100.15 296.41 100.59 
M 286.7 98.17 286.17 98.35 285.38 98.04 285.12 97.54 285.65 97.36 286.44 97.67 286.7 98.17 
M 285.77 97.22 286.05 97.71 285.9 98.54 285.46 98.89 285.18 98.41 285.33 97.58 285.77 97.22 
M 292.33 115.67 292.13 116.2 291.39 116.61 290.84 116.5 291.03 115.97 291.78 115.56 292.33 115.67 
M 291.05 115.73 291.58 115.88 292.05 116.59 291.97 117.15 291.44 116.99 290.97 116.28 291.05 115.73 
M 296.65 107.2 296.71 106.65 297.33 106.07 297.89 106.06 297.83 106.61 297.21 107.19 296.65 107.2 
M 296.63 106.54 297.19 106.44 297.91 106.89 298.08 107.42 297.52 107.52 296.8 107.07 296.63 106.54 
M 266.44 186.83 266.42 186.81 
M 266.47 186.79 266.44 186.83 
M 266.32 186.84 266.09 187.06 266 186.93 
M 286.94 197.52 287.49 197.38 288.25 197.76 288.47 198.28 287.92 198.42 287.16 198.04 286.94 197.52 
M 287.14 198.22 287.52 197.81 288.37 197.71 288.83 198.03 288.45 198.44 287.6 198.54 287.14 198.22 
M 220.53 155.23 220.92 155.64 220.95 156.49 220.6 156.93 220.22 156.52 220.18 155.67 220.53 155.23 
M 220.17 156.59 220.36 156.06 221.11 155.65 221.65 155.77 221.46 156.29 220.72 156.7 220.17 156.59 
M 226.37 167.67 226.39 167.11 226.97 166.49 227.53 166.43 227.51 166.99 226.93 167.61 226.37 167.67 
M 226.44 166.65 226.97 166.85 227.37 167.59 227.25 168.14 226.72 167.94 226.32 167.2 226.44 166.65 
M 262.47 197.29 262.1 197.71 261.26 197.82 260.79 197.51 261.16 197.09 262.01 196.98 262.47 197.29 
M 261.94 196.83 261.84 197.38 261.17 197.91 260.61 197.89 260.71 197.33 261.38 196.81 261.94 196.83 
M 312.92 158.76 312.39 158.95 311.6 158.63 311.34 158.14 311.87 157.95 312.66 158.27 312.92 158.76 
M 312.48 157.9 312.33 158.45 311.64 158.93 311.08 158.86 311.22 158.32 311.92 157.84 312.48 157.9 
M 305.19 150.46 305.48 150.94 305.34 151.78 304.91 152.14 304.61 151.66 304.76 150.82 305.19 150.46 
M 305.46 150.8 305.25 151.32 304.49 151.71 303.95 151.57 304.16 151.05 304.92 150.67 305.46 150.8 
M 314.59 185.59 314.03 185.56 313.42 184.97 313.37 184.41 313.93 184.44 314.54 185.03 314.59 185.59 
M 313.85 185.63 313.79 185.07 314.27 184.38 314.81 184.24 314.88 184.79 314.39 185.49 313.85 185.63 
M 300.18 117.11 299.63 117.22 298.89 116.79 298.71 116.26 299.27 116.15 300 116.58 300.18 117.11 
M 299.01 116.21 299.5 116.49 299.78 117.29 299.57 117.81 299.09 117.53 298.8 116.73 299.01 116.21 
M 303.23 108.08 303.37 108.63 303 109.39 302.48 109.61 302.34 109.07 302.71 108.31 303.23 108.08 
M 303.48 108.68 303.01 108.98 302.17 108.87 301.8 108.45 302.27 108.14 303.11 108.25 303.48 108.68 
M 208.99 159.55 209.1 159 209.77 158.49 210.33 158.52 210.22 159.07 209.55 159.59 208.99 159.55 
M 209.21 159.5 209.46 159 210.24 158.67 210.78 158.84 210.53 159.35 209.74 159.68 209.21 159.5 
M 213.45 165.41 212.96 165.14 212.67 164.35 212.86 163.82 213.36 164.09 213.65 164.89 213.45 165.41 
M 212.93 165.22 212.96 164.66 213.55 164.05 214.1 163.99 214.08 164.55 213.49 165.17 212.93 165.22 
M 201.77 129.63 201.24 129.44 200.82 128.7 200.94 128.15 201.46 128.34 201.88 129.08 201.77 129.63 
M 200.79 128.57 201.34 128.69 201.85 129.37 201.81 129.93 201.26 129.81 200.75 129.13 200.79 128.57 
M 301.87 122.19 302.41 122.04 303.18 122.4 303.4 122.92 302.86 123.07 302.1 122.7 301.87 122.19 
M 303.04 122.05 302.84 122.57 302.09 122.97 301.54 122.84 301.75 122.32 302.5 121.92 303.04 122.05 
M 308.51 112.68 307.96 112.83 307.2 112.46 306.98 111.94 307.52 111.8 308.29 112.17 308.51 112.68 
M 308.39 112.32 307.85 112.48 307.08 112.14 306.83 111.64 307.37 111.47 308.15 111.81 308.39 112.32 
M 258.06 83.19 257.89 83.72 257.17 84.16 256.61 84.07 256.78 83.53 257.51 83.09 258.06 83.19 
M 256.71 83.5 257.26 83.44 257.96 83.92 258.1 84.47 257.54 84.53 256.84 84.04 256.71 83.5 
M 254.85 90.2 255.39 90.36 255.85 91.07 255.77 91.63 255.23 91.47 254.77 90.75 254.85 90.2 
M 254.67 90.96 255.19 90.75 255.99 91.02 256.28 91.51 255.76 91.72 254.95 91.45 254.67 90.96 
M 213.57 149.47 213.41 148.93 213.77 148.16 214.28 147.93 214.44 148.47 214.08 149.24 213.57 149.47 
M 213.59 149.25 213.72 148.71 214.41 148.21 214.97 148.26 214.84 148.81 214.15 149.3 213.59 149.25 
M 213.96 143.25 213.4 143.27 212.74 142.75 212.63 142.2 213.19 142.17 213.86 142.7 213.96 143.25 
M 213.26 142.08 213.46 142.6 213.18 143.4 212.69 143.68 212.49 143.16 212.77 142.36 213.26 142.08 
M 309.11 140.35 308.9 140.87 308.15 141.26 307.6 141.14 307.81 140.61 308.56 140.22 309.11 140.35 
M 308.98 140.58 308.51 140.88 307.67 140.76 307.3 140.33 307.77 140.03 308.61 140.15 308.98 140.58 
M 321.38 146.54 320.91 146.85 320.06 146.74 319.69 146.32 320.16 146.01 321 146.12 321.38 146.54 
M 320.21 146.99 320.33 146.44 321.01 145.94 321.57 145.98 321.45 146.53 320.77 147.03 320.21 146.99 
M 317.81 141.35 317.49 140.88 317.59 140.04 318.01 139.66 318.32 140.13 318.22 140.97 317.81 141.35 
M 318.39 140.08 318.1 140.56 317.3 140.82 316.78 140.61 317.07 140.12 317.87 139.86 318.39 140.08 
M 273.52 211.56 273.99 211.25 274.83 211.34 275.21 211.76 274.75 212.07 273.9 211.98 273.52 211.56 
M 275.01 211.6 274.49 211.82 273.69 211.55 273.4 211.07 273.92 210.86 274.72 211.12 275.01 211.6 
M 321.12 183.86 321.27 183.32 321.98 182.85 322.54 182.92 322.39 183.46 321.68 183.93 321.12 183.86 
M 322.24 183.89 321.77 183.59 321.53 182.77 321.76 182.26 322.23 182.56 322.47 183.38 322.24 183.89 
M 309.42 171.35 309.61 170.82 310.35 170.41 310.9 170.52 310.71 171.05 309.97 171.46 309.42 171.35 
M 309.99 171.56 309.97 171 310.49 170.33 311.04 170.22 311.07 170.78 310.54 171.45 309.99 171.56 
M 253.02 210.96 252.54 210.67 252.29 209.85 252.52 209.34 252.99 209.64 253.24 210.45 253.02 210.96 
M 253.29 210.53 252.76 210.36 252.32 209.63 252.42 209.07 252.95 209.25 253.39 209.98 253.29 210.53 
M 316.81 165.94 316.96 165.39 317.67 164.93 318.22 165 318.07 165.54 317.37 166.01 316.81 165.94 
M 316.9 165.26 317.47 165.27 318.1 165.84 318.16 166.39 317.6 166.38 316.97 165.81 316.9 165.26 
M 321.34 177.55 321 178 320.17 178.18 319.68 177.91 320.02 177.46 320.85 177.28 321.34 177.55 
M 321.09 177.45 320.68 177.84 319.84 177.88 319.39 177.53 319.8 177.14 320.65 177.1 321.09 177.45 
M 293.04 121.65 292.87 122.18 292.15 122.63 291.59 122.54 291.76 122 292.48 121.56 293.04 121.65 
M 292.33 122.74 292.15 122.21 292.46 121.42 292.96 121.16 293.14 121.69 292.83 122.48 292.33 122.74 
M 202.66 135.72 202.21 136.06 201.36 136.01 200.96 135.61 201.41 135.27 202.26 135.33 202.66 135.72 
M 201.45 135.13 201.89 135.48 202.05 136.31 201.77 136.8 201.33 136.45 201.17 135.62 201.45 135.13 
M 206.6 139.33 206.58 138.77 207.11 138.1 207.66 138 207.69 138.56 207.16 139.22 206.6 139.33 
M 207.14 139.31 206.96 138.78 207.29 137.99 207.79 137.74 207.97 138.28 207.64 139.06 207.14 139.31 
M 308.32 104.26 307.84 104.55 307.01 104.41 306.65 103.97 307.13 103.68 307.97 103.83 308.32 104.26 
M 307.87 104.64 307.42 104.31 307.22 103.48 307.48 102.99 307.94 103.31 308.13 104.14 307.87 104.64 
M 194.62 134.64 194.98 135.07 194.97 135.92 194.6 136.34 194.24 135.91 194.25 135.07 194.62 134.64 
M 194.02 135.24 194.57 135.29 195.16 135.9 195.19 136.46 194.63 136.41 194.04 135.8 194.02 135.24 
M 195.81 130.54 195.25 130.5 194.64 129.9 194.6 129.34 195.16 129.38 195.76 129.98 195.81 130.54 
M 195.03 130.56 195.01 130 195.54 129.34 196.1 129.24 196.11 129.81 195.58 130.46 195.03 130.56 
M 281.62 211.16 281.96 211.6 281.91 212.45 281.51 212.85 281.17 212.41 281.23 211.56 281.62 211.16 
M 280.97 211.75 281.53 211.8 282.11 212.42 282.14 212.98 281.58 212.93 281 212.31 280.97 211.75 
M 272.73 197.63 273.21 197.34 274.04 197.47 274.41 197.9 273.93 198.2 273.09 198.06 272.73 197.63 
M 274.19 197.94 273.63 197.96 272.97 197.43 272.86 196.88 273.42 196.86 274.09 197.39 274.19 197.94 
M 310.94 134.96 311.23 135.44 311.08 136.28 310.64 136.63 310.35 136.15 310.5 135.31 310.94 134.96 
M 310.17 135.97 310.64 135.66 311.48 135.76 311.85 136.18 311.39 136.49 310.55 136.39 310.17 135.97 
M 311.67 123.61 311.8 123.07 312.31 122.71 
M 312.99 122.88 312.92 123.17 312.23 123.66 311.67 123.61 
M 311.73 122.97 312.29 122.93 312.98 123.43 313.1 123.98 312.54 124.02 311.86 123.52 311.73 122.97 
M 312.89 130.61 312.43 130.3 312.19 129.48 312.43 128.97 312.9 129.28 313.13 130.1 312.89 130.61 
M 312.77 129.15 312.85 129.71 312.4 130.43 311.86 130.59 311.78 130.03 312.23 129.32 312.77 129.15 
M 303.3 95.78 303 96.26 302.19 96.5 301.67 96.27 301.97 95.8 302.79 95.55 303.3 95.78 
M 302.35 95.4 302.63 95.88 302.47 96.72 302.03 97.06 301.75 96.58 301.91 95.74 302.35 95.4 
M 312.02 100.2 311.58 100.51 311.02 100.46 311.15 99.92 311.84 99.42 312.1 99.45 
M 312.01 100.23 311.72 100.17 311.21 99.5 311.24 98.94 311.79 99.05 312.1 99.45 
M 307.56 95.61 307.09 95.31 306.84 94.5 307.06 93.98 307.54 94.28 307.79 95.09 307.56 95.61 
M 307.63 95.36 307.22 94.98 307.12 94.13 307.44 93.67 307.85 94.05 307.95 94.89 307.63 95.36 
M 302 101.87 301.83 101.34 302.17 100.56 302.67 100.31 302.84 100.85 302.51 101.63 302 101.87 
M 302.02 100.53 302.43 100.91 302.53 101.76 302.21 102.22 301.8 101.84 301.7 101 302.02 100.53 
M 265.13 83.56 265.46 84.01 265.38 84.86 264.98 85.25 264.65 84.79 264.73 83.95 265.13 83.56 
M 264.64 83.9 265.12 84.21 265.35 85.02 265.11 85.53 264.64 85.23 264.41 84.41 264.64 83.9 
M 273.09 82.41 273.09 82.97 272.54 83.61 271.98 83.69 271.98 83.13 272.54 82.49 273.09 82.41 
M 273.13 83.3 272.57 83.25 271.98 82.64 271.95 82.08 272.51 82.13 273.1 82.74 273.13 83.3 
M 279.26 88.79 278.7 88.84 278.01 88.35 277.88 87.81 278.43 87.75 279.13 88.24 279.26 88.79 
M 278.99 88.79 278.51 88.5 278.25 87.69 278.47 87.17 278.95 87.46 279.21 88.27 278.99 88.79 
M 305.7 85.92 305.46 85.41 305.7 84.6 306.17 84.29 306.41 84.8 306.17 85.62 305.7 85.92 
M 306.38 85.57 305.89 85.31 305.59 84.51 305.78 83.99 306.27 84.25 306.58 85.04 306.38 85.57 
M 311.19 86.47 311.57 86.05 312.41 85.96 312.88 86.27 312.5 86.68 311.66 86.78 311.19 86.47 
M 312.37 85.82 312.24 86.36 311.55 86.86 310.99 86.81 311.12 86.26 311.81 85.77 312.37 85.82 
M 312.94 202.44 313.45 202.21 314.27 202.44 314.57 202.91 314.07 203.15 313.25 202.91 312.94 202.44 
M 313.11 202.73 313.63 202.52 314.44 202.78 314.72 203.27 314.21 203.48 313.4 203.21 313.11 202.73 
M 313.68 207.79 313.8 208.34 313.41 209.09 312.89 209.29 312.76 208.74 313.15 207.99 313.68 207.79 
M 312.63 208.54 313.17 208.37 313.95 208.71 314.19 209.21 313.65 209.38 312.88 209.04 312.63 208.54 
M 330.83 166.21 330.3 166.03 329.88 165.29 329.98 164.74 330.51 164.92 330.94 165.66 330.83 166.21 
M 330.52 166.11 330.26 165.61 330.46 164.79 330.91 164.46 331.17 164.96 330.97 165.79 330.52 166.11 
M 336.01 167.58 335.93 167.03 336.39 166.31 336.93 166.15 337.01 166.71 336.55 167.42 336.01 167.58 
M 337.12 166.9 336.58 167.04 335.81 166.68 335.59 166.16 336.13 166.01 336.9 166.38 337.12 166.9 
M 321.09 127.46 320.76 127 320.83 126.16 321.23 125.77 321.56 126.22 321.49 127.07 321.09 127.46 
M 321.64 126.17 321.36 126.66 320.56 126.95 320.04 126.74 320.31 126.25 321.11 125.97 321.64 126.17 
M 306.66 134.44 307.14 134.73 307.41 135.53 307.2 136.05 306.71 135.76 306.44 134.96 306.66 134.44 
M 307.07 135.88 306.78 135.39 306.94 134.56 307.39 134.21 307.67 134.7 307.51 135.53 307.07 135.88 
M 323.53 131.57 323.59 132.13 323.11 132.83 322.57 132.97 322.51 132.41 322.98 131.71 323.53 131.57 
M 323.69 132.37 323.13 132.46 322.41 132.01 322.25 131.47 322.8 131.38 323.52 131.83 323.69 132.37 
M 243.5 214.59 242.95 214.44 242.47 213.74 242.54 213.19 243.08 213.33 243.56 214.03 243.5 214.59 
M 242.44 213.6 242.99 213.68 243.55 214.32 243.55 214.89 242.99 214.81 242.44 214.17 242.44 213.6 
M 263.5 78.47 263.67 77.93 264.39 77.49 264.95 77.58 264.77 78.12 264.05 78.56 263.5 78.47 
M 263.88 77.48 264.31 77.84 264.44 78.68 264.14 79.15 263.71 78.79 263.58 77.95 263.88 77.48 
M 306 117.28 305.49 117.05 305.13 116.28 305.29 115.74 305.8 115.97 306.16 116.74 306 117.28 
M 305.12 116.13 305.65 116.3 306.09 117.03 305.99 117.58 305.46 117.41 305.02 116.68 305.12 116.13 
M 273.79 219.45 273.85 220.01 273.37 220.71 272.83 220.85 272.77 220.29 273.25 219.59 273.79 219.45 
M 273.66 219.61 273.51 220.15 272.81 220.62 272.25 220.55 272.4 220.01 273.11 219.54 273.66 219.61 
M 302.71 88.71 303.25 88.88 303.69 89.6 303.6 90.15 303.06 89.98 302.62 89.26 302.71 88.71 
M 303.77 89.63 303.21 89.63 302.57 89.07 302.49 88.51 303.05 88.52 303.69 89.07 303.77 89.63 
M 310.43 78.4 309.99 78.75 309.14 78.71 308.74 78.33 309.17 77.98 310.02 78.01 310.43 78.4 
M 309.81 77.76 309.78 78.32 309.19 78.93 308.64 78.98 308.66 78.42 309.25 77.81 309.81 77.76 
M 233.73 215.3 233.33 215.69 232.48 215.75 232.04 215.42 232.43 215.02 233.28 214.96 233.73 215.3 
M 233.25 214.83 233.09 215.36 232.37 215.81 231.81 215.73 231.98 215.19 232.69 214.74 233.25 214.83 
M 280.56 116.27 281.04 116.57 281.28 117.38 281.05 117.9 280.58 117.59 280.33 116.78 280.56 116.27 
M 281.45 117.07 280.92 117.25 280.14 116.93 279.88 116.43 280.41 116.25 281.2 116.57 281.45 117.07 
M 285.25 204.53 285.75 204.79 286.05 205.58 285.86 206.11 285.37 205.85 285.06 205.06 285.25 204.53 
M 286.19 205.2 285.7 205.47 284.87 205.29 284.53 204.84 285.02 204.57 285.85 204.75 286.19 205.2 
M 203.63 151.22 204.14 151.46 204.49 152.24 204.32 152.77 203.81 152.54 203.47 151.76 203.63 151.22 
M 204.09 151.36 204.17 151.92 203.7 152.63 203.16 152.79 203.09 152.23 203.55 151.52 204.09 151.36 
M 205.23 146.61 205.51 146.13 206.32 145.86 206.84 146.07 206.55 146.56 205.74 146.82 205.23 146.61 
M 206.56 145.98 206.22 146.42 205.39 146.58 204.9 146.31 205.24 145.86 206.08 145.7 206.56 145.98 
M 232.23 197.66 232.32 197.11 232.98 196.57 233.54 196.59 233.44 197.14 232.79 197.68 232.23 197.66 
M 232.28 197.37 232.71 197.01 233.56 197.02 233.98 197.4 233.55 197.76 232.7 197.74 232.28 197.37 
M 226.98 201.31 226.43 201.2 225.92 200.53 225.95 199.97 226.5 200.08 227.02 200.75 226.98 201.31 
M 226.69 201.25 226.35 200.8 226.39 199.96 226.78 199.55 227.12 199.99 227.08 200.84 226.69 201.25 
M 272.15 77.57 271.6 77.47 271.07 76.8 271.1 76.24 271.65 76.35 272.18 77.01 272.15 77.57 
M 271.67 77.55 271.46 77.03 271.74 76.23 272.23 75.95 272.44 76.47 272.16 77.27 271.67 77.55 
M 278.25 139.05 278.77 138.84 279.58 139.11 279.86 139.59 279.34 139.81 278.54 139.53 278.25 139.05 
M 279.03 139.97 278.88 139.43 279.25 138.66 279.76 138.43 279.91 138.97 279.55 139.74 279.03 139.97 
M 327.1 179.17 327.66 179.23 328.24 179.85 328.26 180.41 327.7 180.35 327.12 179.73 327.1 179.17 
M 327.07 180 327.52 179.66 328.37 179.73 328.76 180.13 328.31 180.46 327.47 180.4 327.07 180 
M 206.92 167.5 207.3 167.91 207.31 168.25 
M 206.57 168.22 206.56 167.93 206.92 167.5 
M 207.14 167.73 207.14 168.25 
M 206.23 168.21 206.59 167.81 207.14 167.73 
M 325.73 142.42 325.38 142.86 324.55 143.03 324.06 142.75 324.41 142.31 325.24 142.14 325.73 142.42 
M 324.27 142.43 324.83 142.39 325.5 142.91 325.62 143.46 325.06 143.49 324.38 142.98 324.27 142.43 
M 330.22 144.39 329.95 143.89 330.13 143.06 330.59 142.73 330.85 143.22 330.67 144.05 330.22 144.39 
M 330.46 142.91 330.58 143.46 330.17 144.21 329.65 144.4 329.53 143.85 329.94 143.11 330.46 142.91 
M 331.09 187.06 330.76 186.61 330.83 185.76 331.23 185.37 331.56 185.82 331.49 186.67 331.09 187.06 
M 330.66 185.81 331.18 186.01 331.57 186.77 331.44 187.31 330.92 187.1 330.53 186.35 330.66 185.81 
M 286.1 89.19 286.51 88.81 287.36 88.78 287.79 89.14 287.38 89.52 286.53 89.54 286.1 89.19 
M 286.36 88.9 286.91 88.96 287.49 89.59 287.5 90.15 286.94 90.08 286.37 89.46 286.36 88.9 
M 292.87 96.69 292.31 96.65 291.7 96.06 291.66 95.5 292.22 95.54 292.82 96.13 292.87 96.69 
M 292.65 95.58 292.47 96.11 291.73 96.53 291.18 96.43 291.36 95.9 292.1 95.47 292.65 95.58 
M 319.37 193.61 319.93 193.56 320.61 194.05 320.75 194.6 320.19 194.65 319.5 194.15 319.37 193.61 
M 319.42 193.99 319.98 193.91 320.69 194.38 320.84 194.92 320.29 194.99 319.57 194.53 319.42 193.99 
M 351.27 183.21 350.79 183.49 349.95 183.35 349.6 182.91 350.08 182.62 350.91 182.77 351.27 183.21 
M 350.59 183.68 350.29 183.21 350.42 182.37 350.85 182.01 351.15 182.48 351.02 183.32 350.59 183.68 
M 340.24 185.59 340.67 185.22 341.52 185.22 341.94 185.59 341.52 185.95 340.67 185.95 340.24 185.59 
M 341.46 185.06 341.3 185.59 340.57 186.04 340.02 185.95 340.19 185.42 340.91 184.97 341.46 185.06 
M 316.09 133.74 316.65 133.84 317.17 134.51 317.15 135.07 316.59 134.96 316.07 134.3 316.09 133.74 
M 316.38 135 316.42 134.44 317.02 133.84 317.58 133.8 317.54 134.36 316.94 134.96 316.38 135 
M 296.2 87.19 296.47 87.68 296.29 88.51 295.84 88.85 295.57 88.35 295.75 87.52 296.2 87.19 
M 296.22 87.4 296.22 87.96 295.65 88.6 295.1 88.67 295.1 88.11 295.67 87.48 296.22 87.4 
M 281.9 80.65 281.81 81.21 281.15 81.74 280.59 81.73 280.69 81.17 281.34 80.64 281.9 80.65 
M 280.63 81.39 281.09 81.06 281.93 81.14 282.32 81.54 281.87 81.87 281.03 81.8 280.63 81.39 
M 289.7 79.57 289.61 80.13 288.97 80.67 288.41 80.67 288.49 80.11 289.14 79.57 289.7 79.57 
M 288.64 80.61 288.85 80.09 289.61 79.71 290.15 79.85 289.94 80.37 289.18 80.75 288.64 80.61 
M 198.93 163.21 198.43 163.46 197.6 163.27 197.28 162.81 197.77 162.55 198.6 162.75 198.93 163.21 
M 197.45 163.02 197.99 162.84 198.77 163.16 199.02 163.67 198.49 163.84 197.71 163.52 197.45 163.02 
M 328.98 133.65 328.46 133.44 328.08 132.69 328.21 132.14 328.73 132.35 329.12 133.11 328.98 133.65 
M 328.03 133.21 328.42 132.8 329.26 132.71 329.72 133.03 329.34 133.44 328.49 133.53 328.03 133.21 
M 195.54 140.93 195.53 140.37 196.07 139.72 196.62 139.62 196.63 140.18 196.09 140.84 195.54 140.93 
M 196.08 139.63 196.25 140.17 195.92 140.95 195.41 141.19 195.24 140.66 195.58 139.88 196.08 139.63 
M 201.21 141.82 201.53 142.28 201.45 143.12 201.04 143.51 200.71 143.05 200.8 142.2 201.21 141.82 
M 200.53 142.93 200.95 142.55 201.8 142.54 202.23 142.9 201.81 143.28 200.96 143.29 200.53 142.93 
M 330.62 203.38 330.59 202.82 331.12 202.16 331.67 202.06 331.7 202.62 331.17 203.28 330.62 203.38 
M 331.27 203.35 331 202.86 331.18 202.03 331.63 201.7 331.9 202.19 331.72 203.02 331.27 203.35 
M 340.59 195.27 340.13 194.95 339.92 194.13 340.18 193.63 340.64 193.95 340.84 194.77 340.59 195.27 
M 340.44 195.09 340.22 194.58 340.49 193.77 340.97 193.48 341.19 194 340.92 194.81 340.44 195.09 
M 323.62 200.43 323.44 199.89 323.76 199.11 324.26 198.86 324.44 199.39 324.12 200.17 323.62 200.43 
M 323.63 200.21 323.74 199.66 324.4 199.13 324.97 199.16 324.86 199.71 324.19 200.23 323.63 200.21 
M 327.32 191.67 327.74 191.3 328.59 191.29 329.02 191.66 328.59 192.03 327.75 192.03 327.32 191.67 
M 328.67 192.07 328.15 191.87 327.75 191.11 327.88 190.57 328.4 190.77 328.8 191.52 328.67 192.07 
M 228.13 220.01 227.62 220.25 226.81 220.03 226.49 219.56 227 219.32 227.82 219.54 228.13 220.01 
M 226.67 219.68 227.23 219.6 227.95 220.05 228.11 220.59 227.55 220.67 226.84 220.22 226.67 219.68 
M 237.19 217.56 237.74 217.44 238.48 217.85 238.68 218.37 238.13 218.49 237.39 218.08 237.19 217.56 
M 238.19 217.37 238.14 217.93 237.52 218.51 236.96 218.54 237.01 217.98 237.63 217.4 238.19 217.37 
M 277.46 166.74 277.07 167.15 276.22 167.23 275.77 166.91 276.15 166.5 277 166.42 277.46 166.74 
M 276 167.03 276.45 166.7 277.3 166.76 277.69 167.16 277.24 167.5 276.4 167.43 276 167.03 
M 281.74 72.72 281.87 72.18 282.56 71.68 283.12 71.73 282.99 72.28 282.3 72.77 281.74 72.72 
M 282.43 72.87 282.26 72.34 282.58 71.56 283.09 71.31 283.26 71.84 282.94 72.62 282.43 72.87 
M 277.17 73.57 277.29 74.12 276.88 74.86 276.36 75.06 276.24 74.51 276.65 73.76 277.17 73.57 
M 277.21 74.78 276.72 74.51 276.43 73.71 276.63 73.19 277.12 73.46 277.41 74.26 277.21 74.78 
M 316.13 217.95 316.2 218.5 316.02 218.78 
M 315.15 219.02 315.12 218.81 315.59 218.1 316.13 217.95 
M 315.03 218.53 315.59 218.47 316.04 218.77 
M 315.16 219.02 315.03 218.53 
M 269.03 69.45 268.53 69.7 267.71 69.49 267.39 69.03 267.89 68.78 268.71 68.99 269.03 69.45 
M 268.84 69.08 268.36 69.38 267.52 69.26 267.16 68.83 267.63 68.53 268.47 68.65 268.84 69.08 
M 274.9 68.32 274.83 68.88 274.21 69.45 273.65 69.46 273.71 68.91 274.34 68.33 274.9 68.32 
M 274.25 69.54 274.1 69 274.47 68.23 274.98 68.01 275.13 68.55 274.76 69.31 274.25 69.54 
M 280.61 63.51 281.12 63.75 281.48 64.52 281.32 65.06 280.81 64.82 280.45 64.05 280.61 63.51 
M 280.4 63.96 280.95 64.08 281.46 64.76 281.43 65.32 280.88 65.2 280.37 64.53 280.4 63.96 
M 196.16 156.37 196.33 155.84 197.05 155.4 197.61 155.49 197.44 156.02 196.71 156.47 196.16 156.37 
M 196.44 156.4 196.68 155.89 197.46 155.56 198 155.73 197.75 156.23 196.98 156.57 196.44 156.4 
M 331.74 137.23 331.73 137.79 331.15 138.42 330.6 138.49 330.61 137.93 331.18 137.3 331.74 137.23 
M 330.97 138.48 330.97 137.92 331.52 137.27 332.08 137.19 332.08 137.75 331.53 138.39 330.97 138.48 
M 248.9 85.68 249.54 85.52 249.53 86.08 248.97 86.72 248.52 86.78 
M 249.19 85.55 249.17 86.11 248.54 86.74 
M 248.94 85.58 249.19 85.55 
M 336.31 146.56 336.79 146.85 337.06 147.66 336.84 148.18 336.36 147.89 336.09 147.08 336.31 146.56 
M 337.03 147.83 336.53 147.57 336.22 146.78 336.4 146.25 336.9 146.51 337.21 147.3 337.03 147.83 
M 338.76 138.69 339.23 138.39 340.07 138.52 340.43 138.95 339.96 139.25 339.12 139.12 338.76 138.69 
M 339.97 138.3 339.8 138.83 339.07 139.27 338.52 139.17 338.69 138.63 339.42 138.2 339.97 138.3 
M 270.56 63.96 270.01 64.09 269.26 63.69 269.06 63.17 269.6 63.04 270.35 63.44 270.56 63.96 
M 269.98 64.19 269.67 63.72 269.78 62.88 270.2 62.51 270.51 62.97 270.4 63.82 269.98 64.19 
M 274.4 59.32 273.86 59.17 273.39 58.47 273.46 57.91 274 58.06 274.47 58.76 274.4 59.32 
M 273.31 58.43 273.87 58.42 274.52 58.97 274.61 59.52 274.05 59.53 273.4 58.98 273.31 58.43 
M 257.23 78.45 256.8 78.1 256.65 77.26 256.94 76.78 257.38 77.13 257.52 77.97 257.23 78.45 
M 257.18 76.98 257.27 77.53 256.83 78.25 256.3 78.43 256.2 77.88 256.64 77.15 257.18 76.98 
M 250.75 80.48 251.28 80.3 252.06 80.62 252.32 81.12 251.79 81.3 251 80.98 250.75 80.48 
M 251.97 80.32 251.73 80.83 250.96 81.18 250.5 81.05 
M 250.69 80.5 251.43 80.16 251.97 80.32 
M 202.11 166.84 202.2 166.29 202.85 165.74 203.41 165.75 203.32 166.3 202.67 166.85 202.11 166.84 
M 202.17 166.56 202.59 166.19 203.44 166.17 203.87 166.53 203.45 166.9 202.61 166.92 202.17 166.56 
M 302.3 80.41 302.25 80.97 301.64 81.56 301.08 81.59 301.13 81.04 301.74 80.44 302.3 80.41 
M 301.35 81.55 301.49 81.01 302.18 80.52 302.74 80.58 302.6 81.12 301.91 81.61 301.35 81.55 
M 294.61 77.27 295.15 77.11 295.92 77.47 296.15 77.98 295.61 78.14 294.84 77.78 294.61 77.27 
M 295.23 77 295.52 77.48 295.37 78.31 294.94 78.67 294.65 78.18 294.8 77.35 295.23 77 
M 302.3 74.03 301.74 74.06 301.07 73.54 300.96 72.99 301.52 72.96 302.19 73.48 302.3 74.03 
M 302.27 73.56 301.73 73.69 300.97 73.31 300.76 72.79 301.31 72.65 302.06 73.04 302.27 73.56 
M 201.53 198.21 201.69 198.75 201.33 199.52 200.82 199.75 200.67 199.21 201.02 198.44 201.53 198.21 
M 200.91 198.39 201.29 198.81 201.31 199.65 200.95 200.09 200.57 199.67 200.55 198.82 200.91 198.39 
M 260.8 68.41 260.83 67.85 261.42 67.24 261.98 67.19 261.95 67.75 261.36 68.36 260.8 68.41 
M 262.03 67.67 261.54 67.95 260.7 67.77 260.36 67.33 260.85 67.06 261.68 67.23 262.03 67.67 
M 263.6 61.68 264.16 61.71 264.76 62.31 264.8 62.87 264.24 62.83 263.64 62.24 263.6 61.68 
M 264.84 62.33 264.29 62.45 263.54 62.06 263.34 61.53 263.89 61.41 264.64 61.8 264.84 62.33 
M 265.48 55.92 265.99 56.14 266.37 56.9 266.23 57.44 265.71 57.23 265.34 56.46 265.48 55.92 
M 266.49 56.54 266 56.82 265.17 56.67 264.82 56.23 265.3 55.94 266.14 56.1 266.49 56.54 
M 359.12 186.1 358.74 185.69 358.71 184.84 359.06 184.4 359.44 184.81 359.47 185.66 359.12 186.1 
M 358.44 185.27 358.97 185.09 359.76 185.4 360.02 185.9 359.49 186.08 358.7 185.77 358.44 185.27 
M 358.77 179.81 358.23 179.96 357.47 179.58 357.25 179.06 357.79 178.92 358.55 179.3 358.77 179.81 
M 357.39 179.64 357.85 179.31 358.69 179.39 359.08 179.79 358.63 180.12 357.78 180.04 357.39 179.64 
M 199.63 147.33 199.97 146.88 200.8 146.71 201.29 146.99 200.95 147.43 200.12 147.6 199.63 147.33 
M 199.94 147.53 200.27 147.08 201.1 146.9 201.6 147.16 201.26 147.62 200.43 147.8 199.94 147.53 
M 194.55 198.51 195.05 198.78 195.34 199.58 195.14 200.11 194.65 199.83 194.36 199.04 194.55 198.51 
M 194.43 199.8 194.65 199.29 195.4 198.9 195.95 199.04 195.73 199.56 194.98 199.94 194.43 199.8 
M 188.57 203.13 189.13 203.15 189.75 203.73 189.81 204.28 189.25 204.26 188.63 203.69 188.57 203.13 
M 189.82 203.85 189.26 203.9 188.57 203.4 188.45 202.85 189.01 202.8 189.69 203.3 189.82 203.85 
M 212.32 210.44 211.8 210.22 211.42 209.46 211.56 208.92 212.08 209.13 212.46 209.89 212.32 210.44 
M 212.49 209.34 212.12 209.77 211.28 209.88 210.81 209.58 211.18 209.16 212.02 209.04 212.49 209.34 
M 297.05 94.47 296.8 93.97 297 93.15 297.46 92.82 297.72 93.32 297.51 94.15 297.05 94.47 
M 297.89 93.79 297.33 93.84 296.64 93.34 296.51 92.8 297.07 92.75 297.76 93.24 297.89 93.79 
M 294.53 82.92 294.05 82.63 293.78 81.83 293.99 81.31 294.48 81.59 294.74 82.4 294.53 82.92 
M 294.49 82.72 294.14 82.28 294.18 81.43 294.56 81.02 294.91 81.46 294.88 82.31 294.49 82.72 
M 281.44 93.1 281.64 92.58 282.39 92.17 282.93 92.29 282.74 92.82 281.99 93.22 281.44 93.1 
M 282.43 92.1 282.39 92.66 281.78 93.25 281.22 93.29 281.27 92.73 281.87 92.14 282.43 92.1 
M 309.05 73.97 308.62 73.61 308.48 72.78 308.77 72.3 309.21 72.66 309.34 73.49 309.05 73.97 
M 308.27 73.03 308.83 72.95 309.55 73.4 309.71 73.94 309.15 74.02 308.44 73.57 308.27 73.03 
M 256.22 64.7 255.93 65.18 255.41 65.35 
M 255.66 64.49 256.22 64.7 
M 255.57 64.8 256.04 64.67 256.55 64.91 256.24 65.38 255.34 65.57 
M 293.57 72.7 293.03 72.84 292.27 72.45 292.06 71.93 292.6 71.8 293.36 72.18 293.57 72.7 
M 293.18 71.79 293.02 72.32 292.3 72.77 291.75 72.69 291.91 72.15 292.63 71.7 293.18 71.79 
M 357.66 193.23 358.04 193.64 358.06 194.49 357.7 194.92 357.33 194.51 357.31 193.66 357.66 193.23 
M 357.44 193.47 357.8 193.91 357.78 194.76 357.4 195.17 357.05 194.74 357.07 193.89 357.44 193.47 
M 345.11 162.54 345.58 162.84 345.83 163.66 345.6 164.17 345.12 163.87 344.88 163.05 345.11 162.54 
M 345.87 162.97 345.54 163.43 344.72 163.62 344.22 163.36 344.55 162.91 345.37 162.71 345.87 162.97 
M 201.24 212.54 201.74 212.29 202.56 212.51 202.87 212.98 202.37 213.22 201.55 213 201.24 212.54 
M 202.24 212.14 202.25 212.7 201.81 213.23 
M 201.15 213 201.68 212.23 202.24 212.14 
M 351.33 119.12 350.82 119.33 350 119.04 
M 350.96 118.61 351.33 119.12 
M 350.22 119.42 350.32 118.89 
M 351.55 118.39 351.45 118.92 350.78 119.44 350.22 119.42 
M 263.47 73.93 262.93 73.79 262.44 73.1 262.5 72.54 263.04 72.68 263.53 73.37 263.47 73.93 
M 262.99 72.59 263.16 73.12 262.82 73.9 262.31 74.14 262.14 73.61 262.48 72.83 262.99 72.59 
M 258.31 59.39 257.92 58.98 257.88 58.14 258.12 57.84 
M 258.42 57.9 258.62 58.1 258.65 58.95 258.31 59.39 
M 258.11 59.17 258.08 58.61 258.6 57.93 
M 258.81 57.89 259.14 57.82 259.17 58.38 258.66 59.06 258.11 59.17 
M 300.08 220.6 299.53 220.73 298.78 220.34 298.57 219.82 299.12 219.69 299.87 220.08 300.08 220.6 
M 299.28 220.86 299.15 220.31 299.54 219.56 300.06 219.35 300.19 219.9 299.8 220.65 299.28 220.86 
M 276.4 53.97 276.36 54.53 275.75 55.13 275.19 55.16 275.24 54.61 275.84 54.01 276.4 53.97 
M 275.16 54.49 275.71 54.39 276.44 54.82 276.62 55.35 276.07 55.45 275.34 55.02 275.16 54.49 
M 346.84 204.54 346.3 204.38 345.85 203.66 345.93 203.11 346.47 203.27 346.92 203.99 346.84 204.54 
M 347 204.01 346.44 204.02 345.79 203.47 345.71 202.92 346.27 202.91 346.92 203.46 347 204.01 
M 352.93 199.76 352.61 200.23 351.79 200.44 351.29 200.19 351.6 199.73 352.43 199.51 352.93 199.76 
M 351.66 199.5 352.15 199.78 352.44 200.58 352.24 201.1 351.75 200.83 351.46 200.03 351.66 199.5 
M 360 200.22 359.44 200.32 358.72 199.88 358.55 199.34 359.1 199.25 359.82 199.69 360 200.22 
M 359.64 200.31 359.19 199.97 359.03 199.14 359.3 198.65 359.75 198.99 359.91 199.82 359.64 200.31 
M 341.15 209.27 340.6 209.21 340.01 208.59 339.99 208.03 340.55 208.09 341.13 208.71 341.15 209.27 
M 341.21 208.56 340.71 208.8 339.89 208.58 339.58 208.11 340.08 207.87 340.9 208.09 341.21 208.56 
M 254.3 71.92 254.69 72.32 254.72 73.17 254.37 73.61 253.99 73.2 253.95 72.35 254.3 71.92 
M 254.87 73.13 254.33 72.97 253.89 72.24 253.98 71.69 254.51 71.86 254.96 72.58 254.87 73.13 
M 290.21 67.37 289.64 67.39 288.99 66.85 288.89 66.3 289.45 66.28 290.11 66.82 290.21 67.37 
M 289.57 66.19 289.72 66.73 289.36 67.5 288.85 67.73 288.7 67.19 289.05 66.42 289.57 66.19 
M 326.04 154.45 326.58 154.59 327.06 155.3 326.99 155.86 326.45 155.71 325.98 155.01 326.04 154.45 
M 326.21 154.58 326.61 154.97 326.69 155.82 326.37 156.27 325.96 155.89 325.88 155.04 326.21 154.58 
M 299.36 66.56 299.88 66.34 300.68 66.61 300.97 67.1 300.45 67.31 299.64 67.04 299.36 66.56 
M 299.58 66.55 300.14 66.63 300.7 67.26 300.71 67.82 300.15 67.75 299.59 67.11 299.58 66.55 
M 345.97 136.06 345.56 135.67 345.48 134.83 345.8 134.37 346.21 134.76 346.29 135.6 345.97 136.06 
M 345.29 135.47 345.71 135.1 346.56 135.1 346.99 135.46 346.57 135.83 345.72 135.84 345.29 135.47 
M 347.48 144.8 347.27 144.28 347.53 143.47 348.01 143.18 348.23 143.7 347.97 144.51 347.48 144.8 
M 348 144.58 347.64 144.16 347.63 143.31 348 142.88 348.37 143.31 348.37 144.16 348 144.58 
M 337.95 131.6 338.5 131.68 339.06 132.31 339.07 132.88 338.51 132.8 337.95 132.16 337.95 131.6 
M 338.06 131.77 338.55 132.04 338.85 132.83 338.66 133.36 338.17 133.09 337.86 132.3 338.06 131.77 
M 342.35 145.26 341.82 145.09 341.37 144.37 341.46 143.81 342 143.98 342.44 144.7 342.35 145.26 
M 341.59 145.1 341.7 144.55 342.37 144.03 342.93 144.06 342.82 144.61 342.15 145.13 341.59 145.1 
M 345.05 124.78 345.17 124.96 344.88 125.11 
M 344.81 125.24 344.76 125.81 344.54 125.75 
M 304.59 62.11 305.07 62.41 305.31 63.23 305.08 63.74 304.6 63.43 304.36 62.62 304.59 62.11 
M 305.31 63.36 304.8 63.12 304.45 62.35 304.61 61.81 305.12 62.05 305.47 62.82 305.31 63.36 
M 300.68 56.22 300.88 55.69 301.63 55.29 302.17 55.41 301.98 55.93 301.23 56.34 300.68 56.22 
M 300.78 55.85 301.31 55.65 302.11 55.93 302.38 56.42 301.86 56.62 301.06 56.34 300.78 55.85 
M 353.63 137.02 353.17 136.7 352.96 135.88 353.1 135.58 
M 353.71 135.86 353.88 136.52 353.63 137.02 
M 353.13 136.78 353.22 136.22 353.67 135.84 
M 354.35 136.15 353.69 136.78 353.13 136.78 
M 356.85 144.93 356.74 145.48 356.07 146 355.51 145.98 355.62 145.42 356.29 144.9 356.85 144.93 
M 355.67 145.06 356.2 145.25 356.61 145.99 356.5 146.54 355.97 146.35 355.55 145.61 355.67 145.06 
M 356.52 155.17 357.07 155.08 357.8 155.52 357.96 156.06 357.41 156.15 356.69 155.7 356.52 155.17 
M 357.12 156.25 357.05 155.69 357.53 154.99 358.07 154.84 358.14 155.4 357.66 156.1 357.12 156.25 
M 358.38 164.33 357.83 164.45 357.08 164.04 356.89 163.52 357.44 163.4 358.18 163.81 358.38 164.33 
M 357.73 163.29 357.82 163.84 357.36 164.56 356.83 164.72 356.74 164.17 357.2 163.45 357.73 163.29 
M 355.87 205.72 356.33 205.4 357.17 205.49 357.56 205.9 357.09 206.22 356.25 206.13 355.87 205.72 
M 356.68 205.16 356.88 205.69 356.59 206.48 356.09 206.76 355.89 206.23 356.18 205.44 356.68 205.16 
M 292.07 101.73 291.62 102.06 290.78 102 290.38 101.6 290.83 101.26 291.68 101.33 292.07 101.73 
M 290.66 101.36 291.21 101.46 291.74 102.12 291.72 102.68 291.17 102.58 290.64 101.92 290.66 101.36 
M 286.47 54.43 286.57 55.05 286.27 55.53 285.84 55.16 285.71 54.33 285.88 54.06 
M 285.76 54.17 286.21 54.5 286.4 55.32 286.14 55.82 285.69 55.49 285.49 54.66 285.76 54.17 
M 273.87 48.09 273.68 47.56 274 46.78 274.49 46.52 274.68 47.05 274.37 47.84 273.87 48.09 
M 274.82 47.24 274.31 47.46 273.56 47.23 
M 274.08 46.62 274.53 46.76 274.82 47.24 
M 294.53 62.74 295.04 62.99 295.37 63.77 295.2 64.31 294.69 64.06 294.36 63.28 294.53 62.74 
M 294.22 63.62 294.73 63.37 295.55 63.59 295.86 64.05 295.36 64.3 294.54 64.08 294.22 63.62 
M 291.41 58.13 291.79 58.54 291.82 59.39 291.47 59.83 291.09 59.42 291.06 58.57 291.41 58.13 
M 290.82 59.18 291.28 58.85 292.13 58.93 292.51 59.34 292.06 59.66 291.21 59.58 290.82 59.18 
M 285.67 61.63 286.03 61.21 286.87 61.08 287.34 61.37 286.98 61.8 286.14 61.93 285.67 61.63 
M 286.8 62.08 286.4 61.68 286.34 60.83 286.68 60.38 287.08 60.78 287.14 61.63 286.8 62.08 
M 308.49 180.97 309.02 181.15 309.45 181.88 309.35 182.43 308.82 182.25 308.39 181.52 308.49 180.97 
M 308.94 182.34 308.75 181.81 309.07 181.03 309.56 180.77 309.75 181.3 309.44 182.08 308.94 182.34 
M 296.7 185.97 296.17 185.78 295.75 185.05 295.86 184.5 296.39 184.68 296.81 185.42 296.7 185.97 
M 295.69 185.5 296.11 185.12 296.96 185.11 297.39 185.47 296.97 185.84 296.12 185.86 295.69 185.5 
M 307.65 146.9 307.15 147.14 306.33 146.91 306.02 146.44 306.53 146.2 307.34 146.43 307.65 146.9 
M 306.3 147.02 306.65 146.59 307.49 146.44 307.97 146.73 307.61 147.17 306.78 147.31 306.3 147.02 
M 280.7 57.34 280.95 57.84 280.74 58.66 280.28 58.99 280.03 58.49 280.24 57.66 280.7 57.34 
M 280.66 57.54 280.68 58.1 280.16 58.77 279.61 58.88 279.58 58.32 280.1 57.65 280.66 57.54 
M 331.48 150.52 332.01 150.34 332.8 150.65 333.06 151.14 332.53 151.33 331.74 151.02 331.48 150.52 
M 332.38 151.47 332.12 150.97 332.31 150.15 332.76 149.81 333.03 150.31 332.84 151.14 332.38 151.47 
M 362.43 161.3 361.96 160.99 361.73 160.18 361.97 159.67 362.44 159.98 362.67 160.79 362.43 161.3 
M 361.58 160.66 362.05 160.35 362.89 160.46 363.27 160.87 362.8 161.19 361.96 161.08 361.58 160.66 
M 295.57 58.2 295.94 57.78 296.78 57.67 297.25 57.98 296.88 58.4 296.03 58.51 295.57 58.2 
M 296.93 58.47 296.4 58.29 295.96 57.57 296.06 57.01 296.59 57.19 297.03 57.92 296.93 58.47 
M 350.89 130.52 350.58 130.99 349.77 131.23 349.26 130.99 349.56 130.52 350.38 130.29 350.89 130.52 
M 349.79 130.18 350.18 130.58 350.22 131.43 349.88 131.87 349.49 131.47 349.44 130.62 349.79 130.18 
M 280.19 52.8 280.47 52.31 281.27 52.03 281.79 52.23 281.51 52.72 280.72 53.01 280.19 52.8 
M 281.6 52.31 281.15 52.64 280.31 52.57 279.91 52.17 280.37 51.84 281.21 51.91 281.6 52.31 
M 356.29 126.69 356.81 126.47 357.61 126.73 357.9 127.21 357.39 127.43 356.58 127.17 356.29 126.69 
M 356.47 126.81 357.02 126.76 357.71 127.25 357.85 127.8 357.29 127.85 356.6 127.35 356.47 126.81 
M 361 118.04 361.23 118.55 360.99 119.36 360.52 119.67 360.29 119.16 360.53 118.34 361 118.04 
M 360.71 118.21 360.92 118.73 360.65 119.53 360.17 119.82 359.95 119.3 360.22 118.49 360.71 118.21 
M 352.36 124.77 352.06 125.25 351.25 125.49 350.73 125.26 351.03 124.79 351.85 124.55 352.36 124.77 
M 351.59 124.37 351.73 124.92 351.33 125.67 350.81 125.88 350.68 125.34 351.07 124.58 351.59 124.37 
M 363.11 125.56 363.07 125 363.58 124.32 364.12 124.2 364.17 124.76 363.66 125.44 363.11 125.56 
M 363.39 124.27 363.74 124.71 363.7 125.56 363.32 125.97 362.97 125.53 363.01 124.68 363.39 124.27 
M 362.75 145.12 362.6 145.66 361.89 146.13 361.33 146.05 361.49 145.51 362.19 145.05 362.75 145.12 
M 361.43 145.37 361.99 145.39 362.61 145.97 362.67 146.53 362.11 146.51 361.49 145.93 361.43 145.37 
M 360.03 139.82 359.48 139.88 358.78 139.39 358.64 138.85 358.91 138.82 
M 359.95 139.5 360.03 139.82 
M 359.68 139.32 359.5 139.46 358.65 139.4 358.25 139 358.69 138.68 
M 287.49 74.02 287.91 74.4 288.02 75.24 287.71 75.71 287.29 75.33 287.18 74.49 287.49 74.02 
M 287.99 75.38 287.53 75.06 287.33 74.23 287.58 73.73 288.04 74.06 288.25 74.88 287.99 75.38 
"/></svg>