<svg xmlns="http://www.w3.org/2000/svg" width="520" height="320"><rect x="0" y="0" width="520" height="320" fill="floralwhite"/><rect x="10" y="10" width="500" height="300" stroke="black" stroke-width="1" fill="none"/><path stroke="black" stroke-width="1" fill="none" stroke-linecap="round" stroke-linejoin="round" d="
M 143.06 130.65 153.22 126.7 163.35 123.15 173.48 119.91 193.74 113.97 203.87 111.57 214 109.81 224.13 108.47 254.53 107.83 264.66 108.98 274.79 111.26 284.92 114.08 315.31 123.34 325.45 126.79 355.84 138.75 387.11 150.34 
M 387.11 176.26 365.97 185.87 355.84 190.28 345.71 194.31 335.58 198.14 325.45 201.45 305.18 207.59 295.05 209.85 274.79 213.6 264.66 214.53 254.53 215.16 244.4 214.9 224.13 215.11 214 213.85 203.87 211.79 193.74 209.39 183.61 206.73 173.48 204.43 163.35 201.7 153.22 198.21 132.95 189.95 
M 146.23 137.54 146.57 136.78 146.57 133.13 145.12 129.85 
M 144.85 133.26 148.56 129.14 148.96 128.36 
M 157.19 148.44 155.38 143.31 152.12 138.04 149.57 135.98 
M 160.18 148.03 162.11 145.92 164.81 140.73 164.81 137.52 162.11 132.33 157.92 127.75 154.92 126.1 
M 171.4 191.37 171.31 191.03 
M 163.84 138.78 167.53 134.65 169.76 130.13 169.76 127.33 167.53 122.8 166.86 122.02 
M 159.2 126.43 165.49 125.3 
M 158.56 128.36 165.52 128.93 
M 160.87 131.47 165.98 132.01 
M 172.3 148.22 172 147.47 168.83 142.93 166.36 141.15 
M 171.36 191.37 171.63 191.09 
M 166.39 128.66 169.41 127.32 173.28 123.89 175.77 120 175.77 119.25 
M 177.92 147.53 180.05 143.25 180.05 140.26 177.64 135.43 173.9 131.16 170.99 129.49 
M 168.58 139.27 175.71 137.94 
M 168.43 141.8 175.37 141.51 
M 168.31 144.21 175.98 145.63 
M 183.95 193.34 184.01 190.27 183.57 189.22 
M 175.13 140.77 177.4 139.15 180.29 135 182.16 130.29 182.16 127.38 180.29 122.68 177.55 118.75 
M 172.98 126.21 178.38 124.93 
M 172.77 129.15 178.73 128.47 
M 173.39 131.47 178.47 132.5 
M 184.51 146.09 183.37 144.39 181.08 142.68 
M 186.18 193.73 186 193.44 183.97 191.83 
M 181.49 129.18 183.9 128.1 187.72 124.7 190.19 120.84 190.19 118.45 188.36 115.59 
M 191.52 149.63 192.13 148.93 194.5 144.17 194.5 141.22 192.13 136.46 188.46 132.26 185.6 130.62 
M 196.76 168.97 196.9 168.49 
M 196.2 195.48 197.54 192.51 197.54 189.61 195.41 184.92 193.96 183.09 
M 187.44 188.26 193.35 187.85 
M 186.66 191.19 193.33 191.07 
M 187.22 193.85 191.4 194.66 
M 189.31 117.53 189.82 117.34 193.43 114.69 194.04 113.9 
M 190.4 142.01 193.01 140.44 196.35 136.4 198.5 131.84 198.5 129.01 196.35 124.44 193.01 120.41 190.4 118.83 
M 197.24 167.48 198.17 166.84 201.23 162.59 203.2 157.77 203.2 154.79 201.23 149.97 198.17 145.71 195.78 144.05 
M 195.46 190.55 197.83 188.95 200.87 184.85 202.82 180.2 202.82 177.33 200.87 172.69 197.83 168.59 197.03 168.04 
M 201.62 196.38 199.42 193.13 197.25 191.53 
M 197.04 113.96 200.61 113.24 205.29 111.32 
M 197.99 132.17 201.35 130.92 205.66 127.73 208.44 124.12 208.44 121.89 205.66 118.28 201.35 115.09 197.99 113.84 
M 195.03 120.87 203.11 120.03 
M 194.84 122.69 203.67 122.7 
M 194.34 125.17 203.11 125.94 
M 202.49 155.94 204.55 154.89 208.45 150.86 210.97 146.31 210.97 143.49 208.45 138.94 204.55 134.92 201.5 133.35 
M 198.27 142.98 206.47 141.5 
M 198.53 145.33 206.12 144.63 
M 198.89 147.22 206.05 148.07 
M 203.67 180.54 206.53 178.94 210.2 174.82 212.56 170.17 212.56 167.28 210.2 162.63 206.53 158.51 203.67 156.91 
M 210.49 197.73 212.69 193.35 212.69 190.54 210.4 186 206.86 181.99 204.1 180.42 
M 206.39 123.23 209.4 122.3 213.26 119.92 215.75 117.22 215.75 115.55 213.26 112.85 209.58 110.58 
M 210.07 144.07 210.94 143.61 214.5 139.92 216.8 135.75 216.8 133.16 214.5 128.98 210.94 125.29 208.16 123.85 
M 211.65 170.25 214.04 168.65 217.1 164.54 219.07 159.89 219.07 157.01 217.1 152.36 214.04 148.26 211.65 146.65 
M 211.87 192.82 214.19 191.31 217.26 187.32 219.23 182.8 219.23 180 217.26 175.49 214.19 171.5 211.8 169.94 
M 209.54 179.47 215.76 177.78 
M 209.74 181.1 215.83 181.28 
M 209.54 184.01 216.02 184.42 
M 217.02 198.5 214.17 194.74 211.89 193.23 
M 215.86 118.82 219.22 118.13 223.53 116.37 226.3 114.36 226.3 113.12 223.53 111.12 219.22 109.35 218.53 109.21 
M 216.11 135.89 219.39 134.74 223.59 131.78 226.3 128.43 226.3 126.35 223.59 123 219.39 120.05 216.11 118.89 
M 212.53 125.79 221.76 124.62 
M 212.53 127.23 221.14 127.33 
M 214.7 129.57 221.45 129.75 
M 217.89 158.37 220.86 156.9 224.67 153.15 227.12 148.9 227.12 146.27 224.67 142.03 220.86 138.28 217.89 136.81 
M 214.99 145.06 222.7 143.93 
M 214.66 147.33 222.54 147.18 
M 215.32 150.18 222.97 151.09 
M 218.96 181.76 221.72 180.21 225.25 176.23 227.53 171.73 227.53 168.94 225.25 164.43 221.72 160.46 218.96 158.9 
M 225.2 199.09 227.51 194.6 227.51 191.87 225.26 187.44 221.78 183.54 219.06 182.02 
M 224.81 114.03 227.32 113.56 230.53 112.36 232.6 111.01 232.6 110.17 230.53 108.82 229.23 108.33 
M 222.32 109.7 228.96 109.7 
M 222.79 110.19 228.46 110.84 
M 222.24 111.29 228.85 112.02 
M 225.33 127.31 227.13 126.68 230.5 124.29 232.68 121.59 232.68 119.92 230.5 117.22 227.13 114.84 224.49 113.9 
M 221.93 119.61 228.78 118.56 
M 221.66 120.6 228.97 120.41 
M 221.7 121.95 228.31 122.68 
M 225.39 147.66 227.9 146.34 231.12 142.97 233.19 139.15 233.19 136.79 231.12 132.97 227.9 129.59 225.39 128.28 
M 226.71 170.25 228.58 169 231.43 165.17 233.26 160.83 233.26 158.14 231.43 153.8 228.58 149.97 226.35 148.47 
M 224.37 157.62 230.37 156.53 
M 224.22 159.62 229.77 159.69 
M 224.62 162.1 230.27 162.85 
M 226.05 193.44 228.24 191.88 231.03 187.9 232.83 183.39 232.83 180.6 231.03 176.09 228.24 172.11 226.71 171.02 
M 231.06 198.97 228.72 195.82 226.51 194.34 
M 232.17 121.51 235.02 120.81 238.66 119.02 241.01 116.98 241.01 115.72 238.66 113.69 235.02 111.9 232.17 111.19 
M 232.43 138.19 235.31 137.08 238.99 134.23 241.37 131.01 241.37 129.01 238.99 125.79 235.31 122.94 232.43 121.83 
M 233.02 159.26 235.75 157.87 239.24 154.32 241.49 150.29 241.49 147.8 239.24 143.77 235.75 140.22 233.02 138.83 
M 233.13 182 235.75 180.49 239.09 176.6 241.25 172.2 241.25 169.48 239.09 165.08 235.75 161.19 233.13 159.67 
M 239.39 198.89 241.26 195.05 241.26 192.33 239.12 187.93 235.78 184.04 233.18 182.52 
M 231.01 191.4 237.4 190.39 
M 230.51 193.44 237.52 193.59 
M 231.05 195.9 237.03 196.94 
M 240.17 115.19 241.77 114.82 244.46 113.59 246.2 112.19 246.2 111.33 244.46 109.93 241.77 108.7 239.66 108.22 
M 237.4 111.38 242.86 110.98 
M 237.79 111.89 242.81 112.07 
M 237.47 112.41 242.96 112.56 
M 239.73 129.12 241.96 128.19 244.83 125.82 246.68 123.14 246.68 121.48 244.83 118.79 241.96 116.42 240.17 115.68 
M 240.68 148.02 242.31 147.09 245.14 143.83 246.96 140.14 246.96 137.86 245.14 134.17 242.31 130.92 240.1 129.65 
M 237.94 136.74 243.41 136.48 
M 238.34 139.35 243.74 138.61 
M 238.11 141.22 243.83 141.62 
M 240.25 170.51 242.39 169.05 245.13 165.29 246.89 161.04 246.89 158.41 245.13 154.16 242.39 150.4 240.68 149.23 
M 240.5 193.12 242.04 192.01 244.81 188.04 246.59 183.54 246.59 180.76 244.81 176.26 242.04 172.29 239.87 170.74 
M 237.72 179.51 243.34 178.71 
M 238.01 181.86 243.22 182.2 
M 237.61 184.63 242.92 185.23 
M 244.51 198.88 242.41 195.94 240.5 194.61 
M 246.1 122 248.58 121.27 251.75 119.4 253.79 117.28 253.79 115.97 251.75 113.85 248.58 111.98 246.1 111.24 
M 243.27 115.7 250.13 114.64 
M 243.81 116.46 249.79 116.59 
M 243.43 117.82 250.19 118.32 
M 246.71 138.82 249.27 137.71 252.55 134.86 254.67 131.63 254.67 129.63 252.55 126.4 249.27 123.55 246.71 122.44 
M 247 159.46 249.53 158.09 252.77 154.57 254.86 150.59 254.86 148.13 252.77 144.15 249.53 140.63 247 139.26 
M 246.97 182.14 249.52 180.63 252.78 176.76 254.88 172.38 254.88 169.66 252.78 165.28 249.52 161.41 246.97 159.9 
M 244.92 169.14 250.76 167.35 
M 244.8 171.15 251.35 171.35 
M 244.64 173.47 250.89 174.49 
M 253.06 199.04 254.91 195.18 254.91 192.47 252.8 188.08 249.53 184.2 246.97 182.69 
M 251.79 114.21 253.66 113.67 256.06 112.3 257.61 110.74 257.61 109.78 256.06 108.22 255.58 107.95 
M 253.91 129.06 255.27 128.41 257.87 125.89 259.55 123.05 259.55 121.29 257.87 118.44 255.27 115.93 253.24 114.95 
M 253.79 148.42 255.85 147.15 258.48 143.88 260.18 140.19 260.18 137.9 258.48 134.2 255.85 130.94 253.91 129.73 
M 251.68 137.01 257.25 135.88 
M 251.85 138.99 257.34 139.36 
M 252.22 141.24 256.94 141.74 
M 254.13 170.35 255.9 169.07 258.51 165.29 260.19 161 260.19 158.35 258.51 154.06 255.9 150.28 253.86 148.8 
M 251.61 157.15 256.93 156.77 
M 252.09 159.33 257.14 159.8 
M 251.7 162.07 256.81 162.9 
M 253.91 193.92 256.06 192.37 258.81 188.41 260.59 183.92 260.59 181.13 258.81 176.64 256.06 172.68 254.13 171.29 
M 251.83 180.18 257.41 179.29 
M 251.64 182.8 257.32 182.14 
M 251.84 184.67 257.13 186.07 
M 258.07 198.94 255.92 195.89 253.83 194.42 
M 258.95 121.09 260.95 120.43 263.95 118.44 265.89 116.19 265.89 114.79 263.95 112.54 260.95 110.55 258.6 109.77 
M 256.75 114.1 262.64 113.39 
M 256.03 115.78 262.76 115.55 
M 256.42 116.32 262.55 117.08 
M 259.85 138.49 262.27 137.35 265.37 134.44 267.37 131.14 267.37 129.1 265.37 125.8 262.27 122.89 259.85 121.76 
M 260.16 159.05 262.56 157.67 265.63 154.12 267.61 150.11 267.61 147.63 265.63 143.61 262.56 140.07 260.16 138.69 
M 260.44 182.07 262.9 180.54 266.05 176.63 268.09 172.21 268.09 169.47 266.05 165.04 262.9 161.13 260.44 159.6 
M 257.73 168.44 264.03 167.84 
M 258.28 171.25 264.78 170.88 
M 257.84 173.27 264.02 173.97 
M 266.75 198.6 268.38 195.15 268.38 192.43 266.31 188.03 263.1 184.14 260.59 182.62 
M 257.97 191.52 264.29 190.15 
M 258.44 193.69 264.9 193.91 
M 258.54 195.85 264.47 197.36 
M 263.67 112.57 265.45 112.03 267.9 110.57 268.58 109.86 
M 261.79 109.21 266.28 109.34 
M 265.85 128.64 267.85 127.62 270.41 125.01 272.07 122.06 272.07 120.23 270.41 117.28 267.85 114.67 265.85 113.66 
M 264.24 119.32 268.77 119.06 
M 263.87 121.28 269.03 121.33 
M 264.27 122.24 269.03 123.33 
M 266.9 147.26 268.5 146.23 271.03 142.97 272.66 139.27 272.66 136.99 271.03 133.29 268.5 130.03 266.52 128.76 
M 264.63 135.89 269.39 135.13 
M 264.97 137.99 270.07 138.29 
M 264.88 139.85 269.91 140.79 
M 266.45 169.73 268.38 168.22 270.85 164.36 272.44 159.98 272.44 157.27 270.85 152.9 268.38 149.03 266.9 147.88 
M 267.64 194.02 269.64 192.51 272.31 188.49 274.03 183.93 274.03 181.11 272.31 176.55 269.64 172.53 267.55 170.96 
M 271.14 198.41 269.11 195.47 267.64 194.4 
M 271.15 120.28 273.68 119.48 276.91 117.43 279 115.12 279 113.68 277.5 112.02 
M 269.09 112.87 275.25 112.86 
M 268.92 114.26 275.33 114.34 
M 268.36 115.16 275.29 116.38 
M 272.62 137.62 275.08 136.48 278.24 133.57 280.27 130.27 280.27 128.23 278.24 124.93 275.08 122.02 272.62 120.88 
M 270.23 127.15 276.45 126.66 
M 270.02 128.81 276.64 129.14 
M 270.36 130.76 276.22 132 
M 272.67 157.97 275.13 156.58 278.27 153.03 280.3 149 280.3 146.5 278.27 142.48 275.13 138.92 272.67 137.53 
M 273.42 181.46 275.82 179.96 279.02 175.98 281.07 171.48 281.07 168.69 279.02 164.19 275.82 160.21 273.33 158.66 
M 270.87 167.44 277.57 166.57 
M 270.76 169.89 277.63 170.07 
M 270.65 172.59 277.28 173.16 
M 280.3 197.66 281.64 194.78 281.64 192.03 279.57 187.57 276.36 183.65 273.85 182.11 
M 271.12 191.28 278.04 190.05 
M 271.19 193.38 277.51 193.01 
M 271.27 195.47 278.14 197.04 
M 276.25 111.8 276.5 111.74 
M 279.54 127.79 281.08 127.06 283.83 124.45 285.59 121.5 285.59 119.68 283.83 116.73 281.08 114.12 278.94 113.11 
M 279.16 146.26 281.25 145.02 283.94 141.84 285.67 138.24 285.67 136.01 283.94 132.41 281.25 129.24 279.54 128.22 
M 280.34 167.14 280.75 166.85 283.54 162.93 285.35 158.49 285.35 155.74 283.54 151.3 280.75 147.38 278.56 145.85 
M 280.76 193.87 282.87 192.26 285.57 188.16 287.31 183.51 287.31 180.64 285.57 175.99 282.87 171.89 280.76 170.29 
M 283.98 197.26 282.16 194.7 280.04 193.21 
M 285.57 120.63 288.37 119.88 291.97 117.98 293.32 116.72 
M 286.23 137.39 288.87 136.28 292.25 133.43 294.43 130.21 294.43 128.21 292.25 124.99 288.87 122.14 286.23 121.03 
M 283.46 127.22 290.13 126.66 
M 283.57 128.78 290.36 129.57 
M 284.08 130.91 290.78 131.24 
M 286.37 158.05 289.04 156.66 292.45 153.09 294.64 149.05 294.64 146.54 292.45 142.5 289.04 138.93 286.37 137.54 
M 283.97 145.57 290.77 144.81 
M 283.37 147.65 290.79 147.54 
M 283.62 149.8 290.61 150.94 
M 287.09 181.59 289.72 180.04 293.08 176.07 295.26 171.58 295.26 168.79 293.08 164.3 289.72 160.33 287.09 158.78 
M 294.78 196 295.38 194.72 295.38 191.98 293.28 187.55 290.01 183.64 287.46 182.11 
M 284.79 191.12 291.87 190.06 
M 285.29 193.64 291.41 193.29 
M 285.06 195.58 291.3 196.41 
M 293.38 128.01 295.68 127.11 298.62 124.79 300.52 122.17 300.52 120.55 299.01 118.47 
M 293.86 146.97 295.7 145.92 298.6 142.63 300.46 138.9 300.46 136.59 298.6 132.86 295.7 129.57 293.44 128.29 
M 294.33 170.34 296.66 168.83 299.66 164.95 301.59 160.55 301.59 157.83 299.66 153.43 296.66 149.54 294.33 148.03 
M 294.7 193.76 296.84 192.22 299.57 188.25 301.33 183.75 301.33 180.97 299.57 176.47 296.84 172.5 294.7 170.95 
M 296.68 195.73 296.47 195.45 294.63 194.19 
M 301.01 121.96 303.79 121.28 305.47 120.44 
M 300.87 138.16 303.57 137.08 307.02 134.29 309.25 131.14 309.25 129.19 307.02 126.04 303.57 123.26 300.87 122.18 
M 298.11 128.69 305.24 127.47 
M 298.36 130.05 305.07 130.42 
M 298.15 131.49 305.34 132.69 
M 301.12 159.05 303.82 157.67 307.28 154.13 309.51 150.11 309.51 147.63 307.28 143.62 303.82 140.08 301.12 138.69 
M 301.45 182.02 304.07 180.51 307.42 176.63 309.59 172.24 309.59 169.52 307.42 165.12 304.07 161.24 301.45 159.73 
M 299.17 168.5 305.76 167.37 
M 298.6 170.8 305.96 171.15 
M 298.91 173.02 306.05 174.24 
M 309 193.7 309 192.11 306.93 187.78 303.72 183.95 301.21 182.46 
M 298.57 191.37 305.57 189.96 
M 298.82 193.69 305.25 193.01 
M 299.02 195.38 299.07 195.39 
M 308.46 129.33 310.64 128.45 313.47 126.14 315.3 123.54 315.3 123.34 
M 308.21 148.09 310.44 146.83 313.3 143.61 315.14 139.97 315.14 137.71 313.3 134.06 310.44 130.85 308.46 129.73 
M 308.81 170.37 310.69 169.1 313.46 165.32 315.25 161.04 315.25 158.39 313.46 154.12 310.69 150.34 308.52 148.87 
M 308.24 193.42 310.34 191.9 313.02 188.01 314.76 183.6 314.76 180.88 313.02 176.47 310.34 172.58 308.81 171.48 
M 307.76 193.96 307.59 193.84 
M 315.14 138.77 317.71 137.68 321 134.9 323.12 131.76 323.12 129.81 321 126.66 318.25 124.34 
M 315.27 159.4 317.84 158.03 321.14 154.54 323.26 150.58 323.26 148.13 321.14 144.17 317.84 140.68 315.27 139.31 
M 313.09 147.56 319.68 146.12 
M 313.16 149.45 319.77 149.27 
M 312.55 151.67 319.48 152.67 
M 315.18 181.84 317.68 180.36 320.89 176.57 322.95 172.28 322.95 169.62 320.89 165.33 317.68 161.54 315.18 160.06 
M 321.42 191.09 319.7 187.38 316.67 183.66 314.3 182.2 
M 322.36 128.96 323.83 128.29 325.47 126.81 
M 322.14 148.43 324.22 147.17 326.89 143.92 328.61 140.24 328.61 137.97 326.89 134.29 324.22 131.05 322.36 129.92 
M 322.21 170.5 324.31 169.04 326.98 165.3 328.71 161.07 328.71 158.44 326.98 154.21 324.31 150.47 322.21 149.01 
M 324.36 190.48 326.27 187.66 327.91 183.4 327.91 180.77 326.27 176.51 323.72 172.75 322.21 171.64 
M 319.87 180.31 324.51 179.09 
M 319.47 181.95 325.16 182.39 
M 320.13 184.45 324.53 185.6 
M 328.36 138.41 330.75 137.31 333.81 134.51 335.78 131.33 335.78 130.89 
M 328.71 159.16 331.13 157.8 334.23 154.31 336.23 150.36 336.23 147.92 334.23 143.97 331.13 140.48 328.71 139.12 
M 328.28 181.01 330.64 179.57 333.66 175.88 335.61 171.7 335.61 169.11 333.66 164.93 330.64 161.24 328.28 159.8 
M 332.72 188.66 331.55 186.06 328.69 182.44 327.32 181.57 
M 335.51 147.5 336.95 146.54 339.42 143.24 341.02 139.51 341.02 137.2 339.42 133.47 338.22 131.86 
M 332.83 136.51 337.91 135.26 
M 333.45 138.12 338.14 138.39 
M 333.29 140.17 337.91 140.87 
M 335.44 169.88 337.41 168.45 339.94 164.78 341.56 160.62 341.56 158.05 339.94 153.9 337.41 150.23 335.51 148.85 
M 336.57 187.78 337.88 185.77 339.39 181.7 339.39 179.18 337.88 175.11 335.54 171.52 333.71 170.12 
M 332.19 178.39 336.39 177.52 
M 331.58 180.25 337.08 180.21 
M 332.06 182.26 336.79 183.16 
M 340.69 137.08 342.94 135.99 344.57 134.4 
M 341.18 157.95 343.4 156.6 346.24 153.13 348.08 149.2 348.08 146.76 346.24 142.83 343.4 139.36 341.18 138.01 
M 340.37 179.24 342.53 177.84 345.3 174.23 347.08 170.14 347.08 167.61 345.3 163.52 342.53 159.91 340.98 158.9 
M 343.75 185.9 342.86 183.86 340.07 180.23 337.9 178.81 
M 346.8 145.96 348.58 144.68 350.87 141.39 352.34 137.41 
M 347.45 168.14 349.17 166.72 351.37 163.1 352.79 158.99 352.79 156.45 351.37 152.34 349.17 148.72 347.45 147.3 
M 347.78 184.81 348.72 183.27 350.11 179.24 350.11 176.75 348.72 172.72 346.44 169.07 
M 343.97 175.55 347.63 174.9 
M 342.83 178.35 347.55 178.43 
M 343.3 179.72 347.18 181.12 
M 352.28 154.71 354.15 153.57 356.91 150.19 358.69 146.37 358.69 144 356.91 140.17 355.71 138.7 
M 349.84 143.24 355.44 141.93 
M 350.21 144.8 355.17 144.98 
M 349.79 146.77 355.37 148.36 
M 350.68 176.08 352.79 174.65 355.48 171 357.22 166.87 357.22 164.31 355.48 160.17 352.79 156.52 350.68 155.1 
M 355 182.78 354.33 181.19 351.46 177.31 349.21 175.8 
M 357.48 142.45 359.38 141.25 360.1 140.33 
M 356.22 162.99 358.02 161.62 360.31 158.12 361.79 154.15 361.79 151.69 360.31 147.73 358.02 144.22 356.22 142.85 
M 354.41 150.66 358.75 150.14 
M 354.42 153.06 359.09 152.52 
M 354.24 154.92 359.27 155.61 
M 356.69 182.28 358.32 179.53 359.83 175.09 359.83 172.34 358.32 167.9 356 163.98 354.18 162.45 
M 363.45 152.46 365.89 151.18 369.02 147.9 370.94 144.36 
M 361.47 140.95 361.7 140.92 
M 360.95 143 367.05 142.9 
M 360.86 144.63 367.21 145.69 
M 361.76 173.7 364.17 172.26 367.27 168.55 369.27 164.35 369.27 161.75 367.27 157.55 364.17 153.84 361.76 152.4 
M 366.74 179.11 363.87 175.42 361.4 173.84 
M 369.27 162.35 371.47 160.99 374.3 157.5 376.12 153.55 376.12 151.1 374.3 147.15 372.52 144.95 
M 373.37 176.9 374.33 174.62 374.33 171.87 372.48 167.43 369.6 163.52 367.35 161.99 
M 377.73 152.97 380.36 151.71 383.25 148.92 
M 376.03 174.24 378.68 172.8 382.09 169.12 384.29 164.95 384.29 162.36 382.09 158.19 378.68 154.5 376.03 153.07 
M 373.49 161.24 380.41 160.67 
M 373.89 163.49 380.43 163.77 
M 373.05 165.63 380.53 166.99 
M 377.35 175.59 375.43 174.46 
M 384.5 163.94 386.66 162.57 387.11 161.99 
M 387.11 168.14 385.24 165.66 383.5 164.51 
M 135.94 188.3 136.24 187.35 
M 146.83 192.33 148.45 189.18 148.88 187.72 
M 161.33 197.15 160.22 195.52 158.17 194 
M 154.92 126.1 154.92 126.1 
M 175.77 119.25 175.77 119.25 
M 179.48 201.41 182.03 197.94 183.95 193.34 
M 177.55 118.75 177.55 118.75 
M 190.27 203.8 190.27 202.25 188.59 197.57 186.18 193.73 
M 204.1 203.48 206.86 201.91 210.49 197.73 
M 209.58 110.58 209.58 110.58 
M 217.5 209.04 218.97 205.65 218.97 202.95 217.02 198.5 
M 209.95 202.51 215.41 200.68 
M 209.9 204.16 215.13 204.07 
M 209.65 206.84 215.16 207.51 
M 219.06 204.45 221.78 202.93 225.2 199.09 
M 225.13 209.76 221.96 206.4 219.34 205.02 
M 245.7 209.59 246.88 206.69 246.88 204.03 245.12 199.73 244.51 198.88 
M 238.31 203.33 243.76 202.51 
M 246.97 204.96 249.53 203.45 252.8 199.57 253.06 199.04 
M 252.24 209.74 249.57 206.88 247.03 205.51 
M 260.59 204.95 263.1 203.43 266.31 199.55 266.75 198.6 
M 265.32 209.2 263.1 206.79 260.59 205.42 
M 268.58 109.86 268.58 109.86 
M 266.28 109.34 266.28 109.34 
M 272.42 208.66 273.4 206.17 273.4 203.52 271.71 199.25 271.14 198.41 
M 273.85 204.69 276.36 203.16 279.57 199.23 280.3 197.66 
M 277.67 204.03 283.18 204.46 
M 277.93 206.05 282.66 207.28 
M 287.46 204.59 290.01 203.07 293.28 199.15 294.78 196 
M 289.66 206.13 287.54 204.97 
M 300.98 204.06 300.98 203.48 299.22 199.22 296.68 195.73 
M 302.3 203.8 303.72 202.95 306.93 199.13 309 194.79 309 193.7 
M 299.07 195.39 305.32 196.65 
M 318.8 199.53 319.7 198.42 321.66 194.2 321.66 191.59 321.42 191.09 
M 325.47 126.81 325.47 126.81 
M 324.03 198.1 323.83 197.58 321.49 194.02 320.96 193.62 
M 331.99 195.81 333.39 192.69 333.39 190.16 332.72 188.66 
M 338.22 131.86 338.22 131.86 
M 333.71 190.76 335.54 189.36 336.57 187.78 
M 344.57 134.4 344.57 134.4 
M 344.05 191.9 344.65 190.52 344.65 187.98 343.75 185.9 
M 344.88 188.21 346.56 186.82 347.78 184.81 
M 357.28 187.13 355.51 185.71 
M 367.05 142.9 367.05 142.9 
M 368.44 182.67 367.03 179.48 366.74 179.11 
M 358.64 182.73 365.22 182.35 
M 370.42 181.85 372.48 179.05 373.37 176.9 
M 383.25 148.92 383.25 148.92 
M 379.77 177.98 378.08 176.01 377.35 175.59 
M 193.74 113.97 193.74 113.97 
M 197.84 113 200.55 84.17 201.52 81.47 202.32 78.59 205.87 74.8 208 73.3 208.79 70.69 208.62 67.13 209.62 64.73 210.79 62.51 211.64 59.76 213.83 58.21 215.44 56.09 217.23 54.14 218.71 51.9 219.53 49 222.29 44.38 224.08 42.52 226.46 41.17 228.9 41.04 232.03 41.61 234.53 41.62 237.39 42.09 239.77 42.08 242.7 42.62 245.25 41.81 246.77 39.6 250.17 39.35 253.11 38.7 254.26 36.26 256.16 34.47 260.94 31.82 262.82 30 264.25 31.34 265.47 32.78 268.21 33.82 274.22 35.77 279.46 36.99 283.87 37.64 285.25 37.14 287.73 38.76 295.17 45.71 297.73 46.1 299.53 45.73 304.31 45.85 307.7 46.72 310.98 47.34 316.52 46.8 317.82 45.55 319.98 45.16 325.36 45.72 328.3 46.44 331.2 47.78 332.54 50.24 334.19 52.74 336.39 55.4 338.27 58.5 338.31 60.98 337.39 62.52 336.76 64.33 337.67 70.41 338.48 73.85 337.7 76.54 335.6 78.05 337.12 80.42 339.24 82.24 342.1 86.93 343.02 88.76 344.42 90.18 346.52 91.35 346.68 94.19 347.12 97.35 346.84 99.85 345.82 104.75 345.45 107.33 345.23 115.03 344.96 118.19 339.28 132.28 
M 335.58 130.81 335.58 130.8 
M 198.03 112.95 198.61 111.54 199.17 109.1 200.82 103.95 201.2 101.5 200.38 98.84 200.74 97.58 200.9 95.93 
M 202.31 111.94 204.78 102.2 204.95 100.19 204.81 98.31 205.04 96.86 205.02 94.01 204.92 90.55 204.41 87.47 
M 206.63 111.09 207.68 109.27 208.6 104.6 208.95 101.84 208.96 97.05 209.74 94.53 209.56 91.87 210.1 89.4 210.51 85.62 210.01 79.87 
M 210.97 110.33 211.99 108.41 212.7 106.3 213.15 103.89 213.54 101.49 213.39 98.98 213.97 93.82 214.58 89.3 215.33 87.01 215.51 84.36 
M 215.32 109.63 217.82 103.39 218.03 101.08 218.57 99.01 218.77 96.29 218.6 90.61 219.21 87.35 220.36 84.8 220.72 80.55 221.06 78.65 219.2 73.37 220.57 69.17 220.2 64.65 220.32 61.25 
M 219.69 109.06 220.82 107.05 222.48 100.21 222.3 97.92 222.93 95.8 223.9 90.26 224.75 87.49 225.11 85.32 224.68 82.55 225.61 81.23 225.59 79.41 225.13 75.55 225.22 72.05 
M 224.05 108.48 225.44 106.68 226.47 104.07 227.05 101.49 227.19 99.64 226.95 95.87 227.55 92.69 228.46 89.84 230.19 87.06 230.61 84.85 231.42 83.02 231.78 81 
M 228.46 108.35 230.02 106.62 230.83 104.3 231.03 101.84 232.09 99.45 232.67 94.43 233.78 92.16 234.53 89.89 235.56 87.75 236.77 82.96 238.85 79.11 
M 232.86 108.23 233.84 106.46 236.7 96.7 237.87 94.58 238.5 92.2 239.82 88.35 240.14 85.6 240.88 82.67 241.31 77.74 242.19 74.91 242.16 71.99 241.86 69.65 242.84 66.31 245.54 63.16 
M 237.26 108.16 238.31 106.42 239.2 104.3 240.03 101.84 240.5 99.53 242.12 94.47 243.2 91.65 244.55 84.64 245.26 82.19 245.16 76.82 246 74.5 246.54 67.86 247.34 65.72 248.4 64.56 249.33 62.75 250.61 56.72 251.61 53.54 253.26 49.11 253.7 45.92 253.18 43.86 252.95 41.42 253.51 39.97 254.51 38.76 
M 241.67 108.12 243.11 106.5 244.22 104.48 245.23 102.19 245.59 99.1 246.92 93.78 247.32 91.05 247.97 88.89 248.31 86.86 249.21 84.16 249.59 81.5 249.58 79.86 250.43 77.81 251.3 71.68 251.49 69.19 252.1 66.63 253.11 63.88 254.26 58.75 
M 246.07 108.05 247.38 106.17 248.44 104.26 250.6 96.27 251.68 93.39 251.84 88.89 252.45 86.17 253.02 84.32 254.56 81.16 254.91 78.63 256.13 75.7 256.36 72.48 256.21 69.82 257.49 67.27 257.81 63.54 257.74 60.45 
M 250.47 107.93 251.84 106.03 252.92 101.62 253.31 98.91 254.72 96.54 256.21 91.02 256.39 88.83 257.92 84.41 258.96 82.59 258.6 79.99 259.3 77.45 260.36 75.25 261.3 72.55 262.1 69.02 261.9 66.62 261.96 63.73 261.62 60.7 262.62 58.37 264.86 55.51 
M 254.88 107.87 256.35 106.16 258.15 101.42 259.24 99.11 260.47 97.03 262.39 92.48 263.98 87.15 264.88 84.83 265.06 82.58 265.47 80.88 268.89 71.7 269.61 68.78 
M 259.25 108.36 260.74 106.65 262.08 104.25 263.24 101.7 265.76 97.82 266.68 95.55 267.39 93.04 268.63 90.44 269.23 87.04 270.42 83.75 272.28 80.47 274.27 78.1 275.4 75.77 277.13 68.76 
M 263.63 108.86 265.37 107.25 266.74 105.11 271.35 95.67 271.99 93.32 272.86 91.62 274.06 88.3 274.94 85.23 275.86 83.03 277.54 81.69 279 79.4 280.05 76.83 280.85 74.19 282.2 72.26 282.73 70.24 283.69 67.74 285.32 65.07 286.85 63.74 287.53 61.87 287.59 58.05 289.27 55.61 289.35 54.81 291.08 49.39 
M 267.95 109.72 269.99 108.08 272.55 103.97 273.45 101.79 274.78 99.49 275.46 97.38 276.62 94.93 277.79 92.8 279.75 89.84 281.12 86.97 281.89 84.35 284.9 80.81 286.44 78.63 287.69 75.94 289.84 72.93 291.63 71.05 291.89 69.03 293.32 67.28 
M 272.25 110.69 274.08 109.06 275.44 107.26 281.37 96.25 284.24 91.4 286.21 89.3 287.38 87.7 288.65 85.36 290.8 82.48 292.17 79.08 293.07 76.24 296.47 74.09 296.98 71.32 298.08 69.14 300.46 67.62 302.31 64.96 
M 276.52 111.75 278.16 110.48 286.39 97.44 288.56 95.02 290.06 92.44 291.62 90.62 292.74 89.01 294.7 86.81 296.23 84.11 299.47 79.32 301.67 77.32 302.77 73.31 304.05 70.89 305.22 67.76 306.54 65.58 307.98 64.68 
M 280.77 112.93 282.58 111.63 286.94 105.8 288.28 103.59 290.04 101.29 291.03 98.56 292.89 96.05 294.02 93.14 296.03 91.35 297.61 89.56 298.56 86.86 300.07 84.53 303.79 81.05 304.75 79.75 305.59 77.09 310.19 69.38 312.61 66.54 313.28 63.86 316.02 59.18 317.66 56.76 317.6 53.86 
M 285.01 114.11 287.02 112.39 290.11 108.52 293.29 105.18 294.94 102.97 298.15 97.46 300.91 93.16 302.18 90.84 303.1 88.49 304.51 86.24 307.05 83.39 309.12 78.11 310.71 75.87 312.46 73.65 314.87 71.07 317.21 69.88 317.67 67.31 318.54 63.84 319.27 62.28 321.21 60.49 322.71 57.39 
M 289.21 115.43 291.29 113.79 292.91 112.04 294.27 109.97 295.87 108.3 298.22 106.32 301.9 102.25 302.21 100.23 303.21 97.71 304.54 96.12 305.35 93.67 307.4 91.7 309.1 89.1 311.17 87.19 312.14 85.63 314.6 79.55 317.09 77.67 318.59 75.12 320.57 73.64 321.85 70.55 322.64 67.69 323.97 65.05 324.61 62.87 328.9 57.69 330.73 56.11 332.87 52.52 
M 293.41 116.75 295.52 115.04 298.07 110.85 302 107.41 304.4 105.71 306.08 103.87 307.83 99.88 308.52 97.56 309.91 95.55 314.24 91.39 317.25 87.08 318.4 84.59 319.32 81.75 321.88 75.94 323.41 74.6 328.02 69.48 329.7 67.15 330.99 64.92 332.65 63 334.66 61.27 335.4 59.22 
M 297.62 118.05 299.9 116.28 301.5 114.31 302.8 112.39 308.8 107.37 309.9 105.05 311.74 103.17 312.92 100.77 314.63 98.34 316.16 95.46 318.18 93.14 319.43 92.23 321.48 87.91 323.17 81.61 325.16 79.94 326.75 78.11 
M 301.83 119.33 303.79 118.16 305.71 116.62 307.97 114.09 309.66 111.64 312.61 108.04 314.74 106.29 318.1 101.32 319.95 99.47 321.27 97.52 322.3 95.01 323.56 92.71 324.15 90.68 323.9 88.32 
M 306.05 120.61 307.91 119.68 309.71 118.05 311.77 115.85 315.78 111.02 316.63 109.25 318.73 107.29 320.37 104.38 324.71 98.8 324.87 96.24 326.64 94.37 327.47 92.16 
M 310.27 121.86 312.47 120.94 314.55 119.35 316.42 117 317.98 114.49 319.91 112.26 321.1 110.6 322.85 108.8 324.41 105.64 326.39 103.19 327.77 101.84 328.67 99.8 330.31 97.47 331.94 96.25 334.34 90.8 
M 314.5 123.1 316.94 122.15 318.74 120.42 320.76 118.22 322.24 115.87 323.92 112.17 326.48 110.36 328.27 108.27 329.89 106.68 332.27 102.2 337.23 98.5 339.02 95.82 340.71 90.09 
M 318.68 124.49 321.34 123.08 323.28 121.04 324.82 119.1 326.22 116.92 327.51 116.09 329.67 115.09 331.21 113.4 333.69 109.03 334.64 106.76 336.46 104.33 344.43 95.68 346.05 92.59 
M 322.85 125.91 325.92 124.56 327.76 122.76 329.05 120.42 330.65 119.64 334.78 117.08 336.47 115.12 338.95 110.15 340.08 107.52 341.37 105.69 
M 326.99 127.41 329.46 126.25 331.35 124.83 332.98 123.98 334.45 122.14 336.69 120.44 338.33 117.76 340.33 115.54 
M 331.08 129.03 333.69 128.49 335.97 127.43 338.18 125.93 341.97 122.85 344.11 120.89 
M 149.1 150.21 160.98 145.84 161.31 146.65 149.06 152.24 
M 148.87 155.5 195.96 143 196.2 143.85 148.3 158.37 
M 147.33 161.14 204.83 152.57 204.98 153.44 146.5 164.04 
M 145.67 166.38 205.23 164.32 205.28 165.2 144.22 169.25 
M 143.23 171.15 205.96 176.08 205.91 176.96 142.26 173.96 
M 141.89 175.59 200.65 187.05 200.5 187.92 140.9 178.34 
M 140.47 179.73 184.82 193.96 184.57 194.8 139.46 182.41 
M 139.38 182.59 161.17 192.85 160.83 193.66 138.06 184.96 
M 158.54 147.92 165.56 148.33 169.05 148.36 172.53 148.21 175.98 147.85 182.83 146.53 189.62 144.68 
M 189.92 145.75 190.82 148.29 192.1 150.47 192.96 151.35 193.96 152.08 195.1 152.68 197.62 153.64 
M 197.8 154.74 196.71 156.95 196.15 159.14 196.18 160.24 196.41 161.32 196.82 162.41 198 164.57 
M 198.05 165.68 197.06 167.93 196.6 170.16 196.67 171.25 196.94 172.33 197.4 173.4 198.67 175.51 
M 198.6 176.62 196.55 178.13 194.97 179.88 194.45 180.89 194.12 182 193.95 183.19 193.91 185.74 
M 193.72 186.83 190.18 186.99 188.48 187.23 186.85 187.65 185.29 188.26 182.39 190.03 179.68 192.31 
M 179.36 193.37 174.8 191.84 170.2 190.83 167.87 190.63 165.53 190.64 163.17 190.83 158.41 191.55 
M 162.05 148.16 169.05 148.36 172.53 148.21 175.98 147.85 179.41 147.28 186.22 145.64 
M 190.34 147.05 191.39 149.45 192.1 150.47 192.96 151.35 193.96 152.08 196.33 153.19 
M 170.26 152.67 170.94 154.23 171.4 154.9 172.61 155.94 174.15 156.67 
M 197.22 155.84 196.34 158.05 196.15 159.14 196.18 160.24 196.41 161.32 197.37 163.49 
M 174.73 159.63 174.16 161.06 174.03 161.77 174.2 163.19 174.83 164.6 
M 197.52 166.81 196.74 169.05 196.6 170.16 196.67 171.25 196.94 172.33 198 174.45 
M 174.92 167.99 174.41 169.44 174.37 170.87 174.55 171.57 175.24 172.96 
M 197.54 177.35 195.68 178.96 194.97 179.88 194.45 180.89 194.12 182 193.9 184.45 
M 174.94 176.07 173.73 177.12 173.27 177.71 172.71 179.09 172.57 180.68 
M 191.94 186.88 188.48 187.23 186.85 187.65 185.29 188.26 183.8 189.06 181.02 191.14 
M 177.09 192.57 172.51 191.24 170.2 190.83 167.87 190.63 165.53 190.64 160.79 191.15 
M 173.48 204.43 176.19 207.46 179.41 212.51 181.01 215.51 183.04 218.21 185.2 220.66 186.42 222.6 188.27 224.93 190.95 227.72 192.52 229.67 194.5 231.75 195.4 234.42 197.31 236.44 200.45 238.19 197.89 244.59 197.28 247.36 197.28 250.74 196.16 253.13 194.7 255.21 192.86 256.91 191.31 258.94 189.36 260.71 187.02 262.09 184.98 263.77 183.41 265.91 181.46 267.69 180.7 270.64 179.59 273.22 178.31 275.49 166.88 280 166.9 275.61 168.78 272.3 168.73 268.88 168.26 267.14 166.99 265.36 166.51 262.86 166.92 260.77 167.75 258.44 167.92 255.22 167.4 252.26 168.08 250.48 167.45 247.35 167.41 244.24 166.53 241.6 166.35 238.45 165.98 236.07 165.94 233.26 166.25 230.53 165.61 227.9 165.48 225.23 165.61 222.3 164.94 220.42 164.94 214.19 165.13 210.65 164.81 207.77 163.35 201.7 
M 171.78 203.97 174.18 206.92 175.84 209.56 178.41 214.74 179.92 218.32 181.79 221.05 185.51 224.86 
M 170.08 203.51 172.21 206.62 173.65 209.27 174.51 211.62 176.17 214.12 178.62 220.28 180.1 223.28 180.75 225.59 182.12 227.84 184.31 233.2 185.83 234.87 186.79 237.76 188.75 240.76 189.85 242.84 192.33 245.15 
M 168.38 203.05 170.09 206.25 172.56 211.53 173.34 214.19 174.83 216.34 175.69 219.73 177.01 226.46 177.82 228.9 179.06 231.62 180.53 233.93 181.74 236.38 182.16 238.81 
M 166.68 202.6 170.29 211.34 171.8 220.51 172.59 223.6 173.14 226.59 173.9 229.36 175.55 232.05 176.6 234.16 
M 164.97 202.14 167.08 208.17 167.68 211.18 167.97 214.56 167.87 217.81 168.11 220.89 168.92 223.26 169.75 228.99 171.06 231.67 171.75 234.05 173.12 242.21 
M 335.58 198.14 340.43 201.64 343.53 204.82 346.46 206.25 339.78 208.05 337.57 209.35 335.59 211.07 330.83 213.69 329.02 215.56 326.31 216.58 324.46 218.46 321.87 223.04 321.06 225.45 320.75 228.58 320.16 231.53 319.17 234.18 317.28 235.97 314.85 237.22 315.31 241.08 315.08 243.87 312.14 246.72 310.42 243.43 306.13 239.22 303.47 235.84 302.02 233.65 297.99 229.38 295.12 224.43 293.53 222.49 290.57 221.02 288.63 218.32 284.92 211.82 
M 331.39 199.51 335.92 203.11 
M 327.2 200.87 331.29 205.09 
M 323 202.19 325.98 206.88 328.97 209.92 331.37 211.71 
M 318.79 203.48 321.68 208.35 
M 314.57 204.76 317.81 207.95 320.01 211.64 322.69 214.76 
M 310.36 206.03 313.88 209.44 316.03 212.35 318.12 215.83 319.45 218.39 321.2 220.15 
M 306.14 207.3 308.99 211.68 311.53 214.27 313.37 217.32 315.43 220.1 317.88 222.35 
M 301.86 208.33 305.01 212.13 307.49 214.73 311.03 220.54 313.57 223.56 316.37 225.57 318.31 227.46 
M 297.56 209.29 305.18 218.12 306.99 220.6 309.34 222.88 311.07 225.66 313.26 228.32 
M 293.25 210.2 296.1 213.77 298.01 216.57 302.03 221.2 303.26 222.96 304.93 226.21 307.49 228.35 309.6 230.73 312.52 232.89 
M 288.93 211.04 291.27 214.56 293.09 217.74 296.94 222.01 298.25 224.52 300.15 226.75 301.69 229.4 303.8 231.46 306.24 234.32 
M 386.23 150.02 389.09 149.27 391.35 147.89 393.52 146.79 400.84 142.23 403.18 140.17 407.88 137.56 415.23 134.29 417.19 133.05 418.66 131.22 422.98 128.63 427.59 125.15 430.2 123.52 432.62 122.47 438.1 119.29 442.95 117.24 444.05 116 445.6 116.07 450.23 114.13 455.58 110.53 461.63 105.52 464 104.65 458.72 118.3 456.24 119.55 454.41 121.44 451.72 122.47 449.65 124.13 448.58 126.65 447.72 129.37 441.51 134.15 440.75 137.13 437.2 141.01 436.17 143.01 434.55 147.81 430.72 151.41 428.54 152.95 426.35 154.4 423.65 155.35 421.8 157.21 420.3 159.28 418.48 161.03 417.31 163.52 416.53 166.32 416.29 169.52 418.84 172.48 419.87 174.11 421.75 181.74 424.4 185.16 424.82 186.55 426.1 188.99 426.83 191.14 427.11 193.81 426.91 196.86 427.06 199.03 427.89 201.65 428.72 209.61 425.92 206.35 424.21 203.87 419.98 199.97 418.26 198.85 416.33 196.65 414.68 194.18 411.04 193.29 408.5 192.27 405.61 192.17 403.32 190.9 396.84 184.68 391.93 180.99 389.1 179.13 386.23 176.66 
M 389.23 150.87 396.1 147.36 398.38 145.82 401.5 144.42 403.93 142.41 408.84 140.99 411.66 139.42 414.09 138.86 416.52 137.25 418.86 136.39 420.42 134.81 422.51 133.77 426.65 130.27 429.28 128.76 431.37 127.79 433.84 126.18 437.28 124.98 440.37 124.5 443.32 123.56 444.51 122.91 445.88 121.14 446.85 119.01 
M 394.59 150.72 399.28 147.8 402.11 146.62 406.96 143.85 409.77 143.4 412.91 142.03 415.34 141.22 417.71 140.9 
M 392.33 153.33 394.85 152.91 397.56 151.77 407.63 146.18 410.59 145.22 415.97 143.96 417.84 144.2 420.53 143.82 426.12 141.83 433.12 137.93 434.96 136.44 435.38 135.41 436.78 134.76 
M 392.4 155.13 395.04 154.78 401.03 152.85 406.48 150.36 408.84 148.86 414.59 147.05 
M 395.22 156.71 398.65 156.4 404.84 155 407.69 153.82 410.44 152.17 413.56 152.07 
M 386.23 158.01 393.02 158.49 398.97 158.5 402.38 158.04 405.34 157.09 410.74 155.97 
M 386.23 159.34 393.17 159.99 395.88 160.12 398.96 159.81 405.81 160.41 408.64 159.58 
M 386.23 160.67 390.21 161.43 393.44 161.6 399.41 161.56 402.54 161.75 406.03 162.45 409.66 162.87 412.3 162.09 416.18 161.76 
M 397.45 162.95 403.52 164.35 405.96 165.12 408.35 164.74 410.97 165.67 412.88 165.02 415.21 165.37 
M 397.72 164.84 400.74 165.76 403.97 166.5 407.15 166.95 409.21 167.62 
M 390.63 166.07 397.31 167.1 400.46 167.93 
M 396.94 169.14 401.82 171.36 407.54 172.79 411.11 172.84 414.48 172.66 
M 396.35 170.86 401.31 172.67 
M 386.23 168.66 389.93 170.58 392.88 171.45 395.45 172.61 398.39 173.15 401 174.24 404.57 176 407.32 176.96 410.7 177.73 
M 392.73 172.94 394.99 174.24 398.28 175.11 400.71 176.32 403.9 178.67 409.42 179.27 413 179.98 416.42 180.25 419.01 181.43 
M 392.52 174.58 394.99 176.06 400.71 178.36 403.9 180.52 409.51 181.41 412.52 182.21 415.81 182.41 
M 394.67 177.67 397.64 179.12 404.13 181.82 407.33 182.51 409.09 183.89 411.84 184.94 414.33 185.34 417.09 186.83 
M 389.29 176.3 391.85 178.16 394.78 179.43 397.59 181.01 399.83 182.59 403.7 183.9 406.38 185.9 
M 394.78 181.09 397.07 182.96 402.46 186.55 404.89 188.4 407.39 189.24 
M 355.84 138.75 358.3 138.16 363.8 137.56 369.73 137.37 372.97 137.57 376.45 137.99 387.67 140.05 391.18 140.5 393.98 140.68 395.45 141.09 395.41 141.87 394.03 142.97 391.71 144.17 388.9 145.05 380.15 145.69 376.1 146.3 
M 365.25 141 371.35 140.99 
M 374.71 141.3 382.02 142.5 
M 385.79 143.22 389.42 143.8 
M 62.73 160.8 63.05 160.28 64.97 158.33 67.73 156.14 70.82 153.98 74.25 151.93 78.55 150.12 89.56 146.35 94.75 143.89 100.56 141.4 106.84 139.27 120.05 135.49 126.23 133.97 136.85 131.75 143.06 130.69 145.55 134.28 146.24 137.61 148.31 144.38 149.02 147.72 149.12 150.95 148.71 157.3 147.55 160.32 146.73 163.39 145.66 166.42 142.62 172.32 141.94 175.42 139.92 181.5 138.44 184.46 136.3 187.31 132.95 189.88 122.31 189.33 114.62 188.5 107.81 187.4 96.01 185.01 90.52 183.45 85.57 181.68 81.25 179.7 77.6 177.59 71.52 173.49 
M 127.2 151.76 126.73 154.45 124.8 157.5 
M 86.18 173.81 81.11 172.16 
M 69.71 173 62.47 167.13 60.91 165.62 59.6 163.88 59.79 161.67 61.48 160.44 63.52 161.03 64.86 162.82 71.58 173.58 
M 71.26 174.34 58.11 175.85 56.29 174.62 55.99 172.35 57.54 170.74 59.77 170.72 64.2 171.64 71.29 173.43 
M 85.93 173.43 84.16 166.71 84.66 159.77 87.39 153.37 92.05 148.2 98.14 144.83 104.99 143.62 111.86 144.7 118.02 147.95 122.78 153.02 125.64 159.36 126.28 166.29 124.64 173.05 120.89 178.91 115.44 183.24 108.89 185.56 101.93 185.63 95.33 183.44 89.8 179.22 85.93 173.43 
M 85.68 172.84 84.83 170.36 84.29 167.8 84.07 165.19 84.18 162.57 84.61 159.99 85.36 157.48 86.41 155.08 87.75 152.83 89.36 150.76 91.21 148.91 93.28 147.3 95.53 145.96 97.93 144.91 100.44 144.16 103.02 143.73 105.64 143.62 108.25 143.84 110.81 144.38 113.29 145.23 
M 87.3 172.17 86.52 169.89 86.03 167.54 85.83 165.15 85.93 162.75 86.39 160.16 
M 86.55 159.65 87.01 158.08 87.98 155.89 89.21 153.82 90.68 151.93 91.59 151.02 
M 91.85 150.76 94.27 148.76 96.33 147.53 98.53 146.56 100.83 145.88 103.2 145.48 105.6 145.38 107.99 145.58 110.34 146.07 112.61 146.85 
M 88.93 171.49 88.22 169.43 87.77 167.29 87.59 165.12 87.68 162.94 88.16 160.4 
M 93.15 151.95 95.27 150.21 97.14 149.09 99.14 148.22 101.23 147.59 103.38 147.23 105.57 147.14 107.74 147.32 109.88 147.77 111.94 148.48 
M 90.56 170.82 89.92 168.96 89.52 167.04 89.36 165.08 89.44 163.12 89.9 160.7 
M 94.42 153.17 96.26 151.67 97.95 150.66 99.75 149.87 101.63 149.31 103.57 148.99 105.53 148.91 107.49 149.07 109.41 149.47 111.27 150.11 
M 92.19 170.14 91.62 168.49 91.26 166.78 91.12 165.04 91.19 163.3 91.62 161.11 
M 95.56 154.51 97.25 153.12 98.75 152.23 100.35 151.53 102.03 151.03 103.75 150.74 105.49 150.67 107.23 150.81 108.94 151.17 110.59 151.74 
M 93.81 169.47 93 166.53 92.88 165.01 92.94 163.48 93.32 161.56 
M 96.69 155.87 98.25 154.57 99.56 153.79 102.42 152.74 105.46 152.43 108.47 152.87 109.92 153.36 
M 95.44 168.79 95.02 167.56 94.64 164.97 94.69 163.66 95.03 161.96 
M 97.84 157.21 99.24 156.03 100.37 155.36 102.82 154.46 104.11 154.24 106.72 154.3 109.24 154.99 
M 97.49 168.22 96.78 165.53 96.99 162.76 97.27 162.1 
M 99.32 158.82 99.94 158.13 102.38 156.78 105.12 156.3 107.87 156.73 110.33 158.03 112.23 160.06 113.38 162.6 113.63 165.37 112.98 168.07 111.48 170.42 109.3 172.15 106.68 173.08 103.89 173.1 101.25 172.23 99.04 170.54 97.49 168.22 
M 100.7 157.71 99.87 159.38 
M 98.25 162.62 96.79 165.54 
M 102.5 156.76 100.74 160.27 
M 99.29 163.17 97.24 167.27 
M 103.95 156.51 101.57 161.26 
M 100.33 163.74 97.83 168.73 
M 105.35 156.34 102.39 162.26 
M 101.36 164.33 98.59 169.86 
M 106.58 156.53 103.25 163.18 
M 102.5 164.69 99.43 170.83 
M 107.8 156.72 104.14 164.05 
M 103.87 164.58 100.38 171.56 
M 108.86 157.25 101.35 172.26 
M 109.9 157.81 102.49 172.64 
M 110.84 158.58 103.62 173.01 
M 111.7 159.49 104.9 173.09 
M 112.47 160.59 106.23 173.08 
M 113.1 161.98 107.74 172.7 
M 113.49 163.84 109.37 172.09 
M 113.24 166.99 111.7 170.06 
M 63.62 159.7 67.82 163.89 
M 66.41 157.19 71.64 162.43 
M 69.44 154.94 73.75 159.25 
M 72.66 152.88 77.67 157.89 
M 76.18 151.11 80.91 155.85 
M 79.99 149.64 83.52 153.17 
M 83.96 148.33 86.62 150.99 
M 87.87 146.95 90.67 149.74 
M 91.59 145.38 93.57 147.36 
M 95.19 143.7 96.97 145.48 
M 98.89 142.12 101.09 144.31 
M 102.73 140.67 105.81 143.75 
M 106.67 139.32 111.06 143.71 
M 110.77 138.14 113.59 140.96 
M 114.88 136.96 118.63 140.71 
M 119 135.79 122.48 139.27 
M 123.21 134.72 127.43 138.94 
M 127.48 133.71 131.47 137.7 
M 131.85 132.79 134.93 135.87 
M 136.23 131.88 141.29 136.94 
M 140.7 131.07 145.55 135.92 
M 72.28 174 72.93 173.24 78.15 169.12 78.83 168.44 80.49 167.64 82.34 167.07 
M 135.43 186.9 134.98 186.22 134.93 185.7 135.39 184.93 136.63 184.17 138.81 183.72 
M 141.95 164.17 142.35 163.83 142.55 163.38 142.49 162.14 142.17 161.63 
M 130.25 162.6 131.2 160.05 132.25 159.15 132.81 157.9 133.23 157.34 
M 77.42 174.45 77.88 173.33 79.7 170.76 80.49 169.27 81.1 168.81 83.39 167.77 84.22 166.95 
M 82.71 170.49 83.7 169.37 84.69 168.71 
M 72.09 173.87 72.66 173.27 75.16 171.42 
M 141.96 139.24 141.75 139.9 142.22 140.8 
M 80.88 170.45 81.7 169.37 83.62 168.06 84.32 167.31 
M 75.45 176.13 76.56 173.33 77.2 172.31 78.86 170.69 79.97 169.12 80.57 168.59 82.17 167.97 
M 125.81 176.56 123.95 175.46 123.2 175.3 
M 95.7 143.48 96.84 144.22 97.47 145.2 
M 124.09 186.19 124.4 183.92 124.18 183.1 123.41 181.41 122.81 179.2 122.46 178.48 121.74 177.58 
M 88.71 182.8 88.61 181.19 88.32 180.54 87.16 179.09 86.26 177.18 84.3 173.91 
M 125.67 159.72 126.52 159.27 127.03 159.17 
M 135.69 155.32 135.81 156.8 136.52 158.3 137.05 158.67 139.24 159.53 
M 74.18 170.78 78.08 168.08 82.18 166.86 83.38 166.31 83.83 165.91 84.28 164.97 
M 125.5 188.25 126.17 186.56 126.11 184.54 125.98 184.09 124.59 182.1 123.65 180.33 
M 73.78 175.01 75.38 172.48 
M 145.6 135.14 143.86 136.54 143.04 137.97 142.12 139.01 
M 117.32 140.7 115.19 140.97 114.38 141.95 114.24 142.42 114.31 142.92 
M 111.7 137.87 113.18 139.19 113.71 140.06 114.09 142.56 
M 128 150.53 126.91 150.41 126.24 150.59 126.05 150.99 126.42 151.57 
M 140.31 170.97 141.32 170.33 
M 124.69 185.39 124.76 183.99 124.52 183.24 123.6 181.51 122.58 178.57 121.76 177.55 
M 139.72 169.38 140.79 169.02 141.59 169.18 141.77 169.36 141.79 169.8 141.65 170.14 141.32 170.36 
M 138.03 166.8 139.5 166.19 140.54 166.01 141.68 166.2 143.93 166.92 
M 142.23 174.1 141.7 173.97 141.07 174.1 
M 79.26 178.55 79.24 177.96 79.52 176.91 80.17 175.82 80.98 175.03 
M 120.53 181.3 120.91 179.49 120.88 178.92 
M 105.92 139.58 109.57 141.14 110.91 141.98 112.4 143.84 113.52 144.59 
M 136.26 133.35 134.74 134.62 133.32 135.02 132.32 134.87 129.76 133.64 128.57 133.48 
M 127.17 152.56 128.8 152.54 130.15 152.71 130.77 152.42 131.14 152.05 
M 89.4 151.15 88.57 150.83 86.62 150.95 83.69 152.38 
M 135.14 180.9 135.34 181.82 135.73 182.36 137.69 183.13 138.96 183.42 
M 133.78 145.79 133.85 147.42 133.22 149.18 133.56 150.39 
M 121.6 144.82 119.88 143.83 116.84 142.93 115.64 142.24 115.24 142.19 114.65 142.42 
M 131.25 140.43 129.91 142.38 129.23 143.11 126.34 145.2 125.35 145.53 122.21 145.14 121.25 144.78 119.59 143.76 
M 125.68 159.84 126.75 159.28 
M 78.87 178.32 79.38 176.81 80.09 175.66 80.7 175.03 82.05 174.37 
M 74.26 175.33 75.36 173.13 76.17 172.11 78.64 169.83 79.3 168.96 79.97 168.36 80.8 167.93 
M 138.19 153.37 137.05 154.97 136.81 156.49 136.88 157.13 
M 111.48 137.93 112.57 138.77 113.44 139.85 113.77 140.69 113.9 141.98 114.15 142.78 
M 128.22 151.58 128.28 151.91 128.56 152.15 129.61 152.6 130.09 152.62 
M 71.89 173.36 73.95 172.12 79.2 168.11 81.94 167.2 83.74 166.24 
M 97.61 142.67 98.25 143.97 98.28 144.81 
M 93.66 144.57 96.09 145.97 
M 137.84 148.02 139.39 148.92 140.2 149.92 140.8 151.51 140.49 152.52 
M 111.21 138.01 111.79 138.36 113.1 139.66 113.58 140.61 114.07 142.64 
M 78.34 161.66 79.4 162.6 79.87 163.67 
M 139.72 159.97 141.03 160.64 141.77 161.41 
M 131.92 136.96 129.83 136.17 127.02 134.59 125.52 134.15 
M 104.33 140.12 106.27 141.32 108.19 141.9 
M 142.14 174.51 141.43 174.21 
M 137.02 178.59 139.26 179.62 140.29 180.31 
M 117.26 137.42 116.17 138.56 114.54 140.7 114.19 141.81 114.22 142.79 
M 71.35 173.19 72.39 174.33 
M 65.2 169.32 64.43 170.38 64.1 171.96 64.78 170.76 66.04 169.99 
M 59.9 164.28 57.24 167.27 56.41 170.24 57.59 167.66 60.68 165.32 
M 71.28 173.66 72.68 173.71 
M 64.9 171.82 65.28 170.23 66.27 168.96 65.81 170.25 66.09 172.13 
M 58.48 170.73 59.02 166.8 60.75 164.24 59.55 166.82 59.77 170.72 
M 63.14 175.28 66.49 176.81 71.32 178.43 76.2 179.32 81.25 179.7 
M 73.64 178.94 74.01 177.57 
M 146.46 138.38 147.56 139.49 
M 145.01 129.89 151.25 136.13 
M 150.09 127.92 155.94 133.77 
M 155.21 126 164.69 135.48 
M 160.43 124.17 170.99 134.73 
M 165.7 122.39 174.33 131.02 
M 171.04 120.69 177.89 127.54 
M 176.46 119.06 185.27 127.86 
M 181.94 117.49 190.42 125.97 
M 187.38 115.88 194.15 122.65 
M 192.8 114.25 198.3 119.76 
M 198.45 112.85 205.9 120.31 
M 204.16 111.52 212.91 120.28 
M 210.16 110.47 220.35 120.67 
M 216.24 109.51 224.18 117.45 
M 222.47 108.69 232.44 118.66 
M 229.16 108.33 235.57 114.74 
M 236.04 108.17 244.64 116.76 
M 243.02 108.1 248.63 113.71 
M 249.91 107.95 257.88 115.92 
M 257.14 108.12 267.58 118.57 
M 265.15 109.09 271.29 115.23 
M 274.25 111.14 283.04 119.93 
M 283.97 113.82 292.24 122.09 
M 294.2 117 304.38 127.18 
M 304.35 120.1 313.97 129.73 
M 314.35 123.06 320.64 129.35 
M 324.98 126.64 334.15 135.81 
M 336.6 131.22 343.02 137.63 
M 348.28 135.85 355.64 143.21 
M 359.64 140.16 366.88 147.4 
M 370.86 144.33 379.34 152.81 
M 382.06 148.49 392.09 158.52 
M 393.2 152.58 395.53 154.91 
M 199.61 94.16 200.79 96.52 
M 200.24 87.49 203 93.01 
M 206.15 99.31 206.94 100.89 
M 207.73 102.46 209.3 105.61 
M 211.05 109.1 211.61 110.23 
M 201.78 82.64 204.93 88.94 
M 208.08 95.25 211.24 101.55 
M 212.02 103.13 214.39 107.85 
M 215.03 109.14 215.28 109.64 
M 204.41 79.98 205.99 83.13 
M 211.5 94.16 217.81 106.77 
M 218.6 108.35 219 109.15 
M 215.66 94.55 220.39 104.01 
M 214.29 83.87 216.65 88.59 
M 220.59 96.47 222.16 99.62 
M 214.32 76 219.83 87.03 
M 220.62 88.61 222.19 91.76 
M 216.99 73.41 224.86 89.17 
M 232.74 104.93 234.38 108.21 
M 213.87 59.25 215.45 62.41 
M 216.23 63.98 218.6 68.71 
M 220.96 73.44 227.26 86.04 
M 230.42 92.34 231.2 93.92 
M 235.93 103.37 238.32 108.15 
M 215.97 55.52 216.36 56.31 
M 217.15 57.88 221.87 67.34 
M 222.66 68.91 223.45 70.49 
M 225.03 73.64 225.81 75.21 
M 226.6 76.79 231.33 86.24 
M 232.12 87.82 232.91 89.4 
M 233.69 90.97 235.27 94.12 
M 236.84 97.27 238.42 100.43 
M 240 103.58 242.26 108.11 
M 218.38 52.41 226.65 68.96 
M 235.32 86.29 236.1 87.86 
M 236.89 89.44 241.62 98.89 
M 221.33 50.4 222.12 51.97 
M 222.91 53.55 229.21 66.16 
M 232.36 72.46 234.73 77.19 
M 237.88 83.49 244.18 96.09 
M 225.05 49.9 231.35 62.5 
M 233.71 67.23 240.02 79.84 
M 241.59 82.99 243.17 86.14 
M 244.74 89.29 245.53 90.87 
M 246.32 92.44 247.11 94.02 
M 230.96 53.79 231.74 55.36 
M 238.05 67.97 243.56 79 
M 245.93 83.73 246.71 85.3 
M 256.96 105.79 258.18 108.24 
M 229.74 43.43 231.32 46.58 
M 232.1 48.15 235.25 54.46 
M 241.56 67.06 245.5 74.94 
M 261.25 106.46 262.39 108.72 
M 232.8 41.62 237.92 51.86 
M 246.59 69.19 247.37 70.77 
M 264.71 105.43 265.5 107.01 
M 266.31 108.64 266.73 109.48 
M 237.36 42.8 242.87 53.83 
M 241.08 42.33 245.41 50.99 
M 246.03 44.3 247.61 47.45 
M 258.64 69.51 261.79 75.81 
M 262.58 77.39 263.36 78.96 
M 268.09 88.42 269.67 91.57 
M 270.45 93.14 272.82 97.87 
M 252.74 49.78 254.31 52.93 
M 261.4 67.12 267.71 79.72 
M 270.86 86.03 277.16 98.63 
M 254.11 44.6 260.41 57.21 
M 265.14 66.66 271.44 79.27 
M 274.6 85.57 277.75 91.88 
M 279.32 95.03 280.11 96.6 
M 256.06 40.57 263.94 56.33 
M 270.24 68.93 272.6 73.66 
M 273.39 75.24 274.18 76.81 
M 278.12 84.69 278.91 86.27 
M 279.69 87.84 282.06 92.57 
M 293.09 114.63 294.28 117.02 
M 262.71 45.94 266.65 53.81 
M 295.8 112.12 298.97 118.46 
M 266.6 45.79 268.96 50.52 
M 276.05 64.7 276.84 66.27 
M 277.63 67.85 278.41 69.43 
M 284.72 82.03 285.51 83.61 
M 300.48 113.55 303.64 119.88 
M 276.5 57.68 278.08 60.83 
M 278.87 62.4 282.81 70.28 
M 287.53 79.74 293.84 92.34 
M 294.62 93.92 295.41 95.49 
M 304.08 112.83 307.23 119.13 
M 279.24 55.21 286.33 69.39 
M 289.48 75.7 290.27 77.27 
M 291.05 78.85 291.84 80.42 
M 292.63 82 296.57 89.88 
M 297.36 91.45 298.14 93.03 
M 312.44 121.63 312.95 122.65 
M 283.17 55.15 283.96 56.73 
M 284.74 58.3 289.47 67.76 
M 293.41 75.64 299.71 88.24 
M 300.5 89.82 301.29 91.39 
M 314.68 118.18 317.67 124.15 
M 287.74 56.37 288.53 57.95 
M 289.32 59.52 290.11 61.1 
M 290.89 62.67 292.47 65.82 
M 297.2 75.28 297.98 76.85 
M 298.77 78.43 304.29 89.46 
M 320.05 120.98 322.44 125.77 
M 301.53 76.01 303.1 79.16 
M 303.89 80.74 305.47 83.89 
M 309.41 91.77 310.19 93.34 
M 324.38 121.71 325.16 123.28 
M 325.95 124.86 327.28 127.52 
M 310.48 85.99 312.05 89.14 
M 312.84 90.71 315.99 97.02 
M 298.71 54.53 299.5 56.11 
M 313.68 84.47 319.99 97.08 
M 336.53 130.17 337.97 133.04 
M 300.37 49.9 305.88 60.93 
M 316.91 82.99 317.7 84.57 
M 318.49 86.15 320.06 89.3 
M 321.64 92.45 322.43 94.02 
M 328.73 106.63 331.09 111.36 
M 339.83 128.83 340.29 129.76 
M 302.7 46.65 309.8 60.84 
M 315.31 71.87 317.67 76.59 
M 330.28 101.81 335.01 111.26 
M 335.8 112.84 336.58 114.41 
M 306.55 46.42 310.89 55.09 
M 311.67 56.66 314.04 61.39 
M 317.19 67.7 322.7 78.73 
M 332.95 99.21 339.25 111.82 
M 310.97 47.34 314.52 54.43 
M 320.03 65.46 324.76 74.91 
M 335.79 96.97 342.09 109.58 
M 314.74 46.95 317.5 52.47 
M 323.8 65.07 327.74 72.95 
M 340.35 98.16 341.14 99.74 
M 341.93 101.31 342.71 102.89 
M 343.5 104.47 345.41 108.28 
M 330.99 71.52 331.78 73.1 
M 345.97 101.48 346.37 102.28 
M 333.3 68.21 334.09 69.78 
M 334.88 71.36 337.53 76.66 
M 335.17 64.03 337.34 68.36 
M 337.6 60.94 337.93 61.62 
"/></svg>