<svg xmlns="http://www.w3.org/2000/svg" width="520" height="320"><rect x="0" y="0" width="520" height="320" fill="floralwhite"/><rect x="10" y="10" width="500" height="300" stroke="black" stroke-width="1" fill="none"/><path stroke="black" stroke-width="1" fill="none" stroke-linecap="round" stroke-linejoin="round" d="
M 165.07 124.63 174.77 123.54 194.04 122.41 213.32 120.76 222.96 120.16 242.23 119.7 271.14 119.78 290.42 119.65 300.05 120.02 319.33 121.12 328.97 121.76 338.6 122.72 377.15 127.25 386.79 128.92 396.43 131.33 397.48 131.95 
M 397.48 196.74 396.43 197.27 386.79 199.2 377.15 200.56 357.88 202.38 328.97 205.69 319.33 206.23 309.69 206.52 290.42 206.82 271.14 206.73 242.23 207.82 232.59 207.87 222.96 207.5 213.32 206.67 203.68 205.5 184.41 202.61 174.77 201.33 165.13 200.5 155.51 200.07 
M 167.1 127.47 167.1 126.94 166.43 125.31 165.88 124.53 
M 172.09 142.33 172.12 141.1 171.5 139.23 170.47 137.52 
M 176.88 153.89 176.39 153.02 175.68 152.39 
M 165.57 124.93 166.26 124.49 
M 170.46 137.49 171.15 136.31 171.74 134.54 171.74 133.45 171.15 131.69 170.24 130.13 169.53 129.53 
M 171.26 132.61 172.24 132.07 173.5 130.69 174.31 129.13 174.31 128.16 173.5 126.6 172.24 125.22 171.26 124.69 
M 175.93 146.84 176.81 146.23 177.94 144.65 178.67 142.87 178.67 141.77 177.94 139.98 176.81 138.41 175.93 137.79 
M 187.67 195.27 188.47 194.71 
M 173.22 127.06 174.15 126.58 175.34 125.35 176.11 123.97 176.11 123.46 
M 182.58 154.13 183.56 152.51 184.16 150.72 184.16 149.61 183.56 147.82 182.62 146.24 181.89 145.62 
M 179.12 134.88 180.23 134.37 181.65 133.06 182.56 131.58 182.56 130.67 181.65 129.19 180.23 127.88 179.12 127.37 
M 181.77 130.15 182.75 129.69 184.01 128.5 184.82 127.16 184.82 126.33 184.01 124.99 182.75 123.8 181.77 123.34 
M 184.79 142.34 185.7 141.81 186.87 140.46 187.62 138.93 187.62 137.98 186.87 136.45 185.7 135.1 184.79 134.57 
M 190.09 154.45 190.56 153.77 191.2 152.15 191.2 151.15 190.56 149.53 189.58 148.1 188.81 147.54 
M 184.89 126.3 186.03 125.87 187.5 124.76 188.44 123.5 188.44 122.72 
M 187.35 137.53 188.44 137.05 189.84 135.82 190.75 134.42 190.75 133.56 189.84 132.16 188.44 130.93 187.35 130.45 
M 190.5 149.87 191.47 149.35 192.73 148.02 193.53 146.51 193.53 145.57 192.73 144.07 191.47 142.74 190.5 142.22 
M 190.15 133.06 191.06 132.61 192.21 131.47 192.96 130.17 192.96 129.37 192.21 128.08 191.06 126.93 190.15 126.49 
M 197.46 154.76 197.97 153.54 197.97 152.63 197.36 151.16 196.43 149.87 195.7 149.36 
M 192.9 128.84 193.93 128.42 195.25 127.35 196.09 126.13 196.09 125.38 195.25 124.16 193.93 123.09 192.9 122.67 
M 195.04 139.64 196.02 139.19 197.28 138.02 198.09 136.7 198.09 135.88 197.28 134.55 196.02 133.38 195.04 132.93 
M 197.55 151.2 198.44 150.72 199.59 149.48 200.33 148.09 200.33 147.22 199.59 145.82 198.44 144.59 197.55 144.11 
M 197.59 134.97 198.37 134.54 199.37 133.44 200.02 132.19 200.02 131.42 199.37 130.17 198.37 129.07 197.59 128.64 
M 200 130.42 200.89 130.01 202.04 128.96 202.78 127.78 202.78 127.05 202.04 125.87 200.89 124.82 200 124.41 
M 201.88 140.9 202.75 140.46 203.87 139.33 204.6 138.06 204.6 137.27 203.87 136 202.75 134.88 201.88 134.44 
M 203.94 151.93 204.76 151.47 205.81 150.3 206.49 148.98 206.49 148.16 205.81 146.83 204.76 145.66 203.94 145.21 
M 202.46 125.94 203.15 125.56 204.03 124.56 204.6 123.44 204.6 122.74 203.98 121.56 
M 204.15 135.98 204.86 135.56 205.77 134.49 206.36 133.27 206.36 132.51 205.77 131.29 204.86 130.22 204.15 129.8 
M 206.03 146.66 206.72 146.21 207.6 145.08 208.17 143.79 208.17 142.99 207.6 141.71 206.72 140.57 206.03 140.13 
M 209.69 155.28 209.91 154.73 209.91 153.92 209.38 152.61 208.57 151.46 207.93 151.01 
M 206.37 131.34 207.18 130.93 208.22 129.87 208.89 128.68 208.89 127.94 208.22 126.74 207.18 125.69 206.37 125.27 
M 208.26 141.74 209.09 141.31 210.16 140.21 210.85 138.96 210.85 138.18 210.16 136.93 209.09 135.83 208.26 135.4 
M 210.01 152.36 210.8 151.92 211.82 150.8 212.48 149.53 212.48 148.75 211.82 147.48 210.8 146.36 210.01 145.92 
M 208.35 126.49 208.97 126.08 209.76 125.03 210.27 123.84 210.27 123.11 209.76 121.92 209.16 121.12 
M 210.51 136.94 211.2 136.51 212.08 135.41 212.65 134.16 212.65 133.39 212.08 132.14 211.2 131.04 210.51 130.6 
M 212.34 147.38 213.03 146.95 213.91 145.85 214.48 144.61 214.48 143.83 213.91 142.59 213.03 141.48 212.34 141.05 
M 209.99 121.49 210.77 120.98 
M 216.05 152.76 216.84 152.34 217.84 151.27 218.49 150.05 218.49 149.3 217.84 148.09 216.84 147.01 216.05 146.59 
M 213.81 126.68 214.41 126.23 215.17 125.09 215.66 123.8 215.66 122.99 215.17 121.7 214.49 120.69 
M 221.22 155.77 221.46 155.24 221.46 154.52 220.94 153.35 220.14 152.33 219.51 151.92 
M 215.13 121.27 216.04 120.59 
M 218.15 132.47 218.92 132.01 219.89 130.82 220.52 129.49 220.52 128.66 219.89 127.32 218.92 126.14 218.15 125.68 
M 222.02 153.12 222.8 152.72 223.79 151.68 224.44 150.51 224.44 149.79 223.79 148.62 222.8 147.58 222.02 147.18 
M 219.28 126.85 219.9 126.37 220.69 125.14 221.2 123.76 221.2 122.9 220.69 121.51 219.93 120.35 
M 222.8 138.53 223.46 138.06 224.31 136.86 224.85 135.5 224.85 134.66 224.31 133.3 223.46 132.1 222.8 131.63 
M 220.61 121.32 221.37 120.88 221.94 120.22 
M 224 132.91 224.78 132.44 225.78 131.22 226.43 129.84 226.43 128.98 225.78 127.6 224.78 126.39 224 125.91 
M 225.14 127.25 225.8 126.76 226.66 125.52 227.2 124.11 227.2 123.24 226.66 121.83 225.8 120.59 225.14 120.1 
M 228.79 139.02 229.45 138.55 230.29 137.35 230.84 135.98 230.84 135.14 230.29 133.77 229.45 132.57 228.79 132.1 
M 232.7 156.26 232.99 155.67 232.99 155 232.46 153.92 231.65 152.96 231.01 152.59 
M 226.7 121.9 227.54 121.46 228.82 119.97 
M 230.06 133.45 230.88 132.98 231.92 131.76 232.59 130.39 232.59 129.55 231.92 128.17 230.88 126.96 230.06 126.49 
M 232.72 144.26 233.51 143.82 234.53 142.71 235.18 141.44 235.18 140.66 234.53 139.4 233.51 138.29 232.72 137.85 
M 233.8 153.77 234.58 153.38 235.58 152.38 236.23 151.25 236.23 150.55 235.58 149.42 234.58 148.43 233.8 148.04 
M 231.45 127.99 232.16 127.52 233.08 126.3 233.67 124.93 233.67 124.08 233.08 122.7 232.16 121.49 231.45 121.01 
M 234.87 139.53 235.55 139.07 236.41 137.89 236.97 136.55 236.97 135.73 236.41 134.39 235.55 133.21 234.87 132.75 
M 236.58 149.43 237.24 149.03 238.08 148 238.62 146.83 238.62 146.1 238.08 144.94 237.24 143.9 236.58 143.5 
M 238.81 156.52 239.02 156.11 239.02 155.43 238.47 154.35 237.62 153.39 236.95 153.01 
M 233.31 122.96 234.21 122.53 235.36 121.44 236.11 120.21 236.11 119.79 
M 236.4 134.21 237.26 133.75 238.35 132.57 239.06 131.24 239.06 130.41 238.35 129.08 237.26 127.9 236.4 127.44 
M 238.83 144.82 239.65 144.39 240.69 143.29 241.37 142.05 241.37 141.28 240.69 140.04 239.65 138.95 238.83 138.52 
M 239.86 154.34 240.67 153.95 241.7 152.95 242.37 151.81 242.37 151.11 241.7 149.98 240.67 148.98 239.86 148.59 
M 239.41 201.12 239.93 200.81 
M 238.11 129.07 238.86 128.61 239.82 127.44 240.45 126.11 240.45 125.29 239.82 123.96 238.86 122.79 238.11 122.33 
M 241.18 140.26 241.88 139.81 242.79 138.67 243.37 137.37 243.37 136.57 242.79 135.27 241.88 134.13 241.18 133.68 
M 242.7 150.04 243.38 149.64 244.25 148.61 244.81 147.45 244.81 146.73 244.25 145.57 243.38 144.54 242.7 144.14 
M 245.35 156.79 245.35 156.18 244.78 155.07 243.89 154.09 243.2 153.7 
M 240.25 124.35 241.19 123.94 242.4 122.89 243.18 121.69 243.18 120.96 242.33 119.7 
M 245.14 145.58 245.98 145.16 247.06 144.08 247.76 142.87 247.76 142.12 247.06 140.9 245.98 139.83 245.14 139.41 
M 246.12 155.14 246.95 154.75 248.02 153.74 248.71 152.6 248.71 151.89 248.02 150.75 246.95 149.74 246.12 149.34 
M 242.55 119.83 242.86 119.7 
M 245.03 130.4 245.81 129.96 246.8 128.84 247.45 127.57 247.45 126.78 246.8 125.51 245.81 124.39 245.03 123.95 
M 247.69 141.18 248.42 140.75 249.35 139.65 249.95 138.4 249.95 137.62 249.35 136.38 248.42 135.27 247.69 134.84 
M 248.99 150.83 249.69 150.43 250.58 149.41 251.15 148.25 251.15 147.54 250.58 146.38 249.69 145.36 248.99 144.96 
M 251.77 157.07 251.21 155.96 250.3 154.96 249.6 154.57 
M 247.4 125.96 248.37 125.56 249.6 124.55 250.4 123.4 250.4 122.69 249.6 121.55 248.37 120.53 247.4 120.14 
M 249.79 136.43 250.69 136 251.86 134.91 252.6 133.68 252.6 132.91 251.86 131.68 250.69 130.59 249.79 130.16 
M 251.6 146.49 252.46 146.08 253.56 145.03 254.27 143.85 254.27 143.11 253.56 141.93 252.46 140.88 251.6 140.47 
M 252.5 156.04 253.34 155.64 254.41 154.63 255.1 153.49 255.1 152.78 254.41 151.64 253.34 150.63 252.5 150.24 
M 249.94 121.72 250.76 121.36 251.83 120.45 252.35 119.65 
M 252.09 131.88 252.87 131.46 253.88 130.39 254.53 129.17 254.53 128.42 253.88 127.2 252.87 126.13 252.09 125.71 
M 254.34 142.24 255.07 141.83 256.01 140.77 256.61 139.56 256.61 138.82 256.01 137.62 255.07 136.56 254.34 136.14 
M 255.39 151.71 256.1 151.32 257 150.31 257.58 149.17 257.58 148.47 257 147.33 256.1 146.32 255.39 145.93 
M 254.61 127.64 255.58 127.25 256.81 126.28 257.61 125.17 257.61 124.49 256.81 123.38 255.58 122.4 254.61 122.02 
M 256.63 137.7 257.54 137.29 258.7 136.24 259.45 135.06 259.45 134.33 258.7 133.14 257.54 132.1 256.63 131.69 
M 258.12 147.45 258.98 147.06 260.07 146.04 260.78 144.89 260.78 144.17 260.07 143.02 258.98 142.01 258.12 141.61 
M 258.86 156.89 259.69 156.5 260.75 155.5 261.43 154.37 261.43 153.67 260.75 152.54 259.69 151.55 258.86 151.16 
M 257.28 123.58 258.11 123.23 259.17 122.34 259.85 121.33 259.85 120.71 259.17 119.71 
M 260.98 143.3 261.7 142.91 262.62 141.89 263.22 140.73 263.22 140.02 262.62 138.86 261.7 137.84 260.98 137.44 
M 261.79 152.56 262.48 152.18 263.36 151.2 263.93 150.08 263.93 149.4 263.36 148.28 262.48 147.3 261.79 146.92 
M 263.69 157.57 262.93 156.68 262.26 156.3 
M 262.13 202.64 261.24 201.96 
M 260.66 120.54 261.65 120.23 262.46 119.73 
M 261.78 129.26 262.73 128.89 263.94 127.96 264.73 126.9 264.73 126.24 263.94 125.18 262.73 124.24 261.78 123.88 
M 263.39 138.86 264.28 138.48 265.4 137.48 266.13 136.35 266.13 135.65 265.4 134.52 264.28 133.52 263.39 133.13 
M 264.54 148.29 265.36 147.91 266.43 146.92 267.11 145.81 267.11 145.12 266.43 144.01 265.36 143.03 264.54 142.64 
M 264.64 125.42 265.45 125.08 266.49 124.23 267.16 123.26 267.16 122.66 266.49 121.69 265.45 120.83 264.64 120.5 
M 266.06 134.67 266.81 134.29 267.77 133.32 268.39 132.22 268.39 131.54 267.77 130.45 266.81 129.48 266.06 129.1 
M 267.41 144.12 268.1 143.74 268.98 142.77 269.55 141.67 269.55 140.98 268.98 139.88 268.1 138.91 267.41 138.53 
M 267.97 153.17 268.63 152.8 269.48 151.84 270.02 150.76 270.02 150.09 269.48 149.01 268.63 148.06 267.97 147.68 
M 269.37 157.81 268.84 157.18 268.2 156.8 
M 267.96 122.36 268.91 122.07 270.14 121.3 270.93 120.44 270.81 119.78 
M 268.79 130.7 269.7 130.35 270.87 129.46 271.63 128.45 271.63 127.83 270.87 126.82 269.7 125.94 268.79 125.59 
M 269.93 139.79 270.78 139.42 271.86 138.47 272.56 137.4 272.56 136.74 271.86 135.67 270.78 134.72 269.93 134.35 
M 270.71 148.87 271.51 148.5 272.53 147.56 273.18 146.48 273.18 145.82 272.53 144.75 271.51 143.8 270.71 143.43 
M 271.76 127 272.53 126.69 273.51 125.87 274.14 124.94 274.14 124.37 273.51 123.44 272.53 122.62 271.76 122.3 
M 273.57 144.67 274.23 144.3 275.07 143.37 275.62 142.32 275.62 141.67 275.07 140.61 274.23 139.68 273.57 139.32 
M 275.05 158.05 274.54 157.44 273.92 157.08 
M 274.91 123.83 275.81 123.54 276.95 122.79 277.69 121.95 277.69 121.43 276.95 120.58 275.43 119.71 
M 276.19 140.43 276.99 140.08 278.02 139.18 278.69 138.16 278.69 137.52 278.02 136.5 276.99 135.6 276.19 135.25 
M 278.13 120.76 278.85 120.49 279.89 119.65 
M 278.43 128.13 279.13 127.82 280.04 127.03 280.62 126.13 280.62 125.58 280.04 124.69 279.13 123.9 278.43 123.59 
M 279 136.37 279.67 136.03 280.53 135.17 281.08 134.19 281.08 133.58 280.53 132.6 279.67 131.73 279 131.39 
M 279.49 144.99 280.12 144.64 280.94 143.74 281.46 142.72 281.46 142.09 280.94 141.07 280.12 140.17 279.49 139.82 
M 281.39 124.8 282.22 124.51 283.27 123.78 283.95 122.95 283.95 122.44 283.27 121.61 282.22 120.87 281.39 120.59 
M 281.75 132.5 282.55 132.18 283.58 131.37 284.24 130.44 284.24 129.87 283.58 128.94 282.55 128.13 281.75 127.81 
M 282.43 149.43 283.18 149.08 284.13 148.18 284.75 147.16 284.75 146.53 284.13 145.51 283.18 144.61 282.43 144.26 
M 282.44 158.18 283.17 157.82 284.12 156.91 284.72 155.88 284.72 155.24 284.12 154.2 283.17 153.29 282.44 152.94 
M 284.4 121.53 285.06 121.27 285.91 120.59 286.46 119.64 
M 284.61 128.76 285.26 128.46 286.11 127.69 286.65 126.82 286.65 126.28 286.11 125.4 285.26 124.63 284.61 124.33 
M 284.96 136.75 285.6 136.42 286.41 135.58 286.94 134.63 286.94 134.04 286.41 133.09 285.6 132.25 284.96 131.92 
M 285.24 145.17 285.85 144.83 286.65 143.94 287.16 142.94 287.16 142.32 286.65 141.33 285.85 140.44 285.24 140.1 
M 285.33 153.84 285.94 153.49 286.72 152.58 287.23 151.56 287.23 150.92 286.72 149.89 285.94 148.99 285.33 148.63 
M 284.97 200.38 285.59 199.99 286.39 198.97 286.9 197.83 286.9 197.12 286.65 196.55 
M 287.44 125.32 288.21 125.03 289.21 124.31 289.85 123.49 289.85 122.99 289.21 122.17 288.21 121.44 287.44 121.16 
M 287.94 141.03 288.68 140.69 289.64 139.84 290.25 138.87 290.25 138.27 289.64 137.3 288.68 136.44 287.94 136.1 
M 290.29 121.91 290.93 121.64 291.74 120.97 292.26 120.2 292.26 119.72 
M 290.45 129.06 291.08 128.77 291.88 128 292.4 127.14 292.4 126.61 291.88 125.74 291.08 124.98 290.45 124.68 
M 290.7 136.93 291.31 136.61 292.11 135.78 292.62 134.84 292.62 134.26 292.11 133.32 291.31 132.5 290.7 132.17 
M 290.87 145.25 291.47 144.91 292.25 144.03 292.76 143.04 292.76 142.43 292.25 141.44 291.47 140.57 290.87 140.23 
M 290.91 153.89 291.51 153.54 292.29 152.63 292.79 151.6 292.79 150.97 292.29 149.94 291.51 149.04 290.91 148.68 
M 293.24 125.59 293.99 125.31 294.94 124.59 295.56 123.77 295.56 123.27 294.94 122.46 293.99 121.74 293.24 121.46 
M 293.58 141.12 294.31 140.78 295.25 139.94 295.85 138.98 295.85 138.38 295.25 137.42 294.31 136.57 293.58 136.24 
M 293.66 149.58 294.39 149.23 295.32 148.34 295.92 147.33 295.92 146.71 295.32 145.7 294.39 144.82 293.66 144.47 
M 296.16 129.23 296.78 128.94 297.56 128.18 298.07 127.33 298.07 126.8 297.56 125.94 296.78 125.19 296.16 124.89 
M 296.33 137.01 296.93 136.69 297.71 135.87 298.22 134.94 298.22 134.37 297.71 133.44 296.93 132.62 296.33 132.3 
M 296.43 145.27 297.03 144.93 297.81 144.06 298.3 143.08 298.3 142.47 297.81 141.48 297.03 140.62 296.43 140.28 
M 296.45 153.9 297.05 153.55 297.82 152.64 298.32 151.61 298.32 150.98 297.82 149.95 297.05 149.04 296.45 148.69 
M 297.88 159.02 296.99 157.84 296.38 157.48 
M 298.91 125.74 299.65 125.46 300.59 124.74 301.19 123.93 301.19 123.42 300.59 122.61 299.65 121.89 298.91 121.61 
M 299.04 133.15 299.77 132.84 300.7 132.06 301.3 131.17 301.3 130.62 300.7 129.73 299.77 128.94 299.04 128.63 
M 299.21 149.58 299.93 149.24 300.85 148.35 301.45 147.34 301.45 146.72 300.85 145.72 299.93 144.83 299.21 144.48 
M 301.67 122.26 302.28 121.99 303.06 121.31 303.56 120.53 303.56 120.21 
M 301.77 129.31 302.38 129.02 303.16 128.27 303.66 127.41 303.66 126.89 303.16 126.04 302.38 125.28 301.77 124.99 
M 304.49 125.78 305.21 125.5 306.13 124.79 306.73 123.97 306.73 123.47 306.13 122.65 305.21 121.93 304.49 121.65 
M 304.59 133.16 305.31 132.86 306.23 132.07 306.82 131.19 306.82 130.64 306.23 129.75 305.31 128.97 304.59 128.66 
M 304.73 149.57 305.45 149.22 306.37 148.34 306.96 147.33 306.96 146.71 306.37 145.71 305.45 144.82 304.73 144.48 
M 304.7 158.33 305.42 157.97 306.33 157.06 306.93 156.02 306.93 155.38 306.33 154.34 305.42 153.43 304.7 153.07 
M 307.2 122.27 307.8 122 308.56 121.31 309.05 120.5 
M 307.3 129.3 307.89 129.01 308.66 128.26 309.15 127.41 309.15 126.88 308.66 126.03 307.89 125.28 307.3 124.99 
M 307.4 137 307.99 136.69 308.75 135.87 309.24 134.95 309.24 134.38 308.75 133.46 307.99 132.64 307.4 132.32 
M 307.47 145.24 308.07 144.9 308.83 144.03 309.32 143.05 309.32 142.44 308.83 141.46 308.07 140.59 307.47 140.25 
M 307.5 153.88 308.09 153.53 308.86 152.62 309.35 151.59 309.35 150.96 308.86 149.93 308.09 149.03 307.5 148.68 
M 309.12 159.5 308.76 158.72 308 157.79 307.41 157.43 
M 309.95 125.72 310.66 125.44 311.56 124.72 312.14 123.9 312.14 123.39 311.56 122.58 310.66 121.85 309.95 121.57 
M 310.06 133.09 310.76 132.79 311.66 132 312.25 131.11 312.25 130.57 311.66 129.68 310.76 128.9 310.06 128.59 
M 310.15 141.07 310.85 140.74 311.76 139.9 312.34 138.94 312.34 138.35 311.76 137.4 310.85 136.56 310.15 136.23 
M 310.21 149.51 310.91 149.17 311.82 148.28 312.4 147.28 312.4 146.66 311.82 145.65 310.91 144.77 310.21 144.42 
M 312.6 122.15 313.18 121.87 314.14 120.8 
M 312.71 129.17 313.29 128.88 314.03 128.13 314.51 127.28 314.51 126.75 314.03 125.9 313.29 125.15 312.71 124.85 
M 312.82 136.89 313.4 136.57 314.14 135.75 314.62 134.83 314.62 134.26 314.14 133.33 313.4 132.52 312.82 132.2 
M 312.91 145.14 313.49 144.81 314.24 143.94 314.72 142.95 314.72 142.34 314.24 141.36 313.49 140.49 312.91 140.15 
M 314.62 159.73 314.14 158.59 313.4 157.67 312.82 157.3 
M 312.72 200.35 313.3 199.97 314.05 199 314.53 197.9 314.53 197.22 314.05 196.12 313.3 195.15 312.72 194.78 
M 315.28 125.52 315.97 125.24 316.86 124.51 317.43 123.69 317.43 123.18 316.86 122.36 315.97 121.63 315.28 121.35 
M 315.39 132.89 316.08 132.58 316.96 131.8 317.53 130.91 317.53 130.36 316.96 129.47 316.08 128.69 315.39 128.38 
M 315.49 140.87 316.17 140.54 317.05 139.7 317.61 138.74 317.61 138.15 317.05 137.2 316.17 136.36 315.49 136.03 
M 315.56 149.33 316.24 148.98 317.11 148.09 317.67 147.09 317.67 146.47 317.11 145.46 316.24 144.58 315.56 144.23 
M 317.85 121.87 318.42 121.59 318.94 121.09 
M 317.98 128.89 318.55 128.6 319.28 127.85 319.75 126.99 319.75 126.47 319.28 125.61 318.55 124.86 317.98 124.57 
M 318.07 136.59 318.64 136.28 319.35 135.46 319.82 134.54 319.82 133.96 319.35 133.04 318.64 132.23 318.07 131.91 
M 318.22 153.52 318.77 153.16 319.47 152.26 319.93 151.23 319.93 150.6 319.47 149.57 318.77 148.67 318.22 148.32 
M 319.84 159.95 319.84 159.36 319.38 158.3 318.65 157.37 318.09 157.01 
M 320.52 125.2 321.2 124.92 322.07 124.19 322.64 123.37 322.64 122.86 322.07 122.04 321 121.23 
M 320.58 140.37 321.23 140.04 322.06 139.21 322.6 138.27 322.6 137.68 322.06 136.74 321.23 135.9 320.58 135.58 
M 320.58 148.78 321.22 148.44 322.03 147.55 322.55 146.54 322.55 145.92 322.03 144.92 321.22 144.03 320.58 143.68 
M 323.06 121.54 323.38 121.39 
M 323.18 128.51 323.74 128.22 324.47 127.47 324.94 126.63 324.94 126.11 324.47 125.27 323.74 124.53 323.18 124.24 
M 323.1 135.99 323.64 135.68 324.34 134.89 324.79 133.99 324.79 133.44 324.34 132.54 323.64 131.74 323.1 131.43 
M 322.97 144.03 323.48 143.7 324.13 142.85 324.55 141.88 324.55 141.28 324.13 140.31 323.48 139.46 322.97 139.12 
M 322.97 152.73 323.47 152.37 324.11 151.45 324.53 150.4 324.53 149.76 324.11 148.72 323.47 147.8 322.97 147.44 
M 324.63 160.16 324.88 159.55 324.88 158.86 324.42 157.75 323.72 156.77 323.17 156.39 
M 325.66 131.94 326.32 131.64 327.17 130.89 327.72 130.04 327.72 129.52 327.17 128.66 326.32 127.91 325.66 127.62 
M 325.34 139.46 325.96 139.14 326.76 138.34 327.27 137.43 327.27 136.87 326.76 135.96 325.96 135.16 325.34 134.84 
M 325.09 147.69 325.68 147.35 326.45 146.46 326.94 145.45 326.94 144.83 326.45 143.83 325.68 142.94 325.09 142.59 
M 328.38 128.1 328.95 127.81 329.68 127.09 330.15 126.28 330.15 125.77 329.68 124.95 328.95 124.23 328.38 123.95 
M 327.3 142.65 327.79 142.33 328.42 141.51 328.83 140.59 328.83 140.02 328.42 139.09 327.79 138.27 327.3 137.96 
M 329.26 160.35 329.83 158.97 329.83 158.22 329.37 157 328.67 155.93 328.13 155.51 
M 331 124.54 331.69 124.26 332.58 123.55 333.16 122.74 333.11 122.17 
M 330.73 131.35 331.41 131.07 332.27 130.36 332.83 129.54 332.83 129.04 332.27 128.23 331.41 127.51 330.73 127.23 
M 329.95 138.36 330.59 138.06 331.4 137.3 331.92 136.44 331.92 135.91 331.4 135.05 330.59 134.29 329.95 133.99 
M 329.32 146.31 329.92 145.96 330.69 145.08 331.19 144.07 331.19 143.45 330.69 142.44 329.92 141.55 329.32 141.21 
M 329.91 156.11 330.54 155.7 331.35 154.65 331.87 153.46 331.87 152.72 331.35 151.53 330.54 150.48 329.91 150.07 
M 333.67 127.78 334.25 127.51 335 126.81 335.48 126.01 335.48 125.52 335 124.73 334.25 124.02 333.67 123.75 
M 332.91 134.39 333.47 134.12 334.18 133.41 334.65 132.62 334.65 132.13 334.18 131.34 333.47 130.63 332.91 130.36 
M 331.64 141.25 332.16 140.95 332.83 140.18 333.26 139.3 333.26 138.75 332.83 137.88 332.16 137.1 331.64 136.8 
M 331.23 149.98 331.74 149.59 332.39 148.59 332.81 147.45 332.81 146.75 332.39 145.61 331.74 144.61 331.23 144.22 
M 333.98 160.55 334.45 159.8 334.92 158.47 334.92 157.65 334.45 156.33 333.73 155.15 333.16 154.7 
M 333.75 199.12 334.33 198.75 335.07 197.8 335.54 196.73 335.54 196.06 335.07 194.99 334.33 194.04 333.75 193.67 
M 336.38 124.36 337.09 124.08 337.99 123.38 338.49 122.7 
M 335.98 130.98 336.68 130.71 337.57 130.02 338.15 129.23 338.15 128.74 337.57 127.96 336.68 127.26 335.98 126.99 
M 334.86 137.61 335.55 137.33 336.43 136.6 336.99 135.77 336.99 135.26 336.43 134.43 335.55 133.7 334.86 133.42 
M 333.93 145.34 334.61 144.99 335.47 144.1 336.03 143.09 336.03 142.47 335.47 141.46 334.61 140.57 333.93 140.22 
M 337.41 160.7 336.8 160.32 
M 339.12 127.67 339.71 127.4 340.47 126.7 340.96 125.92 340.96 125.43 340.47 124.65 339.71 123.95 339.12 123.68 
M 336.69 140.7 337.3 140.4 338.07 139.64 338.58 138.78 338.58 138.25 338.07 137.39 337.3 136.63 336.69 136.33 
M 336.18 149.42 336.8 149.02 337.58 148 338.09 146.84 338.09 146.13 337.58 144.97 336.8 143.94 336.18 143.54 
M 341.84 124.28 342.55 124 343.46 123.3 
M 340.39 137.62 341.15 137.33 342.12 136.59 342.75 135.76 342.75 135.25 342.12 134.41 341.15 133.68 340.39 133.39 
M 339.51 145.4 340.31 145.05 341.33 144.16 341.99 143.14 341.99 142.52 341.33 141.51 340.31 140.61 339.51 140.26 
M 343.22 160.95 342.37 160.37 
M 342.37 194.66 343.11 194.3 344.05 193.36 344.66 192.3 344.66 191.64 344.05 190.58 343.11 189.64 342.37 189.28 
M 344.58 127.62 345.17 127.35 345.92 126.64 346.41 125.85 346.41 125.35 345.92 124.56 345.17 123.85 344.58 123.58 
M 343.88 134.32 344.51 134.04 345.31 133.33 345.83 132.53 345.83 132.03 345.31 131.22 344.51 130.51 343.88 130.24 
M 342.76 141.35 343.46 141.04 344.36 140.25 344.94 139.36 344.94 138.81 344.36 137.92 343.46 137.14 342.76 136.83 
M 345.04 161.02 345.84 159.91 346.38 158.59 346.38 157.77 345.84 156.45 345 155.29 344.34 154.83 
M 344.9 199.22 345.54 198.85 346.35 197.9 346.88 196.82 346.88 196.15 346.35 195.07 345.54 194.12 344.9 193.75 
M 347.27 124.17 348.04 123.85 
M 347.04 131.09 347.78 130.8 348.72 130.07 349.33 129.25 349.33 128.73 348.72 127.91 347.78 127.18 347.04 126.89 
M 346.46 138.32 347.28 138.02 348.32 137.24 348.99 136.36 348.99 135.81 348.32 134.93 347.28 134.15 346.46 133.84 
M 346.02 146.46 346.9 146.11 348.03 145.2 348.76 144.18 348.76 143.55 348.03 142.53 346.9 141.63 346.02 141.27 
M 346.68 156.31 347.53 155.9 348.62 154.84 349.32 153.65 349.32 152.91 348.62 151.71 347.53 150.66 346.68 150.25 
M 348.9 161.19 348.15 160.77 
M 349.97 127.54 350.56 127.26 351.31 126.53 351.8 125.7 351.8 125.19 351.16 124.22 
M 349.46 142.76 350.2 142.43 351.14 141.58 351.75 140.63 351.75 140.03 351.14 139.08 350.2 138.23 349.46 137.9 
M 349.44 151.6 350.21 151.22 351.2 150.25 351.83 149.15 351.83 148.47 351.2 147.37 350.21 146.4 349.44 146.02 
M 351.41 161.29 352.07 160.47 352.63 159.26 352.63 158.5 352.07 157.29 351.2 156.21 350.53 155.79 
M 351.71 199.12 352.35 198.38 352.88 197.29 352.88 196.61 352.35 195.52 351.52 194.56 350.87 194.18 
M 352.72 131.37 353.47 131.07 354.42 130.29 355.04 129.41 355.04 128.87 354.42 127.99 353.47 127.21 352.72 126.91 
M 352.76 139.31 353.58 138.98 354.63 138.14 355.31 137.19 355.31 136.6 354.63 135.65 353.58 134.81 352.76 134.48 
M 352.82 147.84 353.71 147.49 354.83 146.57 355.56 145.54 355.56 144.9 354.83 143.86 353.71 142.95 352.82 142.59 
M 353.24 157.23 354.08 156.84 355.17 155.84 355.87 154.71 355.87 154.01 355.17 152.89 354.08 151.89 353.24 151.5 
M 354.24 161.41 354.01 161.29 
M 355.43 127.55 356.04 127.25 356.82 126.5 357.32 125.64 357.23 124.95 
M 355.72 135.52 356.37 135.19 357.21 134.35 357.74 133.4 357.74 132.8 357.21 131.85 356.37 131.01 355.72 130.68 
M 356.11 144.09 356.82 143.74 357.72 142.84 358.3 141.83 358.3 141.2 357.72 140.19 356.82 139.3 356.11 138.95 
M 356.29 152.92 357.01 152.55 357.93 151.61 358.53 150.55 358.53 149.89 357.93 148.82 357.01 147.88 356.29 147.51 
M 357.74 161.56 358.19 161.03 358.74 159.9 358.74 159.2 358.19 158.07 357.35 157.07 356.69 156.68 
M 356.97 190.81 357.59 190.43 358.38 189.46 358.88 188.37 358.88 187.69 358.38 186.59 357.59 185.62 356.97 185.24 
M 358.5 131.73 359.26 131.41 360.24 130.61 360.87 129.69 360.87 129.12 360.24 128.21 359.26 127.4 358.5 127.08 
M 358.96 140.13 359.76 139.79 360.78 138.91 361.44 137.91 361.44 137.3 360.78 136.3 359.76 135.42 358.96 135.08 
M 359.3 148.86 360.12 148.5 361.18 147.59 361.85 146.55 361.85 145.9 361.18 144.87 360.12 143.95 359.3 143.59 
M 360.01 176.9 360.73 176.51 361.64 175.55 
M 361.15 127.78 361.79 127.48 362.61 126.71 363.14 125.84 363.14 125.6 
M 362.31 144.84 362.97 144.48 363.8 143.58 364.34 142.55 364.34 141.91 363.8 140.88 362.97 139.97 362.31 139.62 
M 363.67 161.81 364.56 160.29 364.56 159.61 364.04 158.52 363.23 157.56 362.6 157.18 
M 364.41 132.14 365.19 131.83 366.19 131.01 366.83 130.09 366.83 129.52 366.19 128.6 365.19 127.79 364.41 127.47 
M 364.93 140.61 365.7 140.27 366.69 139.38 367.33 138.38 367.33 137.76 366.69 136.76 365.7 135.88 364.93 135.53 
M 365.41 158.24 366.16 157.87 367.13 156.93 367.75 155.87 367.75 155.21 367.13 154.15 366.16 153.21 365.41 152.84 
M 365.55 176.88 366.27 176.5 367.19 175.52 367.56 174.84 
M 365.25 195.58 365.96 195.2 366.88 194.22 367.47 193.11 367.47 192.42 366.88 191.31 365.96 190.34 365.25 189.95 
M 367.18 128.27 367.84 127.98 368.7 127.22 369.25 126.29 
M 367.61 136.45 368.26 136.11 369.08 135.25 369.62 134.28 369.62 133.68 369.08 132.71 368.26 131.85 367.61 131.52 
M 368.11 145.09 368.73 144.74 369.53 143.84 370.05 142.83 370.05 142.2 369.53 141.18 368.73 140.28 368.11 139.93 
M 368.25 153.8 368.86 153.44 369.65 152.52 370.16 151.48 370.16 150.84 369.65 149.8 368.86 148.88 368.25 148.52 
M 369.24 162.05 369.68 161.52 370.18 160.44 370.18 159.77 369.68 158.69 368.89 157.74 368.28 157.37 
M 368.01 190.8 368.6 190.42 369.36 189.45 369.85 188.34 369.85 187.65 369.36 186.55 368.6 185.57 368.01 185.19 
M 370.41 132.59 371.2 132.28 372.2 131.49 372.85 130.59 372.85 130.03 372.2 129.12 371.2 128.33 370.41 128.02 
M 370.75 140.87 371.51 140.53 372.48 139.67 373.1 138.68 373.1 138.08 372.48 137.1 371.51 136.23 370.75 135.89 
M 370.99 149.48 371.73 149.13 372.68 148.23 373.29 147.21 373.29 146.57 372.68 145.55 371.73 144.65 370.99 144.3 
M 371.35 162.14 371.1 162.01 
M 370.87 186.12 371.59 185.74 372.51 184.77 373.1 183.67 373.1 183 372.51 181.9 371.59 180.93 370.87 180.55 
M 370.65 195.43 371.36 195.05 372.25 194.08 372.83 192.97 372.83 192.29 372.25 191.19 371.36 190.22 370.65 189.84 
M 373.34 128.9 374 128.61 374.85 127.87 375.39 127.04 
M 373.52 136.76 374.16 136.44 374.97 135.61 375.5 134.67 375.5 134.09 374.97 133.15 374.16 132.32 373.52 131.99 
M 373.77 145.18 374.39 144.84 375.17 143.96 375.68 142.96 375.68 142.34 375.17 141.35 374.39 140.47 373.77 140.12 
M 373.85 153.86 374.46 153.51 375.24 152.59 375.74 151.56 375.74 150.92 375.24 149.88 374.46 148.97 373.85 148.61 
M 376.38 133 377.14 132.7 378.13 131.92 378.76 131.04 378.76 130.49 378.13 129.61 377.14 128.83 376.38 128.53 
M 376.5 141.04 377.25 140.71 378.2 139.87 378.82 138.91 378.82 138.31 378.2 137.36 377.25 136.51 376.5 136.18 
M 376.63 158.38 377.36 158.02 378.29 157.09 378.89 156.04 378.89 155.38 378.29 154.33 377.36 153.4 376.63 153.04 
M 379.33 129.37 379.96 129.08 381.03 127.93 
M 379.33 137 379.95 136.68 380.75 135.87 381.26 134.96 381.26 134.39 380.75 133.47 379.95 132.66 379.33 132.35 
M 380.12 196.53 379.66 195.39 378.95 194.44 378.39 194.07 
M 382.16 141.15 382.9 140.82 383.83 139.99 384.44 139.04 384.44 138.45 383.83 137.51 382.9 136.67 382.16 136.35 
M 382.19 158.4 382.91 158.03 383.84 157.11 384.43 156.06 384.43 155.41 383.84 154.36 382.91 153.43 382.19 153.07 
M 382.18 167.54 382.9 167.17 383.82 166.21 384.42 164.95 
M 383.12 162.64 382.18 162.03 
M 384.96 129.5 385.56 129.21 385.99 128.79 
M 384.97 137.1 385.57 136.79 386.35 135.98 386.85 135.07 386.85 134.5 386.35 133.59 385.57 132.79 384.97 132.47 
M 384.97 153.9 385.57 153.55 386.34 152.64 386.84 151.61 386.84 150.98 386.34 149.95 385.57 149.04 384.97 148.68 
M 385.23 162.73 386.33 161.59 386.83 160.52 386.83 159.86 386.33 158.79 385.56 157.84 384.95 157.47 
M 384.93 181.56 385.54 181.19 386.31 180.23 386.8 179.15 386.8 178.48 386.31 177.39 385.54 176.44 384.93 176.06 
M 385.08 195.9 384.65 194.88 383.95 193.95 383.41 193.59 
M 387.67 133.25 388.38 132.95 389.29 132.17 389.88 131.28 389.88 130.74 389.29 129.85 388.79 129.42 
M 387.71 141.17 388.43 140.84 389.35 140.01 389.94 139.06 389.94 138.47 389.35 137.53 388.43 136.69 387.71 136.36 
M 387.72 149.58 388.44 149.23 389.36 148.35 389.96 147.34 389.96 146.72 389.36 145.72 388.44 144.83 387.72 144.49 
M 387.73 158.4 388.45 158.04 389.37 157.12 389.96 156.06 389.96 155.41 389.37 154.36 388.45 153.44 387.73 153.08 
M 390.44 137.06 391.03 136.74 391.78 135.93 392.27 135.01 392.27 134.43 391.78 133.51 391.03 132.7 390.44 132.38 
M 390.48 145.25 391.08 144.92 391.84 144.05 392.33 143.07 392.33 142.47 391.84 141.49 391.08 140.62 390.48 140.29 
M 390.5 162.92 391.1 162.56 391.87 161.61 392.36 160.54 392.36 159.87 391.87 158.8 391.1 157.85 390.5 157.48 
M 389.59 189.95 390.15 189.61 390.87 188.72 391.34 187.72 391.34 187.1 390.87 186.1 390.15 185.22 389.59 184.87 
M 393.04 133.1 393.73 132.79 394.62 132 395.19 131.02 
M 393.16 141.09 393.86 140.76 394.76 139.92 395.35 138.96 395.35 138.37 394.76 137.42 393.86 136.58 393.16 136.25 
M 393.22 158.37 393.93 158.01 394.84 157.08 395.43 156.02 395.43 155.37 394.84 154.31 393.93 153.38 393.22 153.02 
M 395.9 145.14 396.49 144.8 397.48 143.45 
M 397.48 141.85 396.49 140.5 395.9 140.16 
M 395.9 153.78 396.49 153.42 397.48 152.01 
M 397.48 150.3 396.49 148.89 395.9 148.53 
M 394.61 189.33 395.15 188.99 395.84 188.14 396.28 187.17 396.28 186.57 395.84 185.6 395.15 184.74 394.61 184.41 
M 222.96 120.16 222.96 120.16 
M 230.81 119.9 239.14 89.81 240.88 87.13 242.46 84.3 245.35 82.78 247.49 80.52 249.18 77.8 250.02 74.18 252.33 72.06 254.92 70.22 256.96 67.83 258.76 65.27 261.42 63.57 263.73 61.42 266.33 59.57 268.97 58.35 271.46 58.4 274.46 58.96 277.47 58.06 279.39 55.74 282.56 54.53 284.02 51.68 285.66 49.01 288.6 47.49 291.81 47.1 294.75 47.68 297.34 49.86 300.21 51.42 305.1 51.27 308.28 51.8 316.67 55.64 320.08 56.33 326.4 55.82 329.03 54.06 332.2 52.85 335.27 51.94 338.05 50.77 344.57 52.09 347.16 54.52 349.06 57.27 349.67 60.13 349.75 62.58 349.46 64.66 351.47 70.97 354.78 78.27 359.5 82.33 359.98 84.5 361.17 86.84 366.55 93.48 366.81 96.51 366.12 102.4 366.57 105.79 366.76 108.89 366.08 112.25 362.81 125.57 
M 357.88 125.03 357.88 125.03 
M 228.2 119.99 229.86 118.55 231.36 113.88 233.24 106.61 234.7 104.19 236.26 100.89 237.86 98.47 238.63 96.06 
M 233.45 119.83 235.17 118.06 237.78 113.14 239.66 107.84 240.98 105.43 242.27 102.46 243.34 98.1 244.64 94.57 245.08 91.93 244.33 91 243.6 89.21 
M 238.7 119.75 240.7 117.37 242.33 114.47 243.44 111.55 243.94 109.01 245.5 107.48 246.68 105.52 247.21 101.79 248.68 98.41 248.38 95.34 249.03 92.08 250.43 89.39 249.9 86.42 250.81 83.31 252.31 81 
M 243.95 119.69 246.02 117.53 247.52 114.61 248.55 111.67 248.91 107.59 250.02 104.65 250.8 101.95 251.38 98.05 252.18 95.43 252.76 91.82 254.83 89.08 255.85 86.1 257.36 83.91 258.02 81.58 259.03 79.37 
M 249.2 119.66 251.25 117.86 253.01 115.35 254.35 112.57 254.73 109.88 254.77 107.13 255.44 104.6 255.67 101.73 257.35 98.72 259.76 93.07 
M 254.45 119.67 256.26 117.78 258.7 113.08 259.98 110.16 261.24 104.55 266.31 96.73 267.45 93.82 267.13 88.9 269.07 82.36 
M 259.7 119.71 261.17 118.38 262.44 115.84 263.48 113.03 266.02 107.15 267.62 104.35 268.35 101.08 270.18 95.93 271.64 89.3 273.84 85.74 274.76 82.56 274.23 79.3 274.57 76.54 275.58 73.93 276.98 71.99 278.5 70.6 278.45 68.24 279.54 64.45 
M 264.95 119.75 266.44 118.07 267.91 115.32 270.56 109.57 271.98 107.1 274.01 104.76 274.07 100.79 274.3 97.91 274.25 95.66 274.75 92.52 275.99 89.15 278.24 86.47 279.04 83.01 280.57 80.04 281.51 77.53 281.52 74.55 
M 270.2 119.78 272.07 117.64 273 114.6 274.25 111.47 275.44 109.04 277.17 106.71 278.25 104.33 279.04 101.57 279.16 98.29 279.88 95.02 280.99 91.74 282.39 89.59 283.76 87.06 286.11 81.29 286.78 77.53 287.86 74.61 
M 275.45 119.71 277.25 117.33 280.98 110.27 282.53 101.32 284.13 97.92 285.63 94.2 286.47 91.28 288.06 90.37 289.64 87.63 290.4 85 291.27 80.61 291.61 77.19 291.71 72.78 292.64 69.94 294.62 68.71 296.44 62.85 
M 280.7 119.63 284.04 115.43 285.37 112.94 286.1 110.28 286.71 106.97 287.64 103.81 289.97 98.05 291.21 94.6 291.78 92.18 293 89.53 293.92 86.79 294.08 82.76 294.92 81.16 295.84 76.9 299.17 68.16 301.18 65.96 
M 285.95 119.64 287.72 117.65 290.71 111.93 293.02 106.74 293.74 103.82 295.13 100.98 295.6 98.49 296.48 95.62 297.64 92.65 298.25 89.14 299.23 86.64 299.4 83.71 300.6 80.6 
M 291.2 119.68 293.35 117.73 295.09 114.96 298.08 109.65 298.51 106.55 298.66 103.81 300.93 98.8 301.41 95.89 303.24 89.72 303.66 86.78 305.19 83.45 306.97 81.27 308.24 77.21 309.42 71.67 311.63 69.25 313.21 66.37 314.31 63.29 
M 296.44 119.88 298.74 117.92 299.89 115.55 303.72 105.68 305.99 98.97 307.41 95.74 308.95 93.26 309.43 90.71 310.53 87.67 310.93 85.07 315.46 78.53 316.23 77.18 317.1 74.39 
M 301.69 120.11 303.69 118.42 304.97 115.8 306.84 111.05 308.5 108.21 309.72 105.53 310.87 102.46 312.53 99.65 312.91 97.34 313.7 94.33 315.74 91.51 316.66 87.64 319.12 84.79 319.79 81.37 322.64 78.36 324.36 74.08 326.07 71.07 
M 306.93 120.39 308.64 118.56 310 116.04 312.64 110.23 314.31 107.45 316.75 101.86 317.88 100.25 318.81 97.75 320.3 95.04 320.91 91.9 322.62 87.84 
M 312.17 120.69 314.2 118.36 315.22 115.45 316.65 112.68 321.13 105.38 321.94 102.98 323.47 100.87 325.68 98.54 329.32 91.89 330.29 87.62 330.41 85.19 331.85 82.44 332.74 79.4 333.39 76.29 334.46 73.2 336.2 71.1 337.16 69.2 337.04 66.62 337.92 63.06 340.5 61.23 
M 317.41 121 319.61 118.53 320.95 115.68 322.64 113.35 325.15 107.95 325.46 105.21 326.44 102.51 329.03 101 331.01 98.83 333.86 96.28 334.68 93.47 
M 322.65 121.34 325.16 119.26 327.87 113.81 329.52 111.01 331.02 108.03 331.59 105.83 332.72 103.4 334.78 101.33 337.57 99.52 338.91 96.87 339.56 94.03 340.52 91.97 340.31 88.65 341.19 86.28 343.38 83.32 345.51 80.86 347.71 77.69 
M 327.89 121.69 330.17 119.87 331.6 117.9 334.33 112.97 336.45 110.87 339.1 107.08 340.72 104.1 341.75 101.68 345.36 98.08 347.28 94.95 348.09 91.26 349.78 88.22 350.74 84.38 
M 333.12 122.17 334.88 120.21 336.05 118.32 337.87 116.81 341.63 111.8 344.35 108.47 346.77 105.1 349.04 100.18 353.17 93.77 
M 338.34 122.69 342.69 118.91 346.21 115.33 348.56 112.27 350.42 108.81 353.66 103.5 355.82 101.23 
M 343.56 123.31 346.44 121.54 348.93 119.35 352.07 115.9 355.96 109.39 357.29 105.09 
M 348.77 123.93 351.41 122.68 353.89 120.07 357.89 114.78 359.77 109.61 361.29 107.99 362.79 107.09 
M 353.98 124.56 357.14 123.12 360.16 120.88 
M 173.15 151.85 418.8 162.89 418.75 163.94 173.05 155.57 
M 173.02 156.29 391.69 175.34 391.61 176.39 172.27 159.96 
M 172.06 160.61 364.38 185.57 364.25 186.62 171.14 164.24 
M 171.01 164.83 337 193.58 336.83 194.62 170.01 168.44 
M 169.87 168.94 309.69 199.37 309.48 200.4 168.42 172.46 
M 168.26 172.82 282.58 202.96 282.32 203.98 166.7 176.32 
M 167.64 176.86 255.81 204.37 255.51 205.38 166.57 180.49 
M 167.71 181.09 229.51 203.63 229.17 204.62 166.49 184.66 
M 167.79 185.31 203.82 200.77 203.44 201.75 166.42 188.84 
M 174.65 191.71 178.85 194.11 178.43 195.07 166.35 191.28 
M 393.58 163.08 387.65 164.13 384.76 164.84 381.96 165.76 379.26 166.9 376.65 168.28 374.13 169.86 369.25 173.39 
M 369.14 174.71 363.27 175.28 360.4 175.75 357.6 176.44 354.88 177.37 352.25 178.52 349.68 179.89 344.68 183.02 
M 344.52 184.33 338.74 184.43 335.9 184.67 333.12 185.13 330.4 185.84 327.75 186.78 325.14 187.93 320.04 190.64 
M 319.83 191.95 314.18 191.58 311.39 191.6 308.64 191.84 305.93 192.32 303.27 193.05 300.65 193.99 295.47 196.28 
M 295.2 197.57 289.71 196.75 286.98 196.55 284.28 196.56 281.6 196.82 278.94 197.34 276.31 198.06 271.08 199.93 
M 270.76 201.21 265.45 199.95 262.8 199.53 260.16 199.33 257.52 199.37 254.88 199.67 252.25 200.18 246.99 201.62 
M 246.62 202.89 241.53 201.2 238.97 200.57 236.4 200.15 233.81 199.98 231.21 200.06 228.59 200.36 223.33 201.37 
M 222.9 202.62 218.06 200.53 215.61 199.69 213.13 199.07 210.6 198.69 208.05 198.56 205.46 198.64 200.21 199.22 
M 199.73 200.45 195.26 197.62 192.96 196.4 190.59 195.38 188.15 194.61 185.63 194.07 183.05 193.75 177.75 193.48 
M 390.6 163.57 384.76 164.84 381.96 165.76 379.26 166.9 376.65 168.28 371.67 171.58 
M 364.52 162.63 359.37 163.76 356.89 164.57 354.51 165.58 352.2 166.8 347.81 169.71 
M 338.45 161.7 333.97 162.68 329.75 164.26 327.76 165.31 323.94 167.85 
M 312.37 160.77 308.58 161.6 305 162.94 303.31 163.83 300.07 165.98 
M 286.3 159.84 283.19 160.52 281.69 161.01 278.86 162.35 276.21 164.11 
M 260.23 158.9 257.79 159.44 255.5 160.29 252.34 162.24 
M 366.19 174.95 360.4 175.75 357.6 176.44 354.88 177.37 352.25 178.52 347.16 181.41 
M 338.32 172.83 333.34 173.52 330.93 174.11 328.6 174.9 326.33 175.9 321.96 178.38 
M 310.45 170.7 306.28 171.28 304.26 171.77 300.41 173.27 296.75 175.35 
M 282.57 168.58 279.22 169.04 277.59 169.44 274.49 170.65 271.54 172.32 
M 254.7 166.45 250.92 167.11 248.57 168.02 246.33 169.3 
M 341.62 184.34 335.9 184.67 333.12 185.13 330.4 185.84 327.75 186.78 322.58 189.25 
M 311.08 180.77 306.36 181.05 304.07 181.43 301.82 182.01 299.63 182.79 295.37 184.82 
M 280.54 177.21 276.82 177.43 273.25 178.18 271.52 178.8 268.16 180.4 
M 250 173.65 245.96 174.03 243.41 174.81 240.96 175.98 
M 316.99 191.72 311.39 191.6 308.64 191.84 305.93 192.32 303.27 193.05 298.05 195.09 
M 290.76 187.6 286.14 187.5 283.87 187.7 281.64 188.09 279.44 188.69 275.13 190.38 
M 264.53 183.48 260.89 183.4 259.1 183.56 255.61 184.34 252.22 185.67 
M 238.3 179.36 234.33 179.41 231.78 179.99 229.3 180.96 
M 292.45 197.12 286.98 196.55 284.28 196.56 281.6 196.82 278.94 197.34 273.69 198.95 
M 263.2 191.35 259.01 190.91 256.94 190.92 252.85 191.51 248.82 192.75 
M 233.95 185.57 231.04 185.27 229.6 185.27 226.75 185.69 223.95 186.55 
M 268.1 200.54 262.8 199.53 260.16 199.33 257.52 199.37 254.88 199.67 249.62 200.86 
M 232.75 192.15 229.31 191.5 227.59 191.36 224.16 191.58 220.74 192.36 
M 244.08 202 238.97 200.57 236.4 200.15 233.81 199.98 231.21 200.06 225.97 200.82 
M 220.49 201.54 215.61 199.69 213.13 199.07 210.6 198.69 208.05 198.56 202.84 198.89 
M 222.96 207.5 227 213.62 230.57 217.44 235.03 220.85 253.08 249.85 251.3 252.14 250.1 255.01 246.83 255.87 243.53 254.49 240.95 253.84 237.66 252.46 235.36 254.15 234.06 257.3 230.54 255.07 215.52 240.26 202.12 217.56 199.46 214.26 197.28 209.9 194.04 204.11 
M 217.72 207.05 220.76 211.42 227.93 219.4 230.8 222.14 232.82 225.6 235.03 228.77 237.96 231.5 
M 212.5 206.57 215.34 210.93 217.66 214.16 220.09 217.11 221.91 219.89 226.17 225.45 228.19 228.39 230.33 232.17 232.4 234.95 233.8 237.66 234.49 240.83 237.47 242.57 239.71 244.55 
M 207.28 205.93 210.06 210.33 216.93 218.95 219.01 222.1 220.18 225.28 222.06 228.49 223.58 231.68 226.07 234.26 227.97 237.7 229.89 240.38 230.85 243.87 231.35 247.88 
M 202.08 205.27 205.01 209.33 208.58 214.9 211.43 217.1 213.35 220.39 215.27 224.25 215.96 226.28 216.57 229.98 218.78 232.96 220.83 236.35 
M 196.88 204.52 199.83 208.93 201.58 212.46 203.32 215.34 205.06 218.65 207.12 221.51 208.7 224.59 
M 367.52 201.52 372.88 207.45 375.82 211.78 374.47 219.46 373.15 222.43 370.74 224.47 367.75 225.76 364.95 227.2 361.88 228.23 358.38 228.61 355.24 229.35 352.84 231.34 350.28 233.12 348.33 234.89 345.47 235.09 338.77 232.46 335.41 231.67 332.75 232.96 326.32 234.51 322.9 235.03 319.82 235.18 317.06 235.64 314.01 234.63 310.95 232.9 307.83 231.32 305.24 230.26 298.34 226.57 295.74 225.91 293.3 225.69 291.13 224.68 288.84 222.61 278.09 217.82 274.31 212.14 271.14 206.73 
M 362.29 201.99 365.58 207.06 368.71 210.85 371.7 212.97 373.7 215.67 
M 357.06 202.47 359.19 207.71 361.56 211.18 
M 351.84 203.04 354.4 208.16 355.69 211.83 358.21 215.15 360.21 218.92 364.21 224.86 
M 346.62 203.64 349.99 207.98 353.34 214.87 354.75 219.46 357.16 223.23 
M 341.42 204.3 344.82 208.36 348.16 213.99 350.99 217.11 
M 336.2 204.91 339.88 208.93 342.54 212.3 344.53 215.62 345.59 219.01 347.99 221.68 350.73 230.39 
M 330.98 205.47 334.58 209.77 337.08 213.31 338.71 217.83 339.83 221.6 341.17 225.21 343.63 227.9 344.98 232.03 
M 325.75 205.87 328.98 211.24 334.26 221.93 336.24 225.29 
M 320.51 206.16 326.51 216.09 328.42 220.06 330.19 222.97 334.15 228.4 
M 315.26 206.35 318.32 211.65 320.68 215.03 321.83 218.31 
M 310.01 206.51 314.99 214.78 316.57 217.97 
M 304.76 206.6 308.09 211.66 309.47 214.85 311.15 217.68 312.55 220.99 
M 299.51 206.69 303.32 212.01 304.71 215.15 308.2 221.61 309.2 225.13 
M 294.26 206.76 298.01 210.84 301.5 217.89 302.85 220.87 303.54 225.66 
M 289.01 206.81 292.28 210.72 294.6 214.02 295.95 219.1 297.89 222.44 
M 283.76 206.78 286.69 212.23 288.13 215.54 
M 278.51 206.76 281.12 212.42 283.57 216.62 286.01 218.93 
M 396.43 131.33 399.99 129.99 402.86 128.66 407.86 125.94 413.78 123.08 416.63 121.29 419.85 119.86 422.45 118.02 424.93 116.88 427.63 115.29 429.39 113.86 432.07 113.24 434.99 111.33 438.32 108.81 443.73 103.14 447.11 102.11 450.35 102.46 452.18 100.94 453.86 99.01 457.28 96.31 464.11 92.48 466.14 91.17 467.36 89.38 469.86 87.7 474.69 83.8 477.47 82.35 479.68 80.88 483.09 79.95 490 74.24 469.67 98.06 468.98 101.45 466.2 106.83 465.33 110.04 464.85 113.84 462.6 115.86 459.66 117.2 458.16 119.8 457.81 123.18 457.72 126.81 456.26 129.55 454.5 132.11 454.27 135.82 453.35 138.67 451.55 140.67 450.6 143.62 450.6 147.54 451.42 151.49 451.81 154.63 452.71 158.29 451.11 164.16 451.83 166.93 453.27 170.58 449.03 174.22 449.18 183.07 451.11 186.92 451.94 190.34 453.19 194.45 453.89 200.91 453.67 203.59 457.26 210.1 457.5 212.23 458.62 217.14 462.86 227.38 465.28 232.38 466.57 234.72 467.8 237.68 489.15 262.89 486.95 261.41 485.1 258.68 482.98 256.73 478.63 254.35 475.98 253.73 474.03 251.52 471.08 250.02 467.64 247.19 464.62 245.93 462.68 243.7 460.09 242.41 455.88 238.02 452.31 235.07 449.07 233.68 446.69 231.72 443.12 229.92 441.21 227.92 435.24 225.31 433.09 223.95 430.39 222.71 428.23 220.96 425.65 219.34 423.62 216.72 420.87 214.29 416.83 211.75 413.29 209.24 410.55 207.63 405.61 203.88 402.41 202.3 399.45 200.36 396.43 197.27 
M 403.06 132.28 405.87 131.3 411.22 128.56 414.63 127.63 420.91 122.79 423.96 121.46 428.25 120.52 431.61 119.27 434.7 117.86 437.51 115.98 441.39 113.91 444.98 112.24 447.06 110.55 
M 396.43 137.93 400.3 137.2 403.09 135.88 406.33 134.73 409.64 133.77 412.45 132.36 415.85 131.38 418.78 129.73 421.54 127.51 424.52 126.38 426.44 126.05 429.11 124.73 432.15 123.52 435.69 123.68 438.08 122.69 442.28 118.87 
M 403.47 140.12 406.37 139.01 410.01 137.96 413.19 136.79 416.34 134.3 419.47 133.93 422.52 132.78 431.78 131.11 437.2 128.72 441 126.8 
M 396.43 144.52 400.61 145.28 403.73 144.78 406.62 144.09 409.39 142.83 413.2 141.82 417.55 140.2 420.11 139.02 422.87 138.57 425.99 136.6 429.73 135.92 436.98 135.78 438.85 134.55 
M 396.43 147.82 400.79 148.6 407.24 148.28 410.46 147.57 413.28 146.61 416.81 145.97 420.08 144.68 422.86 144.37 426.77 142.8 430.59 141.75 434.56 141.69 437.66 141.05 440.16 140.89 443.51 140.31 446.43 138.86 448.83 135.63 451.81 134.21 
M 407.4 151.34 413.83 150.3 417.68 150.21 420.19 149.48 423.5 148.93 426.92 148.7 430.43 147.54 432.71 146.54 436.55 145.85 
M 400.77 154.94 403.87 154.39 407.1 154.04 418.16 153.32 420.78 152.97 428.26 152.72 
M 400.77 158.54 407.52 157.59 410.45 157.37 414.73 157.74 418.18 157.7 420.76 156.72 423.95 156.61 426.91 156.26 431.48 156.45 435.11 156.26 438.81 156.85 441.68 158.12 444.25 158.82 448.55 157.99 
M 400.97 162.09 404.98 162.14 411.41 161.56 415.09 162.06 420.13 163.19 423.72 163.24 428.76 162.63 432.48 163.13 435.62 162.72 438.44 162.01 442.11 162.73 
M 409.22 166.04 414.92 166.8 417.5 168.22 423.44 168.4 428.89 168.3 436.73 168.87 
M 401 169.29 404.47 170.09 411.98 170.28 418.09 172.15 421.21 172.79 424.28 173.02 427.37 172.02 
M 407.06 174.28 409.93 174.98 413.83 175.59 417.79 175.93 420.96 177.34 424.67 178.04 
M 396.43 174.19 400.25 176.61 417.43 180.42 421.26 182.01 424.89 182.73 
M 396.43 177.49 400.16 179.88 403.88 180.55 410.47 182.62 414.32 183.24 417.8 185.17 421.46 186.82 424.91 187.49 427.45 187.73 
M 407.46 185.55 410.56 186.49 413.49 188.18 417.2 189.65 420.93 191.76 423.55 192.63 427.25 192.4 430.33 192.54 433.88 193 436.73 193.96 441.83 197.19 444.93 198.47 
M 400.84 185.72 407.52 189.3 410.37 190.59 417.71 194.65 419.14 196.53 421.1 198.56 434.48 199.16 437.25 199.69 440.87 203.03 
M 396.43 187.38 400.72 189.44 410.03 194.67 413.3 195.69 416.26 197.82 418.16 200.33 420.24 202.47 424.15 203.35 427.89 203.03 431.54 203.84 433.68 205.25 436.32 207.68 440.09 208.67 450.62 214.37 453.53 215.09 
M 403.13 194.95 413.17 199.78 418.28 204.39 422.62 205.61 425.97 207.18 428.41 207.79 431.05 211.42 434.79 213.53 
M 406.11 200.28 409.33 201.81 412.11 203.56 414.43 205.77 422.38 209.49 425.62 211.87 427.18 214.15 429.44 216.01 432.05 217.21 435.06 219.3 438.79 221.55 442.48 222.96 446.03 223.87 447.73 225.5 
M 50.75 149.24 53.63 147.26 56.79 146.11 60.97 145.48 73.86 142.77 80.54 140.73 87.61 138.29 95.77 136.07 114.37 132.12 132.81 128.86 141.47 127.5 149.54 126.56 156.37 125.48 161.85 124.81 165.07 124.62 168.22 129.05 169.18 133.21 170.42 137.4 171.93 141.63 172.91 145.79 173.16 149.86 172.94 157.9 171.67 161.78 170.82 165.7 169.68 169.59 166.29 177.23 165.61 181.18 163.45 188.98 161.81 192.8 159.38 196.53 155.51 199.99 140.11 199.22 128.6 197.94 118.52 196.12 109.53 193.94 93.7 188.7 86.65 186.05 79.89 182.65 74.01 178.87 69.08 174.91 
M 61.42 168.61 58.3 165.64 56.01 162.75 
M 141.98 147.12 141.51 150.52 137.79 156.64 135.55 159.46 133.05 162.12 131.03 164.55 130.17 169.15 131.39 176.77 130.8 179.72 119.44 179.68 
M 90.65 175.84 85.74 174.43 79.74 172.25 
M 67.25 174.33 64.66 171.93 61.14 168.32 57.7 164.43 48.27 155 46.6 152.94 46.92 150.28 49.05 148.76 51.57 149.47 54.92 153.63 58.01 157.94 63.81 166.92 69.25 174.79 
M 68.77 175.61 66.04 175.53 55.67 175.75 47.97 175.51 42.56 175.53 32.22 175.14 30.15 173.71 30 171.11 31.8 169.24 34.42 169.12 42.16 170.3 49.99 171.84 57.49 173.03 68.86 174.58 
M 90.71 175.92 86.14 169.53 83.9 162.01 84.23 154.17 87.08 146.85 92.16 140.86 98.9 136.84 106.58 135.23 114.37 136.2 121.43 139.65 126.98 145.2 130.42 152.25 131.4 160.04 129.78 167.73 125.77 174.47 119.78 179.55 112.46 182.4 104.62 182.72 97.09 180.48 90.71 175.92 
M 123.09 147.97 125.85 153.62 126.63 159.85 125.34 165.99 122.13 171.39 117.33 175.45 111.48 177.73 105.21 177.99 99.19 176.2 94.08 172.55 
M 100.04 165.02 98.21 162.46 97.32 159.45 97.44 156.31 98.59 153.39 100.62 150.99 103.31 149.39 106.39 148.74 109.5 149.13 112.32 150.51 114.54 152.73 115.92 155.55 116.31 158.67 115.67 161.74 114.06 164.44 111.66 166.47 108.74 167.61 105.6 167.74 102.59 166.84 100.04 165.02 
M 100 164.75 100.84 165.59 
M 99.94 161.86 105.81 167.73 
M 99.22 158.3 108.53 167.62 
M 101.2 157.45 110.62 166.87 
M 102.1 155.51 112.42 165.83 
M 103.52 154.1 113.95 164.53 
M 109.76 157.51 115.04 162.79 
M 108.77 153.67 115.87 160.78 
M 107.67 149.75 116.27 158.34 
M 110.93 150.17 115.55 154.79 
M 53.56 147.3 58.55 152.28 
M 58.43 145.86 62.24 149.67 
M 63.79 144.92 67.25 148.39 
M 69 143.84 73.24 148.07 
M 74.15 142.68 80.23 148.76 
M 78.98 141.21 83.42 145.65 
M 83.71 139.64 88.84 144.78 
M 88.43 138.07 91.73 141.36 
M 93.38 136.72 95.52 138.86 
M 98.48 135.52 99.65 136.69 
M 103.71 134.45 104.86 135.59 
M 108.89 133.32 111.4 135.83 
M 114.05 132.19 118.7 136.83 
M 119.38 131.21 122.91 134.75 
M 124.72 130.25 130.69 136.22 
M 130.09 129.33 133.43 132.66 
M 135.5 128.44 141.72 134.65 
M 140.95 127.58 144.22 130.85 
M 146.57 126.91 151.4 131.74 
M 152.12 126.15 156.7 130.73 
M 157.6 125.33 161.36 129.1 
M 163.29 124.73 166.78 128.21 
M 147.74 152.81 146.07 153.09 142.51 154.56 139.94 157.1 139.28 158.12 
M 110.67 188.55 111.19 189.19 111.76 189.14 112.41 188.57 113.1 187.29 
M 92.26 188.16 92.75 186.79 93.37 182.12 93.3 181.06 
M 167.01 175.62 165.61 175.02 165.33 174.74 
M 117.79 190.96 118.01 190.25 118.18 188.5 117.59 184.13 115.91 181.05 
M 91.98 188.05 92.51 186.8 93.09 183.23 
M 147.65 142.47 143.06 140.61 142.44 140.55 142.02 140.81 141.28 141.67 140.48 143.23 
M 144.3 144.07 143.25 143.83 142.44 143.86 141.78 144.1 141.27 144.49 140.87 145.41 140.88 147.2 
M 70.84 176.33 71.32 175.84 
M 158.55 129.76 156.27 127.54 155.05 126.99 152.64 126.35 
M 82.99 164.45 84.64 164.47 
M 111.77 187.31 112.41 186.91 112.93 186.16 113.31 183.93 113.38 182.04 
M 126.34 178.69 122.6 177.16 
M 70.05 152.7 69.09 152.58 67.41 151.87 66.03 151.01 64.07 149.13 61.99 148.33 
M 158.47 142.9 158.5 142.44 158.11 141.79 156.04 139.66 
M 146.23 193.35 142.07 192.71 139.89 192.17 139.43 191.95 138.85 191.26 138.77 190.62 139.18 190.02 
M 138.55 172.94 139.15 172.7 140.02 172.81 140.2 173.18 139.83 173.52 
M 76.75 157.3 75.52 156.86 68.73 156.52 67.86 156.26 66.97 155.68 
M 145.9 158.3 143.6 158.59 142.02 159.37 140.16 161.28 140.04 161.64 140.25 162.4 
M 118.59 195.39 119.62 193.83 119.92 192.97 120.32 191.31 120.3 189.71 118.82 186.78 117.92 184.12 117.5 183.27 116.87 182.57 
M 89.92 174.82 87.82 176.1 86.3 177.61 
M 126.87 185.87 123.79 184.85 121.88 183.95 117.89 181.44 117.42 180.46 
M 138.45 171.43 140 171.62 140.59 171.94 140.42 172.98 139.9 173.54 
M 121.88 183.78 118.64 181.91 117.91 181.36 117.46 180.45 
M 89.72 178.82 90.16 179.05 90.88 179.02 91.32 178.7 91.14 178.36 
M 127.25 173.41 126.93 172.52 
M 135.29 161.45 139.45 162.22 140.38 162.87 
M 64.32 145.05 61.54 146.31 59.07 146.46 56.98 147.38 
M 142.11 180.39 140.83 179.6 139.33 178.08 
M 141.85 197.55 140.61 194.73 139.62 193.46 138.58 192.5 138.24 191.89 138.15 191.26 138.28 190.75 138.74 190.11 139.29 189.83 
M 102.11 181.98 100.95 184.11 100.92 184.93 101.43 187.41 101.52 188.95 101.36 189.5 100.9 190.18 
M 88 178.5 87.99 178.95 88.24 179.25 89.69 179.61 91.17 179.42 91.57 178.99 91.57 178.54 
M 165.11 167.11 165.39 166.02 165.27 164.89 164.9 163.58 163.66 161.77 163.25 159.53 
M 140.7 166.16 141.15 165.74 141.35 165.19 141.25 163.73 140.86 163.13 
M 75.48 161.48 75.13 160.2 74.76 159.54 73.35 158.51 71.31 157.75 68.41 157.67 67.44 157.91 
M 159.29 155.64 159.32 152.52 158.65 147.95 158.24 146.49 157.78 146.06 157.06 145.98 
M 83.65 180.44 81.42 183.41 
M 74.49 142.63 74.41 142.6 
M 155.53 168.13 155.28 168.82 154.96 169.09 153.86 169.45 153.12 169.51 150.72 169.17 149.18 169.18 148.23 169.52 147.45 170.03 
M 158.76 130.47 156.18 127.82 152.51 126.4 
M 135.83 196.34 133.58 192.94 133.19 192.06 133.35 191.47 134.13 190.66 134.72 190.43 138.17 189.36 139.36 189.26 
M 109.88 133.11 109.11 135.55 
M 120.81 134.59 118.31 134.88 115.72 135.63 113.88 135.65 112.51 135.97 
M 137.85 169.65 139.37 169.95 141.35 171.26 141.25 171.95 140.42 173.1 
M 139.32 159.43 139.17 160.36 139.34 161.25 140.38 162.84 
M 122.43 132.89 121.46 132.8 120.43 132.94 115.97 134.01 113.35 134.22 111.5 134.96 110.5 135.72 
M 127.23 190.07 126.31 189.42 123.03 188.39 122.05 187.97 121.15 187.34 120.25 186.35 118.53 183.42 117.8 182.67 
M 162.74 124.76 162.93 125.27 163.59 125.26 
M 88.84 173.31 86.62 175.33 84.82 177.32 84.48 178.04 84.11 179.63 83.14 181.28 
M 69.14 174.86 70.08 175.98 
M 64.07 171.32 63.99 172.26 64.54 171.8 
M 59.69 166.71 58.92 167.74 58.57 169.35 59.33 168.22 60.51 167.62 
M 55.46 162.21 53.78 164.15 53.15 166.43 54.19 164.63 56.48 163.22 
M 51.11 157.91 48.64 160.55 47.73 163.52 49.05 161.03 52.13 158.97 
M 46.98 153.4 43.5 156.96 42.31 160.6 43.91 157.44 47.94 154.6 
M 68.81 175.13 70.45 175.26 
M 63.8 173.88 64.6 173.18 64.82 173.99 
M 58.47 173.16 58.93 172.06 59.8 171.19 59.56 172.11 59.85 173.33 
M 53.29 172.35 53.85 170.51 55 169.2 54.47 170.56 54.74 172.56 
M 48.14 171.5 48.77 168.96 50.19 167.2 49.39 169.01 49.61 171.77 
M 43.03 170.49 43.68 167.41 45.39 165.21 44.31 167.46 44.47 170.8 
M 37.89 169.62 38.6 165.87 40.59 163.21 39.23 165.92 39.34 169.85 
M 32.67 169.2 33.52 164.32 35.79 161.22 34.15 164.37 34.2 169.13 
M 40.22 175.47 44.97 177.52 50.83 179.78 56.61 181.66 62.42 183.19 68.3 184.31 74.32 185.09 86.65 186.05 
M 78.52 185.37 78.52 183.95 
M 43.64 176.94 43.87 176.06 43.49 175.69 
M 166.68 124.44 176.39 134.15 
M 174.24 123.6 184.66 134.03 
M 182.12 123.08 191.42 132.39 
M 190.07 122.63 202.22 134.78 
M 197.92 122.08 208.83 132.99 
M 205.65 121.42 214.26 130.02 
M 213.39 120.76 220.72 128.08 
M 221.3 120.26 232.79 131.75 
M 229.38 119.95 239.56 130.13 
M 237.61 119.77 248.34 130.5 
M 245.92 119.68 253.34 127.11 
M 254.3 119.67 264.49 129.86 
M 262.77 119.74 274.71 131.67 
M 271.22 119.78 279.53 128.09 
M 279.49 119.65 287.55 127.71 
M 287.88 119.64 296.85 128.61 
M 296.52 119.88 303.78 127.14 
M 305.34 120.3 313.53 128.49 
M 314.25 120.81 321.12 127.69 
M 323.21 121.38 333.5 131.66 
M 332.33 122.09 341.24 131.01 
M 341.73 123.09 349.7 131.06 
M 351.27 124.24 359.38 132.34 
M 360.78 125.35 367.68 132.24 
M 370.25 126.41 376.62 132.79 
M 379.98 127.74 386.87 134.63 
M 390.48 129.85 399.3 138.67 
M 406 136.96 406.05 137.01 
"/></svg>