<svg xmlns="http://www.w3.org/2000/svg" width="520" height="320"><rect x="0" y="0" width="520" height="320" fill="floralwhite"/><rect x="10" y="10" width="500" height="300" stroke="black" stroke-width="1" fill="none"/><path stroke="black" stroke-width="1" fill="none" stroke-linecap="round" stroke-linejoin="round" d="
M 126.5 117.1 136.84 112.1 147.16 107.61 157.49 103.53 178.13 96.02 188.45 92.99 198.78 90.76 209.1 89.08 240.07 88.26 250.39 89.71 260.71 92.6 271.03 96.16 291.68 104.09 302 107.86 312.32 112.23 343.29 127.34 375.19 141.99 
M 375.19 178.33 353.61 190.49 343.29 196.06 332.97 201.16 322.65 205.99 312.32 210.18 291.68 217.94 281.36 220.79 271.03 223.28 260.71 225.52 250.39 226.71 240.07 227.51 229.74 227.17 219.42 227.18 209.1 227.44 198.78 225.85 188.45 223.24 178.13 220.21 167.81 216.85 157.49 213.94 147.16 210.49 136.84 206.09 116.22 195.66 
M 125.81 188.12 124.17 184.88 123.47 184.1 
M 128.43 189.05 130.27 186.09 131.27 183.29 
M 123.99 181.99 128.55 183.23 
M 139.69 192.84 139.79 189.83 137.97 185.88 
M 130.24 127.38 132.68 121.05 132.68 117.3 131.67 114.6 
M 139.04 191.13 140.28 190.05 141.83 187.37 
M 139.39 192.75 139.04 192.51 
M 131.87 122.49 134.72 121.09 139.17 116.71 142.05 111.75 142.05 109.84 
M 134.4 113.28 137.09 113.67 
M 144.82 130.47 141.07 125.37 138.18 123.42 
M 151.01 195.92 152.51 192.4 152.51 189.51 152.19 188.75 
M 142.75 188.59 144.4 188.37 
M 142.35 191.35 149.03 190.52 
M 142.94 193.65 149.07 194.36 
M 141.02 111.54 141.92 111.1 144.09 108.95 
M 151.52 129.08 152.39 127.16 152.39 123.97 150.06 118.82 146.45 114.27 143.63 112.5 
M 140.6 123.23 148.38 121.59 
M 141.35 125.34 148.33 125.3 
M 143.14 128.71 148.38 129.03 
M 151.79 189.91 152.69 189.1 153.01 188.52 
M 156.91 197.25 154.23 193.14 152.16 191.57 
M 151.55 125.08 152.05 124.83 155.98 120.79 158.52 116.22 158.52 113.39 155.98 108.82 152.68 105.43 
M 145.7 112.89 154.13 110.99 
M 146.17 114.47 153.66 115.11 
M 148.54 117.41 153.61 118.38 
M 156.36 128.93 153.5 127.08 
M 161.95 198.21 163.11 196.59 165.06 191.77 165.06 188.79 
M 155.29 188.24 157.04 187.83 
M 155.38 190.2 161.27 190.23 
M 155.36 192.94 161.75 193.5 
M 157.55 110.83 158.87 109.09 160.64 104.98 160.63 102.41 
M 156.57 103.89 157.48 103.92 
M 152.44 105.67 157.29 106.46 
M 166.66 127.26 166.66 126.45 164.69 121.57 161.64 117.26 159.26 115.58 
M 157.19 125.28 162.85 123.86 
M 156.89 128.07 163.49 127.85 
M 171.35 200.09 170.2 196.88 167.55 192.66 165.47 191.02 
M 160 103.3 161.93 102.47 162.96 101.59 
M 165.96 126.13 169.68 121.97 171.94 117.4 171.94 114.57 169.68 110 166.17 105.96 163.43 104.39 
M 160.93 113.31 167.48 112.52 
M 161.23 115.87 168.2 116.29 
M 162.31 118.71 167.42 119.05 
M 172.61 200.36 175.72 195.95 177.69 191 177.69 187.93 175.72 182.97 175.15 182.15 
M 169.94 110.72 171.65 108.48 173.54 104.12 173.54 101.43 172.16 98.24 
M 167.17 100.09 169.82 99.65 
M 163.92 102.48 170.36 102.4 
M 165.25 105.4 170.55 105.96 
M 181.25 129.53 181.25 127.96 179.34 123.03 176.37 118.67 174.06 116.97 
M 177.83 125.89 178.06 125.86 
M 176.9 185.09 178.81 181.68 179.8 178.57 
M 185.29 203.05 185.29 201.63 183.58 196.68 180.92 192.3 178.85 190.59 
M 174.18 105.08 177.32 103.94 181.32 101.04 183.91 97.74 183.91 95.7 183.03 94.58 
M 176.83 96.51 179.28 96.57 
M 172.31 98.19 179.23 98.79 
M 180.56 127.54 181.04 127.29 184.78 123.3 187.19 118.79 187.19 116 184.78 111.48 181.04 107.5 178.12 105.94 
M 175.07 114.85 183.28 113.97 
M 175.35 117.71 182.86 117.15 
M 176.82 119.84 182.92 121.02 
M 189.65 144.86 190.55 143.05 190.55 140.77 
M 189.22 137.5 188.25 135.54 185.56 132.46 
M 189.92 165.14 189.92 162.56 187.73 157.85 186.99 156.95 
M 184.68 200.78 185.79 200.02 189.01 195.63 191.09 190.66 191.09 187.58 189.01 182.61 185.79 178.22 184.29 177.2 
M 186.36 203.27 185.51 202.74 
M 182.98 97.12 185.59 96.42 189.35 94.4 191.56 92.32 
M 186.33 114.48 189.37 111.45 191.65 107.48 191.65 105.02 189.37 101.05 185.84 97.54 184.38 96.81 
M 189.72 142.62 191.27 141.55 194.31 137.32 196.27 132.54 196.27 129.57 194.31 124.79 191.27 120.56 188.89 118.91 
M 186.55 128.81 192.83 127.39 
M 186.65 131.31 192.29 130.77 
M 186.56 133.92 192.84 134.53 
M 190.08 165.18 192.48 163.68 195.55 159.83 197.54 155.47 197.54 152.77 195.55 148.41 192.48 144.56 190.08 143.06 
M 188.19 152.14 193.52 150.6 
M 188.02 154.31 193.98 153.67 
M 187.66 156.68 194.35 157.24 
M 190.34 185.39 192.96 181.52 194.84 176.64 194.84 173.62 192.96 168.74 192.63 168.25 
M 190.99 165.83 190.04 164.43 189.25 163.85 
M 188.97 171.93 191.84 171.36 
M 188.75 174.95 191.59 174.99 
M 185.61 177.66 191.88 179.1 
M 198.29 205.49 198.56 204.7 198.56 201.64 196.87 196.69 194.23 192.32 192.18 190.62 
M 192.19 94.16 195.65 93.58 200.07 92.09 202.93 90.41 202.93 90.08 
M 196.85 91.18 197.86 91.23 
M 191.91 109 195.28 107.96 199.6 105.28 202.39 102.25 202.39 100.37 199.6 97.34 195.28 94.66 192.79 93.89 
M 188.54 100.16 197.17 98.54 
M 189.37 101.41 197.75 101.73 
M 190.83 103.3 197.56 103.7 
M 195.57 130.51 197.4 129.64 201.33 125.92 203.87 121.71 203.87 119.1 201.33 114.88 197.4 111.16 194.33 109.71 
M 197.13 155.01 199.92 153.46 203.49 149.5 205.8 145 205.8 142.22 203.49 137.73 199.92 133.76 197.13 132.21 
M 194.41 141.41 201.38 140.33 
M 194.44 143.48 201.63 144.06 
M 194.59 145.63 201.66 147.19 
M 196.61 177.27 199.39 175.7 202.95 171.67 205.25 167.11 205.25 164.28 202.95 159.72 199.39 155.69 196.83 154.24 
M 194.25 163.66 201.43 162.3 
M 193.74 166.12 200.74 165.26 
M 193.99 167.81 201.04 169.59 
M 197.95 201.36 199.81 200.2 203.18 195.97 205.35 191.19 205.35 188.22 203.18 183.44 199.81 179.21 197.17 177.56 
M 202.59 205.99 201.26 204.35 198.79 202.83 
M 201.91 91.22 204.52 90.86 208.02 89.88 209.7 89.06 
M 201.39 102.13 203.75 101.49 207.31 99.52 209.61 97.3 209.61 95.92 207.31 93.69 203.75 91.73 201.91 91.22 
M 197.97 95.35 205.54 95.08 
M 198.64 96.61 205.66 96.34 
M 200.15 97.95 205.35 98.14 
M 202.96 119.3 203.71 118.96 207.25 115.74 209.54 112.1 209.54 109.84 207.25 106.2 203.71 102.98 201.39 101.93 
M 198.73 109.15 205.32 108.65 
M 198.73 111.43 205.86 111.25 
M 198.73 112.85 205.56 113.56 
M 204.97 144.28 206.74 143.11 209.72 139.17 211.65 134.71 211.65 131.95 209.72 127.5 206.74 123.56 204.41 122.02 
M 202.42 131.19 208.45 130.29 
M 202.48 133.46 207.77 133.49 
M 202.07 135.2 208.39 136.51 
M 205.15 167.02 207.34 165.52 210.15 161.66 211.95 157.29 211.95 154.59 210.15 150.22 207.34 146.37 205.15 144.86 
M 202.95 154.18 208.73 152.62 
M 202.87 155.69 208.73 156.34 
M 202.92 157.77 208.81 159.56 
M 204.57 188.61 205.84 187.77 208.91 183.66 210.89 179.02 210.89 176.15 208.91 171.5 205.84 167.4 204.42 166.45 
M 210.85 206.64 211.66 204.39 211.66 201.49 209.97 196.81 207.34 192.68 205.29 191.07 
M 203.48 200.25 209 199.62 
M 202.94 203.07 208.43 203.05 
M 203.6 204.89 208.87 206.12 
M 209.45 98.32 212.52 97.73 216.46 96.22 219 94.52 219 93.46 216.46 91.75 212.52 90.24 209.45 89.65 
M 206.51 93.46 214.5 92.98 
M 207.83 94.18 214.24 94.28 
M 208.79 94.84 214.77 95.29 
M 209.27 112.87 212.39 111.87 216.39 109.31 218.96 106.41 218.96 104.62 216.39 101.72 212.39 99.16 209.27 98.17 
M 206.47 103.61 214.42 103.11 
M 205.8 105.19 214.22 105.59 
M 208.11 107.3 214.54 108.15 
M 210.96 132.93 213.35 131.82 217.08 128.39 219.48 124.51 219.48 122.1 217.08 118.22 213.35 114.78 210.45 113.45 
M 207.92 120.99 215.16 120.24 
M 207.43 122.96 215.15 123.14 
M 207.83 125.19 215.01 126.66 
M 211.6 155.77 214.23 154.28 217.58 150.46 219.75 146.14 219.75 143.46 217.58 139.14 214.23 135.32 211.6 133.83 
M 209.53 142.15 216.22 141.37 
M 209.31 144.37 215.58 145.08 
M 208.63 146.63 215.88 147.77 
M 211.27 178.56 213.94 177 217.35 173.01 219.55 168.49 219.55 165.68 217.35 161.16 213.94 157.17 211.31 155.62 
M 209.09 165.15 215.98 163.94 
M 208.83 167.11 215.22 166.91 
M 208.85 169.83 215.5 170.34 
M 211.42 202.39 214.04 200.79 217.41 196.71 219.58 192.09 219.58 189.23 217.41 184.61 214.04 180.52 211.42 178.93 
M 216.19 206.5 214.53 204.51 212.05 203.03 
M 218.09 93.9 219.9 93.58 222.88 92.54 224.79 91.36 224.79 90.63 222.88 89.45 220.76 88.7 
M 215.33 90.77 221.3 90.33 
M 215.57 90.81 221.68 90.99 
M 215.75 91.64 221.5 91.76 
M 218.04 105.62 219.87 105.01 222.96 102.96 224.94 100.63 224.94 99.19 222.96 96.87 219.87 94.82 218.09 94.23 
M 214.77 99.07 221.4 98.18 
M 215.04 99.75 221.8 100.22 
M 214.87 100.89 221.35 101.52 
M 218.62 122.76 220.17 122.02 223.29 119.02 225.3 115.63 225.3 113.53 223.29 110.13 220.17 107.13 218.04 106.11 
M 218.97 144.42 220.86 143.2 223.63 139.63 225.41 135.59 225.41 133.09 223.63 129.04 220.86 125.47 218.7 124.08 
M 216.52 132.58 222.34 131.27 
M 216.83 134.75 221.81 133.89 
M 216.89 136.8 221.98 137.35 
M 218.77 166.35 220.21 165.29 222.85 161.38 224.55 156.95 224.55 154.22 222.85 149.79 220.21 145.88 218.97 144.97 
M 218.8 190.73 220.59 189.45 223.45 185.33 225.3 180.67 225.3 177.79 223.45 173.13 220.59 169.01 218.77 167.7 
M 224.22 206.4 225.03 204.28 225.03 201.49 223.31 196.98 220.65 193 218.8 191.62 
M 224.54 100.3 227.18 99.7 230.57 98.13 232.76 96.37 232.76 95.27 230.57 93.5 227.18 91.94 224.54 91.33 
M 221.75 95.17 228.39 94.08 
M 221.56 95.94 228.98 95.65 
M 222.9 97.05 229.13 97.14 
M 224.68 114.91 227.41 113.93 230.9 111.42 233.15 108.57 233.15 106.8 230.9 103.95 227.41 101.44 224.68 100.46 
M 221.85 106.58 229.02 105.15 
M 221.7 107.85 229.24 107.75 
M 222.28 108.71 228.75 110.14 
M 225.13 134.07 227.78 132.8 231.16 129.54 233.35 125.86 233.35 123.58 231.16 119.89 227.78 116.64 225.13 115.37 
M 222.61 123.29 229.06 122.32 
M 222.72 124.5 229.38 124.37 
M 222.92 126.28 229.41 127.7 
M 225.18 155.78 227.7 154.32 230.93 150.59 233.01 146.37 233.01 143.75 230.93 139.53 227.7 135.8 225.18 134.34 
M 222.8 143.05 228.78 141.75 
M 223.16 144.77 229.55 144.64 
M 223.07 147.52 229.36 148.59 
M 225.08 179.12 227.62 177.55 230.88 173.53 232.98 168.99 232.98 166.17 230.88 161.62 227.62 157.61 225.08 156.04 
M 225.27 202.8 227.82 201.23 231.08 197.19 233.18 192.62 233.18 189.79 231.08 185.22 227.82 181.18 225.27 179.61 
M 222.78 188.95 229.37 187.35 
M 222.75 191.45 229.62 191.57 
M 223.01 193.24 229.48 195.13 
M 229.36 206.38 227.9 204.67 225.41 203.21 
M 231.98 94.56 233.47 94.24 236.03 93.17 237.68 91.96 237.68 91.21 236.03 90 233.47 88.93 231.58 88.53 
M 229.62 90.72 234.86 90.69 
M 229.55 91.74 235.02 91.62 
M 229.25 92.54 234.46 92.21 
M 232.34 106.48 233.72 105.94 236.41 103.87 238.14 101.51 238.14 100.06 236.41 97.7 233.72 95.63 231.98 94.95 
M 232.57 123.54 234.05 122.75 236.8 119.82 238.56 116.49 238.56 114.44 236.8 111.12 234.05 108.18 232.34 107.27 
M 229.57 113.89 235.66 112.55 
M 229.52 115.92 235.14 115.66 
M 229.68 116.95 235.65 117.84 
M 232.26 144.53 234.26 143.21 236.92 139.7 238.64 135.72 238.64 133.26 236.92 129.28 234.26 125.77 232.57 124.65 
M 232.23 166.73 233.8 165.58 236.48 161.65 238.21 157.2 238.21 154.44 236.48 149.99 233.8 146.05 232.26 144.93 
M 229.68 153.95 234.89 152.31 
M 229.48 155.72 234.91 155.9 
M 229.46 157.85 235.28 159.07 
M 232.43 191.24 234.2 189.88 236.88 185.77 238.6 181.12 238.6 178.24 236.88 173.58 234.2 169.48 232.23 167.96 
M 229.93 177.17 235.82 176.09 
M 230.54 180.07 235.7 179.59 
M 230.38 181.84 235.51 182.77 
M 237.71 206.56 238.54 204.42 238.54 201.65 236.81 197.19 234.14 193.24 232.43 191.98 
M 230.28 200.81 235.76 199.86 
M 230.41 203.28 235.26 202.99 
M 229.66 205.29 234.47 206.49 
M 237.65 100.32 240.01 99.68 243.03 98.03 244.98 96.17 244.98 95.02 243.03 93.15 240.01 91.51 237.65 90.86 
M 234.97 94.53 241.29 94.4 
M 235.83 95.52 241.36 95.78 
M 235.44 96.41 241.45 96.98 
M 238.3 115.33 240.76 114.33 243.91 111.77 245.94 108.88 245.94 107.08 243.91 104.19 240.76 101.63 238.3 100.63 
M 238.7 134.26 241.16 133 244.31 129.76 246.34 126.1 246.34 123.83 244.31 120.17 241.16 116.93 238.7 115.67 
M 238.61 155.84 241.08 154.39 244.24 150.67 246.28 146.46 246.28 143.85 244.24 139.64 241.08 135.92 238.61 134.47 
M 236.28 143.39 242.47 141.57 
M 236.33 145.18 242.69 145.01 
M 235.81 147.56 242.2 148.82 
M 238.54 179.25 241.02 177.68 244.2 173.66 246.26 169.11 246.26 166.3 244.2 161.75 241.02 157.73 238.54 156.16 
M 236.43 165.83 242.97 164 
M 236.45 167.91 242.63 167.48 
M 236.57 169.82 242.54 170.71 
M 238.71 202.9 241.19 201.32 244.37 197.29 246.42 192.73 246.42 189.9 244.37 185.34 241.19 181.31 238.71 179.74 
M 242.78 206.5 241.28 204.73 238.79 203.27 
M 243.11 93.23 244.94 92.76 247.28 91.57 248.78 90.22 248.78 89.49 
M 241.49 89.42 246.28 89.14 
M 241.36 89.92 245.97 89.72 
M 241.08 90.5 246.43 91.06 
M 245.21 106.27 246.34 105.76 248.82 103.52 250.43 100.98 250.43 99.4 248.82 96.86 246.34 94.62 244.39 93.75 
M 242.25 99.32 247.86 98.21 
M 242.84 99.74 247.41 99.91 
M 242.23 101.42 247.63 101.92 
M 245.62 123.84 247.28 122.88 249.86 119.9 251.53 116.52 251.53 114.43 249.86 111.06 247.28 108.08 245.26 106.91 
M 245.55 144.47 247.42 143.16 249.93 139.65 251.55 135.66 251.55 133.2 249.93 129.22 247.42 125.7 245.62 124.44 
M 243.77 132.04 248.79 131.05 
M 243.26 134.7 248.83 134.39 
M 243.26 136.14 248.35 137.1 
M 245.52 166.84 247.19 165.61 249.87 161.7 251.6 157.26 251.6 154.52 249.87 150.08 247.19 146.16 245.55 144.96 
M 245.68 190.87 247.23 189.64 249.81 185.53 251.47 180.88 251.47 178 249.81 173.34 247.23 169.23 245.52 167.87 
M 243.27 177.39 248.32 176.02 
M 243.71 179.5 248.81 179.76 
M 243.08 181.97 248.79 183.01 
M 251.31 206.11 251.92 204.5 251.92 201.73 250.21 197.24 247.54 193.28 245.68 191.9 
M 249.85 99.25 251.98 98.61 254.89 96.85 256.77 94.86 256.77 93.63 254.89 91.64 252.82 90.4 
M 247.34 93.48 253.67 92.45 
M 247.9 94.41 253.47 94.62 
M 247.66 94.86 253.06 95.98 
M 251.02 114.9 253.39 113.88 256.42 111.25 258.37 108.27 258.37 106.42 256.42 103.44 253.39 100.81 251.02 99.79 
M 248.36 105.88 254.95 105.09 
M 248.85 107.74 254.52 107.04 
M 248.78 108.8 254.58 109.89 
M 251.48 133.77 253.81 132.49 256.78 129.23 258.7 125.53 258.7 123.24 256.78 119.55 253.81 116.28 251.48 115.01 
M 249.08 122.12 254.87 121.72 
M 249 124.49 255.4 124.08 
M 249.12 126.68 255.4 127.29 
M 251.63 155.63 254.02 154.17 257.07 150.41 259.04 146.15 259.04 143.51 257.07 139.26 254.02 135.5 251.63 134.03 
M 249.36 142.39 255.87 141.96 
M 249.72 144.73 255.88 144.74 
M 249.46 147.32 255.26 147.78 
M 251.74 179.15 254.2 177.58 257.34 173.55 259.37 168.98 259.37 166.16 257.34 161.59 254.2 157.56 251.74 155.99 
M 249.59 164.82 255.31 164.41 
M 249.21 167.24 255.48 167.96 
M 249.75 169.57 255.34 170.86 
M 251.88 202.75 254.31 201.18 257.43 197.13 259.45 192.56 259.45 189.72 257.43 185.15 254.31 181.11 251.88 179.53 
M 255.56 205.87 254.58 204.72 252.11 203.26 
M 254.73 91.62 256 91.29 
M 257.67 105.19 258.51 104.79 260.99 102.45 262.59 99.8 262.59 98.16 260.99 95.5 258.51 93.16 256.57 92.25 
M 254.6 97.26 259.3 97.04 
M 254.8 98.96 260.08 98.83 
M 255.12 100.13 259.38 100.88 
M 258.02 123.15 259.86 122.08 262.4 119.12 264.04 115.77 264.04 113.7 262.4 110.35 259.86 107.39 257.88 106.24 
M 258.33 142.47 259.12 141.85 261.41 138.25 262.88 134.17 262.88 131.64 261.41 127.56 259.12 123.96 258.02 123.09 
M 255.84 130.44 260.54 129.89 
M 256.03 132.85 259.81 133.32 
M 256.06 135.11 259.91 136.15 
M 258.64 167.59 260.74 166.04 263.44 162.04 265.17 157.5 265.17 154.7 263.44 150.17 260.74 146.16 258.64 144.6 
M 258.73 190.03 259.98 189.02 262.52 184.93 264.15 180.29 264.15 177.42 262.52 172.78 259.98 168.68 258.64 167.61 
M 255.98 176.23 261.61 174.94 
M 256.2 179.26 261.42 178.76 
M 256.43 181.62 261.57 182.35 
M 265.02 205.01 265.19 204.56 265.19 201.75 263.5 197.22 260.88 193.22 258.84 191.66 
M 262.02 98.3 264.41 97.61 267.58 95.8 268.19 95.18 
M 259.5 93.55 262.34 93.16 
M 259.87 93.82 266.22 94.5 
M 263.62 114.11 266.04 113.08 269.14 110.46 271.14 107.49 271.14 105.66 269.14 102.69 266.04 100.07 263.62 99.05 
M 260.88 105.51 267.8 104.61 
M 260.92 106.33 267.61 106.14 
M 261.37 108.3 267.79 108.66 
M 263.5 132.4 265.88 131.12 268.93 127.86 270.9 124.16 270.9 121.87 268.93 118.17 265.88 114.9 263.5 113.63 
M 261.44 120.82 267.77 120.03 
M 260.83 123.36 267.4 123.05 
M 261.14 125.04 267.57 125.94 
M 264.55 154.71 266.49 153.51 269.61 149.63 271.63 145.23 271.63 142.51 269.61 138.12 266.49 134.23 264.05 132.72 
M 261.41 141.76 268.35 140.89 
M 261.54 143.69 268.38 143.61 
M 262.09 146.31 267.62 147.39 
M 264.88 179.13 267.37 177.53 270.55 173.44 272.59 168.81 272.59 165.94 270.55 161.31 267.37 157.22 264.88 155.62 
M 262.87 165.48 269.23 163.55 
M 262.68 167.62 268.58 167.73 
M 262.45 169.65 268.57 170.79 
M 264.84 202.39 267.29 200.81 270.42 196.76 272.45 192.17 272.45 189.33 270.42 184.74 267.29 180.69 264.84 179.11 
M 262.35 188.74 268.65 187.37 
M 262.03 190.38 269.02 191.06 
M 262.5 192.87 268.84 193.84 
M 267.86 204.64 265.35 203.12 
M 270.42 104.7 271.42 104.27 274.14 101.88 275.9 99.18 275.9 98.06 
M 267.03 97.43 271.28 96.26 
M 267.31 98.47 272.76 98.17 
M 267.28 100 272.64 100.36 
M 270.75 122.28 272.77 121.19 275.35 118.4 277.01 115.23 277.01 113.27 275.35 110.11 272.77 107.31 270.75 106.22 
M 270.25 139.3 272.96 135.67 274.74 131.47 274.74 128.87 272.96 124.67 270.66 121.58 
M 269.01 127.44 271.1 126.9 
M 266.74 129.83 271.81 129.86 
M 266.3 132.2 271.62 132.94 
M 272.18 168.43 274.27 166.78 276.94 162.57 278.66 157.8 278.66 154.84 276.94 150.07 274.27 145.86 272.18 144.21 
M 270.05 154.06 276 152.68 
M 270.14 156.23 275.48 156.18 
M 269.94 158.89 275.08 160.21 
M 271.72 189.1 272.82 188.27 275.51 184.23 277.25 179.64 277.25 176.8 275.51 172.22 272.82 168.17 271.86 167.45 
M 278.12 203.18 278.12 201.35 276.44 196.75 273.84 192.69 271.8 191.1 
M 276.07 98.79 277.12 98.54 
M 276.94 113.85 279.51 112.86 282.8 110.32 284.92 107.45 284.92 105.67 282.8 102.8 279.51 100.26 276.94 99.27 
M 276.76 132.36 279.37 131.08 282.72 127.8 284.88 124.09 284.88 121.79 282.72 118.07 279.37 114.79 276.76 113.51 
M 274.27 120.73 280.63 120.22 
M 274.12 122.47 280.56 123.28 
M 274.66 124.64 280.55 125.78 
M 278.05 154.95 280.16 153.72 283.51 149.82 285.67 145.4 285.67 142.67 283.51 138.25 280.16 134.35 277.54 132.83 
M 275.01 141.87 281.67 140.55 
M 274.75 144.13 281.73 143.67 
M 275.17 145.83 281.42 147.25 
M 278.35 179.21 280.87 177.62 284.1 173.55 286.18 168.94 286.18 166.08 284.1 161.47 280.87 157.4 278.35 155.81 
M 275.72 164.89 282.61 163.96 
M 275.74 167.42 282.01 167.79 
M 276.07 169.63 282.71 171.03 
M 278.13 202.29 280.62 200.72 283.8 196.69 285.85 192.12 285.85 189.29 283.8 184.73 280.62 180.7 278.13 179.13 
M 275.99 187.98 282.06 186.97 
M 275.57 191.13 282.48 190.89 
M 275.72 192.67 281.89 193.72 
M 278.72 203.09 278.59 203.01 
M 284.16 105.41 286.19 104.71 288.7 102.97 
M 281.68 101.07 283.83 101.12 
M 284.1 122.24 285.95 121.25 288.67 118.32 290.43 115 290.43 112.95 288.67 109.63 285.95 106.69 284.16 105.73 
M 284.9 143.67 286.84 142.51 289.93 138.82 291.92 134.65 291.92 132.06 289.93 127.89 286.84 124.2 284.43 122.76 
M 282 131.23 287.89 129.75 
M 282.3 133.73 288.39 132.98 
M 282.37 135.14 288.44 136.07 
M 285.5 167.78 287.58 166.22 290.23 162.23 291.94 157.71 291.94 154.91 290.23 150.39 287.58 146.4 285.5 144.84 
M 283.86 154.24 288.49 152.57 
M 283.79 156.34 288.4 156.17 
M 283.71 158.66 289.02 159.88 
M 285.12 190.68 287.14 189.2 289.88 185.17 291.66 180.61 291.66 177.78 289.88 173.22 287.14 169.18 285.44 167.94 
M 291.13 200.96 289.58 196.73 287.01 192.75 285.12 191.29 
M 282.93 200.75 288.27 199.08 
M 291.12 114.5 293.76 113.54 297.14 111.08 299.33 108.3 299.33 106.89 
M 288.84 105.64 295.68 105.65 
M 288.29 107.67 295.39 107.79 
M 288.83 109.29 295.68 109.25 
M 291.28 133.59 293.95 132.31 297.37 129.04 299.58 125.32 299.58 123.03 297.37 119.31 293.95 116.04 291.28 114.76 
M 288.54 122.33 295.37 121.41 
M 288.68 123.87 295.84 124.03 
M 288.7 126.26 295.11 127.44 
M 291.89 156 294.5 154.52 297.85 150.72 300.01 146.43 300.01 143.77 297.85 139.47 294.5 135.68 291.89 134.2 
M 288.93 142.98 295.7 141.89 
M 289.82 144.75 295.84 145.1 
M 289.57 147.44 296.37 148.35 
M 291.92 179.17 294.4 177.62 297.58 173.65 299.63 169.15 299.63 166.37 297.58 161.87 294.4 157.9 291.92 156.34 
M 289.63 165.36 295.45 163.94 
M 289.6 167.96 295.81 167.37 
M 289.18 169.74 295.93 171.37 
M 294.2 200.2 297 196.61 299 192.12 299 189.34 297 184.85 293.91 180.88 291.49 179.34 
M 288.9 188.83 295.19 187.24 
M 289.53 190.81 295.26 190.27 
M 289.43 192.99 295.15 194.15 
M 298.65 106.82 298.91 106.73 
M 298.79 122.93 300.3 122.15 303.13 119.26 304.95 115.98 304.95 113.95 303.13 110.67 300.3 107.77 298.55 106.87 
M 296.11 113.73 301.66 112.71 
M 296.26 115.4 301.22 114.7 
M 295.94 116.34 301.68 117.25 
M 299.24 144.45 300.93 143.35 303.69 139.75 305.48 135.67 305.48 133.15 303.69 129.07 300.93 125.47 298.79 124.08 
M 297.01 132.6 302.59 131.36 
M 296.82 134.32 301.87 134.22 
M 296.34 136.56 302.53 137.94 
M 298.9 167.48 300.92 166 303.57 162.1 305.28 157.68 305.28 154.95 303.57 150.54 300.92 146.64 299.24 145.4 
M 296.75 154.38 302.39 153.26 
M 297.15 156.22 302.54 156.44 
M 296.45 158.7 302.49 159.49 
M 298.33 190.6 300.32 189.06 302.87 185.09 304.51 180.6 304.51 177.82 302.87 173.33 300.32 169.36 298.9 168.25 
M 296.75 176.89 301.48 175.95 
M 296.18 178.8 301.99 179.67 
M 296.45 181.18 301.73 182.4 
M 302.67 197.97 302.01 196.12 299.54 192.24 298.29 191.25 
M 305.23 115.3 307.77 114.34 311.15 111.73 
M 302.59 108.51 303.51 108.5 
M 302.85 109.76 307.36 110.13 
M 305.3 134.18 307.85 132.92 311.11 129.68 313.22 126.03 313.22 123.76 311.11 120.1 307.85 116.87 305.3 115.61 
M 302.94 123.05 309.35 122.05 
M 302.51 124.44 309.09 125.22 
M 302.46 126.33 309.46 127.84 
M 305.49 156.03 308 154.58 311.2 150.88 313.27 146.68 313.27 144.08 311.2 139.89 308 136.18 305.49 134.74 
M 302.83 143.41 309.22 142.02 
M 303.3 144.93 309.11 145.56 
M 302.79 147.63 309.89 148.74 
M 304.97 178.6 307.35 177.09 310.41 173.21 312.38 168.82 312.38 166.1 310.41 161.71 307.35 157.83 304.97 156.32 
M 308.7 196.42 309.24 195.7 311.12 191.29 311.12 188.55 309.24 184.13 306.32 180.23 304.04 178.71 
M 312.46 123.86 314.22 122.9 316.87 120 318.59 116.72 318.59 115.3 
M 310.13 114.21 314.27 113.18 
M 310.15 115.7 315.81 115.42 
M 310.44 117.8 315.78 117.93 
M 312.53 144.41 314.24 143.26 316.88 139.73 318.58 135.73 318.58 133.25 316.88 129.25 314.24 125.72 312.46 124.53 
M 309.86 132.59 315.29 131.12 
M 310.06 134.26 315.2 134.46 
M 309.81 136.57 315.67 137.59 
M 312.17 167.2 314.23 165.72 316.86 161.93 318.55 157.64 318.55 154.98 316.86 150.69 314.23 146.9 312.53 145.67 
M 310.08 154.24 315.27 152.88 
M 309.76 156.66 315.1 156.05 
M 310.29 158.41 315.83 159.19 
M 310.52 189.09 312.35 187.59 314.71 183.73 316.23 179.36 316.23 176.65 314.71 172.28 312.35 168.42 311.67 167.87 
M 313.99 195.03 311.54 190.91 310.45 190.01 
M 318.59 134.15 321 132.89 324.09 129.65 326.08 125.98 326.08 123.71 324.09 120.04 321 116.8 318.59 115.54 
M 316.61 122.91 322.1 122.29 
M 315.82 124.9 322.92 124.43 
M 315.99 126.86 322.68 127.51 
M 318.73 155.73 321.15 154.31 324.25 150.67 326.24 146.55 326.24 144 324.25 139.89 321.15 136.25 318.73 134.83 
M 316.67 143.47 322.48 142.08 
M 316.36 145.28 323.04 145.56 
M 316.16 147.02 322.18 148.45 
M 317.43 177.34 319.7 175.87 322.61 172.12 324.49 167.87 324.49 165.23 322.61 160.98 319.7 157.22 317.95 156.09 
M 315.24 164.44 321.33 162.96 
M 315.18 166.75 320.64 166.89 
M 315.05 168.49 321.19 169.36 
M 321.11 193.1 322.56 189.59 322.56 186.9 320.76 182.54 317.96 178.69 315.77 177.19 
M 314.07 185.65 318.94 184.75 
M 313.72 187.79 319.74 188.63 
M 313.41 190.83 319.4 191.21 
M 325.37 123.05 326.67 122.27 328.42 120.16 
M 325.53 144.33 327.27 143.12 329.83 139.54 331.48 135.49 331.48 132.98 329.83 128.92 327.27 125.34 325.37 124.02 
M 322.96 132.59 328.31 131.5 
M 323.76 134.48 328.25 134.54 
M 323.01 136.45 328.79 137.19 
M 325.29 166.56 327.24 165.13 329.74 161.49 331.36 157.36 331.36 154.81 329.74 150.68 327.24 147.04 325.53 145.79 
M 323.41 154.28 328.46 153 
M 323.8 156.32 328.71 156.12 
M 323.55 158.17 328.63 159.18 
M 321.92 186.36 323.47 185.05 325.69 181.33 327.12 177.1 327.12 174.49 325.69 170.27 323.82 167.13 
M 324.89 191.96 323.01 188.88 321.92 187.99 
M 331.13 133.42 333.39 132.14 336.29 128.87 338.15 125.16 338.15 124.88 
M 328.67 122.35 331.66 121.76 
M 328.83 124.31 335.14 124.08 
M 328.56 125.8 334.99 126.88 
M 331.42 154.88 333.67 153.48 336.56 149.91 338.42 145.86 338.42 143.36 336.56 139.31 333.67 135.74 331.42 134.34 
M 329.27 142.41 335 141.29 
M 329.04 144.29 335.17 144.24 
M 329.67 146.55 334.92 147.67 
M 329.11 175.35 331.28 173.92 334.05 170.26 335.84 166.11 335.84 163.54 334.05 159.39 331.28 155.72 330.78 155.4 
M 329.09 162.04 332.3 161.59 
M 326.84 165.27 332.85 164.79 
M 326.73 167.31 332.99 168.43 
M 333.37 189.21 334.05 187.58 334.05 184.84 332.21 180.42 329.37 176.52 327.16 174.99 
M 337.9 143.82 339.72 142.42 342.04 138.83 343.55 134.76 343.55 132.24 342.04 128.17 340.7 126.1 
M 335.77 131.22 340.87 130.04 
M 336.3 133.56 341.11 133.45 
M 335.75 135.34 340.91 136.72 
M 337.22 164.62 338.96 163.26 341.19 159.78 342.62 155.84 342.62 153.4 341.19 149.46 338.96 145.98 337.75 145.04 
M 335.71 152.83 340.02 151.2 
M 335.61 154.63 339.82 154.91 
M 335.96 156.45 339.77 157.35 
M 333.39 182.73 333.99 182.24 336.29 178.43 337.78 174.12 337.78 171.46 336.29 167.14 335.2 165.34 
M 336.13 188.25 335.55 187.31 333.56 185.68 
M 343.01 131.09 344.73 130.07 346 128.57 
M 342.53 152.44 344.57 151.06 347.19 147.52 348.87 143.52 348.87 141.05 347.19 137.04 344.57 133.51 343.01 132.46 
M 341.1 139.89 345.56 139.49 
M 341.01 141.9 345.66 142.58 
M 340.64 144.76 345.71 145.71 
M 340.17 173.22 342.3 171.75 345.02 168.01 346.77 163.76 346.77 161.14 345.02 156.89 342.11 153.02 
M 341.13 159.5 343.6 159.13 
M 339.19 162.48 343.84 162.05 
M 337.86 164.54 343.38 165.55 
M 346.47 184.51 346.47 183.46 344.55 178.82 341.56 174.71 339.23 173.11 
M 337.1 182.79 342.86 181.75 
M 337.23 185.02 342.95 184.55 
M 337.3 187.56 337.9 187.63 
M 348.27 140.1 349.81 138.85 351.93 135.4 353.18 131.86 
M 346.59 129.87 348.78 129.85 
M 346.72 132.3 350.71 133.35 
M 346.83 161.12 348.43 159.71 350.47 156.1 351.79 152 351.79 149.47 350.47 145.37 348.27 141.62 
M 345.78 182.3 346.39 181.81 348.89 177.72 350.5 173.09 350.5 170.22 348.89 165.59 346.15 161.3 
M 344.26 168.64 347.57 168.21 
M 342.35 171.23 347.14 172.12 
M 342.09 174.15 347.32 174.75 
M 352.31 148.76 354.46 147.37 357.22 143.83 359 139.82 359 137.34 357.45 133.84 
M 349.96 136.25 355.32 135.45 
M 350.1 138.54 356.23 138.27 
M 349.86 140.35 355.46 141.33 
M 351.15 171.47 353.43 169.91 356.34 165.92 358.21 161.4 358.21 158.6 356.34 154.07 353.43 150.08 351.15 148.52 
M 348.7 157.32 354.62 156.59 
M 348.68 160.41 354.5 160.44 
M 349.28 162.25 355 163.33 
M 358.23 179.82 357.46 177.93 354.39 173.64 351.99 171.97 
M 349.5 181.75 356.29 180.41 
M 358.36 136.03 359.95 135.01 
M 356.07 157.57 358.03 156.06 360.54 152.19 362.16 147.82 362.16 145.1 360.54 140.73 358.03 136.86 356.07 135.35 
M 354.49 144.36 359.46 143.07 
M 353.77 146.14 359.22 146.8 
M 353.97 148.66 359.19 149.82 
M 361.49 178.48 361.98 177.66 363.69 172.68 363.69 169.59 361.98 164.61 359.34 160.21 357.27 158.5 
M 364.5 147.54 367.02 146.16 370.25 142.63 371.46 140.29 
M 361.67 137.53 365.63 137.64 
M 361.84 139.6 368.47 140.34 
M 363.85 170.97 366.39 169.39 369.64 165.34 371.74 160.75 371.74 157.91 369.64 153.32 366.39 149.27 363.85 147.68 
M 361.2 156.64 367.8 155.94 
M 361.78 159 368.34 159.57 
M 361.71 161.58 367.6 162.8 
M 368.98 175.41 367.38 173.24 364.92 171.56 
M 371.02 159.03 373.31 157.55 375.19 155.11 
M 375.19 164.27 373.18 161.24 371.01 159.62 
M 124.45 195.8 126.38 191.97 126.38 189.26 125.81 188.12 
M 122.06 187.77 122.76 187.73 
M 120.45 190.63 122.74 190.66 
M 120.13 193.8 122.42 194.3 
M 125.59 191.98 127.59 190.38 128.43 189.05 
M 134.96 200.54 137.71 197.14 139.69 192.84 
M 145.3 204.63 145.36 201.85 143.63 197.6 140.95 193.84 139.39 192.75 
M 148.85 205.85 147.41 204.33 144.74 202.93 
M 144.09 108.95 144.09 108.95 
M 157.17 208.33 158.58 204.56 158.58 201.74 156.91 197.25 
M 165.57 210.44 164.52 208.32 161.24 204.55 158.69 203.08 
M 168.96 211.34 170.2 209.38 171.91 204.6 171.91 201.65 171.35 200.09 
M 171.3 201.31 172.61 200.36 
M 179.88 214.46 179.88 212.66 177.82 208.25 174.62 204.36 172.12 202.84 
M 167.17 100.09 167.17 100.09 
M 176.83 96.51 176.83 96.51 
M 192.25 217.59 193.23 215.46 193.23 212.69 191.17 208.22 187.99 204.28 186.36 203.27 
M 209.7 89.06 209.7 89.06 
M 217.09 220.32 217.71 219.58 219.76 215.28 219.76 212.61 217.71 208.31 216.19 206.5 
M 219.02 213.98 220.65 212.76 223.31 208.78 224.22 206.4 
M 223.77 220.25 223.55 219.74 220.9 216.21 219.02 214.96 
M 230.47 220.26 231.09 219.53 233.15 215.29 233.15 212.66 231.09 208.42 229.36 206.38 
M 222.79 214.15 229.54 213.95 
M 232.41 214.1 234.14 212.83 236.81 208.88 237.71 206.56 
M 234.47 206.49 235.01 206.62 
M 243.85 220.29 244.46 219.57 246.52 215.33 246.52 212.71 244.46 208.47 242.78 206.5 
M 236.79 211.68 242.77 210.45 
M 236.83 213.82 242.94 213.58 
M 236.64 216.04 242.44 217.22 
M 246.28 89.14 246.28 89.14 
M 245.78 214.25 247.54 212.95 250.21 208.99 251.31 206.11 
M 257.95 219.14 259.8 215.32 259.8 212.7 257.75 208.46 255.56 205.87 
M 259.07 214.48 260.88 213.09 263.5 209.09 265.02 205.01 
M 263.32 212.18 269.05 210.36 
M 275.9 98.06 275.9 98.06 
M 272.29 214.07 273.84 212.86 276.44 208.8 278.12 204.2 278.12 203.18 
M 274.17 216.27 272.29 215.04 
M 277.12 98.54 277.12 98.54 
M 286.15 213.59 286.15 212.49 284.14 208.24 281.02 204.48 278.72 203.09 
M 283.83 101.12 283.83 101.12 
M 285.43 213.75 287.01 212.52 289.58 208.54 291.24 204.03 291.13 200.96 
M 282.91 202.53 288.13 202.94 
M 283.36 205.21 288.52 205.74 
M 297.91 210.14 296.82 207.76 293.81 204 291.46 202.53 
M 311.15 111.73 311.15 111.73 
M 308.79 206.47 306.03 202.89 303.77 201.41 
M 314.55 204.48 315.43 201.94 315.43 199.21 313.99 195.03 
M 328.42 120.16 328.42 120.16 
M 326.94 199.75 326.94 197.23 325.4 192.8 324.89 191.96 
M 319.54 200.65 323.08 201.38 
M 327.16 197.42 329.37 195.9 332.21 192 333.37 189.21 
M 328.77 198.99 327.69 198.3 
M 340.7 126.1 340.7 126.1 
M 346 128.57 346 128.57 
M 337.9 187.63 343.16 188.24 
M 350.26 189.21 348.77 186.72 346.76 185.02 
M 357.45 133.84 357.45 133.84 
M 350.03 184.57 356.23 183.83 
M 349.75 186.85 353.95 187.39 
M 359.56 184.5 359.5 184.45 
M 362.73 180.99 367.67 180.35 
M 178.13 96.02 179.27 93.72 179.71 86.66 180.25 83.17 180.28 79.49 179.98 76.74 180.37 74.7 181.19 72.36 181.76 69.73 182.15 66.36 183.62 64.76 185.62 62.02 187.22 59.61 188.64 56.88 190.01 54.12 190.97 51.65 191.46 48.33 192.85 46.37 194.71 44.88 196.62 42.7 199.53 38.51 201.59 34.47 203.97 32.34 205.9 30 205.33 33.51 208.74 37.58 211.2 39.98 217.14 44.47 219.04 48.03 219.79 50.54 221.19 51.25 221.68 53.38 223.02 56.69 225.74 62.07 228.16 63.23 230.6 63.74 232.53 66.41 233.62 68.67 236.45 72.44 240.59 76.2 242.89 78 252.61 84.07 256.89 88.22 258.48 90.53 260.8 92.63 
M 260.71 92.6 260.71 92.6 
M 182.59 94.71 183.7 92.15 183.74 89.77 184.05 87.68 184.08 84.64 183.69 81.58 184.01 78.79 184.78 76.71 185.46 74.14 185.82 71.41 185.99 68.21 187.03 65.79 
M 187.04 93.4 187.8 91.13 187.82 88.65 188.55 85.65 188.58 82.86 189.12 80.08 189.82 78.17 190.43 75.85 190.83 72.98 190.98 70.39 191.63 67.09 191.89 64.94 194.17 60.33 195.95 58.05 196.9 54.68 199.48 47.99 201.09 47.2 204.36 46.66 
M 191.56 92.32 192.55 89.82 193.31 82.29 193.76 79.59 195.69 71.33 198.01 67.02 197.64 64.35 198.78 61.92 200.73 60.41 202.46 57.41 
M 196.1 91.34 196.82 89.51 197.4 86.73 197.69 81.09 198.39 77.67 199.74 74.85 200.57 70.92 202.2 69.64 203.47 63.72 206.17 60.62 208.41 58.5 210.61 56.66 212.67 55.56 
M 200.66 90.45 201.88 88.74 202.2 86.22 202.05 83.5 204.7 75.5 205.22 72.87 206.47 71.02 207.41 69.16 209.27 66.48 
M 205.25 89.71 206.05 88.1 206.35 83 207.38 79.93 209.58 74.75 214.5 69.7 216.8 64.3 216.92 62.68 218.93 61.46 
M 209.85 89.05 210.39 87.82 210.7 85.15 211.77 82.25 214.12 77.22 215.51 75.83 217.25 72.93 219.14 71.25 221.24 70.07 222.06 67.62 222.92 65.69 
M 214.49 88.89 215.42 86.96 217.06 82.39 218.04 80.55 219.47 78.9 
M 219.13 88.73 220.55 86.88 221.26 84.58 222.92 80.57 223.63 78.22 225.2 75.02 227.25 72.88 228.78 70.96 230.68 69.32 
M 223.78 88.67 225.21 87.05 226.77 81.36 227.79 79.37 229.89 78.14 232.23 76.22 234.46 73.49 
M 228.42 88.61 230.06 86.39 230.62 83.63 232.92 79.59 234.82 77.42 237.15 76.45 
M 233.06 88.49 235.11 86.18 235.81 83.66 235.98 81.87 
M 237.71 88.34 239.54 86.69 240.65 84.27 
M 242.35 88.58 245.11 87.7 247.03 86.26 250.02 84.49 
M 246.95 89.23 250.77 89.77 
M 251.52 90.03 255.77 90.42 
M 255.99 91.28 260.73 92.54 
M 132.08 134.41 150.6 126.75 150.99 127.59 132.55 136.88 
M 132.87 138.69 183.17 121.49 183.49 122.36 133.01 141.71 
M 133.04 143.42 192.23 128.34 192.47 129.23 132.96 146.5 
M 132.88 148.2 199.17 136.89 199.34 137.8 132.69 151.27 
M 132.24 152.96 198.92 147.16 199.01 148.08 131.35 156.08 
M 131.03 157.61 194.34 157.36 194.36 158.28 130.34 160.65 
M 129.96 162.03 201.07 167.48 201.01 168.4 128.97 165.07 
M 128.51 166.24 196.32 177.11 196.19 178.03 127.32 169.23 
M 126.94 170.18 181.03 183.69 180.83 184.59 126.07 173.2 
M 125.92 174.04 172.42 189.93 172.14 190.82 125.27 177.12 
M 124.7 179.16 151.51 191.31 151.15 192.17 123.95 182.19 
M 148.08 129.06 154.71 129.03 161.23 128.44 164.44 127.84 167.6 127.02 170.73 126.01 176.92 123.63 
M 177.32 124.73 178.36 126.91 179.72 128.64 180.58 129.25 181.57 129.67 182.67 129.93 185.08 130.16 
M 185.39 131.29 185.8 133.61 186.15 134.65 186.65 135.56 187.31 136.33 189.11 137.46 191.34 138.23 
M 191.56 139.38 190.27 141.2 189.54 143.04 189.49 143.98 189.66 144.93 190.03 145.89 191.12 147.83 
M 191.24 149 189.24 150.33 188.4 151.07 187.73 151.9 187.27 152.84 186.9 154.98 187.02 157.39 
M 187.05 158.56 187.42 161.1 188.25 163.32 188.92 164.25 189.77 165.04 190.78 165.72 193.09 166.86 
M 193.02 168.03 191.03 169.22 189.54 170.68 189.08 171.55 188.81 172.53 188.71 173.6 188.83 175.91 
M 188.67 177.07 185.23 177.09 181.98 177.64 180.47 178.21 179.04 178.99 177.68 179.95 175.09 182.2 
M 174.82 183.34 172.51 183.42 171.46 183.61 170.51 183.97 169.67 184.5 168.36 186.12 167.35 188.2 
M 166.99 189.31 162.85 188.26 160.78 187.92 158.73 187.77 156.68 187.84 152.6 188.62 148.54 189.96 
M 151.4 129.08 157.99 128.83 161.23 128.44 164.44 127.84 167.6 127.02 173.83 124.86 
M 177.81 125.85 178.98 127.86 179.72 128.64 180.58 129.25 181.57 129.67 183.85 130.08 
M 157.99 133.01 158.75 134.32 159.79 135.22 160.43 135.49 161.91 135.76 
M 185.57 132.47 186.15 134.65 186.65 135.56 187.31 136.33 188.14 136.96 190.2 137.87 
M 163.03 138.62 163.41 140.03 164.16 141.13 164.7 141.54 166.04 142.13 
M 190.87 140.28 189.81 142.11 189.54 143.04 189.49 143.98 189.66 144.93 190.54 146.86 
M 166.48 145 165.78 146.19 165.61 146.79 165.69 148.02 166.26 149.27 
M 190.21 149.65 188.4 151.07 187.73 151.9 187.27 152.84 186.99 153.87 186.93 156.17 
M 166.05 152.38 164.87 153.31 164.44 153.85 163.96 155.13 163.91 156.62 
M 187.21 159.85 187.76 162.27 188.25 163.32 188.92 164.25 189.77 165.04 191.9 166.32 
M 164.09 160.32 164.45 161.89 164.77 162.57 165.76 163.69 167.15 164.52 
M 191.99 168.61 190.2 169.9 189.54 170.68 189.08 171.55 188.81 172.53 188.74 174.74 
M 167.2 167.31 166.04 168.15 165.61 168.65 165.13 169.86 165.09 171.29 
M 186.93 177.05 183.57 177.28 181.98 177.64 180.47 178.21 179.04 178.99 176.37 181.04 
M 173.65 183.35 171.46 183.61 170.51 183.97 169.67 184.5 168.96 185.23 167.83 187.12 
M 164.92 188.75 160.78 187.92 158.73 187.77 156.68 187.84 154.63 188.14 150.56 189.25 
M 188.45 223.24 191.96 228.23 193.67 231.4 195.54 233.76 197.06 236.31 211.05 268 208.46 272.98 206.64 274.85 205.3 277.13 204.45 279.89 202.56 280 199.25 277.34 193.48 273.9 190.64 272.61 188.48 273.28 185.61 273.05 181.34 266.39 177.82 261.29 175.44 257.32 173.1 255.06 170.23 252.77 164.86 248.99 153.37 226.29 152.11 224.06 150.7 220.1 150.11 216.09 147.16 210.49 
M 184 221.93 186.19 225 189.43 231.12 192.44 236.17 193.84 239.2 194.77 242.25 197.25 245.59 
M 179.54 220.62 182.91 226.62 184.2 229.28 186.11 232.25 188.23 234.56 189.41 237.49 190.08 240.61 191.11 243.98 192.71 247.5 196.09 252.87 
M 175.11 219.22 177.2 222.69 180.59 230.95 183.01 233.52 185.07 236.08 185.44 241.49 186.37 244.75 187.94 248.1 190.4 250.85 192.08 256.04 193.6 259.2 195.89 262.08 198.16 265.46 200.5 270.26 
M 170.69 217.79 172.62 221.38 173.99 224.51 175.09 227.51 176.44 230.55 178.56 236.32 180.05 238.42 180.74 240.71 182.17 242.99 182.44 246.52 185.42 250.53 186.82 254.23 
M 166.25 216.42 169.15 223.3 170.87 226.42 173.27 231.77 174.57 237.7 178.07 242.45 179.54 245.03 180.86 247.58 181 250.4 182.93 252.81 184.45 255.79 184.62 259.53 185.28 262.79 187.28 265.51 188.53 268.69 190.66 271.8 
M 161.78 215.15 164.9 221.97 166.25 224.44 167.25 227.33 167.96 230.42 169.51 233.14 171.56 239.08 172.73 241.74 174.85 243.49 176.72 246.53 177.08 248.68 178.43 251.39 179.79 253.31 181.67 260.59 182.56 264.7 
M 157.31 213.89 160.45 221.02 162.07 226.92 163.3 229.71 163.93 232.73 165.23 234.97 
M 152.91 212.41 155 215.67 156.09 219.17 156.81 223.27 157.77 226.58 158.99 229.57 160.59 232.34 
M 353.61 190.49 358.16 194.33 361.45 196.49 369.57 206.87 368.71 209.32 367.42 211.66 365.49 213.66 364.2 216.32 362.13 218.15 356.94 220.74 354.25 225.89 351.85 227.39 348.95 228.38 346.49 229.81 343.39 230.19 339.79 229.76 336.92 229.98 332.3 231.78 330.08 233.3 327.5 234.5 324.29 235 321.91 236.15 318.24 240.32 313.59 242.86 307.96 243.52 304.14 247.16 298.64 245.9 295.18 244.61 292.82 244.47 284.86 244.94 278.05 243.7 274.8 243.49 271.97 243.69 269.83 244.28 266.72 242.8 263.99 241.92 257.87 238.04 256.56 234.96 250.39 226.71 
M 349.53 192.7 353.56 196.37 356.4 198.07 361.08 202.08 368.03 206.56 
M 345.44 194.9 349.33 198.19 352.88 200.85 357.53 205.24 363.81 208.63 366.88 211.13 
M 341.31 197.04 353.35 208.14 
M 337.15 199.09 343.71 205.09 348.71 210.02 351.63 212.56 353.43 214.89 
M 332.98 201.15 336.83 203.74 341.58 209.34 344.56 211.16 347.45 213.58 350.05 216.18 350.89 219.14 352.46 221.61 
M 328.78 203.12 332.64 205.42 335.31 207.68 337.63 210.17 340.65 212.69 346.18 218.43 348.21 220.28 349.65 222.67 
M 324.57 205.09 330.83 209.77 332.84 212.15 338.22 216.25 341.04 219.24 342.74 222.26 
M 320.31 206.94 324 209.83 328.6 214.17 330.31 216.27 332.62 218.35 
M 316 208.69 318.99 211.97 324.03 217.11 326.58 219.16 327.88 220.78 330.18 222.78 333.9 224.67 
M 311.69 210.42 315.02 213.81 317.26 216.49 320.09 219.16 324.15 224.34 326.29 226.19 328.54 228.46 
M 307.35 212.06 310.29 215.47 313.01 217.65 317.28 222.75 319.55 224.98 
M 303 213.7 306.21 217.66 308.55 220.16 312.81 224.31 315.14 225.63 317.52 228.29 
M 298.65 215.33 301.81 219.29 304.98 221.87 310.1 226.43 316.08 232.55 
M 294.3 216.96 297.8 220.47 303.4 225.58 307.97 230.23 310.18 233.45 311.19 236.38 315.59 238.68 
M 289.9 218.43 297.92 226.93 300.8 229.14 303.81 231.91 
M 285.42 219.67 288.23 223.1 290.18 226.05 292.64 228.5 295.78 230.66 
M 280.94 220.89 283.94 224.16 285.75 227.03 289.89 231.99 292.47 234.8 296.17 236.76 298.18 240.04 300.88 242.44 302.02 245.02 
M 276.42 221.98 280.2 225.64 282.28 228.04 284.02 230.47 285.54 233.3 288.07 234.66 289.54 237.18 
M 271.91 223.07 275.47 226.68 279.41 232.53 
M 267.37 224.08 270.09 227.85 272.72 230.94 274.66 234.08 277.16 236.64 
M 262.83 225.06 265.08 228.94 267.72 232.55 272.61 238.38 
M 258.25 225.81 260.92 229.73 263.14 233.33 265.9 236.73 269.36 243.12 
M 253.63 226.33 256.94 230.34 259.5 233.96 
M 374.26 141.57 377.07 140.61 379.76 139.4 387.38 135.49 389.8 133.96 391.97 131.98 394.42 130.51 396.59 128.94 401.38 126.13 403.61 124.59 406.27 123.55 408.36 122.47 410.85 120.86 418.97 116.96 420.99 115.46 422.86 113.01 426.98 108.53 429.7 107.05 432.86 106.04 434.95 103.83 437.98 102.51 440.04 100.94 441.97 100.09 444.97 99.13 448.19 97.61 450.05 95.89 452.75 95.25 455.1 93.78 462.21 87.5 464.18 86.19 466.99 85.73 468.56 84.01 471.27 82.55 473.42 82.29 476.64 81.54 479.32 78.06 480.38 75.33 483.35 73.76 480.85 83.47 480.34 86.26 479.94 89.16 480.43 92.94 479.77 98.88 478.67 104.44 477.48 106.58 476.62 109.06 476.13 112.02 475.13 114.46 474.6 117.34 472.78 121.69 473.17 125.18 473.06 128.3 472.12 131.02 470.96 133.51 470.08 135.91 469.87 138.49 470.24 147.08 469.4 152.03 468.37 154.33 468.57 157.77 468.1 160.35 467.13 162.43 467.86 171.4 469 178.17 469.15 181.27 468.6 186.68 469.43 189.75 471.46 194.85 471.87 196.81 473.62 201.7 473.76 203.99 474.16 206.71 474.48 211.68 475 214.59 474.69 216.69 475.76 222.32 479.58 231.8 480.51 234.94 480.86 237.49 480.57 239.39 481.5 243.34 483.29 255.17 480.1 253.4 478.34 251.63 477.25 251.14 475 249.07 472.97 245.57 466.07 242.05 462.91 239.87 459.89 238.32 457.35 235.49 455.92 234.5 454.5 233.9 452.28 233.47 450.42 231.32 448.21 229.69 446.16 227.57 442.11 226.36 439.23 224.02 434.57 220.69 431.27 217.9 428.32 216.95 422.93 213.55 419.96 212.37 418.09 210.63 415.58 208.71 410.23 205.25 408.38 202.82 406.03 201.36 403.27 200.16 400.96 197.97 398.75 196.38 396.45 195.22 386.73 187.83 384.6 185.94 374.26 178.85 
M 377.16 142.67 382.43 140.05 390.18 136.57 395.09 132.7 397.75 131.24 399.81 130.3 402.16 128.8 407.32 127.32 409.69 126.04 411.52 124.36 414.08 122.91 416.96 121.95 419.8 120.78 424.81 116.9 435.3 111.1 437.99 110.21 439.79 108.9 441.48 108.97 443.13 108.53 446.5 107.28 448.91 106.01 451.99 104 458.31 99.23 
M 374.26 145.3 377.32 144.63 385.19 141.11 387.48 140.36 390.39 139.11 395.67 136.16 398.39 134.05 400.9 133.52 403.63 132.13 406.56 131.76 409.15 130.25 411.95 129.61 413.89 128.36 415.85 126.74 418.34 125.76 425.69 121.39 431.78 118.67 434.85 118.17 438.25 117.14 440.54 117.09 441.43 115.32 444.41 112.26 448.41 111.93 452.33 110.76 454.97 110.69 457.98 110.25 459.98 107.4 462.69 104.63 464.09 102.65 469.46 102.96 
M 374.26 147.16 377.46 146.6 383.01 144.96 385.4 143.79 387.81 143.11 396.55 139.07 399.1 137.55 401.64 137.38 404.64 136.27 407.76 135.41 410.34 134.47 412.8 134.17 420.53 130.74 423.59 128.35 425.96 127.59 427.8 125.97 432.52 124.95 435.86 123.22 
M 383.3 147.52 388.5 145.77 393.86 143.45 397.07 142.38 399.68 141.02 405.54 139.43 408.55 138.8 410.97 138.03 413.34 138.39 419.29 136.96 421.87 135.41 425.48 133.94 428.91 132.11 430.3 130.65 436.47 129.17 439.74 127.53 442.74 127.53 444.87 126.37 447.73 125.94 450.19 125.93 453.83 125.06 456.13 123.91 463.28 122.09 464.23 120.35 466.35 119.43 469.02 117.88 470.34 117.46 
M 377.68 150.56 383.63 149.61 389.12 149.08 391.94 148.11 403.1 143.29 406.01 142.9 409.28 141.95 414.57 141.34 419.96 140.46 422.4 139.07 426.74 139.01 429.74 138.45 431.59 136.71 
M 383.62 152.12 389.29 151.76 392.55 151.11 398.88 149.73 404.64 147.51 407.83 147.54 412.77 146.01 415 145.61 418.63 145.4 421.05 144.03 423.62 143.77 427.25 143.74 430.41 143.29 434.42 141.48 436.66 140 443.26 139.88 449.56 138.45 452.01 138.63 456.46 138.11 
M 374.26 154.62 377.85 154.86 383.67 154.23 386.85 154.48 392.95 154.24 396.27 153.72 402.18 152.28 404.86 152.11 407.98 152.41 410.68 152.11 412.26 150.58 414.75 150.15 417.33 150 425.13 149.96 428.38 149.17 430.94 147.87 432.12 146.98 433.87 146.47 437.05 145.86 445.08 147.39 447.42 147.51 
M 381.2 156.76 383.98 156.42 386.99 156.64 392.74 156.3 396 156.41 399.46 156.91 402.44 156.33 408 155.92 410.52 156.01 412.61 155.72 415.04 154.97 417.42 154.45 425.86 155.17 431.51 154 433.28 153.03 434.61 151.85 437.27 151.72 441.56 152.83 443.56 152.69 448.79 151.5 452.07 151.27 
M 384.19 159.06 390.72 158.74 396.54 159.48 399.22 160.09 402.1 159.72 404.78 159.86 409.56 159.58 412.17 160.2 415.16 159.38 418.41 158.94 421.79 159.52 424.92 159.39 428.26 158.44 431.13 158.83 435.15 157.86 437.47 157.78 440.89 159.06 444.45 158.28 451.14 157.63 456.65 158.41 459.4 157.72 462.33 157.73 
M 384.31 161.28 390.93 161.39 393.79 162.04 396.94 162.48 400 162.66 402.17 163.14 404.01 163.25 406.24 163.87 409.09 164.21 415.21 163.69 417.8 163.75 421.59 164.43 424.08 164.22 426.35 163.73 429.05 163.99 431.93 163.58 434.48 162.76 438.25 163.01 442.33 164.31 449.72 164.55 451.38 163.37 454.56 162.96 
M 384.31 164.02 390.49 164.52 396.04 165.77 398.78 166.01 401.56 166.53 404.34 166.72 407.18 166.36 410.59 167.01 413.72 166.87 415.92 167.01 418.71 166.82 421.28 167.61 424.77 168.17 428.24 169.28 431.24 168.92 433.1 168.46 433.95 168.71 439.86 169.21 443.24 171.06 446 171.94 450.14 171.31 453.8 171.93 457.73 171.48 
M 383.68 166.48 389.93 167.27 398.07 169.42 404.72 170.25 408.44 169.74 411.55 170.31 413.72 171.12 415.86 171.53 418.7 171.12 421.22 171.14 424.7 172.28 427.47 173.53 430.85 173.95 432.53 173.71 433.65 174.13 436.65 173.99 439.22 176.03 442.59 177.28 448.99 177.35 452.58 177.69 455.08 177.21 458.28 177.55 
M 383.71 168.59 386.54 169.2 389.11 169.97 392.19 170.33 398.29 172.4 401.22 173.1 404.5 173.63 407.81 173.7 410.64 174.31 415.51 176.05 418.43 176.01 421.88 177.26 427.32 178.01 440.1 182.29 442.04 183.54 443.95 184.39 447.44 183.31 451.38 183.25 454.72 184.56 
M 374.26 167.67 386.3 171.69 388.96 172.74 392.01 173.14 397.8 175.92 403.63 176.33 407.2 177.06 410.22 177.3 419.66 181.51 422.44 181.85 427.05 182.69 431.42 184.09 433.61 185.13 436.37 185.91 442.69 187.14 445.1 188.09 448.24 188.54 450.91 188.68 456.88 189.72 459.51 192.01 
M 383.26 173.23 385.94 174.43 394.82 177.24 403.28 179.65 409.63 180.65 412.52 181.63 418.6 185.43 421.2 186 422.74 187.37 424.57 188.64 427.7 190.16 430.45 190.69 433.59 191.58 
M 380.46 174.2 382.8 175.74 388.81 177.81 391.43 179.17 394.35 180.29 397.96 181.23 400.83 182.79 403.4 183.52 406.05 183.78 411.75 186.09 414.38 188.17 417.31 189.88 420.12 191.08 423.01 191.82 424.48 193.05 427.17 194.38 432.57 195.89 435.86 198.33 438.4 199.61 440.19 199.7 445.25 202.27 
M 377.46 175 391.1 181.78 396.62 185.01 399.34 186.22 402.04 186.86 404.93 187.13 407.7 187.96 410.33 189.5 416.09 193.84 420.18 195.52 425.33 197.28 427.48 198.68 
M 382.63 179.94 388.14 183.29 390.5 184.45 392.57 186.2 395.07 188.03 397.82 189.71 406.74 191.51 409.86 192.87 411.68 195.38 414.03 196.35 416.38 197.97 418.93 199.45 421.1 200.39 425.59 204.83 428.07 205.84 431.91 206.94 433.88 208.88 442.73 212.04 448.11 214.6 450.89 216.52 456.15 219.27 
M 379.69 180.38 389.72 186.86 394.41 190.66 397.06 192.31 402.07 194.93 405.01 195.96 407.6 198.15 412.31 200.25 414.82 202.36 417.13 204.6 419.56 206.32 423.48 209.95 425.61 211.49 428.65 212.85 432.77 212.93 435.99 216.27 438.61 217.66 441.09 219.47 445.08 220.17 447.78 221.79 451.72 223.14 453.59 225.23 453.95 227.5 456.4 228.86 459.66 231.17 461.94 231.74 466.74 233.57 469.49 233.93 473.1 235.55 475.3 236.13 478.01 238.27 479.55 240.83 
M 48.24 148.94 49.57 147.01 51.51 145.46 54.37 143.85 63.22 139.66 72.38 134.16 77.98 131.49 90.92 126.89 103.7 122.97 109.81 121.3 126.5 117.17 129.16 121.64 129.91 125.95 130.92 130.28 132.15 134.65 132.92 138.96 133.05 143.18 132.67 151.54 131.45 155.59 130.61 159.69 129.5 163.75 126.31 171.74 125.62 175.86 123.52 183.99 121.97 187.99 119.72 191.91 116.22 195.56 105.99 194.85 98.57 193.58 91.85 192.04 85.68 190.21 80.19 187.96 75.17 185.59 70.39 182.89 65.86 179.95 61.98 176.64 58.7 172.89 
M 111.65 142.27 111.18 145.83 107.97 152.34 106.12 155.33 102.34 160.54 101.25 165.2 101.25 170.07 101.06 172.96 99.99 176.02 93.3 176 88.39 175.74 83.61 175.35 78.87 174.65 74.38 173.39 70.13 171.74 66.05 169.47 
M 57.06 171.97 52.81 165.64 48.19 157.7 45.57 153.76 44.93 151.56 46.12 149.46 48.49 148.88 50.46 150.34 51.35 152.5 56.62 167.74 58.77 172.85 
M 58.18 173.55 46.79 171.61 40.1 170.1 37.8 169.43 36.64 167.4 37.45 165.21 39.62 164.41 58.49 172.61 
M 79.24 150.29 77.15 147.35 76.12 143.9 76.27 140.29 77.58 136.94 79.91 134.18 83 132.34 86.53 131.6 90.11 132.05 93.35 133.63 95.9 136.18 97.48 139.42 97.93 142.99 97.19 146.52 95.34 149.62 92.59 151.95 89.23 153.26 85.63 153.41 82.18 152.38 79.24 150.29 
M 94.11 137.45 95.38 140.04 95.74 142.9 95.15 145.73 93.67 148.2 91.47 150.07 88.78 151.12 85.9 151.23 83.14 150.41 80.79 148.74 
M 83.19 144.94 82.35 143.77 81.94 142.39 82 140.95 82.53 139.6 83.46 138.5 84.7 137.76 86.11 137.47 87.54 137.65 88.83 138.28 89.85 139.3 90.49 140.59 90.66 142.03 90.37 143.44 89.63 144.68 88.53 145.61 87.19 146.13 85.75 146.19 84.36 145.78 83.19 144.94 
M 83.18 144.92 83.22 144.97 
M 82.94 142.17 86.91 146.14 
M 85.05 141.77 88.72 145.45 
M 85.61 139.83 89.94 144.16 
M 87.07 138.77 90.6 142.31 
M 59.77 174.15 62.28 176.66 
M 49.48 147.13 54.11 151.76 
M 52.71 144.78 56.38 148.45 
M 56.39 142.89 59.8 146.3 
M 60.18 141.1 65.38 146.31 
M 63.9 139.25 69.12 144.47 
M 67.39 137.17 71.91 141.69 
M 70.86 135.07 75.79 140 
M 74.51 133.14 77.91 136.54 
M 78.31 131.37 80.67 133.73 
M 82.42 129.9 84.54 132.02 
M 86.54 128.44 90.17 132.07 
M 90.65 126.99 96.13 132.46 
M 94.87 125.62 98.81 129.57 
M 99.12 124.3 104.53 129.71 
M 103.43 123.04 108.4 128.01 
M 107.81 121.84 111.54 125.58 
M 112.24 120.7 115.22 123.69 
M 116.73 119.61 119.53 122.42 
M 121.22 118.54 125.99 123.3 
M 125.67 117.41 127.69 119.43 
M 119.29 190.32 117.77 188.46 116.52 186.42 115.09 184.52 114.88 183.84 115.02 183.36 115.68 182.64 116.12 182.37 117.95 181.83 
M 80.72 161.81 77.35 161.29 75.66 160.51 
M 85.4 155.84 84.37 154.47 83.75 153.93 82 152.9 80.88 152.51 75.25 151.73 73.87 152.02 
M 94.15 153.98 93.49 155.63 93.24 155.83 93.05 155.75 
M 111.03 147.52 109.6 146.81 
M 116.55 161.78 117.46 161.02 119.77 159.94 120.71 159.79 121.86 159.88 122.16 159.5 122.28 159.02 
M 71.94 182.95 71.77 179.73 70.66 179.19 
M 95.12 192.79 94.93 192.15 95.03 191.44 95.73 189.1 96.12 188.3 96.73 187.65 98.37 186.59 99.86 185.12 
M 55.28 163.92 55.83 164 57.71 163.65 59.28 163.08 60.31 162.46 60.89 161.26 60.9 159.36 
M 66.44 157.87 67.56 157.36 68.16 157.35 70.49 158.21 75.51 159.32 
M 124.7 179.14 124.01 179.46 122.98 180.39 
M 103.75 186.39 104.47 183.8 104.53 182.16 104.3 181.52 102.75 178.93 101.79 176.55 101.29 175.85 
M 67.79 170.47 67.94 171.19 67.74 171.92 67.22 172.27 66.63 172.21 
M 99.08 183.99 100.42 179.52 100.67 177.29 100.51 176.47 99.61 174.36 
M 90.2 184.4 86.81 184.06 
M 105.05 190.66 105.57 190.98 106.3 192.97 
M 120.12 151.23 119.25 152.01 119.1 152.94 120.5 156.34 
M 107.95 174.97 104.86 174.37 104.06 174 102.9 173.12 100.38 172.21 99.29 172.29 98 172.82 
M 70.5 139.48 71.3 139.76 74.49 141.69 74.94 142.76 75.3 146.78 
M 91.25 174.74 90.43 176.35 89.91 179.83 89.61 180.88 89.04 181.67 87.19 182.64 86.44 182.85 
M 129.83 125.46 128.37 124.58 123.97 122.97 
M 84.88 185.65 86.62 184.09 
M 64.72 153.23 61.14 152.73 58.21 152.64 57.27 152.34 56.52 151.76 
M 110.24 147.06 108.05 146.09 107.08 145.88 
M 102.5 140.75 101.38 140.59 98.57 139.33 97.3 139.04 
M 117.95 121.29 119.35 120.73 119.88 120.91 120.22 121.55 119.81 122.38 
M 78.38 131.35 79.41 131.92 82.47 132.66 
M 108.39 187.92 106.67 188.55 106.48 188.54 106.42 188.35 
M 90.18 152.89 90.53 152.97 
M 125.76 175.02 125.04 174.17 122.51 172.73 121.54 171.88 
M 76.35 184.79 78.98 183.89 81.08 182.45 82.13 181.03 82.62 179.41 82.98 178.78 
M 127.11 140.93 124.09 140.15 122.85 140.23 122.39 140.58 121.85 141.56 121.72 142.56 121.9 143.86 
M 58.36 171.87 58.69 171.73 
M 128.19 157.17 127.49 157.17 125.89 156.8 124.03 156.79 121.82 157.11 121.65 157.26 121.61 157.71 
M 74.99 165.34 74.75 166.67 73.73 168.43 71.92 170.86 71.55 173.06 70.94 174.09 
M 82.39 183.24 84.14 181.16 84.66 180.7 85.35 180.42 85.99 180.33 86.62 180.72 86.86 181.68 86.48 182.43 
M 125.56 149.93 123.66 150.71 121.37 152.9 120.58 154.24 120.46 155.49 
M 56.33 162.88 56.99 162.76 57.96 162.13 58.45 161.47 58.76 160.68 58.79 158.39 58.55 157.44 58.16 157.07 
M 73.99 147.83 74 148.75 73.84 149.17 72.52 150.78 71.92 151.96 71.69 153.43 71.98 154.56 
M 83.34 171 83.25 172.1 82.95 172.62 82.67 172.79 81.61 172.48 80.57 171.79 
M 124.39 180.34 123.57 180.53 121.72 181.62 121.22 181.75 
M 98.55 159.3 99.73 160.17 101.13 160.89 
M 104.65 193.24 104.67 192.04 104.98 191.59 
M 120.92 130.29 117.87 134.82 117.42 136.06 117.47 137.62 117.76 138.39 118.24 139.1 119.56 140.46 
M 63.98 178.35 62.81 177.35 
M 98.21 179.63 98.62 178.25 98.8 176.45 98.45 175.43 98.07 173.21 97.21 172.8 
M 61.38 166.31 63.01 165.59 63.8 164.8 63.91 159.64 63.6 157.56 
M 55.93 163.61 56.77 163.53 58.46 162.98 59.57 162.41 60.37 161.53 60.55 160.91 60.51 157.99 59.86 156.27 58.96 155.72 
M 68.78 144.37 69.5 145.3 69.57 146.37 69.17 147.01 68.15 147.21 
M 78.54 160.22 77.64 159.56 76.57 158.23 76.02 155.98 76.16 154.28 
M 94.52 185.91 95.44 183.62 95.4 183.25 95.13 183.14 
M 58.73 172.87 59.29 173.93 
M 54.48 168.17 54.2 168.47 53.8 169.47 54.45 168.96 54.98 168.87 
M 51.2 162.91 49.66 164.07 48.74 165.82 49.92 164.56 51.79 163.95 
M 48.15 157.64 45.13 159.67 43.68 162.18 45.39 160.17 48.86 158.81 
M 45.17 152.39 40.6 155.28 38.62 158.53 40.86 155.77 45.58 153.78 
M 58.37 172.96 59.74 173.39 
M 52.17 169.93 53.03 168.52 54.15 167.74 53.56 168.69 53.45 170.49 
M 46.03 167.17 47.46 164.02 49.45 162.36 47.99 164.19 47.33 167.82 
M 39.87 164.51 41.9 159.52 44.75 156.99 42.43 159.68 41.23 165.03 
M 45.18 171.18 49.55 174.21 52.8 176.22 56.1 177.98 59.53 179.48 63.07 180.75 70.39 182.89 
M 45.39 171.33 45.5 171.27 
M 128.42 120.39 133.86 125.84 
M 130.58 115.13 141.28 125.82 
M 135.59 112.71 146.3 123.42 
M 140.73 110.41 148.21 117.89 
M 145.91 108.16 156.69 118.94 
M 151.2 106.02 157.15 111.96 
M 156.52 103.91 164.36 111.75 
M 161.98 101.93 172.2 112.15 
M 167.47 99.99 177.48 110 
M 172.89 97.97 179.62 104.7 
M 178.31 95.97 185.1 102.76 
M 184.06 94.28 195.03 105.26 
M 189.89 92.68 199.47 102.26 
M 196 91.36 203.77 99.13 
M 202.27 90.19 212.42 100.35 
M 208.66 89.15 217.45 97.94 
M 215.79 88.85 223.7 96.76 
M 223.05 88.67 229.69 95.32 
M 230.38 88.57 237.9 96.09 
M 237.58 88.34 248.42 99.18 
M 245.73 89.06 252.46 95.79 
M 255.15 91.05 262.45 98.34 
M 265.94 94.41 271.95 100.41 
M 277.75 98.78 284.81 105.84 
M 289.77 103.37 299.17 112.77 
M 301.52 107.69 311.09 117.26 
M 314.61 113.35 323.13 121.86 
M 329.28 120.58 338.91 130.22 
M 343.61 127.48 350.38 134.26 
M 357.37 133.81 364.36 140.79 
M 371.14 140.15 379.95 148.95 
M 178.76 94.74 179.24 95.7 
M 179.67 88.19 182.88 94.62 
M 180.27 81.03 180.68 81.86 
M 181.51 83.52 182.34 85.18 
M 184 88.5 186.53 93.55 
M 180.75 73.63 181.16 74.46 
M 185.32 82.77 190.25 92.63 
M 181.99 67.75 184.9 73.57 
M 189.05 81.88 194.01 91.79 
M 184.25 63.9 188.82 73.04 
M 189.65 74.71 191.31 78.03 
M 192.97 81.35 197.8 91.01 
M 189.59 66.23 190.42 67.89 
M 195.41 77.87 201.62 90.3 
M 189.29 57.26 190.12 58.92 
M 199.26 77.2 205.49 89.67 
M 190.84 52 197.07 64.46 
M 202.06 74.44 209.4 89.12 
M 192.47 46.91 200.37 62.7 
M 209.51 80.98 213.48 88.93 
M 195.3 44.2 205.69 64.98 
M 212.34 78.27 214.83 83.26 
M 216.49 86.58 217.59 88.78 
M 197.85 40.93 209.06 63.37 
M 214.05 73.34 219.04 83.31 
M 200.18 37.24 204.75 46.38 
M 206.41 49.7 213.06 63 
M 217.21 71.31 223.03 82.94 
M 202.55 33.61 208.78 46.08 
M 212.1 52.72 218.75 66.02 
M 221.24 71.01 227.06 82.64 
M 229.58 87.68 230.02 88.57 
M 205.29 30.73 205.66 31.47 
M 208.66 37.49 213.24 46.63 
M 215.73 51.61 222.38 64.91 
M 224.04 68.23 231.52 83.19 
M 232.35 84.85 234.15 88.45 
M 215.86 43.51 216.27 44.34 
M 219.6 50.99 222.92 57.64 
M 223.75 59.3 224.58 60.96 
M 226.24 64.28 227.08 65.95 
M 227.91 67.61 238.29 88.37 
M 230.1 63.64 230.52 64.47 
M 232.18 67.79 242.59 88.62 
M 240.54 76.16 245.11 85.3 
M 246.73 88.52 247.09 89.26 
M 246.87 80.44 247.28 81.27 
M 249.77 86.26 251.68 90.08 
M 253.09 84.53 254.34 87.02 
"/></svg>