<svg xmlns="http://www.w3.org/2000/svg" width="520" height="320"><rect x="0" y="0" width="520" height="320" fill="floralwhite"/><rect x="10" y="10" width="500" height="300" stroke="black" stroke-width="1" fill="none"/><path stroke="black" stroke-width="1" fill="none" stroke-linecap="round" stroke-linejoin="round" d="
M 136.46 106.99 147.87 103.99 159.22 102.14 181.94 100.19 204.66 97.36 209.13 96.95 
M 222.13 96.03 238.73 95.54 250.09 95.44 272.81 95.67 284.17 95.41 295.52 95.44 306.88 96.08 318.24 96.97 340.96 99.07 352.32 100.72 397.75 108.52 409.11 111.4 420.47 115.54 421.54 116.46 
M 421.54 157.04 420.47 157.84 409.11 161.16 397.75 163.5 375.03 166.63 363.67 168.44 352.32 170.54 340.96 172.31 329.6 173.24 318.24 173.74 295.52 174.26 272.81 174.1 261.45 174.6 250.09 175.39 238.73 175.98 227.37 176.07 216.02 175.42 210.11 174.68 
M 144.12 113.32 145.16 110.88 145.16 106.35 144.53 104.86 
M 151.23 111.79 150.28 110.11 147.09 107.32 
M 164.32 106.68 160.23 102.05 
M 174.29 102.79 174.29 101.46 173.96 100.83 
M 160.45 102.97 169.55 102.94 
M 163.51 106.27 164.68 106.54 
M 175.31 102.39 177.77 100.53 
M 187.62 100.31 187.31 99.52 
M 195.28 99.73 196.15 98.42 
M 202.02 98.69 201.65 97.73 
M 234.25 108.09 234.6 107.87 237.85 104.3 237.85 102.1 234.6 98.54 230.09 95.72 
M 240.18 163.85 241.71 160.55 241.71 157.73 
M 236.87 103.66 240.04 102.89 244.11 100.93 246.73 98.71 246.73 97.33 244.55 95.49 
M 242.62 120.69 245.48 115.83 245.48 112.94 242.81 108.26 238.65 104.13 236.7 103.16 
M 240.76 159.74 242.7 158.26 243.21 157.48 
M 244.42 155.63 246.17 152.95 248.41 146.95 248.41 143.23 246.17 137.22 242.7 131.92 240 129.85 
M 243.84 163.68 243.64 163.39 241.11 161.57 
M 245.67 116.89 249.26 115.71 253.87 112.67 256.84 109.24 256.84 107.11 253.87 103.68 249.26 100.65 245.79 99.5 
M 247.61 143.9 250.18 142.55 254.53 138 257.34 132.84 257.34 129.65 254.53 124.49 250.18 119.94 246.79 118.17 
M 257.41 162.98 257.86 161.99 257.86 158.57 255.35 153.04 251.47 148.16 248.44 146.26 
M 255.78 107.12 257.95 106.46 261.42 104.36 263.65 101.99 263.65 100.51 261.42 98.14 257.95 96.04 256.23 95.51 
M 252.76 100.19 259.96 99.87 
M 252.49 100.99 259.77 100.83 
M 252.14 102.84 259.09 102.98 
M 256.33 129.73 258.01 128.82 261.68 124.89 264.05 120.43 264.05 117.67 261.68 113.21 258.01 109.28 255.78 108.08 
M 252.66 117.21 259.24 115.29 
M 252.72 118.61 259.34 119.3 
M 252.48 121.02 259.6 122 
M 256.96 160.09 259.11 158.47 262.31 153.63 264.38 148.15 264.38 144.76 262.31 139.28 259.11 134.45 256.6 132.56 
M 253.85 143.19 260.5 142.73 
M 253.84 146.84 260.59 146.27 
M 254.17 148.81 260.29 150.76 
M 258.45 162.92 256.96 161.75 
M 263.38 119.36 266.49 118.19 270.48 115.17 273.06 111.76 273.06 109.65 270.48 106.23 266.49 103.22 263.38 102.04 
M 259.96 109.49 268.42 108.37 
M 260.62 110.55 268.6 111.22 
M 260.79 112.68 268.22 113.16 
M 263.9 145.63 266.97 143.94 270.91 139.59 273.45 134.67 273.45 131.62 270.91 126.7 266.97 122.35 263.9 120.65 
M 260.93 130.51 269.28 128.99 
M 261.15 133.07 268.75 133.67 
M 261.06 135.77 268.75 136.41 
M 273.09 162.34 273.1 158.97 270.71 153.58 266.99 148.83 264.09 146.97 
M 261.05 157.61 269.27 156.39 
M 261.32 160.47 268.57 160.34 
M 272.14 108.05 273.74 107.47 276.73 105.33 278.66 102.9 278.66 101.4 276.73 98.97 273.74 96.83 271.41 95.99 
M 269.28 100.54 274.66 100.27 
M 269.58 101.66 275.29 102.65 
M 268.63 103.89 275.24 103.94 
M 272.54 130.99 274.18 129.98 277.37 126.11 279.42 121.72 279.42 119 277.37 114.61 274.18 110.73 272.14 109.49 
M 272.24 160.24 274.54 158.47 277.6 153.73 279.58 148.36 279.58 145.04 277.6 139.68 274.54 134.94 272.54 133.39 
M 269.79 143.96 276.51 142.89 
M 269.74 146.78 276.37 146.79 
M 269.53 149.41 275.67 151.14 
M 273.07 162.34 272.24 161.7 
M 278.84 119.76 281.62 118.55 285.18 115.46 287.48 111.95 287.48 109.78 285.18 106.27 281.62 103.18 278.84 101.97 
M 275.93 108.62 283.76 108 
M 276.56 110.45 283.41 110.99 
M 276.31 112.75 282.87 113.98 
M 279.59 146.03 282.43 144.33 286.07 139.98 288.42 135.06 288.42 132.02 286.07 127.1 282.43 122.75 279.59 121.06 
M 288.36 162.39 288.36 159.12 286.02 153.75 282.38 149.02 279.53 147.17 
M 285.66 107.01 287.28 106.31 290.01 103.97 291.77 101.32 291.77 99.68 290.01 97.02 288.14 95.42 
M 287.58 131.69 289.42 130.45 292.4 126.42 294.33 121.86 294.33 119.04 292.4 114.49 289.42 110.46 287.1 108.89 
M 287.52 160.18 289.67 158.42 292.58 153.68 294.46 148.31 294.46 144.98 292.58 139.61 289.67 134.87 287.58 133.16 
M 285.38 143.51 291.01 142.48 
M 285.6 147.11 290.86 146.73 
M 285.66 149.67 290.74 151.01 
M 288.33 162.39 287.52 161.76 
M 293.64 118.82 295.79 117.8 299.21 114.57 301.42 110.92 301.42 108.65 299.21 105 295.79 101.77 293.12 100.51 
M 294.36 145.68 297.04 143.95 300.48 139.53 302.69 134.53 302.69 131.43 300.48 126.42 297.04 122 294.36 120.28 
M 291.47 130.32 298.37 128.85 
M 292.11 133.42 298.64 133.47 
M 291.62 135.82 298.93 136.71 
M 303.01 162.37 303.1 158.82 300.83 153.41 297.32 148.63 294.57 146.76 
M 292.39 157.23 298.53 156.54 
M 291.97 160.71 299.34 160.3 
M 299.24 105.36 300.77 104.68 303.54 102.21 305.32 99.41 305.32 97.68 304.2 95.93 
M 301.9 131.16 303.92 129.76 306.84 125.68 308.72 121.07 308.72 118.21 306.84 113.6 303.92 109.52 301.63 107.93 
M 302.29 158.16 303.37 157.17 306.01 152.34 307.72 146.86 307.72 143.47 306.01 138 303.37 133.16 301.9 131.82 
M 299.85 142.36 304.8 140.75 
M 299.32 145.31 304.18 145.45 
M 299.66 147.68 304.58 149.35 
M 303.8 162.36 302.55 161.39 
M 308.05 117.7 310.16 116.74 313.74 113.48 316.05 109.8 316.05 107.52 313.74 103.84 310.16 100.59 307.37 99.32 
M 308.2 144.19 310.93 142.46 314.42 138.02 316.67 132.99 316.67 129.87 314.42 124.84 310.93 120.4 308.2 118.67 
M 305.9 128.68 312.75 127.78 
M 305.13 131.32 312.27 131.64 
M 305.28 134.27 312.5 134.89 
M 317.04 162.24 317.5 161.12 317.5 157.67 315.2 152.11 311.63 147.21 308.84 145.29 
M 305.68 156.93 313.75 154.96 
M 306.11 159.16 313.63 158.93 
M 306.44 161.71 308.8 162.32 
M 313.84 104.27 315.35 103.68 318.63 101.14 320.74 98.25 320.74 97.19 
M 316.44 130.34 318.75 128.82 321.72 124.9 323.63 120.48 323.63 117.73 321.72 113.31 318.75 109.39 316.44 107.87 
M 316.05 153.78 318.96 149.14 320.97 143.54 320.97 140.08 318.96 134.48 315.87 129.55 
M 313.75 138.39 317.02 137.16 
M 311.34 141.4 317.09 142.3 
M 311.05 144.17 317.52 145.72 
M 319.65 162.19 318.07 160.9 
M 322.97 117.93 326.01 116.71 329.91 113.6 332.42 110.07 332.42 107.89 329.91 104.36 326.01 101.24 322.97 100.03 
M 323.28 143.87 326.27 142.15 330.09 137.74 332.55 132.74 332.55 129.65 330.09 124.65 326.27 120.24 323.28 118.51 
M 333.19 161.76 333.45 161.16 333.45 157.69 330.99 152.1 327.16 147.16 324.18 145.23 
M 321.11 156.27 328.76 154.95 
M 321.65 159.53 328.57 159.18 
M 331.52 106.7 334.03 105.96 337.64 103.82 339.96 101.4 339.96 99.89 338.99 98.88 
M 331.67 129.77 333.9 128.4 337.02 124.53 339.04 120.16 339.04 117.45 337.02 113.07 333.9 109.21 331.52 107.74 
M 329.43 116.08 335.75 115 
M 328.97 118.84 335.9 118.63 
M 328.99 120.6 335.1 122.28 
M 332.57 158.69 334.57 157.29 338.1 152.36 340.38 146.78 340.38 143.32 338.1 137.74 334.57 132.81 331.82 130.89 
M 333.64 161.73 333.39 161.53 
M 339.77 119.06 342.87 117.9 346.84 114.94 349.4 111.59 349.4 109.51 346.84 106.15 342.87 103.19 339.77 102.04 
M 336.86 109.29 344.42 108.14 
M 337.18 110.18 344.71 110.34 
M 336.71 112.17 344.65 113.23 
M 339.91 145.1 342.98 143.4 346.91 139.04 349.44 134.11 349.44 131.05 346.91 126.12 342.98 121.76 339.91 120.06 
M 337.25 130.39 344.49 128.9 
M 337.21 132.16 344.6 132.21 
M 337.25 135.31 344.99 135.98 
M 349.95 160.33 349.95 158.92 347.46 153.45 343.62 148.63 340.61 146.74 
M 337.75 157.42 345.15 156.72 
M 337.35 160.71 343.94 161 
M 348.61 108.7 351.15 107.9 354.42 105.86 356.52 103.55 356.52 102.12 355.8 101.33 
M 348.54 130.42 350.34 129.36 353.58 125.55 355.66 121.24 355.66 118.57 353.58 114.26 350.34 110.45 348.48 109.36 
M 345.46 117.51 351.97 116.22 
M 345.7 120.23 351.57 119.59 
M 345.02 122.3 351.68 122.86 
M 349.06 160.07 351.07 158.56 354.28 153.73 356.34 148.26 356.34 144.87 354.28 139.4 351.07 134.57 348.56 132.69 
M 356.06 120.04 358.99 118.89 362.75 115.95 365.17 112.61 365.17 110.55 362.75 107.21 358.99 104.26 356.06 103.12 
M 356.08 145.85 359.01 144.17 362.77 139.87 365.19 134.99 365.19 131.98 362.77 127.1 359.01 122.8 356.08 121.12 
M 364.86 158.45 362.89 154.02 359.2 149.3 356.31 147.45 
M 364.3 108.74 366.22 108.07 369.2 105.95 370.8 103.96 
M 362.03 102.77 365.14 102.96 
M 361.91 104.01 368.08 105.06 
M 364.32 131.49 366.31 130.25 369.34 126.43 371.3 122.1 371.3 119.42 369.34 115.1 366.31 111.28 364.3 110.02 
M 366.53 158.27 369.41 153.76 371.37 148.37 371.37 145.04 369.41 139.65 366.37 134.9 364.32 133.29 
M 371.17 119.89 373.92 118.74 377.45 115.77 379.72 112.41 379.72 110.33 377.45 106.97 374.68 104.64 
M 368.8 109.35 375.14 108.57 
M 368.21 111.88 375.79 111.57 
M 369.02 112.83 375.42 114.13 
M 371.32 145.81 374.09 144.13 377.64 139.81 379.93 134.93 379.93 131.9 377.64 127.02 374.09 122.7 371.32 121.02 
M 379.18 156.98 377.9 154.04 374.33 149.39 371.54 147.58 
M 368.75 157.87 375.54 157.11 
M 378.58 108.13 380.87 107.32 382.82 105.94 
M 379.11 130.24 380.46 129.31 383.26 125.46 385.06 121.09 385.06 118.39 383.26 114.02 380.46 110.17 378.91 109.1 
M 376.44 117.6 381.62 115.9 
M 376.19 119.86 381.84 119.57 
M 375.64 121.73 382.13 122.83 
M 382.45 156.69 384.33 153.61 386.24 148.15 386.24 144.76 384.33 139.3 381.38 134.47 379.11 132.62 
M 376.65 144.21 382.62 142.51 
M 377.11 146.65 382.37 146.71 
M 376.44 149.26 382.66 150.6 
M 385.53 118.81 388.16 117.66 391.53 114.73 393.7 111.4 393.7 109.34 392.56 107.6 
M 385.74 144.95 388.35 143.26 391.7 138.91 393.85 134 393.85 130.95 391.7 126.03 388.35 121.69 385.74 120 
M 393.07 155.7 392.12 153.43 388.78 148.85 386.17 147.06 
M 393.06 128.23 394.02 127.54 396.7 123.69 398.44 119.33 398.44 116.64 396.7 112.28 394.02 108.43 392.96 107.67 
M 397.16 155.31 398.51 152.89 400.26 147.41 400.26 144.02 398.51 138.53 395.8 133.69 393.68 131.8 
M 399.21 116.93 401.73 115.8 404.95 112.92 406.37 110.7 
M 399.64 142.42 401.59 141.09 404.75 136.81 406.78 131.95 406.78 128.95 404.75 124.09 401.59 119.8 399.12 118.13 
M 405.77 154.15 404.61 151.12 401.58 146.6 399.64 145.15 
M 405.74 125.87 407.06 124.94 409.73 121.18 411.45 116.93 411.45 114.29 410.48 111.9 
M 403.8 113.63 408.68 112.37 
M 403.06 115.86 408.86 115.98 
M 402.81 117.51 408.76 119.31 
M 408 153.84 410.29 149.45 411.87 144.13 411.87 140.83 410.29 135.51 407.84 130.81 406.05 129.1 
M 412.17 114.4 414.55 113.38 
M 411.6 139.33 414.17 137.72 417.45 133.59 419.57 128.91 419.57 126.02 417.45 121.34 414.17 117.21 411.6 115.6 
M 418.03 151.97 416.01 146.83 412.88 142.31 411.3 141.17 
M 409.63 150.21 414.2 149.53 
M 418.82 123.93 420.77 122.74 421.54 121.81 
M 415.63 115.23 421.54 117.15 
M 417.3 150.57 419.29 149.03 421.54 145.51 
M 421.54 130.73 419.29 127.21 418.82 126.84 
M 415.45 136.1 420.66 134.69 
M 415.2 137.6 420.1 138.09 
M 414.98 140.63 420.2 141.78 
M 201.65 97.73 201.65 97.73 
M 232.25 172.01 232.25 171.1 230.3 166.56 
M 244.55 95.49 244.55 95.49 
M 242.44 171.77 244.77 171.38 
M 252.39 171.24 255.35 167.52 257.41 162.98 
M 256.23 95.51 256.23 95.51 
M 262.55 170.6 261.46 167.61 258.45 162.92 
M 284.15 170.23 286.02 167.8 288.36 162.39 
M 293.38 170.3 292.51 167.95 289.43 163.22 288.33 162.39 
M 308.79 170.09 308.05 168.06 304.96 163.26 303.8 162.36 
M 312.77 170.01 315.2 166.68 317.04 162.24 
M 328.85 169.51 330.99 166.75 333.19 161.76 
M 321 162.7 329.41 163.17 
M 338.19 163.68 345.31 164.91 
M 365.14 102.96 365.14 102.96 
M 364.42 160.04 366.53 158.27 
M 366.82 164.7 366.36 164.01 364.42 162.53 
M 380.03 162.95 380.2 162.57 380.2 159.31 379.18 156.98 
M 368.88 161.35 375.55 161.47 
M 379.37 160.07 381.38 158.44 382.45 156.69 
M 379.77 162.98 379.37 162.67 
M 394.28 161.2 394.28 158.62 393.07 155.7 
M 410.48 111.9 410.48 111.9 
M 405.92 155.99 408 153.84 
M 414.55 113.38 414.55 113.38 
M 407.87 154 414.31 153.86 
M 420.92 153.26 421.54 153.38 
M 193.3 98.78 193.3 98.78 
M 199.75 97.97 204.81 83.39 206.12 80.21 207.06 76.67 208.58 73.69 211.68 72.25 214.99 71.11 217.71 69.4 222.15 65 225.32 63.75 228.15 63.51 231.32 63.64 238.13 62.48 241.55 62.07 244.63 60.82 246.91 58.56 250.21 57.32 253.48 56.88 261.94 57.2 264.26 56.19 267.47 55.94 271 57.96 272.56 59.87 275.37 60.79 278.26 60.7 282.17 60.99 285.19 60.41 288.93 59.98 292.97 59.84 294.72 57.04 297.48 57.33 299.41 58.34 301.78 61.87 307.77 68.18 313.99 74.31 316.43 76.01 319.89 76.55 322.92 77.93 326.57 81.29 329.74 83.3 330.62 85.91 330.92 88.35 334.14 98.41 
M 329.6 97.97 329.6 97.97 
M 198.62 98.11 200.02 97.5 201.08 95.83 202.22 92.83 
M 203.94 97.45 205.68 96.39 207.07 90.44 208.23 88.13 208.64 85.27 
M 209.38 96.87 211.22 95.77 212.17 93.2 212.79 90.56 214.02 87.56 214.17 84.08 214.11 81.04 214.9 77.96 
M 217.57 94.22 219.78 90.58 220.74 88.28 221.7 85.01 222.24 81.16 222.51 77.39 224.31 72.36 
M 221.61 95.38 222.18 95.12 224.99 90.36 227.08 84.52 227.28 80.5 228.21 76.87 228.42 74.11 
M 225.34 95.88 227.01 94.45 228.33 91.9 228.75 89.77 229.61 86.89 230.08 83.3 232.42 76.32 233.72 73.18 
M 230.7 95.71 232.39 93.97 236.32 86.26 237.51 83.65 238.38 80.74 239.74 78.53 241.17 75.55 242.11 71.48 243.96 67.28 
M 236.06 95.59 238.51 93.32 241.05 87.48 242.83 84.26 243.15 81.74 244.48 79.97 
M 241.43 95.51 243.93 93.35 245.36 90.84 246.65 87.78 248.37 84.45 248.31 80.7 248.99 78.12 250.01 75.54 251.54 68.09 252.47 65.23 255.23 59.02 
M 246.79 95.47 248.95 94.07 254.16 86.36 254.83 83.11 254.59 80.4 254.9 75.43 256.84 71.98 
M 252.16 95.46 254.29 94.17 258.39 86.99 260.19 84.12 261.11 80.97 
M 257.52 95.53 259.27 94.25 262.11 90.1 264.69 83.77 267.95 78.16 269.5 74.92 269.81 71.6 271.22 69.71 
M 262.88 95.59 264.74 94.42 266.06 92.4 271.19 83.34 273.03 80.78 275.46 78.84 276.13 75.17 276.22 71.58 275.3 69.76 276.37 67.07 
M 268.25 95.63 270.92 93.81 272.37 91.36 274.29 84.92 276.25 82.1 278 80.38 279.47 78.07 
M 273.61 95.65 276.39 93.69 277.42 90.66 279.67 86.21 281.5 83.99 282.16 81.7 282.9 75.27 
M 278.97 95.53 280.76 93.35 282.11 91.23 285.96 87.01 286.91 83.98 288 77.56 
M 284.34 95.41 286.12 93.48 287.76 91.11 289.5 88.45 291.18 85.49 292.84 82.37 293.7 79.98 296.59 74.26 296.96 72.12 
M 289.7 95.42 292.48 93.77 293.95 91.32 295.94 88.56 299.16 83.2 300.08 80.47 299.8 77.03 301.8 72.91 302.47 69.32 
M 295.07 95.44 298.15 93.99 299.98 91.71 301.06 89.19 301.65 87.05 302.93 84.67 303.52 82.54 304.68 80.42 
M 300.42 95.71 303.3 94.82 305.12 92.87 306.63 90.21 307.55 87.25 308.51 85.66 
M 305.78 96.01 308.97 95.51 310.24 93 311.33 90.32 313.19 87.46 314.77 84.31 316.65 81.47 318.17 78.36 
M 311.13 96.41 313.99 95.01 316.25 92.17 317.2 89.15 318.94 86.44 
M 316.48 96.83 319.76 95.24 322.13 92.44 324 89.09 326.12 87.32 327.36 84.23 
M 321.82 97.28 326.41 96.23 328.86 94.48 
M 143.6 112.75 183.97 97.63 184.38 98.62 146.26 115.55 
M 146.93 116.2 229.39 90.41 229.72 91.43 149.49 119.18 
M 150.14 120.2 243.32 97.92 243.58 98.96 151.65 123.52 
M 152.15 124.86 248.42 108.83 248.61 109.89 153.26 128.27 
M 153.19 129.86 255.07 120.11 255.18 121.18 153.27 133.43 
M 153.35 135.02 251.34 132.6 251.38 133.67 153.12 138.59 
M 152.84 140.17 248.3 144.54 248.27 145.61 152.16 143.71 
M 152.28 145.21 256.52 157.25 256.41 158.32 152.49 148.84 
M 152.47 150.35 241.1 167.11 240.91 168.17 152.44 153.94 
M 152.18 155.41 225.72 174.92 225.46 175.96 151.07 158.75 
M 150.49 159.97 212.69 181.42 212.36 182.44 148.16 162.93 
M 147.86 164.69 184.45 180.75 184.05 181.75 147.86 168.38 
M 180.1 100.52 189.32 100.25 193.9 99.91 198.43 99.34 202.91 98.53 207.36 97.47 211.76 96.18 220.48 93.2 
M 220.91 94.48 223 97.03 224.14 98.12 225.37 99 226.72 99.66 228.18 100.09 229.73 100.31 233.03 100.38 
M 233.36 101.69 233.07 104.27 233.11 105.47 233.36 106.58 233.83 107.57 234.54 108.45 235.44 109.24 237.64 110.63 
M 237.88 111.96 237.98 114.74 238.22 116.02 238.64 117.18 239.28 118.21 240.14 119.1 241.18 119.88 243.63 121.2 
M 243.78 122.55 241.7 124.4 240.86 125.39 240.23 126.46 239.84 127.61 239.7 128.84 239.76 130.14 240.3 132.87 
M 240.35 134.22 238.4 136.03 237.63 136.99 237.08 138.01 236.77 139.11 236.71 140.27 236.86 141.49 237.57 144.05 
M 237.53 145.4 238.06 148.53 238.5 149.98 239.12 151.3 239.94 152.46 240.98 153.49 242.2 154.38 244.98 155.92 
M 244.84 157.26 241.1 157.84 239.33 158.31 237.68 158.97 236.16 159.86 234.76 160.96 233.47 162.26 231.12 165.22 
M 230.88 166.55 227.3 166.66 225.59 166.9 223.97 167.35 222.46 168.03 221.06 168.95 219.74 170.06 217.29 172.68 
M 216.96 174 213.88 173.84 212.42 173.95 211.06 174.27 209.79 174.82 208.63 175.6 207.56 176.59 205.58 178.96 
M 205.16 180.25 199.68 178.57 196.93 177.94 194.17 177.53 191.4 177.38 188.61 177.48 185.8 177.8 180.17 178.87 
M 184.72 100.43 193.9 99.91 198.43 99.34 202.91 98.53 207.36 97.47 216.13 94.73 
M 221.93 95.8 224.14 98.12 225.37 99 226.72 99.66 228.18 100.09 231.36 100.39 
M 193.58 105.05 195.01 106.56 195.82 107.14 197.64 107.84 199.71 108.04 
M 233.18 103 233.11 105.47 233.36 106.58 233.83 107.57 234.54 108.45 236.5 109.95 
M 200.89 111.24 200.85 112.84 201.01 113.56 201.78 114.78 203.05 115.75 
M 237.89 113.37 238.22 116.02 238.64 117.18 239.28 118.21 240.14 119.1 242.37 120.56 
M 215.27 117.44 215.52 119.48 215.84 120.37 216.99 121.84 218.7 122.96 
M 192.65 121.52 192.82 122.93 193.04 123.55 193.84 124.57 195.03 125.35 
M 242.7 123.46 240.86 125.39 240.23 126.46 239.84 127.61 239.7 128.84 239.99 131.49 
M 218.95 126.18 217.54 127.66 216.76 129.36 216.65 130.3 216.87 132.34 
M 195.21 128.9 194.23 129.93 193.89 130.5 193.61 131.77 193.76 133.18 
M 239.33 135.11 237.63 136.99 237.08 138.01 236.77 139.11 236.71 140.27 237.17 142.76 
M 216.37 136.12 215.07 137.56 214.65 138.34 214.36 140.07 214.72 141.98 
M 193.41 137.12 192.51 138.12 192.21 138.66 192.01 139.87 192.26 141.19 
M 237.76 146.99 238.5 149.98 239.12 151.3 239.94 152.46 240.98 153.49 243.55 155.17 
M 215.17 146.22 215.73 148.51 216.21 149.52 217.64 151.2 219.61 152.5 
M 192.57 145.46 192.97 147.05 193.3 147.75 194.29 148.92 195.66 149.82 
M 242.95 157.51 239.33 158.31 237.68 158.97 236.16 159.86 234.76 160.96 232.27 163.7 
M 207.24 154.18 204.89 154.7 202.83 155.7 201.92 156.42 200.3 158.2 
M 229.07 166.57 225.59 166.9 223.97 167.35 222.46 168.03 221.06 168.95 218.5 171.33 
M 198.22 161.57 195.96 161.79 194.91 162.08 193.01 163.11 191.35 164.67 
M 215.4 173.87 212.42 173.95 211.06 174.27 209.79 174.82 208.63 175.6 206.55 177.74 
M 189.34 167.82 187.4 167.87 186.51 168.07 184.94 168.94 183.58 170.33 
M 202.43 179.36 196.93 177.94 194.17 177.53 191.4 177.38 188.61 177.48 182.99 178.29 
M 227.37 176.07 230.72 181.54 233.49 184.47 237.42 186.77 242.42 190.83 268.75 232.18 271.83 238.51 271.18 241.26 267.45 242.04 264.37 243.47 262.08 245.72 259.93 248.13 258.05 250.8 255.28 251.89 252.68 252.6 249.35 252.58 245.66 251.31 240.53 250.77 236.74 249.28 233.18 249.77 232.39 252.97 229.27 254.05 212.95 239.27 201.71 228.48 199.41 225.96 195.71 220.98 194.61 219.24 191.14 214.75 178.99 186.86 176.34 180.36 175.16 176.94 
M 222.02 175.76 224.85 179.73 226.62 182.85 229.36 185.98 231.9 188.37 235.28 190.49 237.39 192.37 239.42 194.99 244.71 200.37 248.58 203.25 
M 216.66 175.46 223.72 185.39 226.65 188.04 229.08 190.93 231.93 193.68 234.01 196.13 235.5 199.07 238.1 201.64 241.2 203.99 243.39 206.65 245.22 209.81 249.52 215 251.49 217.83 
M 211.34 174.83 214.29 178.63 218.31 185.43 220.31 188.37 222.62 190.86 227.11 196.52 233.43 206.3 235.5 208.19 236.95 211.55 242.36 219 245.05 221.24 248.65 225.51 249.95 228.91 
M 207.72 176.45 208.95 178.11 210.76 181.65 214.6 187.76 216.89 190.66 222.65 199.53 225.93 205.32 228.48 208.69 230.42 214.62 231.72 217.75 234.6 220.44 237.35 222.35 240.07 223.41 244.44 229.08 245.58 232.61 
M 205.15 180.24 208.9 186.75 211.2 188.95 213.63 191.98 216.66 197.76 218.23 201.17 218.96 205.07 223.55 210.06 224.91 214.21 226.57 217.33 227.86 220.39 231.71 226.29 234.55 228.62 
M 199.63 178.55 203.31 185.61 207.04 190.78 209.53 193.55 211.37 197.64 212.62 199.94 213.01 202.8 214.46 206.24 216.49 210.02 218.64 213.43 219.49 216.9 220.67 220.27 
M 193.64 177.5 198.76 188.46 200.6 191.18 202.02 193.99 203.8 196.63 204.84 199.91 206.29 202.63 208.08 205.21 209.43 212.23 211.07 214.77 212.19 218.2 216.51 224.52 218.36 230.55 219.04 234.91 221.43 239.55 223.1 242.28 
M 189.07 177.46 191.18 184.35 192.56 187.75 196 194.19 200.25 199.05 201.64 202.28 203.59 209.08 204.39 212.38 205.09 215.51 205.14 217.56 206.53 221.33 210.72 224.1 213.5 226.97 212.51 230.07 212.07 233.26 212.86 237.29 
M 184.24 178.08 184.68 180.17 186.16 183.56 187.23 187.5 187.66 191.24 188.36 194.23 190.42 197.41 191.93 200.57 194.26 203.74 195.57 206.26 196.09 209.38 197.28 213.11 198.93 216.7 200.41 219.42 200.99 223.96 
M 179.11 178.46 180.24 182.72 181.77 186.58 182.82 190.18 184.35 193.76 184.43 197.1 
M 375.03 166.63 380.05 173.24 382.43 177.15 386.05 180.42 382.08 180.72 379.1 182.18 376.61 184.15 374.28 186.31 371.09 187.37 367.82 188.22 363.83 188.61 361.67 190.95 358.84 192.66 352.94 195.52 351.42 198.41 348.06 203.89 347.9 208.2 345.54 210.35 341.69 215.56 339.24 217.63 337.6 220.5 336.2 221.61 335.33 226.51 333.99 224.45 331.55 221.65 329.83 218.99 327.99 215.73 327 212.62 325.86 210.04 324.05 208.21 322.46 204.86 320.87 200.92 318.98 197.84 316.51 191.14 313.25 185.34 312.02 182.09 306.88 174.03 
M 369.73 167.47 374.82 172.84 377.46 176.57 
M 364.44 168.32 371.52 177.43 374.21 180.2 
M 359.16 169.27 365.27 178.4 
M 353.88 170.25 357.3 175.57 359.56 180.1 
M 348.59 171.12 354.76 180.43 
M 343.29 171.95 346.86 177.34 349.7 180.17 351.93 182.68 353.45 186.62 354.96 189.49 
M 337.96 172.56 341.17 177.67 343.72 180.26 345.99 182.96 348.15 186.4 349.35 188.66 
M 332.62 173 335.66 177.64 338.87 180.5 341.68 183.63 343.64 187.42 
M 327.26 173.35 330.2 177.96 334.62 185.37 336.68 187.82 
M 321.9 173.58 324.73 178.3 327.4 182.34 330.63 189.47 332.24 192.56 
M 316.54 173.78 325.53 189.6 328.95 196.4 330.75 198.42 332.44 201.62 334.6 204.47 
M 311.18 173.92 315.46 182.59 317.69 185.88 319.84 188.54 320.88 191.36 322.51 195.03 324.64 197.74 326.38 201.29 327.36 204.62 329.15 207.86 330.48 209.91 331.59 212.75 
M 420.47 115.54 423.83 114.95 430.37 111.72 439.44 107.97 441.92 105.79 444.64 104.7 447.11 102.34 450.11 99.92 453.03 97.99 456.52 96.74 461.8 93.76 464.29 91.83 467.82 90.96 471.6 88.76 473.36 87.55 476.18 86.32 478.16 85.18 480.5 83.56 485.06 79.13 488 75.12 474.39 95.32 472.44 97.72 471.18 100.82 469.77 103.65 469.05 106.78 467.21 109.11 465.79 111.98 463.74 118.38 463.6 121.88 464.84 125.94 465.25 129.13 464.38 131.58 462.7 133.73 462.37 136.81 462.47 140.19 461.26 146.61 460.23 149.52 459.66 152.11 460.71 155.19 462.44 158.71 462.71 161.05 464.03 163.81 466.6 167.29 467.72 170.34 468.42 173.26 470.65 180.05 471.07 183.07 471.24 185.9 470.01 187.79 490 205.88 486.73 204.03 482.86 202.63 479.52 202.34 477.27 200.37 475.25 198.1 472.57 195.94 469.5 192.82 466.34 190.86 463.04 189.17 460.41 186.98 458.73 184.43 455.68 182.59 452.45 181.21 449.67 178.94 443.61 174.8 441.48 172.42 437 168.21 433.71 166.2 427.23 162.86 424.34 161.01 420.47 157.84 
M 424.13 117.29 427.4 116.37 430.54 114.85 434.26 113.39 437.86 112.4 440.4 110.95 443.33 110.01 446.63 108.72 451.82 104.99 454.88 103.23 457.54 101.42 
M 430.93 117.59 433.92 116.29 437.86 115.36 441.19 113.64 443.95 113.11 447.04 111.72 450.02 109.63 453.02 106.55 455.3 105.45 458 104.5 460.83 102.64 463.99 102.12 
M 428.1 121.28 431.31 120.49 437.56 117.92 440.96 116.06 444.27 116.02 446.52 115.71 
M 420.47 124 424.59 123.96 428.52 123.46 435.11 122.25 438.22 120.61 441.27 119.85 446.79 118.86 449.94 117.23 454.3 115.65 
M 420.47 126.11 428.31 125.83 432.36 125.03 435.83 124.95 439.12 124.34 442.26 124.44 444.86 123.54 
M 427.99 127.77 436.15 127.43 439.52 127.13 443.19 127.51 446.22 128.2 449.58 127.48 
M 420.47 130.34 424.63 130.81 428.31 130.88 432.6 130.51 436.1 130.44 440.27 129.95 443.16 131.01 446.12 131.62 450.24 131.78 455.03 130.76 458.8 130.55 
M 429.05 133.52 433.16 133.81 436.44 133.8 440.07 133 447.03 134.86 454.83 134.87 
M 424.42 135.97 428.84 136.32 433.34 136.91 444.06 136.51 451.16 137.05 454.63 137.01 459 138.55 
M 433.62 139.53 437.53 140.1 440.88 139.66 444.84 139.54 449.14 139.1 
M 433.3 141.91 437.26 142.17 440.67 143.29 
M 420.47 140.92 424.76 143.2 432.72 143.75 437.05 144.74 440.03 146.1 
M 432.79 146.67 436.69 147.16 439.76 148.65 443.11 149.84 445.39 150.9 449.36 151.73 451.92 151.76 456.78 154.38 
M 424.97 147.63 435.89 150.31 442.55 152.82 
M 432.32 152.41 436.28 153.16 438.78 154.7 441 157.1 448.27 159.1 452.02 159.93 456.59 161.77 461.34 161.67 
M 424.87 152.19 428.6 153.28 435.08 156.11 441.13 159.56 445.19 160.89 450.77 164.18 
M 420.47 151.49 424.9 154.36 428.33 155.7 431.3 157.48 433.95 158.56 441.26 162.34 447.75 166.53 
M 420.47 153.61 424.78 156.5 430.84 159.95 436.95 162.72 439.77 164.75 446.82 168.84 454.03 175.04 457.71 177.04 461.21 177.63 464.13 178.61 468.94 178.46 
M 420.47 155.72 424.69 158.79 427.66 160.72 430.66 162.41 437.04 165.46 442.3 169.33 444.93 171.76 447.22 173.55 450.38 175.68 453.57 178.33 456.7 180.53 459.19 180.84 464.99 185.55 468.84 186.44 
M 406.97 159.02 402.49 159.61 400.7 160.76 399.47 162.56 398.02 164.14 395.81 164.37 392.09 162.47 390.03 162.19 384.5 163.25 386.39 165.14 
M 45.11 122.9 46.88 121.97 49.56 120.93 52.88 120.26 57.06 119.81 69.01 118.03 75.1 116.81 87.84 113.5 94.97 112.15 117.3 108.59 136.46 107 140.74 109.21 142.82 111.88 145.18 114.5 147.81 117.06 149.91 119.72 151.28 122.54 153.27 128.31 153.1 131.44 153.36 134.48 153.31 137.57 152.11 144 152.53 147 152.57 153.17 152.02 156.37 150.68 159.73 147.86 163.32 132.46 162.68 120.83 161.54 110.98 160.16 102.14 158.41 94.12 156.47 86.76 154.36 79.93 151.77 73.48 148.97 63.16 143.16 
M 56.1 139.05 54.84 138.29 52.16 136.27 50.43 134.54 
M 123.84 120.04 124.36 122.51 122.73 127.41 121.5 129.67 119.9 131.93 118.6 134.11 118.74 136.01 119.17 137.96 121.03 142.05 121.79 144.55 121.63 147.6 111.29 147.58 103.48 147.25 96.54 146.74 89.8 145.93 83.28 144.8 77.1 143.29 71.27 141.11 
M 61.19 142.77 56.21 139.14 51.97 135.63 41.04 127.51 40.12 124.97 41.49 122.59 44.1 122.16 46.28 123.77 51.96 129.71 58.99 138.07 63.35 142.99 
M 62.91 143.88 54.69 144.95 47.01 146.22 33.45 147.96 30.87 147 29.99 144.48 31.29 142.06 33.96 141.33 44.57 142.08 49.9 142.19 62.95 142.85 
M 79.99 130.71 78.05 127.99 77.1 124.79 77.24 121.46 78.45 118.35 80.61 115.8 82.07 114.93 
M 87.73 113.52 90.06 113.82 93.06 115.28 95.42 117.64 96.89 120.64 97.3 123.96 96.62 127.23 94.91 130.09 92.36 132.25 89.25 133.47 85.91 133.61 82.71 132.65 79.99 130.71 
M 93.77 118.82 94.94 121.22 95.28 123.87 94.73 126.49 93.36 128.78 91.32 130.51 88.83 131.48 86.16 131.59 83.6 130.83 81.43 129.28 
M 83.49 125.6 82.72 124.52 82.33 123.24 82.39 121.9 82.88 120.66 83.74 119.64 84.89 118.95 86.19 118.68 87.52 118.84 88.72 119.43 89.66 120.38 90.25 121.58 90.42 122.9 90.14 124.21 89.46 125.36 88.44 126.22 87.19 126.71 85.86 126.76 84.58 126.38 83.49 125.6 
M 82.64 124.17 84.97 126.49 
M 82.77 121.4 87.83 126.46 
M 83.88 119.61 89.52 125.25 
M 86.07 118.91 90.35 123.19 
M 47.03 121.91 53.28 128.16 
M 52 120.44 57 125.44 
M 57.71 119.72 62.74 124.75 
M 63.33 118.89 67.6 123.17 
M 68.91 118.04 73.03 122.16 
M 74.28 116.97 77.67 120.36 
M 79.38 115.64 80.12 116.38 
M 89.75 113.13 90.79 114.17 
M 95.17 112.12 101.08 118.03 
M 100.78 111.29 105.11 115.62 
M 106.33 110.4 111.06 115.13 
M 111.85 109.48 118.09 115.73 
M 117.39 108.58 123.15 114.35 
M 123.26 108.02 127.06 111.81 
M 129.23 107.55 134.95 113.27 
M 135.2 107.09 141.44 113.33 
M 142.66 157.5 140.82 157.82 139.77 158.31 139.29 158.94 139.01 160.42 138.47 161.14 
M 64.16 143.74 66.23 142.8 66.75 142.2 67.64 140.54 67.85 139.49 67.85 138.32 
M 152.47 132.02 152.65 130.86 152.36 129.2 150.25 122.53 
M 126.15 149.02 126.77 149.45 127.87 149.8 130.1 149.9 131.29 149.3 131.75 148.67 132.13 147.74 
M 60.77 139.58 61.46 139.7 62.05 139.35 62.27 138.77 61.91 138.35 
M 147.53 151.88 145.43 151.87 143.29 151.37 140.39 151.07 138.11 151.02 137.05 150.77 
M 141.58 123.48 140.5 123.71 139.36 124.57 135.86 129.38 
M 131.61 146.14 132.69 144.47 134.01 143.76 134.91 143.74 136.95 144.21 137.25 144.37 137.38 144.78 
M 148.06 141.4 145.44 141.14 144.51 141.26 142.76 142.62 141.28 144.1 
M 137.94 130.57 136.72 131.66 135.97 132.8 135.96 133.78 136.91 135.42 
M 136.09 107.96 135.66 108.57 135.47 109.24 135.53 109.81 136.12 110.42 137.27 110.9 137.58 111.23 
M 70.83 140.26 70.87 138.52 71.32 134.99 71.84 132.93 72.39 131.48 
M 79.39 115.64 80.3 116.16 
M 116.12 129.9 117.58 130.35 121.49 130.57 123.7 131.42 124.83 131.53 
M 88.29 136.77 86.43 135.93 85.22 135.1 84.67 134.2 84.37 133.15 
M 114.1 160.6 113.68 157.45 113.37 156.54 112.07 154.52 111.78 153.1 
M 89.59 135.17 85.76 133.91 85.1 133.36 
M 79.15 129.54 79.26 130.88 79.92 132.2 
M 150.35 140.58 149.63 140.91 147.8 141.03 144.41 140.5 143.15 141.05 
M 118.71 139.21 118.6 136.32 118.84 135.14 119.15 134.56 119.57 134.02 121.13 132.99 122.66 132.76 
M 126.64 134.58 126.87 133.46 128.08 131.23 128.47 130.94 128.84 131.07 
M 146.05 123.37 144.08 122.79 140.74 122.84 139.1 123.93 138.11 125.38 
M 63.92 143.6 65.13 143.15 
M 109.18 119.09 107.31 118.61 106.79 118.31 104.85 115.64 
M 67.57 145.67 69.03 145.42 69.55 145.18 70.27 144.59 70.7 144.01 70.81 143.27 70.45 140.84 70.39 138.9 
M 112.88 121.19 110.8 121.98 108.9 122.97 107.41 124.2 107.08 125.14 107.14 127.59 106.95 128.87 
M 50.99 134.95 50.81 134.92 
M 129.13 115.85 134.19 118.63 135.9 119.94 136.38 120.92 136.35 122.13 
M 109.55 112.66 108.63 112.79 106.68 112.62 104.83 112.02 104.05 112.24 103.63 112.73 
M 128.78 107.59 124.33 109.76 122.09 112.79 119.76 114.64 
M 107.43 145.77 106.61 146.52 105.99 147.62 105.36 150.49 104.72 152 103.06 153.95 
M 119.51 126.68 120.45 126.35 122.58 125.93 125 124.92 125.42 124.98 125.99 125.65 
M 122.2 120.2 117.73 120.53 116.64 121.17 115.87 121.96 115.11 123.29 115.14 123.79 
M 114.14 151.24 111.88 151.05 108.79 151.96 105.61 152.65 
M 130.99 129.98 131.16 130.63 131.55 131.21 134.65 133.19 136.5 134.86 
M 119.05 139.16 119.01 136.19 119.31 134.98 120.14 133.93 121.13 133.16 121.9 132.82 122.92 132.75 
M 123.25 153.59 122.19 153.19 119.53 152.59 117.24 152.67 115.58 152.15 113.7 152.01 112.01 151.58 111.29 151.65 109.56 152.34 
M 132.61 139.52 134.5 138.63 136.08 138.63 137.17 138.26 137.57 137.8 137.76 136.56 
M 112.76 116.33 111.59 115.86 108.67 113.97 106.35 113.08 105.06 112.15 104.57 112.11 104.06 112.28 
M 127.41 119.98 127.39 120.68 127.95 121.9 128.06 122.52 127.81 125.09 
M 108.18 153.41 107.82 152.74 107.12 152.47 106.33 152.49 104.84 152.89 
M 75.42 134.98 77.24 135.7 82.86 136.88 83.77 136.95 
M 113.16 115.4 111.99 114.96 109.99 113.84 106.39 112.89 105.04 112.11 104.03 112.28 
M 55.99 131.18 56.77 131.01 57.14 130.67 56.8 128.27 
M 64.79 144.11 65.81 143.6 66.83 142.67 67.77 141.12 68.1 140.17 
M 68.41 143.51 69.34 142.33 69.75 140.52 69.57 136.05 68.97 134.22 68.47 133.32 67.71 132.49 66.75 131.73 65.91 131.39 65.13 131.31 
M 111.62 109.52 109.1 111.74 108.24 112.02 106.34 112.21 104.87 111.93 
M 68.74 131.46 66.62 130.46 65.72 130.32 63.54 130.33 62.86 130.43 62.45 130.67 61.99 131.23 61.81 131.75 
M 115.15 122.36 114.49 123.09 114.16 123.75 114.45 125.79 115.1 126.87 117.48 128.61 
M 132.78 149.98 133.96 147.04 134.93 146.2 135.97 145.72 136.57 145.9 136.64 146.16 136.5 146.34 
M 75.95 125.31 74.89 125.37 72.85 124.34 70.17 123.43 68.87 123.64 67.03 124.58 66.09 124.81 65.23 124.83 
M 59.37 133.56 61.07 135.66 61.36 137.62 
M 87.99 154.71 88.05 153.76 87.84 153.24 
M 59.15 121.17 55.63 119.97 
M 89.44 148.45 87 149.11 86.37 149.57 85.73 150.45 
M 110.28 142.83 109.87 144.01 109.06 145.08 107.13 146.8 106.34 147.96 106.04 149.47 105.26 151.34 104.7 152.33 104.01 152.98 
M 49.63 122.68 48.28 123.14 46.75 124.23 
M 139.74 121.37 138.34 120.3 137.86 120.24 137.5 120.41 
M 137.88 125.84 135.82 128.6 135.18 129.86 135.58 133.11 
M 94.22 112.71 96.09 112.66 96.92 112.83 99.02 113.78 102.04 115.49 103.62 115.94 104.4 115.91 
M 102.8 140.63 104.73 138.78 105.67 138.29 106.37 138.12 107.11 138.44 107.95 139.24 108.5 140.28 108.58 140.85 
M 93.98 144.47 93.38 145.41 93.17 146.22 93.36 146.85 94.07 147.79 94.61 149.4 
M 100.38 143.55 102.3 143.8 103.52 143.63 104.09 143.14 104.96 141.15 
M 138.22 137.69 137.79 136.15 137.14 135.55 
M 139.43 122.16 138.32 122.25 138.09 122.54 
M 145.21 154.18 144.66 153.69 143.73 152.13 143.34 151.86 140.95 151.26 137.46 150.9 
M 98.91 153.67 98.27 154.4 96.75 157.1 
M 106.5 137.85 107.21 138.31 108.06 139.19 108.61 140.29 108.68 140.87 108.49 141.5 108.06 142.13 107.09 142.84 106.09 143.09 
M 124.86 141.09 125.27 140.14 126.92 138.22 127.9 136.74 128.93 136.11 
M 70.3 131.83 69.08 130.89 67.12 130.17 66.22 130 62.07 129.96 
M 96.15 114.85 97.39 114.55 98.11 114.55 99.64 114.93 102.97 116.45 104.18 116.55 104.73 116.17 
M 97.97 123.83 98.54 124.59 98.71 125.11 98.74 128.75 99.14 129.18 
M 60.84 124.37 58.41 121.56 56.26 120.64 54.79 120.22 
M 68.31 123.78 66.41 124.71 64.7 124.77 63.84 124.61 61.3 123.42 59.16 121.48 58.31 121.08 
M 62.24 137.85 61.76 138.3 
M 140.68 109.18 140.51 109.52 
M 124.2 140.43 125.42 138.64 125.86 137.65 126.27 136.08 126.52 134 126.85 133.14 
M 79.52 130.05 80.02 131.78 81.34 133.46 
M 139.16 108.84 138.07 109.5 
M 109.31 136.28 112.71 139.04 112.7 139.86 112.15 141.59 
M 112.88 133.34 112.68 134.3 112.99 135.29 113.6 135.63 114.98 135.45 
M 128.15 121.81 128.26 122.79 127.95 125.03 127.4 126.68 
M 80.4 131 80.51 131.4 
M 113.98 116.01 111.62 115.19 109.66 113.96 106.26 112.87 105.22 112.19 104.73 112.08 104.21 112.2 
M 115.44 123.66 116.57 124.46 118.53 125.06 119.76 125.09 121.01 124.86 122.16 125 
M 53.04 130.86 54.13 130.37 55.48 129.17 55.87 128.21 56 127.04 56.37 125.77 
M 116.06 124.4 117.92 125.06 119.09 125.2 121.04 124.9 122.61 125.03 123.26 124.81 
M 68.98 123.9 67.02 124.76 66.06 124.93 64.24 124.83 61.62 123.69 60.58 122.91 59.4 121.72 58.55 121.19 
M 107.84 153.21 107.37 152.66 106.78 152.49 105.87 152.59 104.62 152.99 
M 115.1 150.89 112.73 150.72 111.57 150.81 105.62 152.64 
M 125.5 125.07 126.19 125.98 127.28 128.07 
M 58.28 127.04 58.51 125.6 58.49 124.25 57.79 122.68 56.19 121.34 55.28 120.9 54.3 120.71 
M 95.72 134.11 93.54 131.25 
M 76.68 128.01 76.35 128.45 75.89 128.5 70.58 126.51 68.31 126.05 
M 65.81 139.12 66 138.44 66.09 136.4 65.98 135.24 65.34 133.44 64.85 133.01 64 132.79 63.41 132.97 62.78 133.74 
M 134.79 148.93 135.8 148.3 135.97 148.42 136.01 148.79 
M 144.43 145.2 140.53 146 139.82 146.37 138.1 147.75 136.12 148.9 
M 144.15 113.87 141.64 113.17 138.97 112.14 138.54 112.19 138.21 112.44 137.44 113.67 
M 123.35 139.74 124 138.05 124.3 134.94 124.77 133.89 125.72 132.62 125.98 131.92 
M 94.7 116.92 97.21 116.23 99.09 116.2 100.07 116.44 102.84 117.59 
M 134.23 117.2 135.57 118.32 136.19 119.05 136.76 120.23 136.93 121.14 
M 63.18 143.15 64.05 143.93 
M 58.18 140.62 58.24 141.28 58.6 140.93 
M 53.71 137.09 53.3 137.92 53.22 139.35 53.78 138.35 54.6 137.82 
M 49.4 133.81 48.45 135.37 48.21 137.42 48.92 135.8 50.5 134.59 
M 45.08 130.63 43.59 132.83 43.19 135.48 44.07 133.26 46.2 131.46 
M 40.93 127.22 38.73 130.29 38.18 133.55 39.21 130.72 41.98 128.24 
M 62.94 143.23 64.33 143.16 
M 57.8 142.6 58.48 141.87 58.82 142.65 
M 52.71 142.36 52.94 141.5 53.7 140.53 53.58 141.47 53.96 142.42 
M 47.69 142.2 47.95 140.64 48.91 139.19 48.59 140.61 49.03 142.2 
M 42.71 141.96 42.95 139.78 44.13 137.85 43.59 139.74 44.1 142.05 
M 37.75 141.54 37.95 138.91 39.35 136.5 38.6 138.88 39.12 141.68 
M 32.75 141.66 32.96 138.05 34.57 135.16 33.6 138.01 34.15 141.34 
M 40.14 147.06 44.03 148.33 49.14 149.73 54.2 150.8 59.25 151.53 64.3 151.9 69.44 152.01 79.93 151.77 
M 67.71 151.58 67.03 150.4 67.15 149.84 
M 74.32 150.92 74.29 151.27 
M 51.47 150.1 54.99 148.01 
M 48.03 149.43 50.7 149.33 51.7 149.1 54.28 147.91 
M 138.77 106.38 146.16 113.77 
M 145.57 104.59 152.33 111.36 
M 152.75 103.19 158.5 108.95 
M 160.19 102.05 164.68 106.54 
M 168.06 101.33 170.85 104.13 
M 175.98 100.67 177.02 101.72 
M 183.84 99.96 184.32 100.43 
M 191.47 99 192.48 100.01 
M 199.1 98.05 200.09 99.04 
M 206.8 97.16 207.15 97.51 
M 222.8 95.99 226.22 99.42 
M 231.08 95.7 238.96 103.58 
M 239.5 95.53 246.51 102.54 
M 248.01 95.46 258.49 105.94 
M 256.65 95.52 264.13 103 
M 265.32 95.61 276.85 107.13 
M 273.94 95.64 285.53 107.24 
M 282.33 95.45 291.94 105.06 
M 290.89 95.43 298.06 102.59 
M 299.72 95.67 306.43 102.39 
M 308.86 96.23 320.07 107.44 
M 318.17 96.96 325.04 103.83 
M 327.58 97.79 335.91 106.11 
M 337.07 98.7 345.69 107.31 
M 346.89 99.93 357.95 110.99 
M 357.1 101.55 363.65 108.11 
M 367.5 103.38 374.79 110.66 
M 377.85 105.15 386 113.29 
M 388.1 106.81 396.16 114.87 
M 398.61 108.74 409.42 119.55 
M 410.28 111.82 419.8 121.35 
M 204.35 91.76 207.05 97.15 
M 208.25 89.91 211.44 96.27 
M 210.21 84.17 211.17 86.09 
M 212.13 88.01 215.58 94.91 
M 214.85 83.79 219.69 93.48 
M 220.78 85.99 225.71 95.86 
M 222.68 80.15 223.64 82.07 
M 224.6 83.99 229.4 93.58 
M 230.17 95.13 230.47 95.72 
M 228.84 82.8 231.71 88.55 
M 232.67 90.47 235.24 95.61 
M 224.33 64.14 225.77 67.01 
M 238.25 91.96 240.03 95.53 
M 228.86 63.54 230.3 66.42 
M 231.26 68.34 233.18 72.18 
M 233.54 63.24 237.86 71.87 
M 238 62.5 240.4 67.3 
M 241.36 69.22 242.32 71.14 
M 242.43 61.71 242.91 62.67 
M 243.87 64.59 244.83 66.51 
M 254.25 75.69 257.13 81.44 
M 249.94 57.42 252.34 62.22 
M 255.22 67.97 260.98 79.49 
M 261.94 81.41 266.73 91 
M 254.99 57.87 255.95 59.79 
M 256.91 61.71 259.79 67.47 
M 260.75 69.38 269.39 86.66 
M 261.82 61.87 262.78 63.79 
M 263.74 65.71 264.7 67.63 
M 265.66 69.55 274.3 86.82 
M 275.26 88.74 277.18 92.58 
M 265.33 59.23 280.68 89.93 
M 268.93 56.78 282.85 84.61 
M 275.76 60.78 282.96 75.17 
M 284.88 79.01 286.79 82.85 
M 280.64 60.88 284.95 69.51 
M 285.91 71.43 286.87 73.35 
M 287.83 75.27 288.79 77.19 
M 285.23 60.41 287.63 65.21 
M 289.55 69.05 290.51 70.96 
M 302.25 94.45 302.95 95.86 
M 305.66 91.62 306.62 93.54 
M 307.52 95.34 307.94 96.17 
M 298.2 67.03 303.95 78.54 
M 304.91 80.46 305.87 82.38 
M 310.67 91.98 311.63 93.9 
M 312.53 95.71 312.96 96.55 
M 300.82 62.62 312.34 85.65 
M 317.32 95.62 317.99 96.96 
M 309.08 69.48 317.23 85.79 
M 321.07 93.47 323.03 97.39 
M 317.23 76.13 320.59 82.85 
M 327.46 96.58 328.08 97.83 
"/></svg>