<svg xmlns="http://www.w3.org/2000/svg" width="520" height="320"><rect x="0" y="0" width="520" height="320" fill="floralwhite"/><rect x="10" y="10" width="500" height="300" stroke="black" stroke-width="1" fill="none"/><path stroke="black" stroke-width="1" fill="none" stroke-linecap="round" stroke-linejoin="round" d="
M 208.76 118.86 218.43 116.24 228.06 113.89 237.69 111.74 256.96 107.81 266.6 106.22 276.23 105.05 285.87 104.17 314.77 103.74 324.41 104.5 334.04 106.02 343.67 107.88 372.58 114.02 382.21 116.3 411.12 124.23 440.97 131.93 
M 440.97 200.42 420.75 206.82 411.12 209.74 401.48 212.41 391.85 214.94 382.21 217.14 362.94 221.21 353.31 222.7 334.04 225.18 314.77 226.22 305.14 226.04 285.87 226.19 276.23 225.35 266.6 223.99 237.69 219.11 228.06 217.3 218.43 215 199.2 209.53 
M 440.97 151.31 426.38 148.96 
M 422.64 148.34 412.87 147.04 402.88 146.05 
M 398.93 145.69 385.54 144.59 364.62 143.7 
M 360.95 143.39 357.29 142.94 
M 353.64 142.41 344.5 141.18 330.65 139.69 324.01 139.24 318.87 139.39 
M 315.33 139.57 301.06 140.6 
M 293.91 141.13 290.2 141.51 
M 286.44 141.89 282.66 142.2 
M 275.16 142.44 267.93 142.13 
M 264.33 141.96 258.79 141.84 252.92 142.19 
M 241.24 143.31 233.57 144.01 
M 229.72 144.27 225.79 144.55 
M 221.8 144.9 217.79 145.3 
M 210.8 197.95 213.84 201.56 
M 214.89 195.11 217.44 198.16 
M 223.9 205.13 227.04 208.33 
M 227.32 194.92 230.82 198.68 
M 237.44 205.68 240.32 208.95 
M 240.76 202.59 243.7 206.05 
M 215.19 159.27 217.93 163.54 
M 240.82 195.48 244.12 199.28 
M 247.09 202.92 249.8 206.39 
M 252.4 209.65 255.07 212.67 
M 217.61 152.59 221.5 159.04 224.61 163.88 
M 245.54 192.98 247.73 195.67 
M 250.71 199.5 253.43 203.15 
M 213.95 135.78 220.47 146.13 226.74 157.03 
M 265.38 209.97 268.26 213.02 
M 271.19 215.85 273.8 218.19 
M 209.13 118.76 214.08 126.21 222.04 137.73 224.62 141.79 231.9 155.03 235.87 161.58 
M 258.2 191.61 263.73 199.61 
M 214.1 117.41 225.96 133.6 228.62 137.61 231.1 141.84 238.24 155.13 240.81 159.49 244.45 164.87 
M 267.36 195.6 271.52 201.51 274.42 205.27 278.71 210.35 
M 219.15 116.06 226.71 125.78 232.33 133.66 237.42 141.94 244.57 155.08 245.89 157.25 
M 270.72 191.22 273.54 195.38 
M 290.19 215.28 292.68 217.32 
M 224.26 114.81 232.96 125.89 238.6 133.76 243.77 141.87 251.06 154.94 253.81 159.23 258.68 165.58 
M 274.74 187.87 282.73 199.43 
M 291.04 209.4 293.58 211.85 
M 229.33 113.6 239.28 126.14 244.9 133.81 248.91 139.75 
M 251.45 143.92 257.82 154.75 260.84 158.97 266.44 165.97 
M 280.51 187.13 285.98 195.12 
M 294.37 205.51 296.93 208.14 
M 301.87 212.76 304.27 214.84 
M 234.42 112.47 245.67 126.48 251.26 133.93 255.39 139.8 
M 258 143.95 261.93 150.36 263.42 152.46 
M 266.56 156.63 271.51 162.82 274.07 166.35 
M 286.32 186.42 289.22 190.71 
M 294.93 198.3 297.63 201.46 
M 300.25 204.28 302.8 206.91 
M 310.35 213.88 312.85 215.83 
M 239.45 111.39 246.47 119.81 254.86 130.51 260.37 138.11 265.7 146.31 268.73 150.4 275.39 158.48 278.46 162.66 279.79 164.78 
M 290.48 183.28 293.91 188.44 296.75 192.35 299.52 195.85 303.52 200.43 
M 306.16 203.25 308.81 205.92 
M 314.06 210.84 319.05 215 
M 244.49 110.39 247.46 113.71 250.2 117.06 258.38 127.46 261.05 131.11 267.64 140.74 
M 270.52 144.66 272.03 146.62 278.77 154.36 281.93 158.43 284.77 162.72 287.28 167.01 
M 296.03 182.39 301.28 189.9 
M 312.32 202.36 315.06 205.04 
M 317.72 207.6 320.26 210.01 
M 249.29 109.42 251.19 111.32 253.9 114.44 259.21 121.19 264.46 128.32 272.09 139.39 275.05 143.1 281.72 150.49 285.03 154.43 288.1 158.66 290.86 163.06 293.28 167.31 
M 300.98 180.71 305.74 187.52 308.58 191.07 312.89 195.84 
M 315.76 198.77 318.55 201.55 
M 321.22 204.22 326.05 209.2 
M 253.94 108.44 257.49 112.01 260.19 115.22 265.49 122.15 271.66 130.91 
M 274.12 134.39 276.79 137.87 
M 279.75 141.37 284.6 146.7 287.93 150.54 289.54 152.62 
M 292.62 156.89 295.44 161.28 
M 297.99 165.59 299.14 167.6 
M 305.17 177.94 308.81 183.31 313.18 188.84 
M 319.01 195.2 326.93 203.41 
M 258.59 107.54 261.09 109.89 263.86 112.91 266.56 116.21 277.81 131.22 
M 280.35 134.44 289.2 144.67 
M 292.41 148.57 297.08 155 299.92 159.43 304.97 167.89 
M 310.2 176.56 313.38 181.13 
M 316.26 184.91 319.17 188.42 
M 327.43 197.28 329.86 200.02 
M 263.44 106.74 267.57 110.72 270.27 113.81 279.27 124.92 
M 281.66 127.96 295.33 144.35 
M 298.38 148.5 302.84 155.13 309.04 165.32 
M 315.19 175.21 316.39 176.91 
M 319.24 180.82 324.86 187.83 
M 327.59 190.89 330.21 193.82 
M 341.09 208.18 343.22 210.85 
M 268.71 105.96 271.38 108.48 274.04 111.33 281.84 120.27 294.21 134.89 299.77 142.03 306.91 152.69 
M 309.45 156.82 311.76 160.71 
M 314.02 164.48 316.44 168.35 
M 319.13 172.37 326.25 182.12 330.38 187.17 
M 274.25 105.29 277.84 108.75 287.96 119.85 297.67 131.15 301.5 136.15 
M 304.19 139.86 308.37 145.9 310.98 150.02 314.41 155.93 
M 316.64 159.71 322.52 168.77 
M 323.36 169.98 324.58 171.71 
M 330.47 179.66 336.06 186.75 
M 342.97 196.35 347.41 202.48 
M 352.32 208.35 354.81 211.03 
M 279.97 104.71 284.02 108.68 291.47 116.47 296.37 121.91 301.14 127.59 308.78 137.52 311.48 141.35 314.02 145.3 319.5 155.04 
M 321.83 158.89 328.62 169.07 
M 328.71 169.21 333.29 175.35 
M 339.24 182.99 341.86 186.53 
M 344.23 189.92 346.41 193.19 
M 348.58 196.39 352.04 201.12 355.88 205.71 
M 285.51 104.2 294.89 113.16 299.86 118.47 304.61 124.12 313.5 135.21 
M 316.11 138.9 319.64 144.67 322.78 150.53 
M 324.97 154.49 328.59 160.5 332.87 166.82 
M 339.23 175.12 342.35 179.05 
M 345.17 182.84 347.68 186.46 
M 352.16 193.29 354.44 196.58 
M 367.1 211.24 369.4 213.37 
M 291.22 104.06 296.95 108.96 
M 299.5 111.27 303.27 115.08 309.15 122.14 
M 311.58 125.05 318.17 132.87 320.75 136.48 323.09 140.28 326.25 146.19 
M 328.33 150.24 330.52 154.35 
M 332.93 158.47 337.08 164.71 338.68 166.8 
M 341.96 170.94 345.24 175 
M 348.29 178.97 349.73 180.93 355.64 190.1 
M 357.97 193.52 360.44 196.83 
M 297.2 103.97 301.5 107.22 304.06 109.42 306.52 111.86 313.49 120.22 321.3 129.07 323.92 132.4 326.38 136.08 328.65 139.95 336.2 154.46 
M 341.53 162.67 348.01 170.87 
M 351.18 174.98 355.35 181.02 358.93 186.72 
M 361.34 190.3 363.86 193.72 
M 303.86 103.92 307.26 106.54 309.67 108.81 311.99 111.35 319 119.8 322.94 124.12 
M 325.6 127.13 329.48 132.1 331.92 135.86 334.22 139.83 338.6 148.21 342.14 154.53 
M 344.77 158.59 355.68 173.02 363.34 185.05 367.2 190.43 
M 382.68 208.3 385.07 210.39 
M 310.52 103.82 312.86 105.89 315.15 108.28 322.09 116.55 329.88 125.14 332.5 128.37 337.56 135.77 347.11 152.44 349.84 156.6 354.41 162.72 
M 357.47 166.89 361.67 173.16 365.4 179.27 
M 378.41 196.59 382.26 201.2 386 205.36 
M 316.96 103.91 320.66 107.82 325.32 113.22 332.9 121.55 338.18 128.13 343.46 135.69 346.02 139.72 352.37 150.41 
M 355.24 154.66 358.24 158.79 
M 363.95 167.03 371.38 179.16 
M 381.65 192.72 384.23 195.98 
M 323.6 104.44 336.06 117.86 341.38 124.34 346.86 131.73 349.51 135.67 353.35 141.97 
M 356.06 146.3 366.38 160.95 373.68 172.97 376.06 176.65 379.76 181.78 
M 382.28 185.11 384.84 188.49 
M 331.07 105.55 334.42 108.88 339.37 114.22 344.68 120.62 347.41 124.19 352.75 131.84 360.8 144.36 368.41 154.9 
M 371.15 158.9 379.52 172.16 383.11 177.28 
M 395.87 194.89 398.48 198.16 
M 401.07 201.21 403.67 204.06 
M 339.23 107.02 342.8 110.81 345.38 113.85 350.62 120.69 355.87 128.18 363.86 140.25 375.74 156.67 384.16 169.55 
M 386.55 173.01 399.23 191.16 
M 347.01 108.61 351.28 114.01 366.99 136.14 376.1 148.3 378.92 152.3 387.64 165.49 
M 394.99 176.31 397.5 180.03 
M 400.08 183.81 402.71 187.57 
M 413.24 201.49 415.01 203.69 
M 353.8 110.1 362.15 121.35 377.91 141.81 
M 380.84 145.81 388.65 157.73 
M 391.2 161.59 408.9 187.93 
M 360.3 111.48 365.44 118.01 380.06 135.45 383.07 139.35 387.19 145.4 
M 389.74 149.5 394.84 157.61 
M 397.43 161.51 402.52 169.18 
M 410.02 180.89 415.06 188.49 
M 367.44 112.96 380.71 127.68 383.81 131.26 386.82 135.06 389.64 139.05 401.21 157.51 
M 403.82 161.48 418.69 185.32 
M 375.74 114.77 384.37 123.93 387.44 127.38 390.43 131.04 396.06 139.05 400.01 145.28 
M 402.56 149.39 407.69 157.52 
M 410.27 161.65 412.79 165.84 
M 415.25 170.04 422.45 182.14 
M 424.85 185.98 429.69 193.4 
M 384.8 117.02 389.43 122.11 
M 392.41 125.57 396.9 131.12 399.87 135.14 405.39 143.42 409.18 149.54 
M 411.67 153.64 419.14 166.42 
M 421.53 170.7 428.63 182.82 
M 393.47 119.41 400.48 127.53 403.63 131.44 406.66 135.54 410.81 141.73 
M 413.37 145.82 415.8 149.93 
M 425.35 167.17 432.45 179.61 
M 434.75 183.47 437.02 187.21 
M 401.94 121.77 407.22 127.86 410.48 131.9 413.5 136.03 418.8 144.28 424.53 154.84 
M 426.82 159.22 432.66 170.12 436.22 176.3 
M 410.39 124.03 412.34 126.29 
M 415.68 130.33 417.32 132.38 420.23 136.55 422.82 140.74 425.17 144.96 434.08 162.25 437.58 168.71 
M 418.65 126.16 420.82 128.78 423.9 132.96 426.6 137.22 431.32 145.75 439.11 160.78 
M 426.43 128.19 430.23 133.65 432.81 137.95 440.97 152.9 
M 433.91 130.12 436.62 134.3 440.97 141.64 
M 214.44 117.32 210.73 122.51 
M 221.75 115.43 216.68 122.31 212.34 128.75 
M 229.45 113.58 225.41 118.56 213.84 135.37 
M 237.93 111.7 234.17 115.48 231.58 118.65 221.28 133.75 215.3 142.04 
M 247.51 109.79 243.49 113.25 240.65 116.01 237.93 119.02 235.37 122.32 227.83 133.58 223.41 139.75 
M 217.15 148.31 215.73 150.26 
M 257.21 107.77 252.78 111.5 247.25 116.73 244.47 119.61 241.79 122.73 239.22 126.14 231.4 137.66 223.75 148.25 
M 220.62 152.58 214.75 160.99 
M 266.77 106.2 261.74 109.98 259.07 112.22 253.69 117.45 248.27 123.26 245.62 126.48 243.02 129.99 221.26 161.15 
M 275.25 105.17 268.22 110.79 262.72 115.61 257.3 120.94 252.02 126.91 246.73 133.83 227.82 161.34 
M 206.77 195.09 206.59 195.35 
M 282.44 104.48 277.54 108.75 271.87 113.98 263.58 121.85 260.91 124.58 255.75 130.57 253.11 133.99 248.97 139.77 
M 246.01 144 239.92 152.9 
M 237.03 157.29 232.52 164.27 
M 288.57 104.12 283.74 108.69 264.41 128.31 259.42 134.38 250.94 146.07 246.29 152.82 
M 215.43 201.6 210.59 207.18 
M 294 104.01 289.63 108.38 279.01 120.32 270.41 129.16 267.77 132.08 265.33 135.11 262.98 138.38 254.38 150.42 249.81 157.16 
M 247.05 161.54 245.04 164.9 
M 299.24 103.95 295.4 107.88 291.71 112.16 
M 289.15 115.26 282.41 123.29 273.7 132.71 271.12 135.84 259.58 152.55 
M 234.31 194.03 233.61 195.2 
M 229.11 202.04 226.58 205.21 
M 304.4 103.92 298.81 110 288.54 122.82 279.92 132.81 277.17 136.16 273.61 141.27 
M 266.54 152.48 263.64 156.74 
M 260.7 161.11 257.94 165.52 
M 309.48 103.84 304.64 109.35 284.85 134.18 
M 282.22 137.76 278.69 143.16 274.6 150.46 270.89 156.53 
M 268.05 160.82 265.15 165.23 
M 247.39 195.64 244.79 199.29 
M 314.56 103.74 312.59 105.92 307.9 111.72 292.45 131.72 289.8 135.37 287.28 139.15 284.99 142.96 278.97 154.36 275.24 160.6 
M 272.37 164.94 271.5 166.22 
M 256.51 192.4 254.16 195.75 
M 251.35 199.5 246.09 206.19 
M 319.31 104.1 315.7 108.23 313.34 111.24 298.51 131.08 293.52 138.55 290.21 144.56 
M 288.19 148.55 284.14 156.44 
M 281.81 160.55 279.16 164.79 
M 263.96 190.54 262.06 193.74 260.67 195.74 
M 254.98 203.17 252.21 206.48 
M 324.15 104.48 321.23 107.78 316.4 113.94 301.88 134.27 299.53 138.08 297.33 142.15 290.26 156.72 
M 287.99 160.77 285.44 164.87 
M 269.89 190.43 269.75 190.68 
M 253.1 212.61 251.02 214.78 
M 328.71 105.18 324.38 110.36 319.56 116.73 307.84 133.82 305.39 137.77 303.16 141.92 300.19 148.46 
M 298.24 152.84 295.16 159.16 293.99 161.18 
M 291.52 165.21 290.25 167.16 
M 273.15 195.36 271.95 197.52 269.36 201.51 267.97 203.31 
M 333.18 105.88 330.07 109.59 325.18 116.27 320.72 122.72 316.31 129.5 311.43 137.3 309.03 141.56 305.89 148.31 
M 303.97 152.87 301.98 157.3 
M 299.82 161.53 297.42 165.58 
M 283.5 187.54 281.72 190.87 
M 279.37 195.25 276.99 199.46 
M 268.99 210.09 266.13 212.94 
M 337.6 106.71 335.87 108.66 333.32 111.98 328.56 118.91 322.1 129.01 314.94 141.02 312.52 145.48 310.35 150.11 306.49 159.38 304.36 163.68 301.94 167.74 
M 292.34 182.71 287.95 190.78 
M 283.29 199.42 280.89 203.42 
M 275.67 210.29 272.87 213.18 
M 342.19 107.6 339.19 111.12 336.68 114.55 332.01 121.65 327.7 128.64 316.91 147.08 
M 314.57 151.67 310.55 160.93 
M 298.35 182.55 296.38 186.21 
M 282.12 210.35 280.81 211.93 276.73 216.02 
M 347.07 108.63 342.64 113.95 337.77 121.04 321.08 148.63 318.57 153.1 316.39 157.66 311.87 168.23 
M 306.87 177.42 304.51 181.56 
M 300.06 190.05 295.48 198.27 
M 283.12 216.05 280.62 218.49 
M 352.13 109.73 348.63 113.88 343.73 120.65 338.99 128.1 331.9 139.86 324.01 152.49 321.57 156.83 319.45 161.29 316.58 168.47 
M 312.96 176.45 308.13 185.35 
M 296.65 205.05 294.21 208.76 
M 291.72 212.24 289.21 215.45 
M 357.29 110.84 352.05 117.34 347.36 124.19 329.56 152.29 325.98 158.55 
M 323.87 162.92 321.52 168.72 
M 320.62 171.08 320.18 172.22 
M 318.32 176.74 317.35 178.93 314.13 185.04 
M 311.92 188.95 307.31 196.51 
M 304.93 200.22 300.07 207.45 
M 297.59 210.94 292.59 217.34 
M 362.43 111.93 357.8 117.77 355.48 120.99 349.76 129.85 
M 347.36 133.69 335.2 152.37 331.54 158.46 
M 329.41 162.63 326.69 168.97 
M 326.54 169.37 323.02 178.45 320.05 184.69 
M 315.75 192.21 311.01 199.37 
M 367.52 112.98 363.62 118.02 358.93 124.7 349.58 139.75 345.37 146.07 
M 342.5 150.34 338.44 156.57 336.07 160.57 334.05 164.69 328.57 177.82 325.67 184.08 
M 323.72 187.98 319.54 195.16 
M 314.74 202.05 309.48 208.75 
M 372.74 114.05 367.18 121.32 362.43 128.42 353.01 144.06 344.5 156.58 341.99 160.63 338.97 166.82 
M 337.17 171.03 334.39 177.38 329.24 187.29 
M 323.2 197.87 318.4 204.6 
M 315.75 207.87 313.01 210.98 
M 378.04 115.31 373.54 121.04 368.43 128.36 363.63 136.16 359.17 144.31 356.71 148.45 352.51 154.59 
M 349.68 158.6 348.3 160.59 345.98 164.67 340.38 177.14 338.28 181.15 330.72 193.76 
M 328.71 197.11 326.62 200.45 
M 316.48 213.04 313.67 215.71 
M 383.42 116.64 380.23 120.69 374.89 128.04 369.69 136.06 367.37 140.24 363.13 148.64 360.72 152.77 355.1 160.71 352.47 164.72 350.24 168.81 346.38 177.01 344.26 180.98 341.91 184.77 333.89 196.61 
M 331.85 199.82 329.76 203.03 
M 327.53 206.24 323.87 210.83 322.54 212.23 
M 319.84 214.9 317.06 217.33 
M 388.72 118.1 381.67 127.63 376.24 135.7 373.66 139.98 370.33 146.48 
M 368.22 150.75 367.17 152.86 364.74 156.94 359.17 164.88 355.45 170.96 
M 353.29 175 350.13 180.93 346.5 186.46 
M 343.92 189.91 338.99 196.39 
M 336.8 199.51 333.7 204.14 330.44 208.62 
M 328.1 211.45 325.63 214.11 
M 394 119.56 388.36 127.35 381.66 137.4 
M 379 141.73 377.71 143.93 372.06 154.81 
M 369.67 158.93 360.32 173.13 355.74 181.03 352.2 186.51 
M 349.62 189.92 346.93 193.19 
M 341.84 199.43 337.47 205.41 
M 330.89 213.48 328.52 215.81 
M 399.31 121.04 392.28 131.04 384.17 143.46 381.54 147.88 374.36 160.77 371.79 164.95 365.02 175.25 
M 362.5 179.23 360.12 183.06 
M 357.76 186.68 355.28 190.08 
M 352.65 193.3 346 200.97 338.02 210.81 
M 404.85 122.55 391.98 141.1 
M 389.17 145.33 385.06 151.81 377.61 164.52 373.67 170.94 
M 371 175.19 364.6 185.07 360.98 190.29 
M 355.83 196.63 353.15 199.63 
M 350.53 202.56 343.11 210.84 
M 338.46 215.44 336.19 217.35 
M 410.68 124.11 405.6 131.57 396.98 143.18 392.61 149.45 
M 387.18 157.79 370.56 185.05 365.62 192.12 363.14 195.35 359.24 199.9 
M 353.95 205.63 348.73 210.92 
M 416.75 125.67 411.06 133.9 
M 408.16 137.63 400.52 147.35 393.31 157.64 
M 390.61 161.6 385.32 169.45 
M 382.73 173.57 380.18 177.85 
M 377.69 182.19 375.26 186.37 
M 372.84 190.24 370.4 193.76 
M 365.39 200.11 362.78 203.08 
M 349.37 215.61 347.21 217.28 
M 422.82 127.24 419.25 132.53 416.48 136.25 404.04 151.43 391.29 169.05 
M 388.61 172.84 386.02 176.83 
M 383.51 181.03 378.71 189.48 
M 376.34 193.35 373.92 196.88 
M 366.31 206.07 363.61 208.73 
M 355.34 215.58 353.66 216.84 
M 428.77 128.8 423.05 136.82 420.16 140.48 410.63 151.58 393.27 174.47 390.62 178.23 388.09 182.21 382.17 192.61 
M 377.39 199.9 374.91 203.11 
M 366.98 211.24 364.2 213.47 
M 434.66 130.31 426.48 141.17 414.09 155.78 403.79 169.21 
M 400.9 172.82 396.67 178.16 394 181.87 391.5 185.8 385.61 195.8 
M 383.23 199.46 382.03 201.21 378.3 205.89 
M 373.05 211.21 370.29 213.46 
M 440.56 131.82 432.64 141.94 420.54 156.38 416.09 162.05 
M 413.13 165.85 407.25 173.24 
M 404.35 176.75 401.52 180.22 
M 398.81 183.8 394.99 189.45 391.4 195.23 
M 389.02 198.92 386.61 202.36 
M 379.11 210.97 377.2 212.68 
M 440.97 140.16 425.31 159.01 
M 422.39 162.73 410.67 177.3 
M 407.8 180.7 403.66 185.81 401.05 189.36 394.84 198.41 
M 440.97 148.42 432.93 157.99 424.22 169.04 416.92 177.9 
M 440.97 156.45 427.52 173.4 416.04 186.83 404.31 201.13 
M 440.77 165.01 433.66 174.14 426.45 182.59 
M 423.59 185.85 420.83 189.08 
M 418.17 192.26 412.99 198.36 
M 440.97 173.21 436.92 178.26 429.72 186.5 
M 426.93 189.71 424.23 192.87 
M 440.97 181.2 438.64 183.86 
M 435.78 187.1 430.24 193.46 
M 440.97 188.61 438.97 190.87 
M 245.63 109.89 247.33 109.82 
M 259.57 107.09 261.14 54.93 262.09 54.94 262.97 106.82 
M 273.64 105.02 280.23 40.33 281.17 40.41 277.06 104.98 
M 287.83 103.82 300.98 30.74 301.91 30.89 291.24 104.07 
M 302.05 103.56 319.12 32.15 320.04 32.35 305.46 103.91 
M 316.29 103.48 337.28 40.02 338.18 40.3 319.66 104.13 
M 330.46 105.02 361.88 35.91 362.75 36.29 333.76 105.97 
M 344.46 107.61 377.16 46.43 378 46.86 347.69 108.76 
M 358.36 110.57 382.33 69.06 383.16 69.51 361.59 111.75 
M 372.3 113.43 391.2 83.91 392.01 84.4 375.48 114.71 
M 390.42 118.03 391.85 118.96 
M 247.97 109.69 252 99.08 253.86 93.67 255.53 88.21 256.98 82.69 259.26 71.49 260.98 60.14 
M 262.18 60.15 266.78 58.15 271.04 55.7 272.97 54.21 274.77 52.55 276.44 50.73 279.57 46.8 
M 280.76 46.9 285.47 46.03 289.95 44.65 292.05 43.67 294.06 42.48 295.98 41.12 299.66 38.05 
M 300.84 38.24 304.45 39.69 306.26 40.23 308.09 40.57 309.93 40.68 313.65 40.27 317.41 39.29 
M 318.58 39.54 321.8 42.19 323.49 43.34 325.25 44.3 327.09 45.06 331.03 45.98 335.18 46.37 
M 336.32 46.72 341.51 47.06 346.6 46.83 349.09 46.39 351.55 45.74 353.96 44.89 358.74 42.82 
M 359.83 43.3 362.29 46.37 365.05 48.97 366.61 50 368.3 50.84 370.09 51.51 373.89 52.55 
M 374.95 53.09 374.88 57.86 375.35 62.48 375.91 64.72 376.68 66.9 377.64 69.03 379.93 73.21 
M 380.98 73.78 381.81 77.34 382.37 79.02 383.11 80.6 384.03 82.05 386.43 84.61 389.31 86.87 
M 390.34 87.47 389.34 94.44 388.92 101.38 389.03 104.85 389.37 108.3 389.9 111.75 391.35 118.64 
M 264.5 59.18 268.97 57 271.04 55.7 272.97 54.21 274.77 52.55 278.03 48.8 
M 265.04 65.75 268.88 63.88 270.66 62.76 273.86 60.05 276.67 56.82 
M 265.57 72.33 268.79 70.76 270.28 69.82 272.96 67.55 275.31 64.85 
M 266.1 78.9 268.69 77.63 271.01 76.02 272.06 75.05 273.95 72.88 
M 266.63 85.47 269.51 83.94 271.15 82.55 272.59 80.9 
M 283.13 46.5 287.75 45.43 289.95 44.65 292.05 43.67 294.06 42.48 297.84 39.62 
M 283.05 53.28 287.13 52.34 289.07 51.65 292.7 49.73 296.04 47.2 
M 282.97 60.06 286.51 59.24 288.19 58.65 291.34 56.98 294.24 54.79 
M 282.89 66.84 285.89 66.15 287.32 65.64 289.99 64.23 292.44 62.37 
M 282.8 73.63 286.44 72.64 288.63 71.48 290.65 69.96 
M 282.72 80.41 285.56 79.64 287.27 78.73 288.85 77.54 
M 302.64 39 306.26 40.23 308.09 40.57 309.93 40.68 311.78 40.57 315.53 39.82 
M 302.04 45.5 305.3 46.6 306.94 46.91 308.6 47.02 310.27 46.92 313.64 46.24 
M 301.44 52 304.33 52.98 305.79 53.26 308.75 53.26 311.75 52.66 
M 300.83 58.5 303.37 59.36 304.65 59.6 307.23 59.61 309.85 59.07 
M 300.23 65.01 302.4 65.74 303.5 65.94 305.72 65.95 307.96 65.49 
M 299.63 71.51 302.35 72.29 304.2 72.29 306.07 71.91 
M 299.02 78.01 301.2 78.63 302.68 78.64 304.18 78.33 
M 320.18 40.9 323.49 43.34 325.25 44.3 327.09 45.06 329.02 45.61 333.09 46.21 
M 319.24 47.21 322.22 49.4 323.8 50.27 325.47 50.95 327.2 51.45 330.86 51.98 
M 318.3 53.51 320.95 55.46 323.84 56.84 325.38 57.28 328.64 57.76 
M 317.37 59.82 319.69 61.52 320.92 62.2 323.56 63.11 326.41 63.53 
M 316.43 66.12 318.42 67.58 320.58 68.62 321.74 68.95 324.18 69.31 
M 315.5 72.43 318.03 74.13 319.92 74.78 321.95 75.08 
M 314.56 78.73 316.59 80.1 318.1 80.62 319.73 80.86 
M 338.92 46.93 344.07 47.04 346.6 46.83 349.09 46.39 351.55 45.74 356.36 43.89 
M 337.53 52.72 342.16 52.82 344.44 52.63 346.68 52.24 348.89 51.65 353.22 49.99 
M 336.13 58.51 340.25 58.6 342.28 58.43 346.23 57.56 350.08 56.08 
M 334.74 64.3 338.34 64.38 340.11 64.23 343.57 63.47 346.94 62.18 
M 333.34 70.09 336.43 70.16 337.95 70.03 340.92 69.38 343.8 68.27 
M 331.95 75.89 335.79 75.84 338.26 75.29 340.66 74.37 
M 330.55 81.68 333.62 81.64 335.6 81.2 337.53 80.46 
M 361.04 44.87 363.61 47.75 365.05 48.97 366.61 50 368.3 50.84 371.97 52.06 
M 358.83 51.09 361.15 53.68 362.45 54.78 363.85 55.7 365.37 56.46 368.67 57.56 
M 356.63 57.3 358.69 59.61 359.84 60.58 362.44 62.08 365.38 63.06 
M 354.43 63.52 356.23 65.54 357.24 66.39 359.51 67.7 362.08 68.56 
M 352.22 69.74 353.77 71.47 354.63 72.2 356.58 73.32 358.78 74.05 
M 350.02 75.96 352.03 78.01 353.65 78.94 355.48 79.55 
M 347.81 82.17 349.42 83.81 350.72 84.56 352.19 85.05 
M 374.87 55.48 375.02 60.19 375.35 62.48 375.91 64.72 376.68 66.9 378.75 71.13 
M 371.8 63.1 371.92 67.15 372.69 71.04 373.35 72.92 375.13 76.55 
M 368.73 70.72 368.83 74.11 369.47 77.36 370.03 78.93 371.52 81.98 
M 365.65 78.33 365.74 81.06 366.25 83.69 366.7 84.95 367.9 87.41 
M 362.58 85.95 362.79 89.03 363.37 90.97 364.28 92.83 
M 381.36 75.58 382.37 79.02 383.11 80.6 384.03 82.05 385.15 83.38 387.84 85.76 
M 377.97 84.27 378.74 86.91 380.02 89.23 380.87 90.26 382.93 92.08 
M 374.57 92.97 375.5 95.64 376.59 97.13 378.03 98.4 
M 214.57 161.71 343.97 168.7 343.92 169.65 213.91 164.93 
M 213.77 165.78 327.24 176.46 327.16 177.4 213.14 168.99 
M 212.95 169.79 310.44 182.94 310.32 183.88 212.15 172.96 
M 211.91 173.69 293.63 188.13 293.48 189.07 210.86 176.81 
M 210.64 177.46 276.9 192.05 276.71 192.98 209.57 180.56 
M 209.38 181.14 260.32 194.7 260.09 195.62 208.83 184.34 
M 208.75 184.9 243.95 196.1 243.69 197.01 208.15 188.08 
M 208.03 188.6 227.87 196.25 227.58 197.15 207.32 191.7 
M 206.93 193.65 212.16 196.71 211.83 197.6 206.24 196.59 
M 330.07 169.14 326.28 169.39 322.7 170.16 321.03 170.85 319.45 171.74 317.95 172.82 315.08 175.31 
M 314.98 176.5 311.26 176.46 307.71 176.97 306.05 177.52 304.45 178.29 302.91 179.25 299.96 181.52 
M 299.82 182.71 296.19 182.39 294.42 182.41 292.7 182.62 291.03 183.05 287.87 184.54 284.85 186.58 
M 284.65 187.76 281.13 187.17 277.71 187.14 276.06 187.44 274.45 187.96 272.88 188.68 269.79 190.49 
M 269.56 191.66 266.16 190.8 262.83 190.51 261.2 190.69 259.59 191.09 258.01 191.69 254.87 193.25 
M 254.59 194.41 251.34 193.3 249.72 192.93 248.11 192.76 246.51 192.81 243.32 193.57 240.15 194.89 
M 239.82 196.04 236.74 194.68 233.62 193.9 232.05 193.83 230.47 193.98 228.88 194.33 225.69 195.41 
M 225.32 196.55 222.27 195.29 219.22 194.6 217.69 194.58 216.16 194.78 214.63 195.18 211.55 196.36 
M 328.16 169.23 324.45 169.68 322.7 170.16 321.03 170.85 319.45 171.74 316.5 174.03 
M 299.54 168.2 296.69 168.55 294.07 169.44 292.86 170.13 290.6 171.88 
M 270.92 167.17 268 167.67 266.27 168.51 264.7 169.73 
M 313.1 176.45 309.45 176.62 307.71 176.97 306.05 177.52 304.45 178.29 301.43 180.35 
M 288 174.62 285.2 174.75 282.58 175.44 281.36 176.03 279.04 177.61 
M 262.89 172.79 260.01 173.06 258.27 173.77 256.66 174.87 
M 297.99 182.51 294.42 182.41 292.7 182.62 291.03 183.05 289.43 183.7 286.35 185.52 
M 265.62 178.97 263.29 178.9 262.18 179.04 260.05 179.74 258.05 180.93 
M 282.89 187.42 279.4 187.05 277.71 187.14 276.06 187.44 274.45 187.96 271.33 189.55 
M 255.8 183.49 253.54 183.25 251.36 183.5 250.32 183.84 248.29 184.87 
M 267.86 191.19 264.49 190.56 262.83 190.51 261.2 190.69 259.59 191.09 256.44 192.43 
M 252.97 193.82 249.72 192.93 248.11 192.76 246.51 192.81 244.91 193.09 241.73 194.19 
M 277.61 224.35 280.56 230.54 279.79 231.09 274.85 226.35 
M 263.67 222.42 282.41 258.3 281.58 258.76 260.7 224.09 
M 249.76 220.12 263.6 255.44 262.73 255.81 246.62 221.47 
M 239.32 218.59 240.22 225.38 239.32 225.67 236.07 219.64 
M 279.3 230.62 278.36 236.03 277.98 241.42 278.12 244.1 278.48 246.76 279.04 249.42 280.53 254.71 
M 279.49 255.29 275.89 253.34 272.17 251.96 270.25 251.58 268.29 251.42 266.29 251.46 262.21 251.9 
M 261.12 252.38 257.42 245.49 253.27 238.95 250.94 235.87 248.43 232.93 245.76 230.11 240.13 224.7 
M 277.7 254.28 274.05 252.55 272.17 251.96 270.25 251.58 268.29 251.42 264.26 251.64 
M 273.76 248.64 270.75 247.21 269.2 246.72 266 246.28 262.67 246.46 
M 269.82 242.99 267.45 241.87 264.98 241.24 263.7 241.13 261.08 241.28 
M 265.88 237.35 263.25 236.24 261.41 235.99 259.49 236.1 
M 420.75 206.82 424.82 211.51 427.83 215.29 430.71 219.61 432.86 222.31 429.83 223.52 426.83 223.43 423.6 223.59 418.77 225.73 415.92 225.79 413.2 226.69 410.1 227.39 407.14 228.45 404.97 230.27 403.27 232.58 397.74 234.99 396.23 237.48 395.16 240.43 393.53 242.81 392.19 245.42 390.42 247.6 387.57 248.74 385.56 250.64 383.76 252.83 382.98 255.67 380.93 257.39 378.57 259.05 376.95 261.44 376.03 264.53 374.72 267.17 372.96 269.38 370.91 271.31 368.4 272.81 365.85 274.9 366.25 279.25 365.14 277.24 362.7 276.5 361.1 274.48 358.97 268.89 357.16 266.56 355.81 263.59 354.54 258.24 353.11 255.08 351.01 252.23 349.43 250.56 345.85 246.24 342.5 240.26 340.34 237.07 338.79 234.28 336.15 228.61 334.04 225.18 
M 416.22 208.19 420.29 212.95 423.02 215.82 425.64 219.19 
M 411.69 209.57 415.63 213.27 417.7 217.02 
M 407.13 210.84 411.4 213.75 413.85 216.35 416.35 219.87 
M 402.57 212.11 409.03 218.08 
M 397.99 213.33 402.24 216.99 404.79 220.33 
M 393.41 214.53 398.8 221.86 401.42 224.85 
M 388.81 215.64 392.15 220.07 396.59 226.37 399.06 228.79 
M 384.19 216.69 389.05 223.82 391.86 225.99 
M 379.56 217.7 382.55 222.15 384.39 225.29 386.38 228 390.26 232.56 
M 374.93 218.68 379.81 226.57 382.67 229.11 387.56 234.33 389.11 236.66 390.12 239.72 392.04 242.05 
M 370.3 219.66 375.56 226.59 378.28 229.85 382.64 234.58 384.62 237.44 386.32 240.67 387.52 243.96 388.79 246.65 
M 365.66 220.64 368.99 224.33 370.96 227.16 373.37 229.74 375.11 232.76 377 235.54 379.76 238 382.45 240.73 382.43 244.06 
M 361.01 221.51 365.78 228.04 367.25 230.7 368.74 233.95 371.42 236.13 373.86 238.83 376.02 241.86 378.54 244.48 380.04 247.21 381 250.01 
M 356.33 222.23 358.81 226.23 360.65 228.85 362.14 231.56 367.21 239.49 369.48 242.49 372.72 244.58 374.67 248.19 377 250.74 377.96 253.12 
M 351.64 222.93 353.67 227.1 355.98 229.72 358.39 231.86 359.77 234.7 361.24 237.04 362.66 240.14 364.49 241.58 367.95 248.03 373.24 253.59 
M 346.95 223.57 349.35 227.39 353.48 232.94 355.25 235.71 358.37 243 364.87 251.43 369.1 256.37 369.91 259.28 
M 342.26 224.18 344.5 228.11 346.16 230.66 347.95 233.26 350.05 235.93 351.17 239.01 352.82 242.11 354.67 244.31 356.01 247.17 357.81 250.22 360.84 252.27 362.68 254.7 
M 337.56 224.76 339.81 228.28 342.02 233.53 344.1 236.93 346.1 239.89 348.57 243.03 351.23 247.85 353.7 249.94 
M 440.02 131.69 443.38 131.11 448.66 127.59 453.44 125.62 455.9 125.05 458.77 123.64 469.6 117.24 471.99 115.32 476.81 113.78 480.32 113.17 484.57 108.04 487.45 106.91 490 105.42 476.59 118.58 476.55 122.03 475.84 124.8 474.38 126.89 473.72 129.79 472.71 132.24 472.28 137.87 471.34 143.63 470.57 146.51 469 148.79 467.81 151.04 467.43 153.03 467.98 156.12 467.79 159.09 467.89 162.15 469.86 168.13 469.53 170.73 467.77 172.41 467.34 175.43 467.62 179.2 469.48 186.29 469.68 188.47 470.66 191.29 471.33 194.63 471.01 197.15 469.61 200.76 471.22 203.73 475.53 210.76 476.65 213.26 477.51 215.5 477.76 219.43 478.24 220.87 488.01 235.19 486.26 233.51 484.01 232.43 479.17 226.89 476.92 224.68 473.97 223.1 471.79 222.29 470.45 220.48 467.15 220.17 464.68 219.01 458.81 215.66 456.31 213.87 454.14 211.97 452.39 209.66 450.01 207.52 446.65 205.17 443.25 203.25 440.02 200.72 
M 446.57 133.23 449.31 131.56 456.56 128.94 
M 446.89 137.08 449.72 135.84 455.03 134.95 457.88 134.06 459.86 132.82 463.57 131.73 466.4 130.09 468.09 128.11 471.19 126.71 
M 450.04 140.24 452.76 139.02 456.24 138.52 462.45 138.59 464.15 136.94 467.05 135.69 
M 449.71 145.17 453.32 143.84 456.58 143.06 461.07 143.17 
M 440.02 148.94 443.81 149.98 449.92 149.09 453.28 149 456.11 148.1 459.79 147.44 
M 447.11 153.19 450.15 153 453.76 153 456.71 152.53 
M 444.33 156.41 447.45 156.07 453.84 156.28 457.44 155.67 
M 444.38 160.18 447.11 160.07 450.21 159.63 453.33 159.94 460.56 159.85 464.44 160.01 
M 444.53 163.96 446.67 164.73 449.67 164.94 454.16 164.78 458.3 165.39 461.26 165.43 
M 440.02 166.2 444.03 168.26 446.76 168.71 449.71 169.4 454.47 169.43 462.43 170.42 
M 450.75 173.15 453.42 172.49 457.64 172.44 461.55 173.38 466.43 176.09 
M 440.02 173.1 447.43 176.1 450.75 177.16 457.47 177.39 460.51 177.8 463.63 178.76 
M 447.54 180.02 451.08 181.12 454.36 181.03 
M 444.54 182.18 447.9 184.06 451.3 184.99 454.16 185.57 456.21 186.31 458.59 186.16 462.06 187.55 
M 447.8 187.8 450.89 189.27 453.74 189.34 456.4 190.2 459.82 190.62 462.51 191.19 465.17 193.15 
M 444.19 189.77 446.79 192.02 449.55 193.75 453.38 193.75 460.82 195.25 463.6 195.99 465.06 197.55 
M 444.03 193.1 446.21 195.51 448.42 197.56 452.11 198.9 459.34 198.96 
M 443.59 196.55 446.18 198.84 449.27 200.62 454.81 202.47 458.46 205.89 462.22 207.42 
M 450.56 203.63 453.38 205.32 455.47 206.93 456.2 208.93 459.36 210.43 461.83 213.16 465.74 215.55 470.01 217.05 
M 115.92 162.18 116.74 160.54 118.61 158.02 121.08 155.33 124.19 152.78 128.46 150.39 134.15 147.71 139.71 144.51 145.17 140.79 151.71 137.32 166.96 131.27 181.95 126.24 201.79 120.67 208.76 118.92 211.54 123.97 212.36 128.88 213.43 133.82 214.74 138.79 215.58 143.7 215.76 148.55 215.47 158.17 214.27 162.87 213.45 167.61 212.37 172.32 209.21 181.63 208.55 186.39 206.5 195.82 204.96 200.49 202.72 205.07 199.2 209.43 186.91 208.62 177.9 207.33 169.85 205.59 162.27 203.55 155.36 201.21 149.07 198.74 143.21 195.93 137.79 192.75 133.1 189.67 128.93 186.36 125.67 182.77 
M 190.53 149.28 190.07 153.37 186.77 160.89 184.82 164.29 182.57 167.42 180.71 170.35 179.8 175.78 180.24 184.6 179.48 188.15 165.46 187.86 159.79 187.41 153.96 186.61 148.27 185.35 142.93 183.68 137.92 181.34 
M 124.08 181.94 120.48 177.44 113.83 167.61 112.68 165.6 112.97 163.14 114.89 161.86 117.22 162.58 118.46 164.7 122.53 175.72 125.8 182.69 
M 123.37 183.06 113.57 181.22 
M 111.5 180.82 103.99 179.35 99.58 178.29 97.43 177.34 96.76 175.04 98.01 172.99 100.27 172.61 109.34 176.24 
M 110.44 176.64 120.09 180.56 124.38 182.05 
M 125.27 182.37 125.51 182.46 
M 150.74 160.34 148.48 157.17 147.37 153.44 147.53 149.55 148.94 145.92 151.46 142.95 154.81 140.95 158.62 140.16 162.48 140.64 165.98 142.35 168.74 145.1 170.45 148.6 170.93 152.46 170.13 156.28 168.13 159.62 165.16 162.14 161.54 163.55 157.64 163.71 153.91 162.6 150.74 160.34 
M 166.81 146.48 168.18 149.28 168.56 152.37 167.92 155.42 166.33 158.09 163.95 160.11 161.05 161.24 157.94 161.37 154.95 160.48 152.42 158.67 
M 155.05 154.61 154.15 153.34 153.7 151.85 153.77 150.29 154.33 148.84 155.34 147.65 156.68 146.86 158.2 146.54 159.75 146.73 161.15 147.41 162.25 148.52 162.93 149.91 163.13 151.46 162.81 152.99 162.01 154.32 160.82 155.33 159.37 155.9 157.81 155.96 156.32 155.52 155.05 154.61 
M 153.97 151.12 158.78 155.92 
M 156.11 150.7 160.76 155.35 
M 156.01 148.04 162.11 154.15 
M 157.83 147.3 162.93 152.4 
M 160.48 147.4 162.87 149.79 
M 119.75 168.15 121.07 169.47 
M 117.2 159.92 121.83 164.54 
M 119.75 156.78 124.6 161.63 
M 122.67 154.02 128.35 159.7 
M 126.06 151.73 130.3 155.97 
M 129.78 149.77 135.14 155.12 
M 133.64 147.95 137.87 152.17 
M 137.29 145.91 140.54 149.17 
M 140.82 143.76 146.36 149.3 
M 144.2 141.45 148.73 145.99 
M 147.82 139.39 151.42 143 
M 151.53 137.42 155.02 140.91 
M 155.57 135.78 160.14 140.34 
M 159.64 134.17 165 139.53 
M 163.71 132.55 168.75 137.59 
M 167.81 130.97 171.06 134.23 
M 172.04 129.52 177.36 134.84 
M 176.29 128.09 179.33 131.13 
M 180.58 126.69 183.66 129.78 
M 184.98 125.42 190.14 130.57 
M 189.45 124.2 193.49 128.24 
M 193.89 122.96 198.56 127.63 
M 198.31 121.69 201.87 125.25 
M 202.73 120.43 207.27 124.97 
M 207.26 119.28 210.43 122.45 
M 126.15 174.79 127.09 173.99 128.55 172.23 129.3 171.63 131.99 170.65 133.18 169.9 133.96 168.47 134.13 167.57 133.83 164.16 
M 167.36 174.98 167.06 177.43 166.78 178.49 164.57 181.63 
M 139.72 152.36 140.17 152.5 
M 211.04 135.76 206.22 132.07 205.34 131.57 
M 184.26 132.25 182.36 131.83 180.19 131.8 179.28 131.58 177.85 130.63 175.21 128.44 
M 215.11 159.57 215.11 159.55 
M 147.86 155.09 147.75 155.17 
M 136.83 171.26 136.55 164.33 136.12 162.59 135.31 161.37 
M 144.96 172.83 145.08 173.89 144.94 174.59 143.38 176.89 142.4 179.41 142.32 180.87 142.08 181.57 
M 200.75 130.12 197.68 128.99 196.05 128.7 195.38 128.73 
M 209.71 173.58 207.43 173.41 206.49 173.67 203.53 175.72 197.74 177.32 
M 156.18 176.62 156.49 176.99 156.64 177.55 156.53 178.61 156.04 179.46 155.7 179.59 155.27 179.49 
M 175.13 158.27 175.79 159.45 176.67 160.04 177.25 160.19 181.41 160.35 182.46 160.79 
M 197.33 144.45 196.1 145.61 195.57 146.59 195.33 148.25 195.56 149.76 
M 151.02 194.8 152.25 193.38 156.58 190.17 158.02 188.41 159.02 188.03 
M 186 180.99 185.63 181.19 184.62 181.19 180.67 180.16 179.49 180 178.44 180.08 177.62 179.84 176.28 179.16 174.72 178.94 173.99 178.67 
M 209.83 144.83 208.8 143.75 206.53 141.88 204.95 139.21 204.4 138.65 202.49 138.01 201.46 138.35 
M 132.74 148.88 132.21 148.62 
M 149.04 188.56 150.83 188.02 151.72 187.02 152.1 186.33 152.85 181.26 152.72 180.38 151.88 179.23 
M 132.74 165.44 132.52 163.5 132.27 162.75 131.89 162.27 131.12 161.96 130.58 162.06 129.47 163.28 
M 193.08 172.88 193.6 172.55 194.18 172.42 195.12 172.53 195.4 172.7 195.49 173.16 195.27 173.73 194.96 173.93 
M 201.95 179.53 201.32 178.81 200.91 178.63 198.66 178.16 194.99 177.82 
M 204.53 182.88 202.29 181.79 201.82 181.38 200.89 179.35 200.38 178.82 198.84 178.31 197.74 178.18 
M 151.39 196.93 152.56 195.86 154.42 194.57 157.71 191.09 
M 196.75 146.52 196.24 146.86 195.67 147.81 195.66 150.53 
M 176.91 176.13 175.73 176.18 173.27 176.75 171.26 177.55 167.56 179.49 
M 194.97 149.02 195.59 151.42 
M 182.75 148.78 181.56 149.6 180.42 150.16 178.62 150.49 177.98 150.79 175.34 152.61 173.52 153.53 
M 167.46 140.63 166.42 141.77 166.07 142.43 
M 139.67 193.86 138.92 191.73 138.43 188.75 138.37 185.6 138.1 184.92 136.91 183.38 
M 188.01 152.18 188.04 153.16 187.68 154.92 187 156.67 
M 190.29 196.59 188.35 194.15 187.35 193.23 185.5 191.97 184.55 191.66 183.4 192.12 
M 123.14 173.23 124.87 171.85 125.83 170.28 126.44 170.21 127.81 170.42 
M 174.65 141.72 173.42 142.1 172.83 142.46 171.89 143.43 170.64 144.04 168.28 143.98 167.22 143.59 
M 202.97 158.68 201.46 159.23 199.03 159.33 198.11 159.6 196.47 160.65 195.05 162.31 
M 209.78 176.58 207.16 176.41 206.15 176.71 203.54 177.99 202.72 178.22 197.38 177.98 
M 202.32 131.98 199.76 130.58 195.89 129.31 
M 204.7 171.43 203.18 171.6 201.19 172.55 198.75 173.23 197.6 173.88 196.17 174.97 
M 179.99 166.82 180.29 164.59 180.9 163.36 182.25 162.01 183.86 161.78 
M 211.11 134.02 209.5 132.43 205.98 131.19 
M 215.61 154.99 215.35 153.94 213.62 149.52 213.55 148.41 213.7 147.84 213.98 147.53 
M 203.06 137.9 201.86 137.92 200.12 139.18 199.41 139.51 198.92 140.14 198.61 141.1 
M 204.98 190.96 203.61 191.2 197.21 189.58 194.65 189.35 
M 148.08 157.6 146.65 157.99 146.11 158.38 145.63 159.23 145.6 160.23 
M 123 176.72 128.13 171.89 128.97 171.38 131.82 170.38 
M 180.32 196.19 179.84 196.86 179.76 197.5 180.06 198.75 180.51 199.54 
M 170.08 160.19 168.77 162.64 168.63 163.27 168.74 163.87 
M 214.32 147.5 215.7 146.97 
M 148.4 139.65 150.02 141.13 152.02 142.62 
M 210.93 138.06 209.38 135.97 208.47 135.34 205.96 134.26 204.93 134.14 204.37 133.58 
M 203.32 201.09 202.83 198.66 202.26 197.85 201.09 197.38 197.51 196.73 
M 188.2 157.42 188.2 158.39 189.12 160.48 189.52 161.13 190.02 161.47 
M 160.9 197.3 161.16 197.81 161.28 199 160.75 201.8 160.53 202.13 160.03 202.41 159.52 202.38 159.1 202.11 
M 207.53 126.63 206.86 126.81 205.74 127.46 204.71 128.54 203.77 128.6 202.62 128.2 
M 188.44 164.47 190.97 163.86 193.94 163.87 195.34 164.32 
M 185.48 188.06 185.2 187.34 184.56 186.65 183.19 186.09 180.59 185.54 178.97 184.74 177.52 183.42 176.01 182.3 
M 181.89 151.34 181.18 151.21 179.08 151.23 177.94 151.58 177.2 152.21 176.89 152.8 176.92 153.53 177.27 153.95 
M 172.39 158.45 171.55 159.36 169.88 162.18 169.72 162.68 169.88 163.23 
M 137.25 147.51 136.46 147.57 134.82 147.32 
M 174.31 188.39 174.82 186.3 174.68 183.97 174.52 183.16 173.25 180.82 173.1 179.91 
M 204.66 144.93 201.85 143.9 196.84 142.95 
M 126.66 183.76 124.24 185.7 122.82 186.45 121.26 186.97 119.58 187.17 117.91 186.91 116.37 186.29 115.06 185.35 113.03 183.08 111.41 180.69 109.93 178.16 109.41 176.74 109.19 175.24 109.29 173.73 109.7 172.3 110.43 171 111.43 169.92 112.62 169.09 113.96 168.55 116.78 168.22 114 168.66 112.75 169.3 111.68 170.19 110.84 171.28 110.28 172.51 110.02 173.83 110.05 175.17 110.36 176.46 110.92 177.67 114.28 182.07 116.2 183.89 117.26 184.52 118.39 184.87 119.54 184.94 120.66 184.7 122.8 183.54 124.65 181.75 
M 113.18 183.61 112.57 186.36 111.68 191.88 111.11 197.47 110.52 206.01 110.09 208.9 109.39 211.74 108.45 214.51 107.27 217.17 105.9 219.72 99.92 229.38 96.2 237.03 90.63 246.95 88.31 252.1 87.51 254.8 87 257.59 86.81 260.41 87.17 266.08 86.71 260.41 86.81 257.57 87.23 254.74 87.95 251.98 88.94 249.3 90.12 246.69 95.35 236.61 98.83 228.81 104.49 218.95 105.73 216.45 106.76 213.88 107.57 211.24 108.13 208.55 108.45 205.8 108.75 197.32 109.13 191.59 109.87 185.86 110.4 183.04 
M 113.71 183.96 112.74 186.52 112.16 189.1 111.98 191.74 112.21 194.36 112.9 196.88 114.1 199.2 115.71 201.32 117.64 203.16 119.86 204.65 122.33 205.8 127.62 207.49 130.34 208.1 133.07 208.49 135.82 208.57 138.54 208.24 141.21 207.51 146.46 205.47 151.63 203.17 156.69 200.59 167 195.81 176.89 190.22 167.13 196.06 156.99 201.18 149.47 205.23 141.6 208.67 138.82 209.53 135.91 209.99 132.97 210 130.07 209.69 127.22 209.15 121.64 207.57 118.91 206.4 116.37 204.8 114.11 202.8 112.2 200.45 111.05 198.39 
M 110.98 183.16 111.04 183 
M 113.64 184.44 113.2 185.29 
M 109.27 190.4 107.95 191.51 105.21 192.96 102.28 193.83 99.25 194.21 96.25 194.02 93.36 193.48 82.33 190.71 76.76 189.67 71.18 188.35 68.43 187.55 55.02 182.83 46.83 180.59 44.04 180.12 38.39 179.8 35.56 179.95 30 181.06 35.55 179.86 38.39 179.61 44.08 179.74 46.92 180.12 55.24 182.11 68.78 186.37 71.51 187.07 77.03 188.18 82.66 189.04 93.77 191.44 96.48 191.85 99.15 191.94 101.76 191.52 104.24 190.69 106.49 189.41 108.4 187.68 109.9 185.7 
M 125.66 182.77 126.12 183.58 
M 121.79 179.07 121.72 179.35 121.93 179.24 
M 118.54 174.49 118.29 174.74 117.79 175.95 118.57 175.23 118.96 175.13 
M 115.56 170.14 114.68 170.85 113.86 172.56 114.96 171.35 116.13 170.94 
M 112.74 165.71 111.07 166.97 109.93 169.16 111.35 167.46 113.3 166.69 
M 125.45 182.7 126.57 183.01 
M 121.02 180.87 121.85 180.46 122.02 181.22 
M 116.83 179.17 117.23 178.65 118.04 178.16 117.78 178.8 117.87 179.61 
M 112.66 177.48 113.16 176.64 114.23 175.86 113.71 176.79 113.69 177.89 
M 108.43 175.91 109.09 174.62 110.42 173.57 109.64 174.78 109.52 176.31 
M 104.25 174.28 105.02 172.61 106.61 171.27 105.56 172.76 105.33 174.72 
M 100.06 172.64 100.94 170.6 102.8 168.98 101.49 170.75 101.17 172.98 
M 106.22 179.79 114.23 184.52 
M 119.51 187.16 124.5 189.18 128.84 190.54 137.79 192.75 
M 110.88 182.65 111.05 182.55 
M 212.28 128.41 212.61 128.74 
M 209.98 118.53 219.23 127.78 
M 215.94 116.92 226.17 127.15 
M 221.97 115.37 231.98 125.38 
M 228.06 113.89 238.39 124.22 
M 234.26 112.51 243.86 122.11 
M 240.51 111.18 246.28 116.95 
M 246.83 109.92 252.74 115.84 
M 253.1 108.62 261.68 117.2 
M 259.46 107.4 267.47 115.41 
M 265.96 106.32 272.74 113.11 
M 272.69 105.48 279.96 112.75 
M 279.54 104.75 288.01 113.22 
M 286.52 104.16 293.91 111.54 
M 293.95 104.01 303.59 113.65 
M 301.46 103.94 310.36 112.85 
M 308.94 103.85 315.96 110.87 
M 316.55 103.88 323.47 110.8 
M 324.81 104.57 334.72 114.47 
M 333.8 105.98 343.42 115.59 
M 343.19 107.79 350.03 114.63 
M 352.87 109.9 362.39 119.41 
M 362.5 111.94 369.97 119.42 
M 372.03 113.9 382.31 124.18 
M 381.95 116.24 390.76 125.06 
M 392.39 119.11 400.81 127.52 
M 402.88 122.02 413.89 133.03 
M 413.19 124.76 422.66 134.22 
M 423.41 127.4 430.94 134.93 
M 433.64 130.06 440.73 137.14 
M 443.82 132.66 448.63 137.47 
"/></svg>