<svg xmlns="http://www.w3.org/2000/svg" width="520" height="320"><rect x="0" y="0" width="520" height="320" fill="floralwhite"/><rect x="10" y="10" width="500" height="300" stroke="black" stroke-width="1" fill="none"/><path stroke="black" stroke-width="1" fill="none" stroke-linecap="round" stroke-linejoin="round" d="
M 122.36 116.01 143.95 102.29 154.72 96.1 165.74 90.38 188.21 79.79 199.94 75.69 211.99 72.68 224.34 71.43 236.76 71.16 249.18 71.1 261.25 74.05 272.74 78.76 306.1 95.37 317.03 101.27 327.54 107.89 348.36 121.44 383.29 142.91 
M 383.29 176.46 362.89 191.78 352.83 199.07 342.51 205.97 332 212.59 321.13 218.61 298.93 229.76 287.26 233.99 275.4 237.71 263.32 240.58 250.99 242.13 213.73 241.98 201.67 238.99 189.99 234.78 166.97 225.44 155.55 220.56 144.65 214.61 132.83 206.88 
M 141.76 145.31 146.19 145.53 
M 158.36 145.03 161.54 143.96 
M 175.73 141.22 179.75 141.07 
M 188.22 141.23 190.48 141.43 197.73 142.62 
M 206.38 143.09 210.12 142.7 
M 213.65 142.1 218.75 141.03 224.19 140.29 
M 231.02 138.96 235.71 137.55 237.48 137.37 
M 255.76 137.3 257.4 137.25 260.96 137.46 266.9 138.46 
M 270.89 139.18 272.84 139.49 279.78 140.03 291.07 141.34 297.02 142.21 
M 301.66 143.4 306.72 144.94 
M 311.54 146.26 311.55 146.26 
M 343.94 152.04 353.3 152.03 357.38 151.88 368.94 150.82 376.87 150.45 380.49 149.98 383.29 149.4 
M 138.92 208.9 139.8 211.46 
M 139.4 111.4 137.61 117.3 136.16 121.02 133.44 126.09 
M 148.6 211.88 150.01 215.82 
M 151.83 97.76 151.01 98.84 149.25 102.08 148.65 103.98 
M 147.83 108.15 147.49 112.83 
M 147.11 117.5 146.47 121.92 
M 140.2 142.3 139.49 145.26 
M 153.83 189.37 156.48 199.57 157.91 206.53 158.9 210.25 160.84 216.22 
M 161.17 105.01 159.6 108.36 
M 158.38 112.08 157.89 114.05 157.33 118.45 157.1 128.19 156.87 130.47 
M 154.11 143.42 153.43 145.89 
M 168.13 200.97 172.06 216.34 
M 173.17 220.18 173.79 222.15 176.37 228.6 
M 179.89 87.59 179.49 89.67 179.3 91.95 
M 178.77 96.35 177.97 100.47 
M 175.69 107.93 174.99 109.67 173.28 112.81 169.44 118.72 168.69 120.42 
M 167.54 124.19 167.14 126.24 166.79 130.82 166.17 135.15 165.67 137.13 
M 164.6 141.09 164.05 143.09 
M 177.58 192.2 179.04 199.91 
M 179.91 203.8 180.83 207.72 
M 181.8 211.65 182.83 215.62 
M 184.04 219.68 187.27 228.32 
M 188.98 232.58 189.8 234.7 
M 188.06 104.52 187.24 108.54 
M 185.15 116.11 184.51 117.88 182.9 121.12 181.05 124.14 178.9 126.87 177.03 129.89 176.48 131.8 
M 189.65 192.07 190.66 196.01 
M 191.66 200.13 192.55 204.11 
M 193.32 207.96 194.08 211.78 
M 197.63 224.15 199.33 229.92 200.55 234.97 
M 206.37 83.14 205.52 87.24 
M 203.5 95.06 201.7 100.59 200.97 102.29 
M 198.28 109.27 197.23 113.04 
M 196.34 116.97 195.58 121.04 
M 193.35 128.53 190.98 133.47 189.25 139.18 
M 202.34 193.49 204.59 203.51 
M 205.67 207.72 207.5 214.2 207.91 216.14 
M 212.9 240.08 213.15 241.84 
M 219.02 77.05 218.37 81.35 
M 216.38 89.24 215.11 92.89 
M 212.56 100.13 211.39 103.83 
M 208.33 115.26 206.97 121.17 206.4 125.45 205.54 134.36 203.59 143.24 
M 214.45 191.74 216.2 199.12 
M 217.17 203.24 219.14 211.46 
M 220.02 215.43 221.82 224.64 222.41 229.35 
M 222.79 232.38 223.26 235.41 
M 223.98 238.62 225.06 242.09 
M 230.49 85.49 230.32 87.79 229.9 89.84 
M 226.18 100.85 223.79 105.77 222.43 109.26 218.67 122.51 
M 217.7 126.43 216.9 130.54 
M 215.42 139.22 215.18 141.77 
M 226.45 193.34 227.32 197.35 
M 228.38 201.58 231.68 212.73 232.47 216.61 233.68 223.77 233.95 226.86 234 232.32 234.64 235.57 236.01 239.48 237.14 242.15 
M 238.98 100.8 238.38 102.65 236.14 107.71 
M 233.74 115.03 232.6 118.78 
M 230.13 126.13 229.05 129.98 
M 226.9 137.87 226.41 140 
M 235.88 189.76 235.98 190.14 
M 237.24 194.6 238.53 199.08 
M 239.62 203.33 241.12 211.1 
M 242.89 218.95 246.58 233.88 
M 249.32 241.9 249.41 242.14 
M 250.68 103.08 249.94 107.24 
M 247.79 114.85 247.16 116.67 245.54 119.97 244.55 121.46 
M 242.62 124.49 241.68 126.03 240.01 129.35 237.56 135.1 
M 246.35 188.64 247.86 192.68 
M 250.7 201.89 251.97 210.98 253.76 218.79 256.25 227.05 258.49 233.48 
M 264.69 90.34 263.98 94.53 
M 263.34 98.79 262.6 102.95 
M 261.74 106.98 260.81 110.93 
M 259.77 114.8 259.22 116.71 257.86 120.3 256.96 121.89 
M 255.13 125.05 253.32 128.26 
M 251.64 131.6 248.81 137.37 
M 257.47 186.8 257.61 187.28 
M 259.02 191.9 263.79 207.73 265.02 213.57 
M 265.82 217.38 266.66 221.17 
M 267.63 225.05 268.85 229.12 
M 271.53 237.94 271.72 238.59 
M 275.29 94.89 274.02 100.93 272.1 108.76 270.96 112.51 269.57 116.05 266.41 122.84 261.92 133.5 259.47 137.32 
M 260.88 146.93 261.32 148.42 
M 268.68 184.4 271.61 193.75 
M 273.03 198.34 273.68 200.56 276.92 214.5 
M 277.95 218.5 279.38 224.31 282.83 235.38 
M 285.08 89.3 284.36 91.01 284 93.06 
M 283.05 101.81 282.81 103.99 282.35 105.95 
M 279.83 113.22 277.82 118.65 277.25 120.59 
M 276.18 124.54 274.66 130.6 271.92 139.36 
M 281.31 182.21 281.69 183.66 
M 282.77 187.96 284.67 196.19 
M 285.82 200.45 287.75 206.98 288.19 208.93 
M 290.93 220.54 294.53 231.35 
M 294.68 93.15 293.53 96.82 
M 292.55 100.66 291.06 108.87 
M 290.2 112.92 287.12 124.81 
M 286.23 128.98 285.25 133.07 
M 283.9 137.75 283.09 140.42 
M 292.82 175.5 294.56 181.42 295.58 185.67 296.54 191.39 
M 296.93 194.92 297.59 200.21 300.33 211.93 301.54 216.05 305.34 226.58 
M 304.53 102.62 303.65 106.6 
M 302.94 110.8 302.25 115.04 
M 301.32 119.08 299.58 124.86 298.21 131.07 
M 297.17 135.12 295.22 141.85 
M 304.24 172.82 306.07 178.72 307.1 182.91 308.21 188.69 
M 308.68 192.24 309.64 200.7 310.18 204.15 311 207.84 312.3 211.98 314.4 217.65 
M 316.91 105.74 315.94 109.66 
M 315.15 113.79 312.28 128.4 311.88 133.07 311.83 138.11 311.4 142.79 310.43 146 
M 317.04 173.15 317.63 176.83 
M 318.22 180.47 319.39 186.15 321.44 194.1 322.95 201.33 325.21 210.87 
M 326.77 121.13 325.73 135.03 
M 325.32 139.66 324.52 145.7 
M 327.74 161.45 328.14 163.36 
M 328.86 167.1 330.97 179.56 332.04 184.95 
M 332.81 188.57 334.01 193.98 336.98 203.46 
M 339.08 123.76 339.09 131.07 339.7 141.51 339.66 145.05 
M 343.41 169.17 346.86 188.05 347.69 191.62 348.93 195.83 
M 352.47 131.77 352.97 144.48 
M 352.82 147.26 352.75 148.71 352.16 152.03 
M 355.1 162.08 357.11 168.31 357.82 171.82 359.21 181.5 360.52 187.78 
M 228.34 239.93 229.14 242.11 
M 373.81 158.75 372.49 158.02 371.49 157.11 370.27 155.46 370.02 154.24 370.32 152.51 
M 200 142.7 199.1 142.2 198.23 142.08 195.21 142.65 
M 189.27 210.6 190.65 210.45 191.35 210.65 192.01 210.95 193.26 211.97 193.38 212.75 192.85 213.76 192.67 214.81 
M 185.19 222.56 184.48 222.61 181.08 220.67 179.73 220.49 178.68 220.69 
M 211.51 150.57 211.14 150.14 
M 244.07 209.14 242.25 208.81 240.2 208.95 237.07 208.57 234.06 209.12 231.93 210.04 
M 269.44 212.99 267.63 213.09 267 212.94 264.37 211.16 262.64 209.37 262.23 209.17 261.45 209.1 
M 149.12 152.27 148.32 151.12 146.11 149.12 145.06 147.73 144.51 145.87 143.28 143.24 143.07 141.73 
M 354.23 175.57 351.03 175.4 348.89 175.03 348.06 174.68 
M 339.26 180.2 340.24 180.32 343.97 180.27 346.39 179.63 348.01 179.68 
M 236.78 139.39 234.32 138.76 231.54 138.85 228.84 140.06 228.22 140.69 227.64 141.86 
M 268.42 78.81 268.58 80.29 268.43 82.33 268.59 83.25 
M 212.76 240.29 212.38 239.29 212.21 238.12 210.77 236.03 
M 262.45 148.38 262.77 147.26 263.35 146.26 263.79 145.9 265.34 145.17 
M 134.91 124.42 130.35 121.66 
M 249.39 79.34 249.4 79.71 249.18 80 248.12 80.17 
M 334.2 184.73 333.95 185.59 333.25 186.28 331.97 186.88 328.31 188 326.78 188.85 
M 286.5 234.23 286.17 233.93 
M 221.55 224.06 222.48 224.17 223.45 224.52 225.56 225.9 227.26 227.34 229.53 229.73 230.7 230.67 
M 188.42 148.55 189.54 142.09 
M 226.73 89.4 227.1 91.75 226.97 92.65 225.85 93.71 224.53 94.39 
M 332.07 121.87 330.59 119.09 330.11 117.63 329.59 116.73 
M 140.66 186.89 140.92 186.82 
M 142.23 187.26 143.61 189 143.83 189.44 143.82 189.97 
M 232.41 90.61 230.65 91.38 229.22 92.73 227.52 93.98 227.12 94.12 
M 383.29 163.1 383.28 160.9 382.83 159.6 
M 252.94 232.6 252.21 232.5 251.04 233.57 250.37 233.7 
M 174.92 213.17 170.54 213.36 168.08 213.13 164.99 212.59 
M 317.52 131.02 318.7 131.01 320.02 130.52 321.58 129.74 321.82 129.17 
M 169.23 123.6 171.08 124.91 171.79 126.16 
M 153.57 96.71 153.57 96.71 
M 158.78 93.96 157.32 84.64 157.49 81.23 158.83 75.39 160.84 73.67 163.42 72.09 165.04 69.53 167.01 67.43 168.74 65.22 169.73 62.27 171.27 59.89 173 57.6 175.35 55.86 177.16 53.58 179.78 52.46 183.91 53.19 186.94 52.41 189.63 51.14 190.67 48.04 192.47 45.68 194.72 43.94 200.52 41.8 205.47 39.15 208.53 38.54 214.63 38.32 217.27 37.94 226.81 37.97 232.76 38.62 234.49 37.66 239.52 36.61 241.78 37.43 245.27 39 251.15 37.86 254.62 37.45 257.92 38.08 260.27 37.94 263.34 38.51 266.05 38.68 269.18 39.28 271.6 39.15 276.94 41.83 279.95 43.55 282.37 44.26 284.62 44.68 287.9 47.04 291.68 50.52 293.74 53.46 295.12 55.99 296.38 57.87 302.64 65.49 303.79 67.19 303.94 68.64 305.4 71.81 309.46 77.82 311.95 84.03 315.16 89.22 317.24 93.61 315.94 100.66 
M 309.53 97.05 309.53 97.04 
M 157.91 94.42 159.84 93.16 159.93 91.06 159.21 90.37 
M 162.25 92.13 163.79 90.87 164.2 89.04 163.51 87.1 163.13 85.28 
M 166.66 89.95 167.54 88.63 167.26 86.19 166.65 83.89 166.63 81.49 166.13 78.33 165.58 72.35 
M 171.09 87.85 171.38 86.3 171.15 83.55 170.51 81.13 170.67 75.84 
M 175.52 85.73 175.98 83.87 175.83 81.33 174.99 78.89 174.37 76.43 174.75 74.36 173.81 71.09 173.59 67.91 175.34 65.57 174.76 62.7 172.46 59.44 
M 179.92 83.55 180.44 81.42 179.23 76.87 178.18 74.4 177.9 71.91 178.69 69.32 
M 184.32 81.36 185.13 79.65 183.94 74.06 183.76 69.83 
M 188.87 79.53 190.06 77.72 189.67 74.85 188.69 72.25 188.89 69.54 189.56 67.59 189.47 63.37 
M 193.44 77.74 194.25 75.89 194.64 73.81 194.83 71.59 194.08 66 194.02 63.12 194.56 61.51 195.55 59.7 195.98 57.14 194.85 50.07 
M 198.11 76.22 199.63 74.56 200.33 72.47 200.41 70.3 199.91 67.15 199.7 64.12 199.86 61.67 200.78 59.63 201.54 56.4 201.94 50.39 
M 202.83 74.86 204.16 73.03 204.82 70.8 205.14 62.86 204.6 60.26 
M 207.59 73.63 209.32 71.32 210 68.75 210.85 64.55 210.44 61.89 209.5 59.15 209.77 57.24 210.64 54.62 210.17 50.2 210.2 46.12 209.74 42.14 209.46 41.74 
M 212.38 72.59 214.27 70.97 214.74 68.4 215.51 66.73 216.04 64.65 215.74 61.05 216.03 57.28 216.7 54.57 
M 217.22 71.76 219.3 70.07 220.65 68.09 221.41 66.01 223.13 56.59 223.47 53.3 223.47 51.02 224.55 49.1 
M 222.13 71.53 224.4 70.45 225.83 68.33 228.26 63.86 228.2 61.24 226.91 56.72 229.82 49.34 232.08 44.23 
M 227.03 71.32 229.01 70.26 232.62 63.03 233.23 60.31 232.72 57.65 
M 231.94 71.24 233.76 69.86 234.99 67.23 236.1 62.07 237.03 59.68 237.66 56.18 238.22 51.81 239.44 50.17 
M 236.85 71.16 238.92 69.68 240 67.08 240.52 64.74 241.3 62.65 241.57 59.04 242.42 55.88 243.66 53.48 243.85 51.24 245.14 49.15 245.56 45.39 
M 241.76 70.95 243.43 69.21 246.45 63.15 247.77 60.12 247.59 54.76 249.55 50.86 
M 246.66 70.74 248.71 69.19 250.24 67.4 251.07 65.17 252.48 62.36 254.01 60.38 256.85 53.93 256.89 51.39 
M 251.51 71.54 254.16 70.1 257.23 66.23 259.01 64.41 260.19 62.03 262.5 58.02 263.56 54.8 
M 256.33 72.44 259.28 70.95 263.08 66.99 264.83 64.72 269.21 59.7 270.86 56.86 272.14 55.28 273.58 52.95 274.3 50.92 276.54 49.44 
M 261 73.96 263.89 71.93 266.14 69.66 267.94 68.2 270.5 66.45 272.68 64.54 274.35 61.89 275.7 58.73 277.57 57.72 279.41 55.71 280.77 53.52 
M 265.6 75.67 268.49 73.99 272.2 69.64 277.03 66.32 279.49 64.36 281.91 62.09 284.02 59.07 285.89 57.26 288.19 55.49 
M 270.14 77.56 272.92 76.15 277.15 71.24 282.08 68.75 284.63 66.82 286.96 63.16 289.85 60.54 
M 274.6 79.61 277.56 78.74 279.94 76.51 284.81 74.04 290.43 69.29 294.52 64.26 297.91 63.43 
M 279.04 81.7 281.7 81.09 285.16 79.13 288.02 78.04 289.86 76.63 
M 283.4 83.96 287.06 83.17 289.58 81.55 292.12 79.48 295.47 77.96 297.2 76.16 298.96 73.54 
M 287.75 86.22 291.04 85.5 293.96 83.41 296.77 81.78 299.54 80.5 302.28 78.24 
M 292.13 88.45 296.62 87.96 299.57 85.87 301.45 84.31 
M 296.52 90.66 301.52 91.19 303.25 90.06 
M 300.91 92.84 305.97 93.66 311.01 91.51 313.46 89.59 
M 305.33 94.99 310.74 96.56 
M 138.72 151.93 386.98 141.83 387.03 142.81 138.88 155.47 
M 138.82 155.86 357.76 158.63 357.75 159.62 138.79 159.4 
M 138.91 159.79 327.95 172.33 327.89 173.31 138.7 163.32 
M 139 163.73 297.8 182.89 297.69 183.87 138.61 167.24 
M 139.09 167.67 267.56 190.32 267.4 191.29 138.51 171.16 
M 139.18 171.61 237.47 194.63 237.26 195.59 138.42 175.07 
M 139.27 175.56 207.78 195.85 207.52 196.8 138.33 178.97 
M 139.36 179.52 178.72 194.03 178.41 194.96 138.24 182.87 
M 139.45 184.48 150.54 190.22 150.18 191.13 138.16 187.77 
M 362.21 144.08 355.76 146.14 352.62 147.34 349.58 148.72 346.65 150.31 343.84 152.1 341.12 154.07 335.87 158.36 
M 335.86 159.59 329.4 160.99 326.25 161.86 323.18 162.92 320.2 164.19 317.31 165.68 314.51 167.36 309.05 171.08 
M 308.97 172.31 302.58 173.03 299.44 173.58 296.36 174.32 293.35 175.28 290.42 176.47 287.55 177.85 281.92 180.98 
M 281.78 182.21 275.5 182.27 272.4 182.49 269.34 182.92 266.34 183.57 263.38 184.45 260.46 185.52 254.71 188.06 
M 254.51 189.28 248.4 188.7 245.36 188.61 242.35 188.71 239.37 189.05 236.41 189.62 233.47 190.4 227.64 192.33 
M 227.38 193.54 221.48 192.34 218.54 191.93 215.6 191.73 212.66 191.76 209.73 192.03 206.79 192.5 200.93 193.82 
M 200.6 195.02 194.98 193.22 192.15 192.51 189.31 192.01 186.44 191.74 183.55 191.7 180.64 191.86 174.79 192.58 
M 174.39 193.75 169.05 191.59 166.35 190.7 163.61 190.02 160.84 189.56 158.03 189.34 155.18 189.31 149.43 189.65 
M 358.97 145.07 352.62 147.34 349.58 148.72 346.65 150.31 343.84 152.1 338.47 156.18 
M 333.28 146.31 327.68 148.31 324.99 149.53 322.41 150.94 319.92 152.52 315.18 156.12 
M 307.6 147.55 302.73 149.28 298.16 151.56 296 152.93 291.88 156.06 
M 281.91 148.78 277.78 150.26 275.81 151.15 272.08 153.35 268.59 156 
M 256.22 150.02 251.22 151.96 248.16 153.76 245.29 155.94 
M 230.54 151.25 227.89 152.2 225.41 153.43 222 155.88 
M 332.61 160.25 326.25 161.86 323.18 162.92 320.2 164.19 317.31 165.68 311.76 169.18 
M 305.48 160.16 300.01 161.54 297.37 162.45 294.81 163.55 292.32 164.83 287.55 167.84 
M 278.35 160.07 273.77 161.22 271.55 161.99 267.33 163.98 263.33 166.5 
M 251.21 159.98 247.52 160.91 245.74 161.52 242.34 163.13 239.12 165.15 
M 224.08 159.88 221.28 160.59 218.62 161.62 214.9 163.81 
M 305.76 172.63 299.44 173.58 296.36 174.32 293.35 175.28 290.42 176.47 284.72 179.37 
M 276.54 171.04 271.33 171.82 268.79 172.43 263.89 174.2 259.19 176.6 
M 247.33 169.44 243.22 170.06 239.26 171.17 237.35 171.94 233.65 173.83 
M 218.11 167.85 213.64 168.65 210.82 169.67 208.12 171.05 
M 278.63 182.2 272.4 182.49 269.34 182.92 266.34 183.57 263.38 184.45 257.58 186.75 
M 246.01 178.76 241.23 178.98 236.58 179.81 234.31 180.48 229.87 182.25 
M 213.38 175.32 208.42 175.7 205.24 176.51 202.15 177.74 
M 251.45 188.95 245.36 188.61 242.35 188.71 239.37 189.05 236.41 189.62 230.55 191.33 
M 225.17 184.85 220.5 184.59 215.9 184.93 213.63 185.37 209.14 186.67 
M 198.88 180.75 195.63 180.57 192.44 180.8 187.74 182.02 
M 224.43 192.9 218.54 191.93 215.6 191.73 212.66 191.76 209.73 192.03 203.86 193.12 
M 194.46 186.74 190.63 186.11 186.81 186 184.9 186.18 181.09 186.89 
M 197.79 194.08 192.15 192.51 189.31 192.01 186.44 191.74 183.55 191.7 177.72 192.18 
M 195.16 236.8 199.17 242.48 200.28 247.1 205.86 264.85 204.05 267.06 202.54 269.67 199.84 271.12 197.94 273.38 195.53 272.07 190.83 268.74 188.69 266.72 186.23 263.78 184.59 263.39 182.08 262.51 166.48 248.31 157.82 232.87 156.96 226.66 153.57 219.68 
M 190.59 235.01 193.21 238.72 195.07 242.05 195.82 245.65 197.2 249.7 201 256.11 202.17 258.58 203.27 261.66 
M 186.02 233.22 188.88 236.88 191.01 239.98 191.35 243.1 192.14 246.75 193.14 250.17 
M 181.49 231.31 183.15 235.41 185.09 238.81 186.35 241.41 186.67 244.4 187.48 247.51 187.62 250.86 189.38 252.89 
M 176.99 229.36 178.87 233.98 180.68 240.7 183.47 245.75 184.99 249.25 
M 172.44 227.5 174.5 231.84 175.63 235.27 177.2 242.22 178.9 245.65 
M 167.85 225.77 169.73 229.71 170.43 233.39 171.89 236.64 172.79 239.53 173.56 243.14 174.85 246.33 175.93 248.89 177.48 251.45 178.53 253.63 179.85 256.85 181.55 259.51 
M 163.27 224 164.82 228.52 165.83 232.04 166.55 235.55 167.73 238.12 168.61 241.23 170.14 244.92 
M 158.78 222 160.56 227.19 161.49 231.25 164.66 237.83 165.66 241.19 165.93 244.23 
M 330.32 213.64 338 221.54 341.38 224.09 336.52 226.74 333.36 227.72 331.77 230.29 330.68 233.3 330.29 236.28 329.32 239.01 328.32 244.59 328.4 247.64 329.38 255.13 329.47 258.33 327.81 260.74 325.97 269.71 324.97 267.12 322.95 266.27 319.97 264.02 317.29 261.59 315.48 258.86 313.65 256.64 311.75 255.31 307.84 250.87 305.41 248.58 302.86 246.46 299.14 243.71 296.62 240.78 294.05 238.16 291.56 236.41 288.74 233.52 
M 326.01 215.97 330.58 221.01 
M 321.69 218.31 325.9 222.18 328.34 225.28 331.85 227.45 
M 317.33 220.57 321.22 224.8 324.03 227.2 326.84 228.8 329.79 230.82 
M 312.94 222.78 323.82 231.8 325.48 233.52 328.73 235.88 
M 308.56 224.98 316.47 231.3 319.27 233.8 
M 304.16 227.17 308.28 230.36 315.26 235.35 316.47 238.46 318.53 240.74 321.9 243.05 
M 299.77 229.36 303.3 232.57 309.73 237.62 312.65 240.29 314.85 242.42 316.62 244.91 318.69 246.36 321.19 246.94 322.52 249.97 
M 295.19 231.14 301.07 236.87 304.37 239.15 307.26 242.1 309.89 244.4 312.12 246.92 314.74 249.32 316.55 249.85 317.9 251.05 
M 382.31 142.31 385.28 141.44 388.02 140.22 393.51 137.04 396.57 135.75 398.99 134.16 404.25 131.64 406.75 129.89 408.91 128.07 413.83 124.65 416.83 123.15 421.29 119.31 424.03 118.69 429.24 115.51 432.04 114.42 437.51 111.67 440.36 107.22 445.37 102.58 448.53 101.07 451.52 100.01 456.62 96.42 460.38 94.26 464.77 93.16 468.7 91.6 470.83 90.49 473.13 89.79 479.23 84.58 481.28 82.52 483.3 81.2 484.84 80.73 490 76.08 481.38 90.74 477.83 95.39 476.99 98.66 475.44 101.21 473.36 107.34 471.68 109.81 469.79 112.08 466.91 113.37 464.85 115.47 463.33 118.11 461.52 120.47 455.86 123.14 454.23 129.62 451.59 134.66 449.19 136.37 445.88 137.17 443.56 138.97 439.68 143.36 438.41 146.26 435.93 147.94 434.44 150.62 432.47 152.59 430.66 154.73 428.24 156.4 426.12 158.45 424.97 161.45 424.17 164.54 424.34 167.15 428.6 172.97 429.43 175.89 430.45 178.36 431.86 180.61 432.16 182.33 433.21 184.78 433.94 187.11 435.93 190.76 437.06 193.55 437.49 196.74 437.4 199.47 437.86 202.16 440.43 209.03 440.44 211.1 441.24 214.86 444.15 220.22 439.67 218.43 436.86 218.09 434.55 216.3 429.68 211.96 427.34 208.94 424.02 207.58 421.15 206.1 418.86 203.81 417.32 201.43 414.65 199.98 411.52 198.58 405.94 194.3 403.54 192.7 401.48 190.4 397.38 186.62 394.27 184.73 391.31 183.43 388.56 181.8 385.95 180.04 382.31 177.19 
M 388.28 142.26 391.05 140.91 393.61 139.44 396.64 138.3 399.68 136.74 404.86 134.41 407.41 132.66 409.88 130.31 417.21 126 419.73 124.84 422.36 124.08 425.38 123.59 427.91 121.88 429.49 120.54 433.02 119.4 436.02 117.74 438.53 116.57 441.21 115.06 443.47 112.15 
M 391.38 143.22 399.68 138.97 402.65 138.23 404.76 137.51 407.96 135.92 410.68 133.87 416.93 130.08 418.7 129.75 421.61 128.17 424.63 127.8 427.37 126.97 
M 391.66 145.3 394.64 144.38 397.38 142.96 400.09 141.89 405.12 140.34 411.3 137.47 414.43 135.2 417.45 134.33 420.2 134.2 423.5 132.92 426.57 132.76 429.48 131.08 432.27 130.82 434.2 129.41 
M 382.31 149.29 388.85 148.22 392.27 147.3 395.25 146.8 398.17 145.9 400.99 145.52 405.95 143.51 408.67 142.01 412.02 140.99 415.59 139.45 418.24 137.88 421.29 138.11 425.04 136.89 428.18 136.29 430.43 136.14 433.51 136.27 436.75 135.55 439.22 134.19 442.5 132.95 446.9 130.73 449.35 129.24 449.83 128.06 
M 385.8 150.64 388.8 150.02 395.67 149.15 398.6 148.5 404.57 148.3 407.64 147.54 410.5 145.95 416.75 143.45 419.06 141.69 426.12 140.08 429.12 139.71 
M 382.31 152.77 385.87 152.79 389.07 152.5 395.83 151.44 399.57 151.06 402.09 151.47 405.01 151.52 414.95 149.39 421.79 146.72 424.86 145.94 427.75 145.79 431.02 144.77 440.02 143.7 
M 385.8 155.13 389.69 154.75 396.19 154.45 399.53 153.79 402.41 154.11 405.41 154.71 408.96 154.93 413.1 154.3 
M 393.68 157.41 396.82 157.26 399.93 156.67 403.12 156.72 405.75 157.19 
M 382.31 158 385.8 159.18 393.81 159.86 397.46 160.01 400.42 159.58 407.56 159.01 410.6 159.77 414.15 160.37 417.07 161.15 422.76 161.66 
M 389.94 161.57 397.64 162.52 408.16 161.97 411.64 162.97 
M 386.04 163.24 397.27 164.11 400.25 165.37 403.7 166.13 407.28 165.82 410.06 166.65 413.11 167.96 415.63 168.33 
M 382.31 163.24 386.38 165.05 393.35 165.58 397.09 166.43 402.76 168.97 406.35 169.03 409.12 169.92 411.74 169.91 
M 393.34 168.15 396.59 168.63 404.65 171.57 408.38 172.54 410.91 172.57 415 175.08 
M 386.24 168.83 396.23 171.29 402.2 173.44 404.64 174.75 407.93 175.81 411.22 176.18 414.24 178.45 417.94 179.45 420.86 179.25 
M 382.31 168.47 386.06 170.7 389.81 171.82 392.89 172.93 396.39 173.71 398.64 174.97 400.76 177 410.73 179.62 414.89 181.01 418.99 181.12 421.23 182.48 423.55 183.13 
M 389.47 173.54 395.32 176.08 400.91 179.05 404.46 180.27 409.6 183.14 413.67 184.5 417.21 186.23 420.07 186.95 423.18 186.67 
M 386.17 174.38 389.25 175.59 391.98 177.17 394.45 178.2 400.95 181.49 406.78 185.13 408.92 186.01 411.19 188 414.78 190.35 417.49 191.07 420.74 190.58 424.57 190.43 428.15 191.78 430.46 193.88 432.97 196.68 
M 382.31 173.7 386.08 176.17 391.6 179.34 397.04 181.87 399.69 183.63 406.1 187.29 412.73 192.72 416.03 194.62 
M 382.31 175.44 386.03 178.13 388.74 179.87 391.45 181.41 397.19 184.28 399.69 186.17 402.14 187.72 406.8 191.68 409.46 193.47 412.23 195.73 415.26 197.87 
M 45.86 163.88 46.3 162.35 47.51 159.33 49.51 155.94 52.67 152.76 56.82 149.72 65.89 143.9 70.25 140.37 75.36 136.52 81.05 132.86 93.91 126.51 100.14 123.8 111.48 119.53 122.36 116.09 126.3 120.4 128.22 125.03 130.4 129.62 132.83 134.19 134.78 138.81 136.03 143.51 137.87 152.99 137.71 157.86 137.94 162.68 137.88 167.53 136.75 177.35 137.14 182.15 137.16 191.84 136.64 196.74 135.39 201.73 132.83 206.79 120.09 206.02 110.77 204.68 102.47 203.13 94.73 201.13 87.42 198.87 74.74 194.04 69.08 191.38 63.36 187.96 
M 60.19 185.93 55.55 182.56 52.3 179.51 49.92 176.34 48.76 174.4 
M 113.15 146.07 113.64 150.14 112.12 157.93 111.14 161.08 
M 108.67 168.36 108.92 173.51 110.29 179.27 110.85 182.73 110.64 186.81 102.2 186.64 90.1 185.99 84.2 185.22 78.28 184.04 72.7 182.38 67.53 180.42 
M 60.1 185.84 49.29 174.9 45.51 171.5 43.82 169.71 42.35 167.81 42.32 165.28 44.09 163.66 46.56 163.96 55.16 175.84 63.55 187.78 
M 62.97 188.55 58.58 186.96 52.12 184.33 35.95 177.44 31.41 175.24 30 173.29 30.52 170.87 32.83 169.71 35.2 170.45 43.54 175.85 60.21 185.91 63.41 187.67 
M 70.84 166.99 69.06 160.22 69.57 153.24 72.32 146.8 77.01 141.6 83.13 138.21 90.02 136.99 96.94 138.07 103.13 141.34 107.92 146.45 110.8 152.83 111.45 159.8 109.79 166.6 106.02 172.5 100.54 176.86 93.94 179.2 86.94 179.26 80.3 177.06 74.73 172.81 70.84 166.99 
M 70.59 166.39 69.73 163.9 69.19 161.32 68.97 158.69 69.08 156.06 69.51 153.46 70.27 150.93 71.33 148.52 72.67 146.26 74.29 144.18 76.16 142.31 78.24 140.69 80.5 139.34 82.91 138.29 85.44 137.53 88.04 137.1 90.67 136.99 93.3 137.21 95.88 137.75 98.37 138.61 
M 72.4 165.64 71.62 163.38 71.13 161.04 70.94 158.65 71.03 156.26 71.43 153.9 72.11 151.61 73.07 149.42 74.3 147.36 76.17 145.07 
M 77.27 143.97 79.34 142.32 81.4 141.09 83.59 140.13 85.88 139.45 88.24 139.05 90.63 138.95 93.02 139.15 95.36 139.64 97.62 140.42 
M 74.21 164.89 73.52 162.86 73.08 160.75 72.9 158.61 72.99 156.47 73.65 153.3 
M 78.73 145.29 80.45 143.94 82.3 142.84 84.27 141.97 86.33 141.36 88.45 141.01 90.59 140.92 92.73 141.1 94.84 141.54 96.87 142.23 
M 76.03 164.14 75.41 162.34 75.02 160.47 74.86 158.57 74.94 156.67 75.48 154.03 
M 79.96 146.83 81.56 145.56 83.2 144.58 84.94 143.82 86.77 143.27 88.65 142.96 90.55 142.88 92.45 143.04 94.32 143.43 96.12 144.05 
M 77.84 163.39 77.3 161.81 76.96 160.19 76.83 158.53 76.89 156.87 77.34 154.65 
M 81.2 148.36 82.67 147.18 84.1 146.33 85.62 145.66 87.21 145.19 88.85 144.91 90.51 144.85 92.17 144.98 93.79 145.32 95.37 145.86 
M 79.66 162.63 79.2 161.29 78.79 158.49 78.85 157.07 79.18 155.34 
M 82.44 149.89 83.78 148.8 85 148.08 87.65 147.1 90.47 146.81 93.27 147.22 94.62 147.68 
M 82.48 161.75 81.76 159.04 81.99 156.2 
M 84.31 152.3 84.94 151.59 87.39 150.24 90.15 149.75 92.92 150.18 95.39 151.49 97.31 153.53 98.46 156.08 98.72 158.87 98.06 161.59 96.55 163.95 94.36 165.69 91.72 166.63 88.92 166.66 86.26 165.78 84.03 164.08 82.48 161.75 
M 82.19 156.26 81.93 156.78 
M 86.4 150.79 85.15 153.29 
M 83.48 156.63 81.94 159.71 
M 88.22 150.09 86.09 154.35 
M 84.74 157.05 82.45 161.63 
M 89.84 149.8 87.05 155.38 
M 86.18 157.11 83.27 162.94 
M 91.25 149.92 88.01 156.4 
M 87.8 156.82 84.13 164.15 
M 92.62 150.13 85.2 164.97 
M 93.83 150.66 86.27 165.78 
M 94.99 151.28 87.53 166.2 
M 96.02 152.16 88.79 166.62 
M 96.98 153.18 90.25 166.65 
M 97.77 154.56 91.74 166.62 
M 98.46 156.12 93.53 165.99 
M 98.69 158.6 95.67 164.65 
M 49.38 175.43 53.81 179.86 
M 46.81 161.08 50.18 164.45 
M 48.78 157.16 52.15 160.53 
M 51.47 153.96 55.34 157.82 
M 54.69 151.28 58.61 155.2 
M 58.16 148.86 62.22 152.92 
M 61.76 146.57 66.61 151.42 
M 65.34 144.26 69.81 148.73 
M 68.65 141.67 72.4 145.43 
M 71.95 139.09 74.98 142.11 
M 75.31 136.56 79.16 140.41 
M 78.89 134.25 82.95 138.31 
M 82.62 132.08 86.91 136.37 
M 86.54 130.11 91.67 135.24 
M 90.5 128.17 95.77 133.45 
M 94.48 126.26 98.58 130.36 
M 98.58 124.48 104.44 130.33 
M 102.77 122.77 108.13 128.13 
M 107.02 121.13 111.46 125.57 
M 111.35 119.57 116.08 124.3 
M 115.79 118.12 119.87 122.19 
M 120.31 116.75 125.47 121.9 
M 118.67 202.4 119.48 202.74 122.66 202.96 
M 135.66 188.05 136.15 187.65 137.08 187.24 
M 93.82 126.56 94.26 126.98 94.56 127.69 94.45 128.95 93.38 132.24 92.27 134.2 
M 130.49 129.79 129.74 129.78 129.21 129.95 127.93 131.04 126.79 131.65 126.45 132.11 
M 113.88 118.81 113.84 118.76 
M 109.56 121.45 108.39 120.64 
M 58.87 179.17 56.8 177.26 55.49 175.62 55.28 175.13 55.3 174.45 55.93 172.37 
M 110.41 175.35 106.87 174.41 104.78 174.2 104.24 173.92 
M 75.01 189.91 76.22 189.41 76.77 188.98 78.04 187.51 82.53 184.17 83.61 182.8 
M 70.93 150.05 70.4 151 70.21 151.73 
M 91.39 184.29 88.34 184.67 85.89 184.72 
M 134.88 158.45 136.19 159.92 137.57 162.15 137.76 162.82 137.43 163.52 
M 125.87 156.87 124.66 157.02 123.13 156.82 122.82 156.93 122.77 157.3 
M 92.83 135.01 92.13 136.11 92.15 136.66 92.35 136.85 
M 100.58 183.35 101.38 180.54 101.22 177.33 100.95 176.53 
M 122.37 205.35 121.14 205.5 119.78 205.28 119.17 204.89 118.45 204.12 118.22 203.71 118.27 203.32 
M 78.85 188.41 80.23 186.86 82.72 184.72 84.34 182.75 85.06 182.43 85.52 182.55 
M 137.14 174.09 134.61 173.15 130.73 172.7 128.93 172.04 
M 96.02 179.67 96.41 179.24 96.8 178.18 
M 78.54 185.94 79.82 185.39 81.02 184.54 82.39 183.23 83.47 181.83 84.07 181.42 85.33 181.13 85.81 181.56 85.97 182.23 
M 79.8 135.29 81.46 136.31 85.5 136.42 86.27 136.6 87.89 137.36 
M 87.81 129.49 89.68 130.58 90.68 131.31 91.35 132.04 91.84 133.44 91.93 136.25 
M 135.34 155.41 135.81 156.37 136.46 157.2 137.73 158.26 
M 119.5 148.71 117.87 150.4 117.41 152.18 
M 131.06 172.1 122.32 171.37 
M 126.65 177.12 124.97 177.36 124.86 178.61 
M 108.36 147.42 109.37 147.66 
M 119.13 203.84 119.17 203.32 119.68 203.02 122.28 202.92 
M 105.09 128.18 104.19 128.01 99.02 128.04 96.6 127.65 95.81 127.67 95.3 127.84 95 128.22 94.07 130.52 
M 135.18 178.34 134.61 177.46 134.07 177.04 129.93 174.8 129.54 174.3 128.87 172.76 128.59 172.48 127.76 172.16 
M 122.4 136.22 122.68 137.39 122.55 140.31 122.9 142.55 
M 136.9 171.09 135.77 170.8 134.63 170.76 130.7 171.89 129.93 171.95 124.65 171.56 
M 105.59 130.79 104.72 130.63 103.68 130.69 102.46 130.88 99.79 131.64 97.39 131.69 96.68 131.93 93.88 133.58 
M 119.15 175.17 120.69 175.42 123.11 176.28 123.41 176.62 
M 59.32 170.85 59.51 170.19 60.5 169.39 61.54 169.04 62.74 168.93 64.09 169.27 64.59 169.77 65.07 170.92 
M 110.92 183.3 110.75 182.72 109.98 181.99 106.83 181.12 104.99 180.21 
M 116.79 145.2 117.05 146.12 116.94 146.96 114.98 150.2 115.01 151.07 
M 49.65 158.09 50.78 159.86 52.92 161.98 53.92 162.12 54.49 161.92 54.9 161.62 55.33 160.89 
M 134.58 154.87 132.18 155.03 129.36 154.51 125.65 154.35 
M 56.84 183.52 56.28 182.84 
M 73.16 138.18 73.59 139.51 73.72 142.68 
M 117.63 188.3 115.38 185.2 115.23 184.57 115.36 184.07 116.05 183.33 117.01 182.79 121.01 182 
M 76.95 192.82 78.52 191.44 80.8 190.18 81.95 189.99 84.03 190.71 
M 115.37 189.29 114.4 188.44 113.3 187.86 111.9 187.55 110.98 187.79 109.28 188.83 107.12 189.67 
M 122.42 148.85 121.58 149.33 119.92 149.64 118.06 151.11 
M 71.61 171.85 70.48 174.4 69.22 176.15 68.57 176.77 
M 122.94 167.02 122.47 167.33 122.27 167.3 
M 114.33 119.36 114.06 118.68 
M 116.8 173.61 117.62 173.42 118.39 172.95 120.52 170.28 121.43 169.57 
M 100.4 183.44 101.3 179.94 101.18 177.53 100.89 176.58 
M 60.59 168.74 62.9 168.38 64.15 168.83 64.65 169.33 65.29 170.57 65.54 171.62 65.31 172.09 
M 81.31 132.73 86.87 135.1 88.33 136.03 89.28 137.12 
M 46.63 181.99 53.36 186.13 58.54 188.73 63.89 191.01 69.41 193.02 80.78 196.43 
M 123.71 115.16 131.44 122.9 
M 128.52 112.12 135.99 119.59 
M 133.33 109.07 140.46 116.21 
M 138.11 106 145.26 113.15 
M 142.89 102.92 149.87 109.9 
M 147.85 100.03 154.47 106.65 
M 152.82 97.14 162.11 106.43 
M 157.94 94.4 165.88 102.35 
M 163.08 91.69 173.89 102.5 
M 168.38 89.13 177.74 98.49 
M 173.71 86.61 183.99 96.89 
M 178.97 84.02 185.99 91.03 
M 184.22 81.41 192.1 89.29 
M 189.83 79.16 196.82 86.15 
M 195.49 76.97 205.65 87.12 
M 201.6 75.21 208.85 82.47 
M 207.82 73.58 218.91 84.67 
M 214.27 72.18 225.01 82.91 
M 221.51 71.56 230.3 80.36 
M 229.09 71.29 237.61 79.81 
M 236.82 71.16 243.43 77.77 
M 244.35 70.84 252.64 79.13 
M 253.23 71.86 262.26 80.88 
M 264.49 75.26 270.72 81.5 
M 278.5 81.41 288.71 91.63 
M 294.67 89.73 305.47 100.53 
M 310.24 97.44 318.23 105.44 
M 330.43 109.77 341.74 121.09 
M 352.62 124.11 363.02 134.51 
M 373.06 136.69 382.46 146.1 
M 231.42 141.05 231.9 141.48 232.04 142.46 231.68 143 231.2 142.57 231.06 141.6 231.42 141.05 
M 232.16 141.59 231.77 142.11 230.81 142.32 230.24 142.01 230.63 141.49 231.59 141.28 232.16 141.59 
M 236.57 126.6 236.27 127.17 235.35 127.53 234.74 127.32 235.04 126.74 235.95 126.38 236.57 126.6 
M 236.39 127.1 235.74 127.17 234.93 126.62 234.76 125.99 235.41 125.92 236.22 126.47 236.39 127.1 
M 225 128.85 224.48 128.46 224.26 127.5 224.57 126.93 225.09 127.32 225.31 128.28 225 128.85 
M 225.26 127.31 225.02 127.91 224.15 128.37 223.52 128.22 223.76 127.61 224.63 127.16 225.26 127.31 
M 247.85 135.91 247.49 135.37 247.61 134.4 248.09 133.96 248.45 134.5 248.33 135.48 247.85 135.91 
M 247.22 134.88 247.85 134.73 248.73 135.18 248.97 135.78 248.34 135.94 247.46 135.48 247.22 134.88 
M 213.74 143.49 214.36 143.7 214.85 144.55 214.72 145.19 214.11 144.98 213.62 144.13 213.74 143.49 
M 213.87 144.99 214 144.36 214.77 143.76 215.42 143.79 215.3 144.43 214.52 145.03 213.87 144.99 
M 260.51 130.57 259.87 130.65 259.05 130.1 258.88 129.48 259.52 129.4 260.34 129.94 260.51 130.57 
M 259.32 129.37 259.8 129.81 259.91 130.79 259.54 131.32 259.07 130.88 258.96 129.91 259.32 129.37 
M 262.61 144.67 263.25 144.56 264.09 145.08 264.29 145.7 263.65 145.8 262.81 145.29 262.61 144.67 
M 263.96 145.73 263.4 145.41 263.06 144.49 263.29 143.88 263.86 144.2 264.19 145.12 263.96 145.73 
M 254.19 120.43 253.54 120.43 252.79 119.79 252.7 119.15 253.35 119.15 254.09 119.79 254.19 120.43 
M 253.23 120.51 253.22 119.86 253.84 119.1 254.48 118.99 254.5 119.64 253.87 120.4 253.23 120.51 
M 243.21 119.81 242.56 119.77 241.86 119.09 241.8 118.44 242.45 118.48 243.15 119.16 243.21 119.81 
M 243.03 119.65 242.46 119.35 242.09 118.44 242.31 117.83 242.88 118.13 243.25 119.04 243.03 119.65 
M 239.05 138.38 239.59 138.74 239.85 139.69 239.56 140.27 239.03 139.91 238.77 138.96 239.05 138.38 
M 239.61 138.64 239.54 139.29 238.82 139.96 238.17 139.98 238.24 139.33 238.96 138.66 239.61 138.64 
M 226.98 112.28 226.9 112.92 226.16 113.57 225.51 113.58 225.6 112.94 226.33 112.29 226.98 112.28 
M 226.97 112.73 226.42 113.08 225.45 112.96 225.02 112.48 225.56 112.12 226.53 112.24 226.97 112.73 
M 221.33 135.12 221.77 135.6 221.81 136.58 221.4 137.08 220.96 136.61 220.92 135.62 221.33 135.12 
M 221.27 136.84 221.15 136.2 221.66 135.36 222.28 135.16 222.39 135.8 221.88 136.64 221.27 136.84 
M 211.17 132.71 211.07 133.35 210.32 133.99 209.67 133.99 209.77 133.34 210.52 132.71 211.17 132.71 
M 209.68 133.43 210.27 133.17 211.21 133.45 211.56 134 210.97 134.26 210.03 133.98 209.68 133.43 
M 242.72 106.33 243.07 105.78 244.01 105.5 244.6 105.77 244.25 106.32 243.31 106.6 242.72 106.33 
M 243.95 106.74 243.53 106.25 243.55 105.26 243.98 104.78 244.4 105.28 244.38 106.26 243.95 106.74 
M 272.59 120.19 272.56 120.83 271.87 121.54 271.22 121.59 271.26 120.94 271.95 120.24 272.59 120.19 
M 271.48 120.28 271.99 120.67 272.2 121.63 271.89 122.2 271.37 121.81 271.16 120.85 271.48 120.28 
M 260.53 103.67 260.61 103.02 261.33 102.36 261.98 102.35 261.91 102.99 261.18 103.65 260.53 103.67 
M 260.52 103.15 261.09 102.84 262.05 103.04 262.44 103.56 261.88 103.87 260.92 103.67 260.52 103.15 
M 188.02 144.91 187.69 144.35 187.85 143.38 188.35 142.97 188.69 143.53 188.52 144.5 188.02 144.91 
M 188.93 143.86 188.34 144.12 187.4 143.83 187.06 143.28 187.65 143.02 188.59 143.31 188.93 143.86 
M 197.2 138.08 196.55 138.13 195.76 137.54 195.63 136.9 196.27 136.86 197.06 137.45 197.2 138.08 
M 195.91 138.04 196.18 137.45 197.07 137.05 197.7 137.23 197.42 137.82 196.53 138.23 195.91 138.04 
M 211.02 117.25 211.28 117.84 210.99 118.78 210.43 119.12 210.17 118.53 210.46 117.59 211.02 117.25 
M 210.48 117.48 210.87 118 210.8 118.98 210.34 119.44 209.95 118.92 210.02 117.94 210.48 117.48 
M 231.77 98.42 231.22 98.08 230.92 97.15 231.17 96.55 231.73 96.89 232.03 97.82 231.77 98.42 
M 231.27 98.21 231.25 97.56 231.86 96.79 232.5 96.67 232.52 97.32 231.91 98.09 231.27 98.21 
M 213.86 105.64 213.69 106.26 212.87 106.81 212.22 106.72 212.4 106.1 213.22 105.55 213.86 105.64 
M 213.78 106.29 213.14 106.39 212.3 105.88 212.11 105.26 212.75 105.15 213.59 105.67 213.78 106.29 
M 270.01 87.89 269.75 88.49 268.86 88.9 268.23 88.72 268.5 88.13 269.39 87.71 270.01 87.89 
M 269.87 88.38 269.23 88.52 268.37 88.04 268.15 87.43 268.78 87.3 269.64 87.77 269.87 88.38 
M 263.16 114.73 262.72 115.22 261.75 115.34 261.21 114.97 261.64 114.49 262.62 114.37 263.16 114.73 
M 262.81 115.26 262.18 115.09 261.64 114.27 261.72 113.63 262.35 113.8 262.89 114.62 262.81 115.26 
M 256.65 93.38 256.49 92.75 256.94 91.88 257.54 91.63 257.7 92.26 257.25 93.13 256.65 93.38 
M 256.76 93.17 256.86 92.53 257.61 91.9 258.26 91.9 258.16 92.55 257.41 93.18 256.76 93.17 
M 272.62 103.03 272.11 102.63 271.92 101.66 272.24 101.1 272.75 101.5 272.94 102.46 272.62 103.03 
M 271.73 101.81 272.38 101.83 273.09 102.5 273.16 103.15 272.51 103.13 271.8 102.46 271.73 101.81 
M 274.32 110.45 274.76 110.93 274.79 111.91 274.38 112.41 273.94 111.94 273.91 110.95 274.32 110.45 
M 275.1 111.45 274.48 111.63 273.58 111.23 273.31 110.64 273.93 110.45 274.83 110.86 275.1 111.45 
M 188.09 129.24 187.7 129.76 186.74 129.95 186.17 129.63 186.56 129.12 187.53 128.92 188.09 129.24 
M 187.65 128.9 187.36 129.48 186.46 129.86 185.84 129.66 186.13 129.08 187.03 128.7 187.65 128.9 
M 276.27 143.28 275.63 143.38 274.79 142.87 274.59 142.25 275.24 142.14 276.07 142.66 276.27 143.28 
M 274.76 142.43 275.4 142.53 276.04 143.27 276.04 143.92 275.4 143.83 274.76 143.08 274.76 142.43 
M 289.06 145.48 289.7 145.56 290.35 146.3 290.36 146.95 289.72 146.86 289.07 146.13 289.06 145.48 
M 289.02 145.92 289.67 145.98 290.35 146.69 290.37 147.17 
M 289.66 147.2 289.05 146.57 289.02 145.92 
M 231.09 84.53 231.7 84.73 232.21 85.57 232.1 86.21 231.48 86.01 230.98 85.17 231.09 84.53 
M 231.08 84.83 231.65 85.14 231.99 86.06 231.76 86.67 231.19 86.36 230.85 85.44 231.08 84.83 
M 217.48 93.02 216.83 92.97 216.14 92.27 216.1 91.62 216.75 91.67 217.44 92.37 217.48 93.02 
M 217.24 91.72 217.03 92.33 216.18 92.83 215.54 92.71 215.75 92.09 216.6 91.6 217.24 91.72 
M 241.93 89.69 241.84 90.34 241.09 90.98 240.44 90.97 240.54 90.33 241.28 89.69 241.93 89.69 
M 241.4 91.05 241.04 90.51 241.15 89.54 241.63 89.1 241.99 89.63 241.88 90.61 241.4 91.05 
M 222.67 102.96 222.25 102.46 222.27 101.48 222.7 100.99 223.12 101.49 223.11 102.47 222.67 102.96 
M 222.26 101.36 222.77 101.76 222.98 102.72 222.66 103.29 222.14 102.89 221.94 101.93 222.26 101.36 
M 221.74 82.8 221.58 82.17 222.03 81.29 222.64 81.05 222.79 81.68 222.34 82.56 221.74 82.8 
M 222.61 82.54 222.1 82.14 221.9 81.18 222.22 80.62 222.74 81.01 222.93 81.98 222.61 82.54 
M 267 183.42 267.09 184.12 266.45 184.07 266.03 183.66 
M 266.46 183.54 265.83 183.99 265.19 183.91 
M 287.42 122.01 288.03 121.78 288.95 122.12 289.26 122.69 288.66 122.92 287.73 122.58 287.42 122.01 
M 287.97 121.7 288.45 122.14 288.56 123.12 288.19 123.65 287.72 123.21 287.61 122.24 287.97 121.7 
M 290.4 115.3 289.76 115.41 288.92 114.89 288.73 114.27 289.37 114.17 290.21 114.68 290.4 115.3 
M 290.27 115.03 289.62 115.01 288.89 114.36 288.81 113.71 289.46 113.73 290.19 114.38 290.27 115.03 
M 205.47 83.24 205.86 82.72 206.81 82.5 207.39 82.81 207 83.33 206.04 83.55 205.47 83.24 
M 205.7 83.21 206.26 82.87 207.23 83.02 207.64 83.52 207.09 83.86 206.12 83.7 205.7 83.21 
M 203.93 94.5 204.14 93.88 204.98 93.38 205.62 93.49 205.42 94.11 204.57 94.61 203.93 94.5 
M 204.99 93.28 205 93.93 204.37 94.68 203.73 94.78 203.72 94.13 204.35 93.38 204.99 93.28 
M 298.09 138.72 298.62 138.34 299.6 138.44 300.05 138.91 299.52 139.29 298.54 139.19 298.09 138.72 
M 299.37 138.13 299.3 138.77 298.59 139.45 297.94 139.48 298.01 138.83 298.72 138.16 299.37 138.13 
M 265.26 194.49 264.72 194.85 263.74 194.73 263.31 194.25 263.85 193.88 264.82 194 265.26 194.49 
M 264.61 193.69 264.52 194.33 263.78 194.98 263.13 194.99 263.22 194.34 263.96 193.69 264.61 193.69 
M 243.64 219.51 242.99 219.42 242.35 218.68 242.34 218.03 242.99 218.12 243.63 218.86 243.64 219.51 
M 243.43 219.38 242.91 218.99 242.69 218.03 243 217.46 243.52 217.85 243.74 218.81 243.43 219.38 
M 283.22 87.36 282.74 86.92 282.64 85.94 283.01 85.41 283.48 85.85 283.59 86.83 283.22 87.36 
M 283.85 86.47 283.22 86.6 282.37 86.11 282.15 85.49 282.79 85.37 283.64 85.86 283.85 86.47 
M 259.84 73.69 260.21 73.16 261.16 72.92 261.74 73.22 261.37 73.75 260.41 73.98 259.84 73.69 
M 260.32 72.87 260.86 73.23 261.13 74.17 260.85 74.76 260.31 74.4 260.04 73.46 260.32 72.87 
M 249.68 83.94 250.3 83.75 251.19 84.16 251.47 84.74 250.85 84.93 249.95 84.53 249.68 83.94 
M 249.82 84.36 250.44 84.15 251.35 84.52 251.64 85.1 251.03 85.31 250.12 84.94 249.82 84.36 
M 279.77 76.59 279.19 76.29 278.83 75.38 279.05 74.77 279.63 75.07 279.98 75.98 279.77 76.59 
M 279.85 76.28 279.33 75.9 279.11 74.94 279.41 74.37 279.94 74.75 280.16 75.71 279.85 76.28 
M 271.51 77.63 271.89 78.16 271.81 79.14 271.35 79.59 270.97 79.07 271.04 78.09 271.51 77.63 
M 271.75 79.29 271.31 78.81 271.26 77.83 271.67 77.32 272.11 77.8 272.16 78.78 271.75 79.29 
M 281.38 97.29 280.95 96.8 280.94 95.82 281.36 95.32 281.79 95.81 281.8 96.79 281.38 97.29 
M 280.72 95.94 281.36 96.07 281.95 96.85 281.91 97.5 281.27 97.37 280.68 96.58 280.72 95.94 
M 221.27 70.87 220.81 71.32 219.83 71.39 219.31 71 219.77 70.54 220.75 70.48 221.27 70.87 
M 220.16 71.67 220.07 71.03 220.61 70.2 221.23 70.02 221.32 70.67 220.79 71.49 220.16 71.67 
M 241.04 71.58 241.23 70.96 242.07 70.45 242.71 70.55 242.51 71.17 241.68 71.69 241.04 71.58 
M 242.17 71.75 241.74 71.26 241.74 70.28 242.17 69.79 242.59 70.28 242.59 71.26 242.17 71.75 
M 231.48 73.32 230.83 73.35 230.06 72.75 229.93 72.12 230.58 72.08 231.35 72.68 231.48 73.32 
M 231.44 72.84 230.8 72.93 229.97 72.41 229.79 71.78 230.43 71.69 231.26 72.22 231.44 72.84 
M 299.2 129.83 298.55 129.83 297.81 129.19 297.71 128.55 298.36 128.55 299.1 129.19 299.2 129.83 
M 297.72 129.33 298.29 129.02 299.25 129.24 299.64 129.76 299.06 130.07 298.1 129.85 297.72 129.33 
M 306.55 124.25 307 124.73 307.04 125.71 306.63 126.22 306.19 125.74 306.15 124.76 306.55 124.25 
M 306.99 125.87 306.49 125.45 306.34 124.48 306.68 123.93 307.18 124.34 307.33 125.31 306.99 125.87 
M 203.92 105.66 203.32 105.41 202.89 104.52 203.05 103.9 203.65 104.15 204.08 105.03 203.92 105.66 
M 203.85 104.13 203.72 104.76 202.94 105.36 202.29 105.31 202.42 104.68 203.21 104.09 203.85 104.13 
M 300.86 116.31 300.74 115.67 301.24 114.82 301.85 114.61 301.97 115.25 301.48 116.1 300.86 116.31 
M 301.36 116.21 301.16 115.59 301.54 114.69 302.13 114.4 302.33 115.02 301.94 115.93 301.36 116.21 
M 311.65 117.15 312.09 116.67 313.06 116.55 313.6 116.91 313.17 117.39 312.19 117.51 311.65 117.15 
M 311.93 117.29 312.44 116.89 313.42 116.94 313.89 117.39 313.37 117.79 312.39 117.74 311.93 117.29 
M 286.42 58.31 286.15 58.9 285.26 59.3 284.63 59.12 284.9 58.53 285.8 58.12 286.42 58.31 
M 284.84 58.42 285.49 58.48 286.16 59.19 286.19 59.84 285.54 59.78 284.87 59.07 284.84 58.42 
M 265.58 64.11 265.47 63.47 265.98 62.63 266.6 62.43 266.71 63.07 266.2 63.91 265.58 64.11 
M 265.37 63.47 265.91 63.12 266.88 63.25 267.31 63.74 266.77 64.09 265.8 63.96 265.37 63.47 
M 296.04 81.87 295.97 82.52 295.25 83.19 294.6 83.21 294.67 82.56 295.39 81.89 296.04 81.87 
M 295.91 82.08 295.54 82.62 294.59 82.86 294.01 82.58 294.38 82.04 295.33 81.79 295.91 82.08 
M 277.45 65.43 277.08 64.9 277.18 63.92 277.65 63.48 278.02 64.01 277.92 64.99 277.45 65.43 
M 276.95 64.9 277.33 64.38 278.28 64.15 278.86 64.44 278.48 64.97 277.53 65.2 276.95 64.9 
M 324.17 121.9 323.67 122.32 322.69 122.3 322.2 121.87 322.7 121.45 323.68 121.47 324.17 121.9 
M 323.08 122.63 322.97 121.98 323.48 121.15 324.1 120.95 324.21 121.59 323.7 122.43 323.08 122.63 
M 326.27 130.51 325.69 130.81 324.74 130.58 324.36 130.05 324.94 129.75 325.89 129.98 326.27 130.51 
M 325.84 130.81 325.27 130.51 324.91 129.59 325.13 128.98 325.7 129.29 326.06 130.2 325.84 130.81 
M 297.91 104.08 298.41 103.67 299.4 103.71 299.87 104.15 299.37 104.56 298.39 104.52 297.91 104.08 
M 299.64 104.03 299.04 104.3 298.1 104.01 297.76 103.46 298.35 103.2 299.29 103.48 299.64 104.03 
M 318.54 110.11 318.19 109.56 318.33 108.59 318.82 108.16 319.17 108.71 319.03 109.68 318.54 110.11 
M 317.98 109.4 318.49 109 319.47 109.03 319.94 109.48 319.44 109.88 318.46 109.85 317.98 109.4 
M 308.51 105.86 308.03 106.3 307.05 106.33 306.55 105.92 307.03 105.48 308.01 105.45 308.51 105.86 
M 308.28 105.94 307.65 106.1 306.77 105.66 306.52 105.06 307.15 104.9 308.03 105.34 308.28 105.94 
M 325.83 109.19 325.98 108.56 326.78 107.99 327.43 108.05 327.28 108.68 326.48 109.25 325.83 109.19 
M 326.05 109.1 326.41 108.55 327.35 108.28 327.94 108.55 327.59 109.09 326.64 109.37 326.05 109.1 
M 303.91 90.6 304.45 90.97 304.7 91.92 304.41 92.5 303.88 92.14 303.62 91.19 303.91 90.6 
M 304.86 91.83 304.21 91.78 303.51 91.09 303.47 90.44 304.11 90.49 304.81 91.18 304.86 91.83 
M 289.7 67.61 290.31 67.39 291.23 67.75 291.53 68.32 290.92 68.54 290.01 68.19 289.7 67.61 
M 290.06 67.47 290.65 67.73 291.07 68.62 290.89 69.25 290.3 68.98 289.88 68.1 290.06 67.47 
M 218.91 224.94 218.61 225.52 217.69 225.87 217.08 225.65 217.38 225.08 218.3 224.72 218.91 224.94 
M 217.35 224.92 217.98 225.06 218.57 225.85 218.52 226.5 217.88 226.36 217.3 225.57 217.35 224.92 
M 231.75 222.8 231.57 223.42 230.74 223.95 230.1 223.86 230.28 223.24 231.11 222.71 231.75 222.8 
M 231.28 222.67 231.16 223.31 230.39 223.92 229.74 223.89 229.86 223.25 230.63 222.64 231.28 222.67 
M 197.71 111.39 197.39 111.96 196.46 112.28 195.86 112.04 196.18 111.48 197.11 111.15 197.71 111.39 
M 196.2 111.24 196.81 111.48 197.26 112.35 197.11 112.98 196.51 112.75 196.05 111.88 196.2 111.24 
M 194.89 122.13 195.16 121.54 196.05 121.13 196.68 121.32 196.41 121.91 195.51 122.32 194.89 122.13 
M 196.44 121.36 195.99 121.84 195.01 121.93 194.48 121.56 194.93 121.09 195.91 120.99 196.44 121.36 
M 316.16 173.59 316.81 173.53 317.6 174.1 317.75 174.74 317.11 174.79 316.31 174.22 316.16 173.59 
M 317.7 174.07 317.11 174.34 316.17 174.07 315.81 173.52 316.4 173.25 317.35 173.53 317.7 174.07 
M 311.4 184.67 310.97 185.16 309.99 185.29 309.45 184.94 309.88 184.45 310.85 184.32 311.4 184.67 
M 310.28 185.54 310.2 184.89 310.76 184.08 311.39 183.92 311.46 184.56 310.91 185.37 310.28 185.54 
M 331.47 138.72 331.68 138.1 332.52 137.6 333.16 137.72 332.96 138.33 332.11 138.83 331.47 138.72 
M 331.89 137.6 332.41 138 332.6 138.96 332.27 139.53 331.76 139.13 331.57 138.16 331.89 137.6 
M 324.32 143.18 323.67 143.12 323 142.41 322.97 141.76 323.61 141.82 324.29 142.53 324.32 143.18 
M 324.37 142.65 323.72 142.69 322.94 142.1 322.8 141.47 323.45 141.42 324.23 142.02 324.37 142.65 
M 220.47 57.68 220.15 57.11 220.36 56.15 220.87 55.76 221.19 56.33 220.99 57.29 220.47 57.68 
M 221.33 56.37 220.88 56.83 219.9 56.91 219.37 56.52 219.83 56.06 220.81 55.99 221.33 56.37 
M 237.28 54.55 236.99 55.14 236.09 55.52 235.47 55.32 235.76 54.74 236.66 54.36 237.28 54.55 
M 236.91 54.41 236.61 54.99 235.69 55.35 235.08 55.13 235.38 54.56 236.29 54.2 236.91 54.41 
M 281.94 128.72 281.39 129.07 280.42 128.92 280 128.42 280.55 128.08 281.52 128.23 281.94 128.72 
M 281.47 129.12 280.91 128.8 280.59 127.87 280.83 127.27 281.39 127.59 281.71 128.52 281.47 129.12 
M 274.36 193.4 274.79 193.88 274.81 194.86 274.39 195.36 273.96 194.88 273.94 193.89 274.36 193.4 
M 273.63 194.35 274.26 194.17 275.14 194.6 275.4 195.19 274.78 195.36 273.89 194.94 273.63 194.35 
M 320.71 189.97 320.62 189.32 321.16 188.5 321.78 188.32 321.87 188.96 321.34 189.79 320.71 189.97 
M 321.81 189.64 321.21 189.38 320.79 188.49 320.96 187.87 321.56 188.12 321.98 189.01 321.81 189.64 
M 293.99 208.19 293.42 208.49 292.46 208.26 292.08 207.73 292.66 207.43 293.61 207.66 293.99 208.19 
M 292.59 208.56 292.8 207.95 293.65 207.45 294.29 207.58 294.08 208.19 293.23 208.68 292.59 208.56 
M 291.38 196.84 290.89 197.27 289.91 197.28 289.41 196.86 289.9 196.43 290.88 196.42 291.38 196.84 
M 291.09 196.57 290.59 196.99 289.6 196.96 289.12 196.52 289.63 196.11 290.61 196.14 291.09 196.57 
M 301.49 215.11 302.05 215.45 302.35 216.38 302.09 216.98 301.54 216.64 301.24 215.71 301.49 215.11 
M 302.53 215.92 301.95 216.22 301 215.99 300.62 215.47 301.19 215.16 302.15 215.39 302.53 215.92 
M 170.84 123.24 171.33 123.67 171.46 124.64 171.1 125.19 170.62 124.76 170.48 123.78 170.84 123.24 
M 170.68 124.9 170.74 124.26 171.45 123.57 172.09 123.54 172.04 124.18 171.33 124.87 170.68 124.9 
M 183.87 112.37 183.22 112.46 182.4 111.93 182.21 111.31 182.86 111.22 183.68 111.75 183.87 112.37 
M 183.72 111.53 183.24 111.96 182.26 111.99 181.76 111.58 182.24 111.14 183.22 111.11 183.72 111.53 
M 255.35 64.89 255.35 65.54 254.7 66.28 254.06 66.36 254.06 65.72 254.71 64.98 255.35 64.89 
M 255.11 66.26 254.61 65.84 254.45 64.87 254.79 64.32 255.29 64.73 255.45 65.7 255.11 66.26 
M 252.75 52.41 253.12 51.87 254.07 51.62 254.65 51.91 254.29 52.45 253.34 52.7 252.75 52.41 
M 253.97 52.86 253.57 52.35 253.6 51.37 254.04 50.89 254.45 51.4 254.42 52.38 253.97 52.86 
M 274.79 54.84 274.87 54.19 275.61 53.54 276.26 53.54 276.17 54.18 275.44 54.83 274.79 54.84 
M 274.82 54.44 275.34 54.05 276.32 54.11 276.78 54.56 276.26 54.96 275.28 54.89 274.82 54.44 
M 264.95 54.06 264.46 53.64 264.31 52.67 264.65 52.12 265.15 52.54 265.3 53.51 264.95 54.06 
M 265.07 53.79 264.66 53.28 264.71 52.3 265.15 51.83 265.56 52.33 265.51 53.32 265.07 53.79 
M 248.01 229.92 248.16 229.29 248.96 228.72 249.61 228.79 249.45 229.42 248.65 229.99 248.01 229.92 
M 249 228.63 249.03 229.28 248.42 230.05 247.79 230.17 247.76 229.53 248.37 228.76 249 228.63 
M 280.66 183.42 280.02 183.29 279.43 182.5 279.45 182.2 
M 280.27 182.2 280.7 182.78 280.66 183.42 
M 280.75 182.33 280.27 182.76 279.29 182.79 278.78 182.38 278.98 182.2 
M 280.6 182.2 280.75 182.33 
M 245.59 59.75 245.93 60.3 245.77 61.27 245.27 61.68 244.93 61.13 245.09 60.16 245.59 59.75 
M 246.05 61.14 245.43 60.95 244.9 60.12 244.99 59.48 245.62 59.67 246.15 60.49 246.05 61.14 
M 234.09 63.72 233.49 63.97 232.56 63.65 232.23 63.09 232.83 62.85 233.76 63.16 234.09 63.72 
M 233.8 63.01 233.38 63.51 232.41 63.65 231.86 63.31 232.28 62.81 233.25 62.67 233.8 63.01 
M 197.79 86.3 197.45 85.75 197.61 84.78 198.11 84.37 198.45 84.92 198.29 85.89 197.79 86.3 
M 198.63 85.02 198.15 85.46 197.17 85.49 196.66 85.07 197.14 84.64 198.13 84.61 198.63 85.02 
M 189.25 87.24 188.96 87.82 188.06 88.2 187.44 88 187.73 87.42 188.63 87.03 189.25 87.24 
M 187.61 87.76 188.18 87.45 189.14 87.66 189.53 88.18 188.96 88.49 188 88.28 187.61 87.76 
M 194.78 99.51 194.49 100.09 193.58 100.46 192.96 100.25 193.26 99.67 194.17 99.3 194.78 99.51 
M 194.03 100.61 193.71 100.05 193.89 99.09 194.39 98.68 194.72 99.24 194.54 100.21 194.03 100.61 
M 341.16 132.8 340.51 132.83 339.74 132.22 339.62 131.58 340.27 131.55 341.04 132.16 341.16 132.8 
M 340.45 131.45 340.6 132.08 340.15 132.95 339.55 133.19 339.39 132.56 339.84 131.69 340.45 131.45 
M 349.47 142.71 349.82 143.26 349.69 144.23 349.22 144.64 
M 349.18 144.64 348.85 144.11 348.98 143.14 349.47 142.71 
M 350.07 143.54 349.5 143.86 348.54 143.65 348.15 143.14 348.71 142.82 349.67 143.02 350.07 143.54 
M 211.94 61.72 211.51 62.21 210.54 62.34 210 61.98 210.43 61.5 211.4 61.36 211.94 61.72 
M 211.6 62.25 210.97 62.09 210.41 61.28 210.49 60.63 211.11 60.8 211.67 61.6 211.6 62.25 
M 205.83 71.52 206.4 71.2 207.36 71.38 207.76 71.9 207.2 72.22 206.23 72.03 205.83 71.52 
M 206.76 70.96 206.99 71.57 206.64 72.49 206.07 72.8 205.84 72.19 206.19 71.27 206.76 70.96 
M 290.71 95.02 290.66 94.37 291.24 93.58 291.87 93.43 291.92 94.08 291.34 94.87 290.71 95.02 
M 290.61 93.91 291.26 93.99 291.91 94.72 291.93 95.37 291.28 95.29 290.62 94.56 290.61 93.91 
M 282.32 107.1 282.09 106.49 282.44 105.57 283.01 105.26 283.23 105.87 282.89 106.79 282.32 107.1 
M 282.79 105.44 282.88 106.09 282.34 106.91 281.72 107.08 281.63 106.44 282.17 105.62 282.79 105.44 
M 301.18 228.64 301.19 228.65 
M 301.16 228.67 301.18 228.64 
M 300.11 229.19 300.63 228.82 300.82 228.84 
M 335.72 168.02 335.08 167.89 334.48 167.11 334.52 166.46 335.16 166.59 335.76 167.37 335.72 168.02 
M 335.72 166.79 335.34 167.32 334.39 167.56 333.81 167.26 334.18 166.73 335.14 166.49 335.72 166.79 
M 185.33 77.27 185.96 77.42 186.53 78.22 186.47 78.87 185.83 78.71 185.27 77.91 185.33 77.27 
M 185.3 77.61 185.92 77.83 186.39 78.69 186.26 79.33 185.65 79.1 185.17 78.25 185.3 77.61 
M 195.74 73.11 195.09 73.1 194.35 72.45 194.27 71.81 194.92 71.81 195.65 72.46 195.74 73.11 
M 195.6 72.01 195.23 72.54 194.27 72.77 193.69 72.47 194.07 71.94 195.03 71.71 195.6 72.01 
M 239.29 81.33 238.76 80.95 238.54 79.99 238.84 79.42 239.37 79.8 239.59 80.75 239.29 81.33 
M 238.5 80.86 238.84 80.31 239.78 80.01 240.37 80.27 240.03 80.83 239.09 81.12 238.5 80.86 
M 329.38 209.91 329.26 210.55 328.5 211.17 327.85 211.14 327.96 210.5 328.73 209.89 329.38 209.91 
M 329.36 210.48 328.75 210.72 327.83 210.38 327.51 209.82 328.12 209.58 329.04 209.92 329.36 210.48 
M 325.11 199.74 324.5 199.51 324.03 198.65 324.17 198.02 324.78 198.25 325.25 199.11 325.11 199.74 
M 324.05 198.41 324.66 198.64 325.13 199.51 324.98 200.14 324.38 199.91 323.91 199.05 324.05 198.41 
M 194.74 63.74 194.28 63.28 194.22 62.3 194.61 61.78 195.06 62.25 195.13 63.23 194.74 63.74 
M 194.51 62.03 194.84 62.6 194.65 63.56 194.14 63.96 193.82 63.4 194 62.44 194.51 62.03 
M 185.62 64.79 185.22 65.3 184.25 65.49 183.69 65.16 184.09 64.65 185.05 64.46 185.62 64.79 
M 185.3 64.6 184.86 65.08 183.89 65.2 183.35 64.84 183.79 64.36 184.76 64.24 185.3 64.6 
M 193.54 53.49 194.03 53.07 195.01 53.06 195.5 53.48 195.01 53.91 194.03 53.92 193.54 53.49 
M 194.41 54.23 194.31 53.59 194.82 52.75 195.43 52.55 195.54 53.19 195.03 54.03 194.41 54.23 
M 226.86 48.81 227.48 48.6 228.39 48.96 228.69 49.54 228.07 49.75 227.16 49.39 226.86 48.81 
M 227.62 49.91 227.56 49.26 228.12 48.46 228.75 48.3 228.81 48.94 228.25 49.75 227.62 49.91 
M 340.46 121.08 339.95 121.5 338.97 121.47 338.49 121.03 339 120.62 339.98 120.65 340.46 121.08 
M 339.26 120.34 339.63 120.88 339.51 121.85 339.03 122.29 338.67 121.75 338.78 120.78 339.26 120.34 
M 205.19 54.2 204.58 53.99 204.08 53.14 204.2 52.5 204.82 52.71 205.31 53.56 205.19 54.2 
M 204.2 52.79 204.76 53.12 205.07 54.05 204.83 54.65 204.27 54.32 203.95 53.39 204.2 52.79 
M 168.83 73.07 169.38 72.72 170.35 72.87 170.77 73.36 170.22 73.71 169.25 73.56 168.83 73.07 
M 169.68 72.48 169.98 73.05 169.74 74.01 169.21 74.38 168.92 73.8 169.15 72.85 169.68 72.48 
M 322.82 165.17 322.19 165.35 321.3 164.94 321.03 164.35 321.65 164.17 322.55 164.58 322.82 165.17 
M 321.44 164.19 321.99 164.53 322.28 165.47 322.02 166.07 321.47 165.72 321.18 164.79 321.44 164.19 
M 351.98 154.22 351.39 153.95 350.99 153.05 351.18 152.43 351.77 152.71 352.17 153.6 351.98 154.22 
M 350.84 153.25 351.47 153.12 352.33 153.59 352.55 154.2 351.92 154.34 351.06 153.86 350.84 153.25 
M 346.99 163.81 347.08 163.17 347.82 162.52 348.47 162.52 348.38 163.16 347.64 163.81 346.99 163.81 
M 347.1 162.76 347.73 162.93 348.27 163.75 348.19 164.39 347.56 164.22 347.02 163.4 347.1 162.76 
M 176.92 81.34 177.24 81.9 177.05 82.86 176.54 83.26 176.22 82.7 176.41 81.73 176.92 81.34 
M 175.99 82.42 176.57 82.13 177.53 82.36 177.9 82.88 177.33 83.18 176.37 82.95 175.99 82.42 
M 170.08 91.63 169.74 91.07 169.9 90.1 170.39 89.69 170.74 90.24 170.58 91.21 170.08 91.63 
M 170.41 89.93 170.46 90.58 169.87 91.37 169.24 91.5 169.19 90.86 169.78 90.07 170.41 89.93 
M 159.92 79.37 160.52 79.62 160.96 80.5 160.79 81.13 160.19 80.87 159.76 79.99 159.92 79.37 
M 160.11 80.95 160.13 80.3 160.79 79.58 161.43 79.5 161.42 80.15 160.76 80.87 160.11 80.95 
M 362.38 136 362.51 136.64 362.03 137.49 361.41 137.71 361.29 137.07 361.77 136.22 362.38 136 
M 362.25 137.52 361.79 137.06 361.7 136.09 362.08 135.56 362.55 136.01 362.63 136.99 362.25 137.52 
M 364.22 150.68 363.61 150.48 363.1 149.63 363.22 148.99 363.84 149.2 364.34 150.04 364.22 150.68 
M 364.37 150.22 363.73 150.07 363.15 149.28 363.2 148.63 363.84 148.78 364.42 149.57 364.37 150.22 
M 337.29 185.84 337.76 186.29 337.85 187.27 337.47 187.8 337 187.35 336.92 186.37 337.29 185.84 
M 337.9 186.28 337.62 186.86 336.71 187.25 336.09 187.05 336.38 186.47 337.28 186.08 337.9 186.28 
M 343 179.93 342.88 179.29 343.36 178.44 343.98 178.23 344.1 178.87 343.61 179.72 343 179.93 
M 344.23 179.18 343.59 179.29 342.75 178.79 342.54 178.17 343.18 178.06 344.03 178.56 344.23 179.18 
M 179.45 124.71 178.89 124.38 178.58 123.45 178.83 122.85 179.39 123.18 179.7 124.11 179.45 124.71 
M 178.4 123.73 179.03 123.57 179.9 124.01 180.15 124.61 179.52 124.77 178.64 124.33 178.4 123.73 
M 353.28 186.79 352.97 187.36 352.05 187.71 351.44 187.48 351.75 186.91 352.67 186.57 353.28 186.79 
M 351.99 187.79 352.12 187.15 352.9 186.55 353.55 186.59 353.42 187.22 352.64 187.83 351.99 187.79 
M 173.05 64.59 173.14 63.95 173.88 63.31 174.53 63.3 174.44 63.95 173.7 64.59 173.05 64.59 
M 174.23 63.34 174.03 63.96 173.19 64.46 172.55 64.35 172.75 63.73 173.59 63.23 174.23 63.34 
M 244.3 48.21 244.89 48.48 245.29 49.38 245.11 50 244.52 49.73 244.11 48.83 244.3 48.21 
M 245.41 48.84 244.89 49.24 243.91 49.2 243.44 48.75 243.96 48.35 244.94 48.39 245.41 48.84 
M 238.31 227.6 238.91 227.37 239.84 227.71 240.15 228.28 239.54 228.51 238.62 228.17 238.31 227.6 
M 238.6 227.54 239.23 227.71 239.78 228.52 239.7 229.16 239.07 228.99 238.52 228.18 238.6 227.54 
M 144.66 204.47 145.31 204.47 146.06 205.11 146.15 205.75 145.5 205.75 144.76 205.12 144.66 204.47 
M 145.41 205.86 145.21 205.24 145.59 204.34 146.17 204.05 146.37 204.66 146 205.57 145.41 205.86 
M 152.22 195.86 152.38 196.49 151.94 197.37 151.34 197.61 151.18 196.98 151.62 196.11 152.22 195.86 
M 151.29 196.17 151.85 196.51 152.15 197.44 151.89 198.04 151.34 197.7 151.04 196.77 151.29 196.17 
M 179.31 97.23 179.06 96.63 179.35 95.69 179.91 95.36 180.16 95.95 179.87 96.89 179.31 97.23 
M 179.03 96.77 179.39 96.22 180.33 95.95 180.92 96.22 180.57 96.76 179.62 97.04 179.03 96.77 
M 170.74 102.78 170.27 102.33 170.18 101.35 170.56 100.82 171.03 101.27 171.12 102.25 170.74 102.78 
M 170.11 101.28 170.69 101.57 171.08 102.47 170.88 103.09 170.3 102.8 169.91 101.9 170.11 101.28 
M 162.46 94.59 161.97 95.01 160.99 95.01 160.5 94.58 160.99 94.16 161.97 94.16 162.46 94.59 
M 161.01 94.01 161.55 94.36 161.82 95.31 161.55 95.9 161 95.54 160.73 94.6 161.01 94.01 
M 166.15 150.4 165.63 150.78 164.65 150.71 164.19 150.25 164.72 149.86 165.7 149.93 166.15 150.4 
M 164.44 150.47 165.01 150.15 165.97 150.36 166.36 150.88 165.79 151.19 164.83 150.98 164.44 150.47 
M 172.11 112.77 171.57 113.11 170.59 112.97 170.17 112.47 170.72 112.13 171.69 112.27 172.11 112.77 
M 171.52 111.97 171.38 112.61 170.6 113.2 169.95 113.15 170.08 112.52 170.87 111.93 171.52 111.97 
M 153.99 100.01 153.39 100.26 152.46 99.95 152.12 99.4 152.72 99.15 153.66 99.45 153.99 100.01 
M 153.01 98.96 153.25 99.56 152.91 100.49 152.35 100.81 152.11 100.2 152.44 99.28 153.01 98.96 
M 162.36 104.61 161.98 105.14 161.03 105.37 160.45 105.07 160.83 104.54 161.78 104.31 162.36 104.61 
M 162.08 104.52 161.6 104.97 160.62 105 160.12 104.6 160.59 104.15 161.57 104.12 162.08 104.52 
M 360.28 177.53 359.83 177.05 359.79 176.07 360.2 175.56 360.64 176.04 360.68 177.02 360.28 177.53 
M 359.51 176.73 360.06 176.39 361.03 176.53 361.46 177.03 360.91 177.37 359.94 177.23 359.51 176.73 
M 362.89 188.69 362.77 188.05 363.25 187.2 363.86 186.98 363.99 187.62 363.5 188.47 362.89 188.69 
M 363.51 187.1 363.6 187.74 363.06 188.56 362.43 188.74 362.35 188.09 362.88 187.27 363.51 187.1 
M 214.16 47.87 214.73 48.17 215.1 49.08 214.88 49.69 214.31 49.4 213.94 48.48 214.16 47.87 
M 214.66 49.52 214.35 48.94 214.57 47.99 215.09 47.6 215.4 48.17 215.18 49.13 214.66 49.52 
M 156.69 136.4 156.33 136.94 155.38 137.19 154.8 136.91 155.16 136.37 156.11 136.12 156.69 136.4 
M 155 136.73 155.6 136.47 156.53 136.77 156.88 137.32 156.28 137.58 155.34 137.28 155 136.73 
M 372.31 137.99 372.82 137.58 373.8 137.61 374.28 138.05 373.77 138.46 372.79 138.43 372.31 137.99 
M 373.91 137.59 373.51 138.11 372.55 138.3 371.99 137.98 372.38 137.47 373.34 137.27 373.91 137.59 
M 373.43 151.09 373.79 151.63 373.67 152.61 373.18 153.04 372.82 152.5 372.94 151.53 373.43 151.09 
M 373.72 151.44 373.54 152.07 372.72 152.61 372.08 152.52 372.25 151.9 373.07 151.36 373.72 151.44 
M 360.28 160.39 360.48 159.77 361.32 159.25 361.96 159.36 361.76 159.98 360.92 160.49 360.28 160.39 
M 361.84 160.09 361.19 160.1 360.43 159.47 360.33 158.83 360.98 158.82 361.73 159.45 361.84 160.09 
M 353.62 172.73 353.25 173.26 352.29 173.49 351.71 173.2 352.09 172.67 353.04 172.43 353.62 172.73 
M 352.14 172.44 352.71 172.73 353.08 173.64 352.88 174.26 352.3 173.96 351.93 173.05 352.14 172.44 
M 142.76 111.67 142.51 111.06 142.83 110.13 143.39 109.8 143.63 110.41 143.32 111.34 142.76 111.67 
M 143.71 110.34 143.29 110.84 142.32 110.98 141.77 110.63 142.19 110.14 143.16 109.99 143.71 110.34 
M 250.74 74.03 251.39 73.98 252.17 74.57 252.31 75.21 251.66 75.25 250.88 74.66 250.74 74.03 
M 252.17 74.24 251.74 74.72 250.76 74.84 250.22 74.48 250.66 74 251.64 73.88 252.17 74.24 
M 159 124.63 158.46 124.27 158.21 123.32 158.5 122.74 159.03 123.1 159.28 124.05 159 124.63 
M 159.27 123.15 158.98 123.73 158.07 124.1 157.45 123.9 157.75 123.32 158.66 122.94 159.27 123.15 
M 151.59 127.86 151.23 128.4 150.28 128.67 149.7 128.39 150.05 127.85 151 127.58 151.59 127.86 
M 150.93 127.44 150.87 128.08 150.17 128.77 149.52 128.8 149.58 128.16 150.28 127.47 150.93 127.44 
M 145.25 137.02 145.46 137.63 145.1 138.54 144.52 138.84 144.31 138.22 144.67 137.31 145.25 137.02 
M 144.47 138.55 144.65 137.93 145.47 137.38 146.11 137.47 145.94 138.09 145.12 138.63 144.47 138.55 
M 289.89 230.65 289.49 230.14 289.54 229.16 289.99 228.69 290.39 229.2 290.34 230.18 289.89 230.65 
M 290.14 230.39 289.78 229.85 289.92 228.87 290.41 228.45 290.76 228.99 290.63 229.96 290.14 230.39 
M 159.13 113.69 158.83 114.27 157.92 114.63 157.31 114.42 157.61 113.84 158.52 113.48 159.13 113.69 
M 158.26 113.31 158.42 113.94 157.99 114.82 157.39 115.07 157.22 114.44 157.66 113.56 158.26 113.31 
M 133.08 120.22 133.33 119.62 134.21 119.17 134.84 119.33 134.59 119.93 133.71 120.37 133.08 120.22 
M 133.31 119.41 133.94 119.54 134.54 120.32 134.51 120.96 133.87 120.84 133.27 120.06 133.31 119.41 
M 258.99 81.51 259.55 81.83 259.88 82.76 259.64 83.36 259.08 83.04 258.75 82.11 258.99 81.51 
M 258.6 82.67 259.13 82.29 260.11 82.37 260.56 82.84 260.03 83.22 259.06 83.14 258.6 82.67 
M 123.98 117.87 124.23 117.31 124.82 117.03 125.01 117.65 124.61 118.55 
M 124.14 118.05 125.03 117.41 125.67 117.53 125.47 118.14 124.67 118.62 
M 150.32 116.83 150.43 117.47 149.92 118.31 149.3 118.51 149.19 117.87 149.7 117.03 150.32 116.83 
M 149.07 117.55 149.71 117.46 150.54 117.99 150.73 118.61 150.08 118.7 149.26 118.17 149.07 117.55 
"/></svg>