<svg xmlns="http://www.w3.org/2000/svg" width="520" height="320"><rect x="0" y="0" width="520" height="320" fill="floralwhite"/><rect x="10" y="10" width="500" height="300" stroke="black" stroke-width="1" fill="none"/><path stroke="black" stroke-width="1" fill="none" stroke-linecap="round" stroke-linejoin="round" d="
M 131.99 117.94 141.27 115.5 150.56 113.99 169.14 112.39 187.73 110.07 197.02 109.22 206.31 108.78 224.9 108.5 243.48 108.69 252.78 108.48 262.07 108.5 271.36 109.02 299.24 111.48 308.53 112.82 345.7 119.21 354.99 121.57 364.28 124.96 373.58 132.94 
M 373.58 140.57 364.28 147.5 354.99 150.22 345.7 152.14 327.11 154.7 299.24 159.36 289.95 160.12 280.65 160.53 262.07 160.95 243.48 160.82 234.19 161.23 215.61 162.36 206.31 162.43 197.02 161.9 187.73 160.74 178.44 159.09 159.85 155.02 150.56 153.22 141.28 152.05 
M 143.43 124.06 143.91 122.26 143.91 116.07 143.65 115.11 
M 142.96 121.87 145.75 120.41 151.89 113.87 
M 168.94 124.26 166.22 116.73 163.75 112.83 
M 154.33 124.06 163.95 120.99 
M 172.92 124.2 174.93 122.15 178.47 115.83 178.47 111.92 178.11 111.27 
M 186.09 123.97 182.6 118.13 179.52 115.55 
M 193.77 123.84 195.86 119.64 195.86 115.93 192.88 109.94 192.6 109.62 
M 192.26 109.8 192.41 109.64 
M 201.62 123.7 199.09 119.06 196.29 116.49 
M 213.79 123.49 214.56 122.05 214.56 118.47 211.45 112.68 207.74 108.75 
M 199.53 117.38 208.56 115.59 
M 199.41 120.43 209.24 119.94 
M 200.91 123.15 204.31 123.65 
M 218.78 154.15 218.68 153.91 
M 213.45 116.38 214.65 115.92 219.34 112.29 222.12 108.52 
M 218.1 154.18 218.37 153.97 
M 218.41 123.41 215.23 120.93 
M 235.62 123.12 233.08 119 227.96 114.28 223.96 112.44 
M 236.99 123.09 241.65 119.62 244.48 115.79 244.48 113.43 241.65 109.61 240.42 108.66 
M 242.29 153.05 243.04 151.77 
M 251.01 122.85 247.95 119.93 244.33 118.2 
M 251.92 153.02 249.24 149.58 
M 260.39 122.69 262.18 119.8 262.18 117.47 259.85 113.71 256.24 110.39 253.42 109.1 
M 251.08 117.01 257.75 115.92 
M 250.83 118.17 257.58 118.29 
M 250.74 120.92 258.36 121.87 
M 260.95 153.07 262.7 148.4 262.7 147.23 
M 251.38 149.8 258.3 150.82 
M 265.63 122.6 265.13 122.06 262.01 120.38 
M 267.46 153.03 265.26 150.08 262.21 148.02 
M 276.04 122.42 277.2 120.19 277.2 117.83 275.22 114.01 272.15 110.64 269.75 109.32 
M 276.9 152.95 278.31 148.8 278.31 145.09 277.45 142.55 
M 277.68 145.13 280.51 143.4 283.21 140.09 
M 281.25 122.33 280.51 121.42 277.68 119.69 
M 283.19 152.85 281.21 150.05 278.27 147.98 
M 289.49 122.19 291.18 118.49 291.18 115.97 289.32 111.89 288.13 110.41 
M 281.83 115.48 287.8 114.25 
M 281.61 116.89 287.9 117.2 
M 282.35 119.51 288.27 120.24 
M 292 152.57 293.29 148.37 293.29 144.55 291.4 138.39 291.08 137.8 
M 284.4 143.22 289.49 142.17 
M 283.6 146.43 290.12 146.52 
M 284.13 149.28 289.59 151.05 
M 292.62 143.59 295 142.07 298.62 137.5 299.05 136.54 
M 297.12 122.06 295 119.38 292.18 117.59 
M 298.74 152.2 296.6 149.09 293.68 146.97 
M 303.12 121.95 304.22 120.72 306.27 116.66 306.27 114.15 305.36 112.36 
M 295.76 112.88 302.62 112.39 
M 296.41 115.86 302.64 115.8 
M 296.59 117.48 302.32 118.05 
M 305.46 151.48 307.2 145.79 307.2 141.82 305.24 135.41 304.15 133.38 
M 297.11 140.84 303.41 138.84 
M 297.74 143.34 304.08 143.43 
M 297.39 147.26 303.44 148.84 
M 307.7 143.19 310.8 141.42 314.78 136.9 317.34 131.77 317.34 128.59 316.25 126.42 
M 313.29 121.78 310.8 118.94 307.7 117.17 
M 313.71 150.46 312.43 148.64 309.41 146.5 
M 316.42 126.37 317.86 125.7 
M 322.54 121.62 324.67 118.14 324.58 115.64 
M 323.8 149.27 324.79 146.48 324.79 142.61 322.58 136.36 319.16 130.84 316.49 128.68 
M 325.25 144.37 328.5 142.68 332.67 138.34 335.35 133.43 335.35 130.39 332.67 125.48 329.43 122.11 
M 328.85 121.51 328.5 121.15 325.25 119.46 
M 327.94 148.84 325.99 147.52 
M 334.43 128.93 337.13 127.69 340.59 124.49 342.82 120.87 342.82 118.7 
M 332.2 117.5 335.19 117.37 
M 331.45 119.85 338.55 119.71 
M 332.3 121.95 338.49 122.09 
M 342.4 147.52 342.4 144.53 340.2 138.56 336.78 133.28 334.39 131.44 
M 331.48 143.4 338.82 141.64 
M 331.71 145.99 338.28 145.93 
M 342.44 145.45 345.52 143.79 349.47 139.54 352.01 134.73 352.01 131.75 349.47 126.94 345.52 122.7 342.44 121.04 
M 339.94 130.37 347.45 129.27 
M 339.3 132.98 346.91 132.75 
M 339.08 135.75 347.1 136.67 
M 350.94 128.95 352.92 127.91 356.02 124.66 357.25 122.39 
M 348.33 122.12 354.4 122.94 
M 358.42 145.26 356.37 139.21 353.18 133.94 351.1 132.23 
M 348.06 144.04 354.89 142.94 
M 358.23 145.29 361.09 143.62 364.76 139.35 367.13 134.5 367.13 131.51 364.76 126.66 362.85 124.44 
M 365.66 128.14 367.08 127.36 
M 371.97 140.24 371.41 138.49 368.45 133.17 366.28 131.24 
M 143.65 115.11 143.65 115.11 
M 164.96 154.01 165.35 152.83 
M 163.75 112.83 163.75 112.83 
M 178.11 111.27 178.11 111.27 
M 183.96 157.59 184.55 156.01 184.55 154.81 
M 200.27 159.44 201.09 157.26 201.09 155.32 
M 188.3 154.91 196.53 155.18 
M 192.41 109.64 192.41 109.64 
M 203.46 159.6 201.42 157.83 
M 207.74 108.75 207.74 108.75 
M 218.45 159.53 218.86 158.54 218.78 154.15 
M 204.95 156.52 206.43 156.56 
M 209.38 156.63 213.57 156.75 
M 205.28 159.46 206.42 159.75 
M 222.12 108.52 222.12 108.52 
M 217.84 154.38 218.1 154.18 
M 240.42 108.66 240.42 108.66 
M 238.19 158.44 238.89 157.93 242.29 153.05 
M 254.72 158.27 253 154.41 251.92 153.02 
M 248.4 158.24 250.65 157.8 
M 285.96 157.79 284.97 155.36 283.19 152.85 
M 288.13 110.41 288.13 110.41 
M 301.18 156.69 300.33 154.52 298.74 152.2 
M 316.38 154.34 313.71 150.46 
M 322.12 153.49 322.58 152.73 323.8 149.27 
M 331.08 152.31 329.08 149.61 327.94 148.84 
M 331.55 149.74 338.28 150.84 
M 345.48 150.52 342.54 148.55 
M 357.25 122.39 357.25 122.39 
M 358.42 147.9 358.42 145.26 
M 362.85 124.44 362.85 124.44 
M 372.24 141.08 371.97 140.24 
M 159.85 113.14 159.85 113.14 
M 167.86 112.5 171.76 102.83 174.07 100.96 176.83 99.71 179.79 99.04 182.72 97.83 184.57 95.56 186.28 93.11 188.78 92.24 191.01 91.14 193.56 90.71 196.98 91.16 203.15 89.98 205.38 88.04 206.9 85.52 213.23 86.86 218.41 86.19 221.78 87.2 225.49 89.17 227.77 89.04 229.37 88.23 231.3 88.64 233.99 90 239.41 87.32 242.89 87.24 245.76 86.55 248.15 85.57 250.87 85.13 255.89 89.39 262.34 93.72 267.4 96.11 271.58 96.6 274.42 98.08 276.81 100.23 282.11 105.89 284.4 106.49 284.8 110.12 
M 280.65 109.75 280.65 109.75 
M 164.76 112.75 167.01 111.7 168.18 109.56 
M 169.66 112.33 171.53 110.92 172.42 108.03 173.59 106.29 175.08 103.56 174.84 100.69 
M 174.54 111.72 175.92 110.59 176.68 108.14 177.06 105.92 
M 179.42 111.11 181.16 109.47 183.01 105.64 183.19 103.34 183.63 101.22 183.58 97.69 184.83 94.43 
M 184.3 110.5 186.71 108.97 187.92 106.94 188.94 104.38 188.37 102.73 
M 189.19 109.94 191.51 108.96 194.7 102.11 194.97 100.18 195.68 98.1 
M 194.09 109.49 196.57 108.65 198.63 104.36 199.39 102.39 
M 198.99 109.12 201.25 107.79 202.16 106.21 202.63 103.97 202.95 101.31 204.27 98.86 205.27 96.15 205.09 93.93 206.04 90.92 206.27 86.7 
M 203.91 108.89 206.35 107.19 207.27 105.36 208.19 101.06 
M 208.82 108.73 211.03 106.89 212.45 104.53 213.52 101.83 215.16 98.55 
M 213.74 108.62 215.48 107.4 220.79 99.23 221.38 96.69 222.45 94.34 
M 218.66 108.55 220.67 107.08 223.88 103.03 224.78 100.67 226.08 98.54 227.52 95.54 229.72 93.48 231.13 90.42 
M 223.58 108.51 227.43 104.93 229.57 100.81 
M 228.5 108.54 230.43 106.76 231.55 104.84 232.95 103.17 234.38 99.25 235.84 97.79 
M 233.42 108.61 235.08 107.08 237.98 103.58 239.03 100.92 239.42 99.25 240.88 96.68 243.18 93.35 
M 238.34 108.65 240.54 107.32 241.32 105.47 243.24 102.3 245.38 100.06 246.51 97.39 247.1 94.92 247.4 91.35 
M 243.26 108.69 245.03 106.87 246.47 104.52 248.51 102.01 251.33 99.64 
M 248.18 108.58 250.38 106.86 251.81 104.2 253.64 99.4 254.07 97.13 
M 253.1 108.48 255.98 107.18 257.27 105 258.66 99.87 
M 258.01 108.49 260.45 107.03 264.31 103.27 266.06 101 
M 262.93 108.55 265.41 108.41 271.53 101.83 
M 267.85 108.82 269.85 108.05 272.01 106.95 
M 272.76 109.13 275.55 108.29 276.97 106.99 
M 277.66 109.52 280.24 108.59 
M 142.01 122.96 353.32 119.91 353.35 120.89 145.25 126.41 
M 145.64 127.12 319.65 135.88 319.61 136.86 146.57 130.64 
M 146.51 131.44 285.44 147.55 285.33 148.53 146.6 134.91 
M 146.44 135.7 251.1 154.93 250.93 155.9 145.5 139.02 
M 145.47 139.73 217.04 158.02 216.81 158.98 145.62 143.26 
M 145.64 144.03 183.66 156.9 183.37 157.84 145.03 147.29 
M 143.89 149.34 151.36 153.24 151.02 154.16 141.45 151.81 
M 332.14 121.45 324.89 123.3 321.34 124.4 317.88 125.69 314.51 127.2 311.23 128.91 308.04 130.82 301.82 134.98 
M 301.77 136.22 294.56 137.16 291.01 137.81 287.53 138.67 284.12 139.74 280.77 141.04 277.49 142.53 271.04 145.88 
M 270.91 147.12 263.84 147.16 260.34 147.37 256.88 147.79 253.46 148.43 250.09 149.31 246.75 150.38 240.15 152.92 
M 239.94 154.14 233.09 153.31 229.68 153.09 226.29 153.07 222.9 153.29 219.54 153.74 216.19 154.4 209.5 156.1 
M 209.22 157.3 202.68 155.64 199.41 154.99 196.12 154.56 192.81 154.36 189.49 154.39 186.16 154.62 179.47 155.48 
M 179.11 156.66 172.91 154.54 169.78 153.67 166.62 153 163.43 152.57 160.21 152.36 156.96 152.36 150.42 152.74 
M 328.5 122.34 321.34 124.4 317.88 125.69 314.51 127.2 311.23 128.91 304.91 132.86 
M 302.29 122.95 296.13 124.73 293.15 125.84 290.25 127.13 287.44 128.61 282 132 
M 276.07 123.56 270.92 125.05 268.43 125.98 263.64 128.3 259.09 131.14 
M 249.86 124.18 245.71 125.37 243.7 126.12 239.85 127.99 236.18 130.28 
M 223.65 124.79 218.98 126.26 216.05 127.68 213.27 129.42 
M 298.15 136.65 291.01 137.81 287.53 138.67 284.12 139.74 280.77 141.04 274.25 144.17 
M 270.7 135.6 264.81 136.56 259.12 138.15 256.36 139.22 250.98 141.8 
M 243.24 134.55 238.6 135.3 234.12 136.56 231.95 137.4 227.71 139.43 
M 215.79 133.5 212.4 134.05 209.12 134.96 204.44 137.07 
M 267.37 147.1 260.34 147.37 256.88 147.79 253.46 148.43 250.09 149.31 243.44 151.61 
M 237.94 144.18 232.56 144.39 227.28 145.2 224.69 145.87 219.6 147.64 
M 208.52 141.26 204.77 141.4 201.1 141.97 195.76 143.66 
M 236.51 153.68 229.68 153.09 226.29 153.07 222.9 153.29 219.54 153.74 212.84 155.21 
M 203.18 148.37 198.74 147.99 196.53 147.98 192.14 148.41 187.79 149.37 
M 205.95 156.43 199.41 154.99 196.12 154.56 192.81 154.36 189.49 154.39 182.82 155.01 
M 169.14 157.13 175.68 163.2 182.01 171 186.24 176.63 187.9 179.85 194.33 186.86 197.21 189.42 198.48 191.33 203.47 196.3 203.09 206.74 201.67 209.34 199.86 211.55 196.89 216.62 194.35 218.16 192 219.9 190.19 222.17 189.13 225.19 188.88 229 188.19 232.35 186.3 234.5 184.97 237.17 172.81 247.79 170.74 240.7 169.46 237.31 170.5 235.13 169.44 229.12 169.79 225.96 169.38 223.34 168.3 219.23 166.8 214.69 167.2 211.26 166.79 205.76 164.56 197.17 164.25 192.87 163.89 190.81 164.01 187.84 163.64 184.49 163.61 181.03 163.22 177.94 163.48 171.47 162.53 168.91 162.33 165.39 161.86 162.21 161.1 159.02 159.85 155.02 
M 167.23 156.7 172.42 162.75 174.66 165.82 176.52 169.15 178.73 171.22 180.66 173.45 182.38 177.1 184.16 179.47 185.64 182.36 187.56 183.98 190.78 185.41 192.9 188.1 194.2 191.18 195.05 193.7 
M 165.31 156.26 171.65 165.35 173.34 168.31 174.77 171.54 176.36 174.18 177.66 177.29 179.19 180.13 180.27 182.73 181.95 184.96 183.33 188.21 185.68 190.15 187 193.35 188.66 195.1 
M 163.39 155.83 165.56 159.76 166.78 162.72 169.79 168.4 170.96 171.35 171.24 174.57 171.87 177.76 174.28 183.61 175.71 186.63 177.8 189.82 179.37 191.54 180.74 193.98 180.98 196.67 181.82 200.06 183.05 202.79 184.13 209.25 
M 161.47 155.39 164.38 162.42 165.42 165.42 166.21 168.49 167.34 171.14 167.69 174.66 168.37 178.33 168.71 185.13 168.58 187.78 171 193.67 173.16 199.55 173.17 202.15 173.93 205.42 175.43 209.33 175.59 211.83 176.81 214.47 176.9 218.18 176.63 220.66 
M 308.53 157.91 312.46 163.6 314.42 166.84 317.15 170.89 311.23 170.32 308.52 171.66 303.87 174.96 300.94 175.81 299.04 178.07 297.27 180.48 294.1 185.64 288.02 187.78 284.39 192.48 284.09 196.17 282.19 198.27 279.76 199.75 279.17 205.29 272.05 209 272.63 206.28 272.49 203.87 269.11 197.97 268.14 194.28 266.84 191.32 265.85 189.49 264.73 184.98 262.14 179.1 260.67 176.71 258.95 171.54 257.42 167.65 255.31 164.81 252.78 160.88 
M 303.67 158.66 307.04 164.69 309.09 167.84 
M 298.8 159.39 301.38 165.23 303 169.71 304.01 173.58 
M 293.9 159.8 296.32 164.8 298.95 169.43 
M 289 160.16 291.84 165.19 294.49 172.42 
M 284.08 160.38 289.6 168.11 290.72 171.38 292.92 174.84 294.3 178.92 
M 279.16 160.57 282.73 165.24 284.9 168.45 286.53 172.04 
M 274.25 160.69 280.36 168.81 282.59 175.64 283.99 178.94 285.19 182.78 286.88 185.14 
M 269.33 160.8 272.49 165.11 274.73 169.01 276.68 171.99 278.59 175.18 280.19 178.67 281.92 181.5 
M 264.41 160.9 269.51 167.15 273.15 174.25 274.17 178.19 276.18 181.62 276.89 184.03 
M 259.49 160.93 263.95 167.48 265.4 170.2 266.61 173.36 268.59 176.15 271.48 182.94 
M 373.58 132.94 376.15 130.87 378.1 128.55 379.84 125.7 381.75 123.19 386.02 118.82 393.55 108.85 397.53 105.33 399.99 102.56 402.11 99.76 406.98 94.97 410.92 91.58 413.49 90.74 415.82 89.57 417.57 87.48 419.76 85.66 422.56 84.29 425.64 83.21 428.5 81.84 430.95 80.32 433.71 77.81 440.31 74.87 443.4 72.93 446.13 72.84 448.41 71.54 453.51 72.18 456.64 71.78 460.39 71.86 464.09 70.09 468.56 68.63 471.7 67.05 474.18 66.5 477.36 66.47 480.57 65.76 488.17 62.2 490 88.73 487.85 90.72 485.34 92.34 483.3 94.43 478.76 102.28 476.28 103.92 473.51 105.28 471.86 107.76 469.94 109.98 468.8 112.96 466.87 115.2 464.86 117.18 463.36 119.67 460.33 120.62 457.02 121.29 454.2 122.46 451.48 123.73 449.45 125.69 447.11 127.33 440.66 128.86 432.61 132.76 429.53 133.67 426.78 134.9 425.74 137.57 427.95 145.38 430.63 148.33 434.23 149.6 435.63 149.84 441.66 153.54 443.49 154.2 455.16 161.22 457.02 161.91 464.42 166.03 471.13 174.35 477.1 182.48 485.28 193.05 484.79 217.63 481.65 216.19 478.16 215.86 476.28 217.08 472.46 216.39 465.36 213 461.8 212.2 458 210.51 453.35 210.37 450.4 209.04 446.78 208.06 443.16 205.4 438.74 205.6 434.67 204.92 432.14 203.4 427.87 199.87 423.55 195.25 420.83 192.7 416.1 190.07 414.34 187.08 411 185.92 408.8 184.39 405.98 183.11 403.6 181.14 401.39 178.43 399.37 175.51 398.33 173.39 395.9 170.94 394.05 168.14 391.59 165.45 389.52 162.63 386.09 157.5 384.26 155.09 381.86 152.72 379.85 149.91 378.1 146.82 373.58 140.57 
M 373.58 134 376.76 132.6 379.23 130.82 383.79 126.76 386.29 124.9 399.18 117.15 404.06 112.68 409.48 108.85 412.09 106.74 414.72 105.95 418.12 104.63 421 103.77 423.11 102.86 426.11 102.82 429.15 101.76 431.91 100.59 438.64 97.17 441.43 95.66 442.58 94.77 444.2 94 447.75 93.51 450.7 92.22 454.37 92.9 457.63 92.47 459.57 90.86 464.77 90.68 468.57 89.82 472.06 88.79 
M 379.73 133.6 385.51 131.02 392 128.61 394.84 127.07 397.38 126.07 400.31 125.92 406.67 124.67 416.38 121.31 419.18 119.16 422.17 119.48 425.36 118.87 427.34 117.9 430.08 117 433.19 117.13 436.4 116.17 
M 380.26 136.68 387 135.82 394.81 135.51 398.2 135.13 400.49 134.64 407.57 134.26 410.39 134.64 417.12 136.6 420.88 136.99 423.2 136.89 
M 373.58 137.15 377.45 139.15 380.33 140.34 382.93 141.7 390.96 142.56 394.6 143.2 397.49 144.08 401.16 144.53 404.58 144.57 407.65 145.2 
M 377.13 140.62 382.75 144.39 392.11 147.88 395.02 149.33 397.38 151.55 400.11 152.58 402.33 154.04 405.66 154.92 408.23 156.19 411.86 158.38 414.75 159.18 418.24 159.86 
M 376.7 142.1 379.14 144.54 384.35 149.08 387.17 150.84 389.15 152.69 392.01 154.72 394.34 156.8 396.19 159.4 398.64 161.34 401.32 163.15 407.52 166.82 411.03 167.93 413.38 170.14 415.74 171.55 418.15 172.18 420.38 173.79 424.02 175.55 426.65 178.29 429.78 180.17 435.49 182.39 436.8 183.38 439.89 184.68 443.38 185.23 448.95 188.24 452.29 189.32 454.5 189.18 457.14 189.92 460.09 191.31 463.44 191.07 466.19 191.99 474.65 193.67 477.28 192.97 
M 36.49 139.95 41.02 137.27 44.33 134.95 48.65 132.55 54.72 130.65 61.4 129.2 73.76 127.08 80.5 125.64 87.78 123.42 95.63 121.6 118.1 118.73 124.19 118.2 131.92 117.92 135.74 118.85 137.57 120.28 141.97 122.93 143.82 124.36 145 125.96 146.71 129.36 146.5 131.34 146.68 133.22 146.58 135.17 145.4 139.35 145.73 141.19 145.67 145.06 145.12 147.14 143.85 149.41 141.28 151.98 125.4 151.59 113.47 151.13 85.57 149.38 78.12 148.71 58.81 145.64 48.63 144.36 
M 116.67 128.25 117.07 129.72 115.3 132.91 114.05 134.38 111.13 136.93 111.72 139.04 113.59 141.61 114.42 143.2 114.49 145.03 89.72 144.55 
M 71.55 143.99 68.5 143.8 62.69 142.87 
M 36.43 145.24 34.07 145.18 31.79 144.19 31.03 141.78 32.42 139.68 34.8 139.37 48.69 144.01 
M 48.71 144.92 41.97 147.94 35.27 150.68 32.87 151.47 30.56 150.33 30 147.96 31.47 145.88 33.97 145.36 36.47 145.24 48.5 144.02 
M 73.22 146.34 71.16 143.45 70.15 140.06 70.3 136.51 71.59 133.21 73.88 130.51 76.92 128.69 80.39 127.97 83.91 128.41 87.09 129.96 89.6 132.47 91.16 135.65 91.59 139.17 90.87 142.64 89.05 145.68 86.35 147.97 83.27 149.17 
M 76.05 148.36 73.22 146.34 
M 87.85 133.72 89.09 136.27 89.44 139.08 88.86 141.85 87.41 144.29 85.25 146.12 82.6 147.15 79.77 147.27 77.05 146.46 74.75 144.81 
M 77.05 141.03 76.23 139.88 75.83 138.52 75.88 137.1 76.4 135.78 77.32 134.7 78.53 133.97 79.92 133.68 81.33 133.86 82.6 134.48 83.6 135.48 84.23 136.76 84.4 138.16 84.11 139.55 83.39 140.77 82.3 141.69 80.98 142.2 79.57 142.26 78.21 141.85 77.05 141.03 
M 76.81 140.58 77.75 141.53 
M 77.88 139 81.05 142.17 
M 77.83 136.3 82.8 141.26 
M 79.62 135.43 83.97 139.78 
M 80.64 133.79 84.31 137.47 
M 38.64 138.62 41.71 141.68 
M 42.3 136.37 45.54 139.61 
M 45.9 134.07 51.15 139.32 
M 49.89 132.16 54.64 136.9 
M 54.39 130.75 57.45 133.82 
M 59.21 129.67 62.32 132.78 
M 64.2 128.76 68.08 132.64 
M 69.26 127.91 72.95 131.6 
M 74.23 126.98 76.31 129.06 
M 79.09 125.94 81.22 128.07 
M 83.72 124.66 86.97 127.91 
M 88.27 123.31 92.6 127.64 
M 93.06 122.19 97.93 127.07 
M 98.05 121.28 101.84 125.07 
M 103.26 120.59 106.33 123.66 
M 108.48 119.91 113.64 125.07 
M 113.73 119.25 118.6 124.12 
M 119.03 118.65 122.96 122.58 
M 124.47 118.19 128.64 122.36 
M 130.11 117.93 135.8 123.61 
M 139.82 121.73 144.21 126.12 
M 89.12 145.57 89.07 146.92 
M 50.05 144.51 51.13 143.21 51.94 142.6 55.41 141.28 56.39 140.13 
M 41.34 141.55 41.85 140.86 41.79 139.72 41.22 138.87 40.11 137.79 
M 88.46 130.91 88.97 130.66 89.36 130.74 90.24 131.35 90.68 132.04 
M 134.7 122.61 134.27 121.13 133.46 119.67 131.3 117.92 
M 144.69 146.44 144.11 146.11 142.44 144.01 142.1 143.12 142.2 142.24 
M 111.66 148.88 114.24 149.81 115.07 149.69 115.94 148.85 116.64 147.11 
M 133.2 128.46 132.56 127.37 131.99 127.08 130.41 127.98 129.51 128.26 
M 100.9 120.9 97.51 121.78 96.35 122.25 94.63 123.17 93.69 123.85 
M 138.62 146.47 137.29 145.69 134.49 144.97 133.31 144.84 132.21 145.04 129.67 146.74 128.29 147.45 124.1 148.49 
M 38.35 140.54 37.8 139.12 
M 127.9 139.63 127.06 139.64 126.31 140.02 125.52 140.59 124.19 142.18 
M 125.05 134.54 124.26 134.42 122.84 134.6 120.82 134.45 120.57 134.62 120.55 134.96 
M 94.12 121.95 93.07 123.9 92.98 125.38 93.17 126.93 
M 74.23 130.3 73.49 130.12 71.45 129.06 70.9 128.95 69.7 129.17 69.2 129.77 
M 54.83 139.37 55.56 138.39 55.7 137.68 55.74 135.68 55.58 134.58 54.87 133.02 54.39 132.7 53.33 132.64 52.79 133.1 
M 67.98 128.15 67.57 130.11 
M 72.82 131.76 72.56 130.66 72.25 130.21 
M 103.95 123.14 103.65 123.58 104.23 124.4 104.88 124.75 106.17 125.02 
M 67.86 142.07 68.47 144 68.51 145.06 68.33 145.75 67.53 147 
M 123.96 146.42 122.87 147.63 122.27 148.01 119.53 148.97 
M 87.89 123.39 88.58 124.87 88.64 125.32 88.53 125.79 87.96 126.71 
M 59.61 145.77 60.56 145.66 61.44 146.07 
M 60.44 142.7 59.93 141.35 59.7 140.05 59.63 138.32 59.78 136.69 59.61 133.8 
M 124.25 144.39 123 145.03 122.03 145.88 120.46 146.77 119.73 147.37 
M 75.78 128.41 71.26 128.15 69.63 128.68 68.91 129.66 
M 139.1 126.5 139.22 125.46 139.1 123.56 138.4 120.82 
M 71.35 128.1 69.88 128.51 69.33 128.93 68.83 129.82 68.81 130.87 
M 139.08 123.46 138.41 120.82 
M 103.09 132.81 104.23 132.53 105.92 132.41 107.75 132.55 109.19 132.34 
M 74.39 147.17 73.49 147.92 
M 136.61 149.23 133.27 148.57 132.16 148.59 128.27 149.68 123.35 149.31 
M 142.78 150.2 141.94 149.34 141.03 147.43 140.48 146.76 138.77 145.55 137.56 144.99 133.78 144.45 132.74 144.52 131.83 144.9 
M 102.26 125.56 103.88 125.85 106.36 125.46 107.48 125.53 108.77 124.83 
M 126.96 147.08 121.82 148.81 120.4 148.83 119.68 149.12 
M 70.8 132.62 71.41 131.77 71.65 130.84 71.59 130.44 71.08 129.8 70.71 129.62 69.62 129.6 
M 60.71 133.6 61.31 132.15 62.21 130.76 61.94 130.36 61.02 129.73 
M 111.6 120.6 111.38 121.51 111.97 122.89 111.77 124.15 111.84 125.31 
M 97.84 150.21 97.35 150.18 
M 124.87 137.92 122.21 138.19 121.88 137.74 121.53 136.26 
M 141.51 131.82 141.32 129.69 141.59 126.18 141.52 125.32 140.34 122.02 
M 137.07 126.17 136.98 125.2 137.17 122.74 136.85 120.97 136.6 120.33 136.29 120.02 135.16 119.65 134.66 119.25 
M 140.64 133.69 141.12 128.68 
M 144.83 143.77 144 140.29 143.96 139.73 144.6 137.92 144.56 137.13 144.3 136.22 
M 38.89 149.19 44.2 149.67 47.68 149.7 51.1 149.44 57.91 148.26 64.78 146.61 
M 46.65 148.04 46.99 147.62 
M 134.75 117.22 138.27 120.73 
M 140.98 115.58 147.47 122.07 
M 147.73 114.45 154.79 121.51 
M 154.76 113.61 162.75 121.6 
M 161.99 112.97 170.04 121.02 
M 169.27 112.38 175.71 118.82 
M 176.27 111.5 183.27 118.51 
M 183.26 110.63 195.03 122.4 
M 190.34 109.83 199.2 118.7 
M 197.57 109.19 205.56 117.19 
M 205.08 108.84 211.8 115.55 
M 212.76 108.64 220.32 116.2 
M 220.53 108.54 226.85 114.86 
M 228.4 108.54 237.25 117.39 
M 236.36 108.63 244.48 116.75 
M 244.27 108.67 251.43 115.82 
M 251.97 108.5 259.08 115.61 
M 259.84 108.49 271.27 119.93 
M 268.05 108.84 277.39 118.18 
M 276.51 109.43 286.36 119.27 
M 285.1 110.14 291.42 116.46 
M 293.77 110.94 304.75 121.92 
M 302.68 111.97 312.49 121.79 
M 312 113.43 318.1 119.53 
M 321.55 115.1 327.97 121.52 
M 328.73 122.28 331.85 125.41 
M 331.02 116.71 341.76 127.44 
M 340.47 118.28 347.06 124.88 
M 350.48 120.43 359.2 129.14 
M 362.08 124.16 367.84 129.91 
M 163.59 112.84 165.88 117.42 
M 167.84 112.48 167.85 112.52 
M 169.83 107.61 172.04 112.03 
M 171.83 102.77 176.21 111.51 
M 175.12 100.48 179.95 110.14 
M 178.92 99.23 181.12 103.63 
M 207.66 103.59 210.22 108.7 
M 207.72 94.85 214.6 108.61 
M 207.56 85.66 219 108.55 
M 212.51 86.71 223.41 108.51 
M 216.78 86.4 227.85 108.54 
M 221.58 87.14 229.94 103.86 
M 226.98 89.08 229.18 93.48 
M 254.09 99.04 258.82 108.5 
M 254.32 90.63 263.28 108.57 
M 259.33 91.8 267.84 108.82 
M 265.51 95.3 272.41 109.11 
M 270.52 96.47 277.02 109.47 
M 276.84 100.27 279.04 104.67 
"/></svg>