<svg xmlns="http://www.w3.org/2000/svg" width="520" height="320"><rect x="0" y="0" width="520" height="320" fill="floralwhite"/><rect x="10" y="10" width="500" height="300" stroke="black" stroke-width="1" fill="none"/><path stroke="black" stroke-width="1" fill="none" stroke-linecap="round" stroke-linejoin="round" d="
M 92.48 116.5 118.93 110.52 132.14 107.8 145.36 105.33 171.79 100.79 185.01 98.95 198.23 97.6 211.44 96.58 251.09 96.09 264.31 96.97 277.52 98.72 290.74 100.87 330.39 107.95 343.61 110.59 383.25 119.74 423.89 128.56 
M 423.89 174.48 383.25 185.15 356.82 191.16 343.61 193.69 317.17 198.39 303.96 200.12 277.52 202.98 264.31 203.69 251.09 204.18 237.87 203.97 211.44 204.14 198.23 203.17 185.01 201.59 171.79 199.76 158.58 197.73 145.36 195.97 132.14 193.88 118.93 191.22 105.73 188.12 
M 423.89 140.86 416.72 140.73 404.79 139.82 389.39 139.17 381.84 138.67 374.09 137.58 358.71 134.52 350.7 133.1 338.32 131.5 326.2 130.59 322.27 130.49 310.42 130.58 302.61 130.3 292.97 129.24 
M 289.1 128.7 279.48 127.53 261.37 125.99 250.89 126.27 239.98 127.36 234.54 127.72 
M 230.91 127.87 223.45 128.31 
M 219.6 128.61 215.7 128.89 
M 211.78 129.1 203.99 129.22 
M 196.3 128.93 188.45 128.66 
M 176.21 129.13 172.18 129.42 
M 168.18 129.74 164.2 130.02 
M 160.21 130.24 156.18 130.45 
M 152.07 130.73 143.77 131.46 
M 139.72 131.84 135.83 132.18 
M 132.1 132.47 128.5 132.71 
M 124.98 132.94 117.87 133.49 
M 114.09 133.83 106.02 134.59 
M 117.3 175.12 119.2 178.09 
M 109.51 154.58 111.6 157.54 
M 123.57 176.08 124.93 178.11 
M 130.47 185.46 133.2 188.53 
M 109.68 145.02 115.03 153.35 
M 130.18 177.39 133.74 182 
M 96.6 115.58 100.75 121.44 111.72 138.14 114.59 142.68 123.06 157.4 
M 137.63 179.16 140.11 182.18 
M 102.36 114.29 106.68 120.62 114.92 133.35 117.67 137.95 124.56 150.77 128.35 157.23 
M 144.59 180.26 146.49 182.41 
M 107.99 113.01 112.92 120.3 119.37 131.03 
M 121.86 135.52 127.47 146.32 129.87 150.6 133.74 156.69 
M 152.91 182.67 156.45 186.23 
M 113.51 111.75 116.65 116.44 119.03 120.39 124.96 131.11 
M 127.22 135.47 129.45 139.77 
M 134.38 148.46 139.36 156.2 
M 156.18 179.59 162.99 186.51 
M 118.78 110.55 122.57 116.63 127.14 124.84 133.93 137.62 136.41 141.96 140.48 148.56 
M 143.34 153.01 145.67 156.61 
M 172.59 190.18 175.47 193.32 
M 123.86 109.5 128.27 116.87 135.08 129.13 141.26 139.84 
M 143.97 144.25 149.68 153.18 
M 168.47 179.01 169.08 179.67 
M 172.59 183.49 175.79 187.1 
M 128.78 108.49 150.36 144.38 
M 153.22 148.86 158.12 156.68 
M 175.09 178.79 175.98 179.82 
M 179.2 183.67 182.13 187.29 
M 184.9 190.65 187.66 193.74 
M 133.7 107.51 144.92 124.63 147.55 128.79 151.4 135.44 
M 154.01 140 158.17 146.83 164.49 156.69 
M 185.69 183.75 188.47 187.37 
M 191.24 190.74 194.09 193.87 
M 138.8 106.56 148.68 120.33 151.41 124.38 154.01 128.68 161.62 142.5 168.89 153.7 
M 188.52 178.94 189.2 179.88 
M 192.01 183.73 194.79 187.38 
M 144.08 105.57 152.29 116.16 155.12 120.14 157.79 124.34 167.8 142.58 170.62 147.03 175.34 153.66 
M 195.35 179.7 201.07 187.36 
M 149.49 104.64 155.64 112.19 158.57 116.12 163.96 124.47 173.99 142.53 176.89 146.93 180.11 151.31 185.24 157.72 
M 154.82 103.74 161.76 112.31 167.46 120.31 170.13 124.46 172.68 128.8 179 140.12 
M 181.86 144.57 183.37 146.76 186.76 151.1 193.41 159.34 
M 160 102.86 167.9 112.49 173.63 120.3 176.36 124.39 184.11 137.7 186.99 142.17 198.74 157.31 
M 213.37 179.11 216.43 183.2 
M 222.29 189.98 225.04 192.6 
M 165.11 101.96 171.14 109.04 179.85 120.34 182.68 124.38 190.83 137.57 195.75 144.07 
M 202.4 152.69 205.28 157.02 
M 215.67 173.67 216.39 174.71 
M 222.41 182.74 225.3 186.07 
M 230.78 191.39 236.04 195.58 
M 170.17 101.07 177.41 109.45 186.14 120.53 194.48 133.21 197.67 137.48 204.56 145.98 207.64 150.34 211.56 156.93 
M 221.17 172.82 223.91 176.66 228.28 182.07 
M 231.09 185.15 236.53 190.35 
M 239.25 192.61 242 194.65 
M 175.27 100.3 180.78 106.53 186.51 113.46 189.33 117.17 196.26 127.19 
M 199.3 131.32 207.88 141.58 211.06 145.9 213.86 150.34 220.08 161.5 
M 228.33 174.29 231.22 178 
M 234.05 181.3 236.85 184.27 
M 242.5 189.46 245.33 191.74 
M 253.43 197.19 255.48 198.26 
M 180.29 99.61 184.13 103.85 189.73 110.59 192.44 114.19 200.57 125.7 203.72 129.61 210.71 137.43 214.06 141.61 217.12 146.06 219.85 150.61 224.73 159.48 227.89 164.87 
M 234.07 173.81 236.95 177.35 
M 254.08 193 256.6 194.84 
M 185.21 98.93 190.26 104.63 193 108.01 203.46 122.33 206.47 126.03 213.32 133.49 216.78 137.53 220.05 141.89 223.01 146.46 231.67 161.59 
M 242.81 176.81 245.82 179.98 
M 257.13 190.13 259.57 192.21 
M 190.11 98.43 196.4 105.59 206.64 119.01 209.49 122.44 219.38 133.46 222.73 137.73 225.87 142.28 228.75 146.86 234.88 157.43 
M 237.24 161.37 239.83 165.29 
M 242.69 169.22 245.7 172.96 
M 248.73 176.36 251.72 179.41 
M 262.33 189.43 264.56 191.64 
M 194.93 97.94 199.87 103.26 214.23 120.49 
M 217.22 123.83 220.39 127.41 
M 223.67 131.35 228.52 137.93 231.54 142.55 241.46 159.08 244.09 163.05 247 167.05 251.49 172.59 
M 254.44 175.84 260.02 181.45 
M 264.94 186.57 267.16 189.02 
M 199.81 97.48 203.33 100.96 208.68 106.67 221.81 121.53 224.82 125.04 229.5 131.19 
M 232.6 135.69 235.57 140.25 
M 238.27 144.61 240.7 148.68 
M 243.03 152.61 248.25 160.66 
M 251.19 164.71 254.14 168.54 
M 262.57 178.1 265.16 180.91 
M 205 97.08 209.5 101.2 214.75 106.46 222.34 114.67 227.79 120.95 230.65 124.66 236.62 133.26 243.16 143.88 
M 245.5 147.81 249.25 153.8 253.64 160.1 
M 259.55 167.91 262.42 171.39 
M 265.22 174.63 270.26 180.64 
M 210.53 96.65 215.54 100.96 220.69 105.91 228.27 114.01 232.19 118.86 
M 234.93 122.5 239.24 128.52 242.01 132.77 247.94 142.92 
M 253.04 150.97 257.48 157.39 262.11 163.56 
M 275.5 180.54 277.73 183.47 
M 282.51 188.96 285.1 191.5 
M 216.66 96.5 221.43 100.4 226.53 105.22 231.52 110.55 235.31 115.11 
M 237.98 118.45 242.16 123.98 246.11 130.03 
M 248.45 134.09 251.77 140.11 258.39 150.43 
M 261.42 154.79 266.23 161.19 270.92 167.07 
M 276.36 174.17 278.72 177.44 
M 223.07 96.39 227.22 99.7 229.78 102.05 234.76 107.22 242.5 116.18 245.28 119.67 249.24 125.43 
M 251.58 129.42 258.36 141.67 
M 263.86 150.23 265.38 152.43 270.36 158.88 
M 273.67 162.98 276.75 166.9 
M 281.99 174.15 284.31 177.5 
M 286.64 180.71 289.09 183.78 
M 297.15 191.99 299.83 194.23 
M 229.67 96.34 232.97 99.03 235.47 101.44 248.37 115.63 251.11 119.14 253.67 122.96 257.04 128.96 
M 259.19 133.1 262.54 139.48 266.46 145.9 
M 269.47 150.23 272.79 154.55 
M 276.22 158.77 281.1 164.89 289.89 177.7 
M 300.43 189.63 303.12 192.09 
M 236.11 96.3 240.9 100.93 251.28 111.94 254.04 115.14 256.67 118.71 259.12 122.58 261.38 126.64 266.9 137.4 
M 269.37 141.73 270.66 143.87 273.61 148.11 278.68 154.48 
M 282.08 158.71 285.22 162.88 
M 290.52 170.81 292.98 174.47 
M 295.52 177.9 298.18 181.14 
M 300.91 184.17 306.33 189.62 
M 241.96 96.23 254.05 108.56 256.81 111.53 259.51 114.79 262.09 118.44 264.53 122.4 271.37 135.31 273.84 139.68 276.55 143.88 278.09 145.97 
M 281.34 150.19 286.4 156.65 289.45 160.92 293.43 167.08 
M 295.97 170.97 297.25 172.86 301.29 178.02 
M 247.57 96.14 259.53 108.13 262.26 111.16 264.93 114.56 267.53 118.32 270.05 122.33 278.61 137.48 
M 281.41 141.77 290.9 154.62 
M 296.42 163.13 299 167.19 
M 304.4 174.59 307.14 177.82 
M 317.81 189.05 320.39 191.31 
M 253.46 96.25 262.31 104.76 265.03 107.63 267.75 110.85 270.45 114.41 275.82 122.27 283.56 135.36 285.02 137.56 
M 288.05 141.9 291.19 146.16 
M 299.66 159.02 303.51 165.21 304.83 167.1 
M 307.5 170.69 315.55 180.21 
M 318.22 183.19 320.86 186 
M 260.15 96.69 265.2 101.36 270.63 107.18 273.41 110.6 279.05 118.15 281.76 122.24 287.08 131.06 290.05 135.55 299.2 148.41 308.04 162.76 
M 313.21 169.73 318.52 176.25 
M 326.5 185.46 329.12 188.03 
M 267.57 97.4 270.89 100.61 273.63 103.58 279.3 110.45 284.84 118.23 293.26 131.28 299.65 140.06 303.85 146.31 
M 306.4 150.42 311.28 158.24 
M 313.76 161.82 316.28 165.24 
M 318.87 168.62 324.17 175.52 
M 332.25 185.01 334.93 187.63 
M 275.01 98.38 279.51 103.39 285.05 110.56 296.13 127.01 304.06 137.87 
M 306.96 142.02 316.96 157.35 
M 324.56 167.9 331.29 176.93 335.4 181.81 
M 281.86 99.42 287.93 107.14 293.35 114.66 298.92 122.78 303.64 129.15 
M 306.84 133.4 311.31 139.63 318.94 151.26 325.22 160.3 
M 333.1 171.44 338.6 178.55 
M 341.34 181.8 344.08 184.85 
M 288.06 100.43 296.28 111.02 306.54 124.68 
M 309.73 128.82 314.28 135.06 322.17 147.09 331.16 160.27 
M 333.77 164.07 339.12 171.66 
M 344.59 178.8 347.32 182.13 
M 294.27 101.52 309.78 120.27 
M 312.94 124.27 315.99 128.37 
M 318.84 132.53 325.46 142.93 342.53 168.33 
M 301.2 102.8 311.63 114.14 317.95 121.8 320.91 125.89 328.87 138.67 335.6 148.88 
M 338.25 152.9 346.04 165.01 
M 356.48 179.91 359.1 183.27 
M 309.12 104.23 315.05 110.24 318.27 113.75 321.41 117.51 324.39 121.53 327.15 125.73 333.79 136.45 
M 341.86 148.98 347.07 157.43 
M 354.65 169.49 359.79 176.97 
M 317.53 105.73 321.61 109.95 324.72 113.54 327.72 117.42 330.66 121.54 334.84 127.95 
M 337.52 132.22 340.16 136.44 
M 342.81 140.67 346.83 147.11 358.2 166.24 
M 325.38 107.09 331.03 113.61 334.14 117.59 338.58 123.92 
M 341.36 128.17 350.5 143.14 354.35 149.86 
M 356.85 154.31 359.32 158.67 
M 364.25 166.91 366.68 170.78 
M 332.83 108.44 337.55 113.88 342.28 120.09 
M 345.2 124.31 350.5 132.77 
M 353 137.08 355.48 141.51 
M 357.97 146.04 364.12 157.27 370.24 167.56 
M 340.49 109.97 344.21 114.29 347.46 118.45 350.44 122.67 353.18 126.9 356.86 133.34 
M 359.22 137.75 363.99 146.83 
M 368.86 155.82 373.77 164.22 
M 380.78 175.74 383.22 179.32 
M 348.27 111.68 350.89 114.75 354.09 118.93 356.92 123.2 361.83 131.87 371.14 149.91 374.81 156.5 
M 377.24 160.75 379.6 164.89 
M 355.98 113.46 357.44 115.27 360.42 119.53 363.07 123.88 371.3 139.32 
M 373.61 143.82 375.95 148.32 
M 378.3 152.74 383.01 161.38 
M 385.33 165.59 389.96 173.33 
M 363.15 115.14 366.53 120.23 369.09 124.62 377.38 139.97 
M 379.6 144.36 386.38 157.5 
M 388.74 161.89 391.12 166.12 
M 370.08 116.76 372.69 120.89 377.78 129.61 382.32 138.2 385.41 144.58 
M 387.54 148.87 390.95 155.48 394.63 162.16 
M 377.19 118.37 381.74 125.71 384.16 130 386.33 134.21 392.21 146.68 396.9 155.55 400.71 162.19 
M 405.58 170.01 407.99 173.52 
M 384.73 120.05 388.32 125.98 391.53 132.24 
M 393.37 136.33 397.12 144.55 
M 399.38 148.86 404.32 157.86 
M 406.78 162.18 410.34 168.09 413.68 173.06 
M 392.39 121.71 394.86 126.09 396.9 130.25 399.48 136.32 
M 401.26 140.41 404.42 146.82 408.07 153.6 
M 415.14 166.09 419.31 172.47 
M 399.75 123.32 401.23 126.13 403.1 130.26 407.5 140.62 
M 409.64 145.01 418.85 162.15 
M 406.69 124.84 409.97 132.3 
M 411.78 136.54 413.77 140.91 
M 415.96 145.35 418.24 149.73 
M 420.46 153.95 422.64 158.05 
M 413.26 126.27 418.85 138.8 423.89 148.84 
M 419.67 127.65 423.78 136.39 
M 94.98 115.94 93.77 117.55 
M 101.06 114.58 96.93 120.32 
M 107.39 113.15 104.37 117.11 99.31 124.23 
M 114.72 111.48 107.27 120.56 104.2 124.87 102.08 128.19 
M 121.98 109.89 113.53 120.29 110.38 124.41 105.13 132.85 
M 128.73 108.5 116.6 124.38 113.77 128.74 107.61 139.31 
M 135.12 107.25 128.28 116.88 122.51 124.61 119.73 128.79 115.87 135.69 
M 113.26 140.41 111.91 142.77 110.38 145.01 
M 141.52 106.05 126.81 126.93 
M 124.06 131.13 122.73 133.29 116.45 144.79 
M 113.67 149.23 110.69 153.48 
M 148.21 104.85 132.44 127.06 
M 126.84 135.5 124.27 139.94 
M 121.81 144.46 116.72 153.27 
M 114.01 157.47 113.91 157.61 
M 155.13 103.69 151.54 108.48 136.75 129.11 130.9 137.61 128.2 141.96 122.09 153 
M 162.35 102.45 160.22 105.01 157.68 108.46 152.31 116.16 138.24 135.47 
M 135.26 139.78 131.04 146.25 124.8 157.49 
M 114.7 174.72 112.25 178.16 
M 170.58 101 169.15 102.33 166.4 105.32 163.78 108.66 155.74 120.14 151.01 126.55 
M 147.74 130.98 139.84 142 136.95 146.32 132.94 152.79 
M 118.34 178.1 116.97 180.11 113.24 184.89 
M 179.2 99.76 175.55 102.96 172.72 105.8 169.99 108.97 167.34 112.48 163.31 118.26 
M 160.44 122.31 157.39 126.53 
M 154.18 130.93 150.91 135.42 
M 147.71 139.87 141.75 148.58 
M 138.99 152.9 136.93 156.3 
M 187.48 98.7 184.64 101.07 180.45 105 
M 177.66 107.87 173.53 112.7 170.83 116.36 148.11 148.72 
M 145.23 153.05 143.05 156.47 
M 196.23 97.81 190.79 101.89 187.99 104.31 185.24 106.95 181.13 111.42 
M 178.38 114.74 172.77 122.37 
M 169.77 126.65 154.52 148.9 
M 151.58 153.24 149.34 156.61 
M 135.78 178.74 133.41 182 
M 204.49 97.12 199.87 100.58 194.13 105.24 188.63 110.45 183.24 116.7 180.46 120.35 169.68 135.69 
M 166.61 140.29 163.7 144.76 
M 157.97 153.47 155.85 156.59 
M 211.45 96.58 200.27 106.13 194.57 111.32 191.92 114.12 189.34 117.17 185.31 122.48 
M 179.14 130.96 174.31 137.93 167.13 149.24 
M 143.55 185.77 140.79 188.93 
M 217.16 96.49 199.08 113.56 
M 196.39 116.45 192.64 121.13 183.94 133.13 179.1 140.12 
M 176.13 144.72 170.74 153.7 
M 154.26 180.07 152.55 182.67 
M 222.49 96.4 203.51 115.6 200.77 118.66 198.29 121.84 191.9 131.05 
M 182.58 144.55 181.11 146.82 177.23 153.62 
M 227.61 96.35 211.08 114.11 
M 205.34 120.69 204.02 122.36 200.54 127.59 
M 198.15 131.32 187.84 146.6 183.82 153.46 
M 168.57 179.01 168.14 179.63 
M 232.69 96.32 227.11 102.37 217.18 113.68 
M 214.26 117.12 210.09 122.43 207.63 126.04 204.36 131.55 
M 202.07 135.44 198.05 141.79 191.99 150.89 188.06 157.87 
M 175.82 178.74 175.05 179.79 
M 237.73 96.29 230.17 104.79 221.79 114.74 216.27 122.06 212.67 127.78 
M 210.53 131.59 206.21 139.52 
M 203.59 143.83 196.11 155.2 193.69 159.4 
M 182.54 178.91 181.83 179.88 
M 242.7 96.22 230.47 110.65 225.03 117.66 222.4 121.46 219.93 125.45 217.68 129.49 210.16 143.74 
M 201.39 157.19 199.48 160.21 
M 188.99 178.9 188.3 179.88 
M 185.39 183.75 182.43 187.29 
M 247.66 96.14 243.74 100.69 233.5 113.56 228.35 120.9 225.94 124.95 223.71 129.19 217.45 141.74 215.06 145.97 210.84 152.52 
M 207.79 156.96 205.02 161.09 
M 194.46 179.71 191.68 183.71 
M 252.62 96.19 249.03 100.29 246.69 103.25 236.63 116.71 234.08 120.56 230.65 126.78 
M 226.49 135.62 223.35 142.11 221.01 146.31 218.37 150.52 210.9 161.36 
M 201.86 176.93 200.43 179.42 
M 192.09 190.73 189.12 193.76 
M 257.37 96.51 252.08 102.85 247.48 109.08 242.52 116.18 239.92 120.14 237.44 124.34 234.19 131.07 
M 232.18 135.68 229.08 142.46 226.79 146.74 224.23 150.9 219.94 157.16 
M 201.3 187.33 199.95 189.19 198.5 190.82 
M 261.99 96.82 257.58 102.39 253.03 108.63 248.39 115.62 243.28 123.88 240.84 128.39 238.66 133.11 234.67 142.59 233.55 144.8 
M 231.18 149.12 227.22 155.34 221.98 162.99 
M 207.53 187.32 204.89 190.91 
M 266.51 97.26 263.13 101.66 258.53 108.22 254.06 115.14 249.09 123.36 246.47 127.83 244.02 132.52 237.81 146.89 235.48 151.28 226.88 164.53 
M 222.17 172.57 216.14 183.25 
M 271.09 97.87 268.77 100.86 264.01 107.72 259.52 114.79 253.38 125.06 
M 250.69 129.53 246.87 136.55 240.63 150.84 239.45 153.04 
M 234.36 161.51 232.28 164.89 
M 226.94 174.41 222.12 182.82 
M 214.64 194.13 213.34 195.74 211.97 197.09 
M 276.04 98.52 272.02 103.7 267.25 110.87 254.74 131.23 250.78 138.12 
M 248.49 142.82 243.41 154.68 242.26 156.89 
M 235.22 169.29 232.72 173.97 
M 281.16 99.31 277.89 103.4 275.36 106.92 270.47 114.41 257.4 135.31 254.76 139.77 252.39 144.31 251.37 146.69 
M 247.46 156.28 246.47 158.63 244.26 163.05 242.47 166.25 
M 241.67 167.66 238.43 173.45 
M 236.11 177.47 233.75 181.37 
M 231.34 185.14 228.87 188.8 
M 286.37 100.16 283.67 103.5 281.24 106.84 276.25 114.28 262.82 135.18 260.17 139.49 257.75 143.82 256.66 146.09 
M 254.6 150.78 249.85 162.7 246.58 169.07 
M 241.95 176.91 237.09 184.25 
M 291.59 101.03 286.91 107.08 275.53 124.4 
M 272.66 128.72 266.99 137.39 
M 264.4 141.62 263.16 143.72 260.98 148.06 259.99 150.36 
M 256.22 159.8 254.34 164.41 
M 252.3 168.72 250.13 172.71 
M 237.87 190.15 235.28 193.25 
M 296.7 101.97 292.5 107.4 290.14 110.81 282.86 122.27 271.29 139.65 268.7 143.83 266.47 148.04 265.49 150.24 
M 261.68 159.28 259.75 163.79 
M 257.76 168.13 254.7 174.13 251.42 179.46 
M 249.05 182.84 246.54 186.11 
M 243.9 189.28 241.19 192.32 
M 301.76 102.9 298.21 107.53 295.76 111.02 287.31 124.56 
M 284.63 128.79 277.21 139.66 274.49 143.9 273.32 146 
M 271.16 150.26 269.24 154.6 
M 265.38 163.34 261.13 171.52 
M 259.07 175.26 257.02 178.8 
M 252.51 185.37 249.99 188.48 
M 244.54 194.29 241.74 196.88 
M 306.96 103.84 304.21 107.35 299.09 114.73 296.63 118.65 289.41 131.14 288 133.29 
M 285.09 137.57 282.11 141.78 
M 279.37 145.96 278.09 148.06 277.05 150.22 
M 271.19 163.06 267.87 169.16 260.25 181.42 
M 312.4 104.82 307.87 110.67 302.5 118.58 300.03 122.77 295.56 131.35 293.09 135.64 290.28 139.87 284.46 148.1 282.06 152.33 281.05 154.47 
M 279.07 158.73 276.01 164.96 273.67 168.91 269.99 174.34 
M 265.42 180.89 263.28 183.97 
M 261.13 186.96 258.86 189.88 
M 256.43 192.67 253.83 195.22 
M 317.92 105.8 314.45 110.28 308.83 118.26 306.13 122.56 303.72 126.96 299.37 135.76 296.89 140.03 289.74 150.34 
M 284.97 158.73 281.8 164.89 279.46 168.8 276.9 172.47 272.99 177.49 
M 268.24 183.61 266.07 186.48 
M 263.93 189.26 261.7 191.93 
M 323.47 106.76 318.29 113.74 312.61 122.15 309.93 126.62 303.04 140.05 300.47 144.24 293.38 154.68 
M 290.83 158.85 288.5 162.94 
M 286.22 166.89 283.8 170.63 
M 273.22 183.48 268.69 188.95 
M 264.35 193.86 262.06 196.01 
M 329.02 107.71 324.74 113.54 316.33 126.17 313.63 130.73 307.59 141.98 
M 305.04 146.28 299.45 154.78 
M 296.66 158.98 294.07 163.08 
M 291.64 167.03 288.02 172.57 286.71 174.24 
M 284.01 177.49 281.23 180.56 
M 275.89 186.25 271.27 191.33 
M 334.63 108.8 328.33 117.42 319.8 130.29 309.45 148.14 305.34 154.71 
M 302.52 159.01 299.75 163.17 
M 297.14 167.16 293.43 172.75 289.57 177.68 
M 281.33 186.3 278.71 188.89 
M 340.45 109.96 331.87 121.57 325.95 130.06 320.23 138.92 316.34 145.47 
M 313.74 149.82 311.06 154.22 
M 308.32 158.66 305.59 163.03 
M 302.9 167.18 300.29 171.04 
M 297.75 174.6 293.92 179.48 292.58 180.95 
M 289.86 183.81 287.1 186.5 
M 284.37 189.02 281.73 191.39 
M 346.41 111.24 344.23 114.3 332.2 130.05 326.19 138.71 322.06 145.07 
M 319.38 149.26 315.36 155.64 307.41 168.84 303.56 174.61 
M 298.41 181.14 293.06 186.76 
M 284.86 193.71 282.2 195.6 
M 352.41 112.63 348.1 118.5 337.04 132.24 
M 333.9 136.47 328.04 144.93 
M 325.22 148.95 318.36 159.08 311.86 169.98 
M 306.85 177.82 304.3 181.16 
M 358.34 114.01 354.72 118.99 341.87 134.39 337.17 140.65 
M 325.52 156.56 321.41 162.48 315.04 173.12 
M 304.99 186.98 301.02 190.92 299.65 192.05 
M 364.13 115.37 358.11 123.32 345.08 138.63 340.47 144.81 
M 331.51 156.53 328.63 160.25 
M 320.69 172.15 318.24 176.26 
M 308.21 189.57 305.57 192.07 
M 369.85 116.71 361.2 127.72 351.47 139.01 339.16 154.89 331.78 164.01 
M 326.39 171.61 323.89 175.55 
M 313.96 189.31 311.37 191.91 
M 375.64 118.02 367.2 128.48 356.17 141.59 
M 350 149.44 343.88 157.15 
M 340.85 160.8 336.4 166.05 332.25 171.46 
M 327.11 178.91 322.16 185.87 
M 381.49 119.34 363.81 140.42 351.59 155.82 347.03 161.34 
M 344.02 164.82 339.65 169.91 335.55 175.11 
M 322.74 191.1 320.99 192.8 
M 387.33 120.62 369.82 141.23 354.66 160.15 342.92 173.68 336.21 181.81 
M 328.4 190.57 326.89 192.04 
M 393.1 121.86 379.12 138.01 372.7 145.85 363.74 157.22 359.23 162.59 
M 356.2 166.02 350.36 172.59 
M 347.58 175.75 344.85 178.83 
M 398.63 123.07 396.09 126.1 385.13 138.3 371.18 156.1 
M 368.25 159.76 362.26 166.69 
M 356.36 173.2 349.48 180.82 345.45 184.93 
M 403.93 124.24 398.67 130.25 391.08 138.37 387.63 142.49 378.57 154.85 371.26 163.96 
M 368.27 167.36 359.5 176.94 
M 408.97 125.35 404.82 130.25 397.09 138.34 393.46 142.46 388.7 148.86 
M 385.75 153.13 381.47 159.2 378.61 162.86 374.2 167.97 
M 371.22 171.25 368.28 174.44 
M 365.41 177.54 362.62 180.52 
M 413.78 126.39 410.78 130.19 399.49 142.44 396.1 146.65 391.51 153.25 
M 388.61 157.57 384.35 163.53 382.91 165.28 
M 418.51 127.4 413.11 134.4 405.73 142.62 402.25 146.72 399.02 151.04 393 159.98 388.65 165.91 
M 382.81 172.57 374.31 181.59 
M 423.28 128.43 419.07 134.35 415.62 138.78 406.93 149.17 
M 403.68 153.43 396.05 164.34 394.55 166.28 
M 388.57 173.22 385.71 176.32 
M 423.89 135.59 418.32 143.23 409.96 153.72 
M 423.89 143.7 421.13 147.58 412.9 158.09 
M 423.89 151.69 415.74 162.17 
M 409.56 169.92 406.58 173.51 
M 418.61 166.06 415.55 169.86 
M 412.56 173.48 411.07 175.26 
M 421.67 169.95 419.5 172.61 
M 143.59 105.26 145.37 105.33 
M 158.15 102.79 161.37 62.32 162.35 62.36 161.69 102.57 
M 172.71 100.28 178.01 48.32 178.99 48.39 176.26 100.17 
M 187.36 98.31 195.84 40.89 196.82 41.01 190.91 98.35 
M 202.07 96.86 214.43 34.12 215.4 34.29 205.63 97.03 
M 216.83 96.07 233.29 30 234.25 30.21 220.37 96.44 
M 231.61 95.87 248.93 33.97 249.88 34.22 235.14 96.31 
M 246.39 95.62 264.72 39.22 265.66 39.51 249.93 96.11 
M 261.17 96.23 286.02 35.91 286.94 36.27 264.66 97.02 
M 275.87 97.96 305.7 37.24 306.59 37.65 279.28 99 
M 290.46 100.3 318.36 48.95 319.23 49.4 293.85 101.45 
M 305 102.94 326.9 64.73 327.77 65.19 308.37 104.1 
M 319.54 105.5 338.47 73.59 339.33 74.06 322.92 106.66 
M 334.09 108.1 348.21 86.58 349.06 87.08 337.42 109.36 
M 355.32 112.72 356.82 113.66 
M 146.06 105.21 150.51 97.14 152.59 92.97 154.48 88.72 156.16 84.39 157.61 79.97 158.88 75.48 161.05 66.36 
M 162.29 66.42 166.48 64.52 168.45 63.42 170.29 62.16 171.98 60.73 173.52 59.12 174.92 57.35 177.48 53.51 
M 178.71 53.61 182.83 53.22 184.81 52.85 186.71 52.29 188.52 51.52 190.24 50.53 191.87 49.35 194.99 46.63 
M 196.22 46.79 200.44 46.55 202.48 46.25 204.45 45.76 206.34 45.05 208.14 44.12 209.87 43 213.2 40.39 
M 214.42 40.61 218.53 40.95 220.55 40.93 222.51 40.72 224.43 40.27 226.29 39.6 228.1 38.73 231.65 36.6 
M 232.86 36.88 235.76 38.84 237.25 39.63 238.8 40.23 240.39 40.59 242.03 40.73 243.73 40.66 247.19 40.16 
M 248.39 40.47 251.25 42.66 252.73 43.57 254.27 44.28 255.88 44.77 257.56 45.03 259.3 45.1 262.89 44.86 
M 264.07 45.22 268.61 45.74 270.84 45.81 273.05 45.68 275.21 45.31 277.33 44.72 279.42 43.92 283.54 41.95 
M 284.69 42.39 288.63 43.86 290.61 44.4 292.6 44.74 294.61 44.84 296.62 44.71 298.65 44.37 302.72 43.31 
M 303.84 43.83 305.61 47.07 306.63 48.54 307.78 49.85 309.08 50.99 310.54 51.95 312.13 52.76 315.57 54.09 
M 316.67 54.65 317.36 58.37 317.87 60.14 318.57 61.8 319.46 63.34 320.55 64.77 321.83 66.09 324.71 68.55 
M 325.8 69.13 327.46 71.86 328.41 73.07 329.47 74.11 330.66 74.96 332 75.62 333.45 76.11 336.57 76.78 
M 337.66 77.37 338.71 80.69 339.38 82.23 340.21 83.64 341.23 84.9 342.43 86.02 343.78 87 346.8 88.74 
M 347.87 89.36 348.55 95.11 349.07 97.92 349.79 100.66 350.72 103.32 351.88 105.91 353.23 108.42 356.3 113.33 
M 164.41 65.5 168.45 63.42 170.29 62.16 171.98 60.73 173.52 59.12 176.23 55.46 
M 164.9 71.83 168.23 70.11 171.14 67.89 172.41 66.56 174.65 63.54 
M 165.38 78.15 168.01 76.8 169.21 75.98 171.3 74 173.06 71.63 
M 165.87 84.48 167.79 83.49 169.47 82.21 171.48 79.71 
M 180.79 53.45 184.81 52.85 186.71 52.29 188.52 51.52 190.24 50.53 193.45 48.03 
M 180.93 59.9 184.39 59.38 186.02 58.9 187.58 58.23 189.06 57.38 191.82 55.23 
M 181.07 66.34 183.97 65.9 186.64 64.94 187.87 64.23 190.19 62.43 
M 181.21 72.78 183.54 72.43 185.7 71.66 186.69 71.08 188.55 69.63 
M 181.35 79.22 183.12 78.96 184.75 78.37 186.92 76.84 
M 198.35 46.71 202.48 46.25 204.45 45.76 206.34 45.05 208.14 44.12 211.55 41.73 
M 198.08 53.87 201.64 53.48 203.33 53.05 204.95 52.44 206.51 51.64 209.44 49.59 
M 197.82 61.03 200.8 60.7 202.21 60.35 204.87 59.17 207.33 57.45 
M 197.56 68.19 199.96 67.92 201.1 67.64 203.24 66.69 205.21 65.3 
M 197.29 75.35 199.98 74.93 201.6 74.21 203.1 73.16 
M 216.49 40.82 220.55 40.93 222.51 40.72 224.43 40.27 226.29 39.6 229.88 37.7 
M 215.87 47.35 219.46 47.45 221.19 47.26 222.88 46.87 224.53 46.27 227.7 44.6 
M 215.25 53.89 218.36 53.97 219.87 53.81 222.77 52.95 225.52 51.5 
M 214.63 60.42 217.27 60.49 219.79 60.06 221 59.63 223.34 58.39 
M 214.01 66.95 217.23 66.9 219.24 66.3 221.16 65.29 
M 213.39 73.49 215.91 73.44 217.48 72.98 218.98 72.19 
M 234.3 37.9 237.25 39.63 238.8 40.23 240.39 40.59 242.03 40.73 245.45 40.45 
M 233.32 44.72 235.93 46.26 237.3 46.78 238.7 47.1 240.16 47.22 243.17 46.98 
M 232.35 51.55 234.61 52.88 237.02 53.61 238.28 53.72 240.9 53.5 
M 231.37 58.37 233.29 59.5 234.3 59.89 236.4 60.21 238.62 60.03 
M 230.4 65.2 232.8 66.44 234.52 66.7 236.35 66.56 
M 229.42 72.02 230.65 72.74 231.96 73.14 234.07 73.08 
M 249.81 41.6 252.73 43.57 254.27 44.28 255.88 44.77 257.56 45.03 261.08 45.02 
M 248.75 47.98 251.33 49.71 252.69 50.34 254.11 50.77 255.59 51 258.7 50.99 
M 247.68 54.35 249.92 55.85 252.34 56.77 253.63 56.98 256.33 56.97 
M 246.62 60.72 248.52 62 249.52 62.46 251.66 62.95 253.95 62.94 
M 245.56 67.09 247.94 68.52 249.69 68.92 251.57 68.92 
M 244.5 73.47 245.71 74.28 247.03 74.78 249.19 74.89 
M 266.35 45.52 270.84 45.81 273.05 45.68 275.21 45.31 277.33 44.72 281.48 42.97 
M 265.08 51.47 269.05 51.72 270.99 51.61 272.9 51.29 274.78 50.76 278.45 49.22 
M 263.81 57.42 267.25 57.64 268.94 57.54 272.23 56.8 275.41 55.46 
M 262.54 63.37 265.46 63.55 266.89 63.47 269.67 62.84 272.37 61.71 
M 261.26 69.31 263.66 69.47 265.99 69.2 269.34 67.95 
M 259.99 75.26 262.78 75.33 264.57 74.93 266.3 74.2 
M 286.66 43.17 290.61 44.4 292.6 44.74 294.61 44.84 296.62 44.71 300.68 43.88 
M 284.73 49.54 288.23 50.63 289.98 50.93 291.75 51.02 293.53 50.9 297.12 50.17 
M 282.81 55.91 285.84 56.86 287.36 57.12 290.44 57.09 293.55 56.46 
M 280.88 62.29 283.45 63.09 286.05 63.37 287.36 63.29 289.99 62.75 
M 278.95 68.66 282.12 69.5 284.27 69.48 286.43 69.04 
M 277.03 75.03 279.5 75.68 281.18 75.67 282.87 75.33 
M 304.7 45.48 306.63 48.54 307.78 49.85 309.08 50.99 310.54 51.95 313.82 53.45 
M 301.91 53.1 303.56 55.73 304.55 56.86 305.67 57.84 306.93 58.67 309.75 59.96 
M 299.11 60.72 300.5 62.92 302.27 64.69 303.32 65.38 305.68 66.46 
M 296.32 68.34 297.44 70.11 298.11 70.88 299.71 72.09 301.61 72.97 
M 293.53 75.96 294.88 77.88 296.1 78.81 297.54 79.47 
M 316.98 56.53 317.87 60.14 318.57 61.8 319.46 63.34 320.55 64.77 323.23 67.34 
M 313.89 64.57 314.62 67.54 315.19 68.91 316.83 71.36 319.05 73.48 
M 310.79 72.6 311.37 74.94 311.82 76.02 313.11 77.95 314.86 79.63 
M 307.7 80.64 308.12 82.35 308.87 83.87 310.67 85.77 
M 326.61 70.53 328.41 73.07 329.47 74.11 330.66 74.96 332 75.62 334.99 76.48 
M 323.63 78.59 325 80.53 326.74 81.98 327.76 82.49 330.05 83.15 
M 320.64 86.64 321.6 88 322.81 89.01 325.11 89.82 
M 338.15 79.06 339.38 82.23 340.21 83.64 341.23 84.9 342.43 86.02 345.26 87.9 
M 334.72 89.07 335.52 91.13 336.06 92.05 337.5 93.6 339.34 94.82 
M 109.37 158.07 117.84 157.31 121.07 157.21 124.27 157.52 130.76 157.06 138.66 156.15 145.31 156.61 150.78 156.63 154.28 156.46 157.26 156.7 163.2 156.55 169.6 157.36 172.23 157.13 174.49 156.69 180.54 157.53 183.74 157.49 186.34 157.88 189.15 157.9 192.45 159.13 196.06 159.94 199.56 160.22 205.87 161.2 208.56 160.97 211.52 161.65 214.28 161.81 217.52 161.64 220.53 162.39 222.91 163.37 225.25 163.93 227.79 164.86 234.45 164.84 238.09 165.1 244.88 166.86 219.43 173.26 216.2 173.53 210.58 174.93 207.97 175.83 204.92 176.29 202.05 176.93 198.59 176.98 195.69 177.44 190.76 178.74 185.06 179.28 181.41 178.75 178.07 178.53 175.22 178.8 171.91 178.6 169.2 179.01 166.08 179 163.59 179.62 157.1 179.35 152.03 180.52 149.31 180.81 143.7 180.18 137.74 179.19 126.68 176.56 109.49 173.93 
M 109.16 160.27 121.13 160.13 124.43 160.54 133.77 160.46 139.02 160.13 142.29 160.84 148.02 161.36 151.24 161.39 160.64 162.44 163.59 162.47 170.03 163.09 173.06 163.83 181.51 165.11 183.64 165.71 195.42 167.29 197.97 168.09 201.15 168.65 203.5 169.97 206.54 171.29 209.66 172.01 212.99 171.74 215.41 172.36 217.66 173.16 
M 108.93 162.41 115.12 162.97 118.01 162.95 121.3 163.15 127.67 163.89 130.87 163.86 133.81 164.26 136.39 164.38 138.97 164.68 142.07 165.22 145.51 166.05 151.89 166.99 154.74 167.02 157.7 167.36 160.99 168.03 166.24 170.39 169.76 170.75 181.51 173.71 184 174.63 
M 108.79 164.54 112.26 165.11 114.93 165.75 118.14 165.84 121.25 166.31 127.36 167.51 130.18 167.81 132.84 168.55 135.57 168.92 138.52 169.04 141.92 169.9 145.33 171.15 148.84 171.95 151.59 173.02 
M 109.14 166.99 115.06 168.62 117.95 169.05 124.33 171.02 129.6 172.26 132.42 173.23 135.46 174.05 
M 109.33 170.37 111.89 171.47 115.19 172.31 117.78 173.24 120.63 174.52 
M 199.62 202.08 204.32 210.14 203.55 210.75 196.83 204.27 
M 185.06 200.44 213.86 247.95 213.03 248.48 182.08 202.35 
M 170.54 198.53 192.71 245.63 191.83 246.07 167.37 200.12 
M 160.23 197.09 162.39 206.17 161.47 206.53 156.93 198.37 
M 202.88 210.1 203.45 217.76 203.92 221.54 204.6 225.27 205.5 228.95 206.62 232.57 207.95 236.14 210.98 243.2 
M 209.93 243.86 205.8 241.96 203.71 241.2 201.58 240.64 199.43 240.31 197.23 240.22 195 240.32 190.49 240.92 
M 189.39 241.47 184.35 232.67 181.68 228.38 178.84 224.22 175.82 220.19 172.61 216.31 169.23 212.55 162.17 205.26 
M 207.88 242.87 203.71 241.2 201.58 240.64 199.43 240.31 197.23 240.22 192.76 240.58 
M 203.45 236.92 199.87 235.48 198.04 235 196.18 234.72 194.29 234.64 190.45 234.95 
M 199.02 230.97 196.02 229.76 194.49 229.36 191.36 229.06 188.14 229.32 
M 194.6 225.02 192.18 224.05 190.95 223.72 188.42 223.48 185.83 223.69 
M 190.17 219.06 188.34 218.33 186.45 217.94 183.52 218.06 
M 396.47 181.78 400.6 185.75 402.82 189.16 408.83 195.1 411.47 198.83 406.66 200.68 403.84 201.23 400.66 201.4 394.42 203 392.44 205.19 389.78 205.65 386.26 205.56 382.77 205.67 377.76 208.19 372.76 211.16 370.12 212.32 367.99 213.97 366.36 216.19 363.47 217.19 360.01 217.46 357.33 218.36 354.49 219.06 350.47 218.62 347.33 219.32 344.72 220.89 343.65 224 340.58 224.86 337.02 225.18 332.69 228.91 330.3 230.51 328.55 232.86 324.21 236.84 320.94 237.63 318.84 239.24 317.52 242.07 315.48 244.19 312.66 245.54 310.49 247.53 305.62 250.47 302.29 250.95 299.35 252.09 296.75 253.59 294.43 255.44 292.4 257.58 291.19 260.52 289.75 263.22 287.16 264.75 284.81 266.55 282.73 268.6 280.21 270.15 276.33 270.35 273.74 271.92 271.95 274.33 271.19 280 268.64 275.93 267.84 272.47 265.01 265.18 263.99 261.88 262.95 259.76 261.37 254.18 260.34 251.28 256.28 245.16 253.12 237.33 250.05 231.88 248.3 228.09 247.53 224.67 246.25 221.96 245.56 218.98 241.67 211.22 239.72 207.84 237.87 203.97 
M 391.7 182.99 395.61 186.25 397.4 189.87 399.27 192.91 402.01 196.35 
M 386.93 184.21 390.27 188.02 392.78 191.36 
M 382.16 185.4 390.42 192.73 392.47 196.16 
M 377.37 186.52 381.01 190.86 384.79 193.71 
M 372.58 187.64 377.8 194.1 381.3 197.37 
M 367.78 188.73 371.22 192.49 373.39 195.66 376.26 198.91 379.86 201.51 383.05 205.3 
M 362.98 189.8 367.25 194.44 369.17 197.69 371.77 200.84 375.51 203.03 
M 358.17 190.86 361.95 195.57 366.92 202.59 
M 353.35 191.82 357 196.43 361.34 202.75 364.09 206.43 
M 348.51 192.75 352.19 196.52 354.73 199.92 356.44 203.48 
M 343.68 193.68 348.06 197.43 349.69 199.58 351.41 203.16 
M 338.84 194.54 344.72 200.63 347.46 202.77 348.67 206.19 
M 333.99 195.41 337.86 198.72 341.65 204.69 343.78 206.76 344.61 210.05 
M 329.15 196.27 332.54 200.13 335.03 202.62 337.43 205.68 339.28 208.89 342.84 215.88 
M 324.3 197.13 326.94 201.6 329.12 204.83 337.49 216.02 339.3 219.35 
M 319.46 197.98 321.99 202.45 324.4 205.82 328.75 210.78 330.35 214.01 
M 314.59 198.72 317.72 201.83 319.8 205.61 322.91 211.83 324.78 214.29 328.02 220.01 
M 309.71 199.36 312.5 203.32 316.41 210.16 318.3 213.18 320.13 215.65 321.73 218.62 327.38 224.65 329.65 228.59 
M 304.83 200 309.61 207.53 313.2 214.4 314.99 216.77 320.36 221.69 323.16 227.49 323.78 230.94 
M 299.95 200.57 302.74 204.65 305.05 207.57 308.26 213.77 315.28 222.14 318.58 227.58 
M 295.06 201.13 304.3 213.91 305.84 216.59 307.79 219.35 309.43 222.1 311.47 224.78 314.02 227.52 315.63 230.97 316.34 233.9 
M 290.17 201.68 293.02 205.54 296.65 211.89 300.06 216.98 302.61 223.17 305.3 225.4 309.92 231.07 312.56 234.06 313.57 236.28 
M 285.27 202.18 289.28 209.26 290.88 212.87 293.09 215.39 294.64 217.68 295.94 220.35 300.96 228.4 303.29 231.42 306.35 233.7 308.71 237.64 310.82 240.16 311.87 242.24 
M 280.38 202.69 284.23 209.97 285.49 213.21 287.26 216.35 289.79 218.51 292.36 220.38 293.53 223.28 294.89 225.57 296.02 228.9 
M 275.47 203.09 277.74 206.98 281.09 213.7 286.86 221.57 288.58 224.49 290.39 230.2 291.25 231.97 
M 270.56 203.35 272.47 207.3 276.12 213.68 278.83 219.14 282.49 224.33 285.35 230.89 287.06 233.31 288.4 236.08 290.42 238.87 
M 265.65 203.62 267.8 207.21 269.48 210.6 272.82 216.57 273.73 219.29 274.13 221.49 276.03 224.81 278.13 228.32 280.79 231.88 282.23 234.34 283.57 237.18 285.32 239.31 287.63 241.23 290.91 248.13 291.23 250.9 290.89 252.89 
M 260.73 203.82 264.67 210.65 268.34 219.32 269.34 222.38 272.88 228.17 275.47 231.61 276.39 234.85 277.88 237.92 279.53 240.25 280.94 241.72 
M 255.81 204 258.43 207.65 260.37 210.95 261.81 213.79 262.9 216.54 263.76 222.15 268.88 228.13 270.38 230.7 271.49 234.23 274.46 239.85 276.21 242.18 
M 250.89 204.17 253.32 208.03 256.72 214.14 257.72 216.53 259.07 218.75 260 221.77 267.04 237.28 268.29 239.06 269.96 240.69 271.12 244.65 
M 245.97 204.1 248.48 208.03 251.48 214.52 255.2 221.45 258.01 228.1 260.22 232.06 262.01 238.04 262.9 240.07 263.12 242.64 265.52 245.18 267.19 248.77 
M 241.05 204.02 243.17 208.1 245.29 211.25 246.84 214.11 248.22 216.24 249.63 222.01 251.12 224.89 252.44 228.34 254.34 232.02 255.33 235.03 257.08 237.65 257.57 239.96 257.73 242.51 259.4 244.95 261.85 247.79 262.8 252.27 264.09 254.94 264.68 257.67 265.85 260.49 266.39 262.52 268.37 265.67 269.88 271.22 270.95 273.71 
M 422.9 128.35 429.2 126.53 435.03 124.16 437.63 122.67 443.44 118.46 445.34 116.41 447.03 114.91 449.07 114.1 452.52 112.21 455.91 110.8 458.69 110.01 460.75 108.48 462.14 107.16 463.68 105.02 465.8 103.66 469.74 102.17 473.32 100.58 476.34 100.45 478.86 99.7 485.15 91.97 485.53 100.67 485.04 103.79 484.92 107.26 483.76 109.61 483.24 112.23 483.13 115.26 482.33 117.82 480.93 120.09 480.13 122.95 480.28 126.6 479.69 129.47 478.41 132.17 476.58 134.05 475.7 136.58 475.91 143.2 475.38 145.72 476.92 151.86 478 155.36 477.05 157.69 476.96 160.9 476.4 163.13 477.1 166.37 477.3 169.97 476.56 172.59 476.27 174.43 477.16 177.44 478.36 180.24 479.29 183.14 480.07 187.17 479.81 189.97 480.09 192.74 479.24 194.39 481.23 203.78 481.74 206.95 481.93 210.51 484.39 218.21 479.96 215.16 477.43 212.9 472.06 210.08 468.75 207.27 465.57 205.67 463.66 203.73 461.32 201.79 458.48 200.52 453.27 196.84 449.95 194.89 445.08 190.77 442.13 188.65 435.29 184.2 426.6 177.05 422.9 174.73 
M 426.55 129.77 432 128.15 438 125.76 444.84 121.86 447.26 120.32 448.44 118.88 450.26 117.46 453.37 116.29 456.2 114.53 459.41 114.25 462.27 112.93 463.86 110.44 465.38 109.24 
M 426.62 132.12 435.64 129.56 438.2 128.58 441.28 126.75 445.58 125.33 448.72 123.25 449.58 122.31 451.27 120.96 456.65 119.27 460.03 117.28 462.76 117.11 464.89 115.36 468.05 115.02 
M 427.07 134.71 436.56 132.12 438.95 130.99 441.8 130.02 445.95 129.71 448.83 128.41 450.12 126.76 451.66 125.42 453.38 123.6 457.78 122.67 462.22 120.68 465.64 121.23 467.75 120.54 469.53 119.31 
M 433.04 135.91 436.67 135.18 439.29 133.93 442.44 133.32 446.26 133.13 449.03 132.34 450.84 131.12 453.74 129.74 456.16 128.15 463.81 126.1 466.75 125.61 472.21 124.27 474.03 123.59 477.65 123.58 
M 432.82 138.98 439.63 138.13 443.24 137.22 447.32 136.88 449.8 135.89 451.79 134.77 453.7 133.26 456.7 131.96 460.75 132.71 463.97 133.02 467.23 131.47 470.44 131.07 472.52 130.22 
M 432.6 141.93 435.91 141.5 439.52 142.21 443.65 141.61 447.31 140.7 451.04 137.83 453.6 137.99 457.08 137.18 461.59 137.74 
M 429.95 145.61 436.02 144.69 439.96 145.21 444.53 145.24 450.56 143.83 452.06 142.54 453.73 141.43 
M 433.03 148.04 436.6 147.92 440.34 148.19 444.09 148.16 447.14 147.67 450.29 147.53 
M 429.91 150.98 433.02 150.83 440.12 151.53 446.57 151.05 449.51 151.16 452.38 150.59 454.7 150.41 457.68 150.54 
M 422.9 151.54 426.53 153.33 433.01 153.92 440.23 155.03 445.34 154.92 448.43 155.12 451.24 154.9 454.22 153.8 458.73 154.61 463.02 156.13 467.22 156.2 
M 433.17 156.34 436.51 156.72 442.96 158.27 446.54 158.89 451.89 158.25 453.2 158.98 456.7 158.41 460.62 159.3 463.86 161.89 472.57 161.96 474.87 161.74 
M 427.21 157.73 436.4 159.43 443.63 161.06 446.79 162.11 451.77 161.9 453.76 162.33 457.38 162.79 
M 433.45 161.85 439.58 162.66 446.32 165.44 449.7 165.82 451.4 166.5 456.49 167.6 459.03 169.73 463.17 171.12 466.52 171.43 
M 422.9 160.82 430.53 163.85 433.31 164.67 436.21 165.3 439.79 166.86 446.16 168.33 451.44 170.91 453.37 171.29 456.35 172.5 459.71 174.44 461.79 176.11 464.33 177.1 468.57 175.74 472.19 176.43 475.62 178.16 
M 433.2 167.89 436.64 168.71 440.13 170.23 443.46 171.38 449.05 172.76 452.8 175.91 455.64 176.88 459.38 177.74 
M 426.99 167.48 430.18 169.23 437.24 172.35 440.22 173.15 448.27 176.74 450.98 178.06 453.03 179.65 456.5 181.16 459.77 182.29 463.48 183.03 467.1 182.88 
M 430.53 171.39 433.62 173.83 436.83 175.48 439.33 176.56 441.66 178.01 444.13 179.93 447.09 181.5 450.25 182.6 453.16 184.32 
M 433.36 176.09 436.48 177.99 441.33 181.4 443.56 183.67 445.9 185.27 449.51 186.7 455.63 190.6 460.13 192.73 467.79 197.54 471.46 198.56 
M 430.09 176.72 436.1 181.2 438.96 182.84 441.32 184.68 443.14 186.53 446.13 188.21 449.13 189.51 454.34 193.8 457.28 195.76 459.6 196.58 465.2 199.25 
M 383.25 119.74 386.87 119.81 390.85 120.25 399.5 121.82 407.72 122.96 415.36 123.52 419 123.63 422.26 123.35 424.87 122.41 426.77 121 427.98 120.38 428.36 120.98 427.78 122.62 426.08 124.56 423.27 125.93 419.88 126.25 416.31 126.16 409.69 125.5 
M 45.75 152.63 46.48 149.7 47.62 147.23 49.35 144.77 51.66 142.34 54.43 139.9 64.19 132.83 70.85 127.39 74.54 124.89 78.3 122.69 82.04 120.86 92.48 116.56 96.53 119.65 98.6 123.16 100.92 126.63 103.48 130.06 105.56 133.57 106.96 137.21 109.09 144.61 109.08 148.51 109.45 152.34 109.55 156.22 108.74 164.17 109.28 167.96 109.61 175.7 109.24 179.66 108.15 183.76 105.73 188.02 96.62 187.3 89.87 186.36 83.86 185.18 78.46 183.67 73.52 182.03 68.91 180.13 64.56 177.96 60.65 175.74 57.02 173.24 
M 91.52 138.79 92.19 141.97 91.36 148.21 90.68 151.05 88.78 156.27 89.18 160.77 89.83 163.09 90.25 165.64 90.32 168.53 89.51 171.91 74.46 171.29 70.36 170.74 66.38 169.93 62.52 168.65 58.8 166.84 
M 52.97 169.54 45.25 160.43 43.8 158.53 42.5 156.43 42.48 153.96 44.47 152.35 46.91 152.89 48.18 154.85 50.1 159.16 55.71 170.21 57.07 173.21 
M 56.43 173.91 48.04 169.25 43.46 166.91 35.08 161.75 34.46 159.4 35.8 157.4 38.27 157.17 40.27 158.56 45.6 163.44 49.59 166.62 56.94 173.07 
M 59.05 154.33 57.7 149.21 58.09 143.92 60.17 139.04 63.72 135.1 68.36 132.53 73.58 131.61 78.82 132.43 83.51 134.91 87.14 138.77 89.32 143.61 89.81 148.89 88.56 154.04 85.7 158.51 81.55 161.81 76.55 163.58 71.25 163.63 66.21 161.96 62 158.74 59.05 154.33 
M 58.86 153.88 58.21 151.99 57.8 150.04 57.63 148.05 57.72 146.06 58.05 144.09 58.62 142.17 59.42 140.35 60.44 138.63 61.67 137.05 63.08 135.64 64.65 134.42 66.37 133.4 68.2 132.59 70.11 132.02 72.08 131.69 74.07 131.61 76.06 131.78 78.02 132.19 79.9 132.84 
M 60.68 153.13 60.11 151.47 59.75 149.76 59.6 148.01 59.68 146.26 60.2 143.72 
M 63.97 137.53 65.76 136.04 67.27 135.15 68.87 134.44 70.55 133.94 72.28 133.65 74.03 133.58 75.78 133.72 77.49 134.08 79.15 134.65 
M 62.49 152.38 62 150.95 61.57 147.97 61.63 146.46 62.11 144.21 
M 65.25 139.02 66.87 137.67 68.17 136.9 71 135.86 73.99 135.55 76.97 135.98 78.4 136.47 
M 64.31 151.62 63.9 150.43 63.54 147.93 63.59 146.66 64 144.73 
M 66.83 140.22 69.07 138.65 71.44 137.78 72.69 137.57 75.21 137.62 77.64 138.29 
M 67.87 150.36 67.32 148.31 67.48 146.2 67.69 145.71 
M 69.71 142.69 71.59 141.64 73.68 141.27 75.77 141.6 77.65 142.59 79.1 144.14 79.97 146.07 80.17 148.19 79.67 150.25 78.52 152.03 76.86 153.35 74.86 154.06 72.74 154.08 70.73 153.41 69.04 152.13 67.87 150.36 
M 70.54 142.22 70.11 143.09 
M 68.67 145.96 67.38 148.54 
M 72.38 141.5 71.07 144.12 
M 69.99 146.28 67.91 150.43 
M 73.95 141.32 72.02 145.18 
M 71.3 146.6 68.76 151.7 
M 75.31 141.53 72.88 146.4 
M 72.61 146.95 69.75 152.67 
M 76.55 142.01 70.83 153.45 
M 77.71 142.66 72.1 153.87 
M 78.67 143.68 73.47 154.08 
M 79.49 145 74.97 154.02 
M 80.04 146.84 76.77 153.39 
M 48.52 155.64 51.04 158.17 
M 47.11 148.33 50.62 151.84 
M 49.4 144.72 54.07 149.39 
M 52.33 141.74 57.84 147.25 
M 55.57 139.07 58.78 142.29 
M 59.02 136.62 60.77 138.37 
M 62.45 134.15 63.57 135.27 
M 65.73 131.52 67.32 133.11 
M 68.97 128.86 72 131.89 
M 72.37 126.35 77.4 131.39 
M 75.97 124.05 79.51 127.59 
M 79.79 121.96 83.56 125.73 
M 83.81 120.08 89.23 125.49 
M 87.96 118.32 91.33 121.69 
M 92.21 116.67 95.26 119.71 
M 57.22 153.68 57.53 153.09 57.67 152.35 57.67 150.24 57.5 149.09 57.12 148.08 56.69 147.42 55.73 146.98 55.06 147.04 54.37 147.69 
M 88.44 138.04 88.97 139.56 89.02 140.16 88.44 141.65 
M 95.4 168.87 95.77 167 95.62 165.66 95.41 165.39 94.83 165.14 93.75 165.22 
M 103.21 149.8 103.88 148.48 105.15 147.4 107.41 146.97 109.08 147.02 
M 96.85 144.6 95.3 147.64 95.3 148.15 95.63 148.7 
M 88.7 126.91 91.08 129.12 91.59 129.31 91.89 129.16 
M 87.92 172.33 87.71 173.4 87.27 174.2 86.67 174.72 85.28 175.54 84.73 175.62 84.59 175.27 
M 89.68 133.91 90.99 134.85 93.03 135.82 93.53 136.8 
M 91.86 174.15 91.04 175.02 90.33 175.32 84.99 176.49 
M 92.26 132.46 92.72 131.97 92.82 130.96 
M 74.26 175.3 75.99 174.5 77.24 172.81 77.49 171.96 78.11 167.59 78.06 166.61 77.75 165.9 77.11 165.15 
M 86.23 167.59 85.33 169.22 85.21 169.96 85.81 173.07 85.75 174.33 85.3 175.06 84.79 175.41 
M 83.31 185.03 83.7 184.41 84.26 184.11 84.86 184.24 85.25 184.73 
M 55.83 140.87 54.85 140.61 54.09 140.2 
M 74.08 178.38 74.97 178.01 77.23 177.49 78.5 176.94 80.23 175.54 81.34 174.17 82.2 172.73 82.7 172.42 
M 102.39 143.69 103.58 144.42 104.27 144.66 107.88 144.87 109.09 145.26 
M 108.38 182.91 107.85 183.33 107.96 183.88 
M 100.51 176.95 101.22 174.98 101.37 172.53 100.82 169.25 99.59 167.26 99.27 166.35 
M 78.34 183.63 79.73 182.84 81.11 182.42 82.04 182.52 83.24 182.89 
M 98.61 123.19 97.03 123.2 95.39 123.85 92.62 125.87 92.03 126.53 91.68 127.29 
M 84.81 125.53 85.95 125.9 88.24 127.34 89.81 129.3 90.71 130.08 91.46 130.25 92.3 130.01 
M 103.18 181.3 104.29 179.14 104.84 177.7 104.79 175.44 104.34 174.37 
M 80.03 172.57 80.72 170.27 81.29 169.23 81.67 168.94 82.39 168.76 82.81 168.89 84.38 170.56 
M 53.81 166.57 55.3 164.41 
M 48.9 156.55 49.31 155.65 49.75 155.55 
M 88.46 176.42 85.09 176.84 
M 97.02 168.79 97.03 167.02 96.86 165.67 96.68 165.36 95.44 165.01 94.02 165.14 
M 58.01 162.95 58.3 162.53 59.65 161.55 60.72 161.18 61.91 161.04 63.26 161.27 63.82 161.71 64.42 162.92 
M 98.28 122.62 96.72 122.77 95 123.51 92.12 126.21 91.47 127.75 
M 84.44 161.42 85.14 162.98 85.4 164.63 84.95 166.86 84.14 169.04 84.22 169.58 84.8 170.81 
M 90.28 171.24 90.05 172.96 89.64 173.84 89.03 174.58 88.28 174.99 85.7 175.89 84.98 176.04 84.65 175.93 
M 99.4 176.1 100.44 172.73 100.46 169.58 100.2 168.75 99.22 166.97 99.06 166.23 
M 102.57 183.56 103.08 183.23 103.7 183.08 104.88 183.05 105.27 183.37 105.61 184.41 
M 96.7 185.06 96.3 184.13 96.27 183.12 96.65 182.24 97.41 181.43 100.37 179.26 100.99 178.45 101.43 177.49 101.95 175.02 101.95 174.08 101.52 172.29 
M 59.53 140.54 57.73 140.57 55.7 140.39 54.42 139.91 
M 65.12 162.96 65.22 163.67 64.96 164.3 64.44 164.55 63.85 164.44 
M 94.38 121.63 91.67 126.49 91.38 127.77 91.46 128.67 
M 100.56 126.1 98.97 126.7 97.43 128.12 
M 92.6 180.74 93.24 179.96 94.12 178.11 94.7 176.48 94.48 176.01 
M 76.7 183.09 79.33 181.01 83.33 176.67 
M 81.36 171.51 81.81 171.09 82.32 170.9 82.94 170.9 83.51 171.11 83.92 171.52 85.14 172.91 85.35 173.39 85.48 174.24 85.06 175.26 
M 93.87 138.42 94.61 140.59 94.81 142.33 94.44 144.79 93.88 146.18 
M 66.67 130.72 68.58 131.05 70.56 132.14 
M 88.07 178.25 88.05 177.81 87.71 177.6 85.52 177.12 
M 53.37 165.74 53.93 165.08 
M 108.25 180.04 106.1 180.79 105.82 180.59 105.8 180.03 
M 88.27 162.04 88.24 164.56 87.98 165.42 86.84 166.93 85.46 169.32 85.35 170.07 85.86 173.24 
M 100.05 132.17 98.95 131.74 96.29 129.97 94.23 129.09 93.05 128.16 92.14 128.23 
M 50.52 151.93 51.94 153.35 52.54 153.75 52.93 153.79 53.67 153.45 54 152.91 53.84 152.28 
M 100.53 143.99 100.34 148.54 100.49 149.24 100.98 149.56 
M 74.21 173 75.46 172.61 75.99 172.05 76.84 170.4 77.18 169.38 77.44 168.37 77.59 166.61 76.8 164.6 
M 96.26 132.75 95.09 131.92 93.46 130.24 92.86 128.58 92.34 128.36 
M 52.67 153.33 53.29 153.23 53.65 152.85 53.7 152.44 53.4 152.15 
M 100.97 159.12 100.02 159.4 97.93 160.4 95.65 161.88 93.12 165.04 92.51 165.52 
M 98.51 123.02 96.72 123.13 95.05 123.88 
M 70.07 180.61 71.16 179.58 75.53 177.9 
M 86.23 180.36 86.69 180.71 87.16 180.78 89.54 179.47 
M 58.02 144.82 57.14 144.66 54.36 144.67 53.68 144.96 53.06 145.45 
M 90.39 178.74 91.6 178.62 91.97 178.4 92.21 178.02 
M 87.7 162.77 87.64 164.99 87.34 165.85 86.33 167.22 85.15 169.56 85.2 170.34 85.73 172.62 85.81 174.02 
M 65.47 161.4 65.7 162.44 65.55 163.59 65.03 164.41 64.25 164.59 
M 85.48 180.39 85.67 182.4 85.81 182.86 86.76 184.23 86.88 185.77 
M 90.31 178.76 91.66 178.59 92.2 178.06 
M 88.54 179.86 90.54 178.75 91.5 178.65 
M 107.66 170.56 104.92 169.41 101.87 167.52 101.17 166.99 100.27 165.21 99.89 164.94 99.02 164.75 
M 58.05 144.35 56.56 144.25 
M 53.46 165.92 54.34 164.96 55.56 164.1 
M 87.56 118.49 90.72 118.69 92.07 119.27 92.6 119.84 92.95 120.52 93.07 121.38 92.86 123.3 92.26 125.16 
M 91.97 153.96 92.97 153.12 93.97 152.73 94.4 152.68 95.16 152.99 95.71 153.65 95.95 154.53 95.41 155.52 94.71 155.96 
M 60.13 139.13 57.6 139.94 55.88 139.87 54.86 139.59 
M 82.46 174.97 82.91 174.34 83.45 173.91 84.68 173.56 85.19 173.92 85.33 174.55 85.08 175.22 84.72 175.38 
M 96.88 131.65 94.94 130.34 93.13 128.31 92.49 128.16 91.91 128.41 
M 62.32 175.63 62.11 173.03 61.94 172.18 61.5 171.3 58.41 168.63 56.22 166.1 55.6 164.74 
M 58.2 143.65 55.27 143.58 54.37 143.34 53.52 142.82 52.44 141.65 
M 89.84 158.71 90.13 159.85 90.13 160.55 89.81 162.09 89.69 164.37 89.14 165.62 87.47 167.99 
M 95.14 145.92 93.79 148.37 93.9 149.1 94.34 149.99 
M 86.71 156.93 89.04 157.22 90.45 157.93 91.08 158.78 91.28 159.48 91.3 160.32 
M 56.13 155.92 57.4 155.21 57.86 154.61 58.43 152.92 58.41 151.9 
M 57.76 148.33 57.22 147.42 56.63 146.99 55.65 146.78 54.99 146.94 
M 49.52 170.1 54.09 173.27 57.62 175.26 61.29 177.01 68.91 180.13 
M 95.52 115.82 103.11 123.41 
M 101.95 114.38 108.04 120.46 
M 108.37 112.93 118.72 123.28 
M 114.78 111.46 126.5 123.18 
M 121.24 110.04 132.13 120.94 
M 127.77 108.7 135.84 116.78 
M 134.33 107.39 141.13 114.19 
M 140.96 106.15 151.87 117.06 
M 147.63 104.95 158.54 115.86 
M 154.37 103.82 162 111.44 
M 161.1 102.67 171.3 112.87 
M 167.79 101.49 173.75 107.45 
M 174.58 100.4 186.38 112.21 
M 181.49 99.44 192.03 109.98 
M 188.52 98.59 197.76 107.84 
M 195.66 97.86 202 104.21 
M 202.91 97.24 210.76 105.09 
M 210.22 96.68 218.04 104.5 
M 217.89 96.48 226.97 105.55 
M 225.65 96.36 232.78 103.49 
M 233.48 96.32 241.28 104.11 
M 241.27 96.24 249.24 104.2 
M 249.03 96.12 258.96 106.06 
M 257.28 96.5 264.29 103.51 
M 265.82 97.17 272.79 104.13 
M 274.9 98.37 284.55 108.02 
M 284.21 99.81 293.35 108.95 
M 293.69 101.42 302.31 110.04 
M 303.34 103.19 313.68 113.53 
M 312.93 104.91 322.11 114.09 
M 322.48 106.59 330.59 114.7 
M 332.05 108.28 342.81 119.04 
M 341.89 110.25 348.3 116.66 
M 352.07 112.55 363.11 123.6 
M 362.33 114.95 371.79 124.4 
M 372.59 117.33 380.93 125.67 
M 382.75 119.62 389.25 126.12 
M 392.8 121.8 399.9 128.89 
M 402.88 124.01 410.63 131.76 
M 412.96 126.21 421.7 134.95 
M 422.99 128.37 434.36 139.74 
M 433.02 130.53 435.8 133.3 
M 122 185.23 122.88 186.99 
M 125.1 184.55 126.86 188.08 
M 94.31 116.09 95.83 119.11 
M 124.68 176.82 129.96 187.39 
M 130.84 189.15 132.73 192.93 
M 97.41 115.39 101.37 123.32 
M 102.25 125.08 107.54 135.64 
M 128.17 176.91 129.54 179.65 
M 132.18 184.93 135.7 191.97 
M 100.51 114.7 104.47 122.62 
M 106.23 126.14 109.75 133.18 
M 114.15 141.99 120.32 154.31 
M 103.61 114.01 104.05 114.89 
M 109.33 125.45 111.09 128.97 
M 116.37 139.53 121.65 150.1 
M 119.47 138.83 128.65 157.21 
M 112.88 118.76 117.28 127.57 
M 127.84 148.69 131.36 155.73 
M 151.54 196.09 151.92 196.84 
M 112.89 111.9 114.21 114.54 
M 115.09 116.3 120.37 126.86 
M 130.93 147.99 133.57 153.27 
M 154.7 195.52 155.61 197.34 
M 119.06 117.35 123.46 126.16 
M 135.78 150.8 137.54 154.32 
M 157.79 194.81 159.3 197.84 
M 119.07 110.49 119.51 111.37 
M 121.27 114.89 126.55 125.45 
M 138.88 150.1 140.64 153.62 
M 160.88 194.11 161.76 195.87 
M 122.2 109.85 127.04 119.53 
M 140.24 145.94 141.12 147.7 
M 142 149.46 142.88 151.22 
M 156.97 179.39 158.73 182.91 
M 166.49 198.43 166.77 198.99 
M 125.32 109.2 132.8 124.17 
M 142.48 143.53 144.24 147.06 
M 160.5 179.58 160.97 180.5 
M 128.44 108.56 135.04 121.77 
M 136.8 125.29 139.44 130.57 
M 140.33 132.33 147.37 146.41 
M 131.57 107.92 135.53 115.84 
M 140.81 126.41 141.69 128.17 
M 142.57 129.93 143.45 131.69 
M 146.09 136.97 150.49 145.77 
M 154.01 152.81 154.89 154.57 
M 167.11 179 168.98 182.74 
M 135.15 108.2 138.67 115.24 
M 140.43 118.76 141.31 120.52 
M 143.07 124.05 145.71 129.33 
M 149.23 136.37 156.28 150.45 
M 158.92 155.73 159.37 156.64 
M 170.46 178.82 173 183.9 
M 137.86 106.73 140.06 111.13 
M 140.94 112.89 147.98 126.98 
M 153.26 137.54 160.31 151.62 
M 161.19 153.38 162.07 155.15 
M 173.85 178.72 174.39 179.79 
M 141.01 106.14 151.13 126.39 
M 156.41 136.95 161.7 147.51 
M 144.16 105.55 150.76 118.76 
M 160.44 138.12 163.97 145.16 
M 147.33 105 153.93 118.2 
M 164.49 139.33 166.25 142.85 
M 171.53 153.41 173.29 156.92 
M 149.37 102.2 156.85 117.16 
M 167.42 138.29 170.06 143.57 
M 151.14 98.84 151.58 99.72 
M 154.22 105 160.38 117.32 
M 169.18 134.93 170.94 138.45 
M 179.74 156.06 180.48 157.52 
M 152.84 95.36 155.04 99.76 
M 156.8 103.28 163.85 117.37 
M 170.01 129.69 171.77 133.21 
M 172.65 134.97 173.53 136.73 
M 178.81 147.3 179.69 149.06 
M 181.45 152.58 183.92 157.52 
M 195.53 180.75 196.41 182.51 
M 154.46 91.72 158.43 99.64 
M 159.31 101.4 168.11 119.01 
M 172.51 127.81 175.15 133.09 
M 183.07 148.93 187.47 157.74 
M 197.21 177.2 199.8 182.38 
M 155.97 87.84 172.25 120.41 
M 176.65 129.21 178.41 132.73 
M 180.17 136.25 181.05 138.01 
M 185.46 146.81 191.42 158.74 
M 201.3 178.5 203.06 182.02 
M 211.86 199.63 214.1 204.1 
M 157.35 83.72 174.52 118.05 
M 179.8 128.61 187.72 144.46 
M 188.6 146.22 195.39 159.79 
M 211.49 191.99 214.13 197.27 
M 158.62 79.36 176.66 115.45 
M 181.06 124.25 186.35 134.81 
M 188.11 138.34 189.87 141.86 
M 192.51 147.14 199.03 160.18 
M 211.87 185.87 212.75 187.63 
M 215.39 192.91 218.92 199.95 
M 159.78 74.79 175.18 105.6 
M 176.94 109.12 181.34 117.92 
M 183.99 123.2 190.15 135.53 
M 195.43 146.09 202.78 160.79 
M 215.67 186.58 216.55 188.34 
M 219.19 193.62 220.07 195.38 
M 160.87 70.09 165.71 79.77 
M 168.35 85.05 173.63 95.61 
M 177.16 102.65 178.92 106.18 
M 182.44 113.22 184.2 116.74 
M 185.96 120.26 187.72 123.78 
M 188.6 125.54 190.36 129.06 
M 198.28 144.91 200.04 148.43 
M 204.44 157.23 206.41 161.16 
M 163.66 68.78 168.5 78.46 
M 171.14 83.74 174.66 90.78 
M 179.07 99.59 179.95 101.35 
M 180.83 103.11 183.47 108.39 
M 202.83 147.12 206.35 154.16 
M 166.46 67.48 174.82 84.21 
M 182.74 100.05 183.62 101.81 
M 189.78 114.13 192.42 119.42 
M 194.19 122.94 195.07 124.7 
M 200.35 135.26 209.15 152.87 
M 224.99 184.55 225.87 186.31 
M 169.12 65.92 178.36 84.4 
M 179.24 86.16 188.04 103.77 
M 189.81 107.29 198.61 124.89 
M 205.65 138.98 213.57 154.82 
M 225.01 177.71 230.3 188.27 
M 171.61 64 203.73 128.26 
M 209.02 138.82 209.9 140.58 
M 212.54 145.86 216.94 154.66 
M 219.58 159.95 220.46 161.71 
M 228.38 177.55 232.78 186.35 
M 173.87 61.63 207.75 129.41 
M 209.51 132.93 210.4 134.69 
M 217.44 148.77 220.08 154.05 
M 222.72 159.34 224.48 162.86 
M 233.28 180.46 234.16 182.22 
M 175.92 58.85 193.97 94.94 
M 195.73 98.46 209.81 126.63 
M 220.37 147.76 223.01 153.04 
M 225.65 158.32 227.42 161.84 
M 234.46 175.93 237.98 182.97 
M 185.68 71.49 186.56 73.25 
M 188.32 76.77 194.48 89.09 
M 199.77 99.65 212.97 126.06 
M 229.69 159.51 230.57 161.27 
M 237.62 175.35 238.5 177.11 
M 249.94 200 250.82 201.76 
M 181.54 56.32 182.86 58.96 
M 188.15 69.52 198.71 90.65 
M 203.11 99.45 216.31 125.86 
M 219.83 132.9 220.71 134.66 
M 184.74 55.82 186.94 60.22 
M 192.22 70.78 201.9 90.15 
M 205.42 97.19 208.06 102.47 
M 208.94 104.23 224.79 135.92 
M 187.69 54.83 189.89 59.23 
M 194.29 68.03 204.85 89.16 
M 207.49 94.44 210.13 99.72 
M 211.89 103.24 215.41 110.28 
M 217.17 113.8 227.74 134.93 
M 232.14 143.73 233.02 145.49 
M 241.82 163.1 243.53 166.52 
M 243.83 167.12 247.1 173.66 
M 190.4 53.36 193.48 59.52 
M 194.36 61.28 196.12 64.81 
M 197 66.57 206.68 85.93 
M 214.61 101.78 215.49 103.54 
M 218.13 108.82 225.17 122.9 
M 227.81 128.18 230.45 133.46 
M 233.09 138.75 235.73 144.03 
M 239.25 151.07 241.01 154.59 
M 241.89 156.35 251.58 175.72 
M 254.22 181 255.1 182.76 
M 193.33 52.33 194.21 54.09 
M 199.49 64.65 211.81 89.3 
M 217.09 99.86 218.85 103.39 
M 221.5 108.67 227.66 120.99 
M 229.42 124.51 239.98 145.64 
M 240.86 147.4 247.02 159.72 
M 250.54 166.76 253.18 172.04 
M 255.82 177.33 257.58 180.85 
M 202.03 62.84 218.75 96.29 
M 220.51 99.81 231.08 120.94 
M 231.96 122.7 249.56 157.91 
M 255.72 170.23 256.6 171.99 
M 257.48 173.75 260.12 179.04 
M 205.46 62.82 222.19 96.27 
M 226.59 105.08 232.75 117.4 
M 240.67 133.24 244.19 140.29 
M 245.95 143.81 251.24 154.37 
M 202.12 49.26 202.56 50.14 
M 207.84 60.7 219.29 83.59 
M 221.05 87.11 227.21 99.43 
M 229.85 104.71 236.89 118.8 
M 241.29 127.6 242.17 129.36 
M 243.05 131.12 246.58 138.16 
M 250.98 146.96 252.74 150.48 
M 205.16 48.44 205.6 49.32 
M 215.28 68.69 216.16 70.45 
M 217.05 72.21 221.45 81.01 
M 222.33 82.77 239.93 117.98 
M 240.81 119.74 242.57 123.27 
M 245.21 128.55 249.61 137.35 
M 207.97 47.16 209.29 49.8 
M 218.09 67.41 220.73 72.69 
M 221.61 74.45 242.74 116.7 
M 247.14 125.5 256.82 144.87 
M 278.82 188.88 279.71 190.64 
M 282.35 195.92 283.23 197.68 
M 285.01 201.24 285.47 202.16 
M 210.55 45.44 212.75 49.84 
M 219.79 63.93 222.43 69.21 
M 226.83 78.01 229.47 83.29 
M 230.35 85.05 243.56 111.46 
M 244.44 113.22 245.32 114.98 
M 249.72 123.78 253.24 130.82 
M 255 134.34 258.52 141.39 
M 269.08 162.51 269.97 164.27 
M 281.41 187.16 287.57 199.48 
M 213.02 43.49 216.1 49.65 
M 221.38 60.22 226.66 70.78 
M 231.94 81.34 232.82 83.1 
M 233.7 84.86 246.91 111.27 
M 247.79 113.03 250.43 118.31 
M 251.31 120.07 254.83 127.11 
M 270.67 158.8 274.2 165.84 
M 279.48 176.41 280.36 178.17 
M 285.64 188.73 290.92 199.29 
M 216.61 43.78 219.69 49.94 
M 223.21 56.98 229.37 69.31 
M 232.01 74.59 253.14 116.84 
M 254.9 120.36 256.66 123.88 
M 257.54 125.64 258.42 127.4 
M 259.3 129.16 261.06 132.68 
M 273.38 157.33 277.78 166.13 
M 281.31 173.18 283.95 178.46 
M 287.47 185.5 290.99 192.54 
M 220.11 43.89 222.31 48.29 
M 223.19 50.05 224.07 51.81 
M 226.71 57.09 232.87 69.42 
M 235.51 74.7 255.76 115.19 
M 258.4 120.47 261.92 127.51 
M 276 155.68 277.76 159.2 
M 281.28 166.24 290.09 183.85 
M 223.34 43.48 227.31 51.4 
M 229.95 56.68 235.23 67.24 
M 238.75 74.28 258.11 113.02 
M 258.99 114.78 265.16 127.1 
M 279.24 155.27 280.12 157.03 
M 283.64 164.07 287.16 171.11 
M 288.04 172.87 292.44 181.67 
M 226.32 42.54 229.4 48.7 
M 232.92 55.74 267.25 124.4 
M 271.65 133.2 276.93 143.76 
M 281.33 152.57 283.09 156.09 
M 288.38 166.65 289.26 168.41 
M 294.54 178.97 295.42 180.73 
M 229.06 41.13 229.5 42.01 
M 233.02 49.05 262.07 107.15 
M 266.47 115.95 269.11 121.23 
M 272.63 128.27 279.67 142.36 
M 285.84 154.68 286.72 156.44 
M 231.73 39.57 232.17 40.45 
M 235.69 47.5 237.45 51.02 
M 239.21 54.54 263.86 103.83 
M 276.18 128.48 286.74 149.6 
M 238.67 46.57 241.31 51.85 
M 242.19 53.61 264.2 97.63 
M 267.72 104.67 268.6 106.43 
M 269.48 108.19 274.76 118.75 
M 284.44 138.12 288.84 146.92 
M 309.09 187.41 310.85 190.93 
M 241.05 44.44 253.37 69.09 
M 256.89 76.13 278.02 118.38 
M 287.7 137.75 290.34 143.03 
M 311.47 185.28 314.99 192.32 
M 244.06 43.58 253.3 62.06 
M 254.18 63.82 257.7 70.86 
M 259.47 74.38 263.87 83.19 
M 264.75 84.95 272.67 100.79 
M 276.19 107.83 280.59 116.64 
M 291.15 137.76 295.56 146.56 
M 314.04 183.53 316.68 188.82 
M 247.29 43.14 262.69 73.95 
M 267.97 84.51 276.77 102.11 
M 277.65 103.87 283.82 116.2 
M 295.26 139.08 297.9 144.36 
M 303.18 154.93 304.06 156.69 
M 317.27 183.1 319.03 186.62 
M 252.29 46.25 265.93 73.53 
M 267.69 77.05 268.57 78.81 
M 270.33 82.34 284.41 110.5 
M 297.62 136.91 300.26 142.19 
M 311.7 165.08 312.58 166.84 
M 313.46 168.6 316.1 173.88 
M 321.38 184.44 324.91 191.49 
M 256.52 47.82 267.52 69.82 
M 268.4 71.59 290.41 115.6 
M 293.93 122.64 294.81 124.4 
M 299.21 133.2 301.85 138.48 
M 310.65 156.09 318.57 171.93 
M 319.45 173.69 320.33 175.45 
M 327.38 189.54 329.14 193.06 
M 260.06 48.02 280.75 89.39 
M 284.27 96.43 292.19 112.28 
M 293.95 115.8 304.51 136.92 
M 313.31 154.53 318.6 165.09 
M 322.12 172.13 323 173.89 
M 263.5 48 277.14 75.29 
M 278.02 77.05 283.3 87.61 
M 287.7 96.41 293.86 108.74 
M 297.39 115.78 307.95 136.9 
M 311.47 143.95 319.39 159.79 
M 322.91 166.83 326.43 173.87 
M 267.22 48.56 277.34 68.8 
M 279.98 74.09 285.26 84.65 
M 292.31 98.73 295.83 105.77 
M 297.59 109.3 302.87 119.86 
M 305.51 125.14 314.31 142.74 
M 315.19 144.51 318.71 151.55 
M 325.76 165.63 330.16 174.43 
M 270.77 48.76 280.89 69.01 
M 283.53 74.29 289.69 86.61 
M 294.09 95.41 296.73 100.69 
M 297.61 102.46 305.53 118.3 
M 309.94 127.1 322.26 151.75 
M 328.42 164.07 331.94 171.11 
M 274.06 48.46 285.94 72.23 
M 286.82 73.99 294.74 89.83 
M 297.39 95.11 308.83 118 
M 309.71 119.76 310.59 121.52 
M 313.23 126.8 319.39 139.12 
M 324.67 149.69 326.43 153.21 
M 331.71 163.77 334.36 169.05 
M 335.24 170.81 336.12 172.57 
M 277.14 47.73 288.14 69.73 
M 290.78 75.01 298.7 90.86 
M 299.58 92.62 307.5 108.46 
M 317.19 127.83 321.59 136.63 
M 327.75 148.95 329.51 152.47 
M 334.79 163.04 337.43 168.32 
M 280.02 46.6 290.14 66.84 
M 293.66 73.89 301.58 89.73 
M 302.46 91.49 311.27 109.1 
M 320.95 128.46 323.59 133.74 
M 328.87 144.31 335.91 158.39 
M 282.8 45.27 292.04 63.75 
M 295.56 70.79 314.05 107.76 
M 323.73 127.13 327.25 134.17 
M 336.05 151.78 337.81 155.3 
M 286.67 46.12 293.27 59.33 
M 298.55 69.89 309.12 91.02 
M 310.88 94.54 317.92 108.62 
M 326.72 126.23 329.36 131.51 
M 336.4 145.59 341.68 156.15 
M 290.74 47.38 312.31 90.51 
M 314.07 94.03 323.75 113.39 
M 326.39 118.68 330.79 127.48 
M 335.19 136.28 343.99 153.88 
M 352.8 171.49 353.68 173.25 
M 294.39 47.78 315.07 89.15 
M 316.83 92.67 325.63 110.28 
M 329.16 117.32 332.68 124.36 
M 339.72 138.44 352.04 163.09 
M 353.8 166.61 357.32 173.65 
M 297.68 47.48 299.88 51.88 
M 302.52 57.17 313.09 78.29 
M 313.97 80.05 329.81 111.74 
M 331.57 115.26 335.97 124.06 
M 342.13 136.39 349.18 150.47 
M 350.06 152.23 355.34 162.79 
M 357.98 168.08 360.62 173.36 
M 367.74 187.59 368.25 188.63 
M 300.79 46.8 302.11 49.44 
M 306.51 58.25 332.03 109.3 
M 335.56 116.34 358.44 162.11 
M 368.12 181.48 371.35 187.93 
M 309.52 57.37 335.04 108.43 
M 337.68 113.71 343.85 126.03 
M 344.73 127.79 347.37 133.07 
M 350.01 138.35 357.93 154.2 
M 361.45 161.24 362.33 163 
M 368.49 175.32 370.25 178.85 
M 372.01 182.37 374.43 187.21 
M 312.13 55.71 347.78 127.01 
M 352.18 135.82 360.98 153.42 
M 363.63 158.7 365.39 162.22 
M 372.43 176.31 373.31 178.07 
M 375.95 183.35 376.95 185.36 
M 316.47 57.5 316.74 58.05 
M 322.57 69.71 323.01 70.59 
M 324.77 74.11 330.93 86.43 
M 332.69 89.95 335.33 95.23 
M 337.98 100.51 341.5 107.56 
M 342.38 109.32 348.54 121.64 
M 350.3 125.16 351.18 126.92 
M 355.58 135.72 359.1 142.77 
M 359.98 144.53 364.38 153.33 
M 367.9 160.37 368.78 162.13 
M 375.83 176.21 377.59 179.74 
M 329.82 77.31 332.02 81.71 
M 335.54 88.76 339.06 95.8 
M 346.1 109.88 347.86 113.4 
M 359.31 136.29 363.71 145.09 
M 365.47 148.61 366.35 150.37 
M 370.75 159.18 371.63 160.94 
M 339.95 90.69 340.83 92.45 
M 342.59 95.97 343.48 97.74 
M 347 104.78 352.28 115.34 
M 357.56 125.9 366.36 143.51 
M 382.21 175.2 383.09 176.96 
M 383.97 178.72 384.85 180.48 
M 342.6 89.1 344.8 93.5 
M 347.44 98.78 349.71 103.31 
M 354.63 113.15 355.95 115.79 
M 360.35 124.59 361.23 126.35 
M 362.11 128.11 370.03 143.96 
M 382.35 168.6 386.75 177.41 
M 347.57 92.14 347.93 92.86 
M 358.52 114.06 360.73 118.46 
M 364.25 125.5 373.93 144.87 
M 376.57 150.15 377.45 151.91 
M 385.37 167.75 389.77 176.55 
M 362.43 114.97 365.51 121.13 
M 366.39 122.89 369.03 128.17 
M 374.31 138.74 376.95 144.02 
M 378.71 147.54 382.23 154.58 
M 390.15 170.43 391.03 172.19 
M 366.33 115.89 367.65 118.53 
M 369.41 122.05 370.29 123.81 
M 376.45 136.13 379.97 143.17 
M 382.61 148.45 385.25 153.74 
M 391.41 166.06 394.94 173.1 
M 386.51 149.35 388.27 152.87 
M 394.43 165.2 396.19 168.72 
M 377.03 123.51 377.91 125.27 
M 377.67 117.91 382.51 127.59 
M 381.4 118.47 385.36 126.39 
M 389.76 135.2 390.64 136.96 
M 398.56 152.8 404.73 165.12 
M 385 118.79 385.19 119.17 
M 385.75 120.27 387.95 124.68 
M 389.71 128.2 393.23 135.24 
M 395.87 140.52 397.63 144.04 
M 398.51 145.8 409.07 166.93 
M 410.83 170.45 411.71 172.21 
M 388.56 119.01 389.06 120.01 
M 389.61 121.11 397.09 136.07 
M 397.97 137.83 410.29 162.48 
M 412.93 167.76 415.57 173.04 
M 392.25 119.51 392.92 120.84 
M 393.47 121.94 407.11 149.23 
M 412.39 159.79 414.15 163.32 
M 415.03 165.08 417.68 170.36 
M 397.33 122.78 401.29 130.71 
M 403.05 134.23 408.34 144.79 
M 399.83 120.89 400.65 122.53 
M 401.2 123.64 404.28 129.8 
M 406.05 133.32 406.93 135.08 
M 407.81 136.84 410.45 142.12 
M 403.58 121.49 404.52 123.38 
M 405.07 124.49 407.28 128.89 
M 410.8 135.93 411.68 137.69 
M 407.24 121.92 408.39 124.24 
M 408.95 125.34 414.67 136.78 
M 410.84 122.23 412.14 124.85 
M 412.81 126.18 416.77 134.1 
M 425.57 151.7 428.21 156.98 
M 415.51 124.68 415.73 125.13 
M 427.67 149.01 431.19 156.05 
M 417.91 122.61 418.57 123.93 
M 430.65 148.08 435.05 156.88 
M 432.75 145.39 435.53 150.96 
M 435.7 144.41 436.12 145.24 
M 432.11 130.33 434.31 134.73 
M 435.97 131.16 436.12 131.47 
"/></svg>