<svg xmlns="http://www.w3.org/2000/svg" width="520" height="320"><rect x="0" y="0" width="520" height="320" fill="floralwhite"/><rect x="10" y="10" width="500" height="300" stroke="black" stroke-width="1" fill="none"/><path stroke="black" stroke-width="1" fill="none" stroke-linecap="round" stroke-linejoin="round" d="
M 123.87 107.79 135.82 102.94 147.76 98.57 159.69 94.6 183.55 87.29 195.48 84.34 207.41 82.18 219.34 80.54 255.13 79.75 267.06 81.16 278.99 83.97 290.92 87.43 314.79 95.14 326.72 98.81 338.65 103.06 374.44 117.76 411.23 131.98 
M 411.23 187.33 386.37 199.11 374.44 204.53 362.51 209.49 350.58 214.19 338.65 218.27 314.79 225.81 302.85 228.59 290.92 231.01 278.99 233.19 267.06 234.34 255.13 235.12 243.2 234.79 231.27 234.8 219.34 235.05 207.41 233.51 195.48 230.97 183.55 228.02 171.62 224.76 159.69 221.93 147.76 218.57 135.82 214.29 112 204.15 
M 411.23 147.68 394.99 146.61 387.34 145.8 383.42 145.2 371.75 142.9 363.97 141.06 355.81 139.4 335.21 135.68 331.24 135.18 323.11 134.52 310.8 134.19 308.84 133.94 
M 304.96 133.37 299.27 132.34 293.7 131.04 
M 289.99 130.2 284.31 129.17 266.23 126.47 255.44 126.43 234.63 128.2 
M 230.81 128.61 222.95 129.66 
M 218.96 130.1 211.06 130.54 
M 196.2 129.69 188.29 129.79 
M 172.12 131.63 168.11 132.13 
M 160 133.08 155.81 133.69 
M 151.59 134.37 147.42 135.04 
M 143.38 135.64 130.58 137.16 
M 116.08 198.89 116.98 200.09 
M 122.12 199.91 124.88 203.44 
M 121.78 191.85 124.41 195.9 
M 126.62 191.76 127.94 193.82 132.11 199.53 
M 122.64 177.38 126.07 183.15 
M 124 172.04 132.04 185.52 
M 145.52 203.28 148.64 206.82 
M 151.76 210.23 154.64 213.27 
M 125.65 167.39 129.77 174.33 
M 157.33 210.36 160.41 213.65 
M 127.14 162.46 132.04 170.76 
M 162.85 210.52 168.36 216.53 
M 130.74 161.19 132.04 163.45 
M 162.13 203.69 171.11 214.05 
M 129.7 151.29 133.8 158.91 135.98 162.49 
M 166.05 202.19 170.51 207.51 
M 173.35 210.99 176.15 214.3 
M 130.45 144.37 135.78 154.5 140.8 162.58 
M 172.31 203.74 172.66 204.18 
M 130.55 136 137.94 150.13 140.54 154.55 144.81 161.25 
M 176.88 203.63 180.25 208.12 
M 183.01 211.54 185.9 214.73 
M 128.38 123.37 140.24 145.78 145.51 154.62 150.75 162.75 
M 187.85 211.74 190.85 214.86 
M 124.15 108.42 128.73 115.79 140.23 137.1 145.16 145.79 147.82 150.25 155.83 162.85 
M 184.97 202.17 187.07 205.02 
M 189.88 208.55 192.86 211.85 
M 195.95 214.97 199.07 217.92 
M 127.48 106.33 130.95 111.79 140.24 128.57 150.27 145.8 160.95 162.94 
M 190.49 203.13 194.99 208.65 
M 201.18 215.15 204.31 218.15 
M 131.12 104.85 135.42 111.72 142.52 124.23 146.35 130.49 
M 148.95 134.7 158.17 150.45 162.5 157.29 
M 195.24 202.69 197.26 205.25 
M 203.35 212.17 206.48 215.37 
M 134.67 103.41 137.54 107.77 144.78 119.82 152.87 132.33 155.52 136.7 163.32 150.61 171.33 163.12 
M 199.31 201.24 199.6 201.63 
M 205.59 208.99 208.67 212.37 
M 138.25 102.05 146.97 115.46 158.13 132.17 168.39 150.76 171.24 155.28 175.82 162.05 
M 213.88 212.51 219.71 218.51 
M 141.85 100.73 160.6 127.77 163.28 132.17 170.77 146.18 173.4 150.8 177.81 157.52 
M 181.06 162 182.05 163.31 
M 213.12 205.72 216.05 209.25 
M 221.74 215.47 224.45 218.09 
M 231.61 224.13 233.79 225.63 
M 145.46 99.41 162.84 123.48 168.28 132.29 175.77 146.17 178.41 150.77 181.34 155.22 187.56 163.41 
M 213.91 200.18 218.19 205.74 
M 149.1 98.12 153.36 103.61 161.83 115.08 167.8 123.6 173.29 132.31 180.82 146.09 183.52 150.66 186.55 155.08 193.17 163.51 
M 220.21 201.86 223.07 205.43 
M 225.8 208.55 233.44 216.26 
M 235.78 218.42 238.07 220.4 
M 152.76 96.9 158.14 103.57 166.75 115.2 172.76 123.69 178.32 132.25 185.98 145.97 188.79 150.51 191.97 154.91 198.97 163.61 
M 221.92 197.32 223.62 199.61 227.82 204.69 
M 230.48 207.62 233.05 210.32 
M 156.36 95.7 160.34 100.21 162.97 103.62 174.8 119.6 180.61 127.93 183.39 132.2 191.29 145.83 194.3 150.33 204.78 163.72 
M 227.03 197.18 229.78 200.57 
M 235.11 206.56 237.65 209.3 
M 242.58 214.41 247.5 218.82 
M 249.97 220.72 254.9 223.92 
M 159.91 94.53 165.17 100.3 179.84 119.81 188.53 132.21 193.89 141.2 196.79 145.72 200.05 150.12 206.95 158.81 210.38 163.82 
M 231.91 196.6 237.13 202.67 
M 239.75 205.6 242.31 208.43 
M 247.39 213.66 249.91 216 
M 252.39 218.15 254.84 220.09 
M 257.23 221.83 259.58 223.35 
M 163.48 93.46 167.35 97.36 170.17 100.59 184.89 120.07 190.78 128.12 193.62 132.37 199.18 141.26 202.37 145.64 209.31 154.26 212.46 158.65 215.65 163.91 
M 239.09 198.69 245.81 206.27 249.75 210.41 
M 259.55 219.51 263.99 222.82 
M 167.04 92.4 172.39 97.71 175.33 101.06 189.93 120.39 195.69 128.48 201.29 137.09 204.42 141.38 211.43 149.8 214.72 154.16 217.59 158.61 220.64 164 
M 239.47 192.87 241 194.69 
M 246.59 201.04 249.37 204.07 
M 254.69 209.74 259.57 214.74 
M 170.52 91.36 174.55 95.12 177.55 98.21 180.54 101.63 194.85 120.89 203.15 133.23 206.19 137.4 211.38 143.53 
M 214.9 147.66 216.62 149.75 219.72 154.19 223.76 161.02 
M 245.75 193.99 251.54 200.34 
M 254.34 203.39 257 206.32 
M 259.51 209.11 261.85 211.72 
M 268.16 218.56 270.15 220.61 
M 173.92 90.31 179.66 95.62 182.7 98.78 185.68 102.22 196.9 117.6 203.57 127.58 
M 206.37 131.63 207.83 133.65 211.1 137.62 218.2 145.57 221.55 149.86 223.07 152.13 
M 225.95 156.71 228.55 161.27 
M 249.46 192.1 253.61 196.56 
M 264.03 208.48 268.22 213.68 
M 272.13 218.49 274.11 220.7 
M 177.24 89.27 181.7 93.21 187.77 99.32 190.68 102.76 193.48 106.53 200.38 116.38 
M 203 120.29 205.56 124.19 
M 208.21 128.07 212.66 133.86 217.84 139.59 
M 224.74 147.9 226.38 150.12 229.34 154.74 233.24 161.53 
M 252.7 189.75 259.9 197.49 262.56 200.58 268.23 207.94 
M 274.11 216.13 277.09 219.82 278.16 220.92 
M 180.56 88.23 186.75 93.68 189.76 96.62 192.76 99.84 195.68 103.41 202.64 113.21 
M 205.26 117.08 211.61 126.43 214.47 130.11 219.34 135.67 
M 222.78 139.53 227.93 145.85 231.1 150.44 234 155.07 239.32 164.33 
M 260.28 192.23 264.42 196.85 268 201.51 
M 272.17 207.65 276.07 213.52 
M 282.48 221.11 284.9 223.13 
M 183.9 87.21 191.78 94.09 194.84 97.11 197.84 100.47 203.56 108.07 213.92 122.9 216.58 126.39 225.98 137.33 229.36 141.51 232.65 146.04 237.14 152.99 
M 239.83 157.43 243.89 164.41 
M 259.72 186.12 267.35 194.72 
M 269.75 197.9 271.95 201.13 
M 274.02 204.36 276.02 207.55 
M 280.1 213.63 282.3 216.41 
M 187.5 86.32 193.93 91.63 197.02 94.45 200.06 97.61 202.98 101.12 212.6 114.17 
M 215.13 117.66 218.9 122.73 223.03 127.78 
M 226.04 131.31 230.83 137.1 234.1 141.5 237.26 146.16 241.6 153.02 
M 244.15 157.26 246.51 161.28 
M 263.85 185.22 268.93 191.1 
M 271.38 194.31 275.77 200.95 
M 191.23 85.39 196.23 89.19 199.34 91.81 202.38 94.75 205.31 98.05 221.31 119.1 225.21 123.94 
M 227.99 127.28 232.44 132.73 235.56 136.91 241.74 146.14 245.78 152.68 
M 248.18 156.73 250.56 160.71 
M 268.38 184.95 273 190.76 
M 275.29 194.09 283.04 205.98 286.58 210.79 
M 195.27 84.39 198.71 86.77 201.81 89.17 204.84 91.89 207.74 94.96 210.5 98.34 223.7 115.46 230.11 123.39 
M 232.85 126.78 237.13 132.46 243.16 141.32 249.69 152.02 
M 257.37 164.25 257.65 164.66 
M 271.23 182.72 274.7 187.2 
M 279.26 194 283.84 200.91 
M 199.88 83.54 204.39 86.59 207.38 89.08 210.23 91.91 212.93 95.07 220.74 105.24 232.3 119.62 
M 234.89 122.89 241.74 132.26 244.69 136.55 248.8 143.06 
M 258.7 159.38 261.65 163.71 
M 274.23 180.49 276.53 183.55 
M 281.23 190.52 283.45 194 
M 293.45 207.72 295.98 210.76 
M 204.68 82.67 207.01 84.15 209.95 86.4 212.74 89 215.37 91.92 222.92 101.62 234.5 115.93 
M 237 119.14 243.58 127.96 249.25 136.14 251.83 140.37 257.58 150.52 
M 260.16 154.6 266.05 163.29 
M 277.56 178.55 278.43 179.74 
M 281.02 183.42 283.37 186.99 
M 287.92 194.05 290.41 197.59 
M 295.7 204.57 298.29 207.79 
M 209.55 81.88 212.48 83.94 215.19 86.31 217.74 88.99 225.04 98.13 232.85 107.48 239.16 115.45 
M 241.65 118.73 248.38 127.56 251.19 131.54 253.8 135.66 259.46 145.94 
M 264.52 154.23 270.56 163.06 
M 281.36 177.18 283.07 179.62 
M 285.57 183.37 292.58 194.2 
M 300.59 204.72 303.16 207.85 
M 313.29 217.96 314.83 219.11 
M 214.15 81.25 217.55 83.9 220.01 86.35 222.36 89.04 227.08 94.85 237.52 106.93 250.36 123.4 253.18 127.13 255.88 131.11 258.3 135.2 262.69 143.48 266.25 149.81 
M 268.92 154.11 273.46 160.75 276.73 165 
M 290.11 183.4 292.42 187.12 
M 294.82 190.78 297.38 194.41 
M 310.47 210.7 314.31 214.5 315.7 215.61 
M 218.33 80.68 219.8 81.79 222.17 83.99 224.45 86.45 231.52 94.57 239.55 103.24 242.1 106.45 246.99 112.97 255.1 122.96 257.88 126.71 260.44 130.72 262.74 134.82 265.99 141.17 
M 273.39 154.15 278.11 160.74 281.6 165.08 
M 289.03 174.76 292.19 179.64 
M 294.59 183.53 297 187.29 
M 304.99 198.18 307.7 201.64 
M 222.54 80.45 224.26 81.91 226.48 84.12 233.43 91.56 241.47 99.7 244.04 102.77 251.39 112.59 255.48 117.45 
M 258.3 120.83 259.71 122.57 262.38 126.36 264.86 130.41 272.69 145.54 
M 275.19 149.91 276.5 152.07 281.19 158.54 
M 284.63 162.86 286.52 165.17 
M 291.82 172.26 294.06 175.68 
M 304.31 191.14 307.07 194.73 
M 226.6 80.33 240.68 93.62 243.35 96.3 245.92 99.22 253.19 109 261.39 118.75 264.16 122.26 265.47 124.19 
M 270.39 132.38 276.05 143.41 278.51 147.84 281.23 152.11 284.33 156.33 289.5 162.84 
M 295.78 171.55 300.99 179.91 
M 311.86 194.73 317.22 201.5 
M 230.65 80.21 242.64 90.49 245.27 93 247.82 95.76 250.27 98.78 257.54 108.68 265.82 118.44 267.19 120.24 
M 269.86 124 273.67 130.16 277.19 136.74 
M 279.55 141.22 283.33 147.84 284.76 149.95 
M 287.81 154.2 294.46 162.92 
M 300.28 171.67 302.89 175.92 
M 305.52 180.01 309.66 185.79 313.83 191.11 
M 319.25 197.99 321.88 201.27 
M 235.17 80.15 242.13 85.36 247.28 89.78 249.8 92.37 252.24 95.25 258.18 103.37 
M 260.69 106.7 266.08 113.12 
M 268.86 116.43 272.97 121.88 276.92 128.01 
M 279.45 132.3 284.4 141.2 
M 287.05 145.64 288.44 147.85 291.5 152.13 297.99 160.83 301.04 165.43 
M 301.85 166.78 307.51 175.98 
M 310.24 180 313 183.73 
M 240.51 80.09 246.87 84.55 249.4 86.67 251.89 89.08 254.3 91.8 263.88 104.63 267.83 109.39 
M 270.56 112.63 276.1 119.82 
M 278.86 123.8 281.59 127.95 
M 284.24 132.25 286.81 136.71 
M 295.41 150.11 300.15 156.57 304.41 163.13 
M 307.02 167.49 309.6 171.76 
M 312.25 175.82 314.95 179.6 
M 331.08 200.52 333.78 203.49 
M 246.38 79.98 249.11 81.79 251.6 83.71 255.25 87.2 
M 257.61 89.91 265.89 100.82 273.72 110.38 279.32 117.66 285.03 125.76 287.77 130.04 291.75 136.81 
M 294.61 141.38 303.89 154.53 
M 309.28 163.15 314.32 171.41 
M 316.92 175.2 319.58 178.82 
M 322.27 182.4 327.7 189.76 
M 338.42 203.11 341.25 205.96 
M 252.23 79.82 253.85 80.96 256.28 82.99 258.63 85.36 260.94 88.06 267.99 97.07 278.36 109.88 284.09 117.5 288.37 123.69 
M 293.83 132.44 298.16 139.29 306.08 150.34 
M 311.52 158.78 316.46 166.91 
M 321.54 174.31 329.56 185.44 
M 258.23 80.11 260.83 82.51 263.13 85.02 278.96 104.24 
M 281.71 107.76 285.97 113.46 290.22 119.59 
M 292.98 123.82 295.71 128.17 
M 298.52 132.63 301.56 137.16 
M 304.78 141.66 307.98 146.06 
M 313.64 154.44 316.17 158.5 
M 334.17 185.03 339.67 192.65 
M 342.39 196.17 346.5 201.16 350.74 205.84 
M 263.85 80.78 270.11 87.48 277.25 95.81 282.36 102.13 290.63 113.58 300.28 128.35 
M 303.21 132.77 315.61 150.1 
M 318.23 154.12 320.73 158.04 
M 341.67 188.72 344.44 192.46 
M 269.62 81.76 277.18 89.86 284.5 98.55 289.76 105.85 306.37 130.58 311.18 137.13 
M 317.42 145.67 322.78 153.72 
M 325.3 157.58 327.82 161.33 
M 332.92 168.81 335.51 172.68 
M 343.7 184.77 349.26 192.48 
M 275.87 83.23 279.54 87.02 284.3 92.3 286.71 95.28 290.46 100.45 
M 293.03 104.23 306.78 124.16 
M 309.74 128.33 317.73 138.99 320.72 143.22 332.56 161.09 
M 337.74 168.79 340.37 172.76 
M 354.1 192.73 356.83 196.54 
M 282.41 84.96 286.6 89.42 291.31 95.39 301.58 110.38 308.71 120.01 
M 311.72 123.99 319.65 134.37 322.7 138.61 330.8 151.16 337.43 161.06 
M 342.68 168.98 345.32 173.04 
M 350.71 181.21 353.44 185.25 
M 358.91 193.18 361.6 197.01 
M 288.95 86.86 293.43 92.34 303.51 106.7 306.27 110.4 321.75 129.79 326.26 136.14 
M 329.02 140.43 334.35 148.98 
M 337.06 153.11 343.73 163.14 350.31 173.46 
M 363.66 193.64 366.31 197.46 
M 295 88.77 297.88 92.48 305.54 103.02 309.74 108.41 
M 312.72 112.04 320.71 121.35 327.07 129.47 329.98 133.75 337.97 146.8 346.13 159.21 350.09 165.53 
M 352.7 169.76 355.26 173.92 
M 363.11 186.18 365.75 190.18 
M 300.98 90.73 310.4 102.84 316.36 109.96 326.09 121.05 330.74 127.19 
M 333.62 131.49 341.72 144.58 
M 349.87 157.28 357.67 170.22 
M 360.19 174.4 362.73 178.52 
M 367.9 186.67 370.49 190.64 
M 307.4 92.79 317.03 104.36 
M 320.1 107.91 328.13 117.02 331.31 120.9 337.31 129.33 344.23 140.29 
M 349.58 148.84 353.64 155.34 357.56 161.99 
M 360.1 166.4 362.62 170.72 
M 365.11 174.92 367.62 179.05 
M 370.15 183.12 372.68 187.14 
M 314.53 95.06 333.27 116.96 339.53 125.13 343.99 131.71 
M 346.8 136.09 349.48 140.4 
M 354.75 149.03 360.02 157.98 
M 362.55 162.49 367.55 171.26 
M 370.03 175.46 372.49 179.57 
M 374.95 183.61 377.44 187.59 
M 322.01 97.36 338.38 117.03 344.85 125.39 347.92 129.8 353.46 138.49 362.46 153.96 
M 364.98 158.53 367.47 163.07 
M 369.97 167.52 372.46 171.83 
M 374.9 176 377.31 180.07 
M 329.38 99.76 334.13 105.76 346.99 121.37 350.27 125.75 353.32 130.16 356.13 134.52 361.23 143.2 372.35 163.69 
M 374.84 168.1 377.32 172.37 
M 336.42 102.26 352.4 121.72 355.7 126.14 358.69 130.55 361.42 134.92 363.91 139.31 369.85 150.58 
M 374.7 159.8 379.68 168.66 
M 384.47 177.01 386.78 181.07 
M 343.76 105.17 354.28 117.7 357.82 122.09 361.08 126.53 363.94 130.98 366.51 135.43 377.1 155.85 
M 351.5 108.37 359.68 118.04 363.16 122.49 366.25 127 371.42 136.04 377.25 147.3 
M 381.96 156.43 389.15 169.7 
M 359.43 111.68 365.01 118.47 368.32 122.98 371.24 127.55 373.84 132.13 379.82 143.38 
M 382.16 147.88 384.47 152.38 
M 386.77 156.86 391.43 165.73 
M 396.15 174.52 398.49 178.63 
M 367.05 114.79 370.24 118.96 373.37 123.52 376.18 128.12 383.64 141.68 396.07 166.01 
M 398.49 170.52 400.92 174.85 
M 374.11 117.62 378.45 124.03 386.35 137.67 388.69 142.07 398.39 161.61 
M 400.81 166.17 405.83 174.94 
M 380.95 120.26 386.48 129.01 391.52 137.97 393.7 142.28 398.62 152.81 
M 400.8 157.14 403.18 161.64 
M 387.9 122.95 391.86 129.28 395.56 135.96 
M 397.7 140.25 399.59 144.43 
M 401.41 148.57 403.41 152.77 
M 395.03 125.74 397.29 129.43 399.75 133.9 401.86 138.21 407.25 150.63 411.23 158.2 
M 402.04 128.46 405 133.95 406.95 138.23 409.5 144.44 
M 408.62 130.98 411.23 136.59 
M 129.3 105.59 125.38 110.78 
M 135.59 103.03 126.92 114.96 
M 141.58 100.83 136.39 107.81 127.78 120.28 
M 147.98 98.49 143.51 103.9 140.82 107.65 132.67 119.99 128.85 125.41 
M 154.51 96.32 150.85 100.3 148.07 103.74 145.34 107.49 135.79 122.16 
M 132.94 126.35 129.96 130.55 
M 161.45 94.07 158.33 97.17 155.55 100.21 152.75 103.62 150 107.34 147.27 111.33 137.51 126.45 
M 134.64 130.64 130.57 136.59 
M 169.01 91.81 165.84 94.54 163.1 97.21 160.33 100.21 157.52 103.57 154.76 107.24 140.68 128.56 134.85 137.07 130.46 144.06 
M 177.96 89.05 173.56 92.48 167.99 97.39 165.17 100.3 162.35 103.61 158.27 109.14 
M 155.6 113.12 152.87 117.33 
M 150.02 121.72 137.98 139.26 
M 135.1 143.59 133.69 145.77 129.82 152.5 
M 187 86.44 181.29 90.73 175.87 95.24 173.06 97.77 168.71 102.18 
M 165.86 105.54 161.84 111.07 153.71 123.67 149.05 130.35 
M 145.88 134.8 142.75 139.22 
M 139.72 143.59 134.08 152.34 
M 131.54 156.79 129.13 161.23 
M 126.77 165.61 125.4 168.11 
M 195.54 84.33 189.05 88.96 183.66 93.4 178.21 98.28 172.35 104.16 169.45 107.55 166.75 111.21 158.89 123.49 151.05 134.6 
M 147.79 139.12 143.06 145.79 138.67 152.33 
M 135.95 156.7 133.44 161.11 
M 126.37 174.28 123.91 178.69 
M 202.96 82.98 194.3 89.16 188.69 93.84 180.54 101.63 174.6 107.98 171.8 111.51 169.16 115.3 161.09 127.76 145.02 150.21 142.1 154.57 138.06 161.12 
M 209.91 81.83 203.11 86.64 196.7 91.73 191.06 96.74 187.05 100.8 
M 184.23 103.76 181.29 106.92 
M 175.57 113.75 171.56 119.49 166.11 127.86 151.69 148.05 
M 145.71 156.84 142.95 161.21 
M 216.32 80.95 211.98 83.96 208.72 86.44 199.09 94.58 193.41 99.92 190.68 102.76 183.54 110.76 
M 180.71 114.16 177.94 117.79 
M 175.23 121.69 166.54 134.53 
M 163.36 139.04 160.1 143.6 
M 153.8 152.56 147.11 162.69 
M 130.02 191.73 127.28 195.83 
M 221.86 80.47 217.09 83.9 210.88 89.02 204.47 94.85 197.09 101.98 
M 194.25 104.93 187.2 112.91 181.62 119.9 162.05 148.27 
M 159 152.7 152.22 162.78 
M 226.54 80.33 221.75 83.98 218.96 86.33 212.92 91.92 200.74 104.17 192.19 113.42 186.67 120.18 183.89 123.9 167.13 148.42 
M 164.15 152.87 158.25 161.63 
M 230.94 80.2 226.08 84.11 220.76 89.02 214.89 95.08 197.13 114.11 194.38 117.24 188.96 124.11 178.45 139.1 
M 175.24 143.82 166.37 157.42 
M 163.43 161.82 162.66 162.97 
M 138.57 200.78 136.68 203.11 
M 235.06 80.15 230.27 84.15 225.19 89.07 219.74 95.05 207.96 108.62 199.23 117.96 193.93 124.47 186.77 134.44 
M 183.54 139.01 177.16 148.46 
M 174.24 153.04 171.45 157.51 
M 239.08 80.11 234.57 83.97 231.98 86.44 226.94 91.87 212.98 108.94 201.25 121.81 198.65 125.06 191.92 134.5 
M 182.23 148.37 179.28 153 
M 176.52 157.52 173.8 162.04 
M 242.99 80.07 239.15 83.47 233.8 88.85 227.51 96.4 
M 224.87 99.81 216.48 110.68 
M 213.48 114.19 205.94 122.45 203.25 125.7 189.03 145.89 184.42 152.89 
M 246.89 79.97 241.07 85.52 235.75 91.36 230.77 97.69 219.93 112.3 207.89 126.22 204.17 131.43 
M 201.73 135.13 191.22 150.43 188.25 155.03 184.34 161.94 
M 250.83 79.86 245.8 84.74 240.39 90.81 235.33 97.23 224.76 111.91 221.82 115.62 214.19 124.66 
M 211.37 128.24 207.67 133.64 204.14 139.35 
M 201.45 143.51 195.31 152.54 
M 254.81 79.75 250.55 83.89 245.04 90.13 239.96 96.71 229.51 111.38 217.7 126.34 214.95 130.1 212.49 133.86 205.57 145.6 201.1 152.32 
M 198.05 156.93 194.12 163.53 
M 258.33 80.12 255.24 83.13 252.42 86.18 247.03 92.75 232.81 112.69 
M 227.07 120.23 222.7 125.97 219.95 129.88 216.36 135.73 
M 214.21 139.6 210.97 145.57 208.38 149.86 202.31 159 199.43 163.62 
M 261.97 80.56 257.03 85.54 254.25 88.75 248.97 95.62 238.87 110.28 227.66 125.44 224.96 129.45 221.34 135.55 
M 219.19 139.55 217.13 143.55 
M 214.95 147.66 211.08 154.21 204.73 163.72 
M 265.79 81.01 261.54 85.12 256.03 91.6 250.83 98.73 247.15 104.22 
M 244.66 107.95 235.25 121.04 229.89 128.94 227.42 133.13 224.13 139.45 
M 222.06 143.58 218.84 149.78 216.35 154.15 209.91 163.81 
M 178.56 211.31 175.85 214.3 
M 269.47 81.73 266.09 84.86 263.27 87.9 257.79 94.71 255.17 98.34 245.26 113.13 239.9 120.65 235.96 126.51 
M 233.48 130.63 230.05 137.14 223.72 149.96 221.28 154.24 218.52 158.62 214.93 163.9 
M 273.12 82.58 270.75 84.69 267.86 87.61 265.02 90.85 262.26 94.35 256.97 101.68 250.88 110.91 
M 248.44 114.58 241.89 124.17 239.33 128.24 236.97 132.47 230.67 145.96 228.51 150.26 226.11 154.51 221.94 160.95 
M 193.77 205.17 190.9 208.57 
M 188.2 211.76 185.61 214.74 
M 183.01 217.53 180.99 219.54 
M 276.78 83.45 272.53 87.34 269.62 90.46 266.79 93.9 264.05 97.58 258.83 105.09 246.65 123.75 244.03 127.92 241.58 132.27 240.48 134.55 
M 238.37 139.15 235.33 146.12 233.19 150.58 230.84 154.86 226.76 161.19 
M 202.9 200.55 199 205.29 
M 280.32 84.35 277.26 87.11 274.3 90.07 271.39 93.37 268.58 96.99 265.89 100.82 258.5 112.04 248.84 127.52 245.11 134.28 
M 242.9 139 237.77 150.78 235.46 155.16 234.18 157.26 
M 204.32 205.47 201.34 208.83 
M 283.75 85.35 279.02 89.74 276.06 92.86 273.18 96.32 270.43 100.1 262.96 111.7 251.02 131.56 248.51 136.22 246.25 141.06 242.22 150.78 239.98 155.29 237.47 159.57 234.4 164.24 
M 213.57 200.34 212.77 201.49 
M 212.53 201.83 212.48 201.9 
M 287.12 86.33 280.78 92.47 277.85 95.74 275.04 99.37 269.83 107.3 259.51 124.58 
M 257.02 128.9 254.39 133.44 
M 247.35 147.93 244.28 155.11 243.11 157.33 
M 240.61 161.67 238.93 164.33 
M 214.82 205.74 211.95 209.19 
M 290.46 87.3 282.59 95.37 279.73 98.81 277 102.61 274.41 106.6 269.62 114.51 258.92 133 
M 256.22 137.61 252.41 144.79 248.26 154.54 246.12 159.21 244.91 161.42 
M 225.12 197.07 224.98 197.34 
M 211.44 215.54 208.6 218.33 
M 202.88 223.2 201.18 224.49 
M 293.76 88.36 287.32 95.28 284.5 98.55 281.74 102.16 279.08 106.04 274.13 114.08 264.71 130.42 260.61 137.16 
M 257.87 141.79 256.53 144.13 254.15 148.93 249 160.9 
M 229.31 197.45 225.98 203.23 224.66 205.23 
M 219.28 212.5 216.56 215.64 
M 213.78 218.51 210.94 221.12 
M 297.13 89.47 289.18 98.61 283.85 105.76 278.75 113.72 269.09 130.24 262.22 141.36 
M 259.53 145.94 257.11 150.6 
M 254.99 155.38 251.16 164.54 
M 231.94 200.17 229.38 204.38 
M 224.12 212.09 220.16 217.1 218.81 218.54 
M 300.61 90.61 293.76 98.89 288.56 105.8 283.5 113.5 273.51 130.16 269.41 136.73 
M 266.61 141.14 262.57 147.82 260.16 152.35 258.05 157.12 255.13 164.61 
M 239.09 195.01 231.43 207.41 
M 304.21 91.78 295.69 102.61 290.68 109.69 278.05 130.12 268.29 145.48 
M 265.74 149.83 264.53 152.01 262.35 156.61 259.19 164.69 
M 245.22 191.96 236.05 206.35 
M 233.4 210.24 228.18 217.44 
M 307.89 92.95 298.98 104.69 
M 296.47 108.23 292.84 113.69 282.78 130.06 271.39 147.69 268.92 151.93 266.73 156.35 265.74 158.7 
M 248.62 193.64 246.01 197.59 
M 243.36 201.54 238 209.23 
M 232.64 216.45 230.03 219.76 
M 311.69 94.16 307.64 99.33 299.79 110.31 295.01 117.77 287.6 130.04 274.66 149.9 
M 272.28 154.15 270.18 158.56 
M 268.25 163.18 267.59 164.84 
M 257.27 187.08 253.53 193.05 
M 250.93 196.92 245.45 204.65 
M 315.58 95.39 309.76 102.87 304.44 110.43 299.54 117.99 289.6 134.5 279.32 149.97 
M 272.8 163.02 272.02 164.91 
M 255.86 196.28 253.18 200.12 
M 247.49 207.63 244.59 211.17 
M 319.6 96.62 311.98 106.45 306.65 114.18 301.73 122.07 293.02 136.86 
M 290.13 141.26 282.77 152.09 280.4 156.38 276.6 165 
M 265.06 188.1 261.85 193.77 256.75 201.37 253.92 205.13 249.48 210.45 
M 323.67 97.88 314.33 110.07 308.95 117.99 303.91 126.27 296.68 139.23 293.86 143.59 287.85 152.07 285.27 156.32 283.16 160.7 281.28 165.08 
M 269.33 187.59 267.25 191.29 
M 265.09 195.03 262.73 198.82 
M 260.14 202.6 258.79 204.48 254.42 209.78 
M 248.37 216.22 242.39 221.86 
M 327.74 99.18 319.6 109.8 314.03 117.75 308.68 126.21 305.08 132.79 
M 302.82 137.19 299.15 143.76 290.43 156.35 288.07 160.65 286 165.16 
M 279.66 177.68 275.91 183.57 
M 273.57 187.25 267.04 198.21 
M 331.71 100.59 322.13 113.43 313.74 125.98 311.08 130.45 304.31 143.88 301.69 148.17 295.79 156.46 293.15 160.72 290.78 165.25 
M 283 179.62 280.39 183.42 
M 277.83 187.07 275.44 190.63 
M 268.81 201.41 265.14 206.8 261.01 211.83 
M 335.64 101.99 330.13 109.45 324.71 117.15 319.06 125.64 314.96 132.47 
M 312.54 137.07 308.04 146.06 
M 305.48 150.33 302.63 154.51 
M 299.72 158.72 295.62 165.33 
M 292.1 172.02 288.91 177.64 286.29 181.52 278.28 192.28 272.73 201.08 
M 270.44 204.57 268 207.96 
M 265.41 211.22 262.67 214.32 
M 339.48 103.4 329.97 116.97 321.56 129.8 318.8 134.43 311.67 148.19 309.12 152.45 300.47 165.42 
M 296.89 171.58 293.36 177.71 289.42 183.38 
M 281.18 193.99 278.79 197.46 
M 276.55 200.93 271.95 207.64 
M 258.62 221.65 255.7 223.82 
M 343.23 104.95 332.45 120.89 323.99 134.06 321.24 138.72 313.83 152.33 311.15 156.66 305.29 165.51 
M 304.94 166.05 295.23 181.68 291.13 187.07 
M 288.27 190.55 282.89 197.46 
M 280.49 200.9 278.15 204.27 
M 273.4 210.62 270.94 213.51 
M 347.11 106.55 334.84 125.02 326.22 138.36 315.8 156.43 308.78 167.49 
M 305.99 171.77 299.64 181.83 298.34 183.66 
M 292.87 190.69 288.63 195.8 277.28 210.63 
M 264.7 222.74 262.03 224.64 
M 351.18 108.23 345.47 117.25 334.19 133.68 328.28 142.67 314.91 165.01 305.41 180.01 
M 302.87 183.81 297.56 190.89 
M 294.76 194.29 291.97 197.65 
M 289.27 201.01 286.6 204.34 
M 276.29 216.18 272.56 219.62 268.82 222.5 
M 355.43 110.01 348.2 121.45 336.22 138.09 330.29 146.93 315.43 171.29 
M 312.76 175.77 307.54 183.89 
M 304.95 187.56 299.59 194.5 
M 291.25 204.45 288.48 207.67 
M 280.38 216.34 276.53 219.79 272.81 222.56 
M 359.89 111.87 353.62 121.8 350.78 125.78 341.36 138.11 338.22 142.47 329.58 155.3 324.11 163.73 313.57 181.77 309.72 187.6 
M 301.71 198.08 297.49 203.02 293.19 207.74 
M 290.35 210.81 287.55 213.75 
M 284.77 216.46 282.05 218.88 
M 364.38 113.72 359.03 122.18 356.21 126.18 346.61 138.21 341.8 144.6 
M 338.77 148.91 328.76 163.21 326.02 167.43 315.71 185.39 313.19 189.33 310.6 192.99 306.6 198.21 
M 303.82 201.56 300.95 204.75 
M 295.1 210.8 292.22 213.7 
M 368.89 115.53 364.33 122.59 361.58 126.57 358.51 130.54 348.58 142.48 345.37 146.69 330.69 166.94 327.96 171.14 325.33 175.61 319.1 186.85 
M 316.6 190.9 312.74 196.48 308.68 201.64 
M 302.89 207.86 294.09 216.28 
M 373.34 117.31 366.73 127.05 363.76 130.97 352.18 144.7 
M 348.99 148.83 339.89 161.06 
M 336.93 164.91 332.64 170.76 329.94 174.93 326.15 181.7 
M 310.64 204.87 307.73 207.89 
M 304.75 210.71 301.78 213.42 
M 377.75 119.03 368.78 131.51 365.69 135.34 355.74 146.95 336.04 172.69 
M 333.32 176.79 330.75 181.12 
M 328.28 185.58 325.83 189.95 
M 320.79 197.9 316.82 203.19 314.01 206.39 309.57 210.7 
M 382.13 120.72 373.67 132.1 370.62 135.93 360.89 147.37 340.91 172.79 
M 338.08 176.7 334.12 182.96 329.18 191.61 326.68 195.68 322.81 201.21 
M 320.15 204.58 317.37 207.71 
M 314.44 210.62 311.43 213.3 
M 386.5 122.4 375.48 136.56 365.92 147.93 353.48 163.74 344.38 174.92 341.54 178.74 337.56 184.88 
M 332.5 193.21 327.42 200.85 
M 324.85 204.27 322.2 207.44 
M 390.84 124.1 383.66 133.17 370.84 148.56 358.5 164.18 346.45 178.97 343.68 182.8 334.56 196.73 
M 329.5 203.88 326.99 207.08 
M 324.35 210.07 322.99 211.51 318.56 215.47 
M 395.14 125.79 388.91 133.53 375.72 149.22 371.07 155.04 
M 364.99 162.77 355.8 173.97 
M 352.84 177.55 348.57 183 345.84 186.77 336.62 200.01 
M 329.21 209.69 325.25 213.87 323.79 215.14 
M 399.37 127.44 394.23 133.77 380.61 149.83 369.89 163.38 
M 366.85 167.15 360.73 174.46 
M 354.87 181.57 352.08 185.15 
M 346.66 192.46 343.97 196.12 
M 341.32 199.68 338.76 203.08 
M 403.54 129.03 399.56 133.9 388.8 146.29 373.26 165.89 361.16 180.28 354.2 189.07 
M 348.78 196.07 343.49 202.82 
M 336.2 211.8 334.76 213.42 
M 407.56 130.57 404.82 133.95 393.64 146.47 376.62 168.32 
M 373.61 171.97 370.56 175.53 
M 367.52 179.04 364.59 182.55 
M 361.77 186.05 356.32 192.92 
M 411.23 132.31 406.12 138.23 398.45 146.51 394.99 150.69 390.31 157.03 
M 387.33 161.15 379.97 170.7 369.43 183.06 
M 366.57 186.54 361.11 193.39 
M 355.73 199.87 353.07 202.9 
M 411.23 138.11 403.3 146.49 399.7 150.67 396.46 154.96 387.65 167.49 383.25 173.01 
M 380.24 176.56 374.24 183.55 
M 368.56 190.46 363.17 197.16 
M 411.23 143.36 404.52 150.63 402.85 152.78 
M 399.63 157.13 392.29 167.93 387.95 173.56 
M 384.98 177.07 379.02 184 
M 411.23 148.78 407.78 152.78 
M 404.46 157.12 396.95 168.26 392.59 174.13 
M 389.64 177.66 378.01 191.33 
M 411.23 154.87 407.82 159.37 403.21 166.2 
M 400.23 170.58 397.27 174.6 
M 411.23 161.87 403.6 172.89 399.01 178.66 
M 396.01 182.15 390.3 188.88 
M 411.23 169.07 407 174.94 
M 403.87 178.85 400.8 182.48 
M 395.06 189.35 392.97 191.88 
M 411.23 175.78 400.75 188.61 
M 411.23 181.78 410.63 182.51 
M 181.76 87.31 183.55 87.29 
M 196.27 83.82 198.53 51.82 199.52 51.85 199.85 83.55 
M 211 81.24 217.03 40.03 218.02 40.15 214.59 81.19 
M 225.89 79.95 235.66 37.29 236.64 37.48 229.47 80.24 
M 240.82 79.65 254.27 30 255.23 30.23 244.4 80.03 
M 255.78 79.44 272.65 34.59 273.59 34.91 259.28 80.24 
M 270.61 81.56 291.69 42.96 292.58 43.41 273.98 82.79 
M 285.1 85.24 311.94 44.11 312.79 44.63 288.39 86.7 
M 299.34 89.7 327 50.21 327.82 50.76 302.59 91.26 
M 313.56 94.23 335.39 63.99 336.22 64.54 316.81 95.77 
M 327.81 98.67 346.23 75.21 347.04 75.79 331 100.34 
M 341.83 103.84 355.82 88.33 356.6 88.95 344.92 105.65 
M 349.2 106.84 350.58 107.99 
M 184.29 87.11 188.48 80.63 190.46 77.22 192.25 73.73 193.82 70.14 195.17 66.46 196.33 62.7 198.3 55.02 
M 199.56 55.05 204 53.71 206.11 52.87 208.12 51.85 209.99 50.64 211.74 49.23 213.37 47.65 216.43 44.15 
M 217.67 44.3 221.66 44.95 223.62 45.08 225.55 45.01 227.44 44.71 229.29 44.17 231.11 43.43 234.69 41.56 
M 235.92 41.8 240.17 41.47 242.23 41.12 244.2 40.58 246.09 39.82 247.9 38.84 249.62 37.67 252.92 34.96 
M 254.14 35.26 257.59 37.35 259.36 38.21 261.18 38.86 263.05 39.29 264.97 39.48 266.94 39.47 270.96 39.07 
M 272.14 39.48 275.52 42.29 277.29 43.51 279.13 44.55 281.07 45.36 283.1 45.96 285.21 46.37 289.58 46.82 
M 290.7 47.39 294.76 48.85 296.81 49.39 298.86 49.71 300.92 49.81 302.99 49.66 305.07 49.31 309.26 48.22 
M 310.32 48.88 312.96 51.25 314.35 52.25 315.81 53.06 317.35 53.64 318.98 54.01 320.69 54.18 324.23 54.16 
M 325.28 54.85 325.97 58.25 326.48 59.85 327.16 61.33 328.04 62.68 329.12 63.9 330.38 65.01 333.21 67.01 
M 334.25 67.71 335.61 70.81 336.43 72.23 337.39 73.49 338.52 74.58 339.81 75.51 341.25 76.28 344.39 77.55 
M 345.41 78.28 346.4 81.65 347.05 83.21 347.87 84.64 348.87 85.93 350.06 87.07 351.41 88.09 354.42 89.88 
M 355.4 90.66 353 94.04 351.99 95.78 351.17 97.59 350.58 99.47 350.22 101.43 350.06 103.44 350.1 107.58 
M 201.8 54.41 206.11 52.87 208.12 51.85 209.99 50.64 211.74 49.23 214.92 45.94 
M 202.64 61 205.95 59.82 207.49 59.04 210.26 57.03 212.71 54.5 
M 203.49 67.59 206.86 66.23 208.79 64.83 210.49 63.07 
M 219.67 44.66 223.62 45.08 225.55 45.01 227.44 44.71 229.29 44.17 232.91 42.53 
M 219.77 51 223.02 51.35 224.61 51.29 227.7 50.59 230.68 49.24 
M 219.86 57.34 222.43 57.61 223.68 57.56 226.11 57.01 228.46 55.95 
M 219.96 63.67 222.75 63.84 224.52 63.44 226.24 62.66 
M 238.06 41.67 242.23 41.12 244.2 40.58 246.09 39.82 247.9 38.84 251.29 36.35 
M 237.54 48.41 240.98 47.95 244.17 46.88 245.66 46.07 248.45 44.02 
M 237.02 55.15 239.73 54.79 242.25 53.95 243.42 53.31 245.62 51.69 
M 236.51 61.89 239.43 61.37 241.18 60.55 242.79 59.36 
M 255.86 36.34 259.36 38.21 261.18 38.86 263.05 39.29 264.97 39.48 268.94 39.31 
M 254.83 43.99 257.73 45.53 259.23 46.07 262.35 46.58 265.63 46.44 
M 253.81 51.64 256.09 52.85 257.27 53.28 259.74 53.68 262.32 53.57 
M 252.79 59.29 254.46 60.17 256.21 60.69 259.01 60.7 
M 273.82 40.92 277.29 43.51 279.13 44.55 281.07 45.36 283.1 45.96 287.38 46.63 
M 272.25 47.97 275.11 50.11 276.63 50.96 279.9 52.13 283.43 52.68 
M 270.67 55.02 272.93 56.7 274.13 57.37 276.71 58.29 279.49 58.73 
M 269.1 62.07 271.63 63.79 273.51 64.46 275.54 64.78 
M 292.73 48.16 296.81 49.39 298.86 49.71 300.92 49.81 302.99 49.66 307.16 48.81 
M 290.4 54.48 293.76 55.49 297.16 55.84 298.87 55.72 302.31 55.01 
M 288.07 60.8 290.72 61.6 292.05 61.81 294.74 61.78 297.45 61.22 
M 285.74 67.12 287.67 67.7 289.63 67.9 292.59 67.43 
M 311.63 50.1 314.35 52.25 315.81 53.06 317.35 53.64 318.98 54.01 322.44 54.21 
M 308.49 56.81 310.74 58.58 313.22 59.73 314.56 60.03 317.42 60.2 
M 305.36 63.52 307.13 64.91 309.08 65.82 310.14 66.06 312.39 66.19 
M 302.23 70.22 304.22 71.63 305.72 72.08 307.37 72.18 
M 325.59 56.58 326.48 59.85 327.16 61.33 328.04 62.68 329.12 63.9 331.76 66.03 
M 321.47 65.06 322.15 67.57 323.35 69.74 324.18 70.68 326.2 72.31 
M 317.35 73.55 317.83 75.3 318.66 76.81 320.64 78.6 
M 334.9 69.29 336.43 72.23 337.39 73.49 338.52 74.58 339.81 75.51 342.79 76.95 
M 331.93 75.87 333.1 78.12 333.84 79.09 335.69 80.63 337.98 81.74 
M 328.95 82.44 330.28 84.68 331.57 85.76 333.16 86.53 
M 345.87 79.99 347.05 83.21 347.87 84.64 348.87 85.93 350.06 87.07 352.88 89.01 
M 342.5 87.81 343.27 89.9 344.45 91.67 345.22 92.41 347.06 93.67 
M 132.06 160.63 327.27 164.7 327.26 165.7 132.01 164.21 
M 132.14 164.61 306.41 175.93 306.36 176.93 131.93 168.19 
M 132.22 168.6 285.33 185.37 285.23 186.36 131.86 172.16 
M 132.29 172.58 264.15 193 264 193.98 131.78 176.12 
M 132.37 176.57 242.97 198.83 242.78 199.81 131.7 180.09 
M 132.44 180.56 221.91 202.88 221.69 203.85 131.63 184.05 
M 132.52 184.56 201.1 205.15 200.83 206.11 131.55 188.01 
M 132.59 188.56 180.63 205.67 180.32 206.62 131.48 191.96 
M 132.67 192.56 160.64 204.47 160.28 205.4 131.41 195.91 
M 132.74 196.88 141.21 201.9 140.82 202.81 131.33 200.17 
M 307.73 165.55 303 166.46 300.72 167.09 298.53 167.91 296.45 168.93 294.47 170.17 292.59 171.6 288.99 174.8 
M 288.91 176.05 284.24 176.56 281.97 177 279.78 177.63 277.68 178.48 275.67 179.55 273.74 180.81 270.02 183.69 
M 269.9 184.94 265.3 185.06 263.06 185.3 260.89 185.75 258.78 186.41 256.75 187.31 254.78 188.4 250.96 190.96 
M 250.78 192.2 246.3 191.93 244.1 191.99 241.95 192.25 239.85 192.74 237.81 193.46 235.81 194.38 231.91 196.61 
M 231.67 197.84 227.33 197.2 225.18 197.07 223.07 197.15 220.99 197.46 218.95 198.01 216.93 198.76 212.97 200.65 
M 212.68 201.87 208.5 200.86 206.42 200.56 204.35 200.46 202.31 200.59 200.27 200.97 198.25 201.54 194.24 203.09 
M 193.9 204.3 189.91 202.95 187.91 202.46 185.91 202.19 183.9 202.15 181.89 202.35 179.87 202.76 175.83 203.96 
M 175.44 205.15 171.66 203.47 169.75 202.82 167.82 202.37 165.87 202.17 163.89 202.19 161.88 202.43 157.84 203.28 
M 157.4 204.46 153.84 202.52 152.02 201.74 150.17 201.17 148.28 200.83 146.35 200.72 144.37 200.82 140.36 201.4 
M 305.35 165.97 300.72 167.09 298.53 167.91 296.45 168.93 294.47 170.17 290.77 173.16 
M 281.08 165.75 277.1 166.71 275.22 167.42 273.43 168.3 271.73 169.37 268.55 171.94 
M 256.82 165.53 253.49 166.34 251.91 166.93 248.99 168.56 246.32 170.71 
M 232.56 165.31 229.87 165.96 227.4 167.03 226.25 167.75 224.1 169.49 
M 208.29 165.1 206.26 165.59 204.38 166.4 201.88 168.26 
M 286.56 176.27 281.97 177 279.78 177.63 277.68 178.48 275.67 179.55 271.87 182.21 
M 259.52 174.89 255.73 175.49 252.2 176.71 250.54 177.59 247.4 179.79 
M 232.48 173.51 229.49 173.99 226.71 174.95 225.4 175.64 222.93 177.37 
M 205.43 172.13 202.22 172.78 200.26 173.69 198.46 174.95 
M 267.59 184.96 263.06 185.3 260.89 185.75 258.78 186.41 256.75 187.31 252.86 189.64 
M 243.86 182.75 240.13 183.04 238.34 183.4 234.93 184.69 231.71 186.62 
M 220.14 180.55 217.2 180.77 214.42 181.5 213.1 182.08 210.57 183.59 
M 196.42 178.35 193.24 178.72 191.28 179.46 189.43 180.57 
M 248.53 192.02 244.1 191.99 241.95 192.25 239.85 192.74 237.81 193.46 233.85 195.45 
M 221.35 188.36 217.95 188.34 216.3 188.54 213.13 189.47 210.09 190.99 
M 194.17 184.71 191.8 184.69 189.54 185.09 186.34 186.53 
M 229.49 197.48 225.18 197.07 223.07 197.15 220.99 197.46 218.95 198.01 214.94 199.66 
M 195.38 191.47 192.58 191.21 191.21 191.26 188.53 191.82 185.93 192.89 
M 210.59 201.32 206.42 200.56 204.35 200.46 202.31 200.59 200.27 200.97 196.24 202.28 
M 183.09 195.36 180.39 194.87 177.71 194.89 176.39 195.13 173.77 195.98 
M 191.91 203.58 187.91 202.46 185.91 202.19 183.9 202.15 181.89 202.35 177.85 203.32 
M 208.94 232.58 213.36 242.34 212.51 242.86 205.88 234.44 
M 194.48 229.61 214.5 279.6 213.59 280 191.19 231.02 
M 173.34 224.29 174.87 234.9 173.91 235.16 169.89 225.23 
M 211.85 242.02 210.71 249.28 210.34 252.91 210.18 256.54 210.25 260.16 210.56 263.78 211.08 267.39 212.5 274.6 
M 211.35 275.1 204.16 265.08 200.42 260.2 196.53 255.46 192.46 250.88 188.21 246.45 183.81 242.16 174.72 233.84 
M 211.24 245.65 210.34 252.91 210.18 256.54 210.25 260.16 210.56 263.78 211.75 271 
M 207.79 270.06 200.42 260.2 196.53 255.46 192.46 250.88 188.21 246.45 179.3 237.98 
M 386.37 199.11 391.76 204.02 396.72 207.97 403.86 222.3 401.95 224.32 400.85 227.16 400.02 230.17 397.42 231.71 392.96 235.22 391.5 237.89 389.54 239.99 388.43 242.93 386.43 244.75 383.36 244.88 377.42 246.41 373.7 245.46 370.68 245.09 367.5 245.95 365.98 248.61 363.37 250.13 358.1 250.97 356.58 251.66 354.07 251.2 348.3 249.03 344.48 246.94 340.84 246.45 335.34 248.02 332.75 248.02 326.78 247.42 324.05 248.52 313.99 241.82 306.39 233.68 302.85 228.59 
M 381.84 201.17 385.43 204.55 389.22 207.63 392.46 210.86 395.59 213.47 
M 377.32 203.23 381.05 206.75 384.34 209.4 390.18 214.94 392.67 217.89 395.17 220.54 398.17 222.99 400.6 225.72 
M 372.77 205.23 376.67 209.12 380.16 211.48 382.2 214.56 384.55 217.14 387.23 219.56 389.29 221.67 
M 368.18 207.14 376.58 217.27 379.17 219.39 381.37 221.44 386.18 226.37 
M 363.59 209.04 369.9 215.81 371.52 218.88 373.37 221.78 375.88 223.99 379.03 225.37 382.28 227.44 
M 358.97 210.89 362.48 214.18 365.2 217.08 369.61 222.72 371.19 225.92 374.22 228.56 377.24 230.1 380.08 231.11 
M 354.34 212.71 357.86 215.96 360.58 219.02 365.3 224.82 370.34 228.98 372.34 231.6 375.51 234.54 378.15 236.21 381.24 241.81 
M 349.7 214.49 352.5 217.8 355.13 220.01 357.74 223.04 359.72 225.98 361.96 228.04 364.24 230.86 370.02 235.77 
M 345 216.1 352.33 224.45 355.29 227.3 358.23 229.53 
M 340.29 217.7 345.7 224.22 347.49 226.85 350.55 229.18 354.49 230.93 356.29 233.69 356.74 236.31 358.65 239.68 
M 335.57 219.24 341.16 225.89 344.73 231.73 347.24 233.95 349.48 235.59 351.25 237.5 352.28 240.75 354.38 242.97 
M 330.83 220.75 333.53 224.45 336.32 227.23 340.34 232.91 342.76 236.04 345.73 237.75 347.8 239.91 352.18 245.94 
M 326.09 222.26 329.15 226.02 333.54 230.74 335.85 234.04 338.31 236.87 340.78 238.93 344.21 241.43 346.51 243.54 348.33 245.79 350.04 248.59 
M 321.35 223.75 325.42 227.93 327.93 230.88 331.9 236.19 334.49 238.39 
M 316.61 225.24 320.64 229.21 323.35 232.27 327.7 238.94 
M 311.8 226.51 315.41 230.59 321.84 236.63 322.59 240.01 323.51 242.88 326.4 246.01 
M 306.96 227.64 310.45 231.85 313.63 234.93 316.47 238.39 
M 410.23 131.6 413.63 130.84 421.41 126.16 429.34 121.76 432.15 120.95 434.57 119.77 436.99 118.14 443.06 115.47 446 114.36 448.23 112.49 450.36 109.62 452.92 106.93 454.99 105.17 457.66 103.2 461.13 102.2 463.55 99.95 466.7 98.35 468.97 96.86 474.75 95.31 478.17 93.48 480.43 91.94 482.71 91.09 479.79 101.15 479.46 104.35 479.73 108.17 479.27 111.43 477.39 113.43 476.49 116.21 476.06 118.93 476.06 125.01 475.53 127.18 475.53 133.17 475.79 136.86 475.32 139.73 475.29 143 474.59 145.61 474.56 149.32 470.98 153.52 470.63 156.72 469.86 159.19 471.6 163.07 472.3 166.48 470.45 168.64 469.8 171.88 469.69 174.66 469.81 180.37 469.49 182.59 469.35 184.98 473.2 190.06 476.99 195.76 476.45 198.25 476.08 201.17 475.23 203.61 475.83 207.1 476.69 210.01 479.42 216.38 481.13 219.59 481.57 221.68 482.57 224.88 483.56 229.53 481.99 238.49 480.35 235.96 475.75 232.37 471.25 231.2 467.78 228.56 465.63 226.62 462.81 224.67 460.68 222.95 459.4 221.43 456.17 220.76 450.42 217.2 447.14 215.54 442.38 211.73 436.38 207.73 434.34 205.08 431.91 203.47 428.99 202.17 426.46 199.81 423.91 197.95 421.47 196.65 410.23 187.79 
M 416.54 132.21 419.34 130.43 422.36 128.84 424.68 127.91 427.26 126.3 429.94 125.46 432.87 124.76 435.47 123.56 437.47 121.78 440.22 120.16 443.26 119.33 446.34 118.06 448.46 116.21 451.88 113.88 463.5 107.75 466.41 107.11 468.12 105.65 
M 416.54 135.54 419.55 134.12 422.56 132.07 425.38 131.3 428.25 130.01 431.55 129.59 434.3 127.95 437.56 127.45 439.82 126.15 441.73 124.49 446.78 122.32 449.35 120.24 452.46 118.76 454.98 117.79 
M 419.96 137.45 422.88 135.66 425.8 135.35 428.97 134.62 432.32 133.33 440.82 131.35 443.54 130.06 446.24 129.02 449.84 126.37 452.42 125.45 454.4 123.45 456.56 122.94 459.18 122.63 462.84 120.93 466.28 120.13 469.66 119.66 471.66 117.61 472.66 116.3 
M 410.23 142.84 413.79 142.73 416.83 141.72 420.12 140.84 426.25 138.33 429.33 137.82 433.07 136.86 435.82 136.35 438.32 136.39 441.48 136.05 444.52 135.35 450.89 132.81 455.43 130.56 457.59 129.02 458.38 128.01 460.06 127.46 463.24 127.49 
M 414.1 146.08 417.39 145.42 423.85 143.42 426.64 142 433.5 140.37 436.29 139.79 438.9 139.9 445.51 138.95 447.77 138.36 451.62 137 456.05 137.09 
M 417.77 148.82 421.17 148.47 431.32 145.8 434.52 145.73 437.36 144.88 442.81 143.9 
M 418.02 152.26 424.99 151.48 428.18 150.92 431.23 150.92 434.6 151.41 437.29 150.64 439.08 149.19 444.81 148.88 449.13 149.1 453.8 148.67 
M 414.25 154.87 417.76 154.89 421.36 155.35 425.13 155.56 431.8 154.86 436.98 155.26 439.3 154.82 441.98 154.07 
M 414.7 157.63 424.83 159.01 430.86 159.05 432.96 158.91 438.95 159.71 442.59 158.67 446.15 158.9 449.87 159.76 456.96 158.32 
M 418.37 161.3 425.43 162.31 427.66 162.82 429.89 163 432.46 164.04 435.95 164.26 442.07 163.67 449.7 164.74 451.74 164.23 457.43 164.13 
M 414.58 163.75 421.17 165.32 427.4 166.37 433.6 166.51 437.56 167.25 440.72 167.22 
M 410.23 165.31 414.23 166.76 417.45 167.52 420.64 168.59 427.38 170.19 431.34 170.5 435.3 169.95 440.53 171.86 446.18 171.72 
M 414 169.66 417.07 170.32 423.97 172.94 427.22 173.67 430.84 174.23 434.72 174.14 437.26 175.51 442.73 177.08 446.28 177.38 449.96 178.63 453.26 178.88 455.99 179.54 458.27 180.64 462.17 182 
M 417.27 173.61 420.35 175.31 423.75 176.54 430.55 177.26 434.25 177.9 437.32 178.76 444.34 182.33 447.74 183.37 450.22 183.27 456.01 185.2 
M 410.23 173.74 413.86 175.68 417.29 176.83 420.75 178.4 424.4 179.14 427.19 180.24 433.79 181.31 436.85 182.04 440.36 183.7 443.56 186.06 448.91 188.66 450.62 189.89 
M 416.9 180.17 420.89 181.49 424.26 182.84 427.3 184.35 430.25 184.81 432.72 185.47 435.88 186.58 439.39 188.75 442.38 191.13 445.45 193.06 449.06 193.47 451.11 194.88 452.99 196.43 459.16 198.22 462.45 200.46 465.74 202.45 467.54 202.61 473.22 205.08 
M 420.01 185.21 423.12 186.85 429.06 188.47 432.4 189.03 435.12 190.26 438.32 192.91 441.55 195.24 446.21 197.5 451.65 198.98 454.06 200.94 
M 413.77 184.52 419.12 188.51 422.11 190.48 424.96 191.49 431.55 192.86 435.31 194.2 437.41 197.06 442.33 199.73 445.24 201.67 447.47 202.49 450.03 204.82 452.22 207.56 454.8 208.81 459.08 209.74 461.64 211.97 464.62 213.39 468.25 214.87 
M 418.72 191.42 421.64 193.38 424.44 194.98 427.11 196.43 430.32 197.45 433.16 199.77 436.03 201.34 438.37 202.29 441.18 204.33 443.6 207.03 446.03 208.89 448.34 211.25 452.61 214.73 455.69 216.36 460.42 216.44 461.75 217.98 463.96 219.8 
M 374.44 117.76 377.08 116.96 380.01 116.46 383.25 116.27 386.83 116.41 390.82 116.96 395.35 118.06 410.43 122.84 414.67 123.65 421.1 123.72 423.12 124.62 423.71 126.19 422.4 127.74 419.39 128.73 415.4 128.89 402.79 127.28 398.3 127.03 
M 388.82 120.66 390.82 120.94 395.35 122.04 410.43 126.82 414.67 127.63 419.64 127.7 
M 42.62 165.86 43.59 163.87 47.65 156.79 50.42 152.51 54.02 148.51 58.53 144.87 63.9 141.24 69.03 137.04 74.07 132.3 80.01 127.89 86.66 124.08 93.5 120.44 100.01 117.27 112.23 111.93 123.87 107.89 126.67 113.28 127.44 118.52 128.47 123.8 129.74 129.1 130.53 134.35 130.62 139.51 130.11 149.74 128.77 154.73 127.81 159.76 126.58 164.75 123.07 174.62 122.29 179.67 119.94 189.67 118.24 194.61 115.79 199.46 112 204.02 101.56 203.28 93.8 202.16 86.89 200.71 74.91 197.29 69.49 195.1 64.43 192.61 59.9 190.19 55.9 187.63 52.5 184.81 49.59 181.76 47.23 178.75 
M 108.49 143.82 107.99 148.2 104.69 156.32 102.77 159.93 98.59 166.08 97.45 171.8 97.42 174.56 96.77 180.57 95.48 184.15 78.59 183.53 73.79 183.03 69.11 182.34 64.53 180.93 60.21 178.87 
M 39.1 169.93 38.6 169.22 38.84 166.76 40.84 165.36 43.26 166.04 44.5 168.15 46.24 175.46 47.27 178.88 
M 46.49 179.49 39.51 176.17 37.33 174.86 36.43 172.45 37.74 170.21 40.29 169.69 42.29 171.23 47.14 178.72 
M 71.7 156.78 69.65 153.92 68.64 150.54 68.79 147.02 70.07 143.74 72.35 141.05 75.37 139.25 78.82 138.53 82.31 138.96 85.48 140.51 87.97 143 89.52 146.16 89.95 149.66 89.23 153.11 87.43 156.13 84.74 158.41 81.46 159.69 77.94 159.83 74.56 158.83 71.7 156.78 
M 86.23 144.24 87.46 146.78 87.81 149.57 87.24 152.33 85.79 154.75 83.64 156.57 81.02 157.59 78.2 157.71 75.5 156.91 73.21 155.27 
M 75.49 151.5 74.67 150.35 74.27 149 74.33 147.59 74.84 146.28 75.75 145.21 76.96 144.48 78.34 144.2 79.74 144.37 81 144.99 82 145.98 82.62 147.25 82.79 148.65 82.5 150.03 81.78 151.24 80.71 152.15 79.39 152.66 77.99 152.72 76.64 152.32 75.49 151.5 
M 75.25 151.02 76.34 152.11 
M 75.24 148.32 79.53 152.61 
M 77.93 148.32 81.27 151.67 
M 78.55 146.26 82.43 150.14 
M 80.74 145.76 82.67 147.7 
M 45.38 171.82 45.96 172.4 
M 43.53 164.01 49.23 169.7 
M 45.68 160.19 49.37 163.89 
M 47.88 156.43 51.62 160.17 
M 50.23 152.81 55.69 158.27 
M 53.01 149.63 58.11 154.72 
M 56.14 146.79 61.93 152.58 
M 59.52 144.2 62.77 147.45 
M 63.08 141.8 68.4 147.12 
M 66.42 139.17 70.06 142.82 
M 69.66 136.45 73.55 140.34 
M 72.73 133.56 76.41 137.23 
M 76.01 130.86 81.34 136.2 
M 79.43 128.32 84.24 133.13 
M 83.16 126.08 88.06 130.98 
M 86.96 123.92 90.58 127.54 
M 90.86 121.85 95.71 126.7 
M 94.79 119.82 99.31 124.34 
M 98.8 117.86 103.55 122.61 
M 102.87 115.97 108.67 121.76 
M 107 114.13 111.19 118.33 
M 111.2 112.36 114.21 115.37 
M 115.55 110.75 119.55 114.75 
M 120.01 109.25 123.32 112.56 
M 73.03 186.46 73.05 184.53 72.83 182.88 72.81 181.02 72.27 179.88 
M 50.36 182.57 51.84 181.89 55.24 178.08 56.78 174.44 
M 58.17 168.75 58.37 167.89 58.78 167.17 59.71 166.19 61.83 164.7 63.19 162.7 63.49 161.83 63.51 159.62 
M 89.23 125.79 90.17 125.75 92.14 126.08 94.93 126.02 96.37 126.31 96.9 126.64 97.74 127.75 97.9 128.52 97.44 131.31 
M 45.24 171.17 48.01 170.47 
M 78.62 132.29 81.1 134.21 83.28 135.29 84.73 136.39 86.01 136.42 
M 126.07 134.61 127.28 135.19 127.56 135.64 127.57 136.37 127.02 138.69 
M 74.26 177.48 74.36 177.04 74.93 176.75 
M 123.54 161.52 124.86 160.97 126.79 160.74 127.7 160.21 
M 127.98 158.88 127.97 158.63 
M 97.39 124.7 98.06 120.73 97.82 118.33 
M 105.8 164.57 104.2 165.61 102.77 167.2 100.03 169.43 97.3 173.4 
M 101.49 184.26 102.73 181.11 103.47 177.39 103.32 176.69 102.78 175.83 102.55 174.98 
M 67.1 173.86 66.07 172 65.98 171.58 66.37 171.25 67.03 171.38 
M 116.66 130.85 114.55 130.54 113.14 130.06 110.76 128.39 110 128.1 108.3 127.72 104.84 127.72 
M 52.99 166.96 54.85 165.81 55.59 165.17 59.51 163.91 61.56 162.86 62.33 161.47 62.48 160.58 62.37 158.24 
M 82.09 173.13 80.88 171.84 80.31 171.91 80 172.35 
M 101.94 149.83 101.09 152.57 99.52 155.88 
M 85.34 127.02 87.64 126.44 89.54 126.49 90.59 126.75 95.37 128.78 96.44 129.63 96.93 130.57 96.96 131.38 96.75 132.54 
M 97.47 198.59 93.95 200.53 91.51 201.68 
M 61.62 164.46 62.53 163.21 62.95 162.43 63.2 161.49 63.25 160.44 62.98 157.98 62.6 156.77 62.04 155.74 61.42 155.03 60.25 154.57 59.11 154.79 
M 107.11 201.78 105.57 201.07 104.78 200.98 104.21 201.36 102.61 203.01 
M 121.46 111.68 122.66 110.3 123.99 108.11 
M 125.78 133.22 125.87 133.72 126.11 134.04 127.44 134.67 127.74 135.05 
M 106.79 149.27 108.36 150.53 109.62 151.18 112.79 151.46 114.65 151.39 115.57 151.71 
M 94.45 136.95 95.28 137.67 95.96 137.83 96.5 137.75 96.92 137.48 97.09 137.05 97.04 136.63 96.76 136.33 
M 113.49 197.52 112.5 197.83 111.85 197.86 111.13 197.61 110.75 197.23 
M 120.67 186.32 120.2 185.71 120 184.97 120.52 184.06 121.32 183.52 
M 96.26 185.3 94.53 185.78 91.18 185.4 
M 127.98 125.8 125.92 125.69 124.82 126.02 122.39 129.71 
M 52.18 183.57 52.26 184.56 
M 122.07 140.6 124.25 141.67 126.01 142.97 126.57 143.9 126.55 145.05 126.76 145.54 
M 61.56 143.03 61.11 143.12 
M 87.01 197.67 87.72 194.01 88.05 193.03 88.83 192.46 89.39 192.64 
M 76.89 186.86 78.39 186.08 81.2 185.07 82.22 184.43 83.76 183.12 84.4 182.05 84.65 181.25 
M 112.34 203.61 111.14 203.16 108.82 202.95 105.52 201.94 104.94 201.89 
M 101.84 118.32 100.82 116.9 
M 88.41 139.64 90.29 139.22 92.05 139.19 92.96 139.4 94.61 140.28 96.2 140.78 96.71 140.85 97.25 140.35 
M 103.59 148.2 103.33 148.78 102.99 150.57 102.19 151.54 100.11 155.36 
M 122.33 112.12 123.48 110.91 124.64 109.36 
M 72.43 178.1 72.25 178.33 72.33 178.65 
M 93.77 129.37 96.04 130.94 96.4 131.59 96.37 132.63 95.85 134.98 95.96 136.38 
M 113.29 192.67 113.76 192.97 114.81 193.1 116.01 193.73 
M 81.52 192.2 82.09 191.68 83.65 190.74 85.04 190.16 85.85 190.14 87.87 191.22 
M 106.2 191.74 107.94 189.28 109.24 186.51 109.49 185.46 109.45 184.09 
M 94.49 191.45 95.03 192.53 95.42 193.97 95.22 195.5 94.77 196.7 94.36 197.22 92.43 198.75 90.54 199.93 
M 122.02 132.24 121.35 133.38 121.22 133.97 121.88 136.59 123.11 138.15 125.68 140.21 126.6 141.58 
M 67.29 172.09 67.02 171.62 67.33 171.55 
M 67.82 194.28 67.55 192.85 
M 92.37 194.31 91.78 196.91 91.4 197.58 90.85 197.98 90.1 198.22 89.16 197.96 88.69 197.39 88.34 196.42 
M 76.81 194.52 75.68 192.53 75.72 191.85 76.76 190.96 79.71 189.98 
M 106.66 179.26 105.57 176.78 104.94 176.12 104.24 174.98 104.04 173.68 103.33 173.48 
M 79.88 198.8 79.7 197.95 79.38 197.67 78.6 197.66 77.02 197.93 
M 94.89 149.53 94.01 150.59 93.72 151.5 94 151.93 94.93 152.31 
M 64.3 160.02 64.02 157.68 63.08 155.7 62.36 154.88 61.59 154.31 60.93 154.09 59.78 154.09 59.01 154.42 58.44 155.43 
M 66.2 193.48 65.58 191.49 64.97 190.82 63.38 189.42 59.92 186.96 
M 68.66 150.27 65.72 149.02 63.64 148.59 61.49 148.53 59.39 148.28 57.27 147.08 
M 121.71 116.99 122.83 116.73 124.9 116.59 126.22 117.17 126.6 117.51 126.63 117.88 
M 107.36 184.5 107.51 182.79 107.23 181.85 106.37 179.97 105.69 177.47 104.08 174.9 103.99 174 
M 50.31 182.52 50.68 182.4 
M 82.65 197.41 83.79 195.68 84.92 193.42 86.08 192.44 87.07 191.89 87.8 191.66 88.55 191.71 
M 44.84 178.69 48.31 182.34 50.1 183.86 51.97 185.21 55.9 187.63 
M 123.87 107.84 134.58 118.54 
M 129.5 105.51 139.57 115.58 
M 135.16 103.21 144.19 112.25 
M 140.96 101.06 149.53 109.63 
M 146.78 98.93 153.93 106.08 
M 152.72 96.92 158.8 102.99 
M 158.69 94.93 164.85 101.08 
M 164.79 93.07 176.7 104.98 
M 170.91 91.24 182.07 102.4 
M 176.98 89.35 186.42 98.79 
M 183.03 87.46 193.69 98.12 
M 189.38 85.85 198.79 95.26 
M 195.77 84.29 201.89 90.4 
M 202.51 83.07 211.09 91.65 
M 209.31 81.92 219.86 92.47 
M 216.3 80.96 225.04 89.69 
M 223.71 80.41 230.88 87.58 
M 231.45 80.19 243.32 92.06 
M 239.32 80.11 246.37 87.16 
M 247.12 79.96 253.25 86.08 
M 254.87 79.75 264.76 89.64 
M 263.85 80.78 274.29 91.22 
M 273.76 82.74 279.74 88.71 
M 284.57 85.59 294.66 95.68 
M 296.05 89.11 305.66 98.72 
M 307.81 92.92 314.27 99.38 
M 319.41 96.56 329.67 106.83 
M 331.21 100.41 338.14 107.34 
M 344.03 105.28 351.56 112.81 
M 357.63 110.93 368.67 121.96 
M 371.05 116.4 381.44 126.78 
M 384.08 121.47 391.72 129.1 
M 397.14 126.57 404.26 133.69 
M 410.05 131.53 417.82 139.3 
M 127.48 207.99 128.59 210.21 
M 130.36 206.79 131.25 208.57 
M 132.14 210.35 133.66 213.38 
M 121.62 182.34 121.66 182.44 
M 127 193.11 128.78 196.67 
M 134.11 207.34 137.98 215.06 
M 122.64 177.42 125.42 182.99 
M 129.87 191.88 131.64 195.44 
M 136.98 206.11 138.76 209.67 
M 129.17 183.54 132.04 189.26 
M 137.63 200.46 138.07 201.33 
M 126.7 171.64 127.59 173.42 
M 128.74 154.84 132.54 162.43 
M 133.01 156.41 135.68 161.75 
M 157.02 204.43 157.91 206.21 
M 135.91 155.26 139.47 162.37 
M 159.92 203.28 163.48 210.39 
M 169.9 223.23 170.54 224.5 
M 141.48 159.44 143.07 162.62 
M 162.92 202.31 165.49 207.46 
M 173.5 223.46 174.24 224.96 
M 129.69 128.9 131.04 131.6 
M 143.49 156.5 146.16 161.84 
M 166.62 202.74 167.5 204.52 
M 127.21 116.98 133.06 128.66 
M 145.51 153.56 146.4 155.34 
M 172.18 206.92 173.96 210.48 
M 125.72 107.04 127.06 109.71 
M 127.95 111.49 137.73 131.05 
M 147.51 150.62 149.29 154.17 
M 128.62 105.87 129.06 106.76 
M 132.62 113.87 139.73 128.1 
M 142.4 133.43 144.18 136.99 
M 145.96 140.55 153.07 154.78 
M 136.4 114.47 140.85 123.37 
M 146.18 134.04 147.07 135.82 
M 151.52 144.71 155.96 153.6 
M 159.52 160.72 160.41 162.5 
M 140.18 115.08 146.41 127.53 
M 148.19 131.08 150.85 136.42 
M 155.3 145.31 160.64 155.98 
M 137.32 102.39 137.76 103.28 
M 142.21 112.17 144.88 117.51 
M 146.66 121.07 152.88 133.52 
M 159.11 145.97 165.33 158.42 
M 167.11 161.97 167.65 163.06 
M 140.26 101.31 142.48 105.76 
M 146.04 112.88 156.71 134.22 
M 161.16 143.11 167.38 155.56 
M 143.2 100.24 146.31 106.46 
M 148.09 110.02 156.1 126.03 
M 165.88 145.59 169.44 152.71 
M 146.14 99.16 159.04 124.95 
M 170.6 148.07 172.38 151.63 
M 177.71 162.3 178.18 163.24 
M 149.1 98.12 155.77 111.46 
M 156.66 113.24 162 123.91 
M 172.67 145.25 175.34 150.59 
M 152.09 97.13 156.98 106.91 
M 159.65 112.25 165.87 124.7 
M 174.76 142.48 176.54 146.04 
M 155.07 96.13 160.85 107.69 
M 162.63 111.25 170.63 127.26 
M 175.08 136.15 178.64 143.27 
M 186.64 159.27 188.72 163.43 
M 158.05 95.14 163.83 106.7 
M 164.72 108.48 173.61 126.26 
M 178.06 135.16 180.73 140.49 
M 188.73 156.5 192.23 163.49 
M 215.41 209.86 217.19 213.41 
M 161.06 94.19 177.51 127.09 
M 182.84 137.76 184.62 141.32 
M 185.51 143.1 187.29 146.65 
M 190.85 153.77 195.74 163.56 
M 215.75 203.57 216.64 205.35 
M 217.53 207.13 219.3 210.68 
M 164.08 93.28 180.54 126.19 
M 185.87 136.86 199.25 163.62 
M 217.89 200.89 219.66 204.44 
M 225 215.11 225.89 216.89 
M 229.45 224.01 233 231.12 
M 167.11 92.38 183.56 125.28 
M 186.23 130.62 192.46 143.07 
M 194.23 146.63 196.01 150.18 
M 198.68 155.52 202.76 163.68 
M 221.8 201.76 224.47 207.1 
M 233.36 224.88 235.14 228.44 
M 170.58 92.36 181.26 113.71 
M 183.03 117.26 187.48 126.16 
M 189.26 129.71 196.37 143.94 
M 202.6 156.39 206.27 163.74 
M 222.98 197.16 223.05 197.3 
M 224.83 200.86 225.72 202.64 
M 173.6 91.44 178.94 102.11 
M 181.61 107.45 184.27 112.78 
M 186.05 116.34 186.94 118.12 
M 188.72 121.68 189.61 123.45 
M 192.28 128.79 193.17 130.57 
M 194.94 134.13 196.72 137.68 
M 204.73 153.69 205.62 155.47 
M 236.74 217.72 238.52 221.28 
M 176.61 90.5 180.17 97.61 
M 184.61 106.5 185.5 108.28 
M 186.39 110.06 189.06 115.4 
M 206.85 150.97 207.74 152.75 
M 208.62 154.53 212.18 161.64 
M 240.64 218.55 241.53 220.33 
M 179.17 88.67 180.51 91.33 
M 195.63 121.57 199.18 128.68 
M 200.07 130.46 200.96 132.24 
M 207.19 144.69 215.19 160.7 
M 182.18 87.72 182.63 88.61 
M 183.52 90.39 184.41 92.17 
M 185.3 93.95 204.86 133.08 
M 211.97 147.3 219.98 163.31 
M 235.58 194.51 235.98 195.33 
M 185.24 86.88 209.69 135.79 
M 215.03 146.46 215.92 148.24 
M 219.48 155.35 223.03 162.47 
M 238.42 193.24 239.04 194.48 
M 255.94 228.27 256.83 230.05 
M 187.7 84.85 213.94 137.31 
M 215.72 140.87 216.61 142.65 
M 222.83 155.1 226.39 162.21 
M 261.07 231.58 262.6 234.63 
M 189.6 81.68 199.83 102.14 
M 202.5 107.47 215.84 134.15 
M 226.51 155.49 228.29 159.05 
M 191.41 78.34 192.75 81.01 
M 194.53 84.57 200.75 97.02 
M 205.2 105.91 218.54 132.59 
M 255.89 207.29 257.66 210.85 
M 194.44 77.43 204.22 96.99 
M 208.66 105.89 222.89 134.34 
M 225.56 139.68 227.34 143.24 
M 197.76 77.11 207.54 96.67 
M 211.09 103.79 214.65 110.9 
M 215.54 112.68 230.66 142.92 
M 200.03 74.69 210.7 96.03 
M 214.25 103.15 216.03 106.71 
M 218.7 112.04 221.37 117.38 
M 223.15 120.93 234.71 144.06 
M 197.26 62.21 199.49 66.65 
M 200.38 68.43 202.15 71.99 
M 203.04 73.77 212.83 93.33 
M 220.83 109.34 221.72 111.12 
M 224.39 116.45 231.5 130.68 
M 234.17 136.02 235.95 139.57 
M 238.62 144.91 242.17 152.02 
M 245.73 159.14 248.41 164.49 
M 259.96 187.6 261.74 191.15 
M 275.08 217.83 276.85 221.39 
M 199.09 58.9 200.87 62.46 
M 205.31 71.35 218.65 98.03 
M 223.1 106.92 225.77 112.26 
M 227.55 115.81 233.77 128.26 
M 235.55 131.82 246.22 153.16 
M 247.11 154.94 251.92 164.56 
M 262.36 185.44 264.9 190.51 
M 277.35 215.41 280.01 220.75 
M 208.49 70.73 225.38 104.52 
M 226.27 106.3 238.72 131.2 
M 241.39 136.54 255.43 164.62 
M 266.29 186.34 267.18 188.12 
M 280.52 214.8 283.19 220.13 
M 211.46 69.71 228.35 103.51 
M 232.8 112.4 239.03 124.85 
M 247.03 140.86 249.7 146.19 
M 252.36 151.53 257.7 162.2 
M 207.62 55.09 208.96 57.75 
M 213.4 66.65 215.18 70.2 
M 216.07 71.98 225.85 91.55 
M 227.63 95.1 233.86 107.55 
M 235.64 111.11 243.64 127.12 
M 248.09 136.01 248.98 137.79 
M 249.86 139.57 252.53 144.9 
M 257.87 155.58 258.76 157.35 
M 279.21 198.26 280.1 200.04 
M 210.26 53.41 211.6 56.08 
M 221.38 75.64 222.27 77.42 
M 223.16 79.2 227.6 88.09 
M 228.49 89.87 245.39 123.66 
M 247.17 127.22 248.06 129 
M 250.73 134.33 256.06 145 
M 282.74 198.36 283.63 200.14 
M 212.69 51.3 215.8 57.52 
M 224.69 75.31 226.47 78.86 
M 227.36 80.64 229.14 84.2 
M 230.03 85.98 249.59 125.11 
M 253.15 132.22 263.82 153.56 
M 285.17 196.25 286.94 199.81 
M 288.72 203.36 290.5 206.92 
M 292.28 210.48 293.17 212.26 
M 214.96 48.88 218.96 56.88 
M 225.19 69.33 228.74 76.45 
M 233.19 85.34 234.97 88.9 
M 236.75 92.45 249.2 117.35 
M 252.75 124.47 253.64 126.25 
M 255.42 129.8 259.87 138.7 
M 261.65 142.25 265.2 149.37 
M 288.32 195.61 294.55 208.06 
M 217.64 47.28 221.64 55.28 
M 226.98 65.95 233.2 78.4 
M 238.54 89.07 257.21 126.42 
M 258.1 128.2 261.66 135.32 
M 285.67 183.34 287.45 186.89 
M 292.78 197.57 297.23 206.46 
M 221.43 47.9 225.43 55.9 
M 229.88 64.8 236.1 77.25 
M 238.77 82.58 259.22 123.49 
M 261 127.05 262.78 130.6 
M 263.67 132.38 267.23 139.5 
M 288.57 182.18 290.35 185.74 
M 294.8 194.63 297.46 199.97 
M 224.97 48.02 229.86 57.8 
M 233.42 64.91 239.64 77.36 
M 241.42 80.92 261.87 121.83 
M 264.54 127.16 268.99 136.06 
M 283.22 164.51 283.52 165.12 
M 288.92 175.92 296.56 191.19 
M 228.18 47.48 233.07 57.26 
M 235.74 62.59 241.96 75.04 
M 244.63 80.38 272.2 135.52 
M 276.64 144.41 277.53 146.19 
M 285.54 162.19 287.03 165.18 
M 290.94 173.01 293.54 178.2 
M 295.32 181.76 299.77 190.65 
M 231.12 46.4 236.01 56.19 
M 238.68 61.52 268.92 121.99 
M 269.81 123.77 274.25 132.67 
M 277.81 139.78 284.03 152.23 
M 288.48 161.12 289.37 162.9 
M 300.93 186.02 302.71 189.58 
M 233.89 44.98 236.11 49.42 
M 237 51.2 237.89 52.98 
M 239.67 56.54 268.13 113.45 
M 272.57 122.35 275.24 127.68 
M 279.69 136.57 285.91 149.02 
M 292.14 161.47 293.91 165.03 
M 237.23 44.7 238.57 47.37 
M 242.12 54.49 243.9 58.04 
M 245.68 61.6 269.69 109.62 
M 283.03 136.3 292.81 155.87 
M 240.55 44.38 241.89 47.05 
M 244.55 52.39 247.22 57.72 
M 249 61.28 257 77.29 
M 257.89 79.07 271.23 105.75 
M 275.68 114.64 281.01 125.31 
M 291.69 146.65 296.13 155.55 
M 315.7 194.67 318.36 200.01 
M 243.69 43.7 245.91 48.15 
M 246.8 49.93 260.14 76.6 
M 263.7 83.72 284.15 124.63 
M 293.93 144.19 298.38 153.08 
M 303.72 163.75 304.59 165.49 
M 318.83 193.99 321.5 199.33 
M 328.62 213.55 330.39 217.11 
M 246.59 42.53 259.48 68.32 
M 260.37 70.1 263.93 77.22 
M 265.7 80.77 268.37 86.11 
M 269.26 87.89 270.15 89.67 
M 271.93 93.22 279.04 107.45 
M 282.6 114.57 287.94 125.24 
M 298.61 146.58 302.17 153.69 
M 321.73 192.82 324.4 198.16 
M 332.4 214.17 333.29 215.94 
M 249.25 40.9 269.26 80.92 
M 274.59 91.59 290.6 123.6 
M 302.16 146.73 304.83 152.06 
M 325.28 192.97 326.17 194.75 
M 251.75 38.94 272.65 80.74 
M 274.43 84.29 275.31 86.07 
M 276.2 87.85 291.32 118.09 
M 303.77 142.99 307.33 150.1 
M 318.89 173.22 323.34 182.12 
M 329.56 194.57 332.23 199.9 
M 255.22 38.92 274.34 77.16 
M 275.23 78.94 297.46 123.41 
M 298.35 125.19 300.13 128.74 
M 301.02 130.52 301.91 132.3 
M 306.35 141.19 308.13 144.75 
M 317.03 162.54 325.03 178.54 
M 259.94 41.4 287.95 97.42 
M 291.51 104.54 299.51 120.54 
M 300.4 122.32 311.96 145.44 
M 319.96 161.45 325.3 172.12 
M 263.89 42.35 283.9 82.37 
M 284.79 84.15 290.13 94.82 
M 294.58 103.71 300.8 116.16 
M 304.36 123.28 315.03 144.62 
M 318.59 151.74 325.7 165.96 
M 330.15 174.86 333.7 181.97 
M 267.41 42.42 284.75 77.1 
M 286.53 80.65 292.75 93.1 
M 298.98 105.55 309.65 126.9 
M 312.31 132.23 321.21 150.02 
M 322.99 153.58 326.54 160.69 
M 333.66 174.92 338.1 183.81 
M 270.72 42.08 271.16 42.97 
M 272.05 44.75 288.06 76.76 
M 289.84 80.32 296.06 92.77 
M 301.4 103.44 304.07 108.78 
M 304.96 110.56 312.07 124.79 
M 317.41 135.46 329.86 160.36 
M 336.08 172.81 339.64 179.92 
M 340.53 181.7 341.42 183.48 
M 275.94 45.56 292.39 78.46 
M 294.17 82.02 301.28 96.25 
M 303.95 101.58 315.51 124.71 
M 317.29 128.26 318.18 130.04 
M 319.96 133.6 326.18 146.05 
M 332.41 158.5 333.3 160.28 
M 338.63 170.95 343.08 179.84 
M 280.74 48.21 281.19 49.1 
M 282.08 50.87 294.53 75.77 
M 298.08 82.89 306.09 98.9 
M 306.98 100.68 314.98 116.68 
M 323.87 134.47 328.32 143.36 
M 334.54 155.81 337.21 161.15 
M 342.55 171.82 343.44 173.6 
M 344.33 175.38 345.21 177.15 
M 284.75 49.26 296.75 73.27 
M 300.31 80.39 318.1 115.96 
M 328.77 137.3 331.44 142.64 
M 335.88 151.53 338.55 156.87 
M 339.44 158.64 343.89 167.54 
M 288.45 49.71 298.68 70.16 
M 302.23 77.28 320.91 114.63 
M 326.25 125.3 327.13 127.08 
M 331.58 135.97 334.25 141.3 
M 343.14 159.09 346.7 166.2 
M 292.63 51.11 300.19 66.22 
M 305.53 76.9 316.2 98.24 
M 317.98 101.8 325.09 116.02 
M 333.98 133.81 335.76 137.37 
M 340.21 146.26 341.1 148.04 
M 343.76 153.37 349.1 164.05 
M 296.73 52.35 319.41 97.7 
M 321.19 101.26 330.97 120.82 
M 333.64 126.16 338.08 135.05 
M 342.53 143.95 351.42 161.73 
M 360.32 179.52 361.21 181.3 
M 300.42 52.77 322.21 96.34 
M 323.1 98.12 333.77 119.46 
M 336.44 124.8 339.99 131.91 
M 347.11 146.14 359.56 171.04 
M 361.34 174.6 364.89 181.71 
M 373.79 199.5 374.68 201.28 
M 303.77 52.51 306.89 58.74 
M 309.55 64.08 320.23 85.42 
M 321.12 87.2 337.12 119.21 
M 338.9 122.77 343.35 131.66 
M 344.24 133.44 346.02 137 
M 349.57 144.11 356.69 158.34 
M 357.58 160.12 362.91 170.79 
M 366.47 177.9 368.25 181.46 
M 376.25 197.47 378.79 202.56 
M 306.92 51.85 309.14 56.29 
M 313.59 65.19 339.38 116.77 
M 342.94 123.88 366.06 170.12 
M 374.06 186.13 374.95 187.91 
M 375.84 189.69 378.51 195.02 
M 379.4 196.8 381.18 200.37 
M 310.48 52.01 310.92 52.9 
M 316.26 63.57 342.05 115.15 
M 345.61 122.26 354.5 140.05 
M 357.17 145.38 366.06 163.17 
M 368.73 168.5 369.62 170.28 
M 375.84 182.73 378.51 188.07 
M 380.29 191.62 383.93 198.91 
M 318.24 60.56 340.47 105.03 
M 341.36 106.81 355.59 135.26 
M 360.04 144.16 368.93 161.94 
M 370.71 165.5 372.49 169.06 
M 379.6 183.29 381.38 186.84 
M 383.16 190.4 384.94 193.96 
M 319.98 57.09 320.43 57.98 
M 322.21 61.54 330.21 77.55 
M 331.99 81.1 338.21 93.55 
M 339.99 97.11 340.88 98.89 
M 341.77 100.67 343.55 104.23 
M 347.11 111.34 348.89 114.9 
M 349.77 116.68 356 129.13 
M 357.78 132.68 358.67 134.46 
M 362.22 141.58 364.89 146.91 
M 365.78 148.69 366.67 150.47 
M 367.56 152.25 372.01 161.14 
M 375.56 168.25 376.45 170.03 
M 383.57 184.26 385.35 187.82 
M 324.83 59.83 332.84 75.84 
M 335.5 81.18 339.06 88.29 
M 343.51 97.18 344.4 98.96 
M 345.29 100.74 347.95 106.08 
M 353.29 116.75 355.07 120.3 
M 365.74 141.65 371.08 152.32 
M 373.74 157.65 374.63 159.43 
M 387.97 186.11 388.86 187.89 
M 333.49 70.18 339.27 81.74 
M 347.27 97.75 348.16 99.52 
M 354.2 111.61 359.54 122.28 
M 364.87 132.95 374.65 152.51 
M 389.77 182.75 390.66 184.53 
M 341.58 79.41 342.92 82.08 
M 343.8 83.86 351.64 99.53 
M 357.26 110.77 363.93 124.11 
M 370.16 136.56 378.16 152.57 
M 379.94 156.13 380.83 157.91 
M 390.61 177.47 395.06 186.36 
M 350.58 90.45 353.5 96.29 
M 361.66 112.61 368.33 125.95 
M 371.89 133.06 374.56 138.4 
M 376.33 141.96 381.67 152.63 
M 384.34 157.96 385.23 159.74 
M 393.23 175.75 397.68 184.64 
M 365.85 114.03 373.41 129.14 
M 374.3 130.92 376.08 134.48 
M 381.41 145.15 384.97 152.27 
M 386.75 155.82 389.42 161.16 
M 398.31 178.94 399.2 180.72 
M 369.99 115.34 375.77 126.9 
M 384.66 144.69 387.33 150.03 
M 390.89 157.14 392.66 160.7 
M 399.78 174.93 403.34 182.04 
M 374.13 116.66 374.44 117.29 
M 374.73 117.87 377.84 124.09 
M 394.74 157.88 395.63 159.66 
M 401.85 172.11 403.63 175.67 
M 377.25 115.94 378.42 118.29 
M 379.04 119.53 381.26 123.97 
M 383.93 129.31 385.71 132.87 
M 380.47 115.43 382.73 119.95 
M 383.35 121.18 390.02 134.52 
M 383.88 115.3 387.05 121.63 
M 387.66 122.86 393.44 134.42 
M 397 141.53 397.89 143.31 
M 406.78 161.09 412.12 171.77 
M 387.47 115.5 390.75 122.08 
M 391.99 124.55 395.99 132.56 
M 396.88 134.34 401.33 143.23 
M 404 148.56 405.78 152.12 
M 406.67 153.9 417.34 175.24 
M 418.23 177.02 420 180.58 
M 391.23 116.07 395.7 125.01 
M 396.32 126.25 412.77 159.15 
M 413.66 160.93 419 171.6 
M 420.78 175.16 422.16 177.93 
M 395.19 117.03 399.73 126.11 
M 400.64 127.92 414.42 155.49 
M 420.65 167.94 421.63 169.9 
M 399.3 118.29 399.75 119.18 
M 405.39 130.46 408.94 137.58 
M 410.72 141.13 416.06 151.8 
M 403.47 119.66 403.91 120.55 
M 405.69 124.11 407.06 126.84 
M 409.25 131.22 412.36 137.45 
M 414.14 141 415.03 142.78 
M 415.91 144.56 418.58 149.9 
M 407.61 120.99 410.78 127.34 
M 413.55 132.87 414.88 135.54 
M 418.44 142.65 419.33 144.43 
M 412.08 122.97 414.49 127.78 
M 417.85 134.52 422.16 143.14 
M 415.41 122.67 417.97 127.79 
M 422.16 136.17 422.16 136.18 
M 418.92 122.73 420.47 125.83 
M 422.77 123.47 423.66 125.25 
"/></svg>