<svg xmlns="http://www.w3.org/2000/svg" width="520" height="320"><rect x="0" y="0" width="520" height="320" fill="floralwhite"/><rect x="10" y="10" width="500" height="300" stroke="black" stroke-width="1" fill="none"/><path stroke="black" stroke-width="1" fill="none" stroke-linecap="round" stroke-linejoin="round" d="
M 181.46 113.04 188.68 107.85 195.84 103.21 203 98.99 217.31 91.23 224.47 88.1 231.63 85.8 238.79 84.06 260.26 83.22 267.42 84.72 274.58 87.7 281.74 91.38 296.05 99.57 303.21 103.47 310.37 107.97 331.84 123.58 354.23 138.91 
M 354.23 171.6 339 184.38 331.84 190.14 324.68 195.4 317.53 200.4 310.37 204.72 296.05 212.74 288.89 215.69 281.74 218.26 274.58 220.57 267.42 221.79 260.26 222.62 253.1 222.27 245.95 222.28 238.79 222.55 231.63 220.91 224.47 218.21 217.31 215.08 210.15 211.62 203 208.61 195.84 205.04 188.68 200.5 174.39 189.73 
M 178.64 184.19 179.54 183.47 180.05 182.72 180.05 182.25 179.82 181.91 
M 179.06 189.38 179.35 188.96 179.35 188.51 178.85 187.77 178.09 187.13 177.49 186.87 
M 181.83 174.66 182.46 174.02 182.91 173.23 182.91 172.74 182.74 172.44 
M 180.83 181.49 181.37 181.23 182.05 180.56 182.49 179.8 182.49 179.32 182.05 178.56 181.2 177.81 
M 180.17 187.68 180.68 187.43 181.34 186.78 181.77 186.04 181.77 185.59 181.34 184.85 180.68 184.2 180.17 183.95 
M 183.5 178.53 184.15 178.27 184.97 177.58 185.51 176.81 185.51 176.33 184.97 175.55 184.15 174.87 183.5 174.6 
M 182.93 184.82 183.56 184.56 184.38 183.91 184.9 183.17 184.9 182.71 184.38 181.97 183.56 181.32 182.93 181.06 
M 182.11 190.82 182.71 190.57 183.49 189.94 183.99 189.23 183.99 188.78 183.49 188.07 182.71 187.44 182.11 187.19 
M 181.69 113.38 181.57 112.96 
M 186.19 175.6 186.72 175.32 187.49 174.48 
M 185.77 182.05 186.31 181.79 187 181.13 187.44 180.37 187.44 179.91 187 179.16 186.31 178.49 185.77 178.23 
M 184.95 188.05 185.47 187.81 186.14 187.18 186.58 186.47 186.58 186.03 186.14 185.31 185.47 184.69 184.95 184.44 
M 184.71 193.22 185.4 192.25 185.4 191.82 185 191.13 184.38 190.52 183.89 190.28 
M 184.96 120.33 185.54 118.93 185.54 118.22 185.12 117.07 184.48 116.06 183.97 115.67 
M 187.55 129.25 188.24 127.86 188.24 127.21 187.81 126.17 187.13 125.25 186.6 124.89 
M 188.93 137.56 189.47 136.92 189.92 135.98 189.92 135.4 189.47 134.46 188.56 133.5 
M 190.55 142.48 189.63 141.31 189.08 141.01 
M 188.43 179.1 189.07 178.83 189.88 178.15 190.41 177.38 190.41 176.9 189.88 176.13 189.07 175.45 188.43 175.18 
M 187.79 185.3 188.43 185.05 189.25 184.41 189.77 183.68 189.77 183.23 189.25 182.5 188.43 181.86 187.79 181.61 
M 186.74 191.03 187.35 190.79 188.13 190.19 188.63 189.5 188.63 189.07 188.13 188.38 187.35 187.78 186.74 187.54 
M 187.28 194.93 187.28 194.65 186.81 193.97 186.09 193.38 185.52 193.14 
M 184.22 116.6 184.63 116.18 185.15 115.11 185.49 113.9 185.49 113.15 185.15 111.94 184.57 110.81 
M 187.53 125.93 187.97 125.54 188.53 124.55 188.9 123.43 188.9 122.73 188.53 121.61 187.97 120.61 187.53 120.23 
M 189.73 134.22 190.18 133.88 190.77 133.01 191.14 132.02 191.14 131.4 190.77 130.41 190.18 129.54 189.73 129.2 
M 190.9 141.76 191.35 141.45 191.93 140.65 192.31 139.76 192.31 139.2 191.93 138.3 191.35 137.51 190.9 137.2 
M 191.06 176.13 191.19 176.07 
M 190.69 182.62 191.22 182.36 191.9 181.7 192.34 180.95 192.34 180.48 191.9 179.73 191.22 179.07 190.69 178.81 
M 189.77 188.47 190.3 188.24 190.97 187.63 191.41 186.94 191.41 186.51 190.97 185.82 190.3 185.21 189.77 184.97 
M 188.34 193.81 188.83 193.58 189.46 193 189.87 192.34 189.87 191.93 189.46 191.27 188.83 190.69 188.34 190.46 
M 184.22 111.4 184.99 110.5 
M 187.84 121.1 188.35 120.69 189.01 119.64 189.44 118.45 189.44 117.72 189.01 116.54 188.35 115.49 187.84 115.08 
M 190.7 130 191.24 129.63 191.93 128.69 192.37 127.62 192.37 126.96 191.93 125.89 191.24 124.95 190.7 124.58 
M 192.41 137.92 192.96 137.59 193.66 136.76 194.11 135.81 194.11 135.22 193.66 134.28 192.96 133.44 192.41 133.12 
M 193.67 141.05 193.27 140.84 
M 193.25 179.58 193.87 179.32 194.67 178.63 195.18 177.78 
M 192.64 185.77 193.26 185.52 194.07 184.89 194.59 184.17 194.59 183.72 194.07 183 193.26 182.37 192.64 182.12 
M 191.4 191.29 192.01 191.06 192.8 190.47 193.31 189.8 193.31 189.39 192.8 188.72 192.01 188.13 191.4 187.9 
M 189.88 196.54 190.46 196.31 191.2 195.73 191.68 195.07 191.68 194.66 191.2 194 190.46 193.42 189.88 193.19 
M 187.99 116.12 188.42 115.69 188.96 114.58 189.31 113.33 189.31 112.56 188.96 111.31 188.42 110.21 187.99 109.78 
M 191.61 125.73 192.05 125.34 192.62 124.31 192.99 123.16 192.99 122.44 192.62 121.28 192.05 120.26 191.61 119.86 
M 193.94 134.1 194.39 133.76 194.98 132.88 195.35 131.88 195.35 131.26 194.98 130.26 194.39 129.38 193.94 129.03 
M 196.4 139.81 196.49 139.03 196.12 138.14 195.53 137.35 195.08 137.04 
M 195.49 183.08 196 182.82 196.66 182.15 197.08 181.4 197.08 180.93 196.66 180.17 196 179.5 195.49 179.24 
M 194.59 188.92 195.11 188.68 195.78 188.08 196.22 187.4 196.22 186.98 195.78 186.3 195.11 185.7 194.59 185.46 
M 192.89 193.95 193.4 193.73 194.05 193.17 194.46 192.53 194.46 192.14 194.05 191.5 193.4 190.94 192.89 190.72 
M 192.53 198.06 192.77 197.66 192.77 197.24 192.37 196.57 191.75 195.98 191.27 195.75 
M 188.01 110.87 188.53 110.45 189.19 109.37 189.62 108.15 189.57 107.27 
M 191.81 120.78 192.34 120.36 193.01 119.29 193.45 118.08 193.45 117.33 193.01 116.12 192.34 115.05 191.81 114.63 
M 194.84 129.82 195.38 129.45 196.07 128.49 196.51 127.41 196.51 126.74 196.07 125.65 195.38 124.7 194.84 124.32 
M 196.59 137.75 197.13 137.42 197.83 136.59 198.28 135.64 198.28 135.05 197.83 134.1 197.13 133.27 196.59 132.94 
M 197.91 179.92 198.84 179.35 
M 197.39 186.18 198 185.93 198.79 185.3 199.3 184.57 199.3 184.12 198.79 183.4 198 182.76 197.39 182.51 
M 196.12 191.63 196.74 191.41 197.53 190.82 198.05 190.16 198.05 189.76 197.53 189.1 196.74 188.52 196.12 188.29 
M 194.42 196.71 195.03 196.48 195.82 195.91 196.33 195.26 196.33 194.85 195.82 194.2 195.03 193.63 194.42 193.4 
M 191.94 115.75 192.38 115.31 192.95 114.2 193.32 112.93 193.32 112.15 192.95 110.88 192.38 109.77 191.94 109.33 
M 195.7 125.52 196.14 125.11 196.72 124.08 197.08 122.9 197.08 122.18 196.72 121 196.14 119.97 195.7 119.56 
M 198.11 133.93 198.56 133.59 199.13 132.7 199.5 131.7 199.5 131.07 199.13 130.07 198.56 129.18 198.11 128.84 
M 200.29 138.03 199.68 137.15 199.23 136.85 
M 192.11 110.59 192.69 110.18 193.42 109.11 193.9 107.9 193.9 107.15 193.42 105.95 192.86 105.14 
M 195.89 120.52 196.45 120.1 197.16 119.03 197.62 117.82 197.62 117.06 197.16 115.85 196.45 114.78 195.89 114.36 
M 198.95 129.59 199.49 129.22 200.19 128.26 200.64 127.17 200.64 126.5 200.19 125.41 199.49 124.45 198.95 124.08 
M 200.72 137.53 201.26 137.2 201.95 136.36 202.4 135.41 202.4 134.83 201.95 133.88 201.26 133.04 200.72 132.71 
M 192.37 105.51 192.91 105.11 
M 196.14 115.54 196.63 115.12 197.26 114.02 197.67 112.77 197.67 112 197.26 110.76 196.63 109.66 196.14 109.23 
M 199.8 125.25 200.27 124.85 200.86 123.82 201.25 122.65 201.25 121.93 200.86 120.77 200.27 119.74 199.8 119.34 
M 202.19 133.67 202.65 133.32 203.23 132.44 203.6 131.43 203.6 130.81 203.23 129.81 202.65 128.92 202.19 128.58 
M 203.38 136.62 203.33 136.59 
M 196.8 110.82 197.47 110.42 198.32 109.39 198.87 108.23 198.87 107.51 198.32 106.34 197.47 105.31 196.8 104.91 
M 200.3 120.47 200.9 120.07 201.68 119.03 202.18 117.85 202.18 117.13 201.68 115.95 200.9 114.91 200.3 114.51 
M 197.69 106.34 198.32 105.97 199.13 105 199.65 103.91 199.65 103.24 199.13 102.15 198.64 101.56 
M 201 115.89 201.56 115.48 202.28 114.44 202.75 113.27 202.75 112.54 202.28 111.36 201.56 110.32 201 109.91 
M 204.24 125.22 204.74 124.83 205.38 123.84 205.79 122.73 205.79 122.03 205.38 120.92 204.74 119.93 204.24 119.55 
M 206.42 133.49 206.89 133.15 207.48 132.28 207.87 131.3 207.87 130.69 207.48 129.71 206.89 128.84 206.42 128.5 
M 199.56 102.89 200.37 102.55 201.41 101.68 202.08 100.69 202.08 100.08 201.82 99.68 
M 202.18 111.67 202.92 111.29 203.87 110.33 204.49 109.24 204.49 108.56 203.87 107.47 202.92 106.5 202.18 106.13 
M 205.14 120.79 205.79 120.41 206.63 119.43 207.17 118.33 207.17 117.64 206.63 116.54 205.79 115.56 205.14 115.18 
M 203.68 107.79 204.36 107.44 205.23 106.54 205.79 105.53 205.79 104.9 205.23 103.88 204.36 102.98 203.68 102.63 
M 206.36 116.66 206.96 116.28 207.72 115.33 208.22 114.24 208.22 113.57 207.72 112.49 206.96 111.53 206.36 111.16 
M 208.96 125.41 209.48 125.04 210.15 124.12 210.58 123.08 210.58 122.43 210.15 121.38 209.48 120.46 208.96 120.1 
M 210.79 133.43 211.27 133.1 211.88 132.26 212.27 131.31 212.27 130.72 211.88 129.77 211.27 128.93 210.79 128.6 
M 207.9 112.83 208.65 112.48 209.62 111.59 210.25 110.58 210.25 109.95 209.62 108.94 208.65 108.05 207.9 107.7 
M 207.99 101.63 208.7 101.33 209.59 100.56 210.17 99.69 210.17 99.15 209.59 98.27 208.7 97.5 207.99 97.2 
M 213.77 125.68 214.29 125.34 214.96 124.48 215.39 123.51 215.39 122.91 214.96 121.94 214.29 121.08 213.77 120.74 
M 216.85 203.18 217.4 202.92 218.09 202.26 218.54 201.51 218.54 201.05 218.09 200.31 217.4 199.65 216.85 199.39 
M 210.3 98.9 211.1 98.61 212.14 97.88 212.81 97.06 212.81 96.55 212.14 95.72 210.76 94.87 
M 211.77 106.16 212.55 105.86 213.54 105.07 214.18 104.18 214.18 103.63 213.54 102.74 212.55 101.95 211.77 101.65 
M 213.49 113.89 214.21 113.57 215.12 112.74 215.71 111.8 215.71 111.22 215.12 110.28 214.21 109.45 213.49 109.12 
M 212.68 96.26 213.32 95.99 214.15 95.29 214.69 94.51 214.69 94.02 213.97 93.09 
M 217 118.19 217.55 117.88 218.25 117.06 218.7 116.14 218.7 115.57 218.25 114.64 217.55 113.83 217 113.51 
M 218.48 125.89 218.98 125.58 219.62 124.77 220.03 123.85 220.03 123.28 219.62 122.37 218.98 121.56 218.48 121.24 
M 219.61 133.37 220.08 133.07 220.68 132.29 221.07 131.4 221.07 130.86 220.68 129.97 220.08 129.19 219.61 128.89 
M 214.87 93.59 215.61 93.33 216.56 92.67 217.17 91.92 217.08 91.36 
M 215.98 100.17 216.7 99.89 217.63 99.19 218.22 98.38 218.22 97.89 217.63 97.09 216.7 96.38 215.98 96.1 
M 218.66 114.59 219.31 114.28 220.15 113.49 220.7 112.6 220.7 112.05 220.15 111.16 219.31 110.37 218.66 110.06 
M 224.19 187.11 224.76 186.83 225.49 186.11 225.96 185.29 225.96 184.79 225.49 183.98 224.76 183.26 224.19 182.98 
M 224.08 193.84 224.66 193.57 225.4 192.87 225.88 192.07 225.88 191.58 225.4 190.78 224.66 190.08 224.08 189.81 
M 224.9 211.85 225.27 211.33 225.27 210.89 224.77 210.18 224 209.55 223.39 209.3 
M 218.1 97.27 218.67 97.01 219.4 96.33 219.88 95.57 219.88 95.1 219.4 94.34 218.67 93.66 218.1 93.4 
M 219.19 103.99 219.76 103.71 220.48 102.99 220.94 102.17 220.94 101.67 220.48 100.85 219.76 100.13 219.19 99.85 
M 220.45 111.12 220.99 110.82 221.68 110.06 222.13 109.2 222.13 108.67 221.68 107.81 220.99 107.04 220.45 106.75 
M 221.76 118.51 222.28 118.21 222.93 117.43 223.35 116.54 223.35 115.99 222.93 115.1 222.28 114.32 221.76 114.02 
M 222.97 125.95 223.45 125.64 224.06 124.86 224.46 123.98 224.46 123.43 224.06 122.55 223.45 121.77 222.97 121.46 
M 223.89 133.25 224.35 132.95 224.94 132.19 225.32 131.33 225.32 130.8 224.94 129.94 224.35 129.18 223.89 128.88 
M 226.4 183.73 226.87 183.44 227.48 182.71 227.87 181.88 227.72 181.05 
M 226.35 190.53 226.82 190.25 227.43 189.54 227.82 188.74 227.82 188.24 227.43 187.43 226.82 186.72 226.35 186.45 
M 226.24 197.24 226.72 196.96 227.34 196.27 227.73 195.48 227.73 194.99 227.34 194.2 226.72 193.5 226.24 193.23 
M 226.12 203.8 226.61 203.53 227.22 202.85 227.62 202.09 227.62 201.61 227.22 200.84 226.61 200.17 226.12 199.9 
M 225.88 210.07 226.37 209.82 227 209.17 227.4 208.44 227.4 207.98 227 207.25 226.37 206.6 225.88 206.35 
M 220.1 94.44 220.76 94.19 221.6 93.54 222.15 92.8 222.15 92.34 221.6 91.6 220.76 90.95 220.1 90.69 
M 221.14 100.95 221.81 100.68 222.66 99.98 223.21 99.19 223.21 98.71 222.66 97.92 221.81 97.22 221.14 96.95 
M 223.47 114.96 224.09 114.67 224.89 113.91 225.41 113.05 225.41 112.52 224.89 111.66 224.09 110.9 223.47 110.61 
M 228.55 187.13 229.12 186.85 229.85 186.13 230.32 185.31 230.32 184.8 229.85 183.98 229.12 183.26 228.55 182.97 
M 228.48 193.9 229.05 193.62 229.78 192.92 230.25 192.12 230.25 191.62 229.78 190.82 229.05 190.12 228.48 189.84 
M 228.38 200.54 228.95 200.27 229.69 199.58 230.17 198.8 230.17 198.32 229.69 197.54 228.95 196.85 228.38 196.58 
M 228.21 206.98 228.8 206.72 229.54 206.05 230.02 205.3 230.02 204.83 229.54 204.08 228.8 203.42 228.21 203.16 
M 228.24 212.99 229.27 212.24 229.75 211.52 229.75 211.07 229.27 210.35 228.51 209.71 227.92 209.46 
M 222.06 91.59 222.57 91.34 223.23 90.71 223.65 89.99 223.65 89.55 223.09 88.7 
M 223.09 97.93 223.63 97.66 224.31 96.99 224.75 96.22 224.75 95.74 224.31 94.98 223.63 94.3 223.09 94.04 
M 225.3 111.55 225.83 111.26 226.51 110.53 226.95 109.69 226.95 109.17 226.51 108.34 225.83 107.6 225.3 107.32 
M 227.3 125.86 227.77 125.56 228.37 124.81 228.75 123.96 228.75 123.43 228.37 122.57 227.77 121.82 227.3 121.52 
M 228.04 132.99 228.48 132.7 229.05 131.96 229.42 131.12 229.42 130.6 229.05 129.75 228.48 129.01 228.04 128.72 
M 230.75 183.74 231.22 183.45 231.83 182.71 232.22 181.66 
M 230.71 190.54 231.18 190.27 231.78 189.55 232.17 188.75 232.17 188.25 231.78 187.44 231.18 186.73 230.71 186.45 
M 230.62 197.27 231.1 197 231.71 196.3 232.1 195.51 232.1 195.02 231.71 194.22 231.1 193.52 230.62 193.25 
M 230.53 203.86 231.01 203.6 231.62 202.92 232.02 202.15 232.02 201.67 231.62 200.9 231.01 200.22 230.53 199.95 
M 230.33 210.18 230.81 209.93 231.43 209.28 231.83 208.53 231.83 208.08 231.43 207.34 230.81 206.68 230.33 206.43 
M 231.48 214.1 231.13 213.49 230.5 212.86 230.01 212.61 
M 223.76 88.64 224.82 87.99 
M 224.88 94.93 225.49 94.67 226.27 94 226.77 93.24 226.77 92.77 226.27 92 225.49 91.33 224.88 91.07 
M 226.08 101.56 226.72 101.28 227.54 100.58 228.07 99.78 228.07 99.29 227.54 98.49 226.72 97.79 226.08 97.51 
M 228.19 115.25 228.81 114.97 229.6 114.24 230.11 113.41 230.11 112.9 229.6 112.08 228.81 111.35 228.19 111.06 
M 229.04 122.25 229.62 121.96 230.36 121.23 230.83 120.39 230.83 119.88 230.36 119.04 229.62 118.31 229.04 118.02 
M 229.74 129.28 230.28 128.99 230.97 128.26 231.42 127.42 231.42 126.91 230.97 126.07 230.28 125.34 229.74 125.05 
M 232.9 187.13 233.46 186.85 234.19 186.13 234.66 185.3 234.66 184.8 234.19 183.98 233.46 183.25 232.9 182.97 
M 232.83 193.9 233.4 193.63 234.13 192.92 234.59 192.12 234.59 191.62 234.13 190.82 233.4 190.12 232.83 189.84 
M 232.77 200.59 233.34 200.32 234.07 199.63 234.54 198.84 234.54 198.35 234.07 197.57 233.34 196.88 232.77 196.61 
M 232.64 207.06 233.22 206.8 233.95 206.13 234.43 205.38 234.43 204.91 233.95 204.15 233.22 203.48 232.64 203.22 
M 232.4 213.27 232.99 213.02 233.73 212.38 234.22 211.65 234.22 211.2 233.73 210.47 232.99 209.82 232.4 209.57 
M 226.49 91.77 226.96 91.51 227.56 90.84 227.95 90.08 227.95 89.61 227.56 88.85 226.96 88.18 226.49 87.92 
M 227.87 98.45 228.39 98.17 229.04 97.46 229.47 96.66 229.47 96.16 229.04 95.36 228.39 94.65 227.87 94.37 
M 229.16 105.25 229.7 104.97 230.4 104.25 230.84 103.44 230.84 102.94 230.4 102.12 229.7 101.41 229.16 101.13 
M 230.16 112 230.69 111.72 231.37 111.01 231.81 110.2 231.81 109.7 231.37 108.89 230.69 108.18 230.16 107.9 
M 230.94 118.8 231.44 118.52 232.08 117.8 232.49 116.99 232.49 116.49 232.08 115.68 231.44 114.96 230.94 114.68 
M 231.56 125.66 232.02 125.38 232.61 124.66 232.99 123.84 232.99 123.34 232.61 122.52 232.02 121.8 231.56 121.52 
M 232.05 132.6 232.49 132.32 233.05 131.59 233.41 130.78 233.41 130.27 233.05 129.45 232.49 128.73 232.05 128.44 
M 235.11 183.74 235.58 183.45 236.19 182.72 236.58 181.88 236.58 181.37 236.19 180.53 235.69 179.92 
M 235.03 190.51 235.5 190.24 236.1 189.52 236.48 188.72 236.48 188.22 236.1 187.41 235.5 186.7 235.03 186.42 
M 234.98 197.29 235.45 197.01 236.06 196.31 236.45 195.51 236.45 195.02 236.06 194.22 235.45 193.52 234.98 193.24 
M 234.93 203.93 235.41 203.66 236.02 202.97 236.42 202.2 236.42 201.72 236.02 200.94 235.41 200.26 234.93 199.99 
M 234.76 210.28 235.25 210.03 235.87 209.37 236.26 208.62 236.26 208.16 235.87 207.41 235.25 206.76 234.76 206.5 
M 235.9 215.03 236.03 214.35 235.63 213.63 235 212.99 234.51 212.74 
M 227.91 88.54 228.44 88.28 229.13 87.63 229.57 86.89 229.57 86.46 
M 229.39 95.21 229.97 94.94 230.72 94.22 231.2 93.41 231.2 92.91 230.72 92.1 229.97 91.39 229.39 91.11 
M 230.9 102.1 231.53 101.82 232.33 101.09 232.85 100.26 232.85 99.75 232.33 98.93 231.53 98.2 230.9 97.92 
M 232.09 108.87 232.73 108.59 233.55 107.88 234.07 107.07 234.07 106.57 233.55 105.77 232.73 105.05 232.09 104.77 
M 232.9 115.53 233.51 115.25 234.29 114.55 234.8 113.76 234.8 113.27 234.29 112.47 233.51 111.77 232.9 111.5 
M 233.44 122.2 234.02 121.93 234.75 121.23 235.23 120.43 235.23 119.94 234.75 119.14 234.02 118.44 233.44 118.17 
M 233.85 128.97 234.39 128.69 235.09 127.98 235.53 127.18 235.53 126.68 235.09 125.88 234.39 125.17 233.85 124.89 
M 235.28 132.63 234.69 132 234.17 131.72 
M 237.15 180.2 237.72 179.9 238.45 179.14 238.92 178.27 238.83 177.56 
M 237.23 187.11 237.79 186.83 238.52 186.1 238.98 185.28 238.98 184.78 238.52 183.96 237.79 183.23 237.23 182.95 
M 237.17 193.89 237.73 193.62 238.45 192.91 238.92 192.1 238.92 191.6 238.45 190.8 237.73 190.09 237.17 189.81 
M 237.14 200.63 237.71 200.35 238.45 199.66 238.92 198.87 238.92 198.38 238.45 197.59 237.71 196.89 237.14 196.62 
M 237.06 207.14 237.63 206.88 238.37 206.21 238.85 205.44 238.85 204.97 238.37 204.21 237.63 203.53 237.06 203.27 
M 236.87 213.4 237.45 213.15 238.2 212.5 238.68 211.76 238.68 211.31 238.2 210.57 237.45 209.92 236.87 209.67 
M 230.68 91.76 231.14 91.48 231.73 90.76 232.1 89.94 232.1 89.43 231.73 88.61 231.14 87.89 230.68 87.61 
M 232.51 98.87 233.02 98.58 233.66 97.82 234.08 96.97 234.08 96.44 233.66 95.58 233.02 94.83 232.51 94.53 
M 234.06 105.83 234.59 105.55 235.27 104.82 235.71 103.99 235.71 103.48 235.27 102.66 234.59 101.93 234.06 101.65 
M 234.98 112.41 235.51 112.14 236.17 111.45 236.61 110.66 236.61 110.18 236.17 109.39 235.51 108.7 234.98 108.43 
M 235.5 118.9 235.99 118.64 236.62 117.96 237.03 117.18 237.03 116.7 236.62 115.93 235.99 115.25 235.5 114.98 
M 235.78 125.45 236.24 125.18 236.83 124.49 237.21 123.71 237.21 123.22 236.83 122.44 236.24 121.75 235.78 121.48 
M 236.03 132.17 236.47 131.9 237.03 131.19 237.4 130.4 237.4 129.9 237.03 129.11 236.47 128.4 236.03 128.13 
M 239.45 183.72 239.92 183.43 240.53 182.7 240.92 181.87 240.92 181.36 240.53 180.53 239.92 179.8 239.45 179.52 
M 239.32 190.46 239.79 190.18 240.39 189.47 240.78 188.66 240.78 188.16 240.39 187.36 239.79 186.64 239.32 186.37 
M 239.33 197.31 239.8 197.03 240.41 196.32 240.8 195.52 240.8 195.02 240.41 194.21 239.8 193.5 239.33 193.23 
M 239.33 203.99 239.81 203.72 240.42 203.03 240.82 202.25 240.82 201.76 240.42 200.98 239.81 200.29 239.33 200.02 
M 239.2 210.38 239.68 210.12 240.3 209.46 240.7 208.71 240.7 208.24 240.3 207.49 239.68 206.83 239.2 206.57 
M 240.16 215.57 240.51 214.93 240.51 214.48 240.11 213.75 239.49 213.11 239 212.86 
M 231.95 88.34 232.5 88.07 233.2 87.38 233.65 86.59 233.65 86.11 233.24 85.41 
M 233.81 95.41 234.39 95.11 235.14 94.35 235.62 93.5 235.62 92.96 235.14 92.11 234.39 91.35 233.81 91.05 
M 235.64 102.56 236.26 102.26 237.05 101.51 237.56 100.66 237.56 100.13 237.05 99.28 236.26 98.53 235.64 98.23 
M 236.91 109.33 237.53 109.05 238.33 108.34 238.85 107.54 238.85 107.04 238.33 106.24 237.53 105.53 236.91 105.25 
M 237.56 115.77 238.16 115.51 238.94 114.83 239.44 114.06 239.44 113.59 238.94 112.82 238.16 112.14 237.56 111.88 
M 237.84 122.17 238.42 121.9 239.15 121.23 239.63 120.47 239.63 119.99 239.15 119.23 238.42 118.56 237.84 118.29 
M 237.99 128.69 238.54 128.42 239.24 127.74 239.69 126.96 239.69 126.48 239.24 125.7 238.54 125.01 237.99 124.74 
M 238.81 131.8 238.14 131.38 
M 241.52 180.22 242.09 179.92 242.81 179.15 243.28 178.29 243.28 177.75 242.81 176.89 242.09 176.12 241.61 175.87 
M 241.55 187.07 242.11 186.79 242.84 186.07 243.3 185.25 243.3 184.75 242.84 183.93 242.11 183.21 241.55 182.93 
M 241.5 193.88 242.06 193.6 242.79 192.89 243.26 192.08 243.26 191.58 242.79 190.78 242.06 190.06 241.5 189.79 
M 241.52 200.67 242.09 200.39 242.83 199.69 243.3 198.9 243.3 198.41 242.83 197.61 242.09 196.91 241.52 196.64 
M 241.47 207.22 242.05 206.96 242.79 206.28 243.26 205.51 243.26 205.04 242.79 204.27 242.05 203.59 241.47 203.32 
M 241.33 213.53 241.91 213.27 242.65 212.62 243.13 211.87 243.13 211.41 242.65 210.67 241.91 210.02 241.33 209.76 
M 234.92 91.77 235.4 91.48 236.01 90.71 236.41 89.84 236.41 89.31 236.01 88.44 235.4 87.67 234.92 87.37 
M 237.12 99.23 237.63 98.92 238.27 98.13 238.69 97.24 238.69 96.68 238.27 95.79 237.63 95 237.12 94.69 
M 238.86 106.3 239.38 106.02 240.04 105.28 240.47 104.44 240.47 103.93 240.04 103.09 239.38 102.36 238.86 102.07 
M 239.72 112.76 240.23 112.49 240.88 111.81 241.31 111.04 241.31 110.57 240.88 109.8 240.23 109.12 239.72 108.86 
M 240.03 119.01 240.52 118.76 241.15 118.1 241.56 117.36 241.56 116.9 241.15 116.15 240.52 115.49 240.03 115.24 
M 240.05 125.3 240.52 125.04 241.13 124.37 241.52 123.62 241.52 123.15 241.13 122.4 240.52 121.74 240.05 121.48 
M 240.8 131.29 241.51 130.11 241.51 129.63 241.14 128.85 240.55 128.16 240.1 127.89 
M 243.61 176.76 244.09 176.45 244.69 175.65 245.08 174.73 245.08 174.37 
M 243.78 183.68 244.25 183.4 244.86 182.67 245.25 181.85 245.25 181.34 244.86 180.52 244.25 179.79 243.78 179.5 
M 243.64 190.43 244.11 190.15 244.72 189.44 245.11 188.63 245.11 188.13 244.72 187.32 244.11 186.6 243.64 186.32 
M 243.7 197.33 244.17 197.06 244.78 196.34 245.18 195.53 245.18 195.03 244.78 194.22 244.17 193.51 243.7 193.23 
M 243.73 204.05 244.21 203.78 244.82 203.08 245.22 202.3 245.22 201.81 244.82 201.03 244.21 200.33 243.73 200.06 
M 243.63 210.48 244.12 210.22 244.73 209.55 245.13 208.79 245.13 208.32 244.73 207.57 244.12 206.9 243.63 206.64 
M 244.81 215.4 244.99 215.06 244.99 214.61 244.59 213.88 243.97 213.23 243.48 212.98 
M 236.24 88.34 236.83 88.06 237.59 87.35 238.08 86.54 238.08 86.04 237.59 85.23 236.85 84.53 
M 238.32 95.64 238.92 95.33 239.69 94.55 240.19 93.66 240.19 93.11 239.69 92.23 238.92 91.44 238.32 91.14 
M 240.32 102.93 240.94 102.63 241.72 101.86 242.23 101 242.23 100.46 241.72 99.59 240.94 98.83 240.32 98.53 
M 241.62 109.67 242.23 109.4 243.01 108.69 243.52 107.89 243.52 107.4 243.01 106.6 242.23 105.9 241.62 105.62 
M 242.16 115.98 242.76 115.72 243.53 115.06 244.03 114.31 244.03 113.84 243.53 113.09 242.76 112.43 242.16 112.17 
M 242.27 122.19 242.85 121.93 243.6 121.28 244.09 120.54 244.09 120.08 243.6 119.34 242.85 118.68 242.27 118.43 
M 242.24 128.55 242.81 128.28 243.54 127.61 244.02 126.85 244.02 126.38 243.54 125.62 242.81 124.95 242.24 124.69 
M 245.87 180.23 246.43 179.93 247.16 179.16 247.63 178.29 247.63 177.75 247.16 176.88 246.43 176.11 245.87 175.81 
M 245.89 187.07 246.46 186.78 247.19 186.06 247.66 185.24 247.66 184.74 247.19 183.92 246.46 183.2 245.89 182.92 
M 245.86 193.9 246.43 193.62 247.16 192.91 247.63 192.1 247.63 191.59 247.16 190.78 246.43 190.07 245.86 189.79 
M 245.91 200.71 246.48 200.44 247.22 199.73 247.69 198.94 247.69 198.44 247.22 197.65 246.48 196.94 245.91 196.67 
M 245.89 207.3 246.46 207.03 247.2 206.35 247.68 205.58 247.68 205.1 247.2 204.33 246.46 203.64 245.89 203.38 
M 245.78 213.64 246.36 213.38 247.1 212.73 247.58 211.98 247.58 211.52 247.1 210.77 246.36 210.11 245.78 209.85 
M 237.52 84.85 238.5 84.13 
M 239.47 92.01 239.98 91.7 240.64 90.92 241.06 90.04 241.06 89.5 240.64 88.61 239.98 87.84 239.47 87.53 
M 241.77 99.55 242.28 99.24 242.94 98.44 243.36 97.54 243.36 96.98 242.94 96.07 242.28 95.27 241.77 94.96 
M 243.54 106.63 244.05 106.34 244.7 105.61 245.12 104.77 245.12 104.26 244.7 103.42 244.05 102.69 243.54 102.4 
M 244.34 113 244.85 112.74 245.49 112.07 245.9 111.31 245.9 110.84 245.49 110.08 244.85 109.41 244.34 109.15 
M 244.55 119.15 245.04 118.89 245.68 118.25 246.09 117.52 246.09 117.07 245.68 116.34 245.04 115.69 244.55 115.44 
M 244.44 125.3 244.93 125.05 245.56 124.39 245.97 123.65 245.97 123.2 245.56 122.46 244.93 121.8 244.44 121.55 
M 245.77 130.24 245.88 129.55 245.48 128.79 244.86 128.11 244.38 127.84 
M 247.94 176.77 248.41 176.45 249.02 175.64 249.4 174.72 249.4 174.15 249.05 173.31 
M 248.13 183.69 248.61 183.41 249.22 182.68 249.61 181.85 249.61 181.34 249.22 180.51 248.61 179.79 248.13 179.5 
M 248.01 190.46 248.49 190.18 249.1 189.46 249.49 188.65 249.49 188.15 249.1 187.34 248.49 186.62 248.01 186.34 
M 248.09 197.38 248.57 197.1 249.18 196.38 249.57 195.57 249.57 195.07 249.18 194.26 248.57 193.55 248.09 193.27 
M 248.13 204.1 248.6 203.83 249.21 203.13 249.61 202.34 249.61 201.86 249.21 201.07 248.6 200.37 248.13 200.1 
M 248.06 210.57 248.54 210.3 249.16 209.63 249.55 208.87 249.55 208.4 249.16 207.64 248.54 206.97 248.06 206.71 
M 249.37 215.34 249.46 214.73 249.06 213.99 248.44 213.34 247.95 213.09 
M 240.96 88.7 241.6 88.42 242.42 87.71 242.96 86.91 242.96 86.41 242.42 85.6 241.6 84.89 240.96 84.61 
M 243.03 96 243.66 95.69 244.47 94.91 245 94.02 245 93.48 244.47 92.59 243.66 91.81 243.03 91.5 
M 245.01 103.26 245.64 102.96 246.43 102.2 246.94 101.34 246.94 100.8 246.43 99.94 245.64 99.18 245.01 98.88 
M 246.26 109.95 246.87 109.68 247.66 108.98 248.16 108.18 248.16 107.69 247.66 106.9 246.87 106.2 246.26 105.93 
M 246.75 116.2 247.35 115.94 248.13 115.29 248.63 114.54 248.63 114.08 248.13 113.34 247.35 112.68 246.75 112.43 
M 246.8 122.36 247.41 122.1 248.19 121.46 248.69 120.72 248.69 120.26 248.19 119.53 247.41 118.88 246.8 118.63 
M 246.73 128.66 247.33 128.4 248.11 127.74 248.61 126.98 248.61 126.52 248.11 125.76 247.33 125.1 246.73 124.84 
M 247.67 134.59 248.57 133.47 248.57 133 248.07 132.23 247.3 131.55 246.7 131.29 
M 249.14 163.03 249.6 162.03 249.6 161.41 249.07 160.31 
M 250.21 180.23 250.78 179.93 251.5 179.16 251.97 178.28 251.97 177.74 251.5 176.86 250.78 176.09 250.21 175.79 
M 250.26 187.09 250.83 186.81 251.56 186.09 252.03 185.27 252.03 184.76 251.56 183.94 250.83 183.21 250.26 182.93 
M 250.25 193.94 250.82 193.66 251.55 192.94 252.02 192.13 252.02 191.63 251.55 190.82 250.82 190.1 250.25 189.82 
M 250.3 200.75 250.87 200.48 251.6 199.77 252.07 198.97 252.07 198.48 251.6 197.68 250.87 196.98 250.3 196.7 
M 250.29 207.35 250.86 207.09 251.6 206.4 252.07 205.63 252.07 205.15 251.6 204.37 250.86 203.69 250.29 203.42 
M 250.22 213.74 250.79 213.48 251.53 212.82 252.01 212.06 252.01 211.6 251.53 210.85 250.79 210.19 250.22 209.93 
M 242.5 85.45 243.06 85.2 243.78 84.55 244.25 83.78 
M 244.35 92.5 244.9 92.2 245.6 91.44 246.06 90.57 246.06 90.04 245.6 89.17 244.9 88.4 244.35 88.11 
M 246.54 99.93 247.07 99.62 247.75 98.84 248.19 97.95 248.19 97.4 247.75 96.51 247.07 95.73 246.54 95.42 
M 248.21 106.92 248.73 106.63 249.39 105.91 249.81 105.09 249.81 104.58 249.39 103.76 248.73 103.03 248.21 102.75 
M 248.95 113.25 249.46 112.99 250.11 112.32 250.53 111.57 250.53 111.1 250.11 110.35 249.46 109.68 248.95 109.42 
M 249.15 119.4 249.66 119.15 250.32 118.5 250.74 117.77 250.74 117.32 250.32 116.59 249.66 115.94 249.15 115.69 
M 249.07 125.58 249.59 125.33 250.26 124.67 250.7 123.93 250.7 123.47 250.26 122.73 249.59 122.08 249.07 121.82 
M 249.01 132.01 249.54 131.75 250.21 131.08 250.65 130.31 250.65 129.84 250.21 129.07 249.54 128.4 249.01 128.13 
M 250 137.82 250.6 136.88 250.6 136.41 250.17 135.65 249.5 134.97 248.98 134.71 
M 249.11 159.78 249.57 159.44 250.16 158.57 250.54 157.59 250.54 156.98 250.16 155.99 249.49 155.07 
M 251.19 168.43 251.96 167.39 252.35 166.36 252.35 165.73 251.96 164.7 251.36 163.79 250.9 163.43 
M 252.26 176.75 252.73 176.43 253.34 175.61 253.73 174.69 253.73 174.11 252.96 172.67 
M 252.5 183.72 252.97 183.43 253.58 182.7 253.97 181.87 253.97 181.35 253.58 180.52 252.97 179.79 252.5 179.5 
M 253.84 215.37 253.89 214.82 253.49 214.08 252.87 213.42 252.39 213.17 
M 246.02 89.38 246.71 89.1 247.59 88.41 248.15 87.62 248.15 87.13 247.59 86.33 246.71 85.64 246.02 85.36 
M 247.96 96.53 248.63 96.23 249.47 95.47 250.02 94.6 250.02 94.06 249.47 93.2 248.63 92.43 247.96 92.14 
M 249.81 103.66 250.45 103.37 251.27 102.62 251.8 101.78 251.8 101.25 251.27 100.41 250.45 99.66 249.81 99.37 
M 250.96 110.28 251.59 110.01 252.39 109.32 252.9 108.53 252.9 108.05 252.39 107.26 251.59 106.57 250.96 106.3 
M 251.43 116.54 252.06 116.28 252.85 115.63 253.37 114.88 253.37 114.42 252.85 113.67 252.06 113.01 251.43 112.76 
M 251.55 122.77 252.18 122.51 252.99 121.86 253.52 121.11 253.52 120.65 252.99 119.91 252.18 119.26 251.55 119 
M 251.53 129.12 252.18 128.86 253.01 128.19 253.55 127.44 253.55 126.97 253.01 126.21 252.18 125.55 251.53 125.28 
M 251.49 135.61 252.14 135.35 252.97 134.68 253.51 133.92 253.51 133.44 252.97 132.68 252.14 132.01 251.49 131.75 
M 253.15 140.29 253.15 139.82 252.63 139.07 251.82 138.4 251.19 138.14 
M 250.92 155.76 251.49 155.45 252.21 154.64 252.68 153.73 252.68 153.17 252.21 152.26 251.49 151.46 250.92 151.15 
M 252.16 164.2 252.73 163.86 253.45 162.97 253.92 161.96 253.92 161.34 253.45 160.33 252.73 159.44 252.16 159.09 
M 253.76 172.71 254.33 172.38 255.06 171.51 255.53 170.53 255.53 169.92 255.06 168.95 254.33 168.08 253.76 167.74 
M 247.77 86.34 248.36 86.09 249.13 85.45 249.62 84.73 249.62 84.29 249.17 83.63 
M 249.48 93.22 250.06 92.93 250.79 92.18 251.27 91.34 251.27 90.82 250.79 89.98 250.06 89.23 249.48 88.94 
M 251.49 100.47 252.04 100.17 252.74 99.41 253.2 98.54 253.2 98 252.74 97.14 252.04 96.37 251.49 96.08 
M 253.01 107.33 253.54 107.05 254.22 106.34 254.66 105.53 254.66 105.03 254.22 104.22 253.54 103.51 253.01 103.23 
M 253.68 113.63 254.21 113.37 254.88 112.7 255.31 111.95 255.31 111.48 254.88 110.73 254.21 110.06 253.68 109.8 
M 253.95 119.88 254.48 119.62 255.16 118.97 255.6 118.22 255.6 117.76 255.16 117.02 254.48 116.36 253.95 116.11 
M 254.01 126.2 254.56 125.94 255.26 125.28 255.72 124.52 255.72 124.06 255.26 123.3 254.56 122.64 254.01 122.38 
M 254.03 132.69 254.6 132.43 255.32 131.75 255.78 130.99 255.78 130.51 255.32 129.75 254.6 129.07 254.03 128.8 
M 253.94 139.14 254.49 138.89 255.2 138.23 255.66 137.48 255.66 137.02 255.2 136.27 254.49 135.62 253.94 135.36 
M 252.78 151.77 253.27 151.48 253.89 150.76 254.29 149.93 254.29 149.42 253.89 148.6 253.27 147.87 252.78 147.59 
M 253.39 159.71 253.87 159.37 254.48 158.5 254.87 157.52 254.87 156.92 254.48 155.94 253.87 155.07 253.39 154.73 
M 255.25 168.67 255.73 168.32 256.34 167.4 256.74 166.37 256.74 165.73 256.34 164.69 255.73 163.78 255.25 163.42 
M 250.12 84.06 251.27 83.59 
M 251.33 90.28 252.04 90.01 252.96 89.33 253.55 88.56 253.55 88.08 252.96 87.31 252.04 86.63 251.33 86.37 
M 253.09 97.24 253.78 96.95 254.66 96.21 255.22 95.37 255.22 94.85 254.66 94.01 253.78 93.27 253.09 92.98 
M 254.75 104.2 255.41 103.92 256.26 103.19 256.8 102.36 256.8 101.85 256.26 101.03 255.41 100.3 254.75 100.02 
M 255.79 110.74 256.43 110.47 257.25 109.78 257.78 109.01 257.78 108.53 257.25 107.75 256.43 107.06 255.79 106.8 
M 256.26 117.03 256.9 116.77 257.72 116.11 258.25 115.36 258.25 114.89 257.72 114.14 256.9 113.47 256.26 113.21 
M 256.48 123.39 257.14 123.13 257.98 122.46 258.52 121.7 258.52 121.24 257.98 120.48 257.14 119.81 256.48 119.55 
M 256.59 129.86 257.26 129.59 258.12 128.92 258.68 128.15 258.68 127.68 258.12 126.91 257.26 126.24 256.59 125.97 
M 256.57 136.32 257.25 136.06 258.11 135.4 258.67 134.64 258.67 134.18 258.11 133.42 257.25 132.76 256.57 132.5 
M 256.58 142.31 257.62 141.59 258.17 140.86 258.17 140.41 257.62 139.68 256.78 139.03 256.12 138.78 
M 255.4 148.65 256.02 148.38 256.82 147.71 257.33 146.94 257.33 146.46 256.82 145.7 256.02 145.02 255.4 144.76 
M 255.34 155.79 255.93 155.49 256.69 154.7 257.18 153.8 257.18 153.25 256.69 152.35 255.93 151.57 255.34 151.26 
M 256.55 164.24 257.13 163.89 257.88 163 258.36 162 258.36 161.37 257.88 160.37 257.13 159.48 256.55 159.13 
M 253.26 87.43 253.88 87.19 254.67 86.57 255.18 85.87 255.18 85.43 254.67 84.73 253.88 84.11 253.26 83.86 
M 254.8 94.12 255.4 93.84 256.16 93.12 256.65 92.3 256.65 91.8 256.16 90.98 255.4 90.26 254.8 89.98 
M 256.59 101.15 257.16 100.86 257.88 100.12 258.35 99.28 258.35 98.77 257.88 97.93 257.16 97.19 256.59 96.9 
M 257.93 107.86 258.48 107.58 259.17 106.89 259.62 106.1 259.62 105.61 259.17 104.82 258.48 104.12 257.93 103.85 
M 258.53 114.13 259.07 113.87 259.75 113.2 260.19 112.45 260.19 111.98 259.75 111.23 259.07 110.56 258.53 110.3 
M 258.88 120.49 259.42 120.23 260.11 119.56 260.56 118.81 260.56 118.34 260.11 117.58 259.42 116.91 258.88 116.65 
M 259.1 126.98 259.66 126.72 260.37 126.04 260.83 125.27 260.83 124.79 260.37 124.02 259.66 123.34 259.1 123.07 
M 259.23 133.55 259.8 133.28 260.53 132.6 260.99 131.83 260.99 131.36 260.53 130.59 259.8 129.91 259.23 129.64 
M 259.08 139.9 259.65 139.65 260.37 139.01 260.84 138.27 260.84 137.82 260.37 137.09 259.65 136.44 259.08 136.19 
M 258.2 145.69 258.74 145.45 259.44 144.82 259.89 144.12 259.89 143.68 259.44 142.97 258.74 142.35 258.2 142.1 
M 257.35 151.92 257.86 151.65 258.52 150.94 258.94 150.14 258.94 149.65 258.52 148.85 257.86 148.15 257.35 147.88 
M 257.83 159.78 258.33 159.44 258.97 158.58 259.38 157.61 259.38 157.01 258.97 156.03 258.33 155.17 257.83 154.83 
M 255.71 85.27 256.46 85.05 257.43 84.5 258.05 83.87 258.05 83.48 257.9 83.33 
M 256.79 91.34 257.53 91.08 258.47 90.42 259.08 89.67 259.08 89.21 258.47 88.46 257.53 87.8 256.79 87.54 
M 258.36 98.09 259.06 97.81 259.97 97.09 260.55 96.28 260.55 95.78 259.97 94.97 259.06 94.25 258.36 93.97 
M 259.82 104.86 260.49 104.58 261.36 103.87 261.91 103.07 261.91 102.58 261.36 101.77 260.49 101.07 259.82 100.79 
M 261.72 137.11 262.39 136.85 263.25 136.19 263.8 135.44 263.8 134.98 263.25 134.23 262.39 133.56 261.72 133.3 
M 263.28 187.05 263.84 186.77 264.56 186.05 265.03 185.23 265.03 184.73 264.56 183.91 263.84 183.19 263.28 182.9 
M 258.88 88.66 259.5 88.42 260.31 87.82 260.83 87.13 260.83 86.71 260.31 86.02 259.5 85.41 258.88 85.18 
M 260.24 95.14 260.85 94.87 261.63 94.18 262.13 93.39 262.13 92.9 261.63 92.12 260.85 91.42 260.24 91.15 
M 261.8 101.94 262.38 101.66 263.12 100.95 263.6 100.14 263.6 99.64 263.12 98.83 262.38 98.12 261.8 97.84 
M 264.17 127.72 264.71 127.46 265.42 126.77 265.87 125.99 265.87 125.51 265.42 124.73 264.71 124.04 264.17 123.77 
M 264.36 134.33 264.91 134.07 265.61 133.38 266.07 132.61 266.07 132.13 265.61 131.36 264.91 130.68 264.36 130.41 
M 263.24 146.35 263.79 146.11 264.5 145.5 264.96 144.8 264.96 144.37 264.5 143.68 263.79 143.07 263.24 142.83 
M 261.38 86.56 262.14 86.34 263.11 85.8 263.74 85.18 263.74 84.8 263.11 84.18 261.77 83.53 
M 262.34 92.48 263.08 92.23 264.03 91.59 264.64 90.86 264.64 90.41 264.03 89.69 263.08 89.05 262.34 88.8 
M 263.71 99.01 264.42 98.75 265.33 98.05 265.92 97.27 265.92 96.79 265.33 96 264.42 95.31 263.71 95.04 
M 264.96 105.59 265.64 105.32 266.51 104.63 267.07 103.86 267.07 103.37 266.51 102.6 265.64 101.91 264.96 101.64 
M 265.72 111.91 266.38 111.65 267.22 110.98 267.76 110.23 267.76 109.76 267.22 109.01 266.38 108.34 265.72 108.08 
M 266.47 124.72 267.12 124.45 267.94 123.77 268.48 123 268.48 122.52 267.94 121.75 267.12 121.07 266.47 120.8 
M 266.75 137.8 267.4 137.54 268.22 136.87 268.76 136.12 268.76 135.66 268.22 134.9 267.4 134.24 266.75 133.98 
M 267.61 193.91 268.17 193.63 268.89 192.91 269.36 192.09 269.36 191.59 268.89 190.77 268.17 190.05 267.61 189.77 
M 263.91 84.5 264.78 84.17 
M 264.52 89.92 265.15 89.68 265.95 89.09 266.47 88.42 266.47 88.01 265.95 87.34 265.15 86.75 264.52 86.51 
M 265.73 96.2 266.33 95.94 267.11 95.27 267.61 94.51 267.61 94.04 267.11 93.28 266.33 92.61 265.73 92.35 
M 267.06 102.78 267.64 102.51 268.38 101.82 268.86 101.04 268.86 100.56 268.38 99.78 267.64 99.09 267.06 98.83 
M 268.02 109.15 268.58 108.89 269.28 108.23 269.74 107.47 269.74 107.01 269.28 106.26 268.58 105.6 268.02 105.34 
M 268.44 115.3 268.98 115.04 269.67 114.39 270.11 113.65 270.11 113.19 269.67 112.44 268.98 111.79 268.44 111.53 
M 268.78 121.72 269.32 121.45 270 120.78 270.44 120.01 270.44 119.54 270 118.78 269.32 118.1 268.78 117.84 
M 269.09 128.3 269.62 128.03 270.29 127.34 270.73 126.56 270.73 126.08 270.29 125.3 269.62 124.62 269.09 124.35 
M 267.24 153.04 267.8 152.78 268.52 152.1 268.99 151.33 268.99 150.85 268.52 150.08 267.8 149.39 267.24 149.13 
M 267.48 160.63 268.03 160.31 268.74 159.48 269.2 158.55 269.2 157.97 268.74 157.03 268.03 156.2 267.48 155.88 
M 267.04 87.84 267.8 87.63 268.77 87.1 269.4 86.49 269.4 86.12 268.77 85.51 267.8 84.98 267.04 84.77 
M 267.89 93.62 268.62 93.38 269.57 92.76 270.18 92.05 270.18 91.62 269.57 90.91 268.62 90.29 267.89 90.05 
M 269.06 99.94 269.76 99.68 270.66 99.02 271.24 98.26 271.24 97.79 270.66 97.04 269.76 96.37 269.06 96.11 
M 270.1 106.31 270.77 106.05 271.63 105.39 272.18 104.64 272.18 104.17 271.63 103.42 270.77 102.75 270.1 102.49 
M 271.04 118.75 271.67 118.49 272.48 117.83 273.01 117.08 273.01 116.62 272.48 115.87 271.67 115.21 271.04 114.95 
M 271.53 131.76 272.14 131.5 272.92 130.81 273.43 130.04 273.43 129.56 272.92 128.78 272.14 128.1 271.53 127.83 
M 271.14 144.44 271.77 144.19 272.57 143.55 273.09 142.82 273.09 142.37 272.57 141.65 271.77 141.01 271.14 140.75 
M 270.29 150.43 270.95 150.17 271.79 149.52 272.34 148.77 272.34 148.31 271.79 147.57 270.95 146.91 270.29 146.66 
M 271.75 173.11 272.34 172.79 273.09 172 273.58 171.09 273.58 170.53 273.09 169.63 272.34 168.83 271.75 168.52 
M 269.6 85.82 269.88 85.74 
M 270.14 91.14 270.76 90.91 271.56 90.34 272.08 89.68 272.08 89.28 271.56 88.63 270.76 88.05 270.14 87.82 
M 271.17 97.22 271.76 96.97 272.53 96.33 273.02 95.59 273.02 95.14 272.53 94.41 271.76 93.77 271.17 93.51 
M 272.28 103.56 272.84 103.31 273.56 102.64 274.03 101.89 274.03 101.43 273.56 100.68 272.84 100.02 272.28 99.76 
M 273.34 115.82 273.87 115.57 274.54 114.93 274.98 114.2 274.98 113.75 274.54 113.02 273.87 112.37 273.34 112.12 
M 273.93 135.21 274.43 134.94 275.06 134.26 275.47 133.49 275.47 133.01 275.06 132.23 274.43 131.55 273.93 131.28 
M 273.86 141.68 274.36 141.42 275 140.76 275.41 140.01 275.41 139.54 275 138.79 274.36 138.13 273.86 137.87 
M 272.4 153.87 272.96 153.6 273.67 152.92 274.13 152.14 274.13 151.66 273.67 150.88 272.96 150.19 272.4 149.92 
M 272.69 89.11 273.44 88.91 274.4 88.38 274.93 87.88 
M 273.39 94.71 274.11 94.47 275.04 93.87 275.64 93.2 275.64 92.78 275.04 92.1 274.11 91.5 273.39 91.27 
M 275.13 106.93 275.78 106.68 276.62 106.04 277.15 105.31 277.15 104.86 276.62 104.13 275.78 103.49 275.13 103.24 
M 275.58 112.99 276.21 112.74 277.02 112.11 277.54 111.38 277.54 110.94 277.02 110.22 276.21 109.58 275.58 109.33 
M 275.96 125.46 276.56 125.2 277.32 124.54 277.81 123.78 277.81 123.32 277.32 122.56 276.56 121.9 275.96 121.64 
M 274.98 157.9 275.63 157.61 276.47 156.86 277.01 156.02 277.01 155.5 276.47 154.66 275.63 153.92 274.98 153.63 
M 275.73 92.33 276.35 92.11 277.13 91.55 277.63 90.92 277.63 90.53 277.13 89.9 276.35 89.35 275.73 89.13 
M 276.52 98.13 277.1 97.89 277.84 97.28 278.32 96.59 278.32 96.16 277.84 95.46 277.1 94.85 276.52 94.61 
M 277.34 104.19 277.88 103.94 278.58 103.31 279.03 102.59 279.03 102.15 278.58 101.44 277.88 100.8 277.34 100.56 
M 278.19 122.35 278.69 122.1 279.32 121.45 279.73 120.71 279.73 120.26 279.32 119.52 278.69 118.87 278.19 118.62 
M 278.27 128.72 278.75 128.46 279.36 127.79 279.75 127.03 279.75 126.56 279.36 125.81 278.75 125.14 278.27 124.88 
M 277.39 154.55 277.92 154.28 278.61 153.57 279.05 152.78 279.05 152.29 278.61 151.49 277.92 150.79 277.39 150.52 
M 278.25 90.28 279.09 90.02 
M 278.77 95.66 279.47 95.44 280.36 94.87 280.94 94.22 280.94 93.82 280.36 93.17 279.47 92.6 278.77 92.37 
M 279.44 101.45 280.1 101.22 280.94 100.61 281.49 99.92 281.49 99.49 280.94 98.8 280.1 98.2 279.44 97.96 
M 280 107.38 280.63 107.14 281.43 106.52 281.95 105.82 281.95 105.38 281.43 104.68 280.63 104.06 280 103.82 
M 280.3 113.32 280.91 113.07 281.69 112.45 282.19 111.75 282.19 111.31 281.69 110.6 280.91 109.98 280.3 109.74 
M 280.41 119.34 281.01 119.1 281.77 118.46 282.26 117.74 282.26 117.3 281.77 116.58 281.01 115.95 280.41 115.7 
M 280.44 138.48 281 138.22 281.72 137.54 282.18 136.77 282.18 136.29 281.72 135.52 281 134.84 280.44 134.57 
M 281.14 93.33 281.72 93.12 282.47 92.58 282.89 92.05 
M 281.68 98.86 282.23 98.63 282.94 98.05 283.4 97.39 283.4 96.98 282.94 96.32 282.23 95.73 281.68 95.51 
M 282.56 110.49 283.07 110.25 283.71 109.64 284.13 108.95 284.13 108.52 283.71 107.82 283.07 107.21 282.56 106.97 
M 282.69 116.4 283.18 116.16 283.82 115.54 284.23 114.83 284.23 114.4 283.82 113.7 283.18 113.08 282.69 112.83 
M 282.68 122.44 283.16 122.2 283.78 121.56 284.18 120.84 284.18 120.4 283.78 119.68 283.16 119.04 282.68 118.79 
M 282.57 135.13 283.03 134.87 283.61 134.19 283.99 133.42 283.99 132.94 283.61 132.17 283.03 131.49 282.57 131.23 
M 282.96 204.13 283.43 203.86 284.03 203.16 284.42 202.37 284.42 201.87 284.03 201.08 283.43 200.38 282.96 200.11 
M 284.35 101.95 284.98 101.72 285.79 101.13 286.31 100.47 286.31 100.07 285.79 99.4 284.98 98.82 284.35 98.59 
M 284.7 107.68 285.31 107.45 286.09 106.85 286.59 106.17 286.59 105.75 286.09 105.07 285.31 104.46 284.7 104.23 
M 284.89 113.52 285.48 113.28 286.24 112.67 286.73 111.98 286.73 111.55 286.24 110.86 285.48 110.24 284.89 110.01 
M 284.92 119.47 285.5 119.22 286.25 118.6 286.73 117.89 286.73 117.46 286.25 116.75 285.5 116.13 284.92 115.88 
M 284.82 125.54 285.39 125.29 286.12 124.65 286.6 123.93 286.6 123.48 286.12 122.76 285.39 122.12 284.82 121.87 
M 284.7 131.83 285.26 131.57 285.97 130.9 286.43 130.15 286.43 129.69 285.97 128.94 285.26 128.27 284.7 128.01 
M 284.67 138.37 285.22 138.11 285.93 137.42 286.38 136.64 286.38 136.16 285.93 135.39 285.22 134.7 284.67 134.44 
M 284.57 158.78 285.18 158.49 285.95 157.75 286.45 156.91 286.45 156.4 285.95 155.56 285.18 154.82 284.57 154.53 
M 284.96 193.87 285.53 193.59 286.26 192.86 286.73 192.04 286.73 191.53 286.26 190.7 285.53 189.98 284.96 189.69 
M 285.09 200.76 285.66 200.48 286.39 199.77 286.86 198.96 286.86 198.46 286.39 197.66 285.66 196.95 285.09 196.67 
M 285.13 207.39 285.69 207.12 286.42 206.44 286.89 205.66 286.89 205.17 286.42 204.4 285.69 203.71 285.13 203.44 
M 286.02 210.58 285.09 209.98 
M 286.25 94.04 286.29 94.03 
M 286.59 99.35 287.12 99.13 287.79 98.57 288.22 97.94 288.22 97.55 287.79 96.91 287.12 96.35 286.59 96.14 
M 287.12 110.67 287.61 110.43 288.24 109.83 288.65 109.15 288.65 108.73 288.24 108.05 287.61 107.45 287.12 107.21 
M 287.11 122.49 287.59 122.25 288.21 121.63 288.6 120.92 288.6 120.48 288.21 119.77 287.59 119.15 287.11 118.91 
M 287.24 176.63 287.71 176.35 288.32 175.63 288.71 174.82 288.71 174.32 288.32 173.51 287.71 172.8 287.24 172.52 
M 287.01 183.37 287.48 183.09 288.09 182.37 288.49 181.56 288.49 181.06 288.09 180.25 287.48 179.53 287.01 179.25 
M 287.05 190.38 287.53 190.09 288.14 189.36 288.53 188.53 288.53 188.02 288.14 187.19 287.53 186.46 287.05 186.18 
M 287.24 197.39 287.71 197.1 288.32 196.38 288.71 195.56 288.71 195.06 288.32 194.24 287.71 193.52 287.24 193.23 
M 287.31 204.13 287.78 203.86 288.39 203.16 288.78 202.37 288.78 201.88 288.39 201.08 287.78 200.38 287.31 200.11 
M 288.21 209.89 288.77 208.95 288.77 208.47 288.37 207.71 287.77 207.03 287.29 206.77 
M 289.07 102.26 289.67 102.04 290.45 101.47 290.95 100.83 290.95 100.44 290.45 99.79 289.67 99.23 289.07 99.01 
M 289.28 107.87 289.87 107.64 290.62 107.05 291.11 106.38 291.11 105.97 290.62 105.3 289.87 104.72 289.28 104.49 
M 289.36 119.55 289.94 119.31 290.68 118.69 291.16 117.99 291.16 117.56 290.68 116.86 289.94 116.24 289.36 116 
M 289.13 158.99 289.72 158.7 290.48 157.96 290.97 157.13 290.97 156.61 290.48 155.77 289.72 155.04 289.13 154.75 
M 289.33 166.15 289.91 165.86 290.66 165.12 291.14 164.28 291.14 163.76 290.66 162.91 289.91 162.17 289.33 161.88 
M 289.44 173.19 290.01 172.91 290.74 172.18 291.21 171.36 291.21 170.85 290.74 170.02 290.01 169.29 289.44 169.01 
M 289.3 180 289.87 179.72 290.6 179.01 291.07 178.2 291.07 177.69 290.6 176.88 289.87 176.17 289.3 175.89 
M 289.22 186.89 289.79 186.61 290.52 185.88 290.99 185.06 290.99 184.55 290.52 183.74 289.79 183.01 289.22 182.73 
M 289.33 193.89 289.9 193.61 290.63 192.88 291.1 192.06 291.1 191.55 290.63 190.73 289.9 190 289.33 189.72 
M 289.45 200.76 290.02 200.48 290.75 199.77 291.22 198.97 291.22 198.47 290.75 197.67 290.02 196.96 289.45 196.68 
M 289.48 207.39 290.05 207.12 290.78 206.44 291.24 205.66 291.24 205.18 290.78 204.4 290.05 203.71 289.48 203.44 
M 291.28 99.65 292.42 98.89 292.83 98.27 292.7 97.68 
M 291.48 105.11 291.97 104.88 292.59 104.31 293 103.66 293 103.26 292.59 102.61 291.97 102.04 291.48 101.81 
M 291.59 110.77 292.07 110.54 292.69 109.94 293.09 109.27 293.09 108.85 292.69 108.18 292.07 107.58 291.59 107.35 
M 291.62 116.61 292.1 116.37 292.72 115.76 293.11 115.07 293.11 114.64 292.72 113.95 292.1 113.33 291.62 113.1 
M 291.53 122.55 292.01 122.31 292.63 121.69 293.02 120.99 293.02 120.55 292.63 119.85 292.01 119.23 291.53 118.99 
M 291.24 128.54 291.72 128.29 292.33 127.66 292.73 126.94 292.73 126.5 292.33 125.78 291.72 125.14 291.24 124.9 
M 291 134.84 291.47 134.57 292.08 133.9 292.47 133.14 292.47 132.67 292.08 131.91 291.47 131.24 291 130.97 
M 291.08 141.62 291.55 141.34 292.16 140.64 292.55 139.83 292.55 139.34 292.16 138.54 291.55 137.83 291.08 137.56 
M 291.2 148.52 291.68 148.24 292.3 147.52 292.69 146.7 292.69 146.19 292.3 145.38 291.68 144.65 291.2 144.37 
M 291.32 155.52 291.81 155.24 292.43 154.5 292.84 153.68 292.84 153.16 292.43 152.33 291.81 151.6 291.32 151.32 
M 291.45 162.6 291.93 162.31 292.55 161.57 292.95 160.73 292.95 160.21 292.55 159.37 291.93 158.62 291.45 158.33 
M 291.66 169.76 292.13 169.48 292.74 168.74 293.13 167.91 293.13 167.39 292.74 166.56 292.13 165.82 291.66 165.53 
M 291.58 176.61 292.05 176.34 292.66 175.62 293.05 174.81 293.05 174.31 292.66 173.5 292.05 172.79 291.58 172.51 
M 291.38 183.4 291.86 183.12 292.47 182.4 292.86 181.59 292.86 181.08 292.47 180.27 291.86 179.55 291.38 179.27 
M 291.44 190.41 291.91 190.13 292.52 189.4 292.92 188.57 292.92 188.06 292.52 187.23 291.91 186.5 291.44 186.21 
M 291.6 197.4 292.07 197.11 292.68 196.39 293.07 195.58 293.07 195.07 292.68 194.25 292.07 193.53 291.6 193.25 
M 291.66 204.13 292.14 203.86 292.74 203.16 293.13 202.37 293.13 201.88 292.74 201.09 292.14 200.39 291.66 200.12 
M 292.98 208.19 292.13 207.04 291.65 206.78 
M 293.62 102.44 294.21 102.22 294.96 101.66 295.45 101.03 295.45 100.64 294.96 100.01 294.21 99.46 293.62 99.24 
M 293.75 107.97 294.33 107.74 295.07 107.16 295.55 106.5 295.55 106.1 295.07 105.44 294.33 104.86 293.75 104.63 
M 293.81 113.71 294.38 113.48 295.12 112.87 295.59 112.19 295.59 111.77 295.12 111.09 294.38 110.48 293.81 110.25 
M 293.78 119.61 294.35 119.37 295.09 118.75 295.56 118.05 295.56 117.62 295.09 116.92 294.35 116.31 293.78 116.07 
M 293.6 125.59 294.18 125.35 294.92 124.72 295.39 124.01 295.39 123.57 294.92 122.85 294.18 122.23 293.6 121.98 
M 293.35 131.74 293.92 131.48 294.66 130.83 295.14 130.09 295.14 129.63 294.66 128.89 293.92 128.24 293.35 127.99 
M 293.26 138.27 293.84 138.01 294.57 137.32 295.05 136.54 295.05 136.05 294.57 135.27 293.84 134.58 293.26 134.31 
M 293.36 145.12 293.94 144.84 294.68 144.12 295.16 143.31 295.16 142.81 294.68 142 293.94 141.29 293.36 141.01 
M 293.48 152.07 294.06 151.78 294.81 151.06 295.29 150.23 295.29 149.72 294.81 148.9 294.06 148.17 293.48 147.89 
M 293.6 159.1 294.18 158.81 294.93 158.07 295.41 157.24 295.41 156.72 294.93 155.89 294.18 155.15 293.6 154.87 
M 293.75 166.2 294.32 165.91 295.06 165.17 295.53 164.34 295.53 163.82 295.06 162.98 294.32 162.25 293.75 161.96 
M 293.79 173.19 294.36 172.9 295.09 172.18 295.56 171.36 295.56 170.85 295.09 170.03 294.36 169.31 293.79 169.02 
M 293.66 180.01 294.23 179.73 294.96 179.01 295.43 178.2 295.43 177.7 294.96 176.89 294.23 176.17 293.66 175.89 
M 293.59 186.91 294.17 186.63 294.9 185.91 295.37 185.09 295.37 184.58 294.9 183.76 294.17 183.03 293.59 182.75 
M 293.7 193.91 294.28 193.63 295.01 192.9 295.48 192.08 295.48 191.57 295.01 190.75 294.28 190.03 293.7 189.74 
M 293.81 200.77 294.38 200.49 295.11 199.78 295.58 198.98 295.58 198.48 295.11 197.68 294.38 196.97 293.81 196.69 
M 293.84 207.4 294.41 207.13 295.14 206.44 295.6 205.67 295.6 205.19 295.14 204.41 294.41 203.72 293.84 203.45 
M 295.8 99.8 296.18 99.64 
M 295.93 105.2 296.41 104.97 297.03 104.41 297.43 103.76 297.43 103.37 297.03 102.72 296.41 102.16 295.93 101.94 
M 296 110.81 296.48 110.58 297.09 109.99 297.48 109.32 297.48 108.91 297.09 108.24 296.48 107.65 296 107.42 
M 296.01 116.65 296.49 116.41 297.1 115.8 297.49 115.1 297.49 114.68 297.1 113.98 296.49 113.37 296.01 113.13 
M 295.95 122.63 296.43 122.38 297.04 121.76 297.44 121.06 297.44 120.62 297.04 119.91 296.43 119.29 295.95 119.05 
M 295.69 128.65 296.18 128.4 296.8 127.76 297.19 127.04 297.19 126.6 296.8 125.88 296.18 125.24 295.69 124.99 
M 295.45 134.94 295.93 134.67 296.56 134 296.96 133.24 296.96 132.77 296.56 132.01 295.93 131.34 295.45 131.08 
M 295.52 141.71 296 141.43 296.62 140.72 297.03 139.92 297.03 139.43 296.62 138.63 296 137.92 295.52 137.65 
M 295.64 148.62 296.13 148.33 296.75 147.61 297.15 146.79 297.15 146.29 296.75 145.47 296.13 144.75 295.64 144.47 
M 295.76 155.61 296.25 155.32 296.87 154.59 297.27 153.76 297.27 153.25 296.87 152.42 296.25 151.69 295.76 151.41 
M 295.86 162.66 296.35 162.37 296.96 161.63 297.36 160.79 297.36 160.27 296.96 159.44 296.35 158.7 295.86 158.41 
M 296.02 169.76 296.49 169.48 297.1 168.74 297.49 167.91 297.49 167.4 297.1 166.57 296.49 165.84 296.02 165.56 
M 295.92 176.61 296.4 176.33 297.01 175.61 297.4 174.8 297.4 174.3 297.01 173.49 296.4 172.78 295.92 172.5 
M 295.75 183.41 296.23 183.13 296.84 182.41 297.24 181.6 297.24 181.09 296.84 180.28 296.23 179.56 295.75 179.28 
M 295.81 190.44 296.29 190.15 296.9 189.42 297.3 188.59 297.3 188.08 296.9 187.25 296.29 186.52 295.81 186.24 
M 295.97 197.41 296.44 197.13 297.05 196.41 297.45 195.59 297.45 195.09 297.05 194.27 296.44 193.55 295.97 193.27 
M 296.02 204.14 296.49 203.87 297.1 203.17 297.49 202.38 297.49 201.89 297.1 201.1 296.49 200.4 296.02 200.12 
M 296.31 206.95 296.02 206.79 
M 298.08 102.53 298.65 102.31 299.59 101.5 
M 298.16 108.02 298.73 107.79 299.46 107.21 299.94 106.56 299.94 106.15 299.46 105.5 298.73 104.92 298.16 104.7 
M 298.19 113.74 298.76 113.5 299.49 112.9 299.96 112.22 299.96 111.8 299.49 111.12 298.76 110.52 298.19 110.28 
M 298.17 119.65 298.74 119.41 299.47 118.79 299.94 118.09 299.94 117.66 299.47 116.96 298.74 116.34 298.17 116.1 
M 298.03 125.67 298.6 125.42 299.34 124.79 299.81 124.08 299.81 123.64 299.34 122.92 298.6 122.29 298.03 122.04 
M 297.8 131.85 298.38 131.59 299.12 130.94 299.6 130.19 299.6 129.73 299.12 128.99 298.38 128.34 297.8 128.08 
M 297.72 138.39 298.3 138.12 299.05 137.43 299.53 136.65 299.53 136.16 299.05 135.38 298.3 134.69 297.72 134.42 
M 297.83 145.23 298.41 144.95 299.16 144.24 299.64 143.43 299.64 142.93 299.16 142.12 298.41 141.4 297.83 141.12 
M 297.95 152.18 298.54 151.9 299.29 151.17 299.77 150.35 299.77 149.84 299.29 149.02 298.54 148.3 297.95 148.01 
M 298.05 159.19 298.63 158.9 299.38 158.17 299.86 157.34 299.86 156.83 299.38 156 298.63 155.26 298.05 154.98 
M 298.14 166.23 298.72 165.94 299.45 165.21 299.92 164.38 299.92 163.87 299.45 163.04 298.72 162.3 298.14 162.02 
M 298.15 173.19 298.72 172.91 299.45 172.19 299.92 171.37 299.92 170.86 299.45 170.04 298.72 169.32 298.15 169.04 
M 298.04 180.05 298.62 179.77 299.36 179.05 299.83 178.24 299.83 177.73 299.36 176.92 298.62 176.2 298.04 175.92 
M 298 186.97 298.58 186.69 299.32 185.96 299.8 185.14 299.8 184.64 299.32 183.81 298.58 183.09 298 182.81 
M 298.09 193.95 298.67 193.66 299.4 192.94 299.88 192.12 299.88 191.61 299.4 190.79 298.67 190.07 298.09 189.79 
M 298.18 200.78 298.75 200.5 299.48 199.79 299.95 198.99 299.95 198.5 299.48 197.69 298.75 196.99 298.18 196.71 
M 299.93 205.13 299.49 204.41 298.76 203.73 298.2 203.46 
M 300.33 105.23 300.81 105.01 301.42 104.45 301.81 103.81 301.81 103.42 301.42 102.78 300.81 102.21 300.33 101.99 
M 300.37 110.83 300.84 110.6 301.45 110.01 301.84 109.34 301.84 108.93 301.45 108.26 300.84 107.67 300.37 107.44 
M 300.37 116.66 300.85 116.42 301.45 115.81 301.84 115.11 301.84 114.68 301.45 113.99 300.85 113.38 300.37 113.14 
M 300.33 122.67 300.81 122.43 301.42 121.8 301.81 121.09 301.81 120.65 301.42 119.94 300.81 119.31 300.33 119.07 
M 300.13 128.74 300.61 128.49 301.22 127.85 301.62 127.12 301.62 126.68 301.22 125.95 300.61 125.31 300.13 125.06 
M 299.92 135.06 300.4 134.8 301.03 134.13 301.43 133.36 301.43 132.89 301.03 132.13 300.4 131.45 299.92 131.19 
M 300 141.84 300.49 141.57 301.11 140.86 301.51 140.06 301.51 139.56 301.11 138.76 300.49 138.05 300 137.77 
M 300.14 148.77 300.63 148.49 301.26 147.76 301.66 146.94 301.66 146.44 301.26 145.62 300.63 144.9 300.14 144.61 
M 300.26 155.74 300.75 155.46 301.37 154.73 301.77 153.91 301.77 153.4 301.37 152.57 300.75 151.84 300.26 151.56 
M 300.32 162.74 300.8 162.45 301.42 161.72 301.81 160.89 301.81 160.38 301.42 159.55 300.8 158.82 300.32 158.53 
M 300.37 169.76 300.85 169.47 301.45 168.74 301.84 167.92 301.84 167.41 301.45 166.59 300.85 165.86 300.37 165.57 
M 300.3 176.65 300.78 176.37 301.39 175.65 301.79 174.83 301.79 174.33 301.39 173.51 300.78 172.79 300.3 172.51 
M 300.2 183.53 300.69 183.25 301.31 182.52 301.71 181.71 301.71 181.2 301.31 180.38 300.69 179.66 300.2 179.38 
M 300.25 190.51 300.73 190.23 301.35 189.5 301.75 188.68 301.75 188.17 301.35 187.35 300.73 186.62 300.25 186.34 
M 300.35 197.43 300.82 197.15 301.43 196.43 301.83 195.62 301.83 195.12 301.43 194.31 300.82 193.59 300.35 193.31 
M 300.37 204.14 300.85 203.87 301.45 203.17 301.84 202.38 301.84 201.89 301.45 201.1 300.85 200.4 300.37 200.13 
M 302.53 108.03 303.1 107.81 303.83 107.23 304.3 106.58 304.3 106.18 303.83 105.52 303.1 104.95 302.53 104.72 
M 302.55 113.74 303.12 113.51 303.84 112.91 304.31 112.23 304.31 111.81 303.84 111.13 303.12 110.53 302.55 110.29 
M 302.53 119.67 303.1 119.43 303.83 118.81 304.3 118.1 304.3 117.67 303.83 116.97 303.1 116.35 302.53 116.11 
M 302.42 125.72 302.99 125.47 303.72 124.84 304.19 124.12 304.19 123.67 303.72 122.96 302.99 122.32 302.42 122.07 
M 302.23 131.94 302.81 131.68 303.54 131.02 304.02 130.28 304.02 129.81 303.54 129.07 302.81 128.41 302.23 128.15 
M 302.19 138.51 302.77 138.24 303.51 137.55 303.99 136.76 303.99 136.28 303.51 135.49 302.77 134.8 302.19 134.53 
M 302.31 145.37 302.9 145.09 303.64 144.38 304.13 143.57 304.13 143.06 303.64 142.25 302.9 141.54 302.31 141.26 
M 302.44 152.32 303.02 152.03 303.77 151.31 304.25 150.49 304.25 149.98 303.77 149.16 303.02 148.44 302.44 148.15 
M 302.5 159.28 303.08 158.99 303.82 158.26 304.29 157.44 304.29 156.93 303.82 156.11 303.08 155.38 302.5 155.1 
M 302.53 166.26 303.1 165.97 303.83 165.24 304.3 164.42 304.3 163.91 303.83 163.08 303.1 162.36 302.53 162.07 
M 302.52 173.22 303.09 172.93 303.82 172.21 304.29 171.39 304.29 170.88 303.82 170.06 303.09 169.33 302.52 169.05 
M 302.47 180.14 303.05 179.86 303.79 179.13 304.26 178.31 304.26 177.81 303.79 176.99 303.05 176.26 302.47 175.98 
M 302.46 187.07 303.04 186.79 303.78 186.07 304.26 185.25 304.26 184.74 303.78 183.92 303.04 183.2 302.46 182.91 
M 302.5 193.99 303.08 193.71 303.81 192.99 304.29 192.18 304.29 191.67 303.81 190.86 303.08 190.14 302.5 189.86 
M 302.54 200.78 303.11 200.51 303.84 199.8 304.31 199 304.31 198.51 303.84 197.71 303.11 197.01 302.54 196.73 
M 302.92 203.63 302.55 203.46 
M 304.7 105.24 305.38 104.83 
M 304.72 110.83 305.2 110.6 305.8 110.01 306.19 109.34 306.19 108.93 305.8 108.26 305.2 107.68 304.72 107.45 
M 304.73 116.66 305.2 116.42 305.8 115.81 306.19 115.12 306.19 114.69 305.8 113.99 305.2 113.38 304.73 113.14 
M 304.69 122.68 305.16 122.44 305.77 121.81 306.16 121.1 306.16 120.66 305.77 119.95 305.16 119.32 304.69 119.07 
M 304.51 128.79 304.99 128.54 305.6 127.89 305.99 127.16 305.99 126.71 305.6 125.98 304.99 125.34 304.51 125.09 
M 304.36 135.16 304.84 134.9 305.45 134.22 305.85 133.45 305.85 132.97 305.45 132.21 304.84 131.53 304.36 131.26 
M 304.47 141.97 304.95 141.69 305.57 140.98 305.97 140.18 305.97 139.68 305.57 138.87 304.95 138.16 304.47 137.88 
M 304.64 148.91 305.12 148.63 305.75 147.91 306.15 147.09 306.15 146.58 305.75 145.76 305.12 145.04 304.64 144.76 
M 304.72 155.84 305.2 155.56 305.81 154.83 306.2 154.01 306.2 153.51 305.81 152.69 305.2 151.96 304.72 151.68 
M 304.73 162.78 305.2 162.49 305.8 161.77 306.19 160.95 306.19 160.44 305.8 159.62 305.2 158.89 304.73 158.61 
M 304.72 169.75 305.19 169.46 305.79 168.74 306.18 167.91 306.18 167.4 305.79 166.58 305.19 165.85 304.72 165.57 
M 304.7 176.71 305.18 176.43 305.79 175.7 306.18 174.88 306.18 174.37 305.79 173.55 305.18 172.82 304.7 172.54 
M 304.68 183.67 305.17 183.38 305.78 182.66 306.18 181.84 306.18 181.33 305.78 180.51 305.17 179.78 304.68 179.5 
M 304.7 190.59 305.18 190.31 305.79 189.59 306.19 188.77 306.19 188.27 305.79 187.45 305.18 186.73 304.7 186.45 
M 304.72 197.43 305.2 197.16 305.8 196.45 306.2 195.64 306.2 195.14 305.8 194.34 305.2 193.63 304.72 193.35 
M 306.19 201.98 305.8 201.1 305.2 200.4 304.72 200.13 
M 306.88 108.03 307.45 107.81 308.49 106.79 
M 306.9 113.74 307.46 113.51 308.19 112.91 308.66 112.23 308.66 111.81 308.19 111.13 307.46 110.52 306.9 110.29 
M 306.88 119.67 307.44 119.43 308.17 118.8 308.64 118.1 308.64 117.67 308.17 116.96 307.44 116.34 306.88 116.1 
M 306.77 125.73 307.34 125.48 308.06 124.85 308.53 124.13 308.53 123.68 308.06 122.96 307.34 122.32 306.77 122.07 
M 306.62 131.99 307.19 131.73 307.92 131.07 308.39 130.32 308.39 129.85 307.92 129.1 307.19 128.44 306.62 128.18 
M 306.62 138.6 307.2 138.33 307.93 137.63 308.41 136.84 308.41 136.36 307.93 135.57 307.2 134.87 306.62 134.6 
M 306.77 145.48 307.35 145.2 308.09 144.48 308.57 143.67 308.57 143.17 308.09 142.36 307.35 141.64 306.77 141.36 
M 306.87 152.38 307.44 152.1 308.17 151.38 308.64 150.56 308.64 150.06 308.17 149.24 307.44 148.52 306.87 148.24 
M 306.87 159.28 307.43 158.99 308.15 158.27 308.62 157.45 308.62 156.95 308.15 156.13 307.43 155.41 306.87 155.13 
M 306.87 166.24 307.43 165.95 308.15 165.23 308.61 164.4 308.61 163.89 308.15 163.07 307.43 162.34 306.87 162.06 
M 306.88 173.24 307.45 172.95 308.18 172.22 308.64 171.4 308.64 170.88 308.18 170.06 307.45 169.33 306.88 169.04 
M 306.88 180.21 307.45 179.93 308.19 179.2 308.66 178.38 308.66 177.87 308.19 177.04 307.45 176.31 306.88 176.03 
M 306.88 187.14 307.45 186.86 308.19 186.14 308.66 185.32 308.66 184.81 308.19 184 307.45 183.27 306.88 182.99 
M 306.89 194.02 307.46 193.74 308.19 193.02 308.66 192.21 308.66 191.71 308.19 190.9 307.46 190.19 306.89 189.91 
M 306.89 200.78 307.46 200.5 308.19 199.8 308.66 199.01 308.66 198.51 308.19 197.72 307.46 197.01 306.89 196.74 
M 309.07 110.82 309.54 110.59 310.14 110 310.53 109.34 310.53 108.92 310.14 108.26 309.54 107.67 309.07 107.44 
M 309.07 116.66 309.54 116.42 310.15 115.8 310.54 115.11 310.54 114.68 310.15 113.99 309.54 113.37 309.07 113.14 
M 309.03 122.67 309.5 122.42 310.1 121.8 310.49 121.08 310.49 120.64 310.1 119.93 309.5 119.3 309.03 119.06 
M 308.86 128.79 309.33 128.54 309.93 127.89 310.32 127.16 310.32 126.71 309.93 125.97 309.33 125.33 308.86 125.07 
M 308.75 135.22 309.22 134.95 309.83 134.27 310.22 133.49 310.22 133.01 309.83 132.24 309.22 131.56 308.75 131.29 
M 308.91 142.06 309.39 141.78 310 141.07 310.4 140.26 310.4 139.76 310 138.95 309.39 138.24 308.91 137.96 
M 309.07 148.97 309.54 148.69 310.16 147.97 310.55 147.16 310.55 146.66 310.16 145.85 309.54 145.13 309.07 144.85 
M 309.04 155.79 309.51 155.51 310.1 154.8 310.49 153.99 310.49 153.48 310.1 152.67 309.51 151.96 309.04 151.68 
M 309 162.7 309.46 162.41 310.05 161.69 310.43 160.87 310.43 160.36 310.05 159.54 309.46 158.81 309 158.53 
M 309.04 169.73 309.51 169.45 310.11 168.71 310.5 167.88 310.5 167.37 310.11 166.54 309.51 165.81 309.04 165.52 
M 309.07 176.75 309.55 176.46 310.16 175.73 310.55 174.91 310.55 174.39 310.16 173.57 309.55 172.84 309.07 172.55 
M 309.08 183.71 309.55 183.42 310.15 182.7 310.54 181.88 310.54 181.37 310.15 180.55 309.55 179.82 309.08 179.54 
M 309.07 190.61 309.55 190.33 310.15 189.61 310.54 188.8 310.54 188.3 310.15 187.48 309.55 186.76 309.07 186.48 
M 309.07 197.43 309.54 197.15 310.15 196.44 310.54 195.64 310.54 195.14 310.15 194.34 309.54 193.63 309.07 193.36 
M 309.45 200.35 309.06 200.12 
M 311.23 113.72 311.79 113.49 312.51 112.89 312.98 112.21 312.98 111.79 312.51 111.11 311.79 110.51 311.23 110.27 
M 311.21 119.64 311.77 119.4 312.49 118.78 312.95 118.08 312.95 117.64 312.49 116.94 311.77 116.32 311.21 116.08 
M 311.09 125.7 311.65 125.46 312.37 124.82 312.83 124.1 312.83 123.65 312.37 122.93 311.65 122.29 311.09 122.04 
M 310.96 131.99 311.53 131.73 312.25 131.07 312.71 130.31 312.71 129.84 312.25 129.09 311.53 128.42 310.96 128.16 
M 311.01 138.65 311.58 138.38 312.31 137.68 312.78 136.89 312.78 136.4 312.31 135.6 311.58 134.9 311.01 134.63 
M 311.17 145.52 311.75 145.24 312.48 144.53 312.95 143.72 312.95 143.22 312.48 142.42 311.75 141.7 311.17 141.43 
M 311.2 152.34 311.76 152.06 312.49 151.35 312.95 150.54 312.95 150.04 312.49 149.24 311.76 148.53 311.2 148.25 
M 311.12 159.17 311.68 158.89 312.39 158.17 312.84 157.35 312.84 156.85 312.39 156.04 311.68 155.32 311.12 155.04 
M 311.14 166.17 311.7 165.89 312.41 165.15 312.87 164.32 312.87 163.81 312.41 162.98 311.7 162.25 311.14 161.96 
M 311.22 173.24 311.79 172.95 312.51 172.22 312.98 171.38 312.98 170.87 312.51 170.04 311.79 169.31 311.22 169.02 
M 311.24 180.22 311.81 179.93 312.53 179.2 313 178.38 313 177.87 312.53 177.05 311.81 176.32 311.24 176.03 
M 311.23 187.13 311.79 186.85 312.51 186.13 312.98 185.31 312.98 184.81 312.51 183.99 311.79 183.27 311.23 182.99 
M 311.23 194 311.79 193.72 312.51 193.01 312.98 192.2 312.98 191.7 312.51 190.89 311.79 190.18 311.23 189.9 
M 312.97 198.48 312.51 197.7 311.79 197 311.23 196.72 
M 313.39 110.79 313.88 110.54 
M 313.4 116.63 313.86 116.39 314.46 115.78 314.85 115.08 314.85 114.65 314.46 113.96 313.86 113.35 313.4 113.11 
M 313.33 122.61 313.79 122.37 314.39 121.74 314.77 121.03 314.77 120.59 314.39 119.88 313.79 119.26 313.33 119.01 
M 313.16 128.74 313.62 128.49 314.21 127.84 314.6 127.1 314.6 126.65 314.21 125.91 313.62 125.27 313.16 125.01 
M 313.09 135.22 313.56 134.95 314.16 134.27 314.55 133.49 314.55 133 314.16 132.22 313.56 131.54 313.09 131.27 
M 313.3 142.11 313.78 141.83 314.38 141.11 314.78 140.3 314.78 139.8 314.38 139 313.78 138.28 313.3 138 
M 313.43 148.95 313.9 148.68 314.5 147.97 314.9 147.17 314.9 146.67 314.5 145.87 313.9 145.16 313.43 144.89 
M 313.27 155.64 313.73 155.37 314.32 154.66 314.7 153.86 314.7 153.36 314.32 152.56 313.73 151.86 313.27 151.58 
M 313.18 162.54 313.64 162.26 314.23 161.53 314.61 160.7 314.61 160.19 314.23 159.37 313.64 158.64 313.18 158.35 
M 313.35 169.71 313.81 169.42 314.41 168.68 314.8 167.84 314.8 167.32 314.41 166.48 313.81 165.74 313.35 165.45 
M 313.43 176.75 313.9 176.46 314.5 175.73 314.89 174.91 314.89 174.39 314.5 173.57 313.9 172.84 313.43 172.55 
M 313.38 183.65 313.85 183.37 314.45 182.65 314.83 181.83 314.83 181.32 314.45 180.5 313.85 179.78 313.38 179.5 
M 313.38 190.57 313.84 190.29 314.44 189.57 314.83 188.75 314.83 188.25 314.44 187.43 313.84 186.71 313.38 186.43 
M 313.39 197.4 313.86 197.12 314.46 196.41 314.85 195.61 314.85 195.11 314.46 194.31 313.86 193.6 313.39 193.32 
M 315.52 113.67 316.08 113.43 316.86 112.72 
M 315.49 119.57 316.04 119.33 316.75 118.71 317.21 118.01 317.21 117.58 316.75 116.88 316.04 116.26 315.49 116.02 
M 315.36 125.62 315.91 125.37 316.62 124.73 317.08 124.01 317.08 123.56 316.62 122.84 315.91 122.2 315.36 121.95 
M 315.25 131.94 315.81 131.68 316.53 131.01 316.99 130.25 316.99 129.78 316.53 129.02 315.81 128.35 315.25 128.09 
M 315.36 138.66 315.92 138.38 316.65 137.68 317.12 136.88 317.12 136.39 316.65 135.59 315.92 134.89 315.36 134.61 
M 315.54 145.53 316.11 145.25 316.83 144.54 317.3 143.73 317.3 143.24 316.83 142.43 316.11 141.72 315.54 141.44 
M 315.5 152.26 316.06 151.99 316.77 151.28 317.24 150.49 317.24 149.99 316.77 149.19 316.06 148.49 315.5 148.21 
M 315.35 159.04 315.9 158.76 316.61 158.04 317.06 157.23 317.06 156.72 316.61 155.91 315.9 155.19 315.35 154.91 
M 315.4 166.1 315.96 165.81 316.67 165.07 317.13 164.24 317.13 163.72 316.67 162.88 315.96 162.14 315.4 161.86 
M 317.66 116.54 318.12 116.3 318.7 115.69 319.08 115 319.08 114.57 318.88 114.21 
M 317.57 122.5 318.02 122.25 318.61 121.63 318.98 120.92 318.98 120.48 318.61 119.77 318.02 119.15 317.57 118.91 
M 317.38 128.63 317.85 128.37 318.44 127.72 318.82 126.98 318.82 126.53 318.44 125.79 317.85 125.14 317.38 124.88 
M 317.38 135.18 317.85 134.91 318.45 134.21 318.84 133.42 318.84 132.94 318.45 132.15 317.85 131.46 317.38 131.18 
M 317.66 169.69 318.13 169.4 318.72 168.65 319.11 167.81 319.11 167.28 318.72 166.44 318.13 165.69 317.66 165.4 
M 317.69 183.6 318.16 183.32 318.77 182.6 319.16 181.79 319.16 181.28 318.77 180.47 318.16 179.75 317.69 179.47 
M 319.67 119.4 320.2 119.16 320.89 118.54 321.33 117.84 321.33 117.4 320.89 116.7 320.2 116.08 319.67 115.84 
M 319.54 131.9 320.1 131.63 320.82 130.95 321.29 130.19 321.29 129.71 320.82 128.94 320.1 128.26 319.54 128 
M 321.76 135.23 322.24 134.96 322.86 134.25 323.26 133.46 323.26 132.96 322.86 132.17 322.24 131.46 321.76 131.19 
M 322.06 142.16 322.53 141.88 323.15 141.17 323.54 140.36 323.54 139.86 323.15 139.05 322.53 138.34 322.06 138.06 
M 321.64 162.31 322.1 162.03 322.68 161.29 323.05 160.46 323.05 159.95 322.68 159.11 322.1 158.38 321.64 158.09 
M 323.65 119.07 324.58 118.42 
M 323.9 131.95 324.48 131.68 325.21 130.99 325.69 130.21 325.69 129.72 325.21 128.94 324.48 128.24 323.9 127.97 
M 324.14 138.75 324.72 138.47 325.46 137.76 325.94 136.97 325.94 136.47 325.46 135.67 324.72 134.96 324.14 134.69 
M 324.28 180.22 324.84 179.93 325.57 179.2 326.03 178.37 326.03 177.85 325.57 177.02 324.84 176.29 324.28 176.01 
M 325.66 122 326.09 121.74 326.64 121.08 326.99 120.14 
M 326.27 135.41 326.76 135.13 327.39 134.43 327.8 133.62 327.8 133.13 327.39 132.32 326.76 131.62 326.27 131.34 
M 326.47 142.19 326.95 141.91 327.56 141.21 327.95 140.42 327.95 139.93 327.56 139.14 326.95 138.44 326.47 138.17 
M 325.91 155.19 326.36 154.92 326.94 154.23 327.31 153.44 327.31 152.96 326.94 152.18 326.36 151.49 325.91 151.22 
M 325.78 162.11 326.23 161.82 326.8 161.08 327.17 160.25 327.17 159.73 326.8 158.9 326.23 158.16 325.78 157.88 
M 328.34 132.08 328.91 131.81 329.65 131.1 330.13 130.29 330.13 129.8 329.65 128.99 328.91 128.28 328.34 128.01 
M 328.34 173.03 328.88 172.73 329.58 171.97 330.03 171.11 330.03 170.58 329.58 169.71 328.88 168.95 328.34 168.66 
M 330.34 128.75 330.82 128.47 331.43 127.74 331.83 126.91 331.83 126.4 331.43 125.57 330.82 124.85 330.34 124.56 
M 330.77 135.55 331.26 135.28 331.88 134.57 332.28 133.77 332.28 133.28 331.88 132.48 331.26 131.77 330.77 131.5 
M 332.73 145.2 333.28 144.94 333.99 144.27 334.44 143.51 334.44 143.04 333.99 142.28 333.28 141.61 332.73 141.35 
M 332.3 151.58 332.84 151.32 333.54 150.64 333.98 149.88 333.98 149.4 333.54 148.63 332.84 147.96 332.3 147.69 
M 332.09 165.42 332.63 165.13 333.32 164.37 333.76 163.52 333.76 162.99 333.32 162.14 332.63 161.39 332.09 161.09 
M 335.18 135.58 335.66 135.31 336.27 134.61 336.66 133.82 336.66 133.33 336.27 132.54 335.66 131.85 335.18 131.58 
M 334.6 148.25 335.06 147.99 335.64 147.32 336.02 146.57 336.02 146.11 335.64 145.36 335.06 144.7 334.6 144.44 
M 334.3 169 334.75 168.69 335.33 167.92 335.71 167.05 335.71 166.51 335.33 165.64 334.75 164.87 334.3 164.57 
M 339.12 128.95 339.43 128.76 
M 339.32 141.87 339.79 141.61 340.4 140.95 340.78 140.2 340.78 139.74 340.4 138.99 339.79 138.33 339.32 138.07 
M 338.35 154.56 338.83 154.29 339.43 153.61 339.82 152.83 339.82 152.35 339.43 151.57 338.83 150.88 338.35 150.61 
M 341.27 145.02 341.84 144.76 342.57 144.1 343.04 143.35 343.04 142.88 342.57 142.13 341.84 141.47 341.27 141.21 
M 340.8 151.38 341.38 151.12 342.12 150.44 342.59 149.68 342.59 149.2 342.12 148.44 341.38 147.76 340.8 147.5 
M 343.69 141.89 344.16 141.63 344.77 140.97 345.17 140.22 345.17 139.75 344.77 139 344.16 138.34 343.69 138.08 
M 342.93 168.91 343.41 168.61 344.03 167.84 344.44 166.98 344.44 166.44 344.03 165.57 343.41 164.81 342.93 164.51 
M 343.34 176.31 343.82 176.01 344.42 175.25 344.82 174.38 344.82 173.84 344.42 172.97 343.82 172.21 343.34 171.91 
M 345.97 138.75 346.54 138.48 347.27 137.8 347.74 137.03 347.74 136.56 347.27 135.79 346.54 135.11 345.97 134.84 
M 345.68 145.1 346.26 144.84 347 144.17 347.48 143.41 347.48 142.94 347 142.18 346.26 141.52 345.68 141.26 
M 345.29 151.53 345.88 151.27 346.64 150.59 347.13 149.82 347.13 149.34 346.64 148.57 345.88 147.88 345.29 147.62 
M 345.04 158.26 345.64 157.98 346.41 157.27 346.91 156.46 346.91 155.96 346.41 155.16 345.64 154.45 345.04 154.17 
M 345.09 165.34 345.68 165.05 346.44 164.31 346.93 163.47 346.93 162.94 346.44 162.1 345.68 161.36 345.09 161.07 
M 345.36 172.64 345.94 172.34 346.68 171.58 347.15 170.72 347.15 170.19 346.68 169.33 345.94 168.57 345.36 168.27 
M 346.33 175.97 345.66 175.57 
M 348.24 135.56 348.78 135.21 
M 348.08 141.96 348.56 141.69 349.17 141.02 349.57 140.26 349.57 139.79 349.17 139.04 348.56 138.36 348.08 138.1 
M 347.73 148.36 348.22 148.09 348.85 147.42 349.26 146.65 349.26 146.18 348.85 145.42 348.22 144.74 347.73 144.48 
M 347.41 154.95 347.92 154.68 348.57 153.98 348.98 153.19 348.98 152.7 348.57 151.91 347.92 151.21 347.41 150.94 
M 347.31 161.86 347.82 161.57 348.47 160.85 348.89 160.02 348.89 159.51 348.47 158.69 347.82 157.96 347.31 157.68 
M 347.45 169.03 347.94 168.74 348.57 167.99 348.98 167.14 348.98 166.61 348.57 165.76 347.94 165.01 347.45 164.72 
M 349.16 173.81 348.8 173.01 348.19 172.25 347.71 171.96 
M 350.35 138.78 350.92 138.51 351.94 137.35 
M 350.13 145.22 350.71 144.96 351.46 144.28 351.94 143.51 351.94 143.04 351.46 142.27 350.71 141.59 350.13 141.33 
M 349.86 151.78 350.46 151.51 351.22 150.82 351.71 150.04 351.71 149.55 351.22 148.77 350.46 148.08 349.86 147.81 
M 349.7 158.56 350.3 158.28 351.08 157.57 351.58 156.76 351.58 156.26 351.08 155.46 350.3 154.74 349.7 154.46 
M 349.69 165.56 350.28 165.27 351.05 164.54 351.55 163.71 351.55 163.2 351.05 162.37 350.28 161.63 349.69 161.35 
M 349.81 172.69 350.38 172.4 351.13 171.66 351.6 170.81 351.6 170.29 351.13 169.45 350.38 168.7 349.81 168.41 
M 352.48 142.03 352.96 141.76 353.57 141.08 353.96 140.31 353.96 139.84 353.57 139.07 352.96 138.39 352.48 138.12 
M 352.24 148.56 352.73 148.29 353.36 147.6 353.76 146.82 353.76 146.34 353.36 145.56 352.73 144.87 352.24 144.6 
M 352.06 155.27 352.57 155 353.21 154.29 353.62 153.49 353.62 153 353.21 152.2 352.57 151.49 352.06 151.22 
M 351.99 162.17 352.5 161.89 353.14 161.17 353.56 160.35 353.56 159.85 353.14 159.03 352.5 158.31 351.99 158.03 
M 351.99 169.17 352.48 168.89 353.11 168.16 353.51 167.33 353.51 166.81 353.11 165.98 352.48 165.25 351.99 164.96 
M 354.23 168.53 354.23 168.52 
M 222.82 88.16 224.47 88.1 
M 236.05 84.18 241.18 39.26 242.09 39.34 239.37 84.03 
M 249.84 83.16 265.26 30 266.15 30.23 253.14 83.56 
M 263.72 83.47 291 34.97 291.81 35.4 266.84 84.6 
M 276.69 88.31 315.33 47.13 316.01 47.74 279.43 90.19 
M 288.78 94.93 326.01 60.68 326.64 61.34 291.42 96.96 
M 300.88 101.54 325.87 81.37 326.47 82.06 303.47 103.63 
M 316.51 111.91 317.53 113.21 
M 225.14 87.88 229.63 78.62 231.75 73.83 233.69 68.98 235.43 64.05 238.31 53.99 240.67 43.75 
M 241.82 43.85 247.11 43.05 252.21 41.74 254.64 40.79 257 39.64 259.28 38.31 263.72 35.31 
M 264.84 35.61 269.84 37.71 274.93 39.26 277.54 39.73 280.18 39.98 282.86 40.05 288.27 39.82 
M 289.29 40.37 293.7 43.84 298.35 46.83 300.81 48.03 303.37 49.05 306.02 49.89 311.46 51.25 
M 312.32 52.02 313.63 55.46 314.42 57.06 315.36 58.54 316.46 59.88 319.16 62.17 322.28 64.1 
M 323.09 64.94 321.97 69.05 321.41 73.16 321.44 75.21 321.69 77.26 322.13 79.3 323.37 83.39 
M 324.13 84.26 321.44 90.31 319.28 96.49 318.51 99.66 317.95 102.88 317.57 106.14 317.17 112.75 
M 244.48 43.49 249.69 42.49 252.21 41.74 254.64 40.79 257 39.64 261.51 36.85 
M 244.49 50.57 248.8 49.74 250.87 49.13 254.82 47.39 258.55 45.09 
M 244.51 57.65 247.9 57 251.11 55.9 252.65 55.15 255.58 53.33 
M 244.52 64.73 247 64.26 249.35 63.45 252.62 61.58 
M 267.33 36.7 272.37 38.58 274.93 39.26 277.54 39.73 280.18 39.98 285.56 39.97 
M 266.28 42.2 270.73 43.87 275.29 44.88 277.63 45.11 282.38 45.1 
M 265.22 47.71 269.09 49.16 273.05 50.04 275.08 50.23 279.2 50.23 
M 264.17 53.22 267.45 54.45 270.81 55.19 272.52 55.36 276.02 55.35 
M 263.12 58.73 267.17 60.1 269.97 60.49 272.84 60.48 
M 262.06 64.24 264.16 65.03 266.32 65.51 269.66 65.61 
M 291.48 42.14 295.98 45.42 298.35 46.83 300.81 48.03 303.37 49.05 308.72 50.6 
M 289.15 47.35 293.13 50.25 295.22 51.49 299.66 53.46 304.39 54.83 
M 286.83 52.57 290.28 55.08 293.98 57.09 295.95 57.86 300.05 59.06 
M 284.5 57.78 287.43 59.91 288.97 60.83 292.23 62.27 295.71 63.28 
M 282.18 63 284.58 64.75 287.16 66.14 291.37 67.51 
M 279.85 68.21 281.73 69.58 283.74 70.67 287.04 71.74 
M 312.94 53.76 314.42 57.06 315.36 58.54 316.46 59.88 317.74 61.09 320.69 63.16 
M 308.88 59.22 310.15 62.06 311.91 64.49 313 65.52 315.55 67.31 
M 304.82 64.69 305.88 67.06 306.56 68.13 308.27 69.96 310.4 71.45 
M 300.76 70.15 302.15 72.92 303.54 74.39 305.25 75.6 
M 296.69 75.61 297.34 77.06 298.24 78.3 300.1 79.74 
M 322.49 67 321.59 71.11 321.41 73.16 321.44 75.21 321.69 77.26 322.71 81.35 
M 316.3 74.57 315.61 77.72 315.47 79.3 315.68 82.44 316.47 85.57 
M 310.1 82.14 309.53 85.43 309.68 87.62 310.22 89.8 
M 189 141.56 210.49 132.17 210.88 133 188.96 144.45 
M 188.8 146.7 253.07 127.78 253.35 128.66 187.89 150.15 
M 187.58 151.97 265.11 140.82 265.25 141.73 186.97 155.19 
M 186.59 156.82 256.9 157.1 256.91 158.01 185.65 159.93 
M 185.18 161.26 261.77 172.68 261.65 173.59 184.08 164.3 
M 183.72 165.29 240.55 182.72 240.3 183.6 183.12 168.4 
M 182.74 170.8 211.21 184.85 210.83 185.69 182 173.86 
M 207.84 134.59 216.39 134.73 224.88 134.32 229.08 133.81 233.26 133.08 237.42 132.16 245.69 129.96 
M 246.03 131.06 247.51 134.32 249.4 137.19 250.56 138.42 251.89 139.49 253.35 140.43 256.54 142.05 
M 256.72 143.19 254.01 145.71 251.78 148.5 250.94 150.04 250.29 151.68 249.82 153.42 249.17 157.07 
M 249.19 158.22 249.05 161.53 249.15 163.13 249.43 164.67 249.92 166.15 251.49 168.89 253.59 171.46 
M 253.43 172.61 248.76 173.36 246.49 173.9 244.3 174.62 242.2 175.54 238.24 177.95 234.51 180.87 
M 234.19 181.98 228.34 181.1 222.51 180.77 219.62 180.92 216.73 181.29 213.86 181.85 208.12 183.33 
M 212.12 134.7 220.65 134.62 224.88 134.32 229.08 133.81 233.26 133.08 241.56 131.1 
M 246.74 132.72 248.39 135.82 249.4 137.19 250.56 138.42 251.89 139.49 254.92 141.26 
M 223.27 139.79 224.34 141.81 225 142.71 226.62 144.2 228.59 145.35 
M 255.33 144.44 252.81 147.06 251.78 148.5 250.94 150.04 250.29 151.68 249.46 155.22 
M 228.86 148.7 227.22 150.4 226.55 151.33 225.58 153.41 225.04 155.71 
M 249.08 159.89 249.15 163.13 249.43 164.67 249.92 166.15 250.61 167.55 252.5 170.19 
M 224.79 160.02 224.83 162.13 225.02 163.13 225.79 165 227.02 166.72 
M 251.08 172.95 246.49 173.9 244.3 174.62 242.2 175.54 240.18 176.66 236.36 179.37 
M 226.09 169.8 223.11 170.42 220.32 171.48 219.01 172.21 216.53 173.97 
M 231.26 181.5 225.42 180.84 222.51 180.77 219.62 180.92 216.73 181.29 210.99 182.55 
M 231.63 220.91 235.36 225.47 238.08 227.8 241.23 231.1 242.64 233.89 252.16 271.3 249.53 272.54 248.64 275.52 245.34 279.97 237.44 280 229 278.97 227.7 277.5 220.06 264.9 216.4 257.87 215.64 255.98 214.2 253.68 206.73 223.3 206.77 219.42 206.14 215.95 205.14 212.77 203 208.61 
M 227.34 219.29 229.16 223.25 231.04 225.97 232.82 228.08 234.28 230.64 235.98 237.01 236.34 240.41 238.01 243.29 239.86 245.79 242.46 247.62 243.48 250.3 244.92 255.57 246.58 257.56 247.9 259.45 
M 223.08 217.6 225.81 224.6 227.22 227.56 229.04 229.89 230.08 232.86 231.28 235.22 231.69 238.77 232.62 241.65 233.76 244.59 235.41 247.38 236.93 250.39 237.85 252.85 237.23 255.58 237.46 258.69 238.03 261.11 
M 218.87 215.76 220.65 219.49 222.49 225.42 224.4 230.91 225.76 234.03 226.44 236.79 227.47 239.93 227.81 243.23 227.69 245.95 228.43 248.83 
M 214.72 213.82 216.26 217.53 217.06 220.79 217.5 223.7 218.72 229.17 219.53 232.1 219.42 235.16 220.74 238.81 221.6 242.25 222.42 244.32 223.14 250.35 225.46 254.77 226.98 259.22 227.31 261.98 
M 210.59 211.83 212 215.19 212.72 218.04 213.28 221.14 213.63 224.34 214.6 227.26 215.93 232.9 215.82 236.28 216.28 240.07 217.05 243.35 218.36 245.56 218.5 251.33 219.49 254.22 221.33 257.53 222.71 261.01 222.6 263.52 222.76 266.82 224 269.3 224.69 271.81 
M 206.37 210.03 207.87 213.31 208.19 216.45 209.77 225.65 211.88 228.17 213.21 231.17 211.8 233.96 211.22 237.23 210.88 240.39 
M 324.68 195.4 332.87 200.63 336.95 209.61 335.15 211.68 333.76 214.14 333.07 216.82 331.81 219.34 329.85 221.19 327.82 222.62 322.53 224.14 320.1 225.31 317.76 226.85 314.79 227.68 312.02 227.55 309.87 228.04 306.65 228.1 304.58 229.61 301.68 230.24 298.14 229.83 295.5 230.01 287.72 226.31 284.62 223.07 281.74 218.26 
M 320.92 198.03 325.03 201.6 328.8 202.29 331.7 204.05 334.07 207.29 
M 317.15 200.62 321.02 204.68 323.85 207.1 327 208.87 
M 313.22 203 317.35 206.38 320.52 208.47 323.1 211.06 325.22 214.01 
M 309.28 205.33 313.51 208.85 316.75 210.96 318.82 213.24 
M 305.28 207.58 308.97 211.31 312.08 213.66 315.13 215.2 
M 301.28 209.82 304.55 213.64 308.06 215.49 310.11 217.15 
M 297.28 212.05 300.71 215.99 303.89 218.09 306.97 219.29 310.73 223.63 
M 293.1 213.95 296.77 217.54 300.02 219.98 303.17 222.71 
M 288.86 215.7 291.57 219.42 294.33 221.88 297.66 224.46 299.83 227.3 
M 284.55 217.25 287.3 221.28 289.44 224 292.73 227.57 
M 353.32 138.29 356.17 137.52 358.67 136.41 361.97 135.7 365.1 134.15 368.03 132.94 370.3 131.73 372.82 129.03 374.94 127.92 377.18 125.86 380.85 124.46 382.78 123.15 388.22 120.94 390.84 119.19 394.12 118.1 396.41 116.36 398.79 115.22 407.23 115.67 415.22 114.61 422.55 116.58 424.41 117.3 429.8 121.41 432.88 123.48 437.13 124.35 439.37 125.46 446.65 131.52 451.26 135.79 453 138.38 455.71 145 456.49 147.63 456.44 149.44 457.01 152.62 456.24 154.95 456.72 158.54 456.61 161.27 457.04 164.39 457.13 167.18 455.97 169.24 454 170.53 453.32 173.12 453.27 176.6 451.68 178.66 449.89 180.51 448.62 182.91 447.17 185.18 446.38 188.1 444.16 189.52 442.2 191.14 439.92 192.45 437.31 193.59 435.03 195.08 427.29 198.74 423.63 202.53 421.4 203.92 416.2 205.65 413.34 205.97 407.92 206.2 399.94 207.44 398.36 204.53 387.87 196.75 385.32 195.4 383.36 193.77 381.33 192.67 378.67 191.55 375.4 190.69 372.46 188.79 370.13 186.95 364.53 181.45 362.64 178.86 353.32 172.36 
M 356.35 139.13 358.79 138.31 361.77 137.64 368.16 135.16 370.12 133.78 372.77 132.43 375.23 130.63 377.75 129.1 379.18 127.82 381.95 127.09 383.89 125.61 386.13 124.84 389.59 124.09 392.77 120.87 394.53 118.75 
M 362.01 139.44 365.26 138.65 368.19 137.67 370.31 136.36 372.97 135.4 375.89 133.35 377.66 131.88 380.13 130.62 385.36 129.28 388.36 127.01 391.3 126.48 393.29 124.47 395.62 122.95 399.69 121.95 401.55 120.85 404.85 120.07 407.67 119.99 410.35 117.53 
M 359.42 142.25 362.34 141.66 365.61 140.76 368.18 139.93 370.31 138.81 373.46 138.76 376.23 137.87 380.19 134.98 382.91 133.95 386.22 132.4 388.99 130.39 
M 353.32 145.1 356.91 144.9 362.3 143.76 365.67 143.45 368.28 142.07 370.33 141.36 373.63 141.38 376.56 141.08 381.06 139.49 383.25 137.83 386.23 137.03 390.23 135.37 392.08 133.97 394.33 133.6 397.4 131.65 400.35 131.09 407.18 130.61 408.72 129.84 
M 362.3 145.81 365.1 145.61 367.89 144.66 370.53 144 381.74 142.39 386.83 140.51 389.53 139.98 392.49 138.52 394.8 138.12 401.13 136.16 407.72 135.11 
M 353.32 148.51 356.84 148.81 362.41 147.81 364.83 147.8 377.08 145.61 384.87 143.62 387.67 143.12 390.77 142.87 395.44 141.89 398.6 141.73 403.43 139.59 406.85 138.69 409.32 137.69 411.35 138.24 414.45 137.03 
M 362.47 150.08 365.2 149.72 371.09 149.66 377 147.94 379.07 146.88 381.71 146.91 388.22 146.43 391.24 145.71 393.51 144.93 396.06 145.14 399.63 144.93 402.27 144.26 405.26 143.92 407.72 144.51 410.25 143.7 412.93 143.56 418.76 141.35 421.85 140.43 424.26 139.19 427.28 138.4 430.37 138.56 433.78 137.78 436.21 138.27 439.36 138.4 442.67 138.3 
M 359.52 152.39 371.8 152.24 374.51 151.63 377.46 151.37 382.45 149.63 385.11 149.39 388.52 149.71 391.07 149.7 393.62 148.77 396.11 148.49 399.27 148.71 406.09 147.91 408.18 149.03 410.85 149.49 413.55 149.53 420.82 148.74 427.04 147.56 429.47 146.37 432.3 147.49 435.02 147.14 
M 353.32 153.62 362.97 154.92 372.39 154.96 374.66 154.5 377.82 154.49 380.98 153.86 383.51 153.14 386.43 153.08 390.96 154.45 392.66 154.44 396.52 153.96 400.48 153.73 403.54 153.83 408.74 152.68 411.69 153.41 414.06 153.43 417.06 153.2 420.63 153.45 424.16 154.22 
M 353.32 155.32 356.44 155.78 359.47 156.53 362.86 157.11 366.32 157.16 369.49 157.6 372.33 157.79 375.23 157.38 378.2 157.7 381.48 157.51 384.11 157.03 386.51 157.09 388.5 158.08 390.69 158.19 392.53 158.75 396.52 158.27 400.76 158.11 404.02 158.44 406.81 158.45 
M 359.58 158.46 362.86 159.13 365.86 159.47 368.93 160.2 372.02 160.5 374.49 160.53 377.24 161 386.01 160.85 388.8 161.74 391.26 162.21 394.21 162.4 399.71 161.53 403.46 161.91 406.49 162.37 408.12 163.72 414.49 163.67 421.86 165.55 425.11 165.53 
M 362.59 161.12 365.19 161.49 368.3 162.26 371.06 163.18 376.07 163.91 379.38 164.6 381.72 164.35 384.33 164.89 387.5 164.79 390.81 165.51 393.75 166.72 397.03 166.47 400.59 166.81 402.48 166.55 408.08 167.68 
M 353.32 160.43 356.42 161.64 362.38 162.82 364.98 163.57 367.92 164.16 373.22 166.77 376.25 167.48 379.26 167.1 381.63 167.72 387.55 168.68 391.19 169.48 394.17 170.4 396.83 170.88 399.81 170.48 402.58 171.51 404.77 171.73 406.72 173.16 413.14 173.94 416.01 174.72 419.33 175.29 423.39 175.44 426.14 175.92 427.42 176.36 
M 356.47 163.44 364.93 165.77 367.58 166.64 373.04 169.16 376.21 170.08 379.25 169.75 381.91 170.87 388.04 172.18 390.61 173.84 394.17 174.96 398.71 175.65 400.89 175.36 403.26 175.71 406.53 176.81 412.72 179.84 
M 356.46 165.32 362.29 167.49 370.59 169.87 373.62 171.35 376.56 172.01 379.87 173.11 382.12 174.47 384.44 174.77 387.03 176.41 390.14 177.74 393.05 179.54 395.25 180.2 398.71 179.58 401.52 179.49 404.58 180.12 407.11 180.99 410.98 183.61 413.71 184.91 418.48 187.81 
M 356.57 167.25 362.53 170.01 365.53 170.69 368.37 171.59 371.21 173 374.31 173.54 376.87 174.28 384.06 178.9 387.33 180.68 390.54 182.17 391.58 183.62 
M 353.32 167.25 356.8 169.2 362.8 172.23 365.38 173.14 374.21 176.75 378.71 179.14 383.75 182.24 386.66 182.74 388.84 184.59 392.29 188.86 395.58 189.63 398.56 189.08 401.47 190.04 405.51 193.11 412.74 195.52 418.45 198.98 
M 362.61 174.47 365.41 175.61 370.72 178.48 376.94 183.3 380.25 184.16 383.15 185.27 386.14 186.67 388.32 188.38 390.14 191.13 393.92 191.54 397.86 192.73 400.02 193.88 
M 356.98 173.08 359.78 175 365.43 178.45 369.55 182.02 372.89 185.85 375.72 187.33 379.08 188.07 384.84 189.77 386.51 191.32 389.06 193.25 
M 344.14 176.32 341.63 178.98 340.69 180.55 339.95 184.22 338.4 185.24 334.45 185.1 332.57 185.61 331.13 186.75 329.82 188.12 331.84 190.14 
M 75.84 149.11 76.36 148.23 78.28 146.24 81.21 144.18 85.56 142.21 91.11 140.2 96.43 137.71 102.18 134.52 109.03 131.36 125.79 125.77 143.12 120.95 151.82 119.04 166.79 115.11 173.13 113.97 181.45 113.01 184.3 117.33 185.21 121.49 186.37 125.67 187.75 129.87 188.68 134.03 188.97 138.13 188.91 146.27 187.87 150.24 187.19 154.25 186.25 158.24 183.42 166.12 182.9 170.14 181.14 178.12 179.76 182.07 177.7 185.95 174.39 189.63 159.94 189.01 149.37 187.85 139.8 186.38 131.04 184.52 115.89 180.01 109.34 177.46 103.33 175.36 97.52 172.69 92.1 169.51 
M 160.19 138.82 159.81 142.28 158.14 145.55 156.48 148.68 150.7 156.76 149.7 161.22 151.42 168.64 151.05 171.7 134.62 171.44 127.77 171 120.97 170.19 114.59 168.94 108.38 167.39 102.82 165.29 
M 90.44 169.05 88.12 166.84 79.3 159.47 72.81 153.25 72.3 150.89 73.94 149.15 76.4 149.1 78.02 150.7 83.47 158.19 90.46 167 92.19 169.44 
M 91.78 170.2 87.19 170.3 75.86 171.36 66.45 171.97 64.16 171.46 62.86 169.49 63.55 167.28 65.76 166.24 74.81 167.46 86.26 168.51 91.86 169.28 
M 119.54 147.62 117.73 145.08 116.84 142.09 116.97 138.97 118.1 136.07 120.12 133.69 122.8 132.09 125.85 131.45 128.95 131.83 131.76 133.2 133.96 135.41 135.33 138.22 135.72 141.31 135.08 144.37 133.48 147.05 131.1 149.06 128.19 150.2 125.07 150.33 122.08 149.44 119.54 147.62 
M 132.42 136.51 133.52 138.76 133.82 141.23 133.31 143.68 132.03 145.82 130.13 147.44 127.8 148.34 125.31 148.45 122.91 147.73 120.88 146.28 
M 122.88 142.91 122.15 141.9 121.8 140.7 121.85 139.45 122.3 138.29 123.11 137.34 124.18 136.7 125.4 136.44 126.64 136.6 127.76 137.15 128.64 138.03 129.19 139.15 129.35 140.39 129.09 141.61 128.45 142.68 127.5 143.49 126.34 143.94 125.09 144 123.89 143.64 122.88 142.91 
M 122.5 142.23 123.92 143.65 
M 123.23 140.48 126.59 143.84 
M 125.25 140.02 128.16 142.93 
M 126.25 138.54 129.13 141.43 
M 127.64 137.46 129.06 138.88 
M 77.07 147.48 80.02 150.43 
M 80.07 144.98 83.14 148.05 
M 83.66 143.07 87.69 147.1 
M 87.57 141.48 90.87 144.78 
M 91.58 139.98 95.44 143.84 
M 95.33 138.23 100.39 143.29 
M 98.93 136.33 103.74 141.14 
M 102.49 134.38 105.46 137.36 
M 106.25 132.65 110.26 136.65 
M 110.11 131.01 114.01 134.9 
M 114.24 129.63 119.24 134.63 
M 118.37 128.26 122.16 132.05 
M 122.49 126.88 127.23 131.62 
M 126.65 125.54 131.99 130.87 
M 130.97 124.36 135.98 129.36 
M 135.29 123.17 139.69 127.57 
M 139.58 121.96 144.44 126.82 
M 143.91 120.78 149.25 126.13 
M 148.42 119.79 152.8 124.17 
M 152.9 118.77 155.72 121.6 
M 157.27 117.64 161.34 121.71 
M 161.63 116.5 165.98 120.85 
M 165.96 115.33 169.91 119.28 
M 170.57 114.43 175.98 119.84 
M 175.33 113.69 180.21 118.57 
M 180.26 113.12 183.59 116.45 
M 158.9 182.06 158.18 181.67 156.4 181.52 152.94 182.74 151.1 183.04 
M 114.41 139.57 115.43 139.82 115.93 140.13 116.3 140.54 116.85 141.85 
M 117.64 144.78 117.28 145.4 
M 155.52 167.87 153.41 166.93 151.07 166.58 149.1 166.51 147.8 166.25 
M 169.01 130.93 169.9 130.69 171.45 130.84 174.93 132.28 175.36 132.61 176.33 134.06 177.74 135.08 
M 85.09 160.27 87.07 159.53 87.62 159.16 88.44 157.9 88.73 157.07 
M 116.24 128.97 117.78 130.27 118.19 130.86 119.3 134.02 
M 116.83 163.84 116.27 164.77 116.17 165.24 116.21 167.08 116.01 167.88 113.69 171.5 113.53 172.2 113.77 173.63 
M 126.02 171.79 125.96 171.07 125.29 169.86 124.98 168.27 124.37 167.86 123.19 167.62 
M 139.62 142.14 139.42 143.03 139.72 144.88 139.57 146.06 
M 97.01 159.32 97.78 162.75 97.55 163.44 96.14 166.08 94.92 167.25 
M 116.5 178.12 113.28 178.59 
M 136.94 148.62 137.71 148.78 138.26 148.71 139.64 148.09 140.3 147.97 141.06 148.41 
M 128.57 152 128.95 152.41 129.49 152.41 131.93 150.91 
M 153.83 151.87 152.39 151.51 149.57 151.58 147.98 152.15 147.88 152.84 
M 175.38 182.44 173.06 185.7 172.4 186.04 170.68 186.49 
M 108.98 175.92 109.49 174.34 109.86 173.71 110.27 173.32 111.33 173.15 111.86 173.35 113.38 175.02 113.66 175.86 113.61 176.6 
M 128.24 162.67 126.31 163.36 123.99 164.66 123.07 165.36 120.88 167.71 120.31 168.1 
M 184.57 120.59 183.88 119.87 183.17 118.74 182.32 116.88 181.47 115.46 180.52 113.1 
M 96.2 142.04 95.63 142.31 94.36 142.41 
M 147.73 120.79 147.28 120.36 147.28 120.04 
M 126.32 160.12 125.13 161.81 122.73 164.02 120.81 167.37 120.09 168.11 
M 99.22 162.17 99.16 163.01 97.71 165.2 96.88 167.21 96.58 168.22 96.5 169.54 96.21 170.15 
M 95.3 153.67 98.03 154.42 100.02 154.44 102.44 154.84 
M 169.02 143.53 168.46 141.89 167.7 140.57 167.45 139.81 167.38 138.52 167.54 138.12 168.34 137.61 169.63 137.41 170.43 137.67 
M 80.74 151.71 82.92 153.86 83.38 155.2 
M 187.21 150.46 185.64 149.17 183.86 148.5 183.29 147.76 
M 146.26 147.54 146.04 148.14 146.08 148.84 146.88 151.58 147.7 152.76 
M 127.08 168.53 126.99 168.08 126.41 167.75 125.07 167.99 123.48 167.66 
M 184.19 132.52 184.71 129.68 185.14 128.39 185.73 127.38 186.63 126.48 
M 96.76 170.22 96.12 171.49 96.44 171.94 
M 133.83 146.46 137.85 145.3 138.4 145.43 138.92 146.03 
M 140.97 122.56 140.22 123.96 139.16 124.44 138.21 124.38 136.19 123.87 133.14 123.76 
M 141.28 161.94 142.6 160.71 145 159.38 145.96 159.31 147.24 159.66 
M 131.06 163.27 130 163.07 128.78 163.18 126.58 163.9 123.48 165.73 120.83 167.9 
M 86.17 161.61 88.03 159.87 89.32 158.03 
M 152.06 124.37 151.35 124.43 150.06 125.54 149.69 126.11 149.04 127.93 
M 120.98 166.62 120.47 167.56 119.19 168.86 117.86 170.68 
M 141.26 133.34 141.77 135.07 142.32 135.69 146.92 138.94 147.7 140.11 
M 179.31 142.04 180.18 142.09 181.11 141.82 183.39 140.48 184.45 140.03 
M 120.22 127.64 120.32 128.26 120.18 129.67 119.39 131.49 119.19 132.37 119.26 133.83 
M 172.75 147.82 171.88 146.91 169.56 145.1 169.05 144.46 168.18 141.96 167.37 140.42 167.12 139.59 167.09 138.38 
M 165.91 163.05 164.06 162.24 159.66 161.87 158.77 162.09 155.93 164.11 152.94 164.99 
M 109.16 141.78 104.87 142.19 103.23 142.97 102.53 143.73 
M 175.33 121.39 175.85 120.81 175.95 119.78 175.31 116.27 
M 105.55 170.72 105.97 168.76 105.48 166.94 105.12 166.6 
M 139.98 186.28 140.12 186.43 
M 169.64 116.24 171.61 115.09 171.94 114.76 172.07 114.16 
M 98.96 152.27 100.34 153.25 102.22 153.92 102.58 153.81 102.96 153.25 102.95 152.1 
M 161.23 152.72 163.86 154.56 164.43 155.94 
M 173.27 135.64 174.86 136.88 176.73 137.75 179.1 138.47 183.35 139 
M 131.76 148.51 134.66 148.71 136.65 149.3 137.5 149.32 
M 182.41 115.03 181.56 113.78 181.32 113.03 
M 115.99 168.03 114.93 169.43 113.65 171.65 113.56 172.36 114.03 175.93 113.9 176.43 113.34 177.19 
M 148.5 173.3 149.68 173.63 149.76 174.31 149.45 174.93 147.64 176.51 
M 115.54 142.15 116.05 143.09 116.35 144.11 116.34 144.68 115.57 147.05 115.56 147.58 115.84 147.88 
M 145.23 182.6 143.59 179.85 143.21 179 143.19 178.37 143.93 177.59 145.56 176.69 146.12 176.47 147.42 176.35 
M 169.38 173.96 168.62 172.81 168.38 172.01 168.37 171.09 168.57 170.2 168.4 169.17 
M 168.39 126.97 169.13 125.87 170.45 125.18 171.26 124.97 172.75 124.91 174.52 125.22 
M 110.88 174.9 111.41 174.68 112 174.67 113.02 175.02 113.31 175.31 113.59 175.97 113.57 176.65 113.37 177.08 113 177.29 
M 162.5 164.8 159.94 164.46 158.79 164.58 156.43 165.93 154.81 166.52 150.04 166.42 
M 172.4 161.47 172.31 160.71 171.35 157.55 171.61 156.66 172.43 155.55 
M 99.7 161.48 99.48 163.1 97.68 165.96 96.94 169.09 96.47 170.08 
M 102.51 145.13 100.47 146.06 99.56 146.96 99.04 148.38 99.33 149.8 
M 164.93 125.02 162.03 122.3 160.66 121.71 159.33 121.47 
M 180.86 125.2 180.34 124.95 179.74 125.05 178.31 126.31 
M 151.53 132.95 149.03 132.51 
M 135.11 128.13 134.09 127.63 133.04 126.79 132.34 126.5 130.73 126.23 124.93 126.88 123.46 127.36 
M 150.86 127.85 150.29 128.35 149.8 129.22 148.33 130.57 
M 120.97 159.76 121.35 158.68 122.11 157.88 
M 161.68 160.3 155.91 160.45 151.93 161.67 
M 150.68 180.25 148.8 179.76 146.78 178.63 146.53 178.24 146.43 177.55 146.65 177.1 147.12 176.74 
M 134.79 144.85 135.94 144.68 137.37 143.98 
M 183.02 149.1 182.42 147.39 182.46 146.4 
M 180.57 161.54 181.03 162.01 181.19 162.77 180.58 165.3 
M 136.79 125.41 135.38 124.62 132.51 123.94 
M 156.18 127.66 154.84 127.31 153.8 127.58 152.64 128.63 151.61 129.18 151.08 130.38 
M 119.51 179.73 119.6 179.93 119.79 179.75 
M 144.18 156.83 145.82 156.05 147.57 155.94 148.13 155.69 148.59 155.05 148.67 154.22 
M 130.81 165.89 128.98 166.05 126.85 165.96 125.08 166.41 121.36 167.79 
M 111.12 170.24 111.43 171.23 112.58 172.63 113.47 174.28 113.85 176.03 
M 107.49 132.07 108.49 132.38 109.43 133.07 110.5 133.51 113.47 133.67 
M 160.52 119.87 159.38 120.83 158.83 121.01 157.49 120.67 155.21 119.57 
M 125.94 176.44 126.59 174.55 126.98 172.31 126.89 171.5 125.75 168.38 
M 167.04 168.56 163.33 166.96 160.26 166.33 158.24 166.24 156.31 166.69 
M 155.25 140.84 153.76 140.35 151.15 139.91 149.56 139.13 148.82 139.29 
M 154.63 186.47 154.38 185.96 153.39 185.37 150.48 184.8 149.56 184.34 148.79 183.37 148.09 181.39 
M 155.43 145.35 149.9 147.77 147.72 149.24 
M 157.67 174.71 156.18 173.82 155.41 173.63 154.43 173.57 151.2 174.05 149.92 174.64 148.16 176.2 
M 183.25 163.01 183.96 164.63 
M 162.73 124.01 161.4 122.63 157.62 121.03 
M 120.88 133.23 120.59 133.15 
M 151.21 142.66 149.69 143.73 146.8 147.96 
M 152.39 165.25 149.03 166.13 147.75 166.08 147.03 166.33 
M 144.24 169.15 145.82 168.58 146.97 168.39 147.16 168.06 147.31 167 
M 107.76 155.39 105.77 154.9 105.07 154.56 103.58 153.17 102.94 151.26 103.04 149.58 
M 182.41 121.33 180.47 119.05 178.88 115.46 178.23 113.32 
M 84 158.87 86.45 158.07 87.44 157.42 
M 141.42 184.31 140.35 183.09 139.45 182.51 137.86 182.01 136.93 182.15 134.05 183.7 
M 111.33 166.91 110.28 168.81 109.94 169.12 
M 165.1 153.48 164.53 153.14 164.47 152.76 
M 126.35 150.83 125.51 152.04 125.53 152.56 126.36 153.58 127.44 154.04 
M 153.81 163.25 151.78 163.86 149.65 165.42 147.12 166.2 
M 158.66 133.61 157.11 132.35 155.78 130.89 155.19 130.53 153.82 130.28 151.49 130.67 151.11 131.01 
M 139.55 150.28 140.29 148.85 140.92 148.99 141.44 149.7 
M 81.28 146.92 80.93 145.72 81.08 144.28 
M 113.63 147.21 113.89 146.8 114.23 146.71 114.61 146.89 114.88 147.28 
M 159.46 179.36 159.86 180.43 160.59 180.86 161.64 180.76 163.54 179.83 
M 99.12 153.71 101.84 154.36 102.44 154.41 102.62 154.25 
M 92.12 169.5 92.87 170.29 
M 88.32 167.03 88.12 167.48 88.09 168.33 88.5 167.87 89.01 167.68 
M 85.04 164.3 84.2 165.53 83.93 167.04 84.58 165.92 85.97 165.07 
M 81.79 161.65 80.27 163.58 79.77 165.75 80.65 163.97 82.78 162.46 
M 78.68 158.87 76.34 161.63 75.62 164.46 76.72 162.02 79.65 159.78 
M 75.68 155.99 72.41 159.68 71.46 163.17 72.79 160.07 76.68 156.96 
M 72.76 153.03 68.48 157.73 67.31 161.88 68.86 158.12 73.73 154.11 
M 91.83 169.61 93.16 169.65 
M 87.38 168.63 87.67 168.01 88.28 167.4 88.22 168.02 88.51 168.75 
M 82.93 168.21 83.36 166.4 84.31 165.18 83.91 166.41 84.27 168.34 
M 78.56 167.78 79.06 164.79 80.34 162.96 79.61 164.8 79.98 167.91 
M 74.21 167.36 74.76 163.18 76.38 160.74 75.31 163.19 75.66 167.53 
M 69.89 166.72 70.46 161.57 72.41 158.52 71.01 161.59 71.33 166.91 
M 65.54 166.35 66.15 159.96 68.45 156.3 66.7 159.98 67 166.38 
M 72.83 171.55 80.32 174.19 85 175.46 89.73 176.39 94.56 177 99.47 177.32 109.34 177.46 
M 182.38 112.38 190.21 120.2 
M 186.65 109.31 195.23 117.89 
M 191.02 106.34 198.13 113.45 
M 195.47 103.45 204.47 112.45 
M 200.07 100.72 208.88 109.53 
M 204.75 98.06 214.49 107.8 
M 209.55 95.53 217.15 103.12 
M 214.28 92.92 222.18 100.82 
M 219.13 90.44 227.69 99 
M 224.23 88.2 231.29 95.26 
M 229.77 86.4 236.67 93.3 
M 235.55 84.85 245.69 94.98 
M 241.94 83.9 248.99 90.95 
M 249.01 83.63 256.84 91.46 
M 256.13 83.41 265.68 92.97 
M 264.06 84.01 272.89 92.84 
M 275.62 88.24 282.86 95.48 
M 292.02 97.3 299.71 104.99 
M 309.46 107.4 317.6 115.54 
M 335.4 126.01 343.12 133.72 
M 358.6 141.87 359.65 142.92 
M 229.74 78.36 233.35 85.57 
M 231.68 73.99 236.96 84.54 
M 233.52 69.41 240.89 84.15 
M 235.24 64.59 244.91 83.94 
M 236.82 59.5 248.93 83.72 
M 238.27 54.14 253.03 83.67 
M 239.6 48.55 257.04 83.43 
M 241.35 43.81 256.53 74.16 
M 245.25 43.36 256.33 65.5 
M 249.02 42.63 256.81 58.22 
M 252.62 41.58 256.31 48.96 
M 256.01 40.12 257.24 42.58 
M 286.54 84.66 293.16 97.91 
M 285.78 74.88 298.87 101.07 
M 286.79 68.67 304.81 104.69 
M 287.42 61.66 311.01 108.84 
M 286.04 50.66 317.21 113 
M 287.71 45.73 317.64 105.59 
M 289.1 40.26 318.6 99.27 
M 295.71 45.23 320.08 93.97 
M 301.34 48.24 319.8 85.15 
M 306.33 49.97 319.87 77.04 
M 311.05 51.15 319.66 68.38 
"/></svg>