<svg xmlns="http://www.w3.org/2000/svg" width="520" height="320"><rect x="0" y="0" width="520" height="320" fill="floralwhite"/><rect x="10" y="10" width="500" height="300" stroke="black" stroke-width="1" fill="none"/><path stroke="black" stroke-width="1" fill="none" stroke-linecap="round" stroke-linejoin="round" d="
M 182.68 73.46 190.66 70.67 201.2 68.88 211.67 66.78 222.07 64.29 232.63 62.69 243.3 62.01 253.98 61.83 264.67 62.05 275.35 61.82 286.04 61.99 296.64 63.34 307.18 65.07 317.65 67.21 327.87 70.33 338 73.75 348.19 76.96 358.14 80.87 367.3 86.37 371.27 91.23 
M 371.27 170.89 369.18 173.65 359.67 178.54 349.55 181.95 339.2 184.64 318.88 191.24 308.4 193.37 297.75 194.23 287.08 194.7 265.7 194.86 244.45 197.11 233.77 196.82 223.27 194.84 213.12 191.48 193.35 183.36 183.06 180.48 174.8 179.44 
M 220.24 117.2 227 118.5 231.15 118.96 236.58 118.8 
M 240.02 118.46 254.52 115.62 260.05 113.43 263.22 112.77 274.06 112.25 278.87 111.53 
M 285.66 111.26 294.98 111.92 304.95 111.46 315.71 111.82 319.59 112.26 328.85 114.59 333.12 115.33 340.77 115.8 344.9 116.32 353.84 118.01 365.79 119.54 371.27 121.03 
M 183.98 168.64 187.47 178.33 
M 193.12 71.22 192.1 72.62 190.84 73.78 
M 188.28 76.05 186.98 77.16 185.87 78.44 
M 190.11 158.67 191.96 164.01 
M 193.01 167.36 194.08 170.7 
M 196.58 177.69 199.64 185.92 
M 191.21 90.98 190.48 92.66 189.56 96.59 189.34 98.8 
M 199.59 158.43 199.95 159.47 
M 201.07 163.05 202.94 169.78 
M 203.98 173.23 205.07 176.71 
M 208.75 187.35 209.92 190.15 
M 207.31 89.56 206.25 90.89 202.69 94.53 
M 200.5 97.15 199.47 98.53 198.79 100.26 
M 197.69 104.01 196.3 109.89 194.29 115.01 
M 213.22 171.07 215.5 178.28 
M 221.46 193.58 221.8 194.36 
M 219.54 84.95 216.89 91.84 
M 215.34 95.09 214.48 96.63 212.38 99.33 207.59 104.18 205.87 107.3 204.87 111.14 204.56 113.29 
M 219.45 158.12 222.18 165.64 
M 223.52 169.49 225.76 176.72 
M 228.16 184.04 232.56 196.6 
M 235.19 74.81 233.71 78.18 
M 230.35 84.46 226.6 92.7 224.85 98.18 
M 235.28 173.22 238.73 182.85 240.27 187.98 
M 242.23 194.42 243.02 197.08 
M 242.04 80.36 240.43 83.59 
M 237.61 90.4 236.3 93.92 
M 232.2 109.24 230.88 112.79 
M 229.31 116.62 228.45 118.73 
M 239.38 150.96 240.68 156.41 241.29 158.28 
M 242.55 162.07 245.06 169.58 
M 246.35 173.36 249.65 182.81 251.82 189.74 252.7 192.87 253.38 196.22 
M 253.49 81.14 251.65 84.15 
M 250.06 87.4 248.61 90.8 
M 245.5 97.42 244.71 99.06 242.85 104.53 
M 239.68 116.33 239.25 118.63 
M 248.97 149.9 249.93 153.39 
M 252.29 160.8 253.41 164.43 
M 254.53 168.05 259.5 181.65 263.04 195.15 
M 264.84 81.23 262.08 85.76 261.26 87.38 
M 259.65 90.63 255.6 98.81 251.12 109.08 249.7 112.59 248.63 116.73 
M 257.53 147.33 259.75 155.94 260.86 159.58 264.48 169.5 
M 265.71 173.22 268.64 183.46 
M 269.83 186.99 272.57 194.75 
M 278.71 69.54 278.06 71.34 276.57 77.18 
M 274.35 84.72 272.1 89.78 270.31 92.88 265.88 98.3 263.82 101.18 262 104.32 258.76 111.01 257.61 114.38 
M 266.49 147.82 267.66 152.86 269.06 156.83 274 168.12 
M 276.03 175.15 276.83 178.41 
M 279.07 185.44 281.91 192.84 
M 285.49 81.41 283.53 86.78 280.68 93.76 278.87 96.9 272.21 105.2 269.08 109.59 
M 267.5 111.78 266.98 112.52 
M 269.01 121.01 269.9 124.5 
M 275.53 143.26 277.52 151.78 278.92 155.78 286.15 174.41 
M 287.48 178.2 288.56 181.71 
M 291.84 192 292.73 194.45 
M 296.06 77.99 292.6 86.78 291 90.12 289.24 93.31 285.17 99.24 278.3 110.17 
M 277.86 116.29 278.8 119.85 
M 282.35 130.1 284.12 135.73 
M 285.25 139.52 286.61 144.84 287.16 148.03 287.98 151.46 288.63 153.41 
M 290.07 157.45 294.31 168.06 299.14 182.68 303.11 193.8 
M 303.03 81.33 302.44 83.19 300.91 86.58 298.29 91.41 
M 296.5 94.62 290.62 106.44 288.59 109.51 287.11 111.31 
M 290.93 124.26 291.39 125.57 
M 291.44 125.7 293.5 132.11 
M 295.55 139.45 296.6 143.14 
M 297.6 146.76 299.34 152.42 305.21 168.44 308.34 176.45 311.54 186.73 313.81 192.27 
M 314.69 71.18 313.14 74.51 
M 310.57 81.73 309.92 83.55 306.56 90.12 305.04 93.62 300.87 104.68 297.77 111.88 
M 309.08 145.35 312.87 155.58 313.96 159.21 315.88 167.34 
M 316.8 170.68 319.73 179.52 321.06 183.14 323.23 188.25 
M 321.34 80.97 320.61 82.72 318.22 90.31 317.41 92.02 
M 312.11 101.93 309.78 107.3 307.65 111.55 
M 313.05 128.54 314.49 132.56 
M 318.19 141.43 321.89 150.22 
M 323.36 154.2 325.05 159.58 327.96 171.84 328.85 174.95 330.07 178.35 332.91 184.58 
M 335.28 77.65 331.66 84.12 
M 330.03 87.57 328.46 91.09 
M 326.81 94.57 323.4 101.46 
M 321.83 105.07 321.07 106.9 318.24 112.02 
M 328.58 138.56 331.29 144.92 335.38 158.36 338.74 168.3 343.18 180.42 
M 345.12 80.83 342.66 86.08 339.83 93.6 339.02 95.39 
M 337.34 98.93 334.84 104.29 334.16 106.24 
M 331.92 113.73 331.48 115.09 
M 334.83 124.33 336.22 128.05 
M 339.32 135.78 344.32 150.79 349.14 163.9 350.39 167.13 354.52 176.27 
M 356.57 82.74 354.37 85.74 
M 352.42 89.01 351.56 90.76 349.35 99.08 348.07 103.09 345.17 110.86 342.9 116 
M 350.97 133.77 352.29 137.19 
M 353.45 140.42 356.89 150.89 358.78 155.66 
M 360.13 158.9 365.71 170.93 
M 332.52 108.29 333.02 108.5 333.61 108.46 335.2 108.09 336.44 107.59 337.5 107.53 338.57 107.19 
M 316.76 126.96 315.09 127.33 
M 364.34 130.71 362.85 129.76 362.07 128.57 362.07 128.12 362.27 127.71 363.23 126.48 
M 349.3 182.02 349.23 181.54 
M 262.51 177.1 259.67 177.46 257.39 178.26 256.4 178.17 256.05 178.29 
M 208.21 123.07 202.7 121.33 200.17 121.69 198.51 122.27 196.19 122.06 
M 199.85 120.39 197.94 121.03 195.83 121.32 194.9 121.14 193.88 120.64 193.27 120.53 
M 244.91 193.75 246.5 192.95 247.72 192.96 248.65 193.21 250.17 194.17 252.29 196.33 
M 300.8 193.99 301.15 193.39 301.12 191.39 
M 280.71 77.36 280.16 75.82 279.93 74.41 280.05 73.48 280.54 71.91 
M 216.22 78.16 217.42 77.97 217.98 77.61 219.61 74.74 221.54 73.32 222.1 72.55 222.34 71.69 
M 239.85 181.89 239.22 180.68 239.04 179.81 239.7 177.65 241.57 174.35 243.84 172.65 
M 251.66 70.55 250.54 71.4 248.27 72.03 244.01 73.86 
M 282.32 120.36 282.66 120.66 283.23 120.64 284.89 119.3 
M 338.15 179.3 336.93 179.79 335.93 180.42 334.37 182.53 334.25 183.51 334.43 184.12 335.29 185.35 
M 316.01 180.32 316.44 181.03 317.46 181.74 318.46 181.95 319.07 181.57 
M 214.23 99.12 213.78 100.31 213.75 100.87 214.23 101.88 216.57 104.32 218.67 106.04 219.99 106.72 
M 353.02 78.86 352.26 80.22 
M 243.31 174.04 246 171.94 247.1 170.82 247.52 170.65 248.22 170.66 
M 313.21 180.24 313.62 182.21 313.94 182.8 314.59 183.05 316.04 183.04 316.73 183.23 
M 205.18 90.21 204.48 91.39 204.13 92.47 204.66 95.9 204.5 97.9 204.6 98.65 
M 264.41 174.04 260.87 174.12 258.88 174.47 257.18 175.06 256.23 175.05 254.83 174.65 
M 224.73 174.39 223.76 174.83 223.06 176.54 
M 189.63 101.97 189.56 101.98 
M 327.53 185.84 325.76 185.5 322.55 185.27 
M 338.58 81.55 338.45 80.16 339.16 76.3 339.28 74.95 339.13 74.11 
M 235.99 61.35 258.09 30 258.85 30.5 239.34 62.18 
M 249.63 61 263.4 39.91 264.19 40.37 252.91 61.81 
M 263.26 61.32 270.74 48.98 271.55 49.38 266.49 62.08 
M 276.92 61.12 280.4 56.11 281.24 56.47 280.07 61.79 
M 290.6 62.05 292.13 62.66 
M 256.84 33.76 257 36.22 257.62 38.39 258.2 39.31 258.96 40.11 259.88 40.81 262.02 42.02 
M 263.02 42.6 263.7 45.09 264.18 46.21 264.79 47.2 265.56 48.04 267.57 49.31 269.99 50.21 
M 271.02 50.72 272.39 53.01 274.05 54.84 275.06 55.5 276.18 55.97 277.41 56.28 280.05 56.61 
M 281.11 57.07 282.9 59.31 284.95 61.06 286.11 61.65 288.63 62.27 
M 288.92 62.31 291.59 62.44 
M 256.88 35.01 257.23 37.36 257.62 38.39 258.2 39.31 258.96 40.11 260.92 41.44 
M 252.45 44.48 252.67 46 253.3 47.27 253.79 47.79 255.07 48.65 
M 263.33 43.87 264.18 46.21 264.79 47.2 265.56 48.04 266.5 48.74 268.75 49.79 
M 188.77 123.3 304.79 124.56 304.78 125.47 188.31 126.43 
M 188.2 127.31 291.54 133.15 291.5 134.06 187.77 130.41 
M 187.62 131.27 278.12 140.57 278.04 141.48 187.08 134.34 
M 186.94 135.15 264.62 146.8 264.5 147.71 186.17 138.19 
M 185.98 138.93 251.11 151.85 250.94 152.75 185.19 141.94 
M 185.01 142.61 237.66 155.73 237.46 156.62 184.21 145.61 
M 184.05 146.21 224.36 158.44 224.12 159.32 183.72 149.32 
M 183.66 149.92 211.29 159.99 211.01 160.86 183.27 152.99 
M 183.16 153.58 198.51 160.42 198.19 161.27 182.64 156.52 
M 182.38 158.04 186.11 160.54 185.75 161.38 182 160.57 
M 292.33 125.57 289.09 126.1 286.12 127.11 284.8 127.88 283.59 128.84 282.47 129.96 280.41 132.52 
M 280.36 133.67 277.17 133.93 275.66 134.22 274.23 134.68 272.89 135.33 270.5 137.2 268.35 139.56 
M 268.24 140.71 265.13 140.69 262.22 141.19 260.88 141.72 259.63 142.46 258.44 143.38 256.2 145.54 
M 256.05 146.68 253.03 146.4 250.17 146.64 248.84 147.06 247.57 147.69 246.36 148.5 244.05 150.45 
M 243.84 151.58 240.94 151.05 238.16 151.04 236.84 151.34 235.56 151.86 234.33 152.56 231.95 154.31 
M 231.7 155.43 228.93 154.64 227.57 154.42 226.24 154.4 224.94 154.58 222.43 155.58 219.99 157.11 
M 219.69 158.22 217.07 157.2 215.78 156.86 214.49 156.72 213.22 156.79 210.71 157.56 208.23 158.88 
M 207.88 159.97 205.44 158.72 204.21 158.28 202.98 158.02 201.75 157.98 199.25 158.53 196.74 159.63 
M 196.34 160.7 194 159.42 191.64 158.68 190.45 158.62 189.24 158.78 188.03 159.13 185.58 160.19 
M 290.69 125.8 287.56 126.52 286.12 127.11 284.8 127.88 283.59 128.84 281.42 131.21 
M 264.91 126.01 262.51 126.56 261.41 127.01 259.46 128.34 257.8 130.15 
M 239.13 126.21 236.69 126.91 235.34 127.83 234.18 129.1 
M 278.75 133.77 275.66 134.22 274.23 134.68 272.89 135.33 271.65 136.18 269.41 138.35 
M 255.75 132.96 253.38 133.31 252.29 133.66 250.31 134.81 248.59 136.48 
M 232.76 132.16 230.35 132.65 228.98 133.45 227.78 134.61 
M 266.67 140.67 263.64 140.85 262.22 141.19 260.88 141.72 259.63 142.46 257.31 144.42 
M 236.41 138.33 234.44 138.45 233.51 138.66 231.83 139.49 230.32 140.77 
M 254.53 146.5 251.57 146.43 250.17 146.64 248.84 147.06 247.57 147.69 245.19 149.44 
M 228.51 143.4 226.59 143.35 225.68 143.49 223.99 144.17 222.44 145.31 
M 242.38 151.28 239.53 150.95 238.16 151.04 236.84 151.34 235.56 151.86 233.13 153.4 
M 230.31 155 227.57 154.42 226.24 154.4 224.94 154.58 223.67 154.99 221.2 156.31 
M 218.38 157.67 215.78 156.86 214.49 156.72 213.22 156.79 211.96 157.08 209.47 158.18 
M 213.89 191.79 217.72 197.34 219.51 200.25 224.96 207.69 227.5 213.79 233.13 220.9 235.43 226.43 236.86 228.81 238.59 230.87 241.11 232.83 238.45 243.23 236.8 245.26 235.99 248.13 235.73 251.55 233.73 253.23 231.04 254.4 228.77 256.01 227.75 258.86 226.19 261.17 224.41 263.26 221.4 264.11 218.65 265.21 216.5 266.9 214.63 268.88 212.93 271.02 211.58 273.35 199.72 280 200.49 278.22 202.54 271.85 202.62 269.42 202.44 263.07 200.86 257.01 200.72 253.62 201 248.25 201.53 245.14 201.42 242.72 202.02 240.2 204.31 234.35 204.49 231.76 204.5 228.53 204.76 225.94 204.73 222.82 205.07 219.83 204.83 217.36 205.37 215.02 205 212.4 205.14 206.86 206.04 201.17 206.07 198.33 206.49 192.06 206.07 188.62 
M 212.2 191.1 215.43 197.07 216.63 199.62 218.36 202.56 220.71 204.97 221.74 207.59 222.31 210.79 224.46 217.59 227.92 223.16 
M 210.5 190.42 212.08 193.65 213.05 196.75 213.57 199.3 214.81 202.23 217.12 204.96 218.33 207.78 217.58 210.23 218.44 216.32 220.12 219.09 221.72 222.19 222.6 224.69 223.14 227.74 224.31 231.72 226.46 234.82 228.16 238.3 228.68 240.84 
M 208.81 189.73 210.17 193.28 211.44 202.38 212.39 205.49 213.01 208.21 213.22 210.5 213.93 212.98 214.8 219.02 215.39 221.45 217.02 224.69 
M 207.12 189.05 208.02 192.56 208.13 195.83 208.47 198.75 208.36 207.78 209.97 213.27 210.87 215.78 210.39 218.16 210.86 223.01 211.52 226.15 212.03 234.01 212.49 237.69 212.46 239.04 212.87 242.03 212.31 244.89 
M 354.71 180.51 358.53 184.22 360.6 186.72 362.45 189.35 364.5 191.68 358.47 192.59 357.15 195.14 354.57 196.41 351.53 196.73 349.83 198.32 348.49 200.65 346.52 202.52 345.42 205.18 343.75 207.32 339.49 210.79 338.09 213.24 336.97 215.95 335.31 218.1 333.08 219.66 329.52 223.69 327.91 225.85 325.74 227.51 323.27 228.88 320.53 230.01 318.38 231.67 317.22 234.31 316.49 237.43 315.57 240.34 314.49 242.9 313.02 244.07 311.3 249.89 309.83 246.86 308.71 243.37 307.35 240.54 306.65 235.85 305.4 233.88 304.62 229.98 303.61 226.11 302.02 223.31 299.79 221.48 297.69 219.15 295.6 214.31 293.47 211.73 292.12 209.42 290.41 206.38 289.58 203.93 288.01 200.89 285.91 198.04 284.3 194.81 
M 350.31 181.74 354.16 186.18 358.41 191.73 
M 345.91 182.94 349.48 187.74 352.32 190.94 
M 341.49 184.06 344.96 187.61 346.88 190.67 351.22 196.51 
M 337.09 185.28 340 189.54 342.49 192.19 344.5 194.86 
M 332.72 186.62 336.32 191.07 339.43 193.75 
M 328.4 188.09 332.44 192.51 335.54 195.01 
M 324.1 189.63 328.02 193.21 330.75 196.17 333.62 198.9 336.08 200.87 338.11 204.44 
M 319.75 190.98 322.79 194.52 328.06 199.7 330.93 201.83 
M 315.37 192.26 320.02 198.83 324.46 204.06 
M 310.86 192.98 313.64 196.42 317.45 201.88 319.05 203.67 320.48 206.35 322.83 209.92 326.1 213.22 329.79 217.74 
M 306.34 193.59 309.35 197.29 311.03 200.01 313.33 204.92 314.87 206.91 318.82 212.83 
M 301.79 193.97 304.38 197.44 307.36 203.64 310.54 208.86 312 211.71 314.77 213.85 316.84 216.4 318.61 219.41 319.63 222.38 319.61 224.12 319.89 226.76 
M 297.23 194.26 298.87 197.63 300.74 200.88 304.6 206.99 305.81 209.3 307.96 211.47 311.4 217.15 314.23 222.43 
M 292.67 194.48 294.3 197.94 297.99 204.32 299.13 207.28 302.56 212.84 303.92 214.03 305.7 216.51 307.49 219.45 308.52 222.19 
M 288.11 194.66 289.69 197.98 291.72 200.81 293.52 203.68 294.87 206.95 297.5 212.48 299.09 214.91 301.66 219.78 303.86 221.88 305.85 223.28 306.9 226.27 307.02 231.06 307.85 233.82 307.96 236.31 
M 370.36 88.52 373.44 88.06 375.65 86.88 378.16 85.48 380.34 83.91 382.82 82.52 385.58 81.31 391.39 77.15 395.54 75.04 397.19 74.41 399.48 73.13 403.51 70.42 407.03 69.12 414.89 64.62 416.04 62.74 418.02 61.39 419.56 59.23 426.68 56.7 429.5 56.18 431.98 55.09 435.27 50.26 436.55 49.35 441.09 43.96 442.38 41.7 445.53 40.23 448.07 39.89 449.33 40.19 433.89 61.61 430.65 65.59 429.95 68.49 428.47 70.62 426.77 72.54 425.28 77.91 424.16 80.16 424.57 83.85 424.13 86.57 424.15 89.75 423.35 92.48 421.57 94.41 420.05 96.61 418.76 98.9 418.87 101.6 418.5 103.82 419.01 106.93 418.36 113.14 416.95 115.06 416.04 117.21 415.55 122.76 414.7 124.86 414.74 127.49 415.92 130.91 415.82 133.16 415.19 135.75 414.38 138.15 414.45 141.39 416.54 149.08 418.45 155.08 418.46 157.34 418.16 159.87 417.51 162.02 417.96 165.86 418.75 168.34 424.91 180.32 424.78 183.92 425.72 186.76 425.62 188.65 426.09 191.12 427.68 196.64 428.83 199.65 429.48 202.16 431.52 207.36 451.49 230.31 449.76 229.69 447.37 228.56 445.4 226.69 442.19 224.2 437.65 220.03 433.1 217.51 431.27 215.43 426.22 212.12 421.49 207.87 419.45 206.33 417.13 205.01 414.48 204.27 411.13 202.37 407.8 201.29 406.95 198.97 404.95 196.99 400.43 194.26 397.71 193.19 392.79 189.34 385.48 184.89 378.48 179.56 370.36 172.99 
M 373.74 92.64 376.29 91.67 378.58 90.55 380.99 89.02 383.49 87.9 386.43 85.64 389.61 84.51 391.72 83.03 397.64 80.89 400.47 80.3 403.21 79.42 407.26 77.24 411.07 74.22 418.08 71.72 420.63 69.97 423.79 67.51 
M 370.36 96.97 374.04 96.95 379.67 94.45 382.03 93.76 390.33 89.5 393.6 88.66 395.65 87.72 397.88 87.82 403.26 85.86 405.16 84.21 407.1 84.19 409.6 83.41 412.27 81.96 420.75 75.81 423.7 75.64 425.79 76.39 
M 374.16 101.28 385.11 97.15 387.33 96.44 389.51 96.09 395.46 94.32 398.76 93.52 401.29 92.28 403.31 91.94 406.14 91.02 407.86 89.73 
M 374.15 105.48 380.08 103.73 382.8 102.54 387.52 102.08 389.91 101.05 392.65 100.58 396.19 99.7 401.34 95.89 404.09 95.56 406.35 95.9 408.9 95.72 411.43 95.28 
M 380.35 108.74 385.14 106.97 388.16 106.45 391.42 106.46 394.24 105.13 397.18 104.12 399.68 103.49 402.35 102.39 
M 377.09 114.08 380.54 114.57 383.55 114.19 385.61 113.54 387.83 113.22 390.37 112.25 394.37 111.71 398.02 110.32 400.06 110.19 405.39 108.57 409.07 108.45 
M 370.36 118.08 374.24 118.65 383.63 119.3 386.06 119.06 388.87 119.23 391.47 118.6 396.94 117.87 399.89 117.06 406.06 116.6 408.3 115.78 
M 377.03 123.57 380.59 123.34 383.67 123.33 388.46 122.14 398.3 122.05 
M 380.57 128.2 383.65 128.11 386.7 127.57 389.02 126.89 391.47 126.53 395.2 127.17 398.25 127.97 400.25 127.32 402.8 127.06 405.88 127.81 410.18 127.35 
M 374.84 132.26 378.2 132.95 381.14 133.08 387.85 133.22 390.83 132.77 393.38 132.81 397.22 134.58 398.79 135.04 402.43 134.81 407.49 134.84 414.36 135.26 
M 380.44 137.93 386.15 138.8 389.03 138.87 392.13 138.34 
M 379.41 142.89 382.53 143.85 385.76 143.69 388.23 144 390.39 144.52 
M 376.63 145.52 382.84 147.96 386.2 147.56 388.67 148.59 394.9 150 397.52 151.75 401.45 152.94 405.99 153.08 408.11 152.45 410.34 152.63 413.83 153.81 
M 377.78 150.08 383.73 151.21 389.22 154.03 391.54 154.67 394.91 156.22 398.03 157.96 399.08 159.27 
M 380.21 155.94 383.08 157.28 388.37 158.91 394.62 160.25 396.3 162.54 398.08 164.62 400.39 165.91 404.17 165.99 407.88 165.2 
M 378.38 161.45 381.32 162.85 391.17 164.59 393.75 166.04 395.84 168.35 399.7 168.75 403.81 169.75 406.27 170.74 407.68 171.68 407.93 173.01 410.85 174.23 414.01 176.4 418.27 178.12 
M 370.36 160.32 373.6 162.74 376.6 164.33 379.07 166 382.16 167.32 387.46 169.07 389.85 170.04 391.96 171.34 395.17 172.49 399.16 174.67 402.72 176.68 408.44 181.43 411.14 182.38 417.59 184.01 
M 379.32 169.96 387 174.5 396.14 178.65 399.34 180.73 401.45 182.37 403.85 184.34 405.54 186.14 407.48 187.01 410.37 186.74 413.03 187.6 414.41 189.04 
M 378.93 174.96 384.25 178.65 387.73 179.44 391.98 182.84 395.21 184.79 397.9 186.03 400.11 187.87 403.34 189.67 405.45 191.61 407.43 192.39 410.35 195.63 412.27 197.07 414.64 199.51 420.74 200.82 428.84 205.52 429.95 206.63 
M 77.53 126.61 78.75 124.27 80.94 121.2 83.53 117.94 86.99 115.24 91.98 112.08 97.89 108.06 103.58 103.68 110.38 99.44 126.73 92.1 135.38 88.49 144.5 84.93 153.31 81.85 161.13 78.57 168.26 76.04 174.66 74.42 179.65 73.52 182.54 73.18 185.33 78.99 186.2 84.67 187.32 90.38 188.66 96.1 189.55 101.78 189.8 107.42 189.68 118.65 188.6 124.19 187.89 129.76 186.92 135.31 184.02 146.34 183.46 151.92 181.63 163.02 180.23 168.54 178.13 174.01 174.8 179.31 160.73 178.56 150.4 177.13 141.24 175.09 132.72 172.91 124.66 170.03 117.26 167.02 110.55 164.09 104.27 160.7 98.63 157.06 93.81 153.54 89.73 149.69 86.65 145.69 
M 161.39 109.1 160.98 113.89 157.71 122.78 155.69 126.8 153.41 130.61 151.6 134.06 150.67 140.19 151.09 143.31 151.77 146.82 152.21 150.71 151.84 155.03 142.72 155 135.99 154.77 122.87 153.32 116.27 151.78 109.99 149.78 104.27 147.42 
M 84.82 144.78 83 142.48 75.2 131.24 74.44 129.06 75.54 127.01 77.75 126.57 79.52 128 81.34 132.34 84.46 140.86 86.75 145.63 
M 86.24 146.31 83.81 146.11 70.11 144.21 68.73 142.41 69.23 140.08 71.24 138.93 73.53 139.55 79.83 142.4 83.81 144.39 86.46 145.41 
M 118.01 123.08 115.4 119.42 114.11 115.1 114.3 110.61 115.93 106.41 118.84 102.98 122.71 100.67 127.12 99.75 131.58 100.31 135.63 102.28 138.81 105.47 140.79 109.51 141.35 113.98 140.42 118.38 138.12 122.25 134.68 125.16 130.49 126.8 125.99 126.98 121.68 125.7 118.01 123.08 
M 136.59 107.06 138.17 110.29 138.61 113.87 137.87 117.39 136.03 120.48 133.28 122.81 129.93 124.12 126.33 124.27 122.88 123.24 119.95 121.15 
M 123.13 116.6 122.08 115.13 121.57 113.41 121.64 111.61 122.3 109.93 123.46 108.55 125.01 107.63 126.77 107.26 128.56 107.49 130.18 108.28 131.45 109.55 132.24 111.17 132.46 112.95 132.09 114.72 131.17 116.26 129.8 117.43 128.12 118.08 126.32 118.16 124.6 117.64 123.13 116.6 
M 122.58 114.24 126.49 118.15 
M 123.66 112.85 128.67 117.87 
M 125.28 112.01 130.29 117.01 
M 124.63 108.9 131.48 115.75 
M 126.2 108 132.24 114.04 
M 129.43 108.76 132.3 111.63 
M 86.04 144.22 89.18 147.36 
M 78.16 125.39 82.17 129.4 
M 80.32 122.07 83.2 124.95 
M 82.7 118.98 85.49 121.77 
M 85.56 116.36 90.06 120.86 
M 88.78 114.1 92.21 117.53 
M 92.13 111.98 95.24 115.09 
M 95.39 109.76 99.18 113.55 
M 98.61 107.51 101.39 110.28 
M 101.71 105.12 105.06 108.48 
M 104.91 102.85 109.85 107.79 
M 108.28 100.74 111.81 104.27 
M 111.81 98.79 114.64 101.62 
M 115.59 97.09 120.49 102 
M 119.36 95.39 123.98 100.01 
M 123.15 93.7 128.56 99.11 
M 126.93 92.01 131.62 96.69 
M 130.8 90.4 136.08 95.68 
M 134.66 88.79 138.43 92.55 
M 138.59 87.23 143.72 92.37 
M 142.53 85.7 147.19 90.36 
M 146.53 84.22 151.84 89.53 
M 150.59 82.8 154.85 87.07 
M 154.58 81.32 158.81 85.55 
M 158.44 79.7 161.52 82.78 
M 162.35 78.14 167.41 83.2 
M 166.39 76.7 169.84 80.15 
M 170.61 75.44 174.18 79.01 
M 175 74.36 179.98 79.34 
M 179.64 73.52 182.71 76.59 
M 158.7 99.02 157.89 98.76 156.61 97.85 155.39 97.26 155.2 96.95 
M 109.54 147.04 111.54 146.77 112.53 146.32 113.48 145.49 113.57 144.28 
M 135.85 164.38 134.98 162.66 134.79 161.83 134.97 161.01 137.74 157.59 138.25 156.16 138.59 154.15 
M 163.19 77.88 163.18 77.84 
M 158.77 109.2 157.21 109.17 
M 133.29 166.06 132.56 166.05 131.83 165.83 130.12 164.66 129.6 163.97 129.56 163 130.46 160.13 
M 161.91 140.3 159.26 141.22 158.28 141.95 157.23 142.42 155.47 142.76 155.02 142.99 
M 149.96 140.59 150.93 139.67 151.88 138.06 152.62 137.36 153.69 137.03 155.82 137.46 
M 142.26 98.97 140.3 98.77 139 97.93 135.74 94.99 134.28 92.86 132.89 91.41 131.09 90.27 
M 116.39 120.81 113.54 120.35 111.41 120.37 110.09 121.08 
M 174.15 92.81 173.3 94.05 171.56 95.99 170.14 96.77 168.3 97.46 167.24 98.11 
M 157.48 101.66 156.67 101.48 155.9 101.5 155.14 101.6 154.39 101.91 153.53 102.63 152 104.94 
M 180.37 109.19 182.66 110.33 184.33 111.85 185.15 112.33 186.03 112.68 187.54 112.97 189.81 112.98 
M 165.77 124.16 164.31 124.46 162.04 125.28 159.18 125.57 158.31 125.89 
M 140.24 135.27 139.74 132.48 139.99 130.07 140.83 128.69 142.61 127.77 
M 170.44 79 167.07 77.49 166.35 76.71 
M 152.58 133.3 153.67 132.8 155.41 132.71 155.98 132.47 156.43 131.84 156.5 130.82 
M 172.6 123.34 172.72 121.45 172.6 119.7 171.7 115.43 171.22 114.52 
M 178.38 147.58 176.75 146.76 176.44 146.36 176.21 145.62 
M 155.62 159.11 155.11 157.63 153.73 155.87 153.47 155.28 153.5 154.7 154.05 153.81 155.26 153.24 
M 87.45 130.1 88.3 131.07 89.27 132.58 90.86 134.12 91.65 134.26 92.1 134.11 92.66 133.56 
M 104.49 136.37 105.31 139.65 104.12 142.55 103.02 143.79 
M 160.75 112.85 158.01 112.06 156.92 112.16 156.18 112.97 155.83 114.01 155.97 115.99 
M 183.7 149.54 182.84 149.8 181.52 148.84 
M 96.35 138.41 98.08 137.85 98.91 137.24 99.14 136.88 99.09 130.78 
M 102.12 119.99 100.26 119.36 98.74 119.29 97.74 119.66 96.38 120.44 94.93 120.83 
M 151.64 104.36 150.25 106.03 145.98 108.34 144.28 110.02 
M 180.46 87.44 178.5 86.18 173.62 83.59 172.67 82.59 172.1 81.28 171.25 80.01 170.67 79.39 169.94 78.93 
M 89.26 132.75 90.87 134.29 91.77 134.43 92.28 134.25 92.89 133.64 93.1 132.98 92.96 132.24 
M 92.48 127.62 92.37 128.41 91.45 130.93 
M 97.03 145.18 96.21 143.7 95.94 142.41 96.28 142.02 97.68 141.15 99.21 140.72 
M 90.99 122.6 90.37 121.39 90.11 120.39 88.82 118.45 88.13 117.99 86.58 117.36 
M 150.77 124.2 150.73 125.52 151.08 126.29 154.34 128.54 
M 153.44 128.09 155.03 129.16 155.81 130.03 
M 138.76 101.26 136.18 100.14 133.55 98.41 132.57 97.59 131.84 96.71 130.23 94.02 129.87 93.32 129.65 91.95 
M 119.26 162.36 119.54 162.01 120.11 161.73 120.92 161.84 121.58 162.6 121.69 163.44 
M 154.8 116.07 155.55 117.21 155.6 118.87 
M 168.36 131.6 169.88 132.92 170.95 134.13 171.57 135.41 171.58 135.76 
M 106.12 123.22 105.79 125.13 106.19 126.65 107.51 128.33 108.56 129.16 109.51 129.65 
M 171.92 149.39 172.57 146.96 172.46 146.38 172.05 145.87 170.31 145.16 169.18 145.08 166.34 144.31 162.77 144.04 
M 137.77 158.18 138.49 156.18 138.76 154.89 138.78 153.72 138.58 153.06 137.11 150.49 136.23 148.18 135.74 147.49 
M 113.48 150.61 114.33 147.78 114.49 146.08 114.37 145.37 113.88 144.68 113.37 143.46 
M 174.59 106.46 173.53 106.12 172.97 105.72 169.6 102.18 167.67 100.99 166.43 99.96 
M 86.65 145.69 87.12 146.51 
M 83.35 142.92 83.04 143.83 83.74 143.43 
M 81.09 139.59 80.07 140.48 79.41 141.94 80.34 140.95 81.7 140.51 
M 78.83 136.46 76.83 137.98 75.77 140.06 77.1 138.45 79.57 137.46 
M 76.64 133.32 73.6 135.48 72.14 138.17 73.87 135.95 77.39 134.4 
M 74.76 129.99 70.37 132.98 68.5 136.29 70.64 133.45 75.25 131.31 
M 86.4 145.64 87.55 145.96 
M 82.54 143.79 83.24 142.73 84.12 142.13 83.77 142.87 83.84 144.39 
M 79.04 142.05 80.07 139.81 81.58 138.54 80.6 139.95 80.31 142.65 
M 75.52 140.4 76.9 136.89 79.03 134.95 77.43 137.04 76.78 141 
M 71.86 139.1 73.73 133.97 76.48 131.36 74.26 134.12 73.24 139.47 
M 76.04 145.06 80.42 148.43 83.25 150.37 86.15 152.11 89.13 153.61 92.22 154.88 98.63 157.06 
M 86.6 152.34 87.87 150.86 
M 185.28 78.88 187.94 81.55 
M 185.85 72.15 192.97 79.27 
M 191.52 70.52 200.42 79.42 
M 197.73 69.43 204.74 76.44 
M 204.05 68.44 212.5 76.89 
M 210.07 67.16 217.05 74.14 
M 215.96 65.74 225.12 74.9 
M 221.85 64.33 228.11 70.59 
M 228.05 63.23 235.6 70.78 
M 234.63 62.51 241.64 69.52 
M 241.51 62.09 250.9 71.48 
M 248.6 61.88 259.02 72.29 
M 255.9 61.87 262 67.98 
M 263.36 62.03 273.61 72.28 
M 270.66 62.02 281.41 72.78 
M 277.71 61.78 285.82 69.88 
M 285.13 61.89 294.22 70.98 
M 293.38 62.84 302.63 72.09 
M 302.04 64.19 309.33 71.49 
M 310.9 65.76 321.24 76.1 
M 320.44 67.99 326 73.56 
M 331.2 71.45 341.94 82.19 
M 342.1 75.05 348.46 81.41 
M 352.95 78.59 360.6 86.24 
M 369.76 88.1 370.22 88.56 
M 175.59 178.05 176.11 179.08 
M 177.37 175.22 179.2 178.87 
M 178.93 171.94 182.72 179.52 
M 181.33 170.35 184.59 176.88 
M 193.56 182.04 194.42 183.76 
M 195.34 179.22 198.36 185.25 
M 192.27 166.68 193.09 168.31 
M 193.9 169.94 195.54 173.21 
M 197.98 178.11 202.45 187.04 
M 194.13 164.02 198.22 172.18 
M 202.3 180.34 203.12 181.98 
M 196 161.36 200.9 171.15 
M 204.98 179.32 205.8 180.95 
M 206.61 182.58 208.25 185.85 
M 200.27 163.51 202.72 168.41 
M 205.98 174.94 211.7 186.37 
M 208.59 173.76 214.31 185.19 
M 212.02 174.22 216.1 182.39 
M 208.85 161.49 211.29 166.39 
M 210.53 158.47 214.61 166.63 
M 194.25 119.52 196.7 124.42 
M 213.03 157.08 217.93 166.88 
M 222.83 176.67 226.09 183.2 
M 195.96 116.54 197.59 119.81 
M 198.41 121.44 200.04 124.71 
M 216.17 156.96 218.82 162.27 
M 225.35 175.33 226.17 176.96 
M 226.98 178.59 229.43 183.49 
M 188.43 95.09 191.16 100.55 
M 193.61 105.45 194.42 107.09 
M 195.24 108.72 196.87 111.99 
M 198.51 115.25 200.95 120.15 
M 228.71 175.67 230.35 178.93 
M 189.62 91.1 192.07 96 
M 195.34 102.53 196.97 105.79 
M 197.79 107.43 199.42 110.69 
M 236.16 184.17 236.98 185.8 
M 185.72 76.91 187.36 80.17 
M 197.97 101.4 201.24 107.93 
M 226.55 158.55 228.18 161.82 
M 237.16 179.78 240.43 186.31 
M 243.69 192.84 245.79 197.04 
M 186.44 71.96 190.94 80.94 
M 195.02 89.11 195.83 90.74 
M 196.65 92.37 197.47 94 
M 227.69 154.44 231.76 162.59 
M 239.11 177.28 243.19 185.45 
M 246.45 191.98 248.83 196.74 
M 189.21 71.09 193.7 80.07 
M 196.96 86.61 201.04 94.77 
M 231.31 155.31 233.7 160.09 
M 241.05 174.78 245.13 182.95 
M 250.03 192.74 251.57 195.82 
M 192.07 70.42 196.56 79.4 
M 199.01 84.3 199.82 85.94 
M 200.64 87.57 203.9 94.1 
M 204.72 95.73 207.17 100.63 
M 207.99 102.27 208.8 103.9 
M 216.15 118.59 217.78 121.86 
M 234.93 156.15 235.75 157.78 
M 245.54 177.38 246.36 179.01 
M 195 69.91 195.41 70.72 
M 196.23 72.36 197.86 75.62 
M 203.58 87.05 204.39 88.68 
M 207.66 95.22 212.56 105.01 
M 216.64 113.18 220.72 121.34 
M 210.59 94.7 214.68 102.86 
M 219.57 112.66 222.84 119.19 
M 244.07 161.65 244.88 163.28 
M 213.56 94.23 216.82 100.77 
M 223.35 113.83 224.17 115.46 
M 243.76 154.65 247.85 162.82 
M 257.64 182.41 260.91 188.94 
M 263.45 194.02 263.94 195.01 
M 223.05 106.84 224.69 110.11 
M 246.73 154.19 251.63 163.99 
M 254.89 170.52 258.16 177.05 
M 258.98 178.69 263.88 188.48 
M 266.46 193.66 267.01 194.75 
M 210.48 75.3 213.74 81.83 
M 224.36 103.06 228.44 111.22 
M 246.9 148.14 248.03 150.41 
M 249.67 153.68 253.75 161.84 
M 255.38 165.11 261.1 176.54 
M 262.73 179.8 265.18 184.7 
M 266 186.33 266.81 187.97 
M 212.51 72.98 216.59 81.14 
M 222.31 92.57 223.13 94.2 
M 223.94 95.84 227.21 102.37 
M 228.02 104 231.29 110.53 
M 235.37 118.7 236.19 120.33 
M 237.01 121.96 238.64 125.23 
M 249.46 146.87 250.88 149.72 
M 255.78 159.52 257.42 162.79 
M 258.23 164.42 263.13 174.22 
M 216.18 73.92 219.45 80.45 
M 225.16 91.88 225.98 93.52 
M 226.79 95.15 229.24 100.05 
M 230.88 103.31 232.51 106.58 
M 238.22 118.01 240.67 122.91 
M 252.42 146.41 253.74 149.04 
M 259.45 160.47 265.17 171.9 
M 228.01 91.2 232.09 99.36 
M 240.26 115.69 245.05 125.27 
M 259.85 154.88 264.75 164.68 
M 277 189.17 279.79 194.75 
M 230.86 90.51 234.13 97.04 
M 235.76 100.31 237.39 103.57 
M 243.11 115 243.93 116.64 
M 245.56 119.9 247.19 123.17 
M 261.89 152.56 262.7 154.19 
M 263.52 155.83 267.6 163.99 
M 268.42 165.62 273.32 175.42 
M 279.03 186.85 283 194.79 
M 223.1 68.6 224.73 71.86 
M 230.45 83.29 231.27 84.93 
M 236.16 94.72 241.06 104.52 
M 245.96 114.32 247.59 117.58 
M 266.37 155.14 268.01 158.41 
M 272.09 166.57 276.99 176.37 
M 282.7 187.8 285.15 192.7 
M 285.87 194.13 286.17 194.74 
M 225.2 66.4 229.28 74.57 
M 230.1 76.2 235 86 
M 239.08 94.16 243.16 102.33 
M 246.43 108.86 251.33 118.66 
M 264.39 144.78 267.66 151.32 
M 273.37 162.75 279.09 174.18 
M 226.91 63.43 231.4 72.41 
M 232.22 74.05 237.93 85.48 
M 242.01 93.64 246.1 101.81 
M 249.36 108.34 254.26 118.14 
M 266.51 142.63 271.41 152.43 
M 277.12 163.86 280.39 170.39 
M 290.18 189.98 292.44 194.49 
M 229.86 62.94 231.9 67.02 
M 235.98 75.19 240.06 83.35 
M 241.7 86.62 243.33 89.88 
M 244.96 93.15 247.41 98.05 
M 251.49 106.21 255.57 114.37 
M 259.66 122.54 260.47 124.17 
M 269.45 142.13 273.54 150.3 
M 290.68 184.59 295.56 194.34 
M 242.3 81.44 245.57 87.97 
M 254.55 105.93 257.81 112.46 
M 261.08 119 264.28 125.39 
M 272.51 141.86 275.78 148.39 
M 276.59 150.02 277.41 151.65 
M 278.23 153.29 279.04 154.92 
M 288.84 174.51 292.11 181.05 
M 293.74 184.31 298.45 193.74 
M 237.19 64.83 241.28 73 
M 244.54 79.53 247.81 86.06 
M 263.32 117.09 267.4 125.25 
M 278.83 148.11 282.92 156.28 
M 291.08 172.61 295.16 180.77 
M 296.79 184.04 300.88 192.2 
M 240.29 64.64 243.56 71.17 
M 257.44 98.93 258.25 100.56 
M 265.6 115.26 269.68 123.42 
M 276.21 136.48 277.03 138.12 
M 281.11 146.28 285.2 154.45 
M 287.64 159.35 290.91 165.88 
M 294.18 172.41 297.44 178.94 
M 303.97 192 304.83 193.72 
M 241 59.67 241.41 60.49 
M 243.04 63.75 243.86 65.38 
M 244.68 67.02 246.31 70.28 
M 252.84 83.35 253.66 84.98 
M 259.37 96.41 262.64 102.94 
M 278.08 133.83 280.6 138.86 
M 283.86 145.4 285.5 148.66 
M 290.4 158.46 294.48 166.62 
M 305.91 189.48 307.89 193.45 
M 242.85 56.97 243.25 57.79 
M 255.5 82.28 258.77 88.81 
M 260.4 92.08 266.12 103.51 
M 267.75 106.77 271.01 113.3 
M 280.54 132.36 282.44 136.16 
M 285.71 142.7 286.53 144.33 
M 293.87 159.03 296.32 163.92 
M 301.22 173.72 302.04 175.35 
M 308.57 188.42 310.85 192.98 
M 257.35 79.58 261.43 87.74 
M 263.06 91.01 263.88 92.64 
M 264.69 94.28 267.96 100.81 
M 269.59 104.07 273.68 112.24 
M 280.21 125.3 280.3 125.49 
M 282.52 129.92 285.92 136.73 
M 287.56 140 289.19 143.26 
M 290 144.9 291.64 148.16 
M 303.07 171.02 307.15 179.19 
M 260.01 78.51 263.27 85.04 
M 264.09 86.68 264.91 88.31 
M 267.36 93.21 270.62 99.74 
M 272.25 103.01 276.34 111.17 
M 284.72 127.94 286.13 130.77 
M 289.4 137.3 295.12 148.73 
M 305.73 169.96 310.63 179.75 
M 254.51 61.12 256.95 66.02 
M 257.77 67.65 258.59 69.28 
M 262.67 77.45 265.12 82.35 
M 279 110.1 282.26 116.64 
M 292.06 136.23 297.78 147.66 
M 308.39 168.89 311.66 175.42 
M 250.23 46.17 250.64 46.99 
M 251.45 48.62 253.9 53.52 
M 257.17 60.05 260.43 66.58 
M 261.25 68.22 262.07 69.85 
M 281.66 109.04 285.74 117.2 
M 294.72 135.16 299.62 144.96 
M 302.89 151.49 304.52 154.76 
M 305.34 156.39 306.15 158.03 
M 317.58 180.89 318.4 182.52 
M 319.22 184.15 321.76 189.23 
M 252.48 44.29 257.38 54.09 
M 259.01 57.35 263.09 65.52 
M 283.51 106.34 289.22 117.77 
M 295.75 130.83 296.57 132.47 
M 304.73 148.79 310.45 160.22 
M 315.35 170.02 317.8 174.92 
M 319.43 178.19 324.46 188.24 
M 254.33 41.59 259.22 51.39 
M 261.67 56.29 266.57 66.08 
M 273.1 79.15 275.55 84.04 
M 279.64 92.21 282.08 97.11 
M 287.8 108.54 291.07 115.07 
M 296.78 126.5 300.05 133.03 
M 302.5 137.93 304.95 142.83 
M 306.58 146.09 307.39 147.73 
M 308.21 149.36 313.11 159.16 
M 317.19 167.32 320.46 173.85 
M 322.09 177.12 327.7 188.34 
M 257.8 42.16 259.44 45.42 
M 275.77 78.08 279.03 84.61 
M 282.3 91.14 284.75 96.04 
M 285.56 97.67 286.38 99.31 
M 293.73 114 296.18 118.9 
M 296.99 120.53 297.81 122.17 
M 299.44 125.43 303.52 133.6 
M 304.34 135.23 309.24 145.03 
M 310.87 148.29 314.95 156.46 
M 319.85 166.26 322.3 171.15 
M 324.75 176.05 325.57 177.69 
M 326.39 179.32 329.83 186.2 
M 267.05 54.26 267.87 55.89 
M 272.77 65.69 275.21 70.59 
M 279.3 78.75 281.75 83.65 
M 285.83 91.82 287.46 95.08 
M 295.63 111.41 299.71 119.57 
M 302.16 124.47 303.79 127.74 
M 304.61 129.37 305.42 131.01 
M 307.06 134.27 311.95 144.07 
M 315.22 150.6 316.04 152.23 
M 323.39 166.93 324.2 168.56 
M 332.56 185.28 333.16 186.49 
M 269.51 52.78 270.73 55.23 
M 273.18 60.13 274 61.77 
M 274.81 63.4 278.08 69.93 
M 298.49 110.75 303.39 120.55 
M 310.74 135.25 314 141.78 
M 331.15 176.07 332.78 179.33 
M 276.75 60.88 281.65 70.68 
M 312.68 132.73 314.31 136 
M 315.13 137.63 315.94 139.26 
M 324.92 157.23 329.01 165.39 
M 332.27 171.92 336.35 180.09 
M 279.13 59.26 283.62 68.24 
M 291.79 84.57 294.24 89.46 
M 299.95 100.89 300.77 102.53 
M 310.57 122.12 313.83 128.65 
M 321.18 143.35 324.45 149.88 
M 327.71 156.41 332.61 166.21 
M 335.88 172.74 339.96 180.91 
M 284.01 62.62 284.82 64.25 
M 292.99 80.58 297.89 90.38 
M 300.34 95.27 304.42 103.44 
M 313.4 121.4 317.48 129.57 
M 323.2 141 327.28 149.16 
M 330.55 155.69 334.63 163.86 
M 337.89 170.39 341.16 176.92 
M 291.43 71.07 294.7 77.6 
M 295.51 79.24 299.59 87.4 
M 302.86 93.93 306.94 102.1 
M 315.92 120.06 319.19 126.59 
M 327.35 142.92 328.99 146.18 
M 331.44 151.08 333.89 155.98 
M 292.36 66.54 298.07 77.97 
M 298.89 79.6 302.16 86.13 
M 305.42 92.67 309.51 100.83 
M 332.37 146.55 337.26 156.35 
M 342.98 167.78 345.43 172.68 
M 294.96 65.35 295.77 66.98 
M 296.59 68.61 300.67 76.78 
M 303.94 83.31 304.76 84.94 
M 305.57 86.57 308.02 91.47 
M 316.19 107.8 317.82 111.07 
M 318.64 112.7 319.45 114.33 
M 330.88 137.19 331.7 138.83 
M 334.15 143.73 339.86 155.16 
M 344.76 164.95 348.84 173.12 
M 352.25 179.94 352.81 181.04 
M 298.41 65.87 301.68 72.4 
M 305.76 80.57 306.58 82.2 
M 307.4 83.83 311.48 92 
M 318.83 106.69 321.27 111.59 
M 332.71 134.45 335.97 140.98 
M 337.6 144.25 340.05 149.15 
M 340.87 150.78 341.69 152.41 
M 347.4 163.84 351.48 172.01 
M 301.06 64.77 301.88 66.41 
M 307.59 77.84 313.31 89.27 
M 323.11 108.86 323.92 110.49 
M 335.35 133.36 339.43 141.52 
M 351.68 166.01 352.5 167.65 
M 358.02 178.69 358.23 179.11 
M 310.27 76.8 311.08 78.43 
M 311.9 80.06 315.98 88.23 
M 327.41 111.09 329.86 115.99 
M 332.31 120.89 336.39 129.05 
M 338.03 132.32 338.84 133.95 
M 339.66 135.58 340.48 137.22 
M 343.74 143.75 347.01 150.28 
M 360.07 176.4 360.9 178.05 
M 308.05 65.96 310.49 70.86 
M 315.39 80.66 317.03 83.92 
M 320.29 90.46 323.56 96.99 
M 329.27 108.42 338.25 126.38 
M 345.6 141.07 349.68 149.24 
M 361.11 172.1 363.49 176.86 
M 311.16 65.8 313.2 69.89 
M 322.18 87.85 327.08 97.65 
M 331.16 105.81 336.88 117.24 
M 337.7 118.87 340.96 125.41 
M 348.31 140.1 354.02 151.53 
M 357.29 158.06 359.74 162.96 
M 363.01 169.49 365.99 175.45 
M 314.69 66.47 315.91 68.92 
M 316.73 70.55 318.36 73.81 
M 320.81 78.71 321.63 80.35 
M 326.53 90.14 328.16 93.41 
M 333.87 104.84 337.96 113 
M 347.75 132.6 350.2 137.5 
M 351.02 139.13 355.1 147.29 
M 355.92 148.93 356.73 150.56 
M 359.18 155.46 362.45 161.99 
M 366.53 170.16 368.48 174.05 
M 318.35 67.41 322.03 74.76 
M 322.84 76.39 326.93 84.55 
M 344.07 118.84 344.89 120.48 
M 348.97 128.64 353.05 136.81 
M 354.68 140.07 355.5 141.7 
M 362.03 154.77 365.3 161.3 
M 322.07 68.44 324.11 72.53 
M 324.92 74.16 329.01 82.32 
M 340.44 105.19 342.89 110.08 
M 343.7 111.72 348.6 121.51 
M 351.87 128.05 355.13 134.58 
M 356.77 137.84 358.4 141.11 
M 362.48 149.27 363.3 150.91 
M 364.11 152.54 364.93 154.17 
M 325.86 69.65 332.8 83.53 
M 336.07 90.06 337.7 93.32 
M 341.78 101.49 345.05 108.02 
M 347.5 112.92 350.76 119.45 
M 358.93 135.78 362.19 142.31 
M 363.83 145.58 369.54 157.01 
M 329.71 70.94 334.2 79.93 
M 337.46 86.46 340.73 92.99 
M 343.99 99.52 348.89 109.32 
M 350.53 112.58 352.97 117.48 
M 361.96 135.44 366.04 143.61 
M 366.85 145.24 371.75 155.04 
M 375.02 161.57 376.39 164.31 
M 340.49 86.13 342.94 91.02 
M 346.21 97.56 351.1 107.35 
M 364.98 135.11 367.43 140.01 
M 369.07 143.28 373.97 153.07 
M 376.41 157.97 378.18 161.5 
M 351.69 102.13 355.77 110.29 
M 359.03 116.82 359.85 118.45 
M 368.83 136.42 370.46 139.68 
M 374.55 147.85 375.36 149.48 
M 353.04 98.45 357.94 108.25 
M 360.39 113.14 362.84 118.04 
M 363.66 119.68 364.47 121.31 
M 371 134.37 373.45 139.27 
M 344.98 75.93 347.83 81.64 
M 355.18 96.34 360.08 106.14 
M 361.71 109.4 367.43 120.83 
M 373.96 133.9 377.91 141.79 
M 348.79 77.17 350.02 79.62 
M 359 97.58 360.63 100.84 
M 364.71 109.01 369.61 118.81 
M 376.14 131.87 378.18 135.94 
M 352.65 78.49 353.05 79.3 
M 357.95 89.1 360.4 94 
M 361.22 95.63 362.04 97.27 
M 367.75 108.7 368.57 110.33 
M 371.02 115.23 371.83 116.86 
M 360.35 87.5 364.43 95.67 
M 362.94 86.3 366.21 92.83 
M 373.56 107.53 377.7 115.83 
M 371.68 97.39 373.32 100.66 
M 375.77 105.56 378.18 110.38 
M 372.08 91.8 372.9 93.43 
M 373.72 95.07 377.78 103.2 
"/></svg>