<svg xmlns="http://www.w3.org/2000/svg" width="520" height="320"><rect x="0" y="0" width="520" height="320" fill="floralwhite"/><rect x="10" y="10" width="500" height="300" stroke="black" stroke-width="1" fill="none"/><path stroke="black" stroke-width="1" fill="none" stroke-linecap="round" stroke-linejoin="round" d="
M 123.31 147.77 138.5 139.85 147.17 135.78 155.97 131.98 173.72 124.75 182.81 121.71 192.09 119.32 201.49 117.46 211.03 116.6 230.19 116.13 239.76 116.62 249.13 118.64 258.22 121.66 267.15 125.16 275.93 128.99 293.62 136.37 302.35 140.31 310.89 144.66 336.13 158.43 368.79 175.24 
M 368.79 196.58 347.63 209.91 339.43 214.86 331.08 219.58 322.64 224.11 314.07 228.39 305.32 232.31 296.5 236.04 287.66 239.74 278.54 242.7 269.31 245.28 260.02 247.62 250.59 249.31 241.06 250.34 231.49 250.69 221.91 250.46 212.32 250.55 202.74 250.39 193.32 248.62 184.11 246 175 243 165.99 239.76 156.88 236.79 147.84 233.59 139.04 229.81 130.48 225.49 113.15 215.68 
M 130.56 173.25 134.35 173.38 
M 198.77 173.07 203.72 172.64 211.26 171.19 
M 214.38 170.75 218.85 169.9 220.12 169.4 
M 235.68 167.66 243.04 167.2 246.27 167.37 248.05 167.65 
M 251.65 168.26 255.18 168.81 
M 258.42 169.11 264.61 169.47 
M 267.92 169.86 276.31 170.86 280.18 171.67 289.06 174.18 293.01 174.84 300.45 175.71 306.65 176.93 
M 310.92 177.86 313.03 178.29 316.86 178.75 327.61 178.98 331.12 178.87 348.16 177.7 357.2 176.12 360.7 176.2 368.79 177.19 
M 114.96 213.88 117.67 218.26 
M 131.41 145.72 130.73 147.33 129.87 148.78 
M 132.3 220.11 133.64 223.06 
M 135.32 226.81 135.94 228.25 
M 137.19 143.44 136.07 146.83 
M 128.15 161.75 128.05 161.95 
M 141.16 223.78 143.76 231.84 
M 142.52 145.26 141.79 148.99 
M 140.79 152.46 139.5 155.65 
M 136.79 161.97 133.87 172.04 
M 150.95 228.66 153.12 235.46 
M 150.05 149.28 149.6 155.45 149.33 157.38 
M 148.53 161.03 147.39 164.34 
M 159.31 225.65 161.27 232.7 
M 162.28 236.1 163.14 238.83 
M 160.27 142.67 159.01 145.72 
M 157.53 157.29 157.52 159.46 157.06 163.4 155.84 168.78 
M 168.86 229.07 169.68 232.4 
M 171.55 239.15 172.62 242.15 
M 171.45 146.15 169.7 148.69 
M 163.18 169.27 163.12 169.51 
M 176.2 222.52 178.98 233.95 180.02 237.51 182.09 243.17 
M 183.2 137.83 181.53 144.69 
M 179.31 151.01 178.62 152.46 176.96 155.1 175.03 157.48 173.34 160.11 172.32 163.42 171.91 168.05 
M 184.94 218.05 185.15 218.84 
M 186.81 225.87 188.6 234.28 190.29 239.79 
M 191.45 243.39 192.42 246.69 
M 191.92 139.57 190.81 142.72 
M 189.88 146.04 187.99 154.84 187.41 156.41 
M 184.62 162.23 183.93 163.7 183.39 165.33 
M 193.83 215.45 195.81 223.93 198.39 233.23 
M 199.22 236.69 199.9 239.93 
M 200.58 243.07 202.33 250.31 
M 206.62 122.15 204.4 128.63 
M 202.2 135.08 201.15 138.31 
M 199.23 144.94 198.3 148.28 
M 197.45 151.72 196.84 155.4 
M 195.9 163.09 195.1 166.61 
M 201.34 204.59 201.91 209.3 205.96 225.63 
M 207.73 232.76 209.54 241.08 211.15 250.53 
M 215.13 129.38 213.8 132.39 
M 212.39 135.3 210.32 139.68 207.73 147.8 
M 206.76 151.13 205.52 156.36 204.64 161.98 
M 206.29 188.45 207.33 192.29 
M 208.58 196.31 209.56 200.08 
M 210.18 203.47 211.01 208.46 212.33 213.91 
M 214.1 221.16 215.14 224.92 
M 216.3 228.79 217.87 234.39 219.39 242.34 
M 219.63 247.36 219.71 250.48 
M 224.34 128.49 224.09 130.41 223.13 133.79 220.33 139.61 219.15 142.72 216.88 151.22 
M 215.8 154.46 212.75 164.47 
M 211.85 168.63 211.48 171.13 
M 214.1 180.71 215.01 184.42 
M 216.55 191.56 217.24 197.85 
M 217.87 201.29 218.71 204.91 
M 220.38 212.15 221.15 215.68 
M 223.09 223.11 224.61 228.71 225.58 233.7 
M 226.24 236.98 227.37 241.91 228.12 246.28 
M 232.31 135.74 231.88 137.46 230.14 142.19 
M 227.7 148.37 226.28 151.3 
M 223.53 157.28 221.26 163.78 
M 220.25 167.5 219.78 169.56 
M 225.37 199.07 225.93 203.85 226.58 207.3 227.1 209.22 
M 228.31 213.21 230.88 221.29 
M 231.75 224.89 233.64 234.79 
M 234.49 238.2 235.42 241.63 
M 236.48 245.13 237.67 248.72 
M 240.56 140.69 238.81 147.6 
M 237.64 150.79 236.96 152.29 233.27 157.4 231.59 160.14 227.72 167.6 
M 231.39 186.82 232.17 190.45 
M 233.82 200.62 234.32 203.95 
M 236.92 212.15 239.4 218.79 240.36 222.49 242.24 232.44 244.04 239.39 245.73 244.81 
M 247.04 248.56 247.43 249.65 
M 250.51 135.62 249.67 139.11 
M 247.78 145.89 245.9 150.59 242.73 156.27 239.03 163.73 
M 237.67 166.4 237.06 167.58 
M 240.62 186.78 241.55 190.58 
M 243.24 200.83 243.38 202.39 244.09 205.92 245.17 209.8 250.22 225.84 252.18 234.4 
M 252.95 237.75 254.14 242.72 255.9 248.36 
M 256.3 144.39 253.57 150.46 
M 249.58 159.85 248.94 161.45 247.31 164.34 245.32 167.27 
M 248.31 180.2 249.31 184.06 
M 250.13 187.74 250.86 191.34 
M 252.04 198.22 252.72 203.15 253.59 206.83 257.56 219.08 262.98 240.22 264.82 246.41 
M 266.91 128.22 266.39 132.01 
M 265.93 135.86 265.65 137.74 265.16 139.42 
M 264.02 142.62 262.06 147.25 260.39 152.24 
M 259.4 155.72 257.94 161.02 256.04 166.65 
M 260.54 192.65 262.29 200.07 
M 263.23 203.82 264.26 207.64 
M 265.22 211.37 266.08 214.97 
M 266.96 218.56 269.17 226.09 
M 270.81 232.91 272.05 237.96 274.1 243.94 
M 273.52 133.97 272.71 137.48 
M 271.08 144.56 269 151.35 
M 268.06 154.89 266.75 160.34 264.22 168.3 
M 268.68 186.87 269.81 190.84 
M 272.42 199.09 274.25 205.1 275.19 208.81 275.84 212.2 276.88 219.94 
M 277.54 223.23 279.69 231.79 280.79 235.38 282.6 240.39 
M 280.93 144.86 280.6 146.74 279.64 150.23 277.25 156.8 276.36 160.43 274.76 165.65 
M 273.69 168.95 273.18 170.54 
M 276.21 183.39 277.56 187.54 
M 280.81 196.36 282.31 200.61 
M 283.54 204.58 284.9 209.98 285.47 213.21 286.63 222.09 287.83 228.24 289 231.83 290.76 236.28 
M 290.65 145.2 288.79 152.3 
M 287.78 155.82 287.29 157.6 286.62 161.49 286.22 165.67 285.46 169.5 284.02 172.83 
M 286.04 181.66 287.37 185.71 
M 288.98 190.03 290.48 194.21 
M 291.58 197.98 293.92 209.43 296.92 222.34 298.24 227.22 
M 298.99 230.01 299.28 231.17 
M 301.41 142.4 297.83 161.42 
M 297.24 165.43 296.35 171.46 295.4 175.08 
M 295.85 176.84 296.83 180.43 
M 297.94 184.16 299.81 191.2 
M 300.49 194.44 301.84 200.85 
M 302.55 204.04 304.31 210.67 
M 305.16 213.92 306.26 218.54 308.65 226.3 
M 309.87 146.43 309.53 148.33 309.41 150.46 
M 309.19 154.75 308.02 169.55 307.26 173.41 306.35 176.84 
M 311.23 192.8 311.88 195.87 
M 312.43 198.81 313.11 203.03 314.22 207.62 
M 315.09 210.78 316.59 215.67 318.81 221.73 
M 319.22 160.21 318.69 171.02 317.98 177 
M 321.55 190.8 323.13 195.78 323.86 198.76 326.21 209.91 328.16 216.15 
M 329.87 157.01 329.54 161.14 
M 329.34 165.41 329.05 171.84 328.5 175.8 327.62 178.98 
M 329.3 183.92 330.68 187.46 
M 332.13 191.06 333.78 195.9 335.82 204.22 337.72 210.84 
M 340.25 162.33 338.74 171.84 337.11 178.4 
M 340.41 186.8 342.75 192.17 343.86 195.28 346.05 204.02 
M 348.74 170.19 346.74 177.82 
M 348.57 182.56 351.93 190.76 354.12 197.61 
M 203.29 179.33 204.28 178.09 204.54 176.6 204.5 175.33 204.25 174.36 203.87 173.93 203.46 173.91 
M 316.59 160.16 316.79 157.84 317.05 156.82 317.26 156.6 317.87 156.66 
M 155.21 225.52 154.42 226.71 153.84 227.88 153.55 229.15 152.04 231.8 
M 221.25 122.24 220.94 123.52 220.47 124.38 218.75 125.42 217.27 127.25 
M 213.97 125.23 213.02 127.58 212.39 128.36 206.74 131.55 
M 267.44 206.57 266.93 205.72 266.01 205.3 264.69 204.97 263.86 204.44 263.18 203.5 262.17 200.99 
M 216.38 171.43 217.08 172.85 217.7 173.58 218.3 174.02 219.12 174.24 219.47 173.97 219.77 173.36 
M 221.06 141.05 220.97 140.05 220.34 138.26 218.36 136.17 216.4 134.66 
M 185.42 153.47 183.63 154.69 182.9 155.6 182.69 156.14 182.95 157.43 185.58 160.72 
M 143.09 171.81 142.84 170.62 142.96 169.72 143.26 169.39 144.16 169.06 
M 237.24 171.59 237.16 171.97 236.45 173.02 236.18 173.23 235.99 173.11 
M 361.98 171.77 360.27 172.01 358.9 172.43 358.49 172.8 357.58 175.32 
M 249.61 175.71 250.18 174.15 250.72 173.36 252.69 172.89 253.25 172.5 
M 227.84 128.16 227.02 128.89 224.96 129.72 223.22 131.01 222.59 131.23 221.44 131.05 218.96 129.73 
M 277.74 166.84 277.47 163.92 276.94 161.94 276.52 161.66 275.21 161.63 
M 199.47 238.13 199.14 239.68 199.27 240.2 199.87 240.42 200.69 240.05 
M 221.13 196.46 221.64 196.29 222.54 195.47 223.51 192.01 223.64 190.38 223.49 189.71 223.01 189.06 222.79 188.44 
M 191.11 172.75 190.47 171.94 189.74 171.42 189.25 171.27 188.63 171.31 
M 169.72 168.22 169.7 168.49 
M 237.45 208.89 236.66 208.84 235.9 208.99 234.85 210.02 232.2 211.95 230.97 212.67 229.73 213.11 
M 193.31 127.18 195.83 126.73 198.18 127.27 198.75 127.26 
M 169.54 241.04 169.15 240.24 
M 208.36 225.13 210.23 223.31 210.97 222.33 211.96 222.2 
M 119.88 217 121.43 218.57 122.86 221.24 
M 203.57 116 260.62 30 261.34 30.46 206.74 116.77 
M 216.42 115.63 254.56 51.86 255.31 52.29 219.54 116.39 
M 229.32 115.33 255.21 73.09 255.95 73.52 232.46 116.05 
M 242.25 116.31 260 93.48 260.7 93.98 245.18 117.48 
M 254.73 119.76 263.63 111.07 264.28 111.63 257.39 121.34 
M 264.83 123.67 266.02 124.67 
M 255.82 39.18 253.63 43.13 251.93 47.22 251.37 49.33 251 51.5 250.81 53.72 250.75 58.24 
M 251.69 58.78 250.79 62.95 250.41 67.1 250.51 69.16 250.82 71.21 251.31 73.25 252.62 77.31 
M 253.55 77.86 253.52 82.11 253.99 86.24 254.51 88.23 255.22 90.17 256.11 92.06 258.22 95.76 
M 259.1 96.39 258.83 100.1 259.07 103.69 259.47 105.42 260.07 107.1 260.85 108.74 262.74 111.94 
M 263.56 112.65 262.92 115.43 262.8 118.13 263.02 119.42 263.45 120.68 264.06 121.91 265.6 124.32 
M 254.69 41.15 252.69 45.15 251.93 47.22 251.37 49.33 251 51.5 250.74 55.97 
M 250.89 47.75 249.07 51.41 248.38 53.29 247.53 57.2 247.29 61.28 
M 247.1 54.36 245.45 57.66 244.36 61.11 244.06 62.9 243.84 66.58 
M 243.3 60.96 241.83 63.91 241.27 65.44 240.58 68.6 240.39 71.89 
M 239.51 67.57 238.21 70.17 237.71 71.51 237.11 74.3 236.94 77.2 
M 235.71 74.17 234.16 77.58 233.64 79.99 233.49 82.51 
M 231.92 80.77 230.61 83.66 230.16 85.69 230.04 87.81 
M 228.12 87.38 227.05 89.73 226.69 91.39 226.59 93.12 
M 251.2 60.87 250.51 65.03 250.41 67.1 250.51 69.16 250.82 71.21 251.93 75.28 
M 247.42 68.62 246.83 72.2 246.74 73.98 247.09 77.52 248.05 81.02 
M 243.64 76.38 243.14 79.37 243.07 80.86 243.37 83.82 244.16 86.76 
M 239.86 84.13 239.4 87.75 239.64 90.13 240.28 92.49 
M 236.08 91.89 235.78 93.72 235.78 95.54 236.4 98.23 
M 253.5 79.99 253.67 84.2 253.99 86.24 254.51 88.23 255.22 90.17 257.13 93.92 
M 249.67 88.55 249.8 91.77 250.04 93.34 250.99 96.35 252.45 99.23 
M 245.84 97.11 246.1 100.44 246.76 102.53 247.77 104.53 
M 258.93 98.25 258.86 101.91 259.07 103.69 259.47 105.42 260.07 107.1 261.76 110.35 
M 128.89 175.7 151.02 167.72 151.34 168.52 128.58 178.27 
M 127.83 180.51 190.71 162.84 190.95 163.67 127.04 183.61 
M 126.61 185.3 200.2 171.29 200.37 172.13 125.67 188.37 
M 125.03 189.86 210.8 181.05 210.9 181.91 123.68 192.93 
M 123.14 194.15 205.89 192.94 205.91 193.8 122.32 197.1 
M 122.12 198.15 204.47 204.14 204.42 205 121.3 201.05 
M 121.02 201.95 206.36 215.66 206.23 216.51 120.24 204.84 
M 120.04 205.59 187.67 222.81 187.47 223.65 118.87 208.38 
M 118.65 208.91 176.69 229.35 176.42 230.17 117.03 211.55 
M 116.74 212.01 150.87 227.99 150.53 228.78 115.23 214.72 
M 147.84 170.02 155.85 169.99 163.79 169.45 167.71 168.89 171.61 168.12 175.48 167.18 183.18 164.96 
M 183.48 166 184.61 168.38 186.06 170.36 186.98 171.13 188.03 171.74 189.19 172.21 191.73 172.9 
M 191.95 173.96 193.3 176.59 194.09 177.78 194.99 178.83 196.03 179.72 198.49 181.07 201.28 182.03 
M 201.41 183.11 199.39 184.86 197.85 186.83 197.35 187.94 197.03 189.13 196.88 190.4 196.88 193.07 
M 196.91 194.16 195.53 196.08 195 197.07 194.66 198.08 194.51 199.11 194.81 201.27 195.62 203.5 
M 195.56 204.58 194.86 206.92 194.68 208.06 194.68 209.16 194.87 210.23 195.85 212.27 197.33 214.21 
M 197.17 215.28 193.11 215.5 191.14 215.78 189.22 216.22 187.37 216.85 183.86 218.68 180.52 220.99 
M 180.27 222.05 177.61 222.23 176.36 222.46 175.2 222.86 174.13 223.43 172.27 225.1 170.65 227.23 
M 170.31 228.26 165.32 226.74 162.81 226.15 160.28 225.73 157.74 225.52 152.6 225.69 147.43 226.38 
M 151.85 170.04 159.83 169.81 163.79 169.45 167.71 168.89 171.61 168.12 179.33 166.1 
M 184.02 167.22 185.28 169.44 186.06 170.36 186.98 171.13 188.03 171.74 190.44 172.58 
M 160.16 174.21 160.97 175.66 161.48 176.26 162.76 177.15 164.33 177.7 
M 192.6 175.3 194.09 177.78 194.99 178.83 196.03 179.72 197.2 180.47 199.86 181.58 
M 174.69 178.88 175.83 180.78 176.52 181.58 178.21 182.84 180.26 183.69 
M 156.78 182.46 158.05 184.34 159.23 185.22 160.65 185.81 
M 200.37 183.97 198.54 185.81 197.85 186.83 197.35 187.94 197.03 189.13 196.84 191.72 
M 180.65 186.33 179.24 187.74 178.33 189.37 178.09 190.29 177.94 192.27 
M 160.92 188.69 159.95 189.67 159.31 190.81 159.04 192.82 
M 196.18 195.11 195 197.07 194.66 198.08 194.51 199.11 194.57 200.18 195.18 202.38 
M 177.43 195.67 176.53 197.17 176.27 197.95 176.2 199.56 176.67 201.25 
M 158.69 196.24 157.88 197.82 157.83 198.94 158.16 200.11 
M 195.17 205.75 194.68 208.06 194.68 209.16 194.87 210.23 195.27 211.27 196.55 213.24 
M 176.66 204.64 176.28 206.4 176.43 208.07 176.74 208.86 177.72 210.38 
M 158.15 203.52 157.89 204.75 157.99 205.91 158.89 207.51 
M 195.13 215.36 191.14 215.78 189.22 216.22 187.37 216.85 185.59 217.68 182.18 219.8 
M 167.38 211.52 164.78 211.79 162.34 212.49 161.18 213.03 158.96 214.41 
M 178.93 222.11 176.36 222.46 175.2 222.86 174.13 223.43 173.15 224.19 171.44 226.14 
M 156.85 217.11 155.18 217.35 153.73 217.98 153.09 218.47 151.98 219.73 
M 167.82 227.46 162.81 226.15 160.28 225.73 157.74 225.52 155.18 225.52 150.02 226 
M 196.01 248.22 198.49 254.7 197.74 255.13 193.34 249.78 
M 183.69 244.75 197.62 277.55 196.84 277.92 180.88 246.05 
M 171.54 240.72 182.02 273.75 181.21 274.03 168.62 241.76 
M 159.36 236.7 166.12 266.42 165.29 266.64 156.36 237.5 
M 145.24 231.77 145.37 238.7 144.52 238.86 142.19 232.32 
M 197.3 254.6 195.96 258.91 195.13 263.25 195.01 265.44 195.1 267.63 195.36 269.84 196.23 274.27 
M 195.24 274.73 192.39 272.72 189.39 271.2 187.8 270.73 186.15 270.45 184.46 270.34 180.97 270.45 
M 179.95 270.81 177.22 268.19 174.27 266.03 172.66 265.21 170.95 264.57 169.17 264.1 165.45 263.45 
M 164.4 263.73 161.06 257.35 157.3 251.29 155.18 248.43 152.9 245.69 150.48 243.07 145.36 238.01 
M 193.83 273.69 190.91 271.87 189.39 271.2 187.8 270.73 186.15 270.45 182.72 270.36 
M 190.74 268.37 188.34 266.88 187.08 266.32 184.41 265.7 181.58 265.63 
M 187.65 263.06 185.76 261.88 184.76 261.44 182.66 260.95 180.43 260.89 
M 184.56 257.74 182.45 256.56 180.92 256.2 179.29 256.16 
M 178.6 269.46 175.79 267.03 174.27 266.03 172.66 265.21 170.95 264.57 167.32 263.74 
M 175.19 262.4 173.03 260.53 171.86 259.76 169.32 258.65 166.54 258.01 
M 171.77 255.33 169.46 253.49 167.69 252.72 165.76 252.28 
M 357.74 203.5 362.16 207.21 367.19 209.14 363.86 212.69 361.92 214.38 360.41 216.51 358.46 218.2 356.8 220.08 354.53 221.31 351.63 221.82 348.35 221.67 345.6 222.41 343.5 223.94 342.21 226.16 341.58 229.1 340.02 231.19 339 233.71 336.52 234.52 330.46 235.39 328.67 237.22 324.05 238.85 322.03 240.4 316.6 242.22 313.05 245.94 308.03 247.96 306.94 250.44 304.22 255.01 302.52 256.94 300.59 258.66 297.8 259.34 295.98 261.04 295.21 263.9 293.1 265.39 290.62 266.46 285.19 267.99 283.59 270.03 281.28 271.37 278.57 272.04 273.92 274.11 271.83 275.59 270.49 278.73 266.33 280 266 277.28 264.93 273.45 260.09 269.71 258 267.68 257.26 265.37 255.02 262.81 252.79 260.88 249.59 256.03 248.03 253.27 245.63 249.95 
M 354.11 205.8 358.76 210.12 
M 350.48 208.1 353.5 214.24 
M 346.83 210.39 351.39 214.94 
M 343.15 212.61 348.03 215.97 350.81 218.73 
M 339.47 214.83 346.41 220.53 
M 335.76 217 340.86 221.27 343.3 223.02 
M 331.99 219.07 336.59 223.02 340.06 226.32 
M 328.23 221.15 335.51 228.37 
M 324.43 223.17 328.81 227.61 
M 320.62 225.17 324.61 228.07 326.66 231.24 329.95 233.44 
M 316.81 227.15 321.28 229.53 
M 312.89 228.93 316.72 232.02 319.31 233.85 320.96 236.55 
M 308.98 230.7 313.06 234.27 317.58 238.61 
M 305.04 232.43 308.25 236.38 313.13 241.34 
M 301.08 234.11 304.44 237.6 307.04 240.65 309.51 242.72 311.86 245.19 
M 297.12 235.78 300.2 239.5 302.84 241.73 304.5 244.54 
M 293.15 237.44 296.73 241.19 298.79 243.79 
M 289.19 239.1 293.14 243.22 296.08 245.57 300.43 249.99 
M 285.18 240.64 291.65 246.81 296.2 251.52 298.34 254.8 299.09 256.9 
M 281.07 241.92 284.11 245.4 286.77 247.65 289.22 250.13 292.71 252.51 
M 276.96 243.19 281.82 249.28 284.33 251.35 287.02 253.96 289.81 256.12 292.17 258.66 
M 272.82 244.33 279.66 252.37 282.01 254.71 284.65 256.98 
M 268.67 245.45 271.85 248.6 273.66 250.8 274.98 253.16 277.15 254.73 279.22 257.08 
M 264.5 246.54 267.49 249.94 272.38 256.74 275.02 259.07 
M 260.33 247.55 265.05 253.73 267.24 256.14 270.98 260.84 273.23 262.79 
M 256.15 248.57 260.73 255.4 266.39 262.22 269 263.87 272.82 269.65 
M 251.89 249.15 254.38 252.54 260.95 263.15 262.86 265.13 
M 367.93 174.8 370.65 174.18 373.03 172.86 382.07 166.54 384.2 165.71 391.47 161.81 393.56 160.87 395.72 159.47 399.5 156.54 403.53 152.96 405.87 151.36 407.88 150.37 410.35 148.55 418.56 145.7 421.19 142.81 422.23 141 424.23 140.65 427.55 139.53 430.34 138.18 433.45 137.57 438.21 133.19 439.89 131.35 440.53 130.06 442.07 129.16 445.2 128.74 447.31 127.57 455.69 120.8 458.05 118.7 460.93 116.58 465.64 114.23 468.44 112.64 470.44 111.75 459.97 128.37 458.93 130.95 457.67 133.31 455.9 135.16 453.64 136.52 451.87 138.37 451.25 141.38 450.08 143.82 446.48 147.21 444.92 149.15 443.63 151.35 442.63 153.85 441.17 155.89 438.91 157.26 436.94 158.91 434.41 160.01 432.74 161.95 430.66 163.52 429.61 166.08 428.14 168.23 426.91 170.61 425.39 172.7 421.33 175.5 419.14 176.66 416.65 177.52 414.78 179.2 413.79 181.35 413.07 183.82 411.53 185.93 409.84 187.88 407.58 189.14 406.79 191.49 407.38 193.97 408.37 196.24 409.83 200.77 411.03 203.61 413.07 206.98 413.93 209.07 414.38 210.63 417.43 215.41 419.84 218.68 420.61 220.98 421.16 224.73 424.09 229.8 426.47 237.55 422.97 235.04 419.04 233.85 416.06 232.21 414.39 230.31 411.67 228.4 408.59 227.31 402.45 221.23 400.49 220.18 396.89 217.79 392.24 213.09 389.93 211.37 387.76 210.24 383.19 208.31 381 206.46 378.42 204.66 375.51 202.92 370.61 199.38 367.93 197.11 
M 367.93 176.11 370.71 175.69 373.28 174.66 375.72 173.4 380.54 170.44 382.66 168.91 385.08 167.63 387.81 166.51 390.32 165.7 392.29 164.52 394.92 164.38 397.22 163.12 399.75 162.1 401.98 160.71 404.89 158.5 407.15 157.07 408.68 155.35 409.89 154.56 412.1 153.69 414.89 151.95 420.35 150.06 422.12 148.43 423.16 146.98 425.23 145.91 427.27 144.51 430.77 143.51 436.56 141.39 438.51 140.34 440.94 138.31 443.14 136.74 445.43 135.39 447.15 135.5 448.75 135.26 452.1 135.38 454.08 132.51 
M 373.58 176.37 376.25 175.37 378.71 174.02 381.31 172.84 383.54 171.25 385.95 169.98 391.33 167.99 398.13 166.45 400.78 165.65 403.03 163.79 406.53 162.34 409.75 160.17 410.73 159.17 412.06 158.23 416.18 157.04 419.24 155.29 422.1 155.32 423.72 153.74 426 152.92 428.01 152.52 430.87 151.12 432.94 149.74 438.52 148.38 441.04 146.3 
M 373.87 178.31 379.46 176.71 382.24 175.56 384.85 174.15 392.48 171.05 400.17 169.24 402.17 168.02 404.21 167.1 408.19 166.99 410.58 166.06 411.82 164.47 
M 367.93 180.05 371.25 180.31 377.2 179.6 385.65 177.1 390.82 176.17 397.69 173.23 400.85 172.69 402.9 171.7 405.82 171.12 409.19 170.86 
M 374.21 181.53 377.2 181.25 380.39 181.26 385.95 179.92 391.79 179.74 394.82 177.84 397.34 177.15 400.11 176.82 403.69 176.96 407.76 176.29 410.5 175.6 411.9 174.12 413.12 173.17 415.76 172.16 418.66 171.75 422.75 172.53 
M 367.93 182.67 371.7 183.06 377.37 182.82 383.86 183.29 386.8 182.67 389.14 182.41 393.51 182.23 395.5 181.73 397.66 180.87 
M 378.17 185.04 380.93 185.5 386.42 185.69 388.54 185.47 390.72 184.9 393.1 185.56 395.38 185.59 398.74 184.31 402.31 184.86 405.48 185.09 408.6 184.35 
M 372.1 185.84 378.37 186.96 384.08 187.67 385.69 188.14 387.65 188.22 389.94 188.95 393.25 188.73 398.45 188.04 401.68 188.95 405.07 189.02 
M 372.13 187.51 378.36 188.98 384.02 189.88 385.54 190.7 390.53 191.17 396.58 190.91 398.71 191.69 401.98 191.47 
M 371.95 189.13 377.83 191.07 383.07 192.43 385.9 192.75 388.93 192.53 391.65 192.89 395.05 193.59 
M 377.16 192.83 379.8 193.74 385.66 195.15 389.46 195.38 392.77 195.17 395.38 196.5 
M 367.93 190.55 374.24 193.32 376.78 194 379.7 195.49 385.31 197.78 392.32 197.8 394.29 199.39 396.49 200.3 401.89 201.63 405.04 202.81 407.86 203.21 410.18 204.17 
M 367.93 191.86 371.12 193.61 376.36 195.61 379.57 197.45 382.29 198.77 385 199.21 391.15 200.69 393.7 201.73 396.03 203.25 402.47 205.77 404.79 205.92 409.7 207.95 
M 367.93 193.17 370.87 194.95 376.37 197.46 378.96 199.41 381.75 200.7 387.43 201.74 393.23 203.19 
M 367.93 194.48 370.81 196.5 376.19 199.27 378.86 201.12 381.88 202.19 386.52 204.2 389.51 205.01 392.2 206.05 394.87 207.63 400.17 212.06 404.85 214.63 405.92 216.43 408.34 217.77 411.06 218.62 413.53 219.59 416.59 222.15 418.88 223.61 
M 367.93 195.8 373.29 199.65 375.96 201.06 378.83 202.83 381.93 203.81 384.21 205.66 386.48 206.98 388.79 207.69 390.63 209.05 393.8 210.73 396.21 213.29 400.88 216.85 402.67 217.54 403.95 218.28 406.84 219.58 408.99 221.26 410.9 223.12 413.88 225.25 419.02 227.53 
M 274.45 127.35 277.64 128.71 279.33 128.67 282.4 127.3 284.08 127.45 286.54 132.56 289.73 133.86 291.4 133.83 294.53 132.6 296.09 132.86 297.23 135.72 298 137.07 301.15 138.57 303 138.66 306.69 138.26 308.05 139.27 309.45 142.51 310.57 143.68 313.63 145.25 319.05 144.89 321.13 149.47 322.55 150.39 323.9 151.06 325.59 151.51 328.86 151.03 330.28 151.87 332.07 155.07 333.45 156.21 336.6 157.68 340.04 157.46 341.73 158.13 343.56 161.04 344.99 162.28 347.97 163.68 349.57 163.56 351.41 163.68 353.07 164.17 356.09 167.97 357.74 169.61 
M 55.78 194.12 59.32 186.97 61.76 183.29 65.43 180.07 73.97 174.29 82.19 167.65 87.08 164.03 98.23 157.92 103.8 155.22 113.73 151.1 123.31 147.84 125.73 151.78 126.4 155.54 128.39 163.14 129.07 166.9 129.16 170.56 128.73 177.81 127.57 181.29 126.76 184.82 125.7 188.31 122.69 195.17 122.02 198.72 120 205.72 118.54 209.16 116.43 212.49 113.15 215.58 104.45 215.03 98.08 214.34 92.37 213.6 82.56 211.69 78.14 210.56 73.97 209.25 66.82 206.53 
M 110.73 175.35 110.3 178.46 107.46 184.17 105.79 186.66 102.37 190.86 101.45 194.8 101.13 198.62 100.72 200.69 99.5 203 89.64 202.61 85.54 202.6 77.75 202.14 74.01 201.51 70.45 200.44 
M 65.06 206.29 53.68 198.67 52.3 197.03 52.54 194.93 54.22 193.66 56.12 194.21 60.63 199.04 66.89 206.44 
M 66.66 207.23 58.27 209.28 51.75 210.22 49.85 209.05 49.55 207.01 51.02 205.46 53.25 205.36 66.59 206.35 
M 84.23 185.82 82.44 183.3 81.55 180.34 81.68 177.26 82.8 174.38 84.8 172.02 87.45 170.44 90.48 169.81 93.54 170.19 96.32 171.55 98.5 173.73 99.86 176.5 100.24 179.57 99.6 182.59 98.02 185.24 95.67 187.24 92.79 188.36 89.7 188.49 86.74 187.61 84.23 185.82 
M 96.97 174.82 98.06 177.04 98.36 179.49 97.86 181.91 96.59 184.03 94.71 185.63 92.4 186.53 89.94 186.63 87.57 185.92 85.56 184.49 
M 87.57 181.19 86.85 180.18 86.5 179 86.55 177.77 87 176.61 87.79 175.67 88.85 175.04 90.06 174.79 91.29 174.94 92.4 175.48 93.27 176.36 93.82 177.47 93.97 178.69 93.72 179.9 93.08 180.96 92.14 181.76 90.99 182.21 89.75 182.26 88.57 181.91 87.57 181.19 
M 87.41 180.85 88.2 181.64 
M 87.48 178.6 91.06 182.18 
M 88.96 177.76 92.58 181.38 
M 90.59 177.07 93.61 180.08 
M 91.78 175.93 93.89 178.04 
M 56.98 191.7 60.36 195.08 
M 58.69 188.26 62.08 191.65 
M 60.61 185.02 63.55 187.95 
M 62.98 182.22 67.76 187 
M 65.76 179.85 68.36 182.45 
M 68.83 177.75 72.53 181.45 
M 71.91 175.67 74.92 178.68 
M 74.93 173.54 78.62 177.23 
M 77.84 171.29 82.28 175.73 
M 80.65 168.94 83.81 172.1 
M 83.53 166.66 87.36 170.49 
M 86.5 164.47 90.89 168.86 
M 89.72 162.53 93.89 166.7 
M 93.02 160.67 97.79 165.44 
M 96.4 158.89 100.93 163.42 
M 99.82 157.15 103.11 160.44 
M 103.29 155.46 108.07 160.24 
M 106.87 153.88 111.15 158.16 
M 110.51 152.36 114.52 156.38 
M 114.23 150.92 118.01 154.7 
M 118.03 149.56 120.73 152.26 
M 121.93 148.3 125.01 151.38 
M 100.44 176.7 100.66 177.76 100.59 178.8 100.31 180.34 99.93 181.03 
M 100.76 179.61 100.29 180.86 99.86 181.38 
M 106.41 166.09 102.59 166.07 100.41 165.67 99.31 165.13 98.68 165.21 
M 84.33 209.4 86.9 208.72 89.08 207.12 90.61 205.29 91.77 204.77 92.41 204.95 
M 118.68 200.13 121.18 201.44 
M 118.34 150.28 118.47 149.42 
M 59.23 197.54 60.66 194.74 63.13 192.45 64.4 190.92 65.14 190.42 66.87 189.86 68.09 189.28 
M 81.61 179 80.61 178.92 
M 61.96 198.9 62.65 197.06 64.17 194.22 65.13 192.01 65.64 191.49 68.09 190.16 68.52 189.77 
M 116.62 160.97 115.16 161 113.26 160.68 112.31 160.38 110.75 159.46 110.03 159.26 109.24 159.22 107.36 159.6 
M 124.92 167.11 124.72 168.69 125.02 171.51 
M 126.31 182.51 124.9 182.98 124.9 183.86 
M 123.99 172.54 124.43 174.32 124.02 175.33 123.62 175.77 
M 67.81 204.8 66.74 203.07 65.16 201 64.67 199.96 64.66 199.54 64.98 198.7 66 197.36 
M 93.49 168.62 95.01 168.77 98.77 170.17 99.27 169.78 99.47 168.91 
M 100.38 198.06 99.89 197.75 99.18 197.86 97.73 199.03 
M 103.28 178.35 101.44 182.08 101.42 182.82 
M 89.65 198.19 89.33 198.57 89.06 198.57 86.16 196.24 
M 118.57 154.74 117.76 156.34 116.82 156.89 115.98 156.9 113.34 156.33 112.29 156.32 
M 106.57 192.27 104.89 192.82 101.89 194.48 99.36 197.56 98.96 197.84 
M 118.14 194.64 118.98 194.62 119.97 194.08 120.47 193.49 121.56 191.28 121.91 190.96 122.56 190.63 123.69 190.66 
M 75.67 207.42 75.73 206.19 76.01 205.07 77.39 202.84 
M 101.05 212.83 101.39 212.05 102 211.42 103.63 210.44 104.49 209.74 105.59 208.34 106.54 205.92 106.66 204.48 106.47 203.09 
M 72.41 207.14 72.12 204.01 71.82 203.22 71.13 202.43 69.17 200.88 68.38 200.05 67.16 198.57 66.62 197.29 
M 114.31 193.27 113.34 191.07 113.22 189.89 114.55 185.96 114.66 185.06 
M 96.62 190.46 97.51 190.45 98.13 190.2 99.36 188.16 100.76 187.47 
M 109.13 162 108.32 161.95 105.77 162.36 104.29 163.11 102.35 164.71 100.75 165.03 99.75 165.03 
M 57.42 195.67 62.82 191.4 
M 71.24 189.54 71.29 185 70.87 183.01 70.21 181.77 69.57 181.16 68.73 180.56 67.33 180.25 
M 119.61 154.4 119.34 155.08 117.46 157 116.24 157.25 114.59 156.69 
M 99.99 157.53 100.16 158.34 100.08 158.98 99.16 161.88 98.19 163.6 97.9 165.06 
M 74.97 204.66 76.01 203.15 77.05 202.35 77.51 202.21 
M 66.84 206.51 67.59 207.16 
M 61.87 204.12 61.9 204.75 62.2 204.36 
M 57.21 201.07 56.98 201.49 56.85 202.91 57.36 201.83 57.85 201.48 
M 52.92 197.77 52.09 199.02 51.81 201.07 52.48 199.36 53.52 198.48 
M 66.61 206.61 67.8 206.54 
M 59.17 205.85 59.37 204.96 60.02 204.06 59.88 204.93 60.23 205.92 
M 51.88 205.42 52.05 203.31 53.1 201.52 52.57 203.28 53 205.37 
M 58.17 209.29 61.02 210.07 63.81 210.63 66.62 210.96 72.31 211.02 78.14 210.56 
M 65.23 209.05 65.1 208.98 
M 123.91 147.46 132.29 155.84 
M 128.38 145.04 136.32 152.99 
M 132.85 142.63 138.97 148.75 
M 137.45 140.36 143.15 146.05 
M 142.08 138.11 150.68 146.71 
M 146.8 135.94 154.84 143.98 
M 151.57 133.83 157.58 139.84 
M 156.42 131.8 165.85 141.24 
M 161.34 129.85 171.5 140 
M 166.24 127.86 174.17 135.8 
M 171.09 125.84 180.02 134.77 
M 176.06 123.93 185.78 133.65 
M 181.24 122.23 189.6 130.59 
M 186.55 120.66 193.54 127.65 
M 192.09 119.32 202.39 129.62 
M 197.78 118.13 207.37 127.72 
M 203.6 117.07 209.97 123.44 
M 210.05 116.64 220.03 126.63 
M 216.71 116.42 226.45 126.16 
M 223.5 116.33 230.91 123.74 
M 230.17 116.13 238.23 124.18 
M 237.13 116.21 247.1 126.17 
M 245.3 117.49 252.74 124.94 
M 255.23 120.55 263.37 128.69 
M 266.39 124.83 272.51 130.95 
M 278.54 130.09 286.92 138.48 
M 290.36 135.04 296.73 141.41 
M 302.65 140.45 308.03 145.83 
M 317.2 148.12 323.35 154.26 
M 332.4 156.44 340.88 164.92 
M 346.71 163.87 356.29 173.45 
M 360.98 171.26 367.4 177.68 
M 375 178.4 377.28 180.68 
M 132.48 225.9 132.97 226.88 
M 132.68 220.27 133.95 222.82 
M 150.56 225.93 152.03 228.88 
M 153.42 225.64 155.18 229.16 
M 156.37 225.52 156.79 226.36 
M 123.48 147.69 124.61 149.96 
M 125.85 152.43 129.25 159.23 
M 163.09 226.91 163.86 228.45 
M 125.85 146.41 133.15 161.03 
M 166.23 227.17 167.77 230.25 
M 128.6 145.9 135.52 159.75 
M 137.83 164.36 138.6 165.9 
M 140.14 168.98 141.8 172.29 
M 131.74 146.16 137.13 156.93 
M 140.97 164.62 141.74 166.16 
M 142.51 167.7 143.28 169.23 
M 144.05 170.77 144.33 171.34 
M 135.65 147.96 138.73 154.11 
M 142.57 161.8 144.88 166.42 
M 137.29 145.22 139.6 149.83 
M 141.14 152.91 144.21 159.06 
M 144.98 160.6 146.52 163.68 
M 140.48 145.58 149.71 164.04 
M 140.21 139.02 141.36 141.32 
M 142.13 142.86 149.05 156.71 
M 142.63 137.84 143.78 140.15 
M 144.55 141.68 151.47 155.53 
M 145.07 136.71 154.69 155.94 
M 147.54 135.62 150.23 141 
M 151.77 144.08 157.15 154.85 
M 150 134.53 153.46 141.45 
M 155 144.53 160.39 155.29 
M 165.77 166.06 167.22 168.96 
M 152.47 133.44 155.93 140.36 
M 156.7 141.9 164.39 157.28 
M 168.23 164.97 169.97 168.44 
M 154.95 132.38 167.64 157.77 
M 171.49 165.46 172.69 167.86 
M 202.25 226.99 204.56 231.6 
M 157.46 131.39 170.15 156.77 
M 174.77 166 175.37 167.21 
M 202.46 221.38 204.76 225.99 
M 208.61 233.68 209.38 235.22 
M 213.23 242.91 215.53 247.53 
M 159.97 130.39 172.66 155.77 
M 177.28 165 178.01 166.47 
M 195.74 201.92 196.51 203.46 
M 202.66 215.77 203.43 217.3 
M 205.74 221.92 208.81 228.07 
M 215.74 241.92 217.27 244.99 
M 162.49 129.39 175.95 156.31 
M 178.25 160.93 180.64 165.71 
M 195.7 195.82 195.94 196.31 
M 205.94 216.31 206.71 217.85 
M 209.02 222.46 209.79 224 
M 215.94 236.31 216.71 237.84 
M 164.99 128.38 169.22 136.84 
M 171.53 141.46 173.07 144.54 
M 175.37 149.15 176.14 150.69 
M 176.91 152.23 178.45 155.3 
M 179.99 158.38 181.53 161.46 
M 182.3 163 184.6 167.61 
M 196.85 192.11 198.45 195.3 
M 209.22 216.84 209.98 218.37 
M 219.21 236.83 219.98 238.37 
M 167.48 127.35 170.17 132.73 
M 174.02 140.42 176.33 145.04 
M 197.55 187.49 197.86 188.11 
M 221.71 235.8 223.24 238.87 
M 169.97 126.31 170.36 127.08 
M 174.97 136.31 175.74 137.85 
M 177.28 140.92 178.82 144 
M 179.59 145.54 180.36 147.08 
M 184.97 156.31 185.74 157.84 
M 192.66 171.69 196.98 180.33 
M 199.3 184.97 200.35 187.07 
M 214.2 214.76 214.97 216.3 
M 230.35 247.06 231.12 248.6 
M 172.46 125.27 173.62 127.58 
M 175.15 130.66 179.77 139.89 
M 180.54 141.42 181.31 142.96 
M 183.62 147.58 190.54 161.42 
M 196.69 173.73 200.76 181.86 
M 201.39 183.12 203.61 187.57 
M 215.15 210.65 218.23 216.8 
M 174.98 124.28 195.36 165.05 
M 199.98 174.28 201.51 177.35 
M 202.28 178.89 206.9 188.12 
M 209.21 192.74 209.97 194.28 
M 216.9 208.12 220.74 215.81 
M 235.36 245.04 236.13 246.58 
M 177.56 123.43 199.48 167.28 
M 207.18 182.66 210.25 188.81 
M 211.79 191.89 214.1 196.5 
M 221.02 210.35 221.79 211.89 
M 237.94 244.19 238.71 245.73 
M 240.25 248.8 241.02 250.35 
M 180.15 122.58 188.22 138.74 
M 188.99 140.27 201.3 164.89 
M 209.76 181.81 212.07 186.42 
M 215.14 192.58 216.68 195.65 
M 223.6 209.5 225.91 214.11 
M 182.73 121.73 186.19 128.66 
M 186.96 130.19 188.5 133.27 
M 191.58 139.42 203.88 164.04 
M 218.5 193.26 219.27 194.8 
M 224.65 205.57 226.19 208.65 
M 236.19 228.64 236.96 230.18 
M 185.35 120.95 191.12 132.49 
M 194.96 140.18 206.5 163.25 
M 188.04 120.3 193.8 131.84 
M 196.88 137.99 199.19 142.61 
M 199.96 144.14 213.8 171.83 
M 190.72 119.65 196.49 131.19 
M 199.57 137.34 201.11 140.42 
M 202.64 143.5 206.49 151.19 
M 207.26 152.73 216.49 171.19 
M 230.33 198.88 233.41 205.03 
M 193.41 119.01 198.41 129.01 
M 205.33 142.85 206.87 145.93 
M 207.64 147.46 214.56 161.31 
M 216.1 164.39 219.17 170.54 
M 221.48 175.15 223.79 179.77 
M 226.87 185.92 227.64 187.46 
M 229.94 192.07 230.71 193.61 
M 231.48 195.15 236.86 205.92 
M 196.13 118.44 202.67 131.51 
M 207.28 140.74 208.82 143.82 
M 211.13 148.43 216.51 159.2 
M 218.05 162.28 220.36 166.89 
M 221.13 168.43 227.28 180.74 
M 228.05 182.27 233.44 193.04 
M 234.2 194.58 238.82 203.81 
M 241.13 208.42 242.67 211.5 
M 254.2 234.58 256.51 239.19 
M 198.89 117.93 206.97 134.08 
M 210.04 140.24 211.58 143.31 
M 213.12 146.39 219.27 158.7 
M 220.81 161.77 235.42 191 
M 240.81 201.77 241.58 203.31 
M 243.12 206.38 243.89 207.92 
M 256.96 234.07 259.27 238.69 
M 201.65 117.43 211.26 136.66 
M 215.11 144.35 221.26 156.66 
M 227.42 168.96 231.26 176.65 
M 232.8 179.73 237.41 188.96 
M 259.72 233.57 260.49 235.11 
M 204.41 116.93 210.18 128.46 
M 210.94 130 216.33 140.77 
M 217.87 143.85 224.79 157.69 
M 228.64 165.38 229.4 166.92 
M 230.17 168.46 232.48 173.07 
M 237.1 182.3 238.63 185.38 
M 207.41 116.91 211.25 124.6 
M 212.02 126.14 226.64 155.36 
M 228.17 158.44 229.71 161.52 
M 232.02 166.13 235.86 173.82 
M 208.73 113.53 229.11 154.3 
M 233.73 163.53 239.11 174.3 
M 239.88 175.83 241.42 178.91 
M 260.65 217.37 262.19 220.44 
M 266.8 229.67 267.57 231.21 
M 210.44 110.93 212.36 114.78 
M 216.21 122.47 232.36 154.77 
M 235.44 160.92 239.28 168.62 
M 240.05 170.15 243.9 177.85 
M 253.13 196.3 253.89 197.84 
M 263.89 217.84 267.74 225.53 
M 212.15 108.33 215.61 115.25 
M 221.76 127.56 233.3 150.63 
M 234.84 153.71 236.37 156.78 
M 237.14 158.32 240.99 166.01 
M 254.06 192.16 257.14 198.32 
M 267.14 218.31 271.75 227.54 
M 213.85 105.72 218.08 114.18 
M 221.16 120.34 238.85 155.72 
M 240.39 158.79 241.16 160.33 
M 241.93 161.87 243.47 164.95 
M 245 168.02 245.77 169.56 
M 256.54 191.1 260.39 198.79 
M 263.46 204.94 265 208.02 
M 268.85 215.71 271.92 221.86 
M 215.95 103.89 221.33 114.66 
M 222.87 117.73 240.56 153.11 
M 242.87 157.73 246.71 165.42 
M 259.02 190.03 260.56 193.11 
M 265.17 202.34 268.25 208.49 
M 269.02 210.03 271.33 214.65 
M 218.42 102.82 223.81 113.59 
M 226.12 118.21 243.04 152.05 
M 244.58 155.13 249.19 164.36 
M 261.5 188.97 263.03 192.05 
M 265.34 196.66 273.03 212.04 
M 220.9 101.76 251.67 163.29 
M 255.51 170.98 259.36 178.67 
M 263.2 186.37 265.51 190.98 
M 268.59 197.13 270.13 200.21 
M 274.74 209.44 276.28 212.52 
M 221.84 97.62 222.61 99.16 
M 223.38 100.69 246.45 146.84 
M 247.22 148.38 247.99 149.92 
M 250.3 154.53 253.38 160.69 
M 255.68 165.3 261.84 177.61 
M 266.45 186.84 267.99 189.92 
M 223.55 95.01 225.09 98.09 
M 226.63 101.17 248.16 144.24 
M 258.93 165.78 267.39 182.7 
M 226.03 93.95 228.33 98.56 
M 229.87 101.64 248.33 138.56 
M 252.95 147.79 257.56 157.02 
M 262.18 166.25 262.95 167.79 
M 263.71 169.33 264.48 170.86 
M 265.25 172.4 269.87 181.63 
M 288.33 218.55 289.87 221.63 
M 225.81 87.5 226.2 88.27 
M 228.5 92.89 238.5 112.88 
M 242.35 120.57 252.35 140.57 
M 253.12 142.11 260.04 155.95 
M 268.5 172.88 271.58 179.03 
M 290.03 215.95 292.34 220.56 
M 298.5 232.87 299.17 234.22 
M 227.52 84.9 238.67 107.2 
M 240.21 110.28 241.75 113.36 
M 244.06 117.97 247.9 125.66 
M 249.44 128.74 255.59 141.05 
M 258.67 147.2 263.28 156.43 
M 271.75 173.35 274.82 179.5 
M 292.51 214.88 294.82 219.5 
M 300.97 231.8 301.94 233.74 
M 229.23 82.29 247.3 118.44 
M 251.92 127.67 259.61 143.06 
M 260.38 144.6 265.76 155.36 
M 276.53 176.9 278.07 179.98 
M 282.68 189.21 283.45 190.74 
M 294.99 213.82 296.53 216.89 
M 304.13 232.1 304.43 232.69 
M 230.94 79.69 250.55 118.92 
M 253.63 125.07 266.7 151.22 
M 277.47 172.76 280.55 178.91 
M 292.08 201.99 294.39 206.6 
M 298.24 214.29 301.31 220.44 
M 232.64 77.09 251.49 114.78 
M 253.8 119.39 270.72 153.23 
M 274.56 160.92 275.33 162.46 
M 279.18 170.15 280.72 173.23 
M 288.41 188.61 296.1 204 
M 302.25 216.3 305.33 222.46 
M 234.35 74.49 263.2 132.17 
M 264.73 135.25 273.19 152.17 
M 274.73 155.25 283.96 173.7 
M 290.88 187.55 295.5 196.78 
M 236.06 71.88 240.29 80.34 
M 241.06 81.88 259.52 118.8 
M 260.29 120.34 264.9 129.57 
M 268.75 137.26 274.13 148.03 
M 276.44 152.64 286.44 172.64 
M 289.52 178.79 297.21 194.18 
M 300.28 200.33 302.59 204.94 
M 237.77 69.28 260.46 114.66 
M 261.23 116.2 262.78 119.3 
M 265.33 124.4 267.25 128.25 
M 272.64 139.02 275.71 145.17 
M 278.79 151.32 282.64 159.01 
M 284.17 162.09 289.56 172.86 
M 290.33 174.4 292.63 179.01 
M 293.4 180.55 296.48 186.7 
M 301.86 197.47 305.71 205.16 
M 239.48 66.68 259.01 105.74 
M 269.16 126.04 270.31 128.34 
M 274.93 137.57 277.23 142.19 
M 278 143.73 284.15 156.03 
M 288.77 165.26 298.77 185.26 
M 304.92 197.57 308 203.72 
M 241.18 64.07 246.18 74.07 
M 246.95 75.61 254.46 90.62 
M 258.37 98.45 259.03 99.76 
M 273.01 127.71 274.16 130.02 
M 277.24 136.17 288 157.71 
M 291.08 163.86 296.46 174.63 
M 301.08 183.86 302.62 186.94 
M 307.23 196.17 309.54 200.78 
M 311.08 203.86 311.85 205.4 
M 242.89 61.47 247.12 69.93 
M 250.2 76.08 253.5 82.69 
M 276.85 129.38 278 131.69 
M 279.54 134.76 286.46 148.61 
M 288.77 153.22 289.54 154.76 
M 293.39 162.45 298.77 173.22 
M 304.15 183.99 305.69 187.07 
M 310.31 196.3 313.38 202.45 
M 244.6 58.87 249.6 68.86 
M 280.67 130.99 281.05 131.76 
M 282.59 134.84 289.51 148.69 
M 297.97 165.61 300.28 170.22 
M 304.89 179.45 311.05 191.76 
M 246.31 56.26 250.83 65.31 
M 284.48 132.61 291.79 147.22 
M 301.02 165.68 303.33 170.3 
M 307.94 179.53 309.48 182.6 
M 310.25 184.14 313.33 190.29 
M 248.02 53.66 250.75 59.12 
M 289.44 136.5 294.82 147.26 
M 303.28 164.19 305.59 168.8 
M 312.51 182.65 316.36 190.34 
M 249.73 51.06 251.06 53.73 
M 292.06 135.73 299.37 150.35 
M 303.22 158.04 304.76 161.12 
M 305.52 162.65 307.06 165.73 
M 310.91 173.42 318.6 188.81 
M 251.43 48.45 252 49.6 
M 295.85 137.28 301.62 148.82 
M 305.46 156.51 308.54 162.66 
M 313.92 173.43 325.46 196.5 
M 327 199.58 330.07 205.73 
M 253.14 45.85 253.36 46.29 
M 299.76 139.08 306.29 152.16 
M 307.06 153.69 310.91 161.39 
M 317.06 173.69 322.45 184.46 
M 323.22 186 327.83 195.23 
M 329.37 198.3 332.45 204.46 
M 303.7 140.94 307.93 149.4 
M 311.01 155.56 331 195.55 
M 339.46 212.47 340.37 214.29 
M 307.68 142.9 310.38 148.28 
M 314.22 155.97 318.07 163.66 
M 318.84 165.2 321.14 169.82 
M 322.68 172.89 330.37 188.28 
M 339.6 206.74 341.14 209.81 
M 342.49 212.51 342.68 212.89 
M 311.83 145.17 322.22 165.94 
M 326.06 173.63 332.98 187.48 
M 335.29 192.09 336.83 195.17 
M 342.98 207.47 343.75 209.01 
M 315.98 147.45 316.37 148.22 
M 317.13 149.76 323.29 162.06 
M 328.67 172.83 330.98 177.45 
M 331.75 178.99 336.36 188.21 
M 337.9 191.29 338.67 192.83 
M 346.36 208.21 347.31 210.1 
M 320.14 149.75 321.3 152.06 
M 332.06 173.6 335.14 179.75 
M 336.68 182.82 338.22 185.9 
M 349.1 207.66 349.6 208.66 
M 324.69 152.83 325.46 154.37 
M 330.07 163.6 337.77 178.98 
M 351.55 206.56 351.88 207.21 
M 332.68 162.79 341.14 179.71 
M 351.91 201.25 354.17 205.77 
M 332.56 156.52 332.94 157.29 
M 336.02 163.45 344.48 180.37 
M 346.79 184.98 347.56 186.52 
M 353.71 198.83 356.45 204.32 
M 336.66 158.72 337.05 159.48 
M 337.82 161.02 340.12 165.64 
M 343.97 173.33 347.05 179.48 
M 348.58 182.56 351.66 188.71 
M 358.47 202.33 358.74 202.87 
M 341.1 161.57 341.87 163.11 
M 346.49 172.34 349.56 178.5 
M 351.87 183.11 353.41 186.19 
M 360.49 200.35 361.03 201.44 
M 355.14 183.64 356.68 186.72 
M 362.07 197.49 363.32 200 
M 367.34 189.97 370.2 195.69 
M 361 171.27 361.38 172.04 
M 367.54 184.35 372.5 194.27 
M 365.04 173.33 374.79 192.84 
M 369.07 175.38 373.3 183.84 
M 373.11 177.44 375.03 181.28 
"/></svg>