<svg xmlns="http://www.w3.org/2000/svg" width="520" height="320"><rect x="0" y="0" width="520" height="320" fill="floralwhite"/><rect x="10" y="10" width="500" height="300" stroke="black" stroke-width="1" fill="none"/><path stroke="black" stroke-width="1" fill="none" stroke-linecap="round" stroke-linejoin="round" d="
M 139.55 107.03 152.87 101.07 160.29 98.03 167.78 95.2 190.5 87.36 198.22 85.2 206.05 83.5 213.94 82.12 221.9 81.2 245.93 80.64 253.92 81.18 261.81 82.59 269.54 84.68 277.16 87.18 307.32 98 314.78 100.91 322.14 104.09 343.92 114.25 379.49 129.89 
M 379.49 185.41 353.62 199.17 339.2 206.16 331.89 209.43 324.48 212.48 309.45 218.03 301.9 220.72 294.23 223.02 278.65 226.76 270.8 228.39 262.86 229.42 254.88 230.14 246.87 230.49 238.87 230.25 222.84 230.41 214.85 229.85 206.96 228.47 199.17 226.59 191.45 224.43 176.09 219.88 168.37 217.75 160.73 215.32 153.27 212.4 145.94 209.18 129.64 201.34 
M 147.92 142.29 151.49 142.43 
M 158.91 142.99 166.53 143.75 
M 175.78 142.76 178.52 142.08 
M 187.4 140.8 190.81 140.86 
M 202.06 142.14 208.1 143.18 211.68 143.38 213.28 143.28 
M 219.31 142.51 223.58 141.67 229.7 140.99 232.58 140.49 233.87 140.1 
M 236.5 139.33 237.82 138.96 240.84 138.59 242.49 138.6 
M 249.01 138.63 256.24 138.13 260.91 138.35 
M 264.19 138.71 269.06 139.18 274.87 139.22 282.72 139.96 
M 285.91 140.29 291.13 141.09 299.59 143.39 303.35 143.96 310.2 144.38 313.99 144.92 322.06 146.54 325.69 146.91 336.27 147.37 339.62 147.29 355.9 146.25 360.5 145.73 
M 363.48 145.35 368.18 145.1 375.15 145.67 379.49 145.77 
M 133.26 195.42 133.4 195.76 
M 134.81 199.27 135.92 202.47 
M 136.28 186.51 136.94 188.03 
M 142.13 202.23 142.79 205.13 
M 143.26 207.85 143.27 207.91 
M 142.94 119.66 142.87 119.77 
M 142.63 184.11 143.93 187.81 
M 145.28 191.55 148.56 200.72 149.64 205.32 
M 150.2 116.39 149.27 119.61 
M 146.65 125.34 144.5 128.64 
M 142.76 157.43 143.05 159.19 
M 143.6 162.31 143.95 164.07 
M 148.32 180 149.44 183.39 
M 150.67 187.11 151.9 190.81 
M 155.68 204.33 156.23 207.29 
M 156.72 210.17 157.23 213.08 
M 156.16 112.1 153.71 121.94 
M 149.99 130.68 148.79 133.68 
M 147.72 136.81 146.18 142.29 
M 157.02 182.87 157.12 183.3 
M 159.5 193.29 160.95 199.73 
M 163.56 209.67 164.45 212.96 
M 165.45 216.33 165.62 216.88 
M 170.39 94.3 169.78 95.31 
M 161.92 107.83 161.38 109.33 161.03 110.99 
M 159.16 125.39 158.79 127.07 156.72 133.26 156.31 134.93 
M 166.31 187.22 167.24 192.02 167.87 196.49 
M 170.08 206.21 172.04 212.99 
M 173.1 216.4 174.04 219.31 
M 170.15 106.08 169.33 107.27 167.99 109.95 167.56 111.52 
M 167.03 114.99 166.98 118.98 
M 167.02 123.06 166.82 130.99 
M 166.31 134.57 165.52 137.89 
M 164.64 141.52 164.18 143.52 
M 175.52 193.77 176.66 200.08 
M 182.31 220.25 182.83 221.84 
M 184.62 90.28 183.87 91.57 182.83 94.61 182.51 96.32 
M 181.89 99.75 181.18 103.08 
M 180.16 106.07 178.8 108.72 
M 176.19 114.08 174.73 118.6 174.42 120.29 
M 174 123.89 173.88 125.78 174.09 134.08 173.86 135.88 
M 172.81 142.37 172.6 143.58 
M 182.33 188.3 182.64 190.4 
M 183.79 196.84 186.08 208.14 187.11 211.6 190.48 220.75 
M 191.54 224 191.68 224.5 
M 187.97 112.17 186.48 116.63 185.82 117.95 
M 184.41 120.52 182.31 124.4 181.81 125.9 
M 181.07 129.17 180.58 134.73 180.09 138.28 179.26 141.91 
M 190.13 189.91 190.65 193.12 
M 191.89 199.68 193.76 208.02 194.86 211.58 196.89 217.13 
M 198.13 220.63 198.99 223.67 
M 200.2 94.89 199.81 96.53 199.25 98 
M 196.17 111 194.93 117.69 
M 194 120.71 193.45 122.15 190.68 127.35 189.01 129.68 187.5 132.18 186.61 135.32 186.5 138.03 
M 191.16 158.04 191.58 159.92 
M 198.71 190.86 199.24 193.68 
M 199.81 196.94 200.34 200.15 
M 201.85 206.93 203.57 212.39 204.86 217.22 
M 205.48 220.1 206.16 224.03 206.41 228.34 
M 209.23 90.57 208.7 94.11 
M 207.99 97.47 207.09 100.63 
M 204.12 109.71 202.07 117.58 201.18 122.63 
M 196.69 134.12 196.06 135.51 195.09 139.91 
M 200.05 158.77 200.3 159.69 
M 207.13 191.52 208.21 197.29 
M 208.94 200.71 209.67 204.11 
M 210.37 207.43 211.7 213.73 
M 212.33 216.72 213.75 223.66 213.77 227.8 214.14 229.73 
M 215.76 96.31 215.07 99.67 
M 211.59 112.26 210.11 116.74 208.43 122.98 207.64 128.17 
M 207.19 131.72 206.93 133.47 204.85 141.19 
M 214.81 190.58 215.74 195.36 217.55 202.56 218.41 207.38 
M 219.44 213.41 220.46 219.08 
M 220.93 221.76 221.87 226.92 
M 222.58 229.67 222.79 230.41 
M 224.46 92.57 223.83 96.02 
M 222.98 99.23 221.96 102.25 
M 220.88 105.21 219.85 108.2 
M 218.9 111.25 216.92 119.2 215.6 125.87 215.4 127.66 
M 215.07 131.34 214.76 135.06 
M 214.26 138.59 213.69 141.79 
M 217.03 159.39 217.07 159.57 
M 222.86 190.14 225.15 200.58 
M 225.82 203.94 226.9 210.21 
M 227.24 213.02 227.44 215.61 
M 227.62 218.09 227.88 220.59 
M 228.39 223.28 229.23 226.25 
M 230.3 229.39 230.6 230.27 
M 232.17 83.87 232.33 88.11 
M 229.96 106.03 226.94 113.04 225.94 116.02 224.75 120.81 
M 223.93 123.99 222.7 128.78 220.91 139.11 220.8 140.67 
M 223.75 157.81 223.96 159.14 
M 229.97 189.05 231.79 196.33 
M 232.85 200.1 233.36 201.96 234.49 208.39 234.9 211.32 234.97 215.04 
M 235 219.7 235.19 221.02 236.88 225.98 
M 238.26 229.5 238.56 230.25 
M 238.78 90.19 238.62 94.09 
M 237.95 105.54 237.62 107.23 237.09 108.71 
M 235.94 111.57 234.78 114.41 
M 233.11 120.72 232.36 123.98 
M 231.47 127.11 229.76 133.5 
M 228.92 136.72 227.95 141.16 
M 236.76 188.52 238.32 194.78 
M 239.08 198.26 240.15 204.68 
M 240.79 207.91 241.7 212.59 242.42 218.09 242.78 219.59 
M 243.72 222.81 245.04 226.38 
M 246.42 229.96 246.62 230.48 
M 245.74 105.64 245.6 107.51 244.92 110.86 243.45 115.39 
M 242.49 118.43 240.89 122.84 238.39 128.44 236.83 132.98 
M 235.11 138.74 234.85 139.8 
M 243.45 188.04 244.42 191.5 245.37 196.54 
M 245.8 199.67 246.64 204.49 247.79 209.46 
M 248.62 212.77 250.59 219.54 
M 251.62 222.91 252.62 226.21 
M 254.89 83.9 254.83 87.87 
M 254.81 91.89 254.59 95.7 
M 252.67 109.89 252.24 113.47 
M 251.62 116.87 250.48 121.75 249.94 123.23 
M 248.64 125.99 245.5 131.02 
M 244.1 133.72 242.65 136.83 
M 243.23 149.78 243.84 153.24 
M 250.66 186.55 252.04 191.09 252.71 195.85 
M 253.62 202.13 255.55 210.5 258.94 221.22 261.02 229.58 
M 261.62 100.89 260.42 109.74 258.32 119.69 257.41 122.83 256.2 125.69 252.64 132.41 
M 251.35 135.27 249.84 138.59 
M 257.2 184.59 259.87 193.95 261.17 199.3 
M 261.78 202.57 263.31 210.55 268.26 228.72 
M 267.59 109.55 265.69 117.68 264.7 120.74 262.83 125 
M 261.53 127.81 258.52 135.17 257.68 136.64 
M 264.37 182.56 266.78 190.76 267.63 194.33 268.82 200.88 269.94 205.91 
M 270.64 209.17 272.31 215.88 
M 273.33 219.37 274.29 222.77 
M 275.48 226.87 275.64 227.39 
M 275.33 100.26 274.73 103.66 
M 274.28 107.21 273.45 112.38 272.71 115.65 272.2 117.16 
M 269.92 123.03 268.82 126.04 
M 267.84 129.2 266.91 132.44 
M 265.9 135.61 265.02 137.97 
M 267.36 154.36 268.49 161.28 
M 272.26 182.17 276.73 198.9 278.25 206.94 
M 278.98 210.23 283.06 224.26 
M 281 101.05 280.59 102.64 280.4 104.44 
M 280.03 108.06 279.87 109.89 279.22 113.24 277.02 119.14 276.08 122.29 273.88 132.56 272.27 139.21 
M 280.4 177.09 281.45 182.81 282.02 187.52 
M 282.56 190.79 285.74 205.84 289.1 216.76 291.07 223.81 
M 292.81 92.87 292.49 93.74 291.75 94.99 
M 290.26 97.47 289.5 98.71 288.92 100.11 
M 287.84 103.02 286.13 109.27 
M 285.56 112.7 284.88 118.08 283.69 123.04 
M 282.78 126.27 281.29 133.12 
M 280.29 137.26 279.64 139.66 
M 281.37 148.56 282.2 152.28 
M 282.97 155.94 285.25 164.54 
M 288.4 175.55 289.52 181.05 290.01 185.7 
M 290.2 188.61 290.76 193.22 291.74 198.14 
M 292.43 201.42 293.9 206.7 297.09 216.1 
M 295.59 105.72 295.02 107.15 294.12 110.26 293.46 113.63 292.47 120.79 291.69 124.14 290.27 128.95 
M 289.5 132.36 289.16 134.12 287.45 140.46 
M 290.59 156.5 291.88 160.65 
M 295.75 173.03 296.94 178.4 297.45 181.66 297.85 186.12 
M 298.26 191.82 298.76 196.2 299.45 199.42 300.02 201.25 
M 302.66 208.84 306.46 219.1 
M 304.72 101.95 304.05 105.3 
M 303.25 108.52 301.96 113.29 300.28 121.88 
M 299.55 125.3 298.39 130.42 297.92 134.16 297.85 136.21 
M 297.48 140.53 297.19 142.81 
M 303.73 173.11 304.87 181 307.32 195.08 
M 308.62 201.35 309.82 206.21 313.55 216.01 
M 311.65 108.21 309.78 116.52 308.47 125.56 
M 307.86 129.13 307.11 134.7 306.31 144.11 
M 310.74 166.34 312.33 177.24 314.06 185.41 
M 314.55 188.43 315.47 193.09 316.98 199.49 318.04 202.97 321.52 212.37 
M 317.19 117.44 316.89 119.2 316.66 123.1 316.59 127.19 315.96 139.17 315.24 145.15 
M 319.41 161.32 320.38 168.85 320.98 175.89 
M 321.43 178.87 322.95 186.63 326.76 200.15 329.3 208.18 
M 328.17 111.63 326.01 119.69 325.34 123.13 324.99 126.91 324.78 132.94 
M 324.82 137.16 324.98 143.62 324.81 146.85 
M 328.06 159.14 328.65 162.29 
M 329.22 165.4 330.38 174.1 
M 331.14 179.8 332.26 185.79 
M 333.09 189.03 336.81 203.47 
M 336.2 115 335.98 116.81 334.55 123.54 334.05 127.12 333.82 131 333.63 143.22 333.43 147.28 
M 339.1 171.53 339.9 178.38 341.69 187.35 342.56 192.99 343.62 198.01 
M 344.57 118.63 344.35 120.44 342.78 126.95 342.24 130.47 342 142.45 341.68 147.16 
M 344.76 158.75 345.95 162.35 
M 346.85 165.65 347.41 168.61 
M 347.79 171.38 348.8 179.52 
M 349.04 182.15 349.19 188.25 349.73 191.94 
M 352.62 118.13 352.28 119.56 351.85 131.13 349.64 146.65 
M 350.79 151.39 351.66 154.64 
M 353.84 161.57 355.12 166.4 355.53 169.18 356.07 174.44 356.56 184.46 356.87 187.11 
M 360.59 121.62 360.21 124.88 
M 359.89 128.52 359.1 137.61 357.56 146.1 
M 361.84 163.38 363.17 170.63 363.41 173.24 363.55 178.18 364.09 182.71 
M 368.17 124.97 367.29 129.41 366.83 132.86 366.28 140.13 365.53 143.29 364.88 145.18 
M 365.54 149.4 366.28 152.51 
M 367.91 158.87 368.92 163.45 369.66 167.78 
M 370.02 170.54 371.45 178.89 
M 275.45 182.89 276.79 182.9 277.29 182.46 277.73 181.74 
M 288.76 141.28 288.72 137.62 288.3 135.45 287.89 134.82 286.77 134.68 
M 173.37 94.55 172.36 93.61 
M 377.27 135.8 377.63 135.25 378.09 134.97 379.42 135.28 
M 203.74 204.49 203.26 204.58 201.78 205.44 200.17 207.37 
M 272.19 146.36 273.66 146.84 274.57 147.6 
M 174.19 99.22 174.16 97.85 173.73 96.49 172.72 95.26 171.31 93.98 
M 228.05 190.9 228.11 190.49 228.6 189.88 228.81 189.15 
M 280.74 132.88 277.02 131.87 275.83 131.82 275.37 132.04 274.79 132.86 274.61 133.76 274.73 134.83 
M 365.78 129.41 365.3 130.03 364.92 130.91 363.37 132.28 
M 268.62 221.68 268.11 219.97 267.83 219.61 265.89 218.36 260.49 213.53 
M 312.15 130.51 311.59 131.36 310.45 132.13 309.82 131.94 309.48 131.23 
M 320.13 185.28 317.65 185.13 317.07 185.25 316.55 185.54 315.1 187.52 314.59 187.91 312.99 188.5 311.89 188.61 
M 306.25 147 306.98 146.68 307.26 146.21 306.87 144.62 
M 362.85 189.72 363.64 189.73 364.09 190.08 
M 156.59 113.61 155.12 110.57 153.1 108.55 151.83 105.94 150.48 104.71 149.01 102.76 
M 278.23 162 277.51 161.27 275.79 160.48 274.69 159.72 273.79 159.51 
M 131.61 200.17 130.33 200.17 
M 288.82 206.91 289.17 205.18 289.99 203.36 290.03 202.19 
M 262.58 132.86 261.44 133.76 260.36 134.36 255.8 134.94 254.91 134.89 252.54 133.98 252.01 133.66 251.13 132.77 
M 235.79 104.57 235.06 104.67 234.45 104.54 233.01 104.07 231.66 103.09 230.54 103.11 
M 184.34 208.43 182.16 207.21 179.78 204.97 178.08 203.97 176.21 203.75 174.53 203.9 
M 315.77 168.44 315.13 167.43 312.93 165.33 311.24 163.19 311.18 162.44 312.16 161.21 
M 266.74 96.61 266.63 96.49 
M 304.42 103.71 304.06 102.76 303.5 101.97 300.5 99.6 299.87 98.93 299.53 98 299.33 95.21 
M 243.79 226.67 239.37 225.94 233.88 223.68 
M 291.56 215.92 292.13 215.17 292.86 213.71 293.69 212.68 295.31 212.21 296.8 212.07 
M 265.36 223.15 263.45 223.11 261.13 222.84 258.85 221.8 
M 324.71 126.83 325.56 126.39 326.53 126.45 327.11 126.66 327.69 127.07 328.16 127.69 329.16 129.94 329.42 130.13 
M 293.41 128.07 294.23 127.78 294.85 127.77 295.57 127.91 298.2 129.01 298.75 129.28 300.41 131.09 301.87 131.78 
M 177.96 91.46 179.42 91.21 
M 189.57 87.37 186.55 50.86 187.37 50.77 192.47 86.81 
M 201.47 84.17 201.74 38.52 202.56 38.5 204.41 83.84 
M 213.57 81.81 219.29 30 220.11 30.07 216.54 81.71 
M 225.85 80.75 236.63 30.34 237.43 30.49 228.81 80.97 
M 238.16 80.47 250.76 35.26 251.55 35.46 241.12 80.78 
M 250.51 80.38 270.67 31.04 271.43 31.33 253.39 81.11 
M 262.7 82.42 288.22 40.94 288.92 41.36 265.44 83.56 
M 274.55 85.85 295.17 59.25 295.84 59.73 277.2 87.2 
M 286.16 89.96 302.33 71.4 302.97 71.91 288.75 91.41 
M 297.83 94.15 298.97 95.09 
M 179.95 91.01 182.5 83.18 183.63 79.18 185.36 71.08 186.35 62.84 186.85 54.51 
M 187.88 54.39 191.62 52.7 195.05 50.62 198 47.95 199.31 46.41 201.72 43.08 
M 202.75 43.06 206.77 42.26 208.7 41.71 212.34 40.13 215.64 37.87 218.72 35.18 
M 219.75 35.27 223.25 36.35 225.01 36.73 228.52 36.94 232.03 36.41 235.55 35.38 
M 236.56 35.57 239.11 37.51 241.81 38.98 244.75 39.73 246.3 39.85 249.5 39.78 
M 250.5 40.03 254.76 40.16 258.92 39.8 262.91 38.71 264.85 37.9 268.65 35.97 
M 269.61 36.34 272.68 39.21 275.98 41.65 279.64 43.42 281.59 44.07 285.67 45.09 
M 286.56 45.61 287.04 49.63 287.97 53.46 289.61 57.01 290.68 58.68 293.11 61.91 
M 293.95 62.52 294.56 65.47 295 66.85 296.34 69.34 298.32 71.43 300.71 73.25 
M 301.52 73.9 299.82 78.39 298.61 82.94 298.15 87.61 298.18 89.98 298.57 94.76 
M 189.77 53.57 193.39 51.72 196.59 49.36 198 47.95 200.53 44.77 
M 191.04 59.19 194.02 57.66 195.39 56.75 197.83 54.55 199.91 51.93 
M 192.3 64.81 194.65 63.61 196.73 62.07 197.65 61.15 199.29 59.09 
M 193.56 70.43 196.07 69.02 197.47 67.76 198.67 66.25 
M 204.77 42.69 208.7 41.71 212.34 40.13 214.03 39.08 217.2 36.56 
M 205.36 48.34 208.74 47.49 210.34 46.89 213.32 45.23 216.05 43.06 
M 205.95 53.99 208.78 53.28 211.4 52.15 212.62 51.39 214.9 49.57 
M 206.54 59.64 209.9 58.66 211.91 57.54 213.75 56.08 
M 207.14 65.29 208.86 64.86 210.46 64.16 212.6 62.59 
M 221.5 35.84 225.01 36.73 228.52 36.94 230.27 36.76 233.79 35.93 
M 221.46 41.17 224.56 41.95 226.11 42.13 229.21 41.98 232.32 41.24 
M 221.43 46.49 224.11 47.17 226.8 47.34 228.15 47.2 230.85 46.56 
M 221.39 51.82 224.8 52.53 227.09 52.41 229.37 51.87 
M 221.35 57.14 224.15 57.72 226.03 57.63 227.9 57.19 
M 221.31 62.47 223.5 62.92 224.96 62.85 226.43 62.5 
M 237.83 36.57 240.44 38.33 243.25 39.45 244.75 39.73 247.89 39.85 
M 237.21 42.78 239.46 44.29 240.64 44.85 243.16 45.5 245.86 45.6 
M 236.6 48.99 238.48 50.25 240.5 51.06 241.58 51.26 243.84 51.35 
M 235.99 55.2 237.5 56.22 239.13 56.87 241.82 57.1 
M 235.37 61.41 237.13 62.47 238.42 62.8 239.8 62.85 
M 252.64 40.13 256.86 40.07 258.92 39.8 262.91 38.71 266.76 36.97 
M 251.67 45.83 255.3 45.78 257.07 45.55 260.51 44.61 263.81 43.12 
M 250.71 51.54 253.75 51.49 255.23 51.3 258.1 50.52 260.87 49.26 
M 249.74 57.24 252.19 57.2 254.55 56.79 257.93 55.41 
M 248.78 62.94 251.54 62.8 253.3 62.32 254.99 61.55 
M 271.13 37.81 274.28 40.51 277.76 42.62 279.64 43.42 283.61 44.61 
M 269.28 44 272 46.32 274.98 48.14 276.6 48.83 280.02 49.85 
M 267.43 50.19 269.71 52.13 272.21 53.66 273.56 54.23 276.42 55.09 
M 265.59 56.38 267.42 57.95 269.43 59.18 272.83 60.33 
M 263.74 62.58 265.87 64.27 267.48 65.05 269.23 65.57 
M 286.76 47.63 287.42 51.57 287.97 53.46 289.61 57.01 291.86 60.31 
M 283.81 54.16 284.35 57.41 285.4 60.46 286.15 61.9 288.01 64.62 
M 280.85 60.69 281.28 63.25 282.11 65.66 282.7 66.79 284.16 68.93 
M 277.89 67.22 278.46 69.99 279.24 71.68 280.31 73.24 
M 294.22 64.01 295 66.85 295.59 68.15 297.26 70.43 299.49 72.36 
M 291.26 69.79 291.86 71.97 292.31 72.97 293.59 74.72 295.3 76.19 
M 288.3 75.58 288.71 77.09 289.43 78.42 291.11 80.03 
M 141.21 164.13 144.87 164.05 150.09 163.56 157.1 162.56 162.37 162.39 177.36 160.94 182.69 160.95 186.91 160.13 189.24 160.12 199.2 159.47 201.86 160 204.96 160.18 207.73 159.88 210.38 160.02 215.17 159.54 217.72 159.58 222.66 159.12 224.88 159.15 226.85 159.76 230.97 160 234.24 159.83 240.02 160.22 247.62 159.9 250.26 160.26 252.58 160.91 261.33 162.12 263.31 162.78 265.95 163.14 270.99 163.06 276.52 163.96 280.79 164.11 283.22 164.45 285.58 164.55 288.03 164.23 291.13 164.82 294.16 165.81 299.77 166.42 301.52 166.02 304.33 166.19 307.78 166.94 286.63 176.34 283.55 176.37 280.97 176.9 276.36 178.51 272.36 180.72 270.16 181.63 264.86 182.4 257.96 184.43 255.5 184.94 246.6 187.94 233.54 188.68 228.52 189.18 226.2 189.62 223.64 189.71 221.41 190.11 216.33 190.28 209.63 191.47 202.6 191.51 197.49 190.61 192.7 190.04 184.92 188.54 180.42 188.14 177.52 187.3 174.92 186.75 170.21 186.14 166.82 185.9 149.13 180.44 145.11 178.26 139.56 174.52 
M 142.25 165.5 144.92 165.56 150.17 165.36 157.28 164.82 162.52 164.93 167.47 164.65 172.62 164.71 192.3 164.18 194.54 164.4 196.92 164.41 204.9 165.14 207.16 165.1 209.89 165.68 214.47 165.78 216.85 166.09 221.89 166.09 224.39 166.29 229.81 166.9 232.15 167.32 
M 147.6 167.09 157.36 167.12 162.54 167.51 170.47 167.58 183.1 168.31 188.12 168.95 194.98 169.56 197.23 169.37 206.94 170.3 209.29 170.72 214.06 172.41 216.81 172.86 219.2 172.57 221.72 172.9 226.97 173.79 229.74 174.58 234.52 175.57 236.98 175.63 
M 140.08 167.94 145 168.61 157.4 169.41 165.57 170.41 173.01 170.65 175.66 171.1 180.37 172.33 183.09 172.53 185.47 172.93 187.95 173.05 195.16 174.75 200.05 175.22 202.71 175.9 
M 144.99 170.22 152.31 171.2 157.26 171.55 162.82 172.77 173.01 174.35 182.5 176.51 187.77 177.29 190.27 178.57 192.67 179.26 194.95 179.65 204.61 182.83 
M 142.31 171.16 162.38 175.24 164.73 176.43 167.06 177.15 175.23 178.97 179.64 180.61 
M 147.34 174.09 152.26 175.48 154.69 175.99 156.65 176.83 159.09 177.37 161.61 178.31 164.15 179.84 166.45 180.95 
M 145.01 175.33 150.04 177.25 154.8 178.82 156.48 179.86 
M 209.3 229.04 214.8 236.52 215.63 239.6 229.1 268.16 228.22 270.65 225.44 274.61 224.54 277.16 223.91 280 221.13 278.94 213.65 272.91 212.19 274.92 211.95 277.86 210.19 278.55 208.11 275.91 204.3 270.43 200.78 265.79 197.78 259.69 195.03 255.05 185.09 233.36 183.36 227.68 181.31 224.57 179.41 220.77 
M 205.31 228.08 207.36 231.6 210.51 236.22 212.73 240.87 214.29 243.26 215.97 245.08 217.85 247.95 219.44 249.9 220.59 252.44 221.4 255.06 222.21 256.98 223.45 258.2 
M 201.33 227.12 204.51 233.23 207.57 238.22 208.52 240.49 209.84 242.89 211.43 244.49 213.3 246.9 214.89 249.86 216.3 251.79 216.99 254.43 217.98 256.61 219.3 258.84 219.81 260.8 220.7 262.54 222.4 264.84 224.46 267.18 
M 197.36 226.09 198.85 228.93 199.89 231.55 203.18 237 205.1 241.7 206.47 244.39 208.46 246.91 210.2 249.75 211.35 252.12 213.75 256.08 
M 193.42 224.98 196.08 230.49 196.78 233.21 199.49 237.61 200.69 240.46 201.51 243.13 202.85 246.49 207.6 254.84 208.57 257.19 212.29 263.56 212.61 265.35 
M 189.47 223.88 193.43 232.12 194.38 234.43 194.97 237.02 196.45 239.3 197.31 242.02 197.92 245.05 199.96 250.58 201.3 252.63 202.5 255.46 203.13 257.91 204.32 259.92 206.32 264.69 207.9 267.27 208.58 272.22 209.46 273.47 
M 185.55 222.67 188.02 228.81 189.62 231.04 190.89 233.53 191.43 235.83 193.63 240.15 194.2 243.69 194.99 246.79 195.86 252.82 
M 181.64 221.46 185.29 230.26 186.93 235.04 188.21 237.2 189.54 240.01 190.27 242.53 191.72 245.27 193.06 249.22 194.06 252.89 
M 359.73 195.44 364.33 201.03 363.78 201.64 357.75 197.63 
M 348.79 201.04 363.68 216.19 363.13 216.79 346.79 203.21 
M 337.67 206.25 353.97 223.52 353.4 224.11 335.62 208.37 
M 326.39 211.12 343.53 230.26 342.95 230.83 324.28 213.17 
M 314.9 215.45 330.13 233.36 329.54 233.92 312.74 217.46 
M 303.36 219.63 320.05 240.26 319.43 240.8 301.14 221.57 
M 291.59 223.1 303.83 240.22 303.19 240.73 289.28 224.93 
M 279.64 225.92 288.78 239.95 288.13 240.44 277.28 227.68 
M 270.26 227.86 273.67 234.25 273.01 234.74 267.89 229.62 
M 363.18 201.24 361.91 204.15 361.13 207.09 361.11 210.09 361.36 211.61 362.19 214.67 
M 361.49 215.43 358.86 215.98 356.51 216.93 354.58 218.51 353.78 219.51 352.34 221.79 
M 351.63 222.53 348.91 222.92 347.63 223.25 345.36 224.37 343.46 226.15 341.82 228.35 
M 341.08 229.07 338.1 228.59 335.22 228.6 332.49 229.34 331.17 229.98 328.61 231.57 
M 327.86 232.28 325.19 232.7 322.79 233.54 320.78 235.02 319.92 235.99 318.38 238.2 
M 317.6 238.88 314.29 237.74 312.64 237.33 309.31 237.06 305.97 237.53 302.61 238.51 
M 301.8 239.15 298.75 237.96 295.68 237.27 292.57 237.33 291.01 237.62 287.87 238.54 
M 287.04 239.16 284.39 236.95 283 236 280.03 234.58 276.77 233.87 273.33 233.61 
M 360.16 215.68 357.63 216.39 356.51 216.93 354.58 218.51 353.04 220.62 
M 353.88 211.84 351.51 212.66 350.26 213.68 349.25 215.06 
M 350.25 222.7 347.63 223.25 346.44 223.73 344.37 225.19 342.62 227.22 
M 343.51 218.16 341.04 218.83 339.68 219.78 338.55 221.1 
M 339.58 228.8 336.64 228.51 333.84 228.88 332.49 229.34 329.89 230.74 
M 332.58 223.72 330.67 223.54 328.85 223.77 326.28 224.99 
M 326.51 232.46 323.94 233.04 322.79 233.54 320.78 235.02 319.13 237.06 
M 320.04 227.58 318.38 227.96 316.94 228.71 315.25 230.58 
M 315.95 238.27 312.64 237.33 309.31 237.06 307.64 237.21 304.29 237.99 
M 309.09 232.69 306.93 232.07 304.77 231.89 301.51 232.5 
M 300.28 238.52 297.22 237.53 295.68 237.27 292.57 237.33 289.44 238.05 
M 294.74 233.93 291.75 233.12 289.73 233.15 287.69 233.63 
M 378.67 129.54 381.35 128.81 388.22 125.14 390.19 123.7 396.89 120.36 399.05 119.01 405.32 115.86 406.61 114.09 408.7 112.35 410.94 109.95 412.9 108.62 415.48 108 418 106.6 421.09 104.01 423.22 102.55 425.46 101.68 431.95 99.99 433.54 98.87 436.11 97.94 438.45 95.49 440.54 93.58 442.92 92.44 444.16 90.64 445.93 90.12 446.73 88.16 449.62 87.3 453.92 84.87 455.91 83.27 457.77 81.15 460.89 80.17 459.69 88.79 459.06 91.11 458.6 93.62 458.33 96.31 458.55 99.48 458.29 102.11 457.42 104.03 457.44 106.86 457 109.22 455.76 110.91 454.43 118.79 452.98 122.64 452.8 125.12 452.9 128.13 452.26 130.53 451.32 132.65 451.05 135.29 450.16 137.31 449.64 139.7 449.94 144.35 450.95 147.21 449.63 151.12 449.4 153.79 449.52 156.6 448.23 160.55 449.46 166.11 449.46 168.6 449.82 171.72 449.74 174.42 450.08 177.36 449.87 179.67 449.8 184.39 451.48 189.1 451.85 191.11 451.85 192.94 452.95 199.85 453.55 206.61 454.6 210.78 455.81 213.6 457.65 219.26 458.87 222.4 459.28 224.9 459.09 226.88 458.6 228.55 459.41 231.53 461.32 244.22 459.27 241.07 457.6 239.49 454.94 238.71 452.63 237.17 450.22 234.27 447.49 232.29 445.75 230.82 443.37 229.68 440.88 228.22 438.58 225.86 436.87 224.86 435.53 224.86 433.6 224.01 432.01 222.45 426.68 219.38 423.54 216.9 421.63 214.95 419.21 214.23 417.39 212.73 414.07 210.6 409.76 207.32 404.59 205.13 402.59 203.83 400.89 202.29 396.38 198.91 394.36 197.11 391.88 195.73 389.81 194.24 387.98 192.42 385.8 190.86 383.45 189.49 378.67 185.84 
M 383.7 130.55 392.59 126.06 394.82 125.53 399 123.24 401.54 122.39 404.07 121.05 406.33 120.42 410.36 116.96 412.62 114.78 414.67 113.8 416.99 111.73 419.59 111.32 421.23 109.94 425.62 108.82 427.91 108.4 430.56 107.3 436.26 103.9 438.22 102.25 439.9 101.28 442.29 100.62 
M 383.87 133.25 386.39 132.1 388.47 131.35 390.71 130.14 397.78 128.04 399.47 126.67 401.95 125.34 404.12 124.66 406.27 123.57 411.01 120.61 413.49 119.8 416.31 118.53 419.11 117.6 421.32 117.19 423.52 116.12 
M 381.45 137.52 383.96 136.58 386.46 135.24 388.88 134.59 391.26 133.7 394.1 133.18 396.31 132.24 398.79 131.65 401.22 130.79 402.88 129.8 404.98 128.97 411.99 125.17 414.17 124.86 416.28 123.5 419.55 123.09 424.9 121.83 427.5 119.56 429.46 118.58 432.16 117.43 435.54 116.44 438.9 115.72 440.9 115.03 443.02 114.08 445.82 112.31 448.03 111.39 449.66 109.69 
M 384.08 139.73 386.73 138.68 391.69 137.6 394.49 136.59 404.36 134.86 406.65 134.05 409.55 132.57 412.41 131.46 414.51 130.18 415.25 129.38 422.47 127.14 425.53 127.28 429.24 124.87 433.77 124.07 436.21 122.73 438.88 122.02 442.16 122.03 444.18 120.62 
M 378.67 143.61 381.64 143.41 384.21 142.91 389.28 141.23 391.94 140.52 397.31 139.51 401.64 139.34 404.47 138.98 407.05 138.31 409.51 136.82 413.36 135.94 415.93 134.67 416.53 134.14 417.66 133.83 419.86 132.78 423.15 132.25 
M 381.78 146.66 387.42 145.64 392.54 144.23 397.87 143.2 400.13 143.16 405.87 142.63 407.56 141.37 410.06 141.18 413.61 141.55 415.85 141.01 421.71 138.1 428.04 137.1 
M 378.67 149.24 382.05 149.79 387.76 149.32 393.06 148.55 395.68 148.76 398.22 148.29 400.16 147.51 402.52 147 407.78 147 411.06 146.55 414.28 146.38 417.53 145.05 419.41 143.78 422.29 143.41 425.63 144.06 
M 384.84 152.78 387.81 152.93 390.51 152.57 397.92 152.52 399.71 152.33 402.09 151.61 404.48 151.44 407.92 151.96 411.71 152.1 414.45 151.39 416.84 151.14 418.12 149.98 419.35 149.12 422.19 149.29 425.67 150.17 427.56 150.02 430.06 149.38 434.95 148.55 437.6 147.69 
M 382.14 155.43 387.69 156.19 397.37 156.21 399.54 156.74 405.1 155.81 408.06 156.44 410.87 156.29 413.95 155.51 416.5 155.81 418.55 155.27 419.96 155.08 422.42 155.17 425.14 155.84 427.94 155.69 430.37 155.16 433.97 155.04 436.42 155.45 439.06 155.4 
M 385.21 158.86 392.2 159.75 394.34 160.32 396.91 160.63 402.26 160.36 404.64 160.51 407.94 161.04 410.1 160.91 412.21 160.56 414.64 160.78 417.15 160.47 419.43 159.76 422.81 160.06 426.35 161.19 432.8 161.41 434.25 160.39 
M 384.61 162.11 389.91 163.01 392.62 163.19 395.15 163.03 398.18 163.63 400.87 163.59 405.21 163.81 407.71 164.42 410.89 164.9 413.59 165.81 417.96 165.19 419.24 165.34 421.67 165.92 424.27 166.26 427.14 167.68 429.75 168.27 433.11 167.66 
M 387.21 165.76 389.83 166.5 392.85 166.87 396.04 166.65 402.81 168.21 405.36 168.02 407.56 168.29 410.63 169.41 415.9 170.54 421.36 170.99 423.64 172.51 
M 381.67 167.13 387.15 169.26 389.74 169.49 395.53 170.51 397.99 171 402.75 172.72 405.73 172.89 408.46 173.8 411.16 174.35 415.71 174.96 417.09 175.56 418.73 176.83 421.5 178.05 424.88 178.58 426.22 179.14 
M 384.37 171.27 389.73 172.78 392.41 173.02 398.01 173.9 400.96 175.12 403.31 176.99 406.04 178.04 408.15 178.16 412.27 179.68 414.73 180.2 417.4 180.38 419.22 181.7 422.1 182.6 424.79 183 427.81 183.17 430.53 182.98 432.53 183.48 434.45 183.61 437.32 184.86 439.43 185.47 441.06 186.96 444.91 189.08 
M 378.67 171.76 381.62 173.2 384.63 174.25 387.57 174.93 390.01 176.09 392.42 176.82 394.77 177.1 400.37 179.15 405.62 181.88 407.7 182.57 409.85 183.68 411.41 185.14 413.44 185.86 416.7 186.53 421.97 189.08 423.66 188.94 426.39 189.1 429.18 189.68 431.66 190.93 433.66 191.41 438.74 190.69 442.04 195.3 444.89 196.72 449.07 196.94 
M 386.87 178.75 389.32 179.55 394.54 180.66 396.96 181.61 399.59 183.43 404.55 186.2 410.8 188.27 415.7 190.35 418.08 192 421.08 193.54 425.46 194.84 427.37 196.13 430.24 196.59 
M 381.29 179.09 386.21 182.11 388.59 182.95 391.42 183.42 393.95 184.09 397 185.14 399 187.05 400.97 188.47 403.24 189.08 405.45 190.28 407.49 191.1 409.73 192.58 411.89 193.6 414.17 195.27 417.8 195.89 
M 383.53 183.56 385.92 185.01 390.57 187.36 393.23 188.04 395.66 189.6 398.05 190.86 399.99 191.66 402.54 193.15 410.25 199.43 414.89 202.27 420.32 203.72 
M 381.15 184.84 385.8 188.02 387.98 189.1 392.35 192.26 394.76 193.31 396.7 194.53 401.01 198.18 403.5 199.56 408 202.45 409.9 203.97 412.29 205.24 414.99 205.99 417.17 206.4 420.5 209.6 422.75 211.08 425.16 212.41 428.29 213.63 433.73 216.72 436.44 219.55 439.02 221.15 441.12 221.23 444.71 223.03 446.39 224.51 450.15 226.07 452.93 227.51 
M 75.53 146.5 75.89 144.68 76.77 142.51 78.26 140.47 83.26 135.73 86.77 132.68 90.62 129.65 94.88 126.6 99.59 123.61 104.75 120.9 120.96 113.61 130.84 109.94 139.55 107.1 141.85 112.29 142.48 117.37 144.37 127.61 145.01 132.69 145.08 137.71 144.65 147.7 143.53 152.6 142.74 157.53 141.72 162.44 138.81 172.16 138.15 177.11 136.21 186.93 134.79 191.8 132.76 196.6 129.64 201.19 121.55 200.47 115.55 199.12 110.24 197.21 105.42 194.77 101.03 192.18 96.93 189.36 92.87 185.97 89.31 182.47 86.31 178.88 83.86 175.19 
M 127.77 136.87 127.32 141.12 124.48 148.95 122.86 152.54 119.4 158.8 118.32 164.37 118.23 170.41 117.92 173.97 116.85 177.89 111.58 177.96 107.65 177.8 103.91 177.27 100.2 176.24 96.59 174.84 93.11 172.9 89.63 170.07 
M 82.72 174.25 79.06 165.71 76.4 157.99 73.5 150.18 73.19 148.16 74.39 146.54 76.55 146.46 78.04 147.82 79.01 151.92 81.14 164.08 83.93 175.16 
M 82.04 175.08 77.61 173.28 66.08 168.22 60.55 165.52 58.98 164.39 58.67 162.4 59.99 160.82 62.02 160.78 77.48 171.03 82.76 174.28 
M 83.48 174.74 83.74 174.91 
M 95.7 142.87 94.89 139.79 95.12 136.6 96.37 133.66 98.51 131.29 101.3 129.75 104.45 129.19 107.6 129.68 110.42 131.18 112.61 133.5 113.92 136.41 114.22 139.59 113.46 142.7 111.74 145.39 109.24 147.37 106.24 148.44 103.04 148.47 100.01 147.46 97.47 145.53 95.7 142.87 
M 95.58 142.6 94.95 140.29 94.9 137.89 95.44 135.55 96.53 133.42 97.27 132.47 99.07 130.88 100.1 130.26 102.36 129.44 103.54 129.24 105.94 129.29 108.26 129.93 
M 97.1 141.97 96.77 141.03 96.49 139.06 96.8 136.7 
M 98.61 133.44 100 132.23 100.85 131.72 102.73 131.04 103.71 130.87 105.71 130.91 107.63 131.44 
M 98.61 141.35 98.12 139.02 98.39 137.11 
M 99.96 134.4 101.61 133.18 103.1 132.63 104.68 132.47 107 132.96 
M 101.01 140.48 100.68 139.25 100.83 137.84 
M 101.86 136.16 102.13 135.85 103.25 135.23 104.51 135.01 105.77 135.21 106.9 135.8 107.77 136.73 108.29 137.9 108.41 139.17 108.11 140.41 107.42 141.49 106.42 142.28 105.22 142.71 103.94 142.72 102.73 142.32 101.72 141.54 101.01 140.48 
M 102.07 135.92 101.92 136.22 
M 101.08 137.9 100.73 138.6 
M 103.68 135.15 102.81 136.89 
M 102.19 138.14 101.01 140.49 
M 104.95 135.08 103.76 137.46 
M 103.3 138.37 101.72 141.54 
M 106.04 135.35 104.65 138.14 
M 104.41 138.61 102.61 142.22 
M 106.99 135.91 103.64 142.62 
M 107.79 136.78 104.82 142.71 
M 108.32 138.17 106.23 142.35 
M 83.93 175.17 87.13 178.37 
M 82.3 168.63 82.89 169.21 
M 80.8 162.21 81.21 162.61 
M 79.83 156.32 80.46 156.94 
M 78.66 150.23 80.5 152.07 
M 76.51 143.16 79.62 146.27 
M 78.51 140.24 82.34 144.07 
M 81.04 137.85 84.97 141.79 
M 83.57 135.47 87.86 139.75 
M 86.2 133.18 90.12 137.1 
M 88.93 130.99 93.12 135.18 
M 91.72 128.86 95.16 132.31 
M 94.59 126.81 97.47 129.7 
M 97.58 124.89 101.8 129.11 
M 100.66 123.05 103.36 125.74 
M 103.89 121.36 107.78 125.25 
M 107.26 119.81 111.62 124.17 
M 110.67 118.3 114.85 122.48 
M 113.99 116.71 117.6 120.32 
M 117.37 115.17 122.26 120.06 
M 120.8 113.68 125.65 118.53 
M 124.34 112.3 128.64 116.6 
M 127.93 110.97 130.95 114 
M 131.56 109.69 136.4 114.53 
M 135.25 108.46 138.76 111.97 
M 138.99 107.28 139.62 107.91 
M 89.82 140.45 88.88 140.25 87.91 139.79 85.98 138.02 85.5 137.93 84.22 138.09 82.81 138.77 
M 93.21 186.24 92.79 184.29 91.86 183.04 
M 116.35 176.07 115.85 176.67 115.24 177.02 112.58 177.88 112.19 177.88 111.99 177.62 
M 131.02 139.56 129.14 140.98 128.22 141.33 127.27 141.31 125.34 141.05 124.44 140.74 122.15 139.34 120.17 138.67 119.53 138.25 
M 110.85 196.32 108.08 196.12 
M 127.34 137.28 124.54 137.52 123.14 138.28 121.86 138.54 119.89 138.28 119.11 137.91 
M 142.48 122.58 142.86 122.9 142.91 123.19 142.08 124.27 
M 93.2 169.19 92.5 167.93 92.35 167.37 92.59 167.1 93.16 166.93 93.95 167.18 
M 123.81 136.93 123 137.76 121.89 138.27 119.88 138.2 118.89 137.86 118.14 138.14 
M 122.43 156.98 124.2 158.76 124.35 159.16 124.27 160.2 123.4 162.64 120.68 165.39 
M 117.64 146.8 117.74 148.1 117.45 148.72 116.29 150.31 116.2 150.99 
M 90.31 172.07 89.53 171.3 88.1 169.43 87.77 168.34 88.23 167.64 
M 137.31 132.9 136.14 133.84 134.91 134.16 131.27 133.75 130.2 133.4 
M 126.03 198.41 126.51 197.87 126.72 197.07 126.63 196.33 126.05 194.82 
M 94.25 187.12 93.61 184.59 92.81 183.34 
M 130.5 116.52 130.6 119.55 130.48 120.52 130.18 121.1 129.61 121.41 
M 127.86 161.28 126.58 160.74 125.97 160.83 124.85 161.55 123.17 163.64 121.01 165.54 119.37 168.17 
M 93.5 183.6 91.72 181.88 87.68 178.96 87.06 178.29 86.2 177.69 
M 144.79 134.97 143.89 135.67 143.79 136.28 
M 98.44 124.4 99.81 124.09 101.62 124.36 
M 86.03 149.43 85.33 148.62 84.67 147.2 83.5 145.51 82.9 145.04 81.89 144.6 
M 96.26 185.4 95.34 182.97 94.19 181.33 92.31 179.17 91.92 178.38 91.46 176.49 
M 82.72 146.76 81.71 145.33 81.09 144.89 80.35 144.69 79.17 144.84 77.12 145.79 
M 129.77 197.96 129.07 197.82 128.61 197.53 128.03 196.6 126.69 195.18 125.6 194.46 
M 125.22 125.58 122.72 122.08 120.73 120.37 119.64 118.87 118.36 117.95 117.56 117.81 
M 108.74 160.18 104.88 160.59 103.9 160.92 103.61 161.27 102.92 163.9 
M 137.15 181.84 136.37 181.15 135.55 180.7 134.32 180.39 133.62 180.55 131.73 181.74 
M 105.08 168.07 104.96 167.91 104.8 168.04 
M 132.21 166.23 131.99 165.77 131.81 164.46 131.21 163.46 130.59 161.72 131.09 159.65 131.14 158.14 
M 95.96 155.55 98.05 156.22 102.77 156.98 
M 131.09 166.12 130.48 165.18 129.35 164.16 127.79 163.64 125.98 163.69 125.18 163.86 122.53 165.15 121.57 165.76 120.16 167.33 
M 111.43 132.25 113.46 132.65 116.32 134.48 116.86 135.05 117.47 136.2 117.6 138.02 
M 143.62 131.15 143.06 131.79 140.74 136.2 140.7 136.75 141.12 138.35 141.68 139.2 
M 112.41 154.68 111.94 153.47 111.27 152.33 109.22 150.65 108.33 150.13 105.46 149.24 103.05 149.33 
M 110.02 161.09 108.45 160.97 105.13 161.9 104.21 162.44 103.59 163.48 
M 130.99 143.61 128.75 144.04 128.26 144.31 125.94 146.23 125.19 147.37 
M 132.77 156.07 133.5 154.46 134.65 153.5 135.03 152.57 135.63 151.8 
M 107.54 186.03 107.75 185.44 108.14 184.97 109.84 184.13 111.13 183.88 112.02 184.18 
M 96.01 127.08 96.66 127.78 97.29 128.18 99.71 129.14 
M 95.57 181.43 95.26 179.88 95.62 176.57 96.1 175.31 97.01 174.16 
M 109.9 158.85 105.3 157.5 104.54 156.91 103.75 156.01 103.31 154.81 
M 133.99 193.7 132.55 192.97 131.24 192.8 
M 99.4 168.21 99.1 169.35 97.56 171.36 97.19 172.23 
M 82.07 167.83 82.94 166.01 84.51 164.49 85.68 162.96 86.25 162.44 87.82 161.82 
M 133.33 127.8 132.51 127.58 129.77 127.42 129.11 127.07 126.15 124.84 125.39 124.04 124.11 122.21 122.84 120.95 122.05 120.42 
M 119.31 122.62 119.54 121.41 119.28 119.22 118.25 118.18 116.1 117.57 
M 114.95 186.76 114.29 188.73 113.8 189.17 113.06 189.5 112.53 189.52 112.02 189.26 111.39 187.86 
M 80.29 147.54 80.07 146 79.49 145.56 78.59 145.65 76.58 146.48 
M 142.53 142.81 143.25 144.06 143.4 145.06 
M 124.85 193.02 123.97 193.73 123.98 194.05 
M 121.3 136.3 118.65 136.78 117.91 137.72 117.85 138.56 
M 140.24 161.65 141.01 161.3 141.94 161.34 
M 97.42 184.33 97.62 182.61 98.78 179.64 98.58 175.74 
M 112.67 133.62 114.15 134.45 115.9 136.13 
M 121.6 115.66 120.46 115.14 119.82 115.08 116 115.76 
M 138.06 122.91 139.08 122.29 141.36 122 142.52 122.41 143.13 122.9 
M 90.33 183.47 89.64 182.53 88.94 182.03 
M 122.78 129.63 120.87 128.64 120.46 127.96 119.62 123.4 119.81 122.21 
M 135.59 171.78 134.68 172.05 133.29 172.03 130.56 171.53 127.75 170.12 125.78 168.85 
M 85.54 135.72 84.2 135.56 83.12 135.87 
M 136.29 176.95 137.04 175.94 138.34 175.7 
M 122.33 173.11 122.41 170.77 122.26 169.23 121.83 168.83 120.25 168.72 
M 83.26 164.68 84.06 164.04 85.38 162.55 86.07 162.04 87.8 161.47 89.04 160.91 89.5 160.55 90.17 159.33 90.31 158.56 90.05 155.61 
M 86.85 132.63 88.28 132.08 90.54 130.54 91.15 129.83 91.48 129.04 
M 98.23 149.9 98.16 151.52 98.67 152.8 99.92 154.36 101.45 155.45 
M 100.42 156.78 102.75 157.23 
M 129.9 175.66 128.4 174.83 127.7 174.05 126.34 171.8 125.27 170.74 124.9 169.87 124.77 169.06 124.41 168.78 
M 137.08 182.2 135.88 181.32 134.57 180.91 133.77 181.04 131.95 182.1 130.64 182.58 
M 101.83 126.43 103.67 124.23 103.89 123.62 103.95 122.78 
M 115.11 128.56 116.17 126.7 117.49 123.39 117.85 122.04 117.9 120.74 117.49 119.59 116.97 118.73 
M 119.17 197.05 120.73 198.04 121.22 198.05 122.89 197.63 125.52 197.75 125.94 197.69 126.4 197.28 
M 134.97 183.48 133.89 183.06 133.11 183.26 132.38 183.87 132.31 184.21 132.46 184.51 
M 134.41 159.89 134.96 158.99 135.39 158.63 136.54 158.28 137.29 157.7 138.02 157.44 
M 81.4 165.17 84.98 162.24 86.56 161.54 87.48 161.31 
M 98.85 179.81 98.68 175.26 98.22 174.3 
M 105.1 148.81 102.88 149.02 101.11 149.81 100.32 150.59 99.94 151.53 
M 103.66 191.12 102.98 190.72 99.53 190.16 97.17 189.04 95.95 188.12 95.42 187.5 94.77 186.23 
M 130.82 199.45 129.72 199.59 128.99 199.42 128.47 199.04 128.16 198.53 127.83 197.05 127.56 196.53 126.41 195.1 
M 124.48 171.87 123.88 170.49 123.62 169.45 123.36 169.22 122.08 168.82 
M 85.68 161.41 87.48 160.95 88.77 160.43 89.24 160.16 89.9 159.12 90.04 158.43 89.84 155.54 89.06 153.99 88.18 153.57 
M 91.99 185.1 91.61 184.03 90.66 182.56 88.62 180.8 87.12 179.85 
M 119.12 121.78 119.07 119.53 118.58 118.71 117.96 118.2 115.45 117.36 
M 129.62 198.39 128.95 198.22 128.56 197.91 127.78 196.49 126.46 195.03 125.74 194.54 
M 99.53 161.61 100.05 163.2 100.08 164.08 99.69 165.13 98.61 166.63 98.34 167.26 97.6 170.32 
M 78.72 148.45 78.49 147.95 77.87 147.66 
M 84.34 158.97 84.83 159.5 85.49 159.84 86.47 159.65 87.06 159.08 87.3 158.46 87.35 157.86 87.15 157.1 
M 133.98 193.72 132.33 192.96 128.98 192.71 
M 101.04 189.31 99.64 188.96 95.91 186.68 95.54 186.18 94.93 184.38 94.09 183.42 
M 111.46 193.67 109.42 193.76 107.01 193.1 106.47 192.67 106.3 192.31 106.29 191.42 106.57 190.91 
M 136.85 130.38 136.04 130.75 135.2 130.83 133.04 129.9 129.62 129.48 128.05 128.66 
M 116.3 134.94 117.22 136.33 117.5 137.88 117.9 138.71 
M 134.45 125.31 133.07 123.04 132.55 122.61 131.01 121.84 128.79 121.39 
M 102.58 169.8 104.96 169.4 105.37 168.81 105.4 168.06 
M 119.06 188.78 117.89 189.18 115.13 191.02 112.46 192.47 111.83 192.61 110.57 192.43 110.07 192.1 109.82 191.63 
M 89.62 138.89 88.06 137.93 86.5 137.37 85.04 137.23 83.61 137.35 
M 115.61 140.24 116.89 140.9 118.09 141.19 118.77 141 118.88 140.54 
M 79.6 154.45 82.04 156.27 83.37 158.15 84.1 158.82 
M 119.95 183.99 120.87 182.1 122.75 180.62 123.79 179.37 124.69 177.56 125.36 175.28 
M 105.76 121.56 104.99 120.8 
M 116.97 198.52 117.72 198.95 118.48 199.78 
M 121.45 200.45 122.12 199.98 
M 114.23 136.31 115.21 137.03 117.14 139.04 117.75 139.25 118.27 139.07 
M 125.51 156.72 126.99 155.89 128.43 154.31 
M 127.22 161.77 126.49 161.63 125.85 161.81 124.5 162.66 123.3 163.93 121 165.8 119.06 168.71 
M 119.59 131.18 119.53 132.48 118.73 135.12 117.87 136.69 117.71 138.19 
M 84.62 175.89 83.8 176.61 83.25 177.4 82.9 178.29 82.81 179.21 83.01 180.11 83.49 180.89 84.24 181.44 85.2 181.74 86.28 181.81 88.58 181.49 89.72 181.17 91.84 180.19 93.61 178.62 95.69 175.63 97.25 172.3 96.4 174.61 95.35 176.85 94.07 178.99 93.26 179.97 92.32 180.85 90.1 182.15 88.9 182.62 86.38 183.21 85 183.25 83.58 182.94 82.27 182.15 81.32 180.93 80.84 179.46 80.82 177.93 81.23 176.48 81.96 175.17 82.88 174.15 
M 83.81 175.2 83.99 175.8 
M 81.67 171.6 81.62 171.75 81.73 171.75 
M 79.92 167.75 79.49 168.48 80.15 168.23 
M 78.43 163.99 78.04 164.23 77.35 165.21 78.18 164.7 78.68 164.68 
M 77.17 160.18 76.16 160.71 75.22 161.94 76.3 161.18 77.46 161.05 
M 75.84 156.44 74.28 157.2 73.09 158.67 74.42 157.67 76.19 157.4 
M 74.41 152.77 72.4 153.68 70.96 155.4 72.54 154.15 74.78 153.76 
M 73.31 148.96 70.51 150.16 68.82 152.13 70.66 150.63 73.48 150.08 
M 83.7 174.99 84.48 175.4 
M 80.29 172.72 81.19 172.45 81.19 173.26 
M 77.13 170.78 77.83 170.17 78.62 169.88 78.26 170.4 78.13 171.42 
M 74.12 168.74 74.97 167.8 76.06 167.31 75.41 168.03 75.07 169.38 
M 71.1 166.7 72.12 165.43 73.5 164.74 72.55 165.66 72.04 167.32 
M 68 164.77 69.26 163.06 70.93 162.17 69.7 163.29 68.96 165.38 
M 64.99 162.71 66.41 160.69 68.37 159.6 66.84 160.92 65.92 163.36 
M 61.89 160.78 63.55 158.32 65.8 157.02 63.99 158.55 62.89 161.32 
M 66.6 168.42 71.13 172.54 74.45 175.28 77.89 177.86 80.97 179.86 
M 86.91 183.11 92.87 185.97 
M 139.76 106.94 148.69 115.87 
M 144.26 104.88 150.02 110.64 
M 148.75 102.81 153.81 107.87 
M 153.36 100.87 163.12 110.62 
M 158 98.94 163.61 104.56 
M 162.72 97.11 172.14 106.53 
M 167.48 95.31 176.06 103.89 
M 172.32 93.6 177.97 99.24 
M 177.23 91.94 185.17 99.88 
M 182.09 90.25 188.6 96.76 
M 186.93 88.54 192.17 93.78 
M 191.92 86.96 198.52 93.56 
M 197.04 85.53 202.33 90.82 
M 202.34 84.27 208.25 90.18 
M 207.78 83.15 217.56 92.93 
M 213.39 82.2 221.97 90.78 
M 219.06 81.32 225.2 87.46 
M 225.38 81.09 234.13 89.84 
M 231.78 80.93 237.91 87.05 
M 238.27 80.85 244.52 87.11 
M 244.65 80.68 252.9 88.93 
M 251.36 80.84 258.65 88.12 
M 258.93 81.85 266.77 89.69 
M 267.84 84.2 274.24 90.6 
M 277.49 87.29 285.76 95.56 
M 287.82 91.06 297.5 100.74 
M 298.09 94.77 303.94 100.62 
M 308.16 98.29 314.89 105.02 
M 319.09 102.66 328.43 112 
M 331.42 108.43 336.77 113.79 
M 343.68 114.14 352.89 123.35 
M 355.47 119.37 362.58 126.48 
M 367.21 124.56 372.36 129.71 
M 378.81 129.6 386.8 137.59 
M 234.18 134.1 234.55 134.5 234.57 135.32 234.23 135.74 233.86 135.34 233.84 134.52 234.18 134.1 
M 234.03 135.52 234.02 134.98 234.54 134.34 235.07 134.25 235.09 134.8 234.57 135.43 234.03 135.52 
M 237.33 120.55 237.44 120.02 238.09 119.52 238.63 119.56 238.52 120.09 237.87 120.59 237.33 120.55 
M 237.36 120.08 237.87 119.89 238.63 120.19 238.89 120.66 238.38 120.85 237.61 120.56 237.36 120.08 
M 223.39 144.66 223.15 144.18 223.36 143.38 223.81 143.08 224.05 143.57 223.84 144.36 223.39 144.66 
M 223.94 144.4 223.52 144.05 223.38 143.24 223.66 142.78 224.08 143.12 224.22 143.93 223.94 144.4 
M 241.75 128.23 241.48 127.76 241.64 126.95 242.06 126.62 242.33 127.09 242.18 127.89 241.75 128.23 
M 241.43 127.02 241.93 127.23 242.3 127.96 242.17 128.48 241.67 128.28 241.3 127.55 241.43 127.02 
M 244.66 105.79 245.19 105.68 245.91 106.07 246.1 106.58 245.57 106.69 244.85 106.3 244.66 105.79 
M 245.86 106.58 245.36 106.38 244.98 105.66 245.1 105.13 245.61 105.33 245.99 106.05 245.86 106.58 
M 248.63 116.27 248.44 115.77 248.72 115 249.2 114.74 249.39 115.25 249.1 116.01 248.63 116.27 
M 249.48 115.24 249.08 115.61 248.26 115.64 247.84 115.3 248.24 114.93 249.05 114.9 249.48 115.24 
M 230.48 111.28 229.98 111.49 229.2 111.23 228.92 110.77 229.42 110.56 230.2 110.81 230.48 111.28 
M 230.32 110.93 229.83 111.17 229.04 110.97 228.73 110.52 229.22 110.28 230.01 110.48 230.32 110.93 
M 221.81 123.1 222.32 122.91 223.09 123.2 223.35 123.68 222.84 123.87 222.07 123.58 221.81 123.1 
M 222.11 122.98 222.6 123.19 222.97 123.93 222.83 124.45 222.33 124.24 221.97 123.51 222.11 122.98 
M 233.52 127.08 232.99 127.19 232.27 126.79 232.09 126.28 232.62 126.17 233.33 126.57 233.52 127.08 
M 233.24 127.13 232.76 126.87 232.47 126.1 232.65 125.59 233.13 125.85 233.42 126.62 233.24 127.13 
M 238.74 107.7 238.55 108.21 237.82 108.59 237.3 108.47 237.49 107.96 238.22 107.58 238.74 107.7 
M 237.61 107.61 238.07 107.89 238.33 108.67 238.11 109.17 237.65 108.89 237.4 108.11 237.61 107.61 
M 252.7 126.36 252.24 126.08 251.99 125.3 252.21 124.8 252.67 125.09 252.92 125.87 252.7 126.36 
M 252.45 124.96 252.62 125.47 252.31 126.23 251.82 126.48 251.65 125.96 251.96 125.2 252.45 124.96 
M 232.3 143.47 231.77 143.36 231.28 142.7 231.32 142.16 231.85 142.28 232.34 142.93 232.3 143.47 
M 231.25 143.1 231.64 142.72 232.46 142.66 232.89 142.98 232.51 143.37 231.69 143.43 231.25 143.1 
M 253.89 103.54 254.43 103.45 255.13 103.87 255.3 104.39 254.76 104.48 254.06 104.05 253.89 103.54 
M 255.15 103.67 254.77 104.06 253.95 104.12 253.51 103.8 253.89 103.42 254.71 103.35 255.15 103.67 
M 248.92 94.45 249.37 94.15 250.18 94.24 250.55 94.64 250.1 94.95 249.29 94.85 248.92 94.45 
M 249.39 94.03 249.81 94.37 249.96 95.17 249.68 95.64 249.26 95.3 249.11 94.49 249.39 94.03 
M 240.02 94.61 239.77 95.09 239 95.38 238.49 95.19 238.75 94.71 239.52 94.42 240.02 94.61 
M 239.71 94.47 239.45 94.94 238.68 95.24 238.17 95.05 238.43 94.57 239.2 94.28 239.71 94.47 
M 257.44 115.92 257.36 116.46 256.75 117 256.2 117 256.28 116.46 256.89 115.92 257.44 115.92 
M 256.41 116.94 256.63 116.44 257.36 116.07 257.88 116.21 257.67 116.71 256.94 117.07 256.41 116.94 
M 230.41 102.77 230.14 102.3 230.31 101.5 230.74 101.17 231.01 101.64 230.84 102.44 230.41 102.77 
M 229.97 102.14 230.43 101.84 231.24 101.95 231.6 102.36 231.14 102.65 230.33 102.54 229.97 102.14 
M 251.84 82.95 251.31 82.87 250.78 82.24 250.78 81.7 251.32 81.78 251.85 82.41 251.84 82.95 
M 251.87 82.6 251.34 82.52 250.8 81.9 250.8 81.36 251.33 81.44 251.87 82.06 251.87 82.6 
M 262.65 93.7 263.07 93.35 263.89 93.36 264.29 93.72 263.88 94.07 263.06 94.06 262.65 93.7 
M 262.88 93.91 263.32 93.59 264.14 93.65 264.52 94.04 264.08 94.36 263.26 94.3 262.88 93.91 
M 260.91 101.38 261.37 101.66 261.61 102.45 261.4 102.94 260.94 102.66 260.69 101.88 260.91 101.38 
M 260.53 102.12 261.06 101.99 261.79 102.36 261.99 102.86 261.47 102.99 260.74 102.62 260.53 102.12 
M 257.56 86.62 258.07 86.44 258.83 86.75 259.09 87.23 258.57 87.41 257.81 87.1 257.56 86.62 
M 258.08 86.35 258.43 86.76 258.43 87.58 258.07 87.99 257.72 87.58 257.72 86.76 258.08 86.35 
M 241.56 82.29 241.99 81.95 242.81 81.99 243.2 82.36 242.78 82.7 241.96 82.66 241.56 82.29 
M 241.94 81.88 242.42 82.13 242.72 82.9 242.54 83.41 242.06 83.15 241.76 82.39 241.94 81.88 
M 255.56 141.08 255.76 141.58 255.5 142.36 255.03 142.63 254.83 142.13 255.09 141.35 255.56 141.08 
M 254.68 141.95 255.16 141.71 255.96 141.92 256.26 142.36 255.78 142.6 254.98 142.4 254.68 141.95 
M 232.59 75.34 232.54 75.88 231.94 76.45 231.4 76.47 231.46 75.93 232.05 75.37 232.59 75.34 
M 232.2 76.5 231.88 76.06 231.94 75.25 232.32 74.86 232.65 75.3 232.58 76.12 232.2 76.5 
M 248.69 69.54 249.16 69.27 249.96 69.43 250.3 69.85 249.83 70.12 249.02 69.97 248.69 69.54 
M 250.05 69.42 249.66 69.8 248.84 69.84 248.41 69.52 248.8 69.14 249.62 69.09 250.05 69.42 
M 231.77 87.26 231.86 87.79 231.44 88.5 230.93 88.67 230.83 88.13 231.25 87.43 231.77 87.26 
M 230.73 87.88 231.26 87.78 231.97 88.2 232.14 88.71 231.61 88.81 230.9 88.4 230.73 87.88 
M 209.74 122.69 209.81 122.15 210.42 121.6 210.96 121.59 210.89 122.13 210.29 122.68 209.74 122.69 
M 210.95 122.33 210.41 122.33 209.78 121.79 209.71 121.26 210.25 121.26 210.87 121.79 210.95 122.33 
M 214.09 130.94 214.41 130.51 215.21 130.32 215.69 130.58 215.37 131.01 214.57 131.2 214.09 130.94 
M 215.52 130.79 214.99 130.93 214.26 130.57 214.04 130.07 214.56 129.93 215.3 130.29 215.52 130.79 
M 258.03 68.03 258.51 67.77 259.31 67.96 259.63 68.4 259.15 68.65 258.35 68.47 258.03 68.03 
M 258.29 68.53 258.65 68.12 259.47 68.02 259.92 68.33 259.55 68.73 258.74 68.83 258.29 68.53 
M 265.57 82.47 265.36 81.97 265.62 81.19 266.08 80.91 266.29 81.41 266.04 82.19 265.57 82.47 
M 266.27 82.14 265.79 81.89 265.49 81.12 265.67 80.61 266.15 80.86 266.45 81.63 266.27 82.14 
M 265.88 132.8 265.52 132.4 265.5 131.58 265.85 131.16 266.21 131.57 266.23 132.38 265.88 132.8 
M 265.51 132.5 265.67 131.98 266.36 131.54 266.9 131.63 266.74 132.15 266.04 132.58 265.51 132.5 
M 261.21 125.77 260.91 125.32 261.03 124.51 261.43 124.15 261.73 124.6 261.62 125.42 261.21 125.77 
M 260.74 125.2 261.16 124.85 261.98 124.86 262.38 125.23 261.97 125.57 261.15 125.56 260.74 125.2 
M 245.95 154.25 246.46 154.07 247.23 154.36 247.48 154.84 246.97 155.02 246.21 154.73 245.95 154.25 
M 247.34 154.56 246.82 154.71 246.08 154.37 245.85 153.88 246.37 153.73 247.12 154.07 247.34 154.56 
M 200.04 129.17 199.66 129.56 198.84 129.62 198.41 129.29 198.79 128.91 199.61 128.85 200.04 129.17 
M 199.64 128.76 199.42 129.26 198.68 129.62 198.16 129.47 198.38 128.98 199.12 128.62 199.64 128.76 
M 214.62 116.08 214.35 115.61 214.52 114.81 214.95 114.48 215.21 114.95 215.05 115.76 214.62 116.08 
M 215.38 115.47 214.83 115.47 214.22 114.93 214.14 114.4 214.68 114.4 215.3 114.94 215.38 115.47 
M 200.43 117.72 200.96 117.8 201.49 118.43 201.48 118.97 200.95 118.89 200.42 118.26 200.43 117.72 
M 200.86 118.96 200.78 118.43 201.21 117.73 201.73 117.57 201.81 118.11 201.38 118.8 200.86 118.96 
M 209.16 109.65 209.16 109.11 209.68 108.48 210.22 108.4 210.23 108.94 209.7 109.57 209.16 109.65 
M 210.24 108.73 209.86 109.12 209.05 109.18 208.61 108.86 208.99 108.47 209.81 108.41 210.24 108.73 
M 272.92 99.69 273.44 99.82 273.9 100.5 273.84 101.04 273.32 100.9 272.86 100.22 272.92 99.69 
M 273.78 99.88 273.58 100.39 272.85 100.76 272.32 100.63 272.52 100.12 273.25 99.75 273.78 99.88 
M 271.02 91.15 271.56 91.07 272.25 91.5 272.41 92.02 271.87 92.11 271.18 91.67 271.02 91.15 
M 271.1 91.48 271.64 91.41 272.32 91.86 272.47 92.38 271.93 92.45 271.25 92 271.1 91.48 
M 214.28 100.81 213.8 100.57 213.49 99.81 213.66 99.3 214.14 99.54 214.45 100.3 214.28 100.81 
M 214.35 100.55 213.9 100.24 213.71 99.44 213.95 98.96 214.39 99.27 214.59 100.07 214.35 100.55 
M 201.55 104.97 202.09 105.07 202.59 105.71 202.57 106.26 202.04 106.15 201.53 105.51 201.55 104.97 
M 202.67 105.45 202.21 105.74 201.4 105.63 201.04 105.22 201.5 104.92 202.31 105.04 202.67 105.45 
M 220.84 104.79 221.38 104.78 222 105.32 222.08 105.86 221.54 105.86 220.92 105.32 220.84 104.79 
M 221.38 105.94 221.28 105.41 221.71 104.7 222.22 104.53 222.31 105.07 221.89 105.77 221.38 105.94 
M 252.72 136.05 252.25 135.79 251.97 135.01 252.17 134.51 252.64 134.77 252.92 135.54 252.72 136.05 
M 253.07 135.35 252.53 135.45 251.82 135.05 251.64 134.54 252.17 134.43 252.88 134.84 253.07 135.35 
M 265.72 109.89 265.3 110.24 264.48 110.23 264.08 109.88 264.49 109.52 265.31 109.53 265.72 109.89 
M 264.61 110.44 264.7 109.9 265.34 109.39 265.88 109.4 265.78 109.94 265.15 110.45 264.61 110.44 
M 271.71 117.42 272.02 116.97 272.82 116.77 273.3 117.02 272.99 117.46 272.2 117.66 271.71 117.42 
M 272.06 117.65 272.32 117.17 273.08 116.88 273.59 117.07 273.33 117.55 272.57 117.84 272.06 117.65 
M 278.78 108.61 279.26 108.35 280.06 108.53 280.38 108.97 279.9 109.22 279.1 109.05 278.78 108.61 
M 279.09 109.17 279.39 108.72 280.19 108.52 280.67 108.76 280.37 109.21 279.57 109.41 279.09 109.17 
M 279.16 138.83 278.92 139.31 278.16 139.62 277.65 139.45 277.89 138.96 278.65 138.65 279.16 138.83 
M 278.12 139.69 278.21 139.16 278.84 138.64 279.39 138.65 279.29 139.19 278.66 139.71 278.12 139.69 
M 277.43 129.41 277.93 129.21 278.7 129.46 278.98 129.93 278.48 130.14 277.7 129.88 277.43 129.41 
M 278 130.26 278.01 129.72 278.56 129.11 279.1 129.05 279.09 129.59 278.54 130.2 278 130.26 
M 220.73 90.37 220.35 89.99 220.27 89.17 220.59 88.74 220.98 89.11 221.05 89.93 220.73 90.37 
M 220.38 89 220.76 89.38 220.82 90.2 220.5 90.63 220.11 90.25 220.05 89.43 220.38 89 
M 219.26 80.46 219.76 80.67 220.12 81.4 219.99 81.93 219.49 81.72 219.12 80.99 219.26 80.46 
M 220.21 81.4 219.67 81.39 219.07 80.84 219 80.3 219.54 80.31 220.15 80.86 220.21 81.4 
M 281.93 82.82 282.1 83.33 281.78 84.09 281.3 84.33 281.13 83.81 281.45 83.06 281.93 82.82 
M 281.77 84.18 281.48 83.72 281.6 82.91 282.01 82.56 282.3 83.01 282.19 83.82 281.77 84.18 
M 287.5 90.06 287.43 90.6 286.81 91.14 286.27 91.14 286.34 90.6 286.96 90.06 287.5 90.06 
M 287.51 90.57 287 90.76 286.23 90.48 285.97 90.01 286.47 89.81 287.24 90.09 287.51 90.57 
M 278.41 89.88 278.86 90.19 279.06 90.99 278.82 91.47 278.37 91.16 278.17 90.37 278.41 89.88 
M 279.07 91.11 278.58 90.87 278.26 90.12 278.42 89.6 278.91 89.84 279.23 90.59 279.07 91.11 
M 212.15 79.83 211.62 79.9 210.93 79.45 210.79 78.93 211.32 78.86 212.01 79.31 212.15 79.83 
M 210.85 79.31 211.38 79.2 212.09 79.61 212.28 80.12 211.75 80.23 211.03 79.82 210.85 79.31 
M 209.39 88.97 209.14 89.45 208.38 89.75 207.87 89.58 208.12 89.09 208.88 88.79 209.39 88.97 
M 208.22 88.8 208.68 89.08 208.93 89.86 208.72 90.36 208.26 90.08 208.01 89.3 208.22 88.8 
M 203.84 95.73 204.38 95.8 204.92 96.42 204.92 96.96 204.38 96.89 203.84 96.27 203.84 95.73 
M 204.19 96.94 204.19 96.4 204.72 95.78 205.26 95.7 205.26 96.24 204.73 96.86 204.19 96.94 
M 269.5 124.14 270.03 124.27 270.5 124.93 270.45 125.47 269.92 125.35 269.45 124.68 269.5 124.14 
M 270.57 124.98 270.03 124.99 269.4 124.47 269.31 123.93 269.85 123.92 270.48 124.45 270.57 124.98 
M 210.55 71.46 210.36 70.95 210.63 70.18 211.11 69.92 211.3 70.42 211.02 71.19 210.55 71.46 
M 210.4 71.14 210.64 70.65 211.39 70.33 211.91 70.5 211.67 70.98 210.91 71.31 210.4 71.14 
M 224.8 69.16 224.36 68.85 224.15 68.06 224.39 67.57 224.84 67.88 225.04 68.67 224.8 69.16 
M 224.03 68.1 224.57 68.17 225.11 68.78 225.12 69.32 224.59 69.25 224.04 68.64 224.03 68.1 
M 190.76 108.16 190.22 108.08 189.69 107.46 189.69 106.92 190.23 107 190.76 107.62 190.76 108.16 
M 189.64 107.75 190.07 107.42 190.89 107.47 191.27 107.86 190.84 108.18 190.02 108.13 189.64 107.75 
M 189.65 99.87 189.63 99.33 190.13 98.69 190.67 98.59 190.69 99.13 190.18 99.77 189.65 99.87 
M 189.54 99.25 190.05 99.07 190.81 99.37 191.06 99.85 190.55 100.03 189.79 99.73 189.54 99.25 
M 189.46 117.93 189.23 118.43 188.48 118.76 187.96 118.61 188.19 118.12 188.94 117.78 189.46 117.93 
M 189.04 117.74 188.91 118.27 188.24 118.74 187.7 118.69 187.83 118.16 188.5 117.69 189.04 117.74 
M 179.94 108.37 180.03 107.84 180.65 107.31 181.19 107.32 181.11 107.85 180.48 108.38 179.94 108.37 
M 180.6 107.22 180.74 107.75 180.37 108.48 179.87 108.69 179.74 108.16 180.1 107.43 180.6 107.22 
M 177.54 101.65 177.02 101.8 176.28 101.44 176.06 100.94 176.59 100.8 177.33 101.16 177.54 101.65 
M 176.8 101.92 176.64 101.41 176.96 100.65 177.45 100.42 177.62 100.93 177.29 101.69 176.8 101.92 
M 224.05 96.72 223.73 97.15 222.93 97.33 222.45 97.08 222.78 96.64 223.57 96.46 224.05 96.72 
M 223.24 96.27 223.42 96.79 223.1 97.54 222.62 97.79 222.45 97.27 222.76 96.52 223.24 96.27 
M 205.33 160.14 205.13 159.68 205.3 159.16 205.79 159.4 206.06 160.06 
M 205.54 160.12 205.52 159.26 205.88 158.85 206.23 159.27 206.22 160.04 
M 284.21 148.49 284.3 147.96 284.93 147.43 285.47 147.45 285.39 147.98 284.76 148.5 284.21 148.49 
M 285.17 147.44 285.04 147.96 284.37 148.44 283.83 148.39 283.96 147.86 284.63 147.39 285.17 147.44 
M 286.24 137.18 286.73 137.4 287.06 138.15 286.91 138.67 286.42 138.44 286.08 137.7 286.24 137.18 
M 287.1 138.26 286.57 138.12 286.12 137.44 286.18 136.9 286.7 137.04 287.16 137.72 287.1 138.26 
M 295.71 162.17 295.68 161.63 296.19 160.99 296.72 160.88 296.75 161.43 296.24 162.07 295.71 162.17 
M 295.65 161.27 296.19 161.33 296.74 161.94 296.75 162.48 296.21 162.42 295.66 161.81 295.65 161.27 
M 292.34 153.92 292.72 153.54 293.54 153.49 293.97 153.82 293.59 154.2 292.77 154.25 292.34 153.92 
M 293.3 153.26 293.34 153.8 292.86 154.46 292.33 154.59 292.28 154.04 292.77 153.38 293.3 153.26 
M 173.99 113.81 174.5 113.63 175.27 113.93 175.52 114.41 175.01 114.59 174.25 114.29 173.99 113.81 
M 174.19 114.38 174.59 114.01 175.41 113.98 175.83 114.32 175.43 114.69 174.61 114.72 174.19 114.38 
M 164.37 109.92 164.17 109.42 164.45 108.64 164.92 108.38 165.12 108.88 164.84 109.65 164.37 109.92 
M 165.02 109.65 164.58 109.33 164.38 108.54 164.62 108.06 165.07 108.37 165.27 109.16 165.02 109.65 
M 259.86 160.35 259.39 160.07 259.14 159.29 259.35 158.79 259.82 159.07 260.07 159.85 259.86 160.35 
M 259.04 159.31 259.58 159.38 260.12 159.99 260.13 160.53 259.6 160.46 259.05 159.85 259.04 159.31 
M 229.8 193.98 229.41 193.61 229.33 192.79 229.64 192.35 230.04 192.72 230.12 193.54 229.8 193.98 
M 229.15 192.92 229.69 192.97 230.26 193.56 230.29 194.1 229.75 194.05 229.18 193.47 229.15 192.92 
M 198.16 139.91 198.58 139.57 199.4 139.6 199.79 139.97 199.37 140.31 198.55 140.28 198.16 139.91 
M 198.99 139.32 199.14 139.84 198.8 140.58 198.31 140.81 198.16 140.29 198.5 139.54 198.99 139.32 
M 240.5 196.72 240.73 197.21 240.51 198 240.06 198.3 239.83 197.81 240.05 197.02 240.5 196.72 
M 240.45 196.91 240.47 197.45 239.95 198.09 239.42 198.18 239.4 197.64 239.92 197 240.45 196.91 
M 249.91 198.06 249.99 198.6 249.56 199.29 249.04 199.45 248.95 198.91 249.39 198.22 249.91 198.06 
M 248.85 198.83 249.35 198.61 250.13 198.84 250.43 199.29 249.93 199.52 249.15 199.29 248.85 198.83 
M 291.83 181.36 291.41 181.02 291.28 180.21 291.56 179.74 291.98 180.09 292.11 180.9 291.83 181.36 
M 292.1 180.07 291.89 180.58 291.16 180.95 290.63 180.82 290.84 180.31 291.57 179.94 292.1 180.07 
M 282.45 187.8 281.98 187.54 281.69 186.77 281.88 186.26 282.36 186.52 282.64 187.29 282.45 187.8 
M 282.78 187.14 282.24 187.21 281.56 186.76 281.41 186.24 281.95 186.17 282.63 186.61 282.78 187.14 
M 191.39 139.47 190.85 139.5 190.2 139 190.09 138.47 190.63 138.44 191.28 138.94 191.39 139.47 
M 191.23 138.58 190.93 139.03 190.14 139.25 189.65 139.02 189.95 138.57 190.74 138.35 191.23 138.58 
M 190.3 89.57 190.8 89.37 191.58 89.63 191.85 90.1 191.35 90.3 190.57 90.04 190.3 89.57 
M 191.41 90.36 191 90.01 190.86 89.21 191.14 88.74 191.56 89.09 191.7 89.9 191.41 90.36 
M 179.34 93.49 179.59 93.01 180.35 92.71 180.86 92.9 180.61 93.38 179.85 93.67 179.34 93.49 
M 180.31 92.6 180.29 93.15 179.74 93.75 179.2 93.81 179.22 93.27 179.77 92.67 180.31 92.6 
M 289.76 200.52 289.29 200.25 289.02 199.47 289.22 198.97 289.69 199.24 289.96 200.01 289.76 200.52 
M 288.89 199.91 289.34 199.61 290.15 199.72 290.51 200.13 290.06 200.43 289.25 200.32 288.89 199.91 
M 230.01 201.91 230.49 201.66 231.29 201.84 231.61 202.27 231.14 202.53 230.34 202.35 230.01 201.91 
M 231.23 202.56 230.76 202.28 230.5 201.5 230.71 201 231.18 201.28 231.44 202.06 231.23 202.56 
M 192.02 75.12 192.3 75.59 192.16 76.4 191.74 76.74 191.46 76.27 191.6 75.47 192.02 75.12 
M 191.25 75.89 191.78 75.76 192.51 76.13 192.72 76.63 192.19 76.76 191.46 76.4 191.25 75.89 
M 184.17 80.98 184.71 81.66 184.67 82.2 184.14 82.08 183.97 81.84 
M 184.26 82.16 184.04 81.66 184.26 80.88 184.72 80.58 184.95 81.07 184.72 81.86 184.26 82.16 
M 201.93 81.35 201.58 80.93 201.58 80.11 201.94 79.71 202.29 80.12 202.29 80.94 201.93 81.35 
M 201.76 79.93 202.06 80.38 201.97 81.19 201.57 81.56 201.26 81.11 201.36 80.3 201.76 79.93 
M 262.49 186.57 261.94 186.54 261.35 185.98 261.29 185.44 261.83 185.47 262.43 186.03 262.49 186.57 
M 261.32 186.25 261.72 185.9 262.54 185.89 262.96 186.25 262.55 186.6 261.73 186.61 261.32 186.25 
M 292.56 131.61 293.05 131.37 293.84 131.57 294.15 132.02 293.67 132.26 292.87 132.06 292.56 131.61 
M 292.78 131.57 293.32 131.62 293.89 132.22 293.91 132.76 293.37 132.7 292.81 132.11 292.78 131.57 
M 298.04 139.78 298.53 139.55 299.32 139.78 299.62 140.23 299.12 140.46 298.34 140.23 298.04 139.78 
M 298.39 139.57 298.87 139.81 299.18 140.57 299 141.09 298.52 140.84 298.21 140.08 298.39 139.57 
M 293.25 146.96 293.39 146.43 294.06 145.96 294.6 146.01 294.46 146.54 293.79 147.01 293.25 146.96 
M 293.36 146.21 293.9 146.29 294.43 146.91 294.43 147.45 293.9 147.37 293.36 146.75 293.36 146.21 
M 267.18 209.46 266.82 209.86 266 209.96 265.55 209.66 265.92 209.26 266.73 209.16 267.18 209.46 
M 265.87 209.18 266.38 209.36 266.78 210.08 266.66 210.61 266.15 210.42 265.76 209.71 265.87 209.18 
M 281.04 118.62 281.14 118.09 281.77 117.57 282.32 117.59 282.22 118.13 281.59 118.64 281.04 118.62 
M 281.75 118.73 281.53 118.23 281.77 117.45 282.23 117.16 282.45 117.66 282.21 118.44 281.75 118.73 
M 274.42 80.23 274.53 80.76 274.14 81.48 273.63 81.67 273.52 81.14 273.91 80.42 274.42 80.23 
M 273.44 80.72 273.99 80.75 274.57 81.33 274.61 81.87 274.07 81.84 273.49 81.26 273.44 80.72 
M 283.24 100.8 283.71 100.53 284.52 100.69 284.85 101.12 284.38 101.39 283.57 101.23 283.24 100.8 
M 284.1 101.58 283.89 101.08 284.15 100.3 284.62 100.03 284.82 100.53 284.56 101.31 284.1 101.58 
M 292.69 97.4 292.16 97.48 291.47 97.04 291.31 96.52 291.85 96.44 292.54 96.88 292.69 97.4 
M 291.4 96.79 291.94 96.77 292.58 97.29 292.67 97.82 292.13 97.84 291.49 97.32 291.4 96.79 
M 291 81.93 291.45 81.62 292.26 81.71 292.63 82.1 292.19 82.41 291.37 82.33 291 81.93 
M 291.96 82.62 291.68 82.16 291.82 81.35 292.24 81.01 292.52 81.47 292.38 82.28 291.96 82.62 
M 271.25 73.4 270.96 73.86 270.18 74.1 269.68 73.88 269.97 73.42 270.75 73.18 271.25 73.4 
M 271.08 73.72 270.55 73.82 269.84 73.4 269.67 72.89 270.21 72.79 270.91 73.21 271.08 73.72 
M 251.19 55.02 251.46 54.55 252.24 54.28 252.74 54.48 252.47 54.95 251.69 55.22 251.19 55.02 
M 251.48 54.36 251.98 54.55 252.37 55.28 252.25 55.81 251.75 55.61 251.36 54.89 251.48 54.36 
M 265.2 61.95 264.7 61.75 264.32 61.03 264.44 60.5 264.95 60.7 265.33 61.42 265.2 61.95 
M 265.19 60.72 265.02 61.24 264.31 61.65 263.78 61.55 263.95 61.04 264.66 60.62 265.19 60.72 
M 256.63 214.63 256.08 214.64 255.45 214.11 255.37 213.58 255.91 213.57 256.54 214.09 256.63 214.63 
M 255.97 214.73 255.83 214.2 256.18 213.46 256.67 213.24 256.82 213.77 256.47 214.51 255.97 214.73 
M 258.87 77.59 258.69 78.1 257.99 78.52 257.45 78.42 257.63 77.9 258.34 77.49 258.87 77.59 
M 257.55 77.88 258.09 77.82 258.77 78.28 258.9 78.81 258.37 78.87 257.69 78.41 257.55 77.88 
M 289.28 116.13 289.73 115.83 290.54 115.94 290.9 116.35 290.45 116.65 289.63 116.53 289.28 116.13 
M 290.57 115.84 290.28 116.29 289.49 116.53 289 116.32 289.29 115.86 290.07 115.62 290.57 115.84 
M 291.17 106.72 291.57 106.35 292.39 106.33 292.81 106.67 292.41 107.04 291.59 107.06 291.17 106.72 
M 292.59 106.89 292.04 106.89 291.43 106.34 291.36 105.8 291.9 105.81 292.52 106.36 292.59 106.89 
M 288.27 125.13 287.8 124.87 287.52 124.09 287.71 123.59 288.19 123.85 288.47 124.62 288.27 125.13 
M 288.56 124.11 288.16 124.47 287.34 124.48 286.92 124.12 287.33 123.77 288.15 123.76 288.56 124.11 
M 296.9 123.36 296.73 123.88 296.04 124.31 295.5 124.22 295.66 123.71 296.36 123.28 296.9 123.36 
M 296.8 123.95 296.26 123.98 295.61 123.48 295.5 122.95 296.04 122.92 296.69 123.42 296.8 123.95 
M 181.85 118.76 181.85 119.3 181.32 119.92 180.78 119.99 180.78 119.45 181.32 118.83 181.85 118.76 
M 181.11 118.79 181.44 119.22 181.38 120.04 181 120.42 180.67 119.99 180.73 119.17 181.11 118.79 
M 303.72 112.58 303.39 113.01 302.59 113.18 302.12 112.91 302.45 112.48 303.25 112.32 303.72 112.58 
M 302.49 113.2 302.73 112.71 303.48 112.39 304 112.56 303.76 113.05 303 113.37 302.49 113.2 
M 302.66 129.49 302.31 129.9 301.5 130.03 301.04 129.74 301.39 129.32 302.2 129.2 302.66 129.49 
M 301.32 129.94 301.67 129.53 302.48 129.41 302.94 129.69 302.59 130.11 301.78 130.23 301.32 129.94 
M 265.37 45.2 265.89 45.06 266.63 45.41 266.84 45.91 266.32 46.05 265.58 45.7 265.37 45.2 
M 265.48 45.62 265.98 45.41 266.76 45.65 267.05 46.11 266.56 46.32 265.77 46.08 265.48 45.62 
M 275.31 52.14 274.79 51.99 274.35 51.3 274.42 50.77 274.94 50.92 275.39 51.61 275.31 52.14 
M 275.28 50.99 275.06 51.48 274.32 51.84 273.8 51.69 274.02 51.2 274.76 50.84 275.28 50.99 
M 279.13 62.21 278.92 61.71 279.18 60.93 279.65 60.66 279.86 61.16 279.6 61.93 279.13 62.21 
M 278.77 61.43 279.28 61.27 280.03 61.6 280.27 62.09 279.75 62.25 279 61.92 278.77 61.43 
M 260.13 54.03 260.42 53.56 261.2 53.31 261.7 53.53 261.41 53.99 260.63 54.24 260.13 54.03 
M 260.29 53.77 260.81 53.61 261.56 53.94 261.79 54.43 261.27 54.59 260.52 54.26 260.29 53.77 
M 180.02 145.02 180.57 145.01 181.2 145.53 181.29 146.06 180.75 146.08 180.11 145.56 180.02 145.02 
M 180.41 144.97 180.76 145.38 180.76 146.2 180.41 146.61 180.05 146.2 180.05 145.38 180.41 144.97 
M 171.73 106.49 171.91 107 171.61 107.76 171.12 108.01 170.95 107.5 171.25 106.74 171.73 106.49 
M 170.81 107.24 171.32 107.08 172.07 107.42 172.3 107.91 171.78 108.06 171.04 107.73 170.81 107.24 
M 179.89 130.89 180.38 131.13 180.69 131.89 180.53 132.4 180.04 132.16 179.72 131.41 179.89 130.89 
M 180.47 131.08 180.4 131.62 179.79 132.17 179.25 132.17 179.32 131.64 179.93 131.09 180.47 131.08 
M 190.12 126.41 190.62 126.19 191.4 126.44 191.68 126.9 191.19 127.12 190.41 126.87 190.12 126.41 
M 190.56 127.18 190.71 126.66 191.39 126.2 191.93 126.27 191.78 126.79 191.1 127.25 190.56 127.18 
M 306.32 121.6 306.21 121.07 306.61 120.36 307.12 120.17 307.23 120.7 306.83 121.42 306.32 121.6 
M 307.34 120.88 306.83 121.05 306.07 120.74 305.83 120.26 306.34 120.08 307.1 120.39 307.34 120.88 
M 315.73 105.32 315.7 105.86 315.13 106.45 314.59 106.5 314.62 105.95 315.19 105.36 315.73 105.32 
M 314.71 106.34 314.97 105.86 315.74 105.57 316.24 105.76 315.99 106.24 315.22 106.53 314.71 106.34 
M 304.45 102.92 303.96 102.68 303.64 101.93 303.81 101.41 304.3 101.65 304.61 102.41 304.45 102.92 
M 304.73 102.32 304.19 102.35 303.54 101.86 303.43 101.33 303.97 101.29 304.62 101.79 304.73 102.32 
M 313.7 114.63 314.18 114.38 314.98 114.59 315.29 115.03 314.8 115.27 314.01 115.07 313.7 114.63 
M 314.65 114.22 314.68 114.76 314.18 115.42 313.65 115.53 313.62 114.99 314.12 114.33 314.65 114.22 
M 174.85 152.34 174.45 152.71 173.63 152.73 173.21 152.38 173.61 152.02 174.43 152 174.85 152.34 
M 173.81 151.78 174.15 152.2 174.11 153.02 173.74 153.42 173.4 152.99 173.44 152.17 173.81 151.78 
M 285.38 207.48 285.68 207.94 285.57 208.75 285.16 209.11 284.87 208.66 284.97 207.84 285.38 207.48 
M 284.65 208.3 285.16 208.13 285.92 208.45 286.16 208.94 285.64 209.11 284.88 208.79 284.65 208.3 
M 158.6 104.1 158.2 104.47 157.38 104.49 156.96 104.14 157.36 103.78 158.18 103.76 158.6 104.1 
M 158.14 104.63 157.7 104.31 157.53 103.5 157.79 103.03 158.22 103.35 158.4 104.15 158.14 104.63 
M 165.78 99.6 166.32 99.53 167.01 99.98 167.15 100.5 166.62 100.57 165.93 100.12 165.78 99.6 
M 166.9 100.5 166.42 100.24 166.13 99.47 166.32 98.96 166.8 99.22 167.09 99.99 166.9 100.5 
M 290.36 71.83 290.04 72.27 289.25 72.46 288.76 72.22 289.08 71.77 289.87 71.58 290.36 71.83 
M 290.02 71.6 289.75 72.07 288.98 72.34 288.47 72.14 288.74 71.67 289.52 71.4 290.02 71.6 
M 286.9 62.28 287.15 61.79 287.91 61.49 288.42 61.66 288.18 62.15 287.42 62.45 286.9 62.28 
M 287.31 61.45 287.74 61.79 287.9 62.59 287.63 63.06 287.2 62.73 287.04 61.92 287.31 61.45 
M 281.91 71.68 282.14 72.17 281.91 72.96 281.46 73.25 281.23 72.76 281.45 71.97 281.91 71.68 
M 281.69 71.84 281.85 72.36 281.51 73.11 281.02 73.34 280.87 72.82 281.2 72.07 281.69 71.84 
M 316.51 123.86 316.31 124.36 315.58 124.74 315.06 124.61 315.26 124.1 315.99 123.73 316.51 123.86 
M 316.26 124.64 315.76 124.43 315.4 123.69 315.54 123.17 316.03 123.38 316.4 124.12 316.26 124.64 
M 314.41 133.39 314.04 133 314.02 132.18 314.36 131.76 314.73 132.15 314.75 132.97 314.41 133.39 
M 313.95 132.12 314.43 132.38 314.72 133.15 314.53 133.66 314.05 133.4 313.76 132.63 313.95 132.12 
M 295.3 89.44 295.83 89.31 296.56 89.68 296.76 90.19 296.23 90.31 295.5 89.94 295.3 89.44 
M 295.44 89.6 295.98 89.62 296.58 90.18 296.64 90.72 296.1 90.7 295.5 90.14 295.44 89.6 
M 149.64 106.35 149.11 106.48 148.38 106.11 148.17 105.61 148.7 105.48 149.43 105.85 149.64 106.35 
M 149.52 106.1 148.98 106.16 148.3 105.7 148.17 105.17 148.71 105.11 149.38 105.58 149.52 106.1 
M 157.69 118.9 157.76 119.44 157.31 120.12 156.79 120.27 156.72 119.73 157.17 119.05 157.69 118.9 
M 157.34 118.97 157.42 119.51 156.98 120.2 156.46 120.35 156.38 119.81 156.82 119.12 157.34 118.97 
M 159.62 155.87 159.76 155.34 160.44 154.88 160.98 154.95 160.84 155.47 160.16 155.93 159.62 155.87 
M 159.69 155.55 160.16 155.27 160.97 155.41 161.31 155.84 160.84 156.11 160.04 155.97 159.69 155.55 
M 199.14 69.19 199.16 69.74 198.64 70.37 198.11 70.47 198.09 69.93 198.6 69.29 199.14 69.19 
M 198.36 70.4 198.43 69.86 199.04 69.31 199.58 69.3 199.51 69.84 198.9 70.39 198.36 70.4 
M 171.06 123.07 170.61 123.38 169.8 123.28 169.43 122.89 169.88 122.58 170.69 122.67 171.06 123.07 
M 170.71 123.39 170.22 123.17 169.86 122.44 170 121.91 170.5 122.13 170.86 122.86 170.71 123.39 
M 170.49 131 169.99 130.79 169.61 130.06 169.74 129.54 170.25 129.74 170.62 130.47 170.49 131 
M 169.54 130.04 170.08 130.07 170.66 130.65 170.7 131.19 170.16 131.15 169.58 130.58 169.54 130.04 
M 300.48 187.94 300.02 187.65 299.79 186.86 300.01 186.37 300.47 186.66 300.7 187.44 300.48 187.94 
M 299.64 187.01 300.18 186.97 300.84 187.45 300.96 187.98 300.42 188.02 299.76 187.54 299.64 187.01 
M 311.29 143.11 310.96 142.67 311.02 141.85 311.41 141.47 311.73 141.91 311.67 142.72 311.29 143.11 
M 310.72 142.33 311.23 142.13 312 142.41 312.27 142.88 311.76 143.08 310.99 142.8 310.72 142.33 
M 254.8 44.99 255.34 44.99 255.97 45.51 256.05 46.05 255.51 46.06 254.88 45.53 254.8 44.99 
M 254.84 45.32 255.38 45.33 255.98 45.88 256.05 46.42 255.51 46.41 254.9 45.85 254.84 45.32 
M 200.21 208.94 200.64 208.6 201.46 208.64 201.85 209.02 201.43 209.35 200.61 209.31 200.21 208.94 
M 201.51 209.38 201.01 209.17 200.64 208.44 200.78 207.91 201.28 208.12 201.64 208.86 201.51 209.38 
M 325.51 138.96 326.01 138.75 326.79 139 327.07 139.47 326.57 139.68 325.79 139.43 325.51 138.96 
M 326.26 138.59 326.45 139.1 326.16 139.87 325.68 140.13 325.5 139.62 325.78 138.85 326.26 138.59 
M 327.36 131.43 326.84 131.28 326.39 130.59 326.46 130.06 326.99 130.2 327.44 130.89 327.36 131.43 
M 326.55 131.25 326.72 130.73 327.42 130.31 327.95 130.4 327.78 130.92 327.08 131.34 326.55 131.25 
M 340.76 138.04 340.96 137.53 341.69 137.15 342.22 137.28 342.02 137.78 341.29 138.16 340.76 138.04 
M 341.77 138.21 341.39 137.83 341.34 137.01 341.66 136.58 342.05 136.96 342.1 137.78 341.77 138.21 
M 332.86 146.47 333.4 146.38 334.1 146.8 334.26 147.32 333.73 147.41 333.03 146.98 332.86 146.47 
M 333.65 147.51 333.42 147.02 333.63 146.23 334.08 145.93 334.32 146.42 334.1 147.21 333.65 147.51 
M 332.59 125.02 333.11 124.88 333.85 125.25 334.06 125.75 333.53 125.88 332.8 125.52 332.59 125.02 
M 332.93 124.9 333.38 125.19 333.6 125.98 333.37 126.47 332.92 126.17 332.7 125.39 332.93 124.9 
M 357.02 136.24 357.5 136.49 357.81 137.25 357.63 137.76 357.15 137.51 356.84 136.75 357.02 136.24 
M 356.7 136.98 357.22 136.83 357.97 137.18 358.19 137.67 357.67 137.82 356.92 137.48 356.7 136.98 
M 351.4 128.48 351.71 128.03 352.51 127.83 352.99 128.07 352.68 128.52 351.89 128.72 351.4 128.48 
M 351.91 127.72 352.3 128.1 352.35 128.92 352.02 129.35 351.64 128.97 351.59 128.15 351.91 127.72 
M 353.61 148.98 353.08 149.05 352.4 148.59 352.25 148.07 352.79 148 353.47 148.46 353.61 148.98 
M 352.57 149.03 352.74 148.52 353.44 148.09 353.97 148.18 353.81 148.7 353.1 149.12 352.57 149.03 
M 345.35 127.25 345.88 127.17 346.58 127.6 346.73 128.12 346.2 128.21 345.5 127.77 345.35 127.25 
M 345.7 127.16 346.12 127.51 346.26 128.31 345.98 128.78 345.56 128.44 345.42 127.63 345.7 127.16 
M 178.39 199.68 178.91 199.82 179.37 200.5 179.3 201.04 178.78 200.9 178.32 200.21 178.39 199.68 
M 178.22 200.35 178.74 200.19 179.49 200.53 179.71 201.02 179.2 201.17 178.45 200.84 178.22 200.35 
M 184.17 192.25 184.43 192.72 184.27 193.52 183.84 193.85 183.57 193.38 183.74 192.58 184.17 192.25 
M 184.42 193.51 183.95 193.24 183.68 192.47 183.88 191.96 184.35 192.23 184.62 193.01 184.42 193.51 
M 241.85 57.54 242.3 57.23 243.11 57.32 243.48 57.72 243.03 58.03 242.22 57.94 241.85 57.54 
M 242.2 58.04 242.48 57.58 243.25 57.32 243.76 57.53 243.48 57.99 242.7 58.25 242.2 58.04 
M 239.72 72.72 240.25 72.84 240.73 73.51 240.68 74.05 240.15 73.92 239.67 73.26 239.72 72.72 
M 239.58 73.29 240.12 73.21 240.81 73.64 240.98 74.15 240.44 74.24 239.74 73.81 239.58 73.29 
M 242.33 67.23 241.9 66.9 241.73 66.1 242 65.63 242.43 65.96 242.6 66.76 242.33 67.23 
M 241.54 66.41 242.06 66.26 242.8 66.61 243.02 67.11 242.5 67.25 241.76 66.9 241.54 66.41 
M 148.19 179.92 147.84 179.87 147.64 179.63 
M 324.37 121.34 324.1 120.88 324.24 120.07 324.66 119.73 324.94 120.19 324.8 121 324.37 121.34 
M 324.97 120.1 324.71 120.58 323.94 120.87 323.43 120.69 323.69 120.21 324.46 119.92 324.97 120.1 
M 309.27 184.05 309.61 183.63 310.41 183.47 310.88 183.74 310.55 184.17 309.74 184.32 309.27 184.05 
M 310.7 183.88 310.19 184.06 309.43 183.76 309.18 183.27 309.69 183.1 310.45 183.4 310.7 183.88 
M 317.76 173.94 317.33 174.27 316.51 174.21 316.13 173.83 316.56 173.5 317.38 173.56 317.76 173.94 
M 317.56 173.77 317.08 174.03 316.28 173.85 315.96 173.41 316.43 173.16 317.23 173.33 317.56 173.77 
M 155.42 112.98 155.04 112.6 154.97 111.78 155.29 111.34 155.67 111.72 155.74 112.54 155.42 112.98 
M 155.96 112.31 155.42 112.35 154.77 111.85 154.66 111.32 155.2 111.29 155.85 111.78 155.96 112.31 
M 147.95 118.29 147.91 117.75 148.4 117.09 148.93 116.98 148.97 117.52 148.48 118.17 147.95 118.29 
M 149.04 117.8 148.5 117.82 147.86 117.31 147.76 116.77 148.3 116.75 148.94 117.27 149.04 117.8 
M 351.8 156.68 352.07 157.14 351.92 157.95 351.5 158.29 351.22 157.82 351.38 157.01 351.8 156.68 
M 351.8 156.88 351.84 157.42 351.34 158.07 350.81 158.18 350.77 157.64 351.27 156.99 351.8 156.88 
M 355.2 167.86 355.34 167.33 356.02 166.88 356.56 166.95 356.42 167.47 355.74 167.92 355.2 167.86 
M 355.56 167.94 355.68 167.41 356.35 166.93 356.89 166.97 356.76 167.5 356.1 167.98 355.56 167.94 
M 347.03 170.23 347.22 170.74 346.92 171.51 346.44 171.76 346.26 171.25 346.55 170.49 347.03 170.23 
M 346.96 170.41 346.93 170.95 346.36 171.55 345.82 171.6 345.85 171.06 346.42 170.46 346.96 170.41 
M 360.45 160.22 360.92 160.5 361.18 161.28 360.98 161.78 360.51 161.5 360.25 160.73 360.45 160.22 
M 361.34 161 360.82 161.17 360.07 160.84 359.83 160.36 360.35 160.19 361.1 160.51 361.34 161 
M 361.41 127.4 361.52 127.94 361.11 128.65 360.59 128.82 360.49 128.29 360.9 127.58 361.41 127.4 
M 361.62 128.05 361.13 128.27 360.34 128.02 360.06 127.56 360.56 127.34 361.34 127.59 361.62 128.05 
M 345.53 119.35 345.99 119.06 346.8 119.17 347.15 119.58 346.7 119.88 345.89 119.76 345.53 119.35 
M 346.96 119.39 346.47 119.62 345.68 119.39 345.39 118.93 345.88 118.7 346.67 118.94 346.96 119.39 
M 330.12 108.11 330.63 108.06 
M 330.74 108.11 331.33 108.54 331.45 109.07 330.91 109.11 330.25 108.63 330.12 108.11 
M 330.16 108.6 330.68 108.42 331.44 108.74 331.68 109.22 331.17 109.39 330.41 109.08 330.16 108.6 
M 190.77 61.04 190.56 61.54 189.82 61.9 189.3 61.76 189.51 61.26 190.25 60.9 190.77 61.04 
M 189.42 61.31 189.95 61.22 190.65 61.66 190.81 62.17 190.27 62.26 189.58 61.82 189.42 61.31 
M 198.95 55.73 199.49 55.81 200.02 56.43 200.02 56.98 199.49 56.9 198.95 56.27 198.95 55.73 
M 200.1 56.24 199.62 56.5 198.83 56.31 198.51 55.88 198.98 55.62 199.78 55.8 200.1 56.24 
M 296.76 76.38 296.83 75.84 297.43 75.28 297.97 75.27 297.91 75.81 297.3 76.36 296.76 76.38 
M 296.78 75.62 297.32 75.63 297.92 76.19 297.99 76.72 297.44 76.71 296.84 76.15 296.78 75.62 
M 337.8 114.47 337.26 114.38 336.74 113.75 336.76 113.2 337.29 113.3 337.81 113.93 337.8 114.47 
M 337.4 114.45 337.14 113.98 337.31 113.17 337.74 112.85 338 113.32 337.83 114.12 337.4 114.45 
M 156.16 129.27 155.95 128.77 156.19 127.99 156.66 127.7 156.87 128.2 156.62 128.98 156.16 129.27 
M 156.43 129.11 156.25 128.6 156.54 127.83 157.02 127.58 157.21 128.09 156.91 128.86 156.43 129.11 
M 148.4 127.34 147.91 127.11 147.57 126.36 147.73 125.85 148.22 126.07 148.56 126.82 148.4 127.34 
M 148.16 127.21 147.92 126.72 148.12 125.93 148.56 125.62 148.81 126.1 148.61 126.9 148.16 127.21 
M 334.8 154.19 334.74 154.73 334.14 155.29 333.6 155.32 333.66 154.78 334.25 154.22 334.8 154.19 
M 334.8 154.6 334.34 154.89 333.53 154.76 333.19 154.35 333.65 154.06 334.45 154.19 334.8 154.6 
M 319.66 160.65 319.15 160.84 318.38 160.56 318.12 160.09 318.62 159.89 319.39 160.18 319.66 160.65 
M 318.26 160.38 318.78 160.21 319.53 160.52 319.78 161 319.26 161.17 318.51 160.86 318.26 160.38 
M 243.07 47.46 243.15 46.93 243.78 46.4 244.33 46.41 244.24 46.95 243.61 47.47 243.07 47.46 
M 244.21 46.59 243.88 47.01 243.07 47.17 242.6 46.9 242.94 46.47 243.74 46.32 244.21 46.59 
M 333.74 184.92 333.85 185.45 333.44 186.16 332.93 186.34 332.82 185.81 333.23 185.1 333.74 184.92 
M 333.45 185.02 333.52 185.55 333.06 186.24 332.54 186.38 332.47 185.84 332.93 185.16 333.45 185.02 
M 328.61 179.94 328.1 179.76 327.7 179.04 327.81 178.51 328.32 178.69 328.72 179.41 328.61 179.94 
M 327.59 179.34 328.07 179.08 328.87 179.27 329.19 179.7 328.71 179.96 327.91 179.77 327.59 179.34 
M 351.74 177.86 351.74 178.4 351.21 179.02 350.67 179.09 350.67 178.55 351.21 177.93 351.74 177.86 
M 350.66 178.17 351.19 178.28 351.69 178.93 351.66 179.47 351.13 179.36 350.63 178.71 350.66 178.17 
M 375.12 128.89 374.76 128.49 374.75 127.84 
M 375.46 128.15 375.47 128.48 375.12 128.89 
M 375.21 128.04 375.54 128.58 375.45 129.11 374.94 128.95 374.51 128.25 374.59 127.77 
M 373.01 137.42 373.35 137.85 373.32 138.67 372.94 139.06 372.61 138.64 372.64 137.82 373.01 137.42 
M 372.93 137.62 373.13 138.12 372.86 138.9 372.39 139.17 372.19 138.66 372.46 137.89 372.93 137.62 
M 209.52 58.31 209.92 58.68 210 59.49 209.69 59.94 209.3 59.57 209.21 58.75 209.52 58.31 
M 210.11 58.75 209.79 59.19 208.99 59.38 208.51 59.13 208.83 58.69 209.62 58.5 210.11 58.75 
M 216.76 55.9 216.65 56.43 216 56.93 215.46 56.9 215.57 56.37 216.22 55.87 216.76 55.9 
M 216.62 56.76 216.1 56.6 215.68 55.9 215.77 55.36 216.28 55.53 216.71 56.23 216.62 56.76 
M 222.52 114.75 222.51 115.29 221.96 115.9 221.42 115.97 221.43 115.43 221.98 114.82 222.52 114.75 
M 222.59 115.41 222.06 115.53 221.34 115.15 221.14 114.65 221.67 114.52 222.4 114.91 222.59 115.41 
M 368.51 148.61 368.42 148.07 368.83 147.37 369.35 147.2 369.44 147.73 369.03 148.43 368.51 148.61 
M 368.35 148.13 368.77 147.79 369.59 147.81 369.99 148.18 369.57 148.52 368.75 148.5 368.35 148.13 
M 379.82 144.83 379.95 145.36 379.58 146.09 379.07 146.29 378.94 145.76 379.32 145.04 379.82 144.83 
M 380.03 145.78 379.49 145.75 378.9 145.18 378.85 144.64 379.39 144.67 379.98 145.24 380.03 145.78 
M 376.6 160.1 376.63 159.56 377.21 158.98 377.75 158.93 377.72 159.47 377.14 160.06 376.6 160.1 
M 376.64 159.19 377.17 159.32 377.65 159.99 377.6 160.53 377.07 160.4 376.59 159.73 376.64 159.19 
M 249.92 220.09 250.45 219.97 251.17 220.35 251.37 220.85 250.84 220.98 250.12 220.6 249.92 220.09 
M 250.66 219.85 250.81 220.37 250.47 221.11 249.98 221.34 249.83 220.82 250.17 220.07 250.66 219.85 
M 284.37 53.94 283.84 54.07 283.11 53.69 282.91 53.19 283.44 53.06 284.17 53.44 284.37 53.94 
M 283.08 53.83 283.47 53.46 284.29 53.43 284.71 53.77 284.32 54.14 283.5 54.17 283.08 53.83 
M 169.04 197.25 169.43 197.63 169.51 198.44 169.19 198.88 168.8 198.51 168.73 197.69 169.04 197.25 
M 169.55 198.51 169.08 198.26 168.78 197.49 168.97 196.98 169.45 197.24 169.74 198.01 169.55 198.51 
M 233.28 65.23 233.61 64.79 234.41 64.62 234.88 64.88 234.56 65.32 233.76 65.49 233.28 65.23 
M 234.7 65.12 234.17 65.23 233.46 64.83 233.27 64.32 233.8 64.21 234.52 64.61 234.7 65.12 
M 361.63 147.18 361.22 146.83 361.1 146.02 361.39 145.56 361.8 145.92 361.92 146.73 361.63 147.18 
M 362.11 146.23 361.65 146.51 360.84 146.37 360.5 145.95 360.96 145.67 361.77 145.81 362.11 146.23 
M 273.29 66.05 273.38 66.59 272.94 67.29 272.43 67.45 272.34 66.91 272.77 66.22 273.29 66.05 
M 273.28 67.22 272.81 66.94 272.54 66.17 272.75 65.66 273.22 65.94 273.48 66.71 273.28 67.22 
M 226.32 62.17 225.97 61.76 225.97 60.94 226.33 60.53 226.68 60.94 226.68 61.76 226.32 62.17 
M 225.97 61.87 226.13 61.35 226.82 60.91 227.36 60.99 227.2 61.51 226.51 61.95 225.97 61.87 
M 334.77 138.44 334.24 138.34 333.72 137.71 333.73 137.17 334.27 137.26 334.79 137.89 334.77 138.44 
M 334.53 138.36 334.15 137.97 334.11 137.15 334.44 136.72 334.82 137.12 334.86 137.93 334.53 138.36 
M 321.97 109.23 322.48 109.41 322.88 110.13 322.78 110.66 322.27 110.48 321.86 109.77 321.97 109.23 
M 321.86 109.6 322.38 109.75 322.82 110.44 322.74 110.97 322.22 110.82 321.78 110.13 321.86 109.6 
M 223.31 49.85 223.77 49.58 224.58 49.72 224.92 50.14 224.45 50.42 223.65 50.28 223.31 49.85 
M 224.72 49.85 224.26 50.13 223.45 50 223.1 49.58 223.57 49.3 224.38 49.43 224.72 49.85 
M 231.54 49.81 231.91 49.41 232.73 49.32 233.17 49.63 232.8 50.03 231.99 50.12 231.54 49.81 
M 231.84 50.07 232.18 49.64 232.98 49.48 233.45 49.75 233.12 50.18 232.31 50.34 231.84 50.07 
M 319.97 185.25 320.01 184.71 320.6 184.13 321.14 184.1 321.1 184.64 320.51 185.21 319.97 185.25 
M 320.1 184.25 320.59 184.48 320.92 185.23 320.76 185.75 320.27 185.52 319.94 184.77 320.1 184.25 
M 297.05 203.79 297.37 204.22 297.31 205.04 296.92 205.42 296.6 204.98 296.67 204.17 297.05 203.79 
M 296.69 205.15 296.79 204.62 297.43 204.11 297.97 204.14 297.87 204.67 297.23 205.18 296.69 205.15 
M 317.67 198.87 317.32 199.28 316.51 199.42 316.05 199.14 316.4 198.72 317.2 198.58 317.67 198.87 
M 316.96 198.38 317.04 198.92 316.6 199.61 316.08 199.77 316 199.24 316.44 198.54 316.96 198.38 
M 190.67 66.85 190.97 67.31 190.87 68.12 190.46 68.48 190.16 68.03 190.27 67.22 190.67 66.85 
M 190.27 68.22 190.37 67.69 191.01 67.17 191.55 67.19 191.46 67.73 190.82 68.24 190.27 68.22 
M 283.55 217.16 283.96 217.51 284.09 218.32 283.81 218.78 283.39 218.43 283.26 217.62 283.55 217.16 
M 283.37 217.43 283.77 217.79 283.86 218.61 283.55 219.06 283.16 218.69 283.06 217.87 283.37 217.43 
M 378.24 169.55 377.74 169.32 377.4 168.58 377.56 168.06 378.05 168.28 378.39 169.03 378.24 169.55 
M 377.94 169.43 377.74 168.92 378.01 168.15 378.48 167.87 378.68 168.38 378.41 169.15 377.94 169.43 
M 349.7 140.85 350.21 140.67 350.97 140.96 351.23 141.44 350.72 141.63 349.95 141.33 349.7 140.85 
M 350.41 141.77 350.29 141.24 350.68 140.52 351.18 140.32 351.3 140.85 350.92 141.58 350.41 141.77 
M 334.89 198.19 335 197.66 335.66 197.17 336.2 197.21 336.09 197.74 335.43 198.23 334.89 198.19 
M 335.68 198.31 335.41 197.84 335.56 197.03 335.98 196.7 336.26 197.17 336.11 197.97 335.68 198.31 
M 308.53 174.88 308.38 174.36 308.73 173.62 309.22 173.4 309.37 173.92 309.02 174.66 308.53 174.88 
M 308.44 173.69 308.92 173.95 309.21 174.72 309.02 175.23 308.55 174.97 308.26 174.2 308.44 173.69 
M 346.28 195.51 345.84 195.2 345.65 194.4 345.9 193.92 346.34 194.24 346.53 195.03 346.28 195.51 
M 345.87 195.3 345.9 194.76 346.46 194.17 347 194.11 346.98 194.66 346.41 195.25 345.87 195.3 
M 362.58 191.05 362.9 190.62 363.7 190.44 364.18 190.7 363.85 191.14 363.05 191.31 362.58 191.05 
M 363.71 190.35 363.58 190.87 362.9 191.34 362.36 191.28 362.5 190.76 363.17 190.29 363.71 190.35 
M 369.39 182.48 369.34 181.95 369.81 181.28 370.34 181.14 370.39 181.68 369.92 182.35 369.39 182.48 
M 369.82 181.19 370.02 181.7 369.75 182.47 369.28 182.74 369.08 182.23 369.35 181.46 369.82 181.19 
M 322.03 168.14 322.46 167.82 323.28 167.87 323.66 168.25 323.23 168.58 322.41 168.52 322.03 168.14 
M 322.86 167.57 323.01 168.09 322.67 168.84 322.18 169.07 322.03 168.55 322.36 167.8 322.86 167.57 
M 313.38 165.96 313.37 166.5 312.84 167.12 312.3 167.2 312.3 166.65 312.84 166.04 313.38 165.96 
M 312.59 166.01 312.95 166.41 312.95 167.23 312.6 167.65 312.24 167.24 312.24 166.42 312.59 166.01 
M 215.9 48.79 215.35 48.77 214.76 48.21 214.7 47.67 215.24 47.69 215.84 48.25 215.9 48.79 
M 214.91 48.72 215.1 48.21 215.82 47.83 216.35 47.95 216.16 48.45 215.44 48.84 214.91 48.72 
M 333.72 206.03 333.85 205.5 334.53 205.04 335.07 205.11 334.93 205.63 334.25 206.09 333.72 206.03 
M 335.02 205.56 334.5 205.73 333.75 205.42 333.5 204.93 334.02 204.76 334.77 205.08 335.02 205.56 
"/></svg>