<svg xmlns="http://www.w3.org/2000/svg" width="520" height="320"><rect x="0" y="0" width="520" height="320" fill="floralwhite"/><rect x="10" y="10" width="500" height="300" stroke="black" stroke-width="1" fill="none"/><path stroke="black" stroke-width="1" fill="none" stroke-linecap="round" stroke-linejoin="round" d="
M 211.13 134.24 218.45 129.42 225.74 125.1 233.03 121.16 247.6 113.93 254.89 111 262.18 108.86 269.47 107.24 291.34 106.45 298.62 107.85 305.91 110.63 313.2 114.06 327.78 121.7 335.07 125.33 342.36 129.54 364.22 144.1 386.83 158.27 
M 386.83 189.7 371.51 201.47 364.22 206.84 356.93 211.75 349.65 216.41 342.36 220.44 327.78 227.91 320.49 230.67 313.2 233.06 305.91 235.22 298.62 236.36 291.34 237.13 284.05 236.81 276.76 236.82 269.47 237.07 262.18 235.53 254.89 233.02 247.6 230.1 240.32 226.87 233.03 224.07 225.74 220.74 218.45 216.5 203.9 206.46 
M 212.54 181.57 212.58 181.47 
M 210.58 199.67 210.58 198.84 209.27 196.49 
M 212.09 183.01 213.98 181.26 215.14 179.12 
M 216.92 175.13 217.96 171.73 217.96 168.6 216.57 164.07 
M 212.44 200.57 213.47 199.94 216.31 196.45 218.13 192.51 218.13 190.07 216.31 186.12 213.47 182.64 213.06 182.39 
M 217.04 165.16 218.61 162.39 220.45 156.64 220.45 153.09 218.61 147.35 215.74 142.27 213.7 140.46 
M 216.03 150.9 216.87 150.69 
M 216.61 155.17 216.87 155.19 
M 216.69 159.34 217.06 159.43 
M 218 192.53 220.39 190.94 223.28 187.07 
M 223.14 174.3 220.39 170.63 218 169.03 
M 222.67 205.15 224.28 202.23 224.28 199.87 222.17 196.05 218.91 192.67 217.48 191.94 
M 218.58 147.84 219.12 146.8 220.88 140.74 220.88 136.98 219.12 130.92 218.38 129.47 
M 212.03 135.67 217.74 134.55 
M 213.4 138.7 217.97 138.65 
M 215.85 143.07 217.56 143.56 
M 228.87 173.62 229.59 171.04 229.59 167.69 228.07 162.27 225.71 157.49 223.87 155.63 
M 224.8 202.73 226.81 201.31 229.39 197.69 231.06 193.58 231.06 191.04 230.24 189.02 
M 222.83 190.42 228.12 188.92 
M 223 192.41 228.39 192.43 
M 223.12 194.43 228.11 195.34 
M 226.97 206.77 226.48 205.78 223.53 202.43 
M 220.25 139.66 221.47 138.96 225.43 134.48 227.98 129.4 227.98 126.26 227.04 124.39 
M 229.05 165.99 231.75 161.95 233.78 156.59 233.78 153.27 231.75 147.9 228.59 143.17 226.12 141.32 
M 223.63 152.53 229.73 151.08 
M 223.96 154.85 229.74 154.71 
M 225.63 157.9 230.09 158.81 
M 230.46 192.54 232.67 190.96 233.42 189.89 
M 234.62 173.06 232.67 170.27 230.4 168.65 
M 234.45 208.99 235.76 207.52 237.85 203.46 237.85 200.94 235.76 196.88 232.54 193.29 230.46 192.14 
M 227.91 200.34 234.13 199.42 
M 227.85 202.44 234.32 202.5 
M 227.89 204.15 234.33 205.44 
M 227.07 128.07 230.97 124.23 232.57 121.41 
M 233.05 153.89 236.17 149.44 238.19 144.38 238.19 141.25 236.17 136.19 233.04 131.72 230.6 129.98 
M 240.86 171.83 241.36 170.19 241.36 167.15 239.87 162.23 237.56 157.89 235.75 156.2 
M 237.18 203.4 239.08 201.87 241.52 197.95 243.09 193.51 243.09 192.5 
M 243.16 211.34 241.84 208.48 238.98 204.98 237.1 203.83 
M 237.47 142.15 238.01 141.87 241.77 137.95 244.2 133.51 244.2 130.76 241.77 126.32 238.01 122.4 235.07 120.87 
M 240.83 167.21 242.07 166.38 245.22 162.16 247.25 157.38 247.25 154.43 245.22 149.65 242.07 145.44 239.61 143.79 
M 245.64 171.37 244.51 169.74 242.3 168.14 
M 245.8 212.13 248.73 208.52 250.72 204.23 250.72 201.57 248.73 197.28 245.65 193.49 244.31 192.66 
M 243.33 129.9 245.39 127.4 247.24 123.46 247.24 121.03 245.39 117.09 244.21 115.65 
M 238.21 120.03 244 119.46 
M 237.87 122.28 244.26 122.2 
M 239.61 124.52 244.1 125.03 
M 246.52 155.24 247.29 154.7 250.09 150.73 251.9 146.23 251.9 143.45 250.09 138.95 247.29 134.98 245.1 133.43 
M 251.8 170.85 252.46 168.74 252.46 165.87 251.01 161.24 248.76 157.15 247 155.55 
M 250.01 202.78 251.18 201.8 253.62 197.72 255.19 193.12 
M 247.61 193.82 252.58 195.49 
M 255.94 214.98 255.94 212.84 254.29 208.7 251.73 205.03 250.01 203.8 
M 247.77 212.19 252.7 211.2 
M 252.59 214.07 253.17 214.06 
M 246.58 121.5 247.67 121.05 251.2 118.12 253.48 114.8 253.48 112.75 252.85 111.83 
M 251.25 143.36 251.83 143.04 255.23 139.3 257.42 135.06 257.42 132.44 255.23 128.2 251.83 124.46 249.17 123 
M 252.24 167.43 254.68 165.87 257.82 161.89 259.84 157.37 259.84 154.58 257.82 150.07 254.68 146.08 252.24 144.53 
M 249.86 154 255.89 152.24 
M 249.75 156.09 256.21 156.3 
M 250.2 158.57 256.09 159.15 
M 257.45 170.46 256.35 168.93 254.06 167.33 
M 255.79 214.18 258.14 212.65 261.14 208.72 263.08 204.27 263.08 201.52 261.14 197.07 258.57 193.71 
M 258.1 215.52 255.81 214.25 
M 256.15 129.59 257.82 127.48 259.68 123.36 259.68 120.81 257.82 116.7 254.94 113.06 252.93 111.79 
M 259.12 156.62 260.78 155.46 263.58 151.58 265.38 147.19 265.38 144.47 263.58 140.08 260.78 136.2 258.61 134.69 
M 263.77 169.45 264.55 167.34 264.55 164.53 262.87 160.01 260.12 155.9 
M 262.39 203.11 263.67 202.03 266.19 197.8 267.36 194.34 
M 267.84 217.35 268.52 215.57 268.52 212.95 266.9 208.72 264.39 204.98 262.42 203.52 
M 260.16 211.98 265.53 210.9 
M 260.77 213.96 265.85 214.16 
M 259.5 123.93 262.54 122.84 266.43 120.04 268.94 116.87 268.94 114.91 266.43 111.74 262.26 108.84 
M 264.73 145.05 266.06 144.37 269.63 140.74 271.94 136.63 271.94 134.09 269.63 129.98 266.06 126.36 263.27 124.94 
M 265.69 168.01 268.3 166.5 271.64 162.64 273.8 158.27 273.8 155.56 271.64 151.19 268.3 147.33 265.69 145.83 
M 268.6 168.92 266.86 167.81 
M 268.42 214.27 270.78 212.74 273.81 208.81 275.77 204.36 275.77 201.6 273.81 197.15 271.71 194.43 
M 266.5 201.07 272.25 199.25 
M 266.13 202.94 272.41 203.24 
M 266.28 205.05 272.23 206.24 
M 272.53 217.48 271.02 215.74 268.65 214.36 
M 268.04 116.03 270.03 115.49 273.7 113.51 276.07 111.27 276.07 109.89 273.7 107.65 272.66 107.09 
M 271.11 134.08 271.43 133.92 274.81 130.65 276.98 126.94 276.98 124.64 274.81 120.93 271.43 117.66 268.8 116.38 
M 273.03 158.41 275.23 156.98 278.09 153.26 279.94 149.05 279.94 146.44 278.09 142.22 275.23 138.5 272.99 137.05 
M 279.93 168.07 279.93 166.81 278.07 162.46 275.18 158.62 274.14 157.93 
M 275.07 202.99 276.56 201.82 279.14 197.8 280.48 194.1 
M 280.39 217.31 281.05 215.59 281.05 212.97 279.44 208.74 276.94 205 275.07 203.6 
M 272.99 212.44 277.78 211.24 
M 273.04 214.02 278.36 214.29 
M 273.47 216.25 276.97 217.33 
M 276.34 113.49 279.62 112.93 283.81 111.49 286.52 109.86 286.52 108.86 283.81 107.23 282.55 106.8 
M 274.95 108.52 281.35 108 
M 275.22 109.48 281.56 109.25 
M 275.22 110.31 281.59 110.56 
M 276.56 127.87 279.73 126.88 283.78 124.34 286.39 121.47 286.39 119.7 283.78 116.83 279.73 114.29 276.56 113.3 
M 279.28 147.61 281.47 146.6 285.1 143.25 287.44 139.47 287.44 137.12 285.1 133.33 281.47 129.99 278.64 128.68 
M 282.47 168.02 285.97 164.24 288.12 160.07 288.12 157.48 285.97 153.31 282.63 149.62 280.03 148.19 
M 281.16 214.17 283.52 212.68 286.56 208.85 288.51 204.51 288.51 201.83 286.56 197.49 283.67 193.85 
M 278.77 200.73 284.8 200.2 
M 278.56 203.19 285.1 203.08 
M 279.22 205.01 284.8 206.6 
M 284.9 217.33 283.6 215.8 281.26 214.43 
M 285.55 110.5 287.73 110.18 290.91 109.24 292.96 108.18 292.96 107.52 290.93 106.47 
M 285.46 121.15 287.28 120.61 290.59 118.66 292.73 116.45 292.73 115.09 290.59 112.88 287.28 110.93 285.55 110.42 
M 286.6 138.17 288.06 137.49 291.21 134.55 293.24 131.23 293.24 129.17 291.21 125.84 288.06 122.9 285.59 121.76 
M 283.46 128.36 289.83 127.48 
M 282.85 129.85 289.33 129.92 
M 283.24 131.99 289.7 133.02 
M 287.35 159.23 289.29 158 291.99 154.55 293.73 150.65 293.73 148.23 291.99 144.33 289.29 140.88 287.18 139.53 
M 284.89 147.79 290.38 146.71 
M 284.85 149.72 290.86 149.61 
M 284.9 151.57 290.63 152.6 
M 293.49 168.59 291.77 164.23 289.1 160.5 287.35 159.28 
M 284.82 167.28 290.7 166.84 
M 287.81 203.24 289.54 201.92 292.08 198.05 293.72 193.61 
M 292.85 217.44 293.58 215.55 293.58 212.96 291.97 208.78 289.47 205.09 287.81 203.86 
M 292.24 117.02 295 116.45 298.54 115 300.82 113.35 300.82 112.33 298.54 110.69 295 109.23 292.24 108.66 
M 292.52 130.86 295.19 129.96 298.76 127.57 301.06 124.85 301.06 123.17 298.76 120.46 295.19 118.06 292.41 117.12 
M 293.17 149.29 295.77 148.07 299.09 144.96 301.23 141.44 301.23 139.26 299.09 135.74 295.77 132.63 293.17 131.41 
M 295.96 168.48 299.06 164.97 301.09 160.95 301.09 158.47 299.06 154.46 295.93 150.91 293.48 149.53 
M 293.82 214.13 296.17 212.66 299.18 208.88 301.12 204.6 301.12 201.96 299.18 197.68 296.17 193.91 295.26 193.34 
M 297.23 217.17 296.08 215.84 293.75 214.49 
M 300 112.39 301.52 112.09 304.08 111.11 305.19 110.36 
M 300.24 123.43 301.63 122.93 304.37 120.99 306.13 118.79 306.13 117.43 304.37 115.23 301.63 113.28 300 112.71 
M 300.47 139.57 301.94 138.81 304.63 136.06 306.37 132.93 306.37 131 304.63 127.88 301.94 125.12 300.24 124.24 
M 300.36 159.08 302.05 157.98 304.58 154.69 306.21 150.95 306.21 148.64 304.58 144.91 302.05 141.61 300.47 140.58 
M 305.79 168.42 304.2 164.37 301.65 160.67 300.36 159.74 
M 300.42 203.13 302.04 201.88 304.53 198.02 306.14 193.64 306.14 191.86 
M 305.78 216.55 306.16 215.56 306.16 212.99 304.54 208.83 302.05 205.16 300.42 203.96 
M 305.5 117.94 307.79 117.35 310.76 115.82 312.68 114.09 312.68 113.82 
M 305.97 131.91 308.37 130.98 311.45 128.6 313.43 125.9 313.43 124.23 311.45 121.53 308.37 119.15 305.97 118.22 
M 303.45 123.61 309.79 123.12 
M 303.43 125.19 309.63 124.93 
M 303.63 126.07 309.71 127.44 
M 306.27 149.63 308.62 148.45 311.64 145.42 313.58 141.98 313.58 139.85 311.64 136.42 308.62 133.38 306.27 132.2 
M 303.79 139.17 310.34 138.51 
M 304.24 140.56 310.33 140.69 
M 303.99 143.01 310.11 143.66 
M 308.36 168.77 311.6 165.13 313.53 161.16 313.53 158.71 311.6 154.74 308.59 151.23 306.25 149.87 
M 306.26 192.02 306.8 191.68 
M 306.37 214.1 308.7 212.63 311.69 208.87 313.62 204.6 313.62 201.96 311.69 197.7 308.7 193.94 306.37 192.47 
M 304.34 200.89 310.19 199.82 
M 304.24 203.49 310.41 203.45 
M 304.08 205.34 310.12 206.59 
M 308.68 216.03 306.3 214.64 
M 312.72 123.71 313.88 123.21 316.27 121.14 317.82 118.8 317.82 117.34 316.98 116.08 
M 312.88 139.85 314.43 138.97 316.87 136.21 318.43 133.08 318.43 131.14 316.87 128.02 314.43 125.26 312.72 124.29 
M 312.84 159.18 314.49 158.04 316.88 154.71 318.43 150.95 318.43 148.62 316.88 144.86 314.49 141.54 312.88 140.43 
M 318.79 169.38 318.79 169 317.16 164.81 314.62 161.12 312.84 159.82 
M 311.04 168.32 315.69 167.3 
M 312.93 203.08 314.59 201.8 317.07 197.97 318.67 193.64 318.67 190.96 317.87 188.81 
M 318.67 214.12 318.67 212.98 317.07 208.79 314.58 205.1 312.93 203.87 
M 317.27 117.08 318.3 116.77 
M 318.08 131.62 320.31 130.67 323.16 128.22 325 125.46 325 123.74 323.16 120.97 320.31 118.53 318.08 117.57 
M 318.38 149.26 320.59 148.06 323.42 145 325.24 141.53 325.24 139.39 323.42 135.92 320.59 132.86 318.38 131.67 
M 319.65 169.33 320.89 168.57 323.78 165.02 325.65 161 325.65 158.52 323.78 154.5 320.89 150.95 318.63 149.56 
M 316.71 157.67 322.2 156.53 
M 316.21 159.94 321.95 159.71 
M 316.14 161.76 322.2 162.65 
M 318.86 192.1 321.18 190.62 324.18 186.75 
M 318.85 213.97 321.16 212.51 324.12 208.76 326.03 204.52 326.03 201.89 324.12 197.65 321.16 193.9 318.85 192.44 
M 324.34 122.86 325.34 122.39 326.69 121.14 
M 321.45 118.49 321.58 118.5 
M 324.59 138.99 326.08 138.11 328.42 135.34 329.93 132.21 329.93 130.28 328.42 127.15 326.08 124.39 324.34 123.36 
M 322.15 129.84 326.91 128.67 
M 322.71 130.91 327.05 130.94 
M 322.27 132.54 327.38 133.61 
M 324.98 157.82 325.89 157.13 328.15 153.74 329.61 149.89 329.61 147.51 328.15 143.67 325.89 140.27 324.59 139.3 
M 331.08 169.11 329.5 164.65 327.06 160.87 325.14 159.4 
M 325.35 202.79 326.89 201.57 329.32 197.75 330.88 193.43 330.88 190.75 329.32 186.42 328.89 185.76 
M 323.16 189.9 328.24 188.7 
M 322.95 192.44 328.2 192.11 
M 322.97 194.55 327.98 195.43 
M 330.42 211.04 329.52 208.74 327.03 205.1 325.35 203.87 
M 323.01 211.84 328.23 211.24 
M 329.82 130.8 332.1 129.84 335.02 127.39 336.03 125.89 
M 329.89 148.19 332.16 146.99 335.06 143.92 336.93 140.45 336.93 138.3 335.06 134.82 332.16 131.76 329.89 130.56 
M 330.9 169.08 332.72 167.96 335.66 164.34 337.56 160.24 337.56 157.71 335.66 153.61 332.72 149.99 330.43 148.58 
M 331.09 191.91 333.39 190.42 336.34 186.59 338.24 182.12 
M 336.1 209 336.46 208.55 338.37 204.3 338.37 201.68 336.46 197.44 333.51 193.69 331.2 192.23 
M 328.6 200.89 334.94 199.95 
M 328.7 203.19 334.94 202.99 
M 328.79 205.26 335.04 205.89 
M 336.26 137.93 337.92 137.03 340.39 134.36 341.99 131.33 341.89 129.27 
M 334.07 128.75 339.03 127.76 
M 333.88 130.15 339.39 130.47 
M 334.03 132.27 339.35 132.99 
M 336.88 155.92 337.23 155.69 339.83 152.26 341.51 148.36 341.51 145.95 339.83 142.06 337.23 138.62 336.26 137.99 
M 333.54 145.51 338.42 144.44 
M 333.37 147.05 338.49 147.5 
M 333.48 149.19 338.34 149.91 
M 343.28 170.08 343.28 168.43 341.68 164.06 339.19 160.19 337.25 158.68 
M 337.69 202.04 338.9 201.09 341.36 197.22 342.95 192.84 342.95 190.13 341.36 185.74 338.86 181.85 
M 341.06 207.26 339.66 205.2 337.72 203.78 
M 342.45 130.66 343.46 130.28 
M 342.56 148.34 345.03 147.14 348.18 144.06 350.21 140.58 350.21 138.42 348.18 134.94 345.03 131.86 342.56 130.66 
M 343.14 169.47 345.57 168.07 348.68 164.48 350.69 160.4 350.69 157.88 348.68 153.81 345.57 150.21 343.14 148.81 
M 341.14 156.78 347.31 155.82 
M 340.85 159.46 347.23 159.45 
M 340.86 160.84 346.94 162.6 
M 343.52 191.71 345.84 190.22 348.81 186.42 350.73 182.11 350.73 179.44 349.4 176.44 
M 344.01 170.15 343.52 169.84 
M 341.48 180.65 347.09 180.78 
M 341.44 182.76 347.63 183.88 
M 350.7 203.64 350.7 201.54 348.82 197.31 345.9 193.56 343.62 192.1 
M 341.69 200.85 347.49 199.48 
M 341.1 202.99 347.27 202.57 
M 341.37 205.15 345.62 205.6 
M 349.49 138.72 351.16 137.85 352.56 136.39 
M 350 159.3 352.16 157.97 354.93 154.56 356.72 150.7 356.72 148.31 354.93 144.44 352.16 141.03 350 139.7 
M 347.82 147.26 353.14 146.67 
M 348.26 149.43 353.3 149.61 
M 347.97 151.45 353.21 152.61 
M 350.13 180.67 352.09 179.24 354.6 175.57 355.33 173.72 
M 356.03 171.92 356.23 171.41 356.23 168.83 354.6 164.67 352.09 161 350.13 159.57 
M 350.03 202.45 351.65 201.18 354.08 197.37 355.66 193.04 355.66 190.37 354.08 186.04 351.65 182.22 350.04 180.97 
M 350.37 203.79 350.03 203.53 
M 356.17 149.35 358.64 148.16 361.81 145.12 362.92 143.25 
M 356.38 169.87 358.77 168.51 361.84 165.02 363.82 161.07 363.82 158.63 361.84 154.68 358.77 151.19 356.38 149.83 
M 355.97 191.28 358.22 189.83 361.11 186.14 362.97 181.95 362.97 179.36 361.11 175.18 358.74 172.15 
M 358.23 171.49 355.97 170.04 
M 353.57 178.69 359.46 177.2 
M 353.63 180.63 359.76 180.43 
M 353.46 182.61 359.7 183.51 
M 361.43 198.75 360.58 196.74 357.8 192.99 355.64 191.52 
M 363.11 159.11 364.82 157.99 367.34 154.7 368.97 150.97 368.97 148.66 368.01 146.46 
M 362.53 180.23 364.42 178.84 366.84 175.26 368.4 171.22 368.4 168.71 366.84 164.67 364.42 161.1 363.11 160.13 
M 365.11 196.96 365.47 196.36 366.92 192.15 366.92 189.54 365.47 185.33 363.22 181.62 362.3 180.86 
M 369.02 149.54 371.19 148.44 
M 368.79 169.43 371.04 168.11 373.92 164.73 375.78 160.9 375.78 158.52 373.92 154.69 371.04 151.31 368.79 149.99 
M 366.34 157.99 372.6 156.84 
M 366.56 159.84 372.65 159.63 
M 366.82 161.6 372.5 162.96 
M 367.65 190.05 369.77 188.65 372.48 185.07 374.23 181.01 374.23 178.5 372.48 174.44 369.77 170.86 367.85 169.59 
M 370.63 194.02 368.82 191.46 366.74 189.99 
M 375.34 159.09 377.23 157.82 379.65 154.57 379.9 153.97 
M 374.45 179.14 376.2 177.8 378.43 174.38 379.88 170.51 379.88 168.11 378.43 164.24 376.2 160.82 375.11 159.99 
M 377.26 190.32 377.31 187.62 375.94 183.52 373.6 179.72 
M 380.42 168.18 382.49 166.9 385.14 163.61 386.83 159.95 
M 378.09 156.61 383 155.89 
M 378.14 158.38 383.76 159.08 
M 378.23 160.94 383.61 161.35 
M 378.45 188.05 380.47 186.68 383.05 183.16 384.72 179.16 384.72 176.69 383.05 172.7 380.47 169.18 379.36 168.42 
M 377.15 175.95 381.97 174.66 
M 376.32 177.86 381.89 177.56 
M 376.27 179.99 381.9 181.26 
M 379.2 189.23 377.63 188.14 
M 384.72 176.4 386.3 175.11 386.83 174.26 
M 386.83 159.6 386.24 158.69 
M 383.88 164.81 386.83 164.49 
M 383.27 166.71 386.83 166.73 
M 383.34 168.47 386.83 169.33 
M 386.83 182.19 386.44 181.02 384.12 177.18 
M 386.8 175.93 386.83 175.92 
M 207.82 205.57 208.51 204.86 210.58 201.14 210.58 199.67 
M 214.31 209.61 214.31 208.83 212.64 205.35 209.84 202.16 
M 210.75 207.43 211.06 207.38 
M 226.05 216.09 226.48 215.6 228.34 211.85 228.34 209.53 226.97 206.77 
M 230.01 212.51 232.54 211.11 234.45 208.99 
M 232.93 218.88 233.08 218.85 
M 243.24 213.79 245.8 212.13 
M 250.22 225.24 250.58 224.6 250.58 222.29 248.46 218.56 245.15 215.26 243.02 214.19 
M 249.82 224.59 251.73 223.22 254.29 219.56 255.94 215.41 255.94 214.98 
M 247.58 214.2 252.59 214.07 
M 261.5 228.99 263.37 225.36 263.37 222.95 261.36 219.04 258.1 215.52 
M 260.39 216.26 265.63 217.51 
M 262.26 108.84 262.26 108.84 
M 266.66 222.8 272.64 221.21 
M 266.08 224.46 272.43 224.36 
M 266.29 226.73 272.65 227.71 
M 276.97 217.33 277.96 217.63 
M 279.68 230.31 279.49 229.87 276.97 226.56 275.32 225.48 
M 290.93 106.47 290.93 106.47 
M 292.21 230.52 291.93 229.85 289.45 226.54 287.83 225.46 
M 298.78 229.91 299.07 229.58 301 225.66 301 223.23 299.07 219.31 297.23 217.17 
M 291.54 222.37 297.51 221.57 
M 291.39 224.76 297.47 224.45 
M 291.4 226.75 297.87 227.2 
M 300.31 224.68 302.05 223.4 304.54 219.73 305.78 216.55 
M 303.89 229.26 301.79 226.58 300.31 225.63 
M 312.74 227.23 313.53 225.64 313.53 223.25 311.61 219.39 308.68 216.03 
M 304.37 222.83 310.05 221.2 
M 304.07 226.07 310.18 227.09 
M 314.17 226.84 312.84 226 
M 318.3 116.77 318.3 116.77 
M 326.69 121.14 326.69 121.14 
M 321.58 118.5 321.58 118.5 
M 327.35 222.75 329.52 219.56 331.13 215.43 331.13 212.88 330.42 211.04 
M 323.3 216.43 327.93 216.96 
M 336 218.82 333.19 215.65 330.9 214.35 
M 328.54 221.94 329.47 221.83 
M 343.74 215.21 343.74 212.97 342.14 208.84 341.06 207.26 
M 335.91 213.9 340.65 213.97 
M 343.46 130.28 343.46 130.28 
M 343.62 213.61 345.9 212.15 348.82 208.41 350.7 204.17 350.7 203.64 
M 344.38 214.9 343.31 214.3 
M 354.56 209.49 354.23 208.59 351.87 204.95 350.37 203.79 
M 361.68 205.24 362.37 203.61 362.37 200.98 361.43 198.75 
M 361.73 201.31 363.22 200.07 365.11 196.96 
M 372.62 198.05 371.47 195.22 370.63 194.02 
M 381.4 191.9 379.76 189.62 379.2 189.23 
M 246.32 113.57 270.62 30 271.34 30.19 249.15 113.31 
M 256.77 109.71 276.66 43.35 277.37 43.55 259.55 109.63 
M 267.61 106.88 288.32 57.77 289.01 58.05 270.35 107.2 
M 278.76 106.27 296.2 71.29 296.87 71.6 281.44 106.81 
M 289.95 105.78 304.32 83.33 304.96 83.7 292.51 106.68 
M 300.9 108.24 312.01 96.71 312.58 97.19 303.22 109.6 
M 311.18 112.62 316.85 108.24 317.38 108.76 313.34 114.14 
M 319.53 117.02 320.49 117.94 
M 269.09 38.6 269.48 41.55 270.26 44.31 271.66 46.76 274.67 49.99 
M 275.57 50.24 277.22 53.63 279.21 56.72 281.72 59.37 286.25 62.68 
M 287.12 63.03 287.94 66.15 289.14 69.03 290.92 71.55 294.46 74.79 
M 295.3 75.18 296.79 79.4 298.33 81.82 300.43 83.83 302.88 85.57 
M 303.69 86.05 304.48 89.17 305.65 92.06 307.4 94.59 310.9 97.86 
M 311.61 98.47 312 102.41 312.88 104.75 314.38 106.81 316.29 108.68 
M 316.95 109.34 316.77 111.52 317.01 113.54 317.89 115.32 320.15 117.62 
M 269.26 40.09 269.8 42.96 270.26 44.31 271.66 46.76 273.6 48.94 
M 267.98 45.68 268.48 48.33 269.48 50.74 270.19 51.83 271.98 53.85 
M 266.7 51.28 267.16 53.7 268.07 55.9 268.73 56.91 270.36 58.75 
M 265.42 56.87 265.84 59.07 266.67 61.07 267.26 61.98 268.75 63.66 
M 264.15 62.46 264.52 64.44 265.26 66.24 267.13 68.56 
M 262.87 68.06 263.2 69.81 263.86 71.41 265.52 73.47 
M 261.59 73.65 261.88 75.18 262.46 76.57 263.9 78.37 
M 260.31 79.24 260.56 80.55 261.05 81.74 262.29 83.28 
M 259.03 84.84 259.24 85.92 259.65 86.91 260.67 88.18 
M 276.37 51.96 278.16 55.23 279.21 56.72 281.72 59.37 284.68 61.63 
M 275.08 57.63 276.69 60.58 278.7 63.17 279.89 64.31 282.56 66.34 
M 273.79 63.31 275.21 65.93 277.01 68.23 278.06 69.24 280.43 71.05 
M 272.5 68.99 274.48 72.32 276.24 74.18 278.31 75.76 
M 271.2 74.66 272.91 77.53 274.41 79.12 276.19 80.47 
M 269.91 80.34 270.8 81.98 271.92 83.42 274.07 85.18 
M 268.62 86.02 269.75 87.93 270.76 88.99 271.94 89.89 
M 287.51 64.61 288.48 67.63 289.14 69.03 290.92 71.55 293.21 73.75 
M 285.67 70.56 286.51 73.16 287.78 75.48 288.61 76.53 290.58 78.42 
M 283.84 76.51 284.54 78.68 285.6 80.63 287.95 83.09 
M 282.01 82.46 282.96 85.02 283.99 86.48 285.32 87.76 
M 280.17 88.41 280.89 90.35 281.68 91.46 282.68 92.43 
M 295.74 76.64 296.79 79.4 298.33 81.82 299.32 82.87 301.63 84.72 
M 293.36 83.64 294.17 85.76 295.35 87.61 296.1 88.42 297.88 89.83 
M 290.98 90.64 291.54 92.12 292.36 93.41 294.12 94.95 
M 304.06 87.62 305 90.66 305.65 92.06 307.4 94.59 309.67 96.81 
M 301.42 94.68 302.03 96.65 302.97 98.42 305.06 100.65 
M 215.14 175.17 219.9 174.88 226.62 173.75 233.82 173.24 238.12 172.31 242.7 171.56 245.02 171.36 247.27 171.4 253.52 170.66 257.95 170.42 262.67 169.74 266.77 168.79 269.14 168.96 271.54 168.85 278.1 168.06 287.58 167.98 289.7 168.37 294.15 168.6 303.76 168.09 308.13 168.8 311.62 168.35 313.79 168.34 316.36 168.48 318.76 169.38 323.94 169.12 327.47 168.67 329.23 168.8 332.04 169.27 334.55 169.9 338.58 169.9 340.76 170.18 343.36 170.07 348.27 170.45 351.04 171.22 355.64 171.99 358.9 171.35 359.92 171.6 340.79 180.4 339.24 181.69 337.26 182.54 330.97 184.77 329.08 185.71 326.85 186.31 324.39 186.69 319.93 187.83 318.12 188.73 312.02 190.74 307.4 191.52 305.26 192.09 302.78 192.32 300.57 192.8 296.23 193.19 292.28 193.96 290.04 194.09 284.95 193.73 280.62 194.11 276.01 193.87 274.2 194.25 272.19 194.42 267.78 194.39 265.27 194.07 260.83 193.97 258.55 193.7 256.01 193.18 253.83 193.03 249.97 193.2 242.95 192.48 224.11 187.35 220.81 186.25 217.92 185.05 215.14 183.16 
M 217.61 176.34 219.9 176.25 226.81 175.56 233.98 175.43 242.6 174.36 247.24 174.61 249.35 174.46 251.41 174.53 254.08 174.29 261.15 174.37 269.78 173.49 272.08 173.54 276.18 174.2 288.19 174.43 294.9 174.99 297.17 175.23 299.53 175.86 301.66 176.2 305.82 176.5 311.97 177.47 314.25 177.38 319.13 178.32 323.54 178.69 
M 222.18 177.56 226.96 177.41 234.17 177.74 238.06 177.47 246.95 177.42 249.28 177.6 251.66 178.18 254.45 178.43 256.96 178.37 259.27 178.72 263.72 178.54 266.04 178.88 270.45 178.8 272.59 179.13 274.38 179.87 278.38 180.52 286.01 180.68 290.38 182.03 
M 219.89 178.99 229.28 179.49 234.02 180 238.06 179.9 244.86 180.72 247.02 180.75 254.14 182.16 256.27 182.39 258.72 183.08 262.7 183.58 264.83 184.11 269.22 184.6 271.37 185.13 273.94 185.34 276.29 185.95 278.49 186.88 285.16 187.8 289.55 189.14 293.61 190.65 295.96 190.8 298.09 192.09 
M 222.43 180.77 231.73 182.06 234.3 182.22 236.46 182.66 240.81 183.2 249.13 185.11 251.57 185.47 255.69 186.37 257.81 187.06 259.81 188.22 
M 215.14 180.74 217.55 181.53 234.31 184.85 238.75 186.41 
M 215.14 181.86 217.62 182.89 222.72 184.28 229.61 186.6 
M 241.48 226.22 254.28 251.25 253.63 251.61 239.15 227.52 
M 240.17 225.84 240.51 226.76 
M 243.48 234.72 251.94 257.44 251.25 257.72 237.69 226.84 
M 238.83 225.46 239.04 226.29 
M 241.01 234.4 248.14 263.68 247.42 263.88 236.25 226.15 
M 237.48 225.08 237.57 225.8 
M 238.54 233.88 242.86 269.72 242.12 269.82 234.84 225.46 
M 236.11 224.71 236.11 225.28 
M 236.11 233.23 236.13 275.29 235.39 275.3 233.44 224.76 
M 234.36 224.2 234.29 224.75 
M 233.64 230.13 227.65 280 226.91 279.92 231.7 223.93 
M 252.18 249.2 250.95 250.07 250.14 251.06 250 252.24 250.76 254.28 
M 249.89 254.63 248.45 255.36 247.4 256.29 246.96 257.53 247.21 259.86 
M 246.3 260.1 244.66 260.66 243.38 261.5 242.63 262.75 242.32 265.26 
M 241.39 265.39 239.58 265.76 238.06 266.46 237.01 267.67 236.13 270.23 
M 235.19 270.25 232.24 270.54 230.62 271.31 229.35 272.67 228.32 274.42 
M 251.54 249.63 250.47 250.55 250.14 251.06 250 252.24 250.43 253.58 
M 248.76 244.26 247.69 245.36 247.58 246.26 247.91 247.28 
M 245.98 238.88 245.23 239.65 245.16 240.28 245.39 240.99 
M 249.14 254.98 247.85 255.79 247.1 256.87 246.96 257.53 247.05 259.05 
M 247.23 249.92 246.17 250.59 245.8 251 245.43 252.02 245.51 253.28 
M 245.33 244.86 244.19 245.71 243.91 246.52 243.97 247.51 
M 243.42 239.8 242.59 240.42 242.38 241.01 242.42 241.73 
M 245.46 260.37 243.96 261.03 243.38 261.5 242.63 262.75 242.36 264.37 
M 244.25 255.49 242.96 256.07 242.46 256.46 241.82 257.54 241.59 258.94 
M 243.05 250.61 241.97 251.1 241.23 251.84 240.82 253.5 
M 241.84 245.74 240.97 246.13 240.38 246.73 240.05 248.06 
M 240.64 240.86 239.72 241.36 239.39 241.91 239.28 242.62 
M 240.47 265.55 238.77 266.06 238.06 266.46 237.01 267.67 236.37 269.32 
M 239.88 260.82 238.38 261.27 237.76 261.63 236.83 262.69 236.26 264.15 
M 239.3 256.09 238 256.48 237.01 257.2 236.65 257.71 236.16 258.98 
M 238.72 251.36 237.15 251.95 236.47 252.74 236.05 253.81 
M 238.13 246.63 236.85 247.12 236.29 247.76 235.95 248.64 
M 237.55 241.9 236.55 242.28 236.11 242.78 235.84 243.47 
M 234.17 270.28 232.24 270.54 230.62 271.31 229.95 271.93 228.82 273.52 
M 234.13 264.93 232.43 265.16 231.67 265.43 230.41 266.38 229.42 267.79 
M 234.1 259.57 232.62 259.77 231.38 260.37 230.87 260.84 230.01 262.06 
M 234.07 254.22 232.26 254.59 231.33 255.29 230.6 256.33 
M 234.04 248.87 233.01 249.01 232.15 249.42 231.19 250.6 
M 234.01 243.52 232.85 243.76 232.25 244.2 231.78 244.87 
M 357.67 210.63 365.71 217.05 365.3 217.67 356.2 212.87 
M 348.23 216.52 374.79 236.25 374.36 236.86 346.7 218.71 
M 338.46 221.8 368.36 245.72 367.91 246.31 336.84 223.93 
M 328.62 226.93 353.25 249.81 352.76 250.37 326.85 228.94 
M 318.23 230.8 342.73 257.66 342.19 258.18 316.3 232.65 
M 307.68 234.19 322.91 255.29 322.33 255.75 305.57 235.83 
M 292.45 236.4 297.29 245.48 296.67 245.89 290.22 237.87 
M 364.39 217.19 365.24 221.38 366.5 225.39 368.38 229.11 372.13 234.28 
M 371.6 235.04 368.49 237.03 366.97 238.77 365.99 240.91 365.37 243.33 
M 364.8 244.07 359.82 243.97 356.67 244.57 353.67 245.83 350.79 247.52 
M 350.17 248.23 347.43 248.94 344.95 250.02 342.85 251.66 340.28 254.98 
M 339.6 255.62 335.68 254.14 331.7 253.09 327.63 252.72 321.39 253.18 
M 320.65 253.76 313.16 249.5 307.93 247.29 302.45 245.73 296.8 244.58 
M 364.79 219.3 365.8 223.42 366.5 225.39 368.38 229.11 370.81 232.59 
M 370.5 235.66 368.49 237.03 367.66 237.85 366.42 239.79 365.65 242.1 
M 365.61 232.96 363.95 234.09 363.27 234.77 362.24 236.37 361.61 238.28 
M 360.72 230.26 358.87 231.68 358.07 232.95 357.57 234.45 
M 355.83 227.56 354.48 228.6 353.89 229.53 353.53 230.62 
M 363.12 243.96 359.82 243.97 356.67 244.57 355.15 245.12 352.22 246.65 
M 357.8 240.71 355.07 240.72 352.47 241.21 351.22 241.67 348.8 242.93 
M 352.47 237.47 350.33 237.47 348.28 237.86 345.39 239.21 
M 347.15 234.22 345.58 234.22 344.08 234.5 341.97 235.49 
M 348.78 248.56 346.15 249.41 344.95 250.02 342.85 251.66 341.09 253.81 
M 344.18 245.28 342.01 245.99 341.02 246.48 339.29 247.84 337.84 249.61 
M 339.59 242 337.09 242.95 335.73 244.02 334.58 245.41 
M 334.99 238.72 333.73 239.13 332.64 239.78 331.33 241.22 
M 337.65 254.85 333.7 253.54 331.7 253.09 327.63 252.72 323.48 252.95 
M 331.65 249.84 328.63 248.83 327.09 248.49 323.97 248.21 320.79 248.38 
M 325.65 244.83 322.48 243.89 320.31 243.69 318.1 243.81 
M 318.18 252.26 313.16 249.5 307.93 247.29 305.21 246.44 299.64 245.12 
M 386.09 157.81 388.27 157.34 390.54 156.31 394.87 153.5 398.71 151.34 400.74 150.41 402.69 149.78 404.68 148.81 406.1 147.5 408.46 146.05 411.52 143.01 416.03 140.37 418.69 138.39 425.98 135.54 428.45 134.33 431.19 132.34 433.91 130.95 435.52 129.79 438.66 128.17 440.83 125.96 443.53 123.72 437.84 133.35 436.62 137.9 435.75 139.91 435.31 142.36 434.35 144.54 432.74 146.07 430.96 147.44 429.45 149.07 428.07 150.84 426.98 152.89 424.93 153.99 423.23 155.43 421.8 157.14 418.7 160.21 417.87 162.45 417.43 165.03 415.69 166.28 414.8 168.38 413.39 170.02 412.39 172.09 410.65 173.46 409.73 175.13 409.06 177.22 408.13 179.11 408.78 181.9 411.64 187.91 412.88 191.82 413.85 193.77 414.75 196.33 414.83 198.17 414.61 199.76 415.25 201.6 418.39 206.62 420.4 210.77 420.22 214.81 417.63 213.27 416.01 212.1 413.89 210.09 410.86 209.12 408.02 206.71 405.52 205.32 403.69 203.8 402.58 202.16 400.66 200.94 398.3 200.78 395.72 199.69 393.11 195.6 388.71 192.53 386.09 190.26 
M 388.55 159.29 390.64 158.51 393.17 157.21 394.92 156.02 396.86 155.21 399.14 153.52 401.29 152.65 406.11 151.58 409.02 149.07 411.06 147.8 
M 392.99 159.65 395.22 158.53 397.11 157.9 399.43 156.5 401.85 155.53 404.76 154.89 408.49 153.75 412.46 151.78 414.31 150.55 
M 386.09 162.67 388.77 162.63 393.33 161.71 395.41 160.8 397.48 160.04 399.85 159.43 402.15 158.46 404.87 157.64 407.53 157.16 413.55 155.2 415.12 152.94 420.71 149.97 422.92 149.03 425.11 148.98 
M 393.82 163.39 395.67 163.08 397.86 162.41 400.33 162.07 402.7 161.13 404.39 160.24 407.04 159.7 409.56 158.36 411.47 158.59 413.4 158.09 415.72 156.51 417.96 155.24 420.52 153.21 
M 391.55 165.58 398.52 164.32 401.13 164.1 403.14 163.5 405.34 163.34 407.59 162.1 409.53 161.28 411.36 161.58 
M 386.09 167.54 391.8 167.62 394.26 167.26 396.17 166.4 398.51 166.24 401.26 166.34 
M 386.09 169.16 391.83 169.27 394.39 169.49 396.36 168.75 398.52 168.32 404.05 168.11 406.66 167.69 409.21 168.29 411.25 169.01 
M 392.23 171.46 396.02 172.05 398.72 171.92 402.23 171.44 
M 389.77 172.9 395.64 174.43 398.82 174.26 
M 389.85 174.96 392.18 175.59 394.18 176.47 395.74 176.92 398.7 177.09 
M 386.09 175.66 389.81 176.75 396.81 179.13 398.93 179.21 401.71 178.77 405.13 178.77 
M 386.09 177.28 394.6 180.31 399.72 181.53 402.25 181.28 407.63 181.34 
M 394.11 181.82 396.57 183.25 404.26 183.97 407.12 184.48 
M 386.09 180.52 388.5 182.28 391.14 182.88 393.98 183.93 396.65 185.33 399.54 185.96 402.01 185.89 
M 394.53 185.95 396.97 187.23 399.28 188.03 401.64 188.36 402.95 189.22 
M 391.71 186.45 394.02 188.1 396.8 189.61 400.88 190.93 402.85 191.36 405.13 191.51 
M 393.74 190.09 398.38 192.8 403.13 193.35 405.74 194.06 408.13 194.95 409.32 196.36 
M 386.09 187.01 388.87 188.76 393.58 192.12 395.51 194.03 397.32 195.5 399.94 195.74 
M 386.09 188.64 393.83 194.29 396.13 197.83 398.82 198.9 401.45 199.26 404.5 199.23 405.97 200.29 407.8 202.37 409.51 203.71 412.15 204.94 
M 364.22 144.1 365.47 142.92 366.96 141.99 368.73 141.33 372.64 140.39 377.11 140.01 382.44 140.49 388.36 141.6 391.53 143.23 394.06 145.76 395.09 148.33 394.27 150.18 392.14 151.19 384.62 151.93 380.08 152.79 378.8 153.28 
M 367.85 144.63 369.68 144.04 
M 371.64 143.57 375.95 143.03 
M 378.39 143.04 382.44 143.46 388.36 144.57 391.53 146.2 392.8 147.47 
M 137.43 170.63 137.98 169.33 139.34 167.26 141.24 165.06 143.78 163.01 151.83 158.6 160.32 152.57 165.7 149.81 171.71 147.23 183.78 142.53 189.91 140.47 195.95 138.76 205.56 135.62 211.13 134.26 213.33 138.28 213.99 142.19 215.88 150.06 216.56 153.97 216.71 157.82 216.51 165.48 215.59 169.23 214.96 173 214.12 176.76 211.67 184.19 211.17 187.98 209.59 195.5 208.4 199.22 206.65 202.88 203.9 206.37 194.1 205.76 186.88 204.77 180.51 203.43 168.92 200.16 163.91 198.23 159.33 196.18 155.02 193.82 151.16 191.47 147.81 188.96 145.1 186.2 
M 196.64 158.98 196.3 162.18 
M 188.62 185.99 188.68 187.05 188.09 189.89 181.65 189.82 172.46 189.31 167.82 188.68 163.21 187.82 158.97 186.51 155.05 184.83 
M 143.75 185.5 139.81 180.65 135.56 174.66 134.76 172.98 135.29 171.13 137.06 170.43 138.78 171.35 139.64 173.06 142.25 179.92 145.15 186.16 
M 144.8 186.75 131.69 185.32 130.12 184.19 129.98 182.34 131.33 180.96 133.27 181.04 138.26 183.35 144.92 185.99 
M 160.89 177.48 159.26 171.3 159.72 164.92 162.23 159.04 166.51 154.3 172.1 151.2 178.4 150.08 184.71 151.07 190.36 154.06 194.74 158.72 197.36 164.55 197.95 170.91 196.45 177.12 193 182.51 188 186.48 181.98 188.62 175.58 188.68 169.52 186.67 164.44 182.79 160.89 177.48 
M 160.65 176.93 159.87 174.66 159.38 172.3 159.18 169.9 159.28 167.5 159.67 165.12 160.36 162.82 161.33 160.61 162.56 158.55 164.04 156.65 165.74 154.95 167.64 153.47 169.7 152.24 171.91 151.27 174.21 150.58 176.59 150.19 178.99 150.09 181.39 150.29 183.74 150.78 186.02 151.56 
M 162.02 176.36 161.3 174.26 160.84 172.09 160.66 169.87 160.75 167.65 161.12 165.46 161.75 163.33 162.65 161.29 163.78 159.38 165.15 157.63 166.72 156.06 168.47 154.69 170.38 153.56 172.42 152.66 174.55 152.03 176.74 151.66 178.96 151.57 181.17 151.76 183.35 152.21 185.45 152.93 
M 163.39 175.8 162.73 173.87 162.31 171.87 162.15 169.84 162.23 167.8 162.89 164.71 
M 167.04 157.84 169.31 155.92 171.06 154.88 172.93 154.06 174.88 153.48 176.89 153.14 178.93 153.06 180.96 153.23 182.96 153.64 184.88 154.31 
M 164.77 175.23 164.16 173.47 163.78 171.66 163.63 169.81 163.71 167.96 164.38 164.89 
M 168 158.97 170.15 157.15 171.74 156.2 173.44 155.45 175.22 154.92 177.05 154.62 178.9 154.54 180.75 154.69 182.56 155.07 184.32 155.68 
M 166.14 174.66 165.59 173.08 165.25 171.44 165.11 169.78 165.18 168.11 165.83 165.21 
M 169.06 160 170.99 158.37 172.42 157.52 173.95 156.85 175.55 156.37 177.2 156.09 178.87 156.03 180.53 156.16 182.17 156.51 183.75 157.05 
M 167.51 174.09 167.03 172.68 166.6 169.75 166.66 168.26 167.19 165.83 
M 170.12 161.04 171.82 159.6 173.1 158.84 175.89 157.82 178.84 157.51 181.77 157.94 183.18 158.42 
M 168.88 173.52 168.46 172.29 168.08 169.72 168.14 168.42 168.56 166.44 
M 171.2 162.06 172.66 160.82 173.78 160.16 176.22 159.26 178.81 158.99 180.1 159.1 182.61 159.79 
M 171.51 172.69 170.86 170.22 171.12 167.47 
M 173.35 163.87 173.76 163.42 175.99 162.18 178.51 161.73 181.04 162.13 183.3 163.32 185.05 165.19 186.1 167.52 186.34 170.07 185.73 172.55 184.36 174.7 182.35 176.29 179.94 177.15 177.39 177.17 174.96 176.37 172.93 174.82 171.51 172.69 
M 173.97 163.3 173.59 164.05 
M 171.77 167.7 170.91 169.41 
M 175.51 162.45 174.4 164.67 
M 172.73 168.01 171.12 171.22 
M 176.83 162.03 175.18 165.34 
M 173.7 168.29 171.51 172.68 
M 178.05 161.82 175.96 166.01 
M 174.68 168.56 172.14 173.64 
M 179.16 161.84 176.69 166.76 
M 175.68 168.79 172.78 174.59 
M 180.19 162 177.42 167.53 
M 176.68 169.02 173.54 175.29 
M 181.19 162.21 178.16 168.28 
M 177.74 169.13 174.35 175.9 
M 182.08 162.68 178.91 169.01 
M 178.82 169.2 175.19 176.44 
M 182.96 163.14 176.15 176.76 
M 183.74 163.8 177.1 177.08 
M 184.47 164.57 178.17 177.17 
M 185.16 165.43 179.29 177.15 
M 185.68 166.6 180.51 176.95 
M 186.14 167.92 181.86 176.47 
M 186.31 169.8 183.53 175.36 
M 139.75 173.37 141.75 175.37 
M 138.85 168.01 143.25 172.42 
M 140.82 165.54 143.59 168.31 
M 143.21 163.47 146.89 167.15 
M 145.96 161.77 148.56 164.37 
M 148.84 160.19 153.2 164.55 
M 151.74 158.64 154 160.9 
M 154.35 156.79 157 159.45 
M 156.95 154.94 160.06 158.05 
M 159.57 153.1 162.98 156.51 
M 162.42 151.5 165.9 154.98 
M 165.36 149.99 168.54 153.17 
M 168.46 148.63 171.41 151.58 
M 171.57 147.29 174.06 149.78 
M 174.74 146 178.21 149.47 
M 177.9 144.72 181.28 148.09 
M 181.15 143.51 184.3 146.66 
M 184.41 142.32 186.95 144.85 
M 187.75 141.2 190.67 144.12 
M 191.13 140.13 194.08 143.08 
M 194.6 139.14 197.31 141.85 
M 197.99 138.08 201.16 141.25 
M 201.33 136.96 204.12 139.76 
M 204.71 135.89 208.62 139.8 
M 208.21 134.93 212.46 139.19 
M 198.69 167.95 197.76 168.78 
M 197.78 171.63 198.11 172.1 
M 164.78 183.95 163.69 182.88 163.22 182.98 162.96 183.38 
M 211.49 156.56 207.38 154 206.72 153.38 205.76 152.06 205.28 151.7 204.2 151.28 203.21 151.31 
M 195.97 187 198.22 188.29 199.61 188.68 199.64 189.4 199.09 190.14 
M 186.22 198.73 186.56 199.39 187.03 199.69 188.77 199.63 
M 188 195.86 186.17 196.54 185.98 196.37 
M 148.43 162.19 146.48 161.47 
M 203.86 152.94 201.2 153.6 200.32 154.6 
M 168.47 194.52 170.05 193.22 
M 149.8 190.07 149.35 189.04 147.36 186.87 146.78 185.91 146.83 185.37 147.54 183.82 
M 169.24 200.22 169.26 199.2 169.46 198.7 169.97 198.58 170.29 199.14 
M 201.67 165.41 199.7 166.25 197.72 168.34 
M 205.53 189.57 204.58 189.07 203.86 188.96 200.47 189.28 199.91 189.53 198.04 191.08 
M 197.46 178.25 198.14 178.4 198.41 178.66 198.13 179.55 197.82 179.8 
M 203.37 190.51 201.57 190.03 200.64 189.99 199.44 190.29 198.12 191.11 197.81 191.15 
M 156.55 164.91 156.04 165.28 155.33 165.4 153.87 164.69 151.9 164.01 150.91 164.22 149.55 164.85 
M 202.49 172.33 200.96 172.22 199.82 172.39 198.56 172.12 198.2 172.18 
M 146.02 182.99 147.02 181.64 147.46 179.93 147.73 179.43 150.08 177.05 
M 197.94 143.8 197.18 144.4 197.11 144.66 197.27 144.86 
M 171.61 198.67 171.41 200.91 
M 200.62 189.7 199.49 190.08 198.2 191.01 197.82 191.13 
M 202.57 178.97 200.48 179.53 197.58 181.52 
M 185.75 146.69 184.01 145.52 182.57 144.34 181.65 143.32 
M 170.45 193.91 170.32 193.17 
M 148.47 189.46 146.75 187.17 146.24 186.22 146.27 185.48 146.82 184.54 
M 210.47 138.16 208.14 136.04 207.4 135.14 
M 205.92 164.83 202.7 164.6 201.47 164.78 199.85 165.44 
M 211.71 184.07 210.53 183.7 208.81 183.43 
M 167.31 197.22 168.73 197.42 170.08 198.19 
M 193.43 152.11 193.02 152.56 191.67 153.33 190.07 153.91 
M 171.34 187.27 171.15 188.13 171 190.79 170.45 191.51 
M 142.43 180.33 143.06 179.83 
M 162.52 197.61 163.49 196.74 164.72 195.09 167.49 192.87 
M 209.91 166.94 209.32 164.66 209.61 162.91 209.53 161.75 208.6 160.2 
M 191.16 144.4 189.59 142.22 189.09 141.94 187.23 141.37 
M 175.75 150.47 175.77 150.55 
M 197.95 181.83 197.59 181.83 197.54 181.64 
M 182.23 195.02 183.28 193.12 183.54 191.2 182.51 188.43 
M 211.83 150.49 209.09 148.54 208.41 147.84 206.44 146.69 
M 170.35 188.94 170.62 190.07 170.6 190.96 170.19 191.63 169.92 191.77 169.81 191.68 
M 159.62 185.72 160.13 185.9 161.16 185.92 162.47 185.62 163.52 185.02 163.78 184.31 
M 145.23 186.34 145.76 184.95 146.39 184.06 146.84 183.66 147.79 183.21 
M 187.87 149.32 185.14 148.45 183.88 147.72 180.95 144.87 180.26 143.84 
M 156.43 170.48 159.56 172.45 
M 180.92 194.02 181.67 192.82 182.23 191.33 182.39 190.12 182.2 188.54 
M 193.24 185.6 196.15 185.7 197.63 186.12 
M 200.05 139.43 200.26 138.55 200.05 137.39 
M 209.13 187.88 209.44 186.18 209.26 185.4 208.65 184.97 207.24 184.36 204.37 183.98 202.99 183.44 202.1 183.29 
M 185.58 193.18 185.16 191.25 183.9 189.69 183.08 188.23 
M 200.38 150.52 199.67 151.33 199.15 152.46 198.15 153.67 198.12 154.27 
M 159.66 165.71 159.12 166.24 158.58 167.11 158.29 168.32 
M 201.34 139.64 200.82 138.95 200.16 137.35 
M 153.72 176.11 153.81 175.44 154.21 174.88 154.8 174.6 155.61 174.66 157.85 176.34 158.6 177.5 
M 193.49 150.29 191.82 151.88 190.81 152.29 188.29 151.85 186.84 151.02 
M 184.04 199.13 184.35 198.73 184.99 198.58 185.46 199.32 
M 168.61 200.04 168.7 199.65 
M 209.89 171.2 210.23 170.78 210.25 169.18 209.75 167.53 
M 146.99 185.71 147.62 183.63 148.01 183.17 
M 212.76 180.94 211.64 180.17 210.69 179.76 207.82 179.39 207.05 179.52 204.68 181.14 202.93 181.69 
M 204.82 176.45 203.66 176.6 201.65 178.31 200.12 179.25 
M 142.72 180.97 144.3 179.61 145.53 178.29 146.17 177.86 147.75 177.34 149.31 176.51 149.93 175.43 150.03 173.94 
M 210.23 182.97 207.71 182.47 206.88 182.49 203.96 183.29 200.25 183 
M 145.61 190.66 145.02 192.84 143.46 197.15 142.42 199.24 141.09 201.2 139.46 202.94 137.56 204.39 135.42 205.47 133.12 206.12 130.74 206.33 128.36 206.08 126.11 205.3 118.35 200.88 116.37 200.09 114.31 199.68 112.25 199.79 110.33 200.5 108.74 201.8 107.64 203.56 107.05 205.59 106.97 207.73 107.56 214.38 107.48 216.64 107.19 218.87 106.05 223.22 104.32 227.35 102.15 231.25 100.93 233.12 98.22 236.66 95.12 239.86 98.18 236.62 100.79 233.03 101.96 231.14 104.01 227.2 105.62 223.08 106.63 218.78 106.85 216.59 106.72 212.2 106.12 207.77 106.15 205.45 106.75 203.18 107.96 201.13 109.77 199.57 112 198.67 114.38 198.48 116.71 198.88 118.88 199.68 126.71 203.88 128.69 204.51 130.73 204.68 132.79 204.44 134.76 203.82 136.57 202.85 138.18 201.56 139.55 200.01 140.68 198.25 141.57 196.34 142.94 192.24 143.46 190.1 
M 137.12 202.42 134.82 203.15 132.43 203.4 130.06 203.21 127.76 202.63 125.59 201.66 123.65 200.28 122.04 198.59 117.95 193.28 116.5 191.67 113.17 188.86 111.37 187.7 109.4 186.88 107.31 186.43 105.15 186.36 98.51 186.98 96.24 186.96 93.99 186.59 91.84 185.83 89.85 184.74 88.04 183.39 86.4 181.85 83.53 178.42 79.74 172.91 76.46 167.09 79.83 172.85 83.75 178.25 86.69 181.57 88.33 183.04 90.13 184.3 92.07 185.31 94.14 185.98 96.29 186.27 98.47 186.24 105.12 185.45 107.41 185.46 109.69 185.9 111.86 186.73 113.83 187.92 117.38 190.77 118.95 192.43 123.14 197.61 124.64 199.11 126.36 200.26 128.28 201.06 130.32 201.51 132.39 201.63 134.42 201.36 136.33 200.71 138 199.6 139.43 198.14 140.64 196.44 141.65 194.57 143.26 190.54 
M 145.84 191.34 144.4 194.69 
M 143.45 197.18 140.12 208.11 139.25 210.25 138.12 212.3 136.75 214.17 135.18 215.88 133.41 217.38 131.45 218.63 129.36 219.63 127.17 220.34 124.92 220.83 122.62 221.01 118.11 220.76 111.47 220.05 106.98 219.84 
M 106.42 219.85 102.64 219.99 100.47 220.28 98.4 220.92 96.47 221.94 94.73 223.27 93.14 224.8 91.77 226.53 90.6 228.4 88.84 232.47 87.82 236.79 87.54 241.23 87.77 236.78 88.68 232.41 90.35 228.27 91.49 226.33 92.84 224.54 94.43 222.93 96.19 221.51 98.17 220.4 100.33 219.66 102.57 219.31 106.57 219.06 
M 107.15 219.03 111.53 219.14 118.2 219.68 122.58 219.81 124.72 219.59 126.81 219.07 128.84 218.36 130.74 217.39 132.51 216.2 134.1 214.78 135.5 213.17 136.72 211.42 137.69 209.54 138.45 207.53 139.82 202.56 
M 145.1 186.19 145.52 186.89 
M 141.12 182.32 140.9 183.04 141.41 182.66 
M 137.94 177.9 137.24 178.51 136.65 179.83 137.46 178.9 138.36 178.56 
M 134.99 173.47 133.34 174.74 132.41 176.61 133.57 175.12 135.4 174.32 
M 144.89 186.19 145.86 186.44 
M 140.68 184.3 141.05 183.75 141.71 183.31 141.49 183.86 141.56 184.61 
M 136.62 182.51 137.19 181.29 138.28 180.36 137.62 181.4 137.51 182.96 
M 132.47 181.01 133.32 178.84 134.85 177.41 133.75 178.95 133.47 181.13 
M 136.52 185.9 139.69 188.01 144.54 190.62 149.66 192.46 155.02 193.82 
M 137.77 186.75 137.57 186.02 
M 213.78 140.96 214.21 141.39 
M 212.26 133.5 218.44 139.68 
M 215.84 131.14 224.65 139.95 
M 219.46 128.82 225.26 134.62 
M 223.19 126.61 230.42 133.84 
M 226.95 124.44 235.56 133.05 
M 230.81 122.36 239.31 130.86 
M 234.73 120.34 242.71 128.32 
M 238.73 118.4 244.98 124.65 
M 242.69 116.43 248.56 122.3 
M 246.63 114.42 251.33 119.13 
M 250.79 112.65 257.72 119.57 
M 255.04 110.96 259.57 115.49 
M 259.63 109.61 268.1 118.08 
M 264.34 108.38 271.41 115.45 
M 269.2 107.3 278 116.1 
M 274.82 106.99 280.17 112.33 
M 280.6 106.83 286.1 112.33 
M 286.38 106.67 292.86 113.15 
M 292.29 106.63 300.31 114.66 
M 299.95 108.36 307.54 115.96 
M 310.16 112.63 315.07 117.54 
M 322.39 118.92 329.46 125.99 
M 334.41 125.01 343.31 133.91 
M 350.01 134.66 354.7 139.35 
M 367.3 146.01 374.8 153.52 
M 383.29 156.06 389.78 162.56 
M 249.75 112.21 250.14 112.99 
M 252.76 111.56 252.96 111.95 
M 251.12 101.6 251.46 102.26 
M 252.34 97.34 252.67 98.01 
M 253.33 99.33 254 100.66 
M 253.55 93.09 255.21 96.41 
M 260.52 107.03 261.6 109.19 
M 261.74 102.78 264.57 108.45 
M 264.94 102.51 267.54 107.7 
M 257.19 80.33 259.51 84.98 
M 268.15 102.24 270.67 107.29 
M 258.74 76.74 263.38 86.03 
M 262.61 77.8 265.26 83.11 
M 267.92 88.42 268.58 89.75 
M 269.25 91.07 272.56 97.71 
M 271.12 88.15 275.11 96.12 
M 278.43 102.76 280.27 106.45 
M 273.66 86.55 274.33 87.88 
M 274.99 89.21 277.65 94.52 
M 280.3 99.83 283.74 106.71 
M 276.21 84.95 276.87 86.28 
M 278.2 88.94 279.53 91.59 
M 282.18 96.9 286.76 106.07 
M 274.1 74.06 278.08 82.03 
M 285.39 96.63 286.71 99.29 
M 287.38 100.62 288.71 103.27 
M 276.64 72.46 281.29 81.76 
M 293.24 105.66 293.78 106.75 
M 280.51 73.52 282.5 77.5 
M 297.11 106.72 297.8 108.1 
M 292.35 90.51 295.67 97.15 
M 299.65 105.12 301.61 109.03 
M 288.35 75.83 289.68 78.49 
M 294.99 89.11 299.63 98.41 
M 303.62 106.37 304.28 107.7 
M 288.85 70.16 293.5 79.46 
M 297.48 87.42 302.79 98.05 
M 308.77 110 310.11 112.68 
M 294.52 74.82 296.26 78.29 
M 301.99 89.76 303.98 93.75 
M 305.31 96.4 308.63 103.04 
M 311.29 108.35 314.52 114.81 
M 308.13 95.37 311.79 102.67 
M 315.11 109.31 315.77 110.64 
M 316.49 112.07 316.87 112.85 
"/></svg>