<svg xmlns="http://www.w3.org/2000/svg" width="520" height="320"><rect x="0" y="0" width="520" height="320" fill="floralwhite"/><rect x="10" y="10" width="500" height="300" stroke="black" stroke-width="1" fill="none"/><path stroke="black" stroke-width="1" fill="none" stroke-linecap="round" stroke-linejoin="round" d="
M 138.09 127.58 159 117.02 169.44 112.23 179.88 107.87 200.75 99.85 211.19 96.61 221.63 94.24 232.06 92.44 263.38 91.57 273.81 93.12 284.25 96.2 294.69 100 315.56 108.47 326 112.49 336.44 117.15 357.31 128.02 367.75 133.28 399.9 148.87 
M 399.9 186.32 378.19 199.23 367.75 205.18 357.31 210.62 346.88 215.78 336.44 220.25 315.56 228.53 305.13 231.58 294.69 234.24 284.25 236.63 273.81 237.89 263.38 238.74 252.94 238.38 242.5 238.4 232.06 238.67 221.63 236.97 211.19 234.19 200.75 230.95 190.32 227.37 179.88 224.27 169.44 220.58 159 215.88 148.6 210.43 
M 399.9 159.62 392.72 158.7 376.8 157.3 370.38 156.29 363.88 154.86 350.91 151.31 333.71 147.26 323.63 145.65 313.18 145.14 306.44 144.24 300.13 142.84 290.95 140.3 283.03 138.78 
M 279.97 138.19 272.57 136.85 263.57 136.68 246.23 138.31 
M 243.05 138.67 234.83 139.87 229.83 140.39 
M 223.32 140.57 212.52 139.78 204.2 140.07 
M 197.5 140.91 187.52 142.39 
M 180.66 143.5 177.14 144.18 
M 170.23 145.58 166.96 146.17 
M 163.82 146.66 160.74 147.08 
M 157.68 147.47 151.45 148.31 
M 150.4 153.56 153.97 159.88 
M 189.71 210.69 194.53 216.58 
M 138.94 127.16 143.33 133.71 148.5 142.1 
M 150.65 145.78 153.96 151.58 157.61 158.52 
M 195.2 211.37 197.23 213.94 
M 199.64 216.75 202.12 219.36 
M 142.91 125.17 146.3 130.15 150.46 136.84 156.48 147.82 161.28 157.15 
M 201.09 212.91 202.17 214.16 
M 209.68 221.8 212.04 224.04 
M 146.81 123.22 149.26 126.76 153.34 133.41 165.1 155.72 
M 207.11 214.32 212.23 219.52 
M 221.5 228.48 222.94 229.77 
M 150.61 121.3 154.12 126.63 156.1 129.98 169.12 154.22 
M 222.2 224.54 224.44 226.74 
M 154.25 119.44 158.75 126.55 166.49 140.84 173.32 152.65 
M 211.55 207.92 217.43 214.59 
M 222.6 219.98 225.03 222.47 
M 227.33 224.79 229.53 226.91 
M 157.76 117.65 161.31 123.19 169.21 137.12 177.67 151.03 
M 215.35 206.18 217.53 208.89 
M 220.13 211.92 222.75 214.82 
M 227.79 220.2 230.14 222.63 
M 161.23 116 165.77 123.04 171.92 133.32 178.84 143.94 182.68 150.56 
M 219.03 204.18 222.91 209.08 
M 225.47 212.11 228 214.99 
M 232.84 220.22 237.03 224.45 
M 164.67 114.42 174.58 129.58 181.82 140.19 184.1 143.84 187.6 150.26 
M 223.11 202.61 225.71 206.07 
M 228.19 209.22 230.64 212.2 
M 233.06 214.98 237.54 219.79 
M 244.82 226.61 246.64 227.88 
M 168.07 112.86 184.57 136.52 189.17 143.94 192.38 149.82 
M 227.67 201.79 230.87 206.14 
M 235.58 211.97 239.97 216.82 
M 247.38 224.18 251.21 226.99 
M 253.24 228.23 255.29 229.38 
M 171.47 111.38 177.56 119.52 189.58 136.63 194.21 143.97 197.12 149.17 
M 232.59 201.6 236.97 207.35 244.43 215.82 
M 246.33 217.9 248.19 219.84 
M 253.96 224.83 255.98 226.24 
M 174.8 109.99 180.21 116.6 182.38 119.49 192.08 133.12 196.97 140.31 199.28 143.92 201.82 148.31 
M 238.28 202.22 240.59 205.1 
M 242.8 207.72 244.93 210.18 
M 246.98 212.55 252.85 219 
M 178.03 108.64 182.81 113.98 187.26 119.57 199.62 136.83 204.41 143.9 206.44 147.25 
M 238.17 194.95 240.65 198.33 
M 249.57 209.19 251.63 211.65 
M 261.7 221.94 263.65 223.56 
M 181.23 107.36 187.64 114.06 189.96 116.79 207.15 140.44 210.71 145.84 
M 231.33 176.35 234.17 181.28 239.22 189.13 244.22 196.05 247.71 200.38 
M 256.48 210.89 258.58 213.28 
M 262.62 217.64 264.55 219.58 
M 269.97 224.6 271.65 226.14 
M 184.51 106.13 185.07 106.67 
M 186.78 108.31 192.65 114.34 197.55 120.39 209.77 137.28 214.86 144.87 
M 234.2 172.58 239.1 181.29 241.56 185.16 246.54 192.22 250.1 196.72 
M 252.42 199.55 265.47 214.91 
M 272.52 222.66 274.17 224.42 
M 275.84 226.1 277.6 227.67 
M 187.86 104.87 195.29 112.11 200.33 117.77 202.79 120.99 212.3 134.41 219.21 144.83 222.14 148.82 
M 235.04 165.47 240.66 175.62 
M 242.81 179.37 246.36 184.95 251.23 191.61 264.26 207 
M 266.32 209.57 268.23 212.01 
M 271.71 216.51 273.35 218.63 
M 278.29 224.55 280.07 226.29 
M 191.21 103.61 200.4 112.59 205.49 118.35 207.88 121.55 214.86 131.73 222.71 143.56 
M 225.29 146.89 228.7 150.79 
M 228.89 151 231.1 153.48 
M 234 156.96 235.65 159.11 
M 236.89 160.94 239.13 164.48 
M 243.37 172.04 246.42 177.48 248.62 181.04 252.25 186.24 
M 254.74 189.49 259.8 195.41 
M 264.68 200.94 266.91 203.68 
M 279 220.83 280.72 222.9 
M 282.56 224.81 284.55 226.54 
M 194.53 102.3 204.22 111.77 
M 206.76 114.48 210.51 118.9 212.9 122.2 220.79 134.12 
M 222.9 137.38 226.26 142.19 228.84 145.37 234.61 151.78 237.52 155.28 240.25 159.03 242.74 162.91 248.02 172.12 
M 250 175.58 253.24 180.73 257 185.89 
M 264.7 194.84 267.12 197.57 
M 271.41 203.04 274.98 208.48 
M 197.9 100.98 208 110.85 213.13 116.41 215.6 119.59 217.99 123 226.71 136.1 228.89 139.12 231.27 142.13 238.1 150.03 
M 240.94 153.59 244.96 159.33 252.53 172.01 
M 254.54 175.37 257.96 180.54 261.81 185.6 
M 269.33 194.25 272.67 198.3 273.64 199.71 
M 275.52 202.56 277.25 205.43 
M 280.5 211.15 282.16 213.92 
M 285.76 219.02 287.75 221.24 
M 201.36 99.66 213.28 111.14 215.86 113.92 218.35 116.99 220.74 120.29 231.72 136.01 235.12 140.31 
M 237.61 143.27 241.6 148.06 244.35 151.69 247.02 155.56 251.87 163.21 255.85 170 259.04 175.1 
M 261.44 178.59 265.23 183.71 268.95 188.2 
M 277.61 199.36 279.39 202.33 
M 284.59 211.24 287.4 215.42 290.42 219.03 
M 205.08 98.51 216.22 108.65 218.77 111.31 221.23 114.25 234.6 132.85 237.82 136.98 
M 240.12 139.8 246.38 147.84 250.27 153.59 
M 254.94 161.04 261.1 171.18 
M 263.48 174.72 268.48 181.61 
M 270.91 184.72 275.62 190.49 
M 277.73 193.33 281.48 199.22 
M 285.17 205.33 289.05 211.3 
M 293.09 216.55 295.15 218.78 
M 208.92 97.32 219.34 106.07 221.85 108.58 225.36 112.91 
M 227.59 116.03 233.1 123.85 238.46 130.99 
M 240.57 133.69 247.32 142.45 
M 249.75 145.9 252.24 149.58 
M 256.87 156.93 260.86 163.67 
M 262.98 167.05 265.34 170.61 
M 270.41 177.75 275.37 184.25 
M 277.73 187.27 281.84 193.17 
M 285.56 199.2 287.56 202.29 
M 213.1 96.18 220.02 101.36 222.55 103.5 224.97 105.86 227.26 108.5 230.47 112.92 
M 232.56 115.99 235.74 120.54 246.43 134.52 250.81 140.52 255.61 147.4 258.93 152.77 
M 262.82 159.58 268.4 168.24 274.94 177.32 
M 277.54 180.71 282.24 187.06 
M 284.25 190.1 288 196.17 
M 290.02 199.25 294.34 205.48 
M 296.47 208.45 298.55 211.19 
M 217.6 95.15 223.16 99.03 225.68 101.07 228.03 103.3 230.21 105.78 232.26 108.5 238.32 117.25 246.96 128.51 256.79 141.81 
M 259.11 145.21 263.2 152.16 
M 265.06 155.58 268.07 160.68 271.59 166.06 
M 276.89 173.47 279.65 177.05 
M 282.28 180.48 286.81 186.98 
M 288.75 190.08 290.64 193.17 
M 294.77 199.42 297.01 202.57 
M 299.23 205.62 301.36 208.48 
M 309.68 218.16 312.04 220.25 
M 222.06 94.16 226.09 96.86 228.58 98.82 230.9 100.97 232.99 103.3 240.78 114.11 247.4 122.34 253.66 130.85 260.46 139.71 262.75 143.05 264.82 146.48 271.44 158.69 
M 273.63 162.27 277.37 167.81 284.43 176.9 
M 287.04 180.37 291.4 186.99 
M 293.33 190.17 295.3 193.32 
M 297.42 196.48 299.68 199.64 
M 304.15 205.74 306.24 208.51 
M 317.52 220.02 318.97 221.14 
M 226.55 93.39 231.24 96.77 233.52 98.82 235.59 101.05 241.14 108.55 244.23 112.44 
M 246.45 115.03 249.86 119.02 253.04 123.3 
M 255.08 126.19 259.36 131.83 
M 261.68 134.69 265.19 139.28 267.36 142.66 270.21 147.87 
M 273.88 155.05 276.95 160.49 278.14 162.31 
M 280.68 165.97 290.54 178.6 293.89 183.78 
M 295.91 187.11 297.93 190.34 
M 313.25 211 314.34 212.21 317.93 215.56 
M 230.65 92.69 233.74 94.89 235.97 96.81 238.02 98.91 245.53 108.32 252.22 115.8 254.37 118.55 260.5 127.25 263.92 131.44 
M 268.59 137.36 269.71 138.95 272.76 144.14 
M 276.48 151.4 278.39 155.11 
M 280.47 158.78 284.05 164.17 289.79 171.39 293.85 176.84 
M 300.4 187.27 304.85 193.67 
M 307.17 196.78 309.47 199.86 
M 313.85 205.67 316.03 208.29 
M 318.32 210.73 323.24 215.21 
M 235.03 92.33 238.37 94.88 240.41 96.82 248.03 105.53 254.57 112.62 256.7 115.29 263.83 125.49 
M 266.08 128.31 271.92 135.49 274.14 138.74 276.23 142.23 281.06 151.45 
M 283.07 155.19 285.26 158.81 
M 287.7 162.35 294.7 171.44 297.27 175.13 300.62 180.55 
M 305.01 187.38 309.66 193.69 
M 314.23 199.75 317.52 204.11 320.92 207.98 
M 239.67 92.16 242.86 94.75 244.82 96.65 254.9 107.06 259.1 112.03 264.06 119.28 
M 266.11 122.26 275.21 133.73 
M 277.47 136.96 279.66 140.41 
M 281.77 144 286.89 153.32 290.36 158.81 
M 292.96 162.39 298.36 169.7 
M 300.78 173.4 303.01 177.05 
M 305.2 180.64 307.46 184.09 
M 309.78 187.35 314.41 193.45 
M 316.68 196.48 318.91 199.49 
M 244.52 92.03 247.42 94.38 254.48 100.93 
M 256.53 102.96 259.62 106.27 261.64 108.77 269.55 120.4 276.24 128.84 280.89 135.14 285.46 142.12 290.89 151.47 
M 295.8 158.92 302.27 167.98 309.97 180.54 
M 312.22 183.79 316.78 189.9 
M 321.32 196.09 323.54 199.12 
M 249.82 91.96 256.24 97.21 260.3 101.04 262.31 103.2 266.19 108.27 272.04 116.92 277.39 123.95 
M 279.68 126.89 283.21 131.62 288.01 138.5 290.31 142.1 294.8 149.7 298.63 155.4 
M 303.82 162.64 307.27 168.03 310.41 173.37 
M 314.68 179.94 316.89 183.01 
M 323.68 192.44 325.93 195.63 
M 328.15 198.69 330.37 201.56 
M 337.5 209.46 339.94 212 
M 255.39 91.84 261.04 96.37 265.02 100.33 266.93 102.64 274.63 113.5 286.81 129.79 
M 291.58 136.77 293.87 140.4 
M 296.16 144.15 299.83 149.89 303.88 155.52 
M 306.47 159.13 310.98 166.14 
M 313.05 169.56 315.11 172.85 
M 317.19 175.99 319.32 179.03 
M 323.75 185.3 326.02 188.63 
M 328.3 191.98 330.58 195.22 
M 260.93 91.65 263.76 93.88 265.75 95.71 269.58 99.96 285.69 121.44 293.88 133.35 
M 296.19 136.93 302.09 146.22 306.14 151.85 
M 308.81 155.51 311.27 159.04 
M 313.52 162.44 315.62 165.78 
M 321.84 175.17 333.02 191.67 
M 266.88 92.09 270.31 95.38 274.22 99.83 285.07 113.81 
M 287.17 116.67 293.86 126.57 
M 296.15 130.05 304.29 142.55 308.26 148.08 
M 313.56 155.29 324.42 171.56 
M 326.55 174.69 328.7 177.93 
M 330.91 181.28 333.19 184.73 
M 335.52 188.19 342.47 198.08 
M 272.6 92.94 276.93 97.5 282.94 104.7 288.82 112.27 291.88 116.75 
M 294.01 120.04 303.08 133.7 
M 305.46 137.14 310.52 144.24 
M 313.23 147.84 315.86 151.4 
M 320.54 158.34 329.22 171.38 
M 335.81 181.39 338.1 184.86 
M 340.42 188.31 342.74 191.71 
M 345.05 195.07 349.62 201.67 
M 278.87 94.61 283.69 99.87 289.59 106.99 293.42 112.35 301.92 125.42 306.65 131.96 315.73 143.92 
M 318.35 147.47 321.97 152.8 327.53 161.52 
M 334.17 171.44 336.37 174.82 
M 285.37 96.61 290.28 102.09 294.05 106.89 304.36 122.21 309.14 128.55 313.07 133.36 
M 315.75 136.65 319.78 141.79 322.33 145.34 325.79 150.76 
M 328 154.39 332.52 161.44 
M 334.78 164.84 339.22 171.68 
M 343.6 178.69 347.98 185.64 
M 354.68 195.98 356.88 199.32 
M 292.24 99.11 296.49 104.23 301.47 111.13 
M 303.6 114.21 309.27 122.04 313.06 126.73 
M 318.45 133.04 321.17 136.33 
M 323.81 139.77 327.48 145.16 333.06 154.32 
M 335.32 157.88 342.11 168.43 
M 348.58 179.16 350.71 182.65 
M 357.24 193.04 359.41 196.42 
M 298.99 101.77 306.17 111.03 
M 308.44 114.04 314.47 121.79 322.47 131.17 327.75 137.87 332.6 145.18 338.25 154.29 
M 340.5 157.86 347.21 168.78 
M 349.35 172.48 351.45 176.12 
M 355.64 183.17 357.76 186.64 
M 362.01 193.49 364.15 196.84 
M 306.2 104.73 327.67 131.08 334.2 139.8 
M 336.69 143.5 339.05 147.18 
M 341.31 150.81 347.94 161.72 
M 350.12 165.49 352.25 169.27 
M 354.34 173.01 358.5 180.22 
M 360.55 183.7 364.68 190.55 
M 314.08 107.87 320.1 115.06 334.19 132.87 
M 339.59 140.09 344.43 147.45 
M 348.76 154.7 350.89 158.41 
M 353.03 162.21 355.13 166.05 
M 361.37 177.23 365.42 184.2 
M 322.18 111.02 325.33 114.93 332.63 124.61 340.97 134.88 345.05 140.46 
M 347.51 144.17 350.87 149.64 352.91 153.32 362.1 170.49 
M 329.9 114.23 337.68 124.55 346.42 135.24 350.47 140.86 
M 352.83 144.59 354.96 148.31 
M 356.96 152.04 360.87 159.63 
M 362.87 163.49 364.9 167.33 
M 374.92 185.25 376.9 188.65 
M 337.61 117.75 342.83 124.57 351.85 135.62 354.53 139.42 357.9 145.13 
M 359.93 148.91 365.78 160.28 
M 367.76 164.11 369.78 167.89 
M 371.8 171.59 377.68 182.41 
M 381.67 189.11 383.51 191.8 
M 346.09 122.15 354.27 132.26 357.09 136.1 359.59 139.97 362.82 145.74 
M 368.78 157.05 372.62 164.57 
M 374.55 168.28 378.49 175.72 
M 355.02 126.82 359.57 132.76 362.21 136.63 364.59 140.53 369.87 150.08 
M 371.85 153.79 378.26 166.6 383.22 176.04 
M 363.3 131.04 367.39 137.12 373 146.73 
M 376.86 154.08 381.1 162.98 383.95 168.53 
M 371.07 134.88 375.12 141.33 377.31 145.14 381.05 152.44 383.38 157.67 
M 386.85 164.78 388.87 168.54 
M 390.99 172.38 395.15 179.67 
M 397.15 182.96 398.35 184.86 
M 378.82 138.63 382.7 145.3 384.53 148.96 389.05 159.38 389.95 161.16 
M 391.87 164.83 393.93 168.65 
M 386.45 142.38 388.02 145.36 389.68 148.98 393.32 157.71 
M 395.06 161.34 399.9 170.46 
M 393.28 145.69 397.59 156.07 399.9 160.95 
M 399.44 148.65 399.9 149.75 
M 139.17 127.04 138.46 128.06 
M 146.13 123.56 140.82 130.76 
M 154.14 119.5 145.79 130.18 142.68 134.4 
M 161.54 115.85 158.1 120.18 144.44 138.37 
M 168.92 112.47 164.86 117.03 162.56 120.02 153.16 133.41 146.39 142.33 
M 176.18 109.41 171.67 114.14 169.31 116.87 167 119.85 157.87 133.5 150.3 143.88 148.42 146.82 
M 183.57 106.48 176.2 114.03 171.52 119.68 166.99 126.35 160.09 137.16 155.16 144.06 152.79 147.7 150.14 152.43 
M 192.02 103.29 187.55 107.24 183.09 111.57 178.54 116.62 176.19 119.55 171.59 126.18 164.67 137.24 161.07 142.57 
M 158.66 146.08 155.22 151.58 151.44 158.68 
M 202.1 99.43 197.02 103.44 190.17 109.49 185.62 114.01 183.33 116.6 178.65 122.65 168.12 138.98 
M 165.69 142.63 163.26 146.21 
M 158.57 153.49 155.3 159.38 
M 211.43 96.56 207.14 99.66 202.06 103.69 197.4 107.75 191.71 113.06 
M 189.37 115.45 185.84 119.53 183.5 122.64 174.33 136.87 165.45 149.83 
M 163.02 153.46 160.53 157.43 
M 218.91 94.86 212.57 99.61 207.19 103.91 202.44 108.12 195.66 114.6 190.83 119.76 188.42 122.76 186.19 125.98 182.96 131.15 
M 175.67 142.25 173 146.02 
M 170.34 149.77 167.75 153.46 
M 225.63 93.55 212.61 103.94 207.52 108.46 204.17 111.75 
M 201.95 113.99 196.03 120.22 192.37 124.66 
M 190.11 127.85 182.28 140.18 175.51 149.64 
M 232.09 92.44 228.9 94.89 218.35 103.71 212.85 108.64 209.26 112.15 
M 207.04 114.49 202.49 119.49 
M 197.58 125.13 195.23 128.18 
M 190.8 134.87 186.14 142.03 
M 237.07 92.26 233.83 94.89 224.08 103.43 215.79 111.23 208.74 118.69 200.41 128.62 
M 198.09 131.72 188.63 145.83 
M 185.98 149.61 185.42 150.4 
M 241.73 92.09 236.35 96.81 224.04 108.54 213.8 119.34 207.89 126.22 
M 205.55 129.09 202.05 133.58 199.74 136.84 191.05 149.72 
M 246.03 92.01 240.78 96.81 231.84 105.79 214.09 125.49 207.14 133.91 204.82 137 198.75 145.82 
M 250.15 91.96 245.19 96.62 237.51 104.67 
M 235.26 107.2 221.61 123.51 214.37 131.65 212.12 134.39 207.6 140.45 202.16 148.24 
M 254.23 91.88 247.41 98.58 240.69 105.96 236.34 111.38 226.68 123.93 224.24 126.89 216.92 135.08 214.73 137.84 208.4 146.73 
M 258.36 91.74 252.13 97.93 245 105.82 240.76 111.27 229.27 127.08 220.52 137.12 
M 216.26 142.87 214.91 144.86 
M 262.5 91.6 256.94 97.09 249.61 105.33 245.21 110.99 234.21 126.88 231.73 130.06 227.82 134.61 
M 222.99 140.46 219.27 145.91 
M 266.14 91.98 261.74 96.26 259.28 98.89 254.37 104.57 252.05 107.52 247.73 113.47 239.04 126.43 236.63 129.7 229.02 139.12 225.67 143.74 
M 223.72 146.84 222.41 149 
M 269.76 92.52 266.42 95.64 261.6 100.82 259.16 103.71 255.65 108.28 
M 253.45 111.36 247.13 120.85 
M 244.91 124.18 241.45 129.16 237.77 134.01 
M 235.29 137.24 231.72 142.1 229.6 145.36 226.65 150.52 
M 273.55 93.08 270.97 95.36 266.27 100.19 263.87 102.98 259.15 109.12 248.49 125.32 236.76 141.71 232.74 148.49 229.91 153.93 
M 277.08 94.08 273.22 97.51 270.82 99.9 266.09 105.41 261.45 111.74 254.11 123.2 
M 251.96 126.48 243.97 137.81 241.74 141.2 237.74 148.27 232.94 157.75 
M 194.19 216.58 191.7 219.14 
M 280.63 95.13 277.92 97.51 273.05 102.34 268.26 108.11 263.69 114.59 255.37 127.68 247.62 139.09 
M 245.54 142.54 242.64 148.01 240.02 153.53 
M 238.27 157.09 236.95 159.61 
M 202.24 213.27 201.53 214.15 
M 284.18 96.18 277.79 102.27 272.86 107.8 268.16 114.23 262.77 122.5 
M 260.77 125.72 256.7 132.08 
M 254.52 135.36 250.22 142.28 
M 248.29 145.94 246.51 149.74 
M 244.79 153.58 243.05 157.32 
M 241.19 160.94 240.21 162.72 236.8 168.06 
M 232.77 173.93 231.75 175.45 
M 202.11 219.37 199.77 221.74 
M 287.48 97.38 280.07 104.77 277.56 107.5 273.91 112.12 
M 271.58 115.44 266.15 123.82 256.04 140.11 252.94 145.73 
M 247.7 157.5 244.91 163.06 243.85 164.82 
M 241.6 168.34 239.18 171.88 
M 234.26 179.34 231.98 183.27 
M 220.55 203.49 213.82 211.69 
M 209.38 216.99 207.21 219.44 
M 204.95 221.77 202.79 223.79 
M 290.69 98.55 282.32 107.25 279.81 110.06 277.36 113.14 275.01 116.47 270.66 123.38 260.88 139.67 257.65 145.36 
M 255.66 149.33 251.35 159.47 249.49 163.24 247.42 166.82 240.33 177.48 238.02 181.29 234.35 188.22 
M 227.04 201.86 224.05 206.03 
M 221.58 209.04 219.14 211.87 
M 216.79 214.56 212.26 219.52 
M 293.79 99.68 282.07 112.61 279.66 115.77 276.3 120.94 
M 274.2 124.4 266.59 137.51 
M 264.53 141.12 261.23 146.85 258.17 152.91 
M 256.39 157.03 253.84 163.07 251.91 166.82 250.82 168.6 
M 248.57 172.14 243.98 179.38 
M 239.78 187.16 238.06 190.54 
M 235.73 195.18 233.68 199.11 
M 229.28 206.14 226.89 209.2 
M 296.78 100.86 284.41 115.27 282.07 118.52 279.86 121.98 263.49 150.29 261.36 154.3 256.07 166.41 254.12 170.18 250.83 175.56 
M 246.6 183.04 244.61 186.94 
M 240.6 194.75 238.57 198.67 
M 232.01 209.24 229.7 212.19 
M 217.73 224.28 215.25 226.21 
M 299.82 102.12 289.19 115.13 286.86 118.19 282.44 124.95 279.39 130.16 
M 273.5 140.53 266.75 151.76 
M 264.54 155.66 261.66 161.63 259.15 167.69 
M 257.33 171.58 255.33 175.31 
M 249.32 186.55 245.37 194.13 
M 241.26 201.72 239.12 205.4 
M 232.45 215 230.17 217.7 
M 220.31 226.5 218.02 228.07 
M 303.04 103.44 293.82 115.31 289.4 121.4 285.11 128.13 275.78 144.05 
M 273.51 147.73 268.88 155.21 
M 264.87 162.93 260.73 173.08 259.81 174.99 
M 257.9 178.74 252.06 189.79 
M 245.96 200.75 241.64 207.98 
M 239.45 211.39 236.2 216.13 232.85 220.22 
M 230.47 222.63 227.99 224.81 
M 306.48 104.84 296.19 118.6 291.96 124.79 289.9 128.06 281.44 142.17 272.19 156.88 270.12 160.54 268.27 164.37 265.84 170.52 
M 264.26 174.61 261.66 180.4 258.79 185.8 
M 256.84 189.32 248.5 203.39 
M 246.31 206.92 239.72 216.87 
M 310.06 106.27 305.28 112.6 296.56 125.11 286.2 142.11 276.65 156.91 274.55 160.45 272.69 164.11 271.01 168.01 268.67 174.13 
M 265.39 181.93 262.65 187.25 259.71 192.3 
M 253.22 202.56 250.98 205.98 
M 248.71 209.36 244.18 215.88 
M 237.61 224.37 235.3 226.71 
M 313.78 107.76 307.83 115.65 301.16 125.4 297.13 131.79 291.03 142.11 280.17 158.78 
M 274.71 169.78 270.69 179.58 269.01 183.32 267.3 186.83 264.56 191.82 
M 258.15 201.82 253.43 208.53 
M 246.36 217.9 242.98 222.18 239.68 226 
M 317.61 109.26 310.5 118.74 303.77 128.7 293.55 145.89 283.78 160.61 281.79 164.16 279.32 169.68 
M 277.74 173.46 275.24 179.14 270.03 189.63 268.3 192.9 265.34 197.81 
M 255.87 210.98 253.38 214.04 
M 321.54 110.77 310.91 125.21 306.47 131.97 301.32 140.69 
M 299.33 144.28 296.2 149.75 288.77 160.57 286.62 164.14 284.07 169.63 
M 282.49 173.32 279.01 180.63 
M 277.11 184.12 273.51 190.7 
M 271.78 193.91 269.96 197.18 
M 267.94 200.5 265.73 203.84 
M 263.35 207.12 259.57 211.84 255.71 216.21 
M 253.16 218.95 248.23 224 
M 325.5 112.3 316.18 124.94 311.53 131.75 307.09 138.87 302.16 148.08 
M 300.15 151.76 296.69 157.17 291.78 164.14 290.78 165.94 
M 288.95 169.57 286.5 175.07 283.78 180.43 
M 279.73 187.16 277.8 190.33 
M 275.98 193.45 272.35 199.87 
M 270.33 203.2 269.27 204.86 265.73 209.64 
M 263.23 212.66 259.34 216.92 255.45 220.77 
M 250.42 225.42 248.06 227.58 
M 329.33 113.98 319.2 128.04 312.2 138.64 309.93 142.41 304.26 153.7 302.12 157.32 297.2 164.26 294.94 167.8 293 171.41 289.51 178.6 287.53 182.09 284.26 187.01 
M 282.1 190.14 278.21 196.29 
M 276.4 199.44 273.55 204.27 271.44 207.46 267.96 212.04 
M 262.94 217.59 260.35 220.1 
M 333.06 115.64 322.27 131.17 315.19 142.1 312.97 145.97 307.23 157.36 305.03 160.9 300.16 167.93 297.93 171.51 292.15 182.08 288.83 186.96 
M 286.5 190.08 284.25 193.13 
M 282.17 196.17 276.52 205.47 
M 274.48 208.51 272.32 211.46 
M 255.06 227.96 252.69 229.77 
M 336.75 117.31 327.48 131.08 318.2 145.61 315.98 149.53 312 157.23 308.8 162.65 
M 306.47 166.23 300.61 175.21 296.59 182.18 294.5 185.46 286.35 196.16 
M 284.26 199.2 282.31 202.27 
M 276.35 211.16 274.21 213.89 
M 271.98 216.47 267.3 221.26 
M 262.33 225.45 259.83 227.34 
M 340.38 119.19 331.53 132.79 
M 329.31 136.15 321.03 149.15 312.41 164.28 305.32 175.29 299.96 183.96 
M 297.84 187.17 293.23 193.24 
M 290.85 196.22 287.5 200.75 284.39 205.32 
M 282.33 208.29 280.26 211.13 
M 344.17 121.16 337.88 131.29 334.55 136.29 
M 332.19 139.74 323.63 152.7 312.46 171.42 302.37 187.32 
M 297.94 193.43 292.11 200.85 286.53 208.36 
M 268.98 226.34 266.6 228.09 
M 348.29 123.3 341.1 134.89 331.14 148.85 326.13 156.25 313.68 176.6 
M 309.25 184.04 307.08 187.4 
M 304.92 190.56 301.61 195.12 291.1 208.42 
M 288.77 211.31 284.17 216.57 
M 281.95 218.84 279.77 220.87 
M 352.55 125.52 346.56 135.25 344.24 138.63 336.36 148.9 329.91 157.97 
M 327.52 161.52 322.88 168.44 
M 320.6 172.03 311.85 187.17 
M 309.72 190.54 306.47 195.24 303.08 199.77 
M 300.73 202.73 295.88 208.47 
M 293.46 211.3 288.69 216.67 
M 277.41 226.17 275.21 227.63 
M 356.88 127.8 349.7 139.03 347.15 142.39 338.92 152.53 336.25 156.09 324.14 173.22 321.87 176.85 314.45 190.16 
M 312.34 193.56 307.96 199.86 
M 303.24 205.73 298.27 211.23 
M 295.81 213.93 291.01 219.02 
M 361.2 129.98 354.98 139.47 352.51 142.8 341.46 156.1 327.74 174.66 
M 325.44 178.11 323.25 181.81 
M 321.15 185.68 317.03 193.17 
M 310.49 202.87 308.12 205.78 
M 305.64 208.51 300.62 213.72 
M 298.16 216.27 295.76 218.75 
M 365.46 132.12 357.6 143.32 355.03 146.56 346.7 156.29 331.39 176.25 329.03 179.59 325.77 185.06 
M 323.71 188.88 320.64 194.5 317.45 199.58 
M 315.25 202.74 311.74 207.14 307.97 211.11 
M 369.65 134.2 365.03 140.57 360 147.16 350.56 158.38 
M 347.93 161.72 345.33 165.09 
M 342.74 168.45 335.13 178.04 
M 332.74 181.31 329.39 186.58 323.17 197.57 321.02 200.91 317.72 205.49 
M 312.91 211.01 310.36 213.55 
M 307.81 215.94 305.36 218.2 
M 302.97 220.41 300.64 222.55 
M 373.84 136.22 364.91 147.78 356.93 157.31 347.84 168.83 
M 345.25 172.1 338.89 179.92 336.48 183.1 334.19 186.47 326.7 198.82 
M 324.58 202.09 322.46 205.15 
M 320.29 208.03 317.97 210.75 
M 315.49 213.35 310.33 218.15 
M 378 138.23 372.76 144.9 361.86 157.97 355.42 166.09 
M 352.86 169.34 342.67 181.88 
M 340.27 185 335.73 191.61 
M 333.54 195.03 329.21 201.66 
M 325.1 207.64 321.9 211.73 318.25 215.54 
M 382.07 140.23 378.12 145.17 365.46 160.23 
M 362.86 163.49 360.32 166.73 
M 357.8 169.94 345.22 185.38 
M 342.88 188.47 340.6 191.64 
M 336.12 198.11 331.81 204.34 
M 327.82 210.01 324.71 213.94 323.55 215.19 
M 386.04 142.18 383.51 145.31 374.49 155.75 360.2 173.72 
M 357.66 176.81 351.32 184.34 347.78 188.87 
M 345.49 191.91 343.22 194.96 
M 340.96 198.04 331.54 211.03 328.54 214.87 
M 389.85 144.04 379.39 155.91 376.56 159.37 367.57 171.15 
M 365.09 174.3 362.59 177.38 
M 360.04 180.39 355.02 186.36 
M 352.65 189.36 350.35 192.36 
M 348.09 195.33 345.82 198.27 
M 343.57 201.17 341.37 204.01 
M 393.52 145.81 390.77 148.99 384.27 155.93 381.3 159.42 369.94 174.82 
M 367.46 177.91 357.48 189.85 
M 355.16 192.84 350.65 198.73 
M 348.42 201.55 346.21 204.25 
M 396.98 147.47 395.75 148.97 386.1 159.39 383.3 162.96 375.88 173.71 373.47 176.92 363.49 188.84 353.21 202.02 
M 399.9 149.69 397.48 152.51 391.07 159.39 388.16 162.93 378.15 177.45 375.71 180.55 367.08 190.76 
M 362.38 196.69 360.13 199.61 
M 399.9 155.45 393.24 163.03 390.48 166.64 382.88 177.85 380.4 181.11 374.23 188.35 
M 371.84 191.23 369.47 194.15 
M 399.9 161.63 395.61 166.86 386.49 179.73 
M 381.39 185.98 376.6 191.75 
M 399.9 168.3 388.86 183.09 
M 383.78 189.24 381.41 192.18 
M 399.9 174.96 395.09 181.39 387.36 191.08 
M 178.4 108.13 179.88 107.86 
M 190.07 103.72 184.6 64.42 185.42 64.28 192.96 102.92 
M 201.74 99.26 196.97 48.08 197.8 47.98 204.67 98.64 
M 213.73 95.73 213.48 40.3 214.31 40.28 216.71 95.36 
M 225.96 93.12 232.09 30 232.92 30.06 228.96 92.98 
M 238.4 91.89 250.57 30.91 251.39 31.06 241.4 92.1 
M 250.88 91.59 265.48 33.07 266.29 33.26 253.88 91.89 
M 263.4 91.29 283.45 37.45 284.24 37.73 266.31 92.01 
M 275.76 93.35 308.37 37.16 309.09 37.57 278.53 94.51 
M 287.71 97.05 322.74 48.93 323.42 49.41 290.38 98.44 
M 299.37 101.51 327.32 67.02 327.98 67.53 301.98 103.01 
M 310.94 106.17 334.36 78.17 335.01 78.69 313.56 107.67 
M 322.58 110.67 339.64 91.69 340.28 92.22 325.19 112.18 
M 335.31 116.16 336.44 117.15 
M 180.42 107.66 182.51 99.14 183.41 94.8 184.66 86.07 185.15 77.24 185.15 68.35 
M 186.18 68.18 189.54 65.49 192.5 62.5 194.84 59.05 195.8 57.17 197.45 53.19 
M 198.49 53.07 202.29 52.43 205.87 51.33 209.12 49.55 210.63 48.41 213.51 45.84 
M 214.55 45.82 218.84 44.63 222.88 43.02 226.54 40.73 228.24 39.35 231.48 36.31 
M 232.52 36.39 236.22 37.6 239.94 38.3 243.69 38.24 245.57 37.94 249.35 37.01 
M 250.38 37.19 253.28 38.64 254.75 39.2 257.75 39.78 260.86 39.6 264.02 38.93 
M 265.04 39.16 268.45 41.02 271.98 42.39 275.66 43.02 277.57 43.06 281.45 42.84 
M 282.44 43.18 287.49 44.16 292.54 44.64 297.58 44.35 300.09 43.94 305.11 42.78 
M 306.02 43.29 308.29 46.45 310.88 49.22 313.94 51.39 315.64 52.26 319.24 53.74 
M 320.09 54.35 320.05 58.21 320.18 60.1 320.98 63.74 322.51 67.17 324.53 70.47 
M 325.36 71.11 325.95 73.9 326.38 75.2 327.7 77.5 329.65 79.38 332.01 80.97 
M 332.84 81.62 332.99 84.7 333.6 87.58 334.91 90.16 335.82 91.34 337.94 93.58 
M 338.74 94.25 337.08 99.14 336.41 101.6 335.62 106.59 335.58 111.67 336.05 116.8 
M 187.89 66.85 191.09 64.05 192.5 62.5 194.84 59.05 196.65 55.2 
M 189.55 72.88 192.19 70.56 193.35 69.29 195.29 66.44 196.78 63.26 
M 191.21 78.9 193.29 77.08 194.21 76.07 195.73 73.83 196.91 71.33 
M 192.87 84.93 194.39 83.59 195.66 82.07 197.04 79.39 
M 200.4 52.78 204.12 51.96 205.87 51.33 209.12 49.55 212.08 47.16 
M 201.43 57.99 204.71 57.26 206.26 56.71 209.14 55.13 211.75 53.02 
M 202.46 63.19 205.31 62.56 206.66 62.08 209.15 60.71 211.42 58.88 
M 203.49 68.4 205.91 67.86 207.05 67.45 209.16 66.29 211.08 64.74 
M 204.52 73.6 207.44 72.83 209.17 71.88 210.75 70.6 
M 205.55 78.8 207.83 78.2 209.18 77.46 210.41 76.46 
M 216.71 45.25 220.9 43.9 222.88 43.02 226.54 40.73 229.88 37.86 
M 217.25 51 220.95 49.8 222.7 49.02 225.93 47 228.88 44.46 
M 217.79 56.74 221 55.7 222.52 55.02 225.33 53.27 227.88 51.07 
M 218.33 62.48 221.05 61.6 222.34 61.02 224.72 59.54 226.89 57.67 
M 218.87 68.22 222.16 67.03 224.11 65.81 225.89 64.28 
M 219.41 73.96 221.15 73.4 222.76 72.59 224.89 70.88 
M 234.37 37.03 238.08 38.04 239.94 38.3 243.69 38.24 247.46 37.51 
M 234.3 42.59 237.64 43.5 239.31 43.74 242.69 43.69 246.08 43.03 
M 234.23 48.16 237.2 48.97 240.18 49.23 241.68 49.13 244.7 48.54 
M 234.16 53.73 236.75 54.43 238.06 54.62 240.68 54.58 243.32 54.06 
M 234.09 59.29 237.43 60.06 239.68 60.02 241.94 59.58 
M 234.02 64.86 236.8 65.5 238.67 65.47 240.56 65.1 
M 233.94 70.43 235.43 70.83 236.92 70.96 239.18 70.62 
M 251.83 37.95 254.75 39.2 256.24 39.59 259.29 39.78 262.44 39.3 
M 251.25 43.36 253.88 44.48 256.59 45.01 257.98 45 260.8 44.57 
M 250.68 48.77 253.02 49.77 254.21 50.08 256.66 50.23 259.17 49.85 
M 250.11 54.18 252.15 55.05 253.2 55.32 255.34 55.46 257.54 55.12 
M 249.54 59.59 252.18 60.57 254.02 60.68 255.9 60.4 
M 248.97 65 251.17 65.82 252.7 65.91 254.27 65.67 
M 248.39 70.41 250.16 71.06 251.38 71.14 252.64 70.94 
M 266.74 40.13 270.2 41.79 271.98 42.39 275.66 43.02 279.5 42.98 
M 265.79 46.16 268.84 47.63 270.41 48.16 273.67 48.71 277.06 48.68 
M 264.84 52.2 267.48 53.47 268.85 53.93 271.68 54.41 274.62 54.39 
M 263.88 58.23 266.13 59.31 267.29 59.7 269.68 60.11 272.18 60.09 
M 262.93 64.27 265.72 65.48 267.69 65.81 269.73 65.79 
M 261.98 70.3 264.16 71.25 265.69 71.51 267.29 71.49 
M 284.96 43.71 290.02 44.49 292.54 44.64 297.58 44.35 302.6 43.39 
M 283.33 49.45 287.79 50.14 292.25 50.24 294.47 50.02 298.9 49.17 
M 281.69 55.19 285.57 55.79 287.5 55.91 291.36 55.69 295.21 54.95 
M 280.05 60.93 283.34 61.44 286.62 61.51 288.25 61.36 291.52 60.73 
M 278.42 66.68 282.46 67.18 285.14 67.02 287.82 66.51 
M 276.78 72.42 279.94 72.81 282.04 72.69 284.13 72.29 
M 307.14 44.9 309.53 47.9 310.88 49.22 313.94 51.39 317.41 53.03 
M 304.72 50.01 306.88 52.71 308.09 53.9 310.84 55.85 313.97 57.33 
M 302.31 55.12 304.23 57.52 305.3 58.58 307.75 60.31 310.53 61.62 
M 299.89 60.23 301.57 62.33 302.51 63.25 304.66 64.77 307.09 65.92 
M 297.48 65.34 299.73 67.93 301.56 69.23 303.65 70.21 
M 295.07 70.45 296.94 72.61 298.47 73.69 300.21 74.51 
M 292.65 75.56 294.15 77.28 295.37 78.15 296.76 78.81 
M 320.04 56.29 320.18 60.1 320.98 63.74 321.66 65.48 323.48 68.83 
M 316.5 62.43 316.62 65.71 316.88 67.3 317.89 70.33 319.46 73.21 
M 312.96 68.57 313.06 71.32 313.28 72.65 314.12 75.19 315.44 77.6 
M 309.41 74.72 309.67 78 310.36 80.04 311.41 81.99 
M 305.87 80.86 305.94 82.54 306.29 84.14 307.39 86.38 
M 325.62 72.52 326.38 75.2 327.7 77.5 328.6 78.49 330.8 80.19 
M 322.25 78.16 322.87 80.37 323.35 81.37 324.71 83.09 326.52 84.49 
M 318.87 83.8 319.37 85.55 320.22 87.04 322.24 88.79 
M 315.5 89.44 316.13 91.29 316.91 92.28 317.96 93.09 
M 332.88 83.17 333.21 86.17 333.6 87.58 334.91 90.16 336.85 92.48 
M 329.39 89.28 329.65 91.58 330.38 93.68 330.95 94.64 332.43 96.42 
M 325.9 95.39 326.29 97.74 326.99 99.12 328.02 100.35 
M 151.56 159.32 182.19 148.28 182.49 149.06 151.92 161.8 
M 151.9 163.28 226.79 141.33 227.03 142.13 151.9 166.13 
M 151.98 167.44 238.63 148.69 238.82 149.5 152.15 170.22 
M 152.16 171.57 247.62 158.06 247.74 158.88 152.19 174.37 
M 152.09 175.73 246.88 169.35 246.95 170.18 151.85 178.53 
M 151.73 179.87 240.44 180.47 240.45 181.3 151.48 182.64 
M 151.45 183.94 249.47 191.7 249.41 192.53 151.72 186.75 
M 151.83 188.08 243.08 202.13 242.96 202.95 151.84 190.88 
M 151.85 192.23 222.47 208.65 222.29 209.47 151.95 195.02 
M 152.01 196.44 210.98 214.91 210.74 215.71 151.82 199.16 
M 151.74 200.18 182.62 212.75 182.33 213.53 151.34 202.65 
M 178.41 150.76 187.43 150.28 191.91 149.88 200.78 148.54 209.52 146.44 218.18 143.86 
M 218.48 144.86 220.25 147.11 222.27 148.92 224.68 150.08 226.01 150.41 228.85 150.81 
M 229.08 151.83 230.08 154.31 231.43 156.44 233.31 158.02 234.45 158.61 236.94 159.57 
M 237.1 160.61 235.86 162.62 235.11 164.67 235.13 166.79 236.3 170.06 
M 236.38 171.11 234.17 172.6 232.39 174.36 231.25 176.53 230.91 177.76 230.51 180.4 
M 230.51 181.45 231.51 184.23 232.14 185.52 233.79 187.74 236.03 189.45 238.65 190.84 
M 238.57 191.89 236.42 193.23 234.68 194.85 233.59 196.88 233.27 198.05 232.9 200.57 
M 232.76 201.6 228.38 201.72 224.14 202.32 220.11 203.66 218.16 204.59 214.37 206.77 
M 214.14 207.79 211.43 207.93 210.14 208.15 207.81 209.07 205.81 210.68 204.03 212.74 
M 203.74 213.74 198.25 212.09 192.7 210.93 187.08 210.54 184.24 210.61 178.53 211.08 
M 182.93 150.55 191.91 149.88 200.78 148.54 205.17 147.58 213.85 145.18 
M 219.35 146.01 221.22 148.09 223.43 149.59 224.68 150.08 227.41 150.64 
M 201.1 151.53 202.53 153.12 203.34 153.76 205.18 154.64 207.28 155.08 
M 182.85 157.05 184.41 158.6 185.69 159.21 187.15 159.52 
M 229.56 153.1 230.69 155.44 232.3 157.3 233.31 158.02 235.67 159.12 
M 208.92 157.74 209.79 159.53 211.03 160.96 211.8 161.51 213.61 162.35 
M 188.29 162.38 189.29 164.16 190.29 165 191.55 165.59 
M 236.45 161.61 235.4 163.64 235.11 164.67 235.13 166.79 235.82 168.96 
M 214.2 165.04 213.4 166.59 213.11 168.19 213.2 169.01 213.72 170.68 
M 191.96 168.47 191.4 169.55 191.2 170.66 191.63 172.39 
M 235.24 171.84 233.2 173.44 232.39 174.36 231.25 176.53 230.68 179.06 
M 213.28 173.66 211.72 174.88 211.09 175.59 210.22 177.26 209.78 179.2 
M 191.32 175.48 190.23 176.33 189.45 177.37 188.89 179.33 
M 230.99 182.86 232.14 185.52 233.79 187.74 234.85 188.65 237.31 190.17 
M 210.02 182.89 210.9 184.92 211.48 185.82 212.98 187.32 214.87 188.49 
M 189.05 182.91 190.07 184.95 191.11 186 192.43 186.81 
M 237.47 192.54 235.48 193.99 234.68 194.85 233.59 196.88 233.06 199.29 
M 214.99 191.08 213.46 192.19 212.85 192.85 212.01 194.41 211.61 196.26 
M 192.51 189.62 191.02 190.85 190.44 191.94 190.16 193.22 
M 230.56 201.63 226.24 201.94 224.14 202.32 220.11 203.66 216.26 205.65 
M 209.69 198.82 206.38 199.06 204.77 199.36 201.68 200.38 198.73 201.91 
M 188.82 196.02 185.4 196.39 183.25 197.1 181.2 198.16 
M 212.77 207.83 210.14 208.15 207.81 209.07 206.77 209.8 204.91 211.68 
M 187.69 202.62 185.99 202.82 184.47 203.42 182.58 205.12 
M 201 212.88 195.48 211.42 192.7 210.93 187.08 210.54 181.39 210.81 
M 179.88 224.27 182.43 228.45 189.15 235.45 190.8 237.93 191.88 240.75 192.62 243.62 195.96 246.18 193.57 248.92 191 249.82 189.81 252.16 188.16 254.02 186.33 255.66 182.9 259.19 181.61 261.38 179.73 262.94 177.73 264.32 174.69 265.06 169.18 268.76 170.29 264.01 170.46 261.16 171.81 258.98 172.29 256.63 172.08 253.53 171.47 250.85 170.26 247.57 170.86 240.09 170.2 237.76 170.09 234.92 170.51 227.14 170.18 224.14 169.44 220.58 
M 178.31 223.71 182.75 230.52 186.47 234.97 188.08 237.6 189.37 240.75 190.03 243.38 
M 176.74 223.16 178.78 226.85 182.37 232.36 186.86 239.94 187.24 245.53 
M 175.17 222.61 178.44 228.98 179.92 231.49 180.84 234.32 182.04 236.8 183.58 239.2 184.65 242.12 
M 173.61 222.05 175.39 225.56 178.89 236.36 181.1 241.91 182.44 244.49 
M 172.04 221.5 173.63 225.07 174.55 227.87 175.17 236.34 176.14 238.71 176.87 241.64 178.51 243.88 179.16 247.01 180.28 250.07 180.05 251.67 
M 170.47 220.95 171.73 224.63 172.33 227.6 172.34 232.72 172.65 235.43 172.67 238.22 173.6 242.63 
M 379.11 198.05 385.87 204.69 385.36 205.34 377.27 200.41 
M 368.28 204.22 375.23 211.2 374.71 211.85 366.41 206.56 
M 357.25 209.99 364.85 217.9 364.31 218.54 355.31 212.27 
M 346.06 215.46 354.75 224.92 354.19 225.53 344.04 217.66 
M 334.6 220.33 344.87 231.91 344.28 232.5 332.51 222.46 
M 323.05 224.96 335.33 239.26 334.73 239.84 320.89 227.04 
M 311.32 229.12 325.53 247.19 324.91 247.73 309.06 231.08 
M 299.33 232.43 315.69 255 315.04 255.51 296.98 234.28 
M 287.25 235.37 305.42 263.54 304.73 264.01 284.79 237.08 
M 274.95 237.14 294.31 272.04 293.6 272.47 272.37 238.66 
M 264.68 238.01 286.74 279.59 286.01 280 262.07 239.48 
M 384.55 204.85 381.8 205.18 380.5 205.48 378.18 206.56 376.24 208.32 374.54 210.5 
M 373.88 211.32 371.16 211.69 368.69 212.49 366.62 213.94 365.72 214.91 364.09 217.11 
M 363.41 217.91 360.72 218.36 358.3 219.22 356.29 220.74 355.43 221.72 353.89 223.97 
M 353.18 224.74 350.52 225.18 348.14 226.03 346.17 227.53 345.34 228.51 343.84 230.75 
M 343.11 231.5 340.49 232.03 338.16 232.97 336.27 234.54 335.49 235.55 334.1 237.83 
M 333.35 238.56 330.66 239.22 328.27 240.27 326.34 241.95 325.53 243 324.11 245.38 
M 323.32 246.06 320.64 246.68 318.25 247.7 316.3 249.35 315.49 250.39 314.05 252.74 
M 313.23 253.39 310.44 254.17 307.96 255.35 305.94 257.13 305.09 258.24 303.6 260.72 
M 302.74 261.32 299.82 262.05 297.2 263.19 295.01 264.96 294.07 266.07 292.38 268.55 
M 291.47 269.09 289.21 269.71 287.28 270.7 285.87 272.25 284.53 275.43 
M 383.16 204.98 380.5 205.48 378.18 206.56 377.17 207.36 375.37 209.38 
M 372.5 211.47 369.88 212.01 368.69 212.49 366.62 213.94 364.89 215.98 
M 362.04 218.1 359.46 218.72 358.3 219.22 356.29 220.74 354.64 222.82 
M 351.83 224.93 349.28 225.53 347.1 226.7 346.17 227.53 344.57 229.6 
M 341.78 231.74 339.28 232.43 338.16 232.97 336.27 234.54 334.77 236.66 
M 331.98 238.86 329.41 239.67 328.27 240.27 326.34 241.95 324.8 244.16 
M 326.42 235.08 324 236 322.75 237.08 321.75 238.52 
M 321.96 246.35 319.39 247.12 318.25 247.7 316.3 249.35 314.75 251.54 
M 315.73 241.23 313.32 242.11 312.06 243.18 311.05 244.6 
M 311.82 253.75 309.15 254.69 307.96 255.35 305.94 257.13 304.33 259.46 
M 307.21 249.33 305.17 250.04 304.25 250.55 302.71 251.92 301.47 253.7 
M 302.61 244.9 300.55 245.75 299.47 246.71 298.61 247.94 
M 301.26 261.66 298.46 262.55 297.2 263.19 295.01 264.96 293.2 267.28 
M 297.51 257.35 295.2 258.09 293.21 259.28 292.35 260.08 290.86 261.99 
M 293.76 253.05 291.94 253.63 291.12 254.05 289.7 255.2 288.52 256.71 
M 290.01 248.74 288.68 249.17 287.54 249.86 286.19 251.42 
M 290.32 269.37 288.19 270.14 287.28 270.7 285.87 272.25 284.92 274.31 
M 286.5 263.94 284.75 264.57 284 265.03 282.84 266.32 282.05 268.01 
M 282.69 258.5 280.72 259.37 279.8 260.38 279.18 261.71 
M 278.87 253.07 277.86 253.43 277.07 254.04 276.31 255.41 
M 399.06 148.47 406.65 145.41 409.24 143.98 411.63 143.12 413.68 141.72 416.25 140.68 419.59 137.78 421.52 136.71 423.23 135.26 425.8 133.61 427.76 131.92 433.59 128.94 438.5 127.67 440.61 126.28 441.29 125.25 444.89 124.49 436.52 133.16 434.92 135.04 433.58 137.18 433.09 140.02 434.31 142.78 434 144.81 433.33 146.99 432.4 148.93 431.17 150.88 430.63 153.54 430.69 159.28 429.44 161.06 428.94 163.54 429.02 166.53 427.57 168.32 425.96 169.8 425.01 171.77 425.63 174.7 427.52 181.81 428.53 183.99 429.46 186.86 428.99 193.86 430.2 196.48 432.02 199.57 435.16 206.6 436.74 209.51 447.22 220.14 443.41 218.72 441.12 216.6 439.29 215.46 434.89 214.06 432.11 212.59 429.23 210.7 427.37 209.38 423.9 204.71 422.11 203.07 420.02 201.76 417.97 199.87 415.9 198.66 414.16 196.62 412.06 194.61 409.24 193.15 406.64 192.16 404.29 191.03 402 189.39 399.06 186.81 
M 404.59 148.35 407.1 147.77 409.81 146.44 414.75 144.73 416.94 144.42 421.12 141.86 423.33 140.29 
M 404.82 150.55 410.37 148.79 413.04 148.26 414.98 147.37 417.72 147.65 422.87 145.88 430.91 140.9 432.03 139.61 
M 399.06 154.22 402.53 153.94 407.74 151.71 410.51 151.04 413.42 150.1 420.35 149.59 
M 408.52 154.37 411.13 153.72 413.86 152.76 416.25 152.57 422.05 151.75 424.2 150.8 425.89 149.84 
M 406.32 158.29 409.16 157.29 412.17 157.34 414.62 156.88 416.85 155.84 
M 409.05 160.35 412.1 160.69 414.71 160.49 416.19 158.91 418.47 158.53 420.78 158.62 
M 399.06 161.89 403.26 163.19 409.53 163.03 414.62 163.2 415.88 163.05 418.26 162.04 
M 399.06 163.81 403.23 165.11 406.77 165.61 411.34 165.34 414.16 165.49 415.91 166.16 418.71 165.74 421.27 165.03 424.96 165.64 
M 405.98 167.44 408.58 168.15 410.69 168.18 413.24 168.57 
M 403.5 169.01 408.18 170.3 410.34 171.11 412.96 171.73 418.69 171.56 
M 399.06 169.56 408.16 172.75 410.94 172.81 414.12 173.37 
M 408.75 174.83 411.93 174.96 
M 408.88 177.45 412.61 177.37 415.73 178.17 
M 405.57 178.58 408.74 179.47 411.93 179.92 414.54 180.73 417.05 181.91 
M 408.18 181.24 411.54 182.36 414.4 182.82 423.64 187.61 426.2 188.03 428.01 188.67 
M 399.06 179.14 402.59 181.52 405.46 182.58 408.28 183.15 411.47 184.1 414.19 184.52 417.24 186.24 419.81 188.38 422.48 190.18 424.67 191 426.39 192.47 427.72 193.97 
M 402.78 183.08 405.68 184.45 407.82 185.66 410.77 186.42 413.55 187.42 416.37 188.87 421.86 193.18 426.64 195.6 427.61 197.49 429.89 198.7 
M 402.87 184.98 405.62 186.9 408.23 188.09 410.63 188.83 412.58 190.07 415.81 191.8 418.25 194.28 421.2 196.16 423.08 197.72 425.01 198.41 426.23 199.22 
M 404.91 189.02 412.23 192.28 417.41 196.46 419.43 198.45 425.26 201.68 427.25 203.19 429.4 204.55 
M 82.76 158.12 83.18 157.04 84.32 155.11 85.85 152.99 87.68 151 90 149.41 104.13 140.82 112.6 136.45 117.18 134.58 130.11 130.11 138.09 127.64 141.53 131.56 143.24 135.78 147.31 144.12 149.04 148.33 150.19 152.62 151.92 161.26 151.87 165.7 152.15 170.09 152.19 174.51 151.41 183.47 151.82 187.85 152.01 196.68 151.66 201.16 150.69 205.71 148.6 210.31 138.95 209.55 131.79 208.31 125.39 206.42 119.56 204.09 114.25 201.57 109.31 198.92 104.52 195.63 100.3 192.31 96.68 188.86 93.7 185.22 
M 133.18 150.88 133.69 154.58 132.75 161.6 132 164.77 130.01 170.64 130.25 175.92 131.51 181.57 131.88 184.99 131.54 188.9 120.33 188.83 115.79 188.24 111.34 187.18 107.05 185.75 102.91 183.89 98.83 181.12 
M 91.25 182.38 88.79 178.17 86.98 174.4 80.2 161.35 80.27 159.25 81.87 157.93 83.97 158.36 85.07 160.13 87.77 168.13 90.24 176.08 93.79 185.18 
M 92.13 184.9 88.06 181.74 73.63 169.63 72.77 167.82 73.79 165.89 75.93 165.32 77.74 166.49 81.52 171.38 85.78 176.11 89.77 180.87 93.69 185.04 
M 102.55 161.05 100.47 158.14 99.45 154.7 99.6 151.12 100.9 147.79 103.21 145.05 106.29 143.22 109.8 142.48 113.35 142.93 116.57 144.5 119.1 147.03 120.68 150.25 121.12 153.81 120.39 157.31 118.55 160.39 115.82 162.7 112.48 164.01 108.9 164.15 105.47 163.13 102.55 161.05 
M 117.33 148.3 118.59 150.87 118.95 153.72 118.36 156.52 116.89 158.98 114.7 160.83 112.03 161.88 109.17 162 106.42 161.18 104.09 159.51 
M 106.55 155.81 105.71 154.64 105.3 153.27 105.36 151.84 105.88 150.5 106.81 149.41 108.04 148.68 109.44 148.38 110.87 148.56 112.15 149.19 113.17 150.2 113.8 151.49 113.97 152.91 113.68 154.31 112.95 155.55 111.85 156.47 110.52 156.99 109.09 157.05 107.71 156.64 106.55 155.81 
M 106.53 153.79 109.77 157.02 
M 108.08 153.09 111.57 156.58 
M 107.47 150.23 112.85 155.62 
M 108.78 149.3 113.7 154.22 
M 110.93 149.21 113.88 152.16 
M 91.61 179.43 92.78 180.6 
M 88.86 171.69 90.05 172.88 
M 86.44 164.29 87.57 165.41 
M 83.55 156.41 88.08 160.93 
M 85.55 153.41 88.93 156.8 
M 87.94 150.82 92.76 155.64 
M 90.96 148.85 94.82 152.71 
M 94.07 146.97 98.88 151.78 
M 97.14 145.05 100.13 148.04 
M 100.25 143.17 102.71 145.64 
M 103.35 141.29 105.66 143.6 
M 106.55 139.5 109.58 142.53 
M 109.84 137.8 113 140.96 
M 113.22 136.2 116.44 139.42 
M 116.76 134.75 121.47 139.46 
M 120.44 133.44 124.29 137.29 
M 124.13 132.14 128.36 136.38 
M 127.85 130.87 132.26 135.28 
M 131.62 129.65 135.51 133.54 
M 135.45 128.5 138.73 131.77 
M 105.86 164.71 106.73 163.96 107.33 163.69 
M 109.76 164.12 111.55 165.44 113.48 166.27 
M 94.66 164.49 96.68 166.42 97.12 167.56 
M 145.43 140.45 145.17 140.3 
M 130.68 193.03 132.53 189.65 132.87 188.49 132.76 187.9 
M 131.02 165.75 131.39 166.21 132.33 166.78 132.93 167.39 
M 112.48 179.17 112.48 179.65 112.76 180.39 113.67 180.75 114.51 180.74 115.53 180.44 116.75 179.84 117.01 179.47 
M 118.51 169.57 114.86 169.58 114.59 169.7 114.47 170.14 
M 146.6 189.9 146.02 189.79 145.53 189.91 143.89 191.2 142.05 191.84 
M 116.35 163.74 115.81 163.5 115.42 162.86 
M 131.47 195.07 132.47 192.88 132.9 192.26 134.88 190.75 135.92 189.46 136.61 188.2 137.18 186.44 
M 136.14 138.34 134.13 137.25 132.95 135.98 131.79 132.68 131.73 130.83 131.5 129.69 
M 148.19 148.99 147.18 150.3 144.01 152.72 142.98 153.24 140.71 153.71 139.81 154.27 
M 150.72 185.29 151.63 185.85 
M 88.47 155.87 87 156.38 86.16 156.91 85.61 157.44 84.43 159.11 
M 133.97 176.83 131.18 178.92 130.11 179.54 
M 125.67 160.73 125.98 160.64 127.11 161.01 
M 127 188.35 124.23 188.71 
M 121.16 194.73 122.08 194.34 123.07 194.17 124.04 194.62 124.5 195.23 
M 116.03 136.91 116.3 134.94 
M 148.07 152.97 147.64 154.16 148.04 155.31 147.85 156.34 147.91 156.98 
M 100.3 188.51 99.51 187.34 97.5 185.4 97.06 184.78 96.68 181.15 97 180.13 
M 144.15 137.75 141.71 137.59 140.51 136.97 137.95 134.61 137.22 133.81 135.89 131.83 134.64 130.5 133.88 129.94 
M 100.72 189.2 99.44 187.42 97.52 185.64 97.06 185.02 96.86 184.4 96.72 180.84 
M 136.09 136.81 134.37 135.34 132.63 132.75 131.99 131.43 131.56 129.67 
M 129.23 207.31 129.35 207.59 
M 137.3 158.2 136.88 162.93 136.36 164.98 
M 102.08 178.74 101.36 177.42 101.41 176.77 102.77 175.78 103.68 175.47 104.69 175.36 
M 94.49 185.99 92.95 187.56 92.07 189.5 91.91 190.55 92.01 191.62 92.83 193.7 94.36 195.44 97.41 197.48 99.66 198.52 102.08 199.06 98.4 198.34 94.92 196.83 92.74 195.4 91.81 194.42 91.06 193.28 90.5 192.01 90.2 190.62 90.22 189.18 90.53 187.79 91.07 186.46 91.83 185.24 92.73 184.23 
M 83.24 177.66 87.33 182.19 91.33 186.04 
M 93 187.5 97.21 190.75 104.52 195.63 
M 140.06 126.6 147.76 134.29 
M 144.49 124.38 149.59 129.47 
M 148.92 122.16 154.96 128.19 
M 153.33 119.91 159.81 126.39 
M 157.74 117.67 165.44 125.38 
M 162.25 115.53 168.31 121.59 
M 166.81 113.44 174.81 121.44 
M 171.42 111.4 176.97 116.95 
M 176.11 109.44 185.48 118.81 
M 180.83 107.51 186.47 113.15 
M 185.67 105.7 192.94 112.97 
M 190.51 103.88 200.4 113.78 
M 195.28 102.01 203.03 109.76 
M 200.05 100.13 208.32 108.39 
M 205.08 98.51 214.73 108.16 
M 210.16 96.93 218.62 105.39 
M 215.51 95.63 223.19 103.31 
M 220.93 94.4 227.32 100.8 
M 226.57 93.39 232.19 99.01 
M 232.26 92.43 241.33 101.5 
M 238.68 92.2 247.88 101.4 
M 245.15 92.02 252.46 99.33 
M 251.72 91.94 259.62 99.84 
M 258.18 91.74 263.84 97.4 
M 264.87 91.79 274.24 101.16 
M 272.69 92.95 278.31 98.57 
M 281.89 95.5 289.99 103.61 
M 292.09 99.06 298 104.97 
M 303.19 103.5 310.66 110.97 
M 314.3 107.96 323.93 117.59 
M 325.15 112.16 332.46 119.47 
M 337.16 117.52 344.79 125.15 
M 351.01 124.72 359.54 133.25 
M 364.66 131.72 371.34 138.4 
M 377.65 138.06 383.58 143.99 
M 390.68 144.44 397.44 151.2 
M 403.49 150.6 407.45 154.56 
"/></svg>