<svg xmlns="http://www.w3.org/2000/svg" width="520" height="320"><rect x="0" y="0" width="520" height="320" fill="floralwhite"/><rect x="10" y="10" width="500" height="300" stroke="black" stroke-width="1" fill="none"/><path stroke="black" stroke-width="1" fill="none" stroke-linecap="round" stroke-linejoin="round" d="
M 168.52 83.68 176.56 80.99 184.57 79.33 200.6 77.58 216.63 75.04 224.64 74.1 232.66 73.62 248.69 73.31 264.72 73.52 272.73 73.29 280.75 73.31 288.76 73.89 312.8 76.58 320.82 78.05 352.88 85.06 360.89 87.64 368.9 91.36 376.92 100.12 
M 376.92 181.61 368.9 189.21 360.89 192.18 352.88 194.29 336.85 197.1 328.83 198.72 320.82 200.61 312.8 202.2 304.79 203.04 296.77 203.49 280.75 203.95 264.72 203.81 256.7 204.26 240.67 205.5 232.66 205.57 224.64 204.99 216.63 203.71 208.61 201.91 192.59 197.45 184.57 195.47 176.58 194.19 
M 374.97 124.72 368.82 121.43 365.73 120.05 359.33 118.02 348.9 115.96 338.23 114.44 331.42 113.79 324.44 113.56 310.61 113.59 305.95 113.33 
M 302.92 113.07 295.32 112.27 285.89 111.7 279.95 111.51 272.64 111.8 
M 269.63 112.08 253.92 113.81 
M 250.83 114.15 237.82 115.86 
M 234.51 116.08 231.24 116.13 
M 228.07 115.98 217.32 114.85 214.05 114.64 200.65 114.22 190.76 113.38 187.37 113.25 185.64 113.38 
M 182.17 113.75 179.17 114.21 
M 183.17 174.48 188.56 180.61 
M 189.56 175.43 191.61 177.77 
M 194.19 180.82 196.63 183.78 
M 194.42 174.86 197.09 178.02 
M 204.14 186.88 206.54 189.5 
M 198.9 174.11 202.21 178.33 
M 204.49 181.41 207.94 185.78 209.17 187.1 
M 202.05 171.89 202.26 172.15 
M 211.76 184.56 214.27 187.24 
M 181.13 135.52 184.03 140.04 
M 207.69 172.68 209.83 175.7 
M 224.73 192.35 227.21 194.63 
M 180.93 126.31 183.81 131.24 
M 188.51 138.8 189.21 139.9 
M 212.72 172.54 215.01 175.83 
M 217.36 178.97 219.83 181.97 
M 222.39 184.83 227.59 190.16 
M 230.11 192.61 232.52 194.87 
M 179.24 114.6 183.78 121.79 190.27 133.29 193.84 138.98 
M 174.8 99.46 179.98 107.51 187.01 118 195.51 133.44 199.46 139.63 
M 221 169.15 223.36 172.65 
M 235.76 187.89 240.41 192.57 
M 169.38 85.16 171.61 88 
M 173.41 90.41 183.99 105.58 
M 186.46 109.04 190.08 114.34 192.3 118.03 198.52 129.63 201.87 135.34 
M 204.34 139.05 204.65 139.5 
M 224.43 166.39 227.41 170.89 231.21 176.16 
M 236.12 182.42 240.8 187.65 
M 248.83 195.15 250.62 196.51 
M 171.77 82.59 177.08 89.01 184.32 98.83 
M 186.69 102.09 190.43 107.23 195.24 114.45 199.58 121.88 205.9 133.41 210.01 139.35 
M 228.47 164.69 231.33 168.97 
M 233.91 172.69 236.45 176.19 
M 243.42 184.6 247.64 188.94 
M 251.46 192.56 253.32 194.13 
M 175.22 81.44 179.82 86.61 183.81 91.38 195.55 107.37 202.65 118.08 208.98 129.48 211.27 133.27 215.28 138.76 
M 232.2 162.56 239.03 172.58 
M 241.5 175.87 243.83 178.74 
M 252.26 187.88 256.14 191.62 
M 178.76 80.53 186.56 88.83 190.92 94.2 203.17 111.02 208.99 119.88 
M 211.16 123.62 214.45 129.35 216.92 133.09 221.17 138.52 
M 236.82 161.77 238.95 164.96 
M 241.53 168.7 245.24 173.68 250.84 180.2 
M 255 184.81 257.02 186.97 
M 259.05 188.99 263.11 192.54 
M 182.32 79.8 189.25 86.55 193.74 91.48 203.44 104.4 209.58 112.86 
M 214.32 119.9 216.56 123.62 
M 218.9 127.38 220.11 129.25 224.31 134.68 
M 227.17 138.29 227.63 138.89 
M 239.96 158.71 244 164.74 
M 248.91 171.3 251.22 174.1 
M 255.64 179.22 257.78 181.67 
M 271.97 194.85 273.81 196.1 
M 185.98 79.17 194.22 86.66 198.96 91.84 213.59 111.39 216.02 114.79 219.5 120.15 
M 221.87 123.8 225.84 129.19 230.19 134.51 
M 232.88 138.14 233.29 138.74 
M 246.48 160.82 251.39 167.55 
M 258.31 175.85 260.58 178.43 
M 262.82 180.91 265 183.28 
M 267.1 185.52 269.12 187.61 
M 189.98 78.7 196.97 84.68 201.84 89.56 204.33 92.4 216.3 108.53 225.69 122.32 228.43 125.77 234.31 132.63 236.94 136.28 238.39 138.61 
M 247.71 155.03 250.18 158.8 253.83 163.84 
M 256.21 166.88 259.79 171.11 265.7 177.7 
M 275.63 188.95 277.32 190.8 
M 194.2 78.24 197.35 80.8 202.13 85.06 207.17 90.13 209.66 93 219 105.9 228.04 119.28 230.73 122.58 236.62 129.17 239.43 132.71 243.13 138.39 
M 266.1 171.77 268.49 174.42 
M 270.75 177.02 274.78 181.96 
M 198.45 77.8 202.43 81.1 207.35 85.53 212.39 90.67 214.82 93.56 221.79 103.38 228.21 113.11 230.49 116.3 233.04 119.47 238.79 125.83 241.69 129.28 245.65 134.9 
M 255.56 151.86 257.33 154.61 261.05 159.7 
M 268.68 168.49 272.28 172.44 275.45 176.36 
M 282.33 186.31 283.92 188.64 
M 285.57 190.84 287.31 192.88 
M 291.18 196.35 292.25 197.14 
M 202.58 77.27 210.04 83.65 215.07 88.48 217.58 91.23 220.02 94.27 222.38 97.55 230.03 108.79 
M 232.14 111.81 235.6 116.3 239.6 120.88 
M 245.25 127.62 249.27 133.29 252.33 138.24 
M 258.79 149.29 263.43 156.11 
M 275.75 170.49 277.83 173.13 
M 279.72 175.82 283.12 181.2 
M 286.38 186.38 288.1 188.8 
M 206.62 76.63 210.4 79.7 217.88 86.35 220.43 88.97 224.08 93.45 
M 228.74 99.86 236.18 110.28 238.39 113.1 246.07 122.18 248.81 125.75 251.47 129.59 255.15 135.34 
M 261.4 145.85 263.42 149.02 
M 265.79 152.47 270.8 159.05 
M 273.27 161.96 279.02 168.62 281.01 171.33 285.43 178.38 
M 210.79 75.97 218.31 81.92 220.89 84.14 223.44 86.62 225.89 89.39 239.21 107.2 248.4 118.52 250.98 121.95 256.14 129.6 259.53 135.08 
M 272.96 155.47 275.37 158.53 
M 277.75 161.39 282.16 166.91 
M 285.9 172.57 289.56 178.37 
M 291.45 181.22 293.41 183.96 
M 215.13 75.27 221.54 79.78 224.11 81.84 226.61 84.17 228.99 86.78 231.26 89.65 238.99 99.94 
M 241.13 102.7 243.21 105.38 
M 245.31 108.01 247.48 110.68 
M 249.73 113.51 253.24 118.23 258.21 125.55 265.67 137.89 
M 267.55 140.89 269.99 144.57 
M 272.49 148.15 277.5 154.93 
M 279.93 158.03 283.41 162.44 286.37 166.73 
M 294.09 178.42 296.15 181.27 
M 220.13 74.63 224.9 77.65 227.43 79.54 229.85 81.7 233.22 85.49 
M 235.36 88.26 240.67 95.37 250.25 107.44 
M 252.37 110.2 259.24 119.75 
M 261.58 123.3 269.67 136.92 
M 274.44 144.03 279.66 151.19 
M 286.89 160.77 288.9 163.74 
M 290.75 166.69 294.63 172.6 
M 305.21 186.24 307.27 188.36 
M 225.62 74.04 228.25 75.62 230.71 77.37 233.03 79.37 235.21 81.64 243.39 92.23 248.81 98.91 
M 250.93 101.59 260.59 114.31 264.06 119.33 
M 266.19 122.77 270.9 131.28 275.24 138.18 280.37 145.57 288.35 155.96 290.59 159.14 296.34 168.22 299.49 172.77 
M 231.3 73.7 233.83 75.42 236.05 77.28 238.1 79.38 245.99 89.24 252.57 96.99 264.39 112.33 
M 266.69 115.52 268.85 118.87 
M 270.79 122.28 275.42 130.93 278.64 136.25 
M 281.08 139.91 285.17 145.43 290.76 152.49 293.19 155.87 300.18 166.89 
M 306.81 175.98 311.1 181.44 
M 317.45 188.18 319.81 190.07 
M 236.43 73.52 238.86 75.45 240.82 77.38 248.49 86.45 255.18 93.78 261.35 102.01 269.25 111.88 
M 271.47 115.1 273.5 118.48 
M 294.28 150.68 297.88 155.89 301.89 162.43 305.05 167.09 
M 311.84 176.09 316.09 181.4 
M 318.23 183.74 319.32 184.87 322.87 187.89 
M 240.96 73.4 243.39 75.57 248.94 81.65 255.46 88.27 257.67 90.7 260.79 94.7 
M 264.83 100.26 272.81 109.95 275.03 113.1 278.99 119.99 284.65 131 288.08 136.36 
M 290.72 139.91 296.43 147.12 
M 299.03 150.71 301.33 154.26 
M 305.53 160.99 308.82 165.72 318.93 178.73 
M 321.11 181.2 323.38 183.46 
M 325.76 185.56 328.22 187.53 
M 245.29 73.35 248.67 76.5 
M 250.56 78.35 257.98 85.37 260.15 87.69 262.23 90.21 268.23 98.55 271.59 102.64 
M 276.23 108.2 278.47 111.29 
M 280.6 114.63 283.58 119.95 286.46 125.51 
M 288.48 129.22 291.83 134.56 301.33 147.2 
M 308.04 157.82 312.58 164.22 
M 317.19 170.16 319.43 173.06 
M 328.44 183.09 330.86 185.18 
M 249.87 73.33 258.46 80.5 262.71 84.69 266.72 89.77 271.74 96.82 
M 273.92 99.56 279.66 106.41 281.93 109.49 284.14 112.82 287.32 118.12 
M 289.37 121.79 292.46 127.36 294.73 131.04 302.64 141.82 305.12 145.49 311.72 156.2 315.17 161 
M 317.47 163.99 319.75 166.93 
M 324.22 172.78 328.63 178.09 
M 330.94 180.46 333.31 182.7 
M 255.43 73.42 261.26 77.82 265.39 81.74 269.32 86.65 275.3 94.97 283.14 104.61 
M 285.45 107.73 290.04 114.5 
M 292.27 118.07 296.63 125.55 
M 299.02 129.3 301.59 132.95 
M 304.21 136.53 307.93 141.94 311.19 147.37 
M 313.32 150.92 315.51 154.28 
M 319.99 160.42 324.52 166.42 
M 333.39 177.66 335.72 180.06 
M 261.69 73.49 266.16 76.95 268.16 78.91 270.1 81.15 277.91 91.61 286.73 102.69 291.49 109.23 295 114.47 
M 301.94 125.71 307.18 133.09 
M 316.09 147.18 319.24 152.04 322.51 156.56 
M 324.74 159.58 331.49 168.98 
M 333.69 171.93 338.2 177.29 
M 340.56 179.77 342.96 182.18 
M 267.68 73.44 270.94 76.31 272.85 78.44 289.26 99.27 296.38 109.25 303.26 120.21 305.82 124 312.39 133.12 
M 314.68 136.59 319.86 145 322.96 149.62 
M 334.01 165.44 337.41 170.11 340.79 174.38 
M 345.47 179.7 347.86 182.26 
M 272.88 73.29 275.61 76.01 279.53 80.53 287.47 90.22 290.75 94.48 
M 293.03 97.58 295.34 100.84 
M 297.65 104.23 302.23 111.21 
M 309.52 122.21 316.11 131.26 319.45 136.31 
M 321.54 139.59 323.58 142.76 
M 325.64 145.82 327.74 148.84 
M 329.87 151.93 332.04 155.16 
M 348.07 177.17 350.43 179.94 
M 277.82 73.3 280.41 75.9 284.4 80.32 288.32 84.88 292.39 89.95 296.72 96.1 311.82 118.49 
M 314.5 122.11 317.18 125.69 
M 321.99 132.6 328.36 142.25 
M 330.47 145.35 332.6 148.5 
M 334.76 151.74 336.97 155.07 
M 343.87 165.15 346.17 168.36 
M 282.84 73.46 289.28 80.14 293.2 84.67 295.17 87.22 305.92 103.04 313.07 113.02 322.19 125.32 
M 331.13 138.86 333.29 142.08 
M 339.81 151.87 348.89 165.39 
M 288.05 73.84 292.15 77.89 295.04 81.1 
M 296.95 83.45 299.86 87.4 308.43 99.91 322.39 117.9 
M 324.92 121.42 327.27 124.96 
M 331.71 132.02 342.77 148.81 
M 353.88 165.84 356.12 169.16 
M 360.55 175.54 362.83 178.61 
M 293.4 74.35 296.77 77.72 300.54 82.18 311.04 96.73 317.27 104.37 
M 319.93 107.49 322.63 110.72 
M 330.18 121.15 335.71 130.19 339.12 135.39 
M 341.37 138.8 343.59 142.23 
M 347.95 149.24 355.51 161.27 363.18 172.85 
M 298.64 74.9 303.09 79.7 316.22 96.51 328.15 110.44 
M 330.71 113.87 334.27 119.26 339.86 128.33 
M 342.11 131.86 347.74 140.7 350.98 146.13 
M 353.1 149.71 355.19 153.21 
M 357.29 156.65 359.43 160.08 
M 303.87 75.48 309.83 82.02 321.65 96.24 328.25 103.84 
M 330.89 107.02 334.74 112.08 338.43 117.52 
M 340.76 121.18 345.22 128.35 
M 347.44 131.91 349.68 135.53 
M 351.88 139.22 354.03 142.94 
M 356.13 146.62 360.28 153.75 
M 362.35 157.2 366.51 163.96 
M 368.6 167.26 370.73 170.49 
M 309.43 76.16 314.86 81.8 322.12 90.04 334.85 105.4 340.16 112.27 342.72 115.93 347.38 123.19 353.87 134.05 357.07 139.72 
M 359.16 143.49 361.23 147.21 
M 365.34 154.31 367.36 157.73 
M 315.69 77.11 320.13 81.54 325.07 86.93 343 108.99 345.74 112.62 350.66 119.93 355.97 128.97 
M 358.03 132.71 363.17 142.26 368.34 151.39 
M 322.61 78.45 325.48 81.32 330.42 86.82 337.54 95.93 348.58 109.34 351.35 113.02 356.14 120.34 358.21 123.99 367.15 141.02 
M 329.63 80.02 335.63 86.76 342.67 95.8 346.75 100.74 
M 352.7 107.88 355.53 111.58 
M 358.06 115.3 361.36 120.89 364.29 126.47 
M 374.19 145.32 376.07 148.68 
M 336.48 81.55 340.83 86.58 344.26 91.04 
M 346.67 94.18 356.78 106.42 359.63 110.17 363.25 115.86 
M 367.38 123.4 369.33 127.13 
M 371.27 130.87 373.21 134.64 
M 343.28 82.93 350.8 92.67 360.79 105.05 
M 368.34 116.45 370.45 120.25 
M 372.48 123.99 374.46 127.69 
M 349.97 84.4 356.47 93.03 360.63 98.24 
M 363.49 101.85 366.28 105.56 
M 371.31 113.15 375.71 120.74 
M 356.81 86.33 369.17 102.32 
M 371.83 106.02 376.26 112.72 
M 364.51 89.32 366.86 92.29 
M 369.53 95.65 374.89 102.67 
M 171.36 82.73 169.14 84.75 
M 178.18 80.65 170.8 87.57 
M 183.88 79.47 176.06 86.7 172.23 90.81 
M 189.26 78.79 185 82.44 180.63 86.6 175.98 91.59 173.37 94.95 
M 195.1 78.14 189.65 82.47 185.29 86.54 183.03 88.86 178.39 94.31 174.79 99.43 
M 201.34 77.47 196.84 80.78 192.34 84.48 187.86 88.83 184.4 92.78 
M 182.08 95.74 177.52 102.37 
M 208.6 76.31 204.2 79.34 199.65 82.84 195.11 86.7 192.82 88.91 188.18 94.17 185.88 97.21 177.98 109.21 
M 216.04 75.13 209.38 79.64 204.8 83.23 200.29 87.07 195.59 91.58 193.2 94.27 190.89 97.24 180.61 112.86 
M 222.78 74.32 214.69 79.87 209.99 83.64 203.27 89.7 198.42 94.62 196.01 97.46 193.76 100.53 187.23 110.79 183.42 116.31 
M 180.74 120.04 180.22 120.76 
M 228.85 73.85 221.8 78.78 
M 219.07 80.87 212.97 86.02 203.81 95.17 201.34 97.92 198.98 100.85 196.76 103.99 193.54 109.07 
M 188.82 116.17 186.17 119.88 
M 234.5 73.57 229.09 77.44 223.52 81.86 218.33 86.38 212.65 92.01 
M 210.35 94.5 204.32 101.32 202.01 104.3 196.42 112.69 
M 194.04 116.25 191.49 119.89 
M 186.07 127.45 183.38 131.22 
M 239.72 73.43 234.58 77.28 227.92 82.94 
M 225.23 85.4 218.99 91.4 214.35 96.36 207.29 104.7 203.86 109.38 
M 201.57 112.75 196.68 119.99 
M 194.05 123.77 186.18 135.02 
M 183.7 138.66 182.74 140.07 
M 244.45 73.36 237.16 79.36 232.09 84.15 221.91 94.55 215.97 101.04 
M 213.66 103.75 209.06 109.59 
M 204.37 116.28 196.6 127.68 
M 194.01 131.49 191.51 135.19 
M 189.07 138.82 188.33 139.92 
M 248.84 73.32 243.97 77.47 239.58 81.69 218.78 104.39 
M 216.51 107.06 213.14 111.37 205.79 121.78 200.45 129.63 193.87 139.78 
M 252.9 73.38 248.32 77.47 244.08 81.76 239.66 86.81 229.96 98.49 223.84 105.17 
M 221.51 107.77 219.29 110.45 
M 217.13 113.3 209.74 123.65 
M 207.02 127.57 204.38 131.51 
M 201.93 135.34 199.28 139.64 
M 256.91 73.44 252.9 77.12 248.48 81.68 244.3 86.69 233.91 100.11 
M 231.43 103.01 228.9 105.78 
M 224.12 111.14 220.95 115.3 212.39 127.47 
M 209.69 131.39 207.18 135.26 
M 204.88 139.04 204.61 139.5 
M 260.84 73.48 255.4 78.81 250.95 83.81 246.81 89.18 237.8 101.49 227.79 113.07 225.67 115.91 220.41 123.78 
M 217.88 127.42 213.86 133.19 210.27 138.92 
M 188.9 174.78 186.6 177.61 
M 264.77 73.52 260.3 77.99 255.74 83.24 251.51 88.72 243.93 99.49 
M 241.57 102.66 231.65 114.81 
M 229.52 117.81 224.61 125.66 215.6 139.21 
M 195.81 173.14 194.57 174.87 
M 268.95 73.4 265.21 77.11 262.85 79.75 259.47 83.91 
M 257.33 86.74 246.5 102.12 
M 241.64 108.42 237.94 113.13 234.59 117.88 
M 232.62 121.04 227.95 129.18 221.46 139.05 
M 199.91 175.15 197.73 178.05 
M 273.27 73.29 270.02 76.41 265.34 81.75 260.96 87.59 257.88 92.09 
M 255.8 95.18 252.51 99.95 243.09 112.65 240.81 115.95 236.84 122.59 232.4 130.91 
M 230.25 134.52 227.38 138.9 
M 207.14 172.43 202.82 178.37 
M 200.58 181.16 195.77 186.49 
M 277.75 73.3 274.7 76.05 272.38 78.47 267.77 84.03 264.49 88.56 
M 262.41 91.63 257.24 99.46 248.15 112.09 245.93 115.43 243.85 118.9 239.38 127.51 
M 237.62 130.92 234.66 136.27 233.06 138.75 
M 214.66 169.48 212.4 172.53 
M 203.32 184.16 201.04 186.74 
M 282.4 73.43 279.47 75.91 277.07 78.22 274.71 80.8 270.13 86.58 265.82 92.79 259.69 102.16 253.03 111.65 250.9 114.98 247.95 120.31 
M 246.14 123.96 241.77 132.82 238.64 138.17 
M 221.84 166.56 217.68 172.59 
M 215.16 175.83 208.27 184.43 
M 286.91 73.75 281.92 78.09 279.48 80.53 277.09 83.25 274.76 86.21 268.2 95.59 257.86 111.29 254.7 116.45 
M 252.8 120.07 247.59 131.32 
M 245.72 134.9 243.62 138.47 
M 209.02 189.59 206.81 191.87 
M 291.24 74.13 286.81 78 281.89 82.88 279.48 85.72 277.16 88.8 271.73 96.82 
M 269.73 99.89 260.62 114.31 258.51 117.96 256.61 121.77 252.37 131.51 
M 250.54 135.21 248.77 138.34 
M 233.89 162.43 231.55 167.05 228.3 172.65 
M 223.46 179.13 220.99 182 
M 212.01 191.96 209.79 194.09 
M 295.29 74.54 289.24 80.14 284.3 85.21 281.9 88.15 277.41 94.67 271.49 104.08 263.42 117.57 261.35 121.43 259.49 125.44 256.15 133.48 253.71 138.21 
M 235.65 168.93 233.56 172.68 
M 228.96 179.31 226.5 182.2 
M 224.07 184.89 221.72 187.43 
M 299.06 74.94 289.17 84.82 286.72 87.57 284.36 90.6 282.12 93.89 277.99 100.55 267.19 119.04 
M 265.03 122.94 263.99 124.92 261.29 131.06 
M 259.6 135.08 258.21 138.09 
M 244.78 160.92 242.76 164.85 
M 231.96 182.37 229.56 185.1 
M 222.49 192.23 220.17 194.27 
M 302.72 75.35 291.63 87.24 289.23 90.08 286.93 93.21 281.7 101.58 
M 279.78 104.85 268.46 124.34 265.42 130.35 
M 254.41 151.89 251.71 156.85 
M 249.74 160.69 247.74 164.51 
M 232.59 187.84 230.24 190.27 
M 306.54 75.8 294.14 89.95 291.86 92.89 288.55 97.73 
M 286.45 101.09 282.49 107.83 
M 280.56 111.2 277.53 116.47 270.69 127.7 268.59 131.61 265.83 137.89 
M 258.46 152.79 251.64 165.86 246.54 175.08 
M 244.42 178.65 242.22 181.98 
M 237.79 187.86 236.68 189.19 233.2 192.71 
M 310.6 76.3 307.63 79.53 299.99 88.82 
M 297.79 91.59 294.53 96 290.29 102.5 282.08 116.35 273 131.08 270.99 134.87 269.71 137.79 
M 268.93 139.65 266.02 146.95 265.12 148.85 
M 263.24 152.57 259.37 159.84 
M 257.43 163.44 251.36 174.09 
M 249.24 177.62 247.08 181.06 
M 314.76 76.94 312.53 79.33 307.98 84.81 299.29 96.28 295.2 102.47 286.76 116.3 278.65 129.08 
M 276.52 132.69 273.96 137.68 
M 273.9 137.8 268.89 150.45 266.19 155.99 
M 264.29 159.52 260.34 166.37 
M 258.27 169.78 254.04 176.59 
M 249.66 183.28 245.31 189.45 
M 243.17 192.21 241 194.69 
M 318.99 77.72 315.29 81.77 312.93 84.63 304 96.64 299.93 102.7 290.48 118.09 
M 288.07 121.79 285.63 125.5 
M 281.09 132.69 279.12 136.26 
M 277.37 139.99 272.64 151.92 
M 269.18 159.2 265.36 165.85 
M 263.29 169.13 258.91 175.76 
M 252.15 185.39 249.91 188.41 
M 247.72 191.27 245.57 193.93 
M 323.23 78.59 320.57 81.52 315.73 87.38 308.8 96.79 302.65 106.14 294.31 119.9 284.71 134.55 282.82 138.08 276.37 153.32 273.83 158.73 
M 270.31 165.35 268.35 168.54 
M 266.23 171.77 263.99 175.02 
M 256.92 184.48 252.25 190.22 
M 327.52 79.55 321.1 87.1 313.82 96.62 309.44 103.07 304.38 111.3 
M 302.38 114.73 300.33 118.26 
M 298.11 121.87 290.74 132.81 
M 288.6 136.36 287.6 138.13 285.92 141.75 283.58 147.32 
M 281.93 151.05 278.37 158.18 
M 259.44 186.59 252.25 194.36 
M 331.85 80.51 328.89 83.96 321.61 93.13 314.51 102.89 308.13 113.1 302.13 123.87 299.8 127.5 294.8 134.57 293.71 136.33 
M 291.73 139.9 286.81 150.83 
M 283.06 157.8 281.18 161.07 
M 277.67 167.33 275.88 170.48 
M 271.79 176.88 269.47 180.01 
M 264.51 185.86 261.97 188.55 
M 259.45 191.09 256.97 193.46 
M 336.21 81.49 331.81 86.81 324.63 96.12 317.6 105.97 313.09 113.02 310.99 116.67 307.26 124.03 305.23 127.67 301.65 132.95 
M 293.42 147.12 291.73 150.71 
M 287.85 157.59 281.93 166.92 
M 276.39 176.22 273.16 180.88 271.97 182.35 
M 269.55 185.2 267.04 187.87 
M 340.65 82.4 337.02 86.72 334.68 89.78 327.71 99.14 323.13 105.65 316.15 116.47 313.18 122.16 
M 311.36 125.9 308.41 131.36 301.27 141.79 299.25 145.35 294.71 154.15 
M 292.65 157.5 288.23 163.75 
M 286.14 166.73 284.22 169.7 
M 282.41 172.7 280.58 175.74 
M 278.63 178.76 276.54 181.71 
M 274.3 184.56 271.93 187.24 
M 345.09 83.3 342.23 86.54 339.8 89.62 328.62 105.41 321.61 116.12 319.34 119.96 316.35 125.74 
M 314.46 129.5 311.39 134.89 307.81 140.15 
M 303.27 147.24 298.4 155.9 296.27 159.13 292.79 163.71 
M 288.34 169.62 286.39 172.56 
M 349.61 84.32 347.56 86.46 344.98 89.48 342.57 92.63 333.9 105.39 328.31 113.94 
M 323.58 121.52 316.29 134.78 308.16 147.35 
M 305.96 150.88 300.85 159.25 297.45 163.78 
M 295.08 166.71 291.62 171.09 288.6 175.47 
M 286.66 178.36 284.69 181.16 
M 282.69 183.82 280.63 186.33 
M 278.51 188.68 276.32 190.88 
M 354.26 85.51 350.35 89.54 347.81 92.58 345.5 95.77 327.61 123.1 324.19 128.83 
M 322.06 132.59 315.44 143.67 
M 313.07 147.36 304.34 160.94 
M 302.15 163.96 296.31 171.17 290.89 178.38 
M 286.72 183.84 283.63 187.51 280.5 190.67 
M 358.85 86.99 353.34 92.81 350.91 95.88 342.52 108.96 335.27 119.27 330.29 126.66 324.65 135.87 
M 322.46 139.52 315.64 150.78 
M 313.39 154.43 311.2 157.86 
M 306.92 164.13 300.08 172.79 
M 293.28 181.24 291.04 183.93 
M 288.85 186.45 286.7 188.73 
M 284.59 190.78 282.5 192.62 
M 363.33 88.78 359.09 93.23 356.57 96.25 354.3 99.4 348.1 109.31 335.45 126.58 327.21 139.07 
M 324.95 142.62 322.7 146.3 
M 320.45 150.1 318.25 153.93 
M 309.64 167.23 307.42 170.15 
M 305.13 173.02 302.81 175.84 
M 367.66 90.78 362.36 96.71 359.98 99.84 353.69 109.69 351.38 113.02 340.75 126.55 329.78 142.18 
M 327.48 145.62 324.11 151.1 320.89 156.87 
M 318.8 160.58 314.59 167.22 
M 310.19 173.17 306.71 177.42 300.62 183.97 
M 371.13 93.79 365.72 100.33 363.41 103.55 356.91 113.44 354.4 116.74 346.15 126.62 343.46 130.09 331.18 146.92 327.79 152.18 
M 325.64 155.94 322.53 161.67 319.44 166.92 
M 317.32 170.14 312.89 176.1 
M 374.28 97.24 369 104.04 362.17 113.96 359.75 117.22 348.82 130.2 336.16 146.88 331.48 153.47 328.29 159 
M 326.25 162.78 324.21 166.43 
M 315.49 178.83 311.84 182.7 308.11 186.19 
M 376.92 101.43 364.85 117.82 358.3 125.74 
M 355.55 128.93 351.53 133.86 336.41 153.38 334.14 156.79 327.93 167.71 324.79 172.72 
M 322.63 175.8 320.4 178.67 
M 315.59 183.83 308.18 190.36 
M 301.17 196 299.96 196.86 
M 376.92 109.23 367.35 121.65 359.41 131.09 350.35 142.61 
M 347.78 145.85 345.23 148.99 
M 342.73 152.06 340.3 155.19 
M 338 158.48 329.53 172.32 
M 325.27 178.37 323.06 181.08 
M 376.92 116.75 364.49 131.75 354.24 144.71 344.2 157.05 339.66 163.52 334.27 171.88 
M 332.14 175.02 330.07 177.96 
M 321.06 188 318.5 190.13 
M 376.92 123.67 369.53 132.42 359.36 145.27 349.29 157.46 343.55 165.17 
M 341.33 168.36 339.12 171.53 
M 336.94 174.61 334.84 177.53 
M 332.83 180.29 329.82 184.14 326.48 187.64 
M 321.49 191.86 318.89 193.74 
M 376.92 130.2 361.9 149 351.99 160.92 336.64 181.25 333.68 184.97 
M 376.92 136.81 366.96 149.59 360.63 157.01 
M 355.84 162.89 353.56 165.81 
M 349.06 171.54 346.81 174.35 
M 340.48 182.25 338.51 184.68 
M 332.37 191.26 331.2 192.31 
M 376.92 143.72 371.95 150.15 364.41 159.02 358.51 166.31 
M 356.26 169.18 354.03 171.98 
M 351.79 174.68 347.44 179.76 
M 345.35 182.18 341.34 186.81 
M 376.92 150.61 366.93 162.44 354.55 177.72 
M 352.4 180.12 346.17 186.81 
M 376.92 156.96 373.07 161.44 
M 370.66 164.34 365.99 170.09 
M 376.92 163.17 366.41 176.07 
M 376.92 169.57 369.15 179.21 
M 376.92 176.07 376.01 177.17 
M 183.1 79.16 184.57 79.33 
M 195.41 77.81 199.58 48.86 200.4 48.95 198.39 77.81 
M 207.67 76.09 212.23 38.91 213.05 38.99 210.66 75.99 
M 219.94 74.28 226.23 34.49 227.05 34.6 222.93 74.3 
M 232.32 73.3 241.79 30.44 242.6 30.6 235.29 73.55 
M 244.72 72.99 255.52 32.65 256.32 32.85 247.69 73.32 
M 257.11 73.1 267.81 34.51 268.61 34.71 260.07 73.47 
M 269.5 72.98 281.46 30 282.26 30.2 272.48 73.3 
M 281.91 73.06 293.5 38.96 294.29 39.2 284.84 73.61 
M 294.28 74.07 304.62 48.91 305.4 49.19 297.18 74.73 
M 306.61 75.42 314.91 58.03 315.67 58.34 309.49 76.17 
M 319.46 77.45 320.82 78.06 
M 185.19 79.26 189.16 73.73 191.05 70.83 194.36 64.78 196.98 58.38 199.16 51.76 
M 200.19 51.87 203.43 50.64 204.94 49.91 207.64 48.01 209.86 45.51 211.77 42.63 
M 212.81 42.73 215.98 42.79 219.01 42.38 221.79 41.25 223.09 40.43 225.6 38.47 
M 226.63 38.61 230.07 38.77 233.38 38.45 236.48 37.4 237.97 36.61 240.84 34.72 
M 241.87 34.92 244.51 36.37 245.86 36.93 248.63 37.51 251.5 37.35 254.44 36.69 
M 255.45 36.93 257.83 38.3 259.03 38.83 261.52 39.34 264.09 39.1 266.74 38.37 
M 267.75 38.62 270.88 38.66 273.84 38.23 276.56 37.09 277.83 36.26 280.27 34.29 
M 281.27 34.55 283.12 37.15 285.26 39.35 287.83 40.93 289.27 41.5 292.34 42.37 
M 293.34 42.68 294.93 45.43 295.83 46.68 297.98 48.77 300.62 50.29 303.59 51.42 
M 304.57 51.78 306 54.37 307.75 56.58 309.99 58.2 311.28 58.81 314.08 59.77 
M 315.04 60.16 315.2 64.4 315.84 68.49 317.2 72.36 318.15 74.22 320.34 77.84 
M 201.83 51.28 204.94 49.91 207.64 48.01 208.8 46.83 210.84 44.1 
M 202.11 57.3 204.5 56.25 206.56 54.79 207.45 53.89 209.01 51.8 
M 202.39 63.33 204.05 62.59 205.48 61.58 207.19 59.5 
M 214.41 42.79 217.52 42.67 219.01 42.38 221.79 41.25 224.36 39.48 
M 214.56 48.49 217.13 48.39 219.53 47.76 220.65 47.22 222.77 45.76 
M 214.71 54.19 217.7 53.92 219.51 53.18 221.18 52.04 
M 214.87 59.89 216.35 59.83 217.73 59.47 219.59 58.31 
M 228.36 38.72 231.75 38.69 233.38 38.45 236.48 37.4 239.41 35.7 
M 228.23 44.9 231.02 44.88 233.67 44.32 234.93 43.81 237.35 42.41 
M 228.09 51.08 230.29 51.06 231.35 50.9 233.37 50.22 235.28 49.12 
M 227.96 57.26 230.34 57.13 231.82 56.63 233.21 55.82 
M 243.18 35.68 245.86 36.93 248.63 37.51 250.05 37.52 252.96 37.05 
M 242.73 40.97 245.03 42.04 247.41 42.55 248.64 42.55 251.15 42.15 
M 242.28 46.26 244.21 47.16 245.2 47.44 247.23 47.58 249.33 47.25 
M 241.83 51.55 244.18 52.5 245.82 52.61 247.51 52.34 
M 241.38 56.84 242.56 57.39 243.78 57.65 245.69 57.44 
M 256.63 37.65 259.03 38.83 261.52 39.34 262.79 39.31 265.41 38.77 
M 255.89 43.91 257.86 44.88 258.88 45.17 260.97 45.27 263.13 44.83 
M 255.14 50.16 257.5 51.16 259.14 51.24 260.84 50.89 
M 254.39 56.42 255.53 56.98 256.71 57.22 258.56 56.95 
M 269.32 38.67 272.39 38.53 273.84 38.23 276.56 37.09 279.06 35.31 
M 268.52 44.75 271.05 44.63 272.25 44.39 274.49 43.44 276.55 41.97 
M 267.72 50.83 269.71 50.73 271.56 50.23 274.05 48.64 
M 266.92 56.9 268.38 56.84 269.73 56.47 271.55 55.31 
M 282.18 35.88 284.14 38.32 285.26 39.35 287.83 40.93 290.79 41.96 
M 281.3 42.45 282.91 44.47 283.83 45.32 285.96 46.62 288.4 47.47 
M 280.41 49.02 282.41 51.28 284.09 52.3 286.01 52.97 
M 279.53 55.59 280.99 57.24 282.22 57.99 283.62 58.48 
M 294.11 44.08 295.83 46.68 297.98 48.77 299.24 49.6 302.08 50.88 
M 293.04 51.07 294.35 53.06 296 54.67 296.97 55.3 299.15 56.28 
M 291.96 58.06 292.88 59.45 294.02 60.56 296.21 61.69 
M 305.26 53.1 306.82 55.54 307.75 56.58 309.99 58.2 312.66 59.31 
M 304.06 60.86 305.68 63.12 307.13 64.18 308.87 64.9 
M 181.21 138.64 285.51 136.38 285.53 137.21 181.27 141.53 
M 181.26 142.16 275.22 144.36 275.21 145.18 181.22 145.03 
M 181.21 145.67 264.74 151.42 264.7 152.24 181.07 148.53 
M 181.01 149.16 254.15 157.56 254.07 158.38 180.77 152 
M 180.72 152.62 243.5 162.78 243.38 163.6 180.46 155.45 
M 180.41 156.04 232.85 167.08 232.7 167.89 180.16 158.88 
M 180.19 159.47 222.27 170.46 222.08 171.27 180.33 162.38 
M 180.36 163 211.8 172.94 211.58 173.74 180.43 165.87 
M 180.41 166.54 201.52 174.52 201.26 175.31 180.37 169.3 
M 180.35 170.09 191.47 175.22 191.18 175.99 180.36 172.68 
M 180.36 172.82 181.72 173.76 181.39 174.52 180.37 174.3 
M 274.64 137.66 271.97 138.23 269.58 139.2 267.63 140.8 266.81 141.82 265.35 144.13 
M 265.34 145.17 262.7 145.51 260.32 146.28 258.33 147.7 257.48 148.65 255.93 150.81 
M 255.88 151.85 253.29 151.98 250.93 152.54 248.91 153.79 248.03 154.65 246.41 156.67 
M 246.3 157.71 243.79 157.62 241.46 157.98 239.43 159.05 236.83 161.7 
M 236.68 162.73 233.08 162.43 230.92 162.95 229.01 164.19 227.25 165.9 
M 227.06 166.92 223.6 166.32 221.48 166.65 219.54 167.73 217.73 169.28 
M 217.49 170.29 215.28 169.59 213.14 169.38 211.14 169.91 208.32 171.84 
M 208.03 172.84 205.95 171.95 203.91 171.55 201.94 171.92 199.07 173.59 
M 198.74 174.58 196.81 173.52 194.87 172.94 192.94 173.14 190.03 174.56 
M 189.66 175.53 187.21 173.45 185.39 172.79 183.39 172.88 181.27 173.45 
M 273.29 137.91 270.73 138.64 269.58 139.2 267.63 140.8 266.06 142.94 
M 250.72 138.84 248.75 139.4 247.88 139.83 246.38 141.05 245.18 142.7 
M 228.15 139.77 226.17 140.45 225.13 141.3 224.29 142.45 
M 264 145.31 261.47 145.82 260.32 146.28 258.33 147.7 256.69 149.7 
M 243.6 145.28 241.66 145.67 240.78 146.03 239.25 147.12 237.99 148.65 
M 223.2 145.25 221.23 145.77 220.17 146.53 219.29 147.6 
M 254.57 151.88 252.07 152.18 250.93 152.54 248.91 153.79 247.2 155.63 
M 227.26 150.7 224.9 151.13 223.59 151.94 222.48 153.13 
M 245.03 157.63 242.59 157.72 241.46 157.98 239.43 159.05 237.66 160.74 
M 221.07 155.59 218.74 155.82 217.43 156.51 216.28 157.61 
M 235.45 162.55 233.08 162.43 231.97 162.6 229.94 163.49 228.12 165.01 
M 214.84 159.94 213.3 159.87 211.89 160.2 210.07 161.54 
M 225.88 166.64 223.6 166.32 221.48 166.65 220.49 167.11 218.63 168.47 
M 216.38 169.91 214.19 169.4 213.14 169.38 211.14 169.91 209.24 171.11 
M 225.79 204.04 249.79 234.5 249.15 235.03 223.5 205.95 
M 224.25 203.9 224.84 204.83 
M 231.02 214.47 249.36 243.08 248.67 243.54 221.78 205.56 
M 222.69 203.77 223.14 204.65 
M 228.29 214.76 247.34 252.13 246.61 252.52 220.07 205.17 
M 221.13 203.65 221.44 204.44 
M 225.49 214.85 243.66 261.44 242.9 261.76 218.37 204.78 
M 219.54 203.53 219.74 204.22 
M 222.68 214.77 238.27 270.76 237.48 270.99 216.69 204.37 
M 218.09 203.44 218.18 203.93 
M 220.19 215.58 231.31 279.84 230.49 280 215.17 203.99 
M 246.59 232.12 245.58 233.72 245.08 235.31 245.33 236.86 246.84 239.16 
M 245.98 239.74 244.2 242.05 243.76 243.7 244.07 245.47 244.87 247.3 
M 243.96 247.79 242.38 249.21 241.28 250.79 240.9 252.6 241.41 255.66 
M 240.45 256.06 238.6 257.35 237.2 258.87 236.47 260.73 236.4 264.03 
M 235.4 264.33 232.42 266.14 231.05 267.78 230.31 269.85 229.98 272.2 
M 246.05 232.92 245.24 234.52 245.08 235.31 245.33 236.86 246.25 238.4 
M 242.16 228.01 241.5 229.33 241.36 229.98 241.57 231.26 242.33 232.53 
M 238.27 223.1 237.75 224.14 237.66 225.16 238.4 226.66 
M 234.38 218.19 233.92 219.32 234.04 220.06 234.48 220.79 
M 245.3 240.5 244.2 242.05 243.76 243.7 243.83 244.57 244.44 246.38 
M 242.07 235.47 241.12 236.81 240.84 237.51 240.8 238.98 241.32 240.53 
M 238.83 230.45 238.04 231.57 237.81 232.15 237.77 233.38 238.21 234.68 
M 235.6 225.42 234.96 226.32 234.7 227.28 235.1 228.83 
M 232.36 220.4 231.88 221.08 231.68 221.81 231.98 222.98 
M 243.14 248.49 241.75 249.97 241.28 250.79 240.9 252.6 241.15 254.61 
M 240.5 243.34 239.28 244.65 238.86 245.37 238.52 246.97 238.75 248.75 
M 237.87 238.19 236.8 239.33 236.44 239.95 236.15 241.34 236.35 242.88 
M 235.24 233.04 234.03 234.53 233.78 235.71 233.95 237.02 
M 232.6 227.89 231.86 228.68 231.46 229.58 231.55 231.15 
M 229.97 222.74 229.2 223.69 229.04 224.45 229.14 225.29 
M 239.49 256.69 237.82 258.07 237.2 258.87 236.47 260.73 236.35 262.89 
M 237.44 251.43 235.93 252.67 235.37 253.39 234.72 255.06 234.61 257.01 
M 235.38 246.17 234.04 247.27 233.54 247.91 232.97 249.4 232.86 251.13 
M 233.32 240.91 232.16 241.87 231.72 242.43 231.21 243.73 231.12 245.25 
M 231.27 235.65 230.27 236.47 229.62 237.48 229.38 239.37 
M 229.21 230.39 228.38 231.08 227.84 231.92 227.64 233.49 
M 227.16 225.12 226.49 225.68 226.06 226.35 225.9 227.61 
M 234.34 264.88 232.42 266.14 231.05 267.78 230.61 268.77 230.12 271.01 
M 232.85 259.54 231.1 260.69 229.86 262.18 229.45 263.08 229.01 265.13 
M 231.37 254.2 229.79 255.24 228.66 256.59 228.3 257.4 227.89 259.25 
M 229.88 248.86 228.47 249.79 227.91 250.35 227.14 251.72 226.77 253.37 
M 228.4 243.51 227.15 244.33 226.26 245.4 225.66 247.5 
M 226.91 238.17 225.84 238.88 225.07 239.8 224.54 241.62 
M 225.43 232.83 224.16 233.79 223.66 234.68 223.43 235.74 
M 223.95 227.49 222.91 228.27 222.5 228.99 222.31 229.86 
M 338.09 196.28 340.93 202.58 340.24 203.03 335.6 197.92 
M 325.97 198.87 329.15 205.62 328.46 206.07 323.49 200.51 
M 313.89 201.47 317.52 209.83 316.81 210.25 311.32 202.97 
M 301.6 202.65 305.78 213.77 305.04 214.13 298.92 203.94 
M 289.24 203.16 294.65 217.97 293.89 218.31 286.52 204.37 
M 276.86 203.31 284.05 222.8 283.29 223.13 274.12 204.48 
M 264.45 203.28 274.77 228.11 274.02 228.46 261.75 204.53 
M 258.03 203.59 272.45 234.52 271.71 234.9 255.37 204.93 
M 339.78 202.52 337.12 202.02 334.56 202.01 332.17 202.74 331.03 203.37 328.83 204.94 
M 327.96 205.52 325.23 205.28 322.66 205.51 320.32 206.47 319.23 207.21 317.16 209 
M 316.26 209.52 313.54 209.2 310.97 209.35 308.6 210.24 307.49 210.94 305.36 212.66 
M 304.43 213.11 301.8 212.85 299.33 213.07 297.1 214.01 296.07 214.73 294.11 216.49 
M 293.16 216.92 290.58 216.8 288.18 217.16 286.07 218.21 285.12 218.99 283.33 220.85 
M 282.37 221.26 279.98 221.29 277.8 221.75 275.97 222.9 273.74 225.63 
M 272.79 226.07 271.39 226.92 270.46 227.94 270.24 229.19 271.01 231.43 
M 314.89 209.33 312.23 209.19 310.97 209.35 308.6 210.24 306.42 211.77 
M 303.1 212.95 300.54 212.88 299.33 213.07 297.1 214.01 295.08 215.58 
M 291.85 216.83 289.35 216.9 288.18 217.16 286.07 218.21 284.21 219.89 
M 281.16 221.24 278.85 221.44 277.8 221.75 275.97 222.9 274.44 224.64 
M 277.01 215.17 274.82 215.5 273.63 216.25 272.64 217.38 
M 272.06 226.48 270.84 227.4 270.26 228.53 270.24 229.19 270.67 230.66 
M 269.22 221.26 268.29 221.96 267.84 222.83 267.83 223.33 268.16 224.45 
M 266.38 216.03 265.53 216.8 265.42 217.47 265.64 218.25 
M 376.92 100.12 379.07 98.7 380.85 96.88 384.1 93.01 385.6 91.55 393.35 82.77 395.21 81.22 397.46 79.72 398.4 78.71 399.52 76.85 403.65 73.6 406.77 72.1 408.64 70.59 413.74 67.13 417.86 64.85 420.98 64.49 422.86 63.72 427.11 62.61 430.43 61.43 433.86 60.44 436.45 60.78 440.03 58.22 443.31 57.51 446.15 57.55 448.69 57.97 450.01 64.5 450.12 69.86 449.94 72.3 449.4 73.99 450.98 77.23 451.49 79.41 452.84 82.42 452.06 84.74 450.52 86.43 449.26 88.4 447.45 89.93 446.78 92.6 445.66 94.82 444.82 97.3 444.37 100.03 442.29 104.33 441.01 106.53 439.33 108.36 437.49 110.02 436.02 112.06 434.65 114.14 433.81 116.71 432.41 118.71 428.35 121.56 426.49 123.19 423.02 126.72 421.97 129.17 419.97 130.67 418.84 133.05 417.35 135.06 415.19 136.35 412.78 137.32 410.05 137.98 406.3 140.98 404.28 142.3 398.26 142.95 399.52 145.14 405.41 150.44 407.28 151.27 412.52 154.42 416.41 156.35 419.17 158.2 422.77 159.99 425.04 161.95 425.78 163.14 437.35 178.7 438.06 180.19 440.43 184.12 442.97 189.13 444.72 193.36 446.64 196.01 450.93 202.69 451.78 205.18 452.01 207.05 452.85 209.54 451.33 213.71 450.81 216.07 452.64 221.61 453.08 223.55 448.74 230.9 446.17 230.14 441.91 229.43 438.81 229.91 435.84 229.33 434.13 228.41 431.41 227.64 429.03 227.21 426.97 225.11 425.43 223.09 423.7 222.26 421.02 221.91 415.25 219.89 412.99 218.68 410.74 216.11 408.77 215.98 406.86 215.34 404.83 214.15 401.03 211.05 395.8 207.23 394.04 204.45 390.73 200.54 389.34 198.24 387.82 196.27 384.3 192.45 379.45 184.63 376.92 181.61 
M 381.07 100.43 383.01 98.73 386.1 95.52 388.05 94.21 389.9 92 392.24 89.72 394.04 87.17 395.9 85.45 400.43 83.87 402.02 82.46 403.84 80.54 406.37 78.66 408.56 77.64 413.31 74.91 414.67 74.45 416.42 72.88 421.51 71.15 
M 379.45 105.54 383.22 102.37 389.19 97.76 391.05 96.06 395.88 92.38 399.57 89.24 401.74 88.35 404.52 87.83 408.71 83.61 411.41 82.98 414.15 81.88 415.11 80.54 416.29 80.58 420.12 79.91 423.66 78.57 426.34 77.24 
M 383.6 105.78 391.49 100.73 394.27 98.24 399.89 95.35 401.93 92.76 404 92.19 412.76 88.59 415.44 87.77 418.42 87.18 
M 381.86 110.97 386.11 108.77 390.08 105.84 392.98 104.66 394.74 102.88 396.67 101.43 401.57 98.77 408.4 96.66 411.76 95.8 414.35 94.47 419.31 93.46 420.76 93.51 423.07 93.08 
M 379.78 116.27 384.49 113.7 386.91 112.69 389.65 112.07 393.47 109.26 395.78 108 400.26 105.19 403.13 104.19 405.89 103.75 407.92 103.1 410.03 101.63 412.59 101.73 417.38 100.88 419.76 100.98 422.84 100.43 425.44 100.7 427.73 99.58 429.74 98.21 432.49 96.77 435.87 96.38 438.76 95.66 441.3 96.71 
M 382.11 119.05 384.62 117.69 387.32 116.63 392.58 115.35 394.57 114.39 397.16 113.58 399.55 112.43 405.47 109.04 408.26 107.88 410.53 107.54 413.32 107.92 415.93 108 417.6 106.71 420.5 105.85 423.23 106.01 430.51 104.27 433.12 104.54 436.57 103.9 439.88 104.58 
M 382.21 123.05 387.42 121.14 393.1 119.45 395.3 118.41 397.37 118.27 399.9 117.24 402.21 115.57 407.72 113.12 409.78 113.53 412.7 113.12 415.73 113.58 418.03 113.52 
M 376.92 127.51 379.88 127.5 382.43 126.79 385.22 126.28 392.8 123.5 395.05 122.5 397.2 122.92 399.55 122.03 402.21 121.5 
M 380.21 130.74 385.6 129.91 388.28 129.17 393.56 128.71 398.62 128.69 409.35 126.29 411.79 125.47 414.81 125.76 
M 376.92 134.36 380.11 134.38 382.76 133.85 391.4 133.14 394.63 133.22 398.99 134.61 402.25 135.03 406.03 134.71 411.78 134.58 414.37 134.2 
M 386.3 138.66 389.78 139.04 392.4 139.13 395.12 138.67 
M 382.74 143.7 386.77 143.79 390.72 144.35 
M 376.92 144.64 380.42 146.44 383.45 147.36 385.8 147.21 389.28 147.37 392.62 148.12 
M 376.92 148.06 380.15 149.91 382.97 151.02 391.4 152.54 396.55 153.91 
M 383.1 154.72 385.84 155.21 390.81 157.01 395.27 159.29 401.14 160.22 
M 383.04 158.39 387.51 160.21 389.62 160.82 395.47 163.41 398.05 164.71 400.58 165.36 406.1 167.35 408.85 168.01 411.64 167.5 
M 376.92 158.33 380.04 160.7 382.46 162.18 390.24 165.01 392.46 166.06 397.04 168.82 399.19 169.69 401.09 171.01 406.27 174.11 409.37 173.03 412.56 172.45 416.18 172.52 418.54 173.48 420.74 175.06 
M 376.92 161.76 381.69 166.25 390.51 169.4 392.52 170.46 396 173.48 398.1 174.42 403.26 177.4 405.81 178.61 407.88 178.57 410.87 179.44 413.6 180.6 416.41 181.37 
M 379.32 167.77 381.5 169.79 384.09 171.18 386.75 172.12 389.07 173.26 393.41 176.91 398.49 179.89 400.62 181.35 402.58 182.38 405.54 183.07 407.4 184.25 409.23 185.68 411.6 186.44 414.69 186.72 416.49 188.35 419.49 189.32 424.53 190.68 427.09 191.63 
M 384.27 174.53 387.43 177.81 389.71 179.63 395.12 183.51 397.93 184.8 400.3 186.74 409.45 190.99 412.9 194.19 415.88 194.24 418.16 195.09 419.55 196.28 421.98 197.05 425.22 196.98 429.03 197.44 
M 382.25 176.59 384.33 178.64 385.6 180.76 387.62 182.27 389.69 184.2 392.05 186.71 395 188.56 397.69 189.98 401.21 193.1 405.34 194.85 407.34 196.02 410.12 198.63 412.1 199.89 415.02 201.29 417.24 201.95 420.32 203.52 426.24 204.98 428.82 205.77 435.66 205.99 438.48 206.37 441.09 207.17 
M 376.92 175.46 381.93 180.47 385.44 185.09 389.32 189.01 393.63 192.16 396.26 193.22 397.91 194.97 399.72 196.42 401.7 197.65 403.58 199.54 405.77 200.77 407.45 203.04 410.3 204.33 412.83 205.92 415.07 206.91 417.13 209.16 
M 379.5 181.89 381.71 184.18 384.85 189.19 388.64 192.68 393.67 198.08 395.66 199.9 408.35 210.47 417.36 215.83 419.83 216.75 
M 344.86 83.25 347.43 87.72 362.65 66.64 356.7 88.24 352.88 85.06 
M 348.89 84.16 352.85 81.58 356.52 77.28 
M 92.35 119.85 92.33 119.54 92.89 118.14 94.18 116.33 96.32 114.07 99.25 111.76 106.92 106.94 111.65 104.25 116.99 101.6 129.19 96.23 135.66 93.74 158.7 86.06 163.04 84.79 168.52 83.69 171.81 89.28 173.39 95.02 175.2 100.73 177.21 106.43 178.81 112.16 179.83 117.94 181.3 129.52 181.12 135.38 181.28 141.22 181.19 147.07 180.16 158.84 180.45 164.67 180.38 176.37 179.9 182.25 178.8 188.18 176.58 194.12 164.65 193.37 155.97 191.77 148.45 189.19 141.38 186.23 134.54 182.31 128.35 177.84 117.39 168.99 112.64 163.89 108.39 158.55 
M 158 114.26 158.34 119.23 156.81 128.6 155.76 132.8 153.43 140.38 153.41 143.83 153.6 147.27 155.34 154.93 156.15 159.43 156.2 164.58 148.32 164.95 142.58 164.9 137.25 164.11 131.8 162.87 126.22 160.51 120.99 157.25 116.13 153.52 
M 107.21 158.04 101.37 146.13 96.48 134.77 90.9 123.75 90.34 121.74 91.37 119.94 93.35 119.75 94.91 121.06 99.63 132.29 104.57 148.01 106.08 151.88 108.45 158.73 
M 107.89 159.28 94.32 154.75 82.54 150.57 76.82 148.34 69.22 146.07 67.42 145.2 66.91 143.26 68.02 141.53 70.02 141.19 79.31 144.97 96.06 153.06 108.23 158.51 
M 122.92 127.57 119.74 123.12 118.18 117.87 118.4 112.4 120.4 107.29 123.93 103.11 128.64 100.31 134 99.19 139.43 99.87 144.35 102.27 148.23 106.14 150.63 111.06 151.31 116.5 150.18 121.86 147.38 126.56 143.2 130.1 138.1 132.09 132.63 132.32 127.38 130.75 122.92 127.57 
M 145.52 108.08 147.44 112.01 147.98 116.36 147.08 120.65 144.84 124.41 141.5 127.24 137.42 128.83 133.04 129.02 128.84 127.77 125.28 125.22 
M 129.36 119.9 128.09 118.11 127.46 116.01 127.55 113.82 128.35 111.78 129.77 110.11 131.65 108.99 133.79 108.54 135.97 108.81 137.93 109.77 139.48 111.32 140.44 113.29 140.72 115.46 140.27 117.61 139.14 119.49 137.47 120.91 135.43 121.7 133.24 121.79 131.14 121.17 129.36 119.9 
M 129.2 119.07 131.36 121.23 
M 130.39 118.03 134.12 121.76 
M 131.13 116.54 136.05 121.46 
M 131.58 114.76 137.61 120.79 
M 134.28 115.23 138.82 119.77 
M 131.53 110.25 139.75 118.47 
M 134.74 111.23 140.41 116.9 
M 134.67 108.93 140.65 114.9 
M 138.61 110.64 139.66 111.69 
M 106.91 154.18 108.21 155.48 
M 92.35 119.79 92.4 119.84 
M 95.8 123.25 97.1 124.54 
M 94.04 116.53 98.86 121.35 
M 96.44 113.98 99.43 116.97 
M 99.21 111.79 102.41 114.99 
M 102.25 109.87 106.54 114.17 
M 105.29 107.96 109.87 112.54 
M 108.4 106.11 113.15 110.86 
M 111.55 104.31 114.12 106.87 
M 114.86 102.66 117.95 105.75 
M 118.22 101.07 121.68 104.52 
M 121.68 99.56 124.75 102.63 
M 125.11 98.04 127.85 100.78 
M 128.54 96.52 131.22 99.2 
M 132.09 95.11 135.58 98.6 
M 135.67 93.73 139.16 97.22 
M 139.37 92.48 142.66 95.76 
M 143.08 91.23 146.11 94.26 
M 146.84 90.03 149.59 92.78 
M 150.56 88.8 155.41 93.65 
M 154.26 87.54 158.41 91.69 
M 157.98 86.3 162.12 90.44 
M 161.79 85.16 165.64 89.01 
M 165.77 84.18 168.72 87.14 
M 171.06 129.86 170.48 128.46 169.06 127.24 167.67 126.7 165.12 126.14 163.08 125.24 162.53 125.21 
M 144.39 129.63 144.05 130.16 144.05 130.57 145.19 131.97 146.15 132.48 146.81 132.55 148.28 132.12 
M 116.45 118.02 118.47 119.76 
M 141.09 91.89 141.67 92.35 142.73 92.52 143.46 92.27 144.04 91.7 
M 152.83 118.33 150.85 118.67 
M 150.57 186.79 150.12 185.76 149.66 185.29 147.08 184.28 146.11 183.53 145.75 183.03 
M 123.86 139.9 121.6 138.92 121.24 138.57 120.77 137.31 120.78 135.81 120.58 135.43 119.9 134.84 119.14 134.63 
M 137.24 145.22 137.35 144.38 137.98 143.67 
M 154.71 112.53 154.26 113.17 153.27 113.59 150.89 113.11 
M 149.49 178.77 147.63 178.23 142.24 177.54 
M 163.65 182.32 161.83 183.2 161.1 183.4 160.47 183.37 159.83 183.04 157.88 181.08 156.22 179.86 154.63 178.97 154.27 178.52 
M 175.02 103.73 173.73 102.94 171.5 101.07 170.56 100.08 168.37 97.08 168.09 96.34 168.05 95.49 
M 164.73 189.49 165.86 191.69 167.19 193.53 
M 135.05 134.39 135.17 135.13 136.09 136.73 
M 148.74 96.72 150.69 100.36 151.02 101.94 150.9 103.36 
M 158.36 94.28 156.3 90.4 155.93 89.11 155.72 87.05 
M 99.5 131.97 99.64 130.82 99.52 130.32 98.68 128.79 
M 158.89 118.89 158.49 119.96 158.85 121.58 159.32 122.47 160.58 124.08 161.06 125.9 
M 123.38 142.01 122.25 141.6 120.96 140.26 120.74 138.6 
M 158.37 145.54 159.51 145.38 161.43 145.99 161.72 146.44 161.3 147.29 
M 176.32 161.58 175.89 159.96 175.91 159.1 176.14 157.75 176.97 155.65 177.13 154.69 
M 177.26 183.72 176.77 182.78 176.99 181.64 176.96 179.67 
M 170.95 100.28 168.68 97.32 168.35 96.69 168.17 95.88 168.29 93.4 167.69 90 
M 166.7 107.27 165 106.55 163.67 105.54 163.22 104.59 163.53 102.96 
M 140.38 169.03 140.11 168.16 140.21 167.35 140.6 166.61 142.98 164.72 143.53 164.04 144.2 162.53 144.49 160.32 143.78 158.02 
M 161.97 115.58 161.34 117.19 160.21 118.61 160.01 119.14 160.19 119.94 161.51 120.61 
M 167.15 163.03 160.96 162.03 160.58 161.9 160.14 161.5 160.08 161.12 160.26 160.84 
M 122.84 173.48 123.4 172.04 
M 122.17 105.01 121.43 103.82 118.41 100.99 
M 142.99 184.25 143.99 183.54 144.27 183.13 144.72 181.63 144.69 180.64 143.89 179.02 
M 163.06 164.99 159.92 162.34 159.74 161.91 159.77 161.26 160.39 160.67 
M 175.31 106.19 171.57 107.51 169.95 108.91 168.66 109.03 
M 128.56 177.55 127.98 177.54 
M 125.43 175.53 126.87 173.22 
M 115.64 162.19 115.4 160.76 115.68 158.7 115.64 157.76 
M 144.59 187.57 144.77 187.48 
M 162.38 174.47 163.31 174.54 163.89 174.11 
M 166.11 170.98 166.33 169.88 166 168.9 165.19 168.36 162.96 167.75 162.16 167.01 161.7 166 
M 170.43 112.85 169.72 112.7 169.46 112.26 
M 103.73 145.4 103.9 145.33 
M 111.67 134.01 109.27 133.63 105.08 133.38 103.54 132.57 102.76 131.74 102.2 130.82 
M 161.26 89.52 161.24 88.19 160.62 85.5 
M 151.88 116.45 151.28 116.25 
M 114.35 159.87 115.36 157.94 115.71 157.53 
M 155.21 99.05 156.83 97.67 157.29 96.48 157.33 95.22 156.55 92.72 
M 128.92 134.15 128.28 133.8 127.56 132.98 126 131.89 123.22 131.1 121.05 131.01 
M 156.27 89.21 155.93 86.98 
M 168.3 122.68 166.65 122.08 164.9 121.74 163.31 121.19 162.22 121.09 
M 173.2 157.16 173.59 155.41 173.52 154.43 173.01 153.8 171.5 153.05 168.31 152.58 165.75 151.74 
M 148.99 94.12 150.61 95.1 151.14 95.18 151.49 94.87 153.09 92.51 
M 114.13 148.33 113.69 151.18 113.24 151.9 112.65 152.1 
M 118.6 106.16 118.94 105.12 118.72 104.39 118.21 103.89 116.95 103.09 
M 178.96 140.49 178.22 139.69 177.92 139.05 177.85 138.2 178.09 137.13 
M 167.78 153.38 167.26 153.05 166.68 152.31 165.98 151.91 161.38 151.24 
M 98.68 113.33 97.42 113.97 96.11 114.3 
M 145.25 187.85 145.94 186.92 145.73 185.83 
M 177.44 115.93 175.68 115 173.13 113.13 172.34 112.36 170.69 111.26 
M 158.72 101.1 159.87 99.97 161.78 96.3 162.93 94.98 163.38 92.94 163.37 91.17 
M 156.46 164.21 155.34 162.61 155.35 162.09 155.88 161.39 156.25 161.13 158.37 160.48 160.65 160.19 
M 172.79 155.04 172.48 154.3 171.99 153.83 171.32 153.49 170.55 153.24 169.08 153.08 167.74 152.68 166.44 151.93 164.42 151.57 
M 115.07 117.07 116.61 118.24 
M 162.25 140.22 161.25 139.44 
M 155.91 124.04 160.2 126.82 160.88 127.71 160.99 128.57 
M 125.18 129.18 122.51 129.47 120.96 130.19 
M 170.93 189.33 170.4 193.22 170.55 193.74 
M 156.64 169.83 158.97 171.86 159.72 173.4 160.82 175.08 
M 151.18 178.69 147.86 177.5 145.97 177.33 143.02 176.49 
M 120.79 125.87 120.69 128.61 119.79 131.01 
M 159.7 103.15 161.71 102.78 162.68 102.2 162.95 101.75 163.07 100.22 162.68 98.08 162.69 96.78 
M 174 96.93 172.37 93.84 170.5 91.36 169.81 89.41 168.45 88.14 
M 119.1 126.35 119.77 128.86 119.88 130.07 119.71 130.74 118.94 131.8 
M 168.01 125.42 164.27 124.29 162.8 124.16 162.28 124.35 161.61 125.08 161.46 125.83 161.55 126.63 
M 171.25 150.78 167.9 151.68 167.25 151.72 161.97 151.37 
M 173.03 94.12 172.06 92.9 171.02 91.94 170.54 91.24 169.79 89.33 168.42 88.08 167.38 86.58 166.33 85.66 164.8 85.03 
M 163.65 118.52 163.47 119.52 162.88 120.15 
M 99.37 116.2 97.27 116.65 94 116.59 
M 171.21 157.54 170.75 157.11 169.47 156.54 165.08 155.23 163.76 154.2 
M 176.27 129.66 175.56 126.36 174.92 125.33 174.94 125 
M 110.15 114.41 111.65 113.01 112.33 113.06 113.65 113.56 
M 151.08 165.35 150.03 166.01 148.08 166.86 147.53 167.37 
M 174.54 186.23 173.8 187.26 173.82 188.58 174 189.5 175.42 192.67 176.03 193.66 176.5 194.06 
M 113.33 147.69 113.73 148.5 113.86 150.26 113.44 151.66 112.82 152.09 
M 152.79 167.61 151.92 167.11 151.15 167.15 150.26 167.7 150.14 168.1 150.26 168.37 
M 104.57 115.23 106.89 114.19 107.87 113.47 108.25 112.76 108.25 112.17 107.4 110.93 
M 122.47 133.78 120.23 133.64 119.26 133.77 118.29 134.22 117.78 135.08 
M 172.47 91.66 171.53 91.29 170.82 90.66 
M 144.05 144.17 142.91 144.62 141.82 145.77 140.73 147.26 138.57 149.22 136.64 152.41 
M 104.21 119.15 101.99 118.67 101.06 118.92 
M 137.48 171.31 136.64 170.85 136.03 170.98 135.49 171.47 134.75 172.56 132.97 173.89 
M 155.46 160.93 156.3 160.58 157.43 160.36 160.23 160.12 160.72 160.15 160.86 160.31 
M 111.16 154.13 109.66 151.18 109.82 150.92 110.27 150.69 110.99 150.71 
M 149.76 177.48 148.11 177.03 145.57 176.74 143.43 175.61 142.74 175.45 
M 159.8 153.57 160.46 153.34 160.64 151.99 160.53 151.64 
M 108.25 158.12 108.89 159.62 
M 103.01 149.48 102.96 149.62 103.06 149.58 
M 101.32 146.01 101.09 146.54 101.47 146.33 
M 99.78 142.48 99.22 143.46 100.02 143.03 
M 98.34 139.03 97.89 139.38 97.35 140.38 98.08 139.84 98.66 139.76 
M 96.85 135.64 96.13 136.17 95.49 137.3 96.32 136.63 97.2 136.47 
M 95.27 132.34 94.36 132.97 93.62 134.22 94.56 133.42 95.71 133.18 
M 93.53 129.14 92.6 129.76 91.75 131.14 92.79 130.21 93.97 129.94 
M 91.94 125.85 90.84 126.55 89.88 128.06 91.03 127.01 92.34 126.68 
M 90.54 122.44 89.07 123.34 88.01 124.98 89.27 123.8 90.8 123.39 
M 108.15 158.69 109.33 159.17 
M 105 157.01 105.26 157 105.36 157.17 
M 101.32 155.35 101.96 155.13 102.02 155.68 
M 97.76 153.75 98.66 153.27 98.56 154.09 
M 94.21 152.18 94.63 151.74 95.36 151.4 95.09 151.93 95.09 152.6 
M 90.81 150.46 91.2 149.99 92.06 149.54 91.66 150.17 91.62 150.84 
M 87.33 148.84 87.78 148.23 88.76 147.67 88.24 148.42 88.15 149.19 
M 83.85 147.2 84.35 146.48 85.46 145.81 84.81 146.66 84.66 147.62 
M 80.41 145.51 80.93 144.72 82.16 143.94 81.39 144.9 81.21 145.89 
M 76.9 143.92 77.5 142.96 78.86 142.08 77.96 143.15 77.73 144.27 
M 73.32 142.47 74.07 141.21 75.56 140.22 74.53 141.39 74.21 142.83 
M 69.6 141.26 70.65 139.45 72.26 138.35 71.11 139.64 70.68 141.44 
M 75.05 147.78 80.46 151.99 86.18 155.99 91.84 159.65 97.64 163.08 103.62 166.03 109.81 168.64 122.67 173.35 
M 109.49 168.5 109.1 167.65 108.06 166.27 105.95 164.54 103.6 163.08 103.23 162.62 
M 172.21 90.72 174.18 92.69 
M 170.96 82.86 180.07 91.98 
M 175.91 81.21 184.69 89.99 
M 181.32 80.01 189.77 88.46 
M 186.97 79.05 194.88 86.96 
M 192.9 78.37 198.39 83.86 
M 198.89 77.76 204.71 83.58 
M 204.68 76.94 211.31 83.57 
M 210.38 76.03 219.27 84.92 
M 216.08 75.12 223.76 82.8 
M 221.98 74.41 229.06 81.49 
M 228.07 73.89 233.54 79.37 
M 234.35 73.57 243.35 82.57 
M 240.79 73.4 249.1 81.71 
M 247.32 73.33 256.02 82.03 
M 254 73.4 259.23 78.63 
M 260.69 73.48 266.86 79.65 
M 267.27 73.45 277.13 83.31 
M 273.72 73.29 281.6 81.17 
M 280.35 73.31 286.01 78.97 
M 287.44 73.79 296.59 82.94 
M 294.73 74.48 299.88 79.63 
M 302.15 75.29 308.97 82.11 
M 309.66 76.19 315.75 82.28 
M 317.52 77.45 323.85 83.77 
M 325.86 79.18 335.39 88.71 
M 334.37 81.08 340.45 87.16 
M 342.72 82.82 347.85 87.95 
M 351.19 84.68 358.91 92.4 
M 360.7 87.58 370.05 96.93 
M 177.67 191.22 179.38 194.64 
M 178.87 187.84 182.52 195.14 
M 179.65 183.62 185.72 195.75 
M 182.02 182.58 182.76 184.06 
M 183.5 185.54 189.01 196.57 
M 180.36 173.49 180.84 174.43 
M 184.53 181.82 190.44 193.64 
M 191.18 195.12 192.31 197.38 
M 183 172.97 184.09 175.15 
M 189.26 185.49 192.95 192.88 
M 193.69 194.36 194.43 195.84 
M 192.52 186.23 195.47 192.14 
M 194.55 172.94 195.04 173.93 
M 198.06 174.18 199.04 176.14 
M 201.25 180.57 201.99 182.05 
M 202.73 183.53 204.21 186.49 
M 204.95 187.96 205.69 189.44 
M 204.51 181.31 206.73 185.74 
M 207.47 187.22 208.94 190.17 
M 181.24 128.99 181.91 130.32 
M 202.61 171.73 203.33 173.17 
M 205.55 177.6 207.03 180.56 
M 207.77 182.04 212.94 192.38 
M 180.67 122.06 181.41 123.54 
M 207.27 175.25 216.13 192.98 
M 209.71 174.36 210.45 175.84 
M 211.19 177.31 219.31 193.57 
M 212.15 173.46 220.28 189.72 
M 171.03 85.43 176.2 95.77 
M 197.62 138.62 198.15 139.67 
M 216.09 175.56 219.79 182.95 
M 172.39 82.38 174.24 86.08 
M 174.98 87.55 179.41 96.42 
M 199.36 136.31 201 139.59 
M 217.83 173.25 218.57 174.73 
M 219.31 176.21 220.79 179.16 
M 221.52 180.64 222.26 182.12 
M 223.74 185.07 224.48 186.55 
M 225.96 189.51 226.7 190.98 
M 174.87 81.55 179.67 91.16 
M 181.15 94.11 181.89 95.59 
M 195.19 122.19 196.67 125.14 
M 198.14 128.1 199.62 131.05 
M 201.84 135.49 203.85 139.52 
M 227.69 187.2 229.91 191.63 
M 177.39 80.82 182.93 91.9 
M 183.67 93.38 184.41 94.85 
M 196.97 119.97 199.19 124.41 
M 199.93 125.88 201.4 128.84 
M 202.14 130.32 203.62 133.27 
M 204.36 134.75 206.71 139.44 
M 220.53 167.09 222.83 171.69 
M 227.26 180.55 234.65 195.33 
M 180.01 80.27 186.29 92.83 
M 197.38 115 198.11 116.48 
M 199.59 119.43 204.76 129.77 
M 206.98 134.21 209.56 139.37 
M 223.05 166.36 225.45 171.15 
M 228.4 177.06 237.27 194.79 
M 182.63 79.73 183 80.47 
M 183.74 81.95 186.7 87.86 
M 187.44 89.34 188.17 90.81 
M 191.13 96.73 194.08 102.64 
M 200 114.46 208.86 132.19 
M 210.34 135.14 212.41 139.29 
M 226.11 166.69 229.55 173.56 
M 231.02 176.51 239.89 194.24 
M 245.03 204.52 245.36 205.19 
M 185.28 79.25 186.39 81.47 
M 187.13 82.94 187.87 84.42 
M 188.61 85.9 190.08 88.85 
M 191.56 91.81 194.52 97.72 
M 195.26 99.2 197.47 103.63 
M 198.21 105.11 198.95 106.58 
M 201.91 112.49 210.03 128.75 
M 212.99 134.66 215.2 139.09 
M 228.15 164.98 229.98 168.64 
M 231.46 171.6 232.2 173.08 
M 233.67 176.03 235.15 178.99 
M 236.63 181.94 242.54 193.76 
M 246.23 201.15 248.16 205 
M 188.8 80.51 191.02 84.94 
M 193.24 89.37 202.1 107.1 
M 203.58 110.06 213.18 129.27 
M 230.22 163.34 231.65 166.21 
M 232.39 167.68 233.87 170.64 
M 236.09 175.07 243.47 189.85 
M 247.17 197.24 247.91 198.71 
M 248.64 200.19 250.93 204.77 
M 195.66 88.44 205.26 107.65 
M 206.74 110.6 213.39 123.9 
M 214.13 125.38 214.87 126.85 
M 232.69 162.49 234.81 166.75 
M 235.55 168.23 236.29 169.7 
M 239.99 177.09 240.72 178.57 
M 241.46 180.05 242.2 181.52 
M 242.94 183 244.42 185.96 
M 248.85 194.82 253.7 204.52 
M 198.03 87.4 205.42 102.18 
M 206.16 103.66 207.64 106.61 
M 209.11 109.57 209.85 111.05 
M 211.33 114 212.07 115.48 
M 213.55 118.43 216.5 124.34 
M 235.71 162.76 237.19 165.72 
M 251.23 193.79 256.47 204.28 
M 200.33 86.22 207.72 100.99 
M 208.46 102.47 209.93 105.42 
M 215.11 115.77 215.84 117.25 
M 237.62 160.79 238.01 161.57 
M 254.26 194.08 259.28 204.11 
M 204.02 87.81 209.19 98.15 
M 209.93 99.63 210.67 101.11 
M 256.47 192.72 257.95 195.67 
M 259.43 198.63 262.09 203.96 
M 207.61 89.21 210.57 95.12 
M 226.08 126.15 226.82 127.63 
M 227.56 129.11 229.77 133.54 
M 243.81 161.61 246.77 167.52 
M 260.8 195.6 264.52 203.03 
M 196.7 61.6 197.06 62.34 
M 210.36 88.94 211.1 90.41 
M 213.32 94.85 214.06 96.32 
M 227.35 122.92 234.74 137.7 
M 246.56 161.34 250.26 168.72 
M 251 170.2 251.73 171.68 
M 197.88 58.2 198.25 58.93 
M 215.25 92.92 215.98 94.4 
M 230.02 122.47 237.41 137.25 
M 247.75 157.93 249.23 160.89 
M 249.97 162.36 254.4 171.23 
M 199.02 54.68 201.6 59.85 
M 217.12 90.88 220.81 98.27 
M 232.63 121.91 233.37 123.39 
M 234.11 124.87 240.02 136.69 
M 248.89 154.42 250.36 157.37 
M 251.1 158.85 254.8 166.24 
M 255.53 167.71 257.01 170.67 
M 201.51 53.88 204.09 59.05 
M 210 70.87 212.22 75.3 
M 218.13 87.12 218.87 88.6 
M 219.61 90.08 224.04 98.94 
M 235.12 121.11 243.25 137.36 
M 252.85 156.57 258.02 166.91 
M 203.9 52.89 205.75 56.59 
M 210.18 65.45 210.92 66.93 
M 211.66 68.41 216.09 77.27 
M 221.27 87.61 227.18 99.43 
M 236.78 118.64 244.17 133.42 
M 255.25 155.58 258.2 161.49 
M 258.94 162.97 260.42 165.93 
M 268.55 182.18 269.29 183.66 
M 278.97 203.03 279.43 203.94 
M 206.16 51.63 207.27 53.85 
M 210.97 61.23 218.35 76.01 
M 223.53 86.35 229.44 98.17 
M 239.04 117.38 246.43 132.16 
M 258.25 155.8 258.99 157.28 
M 268.59 176.48 270.07 179.44 
M 270.81 180.92 273.02 185.35 
M 208.2 49.92 209.31 52.13 
M 213.74 61 221.87 77.25 
M 225.56 84.64 229.99 93.51 
M 230.73 94.98 231.47 96.46 
M 243.29 120.1 245.51 124.54 
M 271.37 176.25 276.54 186.59 
M 215.56 58.85 222.94 73.62 
M 228.12 83.97 230.33 88.4 
M 231.07 89.88 233.29 94.31 
M 271.7 171.14 279.09 185.92 
M 211.66 45.28 213.51 48.97 
M 214.25 50.45 215.73 53.41 
M 217.94 57.84 219.42 60.79 
M 220.16 62.27 226.07 74.09 
M 274.83 171.61 282.22 186.39 
M 287.39 196.73 288.13 198.21 
M 288.87 199.69 290.42 202.79 
M 214.55 45.27 214.92 46.01 
M 215.66 47.49 219.35 54.87 
M 221.57 59.31 228.22 72.6 
M 264.54 145.25 265.15 146.48 
M 265.89 147.96 266.63 149.44 
M 275.5 167.17 276.24 168.65 
M 276.98 170.12 284.36 184.9 
M 288.8 193.77 293.28 202.74 
M 217.38 45.16 222.18 54.76 
M 237.7 85.79 243.61 97.61 
M 266.18 142.76 266.51 143.42 
M 267.25 144.89 270.21 150.8 
M 279.07 168.53 279.81 170.01 
M 280.55 171.49 286.46 183.31 
M 289.41 189.22 296.55 203.49 
M 219.97 44.54 224.03 52.67 
M 239.54 83.7 241.02 86.65 
M 241.76 88.13 246.93 98.47 
M 264.66 133.93 266.14 136.89 
M 267.94 140.5 273.53 151.66 
M 282.39 169.39 283.87 172.35 
M 285.35 175.31 287.56 179.74 
M 291.26 187.13 299.37 203.34 
M 222.29 43.41 224.88 48.58 
M 225.62 50.06 227.09 53.01 
M 241.87 82.57 243.35 85.52 
M 244.09 87 250 98.82 
M 267.73 134.28 269.48 137.79 
M 270.07 138.96 274.38 147.58 
M 294.32 187.47 302.18 203.19 
M 224.43 41.9 227.75 48.55 
M 228.49 50.03 229.23 51.51 
M 244.01 81.06 250.66 94.36 
M 269.13 131.3 269.86 132.77 
M 270.6 134.25 272.34 137.72 
M 272.52 138.09 277.25 147.55 
M 277.99 149.03 278.73 150.5 
M 297.94 188.92 304.6 202.25 
M 226.92 41.1 229.51 46.28 
M 247.24 81.74 251.67 90.6 
M 252.41 92.08 253.15 93.56 
M 272.36 131.98 279 145.27 
M 293.78 174.83 294.52 176.3 
M 300.43 188.12 304.12 195.51 
M 304.86 196.99 307.73 202.73 
M 229.88 41.24 230.25 41.98 
M 250.94 83.35 253.15 87.79 
M 253.89 89.26 255.37 92.22 
M 274.58 130.63 280.49 142.46 
M 281.96 145.41 282.7 146.89 
M 293.05 167.57 294.52 170.53 
M 296.74 174.96 297.48 176.44 
M 302.65 186.78 307.82 197.13 
M 253.72 83.15 254.46 84.62 
M 263.33 102.35 264.07 103.83 
M 264.8 105.31 265.54 106.79 
M 278.84 133.38 279.58 134.86 
M 281.06 137.82 281.8 139.29 
M 295.09 165.89 299.53 174.75 
M 300.27 176.23 301 177.71 
M 306.92 189.53 309.87 195.44 
M 243.73 57.38 249.64 69.2 
M 264.42 98.75 269.59 109.09 
M 282.15 134.21 282.89 135.69 
M 296.92 163.76 302.83 175.58 
M 246.08 56.29 248.29 60.72 
M 249.03 62.2 252.72 69.58 
M 265.28 94.7 266.76 97.66 
M 267.5 99.14 272.67 109.48 
M 278.58 121.3 279.32 122.78 
M 281.54 127.21 282.28 128.69 
M 288.19 140.51 291.88 147.9 
M 292.62 149.37 293.36 150.85 
M 297.05 158.24 306.66 177.45 
M 317.92 199.97 318.47 201.08 
M 249.02 56.39 254.93 68.21 
M 268.23 94.81 275.62 109.59 
M 279.31 116.97 280.05 118.45 
M 280.79 119.93 285.96 130.27 
M 289.65 137.66 291.87 142.09 
M 292.61 143.57 296.3 150.96 
M 300 158.35 308.12 174.6 
M 316.25 190.85 317.73 193.81 
M 318.47 195.29 319.2 196.76 
M 319.94 198.24 320.7 199.76 
M 249.65 51.88 250.39 53.36 
M 251.13 54.83 257.78 68.13 
M 271.08 94.73 276.99 106.55 
M 280.68 113.94 281.42 115.41 
M 282.16 116.89 287.33 127.23 
M 288.07 128.71 289.55 131.67 
M 291.03 134.62 300.63 153.83 
M 303.58 159.74 310.23 173.04 
M 319.84 192.25 323.68 199.94 
M 252.66 52.11 259.31 65.41 
M 274.09 94.96 277.04 100.87 
M 282.21 111.22 282.95 112.69 
M 283.69 114.17 290.34 127.47 
M 292.56 131.9 294.03 134.86 
M 294.77 136.34 302.9 152.59 
M 305.85 158.5 311.76 170.32 
M 321.37 189.53 326.27 199.33 
M 255.77 52.55 257.25 55.51 
M 257.99 56.99 258.73 58.46 
M 259.47 59.94 260.94 62.9 
M 267.59 76.19 268.33 77.67 
M 278.67 98.36 279.41 99.83 
M 285.32 111.66 286.06 113.13 
M 286.8 114.61 293.45 127.91 
M 295.67 132.34 304.53 150.07 
M 308.96 158.94 309.7 160.42 
M 323.74 188.49 328.86 198.72 
M 260.72 56.67 261.46 58.15 
M 265.89 67.01 266.63 68.49 
M 267.37 69.97 268.85 72.92 
M 269.59 74.4 271.8 78.83 
M 288.06 111.34 288.8 112.82 
M 289.53 114.29 296.18 127.59 
M 298.4 132.03 301.35 137.94 
M 302.09 139.41 306.53 148.28 
M 325.73 186.7 331.48 198.19 
M 267.85 65.14 269.32 68.09 
M 270.06 69.57 275.23 79.91 
M 290.01 109.46 290.75 110.94 
M 291.49 112.42 296.66 122.76 
M 300.35 130.15 305.52 140.49 
M 306.26 141.97 307.74 144.93 
M 323.99 177.43 325.47 180.39 
M 329.17 187.78 329.9 189.25 
M 330.64 190.73 334.11 197.66 
M 269.48 62.61 273.17 70 
M 273.91 71.48 278.34 80.34 
M 293.86 111.37 299.03 121.72 
M 304.2 132.06 308.63 140.92 
M 309.37 142.4 310.11 143.88 
M 324.88 173.43 329.32 182.3 
M 330.06 183.77 330.79 185.25 
M 273.41 64.71 279.32 76.53 
M 314.79 147.45 315.53 148.93 
M 317.74 153.36 318.48 154.84 
M 326.61 171.1 334 185.87 
M 264.67 41.43 265.04 42.17 
M 275.38 62.86 281.29 74.68 
M 316.75 145.6 318.97 150.04 
M 319.71 151.51 323.4 158.9 
M 328.57 169.24 335.96 184.02 
M 267.71 41.73 268.45 43.21 
M 278.05 62.42 278.79 63.9 
M 279.53 65.37 283.22 72.76 
M 295.04 96.4 295.78 97.88 
M 303.91 114.13 304.65 115.61 
M 318.68 143.69 326.07 158.46 
M 331.24 168.8 334.2 174.71 
M 334.94 176.19 337.89 182.1 
M 340.85 188.01 341.59 189.49 
M 270.3 41.14 270.67 41.88 
M 281.02 62.57 281.75 64.04 
M 294.31 89.16 298.01 96.55 
M 298.75 98.03 300.22 100.98 
M 303.92 108.37 304.66 109.85 
M 306.13 112.8 306.87 114.28 
M 307.61 115.76 309.83 120.19 
M 321.65 143.83 326.82 154.18 
M 333.47 167.47 334.95 170.43 
M 336.42 173.39 340.12 180.77 
M 342.34 185.21 345.29 191.12 
M 346.03 192.59 346.89 194.32 
M 273.06 40.87 274.17 43.09 
M 295.59 85.94 302.98 100.71 
M 307.41 109.58 311.84 118.44 
M 312.58 119.92 313.32 121.4 
M 322.93 140.61 330.31 155.38 
M 338.44 171.64 340.66 176.07 
M 342.87 180.5 345.09 184.93 
M 345.83 186.41 350.03 194.81 
M 275.55 40.07 275.92 40.81 
M 289.22 67.41 289.96 68.88 
M 290.7 70.36 291.43 71.84 
M 297.34 83.66 298.08 85.14 
M 298.82 86.62 305.47 99.91 
M 307.69 104.35 315.08 119.12 
M 320.99 130.94 323.2 135.37 
M 326.16 141.29 332.81 154.58 
M 340.93 170.84 341.67 172.31 
M 346.1 181.18 352.68 194.33 
M 277.79 38.76 278.9 40.98 
M 281.85 46.89 283.33 49.85 
M 287.02 57.23 287.76 58.71 
M 289.98 63.14 295.89 74.96 
M 299.58 82.35 303.28 89.74 
M 304.01 91.22 306.97 97.13 
M 311.4 105.99 317.31 117.81 
M 321.01 125.2 326.92 137.02 
M 328.39 139.98 332.83 148.84 
M 347.6 178.39 348.34 179.87 
M 349.82 182.83 352.04 187.26 
M 352.77 188.74 355.24 193.67 
M 279.85 37.12 280.22 37.86 
M 283.92 45.24 287.61 52.63 
M 288.35 54.11 290.57 58.54 
M 291.31 60.02 299.43 76.27 
M 301.65 80.71 309.78 96.96 
M 313.47 104.35 318.64 114.69 
M 322.33 122.08 329.72 136.85 
M 333.42 144.24 334.89 147.2 
M 339.33 156.06 340.8 159.02 
M 341.54 160.49 343.02 163.45 
M 343.76 164.93 344.5 166.4 
M 348.93 175.27 349.67 176.75 
M 350.41 178.22 357.24 191.89 
M 284.97 41.57 286.08 43.79 
M 286.82 45.26 298.64 68.91 
M 299.38 70.38 301.6 74.82 
M 305.29 82.2 309.72 91.07 
M 310.46 92.55 311.94 95.5 
M 315.63 102.89 316.37 104.37 
M 317.85 107.32 318.59 108.8 
M 319.33 110.28 320.8 113.23 
M 325.24 122.1 331.15 133.92 
M 331.89 135.4 332.62 136.87 
M 340.75 153.13 341.49 154.61 
M 342.23 156.08 347.4 166.43 
M 353.31 178.25 354.05 179.72 
M 354.79 181.2 360.35 192.33 
M 289.02 43.88 302.68 71.21 
M 303.42 72.69 304.16 74.17 
M 310.07 85.99 311.55 88.94 
M 328.54 122.93 330.76 127.36 
M 331.5 128.84 332.97 131.79 
M 333.71 133.27 334.45 134.75 
M 343.32 152.48 351.44 168.73 
M 355.88 177.6 356.62 179.08 
M 358.83 183.51 362.81 191.47 
M 292.4 44.87 297.94 55.95 
M 298.68 57.43 304.59 69.25 
M 329.71 119.48 334.14 128.35 
M 334.88 129.83 336.36 132.78 
M 345.23 150.51 350.4 160.86 
M 351.14 162.33 352.61 165.29 
M 360 180.06 360.74 181.54 
M 362.22 184.5 362.96 185.98 
M 298.73 51.74 302.05 58.39 
M 302.79 59.87 305.75 65.78 
M 306.49 67.25 307.97 70.21 
M 317.57 89.42 319.05 92.37 
M 334.56 123.4 335.3 124.88 
M 347.86 150 355.99 166.25 
M 302.51 53.51 303.62 55.73 
M 316.91 82.32 320.61 89.71 
M 321.35 91.19 322.08 92.67 
M 329.47 107.44 330.21 108.92 
M 331.69 111.88 333.17 114.83 
M 350.16 148.81 356.81 162.11 
M 319.19 81.09 325.1 92.91 
M 331.75 106.21 332.49 107.69 
M 333.22 109.16 337.66 118.03 
M 353.17 149.06 356.87 156.45 
M 320.9 78.74 326.81 90.56 
M 332.72 102.38 333.46 103.86 
M 334.2 105.34 337.9 112.72 
M 338.63 114.2 340.85 118.63 
M 368.92 174.78 373.81 184.55 
M 323.78 78.71 330.06 91.27 
M 333.75 98.66 342.62 116.39 
M 347.79 126.73 348.53 128.21 
M 351.49 134.12 352.22 135.6 
M 369.95 171.06 370.69 172.54 
M 371.43 174.02 375.77 182.69 
M 327.03 79.44 331.84 89.04 
M 336.27 97.91 345.13 115.64 
M 345.87 117.12 346.61 118.59 
M 348.09 121.55 350.31 125.98 
M 351.04 127.46 354 133.37 
M 354.74 134.85 355.48 136.32 
M 373.21 171.79 376.92 179.21 
M 330.29 80.16 333.61 86.81 
M 338.78 97.16 347.65 114.89 
M 351.34 122.27 356.51 132.62 
M 374.98 169.56 376.92 173.43 
M 342.78 99.36 348.69 111.18 
M 349.43 112.66 350.16 114.14 
M 351.64 117.09 352.38 118.57 
M 353.12 120.05 361.25 136.3 
M 345.29 98.61 346.77 101.57 
M 347.51 103.04 350.46 108.95 
M 354.16 116.34 354.9 117.82 
M 356.37 120.77 362.29 132.59 
M 363.02 134.07 363.76 135.55 
M 350.73 103.7 351.47 105.17 
M 357.38 116.99 364.76 131.77 
M 371.41 145.07 372.15 146.54 
M 359.85 116.17 361.33 119.12 
M 362.07 120.6 366.5 129.46 
M 373.15 142.76 376.92 150.3 
M 362.35 115.38 366.05 122.77 
M 367.52 125.72 368.26 127.2 
M 374.17 139.02 374.91 140.5 
M 375.65 141.98 376.92 144.52 
M 367.83 120.55 369.3 123.51 
M 375.95 136.8 376.92 138.73 
M 354.1 87.32 354.84 88.79 
M 355.58 90.27 356.32 91.75 
M 357.06 93.23 357.79 94.7 
M 356.44 86.21 361.24 95.81 
M 359.88 87.32 363.95 95.45 
M 363.56 88.88 365.4 92.57 
M 366.14 94.05 366.88 95.53 
M 367.32 90.63 369.17 94.32 
"/></svg>