<svg xmlns="http://www.w3.org/2000/svg" width="520" height="320"><rect x="0" y="0" width="520" height="320" fill="floralwhite"/><rect x="10" y="10" width="500" height="300" stroke="black" stroke-width="1" fill="none"/><path stroke="black" stroke-width="1" fill="none" stroke-linecap="round" stroke-linejoin="round" d="
M 167.7 106.69 177.63 104.34 197.35 101.9 217.06 98.34 226.92 97.02 236.78 96.36 246.64 96.05 256.5 95.93 276.21 96.22 286.07 95.9 295.93 95.92 305.78 96.73 325.5 99.1 335.36 100.49 345.21 102.56 384.65 112.35 394.5 115.96 404.36 121.16 405.46 122.53 
M 405.46 189.23 404.36 190.42 394.5 194.58 384.65 197.53 364.93 201.46 355.07 203.73 345.21 206.37 335.36 208.59 325.5 209.76 315.64 210.39 295.93 211.03 276.21 210.84 266.35 211.47 256.5 212.46 246.64 213.2 236.78 213.3 226.92 212.49 217.06 210.7 207.21 208.18 197.35 205.18 187.49 201.95 177.63 199.18 167.78 197.38 157.94 196.46 
M 405.46 139.57 402.85 137.96 398.61 136.22 394.15 134.92 389.61 133.82 385 132.96 380.4 132.17 366.87 130.67 357.95 130.21 351.14 130.1 
M 346.62 130.05 342.21 129.96 
M 337.91 129.77 331.57 129.33 314.71 127.64 304.32 126.84 
M 296.47 126.41 292.6 126.4 
M 288.71 126.6 282.76 127.14 270.43 128.6 260.29 129.53 
M 256.17 129.95 243.3 131.29 
M 234.56 131.62 228.09 131.47 215.2 130.71 199.36 130.38 
M 194.92 130.11 190.51 129.75 
M 186.11 129.44 179.5 128.95 177.22 129.17 
M 168.64 186.69 172.43 190.97 
M 170.77 179.09 175.27 184.91 177.25 187.11 
M 194.13 195.74 197.16 198.99 
M 197.31 189.63 199.43 192.04 
M 202.88 196.07 206.05 199.83 
M 206.5 189.7 211.59 196.22 
M 176.1 133.24 181.61 143.34 
M 215.15 189.5 217.12 192.18 
M 171.21 112.64 172.71 114.61 
M 175.94 118.99 180.5 125.94 188.6 140.81 
M 225.52 191.97 228.77 196.18 
M 173.83 105.24 179.58 112.36 185.96 121.4 188.93 126.08 191.77 130.95 195.72 138.23 
M 240.59 200.16 243.85 203.67 
M 180.93 103.91 187.94 112.61 194.35 121.43 197.4 126.01 200.3 130.81 203.73 136.94 
M 248.79 199.51 251.91 202.57 
M 254.91 205.09 256.66 206.41 
M 188.18 102.96 196.4 112.93 202.84 121.47 206 125.98 212.89 137.28 
M 195.5 102.11 204.92 113.37 211.41 121.75 214.54 126.28 219.15 133.45 
M 264.62 196.78 267.66 199.54 
M 202.4 100.99 207 106.27 213.34 114.05 216.42 118.21 225.78 131.62 229.74 136.49 
M 253.14 171.44 255.13 174.69 259.92 181.53 
M 275.87 198.35 279.05 200.87 
M 209.02 99.79 215.37 107.24 218.41 111.15 227.17 123.51 230.39 127.78 237.15 135.41 
M 256.11 162.87 258.78 167.58 
M 264.55 176.59 267.74 180.85 
M 271.01 184.8 272.67 186.68 277.66 191.63 
M 287.2 199.78 290.08 202.06 
M 292.77 204.1 294.22 205.16 
M 215.4 98.64 220.67 104.75 223.66 108.52 232.14 120.02 235.25 123.92 244.32 134.04 
M 258.21 153.22 261.19 158.35 
M 263.83 162.96 267.78 169.56 269.27 171.75 
M 272.39 176.12 274.03 178.3 279.1 184.18 
M 282.46 187.64 285.75 190.75 
M 288.89 193.59 291.85 196.24 
M 221.81 97.71 229.09 105.89 240.51 119.92 250.73 131.49 254.41 136.08 258.01 141.08 261.5 146.4 
M 263.13 149.01 265.97 153.65 
M 268.66 158.22 271.24 162.6 
M 273.99 166.98 278.66 173.64 282.01 177.92 285.33 181.79 290.16 186.78 
M 293.22 189.78 297.49 194.05 303.66 200.7 
M 228.5 96.92 237.5 106.24 253.73 124.69 
M 257.09 128.87 262.27 136 265.67 141.13 270.23 148.46 
M 275.54 157.36 279.8 164.06 284.72 170.91 
M 288 175.18 291.19 179.06 
M 297.4 185.91 300.27 189.06 
M 310.31 200.63 312.94 203.09 
M 235.91 96.41 242.88 102.88 254.2 114.91 260.16 122.01 268.17 133.25 
M 271.33 138.1 276.85 147.33 
M 279.46 151.7 283.77 158.47 287.05 163.21 292.12 170.07 
M 295.44 174.33 298.69 178.28 
M 307.34 188.76 309.83 191.97 
M 244.13 96.13 250.95 102.13 256.58 107.81 262.16 114.11 268.02 121.52 274.29 130.24 277.18 134.85 282.23 143.88 286.33 150.56 
M 289.43 155.23 296.24 164.84 
M 306.5 177.83 309.47 181.65 
M 314.72 188.71 317.26 192 
M 252.9 95.97 256 98.53 261.69 103.99 264.45 106.97 271.52 115.2 
M 277.65 122.93 279.18 125.04 283.27 131.7 
M 285.74 136.21 289.45 143.05 293.69 150.04 
M 296.87 154.86 298.54 157.3 304.05 164.52 
M 319.81 185.31 322.39 188.86 
M 261.97 96.02 263.86 97.61 266.64 100.33 269.35 103.22 281.03 116.21 284.1 120.11 286.96 124.36 289.54 128.79 296.87 142.87 298.25 145.26 
M 304.52 154.87 308.21 159.67 
M 312.04 164.38 315.75 168.96 
M 327.42 185.56 330.2 189.18 
M 336.15 195.8 339.2 198.78 
M 270.57 96.15 272.68 98.27 
M 275.36 101.12 285.65 112.01 288.71 115.59 291.65 119.55 294.4 123.9 296.95 128.46 300.62 135.67 
M 309.03 150.15 310.67 152.5 320.08 164.33 
M 323.54 169 326.61 173.55 
M 338.13 189.4 344.24 195.85 
M 278.4 96.14 290.08 108.16 293.15 111.48 296.15 115.17 299.05 119.28 301.84 123.73 308.4 135.74 
M 311.13 140.64 312.54 143.07 315.66 147.77 321.05 154.87 
M 324.72 159.68 328.13 164.48 
M 331.21 169.19 334.11 173.74 
M 343.09 185.84 346.15 189.26 
M 286.01 95.9 297.59 107.47 300.63 110.99 303.64 114.91 309.59 123.65 318.11 138.21 319.7 140.67 
M 323.01 145.53 326.5 150.3 
M 329.98 155.07 333.23 159.88 
M 336.21 164.64 339.07 169.3 
M 344.97 177.87 347.97 181.61 
M 350.98 185.1 353.98 188.47 
M 294.5 95.92 299.19 100.31 302.19 103.37 305.24 106.79 308.35 110.6 314.66 119.03 317.69 123.59 325.27 135.94 
M 328.67 140.92 332.18 145.77 
M 349.9 172.88 352.8 176.63 
M 361.71 187.44 364.69 190.9 
M 304.3 96.61 308.53 100.99 
M 311.64 104.53 316.39 110.42 319.5 114.69 332.01 133.73 340.77 145.86 
M 343.83 150.47 346.67 155.01 
M 354.86 167.57 357.68 171.37 
M 363.48 179 369.48 186.71 
M 313.87 97.64 318.07 102.58 324.16 110.68 336.62 128.95 347.16 143.29 357.12 158.47 
M 362.68 166.4 371.37 178.52 
M 322.38 98.71 331.82 111.04 341.28 124.1 348.43 133.43 353.4 140.39 
M 356.41 144.92 364.99 157.83 
M 367.84 161.95 370.7 166.09 
M 373.59 170.26 378.03 176.58 382.6 182.71 
M 330.51 99.81 343.06 115.03 353.51 128.17 356.87 132.8 364.35 144.44 
M 367.32 149.01 370.28 153.44 
M 373.2 157.74 379.02 166.37 
M 384.88 175.02 387.85 179.22 
M 339.82 101.42 351.93 114.51 355.5 118.66 358.99 123.05 362.29 127.63 371.17 141.95 384.59 162.46 
M 399.03 184.1 401.18 187.01 
M 351.55 104.16 357.4 110.09 360.98 114.01 364.45 118.24 366.08 120.51 
M 369.28 125.13 390.21 158.35 
M 363.87 107.28 369.65 113.91 373.07 118.29 379.64 127.72 384.15 134.86 
M 387.07 139.58 389.99 144.34 
M 392.94 149.21 395.85 154.15 
M 374.7 109.8 378.46 114.19 382.06 118.73 388.67 128.2 394.47 137.66 401.47 150.02 
M 385.91 112.82 391.21 119.37 396.12 126.47 
M 401.79 136.05 405.46 142.93 
M 398.92 118.29 400.25 120.05 403.39 124.85 405.46 128.4 
M 172.89 105.46 169.73 109.81 
M 182.61 103.68 179.24 108.18 172.4 118.01 
M 192.81 102.42 190.57 104.8 187.6 108.48 183.27 114.65 
M 180.26 119.01 174.91 126.44 
M 204.43 100.62 199.25 105.54 196.16 108.98 193.15 112.79 176.27 136.55 
M 216.7 98.4 210.9 103.32 207.82 106.35 204.73 109.62 200.13 115.15 
M 197.05 119.28 190.57 128.51 
M 187.1 133.49 179.78 144 
M 228.89 96.89 219.3 104.54 216.18 107.36 213.15 110.4 207.11 117.42 204.01 121.49 199.08 128.42 
M 195.58 133.43 191.16 139.88 
M 238.5 96.3 229.36 104.32 
M 226.1 107.19 221.31 111.6 218.32 114.72 215.44 118.09 207.73 128.39 
M 204.19 133.29 201.69 136.82 
M 173.73 180.27 172.42 182.5 
M 169.84 186.76 167.19 190.76 
M 246.45 96.05 226.23 115.85 223.27 119.17 220.51 122.7 216.22 128.72 
M 212.93 133.3 210.11 137.22 
M 253.64 95.96 231.14 119.98 228.24 123.61 219.04 137.25 
M 187.61 187.53 184.93 191.52 
M 260.58 96 242.74 116.13 239.47 119.97 235.02 125.91 
M 232.39 129.91 228.37 136.66 
M 194.07 191.86 191.24 195.59 
M 267.43 96.12 260.41 104.13 252.65 113.35 
M 249.48 117.28 246.37 121.37 
M 243.44 125.59 242.03 127.73 238.36 134.11 
M 274.09 96.19 262.18 110.57 256.15 118.38 253.21 122.61 250.43 127.08 246.94 133.49 
M 214.11 189.47 210.36 194.28 208.7 196.19 
M 280.9 96.06 275.52 102.68 264.05 117.73 261.23 121.94 258.56 126.43 254.91 133.65 
M 252.6 138.49 252.58 138.54 
M 287.99 95.9 285.49 98.81 280.27 105.55 272.02 117.06 269.12 121.43 266.36 126.05 263.9 130.94 258.22 143.59 
M 228.84 191.84 227.42 194.11 225.88 196.17 
M 294.75 95.92 287.75 105 280.05 116.3 274.35 125.47 271.63 130.48 270.41 133.11 
M 268.08 138.41 264.73 146.31 263.57 148.63 
M 263.53 148.71 260.88 153.61 
M 257.99 158.26 253.06 165.49 
M 239.2 188.25 235.8 194 232.95 198.25 231.44 200.14 
M 301.09 96.35 295.29 104.22 290.29 111.68 279.38 129.73 276.57 134.93 274.08 140.34 269.58 151.05 268.32 153.54 
M 256.58 172.31 254.49 175.77 
M 249.88 183.9 248.23 186.81 
M 307.69 96.94 302.94 103.28 297.75 111.17 282.47 136.62 
M 279.73 141.9 278.44 144.58 273.94 155.23 272.7 157.75 
M 270.07 162.66 267.23 167.35 
M 259.02 181.63 258.6 182.39 
M 258.41 182.73 256.36 186.32 
M 250.95 195.36 246.81 201.69 245.38 203.55 
M 314.73 97.74 310.85 102.63 305.35 110.73 288.25 138.36 285.31 143.44 282.74 148.61 277.18 161.89 
M 272.07 171.61 269.41 176.28 
M 266.84 180.96 264.27 185.53 
M 258.93 194.19 256.18 198.34 
M 322.03 98.66 318.83 102.61 313.31 110.44 297.21 135.64 
M 294.17 140.48 289.95 147.78 287.5 152.87 286.4 155.56 
M 284.28 160.96 282.15 166.25 
M 277.36 175.92 274.79 180.41 
M 269.51 188.91 266.79 192.97 
M 329.35 99.64 326.53 103.1 321.22 110.54 301.68 140.53 
M 298.75 145.27 296.12 150.01 
M 291.6 160.16 287.43 170.62 
M 282.77 179.94 280.26 184.12 
M 336.47 100.72 331.53 107.11 328.87 110.92 319.33 126.01 
M 316.18 130.79 307.94 143.08 304.99 147.77 302.42 152.44 299.15 159.79 
M 297.04 164.82 294.87 169.81 
M 290.35 179.17 288.06 183.4 
M 283.08 191.07 280.33 194.67 
M 343.33 102.16 339.46 107.11 336.66 111.09 329.92 121.76 
M 327.24 126.32 322.92 133.4 313.06 147.78 310.32 152.5 308.02 157.28 303.82 166.93 301.54 171.67 297.84 178.35 
M 290.8 190.11 288.32 193.68 
M 350.34 103.85 344.98 110.8 342.01 115.08 339.13 119.55 335.13 126.55 
M 332.6 131.31 328.48 138.51 326.88 140.88 
M 323.6 145.55 318.79 152.46 316.18 157.2 312.91 164.36 
M 310.69 169.04 309.55 171.35 306.98 175.78 302.96 181.89 
M 293.19 196.05 290.61 199.3 
M 357.5 105.66 350.81 114.58 344.65 123.96 341.95 128.87 337.1 138.7 334.34 143.48 332.76 145.78 
M 329.53 150.37 324.82 157.31 322.18 162 318.67 168.94 
M 316.21 173.41 314.92 175.59 310.64 181.62 
M 305.01 188.82 302.45 192.14 
M 297.64 198.4 295.15 201.36 
M 364.71 107.5 359.88 114.06 353.55 123.39 350.5 128.39 347.73 133.48 342.7 143.49 339.92 148.21 333.56 157.52 329.08 164.5 
M 326.41 169.06 322.58 175.63 319.81 179.69 315.28 185.25 
M 312.23 188.7 309.33 191.97 
M 306.65 195.06 304.17 198 
M 299.35 203.37 297.76 204.92 
M 372.04 109.19 368.59 113.9 359.3 127.78 356.17 132.85 347.85 147.96 344.95 152.77 334.1 169.25 
M 328.59 177.86 325.81 181.76 
M 322.87 185.38 319.79 188.78 
M 316.69 191.99 313.69 195.05 
M 308.3 200.63 304.1 204.68 
M 379.62 111.06 369.52 125.14 
M 366.27 129.94 361.41 137.38 352.68 152.21 346.67 162.04 336.12 178.06 
M 333.32 182.01 330.49 185.67 
M 327.54 189.06 324.47 192.23 
M 387.35 113.34 376.58 127.61 368.09 139.59 
M 364.9 144.42 354.43 161.06 346.97 173.34 
M 341.18 182.11 338.32 185.87 
M 335.44 189.35 332.5 192.57 
M 329.46 195.57 323.34 200.91 
M 394.9 116.17 392.47 119.47 383.75 130.24 
M 380.15 134.79 374.9 141.89 362.23 160.11 357.71 167.1 
M 354.78 171.95 351.92 176.8 
M 349.12 181.41 346.32 185.61 
M 343.48 189.37 340.6 192.74 
M 331.59 201.27 328.98 203.24 
M 401.73 119.77 398.15 124.37 387.19 137.27 383.58 141.83 371.93 157.72 
M 362.57 170.64 359.67 175.29 
M 356.88 180.02 354.13 184.56 
M 348.58 192.47 345.72 195.8 
M 405.46 126.78 392.35 142.12 382.04 155.68 372.1 168.16 368.98 172.31 366.03 176.64 361.86 183.38 
M 405.46 137.66 401 142.88 392.33 153.85 
M 388.91 158.24 377.17 172.45 372.56 178.53 
M 405.46 148.74 392.28 165.28 380.77 178.74 
M 377.73 182.59 374.79 186.48 
M 402.34 164.07 395.58 171.96 
M 392.27 175.69 385.97 182.93 
M 405.46 171.11 400.55 176.53 
M 394.19 183.61 391.14 186.98 
M 405.46 181.05 402.35 184.44 
M 235.1 95.31 277.44 30 278.38 30.58 239.13 96.28 
M 251.52 95.01 277.35 50.93 278.32 51.46 255.49 95.94 
M 267.95 95.31 281.53 69.44 282.52 69.9 271.86 96.17 
M 284.37 95.2 289.98 84.32 291 84.7 288.24 95.9 
M 294.03 95.35 295.93 95.93 
M 274.38 37.26 273.06 41.31 272.61 43.33 272.39 45.34 272.43 47.35 272.74 49.35 273.27 51.35 274.77 55.34 
M 275.98 56.01 275.55 59.92 275.54 61.83 275.75 63.67 276.21 65.45 276.93 67.17 277.87 68.82 280.17 72.02 
M 281.42 72.61 282 76.2 282.47 77.88 283.14 79.44 284.03 80.86 285.14 82.15 286.44 83.31 289.42 85.4 
M 290.71 85.89 290.44 88.67 290.5 89.97 290.77 91.17 291.28 92.26 292.02 93.25 292.97 94.13 295.26 95.72 
M 273.68 39.28 272.61 43.33 272.39 45.34 272.43 47.35 272.74 49.35 273.98 53.35 
M 268.66 49.24 267.78 52.57 267.6 54.23 267.64 55.89 267.89 57.54 268.91 60.84 
M 263.65 59.19 262.95 61.82 262.84 64.43 263.04 65.74 263.84 68.33 
M 258.63 69.14 258.02 72.02 258.19 73.93 258.77 75.82 
M 275.72 57.98 275.54 61.83 275.75 63.67 276.21 65.45 276.93 67.17 278.98 70.43 
M 270.74 71.3 270.62 73.81 270.76 75.01 271.53 77.28 272.86 79.4 
M 281.67 74.43 282.47 77.88 283.14 79.44 284.03 80.86 285.14 82.15 287.89 84.38 
M 176.16 143.46 203.67 133.95 204.07 134.98 175.8 146.79 
M 174.91 149.92 259.97 130.57 260.23 131.64 174.13 153.8 
M 173.61 156.2 274.76 146.18 274.88 147.27 172.62 160 
M 171.82 162.09 263.23 164.78 263.22 165.87 170.42 165.76 
M 169.76 167.44 269.52 183.02 269.36 184.11 168.85 171.1 
M 168.63 172.57 241.92 194.08 241.63 195.14 167.81 176.2 
M 168.33 176.34 203.57 192.35 203.15 193.36 166.97 179.61 
M 199.89 136.72 211.15 137.26 216.77 137.32 222.36 137.15 227.94 136.71 233.5 136.02 239.04 135.1 250.08 132.82 
M 250.41 134.17 252.3 138.08 253.39 139.88 254.65 141.53 256.1 142.99 257.73 144.26 259.52 145.38 263.42 147.3 
M 263.57 148.68 260.06 151.41 258.49 152.89 257.1 154.5 255.94 156.26 254.99 158.16 254.23 160.19 253.07 164.48 
M 253.05 165.86 252.99 169.79 253.17 171.68 253.55 173.49 254.19 175.21 255.07 176.84 256.16 178.39 258.75 181.34 
M 258.56 182.71 252.6 183.39 249.7 183.93 246.87 184.69 244.14 185.7 241.49 186.94 238.92 188.41 233.94 191.74 
M 233.57 193.08 226.1 191.09 222.34 190.31 218.57 189.76 214.78 189.47 210.97 189.44 207.14 189.64 199.45 190.47 
M 205.52 137.04 216.77 137.32 222.36 137.15 227.94 136.71 233.5 136.02 244.56 134 
M 251.32 136.15 253.39 139.88 254.65 141.53 256.1 142.99 257.73 144.26 261.44 146.37 
M 219.91 143.51 221.26 145.94 222.08 147.01 224.08 148.78 226.49 150.16 
M 261.78 150.02 258.49 152.89 257.1 154.5 255.94 156.26 254.99 158.16 253.61 162.31 
M 226.71 154.06 224.57 155.93 223.67 156.98 222.3 159.35 221.4 162.05 
M 252.98 167.84 253.17 171.68 253.55 173.49 254.19 175.21 255.07 176.84 257.41 179.88 
M 220.99 167.19 221.11 169.68 221.78 171.98 222.35 173.04 223.87 175.01 
M 255.56 183.01 249.7 183.93 246.87 184.69 244.14 185.7 241.49 186.94 236.42 190.03 
M 222.67 178.58 218.86 179.19 215.24 180.33 213.52 181.14 210.23 183.15 
M 229.84 192.04 222.34 190.31 218.57 189.76 214.78 189.47 210.97 189.44 203.3 190.01 
M 197.35 205.18 200.39 209.42 207.49 218.33 209.08 221.67 211.12 224.21 213.58 226.8 214.52 230.42 215.67 233.76 218.18 235.96 220.53 240.14 221.06 242.2 220.03 247.63 217.11 249.36 213.41 254.96 212.06 258.24 211.36 261.75 211 265.61 209.7 268.86 207.1 270.93 193.07 280 193.78 277.42 193.22 274.92 190.75 270.65 190.8 267.1 192.63 265.1 192.49 262.22 191.66 259.04 191.87 255.94 191.15 251.65 191.03 248.13 190.21 244.66 189.82 242.01 190 238.03 189.81 234.91 190.63 231.66 189.75 229.04 188.77 221.21 188.39 217.29 188.08 206.56 187.49 201.95 
M 195.26 204.5 197.74 209 199.99 212.62 202.3 215.69 204.66 218.23 206.33 221.08 207.01 224.23 208.56 228.15 209.86 230.85 212.15 237.37 213.32 240.18 216.19 243.41 
M 193.17 203.81 195 208.55 198.17 215.56 203.67 224.38 204.86 228.24 205.69 232.22 
M 191.08 203.13 192.56 208.05 193.12 211.73 198.14 225.62 198.5 228.87 199.43 232.52 200.91 236.84 201.21 239.85 202.57 243.22 202.93 247.23 202.52 250.18 205.05 253.47 
M 189 202.44 190.18 207.27 190.27 211.06 190.69 214.86 191.53 218.23 192.16 221.96 193.8 229.21 195.54 238.81 195.69 242.31 196.7 245.54 196.94 248.72 197.81 252.66 198.33 255.85 199.62 259.17 
M 376.4 198.44 381.92 208.69 381.02 209.32 373.17 200.73 
M 360.23 201.73 366.71 212.9 365.83 213.55 357.05 204.08 
M 344.28 205.8 352.74 220.25 351.84 220.89 341.05 208.08 
M 328.12 208.68 338.29 229.47 337.34 230.01 324.68 210.63 
M 311.73 209.74 324.22 239.33 323.22 239.81 308.16 211.44 
M 295.29 210.22 311.27 250.85 310.26 251.29 291.65 211.79 
M 278.04 210.09 298.53 264.11 297.51 264.52 274.38 211.58 
M 380.24 208.46 376.77 207.83 375.08 207.72 373.45 207.83 371.87 208.2 370.36 208.82 368.89 209.67 366.07 211.78 
M 364.95 212.6 361.44 212.71 359.78 212.95 358.22 213.41 356.77 214.1 355.43 215.02 354.19 216.15 351.89 218.81 
M 350.76 219.61 347.06 220.11 345.31 220.55 343.69 221.19 342.19 222.06 340.82 223.15 339.57 224.44 337.28 227.39 
M 336.07 228.07 332.41 228.72 330.69 229.23 329.09 229.93 327.63 230.86 326.32 232 325.12 233.34 322.97 236.38 
M 321.72 236.97 318.15 238.06 316.5 238.77 314.99 239.66 313.66 240.75 312.48 242.04 311.45 243.51 309.67 246.79 
M 308.4 247.34 304.77 248.84 303.11 249.75 301.6 250.82 300.28 252.09 299.14 253.54 298.15 255.16 296.48 258.71 
M 378.49 208.1 375.08 207.72 373.45 207.83 371.87 208.2 370.36 208.82 367.47 210.68 
M 363.18 212.61 359.78 212.95 358.22 213.41 356.77 214.1 355.43 215.02 353.02 217.44 
M 348.89 219.82 345.31 220.55 343.69 221.19 342.19 222.06 340.82 223.15 338.4 225.87 
M 334.22 228.36 330.69 229.23 329.09 229.93 327.63 230.86 326.32 232 324.02 234.82 
M 328.6 221.98 326.31 222.54 325.27 223 323.47 224.34 321.98 226.17 
M 319.9 237.48 316.5 238.77 314.99 239.66 313.66 240.75 312.48 242.04 310.53 245.11 
M 313.54 228.14 311.32 228.98 310.34 229.56 308.71 231.11 307.44 233.1 
M 306.55 248.06 303.11 249.75 301.6 250.82 300.28 252.09 299.14 253.54 297.28 256.9 
M 301.49 239.39 298.85 240.69 297.69 241.51 295.8 243.6 294.38 246.17 
M 296.42 230.73 294.58 231.63 293.78 232.2 292.46 233.65 291.48 235.44 
M 404.36 121.16 408.33 119.99 411.74 118.19 414.67 117.08 416.91 115.19 419.16 114.25 422.6 112.44 426.15 111.14 429.05 109.42 432.06 107.99 434.02 105.79 437.39 104.76 440.39 102.78 445.16 101.6 447.69 99.04 452.23 95.76 454.76 92.93 458.1 89.96 460.88 89.67 464.22 90.37 465.91 88.55 467.14 85.92 471.02 83.44 474.74 81.51 477.87 80.48 481.15 77.34 477.71 90.1 473.23 94.82 471.28 97.48 468.41 99.2 466.89 102.27 466.13 105.92 464.69 108.9 462.63 111.25 461.06 114.1 459.13 116.59 457.52 119.4 455.49 121.77 453.52 128.49 452.23 131.71 446.72 135.5 444.69 138.11 444.11 141.94 443.04 145.4 440.34 147.36 438.85 150.5 437.2 153.21 434.32 154.7 433.66 158.33 432.81 161.76 435.62 166.38 436.8 169.21 436.28 173.76 437.01 176.4 441.72 186.78 442.45 193.14 443.34 196.64 444.65 200 444.95 203.22 444.52 205.81 443.96 207.95 446.9 215.13 449.2 222.68 447.62 221.72 441.99 220.12 440.17 217.39 438.05 214.95 434.61 212.09 425.78 205.84 422.86 204.09 420.35 202.18 417.64 200.56 410.79 196.94 407.47 194.05 404.36 190.42 
M 408.52 123.73 411.71 121.98 417.4 119.89 420.12 118.41 426.4 115.92 429.97 113.52 433.34 111.74 436.12 110.8 438.4 109.71 441.34 108.78 444.24 107.27 447.27 106.02 449.41 104.46 453.56 101.94 457.43 100.18 460.08 97.98 462.72 96.93 465.76 96.25 470.04 95.8 472.74 93.27 
M 408.64 127.53 414.7 124.83 417.86 123.55 421.2 122.45 423.95 121.17 427.64 120.55 431.26 118.17 433.98 115.67 439.27 113.86 442.38 113.55 445.41 112.4 448.01 111.95 451.7 110.36 456.23 107.13 461 105.45 
M 412.49 130.11 418.5 127.73 422.07 127.03 425.35 125.91 428.64 123.67 431.76 122.84 434.72 120.93 440.76 120.64 444.06 119.67 446.2 118.48 450.42 117.22 
M 415.72 134.39 425.63 131.03 429.77 128.5 435.93 127.31 438.83 125.89 442.85 125.41 447.69 125.57 450.27 125.88 
M 416.1 139.34 419.29 139.17 422.48 138.01 425.71 137.43 432.91 134.59 435.6 134.42 439.87 132.53 444.02 131.72 449.04 132.04 451.54 131 
M 408.9 142.71 416.83 142.76 419.77 142.92 423.04 142.07 426.36 141.97 430.07 141.63 433.15 140.38 436.61 139.86 440.29 139.83 
M 413.33 146.63 419.51 145.31 427.47 144.92 
M 404.36 148.87 409.31 150.44 413.24 150.44 416.78 149.55 419.83 149.05 423.33 149.14 
M 409.9 154.12 413.74 154.49 418 154.33 424.28 153.25 428.47 154.04 432.38 155.17 433.45 155.67 
M 404.36 155.79 410.09 158.08 419.17 159.01 423.05 158.59 
M 409.86 161.8 417.5 163.61 425.89 163.46 431.89 166.1 
M 408.83 165.55 416.26 167.84 419.58 168.15 422.36 168.95 426.84 169.65 
M 416.2 171.53 422.28 172.75 
M 404.36 169.64 408.51 172.48 412.18 174.47 416.44 174.65 423.27 176.94 
M 412.88 176.87 417.3 178.36 420.4 180.28 423.29 180.92 426.43 183.04 430.62 184.87 434.35 187.65 436.82 188.88 
M 413.41 179.86 422.93 185.95 427.21 188.41 431.32 190.44 432.27 192.48 
M 416.14 186.14 419.31 188.03 422.98 189.9 
M 414.81 190.66 418.98 191.99 422.65 193.57 425.95 195.43 428.48 198.33 431.32 200.59 436.66 201.35 443.19 204.56 443.1 206.25 
M 410.59 193.27 414.25 195.09 418.06 196.27 421.22 197.67 424.2 199.58 426.41 201.4 
M 392.55 192.63 390.48 193.29 388.58 194.13 386.69 195.27 383.5 198.23 384.65 197.53 
M 47.39 164.52 51.26 159.65 54.41 155.29 58.76 150.75 65.1 146.84 72.37 143.29 79.08 139.8 86.15 135.28 94.39 130.59 114.05 122.39 133.58 115.64 158.5 108.46 164.27 107.2 167.7 106.69 171.03 111.8 172.05 116.7 173.37 121.62 174.95 126.58 176 131.48 176.28 136.29 176.07 145.83 174.76 150.47 173.88 155.16 172.69 159.81 169.16 168.99 168.47 173.7 166.22 183.02 164.51 187.61 161.98 192.12 157.94 196.36 141.64 195.65 129.55 194.63 118.86 193.28 100.27 190.06 84.69 186.61 76.8 184.42 
M 71.09 182.62 65.27 180.39 60.52 178.03 58.84 176.95 
M 143.42 141.44 142.96 145.53 139.13 153.11 136.78 156.41 134.16 159.33 132.13 162.09 131.13 167.41 132.29 175.4 131.74 178.59 105.41 177.92 90.62 176.71 83.75 175.59 77.4 174.33 
M 74.93 184.41 56.96 176.04 51.68 173.79 44.39 170.09 42.61 167.96 43.05 165.3 45.37 163.91 47.99 164.7 54.5 169.27 66.08 176.75 72.78 181.43 77 184.11 
M 76.85 185.07 74.25 185.99 64.1 190.15 59.16 192.35 51.43 194.74 46.01 196.6 43.44 197.65 40.73 197.76 38.84 195.85 39.13 193.12 41.27 191.52 49.39 189.81 57.71 188.6 68.22 185.92 76.57 184.06 
M 96.29 155.12 94.13 152.1 93.08 148.55 93.23 144.84 94.58 141.39 96.97 138.56 100.16 136.67 103.78 135.91 107.46 136.36 110.79 137.99 113.41 140.61 115.04 143.94 115.5 147.62 114.74 151.25 112.84 154.43 110.01 156.83 106.56 158.17 102.86 158.33 99.3 157.27 96.29 155.12 
M 111.58 141.92 112.88 144.58 113.25 147.53 112.64 150.43 111.12 152.98 108.86 154.89 106.1 155.97 103.13 156.09 100.29 155.25 97.88 153.52 
M 100.24 149.51 99.38 148.31 98.95 146.89 99.02 145.41 99.55 144.03 100.51 142.89 101.79 142.14 103.24 141.83 104.71 142.01 106.04 142.67 107.09 143.71 107.74 145.05 107.92 146.52 107.62 147.97 106.86 149.24 105.73 150.2 104.35 150.74 102.87 150.8 101.45 150.38 100.24 149.51 
M 100.18 149.06 101.52 150.4 
M 99.32 145.23 104.69 150.6 
M 100.72 143.66 106.56 149.5 
M 102.4 142.38 107.68 147.66 
M 105.65 142.66 107.46 144.47 
M 50.24 160.89 55.45 166.1 
M 53.08 157.14 58.38 162.44 
M 56.08 153.55 60.63 158.1 
M 59.45 150.32 65.59 156.47 
M 63.53 147.81 69.22 153.5 
M 67.82 145.51 71.74 149.43 
M 72.25 143.35 78.13 149.22 
M 76.59 141.09 82.52 147.02 
M 80.79 138.7 85.47 143.38 
M 84.81 136.13 91.01 142.33 
M 88.96 133.68 92.55 137.27 
M 93.16 131.29 96.99 135.12 
M 97.67 129.21 103.73 135.26 
M 102.31 127.25 107.25 132.19 
M 106.96 125.31 112.48 130.84 
M 111.63 123.39 116.46 128.22 
M 116.41 121.57 121.85 127.02 
M 121.3 119.88 127.13 125.7 
M 126.2 118.18 130.06 122.04 
M 131.11 116.49 136.75 122.14 
M 136.13 114.92 140.22 119.01 
M 141.26 113.46 146.85 119.04 
M 146.39 111.99 151.63 117.23 
M 151.51 110.53 155.39 114.4 
M 156.6 109.02 161.47 113.89 
M 161.9 107.72 165.86 111.69 
M 167.49 106.73 167.97 107.2 
M 148.89 121.4 148.77 121.08 
M 159.78 108.69 158.54 108.45 
M 163.54 171.46 162.33 168.75 161.7 167.97 159.59 166.48 158.16 165.86 153.91 165.3 152.78 165.52 150 167.47 
M 168.91 108.71 168.95 108.61 
M 118.01 184.69 118.19 182.84 117.91 181.85 116.88 179.71 116.11 176.96 115.69 176.06 115.04 175.32 114.31 174.05 114.17 173 
M 106.38 125.55 106.28 126.69 105.41 128.81 
M 93.83 161.82 91.9 162.07 88.56 163.39 87.62 163.97 86.82 165.2 
M 82.89 150.08 82.82 150.63 83.05 151.66 83.38 152.12 83.88 152.27 84.51 152 84.77 151.65 85.29 150.05 
M 148.04 150.33 143.66 150.49 142.69 150.71 141.06 151.6 139.43 153.34 
M 57.16 152.41 58.6 153.47 62.11 156.75 
M 139.47 174.83 139.38 174.1 138.83 172.64 138.93 171.17 
M 114.14 189.86 116.14 188.37 116.79 187.45 117.67 185.54 117.99 183.68 118.03 182.71 117.73 181.67 116.79 179.58 116.04 176.83 115.58 175.95 
M 158.81 159.89 159.55 161.54 
M 90.22 187.81 91.52 186.98 
M 111.83 175.07 111.64 173.06 111.3 172.34 110.46 172.07 109.4 171.96 108.02 172.18 
M 129.95 176.62 129.05 177.34 128.39 177.66 126.52 177.94 125.42 177.94 121.92 176.83 116.7 173.96 
M 88.02 140.29 86.75 141.13 85.74 142.28 85.3 143.17 84.69 143.75 
M 101.58 160.21 101.81 159.3 101.79 158.01 
M 154.41 171.06 151.95 170.81 148.52 171.27 146.17 170.91 141.4 170.63 
M 130.77 138.6 131.4 140.38 131.48 141.62 130.53 144.96 
M 113.46 185.01 114.83 180.57 115.08 178.02 115.07 177.12 114.8 176.18 113.71 173.77 
M 127.8 161.51 127.6 160.33 128.27 159.11 128.85 158.57 130.38 158.07 131.02 157.62 
M 156.52 136.25 156.51 135.67 156.8 135.17 158.73 133.84 
M 119.91 149.89 123.28 150.01 123.91 150.15 126.39 151.33 127.16 151.33 127.72 151.11 
M 118.59 181.05 117.87 180 116.04 176.1 114.83 174.71 114.34 173.55 114.34 172.75 113.95 172.39 
M 80.88 185.57 80.67 180.39 80.45 180.11 79.69 179.82 
M 103.83 190.51 104.96 190.15 106.61 188.93 107.52 187.25 108.46 184.77 
M 137.41 116.18 138.03 116.33 138.37 116.02 
M 160.64 178.06 161.5 175.21 161.42 174.12 161.15 173.7 159.83 172.89 158.76 172.57 152.61 171.45 
M 170.53 115.59 170.96 115.32 171.56 114.36 
M 97.8 186.28 98.37 185.57 
M 125.22 165.06 124.6 162.75 126.38 156.91 126.65 154.21 
M 172.21 129.36 172.65 129.74 173.51 131.36 174.1 132.01 174.93 132.64 176.09 133.13 
M 70.77 153.68 70.02 152.13 69.3 151.36 68.25 150.58 67.25 150.11 65.59 150.04 64.08 150.31 63.63 150.91 63.4 152.11 
M 135.48 181.72 136.38 181.98 138.99 182.05 139.24 182.21 139.22 182.6 
M 55.32 154.34 57.25 155.93 58.63 157.77 61.29 160.35 61.85 160.65 62.66 160.69 
M 147.45 184.98 142.52 183.18 139.31 183.41 138.89 183.22 138.96 182.81 
M 82.65 137.51 83.42 138.43 83.7 139.06 84.19 140.5 84.55 142.29 84.29 143.26 83.12 144.79 
M 143.75 140.79 141.93 140.71 141.47 140.32 140.95 139.4 
M 74.71 182.7 75.86 178.78 77.21 177.31 77.71 177.14 
M 166.34 175.37 164.83 174.67 164.48 174.17 164.24 173.24 
M 145.06 182.91 143.74 182.4 142.54 182.27 139.78 183.03 139.1 182.98 139.12 182.67 
M 171.38 131.74 173.82 133.46 174.91 134 176.17 134.38 
M 119.62 163.2 117.85 162.41 116.96 162.26 115.28 162.95 114.4 163.66 112.82 165.42 109.8 167.89 107.51 171.3 
M 83.41 175.35 86.31 174.94 87.52 174.43 88.74 173.39 88.84 172.12 
M 162.09 189.38 162.92 190.45 
M 162.31 191.53 161.89 191.49 
M 115.84 163.2 114.87 163.67 112.28 166.02 110.09 167.65 107.13 171.9 106.65 172.39 
M 79.64 164.2 79.94 165.44 79.91 166.51 77.73 170.36 75.95 172.12 
M 150.85 170.65 148.6 171.15 147.75 171.15 143.13 170.64 140.81 170.6 139.74 170.34 
M 137.34 121.84 135.39 124.75 132.46 128.12 132.3 128.97 132.59 130.29 
M 79.12 180.32 79.01 179.34 79.21 178.83 
M 88.24 156.03 87.18 155.2 86.41 154.32 85.92 153.01 85.72 151.81 85.85 149.84 85.59 149.34 84.7 148.58 
M 170.04 111.77 170.65 111.22 
M 108.87 136.9 107.83 135.45 106.94 134.6 106.85 133.89 
M 170.16 123.26 171.51 123.21 172.05 123.45 173.23 124.72 174.22 126.79 174.54 128.85 
M 78.13 175.63 77.69 176.76 78.32 177.39 
M 65.93 176.65 64.91 175.4 64.38 174.26 64.42 173.49 64.98 171.38 
M 84.26 144.94 82.11 146.24 81.13 147.81 80.92 148.76 80.96 149.64 81.22 150.52 81.75 151.42 
M 170.56 129.57 172.15 130.23 173.66 131.99 174.47 132.68 176.11 133.45 
M 122.32 142.27 122.81 143.01 124.51 143.72 
M 165.72 107.6 165.35 107.04 
M 148.28 168.89 147.42 169.19 141.09 170.31 139.52 170.19 138.81 170.44 
M 158.9 108.84 158.01 108.61 
M 84.34 136.43 84.45 137.02 
M 76.88 184.3 78.43 185.17 
M 71.35 182.74 71.59 183.44 71.9 183 
M 65.65 180.08 65.47 180.88 65.71 182.25 66.04 181.2 66.69 180.57 
M 60.11 177.55 59.61 179.08 59.83 181.06 60.18 179.4 61.29 178.1 
M 54.6 175.05 53.75 177.28 53.95 179.87 54.32 177.61 55.88 175.59 
M 49.15 172.45 47.89 175.49 48.07 178.68 48.46 175.81 50.42 173.12 
M 43.88 169.48 42.03 173.69 42.19 177.48 42.6 174.01 45.1 170.43 
M 76.78 184.83 78.53 184.34 
M 70.93 185.28 71.41 184.42 71.78 185.09 
M 64.77 186.85 64.79 185.48 65.35 184.21 65.42 185.3 66.15 186.47 
M 58.8 188.33 58.6 185.86 59.29 183.99 59.23 185.68 60.38 187.94 
M 52.81 189.38 52.41 186.24 53.22 183.78 53.05 186.06 54.43 189.16 
M 46.8 190.29 46.23 186.62 47.16 183.57 46.86 186.45 48.33 190 
M 40.89 191.81 40.04 187 41.1 183.35 40.68 186.83 42.4 191.26 
M 50.06 195.22 55.51 195.71 61.95 196 68.32 195.89 74.68 195.44 81.06 194.59 87.45 193.28 100.27 190.06 
M 67.7 195.19 66.79 192.6 
M 60.71 194.61 59.62 195.89 
M 168.78 106.42 177.59 115.24 
M 175.89 104.75 185.45 114.31 
M 183.5 103.57 192.63 112.7 
M 191.32 102.6 200.17 111.45 
M 199.1 101.58 208.47 110.95 
M 206.54 100.24 215.13 108.83 
M 213.99 98.89 224.83 109.73 
M 221.62 97.73 234.74 110.85 
M 229.53 96.85 242.3 109.62 
M 237.79 96.32 245.78 104.31 
M 246.32 96.06 258.93 108.67 
M 255 95.94 262.62 103.56 
M 263.9 96.06 271.01 103.17 
M 272.81 96.18 281.57 104.94 
M 281.47 96.04 290.15 104.73 
M 290.12 95.91 301.92 107.7 
M 299.2 96.19 311.05 108.04 
M 308.88 97.08 320.13 108.33 
M 318.84 98.25 330.38 109.79 
M 328.97 99.59 340.19 110.81 
M 339.54 101.37 349.54 111.37 
M 350.97 104.01 364.07 117.11 
M 362.75 107 371.76 116.01 
M 374.24 109.69 383.07 118.53 
M 386.29 112.95 395.52 122.18 
M 402.09 119.96 407.63 125.5 
M 159.14 195.1 159.91 196.64 
M 161.66 192.45 163.95 197.02 
M 163.76 188.95 167.99 197.42 
M 165.55 184.84 172.23 198.19 
M 166.91 179.88 176.46 198.96 
M 170.27 178.89 180.86 200.09 
M 175.06 180.79 185.34 201.34 
M 179.86 182.7 189.88 202.73 
M 184.66 184.6 194.48 204.24 
M 189.46 186.51 199.06 205.7 
M 194.26 188.41 203.59 207.08 
M 176.13 144.46 176.49 145.19 
M 199.06 190.32 206.58 205.37 
M 176.27 137.06 179.75 144.01 
M 202.78 190.07 207.85 200.21 
M 175.01 126.85 183.01 142.83 
M 206.44 189.71 209.11 195.05 
M 168.66 106.45 186.26 141.65 
M 210.18 189.48 210.43 189.99 
M 172.1 105.64 189.52 140.48 
M 175.54 104.83 192.78 139.3 
M 179.05 104.15 196.03 138.12 
M 182.66 103.68 199.29 136.94 
M 186.27 103.2 203.12 136.9 
M 189.89 102.76 207.06 137.1 
M 193.53 102.34 210.99 137.26 
M 197.16 101.92 212.4 132.39 
M 200.7 101.29 212.98 125.86 
M 204.22 100.66 214.54 121.3 
M 259.61 211.42 259.95 212.11 
M 207.75 100.02 215.12 114.76 
M 260.33 205.18 263.61 211.74 
M 211.28 99.38 216.68 110.19 
M 260.91 198.65 267.29 211.41 
M 214.81 98.74 217.26 103.66 
M 262.47 194.08 271.02 211.17 
M 263.08 187.6 274.74 210.93 
M 263.74 181.23 278.55 210.86 
M 265.38 176.82 282.42 210.89 
M 267.09 172.55 286.28 210.93 
M 268.84 168.36 290.15 210.97 
M 269.62 162.21 294.01 211.01 
M 269.78 154.85 297.84 210.98 
M 270.95 149.5 301.63 210.86 
M 271.14 142.19 305.42 210.75 
M 270.35 132.9 309.2 210.62 
M 270.53 125.59 312.98 210.48 
M 269.74 116.31 316.74 210.32 
M 269.93 108.99 320.02 209.17 
M 270.11 101.67 320.24 201.92 
M 270.3 94.36 321.41 196.57 
M 269.51 85.08 322.58 191.22 
M 267.73 73.83 323.75 185.87 
M 266.94 64.55 323.94 178.56 
M 267.12 57.23 324.13 171.24 
M 267.8 50.9 275.72 66.74 
M 279.71 74.71 281.94 79.18 
M 284.99 85.28 323.81 162.92 
M 269.96 47.51 272.98 53.57 
M 275.8 59.2 275.96 59.51 
M 294.16 95.92 324.14 155.87 
M 272.11 44.13 272.84 45.59 
M 298.1 96.1 325.12 150.16 
M 274.26 40.74 274.3 40.81 
M 302.11 96.43 325.2 142.62 
M 306.12 96.77 325.29 135.1 
M 310.2 97.23 326.42 129.66 
M 314.28 97.69 326.56 122.26 
M 318.37 98.19 326.73 114.9 
M 322.48 98.72 327.89 109.53 
M 326.6 99.26 328.07 102.21 
M 376.44 191.25 380.06 198.49 
M 375.66 182 383.54 197.76 
M 375.02 173.03 386.93 196.84 
M 375.39 166.07 390.28 195.85 
M 376.8 161.2 393.62 194.85 
M 376.29 152.48 396.84 193.6 
M 375.78 143.77 400.02 192.25 
M 376.25 137.03 403.19 190.91 
M 376.72 130.27 405.94 188.72 
M 378.11 125.37 408.44 186.02 
M 378.53 118.51 410.94 183.33 
M 379 111.76 413.44 180.64 
M 382.92 111.91 414.22 174.51 
M 387.51 113.4 414.22 166.81 
M 392.22 115.13 414.22 159.12 
M 397.2 117.38 414.22 151.43 
M 402.42 120.14 414.22 143.74 
M 410.74 129.08 414.22 136.04 
"/></svg>