<svg xmlns="http://www.w3.org/2000/svg" width="520" height="320"><rect x="0" y="0" width="520" height="320" fill="floralwhite"/><rect x="10" y="10" width="500" height="300" stroke="black" stroke-width="1" fill="none"/><path stroke="black" stroke-width="1" fill="none" stroke-linecap="round" stroke-linejoin="round" d="
M 176.93 102.73 184.78 100.82 192.6 99.64 208.25 98.4 223.9 96.59 231.73 95.92 247.38 95.43 270.85 95.51 286.5 95.36 294.33 95.77 309.98 96.98 317.8 97.68 325.63 98.73 356.93 103.71 364.75 105.54 372.57 108.19 373.41 108.85 
M 373.41 177.4 372.57 177.98 364.75 180.1 356.93 181.59 341.28 183.59 317.8 187.21 309.98 187.81 302.15 188.12 286.5 188.45 270.85 188.35 247.38 189.55 239.55 189.61 231.73 189.2 223.9 188.29 216.08 187 200.43 183.84 192.6 182.43 184.8 181.52 
M 373.41 127.95 371.79 127.22 368.57 126.16 361.79 124.62 351.11 123.15 340.65 122.3 333.81 122.13 323.33 122.33 316.73 122.27 300.72 121.09 285.2 120.5 279.27 120.79 268.43 121.94 
M 265.28 122.25 252.74 123.28 
M 249.46 123.59 244.46 123.98 237.77 124.15 226.36 123.51 
M 223.03 123.33 219.59 123.25 
M 212.65 123.22 205.85 123.04 
M 187.94 173.81 189.72 175.54 
M 198.89 175.49 202.14 178.56 
M 203.97 176.12 206.63 178.81 
M 208.59 171.73 210.34 173.68 
M 213.16 171.69 217.34 176.75 
M 189.28 131.93 190.13 133.39 
M 216.22 169.7 221.88 176.82 
M 185.12 117.51 190.36 125.74 
M 192.54 129.57 194.9 133.77 
M 226.48 176.88 228.93 179.61 
M 178.88 102.26 189.37 116.68 191.7 120.13 193.93 123.8 199.27 133.62 
M 226.28 170.81 231.11 176.94 
M 182.42 101.39 191.58 113.16 195.16 118.33 
M 197.38 122 203.64 133.52 
M 228.3 167.35 230.71 170.7 
M 233.18 173.93 235.71 177 
M 186.08 100.62 191.09 106.62 196.13 113.11 200.76 120.21 206.05 129.77 
M 232.61 167.13 235.09 170.58 
M 240.24 177.02 244.01 181.17 245.2 182.26 
M 189.91 100.05 195.52 106.6 198.06 109.82 202.93 116.68 207.38 123.92 212.52 133.26 
M 234.38 163.33 236.89 166.94 
M 239.48 170.49 242.09 173.88 
M 193.78 99.54 199.91 106.71 204.96 113.3 207.36 116.69 211.89 123.85 217.15 133.13 
M 238.21 162.5 238.65 163.14 
M 241.25 166.85 243.88 170.43 
M 248.97 176.57 251.36 178.96 
M 197.73 99.21 201.8 103.83 206.92 110.11 213.01 118.42 
M 219.79 129.51 221.95 132.99 
M 245.65 166.79 250.77 173.29 
M 262.21 183.18 263.41 183.94 
M 201.67 98.89 208.89 107.19 216.33 116.76 218.78 120.18 223.34 127.59 226.9 132.85 
M 244.73 159.02 248.72 164.9 252.54 169.87 
M 205.62 98.59 210.93 104.53 218.37 113.67 223.25 120.38 227.99 127.69 229.35 129.51 
M 251.78 162.95 254.3 166.36 
M 256.77 169.39 261.51 174.4 
M 263.83 176.54 266.16 178.5 
M 268.51 180.28 270.85 181.85 
M 209.47 98.26 215.48 104.96 220.38 110.86 225.16 117.31 228.7 122.54 
M 231.25 126.07 236.6 132.57 
M 250.67 154.6 253.58 159.23 
M 265.72 173.76 269.34 176.93 272.93 179.66 
M 213.19 97.83 217.55 102.6 222.35 108.3 224.7 111.36 231.63 121.21 234.22 124.6 238.63 129.62 
M 257.78 159.08 262.65 165.53 
M 265.1 168.32 268.82 172.07 271.31 174.29 277.27 179.08 
M 216.81 97.41 219.61 100.39 224.35 105.95 226.66 108.92 233.34 118.31 235.81 121.54 245.32 132.32 
M 256.72 150.63 258.5 153.69 261.89 158.81 
M 264.33 162.08 265.58 163.67 269.38 167.87 
M 276.88 174.76 281.37 178.51 
M 220.32 97 224.05 100.98 228.72 106.63 237.57 118.57 247.44 129.69 
M 260.17 149.54 261.53 151.83 
M 266.01 158.55 267.25 160.22 271.11 164.78 
M 223.79 96.6 226.15 99.02 230.85 104.44 239.58 115.66 250.33 127.9 253.51 132.08 
M 262.97 147.37 266.58 153.32 270.21 158.36 
M 272.77 161.56 276.63 165.83 284.78 173.68 
M 290.45 179.48 292.22 181.13 
M 227.23 96.31 230.65 99.72 233.02 102.31 241.76 112.83 251.81 124.31 253.21 126.08 
M 255.96 129.77 257.51 131.97 
M 265.44 144.8 269.5 151.41 
M 274.39 158.17 276.93 161.28 
M 281.84 166.57 284.16 168.9 
M 286.34 171.14 288.35 173.33 
M 290.22 175.46 292.05 177.5 
M 230.76 96.01 235.15 100.25 239.74 105.15 253.43 120.75 256.08 124.09 261.46 131.85 
M 268.87 144 271.11 147.63 
M 278.44 157.86 283.3 163.57 
M 285.65 166.1 288.94 169.7 291.82 173.15 
M 234.51 95.8 241.92 102.73 252.85 114.6 257.67 120.45 264.01 129.63 
M 272.56 143.64 277.3 150.69 
M 279.85 154.16 283.57 158.96 289.48 165.79 
M 291.57 168.3 293.5 170.73 
M 295.37 173.1 297.28 175.36 
M 301.43 179.44 303.61 181.22 
M 238.49 95.63 244 100.37 249.5 105.79 
M 251.64 108.04 257.12 114.17 263.02 122.03 
M 265.49 125.61 269.27 131.63 
M 273.49 138.82 277.33 144.79 281.17 150.23 
M 283.77 153.72 286.34 157 
M 288.82 160.05 295.33 168.2 
M 301.2 175.39 305.6 179.57 
M 242.78 95.52 248.29 100.05 254.81 106.39 259.09 111.16 264.75 118.4 
M 267.15 121.73 270.6 126.99 273.17 131.51 
M 276.91 137.91 279.95 142.53 
M 282.48 146.21 286.48 151.68 294.15 161.33 297.29 165.53 
M 301.17 170.72 303.19 173.17 
M 247.23 95.43 250.27 97.72 254.7 101.58 258.99 105.92 263.22 110.81 267.81 116.45 270.19 119.66 272.44 123.05 277.14 131.4 
M 279.27 135.09 283.86 142.26 
M 286.46 145.99 292.01 153.18 
M 294.68 156.53 301.32 165.52 
M 251.9 95.39 256.67 99.07 261 103.24 269.71 113.12 273.24 117.68 
M 275.44 120.96 276.48 122.64 281.15 131.29 
M 281.64 132.2 284.21 136.65 287.82 142.18 
M 309.46 171.01 311.7 173.53 
M 256.71 95.38 260.82 98.6 262.95 100.66 271.56 110.03 276.28 115.69 279.45 120.62 
M 281.36 124.04 285.06 131.17 
M 285.1 131.25 288.15 136.68 290.53 140.35 294.7 145.87 
M 297.62 149.48 301.82 154.72 305.27 159.69 
M 261.54 95.44 264.82 98.19 275.66 109.67 278.03 112.37 281.35 117.02 
M 283.38 120.38 287.12 127.52 
M 289.04 131.24 291.11 134.94 
M 293.43 138.58 294.67 140.39 298.95 145.83 
M 304.59 152.99 309.18 159.79 
M 311.27 162.93 313.41 165.89 
M 317.98 171.29 320.32 173.73 
M 324.87 178.07 327.1 179.88 
M 266.09 95.48 268.67 97.85 279.67 109.36 281.99 112.1 284.21 115.16 287.29 120.26 
M 289.22 123.85 294.15 133.19 297.69 138.58 
M 300.41 142.17 303.3 145.81 
M 306.11 149.47 310.93 156.57 
M 322.23 171.28 324.54 173.66 
M 270.37 95.51 281.28 106.55 283.62 109.08 285.91 111.9 288.12 115.04 290.25 118.43 297.37 131.33 
M 299.65 134.98 302.2 138.57 
M 304.98 142.2 309.13 147.74 317.12 159.99 
M 326.42 171.08 328.7 173.44 
M 274.42 95.44 285.24 106.2 287.56 108.82 289.85 111.76 294.31 118.39 300.69 129.45 304.32 135.02 
M 309.69 142.31 313.5 147.84 316.82 153.24 
M 330.54 170.72 332.8 173.11 
M 278.54 95.35 286.91 103.34 291.56 108.59 293.89 111.65 298.56 118.33 304.11 127.63 
M 306.55 131.43 311.83 138.78 
M 318.89 149.7 323.26 156.49 
M 325.51 159.51 332.35 167.68 
M 334.63 170.27 336.88 172.72 
M 341.3 176.89 343.37 178.47 
M 283.02 95.36 286.43 98.39 290.96 102.86 293.3 105.49 298.1 111.55 302.82 118.34 307.39 125.86 309.94 129.69 315.3 137.08 318.85 142.47 
M 323.12 149.54 325.24 152.82 
M 327.4 155.87 329.62 158.75 
M 287.92 95.44 292.78 99.97 295.11 102.48 299.94 108.3 304.68 114.92 311.82 126.02 317.28 133.53 320.9 138.86 
M 325.18 145.8 328.29 150.64 331.51 155.06 
M 333.7 157.94 339.37 165.33 342.81 169.5 
M 345.11 172.02 349.69 176.34 
M 293.05 95.71 296.99 99.62 299.36 102.3 304.11 108.37 306.44 111.66 313.51 122.37 322.78 135.24 
M 327.19 142.06 331.35 148.43 
M 337.81 157.38 342.36 163.56 
M 297.96 96.04 301.22 99.56 305.84 105.4 310.47 111.84 317.74 122.41 325.75 133.28 329.12 138.37 
M 335.47 147.89 337.61 150.93 
M 339.78 154.02 342 157.17 
M 353.64 171.83 355.95 174.26 
M 302.46 96.37 305.34 99.76 311.04 107.2 
M 313.37 110.35 319.38 118.75 326.14 127.66 
M 328.66 131.2 330.97 134.65 
M 333.18 138.02 339.67 147.64 
M 344.05 153.98 346.3 157.21 
M 348.6 160.42 350.94 163.55 
M 353.28 166.54 355.62 169.37 
M 306.62 96.7 315.14 107.32 
M 317.54 110.36 329.26 125.56 341.79 144.4 
M 346.2 150.87 352.98 160.67 
M 359.93 169.71 362.22 172.46 
M 310.69 97.04 323.22 111.72 328.57 118.24 331.24 121.7 334.89 127.02 
M 337.14 130.61 343.95 141.09 
M 348.42 147.75 352.87 154.49 
M 359.63 164.18 364.19 170.13 
M 366.45 172.87 368.13 174.81 
M 315 97.43 326.58 109.95 
M 329.3 113.01 333.34 117.93 335.87 121.42 339.31 126.86 
M 341.54 130.51 346.12 137.63 
M 350.67 144.51 355.12 151.48 
M 366.19 167.65 368.42 170.55 
M 319.86 97.96 327.25 105.37 332.74 111.15 335.43 114.33 338 117.73 354.06 142.91 363.85 158.64 
M 325.38 98.7 332.01 105.12 337.44 110.97 340.02 114.23 343.72 119.53 
M 346.09 123.17 357.46 141.32 
M 359.68 145.03 361.84 148.72 
M 363.97 152.31 366.09 155.77 
M 370.36 162.35 372.51 165.48 
M 331.35 99.66 336.7 104.97 339.35 107.86 344.59 114.3 349.6 121.48 357.51 134.16 
M 364.13 145.46 366.26 149.18 
M 337.07 100.59 343.89 107.91 346.6 111.09 350.61 116.31 
M 353.14 119.91 356.66 125.33 362.1 134.48 
M 366.42 142.15 372.74 153.3 
M 342.41 101.44 348.53 108.03 354.13 114.82 359.14 122.03 364.52 131.15 
M 366.6 134.94 372.86 146.52 
M 347.66 102.21 353.24 108.23 356.17 111.63 358.96 115.17 362.69 120.58 
M 364.92 124.21 366.99 127.9 
M 368.99 131.66 370.99 135.5 
M 373.02 139.4 373.41 140.15 
M 352.99 103.06 358.02 108.49 360.99 111.95 363.75 115.52 367.29 121 
M 371.39 128.44 373.41 132.34 
M 358.49 104.08 362.83 108.8 365.74 112.31 368.35 115.94 370.65 119.64 373.41 124.61 
M 364.29 105.44 367.57 109.19 370.32 112.75 373.41 117.49 
M 370.44 107.46 373.41 111.29 
M 179.2 102.18 177.89 103.88 
M 184.13 100.98 180.05 106.36 
M 188.96 100.19 186.09 103.73 181.59 109.97 
M 193.82 99.54 190.44 103.62 183.23 113.68 
M 198.62 99.13 194.82 103.59 185.01 117.29 
M 203.79 98.73 201.44 101.05 199.18 103.7 186.67 121.11 
M 209.6 98.24 206.01 101.4 203.66 103.94 201.42 106.77 194.6 116.54 188 125.5 
M 215.76 97.53 210.64 101.87 208.23 104.29 205.91 107 189.02 130.42 
M 221.8 96.83 217.63 100.18 212.81 104.71 210.44 107.29 208.13 110.16 204.67 115 
M 202.25 118.45 197.02 125.78 
M 194.28 129.59 191.22 133.87 
M 228.19 96.22 224.47 98.76 222.06 100.69 219.69 102.82 214.97 107.63 210.29 113.39 198.81 129.71 
M 196.14 133.53 195.99 133.74 
M 234.24 95.81 228.96 99.46 224.11 103.4 219.44 107.99 215.94 112.07 
M 213.58 115.11 200.68 133.6 
M 239.41 95.59 231.01 102.05 226.15 106.23 223.83 108.5 221.56 110.97 216.91 116.77 210.46 125.8 
M 207.75 129.75 205.25 133.47 
M 243.83 95.5 240.36 98.33 230.52 106.9 225.84 111.52 221.42 116.96 212.26 129.67 
M 247.86 95.42 244.73 98.19 230.01 112.15 227.8 114.66 224.59 118.88 
M 219.63 125.7 214.36 133.21 
M 251.62 95.39 234.2 112.65 231.89 115.21 229.77 117.9 226.61 122.4 
M 224.21 125.79 221.55 129.52 
M 255.27 95.37 253.18 97.39 239.82 111.53 
M 237.3 114.23 233.86 118.36 226.31 129.53 
M 258.87 95.41 255.11 99.26 242.96 112.77 240.46 115.65 237.09 120.07 
M 235.11 123.07 228.95 132.79 
M 262.46 95.45 257 101.3 246.14 113.92 
M 243.73 116.96 240.43 121.62 233.95 132.64 
M 265.99 95.48 256.54 106.19 249.34 114.99 244.88 121.45 242.95 124.71 238.76 132.5 
M 215.91 169.93 215.23 170.78 
M 212.81 173.76 210.53 176.47 
M 269.46 95.5 265.14 100.44 257.2 110 
M 254.87 112.98 251.45 117.73 249.31 121.11 243.32 132.37 
M 221.08 169.35 219.9 170.84 
M 217.39 173.89 214.94 176.66 
M 273 95.47 268.99 100.11 260.2 111.07 257.95 114.1 254.72 119.02 
M 250.85 126.11 247.8 132.25 
M 227.65 166.12 226.84 167.39 
M 276.67 95.39 272.79 99.81 264.34 110.71 262.09 113.8 258.91 118.73 
M 256.96 122.27 252.22 132.12 
M 233.27 163.39 231.16 167.18 
M 228.91 170.73 226.49 173.94 
M 280.37 95.35 276.66 99.53 274.64 102.05 268.52 110.32 264.09 116.76 261.07 122.11 
M 257.54 129.74 256.53 131.99 
M 231.01 173.92 229.82 175.49 226.04 179.53 
M 283.9 95.36 280.62 99.22 276.61 104.36 268.35 116.41 266.19 119.99 264.2 123.78 260.68 131.87 
M 241.89 163.09 239.78 166.86 
M 230.72 179.64 228.19 182 
M 287.33 95.41 284.63 98.68 280.58 104.06 276.75 109.58 273.69 114.33 
M 271.53 117.83 269.36 121.55 
M 267.34 125.47 264.59 131.76 
M 251.37 154.52 248.45 159.3 
M 239.98 173.88 237.77 177 
M 290.69 95.58 288.68 98.02 284.55 103.64 278.83 112.31 272.38 123.05 270.26 127.03 268.18 131.66 
M 248.58 166.72 244.41 173.84 
M 242.26 177.02 240.01 179.84 
M 294.25 95.77 290.64 100.23 284.68 109.01 276.42 122.65 273.08 128.56 
M 265.71 144.65 264.7 146.52 261.33 151.86 
M 256.99 159.14 254.94 162.85 
M 297.98 96.04 294.8 99.77 290.6 105.7 286.68 111.87 276.88 128.05 
M 269.31 144.16 268.41 146.14 266.39 149.86 262.09 157.03 259.13 162.58 
M 248.77 179.4 246.55 182.15 
M 301.91 96.32 299.05 99.56 294.72 105.4 290.64 111.74 278.56 131.36 
M 272.85 143.54 270.25 149.54 267.24 155.02 
M 261.28 165.71 259.27 169.1 
M 257.2 172.39 255.1 175.59 
M 252.97 178.67 250.8 181.53 
M 305.92 96.65 303.22 99.63 301.1 102.31 296.82 108.38 282.37 131.25 
M 280.19 135.02 279.15 136.92 276.49 142.95 
M 274.87 147.08 273.19 151.07 
M 265.43 165.26 261.35 171.73 
M 309.97 96.98 307.29 99.91 305.21 102.48 301.08 108.3 287.43 129.36 285.14 133.02 282.1 138.58 
M 278.68 146.6 276.3 152.71 275.42 154.59 
M 271.67 161.64 269.68 164.91 
M 265.54 171.13 263.41 174.11 
M 313.93 97.33 311.35 100.21 307.22 105.49 291.45 129.43 288.03 134.87 
M 286.02 138.49 285.07 140.32 282.57 146.22 
M 277.68 157.94 273.95 164.59 
M 271.95 167.65 269.86 170.62 
M 261.01 181.49 259.12 183.5 
M 317.78 97.68 313.33 102.98 310.25 107.17 
M 308.24 110.16 299.44 123.82 
M 294.41 131.33 290.97 136.74 288.19 142.19 
M 286.54 146.01 284.93 149.9 
M 283.29 153.78 281.61 157.5 
M 278.09 164.22 276.21 167.25 
M 269.82 175.68 267.52 178.3 
M 321.57 98.19 317.51 103 313.3 108.78 304.99 122.04 295.13 136.81 293.12 140.38 289.01 149.69 
M 287.34 153.44 285.57 157.07 
M 282.03 163.74 280.28 166.78 
M 276.39 172.43 274.22 175.11 
M 325.47 98.71 321.9 102.83 317.46 108.8 313.29 115.25 307.01 125.84 300.72 134.98 
M 298.42 138.58 297.36 140.38 295.59 144.04 292.38 151.41 290.63 155.02 287.78 160.12 
M 274 179.52 271.61 181.75 
M 329.38 99.34 324.15 105.54 319.61 111.89 315.38 118.78 311.45 126.01 309.21 129.66 301.82 140.35 299.06 145.83 
M 297.43 149.49 294.86 154.85 293.89 156.56 
M 291.89 159.87 289.89 162.97 
M 287.97 165.89 286.15 168.67 
M 333.34 99.98 328.87 105.28 326.5 108.38 321.82 115.14 319.62 118.74 313.84 129.8 311.56 133.42 307.8 138.68 
M 299.97 153 299.09 154.75 296.05 159.72 
M 293.92 162.78 289.86 168.38 
M 288 170.99 286.18 173.52 
M 282.31 178.37 280.17 180.59 
M 337.32 100.63 331.28 108.1 326.48 114.87 324.12 118.53 322 122.3 318.28 129.85 316.25 133.52 315.07 135.28 
M 312.64 138.8 310.19 142.32 
M 307.94 145.89 303.24 154.73 300.19 159.65 
M 297.97 162.7 295.73 165.54 
M 291.57 170.78 287.88 175.61 
M 341.27 101.27 338.26 104.95 333.68 111.1 327.69 120.13 
M 325.49 123.97 320.63 133.51 318.48 137.11 314.84 142.43 
M 312.43 146 310.22 149.56 
M 308.22 153.06 306.28 156.44 
M 304.24 159.66 303.18 161.22 299.7 165.51 
M 287.61 179.65 285.67 181.52 
M 345.24 101.86 340.56 107.86 333.61 117.92 328.88 125.59 322.73 137.04 313.31 151.43 309.2 158.2 306.01 162.75 
M 299 170.7 294.77 175.35 
M 287.24 182.81 286.07 183.67 
M 349.26 102.45 342.88 110.97 335.8 121.42 331.05 129.15 324.64 140.5 318.7 149.7 
M 316.35 153.24 309.94 162.88 
M 305.39 168.29 303.01 170.76 
M 294.48 179.39 290.67 182.63 
M 353.38 103.13 345.19 114.32 337.82 125.03 335.36 128.85 325.28 145.81 
M 322.92 149.57 316.05 159.97 
M 313.92 163.01 310.64 167.18 307.14 170.91 
M 357.64 103.88 352.31 111.38 343.57 123.15 
M 341 126.84 337.27 132.44 324.74 152.9 
M 322.46 156.57 319.12 161.61 316.94 164.58 314.77 167.33 311.37 171.09 
M 306.68 175.58 304.38 177.6 
M 302.13 179.46 299.93 181.15 
M 297.79 182.62 296.41 183.47 
M 361.92 104.88 357.13 111.69 350.86 119.8 
M 348.19 123.24 341.64 132.35 335.74 141.29 
M 322.25 162.99 320.07 165.99 
M 317.87 168.71 314.52 172.46 312.19 174.72 308.67 177.78 
M 366.15 106.02 359.58 115.22 351.53 125.11 346.13 132.28 334.11 149.69 328.55 158.95 
M 326.42 162.51 324.28 165.76 
M 322.12 168.68 319.92 171.3 
M 310.67 179.78 308.29 181.38 
M 370.23 107.39 364.35 115.56 353.44 128.7 350.71 132.23 338.28 149.28 335.96 152.69 332.64 158.14 
M 330.51 161.78 326.3 168.38 
M 319.7 176.01 317.4 178.1 
M 373.41 109.82 366.45 119.18 362.38 123.99 
M 359.54 127.24 355.33 132.29 351.4 137.58 
M 348.84 141.05 346.3 144.39 
M 343.79 147.61 340.14 152.4 336.74 157.5 
M 334.59 161.06 331.46 166.32 328.3 170.9 
M 319.37 180.01 317 181.63 
M 373.41 116.41 368.32 122.83 359.95 132.51 348.21 147.72 
M 345.69 150.85 342.04 155.56 339.77 158.86 334.5 167.37 
M 332.41 170.49 330.28 173.31 
M 373.41 122.47 364.53 132.91 353.99 146.37 347.6 154.12 
M 345.18 157.19 342.88 160.38 
M 338.57 166.93 336.48 170.06 
M 373.41 128.2 366.33 136.71 355.88 149.89 348.33 158.86 344.89 163.5 
M 340.57 169.68 338.44 172.57 
M 331.95 179.6 330.54 180.78 
M 372.03 135.63 369.42 138.91 
M 366.83 142.2 364.24 145.47 
M 361.64 148.7 356.48 154.81 
M 353.96 157.7 351.53 160.59 
M 346.93 166.47 344.72 169.4 
M 373.41 139.91 364.75 150.73 353.55 163.7 
M 372.96 146.54 369.14 151.23 365.27 155.68 
M 362.72 158.53 360.27 161.31 
M 357.89 164.02 355.57 166.68 
M 373.41 151.86 369.65 156.16 
M 367.09 158.99 362.22 164.44 
M 359.89 167.03 355.29 171.89 
M 353 174.18 350.72 176.32 
M 373.41 157.3 368.94 162.2 
M 366.52 164.88 364.18 167.45 
M 361.88 169.9 359.59 172.2 
M 355.01 176.35 353.3 177.76 
M 373.41 162.47 363.85 172.62 
M 361.58 174.73 359.34 176.6 
M 373.41 167.5 369.19 171.92 365.81 175.14 
M 254.01 94.44 292.09 47.07 292.75 47.58 257.07 95.39 
M 266.49 94.72 284.59 66.21 285.32 66.63 269.51 95.5 
M 279 94.72 285.6 82.89 286.37 83.24 281.98 95.36 
M 292.9 95.28 294.33 95.77 
M 289.11 52.45 286.7 55.76 284.76 59.24 283.54 63 283.18 64.98 282.78 69.06 
M 283.69 69.59 282.9 72.91 282.6 76.17 283.08 79.37 283.59 80.95 284.94 84.08 
M 285.91 84.51 286.79 87.61 288.08 90.4 290 92.75 291.19 93.76 293.83 95.6 
M 287.87 54.09 285.65 57.47 284.76 59.24 283.54 63 282.95 67.01 
M 283.26 61.33 281.42 64.11 280.69 65.58 279.68 68.68 279.2 71.98 
M 278.64 68.56 277.19 70.75 276.62 71.91 275.82 74.35 275.44 76.95 
M 274.03 75.79 272.54 78.24 271.97 80.03 271.69 81.93 
M 283.26 71.25 282.66 74.55 282.6 76.17 283.08 79.37 284.23 82.52 
M 189.36 132.43 296.81 129.83 296.84 130.67 189.75 135.38 
M 189.72 135.87 288.18 136.87 288.18 137.71 189.58 138.83 
M 189.57 139.32 279.44 143.34 279.41 144.18 189.67 142.28 
M 189.69 142.77 270.62 149.22 270.56 150.05 189.65 145.72 
M 189.63 146.21 261.74 154.51 261.65 155.34 189.4 149.15 
M 189.35 149.62 252.83 159.21 252.72 160.04 188.98 152.54 
M 188.92 152.97 243.93 163.32 243.79 164.15 188.54 155.9 
M 188.54 156.31 235.06 166.85 234.89 167.67 188.75 159.35 
M 188.77 159.78 226.25 169.79 226.06 170.61 188.73 162.77 
M 188.72 163.18 217.54 172.16 217.32 172.97 188.69 166.18 
M 188.69 166.6 208.94 173.96 208.69 174.76 188.59 169.55 
M 188.54 169.97 200.5 175.19 200.22 175.98 188.2 172.81 
M 189.71 173.21 192.22 174.8 191.92 175.59 187.67 174.85 
M 285.85 131.15 283.49 131.52 282.4 131.84 280.55 132.93 279.16 134.65 278.06 136.77 
M 278.06 137.83 275.72 138.06 273.67 138.71 272.03 140.01 270.2 142.92 
M 270.16 143.98 267.87 144.06 265.82 144.58 264.17 145.77 262.26 148.55 
M 262.19 149.61 259.94 149.54 257.92 149.93 256.25 151 254.27 153.65 
M 254.17 154.7 251.97 154.49 249.98 154.75 248.31 155.71 246.26 158.21 
M 246.12 159.26 243.99 158.92 242.04 159.05 240.36 159.9 238.26 162.25 
M 238.08 163.3 235.04 162.73 233.25 163.09 231.69 164.19 230.28 165.76 
M 230.07 166.8 228.09 166.19 226.24 166.07 224.57 166.69 222.36 168.75 
M 222.11 169.78 220.22 169.04 218.43 168.8 216.78 169.31 214.52 171.22 
M 214.24 172.24 211.57 171.11 209.89 171.12 208.31 171.9 206.79 173.18 
M 206.47 174.18 204.79 173.2 203.14 172.73 201.53 173.02 199.19 174.62 
M 198.84 175.62 197.43 174.31 195.95 173.49 194.34 173.44 191.75 174.5 
M 284.65 131.31 282.4 131.84 280.55 132.93 279.81 133.72 278.59 135.68 
M 261.85 132.33 260.13 132.74 258.71 133.57 258.14 134.17 257.2 135.68 
M 239.05 133.35 237.33 133.88 236.47 134.63 235.82 135.68 
M 276.87 137.91 274.65 138.31 273.67 138.71 272.03 140.01 270.76 141.88 
M 255.89 138.17 254.18 138.48 253.43 138.78 252.17 139.78 251.2 141.21 
M 234.91 138.43 233.2 138.86 232.32 139.55 231.65 140.55 
M 269 143.99 266.8 144.25 265.82 144.58 264.17 145.77 262.85 147.55 
M 240.28 143.43 238.22 143.81 237.14 144.59 236.28 145.74 
M 261.05 149.54 258.89 149.66 257.92 149.93 256.25 151 254.89 152.69 
M 235.11 148.21 233.08 148.46 231.99 149.16 231.11 150.26 
M 253.06 154.56 250.94 154.54 249.98 154.75 248.31 155.71 246.91 157.3 
M 229.92 152.65 228.54 152.64 227.35 153.03 225.92 154.43 
M 245.04 159.06 242.98 158.9 242.04 159.05 240.36 159.9 238.93 161.38 
M 224.71 156.75 222.76 156.74 221.67 157.29 220.73 158.26 
M 237.04 163.02 235.04 162.73 233.25 163.09 232.44 163.56 230.97 164.94 
M 229.07 166.46 227.14 166.04 226.24 166.07 224.57 166.69 223.07 167.98 
M 221.16 169.38 219.31 168.83 218.43 168.8 216.78 169.31 215.26 170.5 
M 231.73 189.2 234.46 192.27 240.44 199.8 241.91 202.12 246.41 205.47 248.04 207.44 250.22 209.14 253.64 212.46 254.97 214.61 257 216.55 259.22 219.38 258.96 228.71 258.29 230.85 258.71 234.09 258.26 236.77 257.39 239.28 256.22 241.47 255.46 244.08 253.66 245.68 252.1 247.54 250.36 249.22 248.88 251.17 248.25 252.57 241.39 262.92 241.49 257.37 240.79 254.75 240.98 251.93 240.75 248.9 239.92 246.3 239.76 243.34 239.2 241.77 237.58 235.46 235.02 231.48 234.4 228.44 234.34 225.99 233.38 224.12 231.24 218.02 231.25 215.06 229.28 207.36 229.06 204.99 228.55 202.18 225.94 193.97 225.34 191.16 223.9 188.29 
M 230.06 189 238.06 199.71 238.99 202.22 240.35 204.69 242.29 206.67 244.58 208.1 249.15 211.46 
M 228.39 188.81 235.56 199.73 236.92 202.14 238.65 207.69 240.75 210.01 242.87 211.48 
M 226.73 188.61 228.7 191.77 229.89 194.54 231.17 196.96 232.76 199.24 233.88 202.26 235.15 204.87 236.05 207.31 238.74 212.12 240.28 214.54 241.79 216.48 242.74 219.12 
M 225.06 188.42 226.76 191.34 227.5 194.2 228.6 196.86 229.96 199.14 231.27 202.43 232.05 205.39 232.42 207.44 234.19 211.79 236.84 217.53 237.36 220.13 238.58 222.81 239.06 227.88 240.62 232.63 
M 349.1 182.64 352.26 186.04 354.27 188.76 356.2 190.89 356.81 193.39 361.27 205.33 359.36 206.98 357.65 208.83 356.73 211.46 355.68 213.87 354.38 216.13 353.71 218.9 350.47 217.8 347.26 216.49 344.9 216.85 340.29 218.2 338.16 218.5 335.14 217.91 332.25 221.99 329.74 222.65 327.52 222.25 322.25 218.8 318.46 216.95 314.02 214.48 311.62 213.77 308.85 213.7 305.75 212 300.7 208.77 292.82 199.33 291.1 196.21 289.39 192.54 286.5 188.45 
M 344.93 183.14 347.85 186.03 349.75 188.73 353.63 196.35 354.13 197.91 355.83 200.71 359.41 202.57 361.92 205.05 
M 340.77 183.66 348.09 194.9 349.38 197.28 351.07 199.58 351.91 202.02 354.06 204.31 356.53 205.94 357.25 207.33 357.44 209.52 
M 336.62 184.27 338.75 187.95 340.68 190.49 343.91 195.43 345.88 197.75 347.12 199.95 348.37 202.88 348.97 205.01 
M 332.47 184.91 338.11 193.29 339.99 195.04 341.34 197.48 342.56 200.34 
M 328.34 185.62 330.78 188.56 335.11 196.38 336.91 198.64 338.28 200.92 340.2 202.58 341.6 204.29 
M 324.19 186.29 328.32 192.51 329.81 195.21 331.68 197.56 335.76 202.02 338.49 206.49 339.28 208.53 341.28 210.69 
M 320.04 186.89 322.61 190.24 324.42 192.92 327.46 198.53 331.58 202.71 333.25 205.14 334.58 207.37 336.15 210.62 336.44 213.01 338.11 215.84 339.8 216.99 
M 315.87 187.36 320.18 193.3 321.62 196 325.23 200.57 326.49 203.22 328.1 205.72 332.08 210.39 331.82 213.1 332.44 215.7 
M 311.69 187.68 314 191.1 315.44 193.87 318.69 198.62 320.7 203.78 322.9 205.72 324.71 208.23 
M 307.5 187.91 309.66 191.21 312.49 197.15 313.84 199.18 317.39 206.49 320.52 211.22 323.25 213.14 324.95 216.34 
M 303.3 188.08 304.98 191.92 307.27 197.82 311.79 201.42 312.73 203.87 313.82 206.01 
M 299.11 188.19 302.57 195.37 305.47 200.45 309.76 205.13 
M 294.91 188.29 299.99 198.03 302.79 202.58 
M 290.72 188.37 292.66 192.33 296.37 198.6 298.19 204.6 
M 372.57 108.19 375.56 107.41 378.01 106.21 380.5 104.76 383.36 103.64 385.43 102.4 387.44 101.93 392.3 99.89 394.49 98.7 395.66 97.74 397.67 96.8 399.98 94.7 402.86 92.93 411.22 89.66 413.95 87.41 414.94 85.39 417.41 82.91 420.17 81.09 422.82 79.61 429.83 81.82 432.54 82.93 438.63 85.83 445.75 88.14 447.49 88.26 449.24 88.72 456.99 94.82 459.22 96.38 461.78 97.65 469.91 102.19 474.99 108.42 480.62 117.59 484.53 125.65 484.29 127.8 484.58 130.47 484.31 132.59 484.54 135.15 486.59 140.77 487.21 143.18 488.47 146.22 490 152.28 489.91 157.41 486.13 166.25 485.75 169.17 484.29 171.12 483.14 173.4 481.46 175.14 479.55 176.66 478.1 178.62 476.23 180.16 475.27 182.63 474.14 184.91 472.27 186.57 471.03 188.85 469.52 190.87 468.18 193.06 466.62 195 460.47 199.18 458.19 200.18 455.65 200.92 452.84 201.38 450.39 202.21 446.79 205.54 444.86 207.11 439.18 208.32 436.62 209.02 435.05 210.71 431.11 211.54 421.99 212.93 420.1 212.14 416.44 208.96 413.23 208 410.69 206.55 408.78 204.1 405.61 202.87 404.18 201.32 402.18 199.69 400.44 197.95 398.69 196.78 396.63 195.96 394.43 194.27 391.94 193.03 390.2 190.81 388.17 188.81 377.86 182.11 372.57 177.98 
M 377.9 109.92 382.72 107.89 385.33 107.07 387.76 105.98 391.61 103.63 394.23 103.01 396.23 101.75 397.84 101.63 400.33 100.6 406.01 96.19 407.63 94.13 410.46 92.8 413.26 93.64 414.97 92.88 416.37 91.51 418.68 89.63 421.46 88.3 426.48 85.49 
M 372.57 115.17 377.83 113.85 385.13 111 390.33 108.42 392.48 107.84 399.21 105.34 409.31 100.35 411.53 98.85 416.21 97.86 419.2 97.45 421.1 95.06 423.85 93.35 426.93 92.8 429.14 92.02 
M 377.93 117.35 382.81 115.71 385.56 115.15 390.4 112.22 397.06 110.33 399.42 109.47 401.74 109.32 404.32 108.23 407.36 105.94 410.37 105.24 412.6 104.37 413.96 103.19 418.15 101.75 421.42 101.23 
M 375.47 121.73 383.31 119.69 385.83 118.29 388.32 117.73 390.78 116.89 398.28 115.63 402.89 113.95 407.31 111.73 409.74 110.81 412.91 109.88 415.17 109.73 422.9 107.21 425.62 106.67 430.47 105.29 432.64 105 435.6 104.37 437.23 103.32 
M 375.65 125.76 377.94 125.37 383.15 124.07 388.66 122.29 390.88 122.07 393.48 120.75 396.2 120.3 401.96 119.9 403.81 119.19 406.34 118.95 408.68 117.92 413.67 116.32 415.69 115.21 418.25 114.68 420.37 113.68 422.99 113.52 425.61 113.64 427.57 112.23 429.65 111.32 434.78 110.25 439.62 107.34 442.3 107 
M 380.85 128.94 383.28 128.38 385.82 128.06 388.55 127.25 390.86 126.99 393.53 126.16 399.24 125.12 402.19 124.76 404.46 124.06 406.6 124.05 409.15 123.29 411.53 121.86 413.88 120.71 416.97 119.46 419.03 119.75 421.72 118.98 424.84 119.29 427 118.79 429.81 118.75 434.05 117.9 436.76 116.94 439.92 115.41 442.48 115.12 444.09 114.22 445.26 114.35 448.51 113.76 451.3 112.62 454.36 113.28 456.63 112.74 458.3 111.49 460.92 111.24 463.34 111.94 
M 378.28 132.64 383.45 131.91 388.57 131.58 398.82 130.18 403.88 128.59 406.18 128.81 408.54 128.55 410.88 127.66 414.44 127.1 417.16 126.17 419.39 125.64 422.32 125.5 425.48 125.05 427.7 124.96 429.6 125.8 435.23 125.44 437.41 124.09 444.51 122.94 446.26 121.9 446.63 121.52 448 121.06 458.91 119.52 461.09 120.07 463.28 119.08 464.85 119.03 468.33 119.72 470.27 119.61 472.47 120.65 476.17 120.82 
M 380.83 136.02 383.62 135.91 391.29 134.75 393.82 134.97 396.94 134.57 399.44 134.69 402.09 134.49 404.79 134.74 407.25 135.18 412.62 134.24 415.26 133.29 421.1 132.23 423.83 132.05 426.45 132.17 430.86 131.5 436.07 131.06 438.29 131.16 441.54 130.76 444.89 130.96 446.66 130.56 450.13 128.82 452.89 128.84 456.88 129.97 459.15 131.02 461.8 130.61 464.27 129.75 465.64 128.41 471.28 127.94 474.4 128.48 476.78 129.4 479.19 129.06 
M 381.03 139.69 383.72 139.67 386.72 140.08 391.08 139.96 394.24 139.7 399.65 139.82 402.39 139.37 407.48 140.3 412.98 140.16 416.02 140.37 418.67 140.29 421.56 139.71 424.09 139.66 426.37 139.99 427.99 139.87 432.09 139.07 435.21 138.85 438.58 139.78 444.97 139.16 447.18 138.63 448.15 137.89 449.72 137.4 456.49 138.38 457.74 138.36 460.21 138.25 463.93 137.66 466.72 137.74 468.73 137.62 471.79 136.84 478.65 138.55 480.25 137.8 481.17 136.74 482.76 136.87 
M 372.57 143.08 375.99 143.73 383.98 144.03 386.2 144.77 388.43 144.73 390.8 144.92 394.3 144.8 400.38 145.21 408.57 144.35 413.68 145.62 416.49 145.69 420.47 146.36 422.12 146.37 424.12 147.12 427.16 147.17 432.12 146.3 434.87 146.83 438.45 147.1 440.29 146.52 444.86 146.47 447.14 146.09 449.8 145.08 457.28 146.85 460.72 146.95 463.04 146.77 464.62 145.65 467.88 145.59 470.87 146.16 472.37 147.54 
M 372.57 146.57 375.65 147.5 378.37 147.82 381.2 147.89 383.95 148.25 386.46 148.91 391.64 149.43 393.92 149.02 396.95 148.99 400 149.43 402.42 150.04 404.57 150.85 407.59 150.68 409.91 150.93 414.67 151.9 420.2 152.41 423.39 152.35 426.37 151.92 428.9 152 431.3 152.69 432.63 152.52 437.81 152.69 444.12 154.37 446.36 153.35 
M 378.15 151.6 380.43 152.16 385.86 152.61 388.7 153.66 391.33 154.11 399.74 154.47 404.51 155.47 406.66 156.12 409.34 156.62 412.04 156.57 414.5 157.93 417.26 158.53 420.02 158.13 426.19 158.46 428.42 158.96 430.85 159.94 436.29 160.46 445.51 161.81 455.3 164.86 456.01 165.31 458.85 165.37 462.81 163.95 
M 375.51 154.75 383.46 156.28 386.58 157.11 389.02 158.08 391.77 158.53 394.21 158.7 396.46 159.21 398.87 159.46 401.41 160.25 411.5 162.83 418.43 163.46 420.57 164.29 422.93 164.34 425.47 163.91 428.05 164.47 434.14 167.32 436.65 167.88 439.6 169.37 
M 372.57 157.04 380.84 159.86 383.41 160.56 391.63 163.52 393.94 163.49 396.32 164 398.88 164.18 401.42 164.74 403.84 166.02 406.3 166.67 408.8 167.68 410.49 168.38 413.11 169.92 415.96 170.97 422.16 170.02 424.98 170.1 427.36 171.02 430.1 173.02 433.06 174.87 438.72 175.59 441.98 176.74 444.64 177.25 449.71 180.06 
M 378.39 162.85 386.47 166.25 390.01 168.7 399.44 169.47 402.07 170.01 405.33 171.99 407.57 172.66 415.54 176.35 417.57 176.51 
M 375.6 165.45 380.89 167.75 383.53 168.45 389.63 172.92 392.56 173.64 395.35 173.63 398.2 174.24 400.21 175.17 402.5 176.75 405.22 177.55 410.82 179.86 412.76 181.13 418.2 182.66 419.66 183.76 421.76 184.86 424.9 185.37 429.44 188.5 431.74 189.05 434.47 190.34 436.32 191.58 439.24 192.34 441.39 193.65 443.79 193.93 
M 375.29 169.33 380.78 171.43 383.39 172.65 385.55 174.48 387.96 175.61 391.34 176.48 396.02 178.64 396.9 179.66 404.61 184.41 408.07 185.32 410.89 186.3 412.57 187.45 415.2 188.34 418.27 189.15 421.93 190.84 423.38 192.47 425.48 193.68 427.53 194.22 429.46 195.45 433.81 197.12 437.81 198.43 443.46 201.16 
M 380.44 175.51 382.45 176.75 384.79 177.82 387.8 179.66 391.26 181.42 393.72 182.95 395.06 184.52 397.04 185.91 404.81 189.69 407.45 190.57 410.44 190.98 412.07 192.52 414.38 193.19 418.04 195.03 419.32 196.26 
M 375.66 176.63 377.89 177.86 382.46 180.97 385.03 182.36 387.99 184.27 390.59 186.45 393.26 187.57 394.85 189.67 396.57 191.15 401.22 192.7 402.96 193.64 405.05 194.5 407.19 196.02 409.57 197.27 412.22 198.95 414.7 200.05 417.56 201.96 419.9 204.06 421.8 205.51 
M 317.8 97.68 322.03 100.65 332.77 85.57 334.57 83.9 338.94 81.31 341.42 80.29 344.11 79.74 347.26 82.13 349.07 83.18 350.87 83.85 353.16 83.69 355.1 82.39 356.1 84.12 356 86.67 356.14 89.47 359.45 95.37 361.39 108.03 356.93 103.71 
M 321.96 98.24 324.72 97.54 326.58 95.24 327.57 93.44 329.05 92.25 
M 326.12 98.81 328.43 98.15 330.58 95.8 332.13 93.82 332.8 92.24 334.64 89.87 336.37 87.21 338.29 85.71 339.05 83.85 
M 330.26 99.48 332.82 98.53 334.42 96.25 337.49 92.93 339.13 90.45 340 87.55 341.16 85.47 342.66 84.63 342.56 81.82 
M 334.4 100.15 337.01 98.93 338.12 97.33 338.86 95.6 340.36 94.16 344.82 89.11 345.63 87.11 
M 338.54 100.83 340.69 99.31 341.82 98.04 343.3 97.01 344.68 95.72 346.53 91.07 
M 342.69 101.48 344.77 100.61 346.08 99.25 347.85 97.96 349.35 96.19 350.95 91.48 
M 346.84 102.09 348.86 102.1 350.75 100.44 352.42 97.9 
M 350.99 102.73 353.46 102.71 354.92 100.54 358.87 97.15 
M 100.54 139.44 100.95 138.34 102.27 136.33 104.31 134.2 107.22 132.13 115.53 127.71 124.27 121.56 129.78 118.67 142.45 113.39 154.79 109.1 171.17 104.32 176.93 102.79 180.25 106.58 181.84 110.61 185.68 118.61 187.28 122.64 188.3 126.72 189.77 134.95 189.57 139.16 189.71 143.34 189.6 147.53 188.52 156.02 188.8 160.18 188.7 168.56 188.2 172.8 187.07 177.1 184.8 181.45 172.56 180.82 163.56 179.63 155.51 178.05 148.2 176.11 134.71 171.74 123.86 166.65 118.92 163.88 114.4 160.98 110.55 157.56 
M 165.99 127.43 166.33 130.95 164.77 137.71 163.69 140.81 162.36 143.73 161.36 146.46 161.44 151.27 162.93 156.3 163.68 159.42 163.7 162.95 155.54 162.95 149.57 162.73 143.91 162.27 138.35 161.44 127.17 158.72 122.29 156.58 
M 109 156.9 103.17 150.01 98.15 143.47 97.64 141.4 98.9 139.62 101.07 139.38 102.6 140.9 106.85 150.25 110.67 157.48 
M 110.21 158.14 99.79 157.52 93.45 156.9 91.43 156.37 90.34 154.45 91.09 152.46 93.15 151.7 97.11 153.01 98.94 153.78 110.4 157.31 
M 131.06 140.97 128.64 137.58 127.46 133.6 127.63 129.44 129.14 125.57 131.83 122.4 135.4 120.27 139.47 119.42 143.6 119.93 147.33 121.76 150.27 124.7 152.1 128.43 152.61 132.56 151.76 136.63 149.63 140.2 146.46 142.88 142.58 144.4 138.43 144.57 134.44 143.38 131.06 140.97 
M 148.21 126.16 149.68 129.15 150.09 132.45 149.4 135.71 147.7 138.57 145.16 140.71 142.06 141.92 138.74 142.06 135.55 141.11 132.85 139.18 
M 135.79 134.98 134.82 133.62 134.35 132.03 134.42 130.37 135.02 128.82 136.1 127.55 137.53 126.7 139.15 126.36 140.8 126.56 142.3 127.29 143.47 128.47 144.2 129.96 144.41 131.61 144.07 133.24 143.22 134.67 141.95 135.75 140.4 136.35 138.74 136.42 137.14 135.94 135.79 134.98 
M 134.87 132.41 138.87 136.41 
M 135.36 130.63 140.89 136.16 
M 136.68 129.69 142.38 135.38 
M 138.82 129.56 143.48 134.22 
M 140.15 128.62 144.19 132.66 
M 141.7 127.91 144.27 130.48 
M 101.54 137.44 106.17 142.06 
M 103.84 134.69 107.27 138.13 
M 106.69 132.51 111.14 136.96 
M 109.93 130.71 113.97 134.76 
M 113.21 128.96 117.4 133.15 
M 116.38 127.09 120.29 131 
M 119.3 124.98 123.18 128.86 
M 122.28 122.92 126.65 127.29 
M 125.37 120.98 129.3 124.91 
M 128.68 119.25 131.83 122.4 
M 132.15 117.68 134.98 120.52 
M 135.69 116.19 138.65 119.15 
M 139.25 114.72 142.41 117.88 
M 142.83 113.26 146.89 117.32 
M 146.53 111.93 150.37 115.76 
M 150.26 110.62 155.13 115.48 
M 154.03 109.36 157.31 112.63 
M 157.91 108.2 160.98 111.27 
M 161.81 107.07 164.46 109.71 
M 165.72 105.94 169.81 110.03 
M 169.61 104.79 174.62 109.8 
M 173.54 103.68 177.61 107.75 
M 166.34 124.39 165.98 127.09 166.28 129.57 
M 154.48 138.39 155.75 138.91 156.66 139.02 157.07 138.86 158.73 137.47 
M 110.72 130.51 110.35 130.49 
M 131.68 170.38 133.02 170.59 
M 128.24 119.48 133.51 121.39 
M 177.79 174.29 176.9 174.3 176.05 173.92 173.88 171.91 173.43 171.69 172.55 171.39 170.71 171.08 
M 180.43 162.57 180.47 161.1 181.3 157.78 181.25 157.2 180.89 156.68 180.18 156.27 179.28 156.02 178.24 155.93 176.56 155.38 174.77 155.14 
M 126.09 138.29 124.11 137.04 122.89 137.05 122.37 137.57 
M 168.95 134.75 167.71 135.35 165.7 137.49 165.13 138.69 165.12 140.15 
M 118.03 163.31 118.25 162.65 119.68 160.59 
M 178.98 123.84 176.04 121.55 174.52 119.35 173.94 118.98 172.74 118.57 172.18 118.55 171.71 118.69 170.59 119.59 
M 146.1 168.69 147.73 167.46 148.24 166.73 148.8 165.2 149.03 163.74 148.99 162.92 148.08 159.27 147.83 158.56 147.38 157.96 
M 162.39 147.4 164.17 146.64 165.18 146.55 167.06 147.05 168.32 147.61 
M 168.47 107.83 168.1 106.94 168.5 105.12 
M 128 152.87 127.29 152.91 126.72 153.3 125.86 154.37 125.77 154.61 125.95 154.88 
M 158.97 167.91 157.67 167.2 156.6 167.02 155.93 167.22 154.46 168.28 152.7 168.96 
M 124.49 122.07 125.52 123.12 126.75 125.21 126.71 125.6 125.56 128.05 
M 162.59 140.8 165.34 141.43 166.15 142.05 
M 112 138.68 111.13 138.27 110.42 138.14 108.44 138.2 107.77 138.75 107.58 140.04 
M 124.04 156.72 126.84 156.07 127.16 155.55 127.28 154.77 
M 159.9 156.58 160.08 157.14 160.42 157.43 163.84 158.16 
M 153.35 125.65 151.44 127.09 
M 180.7 179.14 177.8 179.41 177.3 179.31 176.01 178.42 174.86 176.96 
M 173.93 154.89 166.05 153.99 
M 162.43 108.13 164 107.83 164.71 108 165.38 108.54 165.41 108.81 165.14 109.3 
M 176.63 118.97 175.06 118.11 172.72 117.15 172.19 117.23 171.05 117.79 170.08 118.76 
M 162.6 130.75 163.89 132.42 164.17 133.18 164.03 133.72 
M 165.15 141.41 166.17 142.06 
M 167.83 148.12 168.26 148.79 167.88 149.57 166.65 150.43 165.73 150.71 
M 146.78 151.09 143.72 152.78 141.28 155.41 140.56 155.88 
M 171.1 169.13 168.71 169.46 167.92 169.22 166.59 167.06 164.88 165.57 164.62 165.13 
M 111.91 156.6 110.95 155.22 110.63 154.34 110.62 153.79 110.79 153.32 111.17 152.93 113.15 151.99 
M 139.07 165.6 136.95 165.67 134.81 165.51 
M 172.86 135.77 171.56 136.41 169.46 136.81 168.21 137.26 166.68 138.16 165.77 139.01 
M 179.91 126.84 180.54 126.53 181.15 126.57 
M 177.74 138.94 177.38 136.28 175.92 133.64 
M 109.2 154.65 109.63 154.2 
M 155.01 134.18 156.74 133.27 157.11 133.5 
M 159.9 157.97 160.56 158.58 163.59 160.44 166.12 161.6 166.36 161.85 166.37 162.45 
M 170.66 164.96 167.87 164.03 165.65 164.05 165.42 163.85 165.61 163.46 
M 188.36 136.25 186.18 134.64 185.34 133.46 184.87 131.87 183.87 129.84 183.78 128.63 184.2 127.93 
M 108.61 141.28 107.86 141.43 107.49 141.72 107.01 142.8 106.99 143.34 
M 179.79 166.96 180.47 166.66 181.03 166.67 182.35 167.25 182.99 167.8 
M 156.32 158.43 155.53 158.4 152.71 157.74 150.48 156.82 148.82 155.7 147.28 154.97 146.28 154.82 
M 118.2 136.29 116.9 136.01 114.54 135 113.7 134.8 109.18 134.35 107.34 133.38 
M 168.41 131.06 167.32 130.22 166.93 130.13 166.61 130.25 
M 147.56 113.67 145.72 112.22 
M 148.83 121.28 146.99 121.59 
M 135.04 150.86 135.28 151.67 135.72 155.4 135.6 156.02 134.34 158.49 134.18 159.01 134.25 159.62 
M 167.38 108.07 167.46 107.28 168.28 105.9 168.49 105.12 
M 165.05 150.1 165.75 150.07 165.95 150.31 165.72 150.56 
M 152.06 140.62 153.84 139.95 155.27 139.9 156.77 139.64 
M 153.41 171.61 154.3 172.31 156.59 172.8 
M 169.57 160.74 168.3 161.21 166.5 162.95 165.76 163.41 
M 173.13 140.55 170.02 140.17 168.07 140.19 166.69 140.68 166.04 141.22 
M 141.12 149.73 140.63 151.74 140.36 154.77 139.25 156.75 
M 120.1 129.32 120.39 129.79 120.46 130.87 120.13 131.95 119.38 133.54 118.9 134.13 118.28 134.56 117.37 134.68 
M 168.05 136.05 166.3 137.28 165.28 138.49 165.1 139.98 165.26 140.68 165.64 141.28 
M 178.09 133.39 178.16 131.6 178.04 130.92 177.02 128.99 175.42 127.7 172.71 126.49 
M 160.17 132.35 159.35 134.55 158.75 135.5 158.89 136.32 
M 129.32 151.05 126.89 152.46 
M 122.59 153.33 121.9 154.31 121.05 156.31 120.14 157.67 119.37 158.49 
M 189.39 133.99 188.34 133.18 186.61 132.48 185.31 131.01 184.8 129.97 
M 145.61 165.29 146.66 161.76 147.01 159.76 147 159.05 146.11 156.64 
M 172.96 165.78 167.75 164.39 165.8 164.3 165.33 164.09 165.35 163.73 
M 136.06 151.07 136.14 151.82 135.96 153.77 136.08 155.21 135.94 155.91 134.33 159 134.36 159.64 
M 171.49 136.24 169.02 136.87 167.2 137.75 165.75 138.94 165.43 139.38 165.25 140.15 
M 175.5 174.42 174.5 173.98 173.26 172.13 172.56 171.58 170.85 171.16 168.54 170.92 
M 129.37 151.59 128.32 151.86 126.59 152.82 
M 122.04 162.27 122.28 161.72 123.63 161.49 126.03 160.48 
M 181.21 162 181.47 160.66 182.45 158.09 182.37 156.82 181.51 156.16 180.71 155.89 177.83 155.38 
M 127.77 152.09 126.66 152.62 126.23 153.01 125.33 154.46 125.28 154.79 125.7 155.09 
M 175.6 110.97 174.92 111.24 173.92 111.23 169.16 110.17 
M 110.6 163.15 109.92 168.03 109.81 170.44 109.97 172.81 110.47 175.12 111.28 177.35 112.36 179.47 113.72 181.43 115.35 183.2 117.18 184.83 121.09 187.9 125.18 190.68 127.34 191.82 129.62 192.73 139.21 195.63 146.56 197.26 149.02 197.96 156.13 200.55 160.9 202.09 177.87 206.84 185.23 208.55 175.39 206.38 160.74 202.67 155.9 201.24 148.75 198.84 146.34 198.23 141.38 197.36 134.03 195.47 129.15 194.11 126.72 193.21 124.4 192.06 120.09 189.3 116 186.25 114.02 184.59 112.19 182.69 110.62 180.55 109.35 178.22 108.37 175.75 107.75 173.15 107.49 170.5 107.54 167.87 108.11 162.77 
M 110.76 163.7 110.39 164.42 
M 107.53 168.53 105.79 170.04 103.34 171.34 100.7 172.09 97.96 172.28 95.3 171.92 88.01 169.7 85.62 169.17 78.15 168.28 70.72 166.7 65.82 165.88 58.33 165.48 53.36 165.69 50.91 166.05 46.08 167.29 43.79 168.21 41.64 169.44 39.69 170.97 37.93 172.73 36.35 174.66 34.98 176.75 32.73 181.24 31.14 186 30 190.9 31.08 185.99 32.55 181.16 34.69 176.59 36.02 174.43 37.58 172.42 39.33 170.58 41.3 168.95 43.49 167.61 45.84 166.6 50.74 165.2 53.25 164.77 58.33 164.42 65.94 164.63 70.99 165.34 78.38 166.7 85.93 167.41 88.46 167.9 95.68 169.9 98.01 170.16 100.3 169.94 102.48 169.26 104.45 168.14 106.13 166.61 107.47 164.77 107.99 163.68 
M 108.39 162.81 108.5 162.59 
M 111.04 163.72 110.03 171.12 109.97 172.8 
M 111.75 182.1 113.17 185.04 114.47 187.15 117.23 191.31 120.16 195.33 121.79 197.17 132.62 207.64 136.37 211.02 138.12 212.88 149.13 226.66 159.03 238.06 162.53 241.69 158.98 238.11 148.78 226.96 137.43 213.5 135.68 211.74 131.86 208.48 120.7 198.24 117.33 194.35 112.91 188.16 110.26 183.73 109.24 181.3 108.5 178.79 107.97 176.23 107.7 172.7 
M 110.58 157.54 111.2 158.48 
M 105.77 153.09 105.45 154.08 106.17 153.55 
M 101.64 148 100.78 148.8 100.15 150.38 101.06 149.22 102.19 148.73 
M 97.95 142.67 95.87 144.42 94.86 146.68 96.15 144.84 98.35 143.73 
M 110.31 157.69 111.56 157.95 
M 104.63 155.53 105.01 154.88 105.75 154.32 105.51 154.98 105.62 155.86 
M 98.86 153.75 99.53 152.03 100.77 150.86 100.03 152.13 99.97 154.1 
M 93.22 151.73 94.05 149.18 95.78 147.41 94.55 149.28 94.3 152.09 
M 98.37 157.38 103.07 160.14 106.33 161.78 109.68 163.16 113.11 164.29 116.64 165.2 123.86 166.65 
M 110.02 162.79 108.34 160.33 
M 103.15 160.18 104.48 158.76 
M 178.21 102.42 187.36 111.56 
M 183.61 101.1 190.57 108.07 
M 189.35 100.13 198.17 108.95 
M 195.34 99.41 201.44 105.5 
M 201.55 98.9 207.18 104.53 
M 207.8 98.43 215.3 105.94 
M 213.83 97.75 219.26 103.19 
M 219.85 97.06 226.84 104.05 
M 225.92 96.42 232.78 103.27 
M 232.13 95.91 237.97 101.75 
M 238.56 95.63 246.61 103.67 
M 245.12 95.47 252.71 103.06 
M 251.75 95.39 259.94 103.58 
M 258.48 95.4 265.35 102.28 
M 265.26 95.47 271.11 101.32 
M 271.99 95.49 281.35 104.85 
M 278.57 95.35 283.74 100.53 
M 285.29 95.36 292.32 102.39 
M 292.31 95.67 300.16 103.52 
M 299.51 96.15 305.84 102.48 
M 306.79 96.72 311.96 101.89 
M 314.14 97.35 320.95 104.16 
M 321.71 98.21 331.67 108.17 
M 329.59 99.37 338.83 108.61 
M 337.61 100.68 345.68 108.74 
M 345.55 101.9 352.42 108.78 
M 353.51 103.15 359.77 109.41 
M 361.97 104.89 370.15 113.07 
M 371.67 107.88 379.12 115.33 
M 265.63 118.75 266.07 119.09 266.24 119.91 265.96 120.39 265.52 120.06 265.36 119.23 265.63 118.75 
M 266.28 119.99 265.77 119.77 265.4 119.02 265.54 118.48 266.05 118.7 266.42 119.45 266.28 119.99 
M 251.58 114.75 252.07 115.02 252.36 115.8 252.16 116.32 251.68 116.06 251.39 115.27 251.58 114.75 
M 251.32 115.86 251.69 115.45 252.52 115.34 252.99 115.64 252.62 116.06 251.79 116.17 251.32 115.86 
M 258.44 116.02 258.55 116.56 258.13 117.29 257.61 117.48 257.5 116.93 257.92 116.2 258.44 116.02 
M 258.66 116.82 258.12 116.93 257.39 116.52 257.2 116 257.74 115.88 258.47 116.29 258.66 116.82 
M 248.9 128.85 248.86 128.3 249.37 127.63 249.91 127.52 249.95 128.07 249.44 128.74 248.9 128.85 
M 249.13 128.76 249.2 128.21 249.84 127.66 250.39 127.66 250.31 128.21 249.68 128.76 249.13 128.76 
M 267.38 126.87 267.78 126.47 268.61 126.41 269.06 126.75 268.67 127.14 267.83 127.2 267.38 126.87 
M 268.85 126.69 268.36 126.95 267.54 126.77 267.21 126.32 267.7 126.06 268.52 126.24 268.85 126.69 
M 249.31 120.43 249.8 120.7 250.09 121.48 249.89 122 249.41 121.73 249.12 120.95 249.31 120.43 
M 249.19 120.72 249.66 121.02 249.9 121.83 249.68 122.33 249.21 122.03 248.96 121.23 249.19 120.72 
M 243.86 125.63 244.14 125.15 244.93 124.88 245.45 125.09 245.17 125.57 244.37 125.84 243.86 125.63 
M 244.23 125.84 244.45 125.33 245.21 124.97 245.74 125.11 245.52 125.62 244.77 125.99 244.23 125.84 
M 260.26 109.09 259.71 109.07 259.09 108.5 259.03 107.95 259.59 107.97 260.2 108.54 260.26 109.09 
M 260.12 108.09 259.84 108.57 259.05 108.85 258.53 108.64 258.81 108.16 259.6 107.88 260.12 108.09 
M 252.56 108.96 252.34 108.45 252.6 107.65 253.07 107.36 253.29 107.87 253.04 108.67 252.56 108.96 
M 252.27 108.49 252.64 108.07 253.47 107.96 253.93 108.27 253.57 108.68 252.73 108.79 252.27 108.49 
M 266.29 113.49 265.88 113.11 265.8 112.27 266.12 111.82 266.52 112.2 266.6 113.03 266.29 113.49 
M 265.59 112.84 266.04 112.53 266.88 112.61 267.26 113.02 266.8 113.34 265.97 113.25 265.59 112.84 
M 247.5 111.38 247.39 110.83 247.81 110.1 248.33 109.92 248.44 110.46 248.02 111.19 247.5 111.38 
M 247.28 110.59 247.82 110.47 248.56 110.87 248.75 111.4 248.2 111.51 247.47 111.11 247.28 110.59 
M 242.96 117.46 242.41 117.37 241.88 116.72 241.89 116.16 242.44 116.26 242.97 116.91 242.96 117.46 
M 242.91 116.39 242.62 116.87 241.82 117.13 241.31 116.91 241.6 116.44 242.4 116.18 242.91 116.39 
M 235.59 132.6 235.08 132.19 234.98 131.64 235.53 131.62 236.19 132.15 236.27 132.58 
M 236.26 132.03 235.78 132.31 234.95 132.15 234.61 131.71 235.09 131.44 235.91 131.6 236.26 132.03 
M 256.07 103.93 256.22 103.39 256.92 102.93 257.47 103 257.32 103.54 256.62 104 256.07 103.93 
M 257.37 103.68 256.82 103.66 256.2 103.09 256.14 102.54 256.69 102.56 257.31 103.13 257.37 103.68 
M 243.63 105.85 243.24 106.25 242.41 106.32 241.96 106 242.34 105.6 243.18 105.53 243.63 105.85 
M 242.6 105.31 242.92 105.77 242.84 106.6 242.43 106.98 242.11 106.53 242.2 105.69 242.6 105.31 
M 247.09 101.12 246.66 101.46 245.82 101.42 245.42 101.03 245.86 100.69 246.69 100.74 247.09 101.12 
M 246.89 101.14 246.35 101.26 245.61 100.85 245.42 100.33 245.96 100.22 246.7 100.62 246.89 101.14 
M 276.23 122.45 275.68 122.44 275.05 121.88 274.97 121.33 275.53 121.34 276.16 121.9 276.23 122.45 
M 275.49 121.26 275.75 121.75 275.56 122.57 275.11 122.89 274.85 122.4 275.04 121.58 275.49 121.26 
M 269.89 145.21 269.86 144.65 270.37 143.99 270.91 143.88 270.95 144.43 270.43 145.1 269.89 145.21 
M 269.81 144.31 270.36 144.34 270.96 144.94 271 145.49 270.44 145.45 269.85 144.86 269.81 144.31 
M 276.44 137.97 276.67 138.32 276.58 138.87 276.05 138.71 275.65 138.07 
M 275.97 138.77 275.94 138.22 276.11 138.01 
M 277.03 137.9 276.52 138.67 275.97 138.77 
M 266.58 99.41 266.92 99.85 266.87 100.69 266.49 101.09 266.15 100.65 266.19 99.81 266.58 99.41 
M 265.96 99.98 266.51 100.05 267.06 100.68 267.07 101.23 266.52 101.16 265.96 100.53 265.96 99.98 
M 268.67 105.55 268.29 105.95 267.46 106.03 267 105.71 267.39 105.31 268.22 105.22 268.67 105.55 
M 267.26 105.35 267.81 105.43 268.37 106.06 268.37 106.61 267.82 106.54 267.27 105.91 267.26 105.35 
M 218.67 133 218.6 133.08 
M 217.21 133.13 217.36 132.92 218.18 132.73 218.67 133 
M 217.2 133.13 216.86 132.66 217.36 132.41 218.17 132.63 218.48 133.09 
M 238.03 111.43 237.88 110.89 238.24 110.13 238.75 109.91 238.9 110.44 238.54 111.2 238.03 111.43 
M 239.01 110.82 238.46 110.86 237.79 110.35 237.68 109.81 238.23 109.77 238.9 110.28 239.01 110.82 
M 228.73 112.76 228.82 112.22 229.47 111.68 230.03 111.7 229.93 112.24 229.29 112.78 228.73 112.76 
M 228.76 112.06 229.32 112.04 229.97 112.56 230.07 113.11 229.52 113.13 228.86 112.61 228.76 112.06 
M 235.91 103.75 236.3 103.36 237.14 103.3 237.58 103.64 237.19 104.03 236.35 104.08 235.91 103.75 
M 236.99 103.11 236.94 103.66 236.34 104.24 235.78 104.27 235.83 103.72 236.44 103.13 236.99 103.11 
M 233.43 115.21 233.85 114.85 234.69 114.86 235.11 115.22 234.69 115.58 233.85 115.57 233.43 115.21 
M 234.13 115.84 234.08 115.29 234.57 114.6 235.11 114.48 235.16 115.03 234.67 115.71 234.13 115.84 
M 229.75 104.7 230.06 104.24 230.87 104.01 231.37 104.25 231.06 104.71 230.26 104.94 229.75 104.7 
M 229.97 104.25 230.52 104.28 231.12 104.86 231.17 105.41 230.62 105.38 230.02 104.8 229.97 104.25 
M 257.06 97.71 257.59 97.85 258.08 98.53 258.02 99.08 257.49 98.95 257 98.27 257.06 97.71 
M 257.84 98.96 257.44 98.58 257.37 97.74 257.7 97.29 258.09 97.68 258.17 98.51 257.84 98.96 
M 286.21 138.15 286.62 138.52 286.71 139.36 286.39 139.81 285.98 139.44 285.89 138.6 286.21 138.15 
M 286.62 139.53 286.21 139.16 286.11 138.33 286.42 137.87 286.83 138.24 286.93 139.07 286.62 139.53 
M 239.07 120.5 239.2 121.04 238.81 121.79 238.3 122 238.17 121.46 238.55 120.71 239.07 120.5 
M 238.53 121.87 238.49 121.32 238.99 120.64 239.53 120.52 239.57 121.08 239.08 121.75 238.53 121.87 
M 258.09 151.03 257.56 151.21 256.78 150.9 256.67 150.67 
M 257.22 150.29 257.83 150.54 258.09 151.03 
M 257.83 150.35 257.49 150.79 256.67 150.96 256.46 150.84 
M 257.48 150.15 257.83 150.35 
M 224.82 167.42 224.3 167.23 224.17 167 
M 224.77 166.59 224.93 166.88 224.82 167.42 
M 224.86 167.15 224.36 166.86 
M 224.99 166.48 224.86 167.15 
M 276.03 115.58 275.5 115.44 275.03 114.74 275.09 114.19 275.63 114.33 276.1 115.03 276.03 115.58 
M 276.17 114.68 275.72 115.01 274.88 114.94 274.5 114.54 274.95 114.21 275.78 114.29 276.17 114.68 
M 233.45 163.03 234.16 163.15 234.51 163.59 234.03 163.87 233.21 163.72 232.87 163.31 
M 233.78 162.92 233.86 163.35 233.45 164.08 232.93 164.27 232.82 163.72 233.14 163.15 
M 227.28 118.53 226.92 118.1 226.95 117.26 227.32 116.85 227.67 117.28 227.65 118.12 227.28 118.53 
M 226.84 117.24 227.34 117.49 227.66 118.26 227.49 118.79 226.99 118.55 226.67 117.77 226.84 117.24 
M 293.59 135.48 293.57 136.03 292.99 136.64 292.43 136.69 292.46 136.14 293.04 135.53 293.59 135.48 
M 293.22 135.48 293.21 136.03 292.65 136.66 292.1 136.73 292.11 136.18 292.67 135.55 293.22 135.48 
M 291.3 142.86 291.65 143.29 291.63 144.13 291.25 144.54 290.9 144.11 290.93 143.27 291.3 142.86 
M 291.38 143.07 291.46 143.62 291 144.33 290.47 144.48 290.39 143.93 290.85 143.23 291.38 143.07 
M 286.43 148.36 286.4 148.91 285.81 149.51 285.25 149.55 285.29 149 285.88 148.4 286.43 148.36 
M 285.69 148.33 285.98 148.81 285.84 149.63 285.42 149.99 285.13 149.52 285.26 148.69 285.69 148.33 
M 290.67 130.63 290.43 130.13 290.67 129.32 291.13 129.02 291.37 129.52 291.13 130.33 290.67 130.63 
M 290.29 130 290.75 129.7 291.58 129.8 291.95 130.21 291.49 130.52 290.66 130.42 290.29 130 
M 233.78 171.25 233.25 171.1 232.79 170.39 232.87 169.84 233.4 170 233.86 170.7 233.78 171.25 
M 232.78 170.22 233.32 170.35 233.81 171.03 233.76 171.58 233.22 171.45 232.73 170.77 232.78 170.22 
M 220.83 106.3 220.28 106.28 219.66 105.71 219.6 105.16 220.15 105.17 220.77 105.74 220.83 106.3 
M 220.8 105.98 220.25 105.92 219.67 105.32 219.65 104.76 220.2 104.82 220.78 105.42 220.8 105.98 
M 221.61 97.64 222.15 97.51 222.89 97.89 223.1 98.41 222.56 98.54 221.81 98.15 221.61 97.64 
M 222.1 97.44 222.46 97.85 222.47 98.69 222.11 99.11 221.74 98.7 221.74 97.86 222.1 97.44 
M 228.82 96.17 229.15 96.34 229.36 96.86 228.82 96.99 228.07 96.61 227.93 96.25 
M 228.84 96.17 228.81 96.44 228.19 97.01 227.64 97.02 227.7 96.47 227.95 96.24 
M 224.52 108.05 225.02 107.82 225.83 108.06 226.13 108.53 225.62 108.76 224.82 108.52 224.52 108.05 
M 225.2 108.92 225.14 108.37 225.61 107.67 226.14 107.53 226.21 108.08 225.74 108.78 225.2 108.92 
M 208.66 173.13 209.22 173.19 209.79 173.8 209.81 174.36 209.26 174.3 208.69 173.69 208.66 173.13 
M 208.66 173.47 209.21 173.54 209.77 174.17 209.77 174.73 209.22 174.65 208.67 174.02 208.66 173.47 
M 281.05 128.33 281.29 128.83 281.08 129.64 280.62 129.95 280.38 129.45 280.59 128.64 281.05 128.33 
M 280.39 129.6 280.64 129.1 281.41 128.78 281.94 128.95 281.69 129.45 280.92 129.77 280.39 129.6 
M 239.88 96.29 239.37 96.5 238.58 96.24 238.29 95.76 238.62 95.62 
M 238.98 95.61 239.6 95.81 239.88 96.29 
M 239.07 95.6 239.23 95.88 239.06 96.7 238.62 97.04 238.35 96.56 238.52 95.74 238.67 95.62 
M 251.45 97.16 251.01 97.48 250.17 97.41 249.78 97.01 250.23 96.69 251.07 96.76 251.45 97.16 
M 251.05 97.56 250.57 97.28 250.29 96.49 250.49 95.97 250.97 96.25 251.25 97.04 251.05 97.56 
M 282.55 113.19 282.03 113.38 281.25 113.08 280.99 112.59 281.51 112.4 282.29 112.7 282.55 113.19 
M 282.37 112.67 281.93 113.01 281.09 112.97 280.69 112.58 281.13 112.24 281.97 112.28 282.37 112.67 
M 289.94 122.98 289.78 123.51 289.07 123.96 288.52 123.88 288.68 123.35 289.39 122.89 289.94 122.98 
M 288.71 123.05 289.24 123.23 289.67 123.95 289.56 124.49 289.04 124.32 288.61 123.59 288.71 123.05 
M 222.12 112.68 221.59 112.84 220.83 112.49 220.6 111.98 221.13 111.83 221.89 112.18 222.12 112.68 
M 221.49 112.96 221.22 112.48 221.38 111.65 221.82 111.31 222.09 111.8 221.93 112.62 221.49 112.96 
M 209.27 109.06 209.82 108.97 210.54 109.41 210.7 109.94 210.15 110.03 209.44 109.59 209.27 109.06 
M 209.45 109.16 209.99 109.3 210.46 109.99 210.4 110.54 209.86 110.4 209.39 109.71 209.45 109.16 
M 216.73 99.64 217.05 100.1 216.95 100.93 216.55 101.31 216.23 100.85 216.33 100.01 216.73 99.64 
M 216.07 100.19 216.61 100.27 217.16 100.91 217.16 101.46 216.61 101.38 216.07 100.75 216.07 100.19 
M 210.88 104.57 211.15 104.08 211.93 103.79 212.46 103.98 212.19 104.47 211.4 104.76 210.88 104.57 
M 212.09 104.75 211.62 104.47 211.35 103.67 211.56 103.16 212.04 103.44 212.31 104.24 212.09 104.75 
M 203.09 131.42 202.63 131.1 202.42 130.29 202.66 129.79 203.12 130.11 203.33 130.92 203.09 131.42 
M 202.88 131.25 202.71 130.72 203.03 129.94 203.53 129.7 203.7 130.22 203.38 131 202.88 131.25 
M 242.8 176.82 242.35 176.49 242.16 175.67 242.42 175.18 242.87 175.51 243.06 176.32 242.8 176.82 
M 242.49 176.63 242.42 176.08 242.89 175.38 243.43 175.23 243.49 175.79 243.02 176.48 242.49 176.63 
M 237.39 176.91 237.18 176.4 237.46 175.6 237.94 175.33 238.15 175.84 237.87 176.64 237.39 176.91 
M 237.66 176.76 237.5 176.23 237.83 175.46 238.33 175.22 238.5 175.75 238.16 176.52 237.66 176.76 
M 230.35 182.29 229.88 182 229.62 181.2 229.84 180.69 230.31 180.98 230.57 181.78 230.35 182.29 
M 230.51 181 230.29 181.51 229.54 181.88 229 181.75 229.22 181.23 229.97 180.86 230.51 181 
M 260.56 92.78 260.56 93.69 260.17 94.09 259.86 93.67 
M 260.39 92.99 259.96 93.87 259.62 93.98 
M 215.59 113.69 215.15 113.35 214.98 112.53 215.24 112.05 215.69 112.38 215.86 113.2 215.59 113.69 
M 215.84 113.34 215.37 113.06 215.1 112.26 215.31 111.75 215.79 112.03 216.06 112.83 215.84 113.34 
M 205.86 112.39 205.54 112.85 204.73 113.05 204.23 112.8 204.55 112.35 205.36 112.14 205.86 112.39 
M 204.95 111.96 205.2 112.46 204.98 113.27 204.52 113.59 204.28 113.09 204.49 112.28 204.95 111.96 
M 205.03 106.48 204.48 106.44 203.89 105.84 203.85 105.29 204.41 105.33 205 105.93 205.03 106.48 
M 204.03 105.4 204.5 105.69 204.75 106.49 204.54 107 204.06 106.71 203.81 105.91 204.03 105.4 
M 209.83 117.38 209.95 117.92 209.55 118.66 209.03 118.85 208.91 118.31 209.31 117.57 209.83 117.38 
M 210.05 118.27 209.49 118.31 208.83 117.79 208.72 117.25 209.27 117.22 209.94 117.73 210.05 118.27 
M 200.29 107.87 199.91 108.28 199.07 108.37 198.62 108.05 199 107.65 199.83 107.56 200.29 107.87 
M 199.23 107.36 199.57 107.8 199.53 108.64 199.14 109.04 198.8 108.6 198.85 107.76 199.23 107.36 
M 215.48 128.63 215.08 128.25 214.99 127.41 215.31 126.96 215.71 127.34 215.8 128.17 215.48 128.63 
M 216 127.59 215.55 127.92 214.72 127.85 214.33 127.45 214.77 127.13 215.61 127.19 216 127.59 
M 220.6 126.4 221.15 126.47 221.71 127.11 221.71 127.66 221.16 127.58 220.61 126.95 220.6 126.4 
M 220.53 127.17 221.01 126.89 221.84 127.04 222.18 127.48 221.7 127.76 220.88 127.6 220.53 127.17 
M 287.23 115.58 287.78 115.6 288.39 116.18 288.45 116.73 287.89 116.71 287.28 116.13 287.23 115.58 
M 287.24 115.92 287.8 115.96 288.39 116.55 288.43 117.1 287.88 117.06 287.29 116.47 287.24 115.92 
M 274.1 99.05 274.24 98.51 274.94 98.04 275.49 98.1 275.35 98.64 274.65 99.11 274.1 99.05 
M 274.48 99.13 274.59 98.59 275.26 98.08 275.81 98.11 275.7 98.65 275.04 99.16 274.48 99.13 
M 273.72 103.27 274.25 103.11 275.01 103.46 275.25 103.97 274.71 104.12 273.95 103.77 273.72 103.27 
M 274.92 104.09 274.43 103.81 274.15 103.02 274.35 102.51 274.84 102.78 275.12 103.57 274.92 104.09 
M 268.63 95.32 268.83 94.8 269.57 94.41 270.11 94.53 269.91 95.05 269.17 95.44 268.63 95.32 
M 269.58 95.53 269.25 95.08 269.31 94.25 269.7 93.85 270.03 94.3 269.97 95.14 269.58 95.53 
M 206.49 99.94 206.87 99.54 207.71 99.46 208.16 99.78 207.78 100.18 206.94 100.26 206.49 99.94 
M 207.73 100.35 207.27 100.05 207.03 99.25 207.26 98.74 207.73 99.04 207.96 99.85 207.73 100.35 
M 197.59 133.69 197.79 133.2 198.29 132.94 198.47 133.47 198.39 133.67 
M 197.75 133.68 198.62 133.5 198.87 133.65 
M 295.8 111.43 296.15 111.87 296.11 112.71 295.72 113.11 295.38 112.67 295.42 111.83 295.8 111.43 
M 295.83 111.64 295.94 112.18 295.53 112.91 295.01 113.1 294.9 112.55 295.31 111.82 295.83 111.64 
M 296.14 124.71 296.3 124.18 297.01 123.72 297.55 123.8 297.4 124.33 296.69 124.79 296.14 124.71 
M 297.4 124.57 296.86 124.46 296.36 123.79 296.39 123.23 296.94 123.35 297.44 124.02 297.4 124.57 
M 277.13 107.8 277.67 107.94 278.15 108.63 278.09 109.18 277.55 109.04 277.07 108.35 277.13 107.8 
M 277 108.67 277.46 108.36 278.29 108.46 278.67 108.86 278.21 109.18 277.37 109.08 277 108.67 
M 273.32 108.65 273.07 109.15 272.3 109.48 271.77 109.3 272.02 108.81 272.79 108.48 273.32 108.65 
M 272.06 109.39 272.35 108.92 273.16 108.68 273.66 108.91 273.37 109.37 272.56 109.61 272.06 109.39 
M 221.21 119.05 220.67 118.92 220.19 118.23 220.24 117.68 220.78 117.81 221.26 118.5 221.21 119.05 
M 221.22 118.77 220.71 118.57 220.31 117.83 220.43 117.28 220.95 117.48 221.35 118.22 221.22 118.77 
M 202.77 126.62 202.48 126.15 202.6 125.32 203.02 124.96 203.32 125.43 203.19 126.26 202.77 126.62 
M 202.26 125.77 202.79 125.62 203.55 125.96 203.79 126.47 203.25 126.62 202.49 126.28 202.26 125.77 
M 307.49 112.01 307.26 111.51 307.49 110.7 307.95 110.4 308.19 110.9 307.95 111.71 307.49 112.01 
M 308.35 111.3 307.8 111.39 307.09 110.95 306.93 110.42 307.47 110.33 308.19 110.77 308.35 111.3 
M 306.19 123.85 306.26 123.3 306.88 122.74 307.44 122.72 307.37 123.28 306.75 123.84 306.19 123.85 
M 307.12 123.85 306.72 123.46 306.65 122.63 306.97 122.18 307.37 122.57 307.44 123.4 307.12 123.85 
M 313.34 121.14 313.06 121.62 312.27 121.89 311.76 121.69 312.03 121.21 312.83 120.93 313.34 121.14 
M 312.29 122 312.35 121.45 312.96 120.87 313.52 120.85 313.46 121.4 312.85 121.98 312.29 122 
M 259.42 155.91 259.96 155.76 260.71 156.13 260.93 156.64 260.4 156.78 259.64 156.42 259.42 155.91 
M 259.75 156.75 259.98 156.24 260.74 155.9 261.28 156.05 261.04 156.56 260.28 156.9 259.75 156.75 
M 227.29 122.32 227.83 122.45 228.31 123.14 228.25 123.7 227.71 123.56 227.23 122.87 227.29 122.32 
M 228.35 123.27 227.8 123.21 227.23 122.59 227.22 122.03 227.77 122.1 228.34 122.71 228.35 123.27 
M 297.81 103.92 298.17 104.34 298.16 105.18 297.79 105.59 297.43 105.17 297.44 104.33 297.81 103.92 
M 297.97 104.14 297.99 104.69 297.47 105.35 296.92 105.45 296.9 104.89 297.43 104.24 297.97 104.14 
M 291.17 107.04 291.3 107.58 290.92 108.33 290.4 108.53 290.27 108 290.66 107.25 291.17 107.04 
M 290.16 107.92 290.65 107.64 291.47 107.82 291.8 108.26 291.32 108.53 290.5 108.36 290.16 107.92 
M 293.62 101.56 293.29 101.11 293.37 100.27 293.78 99.89 294.1 100.34 294.02 101.18 293.62 101.56 
M 294.31 100.9 293.76 100.92 293.1 100.39 293.01 99.84 293.56 99.82 294.21 100.35 294.31 100.9 
M 300.01 110.46 300.52 110.24 301.32 110.49 301.61 110.96 301.1 111.18 300.3 110.93 300.01 110.46 
M 301.29 111.12 300.78 110.91 300.41 110.16 300.54 109.62 301.06 109.83 301.43 110.59 301.29 111.12 
M 287.31 101.48 287.33 100.92 287.91 100.31 288.46 100.25 288.44 100.81 287.86 101.42 287.31 101.48 
M 287.88 101.5 287.71 100.97 288.05 100.2 288.55 99.96 288.71 100.49 288.38 101.26 287.88 101.5 
M 283.97 105.99 284.47 105.74 285.28 105.95 285.6 106.41 285.1 106.66 284.29 106.45 283.97 105.99 
M 285.29 106.59 284.77 106.4 284.35 105.67 284.46 105.13 284.99 105.31 285.4 106.04 285.29 106.59 
M 200.02 99.97 199.9 100.51 199.23 101.02 198.68 100.99 198.79 100.44 199.46 99.94 200.02 99.97 
M 199.97 100.33 199.49 100.62 198.67 100.47 198.32 100.04 198.79 99.76 199.62 99.9 199.97 100.33 
M 200.5 114.93 200.18 115.38 199.37 115.58 198.87 115.33 199.19 114.88 200.01 114.68 200.5 114.93 
M 200.33 115.15 199.79 115.3 199.03 114.95 198.81 114.44 199.34 114.29 200.1 114.64 200.33 115.15 
M 272.94 159.03 272.39 158.96 271.83 158.34 271.81 157.79 272.36 157.85 272.93 158.48 272.94 159.03 
M 273 158.54 272.45 158.6 271.76 158.12 271.62 157.58 272.17 157.52 272.86 158 273 158.54 
M 308.74 116.6 308.55 117.12 307.81 117.52 307.27 117.4 307.46 116.88 308.2 116.48 308.74 116.6 
M 307.74 117.58 307.81 117.03 308.43 116.47 308.98 116.46 308.92 117.01 308.29 117.57 307.74 117.58 
M 300.43 100.78 300.5 100.23 301.13 99.67 301.69 99.67 301.61 100.22 300.99 100.77 300.43 100.78 
M 300.83 99.62 301.18 100.06 301.14 100.9 300.76 101.3 300.42 100.87 300.45 100.03 300.83 99.62 
M 303.37 105.14 303.61 104.64 304.38 104.31 304.91 104.47 304.67 104.97 303.9 105.31 303.37 105.14 
M 303.56 105.07 303.97 104.7 304.81 104.68 305.23 105.03 304.82 105.4 303.99 105.43 303.56 105.07 
M 310.43 101.83 310.68 102.33 310.47 103.14 310.01 103.46 309.76 102.96 309.97 102.15 310.43 101.83 
M 310.82 102.86 310.27 102.84 309.65 102.27 309.6 101.71 310.15 101.74 310.76 102.31 310.82 102.86 
M 304.05 96.58 304.09 96.5 
M 304.97 96.57 304.58 96.74 304.05 96.58 
M 304.67 96.55 304.43 96.79 303.87 96.83 303.9 96.48 
M 194.82 124.68 194.54 125.16 193.75 125.44 193.23 125.23 193.51 124.75 194.31 124.48 194.82 124.68 
M 194.33 125.52 193.93 125.13 193.86 124.3 194.19 123.85 194.58 124.23 194.65 125.07 194.33 125.52 
M 203.86 121.03 203.91 120.47 204.53 119.9 205.08 119.88 205.02 120.43 204.41 121 203.86 121.03 
M 205.1 120.38 204.6 120.61 203.79 120.36 203.5 119.9 204 119.67 204.81 119.91 205.1 120.38 
M 190.15 111.97 190.69 112.1 191.18 112.78 191.13 113.33 190.59 113.2 190.1 112.52 190.15 111.97 
M 190.08 112.33 190.63 112.45 191.13 113.12 191.1 113.67 190.55 113.56 190.05 112.89 190.08 112.33 
M 193.15 116.91 193.63 116.61 194.45 116.74 194.81 117.17 194.34 117.46 193.51 117.33 193.15 116.91 
M 193.54 116.58 194.03 116.84 194.33 117.62 194.14 118.14 193.65 117.88 193.35 117.1 193.54 116.58 
M 202.21 172.81 202.24 173.05 201.79 173.75 201.25 173.9 201.18 173.35 201.31 173.14 
M 201.64 173.83 201.53 173.29 201.71 172.97 
M 202.55 172.76 202.16 173.65 201.64 173.83 
M 285.2 95.5 285.18 96.06 284.61 96.67 284.06 96.73 284.08 96.18 284.65 95.56 285.2 95.5 
M 284.09 95.77 284.63 95.91 285.1 96.61 285.04 97.16 284.5 97.02 284.03 96.32 284.09 95.77 
M 290.1 154.52 290.36 155.01 290.17 155.82 289.72 156.15 289.46 155.66 289.65 154.84 290.1 154.52 
M 290.54 155.4 290 155.51 289.27 155.1 289.08 154.58 289.63 154.47 290.36 154.88 290.54 155.4 
M 275.66 92.59 276.21 92.52 276.9 93 277.04 93.53 276.49 93.6 275.8 93.13 275.66 92.59 
M 276.31 93.7 276.17 93.16 276.55 92.41 277.06 92.19 277.2 92.73 276.83 93.48 276.31 93.7 
M 268.25 88.05 268.8 88.13 269.36 88.75 269.37 89.31 268.82 89.24 268.26 88.61 268.25 88.05 
M 268.17 88.71 268.69 88.52 269.48 88.81 269.74 89.3 269.22 89.49 268.43 89.2 268.17 88.71 
M 315.36 97.46 314.95 97.54 314.72 97.41 
M 316.19 97.54 315.96 97.73 315.12 97.72 314.78 97.41 
M 294.99 149.39 295.29 148.92 296.1 148.7 296.6 148.94 296.3 149.4 295.49 149.62 294.99 149.39 
M 295.76 149.8 295.62 149.26 295.99 148.51 296.5 148.29 296.64 148.83 296.27 149.58 295.76 149.8 
M 284.35 158.41 284.89 158.3 285.63 158.7 285.83 159.22 285.29 159.33 284.55 158.93 284.35 158.41 
M 284.53 158.5 285.08 158.61 285.59 159.28 285.56 159.83 285.01 159.72 284.5 159.06 284.53 158.5 
M 199.01 121.89 199.04 121.34 199.63 120.74 200.18 120.7 200.15 121.25 199.56 121.85 199.01 121.89 
M 199.98 121.8 199.53 121.48 199.33 120.67 199.58 120.17 200.03 120.5 200.23 121.31 199.98 121.8 
M 283.81 90.59 284.32 90.37 285.12 90.63 285.41 91.1 284.9 91.32 284.1 91.06 283.81 90.59 
M 284.34 90.26 284.72 90.67 284.74 91.51 284.39 91.94 284.01 91.53 283.99 90.69 284.34 90.26 
M 186.63 101.94 187.17 102.09 187.63 102.8 187.56 103.35 187.02 103.19 186.56 102.49 186.63 101.94 
M 187.67 102.37 187.27 102.75 186.43 102.78 185.99 102.44 186.4 102.06 187.24 102.02 187.67 102.37 
M 185.01 107.98 185.12 108.52 184.71 109.26 184.19 109.44 184.08 108.9 184.49 108.17 185.01 107.98 
M 184.85 109.3 184.49 108.88 184.49 108.04 184.85 107.62 185.22 108.04 185.22 108.88 184.85 109.3 
M 279.62 102.35 280.08 102.04 280.92 102.14 281.29 102.55 280.83 102.86 280 102.76 279.62 102.35 
M 281.04 102.71 280.49 102.65 279.92 102.03 279.9 101.47 280.46 101.54 281.02 102.15 281.04 102.71 
M 193.12 131.55 192.71 131.92 191.87 131.94 191.45 131.58 191.86 131.21 192.7 131.2 193.12 131.55 
M 191.66 131.72 192.14 131.43 192.96 131.56 193.32 131.99 192.85 132.28 192.02 132.15 191.66 131.72 
M 178.68 103.15 178.45 103.65 177.9 103.9 
M 177.4 103.33 178.15 102.99 178.68 103.15 
M 178.39 103.06 178.11 103.54 177.71 103.68 
M 177.2 103.09 177.87 102.86 178.39 103.06 
M 194.06 107.49 193.51 107.46 192.9 106.88 192.85 106.32 193.41 106.35 194.01 106.94 194.06 107.49 
M 193.48 107.54 193.29 107.02 193.59 106.24 194.08 105.98 194.27 106.5 193.97 107.28 193.48 107.54 
M 263.78 88.93 263.65 88.87 
M 263.87 88.59 263.78 88.93 
M 279.75 85.96 279.72 86.52 279.13 87.12 278.58 87.17 278.61 86.61 279.2 86.01 279.75 85.96 
M 279.42 85.98 279.36 86.53 278.75 87.1 278.19 87.13 278.25 86.57 278.87 86 279.42 85.98 
M 319.2 118.62 319.11 119.17 318.47 119.71 317.91 119.7 318 119.15 318.65 118.61 319.2 118.62 
M 318.12 119.63 318.36 119.13 319.13 118.79 319.66 118.95 319.42 119.45 318.65 119.79 318.12 119.63 
M 312.66 111.78 312.85 111.25 313.59 110.85 314.13 110.97 313.94 111.49 313.2 111.89 312.66 111.78 
M 313.21 110.76 313.53 111.22 313.43 112.05 313.03 112.43 312.71 111.97 312.8 111.14 313.21 110.76 
M 281.47 80.87 281.69 80.36 282.44 79.99 282.61 80.03 
M 282.63 80.7 282.01 81.01 281.47 80.87 
M 282.65 80.9 282.19 80.7 281.84 79.94 281.99 79.4 282.5 79.63 282.62 79.9 
M 272.93 83.13 272.5 83.48 271.66 83.45 271.25 83.07 271.69 82.72 272.53 82.76 272.93 83.13 
M 271.52 82.83 272.07 82.9 272.62 83.53 272.63 84.09 272.08 84.01 271.52 83.39 271.52 82.83 
M 256.26 175.82 255.78 175.54 255.51 174.75 255.72 174.23 256.2 174.51 256.47 175.31 256.26 175.82 
M 256.39 174.53 256.19 175.05 255.45 175.44 254.91 175.32 255.1 174.8 255.84 174.41 256.39 174.53 
M 309.92 128.64 310.13 128.13 310.89 127.76 311.42 127.9 311.21 128.41 310.45 128.78 309.92 128.64 
M 310.03 128.29 310.56 128.1 311.34 128.41 311.59 128.91 311.07 129.09 310.29 128.78 310.03 128.29 
M 318.63 107.49 318.08 107.51 317.43 106.97 317.33 106.43 317.89 106.41 318.54 106.94 318.63 107.49 
M 318.28 106.39 318.18 106.94 317.53 107.47 316.98 107.45 317.07 106.9 317.73 106.38 318.28 106.39 
M 209.82 121.9 210.35 122.07 210.79 122.79 210.69 123.34 210.16 123.17 209.73 122.45 209.82 121.9 
M 210.72 123.06 210.22 122.82 209.89 122.05 210.06 121.52 210.56 121.76 210.89 122.53 210.72 123.06 
M 281.23 166.24 281.58 166.68 281.54 167.52 281.15 167.92 280.81 167.48 280.85 166.64 281.23 166.24 
M 280.56 166.97 281.12 166.89 281.82 167.36 281.97 167.89 281.41 167.96 280.71 167.5 280.56 166.97 
M 298.52 165.98 298.1 165.61 297.98 164.78 298.28 164.31 298.7 164.68 298.82 165.51 298.52 165.98 
M 298.36 164.51 298.56 165.03 298.27 165.81 297.79 166.08 297.59 165.57 297.88 164.78 298.36 164.51 
M 295.11 170.36 295.66 170.4 296.25 171 296.29 171.55 295.73 171.51 295.14 170.91 295.11 170.36 
M 296.25 170.63 295.88 171.04 295.05 171.15 294.58 170.84 294.95 170.43 295.78 170.32 296.25 170.63 
M 312.62 150.98 312.5 150.44 312.91 149.7 313.43 149.51 313.55 150.05 313.14 150.79 312.62 150.98 
M 312.49 150.59 312.84 150.16 313.67 150.02 314.14 150.3 313.79 150.73 312.97 150.88 312.49 150.59 
M 322.18 126.96 322.15 127.51 321.56 128.11 321.01 128.16 321.04 127.61 321.62 127 322.18 126.96 
M 321.18 127.07 321.65 127.37 321.89 128.17 321.67 128.68 321.2 128.38 320.95 127.58 321.18 127.07 
M 316.38 128.68 316.61 129.19 316.37 129.99 315.9 130.29 315.67 129.78 315.91 128.98 316.38 128.68 
M 315.67 129.06 316.17 129.28 316.53 130.05 316.37 130.58 315.87 130.35 315.51 129.59 315.67 129.06 
M 275.98 74.64 275.75 74.14 275.98 73.33 276.45 73.03 276.68 73.53 276.45 74.34 275.98 74.64 
M 276.49 73.26 276.41 73.81 275.78 74.36 275.23 74.36 275.25 74.19 
M 275.99 73.26 276.49 73.26 
M 282.5 74.11 282.15 73.68 282.17 72.84 282.54 72.43 282.82 72.77 
M 282.88 73.31 282.87 73.7 282.5 74.11 
M 282.19 73.82 282.32 73.28 282.81 72.93 
M 283.23 73.52 282.74 73.87 282.19 73.82 
M 319.99 149.76 320.37 150.17 320.39 151.01 320.04 151.44 319.67 151.03 319.64 150.19 319.99 149.76 
M 320.54 150.97 320.01 150.8 319.57 150.08 319.66 149.54 320.19 149.71 320.63 150.42 320.54 150.97 
M 277.37 79.7 277.08 80.17 276.27 80.42 275.77 80.19 276.06 79.72 276.87 79.48 277.37 79.7 
M 276.71 79.32 276.76 79.88 276.26 80.55 275.72 80.68 275.68 80.13 276.17 79.45 276.71 79.32 
M 273.34 175.06 272.97 174.64 272.96 173.81 273.32 173.38 273.69 173.8 273.7 174.64 273.34 175.06 
M 273.51 174.84 273.2 174.38 273.3 173.54 273.71 173.17 274.02 173.63 273.92 174.46 273.51 174.84 
M 321.31 101.7 320.8 101.92 320 101.68 319.7 101.21 320.21 100.98 321.02 101.23 321.31 101.7 
M 320.92 101.94 320.45 101.65 320.21 100.84 320.44 100.34 320.91 100.63 321.14 101.44 320.92 101.94 
M 326.41 103.12 326.28 103.66 325.59 104.14 325.04 104.08 325.17 103.54 325.86 103.06 326.41 103.12 
M 325.09 103.61 325.61 103.43 326.39 103.75 326.64 104.25 326.11 104.43 325.33 104.1 325.09 103.61 
M 322.22 114.52 322.45 114.02 323.22 113.67 323.75 113.83 323.52 114.33 322.75 114.68 322.22 114.52 
M 322.35 114.18 322.87 114.01 323.65 114.33 323.89 114.83 323.37 115 322.59 114.68 322.35 114.18 
M 327.03 121.16 327.29 120.67 328.07 120.36 328.59 120.54 328.34 121.03 327.56 121.34 327.03 121.16 
M 327.28 121.21 327.63 120.77 328.45 120.62 328.93 120.9 328.58 121.33 327.76 121.49 327.28 121.21 
M 283.33 68.07 283.13 67.55 283.41 66.76 283.7 66.59 
M 283.39 68.03 283.33 68.07 
M 283.5 67.42 282.99 67.55 282.49 67.3 282.81 66.85 283.68 66.67 
M 306.16 165.01 306.43 165.49 306.25 166.31 305.81 166.65 305.54 166.16 305.72 165.34 306.16 165.01 
M 305.38 165.62 305.94 165.63 306.56 166.2 306.62 166.75 306.07 166.73 305.45 166.17 305.38 165.62 
M 302.62 174.69 302.38 175.19 301.61 175.52 301.08 175.36 301.32 174.86 302.09 174.52 302.62 174.69 
M 301.29 175.33 301.67 174.93 302.51 174.85 302.96 175.17 302.57 175.57 301.74 175.65 301.29 175.33 
M 326.64 108.45 327.2 108.47 327.81 109.04 327.87 109.59 327.31 109.57 326.7 109 326.64 108.45 
M 326.88 108.5 327.32 108.83 327.51 109.65 327.25 110.14 326.8 109.81 326.62 108.99 326.88 108.5 
M 332.46 108.34 332.36 108.89 331.71 109.42 331.16 109.4 331.26 108.85 331.91 108.32 332.46 108.34 
M 331.75 108.23 331.97 108.74 331.71 109.54 331.24 109.83 331.02 109.32 331.28 108.52 331.75 108.23 
M 333.04 113.64 333.5 113.95 333.71 114.77 333.47 115.26 333.01 114.95 332.8 114.14 333.04 113.64 
M 332.67 114.2 333.22 114.25 333.8 114.86 333.82 115.42 333.27 115.36 332.69 114.75 332.67 114.2 
M 323.99 121.72 324.01 122.27 323.49 122.93 322.95 123.03 322.92 122.48 323.44 121.82 323.99 121.72 
M 322.83 122.34 323.37 122.2 324.12 122.56 324.34 123.07 323.81 123.22 323.05 122.85 322.83 122.34 
M 338.34 108.62 337.81 108.78 337.04 108.45 336.8 107.94 337.33 107.78 338.1 108.12 338.34 108.62 
M 337.13 108.75 337.37 108.25 338.14 107.91 338.67 108.08 338.43 108.58 337.66 108.91 337.13 108.75 
M 340.34 116.26 339.93 115.89 339.81 115.06 340.12 114.6 340.53 114.96 340.65 115.8 340.34 116.26 
M 340.22 114.79 340.4 115.32 340.07 116.09 339.58 116.34 339.4 115.81 339.73 115.04 340.22 114.79 
M 339.3 101.59 339.01 102.07 338.22 102.33 337.71 102.11 337.99 101.64 338.79 101.38 339.3 101.59 
M 338.63 102.48 338.36 101.99 338.52 101.17 338.89 100.89 
M 339 100.9 339.24 101.31 339.07 102.14 338.63 102.48 
M 333.25 100.94 332.73 101.13 331.95 100.83 331.68 100.34 332.2 100.15 332.99 100.45 333.25 100.94 
M 332.88 101.12 332.41 100.83 332.16 100.03 332.26 99.81 
M 332.89 99.91 333.1 100.62 332.88 101.12 
M 344.93 110.2 345.29 109.77 346.12 109.64 346.59 109.94 346.23 110.36 345.4 110.49 344.93 110.2 
M 346.39 109.98 345.89 110.22 345.08 110 344.77 109.54 345.27 109.3 346.08 109.52 346.39 109.98 
M 346.04 102.17 346.48 102.51 346.65 103.34 346.37 103.82 345.93 103.48 345.77 102.66 346.04 102.17 
M 345.66 102.67 346.2 102.8 346.69 103.48 346.64 104.03 346.1 103.9 345.61 103.22 345.66 102.67 
M 327.25 138.08 327.8 138.12 328.4 138.7 328.45 139.26 327.89 139.22 327.29 138.64 327.25 138.08 
M 327.83 138.03 328.01 138.56 327.7 139.33 327.21 139.59 327.03 139.06 327.34 138.28 327.83 138.03 
M 326.31 151.26 326.06 150.76 326.27 149.95 326.72 149.63 326.97 150.12 326.76 150.94 326.31 151.26 
M 326.74 151.04 326.4 150.61 326.43 149.77 326.81 149.36 327.16 149.8 327.12 150.63 326.74 151.04 
M 310.23 139.05 310.75 139.24 311.15 139.98 311.04 140.52 310.52 140.33 310.11 139.59 310.23 139.05 
M 311.27 139.83 310.73 139.96 309.98 139.58 309.77 139.07 310.31 138.93 311.06 139.31 311.27 139.83 
M 343.95 127.39 343.97 126.83 344.54 126.22 345.09 126.16 345.08 126.71 344.5 127.33 343.95 127.39 
M 344.47 126.13 344.68 126.65 344.42 127.44 343.94 127.73 343.73 127.21 343.99 126.42 344.47 126.13 
M 347.11 115.48 346.72 115.87 345.89 115.94 345.44 115.61 345.83 115.22 346.67 115.15 347.11 115.48 
M 346.76 115.12 346.47 115.6 345.67 115.86 345.16 115.64 345.45 115.17 346.25 114.91 346.76 115.12 
M 312.34 133.21 312.4 133.76 311.91 134.44 311.37 134.58 311.32 134.02 311.8 133.34 312.34 133.21 
M 311.38 133.47 311.89 133.69 312.25 134.45 312.1 134.98 311.6 134.76 311.23 134.01 311.38 133.47 
M 333.84 151.55 333.79 152.1 333.18 152.67 332.62 152.7 332.68 152.15 333.29 151.57 333.84 151.55 
M 333.1 151.5 333.38 151.98 333.21 152.8 332.77 153.14 332.5 152.66 332.66 151.84 333.1 151.5 
M 347.41 131.66 347.46 132.21 346.98 132.9 346.44 133.03 346.39 132.48 346.87 131.79 347.41 131.66 
M 347.51 132.09 347.09 132.45 346.25 132.45 345.83 132.09 346.25 131.73 347.09 131.73 347.51 132.09 
M 338.05 129.02 338.1 129.57 337.6 130.24 337.06 130.37 337.01 129.81 337.51 129.14 338.05 129.02 
M 337.23 129.14 337.64 129.51 337.76 130.34 337.45 130.81 337.04 130.44 336.92 129.61 337.23 129.14 
M 322.86 158.79 322.32 158.87 321.61 158.42 321.45 157.89 322 157.81 322.71 158.26 322.86 158.79 
M 322.8 158.32 322.27 158.5 321.49 158.2 321.23 157.71 321.75 157.52 322.54 157.83 322.8 158.32 
M 354.7 108.33 355 107.87 355.81 107.63 356.31 107.86 356.01 108.33 355.21 108.57 354.7 108.33 
M 355.06 107.64 355.55 107.9 355.86 108.68 355.67 109.21 355.18 108.95 354.87 108.17 355.06 107.64 
M 277.87 181.64 278.19 182.1 278.1 182.93 277.7 183.31 277.38 182.86 277.47 182.02 277.87 181.64 
M 277.99 181.87 277.98 182.43 277.42 183.05 276.87 183.13 276.88 182.57 277.44 181.94 277.99 181.87 
M 286.1 181.9 285.68 181.53 285.56 180.7 285.85 180.23 286.28 180.6 286.4 181.43 286.1 181.9 
M 286.62 181.03 286.1 181.23 285.31 180.94 285.04 180.45 285.56 180.26 286.35 180.55 286.62 181.03 
M 351.04 113.9 351.57 113.71 352.35 114.02 352.61 114.51 352.08 114.7 351.3 114.39 351.04 113.9 
M 351.23 113.98 351.78 114.01 352.38 114.59 352.43 115.15 351.88 115.11 351.28 114.53 351.23 113.98 
M 359.7 118.81 359.28 118.45 359.14 117.63 359.43 117.15 359.85 117.51 359.99 118.33 359.7 118.81 
M 359.19 118.5 359.36 117.97 360.09 117.54 360.63 117.64 360.46 118.17 359.73 118.59 359.19 118.5 
M 360.69 122.48 360.44 122.98 359.66 123.3 359.13 123.12 359.38 122.62 360.16 122.31 360.69 122.48 
M 359.33 122.54 359.88 122.6 360.45 123.22 360.47 123.77 359.92 123.71 359.35 123.1 359.33 122.54 
M 304.1 179.86 304.65 179.91 305.24 180.5 305.28 181.06 304.72 181.01 304.13 180.42 304.1 179.86 
M 304.9 181.06 304.57 180.62 304.61 179.78 305 179.38 305.34 179.82 305.29 180.66 304.9 181.06 
M 252.74 182.86 253.27 183 253.76 183.69 253.7 184.24 253.16 184.1 252.68 183.42 252.74 182.86 
M 252.71 183.94 253.03 183.48 253.84 183.28 254.34 183.53 254.02 183.98 253.2 184.19 252.71 183.94 
M 350.52 143.18 350.03 142.93 349.71 142.15 349.88 141.62 350.38 141.87 350.7 142.65 350.52 143.18 
M 350.24 141.76 350.38 142.3 350 143.05 349.49 143.26 349.35 142.72 349.73 141.97 350.24 141.76 
M 357.88 129 358.28 128.62 359.12 128.58 359.56 128.93 359.15 129.31 358.32 129.34 357.88 129 
M 358.61 128.33 358.87 128.83 358.67 129.64 358.22 129.96 357.96 129.47 358.16 128.65 358.61 128.33 
M 367.76 117.61 367.42 117.16 367.47 116.33 367.86 115.93 368.2 116.37 368.15 117.21 367.76 117.61 
M 368.26 117.22 367.77 116.97 367.46 116.19 367.64 115.66 368.13 115.92 368.44 116.7 368.26 117.22 
M 372.37 113.4 372.85 113.68 373.13 114.47 372.92 114.99 372.44 114.71 372.17 113.92 372.37 113.4 
M 372.47 114.81 372.45 114.25 372.99 113.61 373.54 113.51 373.55 114.07 373.01 114.72 372.47 114.81 
M 368.11 109.9 368.19 110.45 367.74 111.16 367.21 111.32 367.13 110.77 367.57 110.06 368.11 109.9 
M 368.03 111.13 367.58 110.8 367.41 109.98 367.68 109.49 368.12 109.83 368.29 110.65 368.03 111.13 
M 372.21 124.55 372.06 124.02 372.42 123.26 372.92 123.03 373.08 123.56 372.72 124.33 372.21 124.55 
M 373.21 123.78 372.68 123.96 371.9 123.64 371.65 123.15 372.18 122.97 372.95 123.28 373.21 123.78 
M 362.68 109.52 362.37 109.98 361.56 110.2 361.06 109.96 361.37 109.5 362.18 109.28 362.68 109.52 
M 361.81 109.1 362.03 109.61 361.78 110.41 361.31 110.71 361.09 110.2 361.34 109.4 361.81 109.1 
M 344.82 143.92 344.88 144.47 344.4 145.16 343.86 145.3 343.8 144.74 344.28 144.06 344.82 143.92 
M 344.8 144.17 344.54 144.65 343.75 144.95 343.23 144.75 343.5 144.27 344.28 143.97 344.8 144.17 
M 326.68 182.59 326.25 182.24 326.11 181.41 326.4 180.94 326.83 181.29 326.97 182.12 326.68 182.59 
M 327.18 181.77 326.65 181.93 325.88 181.6 325.64 181.1 326.17 180.93 326.94 181.27 327.18 181.77 
M 324.13 174.41 324.23 173.87 324.88 173.34 325.44 173.36 325.34 173.91 324.69 174.43 324.13 174.41 
M 324.24 174.21 324.6 173.8 325.44 173.69 325.9 173.99 325.53 174.41 324.7 174.52 324.24 174.21 
M 367.13 127.54 366.82 127.07 366.93 126.24 367.34 125.87 367.65 126.33 367.54 127.16 367.13 127.54 
M 367.74 126.31 367.43 126.77 366.61 126.98 366.12 126.74 366.43 126.28 367.24 126.06 367.74 126.31 
M 319.25 162.68 319.38 163.22 318.99 163.97 318.48 164.17 318.35 163.63 318.73 162.89 319.25 162.68 
M 318.65 164.03 318.67 163.48 319.23 162.86 319.79 162.79 319.77 163.35 319.2 163.97 318.65 164.03 
M 337.01 180 337.24 180.51 336.99 181.31 336.52 181.6 336.3 181.1 336.54 180.29 337.01 180 
M 336.82 181.44 336.61 180.92 336.87 180.13 337.35 179.84 337.56 180.36 337.3 181.15 336.82 181.44 
M 372.71 142.72 372.92 143.24 372.64 144.03 372.16 144.31 371.95 143.79 372.23 143 372.71 142.72 
M 372.73 142.95 372.64 143.5 371.98 144.02 371.43 144 371.53 143.46 372.18 142.93 372.73 142.95 
M 358.78 137.58 358.39 137.19 358.34 136.35 358.68 135.91 359.07 136.31 359.12 137.14 358.78 137.58 
M 358.14 136.99 358.56 136.63 359.4 136.64 359.82 137.01 359.39 137.37 358.55 137.36 358.14 136.99 
M 364.97 151.14 365.37 150.75 366.21 150.71 366.65 151.05 366.25 151.43 365.41 151.48 364.97 151.14 
M 365.18 151.19 365.68 150.94 366.49 151.15 366.8 151.61 366.31 151.86 365.49 151.65 365.18 151.19 
M 328.8 167.76 329.34 167.89 329.82 168.57 329.77 169.13 329.23 169 328.74 168.31 328.8 167.76 
M 329.87 168.7 329.32 168.64 328.74 168.03 328.72 167.47 329.27 167.53 329.85 168.15 329.87 168.7 
M 293.38 158.95 293.92 159.06 294.44 159.72 294.41 160.28 293.86 160.17 293.35 159.5 293.38 158.95 
M 293.74 160.24 293.7 159.68 294.2 159.01 294.75 158.89 294.79 159.44 294.29 160.12 293.74 160.24 
M 367.49 144.7 367.67 145.22 367.35 146 366.85 146.25 366.67 145.72 366.99 144.95 367.49 144.7 
M 366.84 146.02 366.97 145.48 367.65 144.99 368.2 145.03 368.08 145.57 367.4 146.07 366.84 146.02 
M 343.88 181.99 343.4 181.71 343.14 180.91 343.35 180.4 343.83 180.68 344.09 181.48 343.88 181.99 
M 344.24 181.07 343.76 181.34 342.93 181.16 342.6 180.72 343.08 180.45 343.91 180.63 344.24 181.07 
M 338.33 174.86 338.89 174.89 339.49 175.47 339.54 176.02 338.99 176 338.38 175.42 338.33 174.86 
M 338.7 176.04 338.74 175.48 339.33 174.89 339.88 174.85 339.85 175.4 339.26 176 338.7 176.04 
M 340.27 153.6 339.75 153.79 338.97 153.49 338.71 153 339.23 152.81 340.01 153.11 340.27 153.6 
M 339.16 153.85 339.29 153.31 339.97 152.81 340.52 152.86 340.39 153.4 339.72 153.9 339.16 153.85 
M 340.25 157.76 340.8 157.75 341.45 158.29 341.54 158.84 340.98 158.85 340.34 158.31 340.25 157.76 
M 341 157.67 341.08 158.22 340.62 158.93 340.09 159.08 340.01 158.53 340.46 157.83 341 157.67 
M 337.99 146.86 338.11 146.32 338.79 145.82 339.35 145.87 339.22 146.41 338.54 146.91 337.99 146.86 
M 338.94 145.79 338.87 146.34 338.24 146.89 337.68 146.9 337.76 146.35 338.38 145.79 338.94 145.79 
M 347.2 150.8 347.74 150.69 348.47 151.1 348.66 151.62 348.12 151.74 347.38 151.33 347.2 150.8 
M 347.51 150.73 347.98 151.02 348.24 151.82 348.02 152.33 347.55 152.04 347.29 151.24 347.51 150.73 
M 303.58 141.06 304.08 141.29 304.42 142.06 304.26 142.59 303.76 142.35 303.42 141.59 303.58 141.06 
M 303.28 141.79 303.82 141.65 304.57 142.02 304.79 142.53 304.26 142.67 303.5 142.3 303.28 141.79 
M 334.68 163.76 334.68 164.31 334.13 164.95 333.58 165.02 333.58 164.47 334.13 163.83 334.68 163.76 
M 334.37 163.8 334.33 164.35 333.74 164.95 333.18 164.99 333.22 164.43 333.81 163.84 334.37 163.8 
M 361.64 170.16 361.89 169.66 362.66 169.33 363.19 169.51 362.94 170.01 362.17 170.33 361.64 170.16 
M 362.95 169.48 362.6 169.91 361.77 170.06 361.3 169.78 361.64 169.34 362.47 169.2 362.95 169.48 
M 352.58 166.74 352.75 167.26 352.43 168.04 351.94 168.29 351.76 167.76 352.08 166.99 352.58 166.74 
M 352.07 166.9 352.39 167.36 352.3 168.19 351.89 168.57 351.57 168.11 351.66 167.28 352.07 166.9 
M 372.41 178.02 372.48 177.17 372.89 176.79 373.21 177.24 373.17 177.57 
M 373.08 177.05 373 177.6 372.55 177.98 
M 371.95 178.15 371.81 178.15 371.89 177.6 372.52 177.05 373.08 177.05 
M 348.85 159.54 348.39 159.24 348.16 158.43 348.4 157.93 348.86 158.23 349.09 159.04 348.85 159.54 
M 349.24 158.91 348.68 158.93 348.03 158.4 347.93 157.85 348.49 157.83 349.14 158.36 349.24 158.91 
M 367.56 164.34 367.43 163.8 367.81 163.05 368.32 162.84 368.46 163.38 368.08 164.13 367.56 164.34 
M 368.24 163.03 368.14 163.57 367.49 164.1 366.94 164.08 367.03 163.54 367.69 163.01 368.24 163.03 
"/></svg>