<svg xmlns="http://www.w3.org/2000/svg" width="520" height="320"><rect x="0" y="0" width="520" height="320" fill="floralwhite"/><rect x="10" y="10" width="500" height="300" stroke="black" stroke-width="1" fill="none"/><path stroke="black" stroke-width="1" fill="none" stroke-linecap="round" stroke-linejoin="round" d="
M 153 135.65 170.03 129.74 178.54 127.05 187.04 124.61 204.05 120.12 212.56 118.31 221.06 116.98 229.56 115.97 255.08 115.48 263.58 116.35 272.09 118.08 280.59 120.21 306.11 127.2 314.61 129.81 340.13 138.84 366.53 147.64 
M 366.53 195.44 340.13 206.09 323.12 212.03 314.61 214.53 297.6 219.17 289.1 220.87 272.09 223.7 263.58 224.41 255.08 224.89 246.57 224.68 229.56 224.84 221.06 223.89 212.56 222.33 204.05 220.52 195.55 218.52 187.04 216.78 178.54 214.72 170.03 212.08 161.55 209.02 
M 154.38 137.05 154.38 136.05 154.15 135.25 
M 159.07 144.53 159.36 143.41 159.36 142.36 158.92 140.66 158.24 139.16 157.71 138.57 
M 165.41 185.02 165.75 184.45 165.62 183.6 
M 156.92 139.7 157.54 139.08 158.34 137.5 158.85 135.71 158.85 134.6 158.6 133.72 
M 163.21 152.25 163.98 151 164.55 149.39 164.55 148.4 163.98 146.79 163.11 145.37 162.43 144.82 
M 166.35 163.75 167.33 162.52 167.92 161.18 167.92 160.36 167.33 159.02 166.41 157.84 165.69 157.38 
M 166.95 173.87 167.7 173.47 168.65 172.45 169.27 171.3 169.27 170.59 168.65 169.44 167.7 168.43 166.95 168.03 
M 166.96 182.81 167.81 182.42 
M 167.81 177.79 166.96 177.4 
M 166.55 191.62 167.81 190.93 
M 167.81 186.97 166.55 186.29 
M 166.13 200.42 167.01 200.07 167.81 199.44 
M 167.81 196.23 167.01 195.61 166.13 195.25 
M 162.64 146.54 163.19 145.92 163.91 144.33 164.37 142.52 164.37 141.4 163.91 139.6 163.19 138.01 162.64 137.38 
M 161.65 138.73 162.32 138.09 163.17 136.46 163.72 134.62 163.72 133.48 163.31 132.09 
M 167.72 152.57 168.42 151.99 169.32 150.52 169.9 148.86 169.9 147.82 169.32 146.16 168.42 144.69 167.72 144.11 
M 167.82 146.05 168.41 145.41 169.15 143.75 169.63 141.88 169.63 140.72 169.15 138.85 168.41 137.2 167.82 136.56 
M 166.94 138.15 167.72 137.52 168.71 135.9 169.36 134.06 169.36 132.92 168.71 131.09 168.26 130.35 
M 173.13 152.15 173.86 151.57 174.8 150.09 175.4 148.41 175.4 147.37 174.8 145.69 173.86 144.21 173.13 143.63 
M 176.68 163.52 177.4 163.05 178.32 161.84 178.91 160.48 178.91 159.63 178.32 158.26 177.4 157.05 176.68 156.58 
M 178.06 173.38 178.78 172.97 179.7 171.92 180.29 170.73 180.29 169.99 179.7 168.79 178.78 167.74 178.06 167.33 
M 178.39 158.25 179 157.73 179.77 156.41 180.27 154.91 180.27 153.98 179.77 152.48 179 151.15 178.39 150.63 
M 180.37 168.34 180.96 167.91 181.73 166.83 182.22 165.59 182.22 164.83 181.73 163.6 180.96 162.51 180.37 162.08 
M 173.42 138.48 174.36 137.88 175.57 136.36 176.35 134.63 176.35 133.56 175.57 131.84 174.36 130.31 173.42 129.72 
M 178.93 151.91 179.73 151.36 180.75 149.94 181.41 148.33 181.41 147.34 180.75 145.73 179.73 144.31 178.93 143.76 
M 183.53 173.01 184.25 172.6 185.17 171.54 185.77 170.35 185.77 169.61 185.17 168.41 184.25 167.35 183.53 166.94 
M 184.41 210.3 185.21 209.96 186.05 209.24 
M 174.24 132.06 175.2 131.51 176.44 130.08 177.23 128.46 177.23 127.46 
M 185.9 167.98 186.51 167.56 187.29 166.48 187.79 165.27 187.79 164.52 187.29 163.3 186.51 162.23 185.9 161.81 
M 181.11 139.8 182.14 139.27 183.47 137.91 184.33 136.37 184.33 135.42 183.47 133.88 182.14 132.52 181.11 131.99 
M 185.32 152.07 186.17 151.57 187.25 150.28 187.95 148.81 187.95 147.91 187.25 146.44 186.17 145.15 185.32 144.65 
M 189.06 172.65 189.78 172.24 190.71 171.2 191.3 170.02 191.3 169.28 190.71 168.1 189.78 167.06 189.06 166.65 
M 190.14 157.81 190.79 157.36 191.63 156.2 192.16 154.88 192.16 154.07 191.63 152.76 190.79 151.6 190.14 151.15 
M 185.74 130.05 186.87 129.61 188.32 128.47 189.26 127.18 189.26 126.39 188.32 125.1 187.53 124.48 
M 191.82 152.34 192.65 151.89 193.71 150.72 194.4 149.4 194.4 148.58 193.71 147.26 192.65 146.1 191.82 145.64 
M 194.56 172.24 195.27 171.84 196.18 170.81 196.76 169.66 196.76 168.94 196.18 167.78 195.27 166.75 194.56 166.35 
M 188.67 125.95 189.57 125.54 190.73 124.5 191.36 123.5 
M 191.24 136.4 192.06 135.96 193.12 134.83 193.81 133.55 193.81 132.75 193.12 131.47 192.06 130.34 191.24 129.9 
M 196.08 157.67 196.71 157.25 197.52 156.16 198.04 154.94 198.04 154.18 197.52 152.95 196.71 151.87 196.08 151.45 
M 197.12 167.3 197.72 166.91 198.48 165.9 198.97 164.76 198.97 164.05 198.48 162.91 197.72 161.91 197.12 161.51 
M 193.46 131.67 194.44 131.26 195.7 130.19 196.5 128.99 196.5 128.25 195.7 127.05 194.44 125.99 193.46 125.57 
M 195.84 142.03 196.72 141.6 197.85 140.49 198.58 139.24 198.58 138.47 197.85 137.22 196.72 136.11 195.84 135.68 
M 199.34 162.23 200.05 161.83 200.97 160.81 201.56 159.65 201.56 158.93 200.97 157.77 200.05 156.75 199.34 156.35 
M 195.92 127.2 196.7 126.81 197.71 125.8 198.36 124.67 198.36 123.96 197.71 122.82 196.93 122.05 
M 198.04 137.13 198.78 136.72 199.73 135.65 200.34 134.45 200.34 133.7 199.73 132.5 198.78 131.43 198.04 131.02 
M 202.44 166.68 203 166.29 203.73 165.32 204.19 164.21 204.19 163.53 203.73 162.42 203 161.44 202.44 161.06 
M 205.24 215.43 205.88 215.06 206.7 214.12 207.22 213.05 207.22 212.39 206.7 211.32 205.88 210.37 205.24 210.01 
M 198.3 123.03 199.19 122.65 200.33 121.66 200.76 121.01 
M 200.41 132.63 201.32 132.24 202.48 131.21 203.23 130.05 203.23 129.33 202.48 128.17 201.32 127.15 200.41 126.75 
M 202.25 142.37 203.08 141.96 204.15 140.93 204.84 139.76 204.84 139.04 204.15 137.87 203.08 136.84 202.25 136.43 
M 203.72 152.09 204.46 151.7 205.41 150.68 206.02 149.52 206.02 148.81 205.41 147.66 204.46 146.64 203.72 146.24 
M 204.64 161.57 205.33 161.19 206.2 160.2 206.77 159.09 206.77 158.4 206.2 157.28 205.33 156.3 204.64 155.91 
M 204.93 170.81 205.59 170.43 206.43 169.44 206.98 168.32 206.98 167.63 206.43 166.51 205.59 165.52 204.93 165.13 
M 202.92 128.39 203.68 127.99 204.65 126.96 205.27 125.8 205.27 125.07 204.65 123.91 203.68 122.88 202.92 122.48 
M 204.78 137.82 205.51 137.43 206.45 136.43 207.06 135.3 207.06 134.59 206.45 133.46 205.51 132.46 204.78 132.07 
M 206.06 147.18 206.71 146.79 207.53 145.8 208.06 144.68 208.06 143.99 207.53 142.87 206.71 141.88 206.06 141.49 
M 207.43 165.75 207.98 165.38 208.68 164.43 209.13 163.35 209.13 162.68 208.68 161.61 207.98 160.65 207.43 160.28 
M 204.81 123.88 205.65 123.46 206.73 122.4 207.43 121.21 207.43 120.46 206.88 119.52 
M 207.21 133.52 208.09 133.13 209.21 132.11 209.94 130.97 209.94 130.25 209.21 129.11 208.09 128.09 207.21 127.7 
M 208.56 142.61 209.38 142.23 210.43 141.27 211.11 140.18 211.11 139.5 210.43 138.41 209.38 137.45 208.56 137.08 
M 209.75 160.73 210.44 160.36 211.31 159.41 211.88 158.34 211.88 157.68 211.31 156.61 210.44 155.66 209.75 155.29 
M 216.19 217.74 216.33 217.5 216.33 216.84 215.7 215.78 214.72 214.85 213.95 214.48 
M 209.71 129.44 210.44 129.02 211.37 127.95 211.98 126.73 211.98 125.97 211.37 124.75 210.44 123.68 209.71 123.26 
M 211.42 138.44 212.13 138.07 213.04 137.12 213.63 136.04 213.63 135.38 213.04 134.3 212.13 133.35 211.42 132.98 
M 211.96 146.99 212.61 146.64 213.44 145.73 213.98 144.7 213.98 144.06 213.44 143.03 212.61 142.12 211.96 141.76 
M 212.21 155.79 212.8 155.43 213.55 154.5 214.04 153.46 214.04 152.81 213.55 151.76 212.8 150.83 212.21 150.47 
M 212.38 164.8 212.95 164.44 213.68 163.51 214.15 162.45 214.15 161.8 213.68 160.75 212.95 159.82 212.38 159.45 
M 213.1 172.86 213.85 171.29 213.85 170.59 213.39 169.44 212.68 168.43 212.13 168.04 
M 211.16 124.53 212 124.1 213.08 122.98 213.78 121.71 213.78 120.93 213.08 119.66 211.84 118.46 
M 213.8 134.23 214.65 133.84 215.75 132.83 216.46 131.68 216.46 130.98 215.75 129.83 214.65 128.82 213.8 128.43 
M 214.99 151.31 215.76 150.96 216.74 150.06 217.38 149.04 217.38 148.41 216.74 147.39 215.76 146.49 214.99 146.14 
M 215.04 160.08 215.78 159.72 216.72 158.81 217.32 157.77 217.32 157.13 216.72 156.09 215.78 155.17 215.04 154.82 
M 215.56 172.8 215.38 172.69 
M 212.43 119.5 213.14 119.04 213.87 118.1 
M 216.25 130.15 216.96 129.73 217.87 128.64 218.46 127.4 218.46 126.63 217.87 125.4 216.96 124.31 216.25 123.88 
M 217.82 138.89 218.52 138.53 219.41 137.61 219.98 136.57 219.98 135.92 219.41 134.88 218.52 133.96 217.82 133.6 
M 217.97 147.01 218.64 146.68 219.51 145.81 220.07 144.82 220.07 144.22 219.51 143.23 218.64 142.36 217.97 142.03 
M 217.8 155.44 218.46 155.09 219.3 154.2 219.84 153.18 219.84 152.56 219.3 151.54 218.46 150.65 217.8 150.3 
M 217.78 164.29 218.41 163.94 219.22 163.02 219.75 161.99 219.75 161.35 219.22 160.32 218.41 159.4 217.78 159.05 
M 217.67 125.17 218.55 124.74 219.67 123.61 220.4 122.35 220.4 121.56 219.67 120.29 218.55 119.17 217.67 118.73 
M 220.25 134.78 221.11 134.39 222.2 133.39 222.91 132.26 222.91 131.56 222.2 130.43 221.11 129.44 220.25 129.05 
M 219.23 120.32 220.01 119.87 221.01 118.73 221.65 117.43 221.65 116.91 
M 222.75 130.71 223.49 130.3 224.42 129.23 225.03 128.03 225.03 127.28 224.42 126.08 223.49 125.01 222.75 124.6 
M 224.18 139.36 224.89 139 225.8 138.09 226.39 137.05 226.39 136.41 225.8 135.38 224.89 134.46 224.18 134.11 
M 224.36 147.55 225.1 147.21 226.03 146.34 226.64 145.35 226.64 144.74 226.03 143.75 225.1 142.88 224.36 142.54 
M 224.03 164.6 224.76 164.25 225.7 163.37 226.3 162.37 226.3 161.75 225.7 160.75 224.76 159.87 224.03 159.52 
M 223.98 172.62 224.72 171.76 225.27 170.66 225.27 169.98 224.72 168.88 223.88 167.91 223.22 167.53 
M 224.54 126.05 225.48 125.63 226.68 124.55 227.45 123.33 227.45 122.57 226.68 121.35 225.48 120.27 224.54 119.85 
M 226.85 135.46 227.74 135.07 228.88 134.09 229.61 132.98 229.61 132.3 228.88 131.19 227.74 130.21 226.85 129.83 
M 227.68 143.96 228.57 143.61 229.72 142.7 230.45 141.68 230.45 141.05 229.72 140.03 228.57 139.12 227.68 138.77 
M 228.88 190.37 229.66 189.9 230.65 188.68 231.3 187.3 231.3 187.02 
M 229.61 131.58 230.38 131.18 231.37 130.15 232.01 129 232.01 128.28 231.37 127.12 230.38 126.1 229.61 125.7 
M 231.54 157.43 232.36 157.08 233.4 156.19 234.07 155.17 234.07 154.55 233.4 153.53 232.36 152.64 231.54 152.29 
M 230.71 172.47 231.11 172.07 231.7 171.04 231.7 170.4 231.11 169.36 230.19 168.45 229.48 168.09 
M 233.56 196.77 234.22 196.29 235.07 195.06 235.62 193.67 235.62 192.81 235.07 191.42 234.22 190.19 233.56 189.71 
M 228.96 117.46 230.02 117.08 231.52 115.92 
M 231.8 127.28 232.78 126.88 234.04 125.85 234.85 124.69 234.85 123.97 234.04 122.81 232.78 121.78 231.8 121.38 
M 233.75 136.42 234.68 136.05 235.86 135.09 236.62 134 236.62 133.33 235.86 132.25 234.68 131.29 233.75 130.91 
M 235.06 153.78 236 153.43 237.21 152.52 237.98 151.5 237.98 150.86 237.21 149.83 236 148.92 235.06 148.57 
M 234.27 123.22 235.13 122.82 236.24 121.8 236.96 120.65 236.96 119.94 236.24 118.78 235.13 117.77 234.27 117.37 
M 236.76 132.71 237.56 132.33 238.58 131.35 239.24 130.25 239.24 129.57 238.58 128.46 237.56 127.49 236.76 127.11 
M 238.46 150.05 239.23 149.69 240.22 148.76 240.86 147.71 240.86 147.06 240.22 146.01 239.23 145.08 238.46 144.72 
M 238.89 158.91 239.67 158.56 240.67 157.66 241.31 156.63 241.31 156 240.67 154.98 239.67 154.07 238.89 153.72 
M 236.93 184.2 237.26 184 238.21 182.83 238.82 181.41 
M 236.95 119.4 238.02 119.04 239.4 118.12 240.29 117.08 240.29 116.44 239.7 115.74 
M 239.28 128.7 240.27 128.33 241.54 127.36 242.36 126.26 242.36 125.58 241.54 124.48 240.27 123.51 239.28 123.14 
M 240.83 137.54 241.76 137.17 242.95 136.24 243.72 135.19 243.72 134.54 242.95 133.49 241.76 132.56 240.83 132.2 
M 241.59 146.14 242.49 145.79 243.65 144.87 244.39 143.84 244.39 143.19 243.65 142.16 242.49 141.24 241.59 140.89 
M 242.1 154.97 242.99 154.61 244.14 153.69 244.88 152.66 244.88 152.02 244.14 150.98 242.99 150.07 242.1 149.71 
M 242.09 163.49 242.99 163.15 244.15 162.29 244.89 161.31 244.89 160.7 244.15 159.72 242.99 158.85 242.09 158.51 
M 240.91 171.23 241.83 170.89 243.02 170.04 243.78 169.08 243.78 168.48 243.02 167.52 241.83 166.67 240.91 166.34 
M 243.08 201.67 243.86 201.26 244.86 200.19 245.5 198.98 245.5 198.24 244.86 197.03 243.86 195.96 243.08 195.55 
M 239.86 115.84 240.14 115.74 
M 244.02 133.94 244.8 133.58 245.81 132.65 246.46 131.61 246.46 130.96 245.81 129.91 244.8 128.98 244.02 128.62 
M 244.77 142.27 245.52 141.92 246.48 141.02 247.1 140.01 247.1 139.38 246.48 138.37 245.52 137.47 244.77 137.12 
M 245.34 151.03 246.06 150.67 246.99 149.75 247.59 148.71 247.59 148.07 246.99 147.03 246.06 146.11 245.34 145.75 
M 245.71 159.87 246.41 159.52 247.32 158.61 247.9 157.58 247.9 156.94 247.32 155.92 246.41 155.01 245.71 154.66 
M 245.37 168.16 246.1 167.84 247.03 167 247.63 166.05 247.63 165.47 247.03 164.52 246.1 163.68 245.37 163.36 
M 245.63 172.14 244.36 170.87 243.57 170.53 
M 246.52 219.23 246.32 219.12 
M 244.91 121.31 245.97 120.97 247.31 120.11 248.18 119.13 248.18 118.53 247.31 117.55 245.97 116.69 244.91 116.35 
M 246.68 130.05 247.64 129.7 248.88 128.79 249.67 127.76 249.67 127.12 248.88 126.09 247.64 125.18 246.68 124.83 
M 248.3 146.92 249.16 146.57 250.25 145.68 250.96 144.67 250.96 144.04 250.25 143.04 249.16 142.14 248.3 141.8 
M 248.64 164.21 249.45 163.86 250.5 162.98 251.18 161.98 251.18 161.37 250.5 160.37 249.45 159.49 248.64 159.14 
M 248.36 172.08 249.79 171.09 250.52 170.1 250.52 169.49 249.79 168.5 248.67 167.63 247.8 167.28 
M 247.12 181.09 248.04 180.71 249.22 179.72 249.98 178.61 249.98 177.92 249.22 176.8 248.04 175.82 247.12 175.43 
M 248.07 118.01 248.97 117.7 250.13 116.92 250.87 116.04 250.87 115.58 
M 249.66 126.44 250.48 126.1 251.53 125.22 252.2 124.22 252.2 123.6 251.53 122.6 250.48 121.72 249.66 121.38 
M 250.99 134.88 251.73 134.54 252.68 133.66 253.29 132.68 253.29 132.07 252.68 131.08 251.73 130.21 250.99 129.87 
M 251.67 151.4 252.33 151.05 253.19 150.17 253.74 149.16 253.74 148.54 253.19 147.53 252.33 146.64 251.67 146.3 
M 251.82 160.11 252.46 159.75 253.28 158.85 253.8 157.83 253.8 157.19 253.28 156.17 252.46 155.26 251.82 154.91 
M 251.65 168.68 252.3 168.34 253.15 167.47 253.69 166.47 253.69 165.86 253.15 164.87 252.3 163.99 251.65 163.65 
M 250.61 176.82 251.35 176.46 252.3 175.55 252.92 174.52 252.92 173.89 252.3 172.86 251.61 172.2 
M 251.42 172.02 250.61 171.59 
M 250.69 186.52 251.44 186.11 252.41 185.06 253.03 183.87 253.03 183.14 252.41 181.95 251.44 180.9 250.69 180.49 
M 252.6 122.93 253.59 122.62 254.86 121.82 255.68 120.91 255.68 120.35 254.86 119.44 253.59 118.64 252.6 118.33 
M 253.75 131.05 254.65 130.72 255.8 129.88 256.55 128.92 256.55 128.32 255.8 127.37 254.65 126.52 253.75 126.19 
M 254.42 139.14 255.27 138.81 256.35 137.96 257.05 137 257.05 136.41 256.35 135.45 255.27 134.6 254.42 134.27 
M 254.62 147.27 255.43 146.94 256.46 146.08 257.13 145.1 257.13 144.5 256.46 143.53 255.43 142.67 254.62 142.34 
M 254.64 155.7 255.41 155.35 256.4 154.47 257.03 153.46 257.03 152.84 256.4 151.84 255.41 150.95 254.64 150.61 
M 254.6 164.36 255.36 164.01 256.33 163.11 256.96 162.09 256.96 161.46 256.33 160.44 255.36 159.55 254.6 159.19 
M 253.94 182.03 254.81 181.65 255.92 180.67 256.64 179.56 256.64 178.87 255.92 177.76 254.81 176.78 253.94 176.4 
M 254.92 201.55 255.69 201.16 256.67 200.18 257.3 199.07 257.3 198.38 256.67 197.27 255.69 196.29 254.92 195.91 
M 255.88 119.78 256.71 119.49 257.76 118.76 258.44 117.94 258.44 117.42 257.76 116.6 256.71 115.87 255.88 115.58 
M 256.8 127.48 257.56 127.17 258.52 126.36 259.15 125.45 259.15 124.88 258.52 123.97 257.56 123.17 256.8 122.85 
M 257.53 135.41 258.22 135.09 259.11 134.26 259.69 133.33 259.69 132.75 259.11 131.81 258.22 130.99 257.53 130.67 
M 257.74 143.31 258.41 142.99 259.28 142.16 259.83 141.22 259.83 140.64 259.28 139.7 258.41 138.87 257.74 138.54 
M 259.2 116.99 260.15 116.73 261.28 116.12 
M 259.75 124.04 260.65 123.75 261.81 123 262.55 122.15 262.55 121.63 261.81 120.78 260.65 120.03 259.75 119.74 
M 260.36 131.66 261.21 131.35 262.29 130.55 262.98 129.65 262.98 129.09 262.29 128.19 261.21 127.39 260.36 127.08 
M 260.7 139.47 261.51 139.15 262.54 138.33 263.21 137.41 263.21 136.84 262.54 135.91 261.51 135.09 260.7 134.78 
M 260.67 147.39 261.46 147.06 262.47 146.23 263.11 145.29 263.11 144.71 262.47 143.76 261.46 142.93 260.67 142.6 
M 260.41 155.56 261.17 155.22 262.14 154.35 262.77 153.37 262.77 152.76 262.14 151.78 261.17 150.91 260.41 150.57 
M 260.28 164.23 261.03 163.87 262 162.96 262.62 161.93 262.62 161.29 262 160.25 261.03 159.34 260.28 158.98 
M 260.35 182.58 261.17 182.2 262.22 181.21 262.89 180.1 262.89 179.41 262.22 178.29 261.17 177.31 260.35 176.92 
M 260.64 210.61 261.41 210.24 262.39 209.28 263.03 208.19 263.03 207.52 262.39 206.43 261.41 205.46 260.64 205.09 
M 262.91 120.83 263.65 120.56 264.59 119.86 265.19 119.08 265.19 118.59 264.59 117.8 263.65 117.11 262.91 116.84 
M 263.39 128.07 264.09 127.77 264.98 127.01 265.55 126.15 265.55 125.62 264.98 124.75 264.09 123.99 263.39 123.7 
M 263.73 135.67 264.4 135.36 265.25 134.56 265.8 133.66 265.8 133.1 265.25 132.2 264.4 131.4 263.73 131.09 
M 263.17 168.71 263.81 168.33 264.62 167.39 265.15 166.31 265.15 165.65 264.62 164.57 263.81 163.62 263.17 163.25 
M 265.97 117.84 266.83 117.59 267.56 117.16 
M 266.29 124.63 267.12 124.34 268.18 123.63 268.87 122.81 268.87 122.31 268.18 121.49 267.12 120.77 266.29 120.49 
M 266.61 131.96 267.41 131.66 268.43 130.89 269.09 130.02 269.09 129.48 268.43 128.6 267.41 127.83 266.61 127.53 
M 266.76 139.63 267.55 139.31 268.55 138.51 269.19 137.6 269.19 137.04 268.55 136.13 267.55 135.33 266.76 135.01 
M 266.09 164.2 266.87 163.84 267.86 162.92 268.5 161.88 268.5 161.24 267.86 160.2 266.87 159.28 266.09 158.92 
M 266.54 210.66 267.31 210.28 268.31 209.32 268.95 208.23 268.95 207.56 268.31 206.47 267.31 205.5 266.54 205.13 
M 269.28 121.28 269.95 121.01 270.82 120.33 271.38 119.57 271.38 119.09 270.82 118.32 269.96 117.64 
M 269.56 128.32 270.22 128.03 271.07 127.29 271.62 126.45 271.62 125.93 271.07 125.09 270.22 124.35 269.56 124.06 
M 269.74 135.78 270.39 135.47 271.21 134.69 271.75 133.8 271.75 133.25 271.21 132.36 270.39 131.57 269.74 131.27 
M 269.76 143.57 270.41 143.25 271.23 142.44 271.76 141.51 271.76 140.94 271.23 140.02 270.41 139.21 269.76 138.89 
M 269.52 151.51 270.18 151.19 271.01 150.36 271.55 149.42 271.55 148.83 271.01 147.89 270.18 147.06 269.52 146.73 
M 269.58 187.63 270.23 187.25 271.07 186.26 271.61 185.14 271.61 184.45 271.07 183.33 270.23 182.35 269.58 181.96 
M 269.54 215.36 270.19 214.98 271.02 214.01 271.55 212.91 271.55 212.23 271.02 211.13 270.19 210.16 269.54 209.78 
M 272.24 118.22 272.42 118.16 
M 272.62 132.08 273.4 131.78 274.39 131.02 275.03 130.16 275.03 129.63 274.39 128.77 273.4 128.01 272.62 127.71 
M 272.69 139.69 273.46 139.37 274.45 138.57 275.08 137.67 275.08 137.11 274.45 136.2 273.46 135.4 272.69 135.09 
M 272.6 147.58 273.37 147.26 274.36 146.43 275 145.49 275 144.91 274.36 143.98 273.37 143.15 272.6 142.83 
M 272.33 173.64 273.12 173.27 274.14 172.3 274.79 171.21 274.79 170.54 274.14 169.44 273.12 168.48 272.33 168.1 
M 272.65 192.37 273.42 191.99 274.41 191.02 275.04 189.92 275.04 189.24 274.41 188.14 273.42 187.17 272.65 186.79 
M 275.37 121.48 276.02 121.22 276.86 120.55 277.4 119.79 277.4 119.41 
M 275.63 135.8 276.27 135.49 277.09 134.71 277.62 133.83 277.62 133.29 277.09 132.4 276.27 131.62 275.63 131.32 
M 275.64 143.59 276.28 143.27 277.09 142.46 277.62 141.53 277.62 140.96 277.09 140.03 276.28 139.21 275.64 138.9 
M 275.48 151.63 276.12 151.31 276.94 150.46 277.47 149.51 277.47 148.92 276.94 147.97 276.12 147.13 275.48 146.8 
M 275.27 169.1 275.93 168.72 276.78 167.77 277.33 166.68 277.33 166.01 276.78 164.93 275.93 163.97 275.27 163.6 
M 275.52 178.46 276.18 178.08 277.03 177.1 277.57 176 277.57 175.32 277.03 174.22 276.18 173.25 275.52 172.87 
M 278.41 124.96 279.18 124.69 280.17 123.99 280.8 123.2 280.8 122.71 280.17 121.92 279.18 121.22 278.41 120.95 
M 278.52 132.1 279.29 131.81 280.27 131.06 280.9 130.2 280.9 129.67 280.27 128.82 279.29 128.07 278.52 127.77 
M 278.56 139.69 279.33 139.38 280.3 138.58 280.93 137.68 280.93 137.12 280.3 136.22 279.33 135.42 278.56 135.11 
M 278.49 147.62 279.25 147.29 280.23 146.46 280.86 145.52 280.86 144.94 280.23 144 279.25 143.17 278.49 142.84 
M 278.24 155.81 279.01 155.47 280 154.6 280.63 153.61 280.63 153 280 152.01 279.01 151.14 278.24 150.8 
M 278.18 164.59 278.97 164.23 279.97 163.3 280.62 162.25 280.62 161.6 279.97 160.55 278.97 159.62 278.18 159.26 
M 278.41 173.85 279.19 173.47 280.19 172.51 280.84 171.42 280.84 170.75 280.19 169.66 279.19 168.7 278.41 168.32 
M 281.3 121.55 281.94 121.29 282.58 120.77 
M 281.42 128.42 282.05 128.13 282.87 127.41 283.39 126.58 283.39 126.07 282.87 125.25 282.05 124.52 281.42 124.24 
M 281.49 135.79 282.12 135.49 282.93 134.71 283.45 133.83 283.45 133.28 282.93 132.4 282.12 131.62 281.49 131.32 
M 281.34 151.65 281.97 151.32 282.78 150.47 283.3 149.51 283.3 148.92 282.78 147.96 281.97 147.12 281.34 146.79 
M 281.05 160.05 281.69 159.7 282.51 158.79 283.04 157.77 283.04 157.13 282.51 156.11 281.69 155.2 281.05 154.85 
M 281.33 169.3 281.99 168.93 282.82 167.97 283.36 166.89 283.36 166.22 282.82 165.13 281.99 164.18 281.33 163.8 
M 281.5 215.55 282.14 215.18 282.95 214.22 283.48 213.14 283.48 212.47 282.95 211.39 282.14 210.44 281.5 210.07 
M 284.35 132.07 285.1 131.78 286.06 131.02 286.68 130.17 286.68 129.64 286.06 128.79 285.1 128.04 284.35 127.74 
M 284.3 147.58 285.05 147.25 286.02 146.42 286.64 145.48 286.64 144.9 286.02 143.95 285.05 143.12 284.3 142.8 
M 284.09 155.83 284.85 155.48 285.81 154.61 286.44 153.61 286.44 152.99 285.81 152 284.85 151.12 284.09 150.78 
M 287.2 128.34 287.82 128.06 288.61 127.33 289.12 126.51 289.12 126 288.61 125.17 287.82 124.45 287.2 124.16 
M 287.28 135.73 287.9 135.43 288.7 134.65 289.21 133.77 289.21 133.22 288.7 132.34 287.9 131.56 287.28 131.25 
M 287.09 151.55 287.7 151.21 288.49 150.37 289 149.41 289 148.81 288.49 147.85 287.7 147 287.09 146.67 
M 287.28 169.37 287.93 169 288.75 168.05 289.28 166.98 289.28 166.31 288.75 165.23 287.93 164.28 287.28 163.91 
M 287.21 178.33 287.84 177.97 288.63 177.03 289.15 175.96 289.15 175.31 288.63 174.24 287.84 173.3 287.21 172.93 
M 289.93 124.77 290.65 124.49 291.9 123.38 
M 290.03 131.9 290.75 131.61 291.67 130.86 292.27 130 292.27 129.47 291.67 128.62 290.75 127.86 290.03 127.57 
M 290.09 139.51 290.81 139.19 291.73 138.4 292.32 137.49 292.32 136.93 291.73 136.03 290.81 135.23 290.09 134.92 
M 289.99 147.41 290.71 147.09 291.64 146.25 292.24 145.31 292.24 144.73 291.64 143.78 290.71 142.95 289.99 142.62 
M 292.77 128.06 293.36 127.78 294.11 127.05 294.59 126.22 294.59 125.71 294.11 124.89 293.36 124.16 292.77 123.87 
M 292.88 135.48 293.45 135.17 294.19 134.39 294.66 133.51 294.66 132.96 294.19 132.08 293.45 131.29 292.88 130.99 
M 292.67 151.3 293.27 150.96 294.05 150.11 294.55 149.14 294.55 148.54 294.05 147.57 293.27 146.71 292.67 146.38 
M 292.65 160.01 293.29 159.65 294.12 158.71 294.65 157.66 294.65 157.01 294.12 155.95 293.29 155.02 292.65 154.66 
M 292.94 178.18 293.56 177.81 294.34 176.88 294.85 175.83 294.85 175.18 294.34 174.13 293.56 173.2 292.94 172.84 
M 295.33 131.33 296 131.04 296.86 130.29 297.41 129.45 297.41 128.93 296.86 128.08 296 127.34 295.33 127.05 
M 295.34 138.92 295.99 138.61 296.83 137.81 297.37 136.9 297.37 136.33 296.83 135.42 295.99 134.62 295.34 134.31 
M 295.39 147.04 296.08 146.71 296.97 145.85 297.54 144.87 297.54 144.27 296.97 143.3 296.08 142.44 295.39 142.1 
M 295.57 155.69 296.32 155.33 297.29 154.42 297.91 153.38 297.91 152.74 297.29 151.71 296.32 150.79 295.57 150.43 
M 295.91 164.77 296.69 164.41 297.68 163.47 298.32 162.4 298.32 161.75 297.68 160.68 296.69 159.74 295.91 159.38 
M 296.05 201.68 296.8 201.3 297.76 200.31 298.38 199.19 298.38 198.5 297.76 197.38 296.8 196.39 296.05 196 
M 296.07 210.88 296.84 210.51 297.82 209.55 298.46 208.46 298.46 207.79 297.82 206.7 296.84 205.75 296.07 205.37 
M 297.93 127.3 298.48 127.02 299.19 126.32 299.64 125.49 
M 297.76 134.48 298.27 134.18 298.93 133.41 299.35 132.54 299.35 132 298.93 131.13 298.27 130.36 297.76 130.06 
M 298.18 151.14 298.79 150.78 299.56 149.86 300.06 148.82 300.06 148.18 299.56 147.14 298.79 146.22 298.18 145.86 
M 298.16 186.92 298.75 186.54 299.51 185.55 300 184.44 300 183.75 299.51 182.63 298.75 181.65 298.16 181.26 
M 299.84 137.64 300.45 137.32 301.22 136.5 301.73 135.57 301.73 134.99 301.22 134.06 300.45 133.24 299.84 132.92 
M 300.42 146.44 301.09 146.07 301.95 145.14 302.5 144.08 302.5 143.43 301.95 142.38 301.09 141.44 300.42 141.08 
M 301.39 155.81 302.16 155.43 303.13 154.47 303.76 153.37 303.76 152.69 303.13 151.6 302.16 150.64 301.39 150.26 
M 301.18 191.73 301.9 191.34 302.82 190.33 303.41 189.19 303.41 188.48 302.82 187.34 301.9 186.34 301.18 185.94 
M 301.84 132.64 302.34 132.35 302.97 131.62 303.38 130.78 303.38 130.27 302.97 129.43 302.34 128.7 301.84 128.41 
M 304.75 169.07 305.36 168.73 306.15 167.84 306.65 166.84 306.65 166.22 306.15 165.22 305.36 164.33 304.75 163.99 
M 303.52 186.44 304.11 186.06 304.88 185.07 305.37 183.95 305.37 183.26 304.88 182.14 304.11 181.16 303.52 180.77 
M 304.24 196.59 304.83 196.19 305.6 195.15 306.09 193.97 306.09 193.24 305.6 192.07 304.83 191.03 304.24 190.62 
M 304.73 128.83 305.4 128.57 306.27 127.9 306.66 127.37 
M 304.15 136.19 304.81 135.86 305.65 135.01 306.19 134.05 306.19 133.46 305.65 132.5 304.81 131.66 304.15 131.33 
M 307.22 155.92 307.99 155.53 308.96 154.51 309.59 153.36 309.59 152.65 308.96 151.5 307.99 150.48 307.22 150.09 
M 307.1 173.03 307.83 172.69 308.78 171.8 309.39 170.8 309.39 170.18 308.78 169.18 307.83 168.3 307.1 167.95 
M 306.64 191.35 307.37 190.95 308.3 189.94 308.91 188.79 308.91 188.08 308.3 186.93 307.37 185.92 306.64 185.52 
M 307.3 201.34 308.04 200.94 308.98 199.91 309.59 198.75 309.59 198.03 308.98 196.87 308.04 195.84 307.3 195.44 
M 306.34 131.24 306.94 130.96 307.7 130.25 308.19 129.44 308.19 128.94 307.7 128.14 306.98 127.47 
M 306.48 139.9 307.08 139.51 307.84 138.5 308.34 137.36 308.34 136.65 307.84 135.52 307.08 134.51 306.48 134.12 
M 310.79 160.64 311.43 160.27 312.25 159.31 312.78 158.23 312.78 157.56 312.25 156.47 311.43 155.52 310.79 155.14 
M 309.4 176.97 310.03 176.62 310.83 175.73 311.34 174.72 311.34 174.1 310.83 173.09 310.03 172.2 309.4 171.85 
M 310.43 206.17 311.05 205.77 311.85 204.75 312.37 203.59 312.37 202.88 311.85 201.72 311.05 200.7 310.43 200.3 
M 309.54 135.76 310.35 135.42 311.4 134.56 312.07 133.59 312.07 132.99 311.4 132.02 310.35 131.16 309.54 130.83 
M 311.03 145.68 311.83 145.27 312.85 144.22 313.51 143.03 313.51 142.3 312.85 141.11 311.83 140.06 311.03 139.65 
M 312.84 172.91 313.61 172.57 314.6 171.69 315.23 170.69 315.23 170.07 314.6 169.07 313.61 168.19 312.84 167.85 
M 312.22 181.6 313 181.24 314 180.3 314.64 179.24 314.64 178.58 314 177.52 313 176.58 312.22 176.21 
M 312.58 131.65 313.34 131.36 314.32 130.64 314.88 129.9 
M 312.75 140.25 313.51 139.86 314.49 138.87 315.12 137.75 315.12 137.06 314.49 135.94 313.51 134.95 312.75 134.57 
M 315.43 151.31 316.1 150.88 316.95 149.79 317.5 148.56 317.5 147.79 316.95 146.56 316.1 145.47 315.43 145.04 
M 316.24 168.81 316.88 168.47 317.71 167.6 318.24 166.61 318.24 166 317.71 165.02 316.88 164.15 316.24 163.81 
M 315.37 177.09 316.04 176.74 316.9 175.85 317.45 174.83 317.45 174.2 316.9 173.19 316.04 172.29 315.37 171.94 
M 316.46 136.78 317.41 136.44 318.64 135.6 319.42 134.63 319.42 134.04 318.64 133.08 317.41 132.23 316.46 131.9 
M 319.08 155.98 319.87 155.6 320.88 154.61 321.53 153.49 321.53 152.79 320.88 151.67 319.87 150.68 319.08 150.29 
M 318.41 181.93 319.23 181.57 320.28 180.63 320.96 179.56 320.96 178.9 320.28 177.84 319.23 176.9 318.41 176.53 
M 318.9 201.19 319.67 200.79 320.65 199.78 321.29 198.63 321.29 197.92 320.65 196.77 319.67 195.76 318.9 195.36 
M 320.15 133.47 320.98 133.17 321.98 132.43 
M 321.73 151.44 322.41 151.05 323.29 150.07 323.86 148.95 323.86 148.26 323.29 147.14 322.41 146.16 321.73 145.77 
M 322.51 160.57 323.14 160.2 323.96 159.27 324.48 158.21 324.48 157.56 323.96 156.5 323.14 155.57 322.51 155.21 
M 321.51 186.78 322.2 186.4 323.1 185.44 323.67 184.35 323.67 183.67 323.1 182.58 322.2 181.61 321.51 181.23 
M 323.91 138.31 324.86 137.98 326.08 137.15 326.87 136.2 326.87 135.61 326.08 134.66 324.86 133.82 323.91 133.5 
M 324.44 146.96 325.32 146.6 326.46 145.68 327.18 144.65 327.18 144.01 326.46 142.97 325.32 142.06 324.44 141.7 
M 325.32 164.81 326.09 164.45 327.07 163.54 327.71 162.51 327.71 161.87 327.07 160.83 326.09 159.92 325.32 159.56 
M 324.67 191.68 325.47 191.3 326.49 190.33 327.15 189.23 327.15 188.55 326.49 187.45 325.47 186.48 324.67 186.1 
M 327.01 206.88 326.71 206.34 325.77 205.36 325.04 204.97 
M 327.49 135.03 328.27 134.69 
M 327.66 143 328.42 142.67 329.38 141.82 330 140.85 330 140.25 329.38 139.29 328.42 138.43 327.66 138.1 
M 328.36 160.51 329 160.15 329.82 159.24 330.34 158.2 330.34 157.56 329.82 156.53 329 155.61 328.36 155.26 
M 330.79 139.28 331.65 138.96 332.75 138.13 333.46 137.19 333.37 136.5 
M 331.18 156.1 331.96 155.75 332.96 154.85 333.61 153.83 333.61 153.2 332.96 152.19 331.96 151.29 331.18 150.94 
M 330.85 182.66 331.63 182.29 332.62 181.35 333.26 180.28 333.26 179.61 332.62 178.55 331.63 177.6 330.85 177.23 
M 334.05 143.47 334.73 143.14 335.59 142.31 336.14 141.36 336.14 140.78 335.59 139.83 334.73 139 334.05 138.67 
M 334.23 160.48 334.87 160.12 335.68 159.23 336.21 158.21 336.21 157.58 335.68 156.56 334.87 155.66 334.23 155.31 
M 337 139.59 337.79 139.28 338.85 138.4 
M 336.77 173.52 337.52 173.16 338.48 172.24 339.1 171.19 339.1 170.54 338.48 169.5 337.52 168.57 336.77 168.21 
M 340.05 151.84 340.69 151.5 341.51 150.63 342.04 149.64 342.04 149.03 341.51 148.04 340.69 147.17 340.05 146.83 
M 340.08 160.45 340.72 160.1 341.54 159.21 342.06 158.2 342.06 157.57 341.54 156.57 340.72 155.67 340.08 155.33 
M 339.77 169 340.4 168.64 341.22 167.74 341.74 166.72 341.74 166.09 341.22 165.06 340.4 164.16 339.77 163.81 
M 338.87 195.77 339.45 195.4 340.21 194.47 340.69 193.42 340.69 192.77 340.21 191.71 339.45 190.78 338.87 190.42 
M 340.17 202.71 340.31 201.72 339.84 200.64 339.1 199.69 338.52 199.32 
M 342.87 164.72 343.63 164.37 344.61 163.48 345.24 162.47 345.24 161.84 344.61 160.83 343.63 159.94 342.87 159.59 
M 345.93 143.6 346.57 143.28 347.39 142.45 347.92 141.43 
M 345.91 151.84 346.54 151.5 347.36 150.63 347.89 149.64 347.89 149.03 347.36 148.05 346.54 147.18 345.91 146.84 
M 345.95 160.46 346.58 160.11 347.4 159.22 347.92 158.2 347.92 157.58 347.4 156.57 346.58 155.67 345.95 155.32 
M 344.97 177.41 345.56 177.06 346.31 176.15 346.8 175.13 346.8 174.5 346.31 173.47 345.56 172.57 344.97 172.22 
M 344.63 186.37 345.2 186 345.93 185.08 346.4 184.03 346.4 183.38 345.93 182.33 345.2 181.41 344.63 181.04 
M 344.16 195.2 344.73 194.84 345.46 193.91 345.93 192.86 345.93 192.21 345.46 191.16 344.73 190.23 344.16 189.87 
M 348.86 147.72 349.62 147.39 350.6 146.55 351.23 145.59 351.23 144.99 350.6 144.04 349.62 143.19 348.86 142.86 
M 348.86 156.15 349.62 155.8 350.6 154.92 351.23 153.92 351.23 153.31 350.6 152.31 349.62 151.43 348.86 151.08 
M 348.11 173.01 348.83 172.67 349.76 171.79 350.36 170.8 350.36 170.18 349.76 169.19 348.83 168.31 348.11 167.96 
M 351.81 143.61 352.69 143.04 
M 349.67 185.52 350.22 185.17 350.92 184.25 351.37 183.22 351.37 182.57 350.92 181.54 350.22 180.62 349.67 180.26 
M 354.71 147.72 355.47 147.39 356.44 146.54 357.06 145.58 357.06 144.99 356.67 144.38 
M 354.72 156.14 355.48 155.8 356.46 154.92 357.08 153.93 357.08 153.31 356.46 152.32 355.48 151.44 354.72 151.1 
M 353.55 172.52 354.25 172.19 355.14 171.34 355.71 170.38 355.71 169.79 355.14 168.83 354.25 167.98 353.55 167.65 
M 352.45 180.67 353.11 180.33 353.95 179.45 354.49 178.45 354.49 177.83 353.95 176.84 353.11 175.95 352.45 175.61 
M 351.45 198.4 352.1 198.03 352.93 197.1 353.47 196.04 353.47 195.38 352.93 194.33 352.1 193.39 351.45 193.03 
M 357.66 151.88 358.29 151.54 359.1 150.67 359.62 149.68 359.62 149.07 359.1 148.08 358.29 147.21 357.66 146.87 
M 354.1 193.45 354.63 193.09 355.32 192.16 355.75 191.12 355.75 190.47 355.32 189.42 354.63 188.49 354.1 188.13 
M 354.37 197.56 353.63 196.92 
M 360.47 147.63 361.21 147.3 362.3 146.24 
M 360.5 156.03 361.24 155.7 362.18 154.83 362.79 153.84 362.79 153.23 362.18 152.25 361.24 151.38 360.5 151.04 
M 358.68 171.71 359.34 171.39 360.18 170.57 360.73 169.65 360.73 169.08 360.18 168.15 359.34 167.34 358.68 167.02 
M 357.25 179.58 357.87 179.25 358.68 178.38 359.19 177.4 359.19 176.79 358.68 175.81 357.87 174.95 357.25 174.61 
M 363.37 151.73 363.98 151.39 364.77 150.52 365.27 149.53 365.27 148.92 364.77 147.94 363.98 147.06 363.37 146.72 
M 362.27 167.75 362.83 167.45 363.54 166.66 364 165.76 364 165.21 363.54 164.32 362.83 163.53 362.27 163.22 
M 360.03 174.67 360.54 174.36 361.2 173.54 361.62 172.62 361.62 172.05 361.2 171.13 360.54 170.32 360.03 170 
M 359.1 183.25 359.61 182.9 360.25 181.99 360.67 180.97 360.67 180.33 360.25 179.3 359.61 178.4 359.1 178.04 
M 366.04 155.67 366.53 155.44 
M 366.53 151.01 366.04 150.78 
M 364.4 173.16 364.9 172.85 365.54 172.05 365.95 171.15 365.95 170.6 365.54 169.7 364.9 168.91 364.4 168.6 
M 365.71 185.96 366.53 185.34 
M 366.53 180.96 365.71 180.34 
M 202.61 119.43 246.59 30 247.39 30.38 206 119.71 
M 215.65 116.97 244.8 51.39 245.62 51.74 218.96 117.31 
M 228.87 115.31 249.06 71.93 249.87 72.28 232.08 115.91 
M 242.17 115.09 253.98 89.78 254.79 90.12 245.35 115.69 
M 255.49 115.04 261.27 104.51 262.09 104.86 258.57 115.84 
M 270.62 117.44 272.09 118.08 
M 243.2 39.42 241.77 43.46 240.87 47.53 240.73 49.59 240.79 51.66 241.04 53.75 241.89 57.95 
M 242.92 58.38 242.72 62.61 242.79 64.69 243.05 66.73 243.5 68.71 245.01 72.55 247.04 76.27 
M 248.07 76.72 248.03 80.51 248.17 82.36 248.5 84.15 249.02 85.89 250.65 89.18 252.79 92.31 
M 253.83 92.74 254.35 96.13 255.34 99.27 256.1 100.69 257.05 102.02 258.16 103.25 260.7 105.57 
M 261.72 106.01 263.03 109.37 263.83 110.94 264.76 112.39 265.85 113.71 268.51 115.95 271.58 117.85 
M 242.45 41.44 241.23 45.49 240.87 47.53 240.73 49.59 240.79 51.66 241.43 55.84 
M 239.66 48.21 238.55 51.91 238.22 53.77 238.15 57.54 238.73 61.36 
M 236.88 54.98 235.87 58.33 235.57 60.01 235.51 63.42 236.03 66.87 
M 234.09 61.76 233.19 64.75 232.92 66.25 232.86 69.3 233.33 72.39 
M 231.3 68.53 230.51 71.17 230.27 72.49 230.22 75.18 230.63 77.9 
M 228.51 75.31 227.62 78.74 227.58 81.06 227.93 83.41 
M 225.72 82.08 224.97 84.98 224.93 86.94 225.24 88.93 
M 222.93 88.86 222.32 91.22 222.29 92.82 222.54 94.44 
M 242.78 60.51 242.79 64.69 243.05 66.73 243.5 68.71 244.17 70.65 245.99 74.42 
M 240.11 68.38 240.12 71.98 240.74 75.44 241.31 77.11 242.87 80.35 
M 237.45 76.26 237.45 79.27 237.97 82.17 238.44 83.57 239.76 86.28 
M 234.78 84.14 234.79 86.57 235.2 88.9 236.64 92.21 
M 232.11 92.02 232.12 93.86 232.43 95.63 233.52 98.14 
M 248.01 78.62 248.17 82.36 248.5 84.15 249.02 85.89 249.75 87.56 251.69 90.75 
M 245.44 87.31 245.56 90.17 245.81 91.54 246.77 94.15 248.26 96.6 
M 242.87 95.99 243.13 98.94 243.79 100.75 244.83 102.46 
M 254.05 94.45 254.76 97.74 255.34 99.27 256.1 100.69 257.05 102.02 259.4 104.43 
M 167.76 172.25 262.23 170.71 262.25 171.6 167.85 175.45 
M 167.83 175.8 253.3 178.55 253.28 179.44 167.78 179 
M 167.91 179.36 244.19 185.54 244.14 186.42 167.7 182.55 
M 167.99 182.91 234.97 191.67 234.87 192.55 167.63 186.09 
M 168.06 186.47 225.7 196.95 225.56 197.82 167.55 189.63 
M 168.13 190.04 216.44 201.37 216.25 202.24 167.48 193.17 
M 168.21 193.61 207.23 204.94 207.01 205.8 167.4 196.7 
M 168.28 197.18 198.16 207.67 197.9 208.52 167.33 200.23 
M 168.35 200.75 189.27 209.58 188.96 210.41 167.26 203.75 
M 168.42 204.33 180.62 210.67 180.27 211.49 167.19 207.28 
M 169.24 207.94 172.26 210.39 171.88 211.19 167.12 210.21 
M 252.81 171.99 250.32 172.48 248.16 173.4 247.26 174.1 246.49 174.97 245.84 175.98 244.75 178.28 
M 244.73 179.39 242.28 179.68 240.12 180.4 239.21 181.01 238.43 181.8 237.74 182.75 236.57 184.92 
M 236.49 186.03 234.09 186.1 232.98 186.29 231.96 186.64 231.05 187.17 229.53 188.75 228.28 190.79 
M 228.15 191.91 225.83 191.77 224.74 191.85 223.74 192.11 222.82 192.55 221.26 193.99 219.94 195.9 
M 219.76 197 217.53 196.66 215.49 196.81 214.59 197.17 213.76 197.73 213 198.46 211.61 200.24 
M 211.38 201.33 209.25 200.79 208.24 200.69 207.29 200.76 206.39 201.04 204.78 202.17 203.33 203.81 
M 203.05 204.89 201.05 204.16 199.17 203.95 198.3 204.15 197.47 204.54 196.68 205.12 195.17 206.62 
M 194.84 207.69 192.09 206.5 191.21 206.41 190.35 206.52 188.73 207.34 187.18 208.7 
M 186.79 209.75 185.11 208.67 183.44 208.13 182.62 208.16 181.8 208.41 179.4 210.04 
M 178.97 211.07 177.55 209.72 176.06 208.9 175.27 208.79 174.46 208.89 171.89 210.09 
M 251.54 172.21 249.18 172.87 248.16 173.4 247.26 174.1 246.49 174.97 245.27 177.1 
M 222.24 173.4 220.7 173.84 220.03 174.18 218.95 175.2 218.16 176.58 
M 243.48 179.5 241.15 179.96 240.12 180.4 239.21 181.01 238.43 181.8 237.13 183.8 
M 217 179.39 215.48 179.69 214.22 180.37 213.71 180.88 212.87 182.18 
M 235.27 186.04 232.98 186.29 231.96 186.64 231.05 187.17 230.24 187.88 228.88 189.74 
M 211.66 184.88 210.17 185.04 208.91 185.61 208.39 186.07 207.51 187.29 
M 226.97 191.8 224.74 191.85 223.74 192.11 222.82 192.55 222 193.19 220.58 194.91 
M 218.63 196.8 216.48 196.65 215.49 196.81 214.59 197.17 213.76 197.73 212.29 199.31 
M 210.3 201.02 208.24 200.69 207.29 200.76 206.39 201.04 205.56 201.51 204.05 202.95 
M 202.04 204.49 200.09 203.97 199.17 203.95 198.3 204.15 197.47 204.54 195.92 205.84 
M 213.85 221.41 220.56 232.77 219.84 233.28 211.26 223.26 
M 201.01 218.79 227.84 279.62 227.03 280 198.1 220.13 
M 188.59 216.39 190.66 229.42 189.8 229.63 185.49 217.17 
M 218.98 232.28 219.22 241.62 219.52 246.26 219.99 250.88 220.68 255.46 222.65 264.54 225.16 273.54 
M 224.14 274.01 217.57 263.14 210.58 252.58 206.83 247.48 202.92 242.5 198.86 237.64 190.45 228.12 
M 219.06 236.96 219.52 246.26 219.99 250.88 220.68 255.46 221.58 260.01 223.87 269.05 
M 220.89 268.55 214.15 257.8 210.58 252.58 206.83 247.48 202.92 242.5 194.68 232.86 
M 341.32 205.02 343.53 209.22 342.87 209.81 338.94 207.16 
M 328.78 209.47 337.74 221.65 337.07 222.23 326.36 211.56 
M 316.1 213.46 325.35 226.91 324.66 227.47 313.61 215.45 
M 303.3 217.03 312.25 231.21 311.53 231.73 300.72 218.91 
M 290.36 220.01 296.03 230.71 295.29 231.2 287.69 221.77 
M 281.95 221.52 283.41 226.03 282.65 226.5 279.24 223.21 
M 342.48 209.55 340.21 211.44 338.42 213.58 337.79 214.79 337.36 216.1 337.08 217.49 336.84 220.43 
M 336 221.16 333.02 221.08 330.23 221.49 328.95 221.98 327.74 222.66 326.59 223.52 324.43 225.57 
M 323.55 226.26 320.53 225.95 317.65 226.15 316.29 226.54 314.99 227.14 313.75 227.91 311.35 229.79 
M 310.45 230.45 307.18 229.13 303.88 228.34 302.22 228.25 300.54 228.37 298.86 228.68 295.46 229.64 
M 294.53 230.25 292.46 228.16 290.19 226.56 288.94 226.04 287.61 225.72 286.2 225.56 283.26 225.58 
M 334.49 221.08 331.59 221.19 330.23 221.49 328.95 221.98 327.74 222.66 325.5 224.51 
M 322.03 226.07 319.06 225.96 317.65 226.15 316.29 226.54 314.99 227.14 312.54 228.81 
M 308.82 229.75 305.54 228.64 303.88 228.34 302.22 228.25 300.54 228.37 297.16 229.12 
M 365.64 147.35 371.47 145.61 373.87 144.13 376.54 143.08 378.96 141.61 381.38 139.36 383.46 138.14 385.6 137.23 387.78 136.62 394.84 134.02 398.42 131.53 402.23 129.33 404.24 128.51 405.28 125.97 410.38 128.15 413.79 129.36 416.46 129.83 421.03 130 425.36 134.51 427.87 136.2 430.01 136.28 432.93 137.52 437.28 139.95 439.19 141.22 442.42 145.93 444.03 147.87 449.62 153.89 450.91 156.49 451.6 158.49 453.97 164.01 452.47 165.35 452.42 168.13 456.16 174.76 456.2 177.73 455.09 180.22 454.13 182.87 452.93 185.25 452.09 187.72 451.57 190.5 448.43 194.19 447.17 196.45 446.38 202.25 446.53 205.69 444.49 207.42 442.12 208.5 438.94 208.77 436.84 210.39 434.31 211.59 432.87 213.88 431.08 215.82 427.98 216.45 425.53 217.72 424.15 219.95 419.54 222.33 416.64 222.54 413.17 222.57 406.17 224.39 404.8 222.54 399.48 220.52 395.68 218.63 393.01 215.82 390.35 213.96 387.84 213.04 387.37 210.8 385.26 209.06 382.54 207.16 378.75 205.97 376.41 204.22 374.28 201.76 371.78 199.96 368.89 198.2 365.64 195.8 
M 368.58 149.33 374.15 147.04 376.7 144.96 379.17 144.09 381.55 142.69 384.18 141.71 386.06 141.29 388.39 140.09 389.98 138.88 
M 371.03 151.2 374.07 150.07 377.13 148.15 384.49 145.2 387.4 144.52 390.07 144.28 392.72 143.54 394.24 142.29 
M 374.09 153.46 377.35 152.07 379.47 150.91 381.79 150.21 384.72 148.52 387.52 147.76 393.81 146.72 395.31 146.03 397.78 145.25 400.06 143.86 402.92 142.57 405.51 141.03 411.28 139.69 412.88 138.32 415.25 136.84 417.67 137.09 422.59 135.64 
M 368.86 157.33 376.84 155.56 379.67 154.4 382.05 153.97 385.01 152.65 388.06 151.71 391.26 151.25 396.15 150.15 401.47 148.67 403.37 146.25 410.44 142.93 413.01 142.17 418.58 142.01 421.19 141.26 
M 365.64 159.46 368.84 159.55 374.38 158.47 377.45 158.19 382.41 156.94 385.22 156.5 390.3 154.66 393.36 154.11 396.25 152.71 398.55 152.9 400.99 152.32 
M 374.62 160.95 382.75 159.66 385.85 159.39 388.32 158.82 391.03 158.6 393.73 157.51 396.11 156.92 398.35 156.83 400.74 156.34 403.23 155.11 407.22 154.43 410.04 153.2 
M 371.62 164 374.78 163.97 377.66 163.53 380.03 162.82 382.77 162.43 385.5 162.45 388.93 161.93 396.94 161.86 399.74 162.23 405.31 160.6 408.02 159.26 411.12 158.55 413.56 157.42 419.32 156.55 428.33 156.7 430.71 155.44 439.47 156.06 441.17 155.04 
M 369.03 166.88 371.76 166.57 377.78 166.78 382.69 166.02 385.53 166.15 388.99 165.74 391.76 165.7 394.61 165.31 397.24 166.14 403.05 166.53 406.88 165.97 409.52 165.23 414.77 164.39 
M 372.22 169.25 379.52 170.22 386.14 169.83 389.58 170.1 392.39 169.94 394.89 169.43 397.7 169.57 400.22 169.89 405.89 169.46 412.81 170.75 415.64 169.84 416.98 170.29 419.24 169.5 
M 369.44 172.17 374.89 172.67 377.34 173.46 382.5 173.67 386.32 173.59 392.59 173.99 395.29 173.54 401.5 173.17 407.03 174.49 409.95 174.77 417.79 176.25 421.34 176.3 424.08 175.89 426.1 175.28 429.34 176.25 432.81 176.32 
M 365.64 174 369.14 174.88 372.23 175.13 377.66 176.3 380.33 176.73 382.99 177.02 385.64 176.58 389.14 176.58 392.31 177.13 394.5 178 397.22 178.7 400.72 178.36 402.63 178.76 405.33 179.86 410.73 180.33 413.93 180.33 417.03 179.88 420.01 179.8 423.02 180.31 429.49 180.55 432.66 181.08 
M 371.58 178.05 377.65 179.18 383.33 180.53 386.45 180.44 389.13 180.55 391.65 180.87 394.46 181.65 398.95 182.55 404.56 183.23 408.14 184.84 410.83 185.4 413.9 185.64 417.13 185.61 
M 374.02 181.32 377.12 182.04 380.11 183.19 383.16 183.92 386.04 183.89 388.94 184.68 392.01 184.96 396.02 186.94 398.85 187.2 401.86 187.93 405.04 188.12 408.23 189.6 420.12 189.74 422.93 190.14 426.14 192.25 428.76 194.32 431.71 194.53 
M 374.47 184.29 377.7 185.28 380.47 186.46 383.25 187.21 385.93 187.44 388.14 188.3 390.62 188.56 393.32 189.68 399.51 191.62 404.31 193.36 408.29 194.09 411.17 195.4 413.83 195.46 416.48 195.05 421.9 196.27 
M 368.8 185.16 371.57 186.23 374.64 187.15 377.26 188.71 380.44 190.1 387.88 191.8 390.38 192.05 393.34 193.11 395.59 194.43 401.39 196.75 405.58 199.63 408.62 200.95 415.36 199.88 418.31 200.11 421.04 201.14 423.67 203.66 426.28 205.56 428.36 206.22 430.33 206.61 432.62 206.8 435.71 207.8 
M 365.64 186.11 368.95 187.86 371.69 188.99 374.23 190.44 377.23 191.77 382.29 194.72 388.32 195.01 394.09 196.75 397.22 199.4 400.2 200.89 402.12 202.14 408.04 205.16 410.39 205.73 
M 374.53 193.43 377.59 195.34 380.95 198.78 387.42 199.99 391.17 200.28 393.69 200.93 397.47 204.07 399.75 205.51 405.01 207.98 407.78 209.08 410.48 209.74 411.91 211.47 414.03 213.2 417.02 213.64 
M 371.5 194.97 376.93 197.75 380.31 201.88 383.5 203.08 386.51 203.1 389.63 203.86 391.49 205.1 393.54 207.29 396.49 208.37 399.89 210.01 405.27 213.59 
M 374.39 198.54 378.76 202.97 381.62 204.56 384.18 205.77 386.63 206.39 388.33 208.08 389.1 209.37 392.23 211.31 
M 355.56 197.69 353.81 198.25 352.25 199.01 350.77 200 347.84 203.17 348.63 202.76 
M 72.95 174.4 74.8 170.84 76.84 167.96 79.99 165.24 84.27 162.71 93.76 158.04 103.81 151.93 109.92 149.11 123.4 143.85 129.88 141.74 141.79 138.2 153 135.7 156.51 139.15 158.21 142.87 160.13 146.56 162.28 150.22 163.99 153.94 165.08 157.72 166.65 165.37 166.45 169.31 166.61 173.2 166.52 177.13 165.4 185.08 165.71 188.96 165.63 196.8 165.12 200.77 163.94 204.82 161.55 208.94 148.56 208.31 139.03 207.24 130.48 205.91 115.43 202.37 108.61 200.54 102.59 198.5 96.52 196.18 
M 93.39 194.79 87.11 191.74 83.17 189.26 80.07 186.65 77.03 183.48 
M 141.55 159.75 141.93 163.03 140.33 169.33 136.8 177.3 137.05 181.9 138.49 186.53 139.2 189.37 139.19 192.67 130.6 192.52 118.19 191.96 106.35 190.31 100.61 189.11 95.46 187.43 
M 95.02 195.91 90.61 192.99 78.16 184.21 74.29 181.74 70.88 179.14 69.52 177.46 69.89 175.21 71.81 174 73.85 174.72 76.94 177.78 86.84 186.67 91.53 191.36 96.69 195.99 
M 94.73 197.07 89.9 197.89 79.28 200.51 65.92 202.62 64.13 201.48 63.79 199.24 65.17 197.5 67.39 197.18 78.69 197.11 91.64 195.97 95.68 195.9 
M 104.98 171.9 102.99 169.11 102.01 165.82 102.15 162.39 103.4 159.2 105.61 156.58 108.56 154.82 111.92 154.12 115.32 154.54 118.4 156.05 120.83 158.48 122.33 161.56 122.76 164.96 122.05 168.32 120.3 171.27 117.68 173.48 114.49 174.73 111.06 174.87 107.77 173.89 104.98 171.9 
M 119.13 159.69 120.34 162.15 120.68 164.88 120.11 167.56 118.71 169.92 116.61 171.69 114.06 172.69 111.32 172.8 108.69 172.02 106.45 170.43 
M 108.74 166.81 107.94 165.7 107.55 164.38 107.6 163.01 108.1 161.73 108.99 160.69 110.17 159.98 111.51 159.7 112.87 159.87 114.1 160.47 115.07 161.44 115.68 162.68 115.85 164.04 115.56 165.38 114.86 166.56 113.82 167.45 112.54 167.94 111.17 168 109.85 167.61 108.74 166.81 
M 108.7 166.76 108.8 166.86 
M 108.99 164.65 112.29 167.95 
M 109.77 163.04 114.01 167.28 
M 112.02 162.89 115.17 166.04 
M 111.49 159.96 115.8 164.27 
M 73.65 172.94 78.31 177.59 
M 75.66 169.62 79.07 173.03 
M 78.17 166.81 80.96 169.59 
M 81.21 164.52 85.4 168.7 
M 84.58 162.56 89.63 167.61 
M 88.16 160.82 91.35 164 
M 91.72 159.05 94.44 161.77 
M 95.16 157.17 99.19 161.2 
M 98.44 155.12 103.15 159.83 
M 101.78 153.14 105.44 156.79 
M 105.24 151.27 108.75 154.78 
M 108.88 149.59 113.63 154.33 
M 112.65 148.03 115.77 151.15 
M 116.46 146.51 119.96 150.01 
M 120.31 145.04 124.59 149.32 
M 124.19 143.59 129.37 148.78 
M 128.21 142.29 132.96 147.04 
M 132.27 141.02 135.95 144.7 
M 136.36 139.78 139.31 142.73 
M 140.48 138.59 143.15 141.26 
M 144.75 137.52 148.12 140.9 
M 149.11 136.56 152.64 140.09 
M 109.64 200.82 109.68 200.81 
M 77.14 169.65 78 170.38 79.01 171.97 80.62 173.64 81.3 173.96 81.78 173.93 82.57 173.48 
M 86.22 184.4 85.77 183.7 85.42 182.71 85.37 182.12 85.54 181.63 85.95 181.24 87.01 180.66 88.53 180.12 
M 141.21 158.18 141.61 158.57 142.41 160.07 142.43 160.49 142.2 160.91 
M 148.65 163.77 146.23 164.57 144.12 165.89 143.09 167.25 143.17 168.41 
M 80.63 187.13 80.85 186.1 
M 82.99 183.21 83.54 182.96 
M 110.3 148.96 112.56 150.12 113.01 150.44 113.75 151.36 
M 118.55 198.87 119.2 197.67 120.69 195.97 121.92 194.12 123.27 189.59 
M 91.72 174.21 92.01 173.7 92.55 173.45 93.13 173.58 93.39 173.85 94.25 176 94.72 177.91 
M 104.83 155.18 103.64 155.21 102.75 155.65 100.95 158.5 
M 158.58 184.3 156.48 184.02 154.63 183.55 151 183.35 149.28 182.9 146.9 182.64 
M 89.34 188.88 87.59 187.27 84.93 184.26 84.24 183 84.72 181.98 
M 151.16 182.78 150.46 182.86 145.2 182.59 143.92 182.35 143.44 182.46 
M 92.47 173.89 92.89 173.9 93.27 174.31 94.44 178.5 
M 141.97 140.59 141.5 140.74 141.13 141.12 140.19 143.01 138.97 144.92 137.98 146.17 137.39 146.53 
M 141.78 152.81 143.01 153.83 143.34 154.32 143.72 155.2 144.08 157.11 
M 112.69 188.28 112.5 190.76 112.28 191.57 111.94 192.14 110.98 192.93 110.33 193.22 110.02 193.04 
M 144.33 146.05 143.24 147.36 143.05 148.29 143.46 148.83 144.47 149.33 
M 135.89 206.18 137.05 206.93 
M 116.3 146.58 116.41 147.13 116.26 148.33 
M 154.97 149.42 154.29 148.67 152.85 146.17 152.31 145.69 151.1 145.22 150.06 145.25 147.79 146.67 
M 142.53 194.78 142.23 194.28 142.24 193.32 142.62 192.77 143.58 192.27 
M 147.24 151.15 145.99 150.66 145.38 150.75 144.44 151.97 144.08 152.91 143.89 153.99 
M 94.7 189.31 95.17 189 
M 100.62 188.45 101.86 187.86 102.67 186.73 103.29 184.98 102.92 183.12 
M 163.43 169.78 163.09 168.87 162.75 165.97 162.8 163.76 
M 145.79 143.61 144.97 145.77 143.61 147.61 143.62 148.22 144.11 148.73 
M 147.77 180.06 145.71 181.54 143.09 182.34 
M 153.92 142.62 151.96 142.21 151.77 141.98 151.63 141.17 
M 113.51 147.69 116.17 151.17 
M 102.89 160.51 100.63 160.5 99.69 160.97 
M 151.27 183.85 149.22 182.99 143.81 182.37 
M 157.38 176.05 155.51 176.24 152.29 176.07 151.58 176.2 148.79 177.62 
M 119.63 171.83 120.24 172.51 120.78 173.51 120.79 174.49 
M 136.59 146.6 135.71 147.05 133.23 147.64 132.42 148.11 131.25 150.18 130.64 150.91 129.82 151.52 
M 97.96 197.35 97.07 198.17 96.41 199.05 95.9 200.06 95.36 202.3 95.57 204.63 98.23 212.07 99.92 218.53 100.8 220.99 103.04 225.79 105.57 230.47 106.29 231.58 108.05 233.58 106.22 231.64 104.68 229.45 101.9 224.9 99.99 221.36 98.91 218.87 96.81 212.58 93.6 205.16 93.26 203.72 93.15 202.22 93.29 200.71 93.65 199.25 94.24 197.83 95.09 196.52 96.08 195.46 
M 96.61 196.08 97.71 196.96 
M 91.87 193.79 91.85 194.94 92.19 194.43 92.56 194.23 
M 87.39 190.68 86.74 191.95 86.68 193.47 87.16 192.28 88.32 191.33 
M 83.04 187.57 81.71 189.81 81.51 192 82.12 190.14 84.08 188.3 
M 78.66 184.57 76.67 187.66 76.33 190.53 77.09 188 79.72 185.34 
M 74.22 181.69 71.64 185.52 71.16 189.06 72.05 185.85 75.34 182.4 
M 70.16 178.25 66.6 183.38 65.99 187.59 67.01 183.71 71.09 179.3 
M 96.42 196.47 97.9 196.31 
M 91.41 195.99 91.56 195.51 92.07 194.84 92.09 195.45 92.37 195.96 
M 86.17 196.46 86.36 194.59 87.12 193.27 86.89 194.53 87.48 196.35 
M 81.06 196.9 81.16 193.66 82.17 191.71 81.69 193.6 82.48 196.77 
M 75.97 197.18 75.96 192.74 77.21 190.14 76.48 192.68 77.45 197.16 
M 70.89 197.1 70.75 191.81 72.26 188.58 71.28 191.76 72.32 197.1 
M 65.81 197.41 65.55 190.89 67.31 187.01 66.08 190.83 67.23 197.21 
M 73.7 201.32 77.55 202.18 82.89 203.1 88.21 203.71 93.34 204.05 
M 95.47 204.05 98.97 204.01 104.4 203.63 115.43 202.37 
M 90.06 202.9 89.63 200.95 
M 86.39 203.5 86.21 201.92 85.81 200.75 
M 104.06 203.18 104.66 201.78 
M 112.15 202.19 112.11 202.78 
M 155.36 134.84 161.03 140.51 
M 160.64 133.02 169.86 142.24 
M 165.9 131.18 172.7 137.98 
M 171.19 129.37 178.47 136.65 
M 176.59 127.67 185.92 136.99 
M 182.06 126.04 191.24 135.22 
M 187.59 124.47 196.23 133.1 
M 193.24 123.01 199.95 129.72 
M 198.85 121.53 208.14 130.81 
M 204.46 120.03 210.82 126.4 
M 210.31 118.79 216.58 125.05 
M 216.34 117.72 226.92 128.3 
M 222.53 116.8 229.64 123.92 
M 228.88 116.05 237.4 124.57 
M 235.74 115.82 242.54 122.62 
M 242.74 115.71 250.71 123.69 
M 249.74 115.61 260.3 126.17 
M 256.9 115.67 266.02 124.78 
M 264.96 116.63 273.38 125.05 
M 273.98 118.55 284.38 128.95 
M 283.58 121.05 289.61 127.08 
M 293.43 123.8 301.06 131.43 
M 303.15 126.41 308.87 132.14 
M 313.21 129.38 323.52 139.69 
M 324.14 133.2 332.02 141.08 
M 335.15 137.12 341.74 143.71 
M 345.89 140.75 353.57 148.43 
M 356.59 144.35 364.12 151.88 
M 367.2 147.86 371.54 152.21 
"/></svg>