<svg xmlns="http://www.w3.org/2000/svg" width="520" height="320"><rect x="0" y="0" width="520" height="320" fill="floralwhite"/><rect x="10" y="10" width="500" height="300" stroke="black" stroke-width="1" fill="none"/><path stroke="black" stroke-width="1" fill="none" stroke-linecap="round" stroke-linejoin="round" d="
M 122.58 111.18 142.86 99.27 153.51 93.52 164.39 88.19 186.5 78.31 197.92 74.28 209.67 71.32 221.64 69.48 245.85 68.76 257.9 69.99 269.48 73.53 280.67 78.15 302.6 88.45 313.64 93.42 324.38 99.02 345.09 111.57 355.54 117.7 388.74 136.45 
M 388.74 180.34 369.56 193.61 359.51 200.37 349.25 206.8 338.8 212.93 328.09 218.58 317.16 223.79 306.16 228.86 294.82 233.11 283.24 236.65 271.55 239.81 259.56 241.51 247.47 242.34 235.37 242.01 223.26 242.19 211.2 241.05 199.51 237.88 188.08 233.88 176.81 229.46 165.38 225.44 154.18 220.83 143.47 215.19 133.25 208.95 
M 149.7 143.7 154.14 143.94 
M 158.13 143.71 159.97 143.44 161.56 142.92 
M 171.57 140.31 175.25 139.81 
M 183.23 139.44 187.44 139.54 
M 191.93 139.97 203.88 141.72 205.94 141.73 
M 209.9 141.6 213.59 141.17 
M 217.07 140.52 220.48 139.79 
M 224.05 139.25 227.71 138.84 
M 237.55 136.45 239.18 136.05 242.91 135.71 244.9 135.82 
M 248.84 136.01 252.57 136.02 
M 256.01 135.87 261.01 135.75 264.7 136.06 270.72 137.07 
M 274.65 137.67 276.54 137.91 283.48 138.25 296.83 139.73 
M 301.06 140.48 303.34 141.02 313.49 144.03 317.9 144.85 326.3 146.11 340.7 149.13 345.05 149.55 347.11 149.57 
M 355.34 149.59 357.43 149.62 361.42 149.37 369.09 148.58 380.89 147.85 388.74 146.53 
M 132.83 109.41 131.24 113.09 
M 140.11 105.57 138.31 111.48 136.98 115.32 136.18 117.12 
M 141.65 194.98 142.98 198.91 
M 146.63 210.25 147.99 214.13 
M 149.44 218.08 149.56 218.4 
M 144.22 119 143.66 120.98 142.9 122.79 
M 141.32 126.35 139.8 129.98 
M 138.55 133.91 137.47 138.01 
M 136.54 141.47 136.49 141.63 
M 153.23 195.59 154.71 201.2 156.31 208.24 156.92 210.2 
M 166.28 90.03 165.53 91.8 163.66 94.94 162.5 96.29 
M 160.22 98.99 159.09 100.35 158.2 101.94 
M 156.72 105.43 156.14 107.33 155.89 109.58 
M 155 123.74 154.85 126.12 154.17 130.49 153.56 132.42 
M 164.18 192.14 164.99 195.84 
M 166.69 203.28 167.73 207.16 
M 168.85 211.09 171.67 220.72 174.14 227.04 
M 178.27 82.05 177.78 83.2 177.43 85.35 
M 175.06 97.92 174.41 99.75 172.75 103.02 168.34 110.87 
M 166.72 114.18 165.97 115.9 165.5 117.9 
M 164.93 122.3 164.73 129.57 164.07 133.91 161.93 142.84 
M 175.07 191.23 175.79 194.95 
M 176.51 198.66 177.34 202.45 
M 180.12 214 181.27 217.95 
M 182.72 222.12 184.52 226.54 
M 186.49 231.05 187.65 233.72 
M 188.38 90.96 187.81 92.87 187.42 94.95 
M 185.92 103.29 185.02 107.28 
M 183.85 110.98 183.18 112.75 182.28 114.29 
M 178.45 120.26 175.43 124.63 173.92 128.07 173.14 132.24 172.44 138.45 
M 185.6 186.53 186.68 190.71 
M 187.51 194.63 188.34 198.52 
M 189.24 202.46 190.11 206.37 
M 192 214.24 193.34 218.48 
M 194.93 222.86 197.59 230.81 
M 198.49 234.2 199.18 237.3 
M 192.35 119.45 191.76 121.31 190.09 124.55 189.07 125.98 
M 187.13 128.97 186.22 130.52 185.02 134.27 184.65 136.82 
M 189.54 155.79 190.36 158.26 
M 197.17 185.67 200.69 198.57 
M 203.51 210.64 205.52 218.65 
M 207.37 226.12 209.95 236.35 
M 212.35 91.26 210.15 98.94 
M 208.86 102.57 206.87 107.91 204.54 115.33 203.5 119.18 202.54 125.59 
M 200.72 133.62 198.35 140.91 
M 208.2 175.91 208.57 178.23 
M 209.46 185.44 209.8 187.36 214.47 206.08 
M 215.61 210.29 216.55 214.29 
M 217.36 218.09 220.13 231.83 
M 220.79 235 221.49 238.14 
M 226.45 87.71 225.11 91.36 
M 220.5 101.59 218.48 106.93 216.27 114.5 214.45 122.52 214.16 124.69 
M 212.93 133.37 211.47 141.48 
M 220.62 180.87 221.7 186.7 223.28 193.01 
M 224.31 197.17 225.4 201.39 
M 228.84 214.1 229.68 217.95 
M 230.38 221.58 230.85 224.87 
M 231 227.75 230.94 231.64 231.42 234.65 232.63 238.33 234.14 242.03 
M 237.43 85.93 236.7 92.67 235.68 96.62 234.32 100.2 233.49 101.83 
M 231.89 105.16 231.12 106.84 229.51 112.59 
M 228.52 116.52 228.01 118.47 225.49 125.86 223.3 133.63 222.18 139.46 
M 229.8 174.31 230.67 178.38 
M 232.73 186.83 234.95 196.96 236.81 203.52 
M 237.99 207.81 238.51 209.88 239.54 215.48 
M 240.3 219.2 241.34 224.52 242.19 230.8 242.64 232.55 
M 245.57 240.6 246.31 242.31 
M 247.85 95.16 247.62 97.42 247.18 99.45 
M 246.06 103.27 242.71 112.25 240.46 117.43 
M 237.35 124.29 234.15 133.63 233.61 135.71 
M 238.06 160.47 238.59 164.24 
M 239.54 171.66 239.99 175.35 
M 240.45 179.03 241.21 182.99 
M 243.89 192.05 246.08 198.98 246.58 201.04 
M 247.4 204.97 248.75 212.46 
M 251.8 224.22 253.08 228.27 
M 254.47 232.37 255.83 236.4 
M 257.13 240.32 257.56 241.65 
M 261.74 80.84 261.54 83.12 260.34 89.39 
M 258.81 97.78 257.83 104.24 256.98 108.34 254.88 116.16 253.36 119.65 250.22 124.05 
M 248.18 127.07 247.21 128.63 243.47 135.7 
M 248.08 161.37 249.77 169.59 
M 250.72 177.04 250.98 178.93 252.11 183.28 253.05 185.82 
M 258.6 203.99 260.66 213.69 262.23 219.66 
M 263.43 223.73 267.04 234.31 268.67 240.22 
M 272.06 89.24 270.01 99.57 268.05 107.51 266.32 113.23 
M 263.14 120.1 261.34 123.36 
M 259.62 126.73 257.17 131.95 255.1 135.88 
M 260.11 162.09 261.08 166.34 
M 263.45 181.74 265.37 188.47 269.76 202.28 270.85 206.45 274.34 221.81 275.42 225.74 279.21 237.74 
M 282.41 88.59 281.54 92.65 
M 280.79 96.83 278.96 104.88 
M 277.86 108.73 277.25 110.59 272.57 121.03 269.83 128.5 268.31 132.14 265.85 136.22 
M 272.53 167.4 273.22 171.35 
M 274.48 179.09 275.59 183.42 
M 277.05 188.06 278.6 192.77 
M 281.3 201.67 283.03 207.94 285.85 219.6 287.64 225.68 
M 290.41 234.05 290.54 234.42 
M 289.13 99.09 288.86 101.27 287.92 105.26 285.76 110.57 
M 284.37 114.21 282.64 120.07 281.14 126.26 
M 280.11 130.38 277.85 138 
M 282.3 157.09 284.4 165.73 
M 285.63 170.22 288.17 179.23 
M 289.34 183.59 289.88 185.73 291.97 197.18 294.11 205.37 295.89 213.05 297.1 217.14 301.73 230.52 
M 302.28 91.37 300.82 94.82 
M 298.5 102.32 298.06 104.34 296.77 113.02 295.6 116.89 293.6 122.53 
M 291.47 130.69 289.29 137.81 
M 298.57 172.92 300.82 179.98 302.32 186.21 
M 302.99 190 304.1 198.73 305.67 206.19 306.57 209.96 307.24 212.04 
M 310.48 220.87 312.52 225.93 
M 311.65 100.22 310.01 106.04 308.21 114.31 304.88 126.34 303.01 134.84 302.02 137.61 
M 304.75 155.31 306.45 160.2 
M 311.55 174.76 312.99 180.84 314.1 186.51 
M 315.18 193.53 316.8 202.34 318.36 208.07 
M 319.59 212.03 321.71 218.19 
M 324.03 102.91 322.39 108.78 321.95 110.87 
M 320.25 119.34 319.28 123.5 
M 318.41 127.79 318.03 130 317.46 137.25 
M 316.74 142.12 316.18 144.54 
M 320.89 163.13 322.27 169.07 324.33 180.05 325.28 183.91 327.58 191.91 329.11 198.99 330.07 202.68 332.49 210.93 
M 333.24 112.28 332.94 114.51 332.41 124.17 331.56 133.6 331.05 138.28 329.84 144.73 
M 334.85 165.4 335.96 170.83 336.76 175.87 
M 337.33 179.24 338.45 184.51 340.36 191.82 344.64 204.33 
M 347.15 112.78 346.06 117.28 345.43 121.68 344.81 131.19 344.79 141.4 344.44 146.2 343.98 149.5 
M 348.1 163.38 350.41 172.53 352.03 180.84 
M 353.3 187.37 353.66 189.04 356.05 196.68 
M 358.01 130.94 357.78 143.27 357.24 146.45 
M 361.31 163.6 362.08 165.69 363.1 169.34 364.66 177.41 
M 365.34 180.68 367.03 187.42 
M 144.24 107.66 141.97 105.51 140.72 103.45 140.27 102.28 139.48 101.27 
M 322.3 179.06 320.91 178.7 316.06 178.82 314.57 179.53 313.04 180.86 
M 210.43 228.68 213.91 227.69 216.41 226.29 
M 150.21 96.43 150.93 95.31 152.54 94.64 153.22 93.68 
M 133.62 120.03 127.49 118.4 
M 234.38 134.52 233.88 135.16 233.54 136.01 232.22 137.26 231.34 137.88 
M 180.28 225.47 177.25 224.19 176.08 222.83 175.88 221.13 
M 369.01 148.92 370.42 147.15 371.26 145.41 371.88 144.84 375.04 143.3 375.52 142.77 376.36 141.29 376.6 140.36 376.65 139.32 
M 293.34 174.57 292.12 175.47 291.23 175.82 285.32 176.53 284.74 176.44 283.87 175.87 
M 338.32 121.9 338.1 120.62 338.23 120.11 340.77 117.64 
M 317.91 204.04 315.84 204.93 314.93 205.47 314.28 206.21 313.9 206.91 313.36 208.95 313.51 210.48 
M 358.25 169.8 361.26 170.81 362.75 170.88 363.51 171.19 
M 154.63 209.16 152.3 206.84 150.5 203.66 150.2 202.36 150.49 200.76 
M 255.72 70.95 255.66 71.08 255.56 71 
M 178.69 201.36 176.84 201.17 176.14 201.27 175.49 201.57 175.01 202.06 173.73 203.91 173.17 204.42 171.36 205.17 168.79 205.36 167.51 205.61 
M 387.45 177.24 383.79 175.48 382.41 174.29 381.66 172.87 381.4 171.26 380.56 169.99 379.38 168.74 
M 274.93 126.86 275.89 127.77 281.1 131.13 281.88 132 282.18 132.84 
M 321.5 176.73 319.75 176.61 315.97 177.24 314.69 177.7 314.06 178.08 312.87 179.36 312 181.18 
M 196.51 158.25 199.26 158 200.73 157.62 204.47 157.79 
M 231.49 115.57 231.99 114.2 232.39 112.28 233.16 110.21 
M 176.64 209.4 174.82 207.7 173.41 207.31 167.79 208.03 166.45 208.52 165.46 209.19 
M 190.72 121.83 189.59 123.13 189.38 123.74 189.41 124.38 189.72 125.2 191.01 127.31 193.9 129.91 194.21 130.42 
M 348.28 162.38 345.79 162.08 344.21 161.48 343.42 160.76 
M 343.51 145.98 341.94 144.16 341.34 141.77 340.84 140.62 339.84 139.56 338.16 138.8 
M 195.62 230.69 195.91 229.61 195.84 228.93 194.66 225.79 194.08 225.18 
M 246.46 93 244.56 93.22 242.54 94.79 
M 252.22 180.2 252.85 179.76 253.57 178.75 254.41 176.92 255.73 175 256.79 172.5 
M 207.19 95.63 206.54 93.54 206.45 92.62 206.81 92.01 208.13 91.87 
M 194.76 183.95 194.56 183.94 
M 288.89 125.87 286.7 125.41 284.28 124.54 283.69 124.58 283.32 125.07 
M 364.31 166.33 363.83 166.73 363.42 167.94 
M 339.24 136.04 336.01 134.87 335.01 134.76 332.34 135.06 328.72 136.47 326.94 136.73 
M 252.53 216.3 251.78 216.55 249.84 216.61 246.41 217.08 245.15 217 
M 163.3 88.28 165.03 87.88 
M 176.8 82.3 173.32 59.75 174.28 59.55 180.16 81.18 
M 190.41 76.51 187.56 47.05 188.53 46.91 193.85 75.65 
M 204.55 72.1 205.11 41 206.1 40.98 208.07 71.64 
M 219.1 69.32 224.48 33.15 225.46 33.27 222.64 69.44 
M 233.88 68.74 241.65 35.58 242.62 35.77 237.42 69.05 
M 248.7 68.13 259.85 38.93 260.79 39.24 252.13 69 
M 263.25 71.03 281.94 41.53 282.79 42.03 266.48 72.5 
M 277.13 76.19 298.67 49.54 299.46 50.13 280.22 77.96 
M 290.56 82.37 308.22 62.59 308.98 63.21 293.57 84.25 
M 303.97 88.55 318.45 73.05 319.21 73.67 306.98 90.42 
M 317.36 94.83 328.31 84.77 329.03 85.44 320.26 96.85 
M 333.47 104 334.73 105.26 
M 165.72 87.57 168.62 82.4 169.93 79.67 171.05 76.88 171.94 74.02 172.61 71.09 173.09 68.1 173.67 62 
M 174.88 61.75 178.61 60.07 180.35 59.09 181.94 57.96 183.38 56.65 184.67 55.17 185.81 53.54 187.84 49.99 
M 189.07 49.82 193.05 49.74 194.97 49.52 196.83 49.11 198.6 48.47 200.3 47.62 201.93 46.57 205.06 44.11 
M 206.29 44.08 210.7 43.63 212.83 43.22 214.88 42.62 216.84 41.81 218.71 40.78 220.51 39.56 223.94 36.77 
M 225.18 36.91 228.51 38.61 230.19 39.26 231.91 39.72 233.65 39.94 235.43 39.92 237.23 39.71 240.87 38.89 
M 242.09 39.13 245.59 40.98 247.37 41.72 249.18 42.25 251.03 42.55 252.92 42.63 254.84 42.49 258.74 41.85 
M 259.91 42.24 264.25 44 266.45 44.68 268.66 45.17 270.9 45.41 273.16 45.43 275.45 45.24 280.07 44.48 
M 281.14 45.11 284.03 47.84 285.55 49.02 287.16 50.02 288.87 50.81 290.68 51.39 292.57 51.78 296.52 52.21 
M 297.51 52.95 298.49 56.3 299.14 57.86 299.95 59.3 300.94 60.59 302.12 61.74 303.46 62.76 306.45 64.57 
M 307.41 65.35 308.67 68.31 309.43 69.66 310.33 70.85 311.4 71.88 312.62 72.74 314 73.45 317 74.6 
M 317.96 75.39 319.07 78.54 319.77 79.98 320.62 81.29 321.65 82.45 322.86 83.45 324.21 84.31 327.21 85.78 
M 328.13 86.62 328.3 91.07 328.57 93.23 329.03 95.33 329.71 97.35 330.62 99.3 331.72 101.18 334.29 104.82 
M 176.77 60.94 180.35 59.09 181.94 57.96 183.38 56.65 184.67 55.17 186.85 51.8 
M 179.77 67.29 182.1 66.09 183.14 65.36 184.91 63.55 186.33 61.35 
M 191.07 49.82 194.97 49.52 196.83 49.11 198.6 48.47 200.3 47.62 203.51 45.38 
M 192.98 55.5 195.97 55.27 198.75 54.47 200.05 53.81 202.51 52.09 
M 194.89 61.18 197.95 60.8 199.81 60 201.52 58.81 
M 208.51 43.89 212.83 43.22 214.88 42.62 216.84 41.81 218.71 40.78 222.24 38.21 
M 209.7 50.17 213.01 49.65 214.58 49.2 217.52 47.78 220.22 45.81 
M 210.88 56.44 214.28 55.77 216.32 54.79 218.2 53.41 
M 226.84 37.8 230.19 39.26 231.91 39.72 233.65 39.94 235.43 39.92 239.04 39.34 
M 227.16 45.15 229.74 46.27 231.05 46.62 233.75 46.78 236.52 46.33 
M 227.49 52.5 230.2 53.52 232.07 53.63 234 53.32 
M 243.83 40.1 247.37 41.72 249.18 42.25 251.03 42.55 252.92 42.63 256.78 42.21 
M 243.64 46.81 246.35 48.06 247.74 48.47 250.6 48.75 253.57 48.43 
M 243.44 53.53 246.29 54.68 248.29 54.88 250.35 54.66 
M 262.08 43.16 266.45 44.68 268.66 45.17 270.9 45.41 273.16 45.43 277.76 44.9 
M 261.03 49.49 264.38 50.66 266.07 51.03 269.53 51.24 273.05 50.83 
M 259.98 55.83 263.49 56.9 265.89 57.04 268.34 56.76 
M 282.57 46.51 285.55 49.02 287.16 50.02 288.87 50.81 290.68 51.39 294.53 52.03 
M 280.03 53.06 282.31 54.99 283.55 55.75 286.24 56.8 289.19 57.29 
M 277.48 59.61 279.93 61.49 281.81 62.21 283.86 62.56 
M 297.97 54.65 299.14 57.86 299.95 59.3 300.94 60.59 302.12 61.74 304.92 63.69 
M 293.51 63.65 294.27 65.74 294.8 66.67 296.21 68.26 298.04 69.53 
M 308.01 66.86 309.43 69.66 310.33 70.85 311.4 71.88 312.62 72.74 315.47 74.05 
M 304.73 73.76 305.65 75.58 306.24 76.36 307.73 77.59 309.58 78.44 
M 318.49 76.99 319.77 79.98 320.62 81.29 321.65 82.45 322.86 83.45 325.68 85.07 
M 138.07 156.61 252.7 156.96 252.71 157.94 138.23 160.05 
M 138.26 160.76 240.05 165.37 240.02 166.35 138.27 164.19 
M 138.26 164.91 227.26 172.74 227.18 173.72 138.09 168.31 
M 138.01 169.03 214.38 179.07 214.27 180.05 137.67 172.41 
M 137.59 173.09 201.49 184.36 201.34 185.33 137.22 176.46 
M 137.15 177.12 188.64 188.61 188.45 189.58 137.39 180.59 
M 137.45 181.32 175.9 191.84 175.67 192.8 137.51 184.71 
M 137.5 185.49 163.34 194.04 163.07 194.99 137.5 188.79 
M 137.51 189.72 151.01 195.24 150.7 196.18 137.57 192.81 
M 137.39 194.69 138.97 195.7 138.62 196.62 137.23 196.41 
M 240.76 158.16 237.59 158.57 236.1 158.93 234.71 159.48 233.45 160.23 232.3 161.18 231.26 162.3 229.37 164.88 
M 229.33 166.12 226.21 166.28 224.74 166.53 223.36 166.97 222.09 167.61 220.92 168.46 219.84 169.5 217.86 171.91 
M 217.77 173.15 214.73 173.06 211.91 173.52 210.63 174.06 209.45 174.82 208.34 175.76 206.28 178 
M 206.14 179.24 203.19 178.91 200.42 179.15 199.15 179.58 197.95 180.24 196.82 181.09 194.69 183.16 
M 194.49 184.39 191.65 183.83 188.95 183.84 187.69 184.18 186.48 184.74 185.33 185.5 183.13 187.38 
M 182.89 188.6 180.17 187.82 177.55 187.62 176.31 187.85 175.1 188.31 173.94 188.98 171.68 190.68 
M 171.38 191.89 168.8 190.89 166.28 190.48 165.06 190.61 163.86 190.97 162.69 191.54 160.37 193.06 
M 160.03 194.25 157.61 193.05 156.4 192.64 155.2 192.44 154.01 192.47 151.64 193.21 149.28 194.54 
M 148.89 195.71 146.61 194.37 145.47 193.89 144.32 193.62 143.16 193.58 140.81 194.18 138.45 195.37 
M 239.15 158.33 236.1 158.93 234.71 159.48 233.45 160.23 232.3 161.18 230.29 163.56 
M 214.43 158.8 212.09 159.26 211.03 159.68 209.18 160.98 207.64 162.81 
M 189.71 159.27 187.34 159.88 186.06 160.78 184.99 162.05 
M 227.75 166.17 224.74 166.53 223.36 166.97 222.09 167.61 220.92 168.46 218.83 170.67 
M 194.66 165.5 192.7 165.74 191.81 166.02 190.22 167 188.86 168.43 
M 216.23 173.07 213.28 173.2 211.91 173.52 210.63 174.06 209.45 174.82 207.3 176.85 
M 187.17 171.37 185.25 171.45 184.36 171.66 182.76 172.5 181.36 173.82 
M 204.65 179.04 201.77 178.93 200.42 179.15 199.15 179.58 197.95 180.24 195.74 182.09 
M 179.64 176.63 177.77 176.56 176.07 176.98 175.29 177.41 173.85 178.61 
M 193.06 184.07 190.27 183.74 188.95 183.84 187.69 184.18 186.48 184.74 184.22 186.4 
M 181.52 188.17 178.84 187.62 177.55 187.62 176.31 187.85 175.1 188.31 172.8 189.79 
M 207.45 240.34 212.98 246.27 215.41 252.24 220.98 271.08 219.71 273.77 217.79 276.03 210.37 275.21 207.71 276.57 205.13 276.83 201.95 275.96 199.21 275.43 194.37 272.09 192.2 271.88 189.07 272.85 187.08 271.24 184.46 265.36 183.91 263.18 182.02 261.25 172.29 254.18 167.16 249.83 159.02 235.09 157.49 228.8 154.42 220.96 
M 202.75 238.88 205.8 243.12 207.6 246.38 209.91 249.61 210.94 253.34 211.93 256.25 
M 198.05 237.42 200.15 241.36 201.81 244.97 203.94 248.84 205.56 251.42 206.96 254.1 
M 193.4 235.81 195.87 239.55 196.88 242.97 198.18 246.65 199.78 250.45 203.04 256.6 203.66 259.52 205.13 262.46 207.15 264.2 209.58 267.84 210.89 271.85 212.33 273.93 
M 188.77 234.13 191.67 237.85 192.69 240.87 193.15 244.18 194.06 247.79 195.56 251.41 197.87 254.52 198.55 257.2 
M 184.17 232.39 187.54 239.69 188.09 242.59 189.21 245.32 189.25 249.17 192.3 253.88 193.68 257.94 194.58 261.58 195.18 265.24 198.74 273.14 
M 179.6 230.57 181.28 235.17 182.01 238.64 183.25 241.81 184.97 244.43 186.01 247.35 187.33 250.45 187.53 253.55 189.32 256.46 190.5 259.09 
M 175.01 228.78 176.68 232.89 178.39 239.8 179.63 243.46 183.33 248.62 183.71 251.07 184.61 254.08 187.09 259.56 187.18 263.94 188.3 268.46 188.73 272.25 
M 170.36 227.16 174.21 237.76 174.82 241.51 177.24 247.58 178.81 250.32 
M 165.71 225.55 167.23 230.16 168.21 233.75 169.29 236.63 172.44 246.72 
M 161.15 223.72 163 229.09 165.99 236.23 167.09 239.56 167.49 242.62 
M 355.94 202.74 369.36 215.4 366.2 216.7 364.15 218.8 359.24 222.15 356.96 223.99 354.11 225.32 353.91 228.12 350.94 229.33 349.07 231.62 347.62 234.19 346.7 237.11 346.33 240.38 346.51 244.04 347.18 247.34 347.22 250.07 345.85 252.02 345.31 258.05 345.24 261.16 344.87 264.03 345.93 271.03 343.79 268.16 340.72 266.19 338.2 263.85 335.87 260.06 330.68 255.19 328.18 253.17 324.72 251.45 322.17 247.88 320.5 246.34 316.48 243.45 314.46 240.73 312.2 238.56 306.15 233.51 302.91 230.36 
M 351.73 205.29 355.83 209.38 359.61 212 363.69 214.39 
M 347.52 207.84 352.22 210.87 355.87 213.98 
M 343.29 210.35 347.47 213.44 350.44 215.93 354.38 217.82 
M 339.02 212.8 345.91 218.42 
M 334.76 215.26 338.58 219.19 341.64 221.62 343.48 223.58 346.45 225.43 351.08 227.14 
M 330.35 217.45 337.18 223.93 339.36 227.13 341.84 229.42 345.03 231.68 
M 325.95 219.65 329.1 223.34 332.42 225.79 336.84 230.97 339.99 233.81 
M 321.51 221.77 325.02 225.26 329.99 229.43 332.47 232.67 335.23 235.18 338.43 236.43 
M 317.04 223.84 323.67 230.04 325.78 232.74 328.47 234.69 331.2 236.38 333.41 239.46 339.09 242.27 
M 312.58 225.91 316.47 229.25 319.2 232.01 321.85 235.04 323.59 237.52 326.01 239.82 328.78 240.96 331 243.54 333.18 244.6 
M 308.11 227.97 315.12 233.78 318.5 238.98 321.46 241.61 324.06 243.19 327.63 246.05 329.72 248.68 336.54 252.99 339.54 255.91 342.66 260.03 345.37 263.26 
M 387.76 135.9 390.86 134.94 401.88 129.68 404.26 127.88 406.74 126.65 411.72 122.6 414.45 120.86 417.4 119.63 422.29 116.7 424.67 115.01 427.66 113.9 432.63 110.82 437.24 108.37 439.39 106.73 443.86 102.82 446.36 99.63 452.13 96.97 454.96 96.15 456.03 93.98 457.55 91.87 461.15 90.54 464.09 90.18 471.98 88.55 473.64 86.97 477.26 84.87 479.4 82.28 482.41 79.93 485.14 78.64 486.34 76.53 487.77 75.79 489.56 73.01 466.51 97.3 465.93 100.73 464.33 103.14 463.13 105.94 462.23 109.06 460.54 111.46 458.67 113.68 455.83 118.99 454.18 121.38 453.26 124.51 455.05 130.63 454.48 133.14 452.93 135.25 451.67 137.65 450.16 143.57 450.02 147.11 448.24 152.2 448.01 155.68 446.82 158.35 445.24 160.26 444.07 162.43 444.33 165.68 444.35 168.3 444.91 171.25 448.72 179.99 448.3 182.81 447.57 185.32 448.08 188.38 448.3 191.02 449.52 194.37 454.03 201.05 456.01 205.65 457.42 208.38 460.69 216.98 462.06 219.31 464.25 222.46 467.96 228.8 490 250.75 487.61 247.79 485.21 246.62 482.61 245.12 480.43 242.65 477.88 241.02 476.37 241.6 473.74 240.88 471.38 238.1 466.53 235.55 461.98 232.48 459.24 229.68 456.24 227.59 451.59 226.26 450.07 224.74 447.8 223.13 445.17 220.74 441.53 218.96 438.16 217.96 435.97 216.4 434.24 214.36 432.34 212.5 429.21 211.33 421.75 205.34 419.8 203.36 416.95 201.54 414.03 200.1 411.98 198.38 406.35 194.46 401.87 190.32 399.7 188.65 393.82 185.15 390.93 183.31 387.76 181.01 
M 391 137.66 397.06 135.07 400.16 134.01 402.59 132.71 408.17 130.39 413.1 127.12 418.39 123.95 420.96 122.7 423.16 121.18 426.15 119.8 428.2 119.18 431.27 117.59 436.46 115.73 440.2 113.97 442.56 113.36 444.36 110.65 447.01 107.82 451.95 103.66 455.26 102.49 458.09 101.04 463.18 98.87 
M 394.12 139.02 396.87 137.85 400.2 136.9 403.19 135.39 405.79 134.73 408.57 133.44 411.32 131.69 414.05 129.23 416.34 128.12 418.87 127.13 421.41 125.59 424.26 124.87 427.29 124.59 430.02 124.13 431.72 121.87 434.56 120.29 440.38 118.72 
M 394.32 141.7 400.09 139.44 403.02 137.93 406.01 137.55 408.26 137.07 411.65 135.3 417.63 131.79 420.67 130.56 423.15 129.68 426.42 129.33 429.29 128.19 432.39 127.74 435.67 126.91 436.77 125.62 441.79 123.28 444.2 121.26 
M 387.76 144.92 391.49 144.76 397.67 143.44 400.54 142.22 408.6 140.32 411.35 138.79 415.01 137.61 418.36 135.57 424.26 135.06 427.71 133.61 430.99 133.12 436.07 132.88 439.67 132.24 442.36 131.36 446.14 129.06 449.64 127.54 451.95 125.65 
M 398.05 146.12 401.13 145.46 404 145.44 406.69 144.65 409.66 143.68 412.71 142.3 415.68 141.6 421.77 138.78 425 138.02 428.81 137.57 431.53 137.08 
M 394.75 148.97 401.52 148.23 407.38 148.57 410.54 148.09 413.78 147.18 416.86 145.57 420.4 144.82 423.19 143.45 426.46 142.62 
M 398.27 151.68 401.8 151.03 404.7 151.62 407.46 151.94 410.95 151.94 415.21 151.39 421.8 150.16 425.03 149.08 430.84 149.47 
M 387.76 153.95 391.67 154.56 395.39 154.77 398.57 154.84 401.81 154.2 404.79 154.27 407.93 154.88 414.55 154.61 418.33 155 421.66 154.94 425.22 154 
M 399.21 157.68 409.14 157.19 415.58 157.93 418.71 158.73 421.61 159 424.79 158.97 
M 391.7 159.55 399.26 160.47 402.33 160.54 409.59 160.18 415.8 161.72 422.42 162.63 423.89 163.11 
M 398.93 162.61 405.27 164.5 408.79 164.36 411.64 164.85 414.66 166.24 417.35 166.37 420.4 166.91 423.77 167.04 
M 387.76 162.97 391.48 164.14 398.72 165.17 404.62 167.3 407.8 167.65 410.81 168.33 413.57 168.25 416.71 169.94 423.43 171.74 427.94 171.29 431.43 170.76 
M 391.82 166.77 398.26 168.12 404.48 169.97 406.87 170.87 410.39 171.69 413.31 171.83 416.61 174.25 420.01 175.18 423.31 174.8 426.46 175.15 
M 394.95 170.12 398.47 170.82 401.39 171.91 403.89 173.34 406.72 174.23 409.87 175.09 413.32 175.76 416.68 177.41 422.99 178.56 433.51 178.76 
M 391.65 171.47 394.93 172.76 397.89 173.7 403.38 176.44 410.02 178.38 412.6 179.72 417.09 180.74 420.79 181.21 423.49 182.98 426.24 183.34 428.72 183.34 
M 397.32 176.33 400.13 177.7 403.75 179.19 418.73 186.7 424.61 187.43 427.98 187.24 430.7 188.25 
M 387.76 174.25 391.43 176.38 394.21 177.8 396.75 178.78 399.92 180.31 402.66 181.91 409.16 185.25 411.02 186.38 416.62 190.58 419.36 191.59 422.94 191.24 426.26 191.6 430.7 192.4 432.92 195.21 434.91 196.69 437.57 197.64 440.06 199.34 442.45 200.19 447.35 203.82 450.23 205.74 454.55 206.29 
M 391.25 178.75 394.12 180.3 400.03 182.91 405.09 186.29 408.02 187.97 410.18 189.77 412.9 191.5 415.61 193.53 418.79 195.16 424.56 196.99 427.55 199 
M 387.76 178.76 391.15 181.05 400.23 185.69 402.26 187.51 406.85 191.09 412.41 194.97 415.16 196.78 418.05 197.7 420.3 199.13 422.36 201.62 428.36 204.06 430.53 206.59 433.46 208.35 436.33 210.47 439.14 212.13 441.12 214.2 444.3 215.14 447.48 216.83 450.08 218.53 
M 43.26 157.32 43.82 155.77 45.33 153.04 47.43 150 50.15 146.96 53.63 144.13 63.55 138.35 73.57 130.95 79.54 127.45 92.87 121.46 99.35 118.89 111.19 114.68 122.58 111.28 126.54 115.95 128.47 120.95 130.67 125.91 133.12 130.85 135.08 135.85 136.35 140.91 138.21 151.12 138.06 156.34 138.29 161.52 138.25 166.73 137.14 177.26 137.54 182.42 137.57 192.83 137.06 198.09 135.82 203.43 133.25 208.83 120.02 208 110.33 206.49 101.66 204.78 93.56 202.36 86.07 199.56 72.95 193.86 66.95 190.33 61.45 186.64 
M 58.4 184.33 57.13 183.36 53.24 179.66 50.28 175.73 47.42 171.15 
M 112.61 141.86 113.1 146.23 111.59 154.59 110.49 158.37 107.82 165.24 108.22 171.36 109.7 177.64 110.34 181.45 110.2 185.9 101.42 185.82 88.82 185.15 82.63 184.13 76.58 182.56 70.84 180.54 65.47 178.22 
M 59.81 186.13 51.62 175.88 46.59 170.22 43.7 166.28 40.58 162.49 39.62 160.09 40.75 157.89 43.16 157.25 45.2 158.62 49.82 167.13 56.48 177.83 61.45 186.64 
M 60.97 187.43 51.44 187.02 43.87 186.03 34.1 185.22 31.81 184.84 30 183.01 30.15 180.46 32.06 179.03 34.53 179.51 46.62 182.97 56.23 185.38 61.14 186.46 
M 69.93 156.89 68.41 151.13 68.84 145.18 71.18 139.7 75.17 135.27 80.39 132.38 86.26 131.34 92.15 132.27 97.42 135.05 101.5 139.4 103.95 144.83 104.5 150.77 103.09 156.56 99.88 161.58 95.21 165.29 89.6 167.28 83.63 167.34 77.98 165.46 73.24 161.85 69.93 156.89 
M 69.71 156.38 68.98 154.26 68.52 152.06 68.33 149.82 68.43 147.58 68.8 145.37 69.44 143.22 70.34 141.16 71.49 139.24 72.87 137.46 74.45 135.88 76.22 134.5 78.15 133.35 80.21 132.45 82.36 131.81 84.57 131.44 86.81 131.35 89.05 131.53 91.24 131.99 93.37 132.72 
M 71.53 155.63 70.88 153.73 70.47 151.78 70.3 149.78 70.38 147.79 70.71 145.81 71.28 143.9 72.09 142.06 73.11 140.35 74.43 138.68 
M 75.76 137.35 77.33 136.13 79.05 135.1 80.88 134.3 82.8 133.73 84.77 133.4 86.77 133.32 88.76 133.48 90.72 133.89 92.61 134.54 
M 73.35 154.87 72.78 153.21 72.42 151.49 72.27 149.74 72.34 147.99 72.89 145.4 
M 77.18 138.73 78.44 137.75 79.95 136.85 81.56 136.15 83.24 135.65 84.98 135.36 86.73 135.28 88.48 135.43 90.2 135.79 91.86 136.36 
M 75.16 154.12 74.67 152.69 74.24 149.7 74.3 148.19 74.74 146.05 
M 78.56 140.15 80.85 138.6 82.24 137.99 85.18 137.31 88.2 137.38 91.11 138.18 
M 76.98 153.37 76.57 152.17 76.21 149.66 76.26 148.39 76.63 146.61 
M 79.97 141.54 81.75 140.35 82.92 139.84 85.38 139.27 87.91 139.32 90.35 140 
M 79.83 152.43 79.23 150.12 79.4 147.74 79.76 146.9 
M 82.08 143.7 84.02 142.62 86.37 142.21 88.72 142.58 90.83 143.69 92.46 145.43 93.44 147.6 93.66 149.98 93.1 152.29 91.81 154.3 89.95 155.79 87.7 156.58 85.32 156.61 83.05 155.85 81.16 154.41 79.83 152.43 
M 82.21 143.63 82.13 143.77 
M 80.47 147.09 79.27 149.5 
M 84.2 142.59 83.04 144.9 
M 81.78 147.44 79.64 151.71 
M 85.82 142.3 83.98 146 
M 83.26 147.43 80.36 153.22 
M 87.27 142.35 84.91 147.09 
M 84.78 147.34 81.22 154.46 
M 88.64 142.57 82.29 155.27 
M 89.82 143.16 83.42 155.97 
M 90.96 143.83 84.68 156.4 
M 91.93 144.86 86.06 156.6 
M 92.77 146.12 87.54 156.58 
M 93.45 147.71 89.3 156.02 
M 93.53 150.5 91.51 154.54 
M 48.86 173.45 52.87 177.47 
M 43.6 156.38 49.42 162.21 
M 45.67 152.55 49.41 156.28 
M 48.18 149.15 51.32 152.29 
M 51.11 146.18 54.47 149.54 
M 54.47 143.63 58.82 147.98 
M 58.17 141.42 63 146.25 
M 61.93 139.28 65.88 143.23 
M 65.49 136.93 68.82 140.26 
M 68.9 134.44 72.59 138.13 
M 72.28 131.91 75.47 135.11 
M 75.87 129.6 79.27 133 
M 79.6 127.42 83.93 131.76 
M 83.65 125.57 87.35 129.26 
M 87.72 123.73 92.36 128.37 
M 91.82 121.92 95.68 125.78 
M 96.01 120.21 100.82 125.02 
M 100.26 118.55 105.94 124.23 
M 104.57 116.96 109.85 122.23 
M 108.96 115.44 114.2 120.68 
M 113.44 114.02 117.15 117.73 
M 118.02 112.69 122.17 116.84 
M 122.53 111.29 122.94 111.71 
M 52.37 171.19 53.15 169.2 55.45 166.37 56.42 164.73 57.14 164.22 59.82 163.08 
M 123.53 130.46 122.77 131.96 122.7 132.58 123.11 133.39 124.87 134.84 125.02 135.51 124.97 136.41 
M 121.81 159.13 122.9 158.71 124.33 158.74 125.01 158.57 125.54 157.95 125.63 156.76 
M 105.34 183.54 105.6 181.89 105.58 181.03 104.41 178.25 103.71 175.79 102.37 173.81 102.05 172.62 
M 96.89 122.34 96.7 119.94 
M 124.67 199.5 125.36 200.04 126.29 200.15 126.96 200.02 127.51 199.56 128.4 198.21 
M 90.37 175.63 89.79 180.16 89.45 180.83 88.39 181.77 87.62 182.13 87.27 182.01 
M 98.28 120.61 97.79 119.5 
M 109.51 180.62 107.16 179.45 106.35 178.68 104.66 175.77 102.96 173.85 102.46 171.98 
M 62.68 183.85 62.16 182.69 61.2 178.44 59.18 176.42 57.36 174.07 57.31 173.35 57.75 171.93 
M 118.45 184.01 118.29 183.25 118.87 182.36 119.35 182.08 123.17 180.89 124.49 180.92 
M 125.97 117.87 125.27 117.83 124.1 118.56 
M 47.68 154.46 47.56 155.17 47.06 155.75 46.35 155.99 45.46 155.79 
M 121.37 179.59 122.28 180.04 124.48 180.35 124.61 180.71 124.51 181.08 
M 116.63 195.74 117.72 196.42 118.42 197.15 119.27 199.34 120.41 201.11 
M 120.87 163.8 122.27 163.23 123.62 163.37 125.36 164.03 125.54 164.38 125.24 165.11 
M 120.28 142.73 120.87 143.26 122.04 144.8 122.34 145.75 122.15 146.41 
M 96.47 177 95.04 178.18 94.45 179.95 93.71 181.14 93.1 181.58 90.85 182.24 
M 74.62 130.33 75.21 131.72 77.41 134.03 
M 56.95 143.04 56.32 142.53 
M 111.93 151.62 112.92 151.93 113.79 151.91 115 151.42 116.01 150.75 116.94 150.59 
M 120.02 121.88 121.69 122.39 121.96 122.35 
M 124.63 140.07 125.13 142.61 
M 59.15 150.48 57.27 150.33 56.72 150.12 55.99 149.56 55.21 148.77 54.43 147.51 53.92 145.69 
M 119.01 132.3 118.96 133.32 119.85 135.88 121.35 137.51 123.68 139.33 124.3 140.23 124.56 140.9 
M 127.39 179.42 126.24 180 125.02 180.95 124.46 181.13 
M 65.01 166.45 66.46 167.49 67.27 168.7 67.69 169.71 67.77 170.38 67.61 170.79 67.12 171.09 
M 98.55 201.63 96.29 201.6 92.68 202.03 
M 70.22 172.76 69.99 173.7 68.89 175.66 
M 128.54 194.67 129.29 193.7 129.52 191.6 129.35 191.28 128.71 190.76 126.6 189.68 
M 127.63 118.78 125.95 118.31 125.06 118.73 
M 135.13 204.88 128.74 208.55 
M 114.07 197.96 114.28 197.94 115.95 198.73 
M 133.31 185.6 127.86 186 127.21 185.91 123.94 183.81 123.3 182.99 
M 130.79 134.16 126.38 133.73 
M 51.34 165.67 54.76 163.44 57.79 162.54 59.94 161.54 60.41 160.99 60.95 159.39 60.87 157.15 
M 122 206.46 119.32 204.21 117.62 203.27 117.15 202.83 116.45 201.59 116.06 200.43 116.05 199.46 
M 123.93 197.7 124.77 199.25 125.52 199.79 126.87 199.88 127.3 199.64 127.94 198.82 
M 90.23 195.5 89.08 196.46 88.32 196.73 87.68 196.68 87.37 196.52 86.9 195.92 86.42 194.5 86.35 193.76 
M 95.69 174.55 96.56 174.7 97.11 174.2 97.18 173.08 96.9 172.44 96.52 172.07 
M 136.23 170.65 133.07 170.99 130.96 170.65 125.6 170.27 
M 119.97 163.62 121.77 162.64 122.81 162.57 123.73 162.74 125.55 163.72 125.83 164.31 
M 109.26 117.76 107.43 115.97 
M 75.38 191.82 75.3 191.04 75.52 190.39 76.48 189.56 78.14 188.65 79.57 187.21 
M 127.11 144.14 126.49 144.69 125.39 147.13 124.66 148.17 
M 110.97 197.47 109.56 197.4 108.64 196.95 107.12 195.32 106.56 194.21 
M 102.49 157.5 103.47 157.49 104.04 157.13 
M 62.77 139.17 62.4 139.01 
M 130.07 191.01 129.06 190.49 127.09 189.91 126.6 189.56 125.78 188.51 124.67 185.65 123.71 184.53 
M 85.08 175.08 86.68 176.6 87.71 178.28 88.24 179.61 88.32 180.74 88.19 181.18 
M 79.67 166.02 78.75 166.82 77.5 167.52 
M 108.77 142.79 107.45 142.82 106.92 143.03 106.51 143.3 106.03 143.94 106.01 144.45 106.22 144.9 107.69 145.92 
M 127.43 118.25 126.08 117.68 
M 93.5 184.38 93.25 184.73 93.36 185.01 93.87 185.2 94.5 185.08 
M 52.79 171.12 53.91 168.62 55.39 166.84 56.25 165.09 56.87 164.51 60.08 162.97 60.56 162.43 61.4 160.95 
M 49.86 167.19 54.69 163.65 56.58 162.92 
M 137.35 180.05 135.18 178.06 133.4 177.54 131.32 177.49 128.1 178.28 
M 125.81 198.1 127.25 198.38 127.78 198.22 128.19 197.84 
M 73.69 131.75 74.05 132.49 75.17 133.51 76.1 134.76 
M 100.63 123.01 99.47 122.3 98.66 121.54 98.11 120.74 97.63 119.57 
M 82.95 192.71 83.88 191.5 84.92 190.59 85.72 190.12 86.64 189.98 87.67 190.54 
M 137.55 193.13 136.67 192.58 134.9 190.84 133.9 190.27 128.86 189.98 
M 108.23 192.2 108.61 193.25 109.16 193.66 
M 51.74 177.68 52.43 176.9 
M 54.08 173.99 55.19 171.63 55.69 170.94 57.59 169.2 57.83 168.81 58.04 167.8 
M 126.47 130.4 125.13 131.86 125.38 132.84 
M 71.7 179.61 71.48 178.98 70.73 178.34 70.69 177.9 
M 61.12 186.04 62.22 187.61 
M 56.7 182.21 56.63 182.68 56.93 182.5 
M 52.37 176.82 51.97 177.3 51.61 178.56 52.31 177.79 52.95 177.56 
M 48.04 171.83 47.21 172.68 46.59 174.44 47.55 173.16 48.75 172.61 
M 43.96 166.64 42.45 168.05 41.57 170.32 42.79 168.53 44.66 167.58 
M 40.1 161.29 37.7 163.42 36.54 166.19 38.04 163.9 40.59 162.5 
M 61.1 186.71 62.63 186.97 
M 53.98 184.81 54.53 184 55.25 183.48 55.11 184.1 55.38 185.17 
M 46.94 183.05 47.69 181.24 48.85 180.16 48.27 181.35 48.37 183.37 
M 39.98 181.13 40.85 178.49 42.44 176.83 41.44 178.59 41.37 181.49 
M 33 179.21 34.02 175.73 36.04 173.51 34.6 175.84 34.38 179.48 
M 40.89 185.79 48.05 189.26 53 191.25 58.06 192.84 63.21 194.13 68.48 195.18 79.24 196.65 
M 57.68 190.21 56.52 189.9 55.03 189.95 54.52 189.6 54.19 188.99 
M 125.55 109.45 132.26 116.16 
M 130.53 106.55 141.68 117.7 
M 135.49 103.64 145.17 113.32 
M 140.43 100.71 151.17 111.45 
M 145.44 97.84 151.47 103.87 
M 150.57 95.09 157.68 102.21 
M 155.74 92.39 164.59 101.24 
M 161.04 89.82 170.08 98.86 
M 166.38 87.29 177.85 98.75 
M 171.87 84.9 182.17 95.2 
M 177.32 82.48 184.15 89.3 
M 182.73 80.01 194.45 91.73 
M 188.26 77.67 198.34 87.75 
M 194.05 75.58 204.7 86.23 
M 200.06 73.72 209.01 82.67 
M 206.28 72.07 212.3 78.09 
M 212.78 70.69 219.48 77.4 
M 219.53 69.57 226.56 76.6 
M 227.09 69.25 235.8 77.97 
M 234.8 69.09 246.12 80.41 
M 242.48 68.9 253.92 80.33 
M 250.1 68.65 260.78 79.33 
M 259.62 70.29 271.17 81.83 
M 271.44 74.23 278.89 81.69 
M 285.47 80.39 293.26 88.18 
M 300.36 87.41 309.95 96.99 
M 314.9 94.07 323.03 102.21 
M 332.79 104.09 339.18 110.48 
M 352.49 115.91 361.82 125.25 
M 370.76 126.31 378.03 133.58 
M 388.82 136.49 397.89 145.57 
M 137.17 208.85 138.05 210.61 
M 138.73 211.97 138.97 212.44 
M 136.48 200.58 137.17 201.96 
M 142.45 212.53 143.92 215.45 
M 137.33 195.38 139.81 200.36 
M 143.33 207.4 145.1 210.92 
M 145.98 212.68 147.94 216.61 
M 140.29 194.43 143.32 200.47 
M 145.08 204 151.24 216.32 
M 143.32 193.59 144.18 195.31 
M 145.06 197.07 145.94 198.83 
M 147.7 202.35 153.86 214.68 
M 156.51 219.96 157.67 222.29 
M 150.33 200.71 156.49 213.04 
M 158.25 216.56 162.01 224.07 
M 156.47 206.11 158.23 209.64 
M 160.87 214.92 165.28 223.72 
M 164.44 215.15 165.32 216.91 
M 138.08 155.55 139.48 158.36 
M 161.83 203.06 165.36 210.1 
M 137.66 147.82 139.87 152.23 
M 140.75 154 142.92 158.35 
M 163.64 199.77 169.8 212.1 
M 176.84 226.18 178.53 229.56 
M 123.18 111.97 123.2 112.01 
M 139.03 143.66 142.55 150.71 
M 144.31 154.23 146.37 158.34 
M 166.32 198.24 173.36 212.33 
M 177.76 221.13 182.16 229.94 
M 126.73 112.18 132.01 122.74 
M 140.81 140.35 145.22 149.15 
M 169.86 198.45 170.74 200.21 
M 171.63 201.97 176.03 210.78 
M 180.43 219.58 184.83 228.38 
M 130.28 112.38 132.04 115.91 
M 133.8 119.43 137.32 126.47 
M 174.29 200.42 176.05 203.94 
M 184.86 221.55 186.62 225.07 
M 134.7 114.35 140.87 126.68 
M 147.03 139 147.91 140.76 
M 154.95 154.85 156.69 158.32 
M 176.08 197.1 179.6 204.15 
M 192.81 230.56 195.44 235.83 
M 138.25 114.56 143.53 125.12 
M 147.94 133.92 153.22 144.49 
M 155.86 149.77 160.13 158.32 
M 178.75 195.55 183.15 204.35 
M 193.71 225.48 199 236.04 
M 136.07 103.3 136.51 104.18 
M 140.03 111.22 145.31 121.78 
M 146.19 123.55 147.07 125.31 
M 149.71 130.59 150.59 132.35 
M 151.47 134.11 154.11 139.39 
M 154.99 141.15 155.87 142.91 
M 158.52 148.19 163.57 158.31 
M 180.52 192.21 185.81 202.78 
M 196.37 223.9 202.53 236.23 
M 138.72 101.72 140.04 104.36 
M 145.33 114.93 150.61 125.49 
M 154.13 132.53 158.53 141.34 
M 162.93 150.14 163.81 151.9 
M 164.69 153.66 166.45 157.18 
M 185.82 195.92 188.46 201.2 
M 199.91 224.09 201.67 227.61 
M 202.55 229.37 203.43 231.13 
M 206.07 236.41 208.09 240.46 
M 141.38 100.15 142.7 102.79 
M 151.51 120.39 154.15 125.68 
M 157.67 132.72 161.19 139.76 
M 166.47 150.33 170.46 158.3 
M 197.28 211.95 198.16 213.71 
M 208.73 234.84 211.9 241.18 
M 144.04 98.58 144.48 99.46 
M 153.29 117.07 158.57 127.63 
M 170.01 150.52 173.9 158.29 
M 187 184.5 187.62 185.73 
M 188.5 187.5 189.38 189.26 
M 198.18 206.86 202.59 215.67 
M 211.39 233.27 215.7 241.9 
M 155.13 113.85 161.29 126.18 
M 172.73 149.07 176.25 156.11 
M 190.07 183.75 192.98 189.56 
M 197.38 198.37 200.02 203.65 
M 200.9 205.41 205.3 214.21 
M 214.99 233.58 215.87 235.34 
M 217.63 238.86 219.35 242.31 
M 160.48 117.68 162.25 121.2 
M 170.17 137.05 171.05 138.81 
M 171.93 140.57 172.81 142.33 
M 193.75 184.22 196.58 189.87 
M 198.34 193.39 199.22 195.15 
M 200.1 196.91 203.62 203.96 
M 221.23 239.17 222.75 242.2 
M 157.04 103.91 161.44 112.71 
M 172.01 133.84 176.41 142.64 
M 196.01 181.84 199.3 188.42 
M 201.06 191.94 205.46 200.74 
M 214.26 218.35 216.9 223.63 
M 223.95 237.72 226.14 242.1 
M 158.89 100.71 164.17 111.28 
M 170.33 123.6 171.21 125.36 
M 172.09 127.12 173.85 130.64 
M 175.61 134.16 181.78 146.49 
M 199.38 181.7 202.02 186.98 
M 204.67 192.27 207.31 197.55 
M 216.11 215.16 221.39 225.72 
M 225.79 234.52 226.67 236.28 
M 227.55 238.04 229.54 242.02 
M 157.7 91.44 159.02 94.08 
M 162.54 101.12 166.94 109.93 
M 171.34 118.73 177.51 131.06 
M 178.39 132.82 183.67 143.38 
M 218 212.05 224.16 224.37 
M 230.33 236.7 231.21 238.46 
M 232.09 240.22 232.76 241.56 
M 160.47 90.09 162.67 94.49 
M 165.31 99.78 166.19 101.54 
M 167.07 103.3 167.95 105.06 
M 174.99 119.14 180.28 129.71 
M 182.04 133.23 186.44 142.03 
M 223.41 215.98 224.29 217.74 
M 163.24 88.75 165.44 93.15 
M 177.77 117.8 178.65 119.56 
M 179.53 121.32 182.17 126.6 
M 188.33 138.92 190.09 142.45 
M 190.97 144.21 191.85 145.97 
M 195.37 153.01 196.25 154.77 
M 197.13 156.53 197.99 158.24 
M 216.5 195.27 217.38 197.03 
M 218.26 198.79 221.78 205.83 
M 166.03 87.44 167.35 90.08 
M 176.16 107.69 177.04 109.45 
M 188.48 132.34 194.64 144.66 
M 196.4 148.18 201.43 158.24 
M 219.29 193.96 224.57 204.52 
M 231.62 218.61 234.26 223.89 
M 236.9 229.17 242.18 239.74 
M 175.12 98.74 179.53 107.54 
M 183.05 114.58 186.57 121.62 
M 192.73 133.95 197.13 142.75 
M 198.89 146.27 204.18 156.84 
M 217.38 183.25 219.14 186.77 
M 221.78 192.05 227.06 202.62 
M 234.11 216.7 238.51 225.5 
M 239.39 227.27 245.55 239.59 
M 176.79 95.18 182.96 107.51 
M 184.72 111.03 189.12 119.83 
M 195.28 132.16 196.16 133.92 
M 197.04 135.68 199.68 140.96 
M 202.32 146.24 208.31 158.22 
M 215.74 173.07 216.41 174.41 
M 218.17 177.94 222.57 186.74 
M 226.09 193.78 229.61 200.82 
M 236.66 214.91 237.54 216.67 
M 238.42 218.43 239.3 220.19 
M 240.18 221.95 247.22 236.04 
M 249.91 241.41 250.39 242.39 
M 173.83 82.37 176.47 87.65 
M 179.99 94.7 184.4 103.5 
M 185.28 105.26 187.04 108.78 
M 188.8 112.3 193.2 121.11 
M 199.36 133.43 201.12 136.95 
M 209.05 152.8 210.81 156.32 
M 218.73 172.17 219.61 173.93 
M 221.37 177.45 226.65 188.01 
M 240.74 216.18 242.5 219.7 
M 246.9 228.51 248.66 232.03 
M 174.93 77.69 179.34 86.49 
M 183.74 95.29 185.5 98.81 
M 186.38 100.57 188.14 104.1 
M 192.54 112.9 193.42 114.66 
M 201.34 130.51 202.22 132.27 
M 209.27 146.35 214.55 156.92 
M 220.52 168.85 220.71 169.24 
M 224.23 176.28 225.99 179.8 
M 226.87 181.57 228.63 185.09 
M 235.68 199.17 238.32 204.45 
M 253.28 234.39 255.93 239.67 
M 178.28 77.48 179.16 79.24 
M 180.04 81 182.68 86.28 
M 188.84 98.61 189.72 100.37 
M 202.04 125.02 206.45 133.82 
M 211.73 144.38 216.13 153.19 
M 223.09 167.1 223.17 167.27 
M 238.14 197.2 242.54 206.01 
M 253.98 228.9 259.27 239.46 
M 205.62 125.28 209.14 132.33 
M 215.31 144.65 218.83 151.69 
M 232.03 178.1 233.79 181.63 
M 234.67 183.39 235.55 185.15 
M 240.84 195.71 246.12 206.27 
M 257.56 229.16 261.08 236.21 
M 208.44 124.02 211.96 131.07 
M 216.36 139.87 217.24 141.63 
M 229.34 165.83 229.57 166.28 
M 233.97 175.08 239.25 185.65 
M 246.29 199.73 248.05 203.25 
M 256.86 220.86 258.62 224.38 
M 260.38 227.9 262.14 231.43 
M 186.47 73.2 189.99 80.24 
M 201.44 103.13 205.84 111.94 
M 218.16 136.59 221.69 143.63 
M 227.85 155.95 228.96 158.19 
M 231.12 162.49 233.13 166.52 
M 234.89 170.04 241.93 184.12 
M 257.78 215.82 261.3 222.86 
M 183.2 59.77 185.4 64.17 
M 188.04 69.45 193.32 80.02 
M 195.97 85.3 197.73 88.82 
M 203.01 99.39 208.29 109.95 
M 219.73 132.84 224.14 141.64 
M 231.18 155.73 232.41 158.18 
M 233.43 160.24 233.82 161.01 
M 234.7 162.77 235.58 164.53 
M 239.1 171.57 242.62 178.62 
M 247.91 189.18 248.79 190.94 
M 249.67 192.7 250.55 194.46 
M 259.35 212.07 265.51 224.39 
M 185.78 58.04 187.54 61.56 
M 191.06 68.61 195.47 77.41 
M 198.99 84.45 202.51 91.5 
M 206.91 100.3 210.43 107.34 
M 214.83 116.15 215.71 117.91 
M 222.76 131.99 228.04 142.56 
M 235.08 156.64 235.85 158.17 
M 236.21 158.91 236.84 160.16 
M 243.88 174.25 244.76 176.01 
M 249.17 184.81 254.45 195.38 
M 257.97 202.42 260.61 207.7 
M 263.25 212.98 267.65 221.79 
M 187.23 54.06 190.32 60.22 
M 195.6 70.78 197.36 74.3 
M 201.76 83.11 205.28 90.15 
M 209.68 98.95 210.56 100.71 
M 211.44 102.48 212.32 104.24 
M 215.84 111.28 220.25 120.08 
M 228.17 135.93 229.05 137.69 
M 253.7 186.99 256.34 192.27 
M 258.98 197.55 264.26 208.12 
M 265.14 209.88 269.55 218.68 
M 190.04 52.77 190.48 53.65 
M 193.12 58.93 194.88 62.45 
M 205.44 83.58 206.32 85.34 
M 207.2 87.1 208.08 88.86 
M 218.65 109.99 223.05 118.8 
M 238.01 148.73 241.54 155.77 
M 262.66 198.03 266.19 205.07 
M 275.87 224.44 276.75 226.2 
M 277.63 227.96 279.39 231.48 
M 194.74 55.29 195.62 57.05 
M 196.5 58.81 200.02 65.86 
M 212.35 90.51 214.99 95.79 
M 221.15 108.11 225.55 116.92 
M 226.43 118.68 230.84 127.48 
M 235.24 136.28 237 139.8 
M 239.64 145.09 240.52 146.85 
M 241.4 148.61 244.92 155.65 
M 256.37 178.54 259.01 183.82 
M 267.81 201.43 268.69 203.19 
M 278.37 222.56 283.66 233.12 
M 197.04 52.99 197.92 54.75 
M 198.8 56.51 201.44 61.8 
M 214.64 88.21 219.04 97.01 
M 229.61 118.14 234.89 128.7 
M 237.53 133.98 241.05 141.03 
M 245.45 149.83 247.22 153.35 
M 258.66 176.24 260.42 179.76 
M 261.3 181.52 263.06 185.04 
M 281.55 222.02 286.83 232.58 
M 200.8 53.63 205.2 62.43 
M 217.52 87.08 221.93 95.88 
M 231.61 115.25 232.49 117.01 
M 233.37 118.77 237.77 127.57 
M 239.53 131.1 243.05 138.14 
M 246.58 145.18 250.1 152.22 
M 251.86 155.75 252.74 157.51 
M 253.62 159.27 255.38 162.79 
M 259.78 171.59 265.94 183.92 
M 278.27 208.57 283.55 219.13 
M 216.64 78.43 217.53 80.19 
M 218.41 81.95 219.29 83.71 
M 231.61 108.36 232.49 110.12 
M 236.01 117.16 240.41 125.97 
M 253.62 152.38 257.14 159.42 
M 258.02 161.18 259.78 164.7 
M 263.3 171.75 268.58 182.31 
M 272.99 191.11 276.51 198.16 
M 280.91 206.96 286.19 217.52 
M 217.36 72.97 222.64 83.53 
M 230.56 99.38 231.44 101.14 
M 232.33 102.9 235.85 109.94 
M 240.25 118.75 244.65 127.55 
M 256.97 152.2 263.14 164.52 
M 267.54 173.33 269.3 176.85 
M 275.46 189.17 279.86 197.98 
M 283.38 205.02 289.55 217.34 
M 218.78 68.92 220.54 72.44 
M 221.42 74.2 224.94 81.24 
M 227.58 86.52 231.98 95.33 
M 233.74 98.85 239.91 111.17 
M 241.67 114.69 248.71 128.78 
M 251.35 134.06 253.99 139.34 
M 260.15 151.67 264.55 160.47 
M 273.36 178.08 276 183.36 
M 279.52 190.4 282.16 195.68 
M 287.44 206.25 290.96 213.29 
M 213.22 50.92 214.98 54.44 
M 215.86 56.2 216.75 57.96 
M 222.91 70.29 227.31 79.09 
M 229.95 84.37 235.23 94.94 
M 236.11 96.7 242.27 109.02 
M 245.8 116.06 251.96 128.39 
M 252.84 130.15 257.24 138.95 
M 264.28 153.04 266.04 156.56 
M 271.33 167.12 272.21 168.88 
M 274.85 174.17 279.25 182.97 
M 295.1 214.66 296.86 218.18 
M 215.43 48.44 220.71 59.01 
M 227.75 73.09 228.64 74.85 
M 232.16 81.89 243.6 104.78 
M 249.76 117.11 250.64 118.87 
M 251.52 120.63 252.4 122.39 
M 254.16 125.91 255.93 129.43 
M 256.81 131.19 260.33 138.24 
M 264.73 147.04 265.61 148.8 
M 271.77 161.12 276.17 169.93 
M 277.93 173.45 280.57 178.73 
M 281.46 180.49 282.34 182.25 
M 296.42 210.42 301.7 220.99 
M 218.31 47.32 223.6 57.89 
M 235.04 80.77 241.2 93.1 
M 244.72 100.14 245.61 101.9 
M 257.05 124.79 262.33 135.35 
M 264.97 140.64 268.49 147.68 
M 269.37 149.44 270.25 151.2 
M 273.78 158.24 278.18 167.05 
M 298.43 207.54 299.31 209.3 
M 300.19 211.06 304.59 219.87 
M 221.85 47.5 226.25 56.3 
M 235.05 73.91 236.82 77.43 
M 262.35 128.49 264.11 132.01 
M 267.63 139.06 271.15 146.1 
M 272.03 147.86 272.91 149.62 
M 278.19 160.18 279.95 163.71 
M 300.2 204.2 301.08 205.96 
M 302.84 209.48 305.48 214.77 
M 310.83 225.47 311.34 226.48 
M 235.8 68.51 236.68 70.28 
M 238.44 73.8 241.96 80.84 
M 255.17 107.25 256.93 110.77 
M 272.78 142.46 274.54 145.98 
M 291.26 179.44 295.66 188.24 
M 300.07 197.04 301.83 200.57 
M 302.71 202.33 305.35 207.61 
M 311.51 219.93 314.14 225.19 
M 226.23 42.47 227.11 44.23 
M 239.43 68.88 244.71 79.45 
M 256.16 102.34 260.56 111.14 
M 281.69 153.4 286.97 163.96 
M 293.13 176.28 298.41 186.85 
M 302.81 195.65 308.98 207.98 
M 315.14 220.3 316.94 223.89 
M 229.38 41.9 230.7 44.54 
M 234.23 51.58 237.75 58.63 
M 241.27 65.67 247.43 77.99 
M 259.76 102.64 263.28 109.69 
M 284.41 151.94 289.69 162.51 
M 297.61 178.35 301.13 185.4 
M 305.53 194.2 311.7 206.52 
M 317.86 218.85 319.73 222.6 
M 233.3 42.84 233.74 43.72 
M 235.5 47.25 241.66 59.57 
M 245.19 66.61 249.59 75.42 
M 253.99 84.22 256.63 89.5 
M 257.51 91.26 258.39 93.02 
M 261.03 98.31 262.79 101.83 
M 263.67 103.59 264.55 105.35 
M 265.43 107.11 266.31 108.87 
M 276.88 130 278.64 133.52 
M 279.52 135.28 282.16 140.56 
M 287.44 151.13 290.96 158.17 
M 296.24 168.73 297.12 170.49 
M 301.53 179.3 302.41 181.06 
M 308.57 193.38 312.97 202.19 
M 238.01 45.37 244.17 57.69 
M 256.49 82.34 261.78 92.91 
M 270.58 110.51 274.1 117.55 
M 278.5 126.36 283.78 136.92 
M 284.66 138.68 285.55 140.44 
M 286.43 142.2 287.31 143.97 
M 292.59 154.53 293.47 156.29 
M 295.23 159.81 301.39 172.14 
M 308.43 186.22 309.31 187.98 
M 314.6 198.55 315.48 200.31 
M 242.02 46.51 246.42 55.31 
M 258.75 79.96 265.79 94.04 
M 267.55 97.57 270.19 102.85 
M 271.95 106.37 277.23 116.93 
M 282.52 127.5 286.92 136.3 
M 288.68 139.82 290.44 143.34 
M 292.2 146.86 293.08 148.63 
M 299.24 160.95 304.53 171.51 
M 308.05 178.56 312.45 187.36 
M 317.73 197.92 321.25 204.97 
M 262.63 80.83 267.03 89.64 
M 268.79 93.16 269.67 94.92 
M 270.55 96.68 274.07 103.72 
M 275.83 107.24 281.12 117.81 
M 286.4 128.37 289.92 135.41 
M 290.8 137.17 296.96 149.5 
M 302.24 160.06 305.77 167.11 
M 310.17 175.91 316.33 188.23 
M 319.85 195.28 325.13 205.84 
M 330.4 216.37 330.82 217.22 
M 271.43 91.55 276.71 102.11 
M 278.47 105.63 282 112.67 
M 294.32 137.32 299.6 147.89 
M 304.88 158.45 306.64 161.97 
M 307.52 163.73 308.41 165.5 
M 312.81 174.3 316.33 181.34 
M 317.21 183.1 318.09 184.86 
M 323.37 195.43 326.89 202.47 
M 255.83 53.46 257.59 56.98 
M 274.32 90.44 278.72 99.24 
M 296.33 134.45 301.61 145.02 
M 304.25 150.3 306.89 155.58 
M 327.14 196.08 328.9 199.6 
M 330.66 203.12 334.18 210.16 
M 258.32 51.55 261.84 58.59 
M 266.25 67.4 269.77 74.44 
M 277.69 90.28 278.57 92.04 
M 280.33 95.57 282.09 99.09 
M 295.3 125.5 296.18 127.26 
M 297.06 129.02 299.7 134.3 
M 304.98 144.87 311.14 157.19 
M 333.15 201.21 338.48 211.86 
M 259.74 47.5 265.02 58.06 
M 269.43 66.87 272.95 73.91 
M 279.11 86.24 281.75 91.52 
M 286.15 100.32 287.91 103.84 
M 297.6 123.21 302.88 133.77 
M 307.28 142.58 314.32 156.66 
M 320.49 168.99 321.37 170.75 
M 336.33 200.68 341.41 210.83 
M 263.03 47.19 268.32 57.76 
M 270.96 63.04 275.36 71.84 
M 280.64 82.41 285.04 91.21 
M 287.68 96.49 292.08 105.29 
M 296.49 114.1 297.37 115.86 
M 298.25 117.62 299.13 119.38 
M 300.01 121.14 305.29 131.7 
M 310.57 142.27 311.45 144.03 
M 312.33 145.79 314.09 149.31 
M 314.97 151.07 315.85 152.83 
M 321.14 163.4 325.54 172.2 
M 333.46 188.05 336.98 195.09 
M 339.62 200.37 342.26 205.65 
M 343.14 207.41 343.95 209.03 
M 266.73 47.7 268.05 50.34 
M 268.93 52.1 269.81 53.86 
M 282.14 78.51 283.02 80.27 
M 283.9 82.03 288.3 90.84 
M 290.06 94.36 292.7 99.64 
M 293.58 101.4 294.46 103.16 
M 297.98 110.2 307.67 129.57 
M 314.71 143.66 317.35 148.94 
M 324.39 163.02 327.92 170.07 
M 331.44 177.11 334.96 184.15 
M 335.84 185.91 340.24 194.72 
M 281.49 70.33 285.01 77.37 
M 285.89 79.13 289.42 86.18 
M 290.3 87.94 291.18 89.7 
M 295.58 98.5 296.46 100.26 
M 300.86 109.06 307.02 121.39 
M 327.27 161.89 328.15 163.65 
M 333.43 174.21 337.83 183.01 
M 338.71 184.77 342.24 191.82 
M 345.76 198.86 349.23 205.8 
M 283.18 66.81 284.06 68.57 
M 284.94 70.33 287.58 75.61 
M 291.98 84.41 292.86 86.18 
M 303.42 107.3 308.71 117.87 
M 311.35 123.15 315.75 131.95 
M 336.88 174.21 341.28 183.01 
M 348.32 197.1 352.26 204.97 
M 277.63 48.82 278.51 50.58 
M 286.43 66.43 290.83 75.23 
M 308.44 110.44 310.2 113.97 
M 313.72 121.01 319 131.57 
M 339.25 172.07 340.13 173.83 
M 341.01 175.59 341.89 177.35 
M 350.7 194.96 353.34 200.24 
M 354.34 202.24 354.9 203.37 
M 280.51 47.69 280.95 48.57 
M 291.51 69.7 292.39 71.46 
M 307.36 101.39 310 106.67 
M 316.16 119 321.44 129.56 
M 354.9 196.47 357.51 201.7 
M 286.34 52.46 286.78 53.34 
M 287.66 55.11 288.54 56.87 
M 299.1 77.99 301.74 83.28 
M 308.79 97.36 314.07 107.93 
M 320.23 120.25 321.11 122.01 
M 321.99 123.77 327.27 134.34 
M 330.8 141.38 334.32 148.42 
M 344.88 169.55 346.64 173.07 
M 299.09 71.08 304.37 81.64 
M 311.42 95.73 316.7 106.29 
M 323.74 120.38 324.62 122.14 
M 325.5 123.9 329.9 132.7 
M 332.54 137.98 337.83 148.55 
M 345.75 164.39 350.15 173.2 
M 294.48 54.98 294.92 55.86 
M 302.85 71.7 307.25 80.51 
M 315.17 96.35 316.93 99.87 
M 317.81 101.64 319.57 105.16 
M 324.86 115.72 326.62 119.24 
M 327.5 121 332.78 131.57 
M 335.42 136.85 340.7 147.41 
M 348.63 163.26 353.03 172.06 
M 354.79 175.58 359.19 184.39 
M 303.64 66.39 305.4 69.91 
M 307.16 73.43 308.92 76.95 
M 324.76 108.65 325.64 110.41 
M 326.52 112.17 335.33 129.77 
M 339.73 138.58 341.49 142.1 
M 345.01 149.14 348.53 156.18 
M 353.82 166.75 354.7 168.51 
M 356.46 172.03 362.62 184.35 
M 328.38 108.99 336.31 124.84 
M 337.19 126.6 338.07 128.36 
M 347.75 147.73 352.15 156.53 
M 358.31 168.86 364.48 181.18 
M 369.86 191.94 370.4 193.02 
M 331.32 107.97 336.6 118.54 
M 343.64 132.62 344.52 134.38 
M 351.57 148.47 353.33 151.99 
M 362.13 169.6 366.53 178.4 
M 371.81 188.97 372.95 191.24 
M 324.48 87.4 325.8 90.04 
M 335.03 108.51 335.91 110.28 
M 336.79 112.04 338.55 115.56 
M 343.84 126.12 344.72 127.88 
M 345.6 129.64 347.36 133.16 
M 356.16 150.77 359.68 157.81 
M 366.73 171.9 368.49 175.42 
M 371.13 180.7 372.01 182.46 
M 373.77 185.98 374.86 188.17 
M 346.14 123.84 352.3 136.16 
M 359.35 150.25 363.75 159.05 
M 371.67 174.9 376.07 183.7 
M 377.73 187.02 378.07 187.69 
M 350.21 125.1 353.74 132.14 
M 362.54 149.75 365.18 155.03 
M 368.7 162.07 370.46 165.59 
M 373.1 170.87 373.98 172.64 
M 374.86 174.4 379.27 183.2 
M 355.13 128.04 356.01 129.8 
M 360.41 138.6 362.17 142.12 
M 363.05 143.89 363.93 145.65 
M 370.1 157.97 381.54 180.86 
M 361.76 134.42 367.05 144.98 
M 371.45 153.79 378.49 167.87 
M 380.25 171.39 381.13 173.15 
M 382.01 174.91 383.77 178.44 
M 357.37 118.74 358.69 121.38 
M 364.85 133.71 370.13 144.27 
M 376.3 156.59 379.82 163.64 
M 364.36 125.83 365.24 127.59 
M 367.88 132.88 369.64 136.4 
M 379.33 155.77 380.21 157.53 
M 381.09 159.29 382.85 162.81 
M 390.61 178.32 390.88 178.87 
M 366.96 124.13 368.28 126.77 
M 371.78 126.9 373.1 129.54 
M 388.95 161.23 389.83 162.99 
M 395.11 173.55 396.02 175.36 
M 380.57 137.58 381.45 139.34 
M 382.33 141.1 383.21 142.86 
M 384.09 144.63 384.97 146.39 
M 391.13 158.71 394.66 165.75 
M 382.72 134.98 388.88 147.31 
M 392.4 154.35 398.36 166.28 
M 386.18 135.02 391.02 144.7 
M 395.42 153.51 397.18 157.03 
M 397.99 158.65 398.36 159.39 
M 390.96 137.69 393.16 142.1 
"/></svg>