<svg xmlns="http://www.w3.org/2000/svg" width="520" height="320"><rect x="0" y="0" width="520" height="320" fill="floralwhite"/><rect x="10" y="10" width="500" height="300" stroke="black" stroke-width="1" fill="none"/><path stroke="black" stroke-width="1" fill="none" stroke-linecap="round" stroke-linejoin="round" d="
M 171.17 138.66 181.92 135.83 192.65 133.3 203.37 130.99 224.83 126.75 235.56 125.03 246.28 123.78 257.01 122.82 289.19 122.36 299.92 123.18 310.65 124.82 321.37 126.83 353.55 133.44 364.28 135.9 396.46 144.44 429.52 152.7 
M 429.52 180.13 407.19 186.97 396.46 190.12 385.74 193 375.01 195.73 364.28 198.09 342.83 202.48 332.1 204.09 310.65 206.77 299.92 207.43 289.19 207.88 278.46 207.69 257.01 207.85 246.28 206.95 235.56 205.47 214.1 201.87 203.37 200.22 192.65 198.27 181.92 195.78 160.45 189.88 
M 173.33 141.62 174.3 140.64 174.89 139.57 174.89 138.9 174.3 137.83 
M 177.15 148.21 176.63 146.97 175.82 145.96 175.19 145.56 
M 174.81 138.53 175.65 138.19 176.8 137.18 
M 176.84 147.32 177.61 146.95 178.59 146 179.23 144.93 179.23 144.26 178.59 143.19 177.61 142.24 176.84 141.87 
M 180.66 139.95 181.41 139.62 182.36 138.77 182.97 137.82 182.97 137.23 182.36 136.27 181.88 135.84 
M 184.5 145.54 183.92 144.42 183.03 143.52 182.33 143.17 
M 182.68 136.47 183.28 136.16 184.05 135.33 
M 184.12 144.47 184.69 144.13 185.42 143.28 185.89 142.31 185.89 141.71 185.42 140.74 184.69 139.88 184.12 139.54 
M 185.92 140.79 186.6 140.47 187.47 139.65 188.03 138.72 188.03 138.14 187.47 137.21 186.6 136.39 185.92 136.07 
M 189.25 145.9 188.82 145.13 187.99 144.27 187.34 143.93 
M 189.11 145.03 189.65 144.7 190.35 143.87 190.81 142.92 190.81 142.34 190.35 141.4 189.65 140.56 189.11 140.24 
M 190.94 141.43 191.59 141.11 192.43 140.3 192.97 139.37 192.97 138.8 192.43 137.87 191.59 137.06 190.94 136.74 
M 192.74 137.87 193.27 137.55 193.96 136.73 194.4 135.8 194.4 135.22 193.96 134.29 193.27 133.47 192.89 133.24 
M 194.11 145.63 194.66 145.31 195.36 144.49 195.81 143.57 195.81 142.99 195.36 142.07 194.66 141.25 194.11 140.93 
M 194.21 134.16 194.81 133.83 195.79 132.62 
M 200.73 143.79 200.29 142.68 199.6 141.87 199.07 141.55 
M 198.77 134.48 199.37 134.14 200.13 133.26 200.63 132.27 200.6 131.59 
M 202.32 138.94 202.84 138.59 203.5 137.7 203.93 136.68 203.93 136.06 203.5 135.04 202.84 134.15 202.32 133.8 
M 204.67 189.97 205.1 189.63 205.66 188.78 206.02 187.82 205.84 186.72 
M 203.37 134.8 203.99 134.44 204.77 133.54 205.28 132.52 205.28 131.88 204.67 130.74 
M 205.47 142.97 206.09 142.64 206.88 141.79 207.39 140.83 207.39 140.23 206.88 139.27 206.09 138.42 205.47 138.09 
M 208.37 147.79 207.89 146.96 207.11 146.19 206.49 145.89 
M 207.04 139.3 207.56 138.95 208.22 138.05 208.65 137.03 208.65 136.4 208.22 135.38 207.56 134.48 207.04 134.13 
M 208.6 146.96 209.11 146.65 209.76 145.86 210.18 144.96 210.18 144.4 209.76 143.5 209.11 142.7 208.6 142.39 
M 210.54 152.13 210.59 151.52 210.22 150.78 
M 208.77 189.69 209.23 189.36 209.81 188.5 210.19 187.54 210.19 186.94 209.53 185.56 
M 208.14 135.19 208.78 134.84 209.6 133.94 210.13 132.92 210.13 132.29 209.6 131.27 208.78 130.37 208.21 130.06 
M 210.19 143.3 210.81 142.97 211.61 142.13 212.12 141.18 212.12 140.59 211.61 139.64 210.81 138.8 210.19 138.47 
M 212.16 153.74 211.47 153.33 
M 211.25 171.43 211.81 171.17 212.59 170.43 213.1 169.6 213.1 169.08 212.59 168.25 211.81 167.52 211.2 167.23 
M 209.33 131.15 209.89 130.8 210.75 129.57 
M 211.83 139.68 212.36 139.34 213.05 138.45 213.49 137.45 213.49 136.84 213.05 135.84 212.36 134.95 211.83 134.61 
M 213.28 147.25 213.8 146.95 214.46 146.16 214.89 145.27 214.89 144.72 214.46 143.83 213.8 143.04 213.28 142.73 
M 213.48 175.12 214.01 174.84 214.68 174.12 215.12 173.3 215.12 172.79 214.68 171.97 214.01 171.25 213.48 170.96 
M 212.97 181.9 213.47 181.62 214.1 180.88 214.51 180.05 214.51 179.53 214.26 179.02 
M 213.05 189.56 213.52 189.23 214.12 188.39 214.51 187.43 214.51 186.84 214.12 185.88 213.52 185.04 213.05 184.71 
M 213.12 135.74 213.79 135.4 214.65 134.52 215.2 133.53 215.2 132.91 214.65 131.92 213.79 131.04 213.12 130.7 
M 215 143.71 215.64 143.39 216.46 142.56 216.99 141.62 216.99 141.05 216.46 140.11 215.64 139.28 215 138.96 
M 215.9 150.94 216.53 150.65 217.34 149.89 217.86 149.03 217.86 148.5 217.34 147.64 216.53 146.88 215.9 146.59 
M 216.16 164.91 216.82 164.63 217.67 163.89 218.21 163.06 218.21 162.54 217.67 161.71 216.82 160.98 216.16 160.69 
M 215.94 194.02 216.52 193.67 217.25 192.78 217.72 191.78 217.72 191.15 217.25 190.15 216.52 189.26 215.94 188.91 
M 214.53 131.92 215.11 131.58 215.86 130.71 216.35 129.72 216.35 129.11 216.06 128.52 
M 216.8 140.22 217.35 139.88 218.06 139.03 218.52 138.05 218.52 137.45 218.06 136.48 217.35 135.62 216.8 135.29 
M 218.53 154.68 219.07 154.39 219.76 153.65 220.2 152.81 220.2 152.29 219.76 151.46 219.07 150.72 218.53 150.43 
M 218.67 161.72 219.23 161.43 219.95 160.69 220.41 159.85 220.41 159.33 219.95 158.5 219.23 157.76 218.67 157.47 
M 218.5 175.72 219.07 175.45 219.79 174.75 220.25 173.96 220.25 173.46 219.79 172.67 219.07 171.97 218.5 171.7 
M 218.29 136.48 218.98 136.15 219.87 135.3 220.45 134.34 220.45 133.74 219.87 132.78 218.98 131.93 218.29 131.6 
M 219.96 144.26 220.62 143.95 221.47 143.14 222.01 142.22 222.01 141.65 221.47 140.74 220.62 139.93 219.96 139.61 
M 221.13 158.57 221.79 158.28 222.64 157.53 223.19 156.69 223.19 156.16 222.64 155.32 221.79 154.57 221.13 154.28 
M 221.24 172.72 221.92 172.44 222.8 171.73 223.36 170.92 223.36 170.42 222.8 169.61 221.92 168.89 221.24 168.61 
M 219.92 132.87 220.53 132.55 221.3 131.71 221.8 130.76 221.8 130.18 221.3 129.23 220.53 128.39 219.92 128.07 
M 221.91 140.9 222.48 140.58 223.21 139.75 223.68 138.81 223.68 138.23 223.21 137.29 222.48 136.46 221.91 136.14 
M 223.04 148.24 223.58 147.94 224.29 147.17 224.74 146.3 224.74 145.76 224.29 144.89 223.58 144.12 223.04 143.82 
M 223.82 162.57 224.39 162.27 225.11 161.51 225.57 160.66 225.57 160.13 225.11 159.27 224.39 158.51 223.82 158.22 
M 224 169.79 224.58 169.5 225.31 168.76 225.79 167.92 225.79 167.4 225.31 166.56 224.58 165.82 224 165.53 
M 223.71 176.52 224.28 176.26 225.01 175.57 225.48 174.8 225.48 174.32 225.01 173.55 224.28 172.86 223.71 172.6 
M 223.6 137.35 224.31 137.03 225.22 136.22 225.81 135.29 225.81 134.72 225.22 133.79 224.31 132.97 223.6 132.66 
M 225.04 144.93 225.72 144.62 226.58 143.83 227.14 142.94 227.14 142.39 226.58 141.49 225.72 140.7 225.04 140.4 
M 226.19 159.3 226.85 159.01 227.7 158.25 228.25 157.39 228.25 156.86 227.7 156.01 226.85 155.25 226.19 154.96 
M 226.47 166.57 227.15 166.27 228.01 165.52 228.56 164.67 228.56 164.15 228.01 163.3 227.15 162.54 226.47 162.25 
M 226.43 173.55 227.11 173.28 227.97 172.57 228.53 171.76 228.53 171.26 227.97 170.45 227.11 169.74 226.43 169.46 
M 225.68 179.91 226.35 179.65 227.21 178.97 227.77 178.21 227.77 177.74 227.21 176.98 226.35 176.3 225.68 176.04 
M 224.74 186.38 225.39 186.09 226.23 185.36 226.77 184.53 226.77 184.02 226.23 183.19 225.39 182.45 224.74 182.17 
M 225.44 133.94 226.05 133.63 226.83 132.83 227.34 131.92 227.34 131.35 226.83 130.44 226.05 129.64 225.44 129.33 
M 228.52 155.99 229.07 155.7 229.77 154.94 230.22 154.09 230.22 153.56 229.77 152.71 229.07 151.95 228.52 151.66 
M 229.15 170.59 229.7 170.3 230.41 169.56 230.86 168.71 230.86 168.19 230.41 167.35 229.7 166.61 229.15 166.32 
M 227.44 130.77 228.19 130.48 229.15 129.74 229.77 128.91 229.77 128.39 229.15 127.55 228.19 126.81 227.44 126.53 
M 228.98 138.3 229.69 137.99 230.6 137.2 231.19 136.31 231.19 135.76 230.6 134.87 229.69 134.08 228.98 133.77 
M 231.47 174.25 232.12 173.97 232.95 173.26 233.48 172.45 233.48 171.95 232.95 171.14 232.12 170.42 231.47 170.14 
M 229.81 187.07 230.49 186.79 231.35 186.07 231.9 185.25 231.9 184.74 231.35 183.92 230.49 183.19 229.81 182.91 
M 230.02 194.86 230.67 194.53 231.52 193.69 232.06 192.73 232.06 192.14 231.52 191.19 230.67 190.34 230.02 190.02 
M 229.54 127.72 230.19 127.45 231.01 126.77 231.54 126 231.54 125.68 
M 233.14 149.55 233.68 149.26 234.39 148.51 234.84 147.68 234.84 147.16 234.39 146.32 233.68 145.57 233.14 145.28 
M 233.5 156.59 234.04 156.3 234.72 155.55 235.16 154.71 235.16 154.18 234.72 153.34 234.04 152.59 233.5 152.3 
M 234.05 171.13 234.56 170.84 235.22 170.09 235.65 169.25 235.65 168.73 235.22 167.88 234.56 167.14 234.05 166.85 
M 233.84 177.97 234.36 177.7 235.04 177.01 235.47 176.22 235.47 175.74 235.04 174.95 234.36 174.26 233.84 173.99 
M 232.78 184.08 233.34 183.82 234.05 183.15 234.51 182.39 234.51 181.92 234.05 181.17 233.34 180.5 232.78 180.24 
M 233.05 131.96 233.79 131.68 234.74 130.97 235.36 130.17 235.36 129.67 234.74 128.86 233.79 128.15 233.05 127.87 
M 234.32 139.2 235.02 138.9 235.92 138.15 236.5 137.29 236.5 136.76 235.92 135.91 235.02 135.15 234.32 134.86 
M 235.28 146.33 235.94 146.04 236.79 145.3 237.34 144.46 237.34 143.94 236.79 143.09 235.94 142.35 235.28 142.06 
M 235.76 153.3 236.39 153.01 237.21 152.28 237.74 151.44 237.74 150.93 237.21 150.1 236.39 149.36 235.76 149.07 
M 236.04 160.4 236.66 160.11 237.45 159.36 237.97 158.52 237.97 158 237.45 157.15 236.66 156.4 236.04 156.11 
M 236.25 174.69 236.86 174.41 237.63 173.68 238.14 172.86 238.14 172.36 237.63 171.54 236.86 170.81 236.25 170.53 
M 235.09 195.51 235.75 195.19 236.6 194.37 237.15 193.44 237.15 192.87 236.6 191.94 235.75 191.12 235.09 190.81 
M 235.27 129.04 235.9 128.79 236.72 128.13 237.24 127.38 237.24 126.92 236.72 126.18 235.9 125.52 235.27 125.26 
M 236.42 136.05 237.01 135.76 237.77 135.02 238.27 134.19 238.27 133.67 237.77 132.84 237.01 132.1 236.42 131.81 
M 237.53 143.2 238.08 142.91 238.79 142.17 239.25 141.34 239.25 140.82 238.79 139.98 238.08 139.24 237.53 138.95 
M 238.31 156.99 238.82 156.7 239.48 155.97 239.9 155.15 239.9 154.63 239.48 153.81 238.82 153.07 238.31 152.79 
M 237.77 184.79 238.3 184.51 238.98 183.82 239.42 183.03 239.42 182.55 238.98 181.76 238.3 181.07 237.77 180.8 
M 237.85 126.68 238.61 126.45 239.58 125.86 240.2 125.19 240.2 124.78 239.95 124.52 
M 239.53 139.96 240.21 139.68 241.07 138.96 241.63 138.14 241.63 137.64 241.07 136.82 240.21 136.1 239.53 135.82 
M 240.23 146.85 240.87 146.57 241.68 145.85 242.21 145.03 242.21 144.53 241.68 143.72 240.87 143 240.23 142.72 
M 240.54 153.67 241.15 153.39 241.94 152.67 242.45 151.86 242.45 151.35 241.94 150.54 241.15 149.82 240.54 149.54 
M 240.9 130.26 241.51 130.01 242.3 129.38 242.8 128.67 242.8 128.23 242.3 127.51 241.51 126.88 240.9 126.64 
M 241.72 136.88 242.29 136.61 243.02 135.91 243.49 135.13 243.49 134.64 243.02 133.85 242.29 133.16 241.72 132.89 
M 242.84 150.41 243.35 150.14 244 149.44 244.42 148.64 244.42 148.14 244 147.35 243.35 146.64 242.84 146.37 
M 242.94 164.16 243.42 163.87 244.03 163.14 244.42 162.31 244.42 161.8 244.03 160.97 243.42 160.23 242.94 159.95 
M 243.4 127.85 244.12 127.63 245.04 127.05 245.63 126.4 245.63 126 245.04 125.34 244.12 124.77 243.4 124.54 
M 243.91 133.95 244.6 133.7 245.48 133.05 246.05 132.32 246.05 131.86 245.48 131.13 244.6 130.48 243.91 130.23 
M 244.55 140.52 245.19 140.25 246.02 139.56 246.55 138.79 246.55 138.31 246.02 137.53 245.19 136.84 244.55 136.57 
M 245 147.19 245.61 146.92 246.4 146.22 246.91 145.43 246.91 144.94 246.4 144.15 245.61 143.46 245 143.19 
M 245.16 153.88 245.76 153.6 246.53 152.9 247.02 152.11 247.02 151.62 246.53 150.82 245.76 150.12 245.16 149.85 
M 245.09 167.66 245.65 167.37 246.37 166.64 246.83 165.81 246.83 165.3 246.37 164.47 245.65 163.73 245.09 163.45 
M 245.06 174.8 245.62 174.51 246.33 173.77 246.79 172.93 246.79 172.41 246.33 171.57 245.62 170.82 245.06 170.53 
M 244.91 181.88 245.5 181.59 246.24 180.85 246.72 180.02 246.72 179.5 246.24 178.66 245.5 177.92 244.91 177.63 
M 244.72 189 245.34 188.7 246.12 187.95 246.63 187.09 246.63 186.56 246.12 185.7 245.34 184.95 244.72 184.65 
M 244.88 196.47 245.5 196.17 246.29 195.38 246.8 194.5 246.8 193.95 246.29 193.06 245.5 192.28 244.88 191.98 
M 245.96 125.53 246.55 125.33 247.3 124.8 247.78 124.19 247.64 123.65 
M 246.26 131.19 246.83 130.96 247.56 130.35 248.03 129.67 248.03 129.24 247.56 128.55 246.83 127.95 246.26 127.71 
M 246.77 137.48 247.31 137.22 248 136.56 248.45 135.81 248.45 135.35 248 134.6 247.31 133.94 246.77 133.69 
M 247.23 144.02 247.74 143.75 248.4 143.07 248.82 142.3 248.82 141.82 248.4 141.05 247.74 140.36 247.23 140.1 
M 247.45 150.62 247.94 150.35 248.58 149.66 248.99 148.88 248.99 148.39 248.58 147.61 247.94 146.92 247.45 146.65 
M 247.44 157.29 247.93 157.02 248.56 156.32 248.96 155.53 248.96 155.04 248.56 154.25 247.93 153.55 247.44 153.28 
M 247.17 171.12 247.63 170.83 248.22 170.09 248.59 169.25 248.59 168.73 248.22 167.89 247.63 167.15 247.17 166.86 
M 247.19 178.37 247.65 178.07 248.25 177.32 248.64 176.47 248.64 175.95 248.25 175.1 247.65 174.35 247.19 174.05 
M 247.07 185.52 247.56 185.22 248.2 184.47 248.6 183.62 248.6 183.09 248.2 182.24 247.56 181.49 247.07 181.2 
M 248.63 128.69 249.3 128.47 250.16 127.91 250.71 127.27 250.71 126.88 250.16 126.24 249.3 125.68 248.63 125.46 
M 249.35 140.89 249.97 140.63 250.76 139.97 251.27 139.22 251.27 138.76 250.76 138.01 249.97 137.35 249.35 137.09 
M 249.62 147.4 250.22 147.13 250.98 146.45 251.47 145.68 251.47 145.2 250.98 144.43 250.22 143.75 249.62 143.48 
M 249.69 154 250.28 153.73 251.03 153.04 251.51 152.26 251.51 151.78 251.03 150.99 250.28 150.3 249.69 150.03 
M 249.56 160.68 250.14 160.41 250.88 159.71 251.36 158.91 251.36 158.42 250.88 157.63 250.14 156.92 249.56 156.65 
M 249.32 181.97 249.9 181.68 250.64 180.92 251.11 180.06 251.11 179.53 250.64 178.67 249.9 177.91 249.32 177.61 
M 251.06 126.26 252.29 125.53 252.73 124.93 252.73 124.56 252.29 123.97 251.31 123.33 
M 251.26 131.79 251.79 131.56 252.47 130.97 252.91 130.3 252.91 129.89 252.47 129.22 251.79 128.63 251.26 128.4 
M 251.57 137.85 252.09 137.6 252.74 136.96 253.17 136.24 253.17 135.8 252.74 135.07 252.09 134.44 251.57 134.19 
M 251.84 144.21 252.33 143.95 252.97 143.28 253.38 142.53 253.38 142.06 252.97 141.31 252.33 140.64 251.84 140.38 
M 251.96 150.73 252.44 150.47 253.07 149.78 253.47 149.01 253.47 148.53 253.07 147.76 252.44 147.08 251.96 146.81 
M 251.63 164 252.1 163.73 252.72 163.03 253.11 162.23 253.11 161.74 252.72 160.95 252.1 160.24 251.63 159.97 
M 251.38 170.94 251.85 170.65 252.45 169.91 252.84 169.07 252.84 168.56 252.45 167.72 251.85 166.98 251.38 166.7 
M 253.52 129.2 254.15 128.98 254.95 128.43 255.46 127.8 255.46 127.41 254.95 126.78 254.15 126.23 253.52 126.01 
M 253.74 134.95 254.35 134.71 255.14 134.1 255.64 133.41 255.64 132.99 255.14 132.3 254.35 131.69 253.74 131.45 
M 253.99 160.72 254.57 160.45 255.31 159.75 255.79 158.96 255.79 158.48 255.31 157.69 254.57 156.99 253.99 156.72 
M 253.74 182.05 254.32 181.74 255.06 180.97 255.54 180.1 255.54 179.56 255.06 178.69 254.32 177.92 253.74 177.62 
M 255.82 126.64 256.98 125.92 257.4 125.32 257.4 124.96 256.98 124.37 255.82 123.64 
M 255.96 132.1 256.46 131.87 257.11 131.29 257.53 130.64 257.53 130.23 257.11 129.57 256.46 128.99 255.96 128.77 
M 256.33 144.31 256.82 144.05 257.44 143.39 257.84 142.65 257.84 142.19 257.44 141.44 256.82 140.79 256.33 140.53 
M 256.35 157.44 256.84 157.17 257.45 156.48 257.85 155.69 257.85 155.21 257.45 154.43 256.84 153.74 256.35 153.47 
M 255.78 170.96 256.27 170.67 256.89 169.93 257.29 169.1 257.29 168.58 256.89 167.75 256.27 167.01 255.78 166.73 
M 258.08 124.3 259.45 123.62 259.95 123.06 259.95 122.77 
M 258.17 129.46 258.77 129.25 259.54 128.7 260.03 128.08 260.03 127.69 259.54 127.07 258.77 126.52 258.17 126.31 
M 258.32 135.14 258.92 134.9 259.68 134.3 260.16 133.62 260.16 133.2 259.68 132.52 258.92 131.92 258.32 131.69 
M 258.48 141.21 259.06 140.96 259.81 140.32 260.29 139.6 260.29 139.15 259.81 138.43 259.06 137.79 258.48 137.54 
M 258.58 154.13 259.15 153.86 259.89 153.18 260.36 152.4 260.36 151.92 259.89 151.14 259.15 150.45 258.58 150.19 
M 258.44 160.79 259.01 160.52 259.76 159.82 260.23 159.03 260.23 158.55 259.76 157.76 259.01 157.06 258.44 156.79 
M 258.35 189.56 258.94 189.26 259.69 188.49 260.18 187.62 260.18 187.08 259.69 186.2 258.94 185.43 258.35 185.13 
M 260.4 126.85 261.53 126.13 261.94 125.54 261.94 125.17 261.53 124.58 260.4 123.86 
M 260.51 132.26 261 132.04 261.63 131.46 262.03 130.81 262.03 130.41 261.63 129.76 261 129.18 260.51 128.96 
M 260.66 138.14 261.14 137.9 261.76 137.28 262.16 136.58 262.16 136.15 261.76 135.44 261.14 134.82 260.66 134.58 
M 260.79 150.81 261.27 150.54 261.88 149.86 262.27 149.09 262.27 148.62 261.88 147.85 261.27 147.17 260.79 146.9 
M 260.77 157.49 261.25 157.21 261.86 156.52 262.25 155.73 262.25 155.25 261.86 154.46 261.25 153.76 260.77 153.49 
M 260.55 164.19 261.03 163.91 261.65 163.21 262.05 162.41 262.05 161.91 261.65 161.12 261.03 160.41 260.55 160.14 
M 260.55 185.94 261.04 185.64 261.68 184.87 262.08 183.99 262.08 183.45 261.68 182.58 261.04 181.8 260.55 181.5 
M 260.66 193.3 261.15 193 261.77 192.24 262.18 191.37 262.18 190.83 261.77 189.96 261.15 189.2 260.66 188.9 
M 262.61 124.47 263.95 123.79 264.43 123.23 264.43 122.88 264.26 122.69 
M 262.7 129.61 263.28 129.4 264.04 128.85 264.52 128.23 264.52 127.85 264.04 127.23 263.28 126.68 262.7 126.47 
M 262.81 135.23 263.39 135 264.13 134.41 264.61 133.73 264.61 133.32 264.13 132.64 263.39 132.05 262.81 131.82 
M 262.97 147.58 263.54 147.32 264.27 146.65 264.75 145.9 264.75 145.44 264.27 144.68 263.54 144.02 262.97 143.76 
M 262.97 154.15 263.54 153.88 264.27 153.2 264.75 152.42 264.75 151.93 264.27 151.16 263.54 150.47 262.97 150.2 
M 262.65 167.69 263.23 167.41 263.97 166.69 264.45 165.87 264.45 165.36 263.97 164.54 263.23 163.82 262.65 163.53 
M 262.74 182.31 263.33 182 264.08 181.23 264.57 180.36 264.57 179.82 264.08 178.94 263.33 178.17 262.74 177.87 
M 264.9 126.98 266.01 126.26 266.41 125.67 266.41 125.3 266.01 124.71 264.9 123.99 
M 265.09 138.18 265.56 137.94 266.18 137.33 266.57 136.63 266.57 136.2 266.18 135.5 265.56 134.89 265.09 134.65 
M 265.15 144.35 265.63 144.1 266.24 143.45 266.63 142.71 266.63 142.26 266.24 141.52 265.63 140.87 265.15 140.62 
M 265.17 150.81 265.64 150.55 266.25 149.87 266.65 149.1 266.65 148.62 266.25 147.85 265.64 147.17 265.17 146.91 
M 265.15 157.5 265.63 157.23 266.24 156.53 266.63 155.74 266.63 155.25 266.24 154.47 265.63 153.77 265.15 153.5 
M 264.92 178.66 265.41 178.36 266.03 177.59 266.44 176.71 266.44 176.17 266.03 175.3 265.41 174.52 264.92 174.22 
M 267.06 124.56 268.37 123.86 268.84 123.3 268.84 122.95 268.56 122.62 
M 267.15 129.69 267.73 129.48 268.47 128.93 268.94 128.31 268.94 127.93 268.47 127.31 267.73 126.77 267.15 126.55 
M 267.23 135.28 267.81 135.04 268.54 134.45 269.02 133.78 269.02 133.37 268.54 132.7 267.81 132.11 267.23 131.88 
M 267.31 141.27 267.88 141.02 268.61 140.39 269.08 139.67 269.08 139.23 268.61 138.52 267.88 137.88 267.31 137.64 
M 267.35 147.58 267.92 147.32 268.65 146.66 269.12 145.9 269.12 145.44 268.65 144.69 267.92 144.02 267.35 143.76 
M 267.35 154.15 267.92 153.88 268.64 153.2 269.12 152.42 269.12 151.93 268.64 151.16 267.92 150.47 267.35 150.2 
M 267.25 160.88 267.82 160.6 268.55 159.9 269.02 159.1 269.02 158.61 268.55 157.81 267.82 157.1 267.25 156.83 
M 267.08 167.76 267.65 167.48 268.39 166.75 268.86 165.92 268.86 165.41 268.39 164.59 267.65 163.86 267.08 163.57 
M 267.32 189.76 267.9 189.46 268.63 188.7 269.11 187.84 269.11 187.3 268.63 186.44 267.9 185.68 267.32 185.38 
M 269.33 127.04 270.42 126.31 270.81 125.72 270.81 125.36 270.42 124.76 269.33 124.04 
M 269.39 132.38 269.87 132.16 270.48 131.59 270.87 130.95 270.87 130.55 270.48 129.91 269.87 129.34 269.39 129.12 
M 269.47 138.19 269.95 137.95 270.55 137.33 270.94 136.64 270.94 136.21 270.55 135.52 269.95 134.9 269.47 134.67 
M 269.52 157.49 269.99 157.22 270.6 156.53 270.99 155.74 270.99 155.25 270.6 154.46 269.99 153.76 269.52 153.49 
M 269.35 164.26 269.82 163.99 270.43 163.27 270.82 162.46 270.82 161.96 270.43 161.16 269.82 160.44 269.35 160.16 
M 269.21 171.31 269.69 171.01 270.3 170.26 270.7 169.42 270.7 168.89 270.3 168.04 269.69 167.29 269.21 167 
M 269.54 186.16 270.02 185.87 270.63 185.1 271.03 184.24 271.03 183.7 270.63 182.83 270.02 182.07 269.54 181.77 
M 271.42 124.56 272.71 123.86 273.17 123.29 273.17 122.94 272.89 122.59 
M 271.54 129.7 272.1 129.49 272.83 128.94 273.3 128.32 273.3 127.94 272.83 127.32 272.1 126.77 271.54 126.56 
M 271.67 141.25 272.23 141 272.96 140.37 273.43 139.66 273.43 139.22 272.96 138.5 272.23 137.87 271.67 137.62 
M 271.71 147.56 272.27 147.3 273 146.64 273.47 145.89 273.47 145.42 273 144.67 272.27 144.01 271.71 143.75 
M 271.46 167.78 272.02 167.49 272.75 166.76 273.22 165.93 273.22 165.42 272.75 164.59 272.02 163.85 271.46 163.57 
M 271.51 175.06 272.08 174.76 272.82 174 273.3 173.14 273.3 172.6 272.82 171.74 272.08 170.98 271.51 170.68 
M 271.67 182.47 272.24 182.17 272.98 181.41 273.45 180.54 273.45 180 272.98 179.13 272.24 178.37 271.67 178.07 
M 271.66 189.7 272.23 189.41 272.95 188.65 273.41 187.8 273.41 187.27 272.95 186.42 272.23 185.66 271.66 185.37 
M 273.68 127.02 274.75 126.29 275.13 125.7 275.13 125.33 274.75 124.73 273.68 124 
M 273.74 132.35 274.21 132.13 274.81 131.56 275.19 130.92 275.19 130.52 274.81 129.88 274.21 129.31 273.74 129.09 
M 273.81 138.15 274.28 137.91 274.88 137.3 275.27 136.6 275.27 136.18 274.88 135.48 274.28 134.87 273.81 134.63 
M 273.87 144.32 274.34 144.06 274.94 143.41 275.33 142.68 275.33 142.22 274.94 141.49 274.34 140.84 273.87 140.58 
M 273.86 157.45 274.33 157.18 274.93 156.48 275.31 155.7 275.31 155.21 274.93 154.42 274.33 153.72 273.86 153.45 
M 273.59 171.33 274.07 171.03 274.67 170.28 275.06 169.42 275.06 168.89 274.67 168.04 274.07 167.29 273.59 166.99 
M 273.9 186.11 274.37 185.81 274.97 185.06 275.36 184.21 275.36 183.68 274.97 182.83 274.37 182.08 273.9 181.78 
M 275.69 124.47 276.95 123.76 277.41 123.19 277.41 122.83 277.19 122.56 
M 275.84 129.63 276.39 129.41 277.1 128.87 277.56 128.24 277.56 127.86 277.1 127.24 276.39 126.69 275.84 126.48 
M 275.91 135.19 276.46 134.96 277.17 134.37 277.63 133.7 277.63 133.29 277.17 132.62 276.46 132.03 275.91 131.8 
M 275.98 141.18 276.53 140.94 277.24 140.31 277.7 139.59 277.7 139.15 277.24 138.43 276.53 137.8 275.98 137.55 
M 276.03 147.51 276.58 147.25 277.3 146.58 277.76 145.83 277.76 145.37 277.3 144.61 276.58 143.95 276.03 143.69 
M 275.89 175.08 276.46 174.78 277.19 174.01 277.67 173.14 277.67 172.61 277.19 171.74 276.46 170.98 275.89 170.68 
M 275.87 196.76 276.42 196.47 277.13 195.71 277.59 194.86 277.59 194.33 277.13 193.48 276.42 192.72 275.87 192.43 
M 277.93 126.9 278.97 126.17 279.35 125.57 279.35 125.2 278.97 124.6 277.93 123.86 
M 278 132.23 279.04 131.44 279.42 130.8 279.42 130.4 279.04 129.75 278 128.96 
M 278.08 138.04 278.54 137.8 279.12 137.19 279.5 136.49 279.5 136.06 279.12 135.37 278.54 134.75 278.08 134.51 
M 278.15 144.23 278.61 143.97 279.2 143.32 279.57 142.58 279.57 142.13 279.2 141.39 278.61 140.74 278.15 140.48 
M 278.19 150.71 278.65 150.44 279.24 149.76 279.62 148.99 279.62 148.52 279.24 147.75 278.65 147.07 278.19 146.81 
M 277.93 164.1 278.39 163.82 278.98 163.1 279.36 162.29 279.36 161.79 278.98 160.97 278.39 160.26 277.93 159.97 
M 277.91 171.29 278.39 170.99 278.99 170.23 279.38 169.37 279.38 168.83 278.99 167.97 278.39 167.21 277.91 166.91 
M 278.22 178.85 278.7 178.55 279.32 177.78 279.71 176.9 279.71 176.36 279.32 175.48 278.7 174.71 278.22 174.41 
M 278.23 186.04 278.7 185.75 279.3 185.01 279.69 184.16 279.69 183.64 279.3 182.8 278.7 182.05 278.23 181.76 
M 277.95 193.03 278.41 192.74 279 191.99 279.38 191.14 279.38 190.62 279 189.78 278.41 189.03 277.95 188.74 
M 279.87 124.29 281.11 123.57 281.56 122.99 281.46 122.5 
M 280.04 129.46 280.59 129.24 281.29 128.69 281.74 128.07 281.74 127.69 281.29 127.06 280.59 126.52 280.04 126.3 
M 280.11 135.02 280.66 134.79 281.35 134.2 281.8 133.53 281.8 133.11 281.35 132.45 280.66 131.85 280.11 131.62 
M 280.18 141.01 280.72 140.76 281.4 140.13 281.85 139.41 281.85 138.97 281.4 138.25 280.72 137.62 280.18 137.37 
M 280.23 147.33 280.77 147.07 281.45 146.41 281.89 145.66 281.89 145.19 281.45 144.44 280.77 143.77 280.23 143.51 
M 280.23 153.9 280.76 153.63 281.45 152.95 281.89 152.17 281.89 151.68 281.45 150.91 280.76 150.22 280.23 149.95 
M 280.13 160.64 280.67 160.36 281.37 159.65 281.83 158.85 281.83 158.35 281.37 157.54 280.67 156.83 280.13 156.56 
M 282.09 126.69 283.12 125.95 283.49 125.35 283.49 124.97 283.12 124.37 282.09 123.63 
M 282.16 132.01 283.19 131.22 283.56 130.57 283.56 130.18 283.19 129.53 282.16 128.74 
M 282.27 143.96 282.7 143.71 283.26 143.06 283.61 142.32 283.61 141.86 283.26 141.13 282.7 140.48 282.27 140.22 
M 282.31 150.44 282.74 150.18 283.29 149.5 283.65 148.73 283.65 148.25 283.29 147.48 282.74 146.81 282.31 146.54 
M 284 124.05 285.23 123.32 285.67 122.73 285.67 122.42 
M 284.19 129.21 284.73 129 285.42 128.45 285.87 127.83 285.87 127.45 285.42 126.83 284.73 126.28 284.19 126.07 
M 284.21 134.71 284.74 134.48 285.42 133.9 285.86 133.24 285.86 132.83 285.42 132.17 284.74 131.59 284.21 131.36 
M 284.18 140.6 284.7 140.35 285.35 139.73 285.78 139.03 285.78 138.59 285.35 137.88 284.7 137.26 284.18 137.02 
M 284.19 153.51 284.7 153.24 285.34 152.54 285.76 151.75 285.76 151.26 285.34 150.46 284.7 149.76 284.19 149.49 
M 284.27 160.47 284.81 160.18 285.5 159.45 285.94 158.62 285.94 158.1 285.5 157.27 284.81 156.54 284.27 156.25 
M 284.45 167.73 285.03 167.43 285.77 166.67 286.24 165.81 286.24 165.27 285.77 164.41 285.03 163.65 284.45 163.35 
M 284.71 175.15 285.29 174.85 286.03 174.09 286.51 173.22 286.51 172.68 286.03 171.81 285.29 171.04 284.71 170.74 
M 284.34 196.48 284.88 196.18 285.58 195.43 286.03 194.57 286.03 194.04 285.58 193.18 284.88 192.42 284.34 192.13 
M 286.23 126.45 287.26 125.71 287.64 125.11 287.64 124.73 287.26 124.13 286.23 123.39 
M 286.27 131.71 287.29 130.93 287.66 130.3 287.66 129.91 287.29 129.28 286.27 128.5 
M 286.19 137.33 287.17 136.5 287.52 135.83 287.52 135.41 287.17 134.74 286.19 133.91 
M 286.06 143.31 286.46 143.07 286.98 142.43 287.31 141.71 287.31 141.26 286.98 140.54 286.46 139.91 286.06 139.66 
M 286.02 149.77 286.41 149.5 286.91 148.82 287.24 148.04 287.24 147.56 286.91 146.78 286.41 146.1 286.02 145.83 
M 286.86 171.53 287.35 171.23 287.98 170.45 288.39 169.57 288.39 169.03 287.98 168.15 287.35 167.37 286.86 167.07 
M 288.13 123.8 289.37 123.07 289.81 122.41 
M 288.32 128.95 288.86 128.74 289.56 128.2 290.01 127.58 290.01 127.2 289.56 126.59 288.86 126.05 288.32 125.84 
M 288.23 134.29 288.75 134.07 289.43 133.5 289.86 132.86 289.86 132.47 289.43 131.83 288.75 131.26 288.23 131.04 
M 287.96 139.92 288.46 139.68 289.1 139.08 289.51 138.4 289.51 137.98 289.1 137.31 288.46 136.71 287.96 136.47 
M 287.84 152.84 288.32 152.56 288.93 151.83 289.33 151.01 289.33 150.5 288.93 149.67 288.32 148.94 287.84 148.66 
M 289.16 175.2 289.73 174.9 290.47 174.14 290.94 173.29 290.94 172.76 290.47 171.9 289.73 171.14 289.16 170.84 
M 288.61 189.06 289.15 188.77 289.85 188.05 290.29 187.22 290.29 186.71 289.85 185.88 289.15 185.16 288.61 184.87 
M 290.4 126.24 291.44 125.49 291.82 124.89 291.82 124.52 291.44 123.91 290.4 123.17 
M 290.39 131.4 291.42 130.64 291.79 130.03 291.79 129.65 291.42 129.03 290.39 128.28 
M 290.06 136.71 291.03 135.93 291.39 135.3 291.39 134.9 291.03 134.26 290.06 133.48 
M 290.89 185.47 291.34 185.19 291.91 184.48 292.28 183.67 292.28 183.17 291.91 182.36 291.34 181.65 290.89 181.37 
M 290.57 199.8 291.02 199.5 291.59 198.72 291.96 197.84 291.96 197.29 291.59 196.41 291.02 195.63 290.57 195.33 
M 292.31 123.61 292.86 123.41 293.7 122.71 
M 292.5 128.72 293.05 128.51 293.75 127.98 294.21 127.37 294.21 127 293.75 126.39 293.05 125.86 292.5 125.65 
M 292.25 133.86 292.79 133.65 293.48 133.11 293.92 132.5 293.92 132.12 293.48 131.5 292.79 130.96 292.25 130.75 
M 291.67 139.14 292.18 138.92 292.82 138.35 293.24 137.71 293.24 137.31 292.82 136.66 292.18 136.1 291.67 135.87 
M 291.13 144.99 291.61 144.74 292.22 144.09 292.62 143.36 292.62 142.9 292.22 142.17 291.61 141.52 291.13 141.27 
M 291.35 152.06 291.83 151.76 292.46 151 292.86 150.13 292.86 149.59 292.46 148.72 291.83 147.95 291.35 147.65 
M 293.53 175.15 294.09 174.86 294.82 174.12 295.29 173.27 295.29 172.75 294.82 171.91 294.09 171.16 293.53 170.87 
M 292.57 195.95 293.12 195.66 293.81 194.9 294.26 194.04 294.26 193.51 293.81 192.65 293.12 191.89 292.57 191.59 
M 294.63 126.09 295.69 125.35 296.08 124.74 296.08 124.37 295.69 123.77 294.63 123.03 
M 294.57 131.16 295.62 130.43 296.01 129.83 296.01 129.46 295.62 128.86 294.57 128.12 
M 294 136.18 295.01 135.44 295.38 134.84 295.38 134.46 295.01 133.86 294 133.12 
M 293.08 141.36 294.03 140.56 294.37 139.91 294.37 139.5 294.03 138.85 293.08 138.05 
M 293.62 155.76 294.05 155.42 294.61 154.56 294.96 153.58 294.96 152.97 294.61 152 294.05 151.13 293.62 150.8 
M 295.27 164.33 295.75 164 296.36 163.14 296.75 162.17 296.75 161.57 296.36 160.6 295.75 159.75 295.27 159.41 
M 296.58 123.51 297.54 123 
M 296.76 128.59 297.32 128.38 298.04 127.85 298.5 127.25 298.5 126.88 298.04 126.29 297.32 125.76 296.76 125.55 
M 296.41 133.59 297.68 132.86 298.13 132.27 298.13 131.9 297.68 131.31 296.41 130.57 
M 295.6 138.62 296.14 138.4 296.83 137.86 297.28 137.24 297.28 136.85 296.83 136.23 296.14 135.69 295.6 135.47 
M 294.82 144.28 295.36 144.03 296.04 143.38 296.48 142.66 296.48 142.21 296.04 141.48 295.36 140.83 294.82 140.58 
M 295.12 151.53 295.66 151.22 296.35 150.42 296.8 149.52 296.8 148.96 296.35 148.06 295.66 147.26 295.12 146.95 
M 297.85 175.08 298.42 174.79 299.15 174.06 299.62 173.22 299.62 172.71 299.15 171.87 298.42 171.14 297.85 170.85 
M 296.94 188.61 297.5 188.32 298.22 187.6 298.68 186.78 298.68 186.28 298.22 185.46 297.5 184.73 296.94 184.45 
M 298.96 126.03 300.03 125.29 300.42 124.69 300.42 124.32 300.03 123.72 299.32 123.14 
M 298.88 131.07 299.95 130.35 300.34 129.75 300.34 129.39 299.95 128.8 298.88 128.07 
M 298.2 135.97 299.28 135.24 299.67 134.66 299.67 134.29 299.28 133.7 298.2 132.98 
M 297.1 140.96 297.58 140.74 298.19 140.18 298.59 139.54 298.59 139.15 298.19 138.51 297.58 137.95 297.1 137.73 
M 297.75 155.58 298.23 155.23 298.84 154.34 299.24 153.33 299.24 152.71 298.84 151.7 298.23 150.81 297.75 150.46 
M 300.91 123.46 301.15 123.37 
M 301.08 128.53 301.64 128.33 302.36 127.8 302.83 127.2 302.83 126.83 302.36 126.23 301.64 125.7 301.08 125.5 
M 300.74 133.55 301.31 133.34 302.04 132.82 302.51 132.22 302.51 131.85 302.04 131.25 301.31 130.73 300.74 130.52 
M 299.95 138.6 300.54 138.38 301.31 137.84 301.8 137.21 301.8 136.83 301.31 136.21 300.54 135.66 299.95 135.44 
M 299.52 151.56 300.14 151.25 300.93 150.45 301.44 149.54 301.44 148.99 300.93 148.08 300.14 147.28 299.52 146.97 
M 300.98 160.04 301.57 159.7 302.33 158.83 302.82 157.85 302.82 157.24 302.33 156.25 301.57 155.38 300.98 155.04 
M 302.11 168.03 302.69 167.71 303.42 166.9 303.9 165.98 303.9 165.42 303.42 164.5 302.69 163.69 302.11 163.37 
M 302.22 175.07 302.79 174.78 303.52 174.04 303.99 173.21 303.99 172.69 303.52 171.86 302.79 171.13 302.22 170.84 
M 301.17 195.79 301.76 195.5 302.51 194.74 303 193.88 303 193.35 302.51 192.49 301.76 191.74 301.17 191.44 
M 303.28 125.97 304.34 125.23 304.72 124.63 304.72 124.26 304.47 123.88 
M 302.67 136.11 303.79 135.36 304.2 134.75 304.2 134.38 303.79 133.77 302.67 133.03 
M 301.82 141.36 302.36 141.14 303.05 140.55 303.5 139.9 303.5 139.49 303.05 138.83 302.36 138.25 301.82 138.02 
M 301.38 147.66 301.95 147.38 302.69 146.67 303.16 145.86 303.16 145.35 302.69 144.54 301.95 143.83 301.38 143.55 
M 304.28 178.48 304.76 178.2 305.38 177.49 305.78 176.68 305.78 176.18 305.38 175.37 304.76 174.65 304.28 174.37 
M 305.38 128.46 305.94 128.25 306.66 127.72 307.12 127.12 307.12 126.75 306.66 126.15 305.94 125.61 305.38 125.41 
M 305.16 133.66 305.75 133.45 306.49 132.9 306.97 132.28 306.97 131.89 306.49 131.27 305.75 130.72 305.16 130.51 
M 304.69 139.06 305.32 138.83 306.13 138.25 306.66 137.6 306.66 137.19 306.13 136.54 305.32 135.96 304.69 135.73 
M 304.26 145.03 304.95 144.77 305.83 144.11 306.4 143.37 306.4 142.91 305.83 142.16 304.95 141.51 304.26 141.25 
M 304.55 152.16 305.23 151.85 306.1 151.08 306.66 150.21 306.66 149.66 306.1 148.79 305.23 148.02 304.55 147.71 
M 305.91 188.85 306.51 188.56 307.28 187.83 307.78 187.01 307.78 186.49 307.28 185.67 306.51 184.94 305.91 184.65 
M 307.53 125.82 308.59 125.09 308.94 124.56 
M 307.5 131.01 308.56 130.25 308.95 129.63 308.95 129.24 308.56 128.62 307.5 127.86 
M 307.28 136.47 307.79 136.25 308.44 135.67 308.86 135.01 308.86 134.61 308.44 133.95 307.79 133.37 307.28 133.15 
M 306.99 142.3 307.56 142.06 308.29 141.43 308.76 140.73 308.76 140.29 308.29 139.58 307.56 138.96 306.99 138.72 
M 306.87 148.78 307.48 148.51 308.25 147.8 308.76 147 308.76 146.5 308.25 145.7 307.48 144.99 306.87 144.71 
M 308.92 171.67 309.4 171.37 310.01 170.62 310.4 169.76 310.4 169.23 310.01 168.37 309.4 167.62 308.92 167.32 
M 308.73 178.58 309.21 178.3 309.83 177.57 310.22 176.75 310.22 176.24 309.83 175.42 309.21 174.7 308.73 174.41 
M 308.12 199.79 308.62 199.49 309.27 198.74 309.69 197.88 309.69 197.35 309.27 196.49 308.62 195.74 308.12 195.44 
M 309.67 128.39 310.23 128.18 310.96 127.64 311.43 127.03 311.43 126.66 310.96 126.05 310.23 125.51 309.67 125.3 
M 309.64 133.86 310.23 133.63 310.99 133.05 311.48 132.4 311.48 131.99 310.99 131.33 310.23 130.75 309.64 130.52 
M 309.61 139.75 310.25 139.5 311.08 138.88 311.61 138.17 311.61 137.74 311.08 137.03 310.25 136.41 309.61 136.17 
M 309.82 152.98 310.5 152.69 311.38 151.95 311.95 151.12 311.95 150.6 311.38 149.76 310.5 149.02 309.82 148.73 
M 310.96 168.01 311.54 167.71 312.28 166.94 312.76 166.07 312.76 165.53 312.28 164.65 311.54 163.88 310.96 163.58 
M 311.82 131.02 312.3 130.8 312.92 130.23 313.31 129.58 313.31 129.18 312.92 128.54 312.3 127.97 311.82 127.75 
M 312.19 143.27 312.75 143.01 313.46 142.35 313.92 141.6 313.92 141.13 313.46 140.38 312.75 139.71 312.19 139.46 
M 312.32 149.86 312.89 149.59 313.63 148.89 314.11 148.1 314.11 147.6 313.63 146.81 312.89 146.11 312.32 145.84 
M 312.58 156.93 313.12 156.63 313.82 155.89 314.26 155.04 314.26 154.51 313.82 153.67 313.12 152.92 312.58 152.63 
M 313.3 171.65 313.77 171.36 314.38 170.61 314.78 169.76 314.78 169.23 314.38 168.38 313.77 167.63 313.3 167.33 
M 312.94 185.73 313.43 185.44 314.06 184.7 314.47 183.86 314.47 183.34 314.06 182.5 313.43 181.76 312.94 181.47 
M 314.06 128.42 314.65 128.21 315.4 127.66 315.88 127.05 315.88 126.67 315.4 126.06 314.73 125.58 
M 314.2 134.12 314.8 133.88 315.57 133.28 316.06 132.59 316.06 132.16 315.57 131.48 314.8 130.87 314.2 130.63 
M 314.5 140.37 315.13 140.11 315.94 139.45 316.46 138.71 316.46 138.25 315.94 137.51 315.13 136.86 314.5 136.6 
M 314.74 146.88 315.39 146.61 316.23 145.93 316.77 145.15 316.77 144.67 316.23 143.9 315.39 143.21 314.74 142.95 
M 314.9 153.64 315.55 153.36 316.38 152.65 316.91 151.84 316.91 151.33 316.38 150.52 315.55 149.81 314.9 149.53 
M 315.14 160.75 315.75 160.46 316.53 159.72 317.03 158.87 317.03 158.35 316.53 157.51 315.75 156.76 315.14 156.47 
M 315.14 189.39 315.72 189.1 316.48 188.35 316.96 187.5 316.96 186.98 316.48 186.14 315.72 185.39 315.14 185.1 
M 316.3 131.17 316.8 130.94 317.44 130.36 317.85 129.7 317.85 129.29 317.44 128.63 316.8 128.05 316.3 127.82 
M 316.69 137.36 317.2 137.1 317.86 136.45 318.28 135.71 318.28 135.26 317.86 134.52 317.2 133.87 316.69 133.61 
M 317.32 150.49 317.84 150.22 318.52 149.52 318.95 148.74 318.95 148.25 318.52 147.47 317.84 146.77 317.32 146.5 
M 317.39 157.29 317.9 157.01 318.56 156.29 318.98 155.48 318.98 154.97 318.56 154.16 317.9 153.44 317.39 153.16 
M 317.55 164.42 318.03 164.13 318.65 163.39 319.06 162.54 319.06 162.02 318.65 161.18 318.03 160.43 317.55 160.14 
M 317.67 171.64 318.15 171.35 318.76 170.6 319.15 169.76 319.15 169.23 318.76 168.39 318.15 167.64 317.67 167.35 
M 318.65 128.64 319.27 128.43 320.05 127.89 320.56 127.28 320.56 126.9 320.34 126.63 
M 318.84 134.42 319.45 134.18 320.23 133.56 320.74 132.86 320.74 132.43 320.23 131.73 319.45 131.12 318.84 130.88 
M 319.64 153.98 320.25 153.71 321.02 153 321.52 152.21 321.52 151.72 321.02 150.92 320.25 150.21 319.64 149.94 
M 319.72 160.91 320.31 160.63 321.07 159.9 321.55 159.07 321.55 158.56 321.07 157.74 320.31 157.01 319.72 156.73 
M 319.82 168.04 320.39 167.75 321.13 167.01 321.6 166.17 321.6 165.65 321.13 164.81 320.39 164.07 319.82 163.78 
M 320.99 131.48 321.51 131.25 322.18 130.67 322.6 130.02 322.6 129.61 322.18 128.95 321.51 128.38 320.99 128.15 
M 321.37 137.66 321.87 137.41 322.53 136.76 322.95 136.02 322.95 135.57 322.53 134.83 321.87 134.19 321.37 133.93 
M 321.77 144.16 322.27 143.89 322.91 143.22 323.32 142.45 323.32 141.98 322.91 141.21 322.27 140.54 321.77 140.27 
M 322 164.47 322.48 164.19 323.1 163.45 323.5 162.62 323.5 162.1 323.1 161.27 322.48 160.54 322 160.25 
M 322.05 171.62 322.52 171.33 323.13 170.59 323.52 169.75 323.52 169.23 323.13 168.39 322.52 167.66 322.05 167.37 
M 323.86 140.99 324.46 140.74 325.23 140.08 325.72 139.34 325.72 138.88 325.23 138.14 324.46 137.49 323.86 137.23 
M 324.08 147.47 324.67 147.2 325.42 146.53 325.91 145.76 325.91 145.28 325.42 144.52 324.67 143.84 324.08 143.57 
M 324.15 154.11 324.73 153.83 325.48 153.13 325.96 152.34 325.96 151.85 325.48 151.06 324.73 150.36 324.15 150.09 
M 324.22 168.05 324.79 167.76 325.52 167.02 326 166.19 326 165.67 325.52 164.84 324.79 164.1 324.22 163.82 
M 324.14 175.12 324.71 174.83 325.44 174.09 325.9 173.25 325.9 172.74 325.44 171.9 324.71 171.16 324.14 170.88 
M 325.82 131.91 326.34 131.69 327.02 131.12 327.45 130.48 327.45 130.08 327.02 129.44 326.34 128.87 325.82 128.65 
M 326.02 137.9 326.53 137.65 327.18 137.02 327.59 136.31 327.59 135.87 327.18 135.15 326.53 134.52 326.02 134.28 
M 326.27 144.25 326.76 143.99 327.39 143.33 327.79 142.58 327.79 142.11 327.39 141.36 326.76 140.7 326.27 140.44 
M 326.37 150.76 326.85 150.5 327.46 149.81 327.86 149.04 327.86 148.56 327.46 147.78 326.85 147.1 326.37 146.83 
M 326.38 157.5 326.86 157.23 327.47 156.52 327.87 155.71 327.87 155.22 327.47 154.41 326.86 153.7 326.38 153.42 
M 326.03 185.7 326.49 185.41 327.08 184.67 327.47 183.82 327.47 183.3 327.08 182.46 326.49 181.71 326.03 181.42 
M 325.95 192.89 326.41 192.6 326.99 191.86 327.36 191.01 327.36 190.49 326.99 189.65 326.41 188.9 325.95 188.61 
M 328.25 129.48 328.87 129.27 329.77 128.61 
M 328.27 135.05 328.88 134.82 329.67 134.23 330.17 133.56 330.17 133.14 329.67 132.47 328.88 131.88 328.27 131.65 
M 328.42 141.14 329.01 140.89 329.77 140.25 330.26 139.53 330.26 139.08 329.77 138.35 329.01 137.71 328.42 137.46 
M 328.58 161 329.16 160.72 329.89 160 330.36 159.18 330.36 158.68 329.89 157.86 329.16 157.14 328.58 156.86 
M 328.51 175.1 329.08 174.81 329.81 174.08 330.28 173.25 330.28 172.73 329.81 171.9 329.08 171.17 328.51 170.88 
M 329.29 200.66 328.93 200.01 328.25 199.29 327.72 199.02 
M 330.6 132.3 331.11 132.08 331.76 131.53 332.18 130.89 332.18 130.5 331.76 129.87 331.11 129.31 330.6 129.09 
M 330.64 138.1 331.14 137.86 331.78 137.25 332.19 136.55 332.19 136.12 331.78 135.43 331.14 134.82 330.64 134.58 
M 330.74 144.31 331.22 144.05 331.84 143.4 332.24 142.66 332.24 142.21 331.84 141.47 331.22 140.82 330.74 140.56 
M 330.78 150.79 331.25 150.52 331.87 149.84 332.26 149.07 332.26 148.59 331.87 147.82 331.25 147.14 330.78 146.87 
M 329.92 199.61 330.36 199.33 330.93 198.61 331.29 197.79 331.29 197.28 330.93 196.47 330.36 195.75 329.92 195.46 
M 332.9 129.78 333.69 129.43 
M 332.89 135.28 333.48 135.05 334.24 134.47 334.73 133.81 334.73 133.4 334.24 132.74 333.48 132.15 332.89 131.92 
M 332.92 141.24 333.51 141 334.25 140.37 334.74 139.66 334.74 139.22 334.25 138.5 333.51 137.87 332.92 137.63 
M 332.96 147.56 333.54 147.3 334.27 146.64 334.75 145.89 334.75 145.42 334.27 144.67 333.54 144 332.96 143.74 
M 332.97 154.16 333.54 153.89 334.28 153.2 334.75 152.41 334.75 151.93 334.28 151.14 333.54 150.45 332.97 150.18 
M 332.22 188.9 332.76 188.61 333.44 187.89 333.89 187.07 333.89 186.56 333.44 185.74 332.76 185.01 332.22 184.73 
M 335.16 138.22 335.64 137.98 336.26 137.38 336.66 136.69 336.66 136.27 336.26 135.58 335.64 134.98 335.16 134.74 
M 335.16 144.34 335.64 144.09 336.26 143.45 336.65 142.71 336.65 142.26 336.26 141.53 335.64 140.88 335.16 140.63 
M 335.17 150.8 335.65 150.54 336.26 149.86 336.65 149.09 336.65 148.61 336.26 147.85 335.65 147.17 335.17 146.9 
M 335.16 157.53 335.64 157.26 336.25 156.55 336.65 155.75 336.65 155.25 336.25 154.45 335.64 153.75 335.16 153.47 
M 335.14 164.48 335.62 164.19 336.23 163.46 336.62 162.63 336.62 162.12 336.23 161.29 335.62 160.56 335.14 160.28 
M 334.06 192.17 334.49 191.88 335.04 191.16 335.4 190.34 335.4 189.83 335.04 189.01 334.49 188.28 334.06 188 
M 337.34 135.36 337.91 135.13 338.64 134.55 339.12 133.88 339.12 133.47 338.64 132.81 337.91 132.22 337.34 132 
M 337.35 141.29 337.93 141.04 338.66 140.42 339.13 139.71 339.13 139.27 338.66 138.56 337.93 137.93 337.35 137.69 
M 337.36 147.58 337.93 147.32 338.66 146.66 339.13 145.91 339.13 145.44 338.66 144.69 337.93 144.03 337.36 143.77 
M 337.35 161.01 337.92 160.73 338.65 160.01 339.12 159.2 339.12 158.69 338.65 157.88 337.92 157.16 337.35 156.88 
M 337.35 168.05 337.92 167.76 338.65 167.03 339.12 166.2 339.12 165.68 338.65 164.85 337.92 164.12 337.35 163.83 
M 336.87 181.86 337.42 181.58 338.13 180.87 338.59 180.08 338.59 179.58 338.13 178.78 337.42 178.08 336.87 177.8 
M 339.5 132.48 340.56 131.69 340.94 130.92 
M 339.54 138.24 340.01 138 340.62 137.39 341 136.7 341 136.28 340.62 135.59 340.01 134.98 339.54 134.74 
M 341.7 141.27 342.26 141.02 342.98 140.39 343.45 139.68 343.45 139.24 342.98 138.53 342.26 137.9 341.7 137.65 
M 341.72 147.56 342.28 147.3 343 146.64 343.47 145.89 343.47 145.42 343 144.67 342.28 144.01 341.72 143.75 
M 341.72 154.16 342.29 153.89 343.01 153.2 343.48 152.41 343.48 151.93 343.01 151.14 342.29 150.45 341.72 150.17 
M 341.73 161.02 342.3 160.74 343.03 160.02 343.5 159.2 343.5 158.7 343.03 157.89 342.3 157.17 341.73 156.89 
M 341.73 168.05 342.3 167.76 343.03 167.03 343.5 166.2 343.5 165.69 343.03 164.86 342.3 164.13 341.73 163.84 
M 341.61 175.02 342.17 174.74 342.88 174.03 343.35 173.21 343.35 172.71 342.88 171.9 342.17 171.19 341.61 170.91 
M 343.71 132.33 344.61 131.66 
M 343.82 138.16 344.29 137.92 344.88 137.31 345.26 136.61 345.26 136.18 344.88 135.48 344.29 134.87 343.82 134.63 
M 343.88 144.31 344.35 144.06 344.94 143.41 345.33 142.68 345.33 142.22 344.94 141.49 344.35 140.84 343.88 140.59 
M 343.88 150.77 344.35 150.5 344.95 149.82 345.34 149.05 345.34 148.57 344.95 147.8 344.35 147.12 343.88 146.86 
M 343.91 157.53 344.38 157.26 344.98 156.55 345.37 155.74 345.37 155.24 344.98 154.44 344.38 153.73 343.91 153.45 
M 343.93 164.51 344.4 164.23 345.01 163.5 345.4 162.67 345.4 162.16 345.01 161.33 344.4 160.6 343.93 160.31 
M 343.92 171.58 344.39 171.3 344.99 170.57 345.38 169.74 345.38 169.23 344.99 168.41 344.39 167.68 343.92 167.39 
M 345.86 135.16 346.41 134.92 347.11 134.33 347.56 133.65 347.56 133.23 347.11 132.55 346.51 132.04 
M 345.97 141.17 346.53 140.93 347.24 140.29 347.69 139.58 347.69 139.13 347.24 138.41 346.53 137.78 345.97 137.53 
M 346.01 147.49 346.57 147.23 347.29 146.56 347.75 145.81 347.75 145.34 347.29 144.59 346.57 143.92 346.01 143.66 
M 346.08 168 346.64 167.72 347.36 166.99 347.82 166.17 347.82 165.66 347.36 164.84 346.64 164.11 346.08 163.83 
M 345.08 181.19 345.6 180.93 346.26 180.26 346.69 179.5 346.69 179.04 346.26 178.28 345.6 177.61 345.08 177.35 
M 348.04 138.02 348.5 137.77 349.08 137.15 349.46 136.45 349.46 136.01 349.08 135.31 348.5 134.69 348.04 134.45 
M 348.26 164.47 348.73 164.18 349.32 163.45 349.71 162.62 349.71 162.11 349.32 161.29 348.73 160.55 348.26 160.27 
M 348.2 171.44 348.66 171.17 349.25 170.45 349.62 169.64 349.62 169.14 349.25 168.33 348.66 167.61 348.2 167.33 
M 345.3 197.44 345.71 197.16 346.23 196.43 346.56 195.61 346.56 195.11 346.23 194.29 345.71 193.56 345.3 193.28 
M 350.01 134.95 350.55 134.71 351.24 134.11 351.68 133.42 351.68 133.07 
M 350.19 141.03 350.74 140.78 351.44 140.14 351.89 139.42 351.89 138.97 351.44 138.25 350.74 137.61 350.19 137.36 
M 350.27 147.37 350.83 147.11 351.54 146.45 351.99 145.69 351.99 145.22 351.54 144.47 350.83 143.8 350.27 143.54 
M 350.3 153.99 350.85 153.72 351.56 153.02 352.02 152.23 352.02 151.74 351.56 150.95 350.85 150.26 350.3 149.98 
M 350.34 160.88 350.9 160.6 351.6 159.88 352.06 159.06 352.06 158.56 351.6 157.74 350.9 157.02 350.34 156.74 
M 350.32 167.84 350.87 167.56 351.57 166.84 352.02 166.03 352.02 165.53 351.57 164.72 350.87 164 350.32 163.72 
M 347.76 186.72 348.24 186.45 348.86 185.78 349.26 185.03 349.26 184.56 348.86 183.8 348.24 183.13 347.76 182.87 
M 347.16 193.46 347.64 193.19 348.25 192.47 348.65 191.67 348.65 191.17 348.25 190.36 347.64 189.65 347.16 189.37 
M 352.2 137.82 352.65 137.58 353.23 136.95 353.6 136.23 353.6 135.79 353.23 135.08 352.65 134.45 352.2 134.2 
M 352.38 144.08 352.84 143.82 353.43 143.17 353.81 142.42 353.81 141.96 353.43 141.22 352.84 140.56 352.38 140.31 
M 352.41 150.54 352.87 150.28 353.47 149.6 353.85 148.82 353.85 148.35 353.47 147.57 352.87 146.89 352.41 146.62 
M 352.49 164.3 352.94 164.02 353.52 163.29 353.9 162.47 353.9 161.96 353.52 161.14 352.94 160.42 352.49 160.13 
M 352.34 171.16 352.78 170.88 353.35 170.18 353.72 169.39 353.72 168.9 353.35 168.11 352.78 167.41 352.34 167.14 
M 354.09 134.67 354.62 134.43 355.27 133.83 
M 354.36 140.85 354.9 140.59 355.6 139.95 356.04 139.21 356.04 138.76 355.6 138.02 354.9 137.38 354.36 137.12 
M 354.5 147.23 355.05 146.97 355.75 146.3 356.21 145.54 356.21 145.07 355.75 144.31 355.05 143.64 354.5 143.38 
M 354.53 153.84 355.08 153.56 355.78 152.87 356.23 152.08 356.23 151.59 355.78 150.81 355.08 150.11 354.53 149.84 
M 351.31 185.84 351.78 185.58 352.39 184.92 352.78 184.17 352.78 183.71 352.39 182.96 351.78 182.3 351.31 182.04 
M 356.3 137.56 356.74 137.31 357.3 136.67 357.67 135.95 357.67 135.5 357.3 134.77 356.78 134.18 
M 356.62 157.1 357.07 156.82 357.65 156.12 358.02 155.32 358.02 154.82 357.65 154.02 357.07 153.32 356.62 153.04 
M 355.38 176.79 355.79 176.54 356.33 175.91 356.67 175.2 356.67 174.76 356.33 174.04 355.79 173.41 355.38 173.17 
M 353.67 182.27 354.58 181.41 354.91 180.71 354.91 180.27 354.58 179.57 353.67 178.7 
M 358.69 153.6 359.22 153.33 359.91 152.64 360.35 151.86 360.35 151.38 359.91 150.59 359.22 149.9 358.69 149.63 
M 358.63 160.36 359.16 160.09 359.84 159.38 360.27 158.58 360.27 158.09 359.84 157.29 359.16 156.59 358.63 156.31 
M 358.43 167.11 358.95 166.84 359.61 166.15 360.04 165.36 360.04 164.87 359.61 164.09 358.95 163.4 358.43 163.13 
M 357.75 173.44 358.26 173.18 358.9 172.53 359.32 171.8 359.32 171.34 358.9 170.6 358.26 169.95 357.75 169.7 
M 354.82 184.94 355.3 184.68 355.91 184.03 356.3 183.29 356.3 182.83 355.91 182.08 355.3 181.43 354.82 181.17 
M 360.71 156.78 361.15 156.51 361.71 155.81 362.07 155.02 362.07 154.53 361.71 153.74 361.15 153.04 360.71 152.77 
M 360.19 170.16 360.62 169.89 361.16 169.22 361.51 168.46 361.51 167.99 361.16 167.23 360.62 166.56 360.19 166.29 
M 362.7 146.68 363.21 146.42 363.87 145.74 364.29 144.97 364.29 144.5 363.87 143.73 363.21 143.05 362.7 142.79 
M 361.55 172.82 362.04 172.57 362.68 171.92 363.08 171.2 363.08 170.74 362.68 170.02 362.04 169.37 361.55 169.12 
M 360.04 178.42 360.53 178.18 361.16 177.56 361.56 176.87 361.56 176.44 361.16 175.75 360.53 175.13 360.04 174.89 
M 364.12 136.67 364.83 136.05 
M 364.6 143.21 365.02 142.95 365.55 142.27 365.9 141.5 365.9 141.03 365.55 140.26 365.02 139.58 364.6 139.31 
M 364.47 163.04 364.88 162.77 365.4 162.07 365.74 161.28 365.74 160.79 365.4 160 364.88 159.3 364.47 159.03 
M 362.87 175.45 363.8 174.59 364.13 173.9 364.13 173.47 363.8 172.77 362.87 171.92 
M 359.6 186.85 360.02 186.58 360.55 185.89 360.9 185.1 360.9 184.61 360.55 183.82 360.02 183.12 359.6 182.85 
M 366.19 139.56 366.67 139.3 367.3 138.63 367.7 137.88 367.7 137.41 367.33 136.72 
M 366.48 146.07 366.96 145.81 367.58 145.13 367.98 144.36 367.98 143.88 367.58 143.12 366.96 142.44 366.48 142.17 
M 366.48 152.6 366.96 152.33 367.57 151.64 367.97 150.87 367.97 150.39 367.57 149.61 366.96 148.93 366.48 148.66 
M 366.01 165.87 366.48 165.6 367.08 164.92 367.47 164.15 367.47 163.67 367.08 162.9 366.48 162.22 366.01 161.95 
M 362.19 183.53 362.7 183.27 363.35 182.61 363.76 181.86 363.76 181.4 363.35 180.66 362.7 180 362.19 179.74 
M 368.23 142.44 368.63 142.18 369.13 141.5 369.45 140.74 369.45 140.26 369.13 139.5 368.63 138.82 368.23 138.56 
M 368.34 148.92 368.73 148.65 369.23 147.97 369.54 147.21 369.54 146.73 369.23 145.96 368.73 145.28 368.34 145.02 
M 363.68 194.05 364.13 193.74 364.71 192.94 365.08 192.04 365.08 191.48 364.71 190.58 364.13 189.78 363.68 189.47 
M 369.71 138.65 370.18 138.4 370.82 137.65 
M 369.86 151.56 370.31 151.29 370.88 150.61 371.25 149.84 371.25 149.37 370.88 148.6 370.31 147.92 369.86 147.65 
M 369.65 158.14 370.09 157.87 370.66 157.18 371.03 156.41 371.03 155.92 370.66 155.15 370.09 154.46 369.65 154.19 
M 371.54 147.68 372.37 146.75 372.68 145.99 372.68 145.52 372.37 144.76 371.54 143.84 
M 371.34 154.16 372.16 153.21 372.46 152.44 372.46 151.97 372.16 151.19 371.34 150.25 
M 371.03 160.75 371.84 159.8 372.13 159.02 372.13 158.55 371.84 157.77 371.03 156.82 
M 370.44 167.18 371.24 166.25 371.53 165.5 371.53 165.03 371.24 164.27 370.44 163.34 
M 373.07 143.78 373.51 143.52 374.07 142.87 374.44 142.13 374.44 141.67 374.07 140.93 373.51 140.27 373.07 140.02 
M 372.58 156.62 373.01 156.35 373.55 155.68 373.91 154.91 373.91 154.44 373.55 153.68 373.01 153 372.58 152.74 
M 372.06 163.07 372.48 162.8 373.02 162.13 373.37 161.37 373.37 160.89 373.02 160.13 372.48 159.46 372.06 159.19 
M 370.6 176.02 371.07 175.75 371.66 175.05 372.04 174.26 372.04 173.77 371.66 172.98 371.07 172.29 370.6 172.02 
M 370.11 182.87 370.64 182.59 371.32 181.86 371.76 181.04 371.76 180.53 371.32 179.7 370.64 178.97 370.11 178.69 
M 370.01 190.13 370.58 189.83 371.3 189.06 371.76 188.19 371.76 187.65 371.3 186.77 370.58 186 370.01 185.7 
M 371.15 193.64 370.47 193.18 
M 374.67 139.94 375.05 139.69 375.58 138.92 
M 372.12 186.42 372.59 186.12 373.2 185.36 373.59 184.5 373.59 183.96 373.2 183.1 372.59 182.34 372.12 182.04 
M 376.19 142.44 376.65 142.19 377.23 141.56 377.61 140.84 377.61 140.39 376.86 139.26 
M 374.16 167.97 374.6 167.7 375.16 166.99 375.52 166.18 375.52 165.69 375.16 164.88 374.6 164.17 374.16 163.9 
M 373.98 175.17 374.45 174.87 375.06 174.11 375.46 173.25 375.46 172.72 375.06 171.86 374.45 171.1 373.98 170.81 
M 374.34 190.12 374.9 189.81 375.62 189.03 376.08 188.14 376.08 187.59 375.62 186.71 374.9 185.92 374.34 185.62 
M 377.64 144.88 378.52 143.98 378.84 143.25 378.84 142.8 378.52 142.07 377.64 141.18 
M 377.26 151.18 378.14 150.27 378.46 149.53 378.46 149.07 378.14 148.33 377.26 147.41 
M 375.82 163.76 376.19 163.49 376.67 162.81 376.98 162.03 376.98 161.55 376.67 160.78 376.19 160.09 375.82 159.83 
M 375.97 178.76 376.4 178.44 376.94 177.63 377.29 176.71 377.29 176.14 376.94 175.21 376.4 174.4 375.97 174.08 
M 379.65 141.45 380.14 141.21 380.91 140.36 
M 378.75 153.9 379.24 153.64 379.86 152.99 380.27 152.25 380.27 151.79 379.86 151.05 379.24 150.4 378.75 150.14 
M 377.42 166.9 377.91 166.61 378.54 165.88 378.94 165.05 378.94 164.54 378.54 163.71 377.91 162.98 377.42 162.69 
M 380.9 150.41 381.34 150.15 381.89 149.5 382.25 148.76 382.25 148.31 381.89 147.57 381.34 146.92 380.9 146.67 
M 379.08 170.11 379.52 169.81 380.08 169.02 380.44 168.13 380.44 167.58 380.08 166.68 379.52 165.9 379.08 165.59 
M 383.25 147.23 383.81 146.98 384.53 146.34 384.99 145.61 384.99 145.15 384.53 144.42 383.81 143.78 383.25 143.53 
M 382.71 153.47 383.27 153.21 383.98 152.56 384.44 151.82 384.44 151.36 383.98 150.63 383.27 149.97 382.71 149.72 
M 381.39 166.49 381.95 166.2 382.67 165.46 383.14 164.63 383.14 164.11 382.67 163.28 381.95 162.54 381.39 162.25 
M 381.64 174.2 382.2 173.88 382.92 173.07 383.38 172.15 383.38 171.58 382.92 170.66 382.2 169.85 381.64 169.53 
M 382.35 182.22 382.91 181.9 383.62 181.08 384.08 180.16 384.08 179.58 383.62 178.66 382.91 177.84 382.35 177.52 
M 385.6 144.05 386.1 143.8 386.73 143.16 387.14 142.44 387.14 142.02 
M 385.21 150.34 385.7 150.08 386.34 149.43 386.75 148.69 386.75 148.24 386.34 147.5 385.7 146.85 385.21 146.59 
M 384.52 156.54 385.02 156.28 385.66 155.63 386.07 154.89 386.07 154.43 385.66 153.69 385.02 153.03 384.52 152.78 
M 387.79 147.41 388.41 147.16 389.2 146.51 389.71 145.78 389.71 145.32 389.2 144.59 388.41 143.94 387.79 143.69 
M 386.55 159.97 387.18 159.71 387.98 159.03 388.5 158.27 388.5 157.8 387.98 157.04 387.18 156.36 386.55 156.1 
M 390.37 144.46 390.9 144.21 391.79 143.23 
M 390 150.78 390.54 150.52 391.22 149.87 391.66 149.12 391.66 148.67 391.22 147.92 390.54 147.27 390 147.01 
M 389.36 157.03 389.91 156.78 390.6 156.12 391.05 155.37 391.05 154.91 390.6 154.16 389.91 153.5 389.36 153.25 
M 388.26 170.49 388.8 170.19 389.5 169.43 389.95 168.56 389.95 168.02 389.5 167.15 388.8 166.38 388.26 166.08 
M 392.2 154.26 392.85 154 393.69 153.34 394.23 152.59 394.23 152.13 393.69 151.38 392.85 150.72 392.2 150.46 
M 391.54 160.61 392.2 160.35 393.05 159.67 393.6 158.91 393.6 158.43 393.05 157.67 392.2 156.99 391.54 156.73 
M 390.99 167.33 391.66 167.05 392.51 166.33 393.06 165.5 393.06 165 392.51 164.18 391.66 163.45 390.99 163.17 
M 392.97 188.68 393.44 187.86 393.44 187.32 392.95 186.46 392.18 185.69 391.58 185.39 
M 394.44 157.77 394.99 157.51 395.7 156.85 396.15 156.09 396.15 155.63 395.7 154.87 394.99 154.21 394.44 153.95 
M 393.75 164.22 394.31 163.95 395.03 163.26 395.5 162.48 395.5 161.99 395.03 161.21 394.31 160.52 393.75 160.25 
M 393.36 171.2 393.92 170.9 394.63 170.15 395.09 169.3 395.09 168.78 394.63 167.93 393.92 167.18 393.36 166.88 
M 397.61 148.52 398.25 148.27 399.06 147.62 399.58 146.88 399.58 146.42 399.06 145.68 398.25 145.02 397.61 144.77 
M 397.19 154.9 397.83 154.64 398.65 153.98 399.18 153.22 399.18 152.75 398.65 152 397.83 151.33 397.19 151.07 
M 396.08 168.05 396.74 167.77 397.58 167.05 398.12 166.24 398.12 165.73 397.58 164.92 396.74 164.2 396.08 163.92 
M 395.97 175.3 396.62 175 397.44 174.24 397.97 173.38 397.97 172.84 397.44 171.98 396.62 171.22 395.97 170.92 
M 396.17 182.8 396.79 182.5 397.59 181.73 398.11 180.85 398.11 180.31 397.59 179.44 396.79 178.67 396.17 178.37 
M 400.2 145.58 400.49 145.44 
M 399.9 151.99 400.42 151.73 401.08 151.07 401.51 150.31 401.51 149.85 401.08 149.09 400.42 148.43 399.9 148.16 
M 401.43 161.82 402.04 161.55 402.83 160.86 403.33 160.09 403.33 159.6 402.83 158.83 402.04 158.14 401.43 157.87 
M 400.96 168.57 401.58 168.28 402.37 167.57 402.88 166.75 402.88 166.25 402.37 165.44 401.58 164.72 400.96 164.44 
M 400.81 175.75 401.42 175.45 402.21 174.7 402.72 173.84 402.72 173.32 402.21 172.46 401.42 171.71 400.81 171.41 
M 404.47 152.2 404.94 151.94 405.55 151.27 405.94 150.51 405.94 150.04 405.55 149.28 404.94 148.61 404.47 148.35 
M 406.36 155.37 406.92 155.11 407.63 154.43 408.09 153.66 408.09 153.18 407.63 152.41 406.92 151.73 406.36 151.47 
M 405.92 161.95 406.49 161.68 407.22 160.99 407.69 160.2 407.69 159.72 407.22 158.93 406.49 158.24 405.92 157.97 
M 407.87 165.28 408.33 165.01 408.93 164.3 409.32 163.5 409.32 163 408.93 162.2 408.33 161.49 407.87 161.22 
M 409.1 184.44 408.78 183.72 408.19 182.97 407.72 182.67 
M 410.71 148.52 411.33 148.16 
M 410.48 155.14 411.01 154.87 411.69 154.18 412.13 153.4 412.13 152.91 411.69 152.13 411.01 151.44 410.48 151.17 
M 409.69 175.88 410.25 175.59 410.96 174.84 411.42 173.98 411.42 173.46 410.96 172.6 410.25 171.85 409.69 171.56 
M 412.57 151.59 413 151.32 413.55 150.63 413.9 149.85 413.9 149.37 413.62 148.74 
M 412.39 158.35 412.84 158.07 413.41 157.37 413.78 156.57 413.78 156.08 413.41 155.28 412.84 154.57 412.39 154.3 
M 412.1 165.16 412.56 164.88 413.15 164.16 413.53 163.35 413.53 162.85 413.15 162.04 412.56 161.33 412.1 161.05 
M 411.81 172.13 412.27 171.85 412.86 171.11 413.25 170.27 413.25 169.75 412.86 168.91 412.27 168.17 411.81 167.88 
M 414.49 154.81 415.02 154.53 415.71 153.83 416.15 153.03 416.15 152.53 415.71 151.73 415.02 151.03 414.49 150.75 
M 414.34 161.68 414.89 161.4 415.6 160.68 416.06 159.87 416.06 159.37 415.6 158.55 414.89 157.84 414.34 157.56 
M 414.09 168.59 414.65 168.31 415.37 167.58 415.84 166.76 415.84 166.25 415.37 165.42 414.65 164.69 414.09 164.41 
M 413.88 182.98 414.43 182.68 415.13 181.92 415.58 181.06 415.58 180.53 415.13 179.67 414.43 178.91 413.88 178.61 
M 416.49 151.16 416.93 150.89 417.69 149.77 
M 416.5 158.13 416.97 157.85 417.56 157.13 417.94 156.31 417.94 155.8 417.56 154.98 416.97 154.26 416.5 153.97 
M 418.65 154.63 419.22 154.35 419.95 153.63 420.42 152.81 420.42 152.31 419.95 151.49 419.22 150.77 418.65 150.49 
M 418.47 168.61 419.07 168.32 419.83 167.6 420.32 166.77 420.32 166.26 419.83 165.43 419.07 164.7 418.47 164.42 
M 419.63 181.5 419.94 180.94 419.94 180.4 419.46 179.54 418.72 178.79 418.14 178.49 
M 420.72 151.05 421.3 150.66 
M 420.59 172.13 421.1 171.85 421.76 171.12 422.18 170.29 422.18 169.78 421.76 168.96 421.1 168.23 420.59 167.94 
M 424.44 180.17 423.41 179.05 422.77 178.76 
M 425.74 158.69 426.31 158.4 427.03 157.66 427.49 156.82 427.49 156.29 427.03 155.45 426.31 154.71 425.74 154.41 
M 428.32 155.61 429.03 155.32 429.52 154.93 
M 428.44 162.74 429.52 162.16 
M 429.52 159.09 428.44 158.5 
M 214.1 128.92 214.1 128.92 
M 219.19 127.89 222.52 97.1 223.23 94.17 225.78 93.09 228.08 91.75 231.99 88.4 235.12 80.44 237.82 79.43 240.22 78.12 242.42 76.61 244.35 74.82 245.38 72.15 246.69 69.75 247.75 67.11 252.23 64.2 258.53 63.46 261.24 62.59 263.33 61.09 265.04 59.19 267.16 57.71 275.95 60.45 278.34 60.99 280.76 61.32 282.69 61.19 284.85 62.07 288.2 63.8 291.59 65.23 293.56 63.57 298.66 61.76 301.01 61.08 303.09 60.13 306.19 60.17 308.45 60.58 312.49 63.07 314.67 65.31 315.96 67.69 316.61 69.43 317.96 72.03 319.64 76.42 321.65 80.98 323.48 84.02 324.76 86.53 329.41 92.11 330.88 94.12 331.82 97.97 332.71 100.76 333.11 103.06 332.22 107.99 332 110.9 332.25 114.28 331.87 116.22 325.87 127.78 
M 321.37 126.83 321.37 126.83 
M 218.39 128.05 219.31 126.64 220.98 120.17 222.07 117.71 222.71 112.93 223.77 107.97 222.83 102.65 
M 222.68 127.18 223.69 126.1 224.4 124.17 224.64 121.96 224.43 119.42 224.7 117.11 225.22 114.68 226.74 112.03 228.16 107.56 228.03 104.16 227.42 100.92 227.66 97.25 227.06 95.76 226.97 93.87 
M 226.98 126.4 228.18 124.91 228.85 122.8 229.2 120.47 229.39 116.03 230.29 113.26 232.61 108.21 233.14 105.19 
M 231.3 125.71 232.36 124.01 232.89 121.75 233.01 119.24 233.92 114.49 235.13 111.51 236.54 108.63 236.72 105.3 237.53 103.43 237.2 102 238.18 98.01 238.2 93.76 237.65 91.16 
M 235.62 125.03 236.78 123.33 237.54 118.43 238.06 116.03 238.81 113.59 239.77 111.69 240.33 108.63 241.18 106.08 241.33 101.64 242.46 98.91 242.53 96.03 244.56 89.78 244.76 87.25 244.49 84.37 244.9 81.51 246.01 79.27 247.68 76.84 
M 239.96 124.52 241.5 123.14 242.42 120.85 243.66 115.49 244.4 113.27 247.56 98.23 248.17 96.05 
M 244.31 124.01 245.93 122.56 246.74 120.28 248.09 115 248.35 112.66 248.92 110.27 250.09 107.89 250.5 105.62 251.76 101.28 252.18 98.38 252.25 95.81 252.93 92.35 254.62 89.64 255.14 87.06 256.13 83.54 256.32 81.45 255.43 78.55 255.74 76.49 
M 248.66 123.56 249.79 121.97 251.19 116.84 251.68 114.26 252.78 111.9 254.19 109.64 255.58 105.45 256.03 103.55 256.14 100.78 258.69 92.58 259.76 90.42 260.13 85.85 260.97 84.75 261.5 77.82 263.08 74.59 264.15 70.32 265.09 68.78 266.11 66.17 
M 253.02 123.18 254.08 121.46 255.11 118.99 255.8 116.85 257.93 112.27 259.29 106.85 259.71 104.53 259.54 102.62 260.23 98.65 261.06 95.37 263.33 92.19 264.08 90.08 265.17 87.93 265.67 86.19 
M 257.38 122.82 258.96 120.83 262.28 114.95 264.04 109.13 264.67 106.43 264.88 104.27 265.41 102.33 265.46 100.03 266.15 97.28 267.35 94.75 268.95 92.88 270.37 88.73 271.58 86.09 272.98 84.45 273.08 82.13 
M 261.75 122.74 263.52 120.75 264.44 118.77 265.94 114.6 267.13 112.24 267.69 109.32 267.83 107.29 268.99 104.48 270.26 102.16 273.23 95.72 274.2 94.09 274.83 91.83 275.37 88.5 276.17 85.62 276.05 83.29 276.68 80.5 277.78 78.2 278.34 70.85 
M 266.13 122.65 268.04 121.02 270.15 114.88 270.49 111.91 271.56 109.41 272.84 107.28 273.91 104.97 274.56 102.43 276.29 99.86 277.32 97.29 278.89 92.58 279.31 90.62 280.64 88.08 280.82 85.73 280.69 82.89 281.44 80.99 281.57 77.21 283.66 72.16 
M 270.5 122.6 272.34 121.19 273.37 118.99 273.92 116.92 274.81 114.84 277.39 110.48 279.14 108.25 279.96 105.55 280.32 101.66 281.87 96.39 282.7 94.26 
M 274.87 122.57 276.33 121.2 277.6 118.83 278.3 116.69 279.34 114.48 280.91 112.02 282.37 110.11 283.34 108.05 283.67 105.29 286.88 96.4 286.67 94.26 287.93 89.66 289.39 88.52 290.6 86.97 290.65 84.98 292.02 81.77 293.32 79.57 
M 279.25 122.54 280.72 120.89 282.19 118.75 283.5 116.63 284.7 114.24 285.33 109.25 286.76 104.72 287.93 101.97 289.51 99.61 290.39 96.96 290.99 94.32 292.17 92.54 292.54 89.97 294.12 88.44 294.95 86.53 294.6 83.81 297.41 79.46 298.27 76.2 
M 283.62 122.46 285.24 120.55 286.49 118.43 288.08 116.64 289.13 114.21 289.74 111.5 290.43 106.94 291.7 104.17 293.23 102.19 294.44 99.82 296.46 95.16 297.13 92.83 298.29 90.05 298.67 86 299.31 84.72 300.3 81.64 
M 287.99 122.38 289.77 120.63 291.16 118.94 294.84 109.26 296.48 106.46 297.36 104.39 298.85 103.37 300.18 100.9 301 98.52 301.84 95.35 302.16 92.27 302.84 88.92 
M 292.36 122.61 294.28 121.34 295.48 119.49 296.28 117.16 300.32 110.02 302.54 105.53 303.91 103.3 304.98 100.82 305.32 97.95 306.13 96.71 308.47 89.53 
M 296.73 122.94 298.92 121.39 304.51 112.9 305.28 110.97 307.49 106.46 308.5 103.87 310.52 97.44 313.03 93.7 313.84 90.67 314.88 87.86 
M 301.08 123.36 303.54 121.88 305.61 119.95 306.93 117.96 307.38 115.36 309.85 112.05 310.75 109.54 313 104.85 313.8 102.85 315.25 100.7 316.77 98.88 318.48 95.67 320.54 93.92 
M 305.4 124.02 307.8 122.85 309.36 120.84 312.7 115.67 313.93 113.05 315.6 110.29 317.07 108.46 317.99 106.17 319.64 104.33 321.05 101.77 323.85 99.51 325.38 96.62 
M 309.73 124.68 311.79 123.62 316.46 118.41 320.67 112.12 323.66 108.19 
M 314.03 125.45 316.17 124.61 321.62 118.4 323.15 116.19 
M 318.33 126.26 320.86 124.84 322.46 122.9 324.19 121.61 326.47 119.51 
M 175.04 147.68 185.44 143.62 185.8 144.41 175.69 149.56 
M 176.3 151.47 208.6 140.91 208.89 141.73 176.85 153.96 
M 176.89 155.86 215 146.65 215.23 147.5 176.8 158.57 
M 176.63 160.46 219.91 153.59 220.06 154.45 175.96 163.29 
M 175.16 165.09 219.7 161.71 219.79 162.58 174.21 167.92 
M 173.56 169.46 216.44 169.76 216.45 170.63 171.95 172.27 
M 171.21 173.47 221.2 177.8 221.14 178.67 169.9 176.3 
M 169.65 177.25 217.82 185.46 217.69 186.32 168.51 180.06 
M 168.22 180.81 206.98 190.92 206.78 191.77 167.04 183.59 
M 166.74 184.08 200.88 196.17 200.61 197 164.79 186.68 
M 169.02 187.9 186.06 195.94 185.72 196.75 163.92 188.98 
M 183.73 145.46 188.44 145.89 193.06 145.79 195.33 145.45 197.56 144.9 199.77 144.17 204.14 142.37 
M 204.5 143.41 204.99 145.27 205.81 146.72 206.41 147.22 207.15 147.56 209.92 147.88 
M 210.2 148.95 210.22 150.85 210.66 152.44 211.12 153.05 211.75 153.54 214.34 154.47 
M 214.54 155.56 213.33 156.95 212.65 158.38 212.61 159.11 212.78 159.85 214.17 162.13 
M 214.28 163.22 212.58 164.19 211.37 165.38 211.03 166.11 210.88 166.92 211.25 169.72 
M 211.26 170.82 211.42 173.82 211.72 174.66 212.2 175.38 213.65 176.49 215.54 177.31 
M 215.47 178.41 213.12 179.8 212.6 180.39 212.27 181.08 212.16 182.7 212.51 184.55 
M 212.35 185.64 209.77 185.54 207.4 185.92 206.34 186.38 205.36 187.04 204.45 187.86 202.77 189.82 
M 202.52 190.89 200.67 190.89 199.15 191.3 198.56 191.75 198.11 192.36 197.29 194.9 
M 196.95 195.95 194.15 194.61 191.31 193.79 189.87 193.68 188.41 193.77 186.94 194.05 183.97 194.95 
M 204.72 144.37 205.34 146.07 205.81 146.72 206.41 147.22 207.15 147.56 208.93 147.85 
M 210.18 149.92 210.37 151.7 210.66 152.44 211.12 153.05 211.75 153.54 213.4 154.22 
M 213.9 156.25 212.9 157.66 212.65 158.38 212.61 159.11 212.78 159.85 213.61 161.36 
M 213.4 163.69 211.89 164.75 211.37 165.38 211.03 166.11 210.88 166.92 211.04 168.75 
M 211.24 171.87 211.42 173.82 211.72 174.66 212.2 175.38 212.85 175.98 214.56 176.92 
M 214.6 178.83 213.12 179.8 212.6 180.39 212.27 181.08 212.13 181.85 212.3 183.61 
M 211.05 185.56 208.55 185.65 207.4 185.92 206.34 186.38 205.36 187.04 203.59 188.81 
M 201.57 190.86 199.85 191.02 199.15 191.3 198.56 191.75 198.11 192.36 197.51 193.98 
M 224.83 203.76 228.03 207.15 230.69 209.46 232.85 211.77 236.08 213.13 238.76 216.39 240.41 217.78 240.72 219.74 237.6 224.03 235.35 229.11 233.44 230.81 231.09 232.1 227.72 236.09 223.15 237.43 220.64 240.46 219.55 238.42 219.35 236.91 218.41 234.34 219.28 230.72 219.29 228.29 218.51 226.53 216.92 221.17 216.48 217.81 215.8 214.87 214.97 205.84 214.1 201.87 
M 223.11 203.46 225.92 207.21 230.27 211.88 232.75 214.1 234.27 216.8 236.73 218.23 
M 221.38 203.15 225.68 209.63 227.94 212.7 229.54 214.25 231.03 216.56 
M 219.66 202.85 223.2 209.66 224.89 212.54 227.11 214.6 228.87 216.69 229.75 219.19 
M 217.94 202.54 219.41 206.6 220.32 209.64 221.56 212.63 224.18 217.77 
M 216.21 202.24 217.6 206.3 217.74 209.43 218.36 212.46 219.55 215.26 220.22 218.25 221.44 221.42 221.76 223.88 
M 385.74 193 388.98 198.11 391.63 201.73 396.74 205.25 391.25 205.42 389.64 207.37 387.09 208.22 384.13 207.96 381.53 208.75 370.68 210.65 368.94 212.57 366.55 213.83 363.8 214.72 362.05 216.61 359.91 218.14 357.15 218.97 354.71 220.08 352.79 221.86 351.08 223.86 349.7 226.1 347.86 227.84 345.1 228.55 340.16 230.58 338.43 232.44 335.92 233.57 333.06 234.31 330.98 235.71 328.98 237.39 327.74 239.83 326.13 241.91 323.39 242.86 318.58 245.35 315.57 249.55 312.19 252.28 310.17 249.31 309.11 246.25 307.02 244.53 304.58 240.09 303.83 237.36 302.77 235.19 300.74 231.66 299.62 228.79 299.16 226.24 298.32 224.43 297.7 222.16 289.19 207.88 
M 381.5 194.08 385.01 199.61 388.29 202.21 
M 377.26 195.16 380.91 200.09 383.76 203.2 
M 373 196.17 377.04 199.69 
M 368.73 197.11 372.44 200.48 
M 364.46 198.05 370.54 204.58 373.25 207.19 
M 360.18 198.94 363.52 203.31 
M 355.89 199.82 358.12 204.28 362.83 209.76 
M 351.6 200.69 354.08 204.85 355.92 207.55 
M 347.32 201.57 352.08 207.48 
M 343.03 202.44 346.39 205.78 348 208.23 350.48 210.27 352.37 212.95 354.08 217.31 
M 338.71 203.1 341.96 206.84 343.89 210.22 345.11 213.14 346.9 215.6 348.71 218.49 350.22 221.54 
M 334.38 203.75 337.14 207.7 340.67 214.13 342.68 216.57 344.32 219.04 345.57 222.52 
M 330.05 204.36 334.77 211.68 338.71 216.73 
M 325.71 204.93 328.5 209.08 330.37 212.31 334.19 217.23 336.09 219.95 
M 321.38 205.5 323.9 208.99 325.38 212.04 329.61 217.37 330.52 220.55 
M 317.03 206.01 319.3 209.33 320.93 212.13 323.4 218.34 324.82 221.22 326.59 223.95 329.55 225.21 330.79 227.32 331.39 230.06 332.36 232.66 
M 312.69 206.52 315.09 209.77 316.5 212.4 320.25 221.9 321.64 224.51 323.9 226.86 
M 308.33 206.91 312.27 212.86 313.41 216.28 314.73 219.23 316.25 221.89 317.29 224.56 321.27 228.65 322.99 231.07 324.71 237.18 325.8 239.1 
M 303.96 207.18 306.19 210.68 307.36 213.03 308.39 216.23 310.2 219.15 311.77 222.08 312.83 224.98 
M 299.6 207.45 301.35 210.99 303.04 213.57 304.35 216.31 305.95 219.1 307.21 222.27 308.69 224.35 309.38 226.74 309.45 229.43 310.56 231.8 315 238.88 315.71 241.31 317.83 243.34 319.18 246.03 
M 295.23 207.63 297.18 210.75 298.45 213.79 299.91 216.66 301.6 219.4 302.86 221.96 304.44 227.08 304.57 229.5 306.1 232.07 308.57 234.21 310.66 237.55 311.66 240.83 
M 428.65 152.48 431.57 151.6 434.01 150.31 438.7 147.1 441.21 146.38 443.96 144.78 446.47 143.61 448.65 142.63 450.85 141.97 457.15 137.17 461.16 133.55 463.56 131.77 465.58 131.13 468.23 129.02 471.07 128.53 474.63 127.21 476.8 126.92 477.36 125.18 478.49 123.58 479.27 121.55 482.51 121.72 486.29 120.18 488.2 119.96 487.82 124.74 485.79 132.17 485.51 134.36 484.29 138.25 484.58 141.32 484.18 146.91 483.74 149.67 482.96 152.11 482.87 155.3 482.31 158.21 480.67 159.77 479.85 162 480.1 164.87 480.58 167.69 481.32 170.42 481.01 173.38 479.21 175.15 479.01 177.84 479.68 183.14 480.21 185.66 479.08 187.4 478.53 189.72 482.43 193.11 484.45 195.45 486.2 198.09 485.47 203.34 484.84 205.42 486.06 210.38 487.81 214.2 488.24 216.72 490 223.1 488.35 221.89 485.76 220.41 483.43 218.06 480.67 216.56 478.84 215.25 476.44 214.52 473.14 212.69 471.14 211.08 469.27 208.72 465.58 207.72 463.4 205.29 461.17 203.75 459.23 202.02 455.24 199.67 453.59 198.45 446.27 191.72 441.83 189.16 439.58 188.18 437.21 186.16 431.59 182.7 428.65 180.39 
M 436.82 150.57 439.06 149.06 441.68 147.87 447.04 146 449.14 145.12 451.74 144.79 456.74 142.35 459.1 140.98 462.16 138.42 464.25 137.09 465.4 135.36 466.65 134.72 469.25 133.84 472.42 131.89 
M 437.32 152.59 439.6 150.99 445.16 148.7 447.66 147.9 451.79 147.21 454.65 146.41 457.47 145.39 466.33 140.15 
M 432.15 156.64 434.99 155.91 443.04 152.24 448.08 150.19 450.49 149.91 457.84 147.77 460.6 146.09 464.76 145.52 467.57 143.8 468.04 142.36 468.9 141.71 
M 428.65 158.06 432.44 158.32 438.27 157.1 441.06 155.76 446.61 154.35 449.04 153.21 454.08 151.73 457.29 151.03 458.8 149.7 461.69 149.31 465.49 149.62 467.79 148.41 
M 438.5 158.89 441.27 158.21 446.82 157.68 451.69 155.31 456.6 153.94 459.39 153.77 462.69 152.66 466 152.4 
M 435.55 161.41 441.45 160.39 447.48 160.17 448.87 159.3 453.33 157.79 456.37 157.45 
M 432.25 162.64 435.62 162.94 438.81 163.01 444.57 162.22 446.9 162.31 449.11 162.09 453.48 160.83 456.95 160.53 460.59 161.25 464.33 160.79 467.18 160.19 469.25 158.81 470.22 157.65 471.72 157.26 476.01 158.01 
M 428.65 163.65 435.67 164.85 438.79 165.01 441.87 164.77 443.95 164.98 446.46 164.23 448.73 164.83 451.07 164.86 454.05 163.68 457.63 163.84 
M 428.65 165.04 432.73 165.97 435.78 166.36 438.58 166.5 441.08 167.1 443.57 166.72 445.74 167.23 448.67 167.32 451.54 167.28 454.35 166.72 457.42 167.21 460.91 167.42 463.58 166.61 466.4 166.81 468.8 166.71 471.13 165.82 472.87 165.74 
M 435.99 167.96 443.08 169.27 445.53 169.92 448.86 170.15 451.69 169.96 453.85 169.57 456.94 170.45 460.49 170.68 
M 435.74 169.75 438.66 170.29 440.69 171.13 449.4 171.75 451.97 171.72 454.29 172.1 
M 432.4 170.75 438.06 172.36 440.96 172.82 444 172.84 446.83 173.25 450.1 173.96 457.05 174.84 460.07 175.45 
M 432.08 172.33 434.91 173.31 440.8 174.83 444.33 175.29 447.6 175.29 452.15 177.19 454.71 176.99 457.23 177.21 460.01 178.21 463.17 179.76 465.86 180.19 
M 434.81 174.86 440.6 177.07 447.44 177.56 449.77 178.86 452.03 179.84 453.99 180.12 457.22 180.92 460.38 182.17 463.25 182.67 465.57 183.32 467.69 184.56 477.83 189.12 478.33 190.07 
M 428.65 173.42 437.71 177.85 443.55 179.55 446.83 180.22 451.69 182.57 457.76 184.68 463.16 185.98 
M 431.72 176.48 434.67 178.36 437.49 179.66 446.27 182.05 448.94 183.1 451.77 184.56 454.81 186.76 457.85 187.94 
M 428.65 176.21 431.73 178.06 434.5 180.03 437.31 181.29 440.01 182.2 448.76 184.55 451.49 186.58 453.96 188.72 456.71 190.3 458.95 191.35 462.31 194.85 
M 434.52 181.58 437.45 182.73 439.92 184.07 445.31 185.97 447.89 187.23 450.74 189.03 456.14 193.31 460.71 196 
M 434.54 182.98 437.53 184.22 439.78 185.91 442.29 187.4 444.57 188.35 446.72 189.83 449.82 191.65 452.18 194.12 455.05 195.99 456.96 197.63 458.85 198.43 460.33 199.34 463.33 200.79 465.31 202.21 467.45 204.25 470.33 206.46 475.43 208.71 478.23 210.17 
M 415.82 181.56 412.52 182.64 411.06 183.64 409.07 186.51 407.54 187.17 404.32 185.9 402.66 185.86 399.19 186.72 397.74 187.75 395.13 190.27 396.46 190.12 
M 99.84 149.41 101.38 148.74 103.58 148.11 106.27 147.92 109.57 147.97 118.78 146.88 123.74 146.03 133.7 143.73 139.23 142.71 161.38 139.62 171.17 138.68 173.59 141.97 174.23 144.92 176.19 150.96 176.85 153.91 176.91 156.74 176.43 162.27 175.24 164.83 174.4 167.47 173.31 170.05 170.23 175.04 169.52 177.71 167.45 182.9 165.95 185.4 163.81 187.77 160.45 189.81 151.33 189.26 144.72 188.25 138.93 186.97 133.7 185.6 128.76 183.77 124.1 181.52 120.02 178.94 116.64 176.24 110.55 170.65 
M 157.39 153.04 156.93 155.37 154.03 159.39 152.36 161.18 148.75 164.48 147.85 167.73 147.92 169.41 147.78 171.11 147.41 172.93 146.18 174.8 140.17 174.85 135.81 174.63 127.7 173.63 123.64 172.54 119.69 170.88 116.21 168.7 
M 107.66 167.91 106.2 165.78 96.85 153.43 95.84 151.43 96.66 149.43 98.83 148.82 100.74 149.95 106.64 161.63 110.57 170.64 
M 109.95 171.22 95.19 162.03 87.8 157.67 86.51 156.04 86.99 153.82 88.89 152.62 90.94 153.34 105.94 166.31 110.47 170.51 
M 127.24 156.62 125.69 154.45 124.93 151.9 125.04 149.24 126.01 146.75 127.36 145.16 
M 135.71 143.36 137.66 144.31 139.54 146.19 140.71 148.59 141.04 151.23 140.5 153.84 139.13 156.13 137.1 157.85 134.62 158.82 131.96 158.93 129.4 158.17 127.24 156.62 
M 138.23 147.14 139.16 149.05 139.43 151.16 138.99 153.25 137.9 155.08 136.27 156.46 134.29 157.23 132.16 157.32 130.12 156.71 128.38 155.47 
M 130.01 152.53 129.39 151.66 129.09 150.64 129.13 149.58 129.52 148.58 130.21 147.77 131.13 147.23 132.17 147.01 133.23 147.14 134.18 147.61 134.94 148.36 135.4 149.32 135.54 150.37 135.32 151.42 134.77 152.33 133.96 153.02 132.97 153.41 131.9 153.45 130.88 153.15 130.01 152.53 
M 129.46 151.46 131.26 153.26 
M 129.55 149.19 133.55 153.18 
M 130.93 148.21 134.88 152.15 
M 133.27 148.18 135.52 150.44 
M 110.44 170.32 112.4 172.27 
M 99.98 149.35 100.33 149.71 
M 100.92 150.29 103.74 153.12 
M 103.95 148.08 107.11 151.24 
M 109.08 147.96 112.32 151.2 
M 113.91 147.54 116.91 150.54 
M 118.54 146.92 122.44 150.82 
M 123.03 146.16 125.34 148.47 
M 127.29 145.17 127.32 145.2 
M 135.93 143.32 136.23 143.61 
M 140.25 147.63 141.18 148.57 
M 140.41 142.55 144.47 146.6 
M 145.04 141.93 148.43 145.32 
M 149.62 141.25 154.12 145.76 
M 154.19 140.57 157.67 144.06 
M 158.81 139.94 162.48 143.62 
M 163.53 139.42 167.58 143.46 
M 168.34 138.98 171.44 142.08 
M 115.03 174.78 115.37 173.64 115.75 172.97 116.74 172.11 118.02 171.39 
M 105.08 157.73 104.85 157.93 
M 166.24 144.92 164.05 146.95 160.85 149.48 159.83 149.78 156.83 149.63 155.82 149.42 153.31 147.85 
M 121.97 180.17 121.15 178.64 119.82 176.79 119.74 176.42 
M 112.89 170.16 114.64 170.28 116.5 169.82 117.81 169.3 118.68 168.56 119.07 167.25 119.03 165.25 118.85 164.19 118.46 163.27 
M 164.43 172.67 163.99 170.86 165.3 166.65 165.88 163.73 
M 164.92 167.01 165.76 163.71 166.9 162.35 167.46 161 
M 174.53 150.1 175.69 151.4 176.08 152.29 176.19 153 
M 112.38 172.36 113.65 171.35 117.15 170.16 118.32 169.59 
M 110.26 169.89 110.71 170.13 111.11 170.02 
M 126.47 157.48 125.63 157.87 125.02 157.78 122.57 156.7 120.81 156.23 119.91 156.2 118.89 156.42 117.2 156.3 116.41 156.1 115.05 155.41 
M 123.03 180.84 122.49 179.48 121.23 177.25 
M 141.87 150.07 143.8 149.46 145.19 149.52 146.78 150.12 148.75 151.2 
M 130.55 158.51 129.89 159.52 129.77 160.62 
M 151.67 153.74 151.64 155.72 151.86 158.07 151.74 159.1 
M 115.99 158.09 114.67 157.11 112.18 153.5 111.18 152.91 
M 145.54 165.72 145.17 163.22 145.53 161.12 146.09 160.19 146.57 159.89 146.96 159.87 
M 173.5 157.83 171.89 159.15 171.58 159.89 171.7 160.68 
M 142.24 187.71 142.72 187.31 142.92 187.38 142.85 187.52 
M 144.46 166.14 143.72 163.75 143.57 158.8 
M 127.99 177.5 127.35 180.13 126.37 181.91 
M 163.03 163.75 163.94 162.62 166.27 162.17 166.82 161.75 
M 129.29 182.23 128.12 182.35 127.83 182.64 127.87 183.06 
M 155.07 158.27 154.11 159.62 152.41 162.84 152.36 163.29 
M 146.06 180.16 145.09 182.31 144.61 186.25 143.86 187.25 142.84 187.74 
M 141.49 159.78 139.33 158.11 137.71 157.34 
M 167.11 181.72 164.93 181.67 162.02 180.93 159.7 179.95 158.03 178.82 156.41 178.06 
M 160.1 146.23 157.34 145.95 152.97 146.36 151.02 145.96 150.22 145.55 
M 115.17 174.91 115.49 173.71 115.86 173.05 116.79 172.19 118.78 170.88 119.95 169.06 120.17 168.25 
M 144.74 179.41 143.22 182.07 143.11 182.7 143.79 186.04 143.58 186.97 143.12 187.55 
M 156.57 172.65 153.05 174.85 152.25 175.64 150.22 178.45 149.67 178.88 
M 135.75 171.02 134.61 171.54 133.25 173.48 130.69 175.82 
M 155.06 156.1 154.53 157.12 154.21 158.73 152.3 162.7 
M 123.27 177.97 122.84 177.41 122.75 177.01 122.92 176.85 123.4 176.92 
M 172.21 151.81 173.56 152.81 174.32 153.65 174.93 155.03 174.76 155.75 
M 155.6 187.89 156.47 184.99 156.63 182.92 156.54 182.17 155.72 180.44 155.45 179.43 
M 153.2 178.74 152.54 178.46 151.83 178.4 149.98 178.85 
M 145.77 155.18 146.01 156.18 145.94 156.72 145.25 159.15 145.38 159.43 145.8 159.68 
M 164.45 186.72 161.66 185.85 160.83 185.49 160.09 184.93 159.36 184.08 157.92 181.69 156.79 180.57 156.41 179.64 
M 156.9 189.26 157.55 187.47 157.68 185.28 157.21 182.37 155.77 179.67 
M 171.54 166.86 172 166.5 174.28 165.43 175.08 165.33 
M 121.24 170.86 121.55 169.76 121.63 168.14 121.55 165.6 121.25 164.18 120.68 162.85 120.15 162.21 118.57 161.14 117.89 161.02 
M 107.51 148.23 106.81 147.93 
M 114.87 174.64 115.53 172.98 116.04 172.46 118.36 171.12 
M 112.42 164.32 114.28 166 114.69 166.87 
M 112.72 160.65 111.8 158.08 112.04 156.37 112 155.31 111.61 154.41 111 153.73 
M 172.72 161.42 174.35 162.64 175.66 163.94 
M 149.76 180.59 149.4 180.72 149.17 181.03 148.64 183.48 
M 160.94 149.4 159.93 149.75 158.91 149.76 155.91 149.42 151.55 146.85 150.41 145.79 
M 173.16 144.12 173.52 145.98 174.16 146.97 175.1 147.92 
M 176.12 150.77 176.17 151.06 
M 149.97 141.61 149.65 142.71 148.86 144.38 148.71 145.47 148.89 146.29 
M 134.13 171.57 133.3 173.21 130.12 176.39 129.53 177.55 
M 138.7 186.53 139.43 184.4 139.78 183.86 140.15 183.49 141.08 183.23 141.58 183.33 142 183.64 143.3 185.45 143.53 186.31 
M 166.52 177.15 165.42 177.13 164.26 176.57 163.69 176.05 163.39 175.51 163.1 174.56 162.21 172.92 161.75 172.43 160.47 171.7 
M 147.59 147.74 148.72 148.15 149.51 148.11 149.88 147.92 150.08 146.85 149.83 145.98 
M 161.14 157.59 164.91 156.63 166.37 155.95 166.71 155.94 167.06 156.26 
M 147.45 150.59 149.12 151.55 150.09 151.7 150.45 151.55 150.58 151.3 150.74 150.03 
M 123.36 152.3 123.74 153.05 123.58 153.45 
M 136.12 164.56 134.36 163.88 133.92 163.5 133.5 162.64 133.32 160.58 132.25 159.65 131.27 159.54 
M 145 164.93 144.83 163.37 145.25 161.2 145.82 160.27 146.32 159.92 146.84 159.84 
M 135.65 180.15 135.93 179.34 135.67 177.76 135.25 177.42 
M 162.72 159.24 165.47 159.26 166.46 159.79 166.98 159.9 168.7 159.48 
M 170.19 173.24 171.33 172.18 172.46 171.44 
M 118.82 169.91 119.53 168.54 119.68 167.69 119.38 164.53 118.48 162.74 117.95 162.34 116.7 162.19 116.06 162.6 
M 145.34 141.88 147.14 143.64 148.8 146.35 
M 167.48 150.39 166.09 152.49 165.31 153.29 164.59 153.33 163.25 152.9 
M 164.03 150.18 162.81 151 161.83 151.43 160.19 151.8 158.21 152.88 155.38 153.9 153.76 154.71 
M 170.4 154.4 169.9 155.81 168.59 157.99 168.59 158.43 168.8 158.84 
M 162.73 173.36 162.02 172.19 160.12 170.28 158.96 169.38 158.37 169.1 157.77 169.07 156.85 169.49 155.44 171.34 
M 157.53 148.65 155.6 148 153.99 147.03 151.19 146.19 150.33 145.64 149.51 145.64 
M 117.14 151.13 115.75 150.62 113.96 150.52 113.02 150.57 110.81 151.16 109.83 151.17 
M 143.28 165.58 142.27 164.18 139.65 162.11 138.79 161.63 134.53 160.63 132.35 159.37 
M 146.41 160.58 146.81 160.11 147.3 159.99 148.05 160.19 148.7 160.69 
M 158.38 168.78 157.46 168.68 156.73 169.18 155.1 171.88 153.79 173.33 152.21 174.73 150.73 177.39 
M 160.63 159.85 163.72 160.18 165.88 160.65 166.8 160.53 
M 149.36 177.69 148.8 178.97 147.24 181.3 146.94 182.45 146.8 184.09 
M 118.78 175.39 121.11 174.54 122.64 174.29 123.17 174.36 124.21 174.98 124.9 176.06 125.2 176.89 
M 146.42 166.05 145.74 163.38 145.77 162.11 146.16 160.52 146.72 159.98 147.3 159.95 
M 167.63 146.86 165.02 149.14 162.7 150.82 161.69 151.28 160 151.67 157.1 152.79 
M 173.85 152.76 174.26 153.2 175.02 154.87 174.97 155.45 174.57 156.04 
M 158.6 181.57 157.29 180.5 157.01 180.08 156.68 178.85 156.17 178.38 155.48 178.25 154.49 178.64 153.96 178.65 
M 148.61 151.1 149.8 151.49 150.34 151.21 150.65 149.94 150.31 149.01 
M 159.97 158.07 161.11 158.52 161.74 158.56 163.71 158.27 166.38 157.52 167.02 157.57 167.37 157.82 
M 158.77 171.5 157.91 171.52 156.31 172.13 153.19 174.55 152.35 175.31 150.1 178.56 
M 144.02 184.77 144.02 186.25 143.87 186.78 143.19 187.54 142.86 187.66 142.77 187.5 
M 137.94 162.17 134.58 161.43 133.38 160.22 132.48 159.59 131.62 159.42 130.84 159.63 
M 159.05 159.64 160.23 160.22 163.43 160.44 165.32 161.04 166.21 161.11 
M 156.01 176.17 154.13 176.87 150.11 178.79 
M 119.83 156.52 118.81 156.63 117.02 156.47 116.23 156.22 114.42 155.14 112.88 153.55 111.87 152.94 
M 139.08 181.26 139.89 179.87 139.47 179.41 
M 152.22 184.35 153.16 182.36 153.39 181.3 153.43 179.37 153.18 178.7 152.87 178.54 
M 171.8 146.42 173.01 147.85 175.11 149.52 175.81 150.71 176.18 152.06 
M 154.05 158.7 153.36 160.5 152.15 162.83 152.09 163.44 
M 148.75 144.72 148.75 145.88 148.88 146.29 149.11 146.38 
M 110.34 173.32 109.25 175.83 107.7 178.22 105.65 180.28 103.17 181.78 100.43 182.66 97.61 182.98 94.82 182.72 92.16 182.12 76.98 177.61 74.5 176.5 72.2 175.11 67.89 172.14 65.65 170.86 63.29 169.8 58.4 168.06 55.89 167.43 53.33 167.06 50.74 166.97 45.55 167.39 43 167.92 40.51 168.7 38.11 169.72 35.85 171.03 33.74 172.58 30 176.25 33.69 172.52 35.76 170.89 38 169.51 40.4 168.4 42.9 167.54 45.47 166.92 50.73 166.33 53.38 166.35 56.03 166.64 61.17 167.96 66.14 169.86 68.5 171.11 75.15 175.22 77.5 176.2 92.63 180.18 95.11 180.67 97.56 180.83 99.94 180.49 102.18 179.69 104.15 178.42 105.75 176.7 106.99 174.65 107.92 172.31 
M 109.78 172.67 109.71 173.06 
M 108.95 176.28 108.39 177.98 107.17 180.5 105.5 182.81 103.38 184.74 100.92 186.17 98.24 187.08 95.45 187.46 92.65 187.31 89.93 186.67 87.38 185.58 85.05 184.12 82.98 182.36 81.09 180.45 79.32 178.38 
M 77.89 176.31 76.5 173.85 74.4 168.96 73.58 166.42 73 163.81 72.68 161.16 72.63 158.49 72.9 155.83 73.5 153.24 74.38 150.73 75.45 148.32 78.05 143.73 79.59 141.59 81.36 139.64 83.34 137.9 87.63 134.87 83.4 137.96 81.48 139.75 79.78 141.73 78.32 143.9 75.88 148.52 74.9 150.93 74.12 153.41 73.6 155.94 73.42 158.51 73.55 161.09 73.94 163.64 74.57 166.13 75.44 168.57 77.63 173.25 78.95 175.46 80.03 176.93 
M 81.86 179.06 84.05 181.17 86.02 182.76 88.17 184.02 90.48 184.93 92.89 185.41 95.34 185.47 97.74 185.07 100 184.23 102.04 182.96 103.42 181.62 
M 106.65 175.22 107.2 172.21 
M 110.05 172.84 109.98 173.17 
M 109.61 175 108.51 178.18 107.48 179.87 
M 90.76 186.87 89.39 186.73 86.71 186.11 84.15 185.11 81.77 183.73 79.63 182.04 77.73 180.12 75.25 176.84 
M 73.73 174.42 71.67 171.53 69.85 169.75 67.77 168.28 65.49 167.11 63.07 166.29 60.54 165.89 57.97 165.91 54.77 166.5 
M 52.91 167.04 50.58 168.12 48.39 169.53 46.39 171.2 44.64 173.14 43.17 175.31 40.97 180.06 43.1 175.27 44.51 173.04 46.22 171.03 48.19 169.27 50.38 167.78 51.92 167.01 
M 53.48 166.36 55.29 165.77 57.91 165.28 60.58 165.17 63.25 165.52 65.82 166.3 68.25 167.45 70.5 168.95 72.5 170.78 74.18 172.88 75.96 175.56 
M 77.64 177.83 78.78 179.15 80.62 180.9 82.65 182.4 83.71 182.98 
M 90.86 185 92.15 185.1 94.63 184.92 97.07 184.39 99.42 183.59 102 182.15 
M 95.86 162.45 98.73 165.16 102.04 168 105.4 170.53 108.92 172.85 112.54 175 120.02 178.94 
M 96.84 163.38 96.8 163.03 
M 172.73 140.81 177.7 145.78 
M 176.25 137.32 184.47 145.54 
M 181.79 135.87 190.95 145.02 
M 187.45 134.53 197.56 144.64 
M 193.12 133.2 201.48 141.56 
M 198.88 131.96 206.33 139.41 
M 204.66 130.74 214.83 140.91 
M 210.53 129.61 216.17 135.26 
M 216.38 128.46 222.88 134.96 
M 222.2 127.28 232.49 137.57 
M 228.13 126.22 236.01 134.1 
M 234.17 125.25 242.17 133.26 
M 240.38 124.47 246.52 130.61 
M 246.65 123.74 254.53 131.62 
M 253.08 123.17 258.8 128.89 
M 259.68 122.77 266.26 129.35 
M 266.55 122.64 276 132.09 
M 273.49 122.58 279.87 128.96 
M 280.42 122.52 286.19 128.28 
M 287.3 122.4 293.64 128.73 
M 294.69 122.78 300.58 128.68 
M 302.48 123.57 312.41 133.51 
M 310.73 124.83 316.92 131.02 
M 319.35 126.45 325.07 132.17 
M 328.17 128.27 334.81 134.91 
M 337.01 130.11 343.43 136.53 
M 345.79 131.9 351.82 137.93 
M 354.57 133.67 364.3 143.4 
M 363.66 135.76 373.21 145.32 
M 373.17 138.27 380.59 145.7 
M 382.74 140.85 389.92 148.02 
M 392.24 143.34 402.25 153.36 
M 401.61 145.72 407.03 151.14 
M 410.95 148.06 418.09 155.2 
M 420.31 150.42 425.94 156.05 
M 429.61 152.72 438.66 161.77 
M 438.91 155.02 439.21 155.32 
"/></svg>