<svg xmlns="http://www.w3.org/2000/svg" width="520" height="320"><rect x="0" y="0" width="520" height="320" fill="floralwhite"/><rect x="10" y="10" width="500" height="300" stroke="black" stroke-width="1" fill="none"/><path stroke="black" stroke-width="1" fill="none" stroke-linecap="round" stroke-linejoin="round" d="
M 156.42 108.44 161.61 106.79 171.19 105.16 180.81 103.89 190.35 102.06 199.93 100.44 209.59 99.5 219.3 99.13 229.01 99.07 238.72 99.23 258.14 99.03 267.81 99.94 287.06 102.54 296.57 104.49 324.75 111.9 333.94 115.04 342.58 119.48 349.01 126.76 352.03 130.76 
M 352.03 195.08 343.88 204.21 334.96 208.05 325.63 210.74 306.67 214.95 297.31 217.55 287.83 219.66 278.17 220.68 258.77 221.5 249.05 221.42 239.34 221.57 220 223.27 210.28 223.37 200.64 222.25 191.17 220.07 181.88 217.24 172.7 214.08 163.38 211.34 153.81 209.71 148.53 209.23 
M 174.53 148.83 178.74 149.26 
M 182.85 149.52 184.91 149.62 192 150.73 
M 214.67 151.88 217.33 151.38 
M 220.82 150.63 226.13 149.56 229.41 148.59 230.79 147.85 
M 233.65 146.48 235.12 145.84 238.69 145.21 240.68 145.1 
M 252.12 144.21 257.28 143.39 261.17 143.37 263.35 143.6 
M 267.74 144.08 269.95 144.35 274.02 144.52 281.32 143.96 291.19 144.11 
M 295.18 144.27 297.18 144.38 301.87 145.25 304.54 145.99 
M 309.79 147.35 312.37 147.96 316.93 148.55 325.5 149.11 330.29 149.99 344.64 153.54 349.96 154.65 
M 149.11 208.32 149.5 209.32 
M 154.61 198.44 159.28 210.64 
M 160.22 190.35 161.98 194.57 
M 165.94 205.79 168.61 212.88 
M 163.48 120.44 162.3 121.97 161.55 123.95 
M 165.48 182.6 166.16 184.06 
M 168.32 188.84 170.91 195.33 175.1 208.46 
M 178.3 118.76 169.02 128.42 168.11 130.23 
M 165.42 138.44 164.59 141.08 
M 174.48 181.89 175.6 184.59 
M 183.26 205.59 187.34 217.48 
M 193.26 106.51 191.43 110.08 
M 189.75 113.77 187.39 119.48 185.59 123.07 183.35 126.22 181.97 127.55 
M 179.16 130.15 177.72 131.42 175.31 134.44 174.5 136.35 
M 173.2 140.48 172.1 145.58 
M 184.33 183.15 187.08 190.29 
M 190.39 199.02 192 203.32 
M 193.47 207.45 194.76 211.4 
M 196.05 215.33 198.32 221.71 
M 205.32 102.55 203.4 106.07 
M 197.69 116.53 196.07 120.3 
M 194.64 124.28 193.97 126.3 192.23 129.97 187.4 135.99 185.34 139.37 183.58 143.06 181.57 149.46 
M 193.63 181.76 193.96 182.64 
M 195.58 187 198.69 195.57 
M 200.24 199.82 201.64 203.91 
M 202.96 207.91 204.46 212.07 
M 207.7 220.57 208.57 223.17 
M 205.45 119.58 203.89 123.44 
M 202.56 127.54 201.42 131.83 
M 200.12 135.98 199.37 137.96 198.4 139.72 
M 196.46 143.23 194.54 146.77 
M 205.29 184.27 206.46 189.53 207.65 193.43 210.01 199.85 
M 211.45 203.97 212.87 208.07 
M 217.2 220.32 218.19 223.29 
M 220.61 108.59 219.53 110.23 218.61 112.01 
M 213.32 123.01 212.52 124.93 210.61 131.21 
M 208.14 139.68 204 151.7 
M 213.81 181 214.58 183.68 
M 215.59 187.4 216.72 191.24 
M 218.09 195.32 220.97 203.57 
M 222.48 207.74 225.8 216.36 
M 227.31 220.48 228.01 222.57 
M 226.93 115.98 224.47 121.71 220.61 128.8 218.93 132.61 215.73 140.42 215.23 142.67 
M 214.33 147.29 213.46 151.86 
M 222.5 180.66 224.01 185.85 
M 226.79 194.05 230 203.97 234.1 214.69 
M 235.34 218.53 236.27 221.84 
M 237.21 116.07 235.2 119.54 
M 233.18 123.01 231.19 126.52 
M 229.35 130.2 224.99 139.65 223.48 143.68 221.84 150.4 
M 230.7 179.78 231.78 183.6 
M 232.84 187.39 234.56 193.2 239.44 206.17 240.78 210.16 244.21 221.5 
M 252.6 104.95 251.28 109.1 
M 249.69 112.97 246.88 118.38 244.59 121.58 240.69 125.97 
M 234.23 136.17 233.29 138 231.63 141.92 229.97 148.32 
M 238.21 177.35 238.99 180.85 
M 239.84 184.46 240.31 186.31 241.72 190.47 242.74 192.86 
M 244.92 197.77 247.06 202.62 
M 248.67 206.92 249.71 210.62 
M 250.6 214.15 252.94 221.45 
M 261.88 105.09 260.39 109.09 
M 257.24 116.91 255.52 120.71 
M 253.43 124.15 252.24 125.74 246.86 131.52 243.16 136.22 
M 246.99 177.49 248.26 182.97 
M 249.55 187.04 250.34 189.22 254.81 199.18 257.28 205.7 
M 258.74 209.83 262.72 221.37 
M 265.51 116.48 264.59 118.32 262.46 121.76 257.79 128.27 247.67 143.29 
M 255.53 173.44 256.06 175.31 
M 256.99 179.06 258.27 184.54 259 186.66 
M 260.59 191.03 266.2 204.82 
M 269.36 213.29 270.58 217.11 
M 271.81 220.76 271.9 221 
M 275.4 112.36 274.52 114.23 271.4 119.45 
M 269.23 122.88 264.95 129.87 
M 262.8 133.39 261.72 135.14 260.45 136.72 
M 257.89 139.85 256.59 141.4 255.15 143.64 
M 265.53 175.13 267.79 184.43 269.27 188.68 275.08 202.67 281.55 220.32 
M 282.64 111.88 279.64 117.22 276.76 122.76 
M 274.93 126.58 272.17 132.35 270.2 136.08 267.93 139.53 264.59 143.71 
M 275.15 175.26 277 181.3 278.51 185.57 289.34 213.68 
M 291.44 108.24 290.7 110.26 285.93 119.47 
M 284.17 123.35 282.49 127.36 
M 280.85 131.42 278.25 137.43 275.56 142.91 
M 284.6 172.38 290.15 186.2 
M 291.73 190.49 293.54 196.31 295.37 203.38 299.68 215.77 
M 299.08 114.61 298.34 116.68 296.46 120.42 292.04 127.36 288.39 135.18 284.98 141.42 
M 290.87 163.63 292.56 167.96 
M 294.57 172.72 300.52 186.79 
M 302.02 190.95 303.77 196.62 306.45 206.79 308.16 212.27 
M 307.95 116.46 306.1 120.33 
M 300.08 131.56 299.15 133.51 296.05 139.09 
M 294.06 142.54 293.13 144.15 
M 295.12 150.17 296.16 153.24 
M 300.07 163.22 304.9 173.37 
M 307.18 178.26 309.85 184.8 311.21 188.69 315.46 202.57 318.09 209.74 
M 319.61 116.05 316.71 121.85 315.64 123.68 
M 311.43 131.15 310.44 133.1 309.66 135.25 
M 308 139.48 307.12 141.54 305.52 143.67 
M 307.84 156.13 308.62 158.19 311.94 165.31 
M 316.2 174.54 317.01 176.58 318.73 181.91 
M 319.86 185.4 321.88 190.88 325.83 200.35 
M 327.28 204.16 328.11 206.27 
M 326.77 124.47 321.12 136.62 
M 317.3 145.75 316.01 148.46 
M 325.16 170.54 331.31 186.59 335.68 197.1 337.53 201.15 
M 317.67 175.83 317.08 175.67 315.68 175.79 314.06 176.39 313.29 176.84 312.7 177.38 312.46 178.71 312.02 179.71 
M 194.72 204.41 193.37 206.18 192.96 206.56 192.03 207.01 191.16 207.21 190.43 207.18 189.85 206.84 189.15 206.12 
M 301.47 204.51 300.43 204.01 300.17 203.66 299.83 200.22 
M 205.18 108.03 203.68 104.16 203.34 102.11 202.81 100.16 
M 250.52 103.6 247.02 103.62 240.77 102.59 
M 200.39 146.47 200.31 147.36 199.96 148.52 199.66 148.95 199.21 149.02 
M 258.05 200.46 258.92 199.96 259.06 199.39 258.71 198.94 257.73 198.36 
M 277.51 133.38 278.45 134.02 279.71 135.31 280.31 136.52 280.52 137.39 
M 201.26 149.04 202.61 150.31 204.44 151.71 
M 325.19 199.38 322.86 199.75 321.69 200.64 320.77 202.15 320.15 204.17 319.76 204.92 319.08 205.99 317.85 207.32 
M 220.2 188.25 219.96 186.99 219.16 185.56 217.08 183.45 213.82 181 
M 225.32 183.71 227.19 181.66 
M 172.81 145.04 171.07 146.35 169.19 148.36 167.66 149.11 164.56 150.27 
M 345.16 181.76 345.97 181.84 347.01 181.63 347.9 181.23 348.17 180.94 348.34 180.42 348.14 179.89 346.88 178.66 
M 339.01 199.5 338.04 198.8 335.84 198.69 333.96 197.94 333.29 197.86 332.66 198.06 332.15 198.49 330.81 200.26 
M 292.13 173.58 291.32 173.14 289.67 172.72 287.82 172.52 286.73 172.6 283.73 173.41 282.88 174.05 282.47 174.73 
M 261.12 201.46 259.43 199.44 257.85 198.46 
M 288.54 147.93 287.05 147.58 283.79 147.51 281.94 148.28 280.34 149.75 
M 223.25 108.28 222.66 108.91 222.75 109.54 223.99 110.57 225.26 110.82 
M 204.46 191.08 203.03 192.28 201.43 194.86 199.87 196.4 199.18 196.88 197.36 197.7 194.67 198.26 
M 343.77 149.68 343.32 148.24 342.76 144.06 342.88 140.18 
M 218.08 218.11 218.39 215.33 217.79 211.21 218.33 209.07 
M 190.83 206.77 190.41 206.62 189.57 205.92 186.97 202.64 185.72 201.32 183.88 200.26 
M 199.01 128.64 196.75 129.29 195.95 129.33 193.17 128.45 191.23 128.78 190.57 129.22 
M 315.75 161.29 316.04 161.94 315.9 163.85 316.16 165.49 316.12 166.11 315.88 166.69 
M 226.08 206.11 225.06 205.2 224.42 204.21 224.29 201.55 223.54 200.39 
M 314.42 187.05 312.97 187.65 308.99 189.97 306.4 190.21 
M 260.1 140.52 261.03 141.16 262.56 141.62 263.89 141.61 265.85 141.22 266.65 141.3 267.4 141.18 
M 274.53 176.01 277.28 176.44 279.75 176.34 280.04 176.44 280.09 176.69 
M 254.36 212.01 254.39 213.03 254.06 214.78 
M 285.85 146.36 284.11 146.53 282.03 147.53 280.23 149.51 280.13 149.87 280.38 150.62 
M 178.29 149.94 177.27 149.17 176.52 148.9 173.11 148.54 170.55 148.89 166.89 150.43 
M 218.96 99.13 220.73 97.03 221.9 91.26 222.75 87.95 225.73 82.48 228.53 76.61 229.46 73.63 230.63 71.5 232.25 69.19 234.01 66.28 235.15 63.89 236.53 62.93 239.24 61.57 242.16 59.06 244.09 56.1 246.3 53.53 249.25 50.96 251.18 48.2 252.88 46.32 254.56 44.11 257.72 42.33 260.44 42.24 264.43 40.87 259.08 48.09 258.58 50.68 258.06 56.32 258.24 59.6 257.71 62.84 256.7 65.6 256.56 69.23 255.94 75.24 257.42 82.31 257.6 85.09 257.21 87.26 257.09 89.68 257.88 92.55 260.79 96.96 261.15 99.29 
M 258.09 99.03 258.09 99.03 
M 224.01 99.06 225.88 93.98 227.09 91.23 230.39 81.63 231.65 78.71 234.09 73.91 237.11 68.77 238.78 67.2 241.01 66.35 243.25 65.14 245.64 62.43 
M 229.07 99.07 230.6 97.28 231.76 94.76 233.23 92.1 234.79 84.75 237.46 78.78 238.51 76.87 239.48 74.25 240.83 71.78 243.39 70.33 246.06 69.79 248.1 67.96 250.31 65.5 253.16 63.5 
M 234.13 99.17 236.06 97.48 237.35 95.13 238.31 92.52 238.71 89.19 239.61 85.33 241.8 82.44 
M 239.19 99.23 240.71 97.33 242.04 89.34 246.43 83.77 249.23 80.87 253.89 77.63 
M 244.25 99.21 245.78 97.46 245.58 95.36 246.24 92.64 248.15 89.84 251.72 87.6 
M 249.31 99.03 251.03 98.24 252.24 95.47 
M 254.36 99.01 257.1 98.69 
M 164.58 149.24 328.82 152.58 328.81 153.59 164.26 152.82 
M 164.12 153.44 305.78 163.36 305.72 164.37 163.36 156.99 
M 163.28 157.55 282.53 171.93 282.42 172.94 162.78 161.11 
M 162.71 161.62 259.23 178.27 259.07 179.27 162.05 165.15 
M 161.96 165.58 236.05 182.4 235.85 183.39 161.11 169.1 
M 161.19 169.45 213.15 184.33 212.89 185.31 160.27 172.98 
M 161.27 173.53 190.68 184.09 190.38 185.06 160.19 177 
M 161.36 179.59 168.79 183.72 168.45 184.67 160.1 183.01 
M 312 153.51 306.89 154.28 304.41 154.84 302.01 155.6 299.71 156.59 297.5 157.79 295.38 159.19 291.28 162.35 
M 291.21 163.62 286.17 163.91 283.71 164.24 281.32 164.77 279.01 165.53 276.77 166.52 274.59 167.71 270.37 170.46 
M 270.23 171.73 265.31 171.54 262.89 171.64 260.52 171.94 258.21 172.48 255.95 173.25 253.74 174.23 249.41 176.58 
M 249.21 177.84 244.44 177.18 242.09 177.05 239.76 177.13 237.46 177.45 235.2 178.01 232.97 178.77 228.56 180.7 
M 228.3 181.94 223.72 180.84 221.44 180.49 219.17 180.35 216.91 180.45 214.66 180.79 212.42 181.34 207.95 182.84 
M 207.63 184.07 203.28 182.54 201.09 181.98 198.89 181.62 196.68 181.51 194.46 181.63 192.23 181.97 187.74 183.04 
M 187.36 184.25 183.13 182.74 181.01 182.19 178.87 181.84 176.73 181.74 174.57 181.87 172.4 182.22 168.05 183.31 
M 309.43 153.85 304.41 154.84 302.01 155.6 299.71 156.59 297.5 157.79 293.31 160.73 
M 283.4 153.71 279.26 154.52 277.29 155.15 273.57 156.95 270.11 159.38 
M 257.38 153.56 254.12 154.2 252.56 154.69 249.63 156.12 246.91 158.03 
M 231.36 153.41 227.84 154.24 225.7 155.28 223.71 156.67 
M 288.68 163.72 283.71 164.24 281.32 164.77 279.01 165.53 276.77 166.52 272.47 169.05 
M 258.82 162.17 255.02 162.56 253.18 162.97 249.69 164.31 246.39 166.25 
M 228.97 160.61 226.32 160.88 223.81 161.57 222.62 162.1 220.32 163.45 
M 267.76 171.59 262.89 171.64 260.52 171.94 258.21 172.48 255.95 173.25 251.57 175.36 
M 230.3 167.92 227.13 167.95 224.09 168.5 222.62 169 219.77 170.37 
M 246.82 177.47 242.09 177.05 239.76 177.13 237.46 177.45 235.2 178.01 230.76 179.69 
M 216.69 173.16 213.61 172.89 212.1 172.94 209.14 173.51 206.25 174.6 
M 226.01 181.35 221.44 180.49 219.17 180.35 216.91 180.45 214.66 180.79 210.18 182.05 
M 211.13 223.45 216.7 229.05 221.67 235.75 235.84 262.07 232.16 266.83 229.5 268.25 226.78 267.66 220.77 265.9 218.93 266.19 215.64 266.29 212.78 267.45 209.53 268.22 206.01 266.42 203.59 263.24 202 260.9 201.25 259.4 199.38 256.77 194.35 250.14 185.64 227.33 184.51 225.11 183.12 221.61 179.82 216.57 
M 206.09 223.01 209.31 227.17 211.43 230.56 217.28 238.72 219.77 241.18 223.5 245.63 224.92 248.7 
M 201.07 222.33 203.84 226.76 205.59 230.06 206.87 233.26 208.39 236.38 212.86 241.37 215.32 243.17 219.58 248.74 220.75 252.02 220.71 256.19 222.86 259.94 224.66 261.9 227.18 263.18 
M 196.11 221.37 200.63 229.03 202.31 232.47 203.51 235.81 204.41 239.26 205.7 242.56 207.74 245.72 
M 191.22 220.08 194.65 227.52 196.41 230.38 198.11 234.69 199.07 238.22 199.42 240.74 200.67 243.36 201.56 246.02 203.41 249.36 205.09 253.37 205.53 256.37 
M 186.35 218.69 188.75 222.21 189.87 225.9 192.37 232.6 193.39 235.96 193.72 239.65 194.35 243.03 196.67 248.79 
M 320.71 211.83 324.04 217.35 327.08 221.31 332.38 226.25 337.35 242.66 337.97 245.52 335.72 247.48 331.99 252.31 329.26 253.47 327.2 255.26 323.35 254.66 321.03 255.59 318.99 257.37 313.01 259.41 308.15 262.99 305.3 264.22 301.77 264.76 293.39 260.12 285.42 254.84 282.49 253.58 280.37 254.23 276.68 253.31 268.64 247.76 257.77 233.1 256.94 231.03 250.27 221.43 
M 315.76 212.84 319.17 216.01 321.57 219.77 323.3 223.1 325.07 225.5 327.44 227.82 328.72 230.91 
M 310.82 213.93 316.28 221.11 320.56 227.24 324.57 232.04 328.47 235.96 331.08 238.21 
M 305.9 215.13 309.18 219.05 311.57 222.24 313.58 225.59 315.65 228.53 318.84 230.77 324.01 235.75 
M 301.03 216.49 304.6 220.21 306.83 223.06 308.84 226.13 319.33 236.34 323.41 242.06 324.77 245.41 
M 296.15 217.83 302.15 224.61 304.65 227.03 306.61 229.57 309.1 232.16 311.09 235.04 313.44 237.72 318.84 242.9 
M 291.23 219.02 294.28 222.99 296.43 226.34 300.43 231.05 303.97 237.18 307.06 239.25 309.86 242.5 312.28 244.9 
M 286.24 219.86 288.43 224.3 290.38 227.6 293.56 229.79 295.53 232.24 298.11 238.18 300.7 240.76 304.6 246 307.43 249.49 310.89 253.25 312.33 255.09 
M 281.22 220.47 285.24 228.39 289.92 234.06 292.44 236.37 293.54 238.75 295.3 243.89 297.4 245.69 299.15 249.48 301.47 252.99 305.14 256.29 307.21 258.43 
M 276.18 220.81 278.58 224.98 280.16 228.53 286.33 236.72 289.01 243.37 
M 271.12 221.08 273.66 225.5 276.67 232.06 277.54 234.55 279.09 237.28 285.7 247.63 
M 266.07 221.27 268.63 225.79 270.64 228.79 271.98 231.77 272.39 234.95 273.69 237.85 278.66 245.69 
M 261.01 221.43 263.83 225.67 265.21 229.33 266.68 232.45 267.09 235.08 268.5 238.46 271.47 241.05 
M 255.95 221.5 259.67 226.08 261.33 229.36 262.2 232.12 262.28 234.63 263.57 238.33 266.96 241.78 
M 352.03 130.76 355.47 129.8 358.55 128.57 361.23 127.19 366.61 123.31 369.26 122.11 377.12 116.6 380.51 115.18 382.97 113.56 385.18 112.93 390.73 110.39 393.46 108.81 394.88 107.55 397.1 106.38 399.76 103.93 403.01 101.79 412.8 97.44 416.3 94.5 417.8 92.2 420.44 89.55 423.6 87.3 426.54 85.83 428.68 84.45 431.23 83.39 433.23 81.22 435.03 80.32 436.57 78.44 439.33 75.93 442 74.97 444.89 73.49 449.01 70.85 452.3 70.5 454.25 69.63 457.45 68.74 475.84 73.39 479.13 75.22 481.41 76.04 483.38 76.55 488.73 78.98 490 81.94 489.62 84.68 489.45 87.63 489.8 91.09 489.16 93.56 488.11 99.46 487.83 102.77 488.18 110.31 487.52 113.25 486.58 116.24 484.52 118.41 483.48 121.6 482.11 124.45 476.9 127.7 474.49 129.52 472.79 132.1 470.27 133.88 468.65 136.55 467.51 139.7 465.4 141.88 462.34 143.12 460.17 145.23 459.62 148.49 459.84 152.53 458.52 155.03 456.91 157.23 456.07 160.21 456.12 166.51 457.2 173.57 457.74 178.82 456.97 180.16 457.99 183.29 459.8 186.41 476.67 200.35 477.89 203.31 479.44 208.35 482.33 216.47 483.62 219.56 484.6 222.71 485.2 225.48 486.68 229.13 487.58 232.21 488.11 234.91 489.03 238.22 487 240.26 485.28 242.6 484.42 245.8 482.53 248.17 477.58 251.8 475.69 254.21 474.47 257.28 472.94 260.53 454.35 269.12 453.05 267.97 450.61 265.36 448.89 264.04 447.99 260.68 446.42 256.98 443.72 255.19 439.97 254.28 433.76 251.77 431.72 249.15 428.06 247.59 425.3 246.75 423.04 245.33 418.86 242.16 412.68 238.83 410.06 237 406.57 235.19 402.08 231.36 399.85 228.88 398.31 227.71 396.12 226.73 393.42 224.73 390.37 223.33 385.91 218.59 380.23 214.53 377.32 212.83 374.28 211.31 371.57 209.37 369.49 207.59 366.33 205.37 357.89 200.1 355.11 197.91 352.03 195.08 
M 355.49 134.13 358.53 133.06 361.48 131.7 367.18 128.45 372.51 125.88 374.74 124.52 376.98 123.8 380.05 122.17 386.34 119.59 389.09 118 391.36 117 396.45 114.26 398.5 113.74 401.45 112.7 404.21 110.35 407.98 107.65 410.24 105.41 413.07 104.57 418.87 103.62 421.45 102.52 424.3 99.54 429.99 96.33 434.98 93.06 436.69 92.68 
M 361.82 136.63 370.38 132.35 375.57 130.51 378.18 129.17 384.49 127.3 389.84 123.12 392.73 122.31 397.9 121.41 403.38 119.62 407.31 117.07 411.5 115.42 414.79 114.38 417.31 111.81 419.6 111.63 423.47 110.38 430.49 107.21 434.08 106.03 435.68 105.85 437.26 105 439.54 104.24 445.85 101.09 449.22 98.64 451.55 96.65 455.12 95.36 457.02 95.76 459.29 94.32 462.67 93.64 466.17 92.25 
M 362 141.42 368.18 139.33 373.37 137.1 379.68 135.56 382.72 134.07 385.6 132.33 388.54 132.07 391.47 130.93 400.49 129.55 402.78 128.6 405.9 126.61 408.62 125.39 414.47 123.12 417.64 122.6 423.79 121.24 426.34 119.69 429.92 119.4 435.67 117.17 441.8 116.3 444.38 115.28 449.12 111 
M 355.84 147.46 365.05 145.89 368.47 145.95 371.54 145.17 373.88 144.83 379.62 142.65 383.46 141.66 386.54 140.29 388.78 140.04 391.91 138.87 395.34 138.04 402.92 137.05 405.05 137.05 407.87 136.37 411.13 135.49 413.48 133.97 416.41 132.63 418.8 131.19 421.38 130.24 424.49 129.25 430.92 129.07 434.27 128.68 436.19 127.09 439.4 125.87 442.24 125.45 448.12 123.31 450.85 122.59 
M 355.53 151.94 358.9 151.85 365.16 150.83 371.93 150.29 374.83 149.86 380.57 148.64 384.01 148.61 386.55 148.25 389.52 147.28 392.87 146.96 396.09 146.38 398.63 145.33 401.89 144.69 405.15 143.31 408.11 143.56 410.14 143.4 417.49 141.22 
M 352.03 155.86 355.68 156.32 358.87 156.29 362.23 156.63 365.58 156.45 368.92 155.87 374.43 154.3 377.64 154.73 381.14 154.61 387.31 153.67 390.28 152.8 393.25 153.32 397.21 152.72 400.32 153.04 403.44 152.59 409.77 153.88 412.77 153.68 416.05 152.73 419.35 151.4 423.23 150.84 426.58 149.87 429.89 149.48 433.1 149.92 438.49 149.08 444.68 148.71 446.96 148.8 
M 356.05 161.05 363.06 161.62 366.49 161.66 372.86 161.41 378.71 160.37 382.03 160.43 385.6 161.16 387.31 161.69 389.56 161.69 394.07 161.23 401.16 161.67 404.44 160.72 407.34 160.81 410.12 161.36 413.27 161.51 416.57 160.98 420.69 161.95 424.6 162.63 428.12 162.36 430.09 162.48 432 161.65 436.57 162.78 440.06 161.29 
M 363.21 166.65 366.53 167 369.58 166.96 372.92 167.47 379.45 167.06 382.68 167.79 385.09 168.67 390.27 169.4 393.72 168.92 401.6 168.38 404.46 169.45 407.83 170.15 411.22 169.69 414.36 170.15 417.22 170.97 419.98 171.48 425.57 172.02 
M 352.03 168.41 355.65 169.63 362.13 171.15 365.01 172.14 377.09 173.84 380.16 174.12 383.81 174.06 387.24 175.38 390.35 176.26 394.26 175.95 400.47 176.2 406.29 177.41 408.84 178.25 411.95 179.02 415.26 178.59 418.33 180.73 421.69 181.66 425.25 180.86 428.37 180.85 
M 355.55 173.73 358.66 174.49 367.68 177.82 371.26 178.49 374.22 178.37 377.31 179.3 380.69 179.86 384.48 180.78 387.38 182.38 390.95 183.02 396.17 183.5 398.31 183.54 401.43 184.29 409 186.76 411.72 187.39 414.15 188.33 
M 359.05 179.22 361.98 180.04 365.18 181.21 368.34 181.98 371.8 183.05 377.32 185.49 380.28 186.21 386.62 189.3 388.82 190.79 391.88 190.7 395.91 190.24 402.59 191.66 404.81 192.8 406.64 193.96 409.85 195.33 418.11 199.36 421.54 200.28 424.72 200.47 428.61 199.76 432.74 200.08 435.01 202.59 437.67 203.48 440.41 203.93 443.42 205.06 445.62 205.67 448.4 207.17 
M 359.05 183.89 371.17 188.58 376.63 191.48 382.77 193.41 385.02 195.36 386.97 197.5 390.02 198.82 397.3 198.84 400.16 199.41 402.9 201.29 405.63 202.83 408.83 204.02 412.23 205.57 414.69 206.99 417.25 207.75 420.91 208.52 425.45 211.3 428.29 212.31 431.89 212.87 434.08 215.06 440.44 217.46 443.22 219.06 446.24 220.26 448.42 221.94 451.32 223 455.36 222.66 458.83 222.89 459.97 224.51 462.47 225.92 
M 352.03 185.15 361.61 190.43 366.37 193.66 368.99 195.23 372.58 195.96 375.88 197 379.24 198.34 381.92 199.93 384.13 202.28 387.89 202.99 391.75 204.3 394.43 205.51 396.28 207.01 397.53 208.62 400.84 209.73 403.57 212.4 407.48 214.02 411.77 215.27 414.14 216.29 416.3 217.56 419.21 218.77 422.54 219.42 424.79 220.61 428.46 223.57 435.35 227.34 438.69 228.63 442.02 230.82 445.98 231.89 
M 352.03 189.33 358.05 193.78 366 199.09 368.9 200.83 372.19 201.99 377.39 204.54 379.72 206.16 382.8 207.61 386.62 210.02 390.11 212.31 392.85 214.38 394.75 216.45 399.49 218.99 407.96 222.06 410.95 222.85 412.78 224.64 415.57 225.31 419 227.3 421.19 229.04 426.66 233.95 429.22 234.9 439.97 243.04 442.98 244.72 445.96 244.52 449.15 245.29 452.52 247.48 455.23 249.86 458.78 251.13 
M 320.71 110.79 321.85 108.18 323.43 106.01 327.31 102.4 332.63 96.47 334.89 94.98 337.66 93.99 340.91 93.56 344.45 94.51 347.25 96.7 348.52 99.5 348.32 102.58 347.02 105.5 344.99 107.56 342.87 108.79 341.11 110.33 338.32 114.13 336.37 115.99 
M 324.38 109.13 327.31 106.44 332.63 100.52 334.89 99.03 337.66 98.04 339.28 97.82 
M 39.78 168.19 40.68 165.78 42.66 161.88 46.26 157.94 51.62 154.35 57.61 150.94 63.15 147.41 69.24 142.69 76.67 137.8 95.08 128.94 104.37 125.16 123.89 118 132.39 114.47 140.13 111.63 147.05 109.72 152.8 108.59 156.25 108.14 159.41 113.7 160.42 119.13 161.7 124.58 163.23 130.05 164.27 135.49 164.59 140.86 164.53 151.56 163.39 156.82 162.64 162.12 161.61 167.39 158.49 177.85 157.91 183.16 155.98 193.71 154.46 198.94 152.19 204.12 148.53 209.11 132.79 208.42 121.27 207.19 110.99 205.5 101.53 203.54 84.38 198.97 76.75 196.58 70 194.11 63.77 191.49 57.94 188.67 52.69 185.75 
M 133.04 145.46 132.63 150.03 130.79 154.37 128.95 158.46 122.73 169.11 121.53 175.01 123.39 184.41 122.95 188.37 105.15 188.03 90.46 186.81 76.2 184.25 69.71 182.34 
M 50.82 185.27 42.69 178.19 38.58 174.96 36.78 173.25 35.78 170.89 36.8 168.52 39.21 167.81 41.25 169.18 45.47 175.36 50.02 181.56 52.75 185.7 
M 52.38 186.54 47.65 187.24 40.02 187.97 34.65 188.34 32.11 188.29 30.05 186.81 29.99 184.31 31.91 182.48 34.51 182.52 37.13 183.07 52.41 185.53 
M 85.77 156.09 84.86 152.65 85.12 149.09 86.52 145.81 88.91 143.17 92.02 141.44 95.53 140.82 99.06 141.37 102.21 143.03 104.65 145.63 106.11 148.88 106.44 152.43 105.6 155.9 103.68 158.9 100.89 161.12 97.53 162.31 93.97 162.34 90.58 161.22 87.75 159.06 85.77 156.09 
M 85.64 155.79 84.93 153.21 84.82 151.87 85.09 149.21 86.01 146.69 86.7 145.54 88.47 143.53 90.69 142.02 93.2 141.1 95.87 140.82 97.2 140.93 99.79 141.64 
M 87.51 155.02 87.15 153.98 86.84 151.83 86.88 150.74 87.21 149.18 
M 89.49 145.37 90.67 144.38 91.61 143.82 93.66 143.07 95.82 142.84 97.98 143.16 99.01 143.51 
M 89.38 154.24 89.1 153.45 88.86 151.79 89.19 149.6 
M 91.17 146.55 92.54 145.62 93.31 145.28 94.94 144.9 96.62 144.94 98.24 145.38 
M 91.69 153.43 91.33 152.05 91.43 150.66 
M 92.83 148.38 94.19 147.56 95.6 147.31 97.01 147.54 98.27 148.2 99.24 149.24 99.83 150.54 99.96 151.96 99.63 153.35 98.86 154.55 97.74 155.43 96.4 155.91 94.97 155.93 93.62 155.48 92.48 154.61 91.69 153.43 
M 93.21 148.11 92.99 148.55 
M 91.82 150.88 91.34 151.84 
M 95.08 147.41 93.97 149.61 
M 93.1 151.36 91.91 153.75 
M 96.57 147.47 94.97 150.66 
M 94.61 151.37 92.85 154.89 
M 97.83 147.97 94.01 155.61 
M 98.9 148.87 95.37 155.92 
M 99.71 150.28 97 155.7 
M 40.05 167.46 44.71 172.11 
M 41.95 163.28 45.12 166.46 
M 44.55 159.81 49.46 164.72 
M 47.75 156.94 51.71 160.9 
M 51.39 154.51 54.46 157.58 
M 55.24 152.29 59.97 157.02 
M 59.05 150.02 63.87 154.84 
M 62.75 147.66 67.74 152.65 
M 66.21 145.04 71.95 150.79 
M 69.65 142.42 75.23 148 
M 73.31 140.01 77.77 144.47 
M 77 137.63 82.69 143.32 
M 81.08 135.63 85.65 140.2 
M 85.15 133.63 89.93 138.41 
M 89.27 131.68 93.76 136.17 
M 93.39 129.74 97.14 133.48 
M 97.63 127.9 102.08 132.35 
M 101.95 126.14 107.89 132.09 
M 106.31 124.44 111.05 129.18 
M 110.75 122.81 114.47 126.52 
M 115.2 121.18 120.18 126.17 
M 119.64 119.56 123.67 123.58 
M 124.08 117.92 129.04 122.88 
M 128.37 116.14 133.16 120.94 
M 132.67 114.37 138.63 120.33 
M 137.1 112.74 142 117.63 
M 141.65 111.21 146.73 116.29 
M 146.4 109.89 150.15 113.64 
M 151.44 108.86 155.26 112.68 
M 137.38 115.01 135.53 113.32 
M 108.98 189.88 110.01 187.77 111.23 186.47 112.53 186.09 115.24 186.55 
M 44.35 173.68 46.34 171.71 47.65 169.93 48.38 169.33 51.62 168.06 52.19 167.59 53.06 166.11 53.32 165.16 
M 135.59 196.56 134.55 198.65 133.54 199.73 132.9 200.09 131.77 200.25 130.25 199.66 
M 105.39 175.62 103.84 174.55 103.07 173.31 101.99 172.1 101.18 171.49 100.24 171.06 98.04 170.86 96.02 171.19 92.71 172.82 
M 111.49 172.25 112.59 171.65 114.24 169.7 115.19 169.06 116.42 168.8 118.34 169.23 
M 122.93 202.96 124.53 200.13 124.93 198.81 124.88 198.13 124.68 197.51 124.33 197.05 123.83 196.72 121.52 196.13 
M 131.37 208.27 130.89 206.99 129.65 204.85 129 202.99 
M 80.7 182.2 81.21 186.19 81.08 186.75 80.61 187.46 80.18 187.77 79.95 187.72 
M 42.11 162.97 46.37 166.82 46.98 167.07 47.86 167.02 49.65 166.43 
M 99.9 192.57 100.81 190.59 100.92 189.66 100.82 188.3 100.66 187.38 100.36 186.81 99.18 185.26 
M 90.97 164.85 91.62 166.09 91.54 166.63 91.21 167.17 90.45 167.77 89.88 167.92 89.52 167.73 89.5 167.31 
M 127.7 185.63 125.45 184.91 122.98 184.71 121.8 184.79 120.4 185.38 118.19 186.94 
M 131.05 168.51 128.23 168.26 127.39 168.38 126.3 168.89 124.9 169.82 122.41 170.57 121.18 171.22 
M 134.34 124.46 132.88 124.95 131.62 125.71 130.92 125.86 129.29 125.42 128.01 124.7 
M 161.02 131.21 163.07 129.47 
M 60.6 174.3 60.48 175.23 60 176.29 59.53 176.63 58.81 176.62 
M 152.23 121.55 151.22 119.83 150.5 117.7 150.15 113.24 149.16 109.3 
M 159.77 131.49 161.37 130.47 162.97 129.12 
M 127.47 135.63 126.85 135.35 126.28 135.3 122.86 135.9 122.37 136.15 121.73 137.01 
M 145.3 194.34 144.7 196.15 143.19 197.54 142.67 197.82 
M 108.74 130.28 108.18 130.19 106.19 129.28 105.28 129.03 102.88 128.92 101.13 128.51 99.88 127.84 99.19 127.27 
M 82.72 180.52 82.11 182.3 81.96 185.14 81.61 186.71 80.52 187.73 79.94 187.79 
M 151.74 185.82 150.93 186.77 150.61 187.4 150.52 188.74 150.17 189.75 148.09 192.91 
M 135.49 153.76 134.95 150.7 135.28 149.03 135 146.55 134.67 146.06 133.16 145.02 
M 106.57 146.42 106.04 146.92 105.37 147.23 
M 124.18 190.09 118.07 189.07 117.66 188.86 117.21 188.27 117.18 187.76 117.57 187.28 
M 128.42 167.88 126.95 168.16 124.78 169.73 121.81 170.79 120.22 171.94 
M 141.87 134.75 146.29 135.09 147.22 135.23 147.97 135.53 149.03 136.73 149.35 138.24 
M 136.18 156.04 135.72 151.21 135.86 149.5 135.76 147.8 135.32 146.08 135.04 145.66 134.42 145.46 
M 155.94 109.69 156.4 108.41 
M 93.53 188.33 94.45 185.42 95.16 181.99 95.02 181.08 94.3 179.47 94.09 178.35 
M 106.29 153.05 107.29 152.75 108.02 152.82 109.47 154.25 
M 96.02 202.03 95.05 201.77 
M 78.69 149.79 78.56 149.22 78 148.55 77.35 148.14 76.31 147.79 75.59 147.67 72.9 147.74 71.24 147.95 
M 129.44 161.7 131.6 163.31 132.25 164.41 132.3 165.55 131.97 166.07 131.31 166.53 
M 122.59 182.14 121.44 182.55 120.98 183.01 120.55 184.77 119.61 185.8 
M 139.85 153.2 140.03 151.41 139.86 150.55 137.81 145.04 137.95 143.71 138.37 143.21 
M 70.4 141.93 69.36 144.77 69.25 147.41 68.94 148.55 68.56 149.24 
M 164 138.8 164.23 139.5 163.73 140.61 162.79 141.35 162.37 141.36 162.07 141.17 
M 108.71 186.42 108.16 185.57 107.46 184.99 106.11 184.46 103.26 183.85 101.51 183.09 100.66 182.6 99.06 181.14 
M 48.34 173.36 48.77 171.61 49.2 170.9 50.15 169.97 52.31 168.42 53.24 167.09 53.66 166.32 53.93 165.39 54 164.31 
M 137.62 189.99 138.31 191.3 139.57 193.04 
M 155.39 122.91 153.38 117.39 153.36 115.03 153.89 113.44 154.3 112.93 156.22 111.65 
M 92.2 135.73 89.59 136.89 88.16 137.31 87.23 138.53 87 139.16 87.01 139.72 
M 141.99 170.79 141.34 169.55 141.22 168.64 142.05 165.02 
M 129.71 125.4 127.14 124.21 121.85 122.72 
M 69.7 169.86 68.67 171.58 66.56 173.43 65.28 174.85 64.87 175.46 64.49 177.01 
M 83.01 143.01 87.58 144.64 
M 88.54 143.58 88.47 143.08 
M 130.65 127.44 129.84 126.7 126.69 124.96 
M 143.7 117.06 142.24 115.18 140.91 114.27 138.09 112.91 137.65 112.54 
M 92.92 191.69 94.15 190.16 94.51 189.44 95.91 185.31 96.13 182.2 95.99 181.32 95.61 180.54 
M 72.66 153.25 71.41 152.98 68.61 153.22 66.18 154.22 65.61 154.84 65.22 155.57 
M 159.85 132.1 163.05 129.38 
M 53.87 184.73 53.09 183.47 51.82 182.62 49.46 179.89 49.25 179.39 49.24 178.67 49.72 176.73 
M 67.84 143.78 67.97 145.52 
M 88.64 184.61 88.25 187.13 87.51 187.94 86.27 188.3 82.51 188.81 
M 125.65 207.66 124.86 207.39 124.66 207.04 125.02 205.83 125.6 204.94 
M 161.86 149.63 161 149.34 161.3 148.82 
M 88.06 132.25 88.23 133.75 88.15 134.6 87.84 135.83 87.1 137.28 86.83 138.68 86.86 139.31 
M 129.01 198.87 127.56 197.23 126.59 196.69 124.56 196.23 121.12 195.88 120.1 195.15 
M 152.2 198.14 151.62 198.17 150.17 198.6 147.12 200.18 144.58 200.33 
M 118.75 140.39 118.4 143.29 118.78 146.32 
M 146.52 199 145.62 199.49 144.15 199.95 142.7 200.16 141.62 200.05 
M 115.32 160.37 117.26 160.55 117.81 160.7 118.63 161.19 
M 56.34 187.8 56.03 184.89 55.59 183.89 54.61 182.91 52.24 181.13 50.18 178.61 49.9 177.1 
M 132.11 180.28 131.64 179.57 131.02 179.05 130.17 178.68 128.38 178.34 126.76 177.75 124.75 176.45 122.29 175.99 
M 111.59 124.73 110.86 124.62 110 123.09 
M 88.59 132 88.47 133.84 88.12 135.34 87.3 136.88 86.99 137.83 86.84 138.72 86.94 139.7 
M 150.94 143.93 153.44 144.8 155.9 145.22 158.55 145.47 159.96 145.02 
M 50.76 170.24 52.24 168.88 53.7 167.01 54.1 166.24 54.33 165.23 54.35 164.06 54.08 161.57 53.67 160.41 53.08 159.4 52.37 158.59 
M 109.1 167.74 109.76 166.91 111.48 166.19 112.76 165.1 
M 50.11 177.84 49.91 176.51 51.19 174.77 
M 128.62 163.5 129.83 164.51 129.97 165.28 129.65 165.67 129.08 165.91 127.57 165.88 
M 59.76 166.83 59.96 166.58 60.37 166.83 60.53 167.83 
M 157.95 167.85 159.81 167.64 161.84 166.21 
M 65.92 192.39 66 192.32 
M 151.17 168.55 154.21 169.32 155.91 170.51 
M 110.11 141.88 110.63 142.62 111.12 143 113.5 144.4 115.67 145.35 116.99 146.32 117.77 147.1 117.94 148.16 
M 103.24 141.32 101.48 142.65 
M 92.82 141.3 92.3 140.97 89.92 140.09 89.14 139.55 
M 78.46 136.92 81.06 137.95 83.34 139.38 
M 117.47 175.91 117.53 175.36 
M 104.31 157.92 105.13 158.36 106.02 158.48 107.32 158.25 107.84 157.7 
M 102.49 126.09 102.23 126.03 
M 152.49 192.3 151.17 193.05 150.53 193.64 149.5 195.1 148.66 196.98 146.95 198.77 146.05 199.42 144.79 199.87 
M 141.24 165.76 141.33 164.64 141 163.6 138.91 161.34 138.12 160.16 
M 47.55 178.22 48.43 177.12 
M 76.03 196.32 77.51 195.84 78.64 195.75 79.17 195.86 
M 132.92 178.03 130.91 177.33 126.83 176.91 124.92 176.28 121.04 175.86 
M 109.02 197.42 111.26 199.9 112.75 200.86 113.68 201.71 115.13 203.8 
M 68.79 193.5 70.83 193.2 71.41 192.84 72.51 191.9 75.81 189.76 77.3 188.53 78.32 187.14 78.8 186.73 
M 103.57 195.13 102.99 195.77 102.87 196.55 103.14 197.04 103.64 197.51 104.66 197.9 
M 104.9 201.38 104.33 201.46 
M 114.57 182.26 119.06 184.63 119.35 185.01 119.37 185.4 118.89 186.19 118.23 186.85 
M 128.03 202.57 128.11 201.85 126.71 197.53 125.91 196.83 124.56 196.41 
M 139.54 111.85 139.53 111.84 
M 143.24 197.27 142.76 197.68 142.3 197.74 141.29 197.39 140.7 196.92 
M 152.56 203.28 150.36 201.95 
M 85.54 133.43 86.68 134.38 87.07 135.01 86.76 138.8 
M 100.74 161.63 100.92 161.1 
M 103.82 158.69 106.15 158.5 
M 95.55 139.26 93.49 139.82 91.77 139.97 89.49 139.55 88.57 139.1 87.6 139.27 
M 52.73 185.67 53.68 186.72 
M 48.13 182.88 47.89 184.2 48.39 183.62 48.8 183.47 
M 44.08 179.39 43.17 180.6 42.78 182.42 43.58 181.05 45 180.19 
M 40.01 176.09 38.36 178.02 37.67 180.65 38.77 178.47 41.03 176.9 
M 36.39 172.33 33.55 175.45 32.55 178.87 33.95 175.9 37.1 173.55 
M 52.4 185.94 54.01 186.03 
M 47.5 184.77 47.9 183.88 48.63 183.15 48.5 183.91 48.85 184.96 
M 42.58 183.9 43.09 181.79 44.26 180.33 43.7 181.82 44.03 184.17 
M 37.67 183.16 38.29 179.71 39.89 177.51 38.9 179.74 39.18 183.4 
M 32.77 182.49 33.49 177.62 35.51 174.68 34.09 177.66 34.32 182.52 
M 39.93 187.97 45.29 190.18 49.25 191.47 53.26 192.46 57.35 193.18 61.53 193.65 70 194.11 
M 42.13 187.74 42.39 188.27 42.31 189 
M 156.64 108.82 163.07 115.26 
M 162.48 106.57 170.17 114.26 
M 169.41 105.41 177.11 113.11 
M 176.58 104.48 186.3 114.2 
M 183.55 103.36 192.05 111.86 
M 190.34 102.06 202.43 114.15 
M 197.2 100.82 203.74 107.36 
M 204.35 99.88 215.04 110.57 
M 211.93 99.36 218.44 105.87 
M 219.78 99.12 227.15 106.49 
M 227.8 99.05 236.77 108.01 
M 236.05 99.2 243.97 107.11 
M 244.16 99.21 254.42 109.47 
M 252.05 99.01 259.76 106.72 
M 260.36 99.22 267.88 106.74 
M 269.35 100.12 278.22 108.99 
M 278.64 101.32 290.63 113.31 
M 288.12 102.7 296.75 111.33 
M 298.49 104.98 307.67 114.16 
M 309.58 107.98 320.73 119.12 
M 320.42 110.72 329.74 120.03 
M 332.13 114.34 343.29 125.49 
M 165.18 211.13 165.57 211.91 
M 166.43 206.54 169.74 213.16 
M 167.65 201.89 173.96 214.52 
M 168 195.52 178.26 216.03 
M 168.36 189.15 182.51 217.44 
M 169.56 184.46 184.04 213.42 
M 172.02 182.31 184.32 206.91 
M 175.32 181.82 185.48 202.15 
M 178.87 181.84 186.57 197.24 
M 182.82 182.66 187.66 192.33 
M 169.77 149.47 170.61 151.15 
M 187.11 184.16 188.77 187.48 
M 205.06 220.06 206.56 223.05 
M 170 142.85 174.18 151.21 
M 206.2 215.25 210.26 223.37 
M 170.23 136.22 177.75 151.27 
M 205.52 206.81 213.82 223.42 
M 170.65 129.99 181.32 151.32 
M 205.04 198.77 217.34 223.38 
M 171.99 125.58 184.89 151.38 
M 206.38 194.36 220.8 223.21 
M 171.59 117.7 188.46 151.44 
M 206.88 188.29 224.21 222.94 
M 171.28 109.99 190.28 148 
M 207.87 183.17 223.77 214.97 
M 172.33 105.01 189.97 140.3 
M 210.76 181.87 224.36 209.08 
M 175.66 104.6 190.59 134.46 
M 213.86 180.99 224.98 203.24 
M 179 104.19 192.12 130.43 
M 217.13 180.44 225.6 197.4 
M 182.25 103.61 192.66 124.43 
M 220.67 180.44 226.15 191.4 
M 185.48 102.99 194.08 120.19 
M 224.5 181.02 227.57 187.16 
M 188.71 102.37 194.6 114.13 
M 211.79 148.52 213.46 151.86 
M 228.36 181.66 228.99 182.91 
M 245.28 215.49 248.24 221.41 
M 191.94 101.75 194.21 106.27 
M 212.31 142.47 217.03 151.92 
M 245.79 209.44 251.8 221.45 
M 212.82 136.42 220.6 151.98 
M 246.31 203.39 255.36 221.49 
M 213.41 130.51 224.17 152.04 
M 247.8 199.29 258.9 221.5 
M 214 124.61 227.74 152.1 
M 249.29 195.2 262.39 221.39 
M 213.74 117.02 231.32 152.16 
M 250.85 191.23 265.88 221.28 
M 213.54 109.53 233.45 149.35 
M 251.55 185.55 268.82 220.09 
M 214.26 103.89 233.27 141.9 
M 253.18 181.72 268.56 212.49 
M 215.48 99.25 234.03 136.35 
M 253.94 176.17 269.33 206.94 
M 218.97 99.13 233.9 129 
M 256.02 173.23 271 203.21 
M 221.34 96.8 233.56 121.24 
M 259.08 172.28 271.57 197.26 
M 222.49 92.01 232.89 112.82 
M 262.34 171.71 272.71 192.46 
M 224.22 88.38 232.81 105.58 
M 255.44 150.83 256.31 152.58 
M 265.8 171.55 273.54 187.03 
M 226.02 84.91 231.91 96.68 
M 255.44 143.74 259.88 152.64 
M 269.41 171.69 274.44 181.75 
M 290.73 214.33 292.88 218.62 
M 227.75 81.29 230.92 87.63 
M 255.36 136.5 263.46 152.7 
M 271.84 169.47 275.27 176.32 
M 290.65 207.09 296.04 217.86 
M 229.28 77.26 230.63 79.97 
M 255.07 128.84 267.03 152.76 
M 274.52 167.75 275.88 170.47 
M 291.27 201.24 299.16 217.02 
M 231.11 73.84 231.56 74.75 
M 255.09 121.81 270.6 152.82 
M 292.2 196.02 302.26 216.14 
M 255.3 115.13 274.17 152.88 
M 293.31 191.15 305.36 215.26 
M 255.31 108.08 276.13 149.71 
M 294.23 185.91 308.52 214.49 
M 253.38 97.13 276 142.38 
M 294.1 178.58 311.26 212.89 
M 249.73 82.76 275.98 135.25 
M 294.08 171.44 312.18 207.64 
M 249.39 74.99 257.19 90.59 
M 261.56 99.33 276.49 129.19 
M 293.69 163.58 312.69 201.59 
M 250.55 70.23 256.84 82.8 
M 265.26 99.65 277.48 124.08 
M 295.13 159.38 312.77 194.67 
M 251.95 65.94 256.29 74.62 
M 269.02 100.08 277.62 117.28 
M 294.81 151.67 295.6 153.23 
M 297.79 157.63 312.91 187.87 
M 251.67 58.29 256.76 68.47 
M 272.79 100.54 276.86 108.68 
M 294.96 144.88 299.17 153.29 
M 300.62 156.2 313.06 181.08 
M 251.95 51.78 258.03 63.93 
M 296.04 139.95 302.74 153.35 
M 303.61 155.1 313.23 174.34 
M 253.72 48.24 258.29 57.37 
M 296.22 133.23 306.31 153.41 
M 306.76 154.31 313.41 167.62 
M 256.24 46.2 258.97 51.66 
M 296.42 126.55 309.88 153.47 
M 310.03 153.77 313.61 160.94 
M 332.62 198.95 336.84 207.39 
M 259.34 45.32 260.97 48.57 
M 297.53 121.69 313.82 154.27 
M 332.83 192.28 339.73 206.09 
M 262.51 44.57 263.08 45.71 
M 297.84 115.23 314.13 147.81 
M 332.23 184.01 342.62 204.78 
M 297.3 107.07 314.5 141.46 
M 331.69 175.85 345.22 202.9 
M 300 105.39 315.84 137.06 
M 333.04 171.45 347.47 200.31 
M 304.1 106.49 316.31 130.93 
M 333.51 165.32 349.72 197.73 
M 308.19 107.6 316.79 124.8 
M 333.08 157.38 351.97 195.15 
M 312.29 108.71 317.27 118.67 
M 332.65 149.44 352.03 188.18 
M 316.1 109.24 317.46 111.96 
M 333.75 144.54 352.03 181.1 
M 333.88 137.74 351.78 173.52 
M 334.88 132.63 350.26 163.4 
M 336.27 128.33 349.84 155.48 
M 336.14 121 350.62 149.96 
M 334.87 111.37 336.57 114.78 
M 337.49 116.62 351.55 144.73 
M 335.27 105.1 338.87 112.3 
M 342.42 119.39 352.03 138.6 
M 335.01 97.5 341 109.46 
M 350.9 129.26 352.03 131.52 
M 336.5 93.39 343.51 107.41 
M 339.7 92.71 346.07 105.45 
M 343.51 93.25 348.01 102.25 
"/></svg>