<svg xmlns="http://www.w3.org/2000/svg" width="520" height="320"><rect x="0" y="0" width="520" height="320" fill="floralwhite"/><rect x="10" y="10" width="500" height="300" stroke="black" stroke-width="1" fill="none"/><path stroke="black" stroke-width="1" fill="none" stroke-linecap="round" stroke-linejoin="round" d="
M 146.07 130.73 162.56 121.82 170.78 117.78 179 114.11 195.45 107.35 203.67 104.62 211.89 102.62 220.12 101.11 244.79 100.37 253.01 101.68 261.23 104.28 269.45 107.48 285.9 114.61 294.12 118.01 302.34 121.93 327.01 135.53 359.9 152.56 
M 359.9 182.73 335.23 198.37 327.01 203.39 318.79 207.97 310.57 212.32 302.34 216.09 285.9 223.07 277.68 225.64 269.45 227.88 261.23 229.9 253.01 230.96 244.79 231.68 236.56 231.37 228.34 231.38 220.12 231.61 211.89 230.18 203.67 227.84 195.45 225.11 187.23 222.09 179 219.48 170.78 216.37 162.56 212.41 154.37 207.81 
M 157.84 146.21 158.51 144.48 158.51 143.49 157.92 141.88 157 140.46 156.28 139.91 
M 157.15 140.7 157.96 140.06 159 138.41 159.67 136.54 159.67 135.39 159 133.52 157.96 131.88 157.15 131.23 
M 159.03 194.34 160.25 192.83 160.25 192.26 
M 156.45 204.79 157.42 204.01 158.25 202.84 158.25 202.12 157.7 201.34 
M 157.58 132.88 158.22 132.15 159.04 130.28 159.57 128.16 159.57 126.85 159.04 124.73 158.69 123.93 
M 164.82 143.43 164.82 142.49 164.23 140.75 163.32 139.21 162.61 138.62 
M 160.19 201.02 161.1 200.61 162.27 199.57 163.02 198.39 163.02 197.66 162.27 196.48 161.1 195.44 160.19 195.04 
M 160.05 206.61 159.71 206.02 158.7 205.03 157.91 204.65 
M 163.23 139.81 164.06 139.12 165.13 137.37 165.81 135.38 165.81 134.15 165.13 132.16 164.06 130.4 163.23 129.72 
M 165.37 196.72 166.49 196.31 167.83 195.31 
M 162.91 205.82 163.93 205.44 165.24 204.44 166.08 203.32 166.08 202.62 165.24 201.5 163.93 200.51 162.91 200.12 
M 163.45 131.86 164.13 131.08 164.99 129.07 165.55 126.8 165.55 125.39 164.99 123.11 164.1 121.07 
M 171.26 140.87 170.98 140.05 170.03 138.44 169.29 137.81 
M 168.65 202.02 169.58 201.64 170.77 200.66 171.54 199.55 171.54 198.86 170.77 197.75 169.58 196.77 168.65 196.39 
M 165.88 209.32 166.65 208.58 167.29 207.5 167.29 206.83 166.65 205.74 165.65 204.79 164.87 204.41 
M 169.68 139.22 170.54 138.5 171.64 136.66 172.35 134.57 172.35 133.28 171.64 131.19 170.54 129.35 169.68 128.63 
M 173.85 197.88 174.04 197.81 
M 170.72 206.28 171.78 205.9 173.13 204.94 174 203.84 174 203.17 173.13 202.07 171.78 201.11 170.72 200.73 
M 170.47 211.31 169.83 210.45 168.52 209.44 167.49 209.05 
M 169.78 131.22 170.49 130.39 171.4 128.28 171.99 125.88 171.99 124.4 171.4 122 170.49 119.89 169.78 119.06 
M 177.23 138.49 176.93 137.98 176.19 137.34 
M 177.13 203.19 178.04 202.81 179.22 201.84 179.98 200.74 179.98 200.19 
M 172.24 210 173.13 209.63 174.26 208.67 175 207.59 175 206.92 174.26 205.84 173.13 204.89 172.24 204.51 
M 168.14 120.9 169.09 120.09 170.28 118.03 
M 176.31 138.65 177.21 137.92 178.37 136.05 179.11 133.93 179.11 132.62 178.37 130.5 177.21 128.63 176.31 127.9 
M 178.95 207.26 180.06 206.88 181.49 205.9 182.41 204.79 182.41 204.11 181.49 203 180.06 202.02 178.95 201.64 
M 178.74 214.12 179.42 213.3 179.42 212.56 178.44 211.37 176.94 210.33 175.76 209.92 
M 176.42 130.51 177.23 129.69 178.27 127.6 178.93 125.22 178.93 123.76 178.27 121.39 177.23 119.29 176.42 118.47 
M 176.16 121.24 177.35 120.48 178.88 118.52 179.86 116.3 179.86 114.93 179.42 113.94 
M 185.98 135 186.49 133.74 186.49 132.48 185.68 130.46 184.42 128.67 183.43 127.98 
M 184.59 130.75 185.54 130.02 186.75 128.15 187.53 126.04 187.53 124.73 186.75 122.61 185.54 120.75 184.59 120.02 
M 185.93 123.02 187.24 122.35 188.93 120.64 190.01 118.71 190.01 117.51 188.93 115.58 187.24 113.87 185.93 113.2 
M 194.55 134.08 194.55 133.15 193.69 131.34 192.36 129.74 191.32 129.11 
M 188.57 116.63 189.8 116.03 191.38 114.46 192.39 112.7 192.39 111.6 191.38 109.83 190.83 109.3 
M 195.62 124.8 196.83 124.21 198.39 122.73 199.4 121.04 199.4 120 198.39 118.31 196.83 116.82 195.62 116.24 
M 198.44 118.75 199.46 118.2 200.77 116.8 201.62 115.22 201.62 114.25 200.77 112.66 199.46 111.27 198.44 110.72 
M 201.87 132.16 202.73 131.61 203.83 130.19 204.54 128.59 204.54 127.6 203.83 126 202.73 124.59 201.87 124.03 
M 208.63 132.35 207.6 131.23 206.67 130.72 
M 211.72 211.54 212.69 211.07 213.93 209.88 214.73 208.52 214.73 207.68 213.93 206.33 212.69 205.13 211.72 204.66 
M 211.3 222.63 212.3 222.18 213.57 221.04 214.4 219.74 214.4 218.94 213.57 217.65 212.3 216.5 211.3 216.06 
M 204.21 107.57 205.18 107.07 206.43 105.81 207.24 104.38 207.24 103.75 
M 206.96 119.71 207.9 119.2 209.1 117.9 209.87 116.43 209.87 115.52 209.1 114.05 207.9 112.75 206.96 112.25 
M 215.5 205.88 216.29 205.4 217.29 204.18 217.94 202.79 217.94 201.93 216.96 200.14 
M 215.31 217.31 216.11 216.85 217.14 215.67 217.81 214.33 217.81 213.5 217.14 212.17 216.11 210.98 215.31 210.52 
M 217.35 224.66 216.67 223.31 215.61 222.19 214.79 221.75 
M 209.87 114.29 211 113.79 212.45 112.51 213.38 111.06 213.38 110.16 212.45 108.71 211 107.43 209.87 106.93 
M 212.09 126 213.12 125.52 214.45 124.27 215.3 122.86 215.3 121.99 214.45 120.58 213.12 119.34 212.09 118.85 
M 214.07 130.89 213.57 130.63 
M 219.77 199.73 221.26 198.31 222.04 196.74 
M 219.04 211.6 219.99 211.13 221.21 209.92 222 208.56 222 207.71 221.21 206.34 219.99 205.14 219.04 204.66 
M 218.78 222.89 219.75 222.43 221 221.27 221.81 219.95 221.81 219.13 221 217.81 219.75 216.65 218.78 216.19 
M 212.86 109.19 213.79 108.66 214.98 107.31 215.75 105.78 215.75 104.84 214.98 103.31 214.03 102.23 
M 215.47 120.7 216.39 120.22 217.56 119.01 218.31 117.63 218.31 116.78 217.56 115.4 216.39 114.19 215.47 113.71 
M 218.71 129.36 219.06 128.66 219.06 127.84 218.4 126.52 217.38 125.36 216.59 124.9 
M 222.66 205.76 223.45 205.28 224.45 204.06 225.09 202.67 225.09 201.82 224.45 200.43 223.45 199.21 222.66 198.73 
M 222.69 217.46 223.49 216.99 224.52 215.79 225.18 214.43 225.18 213.59 224.52 212.23 223.49 211.03 222.69 210.56 
M 224.88 224.95 224.21 223.54 223.15 222.39 222.33 221.94 
M 214.53 103.06 215.57 102.52 216.24 101.82 
M 218.29 115.44 219.38 114.93 220.77 113.65 221.67 112.19 221.67 111.29 220.77 109.83 219.38 108.55 218.29 108.04 
M 219.92 126.29 220.94 125.84 222.26 124.69 223.1 123.38 223.1 122.57 222.26 121.26 220.94 120.1 219.92 119.65 
M 226.38 200.13 227.33 199.63 228.55 198.33 229.33 196.87 229.33 195.96 228.55 194.49 227.92 193.83 
M 226.33 211.64 227.28 211.16 228.5 209.94 229.29 208.57 229.29 207.71 228.5 206.33 227.28 205.12 226.33 204.64 
M 226.24 223.12 227.21 222.66 228.46 221.48 229.26 220.14 229.26 219.31 228.46 217.96 227.21 216.78 226.24 216.32 
M 221.16 110.4 222.06 109.85 223.22 108.43 223.96 106.83 223.96 105.83 223.22 104.23 222.06 102.81 221.16 102.26 
M 223.66 121.45 224.54 121 225.67 119.84 226.4 118.52 226.4 117.71 225.67 116.39 224.54 115.23 223.66 114.78 
M 224.62 131.08 225.83 129.92 226.52 128.7 226.52 127.94 225.83 126.72 224.77 125.64 223.94 125.22 
M 230.14 194.59 230.94 194.06 231.23 193.66 
M 231.83 192.85 232.25 191.97 
M 229.89 205.7 230.68 205.23 231.7 204 232.35 202.61 232.35 201.75 231.7 200.36 230.68 199.14 229.89 198.66 
M 230.08 217.62 230.88 217.14 231.9 215.93 232.57 214.55 232.57 213.69 231.9 212.31 230.88 211.1 230.08 210.62 
M 232.28 224.85 231.73 223.77 230.69 222.6 229.87 222.14 
M 222.58 103.92 223.68 103.37 225.1 101.94 225.69 100.89 
M 226.44 116.28 227.52 115.78 228.91 114.51 229.8 113.06 229.8 112.17 228.91 110.72 227.52 109.45 226.44 108.95 
M 227.75 126.73 228.81 126.29 230.16 125.18 231.04 123.92 231.04 123.14 230.16 121.88 228.81 120.77 227.75 120.33 
M 230.95 134.36 231.06 133.43 230.2 132.21 228.87 131.12 227.83 130.7 
M 233.68 200.19 234.63 199.68 235.85 198.37 236.64 196.89 236.64 195.97 235.85 194.49 234.63 193.18 233.68 192.67 
M 233.67 211.72 234.63 211.24 235.85 210.01 236.64 208.63 236.64 207.77 235.85 206.38 234.63 205.16 233.67 204.68 
M 233.68 223.32 234.65 222.85 235.88 221.65 236.68 220.3 236.68 219.46 235.88 218.1 234.65 216.9 233.68 216.44 
M 229.34 111.2 230.27 110.67 231.46 109.28 232.23 107.72 232.23 106.75 231.46 105.19 230.27 103.8 229.34 103.26 
M 231.6 122.06 232.5 121.61 233.64 120.47 234.38 119.18 234.38 118.37 233.64 117.08 232.5 115.94 231.6 115.49 
M 231.81 131.98 232.73 131.56 233.9 130.49 234.66 129.28 234.66 128.53 233.9 127.32 232.73 126.25 231.81 125.83 
M 234.04 140.49 234.58 139.64 234.58 138.88 233.62 137.49 
M 237.39 194.63 238.19 194.08 239.2 192.68 239.86 191.1 239.86 190.12 239.2 188.53 238.19 187.13 237.7 186.8 
M 237.28 205.83 238.08 205.35 239.1 204.12 239.76 202.73 239.76 201.86 239.1 200.47 238.08 199.24 237.28 198.76 
M 237.44 217.71 238.23 217.23 239.25 216.01 239.91 214.63 239.91 213.77 239.25 212.39 238.23 211.16 237.44 210.69 
M 239.68 224.94 239.18 223.94 238.15 222.76 237.34 222.29 
M 231.29 105.2 232.5 104.66 234.04 103.3 235.04 101.75 234.97 100.69 
M 234.76 117.23 235.89 116.74 237.33 115.49 238.26 114.08 238.26 113.21 237.33 111.8 235.89 110.55 234.76 110.07 
M 236.02 127.73 237.14 127.29 238.59 126.17 239.51 124.91 239.51 124.12 238.59 122.85 237.14 121.74 236.02 121.3 
M 236.27 138.09 237.43 137.66 238.92 136.58 239.88 135.35 239.88 134.59 238.92 133.36 237.43 132.27 236.27 131.85 
M 237.86 147.32 238.48 146.87 239.43 145.65 239.43 144.9 238.48 143.68 237 142.61 235.85 142.19 
M 237.08 171.95 238.42 170.41 239.23 168.74 239.23 167.7 238.47 166.13 
M 239.53 187.54 240.49 186.95 241.52 185.7 
M 242.52 183.41 242.52 182.7 241.72 181 240.49 179.5 239.53 178.91 
M 240.99 200.23 241.94 199.72 243.15 198.41 243.94 196.92 243.94 196 243.15 194.51 241.94 193.19 240.99 192.68 
M 241 211.77 241.95 211.29 243.17 210.07 243.95 208.68 243.95 207.82 243.17 206.43 241.95 205.2 241 204.72 
M 241.05 223.43 242 222.95 243.23 221.75 244.02 220.38 244.02 219.54 243.23 218.17 242 216.97 241.05 216.5 
M 238.07 112.45 239.07 111.94 240.34 110.63 241.16 109.14 241.16 108.22 240.34 106.74 239.07 105.43 238.07 104.91 
M 240.01 123.19 240.95 122.74 242.16 121.6 242.95 120.3 242.95 119.49 242.16 118.19 240.95 117.05 240.01 116.6 
M 240.66 133.68 241.65 133.25 242.92 132.13 243.74 130.87 243.74 130.09 242.92 128.82 241.65 127.71 240.66 127.27 
M 240.93 144.32 241.96 143.9 243.29 142.83 244.14 141.61 244.14 140.86 243.29 139.64 241.96 138.57 240.93 138.15 
M 241.85 152.6 242.78 151.34 242.78 150.63 241.97 149.47 240.71 148.44 239.72 148.04 
M 239.78 162.91 240.73 161.12 240.73 160.19 240.02 158.68 239.64 158.22 
M 241.69 180.48 242.53 179.85 243.6 178.25 244.29 176.43 244.29 175.31 243.6 173.49 242.53 171.89 241.69 171.26 
M 240.67 107.05 241.95 106.55 243.59 105.27 244.65 103.82 244.65 102.92 243.59 101.46 242.31 100.46 
M 243.54 118.62 244.72 118.15 246.24 116.94 247.21 115.57 247.21 114.73 246.24 113.36 244.72 112.15 243.54 111.68 
M 244.8 129.28 245.97 128.84 247.46 127.7 248.42 126.41 248.42 125.62 247.46 124.33 245.97 123.19 244.8 122.75 
M 245.4 139.99 246.59 139.56 248.12 138.46 249.11 137.21 249.11 136.43 248.12 135.18 246.59 134.08 245.4 133.65 
M 244.95 150.09 246.15 149.68 247.69 148.64 248.69 147.46 248.69 146.73 247.69 145.55 246.15 144.51 244.95 144.11 
M 243.27 159.86 244.41 159.41 245.88 158.26 246.83 156.96 246.83 156.15 245.88 154.84 244.41 153.69 243.27 153.24 
M 243.95 172.82 245.02 172.26 246.39 170.82 247.27 169.19 247.27 168.19 246.39 166.56 245.02 165.12 243.95 164.56 
M 243.71 102.07 244.86 101.59 246.05 100.57 
M 247.28 114.14 248.31 113.66 249.63 112.43 250.48 111.04 250.48 110.18 249.63 108.79 248.31 107.56 247.28 107.08 
M 248.8 124.68 249.78 124.24 251.02 123.1 251.82 121.81 251.82 121.01 251.02 119.72 249.78 118.58 248.8 118.14 
M 249.74 135.57 250.71 135.12 251.96 133.97 252.77 132.68 252.77 131.87 251.96 130.58 250.71 129.43 249.74 128.99 
M 250.27 146.4 251.25 145.98 252.51 144.9 253.32 143.67 253.32 142.91 252.51 141.69 251.25 140.61 250.27 140.19 
M 248.9 155.71 249.9 155.33 251.18 154.34 252.01 153.23 252.01 152.54 251.18 151.42 249.9 150.44 248.9 150.06 
M 246.38 165.34 247.36 164.84 248.61 163.57 249.41 162.13 249.41 161.24 248.61 159.8 247.36 158.52 246.38 158.03 
M 251.72 205.7 252.5 205.22 253.49 203.99 254.13 202.6 254.13 201.74 253.49 200.34 252.5 199.11 251.72 198.63 
M 252.58 120.22 253.76 119.77 255.27 118.61 256.25 117.31 256.25 116.5 255.27 115.2 253.76 114.04 252.58 113.59 
M 254.26 141.59 255.37 141.16 256.8 140.05 257.72 138.79 257.72 138.01 256.8 136.75 255.37 135.64 254.26 135.21 
M 253.92 151.79 255.05 151.38 256.5 150.33 257.43 149.15 257.43 148.42 256.5 147.23 255.05 146.19 253.92 145.78 
M 252.2 161.45 253.38 161 254.88 159.88 255.85 158.6 255.85 157.81 254.88 156.53 253.38 155.41 252.2 154.97 
M 253.88 104.7 255.01 104.25 256.65 102.83 
M 257.63 126.11 258.57 125.69 259.77 124.59 260.55 123.35 260.55 122.58 259.77 121.34 258.57 120.24 257.63 119.81 
M 258.71 147.6 259.57 147.17 260.68 146.08 261.39 144.84 261.39 144.07 260.68 142.83 259.57 141.73 258.71 141.31 
M 257.8 157.44 258.72 157.04 259.9 156.02 260.66 154.86 260.66 154.15 259.9 152.99 258.72 151.97 257.8 151.57 
M 255.73 167.29 256.75 166.81 258.06 165.58 258.9 164.18 258.9 163.32 258.06 161.92 256.75 160.69 255.73 160.21 
M 259.88 111.16 261.1 110.73 262.68 109.64 263.69 108.4 263.69 107.63 262.68 106.39 261.1 105.29 259.88 104.86 
M 261.36 121.52 262.48 121.1 263.91 120.01 264.84 118.79 264.84 118.03 263.91 116.8 262.48 115.72 261.36 115.29 
M 261.96 131.72 263.01 131.3 264.36 130.22 265.23 128.99 265.23 128.23 264.36 127 263.01 125.92 261.96 125.5 
M 263.7 106.9 264.75 106.49 265.48 105.93 
M 265.33 117.12 266.25 116.71 267.43 115.66 268.19 114.46 268.19 113.73 267.43 112.54 266.25 111.48 265.33 111.07 
M 265.88 126.92 266.76 126.51 267.88 125.47 268.6 124.3 268.6 123.57 267.88 122.39 266.76 121.35 265.88 120.95 
M 265.66 158.23 266.49 157.8 267.54 156.71 268.23 155.46 268.23 154.69 267.54 153.45 266.49 152.35 265.66 151.93 
M 268.77 112.51 269.9 112.11 271.34 111.11 272.27 109.98 272.27 109.28 271.56 108.41 
M 269.56 122.25 270.61 121.86 271.94 120.84 272.81 119.69 272.81 118.97 271.94 117.82 270.61 116.8 269.56 116.41 
M 269.41 152.92 270.36 152.49 271.57 151.37 272.36 150.1 272.36 149.32 271.57 148.05 270.36 146.94 269.41 146.5 
M 273.29 136.94 274.09 136.54 275.11 135.51 275.78 134.34 275.78 133.62 275.11 132.46 274.09 131.43 273.29 131.03 
M 272.92 147.28 273.68 146.85 274.66 145.74 275.29 144.49 275.29 143.72 274.66 142.47 273.68 141.36 272.92 140.93 
M 272.99 158.48 273.79 158.03 274.81 156.86 275.47 155.53 275.47 154.71 274.81 153.39 273.79 152.22 272.99 151.77 
M 276.94 113.22 277.98 112.86 279.38 111.83 
M 277.29 122.59 278.29 122.21 279.56 121.23 280.38 120.12 280.38 119.44 279.56 118.33 278.29 117.35 277.29 116.97 
M 277.18 132.16 278.16 131.77 279.4 130.76 280.2 129.62 280.2 128.92 279.4 127.78 278.16 126.77 277.18 126.38 
M 276.75 142.09 277.7 141.68 278.92 140.62 279.7 139.41 279.7 138.67 278.92 137.47 277.7 136.4 276.75 135.99 
M 277.29 211.69 278.25 211.2 279.48 209.96 280.27 208.56 280.27 207.69 279.48 206.28 278.25 205.04 277.29 204.56 
M 280.23 219.21 279.63 218.17 278.41 216.97 277.46 216.5 
M 280.7 137.02 281.51 136.63 282.55 135.61 283.21 134.47 283.21 133.76 282.55 132.61 281.51 131.59 280.7 131.2 
M 280.82 193.81 281.61 193.34 282.64 192.13 283.3 190.75 283.3 189.9 282.64 188.53 281.61 187.32 280.82 186.85 
M 280.79 205.68 281.59 205.2 282.62 203.95 283.29 202.54 283.29 201.67 282.62 200.25 281.59 199.01 280.79 198.52 
M 281.13 217.74 281.92 217.26 282.94 216.02 283.59 214.62 283.59 213.76 282.94 212.36 281.92 211.13 281.13 210.64 
M 284.75 122.73 285.71 122.35 286.94 121.38 287.74 120.29 287.74 119.61 286.94 118.51 285.71 117.55 284.75 117.17 
M 284.6 132.29 285.57 131.9 286.8 130.9 287.6 129.76 287.6 129.06 286.8 127.92 285.57 126.91 284.6 126.52 
M 284.16 142.23 285.13 141.81 286.37 140.75 287.18 139.54 287.18 138.8 286.37 137.59 285.13 136.53 284.16 136.11 
M 284.03 153.08 285.02 152.63 286.27 151.48 287.08 150.17 287.08 149.37 286.27 148.06 285.02 146.91 284.03 146.46 
M 284.34 164.7 285.33 164.23 286.6 163.02 287.41 161.64 287.41 160.79 286.6 159.42 285.33 158.21 284.34 157.74 
M 284.63 176.48 285.61 176 286.85 174.78 287.65 173.39 287.65 172.54 286.85 171.15 285.61 169.93 284.63 169.45 
M 284.65 188.15 285.61 187.67 286.84 186.45 287.63 185.07 287.63 184.22 286.84 182.84 285.61 181.62 284.65 181.15 
M 284.52 199.83 285.49 199.35 286.73 198.12 287.53 196.73 287.53 195.86 286.73 194.47 285.49 193.24 284.52 192.76 
M 284.65 211.75 285.61 211.27 286.84 210.03 287.64 208.63 287.64 207.76 286.84 206.36 285.61 205.13 284.65 204.64 
M 286.25 217.51 285.72 217 284.77 216.53 
M 288.41 118.04 289.21 117.67 290.39 116.47 
M 288.43 127.48 289.23 127.09 290.24 126.1 290.9 124.98 290.9 124.28 290.24 123.16 289.23 122.17 288.43 121.79 
M 288.18 137.26 288.98 136.86 290.01 135.83 290.67 134.66 290.67 133.94 290.01 132.78 288.98 131.75 288.18 131.35 
M 287.69 147.5 288.51 147.06 289.56 145.95 290.24 144.69 290.24 143.91 289.56 142.66 288.51 141.54 287.69 141.11 
M 288.01 159.02 288.84 158.55 289.9 157.36 290.59 156 290.59 155.16 289.9 153.81 288.84 152.62 288.01 152.15 
M 288.3 170.69 289.11 170.22 290.15 169 290.83 167.62 290.83 166.77 290.15 165.39 289.11 164.17 288.3 163.69 
M 288.43 182.41 289.22 181.93 290.24 180.72 290.89 179.34 290.89 178.49 290.24 177.11 289.22 175.9 288.43 175.42 
M 288.23 193.97 289.05 193.5 290.08 192.28 290.75 190.89 290.75 190.04 290.08 188.66 289.05 187.44 288.23 186.96 
M 288.25 205.84 289.06 205.36 290.1 204.12 290.77 202.72 290.77 201.85 290.1 200.44 289.06 199.2 288.25 198.72 
M 290.26 215.99 290.89 214.64 290.89 213.78 290.24 212.39 289.22 211.16 288.43 210.69 
M 292.06 122.75 293.01 122.38 294.23 121.41 295.01 120.32 295.01 119.64 294.23 118.55 293.01 117.59 292.06 117.21 
M 291.95 132.38 292.9 131.99 294.12 130.97 294.91 129.83 294.91 129.12 294.12 127.97 292.9 126.96 291.95 126.57 
M 291.63 142.45 292.59 142.03 293.83 140.96 294.63 139.74 294.63 138.98 293.83 137.76 292.59 136.69 291.63 136.27 
M 291.62 153.4 292.6 152.95 293.86 151.79 294.67 150.48 294.67 149.67 293.86 148.36 292.6 147.2 291.62 146.75 
M 291.9 164.94 292.87 164.48 294.12 163.28 294.92 161.92 294.92 161.07 294.12 159.71 292.87 158.51 291.9 158.05 
M 292.02 176.55 292.97 176.08 294.18 174.87 294.97 173.49 294.97 172.64 294.18 171.27 292.97 170.06 292.02 169.58 
M 292.01 188.24 292.97 187.76 294.19 186.54 294.98 185.16 294.98 184.3 294.19 182.92 292.97 181.69 292.01 181.22 
M 291.98 200 292.94 199.52 294.18 198.29 294.98 196.9 294.98 196.04 294.18 194.64 292.94 193.41 291.98 192.93 
M 292.03 211.82 292.98 211.34 294.21 210.11 295 208.72 295 207.86 294.21 206.47 292.98 205.24 292.03 204.76 
M 295.71 127.48 296.5 127.09 297.51 126.1 298.16 124.98 298.16 124.28 297.51 123.16 296.5 122.17 295.71 121.78 
M 295.48 137.31 296.27 136.91 297.28 135.87 297.92 134.69 297.92 133.97 297.28 132.79 296.27 131.75 295.48 131.35 
M 295.17 147.74 295.97 147.3 297 146.18 297.67 144.9 297.67 144.11 297 142.83 295.97 141.71 295.17 141.27 
M 295.62 159.33 296.43 158.86 297.48 157.67 298.15 156.33 298.15 155.49 297.48 154.14 296.43 152.95 295.62 152.49 
M 295.68 170.74 296.46 170.27 297.45 169.07 298.1 167.71 298.1 166.87 297.45 165.52 296.46 164.32 295.68 163.85 
M 295.67 182.37 296.45 181.9 297.45 180.68 298.09 179.3 298.09 178.44 297.45 177.06 296.45 175.84 295.67 175.36 
M 295.71 194.2 296.51 193.72 297.54 192.49 298.2 191.09 298.2 190.23 297.54 188.83 296.51 187.6 295.71 187.12 
M 295.72 206 296.51 205.52 297.53 204.29 298.19 202.9 298.19 202.04 297.53 200.64 296.51 199.41 295.72 198.93 
M 297.83 213.1 297.51 212.4 296.5 211.18 295.71 210.71 
M 299.3 122.71 300.23 122.33 301.33 121.45 
M 299.18 132.34 300.11 131.94 301.3 130.93 302.07 129.78 302.07 129.07 301.3 127.92 300.11 126.9 299.18 126.5 
M 298.93 142.51 299.88 142.08 301.08 140.99 301.86 139.76 301.86 139 301.08 137.77 299.88 136.68 298.93 136.26 
M 299.06 153.56 300.03 153.11 301.26 151.95 302.05 150.64 302.05 149.83 301.26 148.52 300.03 147.36 299.06 146.91 
M 299.22 164.94 300.16 164.48 301.37 163.29 302.15 161.95 302.15 161.11 301.37 159.77 300.16 158.59 299.22 158.12 
M 299.18 176.43 300.11 175.95 301.3 174.74 302.06 173.37 302.06 172.52 301.3 171.15 300.11 169.94 299.18 169.47 
M 299.28 188.25 300.22 187.77 301.43 186.54 302.21 185.15 302.21 184.28 301.43 182.89 300.22 181.66 299.28 181.18 
M 299.32 200.06 300.27 199.58 301.48 198.35 302.27 196.96 302.27 196.09 301.48 194.7 300.27 193.47 299.32 192.99 
M 299.31 211.81 300.25 211.33 301.46 210.11 302.24 208.72 302.24 207.86 301.46 206.48 300.25 205.26 299.31 204.78 
M 302.92 127.39 303.68 127.01 304.66 126.02 305.29 124.9 305.29 124.21 304.77 123.28 
M 302.61 137.17 303.38 136.76 304.35 135.72 304.98 134.54 304.98 133.81 304.35 132.63 303.38 131.59 302.61 131.18 
M 302.47 147.79 303.26 147.35 304.27 146.21 304.92 144.92 304.92 144.12 304.27 142.83 303.26 141.69 302.47 141.24 
M 303 159.37 303.79 158.91 304.81 157.74 305.47 156.41 305.47 155.59 304.81 154.27 303.79 153.1 303 152.64 
M 302.59 170.32 303.34 169.86 304.31 168.67 304.94 167.33 304.94 166.5 304.31 165.16 303.34 163.97 302.59 163.51 
M 302.8 182.27 303.57 181.79 304.56 180.55 305.2 179.15 305.2 178.28 304.56 176.88 303.57 175.64 302.8 175.16 
M 302.95 194.16 303.74 193.68 304.75 192.44 305.4 191.05 305.4 190.18 304.75 188.78 303.74 187.55 302.95 187.07 
M 302.89 205.89 303.67 205.41 304.67 204.18 305.32 202.79 305.32 201.93 304.67 200.54 303.67 199.31 302.89 198.83 
M 303.42 210.94 302.92 210.64 
M 306.2 132.09 307.09 131.69 308.23 130.67 308.97 129.51 308.97 128.8 308.23 127.64 307.09 126.62 306.2 126.22 
M 306.08 142.41 307.01 141.98 308.21 140.87 308.98 139.63 308.98 138.85 308.21 137.61 307.01 136.5 306.08 136.07 
M 306.36 153.58 307.32 153.13 308.54 151.97 309.33 150.66 309.33 149.85 308.54 148.54 307.32 147.38 306.36 146.93 
M 306.36 164.76 307.28 164.3 308.47 163.13 309.23 161.8 309.23 160.97 308.47 159.65 307.28 158.47 306.36 158.02 
M 306.22 176.19 307.13 175.72 308.29 174.5 309.05 173.13 309.05 172.28 308.29 170.9 307.13 169.69 306.22 169.21 
M 306.48 188.19 307.41 187.71 308.61 186.47 309.38 185.06 309.38 184.19 308.61 182.79 307.41 181.54 306.48 181.06 
M 306.55 200.01 307.5 199.53 308.71 198.3 309.49 196.9 309.49 196.04 308.71 194.65 307.5 193.42 306.55 192.94 
M 309.77 126.97 310.55 126.48 
M 309.5 136.84 310.26 136.42 311.22 135.36 311.84 134.15 311.84 133.41 311.22 132.2 310.26 131.14 309.5 130.73 
M 309.72 147.82 310.53 147.37 311.57 146.21 312.25 144.89 312.25 144.08 311.57 142.77 310.53 141.61 309.72 141.15 
M 310.28 159.33 311.06 158.88 312.06 157.72 312.7 156.41 312.7 155.6 312.06 154.28 311.06 153.13 310.28 152.68 
M 309.58 170.01 310.32 169.55 311.28 168.37 311.9 167.04 311.9 166.21 311.28 164.88 310.32 163.7 309.58 163.24 
M 309.91 182.15 310.67 181.66 311.64 180.41 312.26 178.99 312.26 178.11 311.64 176.69 310.67 175.44 309.91 174.95 
M 312.76 131.52 313.61 131.1 314.69 130.03 315.22 129.1 
M 313.69 153.6 314.64 153.15 315.86 152 316.64 150.7 316.64 149.89 315.86 148.59 314.64 147.44 313.69 146.99 
M 313.59 188.09 314.5 187.59 315.68 186.33 316.43 184.9 316.43 184.02 315.68 182.58 314.5 181.32 313.59 180.83 
M 320.93 153.49 321.87 153.05 323.07 151.92 323.85 150.65 323.85 149.86 323.07 148.58 321.87 147.46 320.93 147.02 
M 320.47 187.77 321.37 187.26 322.52 185.97 323.27 184.51 323.27 183.6 322.52 182.14 321.37 180.84 320.47 180.34 
M 323.49 137.05 324.27 136.53 325.48 134.7 
M 323.28 181.08 324.03 180.57 324.98 179.27 325.6 177.8 325.6 176.89 324.98 175.42 324.03 174.13 323.28 173.62 
M 327.8 142.73 328.75 142.24 329.98 140.98 330.77 139.56 330.77 138.67 329.98 137.25 329.6 136.86 
M 328.07 153.29 329.01 152.86 330.22 151.75 331 150.5 331 149.72 330.22 148.46 329.01 147.36 328.07 146.92 
M 339.41 148.32 340.2 147.87 341.21 146.73 341.87 145.44 341.87 144.64 341.21 143.35 340.49 142.54 
M 338.76 158.49 339.58 158.07 340.64 156.97 341.32 155.74 341.32 154.97 340.64 153.73 339.58 152.64 338.76 152.21 
M 338.01 169.26 338.88 168.81 340 167.65 340.72 166.33 340.72 165.52 340 164.2 338.88 163.04 338.01 162.58 
M 342.8 153.49 343.76 153.06 345 151.93 345.79 150.66 345.79 149.88 345 148.61 343.76 147.49 342.8 147.05 
M 342.28 164.17 343.29 163.73 344.57 162.59 345.4 161.3 345.4 160.5 344.57 159.21 343.29 158.07 342.28 157.62 
M 342.01 175.52 343.02 175.05 344.32 173.85 345.16 172.49 345.16 171.65 344.32 170.29 343.02 169.09 342.01 168.62 
M 342.14 187.47 343.1 186.98 344.34 185.73 345.13 184.31 345.13 183.44 344.34 182.02 343.1 180.77 342.14 180.28 
M 346.7 148.28 347.49 147.84 348.51 146.7 
M 346.33 158.88 347.13 158.44 348.17 157.31 348.83 156.03 348.83 155.24 348.17 153.96 347.13 152.83 346.33 152.39 
M 346.04 170.05 346.89 169.59 347.97 168.42 348.66 167.09 348.66 166.27 347.97 164.94 346.89 163.76 346.04 163.31 
M 345.88 181.57 346.7 181.1 347.75 179.89 348.43 178.52 348.43 177.67 347.75 176.31 346.7 175.1 345.88 174.63 
M 347.7 188.22 346.62 186.72 345.86 186.23 
M 350.15 153.57 351.1 153.13 352.32 152.01 353.1 150.73 353.1 149.94 352.28 148.64 
M 349.86 164.51 350.83 164.06 352.06 162.9 352.86 161.6 352.86 160.79 352.06 159.48 350.83 158.33 349.86 157.88 
M 349.65 175.83 350.61 175.37 351.85 174.19 352.64 172.85 352.64 172.02 351.85 170.68 350.61 169.49 349.65 169.03 
M 350.71 186.48 351.52 185.66 352.28 184.29 352.28 183.44 351.52 182.06 350.33 180.85 349.41 180.37 
M 353.6 158.9 354.38 158.46 355.39 157.32 356.03 156.03 356.03 155.23 355.39 153.94 354.38 152.8 353.6 152.36 
M 353.48 170.21 354.26 169.75 355.26 168.57 355.9 167.24 355.9 166.42 355.26 165.09 354.26 163.91 353.48 163.45 
M 353.19 181.51 353.96 181.06 354.94 179.88 355.57 178.54 355.57 177.72 354.94 176.38 353.96 175.2 353.19 174.74 
M 357.38 153.49 358.32 153.05 359.23 152.21 
M 357.04 164.38 357.96 163.93 359.14 162.79 359.9 161.49 359.9 160.68 359.14 159.38 357.96 158.24 357.04 157.79 
M 356.75 175.61 357.65 175.15 358.8 173.99 359.55 172.66 359.55 171.84 358.8 170.52 357.65 169.35 356.75 168.9 
M 358.48 182.04 357.16 180.5 356.28 180.04 
M 169.06 118.09 170.79 117.78 
M 182.48 112.29 177.45 71.07 178.41 70.92 185.87 111.36 
M 196.02 106.71 193.5 56.17 194.47 56.09 199.48 106.02 
M 210.09 102.52 215.34 42.47 216.31 42.53 213.61 102.31 
M 224.62 100.51 237.06 46.12 238.02 46.32 228.13 100.79 
M 239.29 99.93 258.72 48.9 259.64 49.23 242.81 100.44 
M 253.92 101.55 283.84 53.64 284.68 54.14 257.14 102.98 
M 267.83 106.27 293.7 76.63 294.46 77.25 270.84 108.09 
M 281.28 112.02 301.36 91.6 302.08 92.26 284.26 113.92 
M 301.06 120.74 302.35 121.93 
M 171.44 117.49 174.08 108.43 175.24 103.77 176.2 99.09 176.93 94.36 177.43 89.61 177.73 84.82 177.95 75.19 
M 179.17 75 183.27 72.85 185.19 71.64 186.97 70.27 188.59 68.74 190.05 67.04 191.37 65.19 193.75 61.22 
M 194.98 61.13 200.06 59.37 202.5 58.33 204.83 57.12 207.03 55.71 209.11 54.11 211.08 52.34 214.82 48.47 
M 216.04 48.55 220.25 50.46 222.38 51.22 224.54 51.79 226.74 52.12 228.97 52.23 231.24 52.13 235.82 51.56 
M 237.02 51.81 241.27 53.54 243.42 54.22 245.59 54.69 247.78 54.93 250 54.95 252.25 54.76 256.77 54 
M 257.93 54.41 262.81 56.54 265.28 57.41 267.79 58.09 270.33 58.53 272.92 58.75 275.54 58.77 280.85 58.43 
M 281.91 59.06 282.81 64.13 283.44 66.59 284.25 68.97 285.27 71.25 286.51 73.44 287.93 75.54 291.11 79.59 
M 292.06 80.37 292.59 83.92 293.62 87.19 294.43 88.67 295.44 90.03 296.63 91.3 299.35 93.65 
M 300.26 94.47 299.38 100.55 299.12 103.58 299.07 106.6 299.25 109.61 299.67 112.6 300.28 115.58 301.89 121.51 
M 181.24 73.96 185.19 71.64 186.97 70.27 188.59 68.74 190.05 67.04 192.59 63.24 
M 182.95 80.14 186.2 78.23 189.01 75.84 190.21 74.44 192.31 71.3 
M 184.66 86.33 187.22 84.82 189.43 82.94 190.38 81.83 192.03 79.36 
M 186.36 92.51 188.23 91.41 189.85 90.04 191.75 87.42 
M 197.54 60.28 202.5 58.33 204.83 57.12 207.03 55.71 209.11 54.11 212.97 50.44 
M 198.56 66.49 202.82 64.81 204.82 63.77 208.51 61.18 211.83 58.02 
M 199.57 72.7 203.14 71.29 206.41 69.41 207.9 68.25 210.68 65.61 
M 200.59 78.9 203.47 77.77 204.82 77.07 207.3 75.32 209.54 73.19 
M 201.61 85.11 203.79 84.25 205.78 83.1 208.4 80.77 
M 218.14 49.55 222.38 51.22 224.54 51.79 226.74 52.12 228.97 52.23 233.52 51.88 
M 218.27 56.85 221.92 58.3 223.78 58.78 227.59 59.16 231.5 58.87 
M 218.4 64.16 221.46 65.37 224.6 66.02 226.21 66.09 229.48 65.85 
M 218.54 71.47 221 72.44 222.25 72.77 224.82 73.03 227.46 72.83 
M 218.67 78.78 221.49 79.77 223.44 79.96 225.44 79.81 
M 239.14 52.71 243.42 54.22 245.59 54.69 247.78 54.93 250 54.95 254.51 54.42 
M 238.37 59.43 242.05 60.72 245.8 61.34 247.71 61.35 251.59 60.9 
M 237.6 66.15 240.68 67.23 242.24 67.57 245.42 67.75 248.67 67.38 
M 236.83 72.86 239.31 73.73 240.57 74.01 243.13 74.16 245.74 73.85 
M 236.06 79.58 238.9 80.45 240.84 80.56 242.82 80.33 
M 260.36 55.51 265.28 57.41 267.79 58.09 270.33 58.53 272.92 58.75 278.19 58.64 
M 258.66 61.95 262.89 63.58 265.04 64.16 269.46 64.73 273.99 64.64 
M 256.95 68.38 260.49 69.75 264.13 70.56 266 70.72 269.79 70.63 
M 255.25 74.82 258.1 75.92 259.56 76.31 262.53 76.7 265.59 76.63 
M 253.55 81.25 256.81 82.39 259.07 82.68 261.39 82.63 
M 282.32 61.61 283.44 66.59 284.25 68.97 285.27 71.25 286.51 73.44 289.48 77.58 
M 278.82 69.19 279.74 73.3 281.25 77.14 282.27 78.95 284.73 82.37 
M 275.32 76.77 276.04 80 276.57 81.55 278.04 84.45 279.97 87.15 
M 271.81 84.34 272.34 86.71 273.21 88.92 275.22 91.93 
M 292.29 82.17 293.01 85.61 293.62 87.19 294.43 88.67 295.44 90.03 297.96 92.49 
M 286.55 92.01 287.02 94.25 287.94 96.24 288.6 97.12 290.23 98.72 
M 155.57 145.26 191.27 131.64 191.65 132.54 157.08 148.28 
M 157.29 148.72 230.37 125.48 230.68 126.4 158.43 151.92 
M 158.61 152.56 242.44 132.27 242.68 133.21 159.42 155.83 
M 159.6 156.64 246.89 142.04 247.07 143 160.24 159.93 
M 160.41 160.86 252.65 152.16 252.76 153.13 160.47 164.22 
M 160.4 165.2 249.45 163.32 249.48 164.29 160.41 168.55 
M 160.43 169.54 246.81 173.99 246.77 174.96 160.35 172.88 
M 160.31 173.85 253.83 185.38 253.72 186.35 159.85 177.18 
M 159.71 178.06 240.48 194.17 240.3 195.12 159.16 181.37 
M 159.03 182.16 227.17 201.13 226.92 202.07 159.15 185.64 
M 159.21 186.46 215.89 206.93 215.57 207.85 159.09 189.91 
M 159.08 190.13 191.6 205.08 191.22 205.97 159.03 193.57 
M 187.99 134.2 195.93 134.04 199.86 133.77 203.76 133.3 207.62 132.6 211.44 131.67 215.22 130.55 222.72 127.92 
M 223.11 129.08 224.87 131.38 226.89 133.16 228.06 133.75 229.33 134.14 230.69 134.34 233.59 134.41 
M 233.89 135.6 233.58 137.91 233.8 139.96 234.21 140.85 234.84 141.64 235.64 142.35 237.6 143.6 
M 237.82 144.8 237.86 147.29 238.39 149.47 238.94 150.4 239.7 151.2 240.62 151.89 242.8 153.09 
M 242.93 154.31 241.08 155.97 239.77 157.81 239.44 158.83 239.33 159.93 239.41 161.08 239.93 163.52 
M 239.97 164.74 238.23 166.36 237.05 168.13 236.79 169.11 236.74 170.14 236.89 171.23 237.57 173.52 
M 237.52 174.74 237.9 177.54 238.77 180 239.47 181.05 240.37 181.97 241.44 182.77 243.9 184.16 
M 243.76 185.38 240.49 185.88 237.51 186.88 236.19 187.66 234.99 188.65 233.89 189.81 231.9 192.45 
M 231.68 193.66 228.54 193.74 225.65 194.34 224.34 194.95 223.14 195.76 222.01 196.77 219.93 199.11 
M 219.62 200.3 216.92 200.14 214.46 200.52 213.37 201.01 212.37 201.71 211.46 202.6 209.79 204.72 
M 209.39 205.89 204.77 204.09 202.44 203.38 200.08 202.87 197.7 202.6 195.29 202.55 192.85 202.71 187.94 203.4 
M 191.96 134.16 199.86 133.77 203.76 133.3 207.62 132.6 211.44 131.67 218.98 129.27 
M 223.97 130.27 225.83 132.36 226.89 133.16 228.06 133.75 229.33 134.14 232.12 134.41 
M 199.6 138.38 200.81 139.74 201.5 140.26 203.08 140.9 204.9 141.08 
M 233.7 136.77 233.6 138.98 233.8 139.96 234.21 140.85 234.84 141.64 236.59 142.99 
M 205.92 143.97 205.86 145.41 205.99 146.05 206.66 147.14 207.8 148.01 
M 237.81 146.07 238.04 148.43 238.39 149.47 238.94 150.4 239.7 151.2 241.68 152.51 
M 208.59 151.38 208.74 152.92 208.97 153.59 209.82 154.71 211.11 155.57 
M 241.97 155.13 240.33 156.86 239.77 157.81 239.44 158.83 239.33 159.93 239.63 162.29 
M 211.3 158.63 210.23 159.76 209.87 160.37 209.58 161.75 209.78 163.29 
M 239.06 165.54 237.54 167.22 237.05 168.13 236.79 169.11 236.74 170.14 237.19 172.36 
M 209.41 166.76 208.42 167.86 208.1 168.45 207.9 169.76 208.19 171.2 
M 237.68 176.16 238.25 178.83 238.77 180 239.47 181.05 240.37 181.97 242.64 183.49 
M 208.51 175.03 208.88 176.76 209.68 178.21 210.26 178.8 211.73 179.79 
M 242.1 185.59 238.94 186.29 237.51 186.88 236.19 187.66 234.99 188.65 232.88 191.1 
M 211.39 182.53 209.33 182.98 208.4 183.36 206.76 184.51 205.39 186.1 
M 230.09 193.66 227.05 193.95 225.65 194.34 224.34 194.95 223.14 195.76 220.95 197.9 
M 203.58 189.13 201.6 189.32 199.84 189.97 199.06 190.5 197.64 191.89 
M 218.26 200.18 215.65 200.24 214.46 200.52 213.37 201.01 212.37 201.71 210.61 203.63 
M 207.09 204.95 202.44 203.38 200.08 202.87 197.7 202.6 195.29 202.55 190.4 203.01 
M 180.54 218.63 190.67 239.63 189.81 240.1 177.47 220.32 
M 178.81 218.13 179.24 219.35 
M 182.36 228.17 188.15 244.49 187.25 244.85 175.56 219.45 
M 177.05 217.63 177.31 218.74 
M 179.45 227.9 184.47 249.4 183.53 249.66 173.67 218.56 
M 175.27 217.15 175.38 218.09 
M 176.47 227.4 179.61 254.17 178.64 254.31 171.8 217.67 
M 173.47 216.67 173.47 217.42 
M 173.49 226.73 173.58 258.59 172.61 258.62 169.96 216.78 
M 172.53 216.52 172.51 216.7 
M 170.87 231.23 167.32 262.81 166.35 262.73 169.04 216.22 
M 188.58 238.12 187.1 238.52 186.17 239.12 186.02 239.53 186.09 240.03 187.22 241.85 
M 186.08 242.31 184.48 242.54 183.39 243.06 183.13 243.5 183.07 244.05 183.73 246.22 
M 182.54 246.55 180.85 246.6 179.59 247.04 179.22 247.47 179.02 248.06 179.17 250.47 
M 177.96 250.65 175.4 250.62 174.76 250.86 174.27 251.27 173.73 252.61 173.57 254.4 
M 172.34 254.44 170.54 254.31 169.12 254.63 168.62 255.04 168.26 255.64 167.84 258.18 
M 187.8 238.31 186.54 238.79 186.17 239.12 186.02 239.53 186.09 240.03 186.74 241.21 
M 184.4 231.6 183.34 232.12 183.29 232.71 183.71 233.48 
M 185.25 242.4 183.85 242.75 183.39 243.06 183.13 243.5 183.07 244.05 183.42 245.44 
M 182.11 234.02 180.9 234.44 180.69 235.09 180.92 235.99 
M 181.66 246.55 180.14 246.75 179.59 247.04 179.22 247.47 179.02 248.06 179.04 249.6 
M 179.98 239.83 178.81 239.99 178.1 240.54 177.95 240.99 177.97 242.17 
M 178.3 233.11 177.19 233.37 176.89 233.92 176.9 234.74 
M 177.04 250.56 175.4 250.62 174.76 250.86 174.27 251.27 173.94 251.87 173.62 253.48 
M 176.01 242.74 174.75 242.79 174.26 242.97 173.63 243.75 173.39 244.98 
M 174.98 234.93 174.11 234.96 173.5 235.31 173.16 236.48 
M 171.42 254.34 169.76 254.39 169.12 254.63 168.62 255.04 168.26 255.64 167.92 257.25 
M 171.39 247.73 170.02 247.77 169.49 247.96 168.79 248.8 168.5 250.13 
M 171.36 241.11 170.28 241.14 169.86 241.3 169.31 241.95 169.08 243.01 
M 171.33 234.5 170.24 234.63 169.83 235.11 169.67 235.88 
M 335.23 198.37 339.87 202.02 346.49 205.92 352.01 207.13 357.79 223.04 357.31 225.18 357.98 228.47 356.98 231.27 353.3 235.7 350.99 237.43 348.06 238.61 346.04 240.61 341.54 244.24 341.86 247.52 339.12 248.88 336.2 249.44 333.36 250.35 331.13 251.94 328.27 252.71 326.09 253.68 322.88 253.88 320.18 254.86 318.09 256.73 316.6 259.38 313.94 260.84 311.56 262.58 309.38 264.48 307.38 265.8 304.36 266.08 300.59 265.56 294.77 265.21 291.71 264.56 289.17 264.39 282.76 262.53 279.85 261.9 274.21 260.95 272.27 261.37 265.76 259.56 263.49 259.44 260.61 258.7 257.28 257.51 254.73 255.9 251.56 254.2 243.21 248.4 242.65 243.98 241.61 240.06 240.01 236.21 236.56 231.37 
M 331.08 200.91 334.74 204.07 337.83 206.47 340.54 208.34 347.18 212.03 350.33 214.64 351.68 215.35 
M 326.91 203.44 330.07 206.88 333.2 209.29 336.75 210.99 339.46 212.54 341.49 214.78 343.72 216.89 346.65 218.29 349.84 219.44 351.49 222.6 354.26 225.68 
M 322.66 205.81 325.24 209.48 330.98 214.08 334.31 215.7 337.62 217.08 339.91 218.82 341.65 221.67 344 222.87 
M 318.4 208.18 329.08 219.34 331.97 220.81 334.16 222.66 
M 314.1 210.45 317.31 213.02 319.81 215.76 322.01 219.13 324.74 221.86 327.53 223.81 329.54 225.54 331.95 228.29 334.77 230.58 337.16 232.06 339.3 234.93 340.67 236.45 343.88 238.15 
M 309.77 212.69 313 215.77 315.99 217.42 318.4 220.06 320.84 223.3 322.62 226.03 324.51 227.83 327.6 229.17 329.01 231.92 331.66 233.94 
M 305.34 214.72 308.36 218.41 310.89 221.09 313.52 223.44 315.65 226.01 322 232.76 324.26 234.73 328.82 237.79 331.12 241.03 334.03 243.65 336.06 246.01 340.19 247.84 
M 300.9 216.71 304 220.41 306.97 222.59 309.29 225.36 311.22 228.4 313.29 231.24 319.49 235.55 321.82 237.46 323.74 239.32 324.96 241.48 
M 296.42 218.62 299.88 222.19 302.55 224.57 306.97 229.62 309.71 231.86 312.5 234.76 315.35 236.97 317.31 239.09 319.54 241.57 321.55 244.36 323.09 247.45 324.76 249.86 
M 291.93 220.52 297.67 226.76 302.88 231.29 307.31 236 312.61 240.5 317.59 245.66 
M 287.45 222.41 290.26 226.23 292.7 229.21 297.5 233.25 298.91 236.13 303.77 241.09 307.16 242.83 309.99 245.85 312.87 248.14 
M 282.85 224.02 285.19 227.98 287.36 231.03 290.17 233.19 292.98 234.86 296.42 239.85 302.91 247.02 306.06 249.99 
M 278.2 225.47 280.89 229.33 288.3 237.3 290.42 239.83 291.85 241.89 293.57 243.9 294.42 246 296.95 247.77 298.93 251.02 302.04 254.46 305.75 257.13 
M 273.51 226.77 278.14 233.52 282.62 238.19 284.88 240.97 286.49 243.75 288.1 247.01 290.55 248.55 292.15 251.56 297.17 255.9 299.89 258.86 301.32 261.33 
M 268.8 228.04 271.62 231.62 273.38 234.44 274.51 236.78 279.2 243.06 286.02 250.75 288.21 252.87 290.65 255.9 292.75 258.22 295.46 260.79 297.83 263.39 
M 264.07 229.2 266.67 233.01 269.69 238.6 276.95 247.83 278.19 250.87 
M 259.3 230.14 261.82 233.61 263.11 236.47 264.95 239.45 267.89 242.51 270.25 245.86 271.21 248.64 273.56 252.14 275.51 254.49 
M 254.47 230.77 257.27 234.01 259.03 237.19 260.99 239.83 262.54 243.69 264.65 246.63 265.85 249.78 267.91 252.33 268.77 254.89 
M 249.62 231.25 252.51 234.7 258.1 244.04 260.8 248.2 
M 244.77 231.68 247.3 235.26 250 241.62 251.16 245.74 254.97 251.95 257.22 254.65 257.84 256.65 
M 239.9 231.5 242.31 235.65 243.81 239 245.18 242.9 245.83 246.67 247.57 250.34 
M 359.9 152.56 362.39 150.87 364.52 148.87 366.35 146.57 369.57 141.53 371.66 138.62 374.24 135.81 376.04 132.65 378.12 130.97 380.06 128.45 382.03 126.56 385.73 122.51 387.06 120.25 389.87 118.21 391.97 116.3 394.25 113.29 401.23 107.57 402.68 105.27 404.55 104.57 407.41 102.76 410.83 101.26 413.7 99 417.21 97.24 418.94 96.61 420.69 95.29 424.12 94.5 434.02 88.45 436.41 87.44 439.78 87.86 442.62 87.54 446.78 86.39 450.65 84.73 453.85 84.14 455.46 83.4 456.79 83.24 459.14 81.81 462.03 81.33 465.1 79.98 470.51 78.19 474.75 77.24 477.38 77.79 479.66 76.38 480.84 74.69 482.29 73.44 489.01 83.92 489.8 90 490 92.84 489.58 95.82 488.18 98.23 486.6 100.46 484.73 102.4 482.37 107.21 482.53 110.82 482.44 114.27 481.25 117.18 479.32 119.36 477.9 122.04 475.66 123.9 474.87 127.2 473.24 129.66 470.8 131.31 466.41 135.1 463.4 136.22 460.73 137.63 458.41 139.38 456.59 141.64 454.58 143.7 452.07 145.29 449.86 147.2 447.39 148.84 445.47 151.04 442.6 152.28 440.89 154.69 438.93 156.8 431.51 161.56 429.54 163.65 426.58 164.57 423.73 165.18 420.66 165.57 416.01 167.84 413.04 168.33 410.49 169.29 402.95 168.89 399.86 169.37 397.85 170.93 395.03 171.68 397.64 172.87 399.68 172.77 402.18 173.11 408.41 175.03 411.16 175.7 414.93 177.45 423.52 179.95 426.83 181.22 431.93 183.55 441.21 188.65 443.12 189.87 460.86 204.54 464.6 207.32 466.29 208.79 472.83 217.73 478.65 225.03 482.66 230.52 483.43 232.92 484.65 235.77 485.08 237.83 486.05 240.58 487.32 245.94 488.88 249.54 488.81 252.49 488.47 255.21 487.46 258.35 483.27 267.52 480.75 267.07 479.11 267.04 476.5 267.41 472.62 266.73 469.4 265.2 466.56 263.24 462.68 263.36 460.77 263.67 458.31 262.83 455.45 260.79 443.49 257.26 439.52 257.05 436.68 255.33 434.07 254.14 431.74 254.06 429.13 252.72 425.51 251.66 421.94 248.88 413.2 243.75 411.1 241.68 409.93 239.73 408.77 238.17 406.91 236.65 404.35 235.31 399.76 231.7 397.78 229.26 391.53 224.87 388.97 221.78 386.21 219.34 385.07 217.08 383.42 214.42 378.82 210.96 376.95 208.51 375.79 205.24 374.16 202.39 372.09 200.11 366.74 191.35 364.55 188.39 359.9 182.73 
M 364.89 150.51 368.78 146.49 370.67 143.87 372.74 141.55 375.66 138.84 377.71 136.06 379.71 134.2 381.68 131.69 383.9 129.52 386.35 127.93 389.03 126.73 392.53 122.13 395.13 119.8 396.64 117.7 398.91 115.82 406.52 110.69 411.78 108.07 415.36 106.5 
M 362.65 153.82 367.4 150.23 371.85 146.42 373.82 144.3 376.46 141.93 383.16 135.12 385.63 133.12 388.51 131.52 391.78 129.96 393.17 128.67 395.02 126.57 397.51 124.92 402.31 120.38 405.14 118.69 408.15 117.64 412.9 114.61 418.21 112.59 421.16 111.14 423.82 110.21 429.75 108.63 431.51 107.44 433.29 105.59 436.33 103.19 438.62 101.65 442.25 100.97 446.01 100.54 448.76 99.27 452.33 98.4 454.96 97.97 457.99 98.6 461.9 98.36 465.23 97.4 468.92 97.13 471.59 96.39 478.02 95.87 
M 368 151.95 377.16 145.01 379.8 142.75 382 141.33 384.53 138.84 387.64 137.03 393.54 134.01 400.54 129.72 402.6 127.96 410.22 122.79 415.02 120.27 420.46 119.26 422.86 117.85 425.95 117.18 
M 368.18 153.79 375.67 148.87 378.53 147.61 380.64 145.76 383.25 143.98 386 142.77 388.53 140.89 391.51 139.21 394.87 137.93 397.28 136.16 399.49 135.42 402.31 133.82 407.36 129.18 410.25 127.78 412.43 127.18 415 125.89 421.17 125.2 
M 359.9 159.48 363.18 158.53 365.97 156.95 370.93 153.76 379.55 149.79 384.28 147.21 387.32 146.17 390.04 144.49 392.05 142.9 395.23 141.53 398.15 139.65 400.65 139.32 403.1 138.52 409.21 135.2 412.08 132.95 415 133.19 418.06 132.57 421.83 132.32 424.46 131.64 427.3 131.6 429.9 131.23 435.68 129.85 439.45 127.68 442.29 127.79 444.35 126.73 446.12 127.26 449.44 127.24 453.21 126.1 456.55 126.87 460.22 127.43 
M 359.9 160.87 363.28 160.17 366.21 158.91 368.67 157.13 377.43 153.62 382.74 151.06 388.91 149.16 391.22 147.96 394.17 147.09 397.08 145.87 399.43 144.61 401.72 144.28 404.25 143.24 407.03 141.84 411.39 140.85 414.42 139.43 416.89 139.1 424.25 138.56 
M 363.42 161.87 366.52 160.85 371.96 158.02 374.74 157.09 378.26 156.49 381.05 155.42 383.35 153.76 386.3 153.08 389.48 152.61 392.95 151.51 395.58 150.98 398.76 151.05 401.23 150.51 404.58 150.47 410.3 147.84 416.12 145.67 419.09 144.76 
M 359.9 163.64 363.75 163.56 366.89 162.83 370.01 161.78 372.56 160.47 375.31 159.39 381.68 158.73 384.25 157.31 386.88 156.51 389.99 156.23 393.76 155.66 397.09 154.92 399.91 155.7 402.6 156.18 405.38 156.4 412.7 155.2 416.28 155.12 419.47 154.22 422.56 153 425.96 154.21 428.87 154.49 430.76 153.94 433.54 153.44 
M 367.28 164.9 370.75 164.17 373.33 163.1 376.34 162.36 379.87 162.49 384.08 162.35 392 161.16 
M 371.49 166.77 374.68 166.02 377.84 165.72 380.66 166.48 382.33 167.3 388.54 166.72 396.86 167.33 400.29 167.24 
M 359.9 167.79 364.85 169.49 368.71 170.12 372.82 170.43 375.9 170.01 378.61 170.32 380.5 171.35 382.93 172.2 
M 359.9 169.18 364.33 170.96 367.85 172.12 370.99 172.79 374.56 172.85 377.93 173.69 380.47 174.9 382.85 175.51 385.3 176.57 388.25 176.26 392.36 175.53 396.6 175.28 399.79 175.74 402.54 177.03 
M 369.99 174.94 373.27 175.7 376.38 176.2 382.4 178.76 385.52 179.34 388.32 179.62 395.46 179.49 398.55 179.82 400.74 181.61 403.64 181.27 406.77 181.68 409.3 181.35 412.29 182.13 416.11 182.78 419.03 183.55 422.71 183.26 
M 363.42 174.04 366.3 175.63 369.36 176.85 372.28 177.8 374.94 178.99 381.64 181.07 384.43 182.62 387.76 183.55 393.47 184.02 402.23 186.43 404.48 187.4 408.15 187.34 410.81 188.04 414.44 190.05 420.73 188.94 
M 365.87 177.32 369.01 178.96 371.53 179.95 373.99 181.55 377.14 182.31 380.5 183.86 383.55 185.67 386.96 186.78 389.79 187.13 392.97 188.47 396.14 189.21 397.64 190.64 400.29 192.05 403.41 192.36 410.26 193.72 414 194.66 
M 365.73 179.22 368.77 180.55 373.75 183.66 380.23 186.77 383.3 188.59 386.11 190.03 389 190.56 391.54 192.18 393.9 193.01 396.55 194.77 402.98 197.21 405.43 198.51 408.22 199.55 412.57 200.35 415.67 201.87 418.48 201.92 421.43 201.43 427.48 202.58 430.81 204.22 433.92 206.04 437.2 206.69 439.94 206.38 441.62 207.47 443.56 208.31 446.92 208.1 454.27 209.73 
M 365.54 181 368.29 182.44 373.46 185.66 376.67 187.29 379.85 189.55 382.52 191.76 389.69 195.49 391.89 196.35 400.91 201.78 404.09 203.2 405.57 204.43 408.66 206.26 412 207.84 414.8 207.68 418.42 207.23 421.87 207.33 424.54 208.44 427.7 210.88 431.04 212.9 435.6 213.5 437.88 213.24 441.47 213.8 447.11 215.68 450.5 217.33 454.3 218.38 456.79 217.6 
M 368 184.18 373.08 188.11 376.03 189.96 378.37 192.59 381.54 194.84 386.38 197.62 388.72 199.16 391.44 200.25 394.12 201.66 396.5 203.76 401.42 207.2 406.03 210.71 409.16 212.5 412.1 213.76 414.98 214.31 418.59 214.05 422.16 214.76 424.32 216.82 427.14 217.52 429.55 218.88 432.7 220.02 435.01 220.15 440.16 223.42 443.34 223.91 448.05 223.75 450.56 225.37 457.67 226.41 460.75 226.16 466.17 227.2 469.67 229.04 473.32 229.48 476.74 229.65 479.27 229.47 
M 367.83 185.86 370.17 188.24 377.54 195.04 380.25 197.75 382.21 200.02 387.79 202.05 393.43 205.61 394.95 207.49 396.75 209.34 398.97 211.36 401.27 213.11 406.96 217.25 409.68 218.41 412.02 219.1 414.57 221.33 417.99 222.78 420.56 223.26 422.78 224.4 425.19 226.45 428.61 228.25 431.79 229.39 434.16 231.04 436.18 231.96 438.66 232.81 442.07 233.53 446.87 233.06 451.8 234.06 457.86 235.78 462.08 235.91 465.67 236.53 469.49 237.52 472.71 238.06 475.29 239.72 477.63 240.75 
M 364.97 185.72 367.62 187.86 369.81 190.49 376.6 197.77 378.73 200.68 380.2 203.28 382.8 205.13 388.52 208.05 391.33 209.66 393.52 211.33 395.43 214.11 397.15 216.17 399.77 218.21 402.76 220.17 404.62 221.86 407.76 222.94 410.25 224.67 411.89 226.82 414.27 228.35 417.74 229.27 419.92 231.4 422.98 233.61 425.72 234.64 428.4 236.37 434 237.43 440.66 239.94 444.07 240.1 451.21 242.54 457.4 245.09 
M 362.44 184.66 367.24 189.87 373.21 197.83 375.89 200.8 377.38 203.25 378.37 206.16 380.65 208.61 383.28 210.29 386.16 211.39 388.35 213.06 392.01 218.13 394.79 220.06 400.27 225.06 402.9 227.07 408.42 230.47 412.19 233.77 416.21 238.07 419.05 238.26 421.24 239.75 423.03 241.3 425.05 241.75 429.21 243.5 433.16 244.74 435.67 246.36 438.69 247.81 440.48 248.44 446.33 248.14 449.68 249.77 453.28 251.9 458.16 254.09 461.07 254.19 463.82 254.86 466.88 256.13 469.48 255.4 471.58 254.57 474.98 255.2 
M 308.86 124.78 312.37 126.8 314.25 126.99 318.21 126.32 319.83 126.88 321.07 130.42 322.24 132.19 325.38 133.73 331.19 133.19 332.32 134.66 334.14 138.08 335.73 139.02 339.19 140.16 342.43 139.78 343.46 144.1 
M 38.86 182.54 43.12 179.35 46.73 176.1 50.51 171.6 55.53 166.78 62.38 162.81 69.16 159.72 75.42 156.64 82.21 152.73 89.89 148.6 98.42 144.81 107.83 141 124.03 135.82 137.99 132.23 143.08 131.09 146.06 130.71 149.89 134.41 151.69 138.32 153.75 142.2 156.05 146.06 157.87 149.97 159.01 153.95 160.61 161.99 160.34 166.12 160.45 170.21 160.29 174.33 158.95 182.68 159.23 186.76 159.02 194.98 158.4 199.15 157.04 203.4 154.37 207.72 137.79 207.14 125.67 206.21 114.79 205.14 104.94 203.8 95.79 202.31 86.98 201.23 71.95 198.56 59.31 195.35 53.95 193.69 
M 128.38 159.74 128.75 163.26 126.94 170.16 125.6 173.26 122.52 178.31 123.03 182.86 125.9 190.32 126.19 193.54 99.47 192.85 91.96 192.48 77.09 191.27 70.44 190.22 
M 52.13 194.08 44.32 191.08 37.45 188.26 35.13 187.11 33.63 185.13 34.14 182.72 36.38 181.56 38.7 182.42 54.09 193.81 
M 53.95 194.72 51.75 195.75 44.84 198.22 40.16 200.08 35.8 202.02 33.5 202.77 31.11 202.31 30 200.31 30.97 197.97 33.21 197.03 40.26 195.76 50.14 194.46 53.73 193.77 
M 84.76 171.59 84.02 168.78 84.23 165.88 85.37 163.21 87.32 161.05 89.86 159.65 92.72 159.14 95.6 159.59 98.16 160.95 100.15 163.06 101.35 165.71 101.62 168.61 100.93 171.43 99.37 173.88 97.09 175.69 94.35 176.66 91.45 176.69 88.69 175.77 86.38 174.01 84.76 171.59 
M 84.66 171.34 84.08 169.24 84.03 167.06 84.21 165.98 84.96 163.93 86.19 162.12 87.83 160.68 89.77 159.68 90.82 159.37 91.9 159.19 94.08 159.23 96.19 159.81 
M 86.46 170.6 86 168.96 85.93 168.11 86.18 166.16 
M 87.79 163.27 89.66 161.85 91.26 161.26 92.95 161.09 94.64 161.33 95.44 161.61 
M 89.59 169.42 89.3 168.29 89.37 167.22 
M 90.16 165.7 90.62 165.2 91.63 164.64 92.78 164.44 93.93 164.62 94.95 165.16 95.75 166.01 96.23 167.07 96.33 168.22 96.06 169.35 95.43 170.33 94.52 171.06 93.43 171.44 92.27 171.46 91.16 171.09 90.24 170.38 89.59 169.42 
M 91.29 164.83 90.66 166.09 
M 90.05 167.31 89.39 168.64 
M 92.94 164.46 91.75 166.84 
M 91.43 167.48 90.09 170.16 
M 94.24 164.78 92.84 167.58 
M 92.8 167.64 91.1 171.04 
M 95.32 165.54 92.36 171.45 
M 96.13 166.84 93.91 171.27 
M 40.19 181.56 45.8 187.16 
M 43.49 179.02 46.94 182.47 
M 46.57 176.25 51.89 181.57 
M 49.26 173.1 53.49 177.33 
M 52.09 170.09 57.33 175.32 
M 55.07 167.22 59.64 171.79 
M 58.66 164.97 62.82 169.12 
M 62.36 162.82 65.48 165.94 
M 66.37 160.99 70.27 164.88 
M 70.36 159.13 76.04 164.81 
M 74.28 157.2 77.29 160.22 
M 78.05 155.13 81.23 158.31 
M 81.76 152.99 85.14 156.37 
M 85.55 150.94 91.02 156.41 
M 89.35 148.89 92.84 152.39 
M 93.36 147.06 96.5 150.2 
M 97.4 145.26 103.15 151.01 
M 101.53 143.55 105.14 147.16 
M 105.7 141.87 110.36 146.53 
M 109.99 140.32 112.97 143.29 
M 114.44 138.92 118.32 142.8 
M 118.86 137.5 124.01 142.65 
M 123.28 136.07 126.26 139.05 
M 127.9 134.84 133.61 140.56 
M 132.55 133.66 137.32 138.43 
M 137.18 132.44 142.51 137.77 
M 141.93 131.34 146.63 136.04 
M 94.8 198.02 95.64 197.23 97.09 194.45 97.65 192.73 97.53 192.2 
M 109.85 199.72 110.15 200.27 110.89 200.91 112.99 201.44 
M 60.46 191.91 59.31 189.06 57.42 186.53 56.26 184.54 56.14 184.06 56.39 183.01 57.26 181.76 
M 104.1 201.21 104.47 200.46 104.88 200.06 105.9 199.52 106.97 199.48 107.46 199.61 107.78 199.97 108.01 200.6 
M 144.67 165.13 144.89 160.18 
M 140.11 152.21 139.83 151.66 137.86 149.64 136.19 148.5 
M 84.44 174.14 83.35 174.87 81.43 176.63 80.67 177.05 
M 89.98 176.2 90.1 176.87 89.68 179.45 89.8 181.04 89.67 181.9 87.7 185.52 
M 118.25 167.63 122.34 166.12 124.49 166.12 
M 148.41 187.91 146.64 186.19 146.45 185.32 146.57 184.11 146.34 183.06 
M 125 141.32 124.6 142.03 125.06 143.15 
M 133.22 149.73 130.13 148.65 126.93 147.95 126.25 148.04 125.66 148.33 125.24 148.75 124.89 149.68 124.96 150.76 
M 145.79 144.97 147.26 145.23 148.84 146.07 149.52 146.59 151.64 149.06 153.24 150.28 154.11 150.58 156.08 150.83 
M 120.61 141.57 120.14 142.86 120.07 143.69 120.49 145.31 121.63 146.79 123.59 148.55 124.12 149.6 124.42 150.72 
M 114.67 163.36 115.53 161.24 116.02 160.78 116.78 160.71 117.47 161.4 
M 143.22 189.41 143.7 186.08 144.11 184.79 144.26 183.69 144.14 183.27 143.61 182.62 142.35 181.93 141.41 181.66 
M 146.88 181.96 146.78 181.6 145.54 180.07 144.6 178.04 143.19 176.83 142.08 176.17 140.85 175.72 
M 49.82 185.64 50.45 183.94 51.69 181.41 52.54 179.06 53.29 177.95 55.11 176.17 56.3 174.46 56.99 173.89 58.74 173.21 
M 99.14 185.14 99.28 182.86 99.16 181.93 98.96 181.63 97.75 181.3 96.5 181.45 
M 130.49 145.24 126.6 144.26 125.67 144.26 
M 45.02 183.45 45.43 181.89 46.5 180.28 48.03 179.03 49.71 177.95 51.91 176.09 
M 102.83 148.15 101.78 147.73 99.95 146.56 96.84 145.51 
M 89.16 181.7 87.53 185.22 87.42 185.84 88.4 189.38 88.36 190.54 87.97 191.23 
M 154.09 175.2 154.77 175.8 156.59 176.57 157.22 177.03 158.37 179 158.55 180.4 
M 146.02 166.2 145.48 164.73 145.12 161.53 145.18 159.62 
M 151.7 173.08 151.19 170 151.24 169.16 151.68 168.21 153.16 166.84 
M 119.38 174.92 120.63 173.81 121.93 173.25 122.79 173.28 124.64 173.78 124.92 173.93 125.05 174.29 
M 146.95 153.78 146.32 152.96 145.86 151.8 145.81 150.51 145.96 150.08 146.27 149.79 147.45 149.39 148.23 149.53 149.07 150.1 
M 152.97 165.48 153.3 162.31 152.98 160.35 152.35 158.98 151.84 158.31 149.12 156.36 
M 135.89 196.7 135.11 196.38 133.63 196.2 132.58 196.46 129.98 197.5 127.35 197.8 
M 89.92 157.37 89.88 159.64 
M 143.01 136.91 141.72 136.19 139.14 133.57 136.65 132.58 
M 127.38 205.93 129.13 203.65 129.47 202.47 129.36 200.99 128.75 200.33 127.87 199.94 
M 50.16 172.03 50.5 172.84 51.03 172.96 
M 95.65 154.61 96.24 155.29 97.15 157.81 97.28 159 97.11 160.39 
M 148.14 139.44 149.39 138.84 151.71 138.35 
M 130.09 163.13 127.72 163 126.42 163.34 124.62 164.53 124.36 165.06 124.44 165.47 
M 104.5 152.38 101.5 153.24 98.32 154.96 97.9 155.32 97.46 156.11 97.49 158.15 
M 94.24 200.71 94.51 201.33 94.51 202.15 
M 131.01 141.33 128.32 141.85 127.65 142.63 126.75 143.12 
M 124.8 172.54 125.96 173.18 126.43 174.05 126.38 174.37 125.95 174.89 124.23 175.95 
M 156.67 171.15 157.92 170.82 160.44 170.67 
M 145.06 175.64 143.55 174.55 142.02 174.23 139.07 174.01 136.73 174.02 134.96 174.42 
M 119.45 198.75 117.02 195.75 115.67 194.49 115.54 194.12 115.63 193.32 116.46 191.72 117.22 190.98 117.95 190.55 
M 50.72 172.51 50.95 172.76 51.3 172.79 52.14 171.98 
M 130.45 186.1 128.52 186.46 127.31 186.95 126.72 187.62 126.4 188.72 125.1 190.08 
M 108.26 148.91 107.11 149.58 105.95 149.76 102.62 149.7 101.5 149.43 97.54 146.94 96.36 145.72 
M 113.33 177.58 112.18 176.3 111.11 173.62 111.15 172.47 112.23 169.17 
M 126.61 172.53 127.31 173.03 127.39 173.41 127.25 173.9 126.6 174.79 124.76 175.92 
M 152.29 201.7 151.36 202.53 150.48 202.99 148.77 203.44 147.16 203.54 
M 141.5 193.24 141.81 192.64 141.6 190.18 
M 122.82 155.12 122.95 155.52 122.85 155.98 121.9 156.84 
M 53.18 169.05 55.07 170.87 55.54 171.13 56.23 171.17 57 171 
M 129.96 149.22 127.78 148.61 126.92 148.47 126.23 148.55 125.65 148.81 125.28 149.21 125.04 149.98 125.1 151.22 
M 101.37 165.95 101.9 166.4 102.77 166.76 103.47 166.76 103.89 166.59 
M 158.25 157.96 157.81 157.32 158.23 156.46 
M 148.94 169.91 149.94 168.74 150.2 168.21 150.53 163.92 
M 119.56 196.86 118.87 195.72 117.29 193.73 117.07 193.08 117.15 192.56 117.8 191.8 118.71 191.24 122.66 190.43 
M 109.82 200.86 110.74 201.31 113.66 201.83 
M 141.79 131.54 141.12 131.52 
M 148.99 161.53 148.54 159.96 146.73 157.27 146 155.64 145.8 154.65 144.58 151.85 144.34 150.37 144.41 149.88 
M 119.76 158.17 119.24 159.31 119.13 161.05 119.45 161.89 120.47 162.72 
M 158.52 168.68 160.42 168.9 
M 55.35 178.44 56.95 175.03 58.23 174.07 60.3 173 60.78 172.52 61.64 171.13 61.95 170.28 62.07 169.27 
M 127.37 152.13 125.76 151.55 125.13 151.82 124.88 152.31 
M 146.62 204.22 144.54 203.26 142 201.77 141.08 201.69 140.71 201.87 139.86 202.75 
M 91.1 149.18 93.67 150.3 95.05 150.73 95.46 150.55 95.75 149.97 95.87 149.36 95.78 148.77 
M 88.7 159.13 89.11 159.24 89.54 159.82 
M 136.99 156.94 136.04 153.87 135.37 152.72 134.31 151.76 133.54 151.31 132.71 150.99 130.91 150.62 
M 86.22 199.37 87.08 199.61 87.75 200.11 88.08 200.62 88.25 201.38 
M 83 196.55 85.94 193.5 86.94 191.76 
M 151.24 187.83 149.92 186.54 148.79 185.84 146.7 183.74 
M 77.4 156.18 76.52 156.31 75.75 156.63 73.59 158.12 72.6 159.6 72.33 160.98 
M 138.66 193.21 138.98 192.9 139.16 192.17 138.9 189.66 
M 121.25 139.64 119.84 141.35 119.25 142.54 119.17 143.21 119.46 144.61 119.66 145.38 120.12 146.13 123.64 149.41 
M 157.34 191.42 156 191.48 155.66 191.74 154.93 193.54 151.72 198.19 
M 90.86 176.49 90.05 178.86 90.02 181.08 89.84 181.94 
M 142.36 154.68 141.52 150.68 141.26 150.06 140.7 149.39 140.71 149 
M 128.71 155.67 127.8 156.01 126.3 157.12 123.92 160.2 123.42 161.12 
M 130.7 146.54 127.25 145.21 126.34 145.04 125.97 145.24 125.37 145.98 124.71 147.32 
M 52.44 169.75 54.47 171.42 55.6 171.9 56.5 171.81 58.35 171.25 
M 95.94 156.52 96.75 158.43 96.9 159.03 96.88 160.27 
M 53.84 193.61 55.02 194.26 
M 49.1 192.89 49.22 193.29 49.38 193 
M 44.15 191 44.05 191.37 44.28 192.8 44.57 191.65 44.89 191.3 
M 39.53 189.1 39.13 190.23 39.33 192.3 39.64 190.51 40.46 189.47 
M 35.04 187 34.2 189.09 34.38 191.8 34.71 189.37 36.03 187.56 
M 53.76 193.91 55.1 193.52 
M 49.26 194.57 49.8 193.42 49.98 193.84 50.57 194.38 
M 44.93 195.08 44.95 194.13 45.43 193.04 45.51 193.97 46.14 194.94 
M 40.6 195.71 40.48 194.27 41.07 192.67 41.05 194.11 41.8 195.54 
M 36.29 196.51 36.02 194.4 36.7 192.3 36.58 194.24 37.52 196.26 
M 32.03 197.52 31.55 194.53 32.34 191.93 32.11 194.37 33.24 197.02 
M 39.03 200.61 46.4 201.47 50.65 201.67 54.89 201.53 59.12 201.08 63.36 200.4 71.95 198.56 
M 47.08 201.25 48.51 201.08 49.39 201.61 
M 57.43 200.88 56.44 200.16 53.84 199.42 
M 43.51 199.65 46.09 200.72 48.3 200.7 48.91 200.88 
M 45.42 199.4 46.79 199.94 47.7 199.98 
M 151.51 137.92 155.44 141.86 
M 150 128.62 157.24 135.86 
M 155.08 125.9 165.3 136.13 
M 160.12 123.15 168.11 131.14 
M 165.26 120.5 175.55 130.8 
M 170.48 117.93 181.1 128.55 
M 175.86 115.51 184.56 124.21 
M 181.32 113.18 191.87 123.74 
M 186.88 110.95 196.9 120.97 
M 192.37 108.65 200.37 116.65 
M 198.01 106.5 206.94 115.43 
M 203.88 104.57 210.7 111.4 
M 210.14 103.05 217.42 110.32 
M 216.64 101.75 225.99 111.1 
M 223.65 100.97 230.99 108.31 
M 231.22 100.74 239.44 108.96 
M 238.85 100.59 247.34 109.08 
M 246.74 100.68 254.59 108.53 
M 256.7 102.84 265.85 112 
M 268.92 107.27 278.9 117.26 
M 282.67 113.24 293.84 124.4 
M 296.25 119.02 303.6 126.37 
M 312.71 127.69 320.32 135.3 
M 329.76 136.94 338.94 146.12 
M 346.03 145.43 355.96 155.35 
M 170.88 117.74 170.89 117.76 
M 172.83 112.87 174.49 116.19 
M 174.38 107.22 178.1 114.64 
M 175.77 101.21 181.71 113.1 
M 176.88 94.68 185.33 111.57 
M 177.58 87.3 186.72 105.6 
M 177.89 79.17 183.56 90.5 
M 179.99 74.59 184.78 84.17 
M 183.44 72.74 185.62 77.1 
M 217.62 97.26 219.82 101.66 
M 212.55 78.35 223.95 101.15 
M 211.62 67.73 228.17 100.82 
M 213.09 61.9 232.5 100.71 
M 214.33 55.62 236.83 100.61 
M 215.15 48.49 241.18 100.54 
M 220.58 50.58 245.87 101.17 
M 225.65 51.95 247 94.64 
M 230.14 52.18 245.39 82.67 
M 234.33 51.77 246.09 75.29 
M 239.19 52.73 246.59 67.54 
M 244.42 54.43 247.47 60.53 
M 281.44 102.17 288.19 115.68 
M 280.91 92.34 293.82 118.16 
M 279.09 79.94 299.45 120.65 
M 279.41 71.82 299.61 112.21 
M 279.41 63.04 299.2 102.63 
M 281.76 58.97 281.96 59.37 
M 298.92 93.29 300.08 95.62 
"/></svg>