<svg xmlns="http://www.w3.org/2000/svg" width="520" height="320"><rect x="0" y="0" width="520" height="320" fill="floralwhite"/><rect x="10" y="10" width="500" height="300" stroke="black" stroke-width="1" fill="none"/><path stroke="black" stroke-width="1" fill="none" stroke-linecap="round" stroke-linejoin="round" d="
M 106.04 118.97 117.87 116.36 129.69 114.75 153.31 113.05 176.93 110.57 188.74 109.66 200.55 109.19 212.37 108.98 224.18 108.89 247.8 109.1 259.61 108.87 271.42 108.89 283.23 109.45 306.86 111.1 318.67 112.07 330.48 113.5 377.73 120.32 389.54 122.83 401.35 126.44 402.37 127.18 
M 402.37 175.14 401.35 175.78 389.54 178.68 377.73 180.72 354.1 183.46 342.29 185.04 330.48 186.87 318.67 188.42 306.86 189.23 295.05 189.67 271.42 190.12 247.8 189.98 235.99 190.42 212.37 191.62 200.55 191.7 188.74 191.13 176.93 189.89 165.12 188.13 141.5 183.8 129.69 181.87 117.88 180.62 
M 124.34 178.02 124.44 177.15 124.03 176.15 123.4 175.27 122.91 174.93 
M 111.95 124.21 112.61 123.91 113.76 122.88 114.51 121.71 114.51 120.98 113.76 119.81 112.61 118.78 111.71 118.37 
M 122 157.1 123.12 155.76 123.66 154.45 123.66 153.64 123.12 152.34 122.62 151.66 
M 123.8 167.03 124.42 166.64 125.21 165.63 125.71 164.48 125.71 163.77 125.21 162.63 124.42 161.62 123.8 161.22 
M 114 120.43 114.8 120.06 115.83 119.11 116.49 118.03 116.49 117.36 116.12 116.75 
M 121.2 138.66 121.45 138.09 121.45 137.25 120.87 135.9 119.98 134.71 119.57 134.44 
M 122.82 152.34 123.41 151.88 124.17 150.7 124.66 149.36 124.66 148.53 124.17 147.19 123.41 146 122.82 145.54 
M 116.75 117.3 117.72 116.94 118.66 116.25 
M 121.05 136.48 121.92 136.05 123.04 134.95 123.77 133.71 123.77 132.94 123.04 131.69 121.92 130.59 121.05 130.16 
M 121.13 122.81 121.92 122.45 122.94 121.51 123.6 120.45 123.6 119.8 122.94 118.74 121.92 117.8 121.13 117.44 
M 125.6 142.42 126.29 141.99 127.17 140.9 127.74 139.65 127.74 138.88 127.17 137.63 126.29 136.53 125.6 136.11 
M 129.35 147.63 128.9 146.97 128.3 146.55 
M 123.75 119.54 124.67 119.2 125.84 118.31 126.6 117.3 126.6 116.68 125.84 115.67 125.4 115.33 
M 125.44 128.44 126.33 128.06 127.47 127.1 128.21 126.01 128.21 125.33 127.47 124.24 126.33 123.28 125.44 122.9 
M 127.49 138.02 128.33 137.62 129.39 136.59 130.08 135.42 130.08 134.69 129.39 133.52 128.33 132.49 127.49 132.09 
M 126.42 116.34 127.17 116.01 128.26 114.94 
M 130.23 121.26 131.06 120.92 132.12 120.05 132.8 119.07 132.8 118.46 132.12 117.48 131.06 116.61 130.23 116.27 
M 131.73 129.92 132.53 129.56 133.56 128.63 134.22 127.57 134.22 126.92 133.56 125.87 132.53 124.94 131.73 124.57 
M 132.66 117.8 133.32 117.48 134.15 116.65 134.69 115.72 134.69 115.14 134.26 114.4 
M 133.95 126.07 134.59 125.72 135.41 124.83 135.94 123.83 135.94 123.21 135.41 122.2 134.59 121.32 133.95 120.97 
M 135.45 134.9 136.07 134.53 136.86 133.59 137.37 132.52 137.37 131.86 136.86 130.79 136.07 129.84 135.45 129.47 
M 137.13 144.15 137.71 143.76 138.46 142.78 138.94 141.68 138.94 140.99 138.46 139.88 137.71 138.9 137.13 138.52 
M 134.87 114.36 134.89 114.35 
M 136.07 122.32 136.81 121.99 137.76 121.13 138.37 120.17 138.37 119.57 137.76 118.61 136.81 117.75 136.07 117.42 
M 137.43 130.82 138.16 130.47 139.1 129.56 139.71 128.53 139.71 127.89 139.1 126.87 138.16 125.96 137.43 125.6 
M 138.93 139.75 139.64 139.38 140.54 138.43 141.12 137.36 141.12 136.69 140.54 135.62 139.64 134.67 138.93 134.3 
M 138.2 118.59 138.78 118.27 139.51 117.45 139.99 116.52 139.99 115.95 139.51 115.02 138.54 114.07 
M 139.47 126.82 140.06 126.48 140.82 125.6 141.31 124.61 141.31 123.99 140.82 123 140.06 122.12 139.47 121.77 
M 140.85 135.5 141.44 135.14 142.2 134.22 142.69 133.17 142.69 132.52 142.2 131.48 141.44 130.56 140.85 130.2 
M 142.28 144.46 142.85 144.09 143.57 143.15 144.03 142.07 144.03 141.41 143.57 140.34 142.85 139.39 142.28 139.02 
M 140.08 114.85 140.72 114.53 141.43 113.85 
M 141.41 122.96 142.09 122.62 142.97 121.76 143.53 120.78 143.53 120.17 142.97 119.19 142.09 118.32 141.41 117.99 
M 144.22 140.22 144.91 139.86 145.8 138.94 146.37 137.89 146.37 137.25 145.8 136.2 144.91 135.28 144.22 134.92 
M 143.19 118.93 143.71 118.6 144.38 117.74 144.81 116.77 144.81 116.17 144.38 115.2 143.71 114.34 143.19 114 
M 147.45 144.77 148.01 144.42 148.73 143.51 149.2 142.48 149.2 141.85 148.73 140.82 148.01 139.91 147.45 139.55 
M 144.72 114.83 145.31 114.51 146.14 113.53 
M 146.45 123.37 147.1 123.02 147.93 122.11 148.47 121.08 148.47 120.44 147.93 119.42 147.1 118.51 146.45 118.15 
M 148.18 132.12 148.87 131.76 149.76 130.84 150.33 129.8 150.33 129.16 149.76 128.12 148.87 127.2 148.18 126.84 
M 149.49 140.69 150.18 140.34 151.06 139.44 151.63 138.42 151.63 137.79 151.06 136.77 150.18 135.87 149.49 135.52 
M 147.84 119.01 148.34 118.65 148.99 117.73 149.4 116.69 149.4 116.04 148.99 115 148.34 114.08 147.84 113.72 
M 151.65 136.79 152.24 136.43 152.98 135.52 153.47 134.49 153.47 133.85 152.98 132.82 152.24 131.91 151.65 131.55 
M 152.59 145.06 153.15 144.72 153.87 143.85 154.33 142.87 154.33 142.26 153.87 141.27 153.15 140.4 152.59 140.06 
M 155.2 182.7 154.71 181.37 
M 149.13 114.61 149.72 114.27 150.55 113.23 
M 151.34 123.66 151.98 123.29 152.81 122.33 153.33 121.24 153.33 120.57 152.81 119.48 151.98 118.52 151.34 118.14 
M 153.42 132.68 154.1 132.31 154.97 131.37 155.53 130.31 155.53 129.65 154.97 128.58 154.1 127.64 153.42 127.27 
M 154.72 141.12 155.39 140.78 156.26 139.9 156.82 138.9 156.82 138.28 156.26 137.28 155.39 136.39 154.72 136.05 
M 157.29 147.13 157.33 146.46 156.8 145.5 155.98 144.65 155.33 144.32 
M 152.45 119.03 152.97 118.65 153.63 117.67 154.05 116.56 154.05 115.88 153.63 114.77 152.97 113.79 152.45 113.4 
M 155.1 128.55 155.65 128.16 156.37 127.17 156.83 126.04 156.83 125.35 156.37 124.22 155.65 123.23 155.1 122.84 
M 156.93 137.32 157.5 136.97 158.23 136.06 158.7 135.03 158.7 134.39 158.23 133.36 157.5 132.45 156.93 132.09 
M 157.68 145.32 158.23 144.99 158.94 144.15 159.39 143.2 159.39 142.61 158.94 141.66 158.23 140.82 157.68 140.49 
M 153.7 114.52 154.33 114.16 155.34 112.83 
M 159.85 141.47 160.52 141.13 161.37 140.26 161.92 139.28 161.92 138.67 161.37 137.68 160.52 136.81 159.85 136.47 
M 162.26 147.04 162.26 146.64 161.72 145.71 160.9 144.89 160.26 144.57 
M 157.3 119.21 157.85 118.82 158.55 117.81 159 116.67 159 115.96 158.55 114.82 157.85 113.81 157.3 113.41 
M 160.19 128.95 160.74 128.55 161.46 127.54 161.92 126.39 161.92 125.68 161.46 124.54 160.74 123.52 160.19 123.13 
M 162.08 137.71 162.63 137.36 163.34 136.45 163.8 135.43 163.8 134.79 163.34 133.76 162.63 132.86 162.08 132.5 
M 162.7 145.54 163.25 145.22 163.95 144.4 164.4 143.46 164.4 142.89 163.95 141.95 163.25 141.13 162.7 140.81 
M 158.7 114.79 159.38 114.43 160.25 113.51 160.82 112.26 
M 161.33 124.28 162.01 123.89 162.88 122.88 163.44 121.74 163.44 121.04 162.88 119.9 162.01 118.89 161.33 118.5 
M 163.68 133.48 164.35 133.11 165.21 132.16 165.76 131.08 165.76 130.41 165.21 129.33 164.35 128.37 163.68 128 
M 164.9 141.75 165.56 141.41 166.41 140.55 166.95 139.58 166.95 138.97 166.41 138 165.56 137.14 164.9 136.8 
M 164.76 180.31 164.96 180.2 
M 165.32 129.3 165.88 128.91 166.61 127.91 167.08 126.77 167.08 126.07 166.61 124.93 165.88 123.93 165.32 123.54 
M 167.12 137.98 167.68 137.63 168.39 136.73 168.85 135.72 168.85 135.09 168.39 134.07 167.68 133.17 167.12 132.82 
M 167.69 145.76 168.24 145.44 168.94 144.62 169.4 143.7 169.4 143.12 168.94 142.2 168.24 141.38 167.69 141.06 
M 167.01 184.13 167.52 183.81 168.18 182.97 168.6 182.03 168.6 181.44 168.25 180.65 
M 164.11 115.42 164.84 115.06 165.78 114.16 166.38 113.13 166.38 112.49 165.93 111.72 
M 172.2 146.86 171.82 146.25 170.95 145.43 170.27 145.12 
M 168.01 120.35 168.63 119.96 169.42 118.99 169.92 117.88 169.92 117.2 169.42 116.09 168.63 115.12 168.01 114.74 
M 170.61 129.79 171.2 129.4 171.95 128.43 172.44 127.32 172.44 126.63 171.95 125.52 171.2 124.54 170.61 124.16 
M 172.82 146.16 173.39 145.84 174.11 145.01 174.58 144.08 174.58 143.51 174.11 142.57 173.39 141.75 172.82 141.43 
M 169.8 116.32 170.57 115.97 171.55 115.08 172.19 114.08 172.19 113.46 171.55 112.46 170.57 111.57 169.97 111.3 
M 172.1 125.45 172.84 125.07 173.78 124.11 174.39 123.02 174.39 122.34 173.78 121.25 172.84 120.29 172.1 119.91 
M 174.12 134.36 174.83 134 175.73 133.07 176.31 132.03 176.31 131.38 175.73 130.33 174.83 129.41 174.12 129.05 
M 171.69 112.41 172.36 112.09 173.43 110.94 
M 173.72 121.24 174.36 120.87 175.18 119.93 175.71 118.86 175.71 118.19 175.18 117.12 174.36 116.17 173.72 115.81 
M 176.07 130.43 176.67 130.06 177.45 129.1 177.95 128.03 177.95 127.36 177.45 126.28 176.67 125.33 176.07 124.96 
M 178.09 146.71 178.67 146.39 179.42 145.56 179.9 144.61 179.9 144.03 179.42 143.09 178.67 142.26 178.09 141.93 
M 175.7 117.42 176.49 117.08 177.51 116.22 178.17 115.25 178.17 114.64 177.51 113.67 176.49 112.8 175.7 112.47 
M 177.76 126.29 178.52 125.93 179.49 124.99 180.11 123.94 180.11 123.28 179.49 122.22 178.52 121.29 177.76 120.93 
M 179.55 134.99 180.27 134.63 181.2 133.73 181.79 132.71 181.79 132.08 181.2 131.05 180.27 130.15 179.55 129.8 
M 181.8 146.69 180.94 146.24 
M 177.78 113.73 178.47 113.42 179.34 112.64 179.91 111.75 179.91 111.2 179.39 110.38 
M 179.6 122.3 180.26 121.94 181.09 121.03 181.64 119.99 181.64 119.35 181.09 118.32 180.26 117.4 179.6 117.05 
M 181.66 131.2 182.28 130.84 183.07 129.91 183.58 128.87 183.58 128.23 183.07 127.18 182.28 126.26 181.66 125.9 
M 182.94 139.47 183.53 139.13 184.29 138.27 184.79 137.29 184.79 136.69 184.29 135.71 183.53 134.85 182.94 134.51 
M 184.39 146.65 184.8 146.19 185.29 145.24 185.29 144.66 184.8 143.71 184.05 142.87 183.46 142.54 
M 180.52 110.92 181.35 110.65 182.08 110.17 
M 181.72 118.64 182.53 118.32 183.56 117.48 184.22 116.53 184.22 115.95 183.56 115 182.53 114.16 181.72 113.84 
M 183.53 127.24 184.3 126.89 185.29 125.99 185.92 124.97 185.92 124.33 185.29 123.31 184.3 122.41 183.53 122.06 
M 185.08 135.71 185.81 135.37 186.75 134.49 187.35 133.49 187.35 132.88 186.75 131.88 185.81 131 185.08 130.66 
M 185.91 143.75 186.63 143.42 187.54 142.57 188.13 141.61 188.13 141.02 187.54 140.06 186.63 139.22 185.91 138.89 
M 183.95 115.12 184.63 114.82 185.51 114.05 186.08 113.19 186.08 112.65 185.51 111.78 184.63 111.01 183.95 110.72 
M 185.55 123.44 186.21 123.09 187.06 122.21 187.6 121.21 187.6 120.59 187.06 119.59 186.21 118.71 185.55 118.36 
M 187.33 132.05 187.95 131.7 188.75 130.81 189.27 129.8 189.27 129.17 188.75 128.16 187.95 127.27 187.33 126.93 
M 188.4 140.15 189 139.82 189.77 138.97 190.26 138.01 190.26 137.42 189.77 136.46 189 135.61 188.4 135.28 
M 186.71 112.35 187.54 112.09 188.6 111.4 189.28 110.63 189.28 110.15 188.84 109.65 
M 187.77 119.9 188.57 119.58 189.6 118.77 190.27 117.85 190.27 117.28 189.6 116.36 188.57 115.54 187.77 115.23 
M 189.5 109.64 189.53 109.63 
M 190.08 116.48 190.76 116.19 191.64 115.44 192.21 114.59 192.21 114.07 191.64 113.22 190.76 112.47 190.08 112.17 
M 193.86 140.82 194.45 140.49 195.21 139.67 195.69 138.73 195.69 138.15 195.21 137.21 194.45 136.38 193.86 136.06 
M 196.01 146.44 196.01 145.94 195.53 145.01 194.8 144.18 194.22 143.86 
M 192.88 113.78 193.71 113.51 194.76 112.84 195.44 112.08 195.44 111.61 194.76 110.85 193.71 110.17 192.88 109.91 
M 193.79 121.12 194.58 120.82 195.61 120.03 196.26 119.14 196.26 118.58 195.61 117.69 194.58 116.91 193.79 116.6 
M 195.09 129.16 195.85 128.84 196.81 128 197.43 127.04 197.43 126.46 196.81 125.5 195.85 124.66 195.09 124.34 
M 196.14 137.16 196.85 136.84 197.77 136.01 198.35 135.06 198.35 134.48 197.77 133.54 196.85 132.71 196.14 132.38 
M 196.67 144.94 197.35 144.62 198.23 143.8 198.8 142.88 198.8 142.3 198.23 141.38 197.35 140.56 196.67 140.24 
M 196.19 183.09 196.89 182.8 197.79 182.05 198.37 181.2 198.37 180.67 197.55 179.62 
M 195.73 111.14 196.42 110.9 197.3 110.3 197.87 109.61 197.87 109.3 
M 196.22 117.84 196.9 117.56 197.77 116.83 198.33 116.01 198.33 115.5 197.77 114.67 196.9 113.94 196.22 113.66 
M 199.17 141.33 199.75 141.02 200.48 140.21 200.95 139.29 200.95 138.73 200.48 137.81 199.75 137 199.17 136.69 
M 201.11 146.35 200.68 145.47 199.96 144.66 199.41 144.35 
M 199.02 115.15 199.82 114.89 200.86 114.23 201.52 113.49 201.52 113.02 200.86 112.28 199.82 111.62 199.02 111.36 
M 199.73 122.25 200.5 121.95 201.5 121.2 202.14 120.34 202.14 119.81 201.5 118.95 200.5 118.2 199.73 117.9 
M 200.71 129.94 201.44 129.63 202.37 128.83 202.97 127.92 202.97 127.35 202.37 126.44 201.44 125.64 200.71 125.32 
M 201.48 137.68 202.17 137.37 203.05 136.56 203.62 135.65 203.62 135.08 203.05 134.17 202.17 133.37 201.48 133.05 
M 201.83 145.31 202.5 145 203.35 144.2 203.9 143.29 203.9 142.73 203.35 141.82 202.5 141.02 201.83 140.71 
M 201.86 112.55 202.53 112.31 203.38 111.71 203.93 111.03 203.93 110.6 203.38 109.92 202.1 109.16 
M 202.25 119.08 202.91 118.81 203.74 118.1 204.28 117.3 204.28 116.81 203.74 116.01 202.91 115.31 202.25 115.04 
M 203.07 126.46 203.69 126.16 204.48 125.38 204.98 124.51 204.98 123.96 204.48 123.08 203.69 122.31 203.07 122 
M 204.32 141.67 204.87 141.37 205.58 140.58 206.03 139.68 206.03 139.13 205.58 138.23 204.87 137.44 204.32 137.14 
M 205.91 146.26 204.97 144.98 204.43 144.67 
M 204.78 110.32 205.55 110.1 206.54 109.54 207.01 109.08 
M 204.96 116.33 205.73 116.08 206.71 115.43 207.35 114.7 207.35 114.25 206.71 113.51 205.73 112.87 204.96 112.61 
M 205.47 123.17 206.21 122.89 207.16 122.16 207.77 121.34 207.77 120.83 207.16 120.01 206.21 119.28 205.47 119 
M 206.64 138.04 207.31 137.73 208.16 136.95 208.71 136.06 208.71 135.51 208.16 134.63 207.31 133.85 206.64 133.54 
M 206.85 145.54 207.5 145.23 208.33 144.45 208.87 143.56 208.87 143.01 208.33 142.12 207.5 141.33 206.85 141.03 
M 207.72 113.66 208.34 113.43 209.14 112.83 209.66 112.15 209.66 111.73 209.14 111.05 208.34 110.45 207.72 110.21 
M 208.01 120.04 208.62 119.77 209.41 119.09 209.91 118.32 209.91 117.84 209.41 117.07 208.62 116.39 208.01 116.12 
M 208.54 127.1 209.13 126.81 209.88 126.07 210.36 125.23 210.36 124.71 209.88 123.87 209.13 123.12 208.54 122.83 
M 209.05 134.46 209.61 134.16 210.32 133.39 210.78 132.52 210.78 131.99 210.32 131.12 209.61 130.35 209.05 130.05 
M 209.32 141.89 209.86 141.58 210.55 140.81 210.99 139.93 210.99 139.39 210.55 138.51 209.86 137.73 209.32 137.43 
M 210.67 146.18 209.88 145.18 209.35 144.87 
M 209.58 187.51 210.14 186.86 210.59 185.95 210.59 185.38 210.14 184.46 209.44 183.65 208.89 183.34 
M 210.43 111.25 211.16 111.03 212.09 110.47 212.68 109.83 212.68 109.44 212.25 108.98 
M 210.59 117.2 211.31 116.95 212.23 116.31 212.83 115.59 212.83 115.14 212.23 114.42 211.31 113.79 210.59 113.54 
M 210.93 123.83 211.63 123.55 212.53 122.85 213.11 122.06 213.11 121.56 212.53 120.77 211.63 120.07 210.93 119.79 
M 213.21 114.41 213.8 114.18 214.54 113.58 215.03 112.91 215.03 112.49 214.54 111.81 213.8 111.22 213.21 110.98 
M 213.42 120.67 213.99 120.41 214.73 119.74 215.21 118.99 215.21 118.52 214.73 117.77 213.99 117.1 213.42 116.84 
M 213.76 127.51 214.32 127.23 215.03 126.51 215.49 125.69 215.49 125.19 215.03 124.37 214.32 123.65 213.76 123.37 
M 214.07 134.68 214.61 134.38 215.3 133.63 215.74 132.78 215.74 132.26 215.3 131.41 214.61 130.66 214.07 130.36 
M 215.42 146.09 214.73 145.3 214.21 145 
M 215.77 111.84 216.45 111.62 217.32 111.06 217.89 110.42 217.89 110.03 217.32 109.4 216.62 108.95 
M 215.89 117.73 216.57 117.49 217.44 116.86 218 116.15 218 115.71 217.44 114.99 216.57 114.37 215.89 114.12 
M 216.12 124.23 216.79 123.96 217.64 123.27 218.19 122.5 218.19 122.01 217.64 121.24 216.79 120.55 216.12 120.28 
M 216.57 138.39 217.21 138.1 218.02 137.34 218.55 136.48 218.55 135.95 218.02 135.1 217.21 134.34 216.57 134.05 
M 218.32 109.27 219.06 108.93 
M 218.39 114.83 218.94 114.6 219.65 114.01 220.11 113.33 220.11 112.92 219.65 112.25 218.94 111.65 218.39 111.42 
M 218.54 121.01 219.09 120.76 219.79 120.1 220.24 119.36 220.24 118.9 219.79 118.15 219.09 117.5 218.54 117.24 
M 218.77 127.73 219.31 127.46 220 126.75 220.44 125.95 220.44 125.45 220 124.65 219.31 123.95 218.77 123.67 
M 218.96 134.79 219.49 134.5 220.17 133.76 220.61 132.93 220.61 132.41 220.17 131.57 219.49 130.83 218.96 130.54 
M 220.1 146.01 219.55 145.37 219.03 145.07 
M 220.85 112.17 221.5 111.95 222.34 111.39 222.88 110.76 222.88 110.36 222.34 109.73 221.5 109.17 220.85 108.95 
M 220.94 118.02 221.6 117.78 222.43 117.16 222.97 116.45 222.97 116.02 222.43 115.31 221.6 114.69 220.94 114.44 
M 221.11 124.45 221.76 124.18 222.58 123.5 223.12 122.73 223.12 122.26 222.58 121.49 221.76 120.81 221.11 120.55 
M 221.29 131.31 221.93 131.02 222.74 130.3 223.27 129.49 223.27 128.98 222.74 128.17 221.93 127.45 221.29 127.16 
M 221.43 145.82 222.06 145.51 222.86 144.75 223.38 143.87 223.38 143.34 222.86 142.46 222.06 141.7 221.43 141.4 
M 223.3 109.51 224.37 108.9 
M 223.37 115.06 223.91 114.83 224.6 114.24 225.04 113.57 225.04 113.15 224.6 112.48 223.91 111.89 223.37 111.66 
M 223.49 121.2 224.02 120.94 224.7 120.29 225.15 119.55 225.15 119.1 224.7 118.36 224.02 117.71 223.49 117.45 
M 223.66 127.85 224.19 127.57 224.86 126.87 225.3 126.08 225.3 125.59 224.86 124.8 224.19 124.1 223.66 123.82 
M 223.79 134.85 224.31 134.56 224.98 133.83 225.41 132.99 225.41 132.48 224.98 131.65 224.31 130.91 223.79 130.62 
M 223.83 142.1 224.35 141.8 225.02 141.04 225.44 140.18 225.44 139.65 225.02 138.78 224.35 138.02 223.83 137.72 
M 225.78 112.36 226.42 112.14 227.24 111.58 227.76 110.94 227.76 110.55 227.24 109.91 226.42 109.35 225.78 109.13 
M 225.87 118.19 226.51 117.95 227.33 117.33 227.86 116.63 227.86 116.19 227.33 115.49 226.51 114.87 225.87 114.63 
M 226 124.56 226.63 124.3 227.44 123.63 227.96 122.86 227.96 122.39 227.44 121.63 226.63 120.96 226 120.69 
M 226.12 131.37 226.75 131.09 227.55 130.37 228.07 129.56 228.07 129.06 227.55 128.25 226.75 127.53 226.12 127.25 
M 226.21 145.84 226.83 145.54 227.63 144.77 228.14 143.9 228.14 143.36 227.63 142.48 226.83 141.71 226.21 141.41 
M 226 184.62 226.64 184.3 227.46 183.47 227.99 182.54 227.99 181.96 227.46 181.02 226.64 180.2 226 179.87 
M 228.17 109.64 229.32 108.95 
M 228.27 115.21 228.8 114.98 229.48 114.39 229.92 113.72 229.92 113.3 229.48 112.63 228.8 112.04 228.27 111.81 
M 228.48 127.9 229 127.63 229.67 126.94 230.1 126.15 230.1 125.66 229.67 124.88 229 124.18 228.48 123.91 
M 228.57 134.86 229.09 134.58 229.75 133.85 230.18 133.02 230.18 132.51 229.75 131.68 229.09 130.95 228.57 130.66 
M 228.4 180.76 228.93 180.44 229.62 179.6 230.06 178.66 230.06 178.07 229.62 177.12 228.93 176.29 228.4 175.96 
M 230.13 186.67 230.17 186.01 229.74 185.09 229.06 184.27 228.53 183.95 
M 230.63 112.46 231.25 112.24 232.06 111.68 232.58 111.04 232.58 110.64 232.06 110 231.25 109.43 230.63 109.21 
M 230.82 124.62 231.45 124.36 232.25 123.69 232.76 122.93 232.76 122.46 232.25 121.7 231.45 121.03 230.82 120.77 
M 230.91 131.39 231.53 131.11 232.33 130.4 232.84 129.59 232.84 129.09 232.33 128.29 231.53 127.57 230.91 127.3 
M 230.89 184.75 231.52 184.43 232.33 183.6 232.85 182.67 232.85 182.09 232.33 181.16 231.52 180.34 230.89 180.01 
M 232.96 109.7 234.07 109 
M 233.1 115.29 233.62 115.06 234.29 114.47 234.72 113.79 234.72 113.38 234.29 112.71 233.62 112.11 233.1 111.88 
M 233.17 121.36 233.69 121.11 234.36 120.46 234.79 119.73 234.79 119.28 234.36 118.55 233.69 117.9 233.17 117.65 
M 233.26 127.92 233.78 127.65 234.44 126.96 234.87 126.18 234.87 125.69 234.44 124.91 233.78 124.21 233.26 123.94 
M 233.33 134.86 233.84 134.58 234.5 133.85 234.93 133.02 234.93 132.51 234.5 131.68 233.84 130.95 233.33 130.67 
M 233.35 142.1 233.86 141.81 234.52 141.05 234.95 140.18 234.95 139.65 234.52 138.79 233.86 138.03 233.35 137.73 
M 233.28 180.89 233.81 180.57 234.49 179.73 234.92 178.79 234.92 178.2 234.49 177.26 233.81 176.43 233.28 176.1 
M 235.39 112.49 236.01 112.27 236.8 111.7 237.31 111.05 237.31 110.65 236.8 110 236.01 109.43 235.39 109.21 
M 235.51 118.33 236.14 118.08 236.93 117.46 237.44 116.76 237.44 116.33 236.93 115.63 236.14 115.01 235.51 114.77 
M 235.59 124.63 236.21 124.37 237 123.7 237.51 122.95 237.51 122.48 237 121.72 236.21 121.06 235.59 120.8 
M 235.66 131.38 236.28 131.11 237.07 130.39 237.58 129.59 237.58 129.09 237.07 128.29 236.28 127.57 235.66 127.3 
M 235.71 138.47 236.32 138.18 237.11 137.44 237.62 136.59 237.62 136.07 237.11 135.23 236.32 134.48 235.71 134.19 
M 235.59 176.88 236.22 176.56 237.02 175.72 237.54 174.77 237.54 174.19 237.02 173.24 236.22 172.41 235.59 172.08 
M 235.69 184.77 236.31 184.45 237.11 183.64 237.62 182.71 237.62 182.14 237.11 181.21 236.31 180.4 235.69 180.08 
M 237.66 109.67 238.67 109.03 
M 237.86 115.3 238.37 115.07 239.03 114.47 239.45 113.8 239.45 113.38 239.03 112.7 238.37 112.11 237.86 111.88 
M 237.93 121.35 238.44 121.1 239.1 120.46 239.52 119.73 239.52 119.28 239.1 118.55 238.44 117.9 237.93 117.65 
M 238.06 134.84 238.57 134.56 239.23 133.83 239.65 133 239.65 132.49 239.23 131.66 238.57 130.93 238.06 130.65 
M 238.09 142.09 238.6 141.79 239.26 141.03 239.69 140.17 239.69 139.64 239.26 138.78 238.6 138.02 238.09 137.72 
M 240.08 112.44 240.69 112.22 241.46 111.64 241.96 110.98 241.96 110.58 241.46 109.92 240.69 109.35 240.08 109.12 
M 240.3 124.59 240.91 124.33 241.69 123.66 242.2 122.91 242.2 122.44 241.69 121.68 240.91 121.01 240.3 120.75 
M 240.43 138.44 241.04 138.15 241.82 137.4 242.33 136.56 242.33 136.03 241.82 135.19 241.04 134.44 240.43 134.15 
M 240.75 145.64 241.83 144.72 242.33 143.85 242.33 143.31 241.83 142.44 241.04 141.67 240.43 141.37 
M 240.19 168.84 240.81 168.51 241.27 168.02 
M 242.27 109.56 243.08 109.06 
M 242.53 115.23 243.04 114.99 243.68 114.39 244.09 113.72 244.09 113.3 243.68 112.62 243.04 112.02 242.53 111.78 
M 242.61 121.28 243.11 121.02 243.75 120.38 244.17 119.65 244.17 119.2 243.75 118.47 243.11 117.83 242.61 117.57 
M 242.68 127.83 243.19 127.56 243.83 126.87 244.25 126.08 244.25 125.6 243.83 124.81 243.19 124.12 242.68 123.85 
M 242.75 134.78 243.26 134.5 243.91 133.76 244.32 132.94 244.32 132.42 243.91 131.6 243.26 130.86 242.75 130.58 
M 242.8 142.04 243.3 141.74 243.95 140.98 244.37 140.12 244.37 139.59 243.95 138.73 243.3 137.96 242.8 137.67 
M 243.49 145.59 242.77 145.02 
M 242.67 172.92 243.19 172.59 243.86 171.75 244.28 170.79 244.28 170.2 243.86 169.24 243.19 168.4 242.67 168.07 
M 244.67 112.29 245.27 112.06 246.03 111.48 246.52 110.82 246.52 110.41 246.03 109.75 245.05 109.08 
M 244.86 118.16 245.45 117.92 246.22 117.3 246.72 116.59 246.72 116.15 246.22 115.45 245.45 114.82 244.86 114.58 
M 245.02 131.22 245.61 130.95 246.38 130.23 246.87 129.43 246.87 128.93 246.38 128.12 245.61 127.41 245.02 127.13 
M 245.08 138.34 245.68 138.05 246.44 137.3 246.93 136.45 246.93 135.93 246.44 135.08 245.68 134.34 245.08 134.05 
M 245.35 145.56 246.45 144.62 246.94 143.75 246.94 143.21 246.45 142.34 245.68 141.57 245.09 141.27 
M 244.92 168.82 245.54 168.5 246.33 167.66 246.84 166.71 246.84 166.12 246.33 165.17 245.51 164.32 
M 246.79 109.33 247.3 109.09 
M 247.1 115.05 247.6 114.81 248.23 114.21 248.64 113.53 248.64 113.1 248.23 112.42 247.6 111.82 247.1 111.58 
M 247.27 127.66 247.76 127.39 248.39 126.7 248.8 125.91 248.8 125.42 248.39 124.64 247.76 123.95 247.27 123.68 
M 247.35 134.63 247.84 134.34 248.47 133.61 248.87 132.78 248.87 132.26 248.47 131.43 247.84 130.7 247.35 130.41 
M 247.41 141.9 247.9 141.6 248.52 140.84 248.93 139.98 248.93 139.44 248.52 138.58 247.9 137.82 247.41 137.52 
M 248.13 145.51 247.38 144.87 
M 247.12 164.69 247.63 164.36 248.3 163.53 248.72 162.59 248.72 162.23 
M 247.43 172.93 247.95 172.6 248.62 171.75 249.05 170.79 249.05 170.2 248.62 169.23 247.95 168.39 247.43 168.05 
M 249.19 112.07 249.78 111.84 250.53 111.25 251.02 110.58 251.02 110.16 250.53 109.5 249.97 109.05 
M 249.4 117.95 249.99 117.71 250.75 117.08 251.24 116.38 251.24 115.94 250.75 115.23 249.99 114.61 249.4 114.36 
M 249.47 124.23 250.05 123.97 250.81 123.3 251.29 122.55 251.29 122.08 250.81 121.33 250.05 120.66 249.47 120.4 
M 249.52 130.96 250.09 130.68 250.83 129.97 251.31 129.17 251.31 128.67 250.83 127.86 250.09 127.15 249.52 126.88 
M 249.56 138.05 250.13 137.76 250.85 137.01 251.32 136.17 251.32 135.65 250.85 134.8 250.13 134.06 249.56 133.77 
M 249.57 145.42 250.14 145.12 250.87 144.35 251.34 143.47 251.34 142.93 250.87 142.06 250.14 141.29 249.57 140.99 
M 249.69 168.86 250.32 168.53 251.13 167.69 251.65 166.73 251.65 166.14 251.13 165.19 250.32 164.34 249.69 164.02 
M 251.25 109.06 251.33 109.03 
M 251.62 114.82 252.12 114.58 252.75 113.97 253.15 113.29 253.15 112.86 252.75 112.18 252.12 111.57 251.62 111.33 
M 251.7 120.84 252.19 120.59 252.82 119.95 253.22 119.22 253.22 118.77 252.82 118.05 252.19 117.4 251.7 117.15 
M 251.72 127.32 252.2 127.06 252.81 126.37 253.21 125.59 253.21 125.11 252.81 124.34 252.2 123.65 251.72 123.38 
M 251.72 134.21 252.18 133.93 252.78 133.2 253.16 132.38 253.16 131.87 252.78 131.05 252.18 130.32 251.72 130.04 
M 252.72 145.43 252.22 144.76 251.76 144.46 
M 251.95 164.8 252.48 164.47 253.16 163.63 253.6 162.67 253.6 162.07 253.16 161.11 252.56 160.37 
M 252.28 173.01 252.81 172.68 253.48 171.84 253.92 170.89 253.92 170.29 253.48 169.34 252.81 168.5 252.28 168.17 
M 253.69 111.81 254.27 111.58 255.03 110.99 255.51 110.31 255.51 109.89 254.7 108.96 
M 253.91 117.69 254.5 117.45 255.26 116.83 255.75 116.13 255.75 115.69 255.26 114.99 254.5 114.36 253.91 114.12 
M 253.91 123.88 254.49 123.62 255.23 122.97 255.71 122.23 255.71 121.77 255.23 121.02 254.49 120.37 253.91 120.11 
M 253.81 130.45 254.37 130.17 255.08 129.48 255.54 128.69 255.54 128.21 255.08 127.42 254.37 126.72 253.81 126.45 
M 253.72 137.43 254.25 137.14 254.94 136.4 255.38 135.56 255.38 135.04 254.94 134.21 254.25 133.47 253.72 133.18 
M 254.24 160.82 254.86 160.49 255.87 159.24 
M 256.14 114.58 256.64 114.34 257.27 113.73 257.68 113.05 257.68 112.62 257.27 111.93 256.64 111.33 256.14 111.09 
M 256.19 120.54 256.68 120.29 257.31 119.66 257.71 118.95 257.71 118.5 257.31 117.79 256.68 117.16 256.19 116.91 
M 255.78 133.43 256.22 133.16 256.78 132.45 257.15 131.66 257.15 131.16 256.78 130.37 256.22 129.66 255.78 129.39 
M 255.64 140.59 256.06 140.29 256.6 139.53 256.95 138.66 256.95 138.13 256.6 137.26 256.06 136.5 255.64 136.2 
M 256.94 180.63 257.44 180.32 258.08 179.54 258.49 178.65 258.49 178.1 258.08 177.21 257.44 176.43 256.94 176.12 
M 258.2 111.58 258.8 111.35 259.56 110.75 260.05 110.07 260.05 109.65 259.44 108.88 
M 258.43 117.44 259.03 117.2 259.79 116.58 260.28 115.88 260.28 115.45 259.79 114.76 259.03 114.14 258.43 113.9 
M 258.31 123.46 258.89 123.21 259.63 122.58 260.11 121.86 260.11 121.41 259.63 120.69 258.89 120.06 258.31 119.81 
M 257.57 136.46 258.09 136.18 258.75 135.45 259.18 134.63 259.18 134.12 258.75 133.3 258.09 132.57 257.57 132.29 
M 257.61 144.03 258.13 143.71 258.79 142.9 259.22 141.98 259.22 141.41 258.79 140.49 258.13 139.68 257.61 139.37 
M 260.7 114.38 261.2 114.14 261.84 113.53 262.25 112.84 262.25 112.42 261.84 111.73 261.2 111.12 260.7 110.89 
M 260.71 120.25 261.2 120.01 261.84 119.4 262.25 118.7 262.25 118.27 261.84 117.57 261.2 116.95 260.71 116.71 
M 260.32 126.23 260.79 125.98 261.4 125.35 261.79 124.64 261.79 124.2 261.4 123.49 260.79 122.85 260.32 122.61 
M 259.65 132.43 260.09 132.17 260.65 131.5 261.02 130.74 261.02 130.27 260.65 129.51 260.09 128.84 259.65 128.58 
M 262.78 111.4 263.38 111.17 264.15 110.57 264.65 109.89 264.65 109.46 264.23 108.88 
M 263.01 117.23 263.61 117 264.39 116.39 264.88 115.7 264.88 115.27 264.39 114.58 263.61 113.97 263.01 113.74 
M 262.76 123.08 263.35 122.84 264.11 122.23 264.59 121.53 264.59 121.1 264.11 120.41 263.35 119.8 262.76 119.56 
M 262.09 129.01 262.65 128.76 263.37 128.13 263.84 127.41 263.84 126.96 263.37 126.24 262.65 125.6 262.09 125.36 
M 265.33 114.25 265.84 114.01 266.49 113.4 266.91 112.72 266.91 112.29 266.49 111.6 265.84 111 265.33 110.76 
M 265.3 120.06 265.81 119.82 266.46 119.22 266.88 118.53 266.88 118.11 266.46 117.42 265.81 116.82 265.3 116.58 
M 264.71 125.78 265.2 125.55 265.84 124.95 266.24 124.26 266.24 123.84 265.84 123.16 265.2 122.55 264.71 122.32 
M 262.99 138.4 263.44 138.1 264.03 137.33 264.4 136.45 264.4 135.91 264.03 135.04 263.44 134.27 262.99 133.97 
M 267.45 111.32 268.06 111.08 268.84 110.48 269.35 109.8 269.35 109.37 268.99 108.89 
M 267.68 117.13 268.29 116.89 269.07 116.29 269.57 115.6 269.57 115.18 269.07 114.49 268.29 113.89 267.68 113.65 
M 267.35 122.87 267.96 122.64 268.73 122.04 269.24 121.36 269.24 120.94 268.73 120.26 267.96 119.65 267.35 119.42 
M 266.49 128.6 267.09 128.36 267.86 127.74 268.36 127.04 268.36 126.61 267.86 125.91 267.09 125.29 266.49 125.05 
M 270.05 114.21 270.56 113.97 271.22 113.37 271.64 112.68 271.64 112.25 271.22 111.57 270.56 110.96 270.05 110.72 
M 270.01 120 270.53 119.77 271.18 119.17 271.6 118.48 271.6 118.06 271.18 117.38 270.53 116.78 270.01 116.55 
M 269.36 125.65 269.88 125.42 270.54 124.83 270.96 124.15 270.96 123.73 270.54 123.06 269.88 122.46 269.36 122.23 
M 269.77 145.12 270 144.57 270 143.89 269.56 142.8 268.88 141.84 268.35 141.46 
M 271.38 165.27 271.89 164.93 272.56 164.07 272.98 163.09 272.98 162.49 272.56 161.51 271.89 160.65 271.38 160.31 
M 272.17 111.27 272.79 111.04 273.58 110.44 274.09 109.76 274.09 109.34 273.83 109.01 
M 272.38 117.08 272.99 116.84 273.77 116.24 274.28 115.55 274.28 115.13 273.77 114.44 272.99 113.84 272.38 113.6 
M 272.07 122.85 272.69 122.62 273.49 122.01 274 121.33 274 120.9 273.49 120.22 272.69 119.61 272.07 119.38 
M 271.28 128.65 271.93 128.41 272.76 127.78 273.29 127.07 273.29 126.64 272.76 125.93 271.93 125.31 271.28 125.06 
M 270.53 142.79 271.21 142.45 272.09 141.59 272.65 140.62 272.65 140.01 272.09 139.04 271.21 138.18 270.53 137.84 
M 273.32 161.07 273.94 160.71 274.75 159.79 275.26 158.76 275.26 158.12 274.75 157.08 273.94 156.17 273.32 155.81 
M 274.74 114.13 275.25 113.9 275.9 113.3 276.32 112.61 276.32 112.19 275.9 111.51 275.25 110.9 274.74 110.67 
M 274.71 119.96 275.22 119.73 275.87 119.12 276.29 118.43 276.29 118 275.87 117.31 275.22 116.71 274.71 116.47 
M 273.34 131.79 273.92 131.54 274.67 130.89 275.15 130.14 275.15 129.69 274.67 128.94 273.92 128.29 273.34 128.03 
M 272.79 138.7 273.41 138.4 274.2 137.63 274.71 136.75 274.71 136.21 274.2 135.33 273.41 134.56 272.79 134.25 
M 275.31 156.89 275.84 156.52 276.53 155.56 276.97 154.48 276.97 153.81 276.53 152.72 275.84 151.77 275.31 151.4 
M 276.13 165.25 276.64 164.92 277.31 164.06 277.73 163.09 277.73 162.48 277.31 161.51 276.64 160.65 276.13 160.32 
M 276.9 111.2 277.52 110.98 278.31 110.39 278.82 109.73 278.76 109.24 
M 277.05 116.99 277.66 116.76 278.44 116.15 278.94 115.46 278.94 115.04 278.44 114.35 277.66 113.74 277.05 113.51 
M 276.38 129.1 277.06 128.84 277.93 128.19 278.49 127.44 278.49 126.98 277.93 126.24 277.06 125.58 276.38 125.32 
M 275.91 135.76 276.65 135.48 277.59 134.75 278.2 133.93 278.2 133.42 277.59 132.6 276.65 131.87 275.91 131.59 
M 278.45 169.04 279.07 168.72 279.87 167.89 280.38 166.96 280.38 166.38 279.87 165.45 279.07 164.62 278.45 164.3 
M 279.38 113.98 279.88 113.75 280.53 113.16 280.95 112.48 280.95 112.07 280.53 111.4 279.88 110.8 279.38 110.57 
M 279.36 119.9 279.87 119.66 280.52 119.03 280.94 118.33 280.94 117.89 280.52 117.18 279.87 116.56 279.36 116.31 
M 279.15 126.11 279.69 125.86 280.39 125.2 280.84 124.46 280.84 124 280.39 123.25 279.69 122.6 279.15 122.34 
M 278.84 132.69 279.45 132.42 280.22 131.72 280.72 130.92 280.72 130.43 280.22 129.64 279.45 128.94 278.84 128.66 
M 278.68 139.87 279.33 139.57 280.16 138.79 280.69 137.91 280.69 137.37 280.16 136.49 279.33 135.71 278.68 135.4 
M 279.15 148.08 279.77 147.73 280.56 146.86 280.89 146.21 
M 280.9 144.92 280.56 144.25 279.77 143.38 279.15 143.03 
M 280.28 156.96 280.82 156.6 281.51 155.7 281.96 154.68 281.96 154.04 281.51 153.02 280.82 152.11 280.28 151.76 
M 281.66 111.15 282.29 110.93 283.09 110.37 283.61 109.73 283.61 109.48 
M 281.64 129.74 282.33 129.46 283.21 128.76 283.78 127.97 283.78 127.48 283.21 126.68 282.33 125.98 281.64 125.71 
M 281.6 136.79 282.35 136.5 283.3 135.75 283.91 134.9 283.91 134.38 283.3 133.53 282.35 132.77 281.6 132.48 
M 281.77 144.43 282.52 144.12 283.47 143.3 284.09 142.38 284.09 141.81 283.47 140.88 282.52 140.07 281.77 139.75 
M 283.22 169.05 283.84 168.73 284.64 167.9 285.15 166.97 285.15 166.4 284.64 165.46 283.84 164.64 283.22 164.32 
M 283.04 176.67 283.68 176.36 284.48 175.56 285 174.66 285 174.1 284.48 173.2 283.68 172.4 283.04 172.09 
M 284.05 113.86 284.57 113.64 285.23 113.06 285.66 112.4 285.66 111.99 285.23 111.33 284.57 110.75 284.05 110.53 
M 284.05 119.88 284.56 119.63 285.23 118.99 285.65 118.26 285.65 117.81 285.23 117.08 284.56 116.44 284.05 116.19 
M 284.18 126.52 284.73 126.25 285.43 125.55 285.88 124.75 285.88 124.26 285.43 123.46 284.73 122.76 284.18 122.49 
M 284.38 133.62 284.98 133.33 285.74 132.58 286.23 131.74 286.23 131.22 285.74 130.38 284.98 129.63 284.38 129.34 
M 284.52 141 285.14 140.69 285.94 139.91 286.45 139.03 286.45 138.48 285.94 137.6 285.14 136.82 284.52 136.52 
M 284.74 148.79 285.34 148.47 286.1 147.64 286.6 146.7 286.6 146.12 285.85 144.91 
M 285.78 144.83 285.34 144.36 284.74 144.03 
M 285.27 157.06 285.81 156.72 286.5 155.87 286.94 154.9 286.94 154.3 286.5 153.33 285.81 152.47 285.27 152.14 
M 285.58 172.93 286.1 172.61 286.77 171.81 287.2 170.89 287.2 170.33 286.77 169.41 286.1 168.6 285.58 168.29 
M 286.53 111.21 287.18 111 288.01 110.45 288.54 109.8 
M 286.47 116.92 287.1 116.68 287.91 116.06 288.44 115.37 288.44 114.94 287.91 114.25 287.1 113.64 286.47 113.4 
M 286.88 130.33 287.56 130.05 288.43 129.31 288.99 128.48 288.99 127.96 288.43 127.13 287.56 126.39 286.88 126.11 
M 287.14 137.64 287.85 137.34 288.76 136.58 289.34 135.71 289.34 135.17 288.76 134.3 287.85 133.54 287.14 133.24 
M 287.32 145.19 288.02 144.87 288.92 144.08 289.51 143.18 289.51 142.62 288.92 141.72 288.02 140.92 287.32 140.61 
M 287.99 169.05 288.61 168.73 289.4 167.91 289.92 166.98 289.92 166.41 289.4 165.48 288.61 164.66 287.99 164.34 
M 287.86 176.76 288.49 176.45 289.29 175.64 289.81 174.73 289.81 174.17 289.29 173.25 288.49 172.45 287.86 172.13 
M 288.9 113.92 289.44 113.7 290.13 113.13 290.57 112.49 290.57 112.09 290.13 111.44 289.44 110.87 288.9 110.65 
M 288.88 119.99 289.41 119.74 290.1 119.08 290.55 118.34 290.55 117.88 290.1 117.14 289.41 116.49 288.88 116.23 
M 289.71 134.27 290.28 133.97 291.01 133.21 291.48 132.34 291.48 131.8 291.01 130.94 290.28 130.17 289.71 129.87 
M 289.96 141.69 290.53 141.39 291.26 140.61 291.74 139.73 291.74 139.18 291.26 138.3 290.53 137.52 289.96 137.22 
M 290.35 172.95 290.86 172.63 291.52 171.82 291.95 170.9 291.95 170.33 291.52 169.41 290.86 168.6 290.35 168.28 
M 290.18 180.63 290.7 180.32 291.36 179.51 291.79 178.6 291.79 178.04 291.36 177.13 290.7 176.32 290.18 176.01 
M 291.56 111.46 292.23 111.25 293.09 110.72 293.62 110.13 
M 291.42 117.11 292.08 116.87 292.92 116.26 293.47 115.57 293.47 115.14 292.92 114.45 292.08 113.84 291.42 113.6 
M 291.59 123.61 292.25 123.34 293.09 122.65 293.64 121.86 293.64 121.38 293.09 120.59 292.25 119.9 291.59 119.63 
M 292.5 145.6 293.16 145.29 294.01 144.5 294.56 143.61 294.56 143.06 294.01 142.17 293.16 141.39 292.5 141.08 
M 292.59 153.29 293.23 152.97 294.06 152.16 294.59 151.25 294.59 150.68 294.06 149.77 293.23 148.96 292.59 148.64 
M 292.71 161.18 293.34 160.86 294.14 160.04 294.66 159.11 294.66 158.53 294.14 157.6 293.34 156.78 292.71 156.46 
M 292.74 169.04 293.36 168.72 294.16 167.91 294.67 166.98 294.67 166.41 294.16 165.48 293.36 164.67 292.74 164.35 
M 292.51 184.48 293.13 184.17 293.92 183.37 294.44 182.46 294.44 181.89 293.92 180.98 293.13 180.18 292.51 179.87 
M 293.98 114.24 294.54 114.02 295.26 113.45 295.73 112.82 295.73 112.42 295.26 111.78 294.54 111.22 293.98 111 
M 294.31 127.24 294.86 126.96 295.57 126.23 296.02 125.4 296.02 124.88 295.57 124.06 294.86 123.32 294.31 123.04 
M 294.99 141.96 295.53 141.66 296.22 140.89 296.66 140.01 296.66 139.47 296.22 138.59 295.53 137.82 294.99 137.52 
M 295.02 149.47 295.56 149.16 296.24 148.37 296.68 147.48 296.68 146.92 296.24 146.02 295.56 145.23 295.02 144.92 
M 294.91 180.62 295.42 180.3 296.08 179.5 296.5 178.58 296.5 178.02 296.08 177.1 295.42 176.29 294.91 175.98 
M 296.73 111.88 297.41 111.67 298.28 111.14 298.84 110.51 
M 296.56 117.5 297.24 117.26 298.11 116.65 298.67 115.97 298.67 115.54 298.11 114.85 297.24 114.25 296.56 114.01 
M 296.68 123.94 297.35 123.67 298.2 122.98 298.76 122.21 298.76 121.73 298.2 120.95 297.35 120.26 296.68 119.99 
M 297.33 138.33 297.97 138.03 298.79 137.26 299.32 136.4 299.32 135.86 298.79 135 297.97 134.23 297.33 133.94 
M 297.43 145.76 298.06 145.45 298.88 144.67 299.4 143.79 299.4 143.24 298.88 142.35 298.06 141.57 297.43 141.27 
M 299.22 114.74 299.79 114.52 300.52 113.96 300.99 113.32 300.99 112.92 300.52 112.28 299.79 111.72 299.22 111.5 
M 299.12 120.72 299.69 120.47 300.42 119.82 300.89 119.09 300.89 118.64 300.42 117.91 299.69 117.27 299.12 117.02 
M 299.37 127.51 299.92 127.23 300.62 126.51 301.08 125.7 301.08 125.2 300.62 124.39 299.92 123.68 299.37 123.4 
M 299.84 142.04 300.36 141.74 301.03 140.97 301.47 140.1 301.47 139.56 301.03 138.69 300.36 137.92 299.84 137.62 
M 301.92 112.34 302.59 112.13 303.44 111.59 304 110.89 
M 301.78 117.96 302.45 117.73 303.32 117.12 303.88 116.44 303.88 116.02 303.32 115.33 302.45 114.73 301.78 114.49 
M 301.81 124.28 302.48 124.02 303.33 123.35 303.88 122.59 303.88 122.12 303.33 121.35 302.48 120.68 301.81 120.42 
M 302.01 131.19 302.66 130.91 303.48 130.18 304.02 129.36 304.02 128.85 303.48 128.03 302.66 127.31 302.01 127.02 
M 304.43 115.23 304.99 115 305.7 114.43 306.16 113.79 306.16 113.39 305.7 112.74 304.99 112.17 304.43 111.95 
M 304.41 127.75 304.96 127.48 305.66 126.78 306.11 126 306.11 125.51 305.66 124.72 304.96 124.02 304.41 123.75 
M 304.56 134.79 305.09 134.5 305.77 133.77 306.2 132.93 306.2 132.41 305.77 131.58 305.09 130.84 304.56 130.55 
M 304.64 149.58 305.16 149.27 305.83 148.48 306.26 147.59 306.26 147.04 305.83 146.14 305.16 145.36 304.64 145.05 
M 304.65 157.29 305.16 156.98 305.83 156.17 306.25 155.25 306.25 154.68 305.83 153.77 305.16 152.96 304.65 152.64 
M 306.96 112.66 307.6 112.45 308.43 111.9 308.96 111.27 
M 306.89 118.33 307.54 118.09 308.38 117.49 308.92 116.81 308.92 116.38 308.38 115.7 307.54 115.09 306.89 114.86 
M 306.94 131.33 307.57 131.05 308.39 130.34 308.92 129.53 308.92 129.03 308.39 128.23 307.57 127.51 306.94 127.24 
M 307.03 153.44 307.65 153.12 308.44 152.33 308.96 151.42 308.96 150.86 308.44 149.96 307.65 149.16 307.03 148.85 
M 309.42 115.49 309.95 115.26 310.62 114.68 311.06 114.03 311.06 113.62 310.62 112.97 309.95 112.39 309.42 112.16 
M 309.38 121.45 309.91 121.2 310.6 120.57 311.04 119.85 311.04 119.41 310.6 118.69 309.91 118.06 309.38 117.81 
M 309.37 127.92 309.9 127.66 310.58 126.97 311.02 126.2 311.02 125.71 310.58 124.94 309.9 124.25 309.37 123.99 
M 309.4 134.84 309.92 134.56 310.59 133.83 311.02 133.01 311.02 132.49 310.59 131.67 309.92 130.94 309.4 130.66 
M 309.42 142.09 309.94 141.79 310.6 141.03 311.03 140.17 311.03 139.64 310.6 138.77 309.94 138.01 309.42 137.72 
M 309.42 149.59 309.94 149.28 310.6 148.5 311.03 147.61 311.03 147.05 310.6 146.16 309.94 145.38 309.42 145.07 
M 311.77 112.73 312.38 112.52 313.43 111.64 
M 311.78 118.48 312.4 118.24 313.2 117.63 313.71 116.94 313.71 116.51 313.2 115.82 312.4 115.21 311.78 114.98 
M 311.78 124.72 312.41 124.46 313.21 123.8 313.73 123.05 313.73 122.59 313.21 121.84 312.41 121.18 311.78 120.92 
M 311.78 131.41 312.41 131.13 313.21 130.42 313.73 129.63 313.73 129.13 313.21 128.33 312.41 127.63 311.78 127.35 
M 311.8 138.48 312.42 138.19 313.22 137.44 313.73 136.6 313.73 136.08 313.22 135.24 312.42 134.49 311.8 134.2 
M 311.8 145.85 312.42 145.54 313.22 144.77 313.73 143.9 313.73 143.35 313.22 142.48 312.42 141.7 311.8 141.4 
M 311.79 161.21 312.41 160.89 313.2 160.08 313.72 159.16 313.72 158.59 313.2 157.67 312.41 156.86 311.79 156.55 
M 314.13 115.46 314.63 115.23 315.27 114.65 315.69 113.98 315.69 113.57 315.27 112.91 314.63 112.32 314.13 112.09 
M 314.19 127.99 314.71 127.72 315.37 127.04 315.8 126.26 315.8 125.78 315.37 125.01 314.71 124.32 314.19 124.05 
M 314.19 134.87 314.7 134.59 315.37 133.86 315.8 133.04 315.8 132.53 315.37 131.71 314.7 130.98 314.19 130.7 
M 314.19 142.1 314.7 141.81 315.37 141.05 315.79 140.18 315.79 139.65 315.37 138.79 314.7 138.03 314.19 137.73 
M 314.19 149.6 314.7 149.3 315.37 148.51 315.79 147.62 315.79 147.07 315.37 146.18 314.7 145.39 314.19 145.09 
M 314.16 157.29 314.68 156.97 315.34 156.16 315.77 155.25 315.77 154.69 315.34 153.77 314.68 152.97 314.16 152.65 
M 314.17 165.13 314.69 164.81 315.35 164 315.78 163.07 315.78 162.5 315.35 161.57 314.69 160.76 314.17 160.44 
M 316.36 112.59 317.5 111.97 
M 316.44 118.4 317.04 118.16 317.81 117.55 318.31 116.85 318.31 116.42 317.81 115.72 317.04 115.1 316.44 114.86 
M 316.55 131.42 317.16 131.14 317.95 130.43 318.46 129.63 318.46 129.14 317.95 128.34 317.16 127.63 316.55 127.35 
M 316.56 138.48 317.17 138.19 317.97 137.45 318.48 136.61 318.48 136.08 317.97 135.24 317.17 134.5 316.56 134.21 
M 316.56 145.85 317.18 145.55 317.97 144.77 318.48 143.9 318.48 143.36 317.97 142.48 317.18 141.71 316.56 141.4 
M 316.55 153.45 317.17 153.14 317.97 152.34 318.48 151.44 318.48 150.88 317.97 149.98 317.17 149.18 316.55 148.87 
M 316.55 161.22 317.17 160.9 317.97 160.09 318.48 159.17 318.48 158.6 317.97 157.68 317.17 156.87 316.55 156.56 
M 316.52 169 317.14 168.69 317.93 167.89 318.44 166.98 318.44 166.42 317.93 165.51 317.14 164.7 316.52 164.39 
M 318.66 115.25 319.15 115.02 319.78 114.42 320.18 113.75 320.18 113.34 319.78 112.67 319.21 112.13 
M 318.8 121.4 319.3 121.14 319.93 120.5 320.35 119.76 320.35 119.31 319.93 118.57 319.3 117.92 318.8 117.67 
M 318.89 127.95 319.39 127.68 320.04 126.99 320.46 126.21 320.46 125.72 320.04 124.94 319.39 124.25 318.89 123.98 
M 318.92 134.86 319.44 134.58 320.09 133.85 320.51 133.02 320.51 132.51 320.09 131.69 319.44 130.96 318.92 130.68 
M 318.93 142.09 319.44 141.8 320.1 141.03 320.52 140.17 320.52 139.64 320.1 138.78 319.44 138.02 318.93 137.72 
M 318.94 149.6 319.45 149.3 320.11 148.51 320.53 147.62 320.53 147.06 320.11 146.17 319.45 145.39 318.94 145.08 
M 318.94 157.31 319.45 157 320.12 156.19 320.55 155.28 320.55 154.71 320.12 153.8 319.45 152.99 318.94 152.67 
M 318.94 165.14 319.45 164.82 320.12 164 320.54 163.08 320.54 162.51 320.12 161.59 319.45 160.78 318.94 160.46 
M 318.85 172.84 319.36 172.54 320.01 171.75 320.43 170.86 320.43 170.31 320.01 169.42 319.36 168.64 318.85 168.33 
M 320.87 112.34 320.88 112.34 
M 320.99 118.22 321.58 117.97 322.34 117.35 322.83 116.64 322.83 116.21 322.34 115.5 321.58 114.88 320.99 114.64 
M 321.14 124.6 321.74 124.34 322.51 123.66 323 122.9 323 122.43 322.51 121.67 321.74 120.99 321.14 120.73 
M 321.23 131.36 321.84 131.08 322.61 130.37 323.12 129.56 323.12 129.06 322.61 128.26 321.84 127.54 321.23 127.27 
M 321.28 145.82 321.89 145.51 322.67 144.74 323.18 143.86 323.18 143.32 322.67 142.44 321.89 141.66 321.28 141.36 
M 323.16 115 323.65 114.77 324.27 114.17 324.68 113.5 324.68 113.08 324.49 112.78 
M 323.51 127.83 324.01 127.56 324.65 126.86 325.06 126.07 325.06 125.59 324.65 124.8 324.01 124.1 323.51 123.83 
M 323.59 134.78 324.1 134.5 324.75 133.76 325.16 132.94 325.16 132.42 324.75 131.6 324.1 130.87 323.59 130.58 
M 325.49 117.97 326.08 117.73 326.83 117.1 327.31 116.39 327.31 115.95 326.83 115.24 326.08 114.61 325.49 114.36 
M 325.7 124.42 326.29 124.15 327.05 123.47 327.54 122.71 327.54 122.23 327.05 121.46 326.29 120.78 325.7 120.52 
M 325.85 131.23 326.45 130.95 327.22 130.24 327.72 129.42 327.72 128.92 327.22 128.11 326.45 127.39 325.85 127.11 
M 325.92 138.34 326.53 138.05 327.3 137.3 327.8 136.46 327.8 135.93 327.3 135.08 326.53 134.34 325.92 134.04 
M 325.98 153.38 326.59 153.07 327.37 152.27 327.87 151.36 327.87 150.8 327.37 149.89 326.59 149.09 325.98 148.78 
M 325.85 168.75 326.45 168.45 327.21 167.67 327.7 166.78 327.7 166.24 327.21 165.36 326.45 164.58 325.85 164.27 
M 327.61 114.69 328.09 114.46 329.02 113.33 
M 328.08 127.66 328.57 127.38 329.2 126.68 329.61 125.88 329.61 125.39 329.2 124.59 328.57 123.89 328.08 123.61 
M 328.27 149.44 328.77 149.13 329.42 148.33 329.83 147.44 329.83 146.88 329.42 145.98 328.77 145.19 328.27 144.88 
M 327.93 172.29 328.41 172 329.02 171.25 329.42 170.4 329.42 169.88 329.02 169.04 328.41 168.29 327.93 168 
M 329.93 117.65 330.5 117.41 331.24 116.77 331.72 116.06 331.72 115.62 331.24 114.9 330.5 114.27 329.93 114.02 
M 330.2 124.18 330.78 123.91 331.53 123.22 332.01 122.44 332.01 121.96 331.53 121.18 330.78 120.5 330.2 120.23 
M 330.42 131.07 331.02 130.78 331.78 130.06 332.27 129.24 332.27 128.73 331.78 127.91 331.02 127.19 330.42 126.91 
M 330.57 145.6 331.18 145.3 331.95 144.52 332.44 143.64 332.44 143.1 331.95 142.22 331.18 141.44 330.57 141.14 
M 330.61 153.24 331.21 152.93 331.98 152.13 332.47 151.23 332.47 150.67 331.98 149.76 331.21 148.96 330.61 148.65 
M 330.34 168.43 330.92 168.14 331.66 167.37 332.14 166.51 332.14 165.97 331.66 165.11 330.92 164.34 330.34 164.04 
M 331.99 114.31 332.71 113.83 
M 332.27 120.64 332.74 120.38 333.36 119.71 333.75 118.95 333.75 118.49 333.36 117.73 332.74 117.06 332.27 116.8 
M 332.59 127.43 333.07 127.16 333.7 126.44 334.1 125.63 334.1 125.13 333.7 124.32 333.07 123.61 332.59 123.33 
M 332.88 149.28 333.38 148.97 334.02 148.18 334.43 147.29 334.43 146.73 334.02 145.84 333.38 145.05 332.88 144.74 
M 332.84 164.68 333.32 164.37 333.94 163.59 334.34 162.7 334.34 162.15 333.94 161.26 333.32 160.48 332.84 160.17 
M 332.26 171.8 332.73 171.52 333.33 170.79 333.71 169.97 333.71 169.46 333.33 168.63 332.73 167.9 332.26 167.62 
M 334.28 117.25 334.85 117 335.58 116.37 336.04 115.65 336.04 115.21 335.25 114.2 
M 334.62 123.86 335.19 123.59 335.92 122.89 336.4 122.1 336.4 121.61 335.92 120.83 335.19 120.13 334.62 119.86 
M 334.95 130.85 335.53 130.57 336.28 129.84 336.77 129.01 336.77 128.49 336.28 127.66 335.53 126.93 334.95 126.64 
M 334.7 167.98 335.26 167.69 335.99 166.94 336.45 166.09 336.45 165.57 335.99 164.72 335.26 163.97 334.7 163.68 
M 336.59 120.22 337.06 119.96 337.66 119.28 338.05 118.52 338.05 118.04 337.66 117.28 337.06 116.6 336.59 116.34 
M 337.02 127.14 337.5 126.86 338.11 126.13 338.5 125.31 338.5 124.8 338.11 123.97 337.5 123.25 337.02 122.96 
M 337.36 134.33 337.85 134.04 338.48 133.29 338.88 132.44 338.88 131.91 338.48 131.06 337.85 130.31 337.36 130.01 
M 337.48 141.62 337.98 141.32 338.61 140.56 339.02 139.69 339.02 139.16 338.61 138.29 337.98 137.53 337.48 137.23 
M 337.42 156.72 337.9 156.41 338.52 155.62 338.92 154.72 338.92 154.16 338.52 153.26 337.9 152.47 337.42 152.16 
M 336.48 171.2 336.94 170.93 337.53 170.22 337.91 169.41 337.91 168.91 337.53 168.1 336.94 167.39 336.48 167.11 
M 334.07 182.7 334.56 181.74 334.56 181.25 334.2 180.46 333.65 179.76 333.21 179.49 
M 338.56 116.76 339.12 116.51 339.83 115.88 340.29 114.94 
M 338.95 123.45 339.51 123.17 340.23 122.47 340.69 121.67 340.69 121.18 340.23 120.38 339.51 119.67 338.95 119.4 
M 339.38 130.56 339.95 130.27 340.69 129.52 341.16 128.68 341.16 128.16 340.69 127.32 339.95 126.57 339.38 126.28 
M 339.66 137.83 340.24 137.54 340.98 136.78 341.46 135.92 341.46 135.38 340.98 134.52 340.24 133.76 339.66 133.47 
M 339.7 145.19 340.28 144.89 341.03 144.12 341.51 143.24 341.51 142.7 341.03 141.83 340.28 141.05 339.7 140.75 
M 339.64 152.71 340.21 152.4 340.95 151.61 341.43 150.73 341.43 150.18 340.95 149.29 340.21 148.5 339.64 148.19 
M 337.73 173.92 338.28 173.65 338.97 172.97 339.42 172.19 339.42 171.71 338.97 170.94 338.28 170.25 337.73 169.99 
M 340.83 119.7 341.29 119.44 341.88 118.76 342.26 117.99 342.26 117.51 341.88 116.74 341.29 116.06 340.83 115.79 
M 341.34 126.73 341.81 126.44 342.41 125.71 342.79 124.87 342.79 124.35 342.41 123.52 341.81 122.78 341.34 122.49 
M 341.97 141.35 342.45 141.05 343.07 140.29 343.46 139.42 343.46 138.89 343.07 138.02 342.45 137.25 341.97 136.96 
M 341.9 148.74 342.37 148.43 342.98 147.66 343.38 146.78 343.38 146.23 342.98 145.35 342.37 144.57 341.9 144.27 
M 341.79 156.3 342.26 155.99 342.86 155.21 343.25 154.32 343.25 153.77 342.86 152.88 342.26 152.1 341.79 151.79 
M 338.92 176.55 339.37 176.3 339.94 175.64 340.31 174.9 340.31 174.44 339.94 173.69 339.37 173.04 338.92 172.78 
M 342.75 116.18 343.3 115.94 343.82 115.46 
M 343.17 122.92 343.72 122.64 344.42 121.93 344.87 121.13 344.87 120.63 344.42 119.82 343.72 119.11 343.17 118.83 
M 343.69 130.12 344.24 129.83 344.95 129.07 345.41 128.22 345.41 127.69 344.95 126.84 344.24 126.09 343.69 125.8 
M 344.03 137.45 344.59 137.16 345.3 136.39 345.77 135.53 345.77 134.99 345.3 134.12 344.59 133.36 344.03 133.06 
M 344.08 144.8 344.64 144.5 345.35 143.73 345.81 142.86 345.81 142.32 345.35 141.44 344.64 140.67 344.08 140.37 
M 343.97 152.26 344.53 151.95 345.24 151.17 345.69 150.29 345.69 149.75 345.24 148.86 344.53 148.08 343.97 147.78 
M 344.97 119.08 345.42 118.82 346 118.13 346.38 117.36 346.38 116.88 345.69 115.74 
M 345.53 126.17 345.98 125.88 346.56 125.13 346.94 124.29 346.94 123.77 346.56 122.92 345.98 122.18 345.53 121.89 
M 346.07 133.55 346.52 133.25 347.1 132.48 347.48 131.61 347.48 131.08 347.1 130.21 346.52 129.44 346.07 129.14 
M 346.27 140.89 346.73 140.59 347.31 139.82 347.68 138.95 347.68 138.42 347.31 137.55 346.73 136.78 346.27 136.49 
M 346.17 148.23 346.62 147.93 347.2 147.16 347.57 146.28 347.57 145.74 347.2 144.86 346.62 144.08 346.17 143.78 
M 346.03 155.76 346.48 155.46 347.06 154.68 347.43 153.79 347.43 153.25 347.06 152.36 346.48 151.58 346.03 151.28 
M 347.28 122.26 347.82 121.98 348.51 121.27 348.95 120.46 348.95 119.97 348.51 119.16 347.82 118.45 347.28 118.17 
M 347.8 129.47 348.33 129.17 349.02 128.42 349.46 127.57 349.46 127.04 349.02 126.19 348.33 125.43 347.8 125.14 
M 348.16 136.81 348.69 136.51 349.36 135.75 349.8 134.88 349.8 134.35 349.36 133.48 348.69 132.72 348.16 132.42 
M 348.19 144.14 348.72 143.84 349.4 143.07 349.83 142.2 349.83 141.67 349.4 140.79 348.72 140.03 348.19 139.73 
M 348.06 151.56 348.58 151.26 349.25 150.49 349.68 149.61 349.68 149.06 349.25 148.18 348.58 147.41 348.06 147.11 
M 349.05 118.38 349.5 118.11 350.08 117.44 350.45 116.44 
M 349.56 125.41 350 125.12 350.56 124.38 350.92 123.54 350.92 123.02 350.56 122.18 350 121.45 349.56 121.16 
M 350.06 132.75 350.49 132.45 351.04 131.69 351.39 130.83 351.39 130.29 351.04 129.43 350.49 128.67 350.06 128.37 
M 350.24 140.07 350.66 139.77 351.21 139.01 351.56 138.15 351.56 137.61 351.21 136.75 350.66 135.98 350.24 135.69 
M 350.1 147.38 350.52 147.08 351.07 146.31 351.41 145.44 351.41 144.9 351.07 144.02 350.52 143.25 350.1 142.95 
M 349.93 154.88 350.35 154.58 350.89 153.8 351.23 152.92 351.23 152.37 350.89 151.49 350.35 150.72 349.93 150.41 
M 351.29 121.47 351.83 121.2 352.51 120.5 352.95 119.7 352.95 119.21 352.51 118.42 351.83 117.72 351.29 117.45 
M 351.94 143.09 352.44 142.8 353.07 142.03 353.48 141.17 353.48 140.64 353.07 139.77 352.44 139.01 351.94 138.71 
M 351.75 150.46 352.24 150.16 352.87 149.39 353.27 148.52 353.27 147.98 352.87 147.1 352.24 146.34 351.75 146.04 
M 351.41 157.81 351.89 157.52 352.51 156.76 352.91 155.89 352.91 155.36 352.51 154.5 351.89 153.74 351.41 153.44 
M 353.45 124.46 353.88 124.18 354.43 123.46 354.79 122.65 354.79 122.14 354.43 121.33 353.88 120.61 353.45 120.33 
M 353.81 138.84 354.22 138.54 354.73 137.79 355.07 136.93 355.07 136.41 354.73 135.55 354.22 134.8 353.81 134.51 
M 353.62 146.09 354.02 145.79 354.53 145.03 354.86 144.17 354.86 143.63 354.53 142.77 354.02 142.01 353.62 141.71 
M 353.34 153.47 353.74 153.17 354.24 152.41 354.56 151.54 354.56 151 354.24 150.13 353.74 149.37 353.34 149.07 
M 352.84 160.7 353.22 160.41 353.72 159.66 354.04 158.81 354.04 158.29 353.72 157.44 353.22 156.69 352.84 156.4 
M 351.97 167.62 352.36 167.34 352.85 166.61 353.17 165.79 353.17 165.29 352.85 164.47 352.36 163.75 351.97 163.46 
M 355.27 120.61 355.8 120.35 356.48 119.67 356.92 118.9 356.92 118.42 356.07 117.24 
M 355.44 127.45 355.95 127.17 356.6 126.45 357.02 125.64 357.02 125.14 356.6 124.33 355.95 123.61 355.44 123.33 
M 355.5 134.52 355.99 134.23 356.61 133.49 357.02 132.66 357.02 132.14 356.61 131.3 355.99 130.56 355.5 130.27 
M 355.37 141.7 355.85 141.41 356.46 140.66 356.86 139.81 356.86 139.28 356.46 138.43 355.85 137.68 355.37 137.38 
M 355.07 148.96 355.55 148.66 356.15 147.9 356.54 147.05 356.54 146.51 356.15 145.66 355.55 144.9 355.07 144.6 
M 354.61 156.19 355.07 155.9 355.66 155.14 356.05 154.29 356.05 153.76 355.66 152.91 355.07 152.16 354.61 151.86 
M 353.9 163.28 354.36 162.99 354.95 162.25 355.34 161.41 355.34 160.89 354.95 160.04 354.36 159.3 353.9 159.01 
M 357.3 123.44 357.73 123.17 358.29 122.49 358.64 121.71 358.64 121.23 358.29 120.45 357.73 119.76 357.3 119.49 
M 357.29 130.29 357.7 130.01 358.22 129.29 358.56 128.48 358.56 127.97 358.22 127.16 357.7 126.44 357.29 126.16 
M 357.16 137.35 357.56 137.06 358.07 136.32 358.4 135.48 358.4 134.96 358.07 134.13 357.56 133.39 357.16 133.1 
M 356.89 144.53 357.28 144.24 357.79 143.49 358.11 142.64 358.11 142.11 357.79 141.26 357.28 140.51 356.89 140.22 
M 356.45 151.74 356.84 151.44 357.33 150.69 357.65 149.84 357.65 149.31 357.33 148.46 356.84 147.71 356.45 147.42 
M 355.8 158.85 356.18 158.56 356.67 157.82 356.98 156.97 356.98 156.45 356.67 155.61 356.18 154.86 355.8 154.57 
M 359.18 126.33 359.7 126.06 360.36 125.37 360.79 124.59 360.79 124.11 360.36 123.33 359.7 122.64 359.18 122.37 
M 358.73 140.23 359.21 139.94 359.84 139.2 360.24 138.37 360.24 137.85 359.84 137.01 359.21 136.28 358.73 135.99 
M 358.32 147.37 358.8 147.08 359.41 146.33 359.81 145.49 359.81 144.97 359.41 144.13 358.8 143.38 358.32 143.09 
M 357.7 154.46 358.17 154.17 358.78 153.43 359.17 152.59 359.17 152.06 358.78 151.22 358.17 150.48 357.7 150.19 
M 356.97 161.61 357.44 161.31 358.05 160.55 358.44 159.68 358.44 159.15 358.05 158.29 357.44 157.53 356.97 157.23 
M 356.53 169.15 357.03 168.83 357.66 168.03 358.07 167.13 358.07 166.57 357.66 165.66 357.03 164.86 356.53 164.55 
M 361.24 122.53 361.68 122.27 362.26 121.61 362.63 120.86 362.63 120.4 362.26 119.66 361.68 119 361.24 118.74 
M 360.92 129.07 361.35 128.8 361.9 128.1 362.25 127.32 362.25 126.83 361.9 126.05 361.35 125.36 360.92 125.09 
M 360.6 135.96 361.02 135.68 361.55 134.95 361.9 134.13 361.9 133.62 361.55 132.8 361.02 132.08 360.6 131.79 
M 360.26 143.08 360.68 142.8 361.21 142.06 361.55 141.22 361.55 140.7 361.21 139.86 360.68 139.12 360.26 138.84 
M 359.67 150.12 360.08 149.84 360.6 149.1 360.93 148.26 360.93 147.75 360.6 146.91 360.08 146.18 359.67 145.89 
M 358.89 157.14 359.29 156.85 359.8 156.11 360.13 155.27 360.13 154.75 359.8 153.9 359.29 153.16 358.89 152.87 
M 358.38 172.71 358.82 172.38 359.38 171.52 359.75 170.55 359.75 169.95 359.38 168.97 358.82 168.11 358.38 167.78 
M 363.43 119.11 363.99 118.86 364.53 118.37 
M 363.12 125.43 363.66 125.17 364.36 124.5 364.81 123.74 364.81 123.27 364.36 122.52 363.66 121.85 363.12 121.59 
M 362.73 132.08 363.27 131.81 363.95 131.11 364.39 130.31 364.39 129.82 363.95 129.02 363.27 128.31 362.73 128.04 
M 361.87 146.11 362.4 145.83 363.07 145.09 363.5 144.26 363.5 143.75 363.07 142.91 362.4 142.18 361.87 141.89 
M 361.15 153.11 361.67 152.82 362.33 152.08 362.76 151.25 362.76 150.73 362.33 149.89 361.67 149.16 361.15 148.87 
M 360.41 160.3 360.92 160 361.59 159.22 362.01 158.34 362.01 157.8 361.59 156.92 360.92 156.14 360.41 155.84 
M 360.25 168.21 360.79 167.88 361.47 167.04 361.91 166.09 361.91 165.49 361.47 164.54 360.79 163.7 360.25 163.37 
M 365.4 121.88 365.87 121.63 366.48 120.98 366.88 120.25 366.88 119.8 366.01 118.57 
M 364.92 128.25 365.38 127.98 365.98 127.31 366.37 126.54 366.37 126.06 365.98 125.29 365.38 124.61 364.92 124.35 
M 364.49 135.06 364.95 134.78 365.55 134.06 365.93 133.25 365.93 132.74 365.55 131.93 364.95 131.21 364.49 130.93 
M 364.12 142.15 364.58 141.86 365.17 141.13 365.55 140.3 365.55 139.78 365.17 138.95 364.58 138.22 364.12 137.93 
M 363.45 149.1 363.9 148.82 364.49 148.09 364.87 147.26 364.87 146.75 364.49 145.92 363.9 145.19 363.45 144.91 
M 362.49 172.16 362.96 171.81 363.56 170.92 363.95 169.9 363.95 169.27 363.56 168.25 362.96 167.35 362.49 167 
M 366.96 131.53 367.55 131.25 368.3 130.56 368.79 129.76 368.79 129.28 368.3 128.48 367.55 127.79 366.96 127.51 
M 366.56 138.48 367.15 138.19 367.9 137.47 368.39 136.64 368.39 136.14 367.9 135.31 367.15 134.59 366.56 134.3 
M 365.28 152.46 365.87 152.18 366.62 151.44 367.11 150.61 367.11 150.09 366.62 149.25 365.87 148.52 365.28 148.23 
M 369.43 128 369.95 127.73 370.61 127.05 371.04 126.29 371.04 125.81 370.61 125.04 369.95 124.37 369.43 124.1 
M 369 134.8 369.51 134.52 370.18 133.8 370.61 132.99 370.61 132.49 370.18 131.67 369.51 130.95 369 130.67 
M 368.63 141.9 369.15 141.61 369.81 140.88 370.24 140.04 370.24 139.53 369.81 138.7 369.15 137.97 368.63 137.68 
M 366.48 163.27 367 162.95 367.68 162.14 368.11 161.21 368.11 160.63 367.68 159.71 367 158.89 366.48 158.57 
M 372.18 124.94 372.83 124.69 373.66 124.03 374.2 123.28 374.2 122.82 373.66 122.07 372.83 121.41 372.18 121.15 
M 371.32 138.49 371.97 138.2 372.8 137.47 373.34 136.65 373.34 136.14 372.8 135.32 371.97 134.59 371.32 134.31 
M 370.81 145.53 371.47 145.24 372.3 144.51 372.84 143.67 372.84 143.16 372.3 142.33 371.47 141.6 370.81 141.31 
M 369.35 159.73 370.01 159.42 370.86 158.64 371.41 157.76 371.41 157.21 370.86 156.33 370.01 155.55 369.35 155.25 
M 374.93 121.89 375.5 121.64 376.22 121 376.69 120.16 
M 374.43 128.25 374.99 127.98 375.71 127.31 376.18 126.54 376.18 126.06 375.71 125.3 374.99 124.62 374.43 124.36 
M 374.01 135.06 374.57 134.78 375.29 134.06 375.75 133.25 375.75 132.74 375.29 131.93 374.57 131.21 374.01 130.93 
M 373.65 142.18 374.22 141.89 374.94 141.15 375.41 140.32 375.41 139.8 374.94 138.97 374.22 138.23 373.65 137.95 
M 374.36 178.07 373.92 176.83 373.23 175.97 372.69 175.63 
M 376.49 138.92 377.18 138.63 378.06 137.9 378.63 137.08 378.63 136.57 378.06 135.74 377.18 135.01 376.49 134.73 
M 375.33 153.04 376.03 152.75 376.93 152 377.52 151.16 377.52 150.64 376.93 149.8 376.03 149.06 375.33 148.77 
M 380.26 122.47 380.85 122.22 381.86 121.2 
M 379.74 128.81 380.32 128.55 381.07 127.87 381.55 127.11 381.55 126.63 381.07 125.86 380.32 125.19 379.74 124.92 
M 379.32 135.64 379.9 135.36 380.64 134.64 381.13 133.82 381.13 133.31 380.64 132.5 379.9 131.78 379.32 131.5 
M 378.99 142.79 379.57 142.5 380.32 141.76 380.81 140.92 380.81 140.4 380.32 139.56 379.57 138.82 378.99 138.53 
M 378.41 149.85 379 149.56 379.76 148.82 380.25 147.98 380.25 147.46 379.76 146.62 379 145.88 378.41 145.59 
M 377.68 156.93 378.28 156.64 379.05 155.89 379.55 155.04 379.55 154.51 379.05 153.66 378.28 152.91 377.68 152.62 
M 382.69 125.95 383.38 125.69 384.28 125.04 384.85 124.3 384.85 123.84 384.28 123.1 383.38 122.44 382.69 122.19 
M 382.2 132.52 382.89 132.25 383.78 131.55 384.35 130.76 384.35 130.27 383.78 129.48 382.89 128.78 382.2 128.51 
M 381.83 139.52 382.52 139.24 383.41 138.5 383.98 137.67 383.98 137.16 383.41 136.33 382.52 135.6 381.83 135.31 
M 381.4 146.65 382.1 146.36 383 145.62 383.57 144.78 383.57 144.26 383 143.42 382.1 142.67 381.4 142.38 
M 385.66 123.1 386.24 122.86 386.93 122.27 
M 384.35 143.42 384.93 143.13 385.66 142.39 386.14 141.55 386.14 141.02 385.66 140.18 384.93 139.43 384.35 139.14 
M 383.84 150.56 384.42 150.27 385.17 149.52 385.65 148.67 385.65 148.15 385.17 147.3 384.42 146.56 383.84 146.27 
M 387.97 126.47 388.64 126.22 389.51 125.57 390.07 124.83 390.07 124.38 389.51 123.65 388.64 123 387.97 122.74 
M 387.07 140.03 387.74 139.74 388.59 139.01 389.14 138.17 389.14 137.66 388.59 136.83 387.74 136.09 387.07 135.81 
M 386.14 154.4 386.82 154.1 387.69 153.35 388.26 152.49 388.26 151.97 387.69 151.11 386.82 150.36 386.14 150.06 
M 386.77 176.31 387.44 175.27 387.44 174.69 386.89 173.76 386.02 172.94 385.35 172.61 
M 390.89 123.56 391.33 123.38 
M 389.05 151.04 389.59 150.74 390.29 149.99 390.74 149.14 390.74 148.61 390.29 147.75 389.59 147 389.05 146.71 
M 387.86 173.59 388.42 173.27 389.14 172.44 389.6 171.51 389.6 170.94 389.14 170 388.42 169.18 387.86 168.86 
M 393 126.73 393.64 126.48 394.46 125.84 394.98 125.12 394.98 124.67 394.81 124.44 
M 392.4 133.22 393.03 132.95 393.83 132.26 394.35 131.47 394.35 130.99 393.83 130.2 393.03 129.51 392.4 129.24 
M 390.39 169.76 391.05 169.45 391.88 168.64 392.42 167.72 392.42 167.16 391.88 166.24 391.05 165.43 390.39 165.12 
M 392.45 175.25 391.92 174.11 391.08 173.29 390.43 172.97 
M 395.06 129.84 395.56 129.59 396.21 128.93 396.63 128.18 396.63 127.72 396.21 126.97 395.56 126.31 395.06 126.05 
M 394.54 136.62 395.04 136.34 395.68 135.62 396.09 134.8 396.09 134.3 395.68 133.48 395.04 132.76 394.54 132.48 
M 393.37 158.44 393.89 158.14 394.56 157.37 394.99 156.5 394.99 155.97 394.56 155.1 393.89 154.33 393.37 154.03 
M 392.86 173.83 393.38 173.51 394.06 172.69 394.5 171.75 394.5 171.18 394.06 170.24 393.38 169.42 392.86 169.1 
M 397.7 126.64 398.29 126.4 399.06 125.75 
M 397.01 133.06 397.6 132.79 398.35 132.1 398.83 131.32 398.83 130.84 398.35 130.06 397.6 129.37 397.01 129.1 
M 395.93 154.73 396.53 154.43 397.31 153.66 397.81 152.79 397.81 152.25 397.31 151.38 396.53 150.61 395.93 150.31 
M 396.75 174.31 395.9 173.39 395.28 173.07 
M 399.51 129.51 399.98 129.25 400.59 128.6 400.98 127.86 400.98 127.4 400.59 126.66 400 126.03 
M 398.95 136.26 399.42 135.98 400.02 135.26 400.41 134.44 400.41 133.94 400.02 133.12 399.42 132.4 398.95 132.12 
M 397.64 165.91 398.14 165.59 398.8 164.8 399.22 163.89 399.22 163.33 398.8 162.43 398.14 161.63 397.64 161.32 
M 397.58 173.79 398.08 173.47 398.73 172.65 399.15 171.72 399.15 171.14 398.73 170.21 398.08 169.39 397.58 169.07 
M 401.32 132.6 401.88 132.33 402.37 131.87 
M 402.37 129.38 401.88 128.92 401.32 128.65 
M 400.13 162.07 400.74 161.76 401.51 160.97 402.01 160.07 402.01 159.52 401.51 158.62 400.74 157.83 400.13 157.52 
M 399.9 169.76 400.51 169.45 401.29 168.64 401.79 167.72 401.79 167.16 401.29 166.24 400.51 165.43 399.9 165.12 
M 188.74 109.66 190.39 107.77 191.96 105.05 193.33 102.43 194.41 99.67 195.42 96.32 196.75 89.45 197.59 86.36 199.34 83.65 201.51 81.11 202.63 78.75 204.31 76.04 206.42 71.93 209.24 67.98 212.3 64.52 215.19 61.8 220.39 59.91 222.6 57.02 225.23 54.99 227.02 53.14 230.87 47.96 233.65 45.73 235.42 42.21 237.93 39.81 241.03 40.07 240.47 43.23 241.2 46.32 242.51 49.99 242.74 52.3 243.89 55.47 244.51 57.81 246.74 63.84 247.31 66.11 252.41 74.59 253.55 76.73 254.77 79.65 258.56 85.38 258.92 88.07 260.86 90.87 262.49 92.74 264.95 95.15 267.72 97.5 270.3 98.62 273.45 100.53 276.2 106.14 277.09 107.51 280.27 109.31 
M 283.23 109.45 283.23 109.45 
M 193.83 109.46 195.77 107.46 196.85 104.92 197.87 101.95 198.64 99.03 198.98 95.61 199.77 92.05 201.02 89.06 202.57 86.55 204.75 84.21 208.18 78.01 209.94 75.38 211.69 72.19 212.89 69.2 215.33 66.35 220.61 63.71 223.24 62.66 225.23 59.76 227.82 56.83 229.61 54.22 
M 198.92 109.26 200.42 107.39 202.55 98.61 203.95 94.98 205.3 92.6 206.96 90.41 208.56 87.89 212 80.81 213.13 78.01 213.81 75.79 215.86 73.67 216.89 70.98 219.91 68.91 222.17 67.06 224.25 65.62 
M 204.01 109.13 205.19 106.94 209.87 95.24 211.11 92.59 212.89 91.14 213.24 87.9 215.07 84.76 215.85 81.55 215.98 79.25 218.05 76.22 223.1 71.83 226.4 70.79 228.64 68.01 231.38 65.5 233.68 63.73 
M 209.1 109.04 210.77 106.65 211.63 103.36 213.14 100.02 213.83 97.24 215.33 92.79 215.66 90.24 216.9 87.79 219.04 81.43 221.74 79.48 226.02 74.86 232.01 69.89 
M 214.19 108.97 215.83 106.4 218.33 100.02 219.01 97.51 219.6 93.12 220.67 90.78 221.39 87.65 223.52 84.82 226.61 83.2 228.79 80.59 231.52 77.98 
M 219.29 108.93 220.98 106.81 222.13 103.77 223.39 101.53 224.59 98.31 224.44 93.04 225.51 90.42 228.09 88.37 230.57 86.11 236.29 81.99 
M 224.38 108.9 226.12 107.15 227.13 104.45 227.46 101.87 228.54 99.23 231.2 90.96 234.11 88.05 
M 229.47 108.95 230.62 107.17 232.96 98.92 234.91 95.59 236.5 93.66 239.17 91.23 242.09 85.98 243.39 84.67 246.17 83.03 
M 234.56 109 235.58 107.94 235.99 105.17 237.45 102.04 238.61 98.71 240.46 95.94 242.98 94.12 245.46 92.03 247.05 88.87 248.04 86.38 249.37 84.87 
M 239.66 109.04 240.77 107.37 241.81 104.16 242.28 100.83 243.95 97.45 
M 244.75 109.07 246.43 107.13 246.94 103.96 247.64 101.86 249.63 99.58 251.36 98.27 252.34 96.03 
M 249.84 109.06 251.96 104.83 253.21 102.98 
M 254.93 108.96 255.49 107.44 257.19 105.81 258.97 102.92 261.4 99.74 263.48 97.73 
M 260.02 108.87 261.59 107.49 262.9 104.78 
M 265.12 108.88 267.42 107.79 269.47 105.41 
M 270.21 108.89 273.36 108.31 
M 275.3 109.08 275.3 109.08 
M 280.39 109.32 280.39 109.32 
M 125.95 145.86 303.95 143.29 303.97 144.31 126.03 149.52 
M 126.07 149.93 279.75 157.19 279.71 158.2 125.92 153.6 
M 126.18 154.01 255.1 168.15 255 169.16 125.81 157.66 
M 126.29 158.1 230.27 176.17 230.11 177.17 125.7 161.72 
M 126.39 162.2 205.52 181.24 205.3 182.23 125.59 165.78 
M 126.5 166.3 181.12 183.4 180.84 184.38 125.49 169.82 
M 126.61 170.41 157.32 182.7 156.98 183.66 125.38 173.86 
M 129.53 175.15 134.39 178.12 133.99 179.06 125.28 176.8 
M 286.18 144.83 280.72 146.26 278.08 147.15 275.55 148.23 273.13 149.52 270.82 151.03 268.61 152.72 264.38 156.46 
M 264.33 157.74 258.93 158.53 256.3 159.11 253.75 159.88 251.29 160.88 248.92 162.11 246.63 163.53 242.21 166.74 
M 242.08 168.01 236.79 168.17 234.2 168.43 231.66 168.91 229.19 169.61 226.79 170.55 224.45 171.69 219.87 174.36 
M 219.67 175.63 214.55 175.16 212.02 175.12 209.53 175.3 207.08 175.71 204.67 176.36 202.3 177.22 197.61 179.33 
M 197.33 180.59 192.45 179.52 190.02 179.19 187.6 179.07 185.19 179.2 182.79 179.56 180.41 180.14 175.66 181.69 
M 175.3 182.92 170.72 181.3 168.41 180.68 166.08 180.28 163.75 180.12 161.39 180.2 159.02 180.49 154.25 181.47 
M 153.82 182.68 149.65 180.29 147.51 179.29 145.33 178.5 143.08 177.94 140.78 177.62 138.43 177.5 133.62 177.65 
M 283.43 145.51 278.08 147.15 275.55 148.23 273.13 149.52 270.82 151.03 266.48 154.55 
M 255.88 146.24 251.47 147.6 249.38 148.49 245.47 150.8 241.89 153.71 
M 228.33 146.98 224.85 148.05 223.2 148.75 220.13 150.57 217.31 152.86 
M 200.78 147.72 198.24 148.5 195.88 149.63 192.72 152.02 
M 261.61 158.1 256.3 159.11 253.75 159.88 251.29 160.88 248.92 162.11 244.41 165.09 
M 229.97 157.1 225.89 157.87 223.94 158.46 220.24 160.17 216.78 162.46 
M 198.33 156.09 195.49 156.63 194.13 157.04 191.56 158.23 189.15 159.82 
M 239.43 168.05 234.2 168.43 231.66 168.91 229.19 169.61 226.79 170.55 222.15 172.98 
M 212.96 165.68 208.95 165.97 207.01 166.33 203.27 167.59 199.71 169.46 
M 186.49 163.3 183.7 163.51 182.35 163.76 179.75 164.63 177.28 165.93 
M 217.1 175.35 212.02 175.12 209.53 175.3 207.08 175.71 204.67 176.36 199.95 178.24 
M 185.22 170.66 181.91 170.51 178.7 170.89 177.13 171.32 174.06 172.54 
M 194.89 180.01 190.02 179.19 187.6 179.07 185.19 179.2 182.79 179.56 178.03 180.87 
M 153.31 186.05 158.77 192.19 163.53 197.85 165.91 201.12 167.09 203.55 172.97 207.87 176.99 209.3 179.87 210.8 180.84 213.05 182.51 215.4 185.42 217.83 186.63 218.54 184 227.24 182.15 228.96 180.74 231.11 180.9 234.83 180.63 238.14 179.63 240.78 179.14 243.91 176.97 246.05 175.34 248.74 173.03 250.75 171.42 253.42 170.31 256.59 168.98 259.55 168.21 262.41 157.54 270.18 157.4 266 157.63 261.31 156.98 258.17 156.4 253.7 155.62 252.18 154.88 248.78 154.63 245.77 155.78 242.04 154.52 239.28 153.91 236.19 153.03 233.39 151.77 230.9 150.58 227.64 150.16 224.48 148.13 218.03 148.38 214.86 148.14 210.65 148.27 206.72 147.35 203.41 145.34 201.02 143.91 198.45 143.27 195.37 142.54 188.14 141.5 183.8 
M 151.31 185.67 156.45 192.19 158.21 195.04 160.49 198.07 163.68 204.28 165.35 206.8 168.13 209.24 170.41 211.82 
M 149.31 185.29 159.34 200.96 161.32 204.34 162.13 207.3 165.51 212.9 
M 147.3 184.9 149.38 188.98 152.79 195.02 154.5 198.67 158.01 203.59 159.37 206.65 160.94 212.94 162.76 217.15 164.83 220.23 166.56 222.3 168.44 224.19 169.27 227.47 170.46 230.33 
M 145.3 184.52 148.35 191.78 149.8 194.82 151.08 198.65 152.52 201.22 154.24 203.56 155.64 208.85 157.61 211.96 160.02 219.17 160.99 222.99 
M 143.3 184.14 144.77 188.39 145.37 191.9 146.2 195.24 147.59 198.65 150.14 203.33 152.82 209.71 152.59 213.39 154.06 216.28 154.32 220.32 155.18 223.98 157.51 230.52 
M 365.91 182.16 368.71 189.1 371.27 192.69 375.51 195.47 376.03 205.9 373.59 212.08 371.52 214.17 365.6 216.3 362.05 216.49 359.2 216.02 356.44 215.79 353.78 217.17 350.77 218.2 346.82 218.3 343.39 218.91 340.89 220.22 337.64 220.52 334.17 220.05 331.75 220.6 329.06 220.85 325.87 220.67 323.08 221.46 318.4 224.95 315.45 225.42 312.77 225.45 309.37 224.59 306.35 224.04 303.3 223.3 296.18 220.93 293.02 220.17 290.42 219.85 288.05 219.76 281.37 217.23 278.63 216.28 276.22 215.66 272.76 213.18 269.84 210.8 267.6 209.86 262.87 209.39 254.64 203.33 252.77 199.28 250.29 195.51 247.8 189.98 
M 360.85 182.71 363.62 187.78 366.37 191.17 368.7 194.53 371.57 197.55 372.69 200.98 
M 355.79 183.27 358.54 188.58 360.96 191.91 363.27 194.52 367.14 201.31 369.58 204.87 
M 350.74 183.91 353.73 188.8 356.22 192.19 362.38 201.83 363.3 204.15 365.21 207.57 
M 345.69 184.58 348.66 188.67 351.45 191.27 354.01 194.54 356.02 197.58 357.06 200.49 359 203.9 360.13 207.61 362.53 209.71 
M 340.65 185.29 343.97 188.95 346.15 191.64 349.2 193.94 351.42 197.68 
M 335.61 186.07 347.43 201.55 349.23 203.6 351.83 205.54 
M 330.58 186.85 333.28 191.11 335.58 194.31 340.78 199.24 342.57 201.72 343.31 204.56 345.13 207.93 
M 325.53 187.52 327.53 192.01 329.35 195.36 331.84 198.45 333.78 201.3 336.77 203.68 338.78 205.85 
M 320.48 188.18 323.22 192.66 324.52 196.11 326.02 198.67 327.88 202.45 335.07 214.55 
M 315.41 188.64 318.36 192.42 320.26 195.69 322.87 202.05 324.44 206.65 326.52 210.09 328.87 212.34 
M 310.33 188.99 313.16 192.65 318.8 201.69 320.81 203.94 322.2 208.1 
M 305.25 189.29 308.85 193.02 310.98 196.43 312.48 199.83 313.41 204.03 314.62 207.15 316.28 210.43 317.84 213.98 
M 300.16 189.48 306.72 200.6 309.43 208.26 311.4 210.89 312.98 213.78 
M 295.07 189.67 298.1 194.44 301.17 201.54 304.41 207.85 
M 289.98 189.77 292.77 194.63 294.69 198.51 296.71 202.06 299.82 208.6 301.24 210.62 
M 284.89 189.88 287.24 195.02 291.57 201.08 292.34 204.28 293.95 207.77 
M 279.8 189.97 283.16 194.87 284.35 198.29 285.79 200.82 287.21 203.89 288.42 207.05 290.4 214.81 
M 274.7 190.06 278.21 195.38 279.92 198.46 280.98 201.44 282.34 203.84 283.65 207.03 284.56 211.63 
M 269.61 190.1 272.96 194.79 274.95 198.43 277.33 204.16 
M 264.52 190.07 267.73 193.7 270.33 196.98 273.48 207.03 
M 259.43 190.04 262.64 194.21 264.09 197.6 265.98 200.6 
M 254.33 190.01 256.73 196.09 258.73 199.28 259.99 202.08 
M 401.35 126.44 405.37 126.11 408.41 125.26 411.42 124.03 413.87 121.88 416.81 120.42 419.32 118.75 424.72 115.9 427.04 114.31 432.34 112.47 435.59 110.69 438.36 109.62 440.29 109.32 447.71 110.19 453.93 110.33 460.98 111.89 470.22 117.9 472.98 120.06 475.33 122.22 479.53 127.29 482.05 132.71 486.31 137.66 487.31 139.86 488.01 143.24 489.17 147.1 490 153.22 489.43 155.29 488.75 160.54 488.94 164.29 488.84 168.18 487.83 171.15 486.02 173.52 483.18 174.89 481.05 176.96 479.63 179.79 477.95 182.36 476.66 185.24 475.66 188.52 473.6 190.78 471.36 192.85 469.53 195.33 466.57 196.67 463.94 198.29 461.59 200.15 458.25 200.4 455.41 201.15 452.88 202.28 450.4 203.66 438.8 205.44 434.03 200.26 432.53 198.28 429.66 197.39 426.64 195.23 423.83 192.59 421.48 191.93 418.83 189.99 415.89 187.41 412.75 185.11 410.65 182.76 401.35 175.78 
M 401.35 128.91 405.22 128.33 408.17 127.66 411.26 126.45 414.05 124.43 416.99 122.03 422.02 119.62 424.68 118.02 430.72 117.19 433.38 116.25 435.2 114.09 437.97 112.68 444.92 110.76 
M 410.83 129.23 414.1 127.6 417.01 125.9 420.33 123.65 423.3 122.73 425.8 121.51 429.31 121.24 432.27 119.68 435.71 119.37 437.41 117.78 439.6 116.08 442.5 114.83 444.81 114.15 447.38 112.08 450.4 110.09 
M 410.75 131.85 413.82 130.7 417.43 129.1 420.41 126.94 426.65 126.39 430.23 124.9 433.23 124.53 436.15 123.45 
M 411.09 134.74 413.94 133.44 417.59 132.49 423.69 129.74 427.07 129.57 430.9 128.44 433.87 127.79 436.51 127.93 439.62 127.58 442.88 126.9 445.36 125.32 449.19 124.19 453.81 121.92 455.85 120.47 456.55 119.47 
M 405.27 138.97 408.59 138.84 411.82 138.18 421.43 134.81 424.17 133.4 427.49 132.45 431.3 131.64 434.21 131.23 436.48 131.28 443.28 130.73 449.49 128.4 454.39 127.76 457.36 126.03 457.46 125 458.68 124.6 460.95 122.81 466.64 121.72 471.61 120.42 
M 408.56 141.57 415.4 140.55 418.71 139.79 425.6 137.72 428.82 137.03 431.8 136.59 435.35 135.73 437.85 135.49 444.77 134.4 446.82 133.54 450.14 133.23 454.36 133.75 456.83 132.8 458.58 131.66 464.22 128.79 467.65 129.22 478.38 127 
M 408.53 144.39 412.08 144.4 416.08 144.01 426.1 142.35 428.98 142.27 432.35 142.51 435.19 141.55 437.32 140.27 443.04 139.89 447.26 139.94 455.22 139.07 458.42 136.79 461.52 135.62 464.98 135.41 469.73 136.44 472.88 137.53 475.95 137.19 479.3 135.95 
M 408.72 146.99 415.54 146.87 419.23 147.09 422.64 147.03 426.18 146.35 429.34 146.27 432.6 146.48 436.59 145.83 439.77 144.85 443.29 144.66 447.49 145.61 452.07 145.37 455.34 144.73 457.96 143.73 459.17 142.47 460.8 141.72 465.14 142.05 469.22 143.37 471.59 142.5 477.09 141.56 480.9 140.51 
M 405.45 149.23 415.81 149.63 419.32 150.29 422.7 150.6 426.2 150.44 428.63 150.66 431.15 149.95 436.58 150.88 440.28 149.9 444.17 150.04 447.79 150.64 455.03 149.5 457.89 149.43 459.93 148.58 462.05 148.18 465.53 149.17 471.33 149.29 475.35 148.65 
M 413.04 152.46 416.25 153.15 419.77 153.38 425.25 154.27 427.52 154.41 430.06 155.3 433.72 155.48 439.84 154.71 443.22 155.38 447.51 155.79 449.85 155.19 455.45 155.23 458.26 154.8 461.52 153.58 470.67 155.82 474.97 156.01 477.81 155.83 479.73 154.44 
M 412.68 155.57 419.2 157.02 422.41 157.33 424.82 158 430.97 158.17 434.69 158.67 437.79 158.58 443.84 158.85 446.75 159.7 450.57 160.56 454.33 161.21 457.36 160.35 459.01 160.2 460.19 160.89 463.92 160.26 467.74 161.6 470.93 163.66 474.78 163.85 
M 412.01 158.68 415.22 159.86 424.86 161.62 428.7 161.93 432.42 161.75 435.65 162.16 438.42 163.14 443.74 163.47 446.7 163.43 451.08 164.93 454.08 166.53 457.05 165.25 458.38 165.89 
M 405.23 160.05 411.78 161.74 414.74 162.14 418.27 163.64 424.77 165.83 428.93 165.88 432.79 165.64 435.39 167.12 438.17 167.84 440.46 168.24 443.68 168.48 447.57 169.94 453.58 170.69 456.62 172.17 458.62 172.92 460.48 172.86 463.8 174.26 466.91 175.9 469.19 177.51 471.95 177.85 476.85 176.14 480.15 176.78 
M 401.35 160.98 408.16 163.68 411.61 164.79 414.73 165.42 418 167.46 421.24 168.57 424.63 168.69 431.83 170.01 435.03 170.93 437.78 172.45 445.18 174.82 448 174.93 
M 411.46 167.92 414.79 168.87 418.11 170.59 424.63 172.38 435.01 173.67 438.36 175.79 441.34 178.19 449.07 181.64 
M 411.5 170.87 414.61 172.27 418.59 173.64 422.32 174.38 425.07 176.18 427.98 177.13 430.69 177.47 433.46 178.85 
M 411.39 174.15 414.16 175.71 417.96 177.44 421.18 179.29 423.9 180.3 430.44 181.44 433.2 182.5 436.57 185.41 440.04 188 442.94 189.72 445.12 190.29 446.72 191.03 449.65 191.99 453.27 193.96 
M 405.14 173.36 413.73 178.85 419.71 183.38 422.61 184.42 426.29 184.38 429.33 185.06 433.76 186.3 435.99 189.27 438.17 191.34 440.77 192.5 443.05 194.07 445.72 195.3 
M 404.82 175.84 411.1 180.06 415.69 184.25 418.74 186.54 421.87 188.23 427.9 190.29 
M 318.67 112.07 322.96 116.38 335.79 98.37 338.64 96.9 340.16 94.1 342.27 91.89 345.28 90.76 347.89 89.47 349.72 87.25 352.93 86.39 356.79 86.16 360.08 87.12 361.93 87.98 363.59 89.09 366.36 91.7 369.43 91.15 371.08 88.59 374.73 90.2 376.7 90.73 378.82 93.18 380.56 96.54 380.98 97.97 383.18 101.66 384.4 105.49 385.22 108.92 385.57 111.27 382.15 124.79 377.73 120.32 
M 323.72 112.68 326.31 110.99 328.85 108.49 330.63 105.86 331.29 103.42 332.36 100.41 332.85 99.69 334.43 98.52 
M 328.78 113.3 331.02 111.36 334.78 106.99 335.81 104.1 337.96 101.23 
M 333.82 113.99 335.7 112.59 338.69 108.28 340.28 106.68 342.99 101.66 
M 338.86 114.73 341.09 113.27 342.77 110.99 344.66 108.97 346.13 106.51 349.95 98.43 351.39 96.12 352.75 93.27 352.86 89.53 354.53 87.18 
M 343.9 115.48 346.86 113.75 351.08 109.49 352.88 105.5 
M 348.94 116.22 351.97 114.88 353.84 113.06 358.39 106.8 
M 353.98 116.96 356.96 115.78 359.01 114.05 362.05 109.75 363.12 107.27 363.87 104.81 
M 359.02 117.64 362.15 116.6 363.96 114.19 366.79 109.7 368.73 104.89 369.42 101.93 371.18 99.61 
M 364.07 118.31 367.35 116.6 369.55 114.21 371.11 112.05 373.75 107.71 
M 369.11 119.03 372.3 117.46 373.94 115.68 377.2 110.8 379.73 107.75 382.77 104.92 
M 374.15 119.78 377.02 118.97 378.6 117.14 
M 38.02 144.33 38.88 143.21 40.66 141.6 43.18 139.96 46.59 138.35 55.34 135.15 69.12 128.81 74.46 126.77 91.21 122.09 96.29 120.84 106.04 119.01 110.14 121.55 112.17 124.52 114.47 127.45 117.02 130.32 119.08 133.29 120.43 136.4 122.43 142.74 122.33 146.13 122.62 149.44 122.62 152.8 121.59 159.73 122.05 163 122.19 169.7 121.72 173.16 120.49 176.76 117.88 180.55 105.64 179.91 96.69 178.92 89 177.65 81.99 175.95 69.77 172.49 64.28 170.43 59.04 167.97 54.41 165.29 50.7 162.57 44.56 157.48 
M 99.27 136.17 99.83 138.89 98.52 144.3 97.55 146.79 95.19 151.42 95.62 155.44 96.93 159.67 97.35 162.25 96.88 165.34 88.64 165.25 78.84 164.76 
M 60.83 161.36 57.14 160.01 
M 41.62 156.03 34.72 149.2 34.01 146.64 35.71 144.58 38.42 144.28 40.15 146.07 44.69 157.4 
M 42.07 158.38 36.41 158.97 34.01 159.08 31.88 157.91 31.43 155.31 33.12 153.31 35.68 153.26 43.35 156.77 
M 44.25 157.15 44.36 157.2 
M 60.07 160.82 56.64 156.01 54.95 150.35 55.2 144.45 57.35 138.94 61.16 134.43 66.24 131.41 72.02 130.2 77.88 130.93 83.19 133.52 87.37 137.7 89.96 143.01 90.69 148.87 89.48 154.65 86.46 159.73 81.95 163.55 76.45 165.69 70.54 165.94 64.88 164.25 60.07 160.82 
M 84.45 139.79 86.52 144.03 87.11 148.72 86.14 153.35 83.72 157.41 80.11 160.46 75.71 162.18 70.99 162.38 66.46 161.03 62.61 158.28 
M 66.92 152.44 65.55 150.52 64.88 148.25 64.97 145.89 65.83 143.69 67.36 141.89 69.39 140.68 71.7 140.19 74.05 140.49 76.17 141.52 77.84 143.19 78.88 145.32 79.17 147.66 78.69 149.97 77.48 152 75.67 153.53 73.47 154.39 71.11 154.49 68.85 153.81 66.92 152.44 
M 67.02 151.13 70.06 154.18 
M 66.05 147.41 73.05 154.41 
M 67.04 145.65 75.13 153.74 
M 71.22 147.09 76.75 152.62 
M 71.69 144.8 78.01 151.12 
M 73.53 143.9 78.85 149.21 
M 73.27 140.88 79.05 146.66 
M 40.65 147.34 41.22 147.92 
M 40.88 141.46 45.77 146.35 
M 44.75 139.22 50.3 144.77 
M 49.07 137.43 54.83 143.2 
M 53.54 135.8 57.16 139.41 
M 57.88 134.02 59.85 135.99 
M 62.02 132.05 63.19 133.23 
M 66.18 130.1 67.27 131.19 
M 70.48 128.29 72.44 130.25 
M 74.94 126.63 78.82 130.52 
M 79.68 125.26 83.08 128.67 
M 84.45 123.92 90.03 129.51 
M 89.25 122.62 93.32 126.69 
M 94.12 121.38 99.79 127.05 
M 99.13 120.27 103.9 125.04 
M 104.3 119.33 109.63 124.66 
M 63.97 163.6 63.33 164.48 62.65 166.6 61.06 168.91 
M 109.08 178.42 109.38 177.41 110.19 176.69 111.2 176.17 113.26 175.74 116.65 175.47 
M 117.37 130.82 117.18 131.7 117.17 132.85 
M 106.62 143.17 108.24 143.44 109.04 143.78 109.6 144.33 110.36 145.8 
M 120.47 136.53 119.63 136.26 118.69 135.51 118.19 135.42 117.84 135.55 
M 84.32 171.37 84.02 174.06 83.63 174.95 83.03 175.76 82.52 176.08 
M 99.07 144.55 102.7 144.87 104.87 145.46 106.28 145.29 
M 109.32 166.8 108.77 168.92 108.3 169.8 107.6 170.44 106.36 170.87 
M 93.74 126.06 93.09 126.41 91.49 127.85 90.76 128.13 88.18 128.09 86.87 127.64 86.11 127.81 
M 109.9 158.8 110.84 157.92 114.09 156.24 115.72 156.13 116.83 156.52 
M 97.61 141.99 98.79 142.81 100.11 143.22 102.23 143.19 104.76 142.84 106.43 143.34 
M 111.77 127.91 112.05 128.71 112.61 129.48 113.44 130.36 115.95 132.34 116.32 132.83 116.79 133.71 117.2 135.14 
M 108.69 174.97 109.19 174.53 110.67 174.51 114.03 175.4 
M 97.66 128.92 95.44 128.56 90.03 128.69 88.37 128.34 86.76 127.67 
M 45.11 157.94 45.74 157.56 47.91 156.86 49.53 156.15 
M 109.25 175.73 110.05 175.1 110.96 174.89 113.63 175.42 116.75 175.43 
M 109.76 160.14 110.59 159.62 112.27 158.16 114.2 157.19 115.65 157.23 116.6 157.57 
M 88.95 171.59 89.96 169.98 90.29 167.74 90.05 166.43 89.01 166.01 
M 112.22 128.62 113.59 130.27 116.02 132.24 116.85 133.64 117.25 135.24 
M 105.43 122.89 102.17 122.28 100.13 121.37 99.2 121.21 98.23 121.32 93.03 122.65 
M 117.51 131.03 117.21 132.49 117.46 135.05 
M 64.61 170.55 66.19 170.09 68.18 169.82 68.78 169.53 70.29 167.54 70.33 166.76 
M 66.71 129.87 66.82 130.42 
M 101.54 130.76 99.09 132.54 97.9 132.76 94.41 132.59 93.23 132.28 92.16 131.66 88.96 129.66 87.78 128.58 
M 81.48 124.75 85.1 128.53 
M 60.28 134.76 60.56 135.15 
M 57.59 138.66 57.42 138.59 
M 70.97 172.82 71.04 172.22 
M 60.02 160.74 58.99 164.03 58.18 165.27 57.43 165.55 
M 55.47 143.74 54.33 143.49 47.95 143.24 46.19 142.37 
M 76.94 129.81 78.01 129.21 79.31 129.13 81.24 129.74 84.23 131.22 85 131.5 86.16 131.6 
M 114.32 146.12 117.25 149.87 
M 117.23 171.81 119.03 172.25 119.29 172.49 119.35 172.9 119.09 173.86 117.32 175.56 
M 99.31 133.42 94.79 133.96 93.58 133.99 92.53 133.81 89.75 132.5 87.46 130.46 
M 60.82 164.54 60.09 166.39 60.09 167.85 59.92 168.38 
M 105.91 152.16 106.7 148.26 107.81 145.65 
M 71 172.83 71.6 168.14 71.42 167.18 70.66 166.24 
M 54.54 145.85 54.05 145.4 52.55 144.85 50.84 144.47 47.29 144.29 46.23 143.88 
M 71.96 168.62 71.85 167.57 71.45 166.82 70.61 165.93 
M 104.97 170.11 101.64 169.56 98.07 167.85 96.1 166.52 94.3 165.6 93.12 165.44 
M 101.56 175.35 99.19 174.31 98.37 173.63 97.55 172.62 95.95 169.81 94.64 168.5 94.18 167.41 94.05 166.44 
M 61.5 132.31 62.86 133.42 
M 93.69 147.52 93.15 148.54 93.07 148.88 93.19 149.4 93.68 149.99 94.26 150.37 95.24 150.5 
M 84.08 165.78 83.81 166.34 82.05 168.43 81.37 170.03 81.14 170.93 80.78 174.71 80.43 175.5 
M 90.5 173.99 91.15 172.81 91.35 172.08 91.47 170.27 91.13 166.56 90.59 166.12 
M 96.25 164.66 94.01 164.48 92.96 164.61 87.52 166.21 
M 95.62 131.15 93.35 130.41 91.48 129.36 88.17 128.43 86.93 127.72 86.2 127.81 
M 55.38 165.85 54.73 164.82 54.63 164.39 54.75 164.14 55.02 164.03 55.81 164.2 
M 45.22 158.03 46.73 157.23 47.87 156.94 49.5 156.23 50.11 155.84 50.99 154.42 
M 46.16 158.82 46.55 158.45 50.21 156.78 51.14 155.43 51.51 154.56 
M 115.68 150.96 117.25 150.93 117.63 150.51 117.48 150.06 
M 45.75 158.66 44.72 159.58 43.96 160.59 43.37 161.75 42.98 163.03 41.85 170.58 40.9 173.6 39.46 176.42 37.61 178.94 34.61 182.44 32.39 184.57 30 186.47 32.29 184.46 34.27 182.16 36.91 178.42 38.44 175.86 39.53 173.12 40.14 170.24 40.55 162.59 40.89 160.91 41.53 159.27 42.47 157.74 43.59 156.5 
M 44.59 157.46 45.28 158.4 
M 38.91 153.38 38.52 153.85 38.12 155.25 38.88 154.35 39.58 154.06 
M 34.52 148.49 32.54 150.37 31.57 152.92 32.9 150.87 35.16 149.62 
M 44.27 157.52 45.68 157.73 
M 34.43 153.29 35.23 150.52 37.05 148.49 35.84 150.61 35.77 153.3 
M 38.43 158.71 41.08 160.42 
M 43.4 161.69 47.57 163.46 54.41 165.29 
M 49.22 163.98 49.79 163.12 
M 43.68 161.82 44.74 160.76 
M 111.58 117.75 121.15 127.32 
M 118.28 116.3 125.98 124.01 
M 125.45 115.32 136.39 126.27 
M 132.78 114.51 142.21 123.94 
M 140.35 113.93 152.55 126.13 
M 147.97 113.41 157.17 122.6 
M 155.53 112.81 165.19 122.47 
M 162.9 112.04 171.61 120.75 
M 170.28 111.27 180.24 121.23 
M 177.67 110.51 189.45 122.29 
M 185.24 109.93 196.33 121.03 
M 192.95 109.49 204.04 120.58 
M 200.79 109.19 208.8 117.19 
M 208.8 109.04 218.95 119.2 
M 216.85 108.95 224.65 116.75 
M 224.95 108.9 235.49 119.45 
M 233.18 108.99 245.25 121.06 
M 241.4 109.05 248.46 116.12 
M 249.55 109.06 260.43 119.94 
M 257.55 108.91 267.81 119.17 
M 265.67 108.88 275.56 118.77 
M 273.95 109.01 282.38 117.44 
M 282.5 109.42 294.01 120.92 
M 291.21 109.98 297.9 116.66 
M 299.97 110.59 307.36 117.98 
M 308.79 111.26 318.86 121.33 
M 317.66 111.99 326.3 120.62 
M 326.89 113.07 336.07 122.24 
M 336.34 114.36 347.16 125.19 
M 345.89 115.77 357.99 127.87 
M 355.43 117.16 362.84 124.57 
M 364.83 118.41 376.42 130 
M 374.39 119.82 381.47 126.91 
M 384.46 121.75 391.57 128.86 
M 395.52 124.66 407.65 136.79 
M 188.78 109.62 188.8 109.66 
M 191.49 105.87 193.29 109.48 
M 193.78 101.29 197.79 109.3 
M 196.9 98.37 202.3 109.17 
M 200.95 97.29 206.84 109.08 
M 198.98 84.2 200.35 86.93 
M 204.91 96.04 207.64 101.51 
M 208.55 103.33 211.39 109.01 
M 201.76 80.58 204.04 85.14 
M 212.24 101.54 214.06 105.18 
M 214.97 107 215.94 108.95 
M 204.18 76.25 210.1 88.1 
M 215.57 99.03 217.39 102.67 
M 220.09 108.07 220.51 108.92 
M 206.53 71.79 217.92 94.56 
M 218.83 96.38 225.09 108.9 
M 209.22 68.01 224.25 98.07 
M 226.99 103.54 229.69 108.95 
M 212.6 65.61 214.43 69.25 
M 215.34 71.07 218.98 78.36 
M 220.8 82 228.09 96.58 
M 229 98.4 234.3 109 
M 217.55 66.32 219.37 69.97 
M 220.28 71.79 222.1 75.43 
M 223.01 77.25 238.9 109.04 
M 219.16 60.39 222.35 66.77 
M 227.82 77.7 228.73 79.52 
M 230.55 83.16 243.5 109.07 
M 222.28 57.45 227.29 67.47 
M 230.93 74.76 248.08 109.06 
M 225.49 54.72 232.33 68.38 
M 234.15 72.03 252.64 109 
M 228.84 52.24 235.22 65 
M 237.95 70.46 257.18 108.92 
M 232.53 50.46 261.74 108.88 
M 234.2 44.63 235.57 47.37 
M 237.39 51.01 262.9 102.02 
M 238.24 43.55 240.98 49.02 
M 241.89 50.84 243.07 53.19 
M 263.17 93.41 265.45 97.96 
M 268.18 103.43 269.09 105.25 
M 270 107.07 270.93 108.92 
M 270.39 98.67 271.75 101.41 
M 273.58 105.05 275.6 109.09 
M 280.29 109.31 280.3 109.33 
"/></svg>