<svg xmlns="http://www.w3.org/2000/svg" width="520" height="320"><rect x="0" y="0" width="520" height="320" fill="floralwhite"/><rect x="10" y="10" width="500" height="300" stroke="black" stroke-width="1" fill="none"/><path stroke="black" stroke-width="1" fill="none" stroke-linecap="round" stroke-linejoin="round" d="
M 143.95 126.09 162.12 115.42 171.18 110.57 180.25 106.16 198.37 98.07 207.44 94.79 216.5 92.39 225.56 90.58 252.75 89.7 261.81 91.26 270.88 94.38 279.94 98.22 298.07 106.77 307.13 110.84 316.19 115.55 334.32 126.53 343.38 131.85 379.63 152.27 
M 379.63 170.14 352.44 188.89 343.38 194.9 334.32 200.4 325.25 205.62 316.19 210.13 298.07 218.5 289 221.58 279.94 224.27 270.88 226.69 261.81 227.96 252.75 228.82 243.69 228.46 234.62 228.47 225.56 228.75 216.5 227.03 207.44 224.22 198.37 220.95 189.31 217.33 180.25 214.19 171.18 210.47 162.12 205.72 153.08 200.2 
M 148.94 131.79 149.33 130.53 149.33 129.62 148.88 128.16 148.19 126.87 147.64 126.36 
M 147.87 127.29 148.51 126.75 149.32 125.35 149.85 123.77 149.81 122.68 
M 152.48 138.05 153.08 137.22 153.64 135.82 153.64 134.96 153.08 133.57 152.2 132.34 151.52 131.86 
M 158.45 169.58 158.64 169.24 158.61 168.54 
M 157.65 187.59 157.94 187.1 157.94 186.48 157.64 185.97 
M 156.82 138.6 157.52 138.1 158.41 136.83 158.99 135.39 158.99 134.5 158.41 133.07 157.52 131.8 156.82 131.3 
M 159.74 167.45 160.53 167.08 161.54 166.14 162.19 165.07 162.19 164.4 161.54 163.33 160.53 162.39 159.74 162.02 
M 157.99 133 158.57 132.45 159.32 131.04 159.8 129.44 159.8 128.45 159.32 126.86 158.57 125.45 157.99 124.9 
M 162.34 153.76 162.93 153.36 163.69 152.32 164.18 151.15 164.18 150.43 163.69 149.26 162.93 148.22 162.34 147.82 
M 162.8 163.12 163.41 162.74 164.2 161.76 164.71 160.66 164.71 159.98 164.2 158.87 163.41 157.9 162.8 157.52 
M 162.7 172.17 163.36 171.8 164.21 170.85 164.75 169.77 164.75 169.1 164.21 168.03 163.36 167.07 162.7 166.7 
M 162.21 190.16 162.91 189.81 164.06 188.45 
M 160.96 197.9 161.67 197.59 162.58 196.8 163.16 195.9 163.16 195.35 162.58 194.45 161.67 193.66 160.96 193.35 
M 162.22 138.34 162.93 137.83 163.83 136.54 164.41 135.07 164.41 134.16 163.83 132.7 162.93 131.4 162.22 130.89 
M 164.4 148.71 165.11 148.28 166.02 147.18 166.6 145.93 166.6 145.16 166.02 143.91 165.11 142.81 164.4 142.38 
M 165.3 158.31 166.01 157.92 166.93 156.91 167.52 155.76 167.52 155.06 166.93 153.91 166.01 152.9 165.3 152.51 
M 165.59 167.65 166.34 167.27 167.3 166.3 167.91 165.19 167.91 164.51 167.3 163.4 166.34 162.43 165.59 162.05 
M 168 174.03 168 173.76 167.36 172.67 166.36 171.71 165.58 171.34 
M 164.74 194.34 165.56 194 166.62 193.15 167.3 192.19 167.3 191.59 166.62 190.63 165.56 189.78 164.74 189.45 
M 162.79 201.38 163.62 201.08 164.68 200.32 165.36 199.45 165.36 198.91 164.68 198.04 163.62 197.28 162.79 196.98 
M 157.44 118.96 158.01 118.33 158.3 117.68 
M 163.36 132.72 163.94 132.15 164.69 130.71 165.17 129.08 165.17 128.07 164.69 126.44 163.94 124.99 163.36 124.43 
M 166.5 143.69 167.09 143.24 167.84 142.07 168.33 140.75 168.33 139.93 167.84 138.61 167.09 137.44 166.5 136.99 
M 167.73 153.42 168.32 153.02 169.07 151.98 169.55 150.81 169.55 150.08 169.07 148.91 168.32 147.87 167.73 147.47 
M 168.31 162.96 168.9 162.57 169.66 161.57 170.15 160.44 170.15 159.74 169.66 158.61 168.9 157.61 168.31 157.22 
M 168.55 172.37 169.18 171.98 169.98 171.01 170.49 169.9 170.49 169.21 169.98 168.1 169.18 167.12 168.55 166.74 
M 168.39 190.67 169.05 190.31 169.78 189.51 
M 167.39 198.62 168.08 198.31 168.97 197.51 169.54 196.61 169.54 196.05 168.97 195.15 168.08 194.35 167.39 194.04 
M 166.44 203.24 166.69 202.88 166.69 202.37 166.11 201.54 165.21 200.81 164.5 200.53 
M 163.1 125.64 163.83 125.05 164.77 123.53 165.37 121.82 165.37 120.75 164.77 119.04 163.83 117.52 163.1 116.93 
M 167.59 137.99 168.3 137.48 169.22 136.18 169.8 134.71 169.8 133.8 169.22 132.32 168.3 131.02 167.59 130.51 
M 169.78 148.36 170.49 147.93 171.39 146.83 171.97 145.58 171.97 144.8 171.39 143.55 170.49 142.45 169.78 142.02 
M 170.71 158.03 171.42 157.63 172.32 156.61 172.91 155.45 172.91 154.73 172.32 153.57 171.42 152.55 170.71 152.15 
M 171.2 167.58 171.92 167.19 172.85 166.2 173.45 165.07 173.45 164.37 172.85 163.24 171.92 162.24 171.2 161.85 
M 173.59 173.61 173.09 172.72 172.14 171.74 171.39 171.36 
M 170.92 194.85 171.72 194.51 172.73 193.64 173.39 192.65 173.39 192.04 172.73 191.06 171.72 190.19 170.92 189.85 
M 169.18 202.08 170.02 201.78 171.1 201 171.8 200.12 171.8 199.57 171.1 198.69 170.02 197.92 169.18 197.61 
M 162.93 118.61 163.6 117.99 164.46 116.41 165.01 114.63 165.01 113.87 
M 168.69 132.28 169.3 131.72 170.08 130.29 170.58 128.67 170.58 127.67 170.08 126.05 169.3 124.62 168.69 124.06 
M 171.83 143.28 172.42 142.83 173.17 141.66 173.66 140.34 173.66 139.52 173.17 138.2 172.42 137.03 171.83 136.57 
M 173.08 153.04 173.66 152.64 174.42 151.59 174.9 150.42 174.9 149.69 174.42 148.51 173.66 147.46 173.08 147.06 
M 173.73 162.69 174.32 162.3 175.08 161.28 175.56 160.13 175.56 159.42 175.08 158.27 174.32 157.26 173.73 156.86 
M 174.19 172.32 174.8 171.93 175.58 170.93 176.08 169.81 176.08 169.11 175.58 167.98 174.8 166.98 174.19 166.59 
M 174.27 190.89 174.95 190.46 
M 173.64 199.22 174.3 198.9 175.16 198.07 175.71 197.14 175.71 196.56 175.16 195.62 174.3 194.79 173.64 194.47 
M 171.54 205.61 172.89 204.7 173.51 203.85 173.51 203.32 172.89 202.47 171.93 201.72 171.19 201.43 
M 168.97 125.59 169.79 125.02 170.84 123.57 171.52 121.93 171.52 120.91 170.84 119.26 169.79 117.81 168.97 117.25 
M 173.1 137.68 173.84 137.18 174.79 135.91 175.4 134.47 175.4 133.58 174.79 132.14 173.84 130.87 173.1 130.37 
M 175.18 148 175.9 147.57 176.81 146.48 177.4 145.24 177.4 144.47 176.81 143.23 175.9 142.13 175.18 141.7 
M 176.11 157.71 176.82 157.3 177.72 156.28 178.31 155.11 178.31 154.39 177.72 153.23 176.82 152.2 176.11 151.8 
M 176.7 167.39 177.42 167 178.34 165.99 178.93 164.84 178.93 164.13 178.34 162.99 177.42 161.98 176.7 161.58 
M 179.13 173.39 178.71 172.62 177.77 171.62 177.04 171.24 
M 176.89 195.17 177.67 194.82 178.65 193.92 179.29 192.9 179.29 192.27 178.27 190.91 
M 175.64 202.92 176.48 202.6 177.56 201.79 178.25 200.86 178.25 200.29 177.56 199.37 176.48 198.55 175.64 198.24 
M 176.6 207.46 175.85 206.57 174.65 205.76 173.71 205.45 
M 169.7 119.3 170.5 118.73 171.51 117.28 172.17 115.63 172.17 114.62 171.51 112.97 170.5 111.52 170.03 111.19 
M 174.55 132.16 175.21 131.64 176.06 130.29 176.6 128.77 176.6 127.83 176.06 126.3 175.21 124.95 174.55 124.43 
M 177.34 142.98 177.95 142.54 178.73 141.4 179.24 140.11 179.24 139.31 178.73 138.02 177.95 136.88 177.34 136.43 
M 178.49 152.7 179.09 152.3 179.85 151.26 180.34 150.09 180.34 149.37 179.85 148.19 179.09 147.16 178.49 146.75 
M 179.14 162.38 179.73 161.99 180.48 160.96 180.96 159.81 180.96 159.09 180.48 157.93 179.73 156.91 179.14 156.51 
M 179.75 172.18 180.35 171.79 181.12 170.77 181.61 169.63 181.61 168.92 181.12 167.78 180.35 166.77 179.75 166.37 
M 179.65 199.64 180.3 199.3 181.12 198.42 181.66 197.43 181.66 196.82 181.12 195.83 180.3 194.96 179.65 194.62 
M 178.07 207.07 178.82 206.76 179.78 205.95 180.4 205.04 180.4 204.47 179.78 203.56 178.82 202.75 178.07 202.43 
M 171.31 113.67 172.37 113.16 173.73 111.85 174.6 110.37 174.6 109.45 174.36 109.03 
M 175.57 126.11 176.46 125.59 177.6 124.27 178.34 122.76 178.34 121.83 177.6 120.33 176.46 119 175.57 118.48 
M 178.94 137.58 179.71 137.11 180.7 135.91 181.34 134.55 181.34 133.71 180.7 132.35 179.71 131.15 178.94 130.68 
M 180.72 147.73 181.44 147.31 182.37 146.24 182.97 145.03 182.97 144.27 182.37 143.06 181.44 141.99 180.72 141.57 
M 181.53 157.38 182.24 156.98 183.15 155.96 183.73 154.8 183.73 154.08 183.15 152.92 182.24 151.89 181.53 151.49 
M 182.16 167.14 182.87 166.75 183.78 165.73 184.37 164.57 184.37 163.86 183.78 162.7 182.87 161.68 182.16 161.28 
M 184.57 172.99 184.28 172.45 183.35 171.45 182.63 171.05 
M 182.74 195.37 183.5 195.01 184.47 194.08 185.1 193.02 185.1 192.37 184.87 191.99 
M 182.01 203.72 182.83 203.38 183.88 202.51 184.56 201.53 184.56 200.92 183.88 199.93 182.83 199.07 182.01 198.73 
M 183.47 209.78 183.71 209.48 183.71 208.89 182.95 207.93 181.77 207.08 180.84 206.75 
M 177.23 120.64 178.06 120.14 179.12 118.85 179.8 117.39 179.8 116.49 179.12 115.03 178.06 113.75 177.23 113.24 
M 180.81 132.35 181.49 131.88 182.37 130.65 182.93 129.26 182.93 128.4 182.37 127.01 181.49 125.78 180.81 125.31 
M 183.05 142.82 183.67 142.39 184.47 141.3 184.98 140.06 184.98 139.3 184.47 138.06 183.67 136.97 183.05 136.54 
M 183.98 152.4 184.58 152.01 185.34 150.99 185.83 149.84 185.83 149.13 185.34 147.97 184.58 146.96 183.98 146.56 
M 184.52 162.03 185.11 161.63 185.85 160.61 186.33 159.45 186.33 158.73 185.85 157.58 185.11 156.55 184.52 156.15 
M 185.24 171.98 185.84 171.58 186.6 170.56 187.09 169.4 187.09 168.68 186.6 167.52 185.84 166.49 185.24 166.09 
M 185.53 199.91 186.16 199.55 186.98 198.63 187.5 197.59 187.5 196.95 186.98 195.91 186.16 194.99 185.53 194.64 
M 184.78 208.25 185.49 207.91 186.4 207.03 186.99 206.04 186.99 205.43 186.4 204.44 185.49 203.56 184.78 203.22 
M 179.28 115.57 180.31 115.11 181.63 113.93 182.48 112.59 182.48 111.76 181.63 110.42 180.31 109.23 179.28 108.77 
M 182.41 126.85 183.29 126.39 184.42 125.19 185.15 123.83 185.15 122.99 184.42 121.64 183.29 120.44 182.41 119.97 
M 184.92 137.6 185.69 137.17 186.68 136.04 187.32 134.77 187.32 133.99 186.68 132.72 185.69 131.59 184.92 131.15 
M 186.31 147.49 187.03 147.08 187.96 146.04 188.56 144.87 188.56 144.14 187.96 142.97 187.03 141.93 186.31 141.53 
M 186.94 157.02 187.65 156.63 188.54 155.61 189.12 154.47 189.12 153.75 188.54 152.61 187.65 151.59 186.94 151.2 
M 187.56 166.83 188.26 166.42 189.16 165.4 189.73 164.23 189.73 163.51 189.16 162.35 188.26 161.32 187.56 160.92 
M 190.13 172.87 189.8 172.23 188.88 171.21 188.16 170.81 
M 188.53 195.5 189.28 195.12 190.24 194.17 190.71 193.37 
M 181.84 111.07 182.7 110.64 183.81 109.54 184.53 108.3 184.53 107.52 183.81 106.28 182.61 105.13 
M 184.55 121.85 185.31 121.4 186.29 120.25 186.92 118.94 186.92 118.14 186.29 116.83 185.31 115.68 184.55 115.23 
M 187.06 132.58 187.72 132.14 188.57 131.01 189.11 129.74 189.11 128.95 188.57 127.68 187.72 126.55 187.06 126.11 
M 188.76 142.66 189.38 142.26 190.16 141.21 190.67 140.03 190.67 139.29 190.16 138.11 189.38 137.07 188.76 136.66 
M 189.44 152.06 190.03 151.67 190.78 150.68 191.27 149.55 191.27 148.86 190.78 147.73 190.03 146.74 189.44 146.35 
M 189.83 161.59 190.4 161.2 191.13 160.18 191.61 159.02 191.61 158.3 191.13 157.15 190.4 156.13 189.83 155.73 
M 190.65 171.7 191.23 171.29 191.98 170.25 192.46 169.07 192.46 168.34 191.98 167.16 191.23 166.12 190.65 165.72 
M 184.3 106.72 185.31 106.32 186.59 105.3 187.41 104.13 187.41 103.41 187.21 103.13 
M 186.59 116.9 187.51 116.47 188.69 115.38 189.45 114.14 189.45 113.38 188.69 112.14 187.51 111.05 186.59 110.62 
M 188.91 127.36 189.73 126.93 190.78 125.82 191.46 124.57 191.46 123.8 190.78 122.55 189.73 121.44 188.91 121.01 
M 190.78 137.55 191.52 137.14 192.48 136.08 193.1 134.88 193.1 134.13 192.48 132.93 191.52 131.87 190.78 131.45 
M 191.82 147.17 192.52 146.77 193.43 145.77 194.01 144.63 194.01 143.93 193.43 142.79 192.52 141.78 191.82 141.39 
M 188.91 112.25 189.67 111.85 190.64 110.81 191.26 109.63 191.26 108.9 190.64 107.73 189.67 106.69 188.91 106.28 
M 191.05 122.42 191.74 122 192.63 120.92 193.2 119.7 193.2 118.94 192.63 117.72 191.74 116.64 191.05 116.22 
M 192.97 132.6 193.6 132.18 194.41 131.11 194.92 129.91 194.92 129.16 194.41 127.95 193.6 126.89 192.97 126.47 
M 191.3 107.89 192.2 107.51 193.36 106.52 194.1 105.4 194.1 104.7 193.36 103.58 192.2 102.59 191.3 102.2 
M 193.18 117.6 194.03 117.19 195.12 116.16 195.83 114.99 195.83 114.26 195.12 113.09 194.03 112.06 193.18 111.66 
M 197.37 155.9 198.03 155.52 198.88 154.53 199.43 153.4 199.43 152.71 198.88 151.59 198.03 150.6 197.37 150.21 
M 201.07 173.22 201.07 172.65 200.5 171.44 199.61 170.37 198.91 169.96 
M 193.76 103.67 194.49 103.3 195.44 102.33 196.04 101.24 196.04 100.57 195.39 99.43 
M 195.55 113.05 196.28 112.66 197.21 111.66 197.81 110.53 197.81 109.83 197.21 108.7 196.28 107.7 195.55 107.31 
M 195.97 99.52 196.79 99.14 197.57 98.44 
M 197.96 108.82 198.83 108.43 199.94 107.45 200.65 106.33 200.65 105.64 199.94 104.52 198.83 103.54 197.96 103.15 
M 199.56 118.11 200.39 117.72 201.46 116.74 202.15 115.62 202.15 114.94 201.46 113.82 200.39 112.84 199.56 112.45 
M 200.78 127.42 201.54 127.04 202.51 126.05 203.14 124.94 203.14 124.25 202.51 123.14 201.54 122.16 200.78 121.77 
M 201.72 136.77 202.42 136.39 203.31 135.42 203.88 134.31 203.88 133.63 203.31 132.53 202.42 131.56 201.72 131.18 
M 202.19 145.92 202.86 145.54 203.71 144.59 204.25 143.51 204.25 142.84 203.71 141.76 202.86 140.81 202.19 140.43 
M 202.88 165.03 203.53 164.62 204.36 163.55 204.9 162.34 204.9 161.59 204.36 160.39 203.53 159.32 202.88 158.9 
M 205.57 213.66 206.33 213.3 207.3 212.37 207.92 211.33 207.92 210.68 207.3 209.63 206.33 208.7 205.57 208.34 
M 200.34 104.67 201.05 104.28 201.96 103.26 202.55 102.12 202.55 101.41 201.96 100.26 201.05 99.25 200.34 98.86 
M 202.18 113.88 202.9 113.5 203.82 112.53 204.42 111.43 204.42 110.75 203.82 109.65 202.9 108.68 202.18 108.3 
M 204.7 149.93 205.24 149.57 205.93 148.63 206.38 147.57 206.38 146.91 205.93 145.85 205.24 144.91 204.7 144.54 
M 204.69 159.23 205.23 158.84 205.91 157.81 206.35 156.66 206.35 155.94 205.91 154.78 205.23 153.76 204.69 153.36 
M 205.92 170.02 206.46 169.58 207.16 168.44 207.61 167.15 207.61 166.35 207.16 165.06 206.46 163.92 205.92 163.48 
M 202.1 100.13 202.9 99.72 203.92 98.68 204.58 97.51 204.58 96.78 204.14 95.99 
M 204.49 109.66 205.33 109.27 206.42 108.27 207.11 107.14 207.11 106.44 206.42 105.31 205.33 104.31 204.49 103.92 
M 206.55 127.28 207.31 126.92 208.28 126 208.9 124.96 208.9 124.31 208.28 123.26 207.31 122.34 206.55 121.98 
M 209.36 122.99 210.02 122.65 210.86 121.76 211.4 120.75 211.4 120.13 210.86 119.12 210.02 118.23 209.36 117.89 
M 209.51 131.45 210.11 131.1 210.89 130.19 211.39 129.17 211.39 128.54 210.89 127.52 210.11 126.62 209.51 126.26 
M 209.77 140.35 210.35 139.99 211.09 139.07 211.57 138.03 211.57 137.39 211.09 136.35 210.35 135.43 209.77 135.07 
M 209.64 149.09 210.21 148.73 210.93 147.81 211.39 146.76 211.39 146.11 210.93 145.07 210.21 144.15 209.64 143.79 
M 208.19 100.63 209 100.21 210.04 99.12 210.71 97.89 210.71 97.13 210.04 95.89 209 94.81 208.46 94.52 
M 210.84 110.31 211.67 109.92 212.73 108.91 213.41 107.77 213.41 107.06 212.73 105.92 211.67 104.91 210.84 104.52 
M 212.36 127.24 213.14 126.9 214.13 126.02 214.76 125.02 214.76 124.4 214.13 123.41 213.14 122.52 212.36 122.18 
M 212.43 135.79 213.17 135.44 214.12 134.54 214.74 133.53 214.74 132.9 214.12 131.88 213.17 130.98 212.43 130.63 
M 217.13 204.71 217.88 204.34 218.85 203.38 219.47 202.29 219.47 201.62 218.85 200.53 217.88 199.57 217.13 199.19 
M 209.5 95.66 210.18 95.22 211.2 93.8 
M 214.92 115.07 215.6 114.7 216.47 113.77 217.03 112.71 217.03 112.05 216.47 110.99 215.6 110.05 214.92 109.69 
M 215.21 131.33 215.86 130.99 216.69 130.12 217.23 129.13 217.23 128.52 216.69 127.53 215.86 126.66 215.21 126.32 
M 214.99 148.66 215.6 148.31 216.39 147.4 216.9 146.37 216.9 145.73 216.39 144.69 215.6 143.78 214.99 143.43 
M 214.78 157.84 215.37 157.44 216.13 156.42 216.62 155.26 216.62 154.54 216.13 153.39 215.37 152.37 214.78 151.97 
M 219.96 200.07 220.59 199.69 221.39 198.73 221.91 197.64 221.91 196.97 221.39 195.88 220.59 194.91 219.96 194.54 
M 220.08 209.4 220.71 209.02 221.51 208.06 222.03 206.97 222.03 206.3 221.51 205.21 220.71 204.25 220.08 203.88 
M 220.08 218.38 220.71 218.01 221.52 217.09 222.04 216.04 222.04 215.39 221.52 214.34 220.71 213.41 220.08 213.05 
M 214.48 101.2 215.33 100.78 216.42 99.69 217.12 98.46 217.12 97.69 216.42 96.46 215.33 95.37 214.48 94.95 
M 217.1 110.82 217.93 110.43 218.99 109.43 219.68 108.3 219.68 107.6 218.99 106.47 217.93 105.47 217.1 105.08 
M 218.38 127.49 219.2 127.16 220.24 126.29 220.92 125.31 220.92 124.7 220.24 123.72 219.2 122.85 218.38 122.51 
M 217.79 153.26 218.55 152.88 219.52 151.93 220.14 150.85 220.14 150.18 219.52 149.1 218.55 148.15 217.79 147.77 
M 222.94 195.63 223.69 195.24 224.65 194.25 225.27 193.12 225.27 192.42 224.86 191.66 
M 222.91 204.76 223.67 204.39 224.63 203.43 225.25 202.34 225.25 201.66 224.63 200.57 223.67 199.61 222.91 199.23 
M 222.97 213.92 223.73 213.55 224.69 212.6 225.32 211.53 225.32 210.87 224.69 209.8 223.73 208.85 222.97 208.49 
M 224.44 221.65 225.27 220.42 225.27 219.78 224.64 218.75 223.67 217.83 222.91 217.48 
M 216.06 96.42 216.8 95.99 217.76 94.89 218.37 93.66 218.37 92.89 217.98 92.1 
M 219.36 106.63 220.07 106.22 220.98 105.16 221.56 103.97 221.56 103.23 220.98 102.03 220.07 100.98 219.36 100.56 
M 221.53 123.63 222.22 123.29 223.11 122.43 223.68 121.45 223.68 120.85 223.11 119.88 222.22 119.01 221.53 118.68 
M 221.42 131.82 222.13 131.48 223.05 130.6 223.64 129.61 223.64 129 223.05 128.01 222.13 127.13 221.42 126.79 
M 220.96 148.83 221.64 148.48 222.52 147.6 223.09 146.6 223.09 145.98 222.52 144.97 221.64 144.09 220.96 143.74 
M 220.44 157.69 221.07 157.3 221.87 156.31 222.39 155.18 222.39 154.48 221.87 153.35 221.07 152.35 220.44 151.96 
M 224.77 174.21 224.66 174.12 
M 225.76 200.14 226.38 199.77 227.19 198.8 227.7 197.71 227.7 197.03 227.19 195.94 226.38 194.97 225.76 194.6 
M 225.86 209.45 226.49 209.07 227.29 208.11 227.81 207.02 227.81 206.35 227.29 205.26 226.49 204.3 225.86 203.93 
M 225.87 218.44 226.5 218.08 227.3 217.15 227.82 216.09 227.82 215.44 227.3 214.38 226.5 213.45 225.87 213.09 
M 221.11 102.01 222.01 101.6 223.16 100.54 223.9 99.35 223.9 98.61 223.16 97.42 222.01 96.36 221.11 95.95 
M 224.55 119.93 225.39 119.58 226.48 118.69 227.18 117.67 227.18 117.04 226.48 116.03 225.39 115.13 224.55 114.78 
M 223.97 163.24 224.73 162.82 225.71 161.72 226.34 160.49 226.34 159.72 225.71 158.48 224.73 157.39 223.97 156.96 
M 226.91 174.36 227.77 173.28 228.4 171.9 228.4 171.05 227.77 169.67 226.81 168.46 226.05 167.99 
M 228.69 195.65 229.44 195.26 230.39 194.26 231.01 193.13 231.01 192.43 230.39 191.3 229.47 190.33 
M 228.68 204.8 229.42 204.42 230.38 203.46 231 202.37 231 201.69 230.38 200.6 229.42 199.64 228.68 199.26 
M 228.74 213.95 229.49 213.58 230.45 212.64 231.07 211.56 231.07 210.9 230.45 209.83 229.49 208.88 228.74 208.51 
M 230.25 221.69 231.05 220.48 231.05 219.84 230.43 218.8 229.46 217.88 228.71 217.52 
M 223.05 97.56 223.85 97.15 224.87 96.11 225.52 94.92 225.52 94.18 224.87 92.99 223.85 91.95 223.05 91.54 
M 225.99 107.43 226.73 107.03 227.68 106.01 228.29 104.86 228.29 104.15 227.68 102.99 226.73 101.97 225.99 101.58 
M 227.51 116.15 228.23 115.79 229.14 114.87 229.73 113.83 229.73 113.19 229.14 112.15 228.23 111.23 227.51 110.87 
M 228.05 124.48 228.77 124.13 229.7 123.25 230.3 122.25 230.3 121.63 229.7 120.63 228.77 119.75 228.05 119.41 
M 228.24 132.98 229 132.63 229.97 131.73 230.6 130.72 230.6 130.09 229.97 129.07 229 128.18 228.24 127.83 
M 228.35 141.62 229.12 141.28 230.11 140.4 230.75 139.41 230.75 138.8 230.11 137.81 229.12 136.93 228.35 136.59 
M 227.53 149.54 228.27 149.21 229.22 148.37 229.83 147.42 229.83 146.84 229.22 145.89 228.27 145.05 227.53 144.73 
M 226.34 157.74 227.01 157.37 227.86 156.41 228.41 155.33 228.41 154.66 227.86 153.58 227.01 152.63 226.34 152.26 
M 227.39 168.74 228.03 168.27 228.84 167.06 229.37 165.69 229.37 164.85 228.84 163.48 228.03 162.27 227.39 161.8 
M 231.62 175.42 231.11 174.67 230.47 174.19 
M 231.63 191.16 232.25 190.76 233.05 189.73 233.47 188.77 
M 231.49 200.14 232.1 199.76 232.9 198.8 233.41 197.7 233.41 197.02 232.9 195.93 232.1 194.97 231.49 194.59 
M 231.6 209.46 232.22 209.08 233.02 208.12 233.54 207.03 233.54 206.36 233.02 205.27 232.22 204.31 231.6 203.93 
M 231.62 218.46 232.24 218.1 233.04 217.16 233.55 216.1 233.55 215.45 233.04 214.39 232.24 213.46 231.62 213.09 
M 225.4 93.51 226.4 93.14 227.68 92.2 228.51 91.12 228.5 90.45 
M 228.07 103.12 229.01 102.72 230.21 101.71 230.99 100.57 230.99 99.86 230.21 98.72 229.01 97.71 228.07 97.32 
M 230.13 112.26 231.01 111.89 232.15 110.94 232.88 109.86 232.88 109.19 232.15 108.11 231.01 107.15 230.13 106.78 
M 231.11 120.79 231.99 120.44 233.11 119.54 233.83 118.52 233.83 117.88 233.11 116.86 231.99 115.96 231.11 115.61 
M 231.57 129.32 232.46 128.97 233.6 128.07 234.34 127.05 234.34 126.42 233.6 125.4 232.46 124.5 231.57 124.15 
M 231.81 137.97 232.72 137.62 233.9 136.73 234.65 135.72 234.65 135.1 233.9 134.09 232.72 133.2 231.81 132.85 
M 231.43 146.18 232.34 145.85 233.51 145.01 234.26 144.05 234.26 143.45 233.51 142.49 232.34 141.65 231.43 141.32 
M 230.24 154.03 231.1 153.68 232.21 152.81 232.93 151.81 232.93 151.2 232.21 150.2 231.1 149.33 230.24 148.98 
M 229.96 163.43 230.77 163.01 231.82 161.94 232.49 160.74 232.49 159.99 231.82 158.78 230.77 157.71 229.96 157.3 
M 231.94 175.09 232.73 174.62 233.74 173.42 234.39 172.05 234.39 171.21 233.74 169.84 232.73 168.64 231.94 168.17 
M 234.4 195.62 235.15 195.23 236.1 194.24 236.71 193.11 236.71 192.41 236.1 191.29 235.15 190.3 234.4 189.91 
M 234.39 204.78 235.13 204.41 236.09 203.44 236.7 202.35 236.7 201.67 236.09 200.58 235.13 199.62 234.39 199.24 
M 234.47 213.96 235.22 213.59 236.18 212.64 236.79 211.57 236.79 210.9 236.18 209.83 235.22 208.88 234.47 208.51 
M 236.17 221.55 236.79 220.51 236.79 219.86 236.18 218.82 235.21 217.9 234.46 217.54 
M 230.37 99.02 231.2 98.63 232.25 97.63 232.93 96.5 232.93 95.8 232.25 94.68 231.2 93.68 230.37 93.29 
M 232.87 108.46 233.63 108.08 234.62 107.11 235.25 106 235.25 105.32 234.62 104.22 233.63 103.24 232.87 102.86 
M 234.14 117.02 234.87 116.66 235.81 115.76 236.42 114.73 236.42 114.09 235.81 113.07 234.87 112.16 234.14 111.8 
M 234.76 125.52 235.5 125.17 236.44 124.27 237.05 123.25 237.05 122.62 236.44 121.59 235.5 120.69 234.76 120.34 
M 235.22 134.29 235.97 133.94 236.94 133.02 237.57 131.98 237.57 131.34 236.94 130.3 235.97 129.39 235.22 129.03 
M 235.43 142.97 236.19 142.63 237.17 141.76 237.8 140.77 237.8 140.16 237.17 139.17 236.19 138.3 235.43 137.96 
M 234.42 150.61 235.18 150.29 236.15 149.49 236.78 148.58 236.78 148.02 236.15 147.11 235.18 146.3 234.42 145.99 
M 232.66 158.22 233.38 157.86 234.3 156.95 234.9 155.91 234.9 155.27 234.3 154.23 233.38 153.31 232.66 152.96 
M 233.44 169.01 234.13 168.55 235.02 167.36 235.58 166.01 235.58 165.18 235.02 163.83 234.13 162.64 233.44 162.18 
M 237.83 175.98 237.13 174.98 236.47 174.51 
M 237.35 191.09 237.96 190.7 238.76 189.68 239.27 188.54 239.15 187.57 
M 237.16 200.08 237.77 199.7 238.56 198.73 239.06 197.64 239.06 196.96 238.56 195.87 237.77 194.9 237.16 194.53 
M 237.32 209.46 237.94 209.08 238.74 208.11 239.25 207.02 239.25 206.35 238.74 205.25 237.94 204.29 237.32 203.91 
M 237.35 218.46 237.97 218.1 238.77 217.16 239.28 216.1 239.28 215.45 238.77 214.39 237.97 213.45 237.35 213.09 
M 232.98 95.25 234 94.9 235.31 93.99 236.15 92.97 236.15 92.34 235.31 91.32 234 90.41 233.5 90.24 
M 235.24 104.43 236.2 104.06 237.43 103.1 238.22 102.01 238.22 101.33 237.43 100.25 236.2 99.28 235.24 98.91 
M 236.95 113.28 237.85 112.92 239.01 111.99 239.75 110.95 239.75 110.3 239.01 109.25 237.85 108.32 236.95 107.96 
M 237.81 121.76 238.69 121.41 239.82 120.51 240.55 119.49 240.55 118.86 239.82 117.84 238.69 116.94 237.81 116.59 
M 238.35 130.41 239.23 130.06 240.36 129.15 241.09 128.12 241.09 127.48 240.36 126.45 239.23 125.54 238.35 125.19 
M 238.7 139.15 239.58 138.8 240.72 137.91 241.45 136.89 241.45 136.26 240.72 135.25 239.58 134.35 238.7 134 
M 238.33 147.34 239.22 147.02 240.36 146.18 241.1 145.22 241.1 144.63 240.36 143.68 239.22 142.84 238.33 142.52 
M 236.96 154.96 237.85 154.63 239 153.77 239.74 152.8 239.74 152.2 239 151.23 237.85 150.38 236.96 150.04 
M 236.39 164.05 237.27 163.65 238.39 162.61 239.11 161.44 239.11 160.71 238.39 159.54 237.27 158.5 236.39 158.09 
M 238.12 175.45 238.95 174.99 240.01 173.82 240.69 172.49 240.69 171.67 240.01 170.35 238.95 169.18 238.12 168.72 
M 240.07 195.52 240.81 195.13 241.75 194.15 242.36 193.04 242.36 192.35 241.75 191.24 240.81 190.25 240.07 189.87 
M 240.07 204.74 240.81 204.36 241.76 203.39 242.37 202.3 242.37 201.62 241.76 200.52 240.81 199.56 240.07 199.18 
M 240.2 213.96 240.94 213.59 241.9 212.64 242.52 211.56 242.52 210.89 241.9 209.81 240.94 208.86 240.2 208.49 
M 241.93 221.54 242.53 220.52 242.53 219.87 241.91 218.83 240.96 217.9 240.21 217.54 
M 235.77 91.7 236.64 91.38 237.77 90.56 238.1 90.14 
M 237.84 100.62 238.67 100.25 239.73 99.3 240.42 98.23 240.42 97.57 239.73 96.5 238.67 95.56 237.84 95.19 
M 239.89 109.64 240.66 109.28 241.65 108.35 242.29 107.29 242.29 106.64 241.65 105.59 240.66 104.66 239.89 104.29 
M 240.89 118 241.63 117.65 242.57 116.76 243.18 115.75 243.18 115.13 242.57 114.12 241.63 113.24 240.89 112.89 
M 241.47 126.51 242.19 126.16 243.12 125.25 243.71 124.23 243.71 123.6 243.12 122.58 242.19 121.68 241.47 121.32 
M 241.97 135.33 242.68 134.97 243.6 134.05 244.19 133.01 244.19 132.37 243.6 131.33 242.68 130.41 241.97 130.05 
M 242.18 144.02 242.9 143.68 243.81 142.8 244.4 141.81 244.4 141.19 243.81 140.2 242.9 139.32 242.18 138.97 
M 241.29 151.77 242.03 151.46 242.98 150.65 243.59 149.74 243.59 149.17 242.98 148.26 242.03 147.45 241.29 147.14 
M 239.47 159.26 240.23 158.91 241.21 158.01 241.84 156.99 241.84 156.36 241.21 155.34 240.23 154.44 239.47 154.09 
M 240.01 169.73 240.75 169.28 241.69 168.14 242.3 166.84 242.3 166.04 241.69 164.74 240.75 163.59 240.01 163.14 
M 243.51 175.86 242.58 175.05 
M 243 190.93 243.61 190.55 244.39 189.56 244.89 188.45 244.89 187.76 244.39 186.64 243.86 185.97 
M 242.78 199.98 243.39 199.6 244.18 198.63 244.68 197.53 244.68 196.85 244.18 195.75 243.39 194.78 242.78 194.4 
M 243.03 209.45 243.66 209.07 244.45 208.1 244.96 207 244.96 206.32 244.45 205.22 243.66 204.25 243.03 203.87 
M 243.08 218.47 243.7 218.1 244.5 217.16 245.02 216.1 245.02 215.44 244.5 214.38 243.7 213.44 243.08 213.08 
M 240.6 97.04 241.62 96.7 242.92 95.84 243.76 94.86 243.76 94.26 242.92 93.28 241.62 92.42 240.6 92.08 
M 242.45 105.79 243.4 105.44 244.62 104.52 245.4 103.49 245.4 102.85 244.62 101.81 243.4 100.9 242.45 100.54 
M 243.8 114.32 244.69 113.97 245.83 113.07 246.57 112.06 246.57 111.44 245.83 110.43 244.69 109.54 243.8 109.19 
M 244.47 122.65 245.33 122.3 246.43 121.42 247.14 120.42 247.14 119.8 246.43 118.8 245.33 117.91 244.47 117.57 
M 244.92 131.23 245.75 130.88 246.82 129.98 247.52 128.95 247.52 128.32 246.82 127.3 245.75 126.4 244.92 126.05 
M 245.21 139.95 246.04 139.6 247.09 138.7 247.77 137.68 247.77 137.05 247.09 136.04 246.04 135.14 245.21 134.79 
M 244.94 148.27 245.78 147.93 246.85 147.08 247.54 146.11 247.54 145.51 246.85 144.55 245.78 143.69 244.94 143.36 
M 243.77 156.08 244.66 155.74 245.79 154.88 246.52 153.9 246.52 153.29 245.79 152.32 244.66 151.45 243.77 151.11 
M 243.21 165.07 244.11 164.67 245.26 163.66 246 162.52 246 161.81 245.26 160.67 244.11 159.66 243.21 159.26 
M 244.52 175.95 245.36 175.52 246.43 174.41 247.13 173.15 247.13 172.37 246.43 171.11 245.36 169.99 244.52 169.56 
M 245.7 186.26 246.72 185.57 
M 245.69 195.37 246.42 194.99 247.36 194.02 247.97 192.92 247.97 192.24 247.36 191.14 246.42 190.16 245.69 189.78 
M 245.74 204.69 246.48 204.31 247.43 203.33 248.04 202.23 248.04 201.55 247.43 200.45 246.48 199.48 245.74 199.1 
M 245.92 213.96 246.67 213.59 247.62 212.63 248.24 211.55 248.24 210.88 247.62 209.8 246.67 208.84 245.92 208.47 
M 247.54 221.68 248.27 220.52 248.27 219.88 247.65 218.83 246.69 217.9 245.94 217.54 
M 243.54 93.68 244.41 93.37 245.53 92.58 246.25 91.68 246.25 91.13 245.18 89.99 
M 245.24 102.16 246.06 101.81 247.09 100.92 247.76 99.91 247.76 99.28 247.09 98.27 246.06 97.38 245.24 97.03 
M 246.84 110.75 247.59 110.4 248.55 109.52 249.17 108.51 249.17 107.89 248.55 106.89 247.59 106 246.84 105.65 
M 247.57 118.87 248.28 118.54 249.2 117.68 249.79 116.7 249.79 116.09 249.2 115.12 248.28 114.26 247.57 113.92 
M 247.95 127.21 248.64 126.87 249.52 125.98 250.09 124.99 250.09 124.37 249.52 123.37 248.64 122.49 247.95 122.14 
M 248.28 135.87 248.94 135.52 249.79 134.62 250.33 133.59 250.33 132.96 249.79 131.93 248.94 131.02 248.28 130.67 
M 248.43 144.57 249.08 144.22 249.92 143.33 250.46 142.33 250.46 141.7 249.92 140.7 249.08 139.81 248.43 139.46 
M 247.85 152.7 248.53 152.37 249.41 151.53 249.98 150.58 249.98 149.99 249.41 149.04 248.53 148.2 247.85 147.87 
M 246.49 160.59 247.24 160.23 248.21 159.32 248.83 158.29 248.83 157.66 248.21 156.63 247.24 155.72 246.49 155.36 
M 246.87 170.7 247.61 170.28 248.56 169.19 249.17 167.96 249.17 167.19 248.56 165.96 247.61 164.87 246.87 164.45 
M 250.31 177.51 249.29 176.01 248.64 175.6 
M 248.58 190.71 249.19 190.33 249.97 189.37 250.48 188.29 250.48 187.61 249.97 186.53 249.19 185.56 248.58 185.19 
M 248.4 199.88 249.01 199.5 249.8 198.52 250.31 197.41 250.31 196.73 249.8 195.62 249.01 194.65 248.4 194.27 
M 248.75 209.45 249.37 209.07 250.17 208.09 250.68 206.99 250.68 206.3 250.17 205.19 249.37 204.22 248.75 203.84 
M 248.81 218.47 249.44 218.1 250.24 217.17 250.75 216.1 250.75 215.44 250.24 214.38 249.44 213.44 248.81 213.08 
M 247.04 91.09 248.08 90.82 249.75 89.81 
M 248.11 98.7 249.1 98.38 250.36 97.57 251.18 96.65 251.18 96.08 250.36 95.15 249.1 94.34 248.11 94.02 
M 249.5 106.96 250.41 106.63 251.57 105.77 252.33 104.79 252.33 104.19 251.57 103.21 250.41 102.35 249.5 102.01 
M 250.46 115.14 251.31 114.81 252.41 113.95 253.11 112.98 253.11 112.38 252.41 111.42 251.31 110.56 250.46 110.23 
M 250.88 123.25 251.7 122.92 252.75 122.06 253.43 121.09 253.43 120.49 252.75 119.52 251.7 118.66 250.88 118.33 
M 251.1 131.63 251.89 131.28 252.9 130.4 253.55 129.4 253.55 128.79 252.9 127.79 251.89 126.91 251.1 126.56 
M 251.25 140.24 252.02 139.9 252.99 139 253.63 137.99 253.63 137.36 252.99 136.35 252.02 135.45 251.25 135.1 
M 251.08 148.75 251.86 148.4 252.85 147.53 253.49 146.53 253.49 145.92 252.85 144.92 251.86 144.05 251.08 143.7 
M 250.34 157 251.18 156.65 252.25 155.76 252.94 154.75 252.94 154.12 252.25 153.11 251.18 152.22 250.34 151.87 
M 250 166.09 250.87 165.7 251.99 164.71 252.71 163.58 252.71 162.89 251.99 161.76 250.87 160.77 250 160.38 
M 250.88 176.41 251.69 176 252.74 174.95 253.42 173.75 253.42 173.01 252.74 171.82 251.69 170.76 250.88 170.35 
M 251.49 186.2 252.25 185.81 253.21 184.81 253.83 183.68 253.83 183.25 
M 251.33 195.26 252.07 194.88 253.02 193.92 253.63 192.82 253.63 192.14 253.02 191.05 252.07 190.08 251.33 189.7 
M 251.24 95.54 252.08 95.25 253.15 94.5 253.84 93.66 253.84 93.13 253.15 92.29 252.08 91.54 251.24 91.25 
M 252.42 103.43 253.19 103.11 254.18 102.28 254.81 101.34 254.81 100.76 254.18 99.82 253.19 98.99 252.42 98.67 
M 253.48 111.52 254.18 111.19 255.09 110.35 255.68 109.4 255.68 108.81 255.09 107.86 254.18 107.03 253.48 106.7 
M 253.93 119.43 254.61 119.1 255.48 118.27 256.04 117.33 256.04 116.74 255.48 115.8 254.61 114.96 253.93 114.64 
M 254.06 127.51 254.72 127.17 255.55 126.32 256.09 125.35 256.09 124.76 255.55 123.79 254.72 122.94 254.06 122.6 
M 254.11 135.92 254.73 135.57 255.53 134.69 256.05 133.68 256.05 133.06 255.53 132.06 254.73 131.17 254.11 130.83 
M 254.18 144.61 254.79 144.26 255.58 143.37 256.08 142.35 256.08 141.72 255.58 140.7 254.79 139.81 254.18 139.45 
M 253.86 153.1 254.5 152.76 255.32 151.88 255.85 150.88 255.85 150.26 255.32 149.26 254.5 148.37 253.86 148.03 
M 253.16 161.61 253.87 161.25 254.78 160.31 255.37 159.25 255.37 158.6 254.78 157.54 253.87 156.6 253.16 156.23 
M 253.48 171.45 254.18 171.05 255.08 170 255.67 168.83 255.67 168.09 255.08 166.92 254.18 165.87 253.48 165.47 
M 256.49 178.54 255.96 177.31 255.15 176.3 254.52 175.9 
M 254.62 92.88 255.59 92.62 256.84 91.95 257.65 91.19 257.65 90.72 257.42 90.5 
M 255.33 100.06 256.26 99.76 257.45 99 258.21 98.13 258.21 97.6 257.45 96.73 256.26 95.97 255.33 95.67 
M 256.22 107.81 257.08 107.5 258.18 106.69 258.89 105.77 258.89 105.2 258.18 104.28 257.08 103.47 256.22 103.16 
M 256.8 115.66 257.62 115.34 258.66 114.52 259.33 113.59 259.33 113.02 258.66 112.09 257.62 111.27 256.8 110.95 
M 257 123.57 257.79 123.25 258.8 122.41 259.45 121.47 259.45 120.89 258.8 119.95 257.79 119.12 257 118.79 
M 256.97 131.69 257.73 131.36 258.7 130.5 259.32 129.53 259.32 128.93 258.7 127.96 257.73 127.1 256.97 126.76 
M 256.92 140.17 257.66 139.82 258.6 138.93 259.2 137.92 259.2 137.3 258.6 136.3 257.66 135.41 256.92 135.06 
M 256.83 148.84 257.58 148.49 258.53 147.58 259.14 146.56 259.14 145.93 258.53 144.91 257.58 144 256.83 143.65 
M 256.53 157.56 257.32 157.2 258.34 156.27 258.99 155.22 258.99 154.57 258.34 153.52 257.32 152.59 256.53 152.23 
M 256.47 166.81 257.29 166.43 258.35 165.44 259.04 164.32 259.04 163.63 258.35 162.51 257.29 161.52 256.47 161.14 
M 257.01 176.7 257.8 176.3 258.81 175.29 259.46 174.14 259.46 173.43 258.81 172.28 257.8 171.27 257.01 170.87 
M 258.49 96.95 259.26 96.68 260.24 95.97 260.87 95.17 260.87 94.68 260.24 93.88 259.26 93.17 258.49 92.89 
M 259.19 104.32 259.9 104.02 260.82 103.24 261.42 102.37 261.42 101.82 260.82 100.95 259.9 100.17 259.19 99.87 
M 259.78 111.98 260.45 111.67 261.31 110.87 261.87 109.96 261.87 109.4 261.31 108.5 260.45 107.7 259.78 107.38 
M 260.03 119.73 260.68 119.42 261.52 118.6 262.06 117.68 262.06 117.11 261.52 116.19 260.68 115.38 260.03 115.07 
M 259.73 135.74 260.34 135.4 261.12 134.53 261.63 133.56 261.63 132.95 261.12 131.97 260.34 131.11 259.73 130.77 
M 259.68 144.39 260.27 144.04 261.04 143.13 261.53 142.11 261.53 141.48 261.04 140.45 260.27 139.55 259.68 139.19 
M 259.61 153.24 260.24 152.88 261.04 151.96 261.55 150.91 261.55 150.26 261.04 149.21 260.24 148.29 259.61 147.93 
M 259.47 162.27 260.14 161.9 261.01 160.93 261.56 159.84 261.56 159.17 261.01 158.08 260.14 157.12 259.47 156.74 
M 259.96 190.59 260.58 190.22 261.38 189.27 261.9 188.19 261.9 187.52 261.38 186.44 260.58 185.49 259.96 185.12 
M 261.64 94.13 262.53 93.87 263.67 93.22 264.4 92.49 264.4 92.15 
M 262.08 100.97 262.93 100.69 264.03 99.96 264.74 99.14 264.74 98.63 264.03 97.81 262.93 97.09 262.08 96.8 
M 262.58 108.34 263.39 108.04 264.43 107.26 265.1 106.39 265.1 105.85 264.43 104.97 263.39 104.2 262.58 103.9 
M 262.89 115.96 263.68 115.65 264.68 114.85 265.33 113.95 265.33 113.39 264.68 112.48 263.68 111.68 262.89 111.37 
M 262.94 123.73 263.71 123.42 264.7 122.6 265.34 121.68 265.34 121.11 264.7 120.19 263.71 119.37 262.94 119.06 
M 262.72 131.66 263.48 131.33 264.44 130.49 265.07 129.54 265.07 128.96 264.44 128.01 263.48 127.17 262.72 126.84 
M 265.12 97.79 265.82 97.52 266.72 96.84 267.29 96.07 267.29 95.59 266.72 94.82 265.82 94.14 265.12 93.87 
M 265.82 112.23 266.47 111.93 267.3 111.15 267.84 110.27 267.84 109.72 267.3 108.84 266.47 108.07 265.82 107.76 
M 265.34 153.32 265.97 152.95 266.78 151.99 267.3 150.91 267.3 150.24 266.78 149.16 265.97 148.21 265.34 147.84 
M 268.08 94.81 268.91 94.56 269.81 94.01 
M 268.36 101.46 269.16 101.18 270.19 100.48 270.85 99.68 270.85 99.19 270.19 98.39 269.16 97.69 268.36 97.41 
M 268.64 108.61 269.42 108.32 270.42 107.57 271.06 106.71 271.06 106.19 270.42 105.33 269.42 104.58 268.64 104.29 
M 268.8 116.1 269.57 115.8 270.55 115.01 271.18 114.12 271.18 113.57 270.55 112.68 269.57 111.89 268.8 111.58 
M 268.8 123.84 269.56 123.52 270.53 122.71 271.16 121.8 271.16 121.23 270.53 120.32 269.56 119.51 268.8 119.19 
M 268.52 131.71 269.28 131.38 270.26 130.55 270.89 129.61 270.89 129.03 270.26 128.09 269.28 127.26 268.52 126.93 
M 268.37 158.05 269.14 157.67 270.12 156.7 270.76 155.61 270.76 154.93 270.12 153.84 269.14 152.88 268.37 152.5 
M 271.27 98.17 271.92 97.91 272.77 97.24 273.31 96.48 273.31 96.01 272.56 95.09 
M 271.7 112.34 272.33 112.04 273.14 111.28 273.67 110.41 273.67 109.87 273.14 109 272.33 108.24 271.7 107.94 
M 271.75 119.96 272.38 119.64 273.18 118.84 273.7 117.94 273.7 117.38 273.18 116.47 272.38 115.67 271.75 115.36 
M 271.67 127.81 272.3 127.5 273.11 126.68 273.63 125.75 273.63 125.18 273.11 124.25 272.3 123.44 271.67 123.12 
M 271.2 153.46 271.85 153.08 272.67 152.13 273.2 151.04 273.2 150.37 272.67 149.29 271.85 148.34 271.2 147.96 
M 274.34 101.68 275.12 101.41 276.11 100.72 276.74 99.94 276.74 99.45 276.11 98.66 275.12 97.97 274.34 97.7 
M 274.52 108.73 275.28 108.44 276.25 107.7 276.88 106.86 276.88 106.34 276.25 105.5 275.28 104.75 274.52 104.46 
M 274.61 116.16 275.36 115.85 276.32 115.07 276.95 114.19 276.95 113.64 276.32 112.75 275.36 111.97 274.61 111.67 
M 274.59 123.91 275.34 123.59 276.31 122.78 276.93 121.86 276.93 121.29 276.31 120.38 275.34 119.56 274.59 119.25 
M 274.37 131.83 275.13 131.5 276.1 130.67 276.73 129.72 276.73 129.14 276.1 128.19 275.13 127.36 274.37 127.03 
M 274.29 158.24 275.06 157.86 276.06 156.9 276.7 155.8 276.7 155.13 276.06 154.03 275.06 153.07 274.29 152.69 
M 274.57 176.94 275.32 176.56 276.29 175.59 276.91 174.49 276.91 173.81 276.29 172.71 275.32 171.73 274.57 171.35 
M 277.21 98.36 277.85 98.1 278.47 97.6 
M 277.37 105.15 278.01 104.87 278.82 104.16 279.34 103.34 279.34 102.84 278.82 102.03 278.01 101.31 277.37 101.03 
M 277.48 112.37 278.1 112.07 278.9 111.31 279.42 110.45 279.42 109.92 278.9 109.06 278.1 108.3 277.48 108 
M 277.5 119.97 278.12 119.66 278.92 118.86 279.44 117.95 279.44 117.39 278.92 116.48 278.12 115.68 277.5 115.37 
M 277.45 127.88 278.08 127.56 278.88 126.74 279.4 125.8 279.4 125.23 278.88 124.29 278.08 123.47 277.45 123.15 
M 280.19 101.78 280.95 101.51 281.92 100.83 282.54 100.05 282.41 99.4 
M 280.3 108.77 281.05 108.48 282.02 107.74 282.64 106.91 282.64 106.39 282.02 105.56 281.05 104.82 280.3 104.53 
M 280.34 123.93 281.09 123.61 282.05 122.8 282.66 121.88 282.66 121.31 282.05 120.39 281.09 119.57 280.34 119.26 
M 279.95 140.25 280.71 139.91 281.68 139.02 282.31 138.01 282.31 137.39 281.68 136.39 280.71 135.5 279.95 135.15 
M 280.02 149.19 280.79 148.83 281.77 147.89 282.41 146.82 282.41 146.17 281.77 145.1 280.79 144.17 280.02 143.8 
M 283.14 105.18 283.77 104.9 284.57 104.19 285.08 103.38 285.08 102.88 284.57 102.07 283.77 101.36 283.14 101.08 
M 283.21 112.37 283.84 112.07 284.63 111.31 285.15 110.45 285.15 109.92 284.63 109.06 283.84 108.3 283.21 108.01 
M 283.18 127.89 283.81 127.57 284.6 126.74 285.11 125.8 285.11 125.22 284.6 124.29 283.81 123.46 283.18 123.14 
M 282.9 135.97 283.52 135.63 284.32 134.77 284.84 133.8 284.84 133.19 284.32 132.22 283.52 131.36 282.9 131.02 
M 282.82 144.66 283.46 144.3 284.27 143.38 284.79 142.33 284.79 141.68 284.27 140.64 283.46 139.72 282.82 139.36 
M 283.23 163.1 283.85 162.72 284.65 161.76 285.17 160.68 285.17 160 284.65 158.92 283.85 157.96 283.23 157.58 
M 285.94 101.79 286.75 101.48 
M 286.03 108.75 286.77 108.47 287.72 107.73 288.33 106.9 288.33 106.38 287.72 105.55 286.77 104.81 286.03 104.53 
M 286.06 123.91 286.8 123.59 287.75 122.78 288.36 121.86 288.36 121.29 287.75 120.37 286.8 119.56 286.06 119.24 
M 285.73 140.33 286.48 139.98 287.44 139.08 288.06 138.07 288.06 137.44 287.44 136.43 286.48 135.53 285.73 135.18 
M 286.03 158.47 286.78 158.1 287.74 157.15 288.36 156.07 288.36 155.41 287.74 154.33 286.78 153.38 286.03 153.01 
M 288.84 105.14 289.46 104.86 290.24 104.15 290.73 103.36 
M 288.94 119.94 289.56 119.63 290.35 118.83 290.86 117.93 290.86 117.37 290.35 116.46 289.56 115.66 288.94 115.35 
M 288.87 127.83 289.48 127.51 290.26 126.69 290.77 125.75 290.77 125.17 290.26 124.24 289.48 123.41 288.87 123.09 
M 288.59 135.94 289.2 135.61 289.99 134.74 290.49 133.76 290.49 133.15 289.99 132.17 289.2 131.3 288.59 130.96 
M 288.94 181.66 289.56 181.28 290.36 180.29 290.87 179.18 290.87 178.49 290.36 177.37 289.56 176.39 288.94 176.01 
M 288.94 190.97 289.56 190.59 290.35 189.61 290.86 188.51 290.86 187.83 290.35 186.73 289.56 185.76 288.94 185.38 
M 288.92 200.24 289.54 199.87 290.33 198.9 290.84 197.81 290.84 197.13 290.33 196.03 289.54 195.07 288.92 194.69 
M 288.94 209.43 289.55 209.06 290.34 208.11 290.85 207.03 290.85 206.36 290.34 205.28 289.55 204.33 288.94 203.95 
M 290.69 215.13 290.31 214.34 289.52 213.41 288.9 213.04 
M 291.42 140.3 292.16 139.95 293.11 139.05 293.73 138.03 293.73 137.39 293.11 136.37 292.16 135.47 291.42 135.12 
M 291.72 158.4 292.46 158.03 293.41 157.09 294.02 156.02 294.02 155.36 293.41 154.3 292.46 153.36 291.72 152.99 
M 291.55 167.42 292.28 167.05 293.21 166.09 293.81 165 293.81 164.33 293.21 163.25 292.28 162.29 291.55 161.92 
M 291.64 176.84 292.38 176.46 293.32 175.48 293.92 174.37 293.92 173.68 293.32 172.56 292.38 171.58 291.64 171.2 
M 291.79 186.3 292.53 185.92 293.49 184.94 294.1 183.83 294.1 183.14 293.49 182.03 292.53 181.05 291.79 180.67 
M 291.76 195.56 292.5 195.18 293.46 194.22 294.07 193.12 294.07 192.44 293.46 191.34 292.5 190.38 291.76 190 
M 291.75 204.79 292.49 204.42 293.44 203.46 294.05 202.37 294.05 201.7 293.44 200.61 292.49 199.65 291.75 199.28 
M 291.74 213.87 292.48 213.51 293.42 212.56 294.03 211.49 294.03 210.83 293.42 209.76 292.48 208.82 291.74 208.45 
M 294.52 112.21 295.11 111.92 295.87 111.15 296.36 110.29 296.36 109.76 295.87 108.89 295.11 108.13 294.52 107.83 
M 294.57 119.83 295.16 119.52 295.92 118.72 296.41 117.82 296.41 117.26 295.92 116.35 295.16 115.56 294.57 115.24 
M 294.44 127.67 295.04 127.35 295.8 126.52 296.29 125.59 296.29 125.02 295.8 124.09 295.04 123.26 294.44 122.94 
M 294.16 135.8 294.77 135.45 295.55 134.58 296.05 133.59 296.05 132.98 295.55 131.99 294.77 131.12 294.16 130.78 
M 294.32 144.73 294.94 144.37 295.75 143.43 296.26 142.36 296.26 141.7 295.75 140.64 294.94 139.7 294.32 139.33 
M 294.7 153.97 295.32 153.61 296.12 152.67 296.63 151.6 296.63 150.94 296.12 149.88 295.32 148.94 294.7 148.57 
M 294.4 162.72 295.01 162.35 295.78 161.42 296.28 160.37 296.28 159.71 295.78 158.66 295.01 157.73 294.4 157.36 
M 294.26 171.93 294.86 171.55 295.63 170.57 296.13 169.46 296.13 168.77 295.63 167.66 294.86 166.68 294.26 166.29 
M 294.66 181.67 295.28 181.29 296.07 180.29 296.58 179.17 296.58 178.47 296.07 177.35 295.28 176.36 294.66 175.97 
M 294.62 190.9 295.24 190.52 296.04 189.55 296.55 188.46 296.55 187.78 296.04 186.68 295.24 185.71 294.62 185.33 
M 294.56 200.14 295.18 199.76 295.97 198.8 296.48 197.71 296.48 197.03 295.97 195.93 295.18 194.97 294.56 194.59 
M 294.59 209.35 295.21 208.98 296 208.03 296.5 206.95 296.5 206.28 296 205.2 295.21 204.25 294.59 203.87 
M 295.47 213.69 294.53 212.94 
M 297.13 108.38 297.82 108.09 298.86 107.13 
M 297.19 115.8 297.87 115.49 298.75 114.71 299.31 113.83 299.31 113.28 298.75 112.4 297.87 111.62 297.19 111.31 
M 297.17 123.56 297.86 123.24 298.74 122.42 299.31 121.5 299.31 120.93 298.74 120 297.86 119.19 297.17 118.87 
M 297.04 131.64 297.76 131.3 298.68 130.44 299.28 129.47 299.28 128.87 298.68 127.9 297.76 127.04 297.04 126.7 
M 297.1 140.28 297.85 139.92 298.81 139.01 299.43 137.97 299.43 137.33 298.81 136.3 297.85 135.38 297.1 135.02 
M 297.39 149.37 298.15 149 299.11 148.07 299.73 147 299.73 146.35 299.11 145.28 298.15 144.34 297.39 143.98 
M 297.37 158.28 298.1 157.92 299.04 156.99 299.64 155.94 299.64 155.28 299.04 154.23 298.1 153.3 297.37 152.94 
M 297.1 167.22 297.82 166.85 298.74 165.9 299.33 164.81 299.33 164.15 298.74 163.06 297.82 162.11 297.1 161.74 
M 297.25 176.75 297.98 176.36 298.91 175.37 299.51 174.24 299.51 173.55 298.91 172.43 297.98 171.43 297.25 171.05 
M 297.5 186.29 298.24 185.91 299.19 184.92 299.8 183.81 299.8 183.12 299.19 182 298.24 181.02 297.5 180.63 
M 297.47 195.54 298.22 195.16 299.18 194.19 299.8 193.1 299.8 192.42 299.18 191.33 298.22 190.36 297.47 189.98 
M 297.43 204.73 298.18 204.36 299.14 203.4 299.75 202.32 299.75 201.65 299.14 200.56 298.18 199.61 297.43 199.24 
M 299.02 212.52 299.69 211.4 299.69 210.75 299.07 209.68 298.13 208.74 297.39 208.38 
M 299.81 111.76 300.36 111.46 301.06 110.7 301.51 109.84 301.51 109.31 301.06 108.45 300.53 107.88 
M 299.86 119.39 300.4 119.08 301.1 118.28 301.55 117.37 301.55 116.81 301.1 115.9 300.4 115.1 299.86 114.79 
M 299.8 127.33 300.37 127.01 301.1 126.17 301.57 125.22 301.57 124.63 301.1 123.68 300.37 122.84 299.8 122.51 
M 299.77 135.74 300.4 135.39 301.19 134.5 301.71 133.48 301.71 132.85 301.19 131.83 300.4 130.93 299.77 130.58 
M 300.14 144.84 300.78 144.47 301.6 143.53 302.13 142.46 302.13 141.79 301.6 140.72 300.78 139.78 300.14 139.41 
M 300.42 153.93 301.04 153.57 301.83 152.64 302.34 151.59 302.34 150.94 301.83 149.89 301.04 148.97 300.42 148.6 
M 299.96 162.51 300.55 162.15 301.32 161.23 301.81 160.18 301.81 159.54 301.32 158.49 300.55 157.57 299.96 157.21 
M 299.79 171.74 300.38 171.36 301.14 170.37 301.63 169.25 301.63 168.56 301.14 167.45 300.38 166.46 299.79 166.07 
M 300.31 181.63 300.92 181.24 301.69 180.24 302.19 179.1 302.19 178.39 301.69 177.25 300.92 176.24 300.31 175.85 
M 300.4 190.97 301.03 190.59 301.83 189.61 302.35 188.51 302.35 187.83 301.83 186.73 301.03 185.75 300.4 185.37 
M 300.32 200.15 300.95 199.77 301.75 198.81 302.27 197.73 302.27 197.05 301.75 195.97 300.95 195.01 300.32 194.63 
M 300.27 209.28 300.89 208.91 301.69 207.96 302.21 206.89 302.21 206.23 301.69 205.16 300.89 204.21 300.27 203.84 
M 302.13 114.99 302.76 114.69 303.56 113.91 304.08 113.03 304.08 112.48 303.56 111.6 302.76 110.82 302.13 110.52 
M 302.22 122.95 302.87 122.62 303.69 121.78 304.23 120.82 304.23 120.23 303.69 119.27 302.87 118.43 302.22 118.1 
M 302.5 131.48 303.22 131.12 304.13 130.23 304.72 129.21 304.72 128.58 304.13 127.56 303.22 126.66 302.5 126.31 
M 302.9 140.4 303.67 140.04 304.64 139.11 305.27 138.05 305.27 137.4 304.64 136.34 303.67 135.41 302.9 135.05 
M 303.17 149.38 303.92 149.02 304.88 148.09 305.5 147.04 305.5 146.4 304.88 145.35 303.92 144.42 303.17 144.06 
M 302.94 158.07 303.66 157.71 304.58 156.8 305.17 155.76 305.17 155.12 304.58 154.09 303.66 153.17 302.94 152.82 
M 302.56 166.94 303.27 166.57 304.17 165.61 304.75 164.54 304.75 163.87 304.17 162.79 303.27 161.84 302.56 161.47 
M 302.76 176.55 303.47 176.16 304.38 175.15 304.97 174.02 304.97 173.31 304.38 172.18 303.47 171.18 302.76 170.78 
M 303.16 186.27 303.89 185.88 304.83 184.88 305.43 183.74 305.43 183.04 304.83 181.91 303.89 180.91 303.16 180.52 
M 303.25 195.6 304 195.22 304.96 194.25 305.58 193.15 305.58 192.47 304.96 191.37 304 190.39 303.25 190.02 
M 303.2 204.75 303.95 204.37 304.91 203.42 305.54 202.34 305.54 201.68 304.91 200.6 303.95 199.65 303.2 199.28 
M 305.01 210.04 303.83 208.72 303.08 208.36 
M 304.47 110.59 305.25 110 
M 304.38 118.23 304.87 117.91 305.5 117.09 305.91 116.15 305.91 115.58 305.5 114.65 304.87 113.82 304.38 113.5 
M 304.84 126.84 305.39 126.48 306.09 125.57 306.55 124.54 306.55 123.9 306.09 122.87 305.39 121.96 304.84 121.61 
M 305.6 135.98 306.24 135.61 307.06 134.67 307.58 133.59 307.58 132.93 307.06 131.85 306.24 130.9 305.6 130.53 
M 306.1 145.04 306.74 144.67 307.56 143.74 308.09 142.68 308.09 142.03 307.56 140.97 306.74 140.03 306.1 139.67 
M 306.03 153.71 306.63 153.36 307.4 152.47 307.89 151.45 307.89 150.82 307.4 149.81 306.63 148.91 306.03 148.56 
M 305.34 162.12 305.92 161.76 306.67 160.85 307.15 159.82 307.15 159.19 306.67 158.16 305.92 157.25 305.34 156.89 
M 305.15 171.38 305.73 170.99 306.48 170 306.96 168.88 306.96 168.18 306.48 167.06 305.73 166.07 305.15 165.68 
M 305.79 181.43 306.38 181.03 307.13 180 307.62 178.84 307.62 178.12 307.13 176.96 306.38 175.93 305.79 175.53 
M 306.15 191.03 306.76 190.65 307.55 189.65 308.05 188.53 308.05 187.83 307.55 186.71 306.76 185.72 306.15 185.33 
M 306.15 200.25 306.78 199.88 307.58 198.92 308.1 197.83 308.1 197.15 307.58 196.07 306.78 195.1 306.15 194.73 
M 306.05 209.3 306.68 208.94 307.48 208 308 206.93 308 206.27 307.48 205.21 306.68 204.27 306.05 203.9 
M 306.49 113.6 307.09 113.29 307.86 112.52 308.35 111.48 
M 306.84 122 307.47 121.64 308.27 120.74 308.79 119.72 308.79 119.08 308.27 118.06 307.47 117.15 306.84 116.8 
M 307.93 131.37 308.64 130.99 309.56 130.02 310.15 128.92 310.15 128.24 309.56 127.14 308.64 126.17 307.93 125.79 
M 308.77 140.59 309.53 140.22 310.51 139.27 311.14 138.19 311.14 137.53 310.51 136.45 309.53 135.51 308.77 135.14 
M 308.87 149.28 309.61 148.93 310.55 148.02 311.16 147 311.16 146.37 310.55 145.34 309.61 144.44 308.87 144.09 
M 308.37 157.71 309.08 157.36 309.99 156.47 310.58 155.45 310.58 154.82 309.99 153.81 309.08 152.91 308.37 152.56 
M 307.9 166.53 308.6 166.16 309.5 165.21 310.08 164.14 310.08 163.47 309.5 162.4 308.6 161.45 307.9 161.08 
M 308.13 176.2 308.83 175.81 309.73 174.8 310.31 173.65 310.31 172.94 309.73 171.79 308.83 170.78 308.13 170.38 
M 308.68 186.1 309.4 185.71 310.32 184.69 310.91 183.53 310.91 182.82 310.32 181.67 309.4 180.65 308.68 180.25 
M 308.97 195.62 309.7 195.23 310.65 194.25 311.26 193.13 311.26 192.44 310.65 191.32 309.7 190.34 308.97 189.95 
M 308.98 204.8 309.73 204.43 310.7 203.48 311.32 202.4 311.32 201.73 310.7 200.65 309.73 199.69 308.98 199.32 
M 308.9 208.43 308.85 208.41 
M 308.37 116.58 308.86 116.24 309.5 115.38 309.91 114.4 309.91 113.8 309.5 112.82 308.86 111.96 308.37 111.62 
M 309.77 126.34 310.33 125.94 311.04 124.92 311.5 123.77 311.5 123.05 311.04 121.89 310.33 120.87 309.77 120.47 
M 311.5 136.29 312.13 135.9 312.95 134.9 313.47 133.77 313.47 133.07 312.95 131.94 312.13 130.94 311.5 130.55 
M 311.89 145.03 312.52 144.67 313.32 143.76 313.83 142.73 313.83 142.09 313.32 141.06 312.52 140.15 311.89 139.8 
M 311.46 153.34 312.05 153 312.82 152.12 313.31 151.13 313.31 150.52 312.82 149.54 312.05 148.66 311.46 148.32 
M 310.65 161.68 311.24 161.32 311.99 160.42 312.48 159.4 312.48 158.76 311.99 157.74 311.24 156.84 310.65 156.48 
M 310.46 170.95 311.04 170.56 311.8 169.57 312.28 168.45 312.28 167.75 311.8 166.63 311.04 165.63 310.46 165.25 
M 311.11 181.06 311.7 180.65 312.45 179.61 312.94 178.43 312.94 177.7 312.45 176.53 311.7 175.49 311.11 175.08 
M 311.68 190.9 312.29 190.5 313.06 189.49 313.55 188.34 313.55 187.63 313.06 186.48 312.29 185.46 311.68 185.07 
M 311.88 200.29 312.5 199.91 313.3 198.93 313.81 197.83 313.81 197.15 313.3 196.04 312.5 195.07 311.88 194.69 
M 313.79 206.4 313.28 205.27 312.47 204.33 311.84 203.96 
M 311.53 121.12 312.2 120.75 313.07 119.78 313.63 118.68 313.63 118 313.07 116.9 312.2 115.94 311.53 115.56 
M 313.4 131.29 314.13 130.89 315.07 129.85 315.67 128.68 315.67 127.95 315.07 126.78 314.13 125.74 313.4 125.33 
M 314.57 140.68 315.32 140.3 316.29 139.34 316.91 138.26 316.91 137.59 316.29 136.5 315.32 135.55 314.57 135.17 
M 314.47 149.09 315.21 148.74 316.15 147.86 316.75 146.86 316.75 146.24 316.15 145.23 315.21 144.35 314.47 144 
M 313.8 157.37 314.52 157.03 315.45 156.14 316.05 155.14 316.05 154.52 315.45 153.52 314.52 152.63 313.8 152.29 
M 313.29 166.18 314.02 165.81 314.94 164.86 315.54 163.79 315.54 163.13 314.94 162.05 314.02 161.11 313.29 160.74 
M 313.52 175.87 314.24 175.47 315.16 174.46 315.76 173.3 315.76 172.59 315.16 171.44 314.24 170.42 313.52 170.03 
M 314.14 185.87 314.87 185.46 315.8 184.43 316.39 183.26 316.39 182.54 315.8 181.37 314.87 180.34 314.14 179.94 
M 314.58 195.55 315.32 195.16 316.26 194.15 316.87 193.02 316.87 192.32 316.26 191.18 315.32 190.18 314.58 189.79 
M 314.72 204.83 315.47 204.46 316.43 203.5 317.04 202.41 317.04 201.73 316.43 200.64 315.47 199.68 314.72 199.3 
M 312.95 115.5 313.54 115.16 314.12 114.47 
M 315.02 126.07 315.63 125.64 316.41 124.55 316.91 123.3 316.91 122.53 316.41 121.29 315.63 120.19 315.02 119.76 
M 317.32 136.46 317.95 136.06 318.75 135.03 319.27 133.87 319.27 133.15 318.75 131.98 317.95 130.96 317.32 130.56 
M 317.57 144.92 318.19 144.57 318.98 143.68 319.5 142.67 319.5 142.04 318.98 141.03 318.19 140.14 317.57 139.79 
M 316.96 153.07 317.57 152.73 318.35 151.87 318.86 150.89 318.86 150.29 318.35 149.31 317.57 148.45 316.96 148.11 
M 316.13 161.41 316.75 161.06 317.53 160.16 318.04 159.14 318.04 158.5 317.53 157.48 316.75 156.58 316.13 156.23 
M 315.94 170.69 316.55 170.3 317.34 169.31 317.85 168.19 317.85 167.49 317.34 166.37 316.55 165.38 315.94 164.99 
M 316.57 180.78 317.18 180.37 317.96 179.33 318.46 178.15 318.46 177.42 317.96 176.24 317.18 175.19 316.57 174.79 
M 317.22 190.73 317.83 190.33 318.61 189.3 319.12 188.14 319.12 187.42 318.61 186.26 317.83 185.23 317.22 184.83 
M 317.56 200.27 318.17 199.88 318.97 198.89 319.48 197.77 319.48 197.08 318.97 195.96 318.17 194.98 317.56 194.59 
M 318.33 204.46 317.6 203.97 
M 317.01 120.92 317.8 120.54 318.81 119.55 319.46 118.43 319.46 117.74 319.26 117.4 
M 319.09 131.3 319.86 130.89 320.84 129.83 321.47 128.64 321.47 127.9 320.84 126.71 319.86 125.65 319.09 125.24 
M 320.31 140.69 321.07 140.31 322.03 139.36 322.65 138.27 322.65 137.6 322.03 136.52 321.07 135.56 320.31 135.18 
M 320.14 149.01 320.89 148.67 321.85 147.79 322.46 146.79 322.46 146.17 321.85 145.18 320.89 144.3 320.14 143.96 
M 319.45 157.29 320.2 156.94 321.17 156.06 321.8 155.05 321.8 154.43 321.17 153.43 320.2 152.55 319.45 152.2 
M 318.96 166.11 319.72 165.74 320.7 164.8 321.33 163.72 321.33 163.06 320.7 161.99 319.72 161.04 318.96 160.67 
M 319.16 175.77 319.91 175.37 320.88 174.36 321.51 173.21 321.51 172.5 320.88 171.35 319.91 170.34 319.16 169.94 
M 319.76 185.75 320.51 185.35 321.46 184.32 322.07 183.15 322.07 182.42 321.46 181.25 320.51 180.22 319.76 179.82 
M 322.7 202.52 322.77 201.72 322.15 200.62 321.19 199.66 320.45 199.28 
M 320.96 126.22 321.65 125.8 322.52 124.72 323.09 123.51 323.09 122.76 322.52 121.54 321.65 120.47 320.96 120.05 
M 323.07 136.44 323.69 136.04 324.5 135.03 325.01 133.88 325.01 133.17 324.5 132.02 323.69 131 323.07 130.61 
M 323.31 144.93 323.93 144.58 324.73 143.68 325.25 142.67 325.25 142.04 324.73 141.03 323.93 140.14 323.31 139.79 
M 323.52 121.59 324.41 121.22 324.91 120.8 
M 326.07 140.67 326.82 140.3 327.79 139.36 328.41 138.29 328.41 137.63 327.79 136.56 326.82 135.62 326.07 135.25 
M 328.64 153.37 329.29 153.02 330.11 152.13 330.64 151.12 330.64 150.5 330.11 149.49 329.29 148.61 328.64 148.26 
M 331.29 131.71 332.1 131.34 333.13 130.4 333.79 129.34 333.79 128.68 333.13 127.62 332.1 126.68 331.29 126.32 
M 334.82 145 335.44 144.65 336.24 143.74 336.76 142.72 336.76 142.08 336.24 141.06 335.44 140.15 334.82 139.8 
M 334.31 162.51 334.97 162.14 335.81 161.2 336.35 160.14 336.35 159.48 335.81 158.42 334.97 157.49 334.31 157.12 
M 337.4 131.94 338.19 131.6 339.19 130.71 339.81 129.75 
M 337.63 140.65 338.38 140.29 339.34 139.39 339.96 138.36 339.96 137.73 339.34 136.71 338.38 135.8 337.63 135.45 
M 337.55 149.31 338.3 148.95 339.26 148.05 339.88 147.02 339.88 146.38 339.26 145.35 338.3 144.44 337.55 144.09 
M 337.34 158.11 338.11 157.75 339.08 156.82 339.71 155.77 339.71 155.12 339.08 154.07 338.11 153.14 337.34 152.78 
M 342.49 185.33 343.2 184.96 344.11 184 344.7 182.91 344.7 182.24 344.11 181.16 343.2 180.2 342.49 179.83 
M 346.28 136.34 346.91 135.99 347.71 135.11 348.05 134.47 
M 346.23 144.91 346.85 144.56 347.65 143.67 348.16 142.66 348.16 142.03 347.65 141.02 346.85 140.13 346.23 139.78 
M 345.82 162.56 346.42 162.19 347.19 161.25 347.69 160.18 347.69 159.52 347.19 158.45 346.42 157.51 345.82 157.14 
M 351.98 144.91 352.6 144.57 353.41 143.68 353.92 142.67 353.92 142.05 353.41 141.04 352.6 140.15 351.98 139.8 
M 351.6 153.42 352.22 153.07 353.02 152.17 353.53 151.15 353.53 150.52 353.02 149.51 352.22 148.61 351.6 148.26 
M 351.27 162.23 351.86 161.87 352.61 160.94 353.09 159.89 353.09 159.24 352.61 158.19 351.86 157.26 351.27 156.9 
M 354.87 140.63 355.62 140.29 356.62 139.33 
M 354.66 149.15 355.41 148.81 356.36 147.92 356.98 146.91 356.98 146.29 356.36 145.29 355.41 144.4 354.66 144.05 
M 354.19 157.67 354.91 157.32 355.82 156.42 356.41 155.4 356.41 154.77 355.82 153.75 354.91 152.85 354.19 152.5 
M 353.81 166.5 354.49 166.13 355.37 165.21 355.94 164.16 355.94 163.52 355.37 162.47 354.49 161.55 353.81 161.18 
M 353.48 175.45 354.16 175.08 355.03 174.15 355.59 173.1 355.59 172.44 355.03 171.39 354.16 170.46 353.48 170.09 
M 353.07 184.39 353.75 184.02 354.62 183.08 355.18 182.01 355.18 181.35 354.62 180.28 353.75 179.34 353.07 178.97 
M 357.75 144.96 358.38 144.61 359.18 143.72 359.7 142.71 359.7 142.09 359.18 141.08 358.65 140.49 
M 357.31 153.33 357.93 152.98 358.71 152.11 359.22 151.12 359.22 150.5 358.71 149.51 357.93 148.64 357.31 148.29 
M 356.57 161.72 357.14 161.37 357.87 160.46 358.34 159.44 358.34 158.81 357.87 157.79 357.14 156.89 356.57 156.53 
M 356.28 170.72 356.84 170.36 357.55 169.43 358.01 168.38 358.01 167.72 357.55 166.67 356.84 165.74 356.28 165.38 
M 355.86 179.61 356.42 179.24 357.14 178.31 357.6 177.26 357.6 176.6 357.14 175.55 356.42 174.62 355.86 174.26 
M 356.29 183.86 355.46 183.13 
M 360.37 149.09 361.11 148.75 362.05 147.87 362.66 146.88 362.66 146.27 362.05 145.28 361.11 144.41 360.37 144.07 
M 359.62 157.3 360.32 156.95 361.22 156.08 361.8 155.09 361.8 154.48 361.22 153.49 360.32 152.61 359.62 152.27 
M 358.95 165.85 359.62 165.5 360.47 164.59 361.02 163.56 361.02 162.93 360.47 161.9 359.62 160.99 358.95 160.64 
M 358.57 174.79 359.23 174.43 360.08 173.5 360.62 172.45 360.62 171.8 360.08 170.74 359.23 169.81 358.57 169.45 
M 360.23 181.37 360.23 180.71 359.68 179.65 358.84 178.7 358.17 178.34 
M 363.49 144.94 364.11 144.6 364.72 143.93 
M 362.92 153.12 363.52 152.79 364.28 151.94 364.77 150.98 364.77 150.39 364.28 149.43 363.52 148.58 362.92 148.25 
M 361.7 161.02 362.25 160.68 362.96 159.81 363.42 158.82 363.42 158.21 362.96 157.22 362.25 156.35 361.7 156.01 
M 361.26 169.95 361.81 169.59 362.5 168.66 362.95 167.61 362.95 166.97 362.5 165.92 361.81 164.99 361.26 164.63 
M 360.88 178.9 361.43 178.53 362.13 177.6 362.57 176.54 362.57 175.89 362.13 174.83 361.43 173.9 360.88 173.53 
M 365.96 148.88 366.67 148.54 367.59 147.69 368.18 146.73 368.18 146.13 367.93 145.72 
M 364.88 156.74 365.56 156.41 366.43 155.56 366.98 154.6 366.98 154.01 366.43 153.05 365.56 152.2 364.88 151.87 
M 363.94 165.05 364.58 164.7 365.41 163.81 365.95 162.8 365.95 162.17 365.41 161.16 364.58 160.27 363.94 159.92 
M 363.5 173.97 364.15 173.61 364.97 172.68 365.5 171.63 365.5 170.98 364.97 169.93 364.15 169.01 363.5 168.65 
M 364.46 178.71 363.75 177.89 363.1 177.53 
M 368.26 152.63 368.83 152.32 369.56 151.5 370.03 150.58 370.03 150 369.56 149.08 368.83 148.27 368.26 147.95 
M 366.66 160.18 367.19 159.85 367.88 159 368.32 158.03 368.32 157.43 367.88 156.47 367.19 155.62 366.66 155.29 
M 366.13 169.05 366.65 168.7 367.33 167.78 367.77 166.73 367.77 166.09 367.33 165.05 366.65 164.13 366.13 163.77 
M 366.34 177.54 366.94 176.7 367.38 175.65 367.38 175 366.94 173.94 366.27 173.01 365.73 172.65 
M 371.33 148.43 372.08 148.04 
M 369.89 155.93 370.54 155.61 371.37 154.79 371.9 153.86 371.9 153.28 371.37 152.35 370.54 151.53 369.89 151.21 
M 368.72 164.06 369.35 163.72 370.15 162.84 370.66 161.84 370.66 161.22 370.15 160.22 369.35 159.34 368.72 159 
M 368.27 173 368.9 172.64 369.7 171.71 370.22 170.66 370.22 170.01 369.7 168.96 368.9 168.03 368.27 167.67 
M 373.3 151.84 373.84 151.53 374.53 150.75 374.98 149.67 
M 371.35 159.08 371.86 158.75 372.52 157.92 372.94 156.97 372.94 156.39 372.52 155.44 371.86 154.6 371.35 154.28 
M 370.76 167.94 371.26 167.58 371.92 166.66 372.34 165.62 372.34 164.97 371.92 163.93 371.26 163.01 370.76 162.65 
M 372.07 173.95 371.65 172.9 370.98 171.96 370.46 171.59 
M 374.62 154.85 375.25 154.54 376.05 153.74 376.56 152.84 376.56 152.28 376.05 151.37 375.25 150.58 374.62 150.26 
M 373.25 162.84 373.86 162.49 374.63 161.62 375.14 160.62 375.14 160.01 374.63 159.01 373.86 158.13 373.25 157.79 
M 372.87 171.9 373.49 171.53 374.28 170.59 374.79 169.52 374.79 168.86 374.28 167.79 373.49 166.85 372.87 166.48 
M 375.77 157.71 376.27 157.39 376.91 156.57 377.32 155.64 377.32 155.06 376.91 154.14 376.27 153.32 375.77 152.99 
M 375.14 166.62 375.64 166.25 376.27 165.32 376.69 164.26 376.69 163.6 376.27 162.54 375.64 161.61 375.14 161.24 
M 376.1 171.44 375.67 170.82 375.15 170.44 
M 379.18 153.61 379.63 153.38 
M 377.64 161.48 378.24 161.14 379.01 160.26 379.51 159.26 379.51 158.64 379.01 157.64 378.24 156.76 377.64 156.42 
M 378.37 170.03 378.85 169.45 379.36 168.34 379.36 167.66 378.85 166.55 378.05 165.58 377.43 165.2 
M 379.5 165.29 379.63 165.2 
M 379.63 159.89 379.5 159.79 
M 171.18 110.57 171.18 110.57 
M 176.49 107.99 177.6 90.74 176.81 86.83 176.76 83.66 178.07 81.1 179.8 78.69 181.85 76.59 183.22 73.84 184.8 71.3 188.53 70.99 191.12 69.71 192.91 67.52 194.56 65.02 195.95 62.25 200.53 63.39 203.37 62.91 206.18 61.67 208.18 59.55 209.46 56.7 211.21 54.29 212.1 51.01 214.89 49.66 216.77 47.46 219.73 46.34 226.13 47.8 227.88 47.27 234.39 47.83 237.01 47.01 239.64 47.88 248.3 51.54 250.3 51.58 252.43 51.09 255.9 51.96 259.08 52.2 262.15 51.8 264.56 50.74 268.09 51.73 270.85 52.22 274.04 53.13 277.08 53.78 279.59 53.16 283.36 53.81 285.42 52.74 287.66 52.35 291.04 53.82 296.1 55.39 300.82 59.03 302.36 60.69 304.88 64.12 306.27 66.62 307.53 72.01 308.6 75.32 309.18 78.13 311.4 83.74 311.62 85.85 312.45 88.57 317.19 93.76 321.64 97.91 323.32 101.93 323.54 104.44 323.19 106.29 323.57 108.76 320.45 118.12 
M 316.19 115.55 316.19 115.55 
M 175.6 108.42 176.95 107.14 177.65 104.3 176.78 100.78 176.33 95.27 
M 180.02 106.28 180.98 105.27 181.26 102.7 181.06 100.22 179.84 95.12 179.09 93 
M 184.51 104.3 184.96 100.8 185.49 98.6 185.45 96.1 185.1 92.96 183.76 89.97 183.36 87.25 183.13 84.25 181.79 81.61 182.16 78.8 
M 189.02 102.34 189.43 101 190.25 96.65 190.14 94.08 188.28 87.53 187.7 83.72 186.57 82.14 
M 193.48 100.3 194.39 98.08 194.88 93.23 194.17 90.64 193.07 88.23 193.02 85.87 191.83 82.57 190.38 79.56 190.08 77.51 189.48 75.38 191.91 71.36 
M 197.95 98.26 198.86 96.14 199.37 93.09 199.32 90.79 198.76 88.79 198.19 87.86 198.44 84.72 198.19 80.14 196.35 77.19 195.29 74.68 
M 202.56 96.56 203.66 94.64 203.8 91.92 203.61 89.23 203.18 87.32 203.64 84.4 202.69 81.67 202.4 78.64 202.68 76.78 202.43 74.43 201.92 71.68 
M 207.18 94.89 208.54 93.12 208.83 90.46 208.75 87.84 208.95 85.13 209.38 82.49 209.35 79.72 209.84 77.95 210.09 75.9 209.49 73 208.16 69.35 208.27 66.38 208.69 63.87 
M 211.92 93.61 213.21 91.99 213.73 89.83 213.98 87.17 214.06 81.52 214.33 78.41 215.07 73.39 214.7 71.1 215.03 68.27 214.26 65.22 
M 216.67 92.36 218.29 90.76 219.15 85.84 219.02 83.26 219.54 80.11 220.58 76.59 221.01 73.63 220.53 70.93 220.88 69.35 221.87 67.3 220.22 64 219.84 61 
M 221.48 91.39 222.7 89.55 223.69 82.51 224.76 79.56 226.22 76.38 227.16 69.46 227.1 62.89 
M 226.32 90.54 228.04 88.77 228.45 86.91 228.84 83.89 229.81 81.24 231.12 78.4 234.25 72.2 234.96 69.47 235.25 66.79 234.1 59.66 
M 231.23 90.33 232.89 88.69 233.93 85.87 235.3 83.71 236.95 79.7 238.1 77.69 238.67 74.4 239.81 71.35 
M 236.13 90.17 237.8 88.47 241.57 81.21 242.11 79.13 242.41 76.7 244 70.23 244.34 64.65 
M 241.05 90.09 243 88.21 244.29 85.3 245.15 82.73 246.26 80.14 246.66 77.85 247.98 75.96 248.92 73.26 249.57 67.94 250.26 65.36 250.14 61.5 251.12 57.99 
M 245.96 89.96 248.26 88.23 249.59 85.25 251.27 80.21 252.34 74.99 253.87 70.85 254.53 69.75 255.7 66.98 
M 250.86 89.77 252.67 88 254.47 85.5 255.5 82.99 256.09 79.83 258.31 75.08 260.73 71.52 260.94 68.68 261.82 65.83 
M 255.75 90.22 258.01 88.6 263.13 81.86 267.14 74.31 267.64 71.78 269.82 68.04 271.96 63.8 
M 260.59 91.05 263.18 89.69 265.6 88.13 267.51 86.07 269.4 83.35 270.71 80.35 271.51 77.18 273.17 73.71 274.92 71.66 279 67.87 280.35 65.84 281.83 62.24 
M 265.3 92.46 268.07 91.09 270.32 89.25 272.18 87.2 273.46 84.27 275.11 82.86 276.8 80.07 278.76 76.34 279.46 73.9 281.75 72.19 
M 269.94 94.06 272.82 92.76 274.93 90.76 278.43 86.87 281.67 82.43 284.31 79.33 
M 274.49 95.91 277.24 94.84 279.02 93.39 284.5 86.71 286.86 84.84 291.97 80.25 294.02 79.41 298.83 74.71 
M 279.01 97.83 281.68 96.86 283.97 95.1 288.09 91.51 290.07 89.19 292.33 87.38 
M 283.46 99.91 286.24 99.25 288.58 97.69 290.45 96.18 295.61 92.51 297.56 89.64 300.31 86.95 302.34 84 
M 287.89 102.03 291.14 101.49 293.22 99.95 295.49 98.8 300.43 95.56 303.15 92.39 306.02 89.6 308.36 87.66 310.59 85.38 
M 292.34 104.11 295.8 102.93 298.1 101.89 300.7 101.38 303.75 99.73 307.07 97.47 309.72 95.36 310.97 93.4 
M 296.79 106.18 300.26 105.67 302.28 103.95 304.6 102.38 308.14 101.65 311.17 100 314.88 98.95 316.36 96.1 
M 301.27 108.21 304.88 107.05 306.79 105.46 309.01 103.96 311.78 103.05 316.45 101.93 
M 305.75 110.22 309.69 109.53 312.6 108.4 315.81 106.61 318.81 104.67 
M 310.14 112.41 313.81 113.7 
M 157.68 174.47 165.75 174.18 175.11 173.5 181.05 173.37 186.87 172.87 192.31 172.76 198.18 173.21 207.45 173.48 211 174.02 216.22 174.11 219.24 174.38 222.39 174.41 225.37 174.15 228.68 174.6 231.55 175.41 237.55 176.01 240.11 175.79 243.58 175.86 246.93 176.28 252.31 178.3 255.63 178.36 261.08 179.57 263.17 180.2 246.3 185.7 243.08 186.06 240.66 187.22 237.77 187.9 234.61 188.31 227.1 191.41 224.07 191.75 220.68 191.72 217.65 192.04 215.09 192.85 212.03 193.15 208.72 192.87 202.98 193.18 197.99 194.22 195.23 194.49 185.16 192.02 182.3 191.68 179.08 190.98 176.52 190.75 160.43 187.78 157.64 185.94 
M 157.48 176.29 175.33 176.51 181.49 176.86 184.38 177.2 187.43 177.1 192.56 177.58 195.39 177.43 198.62 177.83 207.45 178.29 209.94 179.32 216.02 181.45 222.21 181.59 227.6 182.65 230.92 183.04 
M 162.95 178.42 166.16 178.56 169.3 178.93 172.12 179.66 178.44 180.15 181.34 180.72 190.38 181.94 193.02 182.49 195.8 182.67 198.91 183.22 201.96 184.1 204.78 184.64 207.97 184.83 210.5 185.27 216.19 187.42 222.6 189.01 
M 157.77 179.93 163.01 180.4 166.34 180.94 169.52 181.54 172.27 182.6 175.37 182.99 178.4 183.67 181.39 183.9 
M 157.7 181.7 166.56 183.63 169.44 184.46 172.43 185.59 
M 160.25 184.76 163.53 185.81 166.16 186.87 
M 207.44 224.22 211.76 229.89 214.85 236.65 221.91 260.03 218.41 260.35 215.49 261.25 212.6 262.44 209.71 263.23 206 259.27 203.03 259.2 201.18 260.74 198.24 257.19 190.21 248.31 181.91 240.36 174.69 224 173.01 215.88 171.18 210.47 
M 202.82 222.55 205.64 226.32 209.45 233.31 210.7 236.22 212.43 238.98 215.58 244.65 218.21 247.45 219.12 250.62 219.88 254.39 220.7 257.48 
M 198.2 220.88 200.68 224.54 202.52 227.91 203.95 231.2 205.91 237.02 208.88 242.56 210.92 245.86 212.22 249.33 213.18 253.34 
M 193.64 219.06 196.13 222.19 197.12 225.7 198.19 228.63 199.53 231.47 200.7 235.07 204.56 243.85 204.86 247.25 
M 189.07 217.25 191.26 220.78 192.89 223.98 193.81 226.82 194.47 230.13 195.79 233.15 196.75 236.03 199.04 239.09 201.68 241.76 202.42 244.42 201.77 248.53 202.68 252.67 203.93 256.43 
M 184.43 215.64 186.97 219.22 188.3 222.16 190.6 229.13 191.58 234.61 192.79 237.99 
M 179.8 214.01 183.33 221.47 184.02 224.96 187.17 235.1 188 238.67 
M 175.26 212.14 179.55 227.45 182.7 236.64 182.88 239.17 
M 343.38 194.9 351.86 201.05 357 201.78 351.52 206.08 349.37 208.09 346.88 209.77 345.45 212.5 342.69 213.91 340.1 215.47 338.48 218.02 336.58 220.23 333.83 221.64 331.87 223.82 330.55 226.49 329.54 229.27 329.66 232.17 328.02 238.63 324.4 243.05 322.99 245.57 323.13 249.62 319.98 254.19 317.8 258.04 312.63 263.65 310.72 260.13 310.31 258.61 307.47 255.68 303.53 250.54 300.1 248.46 298 246.13 296.02 243.26 293.87 241.26 291.4 238.64 289.26 235.65 284.26 230.3 279.94 224.27 
M 339.18 197.45 347.8 204.54 
M 334.98 200 339.27 204.67 343.91 207.31 
M 330.73 202.46 334.18 207.09 337.41 210.11 
M 326.48 204.91 332.86 213.14 
M 322.12 207.18 326.37 210.17 328.62 214.14 331.55 217.72 
M 317.72 209.37 322.07 213.13 324.95 215.89 327.81 219.6 
M 313.29 211.48 317.03 216.23 320.12 218.92 322.32 221.87 325.36 224.82 
M 308.83 213.55 312.99 217.37 318.2 223.16 
M 304.38 215.6 311.64 221.97 313.86 224.52 317.08 226.86 
M 299.91 217.65 303.44 221.68 306.42 224.45 310.86 228.23 313.26 231.5 
M 295.33 219.43 298.26 223.48 301.34 225.8 303.14 228.18 304.88 230.89 307.66 233.19 309.65 235.99 312.45 238.16 
M 290.68 221.01 293.41 225.12 296.14 227.68 299.2 229.64 300.98 232.13 305.38 237.24 307.38 238.99 309.16 241.29 
M 286 222.47 288.9 226.09 294.25 231.38 296.41 234.09 297.95 236.53 299.94 238.5 300.91 240.37 303.59 241.98 305.71 245.31 308.77 248.57 
M 379.63 152.27 382.72 151.21 390.63 147.34 398.55 143.1 400.94 141.37 407.34 138.58 409.34 137.32 412.19 135.98 414.75 134.36 416.65 132.38 421.59 128.75 424.79 127.25 426.93 125.43 428.7 123.37 434.08 121.48 439.72 118.35 445.28 116.15 447.18 114.36 448.39 111.92 452.88 106.11 456.2 104.34 459.27 103.55 461.23 102.43 479.39 107.74 485.16 112.35 489.13 115.14 490 118.53 489.07 120.93 488.97 124.16 488.27 126.8 487.23 129.09 485.61 131.19 483.42 133.12 482.14 135.94 480.39 138.31 479.27 141.29 477.24 143.37 475.56 145.84 471.66 150.11 469.58 152.1 466.85 153.46 463.63 154.31 461.03 155.88 460.34 158.99 459.27 161.73 458.66 164.92 458.9 168.18 460.3 171.36 462.22 176.38 463.18 177.95 471.3 189.12 483.53 198.54 484.71 201.31 484.59 204.09 483.96 209.29 483.94 212.18 484.32 215.48 483.22 218.51 481.79 221.25 479.27 222.89 477.69 224.77 460.92 226.03 459.99 225.19 458.52 224.26 455.37 223.42 452.38 221.41 448.84 219.6 445.85 218.76 444.26 217.03 435.8 210.82 433.78 208.03 431.2 206.76 427.77 205.42 425.78 202.77 423.64 201.27 421.04 200.43 415.27 196.07 410.46 192.11 408.98 190.16 406.55 188.11 404.11 186.56 400.85 185.21 394.1 180.68 391.12 178.88 388.49 176.47 385.23 174.6 382.33 172.65 379.63 170.14 
M 388.76 150.54 393.9 148.12 396.97 147.12 399.52 146.09 407.56 141.37 410.53 140.58 412.51 139.83 415.72 138.23 418.37 135.87 421.12 133.9 424.49 131.96 426.31 131.61 428.94 129.73 431.7 129.49 434.43 128.69 437.02 127.52 438.72 125.71 441.78 124.01 444.03 123.13 446.55 121.56 
M 382.87 154.52 386.1 153.83 389.03 152.87 391.57 151.49 394.43 150.66 397.65 150.01 400.4 148.9 403.32 148.08 408.77 145.98 411.06 144.93 413.7 144.22 416.28 142.46 419.9 141.18 423.09 139.14 428.77 138.18 432 136.67 437.82 135.49 440.2 135.22 443.29 134.14 445.9 133.09 449.48 130.56 452.49 129.25 454.63 127.44 455.92 126.72 457.92 126.6 461.22 124.86 
M 383.09 156.4 386.43 156 389.32 155.41 392.09 154.27 397.74 152.69 404.37 151.63 410.34 150.93 413.14 150.86 419.1 148.19 427.62 144.09 430.61 143.25 436.73 141.87 439.2 141.99 445.55 141.21 447.69 139.98 452.05 139.26 456.05 138.83 458.38 136.7 458.56 135.81 462.86 133.81 
M 389.68 157.97 391.89 157.78 395.25 157.1 408.05 155.12 411.02 155.65 417.67 155.45 427.8 153.1 430.36 151.47 433.26 152.3 436.51 151.66 441.38 149.26 443.24 149.67 446.87 148.82 450.64 148.98 
M 379.63 159.94 386.87 160.53 389.4 160.96 395.75 160.41 403.22 160.27 406.49 159.95 409.05 159.27 412.18 159.66 421.55 159.33 425.33 160.06 
M 383.72 162.16 391.87 163.8 399.97 163.72 403.47 164.08 406.57 164.15 409.51 163.62 416.81 163.58 419.64 164.44 423 164.99 426.27 165.31 428.23 165.9 
M 386.88 165.06 389.73 165.72 392.58 166.63 399.22 166.64 403.01 166.85 406.28 167.42 408.52 168.85 411.99 169.21 415.36 169.08 417.71 170.07 423.21 171.51 426.52 171.86 430.33 171.84 433.96 171.49 437.22 171.39 440.77 172.36 441.62 172.31 444.66 172.76 447.47 172.66 451.42 173.43 454.6 175.38 458.21 175.09 
M 389.6 167.96 395.74 169.32 405.3 170.67 407.95 172.06 410.85 172.61 413.07 173.43 416.65 173.98 419.35 174.91 422.92 176.81 425.93 177.07 432.79 178.08 436.15 178.15 
M 389.35 169.98 392.19 171.39 404.68 174.65 409.52 177.41 412.29 178.12 415.53 179.31 418.92 179.94 422.41 181.47 425.94 181.98 428.06 182.73 434.71 183.4 437.48 184.09 441.02 186.03 444.21 188.47 447.1 189.45 450.38 191.94 453.45 193.73 456.19 194.48 459.63 194.99 462.68 196.3 466.12 197.37 468.42 198.54 471.78 197.26 475.85 197.28 478.44 198.61 481.27 199.03 482.14 199.01 
M 388.72 172.23 391.69 173.95 394.95 175.28 397.89 175.99 403.25 178.45 405.88 180.03 412.05 182.74 417.08 185.48 420.59 187.03 423.67 188.64 426.22 189.38 429.68 189.88 432.42 190.08 435 191 438.19 193.69 441.46 196.04 444.17 197.56 446.31 198.06 450.68 199.61 456.38 202.26 459.25 204.57 462.5 206.77 465.46 207.53 
M 385.33 172.88 394.5 178.18 397.15 179.36 399.44 180.88 401.5 181.74 404.29 183.28 410.09 186.97 415.29 189.99 419.89 193.92 423.05 196.13 426.36 196.37 428.76 197.59 432.48 197.59 434.93 199.81 
M 359.15 180.23 356.36 182.91 355.12 184.45 352.23 189.29 352.44 188.89 
M 51.5 142.49 52.76 142.18 59.08 141.41 69.74 139.27 80.85 135.99 87.52 134.39 110.25 130.26 131.15 127.41 143.95 126.1 147.84 129.56 149.69 133.29 151.8 136.99 154.16 140.66 156.03 144.39 157.22 148.21 158.92 155.92 158.69 159.91 158.84 163.85 158.72 167.82 157.45 175.89 157.77 179.81 157.65 187.75 157.06 191.78 155.74 195.9 153.08 200.1 138.32 199.33 127.49 197.84 117.66 195.95 108.85 193.34 100.72 190.47 93.24 187.21 86.58 183.93 80.33 180.61 74.49 176.51 
M 69.5 172.06 69.15 171.68 
M 68.75 171.23 65.65 167.7 58.36 160.01 56.05 157.01 53.91 153.21 
M 130.17 143.66 130.56 146.96 128.7 153.36 127.41 156.35 125.85 159.16 124.7 161.76 124.94 166.54 126.8 171.8 127.7 175.07 127.77 178.75 117.97 178.81 110.77 178.5 103.76 177.87 97.02 176.54 90.43 174.78 84.13 172.35 78.46 169.6 
M 71.48 174.3 62.62 164.02 53.22 152.4 48.12 146.99 47.37 144.76 48.6 142.66 50.94 142.1 52.98 143.49 57.41 149.38 64.02 160.21 70.45 170.31 74.67 176.39 
M 73.94 177.12 67.28 173.49 56.05 168.11 34.54 156.66 33.42 154.51 34.38 152.21 36.63 151.4 38.86 152.44 51.2 160.74 57.11 164.97 74.53 176.25 
M 83.7 162.9 80.33 158.19 78.68 152.64 78.92 146.85 81.03 141.46 84.77 137.04 89.74 134.08 91.73 133.66 
M 95.8 132.94 101.15 133.61 106.35 136.15 110.44 140.24 112.99 145.45 113.7 151.19 112.52 156.86 109.55 161.83 105.13 165.57 99.74 167.67 93.96 167.91 88.41 166.26 83.7 162.9 
M 107.58 142.29 109.62 146.45 110.19 151.04 109.24 155.58 106.87 159.56 103.33 162.55 99.02 164.23 94.39 164.42 89.95 163.1 86.18 160.41 
M 90.42 154.7 89.08 152.82 88.42 150.6 88.51 148.28 89.35 146.13 90.85 144.36 92.84 143.17 95.11 142.7 97.4 142.98 99.48 144 101.12 145.64 102.14 147.72 102.42 150.02 101.95 152.28 100.76 154.27 99 155.77 96.84 156.61 94.53 156.71 92.31 156.05 90.42 154.7 
M 90.68 153.67 93.38 156.36 
M 91.03 151.37 96.3 156.63 
M 90.88 148.56 98.34 156.02 
M 92.02 147.05 99.94 154.97 
M 96.13 148.51 101.19 153.56 
M 97.18 146.91 102.05 151.78 
M 96.21 143.28 102.35 149.42 
M 54.87 145.99 55.94 147.06 
M 56.56 141.78 62.15 147.38 
M 61.6 140.93 67.38 146.71 
M 66.51 139.95 70.8 144.24 
M 71.27 138.82 75.89 143.43 
M 75.83 137.48 80.53 142.18 
M 80.37 136.13 83.17 138.93 
M 85.1 134.97 86.28 136.14 
M 89.99 133.96 90.05 134.02 
M 99.95 132.14 101.69 133.87 
M 104.92 131.21 109.35 135.64 
M 109.92 130.32 115.3 135.7 
M 115.1 129.6 120.59 135.09 
M 120.26 128.87 126.02 134.63 
M 125.41 128.13 129.97 132.68 
M 130.65 127.47 136.03 132.85 
M 136.03 126.96 140.28 131.21 
M 141.36 126.4 145.73 130.76 
M 154.29 178.86 152.76 177.51 152.3 176.35 
M 71.25 158.55 72.07 157.61 72.62 157.24 73.64 156.83 74.43 156.74 76.18 157.58 79.1 159.67 
M 132.67 136.31 132.2 136.91 
M 146.62 164.38 147.05 165.55 146.77 165.88 145.98 166.17 
M 135.12 181.99 133.92 182.08 132.97 182.34 130.42 184.27 129.88 184.51 
M 123.9 161.02 128.03 159.62 130.28 159.65 
M 123.34 140.46 129.08 144.37 129.83 145.23 130.15 146.24 
M 133.24 180.14 132.5 180.94 132.16 182.54 130.81 183.91 
M 101.39 176.8 100.91 176.31 100.04 176.6 99.02 177.5 98.28 178.83 
M 93.29 185.68 92.75 185.58 92.7 185.26 92.92 185.14 
M 80.2 162.32 81.27 162.47 81.55 162.37 81.65 162.07 
M 127.64 164.81 128.18 164.62 129.41 164.52 132.75 165.31 
M 84.64 182.84 85.05 182.15 85.77 179.02 86.02 177.08 85.94 176.19 85.17 175.05 84.81 174.07 
M 74.42 171.24 74.05 173.05 73.65 173.92 73.28 174.37 
M 138.94 162.47 134.38 162.22 132.07 162.5 131.72 162.22 
M 131.22 139.4 130.52 140.75 130.25 141.93 130.25 143.04 130.53 145.01 
M 120.77 173.88 120.81 174.02 120.59 174.13 119.19 174.23 
M 99.91 132.15 100.25 132.44 100.53 133.53 
M 104.95 175.71 104.8 175.36 104.5 175.16 103.61 174.97 102.62 175 101.17 175.38 
M 78.82 166.29 79.39 167.09 79.64 167.93 79.55 168.77 79 170.24 77.15 173.12 76.9 175.46 76.3 176.55 
M 97.32 182.21 97.11 183.21 96.58 184.19 95.85 184.73 93.33 185.75 92.85 185.72 92.67 185.39 
M 147.94 134.89 146.23 133.35 143.72 130.43 141.79 129.41 139.39 128.85 139.05 128.51 
M 77.19 174.93 77 175.58 75.79 177.42 
M 96.1 183.61 95.56 184.37 93.76 185.43 92.9 185.61 92.71 185.42 92.78 185.17 
M 56.19 147.73 56 147.27 55.41 146.7 
M 144.68 177.67 144.21 176.81 142.52 175.87 141.55 175.61 138.86 175.27 136.45 174.26 133.95 173.87 
M 140.23 192.42 139.34 192.05 138.78 192.07 137.56 192.56 136.73 192.67 133.24 192.75 132.17 192.3 131.74 191.87 131.2 190.7 
M 126.74 181.31 128.66 182.44 129.54 182.61 130.26 183.03 130.3 183.54 129.95 184.42 
M 149.16 171.08 148.03 170.31 146.7 169.68 144.03 169.16 142.88 169.11 141.85 169.37 138.74 171.47 134.58 172.69 
M 81.42 135.85 82.74 137.19 83.56 138.47 
M 126.71 132.89 124.87 135.06 124.38 136.16 124.41 136.68 125.25 139.24 126.69 140.85 128.49 142.17 
M 100.39 187.22 99.38 187.37 98.4 187.97 97.95 187.87 
M 77.8 150.15 76.94 153.24 76.84 154.88 77.07 155.65 77.56 156.45 78.31 157.37 79.33 158.28 
M 110.98 159.68 112 158.2 113.41 157.23 115.67 156.91 117.24 157.01 
M 129.37 141.54 129.7 142.09 130.16 143.58 130.47 145.66 
M 114.4 185.51 113.37 183.91 112.01 182.68 111.25 181.75 109.82 178.92 108.56 177.61 108.23 177.06 107.95 176.1 
M 84.67 173.93 84.14 173.89 83.92 174.13 84.12 174.26 
M 115.25 133.58 113.08 132.82 112.2 132.69 109.92 132.99 107.27 133.74 104.83 133.81 103.34 134.57 
M 76.31 155.6 77.59 157.42 78.77 158.53 80.61 159.58 81.41 159.7 
M 79.19 154.33 79.17 154.36 
M 140.46 181.42 139.35 181.04 137.57 180.8 134.16 181.49 132.73 182.08 130.62 184.1 
M 115.99 139.92 113.56 141.86 112.49 142.44 111.56 142.52 
M 133.15 196.85 134.08 195.6 134.17 194.88 133.62 194.15 131.71 192.85 
M 123.43 194.32 123.44 193.89 123.2 193.27 122.46 192.34 121.8 191.77 121.02 191.35 119.53 190.92 118.99 190.92 118.06 191.27 
M 149.15 159.63 148.48 159.35 148.19 158.9 
M 106.61 183.87 107.58 179.88 107.5 178.99 106.78 177.35 106.48 175.98 106.2 175.64 
M 152.48 176.83 152.2 175.8 151.64 175.12 
M 113.62 151.57 116.55 150.79 
M 134.86 173.77 133.45 173.62 131.36 173.68 130.39 173.47 129.36 173.64 
M 136.67 183 134.27 182.66 133.16 182.76 131.84 183.29 130.54 184.25 129.88 184.51 
M 121.01 144.93 120.62 145.98 120.7 147.57 120.51 149.28 
M 117.54 158.02 118.19 157.13 119.65 156.59 120.16 155.67 120.91 154.8 
M 112.28 193.94 113.15 194.04 113.52 194.72 
M 152.68 163.06 152.68 162.53 152.3 161.42 150.88 159.34 150.71 156.87 
M 79.57 180.08 81.42 179.55 82.87 179.38 83.53 179.1 84.46 178.05 
M 64.77 166.76 64.97 166.68 
M 66.81 164.5 67.16 163.25 66.88 159.74 66.47 158.58 65.9 157.6 65.28 157 64.17 156.65 
M 130.96 166.54 131.8 167.18 131.93 167.76 131.83 168.06 130.93 168.93 129.89 169.54 
M 111.1 166.89 110.18 166.71 109.35 166.91 108.49 167.27 107.69 167.87 106.21 169.35 104.3 170.73 103.43 171.62 101.16 175.01 
M 83.15 136.52 84.18 137.73 
M 89.92 185.58 90.71 184.6 
M 131.37 129.05 129.67 129.38 128.84 129.91 128.02 130.9 126.55 133.16 124.8 135.28 
M 157.13 171.88 154.52 170 152.85 166.78 
M 140.55 141.61 139.55 140.93 132.63 138.34 131.91 138.34 131.4 138.83 
M 129.2 130.39 126 135.19 125.63 136.63 125.86 138.26 126.25 139.05 127.58 140.58 128.38 141.21 
M 135.46 150.81 132.81 151.85 131.86 152.45 129.89 154.33 129.29 155.27 129.1 156.17 
M 109.64 182.47 109.01 179.2 107.76 177.21 107.52 176.69 107.4 175.7 107.06 175.45 
M 88.38 167.81 86.11 168.84 84.51 170.17 82.91 171.07 
M 64.67 151.08 63.58 150.91 62.13 150.2 60.62 148.89 59.02 147.06 57.52 146.24 
M 89.95 174.81 89.5 175.4 88.9 175.43 87.47 174.61 85.37 172.82 
M 149.88 134.91 147.59 132.82 145.27 130.06 144.36 129.33 141.27 127.65 
M 56.44 148.07 55.97 147.04 55.31 146.57 
M 107.97 180.67 108.06 179.92 107.93 179.06 107.12 177.24 106.79 175.91 106.5 175.62 105.64 175.36 
M 67.57 176.22 66.53 178.8 66.17 181.39 66.42 183.97 67.38 186.35 69.01 188.3 71.18 189.57 73.7 189.94 76.28 189.43 78.75 188.25 81.09 186.65 83.33 184.86 85.37 182.85 87.22 180.68 88.68 178.29 89.64 175.64 90.09 172.85 90.05 169.99 89.68 167.12 88.41 161.43 87.43 158.69 86.23 156.03 84.78 153.48 78.57 143.47 75.33 138.55 85.23 153.21 86.78 155.73 88.1 158.4 89.22 161.17 90.04 164.03 91.2 169.89 91.36 172.92 90.97 175.96 90.02 178.9 88.51 181.58 86.62 183.98 84.54 186.18 82.24 188.15 79.78 189.96 76.97 191.41 73.79 192.15 70.46 191.77 67.49 190.18 65.24 187.69 63.88 184.65 63.43 181.39 63.77 178.12 64.81 175.18 
M 68.21 176.33 67.48 179.23 66.3 182.73 
M 64.52 186.08 63.38 187.66 60.89 189.76 57.96 191.18 54.81 191.78 51.64 191.71 48.59 191.06 45.73 189.99 43.01 188.73 37.73 186.01 35.14 184.45 32.73 182.52 30.86 179.99 30 176.95 30.19 173.83 31.3 170.94 33.13 168.49 35.5 166.58 38.19 165.24 41.07 164.38 44.04 164.05 47.01 164.19 49.92 164.76 52.74 165.65 58.15 167.97 52.7 165.74 49.87 164.96 46.98 164.51 44.06 164.47 41.18 164.9 38.44 165.82 35.91 167.2 33.75 169.06 32.13 171.39 31.23 174.04 31.14 176.81 31.98 179.41 33.7 181.55 35.96 183.23 38.47 184.62 46.43 188.22 49.12 189.13 51.86 189.61 54.59 189.58 57.2 188.99 59.54 187.76 61.49 185.98 62.96 183.77 63.55 182.29 
M 65.55 188.03 66.45 195.97 66.6 198.99 66.49 202.04 66 205.07 65.13 208.02 63.87 210.8 62.29 213.41 56.72 220.31 55.09 222.7 53.7 225.23 52.64 227.91 51.97 230.71 51.75 233.59 52.04 236.46 52.72 239.3 53.7 242.05 54.96 244.69 56.48 247.2 58.27 249.53 62.72 253.37 58.19 249.6 56.3 247.33 54.68 244.85 53.31 242.22 52.22 239.45 51.42 236.58 51.01 233.61 51.13 230.6 51.73 227.64 52.74 224.8 54.09 222.12 55.69 219.58 60.98 212.54 62.37 210.05 63.44 207.42 64.15 204.69 64.49 201.88 64.5 199.04 64.25 196.18 63.02 187.96 
M 62.82 183.98 63.05 181.18 63.71 178.64 
M 65.14 175.31 65.15 175.3 
M 47.98 163.82 54.24 168.36 60.32 172.35 66.45 175.96 72.9 179.23 79.56 182.14 93.24 187.21 
M 52.92 167.41 53.61 166.78 
M 144.77 125.62 154.14 134.98 
M 149.74 122.72 158.91 131.9 
M 154.69 119.82 163.41 128.54 
M 159.63 116.9 170.89 128.16 
M 164.65 114.06 170.7 120.11 
M 169.77 111.33 176.7 118.26 
M 175.01 108.71 184.11 117.81 
M 180.3 106.14 187.74 113.58 
M 185.77 103.75 192.14 110.12 
M 191.22 101.34 197.21 107.33 
M 196.61 98.87 204.05 106.32 
M 202.26 96.66 212.83 107.24 
M 208.08 94.62 219.17 105.72 
M 214.29 92.98 220.48 99.17 
M 220.72 91.55 231.6 102.43 
M 227.52 90.49 235.35 98.32 
M 235.07 90.18 244.23 99.35 
M 242.81 90.06 251.45 98.71 
M 250.39 89.79 257.49 96.89 
M 259.28 90.83 267.93 99.48 
M 270.6 94.28 280.6 104.28 
M 284.65 100.48 296.2 112.03 
M 299.4 107.37 307.02 114.99 
M 314.62 114.73 325.42 125.53 
M 334.22 126.47 345.06 137.31 
M 352.68 137.08 358.83 143.22 
M 370.78 147.32 378.78 155.32 
M 172.23 110.06 174.03 113.66 
M 175.78 108.33 176.38 109.53 
M 176.93 101.78 179.34 106.61 
M 177.47 94.03 182.95 104.99 
M 176.76 83.77 186.58 103.4 
M 179.12 79.64 190.2 101.8 
M 181.93 76.43 193.8 100.16 
M 184.24 72.21 191.71 87.14 
M 188.07 71.03 192.03 78.94 
M 191.56 69.17 192.88 71.81 
M 224.49 81.99 228.72 90.44 
M 220.63 65.43 233.05 90.27 
M 221.16 57.64 237.41 90.15 
M 222.15 50.78 241.79 90.07 
M 224.92 47.49 246.16 89.95 
M 229.27 47.35 250.49 89.78 
M 233.91 47.78 255.1 90.16 
M 238.13 47.38 255.26 81.65 
M 243.66 49.6 255.52 73.32 
M 249.06 51.56 256.52 66.49 
M 253.36 51.33 256.44 57.48 
M 292.66 103.4 293.22 104.52 
M 291.36 91.96 298.96 107.16 
M 289.38 79.17 304.67 109.73 
M 289.26 70.08 310.52 112.6 
M 289.92 62.57 318.07 118.87 
M 289.67 53.23 321.12 116.12 
M 295.01 55.06 322.89 110.82 
M 302.11 60.42 307.28 70.77 
M 320.08 96.37 323.41 103.03 
"/></svg>