<svg xmlns="http://www.w3.org/2000/svg" width="520" height="320"><rect x="0" y="0" width="520" height="320" fill="floralwhite"/><rect x="10" y="10" width="500" height="300" stroke="black" stroke-width="1" fill="none"/><path stroke="black" stroke-width="1" fill="none" stroke-linecap="round" stroke-linejoin="round" d="
M 167.48 173.1 175.46 170.31 183.41 168.59 199.31 166.79 215.2 164.15 223.15 163.18 231.09 162.69 239.04 162.46 246.99 162.37 262.88 162.58 270.83 162.34 278.78 162.37 286.72 162.96 302.62 164.72 310.57 165.74 318.51 167.27 350.3 174.52 358.25 177.19 366.2 181.04 367.08 182.05 
M 367.08 221.8 366.2 222.68 358.25 225.76 350.3 227.94 334.41 230.85 326.46 232.53 318.51 234.48 310.57 236.13 302.62 236.99 294.67 237.46 278.78 237.93 262.88 237.79 254.94 238.25 239.04 239.54 231.09 239.61 223.15 239.02 215.2 237.69 207.25 235.82 189.28 230.68 
M 180.82 228.73 175.48 227.84 
M 367.08 190.81 364.7 189.44 361.25 188.13 354 186.32 346.62 185.17 339.32 184.44 332.24 183.95 316.31 183.74 
M 312.85 183.6 283.65 181.25 277.37 180.96 271.1 181.3 259.9 182.72 
M 256.68 183.08 240.11 184.41 
M 222.47 184.67 215.24 184.44 
M 211.56 184.39 207.85 184.37 
M 204.15 184.36 196.93 184.08 
M 193.38 183.82 189.83 183.58 
M 178.92 183.74 176.89 183.97 
M 180.71 199.33 180.82 199.5 
M 169.27 172.47 173.56 178.58 175.94 182.26 180.82 190.68 
M 208.99 228.75 210.32 230.26 
M 173.68 170.93 179.12 178.37 181.47 182.17 185.56 189.63 
M 214.92 229.29 215.71 230.21 
M 178.33 169.69 182.18 174.68 184.59 178.33 190.73 189.46 
M 183 168.68 185.03 171.23 187.51 174.76 189.87 178.45 195.93 189.3 
M 223.29 226.45 223.48 226.69 
M 187.7 168.07 192.76 174.83 195.16 178.45 201.22 189.12 
M 227.82 225.53 228.56 226.47 
M 192.35 167.53 195.51 171.43 200.48 178.39 206.67 188.95 
M 236.49 229.67 239.17 232.53 
M 197.05 167.03 200.78 171.51 205.87 178.37 212.27 188.77 
M 237.15 224.02 240.31 227.95 244.25 232.01 
M 201.6 166.41 208.74 174.94 211.28 178.48 216.19 186.17 217.92 188.58 
M 241.43 222.73 244.09 226.05 
M 246.7 228.94 249.24 231.34 
M 205.96 165.68 211.42 171.96 213.95 175.3 218.93 182.57 223.45 188.4 
M 246.52 222.56 249.12 225.69 
M 210.15 164.99 214 169.38 224.09 182.9 228.75 188.23 
M 248.56 218.4 252.77 223.82 256.59 227.75 
M 214.14 164.33 218.96 170.1 226.33 179.76 233.84 188.07 
M 258.99 224.7 261.64 227.24 
M 266.92 231.33 269.49 232.91 
M 218.04 163.8 221.61 167.88 228.72 176.73 238.85 187.91 
M 256.15 214.85 258.7 218.29 
M 264.05 224.32 265.39 225.66 269.36 228.94 
M 274.33 232.27 276.61 233.53 
M 222.05 163.31 231.39 173.77 239.76 182.84 243.79 187.75 
M 259.68 212.79 263.68 218.08 
M 266.37 221.2 270.36 225.23 272.93 227.42 276.54 230.12 
M 226.34 162.98 229.61 166.12 239.27 176.22 242.03 179.22 246.36 184.48 
M 262.8 210.13 267.28 216.23 269.94 219.43 273.79 223.45 
M 276.27 225.73 278.67 227.78 
M 231.06 162.69 237.13 168.16 244.48 175.69 247.15 178.81 249.89 182.38 253.38 187.44 
M 268.05 210.58 273.33 217.38 
M 275.87 220.28 278.38 222.89 
M 283.13 227.4 285.28 229.38 
M 236.32 162.54 242.3 167.61 247.06 172.39 249.53 175.26 253.39 180.4 
M 256.03 184.19 258.09 187.28 
M 270.27 206.8 272.64 210.06 
M 277.98 216.84 281.86 221.21 285.45 224.95 
M 241.9 162.43 245.09 164.95 247.38 167.02 249.68 169.35 252.01 172 256.96 178.3 259.53 181.91 262.83 187.13 
M 273.19 203.94 274.52 205.81 
M 282.84 216.45 290.15 224.82 
M 247.66 162.38 250.07 164.38 252.32 166.54 258.2 173.12 
M 260.7 176.26 263.16 179.67 
M 265.43 183.23 267.5 186.85 
M 277.1 202.52 279.22 205.5 
M 282.11 209.29 287.82 216.21 
M 290.39 219.31 292.75 222.16 
M 253.32 162.47 254.96 163.91 259.56 168.5 264.52 174.16 266.94 177.46 269.13 180.93 272.35 186.82 
M 281.18 201.48 285.54 207.3 290.04 212.71 
M 292.81 216.09 297.57 222.17 
M 258.72 162.54 264.53 168.03 267.03 170.7 269.48 173.72 272.79 178.79 
M 274.79 182.36 277.03 186.67 
M 283.05 197.27 284.56 199.56 288.99 205.33 
M 297.7 216.06 300.07 219.29 
M 263.94 162.55 269.41 167.6 271.87 170.29 274.22 173.36 276.42 176.73 278.45 180.32 281.64 186.52 
M 286.54 195.31 289.5 199.6 290.99 201.49 
M 302.41 216.14 306.92 222.44 
M 268.92 162.4 271.68 164.83 274.14 167.25 276.54 170 278.86 173.14 281.05 176.58 283.12 180.25 286.33 186.37 
M 290.66 193.9 294.67 199.54 300.75 207.2 304.7 212.76 
M 307.07 216.27 309.36 219.55 
M 311.7 222.56 312.9 223.99 316.6 227.67 
M 273.99 162.35 276.37 164.47 278.8 166.95 281.18 169.81 283.51 173.03 286.86 178.39 
M 289.02 182.19 291.25 186.21 
M 293.14 189.48 294.66 191.98 297.31 195.79 303.16 203.48 305.9 207.32 311.85 216.36 
M 319.13 225.08 321.56 227.34 
M 279.25 162.4 281.07 164.09 283.49 166.7 288.32 172.97 293 180.2 296.41 186.04 
M 296.95 186.95 300.26 192.08 305.91 199.75 309.82 205.52 
M 312.18 209.28 314.48 212.91 
M 321.63 222.02 324.04 224.45 
M 284.92 162.83 288.32 166.51 293.35 172.89 295.79 176.44 300.54 184.24 303.18 188.27 311.46 199.86 319.48 212.62 
M 321.78 215.72 324.13 218.54 
M 290.68 163.37 293.35 166.36 298.34 172.93 305.84 184.43 314.24 196.12 321.05 207.08 323.25 210.36 325.51 213.37 328.98 217.57 
M 296.29 163.98 300.75 169.66 308.21 180.64 317.98 194.16 
M 320.38 197.81 322.63 201.36 
M 324.82 204.76 327.01 207.97 
M 329.25 211 331.53 213.93 
M 301.47 164.58 305.53 169.86 310.49 176.93 319.01 188.34 321.66 192.07 328.54 202.56 334.17 210.43 
M 306.59 165.23 310.38 169.97 324.03 187.99 334.6 203.8 
M 341.55 213.52 343.93 216.69 
M 312.14 166.05 320.93 176.58 326.55 183.86 339.72 203.73 
M 318.73 167.32 323.71 172.79 329.3 179.79 331.83 183.51 338.98 194.9 344.97 203.79 
M 347.34 207.31 349.69 210.81 
M 326.41 169.11 329.4 172.43 332.15 175.89 334.71 179.54 338.28 185.3 
M 345.51 196.64 350.31 203.98 
M 333.74 170.82 337.53 175.78 340.04 179.52 353.3 200.48 
M 357.95 208.1 360.23 211.75 
M 362.48 215.23 364.75 218.52 
M 340.27 172.21 345.55 179.65 353.92 192.98 
M 356.31 196.88 358.66 200.85 
M 360.95 204.79 363.2 208.63 
M 346.78 173.69 351.18 179.92 357.05 189.39 
M 361.67 197.35 366.17 205.38 
M 353.65 175.65 356.83 180.27 359.18 184.03 364.7 193.87 
M 361 178.52 364.62 184.53 367.08 189.14 
M 169.37 172.44 168.4 173.74 
M 176.3 170.13 171.51 176.42 
M 182.65 168.76 181.71 170 
M 179.42 173.02 173.99 180.16 
M 188.58 167.97 176.74 183.72 
M 194.52 167.3 179.01 188.11 
M 200.69 166.56 196.6 171.45 183.38 189.7 
M 180.82 193.32 180.6 193.63 
M 207.5 165.43 204.37 168.6 201.88 171.53 195.36 180.38 
M 192.56 184.35 188.96 189.52 
M 180.82 201.49 180.72 201.63 
M 214.78 164.22 212.1 166.51 209.69 168.92 207.22 171.7 202.09 178.37 194.39 189.34 
M 222.34 163.28 219.65 165.2 217.18 167.23 214.81 169.49 212.49 172.06 207.5 178.38 199.78 189.17 
M 180.82 218.13 179.23 220.65 
M 228.89 162.82 224.77 165.86 222.19 167.96 219.75 170.21 217.45 172.68 214.03 177 
M 208.71 184.15 205.25 188.99 
M 234.34 162.59 229.97 166.12 224.68 170.81 222.28 173.33 220.07 176.04 216.71 180.68 
M 214.17 184.24 210.88 188.81 
M 239.17 162.46 232.5 168.44 227.25 173.74 224.94 176.55 222.83 179.51 217.02 188.15 
M 243.65 162.41 237.73 168.1 232.48 173.73 230.05 176.74 227.86 179.82 224.86 184.67 
M 222.69 188.19 222.54 188.43 
M 248.01 162.38 242.89 167.54 237.76 173.38 235.32 176.54 233.09 179.81 230.15 184.77 
M 252.32 162.46 247.95 166.95 243 172.83 240.6 176.09 238.37 179.51 235.41 184.72 
M 256.62 162.52 252.88 166.49 248.1 172.3 245.78 175.57 243.58 179.09 240.61 184.59 
M 260.9 162.56 255.39 168.88 253.02 171.94 250.77 175.18 248.64 178.71 244.13 187.73 
M 265.29 162.51 260.36 168.42 255.68 174.9 253.52 178.5 251.57 182.34 249.19 187.57 
M 269.78 162.38 265.33 167.95 260.73 174.5 258.46 178.2 256.38 182.15 254.05 187.41 
M 274.2 162.35 270.18 167.53 263.46 177.78 261.2 181.75 258.62 187.27 
M 238.33 222.2 237.12 224.18 
M 237.1 224.2 235.72 226.38 
M 278.53 162.37 274.89 167.2 270.71 173.62 266.02 181.25 262.94 187.13 
M 244.99 219.64 243.12 222.71 
M 240.91 226.24 238.68 229.6 
M 282.68 162.66 277.5 169.95 270.76 180.78 267.12 186.99 
M 252.33 215.49 250.33 218.86 
M 286.96 162.99 282.15 169.78 276.62 178.55 
M 274.18 182.39 271.41 186.85 
M 257.32 214.91 253.09 222.12 
M 291.38 163.45 288.01 168.07 
M 285.81 171.34 275.94 186.71 
M 264.24 210.88 262.21 214.66 
M 295.99 163.94 289.57 172.95 280.65 186.55 
M 268.9 210.47 268.03 212.52 265.09 218.03 
M 254.25 232.93 252.88 234.42 
M 300.58 164.48 296.9 169.54 285.56 186.39 
M 276.48 202.64 275.2 205.76 
M 273.52 209.96 270.93 215.96 269.97 217.73 
M 268 221.11 265.94 224.21 
M 259.26 232.23 257.6 233.88 
M 305.13 165.04 300.66 171.33 
M 298.43 174.72 293.44 182.16 
M 290.75 186.11 290.67 186.23 
M 284.19 196.41 282.53 199.53 276.44 213.48 
M 272.79 220.67 270.86 223.8 
M 309.64 165.62 306.53 169.9 299.88 180.31 296 186.06 
M 293.26 190.03 290.43 194.34 
M 290.3 194.54 287.38 199.59 286.48 201.51 
M 284.75 205.38 282.17 211.21 280.32 214.96 277.41 220.11 
M 275.52 223.23 273.64 226.09 
M 313.99 166.4 309.19 173.32 302.63 184.32 294.7 195.77 292.44 199.56 291.5 201.49 
M 286.21 212.83 284.25 216.37 
M 280.17 222.71 278.21 225.5 
M 272.25 232.56 270.83 233.82 
M 318.46 167.26 314.18 173.3 311.98 176.93 307.9 184.5 305.62 188.35 297.83 199.57 294.82 205.27 
M 293.05 209.04 290.29 214.48 288.2 217.85 283.84 223.8 278.84 229.84 
M 322.98 168.31 319.52 173.06 317.12 176.8 315 180.66 311.05 188.47 308.75 192.3 303.5 199.69 300.07 205.3 
M 298.11 209.01 295.28 214.39 294.23 216.06 
M 289.75 222.21 285.27 227.29 
M 283.21 229.47 281.23 231.44 
M 327.57 169.38 322.6 176.47 319.2 182.43 
M 317.17 186.45 314.13 192.36 311.76 196.11 306.56 203.56 304.2 207.28 299.08 216.07 
M 294.59 222.15 292.18 224.79 
M 287.57 229.3 285.47 231.2 
M 332.21 170.46 328.24 176.09 325.7 180.04 323.35 184.11 318.03 194.16 
M 315.7 197.99 313.2 201.77 
M 310.62 205.53 308.16 209.22 
M 305.89 212.78 303.75 216.17 
M 294.49 227.15 292.08 229.26 
M 336.83 171.48 331.18 179.68 328.62 183.7 321.81 195.85 318.24 201.69 
M 315.72 205.54 307.31 217.95 304 222.33 
M 301.68 224.92 300.49 226.14 296.8 229.3 
M 341.58 172.48 333.9 183.42 331.31 187.44 327.75 193.47 
M 325.45 197.41 320.67 205.27 
M 318.18 209.16 315.68 212.89 
M 313.25 216.37 309.81 221.11 307.56 223.87 304.07 227.41 
M 346.5 173.63 341.93 179.55 336.49 187.26 333.89 191.19 319.44 214.4 315.89 219.58 
M 308.94 227.59 306.58 229.66 
M 351.45 174.91 347.49 179.73 341.81 187.21 327.94 207.86 
M 325.54 211.68 322.01 217.37 318.56 222.39 
M 356.16 176.49 347.27 187.2 335.35 203.79 
M 332.85 207.26 328.04 214.53 
M 325.74 218.21 323.47 221.7 
M 360.58 178.32 352.8 187.32 349.89 190.99 343.13 200.26 
M 340.49 203.72 334.13 212.04 330.59 217.28 
M 364.74 180.33 355.37 191.15 348.47 200.29 
M 345.75 203.78 343.07 207.1 
M 340.44 210.31 337.9 213.5 
M 335.48 216.74 333.17 220.04 
M 330.92 223.29 328.71 226.34 
M 367.08 184.31 360.83 191.55 349.72 205.72 343.03 213.57 
M 367.08 191.02 355.06 206.08 350.96 210.9 
M 348.28 213.9 345.66 216.79 
M 367.08 198.13 360.35 206.56 353.54 214.35 
M 367.08 205.27 364.2 208.75 
M 358.77 214.85 351.02 222.83 
M 367.08 212.02 358.7 220.78 
M 367.08 218.1 366.47 218.71 
M 245.64 161.51 330.29 30 331.04 30.47 248.85 162.4 
M 258.84 161.88 284.77 109.26 285.58 109.64 262.02 162.57 
M 277.26 161.88 278.78 162.37 
M 322.77 43.74 312.76 58.91 303.21 74.33 298.7 82.2 294.38 90.17 290.21 98.23 282.18 114.52 
M 283.19 115 280.96 125.37 280.02 130.57 279.26 135.79 278.71 141.04 278.21 151.59 278.25 162.19 
M 317.73 51.31 307.91 66.57 303.21 74.33 298.7 82.2 294.38 90.17 286.16 106.36 
M 310.25 64.28 301.57 77.76 293.45 91.56 289.62 98.6 282.37 112.9 
M 302.78 77.24 295.24 88.95 291.65 94.9 284.87 107.04 278.57 119.45 
M 295.3 90.21 288.91 100.13 285.86 105.18 280.12 115.47 274.78 125.99 
M 287.82 103.18 282.58 111.32 277.67 119.65 270.98 132.54 
M 280.34 116.15 274.29 125.74 270.61 132.34 267.19 139.08 
M 180.76 188.19 314.01 184.41 314.05 185.3 180.88 191.38 
M 180.83 191.73 302.61 193.59 302.6 194.48 180.84 194.92 
M 180.9 195.28 290.99 201.79 290.94 202.67 180.74 198.47 
M 180.96 198.83 279.21 208.99 279.13 209.88 180.71 202.01 
M 181.03 202.38 267.35 215.2 267.23 216.08 180.61 205.55 
M 181.1 205.94 255.45 220.41 255.3 221.28 180.54 209.08 
M 181.17 209.5 243.6 224.63 243.4 225.49 180.47 212.61 
M 181.23 213.06 231.84 227.86 231.61 228.71 180.4 216.14 
M 181.3 216.62 220.25 230.11 219.98 230.96 180.34 219.67 
M 181.36 220.19 208.88 231.41 208.58 232.24 180.27 223.19 
M 181.43 223.76 197.79 231.76 197.46 232.57 180.21 226.71 
M 181.49 228.69 187.05 232.54 186.68 233.35 180.15 231.59 
M 300.73 185.9 297.77 186.65 296.39 187.16 295.12 187.83 293.98 188.66 292.05 190.82 290.43 193.41 
M 290.42 194.52 287.49 195.03 284.85 195.99 283.69 196.72 282.64 197.64 281.69 198.71 279.98 201.14 
M 279.92 202.25 277.04 202.52 274.41 203.26 273.24 203.9 272.17 204.72 271.18 205.7 269.39 207.98 
M 269.28 209.09 266.46 209.13 265.12 209.3 263.86 209.65 262.69 210.18 260.59 211.81 258.71 213.92 
M 258.56 215.03 255.82 214.83 254.51 214.9 253.27 215.14 252.09 215.58 249.96 217.02 248.02 218.96 
M 247.82 220.06 245.18 219.65 242.68 219.74 241.52 220.08 240.41 220.62 239.36 221.34 237.35 223.11 
M 237.11 224.2 234.58 223.57 232.16 223.46 231.01 223.7 229.91 224.15 228.84 224.78 226.78 226.38 
M 226.49 227.46 224.09 226.62 222.92 226.37 221.76 226.31 220.64 226.45 218.46 227.34 216.35 228.76 
M 216.02 229.83 213.77 228.79 211.54 228.29 210.44 228.34 209.35 228.6 208.27 229.04 206.13 230.28 
M 205.75 231.33 203.66 230.11 201.55 229.42 200.49 229.38 199.41 229.55 198.33 229.9 196.16 230.96 
M 195.73 231.99 193.66 230.89 191.59 230.32 190.57 230.34 189.55 230.57 188.53 230.98 186.5 232.16 
M 299.23 186.25 296.39 187.16 295.12 187.83 293.98 188.66 292.96 189.66 291.22 192.08 
M 278.51 187.18 276.17 187.93 275.12 188.48 273.33 190 271.9 191.99 
M 257.78 188.11 255.94 188.7 254.37 189.67 253.71 190.33 252.58 191.9 
M 237.06 189.03 235.11 189.78 234.09 190.66 233.26 191.81 
M 288.94 194.75 286.12 195.43 284.85 195.99 283.69 196.72 282.64 197.64 280.81 199.89 
M 263.71 194.83 261.55 195.35 260.57 195.78 258.88 197.04 257.48 198.77 
M 238.48 194.91 236.98 195.28 235.68 195.97 234.15 197.66 
M 278.46 202.36 275.68 202.81 274.41 203.26 273.24 203.9 272.17 204.72 270.27 206.81 
M 255.68 201.49 253.54 201.84 251.67 202.67 250.85 203.3 249.4 204.9 
M 232.9 200.63 231.41 200.87 230.11 201.45 228.53 203 
M 267.86 209.07 265.12 209.3 263.86 209.65 262.69 210.18 261.6 210.91 259.64 212.83 
M 237.39 206.67 235.62 206.81 234.8 207.04 233.33 207.86 232.05 209.11 
M 257.18 214.89 254.51 214.9 253.27 215.14 252.09 215.58 251 216.21 248.98 217.96 
M 230.45 211.69 228.72 211.69 227.15 212.13 226.43 212.55 225.12 213.68 
M 246.49 219.82 243.9 219.61 242.68 219.74 241.52 220.08 240.41 220.62 238.35 222.19 
M 223.5 216.13 221.82 215.99 221.03 216.08 219.56 216.65 218.21 217.67 
M 235.84 223.85 233.35 223.43 232.16 223.46 231.01 223.7 229.91 224.15 227.8 225.54 
M 225.29 227 222.92 226.37 221.76 226.31 220.64 226.45 219.54 226.81 217.4 228.02 
M 214.89 229.27 212.65 228.45 211.54 228.29 210.44 228.34 209.35 228.6 207.2 229.63 
M 224.47 238.12 228.73 246.5 227.99 246.99 221.82 239.91 
M 211.56 235.86 229.13 279.64 228.31 280 208.63 237.12 
M 200.86 233.26 201.76 242.61 200.9 242.8 197.75 233.95 
M 227.37 246.28 226.23 252.72 225.63 259.17 225.63 262.39 225.84 265.61 226.23 268.83 227.37 275.27 
M 226.34 275.71 221.78 267.48 216.79 259.56 214.05 255.78 211.14 252.12 208.08 248.57 201.67 241.67 
M 226.77 249.5 225.84 255.95 225.63 259.17 225.63 262.39 225.84 265.61 226.76 272.05 
M 224.09 271.57 219.36 263.46 216.79 259.56 214.05 255.78 211.14 252.12 204.9 245.1 
M 359.56 224.86 363.23 232.25 362.5 232.75 356.93 226.66 
M 346.66 228.02 360.1 250.72 359.36 251.2 343.99 229.77 
M 333.59 230.43 349.29 256.61 348.54 257.09 330.92 232.18 
M 320.63 233.41 334.34 256.45 333.6 256.93 317.96 235.16 
M 307.6 235.83 320.63 261.71 319.86 262.14 304.81 237.38 
M 294.38 236.83 302.15 256.08 301.35 256.46 291.5 238.19 
M 280.23 237.27 282.55 245.19 281.74 245.55 277.32 238.59 
M 361.94 232.14 360.11 235.55 358.81 239.05 358.46 240.87 358.31 242.72 358.34 244.61 358.75 248.45 
M 357.82 249.06 355.07 249.13 352.56 249.68 351.44 250.23 350.41 250.97 349.46 251.87 347.72 253.99 
M 346.78 254.6 343.75 253.36 340.7 252.65 339.16 252.6 337.62 252.76 336.07 253.11 332.97 254.15 
M 332.03 254.76 328.84 254.65 325.82 255.05 324.41 255.53 323.06 256.22 321.78 257.07 319.33 259.12 
M 318.35 259.66 314.93 257.36 311.34 255.56 309.46 254.94 307.51 254.53 305.5 254.3 301.37 254.15 
M 300.36 254.63 296.91 251.36 293.2 248.56 291.2 247.43 289.09 246.47 286.89 245.68 282.32 244.4 
M 356.43 249.06 353.78 249.32 352.56 249.68 351.44 250.23 350.41 250.97 348.57 252.9 
M 350.26 242.42 348.53 242.59 347.74 242.83 346.34 243.66 345.15 244.92 
M 345.27 253.94 342.23 252.91 340.7 252.65 339.16 252.6 337.62 252.76 334.52 253.59 
M 340.72 249.01 338.39 248.22 336.04 247.98 334.86 248.1 332.48 248.74 
M 336.17 244.07 333.73 243.39 332.09 243.44 330.44 243.89 
M 330.42 254.67 327.3 254.76 325.82 255.05 324.41 255.53 323.06 256.22 320.54 258.06 
M 326.3 250.18 323.9 250.25 322.77 250.47 320.66 251.37 318.73 252.79 
M 322.18 245.7 320.51 245.75 318.97 246.16 316.91 247.51 
M 316.65 258.48 313.17 256.37 311.34 255.56 309.46 254.94 307.51 254.53 303.45 254.19 
M 310.67 250.98 308.41 249.61 307.22 249.08 304.73 248.42 302.09 248.19 
M 366.2 181.04 369.51 180.44 372.03 179.1 374.21 177.62 376.56 176.35 379.22 175.36 381.27 173.83 383.46 173.19 386.5 171.92 389.15 168.98 390.93 167.26 395.05 165.89 397.21 165.72 400.09 164.33 404.82 161.49 411.34 157.23 416.86 157.77 419.73 158.27 423.3 159.47 426.21 160.01 427.81 159.24 431.77 160.94 434.86 163.01 437.62 164.13 440.61 164.75 443.72 165.67 453.08 173.27 455.66 175.04 463.25 181.31 463.92 183.77 464.87 188.51 466.23 193.57 466.46 195.58 466.41 197.43 468.1 206.09 467.17 208.3 466.58 210.85 466.7 214.15 465.96 216.93 464.49 218.99 463.57 221.59 462.09 223.64 460.02 228.64 459 231.19 458.77 234.51 457.84 237.15 456.08 239.14 453.37 240.15 449.18 243.37 446.56 244.4 444.52 246.01 442.73 247.88 440.13 248.86 436.39 248.69 434.22 250.09 432.92 252.16 427.99 253.98 421.88 253.46 419 252.7 412.69 253.98 409.12 253.07 406.23 251.9 403.04 249.91 398.17 246.23 396.09 245.08 395.67 242.53 393.16 240.63 389.56 238.8 386.04 238.15 384.46 235.45 379.44 231.92 376.79 230.36 373.9 228.99 369.54 225.04 366.2 222.68 
M 366.2 183.12 369.53 182.84 376.93 178.72 381.88 176.88 384.66 175.01 387.34 174.32 389.39 172.25 391.71 170.57 393.83 170.05 400.46 167.39 402.34 167.12 409.7 162.44 413.36 161.51 414.52 159.92 415.45 158.28 
M 366.2 185.2 369.57 185.25 372.36 184.5 376.78 182.04 382.46 179.55 384.89 177.82 387.48 176.36 390.05 175.86 392.5 174.63 397.2 173.61 401.58 171.2 404.9 169.9 406.7 168.11 
M 366.2 187.29 369.52 187.35 372.32 187.01 377.01 185.39 379.32 184.14 385.72 181.38 388.13 180 390.35 179.69 392.88 177.98 395.5 177.15 398.8 176.79 401.72 176.69 403.06 175.76 407.94 173.01 410.37 171.4 412.78 170.05 416.25 169.32 
M 369.4 189.37 372.42 189.11 377.47 188.15 385.48 185.29 388.08 184.07 390.18 183.69 393.06 182.25 396.16 181.35 399.77 180.87 402.55 180.18 404.3 180.1 407.02 179.34 409.74 178.2 411.59 176.97 414.28 175.67 416.32 174.27 418.46 173.3 421 172.34 423.42 171.9 426.41 172.4 428.96 170.9 430.26 169.65 
M 372.42 191.03 377.66 190.27 380.24 189.52 385.48 188.57 388.09 187.5 390.68 186.74 393.56 186.44 396.14 185.44 399.16 184.6 402.55 184.12 404.91 182.87 407.06 182.92 409.64 182.07 414.6 178.77 417.99 177.22 420.08 177.38 422.72 176.31 425.97 176.93 428.38 175.9 431.48 175.95 
M 369.55 193.66 372.49 193.36 377.55 192.21 383.23 191.19 388.39 190.6 391 190.08 394.1 189.78 399.02 188.6 404.38 186.37 406.71 186.9 415.59 184.04 418.21 182.62 420.58 183.04 423.82 182.72 427.37 181.83 429.49 181.52 432.3 182.57 437.61 181.76 440.09 180.44 443.71 179.24 447.75 176.92 
M 372.42 195.65 374.93 194.9 377.45 194.54 383.46 194.12 386.44 193.66 388.95 193.01 394.49 192.78 397.29 192.09 405.25 191.98 407.93 191.75 410.8 190.93 413.54 189.87 416.22 189.11 421.53 187.21 427.8 186.38 430.06 186.47 432.87 186.82 436.5 186.66 438.76 185.69 
M 375.44 197.68 380.38 196.73 383.56 196.73 386.53 197.01 388.78 196.27 391.32 195.86 394.09 195.89 400.39 195.37 408.11 196.59 411.41 196.47 414.89 195.84 417.96 195.61 420.81 195.14 423.41 193.61 425.82 194.6 428.81 194.58 430.68 193.78 432.75 192.64 434.66 193.25 437.58 192.76 
M 372.58 200.46 375.72 200.34 381.03 199.8 388.38 200.59 391.29 200.57 395.07 200.15 398.08 200.4 403.21 199.67 406.11 199.94 408.47 200.46 414.55 200.07 417.83 200.88 424.03 200.14 426.06 200.05 428.12 200.01 430.11 200.36 432.18 200.31 434.4 199.52 438.27 199.39 442.4 200 445.33 199.42 448.16 199.32 450.47 198.77 451.07 197.78 453.63 197.43 457.45 198.62 460.22 198.73 461.15 198.91 
M 372.9 202.88 376.02 203.08 378.9 202.92 381.48 203.03 383.87 203.35 386.06 204.05 388.18 204.21 395.11 204.15 401.33 204.46 403.88 203.85 406.93 203.77 410.12 203.48 415.69 204.93 418.38 205.15 
M 372.77 205.42 375.56 205.75 378.59 205.76 381.56 205.98 388.88 207.66 391.4 207.87 394.51 207.41 397.89 207.38 401.03 207.78 403.3 208.69 406.06 209.25 409.45 208.84 411.43 209.31 414.05 210.43 416.62 210.45 419.37 210.94 422.28 210.77 425.31 210.19 428.05 210.37 431.33 210.85 438.04 210.82 441.22 211.57 444.56 212.63 447.76 213.01 
M 366.2 206.02 369.51 207.24 372.21 207.89 377.83 208.82 380.59 208.9 392.06 211.34 394.93 211.11 400.49 211.35 403.07 212.33 405.63 212.71 407.47 213.32 412.94 213.82 416.68 215.3 419.3 216.11 422.14 216.43 429.21 215.69 431.17 216.63 433.35 217.41 
M 374.78 211.06 377.46 211.48 379.66 212.29 382.56 212.39 385.73 212.96 388.66 214.3 391.64 214.9 394.77 214.91 397.51 215.51 400.53 215.61 404.65 217.66 407.26 217.87 410.22 218.7 413.35 218.87 416.38 220.47 428.5 220.44 
M 374.79 213.58 386.22 216.4 389.09 217.63 391.87 218.39 394.44 218.42 396.78 219.28 399.21 219.59 401.79 220.69 407.81 222.52 410.1 223.5 412.49 224.25 416.59 224.85 419.58 226.09 422.27 226.47 424.72 226.02 426.69 226.22 429.97 227.06 
M 366.2 212.27 369.13 213.98 371.82 215.26 374.85 215.86 377.44 216.59 380.12 217.65 383.14 218.38 385.75 219.96 388.79 221.37 396.23 222.91 398.48 223.14 401.53 224.09 403.67 225.31 409.79 227.82 413.76 230.48 416.74 231.89 419.47 231.62 423.33 230.96 426.26 230.92 429.07 231.89 
M 375.16 218.2 385.56 223.21 390.54 226.36 396.55 226.25 402.34 227.91 405.39 230.45 408.3 232.02 410 233.12 413.27 234.64 415.89 236.23 418.39 237.02 420.8 237.49 424.18 237.61 429.9 240.06 431.69 240.13 434.54 241.93 
M 372.31 219.22 375.38 220.78 377.89 222.37 382.67 224.93 385.89 226.89 387.6 228.6 388.86 230.41 392.05 231.19 395.19 231.57 398.74 231.69 401.59 232.31 
M 372.54 221.56 379.81 226.71 382.37 228.16 385.03 229.36 386.87 231.21 388.16 233.59 390.98 234.81 394.09 234.86 397.13 235.4 399.21 236.55 400.98 238.52 403.88 239.74 407.3 240.75 413.01 245.04 418.4 246.92 421.59 248.52 
M 366.2 220.6 369.84 222.61 372.5 224.33 376.87 227.59 379.73 229.12 382.46 230.31 384.64 232.16 386.94 234.8 389.09 236.31 394.94 238.44 396.8 239.7 397.25 240.9 399.76 242.85 
M 302.62 164.72 307.31 167.16 324.89 130.6 326.38 128.36 328.3 126.55 329.38 123.9 331.19 121.99 333.15 120.22 334.69 118.04 340.35 117.72 342.53 116.99 351.63 115.79 353.82 116.83 355.71 118.72 357.67 120.28 358.32 120.54 361.28 120.7 365.99 118.72 367.33 120.58 366.48 126.16 365.92 128.73 365.81 131.42 365.27 133.69 366.73 140.77 366.32 145.82 365.13 149.98 365.66 153.19 365.04 154.95 352.33 178.1 350.3 174.52 
M 307.01 165.29 309.18 163.7 310.28 161.08 312.91 156.5 313.9 154.25 314.17 152.27 315.27 150.34 317.31 148.53 319.4 147.38 320.73 144.95 320.95 142.57 320.93 140.57 320.62 138.02 321.66 135.91 
M 311.4 165.91 313.15 164.33 314.36 162.61 316.7 158.35 318.43 156.49 320.53 153.24 322.74 148.95 325.77 145.41 
M 315.75 166.74 317.22 164.97 318.24 163.21 319.81 161.79 322.79 157.54 324.89 154.86 326.88 151.96 328.65 147.89 330.62 145.13 332.11 142.3 333.94 140.6 335.25 135.83 336.01 133.71 337.04 131.61 336.76 129.33 
M 320.09 167.64 323.52 164.02 328.38 158.35 331.11 152.7 332.65 150.84 333.95 148.94 335.4 146.27 336.59 143.21 339.38 139.57 339.54 137.06 341.09 135.09 342.3 132.34 342.99 129.95 345.77 122.65 
M 324.41 168.64 326.5 166.88 329.81 163.12 334.27 156.16 335.52 152.3 337.1 150.66 339.22 147.89 341.24 145.78 342.04 143.73 343.43 141.42 345.07 139.17 346.52 137.63 348.64 135.74 
M 328.73 169.65 330.6 168.28 334.3 163.83 335.93 161.42 338.13 156.82 339.1 155.58 340.81 154.32 342.33 152.88 343.31 150.16 
M 333.04 170.65 334.98 168.91 338.61 164.71 340.13 162.49 341.03 159.91 342.3 158.63 343.44 157.17 345.38 155.49 346.88 153.78 349.98 145.72 351.33 143.55 
M 337.37 171.6 339.38 170.02 340.8 167.68 344.85 162.79 346.03 160.71 347.98 158.75 350.71 152.87 353.2 148.74 354.43 146.12 357.15 141.21 
M 341.71 172.51 343.73 171.27 348.52 165.72 351.52 161.82 354.42 156.62 355.71 155.12 
M 346.03 173.51 348.22 172.51 350.41 170.03 352.89 168.51 354.8 167.06 356.55 164.78 357.04 163.5 
M 75.99 174.53 94.05 176 99.83 176.05 119.92 175.4 134.83 174.38 167.47 173.09 170.97 175.53 172.62 178.23 176.62 183.53 178.3 186.23 179.35 189.02 180.86 194.69 180.64 197.66 180.77 200.58 180.64 203.54 179.48 209.6 179.76 212.5 179.63 218.4 179.09 221.42 177.89 224.54 175.48 227.75 161.12 227.18 150.54 225.91 140.75 224.07 132.26 221.9 124.64 219.35 117.72 216.63 111.38 213.45 105.66 209.83 100.61 205.95 96.29 202.25 
M 93.87 200.44 87.75 195.74 84.61 192.36 81.7 188.5 80.32 186.41 
M 152.91 182.32 153.26 184.76 151.55 189.44 147.77 195.7 148.11 199.59 150.08 203.93 151.05 206.59 151.25 209.53 141.68 209.7 134.63 209.45 127.58 208.69 121.07 207.56 114.89 205.91 109.08 203.86 103.67 201.16 
M 93.73 200.28 86.81 192.49 80.31 186.41 72.61 178.21 71.26 176.49 71.44 174.24 73.21 172.96 75.31 173.62 81.91 182.56 87.64 189.28 96.53 202.04 
M 94.35 201.98 85.86 197.71 79.63 195.05 65.45 188.49 59.18 186.01 53.11 183.22 51.89 181.47 52.36 179.22 54.33 178.14 56.42 178.78 62.05 182.06 65.96 184.09 77.52 190.89 85.61 195.18 96.4 201.93 
M 112.42 187.16 110.75 184.82 109.93 182.07 110.05 179.19 111.09 176.51 111.86 175.61 
M 124.85 175.04 125.71 175.91 126.98 178.49 127.33 181.35 126.74 184.16 125.27 186.63 123.07 188.49 120.39 189.54 117.52 189.66 114.76 188.84 112.42 187.16 
M 124.29 176.92 125.3 178.99 125.59 181.27 125.11 183.53 123.93 185.5 122.18 186.99 120.03 187.83 117.74 187.92 115.53 187.27 113.66 185.93 
M 115.46 182.79 114.8 181.86 114.47 180.75 114.51 179.6 114.93 178.53 115.68 177.65 116.67 177.06 117.79 176.83 118.93 176.97 119.97 177.48 120.78 178.29 121.29 179.32 121.43 180.46 121.19 181.59 120.6 182.58 119.72 183.32 118.65 183.74 117.5 183.79 116.4 183.46 115.46 182.79 
M 115.51 182.43 116.59 183.52 
M 115.15 179.69 119.05 183.59 
M 117.33 179.47 120.51 182.66 
M 118.9 178.65 121.3 181.05 
M 81.31 187.92 86.03 192.63 
M 78.76 174.73 83.24 179.21 
M 84.53 175.18 88.58 179.23 
M 90.41 175.74 95.73 181.06 
M 96 176.02 98.87 178.89 
M 101.31 176 105.66 180.36 
M 106.45 175.83 110.04 179.42 
M 111.56 175.62 111.72 175.78 
M 126.8 174.91 130.21 178.32 
M 131.79 174.58 134.84 177.63 
M 136.83 174.31 141.28 178.75 
M 141.96 174.11 144.62 176.77 
M 147 173.84 149.69 176.53 
M 152.11 173.62 155.44 176.96 
M 157.25 173.45 160.96 177.15 
M 162.4 173.28 165.53 176.41 
M 167.66 173.23 170.55 176.12 
M 134.52 185.83 132.49 185.64 131.49 185.21 129.14 183.64 127.93 183.03 127.13 182.32 
M 142.2 199.81 143.38 198.55 143.78 197.47 144.39 196.61 145.18 196.06 
M 153.01 175.16 152.47 176.42 151.16 178.43 150.78 179.69 151.12 180.44 152.72 181.72 
M 166 223.58 165.89 220.53 166.5 217.37 166.23 216.5 163.77 215.34 161.08 215.02 
M 154.89 199.46 152.83 199.96 152.69 200.31 152.78 200.88 
M 125.72 191.69 126.06 193.06 126.54 196.82 126.42 197.54 126.06 198.24 
M 115.89 195.46 113.95 194.46 111.83 193.9 110.69 193.86 109.17 193.97 108.15 194.32 106.93 194.83 106.42 195.33 
M 167 178.16 164.59 176.04 162.83 175.02 160.56 174.14 160.23 173.82 
M 77.98 174.67 76.51 175.24 
M 132.3 201.53 132.91 201.74 133.53 201.74 134.66 201.25 135.23 200.74 
M 159.33 190.2 157.74 190.05 155.58 190.21 154.57 190.9 153.88 191.81 
M 134.49 214.4 132.08 214.11 129.93 214.79 128.15 214.83 127.29 215 
M 105.84 205.94 107.29 208.1 107.32 208.82 106.71 210.5 
M 177.55 219.96 176.9 219.27 172.98 217.07 
M 135.06 189.52 133.45 190.87 132.01 192.47 131.57 193.48 131.44 194.55 131.17 195.02 
M 126.25 175.52 126.23 176.98 
M 112.73 201.24 110.23 200.19 109.87 199.79 109.49 198.91 109.34 196.83 108.69 196.13 108.26 195.89 107.5 195.76 
M 161.5 195.99 158.65 196.74 155.91 197.12 154.12 197.94 
M 136.08 190.47 136.69 191.19 138.03 191.96 139.66 191.99 140.45 192.16 
M 97.99 200.16 97.64 198.61 97.31 198.07 96.79 197.61 95.13 196.81 94.34 196.6 92.81 196.59 
M 112.52 205.7 111.11 205.72 109.8 205.99 109.44 206.69 109.29 208.54 109.08 209.33 108.16 210.57 
M 155.01 193.46 154.12 194.12 152.42 195.97 151.86 196.83 151.62 198.05 151.86 199.54 
M 143.27 192.47 143.8 193.01 144.9 194.91 
M 175.52 211.57 174.16 210.9 173.29 209.97 172.44 208.62 172.27 207.85 
M 135.64 205.81 134.5 205.23 133.98 205.2 133.16 205.63 130.76 209.1 128.47 211.23 127.3 213.32 
M 86.02 193.88 86.46 192.17 
M 136.62 206.35 135.08 205.05 134.2 204.65 133.56 204.77 132.94 205.36 131.48 208.09 130.19 209.61 
M 118.61 211.63 119.17 212.98 119.37 214.36 118.67 217.01 
M 173.19 191.22 172.96 190.39 171.94 188.6 171.72 187.87 171.71 186.69 171.89 186.31 172.69 185.89 173.87 185.72 174.64 186.04 
M 135.35 222.69 134.36 220.67 133.63 218.45 132.42 216.74 132.17 215.47 
M 174.26 205.88 174.25 204.84 174.87 203.85 175.14 203.08 174.84 201.74 174.84 200.52 
M 165.08 193.41 164.29 190.46 162.88 188.23 161.74 187.3 160.92 186.91 159.3 186.49 
M 147.29 198.44 151.07 199.65 151.94 200.09 152.74 200.87 
M 151.64 209.36 152.39 209.36 152.6 209.64 152.32 209.92 
M 105.03 200.45 106.54 201.27 108.53 201.88 108.98 201.76 109.37 200.93 
M 136.24 194.96 137.4 195.43 139.62 195.64 141.82 195.65 143.36 196.29 
M 177.77 201.49 178.01 200.7 177.71 198.73 177.61 196.52 177.18 195.4 176.32 194.46 
M 117.78 194.57 117.1 193.89 115.83 193.05 114.3 192.36 111.27 191.76 109.46 191.8 
M 95.76 200.65 94.71 198.91 94.06 198.42 
M 92.17 198.46 91.77 198.88 
M 162.08 212.31 160.63 213.19 159.12 213.7 153.66 213.71 152.8 213.52 
M 154.33 216.75 152.54 215.53 152.22 215.03 152.05 213.99 
M 167.5 203.48 168.37 204.33 168.88 205.96 
M 158.53 219.16 156.09 219.45 155.17 219.87 154.73 220.41 154.53 221.47 154.12 222.06 
M 158.01 224.95 156 224.04 155.05 223.77 152.48 224.04 152.15 223.89 152.24 223.54 
M 108.62 192.28 106.33 193.86 105.68 194.76 105.27 196.1 105.52 197.55 
M 97.38 200.79 96.97 199.55 96.09 198.3 94.43 197.25 93.2 197.15 
M 91.52 197.68 91.27 198.49 
M 158.33 226.71 153.95 226.06 152.19 225.59 151.85 225.37 151.45 224.76 151.45 224.26 151.69 223.92 
M 133.82 186.54 131.77 186.38 130.87 185.96 128.7 184.62 127.03 182.79 
M 178.16 198.74 178.04 196.12 177.57 195.04 176.59 194 174.14 192.16 173.74 191.6 173.2 190.23 
M 149.57 186.46 150.51 186.93 152.15 188.29 152.35 188.78 152.34 189.96 152.54 190.35 
M 83.18 177.25 80.08 177.14 78.23 177.62 
M 95.26 198.8 94.55 198.21 93.71 197.92 
M 92.02 198.28 91.69 198.82 
M 90.94 178.75 89.35 178.54 88.74 178.69 
M 174.39 191.92 172.53 189.07 172.1 187.97 172.08 186.81 172.24 186.43 172.55 186.17 173.64 185.83 
M 158.09 176.65 157.3 177.3 156.36 177.82 155.61 179.59 155.24 179.88 
M 144.69 214.94 143.9 215.55 142.95 215.74 138.87 214.54 137.9 214.37 136.34 214.49 134.89 214.33 
M 170.91 213.02 170.52 212.34 169.86 211.81 167.68 210.5 165.18 209.87 164.11 209.79 163.12 210.03 160.29 211.88 158.92 212.38 158.14 212.5 
M 126.09 213.38 125.78 214.5 123.76 217.36 123.36 218.34 
M 153.78 177.53 152.65 178.94 152.69 179.42 153.21 180.14 
M 175.5 200.88 175.66 198.73 175.58 196.58 175.3 195.83 172.78 192.43 171.94 189.98 
M 98.85 200.4 99.37 199.14 100.02 198.38 101.89 197.57 102.63 197.75 
M 137.95 184.99 136.98 185.65 135.95 185.85 132.91 185.63 131.89 185.33 129.44 183.72 128.1 183.07 127.13 182.29 
M 161.36 187.09 156.84 185.89 155.18 185.29 154.53 185.25 153.96 185.39 153.56 185.69 153.29 186.37 153.28 186.98 
M 97.01 203.01 95.99 203.95 93.68 205.61 91.08 206.88 89.62 207.26 88.13 207.37 85.35 207.05 82.69 206.53 80.06 205.74 78.78 205.18 76.49 203.63 75.47 202.72 73.74 200.61 72.54 198.18 72.23 196.86 71.98 192.87 72.18 195.52 72.45 196.82 72.85 198.07 73.44 199.23 74.19 200.29 75.99 202.15 78.11 203.62 79.25 204.18 81.69 204.88 84.25 205.28 86.84 205.49 89.23 205.31 90.32 204.92 92.4 203.67 94.27 202.07 95.13 201.13 
M 62.22 187.22 66.23 190.35 72.04 194.47 
M 72.11 194.52 78.5 198.71 84.71 202.16 90.37 204.89 
M 92.91 206.04 104.53 210.9 111.38 213.45 
M 167.59 173.06 167.96 173.43 
M 172.41 177.88 177.11 182.58 
M 172.84 171.22 182.43 180.81 
M 178.39 169.68 187.86 179.15 
M 184.29 168.49 189.97 174.17 
M 190.61 167.72 200.44 177.55 
M 197.01 167.03 203.78 173.8 
M 203.21 166.14 213.41 176.34 
M 209.29 165.13 218.63 174.47 
M 215.38 164.13 225.15 173.9 
M 221.7 163.36 228.72 170.38 
M 228.29 162.86 236.89 171.45 
M 235.1 162.57 240.5 167.97 
M 242.04 162.42 252.21 172.59 
M 249.11 162.4 256.4 169.69 
M 256.31 162.51 264.65 170.86 
M 263.45 162.57 271.65 170.77 
M 270.34 162.36 276.06 168.08 
M 277.43 162.36 286.16 171.09 
M 284.99 162.83 295.57 173.41 
M 292.85 163.6 301.37 172.12 
M 300.85 164.51 309.31 172.97 
M 308.97 165.54 319.38 175.95 
M 317.62 167.1 327.97 177.45 
M 326.81 169.2 332.19 174.58 
M 336.01 171.31 344.93 180.23 
M 345.09 173.29 352.29 180.49 
M 354.98 176.09 361.17 182.28 
M 193.12 230.69 193.74 231.93 
M 196.31 230.88 197.39 233.03 
M 198.84 229.73 201.02 234.08 
M 201.82 229.49 204.62 235.09 
M 205.79 231.21 208.2 236.04 
M 207.91 229.24 211.72 236.87 
M 210.55 228.33 215.23 237.7 
M 193.67 188.37 194.16 189.35 
M 213.92 228.86 218.62 238.26 
M 194.22 183.26 197.22 189.25 
M 216.81 228.44 220.38 235.58 
M 193.97 176.56 200.27 189.15 
M 219.18 226.98 220.93 230.47 
M 194.53 171.47 203.32 189.06 
M 221.95 226.32 222.28 226.96 
M 195.49 167.19 206.38 188.96 
M 198.44 166.88 209.43 188.86 
M 201.33 166.45 212.48 188.76 
M 204.19 165.98 215.53 188.66 
M 207.06 165.5 218.59 188.56 
M 209.92 165.03 221.64 188.46 
M 212.79 164.55 224.69 188.36 
M 215.66 164.1 226.36 185.5 
M 250.94 234.65 252.84 238.45 
M 218.58 163.74 226.91 180.39 
M 252.28 231.12 255.82 238.2 
M 221.51 163.38 227.45 175.27 
M 252.82 226.01 258.83 238.03 
M 224.47 163.1 228.03 170.23 
M 253.4 220.97 261.84 237.85 
M 227.48 162.91 228.66 165.29 
M 254.83 217.61 264.92 237.81 
M 256.56 214.87 268.04 237.83 
M 259.01 213.57 271.15 237.86 
M 261.03 211.41 274.27 237.89 
M 263.37 209.87 277.39 237.92 
M 266.12 209.17 280.47 237.89 
M 269.18 209.09 283.54 237.8 
M 258.73 181.98 261.33 187.18 
M 270.81 206.15 286.34 237.2 
M 258.09 174.5 264.38 187.08 
M 272.91 204.15 287.42 233.17 
M 258.24 168.61 267.43 186.98 
M 275.4 202.91 287.58 227.27 
M 258.4 162.71 270.48 186.88 
M 278.23 202.38 288.52 222.96 
M 257.76 155.23 273.54 186.78 
M 280.4 200.51 289.47 218.65 
M 257.91 149.34 276.59 186.68 
M 282.27 198.05 290.42 214.34 
M 259.26 145.82 279.64 186.59 
M 284.46 196.23 290.57 208.45 
M 261 143.09 282.69 186.49 
M 287.03 195.16 290.73 202.55 
M 262.74 140.37 285.75 186.39 
M 289.86 194.61 290.88 196.66 
M 264.48 137.65 288.8 186.29 
M 266.22 134.92 278.19 158.87 
M 279.99 162.46 290.69 183.86 
M 267.96 132.2 278.25 152.79 
M 283.21 162.7 290.74 177.76 
M 318.56 233.41 319.04 234.35 
M 269.7 129.47 278.49 147.06 
M 286.43 162.94 291.58 173.25 
M 318.54 227.15 321.8 233.67 
M 271.44 126.75 278.92 141.71 
M 289.7 163.27 291.68 167.23 
M 318.63 221.14 324.56 232.99 
M 273.18 124.03 279.51 136.69 
M 319.53 216.73 327.34 232.34 
M 274.92 121.3 280.25 131.96 
M 319.64 210.75 330.14 231.75 
M 276.66 118.58 281.08 127.43 
M 319.77 204.79 332.95 231.16 
M 278.4 115.85 282 123.05 
M 319.89 198.84 335.78 230.61 
M 280.14 113.13 282.95 118.75 
M 320.04 192.92 338.63 230.11 
M 281.88 110.41 283.71 114.06 
M 320.18 187.01 341.48 229.62 
M 283.62 107.68 285.24 110.92 
M 320.4 181.25 344.32 229.09 
M 285.36 104.96 286.78 107.79 
M 321.46 177.15 347.15 228.54 
M 287.1 102.23 287.5 103.03 
M 322.54 173.11 349.98 228 
M 323.27 168.38 351.42 224.66 
M 326.78 169.19 350.17 215.97 
M 330.3 170.01 348.93 207.27 
M 333.81 170.83 348.47 200.16 
M 337.28 171.58 348.78 194.57 
M 340.75 172.31 349.08 188.96 
M 344.25 173.09 349.4 183.4 
M 347.76 173.92 349.74 177.89 
"/></svg>