<svg xmlns="http://www.w3.org/2000/svg" width="520" height="320"><rect x="0" y="0" width="520" height="320" fill="floralwhite"/><rect x="10" y="10" width="500" height="300" stroke="black" stroke-width="1" fill="none"/><path stroke="black" stroke-width="1" fill="none" stroke-linecap="round" stroke-linejoin="round" d="
M 204.24 98.83 209.88 96.59 215.49 95.22 226.71 93.77 237.93 91.65 243.54 90.88 249.15 90.48 260.38 90.22 271.6 90.4 277.21 90.21 282.82 90.22 288.43 90.7 305.26 92.93 310.87 94.16 333.32 99.97 338.93 102.11 344.54 105.19 350.15 112.45 
M 350.15 150.48 344.54 156.78 338.93 159.25 333.32 161 322.09 163.33 305.26 167.56 299.65 168.25 294.04 168.63 282.82 169.01 271.6 168.89 254.76 170.29 249.15 170.36 243.54 169.88 237.93 168.81 232.32 167.31 221.1 163.62 215.49 161.98 209.93 160.92 
M 210.51 108.12 209.58 102.47 208.1 97.3 
M 210.1 104.97 211.04 103.42 213.24 97.01 213.24 95.77 
M 208.63 99.91 208.88 99.97 
M 224.41 126.91 222.94 121.26 220.16 115.17 217.99 112.79 
M 221.17 118.08 222.55 112.35 222.55 107.99 220.85 100.94 218.28 94.83 
M 214.44 106.23 219.45 104.6 
M 214.05 109.78 219.1 109.99 
M 214.2 113.81 217.31 114.84 
M 221.94 111.24 223.47 110.33 227.62 105.4 230.3 99.82 230.3 96.37 228.86 93.36 
M 218.09 95.13 225.62 94.01 
M 219.37 98.12 225.07 97.93 
M 220.78 101.42 225.47 102.35 
M 237.86 126.96 236.16 121.72 232.89 115.98 230.34 113.74 
M 228.14 126.57 234.75 124.89 
M 244.34 158.07 244.19 157.63 
M 240.5 157.6 241.33 157.4 
M 229.34 96.22 232.75 93.02 233.01 92.58 
M 236.86 123.53 237.98 121.76 240.22 115.53 240.22 111.67 237.98 105.43 234.5 99.92 231.79 97.78 
M 246.12 158.19 246.16 158.09 
M 239.42 115.92 241.48 114.86 245.75 110.49 248.5 105.54 248.5 102.47 245.75 97.52 241.48 93.15 238.43 91.58 
M 235.07 101.47 243.17 100.02 
M 236.76 104.11 243.85 104.32 
M 238.54 106.88 243.33 107.85 
M 251.87 127.01 251.06 124.95 247.57 119.88 244.85 117.9 
M 256.3 158.19 256.12 157.68 
M 247.52 104.45 248.1 104.15 251.47 100.64 253.64 96.67 253.64 94.21 251.56 90.4 
M 243.07 93.64 249.92 92.29 
M 242.9 95.11 249.53 95.79 
M 245.67 97.9 249.94 98.27 
M 255.38 127.02 255.73 126.53 257.88 121.23 257.88 117.95 255.73 112.64 252.39 107.96 249.78 106.14 
M 247.58 116.59 253.66 115.3 
M 247.59 119.87 254.2 119.95 
M 248.95 122.46 254.04 123.25 
M 258.01 158.07 258.38 157.33 
M 252.87 94.74 253.57 94.48 257.23 91.83 258.48 90.25 
M 253.65 90.33 254.96 90.52 
M 257.11 118.27 260.79 114.14 263.13 109.49 263.13 106.62 260.79 101.97 257.17 97.87 254.34 96.27 
M 251.47 105.9 258.75 104.79 
M 252.14 108.18 259.29 107.92 
M 254.26 111.11 258.8 111.94 
M 264.46 127.05 261.49 122.92 258.93 121.14 
M 261.07 102.72 262.41 100.82 264.05 96.7 264.05 94.16 262.49 90.26 
M 269.77 127.07 271.07 123.37 271.07 120.16 269.25 114.96 266.43 110.38 264.23 108.59 
M 262.22 119.47 267.77 117.45 
M 261.9 121.44 267.52 121.37 
M 262.52 124.88 267.75 125.98 
M 263.91 96.29 266.65 95.27 270.17 92.63 271.87 90.39 
M 264.27 90.3 268.31 90.9 
M 270.42 119.25 273.76 115.19 275.93 110.56 275.93 107.69 273.76 103.06 270.39 98.96 267.76 97.37 
M 265.03 106.92 271.68 105.62 
M 265.4 108.84 272.2 109.1 
M 266.86 111.62 272.4 112.94 
M 276.75 127.09 274.48 124.02 271.95 122.32 
M 279.94 157.16 279.24 155.46 
M 274.28 104.11 276.43 101.56 278.39 97.47 278.39 94.93 276.43 90.84 275.94 90.25 
M 268.46 94.08 274.99 92.92 
M 268.4 96.19 274.67 95.81 
M 269.45 98.34 274.95 98.97 
M 283.91 127.12 284.78 124.69 284.78 121.52 282.95 116.38 280.11 111.85 277.9 110.08 
M 276.05 120.16 281.67 119.02 
M 275.97 122.96 281.59 123.14 
M 275.87 125.8 281.11 126.69 
M 281.5 157.18 282.81 155.24 
M 279.59 99.25 282.77 98.3 286.84 95.85 289.47 93.08 289.47 91.37 288.88 90.75 
M 276.59 90.91 282.12 90.22 
M 277.37 92.32 284.46 91.92 
M 277.69 93.58 284.84 94.6 
M 284.12 121.68 285.17 121.12 288.86 117.21 291.23 112.77 291.23 110.03 288.86 105.59 285.17 101.68 282.3 100.15 
M 279.31 108.76 286.76 107.64 
M 279.65 111.05 287.07 111.69 
M 281.09 113.94 286.62 115.11 
M 289.45 127.14 288.55 126.03 285.9 124.38 
M 293.31 157.05 292.07 154.4 
M 289.23 93.37 292.08 92.83 295.45 91.55 
M 290.38 108.84 294 105.59 296.24 101.99 296.24 99.76 294 96.16 290.72 93.17 
M 285.43 99.02 292.31 98.19 
M 284.87 101.28 292.17 100.81 
M 286.06 103.08 292.19 103.3 
M 299.46 127.17 299.56 123.89 297.67 118.99 294.75 114.65 292.47 112.96 
M 290.66 122.95 296.49 122.03 
M 290.09 125.53 296.45 125.16 
M 298.57 156.87 299.14 156.07 300.95 151.59 
M 295.41 153.03 297.81 153.5 
M 296.76 103.81 299.9 102.93 303.92 100.67 306.51 98.12 306.51 96.53 303.92 93.98 300.92 92.29 
M 293.54 96.08 302.03 95.13 
M 294.62 97.05 301.91 96.93 
M 295.44 98.54 301.93 99.33 
M 298.88 124.84 300.88 123.87 304.59 120.26 306.98 116.17 306.98 113.64 304.59 109.55 300.88 105.94 297.98 104.53 
M 300.67 127.18 300.17 126.87 
M 306.1 156.23 305.77 155.54 302.5 151.68 302.13 151.47 
M 305.59 97.46 307.67 96.95 310.72 95.48 311.95 94.44 
M 302.69 92.65 303.12 92.62 
M 302.97 93.09 306.03 93.1 
M 303.81 94.15 309.29 94.61 
M 306.13 113.68 307.25 113.16 310.47 110.17 312.55 106.78 312.55 104.68 310.47 101.29 307.25 98.3 305.59 97.53 
M 313.58 127.22 313.58 126.21 311.81 121.75 309.06 117.81 306.92 116.28 
M 304.85 125.64 310.67 124.34 
M 312.2 155.17 313.25 152.25 313.25 149.46 313.12 149.1 
M 310.49 150.52 310.59 150.52 
M 305.4 153.34 309.97 154.01 
M 312.17 106.92 314.88 106.05 318.36 103.83 320.61 101.31 320.61 99.76 318.36 97.24 315.4 95.35 
M 312.95 127 315.36 125.79 318.73 122.41 320.91 118.58 320.91 116.21 318.73 112.39 315.36 109.01 312.72 107.69 
M 310.23 115.33 317.03 114.59 
M 310.49 117.31 316.65 117.26 
M 309.91 119.12 317.02 120.39 
M 313.33 150.5 315.73 148.98 317.08 147.27 
M 316.94 154.24 315.63 152.62 313.21 151.12 
M 319.8 99.29 321.33 98.84 323.61 97.48 
M 317.62 96.1 318.67 96.21 
M 320.13 115.96 321.48 115.25 324.22 112.36 325.99 109.09 325.99 107.07 324.22 103.8 321.48 100.91 319.8 100.03 
M 316.99 106.73 323.11 105.96 
M 317.42 107.84 322.83 107.71 
M 317.22 109.5 322.55 110.57 
M 326.06 127.26 326.06 126.91 324.43 122.72 321.89 119.02 320.13 117.73 
M 317.94 126.27 323.01 125.1 
M 324.94 153.02 325.32 151.96 325.32 149.17 324.06 145.6 
M 325.47 107.95 327.82 107.07 330.83 104.82 332.77 102.27 332.77 100.68 331.95 99.6 
M 326.82 127.27 328.31 126.46 331.36 123.15 333.33 119.4 333.33 117.08 331.36 113.34 328.31 110.03 325.93 108.74 
M 325.91 150.51 328.23 149.01 331.21 145.17 332.15 143.04 
M 327.89 152.63 325.85 151.31 
M 332.62 116.63 334.03 115.79 336.49 112.84 338.08 109.49 338.08 107.42 336.49 104.08 334.03 101.12 332.11 99.97 
M 338.25 127.3 338.25 126.94 336.69 122.76 334.26 119.07 332.62 117.82 
M 330.46 126 335.82 124.82 
M 338.09 150.85 338.09 149.48 336.48 144.95 334.42 141.65 
M 330.04 148.95 335.49 147.63 
M 329.75 150.75 335.56 150.49 
M 337.51 107.51 339.45 106.69 342.43 104.03 
M 335.05 102.33 340.66 103.13 
M 338.94 127.31 340.41 126.43 343.25 123.07 345.07 119.26 345.07 116.9 343.25 113.09 340.41 109.73 338.2 108.42 
M 338.28 150.49 340.53 148.99 343.42 145.13 345.28 140.77 345.18 137.83 
M 338.87 139.49 342.31 139.15 
M 335.85 141.75 341.77 142.87 
M 344.42 116.52 345.89 115.56 348.26 112.49 348.95 110.9 
M 341.9 106.24 345.07 105.88 
M 341.9 107.7 346.88 108.27 
M 342.58 109.99 347.2 110.92 
M 344.61 138.15 344.93 137.87 
M 349.6 127.34 349.6 126.39 348.18 122.16 346 118.42 344.42 117.07 
M 342.41 125.21 346.98 124.16 
M 349.12 145.56 348.9 144.93 346.39 140.93 344.61 139.51 
M 349.51 125.11 350.15 124.79 
M 350 136.55 350.15 136.53 
M 347.93 138.38 350.15 138.52 
M 347.8 140.45 350.15 140.65 
M 213.24 95.77 213.24 95.77 
M 232.68 163.67 232.88 163.14 232.88 159.83 232.34 158.34 
M 232.33 163.59 232.59 163.27 234.87 157.64 
M 234.27 164.06 232.99 163.07 
M 235.71 164.41 241.48 165.33 
M 244.21 162.06 244.55 161.67 246.12 158.19 
M 248.21 166.29 246.84 163.97 245 162.42 
M 238.43 91.58 238.43 91.58 
M 247.59 163.76 253.23 165.04 
M 256.03 160.98 257.02 160 258.01 158.07 
M 253.65 90.33 253.65 90.33 
M 266.64 165.28 268.09 161.37 267.99 158.13 
M 262.49 90.26 262.49 90.26 
M 271.19 164.99 268.96 160.9 267.45 159.52 
M 275.94 90.25 275.94 90.25 
M 279.38 158.92 281.26 157.53 281.5 157.18 
M 283.48 165.05 283.11 163.98 280.65 159.92 279.38 158.87 
M 292.06 164.82 293.84 160.98 293.84 158.19 293.31 157.05 
M 295.45 91.55 295.45 91.55 
M 296.48 164.63 294.05 161.31 293.09 160.66 
M 300.92 92.29 300.92 92.29 
M 307.53 163.35 307.88 162.62 307.88 159.91 306.1 156.23 
M 297.17 161.48 304.33 161.45 
M 297.21 163.67 302 164.19 
M 311.95 94.44 311.95 94.44 
M 306.03 93.1 306.03 93.1 
M 307.16 162.28 309.12 160.72 311.63 156.75 312.2 155.17 
M 320.51 160.36 318.73 156.47 316.94 154.24 
M 318.67 96.21 318.67 96.21 
M 321.44 160.16 323.72 156.48 324.94 153.02 
M 336.28 157.13 338.09 152.28 338.09 150.85 
M 330.06 153.24 335.05 154.25 
M 342.29 155.08 340.54 152.79 338.25 151.28 
M 345.07 105.88 345.07 105.88 
M 350.15 140.65 350.15 140.65 
M 242.3 90.07 282.32 30 283.01 30.44 245.37 90.75 
M 254.56 89.59 274.21 54.62 274.94 55 257.54 90.26 
M 266.85 89.79 273.94 75.36 274.7 75.68 269.77 90.38 
M 281.39 89.83 282.82 90.22 
M 279.19 36.56 276.64 41.03 274.56 45.65 273.21 50.5 272.79 53 272.25 58.12 
M 273.17 58.6 272.12 62.65 271.57 66.7 271.78 70.74 272.16 72.76 273.23 76.81 
M 274.19 77.2 275.1 80.63 275.69 82.26 277.33 85.22 279.62 87.79 282.32 90.09 
M 277.88 38.79 275.52 43.31 274.56 45.65 273.21 50.5 272.48 55.55 
M 272.95 47.85 271 51.58 270.21 53.51 269.09 57.51 268.5 61.68 
M 268.02 56.91 266.49 59.86 265.86 61.37 264.98 64.52 264.51 67.81 
M 263.09 65.98 261.51 69.24 260.87 71.54 260.53 73.94 
M 272.61 60.62 271.76 64.67 271.57 66.7 271.78 70.74 272.66 74.79 
M 215.85 125.43 387.72 126.49 387.72 127.31 215.67 128.28 
M 215.68 129.16 366 137.06 365.96 137.88 215.61 132 
M 215.56 132.89 344.04 145.65 343.96 146.47 215.18 135.69 
M 215.02 136.55 321.97 152.27 321.86 153.08 214.49 139.3 
M 214.33 140.13 299.93 156.91 299.78 157.72 214.32 142.95 
M 214.36 143.84 278.05 159.58 277.87 160.38 214.2 146.59 
M 214.14 147.5 256.47 160.31 256.25 161.1 214.07 150.2 
M 213.95 151.23 235.31 159.12 235.05 159.9 213.53 153.61 
M 213.14 154.89 214.71 155.71 214.41 156.48 212.72 156.06 
M 369.55 127.41 364.78 128.4 362.45 129.05 358.03 130.83 353.92 133.3 350.01 136.22 
M 349.97 137.25 345.23 137.82 340.66 138.85 336.35 140.6 334.28 141.72 330.26 144.28 
M 330.16 145.32 325.5 145.46 320.96 146.08 316.62 147.44 314.52 148.38 310.4 150.57 
M 310.26 151.59 305.7 151.33 301.23 151.54 296.89 152.51 294.76 153.26 290.57 155.07 
M 290.38 156.09 285.96 155.42 281.58 155.24 277.26 155.82 275.13 156.37 270.89 157.81 
M 270.65 158.82 266.39 157.76 262.13 157.19 257.86 157.38 255.73 157.74 251.47 158.79 
M 251.19 159.79 247.12 158.35 245.07 157.79 240.92 157.21 236.7 157.39 232.43 158.05 
M 232.11 159.04 228.27 157.17 224.34 155.78 220.25 155.14 218.16 155.09 213.89 155.29 
M 367.15 127.88 362.45 129.05 358.03 130.83 355.94 131.98 351.95 134.73 
M 344.6 127.96 340.56 128.97 338.62 129.66 334.96 131.49 331.53 133.85 
M 322.05 128.05 318.67 128.89 315.48 130.17 313.98 131.01 311.11 132.98 
M 299.5 128.14 295.47 129.28 293 130.52 290.68 132.11 
M 276.95 128.22 274.88 128.74 272.93 129.52 270.26 131.24 
M 347.59 137.5 342.92 138.25 340.66 138.85 336.35 140.6 332.26 142.97 
M 327.77 136.7 323.76 137.35 321.82 137.86 318.11 139.36 314.59 141.41 
M 307.96 135.9 304.6 136.44 302.98 136.87 299.87 138.13 296.92 139.84 
M 288.15 135.1 284.13 135.89 281.63 136.9 279.26 138.28 
M 268.34 134.3 265.29 134.9 263.39 135.67 261.59 136.71 
M 327.82 145.36 323.21 145.69 320.96 146.08 316.62 147.44 312.45 149.44 
M 306.51 143.56 302.71 143.83 300.86 144.16 297.28 145.28 293.84 146.93 
M 285.21 141.76 282.21 141.98 280.75 142.23 277.93 143.11 275.22 144.41 
M 263.9 139.96 260.64 140.31 258.58 140.95 256.6 141.9 
M 307.97 151.43 303.45 151.35 301.23 151.54 296.89 152.51 292.66 154.13 
M 284.2 148.38 280.73 148.32 279.02 148.47 275.7 149.21 272.46 150.45 
M 260.42 145.34 256.82 145.4 254.51 145.91 252.25 146.78 
M 288.17 155.72 283.76 155.24 281.58 155.24 277.26 155.82 273 157.06 
M 259.43 150.8 256.57 150.49 255.15 150.49 252.35 150.86 249.58 151.67 
M 268.52 158.25 264.26 157.39 262.13 157.19 257.86 157.38 253.6 158.23 
M 249.16 159.04 245.07 157.79 243 157.41 238.82 157.21 234.57 157.69 
M 239.14 167.95 270.95 214.48 270.28 214.95 236.73 169.67 
M 237.66 167.72 238.13 168.67 
M 242.29 177.18 268.61 231.01 267.87 231.38 235.02 169.06 
M 236.16 167.5 236.43 168.34 
M 239.15 176.9 261.81 248.04 261.03 248.3 233.35 168.43 
M 234.62 167.28 234.73 167.97 
M 236.1 176.38 250.46 264.62 249.65 264.77 231.7 167.79 
M 233.8 167.28 233.81 167.43 
M 233.98 180.1 235.35 279.98 234.53 280 230.84 167.35 
M 266.93 210.43 265.56 213.49 264.69 216.6 264.56 219.79 264.77 221.41 265.51 224.68 
M 264.59 225.15 262.4 228.09 260.69 231.19 259.69 234.56 259.44 236.33 259.25 239.99 
M 258.27 240.31 255.29 242.98 252.73 245.91 250.81 249.26 250.07 251.08 248.88 254.89 
M 247.85 255.07 244.27 257.38 242.59 258.64 239.64 261.54 237.24 264.96 235.2 268.71 
M 266.21 211.95 265.04 215.04 264.53 218.18 264.56 219.79 265.11 223.04 
M 262.82 206.9 261.78 209.62 261.47 211 261.37 213.81 261.84 216.69 
M 259.43 201.84 258.53 204.2 258.26 205.4 258.17 207.84 258.58 210.34 
M 256.04 196.78 255.04 199.8 254.97 201.87 255.32 203.98 
M 252.64 191.72 251.83 194.2 251.77 195.9 252.06 197.63 
M 249.25 186.66 248.62 188.6 248.57 189.93 248.79 191.28 
M 263.46 226.6 261.47 229.61 260.69 231.19 259.69 234.56 259.31 238.15 
M 261.02 221.49 259.2 224.24 257.95 227.18 257.57 228.75 257.23 232.03 
M 258.58 216.38 256.93 218.86 256.29 220.17 255.46 222.94 255.15 225.9 
M 256.14 211.27 254.66 213.48 254.09 214.65 253.35 217.13 253.07 219.78 
M 253.69 206.15 252.39 208.11 251.89 209.14 251.24 211.32 250.99 213.66 
M 251.25 201.04 250.13 202.73 249.36 204.55 248.92 207.54 
M 248.81 195.93 247.49 198.11 247.01 199.71 246.84 201.41 
M 246.36 190.82 245.29 192.6 244.9 193.9 244.76 195.29 
M 256.75 241.63 253.94 244.4 252.73 245.91 250.81 249.26 249.45 252.97 
M 255.15 236.46 252.54 239.04 251.42 240.44 249.63 243.55 248.36 247 
M 253.56 231.29 251.14 233.67 250.1 234.97 248.45 237.85 247.28 241.04 
M 251.96 226.11 249.74 228.3 248.79 229.5 247.27 232.14 246.19 235.07 
M 250.37 220.94 248.34 222.94 247.47 224.03 246.09 226.44 245.11 229.11 
M 248.77 215.77 246.94 217.57 246.16 218.56 244.91 220.73 244.02 223.14 
M 247.18 210.6 244.84 213.09 243.73 215.03 242.94 217.18 
M 245.58 205.43 243.53 207.61 242.55 209.32 241.86 211.21 
M 243.99 200.26 242.22 202.14 241.37 203.61 240.77 205.25 
M 242.39 195.09 240.9 196.67 240.19 197.91 239.69 199.28 
M 246.04 256.2 242.59 258.64 239.64 261.54 238.37 263.19 236.19 266.81 
M 245.19 250.55 241.96 252.84 239.2 255.55 238.01 257.1 235.97 260.48 
M 244.34 244.9 241.34 247.03 238.76 249.56 237.66 251 235.75 254.16 
M 243.5 239.25 240.71 241.23 238.32 243.57 237.3 244.91 235.53 247.84 
M 242.65 233.6 240.08 235.43 237.88 237.59 236.94 238.81 235.31 241.51 
M 241.81 227.95 239.46 229.62 237.44 231.6 236.58 232.72 235.09 235.19 
M 240.96 222.3 238.83 223.82 237 225.61 234.88 228.86 
M 240.11 216.66 237.34 218.78 235.86 220.53 234.66 222.54 
M 239.27 211.01 237.58 212.21 236.13 213.63 234.44 216.21 
M 238.42 205.36 236.95 206.4 235.69 207.64 234.22 209.89 
M 237.58 199.71 235.76 201.1 234.79 202.25 234 203.56 
M 338.93 159.25 342.2 164.84 342.93 167.4 341.21 168.87 338.07 167.43 333.05 168 331.51 169.88 327.26 172.28 325.55 173.95 323.64 175.48 319.12 177.7 316.65 177.9 314.27 178.37 311.79 179.19 310.23 180.92 307.91 181.82 304.86 182.04 302.05 182.54 300.67 184.49 298.7 185.79 296.46 186.7 294 187.14 288.46 187.7 285.95 188.3 282.94 189.8 282.69 188.63 280.98 184.27 279.24 181.44 277.07 178.58 273.65 172.32 271.6 168.89 
M 335 160.48 339.1 165.43 
M 331.01 161.5 335.22 165.49 
M 326.99 162.36 331.16 165.96 
M 322.95 163.16 328.49 166.98 
M 318.94 164.09 323.11 170.05 
M 314.95 165.1 321.21 173.8 
M 310.99 166.21 314.9 170.84 
M 306.98 167.16 310.79 171.6 312.42 174.05 
M 302.93 167.85 305.92 171.67 309.41 177.34 
M 298.84 168.31 301.74 171.96 
M 294.73 168.58 297.6 172.15 300.64 177.89 
M 290.62 168.75 293.34 172.55 295.2 175.88 
M 286.51 168.9 288.7 172.6 289.95 175.79 291.46 178.32 
M 282.39 169 286.58 175.33 287.85 178.3 289.58 181.5 
M 278.28 168.96 280.56 172.8 281.89 175.75 284.18 178.54 
M 274.16 168.92 276.49 172.53 279.83 178.6 
M 350.15 112.45 352.18 110.94 353.67 108.9 356.94 104.98 359.12 103.2 360.99 101.15 365.25 98.13 368.45 93.68 370.66 91.62 372.01 90.58 373.52 88.86 375.9 86.79 378.65 84.71 381.19 83.99 382.86 82.79 385.01 82.55 387.07 81.59 390.35 80.53 392.04 80.2 395.35 78.81 398.1 77.22 401.65 75.88 404.71 75.5 408.23 75.37 410.76 74.63 413.21 74.24 416.03 72.55 419.09 71.18 419.82 77.6 421.1 80.49 422.61 85.69 421.24 87.69 419.47 89.26 418.5 91.63 418.19 94.34 417.49 96.66 415.51 101.03 414.22 103.02 413.26 105.35 411.34 106.81 408.87 111.2 408.04 113.81 406.12 115.34 403.51 116.19 401.44 117.57 398.23 121.21 395.77 122.14 393.66 123.42 391.34 124.43 389.38 125.74 387.13 126.74 384.69 127.56 382.39 128.64 380.49 130.23 378.88 132.11 377.11 133.83 376.12 136.08 376.3 138.11 378.43 138.77 381.2 140.07 388.55 143.92 389.92 144.17 391.75 144.99 397.75 148.94 403.46 153.61 407.58 156.74 408.59 158.37 409.89 161.1 411.28 163.2 416.2 168.9 418.97 172.53 419.83 176.01 420.74 178.22 420.95 180.97 420.82 183.44 421.07 185.89 421.99 188.8 422.17 190.95 422.76 193.9 418.4 198.79 416.66 198.65 413.7 197.91 411.2 196.95 407.83 196.97 402.28 196.2 399.74 194.9 397.74 193.18 395.96 191.94 394.55 191.98 392.28 191.28 389.76 190.25 387.18 188.94 385.81 187.14 378.68 182.08 376.04 180.89 373.73 179.6 370.31 175.28 367.88 173.31 366.2 171.64 364.23 170 362.64 167.94 360.7 165.93 359.3 163.57 357.33 161.3 355.87 158.61 352.43 153.31 350.15 150.48 
M 353.97 111.07 355.77 109.43 357.36 107.51 359.84 105.86 366.43 100.91 368.19 99.23 370.16 96.87 374.14 93.74 375.64 92.09 377.17 90.96 382.59 88.86 
M 350.15 116.06 352.34 114.88 358.04 110.02 365.4 105.29 367.36 103.77 373.55 98.28 378.68 95.53 383.63 93.61 386.24 92.16 389.07 91.08 395.41 89.67 397.96 88.91 400.28 88.71 
M 350.15 117.87 352.51 116.68 358.67 112.2 361.24 111.18 363.97 109.64 366.72 108.34 368.58 107.06 376.34 100.95 378.61 100.41 380.6 99.16 382.87 98.62 386.07 98.17 390.44 94.79 393.04 94.27 397.55 94.66 399.95 94.32 401.95 94.78 
M 357.25 115.91 359.25 114.66 364.47 112.88 369.43 110.35 373.99 107.6 375.8 106.05 377.56 104.96 380.03 104.33 382.94 103.99 387.89 101.17 390.11 100.91 
M 353.09 120.49 360.02 117.1 365.62 115.62 368.12 114.66 369.84 113.75 372.24 113.04 375.1 113.05 378.47 110.82 
M 350.15 123.28 353.45 122.54 361.13 120.03 365.91 118.94 368.78 118.11 370.3 116.92 372.91 116.66 376 116.98 378.25 116.57 
M 353.59 124.62 356.46 124.05 359.22 123.73 365.76 121.94 370.52 121.14 373.53 120.13 379.41 120.01 381.48 119.77 383.63 119.31 
M 350.15 126.9 356.21 126.47 359.08 126.66 361.65 126.13 363.67 125.24 368.53 125.14 371.39 125.26 377.24 124.27 379.31 123.17 
M 362.19 129.14 363.98 129.43 367.78 128.98 370.52 129.12 373.21 129.95 376.2 129.9 378.56 129.48 
M 356.51 131.67 358.7 131.68 361.67 132.59 365.13 133.89 372.71 134.44 
M 353.48 133.61 356.35 134.25 358.5 134.54 361.46 135.54 365.1 137.2 369.2 137.39 
M 353.3 135.55 355.92 136.42 358.15 137.58 361.21 138.69 373.26 141.41 374.88 141.52 376.88 141.25 
M 355.69 138.7 358.15 139.86 361.06 140.84 363.8 141.28 365.94 142.04 368.6 142.6 373.14 145.08 376.2 146.27 378.97 146.01 381.49 145.26 
M 358.02 141.98 360.91 143.41 363.61 144.13 365.65 144.95 372.75 148.15 375.01 149.54 378.58 149.31 380.94 148.85 383.36 149.64 386.45 149.52 392.33 151.68 395.6 151.57 397.51 150.9 
M 350.15 139.54 355.61 143.25 360.6 145.72 363.3 147.33 365.66 148.38 368.44 149.01 370.41 149.65 373.09 151.02 375.59 151.64 378.77 152.7 381.35 153.86 382.9 154.36 385.28 154.66 387.99 156.09 
M 350.15 141.34 355.6 145.51 358.07 146.78 363.36 150.01 367.85 152.02 370.79 153.56 373.45 154.21 375.37 154.99 381.86 158.98 384.14 160.59 387.5 161.3 389.14 162.21 389.66 163.79 
M 358.02 149.02 360.28 150.84 364.83 154.05 367.48 155.2 369.66 156.71 371.84 157.88 373.7 159.39 375.83 160.85 377.54 161.72 380.49 162.62 383.33 163.26 385.51 164.28 387.44 166.43 
M 353.04 147.4 357.65 151.51 364.32 157.02 367.95 160.56 370.74 163.92 372.7 165.68 375.85 166.09 381.78 167.51 383.83 168.98 
M 355.03 151.42 361.36 157.63 364.54 162.05 366.38 163.7 367.65 165.65 372.01 169.22 374.57 170.31 377.28 170.96 380.75 173.18 383.08 173.94 386.37 176.08 
M 356.71 156.01 358.58 158.27 363.36 165.03 365.39 166.99 367.7 168.43 369.67 170.29 372.06 172.18 374.44 173.67 377.22 176.06 382.05 179.02 385.49 180.55 387.98 182.53 390.68 183.69 393.66 187.06 395.67 187.27 398.65 186.7 401.06 187.1 402.59 187.93 
M 327.7 98.46 328.51 96.22 330.48 92.1 331.7 90.27 333.26 88.78 335.26 87.73 339.87 86.25 341.75 85.08 343.3 83.63 345.03 83.27 347.07 84.82 348.74 87.75 349.33 91.02 348.58 93.7 346.86 95.3 344.89 95.96 343.14 96.77 341.67 97.85 340.44 99.17 339.35 100.64 338.93 102.11 
M 331.09 94.48 331.7 93.56 333.26 92.07 335.26 91.03 339.87 89.54 341.75 88.37 343.3 86.92 345.03 86.56 346.05 87.34 
M 101.96 142.9 105.35 140.09 112.07 132.82 117.6 129.12 123.83 126.28 129.47 123.97 142.35 117.19 150.25 113.59 159.42 110.05 175.43 105.18 190.18 100.94 196.41 99.76 201.37 99.05 204.22 98.81 207.4 101.83 208.85 104.99 212.39 111.26 213.86 114.42 214.76 117.64 215.97 124.12 215.67 127.44 215.69 130.73 215.48 134.05 214.21 140.75 214.37 144.03 214.06 150.65 213.46 154 212.24 157.4 209.93 160.85 182.85 159.82 172.7 158.92 163.15 158.01 132.61 153.94 
M 126.54 153.06 115.45 150.84 
M 185.83 123.01 186.07 125.84 184.19 131.37 182.83 133.8 181.2 135.91 180.08 137.85 180.26 141.65 181.06 143.43 183.21 147.34 183.87 149.8 165.8 149.61 151.24 149.17 137.75 148.13 131.52 147.36 
M 129.39 153.65 100.22 147.64 98.2 146.92 97.23 144.99 98.01 143 100.02 142.3 123.17 150.39 132.73 153.47 
M 132.7 154.29 122.32 156.07 110.49 158.88 106.43 159.37 100.08 160.46 98.31 159.63 97.79 157.6 98.92 155.87 100.95 155.43 111.43 155.17 123.43 153.94 132.55 153.46 
M 144.92 144.92 142.2 141.1 140.86 136.61 141.05 131.92 142.76 127.55 145.79 123.97 149.82 121.57 154.41 120.61 159.06 121.19 163.28 123.25 166.59 126.57 168.65 130.78 169.23 135.43 168.27 140.02 165.87 144.05 162.29 147.08 157.92 148.79 153.23 148.98 148.74 147.64 144.92 144.92 
M 164.27 128.22 165.92 131.59 166.38 135.32 165.61 138.99 163.69 142.21 160.83 144.63 157.34 146 153.59 146.15 149.99 145.08 146.94 142.9 
M 150.35 138.26 149.26 136.73 148.72 134.93 148.8 133.06 149.48 131.31 150.7 129.88 152.31 128.92 154.14 128.53 156.01 128.76 157.69 129.59 159.02 130.92 159.84 132.6 160.07 134.46 159.69 136.3 158.73 137.91 157.3 139.12 155.55 139.8 153.67 139.88 151.88 139.35 150.35 138.26 
M 150.72 137.43 152.96 139.67 
M 150.99 135.48 155.32 139.81 
M 151.89 134.16 156.98 139.25 
M 150.94 130.99 158.26 138.31 
M 152.7 130.52 159.24 137.06 
M 156.06 131.66 159.86 135.46 
M 155.76 129.14 159.93 133.31 
M 101.97 142.89 102 142.92 
M 104.68 140.66 108.72 144.69 
M 107.16 138.2 110.64 141.68 
M 109.54 135.64 113.25 139.35 
M 111.87 133.04 115.45 136.61 
M 114.78 131.01 119.71 135.94 
M 117.76 129.05 121.82 133.1 
M 121.15 127.5 125.27 131.62 
M 124.57 125.97 128.62 130.03 
M 128.07 124.54 131.49 127.96 
M 131.44 122.97 136.31 127.84 
M 134.71 121.3 138.93 125.52 
M 137.93 119.58 141.55 123.21 
M 141.13 117.85 144.27 120.99 
M 144.45 116.23 147.97 119.75 
M 147.84 114.68 151.76 118.6 
M 151.29 113.19 153.88 115.79 
M 154.85 111.82 159.06 116.02 
M 158.41 110.44 160.98 113.01 
M 162.14 109.23 166.78 113.87 
M 165.93 108.08 168.63 110.78 
M 169.71 106.92 172.37 109.58 
M 173.5 105.77 178.15 110.42 
M 177.31 104.65 180.82 108.15 
M 181.16 103.56 184.61 107 
M 185 102.46 189.31 106.77 
M 188.82 101.34 193.44 105.96 
M 192.85 100.43 196.32 103.91 
M 197.02 99.67 201.28 103.93 
M 201.35 99.05 205.37 103.07 
M 184.83 103.76 183.9 102.78 
M 179.91 155.38 179.14 155.51 176.41 156.51 174.34 156.78 173.69 156.45 172.74 154.83 
M 177.59 116.61 175.69 116.14 174.19 115.57 173.6 115.54 173.07 115.67 172.72 115.95 172.49 116.56 172.52 117.46 
M 175.91 120.26 174.87 120.36 173.63 121.21 171.62 124.15 
M 205.97 124.02 205.2 123.25 204.68 122.19 204.57 120.74 204.68 120.44 205.2 120.05 
M 184.5 140.99 182.3 140.82 178.35 142.2 173.75 141.95 
M 167.06 158.38 166.09 156.91 165.35 156.18 163.64 155.25 162.37 155.3 160.56 156.37 
M 176.11 134.09 175.46 134.72 174.87 135.84 
M 113.09 135.92 116.32 135.11 117.44 134.6 117.86 134.23 118.4 133.02 118.45 132.23 118.35 130.24 117.92 128.97 
M 134.75 127.74 132.86 127.3 131.51 125.75 130.66 125.24 129.94 125.17 129.31 125.38 
M 170.64 119.46 171.13 121.03 170.8 121.79 170.29 122.22 
M 180.31 120.54 178.09 119.59 174.51 119.14 173.68 118.72 
M 204.62 118.25 206.91 117.51 207.17 117.86 207.19 118.72 
M 131.04 148.51 132.68 147.85 133.66 146.75 134.13 145.41 134.37 144.18 133.98 142.73 
M 106.38 144.59 106.09 143.8 106.12 142.9 106.4 142.15 107.17 141.32 
M 118.69 151.56 118.65 151.39 
M 136.74 153.33 138.49 151.76 139.31 150.7 139.81 150.42 140.35 150.25 140.92 150.39 141.12 150.87 140.86 151.58 
M 140.92 135.2 140.09 133.76 139.08 132.52 136.8 131.32 134.94 130.76 132.72 129.81 
M 110.56 141.35 111.12 140.36 112.7 138.82 114.5 136.73 117.33 135.58 117.84 135.25 118.57 134.11 118.87 132.51 
M 155.29 151.91 155.41 151.15 155.29 150.33 154.77 148.92 
M 200 100.27 199.14 99.37 
M 166.83 148.4 168.73 149.88 170.14 150.36 171.51 150.41 171.69 150.57 171.69 150.87 
M 208.71 110.56 211.1 109.1 
M 204.08 150.61 201.86 149.95 200.74 150.04 198.76 150.93 198.25 151.36 198.04 151.98 
M 195.23 119.16 194.73 119.18 193.25 120.22 192.64 120.47 
M 188.28 132.36 187.6 132.43 187.3 132.68 187.21 133.29 187.43 134.29 
M 196.1 123.35 195.45 122.13 194.14 120.83 193.74 120.61 192.35 120.55 191.37 119.64 
M 203.54 137.33 204.94 138.3 205.9 140.21 206.47 140.58 206.85 140.56 
M 207.69 150.53 205.28 146.79 205.26 146.39 205.6 145.65 206.16 145.17 207.01 144.83 
M 206.55 115.29 206.92 115.12 207.13 114.78 206.94 113.53 
M 123.17 138.93 123.81 139.8 124.45 141.25 124.32 142.25 123.64 142.64 
M 170.3 150.79 171.45 150.73 171.65 150.81 171.63 150.96 
M 168.36 148.3 169.99 149.38 171.72 149.86 171.88 150.19 171.68 150.91 
M 210.26 129.6 210.68 128.15 210.23 127.07 209.49 126.38 209.01 126.15 208.13 126.02 206.8 125.16 
M 168.26 155.59 166.7 153.11 166.74 152.56 167.35 151.93 169.37 151.14 170.47 150.82 171.48 150.77 
M 172.99 106.27 172.46 107.77 171.17 109.51 171.07 109.96 171.35 110.59 172.32 111.06 
M 170.5 151.7 171.63 150.96 
M 181.58 144.29 178.79 143.56 177.09 142.49 173.68 142.01 
M 185.57 124.5 184.94 121.96 184.89 121.19 185.21 119.91 185.15 118.61 184.97 118.08 183.79 116.9 
M 206.24 134.55 207.55 133.49 208.88 131.93 210.74 130.51 212.06 129.09 214.32 127.93 
M 172.64 148.34 173.4 148.62 173.52 148.83 173.45 149.36 172.36 150.52 171.65 150.99 
M 204.62 142.48 205.99 143.88 206.63 144.13 207.62 144 208.18 143.75 209.67 142.31 
M 195.56 104.62 196.31 105.01 197.62 106.3 198.05 107.19 198.02 108.19 
M 114.65 140.1 115.01 138.63 115.35 138.02 116.17 137.21 117.61 136.31 118.38 135.5 119.1 134.31 119.41 132.69 
M 213.32 117.85 212.6 118.63 211.95 118.95 210.24 119.37 207.82 120.52 207.1 120.55 206.59 120.29 
M 213.65 144.46 213.13 143.74 213.1 143.08 213.51 142.49 214.27 142.01 
M 138.64 142.42 138.08 143.44 137.6 143.7 136.05 142.75 135.06 141.93 
M 108.93 159.07 112.68 159.61 118.62 160.18 124.57 160.49 130.53 160.4 136.48 159.88 142.48 159.07 154.6 156.88 
M 142.34 158.09 142.81 159.01 
M 154.3 156.94 154.34 156.88 
M 208.19 103.57 210.83 106.2 
M 208.39 97.18 217.71 106.5 
M 213.5 95.7 218.51 100.71 
M 219.1 94.72 224.62 100.24 
M 224.94 93.98 232.98 102.01 
M 230.58 93.04 238.37 100.82 
M 236.13 91.99 241.93 97.8 
M 241.83 91.11 248.13 97.41 
M 247.87 90.57 253.75 96.45 
M 254.2 90.31 263.11 99.23 
M 260.7 90.23 265.77 95.3 
M 267.4 90.35 274.85 97.8 
M 273.95 90.32 279.19 95.55 
M 280.44 90.22 286.38 96.16 
M 287.42 90.61 296.69 99.89 
M 294.86 91.47 301.3 97.91 
M 302.5 92.53 308.14 98.16 
M 310.67 94.11 317.37 100.81 
M 319.61 96.46 327.58 104.43 
M 328.37 98.64 334.29 104.56 
M 338.11 101.79 344.7 108.39 
M 244.59 89.27 244.97 90.03 
M 252.16 89.6 252.59 90.44 
M 250.9 79.67 254.21 86.29 
M 254.95 87.76 255.76 89.39 
M 253 76.46 253.37 77.2 
M 254.11 78.67 258.52 87.51 
M 255.47 74 262.1 87.25 
M 262.84 88.72 263.64 90.33 
M 257.58 70.79 267.36 90.35 
M 264.1 76.42 271.05 90.33 
M 263.99 68.8 274.74 90.3 
M 263.52 60.45 265.36 64.13 
M 266.83 67.07 278.42 90.26 
M 265.62 57.25 267.46 60.93 
M 270.4 66.82 271.64 69.29 
M 281.84 89.7 282.11 90.23 
M 267.72 54.04 272.1 62.8 
M 269.82 50.84 272.44 56.07 
M 271.92 47.64 272.29 48.37 
M 272.96 49.7 273.25 50.3 
M 274.03 44.43 274.59 45.57 
M 276.13 41.23 276.34 41.65 
M 278.23 38.03 278.28 38.12 
"/></svg>