<svg xmlns="http://www.w3.org/2000/svg" width="520" height="320"><rect x="0" y="0" width="520" height="320" fill="floralwhite"/><rect x="10" y="10" width="500" height="300" stroke="black" stroke-width="1" fill="none"/><path stroke="black" stroke-width="1" fill="none" stroke-linecap="round" stroke-linejoin="round" d="
M 159.57 139.14 169.88 135.92 180.15 133.03 190.42 130.41 210.96 125.58 221.23 123.63 231.5 122.2 241.77 121.12 272.58 120.59 282.85 121.53 293.12 123.38 303.39 125.67 334.2 133.19 344.47 136 375.28 145.71 416.36 157.88 
M 416.36 179.57 385.55 190.74 375.28 194.32 354.74 200.71 344.47 203.4 323.93 208.39 313.66 210.22 293.12 213.26 282.85 214.02 272.58 214.54 262.31 214.32 241.77 214.49 231.5 213.47 221.23 211.79 210.96 209.84 200.69 207.69 190.42 205.82 180.15 203.6 169.88 200.77 149.34 194.06 
M 412.12 161.16 405.03 160.78 397.8 160.02 379.2 156.73 367.52 155.01 344.41 152.61 340.73 152.33 326 151.87 322.28 151.62 314.57 150.6 303.12 148.81 287.4 146.73 
M 284.09 146.38 282.44 146.23 279.09 146.23 272.28 146.54 261.88 147.55 254.92 147.82 238.29 148.88 
M 230.75 149.04 223.18 148.92 
M 219.32 148.94 213.43 149.13 207.89 149.67 
M 196.32 196.91 198.14 198.77 
M 162.99 138.07 169.74 149.36 
M 167.82 136.56 174.74 147.15 
M 204.71 191.32 204.97 191.62 
M 208.23 195.46 211.19 199.05 
M 172.99 135.05 178.22 142.39 180.42 145.88 
M 217.45 199.05 222.84 205.5 
M 178.31 133.55 181.93 138.35 184.54 142.27 186.71 145.98 
M 183.54 132.17 188.08 138.37 192.21 145.13 
M 214.6 178.91 217.94 183.12 
M 221.02 187.22 223.88 191.19 
M 188.54 130.89 194.09 138.48 197.28 143.45 
M 211.14 166.31 214.19 170.18 
M 217.63 174.41 222.53 180.68 231.02 192.79 235.38 198.6 
M 193.43 129.72 200.12 138.49 202.76 142.36 206.14 147.97 
M 207.95 151.16 209.82 154.46 
M 211.89 157.86 212.87 159.44 215.93 163.64 224.21 174.06 
M 227.18 178.2 229.91 182.32 
M 238.4 194.64 241.36 198.5 
M 198.35 128.59 203.44 134.87 208.93 142.34 216.69 154.98 219.67 159.21 221.32 161.28 
M 224.62 165.43 229.35 171.67 233.32 177.92 
M 235.88 182.12 238.58 186.35 
M 244.36 194.52 247.25 198.16 
M 250.07 201.32 252.78 203.97 
M 203.18 127.45 209.54 135.07 213.73 140.58 
M 216.4 144.53 220.37 150.75 221.86 152.83 
M 228.31 161.06 233.06 167.3 235.74 171.5 241.87 182.13 
M 244.54 186.35 247.37 190.44 
M 258.43 202.98 261.03 205.15 
M 207.88 126.32 212.85 132.03 215.59 135.47 218.28 139.13 223.63 146.96 226.63 150.94 233.33 158.86 236.49 163 239.26 167.26 247.76 182.19 
M 250.41 186.3 253.19 190.23 
M 255.99 193.79 260.08 198.37 262.75 200.95 266.83 204.28 
M 212.49 125.29 216.07 129.37 218.72 132.7 226.54 143.58 229.5 147.35 236.2 154.88 239.47 158.86 240.97 160.98 
M 243.81 165.29 253.51 182.17 
M 270 201.34 272.8 203.5 
M 217.03 124.43 221.9 130.23 229.42 140.43 232.27 143.97 242.18 154.94 245.37 159.09 248.28 163.47 252.09 169.99 
M 254.41 174.15 259.09 181.98 
M 261.68 185.73 263.04 187.59 267.32 192.66 
M 270.2 195.63 273.08 198.29 
M 281.22 204.64 285.93 207.74 
M 221.43 123.6 225.23 127.95 232.58 137.36 235.3 140.61 243.12 149.22 
M 249.57 157.27 253.93 163.88 263.33 179.83 265.91 183.57 270.2 189 
M 281.51 199.94 284.04 202.01 
M 286.4 203.92 288.62 205.69 
M 226.06 122.96 231.16 128.59 238.59 137.28 247.44 147.08 250.63 150.99 253.75 155.27 258.06 161.91 
M 260.65 166.14 262.99 170.11 
M 270.2 181.46 273.03 185.19 
M 275.9 188.67 280.16 193.22 284.16 196.96 
M 230.79 122.3 237.16 128.69 247.38 139.78 253.27 146.77 259.28 155.35 271.55 175.29 277.16 183.05 279.98 186.58 284.06 191.12 
M 286.72 193.84 291.6 198.83 
M 235.95 121.73 240.67 125.95 249.31 134.75 
M 251.93 137.66 256.02 142.65 258.87 146.58 261.77 150.81 265.8 157.15 
M 268.19 161.13 274.01 170.67 276.73 174.7 281.06 180.59 
M 286.65 187.51 289.37 190.57 
M 303.12 205.33 304.98 206.75 
M 241.43 121.16 246.51 125.43 251.38 130.11 256.35 135.58 258.91 138.82 264.4 146.3 267.1 150.37 273.98 162.08 279.07 169.95 286.42 180.01 
M 292.17 187.08 294.82 190.24 
M 297.26 193.19 299.51 195.98 
M 301.68 198.61 303.89 201.07 
M 247.68 120.99 252.25 124.75 257.08 129.5 264.61 138.42 267.32 141.99 269.96 145.81 272.37 149.72 277.81 159.39 
M 280.26 163.3 287.35 173.66 295.02 183.35 
M 297.82 186.83 300.36 190.08 
M 304.9 195.98 307.13 198.68 
M 309.47 201.22 310.67 202.45 314.02 205.33 
M 254.09 120.87 257.91 124.11 260.29 126.46 265.14 131.71 269.09 136.28 
M 271.75 139.7 275.48 145.24 281.9 156.95 285.56 163 
M 288.31 167.17 292.91 173.48 297.74 179.43 
M 312.76 198.89 315.24 201.47 
M 260.41 120.82 263.42 123.56 270.82 131.17 273.5 134.11 276.15 137.39 278.64 140.99 280.88 144.76 284.01 150.68 
M 286.12 154.76 289.59 160.94 293.79 167.18 
M 300.27 175.39 306.39 183.12 
M 313.6 193.35 315.98 196.34 
M 266.25 120.73 276.4 130.67 279.07 133.64 281.61 136.96 284 140.62 286.2 144.48 291.51 154.81 
M 293.86 158.99 295.1 161.07 297.89 165.15 309.1 179.33 
M 314.27 186.89 317.84 192.01 319.09 193.55 
M 271.79 120.61 279.17 127.55 281.83 130.27 284.43 133.29 286.93 136.7 289.3 140.44 291.54 144.39 298.28 157.01 300.87 161.08 303.81 165.1 310.32 173.36 313.29 177.45 320.84 188.83 324.73 193.66 
M 330.02 199.19 332.43 201.43 
M 278 121.09 284.55 127.13 287.17 129.91 289.75 133.06 292.26 136.58 294.71 140.37 301.73 152.78 305.68 159.04 
M 308.63 163.13 311.75 167.25 
M 314.8 171.41 320.14 179.57 
M 325.2 187.11 326.51 188.87 330.46 193.45 
M 284.95 121.91 289.94 126.64 292.56 129.59 295.17 132.91 300.37 140.3 304.09 146.43 
M 306.58 150.69 310.69 157.1 319.58 169.48 325.85 179.6 
M 328.35 183.34 332.2 188.35 336.07 192.72 
M 292.72 123.31 295.45 126.19 299.49 131.06 
M 302.21 134.59 306.19 140.29 310.02 146.56 
M 312.76 150.87 323.04 165.45 329.15 175.49 
M 331.55 179.18 334.01 182.59 
M 336.51 185.77 341.61 191.8 
M 344.19 194.75 346.76 197.55 
M 300.33 124.99 303.91 129.2 306.6 132.75 309.23 136.51 313.13 142.57 
M 315.9 146.79 326.33 161.43 330.07 167.35 
M 334.77 174.84 337.15 178.26 
M 339.58 181.51 342.06 184.68 
M 349.75 194.21 352.13 196.86 
M 307.48 126.7 312.14 132.95 320.19 144.84 329.32 157.29 333.21 163.13 
M 335.62 166.9 339.14 172.31 342.74 177.34 
M 345.18 180.65 350.21 187.44 
M 352.82 190.78 355.46 193.95 
M 314.04 128.35 322.99 140.79 332.14 152.94 338.71 162.66 
M 345.97 173.41 353.41 183.89 
M 320.72 129.98 335.08 148.5 337.92 152.49 341.79 158.4 
M 344.3 162.26 358.05 182.33 364.56 191.06 
M 328.2 131.78 330.75 134.74 
M 333.76 138.35 338.31 144.07 341.15 148.04 345.02 154.1 
M 347.56 158.14 355.24 169.68 
M 357.77 173.42 360.29 177.19 
M 336.84 133.91 341.75 139.79 344.59 143.7 352.26 156.03 356.18 162.02 
M 358.77 165.92 366.36 177.67 
M 368.83 181.48 371.3 185.15 
M 345.63 136.37 348.03 139.58 350.71 143.6 357.14 153.9 
M 362.33 161.98 364.92 166.04 
M 367.45 170.13 369.94 174.22 
M 353.68 138.92 356.96 143.71 365.96 158.01 
M 368.53 162.16 371.08 166.38 
M 373.55 170.62 378.37 178.83 
M 361.68 141.48 366.01 148.05 370.96 156.22 381.94 175.47 
M 369.59 143.95 374.83 152.55 385.45 172.02 
M 390.22 180.19 392.55 183.99 
M 377.08 146.24 380.94 153.2 386.61 164.1 
M 388.93 168.49 391.3 172.76 
M 393.69 176.88 397.7 183.6 
M 383.86 148.24 394.78 169.2 
M 399.45 177.5 401.59 181.26 
M 390.39 150.2 398.34 165.5 
M 397.12 152.22 401.96 161.63 
M 404.04 165.81 410.57 178.22 
M 404.01 154.24 408.61 163.8 411.84 170.11 
M 410.8 156.24 413.33 161.74 
M 165.54 137.27 162 142.24 
M 172.87 135.08 163.71 147.73 
M 180.43 132.96 167.7 150.25 
M 187.9 131.05 181.15 140.34 
M 178.08 144.44 176.69 146.3 
M 195.42 129.26 183.15 146.03 
M 156.65 186.82 154.76 189.99 
M 203.49 127.38 200.04 131.32 190.49 144.48 
M 212.24 125.34 208.79 128.68 206.13 131.6 203.48 134.87 197.29 143.44 
M 221.38 123.61 217.44 126.76 214.83 129.22 212.23 131.98 208.24 136.8 
M 205.52 140.43 202.07 145.24 
M 230.26 122.37 223.36 127.68 220.69 130.04 218.14 132.62 213.07 138.7 208.82 144.39 
M 237.55 121.56 229.27 128.44 223.82 133.45 221.33 136.19 217.68 140.89 
M 215.01 144.5 208.62 153.31 
M 243.61 121.08 232.33 131.41 229.5 134.13 226.88 136.94 224.49 139.91 215.27 152.86 
M 248.85 120.96 238.33 131.38 234.02 135.85 
M 231.35 138.92 227.8 143.7 223.13 150.83 214.31 163.7 211.63 168.09 209.16 172.64 
M 253.92 120.87 245.69 129.43 
M 242.86 132.49 237.31 138.94 
M 234.79 142.3 231.45 147.44 226.98 154.89 218.39 167.84 214.6 174.54 
M 212.31 178.98 211.61 180.33 
M 258.94 120.83 252.86 127.24 247.41 133.44 244.68 136.79 240.83 142.09 
M 238.53 145.69 233.41 154.88 229.71 161.03 
M 226.87 165.35 223.95 169.76 
M 218.73 178.73 216.41 183.19 
M 263.91 120.77 255.9 129.61 250.63 136.13 248.07 139.7 245.65 143.46 243.45 147.29 237.41 158.84 235.01 163.01 227.77 173.89 
M 222.54 182.84 220.2 187.27 
M 268.81 120.67 261.51 129.1 257.66 133.92 
M 255.16 137.36 251.57 142.95 246.38 153.03 
M 242.21 161.02 239.78 165.15 
M 237.05 169.38 234.11 173.66 
M 231.18 178 228.48 182.42 
M 226.04 186.85 223.68 191.18 
M 273.64 120.69 269.46 125.61 264.57 131.76 259.55 138.78 257.27 142.59 255.15 146.69 249.15 159.32 246.92 163.37 243.02 169.5 
M 237.22 177.86 233.03 184.31 231.8 186.48 
M 229.42 190.8 227.06 194.97 
M 221.88 202.36 219.12 205.4 
M 278.24 121.11 272.59 128.07 267.78 134.66 265.27 138.36 262.86 142.32 260.69 146.52 257.76 153.12 
M 255.79 157.49 253.7 161.72 
M 251.39 165.8 247.47 171.81 243.18 177.94 
M 240.37 182.13 235.25 190.57 
M 227.98 202.29 226.68 204 225.3 205.5 
M 282.85 121.53 280.21 124.77 275.84 130.72 271.1 137.85 268.61 141.88 266.24 146.16 264.12 150.66 260.27 159.79 259.2 161.93 
M 256.95 166.11 254.46 170.13 
M 251.78 174.09 244.95 184.27 241.24 190.54 
M 236.46 198.58 234.04 202.24 
M 287.11 122.3 281.28 130.31 275.56 139.35 
M 273.06 143.49 269.42 150.1 268.36 152.43 
M 266.35 157.1 263.43 163.97 261.2 168.22 252.08 182.22 
M 249.57 186.34 247.17 190.47 
M 244.81 194.54 242.45 198.49 
M 237.62 205.56 235.41 208.15 
M 291.45 123.08 286.63 129.94 282.23 136.92 274.68 149.42 272.27 153.97 271.21 156.3 
M 269.19 160.96 267.23 165.53 
M 265.12 169.91 262.75 174.05 
M 260.22 178.06 257.71 182.08 
M 255.31 186.18 252.99 190.27 
M 250.67 194.26 244.78 203.66 242.36 206.99 241.21 208.33 
M 295.93 124.01 289.78 133.06 283.91 142.6 
M 281.32 146.75 277.34 153.23 274.94 157.73 269 171.46 266.8 175.73 262 183.76 256.41 193.78 
M 300.63 125.06 295.21 132.91 282.63 152.78 280.07 157.08 277.74 161.46 276.74 163.73 
M 274.82 168.35 272.95 172.96 
M 266.5 185.48 264.26 189.38 
M 262.02 193.17 257.42 200.28 
M 305.48 126.2 300.88 132.77 286.66 154.75 
M 284.19 158.91 280.88 165.34 275.34 179.13 274.32 181.21 
M 272.21 185.24 270 189.03 
M 258.25 205.64 255.91 208.38 
M 310.33 127.42 306.64 132.75 293.39 152.75 290.74 156.87 287.25 162.99 
M 285.21 167.27 278.81 182.9 275.71 188.7 
M 315.15 128.62 295.04 159.02 
M 290.61 167.18 288.74 171.46 
M 283.13 184.29 280.18 190.03 279.15 191.74 
M 277.03 195.03 274.77 198.13 
M 319.96 129.8 315.35 136.76 311.83 142.51 
M 309.28 146.54 299.48 161.1 297.16 165.15 292.48 175.57 
M 290.59 179.73 286.48 187.53 
M 282.47 194.38 280.41 197.48 
M 324.84 130.98 320.9 136.9 313.98 148.81 311.32 152.94 305.56 161.07 303.02 165.1 300.94 169.24 298.2 175.44 
M 296.3 179.48 294.21 183.39 
M 292 187.09 289.8 190.53 
M 287.7 193.74 284.66 198.24 281.43 202.39 
M 329.88 132.17 326.71 136.79 324.27 140.77 317.64 153.14 315 157.22 310.73 163.18 
M 308.14 167.18 306.94 169.21 302.05 179.34 
M 297.65 186.83 295.27 190.21 
M 290.76 196.28 286.61 201.68 
M 335.1 133.44 330.32 140.53 327.93 144.74 323.73 153.23 321.41 157.37 317.31 163.34 
M 314.54 167.32 310.84 173.37 307.74 179.31 
M 303.29 186.72 299.53 191.68 295.85 196.04 
M 291.46 201.25 289.39 203.61 
M 340.32 134.86 336.73 140.11 334.09 144.38 331.7 148.74 327.35 157.36 324.95 161.44 316.79 173.51 309.97 185.02 307.59 188.46 306.31 190.05 
M 303.7 193.12 301.07 195.97 
M 296.24 201.07 294.08 203.35 
M 345.5 136.32 340.4 143.93 337.74 148.29 333.01 157.07 329.4 163.36 
M 326.8 167.48 324.07 171.57 
M 321.35 175.61 315.25 185.16 311.69 190.17 
M 350.54 137.92 343.82 147.89 341.11 152.24 333.73 165.1 329.81 171.44 
M 327.1 175.6 318.23 188.76 314.57 193.39 
M 309.34 198.75 306.68 201.13 
M 304.1 203.32 301.65 205.31 
M 299.35 207.06 297.96 208.04 
M 355.71 139.56 349.87 147.73 345.64 154.08 
M 342.99 158.32 332.77 175.15 
M 322.52 190.49 318.85 195.05 317.58 196.4 
M 315 198.98 309.7 203.48 
M 361.06 141.28 356.05 147.75 350.18 156.06 339.63 172.24 329.48 188.69 325.77 193.65 
M 320.77 199.2 318.18 201.59 
M 366.48 143 359.29 151.86 356.28 155.96 345.25 171.64 341.33 177.56 
M 333.9 189.73 331.48 193.32 
M 329.04 196.48 326.56 199.27 
M 371.91 144.67 365.62 151.98 362.51 155.92 352.46 169.66 
M 349.68 173.3 344.38 180.76 
M 341.88 184.72 337.08 192.52 
M 334.7 195.98 332.28 199.03 
M 377.27 146.3 368.8 156.09 359.93 167.86 352.79 176.86 
M 340.26 195.24 337.88 198.52 
M 382.56 147.86 375.06 156.55 364.6 169.94 
M 361.67 173.59 358.78 177.08 
M 355.95 180.48 350.64 187.44 
M 387.78 149.42 381.13 157.23 369.24 172.23 364.85 177.52 
M 361.96 180.86 356.45 187.42 
M 353.88 190.78 351.39 194.13 
M 393 150.99 387.06 158.01 372.35 176.36 362.39 187.71 
M 359.73 190.83 357.15 193.95 
M 398.25 152.55 392.96 158.78 382.7 171.67 
M 379.8 175.23 373.96 181.97 
M 368.34 188.18 363.02 194.05 
M 403.36 154.05 395.84 163.21 387.15 174.21 382.84 179.35 
M 379.92 182.6 377.04 185.73 
M 374.24 188.75 371.54 191.65 
M 408.19 155.48 403.17 161.68 
M 400.18 165.62 394.42 173.12 
M 391.59 176.65 388.75 180.03 
M 385.86 183.27 382.96 186.37 
M 412.88 156.85 410.38 159.74 405.83 165.84 
M 402.97 169.86 397.41 177.27 
M 391.73 183.91 389.18 186.64 
M 416.36 159.5 412.94 163.77 403.07 177.85 
M 416.36 167.11 411.45 174.34 
M 408.69 178.34 406.66 181.06 
M 416.36 175.85 414.93 177.93 
M 168.18 136.12 169.89 135.92 
M 181.91 132.3 178.16 75.82 179.11 75.73 185.28 131.72 
M 195.75 128.89 192.85 55.46 193.8 55.41 199.14 128.41 
M 209.6 125.53 210.06 48.3 211.01 48.29 213.01 125.19 
M 223.63 122.96 230.33 32.41 231.28 32.47 227.06 122.82 
M 237.78 121.12 251.13 37.6 252.07 37.74 241.22 121.18 
M 252.04 120.52 269.51 44.9 270.44 45.1 255.45 120.86 
M 266.3 120.24 290.57 37 291.48 37.26 269.72 120.65 
M 280.58 120.83 313.41 42.34 314.29 42.7 283.9 121.72 
M 294.66 123.27 326.41 65.61 327.25 66.05 297.89 124.45 
M 308.55 126.48 336.11 81.64 336.93 82.12 311.74 127.78 
M 322.4 129.86 342.68 99.13 343.49 99.63 325.58 131.16 
M 343.03 135.08 344.47 136 
M 170.5 135.75 173.47 123.94 174.79 117.96 175.91 111.95 176.8 105.91 177.95 93.73 178.54 81.47 
M 179.73 81.36 183.7 77.95 185.53 76.14 187.21 74.21 188.7 72.15 191.15 67.64 193.14 62.8 
M 194.33 62.74 198.3 62.37 202.04 61.47 203.78 60.73 205.43 59.77 207.01 58.64 210.01 56.03 
M 211.21 56.01 216.06 53.74 220.57 51.02 222.62 49.4 224.53 47.61 226.32 45.66 229.66 41.47 
M 230.86 41.54 234.79 43.71 238.85 45.32 240.96 45.81 243.11 46.08 245.31 46.16 249.8 45.96 
M 250.98 46.13 254.28 48.68 257.78 50.69 259.64 51.39 261.59 51.89 263.6 52.19 267.76 52.46 
M 268.93 52.71 273.64 52.21 275.92 51.78 278.14 51.17 280.27 50.35 284.31 48.11 288.14 45.33 
M 289.29 45.65 293.66 47.85 298.15 49.49 300.47 50 302.83 50.28 305.24 50.37 310.13 50.19 
M 311.24 50.64 312.85 55.86 314.95 60.79 316.28 63.1 317.81 65.29 319.51 67.38 323.23 71.38 
M 324.29 71.93 325.28 75.75 326.74 79.25 327.75 80.83 328.95 82.28 330.31 83.63 333.35 86.13 
M 334.39 86.73 334.65 90.62 334.95 92.5 335.44 94.31 336.14 96.03 338.13 99.22 340.65 102.2 
M 341.67 102.83 340.97 110.21 340.8 113.89 340.83 117.56 341.08 121.21 342.24 128.46 343.97 135.68 
M 181.75 79.68 185.53 76.14 187.21 74.21 188.7 72.15 190 69.95 192.18 65.25 
M 182.98 86.79 186.23 83.74 188.95 80.31 190.08 78.43 191.95 74.38 
M 184.21 93.9 186.93 91.35 188.14 89.96 190.15 86.9 191.72 83.51 
M 185.44 101.01 187.63 98.96 188.6 97.84 190.23 95.37 191.49 92.64 
M 186.67 108.12 188.33 106.57 189.72 104.81 191.26 101.77 
M 196.33 62.59 200.21 62.01 202.04 61.47 203.78 60.73 205.43 59.77 208.53 57.37 
M 197.14 69.05 200.62 68.53 202.27 68.04 203.84 67.37 205.33 66.51 208.11 64.35 
M 197.94 75.5 201.04 75.04 202.51 74.61 205.22 73.25 207.7 71.33 
M 198.75 81.96 201.46 81.56 202.74 81.18 205.12 79.99 207.28 78.3 
M 199.55 88.42 201.88 88.07 204.02 87.3 205.01 86.73 206.87 85.28 
M 200.36 94.87 203.21 94.31 204.91 93.47 206.45 92.26 
M 201.16 101.33 203.44 100.88 204.8 100.2 206.04 99.24 
M 213.66 54.91 218.38 52.46 220.57 51.02 222.62 49.4 224.53 47.61 228.01 43.59 
M 214.07 60.98 218.37 58.74 220.37 57.43 222.24 55.95 223.99 54.32 227.17 50.65 
M 214.48 67.05 218.37 65.03 220.18 63.84 223.44 61.03 226.32 57.71 
M 214.88 73.12 218.36 71.31 219.98 70.25 222.9 67.74 225.47 64.78 
M 215.29 79.19 218.36 77.6 219.78 76.66 222.36 74.45 224.62 71.84 
M 215.7 85.26 218.35 83.88 219.59 83.07 221.81 81.15 223.78 78.9 
M 216.11 91.33 218.35 90.17 220.36 88.72 222.93 85.96 
M 216.52 97.4 218.34 96.45 219.99 95.27 222.08 93.02 
M 232.81 42.66 236.8 44.61 238.85 45.32 240.96 45.81 243.11 46.08 247.55 46.1 
M 232.78 49.62 236.41 51.4 238.29 52.05 240.21 52.5 242.17 52.75 246.22 52.76 
M 232.74 56.58 236.03 58.19 237.72 58.78 241.24 59.41 244.9 59.42 
M 232.71 63.54 235.65 64.98 237.16 65.51 240.3 66.07 243.57 66.08 
M 232.67 70.5 235.26 71.77 237.96 72.55 239.36 72.73 242.25 72.74 
M 232.64 77.46 234.88 78.56 236.03 78.96 238.43 79.39 240.92 79.4 
M 232.6 84.42 235.47 85.69 237.49 86.05 239.6 86.06 
M 232.56 91.39 234.9 92.42 236.55 92.71 238.27 92.72 
M 252.62 47.44 256 49.78 257.78 50.69 259.64 51.39 261.59 51.89 265.67 52.36 
M 252.09 53.89 255.17 56.02 256.8 56.85 258.5 57.49 260.28 57.94 264 58.38 
M 251.56 60.33 254.35 62.26 257.36 63.6 258.96 64 262.33 64.39 
M 251.04 66.78 253.53 68.5 256.22 69.7 257.65 70.06 260.66 70.41 
M 250.51 73.23 252.7 74.75 253.86 75.34 256.34 76.12 258.99 76.43 
M 249.98 79.67 252.89 81.5 255.03 82.18 257.32 82.44 
M 249.45 86.12 251.91 87.67 253.72 88.23 255.65 88.46 
M 248.93 92.57 250.93 93.83 252.4 94.29 253.98 94.48 
M 271.3 52.5 275.92 51.78 278.14 51.17 280.27 50.35 282.33 49.32 286.24 46.75 
M 270.38 58.47 274.6 57.82 276.63 57.26 278.57 56.52 280.45 55.58 284.02 53.23 
M 269.47 64.45 273.28 63.86 275.11 63.36 278.57 61.83 281.79 59.71 
M 268.55 70.42 271.96 69.9 275.17 68.84 276.68 68.08 279.57 66.19 
M 267.63 76.4 270.64 75.93 272.08 75.54 274.8 74.33 277.35 72.66 
M 266.72 82.37 269.32 81.97 271.77 81.17 272.92 80.59 275.12 79.14 
M 265.8 88.35 268 88.01 270.06 87.33 272.9 85.62 
M 264.89 94.32 267.54 93.81 269.16 93.09 270.67 92.1 
M 291.47 46.79 295.89 48.77 298.15 49.49 300.47 50 302.83 50.28 307.67 50.32 
M 290.03 53.29 294.06 55.1 296.13 55.76 298.25 56.22 300.4 56.48 304.82 56.51 
M 288.6 59.79 292.24 61.42 294.11 62.02 297.97 62.67 301.97 62.7 
M 287.16 66.29 290.42 67.75 293.8 68.66 295.54 68.87 299.11 68.9 
M 285.73 72.79 288.6 74.08 290.07 74.55 293.11 75.06 296.26 75.09 
M 284.29 79.29 286.77 80.4 288.05 80.81 290.68 81.26 293.4 81.28 
M 282.85 85.79 286.03 87.08 288.25 87.45 290.55 87.47 
M 281.42 92.29 284.01 93.34 285.82 93.65 287.7 93.66 
M 312.01 53.27 313.81 58.37 314.95 60.79 316.28 63.1 317.81 65.29 321.34 69.4 
M 309.34 61.38 310.94 65.89 311.94 68.02 314.47 71.99 317.58 75.62 
M 306.68 69.48 308.06 73.4 309.96 77.02 311.13 78.7 313.83 81.85 
M 304.01 77.59 305.19 80.91 305.93 82.48 307.78 85.4 310.08 88.08 
M 301.35 85.7 302.92 89.71 304.44 92.11 306.32 94.3 
M 298.68 93.81 299.91 96.94 301.1 98.82 302.57 100.53 
M 324.75 73.86 325.93 77.55 326.74 79.25 327.75 80.83 328.95 82.28 331.8 84.9 
M 321.72 81.12 322.73 84.29 323.43 85.75 325.33 88.36 327.78 90.61 
M 318.69 88.38 319.53 91.03 320.12 92.26 321.71 94.44 323.76 96.32 
M 315.66 95.64 316.34 97.77 316.81 98.76 318.09 100.52 319.74 102.04 
M 312.62 102.89 313.5 105.26 314.47 106.6 315.73 107.75 
M 334.48 88.69 334.95 92.5 335.44 94.31 336.14 96.03 337.04 97.66 339.36 100.73 
M 330.39 98.11 330.75 101.03 331.12 102.41 332.35 104.98 334.13 107.33 
M 326.3 107.52 326.81 110.52 327.66 112.31 328.89 113.94 
M 164.51 150.01 179.97 143.61 180.38 144.47 165.41 152.4 
M 165.81 153.96 205.97 140.16 206.29 141.05 166.23 156.95 
M 166.28 158.51 213.28 146.62 213.53 147.54 166.14 161.66 
M 166.01 163.23 218.88 154.5 219.06 155.43 164.9 166.56 
M 164.41 167.98 218.71 163.76 218.8 164.7 163.29 171.24 
M 162.81 172.45 215.05 172.93 215.06 173.88 160.94 175.67 
M 160.42 176.53 220.36 182.13 220.29 183.08 159.11 179.74 
M 158.96 180.38 216.49 190.83 216.34 191.77 157.74 183.57 
M 157.59 183.98 204.22 196.9 203.99 197.82 156.32 187.17 
M 157.21 187.67 197.27 202.73 196.96 203.63 156.1 190.91 
M 163.9 193.34 180.62 201.7 180.24 202.57 155.96 193.18 
M 178.08 145.69 183.37 146.04 188.56 145.84 191.11 145.41 193.61 144.77 196.09 143.93 200.97 141.88 
M 201.39 143 201.99 145.07 202.41 145.96 202.95 146.7 203.64 147.26 205.42 147.88 207.57 148.07 
M 207.89 149.22 207.96 151.36 208.5 153.15 209.03 153.85 209.73 154.42 210.6 154.86 212.63 155.53 
M 212.85 156.71 211.55 158.32 210.82 159.97 210.78 160.8 210.96 161.65 211.35 162.51 212.48 164.24 
M 212.6 165.43 210.74 166.58 209.97 167.23 209.39 167.97 209.01 168.79 208.85 170.72 209.2 172.88 
M 209.22 174.08 209.25 176.39 209.77 178.4 210.3 179.23 211.02 179.94 211.91 180.54 214 181.54 
M 213.91 182.73 212.06 183.76 211.3 184.36 210.73 185.04 210.35 185.82 210.18 187.66 210.53 189.75 
M 210.34 190.93 207.45 190.85 204.79 191.29 203.58 191.8 202.47 192.53 201.43 193.43 199.5 195.59 
M 199.21 196.75 197.16 196.77 196.24 196.93 195.44 197.24 194.78 197.74 193.85 199.25 193.26 201.22 
M 192.87 202.35 189.78 200.74 186.62 199.69 185.01 199.49 183.36 199.51 181.69 199.73 178.29 200.53 
M 201.66 144.06 202.41 145.96 202.95 146.7 203.64 147.26 204.47 147.65 206.47 148.01 
M 207.89 150.31 208.15 152.31 208.5 153.15 209.03 153.85 209.73 154.42 211.58 155.22 
M 212.16 157.51 211.08 159.14 210.82 159.97 210.78 160.8 210.96 161.65 211.88 163.37 
M 211.63 165.99 209.97 167.23 209.39 167.97 209.01 168.79 208.84 169.72 208.99 171.78 
M 209.2 175.26 209.43 177.45 209.77 178.4 210.3 179.23 211.02 179.94 212.92 181.06 
M 212.95 183.23 211.3 184.36 210.73 185.04 210.35 185.82 210.18 186.7 210.32 188.69 
M 208.88 190.85 206.08 190.98 204.79 191.29 203.58 191.8 202.47 192.53 200.45 194.48 
M 198.16 196.73 196.24 196.93 195.44 197.24 194.78 197.74 194.26 198.42 193.53 200.21 
M 201.98 206.56 224.87 234.57 224.16 235.2 199.41 208.82 
M 200.23 206.38 200.94 207.47 
M 207.08 217 223.77 242.85 222.99 243.39 197.41 208.32 
M 198.47 206.21 198.98 207.24 
M 203.92 217.24 220.91 251.6 220.07 252.04 195.44 207.8 
M 196.68 206.06 197.01 206.98 
M 200.69 217.23 216.22 260.52 215.34 260.86 193.49 207.28 
M 194.88 205.91 195.06 206.68 
M 197.47 217.04 209.65 269.3 208.73 269.53 191.56 206.75 
M 192.11 205.6 192.23 206.58 
M 192.73 211.02 200.27 277.46 199.33 277.58 188.73 206.04 
M 221.68 232.56 219.95 234.71 219.7 235.44 219.67 236.17 220.25 237.68 221.41 239.2 
M 220.43 239.88 218.85 241.18 218.24 241.88 217.83 242.63 217.64 243.42 217.88 245.17 218.67 247.06 
M 217.61 247.62 215.75 248.77 214.42 250.16 214.05 250.99 213.88 251.91 213.9 252.92 214.27 255.07 
M 213.15 255.5 211.03 256.48 209.38 257.78 208.83 258.61 208.47 259.56 208.26 260.63 208.17 262.96 
M 207.01 263.25 204.5 263.92 203.38 264.39 202.38 265 201.54 265.78 200.3 267.82 199.46 270.27 
M 221 233.27 219.95 234.71 219.7 235.44 219.67 236.17 219.86 236.92 220.8 238.44 
M 216.05 227.26 215.24 228.36 215.02 229.49 215.17 230.06 215.89 231.22 
M 211.09 221.25 210.39 222.41 210.48 223.2 210.98 224.01 
M 219.6 240.52 218.24 241.88 217.83 242.63 217.64 243.42 217.66 244.27 218.23 246.11 
M 215.8 234.69 214.68 235.81 214.34 236.42 214.2 237.78 214.67 239.29 
M 212 228.85 211.12 229.74 210.85 230.22 210.74 231.29 211.11 232.48 
M 208.2 223.02 207.36 224.02 207.28 224.8 207.55 225.67 
M 216.65 248.18 215 249.43 214.42 250.16 214.05 250.99 213.88 251.91 214.05 253.98 
M 213.76 242.39 212.34 243.47 211.84 244.1 211.38 245.6 211.52 247.38 
M 210.87 236.6 209.68 237.5 209 238.63 208.88 239.29 209 240.78 
M 207.98 230.82 207.03 231.54 206.48 232.45 206.48 234.18 
M 205.1 225.03 204.12 225.9 203.88 226.67 203.95 227.58 
M 212.06 255.97 210.12 257.07 209.38 257.78 208.83 258.61 208.47 259.56 208.19 261.77 
M 209.97 250.2 208.26 251.17 207.12 252.53 206.8 253.37 206.55 255.32 
M 207.88 244.43 206.4 245.27 205.41 246.45 205.13 247.18 204.91 248.87 
M 205.79 238.65 204.53 239.37 204.05 239.83 203.46 240.99 203.27 242.43 
M 203.7 232.88 202.28 233.85 201.79 234.8 201.64 235.98 
M 201.61 227.11 200.81 227.57 200.27 228.21 200 229.53 
M 205.73 263.56 203.38 264.39 202.38 265 201.54 265.78 200.86 266.73 199.85 269.01 
M 204.11 256.85 202.03 257.58 200.41 258.81 199.8 259.65 198.92 261.67 
M 202.49 250.14 200.68 250.78 199.27 251.85 198.75 252.57 197.98 254.33 
M 200.86 243.44 199.33 243.98 198.14 244.88 197.69 245.5 197.04 246.98 
M 199.24 236.73 197.98 237.17 197.01 237.92 196.1 239.64 
M 197.62 230.02 196.22 230.63 195.58 231.34 195.17 232.3 
M 386.77 189.55 391.58 196.22 390.91 196.88 384.33 191.94 
M 373.31 194.17 378.48 201.4 377.79 202.05 370.84 196.52 
M 359.76 198.44 366 207.33 365.29 207.96 357.2 200.71 
M 346.06 202.24 354.11 213.88 353.38 214.49 343.42 204.42 
M 332.25 205.65 342.79 221.22 342.04 221.8 329.56 207.75 
M 318.36 208.64 331.7 229.5 330.92 230.05 315.58 210.62 
M 304.35 210.97 320.48 238.68 319.68 239.19 301.47 212.8 
M 284.32 213.15 304.05 248.72 303.24 249.21 281.38 214.89 
M 390.25 196.39 387.12 196.19 385.61 196.26 384.17 196.53 382.81 197 380.29 198.57 377.96 200.68 
M 377.09 201.5 374.02 201.47 372.55 201.63 371.16 201.97 369.86 202.52 367.5 204.22 365.37 206.44 
M 364.48 207.23 361.46 207.36 360.03 207.59 358.69 207.99 357.45 208.6 355.25 210.4 353.31 212.72 
M 352.39 213.48 349.41 213.8 348.01 214.12 346.72 214.61 345.53 215.3 343.49 217.23 341.74 219.66 
M 340.79 220.39 337.79 220.94 335.11 221.96 333.95 222.74 332.92 223.71 332 224.84 330.36 227.42 
M 329.39 228.11 326.32 228.86 323.6 230.07 322.43 230.94 321.4 231.99 320.48 233.19 318.87 235.91 
M 317.86 236.55 313.77 237.39 309.95 238.74 308.2 239.69 306.55 240.85 305 242.18 302.08 245.16 
M 362.95 207.26 360.03 207.59 358.69 207.99 357.45 208.6 356.31 209.41 354.26 211.52 
M 350.88 213.61 348.01 214.12 346.72 214.61 345.53 215.3 344.46 216.18 342.59 218.41 
M 339.27 220.64 336.4 221.37 335.11 221.96 333.95 222.74 332.92 223.71 331.16 226.1 
M 327.83 228.45 324.9 229.39 323.6 230.07 322.43 230.94 321.4 231.99 319.65 234.52 
M 321.57 222.26 319.67 222.87 318.06 223.88 317.39 224.56 316.25 226.2 
M 315.79 236.93 311.81 237.98 309.95 238.74 308.2 239.69 306.55 240.85 303.52 243.64 
M 310.45 231.34 307.39 232.14 305.97 232.72 303.36 234.34 301.04 236.48 
M 305.1 225.74 301.98 226.7 300.17 227.83 298.56 229.32 
M 416.36 157.88 419.71 157.25 422.26 156.18 424.7 154.81 427.07 153.22 429.15 151.29 432.62 149.82 435.24 147.61 440.32 145.71 443.27 143.84 445.9 143.28 448.42 141.31 450.91 140.22 452.36 138.43 454.55 137.01 456.45 135.38 458.57 133.23 461.48 131.63 463.68 129.69 470.44 126.1 472.94 125.98 481.66 128.23 487.94 133.89 489.04 137.66 488.59 143.43 488.99 147.06 487.75 149.45 486.1 151.75 484.74 154.34 484.05 157.59 482.69 160.25 479.82 161.23 476.58 161.83 473.63 162.73 471.91 165.01 470.57 167.52 469.74 170.55 470.68 173.91 471.16 176.69 472.44 179.72 473.13 182.17 478.82 190.58 480.09 192.01 486.27 197.75 487.53 200.12 489.61 203.31 490 206.52 488.53 208.87 486.62 210.78 485.39 213.36 483.37 215.35 480.57 216.84 471.71 220.25 470.24 218.04 466.23 216.66 463.66 214.83 461.98 212.28 457.56 208.31 454.89 206.66 452.98 206.17 448.61 201.19 445.73 198.64 443.43 197.02 440.94 196.59 438.05 195.43 435.92 194.14 433.45 191.71 429.78 189.88 427.55 187.98 424.76 186.03 421.97 184.38 419.48 182.08 416.36 179.57 
M 425.34 157.28 427.98 155.62 430.58 153.73 433.26 152.23 435.84 150.42 438.46 149.07 441.31 148.16 447.19 145.91 449.59 145.61 451.97 144.82 
M 419.75 160.57 422.65 160 425.43 159.21 428.4 158.04 431.31 156.68 439.3 151.92 442.05 151.03 445.39 149.63 452.63 148.59 455.85 147.82 461.96 144.24 466.31 142 468.13 140.57 
M 419.84 162.14 422.82 161.94 429.14 160.68 435.43 158.68 438.11 157.09 441.07 155.65 443.95 155.09 446.54 153.7 451.91 152.47 455.58 152.05 
M 426.15 163.5 429.44 163.19 432.88 162.42 441.72 159.9 444.76 160.07 447.64 159.14 449.76 157.84 452.54 156.6 454.96 156.65 458.24 155.63 461.45 155.35 465.27 154.69 468.45 153.82 470.39 152.99 471.76 152.06 
M 423.35 165.5 429.5 165 436.39 165.19 439.44 164.25 442.49 163.89 445.62 163.93 447.76 163.53 448.94 163.22 451.97 161.77 454.81 161.48 458.84 162.05 462.97 161.99 466.49 160.83 468.88 159.57 469.72 157.66 
M 420.36 167.4 430.29 167.41 436.73 168.13 442.67 167.81 444.68 167.06 447.69 167.3 449.53 167.79 452.78 166.7 456.06 166.27 459.95 166.63 464.18 166.63 466.69 166.07 469.99 165.6 471.77 164.51 
M 427.76 169.39 430.88 170.17 441.48 171.08 443.37 171.74 446.86 171.94 450.28 171.62 452.8 171.07 459.83 171.87 462.6 171.65 
M 424.29 171.17 427.67 171.58 433.96 173.26 437.03 173.31 439.06 174.15 441.05 174.57 443.8 174.74 
M 427.1 174.09 429.99 175.2 435.48 176.57 438.72 177.11 442.01 177.24 445.24 177.13 448.67 177.88 
M 426.44 176.13 435.02 179.19 438.26 180.1 441.91 180.71 445.76 180.39 449.03 181.33 451.12 182.43 
M 425.84 178.24 428.63 178.86 434.95 181.74 437.88 182.72 447.37 184.8 452.59 187.6 456.28 188.16 
M 425.43 180.33 428.48 181.21 434.24 184.83 437.45 185.37 446.88 187.41 449.83 188.56 452.99 191.18 455.79 193.23 458.37 193.82 462.12 196.18 
M 422.49 180.9 425.17 182.55 428.11 183.7 434.32 187.15 442.67 190.06 445.84 190.83 448.31 192.16 454.7 196.74 457.55 198.57 459.61 199.58 461.88 201.34 463.19 203.48 469.35 205.56 475.27 209.44 
M 422.28 182.96 424.8 184.57 430.81 187.97 434.44 189.39 437.19 190.92 439.61 192.99 442.2 193.61 447.38 196.03 450.21 198.87 455.47 203.42 457.62 204.22 459.09 204.98 
M 73.9 151.47 75.04 151.11 80.74 150.86 90.67 149.59 96.09 148.61 107.34 145.77 113.85 144.55 120.77 143.59 135.17 141.27 152.85 139.61 159.57 139.14 162.29 142.62 163.07 145.75 164.1 148.94 165.36 152.17 166.15 155.31 166.29 158.33 165.92 164.24 164.7 167.01 163.85 169.84 162.74 172.62 159.53 178.01 158.84 180.87 156.73 186.46 155.17 189.16 152.91 191.73 149.34 193.99 137.8 193.35 129.49 192.33 122.24 190.88 109.73 187.2 104.21 185 99 182.33 94.24 179.35 
M 89.77 175.74 83.48 170.42 80.65 167.82 78.66 165.51 75.92 161.08 
M 142.72 154.67 142.25 157.17 138.99 161.57 137.09 163.6 133.19 167.15 132.33 170.55 132.48 174.04 132.35 176.04 131.32 178.11 123.73 178.06 118.29 177.84 113.12 177.36 103.16 175.39 98.51 173.79 94.08 171.54 
M 92.67 178.85 83.89 169.72 77.42 162.58 70.54 155.75 69.55 153.63 70.56 151.55 72.81 150.85 74.84 151.99 80.77 159.41 87.54 169.61 94.37 179.25 
M 93.97 179.99 86.57 179.66 77.02 179.88 60.46 179.52 58.32 178.25 57.89 175.89 59.48 174.01 61.82 173.75 71.26 175.55 85.02 177.46 94.02 179.09 
M 105.44 164.45 103.15 161.25 102.03 157.48 102.2 153.55 103.62 149.89 106.17 146.89 108.37 145.58 
M 115.44 144.33 117.29 144.56 120.82 146.28 123.6 149.06 125.33 152.6 125.81 156.5 125.01 160.34 122.99 163.72 120 166.26 116.33 167.69 112.41 167.85 108.64 166.73 105.44 164.45 
M 121.66 150.45 123.04 153.28 123.43 156.4 122.78 159.48 121.17 162.18 118.77 164.21 115.84 165.35 112.7 165.48 109.69 164.59 107.13 162.76 
M 109.79 158.67 108.88 157.39 108.43 155.88 108.5 154.31 109.07 152.85 110.08 151.65 111.43 150.84 112.97 150.52 114.53 150.71 115.95 151.4 117.06 152.52 117.75 153.93 117.94 155.49 117.62 157.03 116.82 158.38 115.62 159.39 114.15 159.97 112.58 160.03 111.07 159.58 109.79 158.67 
M 109.72 156.19 113.52 159.99 
M 111.55 155.46 115.52 159.43 
M 113.36 154.71 116.9 158.24 
M 112.7 151.48 117.73 156.51 
M 115.38 151.6 117.75 153.97 
M 75.03 151.11 78.11 154.2 
M 80.47 150.87 84.41 154.8 
M 85.6 150.29 91.02 155.72 
M 90.6 149.6 95.99 154.99 
M 95.43 148.73 98.42 151.72 
M 99.97 147.57 103.25 150.85 
M 104.53 146.44 105.62 147.53 
M 119.01 143.83 122.86 147.68 
M 123.94 143.07 128.5 147.62 
M 128.84 142.27 132.07 145.5 
M 133.76 141.49 136.95 144.69 
M 138.88 140.92 143.79 145.83 
M 144.09 140.43 148.63 144.97 
M 149.29 139.94 153.52 144.17 
M 154.54 139.49 159.61 144.55 
M 129.48 183.06 129.31 182.73 128.96 182.57 126.72 182.06 125.48 182.01 
M 135.85 167.29 135.99 166.8 136.64 165.8 137.56 165.14 138.39 164.75 140.69 164.53 
M 155.66 153.08 153.82 152.13 153.15 152.29 152.61 152.91 
M 119.9 167.32 119.67 166.39 
M 134.19 155.7 134.67 156.46 135.92 157.32 136.82 157.56 138.03 157.51 138.58 157.63 
M 137.27 163.56 138.39 163.85 139.95 164.55 141.43 164.34 142.02 163.58 
M 144.63 173.94 145.53 173.26 149.74 171.75 150.96 171.56 152.72 171.83 
M 153.24 191.35 151.79 191.65 151.42 191.49 151.5 191.25 
M 131.54 165.52 131.91 166.69 132.55 166.8 133.02 166.55 
M 124.8 168.22 125.49 168.65 126.65 169.9 127.27 171 127.37 171.49 127.11 172.6 126.7 173.19 125.34 174.15 
M 127.62 147.19 125.11 146.92 123.58 146.34 122.89 146.54 122.54 146.96 
M 150.61 170.76 152.1 170.73 152.79 170.39 153.13 169.62 152.99 168.63 
M 136.22 167.5 136.59 166.43 136.95 165.94 138.21 164.93 138.87 164.72 140.82 164.51 
M 126.14 142.71 123.07 144.74 122.38 146.1 122.34 146.94 
M 153.32 173.76 154.12 174.49 154.2 174.78 154.03 175.4 152.78 176.39 151.59 176.87 
M 160.32 153.54 158.83 152.94 156.14 152.29 154.09 151.21 153.1 151.22 152.77 151.68 152.69 152.18 
M 144.07 143.86 136.21 150.41 135.1 151.1 132.9 151.3 
M 101.74 164.7 103.02 165.85 103.83 166.25 104.26 166.27 104.79 165.52 105.13 164.01 
M 133.7 163.76 134.93 163.48 136.08 163.5 137.86 163.76 139.64 164.56 140.74 164.5 
M 128.92 182.76 126.86 182.08 125.57 182 124.68 182.17 
M 153.9 156.81 152.02 159.69 150.7 161.33 150.38 162.01 150.4 162.79 
M 124.89 163.88 123.38 165.53 122.92 165.44 122.65 164.85 
M 139.87 176.65 139.37 175.36 139.1 174 140.65 169.09 140.74 167.61 
M 142.66 180.99 141.5 180.67 140.3 180.64 139.71 180.45 
M 89.57 172.39 90.04 171.68 90.34 170.88 90.45 169.97 90.31 167.68 90.04 166.52 89.56 165.51 89.04 164.86 88 164.46 87.02 164.66 
M 156 141.16 155.59 141.38 155.11 141.94 154.64 144.07 154.19 144.54 
M 130.52 146.81 127.61 147.24 126.69 147.23 125.1 146.94 123.8 146.37 122.9 146.54 
M 108.89 186.87 109.3 184.6 109.29 183.66 109.05 182.94 
M 154.75 189.64 153.68 189.99 152.01 191.13 151.56 191.26 
M 137.04 141.89 135.26 141.26 
M 130.17 142.06 129.12 142.23 
M 126.42 142.66 125.46 143.27 
M 119.48 143.77 120.55 145.05 
M 110.46 185.53 110.52 183.62 110.21 182.93 108.02 180.75 107.71 180.69 107.28 180.84 
M 142.98 146.56 141.12 147.88 137.33 150.98 136.02 151.81 129.82 152.75 
M 96.02 164.19 97.45 163.63 98.1 163.68 101.35 166.37 
M 125.48 181.61 123.42 182.58 122.49 183.3 
M 112.97 185.65 113.78 185.61 114.62 186.36 115.41 187.25 116.44 189.25 
M 98.04 150.26 99.31 150.34 100.02 150.55 100.69 150.98 102.52 152.71 
M 120.75 143.59 121.22 144.32 121.85 146.21 122.43 147.31 
M 102.88 160.34 102.31 160.87 101.77 161.9 
M 151.79 171.95 154.19 172.37 
M 152.06 154.92 152.42 156.03 152.39 156.99 
M 139.34 155.21 137.71 154.57 135.48 154.47 134.96 154.58 134.24 155.05 134.01 155.57 134.11 156 
M 126.43 179.39 123.85 182.22 122.24 183.51 
M 120.15 188.19 120.08 189.16 119.79 190.19 
M 158.76 181.06 153.4 180.83 151.68 180.61 
M 103.11 161.09 102.66 161.42 
M 126 157.25 125.67 158.13 125.64 160.35 125.2 162.73 124.59 164 123.92 164.62 
M 158.26 141.84 155.8 143.02 155.07 144.26 154.65 144.56 
M 130.14 165.69 130.13 166.54 130.65 167.19 131.29 167.41 132.41 167.2 
M 146.17 157.02 144.25 160.05 144.25 160.82 144.81 161.64 
M 104.78 168.36 105.02 168.31 105.32 167.71 
M 163.3 149.27 161.67 148.29 158.7 147.15 153.51 145.87 
M 98.44 176.82 97.71 180.01 97.13 181.16 
M 124.92 160.49 124.79 162.96 124.42 163.81 123.77 164.41 
M 88.66 185.26 88.05 188.12 87.1 190.97 85.83 193.66 84.35 196.22 82.61 198.64 80.55 200.85 78.15 202.65 75.57 204.12 72.86 205.29 70.02 206.14 67.05 206.52 64.08 206.34 61.22 205.65 55.81 203.81 53.1 203.09 50.33 202.66 47.54 202.55 44.74 202.82 42 203.47 39.34 204.41 36.79 205.64 34.37 207.13 30 210.77 34.3 207.04 36.67 205.44 39.2 204.09 41.86 203.01 44.63 202.24 47.5 201.84 50.4 201.83 53.28 202.16 56.1 202.78 61.56 204.39 64.26 204.93 66.97 204.98 69.64 204.52 72.22 203.63 74.69 202.44 77.01 200.99 79.1 199.29 80.84 197.25 82.33 194.97 83.6 192.55 84.66 190.04 85.4 187.45 85.86 184.72 
M 89.52 185.76 88.77 188.34 88.66 190.89 89.08 193.45 90.01 195.88 91.41 198.11 93.18 200.03 95.38 201.49 97.87 202.57 103.22 204.17 105.97 204.77 111.57 205.81 119.92 207.65 125.51 208.62 131.15 208.99 139.69 208.93 145.38 208.6 139.7 209.05 131.16 209.46 125.43 209.33 119.75 208.59 111.34 207.09 105.7 206.29 100.04 205.14 97.24 204.36 94.45 203.28 91.84 201.69 89.65 199.52 87.91 196.99 86.69 194.15 86.36 192.54 
M 86.41 192.81 86.88 195.52 88.01 197.79 90.01 199.88 
M 97.17 202.26 102.66 202.24 108.19 201.39 110.92 200.74 113.58 199.86 118.65 197.42 121.06 195.95 123.35 194.3 127.66 190.61 131.57 186.49 135.21 182.11 131.66 186.56 127.91 190.87 123.72 194.77 121.46 196.54 119.07 198.13 113.99 200.84 111.27 201.87 105.68 203.31 102.02 203.83 
M 96.2 203.96 94.02 203.73 91.09 202.88 88.37 201.36 86.17 199.1 84.65 196.33 84.54 195.88 
M 83.94 191.74 83.97 190.11 84.68 187.06 85.96 184.35 
M 94.25 179.35 94.9 180.11 
M 86.83 172.81 86.79 173.48 87.17 173.15 
M 83.38 169.17 83.04 170.52 83.58 169.88 83.91 169.74 
M 80.08 165.51 79.58 166.2 79.3 167.57 79.95 166.63 80.74 166.24 
M 76.77 161.93 75.96 162.96 75.55 164.61 76.32 163.39 77.55 162.71 
M 73.34 158.52 72.33 159.72 71.8 161.66 72.7 160.15 74.15 159.28 
M 70.13 154.86 68.7 156.47 68.06 158.7 69.07 156.91 70.68 155.89 
M 94.01 179.37 95.23 179.47 
M 89.43 178.25 89.77 178.07 89.88 178.34 
M 84.55 177.4 85.25 176.75 85.29 177.5 
M 79.7 176.81 79.96 176.2 80.74 175.43 80.53 176.25 80.7 176.95 
M 74.96 176.11 75.28 175.14 76.23 174.11 75.85 175.19 76.03 176.3 
M 70.24 175.36 70.6 174.09 71.71 172.8 71.17 174.14 71.33 175.56 
M 65.56 174.48 65.92 173.03 67.2 171.48 66.49 173.08 66.63 174.72 
M 60.82 173.86 61.25 171.98 62.68 170.16 61.81 172.03 61.92 173.77 
M 68.3 179.6 77.15 182.79 82.4 184.3 87.67 185.45 93.06 186.25 98.59 186.75 109.73 187.2 
M 75.44 182.21 75.94 181.18 77.1 180.13 
M 71.34 180.78 71.36 180.76 
M 100.36 185.17 99.38 186.16 
M 160.52 140.36 169.1 148.93 
M 165.15 137.39 174.86 147.1 
M 170.97 135.61 178.42 143.07 
M 176.9 133.95 183.94 140.99 
M 182.88 132.34 193.25 142.71 
M 188.93 130.79 198.99 140.86 
M 195.07 129.34 204.05 138.32 
M 201.25 127.92 208.91 135.58 
M 207.37 126.45 216.19 135.26 
M 213.6 125.08 223.24 134.72 
M 219.98 123.87 230.61 134.5 
M 226.59 122.89 232.69 128.98 
M 233.31 122.01 241.16 129.86 
M 240.18 121.29 249.22 130.32 
M 247.48 120.99 254.84 128.34 
M 254.95 120.87 264.63 130.55 
M 262.49 120.8 269.81 128.13 
M 269.93 120.65 279.28 130 
M 277.96 121.08 287.29 130.41 
M 286.69 122.22 297.47 133 
M 296.11 124.05 306.78 134.72 
M 305.98 126.33 316.3 136.64 
M 316.11 128.86 326.1 138.85 
M 326.14 131.29 334.9 140.06 
M 336.17 133.73 344.92 142.48 
M 346.76 136.72 354.33 144.29 
M 357.9 140.26 368.14 150.51 
M 369 143.77 377.82 152.59 
M 379.89 147.07 390.56 157.74 
M 390.72 150.3 398.4 157.98 
M 401.52 153.51 411.82 163.81 
M 412.28 156.68 416.02 160.42 
M 155.08 192.48 157.17 196.66 
M 158.31 192.3 159.63 194.94 
M 161.36 138.58 162.63 141.13 
M 165.18 146.22 166.03 147.92 
M 164.23 137.68 164.66 138.53 
M 167.2 143.63 169.75 148.72 
M 194.46 198.15 195.22 199.67 
M 170.93 144.43 171.78 146.13 
M 197.1 196.78 198.95 200.47 
M 169.98 135.89 175.46 146.84 
M 199.71 195.35 201.82 199.58 
M 171.92 133.12 177.44 144.16 
M 201.88 193.04 202.91 195.11 
M 173.01 128.67 177.68 138.01 
M 204.41 191.45 207.4 197.45 
M 174.06 124.12 180.43 136.85 
M 207.43 190.85 207.6 191.2 
M 175.04 119.44 183.11 135.57 
M 175.94 114.58 179.76 122.22 
M 180.61 123.92 186.55 135.81 
M 176.7 109.46 181.37 118.8 
M 183.92 123.89 189.86 135.78 
M 209.21 174.48 212.36 180.77 
M 177.32 104.06 184.54 118.49 
M 187.09 123.59 193.03 135.48 
M 209.34 168.08 213.41 176.24 
M 214.26 177.93 215.11 179.63 
M 217.66 184.73 219.36 188.12 
M 222.75 194.92 224.45 198.31 
M 177.81 98.39 196.92 136.6 
M 211.62 166 216.45 175.66 
M 218.15 179.06 223.24 189.25 
M 225.79 194.34 228.34 199.44 
M 178.18 92.47 200.68 137.47 
M 205.77 147.66 205.91 147.94 
M 208.42 152.96 208.55 153.21 
M 213.41 162.95 227 190.12 
M 229.55 195.22 230.4 196.91 
M 237.19 210.5 238.76 213.63 
M 178.88 87.23 203.5 136.48 
M 208.6 146.67 216.24 161.95 
M 217.94 165.35 226.43 182.33 
M 236.62 202.71 237.47 204.41 
M 239.17 207.81 241.9 213.27 
M 181.68 86.19 206.31 135.44 
M 209.7 142.23 216.5 155.82 
M 217.35 157.52 218.19 159.22 
M 221.59 166.01 229.23 181.29 
M 243.67 210.16 244.52 211.86 
M 184.01 84.2 193.35 102.88 
M 194.2 104.58 200.14 116.47 
M 201.84 119.86 203.54 123.26 
M 206.09 128.35 210.33 136.85 
M 212.88 141.94 217.97 152.13 
M 224.77 165.72 232.41 181 
M 243.45 203.08 245.15 206.48 
M 246 208.17 246.84 209.87 
M 187.96 85.46 194.76 99.05 
M 197.3 104.15 202.4 114.34 
M 204.95 119.43 207.49 124.53 
M 215.14 139.81 215.99 141.51 
M 233.82 177.17 234.67 178.87 
M 190.95 84.79 197.74 98.37 
M 200.29 103.47 202.84 108.56 
M 209.63 122.15 212.18 127.25 
M 227.46 157.81 234.25 171.4 
M 251.24 205.37 252.09 207.06 
M 189.06 74.38 189.49 75.22 
M 192.04 80.32 203.08 102.4 
M 208.17 112.59 209.87 115.98 
M 215.81 127.87 216.66 129.57 
M 217.51 131.27 223.45 143.16 
M 229.4 155.04 237.89 172.03 
M 195.47 80.54 226.89 143.37 
M 227.74 145.07 228.59 146.77 
M 233.68 156.96 241.32 172.24 
M 252.36 194.32 256.61 202.81 
M 194.47 71.9 196.17 75.3 
M 198.72 80.39 231.84 146.62 
M 241.18 165.31 244.57 172.1 
M 257.31 197.57 258.16 199.27 
M 194.63 65.56 195.05 66.41 
M 201.85 80 234.96 146.23 
M 237.51 151.33 238.36 153.02 
M 244.3 164.91 247.7 171.71 
M 250.25 176.8 251.94 180.2 
M 259.59 195.48 262.13 200.58 
M 204.17 78.01 211.81 93.29 
M 212.66 94.99 222 113.67 
M 224.55 118.77 237.29 144.24 
M 247.48 164.62 249.18 168.02 
M 253.42 176.51 254.27 178.21 
M 261.06 191.79 264.46 198.59 
M 213.14 89.3 214.84 92.7 
M 216.54 96.09 223.33 109.68 
M 227.58 118.17 240.31 143.65 
M 275.19 213.4 275.68 214.38 
M 204.06 64.49 205.76 67.88 
M 206.6 69.58 212.55 81.47 
M 216.79 89.96 226.98 110.34 
M 230.38 117.13 243.97 144.31 
M 244.82 146 248.21 152.8 
M 206.18 62.08 207.45 64.63 
M 209.15 68.03 215.09 79.92 
M 220.19 90.11 229.53 108.79 
M 233.78 117.28 236.32 122.37 
M 237.17 124.07 252.46 154.64 
M 268.59 186.91 270.29 190.3 
M 208.55 60.19 208.98 61.04 
M 212.38 67.83 218.32 79.72 
M 222.56 88.21 231.91 106.89 
M 236.15 115.38 237 117.08 
M 239.55 122.18 242.94 128.97 
M 243.79 130.67 250.59 144.25 
M 251.44 145.95 254.83 152.75 
M 259.08 161.24 259.93 162.94 
M 267.57 178.22 273.51 190.11 
M 211.21 58.86 212.49 61.41 
M 216.73 69.9 220.98 78.39 
M 222.68 81.79 224.37 85.18 
M 225.22 86.88 236.26 108.96 
M 241.36 119.15 243.9 124.24 
M 245.6 127.64 252.39 141.23 
M 254.94 146.32 256.64 149.72 
M 257.49 151.42 264.28 165 
M 265.13 166.7 277.02 190.48 
M 279.57 195.57 281.27 198.97 
M 213.92 57.63 215.19 60.18 
M 221.99 73.76 222.84 75.46 
M 227.08 83.95 239.82 109.43 
M 240.67 111.12 242.37 114.52 
M 244.91 119.62 246.61 123.01 
M 248.31 126.41 255.1 140 
M 255.95 141.69 266.14 162.07 
M 266.99 163.77 272.93 175.66 
M 278.03 185.85 279.73 189.25 
M 281.43 192.64 283.97 197.74 
M 216.58 56.3 218.7 60.55 
M 230.59 84.32 246.72 116.59 
M 247.57 118.29 249.27 121.69 
M 250.12 123.38 257.76 138.67 
M 262.01 147.16 262.86 148.86 
M 263.71 150.56 268.8 160.75 
M 269.65 162.44 275.59 174.33 
M 283.24 189.62 284.08 191.31 
M 284.93 193.01 285.78 194.71 
M 219.15 54.8 221.27 59.04 
M 222.12 60.74 225.52 67.53 
M 233.16 82.82 250.99 118.48 
M 253.54 123.58 260.33 137.16 
M 265.43 147.35 266.28 149.05 
M 267.13 150.75 270.52 157.54 
M 272.22 160.94 277.31 171.13 
M 221.6 53.05 230.51 70.88 
M 237.31 84.47 245.8 101.45 
M 247.5 104.85 254.29 118.44 
M 255.99 121.83 263.63 137.12 
M 266.18 142.21 267.03 143.91 
M 269.58 149 273.82 157.5 
M 297.6 205.05 298.45 206.75 
M 223.91 51.03 233.68 70.56 
M 242.17 87.55 248.96 101.13 
M 249.81 102.83 265.95 135.1 
M 267.64 138.49 268.49 140.19 
M 270.19 143.59 276.13 155.48 
M 278.68 160.57 280.38 163.97 
M 301.61 206.43 302.46 208.12 
M 226.09 48.75 237.56 71.68 
M 244.35 85.26 245.2 86.96 
M 246.05 88.66 247.75 92.06 
M 248.6 93.75 250.29 97.15 
M 251.14 98.85 270.67 137.91 
M 273.22 143 277.47 151.5 
M 278.32 153.19 282.56 161.69 
M 304.64 205.84 306.34 209.24 
M 307.04 210.65 307.32 211.21 
M 228.17 46.25 240.48 70.87 
M 246.42 82.76 249.82 89.55 
M 254.91 99.74 255.76 101.44 
M 257.46 104.84 270.2 130.31 
M 272.74 135.41 273.59 137.1 
M 275.29 140.5 278.69 147.29 
M 280.39 150.69 283.78 157.48 
M 293.12 176.17 296.52 182.96 
M 306.71 203.34 310.41 210.73 
M 230.55 44.37 242.86 68.99 
M 247.96 79.18 253.9 91.07 
M 258.15 99.56 276.83 136.92 
M 277.68 138.62 280.22 143.72 
M 296.36 175.98 299.75 182.78 
M 304 191.27 305.7 194.66 
M 310.79 204.85 313.49 210.25 
M 235.02 46.66 237.99 52.6 
M 240.54 57.7 246.48 69.59 
M 250.73 78.08 256.67 89.96 
M 259.22 95.06 278.75 134.12 
M 280.45 137.52 286.39 149.4 
M 299.13 174.88 303.37 183.37 
M 306.77 190.16 308.47 193.56 
M 311.01 198.65 315.26 207.15 
M 239.13 48.23 241.25 52.48 
M 244.65 59.27 251.44 72.86 
M 253.99 77.95 259.93 89.84 
M 262.48 94.94 281.16 132.3 
M 283.71 137.39 287.95 145.89 
M 302.39 174.76 303.24 176.45 
M 306.63 183.25 315.13 200.23 
M 242.78 48.89 244.9 53.14 
M 247.45 58.23 254.24 71.82 
M 256.79 76.91 261.88 87.1 
M 265.28 93.89 290.75 144.84 
M 295.85 155.03 299.25 161.83 
M 304.34 172.02 305.19 173.71 
M 309.44 182.21 311.98 187.3 
M 313.68 190.7 317.93 199.19 
M 246.15 48.99 247.42 51.53 
M 250.82 58.33 256.76 70.21 
M 259.31 75.31 287.33 131.35 
M 289.03 134.75 293.28 143.24 
M 295.82 148.34 302.62 161.92 
M 306.86 170.41 308.56 173.81 
M 325.38 207.45 325.64 207.97 
M 249.39 48.83 250.67 51.38 
M 253.21 56.47 256.61 63.26 
M 260.01 70.06 287.18 124.4 
M 292.27 134.59 293.97 137.99 
M 298.22 146.48 305.01 160.07 
M 310.11 170.26 310.96 171.95 
M 256.06 55.51 259.45 62.3 
M 262.85 69.1 264.55 72.49 
M 267.1 77.59 287.47 118.35 
M 288.32 120.05 289.17 121.74 
M 294.27 131.93 295.97 135.33 
M 301.91 147.22 311.25 165.9 
M 258.54 53.82 262.36 61.47 
M 264.9 66.56 267.45 71.66 
M 269.15 75.05 276.79 90.34 
M 277.64 92.03 278.49 93.73 
M 279.34 95.43 290.38 117.51 
M 292.93 122.6 299.72 136.19 
M 309.06 154.87 313.3 163.36 
M 332.84 202.42 334.32 205.4 
M 262.37 54.85 266.19 62.5 
M 267.04 64.19 277.23 84.57 
M 278.08 86.27 279.78 89.67 
M 282.33 94.76 287.42 104.95 
M 288.27 106.65 295.91 121.94 
M 297.61 125.33 303.56 137.22 
M 312.9 155.9 316.29 162.69 
M 321.39 172.88 322.24 174.58 
M 334.97 200.06 337.5 205.1 
M 265.88 55.22 284.14 91.73 
M 284.99 93.43 287.53 98.53 
M 290.93 105.32 299.42 122.3 
M 301.12 125.7 306.21 135.89 
M 317.25 157.97 319.8 163.06 
M 324.89 173.25 325.74 174.95 
M 338.48 200.42 340.46 204.38 
M 269.35 55.52 288.46 93.73 
M 292.7 102.22 308.84 134.49 
M 319.88 156.57 322.42 161.66 
M 341.95 200.72 343.42 203.65 
M 272.51 55.19 291.62 93.41 
M 293.32 96.8 310.3 130.77 
M 311.15 132.47 312 134.16 
M 322.19 154.54 323.04 156.24 
M 331.53 173.22 340.02 190.21 
M 275.58 54.69 304.03 111.59 
M 304.88 113.29 315.07 133.66 
M 316.77 137.06 320.16 143.85 
M 323.56 150.65 326.11 155.74 
M 334.6 172.72 339.69 182.91 
M 340.54 184.61 341.39 186.31 
M 278.5 53.88 306.1 109.08 
M 309.5 115.87 317.14 131.15 
M 317.99 132.85 329.03 154.93 
M 336.67 170.21 341.76 180.4 
M 281.24 52.72 285.06 60.36 
M 285.91 62.06 302.05 94.32 
M 302.89 96.02 307.99 106.21 
M 313.08 116.4 317.33 124.89 
M 321.58 133.38 324.97 140.18 
M 326.67 143.57 332.61 155.46 
M 335.16 160.56 336.01 162.25 
M 336.86 163.95 341.95 174.14 
M 346.2 182.63 350.45 191.13 
M 283.83 51.25 302.94 89.46 
M 305.48 94.56 311.43 106.44 
M 316.52 116.63 326.71 137.01 
M 330.96 145.5 337.75 159.09 
M 339.45 162.49 342.85 169.28 
M 349.64 182.87 353.04 189.66 
M 286.31 49.55 290.13 57.19 
M 291.82 60.59 306.26 89.46 
M 307.96 92.86 314.75 106.44 
M 319 114.94 321.54 120.03 
M 322.39 121.73 329.19 135.32 
M 334.28 145.51 341.07 159.09 
M 341.92 160.79 343.62 164.19 
M 345.32 167.58 347.02 170.98 
M 352.11 181.17 354.66 186.26 
M 356.36 189.66 357.21 191.36 
M 289.49 49.28 310.72 91.74 
M 312.42 95.13 319.21 108.72 
M 321.76 113.81 332.8 135.89 
M 337.04 144.38 342.99 156.27 
M 348.08 166.46 349.78 169.86 
M 354.88 180.05 359.12 188.54 
M 293.48 50.61 299.85 63.34 
M 300.7 65.04 312.58 88.82 
M 315.98 95.61 322.77 109.2 
M 324.47 112.59 332.11 127.88 
M 341.45 146.56 344.85 153.35 
M 350.79 165.24 353.34 170.34 
M 354.19 172.03 356.74 177.13 
M 358.44 180.52 359.29 182.22 
M 297.58 52.16 314.98 86.97 
M 316.68 90.37 335.36 127.73 
M 345.55 148.11 347.25 151.51 
M 352.34 161.69 354.04 165.09 
M 355.74 168.49 356.59 170.19 
M 357.44 171.88 359.99 176.98 
M 301.29 52.95 316.15 82.67 
M 320.4 91.16 331.44 113.24 
M 332.29 114.93 338.23 126.82 
M 342.48 135.31 343.33 137.01 
M 347.57 145.5 350.12 150.6 
M 358.61 167.58 361.16 172.67 
M 304.74 53.2 317.91 79.53 
M 321.3 86.32 322.15 88.02 
M 323 89.72 333.19 110.1 
M 334.89 113.49 341.41 126.53 
M 350.28 144.27 351.98 147.67 
M 357.07 157.86 357.92 159.55 
M 359.62 162.95 364.71 173.14 
M 308.04 53.15 336.49 110.04 
M 338.19 113.44 340.81 118.7 
M 350.4 137.88 354.23 145.52 
M 359.32 155.71 366.96 171 
M 368.66 174.39 371.21 179.49 
M 374.61 186.28 376.3 189.68 
M 320.39 71.2 339.49 109.41 
M 340.47 111.36 341.02 112.46 
M 354.35 139.13 355.63 141.68 
M 362.42 155.26 375.16 180.74 
M 376.86 184.14 380.39 191.21 
M 332.1 87.99 334.61 92.99 
M 340.61 105 341.55 106.87 
M 358.31 140.4 361.28 146.34 
M 363.83 151.44 378.26 180.31 
M 380.81 185.4 382.51 188.8 
M 362.27 141.66 380.52 178.18 
M 366.21 142.91 370.03 150.56 
M 372.58 155.65 381.07 172.63 
M 383.62 177.73 385.32 181.13 
M 370.14 144.13 370.57 144.97 
M 375.66 155.16 384.15 172.15 
M 385.85 175.54 386.7 177.24 
M 377.89 152.98 379.59 156.38 
M 380.44 158.07 381.29 159.77 
M 384.68 166.56 386.38 169.96 
M 389.78 176.75 390.63 178.45 
M 379.25 149.05 386.05 162.64 
M 381.88 147.66 389.09 162.09 
M 385.78 148.81 392.99 163.25 
M 394.69 166.64 396.39 170.04 
M 392.66 155.93 396.06 162.73 
M 397.76 166.12 399.45 169.52 
M 395.72 155.41 399.12 162.21 
M 401.67 167.3 403.36 170.7 
M 398.78 154.88 401.33 159.97 
M 404.72 166.77 406.42 170.16 
"/></svg>