<svg xmlns="http://www.w3.org/2000/svg" width="520" height="320"><rect x="0" y="0" width="520" height="320" fill="floralwhite"/><rect x="10" y="10" width="500" height="300" stroke="black" stroke-width="1" fill="none"/><path stroke="black" stroke-width="1" fill="none" stroke-linecap="round" stroke-linejoin="round" d="
M 166.23 84.23 174.22 79.97 182.2 77.35 198.14 74.58 214.08 70.55 222.05 69.07 230.03 68.31 238 67.96 245.97 67.82 261.91 68.15 269.88 67.79 277.86 67.82 285.83 68.73 301.77 71.42 309.74 72.99 317.71 75.33 333.66 80.98 341.63 83.55 349.6 86.42 357.57 90.5 365.54 96.39 366.43 97.94 
M 366.43 206.08 365.54 207.42 357.57 212.14 349.6 215.47 341.63 217.8 333.66 219.92 325.69 222.49 317.71 225.47 309.74 227.99 301.77 229.32 293.8 230.02 277.86 230.75 261.91 230.53 253.94 231.24 245.97 232.37 238 233.2 230.03 233.32 222.05 232.41 214.08 230.38 206.11 227.52 198.14 224.13 190.17 220.47 182.2 217.34 174.25 215.31 
M 178.47 177.11 179.36 176.07 181.35 171.92 181.35 169.36 179.08 164.89 
M 176.18 114.22 178.22 107.87 178.22 104 176.23 97.76 173.15 92.24 170.75 90.09 
M 182.64 124.32 182.18 123.61 179.73 121.71 
M 181.76 171.68 184.43 170.12 187.85 166.12 189.39 162.96 
M 179.4 162.37 186.24 163.65 
M 179.86 191.49 182.64 190.1 186.19 186.56 188.48 182.55 188.48 180.06 186.19 176.05 182.64 172.51 180.64 171.51 
M 178.55 178.97 184.66 178.55 
M 178.58 181.41 184.09 180.97 
M 178.53 183.78 184.06 184.55 
M 184.05 196.91 183.25 195.71 179.5 192.51 178.46 192.07 
M 175.16 96.44 177.25 90.23 177.25 86.53 175.29 80.56 174.84 79.77 
M 168.01 85.46 173.67 84.15 
M 168.33 88.24 173.85 87.97 
M 172.87 92.41 173.95 92.59 
M 189.78 124.44 189.98 123.71 189.98 119.83 188.28 113.56 185.66 108.02 183.6 105.86 
M 181.93 118.25 186.74 117.01 
M 181.94 121.57 187.29 121.72 
M 189.09 182.92 191.34 181.46 194.23 177.71 196.09 173.48 196.09 170.85 194.23 166.62 191.63 163.25 
M 186.89 169.8 192.97 168.84 
M 186.67 172.24 192.67 172.19 
M 186.67 174 193.08 175 
M 189.11 198.46 190.79 196.55 192.76 192.65 192.76 190.24 190.79 186.34 187.66 182.85 
M 176.55 91.21 179.49 89.85 184.05 85.62 186.99 80.83 186.99 77.87 186.21 76.61 
M 189.37 116.56 191.41 113.78 193.81 108.01 193.81 104.44 191.41 98.68 187.68 93.59 184.77 91.6 
M 196.33 124.56 195.39 123.14 192.89 121.25 
M 195.57 172.17 198.09 170.56 200.79 167.09 
M 194.71 193.1 197.46 191.65 200.98 187.94 203.26 183.73 203.26 181.13 200.98 176.92 197.46 173.21 195.42 172.14 
M 192.29 179.8 199.06 179.04 
M 192.26 182.25 198.8 182.38 
M 191.62 184.62 199.12 185.66 
M 201.82 202.89 201.82 201.51 199.35 197.68 195.53 194.3 192.55 192.97 
M 194.23 200.27 197.17 199.83 
M 185.94 79.78 186.31 79.64 190.63 76.28 191.03 75.74 
M 192.95 101.97 194.96 99.61 197.47 94.4 197.47 91.18 194.96 85.98 191.06 81.39 188.02 79.6 
M 204.2 124.7 204.52 123.71 204.52 120.24 202.66 114.62 199.79 109.66 197.54 107.72 
M 202.79 183.65 204.89 182.09 207.59 178.08 209.33 173.54 209.33 170.73 207.63 166.3 
M 203.44 203.41 204.04 203.06 207.14 199.4 209.15 195.26 209.15 192.69 207.14 188.54 204.04 184.88 202.44 183.94 
M 196.57 95.78 199.27 94.68 203.87 90.94 206.84 86.7 206.84 84.08 203.87 79.85 199.27 76.1 196.27 74.89 
M 203.86 120.55 204.52 120.18 208.49 115.74 211.05 110.72 211.05 107.62 208.49 102.6 204.52 98.17 201.42 96.44 
M 197.99 106.2 206.66 105 
M 199.02 108.95 206.02 109.01 
M 200.93 112.2 206 112.94 
M 209.62 124.79 209.01 123.94 206.5 122.2 
M 208.74 171.81 211.18 170.16 213.65 166.83 
M 209.25 194.51 211.9 192.98 215.31 189.06 217.5 184.61 217.5 181.87 215.31 177.43 211.9 173.5 209.25 171.97 
M 206.5 181.32 213.67 180.3 
M 206.67 183.05 213.44 183.32 
M 206.27 185.09 213.76 186.8 
M 216.56 206.87 217.11 205.94 217.11 203.48 214.76 199.49 211.12 195.97 208.43 194.67 
M 205.78 86.85 206.82 86.39 210.33 83.31 212.59 79.83 212.59 77.68 210.33 74.19 207.94 72.1 
M 201.32 77.13 208.85 75.96 
M 201.52 78.36 208.09 78.38 
M 204.71 80.91 208.91 81.24 
M 210.13 108.69 210.48 108.5 214.11 104.56 216.44 100.11 216.44 97.35 214.11 92.89 210.48 88.96 207.65 87.42 
M 204.89 96.51 212.39 95.27 
M 205.25 98.72 211.88 98.74 
M 207.24 101.69 212.05 102.3 
M 219.23 124.96 219.33 121.7 217.51 116.9 214.69 112.66 212.48 111.01 
M 216.72 183.46 218.3 182.23 221 178.04 222.74 173.29 222.74 170.35 222.07 168.52 
M 216.39 206.02 218.61 204.52 221.46 200.7 223.3 196.37 223.3 193.69 221.46 189.36 218.61 185.54 216.72 184.27 
M 216.65 206.89 216.27 206.68 
M 211.78 77.77 212.51 77.53 216.42 74.94 218.94 72 218.94 70.19 218.54 69.72 
M 212.18 71.03 214.52 71.17 
M 207.95 72.46 214.05 73.14 
M 215.61 98.12 216.06 97.91 219.97 94.33 222.49 90.28 222.49 87.77 219.97 83.71 216.06 80.13 213.01 78.74 
M 218.68 122.21 220.26 121.35 223.96 117.34 226.35 112.8 226.35 110 223.96 105.46 220.26 101.45 217.37 99.88 
M 222.81 125.02 222.15 124.15 219.68 122.53 
M 222.11 170.77 224.03 169.45 225.14 167.93 
M 223.16 195.14 225.74 193.55 229.04 189.47 231.17 184.86 231.17 182 229.04 177.38 225.74 173.31 223.16 171.71 
M 230.3 208.57 231.2 206.87 231.2 204.31 228.99 200.18 225.56 196.52 222.88 195.1 
M 220.37 84.45 221.85 82.71 223.65 78.97 223.65 76.66 221.85 72.92 219.06 69.63 
M 215.06 75.55 220.08 74.98 
M 214.79 77.97 220.53 77.51 
M 215.16 79.75 220.04 80.24 
M 225.49 111 225.87 110.76 228.97 106.75 230.97 102.2 230.97 99.39 228.97 94.84 225.87 90.83 223.44 89.26 
M 221.32 98.43 227.37 97.22 
M 221.28 101.08 227.01 100.53 
M 221.76 103.53 227.4 104.16 
M 232.27 125.18 232.66 124.24 232.66 121.54 230.87 117.19 228.08 113.34 225.91 111.84 
M 224.22 121.11 229.61 119.76 
M 223.94 122.47 229.74 123.11 
M 224.02 124.67 225.24 125.06 
M 230.41 183.96 231.99 182.68 234.71 178.28 236.46 173.3 236.46 170.22 235.81 168.37 
M 227.99 168.96 233.11 168.35 
M 227.95 172.12 233.6 171.88 
M 228.25 174.07 233.14 175.68 
M 230.41 206.14 232.34 204.77 235.09 200.88 236.86 196.47 236.86 193.74 235.09 189.33 232.34 185.43 230.41 184.07 
M 232.6 208.52 231.96 207.73 230.41 206.77 
M 223.89 79.17 226.92 78.17 230.8 75.61 233.29 72.7 233.29 70.91 231.02 68.27 
M 230.25 99.23 230.68 99.03 234.43 95.4 236.85 91.3 236.85 88.77 234.43 84.67 230.68 81.05 227.75 79.63 
M 232.11 123.55 234.96 122.04 238.61 118.16 240.96 113.77 240.96 111.06 238.61 106.67 234.96 102.79 232.11 101.28 
M 236.62 125.26 235.6 124.06 233.67 122.92 
M 235.83 169.89 237.35 168.83 
M 236.9 195.42 239.47 193.79 242.77 189.62 244.89 184.9 244.89 181.98 242.77 177.26 239.47 173.09 236.9 171.46 
M 234.33 180.84 241.25 179.94 
M 234.8 183.41 241.43 183.27 
M 234.09 186.25 240.72 187.18 
M 244.81 207.79 245.08 207.26 245.08 204.64 242.92 200.4 239.58 196.66 236.97 195.2 
M 234.06 203.6 241.16 202.34 
M 234.66 205.86 240.86 205.92 
M 234.77 208.17 236.66 208.44 
M 232.4 71.17 234.25 70.72 237.97 68.91 239.11 67.94 
M 235.75 86.3 238.17 84.04 240.38 80.4 240.38 78.14 238.17 74.5 234.73 71.29 233.66 70.78 
M 240.11 112.7 241.11 112.08 244.29 108.12 246.34 103.65 246.34 100.88 244.29 96.4 241.11 92.44 238.63 90.9 
M 236.29 99.77 242.23 98.82 
M 235.84 101.98 243 101.99 
M 236.29 104.66 242.29 105.66 
M 247.75 125.45 247.96 125.01 247.96 122.42 245.97 118.25 242.87 114.56 240.46 113.12 
M 244.13 183.95 245.68 182.7 248.45 178.26 250.23 173.24 250.23 170.13 249.18 167.15 
M 244.3 206.34 246.17 205 248.91 201.06 250.67 196.6 250.67 193.83 248.91 189.37 246.17 185.43 244.13 183.96 
M 245.59 207.72 244.3 206.89 
M 241.63 69.51 245.25 69.01 249.28 67.91 
M 241.39 82.4 244.88 81.48 249.35 79.11 252.23 76.42 252.23 74.76 249.35 72.08 244.88 69.71 243.48 69.34 
M 245.6 101.93 247.32 101.21 251.43 97.78 254.08 93.89 254.08 91.48 251.43 87.59 247.32 84.16 244.12 82.82 
M 247.74 125.09 250.69 123.63 254.47 119.88 256.9 115.64 256.9 113.01 254.47 108.77 250.69 105.02 247.74 103.56 
M 250.52 125.5 249.08 124.74 
M 249.6 170.51 251.71 169.23 253.39 167.2 
M 250.74 195.42 253.32 193.8 256.63 189.67 258.76 185 258.76 182.1 256.63 177.43 253.32 173.3 250.74 171.68 
M 248.12 181.13 254.84 180.06 
M 248.49 183.73 255.11 183.78 
M 247.91 185.49 254.53 187.34 
M 258.86 206.4 258.86 204.8 256.74 200.54 253.44 196.77 250.87 195.3 
M 252.35 68.23 254.28 68.03 
M 251.47 77.26 254.53 76.63 258.45 75.03 260.98 73.22 260.98 72.1 258.45 70.28 254.53 68.68 251.47 68.06 
M 253.13 91.5 253.68 91.3 257.51 88.44 259.98 85.21 259.98 83.2 257.51 79.97 253.68 77.11 253.25 76.95 
M 247.61 82.22 255.39 82.14 
M 247.47 83.94 255.54 84.16 
M 248.63 85.65 255.8 86.71 
M 256.03 115.14 257.63 114.22 260.89 110.51 262.98 106.31 262.98 103.71 260.89 99.51 257.63 95.8 255.09 94.35 
M 252.63 102.79 259.41 101.69 
M 252.98 104.84 259.4 104.98 
M 252.58 106.94 258.95 108.21 
M 264.21 125.74 264.21 125.04 262.24 120.92 259.17 117.28 256.78 115.86 
M 254.89 124.42 260.33 123.22 
M 257.99 184.02 259.85 182.61 262.64 178.38 264.43 173.6 264.43 170.63 263.02 166.86 
M 258.1 206.17 259.86 204.9 262.58 200.99 264.34 196.56 264.34 193.81 262.58 189.38 259.86 185.47 257.99 184.13 
M 260.67 74.77 264.07 74.28 268.41 73.04 271.21 71.62 271.21 70.75 268.41 69.33 263.91 68.06 
M 260.18 87.02 263.6 86.16 267.97 83.95 270.78 81.45 270.78 79.91 267.97 77.41 263.6 75.21 260.71 74.48 
M 256.99 79.53 265.76 78.5 
M 257.78 80.46 266.01 80.92 
M 259.09 81.8 265.82 82.16 
M 262.23 105.07 264.68 104.13 268.74 101 271.37 97.46 271.37 95.26 268.74 91.72 264.68 88.59 261.5 87.37 
M 265.13 125.76 266.32 125.18 269.95 121.62 272.3 117.59 272.3 115.09 269.95 111.06 266.32 107.5 263.47 106.11 
M 263.81 171.53 266.53 169.95 270.02 165.89 270.42 165.06 
M 264.58 195.23 267.15 193.66 270.45 189.63 272.57 185.07 272.57 182.25 270.45 177.69 267.15 173.67 264.58 172.1 
M 262.19 181.24 268.53 180.38 
M 262.4 183.29 269.09 183.26 
M 261.91 186.2 268.61 186.7 
M 272.51 206.24 272.51 204.79 270.4 200.53 267.13 196.77 264.58 195.31 
M 270.21 71.8 272.1 71.55 275.35 70.68 277.45 69.7 277.45 69.09 275.35 68.11 274.22 67.81 
M 269.77 81.59 271.93 81.04 275.28 79.33 277.44 77.39 277.44 76.19 275.28 74.25 271.93 72.54 270.21 72.1 
M 270.43 96.24 271.97 95.65 275.43 93 277.66 90 277.66 88.14 275.43 85.14 271.97 82.5 269.77 81.66 
M 271.46 116.36 273.31 115.34 276.32 112.05 278.26 108.31 278.26 106 276.32 102.27 273.31 98.97 270.96 97.69 
M 268.55 105.53 274.49 104.39 
M 268.38 107.44 274.41 107.18 
M 269.09 108.76 274.68 110.29 
M 277.86 125.98 277.86 125.62 276.05 121.55 273.25 117.96 271.46 116.81 
M 271.81 183.64 273.62 182.29 276.36 178.22 278.12 173.62 278.12 170.77 276.36 166.16 275.65 165.11 
M 269.05 169.63 275.07 168.33 
M 269.22 172.59 274.98 172.43 
M 269.63 174.54 274.79 175.65 
M 271.76 206.12 273.57 204.83 276.3 200.94 278.06 196.53 278.06 193.79 276.3 189.38 273.57 185.49 271.81 184.24 
M 269.61 192.99 274.55 191.75 
M 269.53 194.89 275 195.01 
M 269.21 197.05 274.5 198.55 
M 277.03 77.57 279.88 77.06 283.53 75.76 285.89 74.28 285.89 73.36 283.53 71.88 279.88 70.58 277.03 70.07 
M 276.99 90 279.94 89.15 283.72 86.99 286.16 84.53 286.16 83.02 283.72 80.56 279.94 78.4 276.99 77.55 
M 277.57 107.05 280.41 105.92 284.07 103.01 286.43 99.71 286.43 97.67 284.07 94.38 280.41 91.47 277.55 90.33 
M 274.98 96.76 281.87 95.87 
M 274.78 98.74 282.06 98.3 
M 275 100.57 282.54 100.85 
M 279.93 126.01 280.69 125.63 284.1 122.23 286.29 118.37 286.29 115.99 284.1 112.13 280.69 108.73 278.04 107.4 
M 275.38 114.81 282.14 114.27 
M 275.28 116.77 282.08 116.99 
M 275.54 119.35 282.13 119.81 
M 278.08 171.89 280.71 170.33 284.08 166.33 285.79 162.77 
M 278.33 195.09 280.89 193.54 284.17 189.57 286.29 185.07 286.29 182.29 284.17 177.79 280.89 173.82 278.33 172.27 
M 286.21 206.16 286.21 204.75 284.1 200.51 280.82 196.77 278.27 195.31 
M 285.05 73.21 286.74 72.93 289.48 72.04 291.24 71.03 291.24 70.41 288.97 69.23 
M 282.89 69.95 287.83 69.65 
M 282.23 70.45 288.29 70.34 
M 282.62 71.19 287.97 71.59 
M 285.29 83.21 286.84 82.73 289.68 80.98 291.52 78.99 291.52 77.77 289.68 75.78 286.84 74.03 285.05 73.48 
M 285.58 97.83 287.07 97.19 290.01 94.64 291.9 91.75 291.9 89.96 290.01 87.07 287.07 84.53 285.29 83.75 
M 285.5 116.55 287.38 115.49 290.16 112.34 291.95 108.78 291.95 106.57 290.16 103.01 287.38 99.87 285.58 98.85 
M 291.58 126.22 291.58 125.75 289.81 121.69 287.06 118.1 285.5 117.09 
M 285.53 183.48 287.31 182.16 290.04 178.13 291.81 173.57 291.81 170.74 290.04 166.18 287.36 162.22 
M 285.52 206.18 287.34 204.88 290.08 200.98 291.84 196.57 291.84 193.84 290.08 189.43 287.34 185.54 285.53 184.24 
M 290.98 78.02 293.45 77.48 296.61 76.1 298.65 74.53 298.65 73.56 296.61 71.99 293.45 70.61 290.98 70.07 
M 291.48 90.86 294.06 90.01 297.37 87.8 299.5 85.31 299.5 83.77 297.37 81.27 294.06 79.07 291.48 78.21 
M 291.9 107.52 294.49 106.41 297.8 103.55 299.94 100.32 299.94 98.32 297.8 95.08 294.49 92.23 291.9 91.11 
M 289.12 97.24 296.01 97.16 
M 289.8 99.01 296.28 99.07 
M 289.15 101.04 296.5 101.85 
M 293.43 126.25 294.47 125.71 297.73 122.34 299.83 118.53 299.83 116.17 297.73 112.35 294.47 108.98 291.93 107.67 
M 292 172.02 294.58 170.47 297.88 166.5 300 162 300 161.4 
M 292.07 195.07 294.63 193.53 297.91 189.57 300.02 185.08 300.02 182.31 297.91 177.82 294.63 173.87 292.07 172.32 
M 289.93 181.15 296.5 180.47 
M 289.96 183.79 295.96 183.89 
M 289.48 186.27 296.06 187.2 
M 299.96 205.72 299.96 204.8 297.86 200.6 294.59 196.89 292.03 195.44 
M 289.67 203.93 296.04 203.12 
M 296.88 72.08 298.76 71.69 300.14 71.13 
M 298.74 82.97 299.8 82.57 302.35 80.67 304 78.51 304 77.17 302.35 75.01 299.8 73.1 297.81 72.36 
M 296.06 77.04 301.07 76.13 
M 295.96 78.08 301.13 77.83 
M 295.77 79.15 301.25 79.66 
M 299.17 98.33 300.82 97.53 303.51 94.93 305.24 91.99 305.24 90.17 303.51 87.23 300.82 84.63 298.74 83.62 
M 296.56 89.64 301.91 89.11 
M 296.57 91.05 302.34 91.14 
M 296.6 92.15 302.35 92.89 
M 299.08 116.56 300.97 115.43 303.6 112.3 305.29 108.76 305.29 106.57 303.6 103.02 300.97 99.89 299.17 98.82 
M 305.23 126.45 305.23 125.77 303.49 121.68 300.79 118.07 299.08 116.93 
M 299.26 183.51 301.1 182.16 303.82 178.15 305.58 173.62 305.58 170.81 303.82 166.27 301.1 162.27 299.9 161.39 
M 296.78 169.92 302.56 168.55 
M 297.33 172.19 302.59 172.62 
M 296.84 174.16 301.99 175.41 
M 299.92 205.72 301.07 204.9 303.79 201 305.54 196.58 305.54 193.84 303.79 189.42 301.07 185.52 299.26 184.22 
M 303.41 76.99 305.7 76.41 308.67 74.92 310.58 73.24 
M 304.62 90.53 307.05 89.64 310.17 87.35 312.18 84.75 312.18 83.15 310.17 80.55 307.05 78.26 304.62 77.37 
M 305.25 107.2 307.67 106.07 310.77 103.2 312.76 99.94 312.76 97.92 310.77 94.66 307.67 91.79 305.25 90.66 
M 302.92 97.16 309.05 96.13 
M 303.31 98.96 309.52 98.64 
M 303.08 100.76 308.85 101.15 
M 305.81 126.46 307.75 125.41 310.87 122.02 312.89 118.18 312.89 115.8 310.87 111.95 307.75 108.56 305.3 107.23 
M 303.11 115.24 308.91 114.17 
M 303.33 116.56 308.95 117.11 
M 303.12 118.7 308.81 120.08 
M 305.71 172.02 308.23 170.46 311.45 166.49 313.53 161.98 313.53 159.19 312.05 155.97 
M 305.77 195.01 308.3 193.47 311.55 189.52 313.65 185.04 313.65 182.27 311.55 177.8 308.3 173.85 305.77 172.31 
M 313.13 203.98 311.41 200.57 308.18 196.92 305.65 195.49 
M 303.41 204.19 309.36 203.29 
M 311.46 81.79 312.14 81.51 314.66 79.48 316.29 77.18 316.29 75.75 315.54 74.69 
M 308.61 75.35 313.13 74.64 
M 308.63 76.88 313.54 76.62 
M 308.25 77.49 312.96 77.92 
M 312.05 97.83 313.83 96.94 316.45 94.31 318.14 91.33 318.14 89.49 316.45 86.52 313.83 83.89 311.79 82.87 
M 312.17 115.23 313.43 114.4 315.82 111.24 317.36 107.67 317.36 105.46 315.82 101.88 313.43 98.73 312.05 97.82 
M 318.62 126.69 318.62 125.39 316.87 121.22 314.17 117.54 312.17 116.18 
M 312.79 159.89 314.41 158.67 316.54 155.48 
M 312.9 183.43 314.66 182.1 317.32 178.07 319.03 173.51 319.03 170.69 317.32 166.14 314.66 162.11 312.79 160.69 
M 315.62 203.42 317.43 200.85 319.19 196.47 319.19 193.75 317.43 189.37 314.7 185.5 312.9 184.23 
M 315.76 75.86 317.81 75.36 
M 317.54 89.74 320 88.85 323.19 86.53 325.24 83.91 325.24 82.29 323.19 79.67 320 77.36 317.51 76.46 
M 315.09 81.8 321.18 81.52 
M 315.33 83.27 321.49 83 
M 315.01 84.08 321.66 85.43 
M 317.75 105.98 320.2 104.85 323.33 101.97 325.35 98.71 325.35 96.69 323.33 93.43 320.2 90.55 317.75 89.43 
M 318.03 126 320.53 124.64 323.72 121.15 325.78 117.2 325.78 114.76 323.72 110.81 320.53 107.32 318.03 105.96 
M 319.15 126.7 318.92 126.56 
M 318.99 171.6 321.5 170.04 324.71 166.05 326.78 161.53 326.78 158.74 324.71 154.22 323.75 153.03 
M 316.37 157.56 322.91 156.66 
M 316.85 159.9 323.35 159.94 
M 316.57 162.5 323.28 163.28 
M 319.3 194.87 321.83 193.32 325.07 189.35 327.16 184.86 327.16 182.08 325.07 177.58 321.83 173.61 319.3 172.06 
M 316.85 181.19 323.67 179.9 
M 317.05 183.71 323.65 183.45 
M 316.59 185.54 323.1 187.21 
M 325.21 200.96 324.9 200.37 321.66 196.76 319.13 195.35 
M 324.51 81.11 325.26 80.83 327.84 78.92 
M 325.03 97.09 327.1 96.12 329.75 93.62 331.46 90.8 331.46 89.06 329.75 86.23 327.1 83.74 325.03 82.77 
M 324.58 112.09 327.59 108.72 329.38 105.04 329.38 102.77 327.59 99.09 325.53 96.68 
M 332.6 126.93 332.6 125.42 330.82 121.04 328.05 117.17 325.88 115.66 
M 323.62 124.8 329.8 123.37 
M 324.18 126.34 329.76 126.37 
M 326.04 158.83 327.5 157.79 330.23 153.9 331.99 149.5 331.99 149.19 
M 327.27 151.06 329.08 151.42 
M 326.41 182.64 327.75 181.62 330.43 177.52 332.16 172.88 332.16 170.01 330.43 165.37 327.75 161.27 326.04 159.96 
M 331.86 199.47 333.02 196.57 333.02 193.85 331.26 189.45 328.53 185.56 326.41 184.06 
M 331.26 89.48 333.92 88.62 337.34 86.4 339.54 83.9 339.54 82.88 
M 331.26 105.77 333.93 104.65 337.34 101.76 339.53 98.49 339.53 96.47 337.34 93.2 333.93 90.32 331.26 89.19 
M 328.92 95.7 335.69 94.79 
M 328.92 97.61 335.98 97.12 
M 329 99.11 335.13 99.98 
M 331.96 126.12 334.54 124.8 337.97 121.29 340.19 117.31 340.19 114.84 337.97 110.86 334.54 107.35 331.85 105.98 
M 333.14 126.94 332.73 126.7 
M 332.58 171.4 335.13 169.85 338.39 165.88 340.5 161.38 340.5 158.59 338.39 154.1 335.13 150.12 333.12 148.9 
M 332.9 194.77 335.41 193.22 338.63 189.24 340.7 184.73 340.7 181.94 338.63 177.44 335.41 173.46 332.9 171.9 
M 336.93 198.49 335.37 196.78 332.82 195.38 
M 338.75 96.69 340.6 95.86 343.41 93.32 345.23 90.45 345.23 88.67 343.41 85.8 340.6 83.26 340.26 83.11 
M 339.4 115.71 341.42 114.65 344.54 111.38 346.55 107.68 346.55 105.39 344.54 101.69 341.42 98.42 338.99 97.15 
M 346.66 127.17 346.66 125.79 344.86 121.62 342.08 117.94 339.91 116.51 
M 339.75 159.91 341.93 158.4 344.71 154.53 346.51 150.14 346.51 147.43 345.26 144.38 
M 339.96 182.84 341.62 181.59 344.31 177.56 346.05 172.99 346.05 170.17 344.31 165.6 341.62 161.57 339.74 160.16 
M 346.26 196.76 346.36 193.75 344.68 189.33 342.07 185.42 340.03 183.9 
M 346.01 90.22 348.74 89.39 351.8 87.55 
M 346.11 106.85 348.85 105.73 352.35 102.86 354.61 99.61 354.61 97.6 352.35 94.35 348.85 91.48 346.11 90.36 
M 346.63 126.97 349.32 125.63 352.77 122.2 355 118.32 355 115.92 352.77 112.04 349.32 108.62 346.63 107.28 
M 343.96 115.03 351.3 114.35 
M 344.26 117.5 351.34 116.98 
M 343.65 118.85 351.36 119.76 
M 346.72 148.69 349.3 147.23 352.59 143.5 354.32 140.05 
M 346.34 171.26 348.84 169.73 352.04 165.82 354.1 161.39 354.1 158.65 352.04 154.22 348.84 150.31 346.34 148.78 
M 344.06 158.17 350.78 157 
M 344.15 159.79 350.14 160.01 
M 343.7 162.38 350.43 163.42 
M 346.2 194.32 348.62 192.77 351.72 188.79 353.72 184.3 353.72 181.51 351.72 177.02 348.62 173.05 346.2 171.5 
M 344.06 180.28 350.49 179.04 
M 344.14 182.96 350.31 182.8 
M 343.52 184.85 349.96 186.64 
M 348.51 196.32 346.49 195.17 
M 353.8 97.71 355.57 96.95 358.46 94.45 359.92 92.24 
M 354.2 116.47 355.98 115.48 358.83 112.3 360.67 108.69 360.67 106.46 358.83 102.86 355.98 99.68 353.8 98.47 
M 360.54 127.42 360.54 126.05 358.76 122 356.01 118.42 354.2 117.25 
M 353.38 159.62 355.45 158.14 358.1 154.33 359.81 150.03 359.81 147.36 358.1 143.05 355.76 139.69 
M 351.08 146.24 356.54 145.77 
M 350.99 148.93 356.45 148.69 
M 351.71 150.59 356.87 152.02 
M 353.01 182.08 354.67 180.79 357.22 176.85 358.86 172.4 358.86 169.64 357.22 165.18 354.67 161.24 353.36 160.23 
M 358.61 193.49 358.61 192.51 357 187.96 354.51 183.95 353.01 182.74 
M 360.52 107.44 363.13 106.33 366.43 103.52 
M 357.59 97.76 365.1 97.07 
M 358.23 99.49 364.79 99.17 
M 358.28 101.01 365.05 101.38 
M 360.7 127.11 363.28 125.8 366.43 122.6 
M 366.43 112.35 363.28 109.15 360.7 107.84 
M 360.3 148.28 362.78 146.86 365.95 143.22 366.43 142.24 
M 360.42 127.41 360.3 127.35 
M 359.36 170.31 361.71 168.81 364.73 164.98 366.43 161.18 
M 366.43 157.43 364.73 153.63 361.71 149.8 359.36 148.31 
M 358.8 193.16 361.1 191.61 364.06 187.65 365.97 183.15 365.97 180.37 364.06 175.88 361.1 171.92 358.8 170.37 
M 366.38 158.54 366.43 158.5 
M 365.28 180.49 366.43 179.56 
M 366.43 159.59 365.98 159.22 
M 366.43 182.21 365.28 181.25 
M 185.36 201.34 187.74 199.99 189.11 198.46 
M 190.84 213.53 191.52 212.39 191.52 210.15 189.35 206.52 185.97 203.32 184.8 202.77 
M 192.55 212.43 195.53 211.11 199.35 207.72 201.82 203.89 201.82 202.89 
M 189.44 200.99 194.23 200.27 
M 189.26 202.72 197.53 203.14 
M 191.03 75.74 191.03 75.74 
M 205.12 219.39 205.59 218.91 207.66 215.25 207.66 212.98 205.59 209.31 202.39 206.08 200.94 205.34 
M 196.27 74.89 196.27 74.89 
M 208.28 214.82 211.12 213.45 214.76 209.93 216.56 206.87 
M 212.18 71.03 212.18 71.03 
M 222.88 216.09 225.56 214.66 228.99 211.01 230.3 208.57 
M 219.43 223.47 226.31 222.3 
M 232.17 225.04 234.82 221.75 236.66 217.75 236.66 215.27 234.82 211.27 232.6 208.52 
M 231.02 68.27 231.02 68.27 
M 236.97 216.7 239.58 215.24 242.92 211.5 244.81 207.79 
M 247.65 223.92 248.9 222.31 250.7 218.24 250.7 215.72 248.9 211.65 246.11 208.06 245.59 207.72 
M 254.28 68.03 254.28 68.03 
M 264.58 216.9 267.13 215.43 270.4 211.67 272.51 207.42 272.51 206.24 
M 270.74 222.5 270.39 221.86 267.13 218.49 264.58 217.18 
M 274.22 67.81 274.22 67.81 
M 269.39 218.96 274.74 220.33 
M 284.22 222.4 283.86 221.75 280.65 218.44 278.14 217.14 
M 285.46 206.22 285.52 206.18 
M 289.95 222.18 291.7 218.17 291.7 215.67 289.93 211.63 287.19 208.06 285.46 206.93 
M 292.03 216.76 294.59 215.31 297.86 211.6 299.96 207.4 299.96 205.72 
M 289.43 206.49 295.95 206.15 
M 290 208.43 296.54 209.24 
M 297.25 221.76 293.96 218.29 291.5 217.03 
M 304.26 221.05 305.48 218.29 305.48 215.86 303.74 211.93 301.05 208.45 299.21 207.27 
M 310.58 73.24 310.58 73.24 
M 305.65 216.49 308.18 215.06 311.41 211.41 313.5 207.27 313.5 204.71 313.13 203.98 
M 302.92 206.27 310.1 205.77 
M 309.44 220.29 306.95 217.78 304.86 216.73 
M 312.75 206.1 314.7 204.72 315.62 203.42 
M 317.81 75.36 317.81 75.36 
M 319.13 216.13 321.66 214.71 324.9 211.1 327 207 327 204.47 325.21 200.96 
M 320.05 217.18 317.94 216.13 
M 330 203.8 336.94 203.03 
M 340.26 83.11 340.26 83.11 
M 343.62 210.57 341.69 208.36 340 207.39 
M 351.8 87.55 351.8 87.55 
M 359.92 92.24 359.92 92.24 
M 353.48 204.71 354.51 203.88 357 199.87 358.61 195.32 358.61 193.49 
M 365.83 201.49 364.8 199.21 361.79 195.4 359.44 193.92 
M 222.05 69.07 222.06 69.07 
M 227.96 68.51 230.29 50.59 233.03 49.7 236.77 49.81 239.21 48.6 243.84 45.8 245.44 43.65 250.5 41.49 252.3 39.77 255.66 39.65 259.39 37.09 261.15 35.61 263.53 34.22 266.15 33.09 268.26 31.72 270.02 30 273.04 30.64 276 33.22 282.78 36.34 285.13 37.18 287.74 38.57 288.89 38.55 291.41 38.92 293.72 38.69 297.4 36.03 300.36 35.45 306.6 35.21 309.19 34.56 310.94 34.6 312.81 36.05 316.54 40.86 317.78 44.79 321.67 51.45 322.69 53.69 324.72 55.4 327.27 56.17 329.69 58.55 331.25 60.69 332.05 62.37 332.95 64.72 332.84 66.95 333.67 71.9 332.13 80.44 
M 325.69 78.15 325.69 78.15 
M 226.49 68.65 228.84 67.5 230.08 65.89 229.61 63.63 229.64 61.43 230.82 60.01 231.42 57.4 
M 230.93 68.27 232.99 67.51 233.84 65.81 234.07 62.77 234.89 59.78 235.59 57.58 236.71 55.36 237.52 52.92 
M 235.38 68.08 237.52 67.06 238.35 65.21 241.59 56.43 241.58 54.6 242.42 53.3 
M 239.84 67.93 242.03 67.08 243.25 65.2 244.01 59.84 243.61 57.82 244.69 55.28 245.67 51.9 247.26 48.44 
M 244.29 67.85 246.58 66.9 247.78 65.2 248.06 63 247.9 61.26 248.12 58.8 248.95 55.89 250.43 51.72 251.99 49.02 252.37 47.28 254.38 43.18 
M 248.75 67.89 250.42 66.57 252.33 62.06 253.13 56.9 254.17 54.02 255.44 52.74 257.58 51.48 
M 253.2 68.01 254.57 66.42 256.15 61.98 256.89 59.04 257.33 56.04 258.39 54.16 259.72 53.06 260.66 50.64 261.17 47.56 262.3 44.95 
M 257.66 68.08 259.03 66.68 260.13 64.79 260.76 62.14 261.67 59.54 261.98 57.34 264.13 52.02 264.93 49.23 265.71 47.32 267.14 45.34 269.82 40.2 270 37.92 270.54 35.05 
M 262.12 68.14 263.7 67.29 265.85 62.93 266.44 60.22 266.66 57.79 268.07 55.28 268.49 51.8 268.75 46.14 270.17 43.87 272.14 42.44 
M 266.57 67.94 267.97 66.69 268.86 64.56 270.05 62.62 272.09 56.96 272.36 51.8 271.93 48.87 273.22 46.54 
M 271.02 67.79 272.67 66.76 273.78 65.03 274.87 62.62 276.42 56.69 276.93 53.88 
M 275.48 67.81 277.4 66.65 278.53 64.37 281.53 59.14 282.57 56.82 282.76 54.02 
M 279.93 68.06 282.23 66.38 284.01 64.32 285.13 61.98 286.17 59.24 288.12 55.71 288.75 53.68 
M 284.36 68.56 286.54 67.21 287.96 64.96 290.12 60.2 291.48 58.33 292.71 56.04 293.62 53.75 294.81 52.25 296.55 51.08 
M 288.77 69.2 290.85 67.66 293.99 63.42 296.27 58.77 299.32 54.44 300.13 52.34 300.35 49.91 301.66 47.3 304.01 43.71 306.4 41.19 308.18 37.66 
M 293.17 69.9 295.2 68.36 296.88 66.28 298.43 63.72 302.1 59.24 303.07 57.2 304.37 55.49 305.36 53.87 306.23 51.28 
M 297.56 70.67 300.12 69.27 303.16 64.18 305.2 62.82 306.64 61.57 307.47 58.98 308.77 56.76 311.17 55.4 313.35 52.87 
M 301.94 71.45 304.81 70.46 306.8 68.41 308.55 66.18 310.58 64.2 311.36 62.49 
M 306.32 72.32 309.3 70.75 311.29 69.14 313.49 67.89 315.08 66.12 317.65 61.53 
M 310.67 73.26 313.54 71.91 316.67 69.06 317.79 66.56 319.71 65 324.15 59.93 
M 314.95 74.52 317.57 73.87 319.44 72.47 321.37 70.89 322.73 68.48 
M 319.2 75.85 322.62 75.92 325.03 74.9 326.63 73.26 
M 323.4 77.34 327.53 77.88 
M 177.86 122.64 405.25 127.13 405.24 128.02 178.32 125.82 
M 178.39 126.38 383.03 138.77 382.98 139.66 178.77 129.57 
M 178.85 130.16 360.57 148.64 360.48 149.52 179.2 133.36 
M 179.26 133.97 337.97 156.72 337.85 157.6 179.58 137.18 
M 179.65 137.81 315.35 163.01 315.19 163.89 179.67 140.98 
M 179.65 141.6 292.81 167.53 292.62 168.4 179.55 144.75 
M 179.53 145.36 270.45 170.29 270.22 171.15 179.57 148.55 
M 179.58 149.17 248.38 171.3 248.12 172.15 179.64 152.36 
M 179.64 153 226.71 170.58 226.42 171.42 179.58 156.13 
M 179.57 156.84 205.54 168.17 205.21 169 179.49 159.84 
M 179.46 160.3 184.97 163.43 184.61 164.24 179.27 162.49 
M 382.14 127.79 377.2 128.92 372.49 130.53 370.27 131.61 368.14 132.88 366.1 134.32 362.16 137.51 
M 362.1 138.63 357.19 139.37 352.49 140.61 350.25 141.51 348.09 142.61 346 143.88 341.95 146.74 
M 341.84 147.86 337 148.22 332.32 149.08 330.07 149.81 327.89 150.73 325.76 151.84 321.62 154.37 
M 321.47 155.49 316.71 155.46 312.07 155.96 309.83 156.51 307.63 157.26 305.48 158.19 301.26 160.4 
M 301.07 161.5 296.42 161.11 291.86 161.25 289.62 161.62 287.43 162.19 285.26 162.96 280.98 164.82 
M 280.74 165.92 276.23 165.17 271.76 164.95 269.55 165.14 267.36 165.54 265.18 166.13 260.87 167.66 
M 260.58 168.75 256.22 167.64 254.05 167.26 251.87 167.07 249.7 167.09 245.35 167.74 241.02 168.93 
M 240.69 170 236.51 168.55 234.41 168.01 232.29 167.64 230.16 167.49 225.86 167.8 221.52 168.64 
M 221.15 169.7 217.17 167.93 215.16 167.22 213.11 166.69 211.04 166.37 206.79 166.33 202.47 166.83 
M 202.06 167.87 198.34 165.65 194.48 163.95 192.47 163.39 190.4 163.04 188.29 162.86 183.96 162.85 
M 379.65 128.32 374.8 129.64 372.49 130.53 370.27 131.61 368.14 132.88 364.11 135.88 
M 359.11 128.09 354.74 129.27 352.66 130.07 348.75 132.19 345.12 134.89 
M 338.56 127.85 334.69 128.91 332.84 129.62 329.36 131.5 326.13 133.89 
M 318.02 127.61 314.63 128.54 311.46 129.91 309.97 130.8 307.15 132.9 
M 297.48 127.38 294.57 128.17 291.85 129.35 290.58 130.11 288.16 131.91 
M 276.94 127.14 274.51 127.8 272.25 128.78 269.17 130.92 
M 256.39 126.9 254.46 127.43 252.64 128.22 250.18 129.93 
M 359.63 138.96 354.8 139.9 352.49 140.61 350.25 141.51 348.09 142.61 343.96 145.28 
M 338 137.86 333.74 138.69 329.71 140.11 327.8 141.08 324.16 143.44 
M 316.37 136.76 312.67 137.48 309.18 138.71 307.52 139.55 304.36 141.6 
M 294.74 135.66 291.6 136.27 290.09 136.73 287.24 138.03 284.55 139.76 
M 273.11 134.56 269.3 135.43 266.95 136.5 264.75 137.92 
M 251.48 133.46 248.5 134.14 246.67 134.97 244.95 136.09 
M 339.41 148 334.63 148.56 332.32 149.08 330.07 149.81 327.89 150.73 323.68 153.07 
M 316.28 145.92 312.17 146.4 310.18 146.84 306.37 148.26 302.76 150.27 
M 293.16 143.83 289.72 144.23 286.43 145.13 284.86 145.79 281.83 147.47 
M 270.03 141.74 267.26 142.06 264.61 142.79 260.91 144.68 
M 246.91 139.65 243.78 140.13 241.84 140.85 239.98 141.88 
M 319.08 155.44 314.37 155.62 312.07 155.96 309.83 156.51 307.63 157.26 303.37 159.26 
M 293.73 152.15 289.84 152.3 287.95 152.58 284.29 153.65 280.77 155.3 
M 268.38 148.86 265.32 148.98 263.83 149.2 260.94 150.05 258.17 151.35 
M 243.03 145.58 239.7 145.82 237.59 146.44 235.57 147.39 
M 298.74 161.27 294.12 161.09 291.86 161.25 289.62 161.62 287.43 162.19 283.12 163.85 
M 276.95 157.59 273.14 157.44 271.27 157.57 267.62 158.35 264.06 159.72 
M 255.16 153.9 252.16 153.78 250.68 153.89 247.81 154.5 245 155.58 
M 233.37 150.22 230.1 150.21 228 150.66 225.95 151.44 
M 278.48 165.51 273.98 164.96 271.76 164.95 269.55 165.14 267.36 165.54 263.02 166.86 
M 254.15 160.44 250.71 160.02 247.31 160.16 245.63 160.47 242.3 161.47 
M 229.83 155.37 227.43 155.08 225.06 155.17 221.58 156.09 
M 258.4 168.16 254.05 167.26 251.87 167.07 249.7 167.09 247.52 167.32 243.18 168.3 
M 228.94 160.87 226.11 160.29 224.69 160.17 221.87 160.33 219.05 160.96 
M 238.6 169.24 234.41 168.01 232.29 167.64 230.16 167.49 228.02 167.55 223.69 168.18 
M 219.17 168.78 215.16 167.22 213.11 166.69 211.04 166.37 208.93 166.26 204.64 166.54 
M 214.08 230.38 218.58 237.95 220.69 240.69 221.94 243.32 223.4 245.78 225.39 247.78 227.35 249.4 231.76 255.52 229.98 260.52 228.04 262.21 226.94 268.46 222.05 271.09 219.95 272.46 218.16 274.1 215.51 274.84 208.82 280 208.64 277.19 207.63 273.85 209.34 268.26 209.68 264.07 208.11 255.72 208.61 252.56 208.63 248.74 208.35 245.38 208.33 242.45 207.51 239.91 207.44 236.99 206.78 230.86 206.11 227.52 
M 212.4 229.78 215.97 236.95 218.12 239.67 219.32 242.57 220.1 245.8 222.18 248.13 224.18 250.77 227.34 257.2 229.09 258.87 
M 210.73 229.18 213.24 235.94 215.11 238.76 216.04 241.61 217.22 244.43 218.05 247.52 219.82 250.94 
M 209.05 228.58 209.99 232.06 210.48 235.1 211.7 237.63 213.73 243.64 214.14 246.95 214.94 250.52 
M 207.37 227.97 208.35 231.28 208.64 234.65 209.81 239.86 210.83 243.38 211.07 246.62 211.08 250.01 212.16 252.75 212.87 258.51 214.14 261.05 214.48 265.52 214.26 267.03 
M 349.6 215.47 354.22 219.27 358.2 226.95 352.14 226.98 349.79 228.29 347.04 228.73 344.38 229.36 341.7 230.23 339.59 231.8 337.18 232.73 335.22 233.79 332.33 234.54 328.37 238.1 326.11 239.62 324.06 241.35 322.47 243.45 321.03 245.71 318.61 246.95 316.36 248.36 313.32 249 310.54 249.92 308.09 251.17 306.39 253.17 305.3 255.78 303.25 257.42 300.17 257.89 297.99 259.48 296.24 261.5 290.79 263.55 287.88 268.17 285.86 269.93 284.06 271.91 279.54 276.24 277.58 270.05 273.66 264.19 272.07 261.54 270.28 259.87 268.18 256.53 266.49 254.24 265.01 251.42 264.37 248.26 263.45 245.7 261.41 243.14 259.59 239.95 258.35 236.87 256.73 234.44 253.94 231.24 
M 345.32 216.72 348.96 221.02 351.22 223.29 
M 341.04 217.96 344.8 222.32 
M 336.73 219.1 340.22 223.19 
M 332.44 220.31 336.32 224.14 340.84 229.89 
M 328.2 221.67 332 226.72 334.87 228.8 337.29 231.38 
M 323.99 223.12 327.51 227.54 330.82 230.71 332.79 231.54 
M 319.81 224.68 324.04 228.5 326.37 231.6 328.39 233 330.07 233.7 
M 315.6 226.14 320.24 230.11 322.68 233.03 325.4 235.56 327.22 236.49 
M 311.35 227.48 320.53 236.4 
M 307 228.45 313.17 235.1 315.53 237.28 318.86 243.01 
M 302.61 229.18 306.19 232.96 308.65 236.01 312.44 241.66 
M 298.17 229.63 301.52 233.65 303.76 236.71 306.27 239.46 308.27 244.11 309.31 247.32 
M 293.73 230.03 296.75 233.45 299.07 236.41 300.59 239.6 302.22 245.03 303.97 247.95 
M 289.28 230.25 293.44 236.71 295.72 239.53 297.54 241.4 298.76 243.63 
M 284.83 230.47 287.66 234.07 289.2 236.75 290.98 239.38 293.6 241.33 295.45 243.61 296.54 247.46 
M 280.38 230.65 282.79 233.46 284.39 236.8 286.12 239.61 287.6 242.47 291.36 247.99 293.26 251.59 293.52 254.79 295.3 257.37 
M 275.92 230.72 277.95 234.18 279.98 236.93 281.54 240.3 282.46 243.6 283.66 246.03 285.57 248.26 286.58 251.49 289.91 257.11 
M 271.47 230.66 274.85 236.93 276.94 239.66 278.11 243.19 279.44 245.92 280.33 248.35 281.89 251.06 282.46 253.21 284.39 256.21 286.06 261.25 288.6 264.91 
M 267.01 230.6 269.1 233.66 270.57 236.7 275.47 245.06 276.71 248.53 277.53 250.35 278.66 252.31 
M 262.55 230.54 264.95 233.79 268.13 239.72 274.76 250.33 276.35 251.12 277.52 253.77 
M 258.11 230.87 260.54 233.82 265.58 243.27 268.64 248.46 270.81 250.71 271.94 252.71 273.25 254.24 276.1 258.46 
M 365.54 96.39 368.3 95.53 370.58 94.03 373.13 92.71 375.79 91.97 378.47 90.86 385.5 86.24 386.75 84.68 391.45 81.82 393.95 80.87 396.71 78.88 399.59 76.46 404.44 73.57 406.35 72.19 407.68 70.96 409.71 69.79 412.95 68.83 418.22 66.09 420.03 64.65 424.63 61.6 427.05 59.72 429.65 58.72 431.31 57.38 433.2 55.25 435.06 53.69 437.39 52.73 439.6 50.95 442.64 49.52 445.27 48.05 447.63 47.3 452.06 44.91 455.39 44.03 457.16 42.34 458.2 41.73 450.98 56.35 450.73 59.74 449.4 62.06 446.47 66.42 445.23 68.81 444.18 71.41 442.84 73.72 440.83 75.36 439.38 77.55 437.18 79.01 435.51 80.98 434.61 83.73 433.38 86.15 433.16 89.39 432.12 91.68 431.4 94.3 431.33 97.56 430.78 100.34 429 102.26 424.45 109.04 422.47 110.83 419.87 111.99 418.1 113.78 417.71 116.96 416.67 119.48 415.43 121.8 414.67 124.54 412.17 129.06 411.03 131.43 410.03 134.12 408.59 136.42 405.83 137.4 404.66 139.73 404.68 142.67 404.05 144.98 403.24 147.1 403.54 150.34 403.46 153.19 403.06 155.74 402.41 158.19 402.8 167.52 402.44 170.1 403.01 172.98 404.03 176.17 404.39 178.62 405.09 181.1 406.86 190.29 408.77 196.12 410.06 198.86 411.58 201.52 411.87 202.96 411.59 207.27 411.03 209.43 411.87 212.95 412.09 215.07 413.33 218.2 415.06 225.82 416.08 228.95 417.88 232.86 417.93 234.87 419.3 243.12 414.91 242.78 411.31 241.7 409.83 239.81 407.94 237.79 404.67 235.86 402.29 232.56 400.53 231.19 398.87 230.05 396.01 229.3 392.8 227.79 389.99 225.99 385.54 221.86 384.14 219.73 382.04 217.94 379.28 216.5 376.63 214.82 373.77 213.93 371.04 212.36 368.42 210.18 365.54 207.42 
M 373.24 99.17 376.37 98.1 381.37 95.37 383.92 94.45 385.34 93.45 387.65 92.34 392.14 89.6 395.66 88.73 398.65 87.79 401.75 86.43 403.79 85.15 405.05 83.19 406.56 81.66 408.85 79.83 412.76 78.71 415.45 77.75 418.33 77.44 420.72 76.47 422.33 73.82 424.28 72.22 425.45 70.78 428.15 68.12 429.66 66.32 431.86 64.34 
M 373.72 105.05 376.59 103.92 379.36 102.31 385.1 99.73 389.89 98.85 394.41 96.9 398.59 94.58 401.92 93.56 405.42 92.09 407.44 90.47 409.86 89.37 411.61 88.28 414.09 87.08 416.28 85.06 419.01 83.72 
M 368.61 112.93 374.19 111.08 377.26 109.44 380.18 108.61 382.79 107.57 387.78 106.87 390.63 106.28 393.25 105.38 394.59 104.53 397.09 104.37 399.58 103.12 402.45 101.33 405.78 99.74 
M 374.64 116.79 377.08 116.06 382.84 115.17 388.28 113.89 390.55 112.8 393.22 112.56 395.69 111.88 397.49 111.18 400.14 110.74 406.5 107.88 409.4 106.88 411.99 105.5 
M 369.23 124.02 372.2 123.26 377.16 122.89 379.59 122.17 382.39 121.85 385.76 120.97 388.87 119.05 390.97 118.05 393.58 117.89 395.99 118.18 398.47 117.72 
M 379.17 128.44 380.74 128.48 383.65 127.83 386.43 126.09 389.14 126.36 391.99 125.81 394.7 125.82 401.16 126.43 402.75 125.8 
M 372.51 136.8 377.6 136.53 380.04 135.78 383.33 135.77 387.05 134.75 389.04 134.43 391.46 134.43 395.14 133.45 398.56 133.07 
M 369.17 141.59 372.57 141.91 378.12 142.13 383.68 141.51 387.12 141.6 389.11 141.82 391.87 141.41 395.33 141.58 397.98 141.07 
M 375.44 147.31 378.03 146.89 380.53 146.81 387.25 147.67 389.42 146.84 
M 376.66 154.05 379.87 153.74 382.51 153.76 385.07 154.55 386.6 155.63 388.3 156.12 
M 365.54 157.46 369.22 159.22 375.03 160.52 378.05 160.72 380.81 160.65 387.23 162.05 393.16 163.04 395.9 162.38 399.29 162.09 
M 371.67 166.07 375.04 166.39 377.79 166.37 383.89 167.3 387.55 168.28 390.52 169.5 393.4 170.04 396.29 169.12 398.98 169.9 
M 369.62 169.87 372.77 170.35 376.11 171.68 378.82 173.02 380.91 172.96 386.91 175.53 390.08 177.22 
M 375.14 177.62 378.05 178.67 381.14 179.57 384.03 179.97 386.5 181.83 
M 365.54 179.66 368.33 182.03 371.32 183.55 374.41 184.32 380.84 185.25 383.57 186.53 385.77 188.75 389.72 188.96 
M 369.12 187.43 372.45 188.99 377.29 190.59 385.76 194.15 389.88 195.99 392.78 197.83 
M 374.69 196.38 377.67 197.24 380.65 198.38 386.74 201.21 389.19 202.8 391.25 204.85 
M 374.43 202.19 377.06 203.96 379.68 205.39 387.57 208.97 391.11 211.37 395.66 214.15 398.33 216.5 400.69 218.32 402.93 220.44 406.39 221.26 409.49 220.82 411.9 222.79 
M 365.54 201.87 370.84 206.58 373.35 208.19 376.44 209.26 379.23 210.78 386.47 215.36 388.92 216.11 391.29 217.94 396.03 221.2 
M 78.26 126.51 78.29 125.84 79.16 123.96 80.96 121.62 83.72 119.13 91.1 113.94 95.87 110.98 107.94 104.83 114.89 100.97 122.3 98.08 136.64 92.99 149.46 88.08 154.98 86.35 159.91 85.16 163.92 84.45 166.22 84.22 169.75 90.93 171.42 97.75 173.33 104.56 175.47 111.36 177.16 118.18 178.23 125.04 179.75 138.8 179.52 145.73 179.64 152.65 179.52 159.58 178.33 173.51 178.6 180.41 178.46 194.27 177.91 201.23 176.69 208.23 174.25 215.25 160.78 214.42 150.93 212.67 142.46 209.69 134.75 205.94 127.34 201.51 120.17 196.05 107.85 184.89 102.25 178.66 
M 98.93 174.33 97.83 172.9 93.92 166.06 91.45 159.45 
M 153.42 120.43 153.76 126.31 152.03 137.33 150.87 142.31 148.21 151.29 148.2 155.37 148.49 159.48 150.55 168.35 151.51 173.77 151.62 179.95 142.65 180.44 136.06 180.49 130.02 179.62 124.1 177.99 118.05 175.43 112 171.47 106.5 166.63 
M 100.18 176.64 98.4 173.37 93.57 163.39 92.46 161.49 89.57 155.73 83.8 143.42 79.35 135.74 76.31 129.8 76.41 127.62 78.29 126.49 80.53 127.15 81.6 129.08 82.4 131.01 86.31 138.88 89.76 147.22 95.36 161.9 96.29 163.87 102.29 178.75 
M 100.97 178.75 89.87 169.48 81.05 162.43 74.45 156.67 69.6 152.12 62.64 146.47 61.79 144.5 62.71 142.4 64.77 141.76 66.66 142.91 83.7 160.43 91.72 168.14 97.88 174.5 102.18 178.61 
M 114.11 132.28 111.41 128.51 110.09 124.07 110.28 119.44 111.97 115.13 114.96 111.59 118.94 109.22 123.48 108.27 128.08 108.84 132.24 110.88 135.52 114.15 137.55 118.31 138.12 122.91 137.17 127.45 134.8 131.43 131.26 134.42 126.95 136.11 122.32 136.3 117.88 134.98 114.11 132.28 
M 133.22 115.79 134.85 119.12 135.31 122.8 134.55 126.42 132.65 129.61 129.82 132 126.37 133.35 122.67 133.51 119.11 132.45 116.1 130.29 
M 119.41 125.64 118.33 124.14 117.8 122.36 117.88 120.51 118.55 118.78 119.75 117.37 121.34 116.42 123.16 116.04 125 116.27 126.66 117.08 127.97 118.39 128.79 120.06 129.02 121.9 128.64 123.71 127.69 125.3 126.27 126.5 124.55 127.17 122.69 127.25 120.92 126.72 119.41 125.64 
M 118.78 123.41 122.58 127.22 
M 118.83 121.06 124.83 127.06 
M 118.92 118.74 126.49 126.31 
M 119.96 117.38 127.76 125.18 
M 122.89 117.9 128.65 123.65 
M 125.68 118.28 128.98 121.58 
M 94.87 167.71 96.33 169.18 
M 78.75 124.86 82.1 128.21 
M 80.91 121.68 85.58 126.34 
M 83.72 119.13 88.02 123.43 
M 86.84 116.91 90.72 120.78 
M 89.99 114.71 92.87 117.59 
M 93.24 112.61 97.3 116.67 
M 96.59 110.61 101.47 115.49 
M 100.13 108.8 104.2 112.87 
M 103.67 107 106.38 109.71 
M 107.22 105.19 109.91 107.89 
M 110.68 103.31 114.44 107.07 
M 114.12 101.4 119.28 106.56 
M 117.87 99.81 122.43 104.36 
M 121.72 98.31 124.55 101.13 
M 125.67 96.91 130.07 101.31 
M 129.64 95.53 132.68 98.57 
M 133.56 94.11 136.96 97.5 
M 137.47 92.67 140.17 95.37 
M 141.34 91.19 146.58 96.43 
M 145.21 89.71 149.58 94.08 
M 149.08 88.23 152.64 91.79 
M 153.13 86.93 156.62 90.43 
M 157.33 85.79 160.05 88.51 
M 161.73 84.84 166.85 89.96 
M 153.12 111.99 153.63 110.91 152.87 105.97 153 104.63 153.39 103.44 
M 169.45 189.55 166.67 189.12 164.54 189.54 162.7 189.62 161.81 189.36 160.74 188.58 
M 105.12 144.98 104.39 145.77 104.02 146.72 104.26 147.95 104.83 149.02 
M 137.39 93.2 137.15 94.33 136.74 94.61 136.24 94.48 135.47 93.55 
M 158 191.67 157.95 191.05 158.23 190.03 159.52 187.56 159.5 186.89 158.93 185.27 
M 120.6 139.29 121.84 142.19 121.88 142.67 120.29 145.72 
M 128.85 200.9 130.02 200.15 131.65 199.43 132.69 198.66 133.15 197.7 133.43 196.07 
M 158.25 173.27 156.04 172.66 154.98 172.47 153.92 172.5 152.61 172.92 151.39 173.77 150.8 173.99 
M 155.37 116.87 153.91 116.39 153.28 115.96 152.82 115.44 152.62 114.97 152.64 114.52 153.12 113.56 
M 178.46 187.85 178.32 187.48 
M 103.44 180.02 105.12 178.43 107.62 177.45 
M 131.39 140.87 129.33 141.9 128.2 143.06 126.61 147.71 
M 171.31 171.22 170.92 169.29 171.21 167.83 171.04 166.64 
M 132.34 166.65 131.52 165.48 130.67 165.03 129.81 165.08 128.75 165.52 126.87 165.28 
M 104.8 150.45 106.24 151.19 106.92 151.11 107.25 150.54 107.25 149.07 107.44 148.01 
M 177.01 184.2 176.09 184.98 175.34 185.39 172.11 185.85 
M 129.11 148.76 128.27 149.76 128.24 150.24 128.54 150.67 130.38 152.18 
M 92.75 155.06 93.03 154.17 93.01 152.2 92.9 151.11 92.54 150.12 92.11 149.39 91.61 149.04 91.16 148.9 90.41 148.96 
M 139.42 147.74 140.56 148.18 141.42 148.13 142.95 146.66 143.55 146.36 
M 156.83 114 155.63 112.17 154.42 110.8 153.9 109.96 153.08 107.17 153 105.08 
M 93.79 116.9 92.86 115.69 90.79 114.15 
M 135.87 157.09 134.6 154.34 134.44 153.24 135.32 150.54 135.92 149.79 136.37 149.57 
M 167.23 158.4 164.46 157.88 158.95 157.94 
M 147.26 207.32 148.84 205.57 149.99 203.81 150.29 202.94 150.35 202.1 150.2 201.26 149.38 199.42 145.99 196.43 144.39 195.35 
M 116.95 136.06 118.05 135.66 119.46 135.61 120.24 135.77 124.11 137.32 124.34 137.32 124.68 137.05 
M 165.58 90.78 167.11 85.91 
M 162.78 179.88 162.88 179.31 163.19 178.93 164.56 178.28 165.58 177.57 
M 86.24 118.71 86.17 117.39 
M 134.58 166.56 133.43 165.72 130.92 164.85 129.85 164.87 128.57 165.4 126.94 165.28 
M 159.42 142.78 157.25 143 155.93 143.36 153.06 144.55 151.76 145.66 
M 92 142.16 90.7 142.15 89.27 141.64 88.07 140.9 86.63 139.6 
M 138.41 150.67 139.25 149.24 141.27 148.73 141.83 148.02 
M 111.4 103.69 109.82 104.98 109.1 105.08 108.01 104.79 
M 141.09 138.53 140.28 139.43 139.78 139.61 137.4 139.14 135.58 139.18 134.64 139.56 
M 111.31 185.44 112.11 183.38 112.56 182.88 115.08 181.88 116.05 181.77 116.65 181.92 
M 168.48 98.37 167.21 98.03 163.99 98.25 163.35 98.15 162.68 97.77 159.38 94.75 
M 164.75 89.77 165.54 86.87 165.89 85 165.83 84.26 
M 95.66 162.55 96.66 162.38 97.26 162.45 97.83 162.75 98.61 163.97 98.56 164.45 
M 139.15 122.96 138.12 122.9 
M 151 191.03 151.62 191.42 151.96 191.45 153.12 191.17 153.58 190.73 154.23 189.66 
M 127.64 98.6 127.73 100.36 
M 177 163.25 178.03 163.51 179.1 164.61 
M 157.73 151.08 157 151.16 154.45 150.92 153.17 151.1 151.49 150.88 151.22 151.09 
M 134.43 134.17 132.02 133.78 
M 131.22 174.24 131.75 172.34 131.64 169.43 131.39 168.68 130.44 167.05 130.25 166.04 
M 159.63 120.62 155.33 118.66 152.94 117.91 
M 172.07 124.06 173.82 123.61 175.28 123.61 177.04 123.97 178.19 124.77 
M 141.71 182.41 141.18 182.41 140.76 182.71 140.66 183.04 140.87 183.38 
M 145.45 184 145.99 184.99 147.92 186.87 149.74 189.88 
M 94.41 154.52 94.07 151.27 93.08 149.43 92.43 148.85 91.87 148.59 90.92 148.52 90.32 148.73 
M 125.12 161.9 124.99 163.15 124.39 164.85 122.25 167.61 
M 102.47 137.71 102.8 138.19 102.92 138.75 102.9 139.35 102.54 140.52 101.24 142.99 100.3 143.93 99.86 144.12 
M 91.12 128.89 91.18 128.39 91.49 128.07 96.07 125.43 97.3 123.81 
M 138.67 170.04 136.79 169.4 133.22 167.52 132.07 166.64 131.4 165.46 131.02 165.2 130.18 165.03 
M 124.94 97.16 124.82 97.62 
M 105.32 130.13 106.08 130.75 106.91 131.86 107.7 133.28 107.86 133.97 107.8 134.58 107 136.32 106.9 136.95 107.1 138.78 
M 148.65 182.2 146.98 180.26 144.31 176.52 144.22 175.99 144.61 175.17 145.82 174.36 146.99 174.04 
M 141.14 128.55 139.71 128.65 138.78 129.12 136.58 131.71 135.25 132.13 133.93 132.17 
M 160.76 125.78 158.1 124.73 156.37 125.46 154.86 126.72 
M 106.11 133.47 106.41 134.02 106.61 135.04 106.65 137.33 106.89 139.64 106.76 141.22 
M 144.03 198.59 143.34 198.43 139.83 198.31 138.77 198.35 137 198.84 136.2 198.85 135.43 198.65 134.91 198.19 134.6 197.64 134.23 196.03 
M 111.36 181.68 112.77 180.89 113.84 180.57 114.47 180.71 116.32 181.69 
M 137.86 176 137.1 176.17 136.72 176.01 135.94 173.89 134.32 172.17 
M 116.95 110.41 115.66 109.51 113.09 108.72 109.87 108.21 
M 91.79 152.65 91.75 151.26 91.43 149.9 91.15 149.5 90.51 149.24 
M 103.48 179.97 102.46 180.91 100.13 182.6 97.45 183.84 95.93 184.14 94.38 184.09 92.96 183.76 87.81 182 85.31 180.71 84.23 179.77 82.6 177.5 82.03 176.23 81.66 174.9 81.48 173.53 81.55 172.16 81.89 170.84 82.42 169.6 83.73 167.26 82.52 169.64 82.1 170.9 81.88 172.19 81.93 173.5 82.2 174.76 82.65 175.98 84.04 178.13 84.93 179.04 85.93 179.78 87.05 180.33 89.52 181.11 93.36 182.03 94.57 182.2 95.7 182.15 96.78 181.83 98.85 180.65 101.59 178.08 
M 73.37 155.69 81.07 164.64 83.65 167.4 
M 83.66 167.41 86.81 170.78 92.88 176.49 98.34 180.98 
M 100.29 182.49 106.05 186.72 120.17 196.05 
M 169.86 91.4 173.53 95.07 
M 168.57 82.98 177.56 91.97 
M 173.22 80.5 179.99 87.27 
M 178.44 78.59 188.91 89.06 
M 184 77.02 191.83 84.85 
M 190.02 75.9 198.45 84.34 
M 196.15 74.91 204.13 82.89 
M 201.98 73.61 211.85 83.48 
M 207.67 72.17 213.99 78.49 
M 213.37 70.73 218.71 76.08 
M 219.34 69.57 226.54 76.78 
M 225.62 68.73 233.92 77.03 
M 232.24 68.21 242.77 78.75 
M 239.1 67.94 244.83 73.67 
M 246.11 67.83 255.17 76.88 
M 253.43 68.01 261.87 76.46 
M 260.68 68.13 270.75 78.21 
M 267.57 67.89 273.56 73.89 
M 274.61 67.81 285.23 78.42 
M 282.26 68.33 291.25 77.31 
M 290.55 69.48 300.69 79.62 
M 299.15 70.95 306.44 78.24 
M 307.97 72.64 315.88 80.56 
M 317.82 75.37 326.28 83.82 
M 328.87 79.28 335.01 85.42 
M 339.62 82.9 346.83 90.11 
M 350.96 87.11 359.66 95.81 
M 225.18 68.77 226.38 71.16 
M 227.07 72.54 227.36 73.12 
M 228.19 66.75 229.03 68.43 
M 229.84 54.02 231.83 58 
M 231.88 50.07 237.86 62.03 
M 235.74 49.78 241.72 61.74 
M 239.18 48.62 244.36 58.98 
M 248.38 67.03 248.81 67.9 
M 242.25 46.74 245.83 53.92 
M 251.41 65.08 252.87 68 
M 254.17 62.57 254.97 64.17 
M 255.77 65.76 256.92 68.07 
M 251.7 49.6 254.09 54.38 
M 251.68 41.54 258.85 55.89 
M 254.76 39.68 260.74 51.64 
M 258.33 38.81 264.71 51.56 
M 263.66 41.43 266.85 47.81 
M 272.34 50.78 277.12 60.34 
M 273.95 45.97 274.75 47.57 
M 275.54 49.16 281.12 60.32 
M 284.31 66.7 285.31 68.7 
M 271.18 32.42 275.17 40.39 
M 276.76 43.58 283.94 57.93 
M 287.92 65.9 288.72 67.5 
M 289.38 68.82 289.64 69.34 
M 275.28 32.58 279.66 41.35 
M 281.26 44.54 282.85 47.73 
M 283.65 49.33 286.04 54.11 
M 280.69 35.38 282.68 39.37 
M 285.76 37.51 286.16 38.31 
M 297.98 53.92 302.76 63.48 
M 296.99 43.92 298.58 47.11 
M 299.38 48.71 300.18 50.3 
M 300.98 51.9 305.76 61.46 
M 308.95 67.84 311.83 73.6 
M 299.14 40.2 303.92 49.77 
M 305.52 52.96 308.71 59.34 
M 312.69 67.31 316.55 75.02 
M 301.96 37.83 306.75 47.4 
M 315.52 64.93 317.11 68.12 
M 317.91 69.72 320.3 74.5 
M 307.49 40.87 308.29 42.46 
M 325.91 77.7 326.39 78.66 
M 314.42 46.7 317.61 53.08 
M 324.78 67.43 325.58 69.02 
M 328.77 75.4 331.9 81.67 
M 316.43 42.7 322.01 53.86 
M 325.2 60.24 329.99 69.81 
M 332.47 74.78 332.97 75.78 
M 328.35 58.52 332.99 67.79 
"/></svg>