<svg xmlns="http://www.w3.org/2000/svg" width="520" height="320"><rect x="0" y="0" width="520" height="320" fill="floralwhite"/><rect x="10" y="10" width="500" height="300" stroke="black" stroke-width="1" fill="none"/><path stroke="black" stroke-width="1" fill="none" stroke-linecap="round" stroke-linejoin="round" d="
M 123.36 127.94 133.26 124.38 143.14 121.18 153.03 118.26 172.79 112.91 182.67 110.75 192.55 109.16 202.44 107.96 232.08 107.38 241.96 108.42 251.85 110.47 261.73 113.01 291.37 121.35 301.26 124.46 330.9 135.24 361.45 145.69 
M 361.45 198.54 340.78 207.21 330.9 211.18 321.02 214.82 311.14 218.26 301.26 221.25 281.49 226.78 271.61 228.82 251.85 232.19 241.96 233.03 232.08 233.6 222.2 233.36 202.44 233.55 192.55 232.42 182.67 230.56 172.79 228.4 162.91 226.01 153.03 223.93 143.14 221.47 133.26 218.33 113.53 210.9 
M 125.69 201.59 126.56 201.25 127.67 200.39 128.38 199.42 128.38 198.82 127.67 197.85 126.56 196.99 125.69 196.65 
M 127.5 140.89 128.05 139.97 128.66 138.21 128.66 137.12 128.05 135.36 127.11 133.8 126.37 133.2 
M 126.34 135.05 126.95 134.46 127.8 132.77 128.35 130.85 128.35 129.67 127.8 127.76 127.19 126.56 
M 131.91 148.66 132.52 148.11 133.3 146.7 133.81 145.1 133.81 144.12 133.3 142.52 132.52 141.12 131.91 140.57 
M 134.21 159.19 134.81 158.75 135.58 157.61 136.08 156.32 136.08 155.53 135.58 154.24 134.81 153.1 134.21 152.66 
M 134.85 206.67 135.55 206.34 136.46 205.52 137.04 204.58 137.04 204 136.46 203.06 135.55 202.24 134.85 201.91 
M 126.43 127.8 127.38 127.19 128.15 126.21 
M 132.22 141.9 133.03 141.32 134.07 139.83 134.74 138.14 134.74 137.1 134.07 135.41 133.03 133.92 132.22 133.34 
M 136.74 210.43 137.65 210.11 138.81 209.27 139.56 208.32 139.56 207.73 138.81 206.78 137.65 205.94 136.74 205.62 
M 132.99 135.51 133.77 134.91 134.78 133.38 135.42 131.64 135.42 130.56 134.78 128.82 133.77 127.29 132.99 126.69 
M 134.25 129.31 135.32 128.76 136.7 127.36 137.58 125.78 137.58 124.8 136.72 123.26 
M 138.74 142.15 139.61 141.63 140.73 140.27 141.45 138.74 141.45 137.79 140.73 136.25 139.61 134.9 138.74 134.37 
M 141.7 153.48 142.47 153.02 143.45 151.83 144.08 150.48 144.08 149.65 143.45 148.31 142.47 147.12 141.7 146.66 
M 144.75 159.06 143.74 157.83 143.01 157.4 
M 145.4 216.96 144.64 216.01 143.38 215.12 142.4 214.77 
M 136.35 124.01 137.35 123.51 138.03 122.83 
M 145.5 158.53 146.12 158.1 146.91 157.02 147.43 155.8 147.43 155.04 146.91 153.82 146.12 152.73 145.5 152.31 
M 147.35 207.76 148.01 207.39 148.86 206.43 149.41 205.36 149.41 204.69 148.86 203.61 148.01 202.66 147.35 202.29 
M 142.27 131.02 143.3 130.53 144.61 129.3 145.45 127.9 145.45 127.03 144.61 125.63 143.3 124.39 142.27 123.91 
M 150.37 158.92 149.3 157.56 148.58 157.15 
M 144.73 126.18 145.59 125.73 146.69 124.58 147.4 123.27 147.4 122.47 146.69 121.16 145.92 120.36 
M 147.57 137.35 148.31 136.89 149.25 135.71 149.86 134.37 149.86 133.54 149.25 132.19 148.31 131.01 147.57 130.55 
M 149.91 148.18 150.55 147.74 151.38 146.61 151.91 145.34 151.91 144.55 151.38 143.27 150.55 142.15 149.91 141.71 
M 151.17 158.18 151.77 157.77 152.54 156.73 153.04 155.55 153.04 154.82 152.54 153.64 151.77 152.6 151.17 152.2 
M 153.54 198.59 154.18 198.19 154.99 197.16 155.52 196 155.41 195.05 
M 147.04 121.46 148.04 121.04 149.33 119.97 149.86 119.2 
M 149.48 132.05 150.39 131.61 151.55 130.48 152.31 129.2 152.31 128.4 151.55 127.12 150.39 125.99 149.48 125.55 
M 153.33 152.96 154.06 152.55 155 151.49 155.6 150.28 155.6 149.54 155 148.34 154.06 147.28 153.33 146.86 
M 155.88 158.77 155.58 158.16 154.69 157.13 154 156.73 
M 156.26 212.72 157.05 212.34 158.07 211.36 158.72 210.26 158.72 209.57 158.07 208.46 157.05 207.49 156.26 207.11 
M 151.71 127.09 152.47 126.67 153.44 125.59 154.07 124.36 154.07 123.6 153.44 122.37 152.47 121.29 151.71 120.87 
M 153.9 137.58 154.58 137.15 155.45 136.04 156 134.79 156 134.01 155.45 132.76 154.58 131.65 153.9 131.22 
M 155.67 147.88 156.28 147.46 157.06 146.39 157.56 145.18 157.56 144.43 157.06 143.22 156.28 142.15 155.67 141.73 
M 154.1 122.56 155.02 122.15 156.2 121.12 156.96 119.94 156.96 119.21 156.2 118.03 155.67 117.56 
M 157.66 142.56 158.42 142.15 159.4 141.1 160.02 139.91 160.02 139.17 159.4 137.98 158.42 136.93 157.66 136.51 
M 161.21 158.63 160.66 157.43 159.81 156.42 159.14 156.02 
M 162.31 203.37 163.08 202.97 164.06 201.94 164.7 200.78 164.7 200.06 164.06 198.9 163.08 197.87 162.31 197.47 
M 162.22 212.81 162.99 212.43 163.98 211.44 164.62 210.33 164.62 209.64 163.98 208.52 162.99 207.54 162.22 207.15 
M 156.58 118.23 157.34 117.83 158.22 116.89 
M 158.56 127.91 159.31 127.51 160.26 126.48 160.88 125.32 160.88 124.6 160.26 123.44 159.31 122.41 158.56 122.01 
M 160.01 137.55 160.67 137.15 161.52 136.13 162.06 134.98 162.06 134.26 161.52 133.11 160.67 132.09 160.01 131.69 
M 161.08 147.22 161.66 146.83 162.41 145.82 162.9 144.67 162.9 143.96 162.41 142.82 161.66 141.81 161.08 141.41 
M 160.96 123.54 161.85 123.13 162.99 122.09 163.72 120.92 163.72 120.19 162.99 119.02 161.85 117.98 160.96 117.58 
M 162.49 132.9 163.32 132.51 164.4 131.52 165.09 130.4 165.09 129.7 164.4 128.58 163.32 127.59 162.49 127.2 
M 166.06 158.51 166.15 157.62 165.6 156.49 164.75 155.5 164.09 155.11 
M 168.19 203.37 168.96 202.97 169.94 201.94 170.57 200.77 170.57 200.05 169.94 198.88 168.96 197.84 168.19 197.44 
M 163.37 119.33 164.1 118.9 165.04 117.8 165.65 116.55 165.65 115.78 165.27 115 
M 165.32 128.67 166.05 128.29 166.98 127.31 167.58 126.19 167.58 125.5 166.98 124.39 166.05 123.41 165.32 123.02 
M 166.06 137.47 166.72 137.1 167.56 136.17 168.11 135.11 168.11 134.45 167.56 133.39 166.72 132.46 166.06 132.09 
M 166.38 146.45 166.97 146.08 167.74 145.12 168.23 144.05 168.23 143.38 167.74 142.3 166.97 141.35 166.38 140.98 
M 166.68 155.72 167.25 155.35 167.98 154.39 168.45 153.32 168.45 152.65 167.98 151.57 167.25 150.62 166.68 150.25 
M 171.23 198.72 171.87 198.3 172.69 197.24 173.23 196.03 173.23 195.28 172.93 194.6 
M 168.84 133.22 169.67 132.85 170.73 131.92 171.41 130.85 171.41 130.19 170.73 129.13 169.67 128.19 168.84 127.82 
M 169.14 141.86 169.91 141.51 170.9 140.59 171.54 139.54 171.54 138.9 170.9 137.86 169.91 136.94 169.14 136.58 
M 169.27 150.83 170 150.46 170.94 149.53 171.54 148.47 171.54 147.81 170.94 146.75 170 145.81 169.27 145.45 
M 174.07 203.37 174.84 202.97 175.82 201.93 176.46 200.76 176.46 200.03 175.82 198.85 174.84 197.82 174.07 197.41 
M 174.01 212.86 174.79 212.47 175.78 211.47 176.41 210.34 176.41 209.64 175.78 208.51 174.79 207.51 174.01 207.12 
M 169.95 120.12 170.67 119.68 171.58 118.54 172.17 117.26 172.17 116.47 171.58 115.18 170.67 114.05 170.05 113.67 
M 171.84 129.23 172.54 128.86 173.44 127.9 174.02 126.82 174.02 126.15 173.44 125.07 172.54 124.11 171.84 123.74 
M 172.14 137.52 172.81 137.17 173.68 136.29 174.24 135.29 174.24 134.67 173.68 133.66 172.81 132.78 172.14 132.44 
M 172.04 155.12 172.67 154.75 173.47 153.82 173.99 152.77 173.99 152.11 173.47 151.06 172.67 150.13 172.04 149.76 
M 171.63 158.36 171.6 158.35 
M 176.9 208.01 177.55 207.62 178.37 206.61 178.9 205.47 178.9 204.77 178.37 203.63 177.55 202.63 176.9 202.24 
M 171.28 114.94 172.16 114.49 173.29 113.35 173.63 112.73 
M 174.11 124.93 174.97 124.53 176.07 123.49 176.78 122.32 176.78 121.59 176.07 120.42 174.97 119.39 174.11 118.98 
M 175.16 133.59 176 133.24 177.08 132.32 177.78 131.28 177.78 130.64 177.08 129.6 176 128.69 175.16 128.33 
M 175.22 141.98 176.05 141.63 177.13 140.74 177.82 139.73 177.82 139.1 177.13 138.08 176.05 137.19 175.22 136.84 
M 176.67 158.23 177.26 157.24 177.26 156.56 176.61 155.48 175.61 154.52 174.82 154.15 
M 176.48 120.69 177.21 120.26 178.15 119.15 178.76 117.9 178.76 117.13 178.15 115.87 177.21 114.76 176.48 114.33 
M 178.2 129.68 178.91 129.31 179.82 128.36 180.41 127.3 180.41 126.64 179.82 125.57 178.91 124.62 178.2 124.26 
M 178.46 137.95 179.19 137.61 180.11 136.73 180.71 135.73 180.71 135.11 180.11 134.11 179.19 133.23 178.46 132.89 
M 178.2 155.32 178.93 154.97 179.86 154.06 180.45 153.03 180.45 152.4 179.86 151.37 178.93 150.46 178.2 150.11 
M 183.01 198.78 183.65 198.36 184.47 197.27 185 196.04 185 195.27 184.71 194.61 
M 184.85 224.94 184.96 224.03 184.43 222.93 183.59 221.97 182.95 221.59 
M 178.16 115.83 179.1 115.4 180.3 114.29 181.07 113.04 181.07 112.26 180.44 111.24 
M 181.71 134.28 182.6 133.92 183.73 133 184.46 131.96 184.46 131.32 183.73 130.28 182.6 129.36 181.71 129 
M 181.9 142.81 182.81 142.46 183.99 141.56 184.74 140.54 184.74 139.91 183.99 138.88 182.81 137.98 181.9 137.63 
M 181.82 151.5 182.74 151.15 183.92 150.25 184.69 149.24 184.69 148.61 183.92 147.59 182.74 146.69 181.82 146.34 
M 183.63 158.05 183.88 157.69 183.88 157.05 183.16 156.01 182.04 155.09 181.17 154.73 
M 185.89 203.44 186.66 203.03 187.64 201.98 188.28 200.8 188.28 200.07 187.64 198.88 186.66 197.84 185.89 197.43 
M 185.88 212.97 186.65 212.57 187.64 211.57 188.28 210.43 188.28 209.73 187.64 208.59 186.65 207.59 185.88 207.2 
M 183.35 121.57 184.13 121.16 185.12 120.09 185.76 118.89 185.76 118.15 185.12 116.94 184.13 115.88 183.35 115.47 
M 184.85 130.45 185.6 130.08 186.55 129.14 187.16 128.07 187.16 127.41 186.55 126.35 185.6 125.4 184.85 125.04 
M 185.34 139.05 186.12 138.69 187.1 137.78 187.74 136.75 187.74 136.11 187.1 135.07 186.12 134.16 185.34 133.81 
M 185.28 156.41 186.08 156.08 187.1 155.21 187.76 154.23 187.76 153.62 187.1 152.64 186.08 151.78 185.28 151.44 
M 185.45 117.1 186.43 116.69 187.7 115.63 188.52 114.44 188.52 113.7 187.7 112.51 186.43 111.46 185.45 111.04 
M 187.63 126.56 188.56 126.18 189.75 125.19 190.51 124.07 190.51 123.38 189.75 122.26 188.56 121.27 187.63 120.89 
M 189.05 144.16 190 143.8 191.21 142.88 191.99 141.83 191.99 141.19 191.21 140.14 190 139.22 189.05 138.86 
M 189.08 152.87 190.04 152.52 191.27 151.64 192.06 150.63 192.06 150.01 191.27 149.01 190.04 148.12 189.08 147.77 
M 190.78 157.86 190.18 157.1 189 156.22 188.07 155.88 
M 187.82 112.89 188.69 112.49 189.82 111.45 190.54 110.27 190.51 109.49 
M 190.54 122.74 191.35 122.35 192.38 121.34 193.04 120.2 193.04 119.49 192.38 118.35 191.35 117.34 190.54 116.94 
M 191.77 131.48 192.54 131.12 193.52 130.18 194.16 129.12 194.16 128.46 193.52 127.4 192.54 126.47 191.77 126.1 
M 192.91 149.4 193.7 149.04 194.72 148.11 195.37 147.06 195.37 146.41 194.72 145.36 193.7 144.43 192.91 144.07 
M 192.72 157.81 193.43 157.52 194.45 156.68 195.11 155.72 195.11 155.13 194.45 154.18 193.43 153.33 192.64 153 
M 192.99 118.62 194 118.23 195.29 117.23 196.12 116.11 196.12 115.41 195.29 114.28 194 113.29 192.99 112.9 
M 194.75 127.72 195.69 127.35 196.9 126.4 197.68 125.32 197.68 124.65 196.9 123.57 195.69 122.61 194.75 122.24 
M 195.62 136.48 196.53 136.11 197.7 135.18 198.46 134.13 198.46 133.47 197.7 132.42 196.53 131.49 195.62 131.13 
M 197.29 193.61 198.08 193.17 198.52 192.67 
M 195.71 114.75 196.59 114.37 197.71 113.4 198.44 112.29 198.44 111.61 197.71 110.51 196.59 109.53 195.71 109.15 
M 199.43 141.46 200.17 141.1 201.12 140.16 201.73 139.11 201.73 138.45 201.12 137.39 200.17 136.46 199.43 136.09 
M 199.87 150.51 200.6 150.14 201.53 149.21 202.13 148.16 202.13 147.51 201.53 146.45 200.6 145.52 199.87 145.16 
M 201.54 157.58 201.97 156.9 201.97 156.3 201.36 155.33 200.42 154.48 199.68 154.14 
M 198.63 111.15 199.7 110.81 201.08 109.94 201.97 108.95 201.97 108.34 201.71 108.05 
M 200.53 120.12 201.51 119.75 202.77 118.82 203.59 117.76 203.59 117.11 202.77 116.05 201.51 115.12 200.53 114.75 
M 201.84 128.82 202.76 128.47 203.93 127.55 204.68 126.52 204.68 125.88 203.93 124.85 202.76 123.94 201.84 123.58 
M 202.46 137.38 203.33 137.02 204.45 136.11 205.17 135.09 205.17 134.45 204.45 133.42 203.33 132.51 202.46 132.16 
M 202.85 146.22 203.7 145.86 204.78 144.94 205.47 143.89 205.47 143.24 204.78 142.2 203.7 141.27 202.85 140.91 
M 202.95 155.03 203.78 154.68 204.85 153.78 205.54 152.76 205.54 152.13 204.85 151.11 203.78 150.21 202.95 149.86 
M 203.32 193.59 204.11 193.17 205.11 192.1 205.76 190.87 205.76 190.16 
M 203.33 203.12 204.09 202.72 205.06 201.7 205.68 200.55 205.68 199.84 205.06 198.69 204.09 197.67 203.33 197.27 
M 203.47 116.46 204.32 116.11 205.4 115.2 206.09 114.18 206.09 113.55 205.4 112.52 204.32 111.62 203.47 111.27 
M 205.03 125.19 205.79 124.84 206.77 123.94 207.4 122.92 207.4 122.29 206.77 121.27 205.79 120.37 205.03 120.02 
M 205.95 142.02 206.63 141.66 207.51 140.76 208.08 139.73 208.08 139.1 207.51 138.07 206.63 137.17 205.95 136.82 
M 208.14 157.41 208.14 156.8 207.59 155.79 206.74 154.9 206.07 154.55 
M 206.18 207.89 206.82 207.49 207.64 206.47 208.16 205.31 208.16 204.59 207.64 203.43 206.82 202.4 206.18 202 
M 206.48 112.98 207.51 112.67 208.81 111.86 209.65 110.94 209.65 110.37 208.81 109.45 207.51 108.64 206.48 108.32 
M 207.77 121.31 208.7 120.97 209.89 120.1 210.66 119.12 210.66 118.51 209.89 117.53 208.7 116.67 207.77 116.33 
M 208.62 129.59 209.48 129.26 210.59 128.39 211.31 127.41 211.31 126.8 210.59 125.82 209.48 124.95 208.62 124.62 
M 208.92 137.86 209.74 137.52 210.8 136.65 211.48 135.66 211.48 135.05 210.8 134.05 209.74 133.18 208.92 132.84 
M 209.02 155.26 209.79 154.9 210.78 153.99 211.42 152.95 211.42 152.31 210.78 151.28 209.79 150.37 209.02 150.01 
M 209.29 193.54 210.07 193.14 211.06 192.11 211.7 190.94 211.7 190.21 210.7 188.66 
M 209.82 109.88 210.68 109.6 211.77 108.86 212.48 108.03 212.48 107.71 
M 210.84 117.74 211.62 117.42 212.63 116.59 213.27 115.66 213.27 115.08 212.63 114.15 211.62 113.32 210.84 113 
M 211.74 125.86 212.45 125.53 213.37 124.69 213.95 123.73 213.95 123.14 213.37 122.19 212.45 121.34 211.74 121.02 
M 212.06 133.89 212.75 133.56 213.63 132.71 214.19 131.76 214.19 131.17 213.63 130.21 212.75 129.36 212.06 129.03 
M 211.94 150.74 212.56 150.38 213.35 149.47 213.86 148.44 213.86 147.8 213.35 146.77 212.56 145.86 211.94 145.5 
M 212.43 188.92 213.18 188.39 
M 213.85 114.33 214.78 114.03 215.98 113.28 216.75 112.42 216.75 111.89 215.98 111.04 214.78 110.28 213.85 109.98 
M 214.57 122.08 215.44 121.76 216.55 120.95 217.27 120.03 217.27 119.46 216.55 118.55 215.44 117.74 214.57 117.42 
M 215.03 130.02 215.85 129.69 216.9 128.86 217.58 127.92 217.58 127.34 216.9 126.4 215.85 125.57 215.03 125.25 
M 215.08 138.05 215.88 137.72 216.9 136.88 217.55 135.92 217.55 135.33 216.9 134.37 215.88 133.53 215.08 133.2 
M 214.75 155.12 215.5 154.76 216.47 153.84 217.09 152.79 217.09 152.15 216.47 151.1 215.5 150.18 214.75 149.82 
M 217.1 111.19 217.86 110.92 218.83 110.22 219.46 109.43 219.46 108.94 218.83 108.15 218.13 107.65 
M 217.64 118.5 218.35 118.2 219.27 117.43 219.86 116.56 219.86 116.02 219.27 115.15 218.35 114.38 217.64 114.08 
M 218.08 126.21 218.76 125.9 219.62 125.09 220.18 124.18 220.18 123.61 219.62 122.7 218.76 121.89 218.08 121.58 
M 218.22 134.11 218.88 133.78 219.73 132.96 220.28 132.03 220.28 131.45 219.73 130.51 218.88 129.69 218.22 129.37 
M 219.57 157.11 219.57 156.52 219.05 155.44 218.24 154.48 217.61 154.1 
M 218.01 198.16 218.65 197.77 219.47 196.77 220 195.64 220 194.95 219.47 193.82 218.65 192.82 218.01 192.44 
M 218.04 207.97 218.69 207.57 219.52 206.55 220.05 205.39 220.05 204.67 219.52 203.51 218.69 202.48 218.04 202.08 
M 218.47 227.08 218.96 226.79 219.79 225.83 220.32 224.74 220.32 224.06 219.79 222.97 218.96 222.01 218.32 221.63 
M 220.24 108.28 221.12 108.03 221.84 107.62 
M 220.58 115.08 221.43 114.8 222.52 114.08 223.23 113.26 223.23 112.76 222.52 111.94 221.43 111.22 220.58 110.93 
M 220.96 122.49 221.77 122.18 222.82 121.4 223.49 120.52 223.49 119.98 222.82 119.1 221.77 118.32 220.96 118.02 
M 221.17 130.23 221.97 129.91 222.98 129.1 223.64 128.18 223.64 127.61 222.98 126.69 221.97 125.88 221.17 125.57 
M 221.12 138.16 221.9 137.84 222.91 137.01 223.55 136.07 223.55 135.48 222.91 134.54 221.9 133.71 221.12 133.39 
M 220.75 146.29 221.53 145.95 222.52 145.08 223.16 144.1 223.16 143.5 222.52 142.51 221.53 141.65 220.75 141.31 
M 220.98 203.08 221.76 202.69 222.76 201.67 223.4 200.53 223.4 199.82 222.76 198.68 221.76 197.67 220.98 197.27 
M 223.63 111.79 224.32 111.53 225.21 110.85 225.78 110.08 225.78 109.6 225.21 108.84 224.32 108.16 223.63 107.89 
M 224.17 126.37 224.83 126.06 225.66 125.27 226.21 124.38 226.21 123.82 225.66 122.93 224.83 122.14 224.17 121.83 
M 224.02 142.23 224.67 141.9 225.51 141.07 226.05 140.12 226.05 139.53 225.51 138.58 224.67 137.75 224.02 137.42 
M 223.46 150.42 224.11 150.07 224.95 149.18 225.49 148.17 225.49 147.54 224.95 146.53 224.11 145.64 223.46 145.29 
M 226.63 108.77 227.45 108.52 228.5 107.89 228.9 107.46 
M 226.84 115.42 227.65 115.15 228.68 114.44 229.34 113.64 229.34 113.15 228.68 112.35 227.65 111.64 226.84 111.37 
M 227.06 122.66 227.85 122.36 228.86 121.6 229.51 120.73 229.51 120.2 228.86 119.34 227.85 118.57 227.06 118.28 
M 227.17 130.31 227.94 129.99 228.94 129.19 229.58 128.28 229.58 127.72 228.94 126.8 227.94 126 227.17 125.69 
M 226.77 146.42 227.55 146.08 228.55 145.21 229.2 144.23 229.2 143.62 228.55 142.63 227.55 141.77 226.77 141.43 
M 226.56 155.17 227.35 154.81 228.36 153.87 229.01 152.82 229.01 152.16 228.36 151.11 227.35 150.18 226.56 149.81 
M 227.06 193.55 227.83 193.16 228.83 192.16 229.47 191.02 229.47 190.32 228.83 189.18 227.83 188.18 227.06 187.79 
M 226.96 203.17 227.74 202.77 228.75 201.76 229.39 200.61 229.39 199.9 228.75 198.76 227.74 197.75 226.96 197.35 
M 227.09 212.96 227.86 212.56 228.86 211.55 229.5 210.4 229.5 209.69 228.86 208.54 227.86 207.53 227.09 207.13 
M 229.8 112.05 230.47 111.79 231.31 111.12 231.86 110.36 231.86 109.9 231.31 109.14 230.47 108.47 229.8 108.21 
M 230 118.99 230.65 118.71 231.49 117.97 232.03 117.14 232.03 116.63 231.49 115.8 230.65 115.07 230 114.78 
M 230.12 126.41 230.77 126.11 231.59 125.32 232.12 124.44 232.12 123.89 231.59 123 230.77 122.22 230.12 121.91 
M 230.02 142.36 230.66 142.03 231.49 141.19 232.03 140.23 232.03 139.63 231.49 138.67 230.66 137.83 230.02 137.5 
M 231.73 156.79 231.19 155.7 230.33 154.73 229.67 154.35 
M 232.75 108.99 233.53 108.74 234.54 108.11 234.94 107.68 
M 232.89 115.56 233.67 115.28 234.67 114.59 235.32 113.8 235.32 113.31 234.67 112.52 233.67 111.82 232.89 111.55 
M 233.02 122.71 233.79 122.41 234.78 121.66 235.42 120.8 235.42 120.27 234.78 119.42 233.79 118.66 233.02 118.37 
M 233.08 130.33 233.85 130.01 234.83 129.21 235.47 128.3 235.47 127.74 234.83 126.83 233.85 126.03 233.08 125.72 
M 233.03 138.31 233.8 137.98 234.78 137.15 235.42 136.2 235.42 135.61 234.78 134.67 233.8 133.83 233.03 133.5 
M 232.77 146.56 233.55 146.22 234.54 145.34 235.19 144.35 235.19 143.73 234.54 142.74 233.55 141.86 232.77 141.52 
M 232.65 155.39 233.44 155.03 234.45 154.09 235.1 153.03 235.1 152.37 234.45 151.3 233.44 150.37 232.65 150 
M 233.06 184.01 233.82 183.61 234.7 182.72 
M 233.08 222.53 233.85 222.15 234.83 221.16 235.47 220.04 235.47 219.35 234.83 218.23 233.85 217.24 233.08 216.86 
M 235.82 112.16 236.46 111.9 237.29 111.24 237.82 110.49 237.82 110.02 237.29 109.27 236.46 108.61 235.82 108.35 
M 235.94 119.02 236.58 118.74 237.4 118.01 237.93 117.19 237.93 116.68 237.4 115.86 236.58 115.13 235.94 114.85 
M 236.02 126.41 236.66 126.1 237.48 125.32 238 124.44 238 123.89 237.48 123.01 236.66 122.23 236.02 121.93 
M 236.03 134.24 236.67 133.92 237.49 133.1 238.02 132.16 238.02 131.59 237.49 130.65 236.67 129.83 236.03 129.51 
M 235.58 150.81 236.23 150.46 237.05 149.55 237.59 148.52 237.59 147.88 237.05 146.85 236.23 145.94 235.58 145.59 
M 238.69 109.05 239.46 108.8 240.32 108.24 
M 238.81 115.57 239.57 115.3 240.54 114.61 241.17 113.82 241.17 113.33 240.54 112.55 239.57 111.85 238.81 111.58 
M 238.9 138.29 239.66 137.96 240.63 137.13 241.25 136.18 241.25 135.59 240.63 134.64 239.66 133.8 238.9 133.48 
M 238.68 146.59 239.44 146.25 240.41 145.36 241.04 144.36 241.04 143.74 240.41 142.74 239.44 141.86 238.68 141.51 
M 238.95 193.69 239.72 193.3 240.7 192.28 241.34 191.14 241.34 190.43 240.7 189.28 239.72 188.26 238.95 187.87 
M 238.95 203.38 239.72 202.98 240.71 201.97 241.34 200.83 241.34 200.12 240.71 198.98 239.72 197.97 238.95 197.57 
M 241.68 112.13 242.31 111.87 243.11 111.21 243.63 110.46 243.63 110 243.11 109.25 241.88 108.41 
M 241.79 118.97 242.41 118.69 243.22 117.97 243.73 117.14 243.73 116.64 243.22 115.81 242.41 115.09 241.79 114.8 
M 241.87 126.37 242.5 126.06 243.3 125.28 243.82 124.4 243.82 123.85 243.3 122.97 242.5 122.19 241.87 121.88 
M 241.89 134.21 242.52 133.89 243.33 133.06 243.85 132.13 243.85 131.56 243.33 130.63 242.52 129.8 241.89 129.48 
M 241.74 142.32 242.36 141.99 243.16 141.13 243.68 140.17 243.68 139.57 243.16 138.6 242.36 137.75 241.74 137.41 
M 243.48 156.49 242.43 155.07 241.78 154.69 
M 241.88 208.2 242.51 207.8 243.32 206.79 243.84 205.65 243.84 204.95 243.32 203.8 242.51 202.8 241.88 202.4 
M 244.57 115.44 245.31 115.17 246.25 114.47 246.86 113.69 246.86 113.2 246.25 112.41 245.31 111.72 244.57 111.45 
M 244.68 122.58 245.41 122.28 246.35 121.53 246.96 120.67 246.96 120.14 246.35 119.29 245.41 118.53 244.68 118.24 
M 244.66 138.16 245.4 137.84 246.35 137 246.95 136.05 246.95 135.46 246.35 134.52 245.4 133.68 244.66 133.35 
M 244.54 155.54 245.31 155.17 246.3 154.22 246.93 153.14 246.93 152.47 246.3 151.4 245.31 150.45 244.54 150.08 
M 244.78 212.93 245.54 212.54 246.51 211.54 247.14 210.41 247.14 209.71 246.51 208.58 245.54 207.58 244.78 207.19 
M 247.34 111.9 247.94 111.64 248.72 110.97 249.22 110.22 249.22 109.93 
M 247.46 118.76 248.07 118.48 248.83 117.75 249.33 116.93 249.33 116.42 248.83 115.59 248.07 114.86 247.46 114.58 
M 247.58 126.19 248.18 125.89 248.94 125.1 249.43 124.22 249.43 123.67 248.94 122.78 248.18 122 247.58 121.69 
M 247.4 142.09 248.01 141.76 248.79 140.9 249.29 139.94 249.29 139.34 248.79 138.37 248.01 137.51 247.4 137.18 
M 247.21 150.73 247.85 150.36 248.67 149.43 249.2 148.37 249.2 147.72 248.67 146.66 247.85 145.73 247.21 145.36 
M 250.11 115.07 250.82 114.8 251.73 114.11 252.32 113.33 252.32 112.84 251.73 112.06 250.82 111.37 250.11 111.1 
M 250.15 122.14 250.84 121.85 251.73 121.1 252.3 120.25 252.3 119.72 251.73 118.87 250.84 118.12 250.15 117.83 
M 250.19 129.76 250.87 129.44 251.74 128.64 252.3 127.73 252.3 127.17 251.74 126.26 250.87 125.46 250.19 125.14 
M 250.18 137.82 250.88 137.49 251.77 136.64 252.35 135.67 252.35 135.07 251.77 134.11 250.88 133.26 250.18 132.92 
M 250.18 146.39 250.93 146.03 251.89 145.12 252.51 144.09 252.51 143.45 251.89 142.41 250.93 141.5 250.18 141.15 
M 250.35 183.68 251.09 183.28 252.03 182.25 252.64 181.09 252.64 180.38 252.03 179.22 251.09 178.2 250.35 177.8 
M 252.81 111.45 253.7 110.95 
M 252.77 125.45 253.3 125.15 253.99 124.37 254.43 123.49 254.43 122.95 253.99 122.07 253.3 121.3 252.77 120.99 
M 252.8 133.35 253.34 133.03 254.02 132.19 254.46 131.25 254.46 130.66 254.02 129.72 253.34 128.88 252.8 128.56 
M 252.88 141.8 253.48 141.45 254.24 140.55 254.73 139.53 254.73 138.9 254.24 137.89 253.48 136.99 252.88 136.64 
M 255.15 156.18 254.33 155.23 253.69 154.85 
M 253.7 198.57 254.34 198.18 255.16 197.16 255.69 196 255.69 195.29 255.16 194.14 254.34 193.12 253.7 192.72 
M 255.42 114.41 256.12 114.15 257.01 113.48 257.59 112.73 257.59 112.26 257.29 111.87 
M 255.12 121.12 255.77 120.83 256.6 120.11 257.14 119.3 257.14 118.79 256.6 117.98 255.77 117.26 255.12 116.98 
M 254.93 128.6 255.55 128.28 256.34 127.47 256.85 126.56 256.85 125.99 256.34 125.07 255.55 124.26 254.93 123.94 
M 255.25 137.15 255.92 136.8 256.77 135.89 257.32 134.86 257.32 134.22 256.77 133.19 255.92 132.28 255.25 131.92 
M 255.95 146.42 256.71 146.04 257.67 145.08 258.3 143.98 258.3 143.31 257.67 142.21 256.71 141.25 255.95 140.87 
M 256.42 193.58 257.16 193.17 258.11 192.12 258.72 190.94 258.72 190.2 258.11 189.01 257.16 187.97 256.42 187.56 
M 256.54 212.89 257.32 212.5 258.31 211.51 258.94 210.39 258.94 209.7 258.31 208.58 257.32 207.59 256.54 207.2 
M 257.81 117.1 258.37 116.84 259.08 116.18 259.55 115.44 259.55 114.98 259.08 114.23 258.37 113.57 257.81 113.32 
M 257.11 123.76 257.62 123.47 258.26 122.74 258.67 121.9 258.67 121.39 258.26 120.55 257.62 119.82 257.11 119.53 
M 257.04 131.84 257.53 131.49 258.16 130.59 258.57 129.58 258.57 128.95 258.16 127.94 257.53 127.04 257.04 126.69 
M 259.42 151.32 260.09 150.93 260.94 149.95 261.49 148.83 261.49 148.13 260.94 147.02 260.09 146.03 259.42 145.64 
M 258.97 188.41 259.56 187.99 260.33 186.92 260.82 185.7 260.82 184.94 260.33 183.73 259.56 182.65 258.97 182.23 
M 260.71 113.68 261.94 113.08 
M 259.82 119.76 260.49 119.5 261.34 118.82 261.89 118.06 261.89 117.59 261.34 116.83 260.49 116.16 259.82 115.9 
M 259.2 126.98 259.83 126.66 260.64 125.84 261.16 124.9 261.16 124.32 260.64 123.39 259.83 122.57 259.2 122.25 
M 260.08 136.33 260.76 135.94 261.63 134.94 262.19 133.81 262.19 133.1 261.63 131.97 260.76 130.97 260.08 130.58 
M 261.74 146.5 262.5 146.1 263.47 145.07 264.1 143.9 264.1 143.18 263.47 142.01 262.5 140.98 261.74 140.58 
M 262.93 116.14 263.52 115.91 264.29 115.31 264.78 114.63 264.78 114.21 264.5 113.82 
M 261.43 122.03 261.99 121.76 262.71 121.07 263.17 120.28 263.17 119.8 262.71 119.01 261.99 118.32 261.43 118.05 
M 261.2 130.29 261.75 129.91 262.46 128.94 262.92 127.84 262.92 127.16 262.46 126.06 261.75 125.09 261.2 124.71 
M 263.8 141.58 264.42 141.14 265.22 140.01 265.73 138.73 265.73 137.95 265.22 136.67 264.42 135.54 263.8 135.1 
M 265.46 151.5 266.11 151.11 266.94 150.11 267.47 148.98 267.47 148.28 266.94 147.15 266.11 146.15 265.46 145.76 
M 266.51 155.89 265.83 155.12 265.2 154.77 
M 264.42 187.98 265.03 187.56 265.81 186.48 266.32 185.25 266.32 184.49 265.81 183.26 265.03 182.18 264.42 181.76 
M 265.15 198.38 265.77 197.96 266.57 196.89 267.08 195.68 267.08 194.93 266.57 193.72 265.77 192.65 265.15 192.24 
M 265.46 208.26 266.1 207.86 266.92 206.84 267.45 205.68 267.45 204.96 266.92 203.81 266.1 202.79 265.46 202.39 
M 265.04 119 265.8 118.75 266.77 118.1 267.39 117.37 267.39 116.92 266.77 116.19 265.8 115.54 265.04 115.29 
M 264.16 126.06 264.92 125.74 265.9 124.9 266.53 123.96 266.53 123.37 265.9 122.43 264.92 121.59 264.16 121.27 
M 265.39 135.89 266.16 135.48 267.15 134.43 267.78 133.23 267.78 132.49 267.15 131.3 266.16 130.24 265.39 129.83 
M 267.57 146.55 268.35 146.13 269.34 145.06 269.98 143.86 269.98 143.11 269.34 141.9 268.35 140.84 267.57 140.42 
M 268.26 155.68 269.03 155.31 270.02 154.37 270.65 153.3 270.65 152.64 270.02 151.57 269.03 150.63 268.26 150.26 
M 268.7 116 269.89 115.38 
M 267.12 121.82 267.83 121.55 268.74 120.86 269.32 120.08 269.32 119.6 268.74 118.81 267.83 118.12 267.12 117.85 
M 266.88 130.11 267.6 129.73 268.53 128.74 269.13 127.63 269.13 126.94 268.53 125.83 267.6 124.84 266.88 124.46 
M 269.68 141.6 270.34 141.15 271.2 140.01 271.75 138.72 271.75 137.92 271.2 136.63 270.34 135.49 269.68 135.04 
M 271.36 151.51 272 151.12 272.82 150.12 273.35 148.99 273.35 148.3 272.82 147.17 272 146.17 271.36 145.78 
M 270.1 168.18 270.76 167.83 271.61 166.92 271.92 166.32 
M 269.64 177.46 270.31 177.06 271.16 176.06 271.71 174.92 271.71 174.22 271.16 173.08 270.31 172.07 269.64 171.68 
M 270.23 187.9 270.88 187.48 271.71 186.4 272.24 185.17 272.24 184.41 271.71 183.19 270.88 182.11 270.23 181.69 
M 271.28 119.43 272.14 119.17 273.25 118.5 273.96 117.73 273.96 117.26 272.77 116.21 
M 270.67 126.71 271.6 126.38 272.79 125.54 273.56 124.6 273.56 124.01 272.79 123.06 271.6 122.23 270.67 121.9 
M 271.74 136.27 272.62 135.87 273.75 134.85 274.48 133.69 274.48 132.97 273.75 131.81 272.62 130.79 271.74 130.39 
M 273.59 146.59 274.38 146.18 275.4 145.15 276.06 143.97 276.06 143.24 275.4 142.07 274.38 141.03 273.59 140.63 
M 274.17 155.68 274.94 155.32 275.93 154.38 276.56 153.31 276.56 152.65 275.93 151.59 274.94 150.65 274.17 150.28 
M 273.06 182.83 273.86 182.43 274.89 181.4 275.56 180.23 275.56 179.5 274.89 178.33 273.86 177.3 273.06 176.9 
M 273.58 193.11 274.35 192.7 275.34 191.63 275.98 190.42 275.98 189.68 275.34 188.47 274.35 187.41 273.58 186.99 
M 274.34 123.33 275.16 123.04 276.21 122.3 276.88 121.46 276.88 120.93 276.21 120.09 275.16 119.35 274.34 119.06 
M 274.35 131.56 275.19 131.2 276.27 130.27 276.97 129.22 276.97 128.57 276.27 127.52 275.19 126.59 274.35 126.22 
M 277.24 151.43 277.88 151.05 278.7 150.08 279.23 148.98 279.23 148.29 278.7 147.19 277.88 146.22 277.24 145.84 
M 276.37 168.62 277.05 168.26 277.93 167.33 278.49 166.28 278.49 165.63 277.93 164.58 277.05 163.65 276.37 163.29 
M 276.32 188.01 276.99 187.6 277.84 186.55 278.38 185.36 278.38 184.63 277.84 183.44 276.99 182.39 276.32 181.98 
M 278.15 120.62 279.05 120.33 280.21 119.59 280.95 118.75 280.95 118.51 
M 280.51 155.52 281.86 154.41 282.5 153.35 282.5 152.7 281.86 151.64 280.87 150.7 280.1 150.33 
M 279.76 164.46 280.56 164.09 281.58 163.17 282.24 162.11 282.24 161.46 281.58 160.41 280.59 159.51 
M 279.86 203.13 280.61 202.72 281.56 201.68 282.18 200.5 282.18 199.77 281.56 198.59 280.61 197.55 279.86 197.15 
M 281.83 125.14 282.62 124.83 283.63 124.02 284.28 123.11 284.28 122.54 283.63 121.63 282.62 120.82 281.83 120.51 
M 282.03 133.22 282.82 132.88 283.85 132.01 284.51 131.02 284.51 130.41 283.85 129.43 282.82 128.56 282.03 128.22 
M 282.59 142.16 283.29 141.8 284.18 140.86 284.76 139.8 284.76 139.14 284.18 138.08 283.29 137.15 282.59 136.78 
M 283 160.13 283.65 159.76 284.48 158.84 285.01 157.79 285.01 157.21 
M 283.89 155.43 283 154.8 
M 282.52 178.52 283.21 178.14 284.09 177.15 284.65 176.04 284.65 175.35 284.09 174.23 283.21 173.25 282.52 172.87 
M 282.43 188.13 283.09 187.73 283.93 186.72 284.46 185.58 284.46 184.87 283.93 183.72 283.09 182.71 282.43 182.32 
M 282.57 198.03 283.19 197.63 283.98 196.59 284.49 195.42 284.49 194.69 283.98 193.52 283.19 192.48 282.57 192.08 
M 285.31 129.61 286.2 129.28 287.35 128.45 288.09 127.5 288.09 126.92 287.35 125.97 286.2 125.14 285.31 124.81 
M 285.56 137.95 286.42 137.61 287.52 136.72 288.23 135.72 288.23 135.1 287.52 134.1 286.42 133.21 285.56 132.86 
M 285.9 146.8 286.7 146.44 287.72 145.52 288.37 144.48 288.37 143.83 287.72 142.79 286.7 141.86 285.9 141.5 
M 286.79 155.36 287.77 154.43 288.41 153.38 288.41 152.72 287.77 151.67 286.79 150.74 286.02 150.38 
M 285.82 164.67 286.6 164.3 287.59 163.35 288.23 162.29 288.23 161.62 287.59 160.56 286.6 159.61 285.82 159.24 
M 285.51 202.84 286.23 202.44 287.16 201.41 287.76 200.25 287.76 199.53 287.16 198.36 286.23 197.34 285.51 196.93 
M 288.59 126.07 289.3 125.75 290.2 124.93 290.79 124 290.79 123.42 290.2 122.5 289.3 121.67 288.59 121.35 
M 288.77 134.01 289.47 133.68 290.36 132.83 290.94 131.88 290.94 131.29 290.36 130.33 289.47 129.49 288.77 129.16 
M 288.86 142.42 289.53 142.07 290.39 141.18 290.94 140.17 290.94 139.55 290.39 138.54 289.53 137.65 288.86 137.3 
M 288.9 160.15 289.53 159.78 290.34 158.85 290.87 157.79 290.87 157.14 290.01 155.69 
M 289.65 155.28 288.9 154.78 
M 288.71 169.29 289.35 168.91 290.16 167.95 290.69 166.86 290.69 166.18 290.16 165.09 289.35 164.13 288.71 163.75 
M 291.4 122.27 292.55 121.72 
M 291.84 138.28 292.64 137.95 293.67 137.09 294.33 136.11 294.33 135.5 293.67 134.53 292.64 133.66 291.84 133.33 
M 291.93 146.88 292.71 146.53 293.71 145.63 294.36 144.61 294.36 143.98 293.71 142.96 292.71 142.06 291.93 141.71 
M 291.53 173.91 292.28 173.54 293.25 172.57 293.87 171.47 293.87 170.79 293.25 169.7 292.28 168.73 291.53 168.35 
M 294.75 126.29 295.41 125.98 296.26 125.17 296.81 124.26 296.81 123.7 296.34 122.92 
M 294.88 142.53 295.53 142.18 296.36 141.3 296.9 140.3 296.9 139.69 296.36 138.69 295.53 137.81 294.88 137.46 
M 294.44 169.11 295.05 168.74 295.84 167.78 296.35 166.69 296.35 166.02 295.84 164.93 295.05 163.97 294.44 163.6 
M 294.34 178.52 294.95 178.14 295.73 177.17 296.23 176.07 296.23 175.39 295.73 174.3 294.95 173.33 294.34 172.95 
M 297.79 130.27 298.58 129.95 299.58 129.14 300.23 128.22 300.23 127.65 299.58 126.72 298.58 125.91 297.79 125.59 
M 297.83 138.37 298.61 138.04 299.61 137.18 300.25 136.21 300.25 135.61 299.61 134.64 298.61 133.78 297.83 133.45 
M 297.77 155.64 298.53 155.28 299.52 154.37 300.15 153.34 300.15 152.7 299.52 151.66 298.53 150.75 297.77 150.4 
M 297.16 173.61 297.88 173.23 298.8 172.28 299.4 171.2 299.4 170.53 298.8 169.44 297.88 168.49 297.16 168.12 
M 296.43 192.13 297.13 191.75 298.03 190.77 298.6 189.66 298.6 188.97 298.03 187.86 297.13 186.88 296.43 186.5 
M 300.77 126.36 301.42 126.06 302.47 124.91 
M 300.81 134.23 301.45 133.91 302.28 133.08 302.81 132.14 302.81 131.56 302.28 130.61 301.45 129.78 300.81 129.46 
M 300.8 142.54 301.44 142.2 302.26 141.32 302.79 140.33 302.79 139.71 302.26 138.72 301.44 137.84 300.8 137.5 
M 300.83 151.27 301.47 150.91 302.29 150.01 302.82 148.98 302.82 148.34 302.29 147.32 301.47 146.41 300.83 146.06 
M 300.06 168.77 300.66 168.4 301.44 167.47 301.94 166.41 301.94 165.76 301.44 164.7 300.66 163.76 300.06 163.4 
M 299.78 178.02 300.36 177.65 301.1 176.69 301.58 175.61 301.58 174.94 301.1 173.85 300.36 172.89 299.78 172.52 
M 299.32 187.18 299.9 186.81 300.65 185.85 301.13 184.76 301.13 184.09 300.65 183 299.9 182.04 299.32 181.66 
M 303.76 130.31 304.53 130 305.52 129.19 306.16 128.28 306.16 127.72 305.52 126.81 304.53 126.01 303.76 125.69 
M 303.76 138.39 304.53 138.06 305.52 137.21 306.15 136.24 306.15 135.64 305.52 134.68 304.53 133.82 303.76 133.49 
M 303.76 146.9 304.53 146.55 305.51 145.66 306.15 144.65 306.15 144.02 305.51 143.01 304.53 142.12 303.76 141.77 
M 303.67 155.63 304.44 155.28 305.43 154.37 306.06 153.35 306.06 152.71 305.43 151.69 304.44 150.79 303.67 150.43 
M 302.14 182.23 302.83 181.86 303.7 180.9 304.27 179.82 304.27 179.15 303.7 178.07 302.83 177.11 302.14 176.74 
M 306.73 134.25 307.37 133.93 308.19 133.1 308.72 132.17 308.72 131.59 308.19 130.65 307.37 129.82 306.73 129.5 
M 306.7 142.54 307.34 142.2 308.16 141.33 308.69 140.33 308.69 139.72 308.16 138.73 307.34 137.85 306.7 137.51 
M 306.71 151.25 307.35 150.9 308.17 149.99 308.7 148.96 308.7 148.32 308.17 147.29 307.35 146.38 306.71 146.03 
M 306.54 160 307.18 159.65 308 158.76 308.52 157.75 308.52 157.13 308 156.11 307.18 155.22 306.54 154.87 
M 309.66 130.32 310.42 130.01 311.4 129.2 311.97 128.38 
M 309.66 138.4 310.42 138.07 311.4 137.22 312.04 136.25 312.04 135.65 311.4 134.69 310.42 133.84 309.66 133.5 
M 309.66 146.91 310.43 146.56 311.41 145.67 312.04 144.66 312.04 144.03 311.41 143.03 310.43 142.13 309.66 141.79 
M 309.55 155.58 310.31 155.23 311.28 154.34 311.9 153.33 311.9 152.7 311.28 151.69 310.31 150.8 309.55 150.45 
M 308.81 163.89 309.53 163.55 310.45 162.67 311.05 161.68 311.05 161.06 310.45 160.07 309.53 159.19 308.81 158.85 
M 307.8 172.31 308.48 171.96 309.34 171.05 309.9 170.02 309.9 169.39 309.34 168.36 308.48 167.45 307.8 167.1 
M 306.78 190.66 307.44 190.28 308.29 189.3 308.83 188.2 308.83 187.52 308.29 186.41 307.44 185.44 306.78 185.06 
M 306.53 200.19 307.19 199.8 308.04 198.79 308.58 197.65 308.58 196.95 308.04 195.81 307.19 194.8 306.53 194.41 
M 306.7 210.1 307.36 209.69 308.21 208.66 308.76 207.48 308.76 206.76 308.21 205.59 307.36 204.55 306.7 204.15 
M 312.59 134.24 313.22 133.91 314.03 133.08 314.55 132.14 314.55 131.56 314.03 130.62 313.22 129.79 312.59 129.46 
M 312.62 142.58 313.26 142.24 314.07 141.36 314.6 140.37 314.6 139.75 314.07 138.76 313.26 137.88 312.62 137.54 
M 312.62 151.25 313.25 150.9 314.07 150 314.6 148.98 314.6 148.34 314.07 147.32 313.25 146.42 312.62 146.07 
M 310.82 167.51 311.38 167.17 312.1 166.32 312.57 165.35 312.57 164.74 312.1 163.77 311.38 162.91 310.82 162.58 
M 309.9 176.24 310.44 175.88 311.13 174.95 311.57 173.89 311.57 173.24 311.13 172.19 310.44 171.26 309.9 170.9 
M 308.99 204.6 309.53 204.2 310.22 203.17 310.66 202 310.66 201.28 310.22 200.12 309.53 199.09 308.99 198.69 
M 315.49 138.35 316.24 138.02 317.21 137.16 317.83 136.19 317.83 135.59 317.21 134.62 316.24 133.76 315.49 133.43 
M 315.52 146.87 316.28 146.52 317.24 145.63 317.87 144.63 317.87 144.01 317.24 143.01 316.28 142.12 315.52 141.77 
M 318.31 134.08 318.93 133.75 319.73 132.92 320.24 131.97 320.24 131.44 
M 318.43 142.51 319.05 142.17 319.85 141.28 320.36 140.28 320.36 139.66 319.85 138.66 319.05 137.78 318.43 137.44 
M 318.44 151.12 319.05 150.78 319.84 149.9 320.35 148.9 320.35 148.28 319.84 147.28 319.05 146.39 318.44 146.05 
M 314.65 175.06 315.17 174.7 315.84 173.78 316.26 172.74 316.26 172.09 315.84 171.05 315.17 170.12 314.65 169.76 
M 314.27 184.41 314.8 184.04 315.48 183.07 315.92 181.98 315.92 181.3 315.48 180.21 314.8 179.25 314.27 178.87 
M 313.76 203.45 314.31 203.05 315.02 202.02 315.47 200.86 315.47 200.14 315.02 198.98 314.31 197.95 313.76 197.55 
M 321.2 138.16 321.93 137.83 322.88 136.97 323.48 136 323.48 135.4 322.88 134.43 321.93 133.58 321.2 133.24 
M 320.75 154.83 321.45 154.5 322.34 153.67 322.92 152.72 322.92 152.13 322.34 151.18 321.45 150.34 320.75 150.02 
M 319.17 162.25 319.82 161.93 320.66 161.12 321.19 160.2 321.19 159.64 320.66 158.72 319.82 157.91 319.17 157.59 
M 317.44 170.02 318.06 169.68 318.85 168.81 319.36 167.82 319.36 167.21 318.85 166.22 318.06 165.35 317.44 165.01 
M 316.35 198.21 317.04 197.81 317.91 196.8 318.47 195.65 318.47 194.94 317.91 193.8 317.04 192.78 316.35 192.39 
M 316.53 208.1 317.22 207.7 318.1 206.66 318.66 205.49 318.66 204.77 318.1 203.6 317.22 202.56 316.53 202.16 
M 323.98 133.85 324.97 133.13 
M 322.85 158.3 323.4 158 324.11 157.21 324.56 156.32 324.56 155.77 324.11 154.88 323.4 154.1 322.85 153.79 
M 320.32 165.02 320.83 164.71 321.48 163.9 321.91 162.99 321.91 162.43 321.48 161.52 320.83 160.72 320.32 160.4 
M 318.93 183.26 319.46 182.87 320.14 181.87 320.57 180.74 320.57 180.04 320.14 178.9 319.46 177.9 318.93 177.51 
M 326.77 137.81 327.48 137.48 328.4 136.63 328.99 135.67 328.99 135.08 328.58 134.41 
M 325.91 154 326.58 153.68 327.44 152.87 327.99 151.96 327.99 151.39 327.44 150.48 326.58 149.67 325.91 149.36 
M 323.9 160.98 324.53 160.67 325.34 159.89 325.86 159 325.86 158.46 325.34 157.57 324.53 156.79 323.9 156.48 
M 321.84 168.48 322.45 168.14 323.23 167.28 323.74 166.3 323.74 165.69 323.23 164.71 322.45 163.84 321.84 163.51 
M 321.44 187.76 322.12 187.36 322.98 186.32 323.54 185.15 323.54 184.42 322.98 183.25 322.12 182.22 321.44 181.81 
M 321.71 197.73 322.43 197.33 323.37 196.29 323.97 195.11 323.97 194.38 323.37 193.21 322.43 192.17 321.71 191.76 
M 321.97 207.64 322.72 207.24 323.68 206.2 324.3 205.03 324.3 204.31 323.68 203.13 322.72 202.1 321.97 201.7 
M 329.48 141.69 330.06 141.35 330.8 140.5 331.28 139.53 331.28 138.93 330.8 137.96 330.06 137.11 329.48 136.78 
M 327.69 157.15 328.23 156.86 328.92 156.1 329.36 155.24 329.36 154.71 328.92 153.85 328.23 153.09 327.69 152.8 
M 324.72 163.44 325.23 163.14 325.89 162.35 326.31 161.46 326.31 160.91 325.89 160.02 325.23 159.24 324.72 158.93 
M 324.29 192.6 324.9 192.19 325.67 191.12 326.17 189.91 326.17 189.16 325.67 187.95 324.9 186.88 324.29 186.47 
M 326.82 208.74 326.48 208.01 325.63 206.98 324.97 206.58 
M 326.29 167.03 326.92 166.69 327.73 165.82 328.24 164.83 328.24 164.22 327.73 163.24 326.92 162.37 326.29 162.03 
M 332.49 156 333.01 155.71 333.68 154.97 334.11 154.12 334.11 153.6 333.68 152.75 333.01 152.01 332.49 151.72 
M 327.85 170.63 328.39 170.25 329.09 169.28 329.53 168.18 329.53 167.5 329.09 166.41 328.39 165.44 327.85 165.06 
M 328.65 181.52 329.22 181.08 329.95 179.95 330.42 178.68 330.42 177.89 329.95 176.61 329.22 175.48 328.65 175.04 
M 336.55 144.1 337.16 143.78 337.94 142.96 338.44 142.02 338.44 141.44 337.94 140.51 337.16 139.68 336.55 139.36 
M 335.48 151.67 336.08 151.36 336.85 150.58 337.35 149.69 337.35 149.15 336.85 148.26 336.08 147.48 335.48 147.17 
M 333.21 158.43 333.84 158.13 334.64 157.36 335.15 156.49 335.15 155.95 334.64 155.07 333.84 154.3 333.21 154 
M 331.09 165.96 331.76 165.61 332.61 164.73 333.16 163.72 333.16 163.1 332.61 162.1 331.76 161.21 331.09 160.86 
M 332.13 186.99 332.86 186.54 333.79 185.38 334.4 184.07 334.4 183.26 333.79 181.95 332.86 180.79 332.13 180.34 
M 339.05 139.36 339.53 139.04 340.05 138.35 
M 336.87 154.5 337.35 154.2 337.97 153.44 338.37 152.58 338.37 152.05 337.97 151.19 337.35 150.43 336.87 150.13 
M 334.02 181.11 334.62 180.65 335.39 179.48 335.89 178.16 335.89 177.34 335.39 176.02 334.62 174.85 334.02 174.39 
M 340.37 141.96 340.94 141.64 341.66 140.83 342.13 139.9 342.13 139.33 341.97 139.01 
M 337.61 157.06 338.23 156.74 339.01 155.92 339.52 154.98 339.52 154.4 339.01 153.47 338.23 152.64 337.61 152.32 
M 336.28 165.38 336.98 165.01 337.88 164.08 338.45 163.02 338.45 162.37 337.88 161.32 336.98 160.38 336.28 160.02 
M 336.38 175.47 337.11 175.05 338.05 173.96 338.66 172.72 338.66 171.95 338.05 170.72 337.11 169.63 336.38 169.2 
M 339.54 198.26 340.32 197.81 341.32 196.64 341.96 195.32 341.96 194.5 341.32 193.18 340.32 192.01 339.54 191.56 
M 341.8 203.39 341.37 202.94 340.58 202.52 
M 341.56 144.45 342.02 144.13 342.6 143.33 342.98 142.41 342.98 141.84 342.6 140.93 342.02 140.12 341.56 139.8 
M 340.24 152.14 340.7 151.81 341.29 150.98 341.67 150.03 341.67 149.45 341.29 148.51 340.7 147.68 340.24 147.35 
M 342.46 146.96 343.02 146.63 343.75 145.78 344.21 144.82 344.21 144.22 343.75 143.26 343.02 142.41 342.46 142.08 
M 341.8 155.63 342.42 155.26 343.22 154.33 343.73 153.28 343.73 152.63 343.22 151.58 342.42 150.65 341.8 150.29 
M 341.7 165.11 342.42 164.72 343.33 163.71 343.92 162.57 343.92 161.87 343.33 160.73 342.42 159.72 341.7 159.33 
M 342.12 175.37 342.87 174.94 343.82 173.83 344.43 172.58 344.43 171.8 343.82 170.55 342.87 169.44 342.12 169.01 
M 345.43 198.29 346.19 197.83 347.15 196.66 347.77 195.32 347.77 194.5 347.15 193.16 346.19 191.99 345.43 191.53 
M 343.56 149.83 344.05 149.46 344.67 148.52 345.08 147.45 345.08 146.79 344.67 145.72 344.05 144.78 343.56 144.41 
M 344.25 160.05 344.81 159.65 345.54 158.61 346.01 157.44 346.01 156.71 345.54 155.54 344.81 154.5 344.25 154.09 
M 347.43 192.64 348.04 192.16 348.82 190.93 349.32 189.53 349.32 188.67 348.82 187.27 348.04 186.04 347.43 185.56 
M 346.23 144.92 346.87 144.57 347.7 143.68 348.23 142.67 348.23 142.05 347.65 140.98 
M 346.34 154.49 347.01 154.1 347.87 153.08 348.43 151.93 348.43 151.22 347.87 150.07 347.01 149.05 346.34 148.66 
M 347.75 175.13 348.48 174.7 349.42 173.58 350.02 172.32 350.02 171.53 349.42 170.27 348.48 169.15 347.75 168.72 
M 348.09 148.57 348.67 148.19 349.42 147.2 349.91 146.07 349.91 145.38 349.42 144.26 348.67 143.26 348.09 142.88 
M 349.46 159.52 350.06 159.09 350.83 158 351.33 156.76 351.33 155.99 350.83 154.76 350.06 153.66 349.46 153.24 
M 350.15 169.63 350.76 169.21 351.54 168.14 352.04 166.93 352.04 166.18 351.54 164.96 350.76 163.89 350.15 163.47 
M 355.77 198.06 355.37 197.47 354.77 197.03 
M 351.49 144.3 352.27 143.95 353.34 142.94 
M 351.74 154.04 352.52 153.64 353.51 152.61 354.15 151.44 354.15 150.71 353.51 149.54 352.52 148.51 351.74 148.11 
M 354.15 148.71 354.87 148.33 355.79 147.35 356.38 146.25 356.38 145.56 355.79 144.46 354.74 143.41 
M 355.27 159.38 355.94 158.96 356.8 157.89 357.36 156.67 357.36 155.92 356.8 154.71 355.94 153.64 355.27 153.22 
M 355.85 169.39 356.5 168.98 357.33 167.92 357.87 166.73 357.87 165.99 357.33 164.79 356.5 163.74 355.85 163.33 
M 358.1 154.44 358.97 154.05 360.08 153.05 360.8 151.91 360.8 151.2 360.08 150.07 358.97 149.06 358.1 148.67 
M 358.75 164.58 359.58 164.17 360.63 163.13 361.31 161.95 361.31 161.22 360.63 160.03 359.58 158.99 358.75 158.58 
M 359.12 174.59 359.9 174.17 360.9 173.1 361.45 172.06 
M 361.45 170.93 360.9 169.9 359.9 168.82 359.12 168.4 
M 360.09 185.5 360.82 185.05 361.45 184.27 
M 361.45 180.02 360.82 179.24 360.09 178.78 
M 361.2 149.8 361.45 149.68 
M 181.21 110.04 209.26 55.06 210.07 55.45 184.6 110.44 
M 194.58 108.04 216.69 64.17 217.51 64.56 197.92 108.51 
M 208.08 107.06 225.97 73.76 226.78 74.16 211.34 107.73 
M 221.6 106.88 234.91 82.55 235.72 82.95 224.85 107.55 
M 235.16 107.08 245.22 91.05 246.01 91.48 238.29 108.03 
M 248.55 109.21 255.6 100.26 256.37 100.74 251.56 110.41 
M 261.67 112.51 265.39 108.92 266.15 109.41 264.55 113.83 
M 270.22 115.04 271.61 115.88 
M 207.48 61.05 208.19 63.51 209.29 65.6 210.07 66.43 211.01 67.12 212.08 67.68 214.48 68.56 
M 215.51 69.04 216.65 71.68 217.34 72.87 218.16 73.92 219.12 74.81 221.47 76.15 224.19 77.09 
M 225.2 77.59 226.3 80.1 227.75 82.21 228.68 83.03 229.76 83.69 230.95 84.21 233.58 84.98 
M 234.6 85.48 236.04 88 236.87 89.12 237.81 90.09 238.88 90.89 241.39 91.99 244.22 92.65 
M 245.21 93.19 246.63 95.86 247.45 97.05 248.39 98.1 249.47 98.99 252.01 100.28 254.9 101.15 
M 255.86 101.76 257.16 104.33 257.92 105.47 258.8 106.47 259.82 107.31 262.25 108.5 265.02 109.28 
M 265.97 109.89 266.26 111.94 266.95 113.62 267.52 114.25 268.25 114.74 269.12 115.1 271.12 115.59 
M 207.8 62.31 208.67 64.62 209.29 65.6 210.07 66.43 211.01 67.12 213.25 68.14 
M 205.22 68.95 205.97 70.94 207.17 72.5 207.97 73.09 209.91 73.97 
M 202.64 75.59 203.26 77.25 204.27 78.56 204.94 79.05 206.56 79.79 
M 200.06 82.23 200.92 84.14 201.91 85.02 203.22 85.62 
M 197.47 88.87 198.13 90.32 198.88 90.99 199.87 91.44 
M 216.05 70.39 217.34 72.87 218.16 73.92 219.12 74.81 220.23 75.55 222.8 76.64 
M 213.73 77.02 214.79 79.06 216.26 80.67 217.18 81.27 219.3 82.18 
M 211.41 83.64 212.25 85.26 212.78 85.94 214.13 87 215.8 87.71 
M 209.09 90.27 210.09 91.95 211.08 92.72 212.3 93.24 
M 225.73 78.88 226.96 81.23 227.75 82.21 228.68 83.03 229.76 83.69 232.24 84.62 
M 223.53 85.6 224.47 87.4 225.08 88.15 226.62 89.29 228.52 90 
M 221.33 92.32 222.41 94.1 223.48 94.89 224.8 95.39 
M 235.3 86.77 236.87 89.12 237.81 90.09 238.88 90.89 240.08 91.51 242.78 92.35 
M 233.38 94.11 234.4 95.63 235.71 96.78 236.49 97.19 238.24 97.73 
M 245.9 94.55 247.45 97.05 248.39 98.1 249.47 98.99 250.68 99.7 253.43 100.74 
M 129.71 157.85 310.77 153.65 310.8 154.55 129.59 161.02 
M 129.55 161.74 291.06 165.19 291.05 166.09 129.2 164.89 
M 129.01 165.58 271.06 175 271.01 175.9 128.18 168.7 
M 128.06 169.33 250.87 183.05 250.78 183.95 127.48 172.45 
M 127.35 173.03 230.62 189.36 230.49 190.25 126.58 176.12 
M 126.45 176.63 210.41 193.92 210.24 194.8 125.4 179.66 
M 125.26 180.07 190.36 196.74 190.15 197.62 124.16 183.09 
M 124.05 183.38 170.58 197.85 170.34 198.72 123.13 186.48 
M 123.89 186.93 151.19 197.26 150.91 198.12 122.87 190.01 
M 123.96 190.64 132.3 195.09 131.97 195.93 122.8 193.68 
M 292.06 155.22 287.56 156.34 283.32 157.93 281.35 159 279.47 160.25 277.69 161.68 274.3 164.83 
M 274.28 165.97 269.81 166.7 265.56 167.93 263.57 168.82 261.66 169.91 259.82 171.17 256.3 174.02 
M 256.23 175.15 251.82 175.5 249.68 175.84 247.59 176.36 245.58 177.08 241.77 179.1 238.14 181.63 
M 238.02 182.76 233.7 182.73 229.51 183.23 227.5 183.77 225.54 184.52 223.64 185.46 219.92 187.67 
M 219.75 188.79 215.54 188.39 211.42 188.53 209.42 188.9 207.46 189.48 205.53 190.25 201.74 192.13 
M 201.52 193.25 197.45 192.49 195.42 192.29 193.42 192.28 191.44 192.47 187.54 193.49 183.7 195.04 
M 183.44 196.14 179.52 195.04 177.57 194.66 175.62 194.48 173.67 194.51 169.79 195.18 165.91 196.39 
M 165.6 197.49 161.87 196.05 158.11 195.16 156.21 195.02 154.29 195.09 152.35 195.35 148.46 196.23 
M 148.1 197.31 144.59 195.57 140.99 194.37 139.14 194.07 137.26 193.99 135.34 194.09 131.46 194.64 
M 289.79 155.74 285.39 157.05 283.32 157.93 281.35 159 279.47 160.25 275.98 163.22 
M 266.49 156.54 262.71 157.66 260.93 158.42 257.62 160.42 254.61 162.97 
M 243.2 157.34 240.03 158.28 238.54 158.91 235.77 160.58 233.25 162.72 
M 219.9 158.13 216.14 159.4 213.91 160.75 211.89 162.47 
M 196.6 158.93 194.67 159.5 192.88 160.36 190.52 162.22 
M 272.03 166.3 267.65 167.23 265.56 167.93 263.57 168.82 261.66 169.91 258.05 172.56 
M 246.02 166.08 242.4 166.84 240.68 167.42 237.46 169.06 234.48 171.24 
M 220 165.86 217.15 166.46 214.5 167.49 213.26 168.2 210.91 169.93 
M 193.99 165.63 190.92 166.41 189.06 167.35 187.35 168.61 
M 254.02 175.29 249.68 175.84 247.59 176.36 245.58 177.08 243.64 178 239.94 180.33 
M 231.15 174.13 227.57 174.58 225.86 175.01 222.6 176.36 219.54 178.28 
M 208.29 172.96 205.47 173.32 202.81 174.13 201.55 174.72 199.15 176.24 
M 185.43 171.8 182.38 172.31 180.51 173.09 178.75 174.19 
M 235.85 182.71 231.58 182.89 229.51 183.23 227.5 183.77 225.54 184.52 221.77 186.53 
M 209.61 180.27 206.33 180.41 204.75 180.66 201.71 181.66 198.81 183.19 
M 183.36 177.83 179.98 178.1 177.87 178.79 175.85 179.86 
M 217.64 188.56 213.46 188.37 211.42 188.53 209.42 188.9 207.46 189.48 203.63 191.16 
M 184.65 184.11 181.93 183.99 180.61 184.09 178.03 184.71 175.54 185.8 
M 199.48 192.83 195.42 192.29 193.42 192.28 191.44 192.47 189.48 192.89 185.62 194.22 
M 172.84 188.15 170.21 187.8 168.91 187.79 166.35 188.19 163.83 189.06 
M 181.48 195.55 177.57 194.66 175.62 194.48 173.67 194.51 171.73 194.75 167.85 195.75 
M 184.03 229.67 188.76 239.08 188 239.57 181.31 231.44 
M 164.45 225.51 166.56 235.82 165.7 236.1 161.36 226.51 
M 187.34 238.76 182.89 236.74 180.63 235.9 178.34 235.25 176.01 234.81 171.23 234.53 166.35 234.79 
M 185.12 237.71 180.63 235.9 178.34 235.25 176.01 234.81 173.64 234.58 168.8 234.63 
M 342 206.13 347.81 214.43 347.13 215.03 339.57 208.29 
M 329.42 211.1 348.95 235.06 348.28 235.66 326.99 213.25 
M 316.72 215.71 338.53 243.55 337.84 244.13 314.23 217.79 
M 303.86 219.83 324.88 248.08 324.17 248.64 301.32 221.86 
M 290.86 223.54 311.54 252.55 310.82 253.1 288.28 225.51 
M 277.78 226.88 295.9 254.41 295.17 254.93 275.13 228.76 
M 264.52 229.44 276.99 250.33 276.24 250.83 261.82 231.23 
M 253.2 231.29 257.77 240.33 257.02 240.83 250.49 233.08 
M 346.38 214.35 345.36 218.46 344.88 222.55 344.95 224.59 345.23 226.62 345.7 228.64 347 232.67 
M 346.15 233.42 343.27 234.12 340.73 235.26 339.64 236.08 338.68 237.07 337.83 238.2 336.35 240.76 
M 335.48 241.49 332.33 241.22 329.33 241.46 327.92 241.88 326.57 242.5 325.27 243.31 322.78 245.26 
M 321.89 245.96 318.8 245.67 315.86 245.9 314.48 246.31 313.17 246.93 311.9 247.72 309.47 249.65 
M 308.57 250.34 305.25 249.48 303.6 249.23 301.97 249.16 300.36 249.31 297.2 250.21 294.09 251.66 
M 293.16 252.32 289.56 250.28 287.71 249.44 285.82 248.78 283.89 248.32 279.88 248.02 275.74 248.24 
M 274.79 248.87 271.46 245.75 267.87 243.11 265.92 242.06 263.88 241.2 261.75 240.51 257.31 239.43 
M 345.83 216.41 345.02 220.51 344.88 222.55 344.95 224.59 345.23 226.62 346.31 230.65 
M 344.69 233.74 341.94 234.62 340.73 235.26 339.64 236.08 338.68 237.07 337.07 239.45 
M 339.36 229.24 337.25 229.92 336.32 230.41 334.75 231.79 333.51 233.62 
M 334.03 224.75 331.91 225.56 330.82 226.52 329.96 227.79 
M 333.89 241.32 330.8 241.25 329.33 241.46 327.92 241.88 326.57 242.5 324.01 244.25 
M 328.09 236.06 325.72 236.01 323.51 236.5 322.47 236.97 320.52 238.31 
M 322.29 230.81 319.86 230.89 318.38 231.44 317.02 232.37 
M 320.33 245.78 317.3 245.7 315.86 245.9 314.48 246.31 313.17 246.93 310.68 248.65 
M 314.67 240.39 312.35 240.33 310.19 240.8 309.18 241.27 307.27 242.59 
M 309.01 235.01 306.63 235.07 305.19 235.62 303.86 236.54 
M 306.9 249.88 303.6 249.23 301.97 249.16 300.36 249.31 298.78 249.66 295.64 250.9 
M 301.33 244.34 298.8 243.85 297.55 243.8 295.1 244.18 292.7 245.13 
M 295.76 238.81 293.99 238.47 292.27 238.51 289.75 239.36 
M 291.37 251.26 287.71 249.44 285.82 248.78 283.89 248.32 281.9 248.08 277.82 248.09 
M 283.82 243.5 281.45 242.31 280.22 241.88 277.67 241.43 275.01 241.44 
M 273.14 247.28 269.71 244.35 267.87 243.11 265.92 242.06 263.88 241.2 259.55 239.94 
M 360.55 145.38 366.14 143.17 368.39 142.1 375.06 137.29 382.05 132.75 384.38 131.6 388.91 128.92 394.43 125.92 396.67 124.83 398.94 122.95 400.44 122.22 404.57 119.01 406.87 117.88 414.36 112.18 420.85 109.08 424.23 108.33 426.68 106.67 430.16 105.35 432.03 103.99 433.62 102.36 435.88 100.87 438.25 98.74 441.51 96.86 443.76 94.98 445.99 93.84 447.51 92.04 449.06 90.9 450.06 89.35 452.86 86.93 455.15 85.78 457.27 83.43 459.09 82.04 461.21 80.69 463.45 78.83 466.41 77.04 467.58 76.14 470.5 75.36 474 75.25 476.58 73.81 481.3 70.56 483.37 68.47 485.9 67.47 487.22 65.8 490 63.33 480.07 81.33 479.13 84.14 477.52 86.28 476.57 89.09 475.23 91.5 473.21 93.24 472.31 96.1 470.41 97.94 467.03 101.98 465.69 104.34 465.35 107.69 464.27 110.3 462.64 112.37 461.6 115.03 460.06 117.19 457.67 118.61 456.13 120.89 453.71 122.3 450.17 126.4 448.54 128.59 447.27 131.1 445.39 133 443.79 135.17 442.4 137.57 440.73 139.68 437.87 140.62 435.36 141.93 433.56 143.95 431.51 145.73 429.78 147.82 427.04 152.72 423.96 153.46 421.87 155.2 421.54 158.31 421.02 161.25 420.85 164.53 418.53 165.84 417.05 168.1 415.94 170.73 414.4 172.91 410.12 176.05 409.9 181.41 410.52 184.07 411.83 187.21 412.65 189.05 414.56 191.98 415.18 194.65 415.01 196.94 415.49 199.87 417.06 202.66 421.16 208.6 421.82 210.42 423.19 213 423.9 214.93 424.98 217.23 427.69 222.34 428.64 225.1 430.76 233.17 433.09 238.29 435.16 242.4 435.81 251.08 431.53 246.82 428.81 245.63 424.36 243.29 419.5 240 416.69 238.76 415.2 237.68 412.64 236.63 407.49 232.89 404.57 231.34 401.54 228.85 399.78 228 398.15 226.24 394.17 223.51 392.47 221.45 390.82 219.89 386.19 216.82 381.04 213.74 376.01 209.9 370.64 206.37 368.39 204.25 366.15 202.54 363.52 201.11 360.55 198.91 
M 363.48 147.12 368.95 145.07 373.42 142.7 380.64 138.1 386.01 135.83 388.18 134.76 390.37 133.21 393.14 132.32 402.59 127.36 404.93 126.51 411.45 120.4 413.4 118.92 416.38 118.05 419.2 116.79 423.68 113.89 428.04 111.89 436.7 108.76 439.32 107.48 442.08 105.66 444.61 103.71 446.31 101.73 448.65 100.49 451.15 100.09 455.36 97.77 457.78 97.05 460.72 96.51 463.23 94.21 465.76 91.37 
M 360.55 150.74 366.58 149.21 369.2 148.14 374.19 146.4 376.83 145.18 383.91 141.23 386.63 140.13 391.05 137.61 393.79 136.96 396.07 136.23 398.32 134.89 401.11 134.19 403.97 132.87 406.44 132 408.91 130.56 410.95 128.46 413.52 126.22 416.47 125.06 419.23 122.87 421.62 122.66 423.66 121.21 427.68 120.99 430 120.33 433.2 119.82 435.35 118.21 438.84 116.45 442.11 113.86 444.92 112.38 
M 366.39 152.19 369.46 151.4 372.04 150.26 374.45 149.71 377.18 148.62 382.17 145.3 386.92 143.5 389.32 142.4 397.61 140.71 399.34 139.07 402.11 137.75 404.62 137.1 409.19 134.41 412.06 133.06 
M 366.29 155.17 369.17 154.33 371.93 153.18 376.89 152.36 382.52 149.85 385.35 148.15 390.62 146.99 396.49 145.99 401.74 144.59 406.17 142.7 409.09 141.05 411.68 140.1 413.74 138.66 415.92 138.18 418.58 137.98 422.01 136.51 428 135.53 430.65 132.93 433.61 131.99 439.81 130.73 442.91 129.74 
M 363.81 158.69 366.77 158.23 369.52 157.42 377.18 155.97 379.69 154.71 383.07 153.96 388.59 151.84 391.53 151.86 394.97 150.84 397.65 150.36 399.97 150.61 402.71 150.38 405.52 149.86 407.9 148.73 411.17 147.72 415.28 145.81 417.19 144.47 
M 369.95 160.75 372.69 160.83 375.44 160.54 378.37 159.97 381.09 158.92 383.88 158.21 386.91 157.21 389.23 155.91 392.26 155.27 398.22 154.33 
M 370.52 163.75 372.97 164.16 375.81 164.29 378.7 164.09 385.01 163.35 388.33 162.52 391.19 161.54 394.25 160.91 397.25 161.16 399.24 160.79 401.93 159.93 404.04 159.48 409.56 159.21 
M 360.55 166.8 364.34 167.3 367.32 167.4 370.46 167.02 373.03 167.23 376.21 167.74 382.33 167.91 385.7 167.67 391.55 166.73 
M 360.55 169.47 364.41 170.39 367.85 170.58 373.64 170.49 382.61 170.76 385.86 171.55 388.95 172.05 392.2 171.88 394.09 172.06 395.97 171.22 398.63 171.71 
M 360.55 172.15 364.58 173.22 368.01 173.73 370.96 173.87 377.56 173.56 380.79 174.19 383.39 175.04 386.66 175.37 
M 367.74 176.2 370.77 176.98 373.54 177.95 376.81 178 379.56 178.26 382.3 179.67 384.77 179.74 387.56 180.23 390.73 180.41 393.82 180.16 
M 360.55 177.5 364.25 178.57 367.58 179 373.18 180.8 378.7 181.83 381.29 181.77 384.48 183.31 387.77 184.17 
M 360.55 180.18 364.21 181.5 367.26 182.15 372.99 183.78 375.46 184.72 378.34 185.59 381.32 185.69 383.97 187.37 387.07 188.52 390.08 188.2 393.13 188.32 396.91 188.87 399.78 189.57 
M 367.39 185.23 369.9 186.17 372.09 187.68 381.17 189.72 384.66 190.94 388.24 191.04 390.57 191.94 392.89 192.19 396.44 192.3 399.29 192.69 402.56 194.19 405.27 196.51 408.24 197.71 
M 366.77 188.09 378.11 192.62 380.49 193.74 384.1 194.91 387.17 196.27 389.92 196.64 392.89 196.51 395.42 196.91 398.1 197.65 404.05 201.98 406.85 203.72 410.23 203.78 411.95 204.9 413.49 206.26 
M 369.22 192.12 379.72 197.18 382.23 198.98 385.16 200.68 387.93 201.05 391.6 200.72 394.37 200.92 397.94 201.93 400.06 204.31 402.63 206.2 404.53 207.05 409.48 208.64 
M 363.75 192.7 369.42 194.91 374.27 197.83 377.01 199.2 378.99 200.72 384.19 203.96 389.68 205.78 392.86 206.04 395.86 207.41 398.36 208.95 400.48 209.41 403.16 211.23 405.72 212.7 409.86 216.13 411.95 218.25 414.18 219.05 418.17 220.02 420.8 221.75 423.96 222.42 
M 360.55 193.56 369.64 198.08 373.7 201.08 378.6 203.96 381.32 205.94 384.11 207.4 386.57 208.19 388.69 209.54 391.1 211.59 394.11 212.44 396.33 213.34 398.18 215.47 400.81 217.64 404.01 218.89 406.49 220.56 410.85 223.87 413.11 225.09 416.43 225.48 419.99 225.23 421.69 226.75 423 228.63 426.02 230.12 
M 360.55 196.24 363.76 198.4 369.37 201.16 375.96 206.53 379.04 208.06 381.11 209.81 386.47 212.49 390.54 215.73 393.11 217.24 398.34 220.81 400.87 222.25 402.46 224.08 404.47 225.85 407.44 226.04 410.56 227.18 413.53 228.8 416.15 230.69 418.27 231.43 
M 279.8 116.98 283.1 117.74 285.03 117.64 288.4 116.15 290.26 116.15 292.52 120.35 294.25 120.92 295.83 121.32 297.47 121.08 300.75 119.69 302.65 120.23 304.5 123.39 305.72 124.74 309.4 126.27 314.84 125.11 316.13 126.28 318.09 129.31 319.8 130.27 321.46 130.84 323.03 130.91 326.34 129.85 328.01 130.31 330.33 133.3 331.77 134.2 335.15 135.2 338.81 134.65 340.58 134.9 343.16 137.79 344.76 138.87 348.72 140.09 350.67 142.03 
M 35.93 181.16 40.12 176.6 42.99 173.21 46.11 169.11 49.86 165 54.74 161.33 60.45 158.07 65.84 154.54 71.31 150.31 77.59 146.26 91.82 139.32 98.59 136.46 105.17 133.9 123.36 128.01 125.95 132.67 126.69 137.18 127.68 141.73 128.88 146.3 129.65 150.82 129.78 155.26 129.42 164.08 128.25 168.36 127.43 172.7 126.36 177 123.28 185.49 122.62 189.83 120.59 198.45 119.09 202.7 116.92 206.87 113.53 210.8 102.21 210.13 93.93 209.17 86.4 208.03 73.31 205.29 67.49 203.7 57.11 199.81 52.73 197.85 48.98 195.61 45.74 193.05 42.57 190.22 
M 106.19 159.93 105.79 163.72 102.86 170.75 101.09 173.9 97.21 179.09 96.66 181.53 96.34 183.92 96.5 188.71 96.39 191.4 95.52 194.43 77.24 193.84 71.98 193.51 66.89 192.97 61.94 192.01 57.26 190.35 
M 32.18 184.62 31.52 183.01 32.64 180.91 34.88 180.43 36.73 181.72 42.77 190.51 
M 42.27 191.28 35.4 190.29 33.07 189.79 30.94 189.12 30 187.18 30.71 185.15 32.81 184.4 34.88 185.28 42.61 190.41 
M 71.03 169.69 70.01 165.84 70.3 161.87 71.86 158.2 74.53 155.25 78.02 153.32 81.94 152.62 85.88 153.24 89.4 155.1 92.13 158 93.76 161.64 94.13 165.6 93.19 169.47 91.05 172.83 87.93 175.31 84.17 176.64 80.19 176.68 76.41 175.42 73.24 173.01 71.03 169.69 
M 70.88 169.35 70.08 166.47 70.02 163.47 70.7 160.56 71.3 159.18 72.99 156.71 75.23 154.73 76.52 153.96 79.33 152.93 82.31 152.62 83.81 152.75 86.69 153.54 
M 72.54 168.66 72.13 167.46 71.76 164.94 71.82 163.66 72.21 161.77 
M 75.44 156.85 77.35 155.57 78.52 155.05 81 154.48 83.55 154.53 86 155.21 
M 74.21 167.97 73.87 166.98 73.57 164.9 73.61 163.85 73.96 162.22 
M 76.74 158.12 78.17 157.17 79.14 156.75 81.18 156.27 83.29 156.32 85.31 156.87 
M 75.88 167.28 75.61 166.5 75.37 164.86 75.54 163.21 75.78 162.41 
M 78.03 159.39 79.76 158.44 81.37 158.07 83.03 158.1 84.62 158.54 
M 77.65 166.71 77.24 165.17 77.36 163.58 77.66 162.87 
M 79.16 160.87 80.44 160.16 82.01 159.88 83.59 160.13 85 160.87 86.09 162.03 86.74 163.49 86.89 165.07 86.51 166.62 85.65 167.97 84.41 168.96 82.9 169.49 81.31 169.51 79.8 169 78.53 168.04 77.65 166.71 
M 77.76 162.91 77.34 163.73 
M 80.49 160.15 79.76 161.61 
M 78.91 163.3 77.49 166.14 
M 81.97 159.89 80.65 162.54 
M 80.16 163.51 78.17 167.49 
M 83.23 160.07 81.54 163.46 
M 81.4 163.72 79.05 168.43 
M 84.35 160.53 80.07 169.09 
M 85.35 161.25 81.23 169.48 
M 86.19 162.27 82.58 169.49 
M 86.77 163.81 84.15 169.05 
M 36.72 180.31 41.36 184.95 
M 39.31 177.48 43.14 181.31 
M 41.82 174.59 46.3 179.07 
M 44.23 171.59 48.52 175.88 
M 46.61 168.56 51.38 173.33 
M 49.19 165.73 51.95 168.49 
M 52.15 163.28 56.21 167.34 
M 55.3 161.02 58.22 163.94 
M 58.74 159.05 63.54 163.85 
M 62.09 156.99 65.54 160.43 
M 65.36 154.85 69.81 159.3 
M 68.44 152.52 71.56 155.64 
M 71.51 150.18 74.25 152.92 
M 74.8 148.06 79.2 152.46 
M 78.14 145.99 83.38 151.23 
M 81.75 144.19 85.58 148.02 
M 85.38 142.41 89.96 146.99 
M 89.03 140.65 94.09 145.71 
M 92.72 138.93 97.8 144.01 
M 96.53 137.33 101.08 141.88 
M 100.37 135.77 103.21 138.6 
M 104.27 134.25 107.16 137.14 
M 108.29 132.86 113.61 138.18 
M 112.35 131.51 117.57 136.73 
M 116.45 130.2 121.53 135.28 
M 120.55 128.9 124.1 132.45 
M 47.29 180.76 51.39 178.16 52.8 177.08 56.41 175.93 57.65 175.35 58.11 174.93 58.72 173.56 
M 109.55 162.75 109.33 163.32 109.39 163.76 110.88 165.68 
M 41.61 185.36 41.66 183.71 42.15 182.8 42.53 182.48 43.51 182.19 44.91 182.03 46.46 181.5 48.52 180.41 50.58 178.87 
M 75.83 192.72 76.48 191.54 77.13 186.7 77.04 185.79 76.05 184.46 75.67 183.66 
M 53.27 166.72 53.98 168.01 54.09 169.16 
M 126.56 158.82 125.51 158.17 124 157.52 120.51 156.7 119.19 155.93 118.61 156 
M 66.31 173.51 68.61 175.32 69.49 176.76 70.06 178.46 69.78 179.99 68.01 182.81 
M 92.04 152.54 90.6 150.74 89.81 150.75 89.41 151.15 
M 98.97 138.99 97.11 137.09 
M 115.41 192.52 116.85 192.57 117.05 192.82 116.98 193.13 
M 102.27 152.69 101.41 153.19 100.46 153.43 98.31 153.2 97.27 152.95 94.68 151.87 91.67 151.18 90.75 150.64 
M 92.86 185.25 92.51 184.72 92.03 184.54 90.23 184.94 
M 58.74 164.48 55.7 164.26 54.61 163.71 53.4 162.34 
M 98 157.95 95.78 158.61 93.07 160.1 
M 80.86 176.88 79.64 176.95 77.68 177.55 76.18 178.53 75.46 179.44 
M 45.04 191.66 44.91 190.22 43.82 186.54 44.14 185.08 44.77 183.96 45.4 183.29 
M 117.14 196.73 115.83 195.52 115.54 194.48 115.83 193.8 116.9 193.14 
M 101.87 162.61 104.14 161.95 105.58 161.77 107.46 160.89 
M 103.9 158.23 101.68 158.14 100.75 158.46 100.25 159.01 100.19 159.48 100.37 159.88 100.99 160.44 
M 71.36 188.05 74 187.53 74.5 187.26 75.8 185.66 75.7 184.45 
M 71.99 157.98 72.01 158.04 
M 70.24 162.71 69.89 163.08 
M 115.4 184.19 116.43 183.66 116.43 183.13 
M 110.72 185.8 110.94 186.36 111.31 186.63 113.1 186.79 114.74 187.15 
M 77.7 192.36 78.63 185.78 78.15 184.86 76.12 182.85 
M 75.39 194.64 76.52 193.47 77.06 192.6 77.69 189.06 77.9 186.18 77.66 185.43 76.68 184.47 
M 59.02 200.54 58.69 199.96 57.94 199.31 53.69 195.9 
M 115.44 146.8 114.67 148.19 114.46 148.75 114.45 149.37 114.94 151.06 116.63 153.27 117.09 154.84 
M 128.71 154.58 126.63 153.05 125.67 152.55 123.75 151.81 121.67 151.31 119.79 150.56 118.81 150.35 
M 95.33 158.85 93.09 160.14 
M 71.06 204.41 70.13 203.77 69.45 202.84 69.17 201.8 69.12 200.72 69.45 199.74 71.21 198.22 
M 109.09 200.19 107.03 199.48 106.07 199.76 104.32 200.98 
M 62.05 172.52 62.62 169.93 63.21 168.68 64.02 167.9 65.6 167.23 
M 59.08 188.63 58.11 187.83 56.38 185.65 56.11 184.07 56.46 183.49 
M 73.34 149 75.91 151.93 
M 86.71 181.95 86.8 183.66 86.68 184.38 86.29 185.17 84.75 187.3 83.99 188.85 84.14 192.56 
M 81.63 144.26 83.27 144.39 84.5 144.73 86.78 146.07 88.22 147.38 88.73 148.26 88.91 149.06 
M 52.8 188.32 53.3 186.49 54.31 184.74 54.92 184.13 56.49 183.35 
M 60.54 201.12 59.38 199.53 58.62 198.81 
M 94.42 175.95 93.53 177.46 91.63 179.12 91.21 179.84 90.83 182.13 90.23 183.92 89.73 184.6 
M 109.93 195.24 110.37 194.37 111.14 193.77 112.06 193.36 115.78 192.83 116.86 192.84 
M 64.64 173.94 65.29 173.78 65.96 174.11 66.94 176.05 67.83 179.78 67.27 180.95 
M 109.88 153.68 110.56 154.37 111.67 155.09 115.01 156.7 116.36 158.03 116.68 159.33 
M 70.03 162.93 69.15 164.46 68.97 165.77 69.47 167.23 70.77 168.71 
M 96.81 176.43 95.01 178.79 92.64 180.93 90.72 184.17 90.17 184.76 
M 96.92 169.43 97.16 170.02 97.64 170.35 98.84 170.24 99.37 169.93 
M 107.6 173.32 108.25 172.12 108.61 170.84 108.81 168.96 109.35 167.84 
M 117.78 140.88 115.91 140.58 114.95 140.68 114.59 140.95 113.95 141.9 113.43 143.14 
M 99.22 186.12 98.6 185.69 97.56 184.56 96.63 184.08 95.71 184.14 94.6 184.6 93.11 184.4 
M 112.61 154.32 115.39 155.99 116.63 156.97 117.07 157.89 117 158.96 
M 109.48 135.61 108.38 133.8 107.45 133.14 
M 113.94 142.81 112.34 145.28 111.35 146.43 106.87 148.73 
M 87.66 205.23 86.42 206.76 85.11 207.78 
M 82.45 207.26 82.34 206.82 
M 90.1 144.16 90.27 144.99 90.22 146.64 89.93 147.7 89.28 148.98 89.06 150.22 89.16 151.09 
M 104.81 135.26 104.16 134.29 
M 85.7 144.44 87.78 145.6 89.08 146.94 89.15 148.23 88.99 150.3 89.11 151 
M 96.16 160.81 95.69 161.14 94.99 162.11 94.69 163.79 94.1 165.29 
M 119.53 201.45 118.45 200.56 117.88 199.47 
M 80.27 178.44 79.58 179.29 79.33 180.11 79.54 180.47 80.79 181.29 81.24 182.05 
M 58.57 199.04 56.4 197.33 54.34 196.1 53.32 194.77 
M 56.88 192.4 54.83 189.41 53.82 187.14 53.83 186.68 54.25 185.6 55.33 184.34 
M 50.31 175.59 51.5 175.76 
M 71.21 197.14 73.18 196.18 76.25 194.97 77.73 193.86 78.66 192.54 
M 126.89 150.5 124.64 148.61 123.55 148.17 120.99 148.52 119.65 149 
M 118.88 185.45 117.41 184.48 116.51 183.31 
M 49.52 171.12 51.1 173.03 53.32 175.05 53.92 175.17 54.67 175.06 56.31 174.16 
M 37.95 190.73 41.57 193.22 45.89 195.54 48.12 196.42 52.73 197.85 
M 49.37 195.98 48.38 196.51 
M 126.79 137.62 127.58 138.41 
M 124.07 127.68 133.19 136.81 
M 129.37 125.78 137.87 134.28 
M 134.72 123.91 140.91 130.1 
M 140.17 122.14 148.71 130.69 
M 145.67 120.43 152.34 127.11 
M 151.24 118.79 160.8 128.35 
M 156.9 117.24 163.15 123.48 
M 162.61 115.73 169 122.12 
M 168.26 114.17 177.31 123.22 
M 173.96 112.66 183.63 122.33 
M 179.88 111.36 185.67 117.16 
M 185.95 110.22 192.52 116.79 
M 192.17 109.22 201.45 118.51 
M 198.58 108.43 205.7 115.55 
M 205.26 107.89 215.57 118.21 
M 212.29 107.71 218.81 114.23 
M 219.43 107.64 225.5 113.7 
M 226.52 107.51 232.33 113.33 
M 233.78 107.56 243.68 117.46 
M 241.83 108.4 251.28 117.85 
M 250.93 110.28 258.04 117.4 
M 260.58 112.72 266.64 118.78 
M 270.69 115.61 277.54 122.47 
M 280.74 118.45 286.48 124.19 
M 290.66 121.16 299.53 130.03 
M 301.14 124.43 308.94 132.23 
M 312.5 128.58 323.3 139.37 
M 323.88 132.74 330.99 139.85 
M 334.97 136.62 344.33 145.98 
M 345.96 140.4 355.45 149.89 
M 356.93 144.16 365.11 152.33 
M 367.85 147.86 369.14 149.15 
"/></svg>