<svg xmlns="http://www.w3.org/2000/svg" width="520" height="320"><rect x="0" y="0" width="520" height="320" fill="floralwhite"/><rect x="10" y="10" width="500" height="300" stroke="black" stroke-width="1" fill="none"/><path stroke="black" stroke-width="1" fill="none" stroke-linecap="round" stroke-linejoin="round" d="
M 118.48 115.98 142.8 109 154.94 105.83 167.08 102.95 191.36 97.65 203.51 95.51 215.65 93.93 227.79 92.75 264.22 92.17 276.36 93.2 288.5 95.23 300.64 97.75 337.07 106.01 349.21 109.09 385.64 119.75 423.13 130.09 
M 423.13 181.93 397.78 190.5 385.64 194.43 361.35 201.44 349.21 204.39 324.93 209.87 312.79 211.89 288.5 215.23 276.36 216.06 264.22 216.63 252.07 216.39 227.79 216.58 215.65 215.45 203.51 213.61 191.36 211.47 179.22 209.11 167.08 207.05 154.94 204.62 142.8 201.51 130.69 197.9 
M 119.99 117.34 119.41 115.72 
M 141.91 187.45 141.91 183.84 139.94 176.91 
M 135.15 180.55 137.2 180.2 
M 124.41 122.83 126.21 120.51 129.59 112.82 
M 122.67 114.79 123.27 114.89 
M 144.63 154.47 141.97 146.31 136.95 137.55 133.03 134.13 
M 135.54 152.68 138.96 151.77 
M 146.73 188.33 146.05 187.43 142.12 184.82 
M 142.82 148.7 144.3 146.18 147.65 136.18 147.65 129.99 144.3 119.98 139.11 111.15 138.16 110.34 
M 130.71 128.23 141.06 125.69 
M 131.11 133.07 141.49 133.57 
M 137.63 139.78 141.63 140.62 
M 160.08 190.49 160.79 187.9 160.79 182.28 159.55 177.75 
M 148.41 180.22 156.19 177.94 
M 148.16 185.39 156.15 184.7 
M 146.45 135.36 149.37 133.88 156.35 126.83 160.85 118.83 160.85 113.89 156.35 105.89 156.03 105.57 
M 139.16 112.31 152.73 109.89 
M 141.78 116.69 152.25 116.62 
M 144.57 121.37 153.18 122.7 
M 159.9 179.66 161.74 177.03 
M 166.65 153.17 165.07 149.2 159.63 141.43 155.38 138.39 
M 159.25 154.4 162.11 153.55 
M 169.6 191.72 166.09 186.79 162.36 184.18 
M 159.24 116.98 160.04 116.57 165.68 110.9 169.31 104.47 169.31 102.47 
M 155.82 106.11 162.28 107.2 
M 172.92 153.63 174.1 152.08 177.6 143.98 177.6 138.96 174.1 130.86 168.67 123.71 164.43 120.91 
M 160.63 137.27 171.37 135.61 
M 160.22 141.68 171.55 141.05 
M 162.31 146.14 170.96 147.63 
M 177.47 192.6 179.49 185.77 179.49 180.8 178.5 177.47 
M 168.06 179.26 174.35 177.56 
M 167.66 183.77 175.24 183.02 
M 167.5 187.51 175.46 189.85 
M 176.35 137.4 181.68 131.79 185.67 124.44 185.67 119.88 181.68 112.53 175.5 106.04 170.68 103.5 
M 165.92 117.98 178.27 116.33 
M 166.78 122.13 178.41 121.81 
M 170.48 126.92 178.17 127.85 
M 178.64 182 182.05 179.77 184.75 176.25 
M 188 153.02 187.46 151.79 182.05 144.74 177.83 141.98 
M 191.47 194.41 190.57 192.27 185.72 185.67 181.94 183.1 
M 180.56 112.05 182.79 109.22 185.86 102.39 185.86 98.88 
M 170.31 103.81 172.63 104.21 
M 173.06 104.29 180.46 105.58 
M 197.36 153.59 199.92 146.91 199.92 141.92 196.83 133.87 192.05 126.76 188.31 123.98 
M 185.17 140.29 194.13 138.04 
M 184.3 144.75 193.84 143.97 
M 184.84 148.56 194.33 150.19 
M 192.64 194.56 195.38 190.02 198.05 182.25 198.05 177.45 196.82 173.87 
M 185.41 179.56 192.74 179.66 
M 185.15 184.24 192.91 185.73 
M 188.09 105 193.42 103.42 200.24 99.4 204.07 95.43 
M 198.82 140.53 205.24 134.13 209.19 127.05 209.19 122.67 205.24 115.59 199.1 109.34 194.31 106.9 
M 189.65 121.53 202.55 119.84 
M 189.25 125.09 189.27 125.09 
M 190.28 125.04 201.96 124.47 
M 192.55 128.35 202.4 129.9 
M 200.05 183.08 204.39 180.43 209.96 173.63 211.41 170.53 
M 211.06 155.83 209.96 153.47 204.39 146.67 200.05 144.02 
M 214.11 197.06 211.95 192.3 206.77 185.8 202.73 183.27 
M 208.71 196.47 209.74 196.31 
M 207.77 119.79 213.22 115.11 217.14 109.2 217.14 105.54 213.22 99.64 207.77 94.95 
M 197.29 103.85 210.29 102.87 
M 197.89 107.89 210.24 107.5 
M 199.66 110.65 210.55 111.65 
M 221.19 156.33 223.93 149.71 223.93 145.05 220.81 137.53 215.98 130.88 212.21 128.29 
M 208.68 144.06 218.3 142.17 
M 208.96 147.07 218.62 147.24 
M 209 151.38 218.07 153.58 
M 216.57 197.28 220.21 192.3 223.31 184.86 223.31 180.25 220.21 172.8 217.5 169.1 
M 208.43 179.19 217.83 176.73 
M 208.01 182.31 218.07 182.66 
M 208.05 186.58 217.5 187.75 
M 218.23 112.94 223.75 111.53 230.82 107.93 235.39 103.84 235.39 101.32 230.82 97.24 223.75 93.63 222.36 93.28 
M 213.47 100.39 227.12 99.05 
M 215.73 102.34 226.81 102.05 
M 215.73 105.15 226.82 106.13 
M 222.81 146.02 225.98 144.61 232.31 138.98 236.4 132.6 236.4 128.65 232.31 122.27 225.98 116.63 221.03 114.43 
M 216.76 127.85 228.57 125.61 
M 216.36 130.71 228.7 130.57 
M 217.55 133.81 228.93 135.25 
M 224.07 184.93 228.47 182.44 234.11 176.08 237.75 168.87 237.75 164.41 235.53 160.01 
M 234.22 157.42 228.47 150.83 224.07 148.35 
M 221.47 167.03 230.72 166.82 
M 220.24 170.16 230.66 171.62 
M 236.32 197.87 234.53 194.18 229.23 187.99 225.1 185.57 
M 230.19 197.96 231.37 197.69 
M 233.75 103.88 237.74 103.02 243.14 100.7 246.63 98.07 246.63 96.45 243.14 93.82 240.05 92.49 
M 229.17 95.77 240.62 94.75 
M 230.74 97.57 240.14 96.79 
M 232.86 98.64 240.59 99.61 
M 234.93 129.64 237.44 128.61 243.08 123.94 246.71 118.66 246.71 115.38 243.08 110.1 237.44 105.43 233.75 103.91 
M 229.03 114.23 240.14 113.29 
M 228.61 116.99 240.23 117.5 
M 228.69 119.69 240.55 121.04 
M 236.48 167.98 240.05 165.63 244.62 159.63 247.56 152.82 247.56 148.61 244.62 141.8 240.05 135.79 236.48 133.45 
M 233.26 147.54 242.59 146.02 
M 233.56 150.57 241.78 150.3 
M 232.88 154.06 242.5 156.11 
M 242.16 197.81 244.11 195.15 247.07 188.09 247.07 183.72 244.11 176.66 239.52 170.42 236.44 168.33 
M 232.86 182.34 241.47 180.68 
M 232.9 185.47 241.28 185.54 
M 232.02 189.83 241.65 191.69 
M 245.41 118.53 249.83 117.23 255.74 113.76 259.56 109.83 259.56 107.39 255.74 103.46 249.83 99.99 245.38 98.68 
M 241.09 107.01 252.56 105.78 
M 240.54 108.52 252.38 108.94 
M 243.8 111.18 252.41 111.89 
M 246.51 149.73 250.63 147.83 256.3 142.6 259.96 136.68 259.96 133.01 256.3 127.09 250.63 121.86 246.2 119.82 
M 241.52 131.5 253.34 130.4 
M 242.33 134.94 253.3 135.32 
M 241.67 137.49 253.48 138.9 
M 246.96 185.99 251.09 183.62 256.37 177.58 259.78 170.72 259.78 166.48 256.37 159.63 251.09 153.58 246.96 151.22 
M 242.7 165.03 253.86 163.38 
M 243.4 168.69 253.89 168.4 
M 243.34 171.91 253.43 173.97 
M 257.34 197.86 256.14 195.41 250.99 189.4 246.96 187.05 
M 258.19 106.33 260.18 105.76 264.34 103.34 267.02 100.59 267.02 98.9 264.34 96.16 260.18 93.74 256.93 92.79 
M 253.64 98.79 262.28 97.87 
M 253.73 99.72 262.23 99.84 
M 254.16 101.5 261.68 101.39 
M 258.65 132.65 260.89 131.53 265.4 127.05 268.3 121.98 268.3 118.84 265.4 113.76 260.89 109.28 258.19 107.94 
M 254.23 117.41 262.78 116.67 
M 253.92 119.96 262.57 120.85 
M 253.7 123.13 262.74 124.54 
M 258.56 167.34 261.19 165.53 265.38 159.78 268.08 153.26 268.08 149.22 265.38 142.71 261.19 136.95 258.65 135.2 
M 254.74 147.68 263.32 146.56 
M 255.04 151.61 262.69 151.63 
M 254.64 154.64 263.29 156.03 
M 263.59 197.95 265.11 195.75 267.86 188.73 267.86 184.38 265.11 177.36 260.84 171.17 258.56 169.51 
M 254.55 183.37 262.67 181.41 
M 254.42 186.42 262.36 186.05 
M 253.88 189.98 262.89 192.3 
M 267.26 119.51 270.67 118.26 275.56 114.66 278.72 110.59 278.72 108.07 275.56 104 270.67 100.4 266.85 99 
M 262.84 107.02 273.08 105.84 
M 262.81 109.53 272.94 109.76 
M 262.85 111.35 273.15 111.91 
M 268 150.64 271.85 148.62 276.77 143.43 279.95 137.55 279.95 133.91 276.77 128.03 271.85 122.84 268 120.81 
M 263.89 133.23 274.28 131.21 
M 264.56 135.99 273.98 135.52 
M 264.41 138.35 273.94 140.23 
M 268.21 186.16 272.01 183.82 276.89 177.83 280.03 171.03 280.03 166.83 276.89 160.04 272.01 154.04 268.21 151.7 
M 264.8 165.77 274.02 163.25 
M 264.22 169.08 274.26 169.07 
M 264.34 171.98 274.32 174.39 
M 277.97 197.58 277.11 195.78 272.11 189.79 268.2 187.46 
M 275.73 104.5 277.79 103.72 281.41 100.97 283.75 97.85 283.75 95.92 282.48 94.22 
M 272.16 95.18 279.43 95.01 
M 272.24 96.42 279.42 97.26 
M 272.59 98.55 279.47 99.77 
M 278.81 133.47 281.28 132.01 285.3 127.29 287.89 121.94 287.89 118.62 285.3 113.27 281.28 108.54 278.15 106.7 
M 275.6 117.5 283.31 116.16 
M 275.1 119.79 283.01 120.38 
M 275.16 123.01 282.98 124.35 
M 278.91 167.39 281.47 165.39 285.18 159.59 287.57 153.02 287.57 148.95 285.18 142.38 281.47 136.58 278.81 134.51 
M 275.79 148.15 283.13 145.7 
M 275.63 150.95 282.77 151.07 
M 276.29 154.33 283.42 155.68 
M 285.35 197.33 286.11 196.19 288.75 189.13 288.75 184.76 286.11 177.7 282.01 171.47 278.91 169.11 
M 275.34 183.07 283.75 181.7 
M 276.23 187.25 283.98 187.34 
M 275.4 190.48 284.37 192.35 
M 286.96 117.88 289.67 116.82 294.46 113.07 297.55 108.82 297.55 106.19 294.46 101.94 289.67 98.19 285.92 96.72 
M 282.74 105.53 291.69 103.99 
M 282.43 107.8 292.06 107.26 
M 282.49 109.71 291.51 110.74 
M 287.21 149.1 290.92 147.05 295.67 141.81 298.73 135.87 298.73 132.2 295.67 126.26 290.92 121.02 287.21 118.97 
M 283.13 131.1 292.9 129.88 
M 284.09 133.52 292.93 134.4 
M 283.37 137.01 292.82 138.55 
M 287.8 184.94 291.37 182.67 296.19 176.54 299.3 169.59 299.3 165.29 296.19 158.34 291.37 152.21 287.61 149.81 
M 283.87 164.08 293.95 162.04 
M 283.66 167.73 293.73 167.04 
M 284.51 171.19 293.51 173.22 
M 298.13 196.46 297.61 195.33 292.69 189.22 288.84 186.84 
M 294.04 102.01 296.3 101.25 300.67 98.3 301.05 97.84 
M 289.14 95.87 293.12 96.19 
M 297.69 132.09 300.79 130.31 304.76 125.72 307.32 120.53 307.32 117.32 304.76 112.13 300.79 107.54 297.69 105.75 
M 295.18 116.48 302.16 114.72 
M 294.21 119.17 303.1 118.96 
M 294.24 121.8 302.47 122.48 
M 297.5 160.62 301.8 154.65 304.47 148.01 304.47 143.9 301.8 137.27 297.63 131.39 
M 295.46 141.48 299.87 140.39 
M 291.64 145.64 299.32 146.43 
M 290.88 149.31 299.96 151.28 
M 305.92 195.8 308.62 188.2 308.62 183.54 305.97 176.01 301.85 169.37 298.64 166.78 
M 295.49 181.98 304.21 179.99 
M 295.73 186.29 303.52 186.08 
M 295.33 190.02 304.26 191.42 
M 306.69 117.68 310.81 116.28 316.08 112.69 319.48 108.62 319.48 106.11 316.08 102.04 314.54 100.99 
M 302.35 105.05 312.98 103.94 
M 303.21 107.37 313.39 107.31 
M 303.01 109.56 312.81 110.59 
M 307.31 148.22 311.34 146.19 316.49 140.97 319.81 135.07 319.81 131.41 316.49 125.51 311.34 120.29 307.31 118.26 
M 303.61 130.63 314.21 128.94 
M 303.26 132.78 313.67 133.01 
M 303.91 136.74 313.48 138.14 
M 308.09 184.76 312.12 182.35 317.27 176.17 320.59 169.18 320.59 164.85 317.27 157.85 312.12 151.67 308.09 149.26 
M 304.67 163.78 314.42 161.53 
M 304.02 166.61 314.29 167.24 
M 304.72 170.74 314.1 172.64 
M 317.91 194.64 313.26 188.84 309.43 186.45 
M 318.26 105.06 322.03 104.15 324.09 103.15 
M 318.63 130.84 321.37 129.43 325.72 124.95 328.52 119.87 328.52 116.73 325.72 111.66 321.37 107.18 318.26 105.58 
M 314.34 115.49 323.38 114.21 
M 314.49 118.25 323 117.94 
M 314.84 121.3 323.45 121.75 
M 319.4 166.67 322.85 164.5 327.57 158.56 330.62 151.85 330.62 147.69 327.57 140.97 322.85 135.04 319.17 132.72 
M 315.58 146.53 325.51 144.99 
M 316.09 150.17 325.09 149.41 
M 315.9 153.13 325.38 154.89 
M 328.54 193.32 330.32 188.65 330.32 184.25 327.61 177.15 323.42 170.88 320.14 168.43 
M 316.6 182.88 325.9 180.89 
M 317.48 186.79 325.79 186.43 
M 316.76 189.61 325.94 192.2 
M 329.76 119.26 333.95 117.93 339.32 114.53 342.79 110.69 342.79 108.31 341.79 107.2 
M 325.86 107.41 336.14 106.65 
M 325.51 109.15 336.43 109.08 
M 326.16 111.76 336.3 112.14 
M 329.99 149.72 334.13 147.72 339.44 142.59 342.86 136.78 342.86 133.19 339.44 127.38 334.13 122.25 329.99 120.25 
M 326.45 132.57 336.4 131.06 
M 326.15 134.91 336.2 135.27 
M 325.95 138.1 336.87 139.02 
M 330.41 185.59 334.44 183.25 339.59 177.27 342.91 170.5 342.91 166.31 339.59 159.54 334.44 153.56 330.41 151.23 
M 326.41 164.78 337.16 163.51 
M 326.84 168.47 337.29 168.2 
M 326.62 172.24 337.3 173.89 
M 336.18 192.12 333.66 188.97 329.95 186.66 
M 341.57 107.49 342.23 107.31 
M 341.64 133.1 344.66 131.57 349 127.18 351.8 122.21 351.8 119.13 349 114.15 344.66 109.76 341.55 108.19 
M 337.78 118.4 346.34 116.49 
M 337.83 120.44 346.48 120.85 
M 338.47 122.9 347.05 124.32 
M 341.72 167.46 344.88 165.37 349.17 159.66 351.93 153.2 351.93 149.2 349.17 142.74 344.88 137.04 341.64 134.89 
M 338.16 148.17 347.42 146.42 
M 338.81 151.2 347.07 151.41 
M 338.58 154.55 346.67 155.7 
M 349.81 190 350.45 188.32 350.45 184.11 347.89 177.31 343.91 171.3 341.72 169.64 
M 338.32 182.66 345.62 180.59 
M 338.33 185.8 346.22 186.55 
M 337.81 189.75 343.22 191.02 
M 351.48 120.04 355.33 118.72 360.26 115.33 362.25 112.93 
M 347.83 108.83 348.06 108.79 
M 347.5 110.52 353.17 110.25 
M 348.23 112.16 357.18 113.1 
M 351.63 150.2 355.48 148.24 360.41 143.19 363.58 137.48 363.58 133.95 360.41 128.24 355.48 123.2 351.63 121.23 
M 347.91 132.42 357.59 131.32 
M 348.28 135.7 358.07 135.3 
M 348.21 138.6 357.74 139.7 
M 351.15 184.8 354.85 182.55 359.6 176.78 362.66 170.25 362.66 166.21 359.6 159.68 354.85 153.91 351.15 151.66 
M 347.93 165.14 357.55 163.75 
M 347.67 168.32 357.61 168.13 
M 347.71 171.78 356.67 173.7 
M 353.83 189.35 352.54 187.69 349.53 185.76 
M 362.45 132.22 364.47 131.04 368.27 126.59 370.72 121.55 370.72 118.42 369.03 114.94 
M 358.79 117.44 366.4 116.14 
M 358.42 119.82 366.4 119.94 
M 359.08 122.51 366.07 123.51 
M 362.24 167.16 365.35 164.96 369.34 159.34 371.91 152.98 371.91 149.04 369.34 142.67 365.35 137.05 362.45 135 
M 359.69 147.49 366.84 146.5 
M 358.73 151 366.87 150.75 
M 359.54 154 367.05 155.38 
M 368.61 186.71 368.68 182.49 366.37 176 362.79 170.26 361.57 169.28 
M 356.82 180.85 364.95 179.98 
M 357.32 184.72 364.86 184.84 
M 357.18 187.65 359.83 188.37 
M 370.89 118.46 374.37 117.15 374.97 116.7 
M 371.12 148.68 374.57 146.73 378.99 141.72 381.83 136.05 381.83 132.55 378.99 126.88 374.57 121.87 371.12 119.92 
M 368.19 131.66 376.94 129.55 
M 368.2 134.5 376.34 133.94 
M 367.41 137.16 376.23 139.11 
M 369.94 182.33 373.28 180.13 377.56 174.49 380.32 168.11 380.32 164.15 377.56 157.77 373.28 152.13 370.99 150.62 
M 367.02 162.41 374.82 161.08 
M 366.78 165.99 375.32 166.04 
M 367.16 169.32 375.38 171.13 
M 371.34 186.18 370.14 184.6 367.85 183.08 
M 380.29 128.86 381.94 127.82 385.44 123.38 386.92 120.1 
M 376.4 119.77 383.62 120.25 
M 381.54 165.25 384.22 163.1 387.65 157.58 389.86 151.34 389.86 147.47 387.65 141.22 384.22 135.71 381.54 133.55 
M 378.45 146.04 385.53 144.95 
M 378.51 149.07 385.56 148.88 
M 379.4 152.13 385.64 154.56 
M 383.22 183.73 383.92 181.6 383.92 177.62 381.81 171.19 379.33 166.9 
M 376.11 175.77 380.46 174.58 
M 373.26 180 379.97 179.15 
M 373.5 182.46 379.79 184.37 
M 388.73 143.52 391.12 142.16 395.42 137.29 398.19 131.77 398.19 128.36 395.42 122.84 394.95 122.31 
M 384.59 127.33 393.22 125.34 
M 384.85 129.95 392.73 129.61 
M 384.43 132.38 393 134.11 
M 385.75 177.48 389 175.25 393.17 169.54 395.86 163.07 395.86 159.07 393.17 152.6 389.07 146.97 
M 387.97 156.49 390.57 155.83 
M 384.93 161.31 390.68 160.75 
M 383.15 164.12 391.37 165.52 
M 389.24 182.38 387.67 180.22 384.22 177.86 
M 396.42 124.46 398.55 123.3 
M 394.9 156.34 397.13 154.66 400.66 149.31 402.94 143.26 402.94 139.52 400.66 133.47 397.2 128.23 
M 394.74 137.53 398.52 136.61 
M 391.67 141.25 399.1 141.32 
M 391.97 144.8 398.87 146.21 
M 398.64 180.17 400 176.08 400 171.66 397.63 164.52 394.9 159.83 
M 392.92 169.28 395.89 168.59 
M 389.53 173.85 395.24 173.87 
M 388.84 177.18 395.22 179.43 
M 405.66 140.75 409.44 138.9 414.27 134.13 417.39 128.74 417.39 128.52 
M 401.65 124.39 402.19 124.32 
M 401.61 127.11 411.3 126.86 
M 402.54 130.27 411.61 131.45 
M 403.01 174.03 406.69 171.77 411.4 166 414.44 159.47 414.44 155.42 411.4 148.89 406.69 143.12 403.01 140.86 
M 399.39 153.78 409.36 152.2 
M 399.49 157.89 408.84 157.14 
M 398.92 161.1 408.79 161.95 
M 407.17 178.07 406.72 177.48 402.98 175.02 
M 414.77 156.02 418.03 153.96 422.21 148.69 423.13 146.66 
M 423.13 135.1 422.21 133.07 418.94 128.94 
M 411.55 137.76 420.21 136.54 
M 411.23 140.92 420.33 141.29 
M 411.26 144.37 420.44 145.34 
M 422.29 174.35 422.29 171.48 419.5 164.49 415.16 158.33 413.35 157.04 
M 408.34 170.28 416.87 168.16 
M 408.18 173.91 416.79 173.14 
M 409.02 177.06 410.28 177.3 
M 420.6 155.71 423.13 155.21 
M 420.31 157.41 423.13 157.44 
M 420.78 160.48 423.13 160.85 
M 134.93 186.91 136.76 186.98 
M 153.28 199.3 151.07 194.12 146.73 188.33 
M 156.86 200.02 158.31 196.99 160.08 190.49 
M 158.93 199.71 168.04 198.03 
M 178.16 201.73 188.48 202.46 
M 198.53 206.92 195.14 204.24 
M 204.07 95.43 204.07 95.43 
M 198.84 197.96 208.71 196.47 
M 198.95 202.13 209.24 201.67 
M 199 206.13 208.76 207.92 
M 220.94 209.82 219.33 207.42 216.1 205.02 
M 235.65 210.27 237.95 205.55 237.95 201.2 236.32 197.87 
M 220.59 200.19 230.19 197.96 
M 220.84 207.15 231.67 208.97 
M 240.05 92.49 240.05 92.49 
M 241.57 210.2 239.92 207.88 236.72 205.63 
M 242.96 200.49 253.75 198.72 
M 242.77 204.1 253.8 204.41 
M 262.61 210.37 260.98 208.12 258.27 206.26 
M 278.89 209.77 280.33 206.75 280.33 202.55 277.97 197.58 
M 282.48 94.22 282.48 94.22 
M 279.18 204.58 282.01 202.42 285.35 197.33 
M 282.81 209.55 281.99 208.41 279.18 206.45 
M 284.76 207.59 290.76 208.97 
M 301.05 97.84 301.05 97.84 
M 299.65 204.14 301.85 202.36 305.92 195.8 
M 305.68 200.11 315.34 198.8 
M 320.21 204.42 323.42 202.02 327.61 195.75 328.54 193.32 
M 341.79 107.2 341.79 107.2 
M 341.3 201.23 338.4 194.89 336.18 192.12 
M 326.6 199.75 335.82 198.69 
M 342.23 107.31 342.23 107.31 
M 344.24 200.64 347.89 195.12 349.81 190 
M 343.22 191.02 345.9 191.66 
M 358.83 197.55 356.99 193.41 353.83 189.35 
M 345.94 198.49 355.13 196.66 
M 364.35 196.25 366.37 193.01 368.61 186.71 
M 359.83 188.37 364.6 189.67 
M 375.75 193.34 374.44 190.29 371.34 186.18 
M 379.3 192.39 381.81 188.03 383.22 183.73 
M 393.01 188.53 392.08 186.28 389.24 182.38 
M 380.83 191.56 383.72 191.21 
M 394.86 187.99 397.63 183.22 398.64 180.17 
M 402.19 124.32 402.19 124.32 
M 411.3 126.86 411.3 126.86 
M 410.96 183.06 407.17 178.07 
M 420.56 180.12 422.29 175.8 422.29 174.35 
M 410.28 177.3 417 178.58 
M 191.36 97.65 191.37 97.65 
M 198.26 96.43 203.54 80.67 205.39 78.01 206.73 74.85 209.48 73.07 214.16 68.71 216.52 66.86 219.91 65.97 223.07 64.65 225.93 63.01 229.55 62.32 232.68 62.09 234.16 60.55 236.38 60.17 239.98 60.79 243.34 60.26 246.37 59.03 248.21 56.37 251.93 55.67 255.06 54.46 261.49 55.31 263.94 56.02 267.38 58.25 270.44 57.72 273.71 57.42 276.73 57.51 279.15 57 282.09 56.73 285.56 56.8 289.08 57.76 291.51 58.76 294.69 59.52 297.42 59.83 301.12 60.9 304.14 61.23 308 62.34 315.54 62.89 318.33 62.01 320.15 59.7 322.63 59.35 329.63 67.4 333.23 73.61 335.86 76.13 338.3 77.71 344.54 81.16 347.38 82.93 351.68 86.17 353.45 89.45 354.27 92.01 361.48 102.65 362.17 105.33 362.69 108.88 364.21 113.51 
M 361.36 112.66 361.35 112.66 
M 196.62 96.72 197.88 95.39 198.45 93.02 
M 201.88 95.79 203.06 94.1 203.86 91.42 204.79 89.27 206.1 85.54 
M 207.16 95.03 209.37 93.16 210.31 90.9 211.05 88.55 211.57 85.08 
M 212.46 94.35 214.58 92.45 215.09 90.03 216.19 87.41 217.69 81.81 216.92 79.66 
M 217.76 93.73 219.21 91.51 220.56 88.81 222.22 86.51 222.81 84.09 224.36 79.6 
M 223.07 93.21 224.86 91.58 226.26 88.8 226.73 86.2 227.78 82.75 228.16 80.17 227.95 77.92 228.82 76 
M 228.39 92.73 230.96 91.49 232.26 88.45 234.76 81.53 234.38 80.3 
M 233.73 92.62 235.87 91.28 237.37 88.81 237.87 85.54 238.02 82.96 239.58 79.79 
M 239.07 92.51 240.47 91.18 240.99 88.25 241.99 85.23 244.11 79.52 245.49 76.71 
M 244.4 92.46 245.91 91.29 248.92 86.19 249.85 83.26 252.32 73.36 253.66 69.71 254.1 67.23 254.75 65.08 256.03 62.72 256.56 59.59 
M 249.74 92.42 251.73 90.83 253.58 88.43 256.54 83.76 257.79 75.55 258.98 69.31 259.67 67.1 259.97 64.46 
M 255.08 92.35 257.61 90.63 258.4 87.94 259.39 85.66 260.29 82.88 260.87 79.68 262.82 76.2 264.3 72.85 
M 260.42 92.24 263.06 90.53 263.98 87.73 264.14 85.52 265.86 79.47 268.06 76.69 268.8 73.26 270.63 70 271.35 67.8 271.11 65 
M 265.76 92.3 268.15 91.04 269.41 88.35 271.87 81.95 272.97 79.88 274.94 78.08 276.86 75.77 279.09 68.26 
M 271.08 92.75 273.01 91.4 274.29 88.48 278.05 82.41 280.97 78.13 282.46 72.07 284.23 69.19 284.41 64.9 
M 276.39 93.2 278.9 91.66 280.88 89.31 282.29 86.91 283.77 83.4 284.89 81.43 
M 281.66 94.09 284.75 92.24 286.52 90.12 287.37 87.63 288.74 85.26 293.29 74.16 295.42 71.55 
M 286.92 94.97 289.23 93.53 292.4 88.71 295.3 83.28 296.4 80.35 297.77 78.44 299.22 75.68 300.29 73.12 303.02 69.34 
M 292.16 95.99 294.12 95.19 297.68 90.03 300.49 84.88 301.83 82.01 304.31 79.98 305.91 76.34 308.69 73.56 
M 297.39 97.07 299.98 95.88 301.7 93.39 303.79 91.17 304.86 88.81 306.41 86.81 308.25 83.95 309.32 80.65 311.33 77.2 313.11 72.99 
M 302.61 98.21 305.21 96.41 307.35 93.91 309.08 91.53 310.77 90.48 312.9 88.57 315.19 85.87 317.34 82.38 320.5 75.77 323.57 70.75 
M 307.81 99.42 310.78 97.71 312.7 95.77 314.03 93.26 315.83 91.31 319.09 89.48 321.48 86.37 323.89 84.49 323.95 82.02 
M 313.01 100.64 316.14 98.58 317.55 96.45 318.8 93.76 320.99 91.77 323.47 89.97 326.84 88.29 329.04 86.2 330.24 81.53 330.2 78.52 331.76 76.38 
M 318.21 101.82 321.18 100.31 325.2 95.6 327.82 93.46 330.74 91.69 
M 323.42 103 326.02 102.53 328.68 100.81 331.62 97.65 333.98 94.32 335.8 92.58 
M 328.63 104.16 331.24 103.67 333.43 102.01 336.4 99.43 
M 333.84 105.3 337.23 105.24 340.09 103.19 342.21 100.19 344.12 96.87 346.29 95.21 347.85 93.2 350.71 90.68 
M 339.04 106.51 342.5 105.9 347.54 100.59 348.12 98.57 
M 344.22 107.82 348.47 106.4 350.42 104.2 352.33 101.56 
M 349.39 109.14 353.84 108.02 355.77 105.43 357.69 104.75 
M 354.51 110.65 360.73 110.8 
M 135.69 155.57 140.26 155.14 146.41 154.21 156.61 154.61 160.2 154.33 165.89 153.2 169.29 153.06 173.03 153.65 176.8 153.8 180.37 154.15 186.16 153.1 192.87 152.88 196.24 153.24 199.61 154.28 202.47 154.69 205.31 154.75 208.08 155.03 210.84 155.81 214.39 156.2 221.47 156.33 224.45 155.94 227.07 155.86 230.53 156.89 234.13 157.41 237.65 157.71 239.26 158.21 227.69 163.78 222.03 166.78 219.02 168.11 216.39 169.81 213.27 170.49 209.63 170.57 206.32 170.98 203.21 171.59 197.71 173.69 185.04 176.15 182.33 177.13 175.93 177.64 172.52 177.48 168.45 176.66 164.98 176.47 162.06 176.93 159.51 177.77 156.31 177.95 149.97 177.65 143.62 177.09 141.6 177.17 135.14 176.14 
M 135.82 157.75 140.17 157.44 143.07 156.99 146.45 156.92 153.73 157.56 156.82 157.42 159.86 157.53 162.84 157 169.52 156.81 180.39 158.28 183.58 158.29 188.9 157.98 
M 135.81 159.82 140.11 159.48 153.46 160.48 159.65 160.43 169.91 160.85 173.34 161.33 177.35 162.38 180.65 162.95 185.32 163.08 188.19 163.8 191.55 164.01 197.83 165.03 201.14 165.75 204.6 167.72 
M 135.78 162.09 137.47 162.15 140.44 161.91 146.38 162.24 153.45 163.42 163.43 164.29 166.56 165.07 
M 135.51 164.35 143.34 164.77 146.36 165.09 156.05 167.16 159.84 167.51 163.32 168.15 166.68 169.19 173.12 170.29 176.75 171.09 
M 135.25 166.48 146.62 167.77 150.18 169.04 156.33 170.7 163.8 172.25 170.16 174.54 176.6 176.5 
M 134.97 168.65 143.7 170.3 
M 134.68 170.89 137.91 171.74 141.11 172.82 
M 135 173.78 137.69 174.75 140.07 176.19 
M 203.51 213.61 209.38 219.36 211.78 223.89 217.98 240.22 215.34 241.44 212.01 242.29 208.82 243.59 205.95 242.4 202.62 240.57 198.31 239.09 195.2 239.5 189.54 241.71 186.41 240.07 183.11 235.94 180.57 232.99 178.88 231.28 172.21 226.74 163.58 213.66 160.4 210.07 154.94 204.62 
M 198.25 212.69 202.62 216.47 206.23 223.14 209.1 226.4 211.72 229.69 
M 192.99 211.76 196.63 215.8 199.31 218.35 201.68 220.92 205.44 228.05 207.84 231.09 209.77 235.01 210.82 238.93 
M 187.75 210.77 191.08 214.49 194.98 220.73 197.27 223.71 198.6 226.45 199.52 230.24 201.45 232.97 202.98 236.23 208.19 242.69 
M 182.51 209.75 185.72 214.13 188.38 216.84 190.77 220.03 192.36 222.81 196.37 232.82 197.05 235.24 
M 177.26 208.77 179.56 213.56 181.64 217.17 184.43 220.46 186.29 222.99 187.57 226.39 189.86 229.6 191.09 233.39 192.89 236.26 
M 171.99 207.88 174.11 212.67 175.88 215.9 177.67 219.88 182.67 229.38 184.95 233.33 187.35 236.61 
M 166.73 206.98 169.94 211.4 171.17 215.08 172.6 218.36 
M 161.5 205.93 164.77 210.43 167.69 216.64 170.41 219.99 
M 397.78 190.5 402.54 194.5 407.01 200.38 411.97 205.44 420.47 222.48 418.67 227.31 416.65 229.55 414.39 231.62 411.73 233.46 402.19 236.77 399.93 238.96 398.58 241.88 397.45 245.02 395.18 247.28 391.55 248 382.15 248.86 378.91 249 376.14 248.63 374.37 248.66 371.49 247.58 367.69 247.58 366.11 250.54 363.39 252.33 361.06 254.52 351.17 255.53 348.02 255.09 344.38 253.59 341.7 253.33 339.43 253.99 337.3 254.19 333.31 252.24 330.29 251.31 326.28 249.49 323.43 248.82 314.69 247.42 311.49 247.04 307.8 246.33 303.14 244.11 295.72 241.76 284.26 232.68 283.88 229.12 282.9 225.31 280.48 221.42 276.36 216.06 
M 392.7 192.14 403.9 204.21 406.95 206.94 411.46 210.02 414.64 213.71 418.12 220.35 
M 387.62 193.79 391.59 198.02 394.65 200.85 396.45 203.46 398.87 206.29 405.29 211.54 410.89 217.91 413.45 220.47 
M 382.52 195.35 385.89 199.18 388.87 202.19 393.84 208.58 396.72 211.8 400.53 213.34 403.6 219.91 405.71 222.13 408.22 224.11 412.76 230.44 
M 377.4 196.87 380.71 200.94 385.98 206.82 388.56 210.11 391.14 213.89 393.21 216.37 395.12 219.25 397.11 221.54 
M 372.28 198.37 376.11 202.05 380.79 208.37 385.67 214.05 388.39 217.47 390.14 220.34 391.38 223.62 392.87 226.63 396.39 228.85 399.46 230.11 402.91 230.88 
M 367.14 199.81 371.17 203.23 373.92 205.86 377.37 212.18 383.35 217.53 385.53 221.33 387.65 224.21 390.91 230.1 393.74 233.05 
M 362 201.26 365.4 204.75 368.34 207.3 373.04 212.14 375.12 215.69 377.63 218.71 383.33 227.93 
M 356.82 202.54 360.49 205.81 364.61 211.49 367.12 214.25 368.69 216.87 370.33 220.24 372.66 222.3 375.09 225.66 
M 351.63 203.81 354.9 207.62 357.76 210.26 360.15 213.08 368.97 226.78 376.44 231.88 378.75 238.33 379.76 241.7 382.02 246.54 
M 346.43 205.02 351.48 212.71 355.96 218.14 358.53 221.46 360.32 224.16 362.65 226.89 
M 341.23 206.2 343.93 210.59 346.44 214.07 351.28 219.4 353.09 222.56 355.65 225.35 357.56 228 359.35 231.75 359.98 234.39 
M 336.02 207.38 339.35 210.52 345.35 220.62 347.82 223.07 351.43 229.25 354.24 231.99 357.9 238.6 
M 330.81 208.55 336.15 215.9 340.37 222.44 344.41 227.88 346.65 230.18 348.52 232.4 351.05 234.5 355.25 241.39 
M 325.6 209.72 330.87 217.29 332.78 220.97 334.78 224.31 340.56 229.8 342.76 232.27 344.41 235.17 345.89 238.39 347.08 241.5 349.27 243.16 350.99 245.25 353.04 248.61 355.41 249.95 357.86 252.33 
M 320.34 210.63 325.91 217.86 327.63 221.32 329.75 224.35 332.29 227.51 334.96 230.48 337.2 233.36 338.97 235.97 340.87 239.89 341.3 243.2 
M 315.07 211.51 320.72 219.13 323.03 222 326.48 227.7 330.52 233.68 336.46 239.72 337.2 243.27 338 246.14 341.24 251.26 342.9 251.99 
M 309.8 212.32 313.07 216.56 314.85 220.27 320.63 228.75 321.82 232.35 323.91 235.47 327.03 237.79 329.5 241.23 332.39 243.98 
M 304.52 213.08 308.82 221.46 311.11 224.72 314.15 226.9 315.74 229.67 316.74 233.04 
M 299.23 213.83 301.79 218.7 303.33 222.51 305.29 225.83 307.97 228.74 311.24 231.28 
M 293.93 214.52 296.82 219.36 298.86 223.18 300.88 226.15 303.35 228.85 308.15 235.43 309.61 238.64 310.25 241.75 311.47 243.87 
M 288.64 215.21 293.72 223.83 296.65 230.54 297.91 232.63 300.38 236.04 
M 283.32 215.58 286.25 220.7 290.43 227.49 
M 422.06 129.8 426.07 129.17 432.05 126.65 435.08 125.17 437.54 123.39 443.19 119.74 446.46 118.12 449.06 116.36 451.18 114.24 454.28 112.89 456.99 112 463.07 108.64 469.26 106.37 471.62 104.62 472.74 102.09 477.88 95.82 481.18 93.92 484.65 93.13 490 90.05 485.64 100.98 483.25 103.04 481.47 105.71 480.39 109.08 479.11 112.24 477.38 114.73 476.16 117.73 475.45 121.24 473.72 123.61 471.73 125.66 469.52 127.5 468.25 130.6 465.22 132.01 463.02 134.25 462.08 137.63 460.86 140.65 460.38 144.33 459.59 147.7 458.4 150.65 456.3 152.66 454.82 155.47 453.15 158.16 452.66 161.39 450.14 167.37 449.51 170 450.65 173.07 452.44 176.52 453.29 178.78 454.69 181.39 456.83 184.39 457.84 187.02 458.41 189.76 460.79 197.17 460.07 204.15 460.18 210.89 457.81 208.04 454.38 206.66 450.91 204.96 448.91 201.65 446.73 199.81 443.51 198.83 440.27 196.63 436.99 193.77 431.36 189.24 429.17 187.11 426.32 184.79 422.06 182.28 
M 426.06 131.93 429.34 130.49 432.22 129.71 435.44 128.26 438.15 126.01 441.24 124 449.23 119.45 451.83 118.47 455.17 118.19 458.17 117.27 460.61 115.24 467.11 112.85 472.48 110.16 475.94 107.19 
M 432.42 132.64 435.11 131.81 438.59 129.99 441.56 127.85 445.16 125.76 448.37 124.26 453.98 122.42 457.4 121.99 460.47 121.33 462.41 119.61 
M 426.07 137.3 429.25 136.26 432.26 135.73 435.06 134.87 442.16 131.88 445.46 129.41 448.8 128.85 
M 429.81 140.06 435.66 138.38 438.63 136.82 442.59 135.84 446.52 134.2 449.4 132.61 
M 426.58 143.16 433.63 143.23 437.22 142.63 440.46 141.08 443.8 140.02 447.5 138.6 450.06 136.7 458.11 135.04 461.54 134.75 
M 427.09 145.84 430.44 146.35 433.97 146.61 441.34 145.69 445.08 144.83 449.16 143.57 452.71 142.06 456.21 141.24 459.39 141.09 
M 422.06 148.17 430.67 149.28 434.11 150.25 438.09 150.58 443.01 150.33 
M 427.27 151.78 431.03 152.1 434.64 152.93 438.27 153.26 442.19 153.26 
M 435.82 155.33 439.7 155.71 443.56 156.48 450.41 158.37 
M 432.04 158.02 436.64 158.04 440.92 159.11 444.17 160.55 448.42 161.17 
M 435.03 165.7 438.5 166.65 
M 430.8 167.31 437.38 169.67 440.55 169.78 448.53 174.02 
M 433.73 171.8 437.24 173.3 440.99 173.65 
M 429.63 173.79 433.26 175.21 436.83 176.39 440.67 177.39 445.1 179.35 449.85 179.45 
M 426.41 174.38 429.73 176.29 433.72 177.88 437.04 179.54 439.76 181.24 444.54 182.87 448.58 184.93 452.1 185.97 455.35 185.57 
M 430.04 178.98 436.72 183.07 439.36 184.45 442.14 186.8 
M 429.2 181.68 436.45 185.98 440.9 190.16 444.12 192.68 447.65 194.19 
M 422.06 179.66 426.14 182.08 432.17 186.48 435.37 188.59 437.58 190.91 440.74 193.17 443.79 195.8 447.11 197.93 
M 385.64 119.75 388.44 118.76 391.47 118.01 394.77 117.52 398.29 117.26 402.04 117.22 406.02 117.42 410.26 117.86 414.83 118.65 429.61 122.07 433.93 122.93 436.87 124.13 437.75 125.54 436.49 126.91 433.53 128.03 429.58 128.61 425.37 128.28 417.04 127 409.92 126.48 
M 394.22 121.88 396.53 121.66 
M 400.17 121.51 406.02 121.69 410.26 122.13 414.83 122.92 427.16 125.78 
M 43.23 157.12 43.5 156.18 44.69 153.56 46.6 150.65 49.45 147.82 53.27 145.07 57.9 142.44 62.8 139.96 67.44 137.22 72.26 133.97 77.78 130.7 83.71 127.74 96.31 122.75 102.32 120.61 107.72 118.91 118.48 116.04 122.8 119.74 124.93 123.83 127.34 127.88 130.02 131.89 132.17 135.98 133.57 140.17 135.66 148.68 135.53 153.1 135.82 157.47 135.81 161.87 134.68 170.85 135.15 175.19 135.26 183.98 134.75 188.47 133.44 193.07 130.69 197.78 117.62 197.02 108.04 195.83 91.68 192.48 84.43 190.48 77.92 188.28 71.9 185.97 66.15 183.34 60.96 180.65 56.3 177.62 
M 110.53 141.83 111.11 145.47 109.65 152.54 108.57 155.74 106.03 161.58 106.47 166.75 107.87 172.15 108.36 175.35 107.94 179.14 92.82 178.74 80.79 177.62 74.92 176.6 69.46 175.12 64.32 173.21 
M 51.42 173.93 44.15 166.81 40.69 162.91 39.32 160.67 39.88 158.03 42.3 156.69 44.75 157.83 48.55 164.59 56.4 177.54 
M 55.75 178.34 43.53 173.08 31.41 167.27 30 165.01 30.88 162.46 33.37 161.55 35.88 162.71 44.26 169.02 48.87 172.07 56.25 177.4 
M 70.22 151.58 69.22 147.78 69.51 143.86 71.05 140.24 73.68 137.32 77.12 135.41 80.99 134.73 84.88 135.34 88.36 137.17 91.05 140.04 92.66 143.63 93.03 147.54 92.1 151.36 89.98 154.67 86.9 157.12 83.2 158.43 79.26 158.47 75.53 157.23 72.41 154.85 70.22 151.58 
M 70.08 151.24 69.29 148.39 69.23 145.44 69.9 142.56 71.25 139.93 72.16 138.77 74.38 136.81 75.65 136.05 78.42 135.03 79.88 134.79 82.84 134.85 85.68 135.64 
M 72.05 150.43 71.41 148.09 71.31 146.88 71.36 145.66 71.74 143.86 
M 74.82 139.16 76.62 137.95 77.74 137.46 80.1 136.92 82.53 136.97 84.87 137.61 
M 74.02 149.61 73.71 148.71 73.44 146.83 73.75 144.55 
M 76.18 140.81 77.6 139.85 78.47 139.47 80.32 139.04 82.22 139.08 84.05 139.58 
M 76.76 148.64 76.36 147.11 76.47 145.55 76.63 145.16 
M 78.34 142.82 79.52 142.17 81.07 141.89 82.62 142.14 84.01 142.87 85.09 144.02 85.73 145.45 85.88 147.02 85.51 148.55 84.66 149.87 83.43 150.85 81.95 151.38 80.37 151.39 78.88 150.9 77.63 149.94 76.76 148.64 
M 77.08 145.24 76.39 146.63 
M 80.29 142.03 79.39 143.84 
M 78.95 144.71 76.89 148.83 
M 81.9 142.02 77.85 150.11 
M 83.27 142.48 79.04 150.95 
M 84.44 143.34 80.42 151.39 
M 85.38 144.67 82.04 151.34 
M 85.87 146.9 84.19 150.25 
M 44.28 154.48 48.79 158.99 
M 46.73 150.52 51.97 155.77 
M 50.02 147.41 53.88 151.27 
M 53.79 144.78 58.45 149.43 
M 57.88 142.45 63.83 148.41 
M 62.13 140.3 67.93 146.1 
M 66.19 137.96 70.28 142.04 
M 70.08 135.44 72.87 138.22 
M 73.99 132.94 76.7 135.65 
M 78.03 130.57 81.59 134.14 
M 82.3 128.44 88.02 134.16 
M 86.78 126.51 91.56 131.29 
M 91.36 124.69 95.91 129.24 
M 95.96 122.88 100.64 127.56 
M 100.68 121.19 105.9 126.42 
M 105.5 119.61 109.98 124.09 
M 110.46 118.16 114.14 121.84 
M 115.52 116.82 120.48 121.78 
M 119.93 156.93 125.23 154.37 127.54 154.21 
M 73.65 158.99 74.17 159.79 74.5 160.92 74.57 163.26 74.09 164.33 71.43 167.73 
M 103.06 185.1 104.11 183.36 104.67 181.98 105.06 179.46 104.64 175.94 104.39 175.02 103.07 172.93 
M 127.28 135.5 127.9 138.98 
M 97.97 161.45 96.47 161.84 
M 70.4 141.36 69.42 143.32 68.36 146.21 68.25 147.67 68.54 148.62 
M 99.84 192.18 99.49 191.15 99.56 190.08 100.05 189.13 104.1 185.94 104.74 185.02 105.19 183.97 105.71 181.3 105.66 180.28 105.2 178.38 
M 85.07 190.66 86.17 190.54 86.77 190.79 87.42 191.31 
M 96.41 166.24 96.27 167.75 95.57 170.01 93.03 173.36 
M 110.91 168.89 109.63 168.43 108.01 168.12 103.22 168.36 101.04 169 97.66 170.4 
M 123.84 121.74 122.13 124.28 120.99 125.61 117.74 127.35 
M 113.92 185.14 112.69 186.37 111.77 186.81 110.38 187.18 110.11 187.04 110.07 186.71 
M 54.84 173.63 54.59 173.08 54.55 172.31 55.04 170.25 55.53 169.58 
M 94.6 192.74 94.61 193.09 
M 53.33 172.48 54.98 170.1 
M 91.8 152.16 91.77 151.88 
M 92.76 148.63 93.49 148.58 94.32 149.18 
M 56.51 160.51 57.18 160.14 57.72 159.57 58.16 158.77 58.43 157.84 58.31 154.15 57.94 152.87 57.37 151.79 56.75 151.19 55.63 150.85 54.58 151.14 
M 84.05 189.78 85.65 190.15 86.9 190.81 87.46 191.32 
M 102.84 178 103.17 176.18 103.11 175.24 102.29 173.28 101.94 171.75 101.64 171.38 100.98 171.11 
M 99.24 165.05 98.35 165.92 95.94 170.53 94.21 172.2 
M 65.51 149.42 66.59 149.26 67.54 149.61 
M 91.86 124.49 92.91 125.19 93.74 126.02 94 126.66 94.22 128.06 94.08 130.1 94.23 131 
M 100.17 194.25 99.32 193.44 98.78 192.67 98.46 191.91 98.35 191.12 98.85 189.27 99.6 188.39 100.6 187.74 
M 106.2 149.36 106.74 149.56 109.42 149.46 112.06 149.72 114.1 150.79 114.76 150.88 
M 131.02 174.33 130.12 173.96 127.87 172.1 127.23 171.45 126.97 170.65 
M 124.19 194.25 125.17 194.89 125.57 195.45 126.57 197.54 
M 130.01 188.79 129.59 188.44 128.3 185.91 127.17 184.72 126.13 183.9 125.77 183.34 125.69 182.25 125.85 181.88 126.34 181.42 
M 107.96 124.69 105.47 125.03 102.62 125.84 100.69 125.79 99.97 125.91 99.18 126.21 95.82 128.2 
M 128.38 148.88 127.23 149.96 126.64 151.02 126.81 152.4 127.71 153.76 
M 109.78 145.86 113.7 144.95 116.02 144.1 116.57 144.26 117.16 144.97 
M 58.58 179.13 58.2 177.99 56.02 175.8 54.5 173.97 54.19 173.37 54.19 172.6 54.86 170.79 
M 106.11 146.71 108 147.89 108.74 148.09 112.52 148.46 115.14 149.07 
M 62.74 181.58 62.6 179.41 62.44 178.51 62.04 177.58 57.82 173.66 56.29 171.88 55.48 170.31 
M 77.76 184.28 79.88 183.51 81.76 182.12 82.81 180.9 84.12 178.51 84.61 178.25 85.78 178.4 
M 57.36 169.07 57.37 168.43 57.7 167.91 59.85 166.7 61.04 166.34 62.34 166.2 63.8 166.49 
M 108.3 170.31 104.62 170.05 102.77 169.72 102.02 169.85 100.2 170.53 97.74 170.62 
M 107.23 120.09 105.71 119.54 
M 114.94 179.32 113.52 178.68 111.66 178.42 110.74 178.09 108.91 177.11 107.35 175.48 104.83 173.44 104.34 172.9 104.02 171.82 
M 93.46 177.22 93.25 179.11 92.85 180.01 92.25 180.83 91.52 181.37 90.69 181.7 88.02 182.54 87.05 182.64 
M 125.84 172.18 126.58 172.08 126.75 171.92 127 170.16 126.9 169.64 
M 116.46 146.5 117.73 146.77 118.99 147.28 119.77 148.05 120.42 149.31 
M 134.97 164.38 132.45 164.79 131.53 165.11 130.76 165.55 128.83 167.15 127.58 167.74 126.87 167.77 
M 57.83 142.76 56.93 142.99 
M 112.69 143.97 113.78 143.83 115.85 142.79 116.43 143.23 
M 112.58 130.92 111.61 131.8 109.35 133.18 108.33 133.65 107.17 133.74 104.63 133.35 101.39 132.13 99.47 131.84 97.11 131.19 
M 133.93 191.33 130.49 190.59 129.96 190.35 128.95 189.36 127.76 186.37 
M 129.76 169.75 127.69 169.14 126.81 169.27 126.6 169.09 
M 84.38 172.15 84.22 172.91 85.53 175.27 
M 53.57 155.92 52.97 156.54 
M 123.53 159.66 125.56 158.93 126.25 158.83 128.34 159.12 129.49 158.97 
M 103.5 148.64 103.03 150.67 101.98 152.68 102.25 153.5 103.33 154.39 
M 101.99 176.41 102.17 175.32 102.06 174.54 101.3 173.15 100.94 171.33 100.51 170.99 99.29 170.67 
M 118.94 178.25 118.67 179.28 118.34 179.4 117.11 179.22 113.96 178.17 
M 58 165.11 62.43 164 63.48 164.45 64.54 165.5 
M 116.36 158.85 116.82 158.2 117.37 157.87 119.32 158.27 120.29 157.84 
M 89.95 181.09 87.39 182.26 86.85 182.12 86.91 181.69 
M 121.81 159.28 125.19 157.79 127.69 157.41 128.48 156.88 128.73 156.35 
M 88.15 186.79 88.88 187.83 89.64 188.16 90.32 188.05 91.66 187.07 
M 109.64 150.53 112.11 150.78 113.43 151.09 114.92 150.96 115.94 150.7 
M 103.56 153.19 103.95 153.79 104.64 154.03 106.01 153.77 106.64 153.23 
M 110.58 160.38 110.71 156.77 111.39 153.81 111.78 152.96 112.86 151.41 114.07 151.09 
M 64.19 150.56 66.01 149.73 66.67 149.64 67.53 150.02 68.51 150.99 
M 73.87 133.02 74.25 134.29 74.32 136.97 
M 100.39 165.57 99.25 166.4 98.33 167.42 96 170.73 94.5 171.97 
M 70.5 164.99 70.25 165.73 68.9 167.64 67.54 170.22 67.26 171.33 67.5 172.39 67.36 173.13 
M 108.12 165.33 106.9 165.07 105.5 165.22 103.06 166.01 99.35 168.2 97.28 169.83 96.14 170.94 
M 99.7 171.59 99.57 171.18 99.29 170.92 98.41 170.68 97.47 170.7 95.94 171.11 
M 107.37 160.34 105.84 159.59 105.04 159.65 104.4 159.93 103.81 160.43 101.09 163.99 99.17 165.62 98.29 166.59 96.6 169.58 
M 112.5 164.34 111.82 162.8 111.51 161.36 112.49 158.88 112.58 156.82 113.48 153.35 114.13 151.94 
M 97.44 155.34 99.39 157.38 99.92 158.56 99.95 159.14 99.39 160.43 98.85 160.99 97.85 161.64 97.27 161.82 
M 125.68 147.54 125.58 148.68 126.48 151.88 127.56 153.48 
M 78.02 130.58 79.11 131.45 79.53 132.1 79.42 132.58 78.97 132.93 
M 93.72 176.96 93.55 178.81 93.26 179.73 92.03 181.18 91.24 181.6 87.93 182.62 87.14 182.72 
M 96.78 176.81 95.99 177.27 95.4 177.91 94.51 180.51 94.08 181.06 93.45 181.52 92.63 181.82 90.21 182.35 
M 88.03 188.37 88.26 189.73 89.26 191.19 89.47 191.87 
M 56.98 177.31 55.06 175.23 
M 53.89 173.35 54 172.49 54.99 170.22 
M 115.91 144.89 116.61 145.02 118.11 146.55 119.27 147.44 
M 93.39 164.66 93.38 168.9 92.95 170.54 92.65 171.13 90.79 173.33 90.1 175.02 
M 48.25 164.08 49.81 163.16 51.49 161.89 54.75 160.88 57.16 159.8 57.68 159.24 58.32 157.54 
M 62.65 172.16 61.02 169.06 61.17 168.74 61.62 168.44 62.18 168.31 62.83 168.39 
M 110.06 138.14 108.26 138.53 104.83 140.94 101.51 142.72 
M 82.76 133.25 82.35 132.37 82.81 131.96 84.02 131.43 86.43 131.11 
M 108.49 144.98 109.4 144.98 112.1 144.18 113.87 143.89 115.73 142.96 116.13 142.99 
M 116.29 160.99 115.79 159.76 115.96 158.88 116.83 157.66 118.66 155.88 
M 116.51 145.98 117.54 146.32 119.15 147.36 119.72 147.96 120.22 148.87 
M 94.99 183.19 92.39 183.74 88.21 183.7 
M 132.98 159.55 131.76 161.08 131.21 162.19 
M 95.82 123.93 95.79 125.01 95.48 126.58 94.66 128.2 94.35 129.2 94.19 130.5 94.34 131.3 
M 64.73 176.29 64.68 172.31 63.89 170.4 63.23 169.59 
M 121.93 119 120.98 120.14 119.73 121.19 119.1 121.58 117.9 121.96 
M 69.41 180.52 69.39 178.89 68.85 177.9 68.87 177.49 
M 67.73 145.18 67 146.05 66.01 146.2 61.27 144.41 59.02 144.02 57.79 144.13 55.37 143.88 
M 128.95 161.15 129.99 161.89 130.19 162.2 130.19 162.88 129.42 163.74 128.14 164.57 127.38 164.84 
M 127.41 148.02 126.66 149.06 126.34 150.52 126.69 152.3 127.67 153.67 
M 95.36 123.12 95.57 123.81 95.56 125.8 95.24 127.09 94.47 128.61 94.18 130.46 
M 88.53 191.4 88.62 191.64 
M 87.6 158.88 86.47 157.28 
M 45.56 173.87 49.75 176.68 53.91 179.06 58.22 181.12 62.68 182.9 71.9 185.97 
M 61.44 182.4 61.3 180.83 
M 46 174.18 46.04 174.06 
M 119.23 115.77 128.36 124.89 
M 125.88 113.87 137.25 125.25 
M 132.52 111.98 139.14 118.59 
M 139.15 110.06 146.74 117.65 
M 145.84 108.21 154.68 117.05 
M 152.61 106.44 160.76 114.59 
M 159.47 104.75 169.72 115 
M 166.37 103.11 178.94 115.68 
M 173.4 101.6 183.8 112 
M 180.43 100.09 192.68 112.34 
M 187.41 98.53 195.24 106.36 
M 194.52 97.09 205.26 107.84 
M 201.78 95.81 211.08 105.11 
M 209.27 94.76 219.13 104.63 
M 216.86 93.82 228.18 105.13 
M 224.65 93.05 231.26 99.67 
M 232.78 92.64 245.51 105.37 
M 241.16 92.48 248.03 99.36 
M 249.64 92.42 262.34 105.12 
M 258.05 92.29 265.52 99.76 
M 266.68 92.38 277.75 103.45 
M 276.01 93.17 286.42 103.58 
M 286.24 94.85 295.57 104.19 
M 296.9 96.97 308.84 108.91 
M 307.91 99.45 316.4 107.93 
M 319.01 102 326.86 109.85 
M 330.01 104.46 337.88 112.33 
M 341.12 107.03 349.26 115.17 
M 352.76 110.13 363.49 120.86 
M 364.89 113.71 376.28 125.11 
M 376.99 117.27 387.53 127.82 
M 388.91 120.65 397.46 129.21 
M 400.7 123.9 412.38 135.58 
M 412.53 127.19 424.45 139.11 
M 424.29 130.4 433.29 139.4 
M 237.2 130.5 237.36 129.81 238.23 129.18 238.93 129.24 238.77 129.93 237.91 130.55 237.2 130.5 
M 238.5 130.55 237.96 130.1 237.79 129.05 238.16 128.44 238.7 128.9 238.87 129.95 238.5 130.55 
M 247.56 130.52 246.91 130.25 246.43 129.29 246.61 128.61 247.26 128.88 247.73 129.84 247.56 130.52 
M 247.89 129.43 247.26 129.75 246.22 129.5 245.81 128.93 246.44 128.6 247.48 128.86 247.89 129.43 
M 249.61 145.26 250.26 144.99 251.28 145.33 251.63 145.94 250.98 146.21 249.97 145.87 249.61 145.26 
M 249.88 145.26 250.58 145.34 251.3 146.13 251.32 146.84 250.62 146.76 249.9 145.97 249.88 145.26 
M 234.84 140.2 235.55 140.28 236.27 141.06 236.29 141.77 235.59 141.69 234.86 140.9 234.84 140.2 
M 235.33 141.76 235.32 141.06 236.01 140.24 236.7 140.13 236.71 140.83 236.03 141.65 235.33 141.76 
M 242.53 146.61 242.32 145.93 242.74 144.95 243.38 144.65 243.59 145.32 243.17 146.3 242.53 146.61 
M 242.39 145.04 243.01 145.38 243.39 146.37 243.16 147.04 242.53 146.71 242.15 145.71 242.39 145.04 
M 250 159.38 250.08 160.09 249.47 160.96 248.78 161.13 248.71 160.43 249.32 159.56 250 159.38 
M 249.79 159.55 249.65 160.24 248.8 160.89 248.1 160.85 248.24 160.16 249.08 159.51 249.79 159.55 
M 262.02 152.76 262.71 152.91 263.36 153.76 263.31 154.46 262.62 154.31 261.97 153.46 262.02 152.76 
M 262.58 152.8 262.86 153.45 262.55 154.47 261.95 154.84 261.66 154.19 261.98 153.17 262.58 152.8 
M 253.83 124.13 254.16 124.75 253.93 125.79 253.36 126.21 253.03 125.59 253.26 124.55 253.83 124.13 
M 254.26 124.7 253.83 125.26 252.79 125.49 252.17 125.16 252.59 124.59 253.63 124.36 254.26 124.7 
M 262.48 120.86 262.82 121.48 262.58 122.52 262.02 122.94 261.68 122.32 261.91 121.28 262.48 120.86 
M 261.5 122.23 262.03 121.76 263.1 121.75 263.64 122.21 263.11 122.68 262.04 122.69 261.5 122.23 
M 227.07 143.26 226.37 143.35 225.48 142.76 225.29 142.08 225.99 141.99 226.88 142.58 227.07 143.26 
M 226.32 141.87 226.41 142.57 225.82 143.46 225.14 143.65 225.05 142.95 225.64 142.06 226.32 141.87 
M 264.53 160.21 264.44 159.51 265.02 158.61 265.69 158.41 265.79 159.11 265.21 160.01 264.53 160.21 
M 265.92 159.41 265.23 159.54 264.31 159 264.08 158.33 264.78 158.2 265.7 158.74 265.92 159.41 
M 224.36 173.23 223.66 173.25 222.83 172.58 222.71 171.88 223.41 171.86 224.24 172.53 224.36 173.23 
M 222.92 172.02 223.57 172.3 224.04 173.26 223.85 173.94 223.2 173.67 222.74 172.71 222.92 172.02 
M 208.3 153.32 207.83 152.79 207.82 151.73 208.27 151.19 208.74 151.72 208.75 152.78 208.3 153.32 
M 207.83 151.58 208.38 152.02 208.58 153.07 208.23 153.68 207.67 153.24 207.48 152.19 207.83 151.58 
M 215.66 172.15 216.32 172.4 216.82 173.34 216.67 174.03 216.01 173.78 215.5 172.83 215.66 172.15 
M 216.97 173.17 216.28 173.32 215.35 172.8 215.1 172.14 215.8 171.99 216.73 172.51 216.97 173.17 
M 282.81 137.35 282.82 136.64 283.54 135.85 284.24 135.76 284.22 136.47 283.51 137.26 282.81 137.35 
M 283.78 135.78 283.77 136.49 283.06 137.29 282.36 137.38 282.37 136.68 283.08 135.88 283.78 135.78 
M 278.18 154.6 278.18 153.89 278.88 153.08 279.58 152.98 279.58 153.69 278.88 154.5 278.18 154.6 
M 279.41 154.41 278.81 154.04 278.49 153.02 278.77 152.37 279.37 152.74 279.69 153.76 279.41 154.41 
M 261.58 111.03 261.07 111.53 260.01 111.6 259.44 111.17 259.95 110.68 261.01 110.61 261.58 111.03 
M 260.2 110.35 260.66 110.89 260.64 111.96 260.17 112.49 259.72 111.95 259.73 110.88 260.2 110.35 
M 273.07 123.22 273.4 122.6 274.39 122.2 275.06 122.43 274.73 123.06 273.74 123.45 273.07 123.22 
M 273.94 122.02 274.26 122.65 273.99 123.69 273.42 124.09 273.1 123.46 273.36 122.43 273.94 122.02 
M 249.21 118.71 248.94 118.06 249.29 117.05 249.9 116.69 250.17 117.35 249.82 118.36 249.21 118.71 
M 250.36 117.58 249.73 117.89 248.69 117.62 248.3 117.04 248.93 116.73 249.96 117 250.36 117.58 
M 271.49 112.98 271.08 112.41 271.18 111.34 271.69 110.85 272.1 111.43 272 112.49 271.49 112.98 
M 270.91 111.47 271.59 111.66 272.18 112.55 272.09 113.25 271.41 113.06 270.82 112.18 270.91 111.47 
M 294.45 134.26 293.77 134.44 292.81 133.98 292.52 133.33 293.21 133.15 294.17 133.61 294.45 134.26 
M 294.12 134.3 293.46 134.05 292.96 133.11 293.11 132.42 293.77 132.67 294.28 133.61 294.12 134.3 
M 289.6 143.92 290.31 143.93 291.11 144.63 291.21 145.33 290.5 145.33 289.7 144.62 289.6 143.92 
M 289.6 144.74 290.23 144.44 291.27 144.71 291.66 145.3 291.03 145.6 290 145.33 289.6 144.74 
M 276.2 132.3 276.1 131.6 276.68 130.71 277.36 130.51 277.46 131.21 276.88 132.11 276.2 132.3 
M 277.43 130.92 277.02 131.49 275.99 131.75 275.36 131.44 275.76 130.86 276.8 130.6 277.43 130.92 
M 201.42 173.18 200.87 172.73 200.83 172.5 
M 201.71 172.16 201.78 172.57 201.42 173.18 
M 201.98 172.44 201.24 172.34 
M 201.96 172.07 201.98 172.44 
M 251.99 109.73 252.25 110.38 251.9 111.39 251.29 111.75 251.03 111.09 251.38 110.08 251.99 109.73 
M 251.69 109.93 251.86 110.61 251.37 111.56 250.72 111.83 250.55 111.14 251.04 110.19 251.69 109.93 
M 189.7 145.12 189.8 145.82 189.22 146.72 188.55 146.92 188.44 146.22 189.02 145.32 189.7 145.12 
M 188.32 146.13 188.95 145.83 189.98 146.11 190.38 146.7 189.74 147 188.71 146.72 188.32 146.13 
M 208.13 140.78 208.07 141.49 207.3 142.23 206.6 142.27 206.66 141.57 207.42 140.82 208.13 140.78 
M 207.45 142.34 207.17 141.69 207.49 140.67 208.09 140.3 208.37 140.95 208.05 141.97 207.45 142.34 
M 195.69 139.71 195.34 140.33 194.34 140.69 193.68 140.44 194.03 139.82 195.03 139.46 195.69 139.71 
M 195.5 140.02 194.84 140.28 193.83 139.93 193.48 139.31 194.14 139.05 195.15 139.41 195.5 140.02 
M 215.48 133.32 216.16 133.53 216.73 134.43 216.62 135.13 215.95 134.92 215.38 134.02 215.48 133.32 
M 215.49 133.64 216.11 133.97 216.49 134.97 216.25 135.63 215.63 135.3 215.25 134.3 215.49 133.64 
M 233.62 119.41 233.57 118.7 234.22 117.85 234.91 117.71 234.95 118.41 234.31 119.26 233.62 119.41 
M 234.21 119.37 234.04 118.68 234.53 117.73 235.18 117.47 235.35 118.16 234.86 119.1 234.21 119.37 
M 220.04 117.29 220.45 117.87 220.34 118.93 219.83 119.42 219.42 118.84 219.53 117.78 220.04 117.29 
M 219.14 118.2 219.84 118.12 220.72 118.72 220.91 119.4 220.2 119.48 219.32 118.88 219.14 118.2 
M 214.39 142.79 214.59 142.11 215.5 141.54 216.2 141.65 215.99 142.33 215.09 142.9 214.39 142.79 
M 215.08 141.44 215.46 142.03 215.32 143.09 214.79 143.55 214.4 142.96 214.55 141.9 215.08 141.44 
M 183.47 141.37 182.77 141.31 182.03 140.54 181.99 139.84 182.69 139.9 183.43 140.67 183.47 141.37 
M 182.39 141.34 182.48 140.64 183.27 139.92 183.97 139.91 183.89 140.61 183.1 141.33 182.39 141.34 
M 209.78 179.17 209.59 178.49 210.04 177.53 210.68 177.24 210.87 177.92 210.42 178.88 209.78 179.17 
M 209.86 178.93 209.98 178.23 210.8 177.55 211.5 177.56 211.39 178.26 210.57 178.94 209.86 178.93 
M 203.19 180.41 202.59 180.03 202.28 179.01 202.57 178.37 203.17 178.74 203.48 179.76 203.19 180.41 
M 203.54 178.91 203.12 179.48 202.08 179.71 201.46 179.38 201.88 178.81 202.92 178.58 203.54 178.91 
M 171.94 139.12 172.59 139.39 173.07 140.34 172.9 141.02 172.25 140.76 171.77 139.81 171.94 139.12 
M 171.76 139.6 172.43 139.82 172.98 140.73 172.86 141.43 172.19 141.21 171.64 140.29 171.76 139.6 
M 180.84 151.62 180.98 150.93 181.83 150.27 182.53 150.31 182.39 151 181.55 151.66 180.84 151.62 
M 181.26 151.66 181.43 150.97 182.31 150.36 183.01 150.44 182.84 151.12 181.96 151.73 181.26 151.66 
M 185.04 134.04 184.58 133.51 184.58 132.44 185.04 131.91 185.5 132.44 185.5 133.51 185.04 134.04 
M 184.26 133.2 184.85 132.81 185.91 132.93 186.38 133.46 185.8 133.85 184.74 133.73 184.26 133.2 
M 187.04 122.04 186.92 122.73 186.09 123.41 185.38 123.39 185.5 122.69 186.33 122.02 187.04 122.04 
M 187.02 122.65 186.36 122.92 185.36 122.57 185 121.95 185.66 121.69 186.67 122.04 187.02 122.65 
M 166.25 128.45 165.98 129.1 165.02 129.57 164.34 129.4 164.61 128.74 165.56 128.27 166.25 128.45 
M 165.24 129.73 165.07 129.05 165.55 128.1 166.21 127.83 166.38 128.52 165.89 129.47 165.24 129.73 
M 178.2 123.63 177.49 123.67 176.65 123.01 176.51 122.32 177.22 122.28 178.06 122.94 178.2 123.63 
M 178.05 123.4 177.36 123.23 176.74 122.37 176.8 121.66 177.49 121.83 178.11 122.69 178.05 123.4 
M 259.6 102.94 259.53 103.64 258.76 104.38 258.06 104.42 258.12 103.71 258.89 102.97 259.6 102.94 
M 258.99 102.88 259.06 103.58 258.46 104.46 257.78 104.64 257.7 103.94 258.3 103.06 258.99 102.88 
M 265.25 97.73 265.83 98.14 266.07 99.18 265.74 99.81 265.17 99.39 264.92 98.35 265.25 97.73 
M 266.3 98.9 265.6 99 264.7 98.43 264.5 97.75 265.2 97.65 266.1 98.22 266.3 98.9 
M 272.43 104.24 272.89 104.78 272.87 105.84 272.39 106.37 271.94 105.83 271.96 104.76 272.43 104.24 
M 272.8 104.59 272.67 105.28 271.83 105.94 271.12 105.91 271.26 105.21 272.1 104.55 272.8 104.59 
M 160.83 146.34 160.14 146.18 159.51 145.32 159.57 144.62 160.26 144.78 160.89 145.64 160.83 146.34 
M 161.01 145.42 160.35 145.68 159.34 145.34 158.99 144.73 159.64 144.46 160.65 144.81 161.01 145.42 
M 173.09 150.16 173.79 150.24 174.51 151.03 174.53 151.74 173.83 151.65 173.11 150.87 173.09 150.16 
M 174.31 151.59 173.73 151.19 173.46 150.16 173.78 149.52 174.36 149.93 174.62 150.96 174.31 151.59 
M 228.9 109.67 228.2 109.69 227.37 109.01 227.25 108.32 227.96 108.3 228.78 108.97 228.9 109.67 
M 228.48 109.7 227.96 109.22 227.85 108.16 228.25 107.58 228.77 108.06 228.88 109.12 228.48 109.7 
M 241.12 107.16 240.42 107.1 239.67 106.34 239.63 105.64 240.33 105.69 241.08 106.46 241.12 107.16 
M 240.99 106.94 240.34 106.65 239.88 105.69 240.07 105.01 240.72 105.29 241.18 106.26 240.99 106.94 
M 240.69 114.22 240.64 113.52 241.29 112.67 241.98 112.52 242.03 113.23 241.38 114.08 240.69 114.22 
M 240.81 114 241.08 113.34 242.03 112.86 242.72 113.03 242.45 113.68 241.5 114.17 240.81 114 
M 225.1 122.68 225.59 122.17 226.65 122.06 227.23 122.47 226.74 122.98 225.68 123.09 225.1 122.68 
M 225.7 121.91 226.26 122.34 226.47 123.39 226.12 124 225.56 123.57 225.35 122.52 225.7 121.91 
M 241.67 121.16 242.31 121.45 242.76 122.42 242.57 123.1 241.92 122.81 241.47 121.84 241.67 121.16 
M 242.8 122.58 242.12 122.39 241.53 121.49 241.63 120.79 242.3 120.99 242.89 121.88 242.8 122.58 
M 210.31 112.01 210.47 112.7 209.96 113.64 209.31 113.89 209.15 113.21 209.65 112.26 210.31 112.01 
M 210.56 112.65 210.02 113.1 208.95 113.08 208.43 112.6 208.97 112.15 210.04 112.17 210.56 112.65 
M 203.19 117.54 203.85 117.28 204.86 117.64 205.21 118.25 204.55 118.51 203.55 118.15 203.19 117.54 
M 203.39 117.86 204.07 117.67 205.03 118.13 205.32 118.78 204.64 118.97 203.67 118.51 203.39 117.86 
M 194.45 179.4 193.93 178.92 193.8 177.86 194.19 177.28 194.71 177.75 194.84 178.81 194.45 179.4 
M 194.3 179.15 194.1 178.47 194.55 177.5 195.2 177.21 195.39 177.89 194.94 178.86 194.3 179.15 
M 235.92 204.9 236.56 204.6 237.59 204.9 237.98 205.49 237.34 205.78 236.31 205.49 235.92 204.9 
M 237.37 204.5 237.21 205.18 236.34 205.81 235.64 205.74 235.8 205.06 236.67 204.43 237.37 204.5 
M 286.28 118.21 285.98 117.57 286.27 116.55 286.86 116.16 287.16 116.8 286.87 117.83 286.28 118.21 
M 286.48 117.99 286.34 117.3 286.88 116.38 287.55 116.14 287.68 116.84 287.14 117.76 286.48 117.99 
M 273.45 170.23 273.38 169.53 273.99 168.65 274.67 168.48 274.75 169.18 274.14 170.06 273.45 170.23 
M 273.25 169.34 273.93 169.14 274.9 169.57 275.2 170.21 274.53 170.42 273.55 169.98 273.25 169.34 
M 197.85 103.39 198.36 102.91 199.43 102.87 199.98 103.32 199.46 103.8 198.39 103.83 197.85 103.39 
M 198.11 103.45 198.75 103.16 199.77 103.46 200.15 104.05 199.51 104.34 198.49 104.04 198.11 103.45 
M 209.33 102.11 209.44 102.81 208.87 103.71 208.2 103.92 208.09 103.22 208.66 102.32 209.33 102.11 
M 209.58 103.02 208.91 103.23 207.93 102.81 207.62 102.18 208.29 101.96 209.27 102.38 209.58 103.02 
M 195.56 110.77 196.15 111.17 196.43 112.2 196.12 112.83 195.54 112.44 195.26 111.41 195.56 110.77 
M 195.06 111.58 195.77 111.56 196.6 112.23 196.72 112.93 196.01 112.95 195.18 112.27 195.06 111.58 
M 216.51 104.86 216.95 105.41 216.9 106.48 216.41 106.99 215.98 106.44 216.02 105.37 216.51 104.86 
M 217.01 105.32 216.72 105.97 215.75 106.42 215.07 106.22 215.36 105.58 216.33 105.13 217.01 105.32 
M 150.7 151.21 151.08 151.8 150.93 152.86 150.39 153.32 150.01 152.73 150.16 151.67 150.7 151.21 
M 150.44 153.07 150.31 152.38 150.86 151.46 151.53 151.24 151.66 151.93 151.11 152.85 150.44 153.07 
M 246.94 168.19 247.56 168.53 247.93 169.53 247.68 170.19 247.06 169.85 246.69 168.85 246.94 168.19 
M 246.76 169.78 247.06 169.15 248.03 168.71 248.71 168.92 248.41 169.56 247.43 169.99 246.76 169.78 
M 208.12 185.87 208.45 186.5 208.21 187.54 207.64 187.95 207.31 187.33 207.55 186.29 208.12 185.87 
M 208.41 186.3 208.13 186.95 207.18 187.42 206.49 187.24 206.77 186.59 207.72 186.12 208.41 186.3 
M 250.84 103.02 250.14 102.93 249.42 102.14 249.41 101.43 250.11 101.52 250.83 102.31 250.84 103.02 
M 250.49 101.5 250.38 102.2 249.56 102.88 248.86 102.87 248.97 102.18 249.78 101.49 250.49 101.5 
M 198.68 121.65 198.63 122.36 197.88 123.12 197.17 123.17 197.22 122.46 197.98 121.71 198.68 121.65 
M 197.13 122.56 197.75 122.23 198.79 122.46 199.21 123.03 198.59 123.36 197.55 123.13 197.13 122.56 
M 186.54 108.41 185.84 108.54 184.92 108.01 184.69 107.34 185.38 107.21 186.31 107.74 186.54 108.41 
M 185.16 107.2 185.71 107.64 185.91 108.69 185.56 109.3 185.01 108.86 184.8 107.82 185.16 107.2 
M 192.87 100.82 193.32 101.37 193.3 102.44 192.82 102.96 192.37 102.41 192.4 101.35 192.87 100.82 
M 193.27 102.58 192.74 102.12 192.58 101.07 192.96 100.47 193.5 100.93 193.65 101.99 193.27 102.58 
M 153.88 138.34 154.48 137.97 155.53 138.13 155.99 138.67 155.39 139.05 154.34 138.88 153.88 138.34 
M 155.71 138.26 155.13 138.67 154.07 138.57 153.58 138.06 154.16 137.65 155.22 137.75 155.71 138.26 
M 226.16 97.66 226.86 97.53 227.78 98.07 228.01 98.74 227.31 98.87 226.39 98.33 226.16 97.66 
M 227.15 99.01 226.88 98.36 227.22 97.34 227.82 96.98 228.1 97.64 227.76 98.65 227.15 99.01 
M 313.62 121.98 314.14 122.46 314.25 123.52 313.85 124.1 313.33 123.62 313.22 122.56 313.62 121.98 
M 314.53 122.85 313.92 123.22 312.87 123.03 312.42 122.48 313.03 122.12 314.08 122.3 314.53 122.85 
M 305.46 133.46 305.69 134.13 305.3 135.12 304.67 135.45 304.44 134.78 304.84 133.79 305.46 133.46 
M 305.87 134.59 305.17 134.69 304.27 134.11 304.07 133.43 304.77 133.33 305.67 133.91 305.87 134.59 
M 304.88 115.84 305.35 116.37 305.37 117.44 304.91 117.98 304.45 117.45 304.43 116.38 304.88 115.84 
M 304.93 116.1 305.12 116.78 304.66 117.74 304.01 118.02 303.82 117.34 304.29 116.38 304.93 116.1 
M 305.24 125.56 305.9 125.31 306.9 125.67 307.25 126.29 306.59 126.54 305.59 126.18 305.24 125.56 
M 305.43 125.93 306.1 125.71 307.09 126.13 307.39 126.77 306.72 126.98 305.74 126.56 305.43 125.93 
M 295.24 116.8 295.18 116.1 295.81 115.23 296.49 115.07 296.55 115.78 295.93 116.64 295.24 116.8 
M 295.05 115.96 295.72 115.73 296.71 116.13 297.03 116.75 296.36 116.98 295.37 116.58 295.05 115.96 
M 229.32 170.74 229.22 170.04 229.8 169.15 230.48 168.95 230.58 169.65 230 170.54 229.32 170.74 
M 229.91 170.66 229.69 169.99 230.1 169 230.73 168.68 230.95 169.35 230.54 170.34 229.91 170.66 
M 162.84 178.94 162.14 179.05 161.24 178.48 161.03 177.8 161.73 177.7 162.64 178.26 162.84 178.94 
M 162.42 179.03 161.85 178.61 161.61 177.57 161.92 176.97 
M 161.95 176.96 162.51 177.36 162.75 178.4 162.42 179.03 
M 280.64 112.23 280.81 112.91 280.34 113.86 279.68 114.14 279.51 113.45 279.98 112.5 280.64 112.23 
M 279.37 112.98 280.08 112.94 280.93 113.59 281.07 114.28 280.36 114.32 279.52 113.67 279.37 112.98 
M 281 105.18 280.51 105.68 279.44 105.77 278.87 105.35 279.37 104.84 280.44 104.76 281 105.18 
M 279.13 105.15 279.83 105.03 280.74 105.59 280.96 106.26 280.26 106.38 279.35 105.82 279.13 105.15 
M 276.45 97.4 277.15 97.33 278.02 97.94 278.2 98.63 277.49 98.7 276.62 98.09 276.45 97.4 
M 277.88 98.61 277.26 98.27 276.89 97.26 277.14 96.6 277.76 96.94 278.13 97.95 277.88 98.61 
M 265.26 91.13 264.68 90.73 264.4 89.7 264.71 89.07 265.29 89.47 265.57 90.5 265.26 91.13 
M 265.57 89.53 265.24 90.16 264.24 90.54 263.58 90.31 263.91 89.68 264.9 89.29 265.57 89.53 
M 254.56 96.32 255.12 95.88 256.18 95.92 256.7 96.41 256.15 96.85 255.08 96.8 254.56 96.32 
M 256.22 96.92 255.59 96.61 255.16 95.63 255.37 94.96 256.01 95.27 256.43 96.25 256.22 96.92 
M 220.26 95.78 219.66 96.15 218.61 95.96 218.16 95.42 218.76 95.05 219.82 95.23 220.26 95.78 
M 218.77 96.28 218.95 95.6 219.84 95 220.54 95.09 220.36 95.77 219.47 96.37 218.77 96.28 
M 254.33 178.08 254.75 178.65 254.67 179.71 254.16 180.21 253.74 179.64 253.83 178.58 254.33 178.08 
M 253.52 178.78 254.22 178.89 254.91 179.7 254.91 180.41 254.21 180.3 253.51 179.49 253.52 178.78 
M 250.54 188.86 250.83 188.22 251.8 187.77 252.48 187.96 252.19 188.61 251.22 189.06 250.54 188.86 
M 251.91 189.12 251.39 188.64 251.27 187.58 251.67 187 252.19 187.47 252.31 188.53 251.91 189.12 
M 244.66 176.12 245.36 176.03 246.25 176.61 246.45 177.29 245.75 177.39 244.85 176.8 244.66 176.12 
M 245.96 177.41 245.44 176.94 245.3 175.88 245.7 175.29 246.22 175.76 246.35 176.82 245.96 177.41 
M 239.03 170.19 238.84 169.51 239.3 168.54 239.95 168.26 240.14 168.94 239.68 169.91 239.03 170.19 
M 238.86 169.74 239.25 169.15 240.27 168.85 240.91 169.15 240.53 169.74 239.5 170.04 238.86 169.74 
M 254.48 85.39 254.93 85.94 254.89 87 254.42 87.52 253.97 86.97 254 85.91 254.48 85.39 
M 253.64 86.38 254.33 86.23 255.27 86.74 255.52 87.4 254.83 87.55 253.89 87.04 253.64 86.38 
M 247.24 90.62 246.63 90.26 246.31 89.24 246.59 88.59 247.19 88.96 247.52 89.97 247.24 90.62 
M 247.69 89.85 246.98 89.85 246.17 89.16 246.07 88.46 246.77 88.46 247.58 89.15 247.69 89.85 
M 144.61 181.1 144.07 180.64 143.92 179.59 144.29 178.99 144.83 179.45 144.99 180.51 144.61 181.1 
M 143.81 180.55 144.21 179.96 145.24 179.69 145.88 180 145.48 180.58 144.44 180.86 143.81 180.55 
M 203.24 91.83 203.05 92.51 202.16 93.1 201.46 93.01 201.65 92.33 202.54 91.74 203.24 91.83 
M 201.7 92.91 202.11 92.33 203.14 92.07 203.77 92.4 203.36 92.97 202.33 93.23 201.7 92.91 
M 145.24 191.89 145.54 191.25 146.51 190.82 147.19 191.03 146.89 191.66 145.91 192.1 145.24 191.89 
M 145.55 191.92 145.98 191.36 147.02 191.15 147.64 191.5 147.21 192.05 146.16 192.27 145.55 191.92 
M 234.37 95.21 234.93 94.78 235.99 94.83 236.5 95.32 235.94 95.76 234.88 95.7 234.37 95.21 
M 236.17 95.62 235.47 95.52 234.77 94.71 234.77 94.01 235.47 94.11 236.17 94.92 236.17 95.62 
M 145.99 202.16 145.74 202.26 
M 144.22 201.87 143.98 201.46 144.64 201.19 145.64 201.55 145.99 202.16 
M 145.8 201.8 145.13 202.02 144.14 201.61 143.83 200.97 144.5 200.75 145.49 201.17 145.8 201.8 
M 155.08 192.77 155.4 193.4 155.15 194.44 154.57 194.85 154.25 194.22 154.51 193.18 155.08 192.77 
M 154.08 194.13 154.61 193.67 155.68 193.67 156.22 194.13 155.68 194.59 154.62 194.59 154.08 194.13 
M 265.55 77.11 264.85 77.2 263.96 76.61 263.77 75.93 264.47 75.84 265.36 76.43 265.55 77.11 
M 264.4 77.29 264.41 76.58 265.12 75.79 265.82 75.69 265.81 76.4 265.1 77.2 264.4 77.29 
M 242.98 80.74 243.67 80.86 244.35 81.69 244.33 82.4 243.63 82.28 242.96 81.45 242.98 80.74 
M 243.47 82.36 243.41 81.66 244.04 80.8 244.73 80.64 244.79 81.34 244.16 82.21 243.47 82.36 
M 254.2 73.93 254.83 73.6 255.87 73.84 256.28 74.42 255.65 74.74 254.62 74.5 254.2 73.93 
M 254.46 73.93 255.17 73.93 255.99 74.61 256.09 75.31 255.39 75.32 254.57 74.63 254.46 73.93 
M 205.6 206.19 206.25 205.9 207.27 206.21 207.65 206.81 207 207.09 205.98 206.78 205.6 206.19 
M 206.72 207.3 206.43 206.66 206.73 205.64 207.32 205.25 207.62 205.9 207.32 206.92 206.72 207.3 
M 201.89 199.67 201.58 199.03 201.86 198 202.45 197.61 202.76 198.24 202.48 199.27 201.89 199.67 
M 201.88 197.88 202.32 198.43 202.27 199.5 201.79 200.01 201.35 199.45 201.4 198.39 201.88 197.88 
M 202.46 110.47 203.14 110.26 204.12 110.69 204.42 111.32 203.75 111.53 202.77 111.11 202.46 110.47 
M 203.89 110.22 203.7 110.9 202.81 111.49 202.11 111.4 202.3 110.72 203.19 110.13 203.89 110.22 
M 210.7 93.76 211.4 93.71 212.26 94.35 212.41 95.04 211.7 95.09 210.85 94.45 210.7 93.76 
M 211.77 93.62 211.8 94.32 211.13 95.16 210.44 95.29 210.41 94.58 211.08 93.75 211.77 93.62 
M 206.76 84.46 206.82 85.17 206.18 86.03 205.49 86.18 205.44 85.47 206.07 84.62 206.76 84.46 
M 205.34 85.13 206.04 85.08 206.9 85.72 207.05 86.41 206.34 86.46 205.49 85.82 205.34 85.13 
M 214.75 81.98 214.99 82.65 214.61 83.65 213.99 83.98 213.75 83.32 214.13 82.32 214.75 81.98 
M 214.25 82.18 214.56 82.81 214.3 83.84 213.72 84.25 213.4 83.62 213.67 82.58 214.25 82.18 
M 220.87 86.64 221.21 86.02 222.21 85.65 222.87 85.9 222.53 86.52 221.53 86.89 220.87 86.64 
M 222.45 86.84 221.82 86.52 221.41 85.53 221.63 84.86 222.27 85.18 222.67 86.17 222.45 86.84 
M 189.17 203.73 189.72 204.17 189.91 205.22 189.55 205.83 189 205.39 188.81 204.34 189.17 203.73 
M 188.56 204.67 189.25 204.55 190.17 205.1 190.39 205.77 189.69 205.89 188.78 205.34 188.56 204.67 
M 186.89 197.83 186.28 198.18 185.23 197.96 184.8 197.4 185.41 197.06 186.46 197.27 186.89 197.83 
M 185.19 197.14 185.86 197.36 186.4 198.28 186.28 198.97 185.61 198.75 185.06 197.83 185.19 197.14 
M 272.63 89.42 273.33 89.52 274.03 90.32 274.03 91.03 273.33 90.93 272.63 90.12 272.63 89.42 
M 273.36 89.41 273.55 90.09 273.1 91.06 272.46 91.35 272.26 90.67 272.71 89.7 273.36 89.41 
M 132.73 137.02 133.14 136.44 134.18 136.19 134.81 136.51 134.4 137.09 133.36 137.34 132.73 137.02 
M 132.99 136.55 133.69 136.52 134.53 137.19 134.65 137.88 133.95 137.91 133.11 137.24 132.99 136.55 
M 152.55 131.36 152.13 131.92 151.08 132.15 150.46 131.81 150.89 131.25 151.93 131.02 152.55 131.36 
M 152.32 131.64 151.63 131.81 150.68 131.33 150.41 130.67 151.1 130.5 152.05 130.98 152.32 131.64 
M 143.64 126.73 144.32 126.93 144.89 127.84 144.78 128.54 144.1 128.33 143.54 127.43 143.64 126.73 
M 144.89 128.08 144.21 127.89 143.63 126.99 143.72 126.29 144.4 126.49 144.98 127.39 144.89 128.08 
M 177.42 117.2 177.46 116.49 178.21 115.73 178.91 115.68 178.87 116.38 178.12 117.14 177.42 117.2 
M 177.46 116.03 178.15 116.18 178.79 117.04 178.73 117.74 178.04 117.59 177.41 116.73 177.46 116.03 
M 189.28 113.66 189.44 114.35 188.95 115.29 188.29 115.55 188.13 114.86 188.63 113.92 189.28 113.66 
M 189.46 114.14 189.02 114.7 187.98 114.91 187.36 114.57 187.79 114.01 188.84 113.8 189.46 114.14 
M 224.95 75.44 225.03 74.73 225.81 74.01 226.51 73.98 226.44 74.68 225.66 75.41 224.95 75.44 
M 226.36 74.19 225.98 74.78 224.95 75.08 224.31 74.79 224.69 74.2 225.72 73.9 226.36 74.19 
M 241.13 72.76 241.83 72.66 242.72 73.25 242.92 73.93 242.22 74.02 241.32 73.44 241.13 72.76 
M 241.27 73.02 241.98 73.09 242.72 73.86 242.75 74.57 242.05 74.5 241.31 73.73 241.27 73.02 
M 267.93 66.45 268.44 66.94 268.53 68 268.12 68.58 267.61 68.09 267.52 67.03 267.93 66.45 
M 268.28 68.29 267.86 67.72 267.96 66.65 268.47 66.16 268.88 66.74 268.79 67.8 268.28 68.29 
M 248.75 65.47 248.15 65.85 247.1 65.69 246.63 65.16 247.23 64.78 248.29 64.93 248.75 65.47 
M 248.17 65.97 247.6 65.55 247.36 64.51 247.68 63.89 248.26 64.3 248.5 65.34 248.17 65.97 
M 291.49 99.9 291.72 100.57 291.32 101.56 290.7 101.88 290.46 101.22 290.86 100.22 291.49 99.9 
M 291.67 100.32 291.34 100.94 290.35 101.34 289.68 101.11 290.01 100.48 291 100.08 291.67 100.32 
M 288.44 109.42 288.99 109.86 289.18 110.91 288.82 111.52 288.27 111.08 288.08 110.03 288.44 109.42 
M 288.42 111.26 288.39 110.55 289.04 109.71 289.73 109.57 289.77 110.27 289.12 111.12 288.42 111.26 
M 257.48 193.35 257.85 192.75 258.87 192.42 259.52 192.7 259.15 193.31 258.13 193.63 257.48 193.35 
M 257.86 193.53 258.26 192.94 259.29 192.67 259.92 192.98 259.52 193.56 258.49 193.84 257.86 193.53 
M 259.28 205.68 259.3 206.38 258.63 207.21 257.93 207.34 257.91 206.63 258.58 205.8 259.28 205.68 
M 259.14 207.12 258.54 206.76 258.2 205.74 258.47 205.09 259.08 205.45 259.41 206.47 259.14 207.12 
M 315.37 135.89 314.96 135.32 315.06 134.25 315.57 133.76 315.98 134.34 315.88 135.4 315.37 135.89 
M 316.27 134.99 315.57 135.07 314.69 134.46 314.52 133.77 315.22 133.7 316.1 134.31 316.27 134.99 
M 315.44 115.52 314.8 115.83 313.77 115.57 313.37 114.98 314 114.67 315.03 114.94 315.44 115.52 
M 313.97 115.94 314.14 115.26 315.02 114.65 315.72 114.72 315.55 115.41 314.67 116.02 313.97 115.94 
M 137.41 192.39 137.06 191.79 137.25 190.74 137.8 190.3 138.16 190.9 137.97 191.95 137.41 192.39 
M 137.36 190.57 137.77 191.15 137.67 192.21 137.16 192.7 136.75 192.12 136.85 191.06 137.36 190.57 
M 232.62 68.46 232.09 68.92 231.03 68.93 230.49 68.47 231.02 68.01 232.09 68 232.62 68.46 
M 230.88 68.01 231.56 68.21 232.14 69.11 232.04 69.81 231.36 69.61 230.78 68.71 230.88 68.01 
M 229.92 82.06 229.37 82.51 228.3 82.48 227.78 82.01 228.33 81.56 229.39 81.59 229.92 82.06 
M 228.04 81.94 228.74 81.8 229.66 82.34 229.89 83.01 229.19 83.14 228.27 82.6 228.04 81.94 
M 234.96 84.09 235.67 84.08 236.48 84.77 236.59 85.47 235.89 85.48 235.07 84.79 234.96 84.09 
M 236.07 85.54 235.63 84.99 235.67 83.92 236.15 83.4 236.59 83.95 236.55 85.02 236.07 85.54 
M 305.8 107.81 305.98 107.12 306.87 106.53 307.57 106.62 307.38 107.3 306.5 107.89 305.8 107.81 
M 306.3 107.93 306.43 107.23 307.27 106.57 307.97 106.6 307.84 107.3 307 107.96 306.3 107.93 
M 296.31 106.16 296.96 105.88 297.97 106.21 298.34 106.82 297.69 107.09 296.67 106.76 296.31 106.16 
M 296.51 106.55 297.17 106.28 298.18 106.63 298.54 107.23 297.88 107.5 296.87 107.16 296.51 106.55 
M 237.87 66.37 237.76 65.75 
M 238.69 65.91 238.54 66.16 237.87 66.37 
M 238.18 65.82 237.82 66.08 237.12 66.02 237.2 65.65 
M 257.41 66.59 257.38 65.89 258.04 65.05 258.74 64.92 258.77 65.62 258.11 66.46 257.41 66.59 
M 258.69 65.22 258.32 65.83 257.3 66.15 256.65 65.87 257.02 65.27 258.04 64.95 258.69 65.22 
M 295.2 156.09 295.26 156.79 294.63 157.65 293.94 157.81 293.88 157.11 294.51 156.25 295.2 156.09 
M 295.21 157.44 294.55 157.2 294.02 156.27 294.16 155.58 294.83 155.82 295.35 156.75 295.21 157.44 
M 281.79 85.03 282.15 84.43 283.17 84.1 283.82 84.37 283.46 84.98 282.44 85.31 281.79 85.03 
M 283.45 84.21 283.05 84.79 282.01 85.05 281.38 84.73 281.79 84.15 282.82 83.89 283.45 84.21 
M 285.1 94.37 284.4 94.48 283.5 93.91 283.29 93.24 283.99 93.13 284.89 93.69 285.1 94.37 
M 283.53 94.27 283.96 93.71 285 93.49 285.62 93.84 285.19 94.4 284.14 94.61 283.53 94.27 
M 312.78 151.32 312.99 150.65 313.91 150.09 314.6 150.21 314.39 150.88 313.47 151.44 312.78 151.32 
M 314.46 151.02 313.76 151.02 312.95 150.31 312.86 149.61 313.57 149.62 314.37 150.32 314.46 151.02 
M 318.37 142.52 317.98 143.11 316.96 143.4 316.32 143.11 316.7 142.51 317.73 142.22 318.37 142.52 
M 316.55 142.62 317.26 142.57 318.11 143.21 318.26 143.9 317.56 143.95 316.7 143.31 316.55 142.62 
M 244.2 97.89 243.61 97.5 243.33 96.47 243.63 95.83 244.22 96.22 244.5 97.25 244.2 97.89 
M 244.73 96.92 244.04 97.09 243.09 96.6 242.83 95.95 243.51 95.78 244.46 96.26 244.73 96.92 
M 157.32 131.85 157.88 131.41 158.94 131.47 159.45 131.96 158.9 132.39 157.83 132.34 157.32 131.85 
M 158.38 132.72 158.17 132.04 158.6 131.06 159.24 130.76 159.45 131.44 159.02 132.41 158.38 132.72 
M 135.12 129.69 135.24 128.99 136.06 128.32 136.77 128.34 136.65 129.03 135.82 129.71 135.12 129.69 
M 136.75 129.13 136.05 129.25 135.14 128.69 134.93 128.01 135.62 127.9 136.53 128.46 136.75 129.13 
M 322.26 119.29 321.57 119.15 320.91 118.31 320.95 117.61 321.64 117.74 322.3 118.59 322.26 119.29 
M 321.56 117.64 321.81 118.3 321.44 119.3 320.82 119.64 320.57 118.98 320.94 117.98 321.56 117.64 
M 323.47 126.31 323.17 126.95 322.19 127.39 321.52 127.18 321.82 126.54 322.79 126.11 323.47 126.31 
M 322.44 127.56 322.27 126.87 322.76 125.92 323.41 125.66 323.58 126.35 323.09 127.3 322.44 127.56 
M 184.45 101.55 183.74 101.61 182.88 100.98 182.72 100.29 183.42 100.23 184.29 100.86 184.45 101.55 
M 182.77 100.93 183.44 100.71 184.43 101.11 184.74 101.74 184.07 101.97 183.09 101.56 182.77 100.93 
M 165.99 121.78 166.17 121.1 167.05 120.5 167.75 120.57 167.57 121.26 166.69 121.86 165.99 121.78 
M 167.37 120.54 167.13 121.2 166.19 121.72 165.5 121.57 165.74 120.91 166.68 120.39 167.37 120.54 
M 157.92 125.37 157.21 125.29 156.48 124.52 156.45 123.81 157.15 123.88 157.89 124.66 157.92 125.37 
M 157.27 125.4 156.98 124.75 157.3 123.73 157.9 123.36 158.18 124 157.87 125.02 157.27 125.4 
M 151.02 122.73 151.43 123.31 151.32 124.37 150.81 124.85 150.4 124.28 150.51 123.21 151.02 122.73 
M 150.85 122.98 151.12 123.64 150.77 124.65 150.16 125 149.9 124.34 150.24 123.33 150.85 122.98 
M 233.88 102.04 234.49 101.69 235.54 101.88 235.98 102.44 235.37 102.79 234.32 102.6 233.88 102.04 
M 234.34 101.67 234.98 101.99 235.39 102.97 235.16 103.64 234.53 103.33 234.12 102.34 234.34 101.67 
M 313.22 102.81 313.79 103.22 314.05 104.26 313.73 104.88 313.15 104.48 312.9 103.44 313.22 102.81 
M 312.76 103.46 313.45 103.59 314.12 104.43 314.08 105.14 313.39 105 312.73 104.17 312.76 103.46 
M 320.62 108.46 320.68 109.16 320.06 110.03 319.37 110.2 319.31 109.49 319.93 108.62 320.62 108.46 
M 320.79 109.5 320.09 109.57 319.22 108.95 319.05 108.26 319.75 108.2 320.62 108.81 320.79 109.5 
M 199.03 206.49 198.33 206.4 197.61 205.61 197.6 204.9 198.3 204.99 199.02 205.78 199.03 206.49 
M 197.83 206.34 198.06 205.68 198.98 205.14 199.68 205.28 199.45 205.95 198.52 206.48 197.83 206.34 
M 302.91 169.32 302.26 169.6 301.24 169.28 300.87 168.68 301.52 168.4 302.53 168.72 302.91 169.32 
M 302.07 168.21 302.13 168.91 301.5 169.78 300.81 169.93 300.75 169.23 301.38 168.37 302.07 168.21 
M 286.28 167.11 286.52 167.78 286.13 168.77 285.51 169.1 285.27 168.44 285.66 167.44 286.28 167.11 
M 286.62 167.73 286.12 168.23 285.05 168.31 284.49 167.89 284.98 167.39 286.05 167.31 286.62 167.73 
M 276.11 82.03 275.99 82.72 275.15 83.39 274.45 83.37 274.57 82.67 275.41 82 276.11 82.03 
M 275.96 82.26 275.51 82.8 274.46 82.98 273.86 82.61 274.31 82.07 275.36 81.89 275.96 82.26 
M 296.69 98.5 297.39 98.39 298.3 98.95 298.51 99.63 297.81 99.74 296.9 99.18 296.69 98.5 
M 297.88 98.3 297.85 99.01 297.12 99.78 296.41 99.85 296.44 99.15 297.18 98.37 297.88 98.3 
M 128.15 124.96 128.85 125.07 129.53 125.89 129.52 126.6 128.82 126.48 128.14 125.66 128.15 124.96 
M 128.71 126.58 128.6 125.89 129.17 124.98 129.84 124.77 129.95 125.47 129.39 126.37 128.71 126.58 
M 314.16 163.57 313.46 163.62 312.6 162.98 312.45 162.29 313.16 162.24 314.01 162.88 314.16 163.57 
M 312.5 163.03 313.14 162.74 314.17 163.04 314.55 163.63 313.91 163.92 312.88 163.62 312.5 163.03 
M 317.88 156.56 318.59 156.5 319.45 157.13 319.61 157.81 318.91 157.88 318.04 157.25 317.88 156.56 
M 319.04 156.43 319 157.14 318.25 157.9 317.54 157.95 317.59 157.25 318.34 156.49 319.04 156.43 
M 276.21 71.5 276.32 70.8 277.12 70.1 277.83 70.1 277.73 70.8 276.92 71.5 276.21 71.5 
M 277.83 70.85 277.15 71.02 276.2 70.54 275.93 69.89 276.61 69.72 277.57 70.2 277.83 70.85 
M 303.1 91.77 303.46 92.37 303.28 93.43 302.73 93.87 302.37 93.27 302.55 92.22 303.1 91.77 
M 303.55 92.31 303.16 92.9 302.13 93.19 301.49 92.88 301.88 92.29 302.91 92.01 303.55 92.31 
M 296.02 91.55 295.83 90.88 296.28 89.91 296.92 89.62 297.12 90.3 296.67 91.27 296.02 91.55 
M 296.8 89.84 296.73 90.55 295.94 91.27 295.24 91.3 295.31 90.59 296.1 89.87 296.8 89.84 
M 326.4 142.97 325.92 143.49 324.86 143.61 324.28 143.21 324.75 142.69 325.81 142.57 326.4 142.97 
M 324.89 143.77 325.08 143.09 325.97 142.5 326.67 142.59 326.48 143.27 325.59 143.86 324.89 143.77 
M 158.41 117.19 158.98 116.79 160.05 116.89 160.53 117.41 159.95 117.81 158.89 117.71 158.41 117.19 
M 158.66 117.43 159.3 117.11 160.33 117.37 160.73 117.95 160.1 118.27 159.07 118.01 158.66 117.43 
M 284.07 77.38 284.57 76.88 285.64 76.81 286.2 77.23 285.7 77.73 284.64 77.8 284.07 77.38 
M 285.95 77.31 285.28 77.52 284.3 77.1 283.99 76.46 284.66 76.25 285.64 76.67 285.95 77.31 
M 292.57 83.94 292.47 84.64 291.67 85.34 290.96 85.35 291.06 84.65 291.86 83.94 292.57 83.94 
M 291.62 85.44 291.53 84.74 292.11 83.85 292.79 83.65 292.88 84.35 292.3 85.25 291.62 85.44 
M 308.51 97.7 308.69 98.39 308.2 99.34 307.55 99.61 307.38 98.92 307.86 97.97 308.51 97.7 
M 308.51 99.31 307.94 98.89 307.7 97.85 308.03 97.23 308.6 97.65 308.84 98.69 308.51 99.31 
M 328.44 120.48 328.46 119.78 329.18 118.99 329.88 118.91 329.86 119.62 329.14 120.41 328.44 120.48 
M 328.35 119.63 329.04 119.47 329.98 119.97 330.24 120.63 329.55 120.79 328.61 120.29 328.35 119.63 
M 337.14 129.32 336.69 129.86 335.63 130.03 335.03 129.66 335.49 129.12 336.54 128.95 337.14 129.32 
M 335.29 129.33 335.99 129.25 336.87 129.85 337.05 130.54 336.35 130.62 335.47 130.02 335.29 129.33 
M 328.92 157.13 328.22 157.26 327.31 156.71 327.08 156.04 327.78 155.92 328.7 156.46 328.92 157.13 
M 328.17 155.79 328.24 156.49 327.62 157.36 326.94 157.53 326.87 156.83 327.48 155.96 328.17 155.79 
M 331.24 111.53 331.33 112.23 330.74 113.12 330.06 113.3 329.97 112.6 330.56 111.71 331.24 111.53 
M 331.27 112.94 330.62 112.67 330.14 111.72 330.31 111.03 330.96 111.3 331.44 112.25 331.27 112.94 
M 338.59 114.57 338.25 115.18 337.25 115.55 336.59 115.3 336.93 114.68 337.93 114.32 338.59 114.57 
M 336.79 115.06 337.42 114.74 338.45 115.01 338.85 115.59 338.22 115.9 337.19 115.64 336.79 115.06 
M 133.12 115.6 133.76 115.28 134.79 115.54 135.19 116.12 134.56 116.44 133.53 116.18 133.12 115.6 
M 133.57 115.3 134.21 115.61 134.63 116.59 134.41 117.26 133.78 116.95 133.36 115.97 133.57 115.3 
M 141.47 118.59 141.9 118.03 142.95 117.82 143.57 118.16 143.14 118.72 142.09 118.94 141.47 118.59 
M 143.27 118.68 142.57 118.63 141.82 117.87 141.77 117.17 142.48 117.22 143.23 117.98 143.27 118.68 
M 306.12 179.91 305.41 179.89 304.63 179.16 304.55 178.46 305.26 178.49 306.04 179.21 306.12 179.91 
M 304.55 179.38 305.15 179.01 306.2 179.18 306.65 179.73 306.05 180.1 305 179.93 304.55 179.38 
M 149.14 114.65 149.17 113.94 149.9 113.17 150.6 113.1 150.57 113.8 149.84 114.58 149.14 114.65 
M 149.36 114.5 149.62 113.84 150.56 113.35 151.25 113.51 150.99 114.17 150.04 114.66 149.36 114.5 
M 334.38 166.77 333.67 166.77 332.87 166.07 332.77 165.37 333.47 165.37 334.28 166.07 334.38 166.77 
M 332.82 166.38 333.36 165.92 334.43 165.94 334.96 166.41 334.41 166.86 333.35 166.85 332.82 166.38 
M 257.1 200.19 256.56 200.64 255.49 200.63 254.97 200.16 255.5 199.71 256.57 199.72 257.1 200.19 
M 255.71 199.43 256.17 199.96 256.18 201.03 255.72 201.56 255.26 201.03 255.25 199.97 255.71 199.43 
M 288.19 183.07 287.58 182.71 287.26 181.69 287.53 181.04 288.14 181.41 288.46 182.42 288.19 183.07 
M 287.25 182.6 287.61 181.99 288.62 181.65 289.28 181.92 288.92 182.52 287.91 182.87 287.25 182.6 
M 301.13 82.9 301.69 82.47 302.76 82.54 303.26 83.04 302.7 83.47 301.63 83.4 301.13 82.9 
M 302.4 83.76 302.02 83.16 302.18 82.1 302.72 81.65 303.1 82.24 302.94 83.3 302.4 83.76 
M 310.6 92.79 310.13 92.26 310.12 91.19 310.58 90.66 311.05 91.19 311.05 92.25 310.6 92.79 
M 311.36 91.97 310.66 91.97 309.85 91.27 309.75 90.57 310.46 90.57 311.26 91.27 311.36 91.97 
M 312.33 84.13 312.16 84.81 311.28 85.42 310.57 85.34 310.75 84.66 311.63 84.05 312.33 84.13 
M 311.83 85.45 311.33 84.96 311.24 83.89 311.66 83.32 312.17 83.82 312.25 84.88 311.83 85.45 
M 235.11 76.12 234.52 75.73 234.25 74.7 234.55 74.06 235.14 74.46 235.42 75.49 235.11 76.12 
M 234.03 74.93 234.74 74.85 235.61 75.47 235.78 76.15 235.08 76.22 234.21 75.61 234.03 74.93 
M 342.15 133.45 342.75 133.83 343.04 134.86 342.75 135.5 342.16 135.12 341.86 134.09 342.15 133.45 
M 342.15 135.23 342.2 134.53 342.95 133.77 343.65 133.71 343.61 134.42 342.86 135.18 342.15 135.23 
M 337.82 142.88 338.46 143.17 338.91 144.14 338.71 144.82 338.07 144.53 337.62 143.56 337.82 142.88 
M 338.31 144.66 338.06 144 338.43 143 339.05 142.66 339.3 143.32 338.92 144.32 338.31 144.66 
M 340.17 172.47 340.88 172.45 341.7 173.13 341.82 173.82 341.12 173.84 340.29 173.16 340.17 172.47 
M 341.66 173.62 340.99 173.4 340.43 172.49 340.55 171.79 341.23 172.01 341.78 172.92 341.66 173.62 
M 327.9 175.99 327.34 176.43 326.28 176.38 325.77 175.89 326.32 175.45 327.39 175.51 327.9 175.99 
M 327.27 176.63 326.73 176.18 326.56 175.12 326.93 174.52 327.47 174.98 327.64 176.03 327.27 176.63 
M 347.12 168.6 347.11 167.9 347.8 167.09 348.5 166.98 348.51 167.69 347.81 168.5 347.12 168.6 
M 347.08 168.14 347.59 167.66 348.66 167.61 349.21 168.05 348.7 168.54 347.63 168.58 347.08 168.14 
M 166.64 108.59 166.67 107.88 167.41 107.11 168.11 107.04 168.08 107.75 167.34 108.52 166.64 108.59 
M 167.41 107 167.6 107.68 167.13 108.65 166.49 108.93 166.3 108.25 166.76 107.28 167.41 107 
M 156.48 112.2 156.21 111.54 156.54 110.53 157.15 110.17 157.42 110.82 157.08 111.84 156.48 112.2 
M 156.69 111.99 156.58 111.29 157.14 110.38 157.82 110.17 157.93 110.87 157.37 111.78 156.69 111.99 
M 336.03 153.65 336.67 153.37 337.69 153.68 338.07 154.27 337.43 154.56 336.4 154.25 336.03 153.65 
M 337.17 153.16 337.28 153.86 336.72 154.76 336.04 154.97 335.93 154.27 336.5 153.37 337.17 153.16 
M 347.24 157.9 346.98 157.24 347.34 156.23 347.96 155.89 348.21 156.55 347.85 157.55 347.24 157.9 
M 346.88 157.29 347.37 156.77 348.43 156.67 349.01 157.07 348.52 157.59 347.46 157.69 346.88 157.29 
M 357.51 151.05 357.23 151.7 356.27 152.17 355.59 151.99 355.87 151.34 356.83 150.87 357.51 151.05 
M 357.29 151.87 356.59 151.77 355.88 150.97 355.88 150.27 356.58 150.36 357.28 151.16 357.29 151.87 
M 170.28 113.55 170.98 113.54 171.8 114.23 171.91 114.93 171.2 114.94 170.39 114.25 170.28 113.55 
M 170.56 113.63 171.16 113.99 171.49 115.01 171.22 115.66 170.61 115.29 170.28 114.28 170.56 113.63 
M 174.5 105.58 175.2 105.58 176 106.29 176.1 106.99 175.39 106.98 174.59 106.28 174.5 105.58 
M 176.05 106.6 175.34 106.54 174.6 105.77 174.57 105.06 175.27 105.13 176.01 105.9 176.05 106.6 
M 344.54 117.3 345.1 117.74 345.29 118.79 344.93 119.4 344.38 118.96 344.19 117.91 344.54 117.3 
M 345.52 118.56 344.82 118.59 343.98 117.93 343.85 117.24 344.55 117.2 345.39 117.87 345.52 118.56 
M 279.02 186.25 279.64 185.9 280.68 186.11 281.12 186.67 280.5 187.02 279.46 186.81 279.02 186.25 
M 280.81 186.13 280.29 186.6 279.22 186.62 278.68 186.16 279.2 185.69 280.27 185.68 280.81 186.13 
M 295.48 197.85 296.19 197.9 296.94 198.66 296.99 199.37 296.28 199.31 295.53 198.55 295.48 197.85 
M 297.05 198.62 296.37 198.83 295.4 198.39 295.1 197.75 295.78 197.54 296.75 197.98 297.05 198.62 
M 289.93 202.45 290.13 203.13 289.7 204.11 289.07 204.41 288.86 203.73 289.29 202.76 289.93 202.45 
M 289.84 204.17 289.36 203.65 289.32 202.58 289.77 202.03 290.25 202.55 290.29 203.62 289.84 204.17 
M 356.16 163.73 356.5 164.35 356.27 165.39 355.7 165.81 355.36 165.19 355.6 164.15 356.16 163.73 
M 356.74 164.81 356.06 164.99 355.1 164.53 354.82 163.88 355.51 163.69 356.47 164.16 356.74 164.81 
M 319.97 92.65 319.83 91.96 320.34 91.02 321 90.78 321.15 91.47 320.64 92.4 319.97 92.65 
M 319.88 91.18 320.52 91.46 320.99 92.42 320.8 93.1 320.15 92.82 319.69 91.86 319.88 91.18 
M 322.2 98.31 322.84 98.59 323.3 99.56 323.11 100.24 322.46 99.95 322.01 98.99 322.2 98.31 
M 322.85 100.06 322.48 99.46 322.66 98.41 323.2 97.96 323.57 98.56 323.39 99.61 322.85 100.06 
M 345.55 185 345.23 185.63 344.23 186.02 343.57 185.79 343.89 185.16 344.89 184.77 345.55 185 
M 344.08 184.74 344.65 185.15 344.89 186.2 344.56 186.82 343.99 186.4 343.75 185.36 344.08 184.74 
M 337.56 185.14 337.59 185.85 336.93 186.69 336.24 186.82 336.2 186.12 336.86 185.28 337.56 185.14 
M 336.13 186.24 336.7 185.82 337.76 185.91 338.25 186.42 337.68 186.83 336.62 186.74 336.13 186.24 
M 326.51 190.43 325.95 190.86 324.89 190.8 324.38 190.31 324.94 189.88 326.01 189.94 326.51 190.43 
M 324.73 190.75 325.22 190.25 326.29 190.15 326.86 190.56 326.37 191.07 325.31 191.17 324.73 190.75 
M 316.5 193.69 316.79 194.34 316.49 195.36 315.89 195.74 315.6 195.1 315.9 194.07 316.5 193.69 
M 316.14 195.53 315.97 194.84 316.45 193.89 317.11 193.62 317.28 194.31 316.8 195.26 316.14 195.53 
M 355.71 130.52 355.61 131.22 354.8 131.92 354.09 131.92 354.19 131.22 355 130.52 355.71 130.52 
M 355.45 131.81 354.84 131.47 354.48 130.46 354.74 129.8 355.35 130.15 355.71 131.16 355.45 131.81 
M 331.12 95.44 330.82 94.8 331.1 93.77 331.69 93.38 331.99 94.02 331.71 95.05 331.12 95.44 
M 330.6 94.33 331.29 94.18 332.23 94.69 332.47 95.35 331.78 95.5 330.85 95 330.6 94.33 
M 303.58 205.35 302.95 205.68 301.91 205.42 301.5 204.85 302.13 204.53 303.17 204.78 303.58 205.35 
M 302.33 205.89 302.3 205.18 302.95 204.34 303.64 204.2 303.68 204.91 303.03 205.75 302.33 205.89 
M 308.13 195.95 308 196.64 307.18 197.32 306.47 197.3 306.59 196.6 307.42 195.93 308.13 195.95 
M 307.88 197.19 307.25 196.87 306.84 195.89 307.06 195.22 307.69 195.53 308.1 196.52 307.88 197.19 
M 276.3 200.87 276.95 201.16 277.4 202.13 277.2 202.81 276.56 202.52 276.11 201.55 276.3 200.87 
M 276 202.15 276.54 201.7 277.61 201.7 278.14 202.17 277.6 202.63 276.53 202.62 276 202.15 
M 331.78 106.88 331.28 106.39 331.2 105.32 331.62 104.75 332.12 105.25 332.2 106.32 331.78 106.88 
M 332.48 106.05 331.77 106.06 330.95 105.38 330.83 104.68 331.54 104.67 332.36 105.35 332.48 106.05 
M 140.2 109.75 140.33 109.85 139.83 110.35 138.77 110.42 138.52 110.24 
M 139.55 110.69 139.12 110.07 
M 140.06 109.79 140.04 110.18 139.55 110.69 
M 349.92 106.54 350 107.25 349.4 108.13 348.72 108.31 348.64 107.61 349.24 106.73 349.92 106.54 
M 349.89 108.01 349.26 107.68 348.88 106.68 349.11 106.02 349.74 106.35 350.13 107.34 349.89 108.01 
M 339.81 104.99 339.42 104.41 339.56 103.35 340.09 102.88 340.48 103.47 340.34 104.52 339.81 104.99 
M 339.86 103.13 340.15 103.77 339.84 104.79 339.25 105.17 338.96 104.53 339.26 103.51 339.86 103.13 
M 340.22 96.99 340.16 96.29 340.79 95.42 341.48 95.26 341.53 95.97 340.91 96.83 340.22 96.99 
M 340.05 96.31 340.66 95.95 341.71 96.14 342.16 96.69 341.55 97.05 340.5 96.86 340.05 96.31 
M 352.37 121.84 352.1 121.18 352.43 120.17 353.04 119.81 353.31 120.46 352.98 121.48 352.37 121.84 
M 353.02 120.07 352.96 120.78 352.19 121.52 351.49 121.56 351.55 120.86 352.31 120.11 353.02 120.07 
M 365.3 135.37 364.6 135.27 363.9 134.47 363.89 133.76 364.59 133.86 365.3 134.66 365.3 135.37 
M 363.79 134.47 364.48 134.33 365.41 134.86 365.65 135.53 364.96 135.67 364.03 135.14 363.79 134.47 
M 325.46 77.69 325.2 78.35 324.25 78.84 323.56 78.68 323.82 78.02 324.77 77.53 325.46 77.69 
M 323.7 78.28 324.35 77.99 325.37 78.3 325.75 78.89 325.11 79.18 324.08 78.88 323.7 78.28 
M 329.86 86.56 329.45 85.98 329.56 84.92 330.08 84.43 330.48 85.01 330.37 86.07 329.86 86.56 
M 330.67 85.09 330.2 85.61 329.14 85.74 328.55 85.34 329.03 84.82 330.09 84.69 330.67 85.09 
M 317.76 77.46 318.35 77.84 318.65 78.87 318.35 79.51 317.76 79.12 317.46 78.1 317.76 77.46 
M 317.8 77.71 318.22 78.28 318.12 79.35 317.61 79.84 317.2 79.26 317.3 78.2 317.8 77.71 
M 270.59 207.82 271.21 207.49 272.25 207.74 272.67 208.31 272.04 208.64 271 208.39 270.59 207.82 
M 272.34 208.47 271.64 208.32 271 207.47 271.04 206.77 271.74 206.91 272.38 207.76 272.34 208.47 
M 343.4 89.15 343.81 88.57 344.85 88.32 345.47 88.65 345.06 89.22 344.03 89.47 343.4 89.15 
M 343.92 88.27 344.51 88.65 344.81 89.68 344.52 90.32 343.93 89.94 343.62 88.92 343.92 88.27 
M 354.01 102.47 353.43 102.08 353.14 101.05 353.45 100.41 354.03 100.8 354.32 101.83 354.01 102.47 
M 354.5 101.18 353.93 101.6 352.87 101.51 352.37 101.01 352.94 100.59 354.01 100.68 354.5 101.18 
M 123.6 118.23 123.18 118.8 122.14 119.03 121.67 118.78 
M 121.54 118.66 121.94 118.12 122.98 117.89 123.6 118.23 
M 121.76 118.32 122.46 118.22 123.35 118.81 123.54 119.49 122.84 119.58 121.95 119 121.76 118.32 
M 299.13 73.04 299.82 72.88 300.76 73.39 301.01 74.05 300.32 74.2 299.38 73.7 299.13 73.04 
M 300.86 73.38 300.25 73.73 299.2 73.51 298.77 72.95 299.39 72.6 300.44 72.82 300.86 73.38 
M 308.4 76.55 309.1 76.44 310.01 76.99 310.22 77.67 309.52 77.78 308.61 77.23 308.4 76.55 
M 309.65 76.37 309.56 77.07 308.78 77.79 308.07 77.81 308.15 77.11 308.94 76.39 309.65 76.37 
M 340.82 192.11 341.24 192.68 341.15 193.75 340.65 194.24 340.23 193.67 340.32 192.61 340.82 192.11 
M 340.36 193.9 340.48 193.2 341.3 192.52 342.01 192.54 341.89 193.24 341.07 193.92 340.36 193.9 
M 292.9 71.82 292.5 71.24 292.62 70.18 293.14 69.7 293.54 70.28 293.42 71.34 292.9 71.82 
M 293.12 69.95 293.25 70.64 292.71 71.57 292.05 71.8 291.91 71.11 292.45 70.18 293.12 69.95 
M 305.45 68.43 304.98 67.91 304.97 66.81 
M 305.88 67.07 305.9 67.88 305.45 68.43 
M 306.24 67.38 305.56 67.58 304.59 67.14 304.35 66.63 
M 306.13 67.14 306.24 67.38 
M 284.48 68.07 284.97 67.56 286.04 67.47 286.61 67.88 286.12 68.39 285.06 68.48 284.48 68.07 
M 284.8 67.64 285.51 67.72 286.23 68.51 286.25 69.21 285.55 69.13 284.82 68.35 284.8 67.64 
M 338.81 202.42 338.39 201.84 338.49 200.78 339 200.29 339.41 200.86 339.31 201.93 338.81 202.42 
M 339.23 202.1 338.76 201.57 338.76 200.5 339.22 199.96 339.68 200.5 339.69 201.56 339.23 202.1 
M 353.55 185.88 353.83 186.53 353.51 187.54 352.91 187.92 352.63 187.27 352.95 186.25 353.55 185.88 
M 353.57 186.16 353.48 186.86 352.69 187.57 351.98 187.59 352.07 186.89 352.87 186.17 353.57 186.16 
M 356.79 109.68 357.09 110.33 356.78 111.35 356.19 111.73 355.9 111.09 356.2 110.07 356.79 109.68 
M 357.3 110.67 356.64 110.92 355.64 110.54 355.31 109.91 355.97 109.67 356.97 110.05 357.3 110.67 
M 365.85 117.95 365.16 118.09 364.22 117.58 363.98 116.92 364.67 116.77 365.6 117.28 365.85 117.95 
M 364.82 118.24 364.68 117.55 365.22 116.62 365.88 116.39 366.02 117.08 365.49 118.01 364.82 118.24 
M 366.33 182.99 365.64 182.85 364.99 182.01 365.03 181.3 365.72 181.44 366.37 182.29 366.33 182.99 
M 365.92 182.92 365.52 182.34 365.62 181.28 366.14 180.8 366.54 181.37 366.44 182.44 365.92 182.92 
M 349.8 90.09 349.63 90.31 349.14 89.81 349.12 89.58 
M 367.49 126.58 368.12 126.25 369.16 126.49 369.57 127.06 368.95 127.39 367.91 127.15 367.49 126.58 
M 367.73 126.68 368.43 126.58 369.33 127.16 369.53 127.84 368.83 127.94 367.93 127.36 367.73 126.68 
M 321.45 84.46 322.02 84.86 322.28 85.9 321.96 86.53 321.39 86.12 321.13 85.09 321.45 84.46 
M 321.71 86.3 321.49 85.63 321.91 84.65 322.54 84.34 322.76 85.01 322.34 85.99 321.71 86.3 
M 329.17 73.32 328.72 72.79 328.75 71.7 
M 329.64 72.77 329.17 73.32 
M 329.14 73.07 328.96 72.39 329.1 72.11 
M 329.68 72.84 329.14 73.07 
M 320.82 72.02 320.48 71.4 320.69 70.36 321.25 69.92 321.6 70.54 321.38 71.59 320.82 72.02 
M 320.23 71.02 320.88 70.77 321.89 71.12 322.24 71.74 321.58 71.99 320.57 71.64 320.23 71.02 
M 375.22 141.28 375.67 140.74 376.73 140.57 377.33 140.94 376.87 141.48 375.82 141.65 375.22 141.28 
M 377.07 141.25 376.37 141.35 375.48 140.76 375.29 140.08 375.99 139.99 376.88 140.57 377.07 141.25 
M 378.38 175.92 378.23 175.23 378.74 174.29 379.4 174.05 379.55 174.74 379.04 175.67 378.38 175.92 
M 378.21 175.44 378.65 174.88 379.7 174.69 380.31 175.04 379.87 175.6 378.82 175.79 378.21 175.44 
M 373.05 168.75 372.35 168.87 371.44 168.32 371.22 167.64 371.92 167.53 372.83 168.08 373.05 168.75 
M 371.48 168.69 371.89 168.11 372.93 167.86 373.56 168.18 373.15 168.76 372.11 169.01 371.48 168.69 
M 370.8 191.19 370.8 190.49 371.5 189.68 372.2 189.58 372.2 190.28 371.5 191.09 370.8 191.19 
M 372.31 190.34 371.65 190.59 370.65 190.23 370.31 189.61 370.97 189.36 371.97 189.72 372.31 190.34 
M 345.36 201.05 344.66 200.91 344 200.07 344.04 199.37 344.73 199.5 345.39 200.34 345.36 201.05 
M 345.32 199.69 344.94 200.28 343.92 200.59 343.28 200.3 343.66 199.7 344.68 199.4 345.32 199.69 
M 389.42 173.08 390.07 172.78 391.09 173.08 391.48 173.67 390.83 173.97 389.81 173.67 389.42 173.08 
M 390.02 172.69 390.56 173.14 390.72 174.2 390.35 174.8 389.81 174.34 389.64 173.28 390.02 172.69 
M 402.11 177.43 401.48 177.75 400.44 177.49 400.04 176.91 400.67 176.6 401.7 176.86 402.11 177.43 
M 401.51 176.49 401.33 177.17 400.44 177.77 399.74 177.68 399.93 177 400.81 176.41 401.51 176.49 
M 399.03 168.81 399.68 169.08 400.14 170.04 399.96 170.73 399.31 170.45 398.85 169.49 399.03 168.81 
M 400.18 169.32 399.73 169.87 398.68 170.05 398.07 169.69 398.52 169.14 399.57 168.96 400.18 169.32 
M 397.71 183.85 397.48 184.52 396.56 185.06 395.86 184.93 396.09 184.27 397.01 183.73 397.71 183.85 
M 396.73 185.21 396.56 184.52 397.04 183.57 397.7 183.3 397.87 183.98 397.39 184.94 396.73 185.21 
M 414.69 157.17 414.11 156.77 413.85 155.73 414.16 155.1 414.74 155.5 415.01 156.54 414.69 157.17 
M 413.96 155.47 414.52 155.9 414.74 156.94 414.39 157.56 413.83 157.13 413.62 156.08 413.96 155.47 
M 376.08 124.86 376.59 125.35 376.69 126.41 376.28 126.99 375.77 126.5 375.67 125.44 376.08 124.86 
M 375.38 125.76 376.08 125.69 376.96 126.3 377.13 126.98 376.43 127.05 375.56 126.44 375.38 125.76 
M 374.05 132.75 374.74 132.87 375.42 133.7 375.4 134.4 374.71 134.28 374.03 133.46 374.05 132.75 
M 374.46 132.81 374.88 133.37 374.81 134.44 374.31 134.94 373.88 134.38 373.96 133.31 374.46 132.81 
M 418.33 167.31 418.97 167.03 419.99 167.35 420.36 167.95 419.71 168.23 418.69 167.91 418.33 167.31 
M 419.11 166.85 419.51 167.43 419.38 168.49 418.86 168.97 418.46 168.38 418.59 167.32 419.11 166.85 
M 386.67 118.97 387.5 118.64 388.17 118.87 387.94 119.31 
M 387.99 119.29 387.92 119.31 
M 386.27 118.86 386.12 118.52 
M 386.86 118.25 387.7 118.65 387.99 119.29 
M 398.51 121.88 397.91 121.5 397.61 120.48 397.9 119.83 398.49 120.21 398.8 121.24 398.51 121.88 
M 397.57 120.34 398.23 120.6 398.72 121.55 398.56 122.24 397.9 121.98 397.41 121.03 397.57 120.34 
M 389.94 180.39 389.26 180.61 388.28 180.19 387.97 179.56 388.64 179.34 389.62 179.75 389.94 180.39 
M 388.4 180.57 388.7 179.93 389.68 179.5 390.35 179.7 390.05 180.34 389.07 180.77 388.4 180.57 
M 380.67 134.06 380.39 133.41 380.71 132.39 381.32 132.02 381.6 132.67 381.27 133.69 380.67 134.06 
M 380.24 132.73 380.95 132.79 381.69 133.56 381.72 134.26 381.02 134.2 380.28 133.43 380.24 132.73 
M 373.38 118.87 372.93 119.41 371.87 119.58 371.27 119.2 371.72 118.66 372.78 118.49 373.38 118.87 
M 372.76 119.72 372.22 119.27 372.05 118.21 372.43 117.61 372.97 118.07 373.13 119.12 372.76 119.72 
M 391.34 130.16 391.64 129.52 392.62 129.1 393.3 129.32 392.99 129.95 392.01 130.37 391.34 130.16 
M 391.78 129.13 392.38 129.49 392.72 130.5 392.45 131.16 391.84 130.8 391.51 129.78 391.78 129.13 
M 380.24 117.61 380.56 117.93 380.64 119 380.22 119.56 379.72 119.07 379.64 118 379.97 117.56 
M 379.33 118.51 380 118.29 380.98 118.7 381.3 119.33 380.63 119.55 379.64 119.14 379.33 118.51 
M 385.03 125.47 385.5 125.99 385.52 127.06 385.07 127.6 384.6 127.08 384.58 126.01 385.03 125.47 
M 385.79 126.19 385.27 126.67 384.21 126.71 383.65 126.28 384.17 125.79 385.23 125.75 385.79 126.19 
M 408.78 120.02 408.75 120.73 408.01 121.5 407.31 121.57 407.34 120.87 408.08 120.09 408.78 120.02 
M 408.4 121.53 407.91 121.02 407.86 119.95 408.3 119.4 408.79 119.91 408.83 120.98 408.4 121.53 
M 419.28 120.91 419.49 120.24 420.39 119.67 421.09 119.77 420.88 120.45 419.98 121.02 419.28 120.91 
M 419.38 120.42 420.03 120.14 421.04 120.47 421.41 121.07 420.76 121.35 419.74 121.02 419.38 120.42 
M 428.35 131.51 427.62 132.12 426.91 132.1 427.03 131.41 427.26 131.22 
M 427.88 131.39 428.31 132.07 428.2 132.77 427.52 132.56 426.96 131.65 427.04 131.16 
M 426.82 142.59 426.59 143.25 425.67 143.79 424.97 143.66 425.2 142.99 426.13 142.45 426.82 142.59 
M 425.09 143.06 425.77 142.9 426.72 143.39 426.98 144.05 426.3 144.21 425.35 143.72 425.09 143.06 
M 425.15 150.87 424.44 150.9 423.61 150.23 423.49 149.53 424.19 149.51 425.02 150.18 425.15 150.87 
M 423.51 150.13 424.2 149.98 425.14 150.48 425.39 151.14 424.7 151.3 423.76 150.79 423.51 150.13 
"/></svg>