<svg xmlns="http://www.w3.org/2000/svg" width="520" height="320"><rect x="0" y="0" width="520" height="320" fill="floralwhite"/><rect x="10" y="10" width="500" height="300" stroke="black" stroke-width="1" fill="none"/><path stroke="black" stroke-width="1" fill="none" stroke-linecap="round" stroke-linejoin="round" d="
M 154.22 118.92 164.79 115.01 175.33 112.59 196.42 110.05 217.5 106.34 228.05 104.97 238.59 104.28 249.13 103.96 259.68 103.83 280.76 104.13 291.31 103.8 301.85 103.83 312.39 104.66 333.48 107.14 344.02 108.58 354.57 110.73 375.66 115.94 386.2 118.3 396.74 120.94 407.29 124.69 417.83 130.11 418.84 131.33 
M 418.84 198.29 417.83 199.36 407.29 203.69 396.74 206.76 375.66 210.85 365.11 213.21 354.57 215.96 344.02 218.28 333.48 219.5 322.94 220.15 301.85 220.82 280.76 220.62 270.22 221.27 259.68 222.31 249.13 223.08 238.59 223.19 228.05 222.34 217.5 220.48 206.96 217.85 196.42 214.73 185.87 211.36 175.33 208.48 164.82 206.61 
M 418.84 151.47 413.95 149.01 411.99 148.38 
M 408.09 147.08 402.3 145.24 394.44 143.12 386.07 141.61 377.46 140.36 368.92 139.32 360.68 138.59 352.28 138.45 345.87 138.54 
M 341.69 138.57 331.8 138.2 314.65 136.31 
M 310.76 136.02 301.39 135.52 297.81 135.48 292.46 135.66 
M 288.86 135.93 275.61 137.43 262.38 138.72 
M 258.53 139.18 248.6 140.39 242.54 140.77 
M 238.55 140.82 234.64 140.68 
M 230.79 140.41 226.94 140.11 
M 223.02 139.84 218.97 139.67 
M 214.8 139.63 206.48 139.69 
M 202.38 139.66 198.31 139.54 
M 194.26 139.2 188.19 138.5 186.09 138.4 
M 181.86 138.27 177.6 138.31 
M 173.38 138.67 169.29 139.23 
M 170.14 163.07 170.29 163.31 
M 173.23 167.87 176.61 173.07 
M 169.34 150.3 173.07 156.62 177.41 163.45 
M 180.37 168.07 183.07 172.36 
M 157.23 117.81 160.04 122.3 167.18 134.73 180.27 156.74 184.68 163.65 
M 162.29 115.93 179.49 142.95 187.5 156.93 193.53 166.46 
M 167.58 114.37 181.36 134.08 185.47 140.61 
M 188.07 145.24 194.61 157.15 199.76 165.15 
M 173.16 113.09 182.7 125.62 188.61 133.94 191.3 138.39 198.91 152.51 201.6 157.2 206.01 163.83 
M 238.94 207.26 242.01 210.72 
M 179.1 112.11 186.69 121.53 192.74 129.78 198.28 138.48 204.65 150.08 
M 210.18 159.35 212.38 162.48 
M 242.78 203.34 242.88 203.47 
M 251.78 213.31 255.89 216.64 
M 185.2 111.32 193.59 121.67 199.66 129.91 205.3 138.42 209.2 145.25 
M 211.79 149.93 215.98 156.9 219.03 161.08 
M 243.47 194.92 248.24 201.38 251.3 205.12 255.61 209.62 
M 191.29 110.63 200.6 122 208.09 132.05 
M 210.98 136.23 212.41 138.36 216.45 145.15 
M 222.18 154.36 226.13 159.59 
M 243.58 184.92 244.11 185.73 
M 247.22 190.33 251.94 196.93 256.47 202.48 
M 197.3 109.89 204.65 118.63 209.19 124.36 
M 212.18 128.25 216.67 134.23 219.57 138.48 225.17 147.49 228.36 151.96 235.41 160.75 237.04 162.97 
M 246.59 178.61 249.5 183.42 254.08 190.2 
M 265.86 204.32 268.62 206.97 
M 203.04 108.88 211.81 119.29 219.2 128.68 
M 222.1 132.68 229.27 143.33 232.51 147.64 239.66 156.16 242.97 160.61 245.84 165.14 253.53 178.89 257.8 185.63 
M 263.78 193.79 269.56 200.37 
M 208.6 107.91 213.05 112.91 221.69 123.67 232.89 139.64 236.12 143.72 243.32 151.85 246.75 156.16 249.86 160.74 251.25 163.07 
M 253.92 167.71 256.42 172.27 
M 258.92 176.73 262.93 183.26 267.34 189.38 
M 270.28 193.04 271.76 194.79 276.26 199.47 
M 292.84 213.76 294.22 214.76 
M 214.02 106.95 217.19 110.3 222.86 117.26 228.41 124.68 236.44 136.15 239.57 140.01 244.84 145.8 
M 248.42 149.87 250.2 151.97 253.53 156.48 256.54 161.18 265.4 176.69 
M 270.83 184.88 272.31 186.9 276.92 192.4 
M 280.02 195.69 283.09 198.69 
M 286.08 201.48 291.6 206.59 
M 219.28 106.11 221.27 108.03 224.16 111.26 227.02 114.76 232.53 121.96 236.37 127.32 
M 238.99 130.88 243.29 136.24 253.49 147.76 256.91 152.22 260.11 156.93 264.34 163.87 
M 266.87 168.24 271.72 176.43 
M 277.4 184.53 280.5 188.38 
M 283.62 191.87 286.69 195.03 
M 224.67 105.41 228.34 109.06 231.22 112.35 245.94 130.75 
M 248.8 134.1 256.82 143.37 261.8 150.1 
M 270.55 163.86 275.37 172.01 
M 278.01 176.08 283.97 184.22 
M 300.64 202.68 302.87 205.41 
M 230.34 104.82 232.57 106.92 235.43 109.93 241.07 116.22 260.27 138.88 263.44 143.11 266.62 147.73 273.8 159.09 
M 276.23 163.2 279.91 169.26 284.21 175.6 
M 287.27 179.77 293.19 187.2 
M 298.87 193.58 301.45 196.59 
M 236.52 104.41 239.68 107.41 247.94 116.02 259.7 129.39 
M 262.47 132.78 266.77 138.56 272.82 147.44 282.9 164.16 287.22 170.61 
M 290.3 174.93 293.39 179.07 
M 296.43 182.95 299.39 186.57 
M 304.84 193.22 311.78 202.44 
M 243.08 104.14 249.25 109.98 254.62 115.41 259.79 121.05 263.66 125.55 
M 266.26 128.81 273.28 138.19 276.17 142.43 278.84 146.73 282.37 152.99 
M 290.21 165.49 294.87 172.16 299.74 178.52 
M 302.87 182.47 308.5 189.72 
M 313.25 196.33 315.59 199.47 
M 320.7 205.51 326.18 210.91 
M 249.77 103.95 255.86 109.36 261.19 114.62 266.33 120.34 272.82 128.27 
M 275.62 131.8 279.89 137.63 282.5 141.76 289.41 154.26 293.4 160.65 
M 296.36 165.1 299.58 169.6 
M 309.46 182.21 313.65 187.88 319.6 196.43 
M 327.48 205.81 333.02 211.13 
M 256.63 103.87 262.38 108.59 265.07 111.13 270.21 116.76 278.02 125.95 280.87 129.33 283.71 133.04 286.37 137.04 289.86 143.24 
M 292.07 147.49 294.36 151.81 
M 302.66 165.04 309.56 173.83 
M 312.94 178.04 316.01 182.11 
M 321.17 189.73 326.08 196.69 
M 263.95 103.9 266.14 105.55 268.84 107.87 271.42 110.47 280.29 120.68 
M 283.08 123.78 287.36 128.76 290.08 132.52 292.59 136.57 301.76 154.07 304.42 158.47 305.95 160.66 
M 309.19 165.05 316.19 173.75 
M 322.3 182.18 324.88 186.17 
M 271.43 104.03 275 107.25 277.45 109.93 282.41 115.72 290.79 124.88 293.57 128.34 296.22 132.19 298.72 136.33 305.7 149.7 308.24 154.2 311.04 158.5 316 165 
M 319.49 169.41 324.35 176 329.73 184.41 333.71 190.13 
M 278.41 104.1 280.98 106.74 288.56 115.28 294.15 121.21 296.96 124.47 299.71 128.08 302.38 132.05 304.96 136.26 312.4 149.71 315.14 154.17 319.86 160.69 
M 323.21 165.1 327.98 171.77 333.39 180.42 337.48 186.44 
M 343.11 193.48 345.91 196.67 
M 356.73 207.97 358.44 209.41 
M 284.9 104 297.58 117.5 300.38 120.64 303.19 124.12 308.78 131.97 311.52 136.19 318.14 147.48 
M 321.07 152.04 327.43 160.87 
M 330.52 165.27 336.02 174.07 
M 352.36 195.97 357.8 202.18 
M 291.42 103.8 301.15 113.68 303.93 116.75 309.65 123.85 315.47 131.88 323.79 145.38 326.93 150 333.34 158.85 337.54 165.35 
M 342.65 173.82 345.21 177.72 
M 298.7 103.82 304.89 109.88 307.64 112.9 313.41 119.88 319.17 127.82 327.62 141.01 335.74 152.38 
M 338.78 156.71 341.54 160.94 
M 344.12 165.1 346.62 169.12 
M 349.12 172.94 351.67 176.57 
M 354.27 180.1 356.93 183.66 
M 359.64 187.32 362.4 191.03 
M 306.59 104.2 311.5 109.31 317.11 116.2 322.73 123.98 331.15 136.69 334.29 141.17 342.41 152.23 
M 347.96 160.51 353.02 168.28 
M 360.75 179.28 363.42 183.08 
M 366.17 186.94 368.98 190.73 
M 314.24 104.87 318.07 109.36 320.77 112.87 329.07 124.27 337.77 136.67 347.5 149.68 359.52 167.69 
M 362.12 171.47 364.75 175.28 
M 375.74 190.79 378.57 194.44 
M 321.14 105.63 340.1 130.17 
M 343.25 134.25 346.51 138.45 
M 349.71 142.71 354.14 149.14 360.89 159.62 
M 363.59 163.65 366.26 167.57 
M 371.6 175.46 377.01 183.45 
M 379.78 187.38 382.56 191.2 
M 327.77 106.43 336.44 116.95 349.05 131.71 355.38 140.07 359.57 146.61 
M 362.26 150.99 375.91 171.8 
M 383.91 184.05 389.34 191.83 
M 334.95 107.34 349.98 123.59 353.3 127.31 356.55 131.27 359.63 135.46 362.48 139.82 369.27 150.89 
M 372.03 155.2 374.82 159.45 
M 377.57 163.7 380.28 168 
M 390.75 184.72 393.4 188.67 
M 396.06 192.52 398.71 196.22 
M 343.25 108.48 354.14 119.67 357.43 123.24 362.19 129.09 
M 365.23 133.29 369.61 139.87 373.75 146.5 
M 379.2 155.19 381.96 159.58 
M 384.67 164.04 387.32 168.52 
M 395.02 181.42 400.16 189.38 
M 402.74 193.19 405.33 196.84 
M 352.81 110.37 361.4 119.52 367.79 127.12 370.99 131.33 374.08 135.71 378.38 142.33 
M 381.08 146.69 386.41 155.51 
M 389.09 160.07 394.27 169.24 
M 396.82 173.71 399.36 178.03 
M 401.87 182.18 409.39 193.81 
M 362.26 112.63 371.81 123.37 375.2 127.46 378.5 131.77 384.47 140.57 388.43 147.13 
M 390.97 151.59 402.37 172.35 408.64 182.9 
M 371.34 114.87 379.23 123.7 382.76 127.94 386.08 132.32 389.1 136.72 391.86 141.12 394.37 145.57 406.59 168.7 412.89 179.53 
M 380.39 117 388.53 126.31 
M 391.91 130.68 393.51 132.89 396.32 137.37 402.44 148.69 
M 404.8 153.29 407.18 157.95 
M 389.43 119.11 394.24 124.7 395.91 126.91 
M 399.06 131.37 403.19 138.19 409.27 149.57 
M 411.64 154.13 418.73 167.81 
M 398.51 121.57 401.51 125.4 404.62 129.87 407.44 134.42 415.05 148.03 418.48 154.72 
M 408.03 125.08 411.77 130.54 414.59 135.07 418.84 142.41 
M 155.46 118.46 154.68 119.47 
M 163.98 115.31 158.31 123.2 
M 171.48 113.47 167.96 118.23 160.83 128.72 
M 178.95 112.13 174.47 117.98 163.61 133.96 
M 186.41 111.18 183.98 114.12 181.26 117.76 166.3 139.32 
M 194.26 110.29 190.78 114.2 188.13 117.72 181.26 127.76 
M 178.22 132.11 168.37 145.84 
M 203.8 108.75 200.71 111.54 197.78 114.58 195.02 117.95 183.99 133.99 169.93 153.43 
M 214.25 106.91 208 112.33 205.02 115.24 202.13 118.42 199.37 121.93 191.12 133.99 183.02 145.19 
M 179.66 149.82 174.8 156.64 170.16 163.6 
M 224.26 105.46 220.86 107.97 218.01 110.4 210.77 117.53 
M 207.89 120.71 203.68 125.98 186.9 149.9 
M 183.64 154.5 174.57 167.89 
M 233.84 104.59 227.92 109 222.08 113.99 219.2 116.75 213.55 122.88 210.72 126.29 207.9 130.03 193.99 150.09 
M 184.75 163.65 178.81 172.56 
M 241.91 104.18 233.54 111.18 
M 230.58 113.77 227.63 116.43 
M 219.13 125.13 214.95 130.26 209.09 138.37 199.38 152.51 191.95 163.9 
M 248.77 103.97 244.97 107.41 227.25 124.5 224.52 127.51 220.54 132.56 
M 217.73 136.37 211.36 145.22 
M 201.88 159.48 199.06 164.03 
M 254.9 103.89 251.66 107.07 240.09 119.34 233.93 125.43 231.05 128.47 228.39 131.62 213.59 152.27 208.96 159.38 
M 260.68 103.85 255.48 109.4 251.34 114.23 
M 248.46 117.54 236.25 130.75 
M 233.54 134.09 231.06 137.57 
M 228.57 141.28 225.82 145.34 
M 222.73 149.78 219.46 154.46 
M 266.34 103.95 262 108.63 253.73 118.62 241.6 132.65 238.85 136.26 236.42 139.9 230.29 149.79 
M 227.31 154.25 223.28 160.19 
M 271.92 104.03 265.84 111.04 248.58 132.3 245.8 136.14 243.28 140 239.97 145.8 
M 237.73 149.81 233.82 156.29 230.53 161.21 
M 277.39 104.09 272.15 110.4 258.36 127.78 255.52 131.59 251.52 137.62 
M 249.12 141.71 246.93 145.76 
M 242.62 154 240.07 158.4 
M 237.13 162.98 235.95 164.73 
M 282.97 104.06 278.15 109.88 264.97 127.11 259.63 134.89 257.15 139.12 248.42 156.21 245.9 160.62 241.46 167.42 
M 288.86 103.87 284.12 109.43 281.64 112.66 271.48 126.56 266.18 134.44 263.79 138.67 255.15 156.59 252.7 160.9 249.93 165.26 246.19 170.7 
M 294.6 103.81 290.3 108.95 285.3 115.51 275.4 129.85 272.74 134.01 270.23 138.39 266.95 145.37 
M 264.89 150.1 262.77 154.74 
M 255.15 167.8 249.1 176.56 
M 300.11 103.82 296.59 108.09 289.15 118.38 284.53 125.35 279.46 133.43 276.81 137.9 274.34 142.6 268.02 157.22 265.69 161.73 263.1 166.04 258.81 172.39 
M 252.99 181.16 247.71 190.34 
M 234.42 210.55 231.39 213.49 
M 305.47 104.11 302.99 107.03 300.33 110.56 295.38 117.77 290.81 124.87 280.69 141.96 278.18 146.82 277.07 149.33 
M 274.94 154.33 271.8 161.6 269.39 166.1 268.03 168.24 
M 265.26 172.5 262.44 176.77 
M 257.08 185.67 254.57 190.22 
M 311.17 104.57 309.55 106.28 306.82 109.65 304.2 113.27 299.3 120.74 294.68 128.28 284.18 146.01 281.61 150.88 276.26 163.17 
M 266.19 180.94 261.27 189.91 
M 317.12 105.19 313.47 109.26 310.78 112.69 308.16 116.38 303.21 124.12 295.87 136.42 288.87 147.72 
M 286.18 152.43 284.9 154.81 281.68 162.11 
M 279.65 167.02 277.47 171.74 
M 272.57 180.57 270.14 184.95 
M 255.33 209.7 252.67 213.18 
M 323.25 105.87 319.98 109.48 314.82 116.15 309.68 123.85 305.89 129.96 
M 303.33 134.15 293.59 149.62 290.9 154.15 288.45 158.75 285.34 166.1 
M 283.39 171.05 281.31 175.8 
M 279.05 180.28 276.69 184.58 
M 271.9 192.89 266.97 200.79 
M 259.22 211.89 256.58 215.15 
M 329.32 106.62 323.78 113.11 318.82 119.96 298.4 151.79 
M 295.79 156.17 294.56 158.36 291.34 165.4 
M 287.49 175.24 286.53 177.66 283.28 184.27 
M 280.97 188.37 278.58 192.29 
M 335.23 107.38 330.16 113.52 325.17 120.32 315.14 136.16 303.31 154.11 300.74 158.39 298.51 162.78 291.66 179.28 
M 285.24 191.75 280.37 199.02 
M 277.73 202.54 275.01 205.98 
M 341.18 108.19 336.75 113.49 331.56 120.59 326.66 128.12 318.98 140.68 309.88 154.2 307.16 158.51 304.85 162.84 301.88 169.57 
M 299.94 174.13 297.91 178.66 
M 295.77 183.02 293.63 187.15 
M 291.55 191.05 289.41 194.73 
M 284.6 201.68 281.92 205.03 
M 279.12 208.29 276.26 211.39 
M 347.18 109.23 340.95 116.77 336.91 122.4 
M 334.34 126.3 330.58 132.38 325.7 140.94 323.01 145.35 313.96 158.47 311.47 162.83 310.43 165.05 
M 308.44 169.48 305.51 176.12 302.19 182.51 
M 299.88 186.53 295.49 193.92 
M 293.35 197.42 291.1 200.82 
M 283.19 210.44 280.28 213.28 
M 353.21 110.45 348.26 116.4 345.4 120.13 339.83 128.11 337.15 132.36 334.66 136.72 330.04 145.6 328.73 147.81 
M 322.92 156.46 318.55 162.82 317.37 165 
M 308.78 182.23 306.31 186.17 
M 359.13 111.86 352.85 119.73 347.14 127.69 344.25 132.03 341.5 136.52 339.07 141.1 334.6 150.17 332 154.54 324.65 165.13 
M 322.08 169.45 319.82 173.76 
M 317.65 178 316.56 180.1 314.12 184.12 311.47 187.9 307.46 193.13 
M 304.96 196.42 302.63 199.59 
M 364.99 113.3 357.46 123.24 351.75 131.54 348.82 136.06 346.08 140.72 338.97 154.57 336.32 158.87 331.91 165.3 
M 329.04 169.61 327.66 171.77 322.86 180.17 320.46 184.15 319.16 186.01 
M 316.45 189.64 310.84 196.33 
M 370.82 114.74 361.93 127.04 353.31 140.2 350.51 144.92 345.5 154.28 341.6 160.94 
M 338.79 165.34 335.87 169.72 
M 332.99 174.03 330.3 178.25 
M 327.79 182.32 324.04 188.04 322.69 189.77 
M 376.85 116.21 366.29 131.16 360.46 139.85 354.58 149.11 350.62 156.01 
M 348.02 160.52 342.49 169.55 
M 334.05 182.46 331.47 186.36 
M 317.77 202.53 315.07 205.34 
M 383.32 117.65 376.56 127.54 365.98 142.06 
M 362.9 146.54 357.09 155.53 
M 354.38 159.96 351.68 164.38 
M 348.94 168.86 341.99 180.24 337.95 186.43 
M 335.31 190.15 332.69 193.61 
M 330.01 196.84 324.4 202.79 
M 321.59 205.55 318.83 208.15 
M 316.12 210.6 313.45 212.86 
M 390.06 119.26 385.46 126.09 
M 382.68 130 379.66 133.96 
M 376.47 137.99 368.38 148.71 356.74 165.91 352.58 172.42 
M 344.54 185.91 340.63 191.91 336.67 197 
M 333.98 200.13 331.22 203.08 
M 396.81 120.96 391.66 128.57 388.78 132.51 378.94 144.49 373.98 150.86 
M 367.84 159.51 364.87 163.63 
M 359.08 171.63 354.93 177.99 350.98 184.73 
M 348.43 189.1 344.61 195.1 343.31 196.84 
M 337.99 203.22 335.24 206.07 
M 403.13 123.21 396.07 133.14 393.03 137.04 382.9 148.88 379.58 153.04 368.77 167.57 
M 365.77 171.43 361.44 177.28 358.7 181.41 352.32 192.25 
M 347.24 199.84 345.94 201.55 341.93 206.08 
M 409.15 125.65 400.02 137.8 395.24 143.56 
M 391.89 147.43 386.82 153.36 382.04 159.58 
M 378.9 163.72 366.7 179.15 
M 361.26 187.19 358.71 191.37 
M 353.68 199.27 351.11 202.74 
M 345.79 208.66 343.01 211.15 
M 414.76 128.53 403.72 142.5 393.95 154.04 379.72 172.04 
M 376.61 175.78 372.06 181.23 369.2 184.98 362.61 194.83 
M 360.08 198.64 357.52 202.19 
M 418.84 133.27 400.84 154.91 396.12 160.85 
M 393 164.82 386.73 172.64 
M 380.52 179.98 377.52 183.5 
M 374.63 187.08 369.16 194.45 
M 366.53 198.1 363.92 201.6 
M 418.84 142.61 407.65 155.82 396.76 169.55 
M 384.41 184.1 378.65 190.95 
M 375.88 194.38 373.16 197.8 
M 418.84 151.33 411.24 160.64 403.56 170.41 
M 400.51 174.16 391.25 184.78 
M 385.46 191.45 379.9 197.86 
M 377.15 200.96 374.4 203.94 
M 418.84 160.1 411.82 169.32 407.3 174.97 
M 404.26 178.6 398.08 185.51 
M 392.21 192.13 386.65 198.33 
M 383.89 201.22 381.13 203.99 
M 418.84 169.4 412.53 177.55 404.86 186.23 
M 401.84 189.56 393.32 198.99 
M 390.59 201.85 388.83 203.6 
M 418.84 178.61 417.61 180.07 
M 414.59 183.53 408.54 190.22 
M 405.58 193.47 402.71 196.61 
M 418.1 187.65 412.21 194.07 
M 409.32 197.2 407.36 199.3 
M 226.25 104.69 228.05 104.97 
M 241.41 103.8 250.81 60.37 251.8 60.56 245.05 104.08 
M 256.59 103.43 269.92 52.12 270.9 52.35 260.23 103.84 
M 271.77 103.61 287.42 46.33 288.4 46.57 275.4 104.07 
M 286.95 103.42 301.53 52.19 302.51 52.44 290.59 103.82 
M 302.15 103.42 322.6 45.08 323.56 45.4 305.74 104.14 
M 317.3 104.71 335.43 63.33 336.37 63.71 320.85 105.6 
M 332.38 106.48 346.28 78.35 347.2 78.76 335.9 107.47 
M 342.37 107.81 344.03 108.58 
M 228.78 104.93 234.54 96.71 237.29 92.43 239.86 88.06 242.21 83.58 244.36 78.98 246.31 74.29 249.87 64.71 
M 251.12 64.95 255.53 64.43 257.65 63.99 259.69 63.35 261.63 62.5 263.47 61.42 265.23 60.15 268.58 57.25 
M 269.83 57.54 273.81 57.55 275.73 57.37 277.59 56.99 279.37 56.38 281.08 55.54 282.71 54.51 285.85 52.06 
M 287.09 52.37 289.51 54.68 290.79 55.65 292.15 56.43 293.59 56.98 295.12 57.3 296.72 57.43 300.07 57.31 
M 301.3 57.63 306.01 57.37 308.3 57.05 310.52 56.53 312.66 55.78 314.71 54.81 316.7 53.64 320.55 50.92 
M 321.77 51.31 323.35 55.67 324.3 57.73 325.43 59.67 326.74 61.46 328.25 63.12 329.93 64.64 333.62 67.47 
M 334.8 67.94 336.01 71.67 336.77 73.41 337.7 75.03 338.82 76.5 340.13 77.82 341.61 79.02 344.89 81.16 
M 346.05 81.68 344.18 87.47 343.44 90.39 342.91 93.32 342.62 96.28 342.57 99.26 342.73 102.27 343.45 108.31 
M 253.34 64.73 257.65 63.99 259.69 63.35 261.63 62.5 263.47 61.42 266.92 58.74 
M 252.89 71.6 256.45 70.99 259.73 69.76 261.25 68.87 264.1 66.66 
M 252.44 78.47 255.24 77.99 256.57 77.57 259.03 76.32 261.27 74.58 
M 252 85.34 254.04 84.99 255.93 84.28 258.45 82.5 
M 271.83 57.59 275.73 57.37 277.59 56.99 279.37 56.38 281.08 55.54 284.3 53.32 
M 271.01 64.08 274.36 63.89 275.96 63.56 277.49 63.04 278.96 62.32 281.73 60.41 
M 270.18 70.57 273 70.41 274.33 70.14 276.84 69.1 279.16 67.5 
M 269.36 77.06 271.63 76.93 272.7 76.71 274.72 75.87 276.59 74.58 
M 268.54 83.55 270.26 83.45 271.86 83.02 274.02 81.67 
M 288.28 53.56 290.79 55.65 292.15 56.43 293.59 56.98 295.12 57.3 298.38 57.41 
M 287.28 60.62 289.44 62.42 290.61 63.08 291.85 63.55 293.16 63.83 295.97 63.93 
M 286.28 67.68 288.08 69.18 289.06 69.74 291.2 70.37 293.55 70.44 
M 285.28 74.73 286.73 75.94 287.52 76.39 289.24 76.9 291.13 76.96 
M 284.27 81.79 285.38 82.71 286.61 83.29 288.72 83.48 
M 303.67 57.54 308.3 57.05 310.52 56.53 312.66 55.78 314.71 54.81 318.64 52.31 
M 302.64 64.03 306.62 63.61 308.52 63.16 310.36 62.52 312.14 61.69 315.51 59.54 
M 301.61 70.53 304.94 70.17 306.53 69.8 309.56 68.56 312.39 66.77 
M 300.57 77.02 303.26 76.74 304.54 76.44 306.98 75.44 309.26 73.99 
M 299.54 83.52 302.55 83.07 304.4 82.32 306.13 81.22 
M 322.52 53.52 324.3 57.73 325.43 59.67 326.74 61.46 328.25 63.12 331.74 66.08 
M 320.58 62.47 322.05 65.95 322.98 67.55 325.31 70.39 328.19 72.84 
M 318.64 71.43 319.8 74.17 320.53 75.43 322.37 77.67 324.63 79.59 
M 316.7 80.38 318.08 83.31 319.42 84.94 321.08 86.35 
M 335.37 69.83 336.77 73.41 337.7 75.03 338.82 76.5 340.13 77.82 343.22 80.12 
M 333.3 78.34 334.38 81.09 335.95 83.45 336.95 84.47 339.32 86.23 
M 331.24 86.85 331.98 88.76 332.48 89.62 333.78 91.11 335.42 92.34 
M 169.4 174.35 177.21 172.96 181.38 172.78 183.64 172.22 187.49 170.85 190.67 167.06 227.46 159.3 231.79 161.97 234.57 163.92 248.49 171.97 246.82 177.32 246.23 180.62 245.06 183.33 243.2 185.34 243.01 188.96 242.49 192.25 241.05 194.62 242.3 197.26 245.11 201.44 240.46 205.08 233 209.75 230.74 211.54 228.14 212.98 224.88 213.33 222.39 214.44 219.5 215.14 217.14 215.42 191.03 212.01 188.21 210.02 183.92 209.55 180.8 209.76 174.91 205.03 172.07 202.39 169.03 200.84 167.93 199.94 
M 169.17 176.17 169.59 175.93 173.03 175.23 176.62 175.36 179.37 174.47 185.19 172.93 188.53 170.79 194.28 168.65 198.33 169.21 201.81 168.48 204.58 168.14 207.07 166.66 209.02 165.21 
M 169.03 179.22 170.25 178.83 177.38 178.6 185.78 176.64 189.24 175.61 196.28 173.91 199.95 174.22 203.56 174.18 206.75 173.53 209.2 172.05 215.04 169.65 
M 169.3 182.32 177.05 182 183.57 181.09 186.96 180.87 190.17 180.95 193.48 180.45 196.47 179.62 203.38 180.05 205.83 178.94 207.5 177.51 209.76 177.76 213.11 177.12 217.17 176.67 220.51 176.1 222.96 176.53 230.37 176.74 237.65 175.84 240.4 176.2 
M 169.28 185.13 170.79 185.14 174.33 185.71 178.29 185.82 181.65 186.18 184.73 185.99 188.22 185.2 191.35 185.23 194.48 185.67 204.74 184.9 207.68 185.37 210.4 185.18 213.47 184.7 215.92 184.81 217.64 184.61 220.06 184.62 231.03 185.57 233.72 185.23 237.82 186.67 
M 169.25 187.84 170.4 187.8 178.4 189.3 182.21 189.71 185.14 189.83 191.89 189.55 195.19 189.89 197.52 191.61 210.47 192.36 214.04 193.01 216.91 192.86 218.91 193.42 221.47 192.93 224.51 192.57 228.5 193.32 
M 169.31 191.15 169.79 191.3 173.25 191.51 176.92 192.62 179.98 194.36 183.46 194.55 194.24 196.09 197.23 196.34 200.8 196.35 203.44 196.83 207.1 196.94 209.94 197.73 213.3 199.78 216.53 199.48 218.86 199.73 222.52 200.94 226.13 201.18 228.85 201.82 232.28 202.33 235.75 202.15 238.63 202.51 244.89 202.84 
M 169.1 194.03 176.45 196.78 179.44 198.42 182.54 199.41 186.68 199.45 190.76 201.1 193.74 201.65 
M 168.76 196.86 169.6 197.33 172.91 198.24 175.83 200.61 178.82 202.63 185.16 204.4 191.47 205.91 194.77 207.08 196.94 208.14 
M 238.59 223.19 243.68 229.89 249.57 235 258.58 252.39 255.19 257.29 254.25 260.51 251.82 262.24 248.89 263.12 246 264.35 242.4 264.91 239.09 264.62 236.11 263.88 234.03 264.02 230.77 262.19 225.56 259.99 223.91 262.17 220.75 262.38 212.51 254.23 204.36 245.82 196.85 238.85 191.69 222.17 191.15 220.06 189.51 216.44 185.87 211.36 
M 233.55 222.78 239.45 230.68 241.42 233.65 242.91 236.63 245.35 239.01 248.31 240.75 
M 228.51 222.38 236.29 232.61 238.41 235.69 239.23 239.03 240.63 242.36 242.77 245.29 246.16 247.02 249.09 247.9 
M 223.52 221.54 226.32 225.1 227.88 228.68 230.46 231.35 232.82 234.36 234.64 238.15 236.32 240.96 237.66 243.87 239.46 246.77 241.4 249.44 243.97 252.38 
M 218.54 220.66 221.55 223.95 224.74 230.08 226.71 233.54 228.78 236.7 231.11 243.26 232.33 244.96 234.27 248.37 238.57 254.21 
M 213.62 219.51 219.78 228.8 221.63 235.46 223.24 238 224.52 241.43 228.44 247.63 
M 208.71 218.28 211.64 221.92 213.22 224.96 214.29 227.99 217.12 234.36 218.61 240.39 
M 203.84 216.92 207.48 224.24 209.41 227.02 211.73 233.77 214.59 243.51 
M 198.99 215.49 200.27 220.13 201.89 223.57 204.7 230.69 205.24 233.36 206.51 236.95 208.65 240.5 209.3 243.3 210.79 246.11 
M 194.15 214.01 196.05 218.8 197.86 225.88 199.32 229.91 202.28 235.87 203.58 237.97 204.23 241.09 204.21 244.99 
M 189.34 212.47 191.73 216.66 194.78 226.82 195.67 230.98 
M 366.52 212.06 369.2 217.4 368.42 218.04 363.7 214.37 
M 351.86 215.81 355.07 222.49 354.25 223.08 348.91 217.95 
M 336.99 218.37 341.63 229.15 340.75 229.65 333.83 220.18 
M 321.91 219.47 328.78 237.17 327.87 237.6 318.62 221.02 
M 314.07 219.8 324.41 247.08 323.48 247.48 310.72 221.24 
M 367.95 217.67 364.62 217.36 363.02 217.38 361.48 217.62 360.02 218.08 358.62 218.77 357.29 219.66 354.75 221.82 
M 353.72 222.57 350.41 222.6 348.83 222.8 347.34 223.19 345.94 223.8 344.64 224.63 343.43 225.66 341.16 228.07 
M 340.06 228.7 336.76 229.06 335.21 229.41 333.77 229.94 332.44 230.69 331.23 231.64 330.12 232.78 328.09 235.4 
M 326.94 235.95 324.95 237.31 324.14 238.06 323.52 238.9 323.12 239.84 322.95 240.87 322.97 241.98 323.37 244.35 
M 338.39 228.84 335.21 229.41 333.77 229.94 332.44 230.69 331.23 231.64 329.09 234.06 
M 325.91 236.61 324.14 238.06 323.52 238.9 323.12 239.84 322.95 240.87 323.13 243.15 
M 417.83 130.11 421.27 128.79 426.7 125.99 437.16 121.4 440.71 118.99 447.19 115.52 448.85 113.48 451 111.74 453.75 111.67 457.26 110.86 459.37 108.09 462.69 105.44 466.09 104.62 469.07 103.12 469.57 101.16 472.77 100.12 478.78 96.13 481.7 94.59 483.85 93.89 488.01 91.16 472.9 109.66 471.2 111.51 470.3 114.16 469.94 117.5 469.3 120.97 468.11 123.89 466.2 126.09 463.68 131.63 464.27 135.79 463.41 138.23 462.05 140.62 461.21 143.53 460.98 146.91 460.34 149.68 462.83 156.91 463.07 159.53 460.64 163.8 459.73 173.25 458.74 176.01 458.52 181.58 459.62 184.94 460.06 187.32 460.75 189.79 462.07 193.17 465.26 206.29 465.27 208.93 465.64 211.92 464.73 213.08 465.59 215.8 470.07 224.2 470.5 227.4 469.84 230.68 490 249.59 486.25 246.59 482.3 245.69 480.32 244.18 476.62 243.19 474.25 241.2 472.21 238.62 468.8 235.55 466.23 233.58 462.37 231.72 459.41 229.43 457.77 227.23 456.49 225.14 453.99 224.44 449.33 222.34 447.43 220.34 444.6 218.55 440.74 216.87 437.12 214.6 434.52 211.73 431.39 209.91 429.81 207.69 427.54 205.96 421.28 202.17 417.83 199.36 
M 427.09 130.5 429.9 129.34 432.08 127.9 434.89 126.64 438.54 125.87 444.07 121.71 450.2 118.93 451.83 117.38 454 116.58 456.7 115.3 460.57 114.24 
M 424.95 135.3 427.97 134.29 434.46 133.21 436.47 132.14 439.44 129.99 442.58 128.6 444.36 127.05 447.35 125.67 451.21 124.36 453.58 123.77 456.56 122.5 459.15 121.73 
M 421.58 140.4 427.97 138.16 431.54 137.51 437.92 136.66 440.18 135.25 443.16 134.6 445.91 132.92 449.15 131.2 
M 417.83 143.96 421.63 144.33 424.77 143.71 432.12 141.9 435.88 141.63 438.42 140.65 441.29 140.51 444.93 139.83 450.02 136.6 
M 421.68 147.89 425.03 147.73 428.37 147.37 431.38 146.48 434.77 145.85 441.62 144.23 443.83 144.18 447.31 143.24 450.33 141.27 453.55 139.77 
M 417.83 150.88 421.61 151.38 428.81 151.22 434.92 150.16 438.1 148.99 441.08 148.28 443.51 148.91 454.62 145.34 457.58 143.98 
M 421.89 154.48 429 154.68 432.57 154.05 435.67 154.03 439.03 154.69 441.91 154.5 445.57 154.83 451.85 152.44 
M 417.83 157.81 421.86 158.25 425.11 158.09 428.54 158.32 436.23 158 
M 425.08 163.02 429.51 162.89 433.2 163.43 439.38 162.81 
M 417.83 164.73 421.32 166.41 424.89 166.89 437.19 168.08 440.25 167.42 444.04 167.39 448.02 167.11 451.56 168.48 
M 421.79 170.19 425.09 170.96 428.96 170.84 433.16 171.08 436.81 171.67 
M 429.22 174.77 436.55 175.23 439.21 176.92 442.32 177.42 444.56 178.43 448.41 178.49 
M 421.83 177.32 425.48 178.24 432.45 179.52 436.19 180.01 441.59 182.34 444.06 182.85 447.98 184.04 451.29 184.51 454.71 186.97 458.47 186.77 
M 417.83 178.58 422.17 180.81 425.69 182.13 429.23 182.47 432.37 183.79 435.07 184.41 437.83 186.14 
M 425.76 185.92 428.52 186.93 431.23 187.39 433.95 188.13 437.57 189.56 440.66 191.14 
M 428.69 190.51 431.61 191.45 435.07 192.31 437.84 193.56 440.56 195.01 443.12 196.76 445.94 198.31 448.2 199.98 
M 428.3 194.78 435.68 196.93 438.2 197.99 442.21 201.66 445.1 202.87 448.45 204.78 451.2 206.73 454.72 207.37 457.02 208.31 
M 417.83 192.43 420.92 195.69 423.86 197.84 427.27 199.36 431.06 199.85 434.07 200.73 439.43 205.12 446.1 208.41 451.27 212.01 458 214.56 
M 423.88 200.98 429.87 203.71 434.22 207.55 437.71 209.28 441.17 212 445.05 213.56 448.1 215.77 453.57 219.06 457.25 220.4 460.25 222.02 461.38 222.97 462.8 225.15 
M 404.9 201.31 402.89 201.8 401.06 202.48 399.51 203.76 398.41 205.48 397.47 207.35 395.9 208.4 392.49 206.79 390.5 206.2 386.23 206.69 384.46 207.74 381.2 210.19 375.74 209.55 374.01 209.2 375.66 210.85 
M 64.92 137.47 66.69 136.6 72.83 134.67 77.16 133.6 87.82 131.4 100.21 128.5 135.68 122.23 147.56 120.38 151.85 119.61 154.22 119.01 158.27 123.11 160.24 127.56 162.48 131.97 164.97 136.35 166.96 140.79 168.25 145.32 170.13 154.46 169.95 159.16 170.17 163.82 170.11 168.51 168.93 178.02 169.32 182.65 169.33 192.01 168.78 196.76 167.49 201.6 164.82 206.52 150.55 205.6 139.98 204.04 130.7 201.68 122.12 198.86 114.16 195.69 107.18 192.07 100.59 188.39 94.25 183.91 88.72 178.69 
M 81.24 169.8 76.86 164.63 74.27 160.68 71.68 155.85 
M 142.05 139.6 142.54 143.52 140.88 150.96 139.68 154.36 138.17 157.57 136.96 160.6 137.29 166.4 139.22 172.82 140.07 176.71 140.06 181.12 130.58 181.23 123.53 181.03 116.95 180.17 110.42 178.81 103.99 176.89 98.13 174.21 92.5 171.09 
M 87.22 177.92 83.5 173.03 79.37 167.12 73.66 158.53 67.45 150.39 61.6 142.04 61.1 139.59 62.5 137.59 64.99 137.47 66.85 139.31 70.59 145.95 77.22 156.63 83.08 168.17 88.97 178.55 
M 88.4 179.3 83.19 178.4 73.13 177.03 50.9 172.89 36.2 171.1 33.72 170.55 31.26 169.57 30 167.23 31.1 165 33.6 164.46 38.6 165.83 45.67 167.22 55.65 169.52 62.85 171.72 72.43 174.38 82.19 176.62 88.66 178.32 
M 98.22 152.79 95.32 148.71 93.89 143.92 94.09 138.92 95.91 134.26 99.15 130.44 103.4 127.91 
M 108.89 126.92 113.31 127.47 117.8 129.67 121.34 133.21 123.54 137.7 124.16 142.67 123.13 147.56 120.57 151.86 116.75 155.1 112.09 156.91 107.09 157.12 102.29 155.69 98.22 152.79 
M 118.87 134.97 120.62 138.57 121.12 142.54 120.3 146.46 118.25 149.9 115.19 152.48 111.47 153.94 107.47 154.1 103.63 152.96 100.37 150.64 
M 103.91 145.58 102.75 143.95 102.18 142.03 102.26 140.03 102.99 138.17 104.28 136.64 106 135.62 107.96 135.21 109.95 135.45 111.74 136.33 113.16 137.75 114.04 139.55 114.29 141.53 113.87 143.49 112.85 145.21 111.32 146.5 109.46 147.23 107.46 147.31 105.54 146.74 103.91 145.58 
M 102.35 142.03 107.63 147.31 
M 104.56 141.5 110.06 147 
M 105.83 140.04 111.85 146.06 
M 108.95 140.43 113.18 144.66 
M 107.95 136.7 114.03 142.77 
M 111.24 137.26 114.11 140.13 
M 80.18 168.56 80.82 169.2 
M 66.52 136.69 71.78 141.96 
M 71.08 135.18 74.58 138.69 
M 75.88 133.92 80.06 138.1 
M 80.9 132.86 85.38 137.34 
M 85.91 131.81 91.93 137.82 
M 90.86 130.68 95.5 135.33 
M 95.77 129.53 98.02 131.78 
M 100.71 128.4 101.41 129.1 
M 111.02 126.57 111.72 127.28 
M 116.2 125.68 120.9 130.38 
M 121.3 124.72 127.3 130.71 
M 126.49 123.83 130.11 127.45 
M 131.66 122.94 136.5 127.78 
M 136.84 122.05 140.03 125.24 
M 142.07 121.21 146.98 126.12 
M 147.34 120.41 152.5 125.57 
M 152.46 119.46 157.94 124.94 
M 124.85 183.03 125.14 181.74 124.8 180.44 124.12 179.98 123.03 180.13 
M 93.09 179.76 91.86 178.33 
M 99.07 154.91 98.23 157.3 98.09 159.03 98.51 160.23 99.12 161.09 100.01 162.06 100.96 162.71 
M 149.81 152.47 149.97 153.08 149.92 153.57 149.19 154.78 
M 125.33 163.95 128.6 167.08 129.15 168.25 129.04 169.75 128.33 171.91 126.79 173.7 
M 131.59 127.47 130.03 125.71 128.62 123.48 
M 160.27 172.45 156.38 173.49 152.26 176.24 
M 122.05 174.41 121.54 179.38 120.86 180.84 119.53 182.7 
M 107.7 167.65 105.29 167.21 102.8 166.17 
M 101.05 154.81 99.85 155.71 
M 134.52 187.8 133.69 186.97 132.01 183.98 130.29 182.03 129.78 180.14 129.03 179.84 
M 89.85 150.65 89.43 151.2 88.74 151.7 86.5 152.96 85.15 153.34 84.46 153.35 82.91 152.93 81.39 152.08 
M 134.11 170.7 132.58 169.78 131.8 169.69 131.06 169.9 130.43 170.32 129.76 170.94 127.73 173.57 125.9 175.09 125.05 176.01 123.43 178.78 
M 131.84 127.86 130.34 126.21 128.52 123.49 
M 100.3 154.27 99.06 156.24 
M 125.72 145.72 123.89 143.93 
M 154.01 155.03 152 157.81 151.57 158.7 151.54 160.97 151.83 162.23 
M 109.57 193.31 112.02 191.23 112.87 190.02 113.28 189.69 114.18 189.42 
M 87.38 172.99 89.24 172.34 90.03 171.63 90.2 171.2 90.03 164.32 
M 138.87 129.86 136.48 129.77 135.54 129.54 134.83 129.14 130.93 125.58 129.35 123.35 
M 160.05 150.76 155.86 150.17 154.58 149.49 153.96 149.33 
M 160.2 138.06 156.92 138.66 156.05 139.65 155.38 139.99 
M 107.3 192.14 107.61 191.99 
M 156.95 203.41 157.61 202.32 157.78 200.82 157.61 200.07 156.96 199.49 155.25 198.76 154.29 198 
M 158.13 178.39 154.28 178.42 152.81 178.19 151.91 178.39 
M 68.97 139.1 66.98 139.53 
M 134.81 196.24 135.39 195.56 135.89 194.48 135.82 192.77 
M 127.32 174.99 126.2 175.75 125.26 176.66 122.89 179.82 121.51 180.94 
M 80.34 156.12 79.76 154.61 79.43 152.84 78.64 151.46 77.5 150.52 75.76 149.8 
M 124.89 182.06 124.83 181.11 124.25 180.2 123.65 180.03 122.46 180.33 
M 147.32 133.38 145.09 136.03 143.66 137.01 142.66 137.24 141.36 137.3 138.76 137.04 
M 133.33 200.87 133.55 200.03 134.48 199.64 135.12 199.67 135.49 200.33 
M 138.56 185.4 135.61 184.29 132.45 182.5 131.11 181.47 130.47 180.08 130.11 179.75 129.21 179.45 
M 76.77 155.85 77.25 154.02 77.23 152.81 76.61 151.23 75.95 150.57 
M 157.88 176.22 154.28 177.78 152.77 177.92 151.9 178.26 
M 110.81 170.21 108.92 170.38 105.41 171.49 104.42 172.17 103.53 173.71 
M 158.79 138.94 156.64 139.36 154.98 140.35 
M 164.81 148.09 163.15 147.13 160.02 145.85 155.51 144.73 154.77 144.76 154.14 144.98 153.66 145.4 153.33 145.9 153.09 146.94 
M 155.47 157.47 153.11 158.9 152.13 159.89 151.85 160.38 151.7 161.28 151.85 162.14 152.69 163.4 
M 145.2 190.47 146.09 189.9 147.89 189.42 151.41 189.15 152.23 189.17 152.48 189.31 
M 162.64 141.11 161.02 139.75 159.74 139.26 156.8 139.73 155.19 140.2 
M 169.02 148.8 167.74 147.97 166.58 146.71 165.23 145.84 
M 153.56 143.41 153.12 144.4 152.81 145.61 152.79 146.78 153.08 149.03 
M 139.72 188.49 136.75 187.77 134.9 186.83 134.02 186.01 132 183.45 130.64 182.18 130.2 180.67 
M 100.29 167.23 100.88 167.57 101.94 168.83 102.31 169.51 102.56 170.6 102.6 172.81 102.16 173.8 101.28 175.02 
M 159.48 201.17 159.08 199.93 158.65 199.54 157.42 199.07 155.71 198.74 154.71 198.24 153.84 197.19 153.07 195.01 
M 131.23 201.26 131.15 200.49 131.43 199.51 132.2 198.28 133.57 196.7 134.95 194.68 
M 148.65 202.62 149.72 203.65 150.82 205.62 
M 128.62 186.27 128.98 184.2 128.84 183.44 128.12 182.09 127.75 180.48 126.8 179.96 
M 163.33 133.46 161.75 133 161.55 132.75 161.61 132.3 
M 95.32 184.67 95.69 184.46 96.24 184.64 
M 84.4 133.81 87.28 132.39 88.01 131.35 
M 120.68 132.54 121.43 132.93 122.04 133.51 122.48 134.19 122.67 135.04 122.65 135.89 
M 145.34 181.07 145.52 181.96 145.88 182.35 149.05 183.07 
M 148.25 191 150.56 189.63 151.71 189.39 152.36 189.38 152.46 189.5 
M 153.74 185.92 154.86 186.2 154.92 187.14 154.55 187.82 152.65 189.5 
M 145.2 145.93 147.27 147.22 150.22 148.56 150.87 149.1 151.79 150.03 152.33 151.88 
M 168.05 169.44 167.59 170.15 166.72 170.49 165.24 170.65 162.58 170.27 161.76 170.34 160.74 170.75 159.98 171.32 
M 72.85 136.61 71.06 136.55 68.92 136.73 65.39 137.86 
M 80.36 158.74 79.12 155.72 79.21 153.64 78.94 152.61 78.07 151.24 77.29 150.67 
M 150.22 170.99 151.63 171.17 153.41 171.92 153.56 172.1 153.54 172.51 152.86 173.78 
M 110.32 185.62 110.65 185 111.32 184.31 112.08 184.03 112.68 184.19 113.48 184.87 114.25 185.97 114.89 187.21 115.26 188.55 
M 88.74 178.68 89.41 179.71 
M 83 172.32 82.77 173.27 83.42 172.91 
M 80.52 168.77 80.06 169.33 79.72 170.48 80.39 169.84 81.13 169.64 
M 78.12 165.25 77.18 166.24 76.67 167.68 77.51 166.75 78.81 166.29 
M 75.78 161.73 74.31 163.15 73.63 164.89 74.64 163.66 76.56 162.88 
M 73.45 158.24 71.43 160.06 70.58 162.09 71.76 160.57 74.27 159.46 
M 70.95 154.9 68.55 156.97 67.53 159.3 68.88 157.48 71.86 156.08 
M 68.37 151.63 65.67 153.88 64.49 156.5 66 154.39 69.25 152.8 
M 65.96 148.21 62.79 150.79 61.44 153.71 63.12 151.3 66.81 149.43 
M 63.51 144.84 59.91 147.7 58.39 150.91 60.24 148.21 64.37 146.07 
M 61.42 141.18 57.04 144.61 55.34 148.12 57.37 145.12 62.01 142.65 
M 88.53 178.79 89.85 179.07 
M 84.89 177.34 85.19 177.24 85.28 177.43 
M 80.63 176.25 81.52 175.63 81.61 176.48 
M 76.51 175.35 77.04 174.57 77.85 174.01 77.64 174.7 77.81 175.65 
M 72.51 174.4 73.2 173.16 74.18 172.4 73.8 173.29 73.92 174.72 
M 68.61 173.3 69.36 171.75 70.51 170.78 69.96 171.88 70.01 173.63 
M 64.7 172.23 65.52 170.34 66.84 169.17 66.11 170.47 66.1 172.62 
M 60.82 171.06 61.68 168.94 63.17 167.55 62.27 169.06 62.18 171.5 
M 56.95 169.87 57.84 167.53 59.5 165.93 58.43 167.65 58.28 170.24 
M 53.01 168.87 54 166.12 55.83 164.32 54.59 166.24 54.37 169.2 
M 49.04 167.95 50.16 164.71 52.15 162.7 50.75 164.84 50.45 168.26 
M 45.05 167.1 46.32 163.3 48.48 161.09 46.91 163.43 46.52 167.4 
M 41.04 166.33 42.48 161.89 44.81 159.47 43.07 162.02 42.57 166.64 
M 37.07 165.45 38.64 160.48 41.14 157.86 39.23 160.61 38.62 165.84 
M 33.11 164.57 34.79 159.07 37.47 156.24 35.39 159.2 34.7 164.79 
M 42.3 171.84 49.2 175.46 57.29 179.2 65.41 182.44 73.41 185.2 81.57 187.49 89.95 189.29 107.18 192.07 
M 56.18 175.32 57.1 175.07 
M 157.78 117.6 166.11 125.93 
M 163.68 115.41 170.6 122.34 
M 170.14 113.78 181.54 125.18 
M 176.85 112.4 188.24 123.79 
M 184.02 111.48 190.87 118.32 
M 191.27 110.63 198.49 117.85 
M 198.42 109.69 210.49 121.76 
M 205.3 108.48 215.9 119.08 
M 212.19 107.27 219.39 114.47 
M 219.13 106.13 226.66 113.65 
M 226.3 105.2 235.53 114.43 
M 233.78 104.59 244.1 114.92 
M 241.47 104.19 253.39 116.11 
M 249.33 103.95 256.37 111 
M 257.32 103.86 263.55 110.08 
M 265.49 103.93 274.03 112.48 
M 273.7 104.05 280.56 110.91 
M 281.84 104.1 293.11 115.37 
M 289.68 103.85 298.31 112.48 
M 297.74 103.82 305.76 111.83 
M 306.19 104.17 314.38 112.37 
M 315.07 104.96 326.42 116.31 
M 324.18 105.98 330.31 112.11 
M 333.42 107.13 343.25 116.96 
M 342.8 108.41 354.88 120.5 
M 352.86 110.38 361.7 119.23 
M 363.5 112.93 373.58 123.02 
M 374.25 115.59 384.93 126.27 
M 384.72 117.97 396.16 129.4 
M 395.46 120.61 406.18 131.34 
M 407.99 125.06 419.01 136.08 
"/></svg>