<svg xmlns="http://www.w3.org/2000/svg" width="520" height="320"><rect x="0" y="0" width="520" height="320" fill="floralwhite"/><rect x="10" y="10" width="500" height="300" stroke="black" stroke-width="1" fill="none"/><path stroke="black" stroke-width="1" fill="none" stroke-linecap="round" stroke-linejoin="round" d="
M 191.4 121.32 205.61 111.09 212.66 106.52 219.9 102.28 234.74 94.42 242.58 91.42 250.68 89.21 259.05 88.55 267.45 88.33 275.82 88.9 283.76 91.64 291.27 95.39 313.14 107.88 320.17 112.48 333.64 122.51 340.46 127.4 360.07 141.04 
M 360.07 174.79 343.73 188.62 337.16 193.84 330.39 198.81 323.43 203.51 316.22 207.81 308.92 211.96 301.36 215.6 293.51 218.6 285.55 221.26 277.26 222.61 268.88 223.06 260.49 222.9 252.09 223.14 243.95 221.11 236.15 217.99 213.32 207.35 206.16 202.97 198.15 197.06 
M 244.64 144.36 245.17 144.34 
M 254.03 142.78 259.95 142.29 265.26 141.26 
M 267.6 141.11 272.58 141.32 
M 277.03 141.39 282.56 141.76 293.68 143.07 303.25 144.47 312.42 147.11 318.94 148.3 
M 321.76 148.91 329.22 150.68 331.9 150.99 335.81 151.18 
M 338.41 151.3 339.72 151.35 354.33 150.48 360.07 149.74 
M 200.69 115.15 199.81 117.43 
M 199.04 119.82 198.41 122.35 
M 196.17 129.57 195.68 130.67 
M 201.27 190.83 202.88 199.27 
M 205.27 117.47 204.34 119.61 
M 202.14 126.6 201.54 129.08 
M 201.45 168.86 203.57 176.75 
M 204.84 181.82 205.46 184.32 
M 206.03 186.76 206.58 189.15 
M 207.87 194.1 208.54 196.58 
M 209.21 199.04 211.43 206.19 
M 211.02 114.74 210.38 115.61 208.9 118.64 
M 207.54 123.28 207.34 124.57 207.18 128.92 
M 206.08 136.93 204.82 141.8 
M 209.53 166.93 210.02 168.94 
M 212.17 177.12 212.64 179.58 
M 213.05 181.97 213.94 188.7 
M 214.44 191.12 215.08 193.65 
M 216.49 198.76 217.27 201.33 
M 218.07 203.88 218.87 206.41 
M 219.74 208.96 220.38 210.72 
M 222.21 105.48 221.39 107.67 
M 220.65 109.94 219.98 112.27 
M 219.33 114.61 218.56 116.82 
M 217.58 118.8 215.91 121.56 215.49 122.61 
M 214.38 130.35 214.44 133.38 
M 220.64 179.18 221.27 183.88 
M 222.18 188.81 222.65 191.27 
M 227.59 208.93 228.23 211.21 
M 228.76 213.33 229.07 214.7 
M 226.92 113.74 226.87 116.63 
M 226.64 119.34 225.94 123.02 225.29 125.27 224.1 128.42 
M 223.19 130.42 222.37 132.52 
M 228.52 180.58 228.81 182.95 
M 229.17 185.39 230.45 192.81 
M 231.75 197.99 234.15 204.93 234.81 207.3 235.36 211.92 
M 235.6 213.72 236.9 218.29 
M 236.79 109.72 236.31 112.19 
M 235 116.76 234.57 119.25 
M 234 124.47 233.18 129.41 
M 232.56 131.68 231.36 134.82 230.88 135.67 
M 234.51 169.27 235.15 172.07 
M 236.39 177.61 236.95 180.31 
M 237.86 185.46 238.18 187.88 
M 238.49 190.29 238.89 192.77 
M 239.5 195.41 240.58 199.41 241.31 202.9 
M 242.2 212.1 242.36 213.04 244.29 218.75 
M 245.09 110.51 243.53 119.21 241.88 124.78 
M 241.33 127.11 240.89 129.53 
M 240.52 132.04 240.24 134.64 
M 239.89 137.19 239.85 137.42 
M 243.15 165.23 243.47 167.35 
M 243.83 169.88 244.04 172.28 
M 244.71 177.26 245.23 179.94 
M 245.66 182.51 246.07 185.06 
M 246.61 187.72 247.74 193.06 
M 248.08 195.46 248.4 197.77 
M 248.73 200.02 249.1 202.24 
M 249.47 204.4 249.76 206.43 
M 250 209.99 250.47 212.86 252.14 218.4 
M 253.39 222.57 253.56 223.1 
M 253.7 101.11 253.59 103.96 
M 253.18 109.46 252.27 114.44 
M 251.65 116.75 251.02 119.03 
M 250.43 121.35 249.4 126.09 
M 248.98 128.53 248.11 134.88 247.96 139.09 
M 247.74 142.32 247.55 144.12 
M 252.65 174.26 253.6 179.53 
M 254.09 182.16 254.59 184.81 
M 255.12 187.46 256.41 195.04 
M 256.69 197.33 257.23 206.15 258.02 209.46 
M 259.46 214.16 260.15 216.45 
M 260.81 218.7 262.04 222.93 
M 261.15 96.86 261.01 101.15 261.36 105.93 
M 261.58 109.1 261.55 113.48 261.17 116.02 259.59 121.74 
M 258.8 123.84 258.13 126.05 
M 257.65 128.46 257.25 130.95 
M 256.78 133.38 255.98 136.95 254.98 142.65 
M 258.85 165.12 259.06 167.51 
M 259.96 172.79 260.93 178.11 
M 261.33 180.67 263.23 189 
M 264.08 194.04 264.58 198.54 
M 264.61 200.49 264.55 203.21 264.84 205.29 265.21 206.53 
M 266.09 209.15 267.95 214.4 
M 268.57 216.7 269.92 223.01 
M 269.06 99.77 268.74 105.33 
M 268.63 111.08 268.7 114.09 
M 268.82 117.12 268.85 118.61 268.55 121.22 267.24 125.71 266.09 130.35 263.64 138.14 
M 263.04 140.5 262.74 141.69 
M 264.72 155.74 265.17 158.41 
M 266.45 172.95 269.25 184.42 
M 269.66 186.97 270.08 190.56 271.32 196.87 
M 274.43 209.33 275.41 212.97 276.06 216.24 
M 276.43 218.35 276.82 220.49 
M 277.12 105.41 277.3 109.95 277.15 112.71 276.52 117.9 276.35 122.08 
M 276.16 124.78 275.22 131.08 274.9 132.23 
M 274.08 134.33 273.04 136.24 
M 272.01 138.17 270.72 141.15 
M 273.32 169.35 273.41 170.54 273.95 173.3 276.03 179.75 276.78 182.66 277.64 188.84 
M 278.45 193.8 278.97 196.33 
M 279.6 198.93 280.36 201.63 
M 281.83 206.89 283.34 213.93 
M 283.98 216.4 284.56 218.8 
M 285.26 109.5 284.18 121.37 283.64 125.14 
M 283.22 127.6 282.36 131.09 281.94 132.13 
M 280.21 136.29 279.42 138.47 
M 278.73 140.48 278.41 141.38 
M 281 163.07 281.33 167.89 
M 281.45 170.25 281.86 172.88 
M 283.29 178.7 285.09 185.89 285.72 189.67 
M 286.53 194.6 287.45 199.51 
M 288.1 202.12 290.74 212.4 
M 291.63 215.17 292.46 217.87 
M 291.71 115.42 290.67 124.32 289.92 127.87 
M 289.23 130.06 288.14 133.35 286.14 142.21 
M 289.2 166.77 289.85 171.9 
M 290.44 174.72 293.69 188.72 
M 294.47 193.62 295.1 197.29 297.43 206.51 
M 298.17 209.18 299.22 213.1 299.75 216.22 
M 300.06 109.12 299.19 111.05 
M 297.61 115.08 297.3 117.58 
M 297.17 120.25 296.81 124.12 295.94 127.53 
M 295.4 129.86 294.25 138.97 293.58 143.06 
M 298.29 167.13 299.72 174.17 300.41 183.58 301.65 191.1 302.21 193.71 303.83 199.35 306.46 209.81 307.07 212.86 
M 305.22 116.46 304.69 118.71 
M 304.26 121.08 304.03 123.63 
M 303.91 129.18 303.63 131.77 
M 303.15 134.18 301.67 144.23 
M 303.34 156.22 304.11 159.29 
M 306.76 168.78 307.62 173.01 307.94 175.55 308.13 181.18 
M 308.19 183.37 308.78 189.18 309.43 191.87 311.75 199.19 
M 312.76 202.16 313.64 204.99 
M 314.32 207.6 314.59 208.74 
M 312.89 118.46 312.54 120.86 
M 312.23 123.31 312.01 125.86 
M 311.87 128.52 311.23 137.86 311.78 146.94 
M 314.77 166.96 315.21 172.95 315.94 179.1 
M 316.16 181.45 317.42 190.98 
M 317.9 193.48 321.28 204.47 
M 320.5 118.21 320.42 120.79 
M 320.25 123.3 320 127.11 320.42 139.97 
M 322.93 163.15 323.03 165.47 
M 323.11 167.76 323.22 171.16 323.83 177.16 
M 324.04 179.5 324.73 184.38 
M 325.14 186.87 325.93 190.74 328.23 198.68 
M 327.56 127.88 327.81 132.05 328.74 138.26 330.51 148.04 330.82 150.91 
M 332.32 162.44 332.44 165.89 332.31 170.14 332.57 176.9 335.09 192.4 
M 336.2 128.39 336.78 135.1 339.21 147.4 339.73 151.35 
M 340.09 155.1 340.46 157.73 
M 341.45 165.46 341.08 175.11 341.7 185.72 
M 311.59 108.86 311.87 109.1 312.19 108.98 312.46 108.24 
M 304.42 188.05 305.61 188.95 306.45 189.3 308.46 189.34 
M 327.33 154.06 327.82 152.85 
M 270.45 148.16 270.71 147.42 271.11 147.01 271.51 146.85 272.07 146.94 
M 309.02 123.64 307.77 122.06 307.31 121.73 305.37 120.72 304.05 120.24 302.57 118.73 301.77 117.22 
M 311.67 201.01 311.49 200.16 311.5 199.11 312.49 196.23 
M 284.64 158.19 284.17 157.61 283.07 154.95 283.05 154.56 283.62 153.16 283.65 152.61 
M 338.83 184.56 338.87 184.65 
M 261.76 112.42 261.43 113.79 260.38 114.89 259.76 115.97 
M 270.24 194.48 269.05 194.47 268.03 194.8 
M 255.69 99.86 256.09 99.17 256.43 98.9 
M 256.54 195.83 254.49 194.99 253.67 194.84 251.32 195.8 
M 281.44 107.58 280.58 108.34 279.25 108.68 
M 206.55 203.21 206.3 202.55 
M 263.36 137.35 263.71 138.02 262.9 139.16 262.45 140.62 
M 243.23 180.74 242.55 181.79 242.41 182.45 241.57 184.31 
M 311.03 183.73 309.08 181.47 308.17 179.64 308.14 178.87 
M 307.25 161.9 306.33 161.4 306.04 160.65 
M 333.39 128.67 332.55 129.46 332.39 129.83 332.48 130.63 333.09 131.83 333.7 132.56 335.6 134.21 
M 338.58 187.23 337.39 187.04 336.29 187.44 335.13 188.79 
M 216.73 137.34 216.16 137.38 215.51 137.19 215.05 137.31 
M 322.84 169.08 324.72 169.44 
M 223.36 203.91 224.05 203.48 224.78 202.37 224.9 201.05 224.56 199.43 
M 313.94 152.6 316.1 152.46 316.96 152.04 317.47 151.21 
M 337.69 138.07 336.85 138.75 336.41 138.87 336.12 138.8 335.72 138.25 
M 320.23 119.53 318.71 117.97 316.5 116.15 312.22 114.32 311.62 113.91 311.2 113.31 
M 210.95 114.37 211.89 115.29 212.7 115.8 213.15 115.76 213.85 114.99 
M 210.51 107.48 211.57 107.17 
M 218.46 102.77 209.94 68.4 210.54 68.24 220.53 101.95 
M 226.56 98.31 217.04 53.76 217.64 53.62 228.64 97.5 
M 234.79 94.07 228.15 43.88 228.76 43.79 236.93 93.44 
M 243.46 90.79 243.39 35 244.01 34.99 245.67 90.45 
M 252.5 88.66 261.8 30 262.41 30.08 254.72 88.76 
M 261.75 88.22 275.54 33.87 276.14 34.02 263.97 88.46 
M 271.03 87.69 291.27 40.08 291.84 40.31 273.15 88.34 
M 280.09 89.81 314.26 44.32 314.76 44.68 282.03 90.91 
M 288.54 93.61 329.9 51.52 330.35 51.94 290.36 94.91 
M 296.62 98.12 334.07 63.55 334.5 63.99 298.37 99.51 
M 304.63 102.73 333.1 76.93 333.52 77.38 306.4 104.09 
M 312.7 107.24 337.55 86.52 337.96 86.98 314.4 108.69 
M 320.44 112.31 338.74 99.33 339.12 99.82 322.03 113.87 
M 325.2 115.8 325.85 116.7 
M 211.95 106.94 212.63 95.28 212.52 87.45 211.84 79.64 210.79 71.84 
M 211.54 71.63 213.69 68.99 215.5 66.19 216.8 63.15 217.99 58.21 
M 218.75 58.04 221.51 56.59 224.04 54.87 226.17 52.73 228.81 48.9 
M 229.58 48.78 233.06 47.64 236.34 46.18 239.34 44.23 243.4 40.58 
M 244.17 40.57 250.03 40.03 253.78 39.12 257.37 37.67 260.87 35.86 
M 261.64 35.97 264.22 37.48 266.89 38.63 269.71 39.23 274.16 39.31 
M 274.92 39.49 279.32 42.27 282.45 43.6 285.78 44.39 289.24 44.84 
M 289.96 45.13 294.46 46.74 299.03 47.99 303.7 48.67 310.84 48.87 
M 311.47 49.32 314.32 51.47 317.33 53.28 320.57 54.57 325.77 55.73 
M 326.33 56.26 326.47 58.93 326.97 61.46 327.99 63.8 330.33 67.01 
M 330.86 67.57 329.59 71.49 329.31 74.14 329.59 76.82 330.25 79.51 
M 330.78 80.08 331.26 83.39 332.08 85.35 333.41 87.05 335.07 88.59 
M 335.58 89.17 334.96 93.11 335.12 95.68 335.83 98.17 336.91 100.62 
M 337.38 101.24 332.62 105.63 329.89 108.91 327.61 112.53 325.62 116.39 
M 212.64 70.32 214.65 67.62 215.5 66.19 216.8 63.15 217.65 59.89 
M 214.17 74.52 216.63 70.96 217.75 68.35 218.48 65.54 
M 215.7 78.71 217.76 75.74 218.7 73.54 219.31 71.2 
M 217.23 82.9 218.4 81.33 219.31 79.64 220.14 76.85 
M 218.77 87.09 219.65 85.9 220.34 84.62 220.97 82.5 
M 220.15 57.34 222.82 55.78 224.04 54.87 226.17 52.73 227.98 50.22 
M 221.31 61.2 223.71 59.8 224.81 58.98 226.73 57.06 228.36 54.8 
M 222.47 65.06 224.61 63.82 226.48 62.28 228.73 59.38 
M 223.63 68.93 225.5 67.84 227.14 66.49 229.11 63.95 
M 224.79 72.79 226.4 71.86 227.8 70.71 229.49 68.53 
M 225.95 76.66 227.29 75.88 228.46 74.92 229.87 73.1 
M 227.12 80.52 228.67 79.54 230.25 77.68 
M 231.33 48.23 234.73 46.96 236.34 46.18 239.34 44.23 242.08 41.85 
M 232.11 52.09 235.21 50.93 236.68 50.22 239.41 48.44 241.92 46.27 
M 232.89 55.95 235.69 54.9 238.29 53.5 241.75 50.69 
M 233.67 59.81 237.36 58.3 239.57 56.86 241.59 55.1 
M 234.44 63.67 236.65 62.84 238.7 61.74 241.43 59.52 
M 235.22 67.53 238.04 66.37 239.73 65.28 241.27 63.94 
M 236 71.39 238.38 70.41 239.8 69.49 241.11 68.36 
M 236.78 75.25 239.32 74.1 240.94 72.77 
M 246.14 40.45 250.03 40.03 253.78 39.12 255.59 38.46 259.13 36.79 
M 246.37 44.29 249.95 43.9 251.7 43.54 255.09 42.45 258.35 40.91 
M 246.6 48.13 249.88 47.77 253.05 47 257.57 45.04 
M 246.83 51.96 249.81 51.64 252.68 50.94 256.78 49.16 
M 247.06 55.8 251.04 55.25 253.57 54.43 256 53.28 
M 247.29 59.64 250.82 59.15 253.06 58.42 255.22 57.4 
M 247.52 63.48 250.6 63.05 252.56 62.41 254.44 61.53 
M 247.74 67.32 249.51 67.12 251.22 66.71 253.66 65.65 
M 247.97 71.15 250.86 70.65 252.88 69.77 
M 262.92 36.75 265.54 38.12 266.89 38.63 269.71 39.23 272.66 39.34 
M 262.55 40.79 264.97 42.05 266.22 42.52 268.82 43.07 271.54 43.18 
M 262.19 44.82 264.4 45.98 266.72 46.72 270.42 47.01 
M 261.82 48.86 263.83 49.91 265.93 50.58 269.29 50.85 
M 261.46 52.9 264.19 54.19 266.14 54.6 268.17 54.68 
M 261.09 56.93 263.52 58.08 265.24 58.45 267.04 58.52 
M 260.72 60.97 262.84 61.97 264.35 62.29 265.92 62.35 
M 260.36 65.01 261.55 65.63 262.8 66.03 264.8 66.19 
M 259.99 69.04 261.49 69.75 263.67 70.02 
M 276.36 40.48 279.32 42.27 282.45 43.6 284.09 44.06 287.5 44.64 
M 275.58 44.66 278.28 46.3 281.14 47.51 282.64 47.93 285.75 48.46 
M 274.8 48.85 278.51 50.93 281.18 51.8 283.99 52.28 
M 274.02 53.03 276.2 54.35 278.51 55.33 282.24 56.1 
M 273.24 57.21 276.16 58.85 278.27 59.54 280.48 59.92 
M 272.46 61.4 274.12 62.41 275.88 63.15 278.73 63.74 
M 271.68 65.58 273.81 66.78 275.35 67.28 276.97 67.56 
M 270.9 69.76 273.26 70.97 275.21 71.38 
M 292.21 45.96 296.73 47.43 299.03 47.99 303.7 48.67 308.45 48.87 
M 290.83 49.75 294.97 51.09 297.06 51.6 301.32 52.23 305.66 52.4 
M 289.46 53.55 295.09 55.21 298.94 55.78 302.86 55.94 
M 288.09 57.34 293.12 58.83 296.56 59.33 300.07 59.48 
M 286.72 61.13 291.15 62.44 294.18 62.89 297.27 63.01 
M 285.34 64.92 289.18 66.05 291.81 66.44 294.48 66.55 
M 283.97 68.71 287.21 69.67 289.43 69.99 291.69 70.09 
M 282.6 72.5 285.24 73.28 288.89 73.62 
M 312.89 50.42 315.8 52.43 317.33 53.28 320.57 54.57 324.01 55.4 
M 310.73 53.69 313.42 55.54 314.83 56.32 317.81 57.51 320.98 58.28 
M 308.57 56.95 312.33 59.36 315.06 60.45 317.96 61.16 
M 306.42 60.22 309.82 62.41 312.3 63.4 314.94 64.04 
M 304.26 63.49 307.32 65.45 309.55 66.34 311.92 66.92 
M 302.11 66.75 304.82 68.5 306.8 69.29 308.9 69.8 
M 299.95 70.02 302.32 71.54 304.04 72.23 305.88 72.68 
M 297.79 73.29 299.82 74.59 301.29 75.18 302.86 75.56 
M 295.64 76.55 297.32 77.63 299.84 78.44 
M 326.38 57.6 326.66 60.22 326.97 61.46 327.99 63.8 329.49 65.96 
M 323.49 61.02 323.75 63.4 324.03 64.54 324.96 66.67 326.33 68.64 
M 320.6 64.44 321.09 67.62 321.93 69.55 323.17 71.33 
M 317.71 67.85 318.15 70.7 318.9 72.42 320.01 74.02 
M 314.82 71.27 315.01 72.97 315.5 74.55 316.85 76.7 
M 311.93 74.69 312.27 76.86 312.84 78.17 313.68 79.39 
M 309.05 78.1 309.33 79.94 309.81 81.05 310.52 82.07 
M 306.16 81.52 306.39 83.02 307.36 84.76 
M 330.37 68.87 329.59 71.49 329.38 72.81 329.39 75.48 329.9 78.16 
M 326.99 72.65 326.3 74.96 326.05 77.3 326.12 78.48 326.57 80.85 
M 323.61 76.42 322.85 79.44 322.85 81.49 323.24 83.55 
M 320.23 80.2 319.58 82.76 319.59 84.49 319.92 86.24 
M 316.85 83.97 316.43 85.37 316.28 86.78 316.59 88.93 
M 313.46 87.75 313.05 89.39 313.05 90.5 313.27 91.62 
M 330.88 81.21 331.26 83.39 332.08 85.35 332.69 86.23 334.21 87.83 
M 327.88 84.65 328.2 86.53 328.91 88.21 330.74 90.35 
M 324.87 88.1 325.14 89.67 325.73 91.08 327.27 92.86 
M 321.86 91.54 322.08 92.8 322.56 93.94 323.8 95.38 
M 318.86 94.98 319.02 95.94 319.38 96.8 320.32 97.9 
M 335.31 90.49 334.96 93.11 334.97 94.4 335.41 96.93 336.35 99.4 
M 331.1 95.19 330.84 98.19 331.18 100.13 331.9 102.02 
M 326.89 99.89 326.71 101.98 326.95 103.32 327.45 104.64 
M 204.44 140.73 222.15 134.54 222.37 135.11 205.26 142.79 
M 204.52 143.16 241.04 132.57 241.23 133.16 205.18 145.28 
M 204.6 145.6 246.11 136.81 246.25 137.41 205.1 147.76 
M 204.68 148.05 249.95 141.92 250.04 142.53 205.02 150.24 
M 204.77 150.5 249.66 147.86 249.71 148.48 204.94 152.71 
M 204.85 152.96 246.94 153.73 246.94 154.34 204.85 155.18 
M 204.93 155.43 250.76 159.66 250.71 160.28 204.77 157.64 
M 205.02 157.9 248.03 165.22 247.93 165.83 204.68 160.09 
M 205.1 160.38 239.27 169.06 239.14 169.66 204.6 162.54 
M 205.18 162.86 234.38 172.78 234.2 173.37 204.52 164.98 
M 211.45 166.94 222.38 171.82 222.16 172.39 204.44 166.23 
M 220.66 135.88 226.38 136.18 230.12 135.83 233.78 134.91 237.39 133.63 
M 237.62 134.37 238.1 135.73 238.81 136.81 239.86 137.43 241.96 137.68 
M 242.13 138.44 242.25 139.85 242.65 141.02 243.5 141.84 245.42 142.53 
M 245.54 143.3 244.35 144.83 244.13 145.89 244.47 146.99 245.17 148.13 
M 245.23 148.9 243.98 149.59 243.05 150.45 242.62 151.57 242.73 153.65 
M 242.73 154.42 243.01 156.65 243.66 157.8 244.77 158.63 246.18 159.24 
M 246.12 160.01 244.89 160.63 243.98 161.43 243.58 162.5 243.73 164.49 
M 243.61 165.26 240.65 165.24 238.87 165.75 237.3 166.8 235.86 168.19 
M 235.68 168.94 233.68 169.01 232.66 169.52 231.96 170.5 231.46 171.79 
M 231.23 172.53 228.99 171.42 226.7 170.67 224.34 170.49 220.67 171.05 
M 237.85 135.07 238.42 136.32 238.81 136.81 239.86 137.43 241.22 137.65 
M 242.17 139.16 242.4 140.47 243.02 141.47 243.5 141.84 244.73 142.34 
M 229.11 142.22 229.42 143.43 229.97 143.96 230.77 144.29 
M 245.08 143.8 244.35 144.83 244.13 145.89 244.23 146.44 244.79 147.56 
M 231 146.1 230.41 147.11 230.45 147.82 230.81 148.54 
M 244.58 149.23 243.46 149.99 243.05 150.45 242.62 151.57 242.64 152.92 
M 230.68 150.49 229.68 151.28 229.4 152.01 229.41 152.89 
M 242.77 155.2 243.01 156.65 243.28 157.27 244.16 158.25 245.45 158.95 
M 229.5 155.24 229.83 156.58 230.4 157.22 231.24 157.67 
M 245.48 160.31 244.38 161 243.98 161.43 243.58 162.5 243.62 163.8 
M 231.26 159.42 230.29 160.15 230.03 160.84 230.05 161.68 
M 242.6 165.19 240.65 165.24 238.87 165.75 238.06 166.21 236.57 167.47 
M 234.98 168.91 233.68 169.01 232.66 169.52 232.27 169.96 231.69 171.13 
M 225.02 212.73 229.26 218.13 230.3 219.69 232.29 224.17 233.88 228.49 236.22 231.19 237.61 233.59 239.43 236.12 240.34 238.09 242.06 240.08 242.76 241.66 243.41 243.77 244.43 244.68 242.49 252.27 241.3 253.64 240.32 255.21 237.7 260.29 236.15 261.33 235.02 262.8 233.06 266.03 229.74 267.91 227.37 270.72 224.66 273.09 222.89 273.86 213.85 280 214.65 275.6 214.52 273.11 213.93 270.94 214.46 269.31 214.04 267.55 214.31 265.83 214.5 262.16 215.33 260.25 215.63 256.93 215.14 250.62 215.46 248.74 216.36 246.83 216.74 244.99 216.26 242.65 216.21 240.47 216.6 236.69 217.22 235.01 218.19 233.53 218.16 231.75 217.42 227.68 217.6 225.58 218.12 223.3 217.93 219.4 218.31 217.75 218.58 214.46 218.29 209.86 
M 223.88 212.25 228.46 219.72 230.38 223.52 231.81 228.31 235.01 235.06 236.76 239.73 237.78 241.41 238.32 243.38 240.33 247.49 
M 222.75 211.76 229.06 225.98 229.66 228.23 230.97 231.51 232.45 238.28 232.49 240.34 
M 221.62 211.28 222.46 213.56 223.59 217.52 223.8 219.28 226.76 227.19 226.99 231.14 226.77 233.29 227.9 236.52 228.2 238.23 229.09 240.32 229.52 242.7 230.6 244.74 231.17 246.81 230.91 249.15 230.35 251.04 230.78 252.68 231.28 256.17 
M 220.49 210.8 221.6 215.18 221.91 217.1 221.88 218.85 222.07 220.81 223.3 224.34 223.05 230.54 223.7 233.99 224.35 239.86 225.3 242.15 225.77 244.23 226.65 246.46 226.61 250.39 227.24 252.54 227.41 254.42 227.26 256.11 226.95 257.44 227.52 261.77 
M 219.35 210.31 219.96 214.93 219.95 220.33 220.59 224.03 220.65 225.75 220.43 230.07 220.73 231.37 220.46 235.61 220.52 237.76 221.09 239.45 220.94 241.08 221.49 245.75 221.38 247.79 221.91 249.31 220.79 256.31 221.13 257.92 221.15 259.82 220.61 260.68 220.58 261.94 221.05 266.05 220.97 268.93 221.61 270.43 221.57 272.35 
M 333.19 196.35 339.36 201.55 339.01 202.06 331.94 198.18 
M 325.64 201.65 346.16 217.46 345.8 217.95 324.35 203.45 
M 317.77 206.44 340.9 225.5 340.53 225.98 316.4 208.19 
M 309.77 211.04 329.36 228.62 328.96 229.09 308.34 212.73 
M 301.5 215.07 321.34 235.48 320.91 235.92 299.95 216.66 
M 292.9 218.36 306.1 233.88 305.64 234.29 291.27 219.86 
M 286.34 220.53 291.11 227.03 290.65 227.44 284.69 222.01 
M 338.3 201.67 338.86 205.13 339.76 208.44 341.19 211.54 344.11 215.88 
M 343.66 216.5 341.89 217.62 340.42 218.95 339.41 220.61 338.59 223.59 
M 338.11 224.2 334.29 224.05 331.87 224.5 329.59 225.5 327.4 226.86 
M 326.9 227.46 324.73 228.16 322.79 229.16 321.21 230.61 319.35 233.44 
M 318.81 233.99 315.79 232.84 312.72 232.05 309.58 231.82 304.78 232.32 
M 304.21 232.85 300.14 229.73 297.19 228.16 293.99 227.1 290.63 226.38 
M 338.56 203.41 339.25 206.81 339.76 208.44 341.19 211.54 343.07 214.46 
M 342.75 217.05 341.1 218.25 340.42 218.95 339.41 220.61 338.81 222.56 
M 338.95 214.93 337.03 216.5 336.2 217.87 335.7 219.48 
M 335.15 212.81 333.64 214.04 332.98 215.12 332.59 216.39 
M 331.35 210.69 330.24 211.59 329.77 212.38 329.48 213.31 
M 336.82 224.09 334.29 224.05 331.87 224.5 330.71 224.94 328.49 226.16 
M 332.66 221.55 329.56 221.65 327.63 222.26 325.79 223.26 
M 328.51 219.02 326.06 219.1 324.54 219.57 323.09 220.36 
M 324.35 216.48 322.57 216.54 321.45 216.89 320.39 217.47 
M 325.8 227.79 323.72 228.61 322.79 229.16 321.21 230.61 319.93 232.44 
M 322.14 225.36 319.66 226.49 318.35 227.68 317.3 229.19 
M 318.48 222.92 316.53 223.81 315.5 224.75 314.67 225.94 
M 314.82 220.49 313.39 221.14 312.64 221.82 312.04 222.69 
M 317.3 233.39 314.26 232.38 312.72 232.05 309.58 231.82 306.39 232.09 
M 312.43 229.68 308.91 228.65 306.51 228.48 304.06 228.68 
M 307.55 225.97 305.1 225.25 303.43 225.13 301.73 225.28 
M 302.88 231.75 300.14 229.73 298.7 228.88 295.62 227.57 292.32 226.72 
M 359.46 140.61 365.19 138.41 371.07 134.27 372.74 133.26 376.05 131.57 377.68 130.49 383.16 127.67 384.48 126.6 386.16 125.95 396.51 118.33 398.15 117.31 399.63 117.13 400.72 115.86 406.88 113.53 408.91 113.29 410.02 112.05 411.88 110.73 413.73 109.89 415.59 108.15 417.48 107.07 418.76 106.11 419.89 104.33 405.29 117.98 404.63 119.71 404.2 121.67 403.23 123.1 402.8 125.07 402.61 127.38 400.03 129.82 398.99 133.71 398.1 135.28 398.25 137.16 399.11 139.35 399.07 141.09 397.97 142.43 396.41 143.3 395.6 144.92 394.86 148.8 394.65 150.82 393.48 154.07 393.66 156.36 393.44 158.25 392.48 159.42 392.05 161.08 392.91 166.58 394.63 170.19 395.17 171.83 394.94 173.73 394.3 175.22 394.43 176.86 396.71 182.66 397.94 185.16 399.49 189.97 399.75 191.31 401.11 194.81 405.97 202.2 419.31 216.05 416.48 215.08 414.17 212.14 412.73 211.13 411.95 211.22 410.47 210.26 408.9 208.9 407.37 207.93 402.35 205.24 400.87 204.17 398.92 203.07 397.92 202.23 396.27 202 393.36 199.55 391.26 198.43 389.14 196.76 386.32 194.83 385.09 193.7 383.71 193.17 382.16 192.02 381.2 190.58 378.65 188.5 373.19 185.27 369.79 182.5 367.92 181.38 363.37 177.74 361.39 176.86 359.46 175.3 
M 365.62 140.48 367.09 139.97 368.67 138.98 370.34 138.36 373.63 136.04 375.41 135.13 377.4 134.45 380.37 132.38 382.19 131.91 385.65 130.26 388.83 129 
M 365.72 142.66 367.38 141.94 371.01 140.77 372.48 139.74 377.11 136.98 380.58 135.43 384.06 134.95 385.7 133.77 387.29 133.3 
M 365.48 144.69 367.53 143.82 369.35 143.47 372.81 142.19 374.54 140.6 378.3 138.97 381.58 137.84 383.63 137.93 385.44 137.54 386.73 136.64 
M 363.63 147.17 367.31 145.78 370.59 145.19 374.62 143.65 376.7 142.36 378.66 141.84 380.45 141.93 382.64 141.24 384.6 141.31 386.54 140.37 
M 363.86 148.97 367.74 148.47 369.24 147.97 370.94 147.68 372.77 146.88 377.23 145.41 379.03 144.49 380.93 144.57 383.38 144.06 386.62 143.7 388.52 144.22 390.47 143.83 
M 366.02 150.61 371.97 150.64 377.84 148.41 379.46 147.55 381.42 146.85 383.66 146.79 
M 366.34 152.51 367.99 152.91 371.88 153.08 378.99 152.14 382.74 150.77 
M 362.12 154.93 364.21 155.07 366.37 154.76 368.02 154.78 370.32 155.17 372.2 155.29 378.98 155.26 380.88 154.73 
M 362.1 156.86 366.72 157.13 372.89 156.94 374.81 157.18 378.81 158.06 380.92 158.04 383.55 157.68 385.48 157.8 386.77 158.46 391.2 157.33 
M 364.49 158.98 366.6 159.2 373.25 159.12 375.13 159.79 377.33 160.24 379.34 160.29 380.53 160.78 381.42 160.81 382.86 161.42 384.81 161.65 
M 366.52 161.04 368.21 161.82 372.51 162.03 374.24 162.83 379.92 163.65 382.16 163.53 384.18 163.2 
M 361.98 162.2 364.32 162.5 366.28 162.96 368.13 163.72 371.77 164.45 373.64 164.37 375.78 165.29 378.18 165.92 379.89 166.88 382.45 166.77 385.15 166.15 388.61 167.33 
M 364 164.54 369.8 166.22 371.57 166.94 373.64 166.9 375.46 168.01 377.6 168.95 379.83 168.73 381.67 168.76 384.27 169.3 
M 366.01 167.18 367.38 168.29 373.58 169.67 375.96 170.54 378.44 170.64 381.48 171.52 386.15 171.72 388.31 172.59 
M 361.88 167.7 369.86 170.84 373.22 172.37 377.86 173.99 379.79 174.59 381.74 174.36 383.59 174.57 385 174.99 387.54 176.28 389.3 178.02 391.4 179.11 393.68 179.45 
M 365.29 171 369.22 173 372.76 174.53 376.28 177 378.28 177.5 380.43 177.08 382.71 177.06 384.97 177.82 388.26 180.63 389.83 181.57 392.91 182.36 394.55 182.95 396.19 183.8 
M 365.59 172.97 368.96 174.81 375.7 179.12 377.7 179.98 379.48 180.5 383.92 181.26 385.28 182.57 387.06 182.94 390.48 185.26 391.69 185.87 
M 363.82 174 365.78 174.91 370.18 178.04 375.46 181.46 378.78 182.67 380.32 184.06 382.4 184.96 384.05 185.43 386.95 188.11 390.91 190.33 392.51 191.69 394.04 192.5 395.27 193.4 397.46 194.15 400.29 193.83 401.57 194.73 
M 359.46 173.56 361.65 175.03 365.58 177.02 367.1 178.03 370.02 180.48 375.11 183.78 377.14 184.51 378.62 185.63 379.91 186.87 381.53 187.95 383.48 188.8 
M 339.29 126.59 340.39 125.71 341.68 125.02 343.18 124.53 344.89 124.27 346.85 124.25 351.5 124.92 356.86 126.33 363.06 128.62 365.94 130.4 367.69 132.34 367.9 133.97 366.64 135.02 364.21 135.2 358.95 134.88 356.67 135.06 352.73 135.98 
M 341.37 127.65 342.43 127.24 
M 344.03 126.86 346.85 126.71 351.5 127.39 356.86 128.79 361.49 130.47 
M 140.49 160.27 142.17 156.4 143.64 153.81 145.4 151.12 147.42 148.61 150.06 146.27 153.45 143.57 159.86 137.39 163.71 134.54 176.33 127.58 184.26 123.97 191.4 121.37 193.88 125.12 195.1 129.03 198.02 136.81 199.25 140.71 200.05 144.66 201.23 152.59 201.13 156.62 201.26 164.65 200.57 172.74 200.83 176.74 200.86 184.77 200.54 188.82 199.76 192.91 198.15 197.02 189.65 196.54 183.51 195.57 178.01 194.39 172.7 192.62 167.96 190.57 163.76 188.3 160.05 186 152.86 181.04 149.49 178.49 
M 184.78 146.27 185.1 149.68 184.18 156.16 183.5 159.08 181.8 164.3 181.99 168.94 183.38 176.56 183.33 179.92 177.68 179.98 169.73 179.68 165.68 178.97 161.84 177.86 158.31 176.29 155.14 174.38 
M 148.46 178.13 144.56 172.5 138.59 163.26 138.07 161.81 138.69 160.43 140.22 160.07 141.5 161.03 149.51 178.52 
M 149.18 178.97 132.51 175.8 131.13 175.21 130.54 173.71 131.22 172.28 132.6 171.98 149.31 178.4 
M 161.29 158.95 158.95 155.68 157.8 151.82 157.97 147.8 159.43 144.05 162.03 140.98 165.49 138.92 169.43 138.09 173.42 138.59 177.04 140.36 179.89 143.2 181.66 146.82 182.15 150.81 181.33 154.75 179.27 158.21 176.2 160.81 172.45 162.28 168.42 162.44 164.56 161.29 161.29 158.95 
M 177.9 144.62 179.31 147.52 179.71 150.71 179.05 153.86 177.4 156.63 174.94 158.71 171.94 159.88 168.73 160.02 165.64 159.1 163.02 157.22 
M 166.02 153.3 165.08 151.99 164.62 150.45 164.69 148.84 165.27 147.34 166.31 146.11 167.7 145.29 169.27 144.96 170.87 145.16 172.32 145.86 173.45 147 174.16 148.45 174.36 150.05 174.03 151.62 173.21 153.01 171.98 154.05 170.48 154.63 168.87 154.7 167.33 154.24 166.02 153.3 
M 166.24 153 167.55 154.31 
M 165.81 150.9 169.58 154.67 
M 165.31 148.74 171 154.43 
M 166.34 148.11 172.14 153.91 
M 168.53 148.63 173.04 153.15 
M 169.58 148.02 173.71 152.16 
M 171.16 147.94 174.17 150.95 
M 171.86 146.98 174.28 149.4 
M 141.92 161.88 142.56 162.52 
M 141.51 157.78 144.49 160.76 
M 142.77 155.34 145.46 158.03 
M 144.15 153.03 146 154.88 
M 145.64 150.82 149.07 154.26 
M 147.29 148.78 150.1 151.6 
M 149.22 147.02 152.67 150.47 
M 151.23 145.34 154.66 148.76 
M 153.29 143.7 155.77 146.18 
M 155.16 141.87 157.9 144.61 
M 157.02 140.04 159.22 142.24 
M 158.93 138.26 161.79 141.12 
M 160.95 136.58 163.61 139.25 
M 163.07 135.01 166.3 138.24 
M 165.35 133.6 168.84 137.09 
M 167.7 132.25 169.92 134.47 
M 170.08 130.94 173.54 134.4 
M 172.47 129.63 174.77 131.93 
M 174.88 128.35 178.09 131.56 
M 177.33 127.11 179.88 129.65 
M 179.83 125.92 182.35 128.43 
M 182.39 124.78 184.97 127.36 
M 185 123.69 188.67 127.36 
M 187.67 122.67 190.49 125.49 
M 190.41 121.72 192.99 124.3 
M 155.04 153.44 153.52 153.09 151.29 152.97 150.51 152.51 
M 191.02 151.98 190.57 152.63 190.5 153.43 190.8 153.93 191.62 154.5 
M 181.62 176.62 182.91 174.22 182.89 172.54 
M 193.01 171.16 193.64 171.42 193.52 172.02 
M 184.15 149.25 184.15 149.64 184.71 150.01 
M 174.91 161.87 174.64 165.56 174.33 166.53 173.75 167.39 
M 193.14 171.66 193.53 171.77 193.51 172.02 
M 190.27 178.02 189.14 176.37 187.83 175.48 187.31 175.31 186.67 175.34 185.33 176.1 
M 192.9 144.14 193.42 145.1 193.86 147.45 
M 193.47 195.32 194 193.38 194.2 193.16 194.58 193.14 
M 157.76 157.27 160.51 157.86 
M 156.39 183.44 156.15 181.09 
M 190.45 146.16 192.26 147.03 192.97 147.6 193.29 148.09 193.34 148.73 193.59 149.27 
M 192.81 154.3 193.09 155.32 193.79 156.36 
M 194.68 184.37 195.39 183.89 196.16 182.46 
M 192.94 167.55 193.25 167.54 193.36 167.38 193.34 166 
M 191.32 194.78 192.43 193.57 193.08 192.35 193.2 191.78 193 190.61 192.76 189.94 191.66 188.81 189.92 187.34 188.8 186.69 
M 174.27 185.57 173.44 185.88 172.76 186.37 
M 167.83 164.89 167.65 165.09 167.37 165.1 165.83 164.5 165.2 164.51 
M 158.26 167.78 158.19 167 157.74 166.36 
M 187.16 123.35 187.5 122.74 
M 185.39 160.63 186.35 157.76 186.56 155.93 187.02 155.18 
M 183.78 142.1 183.24 142.66 182.33 142.93 179.65 142.97 
M 174.28 182.56 169.91 184.67 168.32 184.59 167.65 184.28 
M 163.06 139.36 163.65 140.01 
M 172.37 130.27 172.34 129.7 
M 151.4 152.97 150.63 152.58 149.89 151.82 149.44 150.95 149.07 149.54 
M 192.32 144.37 193.34 145.39 193.85 147.53 
M 176.01 168.13 176.3 168.05 176.52 167.75 176.57 166.98 176.25 166.41 175.69 166.29 
M 183.98 126.35 183.75 127.53 183.84 129.14 183.72 130.05 183.53 130.37 
M 175.2 130.65 175.15 129.4 174.65 128.47 
M 196.6 133.22 196.08 133.08 
M 180.61 179.6 180.32 179.1 180.19 178.45 180.34 177.54 181.79 175.23 182.3 173.47 
M 157.97 144.95 159.16 144.75 
M 199.33 168.8 197.09 168.05 195.89 166.9 194.56 166.19 193.81 165.58 
M 181.14 156.45 182.47 155.27 183.12 154.9 184.85 154.74 
M 187.05 170.84 184.49 170.16 182.9 169.41 180.53 167.5 180.23 166.9 
M 200.77 170.45 200.09 169.97 198.25 169.64 195.66 170.25 194.94 170.88 
M 181.92 142.96 179.64 142.96 
M 157.08 179.57 156.6 177.79 155.94 176.94 155 176.06 151.63 173.65 
M 187.2 135.59 185.66 135.2 183.6 135.08 183.09 134.83 180.88 133.17 178.85 130.72 
M 188.65 153.73 189.08 153.71 189.69 154.37 
M 175.47 168.88 175.41 169.26 174.83 170.09 174.45 171.32 174.17 171.72 173.41 172.33 172.02 172.74 
M 200.47 152.66 199.68 152.75 197.78 153.35 195.91 153.58 195.31 153.83 
M 187.52 185.04 186.71 183.9 186.01 183.53 185.5 183.51 184.26 183.88 182.44 183.74 
M 173.58 136.78 174.89 136.91 175.65 137.53 175.9 138.24 175.63 139.66 
M 180.18 127.69 179.47 126.09 
M 177.04 184.25 173.73 184.92 172.58 185.61 
M 166.73 161.94 165.86 162.3 165.08 163.01 163.35 164.04 
M 182.35 144 180.13 143.71 
M 173.71 169.41 173.53 171.05 172.86 172.07 170.85 172.86 170.29 172.89 
M 168.34 170.87 168.86 170.35 169.53 170.44 170.19 170.81 170.61 171.27 170.75 171.75 170.48 172.51 
M 182.89 193.4 182.7 193.08 182.9 191.66 182.48 190.85 
M 193.56 150.42 193.22 150.91 192.01 151.19 191.18 151.94 
M 145.31 156.65 144.68 157.31 144.12 157.48 143.82 157.4 143.39 156.97 142.82 155.25 
M 194.32 182.29 194.49 182.65 195.42 182.76 
M 180.23 156.59 181.21 156.42 181.59 156.13 
M 162.44 162.21 161.81 163.39 160.84 164.67 160.43 166.53 159.69 167.6 
M 148.28 163.66 150.88 161.11 152.61 160.49 153.37 159.98 153.86 159.03 153.86 156.98 
M 158.22 177.11 157.44 174.42 157.43 172.29 157.87 170.73 
M 187.53 161.98 186.62 160.42 186.45 159.87 186.61 159.16 187.44 157.93 
M 180.1 134.01 178.25 131.45 176.74 129.99 176.01 128.79 175.27 128.14 
M 177.43 166.14 176.47 166.08 175.23 166.43 
M 155.38 182.76 155.89 179.72 155.55 177.67 154.81 176.74 153.16 175.39 
M 147.92 161.23 148.54 160.21 150.19 160.37 150.79 160.27 
M 156.01 166.65 155.23 165.14 155.64 164.8 156.16 164.71 
M 161.33 164.08 160.81 164.75 160.4 166.6 159.14 168.35 
M 194.87 128.67 194.95 128.54 
M 195.84 133.11 194.47 132.68 193.64 133.09 
M 191.93 145.82 193.3 146.94 193.67 147.65 193.75 148.21 
M 155.8 162.73 156.57 162.85 157.42 163.67 158.06 165 158.05 165.39 157.84 165.68 
M 161.9 178.85 161.47 177.76 161.95 177.03 162.58 176.68 164.47 176.28 165.18 175.81 
M 185.43 163.31 184.46 160.93 184.96 159.53 185.15 157.8 185.5 156.44 
M 177.56 129.2 175.55 127.99 
M 173.91 131.69 174.22 130.47 173.77 128.94 
M 177.97 165.17 175.17 166.47 
M 190.44 154.94 192.59 155.54 193.23 155.83 193.78 156.36 
M 195.45 164.22 194.35 164.78 193.14 165.09 
M 142.82 157.76 142.29 156.18 
M 148 182.32 143.5 192.47 141.76 195.82 140.69 197.42 139.43 198.89 137.96 200.16 136.32 201.21 134.56 202.01 132.7 202.55 130.8 202.84 126.99 202.73 125.13 202.36 118.04 200.23 114.47 199.56 112.65 199.43 109.03 199.64 107.28 200.06 105.67 200.85 104.27 201.97 103.09 203.34 102.1 204.87 101.35 206.53 100.46 210.08 100.28 211.91 100.4 215.58 100.69 217.41 101.8 220.92 100.64 217.42 100.31 215.6 100.1 211.9 100.24 210.05 100.54 208.21 101.04 206.42 101.77 204.69 102.75 203.09 103.94 201.64 105.4 200.42 107.09 199.54 108.92 199.05 112.66 198.74 114.54 198.82 118.23 199.42 125.35 201.37 127.12 201.68 130.69 201.69 132.43 201.38 134.11 200.85 135.69 200.08 137.14 199.1 138.43 197.92 139.54 196.56 140.49 195.07 142.07 191.82 146.3 181.6 
M 148.33 182.42 146.99 185.95 145.2 189.32 144.43 190.38 
M 141.37 193.35 139.49 194.52 137.64 195.24 135.7 195.6 133.71 195.57 131.78 195.15 126.73 192.68 123.4 191.45 121.68 191.27 120.02 191.58 118.54 192.42 117.38 193.68 116.63 195.23 116.33 196.95 116.59 199.1 
M 116.83 199.96 117.91 204.05 118.33 207.75 118.39 211.46 118.03 215.16 117.19 218.77 115.96 222.27 114.31 225.58 112.19 228.6 114.27 225.56 115.83 222.21 116.97 218.71 117.71 215.11 117.97 211.45 117.82 207.79 117.32 204.16 116.04 199.8 
M 115.8 198.99 115.55 196.92 115.84 194.99 116.65 193.19 117.96 191.7 119.67 190.68 121.63 190.26 123.59 190.41 125.45 190.92 127.21 191.63 132.16 193.92 133.85 194.24 135.56 194.22 137.23 193.87 138.82 193.2 140.29 192.27 141.63 191.16 142.99 189.6 
M 147.3 185.2 145.41 191.2 144.1 196.58 143.53 198.39 142 201.86 139.93 205.03 135.3 210.8 128.81 219.73 127.92 221.3 127.3 222.97 126.98 224.73 127.05 226.51 127.5 228.23 128.29 229.85 129.31 231.35 131.84 233.98 134.83 236.1 139.73 238.67 143.07 240.24 146.55 241.46 143.05 240.28 136.34 237.19 133.11 235.36 131.61 234.26 128.95 231.64 127.86 230.11 126.99 228.43 126.45 226.6 126.34 224.69 126.63 222.8 127.25 221 128.14 219.32 134.44 210.17 139.93 202.8 140.81 201.24 142.17 197.92 143.4 192.68 
M 149.49 178.54 149.73 178.97 
M 146.57 175.37 146.18 176.19 146.87 175.83 
M 144.33 172.14 143.47 172.84 142.94 173.95 143.66 173.16 144.75 172.78 
M 142.21 168.91 140.54 170.12 139.69 171.71 140.72 170.44 142.7 169.62 
M 140.17 165.66 137.61 167.4 136.44 169.47 137.79 167.72 140.63 166.44 
M 138.26 162.33 134.68 164.68 133.2 167.23 134.86 165 138.59 163.25 
M 149.31 178.4 150.02 178.6 
M 145.66 177.01 146.2 176.25 146.77 175.88 146.56 176.35 146.62 177.42 
M 142.39 175.69 143.15 174.11 144.11 173.33 143.51 174.21 143.32 176.06 
M 139.07 174.47 140.1 171.97 141.45 170.77 140.46 172.07 140.02 174.82 
M 135.77 173.22 137.05 169.83 138.79 168.21 137.41 169.93 136.71 173.6 
M 132.45 172.01 134 167.69 136.13 165.66 134.36 167.79 133.43 172.27 
M 137.05 176.64 141.29 179.19 144.22 180.78 147.26 182.16 153.61 184.31 160.05 186 
M 192.8 120.32 197.67 125.19 
M 195.67 118.26 200.88 123.47 
M 198.54 116.2 205.79 123.46 
M 201.38 114.12 206.84 119.58 
M 204.23 112.05 208.25 116.07 
M 207.17 110.06 212.06 114.95 
M 210.14 108.11 216.12 114.09 
M 213.17 106.21 219.76 112.8 
M 216.25 104.37 221.91 110.02 
M 219.37 102.56 225.8 108.99 
M 222.58 100.84 228.94 107.2 
M 225.77 99.11 230.11 103.45 
M 228.92 97.34 232.94 101.35 
M 232.1 95.59 238.53 102.02 
M 235.51 94.07 242.34 100.9 
M 238.96 92.6 244.74 98.38 
M 242.67 91.39 247.52 96.24 
M 246.46 90.25 252.45 96.24 
M 250.41 89.28 255.38 94.24 
M 254.82 88.76 260.07 94.01 
M 259.53 88.54 265.87 94.88 
M 264.36 88.45 268.27 92.36 
M 269.09 88.25 273.85 93.01 
M 274.36 88.59 280.17 94.41 
M 281.28 90.59 286.8 96.11 
M 290.7 95.09 297.04 101.42 
M 302.31 101.77 309.59 109.05 
M 313.72 108.25 320.84 115.37 
M 330.82 120.43 335.3 124.91 
M 347.87 132.55 353.62 138.3 
M 363.94 143.7 365.64 145.4 
M 220.67 208.91 221.92 211.41 
M 220.02 203.31 224.66 212.58 
M 219.93 198.8 227.5 213.95 
M 219.85 194.34 230.36 215.35 
M 219.79 189.92 233.17 216.67 
M 200.39 146.8 201.02 148.05 
M 219.74 185.49 235.94 217.9 
M 198.82 139.34 201.51 144.73 
M 220.23 182.17 238.7 219.11 
M 191.81 121.03 193.8 125 
M 193.91 125.22 202 141.4 
M 221.27 179.95 241.36 220.13 
M 193.4 119.89 198.08 129.25 
M 221.76 176.61 244.03 221.14 
M 194.99 118.75 198.02 124.81 
M 221.69 172.17 246.56 221.91 
M 196.57 117.61 199.05 122.57 
M 223.07 170.61 246.96 218.38 
M 198.16 116.48 199.54 119.23 
M 225.17 170.5 243.59 207.34 
M 199.74 115.32 200.56 116.98 
M 227.52 170.89 242.41 200.68 
M 230.24 172.01 241.79 195.12 
M 231.81 170.85 241.17 189.56 
M 233.14 169.2 241.09 185.1 
M 235.15 168.92 241.6 181.81 
M 236.58 167.46 241.57 177.44 
M 238.1 166.19 242.09 174.17 
M 223.34 132.36 225.24 136.17 
M 239.86 165.4 242.61 170.9 
M 268.45 222.58 268.68 223.05 
M 222.92 127.21 227.38 136.13 
M 241.9 165.18 242.74 166.86 
M 268.07 217.52 270.89 223.16 
M 222.61 122.29 229.43 135.92 
M 266.67 210.4 273.02 223.11 
M 222.23 117.22 231.4 135.55 
M 265.73 204.22 275.06 222.87 
M 222.83 114.1 233.3 135.05 
M 242.73 153.91 243.75 155.95 
M 261.93 192.3 277.09 222.63 
M 222.69 109.52 235.15 134.44 
M 243.12 150.37 244.17 152.47 
M 261.79 187.72 279.12 222.38 
M 222.84 105.51 236.98 133.78 
M 244.68 149.18 244.87 149.56 
M 261.94 183.7 281.1 222.03 
M 223.29 102.09 241.06 137.63 
M 242.32 140.16 242.92 141.36 
M 244.52 144.56 245.31 146.14 
M 262.93 181.38 283.09 221.69 
M 223.57 98.36 245.6 142.41 
M 263.22 177.65 285.07 221.35 
M 223.37 93.65 245.95 138.8 
M 263.57 174.04 286.95 220.8 
M 223.58 89.75 246.71 136 
M 264.33 171.25 288.8 220.19 
M 223.15 84.58 246.83 131.93 
M 265 168.28 290.65 219.58 
M 223.13 80.23 246.81 127.59 
M 266.08 166.13 291.41 216.8 
M 222.9 75.46 246.58 122.82 
M 266.95 163.57 291.73 213.13 
M 222.49 70.33 246.17 117.68 
M 267.09 159.53 290.77 206.89 
M 222.87 66.77 245.44 111.93 
M 267.47 155.98 287.29 195.63 
M 222.37 61.48 242.75 102.22 
M 268.08 152.88 285.7 188.13 
M 222.65 57.73 242.2 96.83 
M 268.08 148.59 286.26 184.93 
M 224.22 56.55 242.12 92.34 
M 268 144.11 287.27 182.65 
M 225.67 55.14 243.01 89.83 
M 267.79 139.39 287.62 179.04 
M 227 53.5 243.25 85.99 
M 267.48 134.44 288.4 176.29 
M 228.24 51.66 242.83 80.84 
M 267.61 130.4 288.53 172.25 
M 229.84 50.55 242.78 76.43 
M 267.56 125.99 289.03 168.94 
M 231.7 49.95 242.43 71.43 
M 267.76 122.09 289.79 166.14 
M 311.27 209.09 311.87 210.3 
M 233.52 49.3 241.51 65.27 
M 266.84 115.93 289.96 162.18 
M 311.44 205.13 313.54 209.34 
M 235.3 48.54 241.63 61.2 
M 265.86 109.66 290.09 158.12 
M 311.01 199.97 315.22 208.38 
M 237 47.63 242.23 58.1 
M 265.91 105.45 290.14 153.91 
M 309.41 192.46 316.9 207.43 
M 238.63 46.58 242.76 54.84 
M 265.89 101.1 290.66 150.65 
M 309.39 188.1 318.57 206.47 
M 240.18 45.38 243.21 51.44 
M 265.79 96.59 290.57 146.15 
M 309.29 183.6 320.23 205.47 
M 241.68 44.06 243.06 46.82 
M 265.63 91.97 290.41 141.53 
M 309.69 180.08 321.88 204.46 
M 265.44 87.28 290.77 137.94 
M 310.04 176.48 323.53 203.45 
M 265.23 82.55 291.12 134.32 
M 309.84 171.76 325.18 202.44 
M 265.66 79.1 290.99 129.76 
M 310.26 168.31 326.79 201.36 
M 266.05 75.57 291.38 126.23 
M 310.65 164.77 328.38 200.23 
M 266.38 71.91 290.06 119.27 
M 310.43 160.02 329.97 199.11 
M 266.64 68.13 289.22 113.28 
M 310.69 156.23 331.57 197.98 
M 266.83 64.2 288.31 107.15 
M 310.33 151.21 333.15 196.83 
M 266.41 59.05 287.89 102 
M 310.46 147.16 333.59 193.41 
M 265.95 53.81 288.52 98.97 
M 311.1 144.12 334.23 190.38 
M 265.45 48.52 288.58 94.77 
M 311.71 141.03 333.73 185.08 
M 265.56 44.42 288.14 89.57 
M 312.36 138.03 333.29 179.88 
M 265.74 40.48 288.32 85.63 
M 312.55 134.09 333.48 175.94 
M 268.05 40.78 289.25 83.18 
M 312.93 130.54 332.2 169.09 
M 270.37 41.12 289.37 79.12 
M 313.05 126.47 331.22 162.82 
M 272.56 41.19 289.91 75.88 
M 312.49 121.04 330.66 157.38 
M 274.77 41.3 288.82 69.38 
M 312.49 116.74 330.67 153.08 
M 277.95 43.34 288.68 64.81 
M 312.91 113.27 331.08 149.61 
M 280.86 44.85 288.84 60.82 
M 313.07 109.28 331.24 145.62 
M 283.45 45.72 289.23 57.29 
M 312.91 104.64 331.08 140.99 
M 285.87 46.25 289.45 53.41 
M 312.58 99.67 331.85 138.21 
M 288.18 46.57 289.56 49.32 
M 312.69 95.58 332.51 135.22 
M 312.43 90.75 332.8 131.5 
M 312.3 86.18 326.99 115.56 
M 328.58 118.75 333.26 128.11 
M 355.84 173.27 357.63 176.85 
M 312.11 81.5 328.12 113.51 
M 332.03 121.34 332.86 122.99 
M 355.43 168.14 359.14 175.56 
M 311.84 76.65 329.32 111.61 
M 351.47 155.9 360.66 174.28 
M 311.48 71.62 330.6 109.85 
M 350.76 150.18 362.17 173.01 
M 311.58 67.51 331.95 108.24 
M 350.63 145.6 363.69 171.73 
M 311.62 63.28 332.55 105.13 
M 350.62 141.28 365.21 170.45 
M 311.61 58.95 332.54 100.8 
M 350.64 137 366.18 168.08 
M 311.57 54.57 332.5 96.42 
M 350.79 133 351.56 134.54 
M 352.04 135.49 366.18 163.77 
M 312.38 51.88 332.48 92.07 
M 351.37 129.84 353.95 135.02 
M 355.33 137.77 366.18 159.46 
M 315.71 54.22 331.34 85.47 
M 351.51 125.81 355.89 134.59 
M 358.62 140.03 366.18 155.15 
M 318.6 55.69 329.38 77.26 
M 353.1 124.68 357.93 134.34 
M 361.9 142.3 366.18 150.84 
M 321.2 56.58 329.59 73.36 
M 355.58 125.34 360.05 134.29 
M 365.19 144.56 366.18 146.54 
M 323.65 57.17 330.05 69.97 
M 358.14 126.16 362.26 134.4 
M 326.23 58.01 326.33 58.22 
M 360.78 127.11 364.5 134.57 
M 363.52 128.28 366.58 134.41 
M 367.01 130.97 367.8 132.54 
"/></svg>