<svg xmlns="http://www.w3.org/2000/svg" width="520" height="320"><rect x="0" y="0" width="520" height="320" fill="floralwhite"/><rect x="10" y="10" width="500" height="300" stroke="black" stroke-width="1" fill="none"/><path stroke="black" stroke-width="1" fill="none" stroke-linecap="round" stroke-linejoin="round" d="
M 163.09 135.21 173.11 133.53 180.7 132.81 
M 235.09 127.71 252.89 127.44 272.83 127.65 282.81 127.42 292.78 127.44 302.75 128.02 312.72 128.83 332.67 130.74 342.64 132.24 382.53 139.32 392.5 141.93 402.48 145.69 403.36 146.47 
M 403.36 166.37 402.48 167.05 392.5 170.06 382.53 172.19 362.59 175.03 352.61 176.67 342.64 178.58 332.67 180.19 322.7 181.03 312.72 181.49 292.78 181.95 272.83 181.81 262.86 182.27 242.91 183.52 232.94 183.59 222.97 183.01 220.55 182.7 
M 168.23 172.75 163.13 172.08 153.12 171.41 
M 403.36 150.77 398.54 149.05 392.07 147.81 378.45 144.79 369.81 143.07 
M 366.23 142.48 357.05 141.4 349.72 140.86 339.09 140.48 321.9 140.87 314.96 140.47 300.69 139.26 295.57 139.05 
M 292.28 138.89 289.08 138.77 
M 285.94 138.75 282.84 138.81 
M 279.73 139 270.5 140.24 
M 267.46 140.7 259.72 141.5 248.53 141.95 
M 161.74 163.94 162.5 165.12 
M 166.32 134.67 166.93 135.73 
M 171.23 133.84 172.43 135.79 
M 176.63 133.19 177.22 134.06 
M 240.58 172.37 244.32 176.97 245.64 178.34 
M 246.26 172.16 250.12 176.89 251.41 178.17 
M 247.32 165.14 250.75 170.51 251.99 172.13 
M 254.5 175.2 257.04 177.83 
M 245.26 152.09 246.24 153.7 
M 248.61 157.71 251.89 163.49 255.21 168.75 
M 257.56 171.95 260.02 174.84 
M 246.26 145.73 247.98 147.98 250.67 152.06 254.18 158.04 
M 258.45 165.29 260.64 168.55 
M 235.26 127.7 236.06 128.49 
M 248.74 141.76 250.75 144.29 253.57 148.34 262.71 163.45 266.06 168.29 
M 268.54 171.36 271.14 174.17 
M 241.12 127.57 245 131.1 250.57 136.91 253.47 140.48 257.65 146.5 
M 260.26 150.56 264.74 157.99 
M 269.04 164.75 270.21 166.42 274.08 171.11 
M 279.18 176.09 281.61 177.89 
M 247.54 127.49 250.87 130.52 253.5 133.33 256.21 136.64 261.66 144.44 267.43 153.85 
M 269.52 157.32 272.94 162.55 275.51 166.01 278.15 169.25 281.91 173.26 
M 254.02 127.46 256.54 130.03 261.64 136.47 264.25 140.2 267.8 145.85 
M 269.92 149.46 272.01 152.95 
M 274.25 156.48 279.35 163.69 
M 284.64 170.06 285.94 171.48 289.71 175 
M 260.03 127.54 264.55 132.73 267.07 136.09 269.44 139.65 274.59 148.56 
M 276.78 152.1 280.5 157.65 284.59 163.17 
M 287.37 166.57 290.11 169.64 
M 266.12 127.6 267.71 129.27 270.18 132.26 272.51 135.54 280.72 149.75 285.73 157.34 288.55 161.12 292.92 166.31 
M 272.34 127.65 275.72 131.76 277.85 135.02 283.73 145.84 288.36 153.44 291.1 157.29 294.08 161.02 298.56 166.17 
M 301.32 169.3 303.81 172.15 
M 278.15 127.53 281.03 131.34 283.08 134.66 288.99 145.88 291.23 149.72 293.78 153.52 298.2 159.12 
M 301.24 162.71 304.13 166.13 
M 309.07 172.24 311.28 174.82 
M 283.58 127.42 286.23 131.11 288.29 134.53 294.45 145.99 296.8 149.79 299.47 153.49 308.33 164.53 311.99 169.45 
M 314.27 172.39 316.54 174.97 
M 288.93 127.43 291.49 131.02 293.64 134.51 300.21 145.98 304.18 151.64 
M 309.96 159.19 315.03 166.34 
M 319.67 172.48 322.07 175 
M 324.48 177.04 325.93 178.07 
M 294.44 127.54 296.99 130.97 299.28 134.47 303.86 142.13 307.81 147.98 
M 313.37 155.57 321.75 168.07 324.09 171.01 326.46 173.47 327.64 174.48 
M 300.44 127.89 302.69 130.93 310.05 142.31 318.27 153.8 321.76 159.37 
M 326.21 166.08 328.48 168.9 
M 306.24 128.31 313.33 138.58 321.66 150.1 325.13 155.56 
M 327.32 159.05 329.5 162.29 
M 331.7 165.22 336.23 170.27 
M 338.54 172.48 340.88 174.51 
M 311.79 128.76 324.73 146.26 330.57 155.12 
M 332.75 158.42 337.17 164.33 
M 339.43 167.04 341.73 169.63 
M 317.55 129.27 324.84 138.53 328.94 144.06 
M 331.41 147.68 335.98 154.6 
M 338.22 157.84 342.75 163.92 
M 345.05 166.81 349.78 172.09 
M 323.92 129.86 330.72 138.14 333.32 141.78 340.39 152.6 346.18 160.85 
M 353.23 169.83 355.63 172.44 
M 331.13 130.59 334.09 134.15 336.68 137.71 343.78 148.91 347.37 154.24 
M 354.43 164.28 356.78 167.42 
M 338.54 131.62 340.21 133.83 342.61 137.49 348.51 146.93 
M 355.71 157.81 360.38 164.76 
M 345.46 132.74 349.82 139.37 
M 352.19 143.12 354.57 146.87 
M 356.98 150.63 359.37 154.4 
M 364.01 161.83 366.28 165.31 
M 352.43 134 359.52 145.08 368.78 160.61 372.13 165.94 
M 359.39 135.27 363.42 141.62 371.29 155.46 
M 377.95 166.62 379.95 169.54 
M 366.16 136.44 369.55 142.16 372.74 148.11 
M 374.89 152.18 379.25 160.13 
M 372.49 137.48 375.43 142.86 381.69 154.99 384.98 160.82 
M 378.5 138.58 386.39 153.65 
M 388.5 157.58 392.74 165.05 
M 384.64 139.87 387.07 144.3 392.06 154.08 
M 391.3 141.61 399.57 158.08 
M 398.33 144.12 403.36 154.59 
M 163.81 135.09 163.44 135.59 
M 170.13 134.03 167.52 137.55 
M 176.31 133.22 175.08 134.83 
M 163.13 161.87 161.29 165.11 
M 235.57 127.7 235.34 127.91 
M 241.46 127.56 239.29 129.79 
M 246.94 127.5 243.67 131.21 242.12 133.3 
M 252.2 127.45 249.57 130.66 246.31 135.52 
M 257.35 127.5 255.3 130.12 253.13 133.36 250.02 138.96 
M 248.44 142.05 246.09 146.66 
M 262.53 127.57 260.8 129.8 258.67 133.04 256.71 136.63 251.14 148.18 249.09 151.94 246.78 155.69 244.34 159.25 
M 233 175.31 232.79 175.62 
M 267.79 127.61 264.18 132.75 262.13 136.45 256.64 148.49 254.64 152.35 252.4 156.06 245.99 165.12 
M 240.76 172.35 238.53 175.43 
M 273.03 127.65 269.8 132.3 267.57 136.04 265.54 140.09 261.97 148.54 260.02 152.56 256.65 158.17 
M 254.2 161.75 251.67 165.28 
M 278.26 127.53 272.99 135.49 270.72 139.48 268.68 143.72 265.07 152.3 264.08 154.3 
M 261.96 158.17 259.62 161.81 
M 257.19 165.33 252.45 172.15 
M 283.34 127.42 277.11 136.91 
M 274.72 140.89 273.56 142.93 271.5 147.19 268.78 153.6 
M 266.9 157.7 264.81 161.55 
M 262.54 165.14 258 171.95 
M 288.41 127.43 283.55 134.64 278.63 142.3 276.3 146.37 275.28 148.46 
M 273.38 152.67 271.61 156.91 
M 261.32 174.75 260.28 176.29 257.75 179.47 
M 293.63 127.49 288.77 134.53 282.64 143.96 
M 280.36 147.89 277.31 153.98 273.89 162.44 272.98 164.37 
M 298.93 127.8 294.14 134.51 289.09 142.03 286.67 145.83 283.46 151.57 
M 279.83 159.73 277.32 165.84 275.51 169.48 272.48 174.11 
M 304.32 128.15 297.16 138.24 293.28 144.03 
M 288.71 151.56 286.8 155.39 
M 285.05 159.33 283.34 163.28 
M 281.62 167.09 279.84 170.61 
M 309.59 128.58 297.64 146 295.21 149.79 292.18 155.4 
M 288.73 162.97 286.95 166.61 
M 314.83 129.02 308.89 138.42 305 144.1 
M 302.34 147.88 299.88 151.63 
M 297.79 155.39 292.5 166.33 
M 290.57 169.62 289.56 171.2 286.47 175.25 
M 320.1 129.5 318.83 131.41 312.55 142.39 304.81 153.51 302.65 157.23 299.94 162.72 
M 294.08 172.31 291.9 174.87 
M 325.52 130.02 322.48 134.88 318.58 142.51 316.38 146.32 309.99 155.49 
M 307.69 159.14 303.75 166.12 
M 331.08 130.58 328.47 134.55 326.28 138.45 322.27 146.34 320.03 150.11 316.22 155.63 
M 313.69 159.28 308.21 167.84 305.1 172.16 
M 336.59 131.33 334.65 134.11 331.07 140.04 
M 328.88 144.07 324.49 151.89 
M 322.08 155.66 317.03 162.95 
M 314.66 166.33 311.38 170.95 309.25 173.6 308.15 174.72 
M 341.97 132.13 338.15 137.63 335.64 141.6 331.08 149.6 326.42 157.34 323.94 161.14 320.19 166.41 
M 317.79 169.58 315.53 172.42 
M 347.32 133.08 341.43 141.32 338.88 145.24 333.01 154.9 
M 330.64 158.71 327.01 164.37 323.38 169.52 
M 352.89 134.09 350.16 137.51 344.69 145.11 331.29 165.32 
M 328.93 168.83 326.6 172.07 
M 324.29 174.88 323.14 176.15 321.97 177.16 
M 358.61 135.13 353.5 141.26 349.36 146.92 
M 346.74 150.68 334.4 167.79 
M 327.55 176.67 326.17 178.04 
M 364.38 136.14 359.72 141.42 356.82 145.01 350.07 154.21 
M 347.44 157.62 341.09 165.48 334.12 174.44 331.4 177.41 
M 370.16 137.09 362.98 145.25 356.08 154.26 
M 353.38 157.7 348.08 163.94 
M 375.77 138.08 369.07 145.79 358.02 159.67 353.99 164.24 
M 351.35 167.01 348.78 169.59 
M 343.94 174.33 342.2 175.92 
M 381.31 139.09 374.95 146.5 364 160.13 359.94 164.71 
M 386.63 140.39 382.15 145.6 
M 379.35 148.99 373.92 155.8 
M 371.24 159.11 367.19 163.83 363.17 168 
M 391.85 141.76 386.55 147.97 375.7 161.45 373.04 164.49 369.02 168.59 
M 396.5 143.43 392.31 148.41 388.11 153.81 
M 385.39 157.27 381.44 162.17 377.51 166.58 
M 400.85 145.07 397.9 148.54 388.45 161.17 
M 385.86 164.32 383.26 167.23 
M 403.36 148.73 400.57 152.28 392.73 163.34 388.92 167.84 
M 403.36 156.24 402.11 158.07 
M 399.5 161.88 396.96 165.39 
M 403.36 164.62 403.09 164.98 
M 224.85 124.38 226.8 118.96 227.29 116.46 228.05 113.75 228.54 111.11 228.81 108.13 229.4 105.09 230.36 102.19 233.11 97.97 234.44 95.45 237.04 89.63 238.85 83.95 240.05 81.05 245.42 76.63 248.55 71.27 249.91 68.73 250.7 66.9 252.19 64.32 254.24 62.53 257.44 57.31 259.83 55.99 262.57 55.42 264.79 52.86 267.04 51.03 271.75 47.98 278.13 44.9 282.58 41.83 286.19 40.04 282 47.42 282.23 50.39 282.2 53.13 281.39 55.18 281.32 57.49 282.45 62.4 283.06 67.6 283.91 70.79 284.29 73.77 284.07 76.15 287.54 83.58 288.28 86.3 288.52 91.84 290.31 97.41 289.36 100.15 289.76 102.4 292.31 104.63 294.35 107.35 296.17 110.65 298.04 116 298.87 117.69 302.35 121.04 304.38 123.29 309.48 127.19 310.82 128.68 
M 312.72 128.83 312.72 128.83 
M 229.25 123.16 229.53 121.21 230.33 118.61 230.88 115.77 231.11 113.45 232.77 107.58 237.75 97.84 239.72 92.07 239.95 89.88 241.4 87.95 242.06 85.53 243.73 83.01 246.62 79.72 248.3 78.27 253.67 68.54 
M 233.02 124.53 233.71 120.69 235.13 115.41 237.12 110.15 237.9 107.38 238.8 104.98 240.2 103.63 240.57 100.94 241.68 97.85 242.37 95.15 242.14 92.71 243.43 90.16 246.43 85.53 
M 236.15 127.68 237.12 125.6 238.53 119.86 239.42 117.42 239.89 114.47 241.14 111.71 242.65 105 242.75 102.97 243.74 100.67 244.99 94.9 246.91 92.89 249.64 88.41 253.51 83.53 255.28 80.65 258.54 77.75 262.17 73.39 266.05 72.3 268.43 71.14 271.6 68.86 
M 240.54 127.58 241.66 125.19 242.63 122.42 243.34 119.93 243.73 117.24 246.15 109.35 246.45 105.35 247.12 103.3 247.64 100.63 249.01 97.91 251.23 96.25 252.69 93.64 254.63 91.34 255.69 87.76 257.47 84.8 258.93 83.29 
M 244.94 127.51 246.14 125.36 248.76 115.06 249.89 112.94 250.8 110.13 250.72 105.3 251.22 102.94 254.81 98.75 258.77 94.61 260.02 92.13 260.95 88.83 
M 249.33 127.47 250.45 125.52 251.17 120.52 252.88 115.5 253.14 113.26 254.79 108.02 255.83 103.3 257.86 100.62 259.46 98.06 261.17 96.71 
M 253.73 127.45 254.67 125.51 255.77 120.52 255.88 118.12 257.81 110.66 260.54 105.62 262.44 103.37 263.81 100.45 264.72 96.62 266.58 94.82 267.83 92.21 271.64 90.35 274.24 88.43 276.37 87.55 279.35 85.56 281.44 83.6 283.97 81.82 
M 258.13 127.51 258.87 125.65 260.4 116.31 262.9 110.32 264.25 107.75 267.94 104.06 269.11 101.32 269.51 98.83 270.47 97.11 272.25 95.03 274.96 92.91 277.67 92.38 280.97 91.14 283.19 89.91 
M 262.52 127.57 263.24 125.89 263.8 123.37 264.5 118.2 265.52 115.31 266.01 112.21 267.3 109.19 268.4 107.74 270.65 106.02 271.33 104.68 272.71 102.79 
M 266.92 127.6 267.76 125.58 269.58 120.17 269.48 117.87 269.82 115.09 270.44 113.07 272.14 111.06 273.75 109.85 275.25 105.47 
M 271.31 127.64 273.1 122.85 273.32 120.11 273.17 117.14 275.18 114.14 276.85 112.39 277.85 110.8 279.08 107.9 
M 275.71 127.59 276.36 125.44 276.29 122.74 276.56 118.49 278.37 116.9 280.12 114.41 282.81 109.25 284.9 107.81 287.21 105.85 289.83 104.4 
M 280.11 127.48 280.87 125.76 280.69 123.28 280.99 120.7 282.01 118.59 
M 284.5 127.42 285.54 125.77 287.77 118.89 292.27 115.09 
M 288.9 127.43 289.99 126.17 290.72 124.06 292 121.72 295.4 118.73 
M 293.29 127.47 294.25 126.83 295.71 125.04 
M 297.68 127.73 300.85 126.4 
M 302.07 127.98 303.81 126.95 
M 306.45 128.32 310.39 128.27 
M 164.65 136.93 199.31 124.99 199.63 125.82 166.05 139.64 
M 166.22 140.17 239.91 120.21 240.15 121.05 167.37 143.02 
M 167.7 143.71 249.49 128.52 249.66 129.39 168.76 146.58 
M 168.92 147.49 260.24 138.1 260.34 138.97 168.9 150.54 
M 168.81 151.5 255.21 149.82 255.23 150.7 167.63 154.58 
M 167.21 155.38 253.82 160.85 253.78 161.73 165.63 158.39 
M 165.16 158.93 255.88 172.17 255.77 173.04 162.92 161.8 
M 163.47 162.2 236.91 179.41 236.72 180.27 162.8 165.29 
M 163.6 165.75 225.83 186.02 225.57 186.86 162.67 168.78 
M 163.72 169.34 199.37 184.79 199.05 185.61 162.55 172.28 
M 196.03 127.3 204.22 127.31 212.34 126.79 216.36 126.24 220.35 125.47 224.31 124.53 232.19 122.3 
M 232.49 123.37 233.63 125.75 234.31 126.8 235.1 127.72 236.03 128.47 238.26 129.51 240.82 130.13 
M 241.04 131.22 242.42 133.84 244.14 136.05 245.19 136.93 246.38 137.64 247.69 138.22 250.51 139.1 
M 250.64 140.2 248.59 141.89 247.72 142.81 247.01 143.81 246.49 144.9 246 147.34 245.99 150 
M 246.03 151.11 244.63 152.99 243.75 154.95 243.61 155.97 243.67 157.01 243.92 158.09 244.76 160.28 
M 244.71 161.38 244.03 163.71 243.86 165.92 244.08 166.97 244.5 167.98 245.09 168.95 246.63 170.82 
M 246.48 171.92 242.36 172.13 238.4 172.84 236.52 173.49 234.71 174.32 232.96 175.34 229.56 177.69 
M 229.33 178.77 226.63 178.94 224.19 179.57 223.11 180.15 222.13 180.91 221.23 181.83 219.61 183.99 
M 219.28 185.05 214.15 183.52 208.98 182.52 206.37 182.32 203.75 182.33 201.11 182.52 195.81 183.25 
M 200.13 127.34 208.29 127.14 212.34 126.79 216.36 126.24 220.35 125.47 228.25 123.45 
M 233.04 124.58 234.31 126.8 235.1 127.72 236.03 128.47 237.08 129.06 239.52 129.85 
M 208.57 131.52 209.4 132.96 210.51 134.05 211.2 134.43 212.78 134.94 
M 241.7 132.56 243.22 135.02 244.14 136.05 245.19 136.93 246.38 137.64 249.08 138.69 
M 223.37 136.14 224.53 138.03 225.24 138.82 226.96 140.04 229.02 140.84 
M 205.04 139.73 206.34 141.59 207.53 142.44 208.97 143 
M 249.58 141.03 247.72 142.81 247.01 143.81 246.49 144.9 246.17 146.08 245.97 148.65 
M 229.41 143.46 227.98 144.83 227.44 145.59 226.79 147.33 226.64 149.3 
M 209.24 145.89 207.87 147.37 207.42 148.58 207.31 149.95 
M 245.29 152.04 244.1 153.96 243.75 154.95 243.61 155.97 243.67 157.01 244.31 159.18 
M 226.12 152.72 225.21 154.19 224.94 154.95 224.88 156.53 225.37 158.19 
M 206.95 153.4 206.13 154.95 206.09 156.05 206.43 157.21 
M 244.33 162.55 243.85 164.83 243.86 165.92 244.08 166.97 244.5 167.98 245.83 169.89 
M 225.38 161.6 225.02 163.35 225.03 164.19 225.51 165.76 226.53 167.23 
M 206.44 160.65 206.19 162.45 206.53 163.54 207.24 164.56 
M 244.41 171.99 240.35 172.4 238.4 172.84 236.52 173.49 234.71 174.32 231.25 176.48 
M 215.96 168.49 213.32 168.76 212.06 169.04 209.66 170.01 207.41 171.41 
M 227.96 178.82 225.37 179.17 224.19 179.57 223.11 180.15 222.13 180.91 220.4 182.88 
M 205.27 174.16 203.58 174.39 202.82 174.64 201.48 175.52 200.36 176.8 
M 216.72 184.25 211.57 182.93 208.98 182.52 206.37 182.32 203.75 182.33 198.46 182.85 
M 205.64 182.32 210.12 187.87 212.22 189.63 213.95 192.73 216.97 197.22 218.9 198.66 224.2 201.83 225.38 204.82 227.93 209.94 228.61 213.49 230.63 215.34 233.13 217.31 234.72 220.14 232.32 228.14 228.67 231.45 225.88 235.64 225.45 238.76 224.5 241.36 223.95 244.36 223.11 247.06 222.01 249.49 219.93 250.94 219.24 253.78 217.86 256.04 213.82 259.46 211.42 260.78 209.79 262.46 199.94 269.95 200.42 267.42 200.74 264.08 200.11 262.43 199.73 259.74 200.05 256.24 199.66 253.67 199.54 251.32 198.31 248.73 198.4 245.8 198.77 243.52 198.48 240.12 198.45 237.69 198.73 231.32 198.5 228.68 196.81 223.3 196.42 220.8 197.08 217.79 196.77 213.93 196.2 211.07 195.75 205.92 196.08 203.25 196.1 200.58 195.48 198.29 195.06 195.36 194.58 189.66 194.72 187.04 194.28 182.67 
M 203.72 182.33 205.77 184.98 213.49 197.53 215.02 199.33 216.54 202.13 218.76 203.64 222.59 208.47 224.1 213.08 227.68 218.82 228.83 221.8 230.27 224.92 
M 201.89 182.47 204.97 187.39 205.62 190.17 207.98 195.59 215.26 207.07 216.05 209.77 218.98 214.17 219.21 216.72 219.96 219.79 221.16 221.73 222.52 224.91 224.78 227.58 226.11 229.59 227.46 232.02 227.48 235.31 
M 200.19 182.64 201.14 184.69 202.65 187.09 205.41 198.69 206.81 201.32 207.94 203.84 210.92 207.9 212.28 210.32 213.25 212.87 
M 198.08 182.91 198.58 184.75 199.96 187.14 200.53 189.9 200.92 192.93 201.67 195.94 202.13 199.17 201.92 201.68 202.7 204.41 203.97 206.83 204.78 209.83 206.08 212.7 206.84 217.38 209.35 223.21 210.34 228.48 210.08 230.69 211.55 233.78 215 238.13 215.53 240.4 215.77 242.68 216.41 245.3 
M 196.06 183.21 197.49 189.92 197.38 192.7 198.87 201.52 199.19 206.31 199.74 209.71 202.6 219.63 
M 352.61 176.67 356.36 181.28 359.47 185.51 361.69 188.99 366.44 197.94 363.98 199.2 362.05 201 359.45 202.05 353.13 206.55 350.67 207.82 348.72 209.59 346.13 210.41 343.24 210.2 337.7 210.47 335.42 210.2 332.81 209.58 330.52 210.68 328.5 212.11 325.96 212.96 320.92 212.04 314.41 207.71 312.46 206.96 309.93 205.72 306.44 203.55 304.02 202.59 302.08 202.04 298.21 200.34 291.24 191.98 289.47 189.44 286.52 186.48 282.81 181.87 
M 348.3 177.5 351.75 180.73 353.73 184.06 355.64 186.33 357.15 188.81 361.57 192.1 
M 343.98 178.32 346.58 181.77 348.39 184.7 352.34 190.1 354.33 192.2 356.11 194.42 358.41 196.5 
M 339.64 179.06 344.37 185.52 345.45 188.23 346.97 190.94 351.36 195.9 
M 335.3 179.76 339.37 186.14 342.3 192.36 343.02 194.7 347.4 199.65 
M 330.94 180.33 338.38 192.25 339.81 195.4 340.09 197.34 343.33 202.99 
M 326.56 180.71 328.76 184.19 331.96 190.46 334.27 192 335.69 194.15 336.36 197.01 337.69 199.2 338.72 202.88 
M 322.18 181.06 323.72 185.38 325.07 188.42 329.43 192.54 332.78 197.38 333.56 199.58 335.33 201.49 337.05 204.2 338.29 208.66 
M 317.79 181.26 321.48 188.01 323.27 190.57 328.01 195.06 
M 313.4 181.45 315.01 185.54 318.76 190.96 320.73 194.4 321.92 197.56 323.3 199.16 324.17 202.41 
M 309 181.58 311.22 185.06 314.26 191.33 316.22 194.51 317.95 197.85 318.94 200.96 
M 304.61 181.7 307.43 185.39 311.17 194.93 313.1 197.7 314.57 200.18 315.98 203.17 317.1 206.02 318.81 208.07 320.19 210.19 
M 300.21 181.8 303.24 185.7 304.56 188.91 305.51 192.16 307.04 195.56 
M 295.82 181.89 301.11 189.16 302.72 192.13 304.59 195.09 305.5 198.1 305.28 199.56 306.79 201.66 
M 291.42 181.94 294.84 185.46 296.75 188.73 300.29 195.78 
M 287.03 181.91 290.32 185.18 291.73 188.25 293.92 190.93 295.54 194.44 
M 402.48 145.69 405.34 144.74 407.73 143.72 409.85 142.23 411.95 141.09 419.28 136.38 421.56 134.32 424.01 133.14 426.2 131.75 428.71 130.75 431.1 129.42 433.6 128.43 435.49 127.16 437.01 125.31 441.27 122.74 445.8 119.22 448.33 117.7 450.84 116.51 456.3 113.43 458.79 112.48 461 111.36 462.07 110.24 463.72 110.14 465.43 109.53 468.27 108.14 473.65 104.55 479.6 99.63 481.81 98.7 482.56 98.12 484.86 96.83 487.38 94.77 489.46 93.83 486.96 103.16 486.72 105.54 488.08 112.14 488.05 115.07 485.73 118.97 485.05 124.58 483.73 126.65 482.64 128.95 482.05 131.76 481.81 134.91 478.62 141.79 477.27 143.77 477.06 146.59 477.25 149.47 476.92 151.83 477.11 154.47 478.73 160.27 478.36 162.51 478.29 165.04 477.87 167.29 477.83 170.2 478.26 175.98 477.65 177.49 479.39 185.52 480.92 189.14 481.74 193.71 481.51 195.34 483.49 200.98 483.9 203.19 486.38 211.41 487.11 214.11 487.14 216.29 490 226.11 487.15 226.38 484.82 224.51 482.3 224.05 477.6 221.23 475.39 217.17 472.84 215.24 464.25 210.57 461.83 208.55 459.95 207.45 455.17 205.83 452.6 204.06 449.53 202.35 447.75 201.07 443.92 196.12 435.69 190.09 433.97 187.83 431.74 185.93 429.04 184.42 426.19 183.71 424.05 182.85 421.92 181.6 419.54 179.66 414.69 176.15 412.49 174.31 407.41 171.12 405.39 169.08 402.48 167.05 
M 402.48 147.02 408.01 145.49 414.79 141.9 416.98 140.26 420.16 138.97 422.61 137.2 427.49 135.51 430.22 134.05 432.72 133.29 435.06 132.12 437.42 131.21 448 123.45 450.25 122.29 455.78 120.06 459.08 119.52 461.59 118.72 464.32 116.41 465.89 114.11 471.84 112.48 474.6 111.5 477.27 111.63 479.8 110.34 
M 405.64 147.72 413.51 145.69 418.29 142.68 420.88 141.44 423.31 139.96 425.87 138.92 431.53 137.11 433.8 136.21 436.1 136.27 441.43 134.63 443.58 133.12 446.85 131.62 449.97 129.93 451.98 128.46 452.39 127.31 454.55 126.58 457.15 125.16 
M 405.83 149.19 408.36 148.87 413.57 147.8 419.09 145.64 426.69 141.64 429.32 141.05 432.42 139.99 434.66 139.44 442.19 138.43 
M 402.48 151.03 408.56 150.4 411.22 150.37 417.05 149.34 419.98 148.63 423.01 147.78 428.31 145.31 431.2 145.12 436.03 143.24 438.27 142.8 441.8 142.63 443.85 140.79 452.71 140.58 454.13 139.21 456.12 138.26 458.32 136.68 460.62 135.89 468.01 134.34 
M 402.48 152.36 405.94 152.36 408.57 152.11 411.61 152.18 417.4 151.81 420.56 151.21 426.18 149.75 428.71 149.33 431.61 149.62 434.21 149.17 435.86 147.62 438.28 147.01 440.51 147.02 443.79 146.66 
M 408.87 153.72 411.69 153.82 417.31 153.47 423.64 153.85 426.46 153.12 429.33 152.86 434.02 152.72 435.77 152.35 438.22 151.36 440.72 151.08 444.53 151.6 448.68 151.74 451.62 150.78 454.12 150.34 456.48 148 459.63 148.18 463.3 149.24 
M 402.48 155.03 406.24 155.65 415.17 155.55 417.95 155.72 423.67 156.47 429.02 156.25 430.89 155.84 433.68 155.96 435.57 156.59 441.71 155.37 445.09 156.04 448.32 155.87 451.59 155.1 454.04 155.04 457.63 153.68 460.79 154.43 463.85 154.26 465.59 154.94 468.41 154.07 471.97 153.89 474.96 154.41 
M 406.13 157.18 412.42 157.24 415.54 157.54 418.31 158.22 428.05 159.34 429.99 160.05 432.99 160.42 438.54 159.7 444.94 160.62 449.39 159.94 451.89 160.22 
M 409.23 159.07 415.36 159.71 420.86 161.28 423.64 161.33 427.86 162.6 430.52 162.54 433.73 162.92 441.77 163.06 451.07 165.32 453.62 165.03 455.33 164.35 456.11 165.01 458.93 164.62 462.12 165.15 465.19 167.38 
M 409.07 161.06 414.86 162.14 417.36 163.2 425.25 165.03 434.56 165.45 437.54 166.44 441.66 167.06 444.12 167 447.66 167.92 450.47 169.64 453.24 169.53 454.72 169.24 
M 406.01 161.6 408.54 162.83 414.35 164.21 416.77 164.97 419.36 165.98 422.43 166.94 425.08 168.1 428.23 168.66 431.86 168.43 438.8 170.78 440.82 170.92 444.38 172.28 449.87 173.49 452.4 174.48 454.11 175.52 458.12 176.53 461.58 178.03 465.28 180.49 468.45 179.8 472.41 179.83 475.55 181.08 478.23 181.46 
M 402.48 161.71 405.9 163.1 408.52 164.43 411.16 165.28 413.62 166.32 416.42 167.01 419.07 168.2 421.99 169.79 427.59 171.09 430.51 171.93 433.36 172.5 438.8 174.93 444.67 177.06 446.91 177.38 453.47 179.42 455.32 180.77 457.83 181.72 460.71 182.31 463.74 183.37 466.55 183.91 469.12 184.18 471.72 184.76 
M 405.71 164.51 410.91 167.04 413.24 168.4 416.1 169.24 421.35 172.49 426.93 173.5 435.62 175.81 438.32 177.98 440.91 179.81 443.48 180.84 446.81 183.37 449.49 184.96 451.93 186.05 454.81 186.76 457.46 188.15 462.36 190.17 
M 410.72 168.91 412.88 170.27 415.61 171.72 418.38 172.88 421.36 174.42 424.42 175.43 426.17 176.42 428.85 177.53 431.47 178.17 437.21 181.51 439.46 183.57 442.26 185.49 444.84 186.35 446.71 187.7 448.11 189.25 453.49 191.18 458.83 194.97 462.77 196.52 469.98 200.5 472.56 201.16 474.7 202.75 
M 405.48 167.59 410.13 171.06 415.41 173.91 417.65 175.48 420.96 176.82 423.45 178.53 425.81 179.92 428.14 180.53 432.73 182.7 435.34 185.16 438.01 187.4 440.44 189.09 443.7 190.91 
M 81.15 141.28 85.82 140.27 89.06 140.16 92.84 140.58 97.53 140.68 103.37 140.42 109.01 139.96 120.29 138.2 146.22 135.63 163.09 135.2 165.54 137.92 166.21 140.15 168.22 144.8 168.9 147.04 169 149.12 168.59 153.11 167.45 154.85 166.65 156.67 165.6 158.44 162.62 161.72 161.96 163.59 159.97 167.14 158.52 168.79 156.43 170.27 153.12 171.36 142.18 170.94 134.33 170.26 127.53 169.36 121.43 168.15 115.88 166.51 110.71 164.74 106.04 162.75 94.29 157.02 
M 146.38 145.84 145.94 147.51 143.01 150.18 141.34 151.34 137.68 153.47 137.14 154.68 136.91 155.78 137.16 158.05 137.02 159.17 136.03 160.23 123.58 160.1 118.8 159.81 114.09 159.26 109.54 158.21 105.17 156.89 101.2 155.21 
M 92.65 156.51 77.86 145.2 76.42 143.52 76.54 141.28 78.39 140.02 80.58 140.69 82.16 142.34 90.88 152.38 94.46 156.86 
M 91.12 157.84 87.52 158.31 
M 83.47 158.82 72.11 160.18 70.14 159.18 69.68 157.06 71.11 155.38 73.43 155.09 75.72 155.09 79.58 155.39 
M 82.29 155.71 91.1 156.3 92.78 156.53 
M 93.9 156.69 94.13 156.72 
M 109.65 151.03 108.8 147.8 109.04 144.47 110.35 141.41 112.1 139.47 
M 123.29 137.88 125.04 138.81 127.32 141.24 128.69 144.28 129 147.6 128.21 150.84 126.41 153.65 123.8 155.73 120.66 156.84 117.32 156.88 114.16 155.82 111.5 153.8 109.65 151.03 
M 109.53 150.74 108.86 148.32 108.81 145.82 109.02 144.58 109.88 142.23 110.52 141.15 111.96 139.49 
M 111.15 150.07 110.82 149.09 110.52 147.04 110.56 146 110.96 144.22 
M 113.53 140.44 115.06 139.42 117.05 138.7 
M 118.15 138.53 120.1 138.58 122.1 139.13 
M 112.78 149.4 112.34 147.82 112.28 147 112.62 144.77 
M 114.75 141.72 116.61 140.65 118.21 140.28 119.85 140.32 121.42 140.75 
M 115.2 148.53 114.86 147.24 115.05 145.68 
M 116.64 143.54 117.54 143.04 118.85 142.81 120.17 143.02 121.35 143.64 122.26 144.61 122.81 145.83 122.93 147.16 122.62 148.46 121.9 149.58 120.86 150.41 119.6 150.86 118.26 150.87 117 150.45 115.94 149.64 115.2 148.53 
M 115.34 145.79 114.9 146.69 
M 118.08 142.95 117.33 144.46 
M 116.66 145.79 115.25 148.61 
M 119.43 142.9 116.02 149.71 
M 120.58 143.23 116.98 150.43 
M 121.57 143.88 118.11 150.82 
M 122.39 144.89 119.4 150.86 
M 122.88 146.55 121.01 150.29 
M 84.87 140.45 89.71 145.29 
M 89.95 140.26 94.4 144.71 
M 95.61 140.64 99.36 144.4 
M 100.78 140.54 105.6 145.36 
M 105.74 140.22 108.72 143.2 
M 110.51 139.72 111.23 140.44 
M 124.39 137.76 128.74 142.12 
M 129.22 137.32 133.19 141.29 
M 134.07 136.89 138.32 141.15 
M 138.81 136.37 143.49 141.04 
M 143.61 135.89 148.35 140.62 
M 148.58 135.58 152.48 139.48 
M 153.74 135.46 158.46 140.18 
M 158.87 135.32 163.38 139.83 
M 94.46 140.62 92.06 141.36 90.31 142.3 
M 146.73 163.41 145.66 161.78 144.45 158.33 144.42 157.18 144.66 155.95 145.06 154.89 
M 97.9 154.31 98.62 155.49 98.43 156.4 98.56 157.23 
M 163.35 135.5 161.88 135.42 
M 143.5 155.66 144.1 154.47 145.25 153.52 147.27 153.15 148.95 153.19 
M 165.03 150.24 163.93 150.27 163.06 150.49 161.02 151.68 159.77 153.12 159.68 153.94 159.96 154.6 
M 93.7 141.56 92.23 141.71 89.1 143.16 87.76 143.44 
M 101.6 146.97 100.78 146.86 99.38 146.27 98.23 145.55 96.6 143.97 94.85 143.28 
M 125.15 163.25 124.96 164.12 125.6 165.39 126.06 167.7 
M 140.92 148.51 140.3 152.61 139.46 154.41 139.62 155.1 
M 117.49 157.72 116.88 157.42 
M 95.02 150.69 94.75 148.91 95.09 146.13 94.22 144.36 93.6 143.83 
M 136.4 153.6 136.33 154.2 136.6 154.68 138.96 156.83 
M 148.18 137.89 144.87 140.45 143.83 140.66 141.83 140.62 139.81 140.33 136.1 138.06 135.35 137.42 
M 128.78 145.27 129.25 145.89 129.61 146.81 129.26 149.75 129.52 150.26 
M 159.75 152.83 159.6 153.24 159.64 154.02 160.48 155.42 
M 106.3 155.63 106.2 153.34 105.99 152.75 105.15 151.91 102.84 151.02 100.29 150.92 
M 148 142.04 146.95 142.46 144.64 142.9 144.14 143.19 141.73 145.25 141.18 146.17 
M 83.4 140.94 81.8 141.24 
M 123.5 167.27 123.41 167.93 123 168.1 120.52 167.07 
M 160 154.79 160.49 155.44 
M 160.35 147.83 159.61 148.38 158.07 148.82 156.42 150.36 
M 137.6 166.22 135.89 167.68 134.38 169.47 133.42 170.14 
M 168.32 150.4 166.53 150.99 163.35 151.44 161.97 152.15 160.95 153.06 
M 156.93 135.82 157.51 137.21 158.51 138.36 159.58 139.29 159.88 139.79 160.52 142.27 
M 145.63 157.99 145.59 155.78 145.69 155.32 146.23 154.37 147.83 153.3 148.99 153.2 
M 133.93 152.59 133.69 153.21 133.49 153.3 133.42 153.16 
M 164.18 159.62 163.23 160.17 163.15 160.47 163.34 160.94 
M 144.93 146.5 146.23 146.8 147.57 146.65 148.71 146.82 149.75 146.31 
M 103.83 151.86 102.91 151.44 102.16 151.3 100.03 151.34 99.61 151.52 99.2 152.02 99.06 153.06 
M 101.37 158.9 101.91 158.12 102.07 157.58 102.14 155.99 101.85 154.36 101.59 153.8 100.89 153.34 100.36 153.37 99.89 153.76 
M 133.23 136.99 133.29 137.01 
M 127.31 140.61 128.33 140.45 129.74 140.75 133.74 143.32 134.59 144.09 
M 133.62 140.85 134 140.61 134.18 140.23 134.16 139.14 
M 140.54 161.21 138.81 163.51 136.55 165.56 134.36 169.19 133.97 169.58 
M 163.83 136.03 161.74 135.63 
M 141.31 159.4 140.67 160.08 139.03 163.01 136.12 165.91 134.41 169.07 
M 144.76 146.84 145.67 146.99 147.69 146.75 148.62 146.88 149.18 146.73 149.91 146.22 
M 89.1 141.15 86.56 140.25 
M 132.46 161.75 133.16 161.03 133.99 159.71 134.81 159.1 135.63 158.86 136.19 158.91 136.58 159.3 136.72 159.96 
M 102.93 145.48 101.37 146 100.19 145.88 98.7 145.25 96.68 143.7 95.61 143.33 
M 130.44 157.09 129.78 154.34 129.79 153 130.18 151.35 130.75 150.76 131.32 150.71 
M 164.82 158.19 161.99 158.51 161.77 158.32 161.55 157.47 
M 152.32 153.93 153.45 151.96 153.74 151.86 154.14 152.14 
M 97.48 141.08 96.48 141.23 94.73 141.82 92.45 141.82 91.11 142.31 
M 159.37 139.46 159.76 139.95 160.16 140.87 160.57 143.08 
M 114.02 156.14 116.71 156.67 
M 158.07 143.21 158.83 144.16 159.38 145.51 159.33 146.16 158.92 146.8 
M 162.13 161.85 162.45 162.2 
M 161.98 163.53 160.82 164.29 160.02 164.5 
M 104.32 160.93 104.72 160.31 104.96 159.47 105.03 158.46 104.68 155.42 104.32 154.54 103.81 153.71 102.48 152.56 101.34 152.37 100.22 152.74 
M 158.45 161.43 159.68 161.7 161.09 162.48 161.09 163.01 160.42 164.12 
M 143.27 166.91 140.08 167.3 138.3 167.9 134.72 169.52 
M 144.34 160.53 142.47 159.02 141.63 158.83 141.15 159.15 140.63 159.84 139.24 162.69 
M 100.13 152.44 99.54 153.95 99 154.75 98.7 155.78 
M 111.21 161.65 111.94 164.4 111.82 165.12 
M 94.68 144.37 94.04 143.86 93.28 143.52 92.08 143.49 87.78 145.19 
M 96.07 147.24 95.91 145.71 95.11 144.54 94.11 143.79 93.35 143.47 92.55 143.37 91.7 143.5 
M 139.59 168.35 137.28 169.06 135.92 169.21 134.51 169.6 
M 150.01 145.99 149.91 145.58 149.11 144.89 
M 128.9 137.34 131.98 139.08 
M 99.76 151.47 99.3 151.92 99.11 152.4 98.89 154.87 
M 161 142.17 160.71 142.92 160.81 143.35 
M 126.99 140.89 128.19 140.71 128.85 140.8 
M 137.96 160.79 137.16 162.09 135.1 163.88 134.75 164.49 134.21 167.63 133.6 169.22 
M 165.9 141.94 164.11 141.47 162.75 140.71 161.67 140.53 161.18 140.98 161.07 142 
M 113.57 163.06 113.75 164.04 113.69 164.84 113.27 165.61 
M 101.78 160.7 102.51 160.25 102.91 159.72 103.35 158.24 103.31 157.28 
M 123.72 158.67 119.62 157.67 118.6 156.86 
M 92.16 153.95 94.19 155.29 
M 101.81 146.01 100.71 146.08 99.29 145.63 98.59 145.26 96.64 143.71 94.87 143.09 
M 137.5 156.2 139.53 158.13 140.03 158.95 140.06 159.44 139.85 160.71 139.16 162.55 138.53 163.36 136.98 164.77 
M 108.92 146.16 106.79 145.42 105.59 145.22 104.59 145.53 103.21 146.3 101.79 146.61 
M 130.71 146.07 130.88 147.08 130.75 147.6 129.69 149.85 129.75 150.23 130.25 150.51 
M 113.02 157.76 114.83 157.94 116.42 158.41 116.76 158.36 116.85 158.11 
M 134.87 151.08 134.79 151.97 134.6 152.32 133.77 153.26 133.49 153.36 133.38 153.24 
M 153.06 154.47 154.19 153.51 154.87 153.43 156.53 153.66 158.43 154.19 159.83 154.78 
M 93.38 155.5 94.75 156.64 95.38 157.57 
M 95.11 157.9 94.08 158.87 92.83 159.75 91.4 160.4 89.85 160.71 88.31 160.69 86.83 160.41 85.45 159.91 83 158.53 80.76 156.81 79.02 154.6 76.98 151.24 75.32 149.39 67.88 144.07 65.58 142.96 63.06 142.44 60.47 142.52 57.95 143.22 54.33 144.79 57.9 143.08 60.42 142.22 63.09 141.99 65.75 142.38 68.26 143.42 76.14 148.41 78.12 150.37 80.38 153.64 82 155.49 85.13 157.46 87.36 158.29 89.58 158.39 90.6 158.12 91.54 157.62 93.25 156.03 
M 92.59 163.41 89.59 170.7 88.79 173.11 88.22 175.59 87.67 180.67 87.71 183.21 88 185.76 88.98 190.89 90.82 198.51 91.68 200.96 94.73 208.26 99.23 220.67 100.74 225.75 104.59 241.1 100.31 225.87 98.66 220.88 93.74 208.65 90.46 201.45 89.49 198.95 87.35 191.26 86.18 186.06 85.79 183.37 85.65 180.64 86.06 175.23 86.58 172.54 87.35 169.91 90.12 162.47 
M 92.49 163.08 92.43 163.35 
M 92.26 164.23 91.98 165.57 91.86 168.01 92.14 170.45 92.76 172.86 93.67 175.15 94.96 177.27 96.53 179.25 104.03 186.57 107.68 190.47 115.68 200.99 117.37 202.98 121.01 206.75 126.84 212.08 134.93 218.84 137.09 220.34 141.83 222.64 137.05 220.41 132.7 217.41 124.46 210.81 120.47 207.33 116.65 203.64 114.87 201.66 106.56 191.46 102.87 187.77 95.03 180.61 93.25 178.51 91.72 176.17 90.59 173.6 89.73 170.36 
M 89.75 163.5 89.9 162.6 
M 92.65 163.48 92.25 164.26 
M 86.56 172.61 84.41 174.36 81.84 175.65 79.06 176.33 76.25 176.47 73.48 176.14 70.79 175.36 68.29 174.07 66.14 172.29 64.35 170.22 58.31 161.56 54.82 157.69 52.91 155.92 48.69 152.86 39.41 147.88 37.18 146.44 35.09 144.82 33.19 142.97 30 138.78 33.26 142.91 35.2 144.68 37.33 146.23 39.58 147.57 49.05 152.25 53.47 155.24 55.49 156.99 59.19 160.83 60.87 162.92 63.91 167.23 65.51 169.27 67.23 171.15 69.19 172.67 71.41 173.72 73.82 174.33 76.29 174.53 78.74 174.33 81.08 173.68 83.19 172.53 85.01 170.94 86.59 169.03 87.96 166.91 89.76 163.43 
M 90.2 162.5 90.28 162.32 
M 94.26 157.04 94.82 157.56 
M 87.92 152.86 87.58 153.57 87.52 154.65 87.96 153.93 88.75 153.47 
M 82.34 148.62 81.16 150.35 80.86 152.33 81.55 150.71 83.29 149.33 
M 76.99 144.18 74.75 147.14 74.2 150.01 75.14 147.5 77.81 145.15 
M 94.13 156.97 95.06 156.93 
M 88.29 156.14 88.46 155.67 89.03 155.03 88.99 155.65 89.24 156.2 
M 82.79 155.74 83.01 154.37 83.87 153.09 83.54 154.35 83.9 155.81 
M 77.35 155.2 77.56 153.06 78.72 151.16 78.09 153.04 78.48 155.29 
M 71.88 155.28 72.11 151.76 73.57 149.22 72.64 151.74 73.11 155.13 
M 77.51 159.49 83.89 161.43 87.55 162.19 91.19 162.66 98.58 162.94 106.04 162.75 
M 81.12 160.64 80.44 159.17 
M 166.83 134.58 169.2 136.95 
M 172.85 133.57 174.37 135.09 
M 179.26 132.95 179.54 133.23 
M 237.28 127.66 239.46 129.83 
M 241.23 131.6 242.75 133.12 
M 244.18 127.52 252.28 135.62 
M 251.15 127.46 258.75 135.06 
M 258.24 127.51 264.33 133.6 
M 265.35 127.59 271.92 134.16 
M 272.44 127.65 281.12 136.32 
M 279.33 127.5 289.37 137.54 
M 286.29 127.43 294.3 135.44 
M 293.37 127.48 300.83 134.93 
M 300.84 127.91 308.33 135.4 
M 308.45 128.49 314.62 134.65 
M 316.14 129.14 323.56 136.56 
M 323.89 129.86 334.15 140.12 
M 331.71 130.65 341.24 140.17 
M 339.93 131.83 346.19 138.09 
M 348.42 133.28 354.77 139.63 
M 357.01 134.84 364.12 141.95 
M 365.54 136.33 375.35 146.14 
M 373.99 137.75 382.16 145.92 
M 382.61 139.34 393.06 149.79 
M 392.14 141.83 400.91 150.6 
M 407.37 150.02 411.53 154.19 
M 257.23 113.42 257.81 113.44 258.46 114.04 258.52 114.62 257.94 114.6 257.29 114 257.23 113.42 
M 258.31 113.51 258.08 114.04 257.3 114.44 256.73 114.29 256.96 113.75 257.74 113.36 258.31 113.51 
M 268.87 118.26 268.49 118.7 267.62 118.82 267.13 118.5 267.52 118.07 268.39 117.94 268.87 118.26 
M 267.35 118.52 267.85 118.23 268.72 118.4 269.07 118.86 268.57 119.15 267.71 118.98 267.35 118.52 
M 250.28 105.73 250.47 105.18 251.23 104.73 251.8 104.84 251.61 105.39 250.85 105.84 250.28 105.73 
M 251.69 105.46 251.11 105.49 250.42 104.95 250.3 104.37 250.88 104.34 251.58 104.88 251.69 105.46 
M 260.35 120.8 260.27 120.22 260.74 119.48 261.29 119.31 261.38 119.89 260.91 120.63 260.35 120.8 
M 260.18 119.86 260.76 119.85 261.43 120.42 261.52 121 260.94 121 260.27 120.43 260.18 119.86 
M 249.57 120.55 249.94 120.11 250.81 119.97 251.3 120.27 250.93 120.72 250.06 120.86 249.57 120.55 
M 250.16 119.8 250.55 120.23 250.57 121.11 250.2 121.56 249.81 121.13 249.79 120.25 250.16 119.8 
M 264.79 107.16 264.42 107.61 263.55 107.76 263.06 107.46 263.42 107.01 264.29 106.86 264.79 107.16 
M 264.28 107.88 263.84 107.51 263.69 106.64 263.99 106.14 264.44 106.51 264.59 107.38 264.28 107.88 
M 246.82 112.95 247.35 112.72 248.19 112.98 248.5 113.47 247.97 113.7 247.13 113.44 246.82 112.95 
M 248.07 112.68 247.87 113.23 247.1 113.65 246.53 113.54 246.73 112.99 247.5 112.56 248.07 112.68 
M 256.1 125.41 256.26 125.98 255.88 126.77 255.34 127 255.19 126.44 255.57 125.65 256.1 125.41 
M 256.3 126.55 255.73 126.42 255.22 125.71 255.27 125.13 255.83 125.26 256.35 125.97 256.3 126.55 
M 241.48 123.11 242.03 122.94 242.84 123.29 243.09 123.81 242.53 123.99 241.73 123.63 241.48 123.11 
M 241.74 123.06 242.3 123.25 242.74 124.01 242.63 124.58 242.08 124.39 241.64 123.64 241.74 123.06 
M 235.72 115.1 236.29 115.21 236.83 115.9 236.8 116.48 236.23 116.37 235.69 115.68 235.72 115.1 
M 236.14 115.13 236.41 115.64 236.22 116.5 235.75 116.85 235.48 116.33 235.67 115.48 236.14 115.13 
M 238.06 104.04 238.5 104.42 238.63 105.29 238.32 105.78 237.88 105.41 237.75 104.54 238.06 104.04 
M 238.46 104.3 238.4 104.88 237.76 105.48 237.18 105.5 237.24 104.93 237.88 104.32 238.46 104.3 
M 265.6 127.45 265.06 127.24 264.64 126.47 264.77 125.9 265.32 126.11 265.73 126.88 265.6 127.45 
M 264.64 127.06 264.99 126.6 265.85 126.42 266.36 126.7 266.01 127.16 265.15 127.34 264.64 127.06 
M 270.92 124.78 270.85 124.21 271.35 123.48 271.92 123.33 271.98 123.91 271.48 124.64 270.92 124.78 
M 270.8 124.32 271.24 123.94 272.12 123.94 272.56 124.33 272.12 124.71 271.24 124.7 270.8 124.32 
M 260.51 132.41 260.03 132.74 259.16 132.64 258.76 132.21 259.24 131.88 260.12 131.98 260.51 132.41 
M 260.03 131.77 259.85 132.32 259.09 132.77 258.52 132.66 258.7 132.11 259.46 131.66 260.03 131.77 
M 263.7 113.33 263.15 113.52 262.33 113.2 262.06 112.68 262.61 112.49 263.43 112.82 263.7 113.33 
M 263.47 112.7 263.06 113.11 262.19 113.18 261.72 112.83 262.13 112.42 263 112.35 263.47 112.7 
M 270.34 112.44 269.9 112.06 269.76 111.19 270.07 110.7 270.51 111.07 270.65 111.94 270.34 112.44 
M 270.86 111.7 270.28 111.76 269.56 111.26 269.42 110.7 270 110.64 270.72 111.14 270.86 111.7 
M 253.5 141.05 253.47 140.47 254 139.77 254.57 139.65 254.6 140.23 254.07 140.93 253.5 141.05 
M 254.56 139.94 254.24 140.42 253.39 140.65 252.86 140.39 253.19 139.91 254.04 139.68 254.56 139.94 
M 270.56 136.78 270.07 137.1 269.2 136.99 268.81 136.56 269.3 136.23 270.17 136.34 270.56 136.78 
M 269.78 137.33 269.53 136.81 269.75 135.96 270.23 135.63 270.49 136.15 270.26 137 269.78 137.33 
M 275.99 132.71 275.49 132.41 275.22 131.57 275.44 131.04 275.94 131.34 276.21 132.18 275.99 132.71 
M 276.18 131.4 275.92 131.92 275.11 132.25 274.56 132.06 274.82 131.55 275.63 131.21 276.18 131.4 
M 244.38 97.52 244.73 97.98 244.69 98.85 244.28 99.27 243.93 98.81 243.97 97.94 244.38 97.52 
M 243.71 98.65 244.16 98.27 245.03 98.29 245.47 98.68 245.02 99.05 244.14 99.04 243.71 98.65 
M 257.09 97.4 256.78 96.9 256.93 96.04 257.38 95.67 257.68 96.16 257.53 97.03 257.09 97.4 
M 257 97.16 257.03 96.58 257.63 95.94 258.21 95.88 258.18 96.47 257.58 97.1 257 97.16 
M 250.2 99.67 249.68 99.4 249.36 98.59 249.55 98.04 250.06 98.31 250.39 99.12 250.2 99.67 
M 249.79 98.19 250.04 98.72 249.79 99.56 249.3 99.88 249.06 99.35 249.3 98.51 249.79 98.19 
M 265.77 98.02 266.34 98.12 266.9 98.8 266.88 99.38 266.31 99.28 265.75 98.6 265.77 98.02 
M 266.13 99.34 266.12 98.76 266.69 98.09 267.26 97.99 267.27 98.58 266.7 99.25 266.13 99.34 
M 271.47 104.03 271.98 104.29 272.32 105.1 272.13 105.66 271.61 105.39 271.28 104.58 271.47 104.03 
M 271.68 105.5 271.6 104.92 272.09 104.19 272.65 104.04 272.72 104.61 272.24 105.34 271.68 105.5 
M 256.59 103.42 256.99 103 257.87 102.91 258.34 103.25 257.94 103.67 257.06 103.75 256.59 103.42 
M 256.92 103.72 257.27 103.26 258.13 103.07 258.64 103.34 258.29 103.81 257.43 104 256.92 103.72 
M 259.44 91.14 259.24 90.59 259.55 89.77 260.06 89.49 260.26 90.04 259.95 90.86 259.44 91.14 
M 259.17 90.66 259.56 90.22 260.43 90.11 260.91 90.43 260.53 90.87 259.65 90.98 259.17 90.66 
M 253.42 91.75 252.88 91.53 252.48 90.75 252.62 90.19 253.16 90.4 253.56 91.19 253.42 91.75 
M 252.5 90.54 253.04 90.76 253.45 91.54 253.32 92.1 252.77 91.89 252.37 91.11 252.5 90.54 
M 280.39 108.06 280.93 107.83 281.76 108.1 282.06 108.6 281.53 108.82 280.69 108.55 280.39 108.06 
M 280.74 107.86 281.27 108.12 281.61 108.93 281.43 109.48 280.91 109.23 280.56 108.42 280.74 107.86 
M 274.19 97.01 273.72 97.34 272.84 97.25 272.45 96.82 272.92 96.49 273.8 96.59 274.19 97.01 
M 273.75 96.4 273.53 96.94 272.75 97.34 272.18 97.2 272.4 96.66 273.18 96.26 273.75 96.4 
M 282.14 97.71 281.62 97.97 280.77 97.74 280.44 97.26 280.96 97.01 281.82 97.23 282.14 97.71 
M 280.81 97.02 281.33 97.28 281.68 98.09 281.5 98.64 280.97 98.39 280.63 97.58 280.81 97.02 
M 246.61 92.15 246.1 92.42 245.24 92.23 244.89 91.76 245.41 91.49 246.26 91.68 246.61 92.15 
M 246.4 92.1 245.82 92.15 245.11 91.64 244.98 91.07 245.56 91.02 246.27 91.54 246.4 92.1 
M 268.22 90.6 268.11 91.17 267.41 91.71 266.83 91.67 266.94 91.1 267.64 90.57 268.22 90.6 
M 268.18 91.27 267.6 91.34 266.88 90.83 266.74 90.27 267.32 90.21 268.04 90.71 268.18 91.27 
M 263.49 138.9 263.05 139.27 262.17 139.27 261.73 138.88 262.17 138.51 263.05 138.51 263.49 138.9 
M 261.98 139.13 262.44 138.77 263.32 138.8 263.74 139.2 263.29 139.56 262.41 139.53 261.98 139.13 
M 238.52 93.43 239.07 93.62 239.51 94.39 239.4 94.96 238.85 94.76 238.41 94 238.52 93.43 
M 239.63 94.22 239.07 94.37 238.27 94 238.04 93.47 238.6 93.31 239.39 93.68 239.63 94.22 
M 281.31 86.14 280.92 86.57 280.05 86.67 279.57 86.35 279.96 85.92 280.83 85.81 281.31 86.14 
M 279.88 86.61 280.25 86.16 281.11 86.01 281.61 86.32 281.24 86.76 280.37 86.91 279.88 86.61 
M 272.42 86.68 272.85 86.28 273.73 86.26 274.18 86.62 273.75 87.02 272.87 87.04 272.42 86.68 
M 273.93 86.87 273.35 86.85 272.7 86.26 272.64 85.68 273.22 85.7 273.87 86.29 273.93 86.87 
M 278.04 118.4 278.61 118.27 279.39 118.69 279.6 119.23 279.03 119.36 278.25 118.95 278.04 118.4 
M 278.22 118.51 278.8 118.61 279.36 119.28 279.35 119.86 278.78 119.77 278.21 119.09 278.22 118.51 
M 277.94 144.68 277.36 144.63 276.76 143.98 276.74 143.4 277.32 143.46 277.92 144.1 277.94 144.68 
M 276.69 143.9 277.26 143.85 277.98 144.35 278.12 144.92 277.54 144.98 276.83 144.47 276.69 143.9 
M 280.4 125.17 280.62 125.71 280.33 126.54 279.82 126.83 279.61 126.29 279.9 125.46 280.4 125.17 
M 280.06 125.33 280.28 125.87 280 126.7 279.5 127 279.28 126.46 279.56 125.63 280.06 125.33 
M 283.43 132.6 283.99 132.77 284.46 133.51 284.38 134.09 283.82 133.92 283.35 133.18 283.43 132.6 
M 284.12 133.98 283.78 133.51 283.84 132.64 284.25 132.23 284.6 132.69 284.54 133.57 284.12 133.98 
M 284.79 118.03 285.2 117.62 286.07 117.54 286.54 117.88 286.14 118.3 285.26 118.37 284.79 118.03 
M 285.56 118.62 285.47 118.04 285.94 117.3 286.5 117.13 286.59 117.71 286.12 118.45 285.56 118.62 
M 285.93 125.42 286.25 124.93 287.09 124.68 287.62 124.93 287.3 125.41 286.46 125.66 285.93 125.42 
M 287.1 124.59 286.99 125.16 286.29 125.7 285.71 125.67 285.82 125.1 286.52 124.56 287.1 124.59 
M 287.46 141.74 287.96 142.03 288.26 142.86 288.04 143.4 287.54 143.11 287.24 142.28 287.46 141.74 
M 288.31 142.93 287.75 142.78 287.26 142.05 287.33 141.47 287.89 141.63 288.38 142.36 288.31 142.93 
M 269.57 78.98 269.42 79.54 268.7 80.04 268.12 79.97 268.27 79.41 268.99 78.92 269.57 78.98 
M 269.51 79.37 268.99 79.63 268.13 79.42 267.8 78.95 268.32 78.68 269.17 78.89 269.51 79.37 
M 262.66 84.74 263.08 84.34 263.96 84.3 264.42 84.66 263.99 85.06 263.12 85.1 262.66 84.74 
M 263.97 85.22 263.48 84.9 263.22 84.06 263.46 83.53 263.95 83.84 264.21 84.68 263.97 85.22 
M 283.98 78.88 284.17 79.43 283.83 80.24 283.31 80.5 283.13 79.95 283.46 79.14 283.98 78.88 
M 283.43 80.32 283.44 79.74 284.2 79.07 
M 284.1 80.14 283.43 80.32 
M 276.43 79.2 275.85 79.18 275.21 78.58 275.15 78 275.73 78.02 276.37 78.62 276.43 79.2 
M 276.08 79.2 275.68 78.78 275.64 77.9 276 77.45 276.4 77.87 276.44 78.75 276.08 79.2 
M 297.15 120.19 296.79 119.73 296.85 118.85 297.25 118.43 297.47 118.71 
M 297.6 119.09 297.56 119.77 297.15 120.19 
M 297.7 119.39 297.31 119.49 296.52 119.11 296.29 118.57 296.85 118.42 297.47 118.73 
M 298.45 129.34 298.14 129.83 297.29 130.07 296.76 129.83 297.08 129.34 297.93 129.1 298.45 129.34 
M 298.28 129.63 297.71 129.77 296.93 129.37 296.71 128.83 297.27 128.69 298.06 129.09 298.28 129.63 
M 291.19 130.45 291.33 131.01 290.94 131.8 290.4 132.02 290.26 131.46 290.65 130.67 291.19 130.45 
M 290.64 131.89 290.59 131.31 291.11 130.6 291.68 130.47 291.73 131.05 291.21 131.76 290.64 131.89 
M 280.02 72.48 280.14 73.05 279.71 73.82 279.16 74.02 279.05 73.45 279.48 72.68 280.02 72.48 
M 278.94 73.12 279.51 73.05 280.24 73.55 280.39 74.11 279.81 74.18 279.09 73.68 278.94 73.12 
M 286.96 87.89 287.36 87.61 
M 287.64 88.34 287.36 88.31 286.96 87.89 
M 287.37 88.46 287.56 88.07 
M 287.7 88.57 287.37 88.46 
M 297.47 141.2 297.03 141.57 296.15 141.56 295.71 141.17 296.16 140.8 297.04 140.81 297.47 141.2 
M 297.17 140.84 296.78 141.28 295.91 141.39 295.43 141.08 295.81 140.64 296.68 140.52 297.17 140.84 
M 279.24 136.9 279.51 137.41 279.31 138.27 278.84 138.61 278.57 138.1 278.77 137.24 279.24 136.9 
M 278.89 137.1 279.19 137.6 279.03 138.47 278.58 138.84 278.28 138.34 278.44 137.47 278.89 137.1 
M 305.14 140.34 304.99 140.9 304.26 141.39 303.68 141.32 303.83 140.76 304.57 140.27 305.14 140.34 
M 304.67 141.45 304.29 141.01 304.3 140.13 304.69 139.69 305.06 140.13 305.05 141.01 304.67 141.45 
M 288.57 100.14 288.23 99.66 288.33 98.79 288.75 98.39 289.08 98.87 288.99 99.74 288.57 100.14 
M 288.01 99.1 288.59 99.06 289.29 99.6 289.4 100.17 288.82 100.2 288.13 99.67 288.01 99.1 
M 263.09 67.57 263.65 67.7 264.17 68.42 264.12 69 263.55 68.86 263.04 68.15 263.09 67.57 
M 264.27 68.37 263.69 68.47 262.94 68.03 262.75 67.48 263.32 67.37 264.08 67.82 264.27 68.37 
M 270.84 70.62 270.67 70.06 271.02 69.26 271.55 69.01 271.72 69.57 271.36 70.37 270.84 70.62 
M 271.63 69.31 271.4 69.84 270.61 70.23 270.05 70.09 270.28 69.55 271.06 69.16 271.63 69.31 
M 286.38 105.78 286.84 105.44 287.72 105.5 288.13 105.91 287.66 106.26 286.79 106.2 286.38 105.78 
M 287.87 105.59 287.43 105.97 286.55 105.96 286.11 105.57 286.56 105.2 287.44 105.21 287.87 105.59 
M 278.75 55.55 278.47 56.06 277.65 56.38 277.11 56.18 277.38 55.67 278.2 55.35 278.75 55.55 
M 277.34 55.55 277.91 55.65 278.46 56.34 278.43 56.92 277.86 56.82 277.31 56.13 277.34 55.55 
M 274.32 61.02 273.93 61.45 273.06 61.58 272.57 61.26 272.96 60.82 273.83 60.7 274.32 61.02 
M 273.26 61.78 273.24 61.2 273.8 60.52 274.37 60.42 274.39 61 273.83 61.68 273.26 61.78 
M 278.28 66.58 277.83 66.95 276.95 66.92 276.52 66.53 276.97 66.16 277.85 66.19 278.28 66.58 
M 277.96 66.93 277.4 66.77 276.93 66.03 277.01 65.45 277.57 65.62 278.04 66.36 277.96 66.93 
M 303.39 151.25 303.76 150.79 304.63 150.64 305.13 150.94 304.76 151.39 303.89 151.54 303.39 151.25 
M 304.72 150.6 304.47 151.13 303.66 151.48 303.11 151.31 303.36 150.78 304.16 150.43 304.72 150.6 
M 316.11 140.47 315.53 140.41 314.92 139.78 314.89 139.2 315.47 139.25 316.08 139.88 316.11 140.47 
M 316.1 140.12 315.53 140.04 314.94 139.39 314.93 138.8 315.51 138.88 316.1 139.54 316.1 140.12 
M 302.3 125.39 301.97 125.33 302.04 125.12 
M 302.29 125.38 301.67 125.39 301.77 124.85 
M 257.3 83.28 256.82 83.61 255.95 83.53 255.55 83.11 256.02 82.77 256.89 82.86 257.3 83.28 
M 255.76 83.3 256.28 83.04 257.13 83.25 257.47 83.73 256.95 83.99 256.09 83.78 255.76 83.3 
M 246.07 84.08 246.38 83.59 247.22 83.33 247.75 83.57 247.44 84.06 246.6 84.32 246.07 84.08 
M 247.53 83.58 247.08 83.95 246.2 83.91 245.78 83.51 246.23 83.15 247.11 83.19 247.53 83.58 
M 256.59 64.82 257.08 64.51 257.95 64.64 258.33 65.08 257.84 65.39 256.97 65.26 256.59 64.82 
M 256.96 64.5 257.49 64.74 257.87 65.53 257.71 66.09 257.18 65.86 256.81 65.06 256.96 64.5 
M 259.11 72.6 259.19 73.18 258.72 73.92 258.17 74.09 258.08 73.52 258.55 72.77 259.11 72.6 
M 258.07 72.99 258.63 73.14 259.14 73.86 259.08 74.43 258.51 74.29 258.01 73.57 258.07 72.99 
M 268.59 162.47 269.01 162.87 269.1 163.74 268.76 164.22 268.34 163.82 268.26 162.94 268.59 162.47 
M 269.34 163.46 268.76 163.54 268.03 163.06 267.87 162.5 268.44 162.42 269.18 162.9 269.34 163.46 
M 253.91 73.76 253.33 73.66 252.78 72.97 252.81 72.39 253.38 72.49 253.93 73.18 253.91 73.76 
M 253.98 72.83 253.53 73.2 252.65 73.17 252.22 72.77 252.67 72.41 253.55 72.44 253.98 72.83 
M 266.32 61.78 266.54 61.24 267.33 60.85 267.89 60.99 267.67 61.53 266.88 61.92 266.32 61.78 
M 266.71 61.92 266.9 61.37 267.66 60.93 268.23 61.04 268.04 61.59 267.28 62.03 266.71 61.92 
M 286.68 156.83 286.68 157.41 286.09 158.07 285.52 158.15 285.52 157.57 286.1 156.91 286.68 156.83 
M 286.66 157.12 286.29 157.58 285.43 157.74 284.93 157.44 285.29 156.99 286.15 156.83 286.66 157.12 
M 293.5 157.71 293.36 157.15 293.76 156.36 294.29 156.14 294.44 156.71 294.04 157.49 293.5 157.71 
M 294.25 157.5 293.81 157.12 293.68 156.25 293.99 155.76 294.43 156.13 294.56 157 294.25 157.5 
M 281.43 162.55 281.95 162.29 282.81 162.51 283.14 162.99 282.62 163.25 281.77 163.03 281.43 162.55 
M 281.7 163.09 282.1 162.67 282.97 162.58 283.45 162.92 283.05 163.34 282.17 163.43 281.7 163.09 
M 300.9 163.98 300.39 163.71 300.08 162.89 300.28 162.34 300.79 162.62 301.1 163.44 300.9 163.98 
M 300.98 163.71 300.51 163.36 300.32 162.5 300.6 161.99 301.07 162.34 301.26 163.19 300.98 163.71 
M 324.24 136.14 324.54 135.65 325.38 135.38 325.91 135.61 325.61 136.11 324.77 136.37 324.24 136.14 
M 325.58 136.32 325.05 136.09 324.66 135.3 324.81 134.73 325.35 134.96 325.73 135.76 325.58 136.32 
M 245.7 157.66 246.22 157.39 247.07 157.6 247.41 158.08 246.89 158.34 246.04 158.13 245.7 157.66 
M 247.18 158.12 246.6 158.07 245.98 157.45 245.94 156.87 246.52 156.91 247.14 157.54 247.18 158.12 
M 312.9 160.24 312.42 160.57 311.55 160.46 311.16 160.02 311.64 159.7 312.52 159.81 312.9 160.24 
M 311.44 159.81 312.02 159.92 312.56 160.62 312.53 161.2 311.96 161.09 311.42 160.39 311.44 159.81 
M 334.17 132.16 334.62 132.53 334.75 133.4 334.45 133.89 334 133.52 333.86 132.65 334.17 132.16 
M 333.89 133.55 334.1 133.01 334.88 132.59 335.44 132.72 335.23 133.27 334.46 133.68 333.89 133.55 
M 232.15 122.31 232.28 121.79 233.01 121.29 233.59 121.35 233.44 121.91 232.72 122.41 232.21 122.36 
M 232.82 122.52 232.68 121.95 233.07 121.17 233.61 120.95 233.75 121.51 233.36 122.3 232.82 122.52 
M 230.9 112.34 230.43 112.69 229.55 112.61 229.15 112.19 229.62 111.85 230.49 111.93 230.9 112.34 
M 229.4 112.51 229.85 112.15 230.73 112.18 231.16 112.57 230.7 112.94 229.83 112.91 229.4 112.51 
M 243.84 108.36 243.95 107.79 244.63 107.25 245.22 107.27 245.11 107.84 244.42 108.39 243.84 108.36 
M 244.07 107.33 244.58 107.61 244.88 108.44 244.68 108.98 244.17 108.7 243.86 107.87 244.07 107.33 
M 231.62 106.7 231.08 106.47 230.81 105.91 
M 231.23 105.28 231.77 106.14 231.62 106.7 
M 230.78 106.4 231.03 105.87 231.83 105.51 232.38 105.67 232.14 106.2 231.34 106.56 230.78 106.4 
M 304.53 173.56 304.64 174.13 304.19 174.89 303.64 175.07 303.54 174.5 303.98 173.74 304.53 173.56 
M 304.22 174.97 303.94 174.46 304.12 173.6 304.59 173.25 304.87 173.76 304.68 174.62 304.22 174.97 
M 319.16 166.04 319.36 165.5 320.12 165.07 320.69 165.19 320.49 165.74 319.72 166.16 319.16 166.04 
M 320.47 165.22 320.12 165.69 319.27 165.89 318.75 165.62 319.09 165.15 319.95 164.95 320.47 165.22 
M 283.68 169.08 283.63 168.5 284.14 167.79 284.7 167.65 284.76 168.23 284.24 168.95 283.68 169.08 
M 284.66 168.84 284.15 168.57 283.82 167.76 284.02 167.21 284.53 167.48 284.85 168.29 284.66 168.84 
M 299.03 171.09 298.7 171.57 297.85 171.79 297.33 171.53 297.66 171.05 298.51 170.83 299.03 171.09 
M 297.54 171.14 298.12 171.11 298.81 171.65 298.93 172.22 298.35 172.25 297.65 171.71 297.54 171.14 
M 340.85 141.89 341.33 141.57 342.2 141.68 342.59 142.12 342.11 142.44 341.24 142.33 340.85 141.89 
M 342.16 141.5 341.93 142.03 341.14 142.42 340.58 142.27 340.81 141.73 341.6 141.35 342.16 141.5 
M 261.25 173.25 261.77 172.99 262.62 173.21 262.95 173.69 262.43 173.95 261.58 173.73 261.25 173.25 
M 261.46 173.67 261.94 173.34 262.81 173.42 263.21 173.84 262.74 174.18 261.86 174.09 261.46 173.67 
M 321.08 144.69 321.48 144.26 322.35 144.16 322.83 144.49 322.44 144.92 321.56 145.02 321.08 144.69 
M 322.52 144.96 321.96 144.8 321.47 144.07 321.54 143.5 322.1 143.65 322.59 144.38 322.52 144.96 
M 312.76 170.24 312.17 170.22 311.52 169.64 311.45 169.06 312.03 169.07 312.68 169.66 312.76 170.24 
M 312.65 170.03 312.09 169.86 311.63 169.11 311.72 168.54 312.28 168.71 312.74 169.46 312.65 170.03 
M 350.81 142.14 350.53 142.65 349.71 142.97 349.16 142.76 349.44 142.25 350.26 141.94 350.81 142.14 
M 349.92 141.79 350.15 142.32 349.88 143.16 349.38 143.46 349.16 142.93 349.43 142.09 349.92 141.79 
M 272.65 51.94 272.99 52.21 272.57 52.61 271.69 52.65 271.52 52.52 
M 272.28 52.9 271.99 52.25 
M 272.83 51.85 272.72 52.53 272.28 52.9 
M 252.89 169.13 252.33 169 251.8 168.3 251.85 167.72 252.41 167.84 252.94 168.55 252.89 169.13 
M 252.53 167.77 252.57 168.35 252.04 169.06 251.47 169.18 251.43 168.6 251.96 167.9 252.53 167.77 
M 355.55 137.62 355.85 138.11 355.7 138.98 355.25 139.35 354.95 138.85 355.1 137.98 355.55 137.62 
M 354.98 139.01 355.19 138.46 355.96 138.04 356.52 138.16 356.32 138.71 355.55 139.13 354.98 139.01 
M 343.85 149.28 344.38 149.03 345.23 149.26 345.55 149.74 345.03 149.99 344.18 149.76 343.85 149.28 
M 344.53 148.86 344.84 149.35 344.72 150.22 344.28 150.61 343.97 150.12 344.09 149.25 344.53 148.86 
M 328.72 163.07 328.84 162.5 329.54 161.96 330.12 161.99 330 162.56 329.3 163.1 328.72 163.07 
M 330.06 162.72 329.48 162.73 328.8 162.17 328.71 161.6 329.29 161.59 329.97 162.14 330.06 162.72 
M 336.23 172.19 336.8 172.1 337.55 172.56 337.72 173.11 337.15 173.21 336.4 172.74 336.23 172.19 
M 337.4 173.17 336.91 172.85 336.66 172.01 336.9 171.48 337.39 171.79 337.64 172.64 337.4 173.17 
M 282.56 50.82 282.18 50.85 281.72 50.49 282.13 50.09 283.01 50.04 
M 282.67 50.63 281.94 50.15 281.79 49.59 282.36 49.52 283.05 49.97 
M 276.99 150.81 276.41 150.85 275.71 150.31 275.59 149.74 276.17 149.71 276.87 150.24 276.99 150.81 
M 275.63 150.16 276.21 150.08 276.94 150.57 277.1 151.13 276.52 151.2 275.79 150.72 275.63 150.16 
M 253.86 162.58 253.28 162.54 252.65 161.92 252.61 161.34 253.19 161.38 253.81 162 253.86 162.58 
M 253.01 162.59 253.03 162.01 253.63 161.37 254.2 161.31 254.18 161.89 253.59 162.53 253.01 162.59 
M 320.7 159.86 320.67 159.28 321.22 158.59 321.79 158.49 321.82 159.07 321.27 159.76 320.7 159.86 
M 320.68 159.53 321.05 159.09 321.92 158.95 322.42 159.25 322.04 159.7 321.18 159.84 320.68 159.53 
M 321.5 149.19 321.67 149.75 321.32 150.55 320.79 150.8 320.62 150.25 320.97 149.44 321.5 149.19 
M 320.48 149.88 321.06 149.8 321.8 150.28 321.96 150.84 321.38 150.92 320.64 150.44 320.48 149.88 
M 331.65 149.41 331.43 149.94 330.64 150.33 330.07 150.18 330.3 149.65 331.09 149.26 331.65 149.41 
M 330.47 150.34 330.65 149.79 331.4 149.33 331.98 149.43 331.8 149.99 331.04 150.44 330.47 150.34 
M 334.33 158.65 333.81 158.39 333.46 157.58 333.64 157.03 334.16 157.29 334.51 158.09 334.33 158.65 
M 334.65 157.81 334.11 158.01 333.28 157.7 333.01 157.19 333.55 156.99 334.38 157.3 334.65 157.81 
M 374.46 146.65 375.04 146.74 375.61 147.4 375.61 147.98 375.04 147.9 374.46 147.23 374.46 146.65 
M 374.62 146.8 375.1 147.12 375.34 147.96 375.09 148.49 374.61 148.17 374.37 147.32 374.62 146.8 
M 344.53 171.42 343.96 171.3 343.43 170.6 343.47 170.02 344.04 170.14 344.57 170.84 344.53 171.42 
M 344.17 171.37 343.86 170.88 343.98 170.01 344.42 169.63 344.73 170.12 344.61 170.99 344.17 171.37 
M 286.45 111.78 286.93 112.12 287.13 112.97 286.86 113.49 286.39 113.15 286.19 112.3 286.45 111.78 
M 286.99 112.05 286.87 112.62 286.17 113.15 285.59 113.12 285.71 112.55 286.41 112.02 286.99 112.05 
M 384.41 147.08 384.32 146.5 384.78 145.76 385.34 145.59 385.43 146.16 384.96 146.91 384.41 147.08 
M 385.24 145.78 385.08 146.33 384.35 146.81 383.77 146.74 383.93 146.18 384.67 145.7 385.24 145.78 
M 362.87 149.73 362.32 149.9 361.51 149.55 361.27 149.02 361.82 148.85 362.63 149.21 362.87 149.73 
M 362.39 149.96 361.97 149.56 361.88 148.69 362.22 148.21 362.64 148.61 362.73 149.49 362.39 149.96 
M 383.78 157.12 384.34 156.94 385.14 157.29 385.4 157.82 384.84 157.99 384.03 157.64 383.78 157.12 
M 384.12 157.95 384.38 157.43 385.19 157.09 385.74 157.27 385.49 157.79 384.67 158.13 384.12 157.95 
M 392 151.04 391.56 151.42 390.68 151.42 390.24 151.04 390.68 150.66 391.56 150.66 392 151.04 
M 391.72 151.35 391.14 151.25 390.59 150.57 390.6 149.99 391.18 150.09 391.73 150.77 391.72 151.35 
M 390.43 165.69 390.52 166.27 390.05 167.01 389.5 167.19 389.41 166.61 389.87 165.87 390.43 165.69 
M 389.43 166.04 389.98 166.23 390.41 166.99 390.3 167.56 389.75 167.37 389.32 166.61 389.43 166.04 
M 402.69 158.05 403.09 157.62 403.96 157.53 404.44 157.86 404.04 158.28 403.17 158.38 402.69 158.05 
M 403.98 158.48 403.5 158.15 403.27 157.3 403.53 156.78 404.01 157.11 404.23 157.96 403.98 158.48 
M 388.01 140.98 388.31 140.83 
M 389.56 141.16 389.72 141.38 389.21 141.65 388.35 141.46 388.01 140.98 
M 389.04 141.02 388.65 141.86 388.11 142.08 387.97 141.51 388.32 140.83 
M 394.68 165.75 395.25 165.6 396.04 165.98 396.27 166.52 395.7 166.67 394.91 166.28 394.68 165.75 
M 395.45 166.8 395.29 166.24 395.67 165.45 396.2 165.21 396.36 165.77 395.98 166.57 395.45 166.8 
"/></svg>