<svg xmlns="http://www.w3.org/2000/svg" width="520" height="320"><rect x="0" y="0" width="520" height="320" fill="floralwhite"/><rect x="10" y="10" width="500" height="300" stroke="black" stroke-width="1" fill="none"/><path stroke="black" stroke-width="1" fill="none" stroke-linecap="round" stroke-linejoin="round" d="
M 153.24 134.67 163.02 132.72 172.77 131.53 192.25 130.27 211.74 128.43 221.48 127.76 240.97 127.25 270.2 127.34 289.69 127.19 299.43 127.6 318.92 128.83 328.66 129.54 338.4 130.61 377.38 135.66 387.12 137.52 396.86 140.2 397.83 140.83 
M 397.83 189.65 396.86 190.19 387.12 192.34 377.38 193.86 357.89 195.88 328.66 199.56 318.92 200.16 309.17 200.49 289.69 200.82 270.2 200.72 240.97 201.94 231.23 201.99 221.48 201.57 211.74 200.65 202 199.35 182.51 196.14 172.77 194.71 163.03 193.78 
M 397.83 153.46 392.22 151.64 384.75 149.78 380.95 149 373.06 147.69 364.91 146.84 356.79 146.32 345.05 145.87 329.67 146.39 320.22 146.25 
M 316.37 146.04 302.78 145.1 288.28 144.54 284.85 144.55 278.02 144.92 264.38 146.71 259.2 147.16 
M 255.69 147.33 241.93 147.87 
M 227.93 148 209.07 147.81 
M 193.17 147.94 181.45 147.25 
M 177.44 147.1 173.38 147.11 
M 168.11 161.47 169.84 164.17 
M 157.55 133.81 171.94 157.45 
M 174.72 161.83 175.1 162.42 
M 162.67 132.79 169.39 142.57 180.36 160.68 
M 168.45 132.06 173.34 138.45 175.96 142.36 185.93 159.55 
M 174.63 131.4 177.2 134.55 179.9 138.25 182.46 142.32 191.18 157.93 
M 180.9 130.97 183.64 134.48 186.25 138.34 188.75 142.46 194.84 153.48 
M 197.44 157.92 197.56 158.1 
M 186.76 130.6 189.86 134.62 193.76 140.43 
M 198.67 148.94 202.7 156.03 
M 192.54 130.24 196.08 134.64 198.78 138.35 201.35 142.35 208.28 154.25 
M 198.21 129.71 202.36 134.66 205.13 138.32 207.78 142.29 214.03 152.42 
M 242.85 192.13 244.11 193.48 
M 203.83 129.18 208.72 134.79 211.54 138.44 219.67 150.63 
M 247.8 190.56 250.14 193.06 
M 209.35 128.66 212.16 131.77 214.92 135.2 220.33 142.83 225.02 148.93 
M 214.5 128.24 218.1 132.47 226.36 143.28 229.92 147.36 
M 249.93 176.81 250.94 178.4 
M 253.55 182.26 254.9 184.14 259.08 189.05 
M 261.87 191.8 264.68 194.15 
M 219.38 127.9 229.3 140.01 234.17 145.28 
M 254.33 174.42 257.97 180.13 262.07 185.38 
M 264.95 188.52 267.84 191.25 
M 270.73 193.56 273.59 195.46 
M 224.31 127.66 232.48 136.83 242.05 147.01 244.54 149.99 
M 255.35 166.39 259.99 174.28 
M 262.43 177.98 266.52 183.4 267.99 185.05 
M 279.41 194.8 282.02 196.24 
M 229.62 127.47 238.73 136.6 244.89 143.07 248.14 146.89 251.34 151.15 255.79 157.9 
M 258.49 162.26 265.55 173.98 
M 268.16 177.72 270.99 181.37 
M 273.89 184.75 275.34 186.34 279.56 190.2 
M 235.63 127.34 239.52 130.76 244.98 136.03 247.91 139.14 250.95 142.71 254.04 146.79 257.09 151.22 262.62 159.96 267.22 167.73 271.02 173.52 
M 273.84 177.37 276.73 181.01 
M 282.29 187.06 287.6 191.68 
M 242.22 127.24 245.71 130.13 248.36 132.6 251.09 135.41 253.89 138.69 256.77 142.49 262.59 151 272.25 166.9 274.97 170.93 279.36 176.82 
M 282.23 180.39 286.44 185.11 290.48 189.03 
M 249.15 127.2 251.76 129.45 254.34 132.01 259.66 138.42 265.28 146.26 268.97 152.34 
M 271.23 156.26 274.74 162.05 277.44 166.12 280.37 170.28 284.88 176.22 
M 287.87 179.84 290.76 183.13 
M 296.09 188.77 298.48 191.17 
M 255.8 127.24 256.71 128.09 
M 258.88 130.26 262.83 134.6 265.58 138 268.29 141.72 270.78 145.61 275.17 153.46 278.78 159.38 
M 281.49 163.49 285.91 169.84 289.06 173.93 299.3 185.92 
M 304.11 191.15 306.43 193.33 
M 262.24 127.29 266.12 131.07 268.84 134.08 271.54 137.48 274.03 141.14 277.33 146.93 
M 279.49 150.9 282.95 156.98 285.56 161.14 290.05 167.55 
M 293.28 171.69 296.55 175.63 
M 299.66 179.31 308.6 190.06 312.14 193.53 
M 268.75 127.33 272.07 130.5 274.77 133.54 277.32 136.97 278.48 138.81 
M 282.84 146.55 284.98 150.66 
M 287.27 154.86 291.14 161.18 294.19 165.43 302.5 175.52 
M 305.52 179.24 308.21 182.74 
M 275.06 127.26 276.5 128.67 
M 279.13 131.55 280.42 133.09 282.87 136.59 285.13 140.35 291.68 152.85 294.16 157.1 296.95 161.25 298.54 163.33 
M 305.18 171.54 309.84 177.47 314.93 184.59 318.61 189.07 
M 281.01 127.18 283.38 129.65 285.92 132.82 288.35 136.39 290.66 140.25 297.53 152.95 300.13 157.12 301.6 159.16 
M 304.72 163.29 308.02 167.47 
M 319.22 183.03 323.07 187.82 324.41 189.18 
M 286.85 127.18 290.16 131.05 
M 292.69 134.51 293.95 136.32 297.56 142.31 
M 299.95 146.51 303.71 152.92 306.56 157.13 311.28 163.39 
M 314.39 167.6 322.41 179.57 
M 325.01 183.1 327.67 186.23 
M 330.33 188.92 331.65 190.15 335.59 193.2 
M 292.79 127.32 297.16 132.62 299.81 136.25 303.62 142.27 
M 306.17 146.53 310.34 153.05 316.48 161.45 320.73 167.74 
M 323.3 171.85 327.05 177.71 330.91 182.69 
M 299.01 127.58 303.15 132.52 307.1 138.26 
M 312.52 146.73 323.02 161.57 328.05 169.77 331.69 175.34 
M 334.17 178.66 336.7 181.66 
M 341.85 187.04 347.06 191.72 
M 305.34 127.95 308.99 132.63 315.77 142.65 
M 318.81 146.93 326.42 157.48 332.67 167.36 
M 311.22 128.32 327.99 151.15 
M 330.88 155.23 335.98 163.01 
M 340.8 170.18 348.27 179.93 
M 317.02 128.7 333.9 150.8 
M 336.64 154.8 345.4 167.9 354.25 179.86 
M 359.55 186.15 360.9 187.61 364.68 191.14 
M 323.2 129.14 332.5 140.33 335.6 144.28 338.5 148.3 345.01 158.3 
M 347.59 162.17 350.14 165.91 
M 352.68 169.55 355.23 173.13 
M 357.81 176.69 360.41 180.15 
M 330.22 129.71 335.97 136.1 339.05 139.87 341.93 143.82 351.09 158.17 
M 353.72 162.1 356.32 165.91 
M 358.9 169.69 361.48 173.46 
M 364.05 177.14 369.21 183.97 
M 338.12 130.58 342.67 135.69 345.55 139.52 356.02 156.05 362.63 166.05 
M 365.21 170.03 367.76 173.95 
M 372.8 181.25 375.33 184.57 
M 346.03 131.61 349.12 135.5 351.87 139.45 363.74 158.05 
M 366.38 162.2 368.97 166.38 
M 371.5 170.52 375.23 176.48 378.94 181.88 
M 381.44 185.22 383.96 188.31 
M 353.17 132.56 355.55 135.61 361.1 143.69 368.86 156.12 375.27 166.91 
M 360.28 133.47 365.07 139.93 367.74 143.98 374.03 154.42 
M 376.54 158.8 381.45 167.61 
M 391.16 183.21 393.54 186.48 
M 367.36 134.32 371.78 140.37 375.59 146.49 
M 377.99 150.72 387.54 168.4 
M 392.41 176.59 397.14 183.81 
M 374.45 135.27 377.02 138.9 
M 379.57 142.96 383.08 149.28 386.5 155.87 
M 388.82 160.36 392.36 167.03 397.83 176.31 
M 381.36 136.42 384.6 141.6 388.06 147.94 
M 390.32 152.27 394.89 161.14 
M 387.94 137.74 390.69 142.37 394.18 148.71 
M 394.86 139.65 397.83 144.66 
M 154.68 134.38 154.02 135.2 
M 161.49 133.03 157.64 138.07 
M 168.07 132.1 160.43 142.11 
M 174.82 131.39 169.04 138.65 163.56 145.98 
M 181.51 130.93 172.43 142.46 166.19 150.87 
M 188.18 130.51 175.78 146.58 168.12 157.21 
M 194.92 130.02 191.24 134.63 185.39 142.4 174.45 157.49 
M 201.93 129.36 200.2 131.25 194.64 138.4 183.94 153.33 
M 180.94 157.66 178.55 161.15 
M 209.19 128.67 206.5 131.44 203.77 134.67 200.95 138.33 194.85 146.76 190.25 153.47 
M 187.32 157.86 186.24 159.5 
M 216.74 128.09 215.35 129.26 212.78 131.83 210.14 134.84 202.75 144.48 
M 199.6 148.92 192.9 159.03 
M 174.71 186.59 174.62 186.72 
M 224.3 127.66 221.21 130.11 218.69 132.55 216.23 135.34 209.21 144.43 
M 206.02 148.8 200.65 156.69 
M 179.92 188.52 178.55 190.41 
M 231.36 127.41 227.07 130.83 224.43 133.33 221.99 136.07 218.35 140.86 
M 215.63 144.57 209.42 153.19 
M 237.54 127.31 233.17 131.06 230.35 133.79 227.76 136.67 224.27 141.4 
M 221.89 144.89 217.45 151.34 
M 190.36 192.89 190.02 193.27 
M 243.18 127.24 239.4 130.77 236.57 133.71 233.87 136.82 231.39 140.07 225.99 148.62 
M 248.52 127.2 242.82 133.21 240.13 136.49 237.62 139.95 233.84 146.12 
M 253.8 127.22 248.98 132.53 246.36 135.89 242.72 141.38 
M 240.54 145.15 239.95 146.22 
M 259.08 127.27 254.93 131.97 252.42 135.3 249.99 138.96 247.73 142.9 244.23 149.74 
M 264.38 127.3 260.76 131.54 258.23 134.93 255.88 138.59 253.69 142.58 250.61 148.97 
M 248.58 153.21 248.49 153.39 
M 269.71 127.34 266.72 131.01 264.16 134.49 261.68 138.29 259.42 142.4 252.63 157.09 
M 275.12 127.26 270.18 133.95 267.63 137.83 265.19 142 262.98 146.47 259.05 155.74 256.91 160.14 253.23 166.34 
M 280.48 127.17 276.06 133.43 270.97 141.45 268.5 145.89 266.3 150.57 262.35 159.99 260.14 164.37 256.28 170.48 
M 240.9 193.64 238.49 196.78 
M 285.73 127.18 281.65 133.02 273.99 145.22 272.74 147.49 
M 270.38 152.13 266.29 161.55 
M 264.18 166.05 263.06 168.24 259.25 174.32 
M 249.68 189.49 247 193.34 
M 291.03 127.25 287.14 132.78 279.5 144.67 275.53 151.32 
M 273.18 155.91 271.11 160.59 
M 267.08 169.77 265.99 171.95 262.35 177.98 
M 259.94 181.89 257.64 185.76 
M 255.34 189.45 252.97 192.84 
M 296.42 127.47 292.69 132.68 290.25 136.36 282.27 148.63 279.64 152.97 277.2 157.4 275.1 161.99 271.31 171.38 270.26 173.54 
M 268.06 177.7 263.43 185.31 
M 302.05 127.76 298.47 132.6 293.27 140.24 287.78 148.54 283.89 154.88 
M 281.56 159.17 280.46 161.36 278.47 165.99 274.78 175.27 273.76 177.35 
M 271.62 181.34 269.37 185.01 
M 267.05 188.4 264.68 191.54 
M 307.71 128.09 304.47 132.53 296.27 144.38 290.7 152.83 288.18 156.96 285.94 161.14 283.94 165.54 281.15 172.39 
M 279.31 176.83 278.38 178.99 276.33 182.91 275.24 184.67 
M 270.69 191.05 268.28 193.81 
M 313.31 128.45 310.25 132.68 299.35 148.66 295.17 155.02 
M 292.69 159.14 291.53 161.19 289.53 165.42 285.8 174.13 282.85 180.32 
M 318.87 128.82 315.93 132.92 307.04 146.56 
M 304.1 150.79 299.81 157.12 297.36 161.25 289.59 177.89 287.46 181.71 284.23 186.82 
M 280.05 192.6 277.8 195.01 
M 324.42 129.23 321.7 133.02 319.31 136.73 314.68 144.69 312.06 148.84 304.86 159.16 
M 302.39 163.29 300.32 167.48 
M 298.43 171.62 295.5 177.61 293.3 181.33 290.98 184.76 287.61 189.25 
M 330.16 129.71 327.8 132.85 325.24 136.7 321.88 142.79 
M 319.66 146.95 315.93 153.21 310.14 161.29 307.58 165.39 301.45 177.47 300.34 179.3 
M 295.59 186.01 293.17 188.88 
M 336.01 130.34 331.6 136.39 329.07 140.53 322.45 153.33 319.83 157.44 314.13 165.53 312.87 167.56 
M 308.34 175.51 306.19 179.24 
M 301.37 185.88 298.81 188.71 
M 296.28 191.21 293.88 193.4 
M 341.87 131.06 338.28 135.94 335.53 140.12 333 144.47 328.49 153.26 326.11 157.48 319.21 167.71 
M 316.54 171.74 314.1 175.63 
M 311.82 179.33 309.51 182.76 
M 304.49 188.67 301.84 191.14 
M 347.64 131.83 342.08 139.68 339.3 144 336.72 148.45 331.96 157.25 326.74 165.7 316.16 181.27 312.59 186.02 
M 307.48 191.2 304.82 193.3 
M 353.51 132.6 348.49 139.45 342.79 147.99 332.57 165.37 327.12 173.84 323.08 179.57 
M 318.1 186.2 314.4 190.27 313.11 191.39 
M 359.71 133.4 354.87 139.49 348.95 147.77 346.09 152.06 336.96 166.9 
M 334.31 171.16 330.31 177.45 326.39 183.07 
M 323.84 186.31 320.08 190.46 318.82 191.6 
M 366.18 134.18 361.47 139.74 355.27 147.72 349.44 156.17 340.06 170.31 
M 337.42 174.44 331.02 184.39 328.5 187.72 327.23 189.12 
M 322.13 193.87 319.56 195.66 
M 372.63 135.02 364.98 143.84 361.77 147.76 358.65 151.87 348.63 165.94 
M 345.89 169.69 343.21 173.53 
M 340.6 177.46 335.56 185.15 
M 333.1 188.54 331.86 190.13 329.36 192.77 328.09 193.84 
M 378.9 135.95 368.35 147.97 365.13 151.9 354.77 165.88 
M 351.9 169.54 347.73 174.88 343.81 180.36 
M 341.3 184.04 338.85 187.55 
M 384.8 137.07 371.65 152.17 361.05 165.97 
M 358.09 169.64 352.36 176.52 
M 390.41 138.42 376.52 154.65 
M 373.44 158.5 364.4 169.96 
M 355.68 179.91 352.97 183.06 
M 350.38 186.16 347.89 189.14 
M 395.93 139.94 384.29 153.5 370.7 170.44 
M 367.72 173.94 353.76 188.84 
M 397.83 145.65 390.4 154.31 382.88 163.72 
M 379.91 167.43 376.93 171.05 
M 373.95 174.52 369.52 179.34 365.24 183.63 
M 397.83 153.53 384.56 170.02 381.62 173.51 377.17 178.39 
M 397.83 161.68 392.07 168.98 
M 389.19 172.52 384.81 177.54 381.85 180.61 374.72 187.35 
M 397.83 170 395.24 173.22 
M 392.36 176.6 387.98 181.29 383.61 185.45 
M 380.79 187.98 378.29 190.08 
M 397.83 177.84 394.03 181.93 391.11 184.78 385.42 189.83 
M 397.83 184.64 395.66 186.69 
M 180.77 130.71 182.52 130.86 
M 195.25 129.67 202.31 64.14 203.27 64.23 198.75 129.66 
M 209.71 128.27 220.11 44.49 221.07 44.6 213.2 128.33 
M 224.21 127.32 239.77 37.85 240.73 38.01 227.7 127.54 
M 238.74 126.91 259.77 30.2 260.72 30.39 242.22 127.25 
M 253.27 126.83 276.05 35.48 277 35.7 256.75 127.25 
M 267.79 126.92 290.58 39.56 291.52 39.79 271.27 127.32 
M 282.32 126.72 309.9 30 310.84 30.25 285.8 127.18 
M 296.86 127.02 323.21 50.23 324.13 50.53 300.31 127.66 
M 311.37 127.83 333.65 70.72 334.56 71.06 314.8 128.55 
M 325.87 128.8 343.47 89.13 344.36 89.5 329.29 129.61 
M 336.81 129.9 338.41 130.61 
M 183.15 130.82 188.41 117.89 190.88 111.33 193.15 104.71 195.21 98.01 197.04 91.26 198.68 84.44 201.6 70.69 
M 202.82 70.8 207.35 67.65 209.48 65.95 211.45 64.11 213.26 62.12 214.89 59.97 216.38 57.69 219.07 52.87 
M 220.28 53 224.67 52.8 228.87 52.05 230.87 51.36 232.79 50.45 234.64 49.36 238.22 46.8 
M 239.42 46.99 243.93 46.57 248.22 45.6 250.25 44.81 252.2 43.81 254.07 42.61 257.67 39.87 
M 258.86 40.11 261.82 42.31 264.94 43.94 266.6 44.44 268.32 44.72 270.1 44.81 273.78 44.62 
M 274.96 44.9 277.62 46.86 280.42 48.26 281.9 48.63 283.44 48.79 285.03 48.75 288.3 48.3 
M 289.49 48.59 293.97 47.72 296.13 47.11 298.19 46.33 300.16 45.33 303.78 42.76 307.15 39.67 
M 308.32 39.99 310.02 44.67 311.02 46.91 312.19 49.03 313.55 51.02 315.1 52.88 316.82 54.63 320.57 57.91 
M 321.73 58.29 322.79 62.91 323.48 65.13 324.36 67.25 325.43 69.27 326.71 71.18 328.17 72.99 331.42 76.43 
M 332.57 76.85 333.51 81.07 334.15 83.09 334.97 85.01 335.98 86.81 338.59 90.1 341.71 93.1 
M 342.83 93.56 340.49 101.57 339.51 105.6 338.73 109.66 338.17 113.75 337.85 117.87 337.72 122.01 337.85 130.36 
M 205.11 69.25 209.48 65.95 211.45 64.11 213.26 62.12 214.89 59.97 217.75 55.31 
M 205.01 76.24 208.86 73.32 210.61 71.7 212.2 69.94 213.65 68.04 216.17 63.92 
M 204.9 83.23 208.25 80.69 209.76 79.29 212.4 76.11 214.59 72.54 
M 204.8 90.21 207.63 88.07 208.92 86.87 211.16 84.18 213.01 81.15 
M 204.69 97.2 208.08 94.46 209.91 92.25 211.44 89.76 
M 204.59 104.19 207.23 102.05 208.66 100.32 209.86 98.38 
M 222.49 52.94 226.81 52.52 228.87 52.05 230.87 51.36 232.79 50.45 236.44 48.12 
M 222.16 59.51 226.1 59.13 227.98 58.7 229.8 58.07 231.55 57.24 234.89 55.11 
M 221.82 66.08 225.39 65.73 227.09 65.34 230.32 64.03 233.33 62.1 
M 221.49 72.65 224.68 72.34 226.2 71.99 229.09 70.82 231.78 69.09 
M 221.16 79.22 223.97 78.95 225.31 78.64 227.85 77.6 230.23 76.09 
M 220.83 85.79 223.25 85.56 224.42 85.29 226.62 84.39 228.67 83.08 
M 220.49 92.36 222.54 92.16 224.47 91.61 227.12 90.07 
M 220.16 98.93 222.64 98.59 224.15 97.97 225.57 97.06 
M 241.69 46.82 246.11 46.18 248.22 45.6 250.25 44.81 252.2 43.81 255.88 41.28 
M 241.03 53.09 245.11 52.5 247.05 51.97 248.92 51.24 250.72 50.31 254.12 47.98 
M 240.37 59.36 244.1 58.82 247.6 57.66 249.24 56.81 252.35 54.68 
M 239.71 65.63 243.1 65.14 244.72 64.7 247.76 63.32 250.59 61.38 
M 239.05 71.9 242.09 71.46 244.94 70.52 246.28 69.82 248.82 68.08 
M 238.38 78.17 241.09 77.78 242.38 77.42 244.8 76.33 247.06 74.78 
M 237.72 84.44 241.21 83.79 243.33 82.83 245.29 81.48 
M 237.06 90.71 240.04 90.15 241.85 89.33 243.53 88.18 
M 236.4 96.98 238.87 96.52 240.37 95.84 241.76 94.88 
M 260.33 41.25 263.35 43.22 264.94 43.94 266.6 44.44 268.32 44.72 271.93 44.75 
M 259.35 47.94 262.13 49.76 263.6 50.42 265.13 50.88 266.72 51.14 270.04 51.17 
M 258.36 54.63 260.92 56.29 262.26 56.9 265.11 57.56 268.16 57.58 
M 257.38 61.31 259.7 62.83 262.19 63.76 263.51 63.98 266.28 64 
M 256.4 68 258.48 69.36 259.58 69.86 261.91 70.4 264.39 70.42 
M 255.42 74.69 257.27 75.9 258.24 76.34 260.3 76.81 262.51 76.83 
M 254.44 81.38 256.9 82.82 258.7 83.23 260.62 83.25 
M 253.46 88.07 255.56 89.3 257.1 89.65 258.74 89.66 
M 252.47 94.76 254.22 95.77 255.49 96.07 256.86 96.08 
M 276.28 45.92 278.99 47.66 280.42 48.26 281.9 48.63 283.44 48.79 286.66 48.56 
M 275.19 52.25 277.69 53.85 279.01 54.4 280.37 54.75 281.79 54.89 284.76 54.68 
M 274.09 58.57 276.39 60.04 277.59 60.55 280.14 61 282.86 60.81 
M 273 64.9 275.08 66.23 276.17 66.7 278.49 67.1 280.96 66.93 
M 271.91 71.23 273.78 72.43 274.76 72.84 276.84 73.21 279.06 73.05 
M 270.81 77.56 272.47 78.62 273.34 78.99 275.19 79.31 277.16 79.18 
M 269.72 83.89 271.17 84.81 272.72 85.34 275.25 85.3 
M 268.63 90.22 270.51 91.28 271.89 91.52 273.35 91.42 
M 267.53 96.54 269.1 97.43 270.24 97.63 271.45 97.54 
M 291.75 48.19 296.13 47.11 298.19 46.33 300.16 45.33 302.02 44.14 305.48 41.25 
M 290.58 54.34 294.62 53.35 296.53 52.62 298.34 51.71 300.05 50.6 303.25 47.94 
M 289.41 60.49 293.11 59.58 296.51 58.08 298.08 57.07 301.01 54.63 
M 288.25 66.64 291.61 65.81 294.69 64.45 296.12 63.53 298.78 61.32 
M 287.08 72.79 290.1 72.05 291.52 71.5 294.15 70 296.54 68.01 
M 285.91 78.94 288.59 78.28 291.05 77.19 292.19 76.46 294.31 74.7 
M 284.74 85.09 288.18 84.09 290.22 82.93 292.07 81.39 
M 283.58 91.24 285.57 90.75 287.41 89.94 289.83 88.08 
M 282.41 97.39 284.07 96.98 285.59 96.31 287.6 94.77 
M 309.14 42.35 311.02 46.91 312.19 49.03 313.55 51.02 315.1 52.88 318.66 56.29 
M 307.57 49.79 309.29 53.95 310.36 55.88 311.6 57.7 313.02 59.4 316.27 62.51 
M 306.01 57.23 307.56 60.99 308.53 62.74 310.93 65.92 313.87 68.73 
M 304.44 64.67 305.83 68.03 306.7 69.59 308.84 72.44 311.47 74.95 
M 302.88 72.11 304.1 75.07 304.86 76.45 306.76 78.95 309.07 81.17 
M 301.31 79.55 302.37 82.11 303.8 84.42 304.67 85.47 306.67 87.39 
M 299.75 86.99 301.2 90.16 302.58 91.99 304.27 93.61 
M 298.18 94.43 298.91 96.19 299.9 97.79 301.88 99.83 
M 322.22 60.62 323.48 65.13 324.36 67.25 325.43 69.27 326.71 71.18 329.76 74.73 
M 320.3 68.48 321.42 72.46 322.19 74.34 323.14 76.12 324.27 77.81 326.96 80.94 
M 318.38 76.34 319.35 79.8 320.84 82.97 321.82 84.43 324.16 87.16 
M 316.46 84.2 317.28 87.13 317.85 88.51 319.38 91.06 321.36 93.37 
M 314.54 92.06 315.21 94.47 316.25 96.68 318.56 99.59 
M 312.62 99.92 313.51 102.69 314.49 104.32 315.76 105.8 
M 333.01 78.98 334.15 83.09 334.97 85.01 335.98 86.81 337.2 88.5 340.11 91.62 
M 330.77 87.73 331.72 91.11 333.23 94.19 334.23 95.58 336.64 98.15 
M 328.54 96.47 329.28 99.14 329.81 100.39 331.26 102.66 333.16 104.68 
M 326.31 105.21 326.85 107.16 327.72 108.93 329.68 111.21 
M 168.27 164.3 169.65 164.22 173.05 163.25 179.45 160.84 184.43 159.78 187.21 159.35 189.74 158.62 192.36 159.07 196.47 158.79 198.92 157.24 238.2 144.73 247.12 152.17 255.48 159.55 255.31 162.69 253.81 165.13 252.09 167.36 251.93 170.72 250.31 172.4 249.8 175.19 250.1 178.8 251.55 182.25 253.61 186.2 253.99 188.47 250.42 189 248.19 190.45 245.31 191.26 242.6 192.22 240.58 193.89 236.61 193.6 233.76 194.43 231.58 196.16 226.24 198.76 200.64 196.65 197.11 195.91 194.95 194.71 191.94 193.97 188.99 191.94 186.4 190.74 177.41 187.73 173.73 186.17 169.72 184.89 167.37 183.58 
M 168.23 165.98 172.58 165.8 181.1 163.08 183.4 162.15 186.25 161.76 189.54 160.89 192.47 161.28 194.27 161.27 197.56 159.7 200.35 157.57 203.72 156.03 210.89 153.71 
M 168.08 168.09 172.98 168.08 175.65 167.86 179.05 167.1 181.4 166.09 186.85 164.32 190.25 164.25 193.2 164.87 195.83 165.03 198.15 163.56 201.21 162.37 204.59 160.7 206.83 159.93 209.27 159.92 
M 167.7 170.35 173.03 170.48 178.75 170.01 181.53 168.89 184.22 168.22 187.45 167.8 191.2 168.48 194.85 168.45 198.22 168.15 200.7 167.07 206.31 165.38 208.64 164.34 214.6 164.32 217.2 164.01 220.06 164.87 224.05 164.86 227.5 164.39 
M 169.61 172.63 172.55 172.85 175.6 172.69 184.52 171.47 188.24 171.41 191.75 172.09 195.51 172.46 198.54 172.5 201.22 171.77 206.57 170.91 209.77 170.16 215.69 172.07 218.45 171.63 
M 167.1 174.31 169.66 174.83 172.4 175.16 181.78 175.44 184.75 175.77 188.35 175.46 191.53 175.99 195.57 176.97 198.26 177.08 199.97 176.48 201.61 176.36 204.64 176.58 208.19 176.36 213.58 176.53 220.88 178.88 225.59 178.77 229.28 178.9 
M 167.34 176.44 174.94 178.07 178.54 178.33 194.9 180.64 198.19 180.84 200.68 181.24 202.91 181 205.41 181.21 208.16 181.74 210.66 182.02 213.06 183.17 216.52 184.06 220.65 184.29 225.93 185.18 229.69 186.34 231.33 187.03 234.11 186.76 
M 167.37 178.51 169.66 179.14 172.33 180.43 179.15 181.31 185.54 183.13 195.13 184.81 201.23 186.7 204.07 187.81 206.88 188.29 209.44 189.31 211.49 189.33 
M 167.33 180.96 169.04 181.85 172.71 182.59 175.72 184.03 179.2 184.82 185.67 185.92 188.89 187.01 190.76 189.27 194.28 190.24 197.76 190.84 200.4 191.5 
M 222.64 200.27 252.03 227.88 251.39 228.61 220.33 202.88 
M 220.87 200.25 221.73 201.29 
M 228.86 209.95 251.65 237.6 250.91 238.23 218.24 202.53 
M 219.08 200.25 219.71 201.25 
M 225.47 210.43 249.09 248.07 248.28 248.6 216.17 202.17 
M 217.27 200.27 217.69 201.17 
M 222.04 210.64 244.19 258.9 243.32 259.32 214.13 201.78 
M 215.43 200.3 215.66 201.05 
M 218.63 210.65 236.88 269.63 235.96 269.94 212.12 201.39 
M 213.45 200.33 213.55 200.92 
M 215.09 209.93 227.02 279.82 226.07 280 210.03 200.97 
M 248.29 226.03 247.11 227.82 246.51 229.58 246.54 230.45 246.8 231.31 247.26 232.17 248.57 233.86 
M 247.65 234.66 246.08 236.36 245.48 237.24 245.08 238.16 244.9 239.11 245.21 241.15 246.08 243.29 
M 245.07 243.96 243.12 245.52 241.71 247.3 241.31 248.3 241.13 249.4 241.13 250.56 241.5 253.03 
M 240.4 253.56 238.08 254.94 236.26 256.62 235.63 257.63 235.2 258.77 234.94 260.01 234.73 262.7 
M 233.57 263.08 230.89 264.2 228.64 265.71 227.76 266.69 227.06 267.82 226.5 269.08 225.67 271.87 
M 247.66 226.93 246.7 228.7 246.51 229.58 246.54 230.45 246.8 231.31 247.88 233.01 
M 242.91 222.48 242.12 223.94 241.96 224.66 242.2 226.09 243.09 227.5 
M 238.16 218.02 237.54 219.18 237.41 219.75 237.6 220.87 238.3 221.98 
M 233.41 213.57 232.86 214.83 233 215.65 233.51 216.46 
M 246.82 235.5 245.48 237.24 245.08 238.16 244.9 239.11 244.96 240.11 245.61 242.21 
M 242.87 230.71 241.71 232.21 241.22 233.82 241.27 234.68 241.83 236.48 
M 238.92 225.92 237.95 227.17 237.54 228.53 237.57 229.25 238.04 230.76 
M 234.97 221.14 234.19 222.14 233.85 223.23 234.26 225.03 
M 231.01 216.35 230.42 217.11 230.17 217.94 230.48 219.3 
M 244.05 244.73 242.32 246.37 241.71 247.3 241.31 248.3 241.13 249.4 241.28 251.78 
M 240.22 238.62 238.73 240.04 238.2 240.83 237.7 242.64 237.83 244.69 
M 236.39 232.52 235.13 233.7 234.7 234.37 234.28 235.88 234.39 237.6 
M 232.55 226.41 231.54 227.36 231.19 227.9 230.85 229.12 230.94 230.5 
M 228.72 220.3 227.68 221.44 227.43 222.36 227.5 223.41 
M 239.21 254.23 237.09 255.73 236.26 256.62 235.63 257.63 235.2 258.77 234.8 261.34 
M 236.35 248.01 234.48 249.33 233.75 250.12 233.19 251.02 232.81 252.02 232.46 254.29 
M 233.5 241.79 231.87 242.94 231.24 243.63 230.42 245.28 230.12 247.24 
M 230.64 235.58 229.27 236.55 228.32 237.79 228.04 238.53 227.78 240.2 
M 227.79 229.36 226.22 230.63 225.65 231.78 225.44 233.15 
M 224.93 223.14 224.05 223.76 223.44 224.56 223.1 226.1 
M 232.2 263.61 229.69 264.89 228.64 265.71 227.76 266.69 227.06 267.82 226.05 270.45 
M 230.26 257.33 228 258.47 227.05 259.21 226.26 260.09 225.63 261.11 224.72 263.48 
M 228.31 251.04 226.31 252.06 224.76 253.5 224.2 254.4 223.39 256.51 
M 226.37 244.75 224.61 245.65 223.88 246.22 222.77 247.7 222.06 249.54 
M 224.43 238.47 222.92 239.23 221.76 240.31 221.34 240.99 220.73 242.57 
M 222.48 232.18 221.22 232.82 220.26 233.72 219.41 235.6 
M 220.54 225.89 219.53 226.4 218.76 227.12 218.08 228.63 
M 349.63 196.15 351.48 201.59 350.66 202.1 346.66 197.96 
M 335.27 198.1 337.39 204.38 336.55 204.86 332.24 199.82 
M 320.85 199.37 323.81 208.17 322.94 208.6 317.73 200.92 
M 306.36 199.85 310.84 212.86 309.95 213.25 303.19 201.28 
M 291.86 200.13 298.5 219.02 297.61 219.39 288.66 201.49 
M 271.81 200.06 281.18 226.54 280.28 226.91 268.59 201.37 
M 350.26 201.68 347.16 200.91 344.15 200.72 342.69 200.95 341.28 201.41 339.89 202.06 337.18 203.75 
M 336.12 204.35 333.04 203.79 330.09 203.8 328.69 204.13 327.34 204.68 326.03 205.43 323.51 207.29 
M 322.42 207.83 319.38 207.47 316.51 207.67 315.17 208.08 313.9 208.71 312.7 209.54 310.39 211.56 
M 309.28 212.06 306.23 212.05 303.42 212.57 302.15 213.13 300.97 213.9 299.87 214.86 297.83 217.13 
M 296.71 217.6 292.61 217.84 288.71 218.62 286.88 219.32 285.14 220.23 283.46 221.33 280.25 223.89 
M 307.74 212.01 304.78 212.21 303.42 212.57 302.15 213.13 300.97 213.9 298.84 215.96 
M 294.65 217.68 290.62 218.13 288.71 218.62 286.88 219.32 285.14 220.23 281.84 222.58 
M 289.6 211.76 286.99 212.05 285.74 212.37 283.42 213.42 281.28 214.94 
M 396.86 140.2 400.2 139.09 402.9 137.36 405.65 136.29 408.21 134.65 413.01 132.61 415.36 130.97 417.25 129.35 420.85 128.27 423.03 126.92 425.92 124.15 431.79 121.2 433.59 119.94 435.01 118.02 437.22 117.58 443.88 114.33 447.08 112.16 451.92 109.88 453.46 108.67 454.24 108.76 456.45 107.68 459.95 105.5 462.91 102.68 460.29 108.93 461.77 116.38 461.21 122.08 461.63 125.77 460.69 128.35 459.11 133.87 458.28 138.33 457.32 140.7 455.85 146.66 456.43 150.24 455.16 156.47 451.53 162.88 451.82 166.04 452.51 169.31 456.06 176.2 455.47 178.41 455.4 181.15 456.74 184.28 458.25 189.47 458.24 193.77 459.13 197.43 459.3 200.37 459.3 203.61 458.66 206.23 458.93 209.16 459.73 212.62 459.89 215.34 459.53 217.43 461.14 223.53 462.37 226.49 463.97 238.81 461.73 237.09 457.88 235.62 454.5 232.44 445.85 226.68 444.01 224.61 443.1 222.8 441.79 221.25 440.06 219.83 437.37 218.67 432.02 215.66 429.76 213.49 422.82 209.89 419.77 207.24 416.57 205.39 414.97 203.52 412.85 201.57 407.14 199.31 404.66 197.46 402.72 194.92 396.86 190.19 
M 406.02 139.4 408.53 137.93 411.31 136.62 414.19 135.77 417.27 135.22 419.38 134.05 421.67 132.07 424.67 130.2 426.4 128.53 428.88 127.18 434.37 124.32 437.16 123.09 439.49 122.36 446.55 119.53 448.7 117.92 451.52 117.18 
M 403.39 143.74 405.81 142.88 411.54 139.95 414.8 138.97 418.63 138.24 420.69 137.66 422.6 136.22 425.31 135.18 430.77 131.39 433.52 130.12 437.03 129.36 439.5 128.31 441.98 126.92 444.67 125.9 447.44 125.16 450.33 124.09 453.04 122.8 458.77 121.51 
M 400.16 147.88 406.1 146.15 408.87 145.01 415.65 142.72 419.11 142.26 421.45 141.26 423.87 140.79 427.14 139.88 429.78 138.54 432 136.96 434.76 135.49 436.65 133.98 439.67 133.01 442.17 131.76 445.33 131.38 448 131.63 450.48 129.77 452.35 128.99 
M 400.46 150.42 403.42 149.91 406.26 148.95 409.32 148.51 412.47 147.67 415.02 146.61 422.04 144.84 424.64 143.9 427.03 143.7 430.06 142.46 432.65 139.75 435.4 138.33 
M 406.35 151.87 412.74 151.09 418.07 149.03 424.22 147.14 426.27 147.31 432.63 145.22 436.29 143 439.32 142.03 442.13 142.79 445.52 141.56 
M 406.76 154.25 413.33 153.81 415.97 153.11 419.18 152.66 422.13 152.64 424.43 151.9 
M 403.87 157.78 406.7 157.06 409.78 156.91 412.79 156.55 416.59 156.52 419.71 156.23 422.94 156.4 428.46 157.19 435.04 154.93 438.79 153.83 441.57 152.7 444.83 151.64 447.95 151.83 
M 400.92 160.71 403.99 160.83 409.76 160.23 413.12 160.43 420.19 159.73 422.83 159.9 425.77 160.93 428.74 161.17 432.9 161.25 436.89 160.62 439.59 159.8 442.92 159.13 445.45 159.09 448.89 160.09 451.5 159.91 
M 403.82 164.12 406.16 164.35 413.96 164.11 417.52 164.27 420.77 163.95 423.3 163.44 426.52 164.21 429.13 164.32 432.26 164.2 436.1 164.39 439.94 165.3 443.74 165.64 446.45 165.16 447.56 164.63 450.53 164.94 
M 403.65 166.91 406.01 167.53 414.24 167.66 417.85 168.07 420.9 168.18 423.89 167.61 427.59 167.46 431.26 167.54 434.12 168.56 440.69 169.63 443.82 170.45 445.51 171.31 
M 403.9 169.86 406.73 170.8 409.85 170.92 413.63 170.74 417.53 170.82 420.66 171.43 423.63 172.64 426.66 172.77 430.27 172.68 435.39 174.47 438.07 174.76 441.3 175.47 444.49 175.3 447.42 174.35 451.21 175.28 
M 404 172.59 410.24 173.64 417.27 173.98 420.25 174.45 422.77 176.05 425.58 176.2 
M 406.97 176.47 414.08 177.58 416.4 177.74 425.4 180.14 427.76 181.3 431.12 181.34 437.35 184.71 443.57 184.03 447.69 184.81 451 184.68 
M 396.86 175.19 406.74 179.42 410.37 180.14 413.29 180.44 416.53 181.56 419.16 182.25 421.13 183.95 427.85 185.23 434.43 187.04 
M 396.86 177.69 403.99 180.96 410.04 183.36 413.12 183.89 415.22 185.03 417.92 185.28 421.4 187.08 427.81 189.78 430.43 190.49 432.98 191.84 436.92 193.61 439.9 194.39 443.28 194.4 446.46 194.08 448.92 194.04 
M 396.86 180.19 400.67 182.1 403.68 183.94 410.12 186.67 412.37 187.53 418.13 188.74 423.64 191.85 429.2 194.37 434.01 198.2 437.04 200.13 440.61 199.07 444.06 198.98 448.44 199.2 451.49 200.99 
M 400.32 185 406.78 188.62 409.39 189.66 415.31 191.1 418.59 192.29 421.45 193.53 425.27 197 427.87 198.18 433.54 201.82 
M 400.29 187.59 403.42 189.64 405.63 191.72 408.33 193.28 411.86 194.19 418.68 196.3 421.06 197.45 422.95 199.41 424.92 201 427.65 202.81 430.87 204.48 433.11 205.99 436.15 206.82 438.94 208.14 440.57 210.18 443.06 211.99 
M 400.5 190.39 403.19 192.57 404.95 194.72 407.43 196.55 410.66 198.03 414.02 198.57 416.78 199.42 419.04 201.18 421.49 203.5 427.75 207.17 433.26 210.93 439.09 213.57 441.48 215.76 443.3 216.76 445.24 218.76 447.18 221.41 450.51 221.69 452.82 223.05 453.9 225.2 
M 385.09 190.31 381.33 190.97 379.86 192.14 378.66 193.67 377.19 194.94 375.38 195.45 372.22 193.43 370.65 193 366.63 193.25 364.91 194.2 363.45 195.44 361.8 196.49 356.11 194.1 357.89 195.88 
M 68.44 159.26 70.24 157.61 72.57 156.01 75.58 154.41 79.62 152.9 90.44 149.9 101.34 145.78 107.59 143.6 128.72 138.41 135.44 137.19 146.55 135.47 153.24 134.68 157.09 137.22 158.95 140.11 161.07 142.96 163.42 145.77 165.3 148.66 166.51 151.65 168.26 157.76 168.08 160.99 168.28 164.15 168.2 167.36 167.05 173.94 167.41 177.08 167.39 183.47 166.86 186.76 165.6 190.16 163.03 193.71 148.92 193.13 138.31 192.13 129 190.83 120.87 189.31 100.17 183.81 94.08 181.49 88.36 178.8 
M 141.24 151.33 141.68 153.94 140.06 159.08 138.89 161.43 137.38 163.68 136.2 165.81 136.63 169.65 138.25 173.64 138.96 176.06 138.88 179.02 129.47 178.94 122.4 178.64 115.78 178.23 109.55 177.61 97.71 175.23 92.31 173.78 
M 86.68 178.42 77.63 172.62 65.94 164.35 64.45 162.37 64.9 159.98 67.02 158.76 69.36 159.58 72.96 163.06 77.98 168.37 88.56 178.6 
M 88.22 179.45 83.36 180.27 64.27 184.21 61.83 184.65 59.35 184.89 56.98 184.07 56.02 181.95 57.14 179.81 59.44 179.05 71.6 178.99 81.27 178.49 88.21 178.47 
M 99.69 168.96 97.07 165.29 95.79 160.97 95.97 156.46 97.61 152.26 100.53 148.82 104.4 146.51 108.82 145.58 113.29 146.14 117.34 148.12 120.53 151.31 122.51 155.36 123.07 159.84 122.15 164.25 119.84 168.13 116.4 171.04 112.19 172.68 107.69 172.87 103.36 171.58 99.69 168.96 
M 118.3 152.9 119.89 156.14 120.33 159.72 119.59 163.26 117.75 166.36 114.99 168.69 111.63 170 108.03 170.15 104.57 169.12 101.63 167.02 
M 104.78 162.42 103.73 160.95 103.22 159.22 103.29 157.42 103.95 155.74 105.11 154.36 106.66 153.44 108.43 153.07 110.22 153.29 111.84 154.09 113.12 155.36 113.91 156.98 114.13 158.77 113.76 160.54 112.84 162.09 111.46 163.25 109.78 163.91 107.98 163.98 106.25 163.47 104.78 162.42 
M 104.4 159.95 108.43 163.97 
M 104.25 157.18 110.64 163.57 
M 106.14 156.45 112.26 162.58 
M 107.96 155.66 113.42 161.12 
M 110.78 155.87 114.05 159.14 
M 111.72 154.2 113.34 155.81 
M 71.31 156.88 75.75 161.32 
M 74.97 154.73 80.75 160.52 
M 79.12 153.08 83.33 157.29 
M 83.62 151.77 87.07 155.22 
M 88.18 150.52 93.3 155.65 
M 92.58 149.12 96.54 153.08 
M 96.8 147.53 99.41 150.14 
M 100.99 145.91 102.64 147.56 
M 105.29 144.41 106.87 145.99 
M 109.76 143.07 112.76 146.07 
M 114.43 141.93 119.37 146.87 
M 119.09 140.79 122.89 144.59 
M 123.75 139.64 128.57 144.46 
M 128.41 138.49 132.06 142.15 
M 133.3 137.58 136.98 141.26 
M 138.27 136.74 142.57 141.04 
M 143.3 135.96 147.61 140.27 
M 148.38 135.24 151.9 138.76 
M 154.4 135.45 157.53 138.58 
M 166.45 184.14 166.94 182.71 167.04 181.63 166.94 181.15 166.65 180.74 166.06 180.34 164.13 179.71 161.84 179.41 159.81 178.93 157.71 178.86 
M 76.23 162.04 77.31 162.73 79.71 164.98 80.17 165.89 
M 129.61 154.23 130.94 154.68 132.03 154.82 134.4 154.47 135.48 154.56 136.34 154.2 
M 160.59 149.7 159.65 148.7 156.94 147.33 154.91 146.56 151.54 145.7 150.02 145.63 149.44 145.88 148.72 146.8 
M 80.89 171.22 82.63 170.66 84.12 170 84.68 169.58 85.49 168.17 85.67 167.27 
M 130.61 171.59 128.98 171 128.15 170.99 126.5 171.71 124.29 173.84 122.36 175.26 119.89 178.78 
M 112.28 142.46 112.96 142.76 114.96 144.14 
M 156.89 143.4 155.07 142.63 149.9 142.02 
M 79.44 161.98 80.38 163.58 80.4 164.09 80.12 164.89 80.16 165.51 
M 97.8 173.21 97.34 174.64 95.77 176.93 95.5 177.72 95.33 179.29 94.72 180.95 94.32 181.58 
M 79.68 162.28 80.44 163.81 80.1 165.03 80.19 165.64 
M 107.4 174.77 107.66 175.07 108.99 175.85 109.4 176.4 109.55 177.63 109.15 178.94 
M 148.84 137.07 148.54 137.75 147.2 139.47 146.93 140.11 146.92 140.7 147.4 141.35 148.86 142.07 
M 134.53 180.92 133.21 180.57 130.98 180.45 130.15 180.15 128.88 179.32 126.01 178.58 125.41 178.6 123.5 179.27 
M 127.89 178.05 125.8 177.9 120.08 179.44 
M 101.09 145.87 100.47 147.1 100.17 148.43 
M 145.69 177.57 146.62 176.68 147.55 176.11 
M 81.09 171.42 84.28 170.19 84.81 169.73 85.61 168.26 85.79 167.33 85.76 166.27 
M 89.84 162.44 90.85 161.16 92.66 160.36 93.31 160.36 94.22 161.02 
M 163.18 169.94 162.56 170.37 160.96 170.71 157.51 170.41 156.21 170.76 155.38 171.31 
M 76.77 162.6 78.81 164.56 79.77 165.28 80.24 166.22 
M 125.28 162.2 124.92 162.9 125.16 163.65 126.16 164.5 127.26 164.74 
M 91 177.29 91.31 178.02 91.19 178.23 90.89 178.27 
M 112.45 174.08 112.76 175 113.28 179.29 113.16 180 111.51 183.45 111.57 184.15 
M 154.62 176.38 149.87 177.54 148.41 177.53 147.48 177.81 
M 112.25 177.96 112.35 179.61 111.05 183.25 111.14 183.82 111.96 185.69 112.39 187.1 
M 124.43 152.78 123.12 153.55 122.12 154.56 
M 117.95 145.53 118.78 145.46 119.37 145 119.4 143.61 119.16 143.29 118.71 143.25 
M 99.84 146.36 100.02 149.42 
M 84.73 167.54 84.88 166.83 84.75 163.64 83.97 161.91 83.46 161.57 82.64 161.42 82.09 161.59 81.52 162.3 
M 117.76 173.99 117.8 177.6 117.25 179.57 115.48 181.83 114.91 183.23 
M 89.12 178.27 88.93 177.81 89.07 177.44 89.47 177.36 90.14 177.58 
M 149.81 186.05 149.96 186.34 149.75 186.98 148.75 188.03 147.92 188.56 
M 162.48 162.27 162.95 162.31 163.23 161.92 163.36 160.31 163.16 159.02 
M 163.14 173.86 161.84 173.59 160.69 173.54 159.64 173.81 157.22 175.49 155.83 176.15 150.61 177.36 
M 155.02 149.18 153.06 148.73 152.16 148.42 150.72 147.62 150.1 147.48 149.55 147.55 149.25 147.81 149.06 148.33 149.04 149.07 
M 141 144.1 141.57 145.15 142.16 145.68 147.19 149.03 147.73 149.61 148.14 150.47 
M 147.64 139.26 147.3 139.8 147.19 140.35 147.29 140.81 147.53 141.11 148.95 141.88 
M 165.4 151.49 164.85 149.06 164.64 148.72 164.18 148.49 162.76 148.51 162.28 148.2 
M 89.31 175.74 89.98 175.86 90.61 176.21 91.01 176.76 91.45 177.9 91.39 178.2 91.09 178.38 
M 143.32 180.09 144.1 179.73 145.3 178.74 146.47 178.1 147.31 177.23 
M 88.39 178.78 89.32 179.53 
M 83.26 176.17 83.25 177.36 83.62 176.85 84.01 176.66 
M 78.53 173.17 78 174.24 77.94 175.8 78.45 174.6 79.5 173.77 
M 74 170 72.83 171.98 72.62 174.23 73.28 172.35 75.01 170.77 
M 69.52 166.83 67.66 169.73 67.31 172.67 68.11 170.1 70.63 167.61 
M 65.23 163.4 62.48 167.48 61.99 171.11 62.93 167.84 66.18 164.51 
M 88.22 178.96 89.53 178.82 
M 83.22 178.44 83.83 177.62 84.1 178.43 
M 78.17 178.68 78.37 177.43 79.08 176.31 78.94 177.37 79.42 178.61 
M 73.24 178.9 73.41 176.67 74.34 175.01 73.99 176.62 74.62 178.83 
M 68.36 178.94 68.45 175.92 69.6 173.7 69.03 175.86 69.77 178.95 
M 63.48 178.98 63.49 175.16 64.86 172.4 64.07 175.1 64.89 178.96 
M 58.6 179.32 58.54 174.4 60.12 171.09 59.12 174.34 60.03 179.04 
M 66.55 183.73 75.23 185.71 80.34 186.47 85.48 186.86 90.68 186.9 95.95 186.64 106.51 185.58 
M 70.96 184.8 70.35 183.03 
M 91.67 186.74 92.2 185.21 92.87 184.51 
M 66.63 183.75 66.61 183.71 
M 153.35 134.64 153.7 134.99 
M 159.31 140.6 159.5 140.79 
M 159.81 133.36 168.8 142.35 
M 166.49 132.3 174.75 140.56 
M 173.42 131.48 179.81 137.87 
M 180.67 130.98 190.96 141.27 
M 187.95 130.53 198.44 141.02 
M 195.16 129.99 204.11 138.94 
M 202.24 129.33 209.24 136.33 
M 209.31 128.66 218.35 137.7 
M 216.5 128.1 223.49 135.1 
M 223.81 127.67 232.44 136.31 
M 231.29 127.41 238.04 134.16 
M 238.91 127.29 245.62 134 
M 246.58 127.22 255.59 136.22 
M 254.33 127.22 265.07 137.96 
M 262.14 127.29 270.09 135.24 
M 269.93 127.34 280.14 137.55 
M 277.55 127.21 287.19 136.85 
M 285.26 127.18 293.72 135.64 
M 293.16 127.34 302.34 136.52 
M 301.27 127.71 309.68 136.12 
M 309.51 128.2 315.47 134.17 
M 317.8 128.75 327.95 138.9 
M 326.15 129.36 335.4 138.61 
M 334.74 130.21 345.58 141.05 
M 343.56 131.29 353.75 141.48 
M 352.49 132.47 363.96 143.94 
M 361.36 133.6 368.05 140.29 
M 370.2 134.7 378.53 143.03 
M 379.26 136.02 387.56 144.32 
M 389.03 138.04 400.32 149.33 
M 402.73 143.99 405.48 146.75 
"/></svg>