<svg xmlns="http://www.w3.org/2000/svg" width="520" height="320"><rect x="0" y="0" width="520" height="320" fill="floralwhite"/><rect x="10" y="10" width="500" height="300" stroke="black" stroke-width="1" fill="none"/><path stroke="black" stroke-width="1" fill="none" stroke-linecap="round" stroke-linejoin="round" d="
M 143.1 118.91 148.34 117.44 158.45 115.41 178.98 113.42 199.45 110.95 209.74 110.26 220.05 109.97 261.3 109.86 271.6 110.29 292.15 112.02 302.4 113.2 312.58 114.85 343.04 120.23 352.97 123.02 360.62 126.9 
M 360.62 167.92 353.51 171.16 343.46 173.49 323.06 176.48 302.73 180 292.48 181.13 282.19 181.68 271.88 181.94 261.57 182.08 251.25 182 240.95 182.25 220.36 183.45 210.04 183.37 199.77 182.5 189.58 180.9 179.48 178.84 169.42 176.55 159.3 174.6 151.75 173.76 
M 168.08 139.56 171.3 139.35 
M 243.34 136.26 246.06 136 
M 249.58 135.7 251.31 135.54 257.69 134.41 261.19 134.24 267.16 134.72 
M 274.81 135.13 278.26 134.96 
M 281.74 134.82 294.28 134.72 298.39 135.2 307.91 137.28 310.1 137.58 
M 314.34 138.01 320.51 138.39 324.88 138.83 331.24 139.72 
M 337.48 140.19 340.19 140.16 
M 344.06 140.02 357.31 139.74 360.62 139.82 
M 145.28 118.3 143.89 119.42 
M 153.7 173.18 154.46 174.06 
M 158.02 167.46 163.75 174.72 
M 165.26 121.27 164.28 122.86 161.9 125.66 160.59 126.94 
M 154.8 131.52 154.4 131.8 
M 169.97 171.4 172.52 174.96 
M 174.13 119.12 172.22 122.39 
M 165.67 131.39 162.25 135.78 160.28 137.57 
M 177.24 168.98 181.63 175.41 
M 188.03 116.82 184.43 118.43 
M 168.65 138.38 167.97 139.56 
M 187.81 170.66 189.53 173.24 
M 194.07 180.2 195.09 181.77 
M 193.55 122.09 191.87 123.04 188.83 125.24 186.21 127.86 183.05 132.56 
M 180.89 135.63 178.69 138.4 
M 199.84 174.08 202.25 177.71 
M 200.04 128.68 195.52 132.08 194.16 133.36 
M 212.6 177.85 216.25 183.42 
M 222.45 114.08 221.09 115.4 219.94 116.92 
M 215.76 123.4 212.53 128.16 209.08 132.69 
M 206.59 135.51 203.86 138.09 
M 220.83 174.29 224.95 180.77 
M 222.72 125.38 221.48 126.81 219.48 130.17 217.78 133.81 216.8 135.51 
M 230.12 172.92 232.12 176.08 
M 233.94 179.07 236.09 182.57 
M 237.36 118.64 231.29 126.07 227.9 130.76 
M 225.89 134.13 224.32 137.08 
M 238.14 170.78 239.35 172.82 
M 241.35 176 245.5 182.14 
M 241.54 122.91 240.11 124.19 237.5 126.99 235.31 130.22 232.78 135.8 
M 247.08 169.95 255.37 182.03 
M 260.27 115.1 257.48 117.75 
M 254.66 120.37 251.8 122.96 
M 245.74 127.8 244.19 128.97 241.36 131.59 239.05 134.7 238.36 136.15 
M 256.5 168.81 265.27 182.03 
M 271.79 111.39 269.18 114.21 
M 266.54 117 262.4 121.04 255.1 127.4 
M 252.34 130.1 247.59 135.12 
M 269.52 173.01 274.43 180.25 
M 279.51 110.89 274.25 117.86 270.36 122.15 
M 267.48 124.73 259.48 130.42 256.06 134.63 
M 275.61 165.87 278.4 170.06 
M 281.04 173.93 285.4 180.51 
M 284.28 115.97 276.88 124.9 
M 274.28 127.76 272.94 129.15 266.25 134.62 
M 286.43 164.93 291.42 172.27 
M 293.52 175.53 295.73 179.07 
M 296.87 114.64 295.43 115.9 291.4 119.96 
M 288.73 122.71 281.73 129.32 279.1 132.15 276.76 135.07 
M 294.03 160.15 300.2 168.83 
M 302.52 172.14 304.57 175.14 
M 306.31 177.72 307.08 178.86 
M 307.16 116.39 304.25 118.96 
M 301.46 121.64 300.08 122.99 292.58 129.07 
M 287.45 133.89 286.58 134.83 
M 302.55 156.78 316.84 175.59 
M 315.6 121.31 314.15 122.64 310.13 126.93 
M 307.27 129.6 305.72 130.81 299.34 133.73 
M 310.53 152.39 312.62 154.95 
M 315.1 158.06 317.22 160.74 
M 319.31 163.35 323.86 168.75 
M 326.25 171.5 327.48 172.9 
M 326.83 123.39 313.59 135.33 309.71 137.56 
M 319.42 149.07 330.73 161.83 339.42 171 
M 343.26 120.38 338.92 124.39 333.69 130.35 330.65 132.92 325.33 136.02 
M 322.4 137.74 321.28 138.44 
M 332.3 149.96 341.57 159.21 350.26 167.39 
M 350.7 127.5 349.26 128.79 340.02 136.08 336.78 138.38 334.41 139.77 
M 338.65 144.27 341.49 146.73 
M 347.28 151.65 354.8 157.91 360.62 162.49 
M 153.64 116.39 155.45 116.32 158.26 116.93 159.65 118.31 
M 246.92 122.91 247.94 123.8 249.61 127.25 249.66 128.07 248.91 129.34 
M 313.45 116.45 313.76 116.05 313.91 115.09 
M 282.95 127.81 281.66 128.49 280.64 129.6 278.79 132.13 278.48 133.42 
M 288.61 114.2 287.98 113.58 287.41 113.28 286.87 113.21 283.42 113.88 282.82 114.6 
M 339.69 125.34 340.62 122.99 340.73 119.81 
M 293.4 179.35 292.68 179.38 291.98 179.04 290.44 177.42 289.28 175.59 
M 300.65 137.72 299.79 135.89 299.38 133.06 299.34 131.49 
M 257.73 182.05 258.92 181.7 259.49 181.35 259.56 181 259.19 180.68 
M 313.59 173.91 309.5 172.68 308.32 172.8 306.81 173.29 305.78 173.2 
M 322.54 169.71 320.87 172.94 319.12 174.77 
M 222.38 137.23 222.33 136.43 
M 310.73 153.41 309.56 153.96 308.24 156.48 307.69 156.92 307.23 157.05 
M 292.77 163.02 293.27 163.03 293.68 162.57 293.81 161.95 293.63 161.13 
M 248.97 178.23 247.29 179.19 244.9 180.02 242.72 180.61 240.04 180.76 
M 244.96 170.66 244.7 171.08 
M 289.02 130.05 287.86 130.49 286.03 131.5 284.84 131.72 283.11 131.76 281.71 132.28 
M 338.16 130.76 339.74 128.18 340.32 125.84 
M 222.61 174.88 222.83 172.47 
M 213.23 126.41 212.33 125.31 211.64 124.83 209.3 123.97 207.64 123.81 
M 264.71 111.2 264.03 110.88 263.17 110.77 258.27 111.95 256.24 112.05 254.64 112.55 252.66 113.99 
M 238.98 111.04 241.31 111.53 243.72 111.63 244.96 111.87 246.08 112.47 247 113.08 248.39 114.43 250.19 117 
M 343.95 148.47 340.46 145.83 339.91 145.13 339.87 144.3 
M 341.03 157.08 339.52 156.13 333.81 153.31 
M 229.52 175.82 226.95 174.49 225.67 173.32 225.1 172.48 
M 277.06 180.65 277.6 180.35 278.69 180.09 280.62 180.14 
M 305.57 157.52 304.95 156.74 304.23 156.14 
M 167.4 114.14 169.07 114.28 
M 181.24 112.77 185.38 80.22 186.31 80.3 184.58 112.7 
M 195.05 111.01 200.99 72.33 201.91 72.44 198.39 111.05 
M 208.93 109.91 218.4 67.11 219.31 67.28 212.28 110.14 
M 222.86 109.51 233.6 71.68 234.5 71.9 226.18 109.9 
M 236.77 109.53 250.25 65.93 251.14 66.18 240.09 110 
M 250.68 109.45 261.39 77.86 262.28 78.13 254.02 109.89 
M 264.62 109.41 273.59 88.05 274.46 88.36 267.9 110.07 
M 280.17 110.42 281.71 111.06 
M 169.72 114.23 174.12 108 176.19 104.76 178.09 101.43 179.79 98 182.63 90.86 184.97 83.47 
M 186.13 83.58 189.85 83 193.31 81.92 194.9 81.1 196.38 80.08 197.77 78.89 200.4 76.2 
M 201.56 76.34 205.44 76.37 207.33 76.22 209.16 75.88 210.93 75.33 214.27 73.62 217.45 71.39 
M 218.6 71.61 221.38 73.61 224.3 75.08 225.85 75.51 227.45 75.72 229.11 75.75 232.52 75.46 
M 233.66 75.75 237.45 75.65 241.05 75.04 242.74 74.43 244.36 73.62 245.92 72.62 248.9 70.29 
M 250.03 70.6 251.47 73.75 253.3 76.52 254.45 77.67 255.75 78.68 257.19 79.54 260.32 81.02 
M 261.44 81.35 263.21 84.25 265.31 86.72 266.56 87.7 267.95 88.5 269.46 89.16 272.69 90.19 
M 273.79 90.58 274.31 95.49 275.35 100.21 276.17 102.46 277.2 104.63 278.41 106.74 281.17 110.84 
M 188.01 83.32 191.63 82.54 193.31 81.92 194.9 81.1 196.38 80.08 199.1 77.58 
M 188.43 90.03 191.2 89.43 193.71 88.32 194.85 87.54 196.93 85.63 
M 188.85 96.73 191.67 95.99 193.31 95.01 194.76 93.67 
M 203.51 76.39 207.33 76.22 209.16 75.88 210.93 75.33 212.63 74.57 215.87 72.54 
M 203.53 82.4 206.69 82.26 208.2 81.98 211.06 80.9 213.73 79.22 
M 203.55 88.41 206.04 88.29 207.23 88.07 209.48 87.22 211.59 85.9 
M 203.58 94.41 206.26 94.17 207.91 93.55 209.45 92.58 
M 219.98 72.65 222.81 74.44 224.3 75.08 225.85 75.51 227.45 75.72 230.81 75.64 
M 219.55 79.2 221.89 80.67 223.11 81.2 225.72 81.73 228.48 81.67 
M 219.12 85.75 220.96 86.91 221.93 87.33 223.98 87.74 226.16 87.69 
M 218.69 92.29 220.04 93.15 221.48 93.65 223.83 93.72 
M 235.57 75.74 239.28 75.44 241.05 75.04 242.74 74.43 244.36 73.62 247.42 71.49 
M 234.84 81.72 237.91 81.48 240.76 80.65 242.1 79.98 244.62 78.22 
M 234.12 87.71 236.53 87.52 237.68 87.26 239.83 86.33 241.82 84.95 
M 233.39 93.7 236 93.37 237.57 92.69 239.02 91.68 
M 250.72 72.21 252.32 75.2 253.3 76.52 254.45 77.67 255.75 78.68 258.73 80.31 
M 249.46 81.01 250.69 83.31 252.32 85.21 253.32 85.97 255.6 87.23 
M 248.2 89.82 249.58 92.12 250.89 93.27 252.48 94.14 
M 262.3 82.83 264.2 85.56 265.31 86.72 266.56 87.7 267.95 88.5 271.05 89.7 
M 261.23 92.33 262.46 94.1 264 95.49 264.9 96.01 266.92 96.79 
M 157.02 144.82 168.41 143.11 174.12 142.81 176.93 142.37 179.69 141.66 185.32 140.55 193.75 139.6 202.43 139.49 204.92 138.69 210.49 138.44 218.74 137.78 221.5 137.3 229.61 136.71 235.71 136.46 238.32 136.15 241.21 136.07 244.07 136.32 246.62 136.08 249.47 136.2 261.05 135.16 264.02 135.06 266.97 135.37 270.03 135.38 274.94 136.02 280.65 136.25 287.32 136.96 291.75 136.95 294.05 136.49 297.05 136.74 303.68 138.57 306.32 138.97 309.01 139.04 311.29 138.48 313.85 138.36 316.88 138.53 320.33 139.58 326.77 140.62 329.09 140.33 331.47 139.66 337.98 139.95 316.84 150.35 311.17 152.06 308.73 153.31 306.74 155.01 304.2 156.15 294.06 160.15 288.24 161.3 285.19 161.74 282.56 162.6 278.12 164.99 275.6 165.88 272.86 166.55 266.88 167.39 264.32 168.08 261.48 168.35 258.45 168.42 255.86 168.93 252.8 168.98 250.25 169.54 247.43 169.82 245.16 170.65 242.31 170.88 238.92 170.59 233.84 171.69 225.72 172.48 222.88 172.47 220.27 172.67 214.48 172.52 209.04 172.58 206.22 172.31 203.06 171.7 200.39 171.59 195.41 171.71 189.82 171.04 186.86 170.48 183.58 169.61 178.05 168.88 176.9 169.02 159.46 164.89 156.02 163.39 
M 157.08 146.67 165.6 145.55 174.69 145.21 177.55 144.86 182.93 143.78 188.69 143.24 194.4 143.38 199.52 142.98 202.04 143.16 211.01 142.47 216.1 141.66 224.92 141.82 227.7 141.7 230.1 141.28 238.96 141.69 241.93 141.69 247.25 142.85 
M 157.01 148.45 160.25 148.21 162.87 147.77 165.69 147.6 171.89 147.56 174.84 147.71 180.38 147.01 185.93 146.67 188.76 146.27 191.45 146.83 194.38 147.03 196.88 146.68 202.38 146.65 205.55 146.74 208.28 147.17 211.11 146.82 214.04 146.74 219.33 146.21 222.02 146.19 225.27 146.82 230.1 147.42 236.6 147.71 239.49 148.22 244.81 148.23 250.36 149.38 256.28 149.89 259.48 150.82 262.6 151.47 265.04 151.53 267.01 151.92 269.57 152.13 272.05 153.13 277.78 153.34 284.04 154.67 286.65 154.6 
M 156.79 150.19 160.15 150.08 162.97 149.76 168.89 149.71 172.01 149.98 177.86 150.17 182.87 149.63 188.37 149.66 191.23 150.1 196.76 150.4 199.98 150.75 206.15 151.03 208.98 151.36 211.6 151.3 217.49 151.52 220.33 151.36 222.99 151.52 227.51 153.07 229.68 153.58 236.61 154.05 239.83 154.55 
M 156.49 151.85 162.97 151.81 168.99 151.99 175.12 152.74 177.79 152.9 180.19 152.76 188.43 153.06 191.08 153.41 193.68 153.37 199.84 155.01 203.4 155.19 206.34 155.65 
M 156.17 153.47 165.91 154.26 168.97 154.34 174.93 155.3 177.65 155.49 179.92 155.28 185.19 156.08 191.13 156.68 196.57 158.07 
M 155.82 155.24 160.26 155.72 165.94 156.66 168.98 156.83 180.48 158.74 183.06 158.95 185.84 159.52 188.31 160.3 190.81 160.73 193.37 161.64 196.37 162.27 199.33 162.65 204.55 164.03 212.61 168.01 218.16 168.77 
M 156.01 157.1 160.3 157.73 171.99 160.05 175.15 160.45 178.06 161.32 
M 156.09 158.95 160.46 159.87 175.12 163.84 180.53 166.27 
M 156 161 160.8 162.24 166.6 164.25 
M 204.97 181.89 232.53 214.59 231.83 215.21 202.48 184.12 
M 203.24 181.8 203.94 182.82 
M 210.85 192.98 232.1 224.22 231.35 224.76 200.53 183.74 
M 201.5 181.71 202.02 182.68 
M 207.76 193.37 229.83 234.44 229.02 234.89 198.59 183.35 
M 199.74 181.64 200.09 182.51 
M 204.59 193.52 225.61 244.96 224.76 245.32 196.67 182.96 
M 197.96 181.57 198.18 182.31 
M 201.42 193.5 219.39 255.48 218.5 255.75 194.77 182.55 
M 196.7 181.58 196.76 181.94 
M 199.42 196.89 211.67 265.75 210.76 265.93 193.42 182.21 
M 228.9 212.1 227.78 213.9 227.21 215.67 227.25 216.55 227.5 217.42 227.95 218.28 229.21 219.98 
M 228.26 220.66 226.8 222.37 226.25 223.26 225.89 224.17 225.75 225.12 226.1 227.1 227 229.17 
M 225.98 229.74 224.19 231.34 222.93 233.11 222.6 234.1 222.49 235.16 222.55 236.28 223.02 238.63 
M 221.95 239.09 219.85 240.54 218.24 242.24 217.72 243.24 217.39 244.34 217.24 245.54 217.25 248.09 
M 216.13 248.43 213.82 249.75 211.97 251.37 211.31 252.36 210.83 253.47 210.51 254.69 210.18 257.34 
M 228.3 213 227.4 214.79 227.21 215.67 227.25 216.55 227.5 217.42 228.54 219.13 
M 223.84 207.73 223.1 209.21 222.94 209.94 223.18 211.37 224.04 212.79 
M 219.38 202.46 218.79 203.62 218.69 204.77 218.86 205.33 219.54 206.44 
M 214.92 197.19 214.4 198.46 214.54 199.29 215.03 200.1 
M 227.5 221.51 226.25 223.26 225.89 224.17 225.75 225.12 225.83 226.09 226.51 228.13 
M 223.78 216.07 222.71 217.57 222.28 219.17 222.35 220.01 222.93 221.76 
M 220.07 210.63 219.17 211.89 218.81 213.23 218.87 213.93 219.36 215.4 
M 216.35 205.19 215.42 206.73 215.39 207.85 215.78 209.03 
M 212.64 199.75 211.93 200.92 211.91 201.77 212.2 202.66 
M 225.05 230.53 223.47 232.2 222.93 233.11 222.6 234.1 222.49 235.16 222.75 237.44 
M 222.02 224.92 220.63 226.39 220.16 227.2 219.76 229.01 219.99 231.02 
M 219 219.3 217.79 220.58 217.13 222.04 217.04 222.85 217.24 224.6 
M 215.98 213.69 214.95 214.77 214.6 215.37 214.31 216.7 214.48 218.18 
M 212.95 208.08 211.82 209.46 211.58 210.55 211.73 211.76 
M 209.93 202.46 209.05 203.54 208.86 204.39 208.97 205.34 
M 220.87 239.79 218.96 241.34 218.24 242.24 217.72 243.24 217.39 244.34 217.21 246.79 
M 218.51 234.03 216.79 235.43 216.15 236.24 215.38 238.13 215.22 240.33 
M 216.15 228.27 214.63 229.51 214.05 230.23 213.37 231.91 213.22 233.87 
M 213.79 222.51 212.46 223.6 211.96 224.22 211.36 225.69 211.23 227.41 
M 211.44 216.75 210.29 217.68 209.86 218.22 209.35 219.48 209.24 220.95 
M 209.08 210.99 207.77 212.21 207.34 213.26 207.25 214.49 
M 206.72 205.23 205.67 206.21 205.33 207.05 205.26 208.03 
M 214.94 249.07 212.81 250.51 211.97 251.37 211.31 252.36 210.83 253.47 210.31 255.99 
M 213.26 243.2 211.32 244.51 210.54 245.3 209.94 246.2 209.5 247.22 209.03 249.52 
M 211.58 237.33 209.82 238.51 209.12 239.23 208.18 240.96 207.76 243.04 
M 209.89 231.46 208.32 232.52 207.7 233.16 206.86 234.71 206.48 236.56 
M 208.21 225.59 206.83 226.52 206.28 227.09 205.54 228.45 205.2 230.09 
M 206.53 219.72 204.86 221.01 204.21 222.2 203.93 223.61 
M 204.85 213.85 203.43 214.94 202.89 215.94 202.65 217.14 
M 203.16 207.98 202.01 208.87 201.57 209.68 201.37 210.66 
M 342.36 173.72 346.3 179.74 348.32 183.99 351.4 187.57 344.91 185.79 340.2 188.41 338.35 190.44 330.61 194.17 328.23 195.72 325.48 196.9 323.42 198.75 321.94 201.19 318.28 205.35 316.84 207.81 316.42 210.96 315.54 213.72 312.89 218.84 309.89 221.22 306.93 226.02 303.36 223.87 301.21 220.58 299.67 218.53 297.21 212.86 296.49 210.6 295.34 208.67 294.1 205.63 293.34 202.07 291.33 199.61 289.47 196.82 288.54 193.86 285.55 188.96 281.71 181.7 
M 337.77 174.4 343.85 183.24 
M 333.19 175.07 337.03 179.53 
M 328.59 175.68 334.13 184.02 336.71 186.54 
M 324 176.33 326.69 181.02 328.89 184.49 
M 319.43 177.07 322.22 181.86 323.6 185.6 324.87 188.32 
M 314.86 177.85 319.81 185.66 321 188.78 
M 310.31 178.71 313.49 182.98 315.67 185.26 317.71 188.03 318.5 190.82 319.89 193.78 
M 305.74 179.52 308.59 183.53 310.79 185.66 312.7 188.56 316.21 193.22 
M 301.16 180.25 304.15 183.83 307.07 186.36 310.55 192.42 311.04 195.94 313.16 197.98 315.9 204.66 
M 296.56 180.79 299.34 184.92 301.13 188.33 302.97 190.37 306.16 197.32 307.24 200.19 308.99 202.66 310.61 205.58 
M 291.94 181.18 294.64 185.35 296.6 188.77 297.83 191.97 300.83 197.37 304.62 202.3 
M 287.32 181.45 291.49 188.83 294.76 195.01 296.09 197.86 297.68 200.3 
M 359.69 125.52 362.49 124.43 365.01 122.89 369.95 120.29 372.54 118.46 375.08 117.33 379.64 113.61 388.82 108.78 391.05 107.99 393.92 105.71 397.22 104.06 401.79 100.93 403.32 98.59 405.62 98.3 408.43 97.6 411.01 95.66 413.54 93.22 419.46 90.57 420.58 88.91 421.65 88.17 425.1 86.24 438.36 78.14 440.78 76.97 444.38 74.28 448.75 70.4 450.57 69.68 451.85 69.49 453.08 67.7 456.68 66.43 459.62 65.78 467.81 60.04 469.34 57.72 470.85 54.69 473 52.47 475.76 51.17 478.03 50.99 479.77 49.26 482.33 47.83 485.13 47.26 487.38 44.97 490 44.06 461.51 75.57 459.53 77.5 458.05 79.93 456.98 82.77 454.78 84.48 452.82 86.44 449.36 90.46 448.78 93.55 447.25 95.7 446.46 98.56 446.21 101.95 445.33 104.71 443.3 106.32 441.22 111.73 439.87 114.13 439.62 117.16 440.87 120.5 441.33 123.05 439.81 125.13 437.47 126.5 435.88 128.62 435 134.58 435.05 137.86 433.95 140 433.04 142.44 433.17 145.91 432.81 148.66 431.64 150.58 430.75 152.76 431.23 158.43 435.2 169.33 435.62 172.09 435.1 174.36 434.97 177.03 435.34 179.87 440.08 185.84 441.65 188.84 444.05 195.9 444.46 198.41 446.02 204.06 453.68 216.41 456.07 219.37 460.86 225.85 461.99 227.8 488.81 259.85 487.59 258.57 485.8 256.28 483.37 254.89 480.09 252.28 472.28 247.49 470.54 245.97 469.57 243.79 466.28 242.66 461.04 237.72 454.83 235.12 452.77 234.05 450.65 232.01 448.64 231.26 447.25 229.76 442.85 225.89 437.15 223.26 434.95 220.95 431.57 220.37 429.68 218.81 426.52 217.71 419.66 211.05 413.97 207.55 411.45 205.71 410.18 203.75 408.41 202.19 406.17 201.51 402.04 199.21 400.23 197.46 394.03 194.45 390.9 192.2 388.61 190.15 385.96 188.46 384.96 186.7 380.42 183.6 377.18 182.13 374.8 180.58 372.53 178.27 370.23 176.39 365.02 173.14 359.69 169.31 
M 367.77 124.6 370.65 123.12 375.72 119.75 378.21 118.9 380.64 117.24 382.94 116.59 385.31 115.6 389.54 112.66 393.04 111.81 397.77 108.05 403.22 105.32 404.87 103.98 406.8 102.81 409.3 101.79 412.52 100.81 418.94 98.06 421.22 96.64 422.08 95.8 426.21 94.21 428.43 92.29 432.4 90.62 434.89 87.89 439.56 84.9 441.61 85.35 444.17 84.25 448.3 83.46 450.73 81.98 
M 365.3 128.87 370.52 126.31 376.52 122.97 378.95 122.22 381.41 120.98 384.16 119.9 389.96 118.82 394.07 115.54 396.73 114.19 398.57 112.98 401.42 111.49 407 109.67 411.8 107.32 
M 359.69 132.09 362.99 132.12 365.65 131.62 374.11 128.33 376.73 126.89 378.9 126.19 381.85 124.57 384.63 123.62 393.14 121.68 395.47 120.4 398.04 119.66 403.29 116.65 405.96 115.7 409.14 114.84 411.32 113.46 413.29 111.94 416.04 111.72 418.55 111.27 421.05 110.28 427.14 108.71 429.84 108.27 432.24 106.46 434.23 104.2 436.93 101.57 
M 363.17 134.33 365.85 133.94 373.95 131.86 376.93 130.64 379.44 130.08 382.28 128.66 388.85 127.04 391.9 126.49 394.13 125.68 399.55 124.42 401.66 122.02 404.48 120.71 406.5 119.56 411.58 117.42 417.48 117.2 420.35 116.77 421.94 114.98 425.07 113.59 427.63 113.15 435.22 109.24 438.05 108.56 
M 365.98 136.07 371.57 134.76 374.8 134.48 377.02 134.04 379.83 133.03 382.86 132.65 388.2 130.63 391.23 130.17 394.34 128.61 396.94 128.8 399.06 128.36 404.88 125.38 408 123.37 410.71 123.24 413.41 122.77 419.72 122.39 
M 369.02 137.67 375.15 136.8 380.22 135.88 383.7 135.56 386.26 135.02 389.07 134.81 391.8 133.43 396.74 132.83 
M 363.18 140.97 365.93 140.51 372.18 140.31 380.57 138.48 383.44 138.72 387.09 138.08 389.74 138.22 392.77 137.93 398.28 138.42 401.16 137.83 406.76 135.6 410.13 134.64 412.67 133.12 415.88 132.81 
M 369.13 142.64 372.28 142.63 375.54 143.01 380.6 142.01 383.47 142.14 393.43 141.51 395.84 142.42 398.26 142.88 401.82 143.04 411.96 141.28 414.78 140.48 417.14 141.17 420.37 141.67 422.29 140.45 423.67 139.2 
M 366.83 145.72 369.68 145.47 372.76 145.76 377.42 146.53 380.18 146.49 384.3 146.11 387.82 146.45 390.58 146.4 393.37 145.76 396.36 145.91 398.74 146.44 401.86 146.37 404.98 145.97 408.65 146.92 412.23 147.2 415.4 146.61 417.16 146.8 
M 359.69 147.42 363.82 148.34 370.02 148.59 372.7 148.87 375.03 149.88 380.15 150.04 384.41 149.98 391.3 150.5 393.97 149.94 400.64 149.3 406.37 151.13 
M 363.57 150.76 370.08 151.31 373.07 152 375.51 152.82 380.62 153.64 383.85 153.17 387.45 153.14 390.87 153.34 393.42 154.43 396.36 155.22 399.78 154.78 402.06 155.23 
M 363.18 153.23 366.27 153.87 369.27 154.02 372.47 154.76 375.3 155.7 378.33 156.13 381.27 156.74 384.14 156.64 390.45 156.79 393.01 157.78 397.82 159.17 401.11 159.48 403.33 159.45 407.25 161.16 410.26 162.22 412.98 162.88 417.43 162.16 
M 365.85 156.32 368.43 157.13 371.34 157.7 374.64 158 377.69 159.53 380.62 160.19 390.22 160.84 392.76 161.65 395.02 162.75 397.43 163.49 400.57 164.26 403.65 164.45 406.54 166.26 
M 362.96 157.92 365.87 158.72 368.31 159.65 374.55 161.2 381.03 163.41 383.79 163.35 389.06 164.89 394.34 166.98 400.47 168.5 402.7 169.55 407.32 170.24 410.83 170.42 
M 362.93 160.17 368.6 162.01 371.68 162.83 375.09 164.27 377.74 165.9 385.66 167.92 387.64 168.09 390.6 169.18 396.63 172 401.7 173.88 404.29 175.52 407.96 177.15 410.63 177.11 417.12 176.24 419.63 177.18 422.9 179.97 426.25 182.28 428.7 183.14 430.91 183.42 435.33 184.71 438.59 186.09 
M 368.57 164.74 371.52 165.74 374.21 167.57 380.48 170.34 382.85 170.63 388.26 171.72 391.18 172.7 393.46 174.12 398.47 176.72 400.36 178.03 405.89 181.2 408.89 182.35 411.77 182.74 415.06 182.54 418.87 182.84 
M 359.69 162.74 371.23 168.69 373.97 170.33 376.76 172.28 378.77 173.94 388.24 175.79 391.43 176.91 393.13 177.77 396.99 180.82 399.71 182.11 405.33 185.33 408.01 185.82 410.18 186.86 
M 365.86 168.47 374.11 173.61 376.1 175.14 377.52 177.11 380.38 178.51 383.48 179.32 386.99 179.4 389.42 180.23 391.55 182.2 394.1 184.11 399.95 187 402.19 188.59 404.59 189.95 410.44 192.18 411.85 194.05 414.74 195.56 416.69 197.05 419.63 198.74 422.47 200.05 424.37 201.72 
M 359.69 167.12 362.91 169.09 368.01 172.69 373.24 175.63 377.19 179.9 379.86 181.1 382.66 181.98 385.22 183.02 388.96 186.35 392.13 187.87 395.2 190.27 398.6 191.63 406.19 196.38 409.4 197.6 412.02 199 413.27 199.97 414.75 201.84 416.82 203.35 418.3 204.75 
M 59.64 153.51 61.29 150.42 63.56 147.56 67.23 144.89 72 142.52 81.64 138.66 98.16 130.84 104.81 128.22 112.23 125.57 119.32 123.61 131.25 120.79 136.45 119.76 143.02 118.86 146.69 121.24 148.44 123.92 150.43 126.56 152.65 129.16 154.42 131.84 155.54 134.61 156.42 137.43 157.15 140.27 156.94 143.26 157.1 146.19 156.99 149.16 155.81 155.26 156.12 158.16 156.03 164.09 155.48 167.13 154.25 170.28 151.75 173.55 138.12 173.14 128.06 172.41 110.78 170.48 103.61 169.38 96.98 168 85.34 166.13 79.92 164.84 74.95 163.41 70.54 161.78 
M 131.07 138.1 131.45 140.53 130.6 143.02 129.75 145.3 126.21 151.34 126.41 154.84 127.89 158.3 128.57 160.35 128.51 162.81 109.65 162.31 
M 94.2 161.4 83.52 159.74 
M 68.24 161.72 59.03 159.01 56.93 158.19 55.77 156.2 56.44 153.93 58.57 153.03 60.62 153.96 70.71 161.47 
M 66.34 164.83 60.62 168.21 58.26 168.76 56.32 167.42 56.11 164.99 57.7 163.33 69.31 161.58 
M 89.32 155.74 88.11 151.14 88.45 146.4 90.32 142.03 93.51 138.5 97.67 136.19 102.35 135.36 107.05 136.1 111.25 138.32 114.5 141.79 116.46 146.12 116.9 150.85 115.78 155.48 113.21 159.48 109.49 162.44 105.01 164.03 100.26 164.08 95.74 162.58 91.96 159.69 89.32 155.74 
M 89.15 155.33 88.57 153.64 88.2 151.89 88.05 150.1 88.12 148.32 88.42 146.55 88.93 144.83 89.65 143.19 90.57 141.66 91.66 140.24 92.93 138.98 94.34 137.88 95.88 136.96 97.52 136.24 99.24 135.73 101 135.44 102.79 135.36 104.57 135.51 106.33 135.88 108.02 136.46 
M 90.86 154.62 90.35 153.15 89.9 150.07 89.97 148.51 90.28 146.79 
M 93.72 140.81 95.39 139.41 96.73 138.61 99.65 137.54 101.19 137.28 104.31 137.35 107.31 138.17 
M 92.57 153.91 91.87 151.35 91.76 150.03 92.08 147.23 
M 94.86 142.29 96.43 140.94 97.58 140.26 100.07 139.35 102.71 139.07 105.34 139.45 106.6 139.89 
M 94.29 153.2 93.93 152.16 93.61 149.99 93.86 147.73 
M 96.1 143.66 97.48 142.47 98.43 141.91 100.49 141.15 102.67 140.92 103.77 141.02 105.89 141.6 
M 97.22 152.18 96.74 150.34 96.9 148.39 
M 98.32 145.92 98.9 145.28 100.56 144.36 102.43 144.03 104.31 144.32 105.99 145.21 107.3 146.6 108.08 148.33 108.25 150.22 107.81 152.07 106.78 153.68 105.29 154.86 103.5 155.49 101.6 155.51 99.79 154.91 98.28 153.76 97.22 152.18 
M 99.85 144.75 99 146.46 
M 97.91 148.64 96.85 150.76 
M 101.52 144.19 99.99 147.25 
M 99.14 148.96 97.4 152.44 
M 102.95 144.11 100.96 148.11 
M 100.37 149.28 98.19 153.63 
M 104.24 144.31 101.88 149.04 
M 101.6 149.6 99.18 154.44 
M 105.35 144.87 100.26 155.07 
M 106.37 145.61 101.45 155.46 
M 107.28 146.58 102.82 155.5 
M 107.94 148.04 104.37 155.19 
M 108.25 150.2 106.34 154.03 
M 60.13 152.49 63.54 155.9 
M 62.32 149.12 66.48 153.29 
M 65.16 146.4 69.94 151.18 
M 68.55 144.23 72.93 148.61 
M 72.29 142.41 77.25 147.37 
M 76.25 140.8 81.04 145.6 
M 80.23 139.22 83.68 142.67 
M 84.09 137.52 88.83 142.26 
M 87.85 135.72 91.44 139.31 
M 91.58 133.88 95.23 137.54 
M 95.38 132.12 99.18 135.92 
M 99.24 130.42 104.47 135.65 
M 103.23 128.85 108.49 134.12 
M 107.28 127.34 111.27 131.33 
M 111.38 125.88 116.46 130.96 
M 115.68 124.62 119.3 128.24 
M 120.06 123.44 122.86 126.23 
M 124.57 122.38 127.46 125.27 
M 129.06 121.31 132.29 124.54 
M 133.63 120.32 137.61 124.29 
M 138.34 119.47 141.94 123.06 
M 143.8 119.37 148.52 124.08 
M 73.88 150.08 73.96 147.68 73.56 144.78 72.92 143.6 71.68 142.68 
M 88.31 148.41 87.46 147.8 86.38 146.47 85.98 145.13 85.78 143.67 
M 63.01 148.25 63.39 148.85 65.13 150.6 
M 152.42 172.33 152.4 172.69 
M 79.27 141.91 79.87 142.45 80.63 143.63 82.01 145.15 83.32 146.13 85.14 146.81 
M 130.28 172.57 129.7 171.82 129.66 170.94 129.98 170.43 130.86 169.89 
M 65.42 147.63 65.77 147.91 66.32 148.78 
M 102.36 135.11 102.68 135.41 
M 112.99 163.82 111.58 162.88 111.25 162.43 110.85 161.36 
M 143.9 144.95 144.99 146.28 147.24 147.85 147.92 148.92 
M 82.21 161.95 80.84 164.01 79.98 164.86 
M 89.41 166.77 89.88 163.14 89.77 162.22 89.41 161.63 
M 130.29 123.45 130.46 124.3 131.92 125.18 
M 94.46 161.6 93.86 162.92 94.26 164.18 
M 137.03 168.72 134.79 168.37 133.82 168.48 132.59 168.98 131.19 169.9 130.91 169.92 
M 92.8 139.28 91.3 138.36 90.21 137.97 88.01 137.52 87.02 137.49 85.2 137.69 83.32 138.69 82.55 139.37 
M 65.15 157.32 66.01 156.18 66.85 154.6 67.49 154.11 69.94 153.01 70.43 152.65 71.61 150.63 
M 141.55 123.4 140.61 121.7 140.05 121.21 138.22 120.63 137.23 121.01 134.97 122.58 
M 152.51 131.24 153.01 130.88 153.79 130.89 
M 134.28 127.05 133.23 126.8 132.11 127.88 131.4 129.35 131.28 130.44 131.37 131.29 
M 127 133.49 128.68 135.27 129.19 136.43 129.09 137.04 
M 149.76 158.11 147.9 156.86 146.58 156.21 144.06 155.62 142.95 155.62 141.94 155.96 139.05 157.86 138.34 158.16 135.88 158.73 
M 102.8 129.02 103.55 128.75 
M 142.6 159.78 138.7 160.26 134.75 159.81 132.22 159.72 
M 60.97 150.98 62.57 151.98 
M 119.59 151.73 119.88 150.58 120.83 148.76 121.25 146.14 121.76 144.47 
M 154.91 143.49 154.75 141.39 154.15 140.24 152.3 137.63 151.46 135.09 150.62 133.33 150.28 131.75 
M 137.09 142.09 134.36 142.48 132.98 143.11 131.25 144.81 131.08 145.14 131.16 145.67 
M 66.39 157.06 66.97 155.44 67.45 154.81 70.37 152.99 71.22 151.84 71.89 150.3 71.89 148.24 
M 91.67 167.08 92.3 164.92 92.6 164.45 93.04 164.17 93.69 164.05 93.99 164.16 95.15 165.42 
M 128.5 161.49 130.31 160.74 130.63 160.29 130.49 159.83 
M 89.64 135.56 87.94 135.68 
M 85.1 137.04 84.36 137.67 
M 119.57 147.91 120.32 145.23 121.54 143.86 121.96 142.72 122.37 142.12 
M 152.66 162.69 152.42 162.32 152.27 161.31 151.41 160.15 
M 81.84 138.57 81.32 139.96 81.1 141.23 
M 151.83 156.85 149.95 155.2 148.03 154.49 142.86 154.47 142.03 154.73 141.37 155.16 
M 84.4 137.37 83.97 137.83 
M 149.29 165.74 149.92 163.41 149.89 162.95 149.48 162.25 148.3 161.58 146.39 161.05 142.2 160.39 
M 155.49 158.56 152.74 157.82 150.6 155.69 149.47 154.98 
M 152.53 136.88 152.01 135.12 151.19 133.65 150.9 132.84 150.8 131.5 150.93 131.08 151.71 130.49 153.4 130.29 
M 90.71 141.6 87.39 141.08 85.15 140.34 83.77 140.45 
M 65.43 157.53 67.03 154.67 67.66 154.18 69.94 153.11 70.85 152.22 71.62 150.79 71.83 148.89 
M 84.08 137.52 83.89 137.75 
M 102.4 166.6 102.19 167.95 101.77 168.99 
M 122.5 146.58 122.7 144.83 123.8 142.84 124.11 142.53 
M 71.88 162.91 65 169.77 62.77 171.69 61.48 172.49 60.09 173.1 58.65 173.53 57.16 173.76 54.17 173.62 51.36 172.77 48.84 171.34 43.09 167.48 40.64 166.22 38.1 165.2 36.76 164.91 34.02 164.9 32.64 165.1 30 165.92 32.63 165.02 33.99 164.73 36.8 164.58 38.2 164.79 40.87 165.67 43.45 166.81 49.47 170.34 51.85 171.52 54.4 172.12 56.96 172.09 59.4 171.38 61.56 170.07 63.43 168.24 67.04 164.03 69.91 160.94 
M 70.55 161.75 71.72 162.35 
M 63.61 160.34 63.43 161.07 63.68 162.45 63.92 161.33 64.55 160.62 
M 57.01 158.22 56.22 160.35 56.46 162.97 56.71 160.61 58.06 158.63 
M 70.53 162.04 71.78 161.65 
M 63.99 162.34 63.92 161.32 64.4 160.01 64.45 161.15 65.07 162.18 
M 57.72 163.33 57.21 160.63 57.9 158.09 57.74 160.46 58.94 163.1 
M 63.31 166.64 64.59 166.91 
M 67.31 167.38 70.74 167.73 73.63 167.77 76.55 167.59 79.49 167.21 85.34 166.13 
M 85.34 166.13 85.34 166.13 
M 72.93 166.81 71.74 165.89 
M 145.64 118.16 154.62 127.14 
M 151.49 116.59 158.84 123.94 
M 157.83 115.52 164.21 121.9 
M 164.44 114.71 174.49 124.76 
M 171.25 114.1 177.37 120.23 
M 178.09 113.53 188.31 123.76 
M 184.66 112.69 190.62 118.65 
M 191.24 111.85 198.02 118.63 
M 197.9 111.1 205.79 118.98 
M 204.73 110.5 210.85 116.63 
M 211.8 110.16 221.75 120.11 
M 219.04 109.99 225.65 116.6 
M 226.37 109.9 237.11 120.64 
M 233.81 109.92 242.02 118.14 
M 241.31 110 249.73 118.43 
M 248.73 110.01 259.26 120.54 
M 255.99 109.85 263.35 117.22 
M 263.42 109.87 271.45 117.9 
M 271.23 110.26 277.69 116.73 
M 279.25 110.86 286.16 117.78 
M 287.37 111.57 294.03 118.24 
M 295.57 112.36 306.45 123.24 
M 304.07 113.45 311.57 120.94 
M 312.97 114.92 319.43 121.38 
M 322 116.54 330.49 125.02 
M 330.91 118.04 340.38 127.51 
M 339.91 119.61 347.67 127.38 
M 349.65 121.94 355.97 128.26 
M 367.43 132.3 367.99 132.87 
M 153.59 171.14 154.62 173.21 
M 155.19 167.87 156.68 170.84 
M 156.25 163.5 159.56 170.11 
M 160.3 165.09 162.39 169.28 
M 156.65 138.34 157.65 140.33 
M 158.48 141.99 159.73 144.49 
M 154.71 127.96 162.7 143.94 
M 178.75 176.05 180.23 179.01 
M 156.76 125.57 165.72 143.49 
M 179.97 172 183.86 179.78 
M 159.75 125.07 168.76 143.08 
M 183.8 173.16 187.48 180.52 
M 162.75 124.58 169.38 137.84 
M 186.79 172.67 191.04 181.17 
M 166.6 125.79 167.43 127.45 
M 168.26 129.11 171.58 135.74 
M 189.82 172.22 191.48 175.54 
M 192.3 177.2 194.61 181.81 
M 192.92 171.94 195.4 176.91 
M 196.23 178.57 198.09 182.28 
M 203.2 173.03 204.03 174.68 
M 217.71 182.59 218.15 183.46 
M 188.62 117.92 189.45 119.57 
M 190.28 121.23 191.94 124.55 
M 193.59 127.87 194.42 129.52 
M 219.3 179.27 221.37 183.42 
M 190.1 114.4 195.91 126.01 
M 222.44 179.07 224.53 183.26 
M 192.3 112.3 193.96 115.62 
M 194.79 117.28 200.59 128.88 
M 224.64 176.97 227.7 183.09 
M 194.4 110.02 202.7 126.6 
M 227.57 176.35 230.85 182.9 
M 185.8 86.33 187.05 88.82 
M 197.83 110.37 202.8 120.32 
M 203.63 121.98 205.29 125.3 
M 230.99 176.7 232.65 180.02 
M 233.52 181.77 233.98 182.68 
M 188.86 85.95 189.27 86.78 
M 190.1 88.44 190.93 90.1 
M 201.71 111.65 202.54 113.31 
M 204.2 116.63 205.03 118.29 
M 191.76 85.27 193.84 89.42 
M 217.88 137.51 218.05 137.84 
M 194.43 84.12 195.68 86.61 
M 196.5 88.27 197.33 89.92 
M 237.8 170.85 239.62 174.49 
M 196.85 82.46 199.75 88.27 
M 241.21 171.18 242.04 172.84 
M 242.87 174.5 243.69 176.16 
M 244.52 177.81 245.35 179.47 
M 246.19 181.15 246.62 182 
M 199.06 80.4 201.13 84.55 
M 244.22 170.72 248.39 179.07 
M 201.67 79.12 202.91 81.61 
M 221.15 118.09 222.81 121.41 
M 247.08 169.95 251.83 179.45 
M 219.44 108.18 225.24 119.79 
M 226.07 121.45 226.9 123.1 
M 227.73 124.76 228.56 126.42 
M 250.12 169.55 254.26 177.83 
M 212.59 87.99 214.25 91.31 
M 221.71 106.23 230.83 124.47 
M 253.08 168.98 256.53 175.88 
M 211.31 78.95 214.63 85.58 
M 215.46 87.24 217.12 90.56 
M 218.78 93.87 219.61 95.53 
M 224.58 105.48 233.7 123.72 
M 256.27 168.85 259.4 175.13 
M 260.23 176.79 262.59 181.51 
M 213.92 77.68 223.04 95.92 
M 226.36 102.55 227.19 104.21 
M 228.02 105.87 237.14 124.11 
M 259.52 168.88 261.18 172.2 
M 262.84 175.51 266.11 182.06 
M 216.37 76.09 226.32 95.99 
M 228.81 100.96 238.76 120.86 
M 262.8 168.95 263.63 170.61 
M 266.12 175.59 269.33 182 
M 220.11 77.08 230.06 96.98 
M 232.55 101.95 233.38 103.61 
M 234.21 105.27 241.67 120.19 
M 266.54 169.94 272.54 181.93 
M 223.6 77.56 229.81 89.99 
M 237.28 104.92 238.93 108.24 
M 239.76 109.89 241.42 113.21 
M 245.57 121.5 246.4 123.16 
M 268.78 167.93 269.61 169.59 
M 270.44 171.25 275.74 181.85 
M 227.3 78.48 232.69 89.26 
M 247.62 119.11 252.59 129.06 
M 253.42 130.72 254.25 132.38 
M 271.66 167.2 278.95 181.77 
M 230.94 79.27 235.09 87.56 
M 248.35 114.1 255.82 129.02 
M 256.64 130.68 257.47 132.34 
M 276.54 170.48 282.14 181.68 
M 250.81 112.52 254.96 120.81 
M 255.78 122.47 259.93 130.76 
M 281.49 173.87 284.85 180.61 
M 252.36 109.13 263.14 130.69 
M 255.4 108.72 262.86 123.64 
M 263.69 125.3 264.52 126.96 
M 268.67 135.25 268.72 135.37 
M 244.93 81.3 246.59 84.62 
M 260.69 112.81 262.34 116.12 
M 263.17 117.78 265.66 122.76 
M 268.98 129.39 269.81 131.05 
M 271.47 134.36 272.1 135.63 
M 293.02 177.48 293.85 179.14 
M 246.64 78.22 249.96 84.86 
M 250.79 86.51 251.61 88.17 
M 264.05 113.05 267.37 119.68 
M 272.34 129.63 275.56 136.06 
M 291.41 167.77 297.87 180.68 
M 248.18 74.82 253.99 86.43 
M 273.06 124.57 273.88 126.22 
M 274.71 127.88 278.89 136.24 
M 293.78 166.02 295.44 169.34 
M 296.27 171 299.59 177.63 
M 300.46 179.37 300.91 180.28 
M 254.04 80.04 257.77 87.5 
M 276.84 125.64 282.21 136.39 
M 295.08 162.12 302.54 177.04 
M 258.83 83.13 260.07 85.62 
M 276.65 118.79 277.48 120.44 
M 280.8 127.08 285.64 136.75 
M 298.21 161.9 306.51 178.49 
M 275.55 110.09 278.04 115.07 
M 278.87 116.73 281.36 121.7 
M 285.5 129.99 289 136.98 
M 301.26 161.5 306.23 171.45 
M 307.06 173.11 307.89 174.77 
M 278.85 110.2 284.24 120.98 
M 287.56 127.61 289.21 130.93 
M 308.28 169.07 309.11 170.72 
M 282.56 111.14 287.12 120.26 
M 285.96 111.44 290.52 120.56 
M 298.81 137.15 298.85 137.23 
M 289.36 111.75 292.26 117.55 
M 300.55 134.14 302.62 138.27 
M 309.85 152.73 310.5 154.04 
M 292.77 112.08 293.18 112.91 
M 303.96 134.47 306.2 138.95 
M 307.37 134.8 309.44 138.94 
M 327.36 174.78 327.86 175.78 
M 309.97 133.51 310.8 135.17 
M 311.63 136.83 312.43 138.43 
M 330.6 174.76 330.9 175.37 
M 314.31 135.69 315.14 137.35 
M 331.72 170.51 333.94 174.96 
M 334.39 169.37 336.96 174.52 
M 337.11 168.31 339.99 174.07 
M 313.72 115.06 314.14 115.89 
M 334.04 155.68 334.87 157.34 
M 335.7 159 336.52 160.66 
M 339.84 167.29 342.99 173.59 
M 317.29 115.69 318.53 118.18 
M 335.94 153 337.6 156.32 
M 339.26 159.64 341.75 164.61 
M 342.57 166.27 343.4 167.93 
M 344.23 169.59 345.92 172.97 
M 320.85 116.33 322.09 118.82 
M 335.36 145.35 339.51 153.64 
M 340.33 155.3 344.48 163.59 
M 348.54 171.7 348.86 172.35 
M 337.27 142.68 338.1 144.33 
M 338.92 145.99 346.39 160.92 
M 339.97 141.6 348.26 158.18 
M 349.92 161.5 350.75 163.16 
M 341.85 138.86 342.68 140.52 
M 343.5 142.17 349.31 153.78 
M 350.14 155.44 352.62 160.41 
M 347.88 144.43 350.37 149.41 
M 351.19 151.07 353.68 156.04 
M 354.51 157.7 355.34 159.36 
M 349.79 141.76 352.28 146.74 
M 353.1 148.4 355.59 153.37 
M 355.84 147.38 356.67 149.04 
M 345.88 120.97 347.12 123.46 
M 362.88 154.96 363.71 156.62 
M 365.36 159.94 366.19 161.6 
M 366.9 163.01 367.2 163.6 
M 349.61 121.93 352.51 127.73 
M 365.77 154.27 368.35 159.43 
M 353.49 123.22 353.91 124.05 
M 365.51 147.26 367.17 150.58 
M 367.97 152.17 368.35 152.94 
M 357.48 124.7 357.89 125.53 
"/></svg>