<svg xmlns="http://www.w3.org/2000/svg" width="520" height="320"><rect x="0" y="0" width="520" height="320" fill="floralwhite"/><rect x="10" y="10" width="500" height="300" stroke="black" stroke-width="1" fill="none"/><path stroke="black" stroke-width="1" fill="none" stroke-linecap="round" stroke-linejoin="round" d="
M 120.46 95.38 142.92 89.5 154.14 86.83 165.35 84.4 187.77 79.94 198.98 78.14 210.2 76.82 221.41 75.82 255.04 75.33 266.26 76.19 277.47 77.91 288.68 80.03 322.32 86.98 333.53 89.57 367.16 98.55 401.77 107.25 
M 401.77 179.61 367.16 190.13 344.74 196.03 333.53 198.52 311.1 203.13 299.89 204.83 277.47 207.64 266.26 208.34 255.04 208.82 243.83 208.61 221.41 208.77 210.2 207.83 198.98 206.28 187.77 204.48 176.56 202.49 165.35 200.76 154.14 198.71 142.92 196.09 131.76 193.05 
M 123.82 99.41 122.36 94.88 
M 125.67 103.29 126.03 103.1 130.14 98.79 132.8 93.92 132.8 92.17 
M 122.41 95.03 127.83 96.13 
M 135.13 129.05 136.33 127.28 138.56 121.54 138.56 117.99 136.33 112.26 132.87 107.19 130.17 105.21 
M 131.48 116.1 134.85 115.81 
M 132.96 119.83 134.72 120 
M 134.02 123.89 134.57 124.02 
M 141.37 140.37 139.22 136.86 136.93 134.99 
M 131.85 92.95 132.36 92.71 132.98 92.12 
M 133.92 120.01 136.65 118.2 140.13 113.55 142.38 108.29 142.38 105.04 140.13 99.78 136.65 95.13 133.92 93.32 
M 131.43 104.13 137.93 102.44 
M 131.44 106.47 138.61 106.39 
M 131.49 109.55 137.82 110.7 
M 147.04 140.35 147.91 137.52 147.91 134.09 146.22 128.55 143.6 123.66 141.56 121.75 
M 139.37 132.79 145.04 131.26 
M 139.18 135.5 144.89 135.69 
M 140.25 139.09 144.68 140.13 
M 150.78 181.38 150.24 179.85 
M 140.23 109.06 143.38 107.53 147.4 103.61 150 99.17 150 96.42 147.4 91.98 144.48 89.13 
M 137.24 95.82 144.98 94.53 
M 137.27 98.15 145.1 98.16 
M 137.53 100.03 145.56 101.56 
M 147.3 134.15 147.92 133.75 151.44 129.24 153.71 124.13 153.71 120.97 151.44 115.86 147.92 111.34 145.17 109.58 
M 142.6 119.98 149.56 119.09 
M 142.72 122.63 150.04 122.98 
M 144.1 125.17 149.53 126.22 
M 153.36 140.32 151.64 137.7 149.36 135.97 
M 154.37 181.95 155.94 179.68 
M 149.07 98.09 149.53 97.84 152.58 94.51 154.55 90.74 154.55 88.4 153.78 86.92 
M 144.91 89.29 150.61 89.44 
M 146.85 91.86 151.35 92.14 
M 150.44 123 152.87 121.38 155.99 117.23 157.99 112.53 157.99 109.62 155.99 104.92 152.87 100.78 150.44 99.16 
M 148.46 109.17 154.19 107.23 
M 147.69 111.39 153.88 110.81 
M 148.49 113.23 154.2 114.8 
M 160.18 140.3 160.88 138.17 160.88 135.11 159.25 130.17 156.72 125.8 154.75 124.1 
M 152.58 133.68 157.61 132.53 
M 153.23 136.88 157.73 136.95 
M 153.3 139.63 158.17 140.02 
M 163.52 183.08 161.92 178.69 
M 157.76 182.37 160.74 181.05 
M 153.85 88.79 154.81 88.39 157.58 86.09 
M 155.33 111.54 157.99 110.07 161.39 106.29 163.59 102.01 163.59 99.36 161.39 95.08 157.99 91.3 155.33 89.82 
M 152.87 98.48 159.64 97.01 
M 152.76 100.62 159.27 100.29 
M 152.66 102.69 159.45 103.84 
M 159.16 136.26 161.7 134.63 164.96 130.45 167.06 125.71 167.06 122.78 164.96 118.05 161.7 113.87 159.16 112.23 
M 156.23 122.11 162.92 120.81 
M 156.8 123.79 162.81 124.37 
M 156.8 126.18 163.35 128.3 
M 165.21 140.28 163.55 137.83 161.33 136.19 
M 164.24 183.17 165.03 182.59 167.82 178.47 168.43 176.89 
M 162.14 96.29 163.5 94.34 165.05 90.4 165.05 87.97 163.78 84.74 
M 157.67 86.77 161.95 86.4 
M 156.93 89.24 162.71 89.63 
M 157.72 91.46 162.56 92.57 
M 166.3 123.55 166.7 123.25 169.46 119.08 171.24 114.36 171.24 111.44 169.46 106.72 166.7 102.55 164.55 100.93 
M 162.18 110.39 168.36 109.53 
M 162.47 113.06 167.88 113.17 
M 162.89 115.35 168.46 116.74 
M 172 140.26 172.85 137.79 172.85 134.95 171.27 130.38 168.82 126.34 166.91 124.76 
M 165.55 134.08 170.32 132.48 
M 164.99 136.27 169.69 136.28 
M 165.48 138.25 169.73 139.64 
M 175.72 184.36 175.72 183.04 174.17 178.39 172.92 176.26 
M 168.43 182.09 172.84 181.17 
M 164.58 89.54 167.08 88.43 170.29 85.6 171.88 83.14 
M 167.09 84.06 168.2 84.23 
M 168.29 112.35 170.79 110.84 174 106.98 176.07 102.62 176.07 99.91 174 95.54 170.79 91.69 168.29 90.18 
M 166.18 99.38 171.83 98.35 
M 165.64 100.81 172.76 100.9 
M 166.3 103 171.85 104.79 
M 172.21 136.62 174.69 135.03 177.88 130.96 179.93 126.36 179.93 123.5 177.88 118.89 174.69 114.83 172.21 113.24 
M 169.57 122.85 176.32 121.89 
M 169.62 125.11 176.35 124.45 
M 169.99 127.57 175.86 128.12 
M 177.42 140.24 175.41 137.48 173.44 136.12 
M 174.52 183.54 176.77 181.91 179.66 177.74 181.5 173.07 
M 177.48 175.43 178.17 175.61 
M 176.57 184.45 176.43 184.36 
M 171.38 99.22 173.55 97.82 176.33 94.24 178.12 90.19 178.12 87.68 176.33 83.63 175.41 82.45 
M 168.82 87.2 174.93 85.94 
M 169.07 88.51 174.62 88.83 
M 169.48 91.46 174.73 91.61 
M 179.2 125.22 180.16 124.49 182.9 120.28 184.66 115.51 184.66 112.56 182.9 107.79 180.16 103.58 178.02 101.94 
M 175.54 111.47 181.46 110.41 
M 176.17 114.04 181.07 114.51 
M 175.97 116.21 181.58 117.87 
M 184.86 140.21 185.82 137.76 185.82 135.06 184.11 130.69 181.44 126.83 179.36 125.32 
M 177.48 134.29 183.01 132.71 
M 176.91 136.44 182.99 136.77 
M 177.52 138.49 183.17 139.7 
M 187.98 185.82 188.03 182.75 186.44 178 183.98 173.81 182.85 172.85 
M 180.46 181.67 184.92 180.21 
M 180.34 184.35 185.2 184.55 
M 178.81 91.15 181.72 90.09 185.45 87.38 187.85 84.3 187.85 82.4 186.19 80.27 
M 176.29 83.8 183.47 83.42 
M 177.36 85.31 183.07 86.11 
M 182.04 113.58 184.76 112.1 188.24 108.32 190.49 104.03 190.49 101.37 188.24 97.09 184.76 93.3 182.04 91.82 
M 179.81 100.1 186.43 99.35 
M 179.15 103.08 186.2 102.31 
M 179.03 105.12 186.66 105.54 
M 185.72 137.57 188.32 136.02 191.65 132.03 193.79 127.51 193.79 124.72 191.65 120.2 188.32 116.21 185.72 114.65 
M 182.83 123.81 190.01 122.45 
M 183.69 125.75 189.75 125.87 
M 182.77 128.39 190.14 129.35 
M 190.11 140.19 188.55 138.27 186.38 136.95 
M 186.96 183.43 189.38 181.82 192.47 177.7 194.47 173.04 194.47 170.15 193.82 168.63 
M 188.96 171.5 190.68 171.56 
M 184.82 173.61 191.31 175.45 
M 191.46 186.21 191.16 185.83 188.83 184.34 
M 186.9 83.91 189.58 83.17 193.03 81.28 195.25 79.14 195.25 78.74 
M 188.22 79.87 191.39 80.09 
M 186.79 101.59 189.32 100.31 192.55 97.03 194.64 93.31 194.64 91 192.55 87.28 189.32 84 188.45 83.56 
M 184.49 90.41 190.51 89.58 
M 184.55 92.57 190.53 91.87 
M 184.04 93.87 190.57 94.79 
M 191.96 127.38 194.19 125.79 197.05 121.72 198.9 117.11 198.9 114.25 197.05 109.64 194.19 105.57 191.96 103.98 
M 189.81 113.79 195.21 111.77 
M 190.2 115.93 195.52 115.74 
M 190.02 117.95 195.82 119.16 
M 200.21 140.16 200.41 139.67 200.41 136.99 198.59 132.67 195.77 128.86 193.56 127.37 
M 191.05 136.27 196.87 135.38 
M 191.32 138.47 197.29 137.96 
M 191.53 140.08 191.98 140.19 
M 192.3 170.98 194.48 169.41 195.12 168.48 
M 200.36 187.2 200.85 185.83 200.85 182.96 199.19 178.34 196.63 174.25 194.63 172.65 
M 192.96 182.33 198.14 180.53 
M 193.04 184.57 197.43 184.26 
M 195.54 80.81 198.71 80.26 202.76 78.86 205.12 77.42 
M 198.51 78.22 200.98 78.43 
M 195.07 94.73 198.16 93.75 202.13 91.22 204.69 88.37 204.69 86.6 202.13 83.75 198.16 81.22 195.07 80.24 
M 192.05 85.94 199.74 85.75 
M 192.33 87.41 200.48 87.07 
M 193.89 89.27 200.54 89.34 
M 198.23 115.2 199.93 114.37 203.59 110.81 205.95 106.77 205.95 104.27 203.59 100.24 199.93 96.67 197.07 95.28 
M 194.25 103.17 201.21 102.78 
M 193.97 105.1 201.81 105.44 
M 194.27 107.71 201.53 108.24 
M 199.89 139.14 202.5 137.63 205.85 133.75 208.01 129.36 208.01 126.64 205.85 122.25 202.5 118.37 199.89 116.86 
M 197.81 126.25 203.69 124.96 
M 197.53 127.71 204.02 127.76 
M 197.08 130.48 203.63 131.24 
M 202.57 140.15 200.02 138.65 
M 200.35 184.08 202.85 182.52 206.06 178.54 208.12 174.04 208.12 171.25 206.06 166.74 203.8 163.93 
M 198.29 170.71 204.85 168.74 
M 198.13 172.32 204.82 172.79 
M 197.53 175.24 204.11 175.9 
M 204.9 187.65 203.78 186.27 201.42 184.82 
M 204.27 77.84 206.78 77.47 208.23 77.05 
M 203.77 88.25 206.08 87.59 209.34 85.75 211.44 83.66 211.44 82.37 209.34 80.28 206.08 78.44 203.53 77.72 
M 200.98 82.1 207.89 81.49 
M 201.23 82.93 207.43 82.59 
M 202.69 84.36 207.45 84.96 
M 203.05 105.1 205.61 103.9 208.89 100.84 211.01 97.37 211.01 95.22 208.89 91.75 205.61 88.68 203.05 87.48 
M 200.55 94.46 206.71 93.52 
M 200.87 95.95 207.26 96.77 
M 200.47 97.94 207.17 98.82 
M 207.24 128.47 208.7 127.48 211.53 123.65 213.35 119.31 213.35 116.62 211.53 112.28 208.7 108.45 206.5 106.96 
M 204.04 115.98 209.9 114.51 
M 204.01 118.38 210.25 118.21 
M 203.98 120.22 209.82 121.11 
M 213.96 140.11 213.96 138.69 212.26 134.39 209.61 130.6 207.55 129.11 
M 205.32 137.72 210.95 136.82 
M 205.89 139.79 210.85 139.58 
M 207.38 172.36 208.84 171.32 211.6 167.39 213.38 162.93 213.38 160.17 213.1 159.48 
M 204.75 163.55 209.68 164.95 
M 213.34 188.36 214.02 186.55 214.02 183.83 212.36 179.44 209.79 175.56 207.78 174.05 
M 206.06 183 210.65 182.04 
M 205.47 184.75 211.23 184.75 
M 206.24 187.58 207.7 187.93 
M 211.38 84.56 214.23 84 217.89 82.57 220.25 80.95 220.25 79.95 217.89 78.33 214.23 76.9 212.68 76.59 
M 208.53 79.87 216.45 78.9 
M 208.25 80.01 216.4 80.6 
M 209.03 80.92 216.35 81.53 
M 211.05 98.32 213.95 97.37 217.68 94.93 220.08 92.18 220.08 90.47 217.68 87.71 213.95 85.27 211.05 84.32 
M 207.8 89.76 215.8 88.83 
M 208.67 91.24 215.37 91.66 
M 209.8 92.91 216.12 93.66 
M 212.13 117.91 214.87 116.61 218.38 113.29 220.65 109.53 220.65 107.2 218.38 103.44 214.87 100.11 212.13 98.82 
M 209.79 106.32 216.17 105.52 
M 209.16 108.61 216.11 108.05 
M 209.02 109.99 216.25 111.08 
M 213.55 140.03 216.03 138.58 219.21 134.86 221.26 130.65 221.26 128.04 219.21 123.83 216.03 120.11 213.55 118.65 
M 211.14 126.89 217.55 126.44 
M 211.21 129.15 217.9 129.3 
M 211.49 131.8 217.74 132.16 
M 213.53 162.1 215.99 160.59 219.19 156.59 
M 213.82 140.11 213.53 139.93 
M 213.7 184.83 216.14 183.31 219.26 179.42 221.27 175.01 221.27 172.28 219.26 167.88 216.14 163.99 213.7 162.47 
M 211.14 170.96 217.62 170.22 
M 211.67 173.55 217.48 173.68 
M 211.19 175.66 217.77 177.41 
M 217.97 188.63 216.4 186.73 214.05 185.32 
M 218.95 80.44 221.15 80.05 223.96 79.06 225.78 77.93 225.78 77.23 223.96 76.11 223.04 75.79 
M 217.09 76.62 222.2 76.9 
M 216.97 78.05 222.1 77.18 
M 216.36 78.07 222.95 78.11 
M 218.77 91.64 221.03 90.88 223.93 88.94 225.8 86.74 225.8 85.38 223.93 83.17 221.03 81.23 218.77 80.47 
M 216.93 85.02 222.74 84.74 
M 216.82 86.12 221.93 86.54 
M 217.06 87.26 222.29 87.26 
M 219.84 107.75 221.16 107.11 224.13 104.21 226.05 100.94 226.05 98.91 224.13 95.63 221.16 92.74 218.84 91.61 
M 216.55 97.82 222.29 97.73 
M 216.82 99.59 222.96 99.62 
M 216.82 101.22 222.31 102.43 
M 220.13 129.33 222.18 127.96 224.81 124.46 226.5 120.5 226.5 118.05 224.81 114.08 222.18 110.58 220.13 109.22 
M 218.26 117.35 223.79 115.88 
M 217.76 119.19 223.48 119.25 
M 217.81 121.58 223.13 121.98 
M 226.07 140.06 226.07 138.79 224.47 134.54 221.98 130.79 220.04 129.33 
M 218.22 138.19 222.96 137.21 
M 217.86 139.74 220.63 140.08 
M 219.86 173.72 221.88 172.18 224.45 168.23 226.11 163.76 226.11 160.99 224.45 156.52 223.04 154.36 
M 217.89 159.78 222.7 158.8 
M 218.04 162.15 223.55 162.85 
M 218.16 164.58 223.06 165.49 
M 225.79 188.77 226.52 186.81 226.52 184.14 224.91 179.83 222.41 176.02 220.46 174.54 
M 218.44 183.17 223.41 182.2 
M 218.85 185.02 223.78 185.52 
M 218.74 187.56 223.17 188.81 
M 225.59 86.63 228.11 86.05 231.34 84.57 233.42 82.9 233.42 81.86 231.34 80.19 228.11 78.71 225.59 78.13 
M 223.38 81.4 229.55 80.72 
M 223.4 82.71 229.55 82.66 
M 224.14 83.44 230.05 83.37 
M 225.59 100.52 228.18 99.58 231.5 97.18 233.64 94.46 233.64 92.77 231.5 90.05 228.18 87.64 225.59 86.7 
M 222.69 92.24 229.41 91.48 
M 223 93.6 229.47 93.59 
M 223.1 94.75 229.48 96.02 
M 226.07 119.06 228.58 117.83 231.8 114.68 233.87 111.11 233.87 108.9 231.8 105.33 228.58 102.18 226.07 100.95 
M 223.71 108.2 229.97 107.66 
M 223.57 109.74 230.02 110.39 
M 223.32 111.58 229.83 112.67 
M 226.53 140.06 228.76 138.74 231.8 135.14 233.75 131.07 233.75 128.54 231.8 124.47 228.76 120.87 226.4 119.47 
M 223.69 127.63 230.51 126.42 
M 224.03 129.48 229.99 130.08 
M 224.38 132.13 230.37 133.08 
M 226.25 162.39 228.62 160.89 231.64 157.05 233.59 152.69 233.59 150 233.06 148.8 
M 225.85 151.2 230.44 151.11 
M 223.92 153.77 230.37 154.65 
M 226.44 185.12 228.8 183.61 231.82 179.74 233.77 175.36 233.77 172.65 231.82 168.26 228.8 164.39 226.44 162.88 
M 224.24 171.87 230.59 171.15 
M 223.73 173.57 230.43 173.63 
M 223.81 176.23 229.94 177.29 
M 230.38 188.7 228.89 186.91 226.56 185.5 
M 232.32 81.51 234.26 81.12 236.75 80.11 238.35 78.96 238.35 78.25 236.75 77.11 234.26 76.1 232.32 75.7 
M 230.45 77.68 235.86 77.9 
M 230.53 78.17 235.91 79 
M 230.25 78.9 235.57 79.52 
M 232.87 92.7 234.31 92.15 236.88 90.19 238.54 87.96 238.54 86.58 236.88 84.35 234.31 82.39 232.31 81.62 
M 230.09 86.05 235.08 85.1 
M 230.51 87.64 235.65 86.9 
M 230.24 87.95 235.36 88.83 
M 232.45 109.29 234.49 108.2 237.11 105.38 238.8 102.19 238.8 100.22 237.11 97.03 234.49 94.22 232.87 93.34 
M 230.04 99.88 235.58 98.44 
M 230.83 100.75 235.45 101.57 
M 230.89 102.91 235.42 103.44 
M 233.05 129.24 234.82 128.05 237.32 124.65 238.93 120.81 238.93 118.43 237.32 114.58 234.82 111.19 232.86 109.86 
M 230.78 118.02 236.44 116.56 
M 230.52 119.44 235.57 120 
M 230.69 121.28 236.29 122.2 
M 232.56 150.99 234.5 149.52 236.99 145.78 238.4 142.07 
M 238.6 140.02 238.6 138.91 236.99 134.67 234.5 130.92 233.05 129.83 
M 230.95 137.87 235.64 136.65 
M 235.98 140.03 236.12 140.01 
M 233.07 173.58 234.53 172.45 237.06 168.51 238.69 164.05 238.69 161.29 237.06 156.83 234.53 152.89 232.55 151.36 
M 230.16 160.61 236 159.38 
M 230.7 162.69 235.85 162.71 
M 230.36 164.87 235.52 166.28 
M 238.19 188.66 238.87 186.81 238.87 184.16 237.28 179.87 234.81 176.08 233.07 174.74 
M 231.35 182.95 235.61 181.8 
M 231.39 185.36 235.93 185.38 
M 230.91 188.01 235.5 188.66 
M 238.26 87.06 240.52 86.46 243.42 84.93 245.29 83.2 245.29 82.12 243.42 80.39 240.52 78.86 238.26 78.26 
M 236.34 81.72 242.34 80.88 
M 235.99 82.26 241.73 82.4 
M 235.68 83.52 241.97 83.66 
M 238.59 101.21 240.94 100.26 243.94 97.84 245.88 95.1 245.88 93.4 243.94 90.66 240.94 88.23 238.59 87.29 
M 235.97 92.86 242.78 91.79 
M 236.59 94.11 242.35 94.15 
M 236.51 96.12 242.1 96.41 
M 238.93 119.41 241.27 118.2 244.28 115.09 246.22 111.57 246.22 109.39 244.28 105.87 241.27 102.77 238.93 101.55 
M 236.66 109.16 242.33 107.56 
M 236.3 110.57 242.31 110.81 
M 236.21 112.1 242.36 113.31 
M 239.28 140.02 241.26 138.83 244.23 135.25 246.14 131.2 246.14 128.7 244.23 124.65 241.26 121.07 238.94 119.68 
M 236.87 128.08 242.3 126.58 
M 236.57 129.87 242.29 129.69 
M 236.25 132.12 242.57 133.1 
M 238.87 162.62 241.21 161.11 244.2 157.27 246.12 152.91 246.12 150.21 244.2 145.86 241.21 142.01 239.99 141.23 
M 236.15 149.17 243.08 148.38 
M 236.23 151.88 242.49 151.89 
M 236.52 154.11 242.95 154.96 
M 239 185.25 241.34 183.74 244.32 179.88 246.25 175.51 246.25 172.81 244.32 168.44 241.34 164.58 239 163.08 
M 237.04 171.97 242.66 170.45 
M 236.7 173.75 242.77 173.98 
M 236.3 175.99 242.66 177.9 
M 242.73 188.65 241.36 187 239.04 185.6 
M 243.9 80.81 245.65 80.39 247.9 79.31 249.35 78.09 249.35 77.34 247.9 76.12 246.57 75.48 
M 242.53 76.86 246.76 77.05 
M 242.4 77.36 246.76 77.45 
M 241.74 77.89 246.44 78.4 
M 245.19 92.7 246.36 92.18 248.72 90.11 250.25 87.77 250.25 86.32 248.72 83.97 246.36 81.91 244.51 81.1 
M 242.51 86.1 247.95 85.15 
M 242.65 87.36 247.45 87.33 
M 242.87 88.2 247.49 88.92 
M 245.53 109.38 247.03 108.51 249.49 105.68 251.08 102.46 251.08 100.47 249.49 97.26 247.03 94.43 245.19 93.37 
M 242.95 99.98 248.47 98.6 
M 243.14 101.59 248.51 101.22 
M 242.9 102.68 247.96 104.15 
M 245.45 129.23 247.19 128.03 249.64 124.65 251.21 120.82 251.21 118.45 249.64 114.62 247.19 111.24 245.29 109.92 
M 243.37 117.95 248.14 116.51 
M 243.92 119.6 247.92 119.51 
M 243.2 121.86 248.17 122.46 
M 245.07 151.17 246.98 149.7 249.43 145.92 251.02 141.65 251.02 139 249.43 134.72 246.98 130.95 245.45 129.77 
M 242.98 138.24 247.76 137.35 
M 243.08 140.58 248.16 140.51 
M 243.18 142.25 248.15 143.52 
M 245.56 174.11 247.25 172.78 249.74 168.85 251.35 164.41 251.35 161.65 249.74 157.21 247.25 153.28 245.3 151.75 
M 243.22 160.79 248.29 159.46 
M 243.48 163.47 248.73 163.33 
M 243.18 165.22 248.84 166.38 
M 250.52 188.74 251.25 186.78 251.25 184.14 249.66 179.86 247.2 176.09 245.56 174.83 
M 243.8 183.32 248.39 182.46 
M 243.7 185.22 248.68 185.11 
M 242.99 187.36 247.92 188.7 
M 249.8 86.38 251.93 85.75 254.66 84.13 256.42 82.29 256.42 81.15 254.66 79.31 251.93 77.69 249.8 77.06 
M 247.97 80.81 252.82 80.1 
M 247.69 81.63 253.02 81.94 
M 248.17 82.85 253.13 83.27 
M 250.71 101.11 252.94 100.14 255.79 97.64 257.63 94.81 257.63 93.06 255.79 90.23 252.94 87.73 250.71 86.75 
M 248.67 92.91 254.78 91.76 
M 248.2 94.27 254.21 94.21 
M 248.96 95.51 254.66 95.88 
M 251.25 119.36 253.49 118.15 256.35 115.02 258.19 111.48 258.19 109.29 256.35 105.75 253.49 102.63 251.25 101.41 
M 249.15 108.34 254.4 108.08 
M 249.11 110.13 255.08 110.49 
M 249.22 112.22 255.1 112.86 
M 251.24 140.13 253.49 138.73 256.37 135.14 258.22 131.08 258.22 128.57 256.37 124.51 253.49 120.93 251.24 119.53 
M 249.09 127.8 254.61 127.18 
M 248.88 129.77 255.22 130.18 
M 249.03 132.04 254.71 132.49 
M 251.3 162.68 253.6 161.17 256.54 157.31 258.44 152.94 258.44 150.23 256.54 145.86 253.6 141.99 251.3 140.49 
M 249.57 149.26 254.61 147.93 
M 249.26 151.52 254.9 151.88 
M 249.12 154.02 254.71 155.08 
M 251.46 185.29 253.75 183.78 256.68 179.93 258.58 175.56 258.58 172.86 256.68 168.49 253.75 164.64 251.46 163.13 
M 249.27 172.07 254.7 171.03 
M 248.84 173.75 254.78 174.41 
M 249.65 176.07 255.26 177.08 
M 255.21 188.79 253.75 187.01 251.45 185.62 
M 254.75 79.34 256.47 78.89 258.67 77.74 260.09 76.44 260.09 75.72 
M 252.79 75.49 255.52 75.37 
M 253.39 76.23 257.1 76.27 
M 252.9 76.45 257.87 77.06 
M 256.97 91.94 257.82 91.53 260.11 89.34 261.59 86.85 261.59 85.32 260.11 82.83 257.82 80.64 256.04 79.78 
M 254.09 84.74 259.14 84.62 
M 254.21 86.29 259.3 86.51 
M 253.95 87.73 258.97 88.44 
M 257.53 109.25 259.06 108.32 261.44 105.42 262.98 102.14 262.98 100.11 261.44 96.83 259.06 93.94 257.2 92.81 
M 255.66 99.01 259.79 98.31 
M 255.41 101.02 260 101.01 
M 255.68 102.65 260.67 104 
M 257.56 128.93 259.17 127.72 261.42 124.34 262.88 120.51 262.88 118.13 261.42 114.3 259.17 110.92 257.41 109.59 
M 255.65 117.86 260.06 116.32 
M 255.56 119.36 259.84 118.89 
M 255.87 121.7 259.93 122.58 
M 257.2 150.93 259.11 149.45 261.56 145.66 263.13 141.36 263.13 138.7 261.56 134.4 259.11 130.6 257.56 129.39 
M 255.5 137.67 260.62 136.33 
M 254.95 139.69 260.37 140.34 
M 255.36 142.38 259.97 143.77 
M 257.9 174.08 259.52 172.75 261.93 168.8 263.49 164.33 263.49 161.56 261.93 157.09 259.52 153.15 257.64 151.6 
M 256.1 161.08 260.25 159.62 
M 255.75 163.34 260.55 162.78 
M 256.22 165.57 260.28 166.49 
M 262.78 188.6 263.47 186.71 263.47 184.07 261.92 179.8 259.51 176.03 257.9 174.77 
M 255.49 183.53 260.67 182.01 
M 255.88 185.32 260.52 184.97 
M 255.82 187.82 259.49 188.68 
M 261.06 85.3 263.16 84.65 265.92 82.94 267.69 81.02 267.69 79.82 265.92 77.89 263.16 76.19 262.15 75.88 
M 259.39 79.86 264.27 79.35 
M 259.22 80.43 264.06 80.77 
M 259.13 81.32 264.37 82.29 
M 262.43 100.48 264.63 99.49 267.46 96.95 269.29 94.07 269.29 92.29 267.46 89.41 264.63 86.87 262.43 85.88 
M 260.71 91.24 265.92 90.79 
M 259.82 92.88 266.31 92.76 
M 260.5 94.92 265.82 95.34 
M 262.83 118.49 264.99 117.27 267.76 114.14 269.55 110.59 269.55 108.39 267.76 104.85 264.99 101.71 262.83 100.49 
M 260.39 107.58 266.2 107.18 
M 261.19 109.93 265.86 109.92 
M 260.87 111.19 266.37 112.04 
M 262.99 139.58 265.18 138.16 268 134.51 269.81 130.38 269.81 127.83 268 123.7 265.18 120.05 262.99 118.63 
M 260.98 126.53 266.42 126.12 
M 261.28 129.38 266.35 129.3 
M 260.96 131.56 266.97 131.89 
M 263.5 162.56 265.78 161.03 268.7 157.14 270.59 152.72 270.59 149.99 268.7 145.57 265.78 141.68 263.5 140.15 
M 261.71 148.87 267.34 148.23 
M 261.15 151.26 267.48 151.34 
M 261.06 153.95 267.01 154.83 
M 263.57 184.98 265.83 183.47 268.71 179.61 270.57 175.24 270.57 172.53 268.71 168.16 265.83 164.3 263.57 162.79 
M 261.21 171.63 267.64 170.68 
M 260.97 173.44 266.87 174.22 
M 261.55 175.71 267.23 177.38 
M 267.37 188.48 265.99 186.79 263.71 185.38 
M 265.78 77.98 267.61 77.51 269.28 76.66 
M 267.44 91.54 269.29 90.66 271.65 88.38 273.18 85.8 273.18 84.21 271.65 81.63 269.29 79.35 267.44 78.47 
M 265.91 83.93 269.94 83.12 
M 265.6 84.98 270.02 85.28 
M 265.49 86.09 270.71 87.31 
M 269.02 108.53 270.89 107.44 273.28 104.64 274.83 101.47 274.83 99.51 273.28 96.34 270.89 93.55 269.02 92.45 
M 267 99.13 272.33 98.11 
M 267.52 100.44 272.21 100.94 
M 267.24 101.82 272.48 102.51 
M 267.69 126.95 269.41 125.6 271.62 122.15 273.04 118.24 273.04 115.82 271.62 111.91 269.41 108.45 268.91 108.06 
M 267.13 114.52 270.6 114.32 
M 266.33 116.77 270.31 116.93 
M 266.16 118.71 270.93 120.29 
M 269.91 151.19 271.57 149.87 274.05 145.91 275.65 141.43 275.65 138.66 274.05 134.18 271.57 130.23 269.64 128.68 
M 267.98 138.14 272.89 137 
M 268.05 140.32 272.44 140.35 
M 267.41 142.14 273.02 143.33 
M 269.54 173.59 271.41 172.07 273.81 168.17 275.36 163.76 275.36 161.03 273.81 156.62 271.41 152.73 269.91 151.51 
M 267.87 160.56 273.01 158.89 
M 267.78 162.3 272.48 162.11 
M 267.87 164.99 272.66 165.28 
M 274.54 188.27 275.29 186.15 275.29 183.46 273.75 179.12 271.36 175.29 269.49 173.8 
M 267.98 182.3 272.6 181.15 
M 267.81 185.23 272.82 184.51 
M 267.85 187.34 272.75 187.67 
M 272.79 84.7 275.17 84.03 278.22 82.31 280.18 80.35 280.18 79.14 279.29 78.25 
M 270.41 79.14 276.45 78.07 
M 270.15 80.2 276.52 79.52 
M 270.78 80.76 276.27 81.05 
M 274.36 99.89 276.66 98.91 279.59 96.39 281.49 93.54 281.49 91.78 279.59 88.93 276.66 86.41 274.36 85.43 
M 272.06 90.75 277.73 90.7 
M 272.18 92.19 277.66 92.31 
M 271.68 94.45 278.28 94.93 
M 274.31 117.46 276.58 116.24 279.48 113.12 281.35 109.58 281.35 107.4 279.48 103.86 276.58 100.74 274.31 99.52 
M 272.42 106.79 277.51 106.01 
M 272.18 108.44 278.06 108.09 
M 272.06 110.77 278.3 111.63 
M 275.08 138.82 277 137.61 279.95 133.88 281.85 129.65 281.85 127.04 279.95 122.81 277 119.08 274.69 117.63 
M 272.32 126.53 278.86 124.92 
M 272.19 128.52 278.24 128.66 
M 272.82 130.32 278.21 131.77 
M 275.76 162.49 278.08 160.95 281.04 157.02 282.95 152.57 282.95 149.81 281.04 145.36 278.08 141.42 275.76 139.89 
M 273.44 148.57 279.22 148.19 
M 273.94 151.52 279.51 151.12 
M 273.87 153.84 279.08 154.46 
M 275.6 184.56 277.89 183.05 280.82 179.2 282.71 174.83 282.71 172.12 280.82 167.75 277.89 163.89 275.6 162.39 
M 273.12 170.96 279.28 169.74 
M 273.18 173.16 279.41 173.51 
M 273.76 175.34 279.12 176.51 
M 279.48 188.03 278.23 186.49 275.94 185.07 
M 280.81 90.89 281.79 90.47 284.4 88.22 286.09 85.67 286.09 84.09 284.4 81.54 281.79 79.28 279.74 78.4 
M 277.31 83.4 283.33 83.41 
M 277.59 84.53 283.33 84.78 
M 277.53 86.02 282.6 87.3 
M 281.24 108.14 283.13 107.08 285.55 104.34 287.11 101.24 287.11 99.32 285.55 96.21 283.13 93.47 281.24 92.41 
M 279.32 98.89 284.45 97.87 
M 279.43 100.27 284.45 100.46 
M 279.35 101.61 283.91 102.85 
M 281.17 124.97 284.03 121.35 285.74 117.39 285.74 114.94 284.03 110.98 281.38 107.49 279.3 106.13 
M 277.65 113.68 282.47 112.79 
M 277.72 116.02 282.91 116.61 
M 277.75 118.36 282.89 119.6 
M 282.14 151.68 284.09 150.12 286.59 146.1 288.2 141.55 288.2 138.73 286.59 134.18 284.09 130.17 282.14 128.6 
M 280.44 138.07 284.84 136.58 
M 280.73 140.61 285.24 140.32 
M 280.19 142.2 284.92 144.03 
M 282.03 173.03 283.69 171.75 286.18 167.89 287.79 163.52 287.79 160.81 286.18 156.44 283.69 152.57 281.73 151.07 
M 279.65 159.91 284.42 159.11 
M 279.61 162.46 285.29 161.99 
M 279.99 164.8 284.4 165.45 
M 287.07 187.48 287.66 185.87 287.66 183.18 286.06 178.82 283.58 174.97 282.03 173.77 
M 280.06 181.96 285.08 181.39 
M 279.45 184.89 284.85 184.05 
M 280.22 186.92 284.78 187.65 
M 286.37 85.55 288.98 84.93 292.32 83.35 294.48 81.55 294.48 81.26 
M 283.46 80.43 287.37 79.78 
M 283.6 80.66 290.24 80.78 
M 284.98 82.26 290.86 82.67 
M 287.01 99.88 289.42 98.94 292.52 96.51 294.52 93.76 294.52 92.06 292.52 89.31 289.42 86.89 287.01 85.94 
M 284.56 91.05 290.48 90.61 
M 284.42 93.28 290.67 92.84 
M 284.35 93.94 291.12 95.44 
M 287.01 117.81 289.45 116.59 292.57 113.45 294.59 109.89 294.59 107.69 292.57 104.14 289.45 101 287.01 99.77 
M 284.59 107.24 291.15 106.02 
M 285.09 108.33 291.11 109.18 
M 284.17 110.74 290.65 111.55 
M 287.59 139.53 290.04 138.08 293.18 134.37 295.2 130.16 295.2 127.56 293.18 123.36 290.04 119.64 287.59 118.19 
M 284.9 127.05 291.86 125.7 
M 285.22 128.73 291.67 128.65 
M 285.7 131.24 291.08 131.96 
M 288.32 162.54 290.67 161.02 293.68 157.12 295.61 152.71 295.61 149.98 293.68 145.57 290.67 141.68 288.32 140.16 
M 286.1 149.21 292.52 147.95 
M 286.34 151.39 292.23 151.04 
M 286.34 153.75 291.78 154.78 
M 288.11 184.6 290.44 183.11 293.43 179.27 295.36 174.92 295.36 172.22 293.43 167.88 290.44 164.04 288.11 162.54 
M 285.9 171.01 292.24 170.29 
M 285.99 173.59 292.14 173.11 
M 286.2 175.8 291.76 176.75 
M 291.16 187.17 290.59 186.47 288.31 185.05 
M 293.68 92.01 295.83 91.26 298.58 89.35 300.35 87.19 300.35 85.85 298.58 83.69 295.83 81.79 294.08 81.18 
M 291.44 85.49 296.76 85.3 
M 291.27 86.17 297.6 86.18 
M 291.19 88.08 297.03 88.2 
M 293.87 107.75 295.34 106.94 297.88 104.13 299.52 100.95 299.52 98.98 297.88 95.81 295.34 93 293.36 91.9 
M 291.19 98.66 296.14 97.26 
M 291.23 100.42 296.97 99.61 
M 291.31 101.93 296.97 102.48 
M 294.13 128.87 296.32 127.5 299.12 123.98 300.93 119.99 300.93 117.53 299.12 113.54 296.32 110.02 294.13 108.65 
M 291.95 116.72 297.8 116.02 
M 291.91 118.73 297.86 118.79 
M 291.89 120.63 297.31 121.31 
M 294.92 151.26 296.74 149.88 299.24 146.06 300.86 141.73 300.86 139.05 299.24 134.72 296.74 130.89 294.78 129.4 
M 293.31 138.42 297.82 137.55 
M 292.77 140.31 297.53 140.66 
M 293.04 142.48 297.51 144.05 
M 294.65 173.83 296.61 172.32 299.12 168.44 300.74 164.06 300.74 161.34 299.12 156.96 296.61 153.08 294.92 151.78 
M 292.66 160.22 298.05 159.48 
M 292.86 162.5 297.45 162.62 
M 292.54 164.96 297.9 165.7 
M 300.33 186.42 300.41 183.57 298.81 179.29 296.34 175.51 294.4 174.04 
M 292.52 182.89 297.1 181.88 
M 292.34 184.57 297.04 185.02 
M 300.53 87.04 303.07 86.47 306.33 85.02 307.62 84.02 
M 298.11 82.39 300.26 82.49 
M 298.41 84.17 304.54 84.47 
M 300.24 100.53 302.7 99.62 305.86 97.27 307.89 94.62 307.89 92.98 305.86 90.32 302.7 87.98 300.24 87.06 
M 298.23 92.82 304.47 91.55 
M 297.77 93.89 304.68 93.68 
M 298.17 95.21 304.23 96.29 
M 300.36 118.81 302.83 117.59 305.98 114.45 308.02 110.9 308.02 108.7 305.98 105.15 302.83 102.02 300.36 100.8 
M 297.88 108.38 304.49 106.96 
M 298.07 109.51 304.11 109.88 
M 297.8 111.34 304.67 112.26 
M 300.88 140.25 303.3 138.83 306.4 135.19 308.41 131.08 308.41 128.53 306.4 124.42 303.3 120.78 300.88 119.36 
M 298.72 127.28 304.54 126.77 
M 298.26 129.67 304.3 129.82 
M 298.58 131.91 305.21 132.88 
M 300.93 162.53 303.26 161.04 306.24 157.22 308.16 152.9 308.16 150.22 306.24 145.9 303.26 142.08 300.93 140.59 
M 298.62 149.43 305.02 148.47 
M 298.54 151.74 304.22 151.39 
M 298.39 154.17 304.63 154.62 
M 300.63 184.6 302.92 183.12 305.85 179.32 307.73 175.02 307.73 172.36 305.85 168.06 302.92 164.26 300.63 162.78 
M 298.12 171.5 304.23 170.85 
M 298.71 173.83 304.26 173.62 
M 298.33 176.05 304.15 176.92 
M 302.51 186.21 300.47 184.93 
M 307.22 93.18 309.25 92.44 311.84 90.54 313.51 88.4 313.51 87.07 311.76 84.87 
M 305.47 86.44 310.93 85.73 
M 305.47 87.48 310.32 87.33 
M 305.44 89.12 310.18 88.97 
M 306.7 108.91 308.75 107.83 311.39 105.06 313.08 101.93 313.08 99.99 311.39 96.86 308.75 94.09 307.16 93.25 
M 304.99 99.02 309.65 99.01 
M 305.19 100.54 310.43 100.83 
M 304.67 102.62 310.06 102.89 
M 307.69 129.12 309.24 128.07 311.79 124.63 313.44 120.73 313.44 118.31 311.79 114.41 309.24 110.96 307.25 109.62 
M 305.8 117.84 310.61 116.78 
M 305.11 119.06 310.6 119.34 
M 305.8 121.22 310.42 122.48 
M 307.35 151.32 309.29 149.86 311.77 146.11 313.37 141.87 313.37 139.24 311.77 135 309.29 131.25 307.69 130.04 
M 305.65 138.13 310.2 137.11 
M 305.81 140.21 310.65 140.54 
M 305.3 142.95 310.67 143.72 
M 307.06 173.53 308.86 172.11 311.28 168.28 312.84 163.94 312.84 161.25 311.28 156.92 308.86 153.08 306.96 151.59 
M 305.25 160.15 310.29 159.68 
M 305.41 162.76 310.2 162.82 
M 305.08 164.51 309.92 165.91 
M 312.22 185.21 312.22 183.28 310.7 179.07 308.35 175.36 307.06 174.34 
M 305.01 181.99 309.9 181.78 
M 304.65 184.38 309.86 184.93 
M 313.48 87.67 315.83 87.1 317.89 86.09 
M 313.34 101.28 315.71 100.36 318.74 98.01 320.7 95.35 320.7 93.71 318.74 91.05 315.71 88.7 313.34 87.78 
M 311.27 93.23 316.87 92.15 
M 310.89 94.51 316.89 94.47 
M 311.5 95.87 317.64 96.85 
M 313.37 119.33 315.74 118.12 318.78 115.03 320.74 111.53 320.74 109.36 318.78 105.86 315.74 102.77 313.37 101.56 
M 310.65 108.86 317.42 108.1 
M 311.34 110.76 317.46 110.92 
M 311.4 112.38 317.14 113.13 
M 313.53 140.32 315.87 138.93 318.86 135.36 320.78 131.32 320.78 128.81 318.86 124.77 315.87 121.2 313.53 119.81 
M 311.25 127.73 316.82 127.05 
M 311.58 130.49 317.13 130.45 
M 311.47 131.88 316.94 133.12 
M 313.27 162.27 315.54 160.8 318.45 157.04 320.33 152.79 320.33 150.16 318.45 145.9 315.54 142.14 313.27 140.68 
M 311.27 149.31 317.02 148.01 
M 311.44 151.5 317.19 151.95 
M 310.85 153.63 317.31 154.95 
M 312.62 183.95 314.8 182.5 317.6 178.76 319.41 174.54 319.41 171.92 317.6 167.69 314.8 163.96 312.62 162.5 
M 310.79 171.03 316.32 170.12 
M 310.02 173.62 316.44 173.06 
M 310.37 175.24 316.42 176.16 
M 313.39 185.04 312.09 184.2 
M 319.67 93.41 321.56 92.64 323.98 90.68 325.54 88.46 325.54 87.72 
M 317.57 86.75 319.24 86.36 
M 318.19 87.49 323.02 87.84 
M 317.53 89.26 323.02 88.98 
M 320.04 109.47 321.69 108.54 324.17 105.77 325.77 102.63 325.77 100.68 324.17 97.54 321.69 94.77 319.76 93.69 
M 318.35 100.42 322.62 98.87 
M 318.09 101.39 322.54 101.94 
M 318.26 102.99 322.76 104.05 
M 319.78 129.37 321.7 128.05 324.17 124.66 325.76 120.83 325.76 118.46 324.17 114.63 321.7 111.25 320.04 110.11 
M 317.47 117.7 322.82 116.3 
M 318.1 119.91 323.12 119.2 
M 318.4 121.56 322.93 122.32 
M 319.74 151.18 321.67 149.73 324.14 146.03 325.73 141.83 325.73 139.24 324.14 135.04 321.67 131.34 319.74 129.89 
M 318.18 138.47 322.7 137.75 
M 317.72 140.28 322.69 140.77 
M 317.96 142.6 323.2 143.35 
M 319.01 172.96 320.83 171.5 323.16 167.76 324.66 163.51 324.66 160.89 323.16 156.65 320.83 152.9 319.66 151.96 
M 317.32 160.43 322.03 158.85 
M 317.68 162.11 321.64 162.69 
M 316.89 164.74 321.99 165.5 
M 323.39 183.61 323.39 182.26 321.95 178.14 319.71 174.49 317.97 173.07 
M 316.7 181.13 320.7 180.84 
M 316.04 183.38 320.57 183.56 
M 325.63 101.22 327.87 100.29 330.74 97.92 332.59 95.23 332.59 93.57 330.74 90.88 327.87 88.51 326.51 87.95 
M 323.46 92.68 328.76 92.13 
M 323.4 94.76 329.25 94.72 
M 323.82 96.22 328.77 96.03 
M 325.79 119.36 328.05 118.15 330.95 115.05 332.82 111.54 332.82 109.36 330.95 105.85 328.05 102.75 325.79 101.54 
M 323.36 108.44 329.68 107.36 
M 323.2 110.62 329.2 110.53 
M 324.07 111.75 329.03 112.75 
M 325.93 140.21 328.21 138.83 331.13 135.29 333.02 131.28 333.02 128.81 331.13 124.8 328.21 121.26 325.93 119.88 
M 324.07 128.41 330.05 126.91 
M 323.6 130.38 329.26 129.81 
M 323.36 132.09 329.7 133.07 
M 325.31 161.61 327.5 160.18 330.32 156.51 332.13 152.36 332.13 149.78 330.32 145.63 327.5 141.96 325.31 140.53 
M 323.62 149.34 328.59 148.18 
M 322.86 151.31 329.28 150.79 
M 323.6 153.09 329.12 154.63 
M 324.02 182.63 326.11 181.2 328.78 177.56 330.5 173.42 330.5 170.87 328.78 166.73 326.11 163.09 324.02 161.66 
M 321.69 169.85 327.08 168.6 
M 322.22 171.98 327.1 172.3 
M 322.09 174.65 327.33 175.04 
M 324.17 183.5 323.18 182.85 
M 331.92 92.56 333.34 91.98 335.58 90.12 
M 331.59 109.11 333.39 108.01 335.7 105.2 337.19 102.01 337.19 100.04 335.7 96.85 333.39 94.04 331.92 93.15 
M 330.25 99.15 334.05 98.23 
M 329.62 101.15 334.57 101.17 
M 329.37 102.67 334.45 103.6 
M 332.34 129.13 333.91 128.01 336.32 124.57 337.88 120.68 337.88 118.27 336.32 114.38 333.91 110.94 332.03 109.6 
M 330.01 117.89 334.87 116.85 
M 329.93 119.96 334.75 119.22 
M 329.86 121.66 334.68 122.81 
M 332.15 150.93 334.02 149.52 336.42 145.89 337.97 141.79 337.97 139.25 336.42 135.15 334.02 131.53 332.34 130.26 
M 330.63 138.35 335.44 137.57 
M 329.99 140.37 335.36 140.78 
M 330.47 142.58 335.28 143.4 
M 330.32 171.38 332.03 169.97 334.21 166.36 335.62 162.28 335.62 159.75 334.21 155.67 332.03 152.06 330.32 150.66 
M 328.43 158.71 332.75 157.79 
M 329.08 160.85 333.11 161.37 
M 329.02 163.14 332.85 164.12 
M 334.02 182.11 334.02 180.56 332.63 176.48 330.47 172.89 329.88 172.4 
M 327.13 179.61 331.57 179.13 
M 326.81 182.19 331.08 182.3 
M 337.32 100.42 339.47 99.49 342.22 97.13 343.99 94.45 343.99 92.79 343.66 92.29 
M 335.37 92.13 340.3 92.06 
M 335.24 93.41 340.38 93.63 
M 335.37 94.86 340.7 96.09 
M 337.63 118.86 339.79 117.63 342.55 114.49 344.34 110.93 344.34 108.73 342.55 105.17 339.79 102.03 337.63 100.81 
M 335.64 108.36 340.82 107.15 
M 335.38 110.31 340.95 109.36 
M 335.63 111.28 340.8 112.27 
M 338.01 139.77 340.2 138.4 343 134.9 344.81 130.92 344.81 128.47 343 124.5 340.2 120.99 338.01 119.62 
M 335.5 127.56 341.62 126.37 
M 335.93 129.98 341.38 129.89 
M 336.17 131.55 341.1 132.83 
M 336.76 160.25 338.85 158.86 341.54 155.31 343.27 151.28 343.27 148.79 341.54 144.76 338.85 141.2 336.76 139.82 
M 334.36 148.09 340.29 147.38 
M 334.38 150.1 340.15 150.13 
M 335.19 151.81 340.3 153.08 
M 334.78 180.74 336.81 179.33 339.41 175.72 341.08 171.63 341.08 169.1 339.41 165.01 336.81 161.4 335.12 160.22 
M 332.91 168.1 337.72 167.43 
M 332.35 170 337.84 170.76 
M 332.9 172.44 337.87 173.27 
M 335.3 181.91 334.17 181.17 
M 343.7 107.46 344.62 106.87 346.84 104.03 348.27 100.83 348.27 98.84 346.84 95.63 344.62 92.8 343.95 92.37 
M 341.22 98.56 346.1 97.35 
M 340.79 100.08 345.28 99.39 
M 340.85 101.61 345.47 102.41 
M 344 128.99 345.79 127.64 348.07 124.16 349.54 120.22 349.54 117.78 348.07 113.84 345.79 110.36 344 109 
M 342.73 116.64 346.72 116.02 
M 342.36 119.43 346.51 118.74 
M 342.27 121.24 346.73 122.03 
M 343.88 149.81 345.63 148.45 347.87 144.96 349.32 141.01 349.32 138.57 347.87 134.62 345.63 131.13 343.88 129.77 
M 341.96 138.06 347.05 136.32 
M 341.82 140.1 346.3 139.37 
M 342.27 141.95 346.85 142.34 
M 340.68 168.89 342.33 167.52 344.46 164.01 345.82 160.03 345.82 157.57 344.46 153.6 342.65 150.61 
M 340.2 156.68 343.21 155.43 
M 338.99 158.35 343.06 158.94 
M 339.37 161.03 343.41 161.76 
M 344.66 180.53 344.66 178.51 343.25 174.28 341.05 170.55 339.33 169.09 
M 337.65 177.56 342.01 176.52 
M 338.15 179.83 341.86 179.45 
M 348.59 99.08 350.66 98.17 353.32 95.84 353.83 95.05 
M 346.42 93.88 350.47 94.14 
M 348.86 117.6 350.9 116.37 353.53 113.22 355.22 109.66 355.22 107.46 353.53 103.89 350.9 100.75 348.86 99.52 
M 346.66 107.13 351.95 106.01 
M 346.51 108.48 351.81 108.93 
M 347.03 110.78 352.12 111.24 
M 349.31 138.48 351.33 137.12 353.91 133.65 355.57 129.71 355.57 127.28 353.91 123.35 351.33 119.87 349.31 118.52 
M 347.82 126.67 352.59 125.83 
M 346.91 128.25 352.18 128.07 
M 347.37 130.87 352.48 131.46 
M 347.57 158.39 349.56 157.02 352.11 153.52 353.76 149.55 353.76 147.09 352.11 143.12 349.56 139.61 348.8 139.09 
M 346.93 146.04 351.15 145.1 
M 345.78 148.12 351.24 148.53 
M 345.34 150.19 351.22 151.57 
M 345.47 179.13 347.53 177.69 350.16 173.99 351.86 169.81 351.86 167.22 350.16 163.03 347.53 159.33 345.47 157.89 
M 343.15 166.19 349.21 165.72 
M 343.36 168.72 349.18 168.41 
M 343.44 170.62 348.84 171.73 
M 346.36 180.23 345.83 179.89 
M 353.66 106.12 355.36 105.03 357.54 102.22 358.94 99.05 358.94 97.08 358.6 96.31 
M 352.61 96.21 355.36 95.46 
M 352.19 98.02 356.11 98.27 
M 351.93 99.75 356.44 100.19 
M 354.97 127.21 356.48 125.94 358.55 122.48 359.88 118.55 359.88 116.12 358.55 112.2 356.48 108.73 354.87 107.38 
M 353.54 114.91 357.48 114.49 
M 353.43 116.86 357.48 117.36 
M 353.37 119.2 357.01 120.69 
M 354.5 147.8 356.06 146.45 358.07 142.99 359.36 139.08 359.36 136.65 358.07 132.73 356.06 129.28 354.97 128.33 
M 353 136.16 356.85 134.85 
M 352.78 137.85 357.27 137.92 
M 353.12 140.09 356.79 140.43 
M 351.25 167.05 352.9 165.67 355.03 162.1 356.41 158.06 356.41 155.56 355.03 151.51 352.9 147.94 351.23 146.55 
M 350.05 154.54 354.15 153.78 
M 349.83 156.95 354.35 156.71 
M 349.34 159.23 353.76 159.81 
M 356.29 178.46 356.29 177.23 354.79 172.73 352.45 168.76 351.25 167.74 
M 349.24 176.48 353.73 174.85 
M 348.79 179.07 353.45 178.48 
M 359.35 97.23 360.38 96.78 
M 359.4 115.03 361.26 113.94 363.85 110.9 365.52 107.45 365.52 105.31 363.85 101.87 361.26 98.82 359.24 97.63 
M 357.13 104.62 362.21 103.32 
M 357.73 106.12 362.55 106.47 
M 357.54 108.36 362.96 108.85 
M 359 135.41 360.92 134.07 363.39 130.65 364.98 126.76 364.98 124.36 363.39 120.48 360.92 117.05 359.4 115.99 
M 357.51 123.86 361.9 123 
M 356.89 125.4 362.12 125.85 
M 357.22 127.62 362.35 128.66 
M 357.53 156.11 359.5 154.69 362.03 151.06 363.66 146.95 363.66 144.41 362.03 140.3 359.5 136.67 357.53 135.25 
M 355.42 143.59 360.55 142.73 
M 355.87 145.53 361.09 145.93 
M 355.98 147.99 360.27 148.56 
M 356.58 178.34 358.71 176.82 361.43 172.91 363.18 168.48 363.18 165.75 361.43 161.32 358.71 157.41 356.58 155.89 
M 354.67 165.3 360.38 163.8 
M 354.25 167.57 359.77 166.68 
M 354.51 169.52 360.19 170.7 
M 364.92 103.84 366.26 103.04 368.54 100.35 369.16 99.05 
M 362.36 97.43 367.09 98.87 
M 363.96 123 365.6 121.75 367.71 118.53 369.06 114.88 369.06 112.63 367.71 108.99 365.6 105.77 364.92 105.25 
M 362.59 112.21 366.35 111.06 
M 362.48 113.29 366.48 113.53 
M 362.82 115.18 366.78 116.43 
M 363.07 143.19 364.26 142.16 366.31 138.59 367.63 134.54 367.63 132.04 366.31 127.99 364.26 124.42 362.66 123.02 
M 361.31 130.94 365.31 130.36 
M 361.39 133.5 365.13 133.75 
M 360.98 135.4 365.48 136 
M 361.74 166.01 363.48 164.48 365.7 160.57 367.14 156.13 367.14 153.38 365.7 148.94 363.48 145.03 363.07 144.67 
M 360.71 152.55 364.62 151.8 
M 360.38 154.74 364.1 154.64 
M 360.04 156.56 364.8 158.03 
M 368.28 176.16 366.96 172.1 364.59 167.93 362.73 166.3 
M 360.82 175.87 365.8 174.37 
M 370.03 113.06 372.26 111.91 375.11 108.98 376.95 105.66 376.95 103.6 375.28 100.58 
M 367.72 102.82 373.66 102.44 
M 368.25 104.96 373.66 104.62 
M 367.83 105.99 374.04 107.13 
M 368.94 132.64 371.1 131.32 373.86 127.93 375.64 124.09 375.64 121.72 373.86 117.88 371.1 114.5 368.94 113.18 
M 366.61 120.86 372.74 119.77 
M 366.83 122.49 372.66 123.08 
M 366.45 124.97 372.42 125.92 
M 367.91 154.31 370.09 152.84 372.9 149.07 374.7 144.81 374.7 142.17 372.9 137.9 370.09 134.14 367.91 132.67 
M 365.76 140.94 371.56 140.01 
M 365.86 143.13 371.46 143.7 
M 366.02 145.93 371.04 146.59 
M 370.75 175.63 373.19 172.16 375.03 167.56 375.03 164.72 373.19 160.12 370.33 156.06 368.09 154.47 
M 365.62 163.94 371.9 163.06 
M 365.91 165.66 371.98 166.56 
M 365.94 168.85 371.64 169.25 
M 376.35 103.44 378.39 102.4 379.21 101.57 
M 375.31 121.69 377.28 120.46 379.8 117.3 381.42 113.73 381.42 111.51 379.8 107.94 377.28 104.78 376.29 104.16 
M 373.79 110.46 378.89 109.42 
M 373.05 112.59 378.81 112.62 
M 373.41 114.02 378.82 115.01 
M 374.06 142.15 375.82 140.9 378.35 137.3 379.99 133.22 379.99 130.7 378.35 126.62 375.82 123.02 373.84 121.62 
M 371.83 130.03 376.79 128.62 
M 372.2 132.4 377.1 131.81 
M 371.55 133.68 377.18 135.23 
M 373.39 165.35 375.36 163.8 377.89 159.83 379.52 155.33 379.52 152.55 377.89 148.05 375.36 144.08 374.06 143.05 
M 371.76 151.78 376.24 150.83 
M 371.51 153.57 376.57 153.53 
M 371.1 156.48 376.99 156.98 
M 379.57 173.73 378.8 171.39 376.39 167.2 374.5 165.57 
M 372.24 175.13 377.53 173.5 
M 382.86 113.42 385.32 112.29 388.46 109.39 390.49 106.1 390.49 104.44 
M 380.81 103.31 384.24 102.85 
M 380.12 104.81 387.2 105.39 
M 380.96 106.88 386.94 107.18 
M 381.56 132.82 383.98 131.5 387.08 128.13 389.08 124.31 389.08 121.95 387.08 118.13 383.98 114.76 381.56 113.45 
M 379.16 120.71 385.05 120.05 
M 379.12 123.33 385.45 123.27 
M 378.76 124.8 385.73 126.48 
M 380.56 154.49 382.99 153.03 386.1 149.29 388.1 145.05 388.1 142.43 386.1 138.19 382.99 134.45 380.56 132.98 
M 378.16 141.6 384.12 140.24 
M 378.34 144.02 384.07 143.52 
M 378.19 146.2 384.67 146.74 
M 385.62 172.37 387.83 167.51 387.83 164.71 385.88 160.18 382.84 156.19 380.47 154.63 
M 378.18 163.71 384.27 162.91 
M 378.01 166.11 383.94 166.25 
M 378.63 167.99 384.76 170.01 
M 390.63 105.39 391.88 104.78 
M 389.14 123.17 391.17 121.95 393.78 118.8 395.46 115.24 395.46 113.04 393.78 109.48 391.17 106.34 389.77 105.49 
M 386.93 112.62 392.83 111.02 
M 387.39 114.48 392.66 114.32 
M 387.13 115.63 392.07 116.78 
M 387.96 144.09 390.05 142.7 392.71 139.11 394.44 135.06 394.44 132.55 392.71 128.49 390.05 124.91 387.96 123.51 
M 385.91 131.57 391.62 130.28 
M 386.13 133.78 391.03 133.88 
M 385.52 135.88 391.48 136.45 
M 387.03 166.22 389.09 164.73 391.74 160.92 393.44 156.6 393.44 153.92 391.74 149.6 389.09 145.78 387.38 144.55 
M 385.38 153.36 389.92 152 
M 384.61 154.96 390.65 155.64 
M 385.22 157.33 390.61 158.33 
M 391.12 171.13 388.95 167.7 386.97 166.13 
M 396.26 114.29 398.64 113.18 401.77 110.21 
M 394.09 106.07 396.89 106.03 
M 393.92 107.64 399.87 109.04 
M 394.77 133.65 397.12 132.33 400.14 128.97 401.77 125.78 
M 401.77 122.18 400.14 118.99 397.12 115.63 394.86 114.37 
M 392.41 121.9 398.59 120.85 
M 392.56 123.64 398.39 124.16 
M 392.91 126.4 398.76 126.81 
M 393.86 155.38 396.25 153.93 399.32 150.21 401.3 146 401.3 143.39 399.32 139.18 396.25 135.45 393.86 134 
M 391.82 142.63 397.89 141.9 
M 391.57 145.04 397.46 144.86 
M 391.62 147.03 397.78 147.78 
M 400.51 169.04 400.93 168.09 400.93 165.35 398.94 160.91 395.86 156.99 393.46 155.45 
M 391.04 164.81 396.88 163.31 
M 390.69 166.28 397.13 166.26 
M 391.29 169.39 396.35 169.97 
M 401.42 122.89 401.77 122.66 
M 399.85 112.62 401.77 112.04 
M 400.11 114.29 401.77 114.23 
M 400.1 115.91 401.77 116.32 
M 400.6 144.39 401.77 143.52 
M 401.77 124.46 400.55 123.55 
M 399.14 131.61 401.77 131.26 
M 398.65 134.37 401.77 134.06 
M 398.86 135.93 401.77 136.35 
M 399.88 166.79 401.77 165.33 
M 401.77 146.13 400.6 145.22 
M 398.37 153.9 401.77 152.9 
M 398.49 155.46 401.77 155.99 
M 397.79 158.03 401.77 158.47 
M 401.77 168.14 399.94 166.74 
M 138.54 189.69 139.64 186.8 139.64 184.17 137.81 179.58 
M 135.32 182.77 137.11 182.23 
M 139.28 185.47 141.53 183.87 142.79 182.08 
M 145.26 191.25 144.87 190.46 141.83 186.99 139.46 185.64 
M 132.98 92.12 132.98 92.12 
M 143.94 185.62 148.81 185.15 
M 144.32 187.13 148.86 188.92 
M 158.86 193.88 157.2 190.3 154.24 186.68 151.94 185.27 
M 153.82 193.05 155.7 192.77 
M 156 187.61 160.72 188.68 
M 162.85 184.19 164.24 183.17 
M 162.07 193.17 167.87 192.66 
M 168.43 184.4 172.43 184.43 
M 167.74 186.85 173.2 187.71 
M 183.18 197.52 183.57 196.64 183.57 193.97 181.67 189.66 178.73 185.85 176.57 184.45 
M 175.41 82.45 175.41 82.45 
M 182.06 196.26 183.98 194.62 186.44 190.43 187.98 185.82 
M 179.89 186.29 184.67 187.8 
M 194.88 199.28 196.07 196.63 196.07 193.96 194.14 189.64 191.46 186.21 
M 186.24 195.26 192.21 194.88 
M 186.77 197.19 192.25 198.54 
M 192.99 187.21 197.79 187.81 
M 199.01 199.88 197.43 197.63 195.52 196.27 
M 205.12 77.42 205.12 77.42 
M 198.99 192.94 204.84 191.84 
M 198.78 195.17 205.5 195.05 
M 198.95 197.19 204.93 198.31 
M 207.7 187.93 211.18 188.76 
M 212.3 201.44 209.68 197.63 207.77 196.3 
M 212.68 76.59 212.68 76.59 
M 218.7 201.92 219.4 201.09 221.33 196.99 221.33 194.45 219.4 190.35 217.97 188.63 
M 212.12 194.1 218.28 192.74 
M 211.77 195.44 217.45 196.14 
M 225.02 202.08 224.61 201.09 222.13 197.71 220.19 196.39 
M 224.32 194.11 230.7 193.04 
M 224.18 196.21 230.59 195.97 
M 235.5 188.66 236.45 188.8 
M 246.57 75.48 246.57 75.48 
M 249.18 193.4 255.24 193.05 
M 249.04 197.47 254.81 198.8 
M 255.52 75.37 255.52 75.37 
M 259.49 188.68 260.35 188.89 
M 261.88 196.12 267.7 196.09 
M 274.51 201.31 272.06 197.92 270.13 196.59 
M 281.24 200.76 283.06 196.8 283.06 194.25 281.17 190.13 279.48 188.03 
M 273.26 195.56 279.52 195.61 
M 273.26 197.41 279.95 198.69 
M 286.15 200.26 284.4 197.79 282.5 196.45 
M 294.21 199.36 295.41 196.75 295.41 194.2 293.52 190.1 291.16 187.17 
M 286.36 193.3 291.98 192.67 
M 286.57 197.67 292.17 199.08 
M 294.08 81.18 294.08 81.18 
M 294.74 195.5 296.34 194.28 298.81 190.5 300.33 186.42 
M 307.62 84.02 307.62 84.02 
M 298.63 193.3 304.01 192.39 
M 298.21 195.02 303.63 194.92 
M 298.49 197.23 303.15 198.27 
M 304.49 186.43 309.32 187.61 
M 308.55 197.55 308.06 196.83 306.27 195.5 
M 318.59 195.83 318.7 193.11 316.94 189.11 314.22 185.57 313.39 185.04 
M 309.83 194.16 315.99 194.1 
M 310.03 196.3 312.95 196.87 
M 319.36 195.69 318.07 194.66 
M 329.64 193.79 329.64 191.7 327.92 187.73 325.26 184.22 324.17 183.5 
M 321.2 191.01 326.25 189.89 
M 320.89 193.25 326.56 193.07 
M 320.97 195 322.42 195.12 
M 329.96 193.73 328.38 192.54 
M 343.66 92.29 343.66 92.29 
M 340.78 191.64 340.78 190.15 339.02 186.12 336.3 182.56 335.3 181.91 
M 332.09 191.51 337.24 191.49 
M 343.95 92.37 343.95 92.37 
M 340.15 189.84 341.05 189.08 343.25 185.35 344.66 181.12 344.66 180.53 
M 338.01 182.04 342.37 183.27 
M 340.38 191.72 340.18 191.58 
M 350.47 94.14 350.47 94.14 
M 352.67 189.04 350.93 185.07 348.07 181.34 346.36 180.23 
M 358.6 96.31 358.6 96.31 
M 351.46 189.32 352.45 188.47 354.79 184.5 356.29 180.01 356.29 178.46 
M 348.39 181.25 353.86 182.38 
M 363.97 186.33 363.25 184.65 360.34 180.76 358.08 179.24 
M 361.13 178.25 365.91 178.52 
M 374.77 183.51 372.38 180.23 370.14 178.69 
M 379.21 101.57 379.21 101.57 
M 390.49 104.44 390.49 104.44 
M 380.47 177.59 382.84 176.03 385.62 172.37 
M 384.98 179.74 386.64 180.22 
M 393.46 177.98 395.86 176.45 398.94 172.53 400.51 169.04 
M 396.35 169.97 397.33 170.08 
M 397.77 175.69 401.77 175.22 
M 221.41 75.82 221.41 75.82 
M 229.28 75.67 236.05 58.94 237.31 56.25 240.21 51.24 242.7 49.71 244.54 47.47 246.72 45.57 248.35 43.11 250.15 41.08 252.3 39.43 258.77 38.47 261.73 37.71 263.96 36.21 276.37 35.5 279.04 34.95 281.97 34.66 287.26 33.77 293.07 35.52 295.54 36.05 298.55 37.09 303.69 39.68 306.36 41.76 309.97 44.97 313.35 46.89 315.71 46.52 320.36 43.67 323.18 42.61 329.37 42.51 331.24 43.63 332.31 44.77 334.32 47.57 335.61 52.54 335.96 54.92 336.81 57.8 346.13 67.11 347.82 68.9 349.48 71.05 350.03 79.25 351.35 83.19 351.63 84.94 349.06 93.75 
M 344.74 92.58 344.74 92.58 
M 226.27 75.72 228.75 74.21 230.18 72.18 230.42 69.87 231.37 67.23 233.1 64.83 236.39 61.5 
M 231.13 75.63 232.76 74 234.29 71.75 235.49 69.09 236.9 67.02 237.75 65.14 238.93 63.36 
M 235.99 75.58 237.79 74.1 238.86 71.81 240.64 69.19 243.13 63.98 243.91 61.66 244.18 59.76 245.35 56.64 246.03 54.08 245.69 50.91 
M 240.85 75.55 243.34 74.32 244.37 71.09 247.46 63.24 248.71 58.84 250.22 55.86 250.44 53.31 
M 245.71 75.49 247.93 74.18 249.19 71.34 251.66 65.42 252.44 60.57 253.05 57.86 254.43 56.65 255.69 55.18 256.5 53.3 257.19 50.47 258.76 46.88 259.36 43.72 
M 250.58 75.41 252.18 73.89 253.28 71.25 254.91 68.66 255.87 66.12 256.54 62.84 257.53 60.9 258.41 58.4 259.88 56.6 260.84 54.74 260.8 51.53 261.66 49.02 
M 255.44 75.36 257.26 73.51 258.98 71.42 260.53 68.89 263.19 64.09 264.11 61.54 265.44 58.69 
M 260.28 75.73 264.15 72.22 265.95 70.24 267.32 67.9 268.67 64.44 269.5 61.62 270.04 57.83 271.13 55.15 272.93 53.74 276.5 48.35 277.61 46.39 
M 265.13 76.11 267.29 74.36 268.96 72.33 270.44 70.03 271.21 66.98 272.61 64.98 273.47 62.21 276.81 55.33 277.87 53.78 279.66 52.43 280.97 49.48 281.7 46.43 282.11 42.93 
M 269.95 76.76 272.21 75.2 275.19 70.3 277.52 66.04 278.92 62.54 279.75 59.25 281.3 56.18 282.78 54.37 285.06 52.64 286.69 50.57 288.47 47.83 290.7 42.41 292.3 40.09 
M 274.76 77.5 276.67 76.29 277.97 73.88 279.51 71.53 280.5 69.04 284.35 63.93 285.82 60.87 286.67 58.45 290.05 54.26 292.04 51.49 293.63 47.44 296.19 44.63 298.5 43.05 298.93 40.89 
M 279.55 78.3 281.55 76.86 285.91 70.32 286.89 68.02 289 65.03 292.8 61.27 294.13 59.07 
M 284.33 79.2 286.31 77.92 287.7 75.84 289.67 73.77 291.27 71.34 293.81 68.62 295.3 65.88 298.76 62.12 300.59 59.54 302.67 57.12 304.46 53.6 306.31 51.69 309.22 49.66 
M 289.1 80.12 291.31 79.13 293.04 77.23 294.85 74.89 296.17 71.87 298.21 69.12 299.8 66.04 302.23 64.15 303.67 62.53 304.71 59.09 306.73 56.65 310.84 53.53 311.88 52.06 
M 293.86 81.13 296.27 80.25 298.51 78.4 302.25 73.05 305.32 68.08 307.16 65.99 308.11 62.77 309.4 60.7 
M 298.61 82.14 301.16 81.06 305.7 76.79 307.22 74.63 307.63 72.28 309.26 69.84 311.66 65.16 313.62 62.82 315.18 60.45 
M 303.37 83.14 305.83 81.8 310.61 78.34 312.9 74.12 313.13 71.42 316.84 67.01 319.03 65.37 321.5 62.41 324.08 57.47 327.1 50.86 328.48 47.37 
M 308.13 84.12 310.98 82.86 313.37 81.29 314.8 79.05 316.85 76.84 318.31 74.82 319.69 72.12 321.37 69.36 323.71 66.4 325.41 65.19 326.28 63 328.09 60.72 329.78 53.93 331 51.36 
M 312.9 85.1 315.78 83.66 317.78 81.86 320.18 80.17 327.76 70.43 329.13 68.01 
M 317.66 86.05 320.97 84.66 322.5 82.85 324.83 80.67 326.85 77.74 328.81 75.72 330.38 73.22 331.97 71.78 
M 322.43 87 325.8 85.61 327.8 83.97 329.92 81.89 331.69 78.63 335.44 75.04 
M 327.17 88.1 329.71 87.11 336.64 81.16 337.92 79.23 
M 331.91 89.2 336.92 87.67 339.83 83.56 342.65 78.84 349.07 73.78 
M 336.62 90.4 339.66 90.52 342.3 89.42 344.3 87.29 345.97 84.64 
M 341.31 91.66 344.81 92.15 347.37 89.78 
M 136.15 138.67 257.89 138.78 257.9 139.76 136.2 142.01 
M 136.24 142.94 245.49 148.07 245.45 149.04 136.39 146.27 
M 136.38 147.23 232.89 156.24 232.81 157.21 136.38 150.54 
M 136.32 151.5 220.16 163.29 220.04 164.25 136.01 154.76 
M 135.93 155.71 207.39 169.21 207.23 170.17 135.6 158.95 
M 135.51 159.89 194.65 174.01 194.44 174.96 135.51 163.18 
M 135.6 164.18 182.01 177.7 181.76 178.64 135.79 167.48 
M 135.79 168.54 169.55 180.29 169.26 181.22 135.77 171.71 
M 135.8 172.91 157.34 181.8 157.01 182.71 135.88 175.94 
M 135.86 177.46 145.45 182.24 145.08 183.14 135.65 179.92 
M 244.9 140 241.72 140.63 240.23 141.11 238.86 141.75 237.62 142.59 235.51 144.81 233.73 147.52 
M 233.69 148.74 230.55 149.11 227.71 149.98 226.46 150.71 225.32 151.63 224.28 152.73 222.4 155.26 
M 222.3 156.48 219.23 156.58 216.42 157.21 215.16 157.82 214 158.64 212.93 159.64 210.96 161.99 
M 210.8 163.21 207.82 163.05 205.06 163.43 203.8 163.93 202.63 164.65 201.53 165.55 199.47 167.71 
M 199.26 168.92 196.39 168.51 193.69 168.65 192.44 169.04 191.26 169.65 190.14 170.45 188.01 172.43 
M 187.75 173.62 185.01 172.96 183.68 172.82 182.39 172.87 181.16 173.15 178.84 174.36 176.64 176.14 
M 176.33 177.32 173.73 176.43 171.22 176.11 170.01 176.28 168.83 176.68 167.68 177.28 165.44 178.86 
M 165.07 180.03 162.64 178.91 161.44 178.54 160.25 178.37 159.07 178.44 156.74 179.23 154.45 180.61 
M 154.03 181.76 151.79 180.43 149.53 179.68 148.39 179.64 147.24 179.83 146.09 180.23 143.76 181.39 
M 143.29 182.53 141.33 180.87 139.27 179.79 138.17 179.58 137.03 179.59 135.65 179.87 
M 243.28 140.28 240.23 141.11 238.86 141.75 237.62 142.59 236.51 143.62 234.6 146.13 
M 216.35 140.77 214.01 141.4 212.96 141.89 211.16 143.32 209.7 145.25 
M 189.42 141.25 187.07 142.04 185.81 143.03 184.79 144.37 
M 232.1 148.89 229.08 149.46 227.71 149.98 226.46 150.71 225.32 151.63 223.32 153.96 
M 207.78 148.27 205.47 148.71 204.41 149.11 202.58 150.37 201.05 152.16 
M 183.46 147.66 181.12 148.24 179.84 149.12 178.77 150.36 
M 220.75 156.5 217.78 156.8 216.42 157.21 215.16 157.82 214 158.64 211.93 160.78 
M 188.24 154.27 186.31 154.47 185.43 154.73 183.85 155.66 182.5 157.06 
M 209.3 163.09 206.4 163.15 205.06 163.43 203.8 163.93 202.63 164.65 200.48 166.59 
M 180.8 159.92 178.91 159.95 178.04 160.14 176.46 160.93 175.07 162.2 
M 197.81 168.68 195.01 168.48 193.69 168.65 192.44 169.04 191.26 169.65 189.06 171.4 
M 173.33 164.91 171.51 164.78 170.65 164.89 169.07 165.54 167.64 166.68 
M 186.37 173.25 183.68 172.82 182.39 172.87 181.16 173.15 179.97 173.66 177.73 175.21 
M 175.03 176.83 172.46 176.17 171.22 176.11 170.01 176.28 168.83 176.68 166.55 178.03 
M 210.2 207.83 213.54 213.44 215.28 217.64 218.57 220.54 221.59 222 240.61 251.85 240.26 255.12 240.19 258.67 239.52 261.62 236.57 262.58 227.53 261.74 225.31 263.35 222.51 264.51 219.6 263.48 213.08 259.52 198.49 242.86 184.13 217.91 182.63 215.91 180.49 211.99 176.56 202.49 
M 205.38 207.16 208.22 210.82 214.07 219.58 216.39 222.22 220.46 226.34 223.18 232.66 224.26 235.66 226.53 238.35 229.12 240.6 232.18 241.8 237.54 248.65 
M 200.56 206.5 203.28 210.12 206.94 216.06 210.54 220.88 212.31 223.7 214.87 226.47 216.83 228.95 218.96 235.52 222.83 240.49 225.57 243.41 227.77 246.44 227.9 251.19 229.34 253.07 
M 195.76 205.76 198.13 208.88 200.01 211.88 202.84 217.73 208.05 226.19 211.27 232.65 214.43 237.82 215.03 240.72 
M 190.96 204.99 192.95 208.24 195.86 213.94 197.26 217.03 201.08 222.41 202.66 225.46 202.96 228.8 204.31 232.41 207.92 238.31 
M 186.16 204.19 188.49 207.86 191.78 216.54 193.7 219.36 196.57 222.05 197.75 225.15 197.09 227.5 197.92 231.27 198.89 234.18 201.61 237.52 203.19 240.62 203.74 243.08 
M 181.37 203.34 183.43 207.38 186.04 214.08 187.63 217.2 188.36 220.74 189.27 223.93 190.46 226.32 193.06 230.65 
M 355.95 193.16 363.12 200.77 367.48 207.46 368.19 209.48 363.01 209.98 360.2 210.55 356.57 210.19 353.2 210.12 350.35 211.39 349.17 214.33 346.19 215.12 342.6 215.31 338.41 219.17 336.08 220.73 334.34 223.01 330.42 227.31 327.21 228.15 325.28 230.08 323.44 232.33 322 234.95 319.51 236.55 317.18 238.34 314.99 240.21 313.25 242.29 310.99 244.07 308.17 245.37 305.57 246.89 302.61 248.05 300.94 250.5 300.03 253.68 299.57 257.31 297.08 258.89 294.75 260.66 292.73 266.32 289.59 268.91 285.53 276.22 285.31 274.14 285.56 270.53 284.7 267.58 280.7 261.28 279.05 259.17 276.27 252.38 275.04 249.84 274.01 246.73 272.72 244.67 271.22 241.64 270.09 237.99 268.17 235.43 266.43 232.65 265.69 230.2 265.41 228.01 262.06 221.97 260.36 218.19 258.59 215.08 257.1 211.9 255.04 208.82 
M 351.24 194.37 355.19 198.11 358.08 201.14 360.37 204.75 362.13 208.75 
M 346.53 195.57 349.7 199.17 351.63 202.56 353.77 204.79 356.33 208.18 
M 341.8 196.69 345.46 201 347.45 203.98 348.48 206 350.73 209.15 
M 337.05 197.74 340.51 202.57 342.61 205.91 344.97 209.1 346.16 211.85 
M 332.3 198.77 335.5 203.42 338.02 206.44 340.14 209.42 
M 327.54 199.76 330.83 203.76 332.48 207.11 334.66 210.32 337.19 213.27 
M 322.78 200.74 325.59 205.27 327.82 208.39 331.76 213.24 334.45 215.29 336.52 219.3 
M 318.02 201.72 321.47 206.52 326.94 212.66 
M 313.25 202.69 316.83 207.23 321.82 212.93 323.96 215.94 325.73 219.6 
M 308.46 203.53 311.88 207.38 315.94 213.73 318.68 216.29 
M 303.66 204.26 306.36 208.01 308.18 211.55 310.36 214.41 313.07 216.94 315.47 220.51 317.83 223.1 319.95 226.16 
M 298.85 204.97 301.32 208.83 302.97 211.95 304.88 215.06 306.55 217.69 308.84 220.77 
M 294.03 205.6 297.08 209.29 300.48 214.91 302.23 218.14 303.85 219.97 305.48 222.6 307.14 225.95 310.83 229.76 314.78 234.87 
M 289.21 206.24 292.05 210.21 294.48 213.25 296.06 215.99 296.82 218.91 298.07 221.2 303.82 229.55 
M 284.38 206.82 286.8 210.51 289.07 213.43 290.66 216.65 291.98 219.81 293.63 222.59 295.46 225.27 296.93 228.22 299.78 230.44 
M 279.55 207.39 281.22 211.01 282.89 213.94 284.99 217.45 289.24 223.82 290.5 226.21 292.85 228.4 296.6 234.41 
M 274.71 207.81 277.99 214.65 282.08 221.41 283.04 224.5 286.69 230.3 288.23 231.54 290.18 234.12 292.11 237.31 
M 269.86 208.12 271.33 211.69 273.01 214.58 277.16 220.57 278.39 224.11 281.31 230.01 283.04 232.27 284.27 235.16 285.65 237.55 290.11 241.06 291.04 245.29 291.28 249.9 
M 265 208.39 271.7 220.85 274.22 226.85 277.8 231.49 280.82 237.38 282.33 239.82 284.46 242.14 
M 260.14 208.6 262.28 211.81 263.91 214.66 272.17 231.48 274.11 234.35 275.49 238.48 276.2 241.91 276.97 244.29 279 246.68 280.65 250.32 284.46 257 
M 400.8 107 403.94 106.09 406.7 104.62 408.84 102.96 416.69 98.35 418.82 96.9 430.26 91.39 432.95 89.59 436.62 87.55 438.83 86.06 444.24 82.89 449.61 78.25 452.32 76.45 454.3 76.56 456.87 75.44 460.82 74.21 463.48 72.38 467.15 71.6 469.59 69.73 470.62 68 472.72 66.89 475.17 64.57 478.04 62.32 481.27 59.21 484.47 58.23 486.43 56.86 488.27 54.94 488.41 53.93 489.25 52.67 474.14 77.15 471.79 78.89 469.75 80.93 467.3 82.56 465.69 85.03 464.67 87.91 464.22 90.98 464.04 94.32 463.06 96.97 461.32 99.13 460.58 102.3 459.06 104.7 457.71 107.26 456.76 113.83 456.59 119.13 455.88 121.32 455.51 123.95 455.57 130.22 456.51 134.44 454.93 136.15 454.2 138.82 454.16 142.22 452.67 144.68 450.53 146.49 450.28 149.31 452.85 155.21 452.36 157.47 452.19 160.03 453.17 163.03 454.96 166.85 454.45 169.13 454.15 171.72 454.66 175.13 455.72 178.36 457.5 181.92 459.03 187.2 460.07 192.19 464.08 206.33 465.46 209.53 468.58 213.74 473.2 219.45 490 242.04 487.74 240.63 484.24 237.65 481.36 236.17 478.72 234.57 476.99 232.09 474.94 230.46 473.1 230.27 471.45 228.79 466.89 224.12 463.4 223.02 460.07 221.04 457.39 219.1 451.88 216.5 449.73 214.48 447.34 213.4 438.55 207.91 435.41 205.41 430.67 202.25 428.97 200.54 426.85 198.81 425.01 196.78 423.34 195.39 420.62 193.65 417.49 192.1 415.11 190.17 412.31 188.42 409.56 186.22 403.72 182.24 400.8 179.91 
M 400.8 110.65 404.12 110.11 406.97 108.9 409.61 107.39 412.36 106.1 415.05 104.51 417.82 103.68 423.38 101.2 425.86 99.81 429.48 98.5 434.65 95.74 439.07 93.86 441.44 92.5 446.01 88.83 448.5 85.77 451.06 85.16 457.34 82.9 458.57 81.05 460.91 78.94 
M 404.46 114.12 407.48 113.36 413.1 110.93 415.85 109.53 421.82 107.29 426.67 104.33 429.43 104.09 432.35 102.79 434.86 102 437.55 101.48 441.17 99.94 443.69 99.71 448.32 94.93 
M 404.62 117.96 410.76 116.56 413.28 114.7 416.21 113.5 418.68 112.29 424.09 110.11 426.89 109.66 429.97 109.61 432.69 108.31 
M 410.32 120.52 413.51 119.19 419.7 116.11 422.58 115.53 425.24 114.63 428.74 114.74 431.55 113.44 434.8 113.35 437.66 112.42 439.28 111.48 441.8 110.63 450.31 106.19 
M 400.8 125.23 407.32 124.85 410.17 124.44 416.66 122.53 419.94 120.88 426.03 120.56 429.63 119.34 432.76 119.02 
M 404.67 129.41 410.81 128.67 414.02 127.74 416.99 127.2 420.43 126.13 423.09 125.09 426.51 124.34 430.09 123.8 433.27 123.53 
M 408.11 133.44 411.19 133.41 418.09 132.54 421.62 131.76 424.82 130.77 428.1 130.07 431.46 130.5 436.94 129.38 443.14 129.16 
M 400.8 136.17 408.27 137.44 415.14 137.96 418.79 137.68 425.26 136.57 431.79 137.71 434.09 137.22 435.34 136.58 438.09 135.73 
M 400.8 139.81 405.04 140.54 408.53 140.94 414.98 141.17 422.12 142.34 425.94 142.69 428.46 142.41 430.17 141.99 433.32 142.17 435.04 143.24 441.99 141.88 446.05 142.69 
M 408.98 144.56 412.7 144.88 415.83 145.68 422.74 146.64 424.87 147.32 426.68 147.51 428.79 148.49 
M 408.43 149.27 411.89 149.56 414.79 150.64 423.98 152.26 427.45 152.2 430.59 151.74 434.34 152.52 437.71 152.42 439.42 152.54 441.94 152.79 445.11 153.41 
M 410.92 153.75 414.06 153.9 417.43 155.11 421.14 156.19 423.96 157.55 427.88 157.56 432.06 156.8 437.71 158.59 
M 404.65 155.84 410.8 157.97 414.09 158.27 417.08 159.86 420.58 161.27 424.01 161.04 427.07 161.15 
M 404.27 159.91 417.83 163.99 421.79 164.32 424.49 165.48 426.8 166.14 430.27 166.03 433.69 166.64 437.07 167.94 440.38 170.27 443.56 171.77 445.84 172.49 
M 400.8 161.68 420.38 170.3 423.23 170.86 426.95 171.17 429.79 171.22 432.75 171.95 436.03 174.49 
M 404.28 167.12 410.67 170.13 418.78 175.12 421.69 175.82 425.24 175.64 428.71 175.84 
M 400.8 168.97 404.44 170.79 407 172.41 410.07 174.04 412.45 175.57 418.67 179.09 424.09 181.22 427.4 182.14 430.43 184.25 
M 400.8 172.62 404.39 174.66 406.93 176.41 415.43 181.32 421.36 183.88 423.29 185.92 425.79 187.74 428.82 188.75 431.71 190.29 434 192.48 
M 400.8 176.26 406.86 180.38 412.82 184.04 415.38 185.99 421.4 189.13 425.96 192.76 428.26 194.34 430.73 196.51 433.97 197.39 436.13 199.25 
M 48.98 138.27 49.49 136.81 50.88 134.35 52.72 131.63 54.96 128.94 57.92 126.56 66.8 120.82 76.09 113.9 81.42 110.61 87.31 107.76 99.31 102.72 110.08 98.77 120.46 95.46 124.43 100.12 126.38 105.11 128.59 110.06 131.04 114.99 133.02 119.97 134.31 125.03 136.23 135.23 136.11 140.45 136.39 145.63 136.38 150.84 135.36 161.37 135.8 166.53 135.91 176.93 135.45 182.2 134.25 187.54 131.76 192.95 119.56 192.04 110.62 190.67 102.53 188.77 95.08 186.24 88.24 183.4 82 180.57 76.1 177.4 70.6 173.65 65.9 170.09 61.8 166.34 58.51 162.36 
M 112.62 125.02 113.15 129.38 111.84 137.72 110.84 141.51 108.3 148.46 108.67 154.55 110.08 160.92 110.6 164.78 110.35 169.28 96.3 169.06 90.56 168.57 84.88 167.47 79.35 165.86 74.11 163.91 69.08 161.27 
M 56.94 161.39 53.72 156.44 46.61 143.65 45.72 141.31 46.5 138.97 48.76 138.15 50.92 139.38 51.9 141.7 52.62 144.03 55.24 153.36 57.13 158.02 58.63 162.31 
M 58.03 162.97 53.24 161.82 45.99 159.77 36.56 157.06 32.1 155.59 30.14 154.18 30 151.71 31.68 149.91 34.01 150.1 51.5 158.9 58.36 162.04 
M 75.43 133.26 74.63 130.24 74.86 127.13 76.08 124.25 78.17 121.94 80.91 120.42 83.98 119.88 87.06 120.36 89.83 121.82 91.96 124.1 93.25 126.94 93.53 130.05 92.8 133.09 91.12 135.72 88.67 137.66 85.73 138.7 82.61 138.73 79.64 137.75 77.16 135.86 75.43 133.26 
M 75.31 132.99 74.69 130.73 74.64 128.38 75.17 126.1 75.64 125.02 76.96 123.08 78.72 121.53 80.81 120.46 81.94 120.12 83.1 119.93 85.44 119.98 87.7 120.6 
M 77.11 132.25 76.61 130.45 76.54 129.52 76.73 127.66 77.02 126.71 
M 79.27 123.56 80.62 122.66 81.48 122.28 83.3 121.86 85.16 121.9 86.96 122.4 
M 80.62 130.92 80.3 129.71 80.39 128.47 80.59 127.99 
M 82.05 126.2 82.81 125.79 84.04 125.57 85.27 125.76 86.37 126.34 87.23 127.26 87.74 128.39 87.86 129.64 87.56 130.85 86.89 131.9 85.91 132.68 84.74 133.1 83.49 133.11 82.3 132.72 81.31 131.96 80.62 130.92 
M 82.21 126.12 82.13 126.28 
M 81.17 128.2 80.34 129.86 
M 83.93 125.59 83.11 127.24 
M 82.47 128.51 80.99 131.48 
M 85.3 125.78 84.07 128.23 
M 83.88 128.61 81.96 132.45 
M 86.44 126.41 83.15 133 
M 87.35 127.51 84.55 133.1 
M 87.84 129.44 86.42 132.28 
M 58.45 161.78 61.14 164.46 
M 54.97 152.46 56.61 154.1 
M 52.7 144.36 53.44 145.1 
M 50.03 135.85 55.17 140.99 
M 52.28 132.27 57.89 137.87 
M 54.88 129.03 58.43 132.58 
M 58.11 126.43 62.1 130.42 
M 61.62 124.1 65.56 128.04 
M 65.19 121.84 69.32 125.97 
M 68.64 119.45 73.48 124.29 
M 71.98 116.96 76.1 121.08 
M 75.32 114.47 78.65 117.8 
M 78.87 112.18 84.04 117.36 
M 82.57 110.05 87.98 115.46 
M 86.5 108.15 89.85 111.49 
M 90.57 106.38 94.59 110.41 
M 94.67 104.65 98.11 108.08 
M 98.79 102.93 102.36 106.5 
M 103.02 101.32 106.51 104.81 
M 107.29 99.77 111.66 104.14 
M 111.62 98.26 117.07 103.71 
M 116.03 96.84 120.64 101.44 
M 106.95 168.9 108.43 164.3 108.68 162.04 108.65 161.24 108.4 160.41 107.58 158.72 
M 62.92 124.47 62.16 123.75 
M 85.24 115.99 86.98 117.04 89.07 117.58 91.55 118.93 94.68 120.05 96.78 121.42 97.27 121.96 
M 58.09 150.02 58.86 149.58 59.96 148.61 60.52 148.36 64.12 147.61 66.23 146.67 67.02 145.45 67.2 144.64 67.19 143.62 
M 115.1 168.76 114.86 168.73 114.54 168.37 113.9 166.31 111.55 163.59 110.55 161.61 
M 127.48 145.75 128.86 145.34 131.02 145.21 131.56 144.71 131.69 143.96 
M 101.65 108.31 102.11 105.37 101.85 103.29 102.25 101.61 
M 100.59 105.52 101.51 101.89 
M 75.22 132.46 74.34 132.61 71.58 131.37 69.63 130.81 68.95 130.93 67.19 131.72 65.51 131.89 
M 80.05 179.09 78.91 178.26 78.1 177.06 77.51 174.25 77.52 173.6 77.77 172.97 79.36 171.25 
M 128.91 131.55 128.48 132.03 127.39 132.72 126.78 133.38 
M 76.52 171.01 76.91 168.75 76.6 166.19 76.93 164.29 76.81 163.34 
M 85.94 177.43 87.43 175.86 88.99 175.08 91 174.54 92.03 174.58 92.67 174.8 
M 71.65 168.47 71.31 166.71 71.11 164.21 70.84 163.36 70.18 162.51 67.07 159.83 65.62 158.09 64.87 156.75 
M 113.01 145.76 112.45 144 112.83 142.04 113.27 140.87 113.87 139.99 114.34 139.71 116.38 139.01 
M 49.08 138.33 49 138.23 
M 54.5 133.84 54.82 132.27 54.7 131.01 54.55 130.47 53.97 130.13 
M 123.85 161.16 125.16 162.52 127.94 164.5 130.04 165 130.28 165.34 130.2 165.89 
M 69.67 162.87 66.37 160.29 64.97 158.52 64.55 157.61 64.42 156.39 64.59 156.02 
M 56.52 130.49 56.17 129.34 55.86 129.02 55.11 128.82 
M 58.52 141.67 59.93 143.67 61.52 145.06 61.81 145.17 62.38 145.05 62.76 144.55 
M 115.92 115.41 113.84 114.66 112.96 114.5 110.87 114.83 107.89 115.66 105.34 115.78 103.81 116.51 
M 108.69 141.83 109.42 141.94 110.78 141.54 112.3 140 
M 89.77 172.58 90.33 172.34 90.6 172.45 91.46 173.82 91.97 174.3 
M 111.76 102.22 110.58 100.23 108.83 99.22 
M 123.7 108.24 122.45 110.39 121.76 110.88 120.38 110.98 117.33 110.3 
M 109.77 184.39 109.01 184.17 108.54 184.31 106.49 186.41 
M 98.8 131.88 98.42 132.86 96.95 135.17 96.98 135.81 97.51 136.04 
M 97.33 182.63 94.29 184.45 93.51 184.74 92.03 184.66 91.38 184.38 90.96 183.83 90.79 183.17 90.76 182.5 91.12 180.21 
M 92.86 109.92 96.25 109.11 96.82 108.64 97.61 107.1 99.12 102.79 
M 128.73 151.03 129.73 150.66 130.25 150.89 130.28 151.14 130.01 151.34 
M 100.96 126.52 101.24 126.53 101.63 126.26 101.98 125.22 101.93 124.49 101.46 123.7 
M 111.96 184.78 109.31 182.4 108.41 182 107.92 182 107.4 182.22 105.95 183.39 104.89 184.03 
M 119.39 119.96 114.04 124.49 112.9 125.09 111.74 125.21 108.42 125.07 107.3 124.7 104.64 122.99 
M 129.05 118.68 130.63 119.52 130.96 119.87 131.03 120.64 130.78 121.7 
M 90.29 114.08 92.69 114.09 93.88 114.24 95.2 114.69 97.44 116.14 98.35 116.95 99.17 118.14 99.89 120.62 
M 127.46 144.89 128.59 144.47 129.98 144.45 130.63 144.2 131.18 143.57 131.26 142.24 
M 62.98 126.4 60.52 126.37 57.78 126.67 
M 128.67 189.18 127.75 189.02 126.81 188.46 125.95 187.32 125.97 187.07 126.25 186.78 
M 81.48 169.91 82.91 169.15 85.43 168.13 86.93 166.77 87.5 165.88 87.97 163.36 
M 65.82 151.97 66.25 151.49 66.87 151.13 69.58 150.45 70.46 149.78 70.8 149.15 
M 89.32 176.17 90.54 175.38 92.16 174.85 93.04 175.03 93.9 175.72 
M 56.74 149.21 58.41 147.42 
M 113.15 166.48 110.97 163.26 109.82 160.7 108.36 158.83 108.14 158.31 108.06 157.33 
M 131.88 143.03 131.33 142.03 130.65 141.5 
M 71.58 174.32 69.84 172.55 67.11 170.4 65.71 168.95 64.77 167.7 63.63 166.79 
M 129.4 192.67 128.67 192.22 127.19 190.69 125.23 189.09 123.16 187.85 122.43 186.8 121.81 185.11 
M 99.13 141.87 99.02 139.73 99.13 139.21 99.54 138.56 100.05 138.1 100.52 138.12 100.87 138.41 
M 86.01 175.78 87.23 174.82 89.44 173.77 90.36 173.8 92.38 174.62 
M 116.63 172.87 114.52 173.68 
M 124.63 169.4 124.21 168.55 124.34 167.97 124.66 167.56 128.2 166.14 129.38 165.95 130.07 166.01 
M 114.74 141.44 115.39 140.37 116.57 139.27 117.21 139.05 119.52 138.72 
M 123.97 183.64 124.7 184.89 125.8 186.07 126.24 186.38 126.97 186.47 
M 50.29 139.02 49.2 137.64 
M 99.05 166.19 97.68 166.93 94.2 167.87 93.7 167.95 93.43 167.82 
M 120.7 135.78 121.94 135.58 122.75 135.78 123.28 136.32 124.08 137.92 
M 102.89 108.29 102.56 105.02 102.24 103.61 102.22 102.94 102.49 101.52 
M 101.78 130.3 102.32 131.04 102.89 132.53 103.27 134.27 102.98 136.7 102.47 138.1 
M 93.69 106.95 94.86 104.57 
M 112.13 147.57 110.73 146.8 109.98 146.81 109.35 147.05 108.8 147.47 106.31 150.68 103.76 153.02 102.19 155.78 
M 96.24 145.3 95.46 140.68 95.51 139.75 96.04 137.45 96.46 136.77 97.23 136.22 
M 71.08 129.43 69.47 129.9 66.25 131.5 64.82 131.59 63.31 131.16 62.45 130.73 
M 119.85 181.62 120.19 181.59 120.97 181.9 122.94 183.12 
M 58.48 162.38 58.85 163.17 
M 54.58 157.72 54.48 158.02 54.72 157.92 
M 51.44 152.29 51.14 152.54 50.52 153.75 51.38 153.07 51.8 153 
M 48.53 147.12 47.55 147.8 46.56 149.48 47.79 148.33 49.02 148.01 
M 45.91 141.83 43.95 143.06 42.59 145.21 44.2 143.59 46.33 142.93 
M 58.29 162.23 59.35 162.63 
M 53.03 159.63 54.08 159.1 54 159.53 54.14 160.14 
M 48.16 157.17 48.73 156.46 49.71 155.92 49.27 156.67 49.23 157.72 
M 43.29 154.72 44.01 153.6 45.35 152.73 44.55 153.8 44.35 155.24 
M 38.35 152.38 39.28 150.74 40.98 149.55 39.83 150.94 39.44 152.93 
M 33.41 150.05 34.56 147.88 36.62 146.36 35.11 148.08 34.57 150.41 
M 39.4 157.86 45 161.88 49 164.46 53.09 166.83 57.29 168.88 61.61 170.63 70.6 173.65 
M 53.19 165.88 53.91 165.31 54.28 164.6 
M 121.79 95.03 130.22 103.45 
M 127.97 93.43 138.45 103.9 
M 134.14 91.82 141.54 99.22 
M 140.29 90.19 148.77 98.67 
M 146.52 88.64 157.95 100.08 
M 152.8 87.15 159.08 93.42 
M 159.17 85.74 169.37 95.93 
M 165.57 84.36 174.25 93.03 
M 172.09 83.09 180.43 91.43 
M 178.59 81.81 185.73 88.96 
M 185.05 80.5 192.08 87.53 
M 191.65 79.32 203.11 90.78 
M 198.35 78.24 205.32 85.21 
M 205.28 77.4 216.23 88.34 
M 212.3 76.63 222.3 86.63 
M 219.44 75.99 226.57 83.12 
M 226.94 75.71 238.18 86.96 
M 234.59 75.59 240.55 81.55 
M 242.32 75.54 249.55 82.76 
M 249.98 75.42 259.6 85.04 
M 257.89 75.55 266.58 84.24 
M 266.33 76.21 274.33 84.21 
M 275.51 77.61 285.87 87.97 
M 285.01 79.33 293.76 88.08 
M 294.79 81.33 304.57 91.12 
M 304.63 83.4 313.77 92.54 
M 314.41 85.4 320.83 91.82 
M 324.21 87.42 333.47 96.67 
M 334.37 89.8 344.92 100.35 
M 345 92.65 356.35 104 
M 355.68 95.55 363.99 103.86 
M 366.21 98.3 374.28 106.37 
M 376.6 100.91 386.39 110.7 
M 387.03 103.56 398.53 115.07 
M 397.41 106.16 403.85 112.6 
M 407.77 108.74 411.58 112.56 
"/></svg>