<svg xmlns="http://www.w3.org/2000/svg" width="520" height="320"><rect x="0" y="0" width="520" height="320" fill="floralwhite"/><rect x="10" y="10" width="500" height="300" stroke="black" stroke-width="1" fill="none"/><path stroke="black" stroke-width="1" fill="none" stroke-linecap="round" stroke-linejoin="round" d="
M 126.73 140.34 139.1 137.14 151.44 135.16 176.12 133.07 200.81 130.03 213.15 128.91 225.49 128.34 237.83 128.08 250.18 127.98 274.86 128.22 287.2 127.95 299.54 127.97 311.89 128.66 336.57 130.69 348.91 131.87 361.26 133.63 410.62 141.99 422.97 145.07 435.31 149.51 436.38 150.42 
M 436.38 194.66 435.31 195.45 422.97 199 410.62 201.51 385.94 204.87 373.6 206.81 361.26 209.06 348.91 210.96 334.49 212.05 
M 228.79 214.95 225.49 214.98 213.15 214.29 200.81 212.76 188.47 210.6 176.12 208.05 163.78 205.29 151.44 202.92 139.1 201.39 
M 393.09 153.23 386.98 152.33 
M 382.46 151.78 378.89 151.4 
M 372.13 150.81 357.94 150.11 340.66 150.56 332.22 150.53 308.88 148.67 
M 296.65 148.19 288.97 148.18 
M 285.17 148.35 279.44 148.88 265.98 150.63 
M 262.11 151.02 254.28 151.52 
M 250.24 151.76 239.82 152.38 231.28 152.63 209.22 152.26 197.94 152.44 
M 193.53 152.55 189.17 152.62 
M 184.83 152.6 180.5 152.49 
M 176.15 152.24 171.75 151.89 
M 149.87 151.48 141.97 152.07 
M 162.16 198.93 164.28 201.47 
M 133.23 138.66 137.24 145.36 139.84 150.06 144.73 159.47 148.63 166.56 
M 140.5 136.91 145.59 145.72 153.19 159.49 158.25 167.84 
M 186.76 205.75 187.1 206.06 
M 147.89 135.73 166.87 166.85 
M 155.82 134.76 163.28 145.34 166.14 149.87 175.14 165.37 
M 164.7 133.97 169.86 140.67 172.79 145.09 175.56 149.85 182.44 162.42 
M 173.68 133.26 176.14 136.4 179.11 140.7 181.94 145.25 191.51 162.43 
M 181.86 132.37 188.14 140.79 191.04 145.22 195.15 152.36 
M 189.85 131.38 194.17 136.66 197.26 140.75 200.25 145.12 209.47 160.25 
M 197.79 130.4 203.32 136.88 206.51 140.91 209.53 145.29 215.6 154.64 219.32 159.58 
M 205.62 129.6 209.23 133.71 212.25 137.56 221.52 150.4 228.28 158.36 
M 212.9 128.94 217.75 134.86 223.57 142.63 226.84 146.67 236.65 157.53 
M 220.17 128.59 230.74 141.13 
M 234.07 144.81 239.5 150.6 244.38 156.34 
M 227.91 128.29 244.82 146.12 248.37 150.27 252.38 155.59 
M 236.78 128.1 244.19 135.05 250.32 141.56 253.56 145.51 256.88 150.01 260.13 154.77 
M 246.47 128.01 250.14 131.25 252.98 134.08 255.86 137.32 261.92 145.15 265.09 149.63 268.05 154.17 
M 256.23 128.05 261.44 133.39 267.39 140.41 270.43 144.49 273.27 148.8 276.01 153.55 
M 265.52 128.15 270.02 132.6 273.05 135.91 276.05 139.65 278.84 143.71 281.36 147.96 283.76 152.45 
M 274.75 128.22 278.49 131.83 281.46 135.18 284.28 138.99 286.9 143.12 291.41 151.57 
M 283.4 128.03 286.59 131.25 289.46 134.71 292.24 138.64 294.87 142.9 299.54 151.53 
M 291.96 127.96 294.59 130.84 297.49 134.5 300.36 138.52 303.17 142.84 308.17 151.38 
M 300.67 128.04 305.93 134.34 308.99 138.4 311.89 142.8 317.19 151.45 
M 309.92 128.55 314.5 134.37 325.62 150.82 
M 318.56 129.18 322.73 134.7 328.8 143.37 334.99 151.66 
M 327.12 129.87 344.11 151.54 
M 336.79 130.71 343.63 138.38 348.76 144.76 
M 351.97 149.2 353.5 151.45 
M 347.95 131.78 349.94 133.83 353.37 137.78 356.63 142.04 359.65 146.55 363.05 152.06 
M 359.31 133.36 362.69 137.62 365.86 142.03 371.59 150.83 
M 399.77 195.57 401.39 197.7 
M 369.95 135.13 375.46 142.44 381.63 151.9 
M 380.72 136.99 385.23 143.1 388.19 147.62 391.43 153.11 
M 413.49 191.97 415.93 195.66 
M 391.26 138.73 394.73 143.88 398.73 150.9 
M 400.87 140.29 403.66 144.94 408.27 153.34 
M 426.34 187.28 427.88 189.89 
M 410.19 141.92 416.77 153.26 
M 420.78 144.53 424.64 151.21 426.03 153.95 
M 432.46 148.49 435.45 154.77 
M 132.17 138.93 129.67 142.04 
M 143 136.51 136.18 145.31 134.73 147.55 
M 152.4 135.07 146.12 143.57 
M 143.02 147.89 139.6 153.15 
M 161.6 134.24 156.24 141.29 149.73 150.22 146.57 154.79 143 160.47 
M 171.25 133.46 158.61 150.07 150.33 161.83 
M 147.28 166.55 145.13 170.1 
M 181.17 132.45 169.85 147.47 
M 166.27 152.26 160.98 159.52 155.05 168.17 
M 191.47 131.18 187.16 136.61 182.45 143.01 
M 179.12 147.57 168.68 162.04 
M 202.2 129.91 199.24 133.05 196.22 136.69 188.21 147.63 
M 184.78 152.49 176.05 165.19 
M 156.04 196.02 154.5 198.26 
M 213.31 128.91 211.22 130.71 208.34 133.62 205.4 136.97 202.35 140.8 192.15 154.9 185.98 164.2 
M 163.6 198.41 163.21 198.99 
M 224.28 128.4 219.81 131.98 216.91 134.74 214.16 137.8 209.91 143.25 
M 206.72 147.5 201.44 154.71 196.35 162.2 
M 233.89 128.16 228.49 132.79 225.36 135.76 222.47 138.88 219.81 142.24 212.67 152.31 
M 209.27 157.09 206.87 160.5 
M 242.23 128.04 239.1 131.01 
M 235.88 134.23 231.16 139.33 228.31 142.92 225.77 146.62 222 152.61 
M 219.15 157.03 217.27 159.85 
M 249.98 127.98 243.29 135.15 240.23 138.85 237.33 142.73 234.69 146.71 228.84 157.03 
M 257.53 128.07 252.12 134.17 249.19 137.91 246.36 141.94 243.72 146.2 237.94 157.05 
M 265.11 128.15 260.58 133.47 257.75 137.2 255.05 141.2 252.51 145.57 247.28 156.12 
M 272.73 128.21 266.31 136.54 263.5 140.72 260.88 145.21 257.45 152.46 
M 280.49 128.1 274.99 135.73 269.38 144.59 266.75 149.49 264.51 154.44 
M 288.19 127.95 283.28 135.05 277.82 143.81 274.91 148.62 272.04 153.97 
M 295.85 127.97 291.25 134.65 279.81 152.93 
M 303.76 128.21 299.34 134.46 288.15 151.78 
M 311.96 128.67 305.06 138.45 296.41 151.44 
M 320.03 129.29 316.37 134.43 309.26 145.08 
M 306.05 149.79 304.75 151.69 
M 328.03 129.94 324.59 134.76 314.96 149.89 
M 336.08 130.64 333.08 134.77 330.32 138.97 323.41 151.14 
M 344.56 131.45 343.47 132.88 
M 340.85 136.48 339.32 138.66 336.47 143.23 332.4 151.12 
M 353.09 132.47 349.01 138.03 345.9 142.65 342.99 147.48 340.58 152 
M 361.4 133.66 355.47 142.08 349.89 150.75 
M 369.94 135.13 364.7 142.01 359.87 148.9 
M 378.93 136.69 370.84 146.67 367.34 151.31 
M 388.05 138.23 377.24 150.96 
M 397.01 139.63 393.59 143.77 386.1 152.31 
M 405.59 141.11 395.46 153.12 
M 414.05 142.85 405.13 153.34 
M 422.34 144.92 419.05 148.68 
M 415.4 152.86 415.24 153.05 
M 429.9 147.57 424.33 153.75 
M 436.38 150.8 432.82 154.57 
M 411.09 192.45 408.49 195.05 
M 436.38 184.38 433.53 188.26 431.91 190.19 
M 174.19 132.98 176.13 133.07 
M 190.21 130.97 195.84 68.75 196.91 68.82 194.09 130.86 
M 206.26 129.15 216.75 48.72 217.82 48.84 210.15 129.19 
M 222.39 128.07 238.12 44.29 239.18 44.47 226.27 128.33 
M 238.54 127.65 261.02 30 262.07 30.22 242.41 128.04 
M 254.69 127.59 278.31 37.29 279.36 37.54 258.55 128.08 
M 270.83 127.73 293.08 45.01 294.12 45.27 274.69 128.22 
M 286.97 127.45 313.39 35.47 314.43 35.76 290.84 127.96 
M 303.14 127.67 334.02 38.99 335.04 39.33 306.97 128.39 
M 319.27 128.68 346.58 61.36 347.58 61.74 323.08 129.53 
M 335.37 129.99 359.25 77.03 360.24 77.45 339.16 130.94 
M 351.45 131.66 370.06 95.53 371.03 95.98 355.19 132.77 
M 359.53 132.75 361.26 133.63 
M 176.85 132.98 182.23 120.6 184.74 114.29 187.03 107.91 189.09 101.45 190.89 94.91 192.49 88.31 195.28 74.97 
M 196.63 75.06 201.83 71.99 204.28 70.31 206.57 68.46 208.69 66.42 210.64 64.21 212.42 61.83 215.71 56.76 
M 217.05 56.91 221.68 57.32 223.95 57.32 226.17 57.1 228.33 56.63 230.44 55.9 232.51 54.96 236.54 52.67 
M 237.88 52.9 243.26 51.15 245.84 50.1 248.29 48.85 250.61 47.39 252.8 45.72 254.87 43.85 258.77 39.76 
M 260.1 40.05 263.11 42.73 264.7 43.87 266.36 44.8 268.12 45.5 269.98 45.96 271.92 46.21 275.95 46.32 
M 277.27 46.64 279.68 49.36 280.98 50.53 282.38 51.5 283.89 52.24 285.51 52.74 287.23 53.05 290.86 53.28 
M 292.17 53.61 296.9 52.87 299.17 52.31 301.35 51.55 303.41 50.56 305.36 49.33 307.22 47.91 310.75 44.67 
M 312.06 45.03 316.05 47.02 318.07 47.81 320.13 48.38 322.23 48.7 324.36 48.76 326.53 48.6 330.93 47.86 
M 332.22 48.29 333.61 53.39 334.49 55.83 335.56 58.16 336.85 60.36 338.36 62.43 340.07 64.39 343.84 68.09 
M 345.11 68.57 346.67 72.53 347.61 74.37 348.72 76.06 350.03 77.59 351.53 78.95 353.2 80.17 356.86 82.32 
M 358.11 82.85 359.18 87.2 359.89 89.26 360.79 91.21 361.91 93.02 363.25 94.69 364.78 96.25 368.2 99.14 
M 369.42 99.72 366.13 106.84 364.7 110.45 363.47 114.12 362.5 117.85 361.77 121.65 361.26 125.51 360.65 133.32 
M 199.26 73.56 204.28 70.31 206.57 68.46 208.69 66.42 210.64 64.21 214.1 59.33 
M 199.39 81.49 203.7 78.69 205.68 77.11 207.5 75.36 209.17 73.45 212.14 69.25 
M 199.51 89.43 203.13 87.08 204.78 85.75 207.7 82.69 210.19 79.18 
M 199.64 97.36 202.55 95.47 203.88 94.4 206.24 91.94 208.24 89.11 
M 199.77 105.3 202.98 103.05 204.77 101.18 206.29 99.03 
M 219.37 57.16 223.95 57.32 226.17 57.1 228.33 56.63 230.44 55.9 234.53 53.86 
M 219.06 64.33 223.18 64.48 225.17 64.28 227.12 63.85 229.02 63.2 232.7 61.36 
M 218.75 71.5 222.4 71.63 224.18 71.45 225.91 71.08 227.6 70.5 230.88 68.86 
M 218.43 78.68 221.63 78.79 223.19 78.63 226.18 77.8 229.05 76.37 
M 218.12 85.85 220.86 85.94 223.5 85.53 224.76 85.1 227.22 83.87 
M 217.81 93.02 220.09 93.1 221.2 92.99 223.34 92.39 225.39 91.37 
M 217.49 100.19 220.21 100.17 221.92 99.69 223.56 98.87 
M 240.59 52.06 245.84 50.1 248.29 48.85 250.61 47.39 252.8 45.72 256.84 41.84 
M 239.77 59.68 244.49 57.91 246.7 56.79 248.79 55.48 250.76 53.97 254.39 50.48 
M 238.95 67.29 243.14 65.72 245.11 64.73 246.96 63.56 248.71 62.22 251.95 59.12 
M 238.12 74.91 241.79 73.54 245.14 71.64 246.67 70.47 249.5 67.76 
M 237.3 82.53 240.45 81.35 241.92 80.6 244.63 78.72 247.05 76.4 
M 236.48 90.14 239.1 89.16 240.33 88.54 242.58 86.97 244.6 85.04 
M 235.65 97.76 237.75 96.98 239.66 95.89 242.15 93.67 
M 261.59 41.43 264.7 43.87 266.36 44.8 268.12 45.5 269.98 45.96 273.92 46.3 
M 260.44 49.01 263.28 51.24 264.8 52.09 266.41 52.72 268.1 53.14 271.69 53.46 
M 259.3 56.59 261.86 58.6 263.24 59.37 264.69 59.95 266.22 60.33 269.47 60.61 
M 258.15 64.17 260.44 65.97 262.97 67.17 264.34 67.51 267.24 67.76 
M 257.01 71.75 259.03 73.33 261.26 74.4 262.46 74.69 265.02 74.92 
M 255.86 79.33 257.61 80.7 258.55 81.23 260.58 81.88 262.8 82.07 
M 254.72 86.91 256.19 88.07 257.82 88.84 260.57 89.22 
M 253.57 94.49 254.78 95.43 256.1 96.07 258.35 96.38 
M 278.45 48.04 280.98 50.53 282.38 51.5 283.89 52.24 285.51 52.74 289.02 53.21 
M 277.07 56.05 279.34 58.29 280.6 59.16 281.96 59.82 283.42 60.28 286.58 60.7 
M 275.69 64.06 277.71 66.05 278.83 66.82 280.04 67.41 281.33 67.82 284.15 68.19 
M 274.31 72.07 276.08 73.81 277.05 74.49 279.25 75.36 281.71 75.68 
M 272.93 80.08 274.44 81.57 275.28 82.15 277.16 82.9 279.27 83.18 
M 271.54 88.09 272.81 89.33 274.26 90.18 276.83 90.67 
M 270.16 96.09 271.17 97.09 272.34 97.77 274.39 98.16 
M 294.55 53.28 299.17 52.31 301.35 51.55 303.41 50.56 305.36 49.33 309 46.33 
M 293.18 60.76 297.33 59.89 299.29 59.2 301.15 58.31 302.91 57.21 306.18 54.5 
M 291.8 68.24 295.49 67.47 297.23 66.86 298.88 66.06 300.45 65.08 303.36 62.68 
M 290.42 75.72 293.65 75.04 296.62 73.81 297.99 72.96 300.53 70.85 
M 289.04 83.2 291.81 82.62 293.12 82.16 295.53 80.83 297.71 79.03 
M 287.66 90.68 289.97 90.2 291.06 89.81 293.07 88.71 294.89 87.2 
M 286.29 98.16 288.13 97.77 289.83 97.07 292.07 95.38 
M 314.04 46.07 318.07 47.81 320.13 48.38 322.23 48.7 324.36 48.76 328.72 48.27 
M 312.55 53.25 316.22 54.84 318.1 55.36 320.01 55.64 321.96 55.7 325.94 55.26 
M 311.05 60.43 314.37 61.87 316.07 62.33 317.8 62.59 319.56 62.64 323.16 62.24 
M 309.55 67.61 312.52 68.89 315.58 69.54 317.16 69.59 320.37 69.23 
M 308.05 74.79 310.66 75.92 312 76.29 314.75 76.53 317.59 76.22 
M 306.55 81.96 308.81 82.95 311.15 83.44 312.35 83.48 314.81 83.2 
M 305.05 89.14 307.94 90.24 309.95 90.42 312.02 90.19 
M 303.55 96.32 305.91 97.22 307.55 97.36 309.24 97.18 
M 332.87 50.86 334.49 55.83 335.56 58.16 336.85 60.36 338.36 62.43 341.92 66.26 
M 330.56 59.95 331.98 64.35 332.93 66.4 334.07 68.35 335.41 70.18 338.55 73.56 
M 328.24 69.05 329.48 72.86 331.29 76.34 332.45 77.92 335.18 80.86 
M 325.93 78.15 326.98 81.38 328.51 84.32 329.49 85.67 331.81 88.16 
M 323.61 87.24 324.47 89.89 325.04 91.14 326.54 93.41 328.44 95.46 
M 321.3 96.34 322.42 99.38 323.58 101.16 325.07 102.76 
M 345.86 70.58 347.61 74.37 348.72 76.06 350.03 77.59 351.53 78.95 355 81.27 
M 343.51 78.91 345.02 82.17 345.98 83.62 347.1 84.94 348.39 86.11 351.37 88.1 
M 341.17 87.23 342.43 89.96 344.17 92.28 345.25 93.26 347.75 94.93 
M 338.83 95.56 339.84 97.76 340.49 98.74 342.12 100.42 344.13 101.76 
M 336.48 103.89 337.26 105.55 338.32 106.97 340.51 108.59 
M 358.61 85.05 359.89 89.26 360.79 91.21 361.91 93.02 363.25 94.69 366.45 97.72 
M 355.47 95.91 356.46 99.14 357.15 100.63 359.03 103.31 361.49 105.63 
M 352.34 106.78 353.02 109.03 353.51 110.06 354.82 111.92 356.52 113.53 
M 144.15 170.25 146.78 169.85 156.18 167.96 162.95 167.58 166.22 167.07 178.87 164.57 185.62 164.25 188.88 163.81 192.07 162.99 201.64 161.13 208.19 160.35 218.02 159.79 224.02 158.78 237.07 157.48 243.42 156.42 249.79 155.92 259.74 154.79 266.28 154.24 272.39 153.95 275.85 153.57 289.05 151.63 295.83 151.42 305.74 151.73 308.76 151.3 319.2 151.42 321.83 151.34 327.47 150.53 331.08 150.85 337.82 152.08 341.66 151.97 344.43 151.48 346.74 150.78 350.32 150.74 353.99 151.56 357.84 151.7 361.61 152.26 370.61 150.86 373.86 150.76 377.16 150.94 380.43 151.82 386.5 152.35 392.45 153.26 395.46 153.12 408.74 153.34 411.82 152.86 415.28 153.05 418.88 153.56 424.93 153.76 428.34 154.33 438.46 154.87 441.61 155.9 448.22 156.89 451.38 156.71 454.85 156.18 458.72 156.35 462.09 156.16 465.47 156.32 468.98 157.3 471.61 157.68 477.48 157.75 480.14 158.35 424.83 188.1 421.49 188.83 418.43 189.85 415.18 190.67 412.5 192.06 409.31 192.95 405.81 193.53 399.72 195.59 396.3 196.24 393.31 197.33 387.92 200.09 384.98 201.22 382.2 202.52 379.03 203.42 376.15 204.61 372.71 205.25 366.44 207 356.61 208.48 349.56 208.97 337.17 211.66 333.87 212.13 330.96 213 327.85 213.65 321.08 214.42 314.74 215.62 308.45 216.59 298.86 216.99 296.07 217.53 292.95 217.74 289.57 217.69 283.72 218.51 277.3 218.75 273.88 218.66 270.8 218.91 267.48 218.93 263.86 218.63 250.77 218.84 247.28 217.97 244.07 217.37 237.95 216.48 234.45 215.59 222.69 214.27 213.19 212.61 207.43 212.07 198.16 209.36 145.52 192.68 143.46 191.88 
M 144.15 173.3 150.11 172.8 153.2 172.32 156.52 172.12 163.57 172.28 169.8 171.84 173.05 171.16 179.48 170.63 186.76 170.79 202.63 169.37 205.73 169.42 209.08 169.82 212.13 169.52 218.64 169.26 225.4 169.45 228.84 169.29 241.38 168.05 244.78 168.2 248.37 168.76 250.84 168.87 253.81 168.95 257.88 168.74 261.41 169.05 264.59 169.12 267.83 168.84 274.28 169.33 280.89 169.49 284.41 170.31 287.69 170.61 296.2 170.84 299.43 171.33 302.58 171.58 305.98 171.36 313.05 172.32 316.13 172.21 
M 143.72 176.43 150.1 176.15 153.21 176.45 163.35 176.9 166.57 176.79 179.96 176.93 187.01 177.6 190.08 177.75 195.62 177.37 202.43 177.96 208.58 178.18 211.85 178.51 215.52 179.44 222.55 180.02 226.07 180.57 232.08 180.84 235.16 181.33 241.68 181.3 245.04 181.71 248.17 182.59 254.64 183.3 264.7 183.74 270.7 185.47 276.81 186.5 279.88 186.59 283.35 187.89 286.91 188.72 289.92 189.76 293.85 189.87 297.54 189.71 303.4 191.51 308.89 192.16 315.81 194.34 318.86 194.7 322.16 195.93 324.55 196.6 326.98 196.72 329.9 197.87 333.3 198.98 
M 143.21 179.54 153.27 180.22 163.43 181.66 166.17 182.18 169.82 182.38 176.63 183.42 183.18 184.01 190.16 184.86 196.43 186.23 199.71 186.62 202.89 187.29 205.28 188.07 208.34 188.1 220.98 190.34 224.03 191.11 230.31 193.46 233.86 194.31 
M 143.38 182.75 156.37 184.97 159.52 186.07 162.97 187 166.33 187.61 169.79 188.48 173.23 188.89 179.8 190.38 185.69 193.07 189.31 193.69 192.4 194.69 195.56 195.03 
M 143.51 186.19 152.98 189.14 169.59 195.55 175.52 198 184.34 202.32 187.59 203.39 190.27 204.76 193.56 205.88 
M 227.73 214.84 231.88 220.71 231.11 221.47 224.11 216.34 
M 210.97 212.7 239.64 255.43 238.76 256.06 207.82 214.95 
M 195.19 210.65 214.24 254.95 213.27 255.4 191.67 212.29 
M 177.98 207.49 179.09 216.1 178.06 216.41 174.27 208.6 
M 230.41 220.95 230.47 227.95 230.71 231.41 231.16 234.82 231.87 238.17 232.83 241.48 234 244.73 236.77 251.16 
M 235.66 251.95 230.57 250.25 228 249.61 225.43 249.2 222.83 249.04 220.23 249.13 217.61 249.45 212.34 250.52 
M 211.11 251.09 205 242.2 201.79 237.9 198.41 233.74 194.84 229.76 191.08 225.95 187.15 222.28 178.98 215.24 
M 233.12 251.05 228 249.61 225.43 249.2 222.83 249.04 220.23 249.13 214.97 249.94 
M 227.57 244.33 223.35 243.14 221.22 242.8 219.09 242.67 216.93 242.75 212.6 243.41 
M 222.02 237.61 218.7 236.67 215.34 236.3 213.64 236.36 210.23 236.89 
M 216.47 230.89 212.82 230.01 210.35 229.98 207.85 230.36 
M 385.94 204.87 389.52 211.38 395.18 218.71 398.34 223.15 395.1 224.56 392.19 224.34 385.91 227.03 379.42 229.24 376.74 235.5 374.76 237.89 372.59 240.14 371.01 243.04 368.46 244.98 365.65 246.72 364.94 250.54 364.58 254.16 363.43 256.98 362.41 260.07 361.57 263.35 360.28 266.3 358.68 269.14 356.16 271.63 359.87 280 357.22 277.67 354.78 273.45 353.9 270.13 352.94 269.31 349.53 264.12 349.19 261.33 349.59 257.58 347.06 254.72 345.1 251.72 341.93 245.09 339.48 242.45 338.21 239.17 337.2 236.02 333.26 230.35 330.11 224.03 326.88 216.93 325.1 213.96 
M 380.63 205.7 384.78 211.5 387.31 215.37 390.14 218.06 392.36 222.34 
M 375.31 206.54 379.44 211.37 382.51 214.42 
M 370.01 207.46 373.79 211.91 376.63 214.98 379.07 218.36 
M 364.72 208.43 368.07 213.07 371.09 216.62 
M 359.42 209.34 361.99 214.62 364.46 217.99 367.2 221.09 370.66 223.87 
M 354.1 210.16 359.97 222.16 362.97 224.94 365.54 228.61 368.16 230.85 
M 348.78 210.97 352.16 215.2 354.17 219.12 355.18 221.82 358.78 229.87 363.32 235.86 364.71 238.46 
M 343.42 211.4 346.47 215.4 348.63 218.59 349.65 221.64 351.83 224.32 353.42 228.11 355.01 232.48 357.32 236.15 358.48 238.85 360.47 241.02 361.96 244.02 362.48 248.24 
M 338.06 211.84 345.48 222.02 346.6 225.59 348.65 228.28 350.11 231.47 351.29 236.2 352.64 239.84 
M 332.89 212.42 335.47 216.2 337.87 219.14 339.52 222.83 340.91 227.09 341.82 230.5 343.3 233.83 345.42 236.66 346.56 240.6 347.96 243.99 350.8 246.45 353.58 249.61 356.27 254.87 357.56 262.99 359.28 264.67 
M 328.06 213.61 330.05 216.93 331.68 220.59 333.39 223.59 334.51 227.36 336.64 230.54 338.06 233.98 340.62 235.91 341.62 239.56 343.03 242.71 345.33 246.28 349.3 251.89 350.58 254.62 352.07 258.85 
M 435.31 149.51 439.26 148.75 445.45 146.5 448.51 144.75 451.03 142.1 453.93 140.51 456.43 138.77 464.78 134.47 468.12 133.79 470.58 132.79 473.14 130.76 476.24 129.84 483.26 127 485.83 125.54 487.02 123.4 474.8 135.43 473.15 140.35 472.62 143.88 471.64 146.98 471.5 151 469.81 153.71 469.95 157.44 
M 470.42 163.57 470.21 167.46 468.97 169.48 467.23 175.27 465.75 178.25 464.84 181.23 465.07 183.94 466.88 187.36 467.89 190.59 467.94 193.37 469.85 195.98 470.94 199.64 471.49 202.48 471.74 204.89 473.3 208.4 476.09 215.47 476.69 218.05 486.55 234.82 484.35 233.33 481.71 230.68 478.33 228.72 475.14 225.5 472.77 222.25 468.08 219.97 465.15 216.93 461.59 215.35 455.73 212.08 449.88 207.01 447.68 204.62 441.97 200.55 435.31 195.45 
M 442.78 150.05 445.46 149.44 448.91 148.1 454.96 143.27 458.82 141.16 460.83 140.7 463.48 138.76 
M 439.31 153.69 442.58 152.59 445.33 152.18 448.79 150.74 455.54 147.31 
M 441.76 155.93 442.77 155.59 445.6 155.21 456.61 150.64 459.6 148.35 
M 450.44 156.76 452.94 155.4 
M 453.38 172.74 456.44 173.19 460.47 174.91 464.89 175.5 
M 445.04 177.23 449.44 177.81 453.32 178.98 457.05 180.61 
M 440.66 179.58 444.38 180.86 448.89 181.2 451.51 182.43 454.79 184.23 
M 444.05 183.06 448.08 184.11 454.26 186.22 
M 440.09 183.98 443.77 185.23 446.49 186.56 450.7 187.73 453.69 188.87 457.72 191.91 
M 443.6 187.97 446.6 189.76 453.92 192.33 457.62 195.21 461.67 195.64 465.19 195.56 
M 439.62 188.84 442.87 191.08 453.88 195.47 458.61 197.09 
M 439.21 191.55 442.93 193.42 446.68 195.04 449.8 197.11 452.77 198.83 457.88 200.43 461.22 203.04 464.24 203.57 467.94 203.68 470.62 204.23 
M 446.51 197.97 449.52 199.73 455.61 204.52 459.17 206.61 461.91 207.19 465.66 207.13 
M 435.31 193.15 439.23 196.04 442.62 198.26 445.88 200.79 448.97 202.6 450.86 204.76 453.77 207.62 456.96 210.18 463.63 211.75 467.66 211.97 471.73 213.4 473.58 216.66 
M 398.28 139.83 401.18 138.84 404.35 138.11 407.72 137.59 411.29 137.27 415.08 137.17 419.12 137.31 423.43 137.73 428.05 138.46 442.57 141.3 446.63 141.7 449.48 142.45 450.45 143.56 449.37 144.82 446.61 146 442.84 146.8 438.77 146.78 430.65 145.65 426.75 145.25 422.97 145.07 
M 410.25 141.67 413.18 141.52 
M 417.1 141.54 423.43 142.04 428.05 142.77 435.37 144.24 
M 440.2 145.18 444.58 145.8 
M 47.72 182.19 52.07 176.45 54.64 172.76 58.23 169.14 63.2 166.05 79.38 158.14 90.68 152 96.95 149.29 109.6 144.75 115.55 142.86 120.59 141.58 124.51 140.78 126.73 140.37 131.05 142.81 133.19 145.73 135.61 148.58 138.29 151.38 140.45 154.29 141.86 157.35 143.97 163.61 143.85 166.98 144.15 170.27 144.15 173.61 143.05 180.52 143.53 183.77 143.67 190.43 143.16 193.88 141.87 197.49 139.1 201.32 125.17 200.76 114.98 200.04 106.26 199.22 91.11 197.15 84.44 196.49 77.98 195.46 71.91 194.22 66.69 192.89 62.26 191.55 55.02 188.75 
M 117.66 161.94 118.28 164.65 116.92 170.18 115.84 172.67 113.14 176.97 113.75 180.63 114.66 182.53 115.39 184.65 115.88 187.03 115.44 189.87 105.03 189.56 
M 74.63 188.13 70.04 187.46 
M 49.57 188.63 46.65 188.02 44.14 187.12 42.97 184.67 44.05 182.28 46.62 181.59 48.89 182.84 52.64 186.57 55.11 188.53 
M 48 194.72 45.83 195.25 44.44 194.33 
M 43.38 191.83 43.29 190.92 45.17 188.87 47.88 188.58 53.41 188.6 
M 73.13 185.89 71.55 179.9 72 173.73 74.43 168.03 78.58 163.43 84 160.43 90.1 159.35 96.22 160.31 101.7 163.2 105.94 167.72 108.48 173.36 109.06 179.53 107.6 185.55 104.26 190.77 99.41 194.62 93.57 196.69 87.38 196.75 81.5 194.8 76.57 191.04 73.13 185.89 
M 72.9 185.36 72.15 183.16 71.67 180.88 71.48 178.55 71.57 176.22 71.96 173.92 72.62 171.69 73.56 169.55 74.75 167.55 76.18 165.71 77.83 164.06 79.67 162.63 81.68 161.43 83.81 160.5 86.05 159.83 88.35 159.45 90.68 159.35 93 159.54 95.28 160.02 97.49 160.78 
M 74.89 184.54 74.22 182.59 73.8 180.57 73.63 178.51 73.71 176.44 74.2 173.92 
M 74.53 172.8 75.47 170.54 76.53 168.76 77.73 167.22 
M 79.13 165.8 80.89 164.4 82.66 163.35 84.55 162.52 86.53 161.93 88.57 161.59 90.63 161.5 92.69 161.67 94.71 162.1 96.67 162.77 
M 76.88 183.72 76.3 182.02 75.93 180.26 75.78 178.46 75.85 176.67 76.3 174.37 
M 80.75 167.23 82.1 166.18 83.65 165.26 85.29 164.54 87.02 164.02 88.79 163.73 90.59 163.65 92.38 163.8 94.14 164.17 95.84 164.75 
M 78.87 182.89 78.37 181.45 77.93 178.42 77.99 176.89 78.41 174.84 
M 82.16 168.86 84.63 167.17 86.03 166.56 89.01 165.87 92.07 165.93 95.02 166.74 
M 80.86 182.07 80.45 180.87 80.08 178.37 80.13 177.11 80.5 175.32 
M 83.54 170.51 85.62 169.09 86.78 168.58 89.24 168.01 91.76 168.06 94.2 168.73 
M 83.43 181.26 82.79 178.86 83.07 176.16 
M 85.28 172.63 85.61 172.27 87.77 171.07 90.21 170.64 92.66 171.02 94.85 172.18 96.55 173.98 97.57 176.24 97.8 178.71 97.21 181.12 95.88 183.21 93.94 184.75 91.6 185.57 89.12 185.6 86.77 184.82 84.8 183.32 83.43 181.26 
M 86.17 171.96 85.61 173.08 
M 83.9 176.49 82.81 178.68 
M 88.27 170.98 86.57 174.39 
M 85.16 177.21 83.33 180.87 
M 90.04 170.67 87.55 175.65 
M 86.41 177.93 84.18 182.39 
M 91.57 170.85 88.61 176.76 
M 87.94 178.1 85.19 183.61 
M 93 171.2 89.67 177.87 
M 89.55 178.11 86.35 184.5 
M 94.28 171.87 87.66 185.11 
M 95.43 172.8 89.04 185.57 
M 96.49 173.92 90.65 185.58 
M 97.27 175.58 92.42 185.29 
M 97.72 177.9 94.54 184.27 
M 50.12 179.08 54.15 183.11 
M 52.84 175.35 58.52 181.03 
M 55.67 171.72 60.1 176.15 
M 59.04 168.64 64.65 174.25 
M 63.02 166.16 67.97 171.12 
M 67.33 164.02 70.7 167.39 
M 71.7 161.94 75.67 165.9 
M 76.05 159.83 79.27 163.05 
M 80.3 157.63 83.42 160.75 
M 84.46 155.33 88.3 159.17 
M 88.66 153.08 93.44 157.85 
M 93.03 150.99 99.04 157 
M 97.56 149.07 103.71 155.21 
M 102.28 147.32 106.95 152 
M 107.05 145.64 112.14 150.73 
M 111.89 144.02 116.52 148.66 
M 116.85 142.53 121.17 146.85 
M 122.06 141.28 126.29 145.51 
M 128.74 141.51 133.74 146.51 
M 82.9 156.2 83.34 159.18 83.11 160.04 82.42 161.03 
M 126.58 145.78 123.7 148.15 122.03 149.77 118.05 152.85 116.79 153.11 115.57 153.07 113.1 152.91 111.86 152.58 
M 124.24 196.08 121.19 195.39 118.37 194.19 116.68 192.69 114.16 190.88 113.71 190.35 113.25 188.82 
M 142.62 178.29 140.07 180.86 137.92 182.29 
M 141.57 156.71 140.43 156.49 138.53 155.74 137.76 155.99 
M 132.73 183.78 133.28 182.02 134.09 180.86 134.57 180.47 135.68 180.24 137.14 180.52 137.38 180.97 137.16 181.79 
M 125.77 143.77 123.87 143.93 122.72 144.29 121.7 145.06 120.52 146.81 119.54 147.87 118.77 148.19 116.88 148.38 
M 135.48 185.21 136.25 184.81 
M 127.04 178.28 127.45 177.61 129.57 176.65 130.92 175.51 
M 121.14 184.1 120.14 182.22 119.58 181.53 117.92 180.65 116.05 180.23 114.95 180.2 112.94 180.81 108.87 183.64 
M 140.48 185.24 138.73 186.02 137.07 186.26 136.03 186.6 
M 140.02 156.27 138.49 155.69 137.93 155.82 137.6 156.29 
M 76.4 190.79 75.79 191.69 75.58 191.72 75.41 191.53 
M 111.76 175.49 111.94 176.15 111.75 177.79 110.92 180.12 110.15 181.09 108.27 182.76 
M 118.11 183.85 117.02 183.42 115.7 183.27 114.29 183.38 112.93 183.73 108.16 186.4 105.94 188.14 
M 70.01 193.74 66.44 190.05 65.74 189.23 64.84 187.78 
M 140.66 166.67 139.01 167.47 137.32 169.09 136.8 169.93 137.14 171.18 
M 96.88 195.52 97.18 196.67 97.28 197.96 
M 111.66 160.04 111.09 160.45 110.26 161.57 109.87 163.58 109.11 165.8 107.77 168.56 
M 112.06 192.59 111.28 190.85 110.83 189.14 110.24 188.76 108.9 188.35 
M 142.54 163.07 139.08 164.61 137.17 165.92 136.22 166.95 135.98 167.46 135.88 168.87 
M 131.74 199.12 135.38 198.33 136.55 198.35 136.71 198.61 
M 85.1 157.65 84.17 158.94 83.69 160.11 82.56 161.23 
M 110.15 161.25 109.87 161.78 109.44 163.87 108.67 166.23 107.17 169.07 
M 112.79 183.13 108.87 185.28 106.53 187.22 
M 75.47 189.4 75.38 189.64 75.2 189.68 
M 136.29 175.29 137.63 175.09 138.24 174.47 138.35 173.7 138.11 172.22 
M 117.04 191.41 114.52 190.04 113.5 188.58 112.52 187.96 111.48 187.92 110.16 188.49 109.42 188.44 
M 134.31 196.68 135.33 197.07 136.67 197.3 136.94 197.69 136.71 198.63 
M 132.78 175.64 134.72 174.74 136.31 174.66 137.42 174.28 137.95 173.53 138.03 172.55 
M 121.59 196.01 120.63 195.85 117.89 194.38 116.26 192.72 113.83 190.8 113.52 190.27 113.13 188.78 112.52 188.22 
M 130.53 144.74 130.06 145.66 130.08 146.53 130.74 148.69 131.16 149.5 132.86 151.22 134.91 152.66 136 153.75 
M 71.59 192.93 70.8 190.58 70.1 189.2 68.01 186 68.27 185.24 68.99 184.64 
M 83.54 155.84 83.68 157 83.59 158.21 
M 106.02 150.73 105.46 150.05 104.94 148.37 104.37 148.2 103.85 148.54 
M 75.01 164.49 72.36 163.26 70.15 162.66 
M 118.38 178 116.51 174.94 116.29 174.34 116.28 173.72 117.24 170.75 117.86 169.77 118.3 169.37 
M 70.57 171.27 70.36 169.52 70.1 168.83 69.72 168.13 69.11 167.53 67.06 166.43 66.1 166.18 63.31 166.18 62.75 166.34 
M 133.68 174.25 134.91 173.75 137.32 173.66 137.56 173.49 137.82 172.95 137.86 171.91 
M 109.69 169.79 109.85 170.33 111.54 171.98 112.16 172.35 113.24 172.59 
M 95.18 159.6 95.56 158.3 95.92 157.8 98.55 156.94 
M 88.85 153.98 87.86 154.13 87.13 154.62 86.21 155.77 84.31 158.71 
M 109.52 193.07 109.56 190.91 109.35 188.9 109.12 188.58 108.25 188.3 106.47 188.34 
M 126.55 157.8 126.31 159.94 127.01 161.98 
M 122.48 169.82 123.28 168.73 125.4 168.09 126.21 166.83 
M 67.17 172.13 66.91 170.8 66.4 169.65 65.82 168.86 65.2 168.5 64.2 168.36 63.53 168.57 62.37 170.05 
M 76.94 195.24 77.92 194.57 
M 60.01 174.72 60.66 175.34 61.33 175.57 61.69 175.48 62.18 175.06 62.28 174.54 62.02 174.23 
M 129.89 155.61 130.74 156.82 132.82 159.11 133.05 159.83 132.87 161.28 
M 139.63 200.58 137.11 200.34 136.17 200.05 135.94 199.84 135.86 199.43 136.4 198.82 
M 111.29 163.91 109.97 165.51 108.02 169.04 107.95 169.79 
M 142.86 170.05 141.21 169.77 137.66 170.1 137.14 170.39 137.14 171.1 
M 116.88 151.38 114.3 151.1 113.07 150.79 110.87 149.73 106.99 148.78 105.37 147.94 104.88 147.84 
M 116.07 179.62 115.03 179.46 113.08 180.1 110.51 182.31 108.34 183.87 107.87 184.42 
M 122.09 173.13 122.68 170.83 123.56 169.02 124.08 168.64 125.4 168.17 125.96 167.18 
M 103.28 146.95 103.47 148.52 
M 96.15 197.27 96.71 197.88 
M 121.48 175.08 121.61 173.97 122.5 170.48 123.14 169.18 123.57 168.7 125.19 168.25 125.61 167.87 
M 99.31 148.42 101.22 150.27 102.74 151.12 
M 107.16 160.64 107.28 162.99 107.16 164.27 106.77 166.33 106.39 167.34 106.01 167.87 
M 129.77 184.79 131.03 184.11 131.65 183.36 132.69 181.13 133.43 180.17 134.68 179.7 136.72 180.02 
M 136.28 172.5 137.06 172.54 137.47 172.35 137.65 171.85 137.38 171.43 
M 117.38 168.25 118.62 168.02 121.13 168.21 122.56 168.54 124.42 168.4 
M 99.16 196.07 99.03 197.21 98.62 198.14 
M 103.01 151.13 104.21 151.22 104.85 150.97 105.07 149.49 105.01 148.81 104.77 148.38 
M 114.57 163.67 115.15 164.44 117 165.63 117.74 165.86 121.64 166.14 123.41 166.69 
M 50.16 182.4 52.23 182.01 54.71 180.35 56.74 178.52 
M 98.54 148.71 101.81 150.87 102.61 151.27 104.05 151.53 
M 141.2 159.63 140.31 160.14 139.36 160.97 136.29 165.06 135.82 166.04 
M 56.48 190.02 53.91 192.22 52.46 193.21 50.85 194.05 49.08 194.62 47.22 194.8 45.4 194.6 43.68 194.12 42.07 193.37 40.6 192.36 39.36 191.05 38.47 189.53 37.84 187.96 35.26 178.58 32.97 172.55 35.67 178.42 39.06 187.46 39.76 188.83 40.61 190.03 41.68 190.97 42.95 191.67 44.32 192.16 45.73 192.43 47.14 192.45 48.48 192.2 49.73 191.65 50.93 190.88 52.06 189.94 54.2 187.73 
M 55.03 188.72 56.3 189.35 
M 44.45 187.23 43.45 190.07 43.8 193.14 44.03 190.35 45.75 187.7 
M 54.89 189.03 56.36 188.53 
M 45.28 188.86 44.64 185.84 45.38 182.84 45.25 185.64 46.72 188.7 
M 52.39 193.25 55.89 193.89 58.04 194.02 62.33 193.69 66.69 192.89 
M 62.52 193.66 61.93 192.61 
M 55.38 193.55 56 192.26 
M 52.48 193.25 52.48 193.2 
M 127.84 140.06 130 142.22 
M 132.3 144.52 139.94 152.16 
M 134.67 138.28 145.43 149.04 
M 141.71 136.72 152.63 147.63 
M 149.13 135.53 161.19 147.59 
M 156.88 134.67 164.48 142.27 
M 164.78 133.97 171.7 140.88 
M 172.76 133.34 181.58 142.16 
M 180.56 132.53 192.47 144.44 
M 188.22 131.58 198.8 142.16 
M 195.88 130.64 207.71 142.47 
M 203.63 129.78 215.71 141.86 
M 211.52 129.06 219.88 137.42 
M 219.68 128.61 229.15 138.09 
M 227.96 128.29 236.49 136.82 
M 236.39 128.11 244.43 136.15 
M 244.91 128.02 257.25 140.37 
M 253.51 128.02 262.8 137.3 
M 262.22 128.12 275.1 141 
M 270.9 128.19 278.75 136.05 
M 279.44 128.12 287.74 136.42 
M 287.87 127.95 297.68 137.76 
M 296.5 127.97 303.76 135.24 
M 305.44 128.3 317.77 140.64 
M 314.61 128.87 325.86 140.12 
M 323.94 129.59 336.66 142.31 
M 333.37 130.41 342.26 139.3 
M 342.85 131.29 350.6 139.03 
M 352.56 132.39 365.08 144.91 
M 362.65 133.87 373.16 144.38 
M 373.05 135.67 385.29 147.9 
M 383.46 137.47 395.48 149.48 
M 393.72 139.12 401.28 146.68 
M 404.05 140.84 414.07 150.86 
M 414.87 143.05 421.5 149.68 
M 426.91 146.49 435.17 154.75 
M 257.94 129 258.3 129.61 258.11 130.67 257.55 131.12 257.19 130.5 257.38 129.45 257.94 129 
M 257.88 129.25 257.98 129.95 257.4 130.86 256.72 131.07 256.62 130.36 257.2 129.45 257.88 129.25 
M 264.48 130.69 265.1 131.02 265.48 132.03 265.24 132.7 264.61 132.36 264.23 131.35 264.48 130.69 
M 264.07 131.92 264.66 131.52 265.73 131.65 266.21 132.18 265.62 132.58 264.55 132.45 264.07 131.92 
M 263.12 124.51 262.46 124.77 261.44 124.4 261.1 123.78 261.76 123.53 262.77 123.89 263.12 124.51 
M 262 123.34 262.3 123.98 262.02 125.02 261.42 125.41 261.12 124.77 261.41 123.73 262 123.34 
M 257.55 138.39 257.96 138.97 257.85 140.04 257.34 140.53 256.93 139.95 257.03 138.88 257.55 138.39 
M 257.16 140.23 257.19 139.52 257.94 138.74 258.64 138.67 258.61 139.39 257.87 140.16 257.16 140.23 
M 249.46 128.97 248.75 128.97 247.93 128.27 247.83 127.57 248.54 127.57 249.36 128.27 249.46 128.97 
M 248.17 128.93 248.39 128.26 249.31 127.7 250.01 127.83 249.79 128.5 248.87 129.06 248.17 128.93 
M 253.11 132.7 253.02 133.41 252.22 134.13 251.51 134.15 251.6 133.44 252.4 132.72 253.11 132.7 
M 252.72 132.72 252.57 133.41 251.71 134.05 251 134 251.15 133.31 252.01 132.66 252.72 132.72 
M 251.98 120.23 252.53 120.68 252.71 121.74 252.33 122.35 251.79 121.9 251.61 120.83 251.98 120.23 
M 251.99 122.09 251.92 121.38 252.53 120.5 253.23 120.33 253.3 121.04 252.68 121.92 251.99 122.09 
M 251.12 139.88 250.8 139.25 251.05 138.2 251.63 137.79 251.95 138.42 251.7 139.47 251.12 139.88 
M 252.16 138.62 251.57 139.01 250.5 138.86 250.03 138.32 250.63 137.93 251.7 138.08 252.16 138.62 
M 264.97 139.01 264.52 138.46 264.55 137.39 265.03 136.86 265.48 137.41 265.45 138.49 264.97 139.01 
M 264.62 137.21 265.13 137.71 265.21 138.78 264.79 139.36 264.28 138.86 264.2 137.78 264.62 137.21 
M 241.95 136.36 242.01 137.07 241.39 137.94 240.69 138.11 240.63 137.4 241.25 136.52 241.95 136.36 
M 240.79 137.85 241.06 137.2 242.03 136.72 242.72 136.91 242.44 137.56 241.47 138.03 240.79 137.85 
M 241.65 129.61 241.1 129.15 240.93 128.09 241.31 127.48 241.85 127.94 242.02 129 241.65 129.61 
M 240.68 128.73 241.29 128.37 242.35 128.56 242.79 129.12 242.18 129.48 241.12 129.28 240.68 128.73 
M 240.51 119.82 240.64 120.53 240.09 121.45 239.41 121.68 239.29 120.98 239.83 120.05 240.51 119.82 
M 240.45 121.41 239.87 120.99 239.62 119.95 239.94 119.32 240.52 119.73 240.78 120.77 240.45 121.41 
M 259.32 114.4 259.99 114.16 260.99 114.55 261.33 115.18 260.66 115.42 259.65 115.03 259.32 114.4 
M 261.14 114.74 260.48 114.99 259.47 114.62 259.12 114 259.79 113.75 260.8 114.12 261.14 114.74 
M 269.01 122.22 269.7 122.4 270.31 123.28 270.23 123.99 269.54 123.81 268.93 122.92 269.01 122.22 
M 269.26 123.84 269.36 123.14 270.18 122.43 270.89 122.43 270.79 123.14 269.97 123.84 269.26 123.84 
M 254.22 116.14 254.71 115.62 255.78 115.51 256.37 115.93 255.88 116.44 254.8 116.55 254.22 116.14 
M 255.14 115.23 255.48 115.85 255.25 116.9 254.68 117.33 254.34 116.7 254.57 115.65 255.14 115.23 
M 267.19 114.25 267.84 113.95 268.87 114.24 269.26 114.83 268.62 115.14 267.58 114.84 267.19 114.25 
M 269.04 114.67 268.33 114.78 267.42 114.2 267.22 113.52 267.92 113.41 268.83 113.99 269.04 114.67 
M 270.01 130.85 270.64 130.52 271.69 130.78 272.1 131.35 271.47 131.68 270.42 131.43 270.01 130.85 
M 271.74 131.55 271.06 131.36 270.46 130.46 270.55 129.76 271.24 129.95 271.83 130.85 271.74 131.55 
M 229.73 116.5 229.86 115.8 230.69 115.12 231.4 115.15 231.28 115.85 230.44 116.53 229.73 116.5 
M 229.75 115.75 230.45 115.6 231.39 116.11 231.64 116.78 230.95 116.93 230 116.41 229.75 115.75 
M 247.56 118.79 247.5 119.5 246.73 120.25 246.02 120.3 246.08 119.59 246.84 118.84 247.56 118.79 
M 246.24 118.94 246.85 119.3 247.2 120.31 246.93 120.97 246.32 120.61 245.97 119.6 246.24 118.94 
M 237.43 113.08 237.38 112.37 238.02 111.5 238.71 111.35 238.77 112.06 238.13 112.92 237.43 113.08 
M 237.27 112.39 237.89 112.03 238.95 112.24 239.38 112.8 238.77 113.15 237.71 112.95 237.27 112.39 
M 232.8 124.48 232.88 125.19 232.27 126.08 231.58 126.26 231.5 125.55 232.11 124.66 232.8 124.48 
M 231.81 126.1 231.93 125.4 232.77 124.72 233.48 124.74 233.36 125.44 232.52 126.12 231.81 126.1 
M 244.33 111.41 243.62 111.32 242.9 110.52 242.89 109.81 243.6 109.9 244.31 110.7 244.33 111.41 
M 243.63 109.79 243.83 110.47 243.38 111.45 242.74 111.75 242.53 111.07 242.98 110.09 243.63 109.79 
M 279.24 123.9 279.72 124.42 279.75 125.5 279.3 126.05 278.82 125.52 278.79 124.45 279.24 123.9 
M 278.46 124.83 279.17 124.74 280.07 125.32 280.26 126.01 279.56 126.1 278.66 125.51 278.46 124.83 
M 274.67 114.48 274.74 113.77 275.52 113.03 276.23 112.99 276.16 113.7 275.38 114.44 274.67 114.48 
M 276.08 113.21 275.7 113.81 274.67 114.12 274.02 113.82 274.4 113.22 275.43 112.92 276.08 113.21 
M 252.55 111.72 251.88 111.48 251.36 110.54 251.5 109.84 252.17 110.08 252.7 111.02 252.55 111.72 
M 252.56 110.16 252.28 110.81 251.32 111.29 250.63 111.11 250.91 110.45 251.87 109.98 252.56 110.16 
M 224.27 132.76 223.86 132.19 223.95 131.12 224.46 130.62 224.88 131.2 224.78 132.27 224.27 132.76 
M 223.61 131.37 224.32 131.44 225.06 132.22 225.09 132.93 224.39 132.86 223.65 132.08 223.61 131.37 
M 234.45 134.93 234.71 134.27 235.66 133.76 236.35 133.92 236.1 134.59 235.15 135.09 234.45 134.93 
M 235.13 135.2 235.15 134.49 235.88 133.7 236.59 133.62 236.57 134.33 235.84 135.12 235.13 135.2 
M 223.14 120.15 223.75 120.51 224.08 121.54 223.8 122.19 223.19 121.82 222.86 120.8 223.14 120.15 
M 223.46 120.35 223.68 121.03 223.26 122.02 222.63 122.33 222.41 121.65 222.83 120.66 223.46 120.35 
M 277.43 133.36 277.4 132.65 278.07 131.81 278.77 131.68 278.8 132.39 278.13 133.23 277.43 133.36 
M 277.33 132.24 278.04 132.27 278.82 133.01 278.89 133.71 278.18 133.68 277.4 132.94 277.33 132.24 
M 282.91 140.16 282.21 140.02 281.56 139.16 281.6 138.45 282.3 138.59 282.95 139.45 282.91 140.16 
M 281.63 139.83 282.01 139.23 283.04 138.92 283.69 139.2 283.31 139.81 282.28 140.12 281.63 139.83 
M 284.68 126.41 285.37 126.59 285.97 127.48 285.89 128.19 285.2 128 284.6 127.11 284.68 126.41 
M 286.07 127.05 285.48 127.46 284.41 127.35 283.93 126.83 284.51 126.42 285.58 126.53 286.07 127.05 
M 290.9 131.32 290.78 132.02 289.96 132.72 289.25 132.7 289.36 132 290.19 131.31 290.9 131.32 
M 290.52 132.7 289.97 132.25 289.78 131.19 290.14 130.58 290.7 131.03 290.89 132.09 290.52 132.7 
M 259.3 104.54 258.74 104.1 258.53 103.04 258.89 102.43 259.45 102.86 259.65 103.92 259.3 104.54 
M 259.5 102.77 259.35 103.46 258.5 104.12 257.79 104.07 257.93 103.38 258.79 102.72 259.5 102.77 
M 264.9 107.95 265.53 107.61 266.57 107.86 266.99 108.43 266.36 108.76 265.32 108.52 264.9 107.95 
M 265.13 108.18 265.8 107.97 266.79 108.4 267.1 109.04 266.42 109.25 265.43 108.83 265.13 108.18 
M 266.96 151.2 266.27 151.01 265.68 150.11 265.77 149.41 266.46 149.6 267.05 150.49 266.96 151.2 
M 267.18 150.29 266.51 150.52 265.52 150.11 265.2 149.47 265.87 149.25 266.87 149.66 267.18 150.29 
M 273.06 151.74 273.06 151.03 273.76 150.21 274.46 150.1 274.47 150.82 273.77 151.63 273.06 151.74 
M 273.01 150.6 273.72 150.67 274.46 151.45 274.49 152.16 273.78 152.09 273.04 151.31 273.01 150.6 
M 263.58 143.89 263.24 144.52 262.24 144.91 261.57 144.67 261.91 144.04 262.91 143.65 263.58 143.89 
M 262.79 145.07 262.4 144.47 262.56 143.41 263.09 142.94 263.48 143.54 263.33 144.61 262.79 145.07 
M 276.18 144.09 276.86 144.29 277.44 145.19 277.34 145.9 276.66 145.7 276.08 144.79 276.18 144.09 
M 277.56 145.15 276.86 145.23 275.97 144.63 275.79 143.94 276.49 143.86 277.38 144.46 277.56 145.15 
M 256.08 126.84 255.68 126.25 255.81 125.18 256.33 124.7 256.73 125.29 256.61 126.36 256.08 126.84 
M 256.96 126.08 256.25 126.02 255.5 125.25 255.46 124.54 256.17 124.6 256.92 125.37 256.96 126.08 
M 232.55 105.66 232.2 106.28 231.19 106.64 230.52 106.38 230.88 105.76 231.89 105.4 232.55 105.66 
M 232.36 106 231.69 106.23 230.69 105.84 230.35 105.22 231.02 104.98 232.03 105.37 232.36 106 
M 225.79 105.82 226.17 106.42 226 107.49 225.46 107.95 225.08 107.34 225.25 106.28 225.79 105.82 
M 225.58 106.06 225.83 106.73 225.46 107.74 224.84 108.09 224.59 107.42 224.96 106.41 225.58 106.06 
M 225.01 114.43 224.38 114.78 223.33 114.56 222.9 113.99 223.52 113.65 224.58 113.87 225.01 114.43 
M 223.49 113.54 224.05 113.97 224.27 115.03 223.92 115.65 223.35 115.21 223.14 114.16 223.49 113.54 
M 243.84 148.9 243.13 148.91 242.31 148.22 242.2 147.52 242.91 147.51 243.73 148.2 243.84 148.9 
M 242.59 148.91 242.76 148.22 243.64 147.59 244.35 147.66 244.18 148.35 243.3 148.98 242.59 148.91 
M 231.3 140.93 231.33 140.22 232.07 139.44 232.78 139.38 232.75 140.09 232 140.86 231.3 140.93 
M 231.23 140.02 231.93 139.92 232.84 140.49 233.05 141.17 232.35 141.28 231.44 140.71 231.23 140.02 
M 296.89 124.14 296.82 124.85 296.03 125.59 295.32 125.62 295.39 124.91 296.18 124.17 296.89 124.14 
M 295.31 124.69 296.02 124.64 296.88 125.28 297.04 125.97 296.33 126.03 295.46 125.39 295.31 124.69 
M 290.53 117.08 291.13 117.46 291.43 118.49 291.14 119.14 290.54 118.76 290.24 117.72 290.53 117.08 
M 290.64 118.9 290.59 118.19 291.24 117.33 291.93 117.18 291.98 117.89 291.34 118.75 290.64 118.9 
M 252.39 150.52 252.02 151.13 250.99 151.45 250.34 151.17 250.71 150.56 251.74 150.24 252.39 150.52 
M 251.08 151.61 251.11 150.9 251.85 150.12 252.56 150.04 252.53 150.76 251.79 151.54 251.08 151.61 
M 253.46 145.84 253.01 145.29 253.03 144.21 253.5 143.68 253.96 144.23 253.94 145.31 253.46 145.84 
M 252.73 144.44 253.44 144.51 254.18 145.29 254.21 146 253.5 145.93 252.76 145.15 252.73 144.44 
M 274.4 138.86 274.86 138.31 275.92 138.14 276.52 138.51 276.07 139.06 275.01 139.23 274.4 138.86 
M 274.67 138.45 275.39 138.44 276.22 139.12 276.33 139.82 275.62 139.84 274.79 139.16 274.67 138.45 
M 264.37 101.7 264.68 101.06 265.67 100.64 266.34 100.85 266.03 101.49 265.04 101.92 264.37 101.7 
M 265.05 100.51 265.5 101.06 265.48 102.14 265 102.67 264.55 102.12 264.57 101.04 265.05 100.51 
M 256.78 97.11 256.96 96.42 257.84 95.81 258.55 95.88 258.37 96.57 257.49 97.19 256.78 97.11 
M 258.31 97.01 257.64 96.75 257.13 95.81 257.29 95.11 257.95 95.36 258.46 96.31 258.31 97.01 
M 252.57 94.6 251.89 94.78 250.92 94.3 250.64 93.65 251.33 93.47 252.3 93.94 252.57 94.6 
M 251.59 93.3 251.82 93.98 251.42 94.98 250.79 95.3 250.56 94.63 250.95 93.63 251.59 93.3 
M 263.12 94.97 263.81 94.82 264.75 95.35 264.99 96.02 264.29 96.17 263.36 95.64 263.12 94.97 
M 264.08 96.31 263.84 95.64 264.23 94.64 264.85 94.3 265.1 94.97 264.71 95.98 264.08 96.31 
M 247.76 100.3 248.41 100.58 248.87 101.55 248.68 102.24 248.03 101.95 247.57 100.98 247.76 100.3 
M 248.44 100.48 248.47 101.19 247.8 102.03 247.1 102.16 247.07 101.45 247.74 100.61 248.44 100.48 
M 213.33 133.36 212.77 132.92 212.57 131.86 212.93 131.25 213.49 131.69 213.69 132.74 213.33 133.36 
M 212.38 132.63 212.91 132.16 213.99 132.15 214.53 132.61 214 133.08 212.92 133.09 212.38 132.63 
M 221.52 139.6 220.98 139.14 220.82 138.08 221.2 137.48 221.74 137.94 221.9 139 221.52 139.6 
M 220.59 138.82 221.15 138.39 222.23 138.44 222.74 138.94 222.18 139.37 221.1 139.32 220.59 138.82 
M 221.09 124.96 221.7 125.33 222.04 126.35 221.76 127.01 221.15 126.64 220.82 125.62 221.09 124.96 
M 220.79 125.47 221.45 125.73 221.96 126.68 221.8 127.37 221.14 127.11 220.63 126.17 220.79 125.47 
M 218.01 134.72 217.49 134.24 217.37 133.17 217.77 132.59 218.29 133.07 218.41 134.14 218.01 134.72 
M 217.31 133.08 217.94 133.4 218.35 134.4 218.12 135.07 217.48 134.75 217.08 133.75 217.31 133.08 
M 273.5 106.47 273.07 107.03 272.01 107.24 271.39 106.89 271.83 106.32 272.88 106.12 273.5 106.47 
M 271.97 107.34 272.19 106.67 273.11 106.11 273.81 106.23 273.59 106.91 272.67 107.46 271.97 107.34 
M 296.29 130.27 296.98 130.46 297.57 131.36 297.48 132.07 296.79 131.88 296.2 130.98 296.29 130.27 
M 296.11 130.9 296.82 130.92 297.62 131.64 297.7 132.35 296.99 132.33 296.2 131.61 296.11 130.9 
M 293.4 138.26 293.07 138.89 292.06 139.27 291.39 139.03 291.73 138.4 292.73 138.02 293.4 138.26 
M 292.29 139.46 292.17 138.76 292.72 137.84 293.4 137.62 293.52 138.32 292.96 139.24 292.29 139.46 
M 255.98 90.74 256.45 90.2 257.52 90.06 258.11 90.44 257.64 90.98 256.58 91.13 255.98 90.74 
M 257.63 90.02 257.3 90.65 256.3 91.04 255.63 90.8 255.96 90.17 256.96 89.78 257.63 90.02 
M 262.22 86.89 262.44 86.21 263.35 85.64 264.06 85.76 263.84 86.44 262.93 87 262.22 86.89 
M 263.64 86.97 263.06 86.57 262.78 85.53 263.1 84.89 263.69 85.29 263.96 86.33 263.64 86.97 
M 271.84 99.55 271.99 98.85 272.86 98.21 273.57 98.26 273.41 98.95 272.55 99.6 271.84 99.55 
M 271.95 99.23 272.49 98.76 273.56 98.75 274.11 99.22 273.57 99.69 272.49 99.69 271.95 99.23 
M 274.1 88.55 274.54 89.11 274.5 90.18 274.02 90.7 273.57 90.15 273.61 89.07 274.1 88.55 
M 274.64 89.05 274.31 89.68 273.31 90.08 272.64 89.84 272.97 89.21 273.97 88.82 274.64 89.05 
M 268.49 88.61 268.79 89.26 268.49 90.29 267.89 90.68 267.59 90.04 267.89 89 268.49 88.61 
M 267.68 89.01 268.27 89.4 268.55 90.44 268.24 91.08 267.65 90.68 267.37 89.65 267.68 89.01 
M 206.75 136.77 207.32 136.34 208.39 136.41 208.9 136.91 208.33 137.34 207.26 137.27 206.75 136.77 
M 208.64 136.84 207.97 137.06 206.98 136.63 206.67 135.99 207.35 135.78 208.33 136.2 208.64 136.84 
M 210.75 126.04 210.13 125.7 209.75 124.69 209.99 124.03 210.62 124.36 211 125.37 210.75 126.04 
M 211.04 124.56 210.61 125.13 209.56 125.36 208.94 125.02 209.36 124.45 210.41 124.22 211.04 124.56 
M 229.39 130.65 229.62 129.98 230.54 129.43 231.24 129.55 231.02 130.23 230.1 130.78 229.39 130.65 
M 231.12 129.94 230.5 130.29 229.45 130.07 229.02 129.5 229.64 129.15 230.69 129.37 231.12 129.94 
M 236.75 147.97 237.08 148.6 236.83 149.64 236.25 150.06 235.93 149.43 236.18 148.38 236.75 147.97 
M 236.43 148.2 236.71 148.85 236.38 149.88 235.77 150.24 235.49 149.59 235.82 148.57 236.43 148.2 
M 214.4 118.59 215.08 118.81 215.64 119.73 215.52 120.43 214.84 120.21 214.28 119.29 214.4 118.59 
M 215.55 118.94 215.21 119.57 214.2 119.94 213.54 119.7 213.88 119.07 214.89 118.69 215.55 118.94 
M 213.67 114.26 213.02 113.95 212.6 112.97 212.81 112.29 213.45 112.6 213.88 113.58 213.67 114.26 
M 212.97 112.5 213.4 113.07 213.32 114.14 212.81 114.65 212.39 114.08 212.47 113 212.97 112.5 
M 217.58 108.6 218.29 108.69 219 109.5 219.01 110.21 218.31 110.12 217.59 109.31 217.58 108.6 
M 218.17 108.6 218.49 109.23 218.22 110.27 217.64 110.68 217.32 110.04 217.59 109 218.17 108.6 
M 217.32 103.51 217.96 103.2 219 103.47 219.4 104.05 218.77 104.37 217.72 104.1 217.32 103.51 
M 217.62 104.13 218.14 103.65 219.22 103.61 219.77 104.06 219.25 104.54 218.17 104.58 217.62 104.13 
M 279.53 98.03 278.92 98.39 277.86 98.2 277.41 97.64 278.03 97.28 279.09 97.47 279.53 98.03 
M 279.09 98.38 278.44 98.09 277.98 97.12 278.17 96.43 278.82 96.72 279.28 97.69 279.09 98.38 
M 279.29 83.79 279.89 84.17 280.2 85.2 279.91 85.85 279.31 85.47 279 84.44 279.29 83.79 
M 278.93 85.3 279.36 84.73 280.41 84.5 281.04 84.84 280.61 85.41 279.56 85.64 278.93 85.3 
M 280.39 90.97 280.72 90.34 281.72 89.95 282.39 90.18 282.06 90.81 281.06 91.21 280.39 90.97 
M 282.04 90.08 281.63 90.66 280.59 90.93 279.95 90.61 280.36 90.02 281.4 89.76 282.04 90.08 
M 275.33 80.83 274.86 80.3 274.85 79.22 275.31 78.68 275.78 79.22 275.79 80.29 275.33 80.83 
M 275.04 80.53 275.07 79.82 275.81 79.03 276.51 78.96 276.48 79.68 275.74 80.46 275.04 80.53 
M 210.64 142.79 211.27 143.11 211.69 144.1 211.47 144.78 210.83 144.46 210.41 143.47 210.64 142.79 
M 211.87 143.76 211.2 144 210.2 143.6 209.87 142.97 210.54 142.74 211.54 143.13 211.87 143.76 
M 222.8 150.76 222.96 150.07 223.82 149.43 224.53 149.49 224.38 150.18 223.51 150.82 222.8 150.76 
M 223.09 149.55 223.72 149.87 224.12 150.87 223.88 151.55 223.25 151.22 222.86 150.22 223.09 149.55 
M 227.38 101.57 227.36 100.86 228.04 100.03 228.75 99.91 228.76 100.62 228.08 101.45 227.38 101.57 
M 228.87 100.63 228.23 100.93 227.19 100.65 226.8 100.06 227.44 99.75 228.48 100.03 228.87 100.63 
M 233.07 96.45 233.67 96.06 234.73 96.21 235.2 96.75 234.6 97.13 233.54 96.98 233.07 96.45 
M 234.68 95.98 234.39 96.63 233.42 97.1 232.73 96.91 233.02 96.26 233.99 95.79 234.68 95.98 
M 242.22 102.3 241.66 102.73 240.59 102.68 240.07 102.18 240.64 101.75 241.71 101.8 242.22 102.3 
M 241.95 102.41 241.24 102.48 240.36 101.86 240.2 101.17 240.9 101.1 241.78 101.72 241.95 102.41 
M 280.47 103 280.53 103.71 279.9 104.58 279.21 104.74 279.15 104.04 279.78 103.17 280.47 103 
M 279.09 104.2 279.63 103.73 280.7 103.73 281.24 104.19 280.7 104.66 279.63 104.66 279.09 104.2 
M 282 151.46 281.67 152.09 280.68 152.49 280 152.26 280.33 151.63 281.33 151.23 282 151.46 
M 281.8 151.67 281.19 152.04 280.13 151.85 279.68 151.3 280.29 150.94 281.35 151.12 281.8 151.67 
M 219.88 95.69 220.57 95.87 221.18 96.75 221.11 97.46 220.42 97.28 219.8 96.4 219.88 95.69 
M 219.72 96.31 220.43 96.32 221.23 97.05 221.31 97.75 220.6 97.74 219.8 97.01 219.72 96.31 
M 211.79 104.35 211.08 104.23 210.4 103.4 210.42 102.68 211.12 102.81 211.81 103.64 211.79 104.35 
M 210.8 104.28 210.85 103.57 211.61 102.81 212.32 102.76 212.27 103.47 211.51 104.23 210.8 104.28 
M 209.66 96.14 209.48 95.45 209.96 94.49 210.61 94.21 210.79 94.9 210.32 95.86 209.66 96.14 
M 209.58 94.57 210.2 94.92 210.55 95.94 210.29 96.6 209.67 96.25 209.32 95.23 209.58 94.57 
M 304.53 145.61 305 145.07 306.06 144.91 306.66 145.3 306.2 145.84 305.13 145.99 304.53 145.61 
M 305.08 144.82 305.67 145.21 305.98 146.24 305.68 146.89 305.08 146.5 304.78 145.47 305.08 144.82 
M 275.67 119.34 275.38 119.99 274.41 120.46 273.72 120.27 274.01 119.62 274.98 119.15 275.67 119.34 
M 274.49 120.6 274.45 119.89 275.11 119.04 275.8 118.9 275.84 119.61 275.19 120.46 274.49 120.6 
M 214.01 153.65 213.56 154.21 212.5 154.4 211.89 154.03 212.34 153.48 213.4 153.29 214.01 153.65 
M 213.33 154.57 212.82 154.07 212.75 152.99 213.17 152.42 213.68 152.93 213.75 154 213.33 154.57 
M 225.18 158.25 225.72 157.78 226.79 157.78 227.34 158.24 227.07 158.47 
M 225.61 158.62 225.18 158.25 
M 225.51 157.91 226.22 157.99 226.7 158.51 
M 225.54 158.63 225.51 157.91 
M 230.65 151.34 229.94 151.44 229.04 150.86 228.84 150.18 229.54 150.08 230.45 150.66 230.65 151.34 
M 229.73 149.94 229.96 150.61 229.55 151.61 228.91 151.93 228.69 151.26 229.09 150.26 229.73 149.94 
M 219.48 155.48 218.83 155.76 217.8 155.44 217.43 154.84 218.08 154.55 219.11 154.87 219.48 155.48 
M 218.84 155.88 218.33 155.38 218.24 154.31 218.66 153.74 219.17 154.24 219.26 155.31 218.84 155.88 
M 201.11 112.53 201.67 112.97 201.86 114.03 201.5 114.65 200.95 114.2 200.75 113.14 201.11 112.53 
M 201.14 112.79 201.49 113.41 201.27 114.46 200.71 114.89 200.36 114.27 200.58 113.22 201.14 112.79 
M 281.54 118.4 281.04 117.89 280.97 116.82 281.4 116.25 281.9 116.76 281.97 117.83 281.54 118.4 
M 282.19 117.71 281.49 117.58 280.82 116.74 280.85 116.03 281.55 116.16 282.22 117 282.19 117.71 
M 298.78 140.74 299.41 140.41 300.46 140.66 300.87 141.24 300.24 141.57 299.19 141.32 298.78 140.74 
M 299.89 141.8 299.62 141.14 299.97 140.13 300.59 139.77 300.85 140.43 300.5 141.45 299.89 141.8 
M 289.14 89.33 288.78 89.95 287.76 90.29 287.1 90.03 287.46 89.41 288.48 89.07 289.14 89.33 
M 288.5 88.96 288.38 89.66 287.54 90.33 286.83 90.31 286.95 89.61 287.79 88.93 288.5 88.96 
M 289.35 82.02 289.44 82.72 288.84 83.62 288.16 83.81 288.06 83.11 288.66 82.21 289.35 82.02 
M 288.71 83.73 288.53 83.04 289 82.08 289.66 81.8 289.84 82.49 289.36 83.46 288.71 83.73 
M 285.1 94.86 285.19 95.56 284.58 96.45 283.9 96.64 283.81 95.93 284.42 95.04 285.1 94.86 
M 284.1 95.03 284.62 95.52 284.73 96.59 284.32 97.17 283.8 96.68 283.69 95.61 284.1 95.03 
M 291.8 94.99 291.75 94.28 292.4 93.42 293.1 93.28 293.15 93.99 292.49 94.84 291.8 94.99 
M 291.68 93.85 292.39 93.88 293.17 94.62 293.24 95.33 292.53 95.3 291.75 94.56 291.68 93.85 
M 280.87 110.42 280.17 110.3 279.5 109.46 279.52 108.75 280.22 108.87 280.9 109.71 280.87 110.42 
M 280.87 110.06 280.19 109.84 279.62 108.93 279.74 108.22 280.42 108.44 280.98 109.35 280.87 110.06 
M 288.07 101.21 288.09 100.5 288.81 99.7 289.52 99.62 289.5 100.33 288.78 101.12 288.07 101.21 
M 288.14 100.9 288.55 100.32 289.6 100.08 290.23 100.41 289.81 100.98 288.77 101.23 288.14 100.9 
M 207.01 111.57 206.68 110.95 206.91 109.9 207.48 109.47 207.82 110.1 207.59 111.15 207.01 111.57 
M 206.52 110.91 207.02 110.4 208.09 110.31 208.67 110.73 208.17 111.24 207.1 111.33 206.52 110.91 
M 204.15 118.81 204.74 119.2 205.04 120.23 204.74 120.88 204.14 120.49 203.85 119.46 204.15 118.81 
M 205.12 120.3 204.44 120.1 203.86 119.2 203.96 118.5 204.64 118.69 205.22 119.6 205.12 120.3 
M 203.68 105.42 203.27 106.01 202.23 106.27 201.59 105.96 202 105.37 203.04 105.1 203.68 105.42 
M 203.31 106.15 202.63 105.95 202.05 105.04 202.16 104.34 202.84 104.54 203.42 105.45 203.31 106.15 
M 202.93 99.55 203.47 99.09 204.54 99.09 205.08 99.55 204.54 100.02 203.47 100.02 202.93 99.55 
M 204.59 98.98 204.26 99.61 203.25 99.99 202.58 99.74 202.92 99.12 203.93 98.74 204.59 98.98 
M 289.86 111.36 289.27 110.97 288.98 109.93 289.28 109.29 289.88 109.68 290.17 110.72 289.86 111.36 
M 290.13 110.93 289.51 110.57 289.15 109.56 289.42 108.9 290.03 109.25 290.39 110.27 290.13 110.93 
M 296.26 103.32 296.24 104.04 295.51 104.83 294.81 104.91 294.83 104.2 295.55 103.4 296.26 103.32 
M 296.18 103.61 295.78 104.2 294.74 104.47 294.1 104.15 294.5 103.57 295.54 103.3 296.18 103.61 
M 298.59 99.2 297.92 98.95 297.39 98.01 297.54 97.32 298.21 97.56 298.73 98.5 298.59 99.2 
M 297.85 97.47 298.24 98.06 298.08 99.13 297.55 99.6 297.16 99 297.31 97.93 297.85 97.47 
M 268.71 82.8 268.73 82.09 269.47 81.3 270.18 81.23 270.15 81.94 269.41 82.72 268.71 82.8 
M 268.65 82.21 269.25 81.84 270.31 82.01 270.77 82.56 270.16 82.93 269.1 82.75 268.65 82.21 
M 298.26 111.69 298.51 112.36 298.14 113.37 297.51 113.71 297.26 113.04 297.64 112.03 298.26 111.69 
M 298.7 112.8 298 112.93 297.07 112.4 296.83 111.72 297.53 111.59 298.47 112.12 298.7 112.8 
M 302.05 117.88 301.46 118.28 300.39 118.16 299.91 117.63 300.5 117.23 301.57 117.35 302.05 117.88 
M 301.78 117.58 301.17 117.94 300.11 117.74 299.67 117.18 300.28 116.82 301.34 117.02 301.78 117.58 
M 313.02 140.77 313.45 140.21 314.5 139.98 315.13 140.32 314.7 140.89 313.65 141.12 313.02 140.77 
M 314.74 140.07 314.32 140.64 313.26 140.87 312.64 140.53 313.07 139.96 314.12 139.73 314.74 140.07 
M 307.63 134.6 307.1 135.08 306.03 135.11 305.48 134.66 306 134.18 307.08 134.15 307.63 134.6 
M 306.13 135.33 306.29 134.64 307.17 134.01 307.88 134.08 307.71 134.77 306.84 135.4 306.13 135.33 
M 296.25 87.43 295.67 87.02 295.41 85.98 295.73 85.34 296.31 85.75 296.57 86.8 296.25 87.43 
M 295.21 86.63 295.79 86.22 296.86 86.34 297.35 86.86 296.76 87.26 295.69 87.15 295.21 86.63 
M 307.92 122.06 307.22 122.2 306.29 121.67 306.05 121 306.75 120.86 307.68 121.39 307.92 122.06 
M 306.17 121.52 306.84 121.31 307.83 121.74 308.14 122.38 307.46 122.6 306.47 122.17 306.17 121.52 
M 303.57 127.77 304.28 127.75 305.11 128.44 305.23 129.14 304.52 129.16 303.69 128.47 303.57 127.77 
M 305.06 127.98 304.64 128.55 303.59 128.78 302.96 128.44 303.39 127.87 304.44 127.64 305.06 127.98 
M 232.39 90.94 232.84 90.39 233.9 90.2 234.51 90.57 234.06 91.12 233 91.3 232.39 90.94 
M 233.46 91.57 233.24 90.9 233.65 89.9 234.29 89.59 234.51 90.26 234.1 91.25 233.46 91.57 
M 227.4 93.18 227.87 93.71 227.89 94.79 227.43 95.33 226.96 94.8 226.94 93.72 227.4 93.18 
M 228.23 94.29 227.55 94.48 226.58 94.01 226.29 93.36 226.98 93.17 227.95 93.64 228.23 94.29 
M 203.11 127.3 203.79 127.07 204.78 127.47 205.11 128.1 204.44 128.34 203.44 127.93 203.11 127.3 
M 203.59 127.07 204.19 127.46 204.49 128.49 204.2 129.14 203.6 128.75 203.29 127.72 203.59 127.07 
M 269.89 75.52 270.03 74.82 270.88 74.16 271.59 74.2 271.45 74.9 270.61 75.56 269.89 75.52 
M 271.54 75.06 270.83 75.1 269.97 74.45 269.83 73.75 270.54 73.71 271.39 74.37 271.54 75.06 
M 263.04 76.81 262.87 77.5 261.99 78.12 261.28 78.05 261.45 77.36 262.33 76.74 263.04 76.81 
M 261.75 76.72 262.28 77.2 262.4 78.27 262 78.86 261.48 78.38 261.35 77.31 261.75 76.72 
M 268.01 71 267.3 71.08 266.41 70.48 266.23 69.79 266.94 69.71 267.83 70.31 268.01 71 
M 266.33 70.62 266.92 70.22 267.99 70.36 268.47 70.89 267.87 71.28 266.81 71.15 266.33 70.62 
M 270.39 63.88 270.75 64.49 270.56 65.55 270 65.99 269.64 65.38 269.84 64.32 270.39 63.88 
M 269.68 64.3 270.27 64.69 270.57 65.73 270.27 66.37 269.67 65.98 269.38 64.95 269.68 64.3 
M 279.4 69.42 279.1 70.06 278.12 70.49 277.44 70.28 277.74 69.64 278.72 69.21 279.4 69.42 
M 278.92 70.49 278.34 70.09 278.06 69.05 278.37 68.41 278.96 68.82 279.24 69.86 278.92 70.49 
M 279.94 76.81 280.18 76.14 281.12 75.61 281.82 75.76 281.58 76.43 280.64 76.96 279.94 76.81 
M 280.87 75.47 281.09 76.14 280.68 77.14 280.05 77.46 279.82 76.78 280.23 75.79 280.87 75.47 
M 304.03 89.32 303.94 88.61 304.54 87.72 305.23 87.53 305.32 88.24 304.72 89.13 304.03 89.32 
M 305.45 88.37 304.78 88.63 303.77 88.27 303.42 87.65 304.09 87.39 305.1 87.75 305.45 88.37 
M 294.82 76.04 295.34 75.57 296.42 75.54 296.97 75.99 296.44 76.47 295.36 76.5 294.82 76.04 
M 295.59 76.78 295.64 76.07 296.39 75.31 297.1 75.25 297.06 75.96 296.3 76.73 295.59 76.78 
M 303.84 82.93 304.05 82.25 304.96 81.67 305.66 81.77 305.46 82.46 304.55 83.03 303.84 82.93 
M 305.43 81.89 304.99 82.45 303.94 82.66 303.32 82.31 303.75 81.75 304.81 81.54 305.43 81.89 
M 299.51 92.92 298.9 92.56 298.57 91.53 298.85 90.88 299.46 91.24 299.79 92.27 299.51 92.92 
M 298.44 92.25 298.96 91.77 300.04 91.73 300.59 92.17 300.07 92.66 299 92.7 298.44 92.25 
M 274.79 56.57 274.65 55.87 275.18 54.93 275.85 54.7 275.99 55.39 275.46 56.33 274.79 56.57 
M 275.86 55.02 275.58 55.67 274.6 56.13 273.92 55.94 274.2 55.29 275.18 54.83 275.86 55.02 
M 265.83 57.09 265.12 57.1 264.3 56.4 264.19 55.7 264.9 55.69 265.72 56.39 265.83 57.09 
M 265.55 55.78 265.27 56.43 264.3 56.9 263.61 56.71 263.89 56.06 264.86 55.59 265.55 55.78 
M 257.66 66.82 258.32 66.57 259.33 66.94 259.68 67.57 259.01 67.82 258 67.45 257.66 66.82 
M 259.15 66.53 258.93 67.21 258 67.76 257.3 67.63 257.53 66.95 258.45 66.41 259.15 66.53 
M 278.54 62.44 279.22 62.64 279.79 63.55 279.69 64.26 279.01 64.05 278.43 63.14 278.54 62.44 
M 278.75 64.08 278.86 63.38 279.67 62.68 280.38 62.68 280.28 63.38 279.47 64.08 278.75 64.08 
M 264.72 62.83 264.21 63.32 263.13 63.39 262.57 62.95 263.08 62.46 264.15 62.39 264.72 62.83 
M 262.83 62.84 263.52 62.67 264.48 63.15 264.75 63.8 264.06 63.98 263.1 63.5 262.83 62.84 
M 315.6 147.19 316.03 147.75 315.98 148.83 315.49 149.34 315.05 148.78 315.1 147.71 315.6 147.19 
M 316.36 148.23 315.69 148.48 314.69 148.1 314.34 147.48 315.01 147.23 316.02 147.6 316.36 148.23 
M 286.4 64.68 286.52 65.38 285.96 66.3 285.29 66.52 285.17 65.82 285.72 64.9 286.4 64.68 
M 285.45 64.88 285.97 65.38 286.06 66.45 285.64 67.02 285.13 66.53 285.04 65.46 285.45 64.88 
M 286.1 74.67 286.51 75.26 286.4 76.33 285.88 76.81 285.47 76.23 285.58 75.16 286.1 74.67 
M 285.32 76.22 285.75 75.65 286.8 75.42 287.43 75.77 287 76.34 285.95 76.56 285.32 76.22 
M 244.51 97.08 243.85 97.33 242.84 96.94 242.51 96.31 243.18 96.07 244.18 96.46 244.51 97.08 
M 243.85 95.95 243.77 96.66 242.97 97.38 242.25 97.39 242.34 96.69 243.14 95.97 243.85 95.95 
M 258.22 80.93 257.71 81.42 256.64 81.47 256.08 81.03 256.59 80.54 257.66 80.49 258.22 80.93 
M 256.43 80.59 257.13 80.72 257.8 81.56 257.77 82.28 257.07 82.14 256.4 81.3 256.43 80.59 
M 295.54 66.35 295.14 66.94 294.1 67.22 293.46 66.91 293.86 66.32 294.89 66.04 295.54 66.35 
M 293.71 66.84 294.3 66.46 295.37 66.61 295.84 67.15 295.24 67.53 294.17 67.38 293.71 66.84 
M 285.28 58.55 284.76 59.03 283.68 59.06 283.13 58.6 283.66 58.12 284.73 58.1 285.28 58.55 
M 283.53 58.12 284.21 58.32 284.79 59.22 284.69 59.93 284.01 59.73 283.43 58.82 283.53 58.12 
M 302.12 66.99 302.46 66.36 303.46 65.97 304.13 66.21 303.8 66.84 302.79 67.23 302.12 66.99 
M 303.81 67.05 303.13 66.86 302.53 65.96 302.62 65.26 303.3 65.45 303.9 66.34 303.81 67.05 
M 306.56 110.4 305.88 110.18 305.32 109.25 305.44 108.55 306.12 108.77 306.68 109.69 306.56 110.4 
M 305.19 109.34 305.9 109.24 306.8 109.82 307 110.5 306.3 110.6 305.39 110.02 305.19 109.34 
M 302.52 105.6 301.96 106.03 300.88 105.97 300.37 105.48 300.94 105.04 302.01 105.1 302.52 105.6 
M 301.68 104.75 301.69 105.46 301.01 106.29 300.31 106.41 300.29 105.7 300.97 104.87 301.68 104.75 
M 239.2 82.8 238.67 82.32 238.54 81.25 238.94 80.66 239.47 81.14 239.6 82.21 239.2 82.8 
M 238.89 80.93 239.25 81.55 239.05 82.6 238.49 83.05 238.14 82.43 238.33 81.37 238.89 80.93 
M 226.41 82.72 226.94 83.19 227.07 84.26 226.67 84.85 226.14 84.37 226.01 83.31 226.41 82.72 
M 227.25 84.18 226.56 84.04 225.9 83.19 225.94 82.48 226.64 82.62 227.3 83.47 227.25 84.18 
M 241.31 90.23 241.49 90.92 241.02 91.89 240.37 92.17 240.18 91.48 240.65 90.51 241.31 90.23 
M 240.13 91.62 240.61 91.09 241.67 90.95 242.27 91.34 241.8 91.87 240.73 92.01 240.13 91.62 
M 221.04 87.85 221.74 87.73 222.65 88.3 222.87 88.98 222.16 89.09 221.25 88.53 221.04 87.85 
M 222.39 89.1 221.84 88.65 221.67 87.59 222.04 86.98 222.59 87.43 222.76 88.49 222.39 89.1 
M 234.88 81.98 235.13 82.64 234.76 83.66 234.14 84 233.89 83.34 234.25 82.33 234.88 81.98 
M 235.14 83.51 234.48 83.25 233.99 82.29 234.15 81.6 234.81 81.86 235.31 82.82 235.14 83.51 
M 311.81 125.24 312.29 124.71 313.35 124.58 313.94 124.98 313.47 125.51 312.4 125.64 311.81 125.24 
M 312.15 125.49 312.65 124.98 313.72 124.9 314.3 125.32 313.8 125.83 312.72 125.91 312.15 125.49 
M 313.32 135.41 312.92 134.83 313.03 133.76 313.55 133.27 313.96 133.86 313.84 134.93 313.32 135.41 
M 314.04 134.9 313.4 134.6 312.95 133.62 313.15 132.94 313.8 133.24 314.25 134.22 314.04 134.9 
M 194.45 100.4 193.81 100.71 192.77 100.43 192.37 99.84 193.01 99.53 194.05 99.81 194.45 100.4 
M 193.79 100.85 193.29 100.34 193.21 99.27 193.64 98.7 194.14 99.21 194.21 100.28 193.79 100.85 
M 201.64 90.03 202.25 89.66 203.31 89.85 203.76 90.4 203.15 90.77 202.09 90.58 201.64 90.03 
M 203.21 90.86 202.62 90.46 202.33 89.42 202.64 88.78 203.23 89.18 203.52 90.22 203.21 90.86 
M 196.23 93.55 196.74 94.05 196.84 95.12 196.43 95.7 195.91 95.2 195.81 94.13 196.23 93.55 
M 196.18 95.43 196.09 94.72 196.68 93.83 197.37 93.64 197.46 94.34 196.87 95.24 196.18 95.43 
M 250.2 74.37 250.85 74.65 251.33 75.61 251.16 76.3 250.5 76.03 250.02 75.06 250.2 74.37 
M 249.86 75.41 250.52 75.13 251.54 75.47 251.91 76.07 251.25 76.35 250.23 76.02 249.86 75.41 
M 309.3 103.67 309.27 104.38 308.55 105.18 307.84 105.25 307.86 104.54 308.59 103.75 309.3 103.67 
M 308.09 103.8 308.66 104.22 308.9 105.27 308.56 105.9 307.99 105.48 307.75 104.43 308.09 103.8 
M 310.42 98.95 309.73 98.77 309.13 97.88 309.21 97.17 309.9 97.36 310.5 98.25 310.42 98.95 
M 309.01 98.22 309.63 97.88 310.69 98.11 311.11 98.68 310.49 99.02 309.44 98.79 309.01 98.22 
M 302.96 97.54 302.93 96.83 303.6 95.98 304.3 95.85 304.33 96.56 303.66 97.4 302.96 97.54 
M 304.45 96.67 303.78 96.9 302.78 96.5 302.45 95.87 303.12 95.64 304.12 96.04 304.45 96.67 
M 321.03 138.19 321.73 138.07 322.65 138.63 322.87 139.31 322.16 139.43 321.25 138.87 321.03 138.19 
M 322.7 138.42 322.17 138.89 321.09 138.9 320.55 138.44 321.08 137.97 322.16 137.96 322.7 138.42 
M 322.41 145.89 322.47 146.6 321.84 147.47 321.14 147.63 321.08 146.92 321.71 146.05 322.41 145.89 
M 321.04 146.39 321.75 146.5 322.44 147.32 322.43 148.03 321.73 147.93 321.03 147.1 321.04 146.39 
M 320.9 134.56 321.17 133.9 322.13 133.41 322.82 133.58 322.55 134.24 321.6 134.73 320.9 134.56 
M 321.96 133.26 322.09 133.96 321.55 134.89 320.88 135.12 320.75 134.42 321.29 133.49 321.96 133.26 
M 258.52 56.45 259.16 56.13 260.2 56.39 260.61 56.98 259.97 57.3 258.93 57.03 258.52 56.45 
M 258.91 57.2 259.32 56.62 260.37 56.38 261 56.71 260.58 57.28 259.54 57.53 258.91 57.2 
M 256.43 61.94 255.73 62 254.85 61.37 254.69 60.68 255.4 60.62 256.27 61.25 256.43 61.94 
M 255.87 60.55 255.81 61.26 255.05 62.02 254.34 62.07 254.39 61.36 255.16 60.6 255.87 60.55 
M 269.56 51.23 269.85 51.47 270.04 52.52 269.68 53.14 269.13 52.69 268.93 51.64 269.22 51.15 
M 268.69 51.87 269.4 51.83 270.25 52.5 270.39 53.2 269.68 53.23 268.83 52.57 268.69 51.87 
M 257.92 50.09 257.62 50.73 256.64 51.18 255.96 50.97 256.26 50.33 257.24 49.88 257.92 50.09 
M 257.76 50.51 257.09 50.74 256.09 50.35 255.76 49.71 256.43 49.48 257.43 49.88 257.76 50.51 
M 249.94 53.2 249.34 53.57 
M 311.02 89.01 311.72 89.11 312.42 89.92 312.42 90.63 311.72 90.53 311.02 89.72 311.02 89.01 
M 311.95 90.61 311.55 90.02 311.68 88.95 312.21 88.47 312.61 89.06 312.48 90.13 311.95 90.61 
M 214.62 92.42 215.22 92.03 216.28 92.18 216.75 92.71 216.15 93.1 215.09 92.95 214.62 92.42 
M 216.17 91.9 215.94 92.58 215.02 93.13 214.32 93.01 214.54 92.33 215.46 91.78 216.17 91.9 
M 240.83 57.97 240.27 58.41 239.2 58.38 238.79 58 
M 240.34 57.52 240.83 57.97 
M 239.66 57.73 240.59 58.17 240.88 58.82 240.2 59.01 239.22 58.55 238.95 57.95 
M 246.32 61.74 245.72 62.12 244.66 61.96 244.19 61.43 244.79 61.04 245.86 61.2 246.32 61.74 
M 244.95 60.82 245.4 61.37 245.39 62.45 244.91 62.98 244.46 62.43 244.47 61.35 244.95 60.82 
M 244.44 67.94 244.83 67.34 245.86 67.04 246.51 67.34 246.12 67.94 245.09 68.24 244.44 67.94 
M 245.8 66.89 245.73 67.59 244.95 68.34 244.24 68.37 244.31 67.66 245.09 66.92 245.8 66.89 
M 235.27 67.07 234.93 67.69 233.93 68.07 233.26 67.83 233.6 67.2 234.6 66.82 235.27 67.07 
M 233.97 68.21 234.01 67.5 234.77 66.73 235.48 66.68 235.43 67.39 234.68 68.15 233.97 68.21 
M 233.73 60.55 234.31 60.96 234.56 62.01 234.23 62.64 233.65 62.22 233.4 61.18 233.73 60.55 
M 234.78 61.74 234.08 61.83 233.18 61.24 232.99 60.56 233.69 60.46 234.59 61.05 234.78 61.74 
M 317.34 81.85 316.74 82.22 315.68 82.06 315.22 81.51 315.82 81.14 316.88 81.3 317.34 81.85 
M 316.54 80.9 316.53 81.61 315.81 82.42 315.11 82.51 315.12 81.8 315.83 80.99 316.54 80.9 
M 306.2 72.32 306.83 72.64 307.25 73.63 307.02 74.3 306.39 73.99 305.97 72.99 306.2 72.32 
M 306.12 73.97 306.35 73.3 307.28 72.75 307.98 72.88 307.75 73.56 306.82 74.1 306.12 73.97 
M 193.87 122.99 194.57 123.13 195.23 123.97 195.2 124.68 194.5 124.55 193.84 123.7 193.87 122.99 
M 194.42 124.65 194.3 123.94 194.86 123.03 195.54 122.81 195.66 123.51 195.1 124.43 194.42 124.65 
M 197.14 129.66 197.71 129.23 198.78 129.29 199.29 129.79 198.73 130.22 197.65 130.16 197.14 129.66 
M 197.78 129.03 198.33 129.49 198.5 130.55 198.12 131.16 197.58 130.7 197.41 129.64 197.78 129.03 
M 199.78 137.81 199.07 137.72 198.36 136.91 198.34 136.2 199.05 136.29 199.77 137.1 199.78 137.81 
M 198.51 136.4 199.13 136.76 199.47 137.78 199.2 138.43 198.59 138.07 198.24 137.05 198.51 136.4 
M 315.39 105.91 316.1 105.87 316.95 106.53 317.09 107.23 316.38 107.26 315.53 106.6 315.39 105.91 
M 315.48 106.26 316.19 106.31 316.95 107.07 317 107.78 316.29 107.73 315.53 106.97 315.48 106.26 
M 318.68 91.6 319.06 92.2 318.9 93.26 318.36 93.72 317.98 93.12 318.14 92.06 318.68 91.6 
M 317.85 93.13 318.28 92.56 319.33 92.35 319.96 92.7 319.52 93.26 318.47 93.48 317.85 93.13 
M 247.47 89.08 247.78 88.44 248.77 88.02 249.45 88.24 249.14 88.88 248.15 89.3 247.47 89.08 
M 248.44 87.84 248.67 88.51 248.28 89.51 247.64 89.84 247.41 89.16 247.81 88.17 248.44 87.84 
M 249.06 83.96 248.35 84 247.5 83.33 247.36 82.63 248.07 82.6 248.92 83.26 249.06 83.96 
M 247.81 84.01 247.95 83.31 248.81 82.66 249.52 82.7 249.37 83.4 248.52 84.05 247.81 84.01 
M 327.07 80.24 327.3 79.56 328.23 79.02 328.93 79.15 328.7 79.83 327.77 80.37 327.07 80.24 
M 328.54 80.31 327.93 79.94 327.59 78.92 327.86 78.27 328.47 78.63 328.81 79.65 328.54 80.31 
M 322.4 77.97 321.87 78.45 320.8 78.47 320.25 78.02 320.78 77.54 321.85 77.52 322.4 77.97 
M 321.03 77.23 321.48 77.78 321.44 78.86 320.95 79.38 320.51 78.83 320.55 77.75 321.03 77.23 
M 311.43 74.73 312.13 74.58 313.07 75.1 313.31 75.77 312.62 75.92 311.67 75.4 311.43 74.73 
M 313.19 75.22 312.52 75.46 311.52 75.07 311.18 74.44 311.85 74.2 312.86 74.59 313.19 75.22 
M 317.96 71.66 318.67 71.72 319.42 72.5 319.46 73.21 318.75 73.14 318 72.37 317.96 71.66 
M 319.29 73.01 318.66 72.69 318.26 71.69 318.49 71.02 319.12 71.34 319.52 72.34 319.29 73.01 
M 225.01 77.95 225.66 77.66 226.69 77.98 227.06 78.58 226.41 78.87 225.38 78.55 225.01 77.95 
M 226.43 78.98 225.91 78.49 225.82 77.42 226.23 76.84 226.74 77.33 226.84 78.41 226.43 78.98 
M 238.96 74.24 238.27 74.05 237.67 73.15 237.76 72.45 238.45 72.64 239.05 73.53 238.96 74.24 
M 238.18 72.54 238.54 73.16 238.34 74.21 237.78 74.65 237.42 74.04 237.63 72.98 238.18 72.54 
M 243.4 78.5 243.3 77.8 243.88 76.89 244.56 76.69 244.66 77.4 244.08 78.3 243.4 78.5 
M 243.16 77.65 243.83 77.39 244.84 77.75 245.19 78.37 244.52 78.63 243.51 78.27 243.16 77.65 
M 320.83 87.9 321.03 87.22 321.93 86.63 322.64 86.73 322.44 87.41 321.53 88 320.83 87.9 
M 321.11 86.78 321.77 87.06 322.24 88.03 322.06 88.71 321.4 88.44 320.93 87.47 321.11 86.78 
M 217.24 74.71 217.39 74.01 218.24 73.36 218.95 73.41 218.81 74.11 217.95 74.76 217.24 74.71 
M 218.81 73.66 218.32 74.18 217.25 74.29 216.67 73.88 217.16 73.36 218.23 73.25 218.81 73.66 
M 218.87 80.7 218.86 79.99 219.55 79.16 220.25 79.05 220.26 79.76 219.57 80.58 218.87 80.7 
M 220.03 79.2 219.82 79.88 218.9 80.45 218.2 80.33 218.41 79.65 219.33 79.09 220.03 79.2 
M 229.29 69.77 228.59 69.85 227.7 69.24 227.52 68.55 228.23 68.47 229.11 69.09 229.29 69.77 
M 229.22 69.1 228.57 69.37 227.55 69.02 227.18 68.41 227.84 68.14 228.86 68.48 229.22 69.1 
M 308.16 115.95 307.99 115.26 308.47 114.3 309.13 114.02 309.3 114.71 308.82 115.68 308.16 115.95 
M 308.74 115.8 308.44 115.15 308.75 114.12 309.35 113.74 309.64 114.39 309.34 115.42 308.74 115.8 
M 190.13 142.51 189.78 143.13 188.76 143.48 188.1 143.22 188.46 142.6 189.47 142.25 190.13 142.51 
M 189.88 142.57 189.33 143.02 188.25 142.97 187.73 142.48 188.29 142.04 189.37 142.09 189.88 142.57 
M 200.47 147.04 199.82 146.74 199.38 145.77 199.58 145.08 200.23 145.38 200.67 146.36 200.47 147.04 
M 199.35 145.6 200.03 145.8 200.61 146.71 200.51 147.41 199.83 147.21 199.24 146.31 199.35 145.6 
M 188.1 138.06 187.67 137.49 187.75 136.41 188.26 135.91 188.68 136.48 188.6 137.55 188.1 138.06 
M 188.37 136.19 188.42 136.9 187.77 137.76 187.08 137.91 187.03 137.2 187.67 136.34 188.37 136.19 
M 193.61 106.09 194.15 105.62 195.22 105.61 195.77 106.07 195.23 106.54 194.16 106.55 193.61 106.09 
M 193.87 106.08 194.55 105.86 195.54 106.28 195.85 106.92 195.18 107.14 194.19 106.72 193.87 106.08 
M 321.15 114.65 321.16 115.36 320.47 116.19 319.77 116.3 319.76 115.59 320.45 114.76 321.15 114.65 
M 320.28 114.68 320.64 115.29 320.44 116.35 319.88 116.79 319.52 116.17 319.72 115.12 320.28 114.68 
M 315.97 116.31 315.26 116.25 314.5 115.49 314.46 114.78 315.17 114.83 315.92 115.6 315.97 116.31 
M 315.11 114.73 315.41 115.37 315.12 116.41 314.52 116.8 314.22 116.16 314.51 115.12 315.11 114.73 
M 327.48 130.86 327.58 130.15 328.39 129.45 329.1 129.44 329 130.15 328.19 130.86 327.48 130.86 
M 328 130.92 328.04 130.21 328.78 129.43 329.49 129.36 329.45 130.07 328.71 130.85 328 130.92 
M 327.33 139.14 327.91 138.72 328.98 138.82 329.48 139.33 328.9 139.75 327.83 139.65 327.33 139.14 
M 329.2 139.05 328.59 139.41 327.53 139.23 327.09 138.67 327.7 138.31 328.76 138.5 329.2 139.05 
M 319.49 128.39 319.76 127.74 320.72 127.25 321.41 127.43 321.14 128.09 320.18 128.57 319.49 128.39 
M 320.83 127.18 320.71 127.89 319.87 128.57 319.16 128.55 319.28 127.85 320.12 127.17 320.83 127.18 
M 333.2 133.77 333.58 134.37 333.41 135.44 332.87 135.89 332.49 135.29 332.66 134.23 333.2 133.77 
M 332.61 134.13 333.15 134.6 333.3 135.66 332.91 136.26 332.37 135.79 332.23 134.73 332.61 134.13 
M 324.02 124.34 323.74 123.69 324.08 122.66 324.69 122.3 324.96 122.95 324.63 123.98 324.02 124.34 
M 324.89 123.94 324.28 123.57 323.96 122.54 324.24 121.89 324.85 122.26 325.17 123.29 324.89 123.94 
M 215.16 87.95 215.08 87.25 215.7 86.36 216.39 86.19 216.46 86.9 215.85 87.78 215.16 87.95 
M 215.11 87.55 215.53 86.98 216.58 86.74 217.21 87.08 216.79 87.65 215.74 87.89 215.11 87.55 
M 191.33 129.98 191.77 130.54 191.71 131.61 191.22 132.13 190.78 131.56 190.84 130.49 191.33 129.98 
M 190.58 130.61 191.27 130.79 191.88 131.68 191.81 132.39 191.12 132.21 190.51 131.32 190.58 130.61 
M 229.92 155.42 230.63 155.32 231.54 155.89 231.74 156.57 231.04 156.68 230.13 156.1 229.92 155.42 
M 230.15 156.45 230.6 155.9 231.65 155.7 232.27 156.05 231.82 156.61 230.77 156.81 230.15 156.45 
M 329.76 71.23 329.73 70.52 330.4 69.67 331.1 69.54 331.13 70.25 330.46 71.09 329.76 71.23 
M 330.48 69.57 330.66 70.26 330.17 71.22 329.52 71.49 329.34 70.8 329.83 69.84 330.48 69.57 
M 185.09 130.19 184.74 129.56 184.96 128.51 185.53 128.08 185.87 128.7 185.65 129.75 185.09 130.19 
M 185.13 128.33 185.49 128.95 185.28 130 184.72 130.44 184.37 129.83 184.57 128.77 185.13 128.33 
M 184.33 120.69 184.04 121.42 
M 188.25 120.1 188.95 120.01 189.85 120.61 190.04 121.29 189.33 121.38 188.44 120.79 188.25 120.1 
M 189.89 120.35 189.36 120.83 188.29 120.86 187.74 120.41 188.26 119.93 189.34 119.9 189.89 120.35 
M 199.13 118.33 198.98 119.03 198.12 119.67 197.41 119.62 197.56 118.93 198.42 118.28 199.13 118.33 
M 197.92 119.72 198.02 119.01 198.83 118.3 199.54 118.3 199.44 119 198.63 119.71 197.92 119.72 
M 187.8 115.18 187.93 114.48 188.77 113.81 189.48 113.84 189.35 114.53 188.51 115.21 187.8 115.18 
M 189.24 115.06 188.59 114.76 188.15 113.78 188.36 113.1 189 113.4 189.44 114.38 189.24 115.06 
M 338.4 75.54 338.96 75.1 340.03 75.15 340.55 75.64 339.99 76.08 338.91 76.03 338.4 75.54 
M 338.72 75.26 339.43 75.34 340.16 76.13 340.18 76.84 339.47 76.76 338.74 75.97 338.72 75.26 
M 332.88 63.43 332.66 62.76 333.07 61.77 333.71 61.45 333.93 62.13 333.52 63.12 332.88 63.43 
M 332.54 62.11 333.25 62.19 333.99 62.97 334.02 63.68 333.31 63.61 332.57 62.83 332.54 62.11 
M 339.15 70.15 339.44 69.5 339.72 69.37 
M 340.38 70.09 339.83 70.35 339.15 70.15 
M 339.32 69.53 339.81 69.48 
M 341.06 70.77 340.37 70.84 339.49 70.22 339.32 69.53 
M 322.43 64.79 321.74 64.6 321.14 63.71 321.22 63.01 321.91 63.19 322.51 64.08 322.43 64.79 
M 322.52 64.34 321.83 64.16 321.23 63.26 321.31 62.56 322 62.74 322.6 63.64 322.52 64.34 
M 328.2 87.81 328.47 88.46 328.13 89.48 327.51 89.85 327.24 89.19 327.58 88.17 328.2 87.81 
M 327.98 89.64 327.66 89 327.93 87.96 328.52 87.55 328.83 88.19 328.56 89.23 327.98 89.64 
M 332.62 85.34 332.91 84.69 333.88 84.23 334.57 84.42 334.28 85.07 333.31 85.53 332.62 85.34 
M 334.38 85.13 333.66 85.13 332.86 84.42 332.76 83.72 333.47 83.72 334.28 84.43 334.38 85.13 
M 311.53 80.4 311.76 81.08 311.35 82.07 310.72 82.4 310.49 81.72 310.89 80.73 311.53 80.4 
M 310.37 81.07 311.08 81.14 311.81 81.93 311.84 82.64 311.13 82.57 310.4 81.78 310.37 81.07 
M 315.55 67.91 314.99 67.47 314.78 66.41 315.14 65.79 315.7 66.23 315.9 67.29 315.55 67.91 
M 315.48 66.04 315.58 66.74 315 67.65 314.32 67.85 314.22 67.15 314.8 66.24 315.48 66.04 
M 310.35 64.52 310.24 65.22 309.42 65.92 308.71 65.92 308.82 65.21 309.64 64.51 310.35 64.52 
M 309.53 64.4 309.75 65.08 309.32 66.07 308.68 66.37 308.46 65.69 308.89 64.71 309.53 64.4 
M 232.07 76.42 232.78 76.5 233.5 77.3 233.52 78.01 232.81 77.92 232.09 77.13 232.07 76.42 
M 233.06 76.44 233.05 77.15 232.33 77.95 231.62 78.04 231.63 77.33 232.35 76.53 233.06 76.44 
M 328.94 147.61 328.23 147.57 327.47 146.81 327.41 146.1 328.12 146.15 328.89 146.9 328.94 147.61 
M 328.98 146.73 328.35 147.05 327.31 146.79 326.9 146.2 327.53 145.88 328.58 146.14 328.98 146.73 
M 339.12 139.31 339.82 139.2 340.74 139.77 340.94 140.45 340.24 140.56 339.33 139.99 339.12 139.31 
M 339.83 139.09 340.21 139.69 340.04 140.76 339.5 141.21 339.12 140.61 339.29 139.55 339.83 139.09 
M 332.88 148.44 332.44 147.88 332.49 146.8 332.98 146.29 333.42 146.85 333.37 147.92 332.88 148.44 
M 333.34 146.65 333.19 147.35 332.33 147.99 331.62 147.95 331.77 147.25 332.63 146.6 333.34 146.65 
M 299.69 57.51 299.31 57.87 298.23 57.92 
M 290.97 73.12 290.56 72.54 290.66 71.47 291.17 70.97 291.59 71.55 291.48 72.63 290.97 73.12 
M 290.74 72.8 290.82 72.09 291.6 71.35 292.31 71.32 292.24 72.03 291.45 72.77 290.74 72.8 
M 177.55 135.33 177.01 135.79 175.93 135.77 175.4 135.3 175.95 134.84 177.02 134.86 177.55 135.33 
M 177.29 135.39 176.6 135.54 175.65 135.03 175.4 134.36 176.1 134.21 177.04 134.72 177.29 135.39 
M 212.82 71.88 212.26 72.33 211.19 72.28 210.67 71.79 211.23 71.35 212.3 71.39 212.82 71.88 
M 211.73 71.02 211.96 71.69 211.56 72.69 210.92 73.02 210.69 72.34 211.09 71.34 211.73 71.02 
M 216.82 62.27 217.09 62.53 217.17 63.6 216.75 64.18 216.25 63.68 216.16 62.61 216.44 62.22 
M 216.24 63.81 216.41 63.11 217.28 62.49 217.99 62.55 217.83 63.24 216.95 63.87 216.24 63.81 
M 208.43 81.81 208.72 81.16 209.69 80.71 210.37 80.9 210.09 81.55 209.11 82.01 208.43 81.81 
M 210.19 81.13 209.6 81.53 208.53 81.39 208.05 80.86 208.65 80.47 209.71 80.6 210.19 81.13 
M 222.21 63.59 222.85 63.9 223.26 64.9 223.04 65.57 222.41 65.26 221.99 64.26 222.21 63.59 
M 222.94 63.82 222.88 64.53 222.11 65.28 221.4 65.32 221.46 64.61 222.23 63.86 222.94 63.82 
M 343.41 81.29 343.59 80.6 344.47 79.98 345.18 80.06 345 80.75 344.12 81.36 343.41 81.29 
M 344.29 79.85 344.51 80.53 344.09 81.52 343.45 81.83 343.23 81.16 343.65 80.17 344.29 79.85 
M 314.46 57.93 314.95 57.41 316.02 57.3 316.61 57.71 316.12 58.23 315.05 58.34 314.46 57.93 
M 315.2 58.57 315.28 57.86 316.07 57.13 316.78 57.1 316.7 57.81 315.92 58.54 315.2 58.57 
M 193.87 157.16 193.64 157.83 192.71 158.38 192.01 158.24 192.24 157.57 193.17 157.03 193.87 157.16 
M 193.49 157.1 193.19 157.74 192.21 158.19 191.53 157.98 191.83 157.34 192.81 156.89 193.49 157.1 
M 169.53 136.67 170.21 136.45 171.2 136.87 171.51 137.51 170.83 137.73 169.84 137.31 169.53 136.67 
M 170.22 136.33 170.67 136.88 170.64 137.95 170.16 138.48 169.71 137.93 169.74 136.85 170.22 136.33 
M 343.29 144.35 343.84 143.91 344.92 143.95 345.44 144.44 344.88 144.88 343.81 144.84 343.29 144.35 
M 345.17 144.25 344.54 144.58 343.49 144.34 343.08 143.76 343.71 143.43 344.75 143.68 345.17 144.25 
M 252.08 65.31 252.22 66.01 251.7 66.95 251.03 67.19 250.89 66.49 251.41 65.55 252.08 65.31 
M 251.21 67 251.3 66.29 252.1 65.57 252.81 65.55 252.72 66.26 251.93 66.98 251.21 67 
M 183.03 139.02 183.64 139.38 183.98 140.4 183.71 141.06 183.1 140.69 182.76 139.67 183.03 139.02 
M 183.22 139.23 183.56 139.86 183.33 140.91 182.76 141.34 182.42 140.71 182.65 139.66 183.22 139.23 
M 328.9 59.67 328.45 60.21 327.38 60.39 326.78 60.02 327.23 59.47 328.29 59.3 328.9 59.67 
M 327.44 60.56 327.58 59.86 328.43 59.2 329.14 59.24 329 59.94 328.15 60.6 327.44 60.56 
M 323.11 71.52 323.49 70.92 324.52 70.62 325.17 70.91 324.79 71.51 323.75 71.82 323.11 71.52 
M 324.13 70.4 324.35 71.07 323.94 72.06 323.3 72.38 323.08 71.7 323.49 70.71 324.13 70.4 
M 193.37 150.25 194.07 150.4 194.72 151.25 194.68 151.96 193.98 151.82 193.33 150.96 193.37 150.25 
M 193.37 151.6 193.78 151.02 194.83 150.77 195.46 151.09 195.05 151.67 194 151.93 193.37 151.6 
M 183.48 155.79 184.11 156.1 184.53 157.09 184.31 157.77 183.67 157.46 183.26 156.46 183.48 155.79 
M 183.61 156.01 184.05 156.57 184 157.65 183.5 158.16 183.06 157.6 183.12 156.53 183.61 156.01 
M 348.11 137.95 348.75 137.64 349.79 137.93 350.18 138.52 349.54 138.82 348.5 138.54 348.11 137.95 
M 348.39 138.54 348.93 138.09 350.01 138.11 350.54 138.58 349.99 139.04 348.92 139.02 348.39 138.54 
M 339.62 132.51 340.02 131.93 341.06 131.65 341.7 131.96 341.3 132.55 340.26 132.83 339.62 132.51 
M 339.84 132.2 340.53 132.02 341.5 132.48 341.78 133.14 341.09 133.32 340.12 132.85 339.84 132.2 
M 332.82 57.33 333.11 57.05 
M 333.3 57.7 332.82 57.33 
M 305.4 61.58 305.08 62.21 304.08 62.61 303.4 62.37 303.73 61.74 304.73 61.34 305.4 61.58 
M 304.76 61.24 304.66 61.94 303.85 62.65 303.13 62.65 303.24 61.94 304.05 61.24 304.76 61.24 
M 331.89 75.4 332.6 75.35 333.46 76 333.61 76.7 332.9 76.74 332.04 76.1 331.89 75.4 
M 332.44 76.81 332.5 76.1 333.27 75.34 333.98 75.3 333.92 76.01 333.15 76.76 332.44 76.81 
M 204.87 83.63 204.25 83.28 203.88 82.27 204.14 81.6 204.76 81.95 205.13 82.96 204.87 83.63 
M 204.84 83.36 204.37 82.83 204.34 81.76 204.79 81.21 205.27 81.73 205.3 82.81 204.84 83.36 
M 197.18 84.01 197.29 83.31 198.12 82.61 198.83 82.63 198.72 83.33 197.89 84.02 197.18 84.01 
M 198.78 83.57 198.07 83.57 197.26 82.86 197.16 82.15 197.88 82.16 198.69 82.87 198.78 83.57 
M 207.72 88.99 207.72 88.28 208.42 87.46 209.12 87.36 209.12 88.07 208.42 88.88 207.72 88.99 
M 207.68 88.53 208.2 88.04 209.27 87.98 209.83 88.42 209.32 88.91 208.25 88.97 207.68 88.53 
M 193.87 111.95 194.55 112.14 195.15 113.03 195.06 113.74 194.37 113.55 193.78 112.65 193.87 111.95 
M 194.69 113.63 194.29 113.04 194.43 111.97 194.95 111.49 195.35 112.09 195.22 113.15 194.69 113.63 
M 329.36 94.4 330.06 94.27 330.98 94.82 331.21 95.5 330.51 95.62 329.58 95.08 329.36 94.4 
M 330.6 94.19 330.54 94.9 329.77 95.65 329.06 95.7 329.12 94.99 329.88 94.23 330.6 94.19 
M 324.7 97.79 324.16 97.33 324.01 96.26 324.39 95.66 324.93 96.13 325.08 97.2 324.7 97.79 
M 324.8 97.51 324.38 96.93 324.48 95.86 324.99 95.37 325.41 95.95 325.31 97.02 324.8 97.51 
M 337.83 92.14 337.14 92.29 336.19 91.79 335.94 91.12 336.63 90.96 337.58 91.47 337.83 92.14 
M 336.07 91.73 336.72 91.43 337.75 91.74 338.14 92.33 337.49 92.63 336.46 92.33 336.07 91.73 
M 352.85 137 353.52 136.76 354.53 137.14 354.86 137.77 354.19 138.01 353.19 137.63 352.85 137 
M 354.58 137 354.08 137.51 353.01 137.6 352.44 137.18 352.94 136.67 354.01 136.58 354.58 137 
M 320.13 100.64 319.56 101.07 318.49 100.99 317.98 100.49 318.55 100.06 319.63 100.14 320.13 100.64 
M 318.88 101.36 318.81 100.65 319.44 99.78 320.14 99.62 320.2 100.33 319.57 101.2 318.88 101.36 
M 314.38 51.61 314.42 52.32 313.71 52.26 312.96 51.49 312.93 50.86 
M 314.01 51.43 313.93 51.6 312.94 52.02 312.26 51.8 312.57 51.16 313.08 50.94 
M 384.86 152.17 385.48 151.68 385.77 152.27 
M 385.13 152.2 385.19 151.84 385.73 151.38 386.11 151.98 386.06 152.3 
M 310.59 57.71 310.63 58.42 309.98 59.28 309.29 59.42 309.24 58.71 309.89 57.86 310.59 57.71 
M 310.6 58.09 310.18 58.66 309.13 58.89 308.5 58.55 308.93 57.98 309.98 57.75 310.6 58.09 
M 337.72 101.87 337.24 101.34 337.21 100.27 337.66 99.72 338.14 100.24 338.17 101.32 337.72 101.87 
M 337.9 100 337.93 100.71 337.27 101.56 336.57 101.7 336.54 100.99 337.2 100.14 337.9 100 
M 341.78 87.42 341.11 87.17 340.6 86.22 340.76 85.52 341.42 85.78 341.93 86.72 341.78 87.42 
M 341.65 87.19 341.14 86.7 341.05 85.63 341.46 85.05 341.97 85.54 342.07 86.61 341.65 87.19 
M 348.5 91.05 347.97 90.58 347.84 89.51 348.23 88.92 348.76 89.4 348.89 90.46 348.5 91.05 
M 348.99 90.52 348.33 90.24 347.86 89.28 348.04 88.59 348.69 88.87 349.17 89.83 348.99 90.52 
M 342.5 94.93 342.08 94.36 342.16 93.29 342.67 92.79 343.09 93.36 343.01 94.43 342.5 94.93 
M 342.75 93.06 342.83 93.76 342.21 94.64 341.52 94.82 341.44 94.11 342.06 93.23 342.75 93.06 
M 395.55 151.73 395.33 152.4 394.4 152.96 393.7 152.83 393.92 152.16 394.85 151.6 395.55 151.73 
M 395.44 152.36 394.74 152.51 393.8 151.99 393.55 151.32 394.25 151.17 395.19 151.69 395.44 152.36 
M 171.65 152.27 170.97 152.47 169.99 152.01 169.7 151.36 170.39 151.17 171.36 151.62 171.65 152.27 
M 171.47 151.61 170.87 151.99 169.81 151.83 169.35 151.28 169.95 150.91 171.01 151.07 171.47 151.61 
M 257.11 73.03 257.49 73.64 257.31 74.7 256.77 75.16 256.4 74.55 256.57 73.49 257.11 73.03 
M 257.61 73.62 257.18 74.19 256.13 74.42 255.51 74.08 255.93 73.51 256.98 73.28 257.61 73.62 
M 356.29 131.7 355.59 131.79 354.69 131.19 354.5 130.5 355.21 130.42 356.1 131.01 356.29 131.7 
M 354.6 131.3 355.21 130.93 356.27 131.1 356.73 131.64 356.12 132.02 355.06 131.85 354.6 131.3 
M 367.51 145.65 367.38 144.95 367.92 144.02 368.59 143.79 368.73 144.49 368.18 145.41 367.51 145.65 
M 368.07 143.9 368.27 144.58 367.83 145.56 367.19 145.86 366.98 145.18 367.42 144.2 368.07 143.9 
M 383.48 145.84 382.87 146.21 381.81 146.04 381.36 145.49 381.97 145.12 383.03 145.29 383.48 145.84 
M 382.78 146.4 382.29 145.89 382.24 144.81 382.68 144.25 383.17 144.77 383.22 145.84 382.78 146.4 
M 376.43 146.38 376.58 147.08 376.08 148.03 375.41 148.28 375.26 147.59 375.76 146.64 376.43 146.38 
M 376.23 146.57 376.17 147.28 375.41 148.04 374.7 148.09 374.75 147.38 375.52 146.62 376.23 146.57 
M 206.58 74.25 205.97 74.32 
M 206.49 73.91 206.58 74.25 
M 206.78 73.63 207.1 73.87 206.6 74.38 205.84 74.43 
M 196.09 88.08 195.57 88.57 194.5 88.63 193.94 88.19 194.45 87.7 195.53 87.64 196.09 88.08 
M 194.78 88.92 194.76 88.21 195.45 87.38 196.15 87.26 196.17 87.97 195.48 88.8 194.78 88.92 
M 321.83 110.19 321.55 109.54 321.87 108.51 322.47 108.13 322.76 108.78 322.44 109.81 321.83 110.19 
M 321.64 109.8 321.9 109.14 322.85 108.63 323.54 108.78 323.29 109.45 322.34 109.96 321.64 109.8 
M 329.21 116.5 328.6 116.88 327.54 116.7 327.09 116.16 327.69 115.78 328.75 115.96 329.21 116.5 
M 328.97 116.37 328.28 116.55 327.31 116.09 327.03 115.43 327.72 115.25 328.69 115.71 328.97 116.37 
M 319.86 122.48 319.24 122.14 318.87 121.13 319.12 120.46 319.75 120.81 320.11 121.82 319.86 122.48 
M 319.94 122.16 319.39 121.71 319.21 120.65 319.58 120.04 320.13 120.49 320.31 121.55 319.94 122.16 
M 329.23 121.75 329.79 121.31 330.87 121.36 331.38 121.86 330.82 122.3 329.75 122.24 329.23 121.75 
M 329.99 122.56 330.05 121.85 330.83 121.1 331.54 121.07 331.47 121.77 330.7 122.52 329.99 122.56 
M 349.36 126.35 348.65 126.32 347.87 125.57 347.81 124.86 348.52 124.9 349.3 125.64 349.36 126.35 
M 347.79 125.4 348.5 125.36 349.35 126.02 349.49 126.72 348.78 126.76 347.93 126.1 347.79 125.4 
M 341.84 125.46 341.14 125.59 340.21 125.05 339.98 124.38 340.68 124.24 341.61 124.78 341.84 125.46 
M 340.09 124.96 340.76 124.71 341.77 125.08 342.11 125.7 341.45 125.95 340.44 125.58 340.09 124.96 
M 345.86 132.73 346.2 132.1 347.2 131.72 347.87 131.96 347.54 132.59 346.53 132.97 345.86 132.73 
M 347.42 132.95 346.8 132.59 346.45 131.58 346.72 130.92 347.34 131.28 347.68 132.29 347.42 132.95 
M 356.2 88.98 356.06 88.28 356.5 87.5 
M 357.34 87.9 356.87 88.74 356.2 88.98 
M 357.19 87.84 356.97 88.13 355.92 88.37 355.29 88.03 355.72 87.46 356.22 87.34 
M 326.59 104.52 325.97 104.17 325.62 103.15 325.88 102.49 326.5 102.84 326.85 103.86 326.59 104.52 
M 326.68 102.81 326.5 103.5 325.61 104.11 324.9 104.03 325.08 103.34 325.97 102.73 326.68 102.81 
M 155.37 136.1 156.07 136.24 156.72 137.1 156.68 137.81 155.98 137.66 155.33 136.81 155.37 136.1 
M 155.47 137.56 155.77 136.91 156.75 136.47 157.43 136.67 157.13 137.32 156.15 137.76 155.47 137.56 
M 240.17 65.69 239.51 65.96 238.49 65.62 238.13 65 238.79 64.73 239.81 65.08 240.17 65.69 
M 239.88 65.72 239.17 65.6 238.48 64.78 238.5 64.07 239.2 64.18 239.89 65.01 239.88 65.72 
M 361.35 137.44 360.81 137.91 359.73 137.91 359.2 137.44 359.73 136.97 360.81 136.97 361.35 137.44 
M 359.88 136.72 360.39 137.21 360.5 138.28 360.09 138.86 359.57 138.37 359.47 137.3 359.88 136.72 
M 361.4 129.85 360.78 129.52 360.53 128.85 361.23 128.7 361.53 128.87 
M 361.44 129.56 360.82 129.94 360.12 129.83 360.33 129.15 361.24 128.58 361.56 128.63 
M 346.13 102.95 345.42 102.98 344.59 102.3 344.46 101.6 345.17 101.58 346.01 102.25 346.13 102.95 
M 345.97 102.74 345.29 102.53 344.72 101.62 344.83 100.92 345.51 101.13 346.08 102.04 345.97 102.74 
M 349.21 96.83 348.51 96.75 347.78 95.95 347.77 95.24 348.47 95.32 349.2 96.12 349.21 96.83 
M 348.63 95.23 348.73 95.93 348.14 96.83 347.46 97.03 347.36 96.33 347.94 95.43 348.63 95.23 
M 332.82 117.04 332.98 116.35 333.86 115.72 334.57 115.79 334.4 116.48 333.52 117.1 332.82 117.04 
M 334.26 117 333.63 116.66 333.25 115.66 333.5 114.99 334.13 115.33 334.51 116.34 334.26 117 
M 391.88 146.4 391.39 145.89 391.34 144.81 391.78 144.25 392.27 144.77 392.32 145.84 391.88 146.4 
M 391.74 146.14 391.6 145.44 392.13 144.51 392.8 144.27 392.94 144.97 392.41 145.9 391.74 146.14 
M 339.46 115.97 339.18 115.32 339.51 114.3 340.12 113.93 340.4 114.58 340.07 115.6 339.46 115.97 
M 339.05 114.59 339.75 114.69 340.46 115.51 340.46 116.22 339.75 116.12 339.05 115.3 339.05 114.59 
M 161.94 167.64 161.75 167.08 162.45 166.95 163.38 167.51 
M 162.76 166.81 162.86 167.59 
M 161.76 167.65 162.09 167.06 162.76 166.81 
M 159.91 151.84 159.2 151.84 158.39 151.13 158.29 150.42 159 150.43 159.81 151.14 159.91 151.84 
M 159.92 151.17 159.23 151.36 158.26 150.88 157.98 150.23 158.67 150.05 159.64 150.52 159.92 151.17 
M 365.42 138.23 366.02 137.85 367.09 138 367.55 138.54 366.95 138.92 365.89 138.77 365.42 138.23 
M 367.26 138.65 366.55 138.64 365.75 137.92 365.66 137.21 366.37 137.22 367.17 137.94 367.26 138.65 
M 379.5 141.52 378.82 141.75 377.83 141.34 377.51 140.7 378.18 140.48 379.18 140.88 379.5 141.52 
M 379.29 141.34 378.58 141.36 377.75 140.67 377.63 139.97 378.34 139.95 379.17 140.64 379.29 141.34 
M 157.83 144.08 158.16 144.71 157.91 145.75 157.33 146.17 157 145.54 157.25 144.49 157.83 144.08 
M 157.39 145.92 157.34 145.21 157.98 144.35 158.67 144.19 158.73 144.9 158.09 145.76 157.39 145.92 
M 334.47 126.22 335.14 126.46 335.66 127.4 335.52 128.1 334.85 127.86 334.33 126.92 334.47 126.22 
M 335.8 127.02 335.17 127.35 334.12 127.1 333.71 126.52 334.34 126.19 335.39 126.44 335.8 127.02 
M 351.05 121.11 351.36 120.47 352.36 120.06 353.03 120.28 352.72 120.92 351.72 121.33 351.05 121.11 
M 351.22 120.66 351.91 120.47 352.88 120.94 353.16 121.59 352.48 121.78 351.51 121.32 351.22 120.66 
M 347.18 117.59 346.79 117 346.92 115.93 347.45 115.46 347.85 116.05 347.71 117.12 347.18 117.59 
M 346.77 117.13 347.06 116.48 348.04 116.03 348.72 116.23 348.43 116.88 347.45 117.33 346.77 117.13 
M 334.91 108.27 334.2 108.3 333.35 107.64 333.21 106.94 333.92 106.9 334.77 107.57 334.91 108.27 
M 333.27 107.38 333.98 107.36 334.82 108.03 334.95 108.73 334.24 108.75 333.4 108.08 333.27 107.38 
M 341.13 108.27 340.64 107.76 340.59 106.68 341.04 106.12 341.52 106.64 341.57 107.72 341.13 108.27 
M 341.33 106.42 341.33 107.13 340.63 107.94 339.92 108.04 339.92 107.33 340.63 106.52 341.33 106.42 
M 389.6 138.85 389.52 139.56 388.72 140.28 388.01 140.3 388.09 139.59 388.89 138.87 389.6 138.85 
M 388.26 138.96 388.87 139.33 389.21 140.35 388.94 141 388.33 140.64 387.99 139.62 388.26 138.96 
M 350.46 106.4 350.4 107.11 349.63 107.85 348.92 107.89 348.98 107.19 349.75 106.44 350.46 106.4 
M 349.51 107.94 349.45 107.24 350.08 106.36 350.77 106.2 350.84 106.91 350.2 107.78 349.51 107.94 
M 371.88 136.06 371.28 135.69 371.17 135.34 
M 372.12 135.51 371.88 136.06 
M 372.32 135.54 372.42 136.18 371.71 136.19 370.89 135.5 370.85 135.29 
M 151.1 148.01 151.8 148.14 152.46 148.98 152.43 149.69 151.74 149.56 151.07 148.72 151.1 148.01 
M 150.96 148.68 151.67 148.61 152.55 149.22 152.73 149.91 152.02 149.99 151.14 149.37 150.96 148.68 
M 147 135.87 147.29 136.16 147.35 137.24 146.92 137.8 146.42 137.29 146.36 136.22 146.57 135.94 
M 146.79 135.91 147.06 136.57 146.71 137.59 146.09 137.94 145.83 137.28 146.18 136.27 146.79 135.91 
M 143.09 160.19 142.82 159.54 143.16 158.52 143.77 158.15 144.04 158.81 143.7 159.83 143.09 160.19 
M 144.23 158.99 143.62 159.35 142.49 159.07 
M 142.28 158.5 142.73 158.24 143.79 158.44 144.23 158.99 
M 149.38 165.09 150.03 165.36 150.52 166.32 150.35 167.01 149.69 166.74 149.2 165.78 149.38 165.09 
M 149.97 166.86 149.67 166.21 149.96 165.18 150.55 164.79 150.86 165.43 150.56 166.47 149.97 166.86 
M 141.08 152.73 141.36 152.08 142.33 151.61 143.01 151.8 142.73 152.45 141.76 152.92 141.08 152.73 
M 142.06 151.44 142.26 152.13 141.82 153.11 141.17 153.41 140.97 152.72 141.41 151.74 142.06 151.44 
M 353.63 114.54 354.12 114.02 355.19 113.91 355.77 114.32 355.28 114.84 354.21 114.95 353.63 114.54 
M 354.59 115.24 354.47 114.54 355.02 113.61 355.7 113.39 355.82 114.09 355.27 115.02 354.59 115.24 
M 362.74 122.29 362.5 121.75 362.92 121.63 
M 362.74 122.3 362.11 121.78 362.68 121.36 362.98 121.38 
M 360.76 100.39 360.23 100.87 359.16 100.89 358.61 100.43 359.14 99.96 360.22 99.94 360.76 100.39 
M 359.21 101.08 359.43 100.4 360.35 99.85 361.05 99.97 360.83 100.65 359.91 101.2 359.21 101.08 
M 366.33 102.99 366.15 103.18 365.72 102.46 
M 354.9 94.96 355.61 94.9 356.48 95.53 356.65 96.22 355.94 96.28 355.06 95.66 354.9 94.96 
M 355.29 94.93 355.86 95.35 356.1 96.4 355.76 97.03 355.19 96.6 354.95 95.55 355.29 94.93 
M 137.81 144.13 137.96 144.83 137.43 145.77 136.76 146.01 136.62 145.31 137.14 144.38 137.81 144.13 
M 137.88 144.51 137.54 145.13 136.53 145.5 135.86 145.25 136.21 144.63 137.22 144.26 137.88 144.51 
M 139.98 138.66 140.67 138.82 141.31 139.68 141.25 140.39 140.56 140.24 139.92 139.37 139.98 138.66 
M 140.04 138.94 140.67 139.27 141.06 140.28 140.82 140.95 140.19 140.61 139.8 139.61 140.04 138.94 
M 363.24 113.3 362.66 112.89 362.4 111.85 362.72 111.22 363.3 111.63 363.56 112.67 363.24 113.3 
M 363.52 111.65 363.23 112.3 362.26 112.76 361.58 112.56 361.86 111.91 362.84 111.45 363.52 111.65 
M 357.71 107.68 357.69 108.4 356.95 109.18 356.24 109.26 356.27 108.55 357 107.76 357.71 107.68 
M 357.72 108.12 357.2 108.61 356.12 108.64 355.57 108.19 356.09 107.71 357.17 107.68 357.72 108.12 
M 357.96 123.47 358.33 124.08 358.16 125.14 357.61 125.59 357.24 124.99 357.41 123.93 357.96 123.47 
M 357.19 125.09 357.54 124.47 358.55 124.11 359.21 124.36 358.86 124.98 357.85 125.35 357.19 125.09 
M 405.29 148.28 404.91 148.88 403.88 149.2 403.23 148.91 403.61 148.31 404.64 147.99 405.29 148.28 
M 404.95 149.04 404.26 148.85 403.66 147.96 403.75 147.25 404.44 147.44 405.04 148.33 404.95 149.04 
M 395.61 145.84 396.25 145.55 397.29 145.85 397.67 146.44 397.02 146.74 395.99 146.44 395.61 145.84 
M 395.93 145.72 396.63 145.88 397.26 146.75 397.2 147.46 396.51 147.3 395.87 146.43 395.93 145.72 
M 352.98 102.65 352.45 102.18 352.31 101.11 352.7 100.52 353.23 100.99 353.37 102.06 352.98 102.65 
M 353.5 102.07 352.82 101.84 352.28 100.91 352.41 100.21 353.08 100.44 353.63 101.37 353.5 102.07 
M 396.63 203.49 396.46 202.72 396.8 202.1 397.37 202.53 397.55 203.37 
M 396.96 203.44 396.86 202.3 397.3 201.74 397.79 202.26 397.83 203.33 
M 390.77 204.24 390.75 204.15 391.55 204.14 
M 386.75 200.54 386.72 200.55 
M 386.76 200.7 386.56 200.61 
M 386.81 200.51 386.76 200.7 
M 129.41 139.9 129.1 140.55 128.12 140.98 127.44 140.77 127.74 140.13 128.02 140.01 
M 128.96 139.77 129.41 139.9 
M 129.08 139.85 128.67 140.43 127.62 140.68 126.99 140.36 127.06 140.26 
M 128.93 139.77 129.08 139.85 
M 173.48 204.66 173.63 205.36 173.1 206.3 172.44 206.54 172.29 205.85 172.81 204.91 173.48 204.66 
M 172.55 206.31 172.7 205.62 173.57 204.98 174.28 205.03 174.12 205.72 173.26 206.36 172.55 206.31 
M 394.98 138.53 394.15 138.47 
M 131.91 140.72 132.45 140.26 133.52 140.26 134.06 140.73 133.52 141.19 132.44 141.19 131.91 140.72 
M 132.26 140.33 132.96 140.47 133.63 141.31 133.6 142.02 132.9 141.89 132.23 141.04 132.26 140.33 
M 294.6 62.02 293.97 62.36 292.92 62.13 292.5 61.55 293.12 61.22 294.17 61.45 294.6 62.02 
M 292.88 62.27 293.31 61.7 294.35 61.46 294.98 61.79 294.56 62.37 293.51 62.6 292.88 62.27 
M 331.82 102.42 331.61 101.74 332.03 100.75 332.67 100.44 332.89 101.12 332.46 102.11 331.82 102.42 
M 331.8 100.74 332.35 101.19 332.53 102.25 332.16 102.86 331.61 102.41 331.43 101.35 331.8 100.74 
M 411.01 149.28 410.87 148.58 411.4 147.65 412.07 147.41 412.21 148.1 411.68 149.04 411.01 149.28 
M 410.95 147.77 411.59 148.09 411.99 149.09 411.76 149.76 411.13 149.44 410.72 148.44 410.95 147.77 
M 403.3 140.71 403.37 141.11 402.66 141.14 401.82 140.45 
M 403.42 140.73 403.69 141.29 403.01 141.5 402.02 141.07 401.72 140.43 
M 414.99 137.08 415.67 136.86 416.65 137.29 416.96 137.93 416.28 138.15 415.29 137.72 414.99 137.08 
M 416.48 138.15 415.89 137.75 415.61 136.71 415.89 136.12 
M 415.99 136.12 416.51 136.47 416.79 137.51 416.48 138.15 
M 426.7 152.23 427.4 152.34 428.1 153.16 428.09 153.87 427.38 153.76 426.69 152.94 426.7 152.23 
M 427.59 153.84 427.22 153.24 427.39 152.18 427.93 151.72 428.31 152.32 428.14 153.39 427.59 153.84 
M 146.37 198.58 146.8 199.14 146.75 200.22 146.25 200.73 145.82 200.17 145.87 199.09 146.37 198.58 
M 146.53 200.44 146.14 199.85 146.28 198.78 146.81 198.31 147.2 198.9 147.06 199.97 146.53 200.44 
M 428.64 144.37 429.38 144.18 430.01 144.51 
M 428.77 144.38 428.71 143.93 429.1 143.34 429.64 143.81 429.73 144.48 
M 346.09 211.06 345.38 211 344.62 210.23 344.61 210.04 
M 345.55 209.85 346.04 210.35 346.09 211.06 
M 345.33 211.11 345.12 210.43 345.35 209.89 
M 346.36 209.69 345.97 210.8 345.33 211.11 
M 434.51 153.35 434.09 153.92 433.04 154.16 432.41 153.82 432.83 153.25 433.88 153.01 434.51 153.35 
M 432.99 154.26 433.2 153.58 434.11 153.01 434.82 153.12 434.61 153.8 433.69 154.37 432.99 154.26 
M 431.93 186.34 432.02 185.63 432.83 184.92 433.54 184.91 433.44 185.61 432.64 186.33 431.93 186.34 
M 432.27 184.95 432.83 185.38 433.04 186.44 432.69 187.06 432.13 186.62 431.92 185.57 432.27 184.95 
M 410.44 196.81 411.14 196.94 411.81 197.78 411.78 198.49 411.08 198.37 410.41 197.52 410.44 196.81 
M 410.92 198.45 410.87 197.74 411.5 196.88 412.2 196.72 412.25 197.43 411.62 198.29 410.92 198.45 
M 442.01 140.24 442.71 140.37 443.38 141.2 443.36 141.91 442.66 141.79 441.98 140.95 442.01 140.24 
M 442.57 141.89 442.45 141.19 443.01 140.27 
M 443.73 140.34 443.8 140.75 443.24 141.67 442.57 141.89 
M 157.39 167.89 158.23 167.85 
M 441.3 190.12 441.23 189.42 441.85 188.54 442.54 188.37 442.61 189.08 441.99 189.96 441.3 190.12 
M 442.14 188.46 442.17 189.17 441.5 190.01 440.8 190.14 440.77 189.43 441.44 188.59 442.14 188.46 
M 430.66 192.66 430 192.4 429.49 191.45 429.65 190.76 430.31 191.01 430.82 191.96 430.66 192.66 
M 429.36 191.92 429.96 191.53 431.03 191.69 431.49 192.22 430.9 192.61 429.83 192.46 429.36 191.92 
M 419.19 197.11 419.53 196.48 420.54 196.11 421.21 196.36 420.87 196.98 419.86 197.36 419.19 197.11 
M 419.94 195.96 420.36 196.53 420.27 197.6 419.76 198.1 419.34 197.53 419.43 196.45 419.94 195.96 
"/></svg>