<svg xmlns="http://www.w3.org/2000/svg" width="520" height="320"><rect x="0" y="0" width="520" height="320" fill="floralwhite"/><rect x="10" y="10" width="500" height="300" stroke="black" stroke-width="1" fill="none"/><path stroke="black" stroke-width="1" fill="none" stroke-linecap="round" stroke-linejoin="round" d="
M 133.76 114.09 143.71 110.87 153.65 107.97 163.58 105.34 183.45 100.5 193.38 98.55 203.31 97.11 213.25 96.03 243.05 95.5 252.98 96.44 262.91 98.3 272.84 100.59 302.64 108.13 312.58 110.95 342.38 120.69 382.11 132.89 
M 382.11 171.4 352.31 182.61 342.38 186.2 322.51 192.61 312.58 195.3 292.71 200.3 282.78 202.15 262.91 205.2 252.98 205.96 243.05 206.47 233.11 206.25 213.25 206.43 203.31 205.4 193.38 203.72 183.45 201.77 173.51 199.61 163.58 197.73 153.65 195.51 143.71 192.67 123.87 185.94 
M 378.78 142.7 362.25 141.76 355.71 141.14 348.99 140.1 332.21 136.88 311.1 133.87 304.32 133.3 290.58 133.02 287.26 132.73 280.66 131.76 270.87 129.98 262.79 128.96 
M 259.71 128.56 252.24 127.7 247.72 127.72 
M 244.62 127.8 231.76 128.81 
M 228.61 128.99 223.83 129.31 215.48 130.23 
M 208.71 130.71 203.73 130.75 192.42 130.18 
M 189 130.23 183.73 130.53 178.49 131.1 
M 171.59 131.87 161.17 132.84 
M 153.99 133.71 150.46 134.13 
M 140.62 135.15 139.52 135.25 
M 132.05 180.18 134.32 183.42 
M 139.52 183.32 142 186.35 
M 139.54 135.94 142.69 141.97 
M 175.81 187.48 178.27 190.45 
M 180.59 193.25 182.78 195.69 
M 136.75 121.74 146.78 140.27 
M 178.45 184.64 180.96 187.77 
M 136.57 113.18 151.15 138.67 
M 183.77 184.86 186.15 187.98 
M 193.54 196.13 195.82 198.17 
M 140.55 111.89 147.2 123.16 153.8 133.8 156.8 138.95 
M 184.2 178.23 186.76 181.69 
M 193.99 191.01 196.53 193.76 
M 144.53 110.63 150.13 119.45 157.1 129.93 162.2 138.82 
M 187 174.34 187.22 174.64 
M 194.61 185.03 199.6 191.19 
M 204.77 196.52 207.35 198.87 
M 148.62 109.44 160.34 126.14 162.65 129.82 167.16 138.16 
M 184.44 163.6 190.06 170.83 
M 192.73 174.58 195.19 178.19 
M 200.08 185.08 202.63 188.33 
M 212.69 198.89 214.52 200.41 
M 152.78 108.23 163.38 122.5 166.88 128.04 
M 169.06 131.88 171.86 137.08 
M 186.58 159.08 189.71 162.96 
M 192.67 166.82 197.93 174.34 
M 208.11 188.42 210.64 191.44 
M 157.01 107.08 163.6 115.52 168.66 122.61 173.29 129.96 176.44 135.67 
M 188.25 153.95 193.77 160.8 196.62 164.6 200.48 170.27 
M 205.54 177.82 208.18 181.54 
M 210.83 185.12 213.4 188.37 
M 161.23 105.96 168.83 115.66 175.12 124.46 
M 177.47 128.07 185.19 141.58 187.65 145.44 190.44 149.17 194.98 154.8 
M 197.89 158.57 203.03 166.12 
M 205.51 169.95 210.75 177.73 
M 216.02 184.87 218.51 187.84 
M 223.14 192.58 225.35 194.56 
M 165.42 104.9 174.14 115.9 179.2 122.75 184.01 129.85 190.89 141.43 193.59 145.22 199.53 152.65 203.48 158.27 
M 205.85 162.05 209.39 167.85 214.64 175.74 219.86 182.77 223.49 186.92 
M 225.79 189.3 228.04 191.48 
M 232.41 195.42 234.59 197.16 
M 169.63 103.9 176.95 112.93 184.53 122.87 189.47 129.91 194.14 137.53 196.81 141.3 204.09 150.56 
M 206.65 154.32 211.13 161.96 
M 218.52 173.66 221.1 177.26 
M 235.25 192.68 237.53 194.63 
M 242.01 197.99 244.19 199.38 
M 173.77 102.92 179.86 110.23 187.38 119.83 192.31 126.62 197.09 133.94 199.77 137.61 205.74 144.83 208.53 148.56 210.95 152.36 217.44 163.97 219.81 167.84 222.35 171.66 226.15 176.78 
M 228.6 179.79 233.37 185.07 
M 238.13 189.78 240.48 191.93 
M 177.82 101.91 180.38 104.72 182.84 107.73 190.17 117.07 192.57 120.33 199.67 130.72 202.34 134.23 208.35 141.17 211.23 144.78 214.99 150.55 
M 217.22 154.44 220.36 160.22 223.7 165.88 
M 236.03 181.79 238.52 184.33 
M 240.98 186.74 243.38 189.05 
M 251.83 196.68 253.68 198.15 
M 181.68 100.94 185.79 105.34 190.55 111.38 195.29 117.78 202.11 127.74 203.4 129.41 
M 206.13 132.74 213.62 141.21 216.42 144.95 217.68 146.91 
M 222.26 154.7 225.35 160.32 229.79 167.48 232.26 170.94 236.08 175.64 
M 238.65 178.49 246.17 186.05 
M 248.45 188.37 254.4 194.46 
M 185.54 100.09 188.63 103.14 191.06 105.96 198.14 115.35 204.71 124.84 207.16 128 214.34 136.04 
M 220.12 143.34 223.93 149.24 229.19 158.49 
M 231.25 161.96 234.67 167.15 238.55 172.17 
M 243.79 177.97 249.94 184.2 253.11 187.7 
M 256.83 192.12 259.42 195.18 262.01 197.91 
M 189.41 99.33 191.44 101.19 193.94 103.84 196.38 106.77 208.77 123.42 
M 211.19 126.38 218.07 134.19 220.98 137.76 223.78 141.62 226.39 145.6 229.85 151.32 
M 231.92 154.89 234.93 160.02 238.42 165.2 
M 240.97 168.63 243.59 171.84 
M 248.72 177.42 251.13 179.92 
M 253.38 182.36 255.44 184.8 
M 259.16 189.64 260.91 191.94 
M 193.33 98.56 196.87 101.86 199.33 104.61 204.11 110.5 211.79 120.4 
M 214.05 123.16 223.2 133.99 228.65 141.77 232.3 147.57 
M 236.43 154.56 240.83 161.47 
M 243.34 164.98 245.91 168.34 
M 248.45 171.42 250.93 174.2 
M 255.58 179.36 259.57 184.48 
M 263.23 189.54 265.08 191.93 
M 197.69 97.92 199.89 99.89 204.7 105.17 222.94 126.93 225.51 130.19 228.15 133.84 233.33 141.68 241.82 155.68 248.11 164.59 
M 250.61 167.85 257.78 176.37 
M 259.87 179.04 261.8 181.71 
M 263.67 184.38 265.59 187 
M 202.23 97.27 205.39 100.22 207.7 102.73 214.58 110.49 224.45 122.09 
M 229.17 128.27 234.2 135.57 
M 240.72 146.34 246.26 155.07 250.15 160.56 
M 252.76 164.05 255.31 167.33 
M 260.13 173.32 262.26 176.14 
M 264.21 178.92 268.06 184.38 
M 270.16 187.04 274.52 192.06 
M 207 96.71 210.7 100.28 217.4 107.54 226.13 117.51 230.52 123.13 235.33 129.69 237.74 133.28 240.95 138.66 
M 242.91 142.13 247.12 149.02 
M 249.57 152.67 253.51 158.29 260.2 166.97 
M 264.85 173.15 269.73 180.31 272.85 184.46 
M 275.09 187.18 277.37 189.78 
M 211.71 96.19 222.4 106.97 226.79 111.88 235.53 122.72 239.13 127.57 
M 241.41 131.01 248.33 143.24 251.72 148.61 
M 254.23 152.36 256.94 156.14 
M 262.57 163.39 265.18 166.77 
M 273.58 178.98 277.9 184.67 
M 216.4 95.95 222.82 101.9 227.35 106.37 231.69 111.37 237.08 117.97 
M 239.41 120.79 243 125.42 245.23 128.81 250.03 137.58 
M 254.06 144.81 256.39 148.51 
M 259 152.28 268.95 165 271.34 168.38 276.43 176.21 
M 221.11 95.84 227.71 101.35 230.01 103.5 232.21 105.85 238.52 113.52 244.38 120.33 
M 246.73 123.4 249.98 128.42 255.62 139.28 258.78 144.86 
M 261.19 148.57 265.35 154.15 269.81 159.63 
M 272.54 163.21 273.83 164.99 279.17 173.31 
M 226.16 95.77 230.3 98.84 232.57 100.81 234.75 103 240.98 110.55 247.99 118.48 250.34 121.44 252.56 124.71 254.63 128.19 259.41 137.46 
M 261.44 141.25 264.84 146.77 267.52 150.41 271.95 155.94 
M 279.6 166.84 281.75 170.24 
M 283.94 173.48 286.23 176.55 
M 288.6 179.49 290.96 182.3 
M 231.78 95.72 235.1 98.26 238.29 101.44 
M 240.34 103.81 245.6 110.2 252.69 118.16 254.99 121.2 257.21 124.55 259.3 128.1 265.34 139.43 267.57 143.14 270.06 146.73 275.78 154.13 279.73 159.74 
M 282.06 163.4 284.28 166.96 
M 288.88 173.55 291.26 176.56 
M 295.96 182.16 298.25 184.82 
M 237.4 95.62 239.8 97.7 241.85 99.85 248.06 107.29 256.19 116.44 
M 258.52 119.47 261.94 124.48 265.2 129.92 
M 271.81 141.29 273.03 143.16 279.83 152.38 
M 284.7 159.85 286.92 163.49 
M 291.53 170.3 296.23 176.21 
M 242.71 95.51 246.49 99.45 252.81 106.75 257.4 111.79 262.14 117.66 266.9 124.41 269.22 128 273.68 135.65 276.14 139.52 281.51 146.96 285.28 152.5 
M 287.56 156.21 290.83 161.68 293.05 165.08 296.48 169.71 
M 298.79 172.64 301.11 175.56 
M 310.21 186.52 312.5 188.76 
M 248.36 96 259.9 108.51 264.66 114.27 269.57 120.87 271.97 124.39 275.41 130.01 
M 277.82 133.88 281.77 139.69 287.08 147.06 290.48 152.51 
M 292.62 156.09 296.89 162.74 
M 299.1 165.8 301.35 168.78 
M 303.64 171.8 305.96 174.88 
M 254.3 96.68 258.13 100.53 262.53 105.27 267.26 110.94 270.92 115.79 
M 273.33 119.2 280.42 130.21 
M 283.03 134.06 289.83 143.47 297.52 155.59 
M 299.62 158.77 303.96 164.85 
M 306.21 167.95 310.83 174.41 
M 261.17 97.97 265.26 102.22 269.9 107.81 274.63 114.25 278.15 119.4 
M 280.49 122.95 284.08 128.46 294.79 143.28 301.32 153.36 304.51 158.02 
M 306.68 161.11 308.88 164.28 
M 315.82 174.19 319.39 178.88 325.25 185.88 
M 268.08 99.49 270.29 102.06 274.81 108.02 289.11 128.44 297.27 139.39 302.96 147.98 
M 305.13 151.26 307.3 154.46 
M 313.92 164.18 316.22 167.54 
M 274.11 100.92 291.73 124.67 297.21 131.79 299.85 135.39 303.39 140.75 
M 305.66 144.26 310.16 151.06 
M 312.39 154.35 316.86 160.99 
M 319.12 164.38 321.42 167.79 
M 279.8 102.41 286.86 111.6 300.03 127.82 303.87 133.21 
M 306.22 136.85 308.48 140.5 
M 313.09 147.61 322.14 161.33 
M 324.39 164.8 326.64 168.22 
M 333.54 178.19 335.83 181.33 
M 285.75 103.94 289.56 108.51 296.1 115.9 
M 298.87 119.02 303 123.97 305.63 127.49 309.2 132.99 
M 311.47 136.72 325.22 158.22 
M 327.44 161.79 329.63 165.29 
M 336.33 175.44 338.58 178.68 
M 292.6 105.68 301.77 115.58 
M 304.54 118.71 308.56 123.76 311.03 127.37 319.14 140.34 
M 321.46 143.96 324.95 149.41 330.52 158.67 
M 337 169.25 339.2 172.64 
M 300.11 107.51 308.69 116.95 313.95 123.79 318.92 131.21 326.91 144.07 
M 329.2 147.83 333.63 155.45 
M 307.66 109.56 314.09 117.01 316.84 120.41 322.13 127.75 326.83 135.12 331.24 142.51 340.99 159.81 
M 343.11 163.44 345.2 166.94 
M 347.27 170.34 349.35 173.65 
M 314.91 111.71 319.64 117.19 323.9 122.56 
M 326.56 126.26 330.2 131.8 332.41 135.48 337.67 145 
M 339.79 148.93 341.89 152.85 
M 344.01 156.7 348.25 164.01 
M 350.3 167.47 352.32 170.83 
M 322.48 114.2 328.26 121.11 331.01 124.82 333.5 128.53 337.82 136.01 342.86 145.68 
M 349.13 157.32 351.26 160.99 
M 353.32 164.55 355.3 168.02 
M 359.33 174.72 360.53 176.57 
M 330.06 116.72 332.49 119.67 
M 335.28 123.39 338.92 129.05 346 142.45 
M 348 146.36 350.04 150.28 
M 352.12 154.13 356.27 161.55 
M 337.27 119.05 339.46 122.01 341.91 125.84 344.11 129.68 353.17 146.95 
M 357.15 154.58 359.17 158.34 
M 363.19 165.74 365.18 169.18 
M 343.77 121.11 347.12 126.44 349.3 130.3 353.46 137.9 358.22 147.3 
M 360.11 151.05 364.08 158.67 
M 350.11 123.05 356.82 134.57 367.02 154.94 
M 369.13 158.84 373.43 166.16 
M 356.73 125.11 360.29 131.12 362.27 134.82 367.23 145.54 370.08 151.1 
M 363.65 127.26 365.9 131.28 367.7 134.92 369.99 140.21 
M 377.48 155.07 379.61 158.93 
M 370.39 129.31 373.07 134.94 375.99 141.97 378.71 147.55 
M 376.75 131.26 379.05 136.72 
M 380.56 140.33 381.73 142.97 
M 138.95 112.41 135.51 117.15 
M 144.93 110.51 136.83 122.21 
M 150.86 108.79 148.14 112.6 141.09 123.22 138.06 127.45 
M 157.08 107.06 153.14 112.41 142.24 128.56 
M 139.77 132.13 139.27 132.86 
M 163.61 105.33 160.58 109.07 158.31 112.25 143.36 134 139.52 139.83 
M 170.58 103.68 168.06 106.29 165.74 109.14 156.49 122.7 144.54 139.53 
M 179.07 101.59 176.01 104.22 173.46 106.7 171.03 109.41 168.73 112.38 160.69 124.34 
M 158.03 128.06 152.45 135.72 
M 187.5 99.7 183.98 102.65 178.99 107.28 176.49 109.88 174.09 112.7 171.81 115.78 164.86 126.12 155.59 138.9 
M 130.05 180.24 128.15 182.81 
M 195.63 98.22 191.62 101.21 189.27 103.21 184.45 107.91 179.54 113.15 177.17 116.07 174.86 119.26 167.56 129.92 161.14 138.88 
M 135.15 180.15 132.84 183.39 
M 203.21 97.13 199.58 99.87 194.59 103.93 189.73 108.49 182.55 116.43 180.18 119.44 176.62 124.49 
M 171.52 131.9 167.15 138.16 
M 209.67 96.42 199.98 104.69 192.59 111.67 190.22 114.17 185.52 119.71 179.46 128.07 
M 176.83 131.86 174.12 135.81 
M 215.18 95.98 207.87 102.73 195.42 114.93 193.07 117.44 188.51 123.05 178.4 137.27 
M 219.9 95.87 215.46 100.15 211.85 103.98 
M 209.4 106.64 205.7 110.62 198.14 118.21 195.83 120.8 193.64 123.54 184.9 135.64 
M 182.1 139.66 180.74 141.65 
M 224.37 95.79 220.32 99.85 210.96 110.67 201.98 120.17 
M 199.64 122.85 195.34 128.64 
M 193.03 131.95 184.23 144.55 
M 228.74 95.75 225.13 99.41 222.97 101.88 213.64 113.3 205.8 121.91 203.41 124.75 201.27 127.66 195.91 135.74 
M 193.33 139.47 187.98 147.34 
M 164.42 185.98 163.67 186.88 
M 233.03 95.71 227.86 101.34 218.74 112.84 208.56 124.91 206.28 127.99 200.31 137.62 196.59 143.22 
M 193.95 147.12 190.21 153.05 187.05 159.06 
M 172.87 182.3 171.49 184.28 
M 169.36 187.11 167.01 189.8 
M 237.28 95.62 232.72 100.79 220.09 116.82 
M 217.58 119.92 213.85 124.67 209.47 131.17 203.79 141.2 196.2 152.8 192.76 158.86 
M 188.62 166.94 186.84 170.11 
M 179.15 181.48 176.92 184.55 
M 174.76 187.4 172.53 190.08 
M 241.54 95.53 239.53 97.73 235.31 102.95 219.13 124.15 214.76 130.96 207.3 144.8 199.62 156.52 198.43 158.55 
M 196.18 162.64 191.97 170.77 
M 189.69 174.62 187.22 178.25 
M 245.6 95.74 242 99.83 239.87 102.53 224.29 123.6 222.07 127.01 220 130.58 217.23 135.96 
M 215.46 139.48 213.62 143.02 
M 211.58 146.68 207.99 152.38 202.7 160.25 199.3 166.39 
M 197.2 170.5 193.9 176.42 192.67 178.23 
M 249.61 96.12 246.64 99.44 242.3 104.98 229.25 123.21 226.11 128.41 
M 224.17 132.1 219.7 141.43 217.81 145.03 214.51 150.54 
M 212.02 154.28 209.39 158.11 
M 206.79 162.02 205.52 164.01 202.23 170.13 
M 192.98 185 190.4 188.06 
M 253.56 96.55 251.38 99.02 246.9 104.65 241.76 111.87 
M 239.72 114.83 234.22 122.84 232.02 126.33 229.1 131.92 
M 225.57 139.72 223.76 143.52 
M 219.61 150.81 212.03 161.97 
M 209.56 165.88 207.3 169.88 
M 203.08 177.87 199.68 183.41 198.43 185.04 
M 257.26 97.24 253.88 101.2 247.41 110.08 237.07 125.95 234.92 129.72 232.99 133.68 229.54 141.78 227.71 145.66 225.69 149.35 222.23 154.72 
M 219.74 158.33 217.22 162.05 
M 214.79 165.9 212.52 169.83 
M 210.37 173.8 207.22 179.7 205.05 183.39 202.71 186.77 201.46 188.29 
M 198.92 191.16 193.87 196.14 
M 260.92 97.92 258.72 100.44 254.24 106.54 248.26 115.55 244.31 121.9 239.91 129.3 237.78 133.28 235.88 137.42 233.29 143.65 
M 231.46 147.6 230.49 149.51 228.31 153.15 222.31 162.15 
M 219.95 165.93 215.61 173.76 
M 213.51 177.7 211.41 181.52 
M 264.7 98.71 261.31 102.65 259.07 105.75 254.9 112.09 251.06 118.26 242.55 132.76 239.44 138.94 
M 237.62 143.13 235.88 147.25 
M 234.01 151.18 233.01 153.09 225 165.87 
M 218.69 177.48 216.62 181.32 
M 268.59 99.61 266.31 102.15 264.01 105.12 259.69 111.52 244.91 136.22 242.74 140.29 237.36 152.61 236.37 154.53 
M 232.06 161.93 229.89 165.65 
M 225.83 173.31 220.67 182.67 217.47 188.01 
M 272.72 100.57 269.06 104.86 264.61 111.08 247.18 139.66 245.05 143.65 240.67 153.91 
M 238.84 157.89 236.83 161.67 
M 232.72 169.09 229.78 174.71 226.7 180.11 
M 222.47 187.16 220.28 190.51 
M 276.86 101.64 271.82 107.85 267.5 114.15 251.82 139.33 249.59 143.14 247.57 147.02 246.69 149.07 
M 243.36 157.4 240.67 163.31 237.7 168.8 
M 235.71 172.39 228.48 184.46 222.99 192.61 
M 281.03 102.73 276.67 108.16 274.58 111.06 260.11 133.68 
M 257.69 137.42 254.24 142.98 252.2 146.68 250.37 150.61 247.14 158.97 244.59 164.89 
M 242.71 168.56 240.76 172.05 
M 238.75 175.42 234.51 182.01 
M 285.19 103.8 281.49 108.51 277.34 114.4 267.55 129.9 
M 265.03 133.7 258.96 143.05 256.86 146.64 255.03 150.4 252.56 156.4 
M 249.32 164.45 247.59 168.2 
M 245.75 171.69 241.81 178.19 
M 230.53 193.46 228.23 196.21 
M 289.32 104.84 286.42 108.61 282.15 114.65 273.85 128.07 266.29 139.42 261.66 146.74 259.79 150.4 255.69 160.06 
M 252.24 167.65 250.49 171.17 
M 244.84 180.74 240.36 186.83 
M 293.6 105.92 289.29 111.52 287.09 114.7 282.89 121.27 276.61 131.93 266.68 146.76 264.72 150.43 259.78 161.72 257.96 165.42 253.34 173.89 
M 251.59 177.04 249.76 180.12 
M 245.56 186.14 243.23 189.07 
M 298.04 107.01 294.69 111.27 290.05 117.83 285.71 124.82 279.58 135.85 277.18 139.55 272.06 146.75 270.97 148.56 
M 267.29 155.98 263.88 163.35 
M 261.95 166.89 257.96 173.45 
M 302.55 108.11 295.51 117.55 290.82 124.71 288.69 128.45 283.84 137.86 
M 281.59 141.53 279.1 145.1 
M 276.59 148.65 275.39 150.44 272.43 155.94 
M 270.69 159.62 267.98 165.02 264.81 170.06 
M 260.58 176.2 256.8 181.98 
M 306.99 109.37 299.99 118.96 
M 297.56 122.55 293.99 128.23 291.91 132.11 288.15 139.79 286.02 143.46 279.87 152.39 
M 277.66 156.02 273.83 163.22 
M 271.86 166.68 268.56 171.59 262.95 178.93 
M 253.2 192.48 251 194.89 
M 248.68 197.11 246.28 199.11 
M 311.4 110.61 306.8 116.98 299.57 127.85 297.25 131.79 294.18 137.71 
M 292.2 141.56 291.2 143.45 287.76 148.87 
M 285.29 152.5 282.87 156.14 
M 280.64 159.76 276.59 166.75 
M 272.18 173.1 269.78 176.05 
M 267.41 178.9 265.2 181.66 
M 263.18 184.38 261.29 187.04 
M 315.75 111.99 309.95 120.25 302.7 131.39 300.35 135.35 293.97 146.93 285.6 159.86 
M 283.34 163.43 279.12 170.15 
M 276.91 173.22 267.52 184.38 
M 265.46 187 261.5 191.92 
M 320.21 113.46 313.02 123.77 305.59 135 297.68 148.46 
M 295.4 152.26 285.97 166.99 
M 283.81 170.3 281.64 173.4 
M 279.39 176.32 272.26 184.45 
M 270.01 187.04 267.84 189.55 
M 324.88 115 321.04 120.63 313.44 131.1 307.1 140.54 
M 304.76 144.31 289.82 168.74 285.41 175.06 283.19 177.94 279.67 182.03 
M 272.62 189.63 270.33 191.98 
M 329.73 116.61 326.77 121.01 316.24 134.84 311.03 142.3 301.62 156.75 295.92 166.4 
M 291.53 173.49 287.09 179.47 
M 282.46 184.87 280.08 187.4 
M 272.9 194.25 270.56 196.26 
M 334.65 118.22 330.04 124.75 319 138.52 306.53 156.16 303.05 161.63 
M 300.8 165.46 295.41 174.75 292.15 179.44 
M 289.92 182.31 287.63 185.02 
M 285.28 187.59 282.86 189.99 
M 280.39 192.22 277.93 194.31 
M 275.5 196.27 273.31 197.94 
M 339.49 119.76 335.67 125.18 333.04 128.5 324.52 138.58 321.78 142.15 316.63 149.31 309.15 159.28 305.68 164.6 
M 303.48 168.37 298.19 177.54 294.93 182.19 
M 292.7 185.02 289.23 188.94 288.02 190.1 
M 344.24 121.26 341.02 125.74 337.14 130.63 
M 334.36 133.89 327.25 142.26 319.38 152.76 313.03 160.88 
M 308.36 167.73 306.2 171.41 
M 304.1 175.1 302 178.62 
M 348.96 122.7 341.07 132.86 332.72 142.63 314.51 165.84 312.19 169.23 306.84 178.09 
M 300.35 187.34 298.08 189.91 
M 353.7 124.16 346.22 133.52 338.05 143.21 331.43 151.64 
M 328.78 155 323.53 161.44 
M 320.97 164.52 316.14 170.9 
M 313.89 174.27 311.71 177.67 
M 309.57 180.98 307.41 184.1 
M 358.45 125.65 355.7 129.02 
M 352.85 132.44 343.25 143.89 331.43 158.76 
M 328.82 161.92 326.23 164.97 
M 323.72 167.98 320.12 172.6 311.16 185.15 307.91 189.17 
M 363.16 127.11 348.4 144.57 339.28 156.11 
M 336.67 159.31 328.93 168.43 
M 324.12 174.36 317.24 183.3 
M 314.98 186.11 312.79 188.73 
M 367.78 128.52 356.38 141.74 344.44 156.76 
M 339.27 163.01 331.65 171.87 
M 372.23 129.88 361.48 141.95 354.68 150.75 
M 352.1 154.12 345.76 162.09 339.28 169.5 
M 327.42 183.34 325.1 185.87 
M 376.52 131.18 366.55 141.98 363.61 145.56 359.65 151.02 
M 357.13 154.55 352.13 161.09 
M 349.59 164.16 337.11 178.54 
M 380.55 132.41 378.36 134.94 371.69 141.95 368.61 145.53 365.85 149.21 360.8 156.63 357.12 161.63 
M 354.62 164.7 346.97 173.43 
M 339.79 181.71 338.02 183.72 
M 382.11 136.45 373.81 145.51 370.93 149.18 367 154.92 
M 362.03 162.14 358.3 166.82 354.5 171.08 
M 347.12 179.48 345.36 181.49 
M 382.11 142.46 376.24 149.27 373.47 153.02 365.76 164.28 363.21 167.43 359.43 171.69 
M 382.11 149.1 378.84 153.21 370.89 164.48 368.26 167.81 364.39 172.22 
M 382.11 156.25 376.11 164.44 372.13 169.42 
M 382.11 163.22 377.31 169.36 
M 211.98 95.17 257.37 30 258.08 30.47 215.1 95.98 
M 224.67 94.99 255.04 46.53 255.77 46.96 227.75 95.76 
M 237.39 94.83 257.32 62.32 258.06 62.74 240.47 95.56 
M 250.13 95.48 262.89 77.23 263.6 77.68 253.09 96.46 
M 262.69 97.69 268.91 90.38 269.62 90.86 265.49 98.89 
M 271.55 99.78 272.85 100.59 
M 253.72 37.11 252.25 40.15 251.69 41.69 251.3 43.25 251.11 44.83 251.3 48.07 252 51.37 
M 252.92 51.92 252.38 55.15 252.35 58.28 252.61 59.8 253.08 61.28 253.72 62.73 255.33 65.57 
M 256.26 66.11 256.44 69.4 257.09 72.5 257.69 73.94 258.47 75.3 259.41 76.59 261.61 79.05 
M 262.52 79.62 262.82 82.66 263.59 85.48 264.23 86.76 265.05 87.94 266.03 89.05 268.29 91.11 
M 269.18 91.71 268.87 94 268.87 95.09 269.04 96.12 269.4 97.07 270.65 98.78 272.39 100.31 
M 252.95 38.63 251.69 41.69 251.3 43.25 251.11 44.83 251.12 46.44 251.62 49.72 
M 249.06 45.31 247.95 48.01 247.6 49.39 247.44 52.21 247.88 55.11 
M 245.17 51.99 244.2 54.34 243.76 56.75 243.77 57.98 244.15 60.49 
M 241.28 58.67 240.46 60.66 240.08 62.71 240.09 63.75 240.42 65.88 
M 237.39 65.35 236.72 66.99 236.41 68.66 236.68 71.27 
M 233.5 72.04 232.98 73.31 232.73 74.62 232.95 76.66 
M 252.62 53.54 252.28 56.73 252.35 58.28 252.61 59.8 253.08 61.28 254.49 64.16 
M 249.07 60.92 248.79 63.55 248.85 64.83 249.45 67.3 250.62 69.67 
M 245.52 68.29 245.3 70.36 245.35 71.37 245.82 73.32 246.74 75.19 
M 241.97 75.66 241.85 77.92 242.19 79.34 242.86 80.71 
M 256.32 67.77 256.68 70.98 257.09 72.5 257.69 73.94 258.47 75.3 260.48 77.84 
M 252.38 77.63 252.62 79.72 253.27 81.64 253.78 82.52 255.09 84.17 
M 262.64 81.16 263.13 84.11 263.59 85.48 264.23 86.76 265.05 87.94 267.13 90.1 
M 139.44 141.93 152.92 136.62 153.26 137.4 139.28 144.2 
M 138.85 146.75 183.58 133.51 183.84 134.32 137.95 149.78 
M 137.54 151.74 190.37 142.04 190.54 142.87 136.81 154.65 
M 136.33 156.38 195.62 151.93 195.7 152.77 135.22 159.27 
M 134.63 160.72 190.8 162.63 190.79 163.48 133.49 163.52 
M 133.14 164.69 197.39 173.75 197.29 174.59 132.65 167.53 
M 132.39 168.55 184.02 181.79 183.82 182.62 131.6 171.31 
M 131.39 172.15 173.4 188.09 173.12 188.89 130.7 174.96 
M 130.47 175.66 152.88 187.51 152.51 188.28 129.44 178.29 
M 150.71 138.64 156.89 138.96 163 138.77 166.02 138.38 169.02 137.8 171.99 137.04 177.89 135.19 
M 178.21 136.21 178.66 138.47 179.51 140.39 180.15 141.17 180.95 141.82 184.02 143.21 
M 184.23 144.26 184.28 146.6 184.78 148.7 185.28 149.61 185.96 150.43 186.8 151.15 188.76 152.44 
M 188.86 153.51 186.9 155 186.07 155.82 185.39 156.72 184.9 157.72 184.44 159.95 184.44 162.42 
M 184.42 163.49 184.83 166.14 185.17 167.37 185.67 168.51 186.33 169.54 188.14 171.29 190.39 172.76 
M 190.26 173.82 187.09 174.32 184.17 175.26 182.85 175.98 181.62 176.88 180.48 177.94 178.37 180.34 
M 178.12 181.39 175.54 181.53 174.33 181.74 173.2 182.12 172.17 182.67 170.38 184.29 168.83 186.35 
M 168.47 187.36 164.52 186.01 162.54 185.5 160.54 185.17 158.53 185.04 154.47 185.36 150.37 186.19 
M 153.81 138.83 159.96 138.95 163 138.77 166.02 138.38 169.02 137.8 174.94 136.15 
M 178.41 137.36 179.02 139.48 179.51 140.39 180.15 141.17 180.95 141.82 182.93 142.8 
M 160.47 143.01 161.18 144.98 162.12 145.91 163.4 146.55 
M 184.22 145.45 184.45 147.7 184.78 148.7 185.28 149.61 185.96 150.43 187.75 151.81 
M 164.25 149.46 164.4 150.92 164.94 152.16 166.54 153.59 
M 187.84 154.24 186.07 155.82 185.39 156.72 184.9 157.72 184.59 158.79 184.41 161.17 
M 166.6 156.36 165.45 157.39 165.01 157.98 164.49 159.32 164.37 160.86 
M 184.6 164.83 185.17 167.37 185.67 168.51 186.33 169.54 187.16 170.47 189.24 172.05 
M 164.49 164.43 164.87 166.09 165.19 166.83 166.16 168.1 167.51 169.12 
M 188.66 174.04 185.59 174.71 184.17 175.26 182.85 175.98 181.62 176.88 179.41 179.11 
M 167.13 171.61 165.13 172.04 163.35 172.87 162.56 173.45 161.12 174.9 
M 176.82 181.43 174.33 181.74 173.2 182.12 172.17 182.67 171.23 183.4 169.59 185.29 
M 166.5 186.65 162.54 185.5 160.54 185.17 158.53 185.04 156.5 185.11 152.42 185.74 
M 184.62 200.79 209.53 232.61 208.88 233.15 182.27 202.74 
M 183.05 200.55 183.7 201.56 
M 190.47 212.12 208.51 240.23 207.8 240.7 180.52 202.26 
M 181.47 200.32 181.97 201.28 
M 187.64 212.29 206.14 248.21 205.39 248.61 178.78 201.77 
M 179.88 200.09 180.23 200.99 
M 184.74 212.25 202.36 256.37 201.58 256.7 177.06 201.28 
M 178.27 199.87 178.5 200.67 
M 181.83 212.05 197.15 264.5 196.34 264.75 175.35 200.78 
M 176.65 199.65 176.78 200.33 
M 178.94 211.74 190.49 272.42 189.66 272.59 173.65 200.27 
M 175.03 199.45 175.08 199.98 
M 176.14 211.51 182.42 279.91 181.57 280 171.99 199.77 
M 206.22 230.11 204.66 232.1 204.41 233.46 204.93 234.85 205.96 236.26 
M 205.08 236.86 203.7 238.09 202.82 239.43 202.7 240.93 203.67 243.42 
M 202.73 243.93 200.49 245.67 200.01 246.36 199.72 247.11 199.68 248.84 200.11 250.74 
M 199.13 251.16 197.32 252.15 195.95 253.4 195.52 254.16 195.27 255.03 195.26 258.04 
M 194.24 258.36 192.23 259.21 190.63 260.36 190.05 261.12 189.64 261.99 189.11 265.14 
M 188.06 265.35 185.86 266.04 184.88 266.49 184.03 267.08 183.32 267.8 182.32 269.65 181.68 271.86 
M 205.61 230.77 204.66 232.1 204.41 233.46 204.58 234.15 205.41 235.55 
M 201.59 225.66 200.81 226.76 200.59 227.88 200.73 228.45 201.42 229.61 
M 197.56 220.56 196.8 221.86 196.89 222.75 197.43 223.66 
M 193.54 215.45 192.98 216.4 193.05 217.05 193.44 217.72 
M 204.35 237.47 203.17 238.74 202.82 239.43 202.7 240.93 203.26 242.57 
M 201.08 232.39 200.06 233.49 199.76 234.08 199.66 235.37 200.14 236.78 
M 197.8 227.32 196.95 228.24 196.7 228.73 196.61 229.81 197.01 230.99 
M 194.53 222.25 193.64 223.38 193.57 224.25 193.89 225.21 
M 191.25 217.17 190.57 218.03 190.52 218.69 190.77 219.42 
M 201.9 244.48 200.49 245.67 200.01 246.36 199.72 247.11 199.61 247.94 199.86 249.78 
M 199.26 239.39 198.01 240.45 197.33 241.72 197.24 242.45 197.46 244.07 
M 196.62 234.3 195.54 235.22 194.95 236.32 194.87 236.96 195.06 238.36 
M 193.99 229.21 192.76 230.43 192.5 231.47 192.67 232.66 
M 191.35 224.13 190.6 224.76 190.19 225.53 190.27 226.95 
M 188.71 219.04 188.13 219.53 187.81 220.14 187.87 221.24 
M 198.19 251.64 196.56 252.73 195.95 253.4 195.52 254.16 195.27 255.03 195.19 256.99 
M 196.14 246.52 194.67 247.51 194.12 248.11 193.51 249.57 193.43 251.34 
M 194.08 241.41 192.77 242.28 192.29 242.82 191.74 244.12 191.68 245.69 
M 192.03 236.3 190.88 237.06 190.46 237.53 189.98 238.67 189.92 240.04 
M 189.97 231.18 188.63 232.24 188.22 233.22 188.17 234.4 
M 187.92 226.07 186.8 226.95 186.45 227.76 186.41 228.75 
M 185.86 220.96 184.96 221.66 184.69 222.31 184.66 223.1 
M 193.21 258.76 191.36 259.73 190.63 260.36 190.05 261.12 189.64 261.99 189.21 264.04 
M 191.48 252.9 189.82 253.77 189.16 254.34 188.28 255.81 187.89 257.65 
M 189.76 247.04 188.28 247.81 187.7 248.32 186.91 249.62 186.57 251.26 
M 188.04 241.17 186.74 241.85 186.23 242.3 185.54 243.44 185.24 244.87 
M 186.32 235.31 184.77 236.27 184.18 237.25 183.92 238.48 
M 184.59 229.45 183.67 229.94 183.02 230.63 182.6 232.09 
M 182.87 223.59 182.13 223.98 181.61 224.53 181.27 225.7 
M 186.93 265.67 184.88 266.49 184.03 267.08 183.32 267.8 182.75 268.66 181.97 270.73 
M 185.83 259.91 183.96 260.66 182.53 261.85 182.02 262.64 181.3 264.52 
M 184.73 254.14 183.03 254.82 181.75 255.9 181.28 256.61 180.64 258.31 
M 183.63 248.38 182.11 248.98 181.48 249.41 180.54 250.58 179.97 252.11 
M 182.52 242.61 180.63 243.52 179.81 244.55 179.3 245.9 
M 181.42 236.85 179.79 237.64 179.07 238.53 178.63 239.69 
M 180.32 231.08 179.34 231.47 178.6 232.09 177.96 233.48 
M 179.21 225.32 178.09 225.86 177.6 226.47 177.29 227.28 
M 353.41 181.55 356.56 186.39 355.95 186.98 351.21 183.67 
M 341.43 185.84 345.11 191.41 344.49 191.99 339.2 187.93 
M 329.35 189.82 334.62 197.56 333.98 198.12 327.05 191.82 
M 317.16 193.42 324.99 204.88 324.33 205.41 314.78 195.34 
M 304.85 196.63 316.28 213.31 315.6 213.83 302.43 198.5 
M 293.93 199.38 310.13 222.68 309.45 223.19 291.49 201.23 
M 355.48 186.65 352.69 186.57 350.09 186.96 348.9 187.43 347.78 188.08 346.73 188.9 344.74 190.85 
M 343.96 191.58 341.26 191.77 338.79 192.42 337.7 192.99 336.69 193.75 335.78 194.67 334.09 196.79 
M 333.28 197.49 330.65 197.98 329.43 198.36 328.3 198.89 327.3 199.58 325.61 201.44 324.21 203.73 
M 323.38 204.4 320.83 205.19 318.61 206.36 317.7 207.17 316.91 208.12 316.25 209.21 315.14 211.64 
M 314.29 212.29 312.12 213.45 310.36 214.9 309.72 215.79 309.24 216.8 308.91 217.92 308.51 220.35 
M 331.95 197.7 329.43 198.36 328.3 198.89 327.3 199.58 326.4 200.44 324.89 202.56 
M 322.08 204.77 319.66 205.71 318.61 206.36 317.7 207.17 316.91 208.12 315.67 210.4 
M 313.17 212.85 311.17 214.12 310.36 214.9 309.72 215.79 309.24 216.8 308.68 219.11 
M 307.92 207.98 306.62 208.81 306.1 209.31 305.37 210.55 305 212.05 
M 382.11 132.89 384.25 130.82 389.73 124.64 391.67 122.84 393.19 120.71 395.2 118.95 397.87 114.64 405.04 106.75 409.72 103.25 412.43 101.93 416.58 99.54 417.93 98.14 419.36 97.87 423.62 96.61 426.12 94.98 432.72 92.3 435.27 90.36 437.67 89.22 439.52 89.1 441.07 88.55 444.29 87.94 446.7 87.11 449.13 86.93 452.77 85.52 456.58 84.71 460.34 83.11 464.23 80.88 467.09 80.46 465.3 87.55 466.91 92.55 467.35 94.95 466.41 102.16 466.56 104.92 467.14 108.11 466.57 110.8 464.81 112.65 462.22 113.66 459.78 114.82 458.39 116.87 457.71 119.53 456.65 121.82 457.15 125.67 455.6 127.71 453.57 129.27 451.79 131.09 448.47 134.94 443.86 137.2 441.09 137.94 438.52 138.92 434.56 142.08 433.35 144.42 431.13 145.55 428.27 146.05 425.65 146.79 423.61 148.13 421.29 149.3 419.14 150.62 417.36 152.33 414.98 153.33 412.08 153.6 409.46 154.15 407.16 155.03 404.3 155.33 406.57 156.95 408.17 156.84 413.97 159.22 417.75 161.37 422.42 162.8 428.82 166.31 432.04 167.89 440.29 172.73 445.4 178.96 447.37 180.74 453.69 184.26 457.33 185.1 458.56 187.26 459.5 189.63 461.28 192.85 462.56 195.66 462.75 197.41 463.48 200.8 466.01 204.7 466.48 206.62 465.95 209.11 466.29 215.49 466.97 221.1 466.57 222.1 465.02 230.44 462.97 230.13 460.82 228.09 458.71 226.95 456.16 224.76 453.83 224.9 450.28 223.88 447.18 223.84 444.46 224.29 442.09 223.11 439.19 223.65 434.24 221.53 433.03 220.21 430.84 218.37 428.03 216.84 422.53 214.3 417.66 211.04 411.15 207.7 408.96 205.47 406.47 203.74 404.95 202.04 401.64 196.57 398.31 192.51 396.62 190.82 393.62 185.55 389.84 181.01 387.77 179.22 382.11 171.4 
M 386.33 130.65 390.27 126.95 392.43 125.22 394.27 123.29 396.14 121.74 399.39 117.97 404.87 112.02 407.02 110.08 408.91 108.98 411.26 106.92 413.82 106.09 416.98 104.76 419.05 104.18 419.91 102.89 421.45 101.23 422.77 99.46 426.06 99.17 429.61 98.25 432.02 98.33 435.32 98.08 437.15 96.32 440.33 94.41 441.83 92.77 443.68 92.16 449.9 93.89 452.59 93.26 457.66 90.53 
M 382.11 136.06 384.57 134.45 386.63 132.44 388.6 130.87 395.01 125.85 397.07 124.72 398.98 122.94 403.26 119.6 405.67 116.77 407.5 115.47 408.96 113.44 410.57 112.4 412.77 111.45 415.66 109.64 420.79 107.53 422.56 106.46 423.68 104.98 425.8 104.16 428.19 102.94 435.3 101.51 439.97 100.38 442.74 98.88 447.74 97.21 449.75 98.11 451.97 98.71 455.43 99.17 457.55 97.15 460.15 95.72 
M 389.05 132.58 395.66 127.94 397.55 127.14 402.29 124.35 404.25 122.4 407.27 120.61 409.96 118.67 411.39 117.3 412.35 116 416.78 113.62 419.6 112.7 422.52 112.43 424.57 110.76 426.03 109.86 430.99 108.66 434.15 107.52 436.79 106.79 438.81 107.22 442.14 105.88 445.13 104.93 448.34 104.54 450.37 104.73 452.32 104.34 454.31 105.69 456.9 105.02 
M 387.16 136.33 389.43 134.56 394.28 131.48 398.33 129.35 403.1 127.35 405.24 125.46 408.32 123.83 413.2 120.7 414.18 119.4 415.57 118.82 418.16 118.12 421.1 116.54 
M 385.17 139.9 394.86 133.91 397.1 132.85 402.27 130.78 406.13 128.23 409.61 127.57 412.27 126.86 414.37 125.1 415.1 123.95 416.6 122.77 419.28 121.79 
M 382.11 142.39 385.43 141.91 388.09 140.66 390.65 139.08 393.37 138.2 400.05 134.57 403 133.72 405.33 132.14 407.29 131.43 413.44 130.62 415.23 129.39 419.4 127.07 421.58 126.16 425.15 126.01 428.55 125.25 430.88 125.41 433.4 124.76 
M 382.11 143.98 385.55 143.62 388.44 142.71 390.91 141.53 393.5 141.08 396.2 140.1 400.76 137.37 402.72 137.02 405.58 135.89 408.46 135.61 414.72 134.12 416.53 133.42 420.33 131.51 423.22 131.42 427.09 132.38 429.63 132.4 432.36 131.95 434.51 131.93 
M 388.54 144.74 391.22 143.98 393.86 143.68 396.68 143.03 398.25 141.88 402.64 140.06 406.05 139.95 409.32 140.17 413.01 139.16 
M 382.11 147.14 385.81 147.55 394.5 145.93 396.92 145.65 403.14 143.78 406.84 143.84 410.56 144.33 413.75 143.82 416.61 143.67 419.33 141.84 421.53 142.11 
M 382.11 148.73 386.01 149.39 389.38 149.48 392.32 148.83 394.22 148.75 396.82 148.15 398.85 148.82 401.45 148.58 404.01 147.6 411.57 148.5 414.06 148.21 417.15 148.55 419.35 148.06 420.32 147.52 
M 391.96 152.15 394.3 151.66 399.25 152.54 
M 391.88 155.09 396.41 156.45 
M 382.11 153.48 389.34 156.26 391.29 157.39 396.67 158.51 402.43 158.33 404.74 159.05 407.86 158.76 410.21 159.67 
M 391.24 159.24 394.09 159.55 396.99 160.35 400.15 160.89 407.3 161.78 
M 391.09 161.07 397.08 162.44 401.65 164.27 406.73 164.89 409.79 165.46 412.8 167.2 415.68 167.62 417.8 166.73 418.58 167.13 420.89 166.92 
M 390.76 163.13 394.18 163.88 397.04 164.87 401.33 167.39 403.26 167.49 406.29 168.38 409.1 169.86 414.51 171.13 416.79 172.25 418.18 172.58 420.26 172.12 422.96 173.5 425.81 174.45 427.9 175.41 430.74 174.31 434.53 173.48 437.29 173.65 439.95 174.03 
M 387.82 163.79 390.5 165.15 396.22 167.3 400.55 170.25 403.21 171.02 406.13 172.41 415.33 175.64 417.36 176.76 419.03 178.41 425.41 179.08 
M 390.16 166.84 392.79 168.3 395.51 169.55 400.51 172.77 405.94 175.74 413.14 178.7 414.64 179.17 416.48 180.5 418.86 181.55 421.66 182.03 424.61 182.98 427.43 183.09 
M 382.11 162.98 384.9 165.5 387.44 167.13 389.76 168.6 395.19 171.35 397.58 172.88 402.55 177.36 404.87 178.63 406.91 180.02 408.51 181.15 410.6 183 413.23 183.6 423.58 188.76 426.42 187.83 429.81 187.99 432.09 189.23 434.49 189.39 435.73 189.31 438.24 189.79 442.39 193.84 445.3 193.97 448.1 194.75 451.63 193.69 
M 384.89 167.15 387.31 168.94 392.09 172.16 394.55 173.59 396.81 175.22 401.84 179.83 404.09 181.35 405.49 183.16 407.36 184.66 409.4 186.82 411.64 188.16 414.74 189.11 419.58 192.4 421.44 192.5 423.89 193.38 429.26 195.85 431.05 196.31 434.45 195.4 
M 382.11 166.15 387.36 170.68 389.15 172.62 393.74 176.04 396 178.03 398.58 180.36 400.61 182.77 402.94 184.86 405.18 186.19 408.51 189.9 413.22 192.41 418.2 196.43 419.95 197.05 
M 389.11 174.78 391.14 176.44 392.88 178.35 395.33 180.41 397.41 183.06 401.55 187.56 404.68 190.46 409.31 193.87 413.47 197.63 415.97 199.44 418.45 200.41 420.85 201.86 423.32 202.86 427.45 205.52 429.57 207.44 431.53 208.64 437.76 209.74 439.32 210.25 443.78 210.3 449.51 212.94 
M 384.68 172.11 386.71 174.71 392.34 180.42 399.89 189.86 401.49 191.57 403.38 193.25 405.07 195.12 406.99 196.72 408.93 199.07 412.07 200.45 413.99 202.75 415.9 204.27 418.92 206.01 421.3 206.83 422.95 208.24 425.57 209.59 427.97 211.26 430.79 212.57 433.26 213.19 435.99 214.73 437.94 215.5 439.71 216.84 441.96 216.86 449.96 218.86 456.14 219.83 458.23 220.56 459.58 221.3 
M 342.38 120.69 344.66 119.98 347.15 119.48 349.84 119.18 352.73 119.09 355.86 119.23 359.25 119.63 362.99 120.38 375.31 123.74 378.84 124.28 381.78 124.54 383.8 125.31 384.45 126.5 383.48 127.73 381.09 128.64 377.9 129.04 374.51 128.73 362.24 126.83 
M 351.29 122.53 354.3 122.56 
M 357.55 122.82 362.99 123.78 375.31 127.14 380.31 127.81 
M 62.04 152.93 62.51 151.81 64 149.49 66.02 146.84 68.53 144.13 71.66 141.57 75.75 139.22 80.6 136.8 85.17 133.98 89.78 130.76 95.11 127.75 107.07 122.67 112.95 120.47 123.57 117 133.76 114.16 136.16 118.26 136.83 122.21 138.81 130.19 139.5 134.14 139.58 138.01 139.18 145.66 138.04 149.36 137.25 153.1 136.2 156.81 133.24 164.11 132.58 167.87 130.61 175.31 129.17 178.96 127.1 182.53 123.87 185.85 114.52 185.21 107.62 184.27 101.4 183.19 95.82 181.78 90.68 180.25 85.87 178.38 81.43 176.32 77.51 174.26 74.08 172.08 
M 120.01 139.86 119.56 143.12 116.68 149.07 115.02 151.72 111.42 156.31 110.51 160.62 110.42 164.87 110.13 167.29 109.08 169.97 93.96 169.48 89.66 169.02 85.46 168.31 81.39 167.06 77.59 165.34 
M 72.48 171.53 70.57 169.34 66.02 164.61 63.37 161.39 59.07 156.57 58.85 154.37 60.32 152.84 62.42 152.95 63.83 154.54 67.87 161.95 70.32 165.61 74.09 172.08 
M 73.71 172.78 64.98 172.58 58.5 172.24 54.3 171.82 52.64 170.3 52.73 168.12 54.43 166.89 56.58 167.21 73.81 171.91 
M 91.04 148.77 89.13 146.1 88.2 142.95 88.33 139.67 89.53 136.61 91.65 134.1 94.47 132.42 97.68 131.75 100.94 132.15 103.89 133.6 106.22 135.92 107.66 138.87 108.06 142.13 107.39 145.34 105.71 148.16 103.2 150.29 100.14 151.48 96.86 151.62 93.71 150.68 91.04 148.77 
M 104.59 137.08 105.75 139.44 106.07 142.05 105.53 144.62 104.19 146.87 102.18 148.57 99.73 149.53 97.11 149.64 94.59 148.89 92.45 147.36 
M 94.64 143.9 93.87 142.83 93.5 141.57 93.55 140.26 94.03 139.04 94.88 138.03 96.01 137.36 97.29 137.09 98.6 137.25 99.78 137.83 100.71 138.76 101.28 139.94 101.45 141.24 101.18 142.53 100.5 143.66 99.5 144.51 98.28 144.98 96.97 145.04 95.71 144.66 94.64 143.9 
M 94.6 143.85 94.69 143.94 
M 95.45 142.4 98.04 144.99 
M 94.7 139.36 99.69 144.35 
M 96.88 139.25 100.8 143.17 
M 98.56 138.63 101.4 141.48 
M 62.76 151.42 65.78 154.44 
M 64.83 148.4 68.17 151.74 
M 67.15 145.62 72.03 150.5 
M 69.75 143.13 72.88 146.26 
M 72.69 140.98 77.09 145.38 
M 75.93 139.13 79.8 142.99 
M 79.33 137.43 82.07 140.17 
M 82.57 135.58 85.89 138.89 
M 85.7 133.61 88.69 136.6 
M 88.7 131.52 91.48 134.3 
M 91.86 129.59 94.66 132.38 
M 95.12 127.75 99.32 131.95 
M 98.67 126.21 103.08 130.62 
M 102.24 124.68 106.38 128.82 
M 105.84 123.18 108.78 126.12 
M 109.51 121.76 114.11 126.36 
M 113.22 120.37 116.88 124.03 
M 117.02 119.08 122.07 124.13 
M 120.87 117.84 123.73 120.7 
M 124.79 116.66 128.3 120.18 
M 128.77 115.55 131.78 118.55 
M 132.77 114.46 135.12 116.81 
M 118.76 178.61 119.56 177.94 119.98 176.43 
M 124.04 121.75 122.33 121.31 120.48 121.26 119.66 121.03 116.97 119.1 
M 87.54 143.46 87.11 144.8 87.23 146.57 87.9 147.91 89.47 149.63 
M 77.83 159.92 78.52 159.43 80.76 158.9 81.96 158.43 82.56 158.4 
M 96 155.23 94.61 155.23 92.85 155.6 92.56 156.39 92.32 158.49 91.64 159.61 
M 98.41 160.22 99.5 160.94 100.11 161.93 100 163.32 99.49 164.3 
M 100.84 183.05 100.9 181.7 101.1 181.02 101.46 180.73 101.75 180.73 102.18 181.27 
M 76.69 165.89 76.35 165.12 76.35 163.72 76.98 162.9 
M 71.46 157.31 72.23 156.47 74.17 156.34 76 155.91 77.86 155.13 78.26 154.72 78.73 153.46 
M 125.23 160.12 124.64 159.8 124.14 158.8 123.51 156.02 123.57 155.11 
M 107.2 183.18 106.85 184.14 
M 126.46 117.75 125.59 116.44 
M 106.78 146.37 107.07 146.57 
M 123.22 119.47 122.25 118.45 121.75 117.57 
M 77.09 143.93 76.18 143.75 75 143.14 72.94 140.84 
M 93.08 179.26 94.33 178.34 95.8 176.56 99.12 174.07 100.15 172.89 
M 67.92 156.85 68.5 156.49 69.23 156.82 70.09 156.78 
M 125.38 118.69 124.17 116.83 
M 88.74 134.84 90.27 135.73 
M 98.81 127.78 101.07 128 103.2 128.73 104.52 129.7 107.25 132.75 
M 133.84 116.93 132.4 118.34 
M 78.47 174.76 76.97 172.33 75.46 170.3 
M 109.84 163 108.86 164.23 107.87 164.96 106.9 166 
M 114.93 125.95 112 126.29 110.68 127.03 109.59 128.19 107.96 130.47 107.66 131.21 
M 130.56 166.85 131.85 167.26 132.62 167.68 
M 98.24 161.38 98.84 162.01 99.07 162.62 99 163.38 98.64 164.01 
M 123.47 129.74 122.79 130.35 122 131.94 121.43 132.64 120.65 133.26 119.77 133.68 118.14 134.1 113.52 133.27 
M 97.69 160.85 97.16 161.74 95.3 161.68 
M 110.52 144.8 110.1 146.91 109.76 147.68 108.52 148.96 108.21 149.07 107.98 148.96 
M 124.88 165.49 121.02 164.47 119.95 164.3 118.25 164.31 116.96 163.86 116.21 163.84 114.79 163.49 113.65 163.54 
M 66.96 160.38 68.55 159.73 71.58 157.66 72.47 156.84 73.48 156.6 
M 111.49 131.02 108.61 131.38 107.73 132.13 107.65 132.84 
M 104.14 163.13 103.96 164.57 103.14 165.77 102.08 167.77 102.05 168.42 102.64 171.05 102.58 172.11 102.38 172.47 
M 131.48 166.51 132.75 166.95 
M 114.99 144.24 114.78 145.71 114.28 147.19 113.72 148.24 112.76 149.37 112.75 149.83 113.03 150.22 
M 112.15 160.58 111.2 161.26 108.85 164.2 107.62 165.19 
M 116.61 169.41 115.74 167.28 114.59 165.71 114.39 164.56 113.83 164.36 
M 137.76 126.33 136.16 127.37 135.54 128.4 134.58 129.3 
M 137.24 143.83 135.54 144.57 133.81 146.12 133.1 147.33 133.07 148.82 
M 104.72 181.1 104.21 183.68 
M 79.56 142.54 78.57 142.74 76.12 142.44 74.23 141.42 73.34 140.6 
M 127.35 155.75 130.43 153.69 131.49 153.15 132.42 152.83 133.26 152.85 
M 120.59 126.48 119.35 125.93 117.77 125.77 112.46 126.47 111.8 126.71 110.47 127.56 109.42 128.67 
M 137.2 123.88 136.14 124.55 134.9 124.83 
M 70.42 165.77 72.15 161.69 73.65 160.09 74.57 158.54 75.06 157.98 75.73 157.58 78.05 156.59 
M 110.9 175.29 111.6 173.16 112.71 170.98 
M 137.46 129.79 135.8 131.03 
M 122.74 131.71 122.31 132.37 120.65 133.76 118.92 134.77 117.98 134.94 115.95 134.7 114.99 134.43 113.27 133.61 110.24 132.88 
M 120.78 149.9 122.08 148.68 124.39 148.32 124.83 148.11 
M 87.58 163.36 87 165.52 85.89 167.59 
M 97.8 156.2 94.2 157.5 93.61 157.99 92.82 159.13 
M 107.04 169.23 106.88 170.71 106.6 171.42 105.59 172.51 102.65 173.52 101.8 173.65 
M 112.39 133.54 110.16 132.91 108.77 132.17 108.16 132.27 107.76 132.65 
M 125.51 143.04 126.33 144.66 127.22 145.46 
M 85.44 153.09 87.13 154.05 87.89 154.3 89.23 155.17 90.71 157.17 90.84 157.85 90.72 158.52 89.62 160.68 
M 109.55 128.58 107.91 130.66 107.49 132.03 107.61 132.87 
M 116.43 135.64 114.49 135.2 112.1 133.72 110.05 132.98 108.94 132.24 108.35 132.21 
M 74.05 172.11 74.49 172.71 
M 69.74 168.45 69.66 169.03 70.03 168.76 
M 65.94 164.51 65.68 164.83 65.34 166.03 65.98 165.24 66.44 165.05 
M 62.48 160.42 61.6 161.33 61.01 163.04 61.9 161.74 63.12 161.11 
M 59.05 156.37 57.52 157.83 56.69 160.04 57.82 158.24 59.63 157.22 
M 73.8 172 74.83 172.15 
M 67.43 170.25 67.85 169.49 68.53 168.92 68.35 169.56 68.55 170.51 
M 61.4 168.61 61.96 166.99 63.08 165.82 62.46 167.06 62.52 168.9 
M 55.36 167.03 56.07 164.49 57.62 162.72 56.57 164.56 56.5 167.19 
M 61.89 172.4 65.47 174.04 68.74 175.34 72.04 176.35 75.4 177.11 78.83 177.65 85.87 178.38 
M 136.32 119.18 140.21 123.07 
M 136.98 113.05 143.26 119.33 
M 142.11 111.39 152.17 121.45 
M 147.33 109.81 152.55 115.03 
M 152.59 108.28 157.92 113.61 
M 157.94 106.84 163.62 112.52 
M 163.31 105.41 171.68 113.79 
M 168.79 104.1 176.75 112.07 
M 174.27 102.79 183.96 112.48 
M 179.71 101.44 188.23 109.96 
M 185.22 100.15 194.99 109.93 
M 190.89 99.04 197.43 105.57 
M 196.71 98.06 206.16 107.51 
M 202.65 97.21 211.52 106.08 
M 208.75 96.52 218.65 106.42 
M 215.01 95.99 224.38 105.36 
M 221.65 95.83 231.69 105.87 
M 228.36 95.75 238.17 105.56 
M 235.07 95.67 243.49 104.09 
M 241.72 95.53 250.86 104.67 
M 249.05 96.07 258.98 106 
M 256.96 97.18 266.47 106.7 
M 265.46 98.89 273.8 107.23 
M 274.35 100.99 282.87 109.51 
M 283.53 103.38 291.5 111.35 
M 292.63 105.68 299.17 112.22 
M 301.62 107.88 310.78 117.04 
M 311.05 110.51 317.77 117.23 
M 321.06 113.74 329.5 122.18 
M 331.22 117.11 341.06 126.95 
M 341.23 120.32 348.93 128.02 
M 351.04 123.34 358.84 131.13 
M 360.91 126.42 366.94 132.44 
M 370.69 129.41 378.33 137.05 
M 380.47 132.39 381.35 133.28 
M 139.07 190.64 139.36 191.22 
M 139.42 185.4 142.92 192.4 
M 140.56 181.72 146.41 193.44 
M 144.4 183.47 149.88 194.43 
M 148.25 185.22 153.35 195.42 
M 151.57 185.92 156.7 196.19 
M 154.28 185.39 160.05 196.94 
M 157.1 185.09 163.4 197.69 
M 160.09 185.14 166.68 198.32 
M 141.68 142.37 141.69 142.38 
M 163.35 185.71 169.96 198.94 
M 141.97 137 144.15 141.36 
M 166.86 186.78 173.24 199.56 
M 143.01 133.15 146.61 140.34 
M 169.29 185.71 176.57 200.27 
M 139.5 120.17 149.07 139.32 
M 171.15 183.48 176.71 194.59 
M 138.64 112.51 151.73 138.7 
M 173.41 182.05 176.99 189.21 
M 141.19 111.68 154.79 138.87 
M 176.09 181.48 178.03 185.35 
M 143.75 110.86 157.8 138.95 
M 178.45 180.25 179.07 181.48 
M 146.35 110.1 160.75 138.9 
M 148.94 109.35 163.61 138.69 
M 151.53 108.59 166.4 138.31 
M 154.13 107.85 169.1 137.78 
M 156.76 107.15 171.74 137.11 
M 159.38 106.45 174.32 136.34 
M 162 105.76 176.89 135.52 
M 164.64 105.09 180.97 137.74 
M 167.3 104.46 180.59 131.04 
M 216.28 202.42 218.24 206.34 
M 169.95 103.83 180.97 125.85 
M 215.9 195.71 221.19 206.3 
M 172.61 103.19 182.1 122.18 
M 215.52 189.01 224.14 206.26 
M 175.26 102.55 182.47 116.97 
M 215.88 183.8 227.11 206.26 
M 177.9 101.89 183.59 113.28 
M 216.25 178.59 230.08 206.26 
M 180.54 101.23 183.2 106.54 
M 216.61 173.37 233.05 206.25 
M 217.74 169.67 236.06 206.32 
M 218.16 164.57 239.06 206.38 
M 219.34 161 242.07 206.45 
M 219.77 155.91 245 206.37 
M 220.21 150.85 247.9 206.22 
M 220.71 145.9 250.79 206.07 
M 221.2 140.94 253.68 205.9 
M 221.69 135.98 256.54 205.68 
M 222.22 131.09 257.15 200.95 
M 222.75 126.22 256.17 193.05 
M 222.54 119.84 257.47 189.7 
M 222.33 113.48 258.78 186.39 
M 222.36 107.61 259.57 182.03 
M 222.56 102.07 259.77 176.49 
M 222.01 95.01 260.74 172.47 
M 221.07 87.19 261.7 168.44 
M 222.79 84.68 262.66 164.42 
M 224.51 82.18 262.86 158.88 
M 226.23 79.68 263.82 154.86 
M 227.95 77.17 263.26 147.8 
M 229.67 74.67 263.46 142.26 
M 231.39 72.17 263.66 136.72 
M 233.11 69.66 263.1 129.66 
M 234.83 67.16 264.06 125.63 
M 298.24 193.98 300.43 198.37 
M 236.55 64.66 264.26 120.09 
M 298.44 188.44 303.07 197.71 
M 238.27 62.15 264.47 114.55 
M 298.64 182.9 305.71 197.04 
M 239.99 59.65 264.67 109.01 
M 299.6 178.88 308.35 196.37 
M 241.71 57.15 263.35 100.43 
M 299.8 173.33 310.99 195.71 
M 243.43 54.64 259.75 87.3 
M 299.24 166.27 313.62 195.02 
M 245.15 52.14 259.19 80.24 
M 300.2 162.25 316.23 194.31 
M 246.87 49.63 252.33 60.57 
M 300 155.9 318.85 193.6 
M 248.59 47.13 252.74 55.44 
M 300.37 150.7 321.46 192.89 
M 250.31 44.63 251.22 46.45 
M 299.99 144 324.05 192.12 
M 252.03 42.12 252.28 42.64 
M 300.37 138.81 326.62 191.32 
M 301.5 135.12 329.19 190.51 
M 301.86 129.91 331.76 189.7 
M 302.98 126.21 334.31 188.87 
M 302.57 119.45 336.86 188.03 
M 302.92 114.2 339.41 187.18 
M 303.28 108.96 341.96 186.34 
M 306.36 109.19 342.43 181.33 
M 309.82 110.17 342.09 174.72 
M 313.3 111.18 334.94 154.47 
M 316.86 112.35 334.7 148.05 
M 320.41 113.52 335.22 143.14 
M 323.97 114.7 335.74 138.24 
M 327.54 115.88 337.03 134.87 
M 331.1 117.06 337.55 129.97 
M 334.54 118 337.2 123.32 
M 380.94 169.2 382.05 171.43 
M 380.66 162.7 382.11 165.6 
M 378.85 153.13 382.11 159.65 
M 374 137.5 382.11 153.71 
M 369.91 123.37 371.97 127.48 
M 373.33 130.21 382.11 147.77 
M 372.23 122.07 375.17 127.94 
M 376.84 131.28 382.11 141.82 
M 375.64 122.94 378.24 128.15 
M 380.35 132.35 382.11 135.88 
M 378.86 123.44 381.04 127.8 
M 382 123.77 383.52 126.82 
"/></svg>