<svg xmlns="http://www.w3.org/2000/svg" width="520" height="320"><rect x="0" y="0" width="520" height="320" fill="floralwhite"/><rect x="10" y="10" width="500" height="300" stroke="black" stroke-width="1" fill="none"/><path stroke="black" stroke-width="1" fill="none" stroke-linecap="round" stroke-linejoin="round" d="
M 136.65 99.13 149.7 94.15 160.63 90.37 171.65 86.88 193.87 80.43 205.07 77.55 216.41 75.28 227.84 73.54 239.36 72.52 262.48 72.1 274.05 72.15 285.52 73.62 296.8 76.17 307.95 79.23 341.16 89.25 352.18 92.77 363.04 96.73 395.4 109.26 432.03 122.65 
M 432.03 153.63 408.2 164.3 397.59 168.9 386.87 173.24 376.07 177.37 365.16 181.21 343.06 188.02 331.95 191.25 320.66 193.74 297.91 197.91 286.41 199.1 274.87 199.89 251.74 199.78 240.18 199.92 228.63 199.28 217.21 197.46 205.9 195.04 183.45 189.51 172.17 186.93 161 183.94 150.05 180.22 124.41 170.04 
M 190.99 124.87 195.43 124.97 
M 199.73 124.97 203.99 124.93 
M 213.65 126.01 221.34 127.26 227.93 127.32 
M 232.17 127.18 234.26 127.08 238.08 126.52 249.14 124.48 252.44 123.44 255.26 121.91 258.4 120.69 262.2 120.13 268.43 120.08 
M 272.41 119.91 281.43 119.03 285.59 119.29 287.89 119.66 
M 292.5 120.4 294.81 120.77 299.02 121.16 306.74 121.31 323.25 122.49 325.72 122.99 
M 330.94 124.2 338.97 126.1 355.91 128.31 
M 361.14 129.25 366.37 130.15 
M 371.23 130.63 375.71 130.65 
M 380.05 130.48 384.47 130.36 
M 388.86 130.16 399.25 129.01 407.84 128.4 411.94 127.96 419.26 126.39 423.13 125.91 427.63 126.14 432.03 126.7 
M 136.5 164.91 139.02 169.1 
M 144.2 177.57 144.49 178.05 
M 138.4 150.19 142.81 158.76 146.38 165.27 
M 148.86 169.69 153.34 178 
M 154.32 98.51 151.83 101.87 
M 146.97 108.75 144.71 112.4 
M 153.81 158.19 167.08 185.57 
M 167.35 91.85 166.15 96.42 
M 164.74 100.8 163.97 102.92 161.8 106.56 160.49 108.16 
M 157.99 111.5 156.79 113.23 155.8 115.16 
M 165.57 159.1 171.37 170.64 178.85 188.46 
M 181.09 85.98 179.68 87.42 178.49 89.1 
M 175.1 97.15 174.21 102.01 
M 171.72 111.06 168.99 117.03 166.92 120.77 163.86 125.74 
M 172.48 150.51 174.18 154.38 
M 182.94 172.85 184.42 176.72 
M 185.86 180.53 190.16 191.2 
M 196.17 87.42 194.88 88.97 193.36 90.28 
M 187.29 95.62 185.88 97.06 184.85 98.9 
M 182.07 107.58 181.48 109.87 178.94 115.97 
M 177.24 120.04 174.77 126.94 
M 183.07 149.5 184.86 153.86 
M 187.1 158.66 190.68 166.05 193.34 172.5 
M 194.75 176.41 197.7 184.3 
M 201.1 192.56 201.71 194.03 
M 205.55 89.18 204.63 91.1 202.37 94.54 201.03 96.05 
M 198.21 98.94 193.57 102.87 190.86 105.9 189.15 109.94 186.75 119.04 185.68 121.96 
M 200.85 163.74 204.63 172.73 
M 207.92 181.17 209.57 185.36 
M 211.12 189.44 213.91 196.75 
M 211.4 99.15 210.39 100.99 209.01 102.48 
M 206.14 105.35 204.65 106.72 203.34 108.28 
M 201.01 111.7 199.99 113.56 198.54 117.88 196.98 123.74 
M 215.93 172.65 218.64 179.32 220.95 185.52 
M 222.61 189.77 226.42 198.92 
M 231.72 78.29 229.78 82.09 
M 224.16 93.66 223.21 95.57 221.61 99.72 220.26 104.13 219.46 106.2 
M 217.56 110.07 211.87 118.8 209.11 123.82 
M 216.75 142.96 218.52 147.44 
M 224.47 164.18 226.39 170.1 233.96 189.49 
M 235.68 193.79 237.23 197.92 
M 232.05 101.17 230.7 105.6 
M 229.35 110.05 227.78 114.28 
M 222.97 125.97 222.36 127.34 
M 227.36 139.09 229.06 143.48 
M 232.01 151.83 233.5 156.01 
M 234.76 159.97 235.9 163.79 
M 237.23 167.79 240.43 176.32 
M 242.04 180.57 247.37 193.75 
M 251.46 85.5 246.74 95.24 242.41 102.53 241.47 104.5 
M 239.62 108.48 237.85 112.54 
M 235.37 121.72 234.45 125.62 
M 243.48 154.14 244.67 158.04 
M 245.95 162.02 253.48 182.96 
M 255.32 187.43 257.83 193.88 259.66 199.85 
M 270.15 74.87 269.41 77.05 267.42 80.85 266.28 82.62 
M 264.05 86.17 261.77 89.69 
M 254.79 100.19 253.7 102.03 247.88 113.81 246.21 118 245.54 120.28 
M 244.54 123.92 244.2 125.29 
M 250.04 140.64 250.78 142.74 252.05 148.12 
M 255.11 159.4 257.46 167.2 
M 259.03 171.48 263.62 182.78 265.76 188.88 
M 266.94 192.67 268.18 196.49 
M 276.1 87.83 274.08 91.65 
M 268.75 98.06 264.26 102.41 261.66 105.72 259.3 109.28 257.1 113.01 255.22 117.05 254.41 119.94 
M 258.77 137.54 261.97 148.99 
M 263 152.78 264.97 160.24 
M 266.4 164.41 267.27 166.64 271.08 174.51 
M 275.13 183.9 276.76 189.47 278.79 195.37 
M 291.68 76.81 288.07 84.88 
M 284.08 92.64 283 94.51 280.52 97.95 266.95 114.24 264.3 117.59 262.75 120.09 
M 269 138.66 271.4 145.2 273.46 151.41 
M 274.54 155.25 276.28 161.12 278.11 165.68 288.32 189.2 291.71 198.55 
M 295.34 89.66 291.75 94.98 287.91 100.12 
M 285.39 103.6 281.66 108.91 277.66 113.98 
M 275.09 117.75 273.83 119.8 
M 280.68 138.91 282.37 143.35 
M 285.24 151.73 286.64 157.24 287.85 161.17 289.6 165.63 294.99 177.67 
M 296.98 182.26 302.73 197.07 
M 308.06 82.74 305.88 86.47 
M 299.17 97.67 294.81 105.4 
M 292.45 109.11 291.2 110.9 285.28 117.17 284.55 118.14 
M 293.57 143.67 298.24 157.79 299.89 162.11 311.27 187.64 
M 313.36 192.77 314.19 194.98 
M 316.61 83.49 315.64 85.48 311.08 92.86 309.03 96.83 303.15 109.18 299.88 115.09 
M 297.48 118.98 296.22 120.94 
M 300.64 131.93 302.4 136.33 
M 304.04 140.62 305.76 145 
M 311.91 159.05 315.78 168.1 
M 317.23 172.1 319.7 179.55 
M 321.11 183.4 324.09 190.76 
M 323.51 94.59 319.66 99.79 316.35 105.6 
M 311.8 113.3 308.19 118.93 306.95 121.32 
M 318.03 146.45 323.85 158.61 327.68 167.4 334.72 187.48 
M 333.91 97.54 330.32 103.16 329.23 105.16 
M 324.48 112.74 320.68 118.18 318.18 122.18 
M 322.55 132.67 324.78 137.32 
M 327.44 142.4 330.31 147.66 
M 333.03 152.74 334.31 155.18 337.17 161.47 
M 338.78 165.29 341.57 172.38 
M 344.57 179.44 346.55 183.7 
M 350.45 94.44 348.13 98.34 
M 345.69 102.15 343.31 106.04 
M 341.2 110.2 338.32 116.76 335.69 120.42 330.99 124.21 
M 345.58 152.87 349.35 161.62 356.11 174.81 
M 357.49 177.67 358.07 178.85 
M 361.58 98.27 360.72 100.56 359.69 102.7 
M 357.55 106.9 354.11 113.01 349.31 120.99 346.75 124.84 345.01 126.91 
M 352.91 141.51 362.96 161.1 366.71 167.98 370.27 174.01 
M 373.69 102.82 372.51 104.82 370.35 109.05 366.63 118.18 364.16 122.17 361.19 125.68 358.31 128.7 
M 365.18 139.46 367.4 143.18 
M 369.33 146.57 379.36 163.28 
M 381.68 167.13 383.01 169.37 
M 383.8 111.41 378.13 121.84 376.89 123.85 
M 373.93 128.29 372.21 130.73 
M 378.34 139.71 384.94 148.94 395.64 164.61 
M 395.45 114.87 390.46 122.69 
M 387.74 126.44 386.29 128.23 384.18 130.4 
M 388.11 135.37 390.93 138.85 
M 396.82 145.99 406.99 158.81 
M 406.76 118.07 395.8 129.45 
M 399.87 133.83 417.47 152.59 
M 416.94 120.11 407.38 128.44 
M 414.65 134.89 426.46 145.57 
M 277.01 162.9 276.82 161.85 277.11 160.92 277.72 159.99 281.01 157.68 281.8 156.91 282.41 155.99 282.83 154.97 283.33 152.41 282.91 149.57 
M 155.51 94.04 153.68 95.61 150.15 97.33 148.88 98.43 148.23 98.6 147.01 98.3 
M 322.98 147.81 323.57 145.38 323.51 144.58 322.96 143.8 321.99 143.27 320.75 143.09 318.67 142.31 316.46 141.94 314.31 141.83 312.21 141.18 
M 184.68 95.91 183.54 96.21 182.75 96.73 182.52 97.11 182.38 98.11 182.67 99.1 183.01 99.48 183.87 99.85 185.13 99.93 
M 170.05 167.44 169.23 167.82 168.51 168.46 166.43 172.22 165 174.35 164.56 174.65 163.46 174.97 
M 323.73 89.69 322.43 88.86 321.06 88.87 317.82 88.4 
M 379.39 163.78 379.8 163.6 380.4 163.77 380.83 164.14 380.94 164.71 
M 257.92 105.69 256.76 105.63 256.37 105.79 255.56 106.56 254.78 108.06 254.03 111.25 
M 242.87 165.63 242.49 164.84 242.21 163.01 241.41 161.58 239.36 159.43 236.37 157.12 234.08 155.08 
M 315.53 163.46 315 162.97 313.34 162.3 311.89 161.99 308.13 161.65 307.05 161.02 306.24 159.87 
M 198.14 79.33 197.09 80.34 193.99 83.92 191.29 86.31 
M 240.63 143.07 239.34 140.72 239.24 140.31 239.47 139.97 240.08 139.68 240.7 139.67 241.23 139.88 
M 338.48 160.48 336.88 163.27 334.97 165.01 333.58 165.79 331.36 166.21 
M 372.71 139.56 371.48 138.8 371.08 138.32 370.89 137.37 370.97 136.46 
M 220.4 102.55 217.19 102.91 216.42 102.77 214.26 101.79 213.59 101.71 212.06 101.93 211.27 102.34 
M 226.48 198.43 226.33 198.91 
M 216.67 82.08 214.36 81.91 212.94 81.43 211.96 80.84 211.47 80.14 
M 265.83 80.24 266 79.38 265.96 78.01 265.45 76.71 264.89 76.21 262.93 75.32 261.42 74.98 259.94 74.41 257.86 74.01 
M 169.23 114.68 171.16 115.57 172.83 115.85 176.24 115.87 179.3 114.89 
M 189.29 85.82 188.11 85.15 185.57 82.86 
M 253.9 193.94 253.24 194.44 251.65 197.29 251.22 197.82 250.58 198.08 248.92 198.08 245.29 196.92 244.51 196.54 
M 425.21 123.07 424.36 123.66 423.37 125.11 419.85 128.13 
M 293.4 150.9 293.01 150.51 291.64 149.84 288.82 149.3 287 148.39 282.24 144.31 281.99 143.79 
M 319.15 142.1 316.89 141.68 313.7 141.56 311.66 141 307.1 140.63 
M 269.26 133.96 270.17 135.16 270.43 136.36 270.41 137.1 269.82 139.24 269.82 141.26 269.61 142.02 269.13 142.87 
M 192.3 190.84 190.83 189.25 190.02 188.83 187.34 189.47 184.31 189.73 
M 194.67 167.68 195.32 167.6 
M 198.9 183.63 198.09 182.99 197.28 182.63 194.11 181.76 193.47 181.75 190.85 181.98 189.88 182.23 188.34 182.97 187.63 183.64 
M 298.82 161.44 297.8 159.9 296.86 158.96 295.67 158.13 294.65 157.69 294.02 157.56 293 157.7 290.69 159.05 289.34 159.55 
M 196.21 78.53 214.32 34.64 215.31 35.02 200.19 78.7 
M 211.72 75.12 226.02 40.14 227.02 40.5 215.63 75.42 
M 227.44 72.65 239.65 46.24 240.63 46.64 231.32 73.09 
M 243.32 71.6 253.11 52.62 254.09 53.05 247.11 72.31 
M 259.2 71.38 266.27 58.61 267.24 59.03 262.96 72.09 
M 275.12 71.61 280.23 64.42 281.18 64.89 278.74 72.68 
M 290.85 74.2 294.01 71.57 294.92 72.11 294.24 75.56 
M 306.71 78.37 308.35 79.34 
M 213.76 39.5 215.68 41.69 216.71 42.59 217.83 43.29 219.03 43.75 220.33 43.97 221.7 43.99 224.59 43.63 
M 225.85 44.09 228.16 46.43 229.39 47.41 230.7 48.17 232.09 48.71 233.58 49 235.15 49.09 238.43 48.89 
M 239.67 49.39 241.92 51.79 243.12 52.79 244.41 53.6 245.8 54.17 247.28 54.51 248.85 54.64 252.13 54.52 
M 253.36 55.05 255.57 57.39 256.75 58.37 258.01 59.14 259.37 59.68 260.82 59.98 262.35 60.08 265.56 59.89 
M 266.78 60.42 269.19 62.75 270.47 63.72 271.82 64.48 273.26 65 274.78 65.29 276.38 65.37 279.72 65.14 
M 280.92 65.73 283.17 68.32 284.39 69.42 285.7 70.33 287.12 71 288.64 71.46 290.27 71.71 293.69 71.83 
M 294.84 72.52 297.1 75.17 298.95 76.76 
M 306.99 78.97 307.78 79 
M 214.7 40.64 216.71 42.59 217.83 43.29 219.03 43.75 220.33 43.97 223.13 43.85 
M 212.61 49.24 214.16 50.74 215.01 51.27 216.93 51.79 219.08 51.7 
M 210.52 57.84 211.6 58.88 212.19 59.25 213.52 59.62 215.02 59.55 
M 226.99 45.3 229.39 47.41 230.7 48.17 232.09 48.71 233.58 49 236.77 49.03 
M 225.02 55.55 226.58 56.91 228.34 57.76 229.3 57.95 231.38 57.97 
M 240.78 50.63 243.12 52.79 244.41 53.6 245.8 54.17 247.28 54.51 250.47 54.62 
M 239.5 58.41 241.03 59.82 242.77 60.71 243.73 60.93 245.81 61 
M 254.45 56.27 256.75 58.37 258.01 59.14 259.37 59.68 260.82 59.98 263.94 60.02 
M 143.55 129.46 150.15 128.99 153.16 128.52 167.3 128.31 170.37 128.84 179.64 129.29 183.08 129.99 185.76 130.97 198.92 130.29 208.66 131.68 211.76 132.86 216.54 133.92 209.69 136.09 203.85 138.66 198.5 141.81 193.41 145.42 187.17 147.49 174.58 149.8 168.8 151.55 162.44 152.21 152.94 151.97 149.03 152.91 143.6 153.38 136.69 149.14 
M 143.25 131.43 156.84 130.71 164.15 131.13 170.3 131.79 176.07 131.88 179.79 132.25 183.31 133.2 186.42 134.44 189.73 134.41 
M 144.23 133.3 150.57 133.19 153.67 132.88 157.06 133.14 167.31 134.56 
M 141.91 134.97 144.35 135.17 150.59 135.23 153.71 135.04 157.15 135.39 164.09 137.24 167.72 137.57 
M 144.31 136.88 150.55 137.3 153.7 137.27 157.16 137.77 164.29 139.82 167.3 140.48 170.34 140.66 173.3 140.39 
M 141.02 138.28 147.62 139.09 153.72 139.57 157.11 140.35 160.91 141.53 163.92 142.23 166.99 142.91 173.04 143.72 176.27 144.67 180.12 145.52 
M 140.45 139.88 144.63 140.69 150.29 141.28 157.12 143.24 166.45 145.48 169.46 146.68 173.16 147.41 176.15 148.75 
M 147.51 142.87 156.96 145.29 
M 147.76 145.07 153.22 146.51 156.73 147.92 160.71 149.81 
M 144.79 146.67 148.21 147.51 150.73 148.42 
M 137.66 145.91 141.33 147.64 148.58 150.05 151.07 151.16 
M 136.98 147.2 141.94 149.84 
M 210.26 196.06 213.72 199.77 215.59 203.48 221.07 208.89 224.9 215.68 226.37 219.25 228.54 222.44 231.3 224.9 233.9 226.71 237.06 228.01 238.42 231.34 236.58 241.55 234.79 244.13 232.78 246.5 231.54 249.58 230.1 252.4 228.45 254.95 227.28 257.83 225.47 260.06 224.91 263.61 220.26 267.89 215.81 268.94 208.4 275.35 208.47 271.87 208.01 268.85 206.27 264.82 206.65 262.51 206 259.3 206.41 255 205.7 250.64 205.85 246.6 205.21 243.65 203.76 240.62 204.28 237.66 203.61 234.09 202.53 230.58 202.84 227.72 202.62 225.26 201.31 221.46 200.89 217.65 201.22 214.52 200.94 207.13 200.2 203.81 199.28 196.98 197.99 193.19 
M 208.19 195.58 211.26 199.04 213.01 202.6 215.19 205.86 217.75 208.5 222.05 215.87 223.22 218.85 225.16 221.67 
M 206.13 195.1 209.09 198.57 210.39 201.95 212.34 205.11 216.19 212.43 218.76 219.04 221.63 224.14 
M 204.07 194.61 206.81 198.24 208.22 201.16 210.88 208.05 212.27 211.1 213.47 214.7 214.33 218.56 216.58 224 
M 202.01 194.13 204.13 197.91 205.3 201.04 206.67 204.04 206.96 207.93 207.49 211.42 208.5 214.18 209.42 217.93 211.08 221.11 212.92 223.84 214.02 227.38 213.79 231.26 214.43 235.67 215.57 239.54 217.73 242.25 218.32 245.49 218.31 249.16 222.26 255.02 224.38 259.22 225.48 262.26 
M 199.94 193.65 201.53 197.56 203.28 204.13 203.91 207.24 203.96 210.93 204.66 214.21 204.83 217.38 206.61 220.8 209.07 223.91 209.33 227.5 207.55 230.16 207.28 234.17 207.98 237.28 209.45 240.25 210.43 244.05 211.63 247.06 211.91 251.35 
M 358.88 182.51 362.71 189.43 361.88 190.1 355.92 184.91 
M 343.67 187.09 348.65 195.56 347.82 196.22 340.69 189.47 
M 328.37 191.25 336.47 204.61 335.62 205.24 325.3 193.51 
M 312.84 194.47 325.92 216.17 325.05 216.77 309.69 196.61 
M 297.67 197.16 318.21 230.25 317.33 230.84 294.5 199.28 
M 361.29 189.58 357.87 189.45 356.24 189.58 354.69 189.92 353.23 190.49 351.86 191.29 350.58 192.31 348.16 194.72 
M 347.11 195.55 343.81 196.14 342.27 196.6 340.86 197.25 339.58 198.11 338.45 199.18 337.45 200.43 335.66 203.28 
M 334.59 204.07 331.41 205.31 329.97 206.08 328.68 207 327.57 208.11 326.64 209.39 325.87 210.83 324.61 214 
M 323.51 214.75 320.71 216.76 319.49 217.87 318.45 219.09 317.64 220.45 317.04 221.93 316.62 223.53 316.15 226.94 
M 332.97 204.66 329.97 206.08 328.68 207 327.57 208.11 326.64 209.39 325.21 212.38 
M 322.07 215.73 319.49 217.87 318.45 219.09 317.64 220.45 317.04 221.93 316.35 225.21 
M 315.63 209.13 313.95 210.52 312.75 212.2 312.36 213.16 311.91 215.3 
M 430.97 122.27 434.62 121.66 437.19 120.13 439.84 118.85 442.65 116.91 445.76 115.29 449.21 112.87 451.87 110.38 454.71 109.56 457.6 107.67 461.04 107.02 463.67 104.85 467.11 104.23 468.58 102.29 470.65 100.14 473.29 98.46 475.61 97.21 480.98 92.43 484.26 91.62 488.04 89.01 490 88.44 485.13 97.53 484.81 100.8 484.06 103.64 484.19 107.46 482.19 109.86 479.02 111.08 476.79 113.25 475.04 115.98 472.47 117.9 471.43 121.31 469.79 124.11 468.58 127.07 467.92 130.53 466.36 133.29 462.92 134.35 461.61 137.17 459.4 139.45 457.52 141.97 457.69 145.51 456.22 148.25 455.74 151.25 457.06 154.2 458.79 157.04 460.5 159.28 461.84 161.44 463.65 165.06 463.69 167.46 464.51 170.91 467.57 176.46 462.46 173.95 459.24 173.16 455.13 172.85 452.52 172.36 446.44 166.82 444.13 164.33 438.39 159.71 434.67 157.39 430.97 154.09 
M 440.47 120.93 446.11 117.55 450.21 115.6 452.88 113.55 455.61 113.15 459.09 111.7 462.77 110.37 
M 430.97 125.45 435.12 125.28 438.3 124.7 441.56 123.61 444.47 121.63 447.25 120.09 450.83 118.38 453.7 116.4 464.22 113.6 466.55 112.55 
M 435.24 127.15 441.93 126.36 445.07 125.01 448.36 123.06 451.81 121.26 454.39 119.18 
M 430.97 128.63 435.33 129.07 438.82 129 442.26 128.57 445.97 127.64 453.46 124.76 
M 442.66 131.16 447.24 130.66 455.2 129.08 461.72 125.71 
M 435.56 132.51 439.61 133.13 447.27 133.41 451.62 132.65 455.19 131.79 
M 430.97 133.41 439.66 134.71 443.28 134.98 
M 440.66 136.5 447.97 136.89 
M 445.41 138.68 449.4 139.95 455.85 141.25 
M 446.1 141 449.52 142.46 453.86 143.25 
M 445.31 143.56 449.34 144.86 452.48 146.35 
M 436.43 144.16 444.35 145.94 
M 443.57 147.92 446.66 148.73 
M 435.81 147.32 442.83 150.01 445.98 150.4 450.15 152.75 454.04 154.68 
M 442.37 151.97 445.88 152.58 449.36 155.75 453.02 157.81 
M 435.58 150.38 442.17 154.36 
M 438.53 154.24 449.4 159.84 453.85 160.83 
M 438.14 156.41 441.62 158.03 448.88 161.94 453.44 163.26 456.71 166.17 
M 434.53 155.89 441.74 159.89 444.33 162.36 451.78 166.8 454.42 168.96 457.61 169.88 
M 44.26 120.5 46.47 118.94 49.12 117.67 52.46 116.97 56.71 116.39 68.64 113.64 80.76 109.76 87.71 107.87 110.36 103.23 117.36 102.04 136.65 99.18 139.64 103.48 140.47 107.46 141.58 111.49 142.95 115.57 143.79 119.56 143.91 123.42 143.41 131.01 142.01 134.61 141.02 138.28 139.73 141.9 136.06 148.95 135.25 152.65 132.81 159.9 131.02 163.44 128.45 166.83 124.41 169.89 112.36 169.16 103.63 167.95 95.93 166.25 89.02 164.33 82.62 162.31 76.49 159.71 70.82 156.64 66.02 153.22 61.74 149.44 
M 55.45 143.47 52.52 140.24 49.93 136.4 
M 118.72 120.27 118.18 123.48 114.59 129.15 112.5 131.7 108.04 136.38 107.03 140.77 107.06 145.29 106.79 147.84 105.51 150.56 97.61 150.54 91.86 150.31 86.37 149.75 81.05 148.93 75.81 147.82 70.61 145.95 65.78 143.37 
M 58.09 146.67 55.94 144.13 51.26 137.94 40.93 125.62 39.93 123.14 41.11 120.76 43.71 120.12 45.83 121.6 51.43 130.7 58.97 144.58 61.88 149.33 
M 61.18 150.13 51.83 145.49 49.65 144.17 45.01 141.76 38.3 137.77 31.16 134.11 30 131.74 31.12 129.26 33.65 128.52 35.98 129.68 56.81 145.8 61.72 149.19 
M 76.78 126.39 75.7 122.3 76.01 118.09 77.67 114.2 80.5 111.07 84.19 109.02 88.35 108.28 92.53 108.94 96.26 110.91 99.15 113.99 100.89 117.84 101.28 122.05 100.28 126.15 98.01 129.71 94.7 132.34 90.72 133.75 86.49 133.8 82.48 132.46 79.12 129.9 76.78 126.39 
M 76.62 126.03 75.78 122.97 75.65 121.38 75.98 118.22 77.07 115.24 77.88 113.88 79.98 111.5 82.61 109.71 85.59 108.61 88.74 108.29 91.89 108.74 93.39 109.26 
M 78.58 125.22 78.15 123.96 77.77 121.34 77.82 120.01 78.35 117.67 
M 81.39 113.08 83.58 111.59 84.79 111.06 87.37 110.46 90.02 110.51 92.58 111.22 
M 80.54 124.41 80.19 123.4 79.88 121.29 79.93 120.23 80.33 118.43 
M 83.29 114.28 85.52 113.05 87.59 112.57 89.72 112.61 91.77 113.17 
M 83.8 123.23 83.37 121.59 83.49 119.91 83.69 119.45 
M 85.84 116.79 86.76 116.28 88.43 115.98 90.1 116.25 91.59 117.03 92.75 118.27 93.44 119.81 93.6 121.49 93.2 123.13 92.29 124.56 90.97 125.61 89.37 126.17 87.68 126.19 86.08 125.66 84.74 124.63 83.8 123.23 
M 83.98 119.53 83.44 120.61 
M 87.23 116.2 86.52 117.63 
M 85.44 119.77 83.77 123.12 
M 88.89 116.06 87.51 118.82 
M 86.9 120.03 84.66 124.52 
M 90.33 116.37 88.58 119.85 
M 88.34 120.33 85.79 125.43 
M 91.58 117.03 87.1 125.99 
M 92.62 118.13 88.6 126.18 
M 93.41 119.73 90.36 125.82 
M 44.39 120.37 45.14 121.12 
M 46.13 122.11 48.46 124.44 
M 48.4 118.02 54.44 124.06 
M 53.55 116.82 59.44 122.71 
M 58.97 115.89 63.65 120.57 
M 64.15 114.71 68.94 119.5 
M 69.25 113.45 73.67 117.87 
M 74.12 111.97 77.27 115.12 
M 78.89 110.39 80.06 111.55 
M 83.8 108.94 83.99 109.13 
M 88.85 107.63 89.71 108.5 
M 94.13 106.56 99.94 112.37 
M 99.38 105.46 102.94 109.02 
M 104.65 104.37 108.18 107.9 
M 109.95 103.31 113.75 107.11 
M 115.37 102.38 119.97 106.98 
M 120.86 101.51 127.16 107.82 
M 126.36 100.67 130.17 104.48 
M 131.89 99.84 136.81 104.76 
M 91.93 165.14 92.58 164.62 94.14 162.72 95.27 162.37 95.64 162.44 
M 135.7 150.6 134.82 150.95 134.71 150.8 
M 125.88 147.25 126.1 149.15 126.34 149.4 127.13 149.7 128.21 149.75 129.53 149.41 130.14 148.97 130.67 148.23 
M 98.25 135.3 98.28 133.39 98.84 131.14 99.73 130.21 100.7 130.13 
M 120 118.32 118.55 119.23 113.54 120.52 110.39 121.04 108.03 121.75 107.49 122.15 106.69 123.17 
M 60.9 125.65 58.95 122.94 58.2 122.15 56.95 121.55 55.08 120.92 
M 139.01 128.53 137.9 129 136.69 129.76 135.04 131.24 134.75 131.74 134.51 132.71 134.71 134.05 135.15 134.82 
M 67.16 148.95 69.06 148.23 70.23 147.99 71.58 147.97 72.3 148.18 72.93 148.63 73.38 149.25 74 150.85 74.03 151.4 
M 111.68 136.36 112.36 136.59 113.16 136.51 114.35 136.04 115.27 135.05 
M 72.95 140.41 73.27 140.08 74.1 139.68 75.09 139.73 75.56 140.03 76.41 141.08 77.36 142.5 77.68 143.4 78.38 146.73 78.17 147.59 
M 109.05 115.5 108.12 114.88 105.79 113.89 104.47 112.88 103.74 112.83 103.05 113.27 
M 69.5 153.3 67.62 150.66 67.46 150.22 67.65 149.73 68.21 149.15 69.24 148.63 70.42 148.39 
M 127.59 127.29 127.06 128.17 127.09 128.74 128.03 130.15 128.66 131.45 
M 55.56 129.06 56.41 125.59 56.45 124.37 56.11 123.16 55.58 122.27 55.19 121.98 54.25 121.7 
M 59.06 121.14 56.78 120.32 54.71 119.94 52.93 120.06 51.7 120.53 
M 101.68 104.98 102.49 105.42 103.48 106.34 103.79 107.35 103.67 108.85 
M 142.27 124.75 139.93 125.11 138.32 125.91 137.3 126.9 135.05 129.85 
M 129.31 160.01 130.75 161.16 131.87 161.75 
M 134.3 107.08 132.87 109.74 132.5 111.08 133.35 113.57 134.82 115.51 135.3 116.72 
M 134.98 105.97 133.05 109.55 132.61 110.9 133.24 112.74 135.01 115.71 
M 98.4 162.44 97.7 163.01 96.12 163.88 95.38 163.93 95.26 163.71 95.38 163.5 
M 82.23 137.69 83.18 137.78 83.32 137.92 
M 83.85 145.54 83.46 146.42 81.43 148.46 79.65 150.53 79.01 152.89 78.34 154.05 
M 73.6 116.61 74.69 116.03 76.95 115.89 
M 64.18 151.6 64.45 151.29 
M 86.82 162.36 87.63 161.03 87.88 160.12 88.49 155.39 88.44 154.31 88.08 153.5 87.32 152.65 86.86 151.69 
M 129.77 133.79 131.38 133.97 134.22 134.76 135.24 135.23 135.84 135.84 
M 89.98 161.78 90.8 158.17 91.37 156.73 91.81 156.31 92.68 156.05 93.05 156.14 93.62 156.75 
M 119.96 145.77 119.1 143.55 119.47 141.54 119.6 138.82 120.49 135.48 120.84 134.56 121.49 133.52 
M 59.09 144.8 59.46 144.48 
M 66.72 132.5 65.91 132.05 65.15 131.92 63.46 132.18 62.92 132.75 62.44 134.16 61.91 134.87 
M 67.05 142.88 68 141.37 68.3 140.41 68.39 139.26 68.28 138 67.78 135.37 67.2 134.26 66.49 133.36 65.74 132.8 64.52 132.54 63.32 132.92 
M 104.35 127.85 104.72 129.95 104.7 131.68 103.8 133.04 103.38 133.33 
M 136.85 102.08 134.63 101.9 133.45 102.15 132.84 102.81 131.98 104.46 130.99 105.89 
M 135.71 150.55 134.82 150.93 134.71 150.81 
M 121.2 165.82 120.1 167.5 119.39 167.99 118.66 167.93 118.25 167.05 
M 64.92 118.76 64.11 118.22 63.04 117.13 61.9 115.24 
M 127.27 118.75 131.13 122.25 132.31 123.64 132.63 124.6 
M 98.11 165.76 95.99 165.46 
M 127.23 117.87 127.94 118.63 131.4 120.92 132.78 122.07 133.22 122.54 134.08 124.21 
M 140.98 121.55 139.22 121.31 137.28 120.55 136.85 120.55 136.39 120.82 
M 120.44 109.55 117.96 112.06 117.31 112.42 115.61 112.78 111.58 112.76 110.22 113.22 
M 124.16 117.12 121.46 119.24 120.19 119.92 119.04 120.31 117.12 120.59 116.43 120.9 113.32 123.38 
M 121.8 144.52 121.73 143.11 122.4 140.79 123.38 138.44 123.65 135.14 
M 43.55 140.93 46.88 143.64 51.49 146.99 56.23 150.05 61.04 152.79 66.02 155.27 76.49 159.71 
M 56.25 150.06 57.61 148.39 
M 140.67 108.19 144.25 111.77 
M 139.13 98.18 149.2 108.25 
M 145.26 95.83 153.94 104.52 
M 151.45 93.55 160.61 102.71 
M 157.74 91.37 168.75 102.38 
M 164.1 89.26 176.68 101.84 
M 170.54 87.23 177.4 94.08 
M 177.08 85.29 186.84 95.05 
M 183.68 83.42 190.15 89.88 
M 190.24 81.51 197.17 88.44 
M 196.78 79.57 205.12 87.91 
M 203.58 77.9 215.17 89.49 
M 210.46 76.3 222.1 87.95 
M 217.69 75.06 227.78 85.16 
M 225.01 73.91 237.13 86.03 
M 232.51 72.94 239.39 79.81 
M 240.53 72.48 247.32 79.28 
M 248.81 72.29 255.31 78.8 
M 257.2 72.2 266.98 81.99 
M 265.49 72.03 276.14 82.68 
M 274.09 72.16 282.48 80.54 
M 283.63 73.22 291.3 80.89 
M 294.51 75.62 301.28 82.39 
M 306.07 78.72 314.05 86.69 
M 318.24 82.41 329.98 94.15 
M 330.39 86.09 336.92 92.62 
M 342.38 89.6 354.04 101.27 
M 354.95 93.71 365.63 104.38 
M 368.64 98.92 375.74 106.02 
M 382.61 104.42 394.33 116.14 
M 396.23 109.56 405.41 118.74 
M 409.58 114.44 419 123.86 
M 422.99 119.38 430.48 126.87 
M 436.28 124.2 441.75 129.66 
M 127.42 169.3 128.61 171.69 
M 131.69 163.02 135.48 170.6 
M 133.82 159.88 139.51 171.24 
M 137.85 160.52 141.64 168.1 
M 144.49 173.78 147.16 179.14 
M 146.66 170.72 151.69 180.78 
M 148.84 167.68 149.79 169.57 
M 150.74 171.46 155.58 181.14 
M 145.33 153.23 146.29 155.15 
M 151.97 166.52 155.76 174.1 
M 156.71 175.99 157.66 177.89 
M 148.88 152.92 149.42 154 
M 158.89 172.94 159.84 174.84 
M 163.63 182.42 164.92 185 
M 165.8 179.35 169.19 186.13 
M 168.92 178.17 173.47 187.27 
M 160.67 154.26 162.57 158.05 
M 163.51 159.94 164.46 161.84 
M 172.04 176.99 176.97 186.86 
M 141.05 107.61 147.68 120.87 
M 163.32 152.14 167.58 160.66 
M 170.42 166.34 171.37 168.24 
M 172.31 170.13 174.21 173.92 
M 139.9 97.89 141.32 100.73 
M 144.16 106.42 149.85 117.78 
M 151.74 121.57 152.69 123.47 
M 153.64 125.36 155.22 128.53 
M 166.9 151.89 169.74 157.57 
M 173.53 165.15 178.27 174.62 
M 143.01 96.7 145.38 101.43 
M 149.17 109.01 150.11 110.9 
M 151.06 112.8 152.96 116.59 
M 153.9 118.48 158.88 128.43 
M 175.69 162.06 181.38 173.43 
M 188.95 188.58 190.26 191.19 
M 146.12 95.5 148.49 100.24 
M 157.96 119.18 161.75 126.76 
M 178.8 160.86 184.49 172.23 
M 192.06 187.39 194.52 192.29 
M 149.23 94.32 149.71 95.26 
M 153.81 96.06 157.6 103.64 
M 168.02 124.48 170.19 128.81 
M 190.76 169.95 191.71 171.85 
M 192.65 173.74 193.6 175.64 
M 156.97 94.97 160.76 102.55 
M 167.39 115.81 168.34 117.7 
M 172.13 125.28 174.04 129.09 
M 183.57 148.17 184.45 149.91 
M 193.92 168.86 197.71 176.44 
M 159.19 91.98 164.87 103.35 
M 168.66 110.93 173.4 120.4 
M 186.96 147.53 187.61 148.82 
M 194.24 162.08 195.18 163.98 
M 197.08 167.76 199.92 173.45 
M 209.39 192.39 210.34 194.29 
M 211.08 195.76 211.34 196.28 
M 163.3 92.8 168.04 102.27 
M 170.88 107.96 176.57 119.32 
M 195.51 157.22 197.41 161 
M 211.62 189.42 215.46 197.11 
M 165.56 89.89 166.51 91.79 
M 174.08 106.95 177.87 114.52 
M 196.82 152.42 198.71 156.21 
M 199.66 158.1 203.45 165.68 
M 210.08 178.94 214.82 188.41 
M 215.77 190.31 219.58 197.93 
M 168.29 87.94 170.66 92.68 
M 200.97 153.3 205.71 162.78 
M 212.34 176.04 221.81 194.98 
M 171.49 86.93 173.86 91.67 
M 183.33 110.61 188.07 120.09 
M 204.17 152.29 206.07 156.08 
M 207.01 157.98 207.96 159.87 
M 214.59 173.13 220.28 184.5 
M 174.71 85.96 176.13 88.8 
M 185.6 107.74 192.23 121.01 
M 194.13 124.8 195.08 126.69 
M 217.81 172.16 219.71 175.95 
M 220.65 177.84 224.44 185.42 
M 188.85 106.83 194.54 118.19 
M 195.48 120.09 196.43 121.98 
M 197.38 123.88 200.22 129.56 
M 207.8 144.72 210.64 150.4 
M 223.9 176.93 228.64 186.4 
M 186.42 94.54 190.21 102.12 
M 193.05 107.8 196.84 115.38 
M 197.78 117.28 204.41 130.54 
M 209.15 140.01 213.89 149.49 
M 219.57 160.85 224.31 170.33 
M 227.15 176.01 232.83 187.38 
M 185.88 86.05 186.82 87.94 
M 187.77 89.84 192.51 99.31 
M 201.98 118.25 204.82 123.94 
M 205.77 125.83 206.72 127.73 
M 212.4 139.1 217.14 148.57 
M 222.82 159.94 227.56 169.41 
M 230.4 175.09 235.14 184.57 
M 237.98 190.25 238.92 192.14 
M 240.82 195.93 241.77 197.83 
M 191.01 88.89 195.74 98.37 
M 228.9 164.68 229.85 166.57 
M 239.32 185.52 245.97 198.82 
M 190.92 81.31 191.39 82.25 
M 194.23 87.94 197.08 93.62 
M 198.02 95.52 198.97 97.41 
M 217.92 135.3 218.86 137.2 
M 219.81 139.09 221.71 142.88 
M 242.55 184.56 248.23 195.93 
M 194.15 80.35 195.57 83.19 
M 202.2 96.45 204.09 100.24 
M 219.25 130.56 225.88 143.82 
M 236.3 164.66 241.04 174.13 
M 245.78 183.61 251.46 194.97 
M 197.38 79.39 198.8 82.23 
M 204.48 93.6 209.22 103.08 
M 212.06 108.76 214.9 114.44 
M 222.48 129.6 228.16 140.97 
M 238.58 161.81 244.27 173.18 
M 250.9 186.44 251.85 188.33 
M 207.13 91.48 212.81 102.85 
M 213.76 104.75 220.39 118.01 
M 225.13 127.48 230.81 138.85 
M 235.55 148.32 240.28 157.79 
M 242.18 161.58 243.13 163.48 
M 244.07 165.37 245.97 169.16 
M 256.39 190 260.98 199.18 
M 209.72 89.25 215.4 100.61 
M 216.35 102.51 218.24 106.3 
M 219.19 108.19 222.03 113.88 
M 230.56 130.93 232.45 134.72 
M 237.19 144.19 243.82 157.45 
M 259.92 189.66 264.62 199.05 
M 214.2 90.8 216.09 94.59 
M 219.88 102.16 225.57 113.53 
M 231.25 124.9 235.99 134.37 
M 240.72 143.85 246.41 155.21 
M 262.51 187.42 267.25 196.89 
M 208.26 71.51 209.21 73.4 
M 210.16 75.3 211.1 77.19 
M 221.52 98.03 222.47 99.93 
M 225.31 105.61 226.26 107.5 
M 230.05 115.08 232.89 120.77 
M 233.84 122.66 239.52 134.03 
M 245.21 145.4 249 152.97 
M 249.94 154.87 252.78 160.55 
M 253.73 162.45 254.68 164.34 
M 208.95 65.48 214.64 76.85 
M 223.16 93.9 228.85 105.27 
M 229.79 107.16 236.43 120.42 
M 237.37 122.32 242.11 131.79 
M 251.58 150.74 258.21 164 
M 261.06 169.68 263.9 175.37 
M 211.54 63.24 212.49 65.14 
M 213.44 67.03 216.28 72.71 
M 222.91 85.98 223.86 87.87 
M 225.75 91.66 232.38 104.92 
M 233.33 106.82 239.01 118.18 
M 255.12 150.39 260.8 161.76 
M 262.7 165.55 263.64 167.44 
M 264.59 169.34 268.38 176.92 
M 209.87 52.48 210.34 53.42 
M 216.97 66.69 218.87 70.48 
M 223.6 79.95 226.44 85.63 
M 227.39 87.53 228.34 89.42 
M 229.29 91.32 234.97 102.68 
M 236.87 106.47 241.6 115.95 
M 258.65 150.05 263.39 159.52 
M 266.23 165.21 270.02 172.79 
M 273.81 180.36 278.55 189.84 
M 226.19 77.71 234.72 94.76 
M 235.66 96.66 236.61 98.55 
M 258.4 142.13 259.35 144.02 
M 276.4 178.13 281.13 187.6 
M 228.78 75.47 231.62 81.16 
M 232.57 83.05 234.46 86.84 
M 259.09 136.1 264.78 147.47 
M 267.62 153.15 272.35 162.63 
M 279.93 177.78 282.78 183.47 
M 219.44 49.38 224.18 58.85 
M 232.7 75.9 233.65 77.8 
M 234.6 79.69 236.49 83.48 
M 245.02 100.53 248.81 108.11 
M 257.33 125.16 259.23 128.95 
M 261.12 132.74 267.75 146 
M 271.54 153.58 275.33 161.16 
M 222.5 48.08 227.23 57.56 
M 236.71 76.5 237.65 78.4 
M 247.13 97.34 252.81 108.71 
M 259.44 121.97 264.18 131.45 
M 265.13 133.34 269.86 142.81 
M 273.65 150.39 274.6 152.29 
M 275.55 154.18 277.44 157.97 
M 296.39 195.86 297.45 197.99 
M 225.79 47.25 226.26 48.2 
M 227.21 50.09 229.1 53.88 
M 231.95 59.57 232.89 61.46 
M 235.74 67.14 240.47 76.62 
M 249.94 95.56 255.63 106.93 
M 262.26 120.19 267 129.67 
M 269.84 135.35 272.68 141.03 
M 285.94 167.56 289.73 175.14 
M 290.68 177.03 295.42 186.5 
M 299.2 194.08 300.86 197.4 
M 232.22 52.7 236.95 62.17 
M 238.85 65.96 244.53 77.33 
M 248.32 84.91 249.27 86.8 
M 254.95 98.17 257.8 103.85 
M 263.48 115.22 264.43 117.11 
M 265.37 119.01 267.27 122.8 
M 274.85 137.95 275.79 139.85 
M 276.74 141.74 277.69 143.64 
M 282.43 153.11 284.32 156.9 
M 285.27 158.8 286.21 160.69 
M 290 168.27 298.53 185.32 
M 301.37 191 304.27 196.81 
M 236.17 53.2 240.91 62.67 
M 247.54 75.93 253.23 87.3 
M 261.75 104.35 268.38 117.61 
M 275.96 132.77 280.7 142.24 
M 284.49 149.82 290.17 161.19 
M 291.12 163.08 296.8 174.45 
M 299.64 180.14 301.54 183.92 
M 305.33 191.5 307.22 195.28 
M 239.54 52.51 242.86 59.14 
M 251.38 76.2 256.12 85.67 
M 263.7 100.83 271.28 115.98 
M 278.85 131.14 284.54 142.51 
M 287.38 148.19 288.33 150.09 
M 289.27 151.98 293.06 159.56 
M 295.91 165.24 300.64 174.72 
M 253.68 73.38 258.42 82.85 
M 266.94 99.9 273.57 113.17 
M 283.99 134.01 284.94 135.9 
M 293.47 152.95 294.41 154.85 
M 259.55 77.7 260.5 79.59 
M 266.18 90.96 269.02 96.65 
M 272.81 104.22 274.7 108.01 
M 277.55 113.7 281.34 121.28 
M 282.28 123.17 283.23 125.07 
M 267.46 86.11 272.2 95.58 
M 280.72 112.64 287.35 125.9 
M 316.72 184.63 318.61 188.42 
M 259.56 62.9 260.98 65.74 
M 264.77 73.32 267.61 79 
M 270.45 84.68 276.14 96.05 
M 283.72 111.21 289.4 122.58 
M 296.03 135.84 297.93 139.63 
M 298.87 141.52 300.77 145.31 
M 308.35 160.47 312.13 168.05 
M 318.77 181.31 324.26 192.31 
M 263.43 63.22 264.85 66.06 
M 266.74 69.85 271.48 79.32 
M 273.37 83.11 274.32 85.01 
M 275.27 86.9 278.11 92.59 
M 282.85 102.06 283.8 103.95 
M 284.74 105.85 285.69 107.74 
M 286.64 109.64 287.58 111.53 
M 290.43 117.22 291.37 119.11 
M 295.16 126.69 298 132.37 
M 299.9 136.16 305.58 147.53 
M 312.21 160.79 315.06 166.48 
M 321.69 179.74 323.58 183.53 
M 324.53 185.42 327.39 191.15 
M 269.3 67.55 274.98 78.92 
M 277.83 84.6 281.61 92.18 
M 284.46 97.86 290.14 109.23 
M 296.77 122.49 301.51 131.97 
M 302.46 133.86 304.35 137.65 
M 305.3 139.54 308.14 145.23 
M 314.77 158.49 318.56 166.07 
M 325.19 179.33 328.98 186.91 
M 273.33 68.19 274.75 71.03 
M 275.7 72.93 276.64 74.82 
M 280.43 82.4 285.17 91.87 
M 287.06 95.66 293.7 108.93 
M 299.38 120.29 304.12 129.77 
M 306.01 133.56 308.85 139.24 
M 328.75 179.03 329.69 180.92 
M 330.64 182.82 331.59 184.71 
M 284.3 82.72 288.09 90.3 
M 289.98 94.09 295.67 105.45 
M 304.19 122.51 306.09 126.29 
M 310.82 135.77 314.61 143.35 
M 318.4 150.92 321.24 156.61 
M 289.43 85.56 290.37 87.46 
M 294.16 95.04 295.11 96.93 
M 296.06 98.83 297.01 100.72 
M 298.9 104.51 300.8 108.3 
M 314.06 134.82 317.85 142.4 
M 319.74 146.19 324.48 155.66 
M 293.53 86.35 297.32 93.93 
M 301.11 101.51 305.84 110.98 
M 308.68 116.66 310.58 120.45 
M 316.26 131.82 317.21 133.71 
M 318.16 135.61 320.05 139.4 
M 322.89 145.08 324.79 148.87 
M 325.74 150.77 328.58 156.45 
M 330.47 160.24 335.21 169.71 
M 342.79 184.87 343.73 186.75 
M 295.8 83.49 300.54 92.96 
M 304.33 100.54 309.07 110.01 
M 311.91 115.7 316.64 125.17 
M 327.06 146.01 330.85 153.59 
M 333.7 159.27 338.43 168.74 
M 344.12 180.11 346.95 185.78 
M 298.08 80.63 301.87 88.21 
M 302.82 90.1 303.76 92 
M 307.55 99.57 310.4 105.26 
M 314.18 112.84 315.13 114.73 
M 316.08 116.63 318.92 122.31 
M 336.92 158.31 338.81 162.1 
M 341.66 167.78 350.64 185.74 
M 302.37 81.79 303.31 83.68 
M 304.26 85.57 306.16 89.36 
M 309.94 96.94 310.89 98.84 
M 311.84 100.73 312.79 102.63 
M 317.52 112.1 321.31 119.68 
M 323.21 123.47 327 131.05 
M 335.52 148.1 340.26 157.57 
M 344.05 165.15 353.86 184.78 
M 314.24 98.12 318.98 107.6 
M 325.61 120.86 331.29 132.23 
M 336.98 143.59 343.61 156.86 
M 346.45 162.54 353.08 175.8 
M 354.03 177.7 357.08 183.81 
M 310.02 82.26 313.81 89.84 
M 317.6 97.42 322.33 106.89 
M 328.96 120.15 329.91 122.05 
M 330.86 123.94 333.7 129.63 
M 340.33 142.89 344.12 150.47 
M 345.07 152.36 346.02 154.26 
M 350.75 163.73 356.44 175.1 
M 312.98 80.78 318.19 91.2 
M 320.09 94.99 326.72 108.25 
M 344.72 144.25 345.67 146.14 
M 346.61 148.04 347.56 149.93 
M 349.46 153.72 350.4 155.62 
M 354.19 163.2 356.09 166.99 
M 361.77 178.35 362.86 180.53 
M 317.37 82.14 318.79 84.98 
M 319.74 86.88 320.69 88.77 
M 324.48 96.35 327.32 102.04 
M 330.16 107.72 333.95 115.3 
M 350.05 147.51 351 149.4 
M 351.95 151.3 354.79 156.98 
M 355.74 158.87 356.69 160.77 
M 363.32 174.03 366.66 180.72 
M 321.75 83.49 322.23 84.44 
M 331.7 103.38 337.38 114.75 
M 345.91 131.8 346.86 133.7 
M 352.54 145.07 360.12 160.22 
M 365.8 171.59 369.85 179.68 
M 335.12 102.8 339.85 112.28 
M 347.43 127.43 353.12 138.8 
M 355.01 142.59 361.64 155.85 
M 369.22 171.01 372.28 177.13 
M 330.48 86.12 330.95 87.07 
M 349.9 124.96 356.53 138.22 
M 358.43 142.01 359.37 143.9 
M 360.32 145.8 364.11 153.38 
M 371.69 168.53 372.64 170.43 
M 345.73 109.2 346.67 111.09 
M 347.62 112.98 349.52 116.77 
M 350.46 118.67 351.41 120.56 
M 353.31 124.35 358.99 135.72 
M 373.2 164.14 378.82 175.37 
M 339.64 89.62 343.43 97.19 
M 349.12 108.56 355.75 121.82 
M 358.59 127.51 359.54 129.4 
M 360.48 131.3 361.43 133.19 
M 375.64 161.61 381.33 172.98 
M 382.07 174.47 382.34 175.02 
M 343.51 89.93 346.82 96.56 
M 353.45 109.82 357.24 117.4 
M 359.14 121.19 361.03 124.98 
M 369.56 142.03 373.35 149.61 
M 379.03 160.98 384.84 172.6 
M 347.92 91.34 350.29 96.08 
M 355.97 107.44 357.87 111.23 
M 358.81 113.13 359.76 115.02 
M 361.66 118.81 366.39 128.28 
M 372.08 139.65 376.81 149.13 
M 383.44 162.39 387.23 169.97 
M 352.38 92.84 353.8 95.68 
M 364.22 116.52 368.01 124.1 
M 368.95 125.99 369.9 127.89 
M 375.59 139.26 379.37 146.84 
M 384.11 156.31 386.95 161.99 
M 387.9 163.89 388.85 165.78 
M 356.83 94.34 359.2 99.08 
M 367.73 116.13 372.46 125.6 
M 384.78 150.23 389.51 159.7 
M 392.36 165.39 393.3 167.28 
M 394.25 169.18 394.73 170.13 
M 361.42 96.1 361.89 97.05 
M 372.31 117.89 373.26 119.78 
M 377.05 127.36 378 129.26 
M 387.47 148.2 392.21 157.68 
M 396 165.25 397.78 168.82 
M 369.34 104.53 373.13 112.11 
M 376.92 119.69 381.66 129.16 
M 398.71 163.26 400.83 167.51 
M 372.06 102.55 375.85 110.12 
M 379.64 117.7 385.32 129.07 
M 395.74 149.91 396.69 151.81 
M 397.63 153.7 399.53 157.49 
M 401.42 161.28 403.88 166.2 
M 375.73 102.47 377.62 106.26 
M 378.57 108.16 379.52 110.05 
M 384.25 119.53 386.15 123.31 
M 390.88 132.79 391.83 134.68 
M 392.78 136.58 393.73 138.47 
M 397.52 146.05 403.2 157.42 
M 393.61 130.82 398.34 140.29 
M 401.19 145.98 404.98 153.56 
M 396.31 128.81 399.15 134.49 
M 400.1 136.39 401.04 138.28 
M 392.36 113.49 394.25 117.28 
M 411.3 151.39 412.25 153.28 
M 394.09 109.55 398.83 119.02 
M 412.09 145.55 416.83 155.02 
M 398.16 110.26 401.47 116.89 
M 407.16 128.26 411.89 137.73 
M 415.68 145.31 420.42 154.79 
M 402.69 111.91 405.06 116.65 
M 409.79 126.12 415.48 137.49 
M 420.21 146.96 422.11 150.75 
M 413.38 125.88 418.12 135.36 
M 427.62 154.36 428.12 155.37 
M 417.93 127.57 418.88 129.47 
M 427.97 132.82 430.81 138.5 
M 429.65 128.78 433.44 136.35 
M 437.23 143.93 440.26 149.98 
M 434.18 130.42 437.02 136.1 
M 439.87 141.78 443.23 148.51 
M 437.76 130.16 438.71 132.06 
M 442.63 139.89 443.23 141.1 
M 439.45 126.12 443.23 133.68 
"/></svg>