<svg xmlns="http://www.w3.org/2000/svg" width="520" height="320"><rect x="0" y="0" width="520" height="320" fill="floralwhite"/><rect x="10" y="10" width="500" height="300" stroke="black" stroke-width="1" fill="none"/><path stroke="black" stroke-width="1" fill="none" stroke-linecap="round" stroke-linejoin="round" d="
M 180.49 105.97 194.24 98.01 201.11 94.4 207.97 91.11 221.69 85.07 228.55 82.63 235.41 80.84 242.28 79.49 262.86 78.83 269.72 80 276.58 82.32 283.44 85.19 304.03 94.6 310.89 98.1 331.48 110.26 358.92 125.48 
M 358.92 162.7 338.34 176.68 331.48 181.16 317.75 189.15 310.89 192.51 297.17 198.76 290.31 201.05 276.58 204.86 269.72 205.81 262.86 206.45 256 206.18 242.28 206.39 235.41 205.11 228.55 203.02 221.69 200.58 214.83 197.88 207.97 195.54 201.11 192.77 194.24 189.23 187.4 185.11 
M 356.57 133.93 350.62 132.61 344.41 131.49 338.05 130.63 328.63 129.61 313.46 127.41 295.61 123.91 278.66 119.77 270.63 118.19 267.84 117.96 264.96 117.93 260.56 118.16 
M 254.75 118.7 250.47 119.05 246.05 119.69 
M 236.92 120.96 233.89 121.16 
M 225.31 121.13 222.51 121.15 
M 219.63 121.33 215.06 121.87 210.38 122.69 
M 207.29 123.3 204.2 123.94 
M 194.93 125.49 189.89 126.35 
M 189.91 178.94 191.22 180.46 
M 190.98 169.58 193.09 171.96 
M 195.82 174.99 199.59 179.38 205.05 186.3 
M 195.42 169.57 197.76 172.15 
M 200.46 175.19 202.89 178.16 
M 205.08 181.06 207.18 183.86 
M 202.35 172.37 206.08 176.96 209.24 181.33 
M 215.91 189.09 218.25 191.33 
M 220.54 193.44 221.94 194.72 
M 205.68 171.14 209.16 175.69 
M 217.93 186.79 220.31 189.18 
M 222.68 191.46 224.98 193.63 
M 210.66 171.94 211.27 172.79 
M 213.44 175.89 215.54 178.86 
M 222.43 186.9 227.2 191.67 
M 214.85 171.62 217.83 175.99 
M 224.62 184.48 227.03 187.07 
M 231.74 191.89 233.97 194.07 
M 190.54 129.25 193.7 134.93 
M 218.81 170.86 222.36 176.07 
M 224.59 179.06 229.27 184.66 
M 231.64 187.26 233.97 189.72 
M 238.36 194.12 240.36 195.99 
M 184.29 112.12 191.19 122.48 193.22 125.89 198.05 134.87 
M 224.25 172.31 228.09 177.73 231.56 182.09 
M 238.38 189.75 240.5 191.92 
M 244.27 195.48 245.95 196.91 
M 247.55 198.12 249.17 199.16 
M 183.44 104.27 193.62 119.09 195.7 122.45 202.36 134.81 
M 227.35 170.29 229.19 173 
M 231.52 176.26 233.83 179.33 
M 242.54 189.44 244.49 191.4 
M 249.6 196.03 252.95 198.29 
M 254.77 199.25 255.83 199.77 
M 186.44 102.56 195.83 115.79 198.02 119.15 202.04 126.03 206.72 134.75 
M 231.39 169.75 238.25 179.35 
M 244.56 186.71 246.5 188.73 
M 250.03 192.25 253.41 195.17 
M 189.41 100.83 197.87 112.57 202.36 119.22 206.43 125.98 211.19 134.68 
M 235.95 170.03 240.31 176.19 
M 246.6 183.76 248.54 185.87 
M 250.39 187.84 253.9 191.41 
M 255.66 193 257.46 194.45 
M 192.31 99.14 202.21 112.72 206.71 119.24 210.87 125.91 215.81 134.62 
M 239.15 168.31 239.91 169.41 
M 248.66 180.64 250.62 182.85 
M 252.51 184.96 254.35 186.99 
M 256.16 188.91 259.83 192.34 
M 195.18 97.51 203.11 108.13 
M 205.45 111.32 213.29 122.5 219.48 132.87 220.63 134.55 
M 243.06 167.58 244.16 169.13 
M 246.44 172.2 254.66 182 
M 256.57 184.21 258.46 186.3 
M 262.23 190.08 265.92 193.29 
M 269.47 195.93 271.15 197.08 
M 198.02 96.02 201.95 100.79 215.54 119.37 217.77 122.59 221.96 129.42 225.57 134.48 
M 247.56 167.63 250.56 171.51 
M 252.69 174.11 258.8 181.32 
M 262.73 185.68 264.64 187.67 
M 200.78 94.57 204.25 98.4 206.49 101.24 217.69 116.5 226.48 129.56 230.41 134.41 
M 250.55 165.61 254.63 170.84 
M 278.47 196.75 279.6 197.7 
M 203.53 93.24 206.47 96.26 208.78 98.89 211.04 101.76 220.83 115.42 
M 222.94 118.55 228.39 126.56 234.97 134.35 
M 258.76 170.23 260.99 172.79 
M 263.21 175.28 265.36 177.73 
M 271.12 184.57 272.8 186.61 
M 275.9 190.38 277.4 192.16 
M 206.23 91.94 210.96 96.73 213.27 99.39 215.47 102.26 221.88 111.4 230.17 123.74 232.63 126.77 239.24 134.29 
M 265.31 172.23 269.61 177.16 
M 273.29 181.85 274.92 184.06 
M 277.93 188.3 279.39 190.32 
M 208.91 90.71 213.04 94.71 217.63 99.86 224.08 109 232.07 120.97 234.4 123.9 239.66 129.74 243.34 134.23 
M 261.36 162.46 263.77 165.34 270.63 172.91 272.65 175.37 275.32 179.02 
M 276.93 181.41 278.44 183.77 
M 211.66 89.52 217.42 95.1 219.76 97.64 222.03 100.44 234.23 118.22 236.39 120.98 242.63 128.16 
M 245.25 131.35 247.35 134.18 
M 269.11 166.24 271.36 168.73 
M 273.48 171.15 275.42 173.61 
M 277.19 176.13 278.81 178.67 
M 214.48 88.32 219.59 93.06 221.96 95.47 224.26 98.15 226.48 101.06 236.59 115.45 240.77 120.71 245.62 126.39 248.16 129.62 251.3 134.12 
M 268.5 160.48 273.03 165.76 
M 280.58 175.88 282.16 178.53 
M 217.37 87.02 221.93 90.97 224.3 93.26 226.6 95.8 241.94 116.43 
M 244.04 118.99 249.81 126.16 253.44 131.36 
M 274.6 162.74 277.81 166.56 280.58 170.42 
M 282.28 173.07 283.94 175.78 
M 287.29 181.2 289.05 183.82 
M 220.46 85.63 224.45 88.82 226.8 90.96 229.06 93.37 231.21 96.02 241.37 109.77 246.23 115.96 
M 248.31 118.53 251.57 122.77 253.85 126.02 259.07 134.01 
M 282.33 167.64 284.04 170.31 
M 285.73 173.03 287.49 175.78 
M 289.32 178.53 291.18 181.24 
M 223.89 84.29 227.08 86.67 229.39 88.66 231.59 90.91 233.67 93.41 239.6 101.6 253.46 119.57 260.06 129.18 262.91 133.96 
M 277.34 155.59 277.92 156.35 
M 284.24 164.85 287.67 170.29 
M 289.45 173.05 293.33 178.61 
M 299.1 186.08 302.79 189.94 
M 227.48 83.01 229.74 84.61 231.98 86.45 234.11 88.54 236.1 90.88 241.78 98.69 253.52 113.83 260.81 123.9 
M 262.89 127.11 266.76 133.9 
M 281.23 155.08 284.25 159.1 
M 286.28 161.99 288.1 164.79 
M 289.82 167.56 291.57 170.33 
M 295.48 175.97 297.52 178.73 
M 231.17 81.95 234.5 84.42 236.53 86.37 238.44 88.54 243.89 95.9 251.85 105.86 260.68 117.52 
M 262.83 120.43 265.91 125.09 270.24 132.98 
M 290.27 161.95 295.66 170.47 
M 297.66 173.32 299.75 176.15 
M 234.75 81.02 236.83 82.59 238.83 84.42 240.64 86.43 245.9 93.29 253.94 102.86 259.64 110.53 265.93 118.54 268 121.58 269.86 124.71 274.07 132.74 
M 290.25 155.88 294.22 161.99 
M 301.94 173.5 306.05 178.95 
M 238.12 80.31 240.94 82.64 242.74 84.52 247.85 90.86 255.93 99.92 261.6 107.65 264.62 111.45 
M 266.77 114.03 268.92 116.77 
M 272.83 122.85 278.47 133.74 
M 289.57 149.53 293.19 154.28 294.24 155.89 
M 296.24 159.06 298.11 162.12 
M 306.2 173.62 308.27 176.36 
M 241.33 79.68 244.74 82.73 249.83 88.55 252.74 91.61 
M 254.79 93.71 257.85 97.07 259.79 99.53 265.4 107.34 271.8 115.05 274.81 119.49 
M 276.67 122.68 280.11 129.36 
M 281.88 132.78 282.36 133.68 
M 300.06 159.18 302.01 162.25 
M 304.04 165.2 306.15 168.07 
M 244.84 79.38 248.44 82.71 257.81 92.09 259.8 94.27 261.71 96.64 267.24 104.49 272.45 110.84 
M 274.59 113.46 277.68 117.78 280.53 122.61 
M 282.33 125.97 284.12 129.4 
M 285.98 132.82 286.44 133.63 
M 295.76 146.6 298.92 151.11 302.96 157.71 306.04 162.33 
M 312.42 170.77 314.49 173.48 
M 248.58 79.22 257.93 87.52 261.82 91.49 265.53 96.26 271.1 104.21 276.34 110.51 
M 278.46 113.23 281.56 117.7 286.42 125.96 
M 290.31 132.8 290.77 133.57 
M 298.4 144.17 300.92 147.84 303.98 152.87 
M 308.06 159.29 312.3 165.02 
M 320.55 175.84 322.6 178.26 
M 252.84 79.15 260.16 85.03 263.96 88.75 267.6 93.35 273.07 101.2 281.32 111.54 284.52 116.08 
M 286.63 119.25 288.7 122.53 
M 292.7 129.42 295.29 133.5 
M 314.26 161.75 316.35 164.51 
M 257.63 79.04 260.56 81.14 264.32 84.27 267.97 88.2 275.13 98.11 283.19 108.4 288.67 115.99 
M 290.83 119.21 292.9 122.57 
M 312.24 152.54 316.22 158.24 
M 318.27 161.03 322.44 166.83 
M 262.59 78.84 266.58 81.94 268.4 83.67 270.17 85.65 282.03 101.22 
M 284.09 103.88 288.43 109.67 
M 292.8 116 300.35 127.96 304.24 133.38 
M 312.5 145.99 314.38 149.01 
M 316.29 151.88 318.24 154.66 
M 268.86 79.86 270.6 81.47 274.12 85.42 285.12 99.43 291.47 108.12 298.89 119.48 
M 301.05 122.88 305.88 129.76 
M 308.33 133.12 308.47 133.32 
M 310.43 136.1 314.63 142.56 
M 316.51 145.53 318.4 148.4 
M 320.32 151.18 326.32 159.98 
M 275.06 81.81 278.19 85.31 282.72 90.81 
M 284.52 93.04 289.29 99.22 294.44 106.74 
M 296.54 109.89 300.76 116.31 
M 302.89 119.59 305.15 122.94 
M 307.58 126.32 310.07 129.66 
M 312.46 132.94 312.69 133.26 
M 313.5 134.41 314.65 136.11 
M 316.67 139.18 324.4 150.75 
M 326.37 153.69 328.38 156.73 
M 281.54 84.39 287.75 91.66 291.44 96.52 299.45 108.57 309.39 122.84 
M 311.87 126.13 316.57 132.62 
M 318.66 135.77 320.67 138.85 
M 326.6 147.71 328.58 150.66 
M 330.58 153.69 332.63 156.8 
M 288.55 87.6 291.81 91.57 293.6 94.01 303.48 108.7 315.13 124.19 318.61 129.07 
M 328.87 144.73 330.87 147.73 
M 336.94 157.07 339.01 160.23 
M 294.92 90.54 305.46 105.74 314.86 117.5 319.7 123.87 321.92 127.15 327.02 135.4 
M 333.22 144.77 335.24 147.89 
M 341.27 157.44 343.3 160.61 
M 345.35 163.77 347.13 166.48 
M 300.58 93.07 307.54 102.75 319.57 117.2 321.98 120.38 325.25 125.34 
M 327.3 128.71 339.65 148.17 
M 345.56 157.85 347.55 161.03 
M 349.57 164.19 350.62 165.84 
M 306.89 96.06 311.98 102.55 321.76 113.93 324.18 117.02 326.46 120.28 331.76 128.7 
M 333.81 132.01 337.96 138.53 
M 340.03 141.82 345.99 151.85 
M 347.91 155.1 349.84 158.3 
M 315.21 100.67 326.26 113.86 328.63 117.03 332.07 122.05 
M 334.24 125.43 336.32 128.76 
M 344.48 142.1 346.46 145.54 
M 348.39 148.96 352.22 155.57 
M 324.5 106.23 333.22 117.19 337.84 123.96 340.94 128.94 
M 344.91 135.59 352.7 149.45 
M 332.86 111.02 337.93 117.48 341.42 122.57 
M 343.55 125.91 347.46 132.59 
M 355.06 146.55 356.97 149.97 
M 340.92 115.51 345.03 121.23 348.15 126.27 
M 350.04 129.65 355.53 140.09 
M 348.38 119.68 351.65 125.03 354.38 130.17 
M 354.58 123.09 358.33 130.14 
M 185 103.38 181.97 107.91 
M 192.43 99.07 189.16 103.25 183.94 111.14 
M 201.29 94.31 197.66 97.94 195.51 100.46 191.31 106.21 188.22 111.02 
M 186.06 114.4 185.48 115.3 
M 211.35 89.66 204.23 96.04 199.81 100.63 197.62 103.33 195.58 106.23 187.15 119.3 
M 221.99 84.97 214.87 90.71 208.72 96.49 204.3 101.01 202.03 103.61 198.9 107.89 
M 194.95 114.15 192.82 117.45 
M 190.5 120.83 188.81 123.21 
M 230.47 82.13 224.34 86.8 217.23 92.92 208.87 101.51 206.57 104.05 203.32 108.16 
M 201.28 111.12 196.19 119.1 190.17 127.58 
M 237.08 80.51 229.33 86.56 221.84 93.16 217.55 97.4 215.51 99.63 207.82 108.53 
M 205.7 111.36 198.28 122.52 191.15 132.53 
M 242.58 79.48 236.47 84.4 231.61 88.59 222 97.89 217.72 102.51 213.38 107.62 211.21 110.26 208.04 114.54 
M 205.93 117.64 201.46 124.29 
M 199.05 127.77 194.15 134.76 
M 246.62 79.31 238.45 86.38 231.31 93.39 219.9 105.59 215.63 110.64 212.44 114.74 
M 210.31 117.71 208.13 120.89 
M 205.84 124.27 203.44 127.79 
M 250.39 79.18 244.38 84.57 238.11 90.89 222.08 108.68 216.84 115.02 
M 214.73 117.84 207.84 127.74 
M 253.96 79.13 248.05 84.58 244.1 88.65 239.98 93.41 230.93 104.35 223.16 112.98 
M 221.11 115.47 219.1 118.12 
M 217.01 121.02 207.47 134.74 
M 257.49 79.04 251.87 84.34 246.83 89.78 
M 244.89 92.14 234.19 105.91 
M 231.92 108.58 227.35 113.6 
M 225.23 116.06 222.28 119.91 211.92 134.67 
M 261.01 78.9 255.95 83.8 252.69 87.24 
M 250.64 89.58 247.74 93.2 242.78 100.01 
M 240.67 102.93 237.42 107.28 231.56 114.02 
M 229.32 116.58 225.36 121.8 
M 223.45 124.64 218.92 131.14 
M 195.62 169.6 193.22 173.45 192.17 174.87 
M 264.21 79.06 260.12 83.07 255.71 87.88 251.65 92.88 248.79 96.83 
M 246.84 99.63 241.66 107.02 239.42 109.92 232.38 118.18 230.32 120.86 221.25 134.54 
M 267.11 79.56 262.05 84.68 257.72 89.77 253.77 95.04 245.82 106.59 243.64 109.55 234.55 121.02 231.77 125.29 
M 199.52 177.98 197.27 180.65 
M 270.04 80.11 266.18 83.97 261.81 89.09 257.78 94.54 248.86 107.58 
M 246.7 110.53 241.08 117.87 237.94 122.36 
M 234.41 128.28 230.97 134.41 
M 272.72 81.02 268.03 85.87 263.74 91.21 259.8 96.85 254 105.63 245.41 117.41 241.33 123.6 235.58 134.34 
M 212.32 172.82 210.21 175.74 
M 206.16 181.13 204.05 183.68 
M 275.55 81.97 271.98 85.53 267.7 90.72 263.62 96.44 256.93 106.7 
M 254.89 109.63 249.64 116.95 246.63 121.63 
M 244.78 124.86 241.49 131.29 
M 218.28 170.85 216.75 172.92 
M 214.49 175.92 212.35 178.74 
M 208.29 183.93 206.23 186.37 
M 278.36 83.07 273.78 87.76 270.56 91.78 
M 268.48 94.63 265.47 99.03 259.83 107.8 251.75 119.66 248.14 126.24 244.32 134.22 
M 218.9 176 216.63 178.88 
M 281.21 84.26 277.84 87.57 273.43 92.86 269.29 98.73 260.83 111.8 
M 258.84 114.77 255.81 119.42 253.94 122.66 248.57 134.16 
M 223.43 176.07 218.88 181.69 
M 216.77 184.28 214.77 186.72 
M 284.02 85.46 279.68 89.83 277.44 92.48 273.2 98.37 259.98 119.08 258.02 122.43 255.45 127.73 
M 253.89 131.35 252.69 134.1 
M 225.74 179.1 223.45 181.81 
M 286.71 86.73 281.52 92.08 279.29 94.83 277.16 97.8 269.62 109.7 263.19 120.4 
M 259.41 127.48 256.59 134.05 
M 236.43 169.69 234.61 172.99 
M 221.61 189.21 219.56 191.36 
M 289.37 87.98 285.64 91.77 283.37 94.35 281.18 97.18 277.12 103.41 270.97 113.7 
M 269.2 116.75 264.3 125.25 261.54 130.8 
M 241.75 167.63 238.98 172.97 
M 237.02 176.31 234.94 179.35 
M 228.32 187.12 225.08 190.49 221.9 193.49 
M 292.04 89.22 287.51 94.04 285.28 96.71 283.15 99.64 281.13 102.77 266.2 128.43 263.47 133.95 
M 235.07 184.82 230.74 189.6 
M 226.36 193.7 224.67 195.1 
M 294.73 90.45 289.44 96.5 286.26 100.78 
M 284.24 103.85 281.37 108.56 274.2 121.13 267.93 131.58 266.73 133.9 
M 250.95 165.41 249.26 168.6 
M 247.4 172.09 245.5 175.55 
M 241.5 181.96 237.37 187.37 
M 297.53 91.72 291.42 99.25 287.39 105.11 278.03 120.99 270.17 133.86 
M 255.28 164.45 247.64 178.09 
M 243.63 184.33 241.63 187.14 
M 300.45 93.01 295.44 99.49 291.53 105.09 279.87 124.27 273.88 133.8 
M 259.47 163.86 259.34 164.1 
M 257.43 167.47 255.56 170.71 
M 253.65 173.94 251.7 177.19 
M 303.46 94.34 295.55 105.32 285.96 120.89 277.75 133.75 
M 265.22 160.72 263.46 163.89 
M 261.63 167 257.76 173.26 
M 245.65 191.17 243.67 193.64 
M 306.44 95.83 301.45 102.8 297.66 108.45 290.17 120.84 281.78 133.69 
M 269.34 160.33 267.62 163.56 
M 265.87 166.59 264 169.61 
M 259.96 175.74 257.86 178.81 
M 251.52 187.58 249.46 190.31 
M 247.45 192.87 245.46 195.25 
M 309.47 97.38 305.55 102.82 301.65 108.67 292.23 124.24 285.96 133.63 
M 273.16 159.98 270.82 164.67 269.15 167.64 266.33 172.11 
M 264.28 175.14 262.14 178.17 
M 257.72 184.02 253.33 189.44 
M 312.51 99.07 309.86 102.65 305.75 108.68 301.97 114.75 296.39 124.38 294.3 127.74 290.84 132.81 
M 278.69 156.3 277.02 159.54 
M 275.41 162.65 273.08 167.14 270.5 171.57 
M 268.57 174.57 264.26 180.53 
M 315.57 100.88 312.2 105.46 308.04 111.6 304.16 117.96 298.65 127.9 294.98 133.51 
M 284.52 152.61 281.92 157.69 277.6 165.22 
M 276 168.11 274.37 171.03 
M 270.66 177.01 267.45 181.41 265.15 184.19 259.27 190.5 
M 318.66 102.72 312.53 111.38 308.37 117.87 306.41 121.24 302.03 129.71 
M 300.05 133.04 299.8 133.44 
M 290.15 149.35 288.61 152.67 
M 286.93 155.93 280.44 166.37 275.46 174.97 272.58 179.4 
M 265.9 187.51 263.54 189.9 
M 321.78 104.59 315.05 114.3 310.77 121.07 304.44 133.37 
M 295.86 146.49 292.73 152.64 
M 291.03 155.87 289.15 158.99 
M 285.11 164.82 282.27 168.99 279.76 173.18 
M 276.27 178.9 274.33 181.7 
M 272.25 184.41 268.92 188.21 265.42 191.59 
M 324.91 106.47 319.76 114.02 315.38 120.78 313.3 124.32 308.74 133.31 
M 303.36 141.96 302.71 142.9 
M 300.53 146.16 297.61 151.08 294.11 157.48 291.11 161.94 
M 283.13 173.05 281.43 175.84 
M 277.88 181.32 275.95 183.94 
M 271.77 188.85 269.55 191.07 
M 267.27 193.12 264.96 195 
M 328.07 108.29 317.86 124 315.78 127.58 312.81 133.26 
M 311.79 135.21 308.17 141.3 301.67 151.18 296.05 160.58 294 163.44 290.72 167.57 
M 288.59 170.29 284.82 175.78 
M 281.26 181.17 279.41 183.72 
M 277.48 186.13 273.41 190.59 
M 271.28 192.63 269.08 194.5 
M 331.3 110.16 320.19 127.26 316.77 133.2 
M 316.63 133.46 313.25 139.46 
M 311.21 142.84 304.74 152.87 
M 302.73 156.1 299.88 160.71 297.91 163.58 291.44 171.7 288.46 175.79 
M 286.56 178.51 284.67 181.16 
M 282.79 183.7 280.89 186.07 
M 278.97 188.28 277.01 190.32 
M 268.63 197.36 266.41 198.82 
M 334.7 112.04 322.32 130.53 313.15 145.95 
M 311.01 149.42 304.77 159.29 
M 302.82 162.27 299.84 166.49 296.63 170.51 
M 294.49 173.18 290.37 178.55 
M 274.57 195.41 272.5 196.93 
M 338.24 114 327.8 128.71 
M 325.51 132.11 318.19 143.78 307.89 160.86 303.94 166.63 298.71 173.37 
M 294.44 178.65 288.07 186.27 
M 341.81 116.01 339.52 119.21 
M 337.16 122.3 331.06 130.38 326.48 137.05 320.12 146.64 314.98 155.32 
M 312.99 158.83 310.07 163.74 307.1 168.07 
M 303 173.54 300.86 176.2 
M 298.66 178.79 296.44 181.33 
M 294.24 183.85 292.06 186.29 
M 287.77 190.67 283.65 194.12 
M 345.4 118.03 335.59 130.39 324.21 146.29 320.01 152.77 314.15 163.3 311.25 167.97 
M 307.24 173.63 304.06 177.65 296.17 186.21 
M 285.4 195.77 283.67 196.85 
M 348.87 119.95 337.67 133.66 331.84 141.68 
M 329.56 144.72 324.08 152.26 322.02 155.56 319.11 160.85 
M 317.22 164.34 315.33 167.63 
M 313.39 170.7 310.39 175 308.29 177.71 304.93 181.42 
M 302.63 183.77 300.35 186.06 
M 352.27 121.82 346.07 129.27 
M 343.49 132.27 339.78 136.94 333.93 144.76 
M 331.62 147.73 327.16 153.68 
M 325.09 156.86 319.35 167.17 
M 309.13 181.42 304.54 185.95 
M 300.04 190.2 296.51 193.44 
M 355.56 123.63 344.28 137.16 330.29 155.19 328.17 158.3 323.35 166.72 
M 306.46 188.01 304.22 189.99 
M 358.82 125.43 352.39 133.13 
M 349.94 136.08 334.59 155.39 332.39 158.33 329.33 163.09 
M 327.38 166.38 324.51 171.27 321.58 175.75 
M 358.92 131.02 353.05 138.1 347.16 145.61 
M 344.79 148.59 336.69 158.56 333.52 163.04 
M 331.5 166.16 327.54 172.43 
M 358.92 136.69 346.77 151.93 
M 344.43 154.75 341.01 158.91 336.73 164.62 326.16 179.97 
M 358.92 142.57 352.26 150.99 345.28 159.31 342.04 163.46 
M 339.94 166.26 337.87 169.1 
M 335.8 171.96 332.3 176.78 
M 358.92 148.52 355.38 152.9 
M 353.04 155.66 348.45 161.12 
M 346.28 163.86 342.1 169.3 
M 358.92 154.25 352.69 161.57 
M 350.5 164.29 348.67 166.62 
M 358.92 159.63 357.42 161.4 
M 242.28 79.49 243.59 77.76 245.43 74.02 246.28 71.61 247.3 69.65 248.05 67.79 249.09 62.87 249.4 60.13 250.13 57.62 251.49 55.38 252.41 54.49 254.06 53.54 255.42 50.94 256.76 48.9 260.89 45.95 263.05 44.16 265.96 41.13 268.51 39.17 271.61 38.46 273.01 36.52 276.36 34.71 277.18 32.86 280.99 30 279.75 33.91 279.46 35.71 280.05 38.39 281.62 42.09 281.97 44.82 281.54 47.01 280.22 48.46 280.33 50.44 280.61 52.2 282.09 54.2 286.87 59.79 287.6 61.41 291.39 71.44 291.15 73.5 291.28 76.02 293.8 80.88 294.98 83.53 295.32 86.75 296.05 88.8 297.41 91.67 
M 297.17 91.56 297.17 91.56 
M 246.08 79.33 247.41 77.79 248.2 76.13 250.13 69.06 250.9 64.42 251.97 62.29 252.67 59.54 253.45 57.36 256.36 54.81 257.82 52.06 259.29 50.44 
M 249.89 79.19 251.11 77.87 252.95 70.88 253.88 66.69 254.78 64.43 255.45 62 256.8 59.95 257.47 58.56 259.48 56.4 263.21 50.18 265.13 48.8 
M 253.7 79.13 254.9 77.42 256.33 73.25 257.05 69.04 258.16 67.47 259.04 65.24 260.34 63.11 260.61 60.98 262.12 59.21 265.14 54.63 265.73 52.46 267.57 50.94 
M 257.5 79.04 258.54 77.3 260.14 71.18 260.89 69.88 261.68 67.96 263.2 65.47 264.18 63.37 
M 261.31 78.89 262.33 77.01 262.91 74.85 263.77 73.31 264.55 71.45 265.02 69.33 265.94 67.36 269.29 63.69 272.11 59.08 273.61 57.36 275.42 56.35 
M 265.11 79.22 266.54 77.64 267.39 75.41 268.68 73.56 269.24 71.69 271.57 69.08 273.29 66.41 275.72 63.93 
M 268.86 79.86 270.83 78.44 272.05 76.37 273.05 74.23 274.52 72.11 278.15 68.86 280.76 67.47 282.36 66.25 
M 272.51 80.95 274.74 79.5 275.59 77.08 277.06 74.23 278.62 72.76 280.19 71.73 282.8 71.49 285.29 70.92 287.52 69.58 
M 276.12 82.17 277.99 81.07 281.59 74.52 
M 279.65 83.6 281.53 82.54 282.77 80.44 284.57 78.4 286.84 76.94 289.11 76.02 
M 283.16 85.07 284.65 84.09 286.44 82.6 288.67 81.27 291.32 80.12 
M 286.61 86.68 288.28 86.31 
M 290.06 88.31 292.67 88.75 
M 293.52 89.89 293.52 89.9 
M 191.33 133.61 332.44 132.07 332.45 132.83 191.74 136.26 
M 191.83 136.92 319.74 140.89 319.72 141.65 192.01 139.57 
M 191.98 140.25 306.84 148.66 306.79 149.42 191.87 142.88 
M 191.89 143.56 293.8 155.37 293.72 156.13 191.96 146.2 
M 191.98 146.89 280.68 161.02 280.57 161.77 191.91 149.52 
M 191.89 150.2 267.56 165.61 267.41 166.35 191.68 152.79 
M 191.6 153.46 254.49 169.14 254.32 169.88 191.3 156.03 
M 191.22 156.67 241.54 171.62 241.34 172.35 190.91 159.22 
M 190.88 159.87 228.78 173.06 228.55 173.78 191.03 162.54 
M 191.07 163.28 216.27 173.48 216.01 174.19 191.05 165.81 
M 191.02 166.67 204.07 172.9 203.78 173.6 190.98 168.98 
M 190.98 169.38 192.25 170.19 191.93 170.88 190.99 170.59 
M 317.75 133.19 314.69 133.98 311.86 135.16 309.42 136.93 306.31 140.47 
M 306.29 141.43 303.25 141.98 300.42 142.94 297.94 144.5 294.71 147.77 
M 294.64 148.73 290.2 149.33 287.53 150.36 285.16 152.03 282.97 154.12 
M 282.87 155.07 279.93 155.14 277.14 155.64 274.61 156.79 271.18 159.51 
M 271.03 160.46 268.16 160.29 265.42 160.57 262.88 161.51 259.37 163.94 
M 259.19 164.88 255.05 164.44 252.44 164.83 249.98 165.9 247.61 167.42 
M 247.4 168.36 244.72 167.74 242.11 167.58 239.59 168.12 235.97 169.96 
M 235.71 170.88 233.16 170.06 230.63 169.69 228.15 170.02 224.49 171.56 
M 224.19 172.48 221.78 171.45 219.36 170.88 216.92 171.01 213.24 172.25 
M 212.9 173.15 210.64 171.93 208.33 171.16 205.95 171.09 202.26 172.03 
M 201.89 172.92 199.9 171.29 197.77 170.09 195.43 169.57 191.62 169.79 
M 316.2 133.56 313.23 134.5 311.86 135.16 309.42 136.93 307.31 139.23 
M 297.89 133.98 295.34 134.79 294.16 135.36 292.06 136.88 290.24 138.85 
M 279.59 134.4 277.45 135.08 276.46 135.56 274.7 136.83 273.18 138.48 
M 261.28 134.82 259.55 135.37 258.02 136.22 256.12 138.11 
M 242.97 135.24 241.66 135.66 240.5 136.31 239.05 137.74 
M 304.75 141.68 301.8 142.39 300.42 142.94 297.94 144.5 295.74 146.61 
M 283.87 141.32 281.43 141.9 280.3 142.35 278.25 143.65 276.44 145.39 
M 262.99 140.96 260.17 141.77 258.56 142.79 257.13 144.16 
M 242.11 140.6 240.05 141.19 238.87 141.94 237.83 142.94 
M 293.13 148.86 290.2 149.33 288.83 149.76 286.31 151.12 284.05 153.05 
M 274.28 147.77 271.87 148.16 270.73 148.52 268.66 149.64 266.79 151.23 
M 255.43 146.69 253.53 147 251.8 147.67 249.53 149.41 
M 236.59 145.61 234.54 146.04 233.35 146.68 232.27 147.6 
M 281.39 155.08 278.51 155.32 277.14 155.64 274.61 156.79 272.29 158.53 
M 259 152.89 256.79 153.08 255.74 153.32 253.8 154.21 252.02 155.54 
M 236.61 150.71 235.07 150.83 233.65 151.27 231.75 152.55 
M 269.59 160.34 266.77 160.35 265.42 160.57 262.88 161.51 260.52 163.05 
M 249.95 157.64 247.79 157.65 246.76 157.81 244.81 158.54 243 159.72 
M 230.31 154.94 228.09 155.06 226.73 155.56 225.47 156.38 
M 257.79 164.66 255.05 164.44 252.44 164.83 251.19 165.29 248.79 166.63 
M 232.46 160.16 229.82 160.09 228.17 160.57 226.61 161.44 
M 246.05 168.02 243.4 167.58 242.11 167.58 239.59 168.12 237.17 169.27 
M 224.83 163.41 222.27 163.13 220.64 163.48 219.06 164.22 
M 234.43 170.44 231.89 169.79 230.63 169.69 228.15 170.02 225.71 170.97 
M 222.99 171.93 220.57 171.08 219.36 170.88 216.92 171.01 214.46 171.75 
M 207.97 195.54 211.2 200.85 212.23 203.61 214.54 207.94 215.98 209.43 216.99 211.34 218.55 215.83 220.02 217.18 221.71 220.03 223.36 222.12 224.1 224.61 225.63 228.01 228.2 230.49 230.14 233.07 230.79 234.77 232.56 237.59 229.67 245.64 228.5 247.63 228.05 250.35 225.93 254.56 224.57 256.35 223.02 257.95 221.33 259.4 219.94 261.15 219.31 263.68 218.24 265.76 216.59 267.33 215.27 269.25 212.85 270.05 210.13 270.57 208.93 271.38 201.32 280 201.27 277.64 200.5 273.12 200.84 271.59 201.44 270.22 201.19 267.98 202.17 262.14 202.41 259.29 203.02 257.21 202.5 255.23 202.62 252.83 202.02 246.8 202.38 245.21 201.34 243.01 202.12 235.24 201.69 233.6 202.3 228.08 202.33 226.1 201.57 224.13 201.29 221.65 201.91 217.49 201.96 213.24 201.87 205.47 201.57 203.12 201.47 195.69 201.11 192.77 
M 206.56 194.97 210.28 202.83 211.67 207.61 214.33 211.55 216.6 216 216.85 218.16 218.34 220.16 
M 205.14 194.4 207.32 199.9 207.85 202.11 210.18 209.81 211.25 211.65 212.86 213.77 213.98 217.89 214.75 219.96 215.94 221.84 216.15 225.19 216.77 228.27 217 231.31 217.53 233.49 218.12 235.12 219.68 237.67 220.66 240.4 220.61 241.45 221.41 243.51 221.67 245.51 
M 203.73 193.83 204.69 196.74 205.29 199.23 205.65 201.78 206.4 204.11 206.8 206.44 207.99 211.4 211.41 222.23 212.97 227.84 213.92 233.24 214.59 234.7 214.75 237.73 215.2 239.79 214.66 241.97 215.26 243.73 215.63 246.02 215.74 248.62 216.61 251.46 217.11 258.34 218.2 262.39 
M 202.32 193.26 203.07 196.1 203.42 198.48 203.41 201.16 203.99 205.56 204.81 207.82 205.29 215.52 205.81 218.11 205.83 220.02 205.51 221.98 206.51 224.7 207.34 229.11 207.1 231.41 207.07 234.33 206.6 236.35 207.58 243.15 207.38 245.08 208.41 248.1 209.02 251 210.65 254.12 210.69 256.34 209.38 258.31 
M 324.61 185.26 330.41 191.56 332.6 193.25 334.83 199.08 333.11 203.25 330.24 206.77 329.08 208.83 327.43 210.4 325.76 211.59 323.19 211.43 321.1 212.11 319.42 213.33 318.53 215.62 316.62 216.86 314.49 217.89 312.85 219.4 310.93 219.99 308.49 219.8 300.87 217.31 298.48 216.9 291.69 216.4 289.04 216.45 281.3 211.33 279.85 208.6 276.58 204.86 
M 321.3 187.14 324.09 189.85 326.74 191.21 328.74 193.48 
M 317.99 189.02 320.58 191.94 326.95 197.1 329.45 198.48 331.24 200.59 
M 314.57 190.71 317.74 193.85 324.35 199.21 325.78 200.21 328.47 201.17 
M 311.15 192.39 321.5 201.1 322.96 202.97 
M 307.69 193.98 313.04 198.72 317.93 202.47 319.7 205.1 320.51 206.87 
M 304.23 195.56 306.71 198.38 309.39 200.09 311.77 202.05 314.48 203.77 316.47 205.97 
M 300.76 197.13 305.29 201.84 307.69 203.72 
M 297.29 198.7 300.08 201.09 301.84 203.39 303.95 204.53 305.55 206.6 308.07 209.39 
M 293.68 199.92 296.34 202.87 297.88 204.97 301.47 208.42 
M 290.06 201.12 292.62 204.38 294.7 206.52 298.25 210.93 
M 286.41 202.19 289.12 205.84 291.31 208.21 292.92 210.44 295.43 211.87 297.54 214.24 
M 282.75 203.24 287.39 209.58 289.54 212.2 
M 279.06 204.21 284.05 210.49 
M 358.92 125.48 361.32 124.91 365.85 122.61 367.93 120.91 369.93 120.02 371.85 118.41 375.48 116.88 377.18 115.62 378.98 114.56 381.51 113.92 382.99 113.32 385.88 110.9 388.89 109.28 391.73 108.26 393.46 105.48 397.56 104.85 402.37 100.46 404.92 100.23 407.11 99.04 408.21 98.22 408.49 97.77 416.77 96.2 425.85 102.39 428.61 108.55 428.41 110.81 427.29 112.78 425.9 114.49 425.25 116.94 424.59 121.87 423.22 125.91 421.45 127.34 419.29 128.41 418.08 130.44 416.17 131.76 414.85 133.68 413.8 135.84 409.03 140.69 407.8 142.36 408.01 145.12 407.94 147.59 409.58 150.84 410.79 153.99 411.42 155.06 414.76 159.27 415.94 161.18 418.67 166.42 423.62 173.99 424.83 176.09 425.38 177.96 425.48 182.23 425.27 184.22 424.33 186.2 423.23 188.03 421.61 189.62 420.4 191.63 419.38 193.82 417.37 194.67 409.85 199.66 404.72 195.34 401.7 193.97 399.52 192.24 398.39 190.38 397.89 189.09 396.05 188.33 394.82 188.13 392.64 187.09 391.16 185.59 389.52 184.42 386.4 183.2 383.39 181.62 381.05 179.23 378.56 177.63 377.67 176 376.32 174.6 374.31 173.85 369.59 171.21 365.98 167.37 361.51 164.69 358.92 162.7 
M 358.92 127.76 361.34 127.55 363.35 126.47 365.9 125.37 368.27 123.72 370.35 123 372.42 121.88 374.62 120.99 376.59 120.3 378.9 119.75 380.86 118.86 385.1 116.11 386.51 114.65 388.2 113.55 392.68 111.09 
M 365.97 128.61 370.4 126.45 372.47 125.61 374.8 124.23 377.26 123.44 382.25 122.41 383.69 121.5 385.73 120.79 387.67 119.49 392.24 116.9 397.12 115.63 398.67 114.53 400.82 113.37 402.85 113.19 407.02 111.6 409.44 111.21 
M 358.92 132.32 361.61 132.39 366.17 131.29 368.35 130.66 370.71 129.67 372.78 129.12 377.85 127.33 380.44 126.84 387 125.1 389.11 124.15 390.89 122.26 396.98 119.46 399.15 118.91 403.84 118.55 405.79 117.69 407.58 116.43 410.1 115.39 411.94 114.92 416.15 112.4 421.13 110.74 
M 364.09 134.06 368.99 133.29 373.17 132.34 375.65 132.04 379.83 130.34 382.47 129.68 384.96 128.65 386.72 128.79 389.14 128.13 393.96 125.91 396.26 124.44 398.56 124.91 401.1 124.39 403.97 124.35 406.17 123.46 
M 364.17 136.6 366.75 136.36 371.43 135.37 376.5 135.01 378.39 134.54 383.3 133.99 389.63 132.6 391.95 131.51 394.93 130.84 397.09 129.81 405 128.36 406.77 128.91 413.55 129 
M 361.79 139.17 364.14 138.95 369.37 138.96 371.41 138.33 376.04 137.92 379.13 137.84 381.68 137.53 386.24 138.43 388.27 138.66 393.97 137.49 396.73 137.23 401.68 135.24 404.41 135.88 406.56 135.81 
M 367.3 142.09 371.02 142.52 373.89 142.45 377.22 142.14 379.72 142.4 384.06 141.62 386.89 142.06 388.84 142.61 391.43 142.22 394.31 142.46 397.33 143.16 399.71 142.51 404.47 142.31 406.2 142.51 
M 367.03 145.05 370.82 145.96 377.35 145.91 382.65 146.29 384.96 145.75 390.66 145.52 
M 367.35 148.03 371.69 149.13 373.89 149.1 376.55 148.84 379.68 148.95 382.36 149.41 383.95 150.58 386.71 150.94 389.56 150.67 393.28 152.16 398.02 152.85 406.38 152.16 409.24 152.73 
M 366.76 150.56 374.38 152.54 379.14 152.55 385.99 154.15 387.51 154.91 390.59 155.08 392.59 155.71 395.39 157.42 397.9 157.3 400.74 157.46 
M 361.49 151.78 363.61 152.69 366.18 153.09 371.35 155.01 374.14 155.57 376.43 155.64 378.94 156.53 381.11 156.88 382.73 158.01 384.97 158.78 387.66 159.11 390.32 159.78 
M 358.92 152.85 361.54 154.13 366.54 155.77 371.59 158.06 376.09 159.19 377.61 159.83 379.68 160.07 382.28 161.24 385.03 162.24 387.26 163.49 389.58 164.16 394.01 166.43 396.57 167.22 401.47 166.89 403.79 167.09 406.38 168.33 408.66 170.28 411.54 171.97 413.32 172.67 415.15 173.03 416.37 173.64 419.17 174.47 
M 366.38 158.7 368.66 160.1 373.48 162.27 375.6 162.53 377.64 163.27 380.14 163.81 382.25 164.48 386.13 166.93 388.36 167.96 389.88 169.22 392.22 170.66 394.63 171.77 399.26 173.03 402.32 172.52 404.7 173.65 406.62 175.03 408.72 175.53 410.98 177.21 412.99 177.8 414.67 178.67 418.43 181.89 421.17 182.38 
M 366.2 161.56 368.5 163.08 370.35 164.71 372.29 165.98 374.92 166.31 380.26 167.84 382.51 168.64 385.43 171.19 389.8 173.62 391.9 174.62 
M 366.3 164.66 368.47 166.01 371.14 169.21 373.87 170.42 376.2 170.63 378.81 171.23 380.51 172.36 382.28 174.32 387.22 176.76 391.7 180.05 396.3 181.98 400.15 184.35 401.5 185.66 402.85 187.72 407.29 189.14 408.39 190.67 409.69 191.71 412.2 192.44 
M 343.89 170.67 342.49 171.39 341.35 172.37 340.5 173.65 339.36 176.38 338.01 177.12 335.18 177.16 333.69 177.56 331.16 179.25 330.05 179.74 331.48 181.16 
M 105.16 145.55 105.83 144.1 107.28 141.75 109.27 139.05 111.99 136.45 115.64 134.02 120.15 131.71 124.5 129.02 128.93 125.73 134.19 122.57 146.59 117.03 152.64 114.69 158.75 112.51 174.8 107.47 178.41 106.49 180.49 106 183.5 109.89 184.94 113.96 188.4 122.06 189.84 126.13 190.76 130.24 192.06 138.53 191.87 142.74 191.98 146.93 191.87 151.13 190.86 159.62 191.1 163.79 190.99 172.2 190.52 176.43 189.48 180.72 187.4 185.05 175.46 184.46 166.68 183.38 151.75 180.04 144.94 177.87 132.87 173.05 127.6 170.76 122.25 167.62 
M 119.71 166.01 114.78 162.49 111.8 159.59 108.41 154.94 
M 168.9 131.7 169.2 135.25 167.72 142.01 166.66 145.05 165.38 147.9 164.39 150.57 164.58 155.48 166.76 163.51 166.9 167 153.12 166.86 142.22 165.72 136.66 164.5 131.31 162.8 126.41 160.82 
M 119.84 166.14 111.3 157.56 107 153.59 103.12 149.52 102.23 147.76 102.98 145.93 104.81 145.34 106.41 146.29 109.63 150.88 115.62 158.5 122.4 167.47 
M 121.19 167.81 115.11 165.58 106.3 161.96 100.9 159.69 93.95 156.45 92.4 155.57 91.38 153.89 91.9 152.06 93.63 151.47 95.45 152.27 107.2 159.14 118.62 165.52 121.78 167.13 
M 122.02 167.25 122.28 167.38 
M 135.17 147.97 132.45 144.16 131.12 139.68 131.31 135 133.01 130.65 136.04 127.08 140.05 124.68 144.63 123.72 149.27 124.3 153.47 126.36 156.78 129.66 158.84 133.86 159.41 138.51 158.45 143.08 156.06 147.1 152.49 150.12 148.13 151.82 143.46 152.02 138.98 150.68 135.17 147.97 
M 154.47 131.31 156.11 134.68 156.58 138.39 155.81 142.05 153.89 145.26 151.04 147.68 147.55 149.04 143.81 149.2 140.23 148.13 137.18 145.96 
M 140.63 141.37 139.54 139.84 139.01 138.05 139.08 136.18 139.76 134.44 140.97 133.01 142.58 132.05 144.41 131.67 146.27 131.9 147.95 132.72 149.27 134.04 150.09 135.73 150.33 137.58 149.94 139.41 148.98 141.02 147.56 142.23 145.81 142.91 143.94 142.99 142.15 142.45 140.63 141.37 
M 139.44 139.3 142.77 142.64 
M 140.44 138.25 145.13 142.94 
M 142.71 138.46 146.78 142.53 
M 144.19 137.89 148.09 141.78 
M 143.9 135.54 149.13 140.77 
M 144.33 133.92 149.9 139.48 
M 145.47 132.99 150.28 137.8 
M 147.91 133.38 149.94 135.4 
M 105.56 144.69 110.01 149.14 
M 107.25 141.8 110.98 145.54 
M 109.18 139.17 112.48 142.47 
M 111.5 136.92 115.63 141.04 
M 114.16 135 118.58 139.42 
M 117.03 133.31 119.7 135.98 
M 120.06 131.76 124.02 135.73 
M 122.89 130.02 126.92 134.06 
M 125.62 128.19 128.99 131.55 
M 128.25 126.24 132.08 130.07 
M 131.04 124.46 133.95 127.37 
M 133.9 122.75 137.39 126.24 
M 137.02 121.29 140.34 124.62 
M 140.16 119.87 142.97 122.67 
M 143.33 118.47 145.88 121.02 
M 146.5 117.07 149.76 120.33 
M 149.79 115.79 153.11 119.1 
M 153.1 114.53 156.57 117.99 
M 156.47 113.32 160.16 117.01 
M 159.89 112.17 162.37 114.65 
M 163.4 111.11 167.46 115.17 
M 166.88 110.02 169.4 112.54 
M 170.34 108.91 174.79 113.36 
M 173.8 107.8 176.3 110.29 
M 177.35 106.78 180.18 109.61 
M 163.68 144.37 166.5 143.08 167.86 143.07 168.17 142.92 
M 154.11 149 153.89 148.94 
M 147.66 151.84 145.65 154.64 
M 181.09 178.24 179.9 177.59 178.49 177.44 177.61 176.59 
M 116.57 158.55 115.59 157.31 115.36 156.53 116.34 154.36 
M 151.13 173.82 150.39 173.8 148.46 175.24 144.24 177.42 
M 120.04 161.95 119.84 160.92 119.43 159.97 117.7 158.53 116.16 156.6 116.04 156.01 116.3 154.61 
M 145.06 151.95 144.83 154.23 143.9 155.95 
M 133.07 145.02 132.57 144.87 131.69 144.13 131.07 143.28 130.97 142.58 
M 168.3 138.31 167.4 139.41 167.18 140.45 167.45 141.72 168.11 142.61 
M 111.97 138.98 111.6 136.82 
M 174.98 149.95 171.05 150.69 170.47 150.97 169.09 152.1 167.75 152.68 
M 170 137.76 168.27 138.85 167.37 139.94 167.23 140.63 167.31 141.27 167.92 142.33 
M 171.7 162.9 170 162.37 167.88 162.62 167.61 162.42 167.75 162.17 
M 181.01 110.8 179.19 110.31 177.06 109.16 176.27 108.42 175.7 107.23 
M 170.64 116.82 169.97 116.62 168.92 115.88 167.88 115.41 167.69 115.15 
M 132.83 171.23 134.38 169.62 135.61 169.02 137.18 168.62 138.39 168.82 
M 120.99 144.97 121.07 144.31 120.91 141.93 120.36 140.53 119.91 140.1 118.43 139.31 117.77 139.16 116.6 139.18 
M 140.95 151.27 140.79 153.03 140.87 154.95 139.72 157.29 
M 140.38 164.96 139.58 164.16 
M 189.75 177.03 190.21 176.89 190.52 176.45 
M 165.99 136.13 164.54 137.43 164.09 138.41 
M 153.43 170.88 153.46 170.17 153.75 169.91 154.6 169.69 155.01 170.11 
M 162.28 151.61 162.81 151.7 163.57 151.32 165.07 149.21 165.41 148.94 166.03 148.64 167 148.66 
M 123.45 168.68 121.47 170.22 120.27 170.78 118.98 171.08 117.69 171.12 115.25 170.59 113.11 169.55 111.15 168.23 106.59 163.03 109.85 166.23 111.58 167.66 113.55 168.65 115.62 169.36 117.69 169.55 118.67 169.4 120.39 168.54 121.84 167.06 
M 105.05 161.41 108.02 163.34 112.78 166.08 119.36 169.14 
M 121.67 170.09 127.91 172.34 138.6 175.44 
M 182.73 108.89 188.8 114.96 
M 183.93 103.99 191.92 111.98 
M 187.8 101.77 195.64 109.61 
M 191.65 99.52 196.26 104.13 
M 195.54 97.32 202.77 104.55 
M 199.54 95.22 207.27 102.95 
M 203.61 93.2 211.18 100.77 
M 207.73 91.22 216.36 99.85 
M 211.98 89.39 220.39 97.8 
M 216.23 87.54 222.96 94.27 
M 220.43 85.64 229.26 94.47 
M 224.84 83.96 229.54 88.66 
M 229.39 82.41 236.35 89.37 
M 234.22 81.15 243.12 90.05 
M 239.25 80.09 247.4 88.24 
M 244.65 79.39 249.26 84 
M 250.53 79.18 255.45 84.1 
M 256.53 79.08 261.8 84.35 
M 262.39 78.85 269.17 85.62 
M 269.62 79.98 277.67 88.03 
M 279.11 83.38 284.63 88.9 
M 290.2 88.37 295.84 94.01 
M 301.32 93.4 309.37 101.45 
M 313.91 99.9 322.83 108.82 
M 328.85 108.74 337.29 117.18 
M 342.74 116.53 350.13 123.93 
M 356.38 124.08 358.81 126.52 
M 191.18 181.74 191.86 183.1 
M 192.56 179.16 193.93 181.89 
M 194.62 177.94 195.98 180.66 
M 196.67 176.71 198.03 179.43 
M 204.84 193.06 205.4 194.17 
M 200.08 178.19 200.76 179.56 
M 201.44 180.92 202.12 182.28 
M 203.48 179.66 205.52 183.75 
M 191.45 134.27 191.79 134.96 
M 193.36 132.77 194.44 134.92 
M 183.17 107.06 189.31 119.32 
M 196.12 132.95 197.09 134.88 
M 184.22 103.83 184.56 104.51 
M 185.25 105.87 191.38 118.14 
M 199.55 134.49 199.73 134.84 
M 186.3 102.64 194.13 118.31 
M 202.31 134.66 202.38 134.81 
M 188.36 101.44 190.75 106.21 
M 191.43 107.57 196.2 117.11 
M 204.38 133.47 205.03 134.77 
M 190.43 100.24 192.81 105.01 
M 194.18 107.73 199.63 118.63 
M 206.44 132.26 207.12 133.62 
M 192.49 99.03 194.88 103.8 
M 196.24 106.53 202.37 118.79 
M 205.78 125.6 208.5 131.06 
M 194.56 97.84 205.12 118.96 
M 207.85 124.41 208.53 125.78 
M 209.21 127.14 210.57 129.87 
M 235.79 180.29 238.51 185.74 
M 196.67 96.73 207.92 119.21 
M 212 127.39 215.41 134.21 
M 236.53 176.45 237.9 179.18 
M 241.99 187.35 242.67 188.72 
M 246.75 196.89 247.44 198.25 
M 198.78 95.62 210.03 118.1 
M 214.12 126.28 217.52 133.09 
M 218.2 134.46 218.27 134.58 
M 236.6 171.25 237.28 172.61 
M 238.64 175.34 240.69 179.43 
M 248.18 194.42 250.23 198.51 
M 200.9 94.51 212.82 118.36 
M 214.86 122.44 220.31 133.35 
M 239.39 171.5 240.07 172.87 
M 242.12 176.95 242.8 178.32 
M 248.25 189.22 248.93 190.58 
M 250.3 193.31 250.98 194.67 
M 255.06 202.85 255.75 204.21 
M 203.04 93.47 207.47 102.33 
M 208.83 105.05 210.2 107.78 
M 212.24 111.87 215.65 118.68 
M 217.01 121.41 221.1 129.58 
M 242.22 171.83 243.58 174.55 
M 251.08 189.54 251.76 190.91 
M 205.19 92.44 208.26 98.57 
M 210.99 104.02 213.71 109.47 
M 219.16 120.38 219.84 121.74 
M 245.05 172.16 245.74 173.52 
M 253.23 188.51 255.27 192.6 
M 207.34 91.41 209.05 94.82 
M 214.5 105.72 216.54 109.81 
M 228.81 134.34 228.86 134.44 
M 248.57 173.86 249.25 175.22 
M 209.53 90.44 209.87 91.12 
M 212.59 96.57 215.32 102.02 
M 217.36 106.11 218.04 107.48 
M 220.09 111.56 225.54 122.47 
M 230.99 133.37 231.51 134.4 
M 247.92 167.22 248.71 168.8 
M 249.39 170.16 250.07 171.53 
M 211.72 89.5 230.46 126.97 
M 249.94 165.93 252.95 171.95 
M 213.92 88.56 233.34 127.4 
M 234.7 130.12 235.38 131.48 
M 236.06 132.85 236.74 134.21 
M 253.1 166.92 253.78 168.28 
M 267.41 195.53 268.77 198.26 
M 269.45 199.62 272.36 205.44 
M 216.1 87.59 235.52 126.43 
M 255.28 165.95 256.64 168.68 
M 218.28 86.61 222.03 94.11 
M 222.71 95.47 224.07 98.2 
M 226.8 103.65 237.7 125.45 
M 257.27 164.59 258.82 167.7 
M 220.79 86.31 226.25 97.21 
M 229.65 104.03 239.87 124.47 
M 222.67 84.73 228.46 96.31 
M 231.87 103.12 246.86 133.1 
M 224.93 83.92 230.72 95.5 
M 234.13 102.32 235.49 105.04 
M 236.86 107.77 249.12 132.3 
M 263.57 161.2 264.11 162.28 
M 227.2 83.12 232.31 93.34 
M 239.12 106.96 247.3 123.32 
M 248.66 126.04 251.38 131.49 
M 265.88 160.49 267.06 162.84 
M 229.5 82.39 236.65 96.7 
M 240.74 104.87 242.1 107.6 
M 243.47 110.32 248.92 121.23 
M 250.96 125.31 252.32 128.04 
M 253.69 130.76 255.34 134.06 
M 268.45 160.3 269.36 162.11 
M 270.72 164.83 272.08 167.56 
M 282.3 188 283.67 190.73 
M 231.86 81.77 240.37 98.81 
M 243.1 104.26 244.46 106.98 
M 245.82 109.71 251.28 120.61 
M 252.64 123.34 257.98 134.03 
M 272.4 162.86 273.08 164.22 
M 284.66 187.39 286.71 191.47 
M 234.21 81.16 244.78 102.28 
M 245.46 103.64 246.14 105 
M 247.5 107.73 252.95 118.63 
M 257.04 126.81 257.72 128.17 
M 258.4 129.53 260.63 133.99 
M 275.44 163.6 276.12 164.97 
M 287.02 186.77 288.38 189.5 
M 236.61 80.61 248.53 104.46 
M 250.57 108.54 256.03 119.45 
M 259.43 126.26 260.11 127.62 
M 260.8 128.99 263.28 133.95 
M 239.03 80.13 240.06 82.17 
M 240.74 83.54 244.14 90.35 
M 244.83 91.71 250.96 103.98 
M 251.64 105.34 257.77 117.61 
M 259.13 120.33 261.18 124.42 
M 262.54 127.14 265.93 133.92 
M 285.71 173.48 286.39 174.84 
M 241.46 79.65 246.57 89.87 
M 247.25 91.23 260.2 117.13 
M 263.61 123.94 268.38 133.48 
M 288.14 173 289.5 175.73 
M 243.95 79.3 244.97 81.35 
M 246.34 84.07 247.02 85.43 
M 248.38 88.16 263.37 118.14 
M 265.42 122.23 269.5 130.41 
M 270.19 131.77 271.22 133.84 
M 291.31 174.01 294.72 180.83 
M 245.28 76.62 247.66 81.39 
M 253.11 92.29 264.02 114.09 
M 265.38 116.82 266.06 118.18 
M 267.42 120.91 270.15 126.36 
M 272.19 130.45 272.87 131.81 
M 273.55 133.17 273.87 133.8 
M 283.68 153.42 284.46 154.98 
M 294 174.06 298.08 182.23 
M 246.43 73.59 250.18 81.09 
M 252.9 86.54 265.17 111.07 
M 265.85 112.43 268.58 117.88 
M 269.94 120.61 270.62 121.97 
M 271.3 123.34 272.66 126.06 
M 274.03 128.79 274.71 130.15 
M 285.51 151.75 286.29 153.32 
M 286.97 154.68 287.65 156.04 
M 290.38 161.49 291.74 164.22 
M 296.51 173.76 299.24 179.21 
M 248.07 71.54 252.84 81.08 
M 254.89 85.17 270.56 116.51 
M 271.92 119.24 276.01 127.42 
M 287.49 150.39 289.64 154.67 
M 293.04 161.49 294.41 164.21 
M 295.77 166.94 297.13 169.66 
M 298.49 172.39 299.86 175.11 
M 250.27 70.61 255.04 80.15 
M 257.08 84.24 272.76 115.58 
M 274.12 118.3 277.53 125.12 
M 280.93 131.93 281.61 133.29 
M 289.71 149.48 289.79 149.65 
M 292.52 155.1 299.33 168.73 
M 249.3 63.33 251 66.73 
M 252.36 69.46 280.3 125.33 
M 283.71 132.15 284.46 133.65 
M 294.61 153.95 296.65 158.04 
M 300.06 164.85 301.42 167.58 
M 250.2 59.8 250.54 60.48 
M 251.22 61.84 251.9 63.2 
M 254.63 68.65 277.11 113.63 
M 278.47 116.35 281.88 123.16 
M 283.93 127.25 287.11 133.62 
M 294.65 148.7 294.83 149.06 
M 307.09 173.59 308.46 176.31 
M 251.7 57.47 252.04 58.15 
M 255.45 64.96 277.25 108.57 
M 281.34 116.75 282.02 118.11 
M 286.11 126.28 289.76 133.58 
M 253.66 56.05 254.68 58.1 
M 257.41 63.55 258.77 66.27 
M 260.81 70.36 277.17 103.07 
M 281.94 112.61 283.98 116.7 
M 289.43 127.6 292.4 133.54 
M 312.6 173.93 313.96 176.66 
M 255.16 53.72 257.54 58.49 
M 259.59 62.58 269.13 81.66 
M 271.17 85.75 280.03 103.46 
M 281.39 106.19 287.52 118.45 
M 295.02 133.44 295.05 133.51 
M 313.42 170.24 315.46 174.32 
M 256.64 51.36 268.57 75.2 
M 269.93 77.93 271.29 80.66 
M 273.34 84.74 277.43 92.92 
M 278.11 94.28 284.24 106.55 
M 285.6 109.27 290.37 118.81 
M 315.58 169.24 318.99 176.05 
M 258.54 49.82 277.28 87.3 
M 280.01 92.75 286.82 106.38 
M 288.18 109.1 292.27 117.28 
M 307.26 147.26 307.94 148.62 
M 318.16 169.07 320.21 173.15 
M 260.53 48.47 278.59 84.59 
M 282 91.4 293.58 114.57 
M 316.07 159.54 317.43 162.26 
M 321.52 170.44 324.24 175.89 
M 262.44 46.95 279.81 81.7 
M 281.86 85.79 295.49 113.05 
M 296.17 114.41 296.85 115.77 
M 305.03 132.12 305.64 133.36 
M 312.52 147.11 319.33 160.74 
M 324.79 171.64 326.83 175.73 
M 264.2 45.15 290.44 97.61 
M 291.8 100.34 299.29 115.33 
M 300.66 118.05 302.02 120.78 
M 302.7 122.14 304.06 124.87 
M 304.74 126.23 308.15 133.04 
M 314.97 146.67 319.05 154.85 
M 321.78 160.3 322.46 161.66 
M 265.99 43.39 292.23 95.86 
M 294.95 101.31 300.4 112.21 
M 301.76 114.94 310.62 132.65 
M 315.39 142.19 320.84 153.09 
M 322.89 157.18 324.93 161.27 
M 267.92 41.91 271.67 49.41 
M 273.03 52.13 287.34 80.75 
M 288.02 82.11 288.7 83.48 
M 289.38 84.84 294.15 94.38 
M 298.24 102.55 301.65 109.37 
M 305.05 116.18 307.1 120.27 
M 309.14 124.36 313.23 132.54 
M 314.59 135.26 315.96 137.99 
M 316.64 139.35 317.32 140.71 
M 318 142.08 319.36 144.8 
M 320.04 146.16 320.73 147.53 
M 324.81 155.7 328.22 162.52 
M 270.17 41.08 278 56.75 
M 278.69 58.11 290.27 81.28 
M 292.31 85.37 296.4 93.54 
M 300.49 101.72 302.53 105.81 
M 303.21 107.17 309.35 119.44 
M 312.75 126.25 316.23 133.21 
M 316.39 133.51 316.84 134.43 
M 317.52 135.79 321.61 143.97 
M 327.06 154.87 329.79 160.32 
M 272.23 39.88 275.3 46.01 
M 275.98 47.37 280.07 55.55 
M 280.75 56.91 291.26 77.93 
M 298.33 92.08 300.04 95.49 
M 302.76 100.94 312.3 120.02 
M 312.98 121.38 313.67 122.74 
M 315.03 125.47 319.8 135.01 
M 321.16 137.73 321.84 139.09 
M 323.89 143.18 325.25 145.91 
M 328.66 152.72 331.38 158.17 
M 332.74 160.9 333.43 162.26 
M 274.06 38.2 275.77 41.61 
M 279.17 48.42 280.29 50.66 
M 284.74 59.55 290.24 70.56 
M 301.76 93.59 302.78 95.64 
M 304.82 99.72 313.68 117.44 
M 317.09 124.25 321.86 133.79 
M 326.63 143.33 327.31 144.69 
M 332.08 154.23 334.8 159.69 
M 276.17 37.08 277.87 40.49 
M 305.23 95.21 305.57 95.89 
M 306.94 98.62 313.07 110.88 
M 320.56 125.87 323.29 131.32 
M 327.38 139.5 330.1 144.95 
M 330.79 146.31 332.83 150.4 
M 334.19 153.13 334.87 154.49 
M 277.68 34.77 279.6 38.61 
M 308.82 97.04 315.97 111.35 
M 323.47 126.34 325.51 130.43 
M 329.6 138.61 330.96 141.33 
M 332.32 144.06 335.05 149.51 
M 279.62 33.31 280.26 34.59 
M 312.49 99.05 312.83 99.73 
M 313.51 101.1 318.28 110.64 
M 321.69 117.45 322.37 118.81 
M 325.77 125.63 327.82 129.71 
M 333.95 141.98 335.99 146.07 
M 316.28 101.3 321.39 111.52 
M 327.52 123.79 328.88 126.51 
M 332.97 134.69 334.34 137.42 
M 335.02 138.78 339.11 146.96 
M 320.08 103.58 324.51 112.43 
M 327.24 117.88 330.64 124.7 
M 335.41 134.24 341.54 146.5 
M 342.23 147.87 344.95 153.32 
M 347 157.4 349.04 161.49 
M 323.89 105.86 328.32 114.72 
M 329 116.08 332.41 122.89 
M 337.86 133.8 341.95 141.97 
M 342.63 143.34 347.4 152.88 
M 349.44 156.96 351.49 161.05 
M 327.65 108.05 330.03 112.82 
M 332.76 118.27 337.53 127.81 
M 338.21 129.17 350.48 153.7 
M 352.52 157.79 353.2 159.15 
M 331.4 110.21 331.74 110.89 
M 334.46 116.34 350.14 147.69 
M 350.82 149.05 351.5 150.41 
M 336.11 114.3 343.6 129.29 
M 345.65 133.38 352.46 147 
M 354.5 151.09 355.19 152.46 
M 338.77 114.3 343.89 124.52 
M 347.97 132.7 354.79 146.32 
M 356.15 149.05 356.83 150.41 
M 342.83 117.08 343.51 118.44 
M 351.01 133.43 353.05 137.52 
M 355.78 142.97 356.46 144.33 
M 349.26 124.6 349.94 125.96 
M 350.62 127.33 356.75 139.59 
M 351.57 123.9 358.92 138.6 
M 354.57 124.57 358.92 133.26 
M 357.23 124.55 358.42 126.92 
"/></svg>