<svg xmlns="http://www.w3.org/2000/svg" width="520" height="320"><rect x="0" y="0" width="520" height="320" fill="floralwhite"/><rect x="10" y="10" width="500" height="300" stroke="black" stroke-width="1" fill="none"/><path stroke="black" stroke-width="1" fill="none" stroke-linecap="round" stroke-linejoin="round" d="
M 121.95 129.55 131.47 124.56 140.96 121.49 150.46 119.77 159.96 118.25 178.95 113.53 188.45 111.79 197.94 110.9 207.44 110.5 216.94 110.33 235.93 110.72 245.43 110.29 254.93 110.33 264.42 111.4 273.92 112.88 292.91 116.38 302.41 119.12 321.4 125.75 330.9 128.76 340.4 132.11 349.9 136.9 359.39 143.79 368.89 160.02 
M 368.89 192.07 359.39 206.16 349.9 211.68 340.4 215.58 330.9 218.31 321.4 220.79 311.91 223.8 302.41 227.3 292.91 230.25 283.42 231.8 273.92 232.63 254.93 233.48 235.93 233.23 226.44 234.06 216.94 235.38 207.44 236.36 197.94 236.5 188.45 235.42 178.95 233.05 169.45 229.7 159.96 225.73 150.46 221.44 140.96 217.77 131.5 215.4 
M 365.18 168.06 356.65 161.58 346.46 157.5 339.68 155.18 336.19 154.2 328.82 152.57 315.5 150.2 
M 311.78 149.63 304.47 148.89 
M 300.71 148.72 291.14 148.63 283.94 148.37 280.57 148.09 272.38 146.88 
M 269.09 146.38 264.01 145.75 254.02 145.03 247.72 145.06 244.56 145.19 241.37 145.54 222.76 147.86 
M 219.43 148.28 212.53 149.4 
M 208.99 149.97 203.63 150.6 200.07 150.81 196.6 150.78 191.62 150.39 
M 188.33 150.05 181.5 149.51 
M 177.88 149.41 174.23 149.4 
M 167 149.33 163.42 149.24 
M 149 147.7 145.27 147.62 
M 137.97 148.37 134.54 148.98 
M 135.55 204.62 138.38 208.13 
M 141.26 211.47 143.06 213.46 
M 135.59 197.25 138.12 200.71 
M 135.16 188.79 135.56 189.38 
M 153.37 211.81 156.38 214.97 
M 135.72 181.71 138.12 185.31 
M 158.04 210.7 159.31 212.05 
M 136.12 174.08 138.12 177.19 
M 164.78 212.12 164.98 212.35 
M 136.05 164.98 136.44 165.66 
M 177.91 221.8 180.57 224.41 
M 131.96 147.98 133.15 150.17 
M 135.24 153.97 137.4 157.81 
M 139.66 161.72 142 165.7 
M 144.47 169.72 146.31 172.6 
M 125.26 127.82 128.8 133.32 137.28 148.19 147.73 165.76 
M 150.23 169.85 152.16 172.89 
M 183.97 216.23 186.61 219.25 
M 128.96 125.88 131.64 129.84 138.08 140.48 145.27 151.65 147.66 155.54 151.12 161.7 
M 153.46 165.88 157.92 173.18 
M 186.18 211.86 187.18 213.14 
M 189.8 216.39 193.86 220.93 197.98 224.97 
M 132.72 124.16 136.55 129.66 151.1 151.46 160.27 168.14 163.65 173.47 
M 192.98 213.26 195.68 216.58 
M 203.65 225.07 206.22 227.41 
M 136.76 122.85 151.79 143.71 154.36 147.54 156.75 151.51 163.46 164.02 167.08 170.18 
M 198.41 212.96 198.73 213.36 
M 204.03 219.71 206.57 222.41 
M 140.82 121.54 148.1 131.03 
M 150.67 134.47 154.71 139.93 159.89 147.66 164.57 155.65 169.01 163.97 171.39 168.1 175.51 174.06 
M 204.32 213.38 209.44 219.37 
M 145.29 120.71 147.47 123.23 152.2 129.32 157.45 136.32 162.85 143.89 167.83 151.56 174.68 163.85 177.15 167.95 178.54 169.92 
M 181.49 173.87 181.9 174.38 
M 212.26 215.94 214.67 218.46 
M 217.01 220.71 219.29 222.77 
M 149.74 119.9 152.75 123.21 155.12 126.18 162.98 136.57 168.36 143.98 173.44 151.5 180.53 163.71 183.21 167.75 187.81 173.61 
M 214.98 212.2 217.44 214.88 
M 222.12 219.56 224.38 221.71 
M 228.89 225.55 230.79 226.94 
M 154.21 119.17 158.12 123.34 160.6 126.43 171.29 140.52 179.13 151.54 183.97 159.57 186.61 163.6 195.54 175.06 
M 222.58 213.78 224.95 216.26 
M 158.7 118.45 163.73 123.73 174.26 137.36 182.14 148.01 187.12 155.75 189.78 159.68 191.26 161.61 
M 194.33 165.44 197.44 169.28 
M 200.34 173.2 201.81 175.37 
M 235.11 220.07 239.71 224.06 
M 162.83 117.54 166.81 121.38 169.48 124.33 172.09 127.59 182.4 141.3 192.54 156.12 197.1 161.67 
M 200.27 165.38 201.84 167.26 204.68 171.19 205.94 173.22 
M 240.52 219.35 244.81 223.38 
M 166.79 116.55 169.81 119.28 172.53 122 175.2 124.99 185.27 138.5 193.75 151.02 
M 196.49 154.61 204.3 163.51 205.81 165.42 
M 211.31 173.46 212.76 175.92 
M 238.67 211.35 243.45 216.35 
M 170.65 115.59 175.44 119.86 178.13 122.6 180.72 125.59 188.23 135.85 194.03 144.49 
M 196.4 147.92 200.39 153.04 206.6 159.9 209.73 163.62 212.67 167.62 214 169.7 
M 216.54 173.82 217.91 176.18 
M 246.18 213.19 248.28 215.67 
M 250.22 218.06 252.05 220.36 
M 174.47 114.64 178.29 117.86 180.99 120.39 183.67 123.21 186.28 126.36 191.31 133.22 198.18 143.22 201.82 148.03 
M 204.51 151.27 212.03 159.87 215.04 163.81 217.87 167.97 221.63 174.09 
M 246.42 207.37 248.68 209.97 
M 256.32 220.24 258.14 222.59 
M 178.34 113.68 183.95 118.3 188.01 122.45 
M 190.61 125.56 204.87 144.7 
M 207.35 147.74 212.9 154.24 
M 215.85 157.91 220.21 163.97 225.43 172.2 228.08 176.68 
M 250.58 206.27 251 206.8 
M 253.09 209.54 255.04 212.31 
M 182.65 112.85 187.11 116.21 189.85 118.69 192.48 121.49 195.02 124.56 208.03 141.36 
M 210.37 144.24 218.24 153.89 
M 221.05 157.77 226.49 166.02 
M 228.89 169.92 233.07 176.93 
M 253.82 204.36 255.38 206.5 
M 187.46 111.97 190.46 114.07 193.16 116.35 195.75 118.95 198.21 121.83 215.79 143.64 
M 218.23 146.66 222.03 151.73 227.41 159.63 233.23 169.2 
M 235.35 172.75 238.14 177.18 
M 261.81 209.33 263.93 212.23 
M 193.01 111.36 196.55 114.01 199.05 116.4 201.43 119.06 219.88 141.6 224.61 147.92 229.77 155.27 232.24 159.14 239.75 171.92 
M 242.22 175.67 243.42 177.45 
M 266.67 209.37 271.32 215.21 
M 273.67 217.94 275.99 220.42 
M 198.64 110.87 199.91 111.81 202.3 113.98 204.57 116.41 218.3 132.63 226.2 142.7 
M 228.62 145.88 233.62 152.93 
M 235.93 156.65 242.14 167.65 
M 244.49 171.36 247.05 175.24 
M 266.22 201.55 267.48 203.45 
M 204.03 110.64 207.54 114.01 218.82 126.49 224.57 133.46 
M 226.78 136.31 235.19 147.05 238.75 152.43 
M 240.85 156.11 245.86 165.44 248.1 169.22 251.97 175.1 
M 270.47 200.44 274.84 206.73 
M 208.84 110.47 221.56 123.31 223.97 125.9 226.25 128.69 230.63 134.42 237.9 143.26 240.4 146.59 242.7 150.17 245.75 155.73 
M 247.69 159.54 249.7 163.42 
M 251.86 167.31 254.29 171.2 
M 257.03 175.11 259.43 178.25 
M 274.03 198.43 275.5 200.63 
M 282.66 209.98 287.48 215.64 
M 213.39 110.39 224.25 120.3 226.63 122.75 228.91 125.4 233.24 131.14 236.7 135.43 
M 239.18 138.3 242.96 142.84 244.16 144.53 
M 246.47 148.03 249.63 153.62 254.65 163.49 
M 256.89 167.42 258.07 169.35 260.76 173.18 265 178.52 
M 278.26 197.5 283.03 203.99 
M 292.74 215.53 295.09 217.94 
M 218.2 110.37 224.53 115.35 229.26 119.7 231.51 122.23 238 130.78 244.13 137.94 
M 246.62 140.96 247.86 142.53 251.33 147.85 
M 253.49 151.64 259.8 163.57 
M 262.16 167.45 264.8 171.24 
M 282.24 196.14 283.32 197.63 
M 285.8 200.89 288.31 204 
M 290.78 206.98 297.94 215.27 
M 224.19 110.51 227.33 112.72 229.66 114.61 231.95 116.74 234.16 119.13 242.88 130.43 247.79 136.06 251.51 140.69 
M 253.92 144.11 258.52 151.6 
M 260.71 155.56 264.02 161.57 266.44 165.53 276.34 179.09 
M 287.45 196.13 288.56 197.56 
M 293.51 203.7 298.34 209.59 
M 230.83 110.64 232.5 111.88 234.74 113.85 236.91 116.11 239.03 118.64 245.52 127.09 252.75 135.56 255.23 138.74 261.4 147.71 
M 263.79 151.55 269.68 161.64 271.02 163.64 
M 273.78 167.58 276.61 171.44 
M 279.35 175.32 281.97 179.37 
M 293.74 196.99 298.62 203.14 
M 301.04 206.21 303.42 209.16 
M 237.1 110.67 239.76 113.22 241.85 115.63 248.28 123.63 255.31 131.99 260.35 138.49 264.21 143.9 
M 269.13 151.59 272.79 157.72 276.95 163.81 
M 282.48 171.56 287.25 179.22 
M 301.25 199.29 303.69 202.53 
M 308.49 208.68 310.86 211.43 
M 242.49 110.42 246.84 115.23 255.61 125.5 260.48 131.5 264.34 136.6 
M 266.91 140.2 270.66 145.84 276.96 155.87 
M 282.69 163.93 286.73 169.68 293.08 179.93 
M 299.86 189.73 301.5 191.97 
M 303.89 195.28 308.77 202.04 
M 311.22 205.26 313.65 208.27 
M 247.71 110.3 256.25 119.53 263.26 128.02 270.77 138.49 278.16 149.98 282.31 156 
M 288.05 163.89 293.05 171.27 
M 305.25 189.37 306.62 191.36 
M 321.38 210.98 323.86 213.78 
M 253.13 110.32 257.14 114.33 261.47 119.03 266.09 124.77 270.89 131.55 284.74 152.01 
M 287.62 155.93 290.52 159.81 
M 293.25 163.61 300.35 174.31 
M 308.59 186.38 309.49 187.71 
M 319.31 201.7 321.8 204.98 
M 259.06 110.8 262.37 114.02 266.71 118.9 268.92 121.81 274.72 130.18 
M 277.14 133.67 284.72 144.3 
M 287.38 148.02 290.21 151.8 
M 293.11 155.62 297.21 161.32 307.86 177.42 
M 312.38 184.08 312.52 184.29 
M 314.88 187.81 319.73 194.97 
M 324.68 201.92 327.15 205.28 
M 265.23 111.52 267.52 113.88 271.76 119.09 281.02 132.13 290.28 144.07 
M 295.97 151.43 300.07 157.12 303.71 162.83 
M 306.1 166.61 313.29 177.41 
M 315.65 180.95 315.72 181.06 
M 316.67 182.48 318.01 184.55 
M 320.38 188.18 322.76 191.79 
M 327.6 198.91 330.04 202.39 
M 271.15 112.45 274.56 116.49 280.18 124.06 
M 282.56 127.24 285.05 130.43 
M 287.66 133.64 294.72 141.93 300.46 149.15 303.14 152.95 310.35 164.63 316.45 173.88 
M 318.85 177.54 321.27 181.33 
M 321.49 181.68 323.57 184.99 
M 325.89 188.67 328.21 192.29 
M 330.57 195.88 332.95 199.44 
M 276.86 113.4 289.26 128.61 299.21 139.89 
M 304.89 147.04 308.74 152.82 314.76 162.62 
M 322.07 173.98 326.79 181.67 
M 329.08 185.49 333.63 192.84 
M 335.95 196.44 338.28 199.98 
M 342.92 206.78 344.55 209.07 
M 282.93 114.46 299.28 133.06 
M 305.04 139.68 309.2 145.08 311.87 148.94 325.31 170.33 
M 330.03 178.24 332.31 182.19 
M 336.81 189.77 339.05 193.42 
M 341.31 197 343.57 200.51 
M 289.81 115.78 295.5 121.91 303.67 131.28 312.12 141.47 317.71 149.17 323.92 158.93 
M 326.25 162.79 328.61 166.7 
M 330.97 170.72 337.78 182.8 
M 340.02 186.65 342.24 190.38 
M 297.74 117.78 301.33 121.68 317.97 141.72 323.67 149.54 327.42 155.4 
M 329.75 159.27 340.96 179.49 
M 347.61 190.96 351.9 198.03 
M 305.94 120.35 313.49 129.59 
M 316.3 132.93 323.95 142.08 326.92 146.02 329.64 149.97 333.26 155.84 
M 335.46 159.79 337.6 163.79 
M 339.74 167.88 341.91 172.02 
M 344.1 176.14 346.32 180.17 
M 350.77 187.85 352.9 191.51 
M 313.8 123.09 317.62 127.83 326.75 138.56 329.94 142.48 332.88 146.45 335.46 150.44 337.78 154.44 340.95 160.45 
M 345.13 168.61 347.26 172.74 
M 349.45 176.82 353.87 184.66 
M 358.07 192.15 360.13 195.74 
M 321.62 125.82 332.73 138.95 335.83 142.94 337.2 144.96 
M 339.78 149.02 342.09 153.08 
M 346.35 161.16 354.78 177.37 
M 329.31 128.25 338.59 139.46 342.78 145.56 
M 345.23 149.66 347.5 153.74 
M 349.68 157.78 359.96 177.7 
M 366.34 189.57 367.58 191.73 
M 337.37 131.04 341.4 136.03 344.37 140.02 347.1 144.09 349.6 148.19 354.2 156.32 358.33 164.19 361.13 169.99 
M 367.24 181.91 368.62 184.44 
M 346.24 135.06 346.81 135.8 
M 348.79 138.54 352.87 144.57 357.75 152.7 361.91 160.55 364.54 166.22 
M 356.96 142.03 361.36 148.92 363.65 152.94 366.57 158.75 
M 125.12 127.89 122.92 130.74 
M 132.88 124.11 130.82 126.68 125.59 133.87 
M 139.54 121.95 135.7 126.5 127.43 138.43 
M 145.68 120.64 143.18 123.32 140.7 126.32 138.26 129.6 129.49 142.88 
M 151.95 119.53 148.37 123.22 145.86 126.18 143.39 129.43 140.95 132.94 131.65 147.21 
M 158.5 118.48 156.15 120.64 153.67 123.22 151.15 126.13 148.68 129.32 146.26 132.77 137.36 146.27 
M 134.73 150.15 133.46 152.01 
M 167.04 116.49 161.64 120.91 159.07 123.39 156.5 126.22 154.04 129.34 151.67 132.69 144.25 144.01 137.35 153.91 
M 176.49 114.14 169.82 119.28 164.71 123.82 162.05 126.54 159.48 129.53 155.94 134.52 
M 151.23 141.84 147.28 147.7 140.07 157.74 
M 137.26 161.71 135.91 163.65 
M 185.21 112.38 180.24 115.88 177.83 117.82 170.48 124.44 165.15 129.98 161.45 134.75 
M 159.12 138.22 154.34 145.63 
M 151.65 149.51 142.86 161.67 
M 140.03 165.67 136.03 171.57 
M 192.75 111.39 188.9 114.08 183.47 118.27 181 120.39 177.39 123.87 
M 172.25 129.17 169.63 132.06 
M 167.1 135.14 163.48 140.19 155.94 151.48 142.96 169.69 
M 138.12 177.05 135.81 180.87 
M 199.36 110.84 192.15 116.34 184.16 123.27 179.15 128.38 172.78 135.62 
M 170.28 138.78 162.79 149.64 
M 160.07 153.61 146.77 172.63 
M 138.12 186.42 135.36 191.29 
M 205.21 110.59 200.89 113.98 192.5 121.49 184.67 129.11 179.61 134.64 174.64 140.7 172.15 144.06 154.43 169.98 
M 210.5 110.44 206.26 114 203.68 116.41 187.65 132.66 182.63 138.14 176.49 146.01 
M 173.92 149.62 168.36 157.68 
M 215.33 110.36 211.19 114.03 208.84 116.39 195.85 130.7 188.01 138.92 183.25 144.68 176.88 153.5 
M 171.07 161.82 168.25 166.06 
M 165.61 170.19 163.57 173.46 
M 219.8 110.4 215.95 113.95 213.72 116.29 209.02 121.7 201.4 130.97 194.69 138.29 
M 192.07 141.09 189.62 143.92 
M 187.32 146.88 185.03 150.08 
M 182.54 153.62 179.74 157.54 
M 176.79 161.71 173.89 165.95 
M 224.11 110.51 220.86 113.59 216.36 118.57 204.25 133.98 193.53 146.04 190.2 150.65 
M 187.95 153.99 185.44 157.65 
M 182.64 161.63 176.97 169.97 
M 228.34 110.6 226.02 112.92 221.38 118.1 216.88 123.84 209.62 133.62 198.79 146.41 196.4 149.56 189.91 159.69 183.04 169.77 
M 180.4 173.9 180.16 174.29 
M 232.61 110.67 228.8 114.74 223.14 121.78 
M 220.86 124.82 218.52 128.04 
M 216.11 131.37 212.33 136.37 204.3 146.32 201.82 149.67 199.59 153.04 193.4 163.53 189.42 169.53 
M 236.95 110.67 233.89 113.97 229.27 119.7 220.08 132.42 208.6 147.63 
M 206.23 151.16 203.09 156.43 199.32 163.51 197.1 167.32 192.11 174.89 
M 241.6 110.46 238.92 113.31 234.17 119.13 225.19 131.87 215.29 145.27 210.63 152.56 207.66 158.08 
M 205.81 161.71 203.91 165.39 
M 201.77 169.23 198 175.18 
M 171.68 215.83 169.3 218.62 
M 246.41 110.3 243.89 112.87 239.04 118.64 236.72 121.74 227.81 134.68 221.77 143.04 
M 219.41 146.54 216.05 152.1 208.37 167.38 206.19 171.22 203.53 175.46 
M 172.17 221.56 170.37 223.46 
M 251.27 110.32 248.95 112.53 246.43 115.27 241.57 121.35 237.01 127.78 225.72 144.38 222.35 149.88 
M 220.3 153.75 215.61 163.83 212.62 169.59 
M 210.36 173.41 208.88 175.73 
M 179.97 219.11 177.5 221.79 
M 256.11 110.46 254.12 112.2 251.52 114.81 248.99 117.73 246.53 120.88 239.66 130.66 230.98 143.91 226.4 151.53 224.4 155.61 219.81 166 
M 217.82 169.95 214.22 175.99 
M 260.52 110.96 256.71 114.37 254.1 117.12 251.57 120.18 249.14 123.49 244.58 130.27 235.11 145.29 
M 232.8 149.15 229.45 155.3 226.63 161.8 
M 224.82 166.08 222.87 170.17 
M 183.87 226.81 182.64 227.91 
M 264.87 111.47 259.3 116.6 256.7 119.47 254.21 122.67 251.82 126.11 245.39 136.28 236.88 150.67 234.52 154.82 231.39 161.34 
M 229.53 165.76 227.7 170.05 
M 203.99 211.14 201.31 215.12 200.04 216.67 
M 269.01 112.11 261.93 119 259.38 122 254.62 128.83 248.32 139.19 237.13 158.5 234.94 162.85 230.26 173.69 
M 273.15 112.76 267.15 118.91 264.65 121.71 262.18 124.83 259.79 128.21 255.32 135.32 246.87 149.89 239.52 162.13 236.4 168.57 
M 234.57 172.89 232.83 176.92 
M 213.72 211.8 213.28 212.54 
M 277.32 113.48 269.8 121.86 265.07 127.99 260.47 134.95 248.08 155.62 
M 245.58 159.62 241.94 165.73 239.84 169.89 236.87 177.12 
M 219.33 210.12 218.46 211.54 
M 213.85 218.63 209.12 224.77 
M 281.61 114.23 274.83 122.22 270.21 128.18 265.75 134.8 255.45 151.61 
M 250.45 159.49 246.79 165.4 244.6 169.36 242.64 173.53 241.12 177.33 
M 221.32 214.04 219 217.48 
M 286.01 115.05 279.9 122.49 273.04 131.71 260.57 151.58 
M 258 155.55 251.68 165.39 249.45 169.2 246.58 175.28 
M 290.53 115.92 285.14 122.41 278.08 132.05 273.78 138.65 267.17 149.57 255.55 167.39 
M 253.38 171.19 252.38 173.11 250.33 177.79 
M 231.85 212.28 229.39 215.54 
M 226.91 218.69 224.44 221.7 
M 295.06 117 288.1 125.44 283.25 132.12 278.81 138.88 269.98 153.59 265.99 159.57 
M 260.74 167.46 258.48 171.27 
M 256.53 175.13 255.24 178.04 
M 234.86 214.75 232.3 217.87 
M 299.52 118.29 293.83 125.15 287.49 133.65 
M 285.14 137.14 279.57 146.17 272.92 157.72 264.94 169.33 262.7 173.16 260.31 178.29 
M 245.98 205.76 244.82 207.6 
M 303.98 119.67 297.05 128.23 289.5 138.68 284.76 146.17 282.56 150.06 278.46 157.92 276.14 161.83 272.17 167.54 
M 267.26 175.07 265.51 178.55 
M 247.56 210.12 245.41 213.31 
M 308.32 121.18 302.87 128.04 296.6 136.56 
M 291.58 143.99 287.93 149.93 282.86 159.99 
M 280.69 163.9 279.52 165.83 274.23 173.27 271.84 177.06 270.9 178.82 
M 255.98 203.53 250.06 212.68 
M 247.94 215.71 245.65 218.63 
M 243.22 221.39 241.97 222.72 238.19 226.13 
M 312.57 122.66 303.7 134.57 296.23 145.56 293.67 149.6 291.32 153.73 287.25 161.96 285.18 165.9 283.98 167.78 
M 261.96 201.65 260.58 203.42 
M 256.32 209.38 252.37 215.24 
M 250.27 218.05 248.04 220.72 
M 316.77 124.13 309.34 134.56 304.66 141.44 299.6 149.21 295.86 155.43 
M 293.59 159.61 290.43 165.76 288.19 169.65 281.87 179.22 
M 265.41 203.42 262.96 206.4 
M 254.57 217.76 250.28 222.73 
M 321.09 125.64 310.31 141.43 302.79 152.97 297.78 161.28 293.31 169.38 286.94 179.62 
M 274.9 198.02 270.44 203.53 
M 267.9 206.45 264.27 210.8 258.86 217.71 
M 254.6 222.55 252.45 224.67 
M 325.73 127.12 322.89 131.22 318.46 138.15 308.4 152.82 301.88 162.94 
M 299.5 166.97 297.18 170.93 
M 294.82 174.89 291.78 179.86 
M 278.01 200.72 273.08 206.64 
M 270.57 209.49 268.14 212.3 
M 261.17 220.28 258.94 222.6 
M 330.73 128.7 328.75 131.44 322.04 141.95 315.46 151.01 
M 312.69 154.83 305.93 164.7 296.34 180.09 
M 286.57 196.1 285.49 197.64 
M 270.94 215.21 266.03 220.34 
M 335.83 130.5 332.52 135.27 326.79 144.13 
M 324.16 147.7 314.17 160.7 302.56 177.69 
M 293.01 193.58 289.59 199.18 286.12 204.02 
M 283.76 207.03 278.85 212.74 
M 268.68 222.74 266.2 224.9 
M 340.91 132.37 338.5 135.77 333.99 142.78 331.51 146.35 319.91 160.71 310.41 173.9 
M 307.82 177.42 305.56 180.55 
M 298.11 192.6 294.74 198.56 291.37 203.83 
M 289.06 207.02 286.69 210.03 
M 281.74 215.58 276.52 220.45 
M 345.64 134.75 337.28 146.85 334.63 150.36 325.72 160.88 321.39 166.43 
M 318.64 170.18 310.62 180.8 
M 304.57 189.39 300.93 195.7 
M 298.72 199.64 295.4 205.14 291.94 209.93 
M 289.56 212.89 287.09 215.64 
M 350.21 137.13 340.19 150.96 337.43 154.4 328.53 164.79 324.3 170.28 
M 321.54 173.94 315.98 181.07 
M 314.22 183.27 309.54 189.45 308.35 191.29 
M 306.02 195.06 303.79 198.93 
M 301.59 202.75 297.09 209.66 
M 294.76 212.73 292.35 215.55 
M 354.28 140.08 344.23 153.34 
M 341.45 156.76 334.21 165.29 329.97 170.62 
M 327.18 174.22 321.65 181.26 
M 316.23 187.89 312.4 192.99 311.22 194.81 
M 306.66 202.22 302.19 209.26 
M 299.89 212.41 296.36 216.68 295.12 217.94 
M 358.32 143.01 351.11 152.21 339.71 165.95 327.22 181.7 
M 324.47 185.06 319.1 191.52 
M 316.57 194.85 314.15 198.32 
M 311.81 201.87 307.25 208.79 
M 304.96 211.97 302.68 214.91 
M 297.98 220.06 295.46 222.31 
M 361.34 147.12 356.88 152.65 345.12 166.68 332.73 182.23 
M 324.58 191.96 320.74 196.74 314.73 205.07 
M 312.38 208.36 310.04 211.5 
M 363.92 151.53 350.53 167.36 339.56 181.19 327.43 195.58 
M 324.92 198.69 320.04 204.96 
M 317.64 208.09 315.24 211.13 
M 310.66 216.71 308.6 219.08 
M 366.35 155.69 358.91 164.22 343.6 183.51 
M 340.89 186.76 334.1 194.57 325.4 205.15 
M 320.54 210.98 318.15 213.75 
M 368.6 159.53 364.26 164.34 361.2 168.08 351.62 180.79 
M 346.29 187.38 338.19 196.68 
M 335.64 199.71 333.16 202.7 
M 328.31 208.43 325.88 211.15 
M 368.89 165.19 366.4 168.09 363.5 171.92 358.16 179.52 352.96 186.35 338.44 203.23 
M 336 206.14 333.59 208.95 
M 368.89 171.64 364.61 177.81 
M 362 181.65 358.15 186.95 351.49 194.71 
M 346.22 200.76 343.68 203.73 
M 341.21 206.63 338.8 209.44 
M 368.89 179.32 363.28 187.51 360.66 190.8 356.68 195.31 
M 354.06 198.27 348.92 204.19 
M 368.89 187.36 365.85 191.35 354.16 204.68 
M 177.48 112.89 213.85 32.25 214.66 32.6 180.84 113.19 
M 190.69 110.81 218.61 49.27 219.43 49.62 193.96 111.28 
M 204.05 109.91 225.68 65.77 226.49 66.14 207.28 110.5 
M 217.41 109.72 232.21 80.01 233.02 80.38 220.59 110.43 
M 230.75 110.08 239 92.19 239.83 92.52 233.92 110.69 
M 244.09 109.79 247.87 101.98 248.72 102.26 247.23 110.3 
M 253.39 109.88 254.93 110.33 
M 211.24 40.76 211.16 44.36 211.6 47.8 212.11 49.43 212.82 50.99 213.71 52.5 215.82 55.42 
M 216.85 55.87 217.29 59.53 218.22 62.97 218.96 64.56 219.9 66.06 221 67.48 223.52 70.18 
M 224.54 70.65 224.89 73.91 225.72 76.92 226.41 78.29 227.29 79.56 228.33 80.75 230.73 82.98 
M 231.76 83.44 232.2 86.38 233.11 89.04 233.82 90.21 234.71 91.27 235.77 92.24 238.17 93.98 
M 239.22 94.39 240.24 97.06 241.65 99.35 242.56 100.28 243.64 101.06 244.84 101.71 247.49 102.76 
M 248.56 103.11 248.97 105.41 249.8 107.37 250.44 108.15 251.25 108.8 252.21 109.33 254.39 110.17 
M 211.17 42.57 211.29 46.11 211.6 47.8 212.11 49.43 212.82 50.99 214.73 53.97 
M 208.61 49.56 208.72 52.75 209 54.27 210.09 57.14 211.81 59.82 
M 206.04 56.55 206.15 59.38 206.39 60.74 207.37 63.29 208.9 65.68 
M 203.48 63.55 203.57 66.02 203.79 67.21 204.64 69.44 205.98 71.53 
M 200.92 70.54 201 72.66 201.49 74.65 203.06 77.38 
M 198.36 77.53 198.58 80.14 199.19 81.74 200.14 83.23 
M 195.8 84.52 195.97 86.61 196.46 87.89 197.23 89.08 
M 217.04 57.71 217.67 61.29 218.22 62.97 218.96 64.56 219.9 66.06 222.22 68.85 
M 214.49 65.18 215.04 68.25 216.15 71.06 216.95 72.35 218.95 74.75 
M 211.94 72.64 212.4 75.21 212.79 76.42 214 78.65 215.67 80.65 
M 209.39 80.1 210.08 83.15 211.05 84.94 212.4 86.56 
M 206.84 87.56 207.12 89.13 207.69 90.57 209.12 92.46 
M 224.68 72.3 225.22 75.45 225.72 76.92 226.41 78.29 227.29 79.56 229.5 81.88 
M 221.77 81.21 222.18 83.63 222.56 84.75 223.77 86.78 225.46 88.56 
M 218.85 90.12 219.41 92.58 220.24 93.99 221.42 95.23 
M 231.95 84.93 232.58 87.76 233.11 89.04 233.82 90.21 234.71 91.27 236.94 93.13 
M 229.71 93.89 230.12 95.73 230.93 97.32 231.51 98.01 232.96 99.22 
M 138.19 170.59 344.65 181.43 344.61 182.32 138.04 173.8 
M 138.24 174.16 324.69 189.8 324.62 190.69 137.99 177.36 
M 138.29 177.73 304.65 196.95 304.55 197.84 137.94 180.92 
M 138.34 181.3 284.58 202.9 284.45 203.78 137.89 184.48 
M 138.39 184.88 264.54 207.63 264.39 208.51 137.85 188.04 
M 138.44 188.45 244.58 211.16 244.4 212.03 137.8 191.6 
M 138.48 192.03 224.76 213.48 224.56 214.35 137.75 195.15 
M 138.53 195.61 205.14 214.62 204.91 215.48 137.7 198.71 
M 138.58 199.19 185.76 214.58 185.51 215.43 137.65 202.26 
M 138.63 202.77 166.69 213.37 166.41 214.22 137.61 205.81 
M 139.36 206.32 147.97 210.64 147.66 211.48 137.56 208.99 
M 323.95 181.47 319.57 181.9 315.37 182.83 313.38 183.58 311.47 184.53 309.62 185.66 306.04 188.23 
M 305.96 189.35 301.62 189.52 297.45 190.2 295.46 190.83 293.53 191.67 291.65 192.68 288.01 195.03 
M 287.89 196.15 283.62 196.06 279.48 196.49 277.49 197 275.55 197.71 273.65 198.61 269.95 200.74 
M 269.8 201.85 265.6 201.5 261.51 201.69 259.53 202.07 257.58 202.67 255.67 203.45 251.92 205.36 
M 251.73 206.46 247.63 205.87 243.6 205.8 241.62 206.07 239.68 206.55 237.76 207.21 233.96 208.89 
M 233.74 209.99 229.74 209.15 225.78 208.84 223.82 208.99 221.88 209.35 219.96 209.9 216.13 211.34 
M 215.88 212.43 211.99 211.35 210.05 210.98 208.11 210.8 206.18 210.84 202.32 211.51 198.48 212.72 
M 198.19 213.8 194.43 212.49 190.65 211.71 188.74 211.63 186.83 211.75 184.9 212.06 181.04 213.04 
M 180.72 214.12 177.1 212.57 175.27 211.98 173.42 211.57 171.55 211.37 167.75 211.57 163.88 212.31 
M 163.53 213.38 160.08 211.54 158.32 210.79 156.53 210.23 154.7 209.87 150.92 209.76 147.04 210.17 
M 321.75 181.65 317.44 182.28 315.37 182.83 313.38 183.58 311.47 184.53 307.82 186.91 
M 300.32 180.75 296.52 181.31 294.69 181.8 291.24 183.3 288.02 185.4 
M 278.9 179.86 275.6 180.34 274.01 180.77 271.02 182.07 268.22 183.89 
M 257.48 178.96 254.68 179.37 253.33 179.73 250.8 180.84 248.42 182.38 
M 236.05 178.07 232.65 178.7 230.57 179.61 228.62 180.88 
M 214.63 177.17 212.83 177.44 211.14 177.98 208.83 179.37 
M 303.78 189.4 299.51 189.77 297.45 190.2 295.46 190.83 293.53 191.67 289.82 193.82 
M 280.59 187.74 276.91 188.06 275.14 188.43 271.77 189.69 268.58 191.54 
M 257.39 186.08 254.32 186.35 251.4 187.11 250.01 187.71 247.34 189.26 
M 234.2 184.42 230.53 184.89 228.25 185.74 226.11 186.98 
M 211.01 182.76 208.22 183.11 206.5 183.76 204.87 184.71 
M 285.75 196.07 281.53 196.18 279.48 196.49 277.49 197 275.55 197.71 271.79 199.64 
M 259.91 193.45 256.43 193.54 254.74 193.8 251.5 194.81 248.4 196.4 
M 234.08 190.83 231.33 190.91 230 191.11 227.45 191.9 225.01 193.15 
M 208.24 188.21 205.27 188.41 203.4 189 201.61 189.91 
M 267.69 201.64 263.54 201.5 261.51 201.69 259.53 202.07 257.58 202.67 253.79 204.37 
M 245.02 198.67 241.59 198.56 238.28 199.03 236.68 199.52 233.55 200.92 
M 222.34 195.7 219.64 195.61 218.33 195.73 215.77 196.37 213.3 197.48 
M 199.67 192.73 196.73 192.76 194.86 193.22 193.06 194.03 
M 249.67 206.13 245.6 205.74 243.6 205.8 241.62 206.07 239.68 206.55 235.86 208.01 
M 223.64 201.95 220.52 201.66 218.99 201.7 215.98 202.28 213.05 203.4 
M 197.61 197.78 194.37 197.61 192.28 198.01 190.24 198.79 
M 231.74 209.53 227.75 208.9 225.78 208.84 223.82 208.99 221.88 209.35 218.04 210.58 
M 198.97 203.33 196.38 202.92 195.1 202.88 192.57 203.21 190.07 204.01 
M 213.93 211.85 210.05 210.98 208.11 210.8 206.18 210.84 204.25 211.08 200.4 212.08 
M 187.4 206.09 184.87 205.52 182.36 205.42 181.1 205.58 178.6 206.23 
M 196.31 213.11 192.54 212.01 190.65 211.71 188.74 211.63 186.83 211.75 182.98 212.52 
M 178.91 213.31 175.27 211.98 173.42 211.57 171.55 211.37 169.66 211.38 165.82 211.9 
M 199.21 235.51 202.08 241.06 201.37 241.6 196.68 237.48 
M 186.11 233.68 201.16 261.63 200.4 262.08 183.34 235.31 
M 173.44 230.02 184.24 262.6 183.4 262.91 170.43 231.13 
M 161.11 225.17 168.34 259.92 167.47 260.13 157.99 225.92 
M 148.86 219.92 152.11 243.39 151.23 243.56 145.71 220.51 
M 142.55 217.53 142.31 223.77 141.42 223.9 139.38 218 
M 200.9 241.19 199.48 245.03 198.6 248.91 198.46 250.87 198.53 252.84 198.79 254.83 199.66 258.83 
M 198.69 259.4 195.24 258.24 193.52 257.84 191.79 257.62 190.07 257.61 186.61 258.21 183.16 259.35 
M 182.1 259.74 179.14 257.89 176.05 256.56 174.44 256.2 172.78 256.04 171.09 256.06 167.61 256.45 
M 166.52 256.71 164.08 252.45 161.25 248.55 159.61 246.8 157.82 245.21 155.9 243.74 151.79 241.04 
M 150.68 241.25 149.87 236.75 148.56 232.47 147.64 230.46 146.52 228.54 145.23 226.69 142.33 223.15 
M 196.97 258.78 193.52 257.84 191.79 257.62 190.07 257.61 188.34 257.82 184.88 258.74 
M 192.62 252.66 189.97 251.93 188.65 251.77 186 251.92 183.36 252.63 
M 188.27 246.53 186.43 246.03 184.59 245.91 181.83 246.51 
M 180.63 258.78 177.61 257.13 176.05 256.56 174.44 256.2 172.78 256.04 169.36 256.22 
M 177.15 251.61 174.84 250.35 172.41 249.63 171.14 249.51 168.51 249.65 
M 173.68 244.44 171.24 243.26 169.5 242.98 167.67 243.08 
M 165.33 254.55 162.73 250.43 161.25 248.55 159.61 246.8 157.82 245.21 153.87 242.37 
M 161.16 243.47 159.47 240.79 158.51 239.56 156.28 237.39 153.71 235.55 
M 341.69 214.62 346.47 222.99 345.76 223.52 339.11 216.54 
M 328.8 218.22 334.12 227.18 333.41 227.72 326.24 220.16 
M 315.93 221.91 323.04 232.49 322.35 233.05 313.44 223.93 
M 303.33 226.4 312.8 240.08 312.11 240.64 300.83 228.4 
M 290.52 230 301.38 249.25 300.63 249.73 287.81 231.72 
M 277.32 231.74 289.32 258.28 288.52 258.68 274.45 233.18 
M 264.01 232.54 278.02 267.55 277.21 267.9 261.06 233.82 
M 246.91 232.73 264.11 277.4 263.28 277.74 243.95 233.96 
M 345.09 222.82 342.21 222.49 339.47 222.68 338.2 223.07 336.98 223.65 335.81 224.42 333.59 226.29 
M 332.69 226.96 329.94 226.9 327.39 227.34 326.24 227.83 325.17 228.52 324.18 229.38 322.33 231.43 
M 321.46 232.14 318.68 232.65 316.2 233.61 315.13 234.34 314.18 235.25 313.34 236.31 311.86 238.72 
M 310.98 239.42 307.92 240.25 305.18 241.52 304 242.4 302.94 243.45 301.99 244.65 300.29 247.32 
M 299.34 247.93 296.2 248.69 294.73 249.22 293.36 249.9 292.12 250.75 289.97 252.97 288.12 255.62 
M 287.12 256.13 284.09 256.97 282.69 257.53 281.39 258.25 280.23 259.13 278.26 261.37 276.62 264.05 
M 275.59 264.5 272.04 265.41 268.78 266.77 267.31 267.7 265.96 268.82 264.7 270.09 262.39 272.94 
M 343.64 222.62 340.81 222.5 339.47 222.68 338.2 223.07 336.98 223.65 334.69 225.32 
M 331.3 226.9 328.63 227.03 327.39 227.34 326.24 227.83 325.17 228.52 323.24 230.37 
M 320.05 232.37 317.38 233.06 316.2 233.61 315.13 234.34 314.18 235.25 312.58 237.48 
M 309.43 239.81 306.5 240.81 305.18 241.52 304 242.4 302.94 243.45 301.12 245.96 
M 297.75 248.28 294.73 249.22 293.36 249.9 292.12 250.75 290.99 251.78 289.02 254.27 
M 292.42 242.46 290.46 243.07 289.57 243.52 288.03 244.74 286.75 246.35 
M 285.58 256.52 282.69 257.53 281.39 258.25 280.23 259.13 279.19 260.17 277.42 262.68 
M 281.76 250.99 279.54 251.77 278.55 252.31 276.86 253.79 275.5 255.71 
M 277.94 245.46 276.4 246 275.09 246.85 273.59 248.74 
M 273.8 264.92 270.36 266.01 268.78 266.77 267.31 267.7 265.96 268.82 263.52 271.48 
M 270.33 259.38 267.49 260.28 266.19 260.9 263.86 262.6 261.85 264.79 
M 266.86 253.84 264.63 254.55 263.6 255.04 261.77 256.37 260.18 258.11 
M 263.39 248.3 261.01 249.18 259.67 250.15 258.51 251.42 
M 368.89 160.02 371.02 158.12 372.82 155.78 374.7 153.88 378.22 149.56 381.74 144.23 383.64 142.03 386.77 137.94 388.62 136.26 390.56 134.85 392.43 132.63 393.59 130.52 395.82 128.63 400.35 125.21 402.18 123.6 404.18 120.55 406.36 118.28 408.93 116.49 411.14 114.03 413.42 113.18 415.14 111.38 417.43 110.62 421.8 108.73 424.52 108.28 427.54 106.27 433.19 103.14 434.99 101.96 437.5 101.29 440.7 100.07 442.82 98.12 445.77 96.89 448.15 96.1 450.21 96.51 452.04 95.94 458.41 94.71 461.76 93.23 465 91.2 467.88 89.62 469.5 89.61 471.6 89.82 473.81 89.56 477.78 88.24 480.78 87.83 483.28 87.75 485.06 88.38 489.59 100.17 489.89 103.76 489.44 106.59 488.18 108.62 487.15 110.87 486.69 113.7 485.93 116.24 484.34 117.95 483.36 120.26 482.46 125.97 481.31 128.12 480.47 130.58 478.95 132.85 477.79 135.46 476.12 137.56 474.07 139.29 471.75 140.75 469.03 141.8 467.12 143.67 465.34 145.67 463.73 147.83 462.74 150.61 458.24 153.66 455.02 157.97 449.58 163.59 446.17 163.75 443.29 164.43 440.66 165.37 438.54 166.81 436.89 168.72 431.53 170.47 428.61 171.01 426.74 172.61 421.76 174.54 419.81 176.06 417.14 176.84 414.26 177.43 411.67 178.29 409.7 179.9 410.69 182.45 415.84 185.04 422.45 189.09 426.64 190.72 431.6 193.13 433.22 193.67 437.22 195.51 441.48 197.61 444.23 199.29 451.12 203.01 457.8 207.87 459.97 209.14 463.47 210.82 466 212.45 467.72 213.26 474.78 223 475.69 224.63 478.9 229.26 480.81 233.81 481.39 235.88 484.08 241.55 484.65 245.11 487.14 251.55 487.96 254.37 488.48 256.9 490 261.25 486.41 273.89 484.57 273.55 478.88 272.97 476 272.07 472.68 271.53 469.31 270.01 466.39 268.96 462.86 269.17 460.56 268.2 458.98 266.32 456.51 264.07 450.39 261.8 445.9 260.81 443.29 259.94 440.9 258.73 438.75 257.92 436.7 258.15 434.08 257.2 431.76 255.61 430.3 254.13 425.29 251.51 422.06 249.45 418.9 248.43 416.71 246.49 414.06 244.92 413.05 242.9 411.25 241.27 407.91 240.79 405.12 239.2 403.33 237.38 400.16 232.93 398.12 230.71 394.44 225.31 390.88 221.55 388.99 218.72 386.75 217.13 385.08 214.95 383.16 213 381.11 210.31 376.59 202.8 374.58 200.17 368.89 192.07 
M 368.89 162.2 371.29 160.55 373.3 158.64 381.22 150.62 385.5 145.94 389.87 142.39 391.99 140.95 394.15 139.1 396.35 137.58 399.57 133.72 401.52 132.24 403.29 130.38 405.85 128.51 407.85 126.59 413.52 123.25 416.07 122.61 420.71 120.79 423.49 117.91 425.04 116.93 428.57 116.75 432.01 115.34 434.8 115.28 
M 371.59 163.05 373.84 161.6 380.01 156.05 385.08 152.17 387.15 150.23 389.38 149.12 391.99 147.24 394.5 145.75 396.52 144.63 398.66 143.72 406.02 138.66 408.65 136.34 410.76 135.14 412.18 133.52 416.43 131.75 419.32 129.96 422.41 129.43 424.85 128.4 426.34 126.72 
M 368.89 166.57 371.82 165.44 376.76 163.15 379.18 161.73 381.5 159.86 386.44 156.35 388.48 154.39 396.42 150.33 403.34 148.07 406.02 146.98 408.33 144.86 412.13 143.46 415.21 141.44 417.27 139.69 422.28 138.49 425.51 136.46 428.52 137.19 430.96 136.71 433.44 136.46 442.34 135.95 444.97 134.89 
M 377.16 166.16 385.3 162.58 390.76 159.33 393.35 158.01 395.84 157.16 398.62 155.77 403.47 154.21 406.63 153.66 408.37 151.98 410.91 151.47 414.7 151.64 417.07 150.9 
M 368.89 170.93 377.8 169.26 383.55 167.92 392.02 164.69 394.63 164.2 397.5 164.21 399.84 163.2 401.43 161.58 406.37 160.9 410.09 160.88 417.02 159.99 420.27 158.19 422.84 157.51 425.83 157.46 429.96 158.56 433.09 159.76 
M 368.89 173.12 372.61 173.09 375.51 172.56 381.13 171.86 383.95 171.12 390.56 171.22 398.1 169.92 400.53 170.16 402.68 169.95 404.89 169.16 408.12 168.7 411.85 169.76 419.01 169.52 421.56 169.14 422.58 168.52 423.93 168.15 
M 379.83 175.46 382.96 175.91 385.99 176.56 391.37 176.91 393.56 177.37 395.76 177.29 397.31 178.2 403.74 178.6 
M 368.89 177.48 372.91 178.96 379.72 179.94 385.85 181.65 388.52 182.55 391.42 182.79 392.96 183.54 394.97 183.69 397.92 183.54 401.62 183.72 
M 372.5 181.27 375.21 182.71 381.02 184.38 383.74 185.8 386.21 186.65 392.09 188.27 395.54 188.72 398.87 188.54 401.71 189.02 404 189.9 408.64 189.89 411.21 189.62 415.22 190.8 
M 372.2 183.6 377.48 186.43 380.16 187.68 382.6 188.56 388.5 191.8 391.18 193 394.35 193.73 397.63 193.91 399.86 195.42 404.49 197.19 407.51 197.51 410.78 198.73 413.7 198.99 416.18 199.51 418.32 200.3 420.16 200.64 421.89 201.29 425.16 202.21 428.81 202.97 
M 368.89 184.03 379.5 190.96 382.12 192.12 384.54 194.18 387.37 195.94 392.9 197.51 398.52 199.67 401.32 201.22 404 203.69 407.09 204.99 409.2 205.49 413.56 207.46 415.92 208.19 418.68 208.52 420.58 209.94 423.72 210.9 426.65 211.34 430.01 211.46 433.17 211 437.3 211.23 440.2 212.23 442.49 212.7 444.64 213.48 446.7 213.87 
M 371.81 188.34 374.06 190.42 376.39 192.28 384.13 197.64 387.08 198.87 391.3 202.12 393.95 203.11 396.55 204.53 399.29 206.29 404.5 210.54 406.77 211.79 408.92 213.38 410.36 215.2 412.5 216.45 415.62 217.41 418.62 218.86 421.17 220.35 425.76 221.29 428.26 222.16 431.44 223.65 433.32 224.07 436.42 223.86 439.64 222.75 442.01 223.64 444.1 226.06 446.99 227.06 451.79 227.77 454.6 228.68 460.76 229.14 463.12 228.82 465.15 227.98 
M 371.48 190.83 373.59 193.08 378.36 197.1 380.32 199.24 382.97 201.29 387.65 205.31 390 206.56 394.33 209.31 396.92 211.81 399.24 214.33 401.75 216.57 405.34 219 412.12 223.15 414.57 225.23 417.33 227.3 420.1 228.6 422.54 229.11 425.27 230.44 427.75 231.13 430.08 232.64 432.04 234.55 434.31 236.22 437.2 236.37 440.16 236.82 441.82 237.67 444.14 238.02 446.78 238.67 450.06 238.91 452.41 240.32 454.66 240.72 457.37 241.75 460.41 242.1 463.41 241.61 465.79 241.59 468.47 242.19 471.64 244.19 474.42 245.71 
M 373.41 195.59 379.3 202.53 380.98 204.98 385.2 209.68 389.79 212.26 392.33 214.1 394.58 216.33 396.06 219.01 398.01 220.65 399.95 222.76 403.92 226.16 407.77 231.01 409.98 232.39 413.18 233.98 415.12 235.95 417.89 237.21 422.7 239.02 430.82 243.71 438.3 247.05 440.39 248.99 442.04 250.17 445.18 249.78 447.78 250.55 450.5 251.95 453.52 251.6 456.54 252.17 459.13 253.12 461.15 254.32 463.82 254.64 466.38 255.73 
M 283.42 114.55 290.11 120.56 300.86 100.12 302.49 97.97 304.79 96.5 306.67 94.62 308.86 93.07 310.88 92.65 313.28 92.57 316.03 91.96 319.49 92.08 322.15 91.39 327.62 93.29 328.99 94 330.03 95.06 332.59 97.11 335.14 98.48 337.63 98.62 339.82 97.82 342.71 98.59 344.6 101.35 345 103.35 345.12 109.26 346.15 112.95 346.52 115.65 346.2 117.91 346.6 122.53 343.38 137.11 340.4 132.11 
M 287.79 115.39 290.69 114.99 292.39 113.48 293.51 111.52 294.07 109.69 
M 292.17 116.24 295.29 115.5 299.08 111.35 300.71 109.09 301.94 106.42 303.69 104.85 304.81 103.35 305.22 101.19 306.18 98.52 
M 296.47 117.41 299.47 116.19 301.59 114.05 303.76 112.44 305.95 108.12 307.31 106.12 
M 300.75 118.64 303.86 117.33 307.33 113.26 309.35 111.69 309.92 109.42 311.96 107.68 313.43 105.09 319.05 93.89 
M 304.99 120.02 307.64 118.99 310.13 117 311.6 115.22 313.49 113.47 315.07 111.55 316.86 110.18 
M 309.2 121.49 311.44 120.93 313.2 119.19 316.37 115.48 323.72 109.09 325.74 106.1 
M 313.41 122.95 316.03 122.58 317.77 120.87 319.43 118.73 322.91 114.79 325.68 111.27 328.41 109.01 330.08 106.29 331.65 105.23 
M 317.62 124.43 320.09 123.38 321.92 121.7 323.26 119.65 325.11 117.59 326.59 115.54 328.88 113.17 331.17 112.11 332.96 109.25 335.16 107 336.52 104.48 338.41 102.18 339.61 101.92 
M 321.83 125.89 324.39 124.84 326.34 123.09 327.63 120.62 331.8 116.99 333.85 114.85 335.88 113.57 337.72 111.22 339.8 109.09 
M 326.08 127.23 328.82 126.64 333.5 123.61 335.73 121.44 
M 330.33 128.57 334.01 128.31 336.61 127.27 338.53 125.71 340.66 123.58 
M 334.54 130.04 338.32 130.59 340.68 129.47 341.94 127.87 
M 42.6 156.66 43.34 155.73 45.22 154.08 47.53 152.49 53.98 149.39 58.33 147.61 68.54 143.8 74.19 141.78 80.29 139.85 105.45 133.4 111.05 132.07 119.85 130.25 121.95 129.63 125.53 133.72 127.28 138.1 129.27 142.45 131.48 146.78 133.24 151.16 134.39 155.61 136.06 164.57 135.92 169.16 136.13 173.71 136.08 178.29 135.06 187.55 135.42 192.08 135.44 201.23 134.97 205.85 133.84 210.55 131.5 215.31 118.87 214.5 109.56 213.07 101.35 211.04 93.6 208.67 86.48 205.98 80.16 202.93 74.29 199.58 68.67 195.92 63.91 191.8 59.98 187.22 
M 111.25 152.46 111.7 156.28 110.31 163.54 109.26 166.84 106.8 172.92 107.08 178.41 108.79 184.43 109.53 188.05 109.56 192.23 101.14 192.3 94.94 192.09 89.15 191.42 83.24 190.37 77.48 188.83 72.18 186.64 67.16 183.81 
M 58.49 186.67 55.35 182.4 51.75 176.91 39.91 160.43 39.68 158.16 41.24 156.53 43.56 156.76 45.01 158.54 52.46 172.23 57.25 182.2 60.04 187.18 
M 59.55 187.92 52.93 187.17 33.16 183.97 31.14 183.47 30 181.67 30.54 179.53 32.58 178.53 36.95 179.68 51.56 184.65 59.74 187 
M 72.07 159.16 71.06 155.31 71.35 151.33 72.91 147.66 75.58 144.7 79.07 142.77 83 142.07 86.94 142.69 90.46 144.55 93.19 147.46 94.83 151.1 95.2 155.07 94.26 158.94 92.11 162.3 88.99 164.78 85.23 166.11 81.24 166.15 77.46 164.9 74.29 162.48 72.07 159.16 
M 71.93 158.82 71.13 155.93 71.07 152.94 71.75 150.02 73.12 147.35 74.04 146.17 76.28 144.19 77.57 143.42 80.39 142.39 83.37 142.08 84.86 142.2 87.75 143 
M 73.57 158.14 73.16 156.93 72.79 154.4 73.11 151.68 
M 73.75 149.88 74.59 148.36 76.28 146.44 78.39 145 79.56 144.49 80.79 144.12 83.33 143.86 84.61 143.96 87.07 144.64 
M 75.22 157.46 74.88 156.45 74.57 154.36 74.81 152.21 
M 76.85 148.39 78.3 147.13 79.21 146.59 81.19 145.86 83.29 145.64 84.35 145.73 86.39 146.29 
M 76.87 156.77 76.43 155.16 76.5 152.83 
M 78.15 149.61 80.02 148.17 81.59 147.6 82.42 147.46 84.09 147.49 85.71 147.94 
M 78.7 156.18 78.29 154.63 78.37 153.54 
M 79.6 150.95 80.1 150.39 81.5 149.62 83.07 149.34 84.65 149.59 86.06 150.33 87.15 151.5 87.8 152.95 87.95 154.54 87.57 156.09 86.71 157.43 85.47 158.42 83.96 158.96 82.37 158.97 80.85 158.47 79.59 157.5 78.7 156.18 
M 81.5 149.62 80.51 151.59 
M 79.4 153.81 78.53 155.55 
M 82.96 149.36 81.5 152.3 
M 80.58 154.13 79.19 156.91 
M 84.22 149.52 82.39 153.19 
M 81.93 154.1 80.05 157.86 
M 85.34 149.96 81.05 158.54 
M 86.34 150.64 82.2 158.92 
M 87.19 151.6 83.51 158.96 
M 87.81 153.04 85.04 158.57 
M 45.1 154.19 48.78 157.87 
M 48.34 152.08 53.22 156.96 
M 51.94 150.33 56.31 154.7 
M 55.66 148.7 59.96 153 
M 59.49 147.18 64.22 151.91 
M 63.41 145.75 68.6 150.95 
M 67.28 144.28 72.24 149.24 
M 71.2 142.85 74.38 146.03 
M 75.17 141.47 77.4 143.7 
M 79.23 140.18 81.41 142.36 
M 83.48 139.08 87.27 142.87 
M 87.76 138.01 92.3 142.55 
M 91.96 136.86 95.61 140.51 
M 96.21 135.76 100.59 140.14 
M 100.48 134.68 105.68 139.88 
M 104.73 133.58 109.24 138.1 
M 109.04 132.55 113.35 136.85 
M 113.44 131.6 117.74 135.9 
M 117.87 130.68 122.56 135.37 
M 134.77 173.42 136.11 174.92 
M 108.53 144.12 107.7 143.91 107.06 143.51 104.01 140.99 103.21 140.11 101.8 138.05 100.44 136.66 98.26 135.25 
M 77.11 198.19 77.87 197.14 78.34 196.88 80.62 196.44 81.57 195.6 81.91 194.93 82.55 192.03 82.72 190.29 
M 85 202.88 86.11 201.96 86.76 201.75 87.2 201.97 87.25 202.8 
M 113.25 193.16 111.57 193.27 108.69 192.5 104.41 190.16 103.09 188.59 
M 88.09 206.59 88.66 206.01 
M 72.95 144.95 74.67 145.72 
M 76.85 190.1 77.07 190.38 77.71 190.65 79.04 190.64 81.05 189.84 81.47 189.44 81.59 188.92 
M 73.01 192.96 73.79 193.44 
M 113.95 152.89 112.59 153.84 110.76 155.94 109.84 156.72 107.66 158.44 106.69 158.96 105.65 159.04 102.59 158.58 
M 88.89 176.69 88.3 175.96 86.58 174.72 84.63 173.94 80.34 172.68 79.94 172.33 79.53 170.83 79.03 169.98 
M 70.13 171.22 71.17 170.69 71.71 170.63 
M 94.33 158.66 95.7 158.89 96.11 158.61 96.24 158.23 
M 117.97 133.04 119.06 131.71 119.85 130.25 
M 104.58 198.17 104.7 197.36 104.61 196.48 103.7 192.66 103.4 191.91 102.3 190.26 102.14 189.24 
M 84.92 187.29 82.13 186.23 81.51 186.3 80.95 186.75 
M 108.56 184.99 107.07 183.84 106.17 183.46 105.11 183.44 103.19 183.81 101.25 184.69 99.06 186 96.82 188.34 
M 116.95 185.71 118.01 185.05 118.51 184.37 119.31 182.55 119.95 181.8 120.98 181.48 122.68 181.76 
M 76.32 196.46 76.51 195.92 76.79 195.71 79.75 194.98 80.36 194.63 81.43 193.37 
M 103.7 164.03 101.83 165.33 101.03 166.18 100.79 166.71 100.5 168.37 99.48 170.78 
M 124 147.06 122.84 147.36 121.8 148.22 119.19 152.12 118.74 153.27 118.67 154 
M 127.48 175.4 126.41 175.37 124.46 175.72 123.24 174.62 
M 78.31 165.18 77.53 166.15 
M 80.66 186.04 79.72 187.47 79.55 187.87 79.61 188.15 80.12 188.37 80.66 188.37 81.34 188.01 
M 105.48 144.37 102.47 141.26 100.51 138.33 99.79 137.48 98.32 136.27 97.74 135.38 
M 113.15 201.74 112.33 201.93 110.28 203.12 108.38 203.78 
M 58.82 185.02 59.48 184.35 60.45 182.73 60.96 182.15 64.1 180.69 64.56 180.23 65.31 178.9 65.53 178.05 65.45 176.04 
M 119.06 170.16 119.55 170.96 121.32 172.61 122.83 174.31 
M 70.43 186.92 70.52 187.67 70.27 187.85 69.9 187.79 
M 75.63 199.62 76 195.57 76.22 195.27 76.96 195.23 
M 77.99 176.51 78.72 176.49 
M 57.29 178.56 58.52 179.55 59.44 180 61.06 179.85 62.69 179.32 63.75 178.78 64.43 177.79 64.55 177.09 
M 111.16 199.55 110.72 199.94 109.96 201.09 109.34 201.62 108.56 201.71 108.22 201.2 
M 119.76 140.99 120.8 140.72 121.02 141.06 
M 60.04 187.3 60.38 186.8 
M 91.53 145.7 92.17 145.48 92.71 145.03 94.4 142.39 95.57 139.4 96.05 136.46 
M 123.7 158.47 123.23 159.35 123.33 160.95 123.16 161.68 
M 109.87 171.21 111.52 172.05 112.34 172.06 113.15 171.82 113.83 170.8 
M 76.77 186.06 75.99 186.94 75.07 189.3 74.02 190.87 73.14 191.84 
M 117.79 137.49 118.8 137.19 120.46 136.98 122.63 137.52 123.3 137.4 124.23 136.98 
M 92.99 206.17 92.64 208.3 
M 94.52 157.87 96.02 157.92 96.29 157.38 
M 77.5 171.09 77.5 170.41 77.07 170.34 
M 99.85 208.16 98.81 206.92 98.54 206.27 98.44 205.59 98.9 204.04 99.57 203.31 101.4 202.22 102.98 200.81 103.78 199.26 104.11 197.99 
M 50.8 167.1 50.02 167.67 
M 60.02 187.2 60.68 188.25 
M 55.6 182.75 55.61 182.75 
M 51.58 176.68 51.31 177.01 51 178.01 51.59 177.46 52.03 177.35 
M 47.61 171.21 46.93 171.88 46.4 173.26 47.22 172.33 48.17 171.99 
M 43.72 165.72 42.55 166.75 41.8 168.52 42.84 167.21 44.34 166.57 
M 39.89 160.2 38.18 161.62 37.2 163.77 38.46 162.08 40.45 161.15 
M 59.66 187.37 61.07 187.69 
M 53.05 185.1 53.99 184.36 53.89 184.85 54.03 185.39 
M 46.33 182.92 46.79 182.02 47.77 181.23 47.31 182.14 47.35 183.27 
M 39.68 180.59 40.22 179.31 41.55 178.09 40.74 179.43 40.66 180.95 
M 32.91 178.61 33.64 176.6 35.33 174.96 34.16 176.72 33.97 178.85 
M 38.19 184.88 46.23 189.73 50.66 192.03 55.14 194.08 59.74 195.8 64.49 197.23 74.29 199.58 
M 50.76 192.08 50.37 190.88 50.35 190.35 50.65 189.17 
M 128.47 140.71 129.58 141.82 
M 123.58 128.69 133.11 138.22 
M 128.26 126.24 135.88 133.86 
M 133.17 124.01 139.42 130.26 
M 138.56 122.27 145.72 129.43 
M 144.3 120.88 151.75 128.33 
M 150.34 119.79 157.86 127.31 
M 156.49 118.8 164.08 126.4 
M 162.45 117.63 170.31 125.5 
M 168.16 116.21 175.61 123.66 
M 173.87 114.79 182.49 123.41 
M 179.62 113.41 186.06 119.85 
M 185.65 112.3 192.42 119.08 
M 191.94 111.46 198.37 117.89 
M 198.49 110.88 207.68 120.07 
M 205.33 110.59 215.78 121.04 
M 212.28 110.41 221.5 119.63 
M 219.4 110.39 228.95 119.95 
M 226.71 110.57 234.61 118.48 
M 233.95 110.69 239.51 116.25 
M 240.9 110.5 249.36 118.96 
M 247.83 110.3 255.84 118.31 
M 255 110.34 261.95 117.29 
M 263.04 111.24 270.02 118.22 
M 271.42 112.49 278.98 120.05 
M 280.01 113.95 288.65 122.59 
M 288.77 115.58 298.22 125.03 
M 298.24 117.92 306.46 126.13 
M 308.8 121.35 316 128.55 
M 319.76 125.18 328.91 134.32 
M 330.28 128.56 336.82 135.1 
M 341.54 132.69 348.09 139.24 
M 132.79 212.69 133.55 214.21 
M 134.56 209.99 136.15 213.18 
M 150.35 216.62 151.15 218.22 
M 153.68 217.03 156.07 221.81 
M 136.97 177.37 137.76 178.96 
M 155.31 214.04 157.7 218.83 
M 137.8 172.79 138.12 173.43 
M 159.33 215.84 160.12 217.44 
M 163.35 217.64 165.74 222.43 
M 122.32 129.35 123.13 130.98 
M 137.87 160.45 138.67 162.05 
M 141.86 168.42 143.45 171.61 
M 124.79 128.06 125.19 128.86 
M 128.38 135.23 134.76 147.99 
M 137.15 152.78 138.75 155.97 
M 140.34 159.16 146.72 171.91 
M 131.65 135.53 135.64 143.51 
M 140.42 153.08 141.22 154.67 
M 145.21 162.65 149.19 170.62 
M 129.74 125.47 130.14 126.27 
M 134.92 135.83 137.31 140.62 
M 138.11 142.21 141.3 148.59 
M 142.1 150.19 144.49 154.97 
M 149.27 164.54 153.26 172.51 
M 132.28 124.3 134.27 128.29 
M 137.46 134.67 139.85 139.45 
M 140.65 141.05 146.23 152.21 
M 151.81 163.37 156.69 173.12 
M 134.96 123.43 137.75 129.01 
M 140.14 133.8 148.12 149.75 
M 154.5 162.5 159.28 172.07 
M 137.65 122.56 141.24 129.74 
M 142.83 132.93 149.21 145.69 
M 157.98 163.23 161.17 169.61 
M 140.33 121.7 152.69 146.41 
M 162.26 165.55 163.86 168.74 
M 143.15 121.09 149.13 133.05 
M 149.93 134.65 154.71 144.22 
M 164.28 163.35 166.68 168.14 
M 146.01 120.57 150.4 129.35 
M 152.79 134.13 158.37 145.29 
M 166.35 161.24 167.94 164.43 
M 148.87 120.05 153.26 128.83 
M 155.65 133.61 161.23 144.77 
M 166.81 155.94 170 162.32 
M 175.59 173.48 175.89 174.08 
M 151.75 119.56 164.9 145.87 
M 168.89 153.85 172.08 160.23 
M 178.46 172.99 179.09 174.24 
M 202.38 220.83 204.77 225.61 
M 154.64 119.1 168.59 147.01 
M 173.37 156.58 177.36 164.55 
M 180.55 170.93 182.29 174.4 
M 202.88 215.58 203.68 217.18 
M 208.46 226.75 209.26 228.34 
M 157.53 118.64 171.48 146.55 
M 175.47 154.52 182.64 168.87 
M 184.24 172.06 185.49 174.56 
M 204.97 213.53 207.36 218.31 
M 215.44 234.47 215.95 235.48 
M 160.4 118.14 174.35 146.05 
M 176.74 150.83 183.12 163.59 
M 183.92 165.19 184.72 166.78 
M 187.91 173.16 188.69 174.72 
M 208.64 214.62 211.03 219.41 
M 218.35 234.04 218.88 235.11 
M 163.17 117.45 171.55 134.2 
M 173.94 138.98 177.92 146.95 
M 179.52 150.14 185.1 161.31 
M 190.68 172.47 191.89 174.88 
M 165.95 116.76 170.33 125.53 
M 171.93 128.72 175.12 135.1 
M 178.31 141.48 179.11 143.08 
M 181.5 147.86 182.29 149.45 
M 192.66 170.19 194.26 173.38 
M 221.37 227.6 223.76 232.38 
M 168.72 116.07 170.72 120.06 
M 176.3 131.22 179.49 137.6 
M 193.84 166.31 198.29 175.2 
M 216.32 211.26 216.97 212.55 
M 224.94 228.5 225.74 230.1 
M 175.88 124.15 176.68 125.75 
M 184.66 141.7 189.44 151.26 
M 195.82 164.02 201.49 175.36 
M 174.27 114.69 193.01 152.17 
M 193.81 153.76 194.61 155.36 
M 199.39 164.93 204.69 175.52 
M 177.05 114 197.38 154.67 
M 206.15 172.21 207.89 175.68 
M 179.85 113.37 200.98 155.63 
M 203.37 160.41 204.17 162.01 
M 209.75 173.17 211.09 175.84 
M 181.51 110.44 188.29 123.99 
M 190.68 128.78 203.44 154.3 
M 212.21 171.84 213.8 175.03 
M 183.37 107.93 189.75 120.69 
M 193.74 128.66 205.7 152.58 
M 239.19 219.56 239.99 221.16 
M 184.44 103.83 192.82 120.57 
M 196.8 128.55 208.76 152.47 
M 210.36 155.66 213.55 162.04 
M 186.31 101.32 195.88 120.45 
M 199.07 126.83 201.46 131.62 
M 202.26 133.21 216.61 161.92 
M 188.57 99.61 198.14 118.74 
M 201.33 125.12 202.93 128.31 
M 205.32 133.1 208.51 139.48 
M 209.31 141.07 214.89 152.23 
M 215.68 153.83 219.67 161.8 
M 223.66 169.78 224.46 171.37 
M 189.24 94.71 190.84 97.89 
M 191.63 99.49 200.41 117.03 
M 201.2 118.63 202 120.22 
M 206.79 129.79 208.38 132.98 
M 210.77 137.76 216.35 148.93 
M 219.54 155.31 221.14 158.5 
M 222.73 161.69 228.31 172.85 
M 229.11 174.44 230.29 176.79 
M 256.22 228.67 257.99 232.2 
M 193.1 96.18 205.06 120.1 
M 205.86 121.7 206.66 123.29 
M 209.85 129.67 211.44 132.86 
M 213.04 136.05 219.42 148.81 
M 220.21 150.41 233.49 176.95 
M 258.49 226.95 260.08 230.14 
M 196.16 96.07 211.31 126.37 
M 212.11 127.96 213.71 131.15 
M 214.5 132.75 223.27 150.29 
M 226.46 156.67 236.69 177.11 
M 261.55 226.84 263.14 230.03 
M 199.23 95.95 215.17 127.84 
M 218.36 134.22 223.94 145.39 
M 231.12 159.74 233.51 164.52 
M 235.91 169.31 239.89 177.27 
M 194.71 80.68 196.71 84.67 
M 201.49 94.24 202.29 95.83 
M 203.09 97.43 211.06 113.38 
M 213.45 118.16 218.24 127.73 
M 220.63 132.51 227.8 146.87 
M 231.79 154.84 232.59 156.43 
M 233.39 158.03 236.58 164.41 
M 259.7 210.66 260.5 212.25 
M 196.18 77.38 198.97 82.96 
M 207.74 100.5 213.32 111.66 
M 214.92 114.85 229.27 143.56 
M 234.06 153.13 238.84 162.7 
M 262.76 210.54 263.56 212.13 
M 197.65 74.07 202.83 84.44 
M 210.8 100.38 212.4 103.57 
M 213.99 106.76 214.79 108.36 
M 215.59 109.95 233.93 146.63 
M 236.32 151.42 245.89 170.55 
M 265.82 210.42 267.42 213.61 
M 268.21 215.21 269.81 218.4 
M 199.11 70.76 205.89 84.32 
M 211.47 95.48 214.66 101.86 
M 219.45 111.43 220.24 113.02 
M 221.84 116.21 233 138.54 
M 236.19 144.92 236.99 146.51 
M 238.58 149.7 241.77 156.08 
M 243.37 159.27 246.56 165.65 
M 268.09 208.71 274.47 221.47 
M 200.58 67.46 208.16 82.61 
M 212.94 92.18 218.52 103.34 
M 222.51 111.31 240.05 146.4 
M 240.85 147.99 243.24 152.78 
M 271.95 210.19 275.93 218.16 
M 202.05 64.15 203.24 66.54 
M 205.64 71.33 211.22 82.49 
M 215.2 90.46 221.58 103.22 
M 223.18 106.41 242.32 144.69 
M 243.91 147.88 249.49 159.04 
M 271.82 203.69 276.6 213.26 
M 203.52 60.84 206.31 66.43 
M 209.5 72.81 215.87 85.56 
M 218.27 90.35 224.65 103.11 
M 226.24 106.3 244.58 142.97 
M 246.17 146.16 250.16 154.14 
M 272.67 199.15 275.68 205.17 
M 204.98 57.54 209.37 66.31 
M 211.76 71.09 218.94 85.45 
M 220.53 88.64 226.11 99.8 
M 229.3 106.18 253.22 154.02 
M 258.01 163.59 261.2 169.97 
M 265.18 177.94 265.49 178.55 
M 275.16 197.9 278.74 205.05 
M 206.45 54.23 212.43 66.19 
M 214.82 70.98 221.2 83.74 
M 223.59 88.52 249.91 141.15 
M 251.5 144.34 255.49 152.31 
M 257.88 157.09 264.26 169.85 
M 268.25 177.83 268.69 178.71 
M 279.41 200.15 280.21 201.75 
M 207.92 50.93 215.49 66.08 
M 217.88 70.86 221.07 77.24 
M 224.26 83.62 249.78 134.65 
M 253.77 142.62 256.16 147.41 
M 260.14 155.38 266.52 168.14 
M 271.31 177.71 271.89 178.87 
M 209.38 47.62 215.36 59.58 
M 221.22 71.29 223.61 76.08 
M 226.01 80.86 228.4 85.65 
M 230.79 90.43 249.93 128.71 
M 250.72 130.3 251.52 131.9 
M 256.31 141.46 257.9 144.65 
M 263.48 155.82 272.25 173.36 
M 236.38 95.38 239.97 102.56 
M 240.77 104.15 241.57 105.75 
M 242.37 107.34 252.73 128.07 
M 255.12 132.86 261.5 145.62 
M 270.27 163.16 274.26 171.13 
M 292.6 207.81 294.19 211 
M 245.69 107.75 257.65 131.68 
M 259.25 134.87 264.83 146.03 
M 273.6 163.57 276.79 169.95 
M 294.33 205.03 298.32 213.01 
M 303.9 224.17 304.99 226.35 
M 247.69 105.5 248.96 108.06 
M 252.88 115.89 260.86 131.84 
M 262.45 135.03 268.03 146.19 
M 277.6 165.33 279.99 170.12 
M 297.53 205.2 299.93 209.98 
M 307.16 224.46 307.62 225.38 
M 255.21 114.31 269.56 143.02 
M 279.93 163.75 283.12 170.13 
M 301.46 206.81 303.05 210 
M 256.42 110.5 271.18 140 
M 271.97 141.6 272.77 143.19 
M 282.34 162.33 284.73 167.11 
M 296.44 190.52 299.08 195.82 
M 305.46 208.58 307.86 213.36 
M 259.73 110.87 265.71 122.83 
M 266.51 124.43 276.08 143.56 
M 277.67 146.75 278.47 148.35 
M 279.27 149.94 280.86 153.13 
M 284.05 159.51 285.65 162.7 
M 293.62 178.65 294.29 179.99 
M 300 191.41 300.8 193 
M 263.04 111.24 267.42 120.01 
M 270.61 126.39 277.79 140.74 
M 278.59 142.34 288.95 163.07 
M 296.13 177.42 297.49 180.15 
M 266.39 111.7 269.18 117.29 
M 273.96 126.85 277.95 134.83 
M 281.94 142.8 285.13 149.18 
M 286.72 152.37 292.3 163.53 
M 294.69 168.32 300.69 180.31 
M 305.22 189.37 309.05 197.02 
M 269.77 112.23 272.56 117.81 
M 277.35 127.38 286.92 146.52 
M 290.11 152.9 297.28 167.25 
M 298.88 170.44 302.07 176.82 
M 308.44 189.58 312.43 197.55 
M 273.16 112.76 275.15 116.75 
M 279.93 126.32 281.53 129.5 
M 283.12 132.69 289.5 145.45 
M 294.29 155.02 299.87 166.18 
M 301.46 169.37 303.06 172.56 
M 303.86 174.16 306.25 178.94 
M 310.23 186.92 313.42 193.3 
M 314.22 194.89 315.82 198.08 
M 276.57 113.34 279.36 118.93 
M 282.55 125.3 292.12 144.44 
M 296.1 152.42 301.69 163.58 
M 307.27 174.74 308.86 177.93 
M 312.85 185.91 317.63 195.47 
M 279.99 113.94 283.58 121.12 
M 284.37 122.72 291.55 137.07 
M 300.32 154.61 304.31 162.58 
M 309.09 172.15 311.49 176.94 
M 313.08 180.13 313.49 180.94 
M 314.58 183.13 314.67 183.32 
M 316.27 186.51 317.07 188.1 
M 283.41 114.54 294.97 137.67 
M 303.74 155.21 306.13 160 
M 310.92 169.56 312.51 172.75 
M 314.11 175.94 314.91 177.54 
M 315.7 179.13 316.69 181.1 
M 317.29 182.32 318.1 183.92 
M 286.86 115.21 291.25 123.98 
M 292.05 125.58 297.63 136.74 
M 301.62 144.72 302.41 146.31 
M 306.4 154.29 308.79 159.07 
M 316.77 175.02 319.16 179.8 
M 290.32 115.88 293.11 121.46 
M 294.7 124.65 301.08 137.41 
M 308.26 151.76 310.65 156.55 
M 315.44 166.12 316.23 167.71 
M 317.83 170.9 322.61 180.47 
M 293.82 116.65 295.81 120.63 
M 297.41 123.82 305.38 139.77 
M 308.57 146.15 312.56 154.12 
M 317.34 163.69 324.52 178.04 
M 327.71 184.42 328.51 186.02 
M 331.7 192.4 333.29 195.59 
M 297.47 117.7 298.66 120.09 
M 299.46 121.68 309.03 140.82 
M 310.62 144.01 314.61 151.98 
M 320.19 163.15 332.15 187.07 
M 332.95 188.66 336.94 196.64 
M 344.11 210.99 345.38 213.53 
M 301.11 118.75 311.88 140.28 
M 313.47 143.47 319.05 154.63 
M 321.45 159.41 335 186.53 
M 338.19 192.9 338.99 194.5 
M 345.37 207.26 346.16 208.85 
M 346.96 210.45 347.97 212.47 
M 304.84 119.97 314.01 138.31 
M 317.2 144.69 337.14 184.56 
M 344.31 198.91 349.1 208.48 
M 308.62 121.28 316.2 136.43 
M 318.59 141.22 327.36 158.76 
M 329.75 163.55 337.73 179.49 
M 340.12 184.28 340.91 185.87 
M 346.5 197.04 348.09 200.23 
M 350.48 205.01 352.93 209.91 
M 312.4 122.6 313.6 124.99 
M 315.99 129.78 327.95 153.7 
M 332.73 163.27 340.71 179.21 
M 342.3 182.4 343.1 184 
M 350.27 198.35 351.87 201.54 
M 352.67 203.14 354.26 206.33 
M 316.18 123.92 317.38 126.32 
M 320.57 132.69 322.16 135.88 
M 323.76 139.07 325.35 142.26 
M 326.15 143.86 328.54 148.64 
M 334.92 161.4 336.51 164.59 
M 337.31 166.18 338.11 167.78 
M 340.5 172.56 342.89 177.35 
M 346.08 183.73 346.88 185.32 
M 354.06 199.67 354.85 201.27 
M 319.96 125.25 321.16 127.64 
M 325.94 137.21 326.74 138.8 
M 336.31 157.94 342.69 170.7 
M 357.04 199.4 358.64 202.59 
M 326.49 132.06 332.07 143.22 
M 336.85 152.79 345.63 170.33 
M 350.41 179.9 351.21 181.5 
M 359.18 197.44 359.98 199.04 
M 360.78 200.63 361.47 202.03 
M 327.4 127.65 337.37 147.58 
M 341.36 155.56 348.53 169.91 
M 350.13 173.1 350.93 174.69 
M 358.9 190.64 363.03 198.89 
M 331.12 128.83 340.29 147.17 
M 342.68 151.95 345.07 156.74 
M 348.26 163.12 352.25 171.09 
M 353.84 174.28 354.64 175.88 
M 362.61 191.82 365.36 197.31 
M 334.91 130.17 344.08 148.51 
M 344.87 150.11 346.47 153.29 
M 352.05 164.46 354.44 169.24 
M 356.83 174.03 359.23 178.81 
M 366.58 193.51 367.15 194.65 
M 338.7 131.51 345.47 145.07 
M 354.24 162.61 356.64 167.39 
M 359.83 173.77 361.42 176.96 
M 367.8 189.72 368.89 191.9 
M 342.7 133.27 348.68 145.23 
M 346.87 135.37 351.25 144.14 
M 352.05 145.74 355.24 152.12 
M 351.24 137.87 358.81 153.02 
M 356.13 141.43 362.12 153.39 
M 365.3 159.77 366.9 162.96 
M 366.57 156.06 368.89 160.7 
"/></svg>