<svg xmlns="http://www.w3.org/2000/svg" width="520" height="320"><rect x="0" y="0" width="520" height="320" fill="floralwhite"/><rect x="10" y="10" width="500" height="300" stroke="black" stroke-width="1" fill="none"/><path stroke="black" stroke-width="1" fill="none" stroke-linecap="round" stroke-linejoin="round" d="
M 135.63 127.86 155.38 118.96 165.24 114.92 175.11 111.24 194.83 104.49 204.7 101.75 214.56 99.75 224.43 98.24 254.02 97.5 263.88 98.81 273.74 101.41 283.61 104.61 303.34 111.75 313.2 115.14 323.06 119.07 352.65 132.67 392.11 149.71 
M 392.11 201.25 362.52 216.9 352.65 221.92 342.79 226.5 332.93 230.86 323.06 234.62 303.34 241.61 293.47 244.18 283.61 246.42 273.74 248.44 263.88 249.5 254.02 250.22 244.15 249.91 234.29 249.92 224.43 250.16 214.56 248.72 204.7 246.38 194.83 243.65 184.97 240.63 175.11 238.01 165.24 234.9 155.38 230.94 145.55 226.34 
M 136.69 129.39 137.9 126.85 
M 145.98 150.74 146.42 149.53 146.42 146.4 144.61 141.35 141.81 136.89 140.08 135.51 
M 151.32 173.99 151.62 173.25 151.62 170.51 149.85 166.08 149.05 164.95 
M 150.85 212.65 151.69 211.18 151.69 209.07 149.52 205.44 
M 143.52 144.46 144.88 142.24 
M 144.88 142.24 145.69 140.92 147.47 135.83 147.47 132.69 145.69 127.6 143.65 124.28 
M 139.1 131.26 144.2 130.15 
M 139.76 134.58 144.03 134.63 
M 140.76 137.52 142.08 137.84 
M 142.08 137.84 144.59 138.45 
M 149.74 173.51 151.51 171.83 153.79 167.53 155.25 162.67 155.25 159.65 153.79 154.79 151.51 150.49 149.74 148.81 
M 148.01 158.78 152.63 157.76 
M 148.47 161.39 152.72 161.43 
M 148.94 164.16 152.6 165.13 
M 153.67 173.95 153.24 173.26 151.49 171.87 
M 151.84 211.39 153.69 210.13 156.07 206.91 156.87 204.99 
M 154.91 204.9 155.24 204.98 
M 153.15 213.41 151.6 211.72 149.51 210.57 
M 145.99 136.55 148.89 135.07 152.6 131.27 154.99 126.98 154.99 124.32 152.69 120.19 
M 147.31 122.63 150.82 122.2 
M 143.62 125.96 150.69 126.06 
M 142.95 128.17 150.91 128.75 
M 154.73 158.71 157.67 154.81 159.66 150.16 159.66 147.29 157.67 142.64 154.57 138.53 152.15 136.93 
M 150.18 146.7 156.31 145.17 
M 149.78 148.85 156.07 149.16 
M 151.67 151.29 155.9 152.2 
M 162.46 173.79 162.85 172.81 162.85 170.14 161.12 165.82 158.42 162.01 156.32 160.53 
M 154.07 169.02 159.28 168.35 
M 153.99 171.89 159.93 171.12 
M 154.66 173.54 155.92 173.91 
M 162.06 216.02 164.26 212.14 164.26 209.92 162.43 206.5 
M 154.7 209.24 160.42 208.16 
M 154.52 211.17 160.74 211.35 
M 154.66 212.44 160.96 213.82 
M 154.13 126.45 154.81 126.12 158.17 122.85 160.34 119.15 160.34 116.93 
M 152.75 120.16 156.75 120.48 
M 156.67 149.41 159.01 147.91 162.01 144.08 163.94 139.73 163.94 137.05 162.01 132.7 159.01 128.87 156.67 127.37 
M 154.51 135.98 160.48 134.96 
M 154.69 138.81 160.41 138.39 
M 154.34 140.81 160.71 141.47 
M 161.43 172.01 163.21 170.52 165.5 166.73 166.97 162.42 166.97 159.76 165.5 155.46 163.21 151.66 161.43 150.18 
M 159.89 159.3 164.35 157.54 
M 159.9 160.75 164.19 161.11 
M 159.44 163.38 164.66 164.49 
M 164.99 173.74 164.32 172.64 162.63 171.25 
M 163.57 211.94 165.38 210.6 167.85 206.79 
M 168.31 217.56 167.71 216.28 165.14 213.18 163.14 211.97 
M 158.1 119.54 160.97 118.44 164.64 115.64 165.15 114.96 
M 163.25 138.36 164.24 137.88 167.74 134.46 170 130.59 170 128.2 167.74 124.33 164.24 120.91 161.5 119.57 
M 158.79 127.12 165.56 126.86 
M 159.13 129.49 165.68 129.64 
M 161.08 131.94 166.31 132.53 
M 166.45 159.88 167.64 159.16 170.68 155.5 172.64 151.36 172.64 148.8 170.68 144.66 167.64 141 165.27 139.58 
M 163.33 147.66 168.68 146.95 
M 163.25 150.08 168.68 150.16 
M 163.22 152.1 168.99 153.59 
M 173.25 173.59 173.84 172.15 173.84 169.62 172.16 165.52 169.54 161.9 167.49 160.48 
M 165.41 169.21 170.55 168.01 
M 165.58 170.73 170.4 170.98 
M 165.22 173 168.46 173.68 
M 172.66 218.48 174.41 216.46 176.27 212.7 176.27 210.37 174.41 206.61 174.09 206.24 
M 167.37 209.99 173.22 208.87 
M 167.4 211.74 173 211.94 
M 166.93 213.8 172.64 214.62 
M 166.88 129.8 168.96 128.59 171.62 125.51 173.34 122.02 173.34 119.86 171.62 116.37 169.12 113.48 
M 165.25 119.45 170.07 118.29 
M 164.62 121.03 169.95 121.21 
M 165.19 123.06 169.96 124.01 
M 171.94 149.17 172.35 148.9 175 145.41 176.71 141.46 176.71 139.01 175 135.06 172.35 131.57 170.28 130.21 
M 168.66 138.22 173.7 136.9 
M 168.14 139.87 173.35 140.03 
M 168.21 142.12 173.62 143.6 
M 172.71 170.67 174.42 169.3 176.61 165.8 178.02 161.84 178.02 159.38 176.61 155.42 174.42 151.92 172.71 150.55 
M 170.72 158.3 175.16 157.54 
M 171.04 161 175.11 160.47 
M 170.9 162.64 175.54 163.23 
M 176.08 173.54 174.83 171.37 173.54 170.25 
M 175.21 212.21 177.03 210.82 179.36 207.29 
M 180.95 220.02 179.44 216.48 177.06 213.3 175.21 212.06 
M 175.49 219.06 177.9 218.1 
M 172.72 120.19 173.61 119.79 176.68 116.99 178.66 113.81 178.66 111.85 177.73 110.36 
M 170.47 112.97 174.72 113.09 
M 169.81 114.64 174.9 115 
M 174.75 140.43 177.17 139.13 180.28 135.81 182.29 132.04 182.29 129.71 180.28 125.95 177.17 122.63 174.75 121.33 
M 172.76 128.62 178.48 128.3 
M 172.28 130.48 178.64 130.61 
M 172.75 132.87 178.91 133.51 
M 177.52 160.16 179.66 158.9 182.58 155.49 184.46 151.63 184.46 149.24 182.58 145.38 179.66 141.97 177.39 140.64 
M 175 148.17 181.41 147.25 
M 174.85 150.04 180.73 150.47 
M 175.1 152.32 181.31 153.47 
M 183.55 173.4 184.55 171.04 184.55 168.57 182.86 164.58 180.23 161.06 178.17 159.69 
M 176.07 167.81 181.31 167.18 
M 176.11 169.87 181.52 170.23 
M 176.53 172.13 181.81 172.64 
M 182.92 220.37 183.34 220.12 186.17 216.7 187.99 212.83 187.99 210.43 186.45 207.16 
M 179.1 209.94 183.24 208.8 
M 183.66 208.68 184.72 208.39 
M 178.96 211.36 184.67 211.32 
M 178.68 213.82 185 214.78 
M 181.57 127.99 183.13 125.91 184.74 122.15 184.74 119.82 183.13 116.06 180.63 112.73 178.68 111.44 
M 176.64 119.23 182.21 118.34 
M 176.85 120.77 181.76 120.85 
M 177.33 123.2 182.25 124.1 
M 183.16 151.12 185.14 149.79 187.69 146.39 189.33 142.54 189.33 140.16 187.69 136.31 185.14 132.92 183.16 131.59 
M 181.03 138.99 186.2 138.14 
M 181.58 141.45 186.62 141.26 
M 181.37 143.09 186.23 144.26 
M 183.94 168.52 185.22 167.62 187.56 164.37 189.06 160.69 189.06 158.41 187.56 154.72 185.22 151.47 183.4 150.2 
M 181.57 157.3 186.44 156.59 
M 181.74 159.63 186.01 159.88 
M 181.84 161.72 186.32 162.49 
M 187.26 173.34 185.06 169.48 183.94 168.52 
M 187.34 212.59 188.92 211.34 191.27 207.61 191.79 206.17 
M 192.75 222.34 192.75 220.14 191.23 216.51 188.88 213.3 187.34 212.25 
M 184.87 219.8 190.19 218.72 
M 188.01 221.36 190.19 221.5 
M 184.17 121.23 186.05 120.41 189.28 117.58 191.36 114.38 191.36 112.4 189.28 109.2 187.02 107.23 
M 181.01 111.84 187.91 111.39 
M 181.32 113.68 187.25 113.77 
M 181.9 114.8 187.48 115.64 
M 187.39 141.29 189.84 139.99 192.98 136.68 195 132.92 195 130.6 192.98 126.84 189.84 123.52 187.39 122.23 
M 184.67 130.1 191.17 129.28 
M 185.42 131.78 191.34 131.43 
M 185.2 134.01 191.68 134.2 
M 189.6 160.33 191.98 159.05 195.02 155.77 196.98 152.04 196.98 149.74 195.02 146.02 191.98 142.74 189.6 141.45 
M 187.66 148.67 193.48 148.04 
M 186.93 150.86 193.67 150.83 
M 187.23 153.13 193.72 153.47 
M 195.1 173.19 196.39 170.49 196.39 168.08 194.53 164.17 191.66 160.73 189.41 159.38 
M 187.49 167.01 192.96 166.36 
M 187.08 169.5 193.32 168.86 
M 187.57 171.65 193.29 171.93 
M 192.96 221.7 195.16 220.34 197.97 216.85 199.79 212.91 199.79 210.47 198.08 206.77 
M 190.74 209.53 196.24 208.77 
M 190.65 211.63 196.81 211.4 
M 191.09 213.65 196.5 214.57 
M 195.39 222.88 195.09 222.56 192.87 221.36 
M 188.64 112.71 190.97 111.81 193.97 109.48 195.9 106.85 195.9 105.22 195.27 104.37 
M 189.62 106.32 192.4 106.22 
M 186.77 107.32 192.41 108.43 
M 191.93 131.69 194.13 130.44 196.95 127.23 198.77 123.6 198.77 121.35 196.95 117.72 194.13 114.51 191.93 113.26 
M 189.62 120.65 195.79 119.33 
M 190.19 122.71 195.1 122.2 
M 190.17 124.38 195.13 125.62 
M 195.78 151.81 197.81 150.5 200.42 147.17 202.09 143.39 202.09 141.05 200.42 137.27 197.81 133.93 195.78 132.63 
M 193.66 140.7 198.85 139.12 
M 194.16 142.29 199.33 142.11 
M 194.17 143.76 199.31 144.92 
M 196.07 169.51 198.15 168.28 200.81 165.13 202.53 161.56 202.53 159.35 200.81 155.78 198.15 152.63 196.07 151.4 
M 193.95 158.42 199.73 157.41 
M 194.05 160.33 199.77 160.36 
M 194.22 162.12 199.84 163.13 
M 199.18 173.12 196.7 169.33 195.74 168.6 
M 198.83 212.9 200.66 211.43 203 207.66 203.55 206.13 
M 203.72 224.49 204.56 222.47 204.56 220.2 203.05 216.54 200.7 213.31 198.87 212.05 
M 197.39 219.29 201.67 218.78 
M 197.06 221.07 202.2 221.67 
M 196.73 108.43 199.7 107.74 203.51 105.96 205.96 103.96 205.96 102.71 204.77 101.74 
M 198.81 103.38 201.09 103.49 
M 195.21 104.7 201.18 104.6 
M 198.12 123.54 200.7 122.59 204.29 119.93 206.61 116.92 206.61 115.05 204.29 112.04 200.7 109.38 197.89 108.34 
M 195.44 114.68 202.28 113.94 
M 195.02 116.33 202.5 115.91 
M 196.39 117.96 202.34 118.63 
M 200.89 142.67 203.46 141.42 206.77 138.23 208.9 134.61 208.9 132.38 206.77 128.76 203.46 125.57 200.89 124.32 
M 198.78 132.07 204.65 131.02 
M 198.52 133.26 205.46 133.13 
M 198.58 135.55 205.08 136.21 
M 202.76 161.52 205.21 160.27 208.36 157.05 210.39 153.41 210.39 151.16 208.36 147.52 205.21 144.3 202.76 143.04 
M 200.13 150.32 206.79 149.35 
M 200.53 152.63 206.98 152.27 
M 200.77 153.89 207.07 154.66 
M 208.89 172.94 209.69 171.43 209.69 169.08 207.68 165.29 204.57 161.94 202.14 160.63 
M 200.14 168.54 205.63 167.74 
M 200.14 169.93 205.79 170.61 
M 200.11 171.91 206.04 172.99 
M 204.74 221.68 206.93 220.32 209.73 216.86 211.54 212.93 211.54 210.49 209.73 206.56 208.09 204.53 
M 202.71 210.03 208.17 209.11 
M 202.5 211.53 208.22 211.5 
M 202.25 214.01 208.27 214.81 
M 209.58 225.52 206.93 222.62 204.73 221.41 
M 205.38 104.8 207.93 104.31 211.19 103.06 213.3 101.64 213.3 100.76 212.44 100.18 
M 208.08 101.07 209.52 101.06 
M 205.08 102.36 209.64 102.41 
M 204.36 116.11 206.87 115.28 210.07 113.15 212.14 110.75 212.14 109.25 210.07 106.84 206.65 104.64 
M 201.67 108.53 208.12 107.91 
M 202.36 109.59 208.38 109.68 
M 201.86 111.19 208.48 112.07 
M 208.13 133.22 208.95 132.81 211.9 129.84 213.81 126.47 213.81 124.38 211.9 121.01 208.95 118.03 206.64 116.87 
M 204.79 124.08 210.41 122.59 
M 204.62 125.54 210.2 125.76 
M 205.12 127.53 210.42 128.03 
M 209.67 152.91 211.24 151.94 213.87 148.68 215.57 145 215.57 142.72 213.87 139.04 211.24 135.79 209.19 134.52 
M 207.23 142.26 212.82 140.83 
M 206.97 143.62 212.8 143.74 
M 207.61 145.65 212.7 146.37 
M 209.98 171.57 212.01 170.35 214.61 167.23 216.29 163.69 216.29 161.51 214.61 157.97 212.01 154.85 209.98 153.63 
M 208.12 160.61 213.32 160 
M 207.67 162.98 213.43 162.62 
M 207.96 164.37 213.48 165.26 
M 211.31 172.9 209.82 170.96 208.52 170.12 
M 210.63 212.6 212.45 211.17 214.77 207.52 216.06 203.97 
M 208.75 204.39 213.67 205.47 
M 214.58 226.38 216.28 222.45 216.28 220.18 214.77 216.52 212.44 213.28 210.61 212.02 
M 208.73 219.16 213.23 218.94 
M 208.7 221.14 213.15 221.2 
M 208.63 223.19 213.94 224.4 
M 213.01 102.73 215.85 102.34 219.5 101.36 221.85 100.25 221.85 99.56 220.38 98.86 
M 212.81 100.11 217.43 99.78 
M 212.13 100.25 217.68 100.63 
M 212.48 112.2 215.35 111.54 219.03 109.84 221.4 107.92 221.4 106.73 219.03 104.8 215.35 103.1 212.48 102.44 
M 209.89 106.32 216.83 105.79 
M 210.1 107.29 217.24 107.27 
M 209.39 108.21 217.4 108.41 
M 213.01 126.45 215.79 125.48 219.34 123 221.64 120.2 221.64 118.46 219.34 115.66 215.79 113.19 213.01 112.22 
M 210.59 117.91 217.15 117.3 
M 210.16 119.05 217.09 119.44 
M 210.38 120.48 217.63 121.61 
M 214.75 144.2 217.29 143.04 220.53 140.04 222.63 136.65 222.63 134.55 220.53 131.16 217.29 128.16 214.75 126.99 
M 212.38 134 218.82 133.11 
M 212.41 135.69 219.08 135.67 
M 211.9 137.72 218.72 137.82 
M 215.83 162.63 218.18 161.41 221.2 158.26 223.15 154.7 223.15 152.49 221.2 148.93 218.18 145.78 215.83 144.55 
M 213.28 151.9 219.84 150.86 
M 213.93 153.66 219.4 153.68 
M 213.45 155.74 219.39 156.5 
M 222.77 172.69 222.77 170.51 220.79 166.78 217.72 163.49 215.69 162.4 
M 212.75 169.46 219.3 168.85 
M 213.05 171.6 219.41 171.46 
M 216.46 221.43 218.64 220.1 221.44 216.71 223.24 212.86 223.24 210.48 221.44 206.64 219.67 204.49 
M 214.76 210.09 220.02 208.64 
M 214.02 211.72 220.17 211.73 
M 214.77 213.76 220.28 214.7 
M 222.22 227.15 221.47 225.69 218.67 222.6 216.48 221.39 
M 221.01 100.35 222.63 100.15 225.41 99.46 227.2 98.68 227.2 98.2 227.09 98.15 
M 222.46 98.54 224.28 98.63 
M 221.01 98.96 223.9 99.42 
M 220.55 108.07 222.47 107.62 225.3 106.28 227.13 104.77 227.13 103.83 225.3 102.32 222.47 100.98 221.01 100.64 
M 218.45 103.65 223.62 102.74 
M 218.01 104.44 223.48 104.65 
M 219.01 104.92 223.4 105.53 
M 220.82 119.45 222.23 118.95 225.19 116.87 227.1 114.52 227.1 113.06 225.19 110.71 222.23 108.63 220.55 108.05 
M 217.75 112.6 223.7 111.87 
M 217.95 114.1 223.74 114.2 
M 218.36 115.22 223.91 115.53 
M 221.88 135.55 223.24 134.87 225.99 132.15 227.76 129.07 227.76 127.16 225.99 124.08 223.24 121.36 221.1 120.3 
M 218.92 126.57 224.13 125.7 
M 218.65 128.13 224.55 127.76 
M 219.19 129.57 224.54 130.49 
M 222.09 153.7 224.03 152.52 226.51 149.49 228.12 146.06 228.12 143.93 226.51 140.5 224.03 137.47 222.09 136.29 
M 219.81 143.38 224.85 142.77 
M 220.53 144.88 225.05 144.73 
M 219.96 146.32 225.29 147.23 
M 222.06 172.05 223.88 170.82 226.23 167.63 227.74 164.03 227.74 161.79 226.23 158.19 223.88 155 222.05 153.76 
M 220.09 161.16 225.14 160.03 
M 220.21 162.96 225.13 162.94 
M 219.92 165.01 224.94 165.65 
M 222.84 172.69 222.06 172.18 
M 222.6 211.62 224.05 210.54 226.37 207.09 227.87 203.17 227.87 200.75 227.7 200.3 
M 223.46 202.06 225.07 201.96 
M 220.87 204.23 224.86 205.2 
M 225.63 227.34 226.52 226.1 228.03 222.43 228.03 220.16 226.52 216.49 224.18 213.24 222.35 211.98 
M 220.38 219.71 225.25 218.73 
M 220.89 221.67 225.26 221.05 
M 220.9 223.23 225.29 223.94 
M 226.94 105.03 229.41 104.62 232.57 103.6 234.6 102.43 234.6 101.71 232.57 100.55 229.41 99.52 226.94 99.12 
M 224.21 101.91 230.63 101.21 
M 224.15 102 231.06 101.92 
M 224.15 102.85 230.73 102.86 
M 226.8 114.79 229.35 114.12 232.6 112.42 234.7 110.48 234.7 109.28 232.6 107.35 229.35 105.64 226.8 104.98 
M 224.05 108.65 231.3 108.47 
M 224.03 110.05 230.51 110.31 
M 225.53 111.16 230.73 111.48 
M 227.12 128.45 229.64 127.53 232.86 125.18 234.94 122.51 234.94 120.86 232.86 118.19 229.64 115.84 227.12 114.92 
M 224.34 120.44 231.52 119.92 
M 224.62 121.96 230.87 121.79 
M 225.1 123.45 231.51 123.84 
M 227.81 144.97 230.17 143.88 233.19 141.07 235.14 137.88 235.14 135.91 233.19 132.73 230.17 129.92 227.81 128.82 
M 225.61 135.57 231.69 134.18 
M 225.27 136.52 231.97 136.83 
M 225.45 138.68 232.03 139.46 
M 227.95 162.82 230.19 161.62 233.05 158.53 234.9 155.04 234.9 152.88 233.05 149.38 230.19 146.3 227.95 145.09 
M 225.5 152.5 231.54 151.1 
M 225.83 153.59 231.77 153.75 
M 225.48 155.83 231.35 156.79 
M 234.84 172.47 234.84 171.18 232.95 167.44 230.03 164.14 227.75 162.85 
M 225.95 170.64 231.75 169.25 
M 225.27 172.05 231.84 172.51 
M 227.91 201.75 230.19 200.42 230.94 199.53 
M 228.18 221.21 230.37 219.91 233.18 216.57 234.99 212.8 234.99 210.46 233.18 206.68 230.37 203.35 228.18 202.05 
M 226.23 209.55 231.82 209.05 
M 226.27 211.74 231.42 211.59 
M 225.64 213.8 231.99 214.23 
M 233.97 227.13 233.2 225.65 230.4 222.56 228.21 221.35 
M 233.54 101.78 235.43 101.5 237.86 100.8 239.43 100 239.43 99.5 237.86 98.71 234.79 97.91 
M 231.56 99.03 236.69 98.78 
M 232.07 99.85 236.75 100.13 
M 231.84 99.86 236.95 100.62 
M 233.95 109.65 235.45 109.23 237.93 107.85 239.53 106.28 239.53 105.31 237.93 103.75 235.45 102.36 233.51 101.83 
M 231.35 104.81 236.72 104.54 
M 231.67 105.88 236.72 105.75 
M 231.78 106.73 236.91 107.09 
M 233.53 121.49 235.54 120.7 238.11 118.66 239.77 116.36 239.77 114.93 238.11 112.62 235.54 110.59 233.95 109.96 
M 231.81 114.55 236.93 114.16 
M 231.68 115.59 236.39 115.84 
M 231.36 116.8 237.07 117.77 
M 234.44 136.34 235.86 135.6 238.33 133.02 239.92 130.09 239.92 128.29 238.33 125.36 235.86 122.78 233.94 121.78 
M 232.07 127.51 237.13 126.94 
M 231.73 129.52 236.96 129.53 
M 231.95 130.5 237.01 131.13 
M 234.14 153.65 235.99 152.52 238.36 149.61 239.89 146.31 239.89 144.27 238.36 140.97 235.99 138.06 234.44 137.11 
M 232.02 144.04 237.39 142.49 
M 232.73 145.18 237.17 145.06 
M 232.05 147.05 237.37 148.12 
M 233.54 171.88 235.37 170.62 237.72 167.41 239.23 163.77 239.23 161.51 237.72 157.87 235.37 154.66 233.54 153.4 
M 231.79 160.47 236.44 160.01 
M 231.58 162.96 236.45 162.72 
M 231.36 164.32 236.66 165.82 
M 234.03 172.48 233.91 172.4 
M 233.98 211.72 235.82 210.39 238.18 206.99 239.69 203.14 239.69 200.75 239.16 199.39 
M 232.23 200.06 236.56 199.27 
M 232.27 202.09 237.34 201.89 
M 232.13 203.65 237.06 204.68 
M 237.58 227.11 238.31 226.11 239.82 222.45 239.82 220.18 238.31 216.52 235.96 213.28 234.13 212.02 
M 232.06 219.7 236.73 218.92 
M 232.07 221.41 237.39 221.3 
M 232.26 223.19 236.66 223.9 
M 239.25 105.69 241.42 105.28 244.21 104.21 246 102.99 246 102.24 244.21 101.03 241.42 99.96 239.25 99.54 
M 236.98 102.4 242.98 101.87 
M 236.81 102.23 242.92 102.59 
M 237.46 103.63 242.37 103.74 
M 239.46 115.76 241.71 115.08 244.6 113.35 246.46 111.38 246.46 110.17 244.6 108.2 241.71 106.47 239.46 105.79 
M 237.52 110.08 242.97 109.21 
M 237.11 111.15 243.38 110.94 
M 237.69 111.35 243.14 112.24 
M 239.74 129.18 242.02 128.28 244.94 125.97 246.82 123.36 246.82 121.74 244.94 119.12 242.02 116.82 239.74 115.92 
M 237.27 120.92 243.59 120.25 
M 237.13 122.85 243.74 122.36 
M 237.16 123.65 243.62 124.52 
M 239.96 145.16 242.19 144.09 245.03 141.35 246.87 138.25 246.87 136.32 245.03 133.22 242.19 130.48 239.96 129.41 
M 237.94 136.05 243.89 134.5 
M 237.51 137.36 243.35 137.34 
M 238 139.04 243.84 139.47 
M 239.8 162.87 242 161.67 244.83 158.6 246.65 155.12 246.65 152.97 244.83 149.49 242 146.42 239.8 145.22 
M 237.8 151.87 243.66 151.41 
M 238.03 154.39 243.5 154.05 
M 237.95 155.76 242.99 156.38 
M 246.63 172.25 246.63 171.41 244.8 167.65 241.96 164.33 239.74 163.03 
M 237.56 170.79 243 169.56 
M 239.93 201.97 242.15 200.64 244.99 197.24 246.42 194.22 
M 239.99 221.2 242.19 219.91 245 216.59 246.82 212.84 246.82 210.52 245 206.77 242.19 203.45 239.99 202.16 
M 238.24 209.36 243.13 208.66 
M 238.14 211.57 243.33 212.01 
M 237.55 213.9 243.25 214.93 
M 245.74 227.13 245 225.69 242.19 222.61 240 221.4 
M 244.82 101.39 246.49 101.1 248.64 100.37 250.02 99.53 250.02 99.02 248.64 98.18 247.25 97.71 
M 243.37 98.55 247.34 98.24 
M 243.56 99.26 247.9 99.13 
M 243.52 100.08 247.15 100.3 
M 245.79 109.62 246.86 109.27 249.08 107.81 250.52 106.16 250.52 105.14 249.08 103.49 246.86 102.03 245.13 101.47 
M 243.71 105.07 248.1 104.44 
M 243.03 105.83 248.3 105.65 
M 243.21 106.29 247.94 106.68 
M 245.65 121.93 247.49 121.13 249.83 119.06 251.34 116.72 251.34 115.28 249.83 112.94 247.49 110.88 245.79 110.13 
M 243.62 114.5 248.88 114.42 
M 243.46 115.9 248.53 115.74 
M 243.6 117.01 248.47 118 
M 246.21 136.49 247.68 135.68 250.01 133.13 251.51 130.25 251.51 128.46 250.01 125.57 247.68 123.02 245.86 122.02 
M 244.31 128.28 248.88 127.14 
M 243.8 129.35 248.37 129.07 
M 244.24 130.73 248.56 131.15 
M 245.92 153.71 247.73 152.57 250.06 149.65 251.55 146.34 251.55 144.29 250.06 140.98 247.73 138.05 246.21 137.1 
M 244.45 143.43 248.54 143.09 
M 244.01 145.53 248.86 145.06 
M 244.37 147.17 248.88 147.77 
M 245.98 171.98 247.45 170.97 249.82 167.74 251.35 164.08 251.35 161.81 249.82 158.15 247.45 154.91 245.6 153.65 
M 244.14 161.13 248.71 160.48 
M 243.97 162.65 248.53 162.58 
M 244.04 165.19 248.81 165.68 
M 245.92 211.84 247.76 210.52 250.11 207.14 251.63 203.31 251.63 200.94 250.11 197.1 247.74 193.71 
M 244.4 199.87 249.27 199.39 
M 243.85 202.46 249.05 202.49 
M 243.91 203.65 248.76 205.26 
M 249.31 227.21 250.08 226.14 251.58 222.48 251.58 220.21 250.08 216.55 247.75 213.31 245.92 212.05 
M 244.2 219.16 248.7 218.88 
M 243.78 221.02 248.52 221.11 
M 244.3 223.12 248.65 224.06 
M 250.17 105.07 252.18 104.62 254.74 103.48 256.4 102.19 256.4 101.39 254.74 100.09 252.18 98.95 250.17 98.51 
M 248.03 100.78 253.04 100.67 
M 248.5 101.69 253.13 101.37 
M 248.43 102.43 253.14 102.87 
M 250.92 115.68 253.02 114.98 255.7 113.17 257.43 111.11 257.43 109.84 255.7 107.79 253.02 105.98 250.92 105.28 
M 248.93 109.62 254.27 108.57 
M 248.66 110.37 254.28 110.87 
M 248.86 111.16 254.17 112.47 
M 251.5 129.23 253.64 128.32 256.38 125.99 258.14 123.36 258.14 121.72 256.38 119.09 253.64 116.76 251.5 115.85 
M 249.07 121.12 255.35 120.32 
M 249.57 122.47 255.37 122.92 
M 249.62 124.01 254.72 124.49 
M 251.66 145.1 253.77 144.03 256.47 141.29 258.21 138.18 258.21 136.26 256.47 133.15 253.77 130.41 251.66 129.33 
M 249.25 135.35 254.82 135.08 
M 250.05 136.97 254.79 137.59 
M 249.8 138.93 255.33 139.38 
M 251.59 162.92 253.75 161.72 256.51 158.64 258.29 155.15 258.29 152.99 256.51 149.51 253.75 146.43 251.59 145.23 
M 249.77 151.95 255.28 151.67 
M 249.19 154.46 254.99 154.41 
M 249.09 155.66 255.13 156.51 
M 258.32 172.04 258.32 171.45 256.52 167.69 253.72 164.37 251.54 163.08 
M 249.54 170.63 254.92 170.13 
M 251.7 201.97 253.86 200.64 256.64 197.24 258.43 193.39 258.43 191 258.32 190.77 
M 252.84 192.52 255.07 192.48 
M 249.48 194.46 255.14 194.88 
M 251.77 221.21 253.96 219.92 256.76 216.61 258.57 212.86 258.57 210.54 256.76 206.79 253.96 203.48 251.77 202.19 
M 249.88 209.65 255.05 208.63 
M 249.97 211.44 255.41 211.72 
M 250.06 213.52 255.26 214.42 
M 257.45 227.17 256.69 225.71 253.91 222.64 251.73 221.45 
M 254.96 99.92 256.56 99.61 258.62 98.82 259.5 98.23 
M 253.69 98.07 257.35 98.2 
M 255.8 109.11 257.46 108.49 259.59 106.91 260.96 105.12 260.96 104.01 259.59 102.22 257.46 100.64 255.8 100.02 
M 254.47 103.32 258.76 102.92 
M 254.41 104.44 258.2 104.69 
M 253.99 105.42 258.17 106.26 
M 257.51 121.67 258.87 121.02 261.12 118.88 262.57 116.45 262.57 114.95 261.12 112.52 258.87 110.38 257.11 109.55 
M 255.24 114.58 260 113.56 
M 255.35 115.86 259.9 115.65 
M 255.53 117.13 259.92 117.76 
M 257.58 136.34 259.09 135.46 261.29 132.9 262.71 130 262.71 128.21 261.29 125.31 259.09 122.75 257.51 121.83 
M 256.03 127.34 260.07 126.57 
M 256.12 129.36 260.1 128.9 
M 255.41 130.72 260.07 131.33 
M 257.65 153.44 259.15 152.41 261.3 149.47 262.69 146.14 262.69 144.07 261.3 140.74 259.15 137.8 257.58 136.72 
M 255.72 143.31 259.91 142.73 
M 255.98 144.78 260.6 144.73 
M 256.03 146.37 260.55 147.41 
M 257.55 172.05 259.21 170.93 261.58 167.71 263.11 164.06 263.11 161.81 261.58 158.16 259.21 154.95 257.36 153.69 
M 255.55 160.91 260.34 159.97 
M 255.5 163.16 260.71 162.84 
M 255.83 165.13 260.55 165.78 
M 257.96 191.39 259.05 190.56 259.58 189.75 
M 257.66 211.89 259.47 210.56 261.8 207.15 263.29 203.3 263.29 200.91 261.8 197.05 259.47 193.65 257.66 192.32 
M 255.49 199.88 260.29 199.09 
M 256.13 201.73 260.71 201.99 
M 256.18 204.49 260.39 205.32 
M 261 227.02 261.73 226.01 263.23 222.36 263.23 220.11 261.73 216.46 259.4 213.24 257.57 211.98 
M 255.43 219.66 260.13 218.13 
M 256.11 221.44 260.39 220.96 
M 256.02 223.43 260.54 224.26 
M 260.61 103.95 262.63 103.47 265.22 102.26 266.89 100.89 266.89 100.04 266.12 99.4 
M 258.8 99.88 263.48 99.6 
M 258.58 100.89 264.19 100.08 
M 258.41 101.26 263.71 101.66 
M 261.88 115.09 263.96 114.35 266.62 112.47 268.33 110.34 268.33 109.02 266.62 106.89 263.96 105.01 261.88 104.28 
M 259.56 108.97 265.27 108.2 
M 260.04 109.58 265.14 109.38 
M 259.84 110.4 265.29 111.03 
M 262.66 128.62 264.74 127.71 267.41 125.39 269.13 122.76 269.13 121.13 267.41 118.5 264.74 116.17 262.66 115.27 
M 260.47 120.64 266.44 119.99 
M 260.47 121.8 266.27 121.76 
M 260.92 123.28 265.82 124.19 
M 262.52 144.26 264.55 143.18 267.14 140.42 268.81 137.29 268.81 135.36 267.14 132.23 264.55 129.47 262.52 128.4 
M 260.52 135.13 266 133.58 
M 260.41 136.24 265.63 135.95 
M 260.5 137.53 266.14 138.96 
M 262.9 162.67 265.01 161.44 267.71 158.29 269.45 154.73 269.45 152.52 267.71 148.96 265.01 145.81 262.9 144.58 
M 260.51 151.7 266.34 150.97 
M 260.72 153.66 266.27 153.95 
M 260.72 155.58 266.03 156.17 
M 269.86 171.83 269.86 171.27 268.07 167.49 265.3 164.16 263.13 162.86 
M 260.79 170.86 266.81 169.59 
M 263.16 201.71 265.3 200.37 268.04 196.96 269.8 193.1 269.8 190.7 268.04 186.84 266.76 185.25 
M 261.16 190.16 266.41 188.68 
M 261.45 191.97 266.8 191.55 
M 261.42 193.79 266.51 194.93 
M 263.47 221.19 265.65 219.89 268.44 216.57 270.24 212.8 270.24 210.48 268.44 206.71 265.65 203.39 263.47 202.09 
M 261.45 210.15 266.92 208.8 
M 261.75 211.52 267.09 211.99 
M 261.65 213.53 266.83 214.42 
M 268.81 226.64 268.27 225.61 265.5 222.59 263.33 221.42 
M 267.55 107.74 268.14 107.52 270.37 105.86 271.8 103.99 271.8 102.82 270.37 100.95 269.48 100.28 
M 265.06 102.57 269.18 101.88 
M 264.84 103.36 268.89 103.47 
M 265.1 104.28 269.58 105.21 
M 268.23 121.22 269.99 120.38 272.25 118.24 273.71 115.81 273.71 114.31 272.25 111.88 269.99 109.73 268.23 108.9 
M 266.59 114.04 270.98 113.26 
M 266.35 114.68 270.94 114.97 
M 266.44 116.64 270.7 117.11 
M 268.21 134.78 269.63 133.98 271.82 131.53 273.23 128.76 273.23 127.04 271.82 124.27 269.63 121.82 267.93 120.86 
M 266.03 126.66 271.09 125.69 
M 266.23 128.06 270.57 127.9 
M 265.87 129.45 270.47 130.25 
M 267.32 152.06 268.97 150.86 271.07 147.77 272.43 144.27 272.43 142.11 271.07 138.61 268.97 135.53 268.21 134.98 
M 265.81 141.52 270.37 140.77 
M 265.48 143.41 270.39 143.55 
M 265.37 145.1 269.87 146.24 
M 270.94 171.81 271.3 171.56 273.67 168.22 275.19 164.43 275.19 162.09 273.67 158.31 271.3 154.97 269.45 153.66 
M 267.76 161.55 272.31 160.05 
M 267.25 163.47 272.35 163.26 
M 267.37 164.96 272.55 166.1 
M 268.42 191.14 270.19 189.82 272.45 186.45 273.68 183.24 
M 268.53 171.85 268.42 171.77 
M 270.1 184.05 271.42 184.41 
M 269.27 211.91 271.06 210.56 273.36 207.09 274.85 203.16 274.85 200.73 273.36 196.81 271.06 193.34 269.27 191.99 
M 267.77 199.56 272.54 198.91 
M 267.11 202.26 272.4 201.64 
M 267.79 203.87 271.9 205.18 
M 273.27 226.41 273.56 226.02 275.07 222.4 275.07 220.15 273.56 216.53 271.21 213.33 269.38 212.08 
M 267.49 219.43 272.02 218.75 
M 267.35 221.21 272.59 221.5 
M 267.31 223.07 272.01 223.88 
M 271.75 103.36 274.02 102.88 275.88 102.1 
M 269.97 100.83 271.44 100.8 
M 273.14 114.59 275.34 113.86 278.15 111.97 279.96 109.84 279.96 108.52 278.15 106.38 275.34 104.5 273.14 103.76 
M 271.28 107.7 276.68 107.59 
M 271.05 108.98 276.45 109.59 
M 271.32 110.01 276.93 111.17 
M 273.8 127.87 275.95 126.98 278.7 124.7 280.47 122.12 280.47 120.53 278.7 117.95 275.95 115.67 273.8 114.78 
M 271.56 119.59 277.25 119.12 
M 271.44 121.32 276.92 121.29 
M 271.81 122.9 276.97 122.87 
M 273.24 143.24 275.4 142.16 278.16 139.39 279.94 136.25 279.94 134.31 278.16 131.17 275.4 128.41 273.24 127.32 
M 271.18 133.8 276.45 133.06 
M 271.04 134.87 276.77 135.68 
M 271.05 137.19 276.32 137.57 
M 274.1 162.36 276.28 161.1 279.09 157.86 280.89 154.19 280.89 151.93 279.09 148.26 276.28 145.02 274.1 143.76 
M 271.95 151.61 277.48 149.94 
M 272.14 153.19 278.03 152.95 
M 271.88 155.2 277.26 155.88 
M 281.6 171.61 281.6 171.14 279.79 167.33 276.97 163.97 274.77 162.65 
M 273.01 170.7 277.95 169.34 
M 274.63 201.43 276.8 200.09 279.59 196.68 281.38 192.81 281.38 190.41 279.59 186.54 276.8 183.12 276.27 182.8 
M 272.34 189.58 277.89 188.75 
M 272.91 191.82 278.17 191.54 
M 272.95 193.65 278.4 194.6 
M 275.15 221.16 277.33 219.86 280.11 216.52 281.91 212.74 281.91 210.39 280.11 206.61 277.33 203.27 275.15 201.97 
M 273.25 209.96 279.01 208.7 
M 273.36 211.37 278.96 211.29 
M 273.22 213.2 278.82 214.79 
M 280.01 225.6 277.18 222.58 274.99 221.41 
M 279.31 107.68 280.14 107.42 282.7 105.79 283.72 104.66 
M 275.96 102.61 277.16 102.52 
M 276.2 103.76 279.73 103.35 
M 275.84 104.43 280.97 105.05 
M 279.83 120.9 281.61 120.1 283.93 117.99 285.43 115.6 285.43 114.12 283.93 111.74 281.61 109.63 279.79 108.8 
M 278.32 113.85 283.14 112.81 
M 278.15 115.15 282.68 114.76 
M 278 115.73 282.47 116.38 
M 279.3 134.39 281.13 133.47 283.52 131.06 285.06 128.33 285.06 126.64 283.52 123.9 281.13 121.49 279.27 120.55 
M 277.42 126.33 282.05 125.83 
M 277.69 127.71 282.24 127.43 
M 277.4 128.73 282.41 129.41 
M 278.44 151.54 280.41 150.32 282.94 147.19 284.57 143.65 284.57 141.45 282.94 137.91 280.41 134.78 279.3 134.09 
M 276.87 140.37 281.64 139.61 
M 276.72 142.46 281.94 142.83 
M 276.93 144.52 281.86 145.14 
M 283.06 171.59 285.34 168.27 286.85 164.42 286.85 162.05 285.34 158.2 283.01 154.81 281.18 153.49 
M 279.07 161.51 284.27 159.98 
M 279.83 163.66 284.14 163.03 
M 279.42 164.88 283.89 165.9 
M 280.05 190.95 281.93 189.64 284.34 186.29 285.9 182.5 285.9 180.15 284.34 176.35 283.79 175.59 
M 279.5 178.86 283.19 178.15 
M 277.94 181.44 283.35 181.04 
M 277.98 182.99 282.69 183.81 
M 281.26 211.35 282.58 210.35 284.89 206.87 286.37 202.93 286.37 200.49 284.89 196.54 282.58 193.06 280.79 191.7 
M 279.23 199.63 283.5 198.85 
M 278.8 201.33 283.71 201.78 
M 278.64 203.77 283.4 205 
M 285.85 224.84 286.83 222.45 286.83 220.2 285.33 216.56 283 213.34 281.19 212.09 
M 279.3 219.78 283.9 218.34 
M 279.25 221.14 283.99 221.24 
M 279.48 223.38 284.06 224.23 
M 285.39 114.73 287.74 114.05 290.74 112.28 292.68 110.28 292.68 109.05 291.01 107.33 
M 283.54 109.02 289.03 108.29 
M 283.01 109.56 289.1 109.7 
M 283.05 111.01 289.14 111.51 
M 285.64 127.95 287.91 127.06 290.81 124.78 292.68 122.2 292.68 120.6 290.81 118.02 287.91 115.74 285.64 114.85 
M 283.21 119.98 289.04 119.02 
M 283.64 121.04 288.99 121.79 
M 283.54 122.56 289.12 123.53 
M 285.53 143.85 287.89 142.76 290.9 139.96 292.85 136.79 292.85 134.83 290.9 131.66 287.89 128.87 285.53 127.78 
M 283.18 134.01 289.06 133.67 
M 283.53 135.49 289.01 135.95 
M 283.37 137.32 289.53 138.02 
M 286.28 162.68 288.58 161.43 291.53 158.22 293.43 154.6 293.43 152.36 291.53 148.73 288.58 145.53 286.28 144.28 
M 284.24 151.26 290.38 150.36 
M 284.24 153.25 290.12 153.48 
M 283.86 155.55 289.82 156.22 
M 286.7 182.06 288.93 180.76 291.77 177.43 293.61 173.66 293.61 171.66 
M 293.61 171.39 291.77 167.55 288.93 164.22 286.7 162.92 
M 284.89 170.25 290.29 169.93 
M 289.83 172.79 290.19 172.82 
M 285.72 174.5 290.7 175.69 
M 286.47 201.43 288.66 200.1 291.48 196.71 293.29 192.87 293.29 190.5 291.48 186.66 288.66 183.27 286.47 181.94 
M 284.72 189.63 289.97 189.08 
M 283.97 192.04 289.85 192.05 
M 284.74 193.89 290 194.74 
M 286.78 221.03 288.92 219.72 291.65 216.39 293.42 212.6 293.42 210.26 291.65 206.48 288.92 203.14 286.78 201.84 
M 284.45 209.62 290.07 208.81 
M 284.48 211.4 290.35 211.74 
M 285.1 213.67 289.94 214.59 
M 290.47 224.2 289 222.63 286.82 221.46 
M 292.04 109.35 294.54 108.62 
M 292.01 120.44 293.51 119.84 295.97 117.85 297.56 115.6 297.56 114.2 295.97 111.95 293.51 109.97 291.98 109.35 
M 290.01 113.86 294.57 113 
M 290.09 114.8 294.8 114.74 
M 289.51 115.87 294.74 116.42 
M 292.15 135.71 293.86 134.83 296.37 132.22 297.99 129.26 297.99 127.44 296.37 124.48 293.86 121.87 291.9 120.85 
M 289.92 127.02 294.72 126.09 
M 289.87 128.36 294.77 128.17 
M 290.16 130.07 295.38 130.3 
M 292.52 153.6 294.58 152.41 297.21 149.38 298.9 145.93 298.9 143.8 297.21 140.36 294.58 137.32 292.52 136.14 
M 290.12 142.84 295.7 142.6 
M 290.72 144.61 295.89 144.56 
M 290.37 146.56 296.21 147.78 
M 292.96 172.58 294.79 171.31 297.13 168.07 298.64 164.39 298.64 162.12 297.13 158.45 294.79 155.2 292.96 153.94 
M 291.08 161.13 295.55 160.67 
M 290.91 163.59 296.14 163.18 
M 291.42 165.37 296.15 165.64 
M 292.63 191.72 294.5 190.42 296.9 187.09 298.45 183.31 298.45 180.97 296.9 177.2 294.5 173.86 292.95 172.79 
M 290.67 180.15 296.07 179.43 
M 290.89 182.53 295.84 182.1 
M 290.54 184 296.05 185.13 
M 292.79 211.04 294.18 210 296.44 206.6 297.9 202.76 297.9 200.38 296.44 196.54 294.18 193.15 292.41 191.82 
M 290.77 199.44 295.24 198.73 
M 291 201.61 294.82 201.47 
M 290.52 203.26 294.91 204.54 
M 297.85 223.05 298.15 222.28 298.15 219.99 296.72 216.29 294.49 213.03 292.79 211.77 
M 290.98 218.98 295.72 218.29 
M 290.99 221.4 295.82 221.11 
M 290.7 223.16 294.3 223.65 
M 298.2 115.5 300.54 114.85 303.54 113.18 304.57 112.18 
M 295.71 110.07 297.73 109.75 
M 295.73 110.44 299.45 110.37 
M 295.66 111.77 301.72 112.2 
M 298.1 128.65 300.42 127.76 303.38 125.48 305.29 122.9 305.29 121.3 303.38 118.72 300.42 116.44 298.1 115.55 
M 295.54 120.98 301.42 119.71 
M 295.47 121.86 301.52 122.21 
M 295.44 123.05 301.46 124.16 
M 298.39 144.93 300.73 143.84 303.72 141.05 305.65 137.89 305.65 135.93 303.72 132.77 300.73 129.98 298.39 128.89 
M 296.29 135 301.84 134.49 
M 296.17 136.74 302.01 137.29 
M 296.52 138.79 302.11 139.48 
M 298.72 163.09 300.99 161.88 303.9 158.77 305.77 155.25 305.77 153.07 303.9 149.55 300.99 146.44 298.72 145.22 
M 296.36 152.18 302.02 151.52 
M 296.54 153.8 302.57 154.41 
M 296.34 155.65 302.27 156.49 
M 298.61 182 300.79 180.73 303.57 177.47 305.37 173.78 305.37 171.49 303.57 167.8 300.79 164.54 298.61 163.26 
M 296.83 171.09 301.74 169.67 
M 296.32 172.7 301.78 172.55 
M 296.41 174.62 302.18 175.09 
M 298.17 201.21 300.29 199.91 303.01 196.58 304.76 192.8 304.76 190.46 303.01 186.69 300.29 183.35 298.17 182.05 
M 296.26 190.12 301.41 189.15 
M 296.51 191.44 301.25 191.78 
M 295.89 193.23 301.63 194.9 
M 298.05 220.51 300.11 219.21 302.76 215.88 304.46 212.11 304.46 209.77 302.76 206 300.11 202.67 298.05 201.37 
M 296.05 208.74 301.22 207.91 
M 296.39 210.74 301.32 210.88 
M 296.41 212.69 301.6 214.06 
M 300.77 222.56 300.54 222.3 298.43 221.1 
M 304.6 121.64 306.39 120.92 308.85 118.94 310.43 116.71 310.43 115.32 309.38 113.83 
M 302.36 114.45 307.89 114.41 
M 302.6 116 307.69 116.18 
M 302.4 116.83 307.97 117.74 
M 304.96 136.19 306.36 135.46 308.81 132.92 310.38 130.03 310.38 128.25 308.81 125.36 306.36 122.82 304.45 121.82 
M 302.61 127.87 307.21 126.89 
M 302.52 128.8 307.44 129.13 
M 302.83 130.62 307.86 130.93 
M 304.69 153.8 306.55 152.64 308.94 149.67 310.47 146.32 310.47 144.24 308.94 140.88 306.55 137.91 304.96 136.92 
M 303.04 143.79 308.04 142.34 
M 303.21 144.99 307.61 144.99 
M 302.64 147.29 308.03 148.11 
M 304.73 172.36 306.52 171.14 308.86 167.95 310.37 164.34 310.37 162.11 308.86 158.5 306.52 155.31 304.69 154.07 
M 303.03 161.41 307.85 160.77 
M 303.3 162.82 307.64 162.91 
M 302.82 165.15 307.49 166.16 
M 304.16 191.33 305.88 190.05 308.1 186.77 309.52 183.06 309.52 180.76 308.1 177.05 305.88 173.77 304.73 172.91 
M 302.72 180.23 306.93 178.97 
M 302.38 181.69 306.59 181.8 
M 302.69 183.59 307.33 184.35 
M 303.85 210.2 305.2 209.16 307.37 205.84 308.77 202.07 308.77 199.74 307.37 195.97 305.2 192.64 303.5 191.34 
M 301.49 198.59 306.23 198.08 
M 302.16 201.02 305.83 200.54 
M 301.93 202.56 306.51 203.56 
M 308.75 220.79 308.75 218.98 307.36 215.2 305.21 211.86 303.85 210.8 
M 302.32 218.52 306.19 217.03 
M 301.5 219.98 305.84 220 
M 302.2 221.88 303.36 222.12 
M 310.43 116.02 312.64 115.36 313.08 115.1 
M 310.41 129.18 312.64 128.29 315.49 126.02 317.33 123.45 317.33 121.86 315.49 119.28 312.64 117.01 310.41 116.13 
M 308.51 120.97 313.95 120.62 
M 307.95 122.49 313.66 122.55 
M 308.08 124.16 314.18 124.28 
M 310.52 145.19 312.74 144.11 315.59 141.36 317.42 138.25 317.42 136.32 315.59 133.2 312.74 130.45 310.52 129.38 
M 308.4 135.47 314.32 134.64 
M 308.71 137.33 314.28 137.59 
M 308.45 138.6 313.91 139.67 
M 310.59 163.03 312.78 161.84 315.58 158.79 317.39 155.34 317.39 153.2 315.58 149.75 312.78 146.7 310.59 145.51 
M 308.38 152.31 314.53 151.72 
M 308.27 154.63 314.48 154.11 
M 308.64 156.04 313.94 156.97 
M 310.04 181.46 312.13 180.21 314.8 177.03 316.53 173.42 316.53 171.18 314.8 167.57 312.13 164.39 310.04 163.14 
M 308.09 170.41 313.64 169.79 
M 308.3 172.13 313.28 172.09 
M 307.77 173.77 313.54 174.87 
M 309.15 200.29 311.15 199 313.71 195.72 315.37 192 315.37 189.7 313.71 185.98 311.15 182.7 309.15 181.42 
M 307.52 189.29 312.48 187.81 
M 307.1 191.27 312.68 190.98 
M 307.05 192.78 312.33 193.41 
M 308.87 219.58 310.86 218.28 313.41 214.94 315.06 211.17 315.06 208.83 313.41 205.05 310.86 201.72 308.87 200.42 
M 307.32 208.15 312.41 206.77 
M 306.69 209.85 312.18 209.88 
M 307.09 211.84 311.76 212.53 
M 310.14 220.44 309.44 220.01 
M 316.67 121.67 318.04 121.06 320.31 119.04 320.85 118.19 
M 314.95 115.92 315.14 115.92 
M 314.21 117.4 319.16 117.59 
M 316.76 136.56 318.29 135.72 320.61 133.18 322.11 130.29 322.11 128.51 320.61 125.63 318.29 123.08 316.67 122.19 
M 314.74 127.99 319 127.35 
M 314.6 129.63 318.97 128.99 
M 314.56 130.79 319.81 131.37 
M 316.49 153.78 318.3 152.63 320.62 149.68 322.11 146.35 322.11 144.28 320.62 140.94 318.3 138 316.49 136.85 
M 315 143.26 319.81 143.18 
M 314.31 145.19 319.75 145.06 
M 315.16 147.26 319.07 148.19 
M 316.49 172.15 318.28 170.94 320.59 167.85 322.07 164.34 322.07 162.18 320.59 158.67 318.28 155.58 316.49 154.37 
M 314.49 161.53 319.45 160.9 
M 314.87 163.48 319.31 162.99 
M 314.54 165.01 319.78 165.58 
M 314.81 189.96 316.42 188.71 318.48 185.53 319.82 181.92 319.82 179.68 318.48 176.08 316.42 172.89 314.81 171.65 
M 313.54 178.83 317.7 178.18 
M 313.31 180.52 317.73 180.52 
M 313.48 183.06 317.51 183.68 
M 314.15 209.38 315.78 208.08 317.87 204.74 319.21 200.96 319.21 198.62 317.87 194.84 315.78 191.51 314.15 190.2 
M 312.38 197.7 316.54 196.7 
M 312.33 200.05 316.6 199.37 
M 312.89 201.49 316.56 203 
M 319.39 218.18 318.04 214.21 315.94 210.88 314.3 209.58 
M 312.99 217.36 316.89 216.02 
M 313.07 219.17 316.55 218.87 
M 321.94 129.02 324.04 128.12 326.72 125.83 328.45 123.23 328.39 121.54 
M 320.07 120.9 325.36 120.13 
M 319.57 122.45 325.25 122.29 
M 319.77 123.74 325.39 124.09 
M 322.19 145.11 324.32 144.04 327.05 141.28 328.81 138.15 328.81 136.22 327.05 133.1 324.32 130.34 322.19 129.26 
M 320.36 135.29 325.84 134.6 
M 320.28 136.84 325.79 137.46 
M 320.18 138.4 325.25 139.95 
M 322.2 162.71 324.32 161.55 327.03 158.56 328.78 155.17 328.78 153.07 327.03 149.69 324.32 146.7 322.2 145.53 
M 320.18 152.06 325.37 151.57 
M 319.92 154.18 325.99 154.11 
M 320.4 155.52 325.72 157.08 
M 320.95 180.33 322.94 179.13 325.49 176.04 327.14 172.54 327.14 170.37 325.49 166.88 322.94 163.79 320.95 162.58 
M 319.3 169.41 323.78 169.19 
M 319.31 171.56 323.84 171.73 
M 318.96 173.34 324.07 174.02 
M 319.49 198.75 321.41 197.49 323.88 194.24 325.47 190.56 325.47 188.29 323.88 184.61 321.41 181.36 319.49 180.09 
M 317.79 187.82 322.59 186.68 
M 317.87 189.21 322.28 189.81 
M 317.34 191.67 322.89 191.92 
M 319.49 218.16 321.29 216.97 323.84 213.63 325.48 209.85 325.48 207.5 323.84 203.72 321.29 200.38 319.3 199.07 
M 317.77 206.62 322.32 205.55 
M 317.66 208.52 322.08 208.39 
M 317.46 210.25 322.18 211.23 
M 327.23 121.07 327.31 121.03 
M 327.81 136.44 328.18 136.22 
M 328.18 136.22 329.53 135.42 331.73 132.83 333.15 129.89 333.15 128.07 331.73 125.13 329.53 122.54 327.81 121.52 
M 325.96 127.47 330.56 127.08 
M 325.97 128.6 330.95 128.65 
M 325.93 130.37 330.52 130.88 
M 327.99 153.53 329.75 152.38 332 149.43 333.45 146.09 333.45 144.03 332 140.69 329.75 137.74 327.99 136.59 
M 325.95 142.97 330.96 142.76 
M 326.68 145.19 330.65 145.16 
M 326.61 146.96 330.85 147.78 
M 327.84 171.39 329.54 170.23 331.71 167.26 333.11 163.89 333.11 161.81 331.71 158.44 329.54 155.47 327.84 154.31 
M 326.19 160.87 330.75 160.42 
M 326.27 162.45 330.29 162.51 
M 326.26 164.93 330.79 165.23 
M 324.68 187.83 326.21 186.61 328.17 183.51 329.43 180 329.43 177.83 328.17 174.32 326.21 171.21 324.68 170 
M 322.77 176.88 327.46 176.62 
M 323.03 178.66 327.17 178.55 
M 323.58 180.74 327.06 181.84 
M 324.3 207.85 325.95 206.54 328.05 203.17 329.41 199.36 329.41 197 328.05 193.19 325.95 189.83 324.3 188.52 
M 322.9 196.46 327.12 195.07 
M 322.91 197.81 326.94 198.15 
M 322.64 200.27 327.07 200.99 
M 329.51 215.64 328.38 212.63 326.19 209.3 324.47 208 
M 322.8 215.7 327.1 214.94 
M 332.83 128.2 334.82 127.3 336.84 125.46 
M 333.36 144.57 335.36 143.49 337.92 140.71 339.58 137.57 339.58 135.62 337.92 132.48 335.36 129.7 333.36 128.62 
M 331.5 135.02 336.68 134.25 
M 331.1 136.78 336.47 136.17 
M 331.3 138.06 336.41 138.87 
M 333.28 161.84 335.25 160.7 337.78 157.78 339.41 154.47 339.41 152.42 337.78 149.11 335.25 146.19 333.28 145.05 
M 331.69 151.85 336.87 150.71 
M 331.61 153.78 336.39 153.79 
M 331.14 155.12 336.14 155.7 
M 331.2 178.63 333.1 177.45 335.54 174.43 337.12 171 337.12 168.88 335.54 165.46 333.1 162.44 332.61 162.13 
M 330.62 168.42 334.57 167.77 
M 329.6 169.79 334.03 170.26 
M 329.29 171.27 334.51 172.63 
M 329.55 197.22 331.5 195.93 334.01 192.63 335.62 188.88 335.62 186.57 334.01 182.83 331.5 179.53 329.55 178.24 
M 327.34 185.82 333.07 185.06 
M 327.9 188.09 333.02 187.88 
M 327.24 189.87 332.58 190.17 
M 333.3 214.66 334.83 212.72 336.55 208.86 336.55 206.46 334.83 202.6 332.14 199.19 330.05 197.86 
M 327.89 205.92 333.46 204.44 
M 328.12 208.08 333.43 207.9 
M 328.18 209.78 333.56 210.33 
M 338.57 135.58 340.17 134.55 342.22 131.9 343.54 128.91 343.54 128.58 
M 337.13 126.44 338.52 126.24 
M 336.86 128.37 340.95 128.11 
M 337.05 129.22 341.55 130.45 
M 339.06 152.75 340.65 151.61 342.7 148.69 344.01 145.39 344.01 143.34 342.7 140.04 340.65 137.12 339.06 135.98 
M 337.17 142.51 341.98 141.8 
M 337.79 144.31 341.37 144.57 
M 337.26 146.33 341.44 146.56 
M 338.24 169.68 339.77 168.57 341.72 165.72 342.98 162.5 342.98 160.5 341.72 157.27 339.77 154.42 338.82 153.73 
M 336.59 159.46 340.71 159.22 
M 336.53 161.61 340.81 161.65 
M 336.7 163.52 340.37 164.01 
M 335.04 184.84 335.64 184.38 337.68 181.21 339 177.62 339 175.4 337.68 171.82 335.64 168.65 334.04 167.41 
M 332.13 174.27 336.58 173.89 
M 332.29 176.87 336.18 176.14 
M 332.47 178.36 336.72 179.61 
M 335.17 207.58 336.91 206.18 339.14 202.6 340.58 198.55 340.58 196.04 339.14 191.99 336.91 188.41 335.17 187.01 
M 333.86 195.24 337.73 194.64 
M 333.91 197.18 338.17 197.37 
M 333.34 199.37 337.69 200.43 
M 340.46 212.47 338.13 209.21 336.25 207.89 
M 343.47 142.81 345.33 141.75 347.7 139.01 349.23 135.91 349.23 133.99 347.7 130.89 347.07 130.16 
M 341.3 133.41 346.31 132.4 
M 341.57 134.77 346.11 134.76 
M 342.1 136.17 346.87 137.72 
M 343.05 159.76 344.84 158.64 347.14 155.74 348.62 152.47 348.62 150.44 347.14 147.16 344.84 144.27 343.05 143.14 
M 341.49 150.02 346.26 148.98 
M 341.58 151.14 346.01 151.15 
M 341.09 153.31 345.82 153.55 
M 341 176.88 342.88 175.67 345.28 172.58 346.83 169.07 346.83 166.9 345.28 163.4 342.88 160.31 342.53 160.08 
M 341.27 166.06 343.82 165.36 
M 340.1 167.75 343.98 168.02 
M 339.08 169.74 344.16 170.55 
M 340.2 196.57 342.25 195.22 344.88 191.76 346.58 187.84 346.58 185.41 344.88 181.49 342.25 178.02 340.2 176.67 
M 337.8 185.03 343.09 183.96 
M 338.05 186.67 343.87 186.93 
M 338.46 188.9 343.72 189.8 
M 347.84 210.11 348.43 208.78 348.43 206.3 346.64 202.3 343.86 198.77 341.69 197.39 
M 339.65 205.92 344.84 204.49 
M 339.43 207.35 345.08 207.64 
M 339.37 209.18 345.14 210.82 
M 348.69 132.79 349.69 132.14 350.15 131.54 
M 348.1 149.79 349.56 148.68 351.42 145.85 352.61 142.64 352.61 140.66 351.42 137.45 349.56 134.62 348.69 133.96 
M 346.65 140.12 350.69 138.92 
M 347.04 141.8 350.26 141.55 
M 346.54 143.31 350.03 144.06 
M 346.8 166.84 348.2 165.68 350 162.71 351.15 159.34 351.15 157.26 350 153.89 348.2 150.92 346.8 149.76 
M 345.77 156.92 349.16 155.96 
M 345.84 158.43 348.71 157.89 
M 345.39 159.89 348.78 160.91 
M 345.97 184.58 346.66 184.05 348.88 180.67 350.31 176.83 350.31 174.46 348.88 170.63 346.66 167.24 346.28 166.95 
M 344.23 173.59 347.92 173.1 
M 343.48 175.45 347.57 175.84 
M 343.04 177.23 347.97 178.95 
M 346.67 207.73 348.44 206.27 350.7 202.55 352.16 198.34 352.16 195.73 350.7 191.52 348.44 187.8 346.67 186.34 
M 344.76 194.55 349.43 193.46 
M 344.72 197.2 349.9 197.11 
M 345.34 198.95 349.56 200.24 
M 350.1 209.37 348.67 208.32 
M 352.76 140.02 354.69 138.99 357.17 136.37 357.93 134.94 
M 350.75 132.68 352.41 132.56 
M 351.26 133.7 355.52 134.97 
M 351.67 156.72 353.55 155.58 355.95 152.66 357.5 149.34 357.5 147.29 355.95 143.98 353.55 141.05 351.67 139.91 
M 349.87 146.26 355.03 146.08 
M 350.18 148.04 354.91 147.98 
M 349.59 150.4 354.52 150.92 
M 350.74 175.46 352.74 174.17 355.29 170.87 356.94 167.13 356.94 164.82 355.29 161.08 352.74 157.77 350.74 156.48 
M 348.82 163.85 353.78 162.8 
M 349.11 166.24 353.81 165.96 
M 348.92 168.03 353.72 168.5 
M 351.64 196.39 353.57 195.1 356.28 191.49 358.03 187.39 358.03 184.85 356.28 180.76 353.57 177.14 351.46 175.73 
M 349.71 183.7 354.62 183.08 
M 349.36 186.05 355.07 185.86 
M 349.55 187.9 355.1 189.13 
M 359.82 205.9 358.17 202.07 355.44 198.47 353.31 197.07 
M 351.51 205.76 356.61 204.39 
M 351.53 207.55 355.34 207.54 
M 356.86 146.41 358.56 145.35 360.74 142.65 362.15 139.6 362.15 137.71 361.61 136.53 
M 354.9 136.73 359.69 136.27 
M 355.15 138.73 359.77 138.56 
M 355.4 140 359.47 141.11 
M 354.92 163.86 356.62 162.61 358.8 159.41 360.21 155.79 360.21 153.54 358.8 149.92 356.62 146.72 354.92 145.47 
M 353.12 153.21 357.42 152.15 
M 353.19 154.53 357.24 154.88 
M 353.49 156.32 357.79 157.15 
M 356.32 185.77 358.14 184.35 360.46 180.69 361.96 176.56 361.96 174 360.46 169.86 358.14 166.21 356.32 164.79 
M 354.22 173.21 359.66 172.45 
M 354.64 175.64 359.14 175.31 
M 354.56 177.53 359.07 178.42 
M 359.29 206.04 359.65 205.74 361.87 202.03 363.3 197.83 363.3 195.22 361.87 191.02 359.65 187.31 357.92 185.86 
M 356.3 194.39 361.1 193.27 
M 356.66 196.84 360.86 196.45 
M 356 198.98 360.71 199.46 
M 363.69 139 365.45 138.21 
M 362.28 155.62 364.5 154.47 367.33 151.53 369.16 148.2 369.16 146.14 367.33 142.81 364.5 139.87 362.28 138.72 
M 359.92 145.75 365.62 144.95 
M 360.39 147.29 365.6 146.98 
M 360.11 148.84 366.01 149.3 
M 361.85 174.99 364.08 173.67 366.94 170.31 368.78 166.5 368.78 164.14 366.94 160.33 364.08 156.96 361.85 155.65 
M 360.09 163.53 365.22 162.21 
M 359.64 165.04 365.17 165.27 
M 360.02 167.55 365.56 168.09 
M 362.86 196.17 365.02 194.75 367.8 191.13 369.59 187.03 369.59 184.49 367.8 180.38 365.02 176.76 362.86 175.35 
M 360.84 183.68 365.98 182.78 
M 360.59 185.38 366.7 185.94 
M 360.51 188.15 366.03 188.57 
M 369.62 202.15 369.34 201.51 366.63 197.91 364.52 196.5 
M 362.18 204.56 364.11 204.29 
M 369.49 147.34 371.44 146.28 373.94 143.56 374.64 142.22 
M 367.54 139.27 367.83 139.25 
M 367.48 140.75 372.44 141.9 
M 368.12 164.7 369.89 163.63 372.48 160.5 374.15 156.95 374.15 154.75 372.48 151.2 369.89 148.06 367.87 146.84 
M 365.86 154.25 371.28 153.33 
M 365.64 155.59 371.29 156.16 
M 365.66 158.01 371.44 158.68 
M 368.28 185.45 370.18 184.1 372.62 180.62 374.19 176.69 374.19 174.26 372.62 170.32 370.18 166.85 368.28 165.49 
M 366.09 173.8 371.71 172.39 
M 366.14 175.17 371.55 175.46 
M 366.49 177.55 371.11 178.28 
M 373.08 200.81 374.42 197.03 374.42 194.47 372.95 190.33 370.68 186.68 368.91 185.25 
M 367.53 193.77 371.69 192.41 
M 366.99 195.51 371.7 196.17 
M 367.52 198.26 371.67 198.71 
M 375.04 156.6 377.34 155.45 380.29 152.52 382.19 149.19 382.19 147.14 380.92 144.91 
M 372.93 146.9 378.74 145.48 
M 372.58 147.74 378.46 147.92 
M 372.88 149.68 378.6 150.89 
M 374.45 175.58 376.75 174.3 379.7 171.02 381.6 167.31 381.6 165.01 379.7 161.29 376.75 158.01 374.45 156.73 
M 372.51 164.34 377.75 163.23 
M 372.59 165.78 378.2 166.26 
M 372.19 168.04 377.89 168.92 
M 374.69 195.94 376.94 194.56 379.82 191.04 381.68 187.06 381.68 184.59 379.82 180.61 376.94 177.09 374.69 175.72 
M 372.19 183.97 378.4 183.2 
M 372.63 185.43 378.2 185.51 
M 372.37 188.08 378.72 188.44 
M 378.94 198.56 378.22 197.68 375.96 196.29 
M 381.97 148.12 383.76 147.05 384.33 146.37 
M 380.84 166.07 382.75 164.85 385.19 161.71 386.77 158.16 386.77 155.96 385.19 152.41 382.75 149.27 381.51 148.48 
M 379.14 155.5 384.09 154.25 
M 378.86 156.98 383.64 156.86 
M 378.61 158.45 384.24 159.44 
M 381.01 185.8 382.66 184.63 385.02 181.25 386.54 177.43 386.54 175.07 385.02 171.25 382.66 167.88 380.82 166.56 
M 379.05 174.3 383.81 173.4 
M 379.45 175.92 383.91 176.64 
M 378.88 178.55 383.66 178.91 
M 386.9 195.51 386.9 194.58 385.26 190.53 382.73 186.95 381.01 185.75 
M 378.58 193.57 384.07 192.83 
M 378.56 195.85 384.02 195.84 
M 378.81 197.7 380.25 198.05 
M 386.91 155.44 389.12 154.46 392.11 151.72 
M 384.41 146.64 384.83 146.59 
M 385.09 148.43 388.76 148.27 
M 384.54 149.63 390.82 150.33 
M 386.5 174.05 388.72 173.02 391.56 170.37 392.11 169.47 
M 392.11 163.41 392.11 163.41 
M 384.04 164.83 389.88 164.25 
M 384 166.48 390.12 166.52 
M 384.01 167.94 390.05 168.41 
M 386.95 194.26 389.19 193.18 392.11 190.35 
M 392.11 182.31 392.11 182.31 
M 385.04 184.56 390.24 183.94 
M 385.16 186.67 390.77 186.62 
M 384.5 188.22 390.21 188.88 
M 148.84 215.48 149.74 214.59 150.85 212.65 
M 147.34 221.95 147.33 221.94 
M 153.29 224.46 154.29 223.37 156.03 220.04 156.03 217.98 154.29 214.66 153.15 213.41 
M 147.9 220.73 153.28 221.48 
M 163.49 228.27 163.49 227.32 161.43 224.07 158.22 221.2 155.72 220.08 
M 157.45 226.09 160.07 225.82 
M 152.75 120.16 152.75 120.16 
M 161.14 220.92 166 220.73 
M 169.28 221.07 171.53 219.77 172.66 218.48 
M 166.22 228.27 172.49 226.69 
M 167.62 229.57 172.58 229.29 
M 173.72 219.77 175.49 219.06 
M 173.47 220.95 177.78 221.13 
M 177.73 110.36 177.73 110.36 
M 186.12 234.31 187.89 231.04 187.89 228.91 186.03 225.47 183.15 222.44 180.89 221.26 
M 178.86 229.77 184.57 229.61 
M 187.22 230.35 188.88 229.22 191.23 226.02 192.75 222.34 
M 187.02 107.23 187.02 107.23 
M 191.05 228.04 196.62 227.71 
M 189.62 106.32 189.62 106.32 
M 198.87 230.62 200.7 229.36 203.05 226.13 203.72 224.49 
M 204.57 239.11 204.57 238.19 203.04 234.86 200.66 231.92 198.81 230.77 
M 196.95 237.1 201.84 236.61 
M 204.77 101.74 204.77 101.74 
M 204.74 239.16 206.93 237.96 209.75 234.87 211.57 231.37 211.57 229.21 209.58 225.52 
M 202.33 228.31 207.92 227.66 
M 202.23 230.43 208.68 230.02 
M 202.26 232.11 208.36 232.59 
M 215.81 241.44 216.31 240.32 216.31 238.25 214.8 234.92 212.46 231.97 210.63 230.82 
M 209.29 237.52 213.63 236.73 
M 208.78 239.1 213.24 239.45 
M 214.45 228.63 220.34 227.82 
M 222.35 230.61 224.18 229.35 225.63 227.34 
M 226.97 242.5 227.98 240.26 227.98 238.2 226.48 234.86 224.15 231.91 222.34 230.76 
M 220.16 239.16 225.63 239.38 
M 220.27 240.81 225.47 241.87 
M 228.21 239.13 230.4 237.92 233.2 234.83 235.01 231.33 235.01 229.16 233.97 227.13 
M 226.2 228.82 231.97 227.86 
M 225.69 229.92 231.41 230.56 
M 232.39 242.37 230.41 240.45 228.23 239.4 
M 234.79 97.91 234.79 97.91 
M 238.71 242.32 239.69 240.16 239.69 238.09 238.18 234.76 235.83 231.81 234 230.66 
M 231.91 238.72 237.25 239.17 
M 237.94 229.88 243.12 230.69 
M 237.93 231.7 243.87 233.02 
M 243.96 242.31 242.11 240.53 239.94 239.5 
M 247.25 97.71 247.25 97.71 
M 245.92 230.64 247.75 229.38 249.31 227.21 
M 250.61 242.49 251.6 240.32 251.6 238.27 250.09 234.96 247.75 232.03 245.92 230.89 
M 244.42 237.42 248.81 237.17 
M 244.3 239.23 248.8 239.27 
M 244.5 240.9 248.47 241.63 
M 251.73 239.04 253.91 237.85 256.69 234.78 258.49 231.32 258.49 229.17 257.45 227.17 
M 255.69 242.48 253.56 240.43 251.44 239.41 
M 256.07 237.2 260.01 236.78 
M 255.69 239.43 260.74 239.48 
M 266.12 99.4 266.12 99.4 
M 263.33 238.75 265.5 237.57 268.27 234.55 270.06 231.14 270.06 229.02 268.81 226.64 
M 260.99 230.35 266.52 230.35 
M 266.57 241.72 264.69 239.94 262.6 238.95 
M 269.38 230.47 271.21 229.22 273.27 226.41 
M 273.76 241.08 274.42 239.68 274.42 237.73 272.94 234.59 270.65 231.81 268.86 230.72 
M 267.17 236.8 272.05 236.61 
M 266.71 238.82 272.02 238.54 
M 266.97 240.68 272 240.81 
M 271.44 100.8 271.44 100.8 
M 274.99 238.56 277.18 237.4 279.99 234.41 281.8 231.03 281.8 228.94 280.01 225.6 
M 273.08 231.63 278.72 232.54 
M 283.72 104.66 283.72 104.66 
M 286.32 238.79 286.32 237.68 284.79 234.57 282.41 231.83 280.55 230.75 
M 278.88 240.17 278.89 240.17 
M 291.01 107.33 291.01 107.33 
M 284.99 228.72 290.36 227.09 
M 284.36 229.97 290.21 230.36 
M 284.91 231.71 290.13 232.87 
M 286.1 238.84 285.52 238.59 
M 294.54 108.62 294.54 108.62 
M 292.75 230.51 294.49 229.24 296.72 225.97 297.85 223.05 
M 297.72 236.4 297.04 235.04 294.64 232.31 292.77 231.25 
M 291.28 237.31 295.47 236.88 
M 297.73 109.75 297.73 109.75 
M 302.48 235.31 303.25 234.44 304.99 230.97 304.99 228.83 303.25 225.36 300.77 222.56 
M 296.55 228.34 302.07 227.23 
M 303.53 229.74 305.21 228.43 307.36 225.09 308.75 221.31 308.75 220.79 
M 303.36 222.12 305.85 222.64 
M 307.74 233.71 306.42 231.99 304.66 230.85 
M 307.66 227.62 312.78 226.59 
M 307.89 230.81 312.49 231.47 
M 316.55 218.87 317.05 218.83 
M 317.18 230.72 316.9 230.29 315.27 229.07 
M 317.81 225.51 323.37 225.12 
M 318.05 227.39 322.75 227.6 
M 318.23 229.81 319.57 229.95 
M 324.47 227.14 326.19 225.84 328.38 222.51 329.8 218.74 329.8 216.4 329.51 215.64 
M 326.29 227.75 325.39 227.07 
M 336.84 125.46 336.84 125.46 
M 330.05 217.46 332.14 216.13 333.3 214.66 
M 328.84 225.25 334.32 223.75 
M 343.54 128.58 343.54 128.58 
M 340.6 222.46 342.09 218.77 342.09 216.41 340.46 212.47 
M 334.2 217.28 339.64 217.28 
M 334.7 219.9 339.27 220.83 
M 345.99 220.25 344.92 219.03 342.69 217.75 
M 354.27 216.71 352.87 213.13 350.51 209.67 350.1 209.37 
M 347.26 218.3 350.07 218.54 
M 355.62 216.09 358.17 212.73 359.92 208.66 359.82 205.9 
M 355.34 207.54 356.65 207.54 
M 365.45 138.21 365.45 138.21 
M 362.13 208.59 367.89 209.88 
M 367.83 139.25 367.83 139.25 
M 372.48 208.07 371.28 207.15 
M 380.92 144.91 380.92 144.91 
M 373.88 204.16 379.96 203.88 
M 373.7 206.74 375.5 206.62 
M 384.39 202.36 385.26 201.13 386.9 197.08 386.9 195.51 
M 380.25 198.05 384.19 199.01 
M 392.11 163.41 391.56 162.51 388.72 159.86 386.5 158.83 
M 389.55 199.9 388.68 199.48 
M 233 97.05 279.63 30 280.35 30.48 236.16 97.89 
M 245.86 96.93 269.62 58.26 270.36 58.69 249 97.65 
M 258.78 97.5 269.17 82.59 269.91 83.03 261.74 98.53 
M 272.41 100.62 273.75 101.41 
M 275.87 37.31 272.91 42.46 271.59 45.09 270.43 47.78 269.48 50.54 268.11 56.25 267.24 62.13 
M 268.18 62.67 267.06 67.43 266.47 72.18 266.46 74.56 266.66 76.94 267.04 79.32 268.14 84.08 
M 269.06 84.64 268.93 88.58 269.29 92.39 269.76 94.22 270.43 96 271.27 97.74 273.28 101.13 
M 274.35 39.87 271.59 45.09 270.43 47.78 269.48 50.54 268.71 53.36 267.65 59.18 
M 269.65 47.98 267.27 52.47 266.28 54.79 264.8 59.59 263.88 64.59 
M 264.94 56.09 262.95 59.85 261.43 63.78 260.88 65.81 260.11 69.99 
M 260.24 64.21 258.63 67.23 257.41 70.39 256.35 75.4 
M 255.53 72.32 254.32 74.61 253.39 77.01 252.58 80.81 
M 267.59 65.05 266.67 69.8 266.47 72.18 266.46 74.56 266.66 76.94 267.55 81.7 
M 262.71 76.59 262.12 79.68 261.98 82.77 262.11 84.31 262.69 87.41 
M 149.48 172.5 311.59 170.03 311.61 170.89 149.55 175.5 
M 149.59 176.37 291.43 182.31 291.4 183.17 149.7 179.36 
M 149.7 180.26 270.87 192.31 270.79 193.16 149.69 183.24 
M 149.68 184.14 250.1 200.02 249.98 200.87 149.44 187.08 
M 149.36 187.96 229.33 205.45 229.16 206.29 149.11 190.88 
M 149.03 191.76 208.74 208.61 208.52 209.44 148.78 194.66 
M 148.85 195.59 188.51 209.53 188.25 210.35 149.07 198.57 
M 149.15 199.69 168.84 208.25 168.53 209.05 149.15 202.37 
M 149.14 205.47 149.91 205.95 149.55 206.73 149.17 206.61 
M 294.66 171.37 290.07 172.7 287.87 173.51 285.75 174.48 283.73 175.63 279.98 178.43 276.49 181.68 
M 276.45 182.77 271.9 183.59 267.56 184.89 265.51 185.81 263.54 186.91 261.64 188.18 257.99 191.03 
M 257.9 192.11 253.42 192.44 249.1 193.26 247.04 193.95 245.04 194.83 243.09 195.89 239.32 198.31 
M 239.16 199.39 234.8 199.23 232.65 199.32 230.55 199.58 228.49 200.04 224.5 201.54 220.63 203.55 
M 220.41 204.61 216.21 203.98 212.08 203.87 210.04 204.11 208.03 204.55 206.04 205.16 202.1 206.74 
M 201.83 207.78 197.84 206.71 193.85 206.14 191.86 206.16 189.87 206.38 187.88 206.78 183.91 207.91 
M 183.57 208.94 179.83 207.43 177.94 206.85 176.04 206.44 174.11 206.24 170.19 206.42 166.21 207.11 
M 165.82 208.12 162.3 206.44 158.69 205.28 156.84 204.99 154.96 204.9 153.05 204.98 149.18 205.49 
M 292.35 172.01 287.87 173.51 285.75 174.48 283.73 175.63 281.81 176.95 278.22 180.02 
M 271.3 172.55 267.45 173.84 263.89 175.66 262.24 176.8 259.15 179.44 
M 250.25 173.09 247.03 174.18 245.5 174.87 242.67 176.65 240.08 178.86 
M 229.2 173.64 226.61 174.51 224.21 175.73 221.01 178.29 
M 208.16 174.18 206.18 174.84 204.36 175.77 201.94 177.71 
M 274.16 183.15 269.69 184.16 267.56 184.89 265.51 185.81 263.54 186.91 259.8 189.57 
M 251.03 182.48 247.35 183.31 245.59 183.92 242.27 185.58 239.19 187.78 
M 227.91 181.81 225 182.47 223.61 182.94 221 184.26 218.58 185.99 
M 204.78 181.14 201.64 181.97 199.73 182.93 197.96 184.19 
M 255.65 192.24 251.23 192.76 249.1 193.26 247.04 193.95 245.04 194.83 241.19 197.07 
M 229.13 190.03 225.75 190.43 224.11 190.81 221 192.02 218.05 193.73 
M 202.61 187.82 199.12 188.36 196.96 189.2 194.91 190.4 
M 236.97 199.28 232.65 199.32 230.55 199.58 228.49 200.04 226.48 200.7 222.56 202.51 
M 214.81 196.23 211.5 196.26 209.89 196.46 206.77 197.32 203.76 198.71 
M 192.65 193.18 189.23 193.34 187.06 193.94 184.97 194.91 
M 218.31 204.26 214.14 203.84 212.08 203.87 210.04 204.11 208.03 204.55 204.07 205.91 
M 191.6 199.15 188.89 198.88 186.23 199.05 184.92 199.34 182.35 200.23 
M 199.83 207.21 195.84 206.34 193.85 206.14 191.86 206.16 189.87 206.38 185.9 207.31 
M 175.11 238.01 178.29 241.71 185.64 251.31 187.77 253.27 189.31 256.4 190.77 257.58 192.32 258.23 189.78 261.54 188.88 264.24 187.8 266.76 187.26 269.7 185.75 271.83 183.09 272.8 180.79 274.13 179.37 276.24 178.39 279.43 173.41 280 171.44 276.07 169.84 274.05 169.73 271.86 170.82 269.81 170.95 266.79 170.29 261.11 169.72 258.52 169.6 255.6 168.86 252.79 167.78 247.03 167.21 241.32 165.24 234.9 
M 173.46 237.49 178.56 244.17 180.16 246.85 181.55 249.6 182.47 252.4 185.75 256.13 187.14 258.76 
M 171.82 236.98 174.32 241.02 176.29 243.72 178.09 246.58 179.23 248.97 180.48 252.44 181.08 255.41 
M 170.18 236.46 172.38 240.53 174.08 243.25 176.56 248.61 177.6 252.01 177.5 254.72 180.26 259.72 
M 168.54 235.94 171.78 242.75 173.96 248.34 175.23 250.9 175.01 254.14 175.34 256.64 178.43 264.81 179.84 267.58 180 271.14 
M 166.89 235.42 168.37 239.03 170.85 247.51 171.99 250.13 172.44 253.47 173.12 256.4 173.38 259.03 174.12 261.75 174.6 264.29 175.6 266.3 174.87 267.73 174.8 271.07 175.24 274.07 177 277.07 
M 363.53 215.73 366.51 219.78 365.95 220.43 361.5 218.07 
M 352.02 221.55 355.3 226.04 354.73 226.68 349.94 223.84 
M 340.32 226.97 344.58 232.75 343.97 233.36 338.14 229.17 
M 328.44 231.95 334.27 239.92 333.64 240.51 326.16 234.06 
M 316.34 236.42 324.39 247.47 323.74 248.04 313.99 238.44 
M 304.2 240.75 314.65 256.1 313.97 256.63 301.75 242.65 
M 294.74 243.29 307.9 264.02 307.2 264.52 292.2 245.07 
M 365.5 220.2 362.66 220.41 361.32 220.67 360.05 221.09 358.88 221.69 356.81 223.41 354.98 225.59 
M 354.25 226.4 351.45 226.72 350.14 227.03 348.92 227.49 347.8 228.13 345.85 229.93 344.15 232.17 
M 343.39 232.94 340.64 233.38 338.17 234.26 337.09 234.95 336.12 235.81 335.25 236.82 333.69 239.13 
M 332.89 239.86 330.19 240.4 327.78 241.36 326.75 242.09 325.83 242.98 325.02 244.02 323.59 246.37 
M 322.77 247.08 320.03 247.88 318.77 248.42 317.62 249.09 316.61 249.93 314.94 252.05 313.61 254.57 
M 312.75 255.23 310.57 255.98 309.6 256.46 308.76 257.07 308.08 257.82 307.14 259.71 306.59 261.95 
M 331.52 240.1 328.93 240.81 327.78 241.36 326.75 242.09 325.83 242.98 324.28 245.16 
M 321.38 247.45 318.77 248.42 317.62 249.09 316.61 249.93 315.72 250.92 314.25 253.28 
M 311.63 255.58 309.6 256.46 308.76 257.07 308.08 257.82 307.54 258.7 306.84 260.81 
M 306.94 251.16 305.62 251.73 305.07 252.12 304.28 253.19 303.82 254.55 
M 392.11 149.71 394.45 147.98 397.65 143.93 401.38 139.85 405 136.84 406.97 134.76 413.74 130 415.75 129.35 417.53 127 419.58 124.67 421.79 122.69 424.01 121.04 426.73 120.22 435.2 117.14 437.43 116.89 440.38 117.07 443.97 116.25 446.85 115.24 449.76 115.49 452.15 115.27 454.36 114.8 455.6 117.35 455.18 119.71 455.16 122.46 455.56 125.63 456.53 129.24 456.61 131.93 455.86 134.71 453.88 136.27 452.83 141.9 451.4 143.73 447.73 146.9 446.32 149.03 445.37 151.7 443.01 156.62 441.52 158.74 438.48 159.31 435.97 160.43 433.53 165.16 433 168.22 430.09 168.95 427.83 170.33 426.09 172.24 423.97 173.72 421.83 174.96 419.3 175.8 416.13 176 413.67 176.97 411.46 178.23 409.71 179.95 412.09 181.65 422.74 184.6 429.36 189.81 430.86 191.5 434.28 197.01 436.1 198.13 437.95 198.86 440.47 200.27 442.81 201.85 446.73 205.31 448.89 207.66 449.56 210.18 450.75 216.85 451.37 219.28 452.64 222.11 455.12 226.63 455.88 229.01 456.65 232.15 456.5 234.89 455.81 237.46 454.03 239.34 453.59 244.46 451.43 244.6 449.57 243.16 447.29 242.76 444.2 241.6 440.21 241.35 436.58 239.68 431 237.97 427.43 235.03 425.06 234.84 421.97 233.99 419.27 232.59 417.31 230.91 415.06 229.39 410.42 225.57 405.3 218.52 403.09 216.74 401.34 214.18 397.85 209.81 392.11 201.25 
M 398.48 146.14 400.18 144.19 402.09 142.43 406.15 139.88 409.5 136.05 411.88 134.53 416.78 131.87 418.84 130.32 421.2 128.12 426.77 125.57 429.51 124.1 432.01 123.95 434.11 122.71 
M 396.85 150.53 399.19 148.3 403.13 145.02 405.44 143.77 409.77 141.02 411.19 138.99 413.37 137.44 415.5 136.37 419.8 133.2 425.19 130.92 
M 397.12 152.93 399.34 150.96 401.54 149.82 403.92 148.17 406.55 147.11 408.57 145.41 410.99 144.31 412.93 142.86 421.59 137.36 424.19 136.07 426.32 136.07 429.36 134.63 
M 397.44 155.5 399.72 153.73 404.54 151.26 409.52 148.86 411.81 148.34 414.09 147.16 419.29 145.03 422.41 142.78 424.91 141.93 426.59 140.69 
M 392.11 160.38 394.92 159.41 397.61 158.05 400.03 156.4 405.06 153.81 410.14 151.74 412.13 151.71 417.64 150.19 420.17 148.92 423.33 147.67 427.08 145.74 428.59 144.77 429.9 144.32 431.2 144.66 434.32 144.73 437.39 143.53 440.57 143.68 443.05 144.15 
M 395.29 161.95 402.95 157.75 410.77 154.68 418.56 153.44 420.61 152.38 427.99 151.82 430.12 150.3 
M 392.11 164.64 395.57 164.45 398.4 163.46 404.04 160.95 409.16 159.12 412.16 158.34 414.29 157.89 417.5 157.53 420.2 156.53 421.87 156.33 425.29 156.65 
M 395.98 167.01 401.98 165.66 404.77 164.26 407.31 164.26 410.25 163.8 415.08 161.88 416.99 162.11 419.9 161.57 423.21 162.18 426.86 161.8 430.57 162.32 
M 395.94 169.48 399.32 169.08 405.02 167.92 411.25 168.08 412.31 167.37 414.29 167.14 416.59 166.51 420.4 166.72 423.48 168.67 427.92 168.05 430.95 167.9 
M 395.96 171.52 399.44 171.91 402.84 171.99 406.05 171.56 410.7 171.59 
M 392.11 173.17 399.99 174.99 405.87 175.82 
M 401.16 178.09 404.47 179.3 
M 392.11 177.44 396.71 179.45 399.89 180.63 402.93 181.46 
M 395.81 181.93 401.57 184.14 404.66 184.86 411.07 185.14 
M 395.44 183.57 398.33 185.28 401.2 186.65 404.19 187.82 411.04 188.36 415.55 190.1 417.71 189.68 420.48 189.54 423.36 190.77 
M 398.36 187.69 401.06 189.26 406.92 191.25 410.25 191.79 412.41 192.96 
M 400.66 191.56 406.33 193.53 409.42 194.35 418.15 198.88 420.98 199.67 
M 400.81 193.72 403.21 195.07 405.92 196.25 408.91 197.04 411.54 198.05 416.99 202.07 419.67 203.13 421.42 204.32 423.14 205.23 425.91 206.4 428.55 206.92 431.55 207.18 440.04 209.34 443.25 207.28 447.09 206.72 
M 395.12 192.64 400.85 195.97 402.95 197.8 405.41 199.15 407.81 200.22 410.52 201.76 413.65 203.82 415.99 205.73 418.87 207.39 420.89 208.07 422.9 209.56 424.4 211.13 427.24 211.61 433.39 213.88 435.86 214.61 
M 397.82 197.04 400.25 199.32 402.54 200.72 405.11 201.94 409.91 205.03 412.32 207.51 417.23 211.26 420.96 213.08 428.63 215.97 431.48 217.62 434.74 218.95 439.82 219.07 441.97 220.08 445.42 219.69 447.37 221.05 450.17 221.56 
M 397.18 199.77 399.46 201.91 401.58 203.47 404.18 204.56 406.6 206.02 408.79 208 413.4 212.8 415.23 214.06 421.78 217.52 424.13 218.34 
M 396.47 202.21 398.6 204.61 403.13 207.54 405.85 209.06 408.32 211.04 409.82 213.77 411.82 215.06 413.91 217.13 418.05 219.94 422.19 224.24 428.15 226.1 430.27 227.61 433.45 228.25 438.98 228.77 441.69 229.53 
M 394.21 201.72 396.1 204.37 398.21 206.9 402.09 210.98 404.58 212.41 406.47 215.07 410.41 218.27 412.65 220.57 416.23 224.96 419.96 228.63 422.16 230.11 425.23 231.09 429.07 231.23 430.66 231.86 432.71 233.37 438.15 235.41 442.18 235.52 445.33 236.16 
M 352.65 132.67 354.43 131.5 356.48 130.62 358.86 130.06 361.61 129.86 364.7 130.02 368.09 130.46 371.82 131.25 384.74 135.35 392.22 137.48 394.64 139.1 395.39 140.9 394.48 142.6 392 143.65 388.38 143.57 380.27 141.78 376.55 141.2 372.38 141.25 
M 363.16 133.38 368.09 133.91 371.82 134.69 384.74 138.79 392.22 140.92 393.38 141.7 
M 75.33 186.08 78.71 177.04 80.97 172.77 84.28 169 91.59 161.74 98.67 152.82 102.98 148.32 107.86 144.36 117.72 137.37 126.92 131.93 130.83 129.98 135.63 127.93 139.13 132.74 140.86 137.8 142.82 142.84 144.99 147.85 146.73 152.91 147.87 158.04 149.57 168.34 149.46 173.58 149.7 178.79 149.69 184.03 148.78 194.59 149.16 199.78 149.25 210.24 148.84 215.52 147.77 220.86 145.55 226.25 135.31 225.55 127.84 224.47 121.12 223.13 114.74 221.2 108.99 218.97 99.09 213.97 90.75 208.94 86.58 206.21 83.06 203.52 
M 129.48 162.82 129.98 167.28 128.9 175.85 128.03 179.65 126.9 183.15 126.06 186.45 126.36 192.49 127.37 198.5 127.73 202.07 127.4 206.28 110.87 205.87 106.02 205.19 101.38 204.08 97.02 202.4 93.01 200.37 
M 81.46 202.92 72.21 189.81 71.77 187.63 73.1 185.91 75.11 185.87 76.68 187.38 79.28 193.44 82.24 201.67 83.08 203.58 
M 82.6 204.21 80.47 204 71.82 202.26 65.48 201.27 63.7 200.14 63.34 198.03 64.62 196.37 66.75 196.39 80.78 202.67 82.81 203.41 
M 99.04 171.98 98 168.03 98.29 163.94 99.9 160.18 102.64 157.13 106.23 155.15 110.26 154.44 114.3 155.07 117.92 156.98 120.73 159.97 122.41 163.7 122.79 167.78 121.82 171.76 119.62 175.21 116.41 177.76 112.55 179.12 108.46 179.16 104.57 177.87 101.31 175.39 99.04 171.98 
M 98.89 171.64 98.07 168.67 98.01 165.59 98.26 164.07 99.32 161.18 101.06 158.64 102.15 157.55 104.69 155.81 107.58 154.76 109.1 154.5 112.17 154.57 115.14 155.38 
M 100.48 170.98 100.05 169.72 99.67 167.1 99.72 165.77 100.17 163.68 
M 100.28 163.33 101.55 160.8 
M 103.5 158.68 105.48 157.35 106.69 156.81 109.28 156.21 111.93 156.27 114.48 156.97 
M 102.07 170.32 101.71 169.26 101.39 167.06 101.43 165.95 101.81 164.18 
M 104.58 160.02 106.26 158.88 107.29 158.43 109.45 157.93 111.68 157.97 113.82 158.56 
M 103.66 169.66 103.37 168.81 103.11 167.03 103.15 166.12 103.54 164.43 
M 105.85 161.2 107.88 160.05 109.63 159.64 111.43 159.68 113.16 160.15 
M 105.84 168.92 105.43 167.34 105.55 165.7 105.9 164.87 
M 107.37 162.94 108.72 162.19 110.33 161.9 111.95 162.15 113.4 162.92 114.52 164.11 115.19 165.61 115.34 167.24 114.96 168.83 114.08 170.21 112.79 171.23 111.25 171.77 109.61 171.79 108.06 171.27 106.75 170.28 105.84 168.92 
M 108.43 162.34 107.85 163.51 
M 107.02 165.16 105.6 168 
M 109.91 161.97 108.65 164.49 
M 108.21 165.38 106.18 169.43 
M 111.17 162.03 109.45 165.47 
M 109.39 165.59 106.97 170.44 
M 112.31 162.34 107.9 171.16 
M 113.33 162.88 108.98 171.58 
M 114.18 163.76 110.17 171.79 
M 114.89 164.93 111.51 171.68 
M 115.29 166.7 113.19 170.91 
M 75.44 185.81 78.58 188.95 
M 76.86 182.06 80.7 185.9 
M 78.25 178.29 81.57 181.61 
M 79.91 174.78 84.4 179.27 
M 81.95 171.66 86.26 175.97 
M 84.37 168.91 87.01 171.55 
M 86.94 166.32 90.89 170.27 
M 89.54 163.75 93.56 167.76 
M 92.09 161.13 97.15 166.19 
M 94.42 158.29 98.74 162.61 
M 96.69 155.4 100.13 158.84 
M 98.97 152.51 103.25 156.8 
M 101.5 149.87 105.03 153.4 
M 104.16 147.37 107.34 150.55 
M 107.01 145.05 110.64 148.69 
M 109.96 142.84 114.6 147.48 
M 112.96 140.67 117.15 144.86 
M 116.01 138.56 120.13 142.68 
M 119.13 136.51 123.04 140.42 
M 122.33 134.54 125.73 137.95 
M 125.62 132.67 128.56 135.61 
M 129.01 130.89 133.07 134.96 
M 132.53 129.25 135.62 132.34 
M 139.54 205.28 140.03 205.37 140.61 205.24 140.82 205.04 140.81 204.71 138.96 202.51 
M 122.13 206.9 121.5 206.49 120.51 205.29 120.17 204.03 120.29 203.31 120.6 202.53 121.24 201.83 122.99 200.78 124.53 199.41 125 198.67 125.48 197.32 
M 139.52 200.5 137.92 197.97 138.3 197.1 138.66 196.8 140.79 196.04 141.96 195.73 143.23 195.64 
M 126.57 219.25 126.89 217.6 126.81 217.06 125.82 215.24 125.37 214.77 
M 95.46 168.7 96.89 171.29 
M 141.01 179.02 141.94 178.69 142.99 178.65 145.14 179.3 146.4 180.02 
M 104.51 211.16 105.32 209.98 106.57 208.85 109.76 204.38 110.53 204.02 
M 78.73 176.99 80.73 178.73 81.87 179.27 
M 129.69 183.12 128.21 182.29 127.38 182.16 125.5 182.2 124.66 182.39 121.91 183.75 120.91 184.4 118.58 187.22 
M 133.4 157.45 130.26 159.88 129.16 160.41 124.78 161.24 122.86 161.36 121.31 161.26 
M 98.08 168.35 97.79 169.42 98.07 170.79 
M 134.9 215.05 133.14 213.87 130.71 213.17 127.94 212.9 125.85 211.77 
M 138.94 149.65 137.96 150.95 137.45 151.34 135.99 152.13 133.7 152.91 132.98 153.52 132.52 154.36 
M 78.62 191.8 79.27 190.59 79.71 189.08 80.88 186.35 
M 75.97 186.7 76.98 185.39 82.76 180.65 86.7 179.12 
M 77.12 184.12 82.37 180.53 84.99 179.7 86.94 178.82 87.36 178.37 87.87 177 
M 85.7 176.67 85.93 175.7 85.94 174.39 85.58 172.81 85.37 172.55 84.93 172.4 84.08 172.99 
M 99.42 185.86 98.52 187.43 97.99 188.76 96.41 190.86 
M 104.49 210.69 106.6 208.3 107.47 206.77 109.45 204.28 109.74 204.03 110.42 203.82 
M 89.59 207.88 89.5 205.08 89.24 204.11 88.34 202.38 87.72 201.63 85.64 199.97 83.9 198.95 
M 119.06 216 119.11 216.26 120.32 217.05 121.43 217.29 
M 107.87 194.32 108.15 193.65 108.55 193.24 108.98 193.1 109.98 193.31 111.44 194.71 111.64 195.78 111.36 196.45 
M 115.11 216.41 114.99 216.23 114.63 216.18 
M 124.6 197.22 125.02 196.08 125.4 194.06 125 191.19 123.96 189.47 123.7 188.47 
M 100.46 154.51 101.69 156.39 101.92 157.09 101.78 158.09 
M 127.8 173.24 128.4 172.53 129.3 172.05 131.23 171.74 133.17 171.73 
M 101.37 175.43 101.17 175.45 
M 144.35 219.14 143.54 219.39 142.87 219.33 142.22 218.93 140.91 217.59 139.17 216.16 137.35 215.07 136.44 213.57 
M 116.87 195.67 115.86 196.43 111.16 197.53 
M 105.32 208.87 106.34 207.42 107.39 205.36 107.86 204.88 109.17 203.88 109.8 203.65 110.48 203.66 
M 83.07 203.59 83.43 204.25 
M 76.85 196.33 76.07 196.98 75.39 198.37 76.31 197.44 77.41 197.1 
M 72.01 188.83 69.24 190.7 67.77 193.25 69.48 191.15 72.32 189.97 
M 82.8 203.42 83.84 203.74 
M 74.33 199.69 75.23 197.98 76.46 197.04 75.73 198.13 75.52 200.23 
M 66.11 196.38 67.69 192.55 69.9 190.6 68.19 192.7 67.41 196.69 
M 71.86 202.27 75.32 204.47 78.4 206.17 81.58 207.62 88.17 209.86 94.98 211.61 
M 72.09 202.42 72.98 202.5 
M 74.42 202.78 75.42 203.42 76.36 203.64 
M 75.5 203 76.42 203.56 77.3 204.38 
M 136.01 127.69 144.37 136.06 
M 140.77 125.57 150 134.79 
M 145.53 123.44 154.41 132.32 
M 150.26 121.29 158.16 129.18 
M 155 119.13 160.38 124.51 
M 159.87 117.12 167.07 124.32 
M 164.76 115.12 172.5 122.86 
M 169.76 113.23 176.79 120.27 
M 174.78 111.36 180.95 117.53 
M 179.93 109.63 185.19 114.89 
M 185.1 107.9 190.79 113.6 
M 190.2 106.11 198.36 114.28 
M 195.32 104.35 200.57 109.6 
M 200.72 102.86 207.01 109.15 
M 206.2 101.45 213.96 109.22 
M 211.92 100.29 221.82 110.18 
M 217.78 99.26 223.57 105.05 
M 223.75 98.34 231.67 106.26 
M 230.34 98.04 236.9 104.6 
M 237.07 97.88 246.87 107.69 
M 243.88 97.8 253.2 107.13 
M 250.57 97.61 256.79 103.83 
M 257.86 98.01 267.34 107.49 
M 266.14 99.41 271.44 104.71 
M 275.65 102.03 284.11 110.49 
M 286.01 105.5 293.42 112.9 
M 296.83 109.43 305.6 118.2 
M 307.46 113.17 316.32 122.03 
M 318.38 117.21 326.7 125.53 
M 330.64 122.57 339.01 130.95 
M 343.52 128.56 349.74 134.79 
M 355.92 134.08 365.39 143.55 
M 368.1 139.37 375.56 146.84 
M 380.23 144.62 390.36 154.75 
"/></svg>