<svg xmlns="http://www.w3.org/2000/svg" width="520" height="320"><rect x="0" y="0" width="520" height="320" fill="floralwhite"/><rect x="10" y="10" width="500" height="300" stroke="black" stroke-width="1" fill="none"/><path stroke="black" stroke-width="1" fill="none" stroke-linecap="round" stroke-linejoin="round" d="
M 162.59 103.25 173.31 97.8 184.01 92.91 194.7 88.45 216.08 80.26 226.78 76.95 237.47 74.53 248.16 72.69 280.24 71.8 290.93 73.39 301.62 76.53 312.31 80.42 333.7 89.06 344.39 93.18 355.08 97.93 376.47 109.04 387.16 114.41 420.25 130.42 
M 420.25 175.24 397.85 188.53 387.16 194.61 376.47 200.17 365.78 205.44 355.08 210 333.7 218.46 323.01 221.58 312.31 224.29 301.62 226.74 290.93 228.03 280.24 228.9 269.54 228.53 258.85 228.54 248.16 228.82 237.47 227.09 226.78 224.24 216.08 220.94 205.39 217.28 194.7 214.11 184.01 210.34 173.31 205.54 151.96 194.18 
M 420.25 142.36 410.35 140.77 390.45 136.62 369.48 133.18 357.37 130.98 353.34 130.34 336.96 128.64 329.09 127.59 315.6 124.26 
M 311.74 123.35 298.75 120.71 291.65 119.44 288.04 119.15 280.49 119.13 274.62 119.69 
M 266.89 120.35 259.25 121.02 
M 255.31 121.56 243.17 123.1 
M 235.22 123.37 227.7 123.01 
M 223.94 122.9 220.05 122.92 
M 215.99 123.21 211.83 123.74 
M 207.67 124.36 199.43 125.77 
M 195.33 126.47 187.07 127.74 
M 182.83 128.4 178.53 129.1 
M 157.35 186.75 162.59 193.67 
M 165.16 189.88 168.33 193.79 
M 161.36 177.28 164.47 181.69 
M 174.24 193.93 180.78 201.24 
M 162.18 170.63 163.68 172.84 
M 166.84 177.41 171.69 184.03 175.06 188.2 183.61 197.8 
M 172.29 177.61 175.62 182.07 
M 186.24 194.25 192.74 201.63 
M 176.06 175.66 179.39 180.15 181.19 182.32 
M 198.36 201.92 201.2 205.44 
M 183.17 178.15 186.83 182.58 
M 206.45 205.75 209.36 209.01 
M 168.27 147.73 171.07 152.12 
M 206.05 198.92 208.81 202.57 
M 211.68 206 214.7 209.18 
M 169.69 141.15 176.52 152.03 
M 195.84 180.01 203.91 189.4 212.61 201.06 214.06 202.8 
M 169.92 132.14 176.69 143.61 181.11 150.52 
M 202.61 180.95 207.89 187.52 
M 210.94 191.65 216.6 199.38 
M 222.66 206.28 225.85 209.46 
M 232.18 215.32 235.21 217.96 
M 167.74 119.17 174.26 129.92 182.35 143.73 186.77 150.69 
M 210.49 183.35 216.47 191.78 
M 225.26 203.07 228.41 206.47 
M 163.39 102.85 169.11 112.54 177.28 125.31 181.29 132.08 
M 183.92 136.78 187.98 143.91 192.01 150.28 
M 216.48 183.62 219.25 187.71 
M 222.07 191.85 224.97 195.84 
M 227.97 199.66 231.07 203.27 
M 237.35 209.91 243.39 215.69 
M 167.18 100.92 171.69 108.07 181.63 122.94 
M 184.35 127.42 193.52 144.07 197.47 150.25 
M 224.82 187.7 230.72 195.98 
M 236.86 203.47 239.92 206.85 
M 170.99 98.98 185.92 120.61 188.64 125.12 196.28 139.42 198.98 144.13 202.75 149.89 
M 236.44 196.12 241.01 201.85 245.42 206.87 
M 174.85 97.1 187.06 114.06 
M 190 118.47 194.1 125.24 201.73 139.41 204.45 144.09 207.72 148.98 
M 232.03 181.98 232.72 183.03 
M 235.78 187.56 243.57 198.21 247.89 203.43 
M 253.42 209.18 256.01 211.61 
M 258.45 213.79 260.77 215.74 
M 265.37 218.99 267.53 220.21 
M 178.76 95.31 190.98 111.96 196.84 120.78 199.56 125.25 208.64 141.65 
M 211.6 146.22 213.11 148.4 
M 237.65 182.28 245.95 194.15 248.93 197.99 253.1 202.75 
M 255.79 205.56 258.38 208.14 
M 267.98 216.48 270.43 218.08 
M 182.64 93.53 193.27 107.81 202.28 120.78 205.05 125.19 212.9 139.18 215.81 143.81 219.51 148.76 
M 246.6 187.41 252.69 195.48 
M 270.67 213.77 275.68 217.3 
M 280.77 220 282.41 220.72 
M 186.52 91.86 198.75 108.07 204.83 116.53 210.6 125.14 218.74 139.04 221.9 143.59 225.75 148.45 
M 248.64 182.44 251.91 187.06 
M 254.94 191.03 260.57 197.65 
M 273.41 210.86 275.94 212.98 
M 283.47 218.1 285.91 219.39 
M 190.33 90.27 195.15 96.23 210.32 116.66 216.22 125.17 221.73 134.34 224.79 138.91 230 145.56 
M 257.14 186.47 260.07 190.16 
M 262.9 193.47 268.3 199.56 
M 278.75 210.11 281.27 212.28 
M 194.07 88.71 197.85 92.97 200.78 96.74 212.84 112.84 218.83 121.06 227.51 134.42 238.51 148.41 
M 259.32 181.9 262.29 185.76 
M 267.97 192.52 270.75 195.68 
M 273.52 198.73 276.26 201.65 
M 278.94 204.42 281.54 207.02 
M 284.05 209.42 288.78 213.6 
M 197.81 87.29 200.49 90.07 203.51 93.55 206.48 97.38 218.3 113.24 229.88 130.26 233.22 134.54 240.41 143.05 242.02 145.3 
M 263.09 179.57 264.46 181.35 
M 267.38 185.02 270.27 188.44 
M 273.17 191.71 276.07 194.88 
M 281.67 200.91 284.29 203.71 
M 201.45 85.93 206.13 90.66 209.18 94.2 219.29 107.86 
M 222.15 111.87 230.52 124.29 
M 237.03 132.58 242.46 138.75 244.17 140.91 
M 247.44 145.37 248.97 147.63 
M 269.53 180.73 275.54 187.72 
M 278.54 190.97 286.94 200.21 
M 293.84 208.15 295.9 210.52 
M 205.02 84.6 208.61 88.02 211.71 91.28 214.69 94.81 223.24 106.61 227.34 112.64 
M 229.98 116.66 234.08 122.72 237.17 126.73 247.84 138.82 251.2 143.3 254.21 147.96 
M 274.71 180.19 279.36 185.45 286.77 193.43 
M 294.13 202.37 298.24 207.82 
M 302.2 212.85 304.27 215.13 
M 208.47 83.25 214.11 88.57 217.15 91.84 220.12 95.45 229.92 109.42 
M 232.51 113.34 236.42 119.13 239.32 122.96 249.64 134.64 253.13 139 256.39 143.65 259.07 147.93 
M 277.76 177.17 279.97 179.74 
M 286.15 186.45 289.05 189.61 
M 296.42 198.93 298.51 201.95 
M 211.91 81.9 216.49 86.02 219.6 89.09 222.66 92.5 225.61 96.26 228.49 100.26 239.07 115.58 241.79 119.19 254.94 134.64 258.31 139.22 263.96 148.02 
M 281.95 175.59 282.01 175.68 
M 285.14 179.3 292.52 187.36 296.29 192.12 
M 300.68 198.61 304.74 204.9 
M 309 210.68 310.13 212.02 312.54 214.44 313.77 215.47 
M 215.4 80.53 222.14 86.45 225.24 89.66 228.24 93.23 244.49 115.47 256.77 130.18 258.44 132.41 
M 261.74 137.01 269.17 148.6 
M 287.06 175.27 292.98 182 
M 295.73 185.19 298.25 188.43 
M 219.3 79.27 224.85 83.8 227.96 86.8 230.96 90.17 247.31 111.75 260.34 127.84 
M 263.55 132.3 266.72 137.02 
M 269.71 141.69 272.42 146.1 
M 290.8 173.42 291.87 174.7 
M 294.79 178.15 297.59 181.48 
M 302.52 188.16 304.75 191.59 
M 318.92 210.69 320.18 211.94 323.11 214.35 
M 223.55 77.95 227.74 81.12 230.83 83.91 233.8 87.06 236.62 90.52 250.1 108.01 260.89 121.39 263.86 125.41 270.03 134.49 272.92 139.06 279.68 150.39 
M 299.52 177.7 302.18 181.15 
M 306.83 188.05 309.1 191.56 
M 313.95 198.53 316.46 201.89 
M 228.15 76.64 230.76 78.48 233.81 81.04 236.71 83.95 239.46 87.18 247.44 97.56 260.52 113.85 264.58 119.2 
M 267.42 123.14 271.89 129.59 274.77 134.05 282.1 146.55 284.95 151.03 
M 299.42 171.01 301.58 173.78 
M 316.37 195.13 321.6 201.96 
M 233.12 75.51 236.8 78.29 239.62 80.96 242.29 83.96 249.98 93.84 259.23 105.22 
M 261.79 108.43 268.27 116.95 274 124.85 276.85 129.13 280.6 135.54 
M 282.91 139.69 286.55 145.81 290.15 151.24 
M 306.61 173.55 311.6 180.93 
M 318.82 191.72 321.52 195.31 
M 237.93 74.45 239.74 75.76 242.46 78.21 245.03 80.96 252.46 90.25 263.05 103.01 273.45 116.51 277.74 122.36 
M 280.47 126.5 281.78 128.6 288.71 141.17 295.32 151.5 
M 307.91 168.21 311.67 173.44 
M 314.19 177.25 316.53 180.96 
M 334.71 204.95 337.22 207.6 
M 242.67 73.63 245.17 75.75 247.63 78.26 254.83 86.89 262.86 95.93 265.53 99.18 281.54 119.85 284.24 123.93 287.78 130.21 
M 292.3 138.76 297.53 147.49 
M 311.89 166.52 313.96 169.39 
M 319.12 177.31 323.97 184.83 
M 326.63 188.52 332.2 195.72 
M 334.88 199.05 337.44 202.12 
M 246.88 72.91 250.11 75.87 257.12 83.78 265.19 92.27 267.9 95.37 275.45 105.33 283.81 115.55 286.61 119.41 289.16 123.52 294.8 134.26 
M 299.62 143.12 303.95 149.78 306.51 153.15 
M 316.2 165.42 318.95 169.4 
M 324 177.47 326.5 181.3 
M 251.18 72.58 252.5 73.74 259.39 80.88 267.45 88.78 270.16 91.72 272.74 94.89 280.25 104.93 287.34 113.36 
M 290.12 117.1 291.47 119.06 295.12 125.39 
M 297.38 129.77 300.77 136.52 303.24 141.04 305.96 145.42 307.53 147.61 
M 310.83 151.99 311.93 153.38 
M 328.89 177.64 334.35 185.19 
M 255.52 72.42 269.72 85.41 272.39 88.19 274.96 91.22 282.36 101.26 290.79 111.22 293.59 114.85 296.25 118.84 298.75 123.09 304.6 134.32 
M 307.07 138.86 309.78 143.26 
M 323.7 161.96 325.88 165.31 
M 328.55 169.64 331.18 173.8 
M 333.89 177.77 336.71 181.56 
M 260.11 72.28 266.75 77.59 272.06 82.13 274.68 84.73 277.23 87.62 287.15 100.91 295.61 110.89 298.38 114.65 301.06 118.73 304.85 125.26 
M 307.29 129.78 311.02 136.62 313.74 141.08 315.26 143.24 
M 318.46 147.6 321.84 152.04 
M 333.47 169.74 334.81 171.86 339.05 177.77 
M 341.89 181.43 344.7 184.99 
M 265.55 72.21 271.9 76.78 274.51 78.93 278.34 82.72 
M 280.81 85.59 285.63 92.06 
M 288.11 95.46 292.03 100.45 297.63 107 301.84 112.55 
M 304.62 116.59 307.34 120.83 
M 309.98 125.22 312.55 129.75 
M 315.17 134.33 319.5 141.15 325.99 149.94 329.57 155.15 
M 333.24 161.11 335.89 165.49 
M 271.77 72.09 277.07 75.86 279.6 78.09 282.07 80.65 284.48 83.53 294.28 96.54 299.72 103.04 303.97 108.45 
M 306.83 112.37 311.14 118.59 313.94 122.92 317.94 129.8 
M 320.78 134.45 322.26 136.78 327.07 143.49 
M 346.46 172.97 351.99 180.26 
M 360.19 191.14 362.88 194.38 
M 278.09 71.87 279.69 72.98 282.19 75.02 284.62 77.4 287 80.13 294.17 89.42 307.6 106.19 313.49 114.29 317.74 120.79 
M 326.43 134.64 329.68 139.2 
M 338.51 152.29 341.06 156.58 
M 346.15 164.62 348.78 168.34 
M 365.21 190.68 367.95 193.96 
M 285.13 72.53 287.19 74.42 289.54 76.97 305.66 96.67 
M 308.45 100.23 312.81 106 317.17 112.23 
M 320 116.53 327.1 127.85 336.84 141.5 339.71 145.76 343.62 152.04 
M 353.8 167.35 364.79 183 
M 367.57 186.76 370.34 190.32 
M 291.57 73.57 296.94 79.46 304.22 88.01 312.23 98.1 320.76 110.27 329.19 123.43 332.31 127.99 340.47 139.2 
M 343.39 143.44 346.06 147.55 
M 348.61 151.56 352.37 157.33 358.84 166.65 
M 367.1 178.76 369.94 182.73 
M 298.86 75.72 306.9 84.62 311.95 90.74 314.62 94.33 321.5 104.28 
M 324.3 108.43 334.3 123.49 342.49 134.61 
M 345.57 138.91 348.38 143.07 
M 351.02 147.11 356.15 154.85 
M 358.73 158.62 366.7 170.46 
M 306.68 78.37 312.07 84.33 317.07 90.79 335.03 116.92 
M 338.05 121.2 344.57 129.91 
M 347.73 134.24 350.65 138.49 
M 353.37 142.65 361.3 154.57 
M 366.58 162.41 369.27 166.46 
M 377.64 178.83 380.47 182.83 
M 314.79 81.43 319.55 87.52 327.3 98.91 332.9 106.74 346.88 125.19 
M 350.06 129.51 354.44 135.98 358.5 142.35 
M 361.22 146.52 363.94 150.57 
M 377.39 170.93 380.16 175.08 
M 322.02 84.4 332.35 99.08 339.72 108.52 
M 342.9 112.4 351.04 122.64 355.6 129.13 
M 358.38 133.52 362.43 140.1 369.34 150.54 
M 372.05 154.63 374.74 158.79 
M 328.74 87.09 337.59 98.94 352.01 116.02 
M 361.1 128.93 367.88 140.01 374.84 150.59 
M 336.07 89.97 343.13 98.69 347.92 104.17 
M 351.22 107.89 356.21 113.68 359.4 117.83 362.39 122.18 366.61 128.9 
M 374.85 142.08 383.07 155.19 
M 385.7 159.63 388.29 164 
M 344.41 93.19 358.64 109.57 361.83 113.57 364.94 117.82 370.88 126.75 383.22 146.59 
M 385.92 151.11 393.68 164.56 
M 398.77 173.03 401.33 177.17 
M 354.01 97.46 364.19 109.57 370.65 118 376.66 126.97 388.78 147.01 
M 391.4 151.63 393.96 156.24 
M 401.56 169.43 404.05 173.59 
M 363.81 102.44 373.2 113.91 376.5 118.34 382.49 127.29 386.49 133.89 
M 389.07 138.35 391.65 142.93 
M 394.23 147.59 399.3 156.9 
M 404.38 165.78 406.85 170 
M 373.6 107.54 379.08 114.26 382.42 118.75 388.3 127.69 392.14 134.38 
M 394.6 138.92 403.32 155.3 409.65 166.35 
M 412.07 170.53 414.18 174.18 
M 383.19 112.42 388.32 119.18 391.29 123.69 393.96 128.19 404.84 149 
M 417.19 171.13 418.53 173.52 
M 392.04 116.76 394.05 119.65 396.84 124.24 399.37 128.82 405.3 140.31 
M 407.69 144.98 410.12 149.66 
M 399.65 120.45 404.67 129.5 415.4 150.19 
M 417.79 154.72 420.19 159.23 
M 406.58 123.85 412.48 134.7 418.27 146 
M 413.69 127.27 417.97 135.15 420.25 139.69 
M 164.43 102.32 163.14 104.26 
M 171.83 98.56 165.41 108.2 
M 179.58 94.93 175.97 99.71 173.19 103.79 166.56 114.1 
M 187.94 91.27 184 95.87 181.2 99.61 168.29 119.15 
M 197.5 87.4 192.18 92.57 189.27 95.94 186.48 99.61 175.28 116.63 169.24 125.3 
M 208.61 83.19 203.52 87.5 197.69 92.96 194.68 96.2 191.81 99.76 189.13 103.58 180.93 116.35 169.91 131.91 
M 219.9 79.08 214.51 83.29 211.8 85.63 206.29 90.68 200.31 96.69 197.33 100.11 194.54 103.8 190.61 109.84 
M 187.93 114.07 185.04 118.44 
M 178.59 127.52 175.23 132.15 
M 229.73 76.28 223.21 81.14 217.28 86.09 209.02 94.18 202.99 100.65 200.09 104.19 197.35 108 189.12 120.63 184.3 127.41 
M 180.93 132.06 174.31 141.29 
M 238.15 74.41 230.99 79.76 
M 227.67 82.47 220.08 89.14 214.55 94.79 205.72 104.68 201.51 110.29 
M 198.78 114.34 191.48 125.2 183.24 136.75 
M 179.96 141.36 176.82 145.87 
M 173.82 150.33 172.66 152.08 
M 245.38 73.17 241.81 75.74 235.32 81.01 228.8 86.85 222.82 92.52 219.97 95.43 214.2 101.87 211.31 105.22 207.03 110.59 
M 204.23 114.48 201.41 118.64 
M 192.11 132.23 188.83 136.89 
M 160.69 181.62 158 185.79 
M 251.29 72.58 247.05 75.79 244.13 78.21 237.85 83.95 225.46 96.24 219.62 102.49 213.96 109.15 208.3 116.6 194.34 137.02 
M 188.13 146.19 185.13 150.64 
M 170.7 174.27 166.2 181.74 
M 256.25 72.4 251.84 75.92 246.33 80.97 240.25 87.19 226.55 101.75 
M 223.62 104.88 219.38 109.67 213.81 116.79 204.71 129.82 196.66 141.77 
M 193.68 146.35 191.15 150.24 
M 260.87 72.27 256.42 75.99 251.22 81.03 245.59 87.17 233.54 100.93 229.04 105.72 
M 226.11 108.86 221.95 113.67 219.28 117.14 210.27 129.72 202.12 141.76 
M 199.16 146.41 196.74 150.27 
M 265.28 72.22 261.09 75.83 255.9 81.02 250.64 87.07 243.44 95.94 
M 240.49 99.55 236 104.75 227.09 114.42 224.45 117.74 217.52 127.47 
M 214.24 132.05 210.88 136.85 
M 185.32 178.05 185.21 178.25 
M 269.59 72.16 263.27 78.02 258.07 83.72 242.93 103.12 
M 239.87 106.69 232.19 115.12 228.21 120.18 
M 225.68 123.78 213.31 141.53 
M 190.61 179.1 188.61 182.66 
M 273.91 72.01 268.35 77.36 262.94 83.33 257.85 89.82 253.87 95.26 
M 251.11 99.06 246.8 104.75 238.97 113.78 
M 235.96 117.27 231.94 122.52 228.26 128.12 
M 225.54 132.22 216.05 146.09 
M 196.13 180.06 194.45 182.9 
M 187.08 194.29 184.13 197.82 
M 278.24 71.87 273.51 76.49 268 82.72 262.84 89.31 252.05 104.31 244.38 113.69 
M 241.3 117.38 238.43 121.06 
M 235.86 124.75 233.51 128.5 
M 231.1 132.44 228.39 136.67 
M 225.34 141.2 220.25 148.75 
M 201.88 180.82 197.93 187.11 
M 195.51 190.9 192.95 194.52 
M 282.21 72.09 278.68 75.58 273.06 81.98 267.88 88.73 257.22 103.71 246.74 117.12 
M 243.85 120.98 239.96 126.79 235.52 134.58 231.54 141.04 
M 228.5 145.63 226.61 148.43 
M 207.47 181.77 206.45 183.26 
M 203.71 187.35 201.13 191.18 
M 285.97 72.65 280.9 77.9 275.39 84.64 262.34 103.1 250.69 118.59 247.91 122.62 245.39 126.67 239.95 136.69 
M 237.56 140.94 232.69 148.6 
M 212.39 183.36 209.43 187.54 
M 198.51 201.93 195.57 205.14 
M 289.87 73.23 285.89 77.27 280.29 84 275.1 91.21 267.39 102.55 256.08 118 253.35 122.12 250.83 126.34 242.06 143.04 238.81 148.37 
M 212.08 191.68 209.23 195.43 
M 293.56 74.16 290.8 76.9 287.97 80.05 282.44 87.07 279.81 90.76 272.27 102.08 261.33 117.46 258.69 121.58 256.2 125.9 249.71 138.87 246.19 145.33 
M 220.68 187.7 217.59 191.79 
M 214.57 195.63 211.69 199.22 
M 297.31 75.26 292.9 79.71 287.27 86.65 281.96 94.12 274.49 105.42 266.4 117.09 263.83 121.19 261.43 125.53 254.96 139.08 252.74 143.39 250.3 147.66 
M 223.18 191.84 220.09 195.73 
M 301.06 76.37 297.95 79.4 295.02 82.66 292.17 86.23 285.43 95.67 
M 282.92 99.44 268.89 120.91 266.46 125.31 261.14 136.96 
M 259 141.52 255.45 148.1 
M 231.68 187.58 230.3 189.83 225.77 195.84 
M 222.7 199.49 219.73 202.92 
M 304.69 77.65 300.08 82.22 297.15 85.66 294.32 89.4 286.47 100.96 276.76 116.2 271.53 125.03 269.23 129.76 265.11 139.42 262.93 144.05 260.91 147.77 
M 239.68 182.79 237.14 187.51 
M 228.47 199.67 222.52 206.27 
M 308.2 78.92 305.21 81.81 302.21 85.07 299.31 88.68 296.52 92.58 290.15 102.41 
M 287.82 106.1 276.69 124.62 274.19 129.39 273.08 131.87 
M 270.95 136.84 267.85 144.15 265.73 148.25 
M 245.39 182.16 245.08 182.75 
M 239.99 191.98 238.66 194.15 235.8 198.09 234.28 199.86 
M 311.75 80.21 307.34 84.59 304.37 87.99 301.52 91.76 295.04 101.82 
M 292.69 105.67 279.14 128.89 276.67 133.81 275.58 136.34 
M 273.47 141.35 271.38 146.22 
M 250.63 182.25 250.45 182.61 
M 247.98 187.38 245.46 191.96 
M 242.81 196.19 241.45 198.2 239.99 200 
M 315.21 81.61 309.52 87.53 306.62 91.09 303.86 95.01 301.23 99.09 294.12 110.99 281.34 133.17 277.82 140.65 
M 275.72 145.61 274.39 148.73 
M 256.58 180.67 253.28 186.99 
M 318.72 83.05 314.69 87.38 311.81 90.75 309 94.47 303.73 102.56 295.42 116.81 
M 292.95 121.13 286.05 132.59 283.35 137.39 280.97 142.3 277.86 149.68 
M 250.79 199.59 248.05 203.41 
M 322.33 84.53 316.93 90.79 312.85 96.22 
M 310.17 100.13 306.31 106.27 296.45 123.14 288.01 136.82 285.39 141.55 284.25 143.95 
M 282.12 148.83 281.39 150.63 
M 258.56 194.41 254.61 200.78 251.91 204.68 247.88 209.89 
M 326.08 86.03 319.25 94.53 316.64 98.16 311.48 106.03 301.27 123.05 292.8 136.52 290.11 141.07 287.67 145.68 286.6 148.12 
M 268.68 184.85 266.18 189.1 
M 329.93 87.56 321.64 98.48 315.39 108.06 
M 312.85 112.21 306.23 123.01 296.25 138.68 
M 293.66 143.11 292.43 145.33 289.75 151.23 
M 271.3 188.31 268.7 192.41 
M 333.82 89.11 326.6 98.86 321.64 106.27 311.4 122.95 299.74 140.95 297.22 145.26 296.12 147.51 
M 283.9 175.56 279.16 183.62 
M 271.2 195.61 268.46 199.54 
M 260.2 210.66 257.54 214.01 
M 337.79 90.64 331.63 99.07 327.82 104.69 
M 325.38 108.5 316.65 122.95 309.12 134.34 
M 306.16 138.85 302.11 145.35 300.99 147.54 
M 289.56 173.71 287.81 177.17 284.42 183.08 
M 281.95 186.97 277.94 192.85 273.68 198.71 
M 262.31 212.89 259.6 216.02 
M 341.88 92.21 336.83 98.97 331.6 106.74 320.39 125.33 
M 317.54 129.79 309.91 141.1 307.18 145.43 304.87 149.79 303.52 152.78 
M 289.45 182.49 284.66 190.2 
M 279.08 197.93 276.12 201.67 
M 346.01 93.9 342.33 98.73 336.79 106.66 331.7 114.81 324.29 127.74 320.03 134.44 
M 316.95 138.88 312.48 145.39 311.26 147.59 
M 309.01 152.01 308.45 153.22 
M 300.27 170.77 290.96 187.59 288.54 191.44 284.45 197.21 
M 281.53 200.93 278.5 204.48 
M 272.37 211.02 269.37 213.99 
M 350.14 95.73 345.14 102.39 339.55 110.52 334.28 119.07 328.29 130.17 
M 325.68 134.62 324.29 136.84 319.7 143.31 
M 314.34 151.95 313.52 153.59 
M 305.91 169.57 303.47 173.68 
M 301.08 177.59 298.81 181.37 
M 292.14 192.67 289.58 196.51 
M 277.7 210.25 274.6 213.17 
M 354.3 97.59 348.07 106.09 342.4 114.49 339.61 118.92 337.02 123.45 332.49 132.54 330.03 137 327.2 141.36 321.19 149.82 319.93 152 
M 312.83 166.27 309.82 171.51 308.51 173.49 
M 305.92 177.37 302.21 182.92 298.9 188.38 
M 294.32 195.83 291.75 199.53 
M 288.99 203.08 286.06 206.43 
M 276.82 215.12 273.74 217.57 
M 358.36 99.63 351.08 109.86 345.3 118.6 342.5 123.21 340 127.88 335.53 137.07 332.99 141.48 327.05 149.96 323.82 155.02 
M 318.75 164.6 317.35 167.3 314.9 171.44 310.81 177.26 
M 308.08 180.96 305.52 184.56 
M 303.16 188.13 298.69 195.36 
M 288.15 208.89 285.17 211.78 
M 362.38 101.71 354.08 113.78 348.24 122.83 345.5 127.56 339.56 139.23 
M 337.04 143.64 329.34 155.14 
M 325.89 160.79 319.82 171.48 315.74 177.25 
M 312.87 180.93 307.49 188.05 
M 300.57 198.6 298.15 201.97 
M 295.61 205.18 292.94 208.25 
M 366.42 103.79 359.8 113.59 351.13 127.15 348.4 131.92 343.49 141.28 340.93 145.72 334.24 155.97 
M 333.86 156.54 329.54 163.24 325.81 169.56 
M 320.63 177.35 317.78 180.98 
M 314.87 184.53 312.07 188.05 
M 309.5 191.56 304.75 198.48 
M 302.36 201.78 299.92 204.91 
M 294.77 210.59 290.69 214.43 289.27 215.57 
M 283.48 219.67 281.65 220.78 
M 370.55 105.95 363.97 115.7 
M 361.17 120 353.81 131.51 343.27 149.91 333.25 165.47 
M 328.09 173.71 324.16 179.37 314.22 191.59 
M 311.62 195.07 309.1 198.48 
M 299.12 210.39 296.56 212.82 
M 291.24 217.15 288.49 219.07 
M 374.83 108.19 362.27 126.65 354.9 138.17 
M 352.21 142.75 349.57 147.25 
M 346.87 151.78 338.39 165.46 
M 335.64 169.76 329.11 179.56 324.96 184.87 
M 322.1 188.31 311.14 201.83 
M 379.33 110.48 376.91 114.12 364.69 131.15 358.67 140.18 350.48 153.47 340.8 169.59 
M 332.85 181.51 328.78 186.83 316.04 201.9 
M 297.63 218.44 295.75 219.54 
M 383.94 112.79 379.91 118.57 370.28 131.16 367.08 135.61 355.49 152.92 348.58 164.21 
M 345.9 168.9 341.97 175.65 339.36 179.69 335.38 185.21 
M 329.87 192.19 327.01 195.55 
M 324.09 198.8 321.17 201.98 
M 315.42 208.04 312.6 210.76 
M 307.13 215.28 304.52 217.08 
M 388.6 115.1 385.83 119 372.68 135.58 359.21 154.66 
M 356.38 158.86 352.25 165.56 347.04 174.93 343.2 181.3 
M 340.59 185.17 333.81 194.08 329.43 198.96 
M 326.44 202.05 323.45 205.06 
M 320.52 207.98 317.63 210.74 
M 393.15 117.3 388.52 123.47 381.77 131.49 376.73 137.77 
M 373.55 142.09 360.08 160.5 357.29 164.75 353.32 171.63 
M 345.72 184.87 341.78 190.57 337.64 195.81 
M 334.74 199.06 331.74 202.1 
M 319.87 213.11 317.15 215.33 
M 397.61 119.44 394.21 123.96 384.08 135.85 380.74 139.98 371.38 152.58 365.31 160.41 362.41 164.4 359.65 168.61 355.78 175.45 
M 353.27 180.03 349.5 186.49 345.56 192.21 
M 342.83 195.76 338.51 200.65 333.98 204.96 
M 401.91 121.55 396.49 128.47 386.39 140.27 378.46 150.66 
M 372.22 158.63 367.67 164.4 364.78 168.4 362.08 172.67 354.51 186.01 350.63 191.94 
M 345.17 198.94 342.25 202.06 
M 336.18 207.6 333.17 210.1 
M 406.17 123.64 401.83 129.14 391.98 140.78 380.85 155.02 
M 377.71 158.96 371.57 166.58 
M 368.66 170.5 365.91 174.65 
M 363.3 178.98 360.76 183.34 
M 358.22 187.57 355.64 191.55 
M 353.02 195.25 350.33 198.68 
M 341.51 207.54 338.89 209.69 
M 410.45 125.72 397.41 141.42 384.77 157.45 375.46 168.8 371.16 174.65 
M 368.44 178.75 363.22 187.11 
M 352.79 201.52 349.99 204.52 
M 414.75 127.78 402.74 142.13 394.91 152.04 
M 391.78 156 380.87 169.26 376.49 174.86 
M 373.7 178.74 370.98 182.72 
M 365.65 190.64 360.49 197.86 
M 419.03 129.83 408.05 142.83 395.6 158.57 390.9 164.27 
M 384.76 171.58 381.84 175.23 
M 379.01 178.93 376.24 182.7 
M 373.51 186.52 368.11 193.95 
M 420.25 135.21 413.41 143.44 400.93 159.23 396.28 164.86 
M 393.15 168.51 388.6 173.91 384.32 179.31 
M 381.53 182.91 376.01 190.14 
M 373.28 193.67 370.64 197.06 
M 420.25 141.87 404.71 161.76 
M 395.43 172.68 389.59 179.82 
M 386.8 183.35 384.04 186.82 
M 420.25 148.76 414.5 156.59 406.93 166.07 
M 394.83 180.35 392.03 183.87 
M 418.14 159.02 413.7 164.79 409.09 170.23 
M 402.98 177.35 400.04 180.88 
M 420.25 163.49 414.27 170.78 
M 216.08 80.26 216.08 80.26 
M 223.11 78.09 222.22 62.95 224.26 60.71 225.43 57.6 227.77 55.66 232.92 52.48 235.62 51.01 237.81 48.91 238.99 45.79 239.99 42.49 241.84 40.04 243.94 37.84 246.39 37.53 249.23 37.62 253.34 38.6 256.99 38.32 260.21 37.61 262.85 36.27 265.77 35.22 268.13 33.92 271.58 34.46 274.12 33.77 275.2 30.54 278.64 30 281.38 31.18 285.59 32.18 288.86 32.62 294.56 34.84 297.54 36.09 304.51 40.49 307.66 41.63 310.69 42.19 312.8 41.74 319.34 42.46 324.69 41.85 331.55 43.23 334.26 44.11 337.78 46.15 344.03 50.99 345.02 53.08 345.52 55.34 345.07 57.18 344.92 58.83 350.41 67.87 352.32 70.77 354.98 71.17 359.07 73.97 359.41 75.04 362.27 80.08 364.82 83.53 366.19 87.1 363.62 91.89 362.52 93.45 361.4 101.2 
M 355.09 97.94 355.08 97.93 
M 220.93 78.76 222.66 77.22 222.91 76.35 223.62 69.31 222.3 66.1 220.89 63.38 
M 225.77 77.26 226.87 75.69 227.68 73.18 227.42 70.41 227.51 67.79 228.04 65.91 
M 230.7 76.06 232.23 74.42 232.92 71.82 233.33 69.13 234.54 65.03 234.72 62.46 233.4 55.87 
M 235.64 74.94 237.21 73.36 238.6 65.1 239.4 62.69 239.23 60.36 239.84 58.05 239.51 54.79 
M 240.62 73.99 242.45 72.49 242.58 69.96 244.71 63.35 245.03 60.54 244.82 58.53 
M 245.62 73.13 246.83 71.87 247.61 69.27 248.9 66.53 250.16 63.11 250.65 60.83 250.8 58.45 251.29 56.66 251.53 49.21 253.29 45.95 253.66 42.81 253.56 41.13 
M 250.66 72.6 251.88 71.15 254.46 65.78 255.96 63.29 256.74 61.53 257.98 59.31 
M 255.73 72.41 257.59 70.71 260.8 64.4 261.52 61.09 263.01 58.38 264.65 56.9 264.64 53.99 263.94 50.97 262.9 49.05 263.29 45.92 264.55 40.49 267.06 36.47 
M 260.8 72.27 262.74 70.57 264.02 68.29 264.75 66.43 266.6 60.33 267 57.32 267.04 55.01 267.8 51.68 268.94 48.95 268.9 44.74 269.18 41.78 
M 265.87 72.21 267.94 70.12 271.8 60.2 272 57.24 271.86 54.33 272.7 51.66 272.97 47.79 274.4 41.43 
M 270.94 72.11 273 69.8 274.23 67.33 276.6 59.44 276.75 57.48 277.91 55.76 279.17 49.22 279.35 46.05 
M 276 71.94 278.1 69.71 278.74 67.25 280.55 62.08 282.05 60.79 283.06 59.05 283.43 56.25 285.1 53.1 285.88 49.95 286.24 46.45 287.12 43.65 287.56 39.64 
M 281.07 71.92 283.61 69.82 286.08 65.2 287.28 62.56 289.01 60.88 289.49 58.48 290.22 56.02 293.94 50.83 
M 286.09 72.67 289.02 71.47 290.99 69.13 295.34 61.3 296.72 59.21 299.24 54 304.39 45.93 
M 291.1 73.44 294.23 72.49 297.67 67.15 299 63.58 300.93 60.57 306.69 55.18 
M 295.97 74.87 298.63 73.27 302.06 69.36 304.08 65.98 305.43 62.91 307 60.58 311.6 56.94 
M 300.83 76.3 303.5 74.92 309.33 67.54 311.09 64.75 312.57 61.84 316.96 58.7 319.32 56.41 321.2 52.58 324.21 49.62 327.02 48.03 327.92 46.05 329.2 44.09 
M 305.61 77.98 307.96 76.62 309.72 74.48 311.9 72.26 314.15 70.48 316.4 67.67 318.8 66.14 320.62 64.23 325.68 58.18 327.49 54.92 329.28 53 332.35 52.74 
M 310.38 79.71 312.96 78.48 315.02 76.58 316.79 74.5 319.84 72.34 322.51 69.86 326.5 66.51 331.45 61.42 333.8 58.2 336.56 56.31 
M 315.1 81.56 317.59 80.81 320.22 78.8 322.46 76.34 325.05 73.92 326.83 71.27 329.83 69.53 331.97 67.52 333.35 64.5 335.87 62.33 338.56 60.43 340.07 59.03 341.31 57.57 
M 319.79 83.49 322.8 82.93 324.94 81.25 330.02 75.89 334.92 72.08 337.16 69.49 338.37 67.16 340.35 65.13 342.24 63.93 
M 324.49 85.4 328.14 85.22 330.99 83.23 333.88 80.8 337.16 76.48 339.21 74.96 339.82 72.97 342.66 71.43 345 68.59 
M 329.2 87.27 333.12 87.05 336.34 85.45 339.33 84.2 340.35 82.09 341.51 80.68 342.35 78.24 344.64 76.81 
M 333.91 89.15 337.36 88.5 340.78 87.64 345.42 83.9 347.38 82.03 349.36 79.57 
M 338.64 90.97 343.06 90.28 345.96 89.03 348.37 88.31 351.32 85.81 353.41 83.24 356.69 80.58 359.23 78.75 
M 343.38 92.79 348.15 92.28 353.07 89.11 356.29 86.73 358.65 83.8 361.31 82.46 
M 348.03 94.8 352.67 94.07 355.82 92.6 358.69 91.68 361.46 89.57 363.66 86.26 
M 352.66 96.86 357.7 96.85 360.1 95.85 
M 167.38 152.42 172.12 152.08 178.49 151.96 181.72 151.64 187.46 150.54 190.56 150.21 194 150.36 200.71 150.29 206.51 149.13 212.71 148.42 215.88 148.31 218.97 148.77 227.44 148.41 230.25 148.64 236.92 148.62 242.99 147.85 245.72 147.34 248.81 147.63 252.02 147.69 255.41 148.1 260.99 147.76 270.72 148.71 274.21 148.67 279.79 150.42 283.09 150.85 286.55 151.18 296.17 151.53 304.5 152.95 313 153.45 316.8 154.48 320.98 154.69 323.62 155.01 331.19 155.18 334.7 156.09 318.19 164.9 312.03 166.46 303.76 169.79 297.8 171.45 295.2 172.64 291.95 173.16 285.94 174.72 282.76 175.27 277.53 177.25 274.79 178.12 271.06 178 267.85 178.4 265.23 179.27 262.19 179.69 258.93 179.89 253.71 181.59 250.89 182.23 247.95 182.51 244.25 182 238.19 182.33 234.67 182 231.48 181.97 228.49 182.13 223.57 183.52 220.89 183.98 217.93 184.05 210.53 182.02 207.63 181.8 201.17 180.7 192.73 179.64 189.47 178.81 185.42 178.08 168.5 173.7 166.05 172.85 163.06 171.27 162.15 170.61 
M 168.92 154.2 175.55 154.31 181.58 154.11 187.6 153.33 190.73 153.16 200.8 153.48 203.88 153.3 209.3 152.58 212.41 152.4 215.41 152.63 218.58 153.17 221.67 153.16 224.34 153.4 227.99 153.36 237.73 154.05 240.56 153.91 243.81 153.97 249.59 153.53 252.87 153.78 256.03 154.6 258.02 155.56 264.41 155.75 274.86 156.94 284.17 157.68 287.34 158.72 293.04 160.15 295.65 160.55 298.05 161.13 300.24 161.99 303.58 162.73 307.08 162.91 
M 166.42 156.24 175.47 156.56 187.75 156.09 194.32 156.2 197.86 156.67 201.1 156.89 206.21 156.58 208.95 156.79 212.03 156.69 215.53 156.81 221.19 157.14 224.48 158.25 228.32 158.9 231.96 158.83 235.2 159.49 238.06 159.72 241.14 159.57 244.23 160.18 250.37 160.24 253.21 160.8 255.73 161.95 258.17 162.52 
M 165.86 158.03 168.88 158.14 175.44 158.73 178.46 158.72 194.19 159.38 200.74 160.32 206.08 160.04 208.88 160.57 212.02 160.79 215.27 161.39 218.3 161.31 221.06 162.08 227.98 163.57 230.9 163.94 234.07 164.92 237.33 165.46 239.77 165.67 242.55 166.46 248.64 167.15 251.44 167.84 255 168.36 258.28 169.14 261.08 170.31 264.5 171.04 267.81 171.23 270.39 171.56 273.27 172.43 
M 165.87 159.78 168.85 160.01 178.25 161.24 181.49 161.54 184.89 161.62 197.48 163.17 201.04 163.38 204.03 164.04 209.77 164.63 212.84 165.43 
M 168.88 162.05 178.22 163.64 181.64 163.94 191.29 165.61 194.39 165.91 200.94 167.13 212.8 170.48 
M 163.95 163.23 168.97 163.97 172.3 164.87 178.45 166.16 185.21 167.26 191.38 168.51 197.4 170.82 200.64 171.46 203.32 172.27 
M 163.36 164.84 168.99 166.12 175.38 168.11 178.76 168.77 182.04 169.72 185.12 170.18 188.13 170.85 191.55 171.95 194.37 173.38 197.09 175 200.15 175.89 
M 163.08 166.54 166.08 167.41 175.75 170.68 179.28 171.68 182.42 172.81 
M 166.2 169.51 172.27 172.08 
M 226.78 224.24 235.02 237.14 247.89 274.39 246.34 277 244.15 278.98 241.1 279.99 237.65 279.57 235.36 280 225.84 275.9 222.93 273.73 221.03 272.57 216.99 264.7 215.09 261.37 214.81 259.68 213.98 257.43 210.62 251.83 199.01 224.28 197.71 220.59 194.7 214.11 
M 221.93 222.75 224.2 226.49 225.7 229.91 228.78 235.71 230.1 239.18 231.04 242.69 236.46 251.75 237.37 254.85 238 257.74 240.1 260.23 241.51 262.46 
M 217.09 221.25 218.9 224.83 220.19 227.97 222.01 231.25 224.13 233.91 225.33 237.12 225.85 240.71 226.79 244.65 228.04 248.25 230.22 251.48 231.6 254.42 232.11 257.34 233.58 260.16 235.54 262.14 239.09 269.83 240.36 272.17 241.37 274.27 242.01 277.46 
M 212.28 219.64 214.11 223.45 216.17 229.8 218.52 232.78 220.58 235.7 220.3 241.73 220.67 245.35 222.4 248.56 224.28 251.48 225.48 254.66 
M 207.48 218 209.41 222.08 211.62 228.97 212.4 232.32 213.4 235.71 214.55 238.31 215.35 240.74 216.74 243.54 217.54 247.41 221.2 256.52 
M 202.65 216.47 204.17 220.75 205.78 224.49 207.94 230.66 208.93 237.35 212.59 243.29 214.49 245.87 215.13 248.81 215.56 251.94 217.08 254.4 
M 197.79 215.02 201.09 222.78 201.89 226.13 202.33 229.66 203.95 232.91 205.61 239.48 206.67 242.9 
M 387.16 194.61 392.4 199.96 399.2 207.45 395.38 209.93 392.2 210.65 389.31 211.67 386.64 212.95 384.4 214.97 376.21 219.63 375.16 222.61 372.76 224.4 369.61 225.4 368.44 228.43 367.64 231.75 366.01 234.37 364.71 237.35 362.95 239.83 361.5 242.54 359.57 244.91 357.11 246.75 355.7 253.04 352.29 257.77 352.67 261.23 353.55 264.13 351.15 268.12 350 264.74 347.74 262.12 344.04 260.52 340.75 258.69 338.76 256.86 337.19 253.83 336.54 252.04 333.74 249.08 329.59 243.73 326.36 241.44 324.22 238.95 322.13 236 319.84 233.69 317.4 230.84 315.17 227.75 312.31 224.29 
M 382.66 196.95 387.82 200.38 390.56 203.77 
M 378.16 199.28 383.31 202.14 
M 373.63 201.56 378.12 205 381.62 207.43 383.83 210.45 
M 369.09 203.81 374.32 207.68 377.38 210.8 379.59 212.77 
M 364.51 205.98 374.06 216.53 
M 359.84 207.97 363.93 212.44 366.72 215.87 370.04 218.77 371.99 221.54 
M 355.18 209.96 358.63 214.17 361.97 216.58 363.72 219.65 366.72 222.33 
M 350.47 211.84 353.96 216.29 356.54 219.27 359.22 221.78 363.83 225.35 
M 345.76 213.71 349.38 218.2 356.11 223.83 358.41 226.27 
M 341.04 215.57 345.11 219.62 351.21 224.9 356.13 230.34 
M 336.32 217.43 343.01 223.82 345.73 226.65 351.97 231.83 352.24 235.34 
M 331.53 219.1 336.91 225.88 340.14 228.13 343.2 231.34 345.95 233.8 
M 326.66 220.51 329.64 224.09 331.81 226.98 336.67 232.37 343.09 237.75 345.13 240.65 347.59 243.42 351.61 247.5 353.09 247.89 
M 321.78 221.89 325.31 225.39 327.41 227.8 329.32 230.86 331.65 232.67 333.79 235.15 336.12 238.55 344.45 246.68 348.19 251.8 349.67 253.18 351.1 255.66 
M 316.87 223.14 322.48 229.58 324.14 232.41 325.73 234.38 330.64 239.51 333 242.33 336.5 245.37 339.01 247.31 343.55 255.61 345.32 257.47 348.86 259.35 351.6 262.12 
M 419.24 129.93 422.45 129.48 428.37 126.23 431.7 124.84 435.23 123.61 437.18 122.69 439.21 120.88 441.96 119.36 444.42 117.19 447.25 115.24 449.69 113.27 452.62 112.55 458.22 109.75 460.39 108.18 464.54 106.48 467.63 104.29 473.53 101.31 476.22 99.31 477.09 98.04 465.46 112.17 463.17 114.16 461.38 116.66 461.07 120.42 459.05 125.83 457.56 131.76 456.59 134.4 457 141 457.48 144.27 456.42 146.08 456.46 153.29 456.13 155.91 456.04 158.39 454.18 160.69 452.66 163.13 452.38 166.03 452.9 169.04 453.89 171.71 456.75 175.01 457.88 177.81 458.45 180.74 458 183.71 458.85 187.21 461.51 194.05 461.91 196.6 463.19 199.09 463.07 200.11 463.66 201.49 476.02 217.12 473.62 216.07 471.95 215.03 470.74 212.71 468.49 211.14 465.12 210.65 463.1 207.68 461.02 205.64 458.86 204.07 456.77 201.86 453.42 199.95 450.37 198.48 447.92 196.26 445.09 194.28 441.69 192.3 439.71 190.57 437.39 187.57 434.76 185.9 428.58 182.91 425.37 181.11 422.41 179.21 419.24 175.84 
M 422.65 131.99 429.17 129.53 432.79 128.3 436.21 127.35 438.54 126.45 444.08 124.08 446.33 122.23 449.33 120.65 
M 426.15 133.94 432.36 131.47 436.34 130.57 439.41 129.4 441.73 128.85 444.9 127.79 447.41 125.44 452.26 121.93 454.2 120.85 
M 422.94 136.94 426.37 136.44 429.51 135.77 432.2 134.31 435.38 133.42 438.91 131.8 442.18 131.6 444.08 131.22 447.81 129.6 450.68 127.06 
M 429.93 138.06 433.04 137.52 438.86 135.02 444.09 134.41 447.53 132.81 
M 419.24 141.41 426.6 141.22 433.78 140.32 437 139.63 440.06 139.89 442.29 138.91 445.12 138.14 448.33 136.65 
M 423.17 143.71 430.03 143.13 434.14 143.06 437.31 142.53 440.75 142.94 443.86 143.6 446.99 143.48 
M 423.28 146.6 426.73 146.39 434.13 146.27 438.24 145.44 440.77 146.68 443.81 147.31 447.26 147.54 451.95 146.9 
M 422.85 149.54 427.16 149.43 434.56 149.97 438.18 149.03 440.74 149.3 
M 431.44 152.92 439.06 152.96 
M 419.24 152.89 422.81 154.79 427.12 155.02 435.65 156.12 438.79 156.17 442.43 155.67 446.6 155.42 
M 423.28 157.3 426.9 157.65 435.1 158.08 438.46 159.26 
M 423.71 159.55 434.88 160.76 438.06 162.06 440.81 163.61 443.89 163.99 447.14 164.64 449.95 164.29 
M 431.08 163.6 434.16 164.13 437.41 165.08 440.62 166.23 443.04 167.45 
M 430.63 166.46 434.49 167.01 437.32 168.22 439.47 170.31 442.58 171.32 445.71 171.74 449.49 172.67 
M 430.58 169.09 436.62 171.71 439.12 173.27 
M 429.84 171.92 435.3 174.06 439.51 176.08 442.47 177.68 445.74 179.85 
M 419.24 168.95 423.65 171.8 426.77 173.4 429.51 174.6 435.61 176.85 438.29 178.75 441.41 180.3 
M 423.61 174.26 426.52 175.86 429.6 177.24 432.61 178.26 436.04 179.65 438.68 181.58 443.38 185.58 
M 422.95 176.86 425.98 178.4 429.42 179.56 436.1 183.04 438.16 184.55 442.3 188.75 448.39 192.55 
M 406.27 179.88 402.69 181.86 399.98 184.87 397.02 188.57 397.85 188.53 
M 67 110.63 72.22 110.06 80.54 110.12 85.56 109.98 98.2 109.07 113.16 108.47 150.09 105.22 160.09 103.81 162.59 103.32 165.54 108.43 166.4 113.38 167.52 118.37 168.9 123.38 169.78 128.34 169.95 133.21 169.6 142.87 168.3 147.57 167.4 152.31 166.22 157.03 162.8 166.33 162.08 171.09 159.84 180.53 158.18 185.19 155.76 189.75 151.96 194.05 139.89 193.08 131.06 191.22 123.2 188.52 115.8 185.46 109.29 181.5 103.44 177.33 97.79 172.6 92.59 166.95 88.46 160.9 85.05 154.9 81.37 149.38 
M 79.61 146.58 75.37 139.2 72.19 132.85 
M 144.24 123.51 143.78 127.64 140.32 135.03 138.34 138.32 134.11 144.34 133.42 147.33 133 150.33 133.55 157.14 133.59 161.06 132.5 165.18 124.62 165.46 118.84 165.15 113.32 164.18 107.64 162.71 102.29 160.14 97.34 157.01 92.52 152.99 
M 79.34 146.01 76.51 140.08 71.32 131.39 66.52 122.53 63.34 115.61 62.47 113.13 63.36 110.73 65.79 109.93 67.99 111.21 68.92 113.59 70.33 118.48 73.72 127.84 77.77 136.99 81.96 149.11 
M 79.89 148.54 75.42 144.39 71.4 141.04 67.35 137.95 53.98 126.18 44.19 118.29 42.9 116.12 43.54 113.75 45.8 112.68 48.24 113.58 50.13 115.32 57.25 122.69 64.04 130.33 67.61 134.06 76.65 142.92 81.85 148.93 
M 97.9 129 96.51 123.69 96.9 118.22 99.06 113.18 102.73 109.11 103.12 108.9 
M 121.11 107.81 123.19 108.91 126.94 112.9 129.2 117.9 129.7 123.36 128.41 128.69 125.46 133.31 121.16 136.72 116 138.56 110.51 138.61 105.31 136.88 100.95 133.56 97.9 129 
M 97.7 128.53 97.03 126.58 96.61 124.55 96.44 122.5 96.52 120.43 96.86 118.4 97.45 116.42 98.28 114.53 99.34 112.76 100.61 111.13 103.05 108.9 
M 99.58 127.75 98.99 126.04 98.61 124.26 98.46 122.46 98.54 120.64 98.8 119.08 
M 99.14 117.83 100.08 115.46 101.68 113.05 
M 102.31 112.29 103.41 111.19 104.84 110.07 107.34 108.73 
M 117.22 108.13 118.69 108.64 
M 101.45 126.98 100.62 123.97 100.49 122.41 100.78 119.55 
M 103.67 113.79 105.98 111.75 107.32 110.95 110.25 109.88 113.35 109.55 114.91 109.68 117.91 110.51 
M 103.32 126.2 102.63 123.68 102.52 122.37 102.76 119.92 
M 105.27 115.05 107.13 113.42 108.25 112.75 110.71 111.85 112 111.64 114.62 111.69 117.14 112.39 
M 107.02 124.89 106.46 122.77 106.61 120.65 
M 108.22 117.74 108.95 116.94 110.86 115.87 113.02 115.49 115.19 115.83 117.13 116.85 118.63 118.45 119.53 120.45 119.74 122.64 119.22 124.77 118.04 126.62 116.32 127.98 114.25 128.71 112.06 128.74 109.98 128.04 108.23 126.71 107.02 124.89 
M 109.76 116.48 108.84 118.33 
M 107.57 120.86 106.51 122.98 
M 111.66 115.73 109.86 119.33 
M 108.8 121.45 107.05 124.95 
M 113.28 115.53 110.88 120.34 
M 110.03 122.04 107.92 126.25 
M 114.69 115.75 111.93 121.28 
M 111.39 122.35 108.94 127.25 
M 115.97 116.24 112.98 122.21 
M 112.79 122.6 110.05 128.07 
M 117.16 116.89 111.36 128.5 
M 118.16 117.95 112.77 128.73 
M 119.01 119.29 114.31 128.7 
M 119.6 121.15 116.15 128.04 
M 92.02 166.11 97.27 171.37 
M 81.38 149.39 87.14 155.15 
M 73.39 135.31 74.09 136.02 
M 68.28 111.95 71.07 114.74 
M 72.47 110.06 77 114.59 
M 78.57 110.07 84.21 115.71 
M 84.59 110.01 87.89 113.31 
M 90.32 109.65 93.83 113.16 
M 95.99 109.24 99.47 112.72 
M 101.78 108.94 102.36 109.52 
M 124.69 107.51 129.46 112.28 
M 130.25 106.99 135.36 112.1 
M 135.73 106.39 139.36 110.02 
M 141.4 105.98 146.33 110.9 
M 147.01 105.5 150.49 108.97 
M 152.49 104.89 156.85 109.25 
M 157.83 104.14 161.8 108.12 
M 125.33 167.5 124.97 166.82 124.13 166.57 123.18 166.58 121.71 166.96 
M 143.59 192.24 144.17 192.64 144.86 193.48 
M 140.9 121.14 140.17 120.94 137.02 119.4 133.05 117.84 131.47 116.81 130.32 115.57 
M 140.45 138.76 139.77 138.81 138.75 138.28 
M 160.5 124.98 159.89 124.77 158.82 124.78 155.97 125.31 154.83 126.44 
M 97.71 109.43 98.56 109.32 98.89 109.05 
M 87.82 155.34 87.86 153 87.56 150.66 86.6 148.68 85.85 147.86 85.06 147.28 84.38 147.07 83.73 147.02 82.74 147.22 82.4 147.42 82.02 147.97 
M 85.41 132.64 84.27 132.23 83.1 131.49 81.41 129.44 80.56 128.82 79.14 128.87 77.46 129.6 
M 143.58 122.12 142.21 122.84 140.65 122.77 138.24 122 135.19 120.15 133.67 119.67 
M 143.99 116.73 143.72 117.5 143.22 118.25 142.87 118.5 142.03 118.71 140.97 118.63 138.62 118.08 135.25 117.97 
M 146.32 148.74 147.11 148.79 150.57 149.64 151.08 149.85 151.86 150.56 
M 109.89 150.88 103.74 148.87 103.09 148.52 102.59 147.54 102.44 146.31 102.21 145.79 101.4 145.01 100.41 144.63 
M 83.1 119.61 85.11 119.05 85.71 118.68 86.27 117.86 86.35 117.47 86.2 116.82 85.03 114.8 
M 163.38 112.23 162.35 113.06 161.2 113.2 155.98 112.13 
M 78.55 130.81 77.12 131.48 75.76 132.54 
M 72.77 133.83 72.65 133.87 
M 145.39 187.47 146.15 188.87 148.39 191 150.21 193.89 
M 99.72 145.04 99.24 145.24 98.94 146.08 98.96 146.69 99.31 147.8 
M 120.79 187.39 120.83 187.54 
M 144.39 157.99 145.43 157.41 149.51 155.9 150.76 155.76 152.9 156.21 
M 132.39 185.13 134.18 185.02 134.38 185.24 134.69 186.32 
M 149.04 151.82 150.24 151.44 151.75 151.39 152.05 151.12 152.05 150.74 
M 91.3 165.06 91.34 165.08 
M 138.09 131.29 135.27 133.55 133.95 134.16 128.25 134.72 127.21 134.53 125.12 133.58 
M 106.55 170.41 106.62 168.25 106.25 167.46 105.45 166.61 104.86 165.53 104.25 165.35 
M 146.57 168.04 147.48 167.74 149.3 166.71 150.54 166.26 150.93 165.94 151 165.52 
M 118.85 177.6 113.46 178.5 
M 162.68 167.1 160.83 166.9 159.34 166.39 
M 132.68 116.37 129.55 113.09 126.43 108.75 125.03 107.48 
M 105.67 138.41 104.7 138.51 102.49 139.28 100.55 141 
M 104.67 136.39 103.1 137.51 101.85 139.16 
M 144 160.56 144.55 160.31 146.08 158.9 148.28 157.65 149.3 157.4 150.28 157.51 
M 165.31 159.52 163.8 159.75 160.17 162.27 156.97 163.18 
M 130.68 174.87 129.74 170.62 128.45 168.66 128.25 168.16 128.2 167.37 127.93 167.05 
M 97.51 162.35 96.16 164.28 95.25 167.02 95.08 168.58 94.74 169.28 
M 97.37 131.52 99.66 132.85 100.28 133.3 100.61 133.88 101.18 137.65 101.18 139.35 
M 85.34 155.4 85.79 154.32 85.88 153.36 85.77 150.93 85.46 149.72 84.94 148.69 84.38 148.11 83.34 147.79 82.37 148.05 
M 132.85 129.06 129.7 128.81 128.26 128.93 
M 91.92 128.11 90.74 130.07 90.48 130.25 
M 99.79 163.2 98.48 164.64 98.12 165.3 97.44 167.34 96.24 169.14 95.42 170.02 
M 123.65 169.57 123.84 168.25 123.37 167.1 122.73 166.8 121.7 166.97 
M 165.93 128.59 164.38 127.44 163.61 126.58 161.97 123.71 161.37 123.15 159.39 122.5 158.3 122.91 156.9 123.9 
M 96.44 163.76 95.32 166.62 95.12 168.27 94.73 169.27 
M 100.6 146.02 100.3 145.39 99.63 145.2 99.24 145.45 99 146.22 
M 131.21 113.4 129.39 111.6 127.77 109.21 125.95 107.41 
M 121.71 151.16 122.02 151.16 123.23 151.81 124.27 152.82 
M 155.72 143.03 153.59 143.86 151.38 145.62 150.99 146.1 150.63 147.04 150.58 147.93 150.75 148.78 
M 145.46 163.34 146.07 162.97 146.64 162.32 147.95 159.51 148.71 158.77 149.92 158.54 151.83 158.92 
M 77.35 112.23 77.86 110.05 
M 142.1 161.24 142.1 162.91 142.26 163.44 143.18 163.91 144.13 164.03 
M 79.71 135.7 76.98 135.33 
M 73.52 135.08 73.28 135.1 
M 137.39 191.75 136.43 191.89 135.59 191.65 135.04 191.09 134.87 190.3 
M 162.93 123 162.26 122.37 160.85 121.64 159.47 121.3 158.9 121.38 158.38 121.61 157.26 122.85 155.94 123.6 155.5 124.14 
M 102.93 109 102.9 108.9 
M 139.86 148.23 140.79 147.77 141.47 146.5 142.53 145.29 143.48 144.94 
M 155.17 143.09 154.09 143.46 153.08 144.06 151.93 144.98 151.03 145.96 150.57 147.36 150.85 149.06 
M 163.37 125.56 162.24 123.66 161.66 123.02 159.53 122.27 158.38 122.57 155.8 124.43 
M 150.5 193.26 151.01 193.98 
M 74.55 118.63 73.16 119.37 70.85 119.84 
M 157.82 151.88 155.39 151.86 153.8 152.29 153.27 152.02 152.34 150.79 
M 156.73 145.71 155.13 145.91 152.92 147.24 151.59 148.86 151.45 149.26 151.77 150.23 
M 122.04 140.61 123.06 143.22 123.01 145.15 122.64 146.77 121.23 148.22 
M 144.94 182.99 143.98 181.84 142.38 180.54 141.99 179.55 142.15 178.83 142.69 177.77 144.09 175.82 
M 153.53 158.37 153.75 159.02 153.49 159.62 152.07 160.72 151.31 160.92 
M 142.67 145.72 143.1 145.26 143.82 145.23 144.37 145.72 145.21 147.17 
M 126.89 175.2 127.75 171.63 127.79 170.69 127.05 169.19 126.67 167.39 126.36 167.02 
M 126.21 164.44 122.36 166.67 121.17 167.19 
M 132.18 118.87 129.2 117.94 
M 118.87 148.19 119.49 147.16 120.06 146.81 120.68 147.01 121.06 147.65 
M 108.18 170.01 108.38 168.46 108.15 167.45 105.3 164.54 104.92 164.42 104.58 164.52 
M 139 107.61 138.47 107.6 136.89 108.05 134.34 108.15 
M 154.96 141.66 154 142.1 153.48 142.54 151.16 145.21 150.68 146.18 150.52 147.55 150.64 148.4 
M 104.84 151.54 103.51 150.75 102.7 149.93 102.1 148.01 102.21 146.16 101.64 145.29 100.7 144.74 
M 106.84 179.75 107.38 179.46 
M 75.01 117.59 72.77 118.74 70.68 119.39 
M 113.37 173.22 113.97 174.55 114.15 175.77 113.73 176.89 113.35 177.21 113.11 177.13 
M 116.84 148.15 117.16 146.17 117.61 145.43 118.37 145.17 119.39 145.5 
M 96.5 111.49 99.72 110.91 100.62 110.49 101.14 110.06 
M 164.25 159.85 163.42 160.25 160.45 162.43 158 163.08 155.59 164.04 153.38 164.68 
M 167.51 128.66 164 125.99 163.25 125.11 162.1 123.28 161.45 122.77 160 122.23 159.29 122.16 158.21 122.57 157.33 123.35 
M 147.27 154.78 149.64 153.64 151.12 153.62 151.86 153.41 152.5 152.8 152.65 151.88 
M 119.55 180.75 120.56 180.43 120.91 180 120.82 179.71 
M 84.68 154.34 84.95 153.66 85.02 152.84 
M 147.72 161.67 148.25 160.24 149.03 159.24 149.47 158.99 150.46 158.88 151.85 159.16 152.11 159.56 151.9 160.34 
M 93.52 109.42 94.66 110.36 95.57 110.68 97.63 110.58 98.79 110.25 
M 79.89 125.98 78.81 125.84 77.56 126.07 73.77 127.96 
M 147.46 179.9 147.15 178.97 147.14 178.3 147.45 177.81 149.74 176.39 151.42 176.26 
M 161.26 113.91 160.43 113.53 153.56 111.47 
M 104.73 149.46 103.61 149.11 103 148.71 102.51 147.72 102.26 145.93 101.94 145.48 101.03 144.81 100.12 144.63 99.5 144.71 
M 156.89 177 155.7 176.48 154.58 176.26 151.61 176.84 151.21 176.65 151.32 176.38 
M 104.59 136.33 103.31 137.25 102.57 138.2 
M 161.45 173.56 160.55 173.21 159.55 173.08 158.42 173.13 154.97 173.75 
M 123.89 134.63 123.84 134.6 
M 163.43 112.84 162.65 113.25 161.43 113.34 155.73 112.1 
M 153.55 163.29 152.2 163.98 150.89 164.42 
M 82.36 150.33 80.26 152.3 79.36 153.39 77.82 155.82 74.92 161.24 72.94 163.7 71.81 164.77 69.28 166.56 65.16 168.55 67.84 167.13 69.07 166.25 71.28 164.23 72.22 163.08 73.76 160.58 75.92 154.93 77.29 152.03 78.17 150.65 80.21 148.18 
M 51.09 123.85 54.59 128.99 59.42 135.31 64.43 141.38 69.59 147.04 76.5 153.58 
M 78.24 155.1 86.58 162.18 92.59 166.95 
M 84.18 159.8 85.17 158.8 
M 58.12 129.84 58.6 130.55 60.13 132.11 61.2 133.64 
M 165.74 109.57 168.14 111.98 
M 165.86 101.59 176.8 112.52 
M 171.24 98.86 177.8 105.41 
M 176.74 96.24 188.66 108.16 
M 182.3 93.69 188.53 99.92 
M 187.98 91.25 196.6 99.87 
M 193.7 88.86 203.86 99.02 
M 199.58 86.63 208.51 95.56 
M 205.48 84.42 216.21 95.15 
M 211.31 82.13 221.96 92.78 
M 217.21 79.92 226 88.71 
M 223.4 78 233.36 87.96 
M 229.79 76.27 241.23 87.71 
M 236.4 74.77 244.55 82.92 
M 243.27 73.53 251.36 81.62 
M 250.46 72.61 258.18 80.33 
M 258.29 72.32 265.28 79.31 
M 266.28 72.2 278.09 84.01 
M 274.2 72 283.85 81.65 
M 282.43 72.13 290.9 80.59 
M 292.17 73.75 302.9 84.48 
M 303.89 77.36 310.1 83.57 
M 316.97 82.33 325.34 90.7 
M 330.58 87.82 340.4 97.64 
M 343.83 92.96 352.08 101.21 
M 358.88 99.89 366.09 107.1 
M 375.77 108.68 382.52 115.43 
M 391.91 116.7 400.4 125.19 
M 407.73 124.41 414.62 131.3 
M 423.33 131.89 428 136.57 
M 153.14 192.72 154.57 195.59 
M 155.4 190.15 159.44 198.22 
M 157.3 186.84 164.29 200.82 
M 158.95 183.04 169.09 203.33 
M 160.27 178.58 173.87 205.79 
M 161.4 173.75 178.45 207.85 
M 163.94 171.73 183.03 209.91 
M 168.47 173.69 187.39 211.54 
M 172.55 174.75 190.43 210.52 
M 176.62 175.8 191.47 205.5 
M 167.68 150.82 168.41 152.28 
M 180.7 176.86 191.6 198.66 
M 168.76 145.88 171.87 152.09 
M 184.78 177.91 192.64 193.64 
M 169.71 140.68 175.41 152.07 
M 188.71 178.67 193.68 188.61 
M 169.94 134.03 178.88 151.92 
M 192.74 179.64 194.7 183.56 
M 169.31 125.68 182.25 151.55 
M 166.23 112.42 185.5 150.96 
M 164.67 102.2 188.77 150.4 
M 167.5 100.76 192.26 150.29 
M 170.33 99.32 195.27 149.21 
M 173.16 97.88 196.29 144.14 
M 236.2 223.96 237.79 227.14 
M 176.04 96.55 196.45 137.37 
M 234.55 213.56 241.65 227.77 
M 178.93 95.23 196.62 130.6 
M 234.71 206.8 245.51 228.39 
M 181.82 93.91 196.78 123.84 
M 234.88 200.03 249.26 228.79 
M 184.72 92.61 196.96 117.1 
M 234.15 191.48 252.77 228.7 
M 187.66 91.38 196.27 108.62 
M 234.37 184.81 256.27 228.61 
M 190.59 90.16 195.58 100.14 
M 236.6 182.18 259.78 228.54 
M 193.53 88.94 195.8 93.47 
M 240.18 182.23 263.33 228.54 
M 243.63 182.04 266.88 228.53 
M 247.37 182.43 270.44 228.56 
M 250.83 182.24 274.05 228.68 
M 254.01 181.5 277.66 228.81 
M 239.73 145.85 240.86 148.11 
M 257.07 180.51 281.22 228.82 
M 240.89 141.06 244.17 147.63 
M 260.26 179.81 278.98 217.25 
M 241.13 134.45 247.67 147.52 
M 263.65 179.49 277.41 207.01 
M 241.42 127.93 251.29 147.68 
M 266.83 178.74 277.7 200.5 
M 242.68 123.35 255.03 148.06 
M 270.07 178.12 278.06 194.1 
M 243.25 117.4 258.55 147.98 
M 273.6 178.08 279.54 189.96 
M 243.69 111.16 262.03 147.85 
M 276.84 177.47 280.87 185.54 
M 243.29 103.27 265.78 148.25 
M 279.86 176.4 282.29 181.28 
M 243.18 95.96 269.52 148.63 
M 282.83 175.26 283.09 175.78 
M 242.99 88.48 273.09 148.68 
M 241.18 77.76 277.09 149.58 
M 235.73 59.76 281.15 150.6 
M 236.17 53.53 284.91 151.03 
M 238.29 50.68 287.73 149.55 
M 239.72 46.44 287.34 141.68 
M 241.69 43.28 287.49 134.89 
M 327.4 214.71 329.84 219.59 
M 244.04 40.87 287.12 127.04 
M 326.12 205.05 332.94 218.69 
M 247.45 40.61 286.91 119.52 
M 325.91 197.53 335.94 217.58 
M 251.27 41.15 286.19 110.99 
M 327.01 192.63 338.9 216.41 
M 255 41.52 287.2 105.92 
M 327.11 185.74 341.87 215.25 
M 258.33 41.07 286.9 98.21 
M 328.62 181.66 344.83 214.08 
M 261.38 40.06 285.41 88.13 
M 328.95 175.21 347.8 212.9 
M 264.29 38.79 282.89 75.98 
M 329.14 168.5 350.76 211.72 
M 267.19 37.48 282.15 67.42 
M 329.32 161.75 353.72 210.55 
M 270.67 37.36 282.01 60.03 
M 329.18 154.37 329.57 155.15 
M 331.02 158.05 356.66 209.33 
M 273.97 36.85 283.49 55.9 
M 329.75 148.42 333.42 155.76 
M 333.82 156.56 359.58 208.08 
M 275.83 33.48 283.54 48.9 
M 329.8 141.42 362.51 206.83 
M 279.3 33.33 283.39 41.49 
M 330.55 135.82 365.43 205.58 
M 283.56 34.74 284.01 35.65 
M 331.18 129.98 368.29 204.2 
M 331.47 123.46 371.14 202.79 
M 332.01 117.44 373.98 201.39 
M 332.84 112 372.75 191.82 
M 332.37 103.97 372.28 183.79 
M 332.72 97.58 371.73 175.58 
M 333.17 91.37 371.27 167.56 
M 332.96 83.84 371.05 160.03 
M 333.97 78.78 371.16 153.15 
M 332.11 67.96 371.12 145.97 
M 330.96 58.54 371.77 140.18 
M 330.32 50.17 372.04 133.62 
M 331.99 46.41 372.35 127.14 
M 336.58 48.5 362.09 99.51 
M 363.46 102.26 372.99 121.31 
M 342.14 52.53 345.37 58.99 
M 352.83 73.89 363.46 95.16 
M 368.26 104.75 374.15 116.55 
M 357.35 75.83 365.29 91.71 
M 373.06 107.26 374.42 109.98 
M 418.76 170.26 421.02 174.79 
M 412.55 150.74 423.77 173.18 
M 410.89 140.34 426.51 171.57 
M 411.06 133.57 429.26 169.96 
M 411.21 126.78 429.93 164.21 
M 415.43 128.11 429.93 157.11 
M 420.1 130.34 429.93 150.01 
M 424.76 132.58 429.93 142.91 
M 429.43 134.82 429.93 135.82 
"/></svg>