<svg xmlns="http://www.w3.org/2000/svg" width="520" height="320"><rect x="0" y="0" width="520" height="320" fill="floralwhite"/><rect x="10" y="10" width="500" height="300" stroke="black" stroke-width="1" fill="none"/><path stroke="black" stroke-width="1" fill="none" stroke-linecap="round" stroke-linejoin="round" d="
M 159.68 138.28 164.74 137.13 174.1 135.97 183.49 135.13 202.19 132.66 211.59 131.9 221.02 131.56 230.45 131.44 249.31 131.57 258.74 131.41 268.17 131.69 277.57 132.4 296.34 134.3 305.64 135.83 333.45 141.05 342.59 143.37 351.41 146.71 352.9 148.04 
M 352.9 216.8 352.13 217.43 343.12 220.23 333.89 222.17 315.26 225.08 296.71 228.52 287.32 229.4 277.9 229.81 268.47 230.05 249.61 230.05 240.18 230.4 230.78 231.09 221.36 231.51 211.93 231.32 202.55 230.34 193.26 228.69 174.9 224.38 165.64 222.56 156.27 221.49 151.62 221.19 
M 179.5 171.74 183.19 171.28 187.3 171.09 
M 206.56 172.73 212.13 173.78 215.42 174.02 221.46 173.87 225.52 173.24 
M 233.38 171.66 234.64 171.34 237.86 169.83 
M 243.12 168.8 246.12 168.66 
M 249.05 168.46 251.76 168.05 
M 254.36 167.54 255.66 167.3 258.57 167.18 260.17 167.28 
M 263.42 167.51 268.09 167.72 269.47 167.62 
M 272.19 167.4 277.92 167.26 
M 280.89 167.3 285.37 167.39 288.81 167.87 296.59 169.58 300 169.88 306.32 169.89 317.17 171.06 325.27 170.97 
M 328.53 170.96 336.28 170.56 345.53 170.45 352.9 170.91 
M 152.76 219.44 153.88 221.33 
M 156.71 211.49 162 220.68 
M 164.7 210.56 166.11 213.41 
M 167.47 216.2 171.12 223.64 
M 167.92 144.59 166.26 149.14 164.89 151.92 163.74 153.7 
M 172.45 207.93 176.26 216.42 
M 176.9 143.44 176.08 144.68 174.56 149.36 
M 173.59 152.53 171.89 157.07 171.07 158.34 
M 167.33 162.97 166.39 164.13 165.05 166.44 
M 186.56 219.94 190.12 227.99 
M 193.43 141.6 192.47 142.71 191.37 143.67 
M 186.69 147.21 185.51 148.09 183.47 150.18 181.94 152.78 181.5 154.41 
M 180.7 157.77 179.84 161.07 
M 178.66 164.06 176.57 168.24 175.59 169.86 
M 191.95 212.23 194.76 219.18 198.04 226.49 
M 199.57 229.54 199.73 229.84 
M 200.11 146.67 199.35 147.97 198.41 149.09 
M 189.73 156.99 188.77 158.11 188.16 159.57 
M 183.39 170.54 183.03 171.31 
M 200.96 211.47 201.85 213.56 
M 203.14 216.51 207.53 226.62 209.83 231.1 
M 206.22 151.51 205.52 152.89 203.81 155.34 202.72 156.34 
M 200.42 158.21 198.05 160.02 
M 195.99 162.14 195.08 163.31 194.42 164.75 
M 193.26 167.78 192.06 171.37 
M 194.54 176.47 196.06 179.74 
M 210.87 212.1 214.45 220.24 
M 215.96 223.38 217.34 226.36 
M 216.75 148.36 214.38 152.28 212.98 155.07 211.06 159.45 
M 207.48 164.28 204.58 167.7 203.72 168.94 
M 204.45 177.16 206.44 180.86 
M 221.36 214.3 222.7 217.28 
M 224.08 220.28 228.93 231.17 
M 231.52 141.03 229.57 143.3 
M 226.11 148.27 222.83 153.43 
M 221.43 156.26 218.46 163.87 216.31 168.09 
M 229.34 211.18 231.85 216.78 
M 233.36 219.92 235.6 224.56 237.98 230.57 
M 241.45 141.27 239.47 143.52 
M 235.92 148.45 234.31 151.08 
M 232.65 153.66 229.2 158.73 
M 226.02 164.08 225.24 165.43 224.09 168.55 222.61 173.77 
M 237.77 210.77 238.36 212.07 
M 239.73 215.08 241.61 219.4 243.07 223.26 
M 244.14 225.9 246.08 230.18 
M 246.13 148.72 242 153.12 
M 239.98 155.38 239.01 156.56 237.31 159.14 233.45 166.02 
M 232.09 168.96 231.15 171.33 
M 246.09 210.42 247.65 213.52 
M 248.96 216.48 251.37 222.93 254.68 230.08 
M 262.63 134.47 261.34 137.43 
M 258.56 143.15 254.87 150.1 253.21 152.72 251.12 154.92 246.43 158.86 244.26 161.01 240.33 165.74 238.13 169.65 
M 255.9 212.29 259.53 220.04 263.87 230.08 
M 268.25 139.6 266.79 142.38 
M 263.69 147.8 261.05 151.58 260.04 152.73 
M 258.05 155.06 250.29 164.71 
M 248.1 167.26 246.91 168.63 
M 262.59 207.34 266.99 216.37 269.36 221.97 273.06 229.93 
M 276.5 134.92 275.49 138.13 
M 271.29 146.66 269.54 149.2 
M 267.74 151.71 261.56 160.76 259.57 163.16 258.43 164.22 
M 256.31 166.31 255.32 167.34 
M 271.28 205.63 274.11 211.48 
M 275.66 214.69 278.03 219.5 281.48 227.65 282.45 229.61 
M 278.38 145.27 275.82 149.15 272.08 156.25 
M 270.6 159.15 268.22 163.35 265.03 167.63 
M 280.36 202.28 281.65 205.3 284.05 211.88 
M 285.06 214.52 286.26 217.32 
M 287.51 220.15 289.42 224.35 291.81 228.98 
M 291.92 138.25 290.22 140.82 
M 288.73 143.6 287.36 146.52 
M 285.86 149.31 285.04 150.64 281.21 155.48 280.39 156.84 
M 278.77 159.6 273.83 167.26 
M 277.21 174.93 280.72 182.89 
M 289.7 201.25 291.56 205.59 296.1 217.7 297.33 220.33 300.77 226.58 
M 299.75 142.58 290.02 156.95 286.62 162.37 283.05 167.34 
M 297.63 196.97 300.19 203.09 
M 301.34 205.68 307.6 218.59 
M 310.64 140.93 308.08 144.99 307.34 146.46 
M 305.85 149.41 305.11 150.89 302.49 154.96 
M 300.66 157.6 298.91 160.33 
M 297.37 163.28 295.9 166.31 
M 294.62 168.45 294.11 169.11 
M 297.67 176.58 300.8 182.76 
M 305.61 192.63 311.36 204.48 
M 312.63 207 313.89 209.47 
M 315.37 212.13 321.18 221.8 
M 322.86 140.35 320.75 142.68 
M 316.41 147.26 315.42 148.49 313.94 151.5 312.72 154.78 311.34 157.91 304.56 169.83 
M 310.65 180.83 312.35 183.89 
M 315.15 189.32 316.41 191.86 
M 317.57 194.27 320.51 200.21 327.13 211.82 
M 328.68 214.44 331.4 219.14 
M 333.17 141 330.78 145.05 
M 328.88 147.6 325.88 151.32 322.31 156.76 320.68 159.67 319.23 162.77 316.63 169.34 315.69 170.96 
M 318.64 175.78 322.03 181.6 
M 326.65 189.68 333.37 202.25 337.51 209.41 340.02 214.59 
M 340.09 148.12 339.27 149.51 337.34 152.04 335.11 154.28 333.1 156.75 325.89 170.95 
M 328.74 175.4 330.34 178.03 
M 335.46 186.16 339.46 192.56 343.6 199.94 
M 344.62 201.88 348.59 209.81 
M 243.88 216.91 243.06 217.76 242.49 218.04 239.55 218.23 235.86 219.1 234.92 218.88 
M 216.53 212.47 215.12 212.74 213.69 213.78 
M 216.15 146.57 215.9 145.19 216.16 144.19 216.2 143.26 215.01 139.42 214.98 137.5 
M 304.08 150.32 305.78 149.45 308.43 148.77 309.99 149.08 310.51 149.37 
M 272.75 155.85 273.49 156.37 
M 319.57 208.93 319.48 208.25 319.16 207.52 317.86 206.43 315.72 205.75 311.94 205.81 
M 282.41 155.39 281.75 154.76 280.8 153.4 280.32 153 279.22 152.56 278.21 152.58 276.05 154.07 
M 208.82 157.32 207.82 156.99 206.35 157.2 205.74 157.65 205.65 158.14 
M 162.82 207.95 162.42 208.32 161.97 208.28 158.99 206.52 
M 266.12 180.38 265.67 179.26 265.71 178.4 266.09 177.95 266.95 177.81 
M 222.88 160.63 221.71 159.91 220.56 158.29 219.96 157.76 218.99 157.72 217.13 158.56 
M 310.51 226 310.73 225.09 311.4 224.39 
M 293.41 198.67 292.65 200.02 291.82 200.62 
M 253.38 146.48 251.65 143.61 251.06 140.35 250.51 139.57 249.48 138.94 
M 303.83 224.29 305.06 223.66 305.33 223.36 305.3 222.98 304.99 222.5 304.34 222.17 
M 319.39 220.57 318.47 220.5 317.37 220.67 316.27 221.22 314.2 222.77 312.93 223.25 
M 352.9 204.16 352.11 202.93 350.11 201.92 348.73 199.71 
M 307.83 209.84 304.48 211.37 304.02 211.92 303.02 214.31 301.49 216.12 
M 199.04 152.67 198.16 154.61 197.31 155.8 196.64 157.16 196.47 157.64 196.66 158.06 
M 210.61 155.95 209.45 156.27 208.37 156.35 206.5 156.93 205.9 157.31 205.6 157.85 
M 345.88 209.83 348.7 207.62 349.06 207.47 349.79 207.5 
M 219.81 230.24 219.73 230.75 220.07 230.88 
M 335.1 194.24 335.5 194.78 335.32 195.33 333.41 196.73 332.52 198.07 
M 205.24 159.49 205.95 160.67 205.83 161.2 
M 174.47 152.1 174.15 149.18 173.19 147.93 172.47 146.61 171.92 145.96 171.11 145.48 
M 305.2 137.92 304.65 135.67 
M 214.64 135.7 214.52 132.66 214.83 132.15 215.56 132.06 
M 247.01 144.26 247.75 142.14 247.87 141.33 247.25 139.49 246.06 138.45 244.72 137.96 243.16 137.63 
M 308.88 191.52 308.62 191.13 
M 308.45 185.47 308.98 184.88 
M 326.56 176.45 326.57 176.67 
M 214.66 130.89 289.29 30 289.9 30.44 217.47 131.65 
M 225.95 130.75 270.06 61.21 270.71 61.6 228.7 131.45 
M 237.24 130.89 259.74 89.54 260.41 89.89 239.96 131.53 
M 248.54 131.04 256.78 113.23 257.48 113.51 251.25 131.52 
M 262.59 131.03 263.9 131.42 
M 282.6 40.64 275.83 49.13 271.91 55.15 268.59 61.54 265.65 68.16 
M 266.46 68.66 263.55 73.89 261.07 79.28 259.25 84.9 257.49 93.68 
M 258.34 94.12 256.84 98.65 255.8 103.23 255.45 107.9 255.96 115.01 
M 256.84 115.37 257.41 119.28 258.4 123.01 260.03 126.48 263.44 131.29 
M 280.27 43.43 275.83 49.13 271.91 55.15 270.18 58.3 267.09 64.83 
M 276.15 49.6 272.02 54.9 270.13 57.66 266.77 63.43 263.9 69.51 
M 272.04 55.77 268.22 60.67 264.85 65.85 263.36 68.56 260.7 74.18 
M 267.92 61.94 264.41 66.44 262.8 68.79 259.95 73.69 257.51 78.85 
M 263.8 68.11 260.6 72.22 259.14 74.35 256.54 78.82 254.31 83.52 
M 259.68 74.28 255.47 79.91 253.12 83.95 251.11 88.19 
M 255.56 80.45 251.81 85.48 249.71 89.08 247.92 92.87 
M 251.44 86.62 249.18 89.53 247.18 92.6 244.72 97.54 
M 247.32 92.79 245.37 95.3 243.65 97.95 241.53 102.21 
M 243.21 98.96 240.81 102.17 239.47 104.47 238.33 106.88 
M 264.98 71.27 262.24 76.56 261.07 79.28 259.25 84.9 258 90.72 
M 261.22 78.29 258.8 82.97 257.77 85.37 256.16 90.33 255.06 95.48 
M 257.47 85.32 255.37 89.38 253.71 93.59 253.07 95.77 252.12 100.24 
M 253.71 92.35 251.17 97.55 249.98 101.21 249.17 104.99 
M 249.95 99.37 248.49 102.19 247.34 105.13 246.23 109.75 
M 246.2 106.4 244.57 109.74 243.81 112.08 243.29 114.5 
M 257.56 96.38 256.24 100.93 255.8 103.23 255.45 107.9 255.71 112.63 
M 252.86 108.68 251.71 113.14 251.49 116.17 251.65 119.25 
M 162.28 186.85 170.17 186.12 181.86 184.46 186.7 184.4 189.07 184.21 193.05 183.39 197.5 182.78 206.68 182.57 211.71 182.15 213.99 182.26 225.13 180.75 231.66 181.19 236.72 180.93 241.39 181.07 243.6 180.84 248.01 181.27 252.79 181.16 258.01 181.92 260.36 181.69 262.03 182.03 264.05 181.79 266.02 182.33 268.06 182.49 270.51 182.08 275.81 182.8 284.5 182.87 286.42 183.01 288.72 183.59 291.21 183.92 296 184.17 300.91 184.88 310.62 185.55 312.64 185.93 318.66 186.12 299.29 195.78 297.61 196.98 293.5 198.63 289.58 200.46 285.06 201.7 279.94 202.33 278.08 203.28 273.85 204.6 269.84 206.14 264.96 206.81 262.69 207.32 258.54 208.57 256.21 208.74 251.9 209.42 247.88 210.39 243.08 210.59 240.51 210.51 238.27 210.76 233.44 210.87 226.53 211.39 224.4 211.73 217.74 212.38 213.6 212.36 209.06 211.92 200.36 211.43 198 211.06 193.01 209.95 190.68 209.55 186.5 209.24 179.75 207.86 160.87 202.53 158.77 201.79 
M 161.74 188.71 165.56 188.39 168.15 188.44 174.95 187.93 179.57 187.81 181.97 187.47 189.04 187.38 190.99 186.96 193.04 186.82 200.06 186.71 202.09 186.51 204.5 186.74 207.1 187.26 209.9 187.18 214.75 187.41 219.15 187.09 221.44 187.16 223.82 186.93 226.11 186.91 228.26 187.23 230.08 187.69 232 187.85 234.19 187.96 236.83 187.73 241.97 187.83 244.16 188.42 246.54 188.48 
M 161.22 190.47 165.73 190.33 170.35 190.6 175.14 190.38 179.9 190.56 187.08 190.46 200.14 190.89 202.28 191.17 211.61 191.83 213.79 192.17 215.95 192.76 218.28 192.98 222.94 193.14 224.8 193.48 229.79 193.6 232.17 194.47 234.47 194.81 237.31 194.86 241.6 195.23 246 196.22 247.8 196.84 252.5 197.38 254.94 198.65 257.38 199.16 259.65 199.23 262.14 199.65 264.85 199.78 266.72 200.53 268.82 201.09 270.73 201.36 
M 160.73 192.11 165.68 192.31 168.02 192.65 170.59 192.64 172.82 192.92 177.83 192.99 180.09 193.2 189.46 194.18 198.42 195.46 202.35 195.56 209.16 196.47 213.56 197.3 215.83 197.9 217.99 198.8 222.89 198.94 225 199.65 227.45 199.99 230.06 200.83 232.24 201.83 240.47 203.04 242.77 203.82 
M 160.23 193.78 165.7 194.29 173.28 195.49 177.71 195.6 180.18 195.98 182.6 196.39 184.54 197.21 191.56 198.13 196.62 199.15 198.64 200.01 200.49 200.47 
M 159.72 195.44 165.63 196.25 175.48 198.46 180.06 199.26 184.53 200.55 186.79 200.99 188.75 201.67 191.34 202.05 193.5 202.66 
M 159.51 197.15 167.98 199.06 170.41 199.86 172.5 201.04 177.39 202.38 
M 159.27 199.04 163.02 200.15 164.96 201.14 167.31 201.78 169.59 203.19 
M 215.76 231.56 218.86 236.88 222.87 239.88 230.6 253.59 229.21 258.19 226.18 261.26 224.11 262.05 221.46 262.27 218.92 262.15 215.79 260.68 209.09 258.69 207.07 259.04 206.08 261.23 204.31 261.37 199.36 255.83 196.76 253.57 194.63 252.05 191.42 250.06 186.03 245.13 179.85 233.93 178.34 229.19 175.65 224.55 
M 211.99 231.32 214.74 234.31 217.5 239.29 219.53 241.29 222.22 242.66 224.39 243.34 226.63 245.35 228.59 246.69 229.47 249.03 
M 208.21 231.09 210.89 233.86 214.16 238.56 217.34 242.78 219.24 244.9 222.69 247.74 224.84 252.68 225.44 255.08 227.57 257.22 
M 204.46 230.6 206.81 233.32 208.57 235.79 211.4 240.41 216.1 246.2 218.37 248.41 219.92 250.37 
M 200.72 230.09 205.63 236.88 208.13 241.75 210.85 245.84 216.44 255.62 
M 196.99 229.42 198.9 231.99 203.59 241.08 207.26 245.02 208.15 247.74 
M 193.28 228.7 195.41 231.58 196.71 234.15 199.2 241 200.75 243.32 203.39 245.07 204.05 247.23 203.43 249.03 203.96 251.9 205.01 254.43 207.54 256.86 
M 189.58 227.9 193.5 236.24 195.49 240.91 196.69 245.71 197.87 247.79 199.39 249.28 201.87 255.79 204.31 260.33 
M 185.9 227.05 191.52 240.13 192.87 245.15 194.82 250.24 
M 182.22 226.18 183.59 229.73 185.89 234.84 186.3 237.23 187.48 239.33 187.65 242.12 189.07 243.79 
M 178.55 225.27 180.56 228.03 181.7 230.8 182.51 234.6 182.85 237.58 
M 321.16 223.45 324.13 229.27 323.51 229.71 318.95 225.04 
M 310 225.49 313.36 231.91 312.74 232.35 307.79 227.07 
M 298.88 227.61 303.09 235.99 302.46 236.4 296.59 229.08 
M 287.65 228.8 292.89 240.64 292.22 240.99 285.25 230.09 
M 276.33 229.29 283.26 245.86 282.58 246.19 273.88 230.48 
M 265.01 229.6 274.08 252.25 273.39 252.56 262.52 230.71 
M 257.13 229.56 268.79 259.67 268.09 259.97 254.62 230.62 
M 323.06 229.24 320.64 228.74 318.3 228.68 316.11 229.31 313.02 231.27 
M 312.25 231.82 309.8 231.64 307.5 231.89 305.43 232.8 302.67 235.15 
M 301.87 235.67 298.22 235.71 296.04 236.39 294.12 237.71 292.36 239.45 
M 291.53 239.9 289.11 239.98 286.9 240.47 284.99 241.59 282.57 244.21 
M 281.71 244.62 279.29 244.99 277.12 245.74 275.32 247.09 273.17 249.99 
M 272.31 250.38 269.69 251.69 268.51 252.98 267.88 254.68 267.62 256.66 
M 300.62 235.61 298.22 235.71 296.04 236.39 295.05 236.97 293.23 238.55 
M 290.31 239.92 287.97 240.16 286.9 240.47 284.99 241.59 283.34 243.26 
M 280.48 244.78 278.17 245.3 277.12 245.74 275.32 247.09 273.85 248.95 
M 276.62 239.61 274.43 240.24 273.26 241.11 272.3 242.33 
M 271.37 250.76 269.69 251.69 269.03 252.28 268.13 253.78 267.73 255.65 
M 268.68 245.95 267.39 246.65 266.88 247.11 266.19 248.26 265.88 249.69 
M 265.98 241.13 264.73 241.94 264.25 242.74 264.04 243.74 
M 352.15 147 354.5 146.34 358.57 144.26 362.34 142.61 366.79 139.31 368.45 137.75 370.72 136.35 372.89 136.14 374.67 135.37 377.87 132.6 384.38 128.75 387.56 126.16 389.08 125.37 391.06 123.91 392.86 122.21 394.81 121.43 396.66 119.94 401.89 117.48 403.19 115.61 407.73 113.54 409.39 112.45 412.87 109.24 416.34 108.4 418.38 107.34 422.07 103.56 425.12 102.72 426.85 100.6 428.07 99.69 430.09 99.14 432.5 97.46 435.71 95.51 439.97 94.86 441.57 94.46 436.46 103 436.15 104.78 436.21 106.93 437.14 109.95 437.89 115.05 438.03 117.79 437.84 120.2 437.27 122.22 437.17 124.71 436.56 126.71 434.24 132.78 433.36 134.69 432.89 138.79 433.88 144.45 433.59 146.83 431.68 150.26 431.03 155.01 429.42 158.98 429.04 161.4 429.22 164.34 428.74 166.24 429.06 171.36 426.9 174.34 427.25 177.25 427.98 180.06 428.07 184.3 427.33 185.7 426.99 190.11 428.07 195.96 427.93 198.25 427.22 199.99 426.32 201.47 426.43 203.61 426.84 206.05 427.93 209.17 428.46 213.36 428.53 216.9 429.51 219.67 429.49 221.64 430.02 224.18 430.31 226.46 431.06 228.61 432.39 231.25 435.03 241.09 436.94 246.18 437.29 248.26 437.36 250.06 438 252.43 438.84 256.82 438.46 258.89 438.69 261.55 438.4 263.7 438.23 266.94 441.02 280 439.68 278.09 437.84 276.7 434.63 274.74 432.86 272.98 430.14 271.47 428.82 269.42 426.38 268.57 423.71 266.95 422.08 265.47 420.83 265.26 418.53 261.04 416.54 259.34 410.29 258.3 408 257.65 405.64 254.4 402.91 253.43 401.11 252.34 400.05 250.83 395.98 247.72 393.66 246.7 392.13 245.35 385.62 241.29 384.09 239.97 382.28 238.75 376.74 234.4 370.16 230.01 366.51 227.33 364.37 226.22 358.75 222.6 356.77 221.18 352.15 217.43 
M 358.71 148.13 362.9 146.18 369.44 142.67 371.44 141.39 375.41 139.78 377.95 139.23 381.66 135.78 384.08 134.98 386.24 133.99 387.42 132.41 390.59 131.62 392.13 130.39 394.65 128.89 398.72 127.28 400.87 126.16 408.48 121.76 410.69 119.9 
M 354.66 153.26 365.16 149.53 367.76 147.77 372.83 145.89 374.24 144.69 375.35 144.03 380.08 142.49 385.06 140.09 388.76 138.8 390.08 138.15 391.65 137.72 393.74 136.56 396.73 135.21 398.96 133.27 402.92 130.85 
M 352.15 157.57 359.22 155.81 363.42 154.14 366.01 153.33 367.81 152.18 374.29 149.44 378.57 148.34 383.76 146.77 385.96 145.57 391.7 143.92 393.72 143.09 397.6 140.53 
M 354.82 160.67 357.17 160 359.68 159.55 362.25 159.31 364.19 158.73 366.23 157.84 368.45 157.12 372.82 155.13 375.42 154.52 377.92 154.22 381.65 152.16 383.9 152.12 388.08 151.06 390.24 150.68 393 149.86 395.18 149.61 
M 359.88 163.51 362.57 163.25 369.32 161.92 375.29 159.15 377.22 158.57 379.66 157.56 386.89 156.98 388.5 155.95 390.74 155.01 392.98 154.43 394.95 154.22 397.08 153 399.59 152.17 401.66 151.78 404.33 150.69 407 150.81 410.28 150.39 412.25 150.31 414.61 148.4 416.54 147.67 
M 352.15 168.13 354.83 168.29 357.29 168.09 366.86 166.19 368.75 166.11 373.37 164.66 378.26 162.76 380.56 163.05 383.13 162.63 385.75 162.64 388.12 161.95 390.06 162.42 394.76 161.51 397.43 160.64 
M 354.94 171.79 357.51 171.7 362.2 171.22 366.73 170.5 368.72 170.45 371 170.1 373.27 169.25 376.32 168.79 378.56 167.98 386.23 166.84 388.16 167.22 395.02 167.1 397.15 165.93 400.92 166.18 403.28 166.06 404.5 165.1 405.78 164.44 407.13 163.23 410.32 163.26 
M 357.22 175.15 364.97 175.05 369.31 175.59 372.07 175.1 377.17 174.55 379.78 174.03 382.26 173.27 384.88 173.55 387.13 173.52 391.03 172.55 393.02 172.89 395.41 172.37 398.09 172.81 401.28 172.48 
M 352.15 178.69 354.78 179.18 362.53 179.33 364.91 179.03 369.64 179.85 374.74 179.67 377.52 180.11 384.93 179.41 386.72 179.72 390.18 179.56 392.04 178.98 395.31 179.06 398.43 179.73 403.81 179.16 405.68 178.74 406.35 178.01 408.16 177.72 411.64 178.27 414.23 178.45 415 178.8 417.94 178.57 421.28 178.04 423.42 178.38 
M 354.71 182.93 362.97 183.63 365.3 183.4 370.6 183.24 375.44 184.31 380.06 184.77 381.38 185.14 383.04 185.2 385.03 185.75 387.89 185.7 392.22 185.04 394.9 185.79 397.88 185.9 399.54 185.31 401.59 185.5 
M 357.3 186.68 360.1 186.81 362.77 187.24 367.18 188.41 370.06 188.29 371.9 188.6 374.24 189.44 376.47 189.68 381.53 189.97 384.16 189.69 386.71 189.67 389.21 190.06 394.96 190.34 
M 357.78 190.66 362.35 191.3 367.06 192.22 368.86 192.83 373.81 193.33 376.38 194.67 378.98 194.94 381.52 194.96 384.05 195.25 386.91 195.23 390.76 196.49 393.14 196.44 398.44 197.42 402.67 197.84 404.39 198.59 406.12 198.92 407.65 198.8 412.61 200.81 414.03 201.78 
M 357.59 194.26 362.2 195.38 364.24 196.23 374.05 198.34 379.73 199.08 381.15 199.4 386.55 199.64 388.98 200.11 393.91 202.8 396.02 203.18 399.37 204.19 401.47 205.02 
M 357.33 198.25 361.67 199.14 364.19 199.94 369.09 201.9 371.31 202.41 373.1 203.27 376 204.33 378.48 204.87 383.47 204.73 385.66 204.84 388.48 206.14 390.65 207.72 395.44 209.67 397.7 209.98 398.92 210.6 401.46 211.48 403.79 211.84 408.77 214.09 410.35 214.44 412.18 214.55 417.33 216.16 418.9 216.31 421.5 215.67 
M 359.79 202.4 364.52 203.9 374.88 208.78 377.4 209.6 379.8 210.03 382.17 210.16 385.29 210.06 389.37 212.6 391.52 213.06 393.48 214.09 395.55 214.5 397.62 215.6 399.6 216.25 401.8 217.43 404.89 218.08 407.33 219.23 409.7 220.11 414.36 221.22 
M 352.15 203.34 354.5 205.08 357 206.05 362.18 207.32 364.42 208.05 366.37 209.33 368.19 210.26 374.97 213.23 377.35 213.6 379.04 214.48 380.96 215.92 385.65 217 389.49 219.77 394.64 221.88 396.46 223.24 399.94 224.84 402.52 225.6 405.55 225.87 407.79 226.46 409.85 226.74 
M 359.16 210.38 363.13 212.66 368.19 214.61 372.81 217.26 377.5 218.88 379.56 219.97 381.2 221.21 383.2 222.03 384.93 223.62 387.51 224.38 389.78 225.25 391.15 226.58 393.28 227.53 398.59 228.8 401 230.03 403.51 230.96 405.01 231.31 406.46 231.94 410.28 234.48 412.8 235.8 415.94 237.02 418.77 237.65 423.9 241.23 426.08 242.27 
M 357.28 213.18 360.8 215.64 362.97 216.88 365.28 218.59 368.03 219.83 370.68 220.81 372.37 221.92 374.37 222.95 378.74 224.75 382.02 226.76 385.02 229.34 389.15 231.31 391.67 232.91 400.55 237.46 402.68 237.75 403.98 238.52 406.48 239.57 408.49 240.85 412.22 242.5 414.67 243.98 416.58 244.54 418.61 245.95 421.03 247.12 422.49 246.88 423.91 247.21 428.28 250.29 430.71 250.97 434.83 253.65 437.61 256.09 
M 354.98 215.73 358.88 218.65 363.19 221.36 367.59 223.78 370.03 224.61 371.76 225.86 375.27 227.77 379.1 230.18 380.77 231.85 383.36 233.14 385.62 234.65 387.67 235.67 389.41 237.86 393.23 240.78 395.81 241.57 397.64 242.46 400.29 243.22 402.19 244.78 404.59 246 407.05 247.01 408.68 248.43 410.75 249.8 413.71 251.34 415.18 252.61 417.2 253.71 420.01 254.46 422.27 255.77 424.17 258.13 426.36 259.1 428 259.21 428.93 259.91 430.24 261.49 
M 287.97 133.38 291.63 137.43 305.92 107.22 313.56 98.93 315.71 98.38 323.84 95.75 326.1 94.81 327.62 93.15 329.44 93.17 333.17 94.65 334.98 95.57 337.16 98.54 339.63 99.27 340.7 97.23 342.23 95.66 345.01 97.96 346.4 100.62 345.86 102.16 345.98 104.37 346.68 107.14 346.66 109.21 346.5 111.13 346.12 113.15 346.17 115.6 345.54 117.38 345.87 121.85 346.49 124.39 346.55 125.59 339.22 145.69 336.1 141.56 
M 291.73 133.79 293.79 133.03 295.77 129.58 296.49 127.77 296.77 126 297.73 124 299.12 122.75 300.51 120.41 302 116.22 302.3 113.86 
M 295.49 134.19 297.42 133.29 298.83 131.46 299.8 129.55 301.19 127.45 303.03 123.03 304.01 121.68 305.37 118.12 
M 299.23 134.76 301.02 133.46 302.59 131.51 305.12 127.91 305.75 125.94 307.78 121.97 308.09 120.02 307.97 117.74 308.73 115.38 310.42 113.16 312.71 109.73 312.98 107.3 314.78 105.16 318.47 102.88 319.32 101.31 
M 302.96 135.35 304.9 134.03 307.31 129.94 308.43 128.43 309.38 126.57 309.81 124.47 311.15 122.79 311.56 120.5 314.19 116.2 314.33 114.34 315.69 110.61 316.9 108.45 319.05 107.3 320.75 105.15 322.49 102.7 322.87 100.62 324.41 99.27 326.21 96.47 
M 306.68 136.03 308.36 134.84 309.96 132.91 312.25 129.34 313.12 127.64 315.55 124 316.65 121.56 317.15 119.39 318.04 116.68 319.23 115.11 319.43 112.84 320.39 110.69 321.97 109.26 323.06 106.93 324.48 105.44 325.77 104.78 326.65 102.6 329.73 99.46 
M 310.4 136.74 311.88 135.82 315.13 130.58 319.81 124.84 321.04 122.15 321.31 119.82 322.73 118.47 323.94 117.67 325.21 114.48 325.62 111.73 325.49 109.65 326.89 108.6 
M 314.11 137.45 315.76 136.62 318.95 131.25 322.34 126.51 323.97 124.52 325.28 122.13 325.75 120.34 326.79 119.88 327.71 118.23 328.78 115.72 328.94 113.26 330.73 111.74 332.19 109.94 
M 317.82 138.17 319.41 136.89 320.54 135.26 323.96 129.42 328.38 123.1 328.84 121.47 329.78 119.65 331.33 117.84 332.66 115.72 333.71 113.65 335.03 112.19 
M 321.54 138.86 323.28 137.58 325.26 133.74 326.44 131.93 330.72 126.56 331.98 124.4 332.95 121.94 334.18 119.82 334.98 118.99 336.13 116.72 337.38 115.41 338.37 112.95 339.87 110.28 341.55 108.07 
M 325.27 139.51 327.27 138.43 331.41 132.91 332.49 130.87 335.34 127.54 336.22 125.66 337.51 123.55 338.21 122.61 339.88 121.05 340.96 118.84 341.56 116.3 342.77 114.16 344.83 111.67 
M 328.99 140.18 331.51 139.67 333.1 138.23 334.4 136.24 338.65 127.88 341.23 126.81 342.11 124.98 343.64 123.6 
M 332.7 140.9 335.18 140.52 336.65 139.08 338.55 134.66 339.75 132.49 
M 93.48 182.07 93.94 180.25 95.11 177.85 96.96 175.32 99.48 172.81 106.41 167.4 109.74 163.78 113.7 160.07 118.54 156.76 129.29 150.74 140.34 145.3 154.58 139.63 159.58 138.09 161.79 142.67 162.42 147.15 164.3 156.16 164.95 160.64 165.08 165.07 164.81 173.87 163.84 178.19 163.17 182.54 162.28 186.87 159.72 195.45 159.18 199.81 157.5 208.48 156.26 212.78 154.45 217.02 151.62 221.08 143.04 220.4 136.76 219.39 131.08 218.03 125.83 216.21 121 214.16 112.49 209.9 108.61 207.28 105.16 204.57 102.26 201.99 99.73 199.31 
M 147.12 167.12 146.75 170.87 144.16 177.84 142.68 181.02 139.61 186.64 138.59 191.47 138.63 199.43 137.77 202.71 128.09 202.46 124.1 202.19 120.07 201.48 116.08 200.4 112.33 198.98 108.84 197.25 
M 98.52 198.54 93.24 189.61 91.54 186.29 90.82 184.55 91.39 182.68 93.15 181.9 94.91 182.78 95.51 184.53 97.32 191.59 99.78 199.28 
M 99.3 199.84 92.07 197.77 80.94 194.28 79.2 193.57 78.42 191.81 79.13 190.05 80.98 189.47 84.46 191.09 91.09 194.77 99.59 199.08 
M 115.21 174.93 114.4 171.87 114.63 168.71 115.87 165.79 118 163.44 120.77 161.9 123.89 161.35 127.02 161.84 129.83 163.32 132 165.63 133.3 168.52 133.59 171.68 132.85 174.76 131.14 177.43 128.66 179.4 125.67 180.46 122.5 180.49 119.49 179.49 116.97 177.57 115.21 174.93 
M 115.09 174.66 114.46 172.37 114.41 169.98 114.95 167.66 116.04 165.54 116.77 164.6 118.56 163.03 119.58 162.41 121.82 161.59 124.19 161.35 125.38 161.45 127.67 162.08 
M 116.49 174.08 115.96 172.15 115.87 171.14 116.08 169.15 116.38 168.16 
M 118.47 165.04 120.27 163.76 122.16 163.07 124.16 162.86 125.16 162.94 127.09 163.48 
M 117.89 173.5 117.62 172.73 117.38 171.11 117.77 168.75 
M 119.51 166.13 120.97 165.1 122.5 164.54 123.31 164.41 124.94 164.44 126.52 164.87 
M 120.48 172.56 120.15 171.33 120.24 170.07 120.43 169.62 
M 121.31 168.28 121.59 167.96 122.7 167.35 123.95 167.12 125.2 167.32 126.32 167.91 127.19 168.84 127.71 169.99 127.83 171.26 127.53 172.49 126.85 173.56 125.86 174.35 124.66 174.77 123.39 174.78 122.19 174.38 121.18 173.61 120.48 172.56 
M 120.57 169.7 120.22 170.39 
M 122.9 167.31 122.04 169.01 
M 121.44 170.23 120.41 172.29 
M 124.11 167.15 122.8 169.77 
M 122.36 170.64 121.01 173.36 
M 125.16 167.31 123.57 170.5 
M 123.38 170.89 121.78 174.07 
M 126.07 167.78 122.68 174.55 
M 126.85 168.48 123.7 174.78 
M 127.48 169.48 124.88 174.69 
M 127.81 171.09 126.4 173.91 
M 93.81 180.77 97.62 184.57 
M 95.24 177.66 98.8 181.21 
M 97.2 175.08 99.85 177.73 
M 99.47 172.81 103.76 177.1 
M 102.06 170.87 105.31 174.11 
M 104.6 168.86 107.56 171.83 
M 107.02 166.74 110.18 169.91 
M 109.19 164.38 112.87 168.06 
M 111.49 162.14 113.88 164.53 
M 113.85 159.96 117.68 163.79 
M 116.55 158.12 119.62 161.19 
M 119.3 156.33 122.78 159.81 
M 122.19 154.69 125.25 157.75 
M 125.1 153.06 128.57 156.53 
M 128.02 151.44 131.19 154.61 
M 131 149.88 133.81 152.69 
M 134.02 148.37 137.49 151.84 
M 137.07 146.88 140.77 150.57 
M 140.13 145.4 144.58 149.85 
M 143.37 144.1 146.08 146.81 
M 146.61 142.8 149.43 145.63 
M 149.85 141.51 153.27 144.92 
M 153.1 140.22 156.46 143.57 
M 156.43 139.01 160.87 143.45 
M 160.05 174.49 157.19 176.03 154.96 176.63 
M 155.86 203.95 154.24 203.88 153.24 203.64 151.38 202.67 151.08 202.44 150.77 201.78 150.83 201.3 151.09 201.01 
M 139.23 147.95 138.97 149.26 138.63 149.46 137.92 149.32 
M 143.24 154.85 140.88 153.79 139.76 153.1 137.32 150.93 136.18 149.17 
M 146.03 143.33 146.68 142.77 
M 128.97 192.4 128.57 193.5 127.09 195.67 126.72 197.21 
M 102.55 194.78 101.65 193.66 101.13 192.65 101.73 191.51 102.31 190.83 
M 151.57 190.45 151.39 190.87 
M 123.57 192.25 123.55 193.52 122.68 196.31 122.71 196.7 123.59 198.56 123.91 199.65 
M 130.68 161.16 129.17 162.97 
M 139.13 193.49 138.32 193.56 134.61 192.77 134.09 192.78 132.48 193.34 131.35 193.27 
M 163.14 159.9 162.5 159.11 161.69 158.61 160.38 158.06 158.89 157.73 158.62 157.08 
M 150.23 213.83 151.05 215.73 151.39 216.15 152 216.4 153 216.32 
M 157.29 158.15 156.81 158.38 155.14 158.26 153.98 159.4 
M 149.53 186.65 150.31 186.55 151.01 186.66 152.41 187.33 152.63 187.76 152.18 188.55 
M 114.73 178.9 114.84 178.04 114.43 177.44 113.45 177.05 113 177.08 112.69 177.32 
M 134.22 156.35 132.41 155.28 131.8 154.67 130.43 151.52 130.34 150.21 
M 134.53 187.67 133.46 188.87 131.36 190.6 129.57 193.32 129.09 193.71 
M 150.29 169.61 151.54 170.7 151.68 171.12 151.64 171.95 151.9 172.52 
M 110.5 208.56 110.28 207.03 110.43 206.01 110.65 205.58 
M 107.37 189.42 107.91 190.22 108.44 191.63 108.26 192.58 107.62 192.99 
M 142.53 207.1 142.07 207.58 142.13 207.91 142.41 208.06 
M 132.75 156.1 131.54 155.09 131.18 154.53 130.29 151.63 130.31 150.22 
M 147.51 216.6 148.21 216.82 148.94 216.52 
M 140.5 145.24 140.99 146.67 141.14 147.88 
M 121.54 158.13 122.17 158.05 123.73 158.32 127.41 160.17 128.36 160.85 128.81 161.41 128.69 162.72 
M 103.5 186.69 104.22 185.74 104.41 185.02 104.35 182.47 103.99 180.91 103.65 180.2 102.52 179.02 101.45 178.68 100.61 178.76 
M 101.6 194.92 100.89 194.04 100.66 193.02 101.31 192.09 
M 151.44 173.99 151.06 174.42 149.73 174.88 148.89 175.71 
M 143.94 216.8 143.07 215.99 142.07 215.52 138.09 215.29 137.68 215.12 136.64 214.2 
M 156.97 210.32 157.04 209.16 156.65 208.29 155.82 207.85 153.69 207.34 152.69 206.25 
M 133.76 185.19 133.13 187.53 132.56 188.27 131.19 189.49 130.61 190.29 130.36 191.36 129.61 192.92 129.15 193.52 
M 111.11 179.67 112.49 180.97 114.17 181.73 114.55 181.66 114.82 181.34 114.87 180.43 
M 125.41 208.56 125.01 211.07 124.85 211.61 124.53 211.99 123.95 212.24 123.47 212.19 123.04 211.93 122.68 211.27 
M 140.84 171.38 138.97 171.27 138.15 171.5 137.69 171.94 137.6 172.35 137.73 172.69 138.22 173.17 
M 108.5 168.77 109.98 169.56 110.65 170.38 110.75 170.85 110.47 172.28 109.82 173.68 109.36 174.15 
M 148.68 196.87 152.57 198.99 152.73 199.27 152.68 199.55 151.77 200.6 
M 127.27 155.49 128.32 153.58 128.95 151.87 129.16 150.81 
M 111.39 194.08 109.71 196.28 109.63 196.78 
M 109.56 193.01 109.35 193.82 109.4 194.99 108.96 195.74 108.8 195.83 108.62 195.67 
M 105.7 170.1 105.9 171 105.81 171.45 105.41 171.91 104.72 172.25 
M 156.45 141.6 156.21 139.08 
M 122.82 156.94 125.46 156.39 125.91 156.04 126.82 154.2 127.79 151.57 
M 126.08 152.66 126.13 152.49 
M 156.2 146.94 154.93 145.67 154.5 144.98 153.96 143.48 154.25 139.76 
M 130.43 215.52 126.86 216.57 
M 98.44 195.02 99.11 193.78 100.01 192.98 
M 130.11 180.72 130.53 181.76 132.23 183.3 133.07 184.47 
M 111.7 176.05 111.36 177.34 111.61 178.6 112.58 179.9 113.69 180.54 
M 130.04 162.09 129.23 163 
M 118.94 185.99 115.97 186.72 115.57 187.04 114.67 189.06 113.53 190.16 
M 123.34 194.39 122.68 196.51 123.87 199.4 123.93 200.33 123.67 200.93 
M 133.82 179.48 133.23 180.15 133.11 180.6 133.9 181.64 134.88 182.18 
M 149.2 196.08 152.02 197.57 153.48 197.97 153.52 198.92 
M 142.61 144.4 142.82 146.33 
M 131.05 161.25 129.25 163.01 
M 146.97 212.24 147.48 212.74 148.09 214.91 148.61 215.91 149.04 216.31 
M 132.99 207.48 133.15 206.76 133.63 206.13 135.7 204.41 136.47 203.06 136.87 201.08 136.85 200.36 135.92 197.63 
M 108.94 189.44 108.55 192.11 108.14 192.8 107.6 193.01 
M 134.36 179.95 134.07 180.57 134.34 181.3 135.06 181.79 135.82 181.81 
M 143.8 211.68 145.83 212.79 146.56 213.46 
M 102.3 175.23 100.63 175.02 99.99 174.78 98.61 173.68 
M 141.52 196.08 140.6 195.9 138.53 195.05 135.01 193.05 134.11 192.93 133.34 193.25 
M 134.34 201.06 134.95 199.11 135.11 197.34 135.06 196.7 134.21 194.78 134.07 194.07 
M 164.3 172.49 164.32 171.3 164.01 170.25 163.12 169.58 162.26 168.62 
M 105.8 183.51 106.43 182.36 106.88 182.01 107.6 181.78 108.61 181.83 110.85 182.45 112.51 182.46 
M 113.3 193.13 113.21 193.8 113.32 194.13 113.77 194.49 116.43 194.08 116.85 193.67 
M 105.47 182.51 105.55 180.17 105.16 178.81 104.33 178.15 103.74 177.91 101.74 177.49 
M 105 200.83 104.66 199.18 104.18 198.35 103.31 197.61 102.3 197.04 101.53 196.34 100.61 195.08 100.43 194.45 100.54 193.22 
M 121.34 184.95 120.27 184.59 116.46 183.84 114.89 183.06 
M 152.89 208.83 152.62 209.05 
M 133.03 206.54 135.7 204.2 136.42 202.81 136.76 200.82 135.73 196.77 
M 159.98 144.09 159.24 143.24 158.61 142.2 158.46 141.45 158.6 139.93 158.4 138.4 
M 146.91 182.39 150.12 181.46 151.97 181.51 
M 140.77 158.49 136.55 156.7 133.47 154.18 132.71 153.42 132.15 152.54 
M 130.11 183.71 130.74 183.65 131.04 183.78 131.57 184.29 131.89 184.96 131.89 185.36 131.39 186.14 130.82 186.46 130.35 186.49 
M 159.3 162.69 158.79 162.2 157.89 161.92 155.09 162.49 154.6 163.07 
M 140.82 149.85 138.83 149.76 137.94 149.35 
M 151.04 168.44 151.67 169.43 152.12 171.04 
M 150.94 174.19 149.69 174.76 148.56 175.84 
M 129.07 155.23 129.5 153.77 129.56 151.71 129.88 150.44 
M 158.45 177.43 154.15 178.33 152.95 179.03 152.18 179.83 
M 112.63 162.06 113.08 163.27 113.64 163.8 115.02 165.85 115.24 166.48 115.12 167.52 
M 158.6 161.31 157.77 161.1 157.37 161.17 155.18 162.16 154.65 162.9 
M 125.76 183.61 125.18 180.46 
M 142.9 187.34 142.64 186.18 142.67 185.38 143.79 183.16 144.23 181.29 
M 141.44 199.33 140.17 199.1 138.84 198.44 138.2 197.93 137.12 196.63 135.5 195.16 134.92 193.53 
M 114.3 202.87 115.75 202.37 116.59 201.87 117.88 200.47 118.25 199.48 118.68 196.25 
M 136.8 182.01 137.6 180.72 138.52 179.89 139.37 179.56 141.36 179.45 
M 107.91 184.7 108.63 184.69 109.04 185.21 110.17 188.85 110.22 189.49 110.02 190 
M 144.47 162.46 142.88 163.16 141.46 165.29 139.1 167.02 138.34 167.43 136.56 167.37 
M 133.82 153.85 130.94 149.91 
M 118.1 206.42 119.46 205.41 121.53 203.27 122.5 201.95 
M 99.71 199.31 99.99 199.97 
M 97.31 196.38 96.89 197.17 97.62 196.93 
M 95.55 193.41 94.74 193.97 94.09 195.07 94.92 194.39 96.02 194.17 
M 93.78 190.54 92.31 191.42 91.29 192.96 92.49 191.84 94.26 191.37 
M 92.2 187.58 89.88 188.87 88.49 190.86 90.06 189.29 92.67 188.5 
M 90.82 184.54 87.45 186.32 85.69 188.76 87.63 186.74 91.24 185.56 
M 99.54 199.21 100.4 199.56 
M 96.31 197.37 96.77 196.97 97.35 196.74 97.19 197.14 97.26 197.87 
M 93.25 195.84 94.06 194.75 95 194.21 94.48 194.92 94.29 196.33 
M 90.26 194.28 91.35 192.53 92.66 191.67 91.77 192.7 91.29 194.87 
M 87.33 192.63 88.63 190.31 90.31 189.14 89.06 190.48 88.34 193.19 
M 84.35 191.04 85.92 188.08 87.96 186.6 86.34 188.26 85.37 191.58 
M 81.3 189.61 83.21 185.86 85.62 184.07 83.63 186.03 82.37 190.09 
M 86.48 196.04 92.7 200.47 95.69 202.21 98.79 203.71 101.98 205 108.61 207.28 
M 96.72 201.58 96.13 202.42 
M 88.06 197.22 87.75 196.42 
M 161.79 142.7 164.52 145.43 
M 162.65 137.51 170.47 145.33 
M 167.79 136.6 173.19 142 
M 173.29 136.05 181.99 144.74 
M 178.83 135.54 184.68 141.38 
M 184.36 135.02 189.06 139.71 
M 189.68 134.29 196.29 140.89 
M 195.01 133.56 200.62 139.17 
M 200.35 132.85 205.44 137.94 
M 205.84 132.29 214.48 140.93 
M 211.51 131.91 219.68 140.08 
M 217.3 131.65 222.61 136.96 
M 223.22 131.51 229.14 137.43 
M 229.2 131.45 235.45 137.7 
M 235.28 131.47 241.23 137.42 
M 241.4 131.55 248.84 138.99 
M 247.51 131.6 253.37 137.47 
M 253.42 131.46 262.35 140.39 
M 259.42 131.41 267.91 139.9 
M 265.59 131.53 272.95 138.89 
M 272.04 131.93 280.86 140.75 
M 278.66 132.5 287.34 141.17 
M 285.34 133.13 290.6 138.39 
M 292.09 133.82 298.57 140.3 
M 299.04 134.73 304.46 140.15 
M 306.33 135.96 311.94 141.57 
M 313.82 137.4 322.36 145.94 
M 321.28 138.82 329.09 146.62 
M 328.63 140.11 337.04 148.52 
M 336.15 141.58 341.15 146.58 
M 344.61 143.99 353.65 153.03 
M 166.16 221.8 166.61 222.69 
M 166.41 217 169.53 223.24 
M 166.77 212.42 172.49 223.87 
M 167.12 207.84 175.45 224.5 
M 168.14 204.58 178.47 225.25 
M 171.22 205.45 181.5 226 
M 174.3 206.32 184.51 226.74 
M 177.39 207.19 187.5 227.42 
M 168.61 184.34 169.54 186.2 
M 180.43 207.98 190.49 228.11 
M 168.19 178.21 172 185.83 
M 183.34 208.51 193.45 228.73 
M 168.45 173.43 174.47 185.48 
M 186.33 209.2 196.38 229.3 
M 169.41 170.06 176.97 185.17 
M 189.1 209.43 199.32 229.87 
M 170.37 166.68 179.44 184.83 
M 191.91 209.76 202.17 230.29 
M 169.98 160.6 181.91 184.46 
M 194.82 210.3 203.8 228.26 
M 168.98 153.32 184.53 184.42 
M 197.83 211.02 202.81 220.98 
M 166.68 143.42 187.15 184.36 
M 200.7 211.45 203.21 216.48 
M 167.76 140.28 189.67 184.11 
M 203.42 211.6 203.61 211.99 
M 168.87 137.2 192.08 183.64 
M 171.05 136.28 194.49 183.16 
M 173.57 136.02 196.98 182.84 
M 176.09 135.78 199.59 182.76 
M 178.63 135.55 202.23 182.76 
M 181.17 135.33 204.78 182.56 
M 183.7 135.11 206.36 180.43 
M 186.18 134.77 206.81 176.03 
M 188.66 134.43 207.26 171.64 
M 191.13 134.09 207.03 165.88 
M 193.61 133.75 207.48 161.49 
M 196.09 133.41 208.6 158.44 
M 240.4 222.03 244.48 230.2 
M 198.57 133.07 209.05 154.04 
M 240.85 217.64 247.07 230.07 
M 201.07 132.78 209.52 149.69 
M 241.32 213.28 249.7 230.05 
M 203.59 132.52 210.01 145.37 
M 242.61 210.57 252.36 230.06 
M 206.11 132.27 210.5 141.06 
M 245.2 210.44 255.01 230.08 
M 208.65 132.05 209.66 134.08 
M 247.82 210.39 257.67 230.1 
M 250.15 209.76 260.33 230.12 
M 252.58 209.32 262.99 230.15 
M 255.03 208.93 265.62 230.11 
M 257.53 208.64 268.24 230.06 
M 259.92 208.13 270.86 230 
M 248.27 179.53 249.14 181.27 
M 262.23 207.45 273.47 229.93 
M 248.49 174.68 251.75 181.2 
M 264.6 206.89 276.08 229.86 
M 248.04 168.47 254.52 181.45 
M 267.09 206.59 278.69 229.79 
M 248.26 163.62 257.37 181.84 
M 269.54 206.19 281.29 229.69 
M 247.8 157.41 259.96 181.73 
M 271.82 205.44 283.88 229.57 
M 247.35 151.21 262.72 181.95 
M 274.01 204.54 282.53 221.57 
M 247.57 146.36 265.48 182.19 
M 276.28 203.79 282.75 216.72 
M 247.79 141.51 268.27 182.46 
M 278.56 203.04 282.97 211.87 
M 247.34 135.3 270.74 182.12 
M 280.8 202.24 283.87 208.37 
M 245.53 126.39 273.58 182.5 
M 283.3 201.94 284.77 204.87 
M 244.4 118.84 276.37 182.79 
M 244.62 113.98 279.03 182.8 
M 244.84 109.13 281.73 182.92 
M 245.06 104.28 284.36 182.88 
M 245.28 99.43 285.2 179.26 
M 245.5 94.58 255.72 115 
M 263.93 131.42 285.91 175.4 
M 246.74 91.76 255.48 109.24 
M 266.66 131.59 285.94 170.15 
M 248.32 89.61 255.93 104.83 
M 269.39 131.76 286.64 166.26 
M 249.89 87.47 256.76 101.21 
M 272.13 131.94 286.67 161.03 
M 251.47 85.32 257.79 97.97 
M 274.89 132.17 287.41 157.21 
M 253.04 83.18 257.99 93.07 
M 277.66 132.41 287.47 152.03 
M 254.61 81.03 258.75 89.3 
M 280.43 132.65 288.21 148.22 
M 325.44 222.69 325.81 223.41 
M 256.19 78.89 259.65 85.8 
M 283.21 132.92 287.61 141.72 
M 325.49 217.49 328.27 223.06 
M 257.76 76.74 260.7 82.6 
M 285.99 133.19 288.36 137.93 
M 324.89 210.99 330.73 222.67 
M 259.34 74.6 261.88 79.67 
M 324.97 205.86 333.18 222.28 
M 260.91 72.45 263.16 76.95 
M 323.71 198.04 335.63 221.89 
M 262.49 70.31 264.52 74.38 
M 321.77 188.87 338.03 221.38 
M 264.06 68.16 265.92 71.88 
M 321.22 182.47 340.4 220.84 
M 265.64 66.01 266.67 68.08 
M 321.39 177.51 342.78 220.3 
M 267.21 63.87 267.92 65.28 
M 321.56 172.56 345.12 219.68 
M 268.79 61.72 269.2 62.56 
M 321.76 167.67 347.4 218.95 
M 270.36 59.58 270.54 59.93 
M 321.98 162.82 349.68 218.22 
M 271.92 57.41 271.94 57.43 
M 322.88 159.32 351.96 217.49 
M 273.38 55.03 273.51 55.29 
M 323.78 155.82 353.87 216.02 
M 274.9 52.76 275.09 53.14 
M 324 150.98 355.75 214.48 
M 276.45 50.58 276.66 51 
M 324.22 146.12 357.63 212.94 
M 278.04 48.47 278.24 48.85 
M 324.42 141.21 359.51 211.41 
M 279.68 46.44 279.81 46.71 
M 326.3 139.69 360.17 207.42 
M 281.32 44.44 281.39 44.56 
M 329.22 140.22 360.17 202.13 
M 332.15 140.79 360.17 196.83 
M 335.08 141.37 360.17 191.54 
M 338.11 142.12 360.17 186.24 
M 341.18 142.97 360.17 180.95 
M 344.26 143.85 357.46 170.23 
M 347.57 145.17 356.03 162.09 
M 350.88 146.5 354.6 153.94 
"/></svg>