<svg xmlns="http://www.w3.org/2000/svg" width="520" height="320"><rect x="0" y="0" width="520" height="320" fill="floralwhite"/><rect x="10" y="10" width="500" height="300" stroke="black" stroke-width="1" fill="none"/><path stroke="black" stroke-width="1" fill="none" stroke-linecap="round" stroke-linejoin="round" d="
M 127.37 118.79 145.35 107.71 154.33 102.68 163.3 98.1 181.26 89.69 190.23 86.29 199.21 83.8 208.19 81.91 235.12 81 244.1 82.62 253.07 85.86 262.05 89.85 280 98.73 288.98 102.96 297.96 107.85 315.91 119.26 324.89 124.78 360.79 145.99 
M 360.79 173.12 333.86 192.6 324.89 198.84 315.91 204.55 306.93 209.97 297.96 214.66 280 223.35 271.03 226.55 262.05 229.34 253.07 231.86 244.1 233.18 235.12 234.07 226.14 233.69 217.16 233.71 208.19 234 199.21 232.21 190.23 229.29 181.26 225.89 172.28 222.14 163.3 218.88 154.33 215.01 145.35 210.08 136.41 204.35 
M 132.91 128.99 133.48 126.38 133.48 121.84 132.17 115.86 
M 127.9 119.53 130.46 118.63 
M 140.37 162.27 141.96 157.56 141.96 154.08 140.06 148.45 139.12 146.86 
M 139.81 185.36 139.9 185.17 
M 132.24 116.14 132.59 115.61 
M 141.28 152.26 143.94 147.82 146.13 141.38 146.13 137.4 143.94 130.97 140.54 125.28 137.89 123.07 
M 150.1 166.02 148.02 161.39 144.43 156.82 141.62 155.03 
M 140.39 165.27 146.5 164.51 
M 140.29 168.45 143 168.45 
M 146.77 195.27 148.42 192.44 148.42 189.8 
M 145.25 133.73 146.3 131.7 148.33 124.81 148.33 120.54 146.3 113.66 143.74 108.71 
M 151.85 165.79 153.48 162.68 155.24 156.78 155.24 153.13 153.48 147.24 150.75 142.03 148.63 139.99 
M 149.44 193.55 151.66 192.02 
M 151.16 196.95 147.51 193.04 
M 147.6 122.02 148.22 121.66 152.73 116.52 155.64 110.7 155.64 107.09 153.63 103.07 
M 154.61 152.95 155.29 152.45 158.83 147.18 161.11 141.22 161.11 137.54 158.83 131.57 155.29 126.31 152.52 124.26 
M 162.03 160.91 158.71 156.28 156.07 154.44 
M 153.39 164.91 158.31 164.33 
M 161.28 200.18 162.28 199.12 163.76 196.34 
M 154.6 109.34 155.11 109.08 159.36 104.76 162.1 99.88 162.1 98.72 
M 156.11 101.77 156.93 101.89 
M 160.29 139.01 161.24 138.31 164.58 133.4 166.73 127.84 166.73 124.39 164.58 118.83 161.24 113.92 158.64 112 
M 167.3 159.13 168.41 155.47 168.41 152.07 166.74 146.58 164.15 141.73 162.13 139.84 
M 170.24 202.43 169.32 200.52 167.86 198.81 
M 165.96 124.25 166.42 124 170.62 119.52 173.32 114.44 173.32 111.3 170.62 106.22 166.42 101.74 163.15 99.99 
M 167.81 152.76 169.98 151.28 173.48 146.52 175.74 141.13 175.74 137.79 173.48 132.4 169.98 127.64 167.25 125.78 
M 174.73 158.5 172.41 155.15 169.82 153.29 
M 175.15 203.73 176.34 202.29 
M 172.35 108.75 174.11 106.5 176.24 101.72 176.24 98.76 174.11 93.98 173.62 93.36 
M 174.93 138.92 176.33 137.91 179.43 133.42 181.43 128.34 181.43 125.2 179.43 120.12 176.33 115.63 173.91 113.88 
M 179.47 156.88 180.72 152.87 180.72 149.51 179.02 144.08 176.38 139.28 175.53 138.51 
M 185.67 206.63 185.67 205.49 184.62 202.88 
M 175.48 100.33 177.55 99.49 181.82 96.04 184.58 92.12 184.58 89.7 183.87 88.7 
M 180.72 125.73 182.3 124.89 186.32 120.63 188.91 115.79 188.91 112.8 186.32 107.97 182.3 103.7 179.16 102.04 
M 181.6 152.25 184.47 150.47 188.15 145.91 190.52 140.75 190.52 137.55 188.15 132.39 184.47 127.83 181.6 126.05 
M 186.58 154.44 183.71 152.34 
M 186.91 206.96 188.72 205.77 190.61 203.31 
M 187.98 111.9 191.25 108.24 193.61 103.6 193.61 100.73 191.25 96.08 187.59 91.98 184.73 90.38 
M 189.75 140.27 192.37 138.6 195.71 134.34 197.86 129.52 197.86 126.53 195.71 121.7 192.37 117.44 189.75 115.78 
M 187.44 125.87 193.6 124.26 
M 186.97 127.74 194.02 128.19 
M 186.91 130.41 194.21 131.94 
M 196.11 151.17 196.11 148.97 194.07 143.65 191.25 139.49 
M 200 210.06 200.49 208.8 200.49 205.77 199.79 203.96 
M 190.82 205.02 196.94 203.86 
M 191.12 207.47 197.43 206.91 
M 191.58 86.06 195.52 85.36 200.65 83.5 
M 192.86 104.28 196.55 103.04 201.26 99.84 204.3 96.23 204.3 93.99 201.26 90.37 196.55 87.18 192.86 85.93 
M 189.19 93.41 198.61 92.7 
M 190.18 95.34 198.95 95.39 
M 191.71 97.02 198.53 97.88 
M 197.09 128.38 199.8 127.1 204.03 123.08 206.75 118.52 206.75 115.7 204.03 111.15 199.8 107.13 196.5 105.56 
M 203.69 148.58 204.88 147.27 207.43 142.34 207.43 139.29 204.88 134.37 200.93 130.02 197.84 128.32 
M 200.63 207.51 203.36 205.73 206.84 201.15 207.09 200.58 
M 204.84 210.72 203.42 209.08 200.66 207.48 
M 203.39 83.58 206.72 83.17 210.99 82.14 211.93 81.74 
M 203.21 95.54 205.36 94.95 209.62 92.6 212.36 89.95 212.36 88.31 209.62 85.65 205.44 83.36 
M 205.78 117.12 207.27 116.4 211.09 112.73 213.55 108.58 213.55 106.01 211.09 101.85 207.27 98.18 204.28 96.75 
M 201.38 105.1 209.04 104.27 
M 201.69 107.46 209.13 106.97 
M 201.71 109.14 208.7 110.4 
M 207.22 142.62 209.78 141.04 213.04 136.98 215.15 132.39 215.15 129.55 213.04 124.96 209.78 120.91 207.22 119.33 
M 204.37 128.66 211.59 127.55 
M 204.39 131.31 211.38 130.62 
M 204.84 133.22 211.67 134.71 
M 211.13 146.03 208.61 142.77 206.51 141.41 
M 214.26 210.98 215.08 208.83 215.08 205.78 213.2 200.85 211.81 198.78 
M 212.08 91.91 215.67 91.25 220.27 89.54 223.24 87.6 223.24 86.41 220.27 84.47 215.67 82.77 212.08 82.1 
M 212.67 108.54 215.96 107.47 220.43 104.58 223.32 101.3 223.32 99.27 220.43 96 215.96 93.11 212.47 91.98 
M 214.4 130.6 217.14 129.33 221.16 125.61 223.74 121.41 223.74 118.8 221.16 114.6 217.14 110.88 214.01 109.43 
M 210.59 117.6 219.11 117.28 
M 210.64 120.4 218.77 119.98 
M 210.59 121.84 219.24 123.23 
M 221 149.27 223.71 144.3 223.71 141.38 221.24 136.67 217.41 132.51 214.42 130.88 
M 215.2 207.14 217.93 205.4 221.42 200.92 223.67 195.85 223.67 195.14 
M 217.51 197.9 219.45 198.5 
M 219.52 210.87 218.04 209.13 215.33 207.53 
M 222.18 87.41 224.06 87.08 227.34 85.93 229.46 84.62 229.46 83.82 227.34 82.51 224.16 81.4 
M 218.65 83.46 225.82 82.94 
M 218.82 84.05 225.79 83.84 
M 221.56 85.12 225.8 85.38 
M 222.29 100.4 224.16 99.78 227.68 97.48 229.95 94.88 229.95 93.26 227.68 90.65 224.16 88.35 222.18 87.71 
M 222.82 119.69 224.74 118.75 228.05 115.49 230.18 111.8 230.18 109.52 228.05 105.83 224.74 102.57 222.29 101.37 
M 219.88 108.59 226.54 107.48 
M 219.29 110.86 226.62 110.27 
M 219.98 112.47 226 113.8 
M 222.83 142.33 224.69 141.12 227.68 137.24 229.6 132.85 229.6 130.13 227.68 125.74 224.69 121.86 222.82 120.64 
M 229.71 156.07 229.71 153.72 227.69 148.82 224.57 144.49 222.83 143.29 
M 228.91 210.93 229.71 208.81 229.71 205.76 227.83 200.83 224.92 196.47 223.28 195.24 
M 229.14 94.33 231.84 93.69 235.56 91.93 237.95 89.93 237.95 88.7 235.56 86.7 231.84 84.94 228.94 84.25 
M 229.42 110.66 232.36 109.58 236.15 106.8 238.59 103.65 238.59 101.7 236.15 98.56 232.36 95.78 229.4 94.69 
M 226.57 101.18 233.99 99.92 
M 226.22 102.76 234.41 102.55 
M 226.2 104.15 234.16 105.4 
M 229.74 131.47 232.57 130.08 236.19 126.52 238.53 122.49 238.53 120 236.19 115.97 232.57 112.41 229.74 111.02 
M 226.77 119.6 234.37 117.99 
M 226.91 121.08 234 120.89 
M 227.24 122.91 234.04 124.29 
M 229.76 155.36 232.55 153.76 236.13 149.65 238.44 145 238.44 142.12 236.13 137.47 232.55 133.36 229.76 131.76 
M 232.41 179.53 236.16 175.01 238.47 170.01 238.47 166.91 237.17 164.09 
M 233.62 158.78 232.58 157.49 229.78 155.76 
M 229.91 207.01 232.64 205.29 236.15 200.88 238.41 195.89 238.41 192.8 236.15 187.81 232.43 183.26 
M 234.12 211.08 232.47 209.14 229.82 207.58 
M 236.85 87.49 238.14 87.2 240.82 85.96 242.55 84.55 242.55 83.68 240.82 82.28 239.94 81.87 
M 237.72 101.25 239.07 100.7 241.97 98.35 243.84 95.68 243.84 94.03 241.97 91.37 239.07 89.02 237.09 88.21 
M 234.44 93.75 240.08 92.52 
M 234.69 95.01 240.34 94.83 
M 234.38 96.49 240.19 97.14 
M 237.69 120.09 239.5 119.09 242.4 115.88 244.27 112.25 244.27 110 242.4 106.37 239.5 103.16 237.72 102.17 
M 237.61 142.61 239.46 141.36 242.34 137.47 244.2 133.07 244.2 130.34 242.34 125.94 239.46 122.05 237.69 120.85 
M 237.65 168.04 239.62 166.58 242.56 162.25 244.45 157.33 244.45 154.29 242.56 149.38 239.62 145.04 237.61 143.56 
M 234.94 153.64 240.8 151.68 
M 235.22 155.98 241.34 155.68 
M 235.51 157.95 240.99 159.45 
M 237.6 194.22 239.62 192.69 242.56 188.2 244.46 183.13 244.46 179.99 242.56 174.92 239.62 170.44 237.65 168.94 
M 235.18 179.19 240.74 177.96 
M 234.85 181.17 241.31 181.92 
M 234.9 184.15 240.69 185.42 
M 243.61 210.62 244.31 208.8 244.31 205.81 242.45 200.98 239.56 196.71 237.6 195.25 
M 243.17 93.93 245.43 93.27 248.69 91.39 250.79 89.25 250.79 87.93 248.69 85.79 245.43 83.9 242.89 83.17 
M 240.46 87.28 246.82 87.11 
M 240.68 88.88 246.87 88.48 
M 240.11 89.82 247.23 90.03 
M 243.95 110.72 246.58 109.61 249.94 106.78 252.11 103.57 252.11 101.58 249.94 98.37 246.58 95.54 243.95 94.43 
M 244.24 131.33 246.88 129.94 250.24 126.38 252.41 122.34 252.41 119.84 250.24 115.81 246.88 112.25 244.24 110.85 
M 241.94 119.24 248.72 117.65 
M 241.65 121.13 248.17 121.22 
M 242.03 123.41 248.51 123.83 
M 244.37 155.4 247.04 153.79 250.45 149.66 252.65 144.97 252.65 142.08 250.45 137.4 247.04 133.26 244.37 131.65 
M 244.56 181.31 247.27 179.58 250.74 175.16 252.97 170.15 252.97 167.05 250.74 162.05 247.27 157.62 244.56 155.9 
M 244.55 206.81 247.26 205.12 250.74 200.78 252.98 195.86 252.98 192.82 250.74 187.91 247.26 183.57 244.55 181.88 
M 242.1 192.05 248.84 190.22 
M 241.9 194.14 248.73 194.04 
M 242.31 196.73 249.02 198.18 
M 247.8 210.33 246.42 208.72 243.81 207.19 
M 248.19 85.58 250.4 84.9 
M 251.34 100.79 252.65 100.18 255.39 97.64 257.15 94.76 257.15 92.98 255.39 90.11 252.65 87.57 250.51 86.58 
M 251.64 119.52 253.34 118.49 256.02 115.25 257.75 111.59 257.75 109.31 256.02 105.65 253.34 102.41 251.34 101.2 
M 251.86 141.94 253.44 140.82 256.21 136.91 258 132.47 258 129.72 256.21 125.28 253.44 121.36 251.64 120.09 
M 252.17 167.7 253.84 166.39 256.64 162 258.44 157.03 258.44 153.95 256.64 148.98 253.84 144.59 251.86 143.04 
M 252.18 194.24 254.2 192.67 257.07 188.19 258.93 183.12 258.93 179.98 257.07 174.9 254.2 170.42 252.17 168.85 
M 250.04 178.95 255.25 178.06 
M 250.1 181.21 255.85 181.32 
M 249.68 184.17 255.27 185.79 
M 258.35 209.05 258.61 208.41 258.61 205.52 256.75 200.84 253.88 196.71 252.18 195.5 
M 256.52 92.63 258.72 91.99 262.21 89.93 
M 253.76 86.24 253.88 86.22 
M 253.17 87.13 255.69 87.03 
M 253.62 88.11 260.26 89.06 
M 257.52 109.75 260.14 108.62 263.5 105.73 265.67 102.46 265.67 100.44 263.5 97.17 260.14 94.28 257.52 93.15 
M 255.11 99.55 261.82 98.56 
M 255.17 101.44 261.45 101.73 
M 254.6 103.42 261.59 104.1 
M 257.9 130.4 260.55 129 263.93 125.4 266.11 121.32 266.11 118.8 263.93 114.72 260.55 111.12 257.9 109.71 
M 258.33 154.85 261.01 153.21 264.44 149.02 266.65 144.28 266.65 141.35 264.44 136.6 261.01 132.41 258.33 130.78 
M 255.36 140.65 262.32 139.21 
M 255.54 142.59 262.59 143.02 
M 255.82 145.02 262.66 146.02 
M 258.81 181.02 261.49 179.28 264.92 174.81 267.13 169.75 267.13 166.62 264.92 161.56 261.49 157.09 258.81 155.35 
M 259.02 206.54 261.72 204.86 265.19 200.55 267.42 195.67 267.42 192.64 265.19 187.76 261.72 183.45 259.02 181.76 
M 260.82 208.63 260.34 208.08 257.94 206.7 
M 264.89 99.91 266.52 99.2 269.43 96.67 270.97 94.33 
M 265.33 117.15 266.31 116.6 269.18 113.36 271.03 109.69 271.03 107.41 269.18 103.74 266.31 100.5 265.31 99.94 
M 265.86 141.07 267.33 140.08 270.28 136.08 272.19 131.55 272.19 128.74 270.28 124.21 267.33 120.21 265.33 118.86 
M 266.34 166.55 267.65 165.55 270.57 161.11 272.45 156.08 272.45 152.96 270.57 147.93 267.65 143.49 265.86 142.13 
M 266.62 193.98 268.47 192.5 271.33 187.94 273.17 182.78 273.17 179.58 271.33 174.41 268.47 169.85 266.34 168.15 
M 273.39 206.18 273.39 205.5 271.49 200.87 268.54 196.79 266.62 195.46 
M 264.01 204.55 269.98 203.05 
M 263.97 206.59 269.82 206.95 
M 271.99 109.36 274.82 108.26 278.46 105.44 280.8 102.25 280.8 100.28 279.47 98.48 
M 272.48 130.4 275.3 128.98 278.92 125.36 281.26 121.26 281.26 118.72 278.92 114.61 275.3 110.99 272.48 109.57 
M 273.05 154.9 275.84 153.27 279.41 149.09 281.71 144.35 281.71 141.42 279.41 136.69 275.84 132.51 273.05 130.88 
M 273.29 180.81 275.98 179.07 279.43 174.62 281.65 169.57 281.65 166.45 279.43 161.4 275.98 156.95 273.29 155.21 
M 274.3 205.97 276.26 204.74 279.68 200.45 281.89 195.58 281.89 192.57 279.68 187.71 276.26 183.42 273.59 181.74 
M 279.96 100.07 281.61 99.49 
M 280.42 118.95 282.38 117.94 285.55 114.66 287.59 110.95 287.59 108.65 285.55 104.93 282.38 101.66 279.96 100.4 
M 277.85 107.64 283.65 106.87 
M 277.17 109.53 283.72 109.68 
M 277.67 111.72 283.79 112.72 
M 280.91 142.86 283.31 141.31 286.39 137.34 288.37 132.84 288.37 130.06 286.39 125.56 283.31 121.59 280.91 120.04 
M 278.46 129.02 284.63 128.07 
M 278.76 131.31 284.43 131.16 
M 278.51 133.71 285.13 134.56 
M 280.89 167.79 283.21 166.11 286.17 161.81 288.08 156.94 288.08 153.92 286.17 149.05 283.21 144.74 280.89 143.06 
M 278.31 152.83 284.24 151.8 
M 278.83 155.61 284.55 155.61 
M 278.26 158.19 284.49 159.24 
M 281.1 193.5 282.79 192.12 285.56 187.61 287.34 182.49 287.34 179.33 285.56 174.22 282.79 169.7 280.86 168.12 
M 278.66 178.51 283.73 177.05 
M 278.56 180.88 284 180.72 
M 278.61 183.27 283.94 185.05 
M 286.71 202.39 286.3 201.34 283.46 197.32 281.24 195.75 
M 279.86 204.69 280.06 204.64 
M 287.83 110.34 290.72 109.27 294.42 106.55 294.76 106.11 
M 288.12 131.25 290.98 129.87 294.64 126.31 297 122.27 297 119.78 294.64 115.75 290.98 112.19 288.12 110.8 
M 288.2 155.09 290.94 153.5 294.44 149.44 296.71 144.84 296.71 141.99 294.44 137.39 290.94 133.32 288.2 131.73 
M 287.66 180.23 290.23 178.53 293.54 174.18 295.67 169.24 295.67 166.19 293.54 161.26 290.23 156.9 287.66 155.2 
M 293.1 200.25 293.39 199.87 295.47 194.97 295.47 191.94 293.39 187.04 290.16 182.71 287.64 181.02 
M 285.53 191.08 291.91 189.6 
M 285.32 193.11 291.31 193.45 
M 284.93 195.96 291.9 197.49 
M 296.16 119.98 298.14 118.94 301.17 115.77 303.12 112.19 303.12 111.11 
M 295.9 142.75 298.17 141.27 301.11 137.45 303.01 133.12 303.01 130.44 301.11 126.11 298.17 122.29 296.16 120.98 
M 295.12 166.94 297.24 165.32 299.95 161.16 301.69 156.45 301.69 153.53 299.95 148.82 297.24 144.66 295.9 143.64 
M 294.73 191.67 295.98 190.58 298.56 186.14 300.22 181.1 300.22 177.98 298.56 172.95 295.98 168.5 294.91 167.57 
M 298.58 198.42 296.72 195.32 294.73 193.66 
M 303.1 131.37 305.8 130.02 309.26 126.54 311.49 122.6 311.49 120.16 309.26 116.22 305.99 112.93 
M 305.24 112.46 303.1 111.38 
M 300.61 119.28 307.31 118.35 
M 300.32 121.69 307.44 121.57 
M 300.12 123.43 307.48 124.65 
M 302.37 154.14 304.92 152.61 308.19 148.71 310.3 144.28 310.3 141.54 308.19 137.12 304.92 133.21 302.37 131.69 
M 300.82 178.36 303.24 176.7 306.33 172.46 308.32 167.66 308.32 164.69 306.33 159.88 303.24 155.64 301.07 154.16 
M 307.09 195.44 308.01 193.12 308.01 189.98 306 184.91 302.89 180.43 300.47 178.69 
M 310.69 119.97 312.42 118.95 313.48 117.71 
M 310.49 142.34 312.67 140.9 315.47 137.21 317.27 133.04 317.27 130.45 315.47 126.28 312.67 122.59 310.69 121.28 
M 307.99 164.51 309.91 162.96 312.36 159 313.94 154.52 313.94 151.75 312.36 147.27 309.91 143.31 309.55 143.02 
M 307.29 188.73 308.21 187.94 310.78 183.54 312.44 178.56 312.44 175.48 310.78 170.5 308.21 166.1 307.61 165.59 
M 304.74 174.16 309.51 172.93 
M 304.19 176.95 309.45 176.95 
M 303.89 179.89 309.76 181.14 
M 310.31 194.1 309.05 191.82 307.29 190.23 
M 317.04 130.51 319.49 129.17 322.63 125.73 323.55 123.96 
M 315.36 152.07 317.72 150.59 320.74 146.8 322.69 142.51 322.69 139.85 320.74 135.56 317.72 131.78 316.63 131.09 
M 314.02 138.71 319.48 137.6 
M 313.47 141.24 319.55 141.02 
M 313.25 143.76 319.23 144.5 
M 313.17 175.97 315.56 174.31 318.62 170.07 320.59 165.26 320.59 162.28 318.62 157.48 315.56 153.23 313.38 151.72 
M 311.2 161.29 317.28 160.33 
M 311.03 163.54 316.76 163.7 
M 311.03 166.44 316.99 167.76 
M 321.29 189.35 321.29 188.11 319.18 182.85 315.92 178.21 313.37 176.4 
M 323.94 140.65 325.83 139.27 328.26 135.74 329.82 131.74 329.82 129.26 329.02 127.22 
M 322.33 128.47 326.91 127.36 
M 322.09 130.24 327.24 130.34 
M 322.15 132.2 327.38 133.54 
M 319.89 160.06 320.89 159.23 323.29 155.25 324.84 150.75 324.84 147.96 323.29 143.45 321.99 141.3 
M 320.53 188.05 321.64 187.12 324.41 182.47 326.2 177.21 326.2 173.95 324.41 168.69 321.64 164.04 319.89 162.57 
M 317.44 172.89 322.67 171.27 
M 317.6 175.25 322.95 175.55 
M 317.66 178.22 323.33 179.68 
M 321.24 189.37 320.82 189.03 
M 326.86 149.06 329.16 147.54 332.09 143.66 333.99 139.26 333.99 136.54 332.09 132.14 329.26 128.39 
M 325.93 174.72 328.41 172.97 331.58 168.47 333.63 163.38 333.63 160.22 331.58 155.13 328.41 150.63 325.93 148.88 
M 334.05 183.12 333.69 182.24 330.28 177.48 327.62 175.62 
M 333.31 135.27 335.11 133.89 336.55 131.68 
M 332.89 158.08 333.27 157.77 335.88 153.35 337.56 148.35 337.56 145.26 335.88 140.26 333.31 135.91 
M 339.86 180.04 340.77 177.19 340.77 173.72 338.97 168.12 336.18 163.17 334 161.24 
M 338.84 146.7 341.39 145.13 344.66 141.09 346.32 137.5 
M 336.65 133.03 338.08 132.6 
M 336.53 135.01 342 134.96 
M 336.66 137.29 342.81 138.41 
M 339.42 174.1 342.04 172.27 345.39 167.56 347.55 162.24 347.55 158.94 345.39 153.62 342.04 148.92 339.42 147.08 
M 337.28 158.23 343.23 156.6 
M 336.81 160.44 343.24 160.72 
M 337.01 163.55 343.87 164.51 
M 344.86 177.4 344.54 176.94 341.91 175.05 
M 344.98 158.76 347.33 157.01 350.32 152.52 352.26 147.44 352.26 144.3 350.63 140.03 
M 354.18 172.5 352.39 166.88 349.63 161.93 347.48 159.99 
M 345.74 171.14 351.24 170.11 
M 345 173.97 350.62 174.03 
M 345.14 177.14 345.28 177.18 
M 353.64 144.93 356.53 143.49 
M 353.86 170.98 356.57 169.54 360.05 165.85 360.79 164.45 
M 360.79 156.29 360.79 156.29 
M 132.17 115.86 132.17 115.86 
M 132.59 115.61 132.59 115.61 
M 139.7 201.7 141.98 200.59 145.89 196.77 146.77 195.27 
M 155.37 204.86 158.4 203.25 161.28 200.18 
M 156.11 101.77 156.11 101.77 
M 167.73 214.26 169.32 212.39 171.51 207.86 171.51 205.05 170.24 202.43 
M 171.12 206.86 173.99 205.14 175.15 203.73 
M 179.56 218.45 179.56 216.39 176.99 211.99 173.02 208.11 170.72 206.98 
M 179.46 218.41 180.75 217.5 183.74 213.26 185.67 208.47 185.67 206.63 
M 185.97 207.57 186.91 206.96 
M 193.23 223.03 194.61 220.35 194.61 217.51 192.24 212.92 188.56 208.87 185.69 207.29 
M 193.77 219.39 195.65 218.01 198.59 213.69 200 210.06 
M 190.98 209.55 196.89 210.66 
M 197.79 224.37 195.63 221.6 193.77 220.41 
M 206.35 226.06 206.96 225.36 209.24 220.71 209.24 217.83 206.96 213.18 204.84 210.72 
M 197.59 216.6 204.79 216.05 
M 198.17 218.99 204.73 218.91 
M 208.42 219.49 210.29 218.1 213.2 213.75 214.26 210.98 
M 213.5 226.22 213.2 225.53 210.28 221.65 208.42 220.41 
M 220.9 226.09 221.52 225.36 223.77 220.72 223.77 217.86 221.52 213.22 219.52 210.87 
M 222.97 219.56 224.92 218.1 227.83 213.75 228.91 210.93 
M 234.76 226.41 235.88 225.09 238.07 220.54 238.07 217.72 235.88 213.16 234.12 211.08 
M 237.31 219.58 239.56 217.91 242.45 213.64 243.61 210.62 
M 241.75 225.85 241.47 225.18 238.77 221.5 237.29 220.5 
M 249.09 225.04 249.76 224.26 251.91 219.82 251.91 217.07 249.76 212.63 247.8 210.33 
M 250.4 84.9 250.4 84.9 
M 254.67 224.17 254.4 223.55 251.73 219.94 251.14 219.54 
M 253.88 86.22 253.88 86.22 
M 266.24 218.66 268.54 217.07 271.49 212.98 273.39 208.36 273.39 206.18 
M 269.82 206.95 270.34 206.99 
M 263.99 209.39 269.83 210.25 
M 267.05 221.02 265.46 218.88 265.09 218.63 
M 279.47 98.48 279.47 98.48 
M 273.59 206.42 274.3 205.97 
M 281.61 99.49 281.61 99.49 
M 279.14 204.88 279.86 204.69 
M 279.17 209.87 284.48 210.97 
M 287.64 205.88 290.16 204.19 293.1 200.25 
M 300.84 207.98 300.98 207.56 300.98 204.53 299.31 199.64 298.58 198.42 
M 292.84 203.45 298.08 202.51 
M 292.35 206.01 298.2 205.76 
M 292.49 208.62 297.13 209.68 
M 305.99 112.93 305.99 112.93 
M 300.47 204.42 302.89 202.67 306 198.19 307.09 195.44 
M 313.48 117.71 313.48 117.71 
M 313.29 201.71 311.67 196.56 310.31 194.1 
M 317.07 199.62 319.18 196.62 321.29 191.36 321.29 189.35 
M 325.46 194.78 323.09 190.89 321.24 189.37 
M 336.55 131.68 336.55 131.68 
M 342 134.96 342 134.96 
M 347.15 180.68 344.86 177.4 
M 350.63 140.03 350.63 140.03 
M 354.13 176.11 354.18 172.5 
M 345.28 177.18 350.22 178.66 
M 356.53 143.49 356.53 143.49 
M 143.97 108.16 145.35 107.71 
M 154.53 102.27 146.27 70.05 147.05 69.82 157.23 101.2 
M 165.35 96.87 155.98 54.82 156.76 54.62 168.09 95.92 
M 176.28 91.7 167.88 45.99 168.66 45.83 179.03 90.76 
M 187.43 86.98 182.23 34.07 183.03 33.98 190.26 86.29 
M 199.04 83.52 200.48 31.41 201.29 31.42 201.94 83.23 
M 211 81.52 218.92 31.59 219.72 31.7 213.9 81.66 
M 223.09 81.09 234.23 34.23 235.01 34.4 225.99 81.37 
M 235.23 80.77 254.93 30 255.69 30.27 238.03 81.53 
M 247.09 83.38 274.28 41.55 274.97 41.98 249.71 84.65 
M 258.36 87.82 282.21 59.25 282.84 59.75 260.86 89.32 
M 269.25 93.08 289.86 70.47 290.47 70.99 271.68 94.68 
M 280.11 98.37 294.72 82.74 295.34 83.26 282.56 99.94 
M 287.87 102.02 288.98 102.96 
M 145.86 107.43 147.15 99.98 147.65 96.18 148.12 88.57 147.85 80.93 147.1 73.27 
M 148.07 72.99 150.91 70.44 153.34 67.63 155.15 64.42 155.82 62.68 156.91 59.02 
M 157.9 58.78 160.93 57.78 163.67 56.39 165.95 54.41 166.94 53.21 168.72 50.56 
M 169.71 50.36 173.27 48.7 176.53 46.68 179.3 44.09 180.52 42.6 182.75 39.36 
M 183.76 39.24 187.6 39.68 191.37 39.65 195.03 38.87 196.81 38.23 200.34 36.62 
M 201.35 36.63 205.08 37.66 208.81 38.2 212.54 37.99 214.4 37.63 218.13 36.58 
M 219.13 36.72 222.08 38.23 223.58 38.83 226.65 39.51 229.85 39.45 233.11 38.92 
M 234.11 39.13 238.51 39.24 240.68 39.14 244.91 38.43 248.99 36.99 252.96 35.07 
M 253.91 35.42 257.31 38.61 259.09 40.06 262.92 42.52 267.12 44.34 271.56 45.74 
M 272.43 46.27 273.13 50.23 273.63 52.14 275.1 55.74 277.24 59.03 279.82 62.11 
M 280.62 62.74 281.38 65.56 282.52 68.11 284.27 70.22 287.8 72.73 
M 288.57 73.39 288.85 77.58 289.72 80.08 291.27 82.29 293.26 84.3 
M 294.04 84.96 291.84 88.58 290.1 92.35 289.07 96.33 288.81 98.4 288.59 102.63 
M 149.52 71.73 152.2 69.08 153.34 67.63 155.15 64.42 156.4 60.87 
M 151.59 76.54 153.8 74.35 155.55 71.87 156.23 70.51 157.26 67.58 
M 153.66 81.34 156.14 78.68 157.31 76.59 158.13 74.28 
M 155.72 86.15 157.54 84.2 158.4 82.68 158.99 80.99 
M 159.43 58.3 162.35 57.15 163.67 56.39 165.95 54.41 167.85 51.91 
M 161.22 63.3 163.73 62.3 164.86 61.65 166.83 59.95 168.46 57.8 
M 163.02 68.29 165.11 67.46 166.06 66.91 167.71 65.49 169.07 63.69 
M 164.81 73.28 167.26 72.17 168.59 71.02 169.69 69.57 
M 166.6 78.27 168.46 77.43 169.47 76.56 170.3 75.46 
M 171.51 49.56 174.96 47.76 176.53 46.68 179.3 44.09 181.66 41.01 
M 173.16 55.09 176.12 53.55 177.47 52.62 179.86 50.4 181.88 47.74 
M 174.81 60.63 177.29 59.34 178.42 58.56 180.42 56.7 182.11 54.47 
M 176.46 66.17 179.36 64.5 180.97 63 182.34 61.21 
M 178.1 71.7 180.31 70.44 181.53 69.3 182.57 67.94 
M 185.69 39.5 189.5 39.75 191.37 39.65 195.03 38.87 198.58 37.46 
M 186.73 44.83 190.11 45.05 193.39 44.7 194.99 44.28 198.13 43.02 
M 187.78 50.15 190.71 50.35 193.56 50.04 194.95 49.68 197.67 48.59 
M 188.83 55.48 192.53 55.58 194.91 55.08 197.22 54.16 
M 189.88 60.81 191.92 60.94 193.9 60.73 196.76 59.72 
M 190.93 66.14 193.3 66.2 194.83 65.88 196.31 65.29 
M 203.22 37.18 206.95 38.01 208.81 38.2 212.54 37.99 216.27 37.14 
M 203.6 42.48 206.89 43.22 210.19 43.37 211.83 43.2 215.12 42.45 
M 203.98 47.78 206.84 48.42 208.27 48.56 211.12 48.41 213.98 47.75 
M 204.35 53.08 207.99 53.75 210.41 53.61 212.84 53.06 
M 204.73 58.39 207.72 58.93 209.71 58.82 211.69 58.37 
M 205.11 63.69 206.67 64.04 208.22 64.11 210.55 63.67 
M 220.6 37.51 223.58 38.83 226.65 39.51 228.24 39.57 231.48 39.22 
M 220.3 43.68 222.86 44.81 224.17 45.19 226.87 45.44 229.66 45.15 
M 220.01 49.84 222.15 50.8 224.36 51.28 225.5 51.32 227.83 51.07 
M 219.71 56.01 222.32 57.03 224.14 57.2 226.01 57 
M 219.41 62.18 220.72 62.76 222.07 63.06 224.19 62.93 
M 236.32 39.22 240.68 39.14 244.91 38.43 246.97 37.79 250.98 36.06 
M 235.51 45.12 239.27 45.05 242.9 44.43 244.67 43.88 248.12 42.4 
M 234.7 51.01 237.85 50.95 240.89 50.44 242.37 49.98 245.26 48.74 
M 233.9 56.91 236.43 56.86 238.88 56.45 242.4 55.07 
M 233.09 62.8 235.95 62.65 237.77 62.17 239.54 61.41 
M 255.6 37.04 259.09 40.06 262.92 42.52 264.98 43.5 269.32 45.07 
M 254.06 42.37 257.15 45.04 260.53 47.21 262.35 48.08 266.19 49.46 
M 252.53 47.7 255.21 50.01 256.64 51.02 259.72 52.65 263.05 53.85 
M 251 53.02 254.48 55.84 257.09 57.22 259.92 58.24 
M 249.46 58.35 251.33 59.96 253.37 61.27 256.79 62.63 
M 247.93 63.68 250.16 65.48 251.84 66.37 253.65 67.02 
M 272.75 48.26 273.63 52.14 274.28 53.98 276.09 57.42 278.5 60.58 
M 269.45 54.94 270.18 58.14 271.39 61.11 272.21 62.5 274.2 65.11 
M 266.16 61.62 266.73 64.14 267.68 66.48 269.9 69.63 
M 262.86 68.3 263.59 71.02 264.45 72.65 265.59 74.15 
M 280.97 64.17 281.88 66.88 283.32 69.22 284.27 70.22 286.55 71.94 
M 277.23 70.52 277.93 72.6 279.03 74.39 279.76 75.15 281.51 76.48 
M 273.49 76.86 273.97 78.31 274.74 79.56 276.46 81.01 
M 288.59 74.82 288.85 77.58 289.2 78.87 290.42 81.22 292.24 83.31 
M 284.11 82.47 284.28 84.26 284.84 85.88 286.48 87.98 
M 140.17 169.73 142.19 169.07 145.42 166.65 151.21 165.84 154.02 165.64 159.03 164.11 160.95 162.53 162.14 160.74 167.13 159.15 169.66 158.93 171.36 160.17 172.63 159.22 215.7 144.46 224.84 152.61 228.96 155.67 230.28 156.38 236.39 160.67 237.29 163.39 236.85 166.05 235.91 168.21 234.21 169.62 232.05 173.56 232.02 176.56 232.48 180.06 232.2 182.7 233.4 185.68 234.52 190.35 234.02 192.54 231.18 192.78 226.29 194.04 224.16 195 221.75 195.67 220.1 197.09 217.8 197.87 215.01 198.19 209.62 199.28 207.53 200.44 205.09 201.23 203.27 204.21 172.76 202.03 171.66 201.41 165.45 197.06 163.07 196.06 160.54 194.53 157.49 193.99 154.63 194.04 147.6 189.27 143.54 186.98 141.83 185.61 139.81 185.15 
M 141.64 170.34 145.56 168.62 148.11 167.97 150.99 167.77 157.57 165.5 159.91 164.31 164.84 162.6 168 162.8 173.6 161.93 177.23 159.47 181.37 157.17 183.25 156.33 
M 139.92 172.41 141.75 172.13 146.05 170.67 148.77 170.67 151.5 170.32 155.58 169.46 158.59 168.63 163.22 167.62 166.29 166.63 169.25 166.82 174.52 166.25 178.33 164.3 183.68 162.47 186.38 162.21 188.98 162.64 192.67 161.62 197.25 161.17 198.95 159.86 201.52 159.33 204.69 159.22 207.18 159.37 208.85 158.83 
M 139.75 174.12 143.97 173.49 148.44 173.04 151.38 173.17 156.42 172.27 161.66 172.03 166.55 171.07 172.14 170.91 174.07 170.28 175.41 169.03 180.09 168.83 185.59 167.88 193.46 168.26 199.14 167.34 201.29 167.59 
M 141.19 175.88 146.3 175.38 149.21 175.75 155 176.05 157.3 175.89 159.89 175.25 167.4 175.31 172.86 174.88 175.32 175.1 177.45 174.99 179.95 174.56 181.99 174.54 185.49 174.2 193.96 174.71 196.21 174.42 199.27 175.3 202.28 175.12 204.17 174.45 206.71 174.57 212.2 172.86 214.95 173.11 
M 139.57 177.59 146.07 177.71 155.1 178.82 157.6 178.98 162.87 178.67 165.49 178.73 167.46 179.87 177.61 180.3 180.38 180.69 182.68 180.56 184.37 180.84 188.73 180.18 
M 139.7 179.3 143.66 179.71 145.72 180.28 148.43 180.35 151.24 181.13 153.68 182.28 156.42 182.44 164.85 183.37 170.02 183.53 172.19 183.91 174.99 183.9 177.31 184.36 180.1 185.74 182.56 185.56 184.55 185.82 187.27 186.55 
M 139.84 181.13 141.75 181.38 145.89 182.51 151.07 184.25 153.41 185.34 155.87 186 159.06 186.06 162.18 187.16 164.55 187.56 166.83 188.2 169.93 187.87 172.59 187.85 176.31 189.64 
M 139.83 182.88 141.68 183.28 145.7 184.97 148.3 185.61 150.56 187.22 153.06 188.57 158.08 189.85 163.03 190.88 170.61 193.41 173.34 194.45 174.55 195.08 180.63 196.68 182.95 196.82 185.57 197.58 189.98 199.39 195.18 202.67 199.47 203.36 
M 200.52 231.6 202.87 239.1 202.14 239.44 197.9 232.83 
M 189.13 227.87 201.7 266.42 200.94 266.69 186.4 228.84 
M 177.93 223.56 186.69 261.98 185.91 262.18 175.13 224.28 
M 166.68 219.34 171.54 253.66 170.75 253.8 163.82 219.83 
M 155.77 214.89 155.4 222.73 154.6 222.8 152.88 215.14 
M 201.71 238.78 200.4 244.01 199.57 249.27 199.47 254.56 199.69 257.22 200.44 262.56 
M 199.49 262.9 196.79 260.87 193.93 259.29 190.83 258.41 189.19 258.22 185.81 258.14 
M 184.83 258.39 182.3 255.69 180.95 254.47 177.99 252.49 174.64 251.15 171.05 250.23 
M 170.05 250.4 167.73 243.61 166.42 240.28 163.34 233.87 159.61 227.8 155.44 221.95 
M 198.15 261.85 195.39 260 193.93 259.29 190.83 258.41 187.51 258.15 
M 195.35 255.6 193.07 254.07 191.87 253.49 189.31 252.76 186.57 252.55 
M 192.55 249.35 189.81 247.68 187.79 247.11 185.63 246.95 
M 189.75 243.1 187.74 241.88 186.27 241.47 184.7 241.34 
M 183.58 257.01 180.95 254.47 177.99 252.49 176.36 251.75 172.87 250.66 
M 181.36 250.84 179.19 248.75 178.01 247.86 175.4 246.5 172.52 245.6 
M 179.14 244.67 177.43 243.02 175.5 241.73 172.17 240.54 
M 176.92 238.5 174.99 236.78 173.49 236 171.83 235.49 
M 315.91 204.55 320.06 207.24 325.69 213.04 327.83 214.48 323.22 215.27 321.17 216.64 318.7 217.57 316.65 218.9 315.09 220.54 312.9 221.56 309.55 224.95 307.68 226.45 305.65 227.7 298.69 234.12 296.58 238.67 294.59 240.09 292.14 241.06 290.22 242.53 289.61 245.24 288.68 247.71 286.98 249.41 285.51 251.33 281.42 254.06 279.29 255.27 277.96 257.34 276.47 259.26 275.23 261.44 273.82 263.41 269.9 266.22 268.38 268.08 264.63 271.17 263.24 273.19 262.19 276.07 260.24 280 260.01 278.15 258.99 276.38 256.96 274.91 255.42 273.22 254.66 270.66 254.08 268.03 251.21 264.38 249.77 261.41 248.5 258.37 247.05 255.56 245.65 250.32 244.52 248.03 243.11 246.89 238.85 239.83 235.12 234.07 
M 312.46 206.63 315.64 209.39 318.19 211.27 320.95 213.82 
M 309.02 208.71 314.35 213.41 
M 305.52 210.71 308.73 214.69 311.2 216.63 314.65 218.2 
M 301.95 212.57 305.16 216.08 306.8 218.42 
M 298.38 214.44 301.63 217.36 304.09 219.98 306.2 222.69 
M 294.77 216.21 300.93 221.51 305.08 225.5 
M 291.15 217.97 294.71 221.67 296.73 224.26 299.14 225.44 301.16 226.94 
M 287.52 219.73 290.9 223.43 295.73 228.14 
M 283.89 221.48 287.65 224.56 289.7 226.92 291.96 229.11 
M 280.27 223.23 286.53 228.67 288.72 231.11 290.93 232.39 
M 276.48 224.61 279.67 227.83 284.49 232.12 286.5 234.37 
M 272.69 225.96 275.18 228.7 278.09 231.3 280.79 233.19 284.54 238.15 286.56 241.28 288.85 242.57 
M 268.87 227.22 278.32 237.07 
M 265.02 228.42 270.33 234.1 272.73 236.23 275.57 240.43 276.27 242.27 279.42 246.29 282.29 247.84 
M 261.17 229.59 264.06 232.32 266.31 234.7 269.6 239.82 270.82 241.44 273.16 243.3 274.32 245.75 274.91 248.26 
M 257.29 230.67 259.77 233.65 264.01 238.32 265.62 239.8 266.51 242.23 267.89 245.22 271.46 249.71 272.75 251.84 274.2 253.35 
M 253.42 231.76 257.67 236.85 262.05 240.63 263.24 243.41 265.93 251.29 267.04 253.07 
M 249.44 232.39 251.62 235.16 254.76 240.2 258.32 244.86 260.13 247.77 260.68 250.49 262.28 252.75 263.9 254.42 265.07 256.2 266.29 259.1 
M 245.46 232.98 247.64 235.92 249.15 238.76 250.33 241.45 253.43 245.76 254.65 248.38 256.36 251.24 
M 241.46 233.44 243.37 236.27 246.47 241.71 247.78 244.15 248.6 246.52 250.15 248.45 250.98 250.72 252.84 253.8 254.34 256.83 255.51 258.32 256.98 260.97 258.77 263.51 259.32 265.64 259.52 268.69 
M 237.45 233.84 245.51 246.7 247.37 250.56 249.67 256.56 250.88 259.09 253.68 264.35 255.28 266.36 
M 360.79 145.99 363.11 145.26 369.91 141.16 371.95 139.47 374.07 138.66 378.82 136.25 380.69 134.97 382.91 134 385.08 132.79 386.35 131.31 390.26 128.91 391.9 127.26 394.13 125.51 398.85 122.82 403.95 120.51 405.84 119.86 407.7 118.36 408.89 117.76 412.26 116.79 416.68 113.36 420.09 112.21 422.84 109.89 424.67 107.73 426.63 107.27 427.56 106.1 429.24 105.27 431.77 103.43 433.44 102.63 436.11 100.15 441.49 97.07 443.67 95.13 460.81 97.36 467.04 101.1 470.24 102.63 472.4 105.06 472.82 107.54 472.07 108.84 471.7 110.52 472.31 113.19 472.76 116.3 471.12 117.98 470.07 120.27 468.29 125.15 467.21 127.4 465.84 129.36 462.82 133.01 461.13 134.66 459.69 136.56 457.89 138.09 456.65 140.2 454.84 145.06 451.83 145.44 448.33 148.71 446.86 150.62 444.72 151.86 443.05 153.58 443.19 156.39 442.96 158.78 442.8 163.87 445.32 169.34 446.74 173.36 449.43 177.61 450.21 179.17 454.99 186.18 465.4 195.75 466.36 197.81 467.87 202.31 468.94 204.88 469.62 207.04 467.57 213.98 466.76 216.17 466.16 218.58 465.7 221.38 463.36 222.42 460.62 223.06 458.84 224.67 455.44 227.15 443.84 230.44 442.67 229.44 441.58 226.82 439.17 224.98 437.01 224.29 434.48 222.81 431.92 222.53 429.69 221.43 428.04 220.32 425.75 220.2 422.28 217.11 421.25 214.74 418.97 213.15 416.31 211.56 414 209.85 411.04 208.83 409.03 206.58 403.05 204.02 400.53 202.66 397.99 200.72 395.96 199.68 394.3 197.89 392.52 195.53 390.63 193.97 388.68 192.81 386.86 191.12 384.9 189.92 383.14 188.25 381.35 186.11 378.71 184.67 374.2 182.86 372.13 181.74 360.79 173.12 
M 365.65 146.25 374.57 141.52 377.01 140.71 379.61 139.37 383.9 137.88 385.9 137 390.16 134.67 392.64 132.69 394.67 131.56 396.34 129.98 398.14 128.97 400.12 128.48 403.09 126.93 405.79 126.05 408.07 125.52 409.42 124.23 412.52 121.83 414.52 120.54 417.79 119.41 
M 368.34 147.73 375.22 144.29 380.26 142.44 386.63 141.04 389.15 140.16 397.33 136.01 400.14 133.9 401.63 133.25 404.06 132.81 406.79 131.17 409.49 130.92 413.17 128.74 415.38 128.37 417.88 127.72 420 126.26 422.23 125.23 425.6 124.83 429.18 122.12 431.45 120.62 435.28 119.41 437.45 118.92 440.35 118.58 
M 366.21 151.19 371.34 149.69 376.24 147.6 378.63 146.93 380.85 145.99 388.42 144.42 392.21 142.65 398.01 141.94 400.17 140.72 402.89 138.37 411.95 135.94 414.03 136.19 416.16 134.7 417.7 134.3 420.48 133.87 428.03 133.37 430.58 132.58 
M 363.72 153.9 366.44 153.69 369.26 153.22 374.44 152.02 376.72 151.32 379.21 151.31 381.77 150.74 386.17 148.89 388.13 148.8 390.86 147.99 393.56 147.84 399.31 146.6 401.12 145.96 404.79 144.07 407.45 143.81 410.77 144.18 413.17 143.73 
M 369.19 155.68 372.03 155.79 374.6 155.28 382.08 154.64 385.78 153.58 388.02 153.21 391.32 153.13 394.64 153.56 397.34 152.71 399.87 152.17 401.48 150.84 402.86 150.51 405.29 150.4 
M 360.79 157.64 369.54 158.26 372.13 158.62 374.91 158.6 381.66 158.07 383.62 158.62 386.17 158.24 388.95 157.54 391.93 157.99 394.87 157.89 397.77 157.33 400.19 157.3 403.78 156.15 409.25 156.41 411.1 157.18 413.21 156.41 416.49 156.01 419.22 156.19 421.76 156.01 
M 367.04 160.44 372.58 161.1 381.09 162.39 388.6 162.05 391.79 162.83 396.1 162.33 398.34 162.52 400.91 162.28 403.27 161.67 
M 366.88 162.89 369.45 163.56 371.93 163.84 376.61 164.82 379.16 164.72 381.97 165.18 389.19 165.5 394.46 166.59 397.35 167.55 400.18 167.5 401.78 167.05 405.28 167.85 407.83 168.2 412.81 170.27 416.24 169.83 422.99 170.67 424.93 170.64 426.99 171.04 
M 363.89 164.47 371.26 166.7 376.7 167.75 379.79 167.81 382.5 168.28 386.65 169.66 388.99 169.46 391.15 169.73 393.91 170.82 399.14 172.33 402.5 173.1 404.55 173.02 406.93 174.5 409.77 175.46 412.82 176.09 417.94 176.17 422.88 176.68 427.75 177.76 431.05 178.74 432.22 178.6 434.71 179.2 438.41 179.71 441.09 179.57 443.47 181.06 445.47 181.97 447.96 182.61 
M 368.57 168.2 373.76 170.13 376.41 170.81 381.68 171.78 385.98 173.72 388.67 174.09 391.32 175.07 398.7 176.7 400.25 177.38 403.74 179.74 406.76 180.1 409.39 180.65 411.1 181.78 416.52 183.22 424.5 184.34 427.18 186.52 432.9 187.57 436.61 187.96 439.32 188.15 441.55 187.94 444.52 188.62 447.66 189.57 
M 360.79 167.35 363.42 168.7 366.01 169.63 368.33 170.74 370.9 172.18 381.26 174.76 383.63 175.67 386.31 177.24 388.62 178.84 390.97 179.59 394.69 181.1 396.73 182.54 399.29 182.86 401.76 183.88 406.88 186.14 409.03 187.33 411.62 186.71 414.78 186.95 416.82 188.26 420.18 189.03 422.26 189.9 424.12 191.6 426.05 194.04 428.72 194.86 431.22 195.9 434.34 195.58 436.93 195.8 443.45 197.42 445.13 198.75 448 199.24 451.26 200.89 453.38 203.09 456.03 204.48 
M 365.83 172.05 370.88 174.54 375.39 176.43 377.88 177.37 380.45 178.1 382.63 179.2 390.17 183.86 392.12 184.74 394.14 186.05 395.57 187.64 400.55 189.46 405.4 192.36 407.14 192.89 411.61 195.01 415.59 197.28 420.54 198.48 422.76 200.04 424.65 200.96 
M 365.76 174.42 368.06 175.83 370.86 177.07 375.27 179.88 377.54 180.63 381.95 182.87 384.19 184.91 386.66 186.8 388.71 188.12 394.26 190.82 400.84 195.42 408.01 199.33 410.18 200.12 412.05 201.5 413.74 203.14 416.17 204.52 418.68 206.41 425.38 209.24 426.91 210.25 428.24 210.45 430.6 211.68 433.01 213.82 435.01 215.22 437.87 216.25 
M 341.03 184.24 338.27 185.98 337.38 187.31 336.59 190.49 335.3 191.45 331.97 191.18 330.51 191.68 329.49 192.9 328.28 193.94 327.46 195.37 324.68 199.14 324.89 198.84 
M 64.44 150.59 64.85 149.52 65.93 147.61 67.45 145.67 69.52 144.05 79.95 137.72 83.94 135.13 88.33 132.64 93.17 130.27 108.83 124.48 118.34 121.41 127.37 118.86 130.64 122.99 132.24 127.37 136.07 136.08 137.69 140.46 138.75 144.9 139.59 149.36 140.3 153.84 140.19 158.41 140.4 162.94 140.38 167.49 139.5 176.69 139.84 181.2 139.9 190.3 139.5 194.89 138.5 199.55 136.41 204.25 125.9 203.5 118.22 202.15 111.28 200.42 104.84 197.98 98.94 195.12 88.52 189.24 83.71 185.61 79.62 182.09 76.09 178.45 73.31 174.54 
M 119.88 143.24 120.3 147.06 119.1 154.31 118.2 157.61 116.05 163.73 116.33 169.04 117.61 174.8 118.13 178.29 118 182.32 111.03 182.38 105.91 182.18 101 181.75 96.09 180.61 91.33 178.91 86.8 176.8 82.51 174.35 
M 72.09 173.71 68.63 167.63 66.95 163.95 62.4 154.9 61.76 153 62.57 151.12 64.53 150.56 66.32 151.69 68.78 159.42 70.78 167.16 73.42 174.5 
M 71.52 174.6 55.36 169.43 47.99 166.69 47.17 164.95 47.88 163.06 49.78 162.38 51.63 163.1 64.2 169.65 67.64 171.59 72.26 173.79 
M 72.91 174.12 73.2 174.27 
M 89.42 151.94 87.76 149.6 86.94 146.85 87.05 143.98 88.1 141.31 89.95 139.12 92.42 137.65 95.23 137.06 98.08 137.41 100.66 138.67 102.69 140.7 103.95 143.28 104.31 146.13 103.72 148.94 102.25 151.41 100.06 153.27 97.38 154.31 94.51 154.43 91.76 153.61 89.42 151.94 
M 101.27 141.72 102.28 143.78 102.57 146.06 102.09 148.31 100.92 150.28 99.17 151.77 97.02 152.6 94.73 152.7 92.53 152.04 90.66 150.71 
M 92.52 147.64 91.85 146.7 91.53 145.6 91.57 144.45 91.99 143.38 92.73 142.51 93.72 141.92 94.84 141.68 95.98 141.82 97.02 142.33 97.83 143.14 98.33 144.17 98.48 145.31 98.24 146.44 97.65 147.42 96.78 148.17 95.7 148.58 94.56 148.63 93.46 148.3 92.52 147.64 
M 92.19 147.12 93.16 148.09 
M 91.67 144.43 95.79 148.55 
M 92.95 143.53 97.21 147.8 
M 95.19 143.6 98.16 146.57 
M 96.85 143.08 98.39 144.62 
M 73.59 174.94 78.37 179.72 
M 70.84 167.36 71.67 168.19 
M 69.09 160.78 69.37 161.06 
M 67.03 153.89 67.74 154.59 
M 65.81 147.83 69.86 151.88 
M 68.03 145.22 70.64 147.83 
M 70.89 143.25 75 147.35 
M 73.91 141.44 76.45 143.97 
M 76.9 139.6 81.12 143.81 
M 79.9 137.76 84.39 142.25 
M 82.83 135.86 86.66 139.69 
M 85.85 134.05 88.3 136.5 
M 88.96 132.33 93.61 136.97 
M 92.21 130.74 95.63 134.16 
M 95.63 129.33 98.52 132.22 
M 99.13 128 103.75 132.62 
M 102.67 126.71 106.88 130.92 
M 106.22 125.42 108.95 128.16 
M 109.8 124.17 113.47 127.85 
M 113.44 122.98 116.04 125.59 
M 117.1 121.81 119.86 124.57 
M 120.82 120.7 123.41 123.29 
M 124.63 119.68 128.34 123.39 
M 88.77 138.09 89.86 138.33 90.5 138.79 
M 95.02 188.16 96.68 186.45 97.99 185.81 99.62 185.42 100.91 185.67 
M 127.21 179.94 127.91 179.4 129.96 178.71 131.04 178.45 132.11 178.54 
M 82.05 171.75 80.32 169.11 80.64 168.55 81.2 168.1 82.5 167.69 
M 118.45 159.38 118.67 157.93 119.19 157.1 120.75 156.19 122.27 156.08 
M 84.37 185.65 80.17 181.58 78.04 178.16 76.52 176.14 
M 131.67 203.34 130.96 201.74 129.43 200.36 127.17 198.46 124.9 197.24 123.18 195.65 122.12 195.12 
M 107.16 171.79 106.17 173.07 105.8 173.93 105.52 176.73 105.36 177.49 104.95 178.3 104.37 178.8 103.11 179.34 
M 126.96 153.3 127.18 154.32 127.74 155.35 131.1 156.96 
M 127.95 141.23 128.87 142.47 131.46 144.6 131.94 145.3 132.4 146.62 
M 99.08 133.61 100.39 133.37 102.01 133.57 102.91 133.89 105.88 135.46 107.6 136.77 107.71 137.74 107.34 138.87 
M 109.7 151.81 109.72 153.25 109.34 155.1 108.18 156.33 107.76 156.47 
M 71.2 168.41 75.7 164.35 78.15 163.46 
M 125.7 164.08 126.59 163.1 127.84 162.49 130.5 161.44 132.19 161.22 
M 120.64 120.76 120.92 122.2 120.85 124 120.42 124.29 119.41 124.36 
M 114.72 156.38 114.77 157.92 115.15 158.15 116.06 158.05 
M 128.6 150.89 127.75 152.58 127.73 153.86 128.1 154.9 
M 117.25 149.62 119.02 150.25 120.68 150.13 121.73 150.27 122.19 150.12 
M 116.16 152.76 117.59 153.65 120.99 154.09 122.96 154.53 
M 74.31 175.95 74.73 175.12 75.25 172.79 75.75 171.72 76.65 170.66 77.47 170.23 
M 107.99 184.25 108.61 183.62 109.56 181.75 110.06 180.36 109.93 179.84 
M 110.67 171.51 110.34 171.07 109.88 170.93 108.24 171.28 
M 102.59 157.12 102.61 153.18 102.72 152.78 102.94 152.61 
M 120.86 127.48 120.27 126.51 119.78 126.05 118.24 124.98 117.43 124.17 116.5 123.87 
M 117.83 125.39 117.25 124.54 116.73 124.07 115.28 123.58 113.87 122.84 
M 111.65 199.63 112.24 199.48 114.77 199.63 115.53 199.49 115.93 198.57 115.63 197.3 
M 134.46 178.61 132.2 179.05 131.91 178.88 132.04 178.64 
M 65.5 149.79 64.67 150.65 
M 118.14 126.31 116.38 124.1 113.87 122.84 
M 72.23 171.09 73.4 168.37 74.91 166.87 75.91 165.4 76.41 164.89 79.41 163.55 
M 117.31 137.99 114.84 138.22 113.85 138.55 112.97 139.19 112.17 140.07 111.07 140.65 109.61 140.77 108.85 140.62 
M 117.7 197.77 116.2 196.68 114.31 195.81 
M 121.98 181.9 120.7 182.96 119.32 183.37 119.13 183.26 119.1 183.02 
M 100.94 194.59 99.76 194.23 99.39 193.88 99.25 193.42 99.68 190.52 100.29 188.41 
M 124.74 178.35 124.4 177.78 123.64 177.13 119.62 175.96 118.26 175.28 117.64 174.74 
M 88.37 136.14 88.3 136.63 88.43 136.91 89.78 138.03 
M 111.63 136.17 110.22 136.76 108.09 138.73 107.48 139.67 107.24 140.94 
M 94.75 192.83 95.03 191.71 96.93 187.86 
M 79.42 147.64 77.9 147.52 76.33 146.71 75.22 146.34 72.71 146.03 
M 104.45 155.16 104.73 154.34 105.24 153.87 105.76 153.83 106.56 154.08 
M 84.99 173.66 84.99 171.79 84.45 170.66 83.85 169.96 
M 130.55 138.6 130.67 139.44 132.02 140.69 132.28 141.19 132.25 143.87 
M 121.93 184.55 120.42 185.62 120.29 185.96 120.43 186.39 
M 84.61 145.81 86.08 145.91 86.95 146.5 
M 87.32 148.14 87.3 148.2 
M 77.04 149.62 75.71 148.98 74.02 147.53 71.33 146.6 
M 90.6 172.06 90.73 172.4 91.23 172.76 92.74 172.83 94.56 172.11 95 171.72 95.1 171.37 
M 107.9 182.37 108.34 181.42 108.36 180.81 108.07 180.67 107.1 180.79 
M 137.9 141.34 134.36 140.36 133.46 140.29 
M 128.58 122.51 129.69 121.79 
M 112.76 155.49 111.79 156.57 111.65 157.24 113.37 158.85 
M 117.64 173.43 115.72 172.46 115.24 172.05 114.58 170.99 114.23 170.74 113.46 170.57 112.42 170.98 111.87 171.03 
M 97.79 178.35 98.69 175.86 99 175.42 99.7 174.97 100.45 174.93 100.86 175.14 101.22 175.51 102.3 177.36 
M 125.51 178.33 125.8 177.62 127.03 177.59 
M 114.79 160.97 114.12 162.13 113.76 163.23 112.95 164.83 110.29 167.49 109.27 169.42 
M 90.21 165.3 90.01 166.75 88.44 169.21 88.08 171.08 87.66 172.42 87.33 172.94 
M 133.35 150.23 132.6 151.54 131.37 152.9 131.01 153.5 130.88 154.05 131.22 155.47 
M 139.67 170.61 137.35 170.13 133.45 169.84 132.31 169.62 
M 124.63 142.48 123.98 143.16 121.39 145.2 119.46 146.2 117.97 146.47 115.96 147.81 
M 99.59 169.74 99.26 170.81 98.72 171.26 97.48 170.67 96.53 169.92 
M 121.84 190.32 120.48 190.75 119.9 190.71 
M 130.33 142.98 131.49 143.92 131.8 144.34 132.16 145.11 132.51 146.78 
M 138.96 150 136.9 149.88 135.71 150.11 134.65 150.54 133.86 151.08 132.47 152.88 
M 98.52 166.83 98.62 167.21 99.68 167.92 100.16 168.64 100.25 169.4 99.94 170.54 
M 119.35 151.69 121.68 151.11 123.58 150.36 123.91 150.46 124.34 151 
M 67.15 154.15 67.11 154.12 
M 69.55 150.69 69.28 149.52 68.87 149.14 67.76 149.17 65.98 149.66 
M 74.12 175.33 72.68 176.86 71.95 178.73 71.88 179.72 72.06 180.71 73.04 182.57 74.7 183.99 77.86 185.48 80.12 186.04 81.29 186.12 83.67 185.93 88.41 185.04 82.54 186.52 80.07 186.73 78.82 186.61 76.4 186.03 74.07 185.09 72.95 184.43 71.93 183.56 71.08 182.5 70.44 181.29 70.05 179.93 70.01 178.5 70.26 177.12 70.77 175.8 71.53 174.6 72.41 173.63 
M 73.3 174.55 73.58 175.22 
M 70.37 170.71 70.3 170.91 70.46 170.86 
M 67.98 166.3 67.34 167.34 68.25 166.86 
M 65.96 161.97 65.14 162.53 64.38 163.77 65.32 162.97 66.36 162.76 
M 63.85 157.78 62.46 158.62 61.41 160.21 62.65 159.06 64.29 158.64 
M 61.92 153.5 59.78 154.71 58.45 156.64 59.97 155.15 62.26 154.49 
M 73.14 174.43 74.01 174.79 
M 69.05 172.29 69.93 171.9 69.98 172.73 
M 65.31 170.26 65.8 169.71 66.59 169.32 66.25 169.89 66.21 170.76 
M 61.53 168.28 62.18 167.37 63.25 166.74 62.63 167.55 62.44 168.73 
M 57.71 166.36 58.56 165.03 59.91 164.16 59.01 165.21 58.65 166.86 
M 53.98 164.33 54.94 162.69 56.57 161.58 55.38 162.87 54.89 164.82 
M 50.12 162.51 51.32 160.35 53.23 159 51.76 160.53 51.11 162.9 
M 54.73 169.18 60.48 173.69 64.08 176.2 67.77 178.54 70.05 179.78 
M 72.13 180.87 75.51 182.42 83.71 185.61 
M 127.94 118.44 134.59 125.09 
M 131.94 116 139.28 123.34 
M 135.94 113.56 141.09 118.71 
M 139.92 111.09 146.43 117.6 
M 143.89 108.62 149.86 114.59 
M 147.96 106.25 153.31 111.59 
M 152.09 103.93 160.57 112.41 
M 156.28 101.68 165.7 111.1 
M 160.55 99.51 165.55 104.51 
M 164.87 97.39 173.18 105.7 
M 169.29 95.37 175.94 102.02 
M 173.69 93.32 180.6 100.23 
M 178.04 91.23 184 97.19 
M 182.48 89.23 188.29 95.04 
M 187.15 87.46 192.14 92.45 
M 191.95 85.81 199.02 92.89 
M 196.99 84.41 202.34 89.76 
M 202.19 83.17 211 91.98 
M 207.52 82.05 214.33 88.86 
M 213.58 81.67 221.38 89.47 
M 219.82 81.47 227.3 88.95 
M 226.16 81.37 231.52 86.73 
M 232.35 81.11 238.05 86.81 
M 239.46 81.78 246.36 88.68 
M 248.24 84.12 257.84 93.72 
M 259.1 88.54 264.13 93.56 
M 271.69 94.68 276.62 99.62 
M 284.12 100.67 290.35 106.9 
M 297.48 107.59 302.89 113 
M 315.03 118.7 324.41 128.07 
M 331.38 128.61 336.24 133.47 
M 347.28 138.07 356.94 147.72 
M 146.47 106.33 146.77 106.93 
M 154.94 101.53 155.29 102.22 
M 147.94 73.03 150.46 78.07 
M 155.5 88.15 156.94 91.03 
M 157.66 92.48 158.38 93.92 
M 150.83 71.57 152.27 74.45 
M 155.87 81.65 160.92 91.74 
M 161.64 93.18 162.36 94.62 
M 157.5 77.66 161.82 86.3 
M 162.54 87.74 164.7 92.06 
M 160.95 77.31 163.83 83.07 
M 164.55 84.51 168.15 91.71 
M 166.1 80.37 170.43 89.01 
M 176.62 86.9 177.34 88.34 
M 178.18 90.03 178.67 91 
M 179.39 85.19 181.68 89.77 
M 168.79 56.74 173.11 65.39 
M 180.31 79.79 181.75 82.67 
M 182.47 84.11 184.68 88.53 
M 170.34 52.61 177.55 67.02 
M 184.03 79.98 187.69 87.29 
M 173.34 51.36 180.54 65.76 
M 187.75 80.17 188.47 81.61 
M 189.19 83.05 190.8 86.26 
M 176.91 51.25 182.68 62.78 
M 181.7 53.58 182.42 55.02 
M 183.14 56.46 184.58 59.34 
M 191.07 72.31 192.51 75.19 
M 193.23 76.63 194.67 79.51 
M 193.42 69.77 199.93 82.8 
M 189.79 55.27 192.68 61.03 
M 194.84 65.35 202.04 79.76 
M 191.64 51.72 197.41 63.24 
M 198.13 64.69 199.57 67.57 
M 200.29 69.01 203.89 76.21 
M 193.24 47.66 199.72 60.63 
M 204.04 69.27 205.48 72.15 
M 206.2 73.59 206.93 75.03 
M 209.93 81.05 210.42 82.03 
M 196.71 47.35 203.91 61.76 
M 213.39 80.72 213.87 81.68 
M 199.89 46.47 200.61 47.91 
M 201.33 49.35 202.77 52.23 
M 204.21 55.12 205.65 58 
M 209.26 65.2 209.98 66.64 
M 210.7 68.08 213.58 73.84 
M 205.05 49.54 205.77 50.98 
M 212.25 63.95 216.57 72.59 
M 214.97 62.14 219.29 70.78 
M 220.53 66.01 221.25 67.45 
M 220.69 59.08 221.41 60.52 
M 221.95 54.34 225.55 61.54 
M 226.27 62.99 226.99 64.43 
M 223.72 50.64 225.16 53.52 
M 225.88 54.96 229.48 62.17 
M 227.68 51.31 234.16 64.28 
M 229.98 48.66 235.74 60.18 
M 247.27 83.25 247.64 83.98 
M 233.71 48.87 235.15 51.76 
M 235.87 53.2 237.31 56.08 
M 238.75 58.96 239.47 60.4 
M 241.63 64.72 243.79 69.04 
M 244.51 70.48 246.67 74.81 
M 249.55 80.57 252.12 85.7 
M 244.3 62.82 245.02 64.26 
M 245.74 65.7 250.79 75.78 
M 252.23 78.66 256.68 87.56 
M 248.01 62.98 255.93 78.83 
M 256.65 80.27 261.32 89.61 
M 249.46 58.63 250.18 60.07 
M 250.9 61.52 255.94 71.6 
M 256.66 73.04 257.38 74.48 
M 258.1 75.92 258.82 77.36 
M 259.54 78.8 262.42 84.56 
M 263.15 86.01 263.87 87.45 
M 253.61 59.69 254.33 61.13 
M 255.05 62.57 255.77 64.01 
M 256.49 65.45 257.21 66.89 
M 262.98 78.42 263.7 79.86 
M 265.14 82.74 265.86 84.18 
M 268.74 89.94 270.91 94.29 
M 271.23 87.67 275.45 96.11 
M 264.9 67.76 267.78 73.53 
M 273.54 85.05 278.58 95.13 
M 265.66 62.04 266.38 63.48 
M 267.1 64.92 271.42 73.56 
M 278.62 87.97 279.34 89.41 
M 269.63 62.73 274.67 72.81 
M 271.5 59.23 275.82 67.87 
M 276.54 69.32 277.26 70.76 
M 289.04 87.06 290.82 90.61 
M 292.41 86.56 292.69 87.12 
"/></svg>