<svg xmlns="http://www.w3.org/2000/svg" width="520" height="320"><rect x="0" y="0" width="520" height="320" fill="floralwhite"/><rect x="10" y="10" width="500" height="300" stroke="black" stroke-width="1" fill="none"/><path stroke="black" stroke-width="1" fill="none" stroke-linecap="round" stroke-linejoin="round" d="
M 109.35 122.59 128.6 113.38 138.22 109.2 147.83 105.39 167.06 98.4 176.67 95.58 186.29 93.5 195.9 91.94 224.75 91.18 234.36 92.53 243.98 95.22 253.59 98.53 272.82 105.92 282.43 109.43 292.05 113.49 320.89 127.56 350.61 141.21 
M 350.61 177.41 330.51 188.73 320.89 193.92 311.28 198.67 301.66 203.17 292.05 207.07 272.82 214.29 263.21 216.95 253.59 219.27 243.98 221.36 234.36 222.46 224.75 223.2 215.13 222.89 205.52 222.9 195.9 223.14 186.29 221.66 176.67 219.23 167.06 216.41 157.44 213.28 147.83 210.57 138.22 207.36 128.6 203.26 119.02 198.5 
M 110.29 123.59 109.85 122.98 
M 113.27 127.04 115.21 119.81 
M 123.96 188.15 126.75 183.61 
M 127.13 156.09 123.2 149.68 122.52 149.13 
M 135 156.53 136.06 151.57 136.06 144.63 133.66 133.43 129.95 123.53 127.05 119.67 
M 124.28 142.73 132.14 139.37 
M 124.16 148.03 131.49 147.83 
M 125.17 153.81 131.01 156.3 
M 142.72 193.65 142.72 189.42 140.85 184.61 
M 129.28 188.41 137.54 186.26 
M 135.35 191.78 137.62 191.7 
M 134.23 135.95 136.35 132.77 140.11 122.92 140.11 116.82 137.35 109.58 
M 127.83 113.75 132.99 112.52 
M 121.62 119.93 133.02 120.13 
M 121.37 124.66 124.11 125.19 
M 130.6 126.44 133.17 126.93 
M 141.71 190.56 143.17 189.35 147.57 182.02 
M 147.34 157.21 143.17 150.27 139.48 147.19 
M 144.63 194.08 143.56 192.9 141.71 191.89 
M 138.76 113.95 142.36 109.67 143.6 107.07 
M 154.54 157.61 156.3 151.01 156.3 145.21 153.81 135.85 149.95 127.58 146.93 124.35 
M 143.88 143.8 151.53 140.82 
M 144.12 148.18 151.98 147.83 
M 144.25 152.54 151.79 155.07 
M 159.99 197.15 161.04 193.79 161.04 188.92 158.58 181.06 157.84 179.73 
M 148.82 187.12 156.88 185.1 
M 148.8 190.93 156.41 191.67 
M 155.41 141.65 160.19 135.45 163.86 127.11 163.86 121.94 160.19 113.6 154.51 106.24 151.3 104.16 
M 145.36 120.4 157.13 117.77 
M 146.13 124.52 156.96 124.59 
M 150.44 129.63 157.13 131.29 
M 160.16 189.63 162.45 187.8 167.15 180.3 168.52 176.44 
M 167.24 158.32 162.45 150.57 158.78 147.64 
M 169.22 199.15 164.94 193.71 161.02 191.22 
M 162.06 116.76 164.67 113.38 167.82 106.21 167.82 101.78 166.44 98.64 
M 152.27 103.97 162.43 103.81 
M 155.34 108.19 162.03 109.28 
M 173.03 158.64 175.84 149.72 175.84 144.38 173.19 135.75 169.06 128.13 165.84 125.15 
M 162.36 142.48 170.97 140.25 
M 162.81 147.31 171.34 147.47 
M 162.55 151.43 170.79 153.28 
M 177.44 200.82 179.92 192.72 179.92 187.7 177.44 179.59 174.47 174.06 
M 167.3 185.71 175.04 183.74 
M 167.75 189.79 175.25 190.1 
M 167.83 194.36 175.41 196.17 
M 166.69 105.74 170.9 104.3 177.5 99.78 181.76 94.67 181.76 94.48 
M 172.92 96.68 174.22 96.75 
M 174.89 145.19 176.88 144.02 182.59 137.28 186.26 129.65 186.26 124.92 182.59 117.29 176.88 110.55 172.43 107.92 
M 168.21 123.61 179.5 121.82 
M 168.45 127.19 179.42 126.96 
M 170.62 131.87 179.67 133.44 
M 179.03 189.86 182.63 187.24 187.61 180.01 190.82 171.82 190.82 166.83 
M 187.97 159.47 187.61 158.56 182.63 151.33 178.74 148.5 
M 184.37 169.62 185.23 169.63 
M 175.18 173.52 184.67 175.38 
M 190.88 202.92 189.65 199.97 184.83 193.38 181.06 190.8 
M 184.95 121.7 189.44 116.91 192.96 110.33 192.96 106.26 189.44 99.67 184.09 93.98 
M 175.55 104.98 186.3 103.13 
M 175.31 108.62 186.92 108.58 
M 177.28 111.83 186.81 113.01 
M 189.67 169.29 191.74 167.66 192.26 166.84 
M 196.47 159.95 199.21 152.32 199.21 147.27 196.28 139.12 191.74 131.93 188.19 129.12 
M 184.8 146.04 193.84 143.37 
M 184.87 150.06 194.07 149.54 
M 185 153.94 193.93 155.99 
M 195.82 203.45 197.63 200.38 200.27 192.51 200.27 187.64 197.63 179.77 193.54 172.82 190.34 170.1 
M 187.07 186.25 195.71 184.36 
M 187.61 190.27 195.62 190.02 
M 187.1 194.44 195.18 196.24 
M 193.39 113.25 198.65 111.68 205.38 107.66 209.72 103.11 209.72 100.29 205.38 95.73 198.86 91.83 
M 188.31 99.1 202 98.15 
M 191.12 102.05 201.57 101.97 
M 191.7 104.22 201.7 105.27 
M 198.16 149.28 201.53 147.54 207.41 141.45 211.2 134.55 211.2 130.28 207.41 123.38 201.53 117.29 196.93 114.91 
M 192.8 128.83 204.48 127.36 
M 192.4 132.53 203.91 132.16 
M 194.09 136.46 204.62 138.02 
M 200.33 190.7 204.31 188.05 209.42 181.26 212.71 173.56 212.71 168.8 209.42 161.1 204.31 154.31 200.33 151.66 
M 196.43 167.03 206.36 165.6 
M 196.9 170.75 206.68 171.3 
M 196.39 174.81 206.51 176.64 
M 211.09 203.19 210 200.63 205.16 194.16 201.37 191.63 
M 208.17 103.42 212.3 102.46 217.87 99.9 221.46 96.99 221.46 95.19 217.87 92.29 216.06 91.45 
M 203.74 94.97 215.08 93.91 
M 204.66 95.73 214.93 95.89 
M 207.86 97.61 215.12 98.02 
M 209.84 132.18 212.89 130.76 218.21 125.78 221.65 120.15 221.65 116.67 218.21 111.03 212.89 106.06 208.73 104.12 
M 205.07 115.27 215.01 113.95 
M 204.79 118.33 215.26 118.32 
M 204.92 121.49 215.3 122.46 
M 211.53 171.18 214.44 169.01 218.72 162.63 221.48 155.4 221.48 150.92 218.72 143.69 214.44 137.31 211.1 134.82 
M 207.54 149.88 216.19 147.51 
M 208.31 153.03 216.13 153.19 
M 208.08 156.71 216.4 159.06 
M 217.94 203.24 218.99 201.55 221.63 194.02 221.63 189.36 218.99 181.83 214.88 175.18 211.67 172.58 
M 208.54 187.91 216.93 186.17 
M 208.9 191.42 216.69 191.45 
M 208.76 195.6 217.15 197.37 
M 220.42 119.2 224.12 118 229.84 114.29 233.52 110.08 233.52 107.48 229.84 103.28 224.12 99.56 220.17 98.28 
M 215.43 106.78 226.74 105.95 
M 215.17 108.76 226.99 108.46 
M 217.82 111.19 226.54 111.6 
M 220.54 152.48 224.69 150.31 230.01 144.77 233.44 138.49 233.44 134.61 230.01 128.33 224.69 122.79 220.54 120.63 
M 216.3 132.97 226.92 132.18 
M 216.43 136.83 227.36 136.33 
M 216.14 139.82 227.31 141.11 
M 221.33 190.97 225.14 188.45 230.02 182 233.17 174.7 233.17 170.17 230.02 162.87 225.14 156.42 221.33 153.9 
M 217.27 168.77 227.11 166.69 
M 218.09 172.65 227.28 172.28 
M 217.3 176.44 227.16 178.26 
M 230.92 203.12 230.13 201.29 225.35 194.98 221.63 192.51 
M 232.2 106.14 233.71 105.65 237.7 103.04 240.26 100.08 240.26 98.25 237.7 95.29 233.71 92.68 232.41 92.26 
M 227.93 97.51 235.53 97.23 
M 227.74 98.73 235.99 99.13 
M 227.46 100.54 235.74 101.67 
M 232.21 134.48 234.62 133.13 238.79 128.43 241.49 123.11 241.49 119.81 238.79 114.49 234.62 109.79 232.2 108.43 
M 228.41 118.93 236.81 117.44 
M 228.58 121.87 236.44 121.56 
M 228.25 124.44 236.76 125.65 
M 232.04 169.92 234.06 168.35 237.99 162.24 240.53 155.32 240.53 151.03 237.99 144.11 234.06 137.99 232.21 136.56 
M 227.98 149.57 235.76 147.99 
M 228.21 153.03 235.73 152.75 
M 227.95 156.25 236.19 158.79 
M 237.88 202.77 238.58 201.58 241.12 194.05 241.12 189.39 238.58 181.85 234.65 175.2 232.04 173 
M 228.42 187.83 236.92 186.27 
M 228.8 191.5 236.91 191.83 
M 228.6 195.49 236.25 197.46 
M 240.52 120.04 243.6 118.77 248.22 114.95 251.2 110.63 251.2 107.95 248.22 103.62 243.6 99.8 239.99 98.31 
M 236.86 106.94 246.01 106.3 
M 236.35 109.39 245.67 109.16 
M 236.2 111.74 245.79 112.4 
M 240.88 152.86 244.59 150.71 249.34 145.22 252.41 139 252.41 135.15 249.34 128.93 244.59 123.44 240.88 121.3 
M 237.35 133.55 246.88 132.17 
M 237.11 137.46 246.97 136.86 
M 237.7 140.19 247.24 141.64 
M 241.13 190.71 244.81 188.22 249.52 181.83 252.55 174.59 252.55 170.11 249.52 162.88 244.81 156.49 241.13 154 
M 237.15 169.04 247.34 166.74 
M 237.92 172.26 247.22 172.45 
M 237.53 175.63 246.65 177.97 
M 249.83 201.66 245.01 195.12 241.36 192.7 
M 248.27 104.07 250.23 103.24 253.76 100.26 254.65 98.95 
M 244.87 96.14 246.31 96.02 
M 244.39 97.69 251.67 98.36 
M 251.31 134.48 253.42 133.07 257.14 128.08 259.53 122.43 259.53 118.93 257.14 113.28 253.42 108.29 250.52 106.35 
M 247.3 117.75 255.52 116.72 
M 247.96 120.96 255.04 120.71 
M 247.59 123.12 255.19 124.59 
M 251.47 170.1 253.81 168.3 257.81 162.13 260.4 155.15 260.4 150.83 257.81 143.85 253.81 137.68 251.31 135.76 
M 247.75 149.62 255.28 148.06 
M 247.56 153.05 255.33 153.37 
M 247.39 156.85 255.7 158.7 
M 258.37 200.46 260.54 193.85 260.54 189.21 258.08 181.71 254.26 175.08 251.47 172.67 
M 248.6 187.76 256.34 185.99 
M 248.4 191.71 255.83 191.51 
M 248.72 195.5 255.73 196.88 
M 258.67 118.67 261.72 117.35 266.39 113.31 269.41 108.73 269.41 105.89 268.3 104.21 
M 254.51 104.62 263.78 103.95 
M 254.14 107.21 264.38 106.9 
M 254.64 109.52 263.96 110.75 
M 260.25 152.76 263.93 150.55 268.63 144.9 271.67 138.5 271.67 134.54 268.63 128.14 263.93 122.49 260.25 120.28 
M 256.64 133.14 265.86 131.65 
M 256.7 136.28 265.77 136.16 
M 256.49 140.19 266.17 141.64 
M 260.78 190.49 264.46 187.99 269.18 181.6 272.22 174.35 272.22 169.87 269.18 162.63 264.46 156.23 260.78 153.73 
M 257.02 168.61 266.68 166.57 
M 257.08 172.44 266.51 172.24 
M 256.85 175.44 266.41 177.29 
M 267.61 198.97 264.41 194.74 260.77 192.35 
M 270.58 132.37 271.67 131.65 275.6 126.43 278.14 120.52 278.14 116.87 275.6 110.96 271.67 105.74 270.76 105.14 
M 265.94 115.93 273.89 114.39 
M 265.46 118.59 273.81 118.83 
M 265.79 121.61 273.52 123.63 
M 271.22 171.63 274.37 169.2 278.4 162.97 280.99 155.91 280.99 151.54 278.4 144.48 274.37 138.25 271.22 135.82 
M 268.55 150.16 276.38 148.31 
M 268.34 153.94 275.91 154.05 
M 268.56 157.06 276.19 158.92 
M 277.91 196.7 279.31 192.51 279.31 187.91 276.82 180.48 272.96 173.91 271.13 172.36 
M 267.3 186.66 275.05 184.51 
M 267.38 190.28 274.66 189.86 
M 267.26 193.56 274.36 195.85 
M 278.77 119.23 282.77 117.73 287.89 113.91 289.14 112.26 
M 274.57 108.12 278.97 108.16 
M 275.34 110.78 285.42 111.81 
M 280.23 152.62 284.01 150.45 288.85 144.89 291.97 138.58 291.97 134.68 288.85 128.38 284.01 122.82 280.23 120.65 
M 276.31 133.76 285.98 131.88 
M 276.91 136.39 286.27 136.88 
M 276.27 140.04 286.32 141.49 
M 280.6 190.34 284.25 187.85 288.91 181.49 291.92 174.29 291.92 169.83 288.91 162.62 284.25 156.26 280.6 153.78 
M 277.47 168.66 286.87 166.23 
M 276.87 172.11 286.53 172.28 
M 277.08 175.87 286.58 177.96 
M 284.26 195.04 283.94 194.6 280.38 192.23 
M 290.85 133.25 293.19 131.94 297.4 127.25 300.12 121.93 300.12 118.64 299.31 117.06 
M 287.08 117.16 295.58 116.57 
M 286.54 120.67 295.56 120.22 
M 286.64 122.62 295.34 124.66 
M 291.19 171.39 294.29 169.01 298.25 162.9 300.8 155.98 300.8 151.7 298.25 144.78 294.29 138.67 291.19 136.28 
M 288.15 150.09 296.15 148.81 
M 288.44 154.19 296.08 154.1 
M 288.18 157.09 296.03 158.83 
M 299.04 191.14 299.04 188.16 296.65 180.75 292.94 174.21 290.85 172.36 
M 287.12 186.29 294.87 185.16 
M 287.47 190.69 294.93 190.64 
M 300.54 120.66 304.03 119.38 
M 300.75 152.63 304.45 150.56 309.19 145.24 312.24 139.23 312.24 135.5 309.19 129.48 304.45 124.17 300.75 122.1 
M 297.16 134.42 306.58 132.72 
M 296.9 137.65 306.74 137.09 
M 296.91 140.39 306.98 141.69 
M 299.8 189.03 303.25 186.62 307.67 180.46 310.52 173.48 310.52 169.15 307.67 162.17 303.25 156.01 299.89 153.66 
M 296.19 167.82 305.64 165.62 
M 296.88 171.26 305.5 171.2 
M 296.46 174.56 305.57 177.01 
M 299.59 190.99 298.78 190.39 
M 311.15 134.86 313.86 133.2 317.71 128.48 318.64 126.49 
M 307.56 121.45 308.23 121.46 
M 307.85 124.44 315.98 125.94 
M 311.07 170.31 314.01 168.08 317.77 162.34 320.2 155.85 320.2 151.83 317.77 145.34 314.01 139.61 311.15 137.43 
M 307.89 150.6 315.52 149.15 
M 307.99 153.89 315.73 153.91 
M 308.59 156.74 316.08 159.21 
M 314.88 186.06 314.88 184.92 312.76 177.82 309.5 171.6 
M 305.25 183.13 310.6 181.7 
M 304.48 186.91 310.73 187.08 
M 319.79 151.27 323.11 149.25 327.36 144.09 330.1 138.24 330.1 134.62 328.4 130.99 
M 316.49 133.43 324.96 131.6 
M 316.19 136.21 325.49 136.09 
M 316.61 139.45 325.42 140.66 
M 318.29 184.87 320.39 183.35 324.51 177.39 327.17 170.64 327.17 166.47 324.51 159.72 320.39 153.76 319.33 152.99 
M 315.4 165.29 322.13 163.83 
M 313.72 168.24 321.93 168.16 
M 314.18 172.03 322.41 173.43 
M 315.42 185.87 315.29 185.77 
M 329.12 131.63 329.38 131.44 
M 328.91 167.52 331.46 165.36 334.72 159.82 336.82 153.54 336.82 149.66 334.72 143.38 331.46 137.84 329.12 135.86 
M 326.32 148.7 333.33 146.65 
M 326.55 151.96 333.29 151.6 
M 326.43 154.96 333.01 156.08 
M 330.11 180.37 330.11 179.46 327.91 172.33 326.22 169.21 
M 324.36 176.99 326.56 176.39 
M 321.05 181.7 326.1 181.38 
M 335.39 145.09 337.9 143.55 342.03 138.46 342.47 137.51 
M 331.39 133.77 335.86 134.45 
M 336.53 177.74 339.88 172.72 342.58 165.65 342.58 161.27 339.88 154.19 336.07 148.49 
M 335.13 158.55 338.08 157.73 
M 332.15 163.54 337.77 163.19 
M 329.71 167.16 337.8 168.64 
M 340.71 156.07 341.68 155.26 345.23 149.39 347.52 142.73 347.52 139.8 
M 339.59 140.88 343.12 141.03 
M 336.91 144.13 343 145.45 
M 347.87 173.1 346.72 169.12 343.02 161.84 341.61 160.46 
M 337.72 175.26 344.74 173.84 
M 350.61 145.99 349.43 145.31 
M 346.12 157.06 350.61 156.27 
M 345.64 160.57 350.61 160.41 
M 346.24 163.39 350.61 163.86 
M 115.21 119.81 115.21 119.81 
M 127.22 198.15 126.17 196.27 121.88 191.89 
M 138.86 202.65 139.91 201.11 142.72 193.65 
M 128.93 192.01 135.35 191.78 
M 127.83 113.75 127.83 113.75 
M 152.41 206.46 152.41 205.5 148.94 198.81 144.63 194.08 
M 155.5 207.23 158.58 201.65 159.99 197.15 
M 149.09 195.49 156.33 197.73 
M 157.61 205.99 166.89 204.01 
M 164.31 209.71 167.46 209.76 
M 172.04 209.46 173.6 208 177.44 200.82 
M 177.59 206.02 187.51 204.29 
M 177.17 209.93 186.8 209.7 
M 184.09 93.98 184.09 93.98 
M 191.64 208.94 193.54 207.33 195.82 203.45 
M 196.49 216.56 194.93 214.14 191.81 211.71 
M 197.69 206.27 207.28 204.83 
M 197.87 210.55 207.64 210.36 
M 216.06 91.45 216.06 91.45 
M 215.96 216.34 214.76 214.5 212.01 212.39 
M 217.98 206.99 227.88 204.83 
M 217.8 214.12 227.31 215.81 
M 232.1 210.38 234.65 208.24 237.88 202.77 
M 252.35 213.47 252.69 212.67 252.69 208.33 249.83 201.66 
M 237.48 213.79 242.75 215.17 
M 254.65 98.95 254.65 98.95 
M 251.84 213.56 251.61 213.4 
M 272.07 209.06 272.07 207.84 269.07 200.89 267.61 198.97 
M 257.18 209.58 267.03 210.18 
M 271 208.17 272.96 206.5 276.82 199.94 277.91 196.7 
M 289.58 203.22 288.5 200.69 284.26 195.04 
M 296.25 200.88 296.65 200.17 299.04 192.75 299.04 191.14 
M 287.45 194.49 294.34 195.83 
M 304.45 190.71 310.82 192.4 
M 320.25 190.89 318.56 188.3 315.42 185.87 
M 342.47 137.51 342.47 137.51 
M 332.45 181.41 335.71 178.97 336.53 177.74 
M 334.86 183.65 333.14 182.32 
M 348.86 176.49 347.87 173.1 
M 337.07 179.5 342.06 179.96 
M 349.43 175.21 350.61 174.53 
M 175.1 95.64 176.68 95.58 
M 187.99 92.93 190.31 49.91 191.19 49.93 191.14 92.71 
M 201.09 91.49 208.98 40.71 209.85 40.83 204.25 91.65 
M 214.26 91.14 227.13 35.03 227.98 35.21 217.42 91.41 
M 227.46 91.25 245.63 42.9 246.45 43.19 230.54 91.99 
M 240.41 93.85 270.22 41.85 270.99 42.27 243.35 95.04 
M 252.95 97.92 278.29 62.19 279.02 62.68 255.76 99.38 
M 265.25 102.62 283.91 78.61 284.62 79.12 268.04 104.11 
M 271.55 104.98 272.82 105.92 
M 177.27 95.45 181.16 86.7 182.96 82.22 184.59 77.69 186.02 73.1 188.3 63.73 190.08 54.21 
M 191.18 54.24 195.46 53.37 197.53 52.78 199.51 52.03 201.4 51.09 204.91 48.68 208.19 45.79 
M 209.28 45.93 213.31 45.83 217.17 45.23 219.01 44.64 220.78 43.85 222.5 42.89 225.84 40.64 
M 226.92 40.87 230.25 43.44 233.78 45.52 235.65 46.28 237.61 46.85 239.63 47.25 243.81 47.73 
M 244.85 48.1 249.88 48.99 254.88 49.36 257.37 49.24 259.85 48.92 262.32 48.41 267.24 47.05 
M 268.21 47.58 268.84 52.05 269.32 54.23 269.97 56.33 270.81 58.35 273.04 62.16 275.76 65.76 
M 276.67 66.38 276.81 70.02 277.44 73.48 278.04 75.1 278.83 76.66 279.79 78.15 282.04 81.01 
M 282.94 81.66 279.56 86.52 278.03 89.02 276.67 91.6 275.49 94.26 273.69 99.82 272.38 105.59 
M 193.34 53.84 197.53 52.78 199.51 52.03 201.4 51.09 203.2 49.97 206.57 47.27 
M 193.82 60.58 197.28 59.71 200.47 58.31 201.96 57.38 204.74 55.15 
M 194.31 67.31 197.03 66.63 199.55 65.53 200.72 64.8 202.91 63.04 
M 194.79 74.05 196.78 73.55 198.62 72.75 201.08 70.93 
M 211.31 45.92 215.27 45.62 217.17 45.23 219.01 44.64 220.78 43.85 224.18 41.8 
M 211.02 52.31 214.42 52.05 216.06 51.72 219.17 50.53 222.09 48.77 
M 210.73 58.7 213.58 58.49 214.95 58.21 217.55 57.22 220 55.74 
M 210.43 65.1 212.73 64.92 214.9 64.36 217.9 62.71 
M 210.14 71.49 212.72 71.19 214.31 70.58 215.81 69.68 
M 228.57 42.19 231.98 44.56 233.78 45.52 235.65 46.28 237.61 46.85 241.71 47.53 
M 227.7 49.11 230.63 51.15 232.18 51.97 235.48 53.12 239 53.7 
M 226.84 56.03 229.29 57.74 230.59 58.43 233.34 59.39 236.3 59.87 
M 225.97 62.95 228.99 64.88 231.21 65.65 233.59 66.04 
M 225.1 69.87 227.39 71.33 229.08 71.92 230.88 72.22 
M 247.37 48.58 252.39 49.27 254.88 49.36 257.37 49.24 259.85 48.92 264.78 47.77 
M 245.69 54.83 250 55.42 252.15 55.5 256.42 55.12 260.66 54.13 
M 244.01 61.07 247.62 61.57 249.42 61.63 252.99 61.31 256.54 60.48 
M 242.33 67.32 246.69 67.77 249.57 67.51 252.43 66.84 
M 240.65 73.56 242.86 73.86 245.05 73.85 248.31 73.2 
M 268.49 49.83 269.32 54.23 269.97 56.33 270.81 58.35 271.84 60.29 274.36 63.97 
M 264.91 58.03 265.59 61.66 266.82 65.06 267.67 66.66 269.75 69.7 
M 261.33 66.24 261.87 69.09 262.83 71.77 263.5 73.03 265.15 75.43 
M 257.75 74.44 258.45 77.52 259.34 79.4 260.54 81.16 
M 276.71 68.21 277.04 71.78 277.44 73.48 278.04 75.1 278.83 76.66 280.88 79.59 
M 272.9 75.9 273.15 78.64 273.46 79.94 274.53 82.38 276.1 84.63 
M 269.09 83.59 269.48 86.4 270.23 88.09 271.32 89.66 
M 123.3 154.32 212.8 159.8 212.76 160.68 123.2 157.37 
M 123.24 158.03 201.4 166.68 201.31 167.55 123.41 161.09 
M 123.42 161.77 189.91 172.49 189.79 173.36 123.4 164.81 
M 123.39 165.48 178.42 177.23 178.25 178.09 123.05 168.47 
M 122.98 169.1 166.99 180.9 166.78 181.75 122.62 172.07 
M 122.55 172.68 155.71 183.52 155.46 184.37 122.61 175.75 
M 122.67 176.44 144.64 185.11 144.35 185.94 122.77 179.46 
M 122.76 180.27 133.86 185.67 133.53 186.49 122.77 183.05 
M 122.81 184.52 123.44 185.01 123.07 185.81 122.84 185.77 
M 203.37 160.33 200.57 160.54 198.03 161.22 196.89 161.83 195.86 162.62 194.91 163.57 193.17 165.77 
M 193.06 166.87 190.34 166.83 189.05 166.97 187.83 167.28 186.69 167.77 184.66 169.32 182.84 171.35 
M 182.68 172.44 180.05 172.16 177.59 172.38 176.46 172.77 175.4 173.35 174.4 174.12 172.5 175.96 
M 172.29 177.05 169.78 176.53 167.39 176.52 166.27 176.81 165.21 177.3 164.18 177.96 162.23 179.62 
M 161.97 180.7 159.58 179.95 157.29 179.72 156.19 179.91 155.13 180.29 154.09 180.86 152.08 182.34 
M 151.77 183.4 149.54 182.43 147.35 181.99 146.28 182.07 145.23 182.36 144.18 182.83 142.12 184.12 
M 141.76 185.16 139.71 183.99 138.68 183.58 137.65 183.35 136.61 183.33 134.53 183.89 132.43 184.98 
M 132.02 186 130.19 184.6 129.25 184.07 128.28 183.72 127.29 183.58 125.21 183.89 123.06 184.72 
M 201.96 160.41 199.26 160.8 198.03 161.22 196.89 161.83 195.86 162.62 194.02 164.64 
M 172.92 159.35 171.16 159.61 170.36 159.88 168.95 160.79 167.76 162.1 
M 191.69 166.82 189.05 166.97 187.83 167.28 186.69 167.77 185.64 168.46 183.74 170.3 
M 166.24 164.74 164.53 164.84 163.73 165.04 162.31 165.81 161.07 167.01 
M 181.36 172.27 178.79 172.18 177.59 172.38 176.46 172.77 175.4 173.35 173.44 175.01 
M 159.53 169.51 157.86 169.46 157.08 169.58 155.66 170.22 154.38 171.3 
M 171.03 176.75 168.56 176.44 167.39 176.52 166.27 176.81 165.21 177.3 163.2 178.76 
M 160.77 180.29 158.42 179.75 157.29 179.72 156.19 179.91 155.13 180.29 153.08 181.56 
M 176.67 219.23 180.03 224.03 183.39 229.48 185.15 231.59 197.91 267.43 195.05 271.59 190.9 274.28 188.87 274.96 185.36 273.83 181.51 272.33 178.34 270.2 176.73 269.62 175.7 269.63 172.74 264.27 171.14 260.07 167.49 252.54 167.16 250.91 166.42 249.21 152.59 225.17 151.57 219.1 147.83 210.57 
M 172.47 217.99 174.46 220.88 177.28 226.58 180.08 231.4 181.03 234.28 182.43 237.3 186.9 244.68 187.83 247.18 188.51 249.67 190.07 252.3 
M 168.26 216.76 171.17 222.38 172.3 225.08 174.11 227.76 175.88 229.92 177.01 232.81 177.4 235.84 178.36 239.22 179.7 242.33 181.56 244.91 182.64 247.33 183.13 249.83 184.53 252.24 186.28 253.71 188.4 256.9 189.54 260.21 
M 164.08 215.44 165.84 218.72 167.58 223.91 168.81 226.79 171.06 229.23 172.5 231.71 172.12 234.18 172.41 237.04 173.02 239.91 176.66 245.33 
M 159.91 214.09 161.53 217.46 163.59 223.31 164.42 226.43 165.42 228.94 166.03 231.8 167.18 233.91 169.36 238.89 170.19 241.77 170.28 243.45 172.12 246.42 173.3 249.72 173.8 252.63 174.13 255.91 176.03 258.64 177.12 261.89 179.18 264.84 179.92 266.53 180.55 268.98 181.64 271.76 
M 155.72 212.8 158.06 219.49 159.44 222.52 160.3 224.88 161.09 227.68 161.57 230.5 162.47 233.41 163.99 235.97 165.81 238.3 167.19 240.63 167.41 242.82 
M 151.5 211.61 155.21 220.8 155.86 223.65 156.25 227 157.59 229.27 158.3 232 160.19 237.9 
M 330.51 188.73 334.84 192.67 337.54 194.81 339.6 196.91 346.76 205.82 344.82 210.71 343.4 212.92 341.49 214.65 339.99 216.78 337.51 218.01 335.65 219.86 334.19 222.06 332.1 223.6 330.61 225.83 322.63 228.45 319.27 228.22 316.77 228.75 314.83 229.68 312.46 230.16 310.33 231.65 307.45 231.98 304.9 232.75 302.5 233.78 298.69 237.4 294.37 239.6 291.35 239.53 289.23 239.68 287.07 240.36 284.85 241.41 282.3 241.44 276.45 239.63 274.2 240.17 271.72 240.46 268.9 240.04 266.35 239.91 260.04 238.17 257.09 237.63 254.66 237.87 250.6 237.66 241.95 233.61 240.42 230.12 234.36 222.46 
M 326.65 190.82 330.73 194.42 333.8 196.44 335.19 197.95 337.37 199.92 
M 322.79 192.9 326.18 195.9 329.23 198.16 334.04 203.15 337.24 204.27 341.9 208.15 
M 318.9 194.91 322.37 198.29 327.5 202.9 330.12 205.96 332.56 208.14 335.01 209.07 337.03 211.61 339.18 213.43 
M 314.97 196.85 318.34 199.7 320.88 202.24 323.26 204.27 325.49 206.71 328.5 209.24 331.28 213.61 333.84 215.27 
M 311.03 198.78 314.6 201.03 318.82 206.12 321.86 207.87 324.47 209.81 326.51 212.54 
M 307.06 200.64 310.38 203.08 313.39 204.58 315.25 207 320.49 212.24 
M 303.09 202.5 308.71 206.99 310.71 208.96 312.46 211.46 315.02 212.8 317.71 215.32 
M 299.06 204.23 304.75 209.4 310.15 214.96 315.16 219.23 317.96 221.19 319.63 222.75 
M 295 205.87 297.71 209.05 300.26 211.75 302.56 213.94 304.9 215.8 308.18 219.84 311.72 221.3 315.48 222.59 
M 290.93 207.49 294 210.44 298.41 215.31 300.44 217.16 302.8 219.83 304.09 222.27 305.98 224.37 308.68 225.73 
M 286.82 209.04 289.46 212.29 291.74 214.66 293.91 216.62 295.79 218.99 298.51 220.86 302.15 226.08 
M 282.72 210.59 285.91 214.16 288.5 216.5 290.39 218.82 294.39 222.23 296.82 223.72 
M 278.62 212.13 281.86 215.79 287.11 220.17 289.45 222.59 291.21 224.47 292.77 227.02 294.97 228.67 297.22 229.8 
M 274.51 213.66 277.94 216.74 280.45 219.46 285.2 223.94 287.3 226.13 289.22 229.21 
M 270.33 214.98 273.1 217.94 275.32 220.63 280.18 225.1 283.41 227.32 285.77 232.23 
M 266.11 216.15 268.49 219.45 270.87 221.77 272.71 224.44 277.78 229.14 
M 261.87 217.28 264.87 220.4 269.05 225.56 272.99 229.64 
M 257.61 218.3 263.37 224.26 266.11 228.41 
M 253.34 219.32 256.54 222.73 260.57 228.46 263.7 232.53 
M 249.06 220.25 251.43 223.97 256.32 229.73 
M 244.78 221.19 247.07 224.92 249.59 228.19 251.81 231.58 
M 240.43 221.76 245.89 228.55 
M 349.74 140.81 352.57 140.2 355.31 138.96 358.14 137.95 360.32 136.64 365.17 134.45 367.41 132.97 369.38 131.36 373.96 128.31 376.56 127.01 378.34 125.43 380.65 123.7 383.05 123.23 387.66 120.56 392.87 118.68 395.29 117.33 395.88 115.42 397.79 112.76 400.28 110.22 402.36 108.59 405.26 107.67 408 106.42 410.53 104.74 420.35 106.96 423.42 107.26 426.13 107.2 428.51 106.81 430.71 106.24 433.14 105.89 438.62 108.53 441.87 110.36 444.41 111.34 446.71 111.61 449.95 112.83 452.55 113.41 457.19 114.17 467.78 121.51 472.84 124.11 474.97 125.44 479.47 133.91 479.83 135.6 480.36 136.64 486.18 142.39 486.95 145.47 486.25 147.26 485.97 149.48 487.88 156.06 489.56 159.57 490 161.83 489.45 163.1 488.77 167.31 488.71 169.89 489.03 172.84 488.43 178.62 488.29 181.9 487.51 184.54 486.05 186.73 483.85 188.22 479.13 190.88 478.08 193.45 476.56 195.55 475.54 198.15 474.76 201 473.71 203.65 470.01 207.33 467.16 208.18 464.35 208.75 462.17 209.8 459.33 210.19 456.01 210.1 452.89 210.4 448.55 213.21 446.03 214.26 443.29 215.09 441.49 216.83 439.1 217.71 437.51 219.4 435.32 220.48 432.65 220.98 430.71 221.61 423.19 220.66 409.65 220.06 407.89 217.72 406.33 216.77 404.73 216.26 402.05 214.35 399.32 212.65 396.21 211.46 393.89 210.87 387.35 205.52 385.04 202.92 379.79 200.25 377.61 198.4 376.07 196.15 373.87 194.81 371.11 193.78 368.89 191.94 364.06 188.35 358.09 183.02 355.39 181.4 352.69 180.01 349.74 177.9 
M 357.87 140.01 360.53 138.65 365.28 136.61 367.57 135 369.91 133.06 376.49 129.19 378.69 128.28 383.78 127.25 387.46 124.56 390.73 123.55 395.52 121.08 398.06 119.41 400.12 116.91 405.38 113.5 408.12 111.44 410.51 111.18 
M 352.69 144.07 357.68 141.95 360.31 140.59 362.91 139.94 364.91 139.22 367.73 137.84 370.15 136.08 375.64 132.9 377.33 132.48 379.96 131.15 382.65 130.75 385.09 129.99 387.22 128.77 389.02 127.27 391.55 126.02 393.73 125.22 398.27 121.99 400.76 121.03 403.8 119.55 
M 349.74 146.38 352.72 145.91 355.4 145.15 360.38 143.06 365.01 141.56 370.41 139.15 373.13 137.35 375.79 136.5 378.25 136.19 381.13 135.09 383.8 134.78 386.36 133.38 388.86 132.99 390.71 131.76 398.14 128.01 400.26 126.51 402.38 125.52 404.33 125.23 407.92 123.77 411.12 123.06 413.8 122.89 415.5 121.22 417.09 120.39 418.83 119.03 420.88 117.89 431.04 115.32 433.06 114.26 436.07 113.08 439.03 111.5 
M 358.23 146.41 360.8 145.91 365.43 144.23 367.9 143.04 373.77 140.89 376.19 139.64 378.82 139.54 381.91 138.51 384.68 137.86 386.79 137.49 389.51 137.4 392.29 136.66 400.9 132.82 403.23 131.57 404.22 130.55 405.9 129.63 408.61 129.04 411.12 128.04 414.46 127.8 416.64 127.14 418.48 125.65 421.18 125.3 423.74 125.41 428.64 122.69 432.8 122.29 435.04 121.18 436.46 119.6 441.28 117.14 442.79 117.4 449.01 116.86 
M 355.69 149.25 358.35 148.6 363.63 147.93 366.36 147.32 368.88 146.15 374.32 144.22 376.54 142.94 379.45 142.21 385.15 140.99 392.71 140.2 394.97 139.67 397.72 138.08 401.76 137.62 404.51 136.42 405.17 135.36 
M 352.86 151.75 358.73 150.78 363.84 150.53 369.37 149.44 372.19 148.77 377.86 146.87 380.56 146.17 383.16 145.87 385.99 145.05 390.88 144.29 394.05 143.99 396.02 142.9 398.59 142.54 402.08 142.72 404.39 142.15 406.01 141.17 408.55 140.18 410.88 139.03 413.54 139.06 422.76 137.14 424.63 137.41 426.75 137.16 429.97 137.05 432.37 136.6 434.53 137.3 436.76 136.93 
M 355.76 153.61 358.65 153.11 361.22 153.02 363.88 153.15 366.75 153 369.99 152.61 375.56 151.49 380.86 150.66 383.65 150.89 386.08 150.22 387.91 149.08 392.8 148.64 396.21 148.58 402.73 147.69 406.18 145.85 408.69 145.05 411.49 144.72 415.27 145.27 418.18 145.88 420.49 145.63 423.55 144.71 424.89 143.39 430.18 142.03 436.33 143.2 438.83 142.96 440.9 141.51 443.75 140.65 448.36 138.59 453.65 137.48 455.98 137.72 458.49 138.2 463.21 138.21 466.15 137.95 467.41 137.45 470.61 137.88 
M 358.72 155.48 366.79 155.32 369.64 155.09 375.66 155.19 378.54 154.6 381.23 154.32 383.6 154.41 385.75 154.26 390.33 153.22 393.15 152.87 396.59 153.44 400.48 153.34 405.5 152.1 406.77 151.24 408.57 150.36 411.8 150.48 415.2 151.23 419.76 150.2 
M 358.94 157.98 364.63 157.71 367.42 157.77 375.53 158.37 380.63 158.12 382.59 157.85 387.75 158.26 390.79 157.49 393.81 157.53 396.82 158.01 402.8 156.95 405.51 157 407.36 156.47 411.77 156.47 414.9 156.88 417.67 156.71 420.57 156.22 426.58 156.46 429.31 156.3 431.63 155.81 434.62 155.89 
M 356.14 160.22 358.9 160.31 364.84 160.16 370.32 160.95 377.93 161.71 379.93 161.74 382.24 162.38 385.2 162.44 390.5 161.95 396.77 162.56 398.78 162.21 403.86 162.08 406.28 161.76 408.91 161.02 412.63 161.63 416.2 162.51 419.62 162.57 422.3 162.48 424.02 161.64 427.4 161.41 430.46 161.87 432.29 163.02 
M 358.76 162.66 361.63 163.12 364.5 163.18 367.24 163.56 369.87 164.13 377.75 165.01 383.05 165 386.31 165.48 393.68 165.5 396.3 166.2 402.54 167.36 405.02 166.73 408.62 166.84 414.18 167.94 416.81 169.25 420.03 169.43 423.16 168.91 426.89 169.75 432.11 169.53 435.14 169.26 437.55 168.82 443.32 169.29 446.21 171.01 448.89 170.56 
M 358.72 164.9 361.22 165.68 364.12 165.91 366.77 166.4 369.3 166.64 371.97 167.49 377.63 168.63 380.92 168.76 384.12 168.39 388.75 169.71 393.72 169.75 396.25 170.11 399.42 171.21 401.98 171.7 404.8 171.88 406.29 172.28 408.15 172.29 411.13 172.77 413.4 174.24 416.92 175.18 425.52 175.08 427.93 175.14 431.08 175.63 434.52 175.61 
M 358.55 167.06 366.37 169.15 368.94 169.38 374.7 171.51 377.38 171.75 380.41 172.23 383.64 172.47 390.86 174.67 393.81 174.76 396.86 175.68 399.65 176.06 402.09 176.61 406.05 177.74 407.86 178.65 411.03 179.68 414.35 180.49 415.51 181.27 417.86 181.86 421.75 181.03 424.72 181.64 427.62 182.44 430.12 182.56 437.47 185.12 439.89 184.84 443.08 184.75 446.46 185.53 449.33 184.99 455.85 185.03 458.14 186.28 459.98 188 462.28 189.49 464.49 189.94 470.39 190.12 474.2 191.34 
M 358.44 169.52 366.19 172.05 368.98 172.49 371.61 173.83 374.58 174.8 380.15 175.1 385.92 176.21 388.79 177.3 391.48 179.26 394.58 180.07 396.76 180.27 401.42 181.68 403.72 182.02 406.12 182.71 407.93 183.7 413.75 185.03 416.85 185.18 422.03 186.3 
M 349.74 168.63 352.89 169.97 355.83 170.83 358.28 171.83 360.5 173.2 368.78 175.61 371.88 176.73 375.09 177.14 377.49 178.18 379.6 178.87 382.53 179.12 385.36 179.85 388.21 181.03 391.06 182.81 395.79 184.94 397.75 185.98 399.71 187.5 402.04 188.31 405.27 188.9 411.13 191.04 
M 355.51 173.05 360.52 175.46 363.47 176.49 368.28 178.83 371.42 179.95 374.37 181.22 376.97 182.13 379.56 182.32 384.4 183.64 387.48 185.48 390.02 187.45 392.89 188.82 397.43 190.68 399.07 191.6 401.95 192.62 404.84 193.36 410.04 196.6 412.17 197.42 414.36 197.9 421.31 201.46 424.37 201.77 426.82 202.45 429.13 203.88 431.32 204.61 433.45 204.97 436.87 204.93 439.07 206.93 442.24 208.31 443.69 209.36 446.87 210.32 448.2 210.99 
M 355.2 175.15 360.67 177.81 365.73 180.71 367.92 181.66 370.09 183.19 373.09 184.93 375.47 185.75 381.26 186.17 384.09 187.34 386.37 188.93 388.71 191 390.98 192.52 395.56 193.99 397.66 195.27 400.05 196.27 405.38 199.3 408.52 200.53 410.96 201.92 413.63 203.1 416.12 203.75 418.22 204.99 420.18 206.56 422.82 208.22 425.18 209.98 428.38 210.51 431.2 211.56 
M 354.95 177.19 365.51 183.17 371.81 187.74 374.57 189.29 377.42 189.88 379.78 190.66 383.09 191.11 385.06 193.15 389.41 195.53 392.11 197.44 394.02 198.56 396.23 200.43 398.21 202.67 400.07 204.15 402.74 205.01 405.8 206.85 408.92 207.94 411.38 208.68 415.94 209.51 
M 349.74 176.04 352.65 178.01 357.79 180.83 364.69 185.62 366.7 187.32 369.12 188.91 371.5 190.83 374.11 192.6 376.11 193.12 378.8 194.68 381.04 196.57 385.67 198.44 389.87 203.06 392.73 204.46 397.61 207.92 
M 280.69 107.68 283.73 108.86 285.51 108.89 288.6 107.5 290.23 107.57 292.23 112.42 295.44 114.04 297.35 114.37 300.9 113.69 302.59 114.43 303.96 117.59 305.15 119.05 308.39 120.7 310.17 120.53 313.48 119.74 314.64 121.2 316.23 124.23 317.86 125.25 319.44 126 321.09 126.32 322.55 125.8 324.31 125.59 325.89 126.39 327.94 129.47 329.47 130.57 331.07 131.32 332.71 131.87 336.34 131.81 337.75 132.75 338.54 134.86 340.12 136.44 
M 36 171.72 39.16 168.53 41.8 165.59 47.47 157.35 51.82 153.56 61.77 147.16 71.24 140.01 76.72 136.43 88.59 130.42 94.14 127.97 103.71 124.4 109.35 122.64 112.88 126.19 114.62 130.03 116.58 133.84 118.77 137.62 120.52 141.46 121.66 145.37 123.33 153.28 123.2 157.36 123.42 161.39 123.39 165.45 122.42 173.69 122.79 177.7 122.84 185.82 122.4 189.93 121.3 194.13 119.02 198.4 107.05 197.77 98.26 196.87 90.44 195.79 83.08 194.56 70.24 191.88 64.54 190.46 54.37 186.97 49.68 185.06 
M 99.92 150.39 100.4 153.84 99.28 160.61 98.4 163.68 96.05 168.79 96.54 173.23 97.96 178.02 98.46 180.76 98.27 183.97 73.26 182.99 67.8 182.42 62.66 181.66 57.79 180.52 
M 48.21 185.35 36.12 178.02 32.38 175.43 31.61 173.37 32.72 171.41 34.98 171.01 36.78 172.26 50.03 185.42 
M 49.83 186.21 32.71 190.27 30.65 189.46 30.05 187.41 31.2 185.56 33.27 185.1 39.81 185 46.57 185.35 49.73 185.35 
M 64.5 161.85 63.73 158.93 63.95 155.91 65.14 153.13 67.16 150.89 69.8 149.43 72.78 148.9 75.77 149.37 78.44 150.78 80.51 152.98 81.75 155.74 82.03 158.75 81.32 161.68 79.69 164.23 77.32 166.11 74.47 167.12 71.45 167.15 68.58 166.2 66.18 164.36 64.5 161.85 
M 64.39 161.59 63.79 159.4 63.74 157.13 63.93 156.01 64.71 153.88 65.99 152 66.79 151.2 68.67 149.92 70.8 149.13 73.06 148.9 75.31 149.23 76.39 149.6 
M 66.01 160.92 65.52 159.15 65.45 158.23 65.48 157.31 65.86 155.66 
M 67.92 152.55 69.47 151.48 71.2 150.84 72.11 150.69 73.94 150.73 75.71 151.22 
M 67.63 160.25 67.2 158.2 67.57 156.07 
M 69.06 153.89 70.28 153.03 71.59 152.55 73.69 152.47 75.04 152.84 
M 69.52 159.59 69.22 158.42 69.3 157.21 69.47 156.83 
M 70.4 155.41 71.65 154.62 72.84 154.41 74.03 154.59 75.1 155.16 75.93 156.04 76.42 157.14 76.53 158.35 76.25 159.52 75.6 160.54 74.65 161.29 73.51 161.7 72.3 161.71 71.16 161.33 70.19 160.59 69.52 159.59 
M 70.87 155.05 70.58 155.63 
M 69.9 156.99 69.22 158.34 
M 72.47 154.47 71.38 156.65 
M 71.03 157.36 69.75 159.92 
M 73.75 154.55 72.19 157.66 
M 72.16 157.72 70.58 160.89 
M 74.83 155.02 71.6 161.47 
M 75.73 155.84 72.8 161.7 
M 76.41 157.11 74.25 161.43 
M 37.85 169.85 42.84 174.85 
M 40.4 167.15 43.09 169.84 
M 42.74 164.23 46.46 167.95 
M 44.9 161.13 49.85 166.08 
M 47.03 157.99 51.13 162.1 
M 49.7 155.4 54.78 160.48 
M 52.61 153.05 55.37 155.82 
M 55.8 150.98 60.65 155.83 
M 59 148.92 62.55 152.48 
M 62.19 146.85 66.64 151.31 
M 65.2 144.6 68.99 148.39 
M 68.19 142.33 72.01 146.15 
M 71.18 140.06 73.89 142.77 
M 74.35 137.97 77.15 140.77 
M 77.61 135.97 81.94 140.3 
M 81.08 134.18 85.03 138.12 
M 84.58 132.41 87.22 135.05 
M 88.09 130.67 92.18 134.76 
M 91.73 129.04 95.65 132.97 
M 95.42 127.47 99.65 131.7 
M 99.2 125.99 103.03 129.83 
M 103.08 124.62 107.16 128.69 
M 107.06 123.34 111.45 127.72 
M 110.28 162.54 111.73 162.16 112.85 162.31 114.82 163.07 115.6 163.51 115.78 163.8 
M 71.81 180.73 72.72 179.87 73.6 178.33 74.12 174.65 74.21 172.75 73.9 172.02 72.96 170.98 
M 108.42 125.42 110.82 125.11 112.11 125.41 
M 111.25 149.64 110.52 149.9 109.01 151.27 108.67 151.86 
M 112.84 153.23 112.26 154.07 112.13 155.23 112.3 155.97 113.18 157.28 
M 107.32 160.27 108.8 159.2 111.08 158.09 112.8 157.95 113.18 157.79 
M 115.4 131.54 114.72 132.79 
M 88.69 144.8 87.91 144.18 87.65 142.24 
M 73.58 143.26 72.83 143.47 72.28 143.94 70.03 147.21 
M 89.83 174.2 90.02 172.71 89.81 171.57 88.91 171.2 87.72 171.36 
M 83.23 194.47 83.1 194.56 
M 77.5 193.43 77.71 192.2 
M 119.43 139.07 114.49 137.82 
M 64.46 145.15 64.51 146.34 64.3 147.05 63.9 147.58 63.26 147.78 
M 108.99 163.66 110.61 162.8 112 162.79 114.11 163.89 114.51 164.55 
M 82.59 183.19 82.73 182.77 82.47 182.44 80.61 181.98 
M 78.59 148.76 78.34 147.36 77.96 146.91 77.31 146.53 75.63 146.22 73.08 146.35 
M 85.3 166.46 85.34 169.62 84.98 170.96 84.53 171.92 83.48 172.96 82.57 174.96 
M 54.71 187.08 54.17 186.71 52.39 185.99 51.65 185.16 
M 105.84 167.79 106.23 168.23 106.57 168.31 107.5 168.14 108 167.85 108.94 166.63 109.71 165.01 110.4 164.39 111.05 164.18 
M 82.5 181.19 80.02 181.58 
M 46.28 174.26 47.69 171.17 48.46 169.04 49.18 168.07 50.79 166.46 51.84 164.95 52.48 164.45 54.63 163.63 
M 91.71 179.56 92.15 178.32 92.78 175.24 92.64 174.48 92.03 173.18 91.66 171.84 
M 46.86 167.78 51.01 164.21 51.8 163.79 53.71 163.22 55.5 162.24 56.19 160.95 56.26 159.16 
M 76.3 193.18 77.61 190.88 78.65 188.57 79.4 188.11 
M 107.63 173.07 112.04 172.77 112.43 172.47 
M 50.59 176.18 50.91 173.58 51.33 172.47 52.35 171.12 53.6 170.4 
M 106.27 190.6 107.1 191.37 108.47 192.15 109.22 192.95 110.37 194.81 111.07 197.06 
M 73.74 192.63 75.05 190.48 75.62 189.19 76.05 188.71 77.14 187.97 
M 114.48 147.2 113.25 149.9 111.22 151.6 
M 105.53 189.11 106.97 190.87 108.21 191.72 109 192.49 110.49 194.8 
M 99.25 189.67 99.62 190.12 100.17 190.38 101.82 189.87 
M 87.03 155.51 86.68 155.8 86.42 155.8 86.11 155.41 86.21 155.05 
M 44.87 178.72 45.74 177.02 46.01 175.43 46.86 173.09 48.95 168.48 50.58 166.84 
M 80 187.18 80.66 188.16 80.93 188.91 80.95 189.76 80.49 191.85 
M 76.71 193.27 78.22 189.62 
M 101.15 195.53 100 196.05 99.48 196.1 97.59 196.01 97.11 195.85 93.95 192.99 
M 72.1 167.14 71.83 167.29 
M 66.61 177.18 66.76 177.51 67.17 177.62 
M 40.98 170.72 42.01 169.97 43.28 169.59 45.63 168.15 50.87 164.09 51.67 163.73 
M 98.27 162.81 97.65 160.26 97.81 157.82 98.44 156.37 98.81 156 100.17 155.28 
M 103.85 131.26 103.25 131.07 101.39 130.03 97.99 129.19 96.91 128.63 95.52 127.43 
M 67.06 165.04 66.97 166.61 65.28 169.27 64.41 172.81 64.07 173.4 
M 106.91 175.45 107.8 176.76 109.16 177.89 110.78 178.77 112.76 179 112.9 179.38 
M 82.29 176.31 82.16 177.99 81.96 178.83 81.63 179.42 80.35 180.42 79.83 180.57 79.64 180.34 
M 110.33 191.94 113.06 196.42 113.7 196.78 114.4 196.74 
M 93.25 129.18 92.47 128.71 
M 117.23 181.1 115.25 180.43 112.75 180.4 112.41 180.08 112.67 179.71 
M 99.97 176.32 97.64 175.3 94.91 173.42 94.32 172.95 93.61 171.36 93.29 171.12 92.54 170.94 
M 62.24 153.08 61.63 152.56 59.28 151.88 55.44 151.72 
M 73.4 138.59 73.83 139.22 73.88 139.72 73.63 140.04 72.33 140.83 
M 44.74 164.34 45.78 163.69 46.84 163.72 47.32 163.55 
M 80.14 134.66 81.38 135.15 82.1 135.61 85.16 138.62 
M 87.24 131.09 87.42 132.32 87.12 134 86.75 135.2 86.01 136.49 85.67 138.04 
M 82.83 191.65 82.07 192.8 81.05 193.46 80.43 193.62 79.86 193.51 79.4 193.04 78.86 191.44 
M 85.93 181.13 82.47 181.62 80.28 181.75 
M 50.7 172.33 51.88 170.48 53.98 169.05 54.62 167.08 
M 80.51 192.45 79.89 192.47 79.51 192.03 79.28 189.8 
M 106.47 126.74 105.99 127.53 105.57 128.67 105.15 129.17 104.15 129.44 103.1 129.41 
M 69.71 166.57 69.32 166.92 
M 100.31 193.32 99.35 193.23 98.64 192.78 98.24 191.93 98.2 191.19 
M 109.94 130.72 108.4 133.09 107.44 134.21 103.04 136.49 
M 74.13 171.98 73.27 171.16 72.55 170.19 72.08 170.09 71.75 170.32 
M 112.35 128.51 111.14 128.4 110.46 128.62 109.44 129.98 108.87 131.23 
M 121.95 186.55 121.11 186.26 119.49 186.81 116.89 187.01 115.64 186.95 114.72 186.48 114.37 186.07 113.91 184.97 
M 101.94 180.19 100.65 179.49 99.07 178.98 97.56 178.25 96.85 177.64 94.78 174.37 94.15 173.76 
M 109.63 169.6 110.78 166.84 111.57 166.14 112.41 165.75 112.9 165.88 112.89 166.2 
M 108.62 130.36 106.29 132.84 105.09 133.64 103.78 133.78 101.17 133.17 
M 89 185.15 90.76 183.53 91.74 182.19 93.11 177.99 93.4 175.95 
M 38.88 172.01 39.06 170.44 39.82 169.26 40.61 168.94 42.27 168.82 43.81 168.46 45.64 167.61 46.69 166.83 
M 88.23 180.99 87.88 181.33 
M 119.49 164.58 118.58 165 116.32 165.62 112.68 168.01 
M 90.15 148.73 89.5 149.77 88.53 153.65 88.15 154.4 87.09 155.6 
M 62.33 151.71 59.77 150.69 57.13 150.12 
M 103.56 154.91 104.17 153.87 105.08 152.83 105.92 152.49 106.48 152.72 
M 41.68 166.39 43.18 166.18 44 165.9 47.46 163.45 
M 99.09 172.21 97.16 172.14 95.92 171.41 93.26 170.66 92.16 170.68 90.87 171.22 90.11 171.2 
M 87.44 131 87.6 131.85 87.3 133.56 86.7 135.41 85.96 136.66 
M 84.35 191.96 82.9 193.33 81.59 194.26 
M 79.33 193.8 79.06 192.78 
M 48.42 162.41 48.76 162.67 51.1 163.03 52.9 162.66 54.39 162.13 
M 49.41 184.75 50.8 185.83 
M 45.06 183.4 45.08 184.5 45.63 183.74 
M 40.72 180.84 40.13 181.96 40.05 183.71 40.55 182.28 41.56 181.36 
M 36.52 178.26 35.25 180.38 35.02 182.92 35.67 180.7 37.49 178.84 
M 32.48 175.5 30.37 178.79 30 182.13 30.79 179.11 33.45 176.23 
M 49.65 185.35 50.97 185.18 
M 43.66 185.18 43.85 183.75 44.49 182.71 44.38 183.68 45.02 185.26 
M 37.85 185.01 37.87 182.18 38.87 180.12 38.39 182.11 39.15 185 
M 32.06 185.37 31.88 180.6 33.25 177.54 32.4 180.54 33.39 185.09 
M 38.21 188.91 43.48 190.21 46.94 190.81 50.41 191.13 57.4 191.08 64.54 190.46 
M 45.58 189.62 45.77 190.2 45.69 190.59 
M 57.24 190.41 57.15 189.75 
M 113.95 128.56 116.65 131.26 
M 113.18 120.77 120.96 128.56 
M 117.94 118.52 125.25 125.83 
M 122.67 116.24 128.63 122.19 
M 127.4 113.96 136.7 123.26 
M 132.25 111.79 141.16 120.69 
M 137.14 109.66 142.63 115.15 
M 142.14 107.65 149.19 114.7 
M 147.16 105.66 154.59 113.09 
M 152.32 103.8 160.56 112.04 
M 157.5 101.96 167.35 111.82 
M 162.61 100.06 171.98 109.43 
M 167.76 98.2 174.95 105.39 
M 173.18 96.6 182.81 106.24 
M 178.72 95.13 188.04 104.46 
M 184.49 93.89 194.79 104.19 
M 190.44 92.83 200.84 103.23 
M 196.55 91.91 202.33 97.7 
M 203.32 91.68 213.78 102.14 
M 210.2 91.54 219.31 100.65 
M 217.09 91.42 222.49 96.82 
M 223.89 91.2 232.88 100.2 
M 231.88 92.18 239.85 100.15 
M 241.14 94.42 251.62 104.9 
M 251.56 97.84 260.77 107.04 
M 262.91 102.17 270.91 110.16 
M 274.17 106.41 283.38 115.62 
M 285.49 110.72 291.3 116.53 
M 298.39 116.6 308.36 126.58 
M 312.23 123.43 320.44 131.64 
M 325.47 129.65 335.08 139.27 
M 338.52 135.69 345.23 142.4 
M 351.42 141.58 355.44 145.6 
"/></svg>