<svg xmlns="http://www.w3.org/2000/svg" width="520" height="320"><rect x="0" y="0" width="520" height="320" fill="floralwhite"/><rect x="10" y="10" width="500" height="300" stroke="black" stroke-width="1" fill="none"/><path stroke="black" stroke-width="1" fill="none" stroke-linecap="round" stroke-linejoin="round" d="
M 128.26 137.2 147.48 129.58 157.08 126.11 166.68 122.96 185.88 117.17 195.48 114.83 205.08 113.12 214.68 111.82 243.48 111.19 253.08 112.31 262.68 114.54 272.28 117.28 301.07 126.3 310.67 129.67 339.47 141.32 369.16 152.63 
M 369.16 192.25 349.07 201.64 339.47 205.94 320.27 213.6 310.67 216.82 291.47 222.81 281.87 225.01 262.68 228.66 253.08 229.57 243.48 230.19 233.88 229.92 214.68 230.13 205.08 228.91 195.48 226.89 185.88 224.56 176.28 221.97 166.68 219.73 157.08 217.07 147.48 213.67 137.92 209.73 
M 128.54 137.51 128.68 137.03 
M 141.79 195.82 142.35 194.91 
M 146.75 174.2 144.57 167.94 141.78 163.35 
M 146.1 171.23 146.59 170.03 149.05 159.59 149.05 153.12 146.59 142.68 142.78 133.46 141.53 131.96 
M 148.17 150.17 152.18 145.04 156.12 136.22 156.12 130.75 154.47 127.06 
M 165.04 170.48 164.24 168.23 159.46 160.67 155.74 157.72 
M 154.71 129.8 158.8 125.55 
M 170.53 169.39 173.08 161.7 173.08 156.35 170.21 147.72 165.77 140.09 162.3 137.12 
M 159.21 154.58 168 152.66 
M 158.59 159.26 167.49 158.85 
M 161.14 164.19 167.97 165.58 
M 172.05 155.21 177.54 149.1 181.36 141.63 181.36 137.01 177.54 129.54 171.62 122.94 169.93 122 
M 162.42 135.73 174.09 133.88 
M 164.83 139.43 174.3 138.94 
M 167.66 144.2 174.41 145.17 
M 182.48 167 179.28 162.34 175.57 159.65 
M 187.6 208.74 186.69 207.29 
M 179.56 132.44 181.9 129.67 185.01 123.25 185.01 119.27 184.24 117.68 
M 172.23 121.33 179.38 121.02 
M 172.8 125.04 179.19 125.93 
M 193.15 167.97 194.83 163.44 194.83 158.72 192 151.1 187.62 144.37 184.2 141.74 
M 181.05 157 190.13 155.08 
M 181.14 161.46 189.29 161.39 
M 180.53 164.58 189.75 166.72 
M 190.88 209.3 192.22 206.77 192.9 204.55 
M 183.9 122.89 188.29 121.54 194.79 117.51 197.61 114.45 
M 193.82 157.6 194.38 157.31 200.13 151.3 203.84 144.48 203.84 140.26 200.13 133.45 194.38 127.43 189.88 125.09 
M 185.44 139.29 196.99 136.82 
M 185.53 142.22 196.96 142.62 
M 188.39 146.35 196.87 147.88 
M 199.86 194.23 204.05 188.79 207.28 181.45 207.28 176.9 204.05 169.55 199.04 163.06 195.13 160.53 
M 208.36 211.83 206.19 206.81 201.49 200.6 198.71 198.77 
M 201.63 135.62 205.45 131.84 208.93 125.8 208.93 122.07 205.45 116.03 202.9 113.51 
M 206.18 181.41 209.75 178.94 214.33 172.61 217.28 165.44 217.28 161 214.33 153.83 209.75 147.5 206.18 145.03 
M 208.14 210.05 211.7 204.74 214.45 197.52 214.45 193.05 211.7 185.84 208.08 180.45 
M 210.55 129.45 215.84 128.04 222.62 124.42 226.99 120.32 226.99 117.78 222.62 113.69 218.89 111.7 
M 216.22 161.99 219.08 160.69 225.06 155.19 228.92 148.98 228.92 145.13 225.06 138.91 219.08 133.41 214.4 131.27 
M 217.14 198.9 221.33 196.51 226.7 190.4 230.15 183.49 230.15 179.2 226.7 172.28 221.33 166.17 217.14 163.79 
M 229.4 212.16 227.3 207.75 222.27 201.72 218.33 199.36 
M 226.02 121.31 230.46 120.44 236.15 118.22 239.82 115.71 239.82 114.15 236.15 111.63 235.55 111.4 
M 221.7 113.28 233.02 113.05 
M 223.53 114.54 233.23 114.61 
M 225.42 116.6 233.58 117.1 
M 227.54 146.39 230.12 145.33 235.7 140.78 239.29 135.62 239.29 132.43 235.7 127.27 230.12 122.71 225.77 120.94 
M 221.22 131.1 232.74 129.68 
M 221.74 133.77 232.94 133.8 
M 222.42 137.1 232.49 138.29 
M 229.82 183.55 233.26 181.3 237.66 175.55 240.5 169.04 240.5 165.01 237.66 158.5 233.26 152.74 229.82 150.5 
M 226.67 163.52 235.63 162.39 
M 226.72 167.29 235.53 167.34 
M 226.24 170.77 234.95 171.57 
M 234.07 212.16 236.73 208.72 239.71 201.94 239.71 197.75 236.73 190.97 232.1 184.99 228.92 182.93 
M 225.03 196.71 234.58 194.28 
M 224.98 200.2 233.93 199.62 
M 224.66 203.65 234.4 205.28 
M 238 135.95 242.38 134.71 248.29 131.37 252.1 127.59 252.1 125.25 248.29 121.47 242.38 118.13 238.5 117.03 
M 233.22 124.38 245.18 123.94 
M 234.14 126.5 244.86 126.43 
M 236.66 128.52 245.08 129.4 
M 239.48 165.86 243.18 164.17 248.67 159.15 252.21 153.46 252.21 149.94 248.67 144.25 243.18 139.23 238.89 137.27 
M 235.04 148.7 245.82 147.47 
M 235.03 151.37 246.08 151.5 
M 234.35 154.2 246.19 155.65 
M 239.64 200.67 243.64 198.41 248.76 192.61 252.06 186.04 252.06 181.97 248.76 175.4 243.64 169.6 239.64 167.34 
M 235.49 181.05 246.5 179.1 
M 235.55 184.21 246.44 184.29 
M 235.83 187.7 246 188.86 
M 249.8 212.1 248.63 209.72 243.65 203.95 239.76 201.7 
M 250.74 124.74 252.58 124.22 256.65 121.9 259.27 119.28 259.27 117.65 256.65 115.03 252.58 112.71 249.83 111.93 
M 246.64 117.12 254.26 116.11 
M 246.43 118.43 254.57 118.33 
M 246.02 119.78 254.82 120.81 
M 250.95 149.99 253.27 148.86 257.65 144.59 260.48 139.76 260.48 136.77 257.65 131.94 253.27 127.67 250.74 126.44 
M 246.21 136.15 255.61 134.61 
M 246.69 137.82 255.06 138.3 
M 246.9 140.86 254.96 141.69 
M 250.88 182.82 253.21 181.19 257.16 175.68 259.71 169.43 259.71 165.56 257.16 159.31 253.21 153.8 250.95 152.22 
M 247.58 163.98 254.85 162.63 
M 247.23 167.5 255.3 167.43 
M 247.16 170.44 255.34 172.35 
M 256.48 211.82 257.4 210.48 260.03 203.74 260.03 199.57 257.4 192.83 253.32 186.88 250.88 185.1 
M 246.89 198.65 255.1 196.72 
M 247.5 202.03 255.36 201.73 
M 246.89 205.52 255.26 206.44 
M 259.47 137.21 262.45 136.12 267.16 132.69 270.19 128.8 270.19 126.4 267.16 122.51 262.45 119.08 258.78 117.74 
M 259.73 166.9 263.45 164.97 268.21 160.03 271.28 154.43 271.28 150.97 268.21 145.38 263.45 140.44 259.73 138.51 
M 259.8 200.8 263.44 198.56 268.09 192.83 271.1 186.33 271.1 182.31 268.09 175.82 263.44 170.08 259.8 167.85 
M 268.7 210.88 268.33 210.1 263.61 204.37 259.93 202.13 
M 267.28 122.96 269.13 122.25 272.58 119.6 273.91 117.81 
M 270.18 150.47 272.39 149.16 276.17 144.67 278.61 139.58 278.61 136.44 276.17 131.36 272.39 126.87 269.44 125.12 
M 270.02 182.44 272.45 180.67 276.2 175.18 278.62 168.96 278.62 165.12 276.2 158.9 272.45 153.41 270.18 151.76 
M 276.05 210.02 278.5 203.19 278.5 199 276.08 192.22 272.34 186.24 270.02 184.39 
M 277.73 135.91 280.43 134.84 285.04 131.21 288.02 127.09 288.02 124.54 285.94 121.66 
M 278.64 166.18 282.24 164.22 286.84 159.21 289.81 153.53 289.81 150.01 286.84 144.34 282.24 139.32 278.64 137.37 
M 278.62 199.89 282.24 197.64 286.89 191.86 289.88 185.32 289.88 181.28 286.89 174.74 282.24 168.97 278.62 166.71 
M 286.83 208.58 282.91 203.73 279.27 201.48 
M 288.75 149.15 290.77 147.93 294.58 143.34 297.04 138.14 297.04 134.91 294.58 129.71 290.77 125.12 287.79 123.32 
M 284.47 133.84 292.51 132.73 
M 285.07 136.23 293.01 136.63 
M 284.98 138.8 292.72 140.24 
M 288.81 180.59 290.94 179.13 294.95 173.64 297.53 167.43 297.53 163.59 294.95 157.38 290.94 151.89 288.75 150.39 
M 295.41 207.04 297.38 201.71 297.38 197.41 294.81 190.46 290.83 184.32 288.81 182.77 
M 297.07 136.12 301.03 134.77 306.1 131.33 308.21 128.81 
M 293.32 124.03 293.53 124.02 
M 293.21 126.49 300.53 126.14 
M 293.6 128.6 303.15 129.45 
M 298.23 165.86 302.01 163.92 306.85 158.92 309.98 153.27 309.98 149.77 306.85 144.12 302.01 139.12 298.23 137.17 
M 295.01 148.82 304.62 146.94 
M 294.25 151.09 304.31 151.11 
M 294.49 154.6 304.6 155.7 
M 298.61 200.09 302.38 197.83 307.2 192.04 310.31 185.49 310.31 181.43 307.2 174.88 302.38 169.09 298.61 166.83 
M 295.34 180.38 304.94 178.71 
M 294.94 183.04 304.48 183.54 
M 295.16 186.47 304.85 188.86 
M 303.79 205.22 302.61 203.75 299 201.51 
M 308.86 148.23 310.96 147.16 315.12 142.91 317.81 138.09 317.81 135.11 315.98 131.83 
M 304.75 133.95 312.86 132.67 
M 304.74 136.31 312.62 136.35 
M 304.7 139.2 312.9 140.28 
M 309.6 183.64 312.85 181.44 317.02 175.81 319.71 169.42 319.71 165.47 317.02 159.09 312.85 153.45 309.6 151.25 
M 306.41 164.56 315.21 162.25 
M 306.29 167.78 314.79 167.41 
M 306.87 171.05 314.8 172.38 
M 318.83 201.92 318.83 199.26 316.3 192.59 312.38 186.7 309.32 184.4 
M 306.59 198.05 314.55 196.48 
M 306.35 201.65 314.48 201.62 
M 318.95 137.52 322.84 136.26 324.38 135.27 
M 319.13 166.51 322.92 164.62 327.77 159.77 330.9 154.28 330.9 150.89 327.77 145.4 322.92 140.55 319.13 138.66 
M 315.7 149.76 325.4 148.18 
M 315.45 152.89 325.61 152.78 
M 315.15 155 324.81 157.09 
M 318.87 199.99 322.44 197.8 327.02 192.2 329.97 185.84 329.97 181.91 327.02 175.56 322.44 169.96 318.87 167.77 
M 315.43 181 324.4 178.91 
M 315.01 183.68 324.47 183.61 
M 315.65 187.41 324.47 188.89 
M 319.41 201.79 317.93 200.8 
M 329.78 150.67 332.68 149.13 336.63 144.91 338.71 141.02 
M 329.64 182.79 332.67 180.74 336.55 175.47 339.05 169.5 339.05 165.8 336.55 159.84 332.67 154.57 329.78 152.6 
M 334.88 197.57 334.88 197.12 332.76 190.74 329.49 185.11 328.91 184.61 
M 338.77 165.88 342.17 164.05 346.53 159.35 349.33 154.03 349.33 150.74 346.53 145.42 344.49 143.23 
M 336.57 197.08 339.74 195.02 343.85 189.65 346.5 183.58 346.5 179.82 343.85 173.74 339.74 168.38 338.16 167.35 
M 334.79 197.6 334.12 197.13 
M 348.33 148.05 349.88 147.06 350.96 145.69 
M 348.58 181.23 351.19 179.26 354.52 174.22 356.68 168.52 356.68 164.99 354.52 159.28 351.19 154.24 348.58 152.28 
M 348.74 193.25 348.74 191.36 346.67 185.11 345.55 183.18 
M 355.64 161.47 358 160.11 361.98 155.5 364.3 150.8 
M 351.67 146.01 351.74 145.99 
M 351.9 148.64 358.31 148.53 
M 351.53 150.9 359.97 152.52 
M 355.34 191 359.27 185.61 361.84 179.41 361.84 175.58 359.27 169.38 355.91 164.77 
M 361.38 174.41 363.83 172.41 366.97 167.3 368.99 161.51 368.99 157.93 366.97 152.14 366.7 151.7 
M 360.8 156.36 365.15 154.93 
M 358.79 159.66 365.55 159.52 
M 358.98 162.68 365.25 163.72 
M 366.27 187.29 364.18 181 360.92 175.4 
M 358.86 185.59 362.4 184.97 
M 355.65 189.92 357.84 190.15 
M 365.47 171.56 369.16 170.83 
M 365.46 173.99 369.16 174.06 
M 365.16 176.84 369.16 177.26 
M 141.53 131.96 141.53 131.96 
M 157.89 212.72 158.47 211.78 160.79 205.17 
M 160.18 213.28 165.9 212.56 
M 173.03 216.21 176 210.55 176.78 207.95 
M 169.93 122 169.93 122 
M 175.96 214.03 185.3 211.91 
M 176.64 216.97 185.06 217.59 
M 192.91 220.73 190.56 219.02 
M 197.61 114.45 197.61 114.45 
M 215.85 224.19 213.62 220.76 210.54 218.38 
M 235.55 111.4 235.55 111.4 
M 229.39 216.45 232.1 214.7 234.07 212.16 
M 235.77 218.12 246.01 218.18 
M 250.7 218.35 253.32 216.43 256.48 211.82 
M 270.89 221.67 271.38 220.62 271.38 216.6 268.7 210.88 
M 290.6 218.01 290.6 216.08 287.58 209.52 286.83 208.58 
M 289.52 215.81 290.83 214.8 294.81 208.66 295.41 207.04 
M 308.21 128.81 308.21 128.81 
M 308.83 212.98 307.23 209.49 303.79 205.22 
M 324.93 207.97 321.12 202.92 319.41 201.79 
M 338.71 141.02 338.71 141.02 
M 339.68 202.62 337.3 199.33 334.79 197.6 
M 350.96 145.69 350.96 145.69 
M 347.32 199.52 348.74 195.23 348.74 193.25 
M 364.3 150.8 364.3 150.8 
M 351.74 145.99 351.74 145.99 
M 352.16 193.22 355.34 191 
M 366.7 151.7 366.7 151.7 
M 357.84 190.15 362.01 190.57 
M 354.91 193.94 358.54 194.77 
M 369.16 161.26 368.55 160.94 
M 195.48 114.83 196.59 112.67 197.22 109.98 198.43 102.24 199.08 99.5 200.1 93.71 201.13 90.55 202.28 87.97 202.55 85.46 204.21 82.72 205.73 76.28 207.58 73.37 209.03 70.34 209.49 68.38 211.99 64.64 213.25 61.65 215.13 59.64 216.81 57.13 218.53 56.37 219.68 54.6 220.37 51.85 221.9 49.96 224.79 48.53 226.39 46.13 227.49 43.93 230.57 42.91 232.92 41.51 234.07 38.89 235.32 36.67 237.2 34.1 239.86 32.11 243.48 30 240.14 36.9 240.15 39.55 239.88 41.92 241.83 48.82 242.01 51.04 241.98 54.18 243.13 56.67 243.92 58.83 244.72 61.71 247.12 68.19 248.93 78.16 248.89 82.95 249.03 85.57 250.56 89.03 251.51 91.92 254.1 96.21 257.67 100.3 259.17 103.52 259.75 105.97 262.26 111.24 262.25 112.49 262.57 113.73 263.29 114.71 
M 262.68 114.54 262.68 114.54 
M 199.87 114.05 200.93 111.86 201.47 109.24 201.76 106.83 202.43 104.57 203 101.7 203.31 99 203.41 95.93 205.65 90.61 206.23 88.06 206.44 85.71 207.56 83.84 208.09 81.54 209.31 78.67 209.89 75.3 211.2 72.26 211.7 70.34 216.68 62.53 217.91 59.74 220.66 58.72 221.26 57.88 225.2 54.18 226.28 52.1 
M 204.26 113.26 205.5 111.2 205.94 108.64 206.65 106.36 206.55 103.65 207.71 98.4 207.93 95.52 208.92 92.87 209.72 89.86 210.65 87.47 213.73 81.45 214.63 75.92 214.23 74.33 217.49 69.37 220.04 64.72 222.23 62.87 223.57 62.25 225.74 60.59 228.27 57.74 
M 208.67 112.63 209.74 110.43 210.28 107.97 210.4 100.92 211 97.71 212.14 94.85 215.51 88.38 216.67 85.83 217.98 83.85 218.81 81.36 218.85 77.33 221.19 71.18 224.72 68.03 229.3 65.67 231.68 64.08 235.02 61 236.61 57.47 
M 213.09 112.03 214.44 109.63 214.91 107.23 215.25 99.47 216.18 96.81 219.17 90.76 220.25 87.36 221.53 85.47 223.56 80.66 225.01 78.02 225.78 74.63 227.21 71.97 229.79 70.43 231.94 69.96 
M 217.54 111.74 218.65 109.65 219.82 104.59 220.23 101.51 221.26 99.31 221.89 97.13 222.8 95.01 224.38 90.2 227.29 82.55 229.2 80.58 230.53 77.78 232.81 75.37 235.34 73.91 
M 222 111.61 222.75 109.66 223.12 106.82 225.84 99.47 227.03 96.73 227.72 94.19 228.6 92.06 230.29 90.19 231.73 87.71 232.74 85.34 234.06 84.53 238.68 80.53 
M 226.45 111.52 227.41 109.69 229.42 101.11 230.25 98.48 232.32 94.2 233.53 92.28 235.29 89.78 237.06 88.54 238.92 87.66 241.43 87.2 244.3 85.53 
M 230.91 111.47 232.68 110.16 233.27 107.34 233.72 104.06 235.54 98.48 237.19 94.39 238.37 92.21 240.77 91.33 243.41 90.88 245.33 89.59 
M 235.37 111.4 236.94 110.2 237.15 107.36 237.71 104.34 239.33 101.72 
M 239.83 111.29 240.6 109.97 240.48 107.14 243.66 102.39 246.05 100.09 
M 244.29 111.28 245.28 109.82 246.55 107.32 248.72 105.79 251.33 104.74 254.33 103.77 
M 248.72 111.8 250.92 109.98 252.46 108.34 255.7 108.62 
M 253.14 112.32 256.14 111.18 
M 257.49 113.33 263.45 114.61 
M 142.46 175.53 144.18 174.9 147.27 174.06 150.74 173.98 154.3 174.55 156.94 174.01 159.61 172.57 161.82 171.97 163.96 170.7 186.13 166.27 188.24 166.42 193.99 168.24 194.43 169.6 195.81 171.99 197.26 173.77 201.13 176.91 201.04 179.61 201.27 182.78 200.43 185.51 197.84 186.68 195.7 188.31 197.8 190.55 199.94 193.21 199.78 197.33 198.17 199.5 194.64 203.11 190.68 206.16 185.51 207.58 182.21 207.41 178.61 208.09 163.96 206.98 161.14 205.25 157.17 204.42 154.61 203.03 152.16 201.05 148.97 198.93 145.91 197.46 141.76 194.48 
M 142.45 176.71 143.74 176.55 146.69 175.75 153.52 175.73 155.67 175.45 159.02 174.72 163 172.25 165.46 171.31 168.83 170.95 
M 146.74 178.06 150.12 177.79 153.22 177.81 156.07 177.28 158.58 177.08 161.15 175.77 163.23 174.43 166.28 173.87 169.86 174.52 
M 143.84 179.63 146.78 179.55 150.14 179.94 152.8 179.83 158.11 178.92 160.57 177.99 166.68 176.89 170.65 177.12 174.3 177.75 177.15 177.86 179.31 176.62 181.54 175.08 184.82 174.27 187.44 173.44 190.21 173.54 
M 146.74 181.34 150.32 181.84 152.75 181.82 158.04 181.12 163.96 180.71 167.51 179.96 170.73 180.42 174.1 181.13 177.16 181.09 179.74 180.43 
M 144.01 183.16 146.99 183.28 152.83 184.06 155.05 184.11 158.58 183.85 164.25 184.31 167.42 183.57 170.59 183.73 173.8 184.37 176.38 184.39 177.86 183.19 179.54 183.02 182.42 183.33 188.71 183.35 190.48 182.83 
M 147.1 185.38 152.86 186.43 159.29 186.4 165 187.43 167.67 187.3 170.81 187.45 174.42 187.22 179.43 188.09 181.78 187.38 
M 141.46 186.23 146.73 187.11 149.8 188.27 153.29 188.41 156.12 189.15 159.38 188.98 165.33 189.51 167.81 190.3 171.07 190.8 174.19 190.94 176.9 191.71 182.48 192.87 185.12 193.02 187.09 193.45 188.82 193.2 190.85 192.63 194.53 193.57 197.6 193.13 
M 146.97 189.2 150.33 190.09 153.83 190.75 156.97 191.65 159.41 191.42 162.12 191.47 168.41 193.19 170.26 194.83 176.51 195.61 179.18 195.61 182.29 196.47 185.84 197.14 
M 141.78 189.58 146.8 190.85 150.23 192.18 153.9 193.01 159.5 194.77 165.25 195.76 170.65 197.6 173.42 198.11 
M 143.66 191.82 146.39 192.87 149.91 193.78 152.88 195.19 155.35 197.19 158.35 197.72 167.84 200.63 169.82 201.52 172.86 201.9 175.73 201.64 178.86 202.58 181.44 203.79 
M 143.55 193.62 146.13 194.85 149 195.81 154.16 199.9 157.51 200.88 
M 205.08 228.91 208.13 234.68 209.87 238.56 213.33 241.63 226.42 266.13 225.55 269.04 223.32 270.58 221.55 272.58 220.31 274.97 219.57 277.76 218.27 280 214.76 276.56 212.56 274.66 205.84 273.72 203.57 275.04 200.98 275.35 194.81 266.65 192.71 263.29 189.09 258.44 181.98 251.1 170.28 229.63 168.67 224.8 166.68 219.73 
M 200.72 227.99 203.38 231.69 204.96 234.59 207.45 240.63 209.7 243.1 211.81 244.78 213.76 246.63 214.85 248.92 215.83 251.7 
M 196.35 227.08 198.76 230.34 200.67 233.43 202.26 236.24 203.34 239.08 204.93 241.58 209.97 249.19 211.84 251.11 212.33 254.71 
M 192.01 226.05 194.14 229.14 195.82 232.09 200.77 242.72 204.02 247.76 205.71 250.92 206.66 253.32 208.48 256.14 208.85 259.48 209.42 261.84 210.52 264.08 212.41 266.52 
M 187.68 224.99 189.97 227.76 191.05 230.81 193.67 235.98 194.73 239.15 198.59 246.86 199 249.99 200.28 253.48 
M 183.36 223.88 185.23 226.95 186.64 229.71 188.52 235.18 190.73 240.69 194.72 245.42 195.46 251.56 196.51 255.38 
M 179.06 222.72 181.22 225.83 182.59 228.75 183.68 231.85 185.24 237.39 185.68 239.68 187.14 242.65 189.69 245.05 190.49 247.29 190.02 249.87 
M 174.74 221.61 176.78 225.34 177.97 228.14 178.89 231.09 180.24 234.28 181.16 237.11 182.76 239.67 182.95 243.35 
M 170.4 220.6 175.43 233.54 176.96 236.77 178.44 239.35 178.87 241.63 179.9 245.1 180.22 247.37 
M 349.07 201.64 352.54 206.74 356.45 209.06 358.38 210.79 363.8 220.51 361.37 225.35 359.84 227.57 355.43 230.73 354.61 233.69 352.83 235.4 349.88 235.99 345.11 238.69 341.64 238.68 338.89 238.27 335.95 238.31 333.78 239.28 331.76 240.51 326.01 241.75 323.6 242.9 321.8 244.89 317.83 247.64 315.36 248.57 313.06 249.85 309.92 249.75 307.91 249.09 305.47 248.01 301.34 247.51 298.16 246.23 295.62 245.66 292.74 244.75 289.86 244.32 287.65 244.8 284.7 244.5 282.16 244.45 279.62 243.95 268.24 238.68 267.11 236.56 266.02 233.17 262.68 228.66 
M 345 203.46 348.51 207.23 354.17 212.28 355.71 214.42 358.21 216.78 
M 340.93 205.28 344.19 208.81 346.72 211.25 353.79 219.31 
M 336.82 207.02 340.24 210.53 342.55 213.44 344.83 215.7 346.93 218.08 349.34 221.18 351.63 223.55 
M 332.7 208.71 336.42 211.48 340.76 216.59 342.52 219.51 345.1 221.5 347.51 223.97 349.67 226.59 350.12 229.58 
M 328.56 210.38 334.61 215.1 336.11 217.56 338.34 220.06 341.01 222.57 343.38 225.26 
M 324.41 211.99 329.76 217.03 332.35 218.84 334.44 221.02 336.15 223.63 338.76 225.78 
M 320.25 213.6 323.69 216.39 325.96 218.55 327.85 221.17 329.61 223.17 330.9 225.56 337.25 232.58 341.22 236.36 
M 316.02 215.02 320.92 220.9 323.38 223.28 327.37 228.09 
M 311.8 216.45 318.47 225.22 321.08 227.86 322.64 230.08 324.85 232.33 326.31 235.18 328.32 237.09 331 239.19 332.85 239.58 
M 307.55 217.8 310.42 221.4 312.7 223.98 316.73 228.15 
M 303.3 219.13 306.15 222.8 309.69 227.96 311.83 230.3 313.63 232.63 317.83 236.28 
M 299.04 220.46 303.91 227.23 310.9 234.08 314.14 238.24 316.12 239.57 
M 294.78 221.78 299.88 227.95 302.24 231.14 306.98 235.26 309.34 238.03 310.82 239.94 312.14 243.26 
M 290.5 223.03 293.82 226.51 295.77 229.17 298.3 231.63 300.09 234.34 302.06 236.83 
M 286.15 224.03 289.15 227.92 291.35 230.32 292.75 232.46 294.49 235.67 297.11 237.83 
M 281.81 225.02 284.54 229.13 286.44 231.55 287.99 234.13 289.82 236.67 
M 277.44 225.9 279.73 230.41 282.4 232.78 284.96 234.57 286.47 237.45 
M 273.06 226.77 275.97 230.96 280.88 236.46 282.78 239.06 283.69 241.3 285.23 243.27 
M 268.68 227.58 271.55 232.16 273.62 234.54 
M 368.27 152.3 371.03 151.38 380.97 146.54 383.1 144.88 385.35 143.78 389.87 140.14 392.27 138.57 394.94 137.42 399.38 134.78 401.51 133.22 404.23 132.23 408.76 129.37 411.08 128.2 412.89 127.08 414.91 125.65 418.94 122.2 421.26 119.35 426.32 116.83 428.97 116.03 430.04 114.13 431.38 112.26 434.57 110.99 437.21 110.59 444.22 109.02 445.69 107.54 448.98 105.74 450.88 103.45 453.57 101.32 456.11 100.13 457.26 98.23 458.69 97.6 459.68 95.34 463.16 94.27 465.29 92.31 467.18 90.3 469.07 89.29 471.89 86.63 475.61 86.41 474.88 97.17 473.76 99.43 473.02 102.06 472.62 105.04 472.58 108.37 471.47 113.42 471.42 116.35 471.14 119.04 468.82 123.35 468.62 126.76 467.71 129.44 466.57 131.17 465.72 136.03 465.86 139.18 463.63 146.98 463.35 149.76 462.63 152.09 462.11 154.61 461.16 156.54 461.86 161.88 461.66 167.83 461.1 170.33 460.8 172.95 459.55 174.61 459.14 177.05 459.25 179.77 459.64 182.76 461.06 189.27 461.29 192.13 461.2 194.91 460.22 196.81 459.53 198.99 460.1 201.74 463.1 210.11 463.33 212.07 466.06 220.3 465.99 222.12 466.31 224.34 467.54 229.01 470.51 237.37 473.56 244.18 473.7 246.76 472.84 248.41 472.9 250.98 473.57 257.22 475.73 267.78 471.75 263.87 468.44 261.97 466.01 260.28 460.55 255.45 458.59 253.2 456.18 252.19 453.88 250.71 451.71 248.41 449.68 246.96 448.16 247.48 445.82 246.7 443.76 244.18 442.07 243.49 439.14 241.71 435.14 238.84 432.94 236.6 430.11 235.08 427.88 234.17 425.79 233.6 424.54 232.19 420.01 228.45 416.81 226.85 413.94 226.05 411.89 224.58 410.37 222.79 408.38 221.18 405.64 219.97 403.44 217.86 401.16 216.39 398.88 214.49 397.16 212.79 394.58 211.07 391.97 209.81 390.1 208.22 387.45 206.51 385.01 204.67 380.93 200.98 378.99 199.55 371.09 194.72 368.27 192.67 
M 373.64 152.5 379.15 150.25 381.37 149 386.35 146.83 390.81 143.9 395.53 141.04 397.93 139.87 399.97 138.51 402.59 137.18 404.54 136.51 407.23 135.08 411.88 133.22 415.09 131.65 417.28 131 419 128.79 421.35 126.44 425.9 122.79 428.68 121.64 435.95 118.14 438.42 117.3 441.15 117.11 446.83 113.53 449.57 112.46 451.18 110.89 453.05 110.3 456.59 108.82 458.51 106.48 460.9 104.65 463.03 103.27 464.6 103.59 465.72 102.75 
M 371.19 155.86 376.28 153.72 379.15 152.78 381.81 151.46 384.19 150.67 386.65 149.54 389.14 148.06 391.58 146.01 396.03 144 398.35 142.59 400.86 141.8 405.97 140.78 407.74 138.9 410.21 137.54 415.34 135.84 420.59 132.34 422.97 131.44 425.66 129.97 428.94 128.54 431.41 127.7 434.2 127.19 435.74 125.8 437.14 125.98 441.32 124.96 444.06 122.86 447.47 121.95 451.17 120.63 
M 373.98 157.19 379.09 155.12 381.74 153.82 386.52 152.72 394.73 148.32 397.45 147.09 399.73 146.3 402.51 145.72 405.12 144.77 410.72 143.34 412.05 142.21 416.61 140.1 418.86 138.42 
M 376.88 158.65 379.47 157.61 386.82 155.62 389.34 154.34 392.39 153.32 395.36 151.66 400.59 150.87 403.53 149.65 406.45 149.07 411.15 148.49 414.18 147.78 416.65 146.94 419.83 145.19 422.86 143.85 426.15 141.51 427.79 141.12 430.84 139.9 433.72 139.13 436.98 139.3 439.39 137.88 440.89 136.58 445.43 135.69 448.48 134.15 
M 368.27 162.39 371.33 162.12 374.43 161.46 377.19 161.08 379.91 160.4 382.52 160.21 387.58 158.64 390.31 157.5 392.96 156.8 398.44 154.51 401.21 153.83 406.97 152.75 409.04 152.92 411.49 152.85 414.64 152.4 417.49 151.54 420.14 149.77 424.47 148.7 
M 368.27 164.41 371.32 164.17 380.21 162.96 385.56 162.87 388.31 162.47 391.1 161.63 393.88 160.37 396.92 159.7 399.5 158.56 402.31 157.83 407.94 156.74 410.36 156.88 416.6 156 418.17 154.8 421.2 154.67 425.04 155.17 427.34 154.33 431.23 152.1 
M 371.47 166.48 377.37 166.04 380.47 165.47 385.62 165.85 388.57 165.72 397.99 164.22 400.84 163.35 403.35 163.14 406.09 163.25 408.65 162.55 410.8 161.61 413.01 161.16 415.49 160.98 419.05 161.06 422.59 160.43 426.2 160.36 427.68 159.61 431.34 157.17 
M 377.61 168.83 380.52 168.29 383.12 168.26 386.03 168.65 391.82 168.33 395.07 168.44 398.02 168.35 401.01 167.63 403.7 167.53 406.61 167.72 408.12 167.32 409.79 167.12 412.65 166.08 415.6 165.93 419.31 166.73 423.34 166.56 426.22 165.92 428.51 165.07 429.65 163.93 430.95 163.25 434.67 163.49 438.24 164.62 440.38 163.92 445.14 163.01 451.12 161.33 455.44 161.78 458.86 162.53 
M 368.27 170.46 371.6 171.05 374.85 171.29 386.7 170.94 392.37 171.21 395.25 171.74 397.94 171.95 403.04 171.79 404.95 171.23 409.91 172 413.16 171.07 416.51 171.13 419.55 171.78 425.96 170.53 428.58 170.57 430.27 169.87 431.95 169.66 
M 371.6 173.21 378.08 173.85 380.84 173.87 387.05 173.58 392.63 174.69 395.71 174.91 400.19 175.63 402.05 175.68 404.29 176.52 407.43 176.59 412.78 175.88 419.49 176.67 421.35 176.15 426.42 176.04 428.77 175.63 431.51 174.63 435.64 175.49 439.57 176.62 443.23 176.67 445.92 176.52 
M 368.27 174.5 371.5 175.38 377.85 175.88 383.55 177.2 386.54 177.16 389.27 177.57 391.95 178.38 397.14 179.04 400.03 179.23 405.45 179.07 408.95 179.63 416.16 179.53 418.84 180.39 425.46 181.81 427.95 180.93 
M 371.47 177.39 377.72 178.3 383.05 179.95 385.92 180.21 388.65 180.76 391.19 180.78 393.93 181.98 399.85 183.37 403.5 183.25 406.67 182.85 411.32 184.27 416.26 184.09 418.88 184.84 
M 371.65 179.7 377.39 180.83 388.21 183.76 390.84 183.9 393.82 185.64 396.81 186.53 399.58 186.38 405.99 187.21 408.4 187.75 411.05 188.81 413.51 189.5 416.77 189.74 419.8 190.68 427.03 191.84 428.6 192.57 430.18 194.1 433.78 195.16 437.28 195.75 438.3 196.42 440.27 197.38 444.65 196.66 450.81 197.86 453.1 197.9 455.08 198.55 457.57 199.96 
M 377.49 183.34 380.19 184.16 382.57 185.24 385.09 186.1 390.81 187.45 393.67 188.75 399.33 189.92 402.2 189.99 408.41 190.55 411.64 192.23 414.02 194.46 416.9 195.48 419.02 195.59 421.08 196.17 423.39 197.25 
M 371.58 183.98 377.17 185.9 379.71 186.94 382 188.18 387.86 189.81 390.34 190.89 393.88 191.86 397.14 192.27 399.59 193.65 402.04 194.22 404.41 194.33 410.48 196.5 413.27 198.27 416.15 199.7 418.35 200.35 420.66 201.57 422.06 203.21 424.23 203.89 427.81 204.59 433.51 207.36 435.3 207.04 438.23 207.23 441.18 207.98 443.94 209.28 446.04 209.76 448.54 209.41 451.67 208.65 
M 368.27 184.59 387.53 193.05 395.69 196.96 401.08 198.04 403.83 198.22 406.25 198.99 409.16 201.15 412.15 203.1 414.65 204.44 418.54 205.49 426.45 208.46 428.76 210.3 431.95 212.12 437.14 213.48 439.13 214.64 442.23 215.21 444.31 216.61 446.81 217.85 453.3 220.4 456.06 220.8 459.56 220.79 
M 373.93 189.65 376.22 190.55 378.9 191.84 389.1 197.12 394.02 200.56 396.51 201.57 399.61 201.46 406.1 202.83 410.18 206.36 412.61 207.32 414.75 208.59 417.13 209.5 424.19 214.01 427.72 214.68 432.56 217.64 435.93 219.11 438.77 219.63 440.12 220.97 442.67 222.17 448.78 225.59 455.67 228.04 457.48 228.53 458.97 228.54 
M 368.27 188.63 371.28 190.51 379.03 194.3 386.2 198.71 393.11 203.39 395.99 204.77 401.02 206.68 403.82 208.02 406.36 209.91 408.57 210.21 411.09 211.47 413.47 213.57 415.58 215.03 417.51 217.18 420.06 218.5 421.57 220.2 423.99 221.87 427.69 222.39 432.84 223.75 435.13 224.87 437.51 226.56 449.46 231.8 451.49 233.99 453.47 235.8 454.91 237.46 459.63 237.76 461.9 239.55 
M 368.27 190.65 371.2 192.61 379.15 196.77 385.42 201.56 392.68 206.6 395.25 207.58 397.42 208.78 399.46 210.82 404.54 213.1 406.54 215.2 411.74 218.8 414.25 220.14 416.33 222 418.98 222.9 423.89 226 427.13 226.6 428.78 227.56 432.62 231.04 434.7 232.16 
M 55.54 171.83 55.97 170.88 57.44 168.79 59.44 166.4 61.99 163.98 65.26 161.66 69.52 159.53 74.45 157.43 79.1 155.06 83.82 152.23 89.17 149.46 94.98 147.09 107.16 142.81 117.96 139.74 128.26 137.25 131.84 140.6 133.6 144.26 135.59 147.88 137.8 151.47 139.57 155.12 140.72 158.85 142.4 166.39 142.26 170.3 142.47 174.15 142.44 178.04 141.43 185.94 141.8 189.78 141.83 197.54 141.37 201.48 140.24 205.52 137.92 209.63 125.74 208.94 116.77 207.87 108.89 206.34 101.47 204.67 94.58 202.88 88.41 200.82 82.72 198.63 77.33 196.12 72.6 193.63 68.41 190.93 
M 118.94 159.65 119.38 162.88 118.02 169.12 117.02 171.94 114.63 177.06 115.02 181.65 116.43 186.41 116.99 189.25 116.84 192.62 102.77 192.27 91.5 191.14 85.91 190.22 80.73 188.81 75.86 187 
M 66.82 190.42 63.14 186.6 59.75 183.49 56.84 180.19 53.73 177.02 52.3 175.18 52.5 172.94 54.26 171.56 56.46 172.02 57.76 173.79 62.22 181.36 68.51 190.85 
M 68.11 191.62 56.84 191.7 47.66 191.36 45.44 190.87 44.26 189.02 44.8 186.91 46.84 186.01 68.23 190.69 
M 83.52 174.08 81.12 170.71 79.94 166.75 80.11 162.63 81.61 158.78 84.28 155.62 87.83 153.51 91.87 152.66 95.97 153.17 99.68 154.99 102.6 157.91 104.42 161.62 104.93 165.72 104.08 169.76 101.97 173.31 98.81 175.98 94.97 177.48 90.84 177.65 86.88 176.48 83.52 174.08 
M 100.56 159.37 102.01 162.34 102.42 165.62 101.74 168.85 100.05 171.69 97.53 173.83 94.45 175.03 91.15 175.16 87.98 174.22 85.29 172.3 
M 88.17 168.08 87.21 166.74 86.74 165.15 86.81 163.5 87.41 161.96 88.48 160.7 89.9 159.86 91.51 159.52 93.15 159.72 94.64 160.45 95.81 161.62 96.53 163.1 96.74 164.74 96.4 166.36 95.55 167.78 94.29 168.84 92.75 169.45 91.1 169.51 89.52 169.04 88.17 168.08 
M 87.46 165.42 91.54 169.5 
M 90.3 165.85 93.57 169.12 
M 88.14 161.28 95.06 168.2 
M 90.45 161.18 96.11 166.84 
M 92.53 160.85 96.68 165.01 
M 94.57 160.49 95.91 161.83 
M 57.28 169.02 61.59 173.33 
M 59.73 166.12 62.61 169 
M 62.55 163.59 66.07 167.11 
M 65.74 161.43 69.11 164.8 
M 69.3 159.64 72.43 162.77 
M 73.04 158.03 77.77 162.76 
M 76.66 156.3 80.92 160.55 
M 80.14 154.43 82.93 157.22 
M 83.49 152.43 85.79 154.73 
M 86.99 150.58 89.56 153.15 
M 90.63 148.86 93.47 151.71 
M 94.43 147.31 97.94 150.82 
M 98.35 145.88 103.04 150.58 
M 102.3 144.48 105.2 147.38 
M 106.28 143.11 109.64 146.47 
M 110.36 141.84 113.55 145.03 
M 114.52 140.65 117.42 143.55 
M 118.75 139.53 123.82 144.61 
M 123.02 138.45 126.99 142.42 
M 127.37 137.45 130.64 140.72 
M 125.26 199.59 123.64 197.5 122.81 196.68 122.57 196.28 122.58 195.47 123 194.52 123.74 193.83 125.04 193.24 126.27 193.06 
M 123.53 194.3 124.76 193.54 125.89 193.23 128.96 192.88 129.92 193.01 
M 95.05 203 95.32 202.36 
M 123.98 164.32 124.11 165.76 124.77 167.3 125.48 167.85 127.13 168.48 
M 112.92 201.74 114.17 201.6 114.72 201.76 115.45 203.49 
M 109.43 160.26 107.67 161.25 106.53 162.56 106.07 163.73 105.35 166.63 105 167.4 
M 85.1 186.19 85.9 186.25 88.48 185.53 88.82 185.11 89.02 184.3 
M 103.6 159.95 104.44 160.95 105.13 162.82 105.31 163.91 105.24 164.95 
M 122.95 141.27 122.34 142.14 121.26 142.36 118.75 141.94 115.77 141.86 114.37 141.38 
M 117.51 141.61 115.6 141.58 114.84 141.38 113.89 140.82 
M 85.55 199.72 87.83 199.3 88.45 199.02 89.7 197.76 92.56 195.81 
M 94.86 202.95 95.2 202.27 95.96 201.84 
M 107.83 199.96 110.44 197.9 111.06 197.21 111.84 195.56 112.18 193.19 111.01 188.47 
M 119.41 206.87 117.05 207.1 115.92 206.87 
M 130.81 194.09 129.97 194.06 129.51 193.86 129.52 193.52 129.86 193.2 
M 67.85 162.11 66.75 160.92 
M 108.42 155.62 106.16 154.27 104.76 152.87 103.78 151.35 103.22 151.24 
M 64.39 184.55 65.3 182.27 66.83 180.54 68.27 178.3 68.94 177.86 70.85 177.07 
M 88.3 200.78 91.03 197.63 94.45 194.65 
M 72.62 161.19 71.79 161.56 70.37 161.64 68.96 161.29 67.49 160.55 
M 64.14 169.8 65.89 171.78 67.56 172.89 
M 118.17 146.26 117.15 145.82 115.55 144.66 114.09 144.29 113.22 144.21 106.97 144.88 
M 139.53 155.05 138.12 154.36 132.55 152.49 131.76 152.54 131.09 153.04 
M 118.68 165.55 120.67 166.09 122.68 165.42 123.33 165.6 
M 67.03 188.53 67.12 186.64 68.06 184.98 
M 87.17 176.56 86.52 178.78 86.16 179.52 83.29 182.49 
M 107.73 186.75 107.55 185.23 107.17 184.79 105.59 184.55 104.53 184.74 
M 114.02 156.39 110.19 156.91 109.19 156.94 108.29 156.77 105.8 155.87 104.08 154.31 
M 100.57 188.5 100.2 191.89 99.75 192.81 99.11 193.38 97.27 194.19 96.53 194.39 96.19 194.29 
M 98.62 190.72 98.38 192.45 98.06 193.04 96.83 194 96.34 194.13 96.19 193.86 
M 114.05 198.53 114.69 197.56 114.96 196.39 114.66 193.74 
M 134.14 204.32 134.38 202.94 134.17 202.4 133.61 201.94 132.15 201.24 131.32 200.46 130.99 199.95 
M 99.26 178.86 99.32 180.3 98.59 182.66 98.58 184.81 97.09 187.54 
M 123.36 170.98 126.03 170.26 128.83 170.18 130.17 170.56 
M 61.91 180.86 66.85 177.31 69.61 176.42 70.99 175.81 
M 99.99 145.3 101.78 146.38 102.51 147.04 102.68 148.04 102.42 149.24 
M 140.73 179.47 138.5 181.05 137.22 181.66 131.03 183.14 
M 95.78 191.88 96.27 191.92 96.56 192.13 96.85 192.7 96.78 193.59 96.47 193.93 96.23 193.91 
M 82.56 152.98 84.92 154.38 85.35 154.98 
M 122.53 179.19 122.64 178.79 122.52 177.01 123.28 175.99 
M 97.58 179.27 98 179.83 98.19 180.61 98.09 182.59 98.22 184.9 96.89 187.61 
M 77.27 176.66 76.65 176.12 76.25 175.41 76.25 173.5 76.79 172.86 77.51 172.51 78.97 172.56 
M 120.75 181.9 119.57 181.12 118.73 179.96 117.72 177.48 117.77 176.46 
M 108.53 196.08 109.08 194.85 110.01 191.81 110.23 190.54 110.33 189.13 110.22 188.36 109.4 186.62 
M 141.26 196.72 141.06 197.39 140.79 197.63 138.48 197.89 136.9 198.38 
M 127.58 198.88 126.02 196.2 125.72 195.43 125.81 194.87 126.59 194.16 128.2 193.29 129.82 193.06 
M 102.34 153.13 103.15 152.93 103.45 152.58 103.41 151.71 103.19 151.53 102.8 151.6 
M 90.57 201.54 91.93 200.82 93.17 200.46 94.64 200.68 
M 83.53 190.69 84.38 190.87 84.96 190.81 87.5 189.78 88.11 189.33 88.61 188.69 88.93 187.96 
M 68.42 190.93 69 191.66 
M 62.47 185.98 62.04 186.57 61.77 187.75 62.37 186.99 63.18 186.64 
M 57.34 180.77 55.79 182.39 55.09 184.54 56.13 182.81 58.09 181.64 
M 52.48 175.41 49.55 178.21 48.41 181.33 49.88 178.63 53.26 176.41 
M 68.2 190.93 69.33 191.06 
M 60.92 189.17 61.45 187.86 62.3 187.01 61.98 187.92 62.21 189.42 
M 53.99 187.6 54.71 184.78 56.16 183.05 55.24 184.85 55.31 187.9 
M 47.07 186.05 47.97 181.71 50.02 179.1 48.51 181.77 48.4 186.29 
M 53.84 191.62 58.95 193.91 62.75 195.34 66.61 196.46 70.53 197.28 74.52 197.87 82.72 198.63 
M 129.5 136.72 139.02 146.24 
M 134.62 134.7 144.89 144.98 
M 139.73 132.68 147.92 140.87 
M 144.82 130.64 153.63 139.45 
M 149.99 128.67 157.3 135.99 
M 155.23 126.78 161.43 132.99 
M 160.56 124.97 168.98 133.4 
M 165.93 123.21 176.52 133.8 
M 171.42 121.57 176.88 127.03 
M 176.92 119.94 182.83 125.84 
M 182.37 118.26 192.85 128.73 
M 187.93 116.67 197.01 125.76 
M 193.66 115.28 202.04 123.65 
M 199.61 114.09 207.42 121.9 
M 205.69 113.03 215.81 123.16 
M 211.97 112.18 219.1 119.32 
M 218.63 111.7 229.24 122.32 
M 225.58 111.53 231.2 117.15 
M 232.64 111.46 242.17 120.98 
M 239.61 111.29 248.08 119.76 
M 247.06 111.61 255.28 119.82 
M 255.45 112.86 265.97 123.38 
M 264.9 115.17 273.87 124.14 
M 275.03 118.17 285.4 128.54 
M 285.52 121.53 295.54 131.55 
M 295.85 124.72 305.96 134.84 
M 306.45 128.19 313.17 134.91 
M 318.08 132.68 328.45 143.05 
M 330.17 137.64 336.37 143.85 
M 341.91 142.25 349.22 149.56 
M 353.45 146.66 362.22 155.43 
M 364.99 151.06 371.68 157.75 
M 376.45 155.38 377.84 156.77 
M 195.53 114.74 195.56 114.82 
M 197.2 110.07 199.25 114.16 
M 198.18 103.99 202.93 113.5 
M 199.31 98.24 205.3 110.2 
M 200.48 92.55 201.68 94.94 
M 235.12 105.65 237.96 111.33 
M 234.45 96.27 241.95 111.28 
M 234.06 87.48 246.07 111.49 
M 234.29 79.91 250.33 111.99 
M 233.81 70.93 254.69 112.68 
M 234.21 63.71 259.23 113.74 
M 234.2 55.65 249.01 85.28 
M 254.97 97.18 262.26 111.77 
M 264.68 116.62 265.02 117.3 
M 235.14 49.5 248.68 76.59 
M 235.96 43.12 244.06 59.32 
M 236.17 35.51 240.57 44.32 
M 238.86 32.86 240.5 36.15 
M 241.9 30.92 242.47 32.07 
"/></svg>