<svg xmlns="http://www.w3.org/2000/svg" width="520" height="320"><rect x="0" y="0" width="520" height="320" fill="floralwhite"/><rect x="10" y="10" width="500" height="300" stroke="black" stroke-width="1" fill="none"/><path stroke="black" stroke-width="1" fill="none" stroke-linecap="round" stroke-linejoin="round" d="
M 103.59 128.58 111.28 126.4 121.33 124.22 131.51 122.76 152 120.92 172.39 118.23 182.62 117.13 192.87 116.38 203.15 115.96 213.43 115.75 223.72 115.65 244.28 115.88 264.85 115.64 275.13 115.85 285.4 116.49 295.65 117.34 316.12 119.32 326.31 120.68 336.46 122.37 356.68 126.1 366.83 127.8 376.94 129.67 386.93 132.09 396.72 135.26 405.06 139.35 
M 405.06 190.41 397.6 193.81 387.67 196.47 377.59 198.5 357.23 201.45 347.08 203.12 326.85 206.83 316.67 208.25 306.42 209.08 285.86 209.83 275.58 210.05 244.73 210.11 213.93 211.94 203.65 212.12 193.37 211.77 183.13 210.82 172.96 209.32 162.85 207.41 132.75 200.64 122.61 198.93 115.65 198.15 
M 202.61 157.87 210.68 157.79 
M 221.43 156.17 226.66 155.18 228.14 154.59 
M 230.92 153.22 232.21 152.44 235.18 151.28 238.75 150.71 240.7 150.59 
M 248.3 149.93 251.73 149.25 
M 255.13 148.57 256.88 148.29 258.89 148.28 
M 267.47 148.87 271.59 149.04 
M 275.35 148.88 280.78 148.48 292.53 148.69 296.58 148.91 299.03 149.41 
M 313.9 152.18 324.69 152.43 334.52 153.64 339.14 153.9 343.44 153.84 356.17 153.42 368.03 152.23 379.91 151.44 387.24 150.74 390.95 150.57 395.05 150.96 399.31 151.58 405.06 152.7 
M 116.73 196.16 118.3 198.45 
M 118 130.43 116.56 131.8 115.26 133.32 
M 119.73 186.71 119.98 187.12 
M 127.46 129.04 124.62 131.79 
M 121.79 134.57 114.88 142.39 
M 120.8 171.67 122.81 175.38 
M 131.58 190.89 133.99 194.96 
M 140.47 121.92 139.07 124.45 
M 128.96 136.61 123.96 142.86 
M 143.17 194.64 144.15 196.45 
M 143.42 134.37 142.11 135.83 139.18 138.47 137.9 139.97 
M 133.25 146.52 129.99 151.09 
M 131.36 153.46 134.1 158.17 
M 155.56 199.95 158.28 205.82 
M 154.47 134.33 153.81 136.43 152.9 138.29 
M 146.08 148.14 141.72 153.41 
M 163.88 197.91 168.6 208.5 
M 168.47 126.42 166.91 127.61 165.71 129.17 
M 162.32 136.8 161.61 138.86 155.75 150.3 
M 172.67 196.65 174.45 200.57 
M 175.99 204.1 177.67 207.76 
M 180.52 127.83 179.02 129.09 172.4 133.51 169.81 136.45 168.14 140.32 166.68 144.41 165.77 146.28 
M 182.86 196.95 189.81 211.44 
M 193.7 125.01 190.65 130.28 187.83 133.01 182.98 136.48 
M 175.89 146.08 174.29 150.04 
M 190.93 192.9 196.8 204.41 200.37 212.01 
M 199.54 131.55 197.68 135.28 
M 195.39 138.58 189.94 144.31 
M 187.38 147.34 185.68 149.7 
M 199 187.32 203.1 196.37 207.94 206.19 
M 209.79 210.01 210.76 212 
M 211.38 127.36 209.47 131.06 
M 207.78 134.99 205.26 140.9 203.19 144.46 200.02 149.35 
M 208.28 183.98 208.31 184.04 
M 209.76 187.5 212.73 194.49 
M 216.5 202.24 221.05 211.55 
M 219.54 130.83 217.26 134.2 
M 213.26 141.52 212.3 143.39 211.5 145.41 
M 209.9 149.47 209.1 151.5 206.5 156.6 
M 219.16 186.32 221.34 191.49 224.02 197.15 
M 225.72 200.83 227.37 204.45 
M 229.2 208.24 230.55 210.91 
M 234.82 124.31 232.22 127.39 
M 222.94 140.86 221.76 142.53 219.72 146.18 216.23 155.93 
M 221.5 170.03 222.52 172.05 224.68 177.22 
M 229.09 187.64 230.64 191.2 
M 232.12 194.67 234.63 200.16 239.67 210.36 
M 239.8 129.89 238.27 131.21 235.6 134.26 232.08 139.32 
M 229.94 142.92 228.94 144.77 227.25 148.81 224.67 155.55 
M 230.81 168.71 233.1 175.06 
M 234.27 178.26 238.55 189.65 241.57 195.7 
M 244.12 200.26 246.66 204.78 
M 248.68 208.77 249.28 210.06 
M 258.48 120.67 256.28 124.15 
M 253.79 127.36 252.43 128.87 243.25 136.91 238.99 141.27 
M 236.34 144.37 235.08 146 234.1 147.89 
M 232.68 151.11 232.24 152.43 
M 234.81 158.04 236.66 161.93 
M 238.28 165.6 239.66 169.04 
M 241.04 172.49 243.93 179.52 
M 246.55 186.28 248.36 190.14 
M 250.72 194.54 253.25 199.11 
M 255.5 203.37 258.85 210.04 
M 259.77 128.63 251.85 138 
M 249.19 141.12 245.01 145.62 242.33 148.72 241.02 150.55 
M 252.21 175.27 254.57 180.79 257.26 187.67 261.34 195.89 264.82 202.42 
M 271.02 124.23 266.09 130.8 
M 261.03 137.32 259.7 138.89 253.9 144.72 250.65 149.51 
M 252.94 154.92 256.97 163.17 
M 260.65 171.09 263.17 176.81 265.11 181.94 
M 266.46 185.4 268.15 189.2 
M 272.57 197.76 274.93 202.15 
M 278.95 209.83 279.03 209.98 
M 279.06 122.67 273.74 131.74 270.32 137.03 
M 267.8 140.33 266.46 141.91 259.84 148.21 
M 268.88 166.79 273.89 178.24 
M 275.63 182.11 283 196.82 289.14 209.74 
M 292.02 117.04 290.61 119.13 
M 285.72 125.67 283.46 129.18 
M 277.03 140.18 273.59 145.51 270.97 149.08 
M 277.51 163.05 282.29 173.19 285.73 179.83 
M 288.04 184.26 290.22 188.55 
M 293.83 196.29 297.12 204.61 299.25 209.41 
M 293.47 129.99 292.17 131.58 287.62 138.64 280.43 148.49 
M 291.47 171.12 298.72 184.66 
M 300.91 188.9 303.66 194.64 308.37 206.01 
M 305.91 127.75 302.16 132.77 297.43 139.74 290.51 148.66 
M 302.27 171.61 306.54 178.83 308.83 183.03 312.93 191.71 
M 314.47 194.99 317.84 201.68 
M 319.37 204.61 320.03 205.87 
M 321.65 122.83 320.57 124.7 318.14 128.17 313.04 134.92 310.75 138.57 308.75 142.52 306.4 146.11 301.82 149.99 
M 314.59 172.94 316.65 176.76 
M 318.31 180.12 319.85 183.33 
M 321.5 186.6 330.35 202.47 
M 332.26 121.67 331.41 123.55 
M 329.55 127.65 328.62 129.7 327.53 131.59 
M 325.27 135.33 319.51 144.6 317.32 148.43 314.58 152.27 
M 319.84 161.74 322.2 165.73 
M 326.28 172.97 334.36 187.56 339.21 195.64 
M 341.13 198.65 341.98 199.96 
M 344.13 123.79 342.66 125.58 
M 337.93 132.83 336.88 134.78 333.04 143.03 330.68 146.74 329.3 148.41 
M 326.83 151.3 325.74 152.52 
M 332.47 162.93 334.99 166.86 
M 337.15 170.4 343.75 181.54 352.42 195.57 
M 353.88 127.3 352.56 128.96 345.76 140.16 341.66 148.21 338.28 153.89 
M 346.59 166.58 348.87 170.05 
M 351.32 173.65 359.67 186.81 365.41 195.48 
M 362.12 132.18 360.75 133.78 358.47 137.45 353.26 147.31 
M 352.87 158.83 357.49 165.52 
M 360.07 169.09 363.9 174.39 368.85 181.66 
M 370.57 184.3 375.23 191.71 
M 376.41 132.07 375.19 133.76 369.5 139.82 366.8 143.06 364.28 146.52 359.97 153.01 
M 370.61 167.49 373.28 170.97 
M 375.69 174.18 379.62 179.73 
M 381.29 182.22 385.06 188.06 
M 386.36 131.96 381.93 138.85 379.4 142.12 370.21 152.08 
M 378.57 162.77 388.35 175.59 394.05 183.74 
M 391.57 140.2 387.52 144.64 380.37 151.39 
M 385.64 157.71 392.82 166.25 
M 395.09 169.02 403.1 179.15 
M 355.69 190.34 351.2 190.96 349.91 191.56 349.37 191.47 
M 376.56 132.94 375.43 132.95 372.85 134.09 371.22 134.11 370.41 133.94 368.78 133.25 367.61 132.47 366.49 131.35 
M 242.15 178.19 242.1 178.87 241.86 179.39 241.21 180.11 240.88 180.21 240.82 180.01 
M 356.54 170.99 357.99 170.66 361.53 170.27 362.28 170.7 362.68 171.23 362.53 171.98 
M 190.11 202.09 189.44 201.47 189.54 201.14 189.9 201.11 
M 377.73 190.12 377.31 180.56 376.73 178.36 375.49 176.94 374.63 176.23 
M 140.69 156.99 140.77 154.88 140.66 154.02 139.71 151.3 
M 144.64 125.23 146.2 125.27 146.92 125.12 147.4 124.74 148.09 123.59 148.26 122.95 148.32 121.92 148.13 121.25 
M 384.15 168.84 384.07 167.41 383.44 166.56 383.39 166.14 
M 273.04 145.89 272.57 146.68 272.37 147.51 272.64 149.22 273.36 150.45 274.75 151.18 
M 350.06 163.7 350.22 163.35 351.26 162.63 352 161.75 353.57 158.69 
M 140.07 125.85 139.37 127.51 138.94 127.9 135.19 128.53 
M 124.18 186.5 123.91 186.54 
M 194.28 141.63 193.18 142.27 191.93 142.7 191.43 142.62 190.43 142 
M 193.77 145.8 192.63 146.99 191.59 147.7 189.86 148.28 189.38 148.26 
M 240.61 150.35 239.88 149.21 237.81 147.55 236.03 146.42 234.93 145.97 232.43 145.36 230.33 145.42 229.1 145.79 
M 315.16 119.62 314.28 119.13 
M 119.58 171.52 120.18 171.94 
M 364.76 180.14 362.9 181.7 360.36 184.32 358.02 187.45 356.67 188.72 
M 275.75 187.52 272.32 182.47 271.99 181.66 272.16 181.11 272.9 180.34 276.74 179.13 
M 123.16 171.18 122.66 171.93 121.51 173.1 119.92 174.08 119.22 174.3 
M 271.58 120.45 270.73 121.97 270.43 122.32 269.66 122.7 268.72 122.77 265.84 122.08 263.46 122.07 
M 373.22 155.79 375.47 155.02 377.73 154.73 378.8 155.36 379.31 155.85 380.05 157.12 380.36 158.01 
M 251.67 180.11 251.77 179.77 253.15 177.92 254 175.71 
M 125.41 199.4 124.47 198.84 121.65 198.17 
M 256.26 120.92 254.01 119.45 252.98 118.57 251.29 115.79 
M 234.15 184 236 182.79 238.19 181.03 239.65 179.26 240.7 178.95 241.04 179.02 241.25 179.22 241.34 179.71 
M 349.14 200.76 348.8 201.09 348.72 201.5 349.31 202.76 
M 314.92 203.34 313.5 205.35 311.92 208.63 
M 221.55 188.7 220.43 183.6 221.01 178.98 
M 316.19 201.15 313.17 205.41 312.45 207.26 311.64 208.65 
M 168.08 120.53 167.13 121.08 166.44 121.01 165.58 120.15 165.07 119.2 
M 137.89 121.79 139.68 121.98 
M 152.77 120.42 158.54 71.98 159.54 72.08 156.37 120.34 
M 167.6 118.46 174.69 56.39 175.69 56.49 171.2 118.39 
M 182.47 116.72 193.01 50.35 194 50.49 186.07 116.79 
M 197.41 115.72 212.74 44.1 213.72 44.29 201 116.01 
M 212.37 115.33 229.72 47.85 230.69 48.08 215.95 115.73 
M 227.33 115.26 245.7 51.03 246.67 51.28 230.91 115.75 
M 242.28 115.41 262.82 43.87 263.78 44.13 245.86 115.9 
M 257.24 115.17 274.58 57.64 275.54 57.91 260.82 115.63 
M 272.21 115.2 287.82 72.6 288.76 72.92 275.76 115.88 
M 287.16 116.12 300.06 86.7 300.99 87.07 290.68 116.93 
M 306.26 117.79 307.92 118.48 
M 140.37 121.92 145.42 112.46 147.8 107.6 149.98 102.66 151.94 97.64 153.69 92.53 155.23 87.34 157.97 76.83 
M 159.22 76.94 163.39 74.67 165.34 73.4 167.15 71.98 168.79 70.38 170.26 68.62 171.6 66.71 173.98 62.6 
M 175.23 62.72 179.37 62.66 181.37 62.44 183.3 62.03 185.16 61.39 186.94 60.53 188.66 59.47 191.96 56.99 
M 193.2 57.16 197.6 57.07 199.74 56.84 201.82 56.41 203.82 55.75 205.74 54.87 207.61 53.79 211.21 51.26 
M 212.44 51.5 215.64 53.45 217.28 54.23 218.96 54.81 220.69 55.15 222.46 55.26 224.28 55.17 227.98 54.6 
M 229.2 54.89 232.24 56.72 233.79 57.44 235.38 57.96 237.01 58.25 238.68 58.3 240.39 58.15 243.87 57.45 
M 245.08 57.77 249.07 57.45 250.99 57.11 252.83 56.58 254.57 55.83 256.22 54.86 257.79 53.7 260.77 51.02 
M 261.98 51.35 263.44 54.88 264.32 56.52 265.35 58.02 266.56 59.36 267.94 60.53 269.48 61.57 272.84 63.39 
M 274.05 63.73 275.83 67.52 276.86 69.28 278.04 70.9 279.4 72.36 280.93 73.66 282.61 74.82 286.26 76.86 
M 287.45 77.26 289.02 80.88 289.95 82.55 291.03 84.09 292.29 85.47 293.72 86.68 295.31 87.76 298.77 89.65 
M 299.94 90.1 300.35 96.68 300.74 99.92 301.33 103.11 302.15 106.23 303.2 109.3 304.46 112.31 307.34 118.24 
M 161.33 75.84 165.34 73.4 167.15 71.98 168.79 70.38 170.26 68.62 172.82 64.68 
M 161.45 83.5 164.75 81.49 167.6 79 168.81 77.54 170.92 74.29 
M 161.56 91.16 164.16 89.57 165.34 88.65 167.36 86.46 169.02 83.91 
M 161.67 98.82 163.57 97.66 165.21 96.23 167.12 93.52 
M 177.31 62.73 181.37 62.44 183.3 62.03 185.16 61.39 186.94 60.53 190.32 58.27 
M 177.26 69.15 180.84 68.9 182.55 68.54 184.19 67.97 185.76 67.21 188.75 65.22 
M 177.2 75.58 180.31 75.36 181.79 75.04 184.58 73.89 187.17 72.16 
M 177.14 82 179.77 81.82 182.24 81.14 183.4 80.58 185.59 79.11 
M 177.08 88.43 180.27 88.06 182.22 87.26 184.02 86.05 
M 177.02 94.85 178.71 94.73 180.29 94.3 182.44 93 
M 195.42 57.16 199.74 56.84 201.82 56.41 203.82 55.75 205.74 54.87 209.42 52.57 
M 194.98 64.08 198.8 63.8 200.64 63.42 202.4 62.84 204.11 62.06 207.35 60.03 
M 194.55 71.01 197.87 70.76 199.46 70.43 202.47 69.25 205.29 67.49 
M 194.12 77.93 196.93 77.72 198.28 77.44 200.83 76.45 203.22 74.95 
M 193.68 84.86 197.1 84.46 199.19 83.64 201.15 82.41 
M 193.25 91.78 195.92 91.47 197.55 90.83 199.09 89.87 
M 214.03 52.52 217.28 54.23 218.96 54.81 220.69 55.15 222.46 55.26 226.12 54.92 
M 213.17 59.91 216.04 61.42 217.53 61.93 219.05 62.24 220.62 62.34 223.85 62.04 
M 212.31 67.31 214.8 68.62 216.09 69.06 218.77 69.41 221.58 69.15 
M 211.45 74.7 213.56 75.81 215.77 76.41 216.93 76.49 219.3 76.27 
M 210.58 82.1 213.21 83.32 215.08 83.56 217.03 83.38 
M 209.72 89.49 211.08 90.21 212.49 90.59 214.76 90.49 
M 230.71 55.85 233.79 57.44 235.38 57.96 237.01 58.25 238.68 58.3 242.12 57.84 
M 229.65 62.83 232.37 64.24 233.77 64.7 235.21 64.95 236.69 65 239.72 64.59 
M 228.59 69.82 230.95 71.04 233.41 71.66 234.69 71.7 237.33 71.35 
M 227.52 76.81 229.52 77.84 231.61 78.37 232.7 78.4 234.93 78.1 
M 226.46 83.79 228.94 84.92 230.7 85.1 232.54 84.86 
M 225.39 90.78 227.34 91.66 228.71 91.8 230.14 91.61 
M 247.09 57.65 250.99 57.11 252.83 56.58 254.57 55.83 256.22 54.86 259.29 52.4 
M 245.86 64.43 249.3 63.96 250.93 63.49 252.47 62.82 253.92 61.97 256.64 59.8 
M 244.63 71.22 247.62 70.8 250.36 69.82 251.63 69.08 253.98 67.19 
M 243.4 78 245.93 77.65 247.13 77.31 249.33 76.19 251.33 74.59 
M 242.17 84.79 244.25 84.5 246.16 83.81 248.67 81.99 
M 240.94 91.57 243.33 91.12 244.74 90.41 246.02 89.38 
M 262.68 53.14 264.32 56.52 265.35 58.02 266.56 59.36 267.94 60.53 271.13 62.51 
M 261.37 60.45 262.82 63.43 263.73 64.75 264.8 65.94 266.02 66.98 268.84 68.72 
M 260.07 67.76 261.32 70.34 263.04 72.52 264.1 73.42 266.55 74.94 
M 258.76 75.06 259.83 77.26 261.28 79.1 262.18 79.86 264.26 81.15 
M 257.46 82.37 258.88 84.97 260.26 86.31 261.96 87.36 
M 256.15 89.67 256.83 91.08 257.77 92.26 259.67 93.57 
M 274.91 65.65 276.86 69.28 278.04 70.9 279.4 72.36 280.93 73.66 284.4 75.87 
M 273.43 74.41 275.03 77.41 276.01 78.74 278.39 81.02 281.26 82.84 
M 271.94 83.17 273.21 85.53 273.98 86.59 275.86 88.38 278.12 89.81 
M 270.46 91.93 271.95 94.43 273.32 95.74 274.97 96.78 
M 288.2 79.1 289.95 82.55 291.03 84.09 292.29 85.47 293.72 86.68 297.01 88.73 
M 286.61 87.77 287.95 90.42 289.74 92.65 290.84 93.59 293.36 95.16 
M 285.02 96.45 286.52 99.11 287.96 100.49 289.71 101.58 
M 122.99 163.04 158.51 147.6 158.94 148.5 124.53 166.28 
M 123.28 166.91 208.08 144.78 208.34 145.74 124.24 170.37 
M 123.59 170.84 216.17 163.15 216.26 164.14 123.94 174.42 
M 123.9 174.83 218.57 183.37 218.49 184.36 123.63 178.41 
M 124.21 178.87 194.44 198.11 194.2 199.07 123.32 182.34 
M 124.5 184.69 159.26 201.75 158.86 202.66 123.03 187.96 
M 155.5 150.28 165.39 150.83 170.33 150.9 175.24 150.78 180.14 150.41 185.03 149.81 189.89 149 199.6 146.99 
M 199.93 148.2 200.31 152.21 200.68 154.14 201.24 155.98 202.01 157.73 203 159.38 204.19 160.94 206.91 163.92 
M 207.03 165.17 206.22 169.17 206.01 171.15 206 173.11 206.23 175.04 206.7 176.94 207.37 178.81 209.1 182.51 
M 209.01 183.77 203.57 185.41 200.95 186.41 198.43 187.58 196.04 188.96 193.76 190.55 191.58 192.31 187.42 196.18 
M 187.11 197.4 180.04 196.71 176.52 196.56 173.02 196.62 169.54 196.91 166.08 197.44 162.64 198.18 155.79 200.04 
M 160.45 150.59 170.33 150.9 175.24 150.78 180.14 150.41 185.03 149.81 194.75 148.04 
M 200.09 150.22 200.68 154.14 201.24 155.98 202.01 157.73 203 159.38 205.51 162.45 
M 173.37 157.37 173.76 159.91 174.12 161.11 175.27 163.32 176.9 165.31 
M 206.58 167.17 206.01 171.15 206 173.11 206.23 175.04 206.7 176.94 208.2 180.67 
M 177.6 169.78 177.22 172.37 177.37 174.89 177.67 176.13 178.64 178.55 
M 206.27 184.55 200.95 186.41 198.43 187.58 196.04 188.96 193.76 190.55 189.48 194.21 
M 177.39 182.47 173.94 183.68 172.3 184.44 169.26 186.37 166.48 188.75 
M 183.57 197.01 176.52 196.56 173.02 196.62 169.54 196.91 166.08 197.44 159.21 199.07 
M 187.74 211.43 192.55 216.53 199.12 225.97 213.25 251.54 212.39 254.46 211.33 257.18 210.64 260.28 208.37 262.23 205.08 263.13 202.47 264.56 199.66 265.05 196.97 265.23 192.08 262.83 190.41 262.4 187.95 261.18 185.14 262.56 185.56 266.12 182.93 264.91 176.24 259.75 164.18 246.99 159.81 243.6 156.58 241.37 146.91 216.4 143.82 212.44 142.62 209.05 139.67 202.06 
M 182.8 210.78 188.92 216.38 190.85 219.41 194.2 225.31 195.24 228.93 197.8 231.13 200.28 233.53 201.81 237.2 203.36 240.05 204.87 243.34 206.59 246.07 
M 177.86 210.13 182.73 216.28 185.28 218.69 188.85 223.87 189.84 226.94 195.93 236.57 197.79 240.12 198.88 242.67 200.33 244.39 202.11 246.86 
M 172.95 209.32 180.99 221.25 182.33 224.17 184.01 226.57 186.03 228.92 186.83 232.3 187.9 235.19 189.89 237.39 193.32 244.13 196.28 249.04 198.62 255.86 201.52 259.57 204.28 263.79 
M 168.05 208.41 170.04 212.34 173.79 218.51 176.14 220.78 178.14 223.21 180.33 229.01 181.87 231.78 182.88 234.68 184.43 240.24 186.28 243.18 189.8 245.59 192.25 248.39 192.48 251.16 192.57 255.01 193.98 259.43 195.62 263.24 
M 163.15 207.47 165.14 211.73 166.08 214.95 167.44 218.07 169.44 221.09 170.92 224.07 173.24 226.67 174.43 229.19 175.59 232.27 177.21 235.49 177.93 238.8 179.49 241.36 180.23 244.76 181.67 247.65 
M 158.29 206.4 161.6 213.83 162.73 217.03 163.41 219.9 164.92 223 170.19 235 171.99 238.37 
M 153.42 205.32 158.32 215.34 159.59 218.35 160.03 221.32 162.09 228.65 163.56 231.93 165.52 234.26 
M 148.57 204.19 150.45 208.5 151.63 212.37 153.36 214.91 154.83 217.57 156.47 222.96 158.32 225.79 159.66 228.99 160.45 234.16 
M 143.72 203.03 144.88 208.14 145.93 211.63 148.07 214.38 150.21 216.5 151.86 219.97 153.03 223.28 152.79 227.67 153.32 231.01 154.71 234.37 155.63 237.82 
M 369.54 199.04 376.31 212.79 375.46 213.3 366.47 200.89 
M 354.72 201.13 380.09 243.4 379.25 243.93 351.7 203.06 
M 339.98 203.71 370.72 251.78 369.89 252.33 337 205.71 
M 325.29 206.37 351 249.37 350.16 249.9 322.25 208.29 
M 310.47 208.05 335.69 255.99 334.82 256.47 307.34 209.79 
M 295.56 208.79 312.18 243.82 311.29 244.28 292.37 210.43 
M 285.48 209.06 291.31 223.23 290.42 223.69 282.29 210.7 
M 374.56 212.06 373.95 218.23 373.84 221.29 373.94 224.32 374.27 227.34 374.84 230.32 375.62 233.29 377.55 239.17 
M 376.49 239.84 373.72 240.43 372.46 240.87 371.33 241.48 370.35 242.27 369.51 243.25 368.81 244.39 367.64 246.97 
M 366.6 247.67 362.75 245.82 360.79 245.1 358.81 244.57 356.79 244.28 354.73 244.23 352.65 244.38 348.43 245.07 
M 347.37 245.74 343.76 245.76 342.02 245.95 340.35 246.33 338.78 246.94 337.28 247.77 335.86 248.79 333.16 251.2 
M 332.07 251.81 327.88 248.12 325.7 246.45 323.41 244.97 321.02 243.69 318.51 242.62 315.91 241.74 310.52 240.32 
M 309.4 240.89 306.17 235.76 304.41 233.33 302.5 231.04 300.43 228.92 298.18 226.97 295.79 225.16 290.72 221.82 
M 374.22 215.15 373.84 221.29 373.94 224.32 374.27 227.34 374.84 230.32 376.54 236.23 
M 375.08 240.1 372.46 240.87 371.33 241.48 370.35 242.27 369.51 243.25 368.2 245.65 
M 369.97 233.68 367.8 234.32 366.87 234.82 365.37 236.28 364.29 238.26 
M 364.85 227.26 363.15 227.76 361.77 228.67 361.23 229.3 360.38 230.86 
M 359.74 220.84 357.95 221.49 357.09 222.33 356.47 223.47 
M 364.68 246.71 360.79 245.1 358.81 244.57 356.79 244.28 354.73 244.23 350.55 244.68 
M 359.98 241.01 356.64 239.63 354.93 239.17 353.19 238.93 351.43 238.88 347.83 239.27 
M 355.29 235.32 352.49 234.16 349.6 233.57 348.12 233.53 345.11 233.86 
M 350.59 229.62 348.33 228.69 347.18 228.38 344.82 228.18 342.39 228.45 
M 345.89 223.92 343.31 222.98 341.52 222.83 339.67 223.03 
M 345.55 245.71 342.02 245.95 340.35 246.33 338.78 246.94 337.28 247.77 334.5 249.95 
M 341.46 240.45 338.42 240.65 336.99 240.98 335.63 241.51 334.35 242.22 331.96 244.1 
M 337.37 235.19 334.83 235.36 332.49 236.07 331.42 236.67 329.41 238.24 
M 333.28 229.93 331.23 230.06 329.35 230.64 328.48 231.12 326.87 232.39 
M 329.19 224.66 327.64 224.77 326.21 225.2 324.33 226.53 
M 329.99 249.93 325.7 246.45 323.41 244.97 321.02 243.69 318.51 242.62 313.23 240.99 
M 323.33 240.44 320.04 237.78 318.28 236.64 314.53 234.84 310.48 233.59 
M 316.67 230.95 314.37 229.1 313.16 228.31 310.54 227.06 307.73 226.19 
M 307.81 238.3 304.41 233.33 302.5 231.04 300.43 228.92 298.18 226.97 293.29 223.46 
M 404.06 138.08 407.84 137.48 415.48 133.25 421.22 130.38 424.28 129.3 426.65 129.3 429.39 127.44 431.9 126.22 435.02 125.32 438.57 123.47 441.94 122.84 448.37 121.19 451.14 121.83 452.91 121.47 455.95 122.74 458.58 124.34 468.72 131.43 470.08 132.16 471.97 133.49 478.19 141.77 484.93 150.3 489.46 160.41 489.82 162.95 490 165.88 488.42 170.36 487.11 176.28 487.56 179.96 487.75 183.68 486.28 186.4 484.34 188.65 481.45 189.95 479.72 192.29 478.99 195.51 477.26 197.96 475.02 199.95 473.58 202.72 471.61 204.92 469.78 207.27 467.61 209.27 465.12 210.79 459.85 213.39 457.45 214.9 454.47 215.8 451.9 217.02 449.59 218.52 445.15 219.08 440.69 220.81 436.91 217.81 433.52 215.44 431.49 212.09 429.68 210.22 427.46 209.65 424.31 206.63 415.85 201.62 412.71 199.53 407.34 194.6 404.06 191.82 
M 407.73 140.46 413.65 136.99 416.81 135.48 419.14 134.75 421.81 133.01 424.56 132.54 
M 404.06 143.45 407.61 143.05 413.71 140.39 416.76 138.38 419.56 137.83 422.81 136.49 425.99 136.11 428.96 134.74 432.06 134.1 434.01 132.82 436.1 131.19 438.64 130.25 440.89 128.55 446.67 125.53 
M 410.46 144.93 414.07 143.42 416.97 141.9 419.81 141.78 423.15 140.65 426.65 139.82 429.52 138.9 432.22 138.78 434.81 137.84 
M 407.6 148.71 410.61 147.68 414.12 146.75 417.13 145.44 420.07 144.63 426.98 143.18 429.67 142.3 432.24 142.83 438.73 141.5 441.48 139.86 
M 411.19 151.02 420.44 147.86 427.19 146.3 429.87 145.81 432.67 145.71 439.01 144.96 441.4 143.64 449.79 142.71 452.07 140.65 
M 408.01 154.65 414.84 153.78 421.58 151.87 424.86 151.53 427.84 150.97 430.95 150.14 437 149.44 440.08 148.35 442.32 147.93 449.89 147.99 454.15 146.09 456.74 144.34 459.72 143.39 463.56 143.94 467.84 142.81 
M 411.95 157.57 421.65 156.2 424.69 156.5 428.11 156.47 432.98 154.28 435.56 154.53 438.81 153.91 443.17 154.07 447.51 153.55 450.58 153.08 453.56 150.65 457.04 150.11 460.64 150.24 
M 407.97 160.3 411.51 160.36 415.16 160.72 421.98 160.19 428.2 160.22 435.29 158.86 439.36 158.79 443.48 159.56 450.67 158.65 452.9 157.51 454.17 156.34 
M 415.09 163.79 418.6 164.06 421.9 163.83 424.23 164.1 427.05 163.51 429.65 164.23 432.45 164.3 436.1 163.27 439.97 163.86 443.42 164.11 446.92 163.51 450.25 163.39 
M 404.06 164.95 411.96 166.35 418.51 167.11 420.82 167.62 423.34 167.81 426.11 168.48 429.74 168.52 435.6 168 439.09 168.9 442.88 169.08 445.24 168.49 
M 408.31 168.66 411.85 169.46 418.27 170.5 420.6 171.3 423.43 171.34 430.39 171.86 433.3 171.84 439.49 172.33 442.36 173.19 446.1 174.07 449.53 174.41 452.56 173.17 455.71 174.09 459.54 173.73 463.16 175.44 
M 404.06 170.32 411.19 172.78 417.54 174.07 420.97 174.58 428 174.92 431.17 175.48 433.72 176.16 442.54 176.95 446.4 178.65 449.67 179.52 452.22 178.33 453.64 179.28 
M 407.83 174.48 410.95 175.3 417.64 177.73 420.76 178.62 425.05 178.55 428.51 178.79 433.74 180.88 435.91 180.79 439.67 181.57 443.14 182.78 449.17 183.75 451.94 185.23 453.77 185.91 455.78 185.49 462.19 188.66 464.49 190.35 
M 407.77 177.28 410.83 178.27 414.2 180.07 417.53 181.02 427.79 182.89 430.57 183.95 433.73 185.48 437.26 186.36 440.56 187.41 446.48 188.41 449.67 189.41 451.57 189.6 453.27 191.09 455.35 192.42 458.66 192.65 462.62 193.75 464.97 194.87 471.7 196.78 
M 407.75 180.24 410.96 181.45 414.21 183.28 417.59 184.11 430.97 186.65 434.29 188.93 437.15 191.16 444.45 194.1 447.04 195.94 
M 411.08 184.62 414.83 186.02 418.28 186.94 420.64 188.27 423.8 189.27 427.02 189.85 430.08 191.19 434 193.48 436.87 195.38 440.16 197.13 442.35 197.98 444.77 199.75 446.32 201.82 449.42 202.57 452.98 204.03 456.44 205.9 
M 414.71 189.42 417.8 191.45 420.67 192.29 423.98 192.92 426.5 193.72 429.98 195.38 432.9 198.06 438.87 202.05 446.2 204.92 
M 413.84 193.25 416.88 195.08 419.57 195.89 423.14 196.26 426.39 197.31 429.45 199.01 434.56 204.37 436.92 204.99 439.54 206.5 
M 404.06 189.13 407.58 191.82 412.85 196.6 415.72 198.95 418.92 199.51 421.88 200.77 425.76 201.26 428.77 203.09 430.82 205.71 433.42 206.78 
M 35.45 179.53 39.9 173.4 45.13 164.76 49.26 160.76 63.44 150.69 67.93 146.99 72.92 143.19 78.23 139.78 89.09 134.24 94.03 132.03 101.64 129.23 103.59 128.59 107.65 131.59 109.67 135.01 111.95 138.38 114.47 141.71 116.51 145.13 117.86 148.66 119.87 155.84 119.79 159.62 120.1 163.34 120.13 167.1 119.15 174.8 119.63 178.48 119.81 185.98 119.37 189.83 118.19 193.8 115.65 197.92 103.61 197.39 94.95 196.67 87.25 195.9 67.87 193.52 56.91 191.47 52.35 190.44 48.21 189.28 
M 96.84 155.12 97.48 158.27 96.41 164.61 95.55 167.47 93.16 172.27 93.71 176.28 94.55 178.34 95.18 180.62 95.51 183.16 95.01 186.14 81.06 185.64 65.1 185.31 60.09 185.01 55.18 184.23 
M 34.12 185.37 33.35 185.11 31.11 183.83 30.5 181.31 31.98 179.12 34.52 178.87 44.73 186.45 48.23 189.25 
M 47.97 190.22 40.25 190.83 32.6 191.08 30.5 189.84 30 187.38 31.65 185.51 34.21 185.37 48.05 189.19 
M 59.95 175.22 58.58 170.02 58.97 164.67 61.08 159.73 64.67 155.74 69.37 153.14 74.66 152.2 79.96 153.03 84.71 155.54 88.39 159.46 90.6 164.35 91.09 169.7 89.83 174.92 86.93 179.44 82.73 182.78 77.67 184.58 72.3 184.63 67.2 182.94 62.93 179.68 59.95 175.22 
M 59.75 174.76 59.09 172.85 58.68 170.87 58.51 168.85 58.6 166.83 58.93 164.84 59.5 162.9 60.32 161.05 61.35 159.31 62.59 157.72 64.02 156.29 65.62 155.04 67.36 154.01 69.21 153.2 71.14 152.62 73.14 152.29 75.16 152.2 77.17 152.37 79.15 152.79 81.06 153.44 
M 61.59 173.99 61.02 172.32 60.65 170.58 60.5 168.81 60.58 167.04 61 164.86 
M 61.54 163.22 62.09 161.96 63.78 159.43 
M 65.27 157.85 66.74 156.69 68.27 155.78 69.89 155.07 71.59 154.56 73.34 154.27 75.12 154.2 76.89 154.34 78.62 154.71 80.3 155.28 
M 63.43 173.23 62.94 171.79 62.5 168.77 62.56 167.24 62.95 165.26 
M 66.71 159.24 69.18 157.55 70.58 156.94 73.55 156.25 76.6 156.32 79.54 157.13 
M 65.28 172.47 64.86 171.26 64.49 168.73 64.54 167.45 64.87 165.79 
M 68.01 160.75 70.09 159.33 71.27 158.81 73.76 158.24 76.31 158.29 78.78 158.97 
M 68.87 171.2 68.32 169.12 68.6 166.69 
M 70.5 163.7 70.76 163.41 72.64 162.36 74.76 161.99 76.88 162.32 78.78 163.33 80.25 164.89 81.13 166.85 81.33 168.99 80.82 171.08 79.67 172.89 77.98 174.22 75.96 174.94 73.81 174.96 71.77 174.28 70.06 172.98 68.87 171.2 
M 71.58 162.95 70.91 164.29 
M 69.58 166.96 68.38 169.35 
M 73.44 162.22 71.79 165.53 
M 70.79 167.53 68.92 171.27 
M 75.03 162.03 72.68 166.74 
M 72 168.1 69.77 172.55 
M 76.42 162.25 73.68 167.73 
M 73.28 168.52 70.78 173.53 
M 77.67 162.74 74.67 168.73 
M 74.56 168.94 71.88 174.32 
M 78.84 163.39 73.16 174.74 
M 79.81 164.43 74.55 174.95 
M 80.64 165.76 76.07 174.9 
M 81.2 167.63 77.89 174.26 
M 37.2 177.21 42.23 182.24 
M 39.68 173.71 43.11 177.15 
M 41.9 169.95 46.08 174.13 
M 44.19 166.26 50 172.07 
M 46.93 163.02 50.97 167.06 
M 50.07 160.18 54.43 164.54 
M 53.56 157.69 59.17 163.3 
M 57.1 155.25 60.11 158.26 
M 60.6 152.78 64.08 156.25 
M 64.02 150.21 67.81 154 
M 67.3 147.51 71.59 151.8 
M 70.67 144.9 73.99 148.22 
M 74.15 142.4 77.54 145.79 
M 77.79 140.06 80.89 143.15 
M 81.68 137.97 86.83 143.12 
M 85.64 135.95 89.28 139.59 
M 89.66 133.99 94.25 138.57 
M 93.79 132.14 99.34 137.68 
M 98.08 130.45 104.04 136.41 
M 102.55 128.93 108.16 134.55 
M 37.34 177.02 39.51 176.84 40.41 176.59 42.46 175.67 46.85 172.65 
M 109.37 148.03 107.31 151.27 106.82 151.47 106.24 151.38 
M 109.48 197.65 108.49 197.05 107.98 196.94 106.93 197.15 106.32 197.51 
M 96.11 132.46 94.5 131.85 
M 86.73 179.6 86.32 180.29 85.06 181.72 84.28 183.28 83.85 185.01 83.66 187.83 
M 112.91 139.79 112.79 140.98 113.73 143.67 115.24 145.25 117.05 146.53 
M 89.72 143.88 89.59 142.94 89.32 142.63 88.83 142.62 88.5 142.98 
M 102.22 160.22 104.68 160.58 106.45 161.33 107.94 161.17 108.49 160.94 
M 100.49 131.72 99.47 131.12 98.59 130.26 
M 68.03 153.05 68.08 153.86 
M 61.04 183.26 61.14 180.95 60.4 179.55 59.94 179.03 
M 107.98 179.48 106.65 179.27 102.42 177.74 100.9 177.5 96.51 177.65 94.52 178.19 
M 88.2 147.37 88.82 147.52 89.35 147.34 89.69 146.51 89.57 145.63 
M 39.27 174.29 40.03 174.23 41 173.87 42.66 172.78 44.51 171.15 45.03 170.44 
M 110.69 167.55 111.58 167.52 114.82 165.59 117.38 164.5 
M 84.7 136.42 86.09 137.28 87.45 138.7 87.98 140 88.07 142.5 
M 95.23 178.25 89.69 180.08 
M 90.71 158.45 90.51 160.11 89.29 161.46 
M 108.91 154.76 109.47 155.43 110.15 156.73 110.98 157.55 
M 106.8 153.99 107.4 153.54 107.59 153.13 107.4 152.69 106.91 152.3 
M 39.61 182.75 39.25 181.82 39.11 180.84 39.38 179.45 39.81 178.58 41.29 177.19 
M 54.43 186.92 51.67 183.84 50.65 182.39 50.59 181.62 51.46 179.35 
M 39.93 176.92 42.88 175.53 47.14 172.49 47.9 171.8 49.71 171.01 51.89 170.38 53.31 169.72 53.83 169.28 
M 114.43 141.65 114.78 142.93 116.25 144.69 
M 96.88 141.05 96.22 141.28 94.59 142.47 93.92 142.73 93.05 142.85 91.26 142.69 89.79 142.18 89.06 142.25 
M 107.28 170.79 107.06 169.87 107.25 168.71 108.57 166.4 109.36 163.03 
M 91.61 147.46 90.74 146.41 89.7 145.58 89.64 144.58 
M 37.35 177.01 39.29 176.88 40.19 176.66 42.14 175.82 
M 80.98 153.25 81.36 152.72 81.81 152.4 82.6 152.32 83.15 152.51 83.71 153.06 84.17 153.99 84.19 155.1 
M 115.41 158.53 115.37 159.05 115.62 159.63 119.09 163.46 
M 96.68 132.34 95.07 131.63 
M 95.43 154.88 95.11 156.72 94.08 158.33 92.25 161.92 
M 95.26 164.32 96.09 164.93 97.14 165.18 97.76 165.13 98.62 164.6 
M 55.88 162.18 55.23 161.38 54.36 160.65 53.57 160.24 52.19 160.15 51.22 160.37 50.91 160.6 50.16 162.54 
M 84.92 181.04 84 182.31 83.11 184.01 
M 54.91 174.08 58.42 173.09 59.48 173.42 
M 103.06 193.54 102.03 189.49 101.05 188.27 
M 90.05 196.18 91.62 193.23 92.19 191.48 92.22 190.74 
M 100.16 130.96 99.18 130.06 
M 96.61 173.33 92.53 175.99 89.73 179.78 89.07 180.26 
M 85.57 180.53 84.32 182.26 83.54 183.93 83.28 184.78 83.06 188.45 82.85 189.11 81.85 190.09 
M 105.3 132.79 103.2 132.32 101.67 131.78 100.55 131.12 99.31 130.02 
M 46.57 183.71 47.81 179.96 49.83 176.46 50.27 174.67 50.63 173.87 51.61 172.78 52.55 172.11 
M 91.17 182.3 91.27 181.19 90.81 180.3 90.25 180.02 89.25 180.3 
M 110.28 187.87 106.96 186.79 104.13 186.18 101.58 184.9 99.98 183.5 
M 51.91 178.55 52.49 178.04 53.51 176.55 54.1 176.06 56.85 175.13 
M 38.22 175.8 39.83 175.91 40.89 175.72 42.05 175.26 46.34 172.54 47.79 171.41 51.71 170.3 52.52 169.94 
M 112.13 138.62 110.2 139.6 108.65 140.62 106.6 142.54 
M 109.15 173.89 108.26 172.14 107.43 169.99 107.37 169.48 107.73 168.28 108.56 167.16 
M 94.38 184.46 93.94 180.23 93.74 179.98 93.02 179.72 91.38 179.64 
M 98.84 194.1 99.7 192.47 100.09 190.84 100.07 189.23 98.73 186.42 97.96 183.92 96.58 181.91 
M 109.27 134.34 107.97 134 105.81 132.8 104.7 132.52 
M 95.87 135.61 93.97 135.84 91.6 137.09 88.81 140.23 88.19 141.88 
M 80.52 183.56 80.58 184.02 82.08 187.06 82.29 187.78 82.34 188.95 
M 102.9 141.32 102.4 141.75 100.96 142.2 97.05 142.18 93.55 143.04 91 142.74 
M 98.43 145.48 97.26 145.25 96.17 144.83 94.32 143.82 91 142.94 89.75 142.23 89.04 142.29 
M 63.83 181.57 62.61 183.75 
M 75.94 142.93 76.59 143.72 78.68 142.97 
M 88.07 177.66 87.56 180.05 86.92 181.1 85.95 182.2 85.35 183.56 85.12 184.35 84.74 187.31 
M 38.3 175.68 40.26 175.79 41.37 175.44 42.61 174.87 46.59 172.27 47.28 171.67 
M 50.23 161.44 50.09 162.28 49.11 164.99 
M 102.67 157.23 104.84 157.08 107.85 156.52 109.42 156.76 110.29 157.23 
M 108.11 150.91 107.78 151.56 107.46 151.79 106.88 151.85 106.05 151.54 
M 117.43 169.5 118.66 169.58 119.78 169.99 
M 95.27 158.67 93.21 161.14 92.73 161.94 92.78 162.79 93.35 163.56 
M 116.46 187.11 117.43 187.65 118.88 187.9 119.12 188.07 119.21 188.47 118.97 189.24 
M 78.41 194.59 79.07 194.56 79.4 194.95 
M 62.98 154.02 62.09 154.1 59.97 153.24 
M 103.43 134.35 102.64 133.95 101.13 133.52 96.51 132.5 94.67 131.78 
M 67.34 147.47 68.48 148.56 68.76 149.1 69.37 151.59 69.43 153.13 
M 102.94 151.22 101.66 151.28 101.08 151.78 101.25 152.44 102.51 153.54 
M 62.52 157.86 61.95 157.33 58.1 155.81 56.73 155.51 
M 53.2 167.55 53.55 166.22 53.56 164.17 53.04 162.29 52.62 161.77 51.77 161.45 51.19 161.56 50.56 162.24 
M 112.86 173.49 114.51 172.04 116.4 171.08 117.81 171.13 119.55 171.76 
M 106.24 166.02 106.75 164.11 107.29 162.77 107.56 162.32 108.71 161.33 109.58 159.57 
M 41.58 190.71 46.12 191.95 49.25 192.47 52.41 192.74 55.61 192.79 62.13 192.52 
M 53.46 192.16 52.62 190.95 
M 45.69 191.16 45.17 191.71 
M 109.29 134.38 111.08 136.16 
M 109.72 126.83 119.82 136.93 
M 115.99 125.13 125.28 134.42 
M 122.8 123.96 134.27 135.44 
M 129.74 122.93 138.32 131.51 
M 137.01 122.23 143.55 128.77 
M 144.34 121.58 150.54 127.78 
M 151.69 120.96 158.47 127.75 
M 158.74 120.03 168.56 129.86 
M 165.78 119.1 172.45 125.77 
M 172.83 118.18 181.86 127.21 
M 180.01 117.38 189.13 126.5 
M 187.27 116.68 198.87 128.27 
M 194.85 116.28 203.8 125.23 
M 202.52 115.97 210.21 123.66 
M 210.32 115.8 217.47 122.95 
M 218.2 115.7 226.66 124.17 
M 226.15 115.68 233.94 123.47 
M 234.23 115.79 240.45 122 
M 242.28 115.86 250.98 124.56 
M 250.24 115.85 257.19 122.8 
M 258.03 115.67 266.5 124.14 
M 265.98 115.64 277.63 127.29 
M 274.1 115.78 284.2 125.89 
M 282.57 116.29 292.25 125.96 
M 291.23 116.97 298.57 124.31 
M 299.97 117.74 311.74 129.51 
M 308.77 118.56 320.16 129.95 
M 317.66 119.47 327.6 129.42 
M 326.93 120.78 335.4 129.25 
M 336.51 122.38 347.87 133.74 
M 346.29 124.19 356.52 134.42 
M 356.08 126 365.53 135.45 
M 365.66 127.61 374.37 136.32 
M 375.41 129.39 382.37 136.35 
M 385.79 131.79 397.06 143.06 
M 397.55 135.57 404.94 142.96 
M 117.17 195.46 118.64 198.4 
M 118.8 191.74 122.38 198.9 
M 119.74 186.64 126.11 199.4 
M 119.63 179.45 129.94 200.07 
M 119.5 172.2 123.76 180.74 
M 127.32 187.84 133.83 200.86 
M 120.12 166.48 123.76 173.76 
M 131.76 189.75 137.42 201.08 
M 104.51 128.28 105.3 129.86 
M 119.81 158.87 123.76 166.78 
M 136.2 191.65 137.94 195.14 
M 107.57 127.43 115.97 144.21 
M 116.8 145.87 125.74 163.76 
M 110.64 126.58 128.58 162.47 
M 113.7 125.73 131.43 161.18 
M 116.82 124.99 134.27 159.89 
M 120.03 124.44 137.12 158.61 
M 123.25 123.89 139.74 156.87 
M 126.46 123.34 140.28 150.97 
M 129.75 122.93 141.78 147 
M 172.29 208.03 172.94 209.32 
M 133.07 122.61 142.43 141.33 
M 173.64 203.74 176.76 209.98 
M 136.4 122.29 141.31 132.1 
M 174.29 198.07 180.49 210.47 
M 177.04 196.58 184.23 210.97 
M 180.61 196.76 187.96 211.45 
M 184.27 197.09 191.55 211.66 
M 187.38 196.34 195.15 211.88 
M 189.7 194.01 198.75 212.09 
M 192.12 191.87 202.26 212.13 
M 194.64 189.93 205.73 212.11 
M 177.08 147.83 178.43 150.54 
M 197.29 188.24 209.21 212.08 
M 176.69 140.07 181.76 150.21 
M 200.07 186.82 209.68 206.05 
M 177.99 135.7 185.05 149.81 
M 202.97 185.64 210.09 199.89 
M 178.32 129.38 188.27 149.27 
M 205.96 184.65 210.41 193.56 
M 179.5 124.75 191.46 148.69 
M 209 183.77 211.59 188.94 
M 180.35 119.49 194.64 148.06 
M 206.04 170.86 212.45 183.68 
M 180.42 112.64 197.79 147.38 
M 200.38 152.56 205.07 161.95 
M 206.92 165.65 213.4 178.61 
M 180.37 105.56 213.35 171.53 
M 176.57 90.98 214.01 165.87 
M 177.01 84.9 214.45 159.78 
M 177.21 78.32 215.55 154.99 
M 178.36 73.65 215.81 148.54 
M 179.21 68.37 216.66 143.26 
M 247.86 205.66 250.02 209.98 
M 181.24 65.45 217.35 137.66 
M 249.44 201.85 253.52 210 
M 184.34 64.66 217.77 131.53 
M 250.76 197.5 257.02 210.02 
M 187.18 63.37 217.94 124.89 
M 252.71 194.43 260.52 210.04 
M 189.8 61.64 217.88 117.8 
M 253.54 189.12 264.02 210.07 
M 192.5 60.05 217.91 110.87 
M 254.46 183.97 267.52 210.1 
M 196.02 60.12 217.86 103.81 
M 255.31 178.69 271.02 210.13 
M 199.38 59.87 216.77 94.64 
M 255.99 173.09 274.49 210.08 
M 202.52 59.17 214.56 83.24 
M 256.46 167.04 277.94 210 
M 205.43 58 211.22 69.59 
M 256.69 160.53 281.39 209.93 
M 208.13 56.43 211.25 62.67 
M 256.72 153.6 284.84 209.85 
M 210.71 54.62 212.05 57.29 
M 257.52 148.22 288.28 209.76 
M 257.24 140.7 289.34 204.89 
M 256.31 131.86 290.19 199.61 
M 256.41 125.09 291.18 194.63 
M 257.06 119.4 291.83 188.93 
M 256.36 111.02 292.02 182.34 
M 254.76 100.85 292.2 175.73 
M 251.39 87.14 291.51 167.37 
M 251.12 79.61 292.13 161.63 
M 251.87 74.13 292.88 156.15 
M 253.44 70.3 293.56 150.54 
M 253.95 64.35 294.07 144.58 
M 254.65 58.77 294.32 138.11 
M 328.15 205.76 328.54 206.55 
M 257.29 57.06 294.28 131.06 
M 327.27 197.03 331.76 206.02 
M 259.73 54.98 294.95 125.41 
M 327.04 189.6 334.95 205.4 
M 267.16 62.86 295.25 119.03 
M 327.34 183.22 338.12 204.78 
M 272.26 66.09 295.89 113.34 
M 327.98 177.52 341.3 204.16 
M 281.09 76.76 295.8 106.18 
M 328.79 172.16 344.49 203.56 
M 286.07 79.75 295.44 98.48 
M 329.31 166.23 347.71 203.02 
M 294.93 90.49 296.27 93.17 
M 328.15 156.92 350.92 202.48 
M 328.26 150.16 354.14 201.94 
M 329.26 145.19 357.38 201.43 
M 330.26 140.22 360.64 200.98 
M 330.48 133.67 363.91 200.53 
M 331.58 128.9 367.17 200.08 
M 331.34 121.45 370.05 198.86 
M 335.18 122.14 369.5 190.78 
M 339.02 122.85 361.75 168.31 
M 342.86 123.55 361.14 160.11 
M 346.71 124.27 361.42 153.69 
M 350.55 124.98 361.69 147.27 
M 354.39 125.69 362.86 142.63 
M 358.22 126.36 363.12 136.17 
M 362.03 127 363.36 129.67 
M 406.53 188.09 407.17 189.38 
M 406.67 181.4 409.67 187.41 
M 404.45 169.99 412.18 185.44 
M 401.35 156.8 414.68 183.47 
M 396.55 140.23 416.08 179.28 
M 397.75 135.65 416.08 172.31 
M 402.07 137.31 416.08 165.33 
M 407.49 141.19 416.08 158.35 
M 413.87 146.96 416.08 151.38 
"/></svg>