<svg xmlns="http://www.w3.org/2000/svg" width="520" height="320"><rect x="0" y="0" width="520" height="320" fill="floralwhite"/><rect x="10" y="10" width="500" height="300" stroke="black" stroke-width="1" fill="none"/><path stroke="black" stroke-width="1" fill="none" stroke-linecap="round" stroke-linejoin="round" d="
M 139.01 160.69 157.88 153.9 167.3 150.82 176.72 148.01 195.56 142.86 204.98 140.78 214.4 139.25 223.82 138.1 252.07 137.54 261.49 138.54 270.91 140.52 280.33 142.96 308.59 150.99 318.01 153.98 346.26 164.35 383.94 177.34 
M 383.94 206.77 355.68 218.7 346.26 222.52 327.42 229.33 318.01 232.21 299.17 237.53 289.75 239.49 270.91 242.74 261.49 243.55 252.07 244.1 242.65 243.86 223.82 244.05 214.4 242.96 204.98 241.17 195.56 239.09 186.14 236.79 178.13 235.09 
M 176.78 234.8 167.3 232.42 163.85 231.32 
M 152.29 227.31 148.48 225.89 
M 380.55 183.1 373.11 181.9 358.18 179.14 350.36 178.03 327.06 175.72 306.67 174.08 
M 302.93 173.72 297.22 173.13 271.61 168.96 263.32 167.89 
M 256.56 167.76 251.31 167.98 244.22 168.63 238.96 168.92 
M 228.13 169.74 218.73 170.52 213.09 170.68 
M 209.37 170.63 198.15 170.62 
M 194.24 170.88 186.3 171.79 
M 151 175.83 150.5 175.88 
M 141.92 159.65 154.23 180.81 159.93 189.87 
M 146.71 157.95 155.73 172.27 162.05 183.09 
M 164.76 187.46 166.23 189.75 
M 151.74 156.13 157.21 163.96 159.8 167.95 162.3 172.17 167.18 181.07 171.18 187.67 
M 156.91 154.25 161.09 159.85 163.78 163.75 166.31 167.9 174.79 183.42 
M 177.48 187.74 178.64 189.52 
M 162.1 152.52 167.51 159.8 170.11 163.84 172.59 168.04 178.55 179.01 
M 181.07 183.4 183.82 187.69 
M 167.05 150.9 170.96 156.02 176.35 163.9 178.87 168.02 186.12 181.11 187.47 183.27 
M 190.35 187.52 191.62 189.27 
M 171.92 149.44 177.18 156.18 179.94 159.99 182.63 163.87 186.44 170.05 
M 188.89 174.37 192.7 180.93 195.61 185.2 198.7 189.13 
M 237.34 237.21 239.01 238.31 
M 176.76 148 183.45 156.35 188.99 163.87 191.65 167.9 196.77 176.46 199.63 180.74 201.23 182.83 
M 237.17 231.31 238.13 232.13 
M 240.66 234.21 243.18 236.11 
M 181.66 146.7 186.96 153.1 192.57 160.25 195.37 164.06 200.63 172.29 203.51 176.47 213.29 188.85 
M 186.45 145.41 193.27 153.55 197.36 158.91 
M 200.03 162.68 206.94 172.59 216.86 184.54 219.72 188.73 
M 191.09 144.12 196.72 150.83 199.38 154.28 208.55 167.18 
M 211.58 170.95 219.95 180.48 223.06 184.65 225.61 188.62 
M 258.93 231.54 263.77 235.27 
M 195.58 142.86 200.22 148.39 202.82 151.75 210.26 162.16 213.01 165.72 221.1 174.72 
M 224.43 178.64 226.06 180.67 230.44 187.23 
M 259.19 225.9 259.58 226.25 
M 262.18 228.57 264.6 230.74 
M 200.15 141.85 206.42 149.34 213.73 159.07 216.36 162.33 225.61 172.71 228.88 176.68 232.02 180.98 236.74 188.4 
M 271.79 232.3 273.8 234.31 
M 204.68 140.85 210.11 146.93 219.96 158.94 228.54 168.68 231.69 172.52 234.81 176.75 237.81 181.21 242.24 188.3 
M 209.45 140.06 213.78 144.47 218.84 150.01 231.66 164.63 234.58 168.28 240.54 176.76 247.63 188.2 
M 273.3 222.26 275.21 224.63 
M 277.3 227.25 279.44 229.76 
M 214.48 139.24 219.99 144.44 228.58 153.56 
M 231.06 156.3 234.92 160.77 237.59 164.19 243.24 172.2 247.27 178.5 
M 249.66 182.51 252.96 188.09 
M 219.95 138.57 223.48 141.65 228.51 146.44 233.36 151.51 238.24 157.15 246.17 167.7 248.85 171.72 252.4 177.7 
M 254.59 181.57 258.5 187.99 
M 281.41 218.8 283.57 221.75 
M 225.75 138.05 231.94 143.33 236.83 148.23 241.61 153.69 248.04 161.66 
M 250.71 165.3 253.23 169.13 
M 255.52 173.03 260.96 182.78 264.2 187.88 
M 289.27 221.85 291.62 224.78 
M 232.18 137.88 235.3 140.35 240.24 145.07 251.36 157.73 
M 254.03 161.11 257.8 166.64 266.44 182.52 269.73 187.77 
M 295.12 222.09 297.63 225.05 
M 238.8 137.8 241.11 139.7 245.84 144.52 255.89 155.58 258.56 158.82 259.82 160.61 
M 262.22 164.3 265.5 170.14 269.69 178.4 272.01 182.59 275.28 187.67 
M 245.04 137.71 248.94 141.54 258.88 152.14 261.56 155.13 264.14 158.43 266.59 162.09 268.87 165.98 275.37 178.52 277.79 182.71 281.11 187.56 
M 299.28 212.69 301.78 216.14 
M 250.81 137.57 264.46 151.73 267.09 154.79 269.64 158.2 272.1 161.94 274.44 165.91 278.95 174.31 282.61 180.62 
M 257.15 138.08 267.38 148.4 270.02 151.29 272.63 154.52 277.78 161.87 287.67 178.57 290.53 182.77 293.91 187.31 
M 264.33 139.13 270.41 145.01 273.03 147.79 278.35 154.32 283.75 161.78 291.45 174.43 294.35 178.75 300.48 187.19 
M 316.75 211.64 321.91 217.91 
M 273.01 141.06 276.17 144.3 278.83 147.31 284.33 154.17 289.65 161.87 294.93 170.32 306.7 187.07 
M 319.98 207.28 325.06 213.86 
M 327.65 217.19 330.24 220.41 
M 281.6 143.33 284.81 147.13 287.5 150.61 292.78 158.12 296.71 164.19 
M 299.52 168.39 307.19 178.94 312.62 186.95 
M 323.28 202.95 325.75 206.33 
M 289.25 145.58 295.84 154.55 302.52 164.32 
M 308.57 172.56 313.1 178.69 317.03 184.52 
M 326.56 198.73 326.69 198.9 
M 334.19 209.6 336.81 213.21 
M 296.17 147.55 316.2 174.22 324.52 186.73 
M 330.2 195.15 335.18 202.4 
M 303.47 149.58 310.53 158.14 318.09 167.74 
M 320.96 171.74 330.57 186.61 
M 341.39 202.73 346.48 210.22 
M 312.19 152.13 317.19 157.72 323.21 165.32 325.96 169.35 329.78 175.55 
M 332.32 179.67 336.78 186.49 
M 338.28 188.74 342.64 195.4 
M 322.39 155.6 326.87 161.12 329.64 165.12 337.37 177.55 343.07 186.37 
M 343.43 186.92 346.45 191.7 
M 348.96 195.8 351.43 199.88 
M 331.73 159.06 336.05 165.19 338.74 169.34 349.01 185.77 352.79 192.12 
M 355.24 196.35 357.65 200.49 
M 360.05 204.49 362.44 208.34 
M 340.47 162.27 345.38 169.6 354.14 184.1 
M 356.63 188.43 359.04 192.76 
M 349.01 165.3 354.52 174.09 365.17 193.53 
M 357.15 168.11 360.91 174.72 368.87 189.98 
M 364.53 170.69 374.93 190.75 
M 371.48 173.08 380.95 191.32 
M 378.66 175.54 380.5 179.03 
M 382.61 183.22 383.79 185.6 
M 145.68 158.31 142.27 163.23 
M 153.52 155.49 145.03 167.52 
M 161.65 152.67 147.94 171.81 
M 169.72 150.1 163 159.8 158.5 165.94 
M 155.38 170.18 150.82 176.45 
M 178.29 147.59 174.43 152.44 166.55 163.75 155.65 178.67 
M 187.89 145.01 183.38 149.58 180.73 152.73 165.28 174.39 
M 162.16 178.73 156.22 187.23 
M 197.93 142.34 192.41 147.36 187.08 153.1 184.43 156.39 181.78 160 171.61 174.55 
M 168.57 178.9 161.06 189.85 
M 208.2 140.26 204.11 143.43 198.63 148.14 195.99 150.74 190.74 156.67 188.08 160.1 182.47 167.97 171.96 183.38 
M 169.18 187.61 167.79 189.72 
M 216.6 138.98 207.63 146.65 202.1 151.63 199.49 154.29 196.97 157.17 191.75 163.92 185.78 172.21 179.64 181.23 174.35 189.6 
M 223.42 138.15 208.17 152.5 205.43 155.19 202.86 157.97 200.43 160.97 192.27 172.13 184.56 183.34 
M 228.97 137.96 210.03 157.29 
M 207.41 160.24 203.85 164.91 197.24 174.35 
M 194.15 178.7 189.61 185.4 187.19 189.35 
M 234.24 137.84 230.09 142.27 
M 227.48 145.2 216.14 157.52 
M 213.35 160.68 209.62 165.53 203.78 174.48 
M 200.98 178.61 195.03 187.36 
M 239.44 137.79 234.69 142.99 220.93 158.88 218.19 162.28 215.67 165.76 213.42 169.23 210.25 174.65 
M 207.87 178.56 200.87 189.09 
M 244.61 137.72 232.65 151.59 227.16 158.3 224.46 161.85 221.93 165.51 219.64 169.2 212.2 182.56 
M 209.49 186.82 208.07 188.95 
M 249.68 137.6 238.53 150.95 233.26 157.61 228.17 164.97 224.84 170.81 
M 222.81 174.68 219.83 180.48 216.32 186.68 
M 254.47 137.79 251.43 141.34 241.72 153.68 239.14 157.08 235.45 162.52 
M 233.12 166.42 224.87 182.67 
M 222.56 186.75 221.42 188.7 
M 259.12 138.28 254.51 143.82 246.26 154.87 
M 243.74 158.42 240.07 164.08 238.98 166.1 
M 234.88 174.57 231.91 180.97 229.79 185.07 227.73 188.58 
M 263.64 138.99 260.01 143.43 255.55 149.41 250.94 156.03 245.97 163.69 243.65 167.88 236.66 183.34 
M 234.46 187.51 233.92 188.46 
M 267.88 139.88 263.33 145.92 258.99 152.13 254.45 159.18 249.5 167.42 247.21 171.88 241.28 185.63 239.82 188.35 
M 209.67 234.93 208.06 236.47 
M 272.15 140.84 266.72 148.47 262.42 155.07 252.8 171.27 250.48 175.86 245.5 187.46 
M 276.51 141.97 272.35 147.86 267.95 154.74 255.76 175.09 253.41 179.68 250.41 186.64 
M 281.16 143.2 278.13 147.35 275.78 150.89 261.2 174.5 258.59 178.89 256.27 183.37 255.27 185.66 
M 285.97 144.61 281.68 150.62 279.27 154.29 264.07 178.46 261.61 182.72 259.03 187.98 
M 234.78 232.31 234.29 232.97 
M 290.87 146.04 285.25 154.17 268.34 180.46 
M 265.98 184.59 264.31 187.88 
M 295.78 147.44 293.32 150.89 287.53 159.88 
M 285.02 163.81 276.64 176.41 
M 273.97 180.56 271.53 184.62 
M 246.7 229.98 246.03 230.78 
M 300.69 148.82 296.72 154.58 287 170.04 278.5 182.71 275.61 187.66 
M 253.5 228.43 252.21 229.91 
M 305.61 150.17 300.14 158.38 293.13 170.24 290.45 174.4 284.66 182.68 281.63 187.55 
M 261.29 225.37 260.74 226.1 
M 255.77 231.97 251.73 235.94 248.7 238.48 
M 310.65 151.64 306.06 158.34 303.63 162.29 296.88 174.62 294.23 178.74 288.1 187.42 
M 315.79 153.28 309.8 162.1 307.38 166.29 303.16 174.76 300.86 178.92 296.77 184.93 
M 271.3 224.82 269.23 227.64 
M 264.82 233.04 262.4 235.47 
M 320.95 155.07 316.41 161.69 313.75 165.95 311.35 170.31 307.07 178.95 304.74 183.07 301.98 187.16 
M 278.54 221.76 276.23 224.6 
M 274.1 227.32 272.02 229.94 
M 326.06 156.96 320.37 165.49 317.7 169.86 310.72 182.96 309.48 185.01 
M 281.37 224.56 275.77 231.01 272.61 234.35 
M 270.45 236.32 268.99 237.52 
M 331.14 158.85 324.1 169.43 321.37 173.82 313.95 186.93 
M 298.22 211.34 297.32 212.62 
M 294.87 215.91 292.29 218.97 
M 289.62 221.86 286.93 224.62 
M 281.93 229.77 279.64 232.11 
M 336.36 160.79 327.55 173.49 324.78 177.8 319.41 186.82 
M 305.17 209.58 301.76 214.5 299.31 217.71 295.46 222.1 
M 341.81 162.75 333.83 173.43 328.14 181.79 324.99 186.72 
M 315.06 202.71 310.13 210.87 306.41 216.19 
M 303.92 219.37 301.41 222.32 
M 290.89 232.33 288.38 234.3 
M 347.34 164.72 340.3 173.45 337.25 177.55 331 186.6 
M 319.68 203.6 313.53 214 309.89 219.29 
M 307.41 222.4 302.31 227.91 
M 352.87 166.63 343.73 177.54 337.25 186.48 
M 333.62 191.43 326.77 200.71 324.18 204.67 320.49 210.89 
M 313.32 222.15 310.86 225.2 
M 358.29 168.5 350.27 177.75 343.69 186.36 
M 343.24 186.97 336.98 195.17 
M 334.14 198.77 328.75 206.09 
M 321.49 217.93 319.12 221.58 
M 363.58 170.36 353.65 182 344.74 193.58 334.74 206.01 
M 329.62 213.42 327.22 217.23 
M 368.83 172.17 359.99 182.65 349.61 195.84 
M 346.66 199.45 343.75 202.91 
M 340.9 206.29 338.16 209.7 
M 335.54 213.23 330.61 220.4 
M 374.08 173.97 366.14 183.45 352.93 200.01 
M 350 203.48 344.32 210.06 
M 341.63 213.36 336.5 220.06 
M 379.36 175.77 372.23 184.26 367.81 189.84 
M 364.93 193.51 357.66 202.4 350.49 210.59 
M 383.94 178.16 378.36 184.96 366.73 199.65 359.45 208.02 
M 383.94 185.87 374.21 198.61 
M 371.38 202.09 368.5 205.45 
M 365.59 208.69 362.72 211.85 
M 383.94 194.15 378.81 201.03 371.95 209.03 
M 383.94 202.56 382.92 203.85 
M 195.56 142.86 196.01 140.25 196.54 134.8 197.93 125.93 198.49 119.59 199.16 114.29 199.74 111.52 199.86 109.01 202.07 100.12 202.82 97.67 203.82 95.33 204.11 89.86 204.89 87.2 205.99 84.6 209.21 79 210.76 76.89 213.03 74.59 214.11 71.42 216.32 66.21 218.08 64.18 219.21 62.59 219.4 58.74 219.99 56.39 222.09 55.2 224.4 52.15 226.73 47.72 229.55 45.25 232.02 43.78 235.39 42.72 236.89 39.31 239.65 37.32 243.4 33.39 246.23 31.33 248.91 30.86 248.99 30 249.82 33.76 250.2 37.22 249.84 39.96 248.81 44.64 250.27 50.48 250.3 52.65 252.72 57.03 255.12 62.47 255.55 63.94 256.55 65.7 260.25 70.76 261.73 73.72 262.25 76.9 262.37 81.52 263.03 84.06 265.6 92.01 267.5 101.46 267.31 103.41 268.92 104.68 271.75 105.92 272.51 108.81 275.97 118.24 277.65 124.49 278.61 126.67 280.56 129.52 282.51 133.13 283.18 136.14 283.27 138.5 286.89 141.8 288.22 143.59 290.67 145.99 
M 289.75 145.72 289.75 145.72 
M 200.2 141.84 200.86 139.38 201.63 133.63 202.65 122.2 202.28 119.59 202.61 116.67 203.38 113.71 203.4 111.03 203.97 107.29 205.35 104.03 206.1 101.27 206.22 99.11 206.92 97.29 207.94 95.45 207.85 91.85 208.71 88.31 210.75 85.69 213.03 81.13 215 79.13 216.32 76.53 217.17 73.57 218.09 72.1 219.49 68.56 220.86 66.16 222.48 64.12 
M 204.84 140.81 205.73 138.49 206.3 129.83 206.72 126.84 207.34 124.45 207.53 121.71 208.05 119.16 208.29 112.9 208.72 109.94 209.79 106.75 210.88 104.33 211.71 99.15 212.69 97.2 214.4 91.2 216.73 84.41 217.08 82.36 218.52 80.15 220.44 78.01 222.52 74.48 224.3 72.04 
M 209.53 140.04 210.21 137.57 210.37 134.51 210.79 131.64 212.07 126.35 212.13 123.42 212.38 120.71 212.01 117.96 212.61 115.55 212.83 112.68 213.37 109.64 215.17 106.09 215.99 103.57 217.27 101.64 220.27 94.84 220.77 88.94 220.48 87.49 224.66 80.9 227.5 76.73 229.57 74.92 
M 214.22 139.28 215.74 131.19 216.46 125.18 216.7 122.27 216.36 115.4 217.4 111.7 218.81 108.65 220.38 105.93 221.12 103.91 222.36 101.84 223.62 99.08 225.24 97.18 225.71 94.71 225.89 90.1 227.01 87.31 229.36 82.67 234.86 79.15 237.2 77.97 240.13 75.19 242.83 71.94 
M 218.94 138.7 219.85 136.65 220.91 130.86 221.9 124.19 221.61 121.82 221.82 119.29 221.54 116.51 222.09 113.41 224.3 108.83 225.22 107.24 227.25 100.93 231.45 90.25 232.43 86.58 233.77 83.74 236.12 82.79 238.86 81.95 241.88 80.48 
M 223.65 138.12 224.93 136.3 225.11 133.53 225.78 130.54 225.73 127.31 225.42 124.6 226.8 118.69 227.67 115.72 229.53 111.1 230.64 108.9 230.8 106.33 231.97 103.18 233.35 100.1 234.04 97.68 234.97 95.3 
M 228.4 137.98 229.08 135.96 229.41 133.38 229.79 127.1 231.44 121.61 231.95 118.82 233.49 115.81 235.46 109.85 236.36 107.72 
M 233.15 137.85 233.91 135.95 233.93 133.29 234.82 130.44 235.93 127.99 237.55 121.95 237.98 118.03 238.89 114.85 239.98 112.53 240.86 109.86 
M 237.91 137.81 238.66 135.87 239.34 133.29 242.09 125.52 242.86 118.59 245.44 112.64 245.56 110.27 246.54 108.25 248.82 106.12 251.36 104.57 254.18 103.96 255.2 102.05 257.44 100.21 261.22 98.34 
M 242.66 137.76 243.47 135.9 244.17 132.99 244.44 130.03 244.93 127.63 245.13 124.9 245.53 122.31 246.8 118.9 249.72 113.69 
M 247.41 137.65 248.98 135.88 249.26 132.76 249.27 129.88 248.8 127.63 250 121.65 252.54 119.35 254.16 117.02 258.11 112.83 
M 252.16 137.55 253.97 135.74 254.62 133.27 254.34 130.43 256.09 124.1 257.25 122.43 259.86 121.34 262.05 119.42 264.15 117.03 
M 256.89 138.05 257.96 136.48 258.22 133.78 259.12 130.73 260.73 127.71 262.65 124.98 263.71 123.77 266.24 122.03 268.44 120.23 270.11 117.26 272.6 117.21 
M 261.61 138.56 262.93 136.95 264 134.21 268.41 126.88 270.63 125.41 272.7 123.17 275.71 122.42 
M 266.26 139.54 268.37 137.89 269.45 135.21 271.24 132.92 
M 270.91 140.52 273.68 139.07 273.99 136.45 275.78 135.42 
M 275.51 141.71 277.4 141.11 278.45 140.32 
M 280.11 142.9 280.11 142.91 
M 284.68 144.23 290.07 145.44 
M 153.64 188.29 366.97 184.77 366.99 185.72 153.63 191.69 
M 153.65 192.15 346.58 198.01 346.56 198.96 153.68 195.56 
M 153.67 196.01 325.83 209.35 325.77 210.3 153.29 199.4 
M 153.22 199.82 304.84 218.78 304.73 219.73 152.67 203.19 
M 152.61 203.55 283.75 226.31 283.6 227.25 152.77 207.03 
M 152.8 207.39 262.68 231.93 262.48 232.86 152.74 210.87 
M 152.74 211.18 241.76 235.66 241.52 236.58 152.79 214.72 
M 152.8 215 221.13 237.52 220.85 238.43 152.23 218.4 
M 152.87 218.83 200.91 237.54 200.59 238.43 151.71 222.04 
M 152.95 222.66 181.23 235.74 180.86 236.62 151.63 225.82 
M 153.02 226.41 162.21 232.1 161.8 232.96 151.56 229.51 
M 345.52 186.32 340.81 187.74 338.55 188.61 336.39 189.65 334.35 190.88 330.61 193.91 327.16 197.42 
M 327.13 198.61 322.44 199.61 320.18 200.27 318 201.12 315.93 202.16 312.08 204.83 308.49 208 
M 308.41 209.2 303.77 209.77 299.34 210.88 297.26 211.73 295.25 212.79 293.32 214.04 289.61 216.88 
M 289.47 218.07 284.91 218.23 280.53 218.93 278.44 219.6 276.41 220.48 274.45 221.54 270.63 224.03 
M 270.44 225.22 266 224.97 261.68 225.28 259.6 225.76 257.56 226.45 255.57 227.34 251.67 229.48 
M 251.43 230.65 247.13 230.01 242.92 229.93 240.85 230.22 238.82 230.73 236.82 231.43 232.86 233.22 
M 232.56 234.37 228.44 233.35 224.35 232.9 222.32 233 220.3 233.33 218.29 233.85 214.3 235.27 
M 213.94 236.41 210.03 235.03 206.09 234.21 204.11 234.13 202.12 234.27 200.12 234.61 196.11 235.66 
M 195.7 236.79 192.02 235.06 188.26 233.89 186.34 233.63 184.39 233.59 182.41 233.75 178.4 234.43 
M 177.94 235.54 174.53 233.46 170.98 231.94 169.13 231.49 167.22 231.27 165.27 231.24 161.29 231.53 
M 343.14 187 338.55 188.61 336.39 189.65 334.35 190.88 332.43 192.31 328.86 195.63 
M 320.88 187.57 316.82 189 313.11 191.01 311.41 192.27 308.26 195.2 
M 298.61 188.15 295.09 189.38 291.87 191.13 290.4 192.22 287.66 194.76 
M 276.35 188.72 273.36 189.77 270.63 191.25 269.38 192.17 267.06 194.33 
M 254.08 189.3 250.48 190.71 248.36 192.13 246.46 193.9 
M 231.81 189.87 229 190.98 227.35 192.08 225.86 193.47 
M 324.77 199.08 320.18 200.27 318 201.12 315.93 202.16 313.96 203.4 310.27 206.38 
M 300.62 198.61 296.67 199.64 293.02 201.26 291.33 202.33 288.15 204.89 
M 276.47 198.14 273.17 199 271.6 199.61 268.69 201.25 266.04 203.4 
M 252.33 197.67 249.66 198.36 247.2 199.46 246.06 200.18 243.92 201.9 
M 228.18 197.2 225.2 198.1 223.43 199.1 221.8 200.41 
M 306.07 209.45 301.52 210.24 299.34 210.88 297.26 211.73 295.25 212.79 291.45 215.42 
M 279.16 207.71 275.4 208.36 273.61 208.89 270.23 210.47 267.1 212.64 
M 252.25 205.98 249.29 206.49 246.52 207.46 245.22 208.15 242.75 209.86 
M 225.34 204.24 223.17 204.61 221.15 205.32 218.39 207.08 
M 287.18 218.11 282.69 218.49 280.53 218.93 278.44 219.6 276.41 220.48 272.53 222.75 
M 263.57 215.52 259.87 215.83 258.09 216.2 254.69 217.47 251.49 219.35 
M 239.97 212.94 237.05 213.18 235.65 213.47 232.97 214.47 230.44 215.95 
M 216.36 210.35 214.23 210.53 212.21 211.06 209.4 212.55 
M 268.21 225.06 263.82 225.03 261.68 225.28 259.6 225.76 257.56 226.45 253.62 228.37 
M 241.16 220.87 237.79 220.85 236.16 221.05 233 221.94 229.97 223.41 
M 214.11 216.69 210.63 216.81 208.44 217.43 206.33 218.46 
M 249.27 230.29 245.01 229.87 242.92 229.93 240.85 230.22 238.82 230.73 234.83 232.29 
M 215.33 223.51 212.56 223.24 211.2 223.28 208.54 223.8 205.94 224.81 
M 230.49 233.82 226.39 233.03 224.35 232.9 222.32 233 220.3 233.33 216.29 234.52 
M 203.12 227.14 200.45 226.62 197.81 226.61 196.5 226.82 193.89 227.59 
M 211.99 235.68 208.06 234.52 206.09 234.21 204.11 234.13 202.12 234.27 198.11 235.1 
M 204.98 241.17 212.33 250.42 218.52 270.04 215.76 271.17 212.99 270.52 205.77 266.87 202.25 266.85 199.47 266.02 194 259.03 179.91 245.34 178.43 241.49 176.72 234.79 
M 200.34 240.14 203.59 244.01 205.51 247.57 207.33 250.41 211.67 255.97 213.64 259.17 214.55 262.49 
M 195.7 239.12 198.96 242.36 201.1 245.29 202.18 248.19 203.01 251.71 207.52 256.99 
M 191.08 237.99 194.16 241.27 198.25 247.33 199.34 249.44 200.46 252.47 202.05 256.11 
M 186.46 236.87 190.74 243.52 192.23 246.57 193.24 249.52 196.24 254.43 196.35 257.75 197.34 261.03 
M 181.82 235.87 184.3 240.38 186.44 243.63 188.6 245.88 
M 327.42 229.33 330.19 234.3 336.19 239.79 339.51 241.17 343.36 253.92 341.27 258.96 337.24 262.9 335.06 264.44 331.68 269.04 330.36 271.69 328.44 273.79 325.08 273.42 315.53 274.92 312.09 273.99 308.66 274.1 306.29 275.36 305.08 278.19 302.52 279.65 299.43 280 296.1 279.91 292.55 278.79 286.58 277.54 284.95 277.05 278.75 273.15 276.64 272.97 274.18 272.46 272.28 272.45 269.52 271.51 259.79 265.17 258.42 264.91 249.79 257.77 249.1 256.39 248.11 253.59 245.74 249.08 242.65 243.86 
M 322.88 230.72 330.12 240.21 332.67 243.29 335.13 245 337.14 246.94 
M 318.33 232.11 323.43 237.73 325.35 241.46 327.76 244.54 330.4 246.81 332.34 248.73 334.19 251.52 337.05 254.25 
M 313.76 233.41 317.05 236.39 319.3 238.77 321.75 240.7 327.22 249.84 329.72 251.46 331.67 253.76 333 256.87 335.6 258.9 
M 309.19 234.71 312.48 238.53 314.27 241.42 316.71 243.76 318.77 246.42 324.14 254.03 326.42 256.14 328.22 258.32 330.82 259.7 332.77 261.36 
M 304.62 236 309.8 242.96 312.27 245.39 314.29 247.9 316.02 251.19 318.06 253.97 320.79 255.8 326.01 260.12 327.79 262.09 328.74 264.33 
M 300.04 237.28 303.02 241.16 309.83 248.61 311.34 251.62 316.32 256.82 320.85 261.1 
M 295.4 238.31 298.35 242.28 302.76 247.71 307.34 252.66 309.06 254.92 
M 290.75 239.28 293.26 242.91 295.78 245.64 298.08 248.59 299.49 251.96 303.1 256.03 304.62 258.7 
M 286.08 240.16 288.63 243.92 291.63 250.39 293.4 253.57 299.18 256.99 300.41 259.37 301.45 262.44 
M 281.4 241 283.86 244.62 285.67 248.13 287.7 251.25 289.04 254.24 293.78 258.97 
M 276.72 241.79 278.92 245.61 283.09 251.48 284.55 254.61 291.14 261.29 
M 272.03 242.56 278.37 252.71 279.77 255.38 281.85 260.07 283.56 262.7 285.97 265.73 293.72 276.38 
M 267.3 243.05 269.64 246.84 273.09 253.48 274.75 255.96 276.6 261.15 278.15 263.98 
M 262.56 243.45 267.77 250.51 269.26 253.38 270.29 256.53 270.33 258.87 
M 257.82 243.76 264.91 253.82 266.85 258.3 267.3 261.31 269.25 264.91 
M 253.08 244.04 256.34 248.67 260 255.32 
M 248.33 244 251.5 249.11 254.24 252.32 255.93 254.77 
M 383.94 177.34 386.92 176.68 389.71 175.59 394.77 172.71 398.07 171.39 405.75 167.76 408.09 166.07 410.23 164.16 412.73 162.47 414.87 160.65 417.89 159.5 422.14 156.09 427.2 154.11 429.86 152.66 435.52 150.34 438.29 148.95 439.92 147.21 441.36 144.51 445.84 139.1 458.41 141.79 462.74 145.71 464.64 148.12 466.19 151.1 468.19 156.32 467.86 158.92 466.71 160.7 466.39 163.7 465.21 166.43 464.24 169.39 463.81 172.88 462.49 175.53 456.46 177.51 454.38 179.45 451.74 184.62 450 186.46 448.36 192.27 446.62 194.49 444.11 195.96 445.34 198.59 448.98 204.39 450.17 206.95 450.07 208.23 451.9 210.76 460.11 218.97 466.69 225.26 467.69 228.21 466.55 233.34 465.71 239.12 463.29 244.49 460.78 245.8 458.46 247.29 455.93 248.07 448.06 252.22 441.93 248.57 438.65 247.58 436.98 245.69 434.31 243.64 431.7 241.81 428.51 239.92 426.82 237.02 424.48 235.67 421.37 234.61 419.05 232.07 416.86 230.54 414.55 229.61 408.91 225.31 404.44 221.56 402.49 219.49 397.76 216.01 394.61 214.44 389.94 211.28 383.94 206.77 
M 383.94 179.17 387.07 178.45 392.61 176.53 394.99 175.06 400.64 172.18 403.5 171.35 408.58 169 411.07 166.35 413.56 164.57 418.42 162.4 420.82 160.9 426.15 159.9 
M 392.87 178.56 395.68 177.63 400.82 174.91 405.62 173.37 411.48 170.51 417.37 166.99 419.91 166.45 423.41 165.27 426.26 164.92 428.55 163.8 431.6 163.04 433.21 161.65 435.5 160.8 440.3 157.44 
M 383.94 182.83 390.12 181.61 393.38 180.67 396.23 180.1 399.01 179.17 401.71 178.7 403.94 177.66 406.51 176.7 409.12 175.24 412.31 174.18 415.75 172.71 418.29 171.26 421.15 171.34 424.64 170.1 427.66 169.4 429.87 169.17 432.8 169.2 
M 387.21 184.22 399.47 181.97 405.25 181.7 408.11 180.94 410.88 179.59 416.9 177.14 419.22 175.49 422.34 174.65 428.63 173.39 430.74 173.47 437.03 172.83 439.17 172.28 442.5 170.63 447.11 170.48 450.02 168.97 
M 383.94 186.49 387.26 186.54 390.42 186.21 396.76 185.36 400.14 184.73 402.74 185.03 405.47 185.08 408.68 184.79 412.21 183.95 415.27 183.54 418.66 182.54 421.59 181.22 424.76 180.48 427.73 180.46 
M 383.94 188.32 387.21 188.88 390.93 188.63 394.27 188.66 397.2 188.43 400.25 187.71 406.24 188.46 412.76 188.18 416.35 187.78 419.33 187.21 
M 387.27 190.97 394.54 191.41 403.75 190.88 412.98 190.94 416.47 191.87 420.01 192.34 423.29 191.57 
M 383.94 191.98 387.23 193.13 398.1 194.17 407.91 193.57 413.98 195.18 417.26 195.41 421.47 196.49 423.24 196.65 425.64 197.56 429.35 197.7 432.54 197.19 434.7 196.45 
M 387.32 195.25 394.53 195.99 397.78 196.16 400.72 197.2 403.96 197.59 407.27 197.57 412.97 199.31 418.34 200.28 421.32 200.54 424.49 200.08 427.21 200.26 431.1 200.82 433.75 200.87 
M 387.51 197.17 394.07 197.84 397.47 198.67 402.97 200.82 406.24 201.04 408.95 201.86 411.54 201.91 414.52 203.44 420.92 205.17 428.49 204.52 433.2 206.33 435.24 206.02 438.28 206.06 441.28 207.75 
M 390.68 199.83 396.91 201.14 404.86 204.02 408.2 204.97 410.92 205.25 414.09 207.55 417.24 208.5 420.39 208.3 427.23 209.28 429.96 210.13 432.48 211.63 
M 393.52 203.02 396.7 203.93 399.55 204.97 404.58 207.42 410.68 209.2 413.88 210.75 417.4 211.41 420.01 212.23 426.4 212.88 429.35 213.33 432.5 215.06 435.2 217.36 438.26 218.87 440.49 219.67 444.36 222.36 447.38 223.78 450.62 223.9 453.56 225.14 457.24 226.2 459.71 227.69 
M 383.94 201.13 387.26 203.14 396.43 206.64 398.83 207.92 401.08 209.55 407.37 211.65 409.76 213.11 416.92 215.41 419.85 217.06 425.08 217.57 430.84 220.39 433.46 223.02 436.65 224.67 441.93 226.73 
M 390.33 206.37 404.19 213.86 406.74 215.56 409.15 216.74 411.3 218.49 414.66 220.5 417.23 221.7 423.56 221.8 426.54 222.96 429.14 224.67 431.59 227.32 
M 387.35 207.19 400.22 214.81 402.97 216.77 407.98 219.85 409.88 221.67 412.43 223.76 415.53 225.91 418.51 226.67 
M 363.25 212.83 359.69 214.26 358.49 215.75 356.68 219.06 355 219.93 351.66 219.08 349.83 219.06 346.1 220.27 343.71 223.25 342.41 224.62 335.36 224.53 336.84 226.02 
M 57.76 186.89 59.22 185.23 61.42 183.54 64.55 181.8 68.81 180.14 78.57 176.89 88.95 172.34 95.08 170.21 115.57 164.64 132.58 161.54 139.01 160.71 142.79 163.64 144.61 166.88 146.69 170.08 149 173.25 150.84 176.49 152.02 179.82 153.73 186.58 153.54 190.11 153.73 193.59 153.64 197.1 152.49 204.28 152.84 207.73 152.79 214.74 152.26 218.32 151.02 222.01 148.48 225.8 135.04 225.14 125.06 224.07 116.14 222.64 108.3 220.8 100.93 218.84 88.23 214.54 82.44 212.3 76.95 209.57 72.29 206.58 68.69 203.64 65.38 200.65 
M 127.82 179.36 128.24 182.25 126.61 187.87 125.46 190.44 124.03 192.87 122.95 195.16 123.23 199.37 124.74 203.71 125.41 206.4 125.3 209.57 116.37 209.46 103.41 208.78 97.41 207.94 91.43 206.83 80.69 203.56 
M 63.09 199.78 54.7 191.56 54.01 189.19 55.36 187.13 57.93 186.87 59.64 188.54 62.7 195.07 65.48 200.57 
M 65.05 201.31 55.72 202.43 53.52 202.38 51.8 200.79 51.86 198.44 53.75 196.89 56 197.19 62.53 199.62 65.17 200.42 
M 88.49 193.72 86.13 190.41 84.97 186.51 85.14 182.44 86.61 178.65 89.24 175.55 92.74 173.46 96.72 172.63 100.76 173.13 104.42 174.92 107.29 177.8 109.08 181.45 109.58 185.49 108.75 189.47 106.67 192.97 103.56 195.6 99.77 197.08 95.7 197.25 91.8 196.09 88.49 193.72 
M 105.28 179.23 106.71 182.16 107.11 185.39 106.45 188.58 104.78 191.37 102.3 193.48 99.26 194.66 96.01 194.79 92.89 193.86 90.24 191.97 
M 93.02 187.76 92.08 186.44 91.61 184.88 91.68 183.25 92.27 181.74 93.32 180.49 94.72 179.66 96.32 179.33 97.93 179.53 99.39 180.24 100.54 181.39 101.26 182.86 101.46 184.47 101.13 186.07 100.29 187.46 99.05 188.52 97.54 189.11 95.91 189.17 94.35 188.71 93.02 187.76 
M 94.06 186.49 96.71 189.14 
M 94.73 184.59 98.77 188.63 
M 96.74 184.03 100.23 187.52 
M 97.74 182.47 101.16 185.89 
M 98 180.16 101.34 183.5 
M 57.87 186.75 63.48 192.36 
M 60.82 184 64.86 188.04 
M 64.41 181.88 68.28 185.76 
M 68.49 180.27 72.5 184.27 
M 72.81 178.88 78.2 184.27 
M 77.05 177.42 82.27 182.64 
M 81.09 175.75 83.94 178.61 
M 85.05 174.01 88.03 176.99 
M 89.05 172.31 91.15 174.41 
M 93.28 170.83 95.36 172.92 
M 97.65 169.51 101.78 173.63 
M 102.13 168.28 107.31 173.46 
M 106.59 167.03 110.84 171.29 
M 111.08 165.82 116.18 170.93 
M 115.6 164.64 120.1 169.14 
M 120.4 163.74 125.01 168.34 
M 125.2 162.83 129.2 166.84 
M 130.04 161.97 135.31 167.24 
M 134.99 161.22 139.31 165.54 
M 120.41 167.16 120.04 167.52 119.19 169.24 118.63 170.01 117.82 170.73 115.9 171.57 115 171.76 113.96 171.72 109.1 170.86 
M 145.59 168.38 143.76 166.91 142.03 164.51 140.66 163.89 139.97 163.73 138.84 163.95 
M 98.6 199.83 99.04 200.96 98.64 203.41 98.67 205.78 97.12 208.67 
M 83.39 199.33 82.88 200.78 81.08 203.61 80.84 205.87 80.06 207.32 79.6 207.89 
M 109.16 189.46 109.51 190.14 110.33 190.96 111.27 191.34 112.12 191.32 
M 145.61 216.42 145.81 215.4 145.73 214.73 145.25 213.69 144.04 211.8 
M 97.6 213.06 97.5 214.37 96.83 215.26 96.47 215.43 96.36 215.25 
M 102.73 207.35 101.98 208.28 101.54 209.28 101.23 212.52 101 213.33 100.49 214.23 99.81 214.8 97.68 215.65 
M 138.66 190.85 136.5 190.78 134.38 191.01 132.8 190.39 
M 99.24 208.21 98.62 209.85 98.14 214.1 97.31 215.09 96.8 215.43 96.34 215.46 
M 142.64 220.73 141.08 220.54 138.92 221.44 137.89 221.67 135.9 221.8 135.29 221.78 134.4 221.35 133.87 220.39 
M 131.38 217.47 130.97 217.01 130.74 216.44 130.73 215.93 131.05 215.23 132.2 214.56 
M 94.03 216.45 95.2 214.94 95.61 214.68 96.03 214.54 96.62 214.64 96.78 214.98 96.46 215.35 
M 111.62 187.18 111.47 189.25 111.56 190.01 111.96 190.42 112.92 190.41 
M 64.33 198.39 65.48 197.58 68.43 196.58 69.75 195.94 
M 105.38 167.37 103.93 167.99 103.28 168.89 102.94 169.8 
M 112.56 167.4 111.19 167.6 110.6 167.85 108.56 169.66 107.91 169.96 105.5 170 104.28 169.61 
M 132.52 171.89 132.43 173.66 132.79 176.75 
M 124.49 171.55 124.44 172.62 125.11 173.75 127.36 175.27 129.98 176.53 131.02 177.62 
M 140.98 209.25 138.41 208.22 137.51 207.4 136.62 206.06 133.32 204.55 
M 138.52 166.03 136.52 166.56 135.61 167.69 134.86 168.08 
M 124.64 176.81 125.15 178.38 125.19 179 124.68 181.69 
M 94.32 209.36 94.87 209.53 95.61 210.18 96.94 212.38 97.18 213.03 97.3 214.14 96.76 215.27 
M 72.02 192.19 71.89 190.98 71.55 189.84 70.36 188.09 69.7 187.63 68.61 187.43 67.82 187.61 67.36 188 66.92 188.82 
M 99.53 169 101.49 171.4 102.01 171.78 102.89 172 103.54 171.88 
M 110.85 194.85 110.54 196.13 109.73 198.03 108.34 199.69 106.62 201.21 104.25 205.46 
M 102.41 168.21 102.53 169.26 102.89 170.37 
M 95.91 198.9 97.19 199.79 97.73 200.43 98.27 205.59 
M 112.8 190.86 113.45 190.57 114.61 189.25 115.91 188.29 116.45 188.09 118.12 187.92 
M 123.58 204.75 122.01 205.19 120.83 205.09 116.73 203.59 115.43 203.3 
M 130.87 201.54 131.86 200.87 131.92 200.68 
M 129.91 206.63 131.74 206.15 132.01 204.99 131.93 204.5 
M 144.96 175.64 143.12 174.16 141.1 173.16 135.14 171.13 134.66 171.05 133.98 171.32 
M 115.69 178.77 115.57 179 115.67 179.38 116.73 180.41 117.53 180.71 118.55 180.74 
M 149.29 204.67 148.43 204.31 145.27 203.65 144.22 203.58 143.21 203.72 140.33 204.53 136.13 204.23 
M 92.34 197.77 91.26 198.09 89.52 199.04 88.2 200.45 87.18 201.09 
M 117 165.4 115.57 164.95 114.67 164.88 
M 140.2 193.89 139.23 193.68 137.91 193.67 135.18 194.14 134.22 194.46 
M 103.25 167.97 102.9 169.14 102.9 170.17 
M 116.48 188.09 118.64 187.88 120.35 187.98 122.05 187.68 
M 103.04 168.03 102.83 169.87 
M 65.17 199.26 65.8 198.45 66.53 197.87 69.76 196.63 70.28 196.16 71.07 194.7 71.24 193.79 71.22 192.74 70.95 190.36 69.99 188.4 
M 108.95 210.11 108.97 209.27 108.35 205.79 107.33 205.42 106.1 205.36 
M 131 207.97 132.98 208.54 133.19 208.84 
M 94.21 216.51 95.54 214.89 96.25 214.65 96.66 214.82 96.71 215.1 
M 131.24 188.28 131.6 189.01 132.67 190.41 
M 140.24 164.89 139.76 164.82 139.26 164.95 136.58 166.23 136.25 166.53 135.82 167.41 
M 85.43 207.85 87.13 207.39 88.36 206.63 88.58 206.17 88.66 204.85 
M 85.13 182.45 83.25 183.37 82.5 184.26 
M 137.01 193.55 134.31 193.95 134.06 193.74 133.93 193.13 
M 141.24 208.63 139.27 207.5 138.34 205.47 137.81 204.97 136.27 204.48 134.64 204.29 
M 124.93 196.62 125.76 195.96 129.64 193.83 130.77 193.4 132.13 193.37 
M 71.24 191.6 71.08 190.39 70.65 189.3 70.09 188.41 69.5 187.92 68.48 187.68 67.78 187.82 67.35 188.16 66.73 189.13 
M 101.23 168.53 103.04 170.68 
M 144.82 178.26 143.45 176.42 141.99 175.41 141.12 175.08 135.2 173.42 134.49 173.43 133.89 173.63 133.46 173.97 
M 84.92 199.53 81.86 203.69 81.44 205.87 80.27 207.65 
M 133.92 211.95 134.18 212.2 134.17 212.82 132.93 214.16 132.21 214.59 
M 118.44 172.16 116.09 174.03 114.97 174.38 111.7 174.29 110.61 174.12 109.56 173.61 106.43 171.64 105.25 170.63 
M 141.83 171.12 138.97 170.09 134.03 169.06 
M 105.07 219.94 105.87 218.44 106.44 216.82 106.51 216.21 106.26 215.83 
M 110.88 197.74 108.86 200.03 107.04 201.46 104.48 205.27 103.91 205.81 
M 76.29 199.47 77.45 201.26 77.96 202.68 77.91 203.88 77.45 204.74 
M 118.11 192.27 119.02 189.36 119.63 188.35 120.15 188.07 121.79 187.77 122.29 187.53 
M 87.03 173.16 86.38 174.82 86.18 177.9 85.47 179.64 
M 103.29 167.96 102.86 169.4 103.06 170.54 
M 95.4 202.41 95.69 203.41 95.59 204.45 94.22 207.06 94.17 207.53 94.38 208.06 
M 65.28 200.21 66.41 198.56 67.16 198.08 69.9 196.95 70.39 196.46 71.2 195.03 71.42 194.12 71.2 190.75 
M 108.64 199.34 106.9 200.84 106.16 201.77 105.68 203.04 104.44 205.18 103.23 206.34 
M 131.99 200.75 132.12 200.07 
M 143.45 214.99 142.48 213.91 139.78 212.87 138.62 212.64 136.28 212.54 135.27 212.72 134.14 213.29 
M 85.06 184.21 83.93 184.34 83.25 184.74 
M 141.07 164.73 139.94 164.32 139.41 164.35 136.64 165.94 136 166.91 
M 72.78 190.13 72.06 188.54 70.55 187.12 69.8 186.79 68.49 186.74 67.59 186.96 67.12 187.49 66.82 188.63 
M 120.78 163.88 120.4 163.73 
M 91.15 215.5 92.35 214.05 92.89 212.42 93.28 211.77 
M 115.69 166.71 113.89 166.73 111.35 167.04 110.23 167.61 108.22 169.5 107.52 169.77 105.22 169.86 
M 126.84 204.59 127.61 204.31 128.34 203.41 129.3 200.46 129.63 199.89 130.5 199.02 131.06 198.73 132.14 198.69 
M 139.2 225.34 138.82 224.32 138.37 223.96 137.18 223.53 135 223.11 134.52 222.85 133.65 221.92 132.9 219.94 
M 112.46 185.78 112.89 186.45 113.53 186.97 113.95 187.03 115.74 186.73 116.89 186.78 118.66 187.05 119.69 187.57 
M 125.16 204.22 126.59 204.77 127 204.77 127.76 204.36 128.45 203.39 129.41 200.45 129.77 199.92 
M 116.45 220.76 116.85 219.22 116.78 218.32 
M 102.62 168.15 102.63 169.28 102.86 170.25 
M 83.25 193.18 85.18 193.82 85.45 193.74 85.51 193.39 
M 69.38 204.2 69.99 202.89 71.38 202.07 
M 66.07 196.01 67.83 195.48 69.01 194.89 69.86 194.05 70.09 193.45 70.12 190.56 69.87 189.51 69.52 188.68 69.06 188.22 68.21 187.96 
M 79.62 176.42 80.01 177.3 80.04 178.21 79.86 179.1 79.49 179.81 78.9 180.27 78.48 180.31 77.12 179.98 
M 111.53 172.37 108.76 171.13 105.57 170.36 104.39 169.7 103.49 169.87 
M 72.71 199.38 73.98 198.53 74.29 197.92 73.84 195.34 73.76 193.64 
M 134.25 165.73 132.98 166.94 132.9 167.42 133.08 167.9 
M 153.26 195.28 153.49 194.61 153.47 194.12 153.36 193.62 152.77 192.79 151.85 192.02 150.98 191.61 150.46 191.57 149.95 191.81 
M 94.37 216.56 95.6 215.02 96.45 214.78 96.67 214.99 96.47 215.33 
M 65.45 200.6 66.32 201.72 
M 59.61 196.39 59.42 197.37 59.98 196.76 
M 54.53 190.98 53.7 191.89 53.1 193.78 54.05 192.34 54.98 191.84 
M 65.11 200.89 66.68 201.08 
M 59.97 198.68 60.17 198.27 60.98 197.55 60.74 198.34 60.87 199.01 
M 54.47 196.99 54.89 195.6 56.22 194.13 55.46 195.67 55.52 197.13 
M 58.43 202.14 61.89 204.33 66.67 206.73 71.68 208.39 76.95 209.57 
M 59.06 202.56 59.9 201.96 
M 58.99 202.52 59.86 201.97 
M 72.23 208.52 70.76 206.79 
M 143.73 159.01 150.4 165.68 
M 149.33 157 159.76 167.44 
M 154.91 154.98 165.46 165.53 
M 160.56 153.02 168.91 161.37 
M 166.29 151.15 173.28 158.15 
M 172.12 149.38 181.32 158.58 
M 178.01 147.67 186.49 156.15 
M 184.02 146.07 195.06 157.11 
M 189.98 144.43 198.72 153.17 
M 195.94 142.78 205.65 152.49 
M 202.16 141.4 213.05 152.29 
M 208.56 140.2 217.81 149.45 
M 215.13 139.16 223.88 147.92 
M 221.9 138.33 232.75 149.18 
M 229.13 137.96 236.35 145.17 
M 236.6 137.82 242.76 143.98 
M 244.11 137.73 254.36 147.98 
M 251.54 137.55 262.22 148.23 
M 259.96 138.37 266 144.41 
M 269.39 140.2 278.12 148.92 
M 279.56 142.76 288.57 151.77 
M 290.27 145.87 296.58 152.18 
M 300.87 148.87 311.4 159.4 
M 311.53 151.92 318.55 158.94 
M 323.06 155.85 331.52 164.31 
M 335.16 160.34 343.71 168.9 
M 347.04 164.62 355.07 172.65 
M 358.66 168.63 369.43 179.41 
M 370.3 172.67 380.15 182.53 
M 381.86 176.63 383.27 178.04 
M 141.32 159.87 142.59 162.42 
M 152.91 183.05 156.2 189.62 
M 178.58 234.4 179.02 235.28 
M 144.14 158.86 145.42 161.41 
M 154.77 180.11 155.62 181.81 
M 157.32 185.21 158.17 186.91 
M 181.64 233.86 182.75 236.07 
M 161.84 187.61 162.95 189.82 
M 184.84 233.6 186.47 236.87 
M 164.66 186.59 166.24 189.75 
M 188.32 233.9 190.26 237.79 
M 159.83 170.27 162.38 175.37 
M 169.18 188.97 169.54 189.69 
M 161.79 167.55 164.34 172.65 
M 165.19 174.35 166.89 177.75 
M 158.24 153.78 158.66 154.63 
M 162.91 163.14 168.86 175.04 
M 200.32 237.95 201.55 240.41 
M 161.1 152.85 162.37 155.4 
M 164.92 160.5 173.42 177.5 
M 202.33 235.31 203.18 237.01 
M 204.87 240.39 205.28 241.23 
M 163.96 151.91 165.23 154.46 
M 169.48 162.96 175.43 174.87 
M 205.19 234.38 208.96 241.92 
M 166.81 150.98 168.09 153.53 
M 171.49 160.33 172.34 162.03 
M 173.19 163.73 174.04 165.43 
M 174.89 167.13 176.59 170.53 
M 208.89 235.14 212.64 242.62 
M 169.7 150.1 170.13 150.95 
M 182.88 176.46 187.13 184.96 
M 212.61 235.91 215.92 242.54 
M 184.93 173.89 190.03 184.1 
M 215.41 234.85 219.14 242.32 
M 186.97 171.33 193.77 184.93 
M 218.24 233.87 220.98 239.34 
M 178.41 147.56 179.69 150.11 
M 189.04 168.82 195.84 182.42 
M 221.22 233.18 226.32 243.39 
M 181.35 146.78 183.47 151.03 
M 186.87 157.83 190.27 164.63 
M 191.12 166.33 196.23 176.53 
M 197.08 178.23 197.93 179.93 
M 224.41 232.91 225.98 236.04 
M 227.68 239.44 228.53 241.14 
M 184.28 146 185.56 148.55 
M 188.11 153.65 190.66 158.75 
M 191.51 160.45 194.91 167.25 
M 227.92 233.27 230.61 238.66 
M 187.21 145.2 187.64 146.05 
M 192.74 156.25 197.84 166.45 
M 231.68 234.14 231.84 234.46 
M 235.24 241.27 236.55 243.87 
M 193.96 152.04 200.76 165.64 
M 237.31 238.75 239.87 243.87 
M 197.72 152.92 200.27 158.02 
M 201.12 159.72 202.82 163.12 
M 240.23 237.93 243.2 243.88 
M 200.65 152.12 202.35 155.52 
M 244.01 238.84 246.57 243.96 
M 196.59 137.35 197.87 139.9 
M 202.97 150.1 203.82 151.8 
M 212.32 168.81 217.42 179.01 
M 197.36 132.24 201.19 139.89 
M 204.59 146.69 208.84 155.19 
M 213.94 165.39 220.74 179 
M 198.51 127.89 202.77 136.39 
M 207.02 144.89 212.97 156.79 
M 215.52 161.89 223.17 177.19 
M 200.74 125.69 201.59 127.39 
M 202.44 129.09 204.99 134.19 
M 210.09 144.39 215.19 154.59 
M 218.6 161.4 219.45 163.1 
M 220.3 164.8 225.4 175 
M 212.53 142.6 217.63 152.8 
M 218.48 154.5 219.33 156.2 
M 222.73 163.01 225.28 168.11 
M 226.13 169.81 227.83 173.21 
M 233.78 185.11 234.63 186.81 
M 261.83 241.22 262.94 243.42 
M 218.35 147.6 223.45 157.81 
M 235.36 181.61 238.73 188.37 
M 265.11 241.12 266.13 243.15 
M 211.85 127.95 214.4 133.05 
M 220.35 144.95 221.2 146.65 
M 222.05 148.35 227.16 158.56 
M 237.36 178.96 242.03 188.3 
M 260.64 225.52 262.01 228.27 
M 206.13 109.86 209.53 116.66 
M 212.93 123.46 218.03 133.66 
M 223.13 143.86 229.94 157.46 
M 240.14 177.87 245.32 188.24 
M 263.73 225.04 264.79 227.17 
M 269.89 237.37 272.23 242.06 
M 206.7 104.35 209.25 109.45 
M 210.1 111.15 213.51 117.95 
M 215.21 121.35 220.31 131.55 
M 226.26 143.45 233.06 157.05 
M 236.46 163.86 240.71 172.36 
M 244.11 179.16 244.96 180.86 
M 245.81 182.56 247.51 185.96 
M 267.04 225.01 267.91 226.76 
M 272.16 235.27 275.52 241.98 
M 209.67 103.63 214.77 113.83 
M 219.02 122.33 222.42 129.13 
M 229.23 142.74 231.78 147.84 
M 232.63 149.54 235.18 154.64 
M 238.58 161.44 240.28 164.84 
M 241.13 166.54 244.53 173.34 
M 274.28 232.85 278.6 241.48 
M 211.87 101.38 212.72 103.08 
M 213.57 104.78 217.82 113.28 
M 227.18 131.98 229.73 137.08 
M 230.58 138.78 232.28 142.18 
M 240.78 159.19 244.18 165.99 
M 245.03 167.69 246.73 171.09 
M 276.48 230.6 277.33 232.3 
M 278.18 234 281.66 240.96 
M 207.18 85.35 208.46 87.9 
M 215.26 101.5 216.96 104.9 
M 217.81 106.6 219.51 110 
M 220.36 111.7 221.21 113.4 
M 230.56 132.1 235.66 142.3 
M 243.31 157.61 250.97 172.91 
M 257.77 186.51 258.5 187.99 
M 279.87 230.72 284.2 239.39 
M 208.97 82.26 210.24 84.81 
M 232.35 129.02 239.15 142.62 
M 246.8 157.92 248.5 161.32 
M 249.35 163.02 251.9 168.12 
M 261.25 186.83 261.8 187.93 
M 278.25 220.83 279.1 222.53 
M 284.2 232.73 285.05 234.43 
M 286.75 237.83 287.47 239.27 
M 210.94 79.56 213.92 85.51 
M 233.47 124.61 240.27 138.22 
M 244.52 146.72 246.22 150.12 
M 250.47 158.62 251.32 160.32 
M 252.17 162.02 258.97 175.62 
M 263.23 184.12 264.08 185.82 
M 264.93 187.52 265.1 187.86 
M 280.62 218.92 283.63 224.93 
M 290.4 238.48 290.8 239.27 
M 213.11 77.23 216.08 83.18 
M 225.43 101.88 227.13 105.28 
M 228.83 108.68 229.68 110.38 
M 238.18 127.39 243.28 137.59 
M 246.68 144.39 250.09 151.19 
M 255.19 161.39 261.14 173.29 
M 283.68 218.37 287.49 226 
M 290.04 231.1 293.81 238.64 
M 214.93 74.23 218.33 81.03 
M 228.53 101.43 233.63 111.63 
M 242.98 130.33 244.68 133.73 
M 248.94 142.24 253.19 150.74 
M 258.29 160.94 265.09 174.54 
M 286.88 218.13 289.74 223.85 
M 293.14 230.65 296.83 238.02 
M 229.21 96.13 230.06 97.83 
M 230.91 99.53 236.01 109.73 
M 251.31 140.34 257.26 152.24 
M 260.66 159.04 267.46 172.64 
M 296.37 230.45 299.82 237.35 
M 233.75 98.55 234.6 100.25 
M 235.45 101.95 238.85 108.76 
M 255.85 142.76 258.4 147.86 
M 263.5 158.06 265.2 161.46 
M 266.05 163.16 266.9 164.86 
M 267.75 166.56 268.6 168.26 
M 301.76 234.57 302.73 236.53 
M 235.9 96.21 236.75 97.91 
M 237.6 99.61 238.45 101.31 
M 262.26 148.92 263.11 150.62 
M 271.61 167.62 275.86 176.12 
M 227.8 73.36 231.21 80.16 
M 232.06 81.86 233.76 85.26 
M 243.96 105.67 245.66 109.07 
M 263.51 144.77 268.61 154.97 
M 273.71 165.17 280.51 178.78 
M 297.05 211.84 300.06 217.88 
M 302.62 222.98 305.17 228.08 
M 306.02 229.78 307.72 233.18 
M 230.15 71.4 235.25 81.6 
M 244.6 100.3 249.7 110.51 
M 253.1 117.31 253.95 119.01 
M 255.65 122.41 256.5 124.11 
M 265.86 142.81 272.66 156.41 
M 276.91 164.91 282.86 176.82 
M 299.82 210.74 301.56 214.22 
M 303.26 217.62 304.11 219.32 
M 304.96 221.02 310.06 231.22 
M 232.08 68.6 239.73 83.9 
M 246.53 97.5 253.33 111.1 
M 254.18 112.8 260.98 126.41 
M 268.63 141.71 275.43 155.31 
M 278.83 162.11 286.48 177.41 
M 290.73 185.91 291.46 187.36 
M 302.77 209.98 305.19 214.82 
M 306.04 216.52 306.89 218.22 
M 307.74 219.92 312.84 230.12 
M 235.48 68.76 241.43 80.66 
M 249.08 95.96 255.03 107.86 
M 255.88 109.56 264.39 126.56 
M 272.04 141.87 277.99 153.77 
M 282.24 162.27 283.94 165.67 
M 284.79 167.37 287.34 172.47 
M 305.84 209.48 311.14 220.08 
M 311.99 221.78 312.84 223.48 
M 239.45 70.05 242.85 76.85 
M 247.95 87.05 249.65 90.45 
M 252.2 95.55 253.9 98.95 
M 254.76 100.65 258.16 107.45 
M 259.86 110.85 265.81 122.75 
M 273.46 138.05 278.56 148.26 
M 279.41 149.96 280.26 151.66 
M 286.21 163.56 287.06 165.26 
M 308.48 208.11 309.16 209.47 
M 310.01 211.17 312.56 216.27 
M 250.42 85.32 254.67 93.82 
M 256.37 97.22 258.92 102.32 
M 263.17 110.83 269.12 122.73 
M 310.74 205.97 310.78 206.04 
M 311.63 207.74 312.48 209.44 
M 313.33 211.14 314.18 212.84 
M 321.83 228.14 322.67 229.82 
M 251.5 80.84 257.45 92.74 
M 260.85 99.54 262.55 102.94 
M 269.36 116.55 270.21 118.25 
M 277.01 131.85 279.56 136.95 
M 280.41 138.65 282.96 143.75 
M 321.21 220.26 325.97 229.78 
M 255.36 81.9 260.46 92.11 
M 262.16 95.51 263.86 98.91 
M 264.71 100.61 267.35 105.87 
M 267.7 106.57 268.12 107.42 
M 281.01 133.21 282.6 136.37 
M 289.58 150.34 292.98 157.14 
M 323.59 218.35 328.83 228.84 
M 256.58 77.7 261.69 87.9 
M 264.24 93 265.83 96.18 
M 291.16 146.85 297.11 158.76 
M 308.17 180.86 309.02 182.56 
M 325.17 214.86 331.66 227.84 
M 262.15 82.17 262.41 82.68 
M 294.62 147.11 297.59 153.06 
M 298.44 154.76 299.29 156.46 
M 307.79 173.46 312.04 181.96 
M 321.07 200.01 321.4 200.66 
M 329.05 215.97 334.49 226.85 
M 298.49 148.21 301.47 154.16 
M 309.97 171.16 315.92 183.06 
M 324.01 199.25 324.42 200.07 
M 332.07 215.37 336.33 223.87 
M 304.48 153.53 307.03 158.63 
M 312.13 168.83 318.08 180.73 
M 306.21 150.34 306.64 151.19 
M 307.49 152.89 310.04 157.99 
M 310.89 159.69 311.74 161.39 
M 314.29 166.49 315.14 168.19 
M 315.99 169.89 320.24 178.39 
M 328.86 195.63 329.59 197.09 
M 334.69 207.29 337.24 212.39 
M 310.11 151.47 313.93 159.12 
M 335.18 201.63 341.13 213.53 
M 314.06 152.73 315.34 155.28 
M 338.29 201.19 345.09 214.79 
M 341.39 200.74 343.95 205.84 
M 344.8 207.54 346.5 210.94 
M 324.22 159.74 325.07 161.44 
M 332.72 176.75 336.12 183.55 
M 343.77 198.85 344.62 200.55 
M 345.47 202.25 349.72 210.75 
M 326.18 157 330 164.65 
M 335.1 174.85 339.35 183.35 
M 330.26 158.52 333.24 164.47 
M 338.34 174.67 340.89 179.77 
M 341.74 181.47 342.59 183.17 
M 358.92 215.84 359.53 217.06 
M 334.35 160.04 335.63 162.59 
M 341.58 174.49 344.98 181.29 
M 354.33 200 359.43 210.2 
M 339.7 164.09 340.55 165.79 
M 349.05 182.79 351.6 187.89 
M 356.7 198.09 362.65 210 
M 342.48 162.99 345.46 168.94 
M 351.41 180.85 357.36 192.75 
M 359.91 197.85 364.16 206.35 
M 346.53 164.44 349.51 170.39 
M 354.61 180.6 358.86 189.1 
M 361.41 194.2 366.51 204.4 
M 350.55 165.83 351.82 168.38 
M 357.77 180.28 360.33 185.38 
M 365.43 195.58 368.83 202.38 
M 372.84 203.76 373.69 205.46 
M 374.54 207.16 375.49 209.05 
M 375.17 201.77 378.76 208.94 
M 376.66 198.08 381.51 207.78 
M 369.63 177.38 372.18 182.48 
M 378.98 196.08 383.94 205.99 
M 371.09 173.65 377.04 185.55 
M 383 197.45 383.94 199.34 
M 374.68 174.17 379.36 183.52 
M 378.7 175.55 380.82 179.8 
"/></svg>