<svg xmlns="http://www.w3.org/2000/svg" width="520" height="320"><rect x="0" y="0" width="520" height="320" fill="floralwhite"/><rect x="10" y="10" width="500" height="300" stroke="black" stroke-width="1" fill="none"/><path stroke="black" stroke-width="1" fill="none" stroke-linecap="round" stroke-linejoin="round" d="
M 125.38 112.68 136.75 109.81 159.46 106.8 182.16 102.4 193.52 100.79 204.87 99.96 216.22 99.58 227.57 99.43 250.28 99.79 261.63 99.39 272.98 99.43 284.34 100.42 307.04 103.35 318.39 105.06 329.75 107.61 352.45 113.77 363.8 116.57 375.16 119.69 386.51 124.14 397.86 130.56 398.87 131.9 
M 398.87 184.79 397.86 185.95 386.51 191.09 375.16 194.72 363.8 197.26 352.45 199.57 341.1 202.37 329.75 205.62 318.39 208.37 307.04 209.81 295.69 210.58 272.98 211.38 250.28 211.14 238.93 211.91 227.57 213.14 216.22 214.05 204.87 214.18 193.52 213.18 182.16 210.98 170.81 207.86 159.46 204.16 148.11 200.17 136.75 196.76 125.4 194.54 114.06 193.4 
M 398.87 148.05 394.49 145.57 383.05 142.27 367.38 138.1 359.33 136.35 355.1 135.64 342.23 133.76 333.8 132.85 325.6 132.4 312.86 132.51 304.72 132.37 297.02 131.65 283.73 129.97 
M 279.84 129.68 270.43 129.17 263.27 129.27 259.71 129.45 250.49 130.48 
M 246.66 130.94 231.51 132.53 
M 227.7 132.97 218.53 134.18 
M 170.19 133.92 167.54 133.88 
M 155.34 132.99 151.15 132.63 
M 123.93 185.74 126.39 189.31 
M 127.77 181.65 130.69 185.86 
M 128.69 172.97 131.66 177.43 
M 128.13 161.79 131 166.35 135.6 173.11 
M 130.26 154.36 132.07 157.46 136.75 164.68 
M 132.18 145.92 134.94 150.81 
M 131.91 133.09 139.77 147.09 
M 178 198.97 180.59 201.97 
M 126.49 112.4 130.31 118.63 135.07 126.91 145.59 144.57 
M 132.04 111 139.36 122.56 147.5 135 151.55 141.99 
M 137.69 109.68 152.31 130.43 154.99 134.87 157.48 139.42 
M 202.72 202.48 205.79 205.62 
M 143.88 108.8 153.95 121.91 156.89 126.09 159.63 130.45 163.25 136.92 
M 150.18 107.95 155.05 113.9 161.12 121.98 166.77 130.55 169.04 134.42 
M 211.1 195.26 214.22 199.09 
M 156.47 107.17 162.1 114.06 168.22 122.14 171.13 126.28 175.44 132.97 
M 215.03 191.05 218.16 195.05 
M 221.18 198.56 224.06 201.52 
M 226.83 203.99 229.52 206.09 
M 162.48 106.21 172.37 118.34 178.3 126.32 182.58 132.63 
M 219.17 186.92 223.56 192.65 225.04 194.34 
M 168.32 105.08 173.57 111.24 179.6 118.73 185.57 126.52 189.3 131.92 
M 225.38 185.6 225.88 186.26 
M 228.88 190.04 230.36 191.81 234.62 196.27 
M 237.4 198.92 240.17 201.35 
M 174.08 103.97 180.91 111.96 186.79 119.24 189.69 123.09 195.07 130.89 
M 225.95 176.34 229.69 181.8 
M 232.67 185.72 234.14 187.57 238.47 192.36 
M 250.06 202.58 252.86 204.61 
M 179.72 102.88 185.19 109.18 190.92 116.35 193.7 120.12 200.24 129.59 
M 228.16 168.76 230.72 173.07 
M 239.31 185.01 242.31 188.4 
M 245.34 191.5 248.36 194.34 
M 185.24 101.97 189.47 106.65 195.13 113.74 205.36 128.03 
M 228.06 157.04 235.96 170.79 240.03 176.83 
M 190.74 101.18 193.8 104.4 196.67 107.77 202.19 114.74 206.03 119.94 
M 208.63 123.38 210.85 126.17 
M 212.7 128.41 217.41 133.73 
M 230.92 151.34 242.42 170.47 246.75 176.54 
M 249.83 180.41 251.38 182.28 255.97 187.11 
M 258.92 189.98 261.7 192.65 
M 271.12 202.48 273.26 204.61 
M 196.32 100.58 198.16 102.36 203.89 108.71 214.41 121.53 226.32 135.42 229.62 139.74 232.86 144.42 240.03 155.83 
M 242.45 159.93 244.86 163.95 
M 247.48 168.03 253.42 176.2 
M 256.44 179.93 259.39 183.28 
M 202.38 100.14 205.43 103.13 213.74 111.99 227.04 127.29 229.99 130.96 236.18 139.65 242.04 148.81 249.4 161.05 252.19 165.27 256.77 171.62 
M 259.78 175.56 262.71 179.18 
M 271 188.72 273.38 191.67 
M 208.87 99.83 218.03 108.7 228.41 120.09 233.79 126.75 241.08 137.04 
M 243.9 141.44 250.02 151.87 253.9 158.01 
M 256.82 162.33 259.91 166.68 
M 263.05 170.91 266.16 174.89 
M 272.03 182.08 277.06 188.54 
M 215.74 99.6 222.16 105.39 228.73 112.09 
M 231.29 114.93 235.11 119.45 240.49 126.3 243.37 130.16 247.53 136.4 
M 250.01 140.61 255.84 150.9 260.04 157.3 
M 263.09 161.75 266.32 166.17 
M 278.58 181.87 281.06 185.27 
M 222.86 99.49 228.88 104.6 234.13 109.92 239.17 115.75 247.37 125.69 251.49 131.6 
M 253.95 135.71 260.85 148.32 
M 263.46 152.63 266.35 157.05 
M 269.55 161.54 281.16 176.24 287.54 185.32 
M 289.91 188.68 292.41 191.9 
M 297.83 197.92 303.4 203.1 
M 230.34 99.48 232.85 101.44 235.54 103.83 240.6 109.28 251.28 121.5 254.12 125.08 256.78 129 257.98 131.04 
M 262.5 139.47 267.15 148.26 
M 272.84 157.08 274.45 159.3 279.73 165.83 
M 283.16 170.07 286.28 174.2 
M 289.02 178.18 291.52 181.96 
M 293.97 185.54 296.52 188.94 
M 238.04 99.63 241.91 103.19 249.38 111.64 254.97 117.67 257.81 120.96 260.53 124.6 263.09 128.6 265.46 132.8 269.96 141.66 273.66 148.4 
M 276.45 152.76 279.61 157.08 
M 283.07 161.43 288.27 167.96 289.8 170.1 
M 292.67 174.31 297.85 182.17 
M 300.48 185.76 303.24 189.14 
M 306.05 192.31 308.86 195.28 
M 245.16 99.72 248.03 102.68 253 108.28 261.34 117.2 262.73 118.89 
M 265.47 122.46 266.81 124.34 270.6 130.58 
M 273 134.96 277.85 144 
M 280.52 148.42 283.5 152.73 
M 286.8 157.07 290.21 161.49 
M 293.43 165.9 296.33 170.25 
M 310.04 189.07 318.29 197.76 
M 251.86 99.73 264.87 113.53 267.68 116.74 270.45 120.32 273.18 124.22 277.18 130.52 
M 279.75 134.93 283.6 141.73 286.41 146.27 287.96 148.47 
M 291.14 152.85 294.39 157.23 
M 297.49 161.66 300.32 166.06 
M 302.98 170.37 307 176.59 309.77 180.33 313.94 185.32 
M 316.71 188.47 319.46 191.55 
M 258.43 99.5 268.53 109.75 272.74 114.61 
M 275.58 118.24 282.73 128.27 290.97 141.9 300.46 155.21 303.31 159.58 309.77 170.21 
M 323.27 187.59 326.02 190.82 
M 265.69 99.4 272.35 105.94 275.13 109.01 280.92 116.09 286.68 124.12 292.2 132.92 296.78 139.83 
M 300.04 144.39 304.8 150.99 308.86 157.36 
M 313.9 165.54 317.7 171.12 327.07 183.32 
M 329.83 186.84 332.58 190.2 
M 273.48 99.47 276.33 102.3 281.94 108.67 287.63 116.16 290.44 120.19 298.94 133.17 308.68 146.6 315.47 156.92 
M 317.98 160.84 323.02 168.17 
M 330.95 179.09 333.71 182.83 
M 339.33 189.83 342.14 192.98 
M 281.43 100.17 285.85 105.33 291.35 112.63 304.17 131.01 
M 310.7 139.77 315.36 146.21 323.27 158.23 335.02 175.13 
M 337.77 178.98 340.58 182.76 
M 288.57 100.93 316.16 137.14 319.21 141.42 331.34 159.8 
M 336.64 167.53 339.31 171.45 
M 295.35 101.76 315.54 126.13 
M 318.77 130.24 323.39 136.61 327.49 143.12 
M 332.94 151.7 335.69 155.79 
M 338.4 159.8 341.08 163.82 
M 357.29 187.37 360.03 190.92 
M 302.69 102.75 318.32 119.78 321.62 123.61 324.81 127.69 327.8 131.94 337.34 147.33 
M 340.12 151.58 348.29 164.23 
M 350.95 168.47 353.56 172.61 
M 356.16 176.61 358.8 180.54 
M 311.22 103.98 319.38 112.28 325.96 119.4 329.13 123.33 332.15 127.53 339.21 138.56 
M 341.93 142.94 348.81 153.77 355.48 164.81 
M 363.18 177.35 365.76 181.27 
M 368.36 185.07 370.96 188.73 
M 320.7 105.58 326.92 112.02 330.11 115.58 336.46 123.42 339.57 127.73 345.37 136.54 357.44 156.5 
M 362.58 165.55 370.17 178.11 
M 372.68 181.99 375.2 185.74 
M 330.31 107.76 340.76 119.6 344.09 123.8 347.26 128.17 352.97 136.93 359.42 148.02 
M 361.99 152.64 364.53 157.3 
M 369.59 166.39 377.08 178.83 
M 382 186.38 383.38 188.41 
M 339.91 110.36 348.44 120.03 351.85 124.34 354.98 128.73 357.86 133.11 360.48 137.51 364.13 144.25 
M 366.55 148.86 369 153.54 
M 371.48 158.22 376.53 167.23 
M 379.05 171.49 381.49 175.58 
M 349.6 113 356.18 120.54 359.55 124.9 362.52 129.33 365.18 133.81 371.16 145.16 
M 373.53 149.79 375.93 154.47 
M 390.51 180.39 392.56 183.64 
M 359.02 115.39 363.76 121.14 366.88 125.6 372.17 134.68 378.15 146.05 
M 380.52 150.64 382.89 155.24 
M 387.65 164.23 392.46 173.03 
M 368 117.72 371.06 121.89 373.99 126.4 376.67 130.96 384.08 144.5 387.44 151.18 
M 394.29 164.61 398.87 172.95 
M 376.83 120.35 381.28 127.08 386.57 136.11 388.96 140.53 394.16 151.33 
M 396.3 155.69 398.61 160.17 
M 386.85 124.34 391.61 132.01 394.06 136.43 397.14 142.85 
M 129.37 111.67 126.85 115.13 
M 137.02 109.77 134.97 112.63 
M 132.23 116.6 128.98 121.32 
M 144.27 108.75 140.17 114.34 130.72 128.25 
M 151.82 107.74 147.12 114.06 132.32 135.4 
M 159.62 106.76 156.88 110.22 154.24 113.9 145.57 126.44 134.5 141.93 
M 169.17 104.92 166.75 107.27 163.95 110.48 161.29 114.03 153.06 126.12 143.21 139.61 137.11 148.24 
M 136.75 148.76 132.52 155.24 
M 129.85 159.68 127.36 164.13 
M 179.98 102.83 174.18 108 171.27 111.03 168.47 114.38 165.78 118.07 158.81 128.28 
M 155.68 132.63 147.63 143.68 
M 136.75 159.71 136.72 159.76 
M 129.02 172.97 124.12 181.58 
M 190.09 101.27 187.31 103.46 184.44 106.04 178.64 111.73 175.77 114.89 172.97 118.37 170.22 122.18 158.48 138.99 
M 136.75 171.74 133.4 177.46 
M 200.14 100.3 194.49 104.51 191.57 106.97 188.68 109.6 183.03 115.49 180.2 118.77 177.38 122.36 168.87 134.49 
M 208.73 99.83 201.73 105.55 195.83 110.69 190.12 116.23 184.61 122.67 181.77 126.39 177.13 132.92 
M 141.86 187.25 139.94 190.03 
M 215.93 99.59 197.05 117.28 194.27 120.2 190.29 125.03 
M 222.28 99.5 214.54 107.45 
M 211.63 110.52 208.6 113.6 
M 205.51 116.64 202.48 119.66 
M 199.62 122.71 195.69 127.51 193.01 131.29 
M 228.25 99.44 225.51 102.3 217.16 111.79 204.92 124.97 201.63 129.19 
M 234.04 99.55 229.52 104.52 221.1 114.53 213.48 123.27 
M 165.74 197.09 165.01 197.99 
M 239.78 99.66 233.48 106.97 220.58 122.68 
M 217.68 126.45 214.95 130.3 
M 245.39 99.73 242.5 103.14 228.98 120.03 226.15 123.76 222.08 129.71 
M 251.04 99.76 246.14 105.76 235.66 119.41 231.63 125.05 
M 229.05 129.06 227.78 131.13 224.36 137.66 
M 257.09 99.55 254.79 102.18 249.83 108.51 239.62 122.59 235.72 128.64 
M 233.35 132.93 228.22 143.88 
M 193.14 199.94 190.96 202.19 
M 263.02 99.4 258.59 104.82 253.71 111.31 246.43 121.95 241.16 130.34 238.77 134.89 232.5 149.11 230.21 153.58 228.06 157.22 
M 204.61 194.7 204.21 195.29 
M 268.64 99.41 265.03 103.94 257.78 114.17 249.31 127.58 
M 246.69 132.07 245.38 134.37 243 139.2 239.87 146.64 
M 235.46 155.99 232.87 160.31 
M 230.07 164.53 227.17 168.78 
M 274.3 99.54 271.59 102.87 268.99 106.42 264.14 113.6 259.59 120.84 251.96 133.72 249.28 138.46 246.84 143.39 241.56 155.67 
M 239.2 160.22 236.57 164.55 
M 233.8 168.79 228.43 177.52 
M 223.8 185.79 223.43 186.44 
M 218.44 195.07 215.9 199.05 
M 280.2 100.06 278.32 102.15 275.63 105.57 273.05 109.21 267.05 118.6 
M 264.71 122.48 252.79 142.47 250.32 147.34 247.15 154.71 
M 245.05 159.52 243.97 161.9 241.52 166.36 236.29 174.96 230.28 185.98 
M 227.82 190.21 225.33 194.36 
M 286.41 100.67 282.45 105.24 279.81 108.72 277.21 112.45 273.48 118.29 
M 271.04 122.27 268.58 126.37 
M 266 130.64 256.26 146.46 253.81 151.18 250.72 158.51 
M 248.7 163.4 247.66 165.8 244.12 172.46 
M 234.54 189.38 232.06 193.35 
M 292.68 101.43 289.08 105.52 284.03 112.29 278.91 120.08 265.29 141.62 259.98 150.54 257.69 155.17 254.7 162.59 
M 250.68 172.12 247.25 178.59 241.22 188.54 
M 233.64 199.61 231.03 203.07 
M 298.86 102.23 293.07 109.21 288.18 116.19 280.48 128.29 268.87 146.11 265.11 152.62 
M 262.91 157.15 258.06 169.24 256.11 173.92 255.03 176.08 
M 248.12 187.88 245.6 191.49 
M 304.85 103.05 299.62 109.55 294.67 116.52 284.53 132.66 274.09 148.41 
M 269.29 157.07 267.29 161.6 
M 244.58 200.69 241.79 203.75 
M 311 103.95 306.45 109.44 301.24 116.71 296.31 124.49 288.58 137.28 282.44 146.22 278.25 152.76 
M 273.88 161.53 268.92 172.64 265.58 178.89 
M 261.31 186.45 258.06 191.67 254.35 196.58 
M 317.33 104.9 310.94 112.73 305.51 120.48 300.43 128.82 295.67 137.55 292.97 141.97 284.05 154.87 281.7 159.24 280.7 161.45 
M 278.74 165.85 275.69 172.33 272.17 178.42 
M 269.78 182.21 267.49 185.77 
M 323.5 106.2 318.51 112.32 315.66 116.12 309.99 124.34 307.27 128.73 300.34 142.18 297.7 146.56 291.69 155 288.96 159.28 285.62 165.78 
M 283.54 170.06 281.31 174.22 
M 276.28 181.91 271.29 188.7 
M 269.02 191.87 266.83 194.95 
M 329.64 107.58 323.31 115.71 317.59 123.86 314.68 128.32 311.97 132.91 305.03 146.66 302.37 150.97 297.93 157.32 
M 290.2 170.11 287.92 174.21 
M 280.06 185.27 274.8 191.63 
M 335.54 109.18 328.05 119.35 319.42 132.4 316.67 137.1 309.33 150.92 296.73 170.26 
M 294.27 174.35 290.59 180.13 289.26 181.89 
M 286.51 185.3 280.84 191.59 
M 341.56 110.81 332.6 123.33 323.9 136.58 319.75 143.61 
M 317.18 148.24 310.55 159.46 300.65 174.5 
M 292.93 185.5 290.15 188.68 
M 284.46 194.58 281.76 197.34 
M 347.87 112.53 338.6 125.6 
M 335.62 129.76 331.07 136.34 325.14 145.45 314.34 163.41 307.34 174.51 
M 304.64 178.54 300.72 184.07 298.11 187.4 293.98 191.96 
M 285.6 200.04 282.95 202.43 
M 354.57 114.3 350.61 120.17 338.37 136.36 332.12 145.25 320.9 162.52 314.06 173.81 
M 308.77 182.21 307.46 184.12 303.5 189.14 
M 300.81 192.22 298.06 195.11 
M 295.24 197.81 292.42 200.31 
M 361.51 116 355.55 124.61 342.57 140.78 337.82 147.33 
M 334.82 151.66 331.89 155.83 
M 328.99 159.86 326.15 163.92 
M 323.37 168.15 320.66 172.55 
M 318.02 177.03 315.45 181.39 
M 312.89 185.41 310.3 189.04 
M 304.99 195.29 302.24 198.06 
M 299.44 200.61 298.02 201.83 294.23 204.6 
M 368.28 117.8 363.11 125.21 360.13 129.11 350.08 140.97 346.74 145.13 337.47 157.8 331.51 165.58 327.28 171.56 
M 324.6 175.8 322.01 180.16 
M 319.49 184.43 316.97 188.4 
M 306.39 200.75 303.59 203.11 
M 374.94 119.63 367.36 129.86 364.28 133.71 359.29 139.5 
M 355.89 143.43 349.36 151.64 
M 346.24 155.81 343.13 159.87 
M 340.05 163.76 335.51 169.4 331.25 175.2 
M 328.59 179.26 326.04 183.43 
M 323.53 187.52 319.76 193.17 318.46 194.8 
M 381.1 122.02 371.29 134.57 358.28 150.06 348.81 162.21 344.15 167.9 
M 341.09 171.55 336.69 177.06 335.33 178.99 
M 330.09 186.83 327.57 190.65 
M 387.17 124.52 378.31 135.41 368.61 146.95 356.02 162.78 348.24 172.11 
M 339.49 182.78 336.8 186.45 
M 331.58 193.6 329 196.86 
M 392.67 127.63 375.59 147.88 359.99 167.34 349.33 179.64 
M 397.99 130.73 382.63 148.68 371.61 162.5 
M 368.57 166.28 362.38 173.5 
M 356.33 180.29 347.88 189.9 
M 398.87 138.39 392.99 144.92 389.52 149.1 380.04 161.43 374.02 168.98 366.32 177.69 
M 363.3 181.01 354.8 190.4 
M 398.87 146.2 396.28 149.18 392.94 153.49 386.84 162.03 380.92 169.74 377.9 173.33 370.24 181.75 
M 364.43 188.09 361.65 191.08 
M 398.87 154.54 394.97 160.12 
M 389.1 168.54 387.64 170.49 383.17 175.78 
M 398.87 164.48 398.72 164.71 
M 395.75 169.06 394.28 171.16 389.83 176.62 
M 398.87 174.48 393.49 180.74 
M 390.53 183.93 388.17 186.47 
M 182.16 102.4 183.32 100.24 184.06 97.51 185.3 93.9 186.82 90.57 188.5 84.96 189.41 80.22 191.58 76.76 192.69 74.12 194.18 71.33 195.94 69.89 197.93 67.65 200.84 62.99 205.93 58.25 206.13 55.95 208.3 53.61 211.2 52.14 213.88 49.41 217.28 46.84 219.78 45.44 222.95 45.17 223.16 47.46 225.7 49.8 226.71 52.41 231.04 59.37 238.83 69.12 241.44 71.82 243.74 73.92 248.64 76.96 251.33 79.55 252.83 81.85 259.09 88.36 261.79 89.04 267.6 93.07 268.63 94.29 270.32 95.41 273.09 96.7 276.26 99.71 
M 284.34 100.42 284.34 100.42 
M 187.16 101.69 188.12 99.37 188.98 96.24 192.06 87.31 192.67 84.27 193.85 81.05 195.13 79.08 196.15 76.34 200.67 68.56 202.77 65.64 205.04 63.38 207.19 61.79 
M 192.16 100.98 193.53 98.66 194.37 95.97 195.43 93.29 196.27 89.86 197.39 87.12 198.25 84.35 198.42 82.15 201.64 76.56 202.82 73.54 
M 197.19 100.52 198.87 98.13 201.79 89.58 202.81 87.21 204.23 84.93 205.48 82.41 207.52 76.76 212.01 71.33 216.4 66.81 219.75 65.55 221.44 64.2 223.93 63 226.55 61 227.94 57.8 
M 202.23 100.15 203.73 97.76 204.45 94.75 207.35 89.67 209.16 84.29 209.44 81.75 210.81 79.83 211.92 77.48 
M 207.28 99.88 209.94 94.45 213.71 84.07 215.52 80.45 217.79 77.08 220.94 74.39 229.53 70.82 
M 212.32 99.71 214.13 97.97 216.75 91.66 218.74 85.87 219.67 83.71 220.2 81.45 222.08 78.6 225.05 77.26 227.55 75.8 229.96 74.92 233.01 73.26 
M 217.37 99.57 219.55 98.04 221.55 92.16 221.14 89.25 222.35 86.27 224.13 84.15 225.73 81.06 228.67 79.59 230.67 77.7 234.05 76.37 238.01 72.62 
M 222.42 99.5 223.8 97.83 224.44 95.16 224.7 91.72 227.33 86.59 232.28 82.11 234.6 80.56 
M 227.47 99.43 228.52 98.03 229.01 94.88 232.23 90.23 234.54 87.82 236.39 84.31 239.24 80.73 241.68 79.61 
M 232.52 99.53 233.99 98.34 235.36 95.83 239.57 91.24 241.54 88.87 243.07 85.68 245.49 82.28 
M 237.57 99.62 239.18 98.17 240.61 95.39 242.18 93.4 243.27 90.77 245.04 88.97 246.76 86.05 250.99 84.18 
M 242.62 99.69 245.32 98.21 246.17 92.96 247.73 91.33 
M 247.67 99.76 250.56 98.54 251.82 93.46 253.31 91.48 257 88.83 
M 252.72 99.7 254.57 99.01 255.41 96.5 
M 257.77 99.53 259.15 99.07 
M 262.82 99.4 265.39 98.69 
M 267.87 99.41 271.85 99.03 
M 272.92 99.43 272.92 99.43 
M 277.95 99.86 277.95 99.86 
M 136.01 146.74 175.63 130.24 176.05 131.16 137.5 150.05 
M 136.16 150.71 220.1 123.12 220.43 124.07 137.35 154.15 
M 136.32 154.71 231.19 132.84 231.43 133.82 137.19 158.24 
M 136.49 158.72 243.52 144.14 243.67 145.14 137.02 162.31 
M 136.65 162.74 238.33 158.45 238.39 159.46 136.85 166.37 
M 136.82 166.78 236.97 171.85 236.93 172.86 136.69 170.41 
M 136.99 170.83 239.23 185.52 239.1 186.52 136.52 174.44 
M 137.16 174.9 218.11 194.56 217.89 195.55 136.35 178.45 
M 137.32 178.99 205.63 202.63 205.32 203.59 136.19 182.45 
M 137.48 183.48 176.34 201.68 175.94 202.61 136.03 186.81 
M 172.19 133.05 181.2 132.74 185.68 132.38 190.11 131.82 194.5 131.02 198.85 129.99 203.15 128.75 211.7 125.88 
M 212.12 127.08 213.42 129.85 214.2 131.08 215.11 132.14 216.17 133.03 217.39 133.73 218.74 134.26 221.7 135.03 
M 222 136.27 223.56 139.32 224.47 140.7 225.51 141.92 226.71 142.96 228.07 143.81 229.57 144.51 232.82 145.6 
M 233.01 146.86 230.73 149.04 229.77 150.21 229.01 151.46 228.47 152.79 228.16 154.22 228.04 155.73 228.17 158.88 
M 228.24 160.15 226.66 162.49 226.07 163.68 225.69 164.9 225.55 166.14 225.64 167.41 225.95 168.71 226.96 171.34 
M 226.91 172.61 226.1 175.39 225.89 176.74 225.89 178.06 226.12 179.33 226.59 180.56 227.27 181.75 229.01 184.05 
M 228.84 185.32 224.19 185.72 221.94 186.11 219.76 186.7 217.67 187.51 215.66 188.54 213.73 189.77 210.02 192.6 
M 209.73 193.84 206.65 194.15 205.2 194.47 203.87 194.98 202.65 195.69 201.56 196.61 200.57 197.72 198.8 200.26 
M 198.41 201.47 192.72 199.82 189.86 199.19 187 198.77 184.11 198.59 181.21 198.65 178.3 198.92 172.46 199.86 
M 176.71 132.93 185.68 132.38 190.11 131.82 194.5 131.02 198.85 129.99 207.44 127.35 
M 212.74 128.5 214.2 131.08 215.11 132.14 216.17 133.03 217.39 133.73 220.2 134.68 
M 186.15 137.58 187.09 139.26 187.68 139.95 189.17 140.98 190.99 141.6 
M 222.76 137.83 224.47 140.7 225.51 141.92 226.71 142.96 228.07 143.81 231.17 145.08 
M 192.65 145.06 193.77 146.93 194.45 147.72 196.11 148.95 198.12 149.78 
M 231.83 147.93 229.77 150.21 229.01 151.46 228.47 152.79 228.16 154.22 228.06 157.29 
M 209.64 151.34 208.07 153.09 207.48 154.04 206.83 156.16 206.76 158.51 
M 187.46 154.75 185.96 156.63 185.5 158.1 185.45 159.74 
M 227.41 161.32 226.07 163.68 225.69 164.9 225.55 166.14 225.64 167.41 226.41 170.02 
M 195.68 163.16 194.81 164.7 194.47 166.29 194.53 167.12 195.03 168.81 
M 226.46 174.01 225.89 176.74 225.89 178.06 226.12 179.33 226.59 180.56 228.1 182.91 
M 195.07 172.82 194.69 174.6 194.84 176.28 195.15 177.08 196.13 178.61 
M 226.5 185.48 221.94 186.11 219.76 186.7 217.67 187.51 215.66 188.54 211.86 191.14 
M 195.09 181.69 192.12 182.1 190.71 182.48 188.04 183.68 185.57 185.37 
M 208.17 193.96 205.2 194.47 203.87 194.98 202.65 195.69 201.56 196.61 199.67 198.95 
M 183.17 188.62 181.25 188.95 179.59 189.74 178.88 190.34 177.65 191.86 
M 195.57 200.61 189.86 199.19 187 198.77 184.11 198.59 181.21 198.65 175.38 199.35 
M 193.52 213.18 198.81 219.18 201.19 222.47 206.34 240.37 203.68 241.06 197.28 241.15 193.45 240.21 183.34 232.07 173.4 214.47 170.81 207.86 
M 188.56 212.22 192.41 215.91 195.45 222.29 197.69 225.49 199.99 228.32 202.5 232.9 203.86 236.05 
M 183.6 211.25 186.87 215.13 190.79 220.5 192.44 223.31 193.51 227.23 
M 178.7 210.02 181.41 213.87 183.03 217.08 184.2 220.37 185.52 223.32 187 226.1 187.34 229.59 189.47 235.29 191.36 238.9 
M 173.83 208.69 176.49 213.48 178.53 216.46 180.15 219.38 
M 329.75 205.62 333.28 210.85 336.28 213.83 338.33 216.36 343.99 222.12 349.93 239.15 350.05 242.99 349.07 249.63 348.14 252.75 345.92 254.78 343.66 256.78 340.48 257.83 337.81 259.27 335.9 261.3 333.81 261.53 330.97 261 327.36 259.19 323.82 257.15 320.66 255.89 318.06 257.57 316.01 259.81 312.61 264.82 310.15 263.91 296.69 253.8 293.82 252.37 290.29 250.88 287.19 249.82 284.65 248.39 278.07 243.09 270.35 230.15 269.22 227.45 268.57 223.36 266.35 220.36 261.63 211.25 
M 324.84 206.81 327.63 211.03 330.1 214.11 332.38 216.61 334.29 219.32 337.02 222.29 341.05 227.35 342.77 230.72 347.38 235.45 349.49 236.16 350.42 238.34 
M 319.93 208 322.71 211.31 328.9 220.26 331.36 222.28 332.59 225.35 334.91 228.15 336.61 231.26 340.68 237.07 
M 314.94 208.81 317.78 212.42 319.74 215.65 323.15 222.16 324.82 224.76 330.4 231.82 332.94 233.99 334.87 237.92 
M 309.93 209.45 312.34 213.78 314.47 216.85 317.91 223.53 322.98 228.97 324.98 231.38 326.36 234.19 327.63 237.31 328.57 240.39 330.49 242.15 332.1 244.21 333.94 247.49 335.52 248.96 337.79 251.61 
M 304.91 209.96 307.38 214.11 309.64 216.88 312.86 223.16 315.02 226.25 319.29 231.83 320.79 234.45 322.42 237.77 322.91 241.37 324.37 243.77 
M 299.87 210.3 306.58 220.51 311.55 229.17 312.96 231.95 314.86 234.74 317.58 237.56 319.62 244.33 
M 294.83 210.62 297.46 214.66 299.3 217.92 300.81 221.25 303.88 226.62 306.18 233.11 310.54 238.4 315.06 244.54 316.54 247.44 317.91 250.81 320.83 255.48 
M 289.78 210.81 293.64 218.11 294.96 221.86 298.18 227.14 300.74 232.81 303.94 238.44 305.88 241.01 
M 284.73 211.01 286.73 215.13 289.24 222.04 290.65 225.34 292.98 227.73 295.48 229.82 296.63 232.8 297.79 235.22 298.56 238.55 301.56 243.4 302.43 247.08 308.19 253.28 
M 279.69 211.17 281.79 215.12 285.04 222.52 286.62 225.26 288.54 227.95 292.29 233.91 293.07 236.98 293.59 240.02 295.77 245.02 300.39 250.95 302.62 254.54 303.88 257.6 
M 274.64 211.33 278.31 219.24 280.06 222.4 282.77 228.62 285.81 233.99 
M 269.59 211.34 271.51 215.36 273.07 219.14 276.74 225.73 277.42 228.6 277.37 231.37 
M 264.54 211.28 266.53 215.66 268.44 219.05 270.97 226.77 272.09 228.9 272.14 232.01 
M 397.86 130.56 402.26 130.12 405 129.38 407.39 127.83 410.2 126.62 418.19 120.81 421.39 120.21 427.05 117.62 429.3 115.84 433.45 114.48 439.49 110.63 446.65 113.96 449.89 113.89 453.28 114.04 456.19 114.98 458.36 115.17 460.96 116.43 465.43 119.94 478.53 130.84 481.25 137.19 482.09 139.74 484.33 144.97 489.2 154.78 490 160.73 489 165.44 488.69 168.28 488.77 171.91 487.73 174.99 485.33 180.71 482.82 182.16 481.4 184.71 479.68 187.22 478.18 189.96 475.72 195.95 472.37 201.1 470.21 203.22 467.62 204.92 462.33 207.4 459.06 208.07 454.39 211.58 451.56 212.82 448.01 213.16 443.86 213.99 438.28 216.42 434.58 213.02 431.5 210.81 428.57 209.05 425.96 206.88 424.55 204.56 418.2 201.37 415.79 199.26 409.63 194.86 405.03 190.35 402.17 188.45 397.86 185.95 
M 405.11 132.14 410.98 130.13 413.56 128.53 416.45 127.04 419.14 125.19 425.19 122.6 
M 408.02 134.15 411.08 133.28 413.87 131.74 416.5 129.66 421.48 126.94 424.48 125.52 427.22 124.49 430.04 124.09 433.32 124.03 436.01 122.13 
M 404.77 137.71 407.99 136.76 410.61 136.18 413.85 135.12 419.68 131.51 423.5 129.59 425.52 129.39 428.5 127.91 431.83 127.81 434.91 127 438.03 126.48 439.76 124.54 442.37 123.25 445.01 122.65 447.2 121.13 450.78 119.59 
M 401.44 141.51 407.67 139.58 410.36 139.4 413.45 138.18 416.52 137.31 420.18 135.57 423.08 133.8 426.07 133.98 429.45 133.12 433.14 132.66 435.95 131.59 438.81 131.6 441.27 130.88 447.41 128.4 451.08 125.73 453.82 125.29 455.59 123.68 457.2 123.68 460.56 123.04 
M 397.86 144.41 401.7 144.37 404.95 143.92 413.51 142.01 416.39 140.66 420.51 139.76 423.63 138.41 426.42 137.82 433.7 136.7 436.32 135.88 438.8 136.72 445.55 135.71 448.5 134.22 
M 401.75 147.25 408.24 146.84 411.61 146.83 417.85 144.9 427.03 141.63 430.23 141.21 434 140.46 436.7 140.19 439.76 140.37 443.65 139.82 446.33 139.18 448.44 138.32 453.23 138.43 
M 397.86 149.95 411.42 150.29 418.5 149.25 421.9 148.96 425.38 148.1 428.58 146.83 432.06 146.97 435.1 146.7 440.26 145.25 
M 397.86 152.72 401.81 153.15 405.16 153 411.77 153.63 415.12 153.75 418.75 153.54 422.47 152.9 428.58 152.17 431.6 152.71 435.4 152.75 436.63 151.94 439.13 151.51 441.71 150.84 446.17 150.84 449.93 152.16 454.31 151.03 457.44 150.48 459.15 148.63 
M 402.05 156.21 405.37 156.14 411.89 156.6 418.45 156.43 426.07 157.62 429.34 156.86 431.24 157.3 434 156.6 436.41 157.6 439.2 157.47 442.36 156.23 450.73 156.94 
M 397.86 158.26 402.1 159.23 409.02 159.41 412.66 159.34 419.33 160.67 425.42 161.15 427.43 161.82 429.85 161.83 432.61 162.6 439.53 162.17 442.26 161.81 445.89 162.81 449.69 162.9 452.02 162.26 454.88 162.52 463.96 161.12 468.64 162.49 
M 397.86 161.03 402.04 162.06 405.52 162.68 412.49 163.27 415.67 163.88 419 164.75 425.03 165.54 427.25 166.3 430.39 166 437.37 166.55 442.84 166.48 446.13 166.77 453.19 168.84 456.72 169.16 459.59 167.58 460.54 168.19 462.48 168.61 466.32 168.35 469.87 170.21 
M 397.86 163.8 408.35 166.72 411.95 167.05 420.87 169.34 424.07 169.75 427.58 170.4 431.83 170.42 435.43 170.21 438.43 171.36 440.33 171.84 443.31 171.37 446.26 171.37 449.42 171.98 453.18 173.99 456.43 174.79 459.1 173.89 459.96 174.56 
M 397.86 166.57 401.93 167.63 405.12 168.8 408.31 169.56 410.93 170.45 417.23 171.69 421.12 173.34 424.2 174.26 431.11 175.14 434.91 175.21 440.04 177.34 443.14 177.63 
M 397.86 169.34 401.74 170.78 408.18 172.91 410.93 174.08 417.5 175.78 420.61 177.67 424.12 178.16 434.71 179.03 437.68 179.98 441.36 181.86 444.39 184.31 452.52 185.45 455.46 187 457.99 186.87 462.72 189.29 466.4 189.74 470.08 190.78 473.31 190.59 476.18 190.88 
M 397.86 172.11 401.92 173.8 407.53 176.72 410.97 177.63 417.48 179.9 421.62 180.94 425.1 181.46 427.24 182.62 430.39 183.34 433.86 183.55 436.78 184.64 440.68 186.92 
M 404.57 178.37 411.27 181.18 416.9 183.94 420.88 185.52 423.79 187.14 426.77 187.61 430.42 187.8 432.95 188.19 436.46 189.81 439.44 192.44 
M 404.47 181.24 407.66 182.89 410.82 184.83 413.88 186.22 415.84 187.89 422.13 191.78 425.05 192.05 429.17 192.04 432.3 192.71 436.11 194.09 438.48 197.03 440.65 199.22 443.28 199.49 
M 397.86 180.41 401.45 182.39 407.45 186.11 413.02 189.33 415.25 191.3 418.18 193.54 421.34 195.43 427.15 197.91 430.82 197.99 433.95 200.23 
M 407.35 189.08 409.65 191.21 412.32 192.91 414.97 194.95 421.12 199.24 423.7 200.14 426.23 201.9 428.9 204.48 432.22 205.39 
M 318.39 105.06 324.42 111.25 338.25 93.47 341.23 92.78 346.04 90.86 348.45 89.76 351.03 88.25 354.66 87.8 358.38 88.66 363.69 93.04 365.71 94.49 368.25 93.71 371.01 92.35 373.83 93.44 376.22 96.21 377.29 99.18 377.54 101.33 379.29 104.21 381.41 105.87 383.72 110.29 378.95 123.35 375.16 119.69 
M 323.32 106.17 327 105.14 328.49 103.42 329.56 101.55 331.89 99.81 
M 328.25 107.27 330.94 105.58 332.55 103.95 336.17 101.4 338.59 96.09 
M 333.14 108.53 336.04 107.69 337.72 106.31 340.1 105.05 342.24 103.15 
M 338.02 109.85 340.38 109.37 342.85 107.64 347.94 100.01 348.98 97.53 351.01 94.79 352.17 92.64 354.63 89.16 
M 342.89 111.17 345.56 110.57 347.37 108.33 349.28 105.61 351.38 104.04 353.77 101.5 354.48 98.06 
M 347.77 112.5 350.74 111.93 355.02 108.25 357.03 106.19 359.86 103.77 
M 352.64 113.82 355.9 113.13 358.45 111.37 363.37 107.21 365.46 105.74 369.03 100.66 
M 357.54 115.03 360.94 114.55 363.14 113.07 367.04 109.19 368.77 106.63 369.87 104.28 
M 362.45 116.24 365.84 116.19 367.53 114.38 369.08 112.05 
M 367.33 117.54 370.88 116.79 374.9 113.31 376.97 110.15 
M 372.2 118.88 376.41 117.83 
M 38.34 162.65 40.57 158.47 42.81 154.9 45.94 151.38 50.13 148.04 60.85 141.91 71.8 134.01 78.38 130.26 93.06 123.62 106.72 118.48 113.12 116.41 125.38 112.76 128.26 117.4 129.07 121.85 130.16 126.34 131.49 130.86 132.32 135.31 132.45 139.66 132.02 148.26 130.69 152.41 129.77 156.61 128.55 160.78 125.08 168.95 124.32 173.18 122.02 181.52 120.33 185.62 117.89 189.61 114.06 193.31 102.49 192.68 94.14 191.69 86.65 190.59 73.75 187.82 67.99 186.26 62.46 184.43 57.49 182.5 53.15 180.4 49.41 178.09 
M 108.6 143.6 108.1 147.27 104.67 154 102.65 156.97 98.46 162.1 97.39 166.88 97.31 171.42 97.06 174.03 95.89 176.9 77.44 176.34 72.25 175.94 67.24 175.4 62.36 174.46 57.63 172.95 
M 41.28 172.87 35.07 167.46 34.23 165.03 35.54 162.8 38.06 162.4 39.9 164 42.53 168.24 49.51 177.98 
M 48.97 178.83 39.05 175.96 31.78 173.63 30 171.71 30.28 169.23 32.44 167.77 34.94 168.46 41.01 172.71 45.53 175.36 49.35 177.86 
M 73.91 156.81 71.55 153.5 70.39 149.61 70.56 145.54 72.04 141.76 74.66 138.66 78.15 136.58 82.13 135.74 86.16 136.25 89.82 138.03 92.69 140.9 94.47 144.56 94.98 148.59 94.14 152.57 92.06 156.06 88.96 158.68 85.18 160.16 81.11 160.33 77.22 159.17 73.91 156.81 
M 90.68 142.34 92.11 145.26 92.51 148.49 91.84 151.67 90.18 154.46 87.7 156.56 84.67 157.74 81.42 157.88 78.3 156.95 75.66 155.06 
M 78.39 150.81 77.45 149.49 76.98 147.93 77.05 146.31 77.64 144.79 78.69 143.55 80.09 142.72 81.68 142.39 83.29 142.59 84.75 143.3 85.9 144.45 86.62 145.91 86.82 147.52 86.48 149.12 85.65 150.51 84.41 151.56 82.9 152.15 81.27 152.22 79.71 151.76 78.39 150.81 
M 78.2 147.98 82.39 152.17 
M 79.6 146.65 84.46 151.52 
M 80.44 144.77 85.85 150.18 
M 81.61 143.21 86.66 148.26 
M 85.1 143.97 86.21 145.09 
M 42.1 167.55 42.61 168.06 
M 40.03 159.42 45.34 164.74 
M 42.33 155.66 48.25 161.58 
M 45.07 152.35 48.59 155.86 
M 48.29 149.5 53.35 154.56 
M 51.87 147.02 55.29 150.44 
M 55.71 144.8 58.76 147.85 
M 59.59 142.62 63.27 146.3 
M 63.2 140.17 68.97 145.94 
M 66.7 137.61 70.89 141.79 
M 70.25 135.1 74.27 139.12 
M 73.98 132.77 77.93 136.71 
M 77.84 130.56 81.34 134.06 
M 81.95 128.62 87.81 134.47 
M 86.12 126.72 90.34 130.94 
M 90.3 124.85 94.86 129.4 
M 94.55 123.03 99.69 128.17 
M 98.91 121.33 102.07 124.49 
M 103.34 119.7 108.02 124.38 
M 107.82 118.12 111.91 122.2 
M 112.4 116.64 118.15 122.39 
M 117.06 115.24 122.73 120.91 
M 121.76 113.87 125.91 118.02 
M 100.57 183.71 100.57 182.75 99.61 178.38 99.35 177.52 98.05 175.55 97.84 175.05 97.75 174.12 
M 104.98 191.86 104.67 192.8 
M 59.4 163.4 59.16 161.93 59.21 160.32 59.83 156.68 60.14 155.71 60.69 154.75 
M 69.09 170.69 68.2 171.71 67.16 174.33 65.99 176.08 64.99 177.17 
M 87.21 161.97 87.3 160.95 87.04 159.43 
M 74.2 187.92 76.12 187.29 77.39 186.64 
M 128.99 127.92 127.55 128.47 126.49 129.73 125.18 130.47 124.77 131.08 124.49 132.34 
M 120.92 120.79 120.93 119.88 
M 88.07 175.82 87.72 176.38 87.25 177.69 86.67 181.67 86.18 182.75 85.48 183.36 84.73 183.75 83.68 184.26 82.96 184.42 
M 91.76 157.5 92.1 158.24 93.34 159.11 95.06 161.21 
M 91.71 125.35 92.21 125.23 92.15 124.02 
M 94.56 161.07 94.99 162.16 94.74 163.34 94.3 163.95 93.31 164.68 91.99 165.09 
M 104.36 184.34 103.77 182.93 101.77 180.74 100.28 177.77 98.62 175.77 98.24 174.39 
M 121.5 115.28 122.75 114.86 123.4 114.46 123.87 113.93 124.13 113.15 
M 72.92 180.14 74.2 178.82 74.96 176.97 75.25 174.59 74.79 173.61 74.55 172.59 
M 60.87 143.76 61.8 144.04 62.34 143.98 
M 44.14 170.55 48.66 166.53 49.42 165.67 50.32 165.12 53.39 164.03 54.71 163.32 55.2 162.75 55.58 161.95 55.8 161.05 
M 49.07 172.03 50.19 169.87 51.23 167.23 52.44 166.14 55.02 164.62 56.34 162.48 
M 46.18 173.3 46.96 171.26 47.68 170.07 49.52 168.22 50.65 166.45 51.34 165.85 
M 54.96 152.2 51.19 151.97 50.04 151.25 49.16 150.27 
M 120.73 119.73 120.53 119.85 
M 117.6 136.88 120.34 139.49 121.06 141.04 121.42 142.89 
M 90.33 164.61 91.11 162.91 91.85 162.23 93.3 161.75 93.71 162.01 93.89 162.6 
M 65.25 146.41 64.75 147.23 64.42 147.5 63.61 147.78 63.11 147.75 61.32 146.9 59.4 146.22 58.42 145.98 57.89 146.02 
M 55.04 181.32 54.76 180.64 52.17 177.69 51.28 176.3 51.3 175.48 51.79 174.48 
M 119.81 120.61 120.54 120.68 120.9 120.16 
M 103.02 177.13 99.91 175.39 99.53 174.89 99.13 173.94 98.4 173.29 97.47 173.11 95.88 173.68 
M 52.05 151.8 51.27 151.56 50.22 150.73 49.36 149.71 48.96 148.98 
M 64.65 143.8 64.7 144.63 64.34 145.36 63.89 145.58 62.76 145.72 
M 102.1 169.6 100.84 169.48 99.44 169.57 98.13 169.97 94.83 171.65 91.56 173.73 
M 65.21 146 64.73 146.77 64.4 147.03 63.52 147.15 59.9 145.94 58.54 145.7 
M 95.68 143.55 94.69 143.87 94.28 144.15 
M 100.87 132.63 99.07 132.78 97.83 133.25 95.71 135.24 95.04 135.59 92.48 135.76 91.41 135.42 
M 47.98 167.42 49.65 165.67 50.54 165.1 52.7 164.41 54.26 163.71 54.84 163.29 55.31 162.66 55.67 161.83 55.85 160.9 55.54 157.28 55.09 156.15 
M 103.31 131.98 102.49 131.87 99.29 132.19 97.49 132.98 95.34 134.89 94.58 135.23 92.1 135.49 
M 94.26 157.82 97.11 160.52 97.74 161.53 97.82 162.12 97.6 163.61 96.79 165.76 95.23 167.49 
M 112.04 176.58 111.21 177.08 109.88 177.17 107.96 177.01 105.58 176.5 102.83 175.44 100.13 173.76 
M 57.11 169.32 59.51 168.84 60.8 169.16 61.38 169.61 62.13 170.88 62.48 172.08 62.29 172.64 
M 55.17 149.76 52.97 149.52 52.04 149.24 50.77 148.45 50.28 147.95 
M 117.43 171.75 118.42 169.56 119.12 168.48 120.29 167.58 120.77 167.5 120.94 167.68 
M 42.46 176.95 45.79 178.89 48.94 180.42 52.19 181.69 55.54 182.74 62.46 184.43 
M 47.39 179.66 48.27 178.62 
M 125.47 112.65 135.15 122.34 
M 131.92 111.03 143.13 122.23 
M 138.53 109.56 147.42 118.45 
M 145.61 108.56 156.04 118.98 
M 152.76 107.63 161.73 116.59 
M 159.92 106.71 169.24 116.03 
M 166.69 105.4 173.7 112.41 
M 173.47 104.09 182.65 113.27 
M 180.24 102.78 188.04 110.58 
M 187.22 101.68 197.42 111.87 
M 194.35 100.72 202.69 109.07 
M 201.88 100.18 212.79 111.08 
M 209.59 99.8 219.61 109.83 
M 217.43 99.56 224.37 106.5 
M 225.41 99.46 235.94 109.99 
M 233.58 99.55 244.93 110.9 
M 241.79 99.68 252.46 110.35 
M 249.98 99.78 256.15 105.96 
M 257.8 99.53 268.81 110.53 
M 265.76 99.4 275.89 109.53 
M 273.95 99.51 281.85 107.42 
M 282.8 100.29 292.97 110.45 
M 291.94 101.34 299.61 109.01 
M 301.23 102.56 308.18 109.5 
M 310.65 103.89 319.45 112.69 
M 320.34 105.5 327.16 112.31 
M 330.82 107.9 337.4 114.48 
M 341.91 110.9 351.91 120.9 
M 352.99 113.91 363.59 124.5 
M 363.71 116.55 372.41 125.24 
M 374.86 119.61 383.52 128.27 
M 388.73 125.4 399.44 136.11 
M 122.8 193.18 123.38 194.34 
M 125.71 191.92 127.19 194.89 
M 125.09 183.61 127.8 189.03 
M 128.7 190.84 131.11 195.66 
M 123.98 174.33 124.47 175.3 
M 128.08 182.53 129.89 186.14 
M 126.56 172.41 127.46 174.22 
M 126.6 165.42 126.77 165.77 
M 128.21 161.58 129.66 164.48 
M 129.58 157.25 131.65 161.38 
M 132.73 156.48 135.44 161.9 
M 159.15 202.24 160.24 204.42 
M 163.95 204.77 164.46 205.79 
M 168.44 206.67 168.68 207.16 
M 128.79 120.31 133.63 129.98 
M 136.34 135.4 137.24 137.21 
M 139.05 140.82 139.95 142.63 
M 140.86 144.44 141.75 146.23 
M 128.61 112.88 134.94 125.53 
M 139.45 134.56 140.36 136.37 
M 141.26 138.18 144.66 144.97 
M 132.66 113.9 136.27 121.12 
M 141.69 131.97 144.4 137.39 
M 147.11 142.81 147.56 143.71 
M 135.8 113.1 138.51 118.53 
M 139.41 120.33 146.64 134.79 
M 138.98 112.4 149.82 134.08 
M 141.38 110.12 149.51 126.39 
M 144.68 109.66 151.91 124.11 
M 147.53 108.29 156.11 125.45 
M 150.85 107.86 151.31 108.77 
M 153.11 112.38 158.53 123.22 
M 155.54 110.16 162.77 124.62 
M 158.87 109.75 167 126.01 
M 160.8 106.54 170.28 125.51 
M 211.84 208.63 214.56 214.07 
M 164.02 105.91 174.41 126.69 
M 212.36 202.59 214.16 206.2 
M 167.24 105.29 176.73 124.26 
M 211.97 194.74 212.87 196.54 
M 215.58 201.97 218.29 207.39 
M 219.2 209.19 220.1 211 
M 170.47 104.67 180.86 125.45 
M 183.57 130.87 184.38 132.48 
M 219.71 203.15 220.61 204.96 
M 175.05 106.75 177.76 112.17 
M 180.47 117.6 184.08 124.82 
M 185.89 128.44 187.7 132.05 
M 219.32 195.3 221.13 198.91 
M 178.27 106.13 181.88 113.36 
M 189.11 127.81 190.02 129.62 
M 223.45 196.48 224.35 198.29 
M 180.14 102.8 180.59 103.7 
M 182.4 107.31 184.2 110.93 
M 185.11 112.73 186.01 114.54 
M 183.39 102.23 183.84 103.13 
M 186.55 108.55 187.46 110.36 
M 190.17 115.78 197.44 130.32 
M 227.21 189.87 228.11 191.68 
M 229.02 193.48 229.92 195.29 
M 184.88 98.14 200.56 129.5 
M 228.7 185.78 233.22 194.82 
M 186.5 94.3 203.64 128.59 
M 233.93 189.17 234.84 190.98 
M 187.86 89.95 206.68 127.6 
M 226.26 166.75 228.07 170.36 
M 237.1 188.43 238.91 192.05 
M 188.98 85.13 193.05 93.26 
M 193.95 95.07 195.76 98.68 
M 199.37 105.91 209.7 126.57 
M 230.09 167.35 231.9 170.96 
M 238.22 183.61 240.03 187.22 
M 191.07 82.23 198.3 96.68 
M 202.81 105.72 216.37 132.82 
M 192.4 77.83 201.89 96.8 
M 205.51 104.03 208.22 109.45 
M 209.12 111.26 219.96 132.94 
M 220.87 134.75 220.91 134.84 
M 194.65 75.25 204.59 95.13 
M 208.2 102.35 210.91 107.77 
M 212.72 111.39 228.98 143.91 
M 245.25 176.44 248.86 183.67 
M 197.08 73.05 207.02 92.92 
M 215.15 109.19 216.96 112.8 
M 217.86 114.61 226.9 132.68 
M 227.8 134.48 232.32 143.52 
M 234.13 147.13 237.74 154.36 
M 244.97 168.82 252.2 183.27 
M 198.79 69.39 199.24 70.29 
M 200.15 72.1 211.89 95.59 
M 217.31 106.43 220.02 111.85 
M 221.83 115.47 228.15 128.12 
M 230.86 133.54 233.58 138.96 
M 234.48 140.76 241.71 155.22 
M 242.61 157.03 255.26 182.33 
M 257.07 185.94 259.78 191.36 
M 200.73 66.2 201.19 67.11 
M 202.09 68.91 217.45 99.63 
M 221.06 106.86 222.87 110.48 
M 224.68 114.09 231.9 128.55 
M 233.71 132.16 243.65 152.04 
M 244.55 153.84 250.88 166.49 
M 256.3 177.34 258.11 180.95 
M 259.91 184.56 260.82 186.37 
M 261.72 188.18 262.62 189.98 
M 206.25 70.16 222.51 102.68 
M 223.41 104.49 224.32 106.3 
M 227.03 111.72 234.25 126.17 
M 241.48 140.63 245.1 147.86 
M 246.9 151.47 253.23 164.12 
M 207.78 66.16 227.66 105.91 
M 230.37 111.33 237.6 125.79 
M 242.12 134.82 243.92 138.44 
M 244.83 140.25 247.54 145.67 
M 252.05 154.7 254.76 160.12 
M 213.04 69.61 216.66 76.83 
M 217.56 78.64 222.08 87.68 
M 222.98 89.48 231.11 105.75 
M 232.01 107.55 240.15 123.82 
M 241.95 127.43 244.66 132.85 
M 246.47 136.46 250.99 145.5 
M 277.19 197.9 278.09 199.71 
M 218.31 73.08 242.71 121.87 
M 248.13 132.71 254.45 145.36 
M 256.26 148.97 258.07 152.59 
M 280.66 197.76 282.46 201.38 
M 212.32 54.03 213.68 56.74 
M 216.39 62.16 217.29 63.96 
M 220.91 71.19 222.71 74.81 
M 228.13 85.65 248.01 125.4 
M 250.72 130.82 255.24 139.86 
M 257.05 143.47 261.56 152.51 
M 284.15 197.68 288.67 206.72 
M 214.74 51.79 216.1 54.5 
M 221.52 65.35 226.94 76.19 
M 234.17 90.64 248.62 119.56 
M 249.53 121.36 251.33 124.98 
M 253.14 128.59 256.76 135.82 
M 259.47 141.24 260.37 143.05 
M 272.11 166.54 275.73 173.77 
M 288.38 199.07 293.76 209.82 
M 217.31 49.86 219.57 54.37 
M 224.09 63.41 230.41 76.06 
M 234.02 83.29 254.8 124.85 
M 256.61 128.46 257.52 130.27 
M 258.42 132.08 260.23 135.69 
M 262.03 139.3 262.94 141.11 
M 275.59 166.41 280.1 175.44 
M 283.72 182.67 285.52 186.29 
M 290.94 197.13 294.56 204.36 
M 220.14 48.44 223.3 54.77 
M 226.91 62 234.14 76.45 
M 235.95 80.07 256.73 121.63 
M 259.44 127.05 264.86 137.89 
M 278.41 165 282.93 174.03 
M 286.55 181.26 289.26 186.68 
M 290.16 188.49 292.87 193.91 
M 230.8 62.69 237.12 75.34 
M 239.83 80.77 259.71 120.52 
M 261.52 124.13 266.94 134.98 
M 281.4 163.89 283.2 167.5 
M 285.91 172.92 294.95 190.99 
M 239.31 72.65 269.58 133.18 
M 275 144.03 278.61 151.25 
M 284.04 162.1 285.84 165.71 
M 289.46 172.94 291.26 176.55 
M 296.68 187.4 298.49 191.01 
M 245.53 78.02 265.86 118.68 
M 267.67 122.29 272.19 131.33 
M 274.9 136.75 282.12 151.2 
M 286.64 160.24 289.35 165.66 
M 305.62 198.19 307.42 201.8 
M 251.43 82.74 266.34 112.56 
M 271.76 123.4 272.66 125.21 
M 278.08 136.05 288.02 155.93 
M 259.32 91.45 266.09 105 
M 271.51 115.84 275.13 123.07 
M 282.36 137.53 291.39 155.6 
M 313.08 198.96 313.98 200.77 
M 263.91 93.56 269.78 105.3 
M 271.59 108.92 279.72 125.18 
M 289.66 145.06 293.27 152.29 
M 314.96 195.66 316.76 199.27 
M 269.67 98.01 274.64 107.95 
M 277.35 113.37 282.77 124.21 
M 293.61 145.9 297.23 153.13 
M 317.11 192.88 320.72 200.11 
M 273.96 99.51 278.93 109.45 
M 279.83 111.26 286.15 123.91 
M 297.9 147.4 300.61 152.82 
M 306.03 163.66 306.93 165.47 
M 320.49 192.57 323.2 198 
M 277.65 99.84 288.04 120.62 
M 300.69 145.91 303.4 151.34 
M 316.96 178.44 319.67 183.86 
M 324.18 192.9 325.99 196.51 
M 326.89 198.32 328.7 201.93 
M 281.35 100.16 292.64 122.75 
M 297.16 131.78 298.07 133.59 
M 302.58 142.62 304.39 146.24 
M 313.43 164.31 321.56 180.57 
M 329.69 196.83 332.4 202.25 
M 285.51 101.41 295.45 121.29 
M 297.26 124.9 299.06 128.52 
M 299.97 130.32 307.2 144.78 
M 316.23 162.85 321.65 173.69 
M 325.27 180.92 326.17 182.73 
M 289.28 101.87 297.41 118.13 
M 299.22 121.75 310.96 145.24 
M 314.57 152.46 315.48 154.27 
M 316.38 156.08 317.29 157.89 
M 318.19 159.69 323.61 170.53 
M 326.32 175.96 329.03 181.38 
M 293.94 104.13 298.46 113.17 
M 302.98 122.2 305.69 127.62 
M 308.4 133.04 313.82 143.89 
M 315.63 147.5 317.44 151.11 
M 318.34 152.92 319.24 154.73 
M 320.15 156.54 321.95 160.15 
M 329.18 174.61 333.7 183.64 
M 296.81 102.79 299.52 108.21 
M 300.42 110.02 308.56 126.28 
M 313.07 135.32 318.49 146.16 
M 319.4 147.97 324.82 158.81 
M 332.05 173.27 336.56 182.3 
M 300.15 102.41 302.41 106.93 
M 303.32 108.73 312.35 126.8 
M 313.25 128.61 314.16 130.42 
M 315.96 134.03 323.19 148.49 
M 327.71 157.52 329.52 161.14 
M 334.94 171.98 337.65 177.4 
M 339.46 181.01 340.36 182.82 
M 303.95 102.93 312.53 120.09 
M 313.43 121.9 314.34 123.71 
M 318.86 132.74 325.18 145.39 
M 331.5 158.04 333.31 161.65 
M 338.73 172.5 342.35 179.72 
M 307.75 103.46 313.62 115.2 
M 323.56 135.08 327.17 142.31 
M 332.59 153.15 336.21 160.38 
M 337.11 162.18 339.82 167.6 
M 341.63 171.22 342.53 173.03 
M 311.57 104.03 317.44 115.78 
M 327.38 135.65 330.09 141.08 
M 335.51 151.92 337.32 155.53 
M 339.13 159.15 342.74 166.37 
M 315.4 104.61 320.36 114.55 
M 330.3 134.42 333.01 139.84 
M 341.15 156.11 345.66 165.14 
M 319.25 105.25 325.13 117 
M 332.35 131.45 335.06 136.88 
M 340.49 147.72 348.62 163.98 
M 323.24 106.15 329.11 117.89 
M 332.72 125.12 336.34 132.35 
M 343.56 146.8 351.7 163.07 
M 352.6 164.87 355.31 170.29 
M 358.02 175.72 360.73 181.14 
M 327.22 107.04 333.09 118.78 
M 334.9 122.4 339.41 131.43 
M 346.64 145.89 352.06 156.73 
M 353.87 160.35 359.29 171.19 
M 361.1 174.8 364.71 182.03 
M 331.24 108.01 336.21 117.95 
M 339.82 125.18 362.41 170.35 
M 366.02 177.58 366.93 179.39 
M 373.25 192.04 374.65 194.83 
M 335.33 109.12 338.49 115.44 
M 343.01 124.48 362.89 164.23 
M 372.82 184.11 374.63 187.72 
M 376.44 191.34 377.72 193.9 
M 339.42 110.23 341.68 114.74 
M 343.48 118.36 353.42 138.24 
M 357.04 145.46 365.17 161.73 
M 367.88 167.15 369.69 170.76 
M 376.91 185.22 377.82 187.03 
M 380.42 192.23 380.77 192.93 
M 343.51 111.34 345.77 115.86 
M 346.67 117.66 354.8 133.93 
M 360.22 144.77 369.26 162.84 
M 371.07 166.45 371.97 168.26 
M 380.1 184.52 382.81 189.94 
M 383.54 191.4 383.82 191.95 
M 347.6 112.45 348.05 113.36 
M 349.86 116.97 351.67 120.58 
M 362.51 142.27 364.32 145.88 
M 365.22 147.69 367.03 151.3 
M 369.74 156.72 371.55 160.34 
M 375.16 167.57 376.06 169.37 
M 384.19 185.64 385.1 187.44 
M 386.2 189.64 386.85 190.94 
M 352.15 114.47 353.95 118.08 
M 361.18 132.54 362.09 134.35 
M 362.99 136.16 371.12 152.42 
M 389.23 188.64 389.73 189.63 
M 355.74 114.58 359.8 122.71 
M 365.22 133.56 374.26 151.63 
M 387.81 178.73 391.43 185.96 
M 359.77 115.58 365.64 127.32 
M 369.26 134.55 378.29 152.62 
M 381 158.04 382.81 161.65 
M 390.04 176.11 394.55 185.15 
M 363.8 116.57 373.29 135.54 
M 377.81 144.58 382.32 153.61 
M 384.13 157.23 386.84 162.65 
M 394.97 178.91 396.78 182.52 
M 367.9 117.7 372.87 127.63 
M 373.77 129.44 375.58 133.06 
M 381.91 145.71 384.62 151.13 
M 387.33 156.55 390.04 161.97 
M 398.17 178.23 400.01 181.92 
M 372 118.82 375.16 125.15 
M 384.2 143.22 386.91 148.64 
M 390.52 155.87 392.33 159.48 
M 399.56 173.94 402.75 180.31 
M 376.17 120.09 378.43 124.61 
M 380.57 121.81 387.34 135.37 
M 384.96 123.54 389.93 133.48 
M 406.2 166 409.21 172.04 
M 389.71 125.95 393.77 134.08 
M 395.58 137.7 399.19 144.92 
M 405.52 157.57 409.21 164.97 
M 394.63 128.74 409.21 157.89 
M 401.5 135.4 409.21 150.82 
"/></svg>