<svg xmlns="http://www.w3.org/2000/svg" width="520" height="320"><rect x="0" y="0" width="520" height="320" fill="floralwhite"/><rect x="10" y="10" width="500" height="300" stroke="black" stroke-width="1" fill="none"/><path stroke="black" stroke-width="1" fill="none" stroke-linecap="round" stroke-linejoin="round" d="
M 122.02 121.87 133.3 119.43 143.44 118.06 163.85 116.51 194.41 113.64 204.62 112.93 214.85 112.55 235.31 112.29 255.78 112.43 276.25 112.26 286.48 112.39 306.91 113.54 327.32 115.07 337.49 116.16 378.05 121.71 388.17 123.19 398.2 125.26 408.04 128.07 412.03 130.34 
M 412.03 190.84 408.61 192.59 398.64 194.91 388.55 196.61 358.06 200.19 337.8 203.05 327.63 204.2 317.42 204.85 307.19 205.22 286.73 205.6 266.26 205.55 256.03 205.69 225.36 207.09 215.13 207.15 204.91 206.71 202.06 206.45 
M 160.71 200.41 144.19 197.72 133.62 196.65 
M 140.06 147.41 144.83 148.2 
M 238.3 151.9 240.13 151.57 241.7 150.97 
M 247.48 148.12 249.01 147.48 252.67 146.82 260.73 146.23 264.49 145.71 267.98 144.91 271.65 144.34 275.84 144.3 284.99 145.1 289.14 145.11 296.79 144.55 302.95 144.59 
M 307.02 144.58 313.28 144.72 321.14 146.3 
M 326.51 147.4 329.11 147.85 333.78 148.15 342.9 148.36 353.24 149.63 358.14 149.94 375.97 149.24 388.37 147.88 400.82 147.12 406.51 146.58 
M 410.28 146.43 412.03 146.47 
M 159.61 199.92 159.79 200.24 
M 157.02 128.24 155.86 129.99 154.34 131.39 
M 143.19 143.75 141.13 146.4 
M 168.33 123.01 166.9 127.4 
M 176.25 126.07 175.2 127.92 173.63 132.18 172.65 134.12 
M 180.87 131.83 179.8 133.68 178.27 137.69 
M 202.28 125.38 200.84 126.86 193.85 131.61 190.83 134.45 189.61 136.16 
M 209.45 203.01 210.03 204.19 
M 207.87 132.45 206.37 134.1 
M 220.18 204.08 221.73 207.11 
M 224.4 120.88 222.25 124.66 
M 220.35 128.69 218.48 132.76 
M 225.98 195.12 228.56 200.11 
M 229.79 127.84 228.62 129.65 225.44 135.42 
M 233.97 191.16 235.93 195.06 
M 237.81 198.88 241.57 206.36 
M 240.04 127.71 236.33 133 233.73 136.4 232.6 138.28 
M 230.61 142.29 228.77 147.27 
M 232.37 167.85 233.97 170.9 
M 235.75 174.64 238.03 179.86 245.24 194.89 250.21 204.67 
M 255.74 120.75 253.99 122.01 252.41 123.44 
M 249.43 126.49 246.78 129.87 
M 244.32 133.45 242.01 137.18 
M 239.91 141.11 237.99 145.22 
M 235.98 149.89 235.09 152 
M 241.8 166.25 243.12 169.54 
M 245.63 176.02 248.33 182.68 
M 256.29 198.51 260.29 205.63 
M 260.17 126.52 256.8 129.21 
M 253.65 132.12 249.29 136.86 248.06 138.66 
M 244.14 147.49 243.32 150.34 
M 252.15 170.13 257.07 182.11 258.77 185.82 261.2 190.24 265.63 197.65 
M 268.13 202.11 269.9 205.57 
M 272.74 122.56 262.53 133.62 257.87 138.11 
M 254.84 141.17 253.38 142.76 252.02 144.94 
M 253.61 153.06 255.39 156.85 
M 260.85 168.43 264.38 176.06 
M 265.88 179.61 268.45 185.24 274.35 196.16 
M 276.82 200.61 279.27 204.99 
M 281.54 121.31 275.95 127.88 
M 273.11 131.15 265.76 139.1 264.41 140.81 
M 261.72 144.39 260.38 146.26 
M 273.01 172.24 276 179.37 
M 277.51 182.95 279.45 186.94 
M 281.78 191.3 289.69 205.55 
M 292.51 116.41 286.34 125.41 282.48 130.73 
M 279.61 133.98 278.06 135.51 274.65 138.25 271.52 141.26 269.25 144.65 
M 274.86 155.4 277 159.62 
M 278.97 163.67 284.26 175.25 
M 287.57 182.71 292.28 191.51 
M 294.78 196.02 299.33 204.41 
M 302.05 113.23 300.76 115.03 
M 298.34 118.65 296.05 122.44 
M 280.75 143.36 279.52 144.6 
M 289.2 163.64 292.04 169.62 295.36 176.08 
M 297.71 180.52 303.69 191.62 309.41 204.05 
M 311.32 116.16 308.5 119.36 
M 303.12 126.12 290.96 143.75 
M 297.57 159.74 300.86 166.16 309.52 182.06 
M 313.79 190.37 315.55 194.1 
M 317.1 197.59 318.51 200.89 
M 319.67 203.54 320.15 204.57 
M 315.64 123.51 314.25 125.17 309.14 132.27 301.03 142.61 299.65 144.57 
M 309.27 163.33 311.86 167.95 
M 314.67 172.79 318.89 179.98 323.39 188.29 330.16 202.5 
M 333.45 115.73 331.6 118.11 
M 325.92 124.8 324.51 126.48 320.66 131.93 
M 317.99 135.45 316.56 137.11 313.41 140.14 309.63 144.58 
M 317.35 159.13 320.34 164.02 
M 323.55 169.09 328.86 178.02 
M 332.38 184.96 334.1 188.31 
M 336.03 191.81 341.05 200.43 
M 339.73 123.17 334.42 130.38 
M 331.95 134.19 328.54 140.21 325.68 143.63 321.62 146.43 
M 335.23 169.57 339.96 178.25 344.98 186.89 
M 347.12 190.39 351.27 197.22 
M 353.01 118.28 349.18 126.2 346.76 130.09 342.91 135.76 
M 340.29 139.49 336.39 145.13 335.16 146.64 
M 335.04 150.06 339.98 158.16 
M 344.79 165.99 349.09 173.14 
M 351.14 176.55 355.8 184.4 363.25 195.62 
M 358.48 128.84 357.3 130.83 353.17 139.43 350.51 143.18 345.29 148.58 
M 355.23 163.33 363.77 176.78 
M 365.88 180.02 374.88 193.68 
M 372.06 126.34 366.04 136.14 361.49 144.38 357.79 149.94 
M 361.86 155.81 364.29 159.4 
M 366.63 162.88 373.1 172.03 381.89 185.16 
M 384.03 188.21 386.5 191.73 
M 382.65 127.89 381.23 129.58 378.77 133.4 374.23 141.53 371.81 145.49 368.72 149.56 
M 372.47 154.8 374.93 158.22 
M 377.56 161.78 386.67 173.95 396.26 187.85 
M 397.04 128.09 395.6 129.71 389.39 135.87 386.51 139.24 382.45 144.65 
M 380.24 147.67 379.36 148.85 
M 385.36 156.77 397.51 172.11 406.05 184.01 
M 402.58 134.98 401.18 136.61 389.47 147.79 
M 398.74 158.7 405.19 166.32 412.03 174.79 
M 298.56 189.11 299.18 188.11 299.5 187.01 299.45 186.42 298.67 185.6 297 184.75 296.51 184.35 
M 218.22 137.15 217.37 135.84 
M 231.68 179.04 231.18 177.31 230.82 173.54 230.58 172.6 230.04 171.77 
M 311.56 118.55 310.7 117.36 309.73 116.62 305.86 114.72 
M 410.97 191.39 410.65 190.48 411.05 189 
M 279 139.18 281.27 138.85 283.28 137.76 
M 259.99 180.01 260.42 179.54 260.45 179.15 259.82 178.69 259.12 178.45 
M 234.54 132.02 236.22 133.05 236.67 133.57 236.97 134.58 236.85 136.08 236.49 136.9 235.9 137.5 235 137.58 
M 328.73 151.61 329.66 151.11 330.11 151.14 
M 155.36 198.02 155.24 198.05 
M 361.68 144.31 361.75 143.07 362.55 141.01 363.1 140.28 364.01 140.25 
M 136.17 196.89 135.71 196.32 134.14 195.71 
M 377.66 184.02 376.98 184.73 375.32 185.75 372.68 186.38 370.6 186.52 370.1 186.81 369.75 187.48 
M 377.27 149.98 379.2 150.02 380.35 149.65 381.49 148.99 384.57 146.69 385.51 145.24 386.31 145.01 
M 252.2 158.8 252.1 159.19 252.21 159.83 253.17 161.15 253.66 162.6 253.72 163.37 253.45 164.48 
M 396.66 140.72 396.43 138.56 395.73 136.73 395.12 135.86 394.26 135.07 393.4 134.51 392.63 134.33 391.32 134.39 390.48 134.74 390 135.73 
M 284.49 187.94 286.04 190.4 288.13 191.82 288.54 192.57 288.88 193.83 
M 209.21 131.72 207.2 131.01 204.73 130.57 204.29 130.27 203.22 128.75 202.66 128.31 
M 182.99 114.72 182.61 115.88 182.62 116.61 183.37 120.57 183.13 122.75 
M 386.07 139.74 386.72 140.49 388.23 141.5 388.72 141.56 389.04 141.29 
M 379.05 165.86 381.35 165.44 382.27 165.65 382.84 166.08 383.23 166.75 383.15 167.22 382.62 167.91 
M 307.36 164.82 303.98 164.8 301.01 164.25 295.98 163.9 
M 323.25 134.45 323.09 135.03 322.59 135.62 321.93 136.19 321.16 136.57 320.54 136.39 319.4 135.41 
M 408.76 164.97 409.11 164.49 409.55 164.21 412.03 163.82 
M 219.17 199.52 218.45 199.49 216.28 200.46 215.21 200.75 
M 307.29 189.01 305.56 188.04 304.15 186.24 303.21 185.58 301.2 185.05 298.15 184.77 
M 166.4 116.05 168.28 116.22 
M 182.02 114.43 186.67 83.76 187.71 83.87 185.79 114.44 
M 197.66 112.99 204.75 73.36 205.78 73.51 201.43 113.11 
M 213.34 112.19 222.6 70.91 223.62 71.1 217.1 112.51 
M 229.05 111.91 241.26 63.7 242.28 63.93 232.8 112.31 
M 244.74 111.92 257.01 67.25 258.03 67.5 248.49 112.38 
M 260.43 111.99 271.86 71.04 272.88 71.29 264.19 112.4 
M 276.13 111.77 289.69 66.26 290.7 66.53 279.89 112.26 
M 291.84 112.15 307.18 68.15 308.18 68.47 295.57 112.81 
M 307.52 113.08 320.73 79.53 321.72 79.88 311.22 113.85 
M 323.19 114.2 334.79 87.8 335.77 88.17 326.87 115.03 
M 338.82 115.78 348.06 97.82 349.02 98.23 342.45 116.77 
M 351.49 117.51 353.2 118.3 
M 169.06 116.14 173.93 110.41 176.26 107.38 178.39 104.23 180.31 100.96 182.01 97.56 183.53 94.05 186.21 86.83 
M 187.52 86.97 191.87 85.99 193.94 85.32 195.9 84.46 197.73 83.39 199.44 82.1 201.04 80.63 204.04 77.32 
M 205.34 77.51 209.17 78.29 211.06 78.48 212.91 78.45 214.72 78.17 216.5 77.65 218.24 76.92 221.67 75.04 
M 222.97 75.28 227.26 75.03 229.32 74.71 231.31 74.19 233.21 73.44 235.02 72.46 236.74 71.27 240.04 68.52 
M 241.33 68.81 244.27 70.77 245.79 71.56 247.35 72.12 248.95 72.44 250.61 72.52 252.31 72.39 255.79 71.72 
M 257.07 72.03 259.8 74.03 261.22 74.83 262.68 75.42 264.2 75.76 265.77 75.86 267.39 75.75 270.72 75.13 
M 272 75.45 276 75.71 277.94 75.65 279.82 75.37 281.64 74.86 283.38 74.1 285.07 73.14 288.34 70.82 
M 289.61 71.16 293.06 72.81 294.8 73.43 296.56 73.83 298.34 73.98 300.15 73.89 301.97 73.58 305.65 72.55 
M 306.91 72.95 308.85 76.21 309.95 77.68 311.18 78.98 312.57 80.08 314.12 80.99 315.8 81.73 319.41 82.89 
M 320.66 83.32 322.89 86.08 324.11 87.28 325.43 88.29 326.87 89.08 328.43 89.66 330.1 90.04 333.63 90.44 
M 334.86 90.91 336.81 93.94 337.9 95.29 339.12 96.46 340.49 97.43 341.99 98.19 343.63 98.78 347.13 99.61 
M 348.34 100.14 347.98 104.42 348 106.52 348.23 108.56 348.7 110.55 349.42 112.48 350.35 114.36 352.6 118.02 
M 189.71 86.52 193.94 85.32 195.9 84.46 197.73 83.39 199.44 82.1 202.56 79.01 
M 190.41 96.11 193.16 95.34 195.62 94.08 196.74 93.25 198.76 91.24 
M 207.26 77.94 211.06 78.48 212.91 78.45 214.72 78.17 216.5 77.65 219.96 76.02 
M 207.29 86.1 210.19 86.51 211.61 86.49 214.37 85.88 217.02 84.62 
M 207.31 94.26 209.33 94.54 210.32 94.53 212.23 94.1 214.08 93.23 
M 225.13 75.2 229.32 74.71 231.31 74.19 233.21 73.44 235.02 72.46 238.41 69.94 
M 224.76 81.71 228.22 81.31 229.87 80.89 231.43 80.27 232.92 79.46 235.72 77.37 
M 224.4 88.23 227.12 87.92 228.42 87.58 230.82 86.45 233.03 84.81 
M 224.03 94.74 226.97 94.27 228.73 93.44 230.34 92.25 
M 242.79 69.84 245.79 71.56 247.35 72.12 248.95 72.44 250.61 72.52 254.04 72.09 
M 242.08 77.27 244.55 78.69 245.84 79.16 247.16 79.43 248.53 79.49 251.36 79.14 
M 241.37 84.71 243.32 85.83 245.37 86.41 246.45 86.46 248.68 86.18 
M 240.66 92.15 242.82 93.24 244.37 93.43 246 93.22 
M 258.43 73.07 261.22 74.83 262.68 75.42 264.2 75.76 265.77 75.86 269.04 75.49 
M 257.72 79.95 260.03 81.4 261.23 81.89 262.48 82.17 263.78 82.26 266.48 81.95 
M 257.02 86.83 258.84 87.98 259.79 88.36 261.8 88.65 263.93 88.4 
M 256.32 93.72 258.34 94.83 259.81 95.04 261.37 94.86 
M 274.01 75.62 277.94 75.65 279.82 75.37 281.64 74.86 283.38 74.1 286.72 72.02 
M 273.33 82.05 276.57 82.07 278.12 81.84 279.62 81.42 281.06 80.8 283.81 79.08 
M 272.64 88.47 275.2 88.49 276.42 88.31 278.74 87.49 280.9 86.13 
M 271.96 94.9 274.72 94.78 276.41 94.18 278 93.19 
M 291.33 72.02 294.8 73.43 296.56 73.83 298.34 73.98 300.15 73.89 303.81 73.11 
M 290.36 79.11 293.22 80.26 294.68 80.59 296.15 80.72 297.63 80.65 300.65 80 
M 289.39 86.19 291.65 87.1 293.95 87.46 295.12 87.4 297.5 86.89 
M 288.42 93.27 290.91 94.13 292.61 94.16 294.35 93.78 
M 307.85 74.61 309.95 77.68 311.18 78.98 312.57 80.08 314.12 80.99 317.58 82.34 
M 306.36 83.62 307.97 85.97 308.92 86.97 311.17 88.51 313.82 89.55 
M 304.87 92.63 305.99 94.26 307.39 95.54 308.21 96.03 310.06 96.75 
M 321.75 84.74 324.11 87.28 325.43 88.29 326.87 89.08 328.43 89.66 331.84 90.27 
M 320.13 95.09 321.66 96.74 322.52 97.39 324.47 98.28 326.69 98.68 
M 335.81 92.46 337.9 95.29 339.12 96.46 340.49 97.43 341.99 98.19 345.35 99.23 
M 138.1 149.02 176.3 134.86 176.69 135.83 138.66 152.54 
M 138.62 153.49 224.67 128.82 224.97 129.82 138.66 157.25 
M 138.72 158.17 236.35 139.46 236.56 140.48 138.8 161.86 
M 138.79 162.84 249.33 151.8 249.45 152.84 138.39 166.56 
M 138.26 167.52 243.33 166.7 243.35 167.75 137.74 171.19 
M 137.68 172.07 241.52 180.77 241.44 181.81 138.09 175.77 
M 138.08 176.68 243.63 195.26 243.46 196.3 138.06 180.38 
M 138.09 181.27 220.72 203.99 220.45 205 138.02 185 
M 137.92 185.79 207.16 211.99 206.81 212.98 137.21 189.38 
M 145.61 192.23 175.78 207.36 175.34 208.31 136.52 191.62 
M 172.46 137.69 182.22 137.63 187.07 137.4 191.89 136.95 196.67 136.26 201.42 135.32 206.13 134.17 215.51 131.45 
M 215.89 132.71 217.27 135.67 218.09 136.99 219.06 138.15 220.19 139.12 221.48 139.9 222.91 140.52 226.04 141.43 
M 226.3 142.72 227.95 146 228.91 147.49 230.01 148.81 231.28 149.95 232.72 150.9 234.3 151.69 237.74 152.96 
M 237.88 154.27 235.42 156.51 234.38 157.71 233.54 159 232.93 160.39 232.54 161.88 232.35 163.46 232.35 166.79 
M 232.38 168.11 230.68 170.53 230.04 171.78 229.61 173.05 229.43 174.35 229.49 175.7 229.77 177.07 230.74 179.86 
M 230.65 181.18 229.77 184.1 229.53 185.53 229.51 186.92 229.73 188.27 230.2 189.58 230.88 190.85 232.66 193.33 
M 232.45 194.63 227.48 194.91 225.06 195.24 222.72 195.78 220.45 196.56 218.26 197.57 216.15 198.78 212.05 201.6 
M 211.72 202.88 208.45 203.11 206.92 203.4 205.48 203.89 204.16 204.59 202.97 205.52 201.87 206.64 199.87 209.23 
M 199.43 210.47 193.5 208 190.5 206.96 187.46 206.14 184.37 205.56 181.24 205.23 178.06 205.11 171.64 205.28 
M 177.34 137.7 187.07 137.4 191.89 136.95 196.67 136.26 201.42 135.32 210.83 132.85 
M 216.55 134.22 218.09 136.99 219.06 138.15 220.19 139.12 221.48 139.9 224.45 141.01 
M 187.52 142.89 188.52 144.69 189.15 145.44 190.72 146.58 192.65 147.3 
M 227.1 144.4 228.91 147.49 230.01 148.81 231.28 149.95 232.72 150.9 235.99 152.35 
M 205.28 148.77 206.67 151.14 208.49 153.03 209.59 153.76 212.1 154.88 
M 183.47 153.15 184.43 154.8 185.02 155.51 186.47 156.62 188.21 157.4 
M 236.61 155.37 234.38 157.71 233.54 159 232.93 160.39 232.54 161.88 232.31 165.11 
M 212.58 158.16 210.87 159.96 210.22 160.95 209.45 163.16 209.28 165.63 
M 188.54 160.96 187.35 162.21 186.9 162.89 186.37 164.43 186.25 166.15 
M 231.49 169.31 230.04 171.78 229.61 173.05 229.43 174.35 229.49 175.7 230.21 178.46 
M 208.65 169.83 207.54 171.72 207.07 173.7 207.12 174.72 207.67 176.84 
M 185.81 170.35 185.04 171.66 184.81 172.34 184.75 173.75 185.13 175.23 
M 230.16 182.65 229.53 185.53 229.51 186.92 229.73 188.27 230.2 189.58 231.73 192.1 
M 207.63 181.03 207.15 183.24 207.3 185.34 207.66 186.34 208.83 188.28 
M 185.1 179.41 184.77 180.95 184.87 182.41 185.12 183.11 185.94 184.45 
M 229.95 194.73 225.06 195.24 222.72 195.78 220.45 196.56 218.26 197.57 214.09 200.15 
M 196.23 189.54 193.05 189.87 191.53 190.22 188.63 191.38 185.92 193.06 
M 210.07 202.95 206.92 203.4 205.48 203.89 204.16 204.59 202.97 205.52 200.85 207.9 
M 183.31 196.35 181.26 196.64 179.47 197.41 178.69 198.02 177.31 199.56 
M 196.47 209.19 190.5 206.96 187.46 206.14 184.37 205.56 181.24 205.23 174.86 205.16 
M 214.51 207.15 223.2 216.9 228.51 225.92 226.13 227.97 222.98 233.63 220.64 235.61 211.31 231.24 204.35 228.6 201.5 228.59 198.24 227.33 194.06 224.04 190.92 222.52 185.53 222.89 181 221.53 173.38 211.55 169.64 204.39 
M 209.28 206.91 216.31 214.85 220 217.73 222.69 221.11 
M 204.06 206.67 207.61 211.72 210.52 214.63 213.01 217.83 
M 200.49 208.39 202.31 210.82 205.08 213.93 207.32 217.41 211.93 223.68 
M 196.82 209.35 197.2 209.78 200.56 212.25 203.28 215.62 205.31 218.71 206.52 221.65 208.39 225.32 209.48 229.43 
M 190.05 206.84 191.84 208.89 194 212.18 196.86 214.64 199.79 217.61 202.77 222.96 203.38 227.04 
M 184.13 205.54 190.73 215.43 
M 178.95 205.15 182.58 212.3 184.82 215.67 187.54 219.15 190.59 220.83 
M 174.4 205.17 175.99 208.04 177.48 212.81 177.52 216.1 
M 376.32 198.08 383.29 207.47 386.71 212.81 388.3 226.38 386.77 229.1 384.43 231.2 374.83 233.42 367.41 232.42 364.27 233.71 363.31 237.16 360.51 238.56 356.67 238.91 353.26 238.7 350.25 238.31 348.83 239.3 346.43 239.29 343.43 240.41 340.3 241.14 337.26 240.46 334.48 240.43 331.6 240.71 328.21 241.21 325.64 242.78 318.89 243.45 315.55 242.67 312.18 241.36 309.6 241.28 306.95 240.68 304.42 239.67 300.9 237.67 298.22 237.03 295.4 236.81 293.35 237.37 284.01 233.75 280.3 231.77 277.47 229.5 274.19 228.22 272.03 228.07 270.55 227.75 256.52 219.78 254.01 215.22 253.02 210.63 249.18 205.94 
M 371.11 198.64 374.7 203.66 376.74 207.17 379.58 210.64 383.31 217.38 386.05 221.32 
M 365.91 199.2 369.68 203.32 372.17 206.68 377.6 216.87 380.05 219.47 384.4 225.88 
M 360.72 199.84 364.72 202.88 367.33 206.19 369.83 209.65 372.18 215.83 374.3 219.14 377.02 221.53 
M 355.54 200.52 358.83 204.42 361.72 207.31 363.79 210.52 366.11 212.51 368.35 214.92 
M 350.36 201.25 353.75 205.4 356.46 207.96 358.38 210.64 360.03 213.8 362.01 216.34 364.44 218.83 
M 345.19 202.03 347.82 206.26 350.3 209.5 355.86 214.31 357.97 217.27 
M 340.01 202.77 342.21 207.25 346.84 214.11 349.46 217.22 355.3 225.94 
M 334.82 203.43 337.42 207.31 339.28 210.68 341.17 214.78 343.36 218.1 345.9 220.96 347.5 223.32 349.45 226.62 352.07 229.64 
M 329.63 204.07 332.4 207.62 336.66 213.54 338.2 217.53 341.88 224.14 
M 324.41 204.42 327.92 208.33 329.71 211.8 333.29 217.86 336.44 225.67 337.38 228.84 
M 319.19 204.77 322.5 208.93 324.41 213.22 325.65 216.67 327.24 220.23 329.57 222.98 330.91 226.9 332.45 230.32 335.42 232.65 338.52 235.76 
M 313.97 204.97 316.74 209.65 318.49 213.4 322.29 220.27 324.97 222.29 326.22 225.98 327.71 229.03 
M 308.74 205.16 311.96 210.39 314.04 214.29 315.79 217.18 319.82 222.96 321.59 225.81 323.02 228.89 326.79 234.65 
M 303.51 205.29 306.46 209.82 309.99 217 312.18 219.87 313.83 222.93 315.07 226.32 317.43 229.65 318.34 231.6 
M 298.28 205.4 301.12 209.82 302.88 212.96 305.82 219.85 308.06 222.81 309.28 226.97 311.01 230.31 312.28 232.16 
M 293.05 205.5 297.58 213 299.11 216.27 300.58 220.21 301.31 224.21 302.41 227.79 303.78 231.22 310.33 234.55 
M 287.82 205.58 290.62 209.9 294.34 216.24 295.24 219.77 296.62 224.12 298.48 228.07 
M 282.59 205.64 285.6 209.84 287.48 212.89 288.83 215.84 290.44 220.17 291.49 224.34 293.47 227.54 
M 277.36 205.61 280.6 209.17 282.15 213.47 284.06 217.2 284.41 219.53 285.88 224.07 290.51 231.32 
M 272.13 205.58 276.57 213.58 277.9 217.45 281.97 223.6 
M 266.9 205.55 269.58 210.51 273.48 216.45 
M 261.67 205.53 266.59 213.78 268.29 217.4 
M 256.44 205.68 259.57 210.49 264.78 217.96 267.49 222.45 
M 410.99 128.95 417.91 127.13 422.99 123.52 425.93 121.85 428.05 119.98 439.13 113.42 448.62 109.14 451.16 107.55 454.34 105.8 457.77 103.6 460.47 101.25 462.76 100.68 465.97 97.9 469.45 95.52 471.55 92.9 475.17 91.07 476.87 91.33 479.32 90.33 483.66 89.46 486.54 87.82 490 86.29 468.7 100.38 468.67 104.12 469.09 108.31 468.66 111.65 467.62 114.37 467.01 117.89 464.46 119.76 462.73 122.46 462.11 125.47 460.52 127.5 459.61 130.06 459.52 133.35 458.9 136.12 457.62 139.16 457.25 142.64 458.18 146.53 457.76 149.7 457.07 152.86 456 155.62 454.35 157.49 453.26 159.94 452.62 163.08 452.79 167.04 457.54 173.69 458.13 175.97 458.24 179.15 458.06 182.5 459.41 186.81 459.27 189.53 459.62 192.73 461.15 196.95 461.96 200.15 462.64 205.63 464.57 212.51 465.13 215.57 464.68 217.63 471.52 226.82 489.94 246.29 485.91 244.22 481.8 241.49 479 239.28 475.3 237.53 471.51 236.36 468.89 233.5 466.57 231.41 462.38 229.57 458.52 226.61 456.45 225.6 454.83 223.79 452.72 221.99 449.83 221.47 445.48 216.56 443.56 215.05 441.14 212.74 431.74 207.18 429.22 204.95 423 200.87 417.69 196.27 410.99 192.03 
M 421.15 129.56 423.68 128.02 426.67 126.75 432.38 122.79 435.38 121.21 438.76 120.47 444.43 117.73 447.13 116.1 450.52 115.14 
M 415.24 134.89 418.95 134.18 427.97 131.4 436.64 126.78 
M 422.29 136.77 425.17 135.86 428.26 135.16 431.23 133.64 434.11 131.04 436.7 129.87 439.77 128.9 442.38 127.53 445.35 126.73 448.73 126.61 451.92 126.21 454.11 124.88 
M 421.66 140.08 425.2 139.08 427.67 139.12 431.19 137.83 437.68 134.72 441.02 132.39 443.89 132.52 
M 418.6 144.55 421.92 143.84 424.9 142.95 427.6 143.08 433.98 141.04 438.7 139.3 441.63 137.91 444.48 138.38 
M 422.29 148.24 425.53 147.74 428.73 147.47 432.17 146.48 
M 419.2 151.18 422.87 151.42 428.96 152.48 440.54 150.35 447.85 147.81 451.69 148.3 
M 410.99 154.18 415.65 154.93 422.69 154.98 426.34 155.87 433.57 156.8 437.73 156.4 441.53 155.44 444.92 154.95 
M 415.87 158.57 419.8 158.89 423.08 158.62 429.94 159.5 436.97 159.42 445.67 161.4 449.04 160.3 450.27 160.85 453.11 160.02 
M 419.84 162.57 423.41 162.38 427.3 162.52 431.33 162.36 435.03 163.49 438.49 164.32 444.88 165.44 
M 415.84 165.02 419.65 165.64 423.27 166.76 426.87 167.2 430.74 167.25 433.91 168.23 
M 419.58 168.83 422.6 170.35 429.79 171.64 435.53 173.01 439.18 174.58 442.69 175.51 446.46 176.1 452.01 175.29 
M 410.99 169.95 415.47 171.5 425.76 174.54 428.12 175.82 432.29 176.39 435.24 177.16 439.02 179.81 442.61 180.05 446.06 180.06 
M 410.99 173.1 415.48 175.02 419.3 176.07 424.89 179.06 428.14 179.74 431.9 180.84 
M 410.99 176.26 415.39 178.35 418.56 179.52 421.6 181.33 428.99 183.79 431.78 185.4 435 186.58 439.93 187.6 443.46 189.6 446.46 189.82 449.68 189.46 456.41 191.75 
M 414.69 181.5 417.9 182.73 424.93 186.1 428.34 188.17 431.35 189.25 433.33 191.14 437.29 193.03 
M 414.69 184.73 418.32 186.07 427.5 191.22 430.16 192.54 432.58 194.54 435.59 196.72 439.22 198.85 442.83 199.3 445.6 200.4 450 199.85 455.66 203.98 458.32 204.78 
M 415.04 187.76 418.63 189.44 421.72 191.16 426.61 195.05 429.14 196.45 435.64 200.85 438.6 202.65 441.3 203.21 
M 418.71 193.14 421.42 194.76 426.23 198.94 429.29 201.1 432.69 203.07 434.96 204.87 438.29 206 441.46 207.82 443.21 210.31 445.82 212.02 449.49 213.46 452.04 215.69 
M 34.85 181.73 35.71 180.75 42.38 175.83 46.02 171.58 49.83 166.2 54.73 160.7 60.83 155.99 66.8 152.11 72.19 148.29 83.99 139.21 90.71 135.28 97.59 131.64 104.29 128.39 110.25 125.88 115.47 123.96 122.02 121.91 126.23 125.23 128.29 128.94 130.64 132.61 133.24 136.23 135.33 139.94 136.69 143.76 138.69 151.51 138.55 155.56 138.82 159.55 138.79 163.59 137.65 171.82 138.09 175.79 138.17 183.83 137.65 187.94 136.35 192.17 133.62 196.54 119.4 196 108.92 195.39 99.89 194.62 76.6 193.08 69.85 192.54 52.72 190.53 
M 111.09 152.72 111.67 156.11 110.34 163.07 109.39 166.31 106.76 171.54 106.9 173.5 107.33 175.51 108.32 177.67 109.1 180.04 109.64 182.62 109.31 185.64 99.76 185.25 86.39 184.96 67.68 185.22 61.92 184.85 
M 50.65 191.26 34.35 187.69 31.84 187.02 30 184.88 30.28 182.22 32.62 181.05 35.21 181.84 52.8 190.57 
M 52.83 191.55 48.6 194.56 44.24 197.07 37.56 201.39 35.08 202.16 32.8 200.76 32.47 198.28 34.18 196.37 36.54 195.38 41.69 193.79 49.34 191.76 52.41 190.6 
M 71.33 170 70.3 166.09 70.59 162.05 72.18 158.33 74.89 155.33 78.43 153.37 82.41 152.66 86.41 153.29 89.99 155.18 92.76 158.13 94.42 161.82 94.8 165.85 93.84 169.78 91.66 173.19 88.49 175.71 84.68 177.06 80.63 177.1 76.79 175.82 73.58 173.37 71.33 170 
M 71.18 169.66 70.37 166.73 70.25 165.21 70.56 162.18 71 160.72 72.39 158.02 74.4 155.74 76.91 154.02 79.77 152.98 82.79 152.66 84.31 152.79 87.24 153.6 
M 73.11 168.86 72.44 166.42 72.34 165.16 72.39 163.9 72.77 162.07 
M 75.56 157.53 76.78 156.53 77.87 155.88 80.24 155.02 81.48 154.81 84.01 154.86 86.44 155.53 
M 75.05 168.06 74.72 167.11 74.43 165.12 74.47 164.12 74.8 162.59 
M 76.91 159.13 78.83 157.74 80.71 157.05 81.7 156.89 83.7 156.93 85.64 157.46 
M 78.05 166.97 77.64 165.41 77.75 163.93 
M 78.82 161.83 79.48 161.1 80.89 160.32 82.49 160.04 84.09 160.29 85.52 161.04 86.63 162.22 87.29 163.7 87.44 165.31 87.06 166.88 86.19 168.25 84.92 169.25 83.39 169.79 81.77 169.81 80.24 169.3 78.95 168.32 78.05 166.97 
M 79.44 161.15 79.01 162 
M 77.99 164.05 77.7 164.63 
M 81.47 160.22 80.09 162.99 
M 79.48 164.2 78.08 167.01 
M 83.09 160.13 81.16 163.98 
M 81.06 164.18 78.98 168.34 
M 84.47 160.49 80.12 169.21 
M 85.68 161.22 81.44 169.7 
M 86.68 162.35 82.96 169.8 
M 87.33 164.18 84.77 169.31 
M 36.31 180.32 40.35 184.37 
M 39.94 177.68 43.34 181.08 
M 43.29 174.76 46.46 177.92 
M 46.17 171.36 51 176.19 
M 48.77 167.69 53.3 172.21 
M 51.59 164.23 57.38 170.01 
M 54.54 160.91 60.44 166.8 
M 58.05 158.13 63.1 163.19 
M 61.65 155.46 65.84 159.65 
M 65.45 152.98 69.47 157 
M 69.17 150.43 73.99 155.25 
M 72.81 147.79 76.52 151.5 
M 76.32 145.03 81.15 149.85 
M 79.88 142.3 84.64 147.07 
M 83.46 139.61 86.65 142.8 
M 87.36 137.24 92.01 141.89 
M 91.35 134.95 95.32 138.92 
M 95.45 132.77 100.93 138.26 
M 99.61 130.66 105.4 136.44 
M 103.84 128.61 107.09 131.86 
M 108.23 126.73 112.46 130.96 
M 112.74 124.96 118.28 130.5 
M 117.39 123.33 121.62 127.56 
M 123.08 122.74 125.35 125.01 
M 57.72 171.26 58.19 170.34 58.74 169.91 61.45 169.26 63.21 168.28 
M 66.69 159.39 67.43 159.45 69.34 160.08 71.34 160.31 
M 85.14 176.89 84.82 177.78 
M 110.56 132.74 107.66 132.32 105.17 132.59 103.16 133.35 102.05 134.02 100.26 135.49 99.38 135.8 
M 103.93 194.1 106.62 191.01 107.32 189.39 107.68 187.78 107.74 186.27 107.5 185.45 106.37 183.48 105.58 181.64 
M 118.47 187.91 118.78 187.33 119.64 186.45 121.05 185.75 122.38 185.54 126.85 185.41 
M 112.06 163.34 112.09 162.31 112.9 158.87 113.57 157.3 114.25 156.62 116.09 156.09 
M 90.01 174.5 90.01 176.1 87.98 180.02 87.87 180.76 88.28 182.3 
M 46.82 185.61 47.67 185.3 48.42 184.78 52.1 180.53 52.97 178.21 54.15 176.11 
M 73.3 149.19 71.58 151.97 71.2 153.77 71.32 154.66 71.65 155.5 72.66 156.87 
M 96.54 132.2 95.1 134.57 94.73 135.96 94.79 137 
M 132.77 173.96 131.03 173.97 128.75 174.23 127.3 174.04 126.49 174.25 
M 89.63 148.17 90.11 148.99 90.2 149.52 90.34 151.45 90.26 152.6 90.75 153.12 
M 45.25 180.57 44.96 178.68 44.11 176.75 44.02 175.52 44.14 175 44.63 174.16 46.03 172.86 
M 116.08 164.54 116.71 163.43 117.25 162.97 119.11 162.7 120.5 161.83 
M 64.12 186.34 63.97 183.74 63.78 182.88 63.27 182.03 61.26 180.19 58.55 177.3 57.91 176.54 57.03 174.99 
M 117.09 141.42 114.9 144.14 114.34 144.6 113.77 144.83 113.11 144.86 111.51 144.67 109.16 144.76 108.01 145.26 
M 137.72 150.39 134.54 152.01 131.4 152.73 129.82 153.36 
M 109.81 126.42 109.34 126.26 
M 110.26 148.51 112.01 148.62 113.53 148.9 114.33 148.62 114.82 148.2 
M 120.83 193.59 118.93 191.51 116.87 190.2 116.06 189.88 115.28 189.81 114.58 190.06 112.86 191.46 
M 73.03 172.54 72.14 173.55 71.79 174.26 
M 130.56 175.4 127.79 174.36 127.38 174.26 126.61 174.37 126.45 174.24 
M 103.57 163.41 103.22 165.26 102.42 167.27 101 169.2 99.08 170.84 98.29 171.94 97.74 173.32 96.46 175.51 
M 69.4 152.86 69.56 153.96 70.34 155.51 71.47 156.98 72.51 157.97 
M 114.9 153.23 116.24 153.84 118.21 153.23 118.92 153.18 119.74 153.79 
M 129.7 174.07 128.66 174.21 127.24 174.04 126.57 174.26 126.41 174.13 
M 82.38 144.74 78.96 145.1 78.31 145.36 77.15 146.15 76.17 147.31 75.9 147.85 
M 108.57 172.44 107.43 172.23 106.15 172.22 103.4 172.77 101.06 173.71 96.96 175.92 
M 88.3 187.55 87.64 187.5 87.37 186.94 87.45 186.57 
M 103.83 141.96 102.64 141.68 99.7 139.92 98.1 138.65 96.64 136.77 95.98 136.51 
M 96.43 188.82 96.33 188.42 95.93 188.33 93.44 188.88 92.76 188.88 
M 94.45 162.14 95.11 157.8 
M 100.46 175.41 98.31 175.62 96.12 176.24 
M 125.92 153.1 125.67 153.84 125.69 154.27 126.23 157 126.55 157.83 127.39 158.91 
M 115.3 176.9 112.43 175.89 109.9 175.46 107.96 175.59 103.48 174.85 102.71 174.88 101.46 175.34 
M 70.37 155.43 71.45 156.87 72.54 157.93 
M 127.42 133.65 128.1 134.83 
M 75.42 145.74 75.18 148.08 
M 130.95 133.04 130.91 133.35 
M 87.31 150.37 87.68 150.33 88.08 150.53 89.39 151.83 
M 133.92 189.76 128.84 189.02 126.79 188.38 126.38 188.12 125.93 187.36 125.95 186.75 126.23 186.35 
M 98.05 148.59 98.41 151.41 98.03 154.02 97.47 155.55 96.43 156.6 
M 111.11 129.47 110.5 128.98 109.69 128.65 107.87 128.31 103.73 128.66 
M 119.31 179.22 119.92 181.83 120.45 183 121.26 183.91 122.64 184.75 123.5 185.09 
M 50.41 184.96 51.93 183.56 52.41 182.79 52.93 181.04 53.33 178.15 53.99 176.77 55.12 175.47 
M 91.43 174.65 91.36 175.49 90.98 176.41 89.75 177.96 88.36 180.51 88.34 181.32 88.86 184.68 88.83 185.34 88.35 186.25 
M 111.97 136.95 111.02 137.72 109.93 138.25 107.92 138.79 106.73 138.68 102.22 137.77 99.5 137.53 97.36 136.92 
M 56.17 190.7 54.25 189.45 53.02 188.12 51.93 187.89 
M 122.36 136.18 122.6 137.03 123.11 137.83 124.76 139.52 126.28 140.75 126.68 141.29 127.15 142.28 127.51 143.85 
M 106.2 165.17 105.38 165.21 104.69 165.51 103.36 166.73 101.24 169.46 99.31 171.07 98.48 172.11 96.51 175.52 
M 87.19 140.27 89.08 139.97 90.97 140.01 93.61 141.21 95.25 141.7 95.9 141.53 96.22 140.93 
M 73.5 147.25 73.6 148.83 71.6 152.02 71.23 153.78 
M 128.18 151.94 126.78 153.6 126.3 154.59 126.23 155.07 126.14 156.01 126.36 157.33 127.25 158.7 
M 114.47 190.11 112.73 191.52 110.56 192.31 110.2 192.28 110.06 192.05 
M 46.38 171.06 50.32 168.54 
M 45.6 172.07 46.99 171.42 48.24 170.47 
M 102.06 161.34 103.58 162.48 103.89 163.2 102.95 166.29 101.73 168.41 100.98 169.26 
M 52.42 190.37 54.05 190.94 
M 42.11 189.36 42.02 190.17 42.53 191.75 42.61 190.37 43.11 189.58 
M 31.91 187.04 31.28 189.84 32 192.91 31.87 190.05 33.16 187.37 
M 52.52 190.85 54 190.14 
M 43.16 193.43 42.82 191.96 43.15 190.33 43.39 191.69 44.5 193.09 
M 34.04 196.53 32.87 193.2 33.23 190.07 33.43 192.92 35.31 195.9 
M 41.36 198.89 47.6 198.71 51.38 198.29 55.1 197.57 58.79 196.6 62.46 195.4 69.85 192.54 
M 68.81 192.96 68.88 192.72 
M 56.22 197.28 55.25 196.11 54.68 195.8 53.47 195.6 
M 64.6 194.61 63.71 193.69 
M 43.02 197.85 43.81 197.86 45.53 197.55 46.27 197.72 46.54 197.94 
M 128.27 128.9 129.16 129.79 
M 128.25 120.51 140.39 132.65 
M 135.25 119.15 142.6 126.49 
M 142.64 118.17 149.34 124.87 
M 150.3 117.45 162.28 129.44 
M 158.1 116.88 170.57 129.36 
M 165.95 116.37 172.44 122.86 
M 173.62 115.67 180.04 122.09 
M 181.22 114.9 189.64 123.32 
M 188.81 114.13 199.84 125.15 
M 196.53 113.48 207.89 124.84 
M 204.37 112.94 215.94 124.51 
M 212.43 112.63 220.95 121.15 
M 220.61 112.45 232.63 124.47 
M 228.86 112.33 237 120.47 
M 237.17 112.27 244.11 119.21 
M 245.62 112.35 252.82 119.56 
M 254.05 112.42 263.33 121.7 
M 262.43 112.43 272.56 122.56 
M 270.65 112.28 279.81 121.44 
M 279 112.26 286.7 119.96 
M 287.55 112.44 297.72 122.61 
M 296.33 112.86 308.63 125.16 
M 305.27 113.43 315.01 123.17 
M 314.28 114.07 321.34 121.13 
M 323.33 114.75 334.36 125.78 
M 332.52 115.58 344.44 127.49 
M 342.02 116.71 349.58 124.27 
M 351.78 118.1 362.14 128.45 
M 361.55 119.5 372.67 130.61 
M 371.21 120.79 377.77 127.35 
M 380.91 122.12 389.28 130.49 
M 390.91 123.76 402.89 135.74 
M 401.72 126.19 408.48 132.95 
M 417.18 133.28 420.41 136.51 
M 238.31 148.68 237.97 148.08 238.18 147.05 238.73 146.63 239.07 147.23 238.86 148.26 238.31 148.68 
M 237.79 147.97 238.31 147.52 239.36 147.52 239.88 147.97 239.36 148.42 238.31 148.42 237.79 147.97 
M 252.48 136.2 252.67 135.54 253.54 134.96 254.23 135.06 254.04 135.72 253.16 136.3 252.48 136.2 
M 252.72 135.14 253.37 135.38 253.88 136.3 253.74 136.97 253.09 136.73 252.58 135.82 252.72 135.14 
M 235.2 139.23 235.1 138.54 235.66 137.66 236.32 137.46 236.43 138.15 235.86 139.03 235.2 139.23 
M 235.23 138.94 235.51 138.31 236.46 137.87 237.13 138.06 236.84 138.69 235.89 139.13 235.23 138.94 
M 245.29 130.84 244.79 130.37 244.68 129.33 245.07 128.76 245.58 129.24 245.69 130.28 245.29 130.84 
M 244.43 130.06 244.98 129.65 246.03 129.72 246.52 130.21 245.96 130.63 244.92 130.55 244.43 130.06 
M 251.74 149.87 251.24 150.35 250.2 150.4 249.65 149.97 250.16 149.5 251.2 149.45 251.74 149.87 
M 251.27 150.48 250.65 150.17 250.25 149.2 250.47 148.55 251.09 148.86 251.49 149.83 251.27 150.48 
M 258.04 129.55 257.58 130.07 256.55 130.21 255.97 129.83 256.43 129.31 257.46 129.17 258.04 129.55 
M 257.72 130.03 257.04 129.94 256.35 129.15 256.35 128.46 257.03 128.55 257.72 129.34 257.72 130.03 
M 242.66 122.89 243.35 122.78 244.23 123.34 244.43 124 243.75 124.11 242.86 123.55 242.66 122.89 
M 243.06 124.07 243.3 123.43 244.21 122.92 244.89 123.06 244.65 123.71 243.74 124.22 243.06 124.07 
M 249.49 126.67 249.15 126.07 249.34 125.04 249.89 124.62 250.23 125.22 250.04 126.24 249.49 126.67 
M 250.05 126.35 249.56 125.86 249.5 124.82 249.92 124.27 250.4 124.76 250.47 125.8 250.05 126.35 
M 234.9 123.67 235.58 123.8 236.22 124.63 236.19 125.32 235.51 125.19 234.87 124.36 234.9 123.67 
M 234.94 125.01 235.31 124.42 236.3 124.11 236.94 124.39 236.57 124.98 235.57 125.29 234.94 125.01 
M 238.64 130.29 238.7 130.98 238.08 131.83 237.41 131.98 237.35 131.29 237.96 130.45 238.64 130.29 
M 237.53 131.76 237.77 131.11 238.69 130.62 239.37 130.76 239.12 131.41 238.21 131.91 237.53 131.76 
M 250.51 162.11 250.09 161.56 250.16 160.51 250.65 160.02 251.07 160.57 251 161.61 250.51 162.11 
M 250.23 161.78 250.33 161.09 251.13 160.41 251.82 160.42 251.72 161.1 250.92 161.78 250.23 161.78 
M 255.45 123.06 255.68 123.71 255.3 124.69 254.68 125.01 254.45 124.36 254.83 123.38 255.45 123.06 
M 254.61 124.69 254.81 124.03 255.7 123.48 256.39 123.59 256.18 124.25 255.29 124.8 254.61 124.69 
M 259.39 138.77 260.03 138.52 261.02 138.87 261.36 139.47 260.71 139.72 259.73 139.38 259.39 138.77 
M 260.75 139.82 260.25 139.34 260.15 138.3 260.56 137.74 261.06 138.22 261.15 139.26 260.75 139.82 
M 263.74 133.16 263.07 133.33 262.13 132.86 261.87 132.22 262.54 132.05 263.47 132.52 263.74 133.16 
M 262.48 133.42 262.55 132.73 263.32 132.02 264.01 132 263.94 132.68 263.17 133.39 262.48 133.42 
M 268.18 127.35 268.85 127.51 269.47 128.36 269.41 129.04 268.73 128.89 268.12 128.04 268.18 127.35 
M 269.39 128.72 268.76 128.45 268.31 127.5 268.49 126.84 269.13 127.11 269.58 128.06 269.39 128.72 
M 237.46 168.12 238.04 168.49 238.33 169.5 238.04 170.13 237.46 169.75 237.17 168.74 237.46 168.12 
M 238.45 169.51 237.77 169.37 237.13 168.54 237.17 167.85 237.85 167.99 238.49 168.82 238.45 169.51 
M 263.44 123.55 264.06 123.85 264.48 124.81 264.28 125.47 263.65 125.17 263.23 124.22 263.44 123.55 
M 264.58 124.19 264.07 124.65 263.02 124.66 262.49 124.22 263.01 123.76 264.06 123.74 264.58 124.19 
M 269.02 143.23 268.66 142.64 268.83 141.61 269.36 141.17 269.73 141.76 269.55 142.79 269.02 143.23 
M 268.41 142.06 269.09 141.97 269.97 142.54 270.16 143.2 269.48 143.3 268.6 142.73 268.41 142.06 
M 268.73 121.2 268.29 120.66 268.33 119.62 268.8 119.11 269.23 119.65 269.2 120.69 268.73 121.2 
M 268.89 119.37 268.99 120.05 268.43 120.94 267.77 121.13 267.67 120.45 268.23 119.57 268.89 119.37 
M 276.48 124.81 277.14 125.02 277.69 125.91 277.58 126.59 276.92 126.39 276.37 125.49 276.48 124.81 
M 276.34 126.1 276.81 125.59 277.85 125.47 278.42 125.86 277.95 126.37 276.91 126.49 276.34 126.1 
M 261.81 119.51 261.16 119.27 260.65 118.36 260.8 117.68 261.45 117.92 261.95 118.83 261.81 119.51 
M 260.51 118.7 261.14 118.4 262.15 118.68 262.53 119.26 261.9 119.56 260.9 119.27 260.51 118.7 
M 267.02 112.97 266.48 112.54 266.29 111.51 266.64 110.91 267.18 111.34 267.37 112.37 267.02 112.97 
M 266.03 111.87 266.71 111.72 267.63 112.21 267.88 112.86 267.2 113.01 266.28 112.52 266.03 111.87 
M 276.33 118.38 275.8 118.83 274.76 118.81 274.24 118.34 274.77 117.9 275.82 117.92 276.33 118.38 
M 275.77 117.73 275.54 118.38 274.63 118.9 273.95 118.77 274.18 118.11 275.09 117.59 275.77 117.73 
M 272.67 112.15 271.99 112.27 271.1 111.74 270.88 111.08 271.56 110.96 272.46 111.5 272.67 112.15 
M 270.98 111.68 271.62 111.42 272.61 111.76 272.96 112.36 272.32 112.61 271.33 112.27 270.98 111.68 
M 230.43 138.14 229.92 138.6 228.88 138.63 228.34 138.19 228.85 137.73 229.9 137.7 230.43 138.14 
M 229.05 137.44 229.52 137.95 229.55 139 229.12 139.53 228.65 139.03 228.62 137.98 229.05 137.44 
M 283.53 115.22 283.02 115.7 281.98 115.74 281.43 115.31 281.94 114.83 282.98 114.79 283.53 115.22 
M 282.31 116.04 282.25 115.36 282.85 114.5 283.52 114.34 283.59 115.02 282.99 115.88 282.31 116.04 
M 285.57 122.09 285.33 122.74 284.42 123.25 283.74 123.11 283.98 122.46 284.89 121.95 285.57 122.09 
M 285.38 122.93 284.69 122.85 283.99 122.07 283.97 121.38 284.66 121.46 285.36 122.24 285.38 122.93 
M 278.79 108.97 278.29 109.44 277.24 109.48 276.7 109.05 277.21 108.58 278.25 108.54 278.79 108.97 
M 278.54 109.07 277.87 109.23 276.94 108.74 276.69 108.1 277.36 107.94 278.29 108.43 278.54 109.07 
M 251.21 118.35 251.88 118.17 252.82 118.62 253.1 119.25 252.43 119.44 251.49 118.98 251.21 118.35 
M 251.39 119.02 251.96 118.64 253 118.77 253.46 119.29 252.89 119.67 251.85 119.54 251.39 119.02 
M 226.06 130.93 225.64 131.48 224.62 131.68 224.01 131.34 224.44 130.8 225.46 130.59 226.06 130.93 
M 224.25 131.02 224.93 130.91 225.83 131.45 226.04 132.11 225.35 132.23 224.46 131.68 224.25 131.02 
M 284.97 128.72 285.48 129.19 285.6 130.23 285.2 130.8 284.7 130.33 284.58 129.29 284.97 128.72 
M 284.92 130.54 284.85 129.85 285.46 129 286.13 128.84 286.2 129.53 285.59 130.38 284.92 130.54 
M 254.85 112.68 255.48 112.4 256.48 112.69 256.86 113.27 256.23 113.56 255.22 113.26 254.85 112.68 
M 255.34 113.59 255.6 112.95 256.53 112.47 257.21 112.64 256.95 113.28 256.02 113.75 255.34 113.59 
M 238.35 175.88 237.66 175.93 236.83 175.29 236.68 174.62 237.37 174.57 238.21 175.21 238.35 175.88 
M 238.09 175.8 237.47 175.5 237.06 174.53 237.28 173.87 237.9 174.18 238.3 175.15 238.09 175.8 
M 265.92 106.69 265.97 107.38 265.34 108.22 264.67 108.37 264.62 107.68 265.24 106.84 265.92 106.69 
M 264.62 107.96 265.06 107.43 266.1 107.26 266.68 107.63 266.24 108.16 265.21 108.32 264.62 107.96 
M 276.57 101.82 276.52 102.51 275.79 103.26 275.1 103.32 275.15 102.63 275.88 101.88 276.57 101.82 
M 275.26 102.02 275.88 102.32 276.3 103.28 276.09 103.94 275.47 103.64 275.05 102.68 275.26 102.02 
M 266.46 101.51 266.5 100.82 267.23 100.08 267.92 100.02 267.88 100.71 267.15 101.46 266.46 101.51 
M 267.78 100.23 267.43 100.83 266.45 101.18 265.8 100.92 266.15 100.32 267.13 99.97 267.78 100.23 
M 272.17 95.43 272.5 94.82 273.48 94.45 274.13 94.69 273.8 95.3 272.82 95.67 272.17 95.43 
M 272.61 95.64 272.9 95.02 273.85 94.59 274.52 94.78 274.23 95.41 273.27 95.84 272.61 95.64 
M 284.38 102.77 284.75 102.18 285.75 101.87 286.38 102.15 286.01 102.74 285.02 103.04 284.38 102.77 
M 284.58 102.46 285.24 102.25 286.2 102.66 286.51 103.28 285.85 103.49 284.89 103.08 284.58 102.46 
M 276.42 90.7 276.96 90.28 278.01 90.33 278.51 90.8 277.96 91.23 276.92 91.18 276.42 90.7 
M 278.19 91.08 277.5 91 276.79 90.23 276.77 89.54 277.46 89.62 278.17 90.39 278.19 91.08 
M 197.67 135.61 197.71 134.92 198.44 134.17 199.13 134.11 199.09 134.8 198.36 135.55 197.67 135.61 
M 197.81 134.33 198.44 134.61 198.89 135.56 198.81 135.84 
M 198.13 135.97 197.62 135 197.81 134.33 
M 268.02 149.1 267.51 148.63 267.39 147.59 267.78 147.02 268.29 147.49 268.41 148.53 268.02 149.1 
M 268.22 148.79 267.76 148.27 267.75 147.23 268.19 146.7 268.65 147.21 268.67 148.26 268.22 148.79 
M 276.34 147.54 275.71 147.82 274.71 147.51 274.34 146.93 274.97 146.65 275.97 146.95 276.34 147.54 
M 275.86 147.84 275.27 147.47 274.96 146.47 275.23 145.84 275.82 146.21 276.13 147.2 275.86 147.84 
M 278.04 138.02 278.25 137.36 279.15 136.82 279.83 136.94 279.62 137.6 278.72 138.14 278.04 138.02 
M 279.73 137.39 279.09 137.67 278.09 137.37 277.72 136.78 278.36 136.5 279.36 136.81 279.73 137.39 
M 229.68 176.64 229.84 176.57 230.01 177.24 229.9 177.47 
M 240.21 194.29 240.45 193.64 241.37 193.14 242.05 193.28 241.81 193.93 240.89 194.43 240.21 194.29 
M 241.65 194.39 241.06 194.03 240.75 193.03 241.03 192.39 241.62 192.76 241.92 193.76 241.65 194.39 
M 249.95 177.86 249.31 177.6 248.84 176.66 249.01 175.99 249.65 176.26 250.12 177.19 249.95 177.86 
M 249.45 177.72 249.26 177.06 249.72 176.11 250.35 175.83 250.53 176.5 250.08 177.45 249.45 177.72 
M 256.39 186.88 256.45 187.56 255.85 188.42 255.17 188.58 255.11 187.89 255.72 187.04 256.39 186.88 
M 255.73 186.93 255.98 187.58 255.63 188.56 255.03 188.9 254.78 188.26 255.13 187.27 255.73 186.93 
M 261.79 164.7 261.18 165.03 260.16 164.79 259.76 164.23 260.37 163.9 261.39 164.14 261.79 164.7 
M 261.22 163.8 261.03 164.47 260.15 165.04 259.47 164.95 259.66 164.28 260.53 163.71 261.22 163.8 
M 261.22 173.56 261.9 173.43 262.8 173.95 263.03 174.6 262.35 174.73 261.44 174.21 261.22 173.56 
M 261.7 174.75 261.87 174.08 262.73 173.49 263.42 173.57 263.25 174.24 262.39 174.83 261.7 174.75 
M 272.11 165.83 271.91 165.17 272.32 164.21 272.95 163.91 273.15 164.57 272.74 165.53 272.11 165.83 
M 271.9 164.38 272.55 164.62 273.05 165.54 272.91 166.22 272.26 165.98 271.76 165.06 271.9 164.38 
M 246.56 105.73 247.25 105.64 248.12 106.21 248.31 106.87 247.63 106.97 246.75 106.4 246.56 105.73 
M 246.65 106.39 247.28 106.11 248.28 106.41 248.65 107 248.02 107.28 247.02 106.98 246.65 106.39 
M 254.72 106.21 254.31 106.77 253.29 106.99 252.68 106.66 253.09 106.11 254.11 105.88 254.72 106.21 
M 253.87 107.21 253.52 106.62 253.72 105.59 254.26 105.16 254.61 105.76 254.41 106.78 253.87 107.21 
M 261.51 183.64 261.31 184.3 260.41 184.85 259.73 184.74 259.94 184.08 260.83 183.53 261.51 183.64 
M 261.42 184.27 260.74 184.42 259.82 183.92 259.58 183.27 260.25 183.12 261.17 183.62 261.42 184.27 
M 225.91 125.17 225.75 124.5 226.24 123.57 226.88 123.32 227.04 123.99 226.56 124.92 225.91 125.17 
M 225.7 123.86 226.38 123.99 227.02 124.82 226.98 125.51 226.31 125.37 225.66 124.55 225.7 123.86 
M 229.12 115.32 229.54 114.77 230.57 114.57 231.17 114.91 230.74 115.45 229.72 115.66 229.12 115.32 
M 229.35 115.14 230 114.91 230.97 115.29 231.3 115.9 230.64 116.13 229.67 115.75 229.35 115.14 
M 206.26 131.61 205.97 132.24 205.02 132.67 204.35 132.48 204.64 131.85 205.59 131.42 206.26 131.61 
M 205.95 131.57 205.54 132.13 204.52 132.37 203.91 132.05 204.32 131.49 205.33 131.25 205.95 131.57 
M 236.89 117.63 236.28 117.97 235.26 117.76 234.84 117.21 235.44 116.87 236.46 117.08 236.89 117.63 
M 235.09 117.22 235.78 117.18 236.61 117.82 236.75 118.5 236.06 118.54 235.23 117.9 235.09 117.22 
M 235.49 111.87 235.36 111.19 235.89 110.29 236.54 110.06 236.67 110.74 236.15 111.65 235.49 111.87 
M 235.48 110.37 236.08 110.73 236.41 111.72 236.15 112.36 235.56 112.01 235.22 111.01 235.48 110.37 
M 245.83 114.09 245.43 113.53 245.53 112.49 246.03 112.01 246.43 112.57 246.33 113.61 245.83 114.09 
M 245.96 113.85 245.72 113.2 246.1 112.22 246.71 111.89 246.94 112.54 246.57 113.52 245.96 113.85 
M 292.08 125.42 291.39 125.36 290.66 124.61 290.63 123.92 291.31 123.98 292.04 124.73 292.08 125.42 
M 291.33 123.87 291.56 124.52 291.18 125.5 290.57 125.82 290.33 125.17 290.71 124.19 291.33 123.87 
M 292.14 137.05 292.62 136.54 293.66 136.44 294.22 136.84 293.75 137.34 292.71 137.45 292.14 137.05 
M 293.45 137.69 293.03 137.14 293.1 136.1 293.58 135.6 294 136.15 293.94 137.2 293.45 137.69 
M 295.06 128.89 295.74 129.01 296.41 129.81 296.4 130.5 295.71 130.39 295.05 129.58 295.06 128.89 
M 296.23 129.07 295.98 129.72 295.06 130.22 294.38 130.07 294.63 129.42 295.55 128.92 296.23 129.07 
M 245.23 188.32 244.63 188.66 243.6 188.45 243.18 187.9 243.78 187.56 244.81 187.77 245.23 188.32 
M 244.41 188.88 244.04 188.3 244.18 187.26 244.7 186.8 245.08 187.39 244.93 188.42 244.41 188.88 
M 242.35 106.26 242.52 106.94 242.04 107.87 241.4 108.13 241.24 107.46 241.71 106.52 242.35 106.26 
M 241.09 107.06 241.78 106.97 242.66 107.53 242.85 108.2 242.16 108.29 241.29 107.73 241.09 107.06 
M 285.03 92.35 285.35 92.96 285.1 93.98 284.54 94.38 284.22 93.76 284.47 92.75 285.03 92.35 
M 284.04 93.65 284.58 93.21 285.63 93.25 286.13 93.73 285.59 94.16 284.55 94.12 284.04 93.65 
M 283.53 85.87 284.22 85.94 284.94 86.69 284.98 87.38 284.29 87.32 283.57 86.57 283.53 85.87 
M 284.78 86.03 284.5 86.66 283.56 87.11 282.89 86.93 283.17 86.29 284.12 85.85 284.78 86.03 
M 267.81 91 267.86 91.69 267.25 92.53 266.57 92.69 266.52 92 267.13 91.15 267.81 91 
M 266.4 91.78 267.07 91.62 268 92.1 268.25 92.74 267.58 92.91 266.65 92.43 266.4 91.78 
M 270.48 83.93 270.16 83.31 270.41 82.3 270.97 81.9 271.29 82.51 271.04 83.53 270.48 83.93 
M 270.22 82.3 270.8 82.67 271.1 83.68 270.81 84.31 270.23 83.93 269.93 82.93 270.22 82.3 
M 279.86 80.68 279.43 81.23 278.4 81.42 277.8 81.08 277.96 80.87 
M 279.74 80.61 279.86 80.68 
M 278.05 81.01 278.45 80.8 
M 278.86 80.74 279.68 80.94 280.08 81.51 279.46 81.82 278.44 81.57 278.05 81.01 
M 218.83 127.26 218.25 126.89 217.96 125.88 218.25 125.25 218.83 125.63 219.12 126.63 218.83 127.26 
M 217.91 126.74 218.3 126.17 219.32 125.92 219.94 126.23 219.54 126.8 218.52 127.05 217.91 126.74 
M 207.5 123.86 208.15 123.64 209.12 124.03 209.44 124.65 208.78 124.87 207.81 124.48 207.5 123.86 
M 207.68 124.17 208.35 124.03 209.26 124.55 209.49 125.2 208.81 125.34 207.9 124.82 207.68 124.17 
M 287.73 80.75 288.36 80.47 289.36 80.77 289.73 81.36 289.09 81.64 288.09 81.33 287.73 80.75 
M 288.03 80.66 288.71 80.8 289.34 81.63 289.3 82.32 288.63 82.18 287.99 81.35 288.03 80.66 
M 288.19 150.23 288.75 150.63 289.01 151.65 288.7 152.26 288.13 151.87 287.87 150.85 288.19 150.23 
M 288.92 151.88 288.36 151.49 288.1 150.47 288.41 149.85 288.98 150.25 289.24 151.26 288.92 151.88 
M 298.89 141.53 298.26 141.81 297.26 141.51 296.89 140.92 297.52 140.64 298.52 140.94 298.89 141.53 
M 298.41 141.83 297.82 141.47 297.51 140.47 297.79 139.83 298.38 140.2 298.69 141.2 298.41 141.83 
M 280.41 146.95 279.9 146.47 279.79 145.43 280.19 144.87 280.69 145.34 280.8 146.38 280.41 146.95 
M 279.71 145.37 280.34 145.66 280.76 146.61 280.56 147.28 279.94 146.98 279.51 146.03 279.71 145.37 
M 254.34 96.67 253.94 97.23 252.92 97.47 252.3 97.16 252.71 96.59 253.72 96.35 254.34 96.67 
M 254.09 96.71 253.51 97.08 252.47 96.93 252.02 96.4 252.61 96.03 253.64 96.18 254.09 96.71 
M 246.21 99.8 246.77 99.38 247.81 99.45 248.3 99.94 247.75 100.36 246.71 100.29 246.21 99.8 
M 247.47 100.64 247.09 100.06 247.23 99.02 247.74 98.56 248.13 99.14 247.99 100.18 247.47 100.64 
M 260.39 103.16 260.7 102.54 261.67 102.15 262.33 102.37 262.02 102.98 261.05 103.38 260.39 103.16 
M 260.56 102.73 261.23 102.55 262.17 103 262.45 103.63 261.78 103.82 260.84 103.36 260.56 102.73 
M 222.09 118.9 222.56 118.39 223.6 118.26 224.17 118.65 223.71 119.16 222.67 119.28 222.09 118.9 
M 222.89 119.53 222.89 118.84 223.57 118.05 224.26 117.95 224.26 118.64 223.58 119.43 222.89 119.53 
M 215.88 115.08 216.54 114.89 217.49 115.33 217.78 115.96 217.11 116.15 216.16 115.71 215.88 115.08 
M 216.89 114.72 217.05 115.4 216.56 116.32 215.92 116.58 215.76 115.9 216.25 114.98 216.89 114.72 
M 219.08 109.27 219.59 108.81 220.64 108.8 221.17 109.25 220.65 109.7 219.6 109.72 219.08 109.27 
M 220.07 110.05 219.9 109.38 220.37 108.45 221.01 108.18 221.18 108.86 220.71 109.79 220.07 110.05 
M 304.08 132.2 303.93 132.88 303.09 133.5 302.4 133.45 302.55 132.77 303.39 132.15 304.08 132.2 
M 302.48 133.08 303.04 132.67 304.08 132.75 304.57 133.24 304.01 133.65 302.97 133.57 302.48 133.08 
M 297.27 119.58 297.16 118.9 297.71 118.01 298.37 117.8 298.48 118.49 297.93 119.38 297.27 119.58 
M 297.03 118.62 297.71 118.47 298.62 118.97 298.87 119.62 298.19 119.77 297.27 119.27 297.03 118.62 
M 300.71 125.45 301.12 124.9 302.15 124.68 302.75 125.02 302.33 125.57 301.31 125.78 300.71 125.45 
M 302.45 124.9 301.94 125.36 300.9 125.4 300.36 124.96 300.87 124.49 301.92 124.46 302.45 124.9 
M 149.68 143.58 150.05 143 151.05 142.7 151.69 142.98 151.31 143.57 150.31 143.87 149.68 143.58 
M 150.96 142.54 150.93 143.23 150.21 143.99 149.52 144.05 149.55 143.36 150.27 142.6 150.96 142.54 
M 278.91 174.02 278.41 173.55 278.29 172.51 278.69 171.94 279.19 172.41 279.31 173.45 278.91 174.02 
M 279.55 173.26 278.86 173.22 278.1 172.5 278.03 171.82 278.72 171.85 279.48 172.57 279.55 173.26 
M 217.74 120.36 217.21 120.8 216.16 120.78 215.65 120.31 216.18 119.87 217.23 119.9 217.74 120.36 
M 215.94 120.6 216.49 120.18 217.54 120.26 218.03 120.75 217.47 121.16 216.43 121.09 215.94 120.6 
M 225.33 111.57 225.29 110.88 225.93 110.05 226.6 109.91 226.65 110.6 226.01 111.43 225.33 111.57 
M 226.33 111.45 225.84 110.96 225.77 109.92 226.19 109.37 226.68 109.86 226.75 110.9 226.33 111.45 
M 306.26 137.33 306.92 137.11 307.89 137.51 308.2 138.13 307.54 138.35 306.57 137.95 306.26 137.33 
M 306.51 137.38 307.2 137.48 307.88 138.27 307.88 138.96 307.19 138.86 306.51 138.07 306.51 137.38 
M 307.73 122.17 308.41 122.27 309.11 123.05 309.11 123.74 308.43 123.65 307.73 122.86 307.73 122.17 
M 308.15 123.71 308.18 123.01 308.89 122.25 309.58 122.19 309.55 122.88 308.83 123.64 308.15 123.71 
M 284.55 177.47 284.34 176.81 284.76 175.85 285.38 175.55 285.59 176.21 285.18 177.17 284.55 177.47 
M 285.56 177.05 284.93 176.76 284.5 175.8 284.69 175.14 285.32 175.43 285.75 176.38 285.56 177.05 
M 280.34 157.04 279.72 157.35 278.7 157.09 278.31 156.52 278.93 156.21 279.94 156.47 280.34 157.04 
M 280.09 156.55 279.52 156.94 278.48 156.82 278.01 156.31 278.58 155.92 279.62 156.04 280.09 156.55 
M 290.33 159.54 289.79 159.97 288.74 159.92 288.24 159.45 288.78 159.02 289.83 159.06 290.33 159.54 
M 289.92 159.01 289.52 159.58 288.51 159.84 287.89 159.53 288.28 158.96 289.3 158.7 289.92 159.01 
M 276.81 198.12 277.29 197.61 278.33 197.5 278.9 197.9 278.42 198.4 277.38 198.51 276.81 198.12 
M 277.68 198.78 277.62 198.1 278.23 197.25 278.91 197.09 278.97 197.78 278.35 198.63 277.68 198.78 
M 273.87 190.35 274.01 189.67 274.85 189.05 275.54 189.09 275.39 189.77 274.56 190.4 273.87 190.35 
M 274.35 189.01 274.83 189.51 274.88 190.55 274.45 191.1 273.98 190.59 273.93 189.55 274.35 189.01 
M 288.21 89.35 288.66 88.83 289.7 88.69 290.28 89.07 289.82 89.59 288.79 89.73 288.21 89.35 
M 288.45 89.23 289.1 89 290.07 89.39 290.39 90 289.74 90.23 288.76 89.84 288.45 89.23 
M 291.03 101.66 291.66 101.37 292.66 101.65 293.04 102.23 292.42 102.53 291.41 102.24 291.03 101.66 
M 292.79 101.69 292.23 102.1 291.19 102.03 290.7 101.54 291.26 101.12 292.3 101.2 292.79 101.69 
M 292.63 95.89 291.97 95.69 291.4 94.81 291.5 94.13 292.17 94.32 292.73 95.2 292.63 95.89 
M 292.69 94.5 292.31 95.08 291.3 95.37 290.67 95.08 291.05 94.5 292.06 94.21 292.69 94.5 
M 293.07 110.24 292.42 110.02 291.89 109.12 292.01 108.44 292.67 108.66 293.2 109.56 293.07 110.24 
M 292.07 108.7 292.63 109.11 292.87 110.12 292.55 110.74 291.99 110.33 291.75 109.31 292.07 108.7 
M 285.57 107.82 286.05 107.33 287.09 107.24 287.65 107.65 287.17 108.14 286.13 108.23 285.57 107.82 
M 286.56 108.53 286.39 107.86 286.87 106.93 287.51 106.67 287.67 107.34 287.2 108.27 286.56 108.53 
M 299.01 99.42 298.92 98.73 299.48 97.86 300.15 97.66 300.24 98.35 299.68 99.23 299.01 99.42 
M 298.87 98.18 299.55 98.29 300.22 99.1 300.2 99.79 299.52 99.68 298.86 98.87 298.87 98.18 
M 298.37 111 298.31 111.69 297.55 112.41 296.86 112.45 296.92 111.76 297.68 111.03 298.37 111 
M 296.83 111.58 297.52 111.49 298.39 112.07 298.57 112.74 297.89 112.83 297.02 112.25 296.83 111.58 
M 278.47 182.9 278.29 183.57 277.42 184.15 276.73 184.06 276.91 183.39 277.79 182.81 278.47 182.9 
M 277.55 182.69 277.8 183.33 277.45 184.32 276.85 184.66 276.6 184.01 276.95 183.03 277.55 182.69 
M 240.2 95.23 240.17 95.92 239.46 96.68 238.77 96.76 238.8 96.06 239.51 95.3 240.2 95.23 
M 238.82 96.44 239.25 95.89 240.28 95.7 240.88 96.05 240.45 96.59 239.42 96.78 238.82 96.44 
M 234.47 100.52 233.78 100.48 233.03 99.75 232.98 99.06 233.67 99.1 234.42 99.83 234.47 100.52 
M 234.52 99.82 233.85 100.01 232.91 99.56 232.63 98.92 233.3 98.74 234.24 99.19 234.52 99.82 
M 262.47 94.55 261.98 95.03 260.93 95.09 260.38 94.67 260.88 94.19 261.93 94.13 262.47 94.55 
M 260.71 94.26 261.4 94.36 262.08 95.15 262.08 95.84 261.39 95.74 260.71 94.95 260.71 94.26 
M 291.39 117 291.81 117.55 291.73 118.6 291.24 119.08 290.83 118.53 290.9 117.49 291.39 117 
M 290.63 117.63 291.31 117.79 291.92 118.64 291.85 119.33 291.18 119.17 290.57 118.32 290.63 117.63 
M 302.97 107.19 303.09 106.51 303.91 105.86 304.6 105.88 304.47 106.56 303.66 107.22 302.97 107.19 
M 303.07 106.18 303.75 106.29 304.43 107.08 304.43 107.77 303.74 107.67 303.06 106.88 303.07 106.18 
M 288.12 183.94 287.99 183.26 288.53 182.36 289.19 182.14 289.31 182.82 288.77 183.72 288.12 183.94 
M 289.24 183.58 288.61 183.29 288.18 182.33 288.38 181.67 289.01 181.96 289.44 182.92 289.24 183.58 
M 282.14 186.49 282.73 186.13 283.76 186.3 284.2 186.83 283.61 187.19 282.58 187.02 282.14 186.49 
M 282.67 186.04 283.25 186.42 283.53 187.43 283.23 188.05 282.65 187.67 282.38 186.66 282.67 186.04 
M 293.97 187.72 293.4 188.11 292.36 187.99 291.89 187.48 292.46 187.09 293.5 187.21 293.97 187.72 
M 292.15 187.42 292.84 187.37 293.68 187.99 293.83 188.66 293.14 188.72 292.3 188.09 292.15 187.42 
M 229.68 107.18 230.11 106.64 231.14 106.44 231.73 106.79 231.3 107.33 230.27 107.53 229.68 107.18 
M 231.32 107.49 230.68 107.23 230.2 106.31 230.36 105.63 231 105.89 231.48 106.82 231.32 107.49 
M 285.39 199.32 284.76 199.6 283.76 199.31 283.39 198.72 284.02 198.44 285.02 198.74 285.39 199.32 
M 283.67 198.67 284.36 198.77 285.04 199.56 285.04 200.25 284.36 200.16 283.67 199.37 283.67 198.67 
M 309.56 100.86 309.08 101.36 308.04 101.45 307.48 101.05 307.96 100.55 309 100.46 309.56 100.86 
M 309.08 101.52 308.47 101.2 308.07 100.23 308.29 99.58 308.91 99.89 309.31 100.86 309.08 101.52 
M 298.05 91.99 298.64 91.63 299.67 91.8 300.12 92.33 299.53 92.69 298.5 92.52 298.05 91.99 
M 298.52 92.72 298.84 92.11 299.81 91.72 300.46 91.95 300.14 92.57 299.17 92.95 298.52 92.72 
M 212.7 117.06 212.02 117.18 211.12 116.64 210.9 115.99 211.58 115.87 212.48 116.4 212.7 117.06 
M 212.55 116.26 212 116.68 210.96 116.61 210.46 116.12 211.02 115.7 212.06 115.77 212.55 116.26 
M 311.61 93.86 311.23 94.43 310.22 94.71 309.59 94.41 309.98 93.83 310.99 93.56 311.61 93.86 
M 311.4 94.15 310.74 94.35 309.78 93.92 309.49 93.29 310.15 93.09 311.11 93.52 311.4 94.15 
M 305.03 87.6 305.71 87.72 306.37 88.54 306.34 89.23 305.66 89.11 305.01 88.29 305.03 87.6 
M 306.46 88.23 305.87 88.59 304.84 88.41 304.4 87.87 304.99 87.52 306.02 87.69 306.46 88.23 
M 294.48 86.44 294.18 85.82 294.44 84.81 295.01 84.42 295.32 85.04 295.05 86.05 294.48 86.44 
M 295.14 86.12 294.63 85.65 294.51 84.61 294.9 84.04 295.41 84.51 295.53 85.55 295.14 86.12 
M 294.86 79.74 294.29 79.35 294.04 78.39 
M 295.06 78.72 295.16 79.12 294.86 79.74 
M 295.01 78.7 294.8 78.87 293.75 78.83 293.25 78.35 293.47 78.18 
M 236.93 90.68 236.28 90.44 235.78 89.53 235.92 88.85 236.57 89.09 237.08 90 236.93 90.68 
M 237.18 90.02 236.49 90.01 235.71 89.31 235.63 88.62 236.32 88.64 237.1 89.34 237.18 90.02 
M 230.59 89.67 230.9 90.28 230.66 91.3 230.09 91.7 229.78 91.09 230.02 90.07 230.59 89.67 
M 230.21 89.9 230.53 90.52 230.28 91.53 229.71 91.93 229.4 91.32 229.65 90.3 230.21 89.9 
M 244.39 86.51 244.87 86.02 245.92 85.94 246.47 86.35 245.98 86.84 244.94 86.92 244.39 86.51 
M 246.22 86.55 245.53 86.66 244.64 86.11 244.44 85.45 245.12 85.34 246.01 85.89 246.22 86.55 
M 247.97 92.72 248.24 93.36 247.91 94.36 247.32 94.71 247.05 94.08 247.38 93.08 247.97 92.72 
M 246.91 94.03 247.44 93.58 248.48 93.58 249 94.04 248.48 94.49 247.43 94.48 246.91 94.03 
M 229.27 99.97 228.79 99.47 228.76 98.42 229.19 97.88 229.66 98.39 229.7 99.43 229.27 99.97 
M 229.55 98.2 229.48 98.88 228.72 99.6 228.02 99.63 228.09 98.94 228.86 98.23 229.55 98.2 
M 320.23 91.45 320.21 92.15 319.51 92.92 318.82 93 318.84 92.31 319.54 91.54 320.23 91.45 
M 319.64 91.44 319.75 92.12 319.21 93.01 318.55 93.22 318.43 92.54 318.98 91.65 319.64 91.44 
M 314.9 104.61 314.38 105.07 313.33 105.09 312.8 104.64 313.32 104.18 314.37 104.17 314.9 104.61 
M 314.64 104.5 314.02 104.81 313 104.56 312.61 103.99 313.23 103.68 314.24 103.93 314.64 104.5 
M 173.31 134.51 172.76 134.93 171.72 134.89 171.22 134.41 171.76 133.98 172.8 134.03 173.31 134.51 
M 173.05 134.54 172.38 134.68 171.46 134.18 171.22 133.53 171.9 133.38 172.82 133.89 173.05 134.54 
M 164.22 135.86 163.55 135.68 162.96 134.82 163.04 134.13 163.71 134.31 164.3 135.17 164.22 135.86 
M 164.43 134.93 163.79 135.19 162.79 134.86 162.44 134.26 163.08 134 164.07 134.33 164.43 134.93 
M 224.26 195.43 224.02 195.48 
M 223.63 195.57 222.96 196.05 222.85 195.75 
M 223.93 87.41 223.24 87.38 222.47 86.67 222.4 85.99 223.09 86.01 223.86 86.72 223.93 87.41 
M 222.7 87.34 222.91 86.69 223.81 86.15 224.49 86.26 224.28 86.92 223.38 87.46 222.7 87.34 
M 234.17 82.96 233.85 83.58 232.89 83.98 232.23 83.76 232.54 83.14 233.51 82.74 234.17 82.96 
M 232.75 84.02 232.95 83.35 233.82 82.79 234.51 82.88 234.32 83.55 233.44 84.11 232.75 84.02 
M 222.2 97.79 222.75 98.21 222.97 99.23 222.63 99.84 222.08 99.42 221.87 98.39 222.2 97.79 
M 221.64 98.99 222.24 98.64 223.26 98.83 223.69 99.37 223.1 99.72 222.07 99.53 221.64 98.99 
M 240.02 82.75 240.45 83.29 240.41 84.34 239.93 84.84 239.5 84.3 239.54 83.26 240.02 82.75 
M 240.21 84.56 239.81 83.99 239.93 82.95 240.43 82.48 240.83 83.05 240.71 84.09 240.21 84.56 
M 214.85 106.27 214.96 106.95 214.39 107.83 213.73 108.03 213.63 107.35 214.19 106.46 214.85 106.27 
M 214.96 107.59 214.29 107.4 213.72 106.52 213.81 105.84 214.48 106.03 215.05 106.9 214.96 107.59 
M 224.37 105.29 224.24 104.61 224.77 103.71 225.43 103.49 225.55 104.17 225.02 105.07 224.37 105.29 
M 225.48 104.94 224.85 104.64 224.44 103.68 224.64 103.02 225.27 103.32 225.69 104.28 225.48 104.94 
M 215.27 99.73 214.85 99.18 214.91 98.13 215.39 97.64 215.81 98.19 215.75 99.23 215.27 99.73 
M 215.49 97.9 215.56 98.59 214.96 99.45 214.29 99.61 214.22 98.92 214.82 98.07 215.49 97.9 
M 219.61 94.24 219.05 93.83 218.82 92.81 219.15 92.2 219.71 92.61 219.94 93.63 219.61 94.24 
M 218.65 93.53 219.17 93.08 220.22 93.09 220.74 93.54 220.21 93.99 219.16 93.98 218.65 93.53 
M 307.64 115.05 308.23 115.42 308.52 116.42 308.24 117.05 307.66 116.68 307.36 115.68 307.64 115.05 
M 308.73 115.98 308.1 116.25 307.1 115.93 306.74 115.34 307.38 115.07 308.37 115.39 308.73 115.98 
M 161.65 128.51 162.32 128.34 163.25 128.82 163.51 129.46 162.84 129.62 161.91 129.15 161.65 128.51 
M 162.68 128.19 162.81 128.87 162.28 129.78 161.62 130 161.49 129.32 162.03 128.41 162.68 128.19 
M 156.58 129.51 156.4 130.18 155.53 130.76 154.84 130.68 155.02 130.01 155.89 129.43 156.58 129.51 
M 156.49 129.94 155.88 130.27 154.86 130.05 154.45 129.5 155.06 129.17 156.08 129.39 156.49 129.94 
M 170.45 128.19 170.31 127.51 170.83 126.6 171.48 126.37 171.62 127.05 171.1 127.96 170.45 128.19 
M 170.44 127.88 170.72 127.24 171.66 126.79 172.33 126.98 172.05 127.61 171.11 128.06 170.44 127.88 
M 253.72 89.9 253.67 89.21 254.29 88.37 254.96 88.21 255.02 88.9 254.4 89.75 253.72 89.9 
M 255.13 88.91 254.52 89.24 253.5 89.01 253.08 88.45 253.69 88.13 254.71 88.35 255.13 88.91 
M 305.94 79.17 306.6 78.94 307.55 79.32 
M 307.67 79.53 307.89 79.94 307.23 80.17 306.26 79.78 305.94 79.17 
M 306.12 79.59 306.77 79.35 307.75 79.72 308.07 80.33 307.42 80.57 306.45 80.2 306.12 79.59 
M 263 83.4 262.34 83.62 261.38 83.21 261.07 82.59 261.73 82.38 262.69 82.78 263 83.4 
M 261.34 83.4 261.81 82.88 262.85 82.76 263.42 83.14 262.96 83.66 261.92 83.78 261.34 83.4 
M 251.23 83.13 251.61 82.55 252.61 82.27 253.24 82.56 252.86 83.14 251.85 83.43 251.23 83.13 
M 252.89 83.3 252.23 83.1 251.66 82.22 251.76 81.53 252.43 81.73 252.99 82.61 252.89 83.3 
M 299.44 81.65 299.89 81.12 300.93 80.96 301.51 81.33 301.06 81.86 300.03 82.02 299.44 81.65 
M 301.19 81.13 300.7 81.62 299.65 81.68 299.1 81.26 299.6 80.77 300.64 80.71 301.19 81.13 
M 302.47 190.19 302.98 190.67 303.08 191.71 302.68 192.27 302.18 191.8 302.07 190.76 302.47 190.19 
M 303.15 191.78 302.53 191.48 302.12 190.52 302.33 189.86 302.96 190.16 303.36 191.12 303.15 191.78 
M 303.74 186.15 303.4 185.55 303.6 184.52 304.14 184.1 304.48 184.7 304.28 185.72 303.74 186.15 
M 304.72 185.29 304.03 185.36 303.18 184.76 303.01 184.08 303.7 184.02 304.55 184.62 304.72 185.29 
M 163.24 120.51 163.4 121.19 162.92 122.12 162.28 122.37 162.11 121.7 162.59 120.77 163.24 120.51 
M 162.66 122.23 162.53 121.55 163.06 120.65 163.72 120.43 163.84 121.11 163.31 122.01 162.66 122.23 
M 156.75 123.62 156.1 123.86 155.12 123.49 154.79 122.88 155.44 122.64 156.42 123.01 156.75 123.62 
M 154.99 123.39 155.6 123.07 156.62 123.3 157.03 123.86 156.42 124.18 155.4 123.95 154.99 123.39 
M 312.94 197.22 313 197.91 312.39 198.76 311.72 198.92 311.65 198.23 312.26 197.38 312.94 197.22 
M 313.02 197.68 312.55 198.19 311.51 198.31 310.94 197.92 311.41 197.41 312.45 197.29 313.02 197.68 
M 206.36 115.23 205.68 115.32 204.8 114.75 204.61 114.09 205.3 113.99 206.17 114.57 206.36 115.23 
M 204.82 115.1 205.26 114.56 206.28 114.37 206.88 114.72 206.45 115.26 205.42 115.45 204.82 115.1 
M 206.55 107.37 206.01 106.93 205.83 105.9 206.19 105.31 206.72 105.74 206.9 106.77 206.55 107.37 
M 205.91 105.69 206.46 106.1 206.68 107.13 206.34 107.73 205.79 107.31 205.57 106.29 205.91 105.69 
M 169.84 118.55 170.01 119.22 169.55 120.16 168.92 120.43 168.74 119.76 169.2 118.82 169.84 118.55 
M 168.58 119.43 169.26 119.27 170.18 119.76 170.43 120.4 169.76 120.56 168.83 120.07 168.58 119.43 
M 151.93 136.17 151.44 135.68 151.36 134.64 151.77 134.08 152.26 134.57 152.34 135.61 151.93 136.17 
M 151.21 135.6 151.61 135.04 152.63 134.8 153.25 135.12 152.84 135.68 151.82 135.92 151.21 135.6 
M 207.66 95.27 208.09 95.82 208.03 96.86 207.55 97.36 207.12 96.81 207.18 95.77 207.66 95.27 
M 206.87 96.62 207.4 96.18 208.44 96.19 208.96 96.64 208.44 97.09 207.39 97.08 206.87 96.62 
M 210.2 88.2 210.3 88.89 209.73 89.77 209.07 89.96 208.97 89.28 209.53 88.4 210.2 88.2 
M 210.35 89.42 209.67 89.33 208.97 88.55 208.96 87.86 209.64 87.95 210.34 88.73 210.35 89.42 
M 177.42 122.36 177.93 122.82 178.05 123.86 177.66 124.43 177.15 123.97 177.03 122.93 177.42 122.36 
M 177.95 122.72 177.79 123.39 176.93 123.99 176.24 123.92 176.41 123.25 177.26 122.65 177.95 122.72 
M 181.77 129.3 181.71 128.61 182.33 127.76 183 127.61 183.06 128.29 182.44 129.14 181.77 129.3 
M 181.66 128.78 182.17 128.32 183.22 128.3 183.75 128.75 183.23 129.21 182.19 129.22 181.66 128.78 
M 266.39 200.86 265.79 201.2 264.76 200.98 264.34 200.43 264.95 200.1 265.97 200.31 266.39 200.86 
M 265.71 199.92 265.61 200.61 264.83 201.31 264.14 201.31 264.23 200.63 265.01 199.93 265.71 199.92 
M 183.3 114.06 182.62 113.96 181.93 113.17 181.93 112.48 182.62 112.58 183.3 113.37 183.3 114.06 
M 182.4 112.5 182.78 113.08 182.66 114.11 182.14 114.58 181.76 114.01 181.88 112.97 182.4 112.5 
M 185.93 119.85 186.13 120.51 185.69 121.46 185.06 121.75 184.87 121.09 185.3 120.14 185.93 119.85 
M 184.7 120.84 185.35 120.6 186.33 120.96 186.66 121.57 186.02 121.81 185.03 121.44 184.7 120.84 
M 317.23 99.39 317.8 99 318.84 99.12 319.31 99.62 318.74 100.02 317.7 99.9 317.23 99.39 
M 319.04 99.71 318.35 99.75 317.52 99.11 317.38 98.43 318.07 98.39 318.9 99.03 319.04 99.71 
M 313.72 111.61 313.06 111.41 312.5 110.52 312.61 109.84 313.27 110.04 313.82 110.93 313.72 111.61 
M 312.47 110.34 313.15 110.47 313.79 111.3 313.75 111.99 313.07 111.85 312.43 111.03 312.47 110.34 
M 324.15 99.16 324.23 98.47 324.99 97.76 325.69 97.74 325.61 98.43 324.84 99.14 324.15 99.16 
M 324.62 97.71 325.06 98.24 325.04 99.29 324.58 99.8 324.13 99.27 324.16 98.22 324.62 97.71 
M 225.74 82.45 225.2 82.01 225.02 80.98 225.36 80.41 
M 225.4 80.41 225.91 80.82 226.09 81.85 225.74 82.45 
M 226.05 82.04 225.48 81.65 225.2 80.65 225.31 80.41 
M 226 80.36 226.35 81.41 226.05 82.04 
M 332.21 101.75 331.86 101.15 332.04 100.12 332.58 99.69 332.94 100.29 332.75 101.32 332.21 101.75 
M 333.01 101.23 332.37 100.97 331.89 100.04 332.06 99.37 332.7 99.63 333.17 100.56 333.01 101.23 
M 327.1 194.28 326.8 193.66 327.07 192.65 327.65 192.26 327.95 192.88 327.67 193.89 327.1 194.28 
M 327.27 192.48 327.57 193.11 327.28 194.11 326.7 194.49 326.41 193.86 326.69 192.86 327.27 192.48 
M 326.18 105.42 326.45 104.78 327.39 104.32 328.06 104.5 327.79 105.13 326.85 105.59 326.18 105.42 
M 327.91 105.08 327.22 105.19 326.34 104.63 326.14 103.97 326.82 103.86 327.7 104.42 327.91 105.08 
M 319.96 104.73 320 105.42 319.36 106.25 318.68 106.38 318.64 105.69 319.28 104.87 319.96 104.73 
M 319.1 106.32 319.08 105.63 319.74 104.82 320.42 104.7 320.44 105.4 319.78 106.21 319.1 106.32 
M 324.32 109.48 324.13 110.14 323.25 110.7 322.56 110.61 322.76 109.94 323.64 109.38 324.32 109.48 
M 322.86 110.59 323.2 109.98 324.18 109.62 324.83 109.87 324.49 110.47 323.51 110.83 322.86 110.59 
M 319.74 115.03 320.09 115.62 319.9 116.65 319.36 117.08 319.01 116.49 319.2 115.46 319.74 115.03 
M 319.46 115.26 319.74 115.9 319.43 116.9 318.85 117.26 318.57 116.63 318.88 115.63 319.46 115.26 
M 336.51 109.49 335.82 109.58 334.95 109.02 334.75 108.35 335.44 108.26 336.32 108.82 336.51 109.49 
M 336.29 109.36 335.63 109.17 335.06 108.29 335.15 107.61 335.82 107.8 336.39 108.68 336.29 109.36 
M 343.14 106.81 342.57 107.2 341.53 107.09 341.06 106.58 341.63 106.19 342.67 106.3 343.14 106.81 
M 342.78 106.28 342.33 106.8 341.3 106.95 340.71 106.58 341.16 106.05 342.2 105.9 342.78 106.28 
M 201.98 95.25 201.32 95.45 200.36 95.03 200.07 94.4 200.73 94.2 201.69 94.62 201.98 95.25 
M 201.44 94.14 201.28 94.82 200.43 95.42 199.74 95.36 199.9 94.69 200.75 94.08 201.44 94.14 
M 201.52 100.37 202.11 100.01 203.14 100.19 203.58 100.72 202.99 101.08 201.96 100.91 201.52 100.37 
M 203.11 101.11 202.5 100.79 202.11 99.82 202.34 99.17 202.95 99.48 203.34 100.46 203.11 101.11 
M 202.76 88.42 203.45 88.33 204.32 88.91 204.51 89.58 203.82 89.67 202.95 89.09 202.76 88.42 
M 203.51 88.22 203.82 88.83 203.57 89.85 203.01 90.25 202.69 89.63 202.94 88.61 203.51 88.22 
M 345.69 118.79 345.58 118.1 346.14 117.21 346.8 117.01 346.91 117.69 346.35 118.58 345.69 118.79 
M 345.53 118.26 346.03 117.77 347.07 117.7 347.62 118.12 347.13 118.61 346.09 118.68 345.53 118.26 
M 338.67 116.34 338.34 116.95 337.36 117.32 336.71 117.08 337.04 116.47 338.02 116.1 338.67 116.34 
M 337.88 117.48 337.52 116.89 337.69 115.86 338.22 115.42 338.58 116.01 338.41 117.04 337.88 117.48 
M 296.17 103 296.82 102.77 297.8 103.15 298.12 103.77 297.46 104 296.49 103.61 296.17 103 
M 297.5 104.09 297.02 103.6 296.96 102.56 297.38 102.01 297.86 102.5 297.92 103.55 297.5 104.09 
M 190.82 131.5 191.5 131.41 192.38 131.98 192.56 132.65 191.88 132.74 191 132.16 190.82 131.5 
M 192.49 132.05 191.84 132.28 190.86 131.9 190.54 131.29 191.19 131.06 192.16 131.44 192.49 132.05 
M 192.56 125.34 192.97 124.78 193.99 124.54 194.6 124.86 194.2 125.42 193.18 125.66 192.56 125.34 
M 194.36 125.26 193.68 125.34 192.82 124.74 192.64 124.07 193.33 123.99 194.19 124.59 194.36 125.26 
M 148.94 120.55 149.58 120.81 150.05 121.74 149.88 122.42 149.24 122.15 148.77 121.22 148.94 120.55 
M 149.89 120.84 149.66 121.5 148.76 122.02 148.08 121.89 148.3 121.24 149.21 120.71 149.89 120.84 
M 304.97 178.83 304.87 179.52 304.08 180.2 303.39 180.2 303.49 179.52 304.28 178.83 304.97 178.83 
M 304.11 178.72 304.38 179.36 304.05 180.36 303.46 180.71 303.19 180.07 303.52 179.08 304.11 178.72 
M 316.43 126.28 316.94 125.81 317.99 125.79 318.52 126.23 318.01 126.69 316.96 126.72 316.43 126.28 
M 317.95 125.62 317.73 126.27 316.82 126.79 316.14 126.66 316.37 126.01 317.27 125.49 317.95 125.62 
M 327.21 121.04 327.3 120.36 328.09 119.67 328.78 119.67 328.69 120.35 327.9 121.04 327.21 121.04 
M 327.57 121.03 327.74 120.36 328.6 119.76 329.29 119.83 329.12 120.5 328.26 121.1 327.57 121.03 
M 324.09 126.05 323.52 125.65 323.28 124.63 323.6 124.02 324.16 124.42 324.41 125.44 324.09 126.05 
M 324.1 124.28 324.09 124.97 323.39 125.75 322.7 125.84 322.71 125.15 323.41 124.37 324.1 124.28 
M 326.94 115.36 326.69 116 325.76 116.49 325.09 116.33 325.34 115.69 326.26 115.2 326.94 115.36 
M 326.62 116.37 325.98 116.1 325.52 115.16 325.7 114.49 326.33 114.76 326.79 115.7 326.62 116.37 
M 191.74 120.22 191.55 119.55 191.99 118.6 192.62 118.32 192.81 118.99 192.37 119.94 191.74 120.22 
M 191.67 119.88 191.93 119.24 192.87 118.77 193.54 118.94 193.27 119.58 192.34 120.05 191.67 119.88 
M 186.39 127.15 187.08 127.12 187.9 127.77 188.03 128.45 187.34 128.48 186.52 127.83 186.39 127.15 
M 186.86 127.09 187.34 127.59 187.39 128.63 186.96 129.18 186.48 128.67 186.43 127.63 186.86 127.09 
M 200.89 126.09 200.54 125.49 200.73 124.46 201.27 124.03 201.62 124.63 201.43 125.66 200.89 126.09 
M 200.84 124.3 201.24 124.86 201.14 125.91 200.64 126.38 200.24 125.82 200.34 124.78 200.84 124.3 
M 195.37 113.91 196.06 113.8 196.94 114.36 197.15 115.02 196.46 115.13 195.58 114.57 195.37 113.91 
M 196.08 115.24 196.02 114.55 196.64 113.71 197.32 113.56 197.37 114.25 196.75 115.09 196.08 115.24 
M 299.46 173.63 298.88 173.24 298.6 172.23 298.9 171.61 299.47 171.99 299.75 173 299.46 173.63 
M 298.58 173.15 298.93 172.55 299.92 172.22 300.57 172.48 300.22 173.08 299.22 173.41 298.58 173.15 
M 141.1 119.77 140.97 120.45 140.14 121.09 139.45 121.05 139.58 120.37 140.41 119.73 141.1 119.77 
M 140.19 119.62 140.47 120.25 140.16 121.25 139.58 121.62 139.3 120.99 139.6 119.99 140.19 119.62 
M 145.43 131.42 145.21 130.76 145.61 129.8 146.23 129.49 146.44 130.15 146.04 131.11 145.43 131.42 
M 146.52 130.85 145.84 130.71 145.21 129.87 145.25 129.18 145.93 129.32 146.56 130.16 146.52 130.85 
M 141.16 126.24 140.77 126.81 139.76 127.07 139.14 126.77 139.53 126.2 140.54 125.93 141.16 126.24 
M 139.54 125.99 140.18 126.25 140.66 127.19 140.49 127.86 139.85 127.59 139.37 126.66 139.54 125.99 
M 186.91 112.77 186.58 112.16 186.82 111.14 187.37 110.73 187.7 111.34 187.47 112.36 186.91 112.77 
M 187.55 111.07 187.39 111.74 186.54 112.35 185.85 112.29 186.01 111.62 186.86 111 187.55 111.07 
M 192.95 106.68 193.64 106.74 194.37 107.49 194.4 108.18 193.71 108.12 192.99 107.37 192.95 106.68 
M 193.49 106.66 193.85 107.25 193.67 108.28 193.13 108.72 192.78 108.13 192.96 107.09 193.49 106.66 
M 329.45 111.09 329.82 110.5 330.82 110.21 331.45 110.49 331.08 111.07 330.08 111.37 329.45 111.09 
M 329.67 110.63 330.36 110.56 331.22 111.16 331.38 111.83 330.7 111.9 329.84 111.3 329.67 110.63 
M 331.46 127.03 330.93 126.59 330.75 125.56 331.11 124.96 331.65 125.4 331.82 126.44 331.46 127.03 
M 332.07 126.14 331.39 126.23 330.51 125.65 330.33 124.98 331.02 124.89 331.89 125.47 332.07 126.14 
M 306.44 172.64 307.1 172.85 307.65 173.74 307.54 174.42 306.88 174.22 306.33 173.33 306.44 172.64 
M 306.44 172.96 307.05 173.29 307.42 174.26 307.18 174.91 306.57 174.59 306.2 173.61 306.44 172.96 
M 136.46 133.68 136.8 134.28 136.6 135.3 136.05 135.73 135.71 135.13 135.91 134.1 136.46 133.68 
M 136.9 135.17 136.24 134.95 135.7 134.06 135.82 133.38 136.48 133.59 137.02 134.49 136.9 135.17 
M 136.1 142.11 136.35 142.06 136.95 142.4 136.41 142.97 
M 200.24 119.44 200.73 118.95 201.78 118.88 202.33 119.3 201.84 119.78 200.8 119.86 200.24 119.44 
M 201.59 120.1 201.15 119.58 201.16 118.53 201.62 118.01 202.06 118.54 202.05 119.59 201.59 120.1 
M 132.1 123.89 132.53 123.35 133.56 123.16 134.16 123.51 133.73 124.05 132.7 124.24 132.1 123.89 
M 132.33 123.68 133 123.49 133.95 123.92 134.23 124.55 133.57 124.75 132.62 124.31 132.33 123.68 
M 129 130.04 129.17 130 130.12 130.44 130.4 131.07 129.77 131.25 
M 130.07 130.13 129.69 130.71 129.46 130.77 
M 128.95 129.97 129.44 129.83 130.07 130.13 
M 349.67 128.83 349.2 128.32 349.17 127.27 349.61 126.74 350.08 127.25 350.11 128.29 349.67 128.83 
M 350.41 127.57 349.83 127.95 348.79 127.8 348.34 127.28 348.92 126.9 349.96 127.05 350.41 127.57 
M 337.63 123.67 338.17 123.23 339.22 123.26 339.73 123.73 339.19 124.17 338.14 124.13 337.63 123.67 
M 338.68 124.5 338.47 123.84 338.88 122.87 339.5 122.57 339.71 123.23 339.3 124.19 338.68 124.5 
M 355.83 123.9 355.39 124.43 354.35 124.6 353.76 124.24 354.2 123.71 355.24 123.54 355.83 123.9 
M 354.03 123.87 354.72 123.83 355.54 124.48 355.67 125.16 354.98 125.19 354.16 124.54 354.03 123.87 
M 186.66 102.56 185.97 102.51 185.23 101.77 185.19 101.08 185.88 101.13 186.61 101.87 186.66 102.56 
M 186.22 102.56 185.78 102.03 185.8 100.98 186.26 100.47 186.7 101 186.69 102.04 186.22 102.56 
M 341.46 128.94 342.15 129 342.87 129.75 342.91 130.44 342.22 130.38 341.5 129.63 341.46 128.94 
M 341.54 130.16 341.95 129.6 342.97 129.36 343.58 129.69 343.17 130.25 342.15 130.48 341.54 130.16 
M 151.4 197.82 151.45 197.13 152.04 196.54 
M 152.84 196.9 152.09 197.77 151.4 197.82 
M 151.59 196.51 152.19 196.84 152.57 197.81 152.33 198.46 151.72 198.14 151.35 197.16 151.59 196.51 
M 307.42 166.06 307.73 166.67 307.48 167.69 306.91 168.09 306.6 167.47 306.85 166.45 307.42 166.06 
M 307.94 166.91 307.34 167.25 306.31 167.04 305.89 166.49 306.5 166.15 307.52 166.36 307.94 166.91 
M 340.63 181.96 340.9 181.32 341.83 180.86 342.5 181.03 342.24 181.67 341.3 182.13 340.63 181.96 
M 341.71 180.71 341.8 181.4 341.22 182.27 340.55 182.45 340.46 181.77 341.04 180.9 341.71 180.71 
M 127.18 120.74 126.18 121.06 126.02 120.99 
M 127.06 121.08 126.69 120.85 
M 127.21 120.74 127.06 121.08 
M 313.16 154.27 312.47 154.32 311.64 153.68 311.5 153 312.19 152.96 313.02 153.6 313.16 154.27 
M 311.62 153.27 312.3 153.39 312.97 154.2 312.95 154.89 312.27 154.77 311.6 153.97 311.62 153.27 
M 190.31 96.35 190.2 95.67 190.74 94.78 191.4 94.57 191.52 95.25 190.97 96.14 190.31 96.35 
M 190.58 94.71 191 95.26 190.95 96.3 190.47 96.8 190.05 96.26 190.1 95.21 190.58 94.71 
M 256.06 78.92 256.11 78.22 256.84 77.48 257.31 77.44 
M 257.52 77.6 257.49 78.11 256.75 78.86 256.06 78.92 
M 257.05 77.41 257.04 78.11 256.34 78.89 255.66 78.97 255.67 78.28 256.36 77.5 257.05 77.41 
M 318.85 152.26 319.27 152.8 319.21 153.85 318.73 154.35 318.31 153.8 318.37 152.75 318.85 152.26 
M 319.4 153.81 318.76 153.55 318.28 152.62 318.45 151.95 319.09 152.21 319.57 153.14 319.4 153.81 
M 315.08 137.66 315.58 138.13 315.68 139.17 315.28 139.74 314.78 139.26 314.68 138.22 315.08 137.66 
M 315.91 138.39 315.38 138.84 314.34 138.83 313.82 138.37 314.35 137.92 315.4 137.93 315.91 138.39 
M 325.93 143.49 326.15 144.14 325.76 145.11 325.14 145.42 324.92 144.77 325.31 143.8 325.93 143.49 
M 325.01 143.86 325.6 144.21 325.93 145.21 325.66 145.85 325.07 145.49 324.74 144.49 325.01 143.86 
M 313.94 147.37 313.45 147.86 312.41 147.93 311.86 147.52 312.34 147.03 313.39 146.95 313.94 147.37 
M 313.43 146.85 313.15 147.48 312.2 147.92 311.53 147.73 311.82 147.1 312.76 146.66 313.43 146.85 
M 346.74 112.97 346.45 112.34 346.73 111.34 347.31 110.96 347.6 111.58 347.32 112.59 346.74 112.97 
M 347.79 112.17 347.1 112.2 346.28 111.55 346.15 110.87 346.85 110.84 347.67 111.49 347.79 112.17 
M 344.07 174.64 343.92 173.97 344.42 173.05 345.07 172.8 345.22 173.48 344.72 174.4 344.07 174.64 
M 344.79 172.96 344.81 173.65 344.16 174.46 343.47 174.59 343.45 173.9 344.1 173.08 344.79 172.96 
M 350.76 176.79 350.62 176.11 351.12 175.2 351.77 174.96 351.91 175.63 351.41 176.55 350.76 176.79 
M 352.06 175.82 351.42 176.07 350.43 175.73 350.08 175.13 350.73 174.87 351.71 175.22 352.06 175.82 
M 347.22 181.02 347.84 180.71 348.86 180.96 349.25 181.53 348.64 181.84 347.62 181.59 347.22 181.02 
M 347.46 181.09 348.15 181.04 348.99 181.66 349.15 182.33 348.46 182.39 347.62 181.76 347.46 181.09 
M 338.78 171.44 338.09 171.52 337.23 170.93 337.05 170.26 337.74 170.18 338.6 170.77 338.78 171.44 
M 337.7 171.61 337.67 170.92 338.33 170.11 339.01 169.98 339.03 170.67 338.38 171.49 337.7 171.61 
M 219.99 200.88 220.1 200.2 220.91 199.53 221.6 199.55 221.49 200.23 220.68 200.9 219.99 200.88 
M 220.84 201.01 220.59 200.37 220.95 199.38 221.55 199.04 221.8 199.69 221.45 200.67 220.84 201.01 
M 187.2 134.81 186.53 134.99 185.59 134.54 185.32 133.9 185.98 133.72 186.93 134.17 187.2 134.81 
M 187.03 134.14 186.45 134.52 185.41 134.38 184.95 133.87 185.53 133.49 186.57 133.62 187.03 134.14 
M 216.18 84.97 216.39 85.63 215.97 86.59 215.34 86.88 215.14 86.22 215.56 85.27 216.18 84.97 
M 216.54 86.08 215.85 86.16 214.99 85.56 214.82 84.89 215.51 84.82 216.37 85.41 216.54 86.08 
M 330.36 179.38 330.28 180.06 329.51 180.77 328.81 180.79 328.9 180.1 329.67 179.4 330.36 179.38 
M 329.34 179.33 329.74 179.89 329.65 180.93 329.16 181.41 328.75 180.85 328.84 179.81 329.34 179.33 
M 180.7 107.46 180.54 106.79 181.02 105.86 181.66 105.61 181.82 106.28 181.34 107.21 180.7 107.46 
M 181.44 107.29 181.03 106.73 181.11 105.69 181.6 105.21 182.01 105.76 181.93 106.8 181.44 107.29 
M 197.03 98.45 197.22 99.11 196.78 100.06 196.15 100.35 195.96 99.68 196.4 98.73 197.03 98.45 
M 196.15 98.73 196.69 99.17 196.88 100.2 196.53 100.79 195.99 100.36 195.8 99.33 196.15 98.73 
M 358.79 189.54 358.36 189 358.4 187.96 358.87 187.45 359.3 187.99 359.26 189.04 358.79 189.54 
M 359.6 188.31 359.01 188.67 357.98 188.5 357.54 187.96 358.13 187.6 359.16 187.78 359.6 188.31 
M 328.99 166.04 329.41 166.59 329.37 167.63 328.89 168.13 328.46 167.59 328.51 166.54 328.99 166.04 
M 329.69 166.82 329.14 167.24 328.09 167.17 327.6 166.68 328.16 166.26 329.2 166.34 329.69 166.82 
M 360.34 196.57 361.03 196.52 361.87 197.15 362.02 197.82 361.33 197.87 360.49 197.25 360.34 196.57 
M 361.66 197.84 361.09 197.43 360.85 196.42 361.17 195.8 361.73 196.2 361.97 197.22 361.66 197.84 
M 355.39 199.09 356.03 199.34 356.5 200.39 
M 355.63 200.51 355.24 199.77 355.39 199.09 
M 355.14 200.31 355.68 199.87 356.72 199.89 357.18 200.31 
M 355.4 200.54 355.14 200.31 
M 313.66 120.55 314.21 120.13 315.25 120.2 315.74 120.68 315.19 121.1 314.15 121.03 313.66 120.55 
M 315.44 120.91 314.75 120.86 314.01 120.12 313.97 119.43 314.66 119.48 315.39 120.22 315.44 120.91 
M 326.37 153.67 327.03 153.46 327.99 153.86 328.3 154.48 327.64 154.7 326.67 154.29 326.37 153.67 
M 326.62 154.44 327.11 153.95 328.16 153.88 328.71 154.29 328.22 154.78 327.18 154.86 326.62 154.44 
M 337.5 157.57 337.73 158.22 337.33 159.19 336.71 159.51 336.49 158.85 336.89 157.88 337.5 157.57 
M 337.74 159.02 337.09 158.79 336.58 157.87 336.72 157.2 337.37 157.43 337.88 158.35 337.74 159.02 
M 341.53 165.58 340.91 165.26 340.53 164.28 340.77 163.63 341.38 163.95 341.76 164.93 341.53 165.58 
M 341.88 164.92 341.19 164.85 340.46 164.1 340.43 163.41 341.12 163.47 341.84 164.22 341.88 164.92 
M 326.62 136.02 327.06 136.54 327.05 137.59 326.59 138.11 326.14 137.58 326.16 136.53 326.62 136.02 
M 326.78 137.84 326.43 137.24 326.62 136.21 327.16 135.78 327.51 136.38 327.32 137.41 326.78 137.84 
M 246.22 77.71 246.86 77.97 247.33 78.91 247.15 79.58 246.52 79.31 246.05 78.38 246.22 77.71 
M 246.11 78.09 246.73 78.4 247.15 79.36 246.94 80.02 246.31 79.71 245.9 78.75 246.11 78.09 
M 351.7 135.48 351.85 136.16 351.35 137.07 350.7 137.32 350.55 136.64 351.05 135.72 351.7 135.48 
M 351.89 136.8 351.21 136.65 350.59 135.81 350.64 135.12 351.32 135.27 351.94 136.11 351.89 136.8 
M 342.27 140.13 342.32 140.82 341.69 141.66 341.01 141.8 340.96 141.11 341.6 140.28 342.27 140.13 
M 341.27 141.67 341.39 140.99 342.21 140.33 342.9 140.36 342.77 141.04 341.96 141.69 341.27 141.67 
M 347.18 148.01 347.19 147.32 347.9 146.55 348.59 146.47 348.57 147.16 347.86 147.93 347.18 148.01 
M 347.88 146.45 348.09 147.1 347.68 148.07 347.06 148.37 346.85 147.71 347.26 146.75 347.88 146.45 
M 341.83 151.3 341.57 151.95 340.64 152.43 339.97 152.27 340.23 151.62 341.16 151.14 341.83 151.3 
M 341.07 152.56 340.72 151.96 340.92 150.94 341.47 150.51 341.81 151.11 341.61 152.14 341.07 152.56 
M 360.24 127.65 360 128.3 359.08 128.79 358.4 128.64 358.65 128 359.57 127.5 360.24 127.65 
M 358.56 128.36 359.13 127.98 360.17 128.12 360.63 128.63 360.05 129.02 359.01 128.88 358.56 128.36 
M 371.37 122.46 370.91 122.98 369.88 123.12 369.3 122.74 369.76 122.22 370.79 122.08 371.37 122.46 
M 370.91 123.15 370.29 122.85 369.88 121.88 370.1 121.22 370.72 121.53 371.12 122.5 370.91 123.15 
M 365.16 126.88 365.41 127.53 365.05 128.51 364.45 128.85 364.2 128.21 364.56 127.22 365.16 126.88 
M 365.03 128.63 364.64 128.06 364.76 127.02 365.28 126.55 365.66 127.13 365.54 128.17 365.03 128.63 
M 353.01 193.38 353.65 193.12 354.64 193.45 354.99 194.05 354.35 194.31 353.36 193.97 353.01 193.38 
M 353.39 193.2 354.03 193.46 354.5 194.4 354.33 195.07 353.69 194.8 353.22 193.87 353.39 193.2 
M 235.79 77.45 236.48 77.53 237.19 78.3 237.21 78.99 236.52 78.91 235.81 78.14 235.79 77.45 
M 235.78 77.87 236.47 77.97 237.15 78.76 237.15 79.46 236.47 79.36 235.78 78.57 235.78 77.87 
M 305.66 95.09 305.77 95.77 305.23 96.66 304.57 96.87 304.46 96.19 305 95.3 305.66 95.09 
M 305.9 95.83 305.29 96.16 304.27 95.94 303.85 95.39 304.46 95.06 305.48 95.27 305.9 95.83 
M 382.49 196.62 383.09 196.97 383.19 197.28 
M 382.27 197.38 382.49 196.62 
M 382.75 196.81 382.96 197.3 
M 382.09 197.41 382.16 197.17 382.75 196.81 
M 380.29 190.51 380.33 189.82 381.06 189.07 381.75 189.02 381.71 189.71 380.98 190.45 380.29 190.51 
M 381.61 189.23 381.26 189.83 380.28 190.17 379.63 189.92 379.98 189.32 380.97 188.97 381.61 189.23 
M 382.27 182.05 382.67 182.61 382.57 183.65 382.07 184.13 381.67 183.56 381.77 182.52 382.27 182.05 
M 381.77 183.77 381.92 183.1 382.76 182.48 383.45 182.53 383.3 183.2 382.46 183.83 381.77 183.77 
M 362.68 183.05 363.3 183.36 363.7 184.32 363.48 184.98 362.86 184.67 362.46 183.7 362.68 183.05 
M 362.28 184.04 362.93 183.81 363.91 184.19 364.23 184.8 363.58 185.03 362.6 184.65 362.28 184.04 
M 368.01 169.79 367.83 170.46 366.96 171.04 366.28 170.96 366.46 170.29 367.32 169.71 368.01 169.79 
M 366.48 169.94 367.14 170.12 367.72 170.99 367.64 171.68 366.97 171.5 366.39 170.63 366.48 169.94 
M 363.97 137.65 364.66 137.62 365.48 138.27 365.61 138.95 364.92 138.98 364.1 138.33 363.97 137.65 
M 365.01 139.06 364.62 138.49 364.75 137.45 365.26 136.99 365.65 137.56 365.52 138.6 365.01 139.06 
M 360.75 137.69 360.09 137.89 359.13 137.47 358.84 136.85 359.5 136.64 360.45 137.07 360.75 137.69 
M 360.49 137.66 359.81 137.52 359.17 136.69 359.21 136 359.89 136.14 360.53 136.97 360.49 137.66 
M 386.01 176.18 386.21 176.84 385.79 177.8 385.16 178.09 384.96 177.43 385.38 176.47 386.01 176.18 
M 386.19 177.65 385.56 177.39 385.09 176.45 385.27 175.78 385.9 176.05 386.37 176.98 386.19 177.65 
M 397.93 195.03 398.04 194.87 399.05 194.6 399.41 194.78 
M 398.43 194.95 398.24 194.44 398.48 193.79 399.09 194.12 399.34 194.79 
M 345.34 155.39 345.66 154.78 346.63 154.39 347.28 154.62 346.97 155.23 345.99 155.62 345.34 155.39 
M 346.67 155.72 346.19 155.22 346.13 154.18 346.55 153.63 347.03 154.13 347.09 155.17 346.67 155.72 
M 407.71 181.72 408.35 181.46 409.34 181.8 409.69 182.39 409.05 182.66 408.06 182.32 407.71 181.72 
M 409.23 181.47 408.94 182.1 407.99 182.53 407.33 182.34 407.61 181.71 408.56 181.27 409.23 181.47 
M 413.35 187.24 413.72 187.83 413.55 188.86 413.02 189.3 412.66 188.72 412.82 187.68 413.35 187.24 
M 413.3 187.48 413.42 188.16 412.87 189.06 412.21 189.27 412.1 188.59 412.64 187.69 413.3 187.48 
M 353.12 143.27 352.48 143.01 352 142.08 352.17 141.41 352.81 141.66 353.29 142.6 353.12 143.27 
M 353.16 142.95 352.57 142.58 352.27 141.58 352.55 140.94 353.13 141.31 353.44 142.31 353.16 142.95 
M 350.2 160.2 349.93 160.84 348.99 161.29 348.32 161.12 348.59 160.48 349.53 160.02 350.2 160.2 
M 349.24 161.45 349.04 160.79 349.48 159.84 350.11 159.55 350.3 160.21 349.87 161.17 349.24 161.45 
M 363.28 163.4 362.7 163.79 361.66 163.67 361.2 163.15 361.77 162.77 362.81 162.89 363.28 163.4 
M 362.49 162.52 362.48 163.21 361.79 164 361.1 164.09 361.11 163.4 361.8 162.62 362.49 162.52 
M 356.3 161.17 356.43 161.85 355.91 162.76 355.26 162.99 355.13 162.31 355.64 161.4 356.3 161.17 
M 355.19 162.62 355.53 162.02 356.52 161.67 357.16 161.92 356.82 162.52 355.84 162.87 355.19 162.62 
M 320.41 140.99 320.36 140.3 320.99 139.46 321.66 139.31 321.71 140 321.08 140.84 320.41 140.99 
M 321.49 139.5 321.29 140.16 320.4 140.71 319.71 140.6 319.92 139.94 320.81 139.39 321.49 139.5 
M 370.98 161.75 370.54 162.28 369.51 162.46 368.92 162.11 369.36 161.57 370.39 161.39 370.98 161.75 
M 369.21 161.63 369.9 161.68 370.64 162.42 370.69 163.11 370 163.06 369.26 162.32 369.21 161.63 
M 380.34 161.65 381.02 161.78 381.66 162.6 381.63 163.29 380.95 163.16 380.3 162.34 380.34 161.65 
M 380.23 162.22 380.92 162.23 381.7 162.92 381.8 163.61 381.1 163.6 380.32 162.91 380.23 162.22 
M 363.55 148.79 363.71 149.46 363.22 150.39 362.58 150.64 362.42 149.97 362.91 149.04 363.55 148.79 
M 363.23 148.94 363.3 149.63 362.7 150.48 362.02 150.65 361.96 149.96 362.56 149.1 363.23 148.94 
M 390.96 170.7 390.38 171.08 389.35 170.95 388.89 170.43 389.46 170.05 390.5 170.18 390.96 170.7 
M 390.56 171.04 389.91 170.81 389.39 169.91 389.52 169.23 390.17 169.46 390.69 170.36 390.56 171.04 
M 378.34 179.94 377.66 180.08 376.75 179.57 376.51 178.93 377.18 178.78 378.1 179.29 378.34 179.94 
M 378.22 179.38 377.57 179.63 376.59 179.28 376.25 178.68 376.89 178.43 377.88 178.78 378.22 179.38 
M 372.72 130.23 372.14 129.84 371.86 128.84 372.15 128.21 372.73 128.59 373.01 129.6 372.72 130.23 
M 371.65 129.06 372.34 128.99 373.2 129.58 373.37 130.26 372.68 130.33 371.82 129.73 371.65 129.06 
M 368.57 143.44 368.57 144.13 367.89 144.92 367.2 145.02 367.2 144.33 367.89 143.54 368.57 143.44 
M 367.27 144.74 367.65 144.16 368.65 143.87 369.28 144.16 368.9 144.74 367.9 145.03 367.27 144.74 
M 397.46 168.09 396.79 168.25 395.86 167.78 395.6 167.14 396.27 166.97 397.2 167.45 397.46 168.09 
M 397.21 168.02 396.54 167.86 395.92 167.02 395.98 166.33 396.66 166.49 397.27 167.33 397.21 168.02 
M 406.25 159.35 405.89 159.95 404.9 160.27 404.26 160.01 404.61 159.41 405.61 159.09 406.25 159.35 
M 406.01 159.42 405.45 159.83 404.41 159.76 403.92 159.27 404.47 158.85 405.52 158.93 406.01 159.42 
M 399.18 160.04 399.62 160.57 399.6 161.62 399.13 162.13 398.69 161.6 398.72 160.55 399.18 160.04 
M 398.36 161.09 399.02 160.88 399.98 161.28 400.29 161.9 399.63 162.12 398.67 161.71 398.36 161.09 
M 373 151.62 372.31 151.6 371.54 150.89 371.47 150.2 372.16 150.22 372.93 150.93 373 151.62 
M 372.03 151.68 372 150.99 372.64 150.16 373.32 150.03 373.35 150.72 372.71 151.54 372.03 151.68 
M 394.05 152.72 393.72 153.33 392.74 153.7 392.09 153.45 392.42 152.85 393.4 152.48 394.05 152.72 
M 393.8 153.4 393.11 153.34 392.39 152.58 392.35 151.89 393.04 151.95 393.77 152.71 393.8 153.4 
M 393.53 146.33 394.22 146.34 395.01 147.03 395.1 147.72 394.41 147.71 393.62 147.02 393.53 146.33 
M 394.88 146.46 394.56 147.08 393.59 147.47 392.94 147.24 393.26 146.62 394.23 146.24 394.88 146.46 
M 288.4 144.69 288.59 145.35 288.15 146.3 287.53 146.59 287.33 145.92 287.77 144.97 288.4 144.69 
M 287.17 145.54 287.85 145.41 288.76 145.94 288.98 146.59 288.3 146.72 287.4 146.2 287.17 145.54 
M 348.61 166.85 347.98 167.14 346.98 166.85 346.6 166.27 347.23 165.98 348.23 166.27 348.61 166.85 
M 348.4 166.54 347.75 166.77 346.78 166.38 346.46 165.77 347.11 165.54 348.08 165.93 348.4 166.54 
M 377.74 123.53 377.07 123.38 376.44 122.54 376.5 121.85 377.17 122 377.79 122.84 377.74 123.53 
M 376.69 122.02 377.22 122.46 377.39 123.49 377.02 124.08 376.49 123.64 376.33 122.6 376.69 122.02 
M 383.54 124.01 383.58 123.32 384.29 122.61 
M 385 122.71 384.96 123.21 384.23 123.96 383.54 124.01 
M 384.87 123.8 384.24 123.52 383.8 122.54 
M 384.85 122.69 385.06 123.13 384.87 123.8 
M 412.32 155.5 411.95 156.08 410.95 156.38 410.32 156.1 410.69 155.52 411.69 155.22 412.32 155.5 
M 411.66 155.08 411.57 155.76 410.79 156.46 410.1 156.47 410.19 155.78 410.97 155.09 411.66 155.08 
M 401.75 151.24 401.58 151.91 400.72 152.51 400.03 152.43 400.21 151.76 401.06 151.16 401.75 151.24 
M 400.11 152 400.72 151.66 401.74 151.87 402.16 152.41 401.56 152.75 400.54 152.55 400.11 152 
M 406.3 154.6 406.02 153.96 406.34 152.96 406.93 152.6 407.21 153.24 406.89 154.24 406.3 154.6 
M 405.83 153.72 406.45 153.41 407.46 153.67 407.86 154.24 407.24 154.55 406.22 154.29 405.83 153.72 
M 394.8 138.93 394.19 139.27 393.17 139.06 392.75 138.51 393.35 138.17 394.38 138.38 394.8 138.93 
M 393.93 137.94 394.01 138.63 393.4 139.48 392.73 139.65 392.66 138.96 393.26 138.11 393.93 137.94 
M 414.81 177.51 415.12 178.13 414.87 179.14 414.31 179.54 413.99 178.93 414.24 177.91 414.81 177.51 
M 413.92 179.01 414.32 178.44 415.34 178.2 415.95 178.51 415.55 179.08 414.54 179.32 413.92 179.01 
M 390.57 129.22 390.05 129.68 389 129.69 388.48 129.24 388.99 128.78 390.04 128.77 390.57 129.22 
M 388.74 129.08 389.43 129 390.29 129.58 390.47 130.25 389.78 130.33 388.92 129.75 388.74 129.08 
M 377.67 130.17 377.21 129.65 377.19 128.6 377.63 128.07 378.09 128.59 378.11 129.64 377.67 130.17 
M 377.51 128.34 377.83 128.95 377.59 129.97 377.03 130.37 376.71 129.76 376.95 128.74 377.51 128.34 
M 387.69 135.11 388.27 134.73 389.31 134.86 389.77 135.38 389.19 135.76 388.16 135.63 387.69 135.11 
M 388.75 134.45 388.95 135.11 388.51 136.06 387.88 136.35 387.69 135.69 388.12 134.73 388.75 134.45 
M 398.79 128.66 399.46 128.83 400.06 129.69 399.99 130.38 399.32 130.21 398.72 129.35 398.79 128.66 
M 399 130.21 399.14 129.54 399.97 128.9 400.66 128.95 400.52 129.63 399.69 130.26 399 130.21 
M 378.2 142.14 377.95 141.5 378.3 140.51 378.9 140.17 379.15 140.81 378.8 141.8 378.2 142.14 
M 377.87 140.74 378.54 140.9 379.15 141.75 379.09 142.44 378.42 142.28 377.81 141.43 377.87 140.74 
M 416.21 138.44 415.55 138.65 414.59 138.23 414.29 137.6 414.96 137.4 415.91 137.82 416.21 138.44 
M 415.18 138.82 415.03 138.14 415.53 137.22 416.17 136.97 416.32 137.65 415.83 138.57 415.18 138.82 
M 414.53 131.43 414.44 131.61 413.8 131.88 413.63 131.21 413.78 130.9 
M 413.74 131.54 413.96 131.03 
M 414.73 131.57 414.41 131.72 413.74 131.54 
M 317.75 198.98 318.37 199.29 318.78 200.25 318.57 200.91 317.95 200.61 317.54 199.64 317.75 198.98 
M 317.69 199.31 318.25 199.71 318.48 200.73 318.16 201.34 317.6 200.94 317.37 199.92 317.69 199.31 
"/></svg>