<svg xmlns="http://www.w3.org/2000/svg" width="520" height="320"><rect x="0" y="0" width="520" height="320" fill="floralwhite"/><rect x="10" y="10" width="500" height="300" stroke="black" stroke-width="1" fill="none"/><path stroke="black" stroke-width="1" fill="none" stroke-linecap="round" stroke-linejoin="round" d="
M 156.13 106.5 166.03 104.47 185.81 102.34 205.59 99.23 215.48 98.09 225.37 97.5 235.26 97.24 245.15 97.13 264.93 97.38 274.82 97.1 284.71 97.13 294.6 97.83 314.37 99.9 324.26 101.11 334.15 102.91 373.71 111.46 383.6 114.61 393.49 119.14 394.37 120.1 
M 394.37 184.07 393.49 184.9 383.6 188.53 373.71 191.1 353.93 194.53 344.04 196.51 334.15 198.81 324.26 200.75 314.37 201.77 304.49 202.32 284.71 202.88 264.93 202.71 255.04 203.26 245.15 204.12 235.26 204.77 225.37 204.86 215.48 204.15 205.59 202.59 195.7 200.39 185.81 197.78 175.92 194.96 166.03 192.54 156.14 190.97 146.28 190.17 
M 394.37 139.71 390.87 138.2 370.19 133.22 359.67 131.11 348.39 129.53 340.91 128.67 333.7 128.21 311.78 128.28 308.41 128.05 295.24 126.61 283.56 126.04 
M 280.4 126.01 277.28 126.07 
M 274.17 126.21 257.78 127.91 
M 254.44 128.24 242.09 129.53 
M 163.4 129.08 162.16 129.21 
M 156.76 182.61 160.64 187.34 
M 154.54 171.69 154.69 171.94 
M 157.1 175.7 159.62 179.27 
M 162.27 182.65 165 185.85 
M 155.73 165.63 157.3 168.17 
M 159.92 164.33 159.93 164.34 
M 162.58 168.28 165.31 172.18 
M 167.56 167.75 172.16 174.35 173.62 176.21 
M 182.87 186.37 185.92 189.36 
M 188.77 186.62 191.72 189.64 
M 183.16 174.75 184.92 176.75 
M 188.2 180.33 191.44 183.71 
M 194.46 186.92 199.68 192.84 
M 191.67 177.85 200.01 187.21 
M 204.96 193.12 207.43 195.73 
M 160.41 120.75 165.41 129.6 
M 156.5 106.42 161.02 113.22 169.79 127.62 
M 203.32 177.23 206.14 180.85 
M 213.68 190.55 216.26 193.39 
M 160.86 105.53 163.86 109.8 174.34 125.56 
M 214.4 184.31 216.9 187.59 
M 165.22 104.64 178.9 123.5 
M 220.02 184.28 222.64 187.66 
M 225.31 190.84 227.98 193.75 
M 169.89 104.03 179.26 116.07 183.26 121.53 
M 220.36 176.9 222.94 180.61 
M 230.99 190.92 233.59 193.78 
M 174.7 103.48 182.13 112.6 187.4 119.66 
M 223.85 173.96 231.11 184.19 
M 179.57 102.97 184.93 109.38 191.76 118.25 
M 236.57 184.03 239.22 187.26 
M 241.75 190.01 244.16 192.35 
M 184.42 102.48 190.44 109.64 196.99 118.01 
M 232.48 170.49 236.52 176.4 
M 189.08 101.82 196.12 110.09 202.09 117.64 
M 236.03 167.46 236.61 168.38 
M 241.92 176.2 244.58 179.69 
M 249.64 185.49 254.46 190.23 
M 193.64 101.11 199.23 107.46 206.98 117.1 
M 239.92 164.99 244.59 172.24 
M 252.32 181.99 254.81 184.64 
M 198.06 100.41 199.81 102.14 202.38 105.04 211.49 116.38 
M 244.2 163.31 246.03 166.37 249.82 171.95 
M 260.14 183.9 262.74 186.34 
M 202.38 99.74 205.48 102.79 207.97 105.65 215.66 115.52 
M 240.57 147.94 245.7 156.83 
M 252.39 167.98 254.93 171.51 
M 262.93 180.66 265.58 183.23 
M 268.17 185.65 270.63 187.94 
M 206.6 99.12 208.44 100.77 210.99 103.41 215.97 109.52 219.7 114.51 
M 241.49 141.87 245.07 147.16 255.07 164.12 
M 260.14 171.17 261.5 172.88 265.58 177.39 
M 273.28 184.96 275.54 187.24 
M 210.91 98.62 214 101.45 216.56 104.23 223.81 113.35 
M 246.14 141.27 250.16 147.45 255.7 156.82 
M 257.81 160.34 262.71 167.46 
M 265.4 170.9 269.44 175.54 277.95 184.33 
M 281.96 189.08 283.83 191.34 
M 215.26 98.11 217.08 99.65 219.65 102.22 228.02 112.06 
M 241.17 127.89 242.76 129.79 
M 246.79 134.91 251.22 141.37 
M 253.82 145.44 262.66 159.97 
M 265.19 163.61 269.18 168.93 273.07 173.51 
M 275.59 176.26 279.19 180.16 284.28 186.49 
M 220.14 97.81 222.81 100.23 225.29 102.8 232.57 110.91 244.14 124.46 246.72 127.63 250.76 133.17 
M 253.47 137.18 256.06 141.2 
M 258.42 145.04 263.74 153.92 266.14 157.6 270.12 163.19 
M 272.77 166.7 276.61 171.49 280.34 175.77 
M 282.63 178.5 288.64 186.43 
M 292.86 191.32 295.07 193.54 
M 225.16 97.52 228.46 100.53 235.62 108.02 244.7 118.25 249.41 124 255.77 132.95 
M 258.31 136.82 262.74 144.26 
M 264.83 147.77 267.07 151.35 
M 269.56 155.09 276.33 164.45 282.83 172.55 
M 285.17 175.49 287.29 178.34 
M 291.27 183.82 293.39 186.46 
M 300.28 193.67 302.61 195.64 
M 230.5 97.37 233.91 100.5 240.91 107.54 245.45 112.48 249.92 117.7 254.55 123.67 259.59 130.64 261.99 134.37 267.14 143.44 
M 269.31 147.01 274.37 154.57 
M 285.45 169.15 290.09 175.38 
M 296.26 183.9 298.52 186.6 
M 300.89 189.21 303.3 191.64 
M 235.77 97.23 243.78 104.56 249.51 110.63 
M 251.74 113.21 259.85 123.22 263.54 128.37 
M 265.8 131.96 269.8 139.23 
M 279.3 154.32 282.2 158.21 
M 290.64 169 292.97 172.26 
M 295.1 175.37 297.14 178.36 
M 303.87 186.84 306.31 189.44 
M 241.04 97.17 246.59 101.77 251.27 106.31 263.9 121.18 
M 266.36 124.43 269.76 129.67 277.79 144.57 281.53 150.36 
M 290.43 161.85 295.76 168.96 
M 246.53 97.15 251.73 101.19 254.05 103.38 267.81 119.16 270.27 122.29 272.56 125.72 275.63 131.18 
M 279.53 138.83 282.74 144.66 285.21 148.48 289.58 154.24 
M 292.67 158.04 295.65 161.79 
M 298.33 165.48 302.88 172.44 
M 307.36 178.74 312.21 184.48 
M 252.54 97.25 254.43 98.65 256.71 100.65 258.9 102.91 265.42 110.56 270.32 115.9 272.79 118.79 275.17 121.97 278.47 127.31 
M 280.51 131.07 285.59 140.89 287.89 144.75 291.94 150.38 
M 294.96 154.19 300.77 161.85 
M 303.24 165.59 306.65 170.94 310.15 175.82 
M 319.89 187.04 322.24 189.45 
M 258.39 97.32 261.51 100.18 267.96 107.61 276.45 117.02 
M 278.85 120.14 282.3 125.36 290.89 140.91 293.34 144.72 302 156.21 304.65 160.08 308.18 165.71 
M 310.5 169.3 314.14 174.32 320.28 181.53 
M 322.68 184.22 325.04 186.78 
M 327.36 189.14 329.7 191.23 
M 263.93 97.37 266.29 99.77 272.88 107.22 277.69 112.34 280.14 115.16 283.77 119.99 
M 286.15 123.5 290.74 131.03 
M 295.32 138.95 297.89 142.87 
M 300.65 146.7 306.21 154.4 
M 308.69 158.26 311.01 162.07 
M 313.33 165.76 315.72 169.24 
M 318.15 172.43 320.57 175.4 
M 325.4 181.08 327.78 183.81 
M 269.13 97.26 280.24 109.07 282.68 111.81 286.39 116.47 
M 291.38 123.42 294.98 129.05 299.77 137.09 306.68 146.86 
M 309.32 150.66 311.75 154.49 
M 314.02 158.29 318.56 165.42 
M 320.9 168.62 328.07 177.58 
M 330.47 180.52 332.84 183.32 
M 337.51 188.24 339.9 190.33 
M 274.37 97.12 282.92 105.76 285.33 108.43 289.07 112.99 
M 291.63 116.3 295.43 121.57 302.75 133.24 313.66 148.8 319.24 157.97 
M 321.44 161.36 325.99 167.62 
M 328.34 170.68 330.73 173.81 
M 333.14 176.96 335.54 180.01 
M 280.14 97.12 283.42 100.18 288.1 105.16 294.34 112.88 
M 299.3 119.9 306.79 131.43 
M 309.61 135.4 315.21 143.15 
M 324.33 157.28 326.54 160.48 
M 333.43 170 335.83 173.32 
M 345.58 185.22 348 187.71 
M 286.18 97.23 290.97 102.12 295.79 108.06 300.67 114.78 309.31 127.61 
M 314.94 135.37 319.13 141.08 325.01 149.96 
M 327.22 153.34 338.64 169.76 
M 343.55 176.42 346.02 179.53 
M 350.91 185.25 353.34 187.89 
M 292.22 97.66 293.88 99.41 298.5 105.18 306.92 116.75 
M 309.4 120.23 313.21 125.67 320.31 135.09 
M 322.99 138.83 325.46 142.49 
M 327.8 146.06 334.64 156.24 
M 336.93 159.58 339.24 162.96 
M 297.69 98.13 301.24 102.52 321.68 129.08 325.78 134.68 
M 330.64 142.12 335.37 149.34 
M 337.71 152.81 340.03 156.23 
M 342.36 159.69 349.45 170.18 
M 351.87 173.58 354.3 176.9 
M 359.13 183.21 361.51 186.14 
M 302.86 98.64 311.06 108.79 320.46 119.82 
M 323.3 123.26 327.51 128.68 330.1 132.43 333.66 138.15 
M 336.02 141.96 340.84 149.29 
M 343.21 152.83 347.9 160.02 
M 350.23 163.63 352.55 167.18 
M 357.26 174.08 359.64 177.42 
M 366.71 186.63 367.88 188.05 
M 308.23 99.22 315.22 107.14 
M 317.88 110.06 324.96 117.77 327.84 121.12 330.63 124.69 334.45 130.34 
M 336.83 134.21 339.19 138.07 
M 341.57 141.87 344 145.59 
M 346.42 149.28 351.15 156.73 
M 362.61 174.62 364.94 177.95 
M 314.26 99.89 328 114.28 330.87 117.49 333.65 120.91 338.84 128.4 349.66 145.6 
M 354.41 153.3 363.42 168.27 
M 367.94 175.17 372.48 181.63 
M 321.02 100.71 330.97 111.01 335.15 115.79 
M 337.92 119.2 342.03 124.71 344.64 128.57 349.48 136.24 357.69 149.81 
M 359.97 153.8 366.64 165.29 
M 377.72 182.09 379.63 184.6 
M 328.22 101.83 333.89 107.94 339.4 114.18 345.16 121.22 350.56 128.89 356.44 138.43 
M 358.7 142.33 363.22 150.4 
M 365.43 154.43 367.64 158.39 
M 372.05 165.89 376.34 172.85 
M 380.71 179.44 382.98 182.59 
M 335.17 103.14 345.14 114.32 351.15 121.61 356.5 129.29 359.97 135.04 
M 364.28 142.93 373.02 159.05 
M 375.23 162.83 377.39 166.46 
M 379.48 169.96 381.57 173.39 
M 342.12 104.67 351 114.55 357.15 122.04 359.87 125.89 363.41 131.71 
M 365.56 135.63 373.96 151.81 
M 376.15 155.8 378.36 159.66 
M 386.73 174.02 391.22 180.45 
M 349.14 106.22 356.94 114.88 360.11 118.64 363.01 122.5 365.55 126.43 367.82 130.38 377.19 148.41 
M 381.47 156.36 385.7 164.02 
M 389.8 171.22 391.94 174.55 
M 356.17 107.72 362.89 115.33 365.9 119.16 368.6 123.08 370.99 127.07 376.39 137 
M 378.47 140.97 382.55 148.92 
M 384.58 152.86 388.74 160.69 
M 390.85 164.56 392.95 168.24 
M 363.07 109.1 368.73 115.87 372.83 121.72 
M 375.29 125.69 380.89 135.6 383.93 141.43 
M 385.84 145.29 391.78 157.01 
M 370.02 110.63 374.57 116.41 377.26 120.27 380.99 126.18 
M 383.31 130.13 386.53 135.97 389.28 141.62 
M 377.34 112.61 381.85 118.74 
M 384.46 122.59 388.09 128.47 390.25 132.35 392.15 136.13 394.37 141.09 
M 385.3 115.38 389.23 120.89 391.75 124.73 394.37 129.26 
M 156.19 106.48 156.13 106.56 
M 161.91 105.31 158.11 110.26 
M 167.5 104.3 163.26 109.82 159.32 115.5 
M 172.98 103.67 168.27 109.64 160.5 121.11 
M 178.72 103.05 175.91 106.31 173.5 109.45 161.75 126.63 
M 184.69 102.45 181.24 106.27 178.87 109.34 164.52 130 
M 191.6 101.43 189.13 103.69 186.63 106.39 184.27 109.37 172.44 126.42 
M 199.68 100.16 194.83 104.18 192.23 106.75 189.76 109.59 187.43 112.72 180.74 122.67 
M 207.66 98.99 203.22 102.54 200.61 104.83 197.98 107.32 195.43 110.03 192.99 113 188.8 119.03 
M 215.47 98.09 211.22 101.09 208.77 103.14 203.71 107.96 198.64 113.4 195.06 118.12 
M 159.44 172.04 157.21 175.71 
M 222.62 97.67 216.83 101.85 211.77 106.13 206.77 111.14 204.28 113.87 201.09 117.73 
M 162.6 175.81 160.26 179.29 
M 228.98 97.41 219.9 104.73 214.77 109.33 211.04 113.08 
M 208.61 115.78 207.52 117.03 
M 168.19 175.98 163.47 182.68 
M 234.55 97.26 228.1 102.95 217.75 112.63 214.67 115.74 
M 173.72 176.22 171.56 179.61 
M 239.54 97.19 236.07 100.41 223.01 113.59 
M 180.91 173.74 177.25 179.85 
M 175.07 183.03 172.7 186.05 
M 244.21 97.14 238.86 102.59 230.57 111.81 
M 185.6 175.84 180.95 183.25 
M 178.7 186.23 176.33 188.94 
M 248.66 97.18 244.03 102.07 236.8 110.66 232.21 115.77 
M 253.12 97.25 249.17 101.47 239.55 113.18 234.64 118.86 
M 197.23 177.24 192.72 183.76 
M 188.29 189.46 186.07 191.8 
M 257.5 97.31 252.02 103.59 243.55 114.11 
M 240.98 117.25 238.02 120.9 
M 203.56 177.16 200.96 180.75 
M 198.52 184.01 196.22 187 
M 261.82 97.35 256.97 103.09 245.05 118.21 240.21 124.74 
M 209.08 177.82 206.87 180.85 
M 201.75 187.28 199.37 190.09 
M 266.21 97.35 261.73 102.67 251.48 116.1 
M 249.07 119.29 245.51 124.33 242.23 129.76 
M 213.98 178.92 212.58 180.86 
M 209.94 184.29 204.72 190.36 
M 270.86 97.21 268.72 99.58 264.28 105.14 253.01 120.51 250.71 123.92 248.54 127.5 245.72 132.98 
M 242.8 139.16 241.57 141.65 
M 215.58 184.29 212.92 187.53 
M 210.25 190.49 207.66 193.2 
M 275.49 97.1 271.34 101.94 266.92 107.68 255.89 123.57 253.65 127.25 251.64 131.13 246.14 143.26 244.14 147.09 241.51 151.45 
M 227.86 172.67 223.55 180.56 
M 213.32 193.31 210.72 195.79 
M 279.92 97.12 276.31 101.33 271.81 107.32 267.69 113.2 262.35 121.33 
M 260.05 124.99 256.73 130.87 252.12 141.36 
M 250.23 145.43 247.08 151.19 243.87 156.04 
M 235.72 168.38 233.4 172.43 
M 231.18 176.47 226.75 184.2 
M 284.35 97.13 281.35 100.51 279.02 103.57 272.63 112.83 266.48 122.61 261.88 130.43 260.8 132.53 
M 258.77 136.8 254.21 147.47 253.16 149.42 
M 250.94 153.24 247.02 159.18 
M 244.26 163.3 241.13 168.39 
M 234.48 180.39 232.28 184.18 
M 288.74 97.41 286.5 99.78 281.82 105.92 277.56 112.35 273.58 118.74 264.61 134.05 262.44 138.33 259.63 144.87 
M 257.81 149.09 256.87 151.16 254.71 155.06 247.53 166.34 244.23 172.28 
M 242.06 176.23 239.9 180.15 
M 233.21 190.9 230.79 193.79 
M 293.46 97.75 291.77 99.42 289.33 102.2 284.7 108.5 280.47 115.14 270.71 131.49 
M 268.28 135.57 264.89 141.89 259.34 154.62 257.21 158.54 253.76 164.2 
M 247.36 175.88 245.21 179.68 
M 240.85 187.07 238.61 190.52 
M 298.28 98.19 294.58 102.1 291.08 106.52 
M 288.79 109.74 285.49 114.81 269.47 141.19 267.34 145.34 264.64 151.75 
M 262.86 156.01 259.88 162.04 256.65 167.73 
M 303.16 98.67 299.68 102.39 297.41 105.1 292.94 111.2 288.47 118.1 273.19 142.79 
M 271.06 146.81 270.05 148.85 265.73 159.63 
M 259.77 171.21 255.57 178.38 
M 307.96 99.19 302.45 105.49 300.25 108.33 295.94 114.57 279.18 140.76 276.91 144.58 274.88 148.46 272.2 154.78 
M 270.54 159.11 267.97 165.35 266.04 169.14 264.02 172.73 260.87 177.83 
M 247.19 196.52 245.62 198.33 
M 312.65 99.71 309.85 102.95 305.28 108.68 301 114.79 297.82 119.85 
M 295.61 123.41 290.68 131.03 
M 288.04 134.99 285.45 138.92 
M 283.01 142.75 279.75 148.4 277.93 152.35 271.98 166.8 
M 270.14 170.56 268.22 174.05 
M 266.2 177.36 264.07 180.56 
M 261.81 183.7 259.46 186.8 
M 317.44 100.28 312.76 105.75 308.19 111.89 303.91 118.34 297.33 129.1 286.94 144.75 284.77 148.48 282.92 152.32 279.55 160.32 276.86 166.24 
M 275.01 169.98 272.29 175.21 270.39 178.43 267.23 183.05 
M 257.55 194.56 255.17 196.95 
M 322.39 100.88 318.32 105.51 315.83 108.61 311.18 115.1 306.82 121.97 300.23 133.14 292.32 144.72 290 148.5 288.08 152.33 283.82 162.04 
M 281.95 165.84 279.98 169.48 
M 276.17 176.19 272.39 182.39 
M 327.28 101.66 321.58 108.33 316.64 114.9 314.28 118.38 309.78 125.71 305.67 133.35 303.4 137.21 299.49 142.91 
M 296.87 146.63 295.59 148.47 293.45 152.27 289.08 161.88 
M 287.18 165.6 285.11 169.17 
M 280.96 175.72 275.21 184.68 
M 332.12 102.54 324.96 111.24 319.98 118.08 315.12 125.6 312.01 131.49 
M 310.04 135.41 306.79 141.21 301.55 148.59 299.13 152.32 298.09 154.22 
M 290.3 169 283.66 178.45 
M 336.86 103.51 333.21 107.94 328.39 114.26 323.4 121.4 319.67 127.28 
M 317.43 131.31 312.44 141.28 310.14 145.06 304.95 152.46 302.57 156.22 296.53 167.25 294.31 170.65 290.71 175.36 
M 284.08 183.89 280.21 189.2 
M 341.43 104.51 334.14 114.13 326.8 124.89 321.89 133 315.57 145.05 308.06 156.35 305.67 160.1 301.44 167.34 298.11 172.29 
M 293.2 178.3 290.76 181.11 
M 288.49 183.82 282.49 191.39 
M 346.05 105.53 337.44 117.45 330.07 128.53 325.09 136.7 319.56 146.73 
M 317.2 150.61 304.11 170.86 300.66 175.5 
M 295.69 181.15 293.24 183.84 
M 350.9 106.6 338.27 124.6 334.4 130.34 
M 331.79 134.31 328.03 140.38 319.89 154.19 
M 310.15 169.29 307.91 172.6 
M 303.28 178.58 300.81 181.33 
M 298.32 183.97 295.89 186.51 
M 291.31 191.31 289.13 193.48 
M 356.09 107.7 349.13 117.92 341.39 128.45 335.96 136.17 333.33 140.1 327.33 149.77 
M 324.96 153.63 316.53 167.46 314.19 171.05 310.75 175.83 
M 306.07 181.56 303.62 184.2 
M 296.31 191.39 293.94 193.53 
M 361.61 108.81 352.69 121.72 341.58 136.14 330.05 153.09 
M 327.63 156.84 322.86 164.72 
M 316 175.79 312.55 180.33 310.21 183.1 305.32 188.19 301.59 191.58 
M 299.11 193.65 296.66 195.55 
M 367.18 110 365.54 112.11 358.67 122.15 356.02 125.61 347.34 136.19 344.48 139.94 337.88 149.31 
M 332.8 156.33 329.14 161.8 323.4 171.59 
M 321.18 175.28 320.07 177.05 316.67 181.69 
M 307.01 191.78 304.47 193.8 
M 372.7 111.23 369.12 115.91 364.46 122.64 361.89 126.06 350.22 139.98 343.4 149.25 
M 340.75 152.79 336.83 157.89 333.11 163.1 
M 328.47 170.64 324.08 178.08 
M 321.86 181.38 320.74 182.95 317.26 187.1 
M 377.86 112.78 374.96 116.44 367.46 126.65 364.78 130.02 355.99 140.24 343.61 156.3 
M 340.96 159.63 338.37 162.95 
M 335.9 166.39 332.44 171.84 329.15 177.41 
M 322.45 186.92 320.11 189.53 
M 382.9 114.38 370.21 130.68 358.82 144.21 349.19 156.58 
M 341.23 166.39 338.78 169.78 
M 336.46 173.3 332.03 180.34 
M 322.92 191.7 320.49 193.84 
M 387.55 116.42 375.62 131.34 363.01 146.57 
M 360.26 150.06 353.4 158.71 349.34 163.55 
M 341.72 173.17 339.39 176.54 
M 392.1 118.51 384.23 128.29 369.79 145.54 357.55 160.85 
M 347.11 173.3 342.34 179.62 
M 340.02 182.72 337.71 185.68 
M 335.42 188.42 333.17 190.92 
M 394.37 123.37 390.17 128.54 378.01 142.79 365.74 158.16 
M 363.03 161.43 353.76 172.16 347.67 179.57 
M 342.91 185.32 339.39 189.28 336.04 192.69 
M 394.37 130.64 386.41 139.69 383.44 143.28 368.47 162.06 
M 365.76 165.19 360.43 171.21 
M 357.9 174.14 355.45 177.01 
M 353.03 179.8 348.22 185.19 
M 343.47 190.11 341.58 191.93 
M 394.37 137.02 388.72 143.48 379.12 156.12 
M 373.86 162.69 371.18 165.8 
M 365.82 171.78 363.26 174.69 
M 394.37 143.03 390.99 147.25 383.07 158.35 379.18 163.26 
M 368.59 175.24 366.08 178.07 
M 394.37 149.75 386.94 160.51 
M 384.38 163.84 380.46 168.45 373.87 175.76 
M 371.33 178.58 368.87 181.31 
M 389.52 164.42 385.61 169.11 379.13 176.25 
M 394.37 165.32 390.76 169.74 386.85 174.04 
M 379.33 182.24 376.87 184.83 
M 394.37 171.98 389.54 177.39 
M 394.37 178.31 390.85 182.25 
M 233.98 96.29 284.57 30 285.28 30.52 237.23 97.22 
M 247.17 96.29 283.72 44.11 284.45 44.6 250.36 97.21 
M 260.35 96.55 284.84 57.21 285.6 57.65 263.53 97.37 
M 273.55 96.37 289.07 69.2 289.85 69.61 276.71 97.11 
M 286.77 96.64 296.36 80.74 297.14 81.15 289.86 97.5 
M 299.95 97.78 304.65 91.07 305.44 91.47 302.98 98.66 
M 312.93 99.24 314.38 99.9 
M 280.41 37.29 279.2 39.93 278.52 42.59 278.48 43.93 278.65 45.27 279.01 46.62 280.06 49.33 
M 280.98 49.95 280.17 52.58 279.89 55.14 280.04 56.38 280.41 57.6 280.95 58.79 282.39 61.14 
M 283.35 61.7 283.23 64.4 283.59 66.9 284.05 68.03 284.71 69.09 285.54 70.07 287.51 71.91 
M 288.5 72.43 289.1 75.28 289.55 76.6 290.14 77.82 290.91 78.92 292.94 80.78 295.4 82.33 
M 296.38 82.84 297.26 85.57 298.54 87.94 299.41 88.93 300.43 89.78 301.59 90.51 304.18 91.74 
M 305.17 92.25 306.37 94.76 307.08 95.88 307.91 96.87 308.88 97.69 311.2 98.88 313.87 99.67 
M 279.76 38.61 278.76 41.26 278.52 42.59 278.48 43.93 278.65 45.27 279.5 47.97 
M 275.98 44.47 275.08 46.85 274.85 48.05 274.97 50.47 275.74 52.9 
M 272.19 50.33 271.39 52.45 271.16 54.58 271.29 55.66 271.97 57.82 
M 268.4 56.19 267.7 58.04 267.5 59.91 267.62 60.85 268.21 62.74 
M 264.61 62.05 264.01 63.64 263.84 65.24 264.45 67.67 
M 260.82 67.91 260.32 69.23 260.18 70.57 260.69 72.59 
M 257.03 73.77 256.63 74.83 256.52 75.9 256.92 77.52 
M 280.54 51.27 279.94 53.87 279.89 55.14 280.04 56.38 280.41 57.6 281.64 59.97 
M 276.98 57.71 276.46 59.95 276.42 61.04 276.87 63.15 277.92 65.19 
M 273.42 64.15 272.99 66.02 273.06 67.83 273.32 68.71 274.21 70.41 
M 269.86 70.59 269.51 72.1 269.57 73.55 270.49 75.64 
M 266.3 77.03 266.01 78.73 266.24 79.81 266.78 80.86 
M 283.25 63.07 283.32 65.68 283.59 66.9 284.05 68.03 284.71 69.09 286.49 71.01 
M 279.77 71.04 279.83 73.04 280.03 73.97 280.89 75.65 282.26 77.12 
M 276.29 79.01 276.33 80.4 276.72 81.66 278.02 83.24 
M 288.77 73.87 289.55 76.6 290.14 77.82 290.91 78.92 291.85 79.9 294.14 81.57 
M 286.25 82.05 286.75 83.83 287.64 85.33 288.25 85.97 289.74 87.06 
M 162.2 129.41 193.75 115.63 194.12 116.43 162.29 132.47 
M 162.32 133.62 238.71 108.59 238.99 109.42 162.26 136.82 
M 162.23 137.94 248.91 119.61 249.1 120.47 162.06 141.08 
M 162 142.19 256.85 132.71 256.95 133.59 161.31 145.34 
M 161.03 146.37 249.95 147.32 249.95 148.21 160.39 149.43 
M 160.23 150.32 259.83 162.23 259.73 163.1 159.56 153.36 
M 159.38 154.09 240.18 173.07 239.99 173.94 158.53 157.08 
M 158.35 157.59 224.54 181.21 224.26 182.05 157.32 160.54 
M 157.04 161.31 194.18 179.88 193.8 180.68 155.97 164.29 
M 190.39 118.31 199.48 117.87 208.47 116.91 212.92 116.13 217.33 115.15 221.7 113.98 230.4 111.31 
M 230.76 112.36 231.9 115.2 233.43 117.66 234.41 118.69 235.55 119.57 236.81 120.32 239.59 121.58 
M 239.84 122.67 240.41 125.73 241.44 128.5 242.21 129.73 243.16 130.85 244.26 131.87 246.76 133.72 
M 246.88 134.83 244.47 137.07 242.53 139.55 241.83 140.92 241.31 142.4 240.96 143.95 240.57 147.22 
M 240.57 148.33 241.62 151.8 242.29 153.43 243.11 154.96 244.1 156.36 246.57 158.83 249.48 160.99 
M 249.36 162.09 244.94 163.09 240.77 164.55 238.82 165.56 236.96 166.74 235.19 168.1 231.81 171.11 
M 231.57 172.19 228.01 172.64 224.68 173.56 223.15 174.29 221.7 175.21 220.34 176.3 217.75 178.79 
M 217.4 179.84 211.48 178.3 205.53 177.29 202.54 177.09 199.53 177.1 196.51 177.29 190.44 178.01 
M 194.94 118.12 203.99 117.48 208.47 116.91 212.92 116.13 217.33 115.15 226.06 112.68 
M 231.31 113.8 232.6 116.49 233.43 117.66 234.41 118.69 235.55 119.57 238.18 120.97 
M 205 122.65 205.84 124.4 206.38 125.16 207.75 126.4 209.46 127.31 
M 240.1 124.22 240.85 127.16 241.44 128.5 242.21 129.73 243.16 130.85 245.48 132.81 
M 220.51 128.51 221.08 130.77 221.54 131.79 222.85 133.59 224.63 135.1 
M 200.92 132.8 201.63 135.09 202.55 136.34 203.79 137.39 
M 245.64 135.93 243.42 138.26 242.53 139.55 241.83 140.92 241.31 142.4 240.73 145.57 
M 224.76 138.31 223.05 140.1 222.37 141.09 221.44 143.27 220.99 145.7 
M 203.88 140.69 202.21 142.62 201.57 144.14 201.26 145.84 
M 241.07 150.09 242.29 153.43 243.11 154.96 244.1 156.36 245.26 157.65 247.99 159.93 
M 221.25 149.99 222.19 152.55 222.82 153.72 224.46 155.79 226.56 157.54 
M 201.43 149.89 202.52 152.49 203.67 153.93 205.13 155.14 
M 247.13 162.56 242.81 163.74 240.77 164.55 238.82 165.56 236.96 166.74 233.49 169.57 
M 215.29 159.28 212.48 160.05 209.88 161.23 208.68 162 206.42 163.84 
M 229.78 172.38 226.31 173.01 224.68 173.56 223.15 174.29 221.7 175.21 219.03 177.51 
M 204.01 166.9 201.75 167.31 199.7 168.14 198.76 168.74 197.02 170.24 
M 214.44 179.04 208.52 177.71 205.53 177.29 202.54 177.09 199.53 177.1 193.48 177.61 
M 216.62 203.05 243.09 231.82 242.46 232.44 214.34 205.26 
M 214.98 202.9 215.74 203.9 
M 223.13 213.75 242.35 239.39 241.66 239.93 212.49 204.86 
M 213.34 202.76 213.92 203.73 
M 220.16 214.09 240.24 247.41 239.49 247.88 210.65 204.45 
M 211.67 202.62 212.1 203.54 
M 217.13 214.21 236.67 255.67 235.88 256.07 208.83 204.03 
M 210 202.5 210.28 203.31 
M 214.09 214.16 231.59 263.98 230.76 264.28 207.02 203.61 
M 208.3 202.38 208.47 203.07 
M 211.08 213.98 224.99 272.08 224.14 272.3 205.23 203.17 
M 207.16 202.36 207.2 202.67 
M 209.19 217.66 217.44 279.87 216.57 280 204.02 202.83 
M 239.65 229.72 238.11 231.72 237.9 232.39 237.89 233.06 238.49 234.4 239.62 235.74 
M 238.74 236.43 237.36 237.67 236.5 239.01 236.37 239.73 236.44 240.49 237.55 242.94 
M 236.61 243.54 235 244.67 233.89 245.99 233.62 246.75 233.54 247.58 234.17 250.37 
M 233.17 250.86 230.58 252.46 229.98 253.14 229.56 253.91 229.26 255.74 229.43 257.83 
M 228.39 258.21 226.35 259.08 224.74 260.25 224.17 261.02 223.78 261.91 223.53 262.91 223.32 265.11 
M 222.24 265.39 220.09 266.14 218.34 267.24 217.69 267.99 217.2 268.87 216.85 269.88 216.41 272.12 
M 239.04 230.39 238.11 231.72 237.9 232.39 237.89 233.06 238.1 233.72 239.02 235.07 
M 234.77 225.77 234 226.87 233.82 227.97 233.99 228.53 234.75 229.63 
M 230.49 221.16 229.75 222.46 229.88 223.33 230.47 224.2 
M 226.21 216.54 225.67 217.49 225.77 218.13 226.2 218.77 
M 238.02 237.04 236.84 238.32 236.5 239.01 236.37 239.73 236.44 240.49 237.09 242.11 
M 234.5 232.38 233.49 233.48 233.19 234.07 233.14 235.35 233.7 236.74 
M 230.98 227.72 230.13 228.64 229.88 229.13 229.84 230.2 230.3 231.37 
M 227.45 223.06 226.77 223.8 226.5 224.62 226.91 225.99 
M 223.93 218.39 223.27 219.26 223.24 219.91 223.52 220.62 
M 235.77 244.09 234.36 245.3 233.89 245.99 233.62 246.75 233.54 247.58 233.87 249.41 
M 232.32 238.4 231.1 239.44 230.47 240.69 230.4 241.4 230.69 242.98 
M 228.87 232.72 227.85 233.59 227.51 234.08 227.26 235.23 227.5 236.54 
M 225.42 227.03 224.6 227.73 224.17 228.57 224.32 230.11 
M 221.97 221.34 221.14 222.18 220.99 222.88 221.13 223.68 
M 232.22 251.35 230.58 252.46 229.98 253.14 229.56 253.91 229.33 254.78 229.32 256.77 
M 229.56 245.73 228.11 246.71 227.58 247.31 227 248.76 226.99 250.52 
M 226.89 240.11 225.63 240.97 224.85 242.08 224.68 242.75 224.66 244.27 
M 224.23 234.5 223.16 235.22 222.77 235.66 222.35 236.73 222.34 238.02 
M 221.56 228.88 220.37 229.83 220.02 230.71 220.01 231.77 
M 218.9 223.26 217.96 224 217.69 224.69 217.69 225.52 
M 227.34 258.62 225.47 259.61 224.74 260.25 224.17 261.02 223.78 261.91 223.4 263.99 
M 225.37 253.05 223.69 253.94 222.52 255.21 222.16 256.01 221.82 257.88 
M 223.4 247.48 221.9 248.27 220.87 249.4 220.55 250.11 220.25 251.78 
M 221.43 241.91 220.12 242.6 219.61 243.05 218.94 244.21 218.67 245.67 
M 219.46 236.34 217.9 237.32 217.32 238.31 217.09 239.56 
M 217.49 230.77 216.19 231.58 215.71 232.41 215.52 233.45 
M 215.52 225.2 214.48 225.85 214.09 226.51 213.94 227.35 
M 221.14 265.74 219.15 266.63 218.34 267.24 217.69 267.99 217.2 268.87 216.61 270.97 
M 219.83 260.23 218.01 261.04 217.28 261.59 216.24 263.08 215.69 265 
M 218.52 254.71 216.88 255.44 215.68 256.56 215.27 257.29 214.78 259.02 
M 217.21 249.19 215.74 249.85 214.67 250.85 214.31 251.5 213.87 253.05 
M 215.9 243.67 214.61 244.25 214.08 244.65 213.34 245.71 212.96 247.07 
M 214.59 238.16 213.47 238.66 212.65 239.42 212.04 241.1 
M 213.28 232.64 211.95 233.35 211.41 234.12 211.13 235.12 
M 211.98 227.12 211.2 227.46 210.64 227.99 210.22 229.15 
M 355.23 193.62 359.25 201.35 358.52 201.86 352.63 195.44 
M 342.28 196.31 357.8 220.37 357.08 220.88 339.68 198.13 
M 329.38 199.15 343.79 223.56 343.05 224.04 326.71 200.87 
M 316.32 200.96 327.36 223.81 326.58 224.23 313.52 202.47 
M 305.91 201.61 308.7 209.87 307.91 210.26 303.06 203.02 
M 357.94 201.21 356.43 204.82 355.85 206.64 355.46 208.48 355.27 210.34 355.49 214.13 356.25 217.96 
M 355.34 218.6 352.24 218.05 350.72 217.94 349.23 218.01 347.79 218.29 345.02 219.44 342.35 221.12 
M 341.42 221.72 338.06 220.54 336.38 220.13 334.7 219.9 333.01 219.88 329.64 220.44 326.25 221.53 
M 325.27 222.05 322.22 218.27 318.85 214.9 316.97 213.45 314.97 212.17 312.86 211.04 308.42 209.04 
M 353.78 218.29 350.72 217.94 349.23 218.01 347.79 218.29 346.39 218.78 343.68 220.25 
M 349.28 213.7 346.94 213.43 345.8 213.49 343.62 214.07 341.54 215.2 
M 344.79 209.11 343.15 208.92 341.59 209.11 339.4 210.15 
M 339.74 221.1 336.38 220.13 334.7 219.9 333.01 219.88 331.33 220.06 327.94 220.94 
M 333.35 214.01 331.17 213.38 330.07 213.23 327.88 213.34 325.68 213.92 
M 393.49 119.14 398.75 117.32 400.99 116.21 403.58 114.36 410.93 110.35 412.54 108.6 414.35 108.09 420.01 105.22 422.74 103.24 427.59 100.97 429.32 99.69 432.04 98.67 434.88 96.92 437.58 94.68 440.52 92.96 442.28 91.42 444.89 91.2 450.61 88.93 453.86 86.68 456.35 85.26 456.94 84.25 457.9 83.36 459.22 81.34 462.18 80.07 459.52 90.82 457.98 92.96 456.77 95.44 454.17 96.54 453.66 99.71 450.7 104.02 449.98 106.93 448.64 109.23 446.95 111.23 444.17 115.88 442.42 117.85 441.04 120.09 439.8 125.61 438.56 127.74 436.09 128.84 433.69 130.16 430.86 134.75 429.4 140.31 428.03 148.69 425.75 149.97 424.32 152.11 421.91 157.01 421.55 159.38 421.47 161.72 422.59 164.81 423.5 169.48 424.62 171.74 426.48 174.94 427.02 179.12 430.31 188 429.59 189.92 429.12 192.05 428.91 193.91 429.67 196.76 431.46 200.62 432.71 204.46 432.38 206.92 432.67 214.63 430.36 212.68 425.35 209.63 421.64 205.87 420.76 204.34 419.34 202.89 417.51 201.42 414.57 200.31 409.7 197.06 407.23 194.78 404.27 193.42 395.99 187.24 393.49 184.9 
M 396.7 122.07 399.01 121.09 401.67 119.62 404.04 118.28 405.93 116.88 408.67 115.53 411.22 114.04 413.33 113.23 415.63 112.09 426.33 107.78 428.89 106.15 430.27 105.63 432.3 104.39 
M 397.07 125.45 399.51 124.77 404.45 122.59 409.3 119.79 412.21 118.67 414.95 118.11 417.32 117.2 419.74 115.89 424.94 114.19 
M 393.49 129.01 397.28 128.9 399.94 128.47 405.3 127.05 412.87 123.75 415.21 122.56 417.62 121.76 419.97 120.66 422.82 119.99 424.85 120.08 427.36 118.66 429.77 118.13 432.98 117.1 437.53 115.23 
M 393.49 132.29 397.09 132.37 400.27 131.91 402.88 131.27 405.5 130.88 408.17 129.87 410.66 127.91 413.1 126.85 415.95 126.03 418.24 125.68 420.89 124.35 423.85 124.71 426.62 124.3 429 123.38 430.9 121.98 433.65 121.17 435.82 121.03 
M 393.49 135.58 396.69 135.77 399.77 135.32 402.75 134.47 405.07 134.56 407.95 133.95 413.74 131.67 416.46 130.08 419.2 130.66 422.24 130.09 425.68 130.08 
M 393.49 138.87 397.14 139.35 402.81 138.69 405.15 138.59 407.71 138.18 410.27 137.03 414.3 136.4 
M 397.29 142.7 403.38 143.03 406.3 143.6 412.21 142.43 415.08 141.11 418.34 140.5 420.85 139.38 
M 403.56 146.99 406.09 147.54 409.7 147.9 413.76 147.54 
M 403.94 150.29 406.53 150.94 
M 401.23 153.7 404.66 153.9 408.3 153.69 414.41 155.8 417.45 156.1 
M 397.87 156.5 401 157.68 404.31 158.46 407.67 158.43 410.36 159.31 413.24 160.49 415.56 161.01 
M 393.49 158.6 397.78 159.73 400.67 160.96 403.59 161.87 406.41 162.57 409.4 163.07 
M 400.53 164.35 403.41 165.29 405.76 166.41 408.91 167.23 411.86 167.59 414.65 169.86 
M 399.93 168.17 402.66 169.4 409.07 171.15 411.76 172.16 416.04 172.86 419.32 173.02 
M 399.78 171.37 405.99 174.14 408.68 175.1 414.32 178.12 417.31 179.16 420.38 179.19 
M 399.8 174.62 402.51 176.18 407.76 178.64 415.15 184.18 418.39 183.49 421.5 183.55 
M 402.28 179.46 404.57 181.18 406.9 182.29 415.25 187.62 417.28 187.8 420.49 188.92 423.28 190.4 426.33 192.48 428.36 192 
M 402.44 183.47 404.5 185.03 412.22 189.63 
M 396.8 183.46 401.72 187.16 404.54 188.7 407.53 190.78 409.91 192.78 415.58 195.42 418.39 197 420.16 198.87 422.07 199.96 423.67 202.1 425.94 204.08 428.72 204.38 430.68 206.12 
M 381.89 186.82 378.12 187.35 376.7 188.38 374.48 191.11 372.82 191.62 369.89 190.28 368.32 190.08 365.07 190.94 362.72 193.57 363.82 192.89 
M 76.51 133.5 77.14 132.63 78.65 131.25 80.77 129.99 87.37 126.83 96.69 122.98 107.7 118.8 126.94 113.57 139.52 110.31 150.25 108.07 156.13 106.58 158.65 111.25 159.36 115.8 160.31 120.38 161.48 124.99 162.22 129.54 162.33 134.02 161.96 142.9 160.8 147.23 159.99 151.6 158.93 155.94 155.89 164.51 155.23 168.9 153.23 177.59 151.75 181.88 149.61 186.1 146.28 190.07 136.17 189.29 128.77 187.89 122.02 186.13 115.89 183.92 110.36 181.34 105.3 178.41 100.5 175.09 96.17 171.54 92.54 167.51 89.54 163.08 
M 140.93 130.92 140.49 134.71 137.44 141.61 135.65 144.76 131.92 150.26 130.91 155.39 131.14 160.96 131.06 164.23 130.12 167.74 123.46 167.81 118.62 167.57 113.83 167.08 109.14 166.16 104.62 164.68 100.32 162.58 96.22 159.78 
M 88.12 162.43 85.53 157.93 82.61 152.1 75.9 140.51 73.88 136.73 74.06 134.52 75.81 133.32 77.99 133.89 79.15 135.81 83.4 145.87 87.68 158.42 89.56 163.14 
M 89.01 163.81 82.64 162.25 65.83 157.42 59.44 155.87 57.81 154.46 57.82 152.21 59.56 150.71 61.81 151.1 68.2 153.55 81.95 159.96 89.3 162.93 
M 104.35 135.25 103.46 131.87 103.71 128.37 105.09 125.15 107.44 122.55 110.5 120.85 113.95 120.24 117.42 120.78 120.51 122.42 122.91 124.97 124.35 128.17 124.68 131.66 123.85 135.06 121.96 138.01 119.22 140.19 115.92 141.36 112.41 141.4 109.09 140.29 106.3 138.17 104.35 135.25 
M 104.22 134.96 103.53 132.42 103.47 129.78 104.06 127.22 104.59 126.01 106.08 123.83 108.05 122.09 109.19 121.42 111.66 120.51 112.96 120.29 115.59 120.35 118.13 121.05 
M 105.85 134.28 105.5 133.24 105.18 131.07 105.42 128.82 
M 107.43 124.97 109.05 123.55 110 122.99 112.06 122.23 114.24 122 115.34 122.09 117.46 122.68 
M 107.48 133.61 107.02 131.91 106.94 131.03 107.1 129.45 
M 108.8 126.1 110.04 125.01 110.8 124.55 112.46 123.95 114.21 123.77 115.09 123.84 116.78 124.31 
M 110.18 132.63 109.82 131.28 109.89 130.37 
M 111.24 127.74 112.64 126.87 114.02 126.62 115.4 126.84 116.64 127.5 117.6 128.52 118.18 129.8 118.31 131.19 117.98 132.55 117.22 133.73 116.12 134.61 114.8 135.07 113.4 135.09 112.07 134.65 110.96 133.8 110.18 132.63 
M 111.26 127.72 111.24 127.74 
M 109.92 130.39 109.88 130.48 
M 113.04 126.8 112.11 128.67 
M 111.1 130.67 110.16 132.56 
M 114.42 126.69 112.92 129.69 
M 112.3 130.93 110.9 133.72 
M 115.61 126.95 113.83 130.51 
M 113.49 131.19 111.85 134.48 
M 116.65 127.51 114.77 131.28 
M 114.69 131.44 112.94 134.94 
M 117.52 128.43 114.19 135.08 
M 118.17 129.78 115.67 134.77 
M 88.22 159.82 88.64 160.25 
M 77.04 132.77 81.28 137 
M 80.01 130.44 83.44 133.87 
M 83.52 128.66 88.08 133.22 
M 87.11 126.95 90.8 130.65 
M 90.83 125.38 95.91 130.46 
M 94.58 123.84 99.36 128.62 
M 98.36 122.33 103.14 127.11 
M 102.17 120.84 105.75 124.42 
M 106.04 119.42 108.55 121.93 
M 110.07 118.16 112.42 120.51 
M 114.24 117.03 118.63 121.42 
M 118.4 115.9 122.63 120.13 
M 122.57 114.77 126.28 118.49 
M 126.72 113.63 131.49 118.4 
M 130.91 112.54 135.15 116.77 
M 135.12 111.44 140.06 116.39 
M 139.33 110.36 143.1 114.13 
M 143.71 109.46 148.01 113.75 
M 148.09 108.54 152.95 113.4 
M 152.41 107.56 156.46 111.61 
M 138.51 133.91 136.62 135.18 135.59 135.34 133.48 135.12 131.55 134.44 129.94 133.46 127.57 132.77 126.5 132.18 
M 91.56 164.15 92.9 163.61 94.29 161.81 95.7 161.19 
M 118.89 147.76 118.34 146.39 116.94 145.48 115.68 144.24 114.22 143.33 112.15 142.7 
M 124.47 132.52 124.61 132.71 
M 147.4 117.12 148.37 116.26 150.18 115.59 150.99 115.99 151.17 116.4 151.11 116.75 
M 120.7 168.58 120.29 170.11 120.08 173.27 119.2 174.29 118.9 174.44 118.64 174.38 
M 151.26 120.51 151.55 119.75 
M 153.24 156.78 154.49 157.43 154.86 157.96 154.42 158.98 153.2 159.88 
M 91.88 166.55 92.27 164.91 
M 111.25 151.51 109.99 150.85 109.45 150.09 109.11 148.68 109.22 147.59 108.84 146.76 108.06 146.2 107.31 146.07 
M 106.56 155.77 107.71 157.77 107.81 158.46 107.7 159.14 106.51 161.36 105.11 163.22 104.87 164.66 
M 144.6 117.66 143.4 115.74 142.56 115.09 140.6 114.42 138.41 114.24 
M 115.48 165.86 113.82 164.82 111.96 163.19 111.28 163.2 
M 123.66 126.64 125.14 127.81 125.26 128.38 124.64 131.3 
M 101.14 124.53 101.41 124.08 101.75 123.89 102.18 123.98 102.53 124.37 
M 138.56 164.86 137.56 164.69 135.97 164.82 132.1 164.33 131.42 164.37 129.38 165.04 128.44 165.02 
M 149.04 141.07 149.28 141.61 149.26 142.22 149 143.14 148.5 143.82 
M 142.91 184.9 144.11 186.62 145.97 188.06 
M 139.21 148.11 140.57 148.76 141.35 148.87 142.69 148.56 143.18 147.78 
M 149.87 117.7 150.3 117.61 150.43 117.96 
M 160.2 122.61 159.63 122.02 157.72 121.3 155.74 120.12 
M 87.92 159.05 88.01 159 
M 161.37 128.01 160.89 127.41 160.25 127.1 159.1 126.72 158.57 126.76 156 128.34 155.61 128.91 
M 115.43 117.36 115.42 116.71 
M 147.44 169.93 149.93 171.69 150.79 172.12 151.99 172.36 152.24 172.71 152.04 173.52 
M 154.04 141.82 152.57 144.15 151.08 146.11 150.87 146.77 151 147.56 
M 133.53 146.76 134.09 147.71 134.68 148.13 137.26 147.84 138.92 148.05 139.92 148.4 
M 151.74 161.37 151.62 162.19 
M 99.33 126.44 99.72 124.59 100.18 123.78 100.68 123.6 101.66 123.64 
M 152.18 180.62 151.25 178.41 149.54 175.88 149.52 175.29 150.28 174.26 150.67 173.94 151.64 173.65 
M 142.51 109.85 143.18 111.96 143.45 112.18 143.83 112.23 
M 133.79 134.66 132.76 134.45 130.19 133.3 127.23 132.59 126.13 131.98 125.5 132.04 
M 159.06 145.73 158.14 146.13 155.84 146.24 154.52 146.64 152.9 147.72 151.74 149.23 
M 127.72 175.03 127.18 174.77 126.83 175.29 
M 111.68 159.96 110.86 160.75 108.04 162.46 106.82 163.76 106.23 164.83 
M 133.93 121.04 131.12 118.22 129.19 115.28 127.52 113.42 
M 123.43 144.32 122.68 145.32 122.53 145.87 122.85 146.29 123.67 146.57 
M 157 150.88 155.45 150.68 154.25 150.84 152.79 150.68 152.43 150.77 152.36 151.09 
M 122.2 116.18 122.75 114.72 
M 146.98 173.25 149.33 173.37 151.61 173.26 151.94 173.33 152.01 173.54 
M 121.38 142.06 121.5 143.09 121.07 145.54 121.16 145.86 121.68 146.2 
M 98.3 142.09 97.05 141.76 94.64 142.55 92.36 142.42 90.25 141.42 88.86 140.12 
M 104.52 163.83 104.44 165.28 103.7 166.73 102.77 167.99 102.45 168.78 
M 144.22 176.4 144.47 175.57 145.03 174.58 146.04 173.67 147.31 173.27 150.4 173.32 
M 116.91 184.29 117.66 182.59 118.18 182.22 
M 138.83 176.18 138.34 176.39 137.99 176.28 137.66 175.58 137.23 173.85 135.85 172.22 
M 93.67 148.73 92.74 148.59 92.1 148.77 91.72 149.11 90.62 150.8 
M 132.6 178.1 133.2 177.42 133.64 176.59 133.93 175.78 134.24 173.49 133.24 168.89 132.1 167.1 
M 90.97 165.2 91.91 164.56 
M 116.05 179.5 116.97 180.64 118.08 181.43 
M 123.99 134.48 125.39 134.66 
M 118.31 164.7 117.24 166.66 117.1 167.21 117.31 168.57 118.08 169.54 
M 121.95 173.97 119.14 174.93 118.73 174.91 118.51 174.43 
M 128.23 131.32 125.6 131.65 125.01 132.16 124.94 132.69 
M 147.39 167.4 148.37 167.42 150.43 167.96 153.92 169.85 
M 84.31 137.61 83.39 137.82 80.48 139.07 
M 115.77 174.98 117.3 173.15 118.48 172.67 119.07 172.89 119.29 173.43 119.21 173.98 118.83 174.37 
M 150.02 121.79 149.48 121.83 148.22 123.3 
M 112.77 144.36 111.69 144.09 109.01 144.14 106.74 145.05 106.2 145.58 105.83 146.23 
M 148.5 174.17 150.78 173.44 151.82 173.41 151.98 173.6 
M 89.36 162.6 90.13 164.18 
M 83.85 154.59 83.43 155.52 84.14 155.16 
M 81.37 149.99 80.81 150.47 80.27 151.59 81.04 150.94 81.84 150.78 
M 78.8 145.54 77.87 146.24 77.11 147.65 78.1 146.72 79.26 146.41 
M 76.24 141.1 74.93 142.01 73.95 143.72 75.16 142.49 76.75 142 
M 73.9 136.52 71.98 137.79 70.8 139.78 72.22 138.26 74.32 137.55 
M 89.21 163.21 90.58 163.68 
M 85.36 161.34 86.02 161.11 86.16 161.66 
M 81.21 159.58 81.6 159.17 82.3 158.82 82.1 159.34 82.17 160.04 
M 77.15 157.8 77.65 157.1 78.58 156.54 78.15 157.27 78.12 158.24 
M 73.15 155.93 73.7 155.03 74.86 154.25 74.2 155.2 74.08 156.39 
M 69.18 153.98 69.75 152.97 71.13 151.97 70.25 153.14 70.07 154.38 
M 65.03 152.38 65.8 150.9 67.41 149.69 66.3 151.07 66 152.73 
M 60.81 150.93 61.86 148.83 63.69 147.4 62.36 149 61.92 151.15 
M 65.68 157.38 73.33 162.89 77.63 165.58 81.95 167.95 86.38 170.07 90.96 171.92 100.5 175.09 
M 74.63 163.01 75.48 162.63 77.17 162.4 
M 158.68 111.47 160.58 113.37 
M 159.97 105.71 168.98 114.71 
M 165.83 104.51 175.48 114.16 
M 172.15 103.77 178.52 110.14 
M 178.51 103.07 186.59 111.15 
M 184.92 102.43 193.47 110.97 
M 191.07 101.51 196.82 107.27 
M 197.17 100.56 206.4 109.79 
M 203.27 99.6 209.6 105.94 
M 209.5 98.78 219.6 108.88 
M 215.85 98.07 222.26 104.48 
M 222.51 97.67 228.27 103.43 
M 229.3 97.4 237.03 105.13 
M 236.18 97.23 242.92 103.96 
M 243.16 97.15 249.07 103.06 
M 250.28 97.21 259.31 106.24 
M 257.44 97.31 265.24 105.11 
M 264.56 97.38 271.36 104.17 
M 271.44 97.2 277.36 103.12 
M 278.41 97.11 287.98 106.68 
M 285.54 97.19 295.92 107.57 
M 293.14 97.73 301.77 106.36 
M 300.93 98.45 310.42 107.95 
M 308.81 99.28 316.68 107.15 
M 316.78 100.2 323.71 107.12 
M 324.86 101.22 332.86 109.21 
M 333.49 102.79 340.1 109.4 
M 342.51 104.75 347.89 110.13 
M 351.57 106.75 360.11 115.3 
M 360.45 108.58 366.78 114.91 
M 369.44 110.5 379.98 121.05 
M 379.19 113.2 389.48 123.49 
M 391.09 118.04 401.49 128.45 
M 146.44 189.89 146.59 190.19 
M 148.37 187.58 149.81 190.46 
M 150.17 185 153.03 190.72 
M 151.72 181.93 154.84 188.16 
M 152.99 178.29 154.43 181.16 
M 153.98 174.08 154.8 175.74 
M 154.98 169.92 155.15 170.26 
M 174.28 189.99 176.9 195.23 
M 175.32 185.91 180.5 196.26 
M 176.36 181.8 184.1 197.29 
M 176.61 176.12 187.68 198.27 
M 177.81 172.35 191.24 199.21 
M 181.79 174.13 192.92 196.4 
M 185.77 175.92 193.2 190.79 
M 189.75 177.7 194.27 186.75 
M 192.83 177.7 195.4 182.83 
M 195.76 177.37 195.83 177.52 
M 212.48 198.47 215.31 204.13 
M 212.23 191.78 218.52 204.37 
M 178.06 117.27 180.76 122.66 
M 212.78 186.71 221.72 204.6 
M 176.25 107.47 183.27 121.53 
M 214.12 183.22 224.93 204.83 
M 177.2 103.21 185.79 120.39 
M 215.22 179.25 228.02 204.84 
M 180.14 102.91 188.31 119.25 
M 217.97 178.57 231.09 204.81 
M 183.08 102.61 190.92 118.29 
M 220.05 176.56 232.4 201.25 
M 186.01 102.31 193.94 118.16 
M 222.28 174.84 232.96 196.2 
M 188.88 101.86 196.95 118.01 
M 224.72 173.54 232.67 189.44 
M 191.74 101.41 199.24 116.4 
M 227.42 172.77 233.17 184.26 
M 194.6 100.96 198.94 109.64 
M 230.29 172.33 233.66 179.07 
M 197.47 100.51 198.65 102.88 
M 232.47 170.51 234.16 173.89 
M 234.6 168.61 234.65 168.71 
M 251.22 201.85 252.06 203.52 
M 250.93 195.08 255.02 203.26 
M 251.43 189.92 258.02 203.09 
M 252.77 186.42 261.03 202.93 
M 253.33 181.35 264.03 202.76 
M 220.74 110 222.6 113.72 
M 253.88 176.28 267.1 202.73 
M 220.56 103.47 225.28 112.91 
M 255.28 172.91 270.2 202.75 
M 220.8 97.77 227.95 112.08 
M 255.91 168 273.09 202.35 
M 223.8 97.6 234.27 118.53 
M 257.33 164.67 273.11 196.23 
M 226.82 97.46 238.68 121.19 
M 257.99 159.8 273.77 191.36 
M 229.87 97.38 239.73 117.11 
M 259.46 156.56 275.24 188.12 
M 232.91 97.3 239.62 110.71 
M 260.14 151.74 275.92 183.31 
M 235.97 97.23 239.52 104.33 
M 260.03 145.36 277.39 180.08 
M 238.34 95.8 240.31 99.74 
M 260.82 140.77 278.18 175.49 
M 260.31 133.57 279.25 171.45 
M 259.8 126.37 279.53 165.83 
M 296.1 198.97 297.88 202.52 
M 259.29 119.18 280.59 161.78 
M 296.38 193.35 300.92 202.43 
M 259.57 113.56 280.87 156.16 
M 296.65 187.73 303.96 202.33 
M 259.84 107.94 281.94 152.12 
M 297.72 183.68 306.97 202.18 
M 259.33 100.74 281.43 144.92 
M 298 178.06 309.97 202.01 
M 258.82 93.54 280.92 137.73 
M 299.06 174.02 312.98 201.85 
M 256.73 83.18 281.19 132.11 
M 299.34 168.4 315.94 201.61 
M 257.01 77.56 281.47 126.49 
M 299.62 162.78 316.98 197.5 
M 256.89 71.16 280.96 119.29 
M 299.11 155.58 317.26 191.88 
M 258.75 68.69 281.24 113.67 
M 299.38 149.96 317.53 186.26 
M 260.6 66.23 281.51 108.05 
M 300.45 145.92 317.81 180.64 
M 262.46 63.76 281 100.85 
M 300.73 140.3 317.3 173.44 
M 264.32 61.3 277.33 87.34 
M 300.22 133.1 317.58 167.82 
M 266.17 58.83 276.03 78.56 
M 301.28 129.06 318.64 163.78 
M 268.03 56.37 277.1 74.52 
M 301.56 123.44 318.13 156.58 
M 338.48 197.28 338.71 197.75 
M 269.88 53.91 277.38 68.9 
M 301.84 117.82 318.41 150.96 
M 337.35 188.83 341.48 197.1 
M 271.74 51.44 278.44 64.86 
M 302.12 112.2 318.69 145.34 
M 336.83 181.64 344.25 196.47 
M 273.59 48.98 277.93 57.66 
M 302.32 106.43 318.89 139.57 
M 337.04 175.86 347.06 195.9 
M 275.45 46.51 278.21 52.04 
M 301.08 97.78 319.23 134.07 
M 336.59 168.79 349.86 195.34 
M 277.3 44.05 278.48 46.41 
M 301.95 93.34 319.7 128.84 
M 337.06 163.56 352.67 194.78 
M 279.16 41.59 279.41 42.08 
M 307.96 99.19 320.98 125.23 
M 337.55 158.37 355.5 194.27 
M 311.23 99.55 321.88 120.86 
M 338.45 154 358.35 193.8 
M 314.5 99.92 322 114.91 
M 337.78 146.47 360.74 192.39 
M 317.79 100.32 322.13 109 
M 337.91 140.56 361.58 187.9 
M 321.08 100.72 321.47 101.51 
M 338.04 134.65 360.93 180.42 
M 338.97 130.33 358.69 169.78 
M 340 126.21 354.99 156.19 
M 340.24 120.52 354.44 148.92 
M 338.91 111.68 354.69 143.25 
M 339.22 106.13 355.79 139.27 
M 341.51 104.53 356.11 133.72 
M 382.14 185.8 383.52 188.55 
M 344.98 105.29 357.21 129.75 
M 380.88 177.1 386.13 187.6 
M 348.45 106.06 356.73 122.63 
M 379.62 168.4 388.74 186.64 
M 351.92 106.83 357.84 118.66 
M 374.41 151.8 391.35 185.69 
M 355.37 107.56 358.14 113.08 
M 373.13 143.07 393.87 184.55 
M 358.81 108.25 359.2 109.04 
M 373.4 137.44 395.97 182.58 
M 373.68 131.82 398.07 180.61 
M 373.98 126.24 400.17 178.64 
M 374.3 120.7 401.12 174.36 
M 374.61 115.17 400.65 167.24 
M 376.25 112.27 397.95 155.67 
M 379.93 113.44 394.52 142.63 
M 383.6 114.61 391.88 131.18 
M 387.6 116.44 390.37 121.97 
"/></svg>