<svg xmlns="http://www.w3.org/2000/svg" width="520" height="320"><rect x="0" y="0" width="520" height="320" fill="floralwhite"/><rect x="10" y="10" width="500" height="300" stroke="black" stroke-width="1" fill="none"/><path stroke="black" stroke-width="1" fill="none" stroke-linecap="round" stroke-linejoin="round" d="
M 116.32 138.82 123.13 137.57 133 136.11 142.94 135.11 162.87 133.95 192.72 131.55 202.69 130.95 212.67 130.63 232.63 130.36 262.59 130.49 282.55 130.31 292.53 130.5 302.51 130.92 332.41 132.69 342.36 133.52 391.95 139.16 401.84 140.54 411.67 142.33 421.36 144.73 430.17 149.42 434.95 152.21 
M 434.95 227.74 421.8 234.12 412.01 236.06 402.13 237.54 392.21 238.68 372.33 240.53 342.58 243.95 332.63 244.79 322.66 245.3 292.71 245.91 262.76 245.89 232.83 247.03 222.85 247.26 212.87 247.25 202.89 246.86 192.94 246.05 183.02 244.96 173.12 243.67 153.37 240.71 143.47 239.4 133.54 238.43 128.65 238.11 
M 228.6 180.16 232.34 179.6 
M 235.68 178.97 240.76 178.06 242.33 177.62 
M 265.45 172.75 270.39 171.74 274.15 171.55 280.48 172 
M 284.55 172.18 288.26 172.02 
M 291.75 171.68 293.48 171.49 297.22 171.41 306.76 171.49 
M 310.93 171.87 313.18 172.21 315.74 172.83 
M 320.75 173.91 323.2 174.38 327.52 174.67 335.63 174.53 344.97 175.45 349.53 175.73 366.09 175.09 373.84 174.26 391.41 172.98 
M 395.14 172.67 400.6 172.19 404.41 172.16 412.32 172.64 419.28 172.58 423.22 173.2 433.85 176.73 
M 124.06 141.58 122.91 143.09 121.92 144.8 
M 129.56 235.84 129.87 236.42 
M 125.97 154.15 125.38 155.29 
M 134.56 227.43 136.81 231.64 
M 135.14 152.92 132.79 155.95 
M 139.26 218.32 141.26 222.4 
M 150.33 142.01 147.86 147.47 146.86 149.13 
M 142.1 155.05 139.48 157.8 
M 137.04 160.74 134.74 163.86 
M 132.46 167.01 130.59 169.63 
M 148.53 218.12 152.25 226.13 
M 157.55 139 156.24 142.94 
M 153.04 150.31 152.13 152.05 151.04 153.63 
M 146.53 159.8 144.37 163.01 
M 156.63 214.03 157.26 215.45 
M 165.12 234.24 166.44 237.7 
M 167.93 241.29 168.68 243.03 
M 166.58 137.76 165.64 139.43 163.99 145.65 
M 162.86 149.79 161.45 153.67 
M 157.42 160.25 155.12 163.29 
M 173.02 228.88 177.03 239.44 
M 178.67 243.22 179.22 244.47 
M 178.75 139.7 177.42 140.98 175.01 143.81 174.08 145.5 
M 171.39 153.33 170.47 157.69 
M 167.7 165.52 165.72 168.86 
M 178.84 218.99 182.87 229.76 
M 184.24 233.34 185.69 236.99 
M 187.12 240.6 188.53 244.15 
M 186.41 147.71 184.89 148.81 182.13 151.32 180.12 154.58 177.93 162.97 176.47 166.81 173.98 172.31 
M 181.93 205.41 187.7 217.4 189.3 221.28 191.19 226.56 
M 197.11 241.32 199.41 246.58 
M 205.72 136.02 202.08 142.93 
M 195.41 152.07 192.58 154.52 
M 189.65 156.87 188.17 158.05 187.05 159.58 
M 190.41 201.64 194.99 211.69 
M 200.4 223.94 203.5 231.51 
M 205.05 235.28 206.53 238.95 
M 208.01 242.61 210.02 247.14 
M 208.09 149.55 207.25 151.37 205.28 154.7 203.99 156.07 
M 195.61 163.64 194.42 165.12 192.7 168.73 192.07 170.77 
M 203.22 207.89 212.56 228.5 
M 214.11 232.27 216.47 237.92 219.22 243.92 
M 217.54 149 216.53 150.65 214.8 154.26 213.3 158.1 212.37 159.85 
M 210.24 163.07 206.52 167.39 204.2 170.42 203.15 172.05 
M 214.72 209.48 217.55 216.81 
M 220.85 224.55 224.06 232.16 
M 229.13 243.74 230.51 247.08 
M 233.51 138.83 231.3 141.98 
M 229.22 145.25 227.24 148.63 
M 225.4 152.15 224.51 153.95 222.98 157.8 220.15 165.73 217.3 170.97 
M 215.28 174.34 214.8 175.11 
M 225.32 210 226.98 215.03 229.3 220.68 
M 235.97 236.15 239.47 243.97 
M 235.59 152.29 232.35 157.15 230.57 160.78 227.28 168.32 226.58 170.33 
M 229.33 197.13 231.25 201.29 
M 235.56 212.33 238.45 219.68 
M 239.97 223.42 241.41 227.07 
M 244.8 234.84 248.21 242.57 
M 249.41 245.9 249.56 246.33 
M 257.07 136.55 254.76 139.64 
M 252.43 142.71 245.72 152.22 
M 243.54 155.48 239.49 162.31 
M 235.5 169.22 234.62 171.06 233.17 175.85 
M 233.08 176.18 232.14 179.64 
M 241.15 203.23 242.35 206.68 
M 243.76 210.35 247.87 221.18 
M 251.22 228.96 253.62 234.65 257.91 246.03 
M 258.68 149.27 254.53 153.28 251.88 156.09 249.55 159.23 245.47 166.1 243.69 169.8 242.96 171.81 
M 248.29 197.93 249.23 201.15 
M 250.25 204.45 252.75 212.64 254.24 216.39 260.77 229.64 262.33 233.4 263.95 238.28 
M 276.28 134.81 274.55 138.48 
M 272.77 142.09 270.95 145.68 
M 266.82 152.44 265.59 153.94 261.24 157.81 
M 255.74 163.31 253.23 166.3 
M 250.89 169.47 249.78 171.13 248.09 174.99 
M 253.48 188.34 254.74 191.9 
M 258.43 202.53 261.15 211.01 262.02 213.02 
M 264.07 217.36 267.65 224.34 273.66 238.08 
M 275.22 241.78 276.93 245.93 
M 279.69 144.25 277.63 147.62 
M 275.34 150.8 272.91 153.85 
M 270.46 156.89 264.44 164.68 259.38 170.7 257.12 173.69 
M 263.18 190.16 264.91 194.23 
M 266.58 198.24 268.03 202.03 
M 269.18 205.52 270.82 210.66 273.38 216.68 
M 275.34 220.92 279.44 229.53 
M 281.32 233.62 286.42 245.94 
M 283.74 149.34 279.19 155.78 
M 274.58 162.25 273.39 163.84 268.17 169.75 266.32 172.57 
M 269.89 181.96 271.73 186.16 
M 273.4 190.19 274.95 194.11 
M 276.43 197.96 278.35 203.43 280.46 210.24 282.05 214.17 287.2 225.05 
M 290.99 233.29 292.76 237.23 
M 294.44 241.06 296.46 245.86 
M 297.72 137.38 296.86 139.21 291.66 147.59 
M 287.71 154.65 282.65 163.47 280.26 166.67 278.9 168.1 
M 276.54 170.56 275.56 171.59 
M 285.95 197.43 287.4 201.27 
M 288.84 205.09 291.22 211.02 295.06 219.51 300.91 233.22 
M 302.57 237.05 306.1 245.71 
M 307.35 132.22 306.33 133.87 305.5 135.72 
M 303.84 139.44 303.02 141.31 298.86 148.05 296.9 151.59 291.5 162.83 288.55 168.27 
M 286.87 171.12 286.21 172.2 
M 294.9 194.02 300.71 207.02 
M 304.37 215.4 306.46 220.96 309.71 230.94 314.15 241.74 315.9 245.5 
M 311.95 143.64 311.16 145.57 309.25 149.12 304.62 155.49 300.72 162.69 295.32 171.4 
M 304.56 193.8 312.01 209.58 313.84 213.75 315.98 219.29 
M 317.12 222.65 318.1 225.81 
M 319.07 228.91 320.1 232 
M 321.26 235.18 323.57 240.44 325.67 244.42 
M 328.98 132.47 325.71 137.06 
M 323.55 140.4 321.54 143.9 
M 317.55 150.99 314.35 156.13 310.36 163.31 306.67 169.09 
M 314.81 194.11 317.36 198.97 
M 321.56 207.71 326.79 221.51 
M 328.07 224.82 330.12 229.82 335.79 242.39 
M 332.02 145.01 329.16 150.53 324.82 157.46 322.76 161.05 319.42 169.05 316.55 173.02 
M 326.78 195.58 328.65 199.61 
M 331.29 206.48 334.65 214.9 338.12 222.22 340.81 228.58 344.22 235.51 346.98 240.66 
M 343.32 141.24 342.27 142.99 340.62 146.97 339.17 151.16 337.48 155.14 331.93 166.72 328.5 174.67 
M 338.15 195.85 343.74 209.25 
M 346.52 215.71 350.55 224.15 358.67 239.04 
M 352.15 146.08 350.92 147.67 349.93 149.52 
M 348.21 153.47 345.31 162 
M 343.74 166.18 342.93 168.25 341 172.1 339.35 174.8 
M 347.12 189.49 348.93 193.23 
M 350.39 196.57 351.74 199.79 
M 354.49 206.16 361.01 220.38 363.59 225.43 
M 365.41 228.86 369.16 236.25 
M 369.65 136.63 367.74 140.64 
M 363.43 147.56 362.27 149.22 360.2 152.81 356.53 160.53 354.88 164.62 351.66 174.54 
M 356.46 185.57 361.95 196.42 
M 365.3 203.21 370.4 214.91 
M 371.97 218.09 374.37 222.88 377.43 230.33 
M 376.42 145.25 375.49 147.12 373.19 150.42 370.67 153.52 368.57 157.07 361.86 175.23 
M 366.82 184.52 368.59 187.99 
M 370.6 191.67 372.74 195.47 
M 374.68 199.03 376.99 203.76 382 215.1 385.59 225.06 387.33 228.8 
M 388.62 142.67 387.37 144.18 385.26 147.6 381.85 155.31 377.6 162.27 375.68 166 372.15 174.44 
M 380.6 190.14 383.92 195.82 386.53 200.76 
M 387.9 203.67 390.82 210.48 393.68 218.1 394.9 220.95 397.93 227.13 
M 401.08 140.44 400.75 140.85 
M 398.45 144.01 396.33 147.34 
M 394.38 150.87 393.45 152.69 390.21 160.47 388.27 164.08 382.33 173.66 
M 386.94 182.13 388.72 185.44 
M 395.73 198.54 399.13 205.79 402.26 213.72 407.3 224.62 
M 408.43 146.52 400.33 157.36 398.36 160.84 395.01 168.47 392.26 172.91 
M 399.28 186.6 401.14 189.96 
M 402.87 193.19 405.22 197.83 409.33 206.7 412.91 213.59 417.22 222.92 
M 415.16 154.52 411.36 158.77 404.7 168.28 401.73 172.13 
M 411.17 186.09 419.78 199.63 425.13 208.56 431.43 218.44 
M 219.99 234.32 220.4 234.55 221.58 234.69 223.07 235.35 223.96 235.36 
M 328.64 238.48 327.26 238.7 326.02 239.22 323.38 240.75 323.16 241.23 323.38 242.32 
M 337.06 234.67 333.37 233.45 332.75 233.53 331.22 234.29 328.74 234.34 
M 370 180.41 371.01 180.33 372.1 179.91 376.25 177.32 377.62 176.25 381.24 175.22 383.43 174.28 
M 407.01 209.7 409.22 203.7 409.76 203.1 410.25 202.94 
M 384.64 224.43 387.91 222.34 389.31 221.65 389.87 221.47 390.92 221.54 
M 367.48 198.92 368.53 198.91 369.84 199.24 370.67 200.03 371.99 202 
M 347.36 217.98 345.6 218.33 341.88 218.52 340.06 218.98 339.04 219.55 338.04 221.04 
M 279.94 244.03 278.74 243.84 276.71 243.21 274.49 242.24 273.41 242.02 272.92 242.04 272.07 242.48 271.26 243.49 
M 316.84 168.1 316 167.6 314.23 165.21 313.98 163.45 314.09 163.03 314.67 162.5 
M 414.13 207.04 413.15 208.21 412.49 208.67 411.61 209.09 410.98 209.16 410.37 208.89 410.14 208.59 409.51 206.71 
M 258.04 244.79 256.15 244.44 255.34 244.4 254.64 244.56 253.53 245.32 252.9 246.18 
M 168.47 223.5 164.87 225.56 161.78 225.85 
M 231.14 243.1 232.3 240.45 232.36 239.39 231.92 236.39 232.06 235.64 232.71 234.2 
M 255.2 241.94 252.5 242.51 250.44 243.23 249.55 243.87 247.42 246.42 
M 288.39 153.5 287.63 154.47 287.14 155.7 287.79 158.44 289.1 160.01 291.44 161.88 292.06 162.81 
M 310.27 201.17 310.42 200.39 311.58 197.44 311.71 196.35 311.48 195.47 310.41 194.75 309.47 194.45 306.15 193.88 
M 370.51 170.8 370.15 171.09 369.27 171.27 368.47 170.85 367.85 169.98 366.99 167.21 366 165.67 
M 352.94 166.41 354.84 163.05 355.37 159.1 355.65 158.25 
M 301.84 233.28 301.44 233.4 301.18 234.2 301.01 235.89 301.07 237.41 
M 131.79 233.44 132.13 233.23 133.07 233.56 133.65 233.31 
M 264.46 170.96 264.85 172.21 264.75 174.62 264.29 175.43 263.35 176.32 262.95 176.44 
M 276.3 187.26 274.78 186.6 273.01 186.21 271.18 186.67 266.8 189.9 265.98 190.83 264.44 193.06 
M 199.86 227.83 197.38 226.1 196.39 223.58 196.36 222.77 196.58 222.38 197.79 221.48 
M 246.89 200.91 248.21 198.46 248.64 196.58 248.65 194.96 248.08 193.97 247.79 193.01 
M 399.02 172.11 399.37 171.98 399.46 171.55 
M 287.39 210.27 284.4 206.55 284.37 205.64 284.81 204.64 285.62 203.92 287.08 203.28 288.44 203.09 
M 406.13 168.29 401.37 166.93 400.87 166.59 400.6 166.13 400.35 164.98 399.8 164.05 398.89 163.42 397.77 163.29 
M 198.03 160.11 201.85 163.12 203.58 165.48 204.02 165.82 204.76 166.01 205.55 165.58 
M 239.53 147.57 240.35 148.62 240.71 149.62 240.39 151.6 
M 156.86 240.48 156.32 239.75 156.06 238.99 156.35 237.64 156.32 235.52 
M 420.49 172.83 421.13 173.33 421.19 174.05 420.72 174.73 420.23 174.96 419.84 174.81 419.84 174.44 
M 177.62 132.77 177.62 132.77 
M 184.49 132.19 194.83 96.84 195.2 93.55 195.94 90.64 197.52 88.55 199.73 87.11 200.69 84.42 201.11 81 201.9 77.72 203.78 75.54 205.36 73.07 206.69 70.44 208.38 64.34 209.54 61.53 211.88 59.77 214.57 58.36 217.34 52.92 220.39 52.47 224 52.57 233.44 50.51 235.79 48.95 239.65 45.24 242.99 44.92 245.65 43.87 247.23 41.69 253.29 39.93 255.65 38.2 258.5 36.97 260.49 34.88 262.9 33.55 266.3 30 276.3 36.46 278.8 38.79 281.41 40.9 287.28 42.01 290.13 43.31 292.29 45.24 294.82 44.5 296.77 43.02 300 42.66 303.85 42.93 306.36 41.35 308.71 39.61 312.35 35.07 313.43 32.11 315.99 30.81 319.31 30.98 323.12 33.24 325.95 36.32 327.24 38.82 327.43 40.22 329.39 42.22 333.78 44.69 335.62 48.52 337.05 52.13 337.94 55.2 338.58 57.8 338.09 59.1 338.31 61.1 338.85 63.41 344.33 69.62 347.39 74.55 351.4 79.22 352.66 82.69 356.34 89.38 357.53 93.15 357.83 98.55 359.01 103.6 359.96 106.48 361.98 114.39 355.22 134.91 
M 349.18 134.2 349.18 134.19 
M 182.44 132.36 184.47 130.61 185.48 128.37 185.53 125.61 186.51 123.25 186.3 120.56 187.31 117.12 187.17 114.8 188.02 112.29 188.59 109.49 189.71 107.16 
M 187.26 131.95 188.73 130.26 190.59 125.39 191.31 122.78 192.42 111.27 192.41 105.85 194.76 103.9 
M 192.08 131.59 193.28 129.89 195.62 125.14 196.57 122.11 197.21 115.86 197.66 113.39 197.38 110.22 197.73 107.37 198.79 105.32 199.4 102.85 200.42 100.29 201.77 97.58 202.61 95.29 
M 196.91 131.29 198.25 129.26 200.69 123.8 201.32 121.19 201.52 118.32 202.32 117.15 203.03 114.39 203.77 110.25 203.16 104.45 204.34 101.86 205.72 99.96 207 95.08 209.75 90.56 211.49 83.59 210.32 80.51 209.25 78.33 210.56 75.78 
M 201.74 130.99 203.13 128.77 204.48 126 206.19 120.66 206.57 118.43 207.43 116.27 207.96 113.32 207.83 110.3 208.66 107.54 209.79 105.51 210.6 102.98 210.94 100.03 210.82 96.15 212.19 94.55 
M 206.57 130.82 207.94 128.84 208.97 126.16 210.02 123.31 211.4 117.79 213.34 112.74 213.84 109.78 215.14 107.77 215.98 105.66 216.98 99.94 217.22 93.84 218.14 91.33 219.87 88.8 220.94 83.3 220.31 78.79 
M 211.41 130.67 213 128.63 215.07 123.47 215.82 120.84 216.22 118.43 217.05 115.52 217.99 113.04 218.66 110.33 220.54 104.67 221.92 99.74 222.89 97.02 222.9 94.17 222.3 91.38 224.56 86.85 224.87 82.16 225.38 78.57 226.17 75.89 226.38 73.96 228.66 72.04 
M 216.24 130.55 217.65 128.4 218.8 125.98 220.17 123.77 220.83 121.2 221.89 118.92 222.61 116.05 223.4 110.02 226.23 103.68 226.39 101.07 228.31 97.88 228.24 94.62 228.41 91.17 230.92 85.18 232.21 80.35 234.35 77.66 235 74.92 235.45 71.67 236.72 68.88 237.02 63.26 236.43 59.31 
M 221.08 130.48 222.69 128.22 224 125.86 224.83 123.29 225.88 120.94 226.12 118.41 228.19 113.44 228.85 110.28 230.44 107.7 232.71 99.81 233.08 97.78 234.2 94.71 234.49 91.03 236.21 87.4 236.74 82.7 238.07 80.38 238.78 77.28 
M 225.92 130.4 227.64 128.43 229.78 122.98 230.36 120.54 230.99 116.41 231.78 113.42 233.06 110.21 236.14 104.73 238.11 100.62 239.08 98.18 239.46 95.36 239.11 88.55 
M 230.75 130.37 232.58 128.29 233.78 125.63 235.91 118.07 236.23 115.33 238.58 109.77 239.96 107.63 240.8 105.53 241.42 102.76 242.65 99.96 244.15 98.21 244.27 95.37 243.92 92.46 243.38 90.33 243.95 87.32 245.22 82.74 247.29 79.12 247.82 76.57 248.55 75.24 
M 235.59 130.34 237.07 128.42 237.92 125.64 238.45 123.28 240.61 117.79 242.88 112.61 244.47 108.35 245.33 105.55 246.8 99.32 246.97 96.83 248.74 91.04 248.78 87.28 249.26 84.36 250.45 82.35 252.21 80.64 254.13 79.23 254.31 76.05 256.38 72 257.39 65.49 257.52 62.49 256.55 58.01 257.27 55.26 258.79 53.16 259.55 51.79 260.31 49.22 260.65 45.31 
M 240.43 130.34 241.49 128.27 242.46 125.69 244.68 120.68 245.51 117.93 246.92 115.37 248.91 109.76 251.6 99.19 251.5 96.23 252.46 93.78 252.89 90.23 254.48 84.19 257.02 80.59 257.37 77.16 258.47 74.34 259.85 71.44 261.41 69.14 262.3 66.57 263.18 62.96 263.08 57.27 264.01 55.63 
M 245.26 130.38 246.82 128.62 249.54 123.87 250.46 120.91 251.21 117.43 252.1 114.58 252.76 111.81 253.81 109.4 255.2 104.53 256.23 101.56 256.49 99.37 257.43 97.61 259.2 91.69 259.89 86.26 261.75 82.55 262.08 79.25 264.19 73.99 264.9 71.56 267.15 69.11 267.98 66.33 268.17 64.08 269.68 60.58 271.98 57.96 271.87 55.35 273.02 53.14 
M 250.1 130.42 251.84 128.49 253.33 126.32 254.46 123.94 256.09 117.84 258.17 111.94 258.45 109.55 258.98 106.83 259.72 104.3 261.08 102.85 262.32 100.95 262.71 98.57 263.91 95.45 265.77 89.14 
M 254.94 130.45 256.58 128.36 259.16 120.93 261.64 115.19 262.46 112.59 262.96 109.59 264.1 107.35 264.87 104.73 266.36 102.84 266.95 100.55 267.27 97.53 268.48 94.81 269.94 92.6 271.44 86.07 271.54 82.69 
M 259.77 130.47 261.57 128.37 263.02 123.41 264.15 120.59 265.75 118.18 269.04 110.43 269.57 107.85 270.71 105.04 271.55 99.98 272.67 98.38 273.39 95.66 275.12 91.54 275.34 87.96 276.57 85.06 277.21 80.18 279.1 76.17 280.85 68.83 283.78 63.13 
M 264.61 130.47 266.14 128.59 267.13 125.88 269.31 120.83 270.78 118.91 272.05 116.62 273.97 110.4 274.94 104.23 276.3 101.78 277.63 97.35 279.01 94.32 280.07 90.45 281.23 88.4 281.89 85.84 281.45 84.05 282.6 78.68 
M 269.45 130.4 270.77 128.4 273.32 122.96 274.12 120.81 275.39 118.38 276.73 112.8 277.95 110.11 278.31 106.58 279.6 102.78 281.4 98.87 283.41 96.25 284.16 93.78 284.8 90.44 285.57 88.04 286.44 83.56 287.51 81.25 288.99 79.23 289.14 76.33 289.39 74.5 290.97 71.55 291.9 69.37 292.43 64.99 292.51 60.72 293.34 58.75 294.32 55.1 294.6 52.74 
M 274.28 130.33 275.94 128.38 278.02 123.04 279.85 117.76 280.53 114.98 281.28 112.85 283.14 106.11 283.74 103.29 286.68 99.39 288.17 93.48 288.24 90.03 289.75 88.7 290.56 85.93 291.11 82.98 292.05 81.33 293.63 79.47 295.02 76.87 295.21 73.83 296.34 71.23 296.52 68.67 296.3 65.59 297.04 61.99 299.19 59.39 299.75 56.82 
M 279.12 130.31 280.72 128.28 281.7 125.75 282.38 123.31 284.19 118.2 284.71 115.56 285.51 112.97 287.17 109.47 287.76 106.02 288.89 102.95 291.32 99.05 293.58 93.73 294.73 88.09 295.79 85.39 297.34 82.96 298.25 78.16 298.14 74.47 299.8 72.17 300.24 70.91 300.59 68.61 301.46 64.94 305.15 59.67 305.69 56.98 
M 283.96 130.32 285.36 128.37 288.1 120.59 288.77 118.04 289.77 115.27 290.93 112.87 293.32 106.73 293.87 104.51 296.46 99.29 297.42 96.12 298.84 93.23 300.52 90.34 301.4 87.89 301.77 85.34 302.77 83.64 
M 288.79 130.36 290.11 128.47 292.38 123.46 295.08 115.67 296.66 113.03 299.16 107.97 299.76 105.96 302.72 99.13 303.31 95.4 304.64 93.43 306.32 91.84 307.08 86.37 309.01 84.17 310.32 81.79 311.25 79.22 312.49 76.42 313.15 72.55 313.01 68.88 314.8 63.21 316.27 59.86 317.27 58.14 317.6 55.68 317.31 52.71 318.94 52.38 320.73 50.8 320.93 46.55 321.5 41.87 321.37 39.1 322.05 36.6 
M 293.63 130.54 295.23 128.69 296.3 126.62 297.22 124.03 298.7 121.57 299.57 118.5 301.23 115.77 302.18 113.02 305.19 108.34 306.1 105.57 307.61 103.11 308.86 99.97 311.54 94.8 312.53 90.15 312.76 87.28 314.59 84.29 315.58 81.52 317.24 79.12 317.78 76.95 320.6 69.68 322.34 65.71 322.99 63.49 322.74 62.12 321.18 59.08 
M 298.46 130.73 300.14 128.92 302.61 124.45 303.47 121.94 306.08 115.66 307.32 112.92 308.84 110.57 309.68 108.17 310.43 104.99 312.3 102.01 315.11 98.56 316.22 96.2 316.91 93.34 317.86 90.35 320.53 82.83 321.98 81.24 324.45 74.1 325.27 70.29 325.15 67.95 325.64 65.57 325.49 62.91 327.46 59.59 
M 303.29 130.96 304.96 129.3 306.59 127.25 308.27 124.71 309.82 122 311.65 116.29 312.9 113.59 313.8 111.15 314.49 108.18 315.59 105.5 318.05 101.22 319.12 95.61 320.93 93.73 322.75 90.57 325.55 85.05 326.8 80.49 328.11 77.65 330.01 71.92 330.04 68.8 331.62 66.35 
M 308.12 131.22 309.87 129.5 313.54 125.16 314.89 122.88 314.94 120.41 315.81 117.52 316.73 115.52 317.6 112.41 319.22 109.91 322.83 102.37 323.32 99.33 
M 312.95 131.48 316.84 127.8 318.3 125.63 320.44 121.06 320.79 118.39 321.72 116.08 323.27 113.46 324.94 111.36 326.86 108.42 327.9 105.87 328.35 103.24 329.6 99.95 331.29 96.87 332.25 93.74 
M 317.78 131.77 320.17 129.99 321.88 128.07 324.99 123.65 325.9 120.8 327.25 118.15 328.34 115.19 330.14 112.4 331.17 111.19 331.89 108.79 332.97 106.32 333.59 103.29 335.75 96.07 336.24 93.71 338.05 92.44 340.46 89.17 341.93 85.7 341.86 82.59 343.22 80.11 
M 322.61 132.05 325.05 130.27 328.48 125.69 329.91 123.1 333.04 118.4 335.96 110.41 336.19 107.99 
M 327.44 132.36 329.9 130.68 331.85 128.5 334.53 123.01 337.24 118.76 337.57 116.26 338.92 113.75 339.45 111.13 341.17 105.57 343.19 103.1 343.79 100.06 345.47 98.56 346.37 95.62 348.42 92.91 351.54 91.7 
M 332.26 132.68 334.41 131.27 336.52 129.25 337.84 125.99 340.98 121.61 342.85 116.43 344.7 114.1 346.06 108.45 349.14 100.95 
M 337.09 133 339.05 131.7 342.49 127.41 343.96 125.16 345.14 122.72 348.71 118.47 350.84 116.37 352.43 109.33 353.54 106.1 
M 341.9 133.48 344.28 132.96 345.76 130.97 346.81 128.69 347.72 126.23 349.64 123.85 352.54 121.2 
M 346.71 133.95 349.69 133.72 351.34 131.46 353.83 127.06 
M 130.67 170 248.59 175.3 248.56 176.27 131.4 173.48 
M 131.5 173.94 239.08 181.72 239.02 182.69 132.13 177.43 
M 132.22 177.92 229.52 187.64 229.44 188.6 132.43 181.37 
M 132.42 181.87 219.94 193.06 219.83 194.02 132.45 185.31 
M 132.48 185.81 210.35 197.99 210.22 198.94 132.69 189.28 
M 132.73 189.79 200.78 202.41 200.62 203.37 132.76 193.23 
M 132.77 193.74 191.24 206.35 191.05 207.3 132.61 197.14 
M 132.57 197.64 181.75 209.79 181.54 210.73 132.3 201.02 
M 132.26 201.49 172.33 212.74 172.1 213.68 131.96 204.87 
M 131.92 205.32 163 215.2 162.74 216.13 132.17 208.84 
M 132.22 209.35 153.78 217.18 153.5 218.11 132.38 212.79 
M 132.39 213.41 144.69 218.69 144.38 219.61 132.42 216.65 
M 132.44 217.13 135.75 219.2 135.42 220.11 132.53 219.7 
M 236.7 175.99 234.18 176.01 231.95 176.54 231.01 177.09 230.18 177.83 229.45 178.76 228.18 180.93 
M 228.11 182.15 225.63 182.05 223.43 182.46 222.49 182.96 221.65 183.67 220.9 184.55 219.59 186.65 
M 219.48 187.86 217.06 187.64 214.88 187.94 213.93 188.39 213.09 189.05 212.33 189.89 210.97 191.91 
M 210.83 193.13 208.46 192.78 206.31 192.98 205.37 193.38 204.52 193.99 203.74 194.79 202.34 196.73 
M 202.17 197.94 199.86 197.48 197.75 197.56 196.82 197.92 195.96 198.48 195.17 199.24 193.73 201.11 
M 193.53 202.31 191.28 201.73 189.22 201.71 188.28 202.01 187.42 202.53 186.63 203.25 185.15 205.03 
M 184.92 206.23 182.74 205.54 181.7 205.38 180.72 205.41 179.8 205.66 178.13 206.81 176.61 208.52 
M 176.35 209.71 174.25 208.91 172.28 208.67 171.37 208.88 170.51 209.31 169.69 209.94 168.14 211.56 
M 167.84 212.74 165.83 211.84 163.92 211.5 163.02 211.66 162.16 212.04 161.33 212.63 159.75 214.17 
M 159.42 215.34 157.5 214.33 156.56 214.01 155.65 213.89 154.76 214.01 153.07 214.88 151.46 216.34 
M 151.1 217.5 149.27 216.39 147.48 215.86 146.61 215.93 145.76 216.22 144.93 216.71 143.28 218.08 
M 142.89 219.24 141.25 217.92 139.58 217.18 138.73 217.14 137.87 217.33 136.99 217.72 135.24 218.88 
M 235.42 175.96 233.02 176.19 231.95 176.54 231.01 177.09 230.18 177.83 228.8 179.81 
M 210.82 175.42 208.98 175.59 208.17 175.86 206.81 176.86 205.75 178.37 
M 186.23 174.88 184.38 175.19 183.43 175.88 182.7 176.93 
M 226.85 182.06 224.49 182.17 223.43 182.46 222.49 182.96 221.65 183.67 220.23 185.56 
M 204.26 181 202.44 181.08 201.63 181.31 200.26 182.23 199.18 183.68 
M 181.66 179.94 179.84 180.15 178.88 180.79 178.13 181.81 
M 218.25 187.71 215.92 187.7 214.88 187.94 213.93 188.39 213.09 189.05 211.63 190.87 
M 187.37 185.5 185.85 185.49 185.18 185.65 184.01 186.37 183.06 187.55 
M 209.63 192.92 207.35 192.79 206.31 192.98 205.37 193.38 204.52 193.99 203.03 195.72 
M 181.76 190.23 180.28 190.15 179.61 190.27 178.44 190.93 177.47 192.06 
M 201 197.67 198.77 197.43 197.75 197.56 196.82 197.92 195.96 198.48 194.44 200.14 
M 176.16 194.68 174.71 194.52 174.04 194.61 172.88 195.21 171.89 196.28 
M 192.39 201.98 190.22 201.62 189.22 201.71 188.28 202.01 187.42 202.53 185.88 204.1 
M 183.82 205.85 181.7 205.38 180.72 205.41 179.8 205.66 178.94 206.14 177.36 207.63 
M 175.29 209.27 173.24 208.69 172.28 208.67 171.37 208.88 170.51 209.31 168.91 210.71 
M 166.83 212.25 164.86 211.57 163.92 211.5 163.02 211.66 162.16 212.04 160.53 213.36 
M 214.38 247.31 219.64 253.85 223.25 257.89 230.05 267.58 229.42 270.81 228.23 273.48 224.12 277.03 221.42 278.4 218.93 280 215.52 279.33 208.52 277.16 203.48 275.07 201.27 275.05 198.25 274.75 196.98 277.33 193.45 277.38 191.27 277.19 188.75 276.66 186.88 275.52 183.34 272.41 180.34 270.05 175.27 268.23 173.67 267.36 166.65 262.04 159.67 252.83 153.11 240.67 
M 209.55 247.12 212.91 251.07 215.9 253.93 218.4 257.07 220.35 260.13 221.57 263.4 223.13 266.58 226.91 268.41 
M 204.72 246.93 213.1 256.09 215.7 259.67 217.71 262.01 219 264.77 221.18 267.39 
M 199.89 246.64 203.33 249.39 205.22 252.37 207.48 255.44 209.89 258.3 213.11 264.59 214.7 266.12 216.86 269.21 
M 195.07 246.23 200.29 252.06 203.15 257.95 205.22 259.95 210.99 268.34 213 270.91 
M 190.25 245.82 193.49 249.07 195.54 252.16 197.37 255.04 200.16 260.38 201.09 262.61 203.57 265.54 207.07 267.96 209.06 270.2 
M 185.45 245.25 188.15 249.25 193.87 258.33 195.32 261.31 
M 180.64 244.68 182.92 249.01 184.88 252.34 187.96 258.35 190.42 261.47 
M 175.85 244.06 179.67 251.71 183.38 257.23 184.97 259.33 
M 171.06 243.38 173.77 246.72 175.55 249.39 177.16 253.37 178.44 257.06 179.13 259.97 181.92 265.73 184.81 269.8 187.32 272.61 
M 166.27 242.69 168.87 246.96 170.67 250.25 174.95 260.65 
M 161.49 241.97 164.45 246.84 167.13 254.46 168.88 257.29 
M 156.71 241.23 159.43 246.38 160.94 250.37 
M 410.45 236.37 420.77 246.76 418.16 258.72 417.2 261.56 416.68 264.83 414.46 266.6 411.34 267.36 407.86 267.48 402.72 269.72 396.82 271.48 394.01 272.77 389.7 275.49 386.9 275.44 383.98 275.11 377.07 273.26 374.13 273.53 371.31 274.01 362.83 273.39 361.17 274.34 358.63 275.38 352.94 276.85 349.12 274.96 345.44 273.53 343.05 274.16 340.14 274.26 338.11 274.5 331.89 272.09 326.98 270.43 318.77 268.94 315.96 268.08 310.42 265.13 307.29 263.12 295.42 258.54 293.24 256.09 291.42 251.8 287.91 245.98 
M 405.66 237.05 414.05 249.53 
M 400.87 237.72 403.71 242.35 407.87 247.82 409.85 250.7 
M 396.06 238.3 399.44 243.14 401.25 246.62 403.3 249.61 405.21 252.04 406.66 258.38 407.61 261.45 409.61 265.08 
M 391.25 238.77 394.55 243.24 396.44 246.77 399.07 249.88 400.96 253.36 402.05 255.87 
M 386.44 239.25 389.95 243.65 391.93 246.76 395.14 253.22 399.63 260.06 400.87 263.34 402.95 266.79 
M 381.62 239.68 384.52 244.15 387.96 250.14 389.45 253.5 391.74 256 
M 376.8 240.11 381.13 248.02 383.45 250.52 385.35 253.43 387.28 256.04 389.36 258.45 391.81 260.85 
M 371.99 240.57 374.55 245.1 377.32 251.89 379.43 254.93 382.2 257.09 384.53 258.35 386.34 260.8 387.46 263.98 
M 367.18 241.09 370.14 245.14 372.01 248.4 373.56 251.68 374.91 255.05 376.95 258.16 
M 362.37 241.61 365.42 245.38 367.63 249.1 369.32 252.33 372.48 257.38 374.47 259.96 376.28 262.95 
M 357.57 242.2 360.33 245.59 362.42 248.65 364.32 251.99 365.39 254.69 368.85 260.1 371.12 263.12 372.85 265.96 374.79 269.98 
M 352.77 242.8 360.83 255.35 363.34 258.07 366.44 263.41 366.49 267.09 
M 347.97 243.38 350.81 247.37 353.52 252.58 355.38 255.65 359.1 258.26 361.82 260.95 361.92 263.43 362.38 267.07 
M 343.16 243.89 349.6 254.51 350.84 257.52 352.7 260.49 
M 338.35 244.4 342.94 251.71 344.37 254.35 346.13 257.82 346.89 260.5 
M 333.52 244.74 337.79 251.6 338.79 255.03 341.05 257.6 342.5 260.42 
M 328.69 245.01 330.83 249.38 332.59 252.57 334.41 255.43 336.15 257.93 337.65 260.48 340.09 262.82 341.41 266.63 
M 323.86 245.26 326.28 250.06 332.92 259.19 334.22 262.06 335.34 265.4 336.05 268.85 
M 319.03 245.41 323.89 253.62 328.15 259.12 329.81 262.11 
M 314.19 245.55 316.99 249.97 321.5 256.02 322.99 259.38 324.88 262.23 327.24 265.21 328.86 268.42 
M 309.36 245.65 312.63 250.24 314.37 253.14 315.41 255.52 316.82 259.49 
M 304.52 245.74 310.51 256.31 311.63 259.62 
M 299.68 245.82 301.68 251.29 304.4 254.18 306.91 256.18 309.27 262.29 
M 294.85 245.88 296.93 251.52 299.22 255.14 301.78 258.12 304.8 260.53 
M 434.95 152.21 437.34 150.65 439.36 148.6 444.03 144.64 448.55 140.1 450.78 137.46 453.5 135.61 455.92 133.42 458.86 131.48 461.45 130.72 463.61 129.79 466.38 129.59 468.99 129.21 472.32 129.92 476.29 128.48 480.17 127.55 484.1 126.09 486.58 125.69 486.13 131.8 486.82 138.6 487.53 142.59 484.68 147.28 483.45 153.34 481.73 155.01 478.91 159.17 478.35 162.39 477.51 165.39 476.82 168.65 475.63 171.53 474.08 174.04 471.55 175.6 469.2 177.33 465.48 181.78 463.5 183.53 462.03 186.01 457.91 190.03 455.28 191.44 452.1 192.25 449.22 193.37 450.06 195.46 453.09 197.39 460.02 201.35 463.13 203.37 463.74 206.78 470.91 215.59 472.96 217.93 479.66 223.23 480.97 227.01 481.34 229.87 481.33 232.19 481.81 234.68 483.27 240.29 486.36 248.99 487.19 252.03 487.82 255.78 488 258.4 484 263.4 482.83 263.16 480.43 262.1 473.27 259.67 468.9 258.83 465.47 257.64 459.96 254.38 458.64 252.42 455.78 251.34 451.76 250.63 449.3 248.32 447.94 245.81 441.83 237.3 439.85 233.92 434.95 227.74 
M 434.95 155.32 437.8 153.86 439.81 151.73 448.78 143.32 454.21 139.88 460.34 136.93 463.2 136.52 465.76 135.24 472.31 135.97 478.81 133.51 
M 442.68 153.35 444.88 151.48 447.01 149.4 449.65 147.46 454.5 144.31 458.28 142.66 461.55 142.34 465.35 141.4 467.77 141.73 
M 434.95 161.54 438.37 160.63 441.04 159.13 445.99 155.64 448.86 153.21 451.29 151.69 453.37 149.78 455.61 148.85 458.47 148.2 462.27 146.63 468.73 145.4 
M 441.44 162.74 444.39 161.51 446.93 159.85 453.7 156.17 456.11 154.55 457.05 153.41 
M 441.24 166.16 444.4 165.11 447.39 163.77 450.3 161.83 454.64 160.17 457.79 158.38 458.54 157.75 460.22 157.05 466.43 156.39 470.15 154.56 473.61 156.3 476.46 156.29 479.43 156.83 
M 434.95 170.87 438.84 170.1 442.24 168.99 447.85 166.98 450.71 165.62 455.18 165.48 458.13 164.73 
M 446.01 172 448.58 170.24 451.43 169.9 458.7 169.68 460.5 168.76 
M 442.35 176.21 444.89 175.99 448.57 175.41 456.83 174.97 459.73 174.67 461.44 174.38 463.07 173.52 466.68 173.02 
M 434.95 180.21 438.86 181.03 444.69 180 449.05 180.3 453.18 181.14 
M 434.95 183.32 439.17 184.72 442.1 184.81 445.03 184.36 449.37 184.72 454 185.5 457.7 185.55 461.2 185.86 
M 446.04 188.79 453.9 190.7 
M 443.09 193.58 445.86 193.79 
M 445.72 200.08 452.69 201.59 
M 445.93 203.52 448.74 204.14 452.37 205.71 455.87 206.81 459.35 207.5 462.04 207.45 
M 442.44 206.5 445.42 207.5 449.27 209.35 455.38 211 460.31 212.57 465.26 213.39 
M 434.95 205.09 439.06 207.73 442.66 209.8 446.21 211.74 449.33 213.21 452.3 214.12 455.29 215.27 458.4 215.99 
M 445.88 215.83 448.6 216.94 453.26 220.22 456.16 221.34 
M 439.04 213.74 447.9 220.67 450.19 222.64 452.36 224.84 454.87 226.42 458.35 227.46 465.22 230.71 474.13 230.66 477.34 232.04 480.25 232.21 
M 434.95 214.43 438.8 217.28 441.73 220.18 444.7 222.83 447.88 224.56 450.16 226.63 452.03 228.6 455.17 230.22 458.06 231.41 464.32 235.39 
M 438.58 220.7 444.15 226 448.29 229.41 451.03 231.25 456.08 235.26 459.36 237.48 462.52 239.2 465.69 239.93 468.79 241.1 472.08 241.7 
M 434.95 220.65 438.36 223.9 440.81 226.89 447.52 233.17 449.86 235.6 452.26 237.48 454.8 240.04 458.94 241.13 461.28 243.33 463.65 244.77 467.93 246.15 
M 442.66 232.48 444.83 234.74 450.6 243.06 452.86 244.86 456.12 247.07 
M 385.94 138.44 391.33 140.95 417.52 84.42 421.14 88.83 402.55 145.76 398.19 139.92 
M 390.74 139.02 392.9 137.32 396.4 132.77 397.25 130.24 397.75 127.89 399.04 123.37 401.04 120.58 403.1 118.44 404.37 115.72 405.64 112.5 406.66 108.49 407.96 105.79 408.54 102.76 409.92 100.74 412.77 93.16 413.17 91.51 
M 395.54 139.6 397.77 138.11 399.45 136.08 400.59 133.94 402.35 131.58 403.58 128.89 404.41 126.49 405.74 123.9 411.43 117.29 412.92 110.44 414.42 106.72 415.96 103.93 
M 50.77 199.71 54.09 194.57 61.39 181.6 64.48 177.27 68.15 173.36 72.77 169.21 77.3 164.56 81.6 159.84 86.47 155.55 91.72 151.69 97.15 148.44 106.91 143.03 111.03 141.07 116.32 138.87 120.31 143.59 122.31 148.65 124.57 153.67 127.07 158.67 129.09 163.72 130.43 168.86 132.45 179.21 132.4 184.52 132.73 189.78 132.78 195.08 131.88 205.79 132.37 211.03 132.6 221.61 132.2 226.96 131.07 232.4 128.65 237.9 117.28 237.16 108.85 236.06 101.32 234.51 94.48 232.65 88.26 230.77 82.6 228.79 71.9 223.93 66.93 221.05 
M 110.2 173.92 110.87 178.39 109.98 187.07 109.18 191 106.96 197.8 107.13 203.74 108.64 209.88 108.96 213.48 108.53 217.72 95.29 217.41 89.95 217.08 84.73 216.47 79.71 215.67 74.97 214.46 70.28 212.49 
M 65.53 221.2 52.01 208.93 46.73 203.72 46.29 201.33 47.9 199.42 50.36 199.34 52.18 200.98 56.4 207.01 67.28 221.51 
M 66.91 222.29 59.62 222.24 42.66 222.81 35.67 222.79 33.43 222.34 31.99 220.52 32.5 218.23 34.57 217.1 36.84 217.3 41.44 218.06 55.66 219.63 66.96 221.37 
M 76.3 184.16 75.21 180.04 75.52 175.79 77.2 171.87 80.05 168.7 83.78 166.64 87.97 165.9 92.18 166.56 95.95 168.55 98.87 171.65 100.62 175.54 101.01 179.78 100.01 183.92 97.71 187.51 94.37 190.16 90.36 191.58 86.1 191.63 82.06 190.28 78.67 187.7 76.3 184.16 
M 76.14 183.79 75.29 180.7 75.16 179.11 75.49 175.92 76.59 172.92 78.4 170.27 80.8 168.15 83.65 166.69 85.18 166.23 88.37 165.9 91.54 166.36 93.05 166.88 
M 77.93 183.05 77.21 180.43 77.1 179.07 77.15 177.7 77.55 175.78 
M 80.68 170.72 81.89 169.75 83.06 169.05 85.62 168.11 86.97 167.89 89.69 167.95 92.31 168.67 
M 79.72 182.31 79.12 180.15 79.03 179.03 79.08 177.9 79.46 176.13 
M 82.15 172 83.95 170.77 84.98 170.32 87.17 169.81 89.41 169.86 91.57 170.46 
M 81.51 181.57 81.22 180.73 80.96 178.99 81.3 176.71 
M 83.6 173.32 85.64 172.14 87.37 171.74 89.13 171.77 90.83 172.24 
M 83.38 180.97 82.95 179.32 83.19 177.34 
M 85.05 174.69 86.37 173.96 88.05 173.66 89.73 173.93 91.24 174.72 92.41 175.96 93.11 177.52 93.26 179.21 92.86 180.87 91.95 182.31 90.61 183.37 89 183.94 87.3 183.95 85.68 183.42 84.33 182.38 83.38 180.97 
M 83.27 177.37 83.06 177.79 
M 86.43 173.95 85.72 175.37 
M 84.5 177.81 83.22 180.36 
M 88.02 173.67 86.68 176.35 
M 85.74 178.23 83.95 181.81 
M 89.37 173.87 87.59 177.44 
M 87.12 178.38 84.9 182.82 
M 90.57 174.37 88.5 178.52 
M 88.49 178.53 86 183.52 
M 91.64 175.14 87.24 183.93 
M 92.54 176.25 88.69 183.94 
M 93.15 177.93 90.39 183.45 
M 51.31 198.9 56.82 204.42 
M 53.58 195.37 57.8 199.59 
M 55.69 191.68 61.49 197.48 
M 57.75 187.93 62.04 192.23 
M 59.85 184.24 63.65 188.03 
M 62.07 180.65 67.66 186.24 
M 64.49 177.26 68.6 181.37 
M 67.3 174.27 70.62 177.59 
M 70.28 171.45 73.42 174.58 
M 73.3 168.66 76.99 172.35 
M 76.17 165.72 79.62 169.18 
M 78.97 162.72 82.49 166.24 
M 81.76 159.71 85.34 163.28 
M 84.84 156.99 89.48 161.63 
M 88.05 154.39 91.18 157.52 
M 91.4 151.93 94.36 154.89 
M 95 149.73 98.48 153.21 
M 98.66 147.59 101.98 150.9 
M 102.37 145.49 108.02 151.14 
M 106.13 143.45 110.74 148.06 
M 110.03 141.54 115.75 147.27 
M 114.09 139.8 117.71 143.42 
M 119.85 168.48 116.72 168.06 112.52 168.2 110.19 167.75 109.01 167.19 
M 54 203.6 54.64 203.16 55.36 202.26 56.16 201.6 57.02 201.11 60.74 200.69 
M 81.15 208.23 81.33 205.09 81.15 204.44 80.28 203.07 
M 107.81 143.14 106.71 143.13 
M 100.71 208.61 101.57 210.45 101.92 211.84 101.93 212.39 101.63 213.22 101.21 213.68 100.92 213.71 
M 78.77 227.12 78.62 223.67 78.03 221.54 75.95 219.51 73.33 217.56 71.94 216.73 
M 92.92 209.48 93.67 207.52 93.88 206.58 93.97 204.86 92.85 202.5 
M 97.98 220.74 99.75 221.21 101.33 222.21 
M 127.28 159.21 125.04 158.03 121.99 157.48 120.53 156.93 
M 131.61 177.04 131.05 178.59 129.59 180.83 129.49 181.31 129.8 182 
M 106.77 157.85 108.11 158.29 108.64 158.75 109.06 159.37 109.27 160.1 109.12 162.01 108.77 163.5 107.78 165.45 107.55 166.37 
M 92.59 221.02 95.92 217.38 99.01 214.62 100 213.31 
M 60.67 212.76 61.69 212.12 62.46 210.55 62.58 209.84 62.4 206.97 62.7 205.11 63.12 204.24 
M 72.18 198.32 72.8 197.33 75.01 195.07 75.95 193.8 76.31 193.04 76.48 190.89 76.2 188.51 
M 122.04 147.95 120.92 147.85 120.35 147.56 
M 108.42 150.38 108.91 147.89 108.74 145.31 107.81 144.16 106.48 143.58 
M 112.42 199.99 110.63 201.76 109.21 203.61 107.63 204.91 
M 84.79 195.19 85.44 198.24 85.24 199.03 83.6 201.84 82.13 203.76 
M 121.66 187.07 123.59 185.96 126.99 185.55 
M 68.44 200.21 69.19 199.34 70.6 196.9 71.28 196.4 73.8 195.28 74.31 194.88 75.18 193.57 75.53 192.74 75.64 190.68 
M 74.68 222.61 74.31 221.59 73.88 220.97 71.43 219.55 69.94 217.2 
M 97.53 207.91 97.85 207.58 98.6 207.3 99.07 207.38 99.52 207.74 100.26 208.48 100.97 209.56 101.57 210.78 101.87 212.05 
M 120.21 152.23 117.38 150.25 116.08 148.54 114.68 147.21 113.79 146.54 111.21 145.3 108.94 143.7 
M 125.14 193.41 126.11 190.33 126.35 187.95 126.77 186.95 127.82 185.51 
M 101.86 206.34 101.15 207.71 101.14 208.41 101.95 211.28 101.98 212.54 101.59 213.32 101.07 213.74 
M 104.09 190.88 103.5 187.92 103.5 186.16 104.01 184.05 104.64 183.28 105.28 183.02 
M 126.54 177.11 124.84 176.34 
M 101.09 172.09 102.69 171.84 104.26 172.26 108.54 175.09 109.3 175.78 
M 120.26 175.36 119.82 175.62 119.27 176.26 119.18 176.78 119.35 177.23 120.34 178.04 122.06 178.7 
M 117.52 163.07 113.75 164.21 111.79 165.13 108.96 165.62 108.4 166 
M 121.54 146.7 121.3 147.33 120.95 147.53 119.82 147.27 
M 116.46 219.58 117.87 218.26 118.79 216.83 119.41 214.53 119.46 213.82 119.4 213.07 118.04 210.38 117.2 207.93 
M 122.66 181.65 127.39 180.75 128.21 181.04 129.11 181.75 
M 83.95 208.16 84.54 208.85 
M 111.45 162.8 108.39 165.29 107.66 166.78 107.63 167.85 
M 63.1 209.32 63.18 207.5 63.66 205.88 65 203.6 65.76 201.41 66.47 200.28 68.32 198.5 69.72 196.71 70.41 196.09 
M 119.9 154.3 116.5 151.12 114.95 148.86 113.49 147.33 111.72 146.23 108.94 143.88 
M 74.1 223.57 73.41 221.71 72.98 221.25 72.04 220.75 69.84 220.14 69.06 219.65 
M 76.52 212.46 76.24 211.12 75.61 209.87 74.42 209.04 73.41 208.09 71.68 205.78 71.6 205.07 71.97 203.32 
M 107.09 218.73 108.11 217.97 108.84 216.52 109.06 215.61 108.97 215.37 108.6 215.26 
M 66.63 220.6 67.93 222.03 
M 63.39 219.2 63.42 219.23 
M 59.71 215.96 59.51 217.19 60.24 216.4 
M 56.36 212.95 55.94 213.54 55.62 215.13 56.33 213.97 57.01 213.57 
M 53.09 209.93 52.22 211.02 51.74 213.07 52.61 211.45 53.86 210.64 
M 49.9 206.87 48.51 208.5 47.85 211.01 48.9 208.93 50.71 207.67 
M 46.77 203.76 44.79 205.98 43.97 208.95 45.18 206.41 47.63 204.62 
M 66.31 221.27 68.24 221.36 
M 62.58 220.71 63.43 220.01 64.01 220.95 
M 58.58 220.05 58.93 219.33 59.58 218.71 59.51 219.36 59.85 220.27 
M 54.5 219.52 54.9 218.35 55.74 217.41 55.48 218.38 55.78 219.65 
M 50.41 219.09 50.87 217.36 51.89 216.11 51.45 217.39 51.75 219.24 
M 46.36 218.56 46.84 216.38 48.05 214.8 47.42 216.41 47.71 218.76 
M 42.28 218.13 42.81 215.4 44.2 213.5 43.39 215.42 43.65 218.25 
M 38.24 217.56 38.78 214.41 40.36 212.2 39.36 214.44 39.6 217.79 
M 34.14 217.33 34.75 213.43 36.51 210.9 35.33 213.46 35.55 217.19 
M 42.91 222.79 50.53 225.2 55.77 226.5 60.99 227.56 66.32 228.26 71.71 228.61 82.6 228.79 
M 45.75 223.77 45.31 223.56 
M 64.7 225.41 62.41 227.75 
M 45.79 223.78 44.94 223.3 44.45 222.7 
M 116.75 138.71 124.28 146.24 
M 123.31 137.54 131.43 145.66 
M 129.96 136.44 135.86 142.34 
M 136.92 135.67 144.01 142.75 
M 144.03 135.04 155.21 146.22 
M 151.32 134.59 160.14 143.41 
M 158.65 134.18 168.62 144.16 
M 165.97 133.76 173.76 141.55 
M 173.1 133.15 181.31 141.36 
M 180.24 132.55 188.15 140.46 
M 187.37 131.94 195.65 140.23 
M 194.6 131.44 204.89 141.73 
M 201.88 130.98 208.73 137.83 
M 209.38 130.73 220.38 141.74 
M 216.92 130.54 225.03 138.65 
M 224.55 130.42 233.86 139.74 
M 232.22 130.36 242.16 140.31 
M 239.93 130.33 248.09 138.49 
M 247.74 130.4 257.22 139.88 
M 255.53 130.45 265.01 139.94 
M 263.31 130.49 274.91 142.09 
M 270.93 130.38 282.28 141.72 
M 278.6 130.31 289.4 141.1 
M 286.35 130.32 292.4 136.37 
M 294.34 130.57 301.69 137.92 
M 302.42 130.91 309.67 138.16 
M 310.6 131.35 317.72 138.47 
M 318.82 131.83 328.69 141.7 
M 327.06 132.34 335.59 140.86 
M 335.35 132.88 341.28 138.82 
M 343.88 133.67 349.83 139.62 
M 352.54 134.59 361.07 143.13 
M 361.32 135.64 369.47 143.79 
M 370.11 136.69 381.56 148.14 
M 378.83 137.67 385.93 144.77 
M 387.53 138.63 394.3 145.4 
M 396.33 139.69 406.88 150.24 
M 405.56 141.18 413.65 149.27 
M 415.36 143.24 424.75 152.63 
M 428.02 148.17 432.93 153.07 
M 132.61 236.45 133.6 238.44 
M 134.05 232.56 137.14 238.74 
M 135.48 228.65 136.35 230.38 
M 137.21 232.12 140.67 239.04 
M 138.62 228.16 144.3 239.51 
M 140.89 225.93 141.76 227.66 
M 142.62 229.39 147.92 239.99 
M 144.03 225.43 144.89 227.16 
M 145.76 228.89 151.55 240.47 
M 148.01 226.63 152.34 235.28 
M 153.2 237.01 155.2 241 
M 151.96 227.75 154.56 232.95 
M 117.53 138.57 118.82 141.17 
M 130.07 163.66 131.8 167.13 
M 132.67 168.86 134.18 171.88 
M 120.64 138.02 123.66 144.07 
M 131.45 159.65 137.63 172.01 
M 170.39 237.52 171.25 239.25 
M 172.12 240.98 173.02 242.78 
M 123.74 137.46 127.64 145.25 
M 133.69 157.36 134.56 159.09 
M 136.29 162.55 141.09 172.15 
M 170.03 230.04 176.83 243.63 
M 126.85 136.9 129.88 142.96 
M 136.8 156.81 144.54 172.29 
M 172.28 227.76 180.74 244.69 
M 130 136.44 133.03 142.49 
M 139.09 154.61 141.68 159.8 
M 142.55 161.53 148 172.43 
M 174.56 225.56 183.22 242.86 
M 133.21 136.08 134.51 138.68 
M 135.37 140.41 136.24 142.14 
M 142.3 154.25 151.45 172.57 
M 176.91 223.47 187.4 244.46 
M 136.42 135.73 136.85 136.59 
M 144.64 152.17 147.24 157.36 
M 148.97 160.82 150.7 164.28 
M 151.56 166.01 154.16 171.2 
M 180.98 224.85 188.77 240.42 
M 148.71 153.54 149.58 155.27 
M 150.44 157 151.31 158.74 
M 154.77 165.66 155.64 167.39 
M 182.46 221.03 191.98 240.07 
M 154.56 158.47 155.43 160.2 
M 186.58 222.5 187.44 224.23 
M 189.17 227.69 193.5 236.35 
M 197.99 245.33 198.59 246.53 
M 152.66 147.89 153.52 149.62 
M 154.39 151.35 155.25 153.08 
M 181.41 205.39 185.54 213.65 
M 191.59 225.76 192.46 227.49 
M 152.48 140.76 154.21 144.22 
M 155.08 145.95 159.4 154.61 
M 185 205.8 188.82 213.44 
M 153.17 135.37 160.96 150.94 
M 186.96 202.95 188.64 206.32 
M 190.37 209.78 191.24 211.51 
M 198.16 225.35 200.76 230.54 
M 156.46 135.18 165.12 152.49 
M 189.7 201.67 192.8 207.86 
M 200.59 223.44 203.19 228.63 
M 159.76 135 163.22 141.93 
M 164.09 143.66 168.41 152.31 
M 175.33 166.15 179.1 173.68 
M 193.39 202.27 195.23 205.95 
M 199.56 214.61 202.16 219.8 
M 203.02 221.53 208.21 231.91 
M 209.08 233.64 209.94 235.37 
M 162.62 133.96 169.11 146.94 
M 176.03 160.78 182.55 173.82 
M 195.23 199.18 197.67 204.04 
M 202.86 214.43 210.64 230 
M 211.51 231.73 213.24 235.19 
M 167.21 136.36 170.67 143.28 
M 171.53 145.01 172.4 146.74 
M 177.59 157.13 186.01 173.95 
M 197.81 197.56 198.36 198.66 
M 199.22 200.39 200.09 202.12 
M 204.41 210.77 206.14 214.23 
M 207.01 215.96 213.93 229.81 
M 169.59 134.35 171.32 137.81 
M 180.84 156.85 181.7 158.58 
M 182.57 160.31 189.46 174.09 
M 207.66 210.5 210.26 215.69 
M 211.12 217.42 218.91 232.99 
M 183.22 154.84 184.09 156.57 
M 184.95 158.31 189.28 166.96 
M 190.14 168.69 191.87 172.15 
M 210.91 210.22 221.29 230.99 
M 186.47 154.57 194.26 170.14 
M 215.02 211.67 220.21 222.06 
M 221.95 225.52 222.81 227.25 
M 191.45 157.75 192.31 159.48 
M 193.18 161.21 194.04 162.95 
M 195.77 166.41 196.64 168.14 
M 219.14 213.13 220 214.86 
M 220.87 216.59 222.6 220.05 
M 223.46 221.78 225.19 225.24 
M 230.38 235.63 232.12 239.09 
M 232.98 240.82 233.85 242.55 
M 182.15 132.39 182.58 133.25 
M 231.04 230.16 237.09 242.27 
M 217.82 196.96 219.55 200.42 
M 220.42 202.15 223.01 207.34 
M 232.53 226.38 241.18 243.68 
M 186.63 127.79 187.06 128.66 
M 199.17 152.89 200.04 154.62 
M 220.8 196.15 225.13 204.8 
M 235.51 225.57 243.3 241.14 
M 245.72 245.97 245.97 246.48 
M 187.87 123.52 188.31 124.39 
M 189.17 126.12 190.04 127.85 
M 198.69 145.15 199.56 146.88 
M 200.42 148.61 203.88 155.53 
M 222.05 191.87 229.84 207.45 
M 237.63 223.02 238.49 224.75 
M 239.36 226.48 245.41 238.6 
M 189.12 119.25 190.42 121.84 
M 201.67 144.34 206.86 154.72 
M 208.59 158.18 209.46 159.91 
M 225.9 192.79 232.82 206.64 
M 240.61 222.21 241.47 223.94 
M 242.34 225.67 247.53 236.06 
M 248.39 237.79 249.26 239.52 
M 201.19 136.6 210.71 155.64 
M 228.01 190.25 234.93 204.09 
M 245.32 224.86 247.91 230.05 
M 248.78 231.78 249.64 233.51 
M 250.51 235.24 251.37 236.97 
M 205.03 137.52 207.63 142.71 
M 208.5 144.45 213.69 154.83 
M 232.72 192.9 233.59 194.63 
M 235.32 198.09 236.18 199.82 
M 258.76 244.97 259.27 245.99 
M 192.87 106.43 193.3 107.29 
M 207.15 134.98 214.94 150.56 
M 216.67 154.02 217.53 155.75 
M 224.45 169.59 226.18 173.05 
M 227.05 174.78 227.47 175.62 
M 194.12 102.15 194.55 103.02 
M 195.42 104.75 198.88 111.67 
M 210.13 134.17 210.99 135.9 
M 211.86 137.63 218.78 151.47 
M 223.11 160.13 230.92 175.76 
M 231.46 176.83 232.62 179.16 
M 261.18 236.27 262.04 238 
M 265.53 244.97 265.98 245.88 
M 195.1 97.33 204.18 115.5 
M 215.43 138 216.3 139.73 
M 217.16 141.46 218.89 144.92 
M 219.76 146.65 220.62 148.38 
M 224.95 157.04 225.81 158.77 
M 226.68 160.5 234.38 175.89 
M 234.43 176 235.33 177.8 
M 262.15 231.45 263.02 233.18 
M 263.88 234.91 267.35 241.83 
M 268.21 243.56 269.01 245.16 
M 196.33 93.03 205.41 111.2 
M 219.26 138.88 220.12 140.62 
M 227.91 156.19 228.78 157.92 
M 229.64 159.65 238.29 176.96 
M 265.98 232.33 268.58 237.52 
M 269.44 239.25 271.17 242.71 
M 272.19 244.74 272.77 245.91 
M 199.01 91.63 208.53 110.66 
M 232.76 159.11 239.68 172.96 
M 240.55 174.69 242.28 178.15 
M 267.37 228.33 275.88 245.35 
M 200.51 87.84 212.19 111.2 
M 232.95 152.73 233.82 154.46 
M 234.68 156.19 242.47 171.77 
M 271.03 228.88 278.97 244.76 
M 204.4 88.86 214.79 109.63 
M 238.15 156.35 239.01 158.08 
M 239.88 159.81 245.07 170.2 
M 255.45 190.96 256.32 192.69 
M 257.18 194.42 258.91 197.88 
M 259.78 199.61 261.51 203.07 
M 271.89 223.84 272.76 225.57 
M 274.49 229.03 275.35 230.76 
M 276.22 232.49 282.95 245.95 
M 206.05 85.38 206.91 87.11 
M 207.78 88.84 216.43 106.14 
M 240.66 154.6 244.98 163.25 
M 246.72 166.71 247.58 168.44 
M 254.5 182.29 255.37 184.02 
M 256.23 185.75 257.96 189.21 
M 258.83 190.94 264.89 203.05 
M 277 227.28 283.92 241.12 
M 210.63 87.77 211.5 89.5 
M 212.36 91.23 216.69 99.88 
M 257.35 181.22 258.22 182.95 
M 259.08 184.68 269.47 205.44 
M 279.85 226.21 280.72 227.94 
M 281.58 229.67 284.18 234.86 
M 285.91 238.32 286.77 240.05 
M 207.16 74.06 208.03 75.79 
M 216.68 93.1 217.54 94.83 
M 231.39 122.52 236.58 132.9 
M 259.94 179.62 272.06 203.85 
M 207.91 68.79 210.07 73.11 
M 232.57 118.11 237.76 128.49 
M 238.63 130.22 241.22 135.41 
M 248.14 149.26 249.87 152.72 
M 262.85 178.67 273.24 199.44 
M 274.1 201.17 274.97 202.9 
M 209.35 64.89 211.51 69.22 
M 232.28 110.75 233.14 112.48 
M 234.01 114.21 243.53 133.25 
M 250.45 147.09 253.04 152.28 
M 253.91 154.01 255.64 157.47 
M 264.29 174.78 277.27 200.73 
M 286.79 219.77 287.65 221.5 
M 288.52 223.23 291.11 228.42 
M 211.69 62.81 212.13 63.67 
M 237.22 113.86 245.87 131.16 
M 251.06 141.55 256.25 151.93 
M 257.12 153.66 258.85 157.12 
M 259.71 158.85 261.44 162.31 
M 268.37 176.16 269.23 177.89 
M 270.1 179.62 276.15 191.73 
M 277.02 193.46 278.75 196.92 
M 289.13 217.69 294.32 228.07 
M 239.88 112.42 249.4 131.45 
M 254.59 141.84 264.11 160.87 
M 271.9 176.45 279.68 192.02 
M 280.55 193.75 281.41 195.48 
M 290.07 212.79 298.72 230.09 
M 304.78 242.2 306.53 245.7 
M 224.38 74.64 226.97 79.83 
M 227.84 81.56 229.57 85.02 
M 242.55 110.98 243.41 112.71 
M 244.28 114.44 251.2 128.28 
M 252.07 130.01 252.93 131.74 
M 257.26 140.39 266.77 159.43 
M 275.43 176.73 280.62 187.12 
M 291.87 209.61 302.25 230.38 
M 306.58 239.03 309.88 245.65 
M 226.51 72.12 234.29 87.69 
M 245.54 110.19 247.27 113.65 
M 248.14 115.38 255.06 129.23 
M 260.25 139.61 270.63 160.38 
M 294 207.1 303.51 226.13 
M 311.3 241.71 313.23 245.58 
M 229.75 71.84 236.67 85.68 
M 237.54 87.41 238.4 89.14 
M 248.79 109.91 249.65 111.64 
M 250.52 113.37 251.38 115.1 
M 252.25 116.83 253.11 118.56 
M 254.84 122.02 255.71 123.75 
M 260.9 134.14 262.63 137.6 
M 263.5 139.33 272.15 156.63 
M 298.11 208.55 306.76 225.85 
M 315.41 243.16 316.57 245.48 
M 230.48 66.53 240.86 87.29 
M 255.57 116.71 256.44 118.44 
M 265.09 135.75 274.61 154.78 
M 285.86 177.28 286.72 179.01 
M 288.45 182.47 289.32 184.2 
M 290.18 185.93 291.91 189.39 
M 302.3 210.16 306.62 218.81 
M 307.49 220.54 308.35 222.27 
M 316.14 237.85 317.01 239.58 
M 318.74 243.04 319.91 245.38 
M 233.52 65.84 242.18 83.15 
M 256.02 110.83 258.62 116.03 
M 259.48 117.76 260.35 119.49 
M 261.21 121.22 262.08 122.95 
M 262.94 124.68 263.81 126.41 
M 268.13 135.06 269 136.79 
M 270.73 140.25 274.19 147.18 
M 275.06 148.91 275.92 150.64 
M 287.17 173.13 288.03 174.86 
M 288.9 176.59 289.77 178.32 
M 290.63 180.05 292.36 183.52 
M 309.67 218.13 310.53 219.86 
M 320.91 240.62 321.78 242.35 
M 236.57 65.17 240.9 73.82 
M 241.76 75.55 243.49 79.01 
M 244.36 80.74 245.22 82.47 
M 259.07 110.16 259.93 111.89 
M 260.8 113.62 261.66 115.35 
M 262.53 117.08 264.26 120.54 
M 265.13 122.27 265.99 124 
M 273.78 139.58 274.64 141.31 
M 276.37 144.77 277.24 146.5 
M 289.35 170.73 298.87 189.76 
M 304.93 201.88 309.25 210.53 
M 317.04 226.1 317.91 227.83 
M 240.41 66.07 246.47 78.18 
M 260.31 105.87 268.1 121.44 
M 268.96 123.18 271.56 128.37 
M 290.59 166.44 301.84 188.93 
M 305.3 195.86 306.17 197.59 
M 307.03 199.32 310.49 206.24 
M 311.36 207.97 313.96 213.16 
M 320.01 225.27 325.2 235.66 
M 261.91 102.3 262.78 104.03 
M 263.64 105.76 274.02 126.53 
M 293.06 164.6 304.31 187.09 
M 307.77 194.02 317.29 213.05 
M 320.75 219.97 325.07 228.63 
M 325.94 230.36 329.4 237.28 
M 256.4 84.52 257.27 86.25 
M 258.13 87.98 259 89.71 
M 260.73 93.17 261.6 94.9 
M 265.06 101.82 277.17 126.05 
M 296.21 164.12 298.8 169.31 
M 299.67 171.04 306.59 184.88 
M 310.05 191.81 317.84 207.38 
M 319.57 210.84 320.43 212.57 
M 322.16 216.03 323.03 217.76 
M 323.89 219.49 330.82 233.34 
M 331.68 235.07 332.55 236.8 
M 258.39 81.71 267.04 99.01 
M 269.63 104.2 270.5 105.93 
M 271.36 107.66 276.56 118.05 
M 277.42 119.78 280.02 124.97 
M 300.78 166.5 301.65 168.23 
M 302.51 169.96 304.24 173.42 
M 305.11 175.15 307.7 180.35 
M 312.9 190.73 321.55 208.03 
M 322.41 209.76 323.28 211.49 
M 325.88 216.69 335.39 235.72 
M 258.8 75.77 259.67 77.5 
M 260.53 79.23 270.05 98.26 
M 271.78 101.72 280.43 119.03 
M 281.3 120.76 282.16 122.49 
M 286.49 131.14 287.35 132.87 
M 305.53 169.21 308.12 174.41 
M 308.99 176.14 309.85 177.87 
M 314.18 186.52 325.43 209.02 
M 328.02 214.21 328.89 215.94 
M 329.75 217.67 335.81 229.78 
M 262.86 77.12 273.25 97.89 
M 274.11 99.62 279.3 110 
M 280.17 111.73 281.9 115.19 
M 287.09 125.57 288.82 129.04 
M 289.69 130.77 294.88 141.15 
M 319.11 189.6 328.62 208.64 
M 332.08 215.56 338.14 227.67 
M 339.01 229.4 339.87 231.13 
M 264.8 74.22 276.05 96.72 
M 277.78 100.18 278.64 101.91 
M 281.24 107.1 282.97 110.56 
M 289.89 124.41 295.95 136.52 
M 322.77 190.16 323.64 191.9 
M 324.5 193.63 329.69 204.01 
M 339.21 223.04 340.94 226.51 
M 267.74 73.33 276.39 90.63 
M 277.26 92.36 278.99 95.83 
M 289.37 116.59 298.89 135.63 
M 299.75 137.36 301.48 140.82 
M 324.85 187.54 325.71 189.27 
M 326.58 191 327.44 192.73 
M 329.17 196.19 330.04 197.92 
M 270.32 71.73 271.19 73.46 
M 272.05 75.19 281.57 94.22 
M 291.96 114.99 292.82 116.72 
M 293.69 118.45 300.61 132.29 
M 302.34 135.75 303.2 137.48 
M 311.86 154.79 313.59 158.25 
M 316.18 163.44 317.05 165.17 
M 273.92 72.14 283.44 91.18 
M 295.55 115.41 305.93 136.17 
M 306.8 137.9 307.66 139.63 
M 312.85 150.02 318.91 162.13 
M 350.06 224.43 352.66 229.62 
M 278.85 75.24 280.58 78.7 
M 281.45 80.43 283.18 83.89 
M 297.89 113.31 306.54 130.62 
M 307.41 132.35 308.27 134.08 
M 313.46 144.46 315.19 147.92 
M 316.93 151.38 323.85 165.23 
M 335.1 187.72 335.96 189.46 
M 350.67 218.87 353.27 224.07 
M 355 227.53 355.86 229.26 
M 356.73 230.99 357.59 232.72 
M 358.46 234.45 359.32 236.18 
M 301.36 113.49 311.75 134.25 
M 316.07 142.91 316.94 144.64 
M 317.8 146.37 323.86 158.48 
M 333.38 177.52 335.11 180.98 
M 335.97 182.71 336.84 184.44 
M 337.7 186.17 339.43 189.63 
M 355.01 220.78 361.93 234.62 
M 298.39 100.76 299.25 102.49 
M 300.12 104.22 300.98 105.95 
M 301.85 107.68 303.58 111.14 
M 305.31 114.61 306.17 116.34 
M 307.04 118.07 308.77 121.53 
M 309.63 123.26 311.36 126.72 
M 312.23 128.45 313.09 130.18 
M 320.02 144.02 320.88 145.75 
M 321.75 147.49 328.67 161.33 
M 336.46 176.9 345.11 194.21 
M 345.97 195.94 346.84 197.67 
M 356.36 216.71 364.14 232.28 
M 365.01 234.01 365.87 235.74 
M 288.05 73.33 289.78 76.79 
M 290.65 78.52 293.24 83.71 
M 299.3 95.82 300.17 97.55 
M 301.03 99.28 301.9 101.01 
M 302.76 102.74 303.63 104.47 
M 304.49 106.2 307.09 111.4 
M 307.95 113.13 308.82 114.86 
M 309.68 116.59 310.55 118.32 
M 322.66 142.54 328.72 154.66 
M 329.58 156.39 330.45 158.12 
M 336.51 170.23 337.37 171.96 
M 338.24 173.69 346.89 191 
M 359.87 216.96 365.06 227.34 
M 365.93 229.07 366.79 230.8 
M 289.56 69.56 296.48 83.41 
M 301.67 93.79 302.54 95.52 
M 303.4 97.25 311.19 112.83 
M 315.52 121.48 319.84 130.13 
M 327.63 145.71 329.36 149.17 
M 339.74 169.93 340.61 171.66 
M 341.47 173.39 350.99 192.43 
M 362.24 214.93 370.89 232.23 
M 292.56 68.79 298.61 80.91 
M 299.48 82.64 300.35 84.37 
M 303.81 91.29 315.05 113.78 
M 316.78 117.25 317.65 118.98 
M 318.52 120.71 320.25 124.17 
M 321.98 127.63 322.84 129.36 
M 323.71 131.09 324.57 132.82 
M 325.44 134.55 327.17 138.01 
M 341.88 167.43 343.61 170.89 
M 344.47 172.62 353.13 189.93 
M 365.24 214.15 369.57 222.81 
M 370.43 224.54 371.3 226.27 
M 295.32 67.55 298.78 74.47 
M 299.65 76.2 303.11 83.12 
M 307.43 91.77 316.09 109.08 
M 316.95 110.81 317.82 112.54 
M 320.41 117.73 329.07 135.04 
M 329.93 136.77 330.8 138.5 
M 340.31 157.53 355.02 186.95 
M 299.1 68.33 303.43 76.98 
M 304.29 78.71 305.16 80.45 
M 309.48 89.1 320.73 111.59 
M 321.6 113.32 334.57 139.28 
M 342.36 154.86 347.55 165.24 
M 350.15 170.43 351.88 173.89 
M 352.74 175.62 354.48 179.08 
M 355.34 180.81 356.21 182.54 
M 304.06 71.48 305.79 74.94 
M 312.71 88.79 320.5 104.36 
M 325.69 114.74 335.21 133.78 
M 336.07 135.51 336.94 137.24 
M 343.86 151.08 351.65 166.66 
M 352.51 168.39 355.11 173.58 
M 356.84 177.04 360.3 183.96 
M 318.17 92.93 322.5 101.59 
M 329.42 115.43 338.94 134.47 
M 346.73 150.04 354.51 165.61 
M 389.12 234.83 391.1 238.79 
M 321.78 93.38 322.64 95.11 
M 332.16 114.14 339.08 127.99 
M 339.95 129.72 340.81 131.45 
M 343.41 136.64 345.14 140.1 
M 350.33 150.48 358.12 166.06 
M 391 231.82 393.74 237.31 
M 316.45 75.94 318.18 79.4 
M 319.04 81.13 319.91 82.86 
M 334.62 112.28 337.21 117.47 
M 338.08 119.2 341.54 126.12 
M 342.4 127.85 348.46 139.97 
M 349.33 141.7 350.19 143.43 
M 353.65 150.35 358.84 160.73 
M 359.71 162.46 360.57 164.2 
M 361.44 165.93 362.3 167.66 
M 372.69 188.42 373.55 190.15 
M 374.42 191.88 378.74 200.54 
M 379.61 202.27 380.48 204 
M 391.72 226.49 393.45 229.95 
M 394.32 231.68 397.55 238.16 
M 315.37 67.02 316.24 68.75 
M 317.1 70.48 323.16 82.59 
M 339.6 115.47 343.06 122.39 
M 343.92 124.12 350.85 137.97 
M 351.71 139.7 352.58 141.43 
M 358.63 153.54 359.5 155.27 
M 361.23 158.73 362.96 162.19 
M 364.69 165.66 366.42 169.12 
M 375.07 186.42 383.73 203.73 
M 394.11 224.49 400.23 236.74 
M 317.05 63.61 317.92 65.34 
M 319.65 68.8 327.44 84.37 
M 346.47 122.44 354.26 138.02 
M 355.12 139.75 357.72 144.94 
M 361.18 151.86 367.24 163.98 
M 368.1 165.71 370.7 170.9 
M 376.75 183.01 386.27 202.05 
M 397.52 224.54 403.89 237.29 
M 319.37 61.48 320.24 63.21 
M 321.1 64.94 329.76 82.24 
M 347.93 118.58 348.79 120.31 
M 349.66 122.05 356.14 135.02 
M 356.15 135.02 360.04 142.81 
M 363.5 149.73 372.15 167.04 
M 379.94 182.61 388.59 199.92 
M 400.71 224.14 401.57 225.87 
M 402.44 227.6 406.69 236.12 
M 322.32 60.6 331.84 79.64 
M 333.57 83.1 334.43 84.83 
M 335.3 86.56 336.16 88.29 
M 337.03 90.02 338.76 93.48 
M 339.63 95.21 340.49 96.94 
M 341.36 98.67 342.22 100.4 
M 350.87 117.71 357.49 130.94 
M 359.75 135.45 361.04 138.05 
M 361.91 139.78 362.77 141.51 
M 366.23 148.43 374.02 164 
M 383.54 183.04 384.4 184.77 
M 385.27 186.5 391.33 198.61 
M 403.44 222.84 407.77 231.49 
M 326.62 62.43 334.41 78.01 
M 337.87 84.93 345.66 100.5 
M 356.04 121.27 358.83 126.85 
M 368.97 147.13 369.83 148.86 
M 370.7 150.59 378.49 166.16 
M 386.27 181.74 388.01 185.2 
M 388.87 186.93 392.33 193.85 
M 329.13 60.67 335.18 72.78 
M 336.05 74.51 337.78 77.98 
M 338.64 79.71 340.38 83.17 
M 341.24 84.9 348.16 98.74 
M 349.03 100.47 349.89 102.2 
M 372.57 147.56 376.9 156.21 
M 377.76 157.94 381.22 164.86 
M 333.39 62.42 334.25 64.15 
M 335.12 65.88 339.45 74.54 
M 342.04 79.73 352.42 100.49 
M 376.17 147.99 382.23 160.1 
M 343.71 76.3 344.58 78.03 
M 345.44 79.76 353.23 95.33 
M 354.1 97.06 355.83 100.53 
M 379.77 148.41 381.5 151.87 
M 382.37 153.6 383.23 155.33 
M 392.75 174.37 394.48 177.83 
M 348.05 78.21 349.35 80.8 
M 350.22 82.53 351.95 86 
M 352.81 87.73 356.27 94.65 
M 379.89 141.88 380.75 143.61 
M 392 166.1 393.73 169.56 
M 394.6 171.29 396.33 174.76 
M 397.19 176.49 398.06 178.22 
M 381.3 137.94 384.33 143.99 
M 392.12 159.57 398.18 171.68 
M 399.04 173.41 400.77 176.87 
M 384.88 138.32 390.51 149.57 
M 394.83 158.22 396.56 161.68 
M 397.43 163.42 403.49 175.53 
M 404.35 177.26 405.22 178.99 
M 388.48 138.74 393.24 148.26 
M 397.56 156.91 398.43 158.64 
M 399.29 160.38 407.95 177.68 
M 417.46 196.72 420.93 203.64 
M 421.79 205.37 423.52 208.83 
M 392.08 139.18 396.84 148.7 
M 401.17 157.35 409.82 174.65 
M 420.2 195.42 422.8 200.61 
M 423.66 202.34 427.99 210.99 
M 395.69 139.61 397.85 143.94 
M 403.91 156.05 409.1 166.44 
M 409.96 168.17 411.69 171.63 
M 422.08 192.39 431.59 211.43 
M 399.32 140.11 400.62 142.71 
M 409.27 160.01 410.13 161.74 
M 411 163.47 412.73 166.93 
M 424.84 191.16 432.63 206.73 
M 421.63 177.95 422.49 179.68 
M 428.55 191.8 429.41 193.53 
M 430.28 195.26 433.74 202.18 
M 434.56 203.83 434.95 204.61 
M 421.87 171.67 422.74 173.4 
M 423.6 175.13 425.33 178.59 
M 431.39 190.7 433.12 194.16 
M 434.68 197.3 434.95 197.84 
M 422.98 167.11 423.84 168.84 
M 424.71 170.57 428.17 177.5 
M 429.04 179.23 429.9 180.96 
M 424.25 162.88 433.76 181.91 
M 426.38 160.38 427.25 162.11 
M 428.11 163.84 434.95 177.52 
M 429.38 159.6 434.95 170.75 
M 434 162.07 434.69 163.46 
"/></svg>