<svg xmlns="http://www.w3.org/2000/svg" width="520" height="320"><rect x="0" y="0" width="520" height="320" fill="floralwhite"/><rect x="10" y="10" width="500" height="300" stroke="black" stroke-width="1" fill="none"/><path stroke="black" stroke-width="1" fill="none" stroke-linecap="round" stroke-linejoin="round" d="
M 194.29 107.37 199.53 105.69 208 104.11 216.55 102.96 233.47 99.67 241.98 98.34 250.58 97.65 259.19 97.36 267.81 97.28 285.05 97.44 293.67 97.24 302.28 97.57 310.85 98.49 319.39 99.65 327.91 100.94 336.36 102.68 369.6 111.82 377.65 114.91 385.2 119.07 388.25 122.4 
M 388.25 217.56 386.64 219.35 378.82 222.98 370.63 225.66 353.81 229.46 337.21 234.08 328.79 235.94 320.22 236.91 311.62 237.42 303.01 237.74 285.77 237.72 277.16 238.09 259.99 239.74 251.38 239.94 242.79 239.24 234.34 237.54 226.06 235.14 209.8 229.39 201.56 226.87 193.1 225.25 186.19 224.55 
M 214.17 153.65 217.14 153.48 
M 227.5 154.05 233.22 154.73 243.61 156.63 
M 253.91 156.46 259.89 155.28 
M 263 154.78 267.68 154.06 269.07 153.64 
M 274.56 151.95 276.02 151.62 287.81 150.96 
M 293.95 150.18 295.52 150.06 300.6 150.13 
M 304.01 150.24 308.89 150.21 315 149.77 320.01 149.88 
M 326.78 150.09 330.51 150.54 
M 338.73 152.06 342.62 152.56 
M 346.29 152.81 351.88 153.21 358.01 154.06 
M 361.95 154.47 371.16 154.89 382.08 155.68 385.58 156.15 388.25 156.81 
M 188.71 219.73 189.18 221.57 
M 194.79 216.23 198.21 226.23 
M 199.58 108.92 198.48 110.02 197.6 111.33 
M 199.82 205.43 202.17 214.95 
M 203.22 218.35 205.61 225.33 
M 207.77 203.41 208.19 205.35 
M 209.54 211.67 211.39 218.42 
M 212.39 221.81 214.11 227.01 215.9 231.61 
M 213.28 116.85 212.44 118.2 211.46 119.4 
M 209.58 121.86 208.67 123.13 207.21 126 206.65 127.62 
M 205.26 134.96 205 139.08 
M 204.77 143.26 204.62 145.31 203.87 148.99 203.19 151.4 
M 215.53 202.41 217.77 212.32 
M 218.62 215.68 220.31 222.29 
M 221.44 225.77 222.88 229.5 
M 222.44 120.42 221.88 122.04 220.51 124.99 218.94 127.74 216.25 131.54 
M 214.57 134.19 213.78 135.59 212.8 138.96 212.63 140.98 
M 211.71 148.84 210.33 153.93 
M 213.43 166.41 213.51 166.68 
M 222.99 200.3 224.18 206.32 
M 224.96 209.68 225.79 213.07 
M 227.6 219.93 229.31 225.26 234.23 237.51 
M 231.32 119.61 230.55 123.17 
M 229.69 126.64 228.62 129.89 
M 227.24 132.81 226.44 134.18 223.74 137.98 
M 220.06 143.01 219.27 144.41 218.83 146.16 
M 218.04 150.69 217.69 153.46 
M 231.51 199.79 234.28 211.3 
M 235.87 218.02 236.31 219.74 240.65 232.3 
M 241.49 235.3 242.19 238.07 
M 244.21 110.13 242.97 113.31 
M 240.27 119.38 238.36 124 235.82 132.27 
M 233.65 138.76 232.95 140.24 232.02 141.49 
M 230.13 143.96 229.17 145.18 228.43 146.63 
M 229.88 164.08 230.82 166.89 
M 243.51 212.19 248.1 229.15 
M 248.95 232.22 250.6 238.07 
M 251.42 112.83 249.24 119.45 
M 245.35 128.63 244.18 131.8 
M 239.02 148.47 236.22 155.26 
M 248.35 197.95 252.22 212.23 
M 253.35 215.92 256.53 228.88 
M 257.2 231.78 257.88 234.62 
M 258.53 237.35 259.13 239.76 
M 262.66 106.39 261.52 109.69 
M 258.64 115.66 257.18 118.61 
M 255.83 121.63 254.01 126.36 251.94 133 250.96 136.39 249.88 141.87 
M 249.31 145.7 249.03 147.62 248.18 151.17 246.54 156.97 
M 256.19 194.41 257.13 197.98 
M 259.1 205.17 261.13 212.37 
M 262.14 215.95 263.06 219.42 
M 263.88 222.74 264.93 227.39 265.46 231.32 
M 265.68 233.71 266.27 237.44 266.86 239.12 
M 268.21 116.61 267.55 118.16 265.22 122.43 
M 263.68 125.27 262.97 126.74 258.32 139.62 256.2 148.53 
M 255.4 152.17 254.78 156.37 
M 263.73 192.17 267.25 205.78 270.97 217.22 273.01 226.65 273.43 230.51 
M 273.61 232.9 273.73 234.1 274.44 236.93 275 238.31 
M 278.46 100.24 277.89 104.11 
M 276.65 116.17 276.26 118 274.95 121.1 274.16 122.51 
M 270.15 131.65 269.07 134.97 
M 266.63 141.38 265.48 144.66 
M 263.04 152.22 262.35 154.86 
M 264.12 160.59 265.23 164.34 
M 270.18 187.67 270.26 188.02 
M 273.82 202.14 276.53 211.35 277.59 216.24 
M 279.26 222.88 282.68 235.44 
M 287.3 100 286.89 104.02 
M 286.25 107.8 285.45 111.42 
M 284.75 115.15 284.11 118.92 
M 283.22 122.43 282.03 125.64 
M 280.74 128.74 278.68 133.27 275.49 138.94 274.03 141.93 271.53 148.36 269.97 153.39 
M 277.16 188.72 278.37 193.93 282.64 206.11 283.54 209.61 284.4 214.32 
M 285.92 220.84 287.39 225.91 289.28 231.27 
M 290.63 234.87 291.7 237.79 
M 294.59 107.58 293.73 111.13 
M 291.44 122.06 290.22 127.44 288.64 132.46 
M 287.35 135.6 286.61 137.08 283.66 140.82 
M 281.76 143.41 280.86 144.75 277.12 151.5 
M 279.45 163.22 280.46 167.48 
M 283.66 181.94 284.69 188.82 285.74 192.55 289.29 201.43 290.62 205.39 293.3 217.08 
M 294.22 220.49 296.93 229.21 300.03 237.76 
M 301.06 114.97 300.27 118.59 
M 299.39 122.12 298.44 125.56 
M 297.41 128.94 296.28 132.24 
M 293.38 138.26 289.09 145.24 285.82 151.18 
M 291.2 177.48 292.21 182.14 293.05 188.43 295.21 195.98 298.57 205.96 
M 300.91 213.47 304.23 226.69 
M 305.28 230.12 307.8 237.56 
M 309.67 111.58 307.9 118.61 
M 306.88 122 305.34 127.06 303.45 131.82 
M 301.98 134.82 299.57 139.16 294.92 148.16 293.57 150.16 
M 296.67 165.58 297.3 167.69 
M 299.47 176.67 300.52 181.87 301.16 186.62 
M 301.88 190.07 303.62 195.87 306.46 204.02 307.57 207.75 308.85 212.89 
M 309.73 216.29 312.62 226.57 
M 313.72 230.06 316.16 237.15 
M 315.79 110.33 315.17 111.89 313.21 123.13 312.21 126.53 310.91 129.67 308.02 135.75 304.17 145.56 302 150.17 
M 303.42 158.43 305.45 165.99 
M 307.15 173.24 308.65 180.29 
M 309.4 183.8 310.17 187.32 
M 311.17 191.04 312.32 194.89 
M 313.45 198.7 315.74 206.25 
M 317.01 210.11 318.59 215.5 320.03 221.91 320.57 223.66 
M 321.78 227.29 325.01 236.36 
M 326.54 105.56 323.58 109.17 322.15 112.12 321.1 115.46 319.55 122.7 319 124.35 
M 317.74 127.53 316.36 130.63 
M 315.13 133.89 311.48 146.23 310.18 150.11 
M 319.79 185.95 320.96 189.85 
M 322.68 196.97 323.94 204.82 324.34 206.51 
M 325.19 209.92 326.06 213.31 
M 328.05 220.24 330.87 227.9 
M 332.21 231.6 333.36 234.93 
M 331.03 112.72 329.51 115.61 
M 328.16 118.66 327.52 120.23 326.5 123.62 324.96 131 323.77 134.32 321.11 140.77 318.55 148.83 
M 324.33 173.93 328.09 184.58 329.99 190.55 
M 330.93 194.18 331.89 199.12 332.66 205.04 334.67 214.49 335.81 218.04 337.31 221.91 341.87 232.73 
M 339.24 114.83 337.04 119.3 335.8 122.53 334.71 125.92 332.81 133.07 330.94 138.07 
M 329.65 141.38 327.95 146.62 326.64 150.04 
M 327.81 155.3 328.66 158.88 
M 335.26 179.1 337.38 185.24 338.32 188.83 339.77 195.48 341.24 204.48 342.6 210.66 345.95 220.99 349.82 230.3 
M 350.74 106.64 349.6 109.71 
M 348.57 113.15 347.18 118.49 345.28 123.35 
M 343.98 126.59 341.18 135.25 338.69 142.04 337.67 145.7 336.68 151.72 
M 339.54 161.21 340.18 164.52 
M 341.15 168.13 342.47 172.09 
M 345.56 183.01 347.52 192.56 
M 348.5 196 349.96 201.1 352.27 210.45 354.09 216.81 354.74 218.58 
M 357.85 225.86 358.55 227.41 
M 358.22 111.72 355.77 118.28 
M 354.53 121.59 352.72 126.63 351.35 132.18 
M 350.48 135.95 347.52 147.05 
M 351.76 169.75 353.14 174.93 354.87 182.88 
M 355.5 185.96 357.68 195.31 
M 360.36 204.91 364.09 215.34 
M 365.55 218.99 367.84 224.67 
M 364.47 121.37 360.61 129.03 359.51 132.58 358.43 140.85 357.08 148.94 356.1 153.79 
M 359.95 163.79 361.29 167.58 
M 362.47 171.19 363 172.94 363.97 177.52 
M 365.16 183.44 365.93 187.71 366.66 190.73 368.82 198.54 
M 369.93 201.87 376.43 220.58 
M 375.38 119.03 373 125.86 
M 371.72 129.21 369.71 134.16 368.57 137.68 367.66 141.46 366.9 145.41 365.86 154.62 
M 370.77 167.75 371.83 171.14 
M 373.01 174.63 374.77 179.81 375.12 181.3 
M 376.26 186.93 378.03 195.3 
M 378.93 198.38 382.56 210.65 
M 383.4 213.46 383.79 214.74 
M 213.35 144.83 214.03 144.4 214.98 143.23 216.85 141.85 218.02 141.4 218.53 141.67 
M 351.57 179.61 349.64 177.32 349.42 176.61 349.73 176 351.59 174.14 
M 336.95 211.08 338.07 211.38 338.4 211.66 338.73 212.65 339.19 215.11 339.76 216.29 
M 362.55 133.48 363.29 134.28 
M 293.89 180.63 293.89 177.89 293.69 177.16 293.18 176.33 
M 272.26 195.54 272.02 194.82 271.61 194.62 269.53 195 267.65 194.69 
M 326.55 210.61 326.85 212.38 327.65 213.8 328.49 216.25 328.97 216.86 
M 383.7 219.16 384.89 216.91 385.41 216.8 386.58 217.01 
M 206.19 125.95 206.8 124.57 206.78 123.56 206.52 122.55 206.01 121.62 204.76 120.27 202.42 118.27 202.05 117.32 201.84 114.32 
M 384.99 157.2 385.44 157.5 386.06 157.09 
M 240.24 225.17 238.9 225.02 235.99 225.33 234.17 226.07 233.7 226.79 
M 386.06 131.97 385.44 132.46 382.55 133.97 378.62 134.05 377.42 133.7 
M 205.79 137.71 203.68 134.79 202.65 132.35 202.62 129.68 202.32 127.78 
M 263.68 115.41 262.63 115.42 261.94 115.61 258.74 116.55 256.64 117.36 255.52 117.31 254 116.66 
M 231.12 126.26 232.84 128.7 232.96 129.1 232.76 129.75 
M 331.42 118.29 329.61 117.41 328.48 116.43 327.41 114.44 326.48 113.09 323.4 111.35 322.79 110.81 
M 294.06 229.6 293.24 229.73 290.93 231.17 289.6 231.66 
M 249.36 137.11 248.28 136.69 246.43 137.23 243.89 137.05 
M 311.08 173.1 311.87 172.24 
M 271.1 99.39 271.31 99.88 271.22 100.75 270.81 101.07 270.18 101.05 
M 247.78 154.18 248.47 151.82 248.33 150.29 247.95 149.52 247.64 149.26 246.9 149.02 246.12 149.08 
M 230.7 147.62 231.28 148.03 231.74 148.62 232.67 150.72 233.35 150.81 
M 279.51 164.36 278.45 163.07 277.63 162.56 276.06 161.87 273.25 160.99 271.96 160.33 271.28 159.62 270.87 158.38 
M 327.77 106.16 327.72 105.83 328.12 104.84 
M 291.99 187.47 293.69 186.18 294.22 185.48 294.82 183.93 295.07 182.53 295.07 181.73 294.34 178.07 294.13 177.34 293.7 176.7 
M 369.75 159.31 370.3 155.13 370.26 154.18 370.01 153.3 
M 259.67 192.49 259.63 191.9 
M 303.78 140.55 299.28 144.5 298.22 145.34 297.25 145.86 296.24 145.97 293.32 145.76 292.34 145.4 291.48 144.87 
M 379.02 203.22 378.43 202.81 377.14 202.65 376.61 202.74 376.24 203.18 
M 323.82 170.95 322.77 171.1 320.55 172.36 319.05 172.87 313.83 172.76 
M 302.83 167.75 302.29 165.72 302.3 164.8 302.49 164.25 303.44 162.77 303.86 161.55 
M 270.41 110.75 269.41 111.4 267.12 113.69 266.37 113.92 
M 307.93 235.73 308.1 234.79 308.73 233.83 309.06 233.56 311.73 232.51 312.22 231.92 
M 378.48 223.09 377.51 222.08 376.36 221.45 374.48 219.88 
M 349.51 115.29 347.82 114.24 345.91 112.71 341.53 111.09 339.69 110.08 339.06 109.29 338.81 108.28 338.81 107.35 
M 322.93 192.24 321.33 190.68 320.42 190.19 315.08 189.73 
M 218.91 211.94 217.42 212.27 213.03 212.65 212.01 213.06 211.25 213.73 210.19 215.23 208.67 216.65 
M 202.26 104.97 202.26 104.97 
M 207.01 104.26 209.57 73.65 210.75 71.3 211.43 68.46 212.53 66.03 214.25 64.22 218.68 61.67 219.89 59.44 220.56 56.66 225.22 47.42 226.07 44.71 229.37 40.8 231.34 39.17 233.49 37.71 235.36 35.97 237.43 34.42 239.28 32.65 240.36 30.1 245.46 30.46 247.25 29.99 250.61 31.11 253.34 31.59 255.82 31.83 260.88 31.98 263.78 32.64 265.69 34.37 267.8 35.99 271.74 38.28 273.96 37.39 276.93 36.79 279.18 35.47 282.4 35.14 284.98 34.25 286.82 32.61 288.12 30.55 289.81 30.14 292.66 30.96 296.95 33.56 298.33 35.66 299.12 38.28 300.6 45.93 300.39 47.96 300.71 50.49 302.64 54.52 304.04 58.01 305.53 60.44 306.89 61.84 308.21 63.52 311.25 68.97 313.65 73.81 313.77 75.63 314.47 78.29 314.65 80.41 315.16 81.97 310.63 98.47 
M 306.9 97.99 306.9 97.99 
M 206.49 104.34 207.91 103.39 209.12 96.31 209.72 91.37 210.7 89.63 
M 210.72 103.72 211.79 102.3 212.93 92.61 213.84 90.43 213.91 87.43 214.41 82.27 213.95 79.89 214.5 78.01 214.76 75.19 215.75 70.37 215.64 68.71 
M 214.95 103.17 216.72 96.71 217.1 94.55 217.24 92.25 218.79 86.81 218.23 81.54 219.17 78.58 219.46 75.82 220.53 74.45 
M 219.18 102.56 219.82 100.58 219.98 98.26 220.42 96.29 220.52 93.79 221.04 90.91 222.63 86.69 223.41 76.56 222.79 73.88 223.4 69.01 
M 223.37 101.71 223.85 99.75 223.81 95.15 225.62 90.89 226.69 86.67 226.43 81.68 226.94 79.1 226.13 73.76 225.91 67.77 
M 227.56 100.86 228.1 98.77 228.21 96.39 229.2 89.79 230.07 87.29 230.13 84.86 230.62 82.83 231.15 77.82 230.82 75.62 229.99 72.95 229.84 71.07 230.66 65.93 230.4 63.54 230.92 61.82 231.14 58.79 
M 231.75 100.01 232.66 97.94 232.58 93.14 233.78 89.27 233.83 87 235.28 78.08 235.24 74.26 234.09 71.58 234.25 69.35 234.14 68.13 234.59 66.31 234.91 63.54 234.72 60.9 236.32 53.43 236.76 50.64 235.84 47.73 
M 235.95 99.24 237.16 95.17 237.55 93.05 237.8 90.56 237.82 87.97 238.13 85.45 238.75 83.63 239.75 81.53 240.27 78.82 241.06 76.12 240.43 73.14 239.34 70.93 240.19 67.14 239.72 64.82 239.69 62.21 239.39 59.31 240.36 53.22 
M 240.17 98.61 241.41 96.76 242.22 94.72 242.59 92.68 242.8 87.44 243.08 85.02 244 82.9 244.79 80.29 245.03 77.83 245.58 75.42 245.81 72.54 245.22 69.81 245.59 67.71 245.19 66.67 244.86 64.52 245.08 61.8 246.08 58.01 246.48 54.28 246.2 50.45 247.3 49.4 248.78 47.62 248.28 44.57 247.46 41.07 
M 244.42 98.12 245.63 96.3 247.01 92.03 247.46 89.79 247.93 87.21 248.24 82.4 248.76 80.17 249.6 77.7 249.84 74.65 249.53 71.1 249.85 68.3 249.77 67.39 250.22 66.4 250.68 63.99 251.61 60.63 252.23 57.19 
M 248.68 97.79 249.99 95.66 251.1 93.32 252.32 89.15 253.18 87.15 252.99 84.61 253.29 82.06 255.27 74.6 256.01 69.98 257.23 67.4 258.48 65.34 259.23 60.23 259.26 57.2 
M 252.95 97.57 254.56 95.75 255.5 93.72 256.09 91.36 257.71 87.46 257.99 84.82 258.67 81.67 260 79.11 260.86 76.62 260.99 75.07 262.33 72.9 262.85 70.54 263.2 67.78 263.27 65.55 263.79 62.29 264.74 60.19 264.66 58.1 
M 257.22 97.42 258.83 95.6 259.82 93.42 260.95 91.58 261.65 89.62 263.1 84.82 263.48 79.16 264.04 76.87 264.7 74.47 265.92 72.21 267.76 66.98 
M 261.49 97.33 263.05 95.65 267.2 87.49 267.3 85.04 266.89 80.86 267.43 78.57 270.2 71.07 271.35 68.85 272.54 65.5 273.09 62.62 274.23 60.63 274.03 58.23 274.61 55.72 275.62 53.56 275.65 51.14 277.62 47.37 
M 265.76 97.27 267.23 95.98 268.2 93.91 270.94 86.96 271.55 84.52 271.95 82.05 271.6 80.03 272.55 76.99 273.99 74.41 275.29 72.99 276.72 70.96 277.49 68.72 279.27 65.4 279.9 61.74 279.76 59.61 280.08 56.05 279.94 50.8 281.07 49.39 282.06 47.37 283.14 41.43 
M 270.03 97.32 271.42 95.83 272.41 93.71 273.3 91.05 274.46 86.57 276.11 81.54 276.52 78.4 277.35 75.91 279.47 73.23 280.52 70.29 281.09 67.77 284.19 60.8 
M 274.31 97.41 275.77 95.69 277.87 91.28 279.92 84.47 280.39 81.77 281.44 79.26 281.93 77.23 283.24 74.77 284.95 69.8 285.99 67.67 287.16 65.97 288.29 63.29 289.21 60.83 289.88 58.18 
M 278.58 97.47 280.07 95.65 280.98 93.42 282.86 89.64 285.02 85.79 285.79 82.96 285.99 80.33 288.19 75.03 288.58 71.9 288.69 69.41 289.49 67.09 291.02 65.32 292.6 64.33 292.71 62.38 296.49 56.38 297.17 54.5 297.82 51.32 298.46 49.57 
M 282.85 97.52 284.23 95.77 285.3 93.57 286.42 92.05 287.19 90.06 287.84 87.64 289.17 85.34 290.14 83.16 291.05 80.09 292.09 74.82 291.91 72.04 292.35 69.53 293.62 68.04 295.22 66.67 296.21 62.65 298.49 59.49 
M 287.12 97.36 288.69 95.75 290.97 91.88 291.22 89.9 293.19 85.68 294.59 83.11 295.41 77.23 295.25 74.52 295.87 72.76 297.16 70.11 
M 291.39 97.23 293.34 95.74 294.62 93.71 296.74 87.99 299.62 81.79 301.37 77.37 
M 295.67 97.24 297.45 95.28 298.7 92.98 300.06 91.34 304.3 85.1 305.08 82.42 306.01 80.45 306.64 78.65 307.02 76.6 
M 299.94 97.35 301.96 95.4 304.6 91.39 306.16 90.08 307.44 87.77 308.21 85.2 308.81 82.18 310.44 81.47 311.45 79.16 312.2 76.6 
M 304.19 97.74 305.94 96.05 307.32 93.59 308.85 91.94 312.5 88.89 
M 199.3 165 324.04 166.98 324.03 167.83 198.96 167.95 
M 198.88 168.69 311.36 174.83 311.32 175.69 198.46 171.62 
M 198.35 172.34 298.55 181.73 298.48 182.58 197.9 175.25 
M 197.77 175.94 285.67 187.67 285.56 188.52 197.12 178.82 
M 196.98 179.46 272.77 192.65 272.63 193.49 196.33 182.33 
M 196.19 182.92 259.9 196.67 259.73 197.5 195.53 185.78 
M 195.41 186.31 247.12 199.73 246.92 200.57 194.93 189.22 
M 194.88 189.73 234.48 201.86 234.25 202.68 194.61 192.68 
M 194.57 193.18 222.04 203.05 221.78 203.87 194.17 196.07 
M 194.09 196.56 209.84 203.33 209.55 204.13 193.65 199.38 
M 193.49 200.42 197.95 203.17 197.62 203.96 193.15 202.96 
M 310.79 167.85 307.72 168.29 304.91 169.19 303.64 169.89 302.47 170.78 301.39 171.81 299.39 174.18 
M 299.34 175.26 296.32 175.48 293.52 176.17 292.25 176.78 291.06 177.57 289.95 178.52 287.87 180.73 
M 287.78 181.8 284.82 181.81 282.05 182.29 280.77 182.8 279.57 183.5 278.43 184.37 276.28 186.42 
M 276.15 187.48 273.26 187.27 270.53 187.55 269.26 187.97 268.04 188.58 266.89 189.36 264.68 191.24 
M 264.51 192.3 261.7 191.88 259.03 191.96 257.76 192.28 256.54 192.8 255.37 193.49 253.1 195.2 
M 252.89 196.26 250.19 195.63 248.87 195.48 247.58 195.51 246.32 195.74 243.92 196.77 241.61 198.3 
M 241.36 199.35 238.77 198.53 236.24 198.22 235 198.35 233.79 198.69 232.59 199.2 230.24 200.56 
M 229.95 201.6 227.49 200.58 225.05 200.08 223.84 200.13 222.63 200.37 221.43 200.79 219.05 201.98 
M 218.72 203 216.4 201.81 214.06 201.13 212.88 201.08 211.69 201.23 210.49 201.57 208.08 202.57 
M 207.71 203.58 205.49 202.31 203.24 201.56 202.09 201.48 200.93 201.59 199.75 201.89 197.37 202.82 
M 309.24 168.04 306.27 168.66 304.91 169.19 303.64 169.89 302.47 170.78 300.38 172.97 
M 288.66 168.06 286.21 168.57 284.04 169.59 283.08 170.31 281.35 172.12 
M 268.08 168.07 266.16 168.48 264.44 169.28 263.69 169.85 262.32 171.27 
M 247.51 168.09 245.45 168.63 244.29 169.39 243.3 170.43 
M 297.82 175.34 294.88 175.75 293.52 176.17 292.25 176.78 291.06 177.57 288.89 179.59 
M 273.05 174.45 270.8 174.77 269.75 175.09 267.86 176.16 266.2 177.72 
M 248.27 173.57 245.98 174.01 244.67 174.76 243.51 175.84 
M 286.29 181.77 283.4 181.97 282.05 182.29 280.77 182.8 279.57 183.5 277.34 185.36 
M 264.21 180.18 261.99 180.33 259.97 180.97 259.05 181.51 257.35 182.94 
M 242.12 178.6 239.86 178.87 238.54 179.52 237.35 180.51 
M 274.7 187.35 271.87 187.33 270.53 187.55 269.26 187.97 268.04 188.58 265.77 190.27 
M 245.63 184.21 243.79 184.2 242.92 184.34 241.31 185.01 239.83 186.11 
M 263.1 192.06 260.34 191.83 259.03 191.96 257.76 192.28 256.54 192.8 254.23 194.31 
M 238.09 188.47 236.3 188.32 235.44 188.4 233.83 188.95 232.33 189.93 
M 251.54 195.91 248.87 195.48 247.58 195.51 246.32 195.74 245.11 196.16 242.76 197.5 
M 240.06 198.9 237.49 198.28 236.24 198.22 235 198.35 233.79 198.69 231.41 199.84 
M 228.72 201.05 226.27 200.24 225.05 200.08 223.84 200.13 222.63 200.37 220.24 201.35 
M 250.56 239.95 255.6 244.25 258.5 249.08 270.35 266.19 268.39 267.83 266.16 269.21 264.29 270.94 260.16 274.02 258.22 275.21 255.83 273.87 252.82 271.92 250.16 272.87 248.11 274.4 246.53 276.13 237.24 267.69 235.7 265.54 232.86 260.8 232.28 259.27 231.28 257.37 222.46 243.05 220.95 237.59 218.36 232.51 
M 246.3 239.56 251.85 245 253.52 247.92 254.75 250.51 256.69 253 258.88 255.39 265.57 260.91 266.94 263.28 268.45 264.51 
M 242.05 239.12 244.71 242.25 250.43 250.23 251.39 253.28 252.69 255.64 254.9 257.47 257.67 260.09 
M 237.87 238.27 240.04 241.44 241.11 244.28 242.85 247.33 244.84 250.67 246.27 252.31 247.62 254.62 
M 233.69 237.35 236.09 240.37 239.48 249.7 241.1 252.82 242.87 255.2 243.58 258.03 244.48 260.32 246.17 262.28 
M 229.59 236.17 231.92 239.29 233.06 242.09 233.18 244.48 233.77 247.5 234.82 250.26 236.54 252.82 239.2 258.21 239.67 261.1 241.26 264.51 243.66 267.73 245.21 270.59 245.2 273.06 246.75 275.67 
M 225.49 234.94 228.08 241.85 230.05 246.47 230.95 249.73 231.88 252.35 232.22 254.11 234.21 257.5 235.01 260.6 
M 221.45 233.57 223.15 237.83 223.59 240.75 224.97 244.04 228.43 249.11 229.6 253.81 
M 355.2 229.1 358.68 233.46 361 237.25 364.9 239.48 358.82 238.78 356.83 240.2 355.15 242.02 351.06 245.1 348.43 246.02 346.58 247.5 345.43 249.97 343.43 251.59 340.97 252.72 339.04 254.19 336.69 255 334.48 256.24 329.46 258.4 327.57 260.12 325.28 261.46 323.68 263.48 323.12 266.55 321.85 268.89 319.93 270.6 317.46 271.7 317.34 275.14 313.21 280 311.54 276.27 310.06 274.67 306.93 270.15 305.89 267.22 304.43 264.43 303.33 261.58 301.7 259.88 300.73 257.43 299.84 253.97 298.36 251.44 296.63 249.08 294.83 244.26 293.33 241.51 290.8 237.77 
M 351.06 230.17 354.87 233.62 
M 346.93 231.25 350.69 235.94 
M 342.84 232.48 347.2 237.13 349 240.19 351.19 243.08 
M 338.74 233.69 343.14 237.73 
M 334.6 234.74 338.71 238.6 343.47 243.83 345 246.9 
M 330.44 235.72 337.18 242.5 
M 326.2 236.28 328.92 239.31 331.01 242.38 338.31 250.46 
M 321.96 236.78 324.17 239.71 327.94 245.36 
M 317.7 237.09 320.23 240.69 321.94 243.67 326.66 248.66 328.64 251.52 330.05 254.45 
M 313.43 237.34 323.46 251.85 325.61 254.25 326.28 256.59 
M 309.16 237.52 313.54 244.39 314.98 246.4 316.91 248.41 
M 304.89 237.67 307.31 241.54 308.82 244.51 313.15 251.36 
M 300.62 237.81 306.11 246.66 307.9 249.06 308.93 251.3 310.44 253.62 312.93 255.41 314.66 257.43 
M 296.35 237.84 298.53 241.22 300 244.1 301.42 246.24 302.78 247.78 304.12 251.08 306.68 256.54 310.03 261.77 311.83 265.33 312.25 268.3 
M 387.4 120.37 390.38 119.86 393.08 118.56 395.46 117 397.87 115.85 399.84 115.29 401.3 114.37 403.79 113.31 405.64 111.77 408.22 110.69 414.49 108.46 417.36 107.15 418.76 105.67 420.08 103.84 421.15 101.82 424.04 100.19 427.42 98.79 429.99 98 432.83 97.66 434.84 96.02 436.75 93.63 438.59 90.85 427.61 107.2 427.56 109.92 427.27 112.4 426.19 114.09 425.84 116.66 424.52 118.82 423.72 121.5 422.67 123.94 422.69 126.78 422.5 129.42 422.02 131.77 422.19 134.95 421.74 137.58 420.5 139.42 419.63 141.43 419.38 144.01 418.72 146.17 418.79 148.96 419.5 152.33 418.85 154.45 417.36 156.1 416.67 158.55 417.04 163.67 417.64 169.04 417.57 173.97 417.21 176.37 417.24 179.18 417.95 182.69 417.94 185.47 418.34 188.49 418.68 193.68 419.05 195.98 419.75 198.61 418.81 202.69 418.78 205.26 419.02 207.56 422.62 216.15 423.13 218.13 422.75 219.07 422.64 221.31 423.46 230.39 424.11 232.31 426.16 236.92 426.6 238.22 438.78 256.07 437.22 255.09 435.84 253.9 434.12 251.63 432.04 250.06 429.79 249.43 427.49 247.51 424.2 245.21 422.57 242.89 419.07 239.96 416.42 239.24 412.93 237.36 410.92 235.96 406.78 232.15 399.8 228.33 394.99 225.02 392.82 223.25 390.27 221.47 387.4 218.99 
M 396.16 122.35 399.03 120.85 401.6 119.88 404 119.65 406.25 118.84 408.02 117.65 410.4 117.14 412.3 115.8 417.93 113.21 420.79 111.63 422.6 110.36 
M 390.68 129.82 393.74 128.56 396.72 127.87 399.16 126.94 401.7 126.69 409.23 124.73 410.6 124.16 
M 393.43 134.37 396.5 133.56 399.34 133.21 402.07 132.55 404.22 131.92 406.17 130.93 409.22 130.76 411.41 129.78 
M 390.72 140.22 393.33 139.73 398.69 139.09 401.89 137.36 404.72 136.11 407.4 135.36 409.09 135.36 410.91 135.75 414.19 134.9 416.58 135.41 419.99 133.06 
M 396.33 144.39 399.51 143.61 402.54 143.35 404.87 141.74 407.51 141.42 409.55 141.97 414.23 141.2 
M 390.77 150.59 393.5 150.7 399.9 149.26 402.98 147.98 405.39 148.71 407.92 147.67 
M 387.4 154.89 390.94 156.38 394.01 156.78 399.07 156.38 404.75 155.38 407.62 155.17 410.57 155.23 413.28 154.49 
M 393.72 160.62 396.93 160.58 399.85 160.76 404.62 160.57 411.5 160.77 
M 393.98 165.25 396.56 165.24 400.05 165.78 402.87 166.4 405.24 165.69 407.5 165.68 
M 391.94 170.93 397.93 171.26 403.56 173.46 412.02 173.44 
M 396.93 176.88 402.88 178.61 405.79 179 
M 396.06 182.52 402.7 183.89 405.46 185.15 
M 387.4 184.47 391.35 185.88 393.99 187.03 396.74 187.62 399.56 188.96 402.74 190.21 406.31 191.1 
M 394.11 192.3 396.75 193.74 400.45 195.14 402.71 196.48 403.65 198.13 
M 390.82 196.19 397.1 198.01 399.57 199.35 402.06 201.38 404.25 202.68 406.98 203.28 409.45 202.99 
M 390.77 201.3 396.27 203.43 401.87 205.87 405.97 207.12 408.93 208.72 
M 393.29 207.58 396.03 209.01 398.7 210.17 402.06 212.01 405.29 214.24 408.28 215.62 409.85 217.54 414.02 219.22 
M 387.4 209.13 390.79 211.59 393.93 212.97 402.11 217.75 406.44 221.68 409.18 222.71 411.53 224.03 413.55 224.32 417.72 226.69 419.69 228.13 421.41 228.9 
M 390.93 216.55 393.35 218.57 400.94 223.02 410.62 229.61 411.62 230.58 413.24 232.62 
M 377.57 221.02 376.16 221.78 374.52 222.3 373.13 223.31 371 225.95 369.15 226.22 366.05 224.94 364.31 224.73 361.23 225.36 363.25 227.39 
M 103.9 151.63 103.91 151.17 104.64 149.35 106.08 147.28 108.45 144.7 111.84 141.72 120.91 135.64 126.59 132.3 132.91 129.02 147.76 122.22 163.11 116.58 176.41 111.28 182.25 109.36 187.51 108.06 191.74 107.33 194.18 107.09 196.73 113.47 197.51 119.73 198.52 126.01 199.74 132.31 200.54 138.57 200.73 144.79 200.54 157.2 199.49 163.34 198.79 169.5 197.84 175.64 195.05 187.87 194.49 194.04 192.7 206.34 191.35 212.46 189.35 218.53 186.19 224.44 174.39 223.71 165.94 221.95 158.38 219.65 151.23 216.59 144.53 212.71 132.96 204.17 127.64 199.72 122.9 194.75 118.95 189.81 
M 176.56 142.5 176.16 147.8 173.05 157.67 171.22 162.1 167.53 169.89 166.97 173.47 166.68 177 167.59 184.76 167.93 189.26 167.43 194.34 159.73 194.68 154.13 194.46 148.71 193.89 143.14 192.63 137.62 190.38 132.51 187.29 127.78 183.86 
M 117.75 189.11 111.63 176.65 108.37 168.8 103.7 159.1 102.03 155.27 101.66 153.21 103.09 151.61 105.25 151.66 106.6 153.27 110.39 163.15 114.55 177.5 118.95 189.81 
M 118.45 190.42 108.48 187.08 94.1 181.9 90.2 180.22 82.38 177.59 81.21 175.96 81.82 173.94 83.68 172.97 85.67 173.49 89.51 175.18 106.66 183.88 118.73 189.58 
M 136.77 149.58 135.78 145.81 136.06 141.92 137.59 138.33 140.21 135.43 143.62 133.54 147.46 132.86 151.31 133.46 154.76 135.29 157.43 138.13 159.04 141.69 159.4 145.57 158.48 149.36 156.38 152.65 153.32 155.08 149.64 156.38 145.74 156.42 142.04 155.19 138.94 152.82 136.77 149.58 
M 136.63 149.25 135.85 146.42 135.73 144.96 136.03 142.04 137.04 139.29 138.69 136.87 139.73 135.83 142.15 134.17 144.91 133.16 147.82 132.86 149.29 132.98 152.11 133.76 
M 138.21 148.59 137.54 146.17 137.44 144.92 137.74 142.27 
M 140.33 137.64 141.86 136.34 142.94 135.69 145.29 134.83 146.53 134.62 149.04 134.67 151.46 135.34 
M 139.79 147.94 139.45 146.95 139.15 144.89 139.37 142.79 
M 141.43 138.96 142.82 137.75 143.72 137.21 145.68 136.49 147.75 136.28 149.82 136.58 150.8 136.92 
M 141.37 147.28 140.92 145.68 140.99 143.44 
M 142.69 140.1 144.5 138.73 146.06 138.16 147.72 137.99 149.36 138.23 150.15 138.5 
M 143.26 146.66 142.86 145.15 142.94 144.08 
M 144.29 141.37 144.63 141 145.99 140.24 147.53 139.97 149.07 140.21 150.45 140.94 151.52 142.08 152.16 143.5 152.31 145.06 151.94 146.57 151.1 147.89 149.88 148.86 148.4 149.38 146.84 149.39 145.36 148.9 144.12 147.96 143.26 146.66 
M 145.9 140.29 145.09 141.92 
M 143.96 144.17 143.07 145.96 
M 147.33 140.01 146.03 142.61 
M 145.19 144.29 143.68 147.3 
M 148.55 140.13 146.9 143.42 
M 146.45 144.31 144.49 148.24 
M 149.64 140.51 147.78 144.23 
M 147.73 144.32 145.43 148.92 
M 150.62 141.12 146.53 149.29 
M 151.45 142.01 147.76 149.39 
M 152.08 143.32 149.19 149.1 
M 152.13 145.78 151.06 147.91 
M 118.2 187.5 120.44 189.73 
M 115.26 179.42 117.22 181.38 
M 105.07 148.73 109.84 153.5 
M 107.36 145.89 110.77 149.3 
M 109.97 143.37 113.13 146.53 
M 112.8 141.07 115.69 143.96 
M 115.86 139 119.98 143.13 
M 118.93 136.95 123.97 141.98 
M 122.07 134.96 124.64 137.53 
M 125.3 133.06 129.03 136.79 
M 128.61 131.25 131.91 134.54 
M 131.99 129.5 136.83 134.34 
M 135.46 127.84 138.48 130.86 
M 138.96 126.21 143.05 130.31 
M 142.48 124.6 147.55 129.68 
M 146.01 123.01 149 126 
M 149.64 121.51 153.74 125.61 
M 153.36 120.1 156.27 123.02 
M 157.11 118.72 160.68 122.3 
M 160.89 117.37 164.44 120.93 
M 164.62 115.98 168.09 119.45 
M 168.29 114.52 171.65 117.88 
M 171.95 113.06 174.91 116.02 
M 175.62 111.59 178.35 114.33 
M 179.44 110.29 184.03 114.88 
M 183.36 109.09 186.31 112.04 
M 187.47 108.07 191.97 112.57 
M 191.85 107.32 193.99 109.46 
M 156.18 127.6 155.59 125.59 155.67 124.68 156.19 122.96 
M 184.46 164.04 181.79 164.8 179.12 165.16 177.38 165.95 
M 116.44 182.77 117.12 182.16 
M 188.6 212.27 189.14 211.71 190.77 210.75 191.79 210.46 
M 162.54 154.18 161.41 154.94 160.36 155.2 157.54 155.48 155.6 155.45 153.82 154.68 
M 168.56 132.36 170.03 131.36 172.96 128.04 
M 134.12 158.29 133.29 160.15 132.32 161.16 131.56 161.71 
M 127.69 135.73 128.89 136.03 131.97 135.39 
M 135.64 160.36 134.39 160.37 133.68 160.53 131.46 161.93 130.79 162.69 130.25 164.04 
M 179.55 222.37 180.46 224.09 
M 142.55 204.39 142.33 201.87 142.49 200.12 142.74 199.43 143.3 199.11 
M 163.78 146.19 162.79 146.05 160.81 145.36 159.39 145.47 
M 156.87 178.35 153.75 180.04 151.8 181.55 150.77 182.6 150.22 182.89 
M 166.97 221.87 167.51 220.17 168.24 219.07 168.45 218.36 168.06 217.15 167.31 216.59 
M 163.02 150.09 162.59 150.63 161.94 151.04 161.16 151.24 159.4 151.2 157.48 150.92 
M 123.03 179.14 124.14 179.12 124.74 179.27 125.24 179.65 125.9 181.18 125.86 181.58 125.59 181.78 
M 134.82 165.83 134.32 164.92 133.13 164 131.97 163.95 131.52 164.32 
M 114.02 175.73 114.69 175.27 118.05 174.35 119.28 173.8 
M 127.08 162.75 126.05 162.64 123.68 161.58 121.94 161.13 118.28 160.99 117.49 160.76 115.71 159.7 
M 198.68 126.86 194.97 124.6 194.07 123.63 192.93 121.38 191.86 120.56 
M 148.69 191.25 143.56 192.34 
M 159.37 214.69 159.19 213.63 159.38 212.01 158.92 210.97 157.86 209.55 
M 185.9 132.33 185.41 132 183.74 129.91 182.06 128.29 180.71 126.48 180.08 125.55 179.73 124.67 179.52 123 
M 112.85 166.89 114.22 167.76 115.18 168.85 115.55 169.41 115.73 170.32 
M 167.29 158.16 166.91 159.91 167.23 160.74 
M 149.83 133.23 149.79 132.04 149.43 130.95 148.66 129.97 148.1 129.57 
M 194.25 147.36 192.61 146.79 191.57 145.92 189 143.03 186.31 141.33 
M 151.88 169.03 154.68 171.68 155.22 172.63 155.35 173.28 154.94 174.97 154.58 175.94 153.92 176.76 
M 125.56 197.53 123.95 195.57 122.71 194.51 
M 121.57 193.09 121.08 191.89 120.81 190.71 
M 185.63 120.39 184.9 117.57 183.64 116.14 182.02 113.9 181.5 113.49 180.02 112.8 177.74 112.23 177.19 111.91 
M 191.96 126.81 190.01 124.57 188.59 121.62 187.57 120.66 186.39 119.84 185.85 119.2 185.02 117.24 183.6 115.94 
M 151.85 207.05 149.8 207.9 147.75 208.51 146.05 209.64 
M 131.96 133.65 131.68 132.65 131.25 132.31 130.36 131.96 
M 172.49 204.8 173 205.77 173.44 207.53 173.69 207.86 174.48 208.37 175.92 208.62 
M 137.5 169.94 135.32 168.96 134.59 168.27 134.16 167.07 134.11 165.04 133.13 164.12 
M 149.38 192.53 148.01 192.82 144.18 192.83 
M 118.33 175.47 119.83 174.72 120.6 173.56 120.9 172.83 121.03 171.97 120.69 168.86 120.29 167.89 119.78 167.1 119.23 166.68 118.32 166.47 
M 123.68 143.04 124.87 141.78 125.35 141.78 127.02 142.24 
M 152.78 201.54 151.95 200.69 151.69 199.9 152.35 197.13 152.81 196.45 155.04 194.89 156.28 193.49 
M 168.49 140.27 167.63 141.2 166.35 141.47 164.83 141.23 161.99 141.23 161.26 141.04 160.2 140.42 
M 169.24 217.02 168.46 216.47 167.93 216.29 164.45 215.58 162.08 215.37 161.45 215.14 
M 170.89 117.09 170.33 113.71 
M 126.45 187.07 126.86 185.8 126.7 183.95 
M 171.52 137.34 173.76 136.74 174.03 136.74 174.18 136.92 
M 185.9 186.63 182 184.62 181.64 184.21 180.64 182.18 179.38 181.67 
M 122.27 192.91 121.86 191.95 121.09 188.45 118.53 185.87 117.56 184.55 117.44 183.88 117.73 182.64 
M 173.2 188.63 174.04 189.17 175.72 189.59 175.86 189.92 175.66 190.63 
M 128.49 150.07 129.38 149.93 131.1 150.14 132.13 150.6 132.67 151.04 133.04 151.63 133.39 152.78 133.28 154.33 
M 189.79 199.82 189.29 200.8 188.87 201.27 187.83 201.87 187.36 201.93 186.51 201.74 185.62 201.21 183.87 199.48 183.44 199.22 
M 187.84 184.21 186.53 183.37 183.46 182.8 181.41 181.84 178.75 181.4 
M 127.68 137.28 129.13 137.58 131.08 137.7 133.23 137.08 
M 169.28 150.86 169.44 151.73 170.05 152.57 174.14 155.21 175.3 156.15 175.7 156.8 
M 131.11 141.44 131.66 140.68 133.19 137.66 
M 167.42 143.63 166.31 143.38 164.51 142.36 161.89 141.74 160.63 141.25 159.71 140.66 158.34 139.35 
M 120.67 136.12 120.5 135.91 
M 129.63 195.21 130.22 194.25 130.37 193.56 130.35 188.69 
M 147.39 132.87 147.44 131.96 147.21 131.23 146.61 129.93 146.2 129.51 144.69 128.63 142.49 128.12 
M 177.93 179.88 176.82 180.45 175.11 180.99 
M 169.05 222.59 170.13 220.88 171.4 219.38 171.71 218.6 171.71 217.74 171.37 216.92 170.42 215.43 169.42 214.54 
M 182.46 117.76 182.04 115.49 181.31 114.44 179.65 113.32 177.74 112.62 176.37 111.29 
M 118.12 174.72 119.38 174.13 119.84 173.74 120.5 172.44 120.62 171.63 120.49 169.58 120.27 168.52 119.85 167.61 119.38 166.98 118.88 166.69 117.77 166.64 
M 118.92 189.7 119.32 190.69 
M 115.77 185.05 115.59 185.54 115.96 185.42 
M 113.15 179.85 112.72 180.2 112.19 181.18 112.92 180.67 113.51 180.6 
M 110.82 174.69 109.63 175.46 108.78 176.82 109.83 175.94 111.21 175.65 
M 108.67 169.48 106.54 170.73 105.38 172.46 106.74 171.2 109.15 170.59 
M 106.29 164.43 103.45 166 101.97 168.1 103.65 166.47 106.82 165.57 
M 103.87 159.41 100.36 161.26 98.57 163.74 100.56 161.74 104.45 160.55 
M 101.84 154.2 97.27 156.53 95.16 159.38 97.47 157.01 102.13 155.51 
M 118.67 189.76 119.79 190.23 
M 113.63 187.15 114.15 186.75 114.76 186.53 114.62 186.95 114.72 187.69 
M 108.63 184.83 109.54 183.7 110.52 183.17 110.01 183.89 109.84 185.36 
M 103.8 182.35 104.93 180.64 106.28 179.8 105.4 180.84 104.96 182.96 
M 98.94 179.92 100.32 177.59 102.05 176.43 100.79 177.79 100.1 180.48 
M 94.04 177.54 95.71 174.54 97.81 173.07 96.18 174.73 95.2 178.13 
M 89.21 175.04 91.1 171.48 93.57 169.7 91.57 171.68 90.36 175.6 
M 84.09 173.08 86.49 168.43 89.33 166.33 86.96 168.63 85.41 173.42 
M 89.43 179.96 94.09 183.68 99.3 187.47 104.52 191 109.87 194.28 115.38 197.12 121.09 199.62 132.96 204.17 
M 196.43 112.71 201.87 118.15 
M 196.93 106.37 206.1 115.54 
M 202.34 104.95 209.5 112.11 
M 208.3 104.07 215.47 111.24 
M 214.32 103.25 220.03 108.96 
M 220.25 102.34 229.74 111.84 
M 225.93 101.19 232.43 107.69 
M 231.62 100.04 238.12 106.54 
M 237.43 99.02 243.12 104.71 
M 243.44 98.19 252.16 106.91 
M 249.79 97.71 257.74 105.66 
M 256.37 97.45 261.98 103.06 
M 263.06 97.31 268.79 103.03 
M 269.92 97.32 279.6 107.01 
M 276.88 97.45 282.81 103.37 
M 283.75 97.49 289.65 103.38 
M 290.35 97.24 296.9 103.8 
M 297.19 97.25 305.45 105.5 
M 304.55 97.78 311.17 104.39 
M 312.29 98.68 321.17 107.55 
M 320.22 99.77 328.83 108.38 
M 328.29 101 333.94 106.66 
M 336.95 102.82 345.94 111.81 
M 346.35 105.39 352.21 111.24 
M 355.88 108.08 366.11 118.31 
M 365.18 110.54 373.22 118.58 
M 375.51 114.03 384.84 123.37 
M 194.87 221.2 197.26 225.99 
M 194.53 214.54 200.59 226.67 
M 194.95 209.41 204.03 227.57 
M 195.52 204.57 207.58 228.69 
M 197.59 202.73 211.16 229.86 
M 200.12 201.8 214.83 231.21 
M 202.98 201.54 218.49 232.56 
M 206.68 202.96 222.09 233.79 
M 209.22 202.06 225.7 235.01 
M 211.79 201.22 229.22 236.06 
M 214.82 201.29 232.71 237.07 
M 199.37 164.41 200.43 166.52 
M 218.65 202.96 236.12 237.91 
M 200.09 159.86 203.44 166.56 
M 220.72 201.13 239.45 238.59 
M 200.6 154.9 206.45 166.6 
M 223.27 200.24 239.88 233.47 
M 200.71 149.14 209.46 166.63 
M 226.26 200.24 238.48 224.69 
M 200.68 143.1 212.46 166.67 
M 229.92 201.58 237.09 215.91 
M 200.24 136.24 215.47 166.7 
M 231.91 199.57 237.24 210.23 
M 198.77 127.32 218.48 166.74 
M 234.37 198.52 237.41 204.59 
M 197.36 118.51 221.49 166.78 
M 237.24 198.27 238.34 200.48 
M 198.03 113.87 224.5 166.81 
M 197.61 107.06 227.51 166.85 
M 199.87 105.6 230.52 166.88 
M 202.53 104.93 233.53 166.92 
M 205.32 104.51 236.54 166.96 
M 207.36 102.62 239.55 166.99 
M 207.79 97.49 241.04 163.99 
M 208.22 92.37 242.23 160.4 
M 208.65 87.24 242.66 155.27 
M 209.07 82.12 243.09 150.15 
M 284.37 232.7 286.88 237.74 
M 209.5 77 243.52 145.02 
M 281.74 221.46 289.89 237.77 
M 210.81 73.62 244.82 141.65 
M 280.75 213.5 292.9 237.8 
M 211.94 69.9 245.19 136.4 
M 281.11 208.25 295.91 237.84 
M 213.67 67.39 245.4 130.83 
M 282.09 204.21 298.91 237.87 
M 215.87 65.8 245.3 124.66 
M 282.75 199.57 301.86 237.77 
M 218.21 64.49 245.34 118.76 
M 283.56 195.2 304.8 237.68 
M 219.91 61.92 242.46 107.02 
M 285.26 192.63 307.74 237.57 
M 221.08 58.27 240.57 97.25 
M 286.43 188.98 310.67 237.45 
M 222.54 55.2 239.73 89.6 
M 287.12 184.38 313.6 237.34 
M 224.12 52.39 240.55 85.25 
M 288.14 180.43 316.51 237.17 
M 225.49 49.14 239.63 77.42 
M 290.11 178.38 319.4 236.96 
M 226.99 46.16 240.36 72.91 
M 292.29 176.76 322.29 236.76 
M 228.87 43.94 239.95 66.11 
M 289.64 165.48 290.7 167.61 
M 294.79 175.78 325.11 236.43 
M 230.93 42.08 240.48 61.19 
M 289.4 159.02 293.71 167.64 
M 297.57 175.36 327.92 236.05 
M 233.14 40.51 239.63 53.51 
M 289.32 152.88 296.72 167.68 
M 299.75 173.74 330.72 235.68 
M 235.21 38.68 237.89 44.03 
M 289.1 146.45 299.73 167.71 
M 301.65 171.56 332.84 233.94 
M 237.38 37.03 238.52 39.32 
M 288.97 140.22 302.74 167.75 
M 303.77 169.82 331.78 225.83 
M 288.67 133.63 305.75 167.79 
M 306.2 168.69 329.18 214.65 
M 288.99 128.29 308.76 167.82 
M 308.89 168.1 329.5 209.32 
M 289.04 122.41 330.32 204.97 
M 286.49 111.32 330.82 199.99 
M 284.67 101.71 330.54 193.43 
M 284.87 96.13 330.73 187.85 
M 285.68 91.77 331.55 183.49 
M 286.43 87.27 331.52 177.47 
M 285.88 80.2 331.75 171.93 
M 286.12 74.7 331.99 166.43 
M 286.25 68.98 332.12 160.7 
M 287.27 65.04 332.37 155.23 
M 287.63 59.77 332.73 149.96 
M 287.75 54.03 333.61 145.75 
M 287.52 47.59 311.91 96.36 
M 313.12 98.78 334.14 140.82 
M 286.99 40.55 312.97 92.5 
M 316.33 99.21 335.05 136.67 
M 287.47 35.51 314.03 88.64 
M 319.55 99.67 334.45 129.48 
M 378.02 216.62 380.78 222.13 
M 289.14 32.87 315.1 84.79 
M 322.77 100.13 334.62 123.83 
M 378.19 210.97 383.19 220.98 
M 292.42 33.46 300.49 49.58 
M 326.01 100.64 335.57 119.75 
M 378.37 205.36 385.61 219.84 
M 296.66 35.95 299.13 40.89 
M 329.26 101.15 335.76 114.15 
M 378.56 199.76 387.88 218.4 
M 332.57 101.79 336.01 108.67 
M 377.29 191.23 389.75 216.15 
M 372.27 175.21 391.61 213.89 
M 371.84 168.37 393.48 211.64 
M 372.27 163.25 395.34 209.38 
M 372.7 158.12 395.45 203.61 
M 373.13 153 395.45 197.63 
M 374.33 149.41 395.45 191.65 
M 373.97 142.71 395.45 185.67 
M 374.34 137.48 395.45 179.69 
M 375.49 133.79 395.45 173.7 
M 375.93 128.69 395.45 167.72 
M 375.6 122.05 395.45 161.74 
M 375.49 115.85 395.45 155.76 
M 378.11 115.1 395.45 149.77 
M 382.2 117.3 395.45 143.79 
M 386.45 119.81 395.45 137.81 
M 395.05 131.04 395.45 131.83 
"/></svg>