<svg xmlns="http://www.w3.org/2000/svg" width="520" height="320"><rect x="0" y="0" width="520" height="320" fill="floralwhite"/><rect x="10" y="10" width="500" height="300" stroke="black" stroke-width="1" fill="none"/><path stroke="black" stroke-width="1" fill="none" stroke-linecap="round" stroke-linejoin="round" d="
M 156.17 95.48 175.71 86.52 185.46 82.46 195.21 78.76 214.72 71.96 224.47 69.21 234.23 67.19 243.98 65.67 273.24 64.93 282.99 66.24 292.75 68.86 302.5 72.09 322.01 79.27 331.76 82.68 341.51 86.63 370.77 100.32 400.98 113.62 
M 400.98 146.35 380.53 157.4 370.77 162.44 361.02 167.06 351.27 171.44 341.51 175.23 322.01 182.26 312.25 184.84 302.5 187.1 292.75 189.13 282.99 190.2 273.24 190.92 263.49 190.62 253.73 190.63 243.98 190.86 234.23 189.42 224.47 187.06 214.72 184.31 204.97 181.28 195.21 178.64 185.46 175.51 175.71 171.53 165.98 166.89 
M 400.98 121.32 395.2 120.39 380.49 117.4 372.86 116.03 357.27 113.9 342.34 111.62 336.77 110.98 
M 333.03 110.66 320.03 109.3 316.3 108.62 301.7 105.41 293.07 103.74 
M 289.76 103.13 283.18 102.13 
M 279.83 101.94 276.37 101.95 
M 272.82 102.07 256.81 103.24 238.31 105.31 234.58 105.47 225.65 105.23 
M 222.09 105.16 216.57 105.25 214.62 105.47 
M 210.72 105.96 206.81 106.53 
M 202.95 107.15 199.1 107.79 
M 195.28 108.4 191.45 108.96 
M 187.6 109.48 183.67 109.99 
M 175.71 111.14 168.04 112.28 
M 182.85 164.34 186.15 167.8 
M 187.18 161 193.93 168.13 
M 191.18 157.32 191.34 157.51 
M 201.25 168.54 203.97 171.93 
M 158.7 94.33 167.67 110.87 
M 170 114.98 174.57 122.62 
M 208.32 168.93 210.92 172.29 
M 163.92 91.96 168.92 100.74 172.51 106.67 
M 177.42 114.95 179.94 119.24 
M 205.97 156.33 210.25 161.88 
M 218.26 172.46 221.05 175.59 
M 169.22 89.53 178.82 104.33 181.33 108.46 189.62 123.04 
M 213.06 155.2 215.09 158.05 
M 217.79 161.96 221.75 167.52 225.92 172.67 
M 174.67 87 183.87 100.08 186.43 104.17 193.56 117.41 196.99 123.25 
M 222.48 157.95 227.92 165.74 
M 239.19 178.97 241.9 181.59 
M 180.22 84.64 185.79 92.07 188.6 96.04 191.24 100.13 196.13 108.61 200.83 117.42 204.47 123.46 
M 229.58 157.66 232.42 161.77 
M 241.02 172.96 243.68 175.94 
M 185.64 82.39 193.01 92.21 198.47 100.21 203.45 108.53 208.22 117.27 210.85 121.59 212.33 123.67 
M 232.2 150.79 236.66 157.44 
M 242.56 165.68 245.37 169.22 
M 248.04 172.27 250.59 174.9 
M 191.03 80.34 200.26 92.44 205.76 100.19 208.39 104.21 215.93 117.08 218.83 121.32 220.87 123.92 
M 239.23 150.54 243.83 157.32 
M 196.42 78.35 204.78 89.06 213.15 100.31 215.86 104.3 221.05 112.74 223.99 116.93 228.89 123.07 
M 244.33 147.28 249.48 154.98 252.33 158.86 256.42 163.83 
M 261.59 169.48 264.11 172.09 
M 201.86 76.5 214.9 93.22 220.3 100.81 224.29 106.85 
M 227.17 110.89 228.69 112.89 235.36 120.83 237.99 124.4 
M 250.86 146.42 252.23 148.48 
M 255.03 152.55 260.53 159.63 
M 263.2 162.71 265.87 165.61 
M 271.21 171.03 273.82 173.54 
M 283.19 181.71 285.11 183.13 
M 207.08 74.68 211.33 79.81 219.33 90.4 229.72 105.48 232.79 109.27 239.5 116.82 242.68 120.86 244.12 123.01 
M 256.19 143.77 260.44 150.14 264.58 155.47 
M 267.39 158.73 270.21 161.77 
M 278.37 170.06 280.83 172.6 
M 212.03 72.92 215.92 77.23 221.22 84.25 231.14 98.61 233.79 102.2 236.76 105.76 241.67 111.16 
M 244.99 115 246.63 116.98 249.69 121.24 251.94 124.79 
M 261.42 141.21 263.1 143.8 
M 268.64 151.38 271.54 154.83 
M 277.3 160.94 282.62 166.47 
M 285 169.13 287.18 171.71 
M 216.96 71.33 220.5 75 223.22 78.31 228.49 85.35 235.71 95.49 241.01 102.09 245.6 107.28 
M 248.81 111.04 253.55 117.26 258.51 124.97 
M 268.05 140.92 271.21 145.44 275.56 150.95 
M 288.78 165.64 290.9 168.45 
M 222.19 69.85 225.2 72.85 227.92 75.99 242.94 95.21 251.19 104.93 254.23 108.76 257.27 112.99 261.62 119.61 
M 264.25 123.83 265.06 125.16 
M 272.07 136.77 277.99 145.11 282.18 150.35 
M 305.04 179.02 306.39 180.36 
M 227.95 68.49 230.07 70.53 232.71 73.46 255.34 100.79 258.1 104.47 263.83 112.86 271.42 125.34 
M 277.25 134.5 277.31 134.59 
M 280.14 138.63 283 142.53 
M 288.55 149.6 291.22 152.83 
M 298.06 162.09 300.16 165.15 
M 234.09 67.22 237.52 70.73 247.45 82.2 254.66 90.73 258.3 95.3 
M 260.81 98.64 267.56 108.17 270.13 112.24 274.59 120.03 277.95 125.52 
M 283 133.03 289.5 141.87 
M 292.41 145.6 297.68 152.49 
M 306.51 165.21 308.95 168.3 
M 240.36 66.23 254.3 81.4 259.1 87.1 267.7 98.11 
M 270.36 101.73 274.16 107.49 277.41 113.33 
M 279.53 117.2 284.34 125.06 
M 287.09 129.2 291.61 135.5 296.31 141.5 
M 304.27 152.39 306.46 155.74 
M 310.92 162.26 313.39 165.46 
M 246.4 65.59 258.61 77.79 261.06 80.62 274.65 97.47 
M 277.21 101.11 279.56 104.91 
M 281.7 108.8 283.76 112.76 
M 288.19 120.84 291.38 125.89 
M 292 126.84 296.79 133.28 
M 300.06 137.36 303.21 141.32 
M 306.06 145.18 310.84 152.47 
M 315.41 159.28 317.9 162.56 
M 252.68 65.38 260.26 71.91 262.79 74.39 265.2 77.1 272.18 85.89 280.06 95.13 282.59 98.69 284.92 102.51 293.47 118.9 295.97 122.99 297.4 125.03 
M 300.43 129.12 303.7 133.2 
M 306.96 137.27 311.36 143.31 317.33 152.7 
M 319.76 156.18 322.31 159.53 
M 332.56 171.66 333.92 173.1 
M 259.84 65.27 264.38 68.84 266.83 71.16 269.19 73.74 272.58 78.03 
M 274.89 80.98 283.91 91.4 286.5 94.72 288.97 98.38 291.3 102.3 294.58 108.48 
M 296.77 112.71 300.28 119.01 302.92 122.99 304.44 125.01 
M 307.59 129.08 312.39 135.3 315.23 139.43 318.98 145.43 
M 326.59 156.3 329.24 159.56 
M 267.59 65.1 270.91 68.01 273.2 70.47 280.04 79.05 286.4 86.31 
M 291.62 92.73 296.65 100.25 
M 299.05 104.3 304.97 114.82 307.63 119 312.1 125.1 
M 320.66 137.52 323.14 141.59 
M 325.64 145.53 328.23 149.26 
M 333.45 155.94 336.05 159.12 
M 275.36 65.21 277.36 67.3 286.56 78.31 292.94 85.61 
M 295.57 88.91 299.55 94.33 304.83 102.15 309.8 110.67 312.55 114.98 319.95 125.29 
M 327.6 137.54 332.5 145.05 
M 283.51 66.38 293.19 77.22 298.34 83.33 303.78 90.41 306.49 94.23 310.4 100.26 
M 318.67 113.06 326.03 123.36 335.58 138.72 341.7 147.16 
M 293.44 69.09 300.01 76.42 306.59 84.91 
M 309.24 88.64 317.06 100.53 
M 319.81 104.72 330.27 119.27 338.76 132.39 
M 345.92 142.7 350.96 149.98 
M 356.2 157.24 358.82 160.62 
M 304.06 72.67 309.41 79.77 326.71 104.72 
M 329.78 108.81 334.29 114.89 345.48 131.66 
M 350.32 138.75 355.32 146.14 
M 313.02 76.01 321.2 87.37 335.57 106.33 339.84 112.34 
M 342.44 116.3 344.95 120.22 
M 354.93 135.15 362.46 146.48 
M 365.04 150.26 367.64 153.97 
M 321.74 79.17 325.42 83.83 337.2 97.96 340.22 101.83 344.41 107.84 
M 346.98 111.92 350.74 118.06 362.2 135.47 
M 364.69 139.39 367.16 143.27 
M 332.23 82.87 341.98 93.76 344.99 97.52 347.83 101.49 354.27 111.82 
M 356.8 115.91 361.97 123.9 
M 364.53 127.9 369.51 136.02 
M 379.21 151.6 380.77 153.98 
M 345.24 88.39 349.53 93.56 355.24 101.54 368.13 122.02 371.91 128.31 
M 374.35 132.54 379.12 140.78 
M 357.33 94.1 360.08 97.76 365.68 106.03 370.67 114.17 376.79 124.73 
M 379.18 129.05 381.54 133.34 
M 368.7 99.37 373.44 106.54 375.87 110.64 381.62 121.24 
M 383.94 125.61 388.61 134.24 
M 390.98 138.38 393.32 142.37 
M 379.02 103.93 384.28 113.56 
M 386.48 117.84 390.97 126.56 
M 395.63 135.06 397.96 139.15 
M 387.93 107.9 391.37 114.48 
M 393.58 118.76 398.02 127.36 
M 396.72 111.76 400.98 119.96 
M 159.96 93.76 157.76 96.9 
M 169.33 89.47 161.33 101.51 
M 179.04 85.14 164.41 106.76 
M 188.96 81.13 186.54 84.52 178.76 96.25 168.41 110.85 
M 200.56 76.94 196.29 81.45 193.71 84.75 184.87 98.05 
M 181.95 102.18 169.82 119.08 
M 213.99 72.22 206.62 79.27 201.13 85.29 198.54 88.66 190.86 100.12 183.35 110.6 
M 226.6 68.77 223.39 71.35 
M 220.65 73.67 216.66 77.33 213.97 80.09 208.6 85.98 205.94 89.14 203.33 92.56 196.68 102.27 
M 193.78 106.45 187.73 115.05 
M 236.89 66.78 229.54 73.25 222.61 79.76 
M 219.88 82.47 215.89 86.69 211.97 91.32 
M 209.35 94.67 203.97 102.23 
M 201.08 106.43 189.79 123.05 
M 245.08 65.63 239.75 70.72 224.42 86.35 
M 221.74 89.15 217.9 93.53 215.38 96.75 208.46 106.34 
M 205.41 110.69 202.35 115.17 
M 199.41 119.61 197.08 123.25 
M 173.92 160.49 171.62 163.67 
M 251.55 65.42 246.57 70.53 234.47 84.28 
M 228.8 90.17 224.77 94.5 222.31 97.52 212.92 110.59 
M 209.79 115.02 204.24 123.45 
M 257.64 65.3 255.49 67.47 250.72 72.93 240.28 85.86 233.02 93.78 
M 230.3 96.87 227.81 100 
M 223.11 106.81 215.94 117.08 211.55 123.66 
M 189.23 161.09 186.98 164.49 
M 263.63 65.22 257.4 72.23 247.32 85.34 235.95 98.8 233.41 102.18 230.1 107.34 
M 227.87 110.97 219.57 123.42 
M 269.56 65.04 266.43 68.58 261.73 74.51 254.2 84.53 243.21 98.49 239.45 103.93 
M 235.2 111.16 230.74 118.9 
M 228.01 123.11 227.35 124.1 
M 202.22 165.2 199.82 168.45 
M 275.18 65.19 270.51 70.75 260.97 83.77 250.43 97.75 247.89 101.52 245.54 105.38 242.44 111.12 
M 238.44 118.81 235.24 124.32 
M 212.32 161.91 206.91 168.85 
M 280.49 65.91 276.86 70.13 272.09 76.5 257.4 97.05 253.82 102.82 
M 251.62 106.87 249.57 110.97 
M 247.61 114.99 244.56 120.94 242.5 124.53 
M 224.84 153.92 224.74 154.11 
M 224.24 155.04 222.49 157.92 
M 216.92 165.65 214.08 169.1 
M 211.35 172.31 208.76 175.26 
M 285.6 66.94 280.81 72.78 274.87 80.98 
M 272.62 84.29 264.18 96.56 261.74 100.41 259.5 104.42 253.56 117.26 251.51 121.37 249.62 124.73 
M 231.93 153.2 229.58 157.63 
M 224.38 165.69 221.55 169.22 
M 215.93 175.48 213.93 177.61 
M 290.46 68.25 287.35 72.01 284.84 75.41 280.1 82.17 274.63 90.49 
M 272.32 94.07 268.66 99.88 265.17 106.24 
M 263.11 110.69 259.24 119.59 
M 257.13 123.82 256.54 124.92 
M 239.01 153.01 236.68 157.43 
M 231.84 165.73 229.17 169.39 
M 295.21 69.67 291.44 74.36 286.62 81.47 280.16 91.66 273.13 103.47 270.7 107.86 268.49 112.44 263.62 123.87 
M 248.55 148.57 243.87 157.35 
M 300.04 71.27 298.21 73.41 295.66 76.87 290.92 84.12 277.26 107.16 274.73 111.61 272.45 116.21 268.61 125.26 
M 259.04 142.07 257.86 144.12 
M 255.52 148.39 253.24 152.69 
M 248.65 161.23 246.33 165.42 
M 305.14 73.07 300.03 79.74 295.29 87.1 286.26 102.44 278.45 115.27 276.12 119.75 273.66 125.4 
M 266.17 140.83 264.51 143.74 
M 257.85 156.31 255.56 160.38 
M 248.45 172.21 245.94 175.7 
M 310.48 75.07 306.93 79.64 304.52 83.07 299.74 90.52 292.66 102.28 284.8 114.76 282.3 118.99 280.03 123.29 279.05 125.55 
M 275.2 135.1 273.37 139.23 
M 264.61 155.49 260.02 163.23 
M 252.78 174.42 250.29 177.83 
M 315.9 77.05 311.26 83.34 308.97 86.78 299.3 102.22 291.22 114.72 287.53 120.84 
M 281.57 134.07 279.81 138.65 
M 277.94 143.05 274.85 149.18 272.69 153 266.88 162.21 
M 264.44 165.84 261.99 169.42 
M 259.51 172.92 257 176.33 
M 321.33 79.02 315.57 87.16 306.29 102.16 302.14 108.46 
M 299.3 112.72 296.56 116.89 
M 294.03 120.94 291.31 125.89 
M 290.63 127.28 287.99 133.51 
M 286.19 137.97 284.36 142.38 
M 282.48 146.6 280.51 150.55 
M 278.47 154.26 275.19 159.59 271.53 164.84 
M 266.36 171.74 263.75 175.02 
M 258.56 181.12 256.45 183.47 
M 326.77 80.93 319.94 90.95 310.62 106.45 302.15 118.99 299.59 123.03 297.4 127.07 294.64 133.32 
M 292.84 137.56 288.92 145.87 
M 284.95 153.48 283 157.05 
M 276.17 167.35 272.2 172.37 268.08 177.02 
M 332.42 82.95 329.36 87.15 324.42 94.69 322.06 98.62 315.22 110.86 311.12 117.01 
M 308.28 121.02 306.86 123 304.42 127.02 302.42 131.16 298.8 139.43 295.68 145.42 
M 293.46 149.22 287.26 159.65 
M 285.22 163.03 281.85 168.1 277.99 172.98 
M 338.11 85.25 334.36 90.48 329.11 98.45 326.68 102.63 322.46 111.05 320.21 115.2 317.61 119.25 312.02 127.11 310.83 129.13 
M 308.62 133.19 306.66 137.27 
M 304.69 141.3 303.68 143.29 300.18 148.95 
M 297.76 152.48 293.23 159.13 
M 291.17 162.36 289.13 165.6 
M 282.15 175.1 280.86 176.57 276.75 180.55 
M 343.8 87.71 339.5 93.9 334.11 102.25 331.66 106.6 327.4 115.23 325.17 119.37 317.08 131.31 314.63 135.35 310.36 143.29 306.87 148.88 
M 304.32 152.38 301.71 155.72 
M 299.2 158.95 294.77 165.22 
M 292.71 168.32 290.58 171.36 
M 288.34 174.27 285.96 177.04 
M 349.38 90.34 339.14 106.07 336.61 110.49 332.06 119.18 329.68 123.3 320.38 137.51 
M 317.94 141.48 315.65 145.34 
M 313.33 149 310.86 152.47 
M 308.22 155.76 305.53 158.95 
M 298.31 168.17 296.16 171.11 
M 293.99 173.91 289.49 178.98 
M 287.12 181.23 284.92 183.11 
M 355.07 93.03 343.83 109.97 337.55 120.77 
M 335.12 124.96 327.26 137.55 
M 319.73 149.21 316.11 154.38 314.82 155.99 
M 312.19 159.14 309.51 162.2 
M 302.04 171.11 299.7 173.89 
M 297.4 176.48 295.13 178.84 
M 361.03 95.86 353.97 105.61 348.24 113.97 345.52 118.18 327.68 147.45 322.78 154.6 319.04 159.42 
M 313.79 165.48 311.18 168.39 
M 306.03 173.96 303.5 176.57 
M 301.02 178.96 298.62 181.09 
M 367.2 98.69 358.54 109.79 352.66 118.02 342.05 133.86 339.48 138.03 332.08 150.79 329.67 154.55 325.99 159.58 
M 323.48 162.74 318.27 168.7 
M 373.33 101.44 363.06 113.89 350.25 131.49 
M 347.56 135.21 343.66 141.1 337.61 151.7 
M 332.88 159.36 330.44 162.73 
M 327.94 165.89 325.37 168.89 
M 319.96 174.27 317.18 176.7 
M 379.33 104.07 370.67 114.17 366.09 119.96 
M 363.16 123.9 360.28 127.77 
M 357.41 131.51 354.58 135.13 
M 346.67 146.44 339.61 158.7 
M 334.8 165.72 332.29 168.84 
M 385.12 106.65 375.08 118.48 364.74 131.78 
M 361.84 135.42 357.55 140.7 353.52 146.14 
M 351 150 348.61 153.98 
M 390.85 109.2 382.36 119.3 370.62 134.18 361.97 144.63 359.26 148.12 355.43 153.64 
M 350.58 161.14 348.18 164.69 
M 396.63 111.72 389.46 120.25 376.39 136.67 
M 373.48 140.19 366.42 148.59 359.91 157.19 
M 400.98 115.82 398.13 119.23 
M 395.07 122.98 386.4 133.96 
M 383.55 137.5 372.19 150.88 
M 400.98 125.02 399.14 127.44 
M 396.27 131.2 389.22 140.08 382.03 148.36 
M 400.98 134.73 396.23 140.84 391.95 145.86 
M 253.73 65.34 255.14 63.55 256.38 61.11 257.3 58.54 259.15 55.61 261.98 50.03 265.2 46.78 267.31 44.24 269.26 43.05 271.68 42.56 274.53 42.55 276.65 40.47 280.76 37.21 279.94 40.01 282.05 43.46 283.78 45.8 285.75 47.41 289.18 51.84 290.74 54.55 295.7 61.72 296.71 63.93 296.27 65.39 297.38 67.7 300.39 70.46 301.05 71.61 
M 302.5 72.09 302.5 72.09 
M 258.44 65.29 260.51 63.94 261.88 61.22 262.83 57.8 264.13 54.84 265.8 52.73 
M 263.15 65.23 265.7 64.15 266.6 61.57 267.45 58.16 270.36 52.65 270.75 50.4 272.05 48.55 274.94 47.08 
M 267.86 65.09 269.48 63.7 269.96 61.33 271.46 58.34 273.03 55.75 274.85 53.33 276.72 51.44 279.3 49.85 
M 272.57 64.95 273.94 63.6 274.98 60.81 279.78 57.01 282.4 55.94 285.54 54.11 
M 277.25 65.47 279.48 63.66 280.93 61.87 283.61 61.06 289.13 58.2 
M 281.92 66.1 284.62 64.32 286.26 62.8 
M 286.5 67.19 289.55 66.17 291.51 64.6 294.12 62.98 
M 291.05 68.4 294.54 68.39 
M 295.55 69.79 298.8 70.13 
M 300.03 71.27 300.03 71.27 
M 170.25 120.84 312.49 125.36 312.47 126.3 170.94 124.11 
M 170.91 124.96 296.43 133.8 296.37 134.74 170.79 128.19 
M 170.84 129.06 280.25 141.05 280.16 141.99 170.97 132.3 
M 170.96 133.18 264.02 147.09 263.89 148.02 170.81 136.37 
M 170.69 137.25 247.81 151.93 247.65 152.86 170.26 140.37 
M 170.13 141.23 231.68 155.57 231.49 156.49 169.92 144.37 
M 170.01 145.31 215.71 158.03 215.48 158.94 170.16 148.47 
M 170.14 149.49 199.96 159.31 199.69 160.21 170.13 152.49 
M 170.16 153.76 184.49 159.43 184.19 160.32 169.98 156.36 
M 297.44 126.06 293.72 126.48 291.94 126.85 290.24 127.41 288.63 128.16 285.7 130.25 283.02 132.86 
M 282.94 134.04 279.28 134.19 275.82 134.86 274.22 135.49 272.69 136.33 271.23 137.36 268.46 139.76 
M 268.34 140.94 264.75 140.81 261.34 141.23 259.73 141.74 258.19 142.47 256.71 143.39 253.86 145.57 
M 253.7 146.75 250.2 146.36 246.84 146.53 245.24 146.92 243.69 147.53 242.19 148.34 239.28 150.3 
M 239.07 151.47 235.68 150.83 234.02 150.7 232.4 150.75 230.81 151.03 227.74 152.22 224.77 153.96 
M 224.52 155.12 221.26 154.24 218.06 153.91 216.49 154.07 214.94 154.45 213.41 155.03 210.4 156.55 
M 210.11 157.7 206.99 156.58 205.43 156.2 203.89 156.02 202.34 156.06 199.28 156.79 196.23 158.08 
M 195.89 159.22 192.93 157.87 189.94 157.08 188.43 157.01 186.91 157.16 185.38 157.51 182.31 158.57 
M 181.93 159.7 179.16 158.09 176.31 157.05 174.84 156.85 173.34 156.87 169.83 157.56 
M 295.56 126.24 291.94 126.85 290.24 127.41 288.63 128.16 287.13 129.12 284.34 131.52 
M 272.22 125.87 269.23 126.38 267.83 126.84 265.26 128.25 262.96 130.23 
M 248.87 125.51 246.52 125.91 244.37 126.76 243.39 127.38 241.58 128.94 
M 225.53 125.15 223 125.7 221.52 126.51 220.2 127.66 
M 281.1 134.08 277.52 134.43 275.82 134.86 274.22 135.49 272.69 136.33 269.83 138.52 
M 253.35 132.64 250.6 132.91 248.07 133.73 246.9 134.37 244.71 136.05 
M 225.6 131.21 222.78 131.62 221.11 132.41 219.59 133.58 
M 266.54 140.84 263.02 140.93 261.34 141.23 259.73 141.74 258.19 142.47 255.27 144.44 
M 242.18 138.71 239.49 138.77 238.2 139.01 235.78 139.96 233.55 141.47 
M 217.83 136.57 215.06 136.78 213.38 137.44 211.82 138.49 
M 251.94 146.52 248.5 146.35 246.84 146.53 245.24 146.92 243.69 147.53 240.72 149.28 
M 220.52 142.65 218.28 142.54 217.21 142.65 215.16 143.31 213.23 144.45 
M 237.37 151.12 234.02 150.7 232.4 150.75 230.81 151.03 229.26 151.53 226.25 153.05 
M 211.05 146.96 208.87 146.68 206.78 146.9 205.78 147.22 203.82 148.21 
M 222.89 154.64 219.65 153.98 218.06 153.91 216.49 154.07 214.94 154.45 211.9 155.75 
M 208.55 157.1 205.43 156.2 203.89 156.02 202.34 156.06 200.81 156.32 197.75 157.4 
M 185.46 175.51 187.95 178.75 189.24 181.34 191.17 183.89 194.17 190.6 196.19 193.54 197.27 195.88 199.3 197.51 201.53 203.79 203.64 206.34 206.29 212.14 208.05 214.52 211.49 216.47 213.53 218.69 214.05 220.87 213.09 228.86 211.39 230.74 210.13 233.07 209.39 235.92 205.97 240.08 203.65 241.69 201.61 243.6 198.26 248.14 197.13 250.93 195.72 253.43 193.87 255.5 191.87 257.49 189.07 258.67 186.9 260.48 184.57 264 174.47 272.78 174.48 269.48 175.83 266.4 176.2 263.44 175.98 259.72 176.88 256.42 176.82 253.36 176.25 250.22 176.41 244.48 175.68 239.57 176.29 237.46 177.38 230.79 178.16 227.91 178.41 225.28 178.12 222.93 177.21 219.88 177.06 216.34 176.63 213.92 176.11 208.27 176.79 201.48 177.58 199.26 177.39 196.28 177.43 193.53 176.88 190.7 176.47 184.85 176.79 181.29 176.72 178.25 176.48 175.07 175.71 171.53 
M 183.72 174.8 185.85 178.06 187.37 180.87 188.56 183.47 190.44 185.97 191.77 188.93 193.15 192.91 193.73 196.14 194.64 198.4 196.21 201.02 197.09 203.9 198.74 205.87 202.17 211.3 204.8 217.5 205.85 218.95 207.67 220.92 209.42 223.83 
M 181.97 174.09 185.3 180.26 186.51 183.16 187.51 186.22 188.74 188.83 189.45 192.57 190.41 196.14 191.52 199.14 192.99 201.45 195.62 206.99 196.67 209.8 196.67 213.07 198.94 217.79 201.11 223.21 201.25 225.11 202.43 227.55 
M 180.23 173.37 181.86 176.7 183.12 179.76 184.21 182.92 184.39 186.48 186.13 192.56 187.4 199.19 188.65 201.7 190.4 204.49 191.53 206.86 192.86 213.24 192.26 216.06 195 222.7 194.74 225.31 195.53 228.49 
M 178.49 172.66 179.97 176.05 181.03 179.07 181.89 186.15 181.97 189.23 183.51 195.09 183.98 198.15 184.79 201.23 186.08 203.88 186.75 206.5 187.31 209.6 188.41 212.14 187.98 215.24 188.21 218.29 188.66 221.11 189.36 223.32 190.57 230.03 190.38 234.06 190.53 237.56 
M 176.74 171.95 177.84 175.42 178.57 178.39 178.97 181.65 179.01 188.64 179.52 191.59 180.21 193.88 180.09 197.06 180.56 199.9 181.43 202.51 181.59 208.33 182.59 214.43 183.36 217.4 183.42 220.47 184.08 223.43 184 225.97 184.25 229.17 184.23 232.38 182.96 234.57 
M 380.53 157.4 383.59 163.48 387.9 168.02 385.86 168.47 383.68 170.06 382.17 172.38 379.88 174.04 377.09 174.49 371.31 176.43 368.68 177.55 365.62 178.24 364.28 180.84 362.43 182.98 359.72 184.21 357.27 185.69 355.27 187.68 352.29 188.67 350.04 190.23 348.66 192.85 346.54 194.72 346.11 197.5 344.72 200.1 343.02 202.4 341.15 204.5 338.64 205.96 336.38 207.63 335.42 210.66 332.79 212.01 329.9 213.11 328.02 215.18 325.89 217.95 322.3 214.32 319.75 211.4 316.92 208.76 315.89 206.76 314.59 204.83 313.63 202.13 311.99 199.26 309.88 196.24 307.37 193.74 305.06 191.07 302.5 187.1 
M 376.34 159.56 381.39 165.51 
M 372.16 161.73 377.48 167.86 
M 367.93 163.79 373.23 167.89 376.48 171.29 
M 363.67 165.81 369.67 168.29 
M 359.4 167.79 364.54 171.46 
M 355.1 169.72 360.7 173.29 
M 350.79 171.62 354.81 176.01 358.56 177.94 
M 346.4 173.33 349.77 178.25 352.48 181.73 
M 342.01 175.04 345.2 179.65 348.13 183.04 
M 337.59 176.65 341.62 179.94 344.36 183.8 
M 333.16 178.25 341.66 188.82 343.33 191.28 345.52 193.62 
M 328.73 179.85 332.6 183.92 337.13 190.99 339.29 193.3 343.3 195.98 
M 324.29 181.44 328.1 185.22 330.18 188.4 332.75 191.05 
M 319.8 182.84 327.78 191.79 329.53 194.49 
M 315.24 184.05 318.17 188.39 322.41 193.14 323.76 196.12 325.66 199.03 328.07 201.63 330.71 203.62 
M 310.68 185.21 312.77 189.59 318.05 194.01 320.95 199.44 323.56 202.18 327.04 206.69 330.01 210.15 
M 306.09 186.27 308.68 190.57 313.49 196.09 316.1 198.43 317.32 200.47 318.42 202.84 319.17 205.1 321.64 206.79 323.47 209.91 
M 400.03 113.21 403.18 112.99 414.81 107.54 418.11 106.73 420.39 105.73 422.33 104.48 424.81 103.3 426.71 101.15 429.49 99.25 431.96 96.88 437.91 94.66 440.2 93.26 446.34 94.81 455.34 95.22 458.22 95.94 465.98 98.3 468.59 99.37 472.94 103.14 474.24 103.6 476.04 104.57 479.16 106.85 482.1 110.03 483.24 112.49 486.06 119.67 486.76 121.75 487.01 123.05 488.74 127.65 489.56 130.72 490 134.24 488.92 136.52 488.38 139.34 488.13 142.67 487.25 145.55 485.57 147.63 484.34 150.31 482.34 152.24 480.83 154.65 480.22 157.56 479.99 160.53 479.14 163.66 477.78 166.26 475.99 168.46 472.78 168.47 469.99 168.89 466.4 168.71 463.67 169.5 460.21 169.57 458.18 171.07 455.53 171.97 452.09 171.94 449.21 172.19 446.61 172.72 439.15 175.33 437.32 173.02 431.44 170.38 429.55 168.22 426.24 166.11 423.71 163.95 420.28 159.67 411.94 154.71 408.8 153.77 406.44 152.42 400.03 146.86 
M 403.21 114.73 405.9 113.55 408.81 112.79 414.31 110.03 425.69 105.88 427.97 104.37 430.09 102.51 
M 400.03 116.57 403.37 116.14 408.92 114.6 411.71 113.65 414.26 112.13 417.08 111.25 420.35 109.77 423.1 108.84 425.31 108.37 428.3 106.87 
M 403.51 117.82 406.11 117.03 412.06 115.58 414.64 114.65 420.04 111.94 422.94 111.08 424.84 110.85 428.32 109.36 433.88 106.13 436.78 104.11 439.27 103.87 442.8 102.84 445.77 102.66 448.12 101.75 451.34 101.22 
M 409.31 118.32 412.32 117.56 417.9 115.82 420.65 115.19 422.84 114.26 425.3 113.81 427.95 112.32 431.17 111.21 437.35 108.43 440.18 108.46 443.61 107.15 
M 403.39 121.34 406.3 120.61 409.15 120.17 412.55 119.4 415.47 119.11 418.41 118.33 421.17 118.45 426.65 116.82 429.49 115.4 432.14 114.54 437.86 112 440.96 111.04 447.42 109.93 449.31 110.36 451.88 110.39 455.26 110.15 458.3 109.51 460.9 107.2 465.93 106.2 469.19 104.4 469.25 103.74 469.83 103.45 
M 406.38 122.6 412.38 121.74 415.64 121.12 418.86 120.76 424.31 120.96 427.16 120.48 430.23 119.62 433.27 118.38 436.72 117.51 439.37 116.22 442.32 115.38 445.09 114.94 448.41 114.13 450.74 114.31 454.03 113.91 457.54 113.76 459.03 112.05 461.95 111.96 466.34 112.67 468.68 111.97 469.81 111.03 472.62 109.53 
M 406.27 125.02 409.59 124.53 415.75 124.06 419.03 123.33 424.3 124.01 427.49 123.87 431.46 123.4 440.68 121.34 443.25 121.06 446.19 121.39 448.88 120.51 450.7 119.29 453.12 118.87 459.61 118.91 463.75 118.29 467.28 118.07 468.92 117.1 470.05 116.04 472.53 114.5 475.81 114.25 480.18 115.31 
M 406.07 127.2 409.68 126.97 416.05 126.91 419.07 126.18 421.82 126.13 424.77 126.57 430.87 126.23 434.33 126.46 437.56 126.43 440.79 125.53 443.65 125.36 446.46 125.63 448.06 125.29 
M 403.22 129.19 413.28 129.48 416.65 129.42 422.2 128.94 425.74 128.8 431.75 129.24 434.7 129.82 437.44 130.05 442.75 129.82 444.59 129.25 449.89 130.1 453.39 128.99 456.96 129.12 460.19 129.87 
M 403.29 130.93 406.13 131.44 409.77 131.44 416.71 131.99 426.14 131.46 429.33 132.07 431.96 132.76 435.25 133.02 439.77 133.82 441.59 133.86 443.91 134.83 447.29 134.87 450.71 134.45 
M 409.58 133.61 416.4 133.85 419.25 134.7 422.34 135.36 425.5 135.22 428.35 135.69 431.14 136.59 436.54 137.3 439.57 137.49 442.59 137.25 445.26 137.23 449.05 137.85 456.57 137.64 459.39 138.62 466.51 140.22 469.09 139.14 470.65 139.27 472.31 139.18 478.43 140.8 481.12 142.65 484.91 142.74 
M 409.5 135.46 412.81 135.74 416.2 136.31 419.11 137.18 421.63 138.22 424.73 138.36 427.57 138.96 430.19 138.94 433.07 140.26 439.36 141.75 443.31 141.6 446.78 141 451.51 142.62 
M 409.8 137.93 415.83 138.82 426.98 142.05 429.74 142.08 433.06 144.04 436.18 145.15 439.01 144.89 446.08 145.73 448.52 146.33 453.76 148.29 457.25 148.29 460.53 149.42 466.22 150.36 
M 403.5 138.31 406.49 139.52 415.83 141.52 418.7 142.37 423.77 144.47 426.61 145.33 429.75 145.84 432.73 147.38 436.34 148.41 438.89 148.61 442.01 148.38 448.59 149.19 452.16 150.79 454.63 153.54 457.93 154.77 460.09 154.62 462.23 155.27 464.58 156.26 467.24 156.69 
M 403.4 140.32 406.47 141.62 409.81 142.41 415.74 144.22 418.23 145.25 420.21 146.95 426.67 148.41 429.43 149.49 433.14 150.63 437.03 150.88 439.52 152.29 
M 409.61 144.44 423.95 150.74 431.9 154.55 435.41 156.07 
M 406.74 145.62 414.09 148.89 419.99 151.82 422.77 153.58 426.26 155.45 428.15 156.17 430.2 158.15 432.88 160.26 435.93 161.7 439.02 160.85 442.53 160.88 446.36 161.77 449.08 163.75 450.94 166.12 
M 403.6 146.09 411.75 150.48 417.36 152.71 419.7 154.43 422.29 155.92 427.12 159.09 432 163.16 437.6 165.74 440.38 166.83 443.94 167.16 446.51 169.67 
M 409.26 151.48 417.67 155.14 420.27 156.81 423.8 160.68 426.01 162.05 428.8 164.16 
M 370.77 100.32 372.85 99.19 375.15 98.27 377.69 97.6 380.49 97.19 386.71 96.99 393.55 97.41 404.6 98.82 408.52 100.14 411.52 102.31 412.41 104.35 411.11 105.94 408.44 107.12 405.15 107.72 398.82 107.89 390.28 108.95 
M 375.03 102.09 377.69 101.37 380.49 100.96 386.71 100.75 393.55 101.18 402.7 102.3 
M 79.12 133.1 80.74 129.93 82.65 127.03 85.61 124.24 89.73 121.69 99.33 117.05 108.94 111.56 114.55 108.54 127.23 103.62 133.78 101.27 139.82 99.45 150.11 96.75 156.17 95.51 159.94 98.79 161.77 102.37 163.85 105.91 166.16 109.42 168.01 113 169.2 116.66 170.94 124.08 170.78 127.93 170.98 131.74 170.92 135.57 169.82 143.38 170.18 147.16 170.18 154.82 169.68 158.71 168.47 162.71 165.98 166.8 153.14 166.11 143.63 165.14 135.27 163.75 120.35 160.55 107.97 156.76 102.39 154.66 97.15 152.42 92.38 149.95 
M 146.16 118.68 146.61 121.87 145.09 128.03 143.98 130.78 142.61 133.38 141.58 135.81 141.94 140.29 143.34 144.93 143.91 147.67 143.75 150.97 128.9 150.57 122.97 150.17 111.22 148.78 105.77 147.48 100.74 145.97 
M 87.88 147.26 78.97 140.26 75.68 137.09 75.49 134.74 77.15 132.94 79.42 133.13 81 134.84 82.3 136.72 92.46 149.87 
M 91.95 150.64 78.58 146.66 71.71 144.41 69.52 143.53 68.42 141.34 69.4 139.15 71.73 138.36 73.95 139.42 79.86 142.96 84.23 145.19 92.32 149.76 
M 104.75 135.74 103.36 130.5 103.76 125.09 105.89 120.1 109.52 116.08 114.26 113.45 119.6 112.5 124.96 113.34 129.75 115.88 133.47 119.83 135.69 124.77 136.2 130.17 134.92 135.44 132 140.01 127.75 143.38 122.64 145.2 117.22 145.25 112.07 143.54 107.76 140.25 104.75 135.74 
M 104.55 135.28 103.88 133.35 103.47 131.35 103.3 129.32 103.38 127.28 103.72 125.26 104.3 123.31 105.12 121.44 106.16 119.68 107.42 118.07 108.86 116.63 110.47 115.37 112.23 114.33 114.1 113.51 116.05 112.93 118.07 112.59 120.11 112.51 122.14 112.67 124.14 113.09 126.07 113.76 
M 106.29 134.56 105.7 132.85 105.33 131.08 105.18 129.28 105.25 127.47 105.93 124.42 
M 106.48 123.03 107.51 121.09 
M 109.85 118.29 111.54 116.93 113.09 116 114.74 115.28 116.48 114.76 118.26 114.46 120.07 114.39 121.87 114.54 123.64 114.91 125.35 115.5 
M 108.03 133.84 107.52 132.35 107.06 129.24 107.13 127.67 107.65 125.23 
M 111.27 119.54 112.6 118.49 113.95 117.68 116.9 116.6 118.46 116.34 121.6 116.4 124.63 117.24 
M 109.77 133.12 109.33 131.85 108.95 129.2 109 127.86 109.39 125.98 
M 112.62 120.85 114.81 119.35 116.04 118.82 118.65 118.21 121.33 118.27 123.91 118.98 
M 111.51 132.4 110.92 130.26 110.83 129.16 111.13 126.73 
M 113.79 122.34 115.68 121.03 117.75 120.27 119.95 120.04 122.14 120.36 123.19 120.72 
M 113.76 131.68 113.21 129.59 113.34 127.73 
M 115.21 124.32 115.67 123.82 117.56 122.77 119.7 122.39 121.84 122.72 123.76 123.74 125.25 125.32 126.14 127.29 126.34 129.45 125.83 131.56 124.66 133.39 122.96 134.74 120.92 135.46 118.75 135.49 116.69 134.8 114.96 133.49 113.76 131.68 
M 116.16 123.54 115.55 124.76 
M 113.99 127.88 113.22 129.43 
M 118 122.69 116.4 125.88 
M 115.27 128.14 113.67 131.35 
M 119.55 122.41 117.31 126.89 
M 116.65 128.22 114.42 132.67 
M 120.88 122.57 118.24 127.86 
M 118.14 128.06 115.3 133.74 
M 122.14 122.88 116.32 134.52 
M 123.26 123.47 117.47 135.06 
M 124.27 124.28 118.68 135.46 
M 125.19 125.26 120.09 135.47 
M 125.88 126.72 121.63 135.21 
M 126.27 128.75 123.49 134.32 
M 82.39 136.83 84.61 139.05 
M 80.9 129.69 86.31 135.1 
M 83.29 126.43 86.36 129.5 
M 86.31 123.8 91.6 129.09 
M 89.82 121.65 93.1 124.93 
M 93.59 119.77 99.02 125.2 
M 97.42 117.95 101.62 122.15 
M 101.16 116.04 104.44 119.32 
M 104.78 114.01 108.25 117.48 
M 108.34 111.91 111.44 115.01 
M 111.99 109.91 115.34 113.26 
M 115.78 108.05 118.64 110.91 
M 119.82 106.44 123.84 110.46 
M 123.91 104.87 127.28 108.25 
M 128.02 103.33 132.09 107.4 
M 132.18 101.84 136.77 106.43 
M 136.46 100.46 140.13 104.13 
M 140.83 99.18 143.67 102.03 
M 145.28 97.99 148.58 101.28 
M 149.78 96.83 152.74 99.79 
M 154.44 95.84 158.9 100.3 
M 123.57 159.36 125.12 159.91 125.84 159.56 126.54 158.6 127.29 157 128.07 155.81 128.61 154.47 
M 159.71 100.15 158.89 100.52 156.64 101.97 155.53 103.5 
M 141.51 120.51 143.2 119.87 144.12 119.7 144.71 120.07 145.6 121.3 
M 138.69 126.15 140.24 125.61 142.19 125.51 143.87 125.16 
M 165.35 116.03 165.04 115.46 164.13 114.46 162.73 113.6 159.08 112.72 156.58 111.7 155.93 111.62 155.37 111.75 155.05 112.06 
M 139.04 116.92 139.04 117.2 139.47 117.73 140.34 118.19 
M 158.86 163.99 159.05 162.37 158.76 161.55 158.03 161.02 156.33 160.38 155.88 160.05 155.07 159.06 154.84 158.47 
M 151.01 163.31 152.21 164.02 153.32 166.12 
M 120.53 148.53 120.43 150.35 119.95 151.77 118.81 152.7 118.36 152.81 118.22 152.59 
M 138.81 122.8 143.27 123.54 144.31 123.42 145 123.12 
M 148.81 163.23 150.77 165.06 151.42 165.94 
M 140.02 159.94 139.79 160.57 140.25 161.39 141.09 161.93 142.13 162.15 
M 108.99 148.73 110.2 147.6 110.88 145.97 111.2 143.86 110.75 142.53 
M 125.55 106.2 124.86 107.37 124.85 108.03 125.06 108.27 
M 164.04 120.77 162.52 121.39 160.65 122.41 157.68 122.63 156.76 122.93 
M 107.51 156.58 108.16 156.39 
M 93.31 142.09 92.87 141.29 92.78 140.77 93.58 139.94 94.38 139.42 95.41 139.08 97.18 139 
M 128.17 151.22 128.66 151.29 129.04 150.99 129.97 149.35 130.32 148 
M 118.66 106.9 119.56 107.25 121 108.14 122.63 109.53 123.99 110.29 
M 136.68 139.89 134.43 139.94 132.02 140.5 130.74 141.01 
M 149.85 119.51 149.08 120.74 148.85 121.42 148.8 122.89 149.22 124.08 
M 85.6 129.14 86.2 129.85 87.57 130.76 88 130.84 88.3 130.62 
M 105.92 137.5 105.39 138.53 103.93 140.47 103.6 141.14 103.47 142.7 102.96 143.86 
M 104.85 146.3 106.64 145.75 108.19 145.54 109.29 145.21 110.5 144.24 110.73 143.63 
M 167.01 131.6 166.72 132.39 165.77 132.96 163.51 132.92 161.38 132.59 
M 148.11 137.04 149.69 135.64 151.48 134.73 152.79 134.79 154.55 135.41 
M 153.71 160.26 152.07 156.58 150.94 155.08 150.59 154.32 150.56 153.7 150.83 153.21 151.9 152.33 152.41 152.03 153.3 151.85 
M 124.19 148.18 123.84 150.64 122.8 152 122.11 152.39 119.16 153.31 118.44 153.41 
M 167.94 112.87 167.46 112.33 
M 97.74 124.76 98.23 124.05 98.27 123.74 97.14 122.8 95.96 122.45 93.59 122.31 
M 85.25 140.55 85.59 139.85 87.28 138.12 88.3 136.43 88.89 135.86 89.69 135.45 
M 126.25 103.99 124.95 106.13 124.71 107.28 124.84 108.11 
M 134.65 161.11 135.48 160.2 135.99 159.87 137.85 159.3 138.62 158.57 
M 91.98 133.56 92.86 132.38 93.12 131.56 93.04 128.33 92.73 127.19 92.23 126.22 91.69 125.64 91.15 125.39 90.3 125.33 89.56 125.71 
M 103.89 143.36 102.57 145.4 101.58 146.5 101.46 147.01 
M 165.22 124.82 162.43 124.83 160.52 124.39 157.44 124.44 156.63 124.67 
M 105.82 120.26 104.76 121.05 104.23 121.88 103.99 122.66 
M 153.56 123.13 153.15 124.01 153.08 125.67 153.28 126.45 154.22 127.82 
M 103.03 135.32 103.53 137.44 103.41 138.24 100.78 142.49 100.56 143.29 100.62 143.74 
M 158.91 152.49 157.8 152.01 156.76 151.81 154.02 152.35 153.65 152.17 153.75 151.92 
M 154.11 126.66 154.02 126.94 154.27 127.93 
M 101.33 153.36 101.15 151.88 102.3 148.72 
M 141.1 99.23 140.94 99.15 
M 132.22 151.25 132.78 149.42 132.96 147.13 131.55 143.44 
M 123.95 144.73 123.29 145.68 
M 107.18 112.59 107.45 115.62 107.12 117.97 
M 83.25 126.47 84.68 127.66 86.16 129.46 87.69 130.4 
M 120.13 106.32 121.62 107.3 122.74 108.87 123.85 109.77 
M 153.46 161.97 154.06 163.01 154.69 163.57 155.47 163.69 156.16 163.56 
M 164.38 134.29 162.7 134.22 162.08 134.4 160.07 135.85 157.87 136.59 156.26 137.5 
M 161.61 102.27 161.11 102.24 160.61 102.43 158.28 103.73 157.79 104.21 157.4 105.09 
M 102.28 154.61 101.99 152.13 102.32 150.13 102.23 149.15 
M 132.35 146.29 131.7 144.81 131.41 143.62 130.91 143.27 129.55 142.86 
M 156.6 132.01 156.06 132.35 156 132.64 
M 92.36 135.58 94.23 133.46 94.58 132.7 94.76 130.58 94.51 128.34 93.7 126.42 93.04 125.62 92.29 125.02 91.07 124.7 
M 148.06 137.16 149.67 135.72 151.45 134.79 152.74 134.82 154.51 135.42 
M 135.84 113.46 134.07 113.87 132.09 114.08 128.41 113.94 128 113.83 127.5 113.4 127.01 112.03 
M 83.47 138.24 84.09 137.71 
M 141.77 126.48 142.38 125.64 144.01 125.09 144.99 123.66 
M 120.1 106.33 121.57 107.29 123.19 109.36 124.37 109.97 
M 98.79 151.17 99.52 149.18 99.95 148.49 101.11 147.52 101.88 147.58 
M 142.02 100.87 139.53 99.54 
M 162.52 127.64 160.48 128.07 157.6 127.93 156.23 128.15 154.44 127.76 
M 106.66 138.6 104.82 140.42 
M 126.8 103.78 125.36 105.51 124.99 106.3 
M 138.28 146.97 134.58 144.88 134.02 144.4 133.41 143.09 133.07 142.78 132.23 142.48 131.01 142.9 
M 158.86 113.45 158.02 113.21 156.64 112.38 155.6 112.16 155.09 112.54 154.88 113.66 
M 91.56 147.75 90.01 145.98 89.45 144.92 89.51 144.29 90.2 142.21 
M 151.59 154.03 151.64 153.44 152.35 152.44 153.82 151.86 
M 143.39 148.02 142.48 148.1 141.53 147.9 139.55 147.3 138.61 146.85 134.24 144.37 133.48 143.08 133.12 142.76 
M 152.48 147.94 155.56 149.33 155.78 149.59 155.83 149.89 155.46 150.52 153.95 151.87 
M 160.01 161.98 159.75 161.49 159.34 161.14 156.7 160.42 155.77 159.84 155.04 158.81 154.3 156.72 153.92 156.06 
M 136.11 148.38 134.99 146.66 133.32 144.85 132.78 143.03 132.26 142.78 131.29 143 
M 135.55 122.34 136.78 123.06 137.42 123.2 140.26 123.36 142.78 124.08 143.39 124.11 
M 126.82 145.15 126.88 144.54 126.52 143.82 
M 164.91 159.22 164.04 158.68 162.88 158.35 162.34 158.42 160.22 159.27 156.76 159.34 
M 161.46 127.1 159.99 127.15 157.66 126.71 154.63 126.97 154.23 127.21 154.2 127.51 
M 125.79 104.16 124.98 105.63 124.67 107.27 
M 96.45 153.7 95.63 156.64 93.83 159.35 91.26 161.32 88.25 162.38 85.15 162.58 82.11 162.1 79.28 160.94 76.78 159.31 74.56 157.41 72.51 155.33 70.69 153.04 69.18 150.54 64.76 140.12 63.35 137.71 57.09 128.3 51.63 118.39 48.2 113.91 51.72 118.33 57.55 128.01 64.17 137.18 65.71 139.6 70.52 149.81 72.01 152.09 73.79 154.16 75.79 156.03 77.93 157.72 80.21 159.1 82.65 160 85.21 160.3 87.74 160.04 90.03 159.14 91.9 157.6 93.14 155.56 93.71 153.01 
M 96.95 154.19 96.54 157.02 95.23 162.69 94.23 165.48 92.85 168.14 91.08 170.57 88.91 172.66 86.39 174.32 83.62 175.47 80.69 176.09 77.68 176.12 74.77 175.49 72.06 174.44 66.92 172.09 64.33 171.07 61.67 170.32 58.94 169.98 56.2 170.15 53.53 170.85 51.04 172.07 48.79 173.72 46.8 175.69 45.08 177.91 40.4 184.97 44.9 177.79 46.56 175.48 48.5 173.39 50.75 171.61 53.29 170.24 56.06 169.4 58.95 169.11 61.84 169.36 64.65 170.04 67.36 170.98 72.59 173.13 75.18 174.03 77.82 174.5 80.46 174.37 83.04 173.72 85.45 172.61 87.59 171.08 89.41 169.17 90.89 166.97 92.02 164.56 92.82 162 93.31 159.76 
M 97 154.31 96.84 154.96 
M 91.97 164.67 89.55 166.9 87.14 168.6 84.58 170.04 81.88 171.16 74.13 173.66 
M 71.88 174.35 60.16 177.79 43.11 180.91 
M 42.98 180.94 35.25 182.89 30 184.96 35.21 182.79 37.9 181.9 43.31 180.42 
M 43.45 180.39 59.9 176.73 69.84 173.41 
M 71.72 172.76 78.56 170.35 83.64 168.2 85.95 166.78 88.1 165.14 90.02 163.29 91.69 160.99 
M 81.93 147.64 87.16 150.49 91.12 152.22 95.19 153.65 99.4 154.83 107.97 156.76 
M 161.46 101.76 164.4 104.7 
M 160.67 93.44 167.77 100.54 
M 165.85 91.08 175.69 100.92 
M 171.01 88.7 179.37 97.06 
M 176.17 86.33 184.36 94.52 
M 181.49 84.11 190.88 93.5 
M 186.85 81.93 195.08 90.16 
M 192.31 79.86 200.19 87.74 
M 197.85 77.86 207.09 87.1 
M 203.47 75.95 209.49 81.96 
M 209.05 73.98 220.06 85 
M 214.6 72 220.48 77.88 
M 220.47 70.34 230.62 80.48 
M 226.47 68.8 237.16 79.49 
M 232.71 67.51 240.73 75.53 
M 239.16 66.42 248.54 75.8 
M 245.88 65.6 253.33 73.05 
M 253.18 65.36 262.33 74.51 
M 260.61 65.26 269.15 73.8 
M 267.98 65.09 278.02 75.13 
M 275.68 65.26 286.77 76.35 
M 284.65 66.69 292.66 74.7 
M 295.15 69.65 304.39 78.89 
M 306.68 73.65 315.43 82.4 
M 318.6 78.03 325.19 84.62 
M 330.26 82.16 338.59 90.49 
M 342.95 87.31 350.95 95.31 
M 357.24 94.06 368.5 105.32 
M 371.24 100.52 377.52 106.8 
M 384.72 106.47 391.15 112.9 
M 398.19 112.41 405.52 119.73 
M 166.13 166.54 166.41 167.09 
M 168.85 165.39 169.69 167.07 
M 182.83 173.56 183.38 174.66 
M 185.39 172.09 187.42 176.14 
M 188.09 170.89 190.77 176.25 
M 191.63 171.38 192.47 173.06 
M 156.83 95.18 157.63 96.78 
M 187.77 157.07 189.27 160.06 
M 196.01 173.54 197.69 176.91 
M 159.52 93.96 164.15 103.23 
M 173.42 121.77 173.84 122.6 
M 162.2 92.74 165.99 100.32 
M 168.52 105.38 170.21 108.75 
M 171.89 112.12 177.18 122.7 
M 164.89 91.52 167 95.73 
M 172.05 105.84 172.89 107.53 
M 173.74 109.21 174.58 110.9 
M 177.11 115.96 180.52 122.79 
M 197.81 157.37 199.01 159.77 
M 167.57 90.29 169.68 94.5 
M 171.36 97.87 172.2 99.56 
M 173.89 102.93 176.42 107.98 
M 180.63 116.41 183.87 122.88 
M 200.62 156.38 203.38 161.91 
M 170.25 89.05 170.67 89.89 
M 172.35 93.26 179.09 106.74 
M 184.15 116.86 187.21 122.98 
M 203.73 156.02 204.37 157.3 
M 172.93 87.81 181.77 105.51 
M 186.83 115.62 190.56 123.07 
M 207.89 157.75 208.74 159.43 
M 175.6 86.57 181.08 97.53 
M 190.35 116.06 193.9 123.16 
M 178.33 85.43 184.65 98.07 
M 194.76 118.29 196.44 121.66 
M 181.06 84.29 187.38 96.93 
M 197.49 117.15 200.02 122.21 
M 185.05 85.68 190.95 97.48 
M 199.37 114.33 201.06 117.7 
M 187.79 84.58 193.69 96.37 
M 194.54 98.06 195.38 99.74 
M 199.59 108.17 203.8 116.6 
M 224.87 158.73 225.71 160.41 
M 189.72 81.84 198.15 98.69 
M 202.36 107.12 204.89 112.17 
M 225.95 154.3 228.48 159.36 
M 237.75 177.9 238.59 179.58 
M 192.07 79.95 201.76 99.33 
M 206.82 109.44 208.5 112.81 
M 209.35 114.49 210.19 116.18 
M 230.41 156.62 231.25 158.31 
M 239.68 175.16 241.36 178.53 
M 194.84 78.9 204.53 98.28 
M 209.59 108.39 217.31 123.82 
M 239.92 169.05 241.61 172.42 
M 246.66 182.53 247.51 184.22 
M 197.66 77.93 206.5 95.62 
M 211.56 105.73 215.77 114.16 
M 217.46 117.53 219.14 120.9 
M 239.36 161.34 241.05 164.71 
M 243.58 169.77 246.95 176.51 
M 200.47 76.97 205.11 86.24 
M 206.79 89.61 211.01 98.03 
M 213.53 103.09 219.43 114.88 
M 243.02 162.07 244.71 165.44 
M 254.82 185.66 255.66 187.34 
M 203.29 76.01 203.71 76.85 
M 205.4 80.22 206.24 81.91 
M 207.08 83.59 208.77 86.96 
M 212.14 93.7 213.82 97.07 
M 215.51 100.44 216.35 102.13 
M 218.04 105.5 219.72 108.87 
M 227.31 124.04 227.34 124.1 
M 257.64 184.7 259.32 188.07 
M 208.21 79.25 212.42 87.67 
M 261.29 185.41 262.98 188.78 
M 209.32 74.88 210.16 76.56 
M 212.69 81.62 213.53 83.3 
M 218.59 93.41 221.96 100.16 
M 222.8 101.84 223.65 103.53 
M 230.39 117.01 234.03 124.29 
M 211.7 73.04 217.17 83.99 
M 218.86 87.36 227.29 104.21 
M 234.03 117.69 237.37 124.38 
M 253.41 156.45 257.62 164.88 
M 214.5 72.04 232.61 108.27 
M 236.82 116.69 237.67 118.38 
M 256.2 155.45 259.57 162.19 
M 217.38 71.21 236.34 109.12 
M 238.02 112.5 238.86 114.18 
M 259.93 156.31 261.61 159.68 
M 220.27 70.39 223.22 76.29 
M 224.9 79.66 238.38 106.62 
M 261.98 153.81 265.35 160.55 
M 223.16 69.58 223.58 70.42 
M 227.79 78.85 241.27 105.81 
M 264.87 152.99 265.71 154.68 
M 276.66 176.59 277.5 178.27 
M 226.1 68.87 227.36 71.4 
M 231.58 79.83 244.22 105.1 
M 247.59 111.84 248.43 113.53 
M 229.09 68.25 230.35 70.78 
M 233.72 77.52 236.25 82.58 
M 237.09 84.26 252.26 114.6 
M 232.08 67.64 233.34 70.16 
M 235.87 75.22 238.4 80.28 
M 240.08 83.65 243.45 90.39 
M 245.14 93.76 255.25 113.98 
M 259.46 122.4 260.3 124.09 
M 268.73 140.94 273.79 151.05 
M 235.09 67.06 235.51 67.9 
M 243.09 83.07 243.93 84.75 
M 245.62 88.12 253.2 103.29 
M 254.89 106.66 257.41 111.72 
M 259.94 116.77 263.31 123.51 
M 270.53 137.94 278.48 153.84 
M 280.16 157.21 281.01 158.9 
M 293.64 184.18 295.36 187.6 
M 238.14 66.58 240.25 70.79 
M 245.31 80.9 246.99 84.27 
M 249.52 89.33 254.57 99.44 
M 256.26 102.81 267.21 124.72 
M 272.95 136.19 273.95 138.2 
M 275.64 141.57 276.48 143.26 
M 277.32 144.94 279.85 150 
M 282.38 155.05 284.06 158.42 
M 296.7 183.7 298.38 187.05 
M 241.2 66.1 246.68 77.06 
M 248.36 80.43 258.47 100.65 
M 259.32 102.33 270.81 125.32 
M 275.62 134.94 276.17 136.04 
M 282.07 147.83 282.91 149.52 
M 283.75 151.2 286.28 156.26 
M 299.76 183.22 301.78 187.25 
M 244.28 65.66 249.75 76.61 
M 253.97 85.04 260.71 98.52 
M 267.45 112 270.82 118.74 
M 272.5 122.11 274.15 125.41 
M 248.78 68.08 254.68 79.87 
M 257.21 84.93 263.95 98.41 
M 268.16 106.84 269.85 110.21 
M 270.69 111.89 273.22 116.95 
M 277.43 125.37 277.5 125.51 
M 250.76 65.44 266.35 96.62 
M 268.04 99.99 269.72 103.36 
M 271.41 106.73 276.46 116.84 
M 254.01 65.34 269.6 96.52 
M 273.81 104.94 283.08 123.48 
M 304.14 165.61 304.98 167.29 
M 307.51 172.35 308.36 174.03 
M 310.04 177.4 310.88 179.09 
M 256.47 63.67 256.89 64.51 
M 257.73 66.2 270.37 91.47 
M 271.22 93.16 272.06 94.84 
M 276.27 103.27 279.64 110.01 
M 281.33 113.38 284.7 120.12 
M 294.81 140.34 295.65 142.03 
M 306.6 163.94 312.5 175.73 
M 259.3 62.73 260.14 64.42 
M 260.98 66.1 273.62 91.38 
M 274.47 93.06 276.99 98.12 
M 277.84 99.8 281.21 106.55 
M 296.37 136.88 299.74 143.62 
M 304.8 153.73 305.64 155.41 
M 310.7 165.53 315.75 175.64 
M 259.8 57.14 279.6 96.74 
M 281.29 100.11 282.97 103.48 
M 283.81 105.17 284.66 106.85 
M 285.5 108.54 287.19 111.91 
M 298.98 135.5 303.19 143.93 
M 306.56 150.67 309.09 155.72 
M 312.46 162.46 315.83 169.21 
M 262.72 56.39 282.1 95.15 
M 284.63 100.21 288 106.95 
M 301.48 133.91 303.17 137.28 
M 306.54 144.02 314.96 160.87 
M 265.6 55.56 291.72 107.8 
M 304.36 133.07 306.05 136.44 
M 309.42 143.18 311.94 148.24 
M 313.63 151.61 317.84 160.04 
M 265.65 49.06 293.04 103.83 
M 297.25 112.25 302.3 122.36 
M 306.52 130.79 308.2 134.16 
M 313.26 144.27 314.1 145.96 
M 319.16 156.07 320 157.75 
M 267.8 46.77 287.6 86.37 
M 291.81 94.79 295.19 101.53 
M 298.56 108.27 305.3 121.76 
M 310.35 131.87 312.04 135.24 
M 270.53 45.62 289.48 83.54 
M 301.28 107.13 311.39 127.35 
M 273.7 45.38 290.97 79.92 
M 293.5 84.98 294.34 86.66 
M 295.19 88.35 300.24 98.46 
M 309.51 117 313.72 125.42 
M 333.1 164.18 334.79 167.55 
M 276.19 43.75 279.98 51.33 
M 283.35 58.07 302.73 96.83 
M 311.99 115.37 316.21 123.8 
M 335.59 162.55 338.11 167.61 
M 278.52 41.82 279.78 44.35 
M 280.62 46.03 283.99 52.77 
M 284.83 54.46 289.89 64.57 
M 290.73 66.25 298.32 81.42 
M 301.69 88.16 305.9 96.58 
M 316.01 116.81 320.22 125.23 
M 337.92 160.62 340.45 165.68 
M 286.44 51.08 288.55 55.29 
M 293.61 65.4 308.77 95.74 
M 319.73 117.64 322.25 122.7 
M 340.79 159.77 343.32 164.83 
M 299.8 71.19 309.49 90.57 
M 322.13 115.85 324.65 120.9 
M 335.61 142.81 336.45 144.5 
M 337.29 146.18 339.82 151.24 
M 344.87 161.35 348.24 168.09 
M 303.78 72.56 315.15 95.31 
M 318.53 102.05 319.37 103.74 
M 323.58 112.16 326.11 117.22 
M 334.53 134.07 342.12 149.24 
M 342.96 150.92 343.8 152.61 
M 350.54 166.09 352.33 169.67 
M 309.1 76.61 317.52 93.46 
M 318.37 95.14 328.48 115.37 
M 336.9 132.22 341.96 142.33 
M 345.33 149.07 346.17 150.75 
M 312.31 76.44 318.21 88.23 
M 321.58 94.97 331.69 115.2 
M 335.06 121.94 342.64 137.1 
M 346.86 145.53 349.38 150.58 
M 316.34 77.9 319.71 84.64 
M 321.4 88.01 322.24 89.7 
M 323.08 91.38 327.29 99.81 
M 329.82 104.86 338.25 121.72 
M 339.09 123.4 341.62 128.46 
M 349.2 143.62 353.41 152.05 
M 319.95 78.52 321.21 81.05 
M 322.9 84.42 329.64 97.9 
M 334.69 108.01 345.64 129.92 
M 351.54 141.71 354.91 148.45 
M 323.96 79.95 332.81 97.64 
M 333.65 99.33 334.49 101.01 
M 337.02 106.07 342.92 117.87 
M 347.97 127.98 349.66 131.35 
M 354.71 141.46 358.93 149.88 
M 327.96 81.35 331.75 88.93 
M 341.02 107.47 345.23 115.89 
M 351.13 127.69 352.81 131.06 
M 357.87 141.17 360.39 146.23 
M 331.96 82.76 334.91 88.66 
M 345.02 108.88 347.55 113.94 
M 351.76 122.36 354.29 127.42 
M 355.13 129.1 359.34 137.53 
M 336.09 84.44 338.2 88.65 
M 347.47 107.19 350.84 113.93 
M 355.89 124.04 356.74 125.72 
M 359.26 130.78 360.95 134.15 
M 340.23 86.11 341.49 88.64 
M 349.92 105.49 352.45 110.55 
M 359.19 124.03 364.24 134.14 
M 344.48 88.03 347.43 93.93 
M 349.96 98.98 354.17 107.41 
M 358.39 115.84 366.81 132.69 
M 375.24 149.54 376.08 151.22 
M 348.8 90.06 350.06 92.59 
M 352.59 97.64 355.96 104.38 
M 361.86 116.18 374.49 141.46 
M 376.18 144.83 379.55 151.57 
M 353.11 92.1 353.53 92.94 
M 355.22 96.31 359.43 104.74 
M 360.28 106.42 361.12 108.11 
M 365.33 116.53 371.23 128.33 
M 372.07 130.01 377.13 140.13 
M 379.65 145.18 382.18 150.24 
M 357.86 95 380.61 140.5 
M 361.71 96.11 366.35 105.37 
M 367.19 107.06 369.72 112.12 
M 372.24 117.17 379.83 132.34 
M 383.2 139.08 384.04 140.76 
M 389.25 151.19 389.83 152.35 
M 365.73 97.56 370.37 106.83 
M 374.58 115.25 383.01 132.1 
M 385.53 137.16 387.22 140.53 
M 369.76 99.01 371.02 101.54 
M 372.71 104.91 373.55 106.59 
M 376.92 113.33 381.13 121.76 
M 381.97 123.45 387.03 133.56 
M 389.56 138.61 390.4 140.3 
M 381.69 116.29 385.07 123.03 
M 386.75 126.4 388.44 129.77 
M 379.18 104.66 388.45 123.2 
M 383.41 106.54 391.84 123.39 
M 393.52 126.76 394.37 128.45 
M 381.53 96.18 382.79 98.7 
M 386.19 105.49 386.63 106.38 
M 387.24 107.59 395.24 123.6 
M 397.77 128.66 398.61 130.34 
M 384.76 96.05 386.87 100.26 
M 387.71 101.94 390.27 107.06 
M 395.27 117.06 398.64 123.8 
M 400.32 127.17 402.85 132.22 
M 388.09 96.11 389.35 98.64 
M 391.04 102.01 391.88 103.69 
M 397.8 115.53 401.17 122.27 
M 403.7 127.32 405.38 130.69 
M 391.49 96.31 391.91 97.16 
M 407.07 127.48 408.76 130.85 
M 396.2 99.13 397.04 100.82 
M 397.88 102.5 398.72 104.19 
M 398.42 96.99 402.98 106.1 
M 401.96 97.48 405.91 105.37 
M 405.63 98.23 408.78 104.52 
M 409.92 100.21 411.86 104.08 
"/></svg>