<svg xmlns="http://www.w3.org/2000/svg" width="520" height="320"><rect x="0" y="0" width="520" height="320" fill="floralwhite"/><rect x="10" y="10" width="500" height="300" stroke="black" stroke-width="1" fill="none"/><path stroke="black" stroke-width="1" fill="none" stroke-linecap="round" stroke-linejoin="round" d="
M 175.7 117.86 184.14 114.47 192.55 111.42 200.96 108.64 217.77 103.54 226.18 101.48 234.59 99.97 243 98.83 268.23 98.27 276.64 99.26 285.05 101.22 293.46 103.64 318.69 111.58 327.1 114.55 352.32 124.81 378.36 134.78 
M 378.36 167.47 360.73 175.75 352.32 179.54 343.91 183 335.5 186.28 327.1 189.12 310.28 194.39 301.87 196.33 285.05 199.55 276.64 200.35 268.23 200.89 259.82 200.66 243 200.84 234.59 199.76 226.18 197.99 217.77 195.93 209.37 193.66 200.96 191.68 192.55 189.34 184.14 186.35 167.33 179.26 
M 171.97 173.88 172.52 172.85 
M 171.85 178.11 171.28 177.54 170.77 177.29 
M 179.4 155.27 179.83 154.99 180.37 154.26 180.73 153.43 180.73 152.92 180.37 152.09 179.65 151.24 
M 181.05 151.68 181.56 151.39 182.21 150.63 182.63 149.78 182.63 149.25 182.21 148.39 181.56 147.63 181.05 147.34 
M 182.68 148.09 183.11 147.78 183.66 147 184.01 146.12 184.01 145.57 183.66 144.69 183.11 143.9 182.68 143.6 
M 183.3 155.04 183.73 154.76 184.27 154.02 184.62 153.19 184.62 152.68 184.27 151.85 183.73 151.11 183.3 150.83 
M 179.23 126.6 179.88 125.69 180.36 124.5 180.36 123.76 179.88 122.57 179.13 121.51 178.55 121.1 
M 181.9 136.35 182.44 135.97 183.13 135 183.58 133.9 183.58 133.22 183.13 132.11 182.44 131.14 181.9 130.76 
M 183.98 144.31 184.5 143.98 185.16 143.14 185.59 142.19 185.59 141.6 185.16 140.65 184.5 139.81 183.98 139.49 
M 185.3 140.53 185.75 140.19 186.32 139.3 186.68 138.29 186.68 137.67 186.32 136.66 185.75 135.77 185.3 135.42 
M 186.61 147.87 187.05 147.56 187.6 146.79 187.96 145.91 187.96 145.36 187.6 144.48 187.05 143.71 186.61 143.4 
M 188.76 158.98 188.05 157.87 187.62 157.59 
M 183.28 127.55 183.93 127.17 184.76 126.18 185.3 125.06 185.3 124.37 184.76 123.25 183.93 122.26 183.28 121.88 
M 186.16 136.34 186.74 135.98 187.47 135.05 187.94 134 187.94 133.35 187.47 132.3 186.74 131.38 186.16 131.02 
M 188.01 144.15 188.55 143.83 189.23 143.01 189.67 142.08 189.67 141.5 189.23 140.58 188.55 139.76 188.01 139.44 
M 184.31 123.41 184.92 123.04 185.7 122.09 186.21 121.02 186.21 120.35 185.7 119.28 184.92 118.33 184.31 117.96 
M 189.49 140.47 189.95 140.14 190.54 139.28 190.92 138.32 190.92 137.73 190.54 136.76 189.95 135.91 189.49 135.58 
M 185.91 119.84 186.68 119.5 187.67 118.63 188.31 117.65 188.31 117.04 187.67 116.06 186.68 115.19 185.91 114.85 
M 188.37 128.27 189.05 127.91 189.91 127.01 190.47 125.98 190.47 125.35 189.91 124.32 189.05 123.42 188.37 123.06 
M 190.64 136.51 191.23 136.17 191.98 135.3 192.47 134.32 192.47 133.71 191.98 132.73 191.23 131.86 190.64 131.53 
M 192.16 144.07 192.7 143.76 193.39 142.97 193.84 142.07 193.84 141.52 193.39 140.62 192.7 139.83 192.16 139.52 
M 192.92 151.1 193.44 150.81 194.11 150.07 194.54 149.23 194.54 148.71 194.11 147.88 193.44 147.14 192.92 146.85 
M 187.8 116.59 188.47 116.28 189.32 115.47 189.88 114.56 189.88 114 188.94 112.72 
M 192.06 132.75 192.57 132.41 193.24 131.55 193.66 130.57 193.66 129.96 193.24 128.99 192.57 128.12 192.06 127.79 
M 193.76 140.48 194.22 140.16 194.82 139.35 195.2 138.44 195.2 137.87 194.82 136.96 194.22 136.15 193.76 135.84 
M 194.73 147.62 195.17 147.33 195.74 146.58 196.1 145.74 196.1 145.22 195.74 144.37 195.17 143.63 194.73 143.34 
M 195.13 154.42 195.56 154.14 196.1 153.42 196.46 152.6 196.46 152.1 196.1 151.29 195.56 150.57 195.13 150.29 
M 189.87 113.69 190.64 113.39 191.63 112.64 192.27 111.79 192.27 111.52 
M 191.56 121.16 192.28 120.84 193.2 120.03 193.8 119.12 193.8 118.55 193.2 117.64 192.28 116.83 191.56 116.52 
M 193.43 128.97 194.08 128.64 194.9 127.81 195.44 126.87 195.44 126.29 194.9 125.34 194.08 124.51 193.43 124.19 
M 195.13 136.69 195.71 136.38 196.45 135.57 196.92 134.65 196.92 134.08 196.45 133.16 195.71 132.35 195.13 132.03 
M 196.32 144.01 196.85 143.71 197.54 142.95 197.99 142.09 197.99 141.55 197.54 140.69 196.85 139.93 196.32 139.63 
M 198.7 155.2 198.39 154.6 197.74 153.88 197.23 153.59 
M 193.47 117.99 194.06 117.69 194.82 116.93 195.31 116.07 195.31 115.53 194.82 114.67 194.06 113.91 193.47 113.61 
M 196.71 133.08 197.2 132.77 197.83 131.97 198.23 131.06 198.23 130.5 197.83 129.59 197.2 128.79 196.71 128.47 
M 197.99 140.47 198.45 140.17 199.03 139.4 199.4 138.52 199.4 137.98 199.03 137.11 198.45 136.34 197.99 136.04 
M 198.78 147.48 199.21 147.19 199.77 146.47 200.13 145.64 200.13 145.13 199.77 144.31 199.21 143.58 198.78 143.3 
M 195.28 114.87 195.97 114.59 196.85 113.87 197.41 113.05 197.41 112.54 196.85 111.72 195.97 111 195.28 110.72 
M 196.68 122.01 197.33 121.71 198.16 120.95 198.7 120.08 198.7 119.55 198.16 118.68 197.33 117.92 196.68 117.62 
M 198.15 129.41 198.75 129.1 199.52 128.32 200.02 127.43 200.02 126.88 199.52 126 198.75 125.21 198.15 124.91 
M 200.4 143.89 200.92 143.6 201.6 142.86 202.03 142.02 202.03 141.51 201.6 140.67 200.92 139.93 200.4 139.64 
M 197.19 111.86 197.74 111.59 198.44 110.91 198.89 110.13 198.73 109.38 
M 198.41 118.7 198.94 118.41 199.62 117.68 200.06 116.85 200.06 116.33 199.62 115.5 198.94 114.77 198.41 114.48 
M 199.76 125.89 200.26 125.59 200.9 124.83 201.31 123.96 201.31 123.43 200.9 122.56 200.26 121.8 199.76 121.5 
M 201.06 133.2 201.53 132.9 202.12 132.13 202.51 131.26 202.51 130.72 202.12 129.85 201.53 129.08 201.06 128.78 
M 202.1 140.37 202.54 140.07 203.1 139.33 203.46 138.48 203.46 137.96 203.1 137.11 202.54 136.36 202.1 136.07 
M 200.18 115.58 200.82 115.31 201.63 114.6 202.16 113.8 202.16 113.31 201.63 112.51 200.82 111.8 200.18 111.53 
M 201.39 122.5 202.01 122.21 202.79 121.48 203.3 120.64 203.3 120.13 202.79 119.29 202.01 118.56 201.39 118.27 
M 202.58 129.6 203.16 129.31 203.89 128.56 204.36 127.71 204.36 127.19 203.89 126.34 203.16 125.59 202.58 125.29 
M 203.61 136.71 204.15 136.42 204.83 135.67 205.27 134.83 205.27 134.31 204.83 133.47 204.15 132.72 203.61 132.43 
M 204.35 143.65 204.86 143.37 205.51 142.65 205.93 141.83 205.93 141.33 205.51 140.51 204.86 139.79 204.35 139.51 
M 201.99 112.52 202.5 112.25 203.17 111.57 203.59 110.79 203.59 110.3 203.17 109.52 202.5 108.84 201.99 108.57 
M 203.15 119.25 203.67 118.97 204.34 118.26 204.77 117.45 204.77 116.95 204.34 116.14 203.67 115.42 203.15 115.14 
M 205.26 133.16 205.71 132.87 206.29 132.14 206.66 131.31 206.66 130.79 206.29 129.96 205.71 129.22 205.26 128.94 
M 206.04 140.11 206.47 139.83 207.01 139.1 207.36 138.28 207.36 137.77 207.01 136.95 206.47 136.23 206.04 135.94 
M 206.53 146.88 206.94 146.6 207.46 145.91 207.8 145.11 207.8 144.62 207.46 143.83 206.94 143.14 206.53 142.86 
M 206.72 153.26 207.48 152.41 207.8 151.63 207.8 151.14 207.48 150.36 206.96 149.67 206.56 149.4 
M 203.64 109.51 204.23 109.24 204.98 108.56 205.47 107.78 205.47 107.31 
M 204.92 116.18 205.54 115.91 206.33 115.2 206.84 114.4 206.84 113.9 206.33 113.1 205.54 112.39 204.92 112.12 
M 206.02 122.92 206.62 122.64 207.4 121.93 207.9 121.12 207.9 120.62 207.4 119.81 206.62 119.1 206.02 118.82 
M 207.64 136.51 208.16 136.23 208.83 135.52 209.26 134.71 209.26 134.21 208.83 133.4 208.16 132.68 207.64 132.41 
M 206.64 113.12 207.15 112.84 207.79 112.12 208.21 111.31 208.21 110.81 207.79 109.99 207.15 109.28 206.64 109 
M 207.9 119.83 208.42 119.56 209.08 118.85 209.5 118.05 209.5 117.55 209.08 116.75 208.42 116.05 207.9 115.77 
M 208.76 126.42 209.25 126.15 209.88 125.45 210.28 124.66 210.28 124.18 209.88 123.39 209.25 122.69 208.76 122.42 
M 209.39 133.04 209.83 132.77 210.41 132.07 210.78 131.28 210.78 130.8 210.41 130.01 209.83 129.31 209.39 129.04 
M 210.21 146.39 210.62 146.12 211.13 145.44 211.47 144.66 211.47 144.18 211.13 143.4 210.62 142.72 210.21 142.45 
M 208.03 109.88 208.6 109.6 209.33 108.87 209.8 108.04 209.8 107.53 208.91 106.29 
M 209.58 116.74 210.18 116.46 210.96 115.73 211.46 114.92 211.46 114.41 210.96 113.6 210.18 112.88 209.58 112.6 
M 210.62 123.31 211.21 123.04 211.98 122.35 212.47 121.57 212.47 121.08 211.98 120.3 211.21 119.61 210.62 119.34 
M 212 149.33 212.48 149.06 213.1 148.38 213.5 147.61 213.5 147.14 213.1 146.37 212.48 145.69 212 145.43 
M 209.18 106.45 209.72 106.05 
M 212.58 120.35 213.08 120.08 213.73 119.38 214.14 118.58 214.14 118.09 213.73 117.29 213.08 116.59 212.58 116.32 
M 213.22 126.65 213.71 126.39 214.33 125.73 214.72 124.98 214.72 124.51 214.33 123.76 213.71 123.09 213.22 122.83 
M 213.5 132.92 213.95 132.66 214.53 132 214.9 131.25 214.9 130.79 214.53 130.04 213.95 129.38 213.5 129.12 
M 213.68 139.33 214.1 139.07 214.64 138.39 214.99 137.63 214.99 137.15 214.64 136.39 214.1 135.71 213.68 135.45 
M 213.89 145.9 214.3 145.63 214.83 144.96 215.17 144.2 215.17 143.72 214.83 142.96 214.3 142.29 213.89 142.03 
M 214.61 151.35 214.99 150.53 214.99 150.05 214.66 149.29 214.14 148.61 213.74 148.35 
M 212.36 110.19 212.93 109.89 213.66 109.12 214.13 108.25 214.13 107.71 213.66 106.84 212.93 106.07 212.36 105.77 
M 215.14 123.65 215.72 123.39 216.47 122.71 216.96 121.94 216.96 121.47 216.47 120.7 215.72 120.03 215.14 119.76 
M 215.5 129.82 216.07 129.57 216.78 128.92 217.25 128.18 217.25 127.72 216.78 126.99 216.07 126.34 215.5 126.08 
M 215.62 136.05 216.15 135.8 216.83 135.14 217.27 134.39 217.27 133.93 216.83 133.19 216.15 132.53 215.62 132.27 
M 215.73 142.47 216.24 142.21 216.9 141.54 217.32 140.78 217.32 140.32 216.9 139.56 216.24 138.89 215.73 138.63 
M 215.71 148.88 216.21 148.62 216.85 147.95 217.27 147.19 217.27 146.72 216.85 145.96 216.21 145.29 215.71 145.03 
M 213.38 106.61 213.85 106.3 214.45 105.51 214.84 104.45 
M 215.68 114.05 216.17 113.75 216.79 112.97 217.2 112.09 217.2 111.54 216.79 110.66 216.17 109.88 215.68 109.58 
M 217.13 120.75 217.61 120.47 218.24 119.78 218.64 118.99 218.64 118.5 218.24 117.71 217.61 117.01 217.13 116.74 
M 217.63 126.85 218.1 126.6 218.71 125.96 219.1 125.23 219.1 124.78 218.71 124.05 218.1 123.41 217.63 123.16 
M 217.67 132.87 218.13 132.63 218.71 131.99 219.09 131.27 219.09 130.82 218.71 130.1 218.13 129.46 217.67 129.22 
M 217.62 139.09 218.06 138.83 218.63 138.17 218.99 137.43 218.99 136.96 218.63 136.22 218.06 135.56 217.62 135.3 
M 217.49 151.83 217.92 151.57 218.46 150.9 218.81 150.14 218.81 149.68 218.46 148.92 217.92 148.25 217.49 147.99 
M 216.77 110.49 217.35 110.19 218.11 109.41 218.59 108.52 218.59 107.97 218.11 107.08 217.35 106.3 216.77 105.99 
M 218.62 117.54 219.21 117.25 219.96 116.52 220.44 115.69 220.44 115.17 219.96 114.34 219.21 113.6 218.62 113.32 
M 219.8 129.94 220.37 129.69 221.1 129.05 221.57 128.33 221.57 127.89 221.1 127.17 220.37 126.53 219.8 126.28 
M 219.76 136.02 220.32 135.76 221.03 135.12 221.5 134.39 221.5 133.94 221.03 133.21 220.32 132.57 219.76 132.32 
M 219.75 142.33 220.3 142.07 221 141.41 221.46 140.67 221.46 140.21 221 139.46 220.3 138.8 219.75 138.55 
M 219.65 148.66 220.19 148.4 220.88 147.74 221.32 146.99 221.32 146.53 220.88 145.78 220.19 145.11 219.65 144.86 
M 219.49 155.13 220.02 154.86 220.69 154.16 221.12 153.37 221.12 152.88 220.69 152.09 220.02 151.39 219.49 151.12 
M 217.86 106.95 218.37 106.65 219.01 105.86 219.43 104.96 219.43 104.41 218.83 103.29 
M 221.54 121 222.02 120.73 222.64 120.04 223.04 119.26 223.04 118.77 222.64 117.99 222.02 117.3 221.54 117.03 
M 221.94 132.98 222.42 132.74 223.03 132.11 223.43 131.4 223.43 130.96 223.03 130.24 222.42 129.62 221.94 129.37 
M 221.55 151.73 222 151.47 222.59 150.81 222.97 150.06 222.97 149.59 222.59 148.85 222 148.18 221.55 147.93 
M 219.2 103.61 220.28 102.93 
M 221.34 110.9 221.96 110.6 222.74 109.83 223.25 108.95 223.25 108.41 222.74 107.54 221.96 106.76 221.34 106.46 
M 223.11 117.86 223.71 117.58 224.47 116.85 224.96 116.03 224.96 115.52 224.47 114.7 223.71 113.98 223.11 113.69 
M 223.99 124.18 224.58 123.92 225.33 123.26 225.82 122.51 225.82 122.05 225.33 121.3 224.58 120.64 223.99 120.38 
M 223.93 148.77 224.52 148.52 225.27 147.87 225.75 147.13 225.75 146.68 225.27 145.94 224.52 145.29 223.93 145.04 
M 223.62 155.09 224.18 154.82 224.89 154.13 225.34 153.36 225.34 152.88 224.89 152.1 224.18 151.41 223.62 151.15 
M 223.93 162.24 224.46 161.94 225.14 161.16 225.58 160.27 225.58 159.73 225.14 158.84 224.46 158.06 223.93 157.76 
M 222.62 107.52 223.16 107.22 223.85 106.45 224.29 105.57 224.29 105.04 223.85 104.16 223.16 103.39 222.62 103.09 
M 224.74 114.77 225.25 114.47 225.91 113.72 226.33 112.86 226.33 112.33 225.91 111.47 225.25 110.72 224.74 110.42 
M 226.02 121.32 226.52 121.05 227.15 120.37 227.56 119.6 227.56 119.12 227.15 118.35 226.52 117.66 226.02 117.4 
M 226.44 127.37 226.94 127.12 227.57 126.49 227.98 125.76 227.98 125.31 227.57 124.59 226.94 123.95 226.44 123.7 
M 225.92 151.89 226.41 151.64 227.04 151 227.44 150.28 227.44 149.83 227.04 149.11 226.41 148.47 225.92 148.22 
M 225.57 158.33 226.03 158.05 226.61 157.34 226.99 156.53 226.99 156.03 226.61 155.22 226.03 154.51 225.57 154.23 
M 226.36 166.07 226.8 165.75 227.37 164.91 227.74 163.95 227.74 163.36 227.37 162.41 226.8 161.57 226.36 161.24 
M 228.24 174.6 228.69 174.26 229.27 173.4 229.65 172.43 229.65 171.83 229.27 170.86 228.69 170 228.24 169.66 
M 229.39 181.98 229.84 181.68 230.42 180.94 230.79 180.09 230.79 179.57 230.42 178.72 229.84 177.97 229.39 177.68 
M 224.16 104.37 224.83 104.1 225.69 103.39 226.24 102.59 226.24 102.1 225.87 101.56 
M 226.12 111.47 226.76 111.18 227.58 110.43 228.11 109.58 228.11 109.05 227.58 108.2 226.76 107.45 226.12 107.16 
M 227.73 118.29 228.34 118.01 229.13 117.3 229.64 116.5 229.64 116 229.13 115.19 228.34 114.48 227.73 114.21 
M 228.54 124.58 229.14 124.33 229.92 123.67 230.42 122.92 230.42 122.45 229.92 121.7 229.14 121.04 228.54 120.79 
M 228.82 130.7 229.43 130.44 230.22 129.8 230.73 129.07 230.73 128.62 230.22 127.89 229.43 127.24 228.82 126.99 
M 228.9 136.89 229.53 136.64 230.34 135.99 230.87 135.25 230.87 134.8 230.34 134.06 229.53 133.41 228.9 133.15 
M 228.56 149.2 229.18 148.95 229.98 148.32 230.49 147.61 230.49 147.16 229.98 146.45 229.18 145.82 228.56 145.57 
M 227.97 155.22 228.55 154.97 229.3 154.3 229.78 153.55 229.78 153.09 229.3 152.34 228.55 151.68 227.97 151.42 
M 228.07 162.21 228.62 161.91 229.33 161.14 229.78 160.27 229.78 159.73 229.33 158.86 228.62 158.09 228.07 157.79 
M 227.61 108.28 228.17 107.99 228.89 107.25 229.35 106.41 229.35 105.89 228.89 105.05 228.17 104.3 227.61 104.01 
M 229.51 115.32 230.04 115.03 230.72 114.3 231.15 113.47 231.15 112.96 230.72 112.13 230.04 111.4 229.51 111.11 
M 230.63 121.77 231.15 121.5 231.8 120.83 232.22 120.07 232.22 119.59 231.8 118.83 231.15 118.16 230.63 117.89 
M 231.06 127.88 231.57 127.63 232.23 126.98 232.65 126.25 232.65 125.79 232.23 125.06 231.57 124.41 231.06 124.15 
M 231.28 134.11 231.81 133.85 232.48 133.2 232.92 132.46 232.92 132 232.48 131.26 231.81 130.61 231.28 130.35 
M 231.38 140.43 231.93 140.17 232.62 139.51 233.08 138.76 233.08 138.3 232.62 137.56 231.93 136.9 231.38 136.64 
M 231.33 146.66 231.88 146.41 232.57 145.78 233.02 145.07 233.02 144.63 232.57 143.91 231.88 143.28 231.33 143.04 
M 229.83 158.38 230.31 158.11 230.92 157.42 231.32 156.64 231.32 156.16 230.92 155.38 230.31 154.69 229.83 154.42 
M 230.5 166.08 230.97 165.75 231.56 164.91 231.94 163.96 231.94 163.37 231.56 162.42 230.97 161.59 230.5 161.26 
M 232.45 174.68 232.92 174.34 233.51 173.48 233.9 172.5 233.9 171.9 233.51 170.92 232.92 170.06 232.45 169.73 
M 229.33 105.33 230.03 105.07 230.92 104.39 231.5 103.61 231.5 103.13 230.92 102.36 230.03 101.68 229.33 101.41 
M 231.07 112.2 231.73 111.92 232.58 111.19 233.13 110.38 233.13 109.87 232.58 109.05 231.73 108.33 231.07 108.04 
M 232.48 118.85 233.11 118.58 233.92 117.89 234.44 117.1 234.44 116.61 233.92 115.83 233.11 115.13 232.48 114.86 
M 233.21 125.11 233.83 124.85 234.62 124.19 235.14 123.45 235.14 122.98 234.62 122.24 233.83 121.58 233.21 121.32 
M 233.56 131.33 234.19 131.08 234.99 130.42 235.51 129.68 235.51 129.22 234.99 128.47 234.19 127.82 233.56 127.56 
M 233.84 143.95 234.49 143.7 235.32 143.06 235.86 142.33 235.86 141.87 235.32 141.15 234.49 140.5 233.84 140.25 
M 233.39 149.83 234.03 149.59 234.85 148.98 235.37 148.29 235.37 147.86 234.85 147.16 234.03 146.55 233.39 146.31 
M 232.52 155.57 233.14 155.32 233.92 154.68 234.42 153.96 234.42 153.51 233.92 152.79 233.14 152.15 232.52 151.9 
M 233.65 170.47 234.22 170.14 234.95 169.29 235.42 168.34 235.42 167.75 234.95 166.79 234.22 165.94 233.65 165.61 
M 235.14 178.38 235.69 178.07 236.4 177.27 236.86 176.37 236.86 175.81 236.4 174.91 235.69 174.12 235.14 173.81 
M 231.16 102.51 231.76 102.26 232.53 101.64 233.03 100.93 232.88 100.28 
M 232.76 109.2 233.34 108.92 234.08 108.21 234.55 107.4 234.55 106.9 234.08 106.1 233.34 105.38 232.76 105.11 
M 234.4 116 234.95 115.72 235.64 115.02 236.09 114.22 236.09 113.72 235.64 112.92 234.95 112.22 234.4 111.94 
M 235.36 122.32 235.89 122.06 236.56 121.4 236.99 120.65 236.99 120.18 236.56 119.43 235.89 118.77 235.36 118.51 
M 235.79 128.48 236.3 128.23 236.97 127.57 237.4 126.83 237.4 126.37 236.97 125.63 236.3 124.97 235.79 124.72 
M 236.35 141.27 236.89 141.01 237.57 140.34 238.02 139.59 238.02 139.12 237.57 138.37 236.89 137.71 236.35 137.45 
M 236.3 147.46 236.83 147.21 237.52 146.59 237.97 145.88 237.97 145.45 237.52 144.74 236.83 144.12 236.3 143.87 
M 235.37 152.92 235.9 152.69 236.58 152.1 237.02 151.43 237.02 151.02 236.58 150.35 235.9 149.77 235.37 149.54 
M 234.34 158.68 234.85 158.42 235.5 157.75 235.92 157 235.92 156.53 235.5 155.77 234.85 155.1 234.34 154.84 
M 234.88 166.28 235.37 165.96 236 165.13 236.41 164.19 236.41 163.61 236 162.67 235.37 161.84 234.88 161.52 
M 236.79 174.84 237.27 174.51 237.88 173.66 238.27 172.7 238.27 172.1 237.88 171.14 237.27 170.29 236.79 169.95 
M 233.48 100.32 234.36 100.01 
M 234.63 106.41 235.33 106.16 236.24 105.5 236.83 104.75 236.83 104.29 236.24 103.55 235.33 102.89 234.63 102.63 
M 236.13 113.04 236.81 112.77 237.67 112.07 238.23 111.28 238.23 110.8 237.67 110.01 236.81 109.31 236.13 109.04 
M 237.33 119.5 237.97 119.24 238.79 118.57 239.32 117.8 239.32 117.33 238.79 116.56 237.97 115.89 237.33 115.62 
M 237.96 125.71 238.59 125.45 239.39 124.8 239.9 124.05 239.9 123.59 239.39 122.85 238.59 122.19 237.96 121.94 
M 238.63 138.38 239.26 138.12 240.06 137.46 240.57 136.7 240.57 136.23 240.06 135.48 239.26 134.81 238.63 134.55 
M 238.25 150.54 238.89 150.3 239.7 149.69 240.22 149 240.22 148.58 239.7 147.89 238.89 147.29 238.25 147.05 
M 239.42 178.47 239.98 178.16 240.69 177.39 241.16 176.51 241.16 175.96 240.69 175.08 239.98 174.31 239.42 174 
M 239.75 185.07 240.29 184.8 240.97 184.11 241.42 183.33 241.42 182.85 240.97 182.06 240.29 181.37 239.75 181.1 
M 239.69 191.35 240.22 191.09 240.9 190.43 241.34 189.68 241.34 189.21 240.9 188.46 240.22 187.8 239.69 187.54 
M 236.59 103.75 237.2 103.51 237.98 102.9 238.48 102.21 238.48 101.78 237.98 101.09 237.2 100.48 236.59 100.25 
M 239.38 116.75 239.93 116.49 240.63 115.81 241.08 115.04 241.08 114.56 240.63 113.79 239.93 113.11 239.38 112.85 
M 240.16 122.94 240.69 122.69 241.36 122.04 241.8 121.3 241.8 120.84 241.36 120.11 240.69 119.46 240.16 119.2 
M 240.54 129.08 241.05 128.83 241.71 128.17 242.14 127.43 242.14 126.98 241.71 126.24 241.05 125.58 240.54 125.33 
M 240.9 135.49 241.41 135.23 242.07 134.56 242.49 133.8 242.49 133.33 242.07 132.58 241.41 131.91 240.9 131.65 
M 241.14 141.92 241.65 141.66 242.3 140.99 242.72 140.24 242.72 139.77 242.3 139.02 241.65 138.35 241.14 138.09 
M 241.1 148.13 241.62 147.88 242.27 147.26 242.69 146.55 242.69 146.11 242.27 145.4 241.62 144.77 241.1 144.53 
M 239.54 166.74 240.06 166.42 240.73 165.62 241.16 164.7 241.16 164.13 240.73 163.22 240.06 162.41 239.54 162.1 
M 241.23 175.05 241.71 174.73 242.33 173.91 242.73 172.98 242.73 172.41 242.33 171.48 241.71 170.66 241.23 170.34 
M 241.71 188.12 242.15 187.86 242.71 187.19 243.07 186.45 243.07 185.98 242.71 185.23 242.15 184.57 241.71 184.31 
M 238.95 101.6 239.68 101.39 240.62 100.85 241.22 100.23 241.22 99.85 240.51 99.17 
M 239.94 107.52 240.65 107.27 241.56 106.64 242.14 105.92 242.14 105.47 241.56 104.75 240.65 104.12 239.94 103.87 
M 241.22 113.91 241.89 113.64 242.75 112.98 243.31 112.22 243.31 111.75 242.75 110.99 241.89 110.32 241.22 110.06 
M 242.2 120.18 242.84 119.93 243.66 119.27 244.18 118.53 244.18 118.07 243.66 117.33 242.84 116.67 242.2 116.41 
M 242.71 126.29 243.33 126.04 244.12 125.39 244.63 124.66 244.63 124.21 244.12 123.48 243.33 122.83 242.71 122.58 
M 243.04 132.52 243.64 132.26 244.42 131.61 244.91 130.86 244.91 130.4 244.42 129.66 243.64 129 243.04 128.75 
M 243.39 145.23 243.99 144.98 244.75 144.33 245.24 143.59 245.24 143.14 244.75 142.4 243.99 141.75 243.39 141.5 
M 243 151.17 243.61 150.93 244.39 150.31 244.89 149.62 244.89 149.18 244.39 148.49 243.61 147.87 243 147.63 
M 241.35 99.52 242.72 98.87 
M 243.19 111.18 243.76 110.92 244.5 110.26 244.97 109.52 244.97 109.06 244.5 108.32 243.76 107.66 243.19 107.41 
M 244.33 117.49 244.87 117.24 245.56 116.58 246 115.84 246 115.38 245.56 114.64 244.87 113.98 244.33 113.73 
M 244.94 123.53 245.46 123.29 246.11 122.65 246.54 121.93 246.54 121.49 246.11 120.77 245.46 120.13 244.94 119.88 
M 245.22 129.59 245.72 129.34 246.36 128.7 246.77 127.97 246.77 127.52 246.36 126.79 245.72 126.15 245.22 125.9 
M 245.49 135.92 245.98 135.66 246.6 135 247 134.25 247 133.79 246.6 133.04 245.98 132.38 245.49 132.12 
M 245.67 142.3 246.15 142.04 246.76 141.38 247.15 140.63 247.15 140.16 246.76 139.41 246.15 138.75 245.67 138.49 
M 245.65 148.57 246.13 148.32 246.75 147.68 247.14 146.96 247.14 146.51 246.75 145.79 246.13 145.15 245.65 144.9 
M 245.01 154.32 245.52 154.09 246.17 153.48 246.59 152.8 246.59 152.37 246.17 151.68 245.52 151.08 245.01 150.84 
M 246.01 181.87 246.46 181.6 247.03 180.92 247.4 180.14 247.4 179.66 247.03 178.89 246.46 178.2 246.01 177.93 
M 244.4 102.87 245.13 102.66 246.06 102.13 246.66 101.53 246.66 101.16 246.06 100.56 245.13 100.03 244.4 99.82 
M 245.22 108.57 245.92 108.33 246.81 107.73 247.38 107.04 247.38 106.61 246.81 105.92 245.92 105.31 245.22 105.07 
M 246.24 114.69 246.89 114.44 247.72 113.8 248.26 113.08 248.26 112.63 247.72 111.9 246.89 111.26 246.24 111.01 
M 246.99 120.76 247.61 120.51 248.4 119.88 248.91 119.16 248.91 118.72 248.4 118 247.61 117.37 246.99 117.12 
M 247.35 126.75 247.95 126.5 248.72 125.87 249.21 125.15 249.21 124.71 248.72 123.99 247.95 123.36 247.35 123.12 
M 247.56 132.87 248.14 132.62 248.88 131.97 249.36 131.24 249.36 130.79 248.88 130.06 248.14 129.41 247.56 129.16 
M 247.72 139.16 248.28 138.91 249 138.25 249.47 137.51 249.47 137.04 249 136.3 248.28 135.64 247.72 135.38 
M 247.51 151.59 248.09 151.34 248.82 150.71 249.3 149.99 249.3 149.55 248.82 148.83 248.09 148.2 247.51 147.96 
M 246.88 157.51 247.5 157.26 248.28 156.62 248.78 155.89 248.78 155.44 248.28 154.71 247.5 154.07 246.88 153.82 
M 247.95 178.55 248.5 178.27 249.21 177.56 249.67 176.74 249.67 176.24 249.21 175.43 248.5 174.71 247.95 174.43 
M 246.87 100.88 248.26 100.21 248.76 99.66 248.76 99.33 248.09 98.68 
M 247.39 106.13 247.98 105.91 248.74 105.34 249.22 104.7 249.22 104.3 248.74 103.66 247.98 103.09 247.39 102.87 
M 248.3 112.03 248.85 111.79 249.56 111.17 250.01 110.47 250.01 110.03 249.56 109.33 248.85 108.71 248.3 108.46 
M 249.13 118.06 249.64 117.82 250.3 117.19 250.73 116.48 250.73 116.04 250.3 115.33 249.64 114.71 249.13 114.46 
M 249.55 123.95 250.05 123.71 250.68 123.09 251.09 122.39 251.09 121.96 250.68 121.26 250.05 120.64 249.55 120.4 
M 249.71 129.9 250.19 129.65 250.8 129.03 251.2 128.31 251.2 127.87 250.8 127.16 250.19 126.53 249.71 126.29 
M 249.82 136.06 250.28 135.81 250.87 135.16 251.25 134.43 251.25 133.98 250.87 133.25 250.28 132.6 249.82 132.35 
M 248.93 160.85 249.45 160.59 250.11 159.92 250.54 159.16 250.54 158.69 250.11 157.93 249.45 157.25 248.93 156.99 
M 249.16 167.91 249.68 167.62 250.33 166.87 250.75 166.02 250.75 165.5 250.33 164.65 249.68 163.9 249.16 163.61 
M 249.51 99.28 250.22 99.11 251.22 98.59 
M 249.77 104.04 250.47 103.84 251.37 103.33 251.95 102.75 251.95 102.39 251.37 101.8 250.47 101.29 249.77 101.09 
M 250.37 109.49 251.04 109.26 251.89 108.69 252.45 108.03 252.45 107.63 251.89 106.97 251.04 106.39 250.37 106.17 
M 251.09 115.31 251.71 115.07 252.52 114.46 253.03 113.77 253.03 113.35 252.52 112.66 251.71 112.05 251.09 111.81 
M 251.6 121.17 252.2 120.93 252.96 120.32 253.45 119.63 253.45 119.2 252.96 118.5 252.2 117.89 251.6 117.65 
M 251.89 133.02 252.45 132.77 253.17 132.14 253.63 131.43 253.63 130.99 253.17 130.27 252.45 129.64 251.89 129.4 
M 251.91 139.19 252.45 138.94 253.15 138.29 253.59 137.56 253.59 137.1 253.15 136.37 252.45 135.72 251.91 135.47 
M 251.93 145.51 252.46 145.25 253.14 144.59 253.58 143.85 253.58 143.39 253.14 142.65 252.46 141.99 251.93 141.74 
M 251.43 157.98 252.02 157.72 252.77 157.06 253.25 156.31 253.25 155.84 252.77 155.09 252.02 154.43 251.43 154.17 
M 252.15 178.55 252.69 178.28 253.39 177.58 253.84 176.79 253.84 176.3 253.39 175.51 252.69 174.82 252.15 174.55 
M 252.23 102.06 253.54 101.41 254.01 100.87 254.01 100.54 253.54 100 252.23 99.35 
M 252.6 107.11 253.16 106.9 253.87 106.36 254.33 105.75 254.33 105.37 253.87 104.76 253.16 104.22 252.6 104.01 
M 253.2 112.69 253.73 112.46 254.4 111.88 254.83 111.21 254.83 110.8 254.4 110.14 253.73 109.55 253.2 109.33 
M 253.73 118.45 254.22 118.21 254.86 117.61 255.26 116.93 255.26 116.51 254.86 115.83 254.22 115.23 253.73 115 
M 254 124.22 254.47 123.98 255.09 123.38 255.48 122.69 255.48 122.27 255.09 121.58 254.47 120.98 254 120.74 
M 254.05 130.06 254.52 129.82 255.11 129.21 255.5 128.51 255.5 128.08 255.11 127.38 254.52 126.77 254.05 126.53 
M 253.99 136.06 254.45 135.81 255.02 135.18 255.4 134.46 255.4 134.02 255.02 133.31 254.45 132.67 253.99 132.43 
M 254.26 175.36 254.72 175.08 255.31 174.37 255.69 173.56 255.69 173.07 255.31 172.26 254.72 171.55 254.26 171.27 
M 254.69 100.31 256.2 99.7 256.75 99.21 256.75 98.9 256.35 98.53 
M 254.89 104.97 256.39 104.28 256.93 103.71 256.93 103.36 256.39 102.8 254.89 102.1 
M 255.29 110.19 255.92 109.97 256.72 109.42 257.24 108.79 257.24 108.41 256.72 107.78 255.92 107.23 255.29 107.02 
M 255.74 115.74 256.34 115.51 257.1 114.93 257.59 114.27 257.59 113.86 257.1 113.21 256.34 112.62 255.74 112.4 
M 256.05 121.43 256.63 121.2 257.36 120.6 257.83 119.93 257.83 119.51 257.36 118.84 256.63 118.24 256.05 118.01 
M 256.17 127.2 256.73 126.96 257.45 126.36 257.91 125.67 257.91 125.25 257.45 124.57 256.73 123.96 256.17 123.73 
M 256.12 133.07 256.67 132.83 257.37 132.21 257.83 131.51 257.83 131.08 257.37 130.38 256.67 129.77 256.12 129.53 
M 255.91 151.81 256.45 151.55 257.13 150.88 257.58 150.12 257.58 149.65 257.13 148.9 256.45 148.23 255.91 147.97 
M 256.15 171.88 256.71 171.6 257.43 170.89 257.89 170.08 257.89 169.58 257.43 168.77 256.71 168.06 256.15 167.78 
M 256.31 178.54 256.85 178.27 257.54 177.59 257.99 176.81 257.99 176.33 257.54 175.56 256.85 174.87 256.31 174.6 
M 256.16 184.85 256.7 184.59 257.39 183.93 257.84 183.17 257.84 182.71 257.39 181.95 256.7 181.29 256.16 181.03 
M 257.15 98.57 257.32 98.52 
M 257.25 102.92 258.46 102.27 258.9 101.74 258.9 101.42 258.46 100.89 257.25 100.24 
M 257.49 107.8 258.68 107.08 259.11 106.49 259.11 106.13 258.68 105.54 257.49 104.82 
M 257.86 113.13 258.35 112.91 258.99 112.35 259.4 111.72 259.4 111.33 258.99 110.69 258.35 110.13 257.86 109.91 
M 258.17 118.69 258.64 118.46 259.25 117.88 259.64 117.22 259.64 116.81 259.25 116.15 258.64 115.57 258.17 115.35 
M 258.31 130.15 258.77 129.92 259.36 129.31 259.74 128.63 259.74 128.2 259.36 127.52 258.77 126.91 258.31 126.68 
M 258.13 136.01 258.58 135.77 259.15 135.15 259.53 134.45 259.53 134.02 259.15 133.32 258.58 132.7 258.13 132.46 
M 257.92 142.09 258.35 141.83 258.91 141.19 259.27 140.45 259.27 140 258.91 139.27 258.35 138.62 257.92 138.37 
M 258.44 175.36 258.9 175.09 259.48 174.39 259.85 173.6 259.85 173.11 259.48 172.32 258.9 171.63 258.44 171.35 
M 259.53 101 260.94 100.4 261.44 99.9 261.44 99.59 260.94 99.1 259.55 98.5 
M 259.68 105.59 261.07 104.91 261.57 104.35 261.57 104.01 261.07 103.46 259.68 102.78 
M 259.93 110.63 260.52 110.42 261.28 109.89 261.77 109.29 261.77 108.91 261.28 108.31 260.52 107.77 259.93 107.57 
M 260.2 116.01 260.77 115.79 261.5 115.22 261.98 114.58 261.98 114.19 261.5 113.55 260.77 112.98 260.2 112.76 
M 260.38 121.58 260.93 121.36 261.65 120.77 262.11 120.11 262.11 119.7 261.65 119.04 260.93 118.45 260.38 118.22 
M 260.42 127.3 260.98 127.07 261.68 126.47 262.14 125.79 262.14 125.37 261.68 124.69 260.98 124.1 260.42 123.86 
M 260.31 133.1 260.86 132.86 261.56 132.26 262.01 131.57 262.01 131.14 261.56 130.45 260.86 129.84 260.31 129.61 
M 260.08 139.03 260.62 138.78 261.31 138.15 261.75 137.44 261.75 137 261.31 136.29 260.62 135.66 260.08 135.42 
M 260.4 171.96 260.95 171.68 261.65 170.98 262.11 170.19 262.11 169.69 261.65 168.9 260.95 168.2 260.4 167.92 
M 260.46 178.53 261 178.27 261.69 177.59 262.13 176.82 262.13 176.34 261.69 175.57 261 174.89 260.46 174.63 
M 261.82 99.1 262.32 98.94 263.06 98.41 
M 261.9 103.42 263.03 102.78 263.44 102.25 263.44 101.93 263.03 101.41 261.9 100.77 
M 262.07 108.2 263.18 107.5 263.58 106.92 263.58 106.56 263.18 105.99 262.07 105.28 
M 262.29 113.38 263.37 112.63 263.77 112.01 263.77 111.63 263.37 111.01 262.29 110.25 
M 262.47 118.82 262.93 118.6 263.53 118.03 263.91 117.38 263.91 116.98 263.53 116.34 262.93 115.76 262.47 115.54 
M 262.55 124.45 263.01 124.22 263.59 123.63 263.97 122.96 263.97 122.55 263.59 121.88 263.01 121.29 262.55 121.06 
M 262.3 136.02 262.75 135.78 263.34 135.17 263.72 134.48 263.72 134.06 263.34 133.37 262.75 132.76 262.3 132.52 
M 261.98 142 262.43 141.75 263.01 141.1 263.38 140.38 263.38 139.93 263.01 139.2 262.43 138.56 261.98 138.31 
M 264.06 101.39 265.39 100.78 265.87 100.29 265.87 99.99 265.39 99.49 264.06 98.89 
M 264.17 105.92 265.49 105.25 265.96 104.7 265.96 104.36 265.49 103.82 264.17 103.15 
M 264.34 110.87 264.91 110.67 265.63 110.14 266.1 109.55 266.1 109.19 265.63 108.59 264.91 108.07 264.34 107.86 
M 264.51 116.15 265.06 115.93 265.78 115.38 266.24 114.75 266.24 114.36 265.78 113.73 265.06 113.18 264.51 112.96 
M 264.61 121.66 265.16 121.44 265.86 120.86 266.31 120.2 266.31 119.79 265.86 119.14 265.16 118.56 264.61 118.33 
M 264.63 127.36 265.17 127.13 265.87 126.53 266.32 125.85 266.32 125.44 265.87 124.76 265.17 124.17 264.63 123.93 
M 264.51 133.16 265.06 132.92 265.76 132.32 266.22 131.63 266.22 131.2 265.76 130.52 265.06 129.91 264.51 129.67 
M 264.26 139.06 264.81 138.82 265.51 138.19 265.96 137.48 265.96 137.04 265.51 136.33 264.81 135.71 264.26 135.46 
M 264.12 145.3 264.67 145.05 265.37 144.39 265.83 143.64 265.83 143.17 265.37 142.43 264.67 141.77 264.12 141.51 
M 264.2 151.88 264.75 151.61 265.46 150.92 265.91 150.15 265.91 149.66 265.46 148.89 264.75 148.2 264.2 147.93 
M 266.23 99.37 267.31 98.8 267.7 98.29 
M 266.29 103.66 267.37 103.02 267.76 102.51 267.76 102.19 267.37 101.67 266.29 101.03 
M 266.42 108.4 267.49 107.7 267.87 107.13 267.87 106.78 267.49 106.21 266.42 105.51 
M 266.58 113.51 267.63 112.76 268.01 112.15 268.01 111.77 267.63 111.16 266.58 110.41 
M 266.69 118.89 267.73 118.1 268.1 117.46 268.1 117.06 267.73 116.42 266.69 115.64 
M 266.53 136.12 266.99 135.88 267.57 135.27 267.95 134.58 267.95 134.15 267.57 133.45 266.99 132.84 266.53 132.6 
M 266.23 142.11 266.7 141.86 267.29 141.22 267.67 140.49 267.67 140.04 267.29 139.32 266.7 138.67 266.23 138.42 
M 266.26 148.6 266.72 148.34 267.31 147.66 267.7 146.89 267.7 146.41 267.31 145.65 266.72 144.97 266.26 144.7 
M 266.39 155.25 266.85 154.98 267.44 154.29 267.83 153.5 267.83 153.02 267.44 152.23 266.85 151.54 266.39 151.27 
M 266.51 161.95 266.97 161.68 267.56 160.98 267.95 160.19 267.95 159.7 267.56 158.9 266.97 158.21 266.51 157.93 
M 266.61 168.66 267.07 168.39 267.66 167.68 268.03 166.89 268.03 166.4 267.66 165.61 267.07 164.9 266.61 164.63 
M 266.73 175.34 267.18 175.08 267.76 174.39 268.13 173.61 268.13 173.13 267.76 172.35 267.18 171.67 266.73 171.4 
M 268.41 101.59 269.69 100.99 270.15 100.5 270.15 100.19 269.69 99.7 268.41 99.1 
M 268.49 106.09 269.77 105.43 270.23 104.89 270.23 104.55 269.77 104.01 268.49 103.34 
M 268.61 110.99 269.88 110.27 270.33 109.69 270.33 109.32 269.88 108.74 268.61 108.02 
M 268.72 116.22 269.27 116 269.97 115.45 270.43 114.83 270.43 114.44 269.97 113.82 269.27 113.27 268.72 113.06 
M 268.78 121.69 269.33 121.47 270.02 120.89 270.47 120.24 270.47 119.83 270.02 119.18 269.33 118.61 268.78 118.38 
M 268.79 127.39 269.33 127.16 270.03 126.56 270.48 125.88 270.48 125.46 270.03 124.79 269.33 124.19 268.79 123.96 
M 268.71 133.22 269.25 132.99 269.95 132.38 270.4 131.68 270.4 131.26 269.95 130.57 269.25 129.96 268.71 129.72 
M 268.49 139.17 269.04 138.92 269.75 138.29 270.2 137.58 270.2 137.14 269.75 136.42 269.04 135.79 268.49 135.55 
M 268.37 145.42 268.93 145.16 269.64 144.5 270.1 143.75 270.1 143.29 269.64 142.54 268.93 141.88 268.37 141.62 
M 268.46 152 269.02 151.73 269.73 151.05 270.19 150.27 270.19 149.79 269.73 149.01 269.02 148.32 268.46 148.05 
M 268.69 165.36 269.24 165.09 269.95 164.39 270.4 163.6 270.4 163.11 269.95 162.32 269.24 161.62 268.69 161.35 
M 270.52 99.53 270.98 99.37 271.79 98.69 
M 270.59 103.81 271.64 103.18 272.03 102.66 272.03 102.34 271.64 101.83 270.59 101.19 
M 270.68 108.5 271.73 107.81 272.1 107.25 272.1 106.9 271.73 106.34 270.68 105.64 
M 270.78 113.56 271.82 112.82 272.2 112.22 272.2 111.84 271.82 111.24 270.78 110.5 
M 270.85 118.9 271.88 118.12 272.26 117.49 272.26 117.09 271.88 116.46 270.85 115.67 
M 270.86 130.3 271.31 130.06 271.89 129.46 272.26 128.77 272.26 128.34 271.89 127.66 271.31 127.05 270.86 126.81 
M 270.72 136.19 271.18 135.95 271.76 135.34 272.13 134.64 272.13 134.2 271.76 133.5 271.18 132.89 270.72 132.65 
M 270.48 142.23 270.94 141.98 271.53 141.33 271.91 140.6 271.91 140.15 271.53 139.42 270.94 138.77 270.48 138.52 
M 270.53 148.74 270.99 148.47 271.58 147.79 271.96 147.02 271.96 146.54 271.58 145.77 270.99 145.09 270.53 144.83 
M 270.68 155.41 271.15 155.14 271.74 154.45 272.13 153.66 272.13 153.17 271.74 152.38 271.15 151.69 270.68 151.42 
M 270.84 168.73 271.3 168.46 271.88 167.77 272.26 166.98 272.26 166.5 271.88 165.71 271.3 165.02 270.84 164.75 
M 272.66 101.71 273.91 101.1 274.37 100.61 274.37 100.31 273.91 99.81 272.66 99.21 
M 272.74 106.19 273.99 105.53 274.44 104.99 274.44 104.65 273.99 104.12 272.74 103.45 
M 272.82 111.05 274.06 110.34 274.51 109.75 274.51 109.39 274.06 108.81 272.82 108.1 
M 272.89 116.24 273.44 116.03 274.13 115.48 274.58 114.86 274.58 114.48 274.13 113.86 273.44 113.31 272.89 113.1 
M 272.93 121.7 273.47 121.47 274.16 120.9 274.61 120.25 274.61 119.84 274.16 119.19 273.47 118.62 272.93 118.39 
M 272.94 127.4 273.48 127.16 274.17 126.57 274.61 125.89 274.61 125.47 274.17 124.79 273.48 124.2 272.94 123.96 
M 272.87 133.25 273.41 133.01 274.1 132.4 274.55 131.71 274.55 131.28 274.1 130.58 273.41 129.97 272.87 129.73 
M 272.69 139.24 273.24 138.99 273.93 138.36 274.39 137.64 274.39 137.2 273.93 136.48 273.24 135.85 272.69 135.6 
M 272.73 152.14 273.29 151.87 274 151.18 274.46 150.4 274.46 149.92 274 149.14 273.29 148.45 272.73 148.18 
M 272.91 165.43 273.46 165.16 274.15 164.46 274.6 163.68 274.6 163.2 274.15 162.41 273.46 161.72 272.91 161.45 
M 274.72 99.61 275.6 99.14 
M 274.81 103.89 275.85 103.26 276.22 102.74 276.22 102.42 275.85 101.91 274.81 101.27 
M 274.87 108.55 275.91 107.86 276.28 107.3 276.28 106.96 275.91 106.4 274.87 105.71 
M 274.95 113.58 275.97 112.84 276.35 112.24 276.35 111.87 275.97 111.27 274.95 110.53 
M 275 118.91 276.02 118.13 276.39 117.49 276.39 117.1 276.02 116.46 275 115.68 
M 275.01 124.49 275.46 124.26 276.03 123.67 276.41 123.01 276.41 122.59 276.03 121.93 275.46 121.34 275.01 121.11 
M 275 130.3 275.45 130.07 276.02 129.46 276.4 128.77 276.4 128.34 276.02 127.66 275.45 127.05 275 126.81 
M 274.68 142.31 275.14 142.06 275.72 141.41 276.1 140.67 276.1 140.21 275.72 139.48 275.14 138.83 274.68 138.57 
M 274.95 155.54 275.41 155.27 276 154.57 276.38 153.79 276.38 153.3 276 152.52 275.41 151.83 274.95 151.55 
M 275 175.33 275.44 175.06 276.02 174.37 276.39 173.6 276.39 173.12 276.02 172.34 275.44 171.65 275 171.38 
M 276.83 101.75 278.06 101.14 278.51 100.65 278.51 100.34 277.44 99.45 
M 276.91 106.22 278.14 105.56 278.59 105.03 278.59 104.69 278.14 104.15 276.91 103.49 
M 276.98 111.06 278.2 110.35 278.65 109.77 278.65 109.41 278.2 108.83 276.98 108.12 
M 277.03 116.24 277.57 116.02 278.26 115.48 278.7 114.86 278.7 114.48 278.26 113.86 277.57 113.31 277.03 113.1 
M 277.07 121.69 277.6 121.47 278.29 120.89 278.73 120.24 278.73 119.84 278.29 119.19 277.6 118.61 277.07 118.39 
M 277.07 127.39 277.6 127.16 278.29 126.56 278.74 125.88 278.74 125.46 278.29 124.79 277.6 124.19 277.07 123.96 
M 277 133.25 277.53 133.01 278.22 132.4 278.66 131.7 278.66 131.27 278.22 130.57 277.53 129.96 277 129.72 
M 276.85 139.27 277.39 139.02 278.08 138.38 278.52 137.66 278.52 137.21 278.08 136.49 277.39 135.85 276.85 135.61 
M 277.03 172.01 277.57 171.74 278.25 171.05 278.69 170.27 278.69 169.78 278.25 169 277.57 168.31 277.03 168.04 
M 278.96 103.9 279.98 103.27 280.35 102.75 280.35 102.43 279.98 101.92 278.96 101.28 
M 279.01 108.55 280.03 107.86 280.4 107.3 280.4 106.96 280.03 106.4 279.01 105.71 
M 279.07 113.57 280.09 112.83 280.46 112.23 280.46 111.86 280.09 111.26 279.07 110.52 
M 279.12 118.89 280.14 118.11 280.5 117.47 280.5 117.08 280.14 116.45 279.12 115.67 
M 279.14 124.48 279.58 124.25 280.16 123.66 280.53 123 280.53 122.59 280.16 121.92 279.58 121.33 279.14 121.1 
M 279.12 130.28 279.57 130.05 280.14 129.44 280.51 128.75 280.51 128.33 280.14 127.64 279.57 127.03 279.12 126.8 
M 278.99 136.2 279.43 135.95 280 135.33 280.37 134.63 280.37 134.19 280 133.49 279.43 132.86 278.99 132.62 
M 278.84 142.34 279.28 142.08 279.86 141.43 280.23 140.69 280.23 140.23 279.86 139.48 279.28 138.83 278.84 138.57 
M 279.11 175.33 279.56 175.06 280.13 174.36 280.5 173.58 280.5 173.09 280.13 172.31 279.56 171.61 279.11 171.34 
M 280.93 101.72 282.13 101.11 282.54 100.64 
M 281.02 106.19 282.23 105.53 282.66 104.99 282.66 104.66 282.23 104.12 281.02 103.46 
M 281.08 111.02 282.28 110.31 282.72 109.73 282.72 109.37 282.28 108.79 281.08 108.08 
M 281.13 116.2 281.66 115.99 282.34 115.44 282.78 114.82 282.78 114.44 282.34 113.82 281.66 113.27 281.13 113.06 
M 281.17 121.66 281.7 121.44 282.38 120.86 282.82 120.21 282.82 119.81 282.38 119.16 281.7 118.58 281.17 118.36 
M 281.17 127.35 281.7 127.12 282.38 126.52 282.82 125.85 282.82 125.43 282.38 124.75 281.7 124.16 281.17 123.93 
M 283.02 103.84 284.02 103.2 284.38 102.68 284.38 102.36 284.02 101.84 283.02 101.21 
M 283.23 124.44 284.23 123.62 284.6 122.95 284.6 122.54 284.23 121.87 283.23 121.06 
M 283.2 130.22 283.64 129.98 284.2 129.38 284.56 128.69 284.56 128.27 284.2 127.58 283.64 126.98 283.2 126.74 
M 284.92 101.59 285.53 101.36 
M 285.03 106.07 286.22 105.41 286.64 104.87 286.64 104.54 286.22 104 285.03 103.34 
M 285.09 110.91 286.27 110.19 286.7 109.61 286.7 109.25 286.27 108.67 285.09 107.96 
M 285.16 116.09 285.67 115.88 286.33 115.33 286.76 114.71 286.76 114.33 286.33 113.71 285.67 113.16 285.16 112.95 
M 285.21 121.56 285.72 121.34 286.38 120.76 286.81 120.11 286.81 119.71 286.38 119.06 285.72 118.48 285.21 118.26 
M 285.21 127.25 285.72 127.02 286.38 126.42 286.81 125.75 286.81 125.33 286.38 124.66 285.72 124.06 285.21 123.83 
M 285 139.16 285.53 138.91 286.21 138.27 286.64 137.54 286.64 137.09 286.21 136.35 285.53 135.71 285 135.46 
M 285.09 145.63 285.63 145.36 286.32 144.68 286.77 143.92 286.77 143.44 286.32 142.67 285.63 142 285.09 141.73 
M 286.99 103.67 287.96 103.03 288.32 102.51 288.3 102.15 
M 287.04 108.31 288.02 107.62 288.37 107.06 288.37 106.72 288.02 106.16 287.04 105.47 
M 287.11 113.34 288.08 112.6 288.43 112 288.43 111.62 288.08 111.02 287.11 110.28 
M 287.18 118.68 288.14 117.9 288.48 117.26 288.48 116.87 288.14 116.23 287.18 115.45 
M 287.22 124.29 288.18 123.47 288.52 122.81 288.52 122.4 288.18 121.73 287.22 120.91 
M 287.13 161.8 287.57 161.53 288.12 160.87 288.49 160.11 288.49 159.64 288.12 158.88 287.57 158.21 287.13 157.95 
M 287.04 168.4 287.48 168.13 288.04 167.43 288.39 166.64 288.39 166.15 288.04 165.35 287.48 164.65 287.04 164.38 
M 288.97 105.87 290.13 105.21 290.56 104.67 290.56 104.34 290.13 103.8 288.97 103.14 
M 289 110.67 290.15 109.96 290.57 109.38 290.57 109.03 290.15 108.45 289 107.74 
M 289.03 115.81 290.15 115.06 290.56 114.44 290.56 114.06 290.15 113.44 289.03 112.69 
M 289.05 121.26 289.53 121.04 290.15 120.46 290.55 119.81 290.55 119.41 290.15 118.76 289.53 118.19 289.05 117.96 
M 289.06 126.98 289.54 126.74 290.17 126.14 290.57 125.46 290.57 125.04 290.17 124.36 289.54 123.76 289.06 123.53 
M 289.04 132.91 289.54 132.67 290.19 132.04 290.61 131.34 290.61 130.9 290.19 130.19 289.54 129.56 289.04 129.32 
M 289.07 139.13 289.6 138.88 290.29 138.22 290.73 137.47 290.73 137.01 290.29 136.27 289.6 135.61 289.07 135.35 
M 289.28 158.59 289.81 158.33 290.48 157.66 290.91 156.91 290.91 156.44 290.48 155.69 289.81 155.02 289.28 154.76 
M 290.9 103.45 291.55 103.09 
M 290.93 108.05 291.9 107.37 292.24 106.81 292.24 106.47 291.9 105.92 290.93 105.24 
M 290.89 118.24 291.78 117.47 292.11 116.84 292.11 116.45 291.78 115.82 290.89 115.04 
M 291.01 135.9 291.45 135.64 292.01 134.99 292.37 134.25 292.37 133.79 292.01 133.05 291.45 132.4 291.01 132.15 
M 291.23 142.4 291.7 142.13 292.29 141.45 292.68 140.68 292.68 140.2 292.29 139.43 291.7 138.75 291.23 138.48 
M 291.1 161.62 291.53 161.36 292.08 160.69 292.43 159.94 292.43 159.48 292.08 158.73 291.53 158.06 291.1 157.81 
M 292.86 105.62 294.03 104.96 294.45 104.43 294.3 103.91 
M 292.8 110.3 293.94 109.61 294.35 109.05 294.35 108.7 293.94 108.14 292.8 107.45 
M 292.66 115.27 293.74 114.54 294.13 113.94 294.13 113.57 293.74 112.97 292.66 112.24 
M 292.54 120.61 293.57 119.82 293.94 119.18 293.94 118.78 293.57 118.13 292.54 117.34 
M 292.59 126.42 293.04 126.18 293.63 125.56 294 124.87 294 124.43 293.63 123.73 293.04 123.12 292.59 122.88 
M 292.85 132.68 293.34 132.42 293.98 131.76 294.39 131.02 294.39 130.56 293.98 129.81 293.34 129.15 292.85 128.9 
M 293.21 139.2 293.75 138.94 294.44 138.26 294.89 137.48 294.89 137.01 294.44 136.24 293.75 135.55 293.21 135.29 
M 293.26 158.4 293.77 158.15 294.43 157.49 294.86 156.75 294.86 156.29 294.43 155.54 293.77 154.89 293.26 154.63 
M 294.79 107.73 295.76 107.07 296.11 106.53 296.11 106.2 295.76 105.66 294.79 105 
M 294.58 112.43 295.49 111.74 295.82 111.18 295.82 110.83 295.49 110.27 294.58 109.57 
M 294.27 117.42 295.11 116.68 295.42 116.07 295.42 115.7 295.11 115.09 294.27 114.35 
M 294.12 122.94 294.93 122.12 295.23 121.44 295.23 121.02 294.93 120.35 294.12 119.52 
M 295.04 135.92 295.48 135.64 296.04 134.94 296.4 134.15 296.4 133.66 296.04 132.87 295.48 132.17 295.04 131.9 
M 295.55 142.6 296.01 142.33 296.61 141.64 296.99 140.85 296.99 140.37 296.61 139.59 296.01 138.9 295.55 138.63 
M 295.7 149.04 296.15 148.78 296.72 148.11 297.09 147.36 297.09 146.89 296.72 146.14 296.15 145.47 295.7 145.21 
M 295.46 155.22 295.89 154.97 296.44 154.32 296.79 153.59 296.79 153.14 296.44 152.41 295.89 151.76 295.46 151.51 
M 294.99 161.36 295.41 161.1 295.96 160.44 296.31 159.69 296.31 159.23 295.96 158.49 295.41 157.83 294.99 157.57 
M 296.78 105.37 297.59 104.98 
M 296.57 109.87 297.71 109.21 298.12 108.67 298.12 108.34 297.71 107.8 296.57 107.14 
M 296.15 114.55 297.22 113.85 297.6 113.28 297.6 112.93 297.22 112.36 296.15 111.66 
M 295.76 119.67 296.77 118.9 297.14 118.26 297.14 117.87 296.77 117.24 295.76 116.46 
M 295.86 125.65 296.31 125.4 296.88 124.75 297.25 124.02 297.25 123.57 296.88 122.83 296.31 122.19 295.86 121.94 
M 297.37 139.3 297.91 139.03 298.61 138.32 299.06 137.52 299.06 137.02 298.61 136.22 297.91 135.51 297.37 135.24 
M 297.17 158.16 297.68 157.9 298.34 157.26 298.76 156.52 298.76 156.06 298.34 155.33 297.68 154.68 297.17 154.43 
M 297.01 171.38 297.52 171.1 298.18 170.38 298.6 169.57 298.6 169.07 298.18 168.26 297.52 167.54 297.01 167.26 
M 297.66 185.05 298.18 184.78 298.86 184.09 299.29 183.3 299.29 182.82 298.86 182.03 298.18 181.34 297.66 181.07 
M 298.69 107.45 299.67 106.81 300.03 106.29 299.86 105.72 
M 298.22 111.86 299.15 111.21 299.49 110.68 299.49 110.35 299.15 109.82 298.22 109.17 
M 297.53 116.47 298.39 115.76 298.71 115.19 298.71 114.84 298.39 114.27 297.53 113.56 
M 297.14 121.86 297.98 121.03 298.28 120.34 298.28 119.92 297.98 119.24 297.14 118.4 
M 299.8 142.71 300.25 142.44 300.84 141.75 301.22 140.97 301.22 140.48 300.84 139.7 300.25 139.01 299.8 138.74 
M 299.77 148.92 300.21 148.67 300.78 148.02 301.14 147.29 301.14 146.83 300.78 146.1 300.21 145.45 299.77 145.2 
M 298.76 167.72 299.19 167.45 299.74 166.74 300.09 165.95 300.09 165.45 299.74 164.66 299.19 163.95 298.76 163.68 
M 299.76 188.3 300.2 188.03 300.76 187.35 301.13 186.57 301.13 186.09 300.76 185.32 300.2 184.63 299.76 184.36 
M 300.42 109.53 301.6 108.9 302.02 108.38 302.02 108.06 301.6 107.54 300.42 106.91 
M 299.73 113.93 300.86 113.27 301.27 112.72 301.27 112.39 300.86 111.85 299.73 111.18 
M 299.09 118.85 300.18 118.08 300.58 117.45 300.58 117.07 300.18 116.44 299.09 115.68 
M 301.52 139.37 302.06 139.09 302.76 138.36 303.2 137.54 303.2 137.03 302.76 136.21 302.06 135.48 301.52 135.19 
M 301.84 145.8 302.38 145.54 303.07 144.87 303.51 144.11 303.51 143.65 303.07 142.89 302.38 142.22 301.84 141.96 
M 300.81 164.33 301.33 164.06 302 163.38 302.43 162.61 302.43 162.14 302 161.37 301.33 160.69 300.81 160.42 
M 300.94 171.17 301.46 170.89 302.13 170.17 302.56 169.36 302.56 168.86 302.13 168.04 301.46 167.33 300.94 167.05 
M 301.67 184.95 302.2 184.68 302.87 183.98 303.31 183.18 303.31 182.69 302.87 181.9 302.2 181.19 301.67 180.92 
M 302.7 107.3 303.46 106.87 
M 302.07 111.52 303.06 110.89 303.42 110.38 303.42 110.07 303.06 109.56 302.07 108.93 
M 301.12 115.87 302.09 115.19 302.45 114.64 302.45 114.3 302.09 113.75 301.12 113.07 
M 300.57 121.18 301 120.94 301.54 120.33 301.89 119.64 301.89 119.21 301.54 118.52 301 117.91 300.57 117.68 
M 303.22 136.05 303.67 135.75 304.24 134.97 304.62 134.09 304.62 133.54 304.24 132.66 303.67 131.88 303.22 131.58 
M 303.97 142.74 304.42 142.47 305 141.78 305.37 141 305.37 140.51 305 139.73 304.42 139.04 303.97 138.78 
M 303.1 174.6 303.54 174.32 304.11 173.59 304.47 172.76 304.47 172.25 304.11 171.42 303.54 170.69 303.1 170.41 
M 303.55 181.57 303.99 181.29 304.56 180.58 304.92 179.76 304.92 179.26 304.56 178.44 303.99 177.73 303.55 177.45 
M 303.81 188.24 304.25 187.97 304.82 187.27 305.19 186.49 305.19 186.01 304.82 185.22 304.25 184.53 303.81 184.26 
M 304.46 109.41 305.68 108.79 306.12 108.27 306.12 107.96 305.83 107.62 
M 303.69 113.74 304.94 113.08 305.39 112.55 305.39 112.22 304.94 111.68 303.69 111.03 
M 302.98 118.6 303.54 118.38 304.26 117.83 304.72 117.21 304.72 116.82 304.26 116.2 303.54 115.65 302.98 115.44 
M 303.15 124.79 303.71 124.52 304.43 123.83 304.89 123.06 304.89 122.58 304.43 121.8 303.71 121.12 303.15 120.85 
M 304.44 132.19 305 131.89 305.7 131.12 306.16 130.25 306.16 129.71 305.7 128.84 305 128.07 304.44 127.77 
M 305.67 139.4 306.21 139.11 306.91 138.38 307.36 137.55 307.36 137.04 306.91 136.21 306.21 135.48 305.67 135.19 
M 305.97 145.78 306.51 145.52 307.2 144.85 307.64 144.1 307.64 143.63 307.2 142.88 306.51 142.22 305.97 141.96 
M 305.66 151.81 306.2 151.57 306.89 150.93 307.34 150.21 307.34 149.76 306.89 149.04 306.2 148.4 305.66 148.16 
M 306.23 111.56 307.29 110.93 307.67 110.41 307.67 110.09 307.29 109.58 306.23 108.94 
M 305.36 116 306.49 115.31 306.9 114.75 306.9 114.41 306.49 113.85 305.36 113.16 
M 304.87 121.34 305.39 121.1 306.05 120.49 306.47 119.8 306.47 119.37 306.05 118.68 305.39 118.07 304.87 117.84 
M 307.39 136.07 307.85 135.76 308.44 134.99 308.82 134.12 308.82 133.58 308.44 132.7 307.85 131.93 307.39 131.63 
M 308.1 142.73 308.55 142.46 309.13 141.78 309.5 141 309.5 140.52 309.13 139.74 308.55 139.05 308.1 138.78 
M 307.97 148.82 308.42 148.57 309 147.93 309.37 147.2 309.37 146.75 309 146.03 308.42 145.39 307.97 145.14 
M 306.94 167.61 307.4 167.34 308 166.64 308.39 165.85 308.39 165.35 308 164.56 307.4 163.86 306.94 163.59 
M 307.26 174.61 307.72 174.33 308.3 173.6 308.68 172.78 308.68 172.27 308.3 171.44 307.72 170.72 307.26 170.43 
M 308.63 109.49 309.83 108.88 
M 308.08 114.04 309.43 113.36 309.92 112.8 309.92 112.46 309.43 111.9 308.08 111.22 
M 307.59 119.09 308.22 118.87 309.03 118.31 309.56 117.68 309.56 117.28 309.03 116.65 308.22 116.09 307.59 115.87 
M 307.76 125.21 308.4 124.95 309.21 124.28 309.74 123.52 309.74 123.05 309.21 122.29 308.4 121.62 307.76 121.36 
M 309.85 139.4 310.4 139.12 311.1 138.4 311.56 137.59 311.56 137.09 311.1 136.27 310.4 135.56 309.85 135.27 
M 310.11 145.78 310.65 145.52 311.35 144.86 311.79 144.11 311.79 143.64 311.35 142.89 310.65 142.23 310.11 141.97 
M 309.19 164.44 309.76 164.17 310.5 163.49 310.97 162.72 310.97 162.25 310.5 161.48 309.76 160.8 309.19 160.53 
M 310.58 111.87 311.68 111.19 312.08 110.64 312.08 110.29 311.68 109.74 311.08 109.27 
M 309.95 122.27 310.52 122.03 311.25 121.42 311.73 120.73 311.73 120.31 311.25 119.62 310.52 119.01 309.95 118.77 
M 310.52 128.89 311.05 128.61 311.74 127.9 312.18 127.1 312.18 126.6 311.74 125.8 311.05 125.09 310.52 124.81 
M 312.24 142.71 312.69 142.44 313.26 141.76 313.63 140.99 313.63 140.51 313.26 139.74 312.69 139.06 312.24 138.8 
M 312.73 114.65 313.34 114.44 314.13 113.92 314.63 113.32 314.63 112.95 314.13 112.35 313.34 111.83 312.73 111.62 
M 312.61 120.01 313.27 119.78 314.11 119.21 314.66 118.56 314.66 118.15 314.11 117.5 313.27 116.92 312.61 116.7 
M 312.78 126.01 313.44 125.76 314.28 125.11 314.82 124.38 314.82 123.93 314.28 123.2 313.44 122.55 312.78 122.3 
M 313.42 132.67 314.02 132.4 314.79 131.7 315.29 130.92 315.29 130.43 314.79 129.64 314.02 128.94 313.42 128.67 
M 314.08 139.41 314.63 139.14 315.33 138.45 315.79 137.67 315.79 137.18 315.33 136.4 314.63 135.7 314.08 135.43 
M 313.98 184.83 314.51 184.56 315.19 183.86 315.63 183.07 315.63 182.59 315.19 181.8 314.51 181.1 313.98 180.83 
M 315.05 112.31 316.16 111.58 316.56 110.94 
M 315.12 117.68 315.66 117.46 316.34 116.89 316.79 116.25 316.79 115.86 316.34 115.22 315.66 114.65 315.12 114.43 
M 315.19 123.35 315.75 123.12 316.47 122.51 316.93 121.82 316.93 121.4 316.47 120.71 315.75 120.11 315.19 119.87 
M 315.46 129.53 315.99 129.28 316.66 128.62 317.1 127.87 317.1 127.41 316.66 126.66 315.99 126.01 315.46 125.75 
M 316.02 136.17 316.49 135.9 317.09 135.22 317.48 134.44 317.48 133.96 317.09 133.18 316.49 132.5 316.02 132.23 
M 316.37 142.67 316.82 142.41 317.39 141.74 317.77 140.98 317.77 140.51 317.39 139.75 316.82 139.08 316.37 138.82 
M 315.89 161.61 316.37 161.35 316.98 160.67 317.38 159.91 317.38 159.44 316.98 158.67 316.37 158 315.89 157.73 
M 317.4 115.27 318 115.06 318.78 114.5 319.28 113.86 319.28 113.47 318.78 112.83 318 112.27 317.4 112.05 
M 317.57 120.87 318.2 120.64 319.01 120.05 319.53 119.38 319.53 118.97 319.01 118.3 318.2 117.71 317.57 117.48 
M 317.72 126.74 318.34 126.5 319.15 125.87 319.67 125.17 319.67 124.73 319.15 124.02 318.34 123.4 317.72 123.16 
M 317.99 132.99 318.58 132.73 319.33 132.08 319.82 131.33 319.82 130.87 319.33 130.13 318.58 129.47 317.99 129.21 
M 318.31 139.44 318.86 139.18 319.57 138.51 320.02 137.75 320.02 137.28 319.57 136.53 318.86 135.86 318.31 135.6 
M 318.41 145.8 318.95 145.55 319.65 144.88 320.09 144.13 320.09 143.67 319.65 142.92 318.95 142.26 318.41 142 
M 318.29 152.1 318.84 151.84 319.54 151.18 319.99 150.43 319.99 149.97 319.54 149.22 318.84 148.56 318.29 148.3 
M 318.12 158.48 318.68 158.22 319.4 157.55 319.86 156.79 319.86 156.32 319.4 155.56 318.68 154.89 318.12 154.63 
M 319.54 112.75 320.4 112.19 
M 319.89 118.36 320.4 118.13 321.04 117.55 321.46 116.88 321.46 116.47 321.04 115.81 320.4 115.22 319.89 114.99 
M 320.07 124.07 320.58 123.84 321.23 123.24 321.65 122.56 321.65 122.13 321.23 121.45 320.58 120.85 320.07 120.62 
M 320.15 130 320.65 129.75 321.28 129.12 321.69 128.41 321.69 127.97 321.28 127.26 320.65 126.63 320.15 126.39 
M 320.33 136.26 320.8 136 321.4 135.35 321.78 134.61 321.78 134.15 321.4 133.4 320.8 132.75 320.33 132.49 
M 320.31 155.31 320.76 155.05 321.34 154.38 321.72 153.62 321.72 153.15 321.34 152.4 320.76 151.73 320.31 151.47 
M 320.22 161.82 320.69 161.56 321.28 160.88 321.66 160.1 321.66 159.63 321.28 158.86 320.69 158.18 320.22 157.91 
M 320.06 174.86 320.51 174.59 321.09 173.91 321.47 173.15 321.47 172.67 321.09 171.9 320.51 171.23 320.06 170.96 
M 320 181.37 320.43 181.11 321 180.42 321.36 179.65 321.36 179.17 321 178.39 320.43 177.71 320 177.44 
M 322.21 121.37 322.79 121.14 323.55 120.55 324.03 119.88 324.03 119.46 323.55 118.79 322.79 118.2 322.21 117.97 
M 322.4 133.2 322.97 132.95 323.69 132.32 324.16 131.6 324.16 131.15 323.69 130.43 322.97 129.79 322.4 129.54 
M 322.52 139.47 323.07 139.22 323.77 138.56 324.22 137.82 324.22 137.36 323.77 136.62 323.07 135.97 322.52 135.71 
M 322.55 145.8 323.09 145.54 323.78 144.88 324.23 144.13 324.23 143.67 323.78 142.93 323.09 142.27 322.55 142.01 
M 322.34 158.58 322.88 158.31 323.58 157.64 324.03 156.87 324.03 156.4 323.58 155.63 322.88 154.96 322.34 154.69 
M 322.19 171.61 322.73 171.34 323.42 170.67 323.86 169.9 323.86 169.43 323.42 168.66 322.73 167.98 322.19 167.72 
M 324.36 118.68 324.83 118.46 325.44 117.87 325.83 117.21 325.83 116.8 325.44 116.13 324.83 115.55 324.36 115.32 
M 324.51 124.36 324.98 124.13 325.58 123.53 325.97 122.86 325.97 122.44 325.58 121.76 324.98 121.16 324.51 120.93 
M 324.53 130.21 325 129.97 325.6 129.35 325.98 128.65 325.98 128.22 325.6 127.52 325 126.9 324.53 126.66 
M 324.58 136.34 325.04 136.08 325.63 135.44 326.01 134.71 326.01 134.26 325.63 133.53 325.04 132.89 324.58 132.64 
M 324.58 148.93 325.02 148.68 325.6 148.02 325.96 147.27 325.96 146.81 325.6 146.06 325.02 145.4 324.58 145.15 
M 324.44 155.31 324.89 155.05 325.45 154.38 325.82 153.62 325.82 153.15 325.45 152.39 324.89 151.71 324.44 151.45 
M 324.39 161.86 324.84 161.59 325.41 160.91 325.78 160.14 325.78 159.66 325.41 158.89 324.84 158.2 324.39 157.94 
M 324.35 168.4 324.79 168.14 325.36 167.46 325.73 166.69 325.73 166.22 325.36 165.45 324.79 164.77 324.35 164.51 
M 323.98 181.19 324.41 180.93 324.95 180.25 325.31 179.49 325.31 179.01 324.95 178.25 324.41 177.57 323.98 177.31 
M 326.63 127.32 327.18 127.09 327.9 126.48 328.35 125.79 328.35 125.37 327.9 124.68 327.18 124.07 326.63 123.84 
M 326.66 133.3 327.21 133.05 327.91 132.42 328.37 131.71 328.37 131.27 327.91 130.56 327.21 129.93 326.66 129.68 
M 326.7 139.5 327.25 139.24 327.94 138.6 328.39 137.86 328.39 137.41 327.94 136.68 327.25 136.03 326.7 135.78 
M 326.68 145.77 327.22 145.51 327.91 144.86 328.35 144.12 328.35 143.66 327.91 142.92 327.22 142.26 326.68 142.01 
M 326.54 152.08 327.08 151.82 327.76 151.16 328.2 150.41 328.2 149.94 327.76 149.19 327.08 148.53 326.54 148.27 
M 326.43 158.53 326.96 158.27 327.64 157.59 328.08 156.83 328.08 156.35 327.64 155.59 326.96 154.91 326.43 154.65 
M 326.38 165.07 326.9 164.8 327.58 164.12 328.01 163.35 328.01 162.88 327.58 162.11 326.9 161.43 326.38 161.16 
M 326.25 171.51 326.77 171.25 327.44 170.58 327.87 169.82 327.87 169.35 327.44 168.59 326.77 167.92 326.25 167.66 
M 326.03 177.88 326.55 177.61 327.2 176.95 327.63 176.19 327.63 175.72 327.2 174.96 326.55 174.3 326.03 174.03 
M 325.94 184.32 326.45 184.06 327.1 183.38 327.51 182.62 327.51 182.15 327.1 181.39 326.45 180.71 325.94 180.45 
M 328.73 124.44 329.19 124.2 329.77 123.61 330.15 122.94 330.15 122.52 329.77 121.85 329.19 121.26 328.73 121.03 
M 328.77 136.37 329.22 136.12 329.8 135.48 330.18 134.76 330.18 134.31 329.8 133.59 329.22 132.95 328.77 132.7 
M 328.67 148.87 329.12 148.62 329.69 147.96 330.06 147.22 330.06 146.76 329.69 146.02 329.12 145.37 328.67 145.11 
M 328.36 168.26 328.79 168 329.34 167.32 329.69 166.56 329.69 166.09 329.34 165.32 328.79 164.65 328.36 164.39 
M 327.86 180.92 328.28 180.66 328.82 179.99 329.17 179.23 329.17 178.76 328.82 178.01 328.28 177.34 327.86 177.08 
M 330.66 116.1 330.78 116.05 
M 330.82 127.37 331.37 127.14 332.07 126.53 332.52 125.85 332.52 125.43 332.07 124.74 331.37 124.14 330.82 123.9 
M 330.84 133.33 331.38 133.09 332.07 132.46 332.52 131.75 332.52 131.31 332.07 130.6 331.38 129.97 330.84 129.73 
M 332.86 118.86 333.91 118.07 334.26 117.48 
M 332.91 124.47 333.36 124.24 333.94 123.65 334.32 122.98 334.32 122.56 333.94 121.9 333.36 121.3 332.91 121.07 
M 332.91 130.3 333.36 130.06 333.94 129.45 334.32 128.75 334.32 128.32 333.94 127.63 333.36 127.01 332.91 126.77 
M 332.91 136.38 333.36 136.13 333.94 135.49 334.31 134.76 334.31 134.32 333.94 133.59 333.36 132.96 332.91 132.71 
M 332.94 142.64 333.39 142.38 333.97 141.73 334.34 140.99 334.34 140.54 333.97 139.8 333.39 139.15 332.94 138.89 
M 332.26 168.02 332.68 167.76 333.21 167.09 333.56 166.32 333.56 165.85 333.21 165.09 332.68 164.42 332.26 164.16 
M 332.34 183.82 331.67 183.23 
M 334.97 121.67 335.52 121.45 336.22 120.87 336.67 120.22 336.67 119.82 336.22 119.17 335.52 118.59 334.97 118.37 
M 334.99 127.39 335.53 127.16 336.23 126.56 336.68 125.87 336.68 125.45 336.23 124.77 335.53 124.17 334.99 123.94 
M 334.99 133.34 335.53 133.1 336.22 132.47 336.67 131.76 336.67 131.32 336.22 130.61 335.53 129.99 334.99 129.74 
M 334.76 151.98 335.29 151.72 335.98 151.08 336.42 150.34 336.42 149.89 335.98 149.15 335.29 148.5 334.76 148.25 
M 334.21 164.59 334.71 164.33 335.35 163.67 335.76 162.91 335.76 162.44 335.35 161.69 334.71 161.02 334.21 160.76 
M 334.2 183.26 334.7 182.73 335.11 181.98 335.11 181.51 334.7 180.76 334.07 180.1 333.57 179.84 
M 337.06 118.89 337.35 118.75 
M 337.07 124.48 337.52 124.25 338.1 123.66 338.47 123 338.47 122.59 338.1 121.92 337.52 121.33 337.07 121.1 
M 337.07 130.32 337.52 130.08 338.1 129.46 338.47 128.77 338.47 128.34 338.1 127.64 337.52 127.03 337.07 126.79 
M 337.07 142.64 337.52 142.38 338.1 141.73 338.47 140.99 338.47 140.53 338.1 139.79 337.52 139.14 337.07 138.88 
M 337 148.91 337.46 148.66 338.04 148.01 338.41 147.28 338.41 146.82 338.04 146.09 337.46 145.44 337 145.19 
M 336.63 155 337.07 154.75 337.64 154.11 338 153.39 338 152.94 337.64 152.21 337.07 151.57 336.63 151.32 
M 336.04 167.66 336.45 167.4 336.97 166.73 337.31 165.97 337.31 165.5 336.97 164.75 336.45 164.08 336.04 163.82 
M 335.46 182.88 335.41 182.85 
M 339.14 121.69 339.68 121.47 340.37 120.9 340.82 120.19 
M 339.14 127.4 339.68 127.17 340.37 126.57 340.82 125.89 340.82 125.47 340.37 124.79 339.68 124.19 339.14 123.95 
M 339.13 139.5 339.67 139.25 340.36 138.6 340.81 137.87 340.81 137.42 340.36 136.69 339.67 136.05 339.13 135.79 
M 339.11 145.77 339.65 145.52 340.34 144.87 340.78 144.13 340.78 143.68 340.34 142.94 339.65 142.29 339.11 142.04 
M 338.86 151.91 339.39 151.66 340.07 151.03 340.51 150.3 340.51 149.86 340.07 149.13 339.39 148.49 338.86 148.25 
M 337.97 164.2 338.46 163.94 339.09 163.28 339.49 162.53 339.49 162.07 339.09 161.33 338.46 160.67 337.97 160.41 
M 341.22 124.49 341.67 124.26 342.24 123.67 342.61 123.01 342.61 122.6 342.24 121.93 341.67 121.34 341.22 121.11 
M 340.65 154.83 341.08 154.59 341.63 153.97 341.99 153.26 341.99 152.83 341.63 152.12 341.08 151.5 340.65 151.26 
M 339.94 160.75 340.35 160.5 340.87 159.85 341.2 159.13 341.2 158.68 340.87 157.95 340.35 157.31 339.94 157.06 
M 339.72 167.2 340.12 166.94 340.63 166.27 340.96 165.51 340.96 165.05 340.63 164.29 340.12 163.63 339.72 163.37 
M 343.27 121.69 343.84 121.43 
M 343.27 127.4 343.81 127.17 344.5 126.56 344.94 125.88 344.94 125.46 344.5 124.78 343.81 124.18 343.27 123.95 
M 343.28 139.51 343.82 139.26 344.51 138.61 344.95 137.88 344.95 137.43 344.51 136.7 343.82 136.06 343.28 135.81 
M 342.89 151.77 343.41 151.52 344.07 150.9 344.5 150.19 344.5 149.76 344.07 149.05 343.41 148.42 342.89 148.18 
M 341.65 163.71 342.13 163.46 342.74 162.81 343.13 162.07 343.13 161.61 342.74 160.88 342.13 160.23 341.65 159.97 
M 341.41 170.12 341.89 169.86 342.49 169.19 342.89 168.44 342.89 167.98 342.49 167.22 341.89 166.56 341.41 166.3 
M 345.33 124.47 345.77 124.24 346.34 123.65 346.7 122.98 346.7 122.57 
M 345.34 130.32 345.78 130.08 346.35 129.46 346.72 128.77 346.72 128.34 346.35 127.64 345.78 127.02 345.34 126.78 
M 345.35 136.4 345.8 136.15 346.38 135.51 346.75 134.79 346.75 134.34 346.38 133.62 345.8 132.98 345.35 132.73 
M 345.35 142.63 345.8 142.38 346.38 141.73 346.75 140.99 346.75 140.54 346.38 139.8 345.8 139.15 345.35 138.9 
M 345.23 148.81 345.66 148.56 346.22 147.93 346.58 147.22 346.58 146.78 346.22 146.06 345.66 145.43 345.23 145.19 
M 344.54 154.53 345.48 153.69 345.83 153.01 345.83 152.58 345.48 151.9 344.54 151.06 
M 343.32 166.66 343.72 166.4 344.22 165.74 344.54 164.99 344.54 164.52 344.22 163.77 343.72 163.11 343.32 162.85 
M 347.36 127.35 347.89 127.12 348.57 126.51 349 125.83 349 125.41 348.57 124.72 347.89 124.12 347.36 123.89 
M 347.39 133.33 347.92 133.09 348.6 132.46 349.04 131.75 349.04 131.31 348.6 130.6 347.92 129.97 347.39 129.73 
M 347.4 139.49 347.94 139.24 348.62 138.6 349.06 137.87 349.06 137.42 348.62 136.69 347.94 136.05 347.4 135.8 
M 347.3 145.64 347.82 145.39 348.49 144.76 348.92 144.04 348.92 143.6 348.49 142.88 347.82 142.25 347.3 142 
M 346.79 151.49 347.29 151.25 347.94 150.64 348.35 149.95 348.35 149.53 347.94 148.84 347.29 148.23 346.79 147.99 
M 349.37 124.38 350.04 123.9 
M 349.39 130.25 349.83 130 350.39 129.39 350.76 128.69 350.76 128.25 350.39 127.55 349.83 126.93 349.39 126.69 
M 349.46 136.37 349.9 136.12 350.47 135.48 350.83 134.76 350.83 134.31 350.47 133.58 349.9 132.94 349.46 132.69 
M 349.45 142.56 349.89 142.31 350.45 141.67 350.81 140.95 350.81 140.5 350.45 139.77 349.89 139.13 349.45 138.88 
M 349.16 148.55 349.58 148.31 350.12 147.7 350.47 147.01 350.47 146.58 350.12 145.89 349.58 145.27 349.16 145.04 
M 348.25 154.06 349.16 153.24 349.49 152.58 349.49 152.16 349.16 151.5 348.25 150.69 
M 351.39 127.25 351.92 127.02 352.59 126.41 353.02 125.73 353.02 125.31 352.83 125.01 
M 351.43 133.25 351.96 133 352.63 132.37 353.06 131.66 353.06 131.22 352.63 130.51 351.96 129.88 351.43 129.63 
M 351.45 139.38 351.97 139.14 352.64 138.5 353.07 137.78 353.07 137.33 352.64 136.61 351.97 135.97 351.45 135.73 
M 351.24 145.41 351.75 145.17 352.4 144.55 352.82 143.85 352.82 143.41 352.4 142.71 351.75 142.09 351.24 141.85 
M 350.54 151.05 351.02 150.82 351.64 150.23 352.04 149.56 352.04 149.15 351.64 148.48 351.02 147.89 350.54 147.66 
M 349.43 156.49 349.89 156.26 350.49 155.66 350.87 154.98 350.87 154.56 350.49 153.89 349.89 153.29 349.43 153.06 
M 348.68 162.45 349.13 162.2 349.71 161.56 350.08 160.83 350.08 160.38 349.71 159.66 349.13 159.02 348.68 158.77 
M 353.41 130.12 353.84 129.88 354.4 129.26 354.76 128.56 354.76 128.13 354.4 127.43 353.84 126.81 353.41 126.57 
M 353.47 136.24 353.9 135.99 354.46 135.36 354.81 134.63 354.81 134.19 354.46 133.47 353.9 132.83 353.47 132.58 
M 353.42 142.36 353.84 142.12 354.38 141.49 354.73 140.77 354.73 140.33 354.38 139.62 353.84 138.99 353.42 138.74 
M 352.95 148.16 353.88 147.33 354.22 146.66 354.22 146.25 353.88 145.57 352.95 144.75 
M 351.8 153.43 352.68 152.64 353 151.99 353 151.59 352.68 150.95 351.8 150.15 
M 355.4 127.12 356.46 126.39 
M 355.38 139.15 355.89 138.91 356.53 138.28 356.95 137.57 356.95 137.13 356.53 136.42 355.89 135.79 355.38 135.54 
M 355.05 145.04 355.55 144.81 356.18 144.2 356.58 143.52 356.58 143.09 356.18 142.41 355.55 141.8 355.05 141.57 
M 354.15 150.48 354.62 150.26 355.23 149.68 355.62 149.03 355.62 148.63 355.23 147.98 354.62 147.4 354.15 147.18 
M 352.84 155.73 353.29 155.5 353.87 154.92 354.25 154.26 354.25 153.85 353.87 153.18 353.29 152.6 352.84 152.37 
M 351.99 161.63 352.44 161.38 353 160.74 353.37 160.01 353.37 159.57 353 158.84 352.44 158.2 351.99 157.95 
M 357.38 129.95 357.81 129.71 358.36 129.09 358.71 128.4 358.71 127.97 358.14 127.03 
M 357.39 136 357.81 135.75 358.35 135.12 358.7 134.41 358.7 133.97 358.35 133.26 357.81 132.63 357.39 132.38 
M 357.24 142.01 358.17 141.15 358.51 140.45 358.51 140.02 358.17 139.32 357.24 138.46 
M 356.61 147.64 357.52 146.84 357.85 146.18 357.85 145.78 357.52 145.12 356.61 144.32 
M 355.24 152.69 356.11 151.92 356.42 151.29 356.42 150.9 356.11 150.27 355.24 149.5 
M 353.8 157.97 354.64 157.12 354.94 156.44 354.94 156.01 354.64 155.33 353.8 154.49 
M 359.31 132.82 359.81 132.58 360.46 131.96 360.87 131.26 360.87 130.83 360.46 130.13 359.81 129.51 359.31 129.27 
M 359.19 138.8 359.68 138.56 360.31 137.94 360.72 137.24 360.72 136.8 360.31 136.1 359.68 135.49 359.19 135.25 
M 358.74 144.56 359.22 144.33 359.84 143.74 360.23 143.07 360.23 142.65 359.84 141.98 359.22 141.39 358.74 141.16 
M 357.67 149.83 358.73 149.05 359.12 148.41 359.12 148.02 358.73 147.39 357.67 146.61 
M 356.19 154.93 357.22 154.13 357.6 153.47 357.6 153.07 357.22 152.42 356.19 151.61 
M 355.27 160.78 355.72 160.53 356.29 159.89 356.66 159.16 356.66 158.71 356.29 157.98 355.72 157.34 355.27 157.09 
M 361.27 129.68 361.69 129.44 362.32 128.63 
M 361.19 135.64 362.13 134.78 362.47 134.08 362.47 133.64 362.13 132.94 361.19 132.08 
M 360.93 141.54 361.84 140.69 362.17 140.01 362.17 139.58 361.84 138.9 360.93 138.05 
M 360.19 147.05 361.08 146.26 361.41 145.62 361.41 145.22 361.08 144.58 360.19 143.79 
M 358.65 151.94 359.52 151.18 359.84 150.56 359.84 150.18 359.52 149.57 358.65 148.81 
M 357.09 157.11 357.94 156.28 358.25 155.6 358.25 155.17 357.94 154.49 357.09 153.66 
M 363.08 132.44 363.57 132.2 364.18 131.59 364.58 130.9 364.58 130.47 364.18 129.78 363.57 129.17 363.12 128.95 
M 362.89 138.34 363.36 138.1 363.97 137.49 364.37 136.8 364.37 136.37 363.97 135.68 363.36 135.07 362.89 134.83 
M 361.18 149.18 362.24 148.41 362.62 147.79 362.62 147.4 362.24 146.77 361.18 146 
M 359.6 154.19 360.65 153.39 361.03 152.74 361.03 152.34 360.65 151.7 359.6 150.9 
M 358.64 160.03 359.1 159.78 359.69 159.13 360.07 158.4 360.07 157.95 359.69 157.21 359.1 156.57 358.64 156.32 
M 358.65 166.84 359.12 166.56 359.73 165.85 360.12 165.04 360.12 164.54 359.73 163.73 359.12 163.01 358.65 162.73 
M 364.87 135.17 365.76 134.32 366.09 133.62 366.09 133.19 365.76 132.49 364.87 131.64 
M 364.55 141.01 365.43 140.17 365.75 139.49 365.75 139.07 365.43 138.39 364.55 137.55 
M 362.13 151.28 363.01 150.53 363.33 149.91 363.33 149.54 363.01 148.92 362.13 148.17 
M 360.53 156.42 361.42 155.58 361.74 154.9 361.74 154.48 361.42 153.8 360.53 152.97 
M 366.64 131.85 367.09 131.61 367.8 130.76 
M 366.4 137.71 366.85 137.47 367.42 136.87 367.79 136.18 367.79 135.76 367.42 135.07 366.85 134.46 366.4 134.23 
M 365.83 143.35 366.84 142.54 367.21 141.89 367.21 141.48 366.84 140.82 365.83 140.01 
M 364.65 148.52 365.68 147.75 366.05 147.12 366.05 146.73 365.68 146.11 364.65 145.33 
M 362.31 166.41 362.8 166.12 363.43 165.39 363.84 164.57 363.84 164.05 363.43 163.23 362.8 162.5 362.31 162.21 
M 367.92 140.24 368.73 139.41 369.02 138.73 369.02 138.31 368.73 137.63 367.92 136.8 
M 367.11 145.7 367.92 144.91 368.21 144.27 368.21 143.88 367.92 143.24 367.11 142.45 
M 365.6 150.65 366.46 149.88 366.77 149.26 366.77 148.87 366.46 148.25 365.6 147.48 
M 364.47 169.91 364.89 169.61 365.43 168.84 365.79 167.97 365.79 167.43 365.43 166.56 364.89 165.8 364.47 165.5 
M 368.91 142.32 369.85 141.5 370.19 140.84 370.19 140.43 369.85 139.77 368.91 138.95 
M 367.88 147.68 368.86 146.88 369.22 146.23 369.22 145.83 368.86 145.18 367.88 144.38 
M 366.01 159.19 366.52 158.93 367.18 158.27 367.6 157.51 367.6 157.05 367.18 156.29 366.52 155.63 366.01 155.37 
M 370.7 138.89 371.46 138.06 371.73 137.39 371.73 136.97 371.46 136.3 370.7 135.47 
M 369.93 144.45 370.68 143.63 370.96 142.97 370.96 142.56 370.68 141.9 369.93 141.09 
M 371.56 140.87 372.46 140.04 372.78 139.36 372.78 138.94 372.46 138.26 371.56 137.43 
M 370.85 146.63 371.27 146.39 371.8 145.78 372.15 145.08 372.15 144.65 371.8 143.96 371.27 143.34 370.85 143.1 
M 370 159.11 370.53 158.84 371.2 158.15 371.63 157.37 371.63 156.89 371.2 156.12 370.53 155.43 370 155.16 
M 372.45 142.95 373.2 142.09 373.48 141.39 373.48 140.95 373.2 140.25 372.45 139.39 
M 372.03 162.44 372.47 162.16 373.05 161.45 373.42 160.64 373.42 160.14 373.05 159.33 372.47 158.62 372.03 158.34 
M 374.76 133.64 375 133.51 
M 374.13 139.37 375.06 138.51 375.39 137.81 375.39 137.38 375.06 136.68 374.13 135.83 
M 373.8 145.61 374.23 145.35 374.78 144.68 375.14 143.93 375.14 143.46 374.78 142.71 374.23 142.04 373.8 141.78 
M 373.91 152.32 374.39 152.05 375.01 151.35 375.41 150.56 375.41 150.07 375.01 149.28 374.39 148.59 373.91 148.31 
M 375.75 135.68 376.55 134.85 376.83 134.2 
M 375.17 141.65 375.98 140.74 376.27 139.99 376.27 139.53 375.98 138.79 375.17 137.87 
M 377.06 144.84 377.53 144.57 378.36 143.39 
M 378.36 142.25 377.53 141.08 377.06 140.8 
M 199.49 108.71 200.96 108.64 
M 211.18 105.17 210.9 55.79 211.71 55.77 214.09 104.69 
M 222.96 101.86 226.14 40.4 226.96 40.43 225.89 101.55 
M 234.98 99.53 245.23 30 246.03 30.1 237.93 99.52 
M 247.16 98.35 263.36 30.77 264.16 30.95 250.1 98.62 
M 259.39 98.06 278.17 37.64 278.95 37.87 262.33 98.43 
M 271.65 98.27 300.38 32.41 301.13 32.73 274.5 99.01 
M 283.71 100.46 317.98 44.45 318.68 44.86 286.42 101.62 
M 295.46 103.86 321.81 66.93 322.48 67.38 298.11 105.15 
M 307.1 107.56 326.87 80.94 327.54 81.4 309.75 108.86 
M 317.48 110.75 318.69 111.59 
M 201.51 108.48 204.6 98.18 206 92.93 208.3 82.32 209.85 71.57 210.93 60.73 
M 211.95 60.7 215.78 58.29 217.58 56.97 220.8 53.96 223.49 50.42 225.83 46.55 
M 226.85 46.58 231.21 45.36 235.34 43.7 239.1 41.39 240.85 40 244.2 36.95 
M 245.22 37.08 248.86 38.23 252.52 38.88 256.2 38.79 258.04 38.47 261.74 37.53 
M 262.74 37.75 265.33 40.03 268.12 41.86 271.21 43 272.86 43.33 276.29 43.69 
M 277.27 43.97 282.02 43.88 286.65 43.32 291.1 42.02 293.26 41.12 297.51 39 
M 298.45 39.39 301.45 42.63 303.04 44.12 306.51 46.65 310.4 48.56 314.55 50.05 
M 315.43 50.57 315.24 55.22 315.52 59.78 316.54 64.2 317.32 66.36 319.18 70.62 
M 320.02 71.2 320.13 74.34 320.7 77.29 321.96 79.98 322.84 81.23 324.9 83.6 
M 325.74 84.18 323.07 89.93 320.87 95.81 319.4 101.88 318.92 104.99 318.26 111.29 
M 213.89 59.52 217.58 56.97 220.8 53.96 222.21 52.25 224.68 48.51 
M 214.43 64.65 217.69 62.4 219.18 61.13 221.78 58.23 223.96 54.93 
M 214.98 69.78 217.81 67.83 219.09 66.73 221.35 64.21 223.25 61.35 
M 215.52 74.92 219.01 72.33 220.92 70.2 222.53 67.76 
M 216.06 80.05 218.92 77.93 220.49 76.18 221.81 74.18 
M 216.6 85.19 218.14 84.13 219.48 82.87 221.1 80.6 
M 229.05 46 233.32 44.6 235.34 43.7 239.1 41.39 242.54 38.51 
M 229.19 51.48 233.03 50.23 236.58 48.45 238.23 47.33 241.33 44.74 
M 229.32 56.96 232.74 55.85 235.9 54.27 237.37 53.28 240.12 50.97 
M 229.46 62.44 232.45 61.47 233.87 60.84 236.5 59.22 238.91 57.2 
M 229.6 67.93 233.37 66.55 235.63 65.16 237.7 63.43 
M 229.74 73.41 232.88 72.26 234.76 71.1 236.49 69.66 
M 229.88 78.89 232.39 77.97 233.9 77.05 235.27 75.89 
M 247.04 37.69 250.69 38.64 254.36 38.93 256.2 38.79 259.89 38.03 
M 246.64 43.07 249.97 43.94 251.64 44.16 255 44.07 258.37 43.38 
M 246.25 48.45 249.26 49.24 250.77 49.44 253.8 49.36 256.85 48.74 
M 245.85 53.83 248.54 54.53 251.25 54.75 252.6 54.64 255.33 54.09 
M 245.45 59.22 247.83 59.83 250.21 60.02 253.81 59.44 
M 245.06 64.6 248.14 65.27 250.21 65.21 252.29 64.79 
M 244.66 69.98 247.26 70.55 249.01 70.5 250.77 70.14 
M 244.27 75.36 245.68 75.73 247.1 75.84 249.25 75.49 
M 264.02 38.92 266.69 41.02 268.12 41.86 271.21 43 274.56 43.54 
M 263.09 44.88 265.49 46.77 268.13 48.12 269.56 48.56 272.57 49.04 
M 262.16 50.85 264.29 52.53 266.64 53.73 267.91 54.11 270.59 54.54 
M 261.23 56.81 263.09 58.28 264.09 58.87 266.25 59.67 268.6 60.05 
M 260.29 62.78 261.89 64.04 263.65 64.94 266.61 65.55 
M 259.36 68.74 260.69 69.79 262.16 70.54 264.63 71.05 
M 258.43 74.71 260.06 75.88 261.3 76.34 262.64 76.56 
M 279.65 43.96 284.36 43.68 286.65 43.32 291.1 42.02 295.39 40.09 
M 278.38 49.43 282.61 49.18 284.67 48.85 288.68 47.69 292.54 45.95 
M 277.1 54.9 280.86 54.68 282.7 54.39 286.26 53.35 289.69 51.8 
M 275.83 60.37 279.12 60.17 282.3 59.53 283.84 59.01 286.84 57.66 
M 274.55 65.84 278.75 65.45 281.42 64.68 284 63.51 
M 273.28 71.31 276.77 70.99 279 70.34 281.15 69.37 
M 272 76.78 274.8 76.52 276.58 76 278.3 75.23 
M 299.94 41.04 303.04 44.12 306.51 46.65 308.41 47.67 312.46 49.33 
M 298.1 46.2 300.94 49.01 302.47 50.24 305.83 52.25 309.53 53.77 
M 296.27 51.36 298.83 53.9 300.22 55.01 303.26 56.83 306.6 58.2 
M 294.44 56.52 296.73 58.79 297.97 59.79 300.68 61.41 303.67 62.64 
M 292.6 61.68 295.72 64.56 298.11 65.99 300.74 67.07 
M 290.77 66.84 292.52 68.58 294.47 70 297.81 71.51 
M 288.94 72 291.21 74.11 292.96 75.15 294.88 75.94 
M 287.1 77.16 288.96 78.88 290.39 79.73 291.95 80.38 
M 315.3 52.9 315.3 57.51 315.52 59.78 316.54 64.2 318.21 68.5 
M 311.88 59.91 311.87 63.87 312.42 67.74 312.94 69.62 314.38 73.32 
M 308.45 66.91 308.44 70.23 308.61 71.86 309.34 75.05 310.54 78.14 
M 305.02 73.92 305.15 77.91 305.74 80.47 306.71 82.96 
M 301.59 80.93 301.69 83.95 302.14 85.89 302.87 87.79 
M 320.05 72.78 320.34 75.85 320.7 77.29 321.96 79.98 323.84 82.42 
M 316.97 78.69 317.21 81.22 317.51 82.41 318.55 84.63 320.1 86.64 
M 313.9 84.6 314.32 87.53 315.14 89.28 316.36 90.87 
M 310.83 90.5 311.14 92.65 311.74 93.93 312.63 95.09 
M 176.03 160.55 178.74 160.61 181.5 160.15 184.83 160.27 189.29 158.81 191.67 158.23 194.01 156.74 196.22 155.8 216.2 150.96 220.51 157.69 222.54 160.45 222.73 163.13 222.08 165.83 221.76 168.53 223.34 174.06 224.94 177.96 223.39 179.77 219.43 181.75 214.48 182.97 211.68 183.36 209.39 184.47 196.02 183.19 194.42 182.94 186.08 179.26 184.03 176.88 181.1 175.29 178.5 173.6 175.73 171.48 
M 178.71 161.59 184.49 161.25 186.57 160.81 194.01 158.82 196.43 157.89 200 156.88 202.54 157.19 206.1 157.13 208.56 156.67 210.59 155.57 212.56 153.98 215.39 152.79 
M 181.49 163.24 186.46 162.95 192.08 161.94 194.83 161.93 197.04 161.66 200.03 160.51 
M 184.24 165.17 187.1 164.74 192.84 164.45 197.87 164.5 200.19 163.97 208.51 163.64 209.79 162.52 213.89 162.4 217.37 161.64 
M 175.73 165.43 181.7 166.51 187.89 167.27 190.43 167.35 193.16 166.87 198.51 167.01 200.98 167.58 206.73 167.38 209.37 167.76 211.69 167.88 
M 184.9 168.88 190.88 169.54 192.78 169.16 195.94 169.25 198.93 169.8 
M 178.53 168.89 184.67 170.42 190.08 172.33 195.65 172.86 200.89 174.2 203.59 174.46 
M 183.89 172.27 186.43 174.21 188.99 175.18 192.26 175.64 195.31 176.72 198.63 177.26 202.65 178.59 205.94 178.18 208.74 178.67 
M 178.27 172.12 180.86 173.1 183.48 174.48 186.2 176.37 188.66 177.66 191.53 177.94 194.98 179.39 200.18 181.28 203.03 181.44 
M 202.16 190.84 227.2 228.64 226.53 229.11 199.75 192.52 
M 200.68 190.56 201.17 191.53 
M 205.84 200.83 225.09 239.19 224.37 239.57 198.09 191.93 
M 199.19 190.29 199.51 191.18 
M 202.9 200.65 220.6 250.04 219.84 250.33 196.45 191.32 
M 197.68 190.03 197.85 190.8 
M 199.99 200.25 213.67 260.78 212.88 260.97 194.83 190.71 
M 196.14 189.77 196.2 190.38 
M 197.14 199.7 204.3 270.96 203.49 271.05 193.23 190.1 
M 194.01 189.35 194 190.01 
M 193.88 195.23 191.98 280 191.17 279.99 191.08 189.32 
M 223.85 225.45 222.55 227.28 221.73 229.18 221.65 231.18 222.65 234.32 
M 221.74 234.8 220.02 236.51 218.77 238.38 218.22 240.51 218.46 244.06 
M 217.5 244.43 215.39 245.96 213.7 247.74 212.66 249.9 212.07 253.7 
M 211.07 253.94 208.59 255.24 207.47 255.99 205.64 257.84 204.37 260.18 203.48 262.84 
M 202.46 262.96 199.54 263.9 196.91 265.23 194.75 267.16 193.83 268.33 192.18 270.93 
M 223.17 226.36 222.05 228.22 221.73 229.18 221.65 231.18 222.23 233.26 
M 219.95 221.48 218.99 223.07 218.71 223.9 218.64 225.62 219.14 227.41 
M 216.73 216.59 215.93 217.93 215.6 219.33 215.64 220.06 216.05 221.56 
M 213.51 211.7 212.67 213.34 212.63 214.5 212.96 215.71 
M 210.29 206.82 209.66 208.06 209.62 208.94 209.88 209.85 
M 220.85 235.65 219.32 237.42 218.77 238.38 218.22 240.51 218.3 242.85 
M 218.25 230.44 216.9 232.01 216.42 232.86 215.93 234.73 216 236.8 
M 215.66 225.23 214.48 226.59 214.06 227.33 213.65 228.96 213.7 230.76 
M 213.06 220.03 211.71 221.81 211.36 223.19 211.41 224.71 
M 210.47 214.82 209.65 215.77 209.17 216.83 209.11 218.66 
M 207.87 209.62 207.01 210.76 206.78 211.64 206.81 212.62 
M 216.42 245.18 214.47 246.81 213.7 247.74 212.66 249.9 212.19 252.39 
M 214.48 239.72 212.73 241.18 212.04 242.02 211.1 243.97 210.68 246.21 
M 212.54 234.26 210.99 235.56 209.89 237.13 209.54 238.04 209.16 240.03 
M 210.6 228.8 209.24 229.94 208.28 231.31 207.98 232.1 207.65 233.85 
M 208.66 223.34 207.5 224.32 206.67 225.5 206.13 227.67 
M 206.73 217.88 205.37 219.16 204.85 220.24 204.62 221.49 
M 204.79 212.42 203.7 213.45 203.29 214.31 203.1 215.31 
M 209.81 254.57 207.47 255.99 205.64 257.84 204.94 258.96 203.9 261.49 
M 208.55 248.93 206.42 250.23 204.75 251.92 204.11 252.94 203.16 255.25 
M 207.3 243.3 205.37 244.47 203.86 246 203.28 246.92 202.43 249.01 
M 206.04 237.66 204.32 238.71 202.97 240.07 202.45 240.9 201.69 242.76 
M 204.79 232.02 202.63 233.51 201.63 234.88 200.95 236.52 
M 203.53 226.39 202.22 227.19 201.19 228.23 200.21 230.28 
M 202.28 220.75 200.7 221.84 199.97 222.83 199.47 224.04 
M 201.02 215.11 200.12 215.66 199.41 216.38 198.74 217.79 
M 200.98 263.4 198.17 264.5 196.91 265.23 194.75 267.16 192.99 269.6 
M 200.46 258.24 197.85 259.26 196.68 259.94 194.67 261.73 193.03 264.01 
M 199.95 253.07 197.53 254.02 196.45 254.65 194.59 256.31 193.07 258.41 
M 199.43 247.91 197.22 248.78 196.22 249.36 194.51 250.88 193.12 252.81 
M 198.92 242.75 196.9 243.54 195.99 244.07 194.43 245.45 193.16 247.21 
M 198.4 237.58 195.76 238.77 194.35 240.03 193.21 241.62 
M 197.89 232.42 195.53 233.48 194.27 234.6 193.25 236.02 
M 197.37 227.26 195.3 228.19 194.19 229.17 193.29 230.42 
M 196.86 222.09 195.07 222.9 194.11 223.75 193.34 224.82 
M 196.34 216.93 194.84 217.61 194.03 218.32 193.38 219.22 
M 336.63 185.35 341.55 192.94 340.92 193.46 334.38 187.22 
M 325.04 189.18 343.32 212.67 342.7 213.19 322.8 191.06 
M 313.42 192.86 330.84 216.63 330.21 217.13 311.12 194.68 
M 301.59 195.77 316.25 217.69 315.6 218.17 299.22 197.49 
M 294.65 197.17 299.04 205.07 298.38 205.55 292.27 198.88 
M 340.26 192.83 339.49 196.79 339.27 198.76 339.35 202.66 340.18 206.51 341.49 210.32 
M 340.71 210.98 337.85 210.7 336.46 210.71 333.83 211.26 331.4 212.52 329.1 214.25 
M 328.3 214.89 325.25 213.98 322.22 213.56 319.23 213.89 317.74 214.32 314.79 215.5 
M 313.96 216.1 311.18 212.64 308.11 209.58 304.58 207.1 302.65 206.08 298.6 204.28 
M 339.85 194.82 339.27 198.76 339.35 202.66 339.68 204.59 340.8 208.42 
M 339.27 210.81 336.46 210.71 335.12 210.89 332.59 211.8 330.24 213.35 
M 334.33 206.41 332.17 206.34 330.15 206.75 329.21 207.17 327.41 208.36 
M 329.39 202.01 327.89 201.96 326.48 202.25 324.57 203.36 
M 326.77 214.4 323.73 213.68 322.22 213.56 319.23 213.89 316.26 214.87 
M 322 209.92 319.67 209.37 318.51 209.27 316.22 209.53 313.95 210.28 
M 317.23 205.44 314.81 204.99 313.21 205.17 311.63 205.69 
M 312.59 214.35 309.7 211.04 308.11 209.58 304.58 207.1 300.65 205.15 
M 377.55 134.48 380.25 133.99 382.38 133.15 387.08 130.29 389.61 129.04 392.57 128.12 394.33 127.4 395.75 125.97 397.89 124.77 399.86 123.02 403.99 119.76 406.5 119.08 409.08 117.97 410.83 116.98 412.55 115.53 415.77 114.34 418.63 112.55 423.52 109.9 425.2 108.67 426.45 107.06 416.73 118.73 414.88 120.32 413.67 122.55 413.33 125.49 412.27 127.47 411.49 129.84 410.51 132 409.82 134.22 408.94 136.24 408.92 139.03 409.29 146.32 408.64 148.73 408.63 156.05 406.96 157.54 405.97 159.67 405.74 164.09 406.93 166.4 410.53 171.29 410.8 173.78 410.61 176.21 412.16 181.62 413.59 184.29 415 188.29 414.66 189.28 414.9 190.23 425.84 202.83 423.24 201.81 422.14 200.63 421.06 198.89 416.51 196.9 414.99 194.66 413.16 193.41 411.5 191.57 409.6 190.1 404.41 187.47 402.71 185.56 400.08 184.17 397.68 182.64 396.14 180.99 394.4 178.58 392.34 177.47 389.6 176.31 384.55 173.82 382.32 172.43 380.37 170.38 377.55 167.85 
M 382.64 135.05 390.59 131.79 393.41 131.14 397.18 129.46 399.68 128.54 401.55 126.97 403.81 125.65 405.89 124.04 408.23 122.95 410.93 121.92 412.34 120.42 
M 385.47 136.56 390.27 134.45 397.95 132.13 
M 380.67 139.38 388.17 137.94 390.37 136.66 392.78 135.84 395.59 134.63 399.81 133.98 402.74 132.81 405.08 130.8 407.58 129.17 410.85 127.34 
M 386.31 140.18 391.04 139.09 395.7 137.14 399.83 136.59 402.6 135.24 405.26 134.39 
M 383.42 142.13 385.98 142.16 391.72 141.32 394.28 140.75 
M 383.39 144.15 388.77 143.64 392.13 143.6 394.67 143.13 397.42 143.49 399.9 144.04 402.38 144.03 
M 383.51 146.52 386.15 146.21 392.07 146.04 395.35 145.33 
M 383.04 148.99 386.57 148.69 392.44 149.02 395.33 148.21 
M 383.01 151.08 386.64 151.17 390.14 151.55 396.26 151.51 398.23 151.21 401.48 151.2 
M 383.01 153.3 386.64 153.27 393.57 154.1 
M 380.9 154.44 383.53 155.33 393.09 155.5 398.3 157.64 401.23 157.4 
M 377.55 154.5 380.93 156.15 383.95 156.95 389.35 157.21 392.72 157.56 395.29 158.58 397.35 159.88 
M 383.81 158.92 386.9 159.54 392.07 160.21 394.65 160.93 397.19 161.83 399.12 162.74 401.87 163.6 
M 380.82 159.71 383.55 161.04 389.38 162.2 392.46 162.6 394.83 163.5 396.46 165.15 398.81 166.03 401.26 166.28 404.32 167.1 
M 377.55 159.5 383.59 162.87 386.61 163.4 389.15 164.12 393.97 166.16 395.83 167.49 401.85 169.16 403.67 170.47 407.33 171.41 
M 386.28 165.53 388.65 166.38 390.5 167.29 392.81 168 398.68 170.95 401.14 172.66 403.21 173.3 
M 383.83 166.58 388.21 168.67 392.85 170.23 397.62 173.14 402.14 175.65 
M 385.91 169.77 393.24 172.57 397.24 175.24 399.06 177.03 403.28 179.91 
M 377.55 166.18 383.09 170.64 385.25 171.67 388.03 172.37 393.35 175.13 395.19 176.29 398.21 179.81 400.53 181.04 405.23 184.35 407.95 185.28 
M 367.14 169.78 364.49 171.46 363.39 172.66 362.01 175.59 360.67 176.49 357.67 175.72 356.09 175.66 353.16 177.04 351.18 179.6 350.37 181.05 348.8 181.01 345.54 180.39 344.23 181.18 342.68 181.76 343.91 183 
M 97.36 159.86 99.95 156.76 104.75 150.04 108.81 146.8 118.71 141.54 123.23 138.83 128.29 135.51 134.04 132.32 147.06 126.62 153.39 124.33 164.88 120.54 175.7 117.9 178.07 121.46 178.77 124.85 180.79 131.71 181.5 135.1 181.64 138.41 181.37 144.96 180.34 148.11 179.64 151.31 178.7 154.47 175.97 160.69 175.4 163.9 173.63 170.24 172.31 173.35 170.37 176.38 167.33 179.18 156.88 178.7 149.23 178.02 136.32 176.34 125.51 174.44 120.59 173.36 111.67 170.85 
M 160.27 142.78 159.91 145.6 157.18 150.81 155.53 153.07 153.62 154.99 152.12 156.77 151.43 160.32 151.51 165.67 150.74 167.77 129.3 167.1 120.32 166.28 116.11 165.42 
M 110.17 170.9 100.33 166.58 94.63 163.83 93.54 162.07 94.19 160.05 96.12 159.34 97.95 160.11 101.02 162.66 104.5 165.09 111.76 170.67 
M 111.68 171.43 104.23 174.81 96.42 177.44 94.4 176.9 93.6 175.07 94.41 173.23 96.37 172.65 106.76 171.51 111.47 170.64 
M 129.23 149.56 128.56 147.01 128.75 144.37 129.79 141.94 131.56 139.98 133.87 138.7 136.47 138.24 139.08 138.65 141.42 139.88 143.23 141.81 144.32 144.22 144.56 146.85 143.94 149.42 142.51 151.64 140.44 153.29 137.95 154.17 135.31 154.19 132.8 153.36 130.7 151.76 129.23 149.56 
M 129.14 149.34 128.61 147.42 128.57 145.44 129.02 143.5 129.42 142.59 130.54 140.95 132.03 139.64 133.79 138.73 134.74 138.44 136.72 138.24 137.71 138.32 139.63 138.85 
M 130.64 148.71 130.16 146.4 130.32 144.82 130.61 143.9 
M 132.37 141.42 134.35 140.26 135.89 139.9 137.48 139.93 139 140.35 
M 133.63 147.58 133.36 146.56 133.45 145.46 
M 134.46 143.85 135.48 143.24 136.52 143.05 137.57 143.22 138.5 143.71 139.22 144.48 139.66 145.44 139.76 146.5 139.51 147.52 138.94 148.42 138.11 149.07 137.11 149.43 136.06 149.44 135.05 149.1 134.21 148.46 133.63 147.58 
M 134.95 143.53 134.67 144.09 
M 133.89 145.65 133.38 146.66 
M 136.4 143.08 135.4 145.06 
M 135.01 145.85 133.92 148.03 
M 137.55 143.21 136.13 146.05 
M 136.13 146.05 134.73 148.85 
M 138.51 143.72 135.71 149.32 
M 139.29 144.62 136.88 149.43 
M 139.73 146.18 138.39 148.85 
M 99.21 157.64 103.63 162.06 
M 101.31 154.86 104.48 158.03 
M 103.34 152.01 105.79 154.46 
M 105.59 149.37 108.98 152.76 
M 108.3 147.21 111.06 149.96 
M 111.38 145.4 115.42 149.44 
M 114.55 143.69 117.68 146.82 
M 117.77 142.03 121.47 145.72 
M 120.88 140.25 123.6 142.97 
M 123.9 138.39 126.45 140.94 
M 126.85 136.46 130.99 140.6 
M 129.9 134.62 132.89 137.61 
M 133.04 132.88 137.76 137.6 
M 136.34 131.3 140.22 135.18 
M 139.72 129.79 143.01 133.09 
M 143.12 128.31 147.58 132.77 
M 146.54 126.85 150.03 130.33 
M 150.1 125.52 153.39 128.82 
M 153.68 124.23 156.35 126.9 
M 157.32 122.98 161.62 127.28 
M 160.99 121.77 165.18 125.96 
M 164.7 120.6 168.83 124.72 
M 168.6 119.61 173.26 124.27 
M 172.52 118.65 175.06 121.19 
M 108.65 166.22 108.06 164.7 108.21 163.78 109.03 162.53 110.11 161.62 
M 102.23 161.03 104.11 158.99 107.9 155.71 111.56 154.24 112.35 153.3 
M 148.98 174.46 149.36 173.89 149.8 172.6 150.08 171.38 150.03 170.19 148.83 167.94 148.09 165.87 147.76 165.21 147.26 164.66 
M 124.97 137.69 124.98 139.48 
M 125.03 148.5 125.46 145.75 125.28 145.4 124.63 144.87 123.47 144.75 
M 162.07 159.96 162.72 157.91 163.84 156.78 164.36 156.59 165.2 156.65 165.49 157.01 165.28 157.58 
M 142.76 151.36 143.7 152.36 144.06 153.2 144.04 153.66 143.45 154.6 142.47 155.17 141.98 155.18 
M 166.73 143.83 165.41 144.92 164.57 146.09 164.42 146.84 164.55 147.87 165.23 148.97 
M 179.87 132.38 175.68 129.64 174.93 128.96 173.38 127.02 172.21 126.52 171.09 126.49 
M 173.15 148.04 170.89 147.88 169.66 147.63 167.64 147.59 166.71 147.77 165.61 148.29 
M 108.35 157.07 108.79 156.49 109.4 156.08 111.66 155.12 112.09 154.75 112.8 153.58 113.12 151.99 112.92 149.99 112.66 148.99 112.23 148.12 
M 140.2 173.13 140.44 173.11 140.44 172.89 
M 167.22 170.04 165.37 170.49 164.96 170.36 165.07 170.09 
M 163.03 122.95 161.71 125.37 160.42 127.29 159.98 127.78 158.05 128.87 
M 172.99 165.4 171.17 164.55 170.79 164.23 169.91 162.49 169.47 161.96 168.63 161.6 167.24 161.37 
M 137.39 171.53 134.7 171.93 
M 176.48 159.56 174.99 159.66 172.86 160.86 171.43 161.31 167.76 161.15 
M 127.47 168.06 128.06 166.61 128.58 164.17 128.59 163.42 127.7 161.43 
M 168.33 145.08 166.56 146 165.22 147.41 164.94 148.21 165.43 149.26 
M 127.11 146.54 126.54 146.28 125.47 145.14 124.61 144.63 123.67 144.59 123.14 144.91 
M 160.51 141.65 159.79 142.72 159.33 143.76 159.37 144.33 160.13 146.21 
M 163.45 170.9 164.14 170.32 165.1 170.08 
M 114.49 159.93 115.28 159.68 116.34 159.79 117.08 160.5 117.43 161.1 117.39 161.37 
M 126.37 151.81 125.12 151.24 
M 125.63 170.5 127.11 169.98 128.2 168.62 128.94 164.31 128.9 163.51 128.13 162.32 
M 142.68 151.39 143.74 152.5 
M 176.93 158.52 175.97 158.4 174.98 158.56 171.82 160.38 171.16 160.58 168.84 160.84 
M 111.7 170.79 112.66 171.37 
M 107.3 169.68 107.43 170.16 107.62 169.83 
M 102.91 167.67 102.76 168.16 102.9 169.36 103.18 168.41 103.62 167.97 
M 98.67 165.78 98.26 166.83 98.37 168.57 98.68 167.08 99.45 166.16 
M 94.55 163.7 93.76 165.5 93.84 167.78 94.18 165.75 95.37 164.21 
M 111.58 171.05 112.75 170.75 
M 106.11 171.58 106.19 170.82 106.59 170.06 106.66 170.7 107.17 171.44 
M 100.76 172.25 100.65 170.63 101.21 169.18 101.13 170.51 101.87 172.12 
M 95.43 172.93 95.12 170.44 95.84 168.29 95.59 170.32 96.49 172.64 
M 101.45 175.76 106.22 176.41 109.41 176.58 112.6 176.52 119.03 175.78 125.51 174.44 
M 107.69 175.59 106.68 175.3 106.1 174.73 
M 119.95 174.98 120.11 174.52 
M 116.74 174.85 116.52 174.58 
M 178.59 124.01 182.25 127.67 
M 178.02 116.93 184.09 123 
M 182.66 115.06 189.3 121.69 
M 187.4 113.28 194.16 120.05 
M 192.18 111.55 199.55 118.92 
M 197.06 109.93 205.97 118.83 
M 201.98 108.34 207.91 114.27 
M 207.01 106.85 214.88 114.72 
M 212 105.34 221.51 114.84 
M 216.97 103.79 223.27 110.09 
M 222.16 102.47 227.37 107.68 
M 227.45 101.25 236.35 110.15 
M 232.97 100.26 240.58 107.87 
M 238.64 99.42 244.57 105.36 
M 244.51 98.78 252.43 106.7 
M 250.84 98.6 256.28 104.04 
M 257.27 98.52 262.34 103.6 
M 263.65 98.39 269.16 103.9 
M 270.28 98.51 278.96 107.19 
M 277.81 99.53 285.92 107.64 
M 286.4 101.61 291.78 106.99 
M 295.65 104.35 302.94 111.64 
M 305.25 107.44 313.83 116.02 
M 314.69 110.37 320.7 116.38 
M 324.44 113.61 332.04 121.21 
M 335.21 117.87 341.08 123.74 
M 346.24 122.39 354.72 130.87 
M 356.93 126.57 363.07 132.71 
M 367.53 130.66 375.33 138.46 
M 378.04 134.66 385.47 142.08 
M 201.27 108.55 201.31 108.62 
M 202.8 104.28 204.45 107.59 
M 204.16 99.68 207.35 106.07 
M 205.46 94.96 208.01 100.05 
M 206.68 90.07 209.22 95.16 
M 207.78 84.95 217.24 103.88 
M 208.74 79.55 220.46 103 
M 209.92 74.59 223.69 102.12 
M 217.88 83.18 219.34 86.09 
M 220.79 89.01 226.63 100.68 
M 210.83 61.76 217.75 75.59 
M 222.11 84.32 230.06 100.22 
M 216.04 64.85 221.14 75.04 
M 224.78 82.32 232.78 98.34 
M 220.25 65.95 224.62 74.69 
M 225.35 76.14 226.8 79.05 
M 228.26 81.96 235.54 96.52 
M 218.87 55.87 219.96 58.05 
M 225.79 69.7 226.51 71.15 
M 228.7 75.52 229.43 76.97 
M 230.15 78.43 240.62 99.36 
M 221.29 53.37 223.83 58.47 
M 224.56 59.92 226.02 62.83 
M 234.02 78.85 244.13 99.05 
M 223.48 50.44 231.85 67.18 
M 236.22 75.91 245.68 94.84 
M 247.2 97.88 247.64 98.75 
M 225.49 47.13 235.31 66.78 
M 242.59 81.34 248.42 92.98 
M 249.14 94.44 251.24 98.62 
M 228.64 46.11 239.19 67.22 
M 245.02 78.86 247.2 83.23 
M 250.84 90.51 254.87 98.57 
M 231.82 45.14 242.37 66.25 
M 246.74 74.98 251.11 83.72 
M 256.2 93.91 258.5 98.51 
M 234.87 43.91 238.14 50.46 
M 240.33 54.83 246.15 66.48 
M 249.06 72.3 254.88 83.95 
M 256.34 86.86 262.17 98.51 
M 237.73 42.32 241.73 50.32 
M 244.65 56.15 250.47 67.79 
M 253.38 73.62 258.48 83.81 
M 259.93 86.72 265.88 98.62 
M 240.41 40.35 245.87 51.27 
M 248.05 55.64 253.88 67.29 
M 256.06 71.65 269.6 98.73 
M 242.96 38.12 249.14 50.49 
M 251.33 54.86 254.24 60.68 
M 257.15 66.51 273.35 98.9 
M 246.28 37.43 249.55 43.99 
M 254.65 54.18 256.83 58.54 
M 259.74 64.37 261.2 67.28 
M 264.11 73.1 277.41 99.71 
M 250.52 38.6 252.34 42.24 
M 256.71 50.98 260.35 58.25 
M 262.53 62.62 265.44 68.44 
M 266.17 69.9 274.18 85.91 
M 275.63 88.82 281.48 100.51 
M 254.35 38.93 256.17 42.57 
M 258.35 46.94 272.91 76.05 
M 275.09 80.42 275.82 81.87 
M 278 86.24 282.37 94.98 
M 283.1 96.43 285.57 101.38 
M 257.8 38.51 259.62 42.15 
M 261.8 46.52 277.82 78.55 
M 278.55 80 282.18 87.28 
M 285.82 94.56 289.88 102.66 
M 261.06 37.71 285.45 86.48 
M 286.9 89.39 294.18 103.94 
M 266.2 40.66 296.4 101.07 
M 298 104.26 298.5 105.27 
M 271 42.93 299.02 98.98 
M 301.93 104.8 302.86 106.66 
M 274.98 43.57 295 83.61 
M 297.18 87.97 301.55 96.71 
M 306.75 107.11 307.22 108.06 
M 278.84 43.97 279.93 46.15 
M 280.66 47.61 285.02 56.34 
M 285.75 57.8 298.85 84 
M 300.31 86.91 306.13 98.56 
M 309.04 104.38 311.21 108.71 
M 284.26 47.49 302.46 83.88 
M 304.64 88.25 311.19 101.35 
M 311.92 102.8 315.88 110.72 
M 288.45 48.53 304.46 80.56 
M 306.64 84.93 318.51 108.66 
M 292.45 49.22 306.28 76.88 
M 309.92 84.16 319.25 102.82 
M 293.36 43.72 295.55 48.09 
M 296.27 49.54 307.92 72.83 
M 308.65 74.29 309.37 75.74 
M 310.83 78.66 320.35 97.7 
M 295.25 40.16 321.77 93.2 
M 298.61 39.56 304.07 50.48 
M 304.8 51.94 305.52 53.39 
M 306.25 54.85 312.8 67.95 
M 315.71 73.77 323.41 89.17 
M 305.47 45.96 306.56 48.14 
M 309.47 53.97 315.29 65.61 
M 318.93 72.89 320.31 75.64 
M 323.5 82.01 325.17 85.37 
M 310.8 49.3 315.39 58.48 
M 314.96 50.29 315.4 51.18 
"/></svg>