<svg xmlns="http://www.w3.org/2000/svg" width="520" height="320"><rect x="0" y="0" width="520" height="320" fill="floralwhite"/><rect x="10" y="10" width="500" height="300" stroke="black" stroke-width="1" fill="none"/><path stroke="black" stroke-width="1" fill="none" stroke-linecap="round" stroke-linejoin="round" d="
M 124.46 108.89 134.5 106.86 154.57 104.72 174.64 101.61 184.67 100.47 194.7 99.88 214.77 99.51 234.83 99.76 244.86 99.48 254.9 99.5 264.93 100.21 274.96 101.18 295.03 103.49 305.06 105.3 345.19 113.86 355.22 117.01 365.25 121.55 375.29 132.25 
M 375.29 167.66 365.25 176.94 355.22 180.58 345.19 183.15 325.12 186.59 315.09 188.57 305.06 190.88 295.03 192.82 284.99 193.84 274.96 194.39 254.9 194.95 234.83 194.78 224.8 195.33 214.77 196.2 204.73 196.84 194.7 196.94 184.67 196.23 174.64 194.67 164.6 192.46 154.57 189.84 144.54 187.02 134.5 184.6 124.47 183.03 114.45 182.22 
M 371.64 141.1 362.58 137.1 335.6 131.2 326.84 129.59 
M 323.17 129.05 313.9 127.88 306.62 127.26 299.55 126.98 281.59 127.16 274.95 126.64 265.13 125.53 256.78 125.07 
M 253.56 124.94 248.88 124.91 242.75 125.14 226.63 126.9 215.28 127.94 
M 211.93 128.33 205.06 129.06 
M 201.59 129.27 198.14 129.37 
M 194.75 129.31 181.21 128.51 
M 177.63 128.46 174.02 128.49 
M 166.91 128.63 159.9 128.56 
M 156.4 128.39 149.26 127.86 
M 145.61 127.71 141.98 127.67 
M 138.45 127.66 135.07 127.73 
M 127.84 149.64 129.41 152.3 
M 129.49 143 131.26 146.24 134.33 151.2 
M 130.42 134.53 134.73 142.43 138.6 148.72 
M 128.37 120.52 136.19 134.8 140.7 142.51 143.71 147.25 
M 126.49 108.48 129.5 113.13 134.62 121.93 
M 136.71 125.49 146.9 142.61 149.03 145.94 
M 131.28 107.51 143.92 127.03 149.63 136.7 
M 151.95 140.75 154.17 144.41 
M 136.17 106.67 147.86 123.15 151.39 128.76 
M 153.62 132.73 155.82 136.83 
M 158.09 140.93 159.75 143.75 
M 141.4 106.08 149.04 115.94 154.1 123.03 156.41 126.85 165.15 142.8 
M 146.77 105.5 155.13 115.89 160.11 123.16 162.43 126.93 170.75 141.9 
M 152.17 104.96 158.44 112.59 163.65 119.59 168.47 126.88 171.82 132.75 
M 157.34 104.29 164.47 112.85 170.9 121.41 
M 173.38 124.99 175.76 128.74 
M 178.07 132.66 181.64 138.63 182.62 140.01 
M 214.1 183.31 217.36 186.34 
M 162.38 103.51 170.58 113.22 178.29 123.27 180.78 126.92 185.6 134.66 188.78 139.03 
M 167.37 102.74 171.56 107.5 179.22 116.85 184.21 123.69 189.14 131.07 190.54 132.92 
M 172.27 101.98 180.15 111.13 185.04 117.52 192.27 127.89 195.07 131.4 200.21 137.21 
M 220.29 168.45 224.41 173.63 
M 226.97 176.44 229.54 179.01 
M 177.08 101.33 181.19 105.9 186.07 111.96 195.33 124.9 198.04 128.21 202.58 133.18 
M 224.89 166.71 226.18 168.44 230.13 173.08 
M 235.43 178.35 237.99 180.65 
M 181.83 100.79 184.77 103.91 189.63 109.81 198.68 121.91 201.24 124.98 208.52 133.12 
M 211.5 136.81 214.33 140.75 
M 233.23 169.67 237.23 174.01 241.08 177.68 
M 247.78 184.12 249.73 186.1 
M 186.57 100.35 189.61 103.49 
M 192.06 106.26 202.3 118.87 210.02 127.7 214.34 133 
M 217.18 136.91 219.89 140.98 
M 224.66 148.72 229.88 157.44 232.29 160.97 236.22 166.14 
M 238.85 169.27 243.9 174.6 
M 252.45 183.78 254.33 185.88 
M 191.58 100.06 194.46 102.9 199.31 108.06 213.22 124.02 218.59 130.9 225.19 140.88 
M 227.47 144.62 229.56 148.15 
M 231.65 151.61 235.14 156.98 239.07 162.35 
M 246.63 171.42 249.02 174.02 
M 253.27 178.99 255.2 181.38 
M 196.91 99.82 205.22 107.88 214.18 117.73 217.74 122.01 
M 220.2 125.26 222.76 128.86 
M 225.36 132.68 229.01 138.44 235.31 148.98 241.69 158.22 
M 244.35 161.75 251.92 170.98 
M 254.16 173.72 256.21 176.35 
M 258.16 178.9 260.14 181.36 
M 264.47 185.92 266.75 187.97 
M 202.68 99.67 208.7 105.1 212.1 108.51 
M 214.32 110.85 219.87 117.16 227.05 126.66 231.82 134 236.88 142.86 
M 239.13 146.41 242.92 152.03 247.04 157.7 
M 249.82 161.27 252.5 164.64 
M 208.68 99.57 214.38 104.45 218.87 108.99 223.24 113.99 227.84 119.6 232.74 126.18 234.97 129.73 239.9 138.67 
M 242.03 142.27 245.59 147.85 248.26 151.74 251.13 155.57 258.18 164.41 
M 260.62 167.65 262.81 170.71 
M 273.67 184.13 277.29 187.46 279.77 189.41 
M 214.91 99.51 217.7 101.7 222.24 106.04 231.14 116.16 236.04 122.25 238.31 125.67 240.34 129.19 246.19 140.24 249.69 145.9 
M 255.28 153.56 258.3 157.27 
M 261.19 160.87 263.81 164.33 
M 266.12 167.65 268.24 170.79 
M 272.47 176.63 274.76 179.35 
M 221.46 99.61 223.26 101.08 225.46 103.21 236.74 115.65 239.19 118.57 241.52 121.8 243.66 125.27 248.5 134.54 
M 257.99 149.75 261.01 153.49 
M 264.01 157.2 268.08 162.65 272.5 169.43 275.81 173.99 
M 280.55 179.52 282.96 182.03 
M 227.58 99.69 230.65 102.76 242.16 115.24 244.54 118.21 247.87 123.3 
M 249.94 126.93 254.95 136.56 257.15 140.42 259.57 144.11 266.86 153.49 
M 269.68 157.26 272.2 160.96 
M 276.74 167.94 279.05 171.13 
M 281.44 174.11 283.88 176.89 
M 233.29 99.74 245.06 112.12 247.47 114.9 249.82 118 252.12 121.4 254.32 125.01 257.5 130.73 
M 259.64 134.62 263.1 140.39 272.82 153.61 
M 275.33 157.39 277.65 161.09 
M 279.93 164.65 283.51 169.63 289.54 176.6 
M 291.91 179.16 296.56 183.83 
M 238.82 99.65 248.01 108.99 252.83 114.61 257.63 121.33 259.98 124.95 263.36 130.71 
M 270.93 142.39 273.7 146.15 
M 276.34 149.94 278.77 153.73 
M 281.04 157.48 283.31 161.1 
M 285.62 164.5 287.98 167.6 
M 244.61 99.49 248.76 103.44 253.48 108.37 255.93 111.25 260.92 117.75 263.4 121.26 270.57 132.85 278.78 144.41 282.36 150 
M 291.23 163.66 293.53 166.6 
M 295.87 169.5 300.6 175.31 
M 251.05 99.49 254.31 102.61 256.68 105.13 261.65 111.03 266.59 117.79 275.25 131.08 
M 278.06 135 283.46 142.57 
M 285.81 146.2 288.03 149.77 
M 290.17 153.21 294.52 159.56 
M 296.76 162.57 299.05 165.6 
M 301.39 168.7 304.95 173.37 308.54 177.63 
M 257.67 99.7 262.42 104.9 268.46 112.84 
M 270.86 116.27 276.92 125.39 285.3 136.88 289.07 142.33 
M 291.34 145.82 297.87 155.62 
M 302.34 161.88 304.65 165.12 
M 263.9 100.13 270.34 108.25 282.63 125.37 286.88 130.96 
M 289.64 134.67 296.82 145.34 
M 301.29 151.97 303.53 155.21 
M 305.79 158.48 310.43 165.12 
M 315.26 171.64 317.69 174.7 
M 269.58 100.66 283.31 118.08 292.9 130.54 
M 295.46 134.22 301.33 143.3 307.11 151.88 
M 311.7 158.65 318.74 168.78 
M 275.21 101.21 289.55 117.74 295.14 124.63 297.78 128.27 304.84 139.54 313.1 151.99 
M 317.72 159.08 322.3 165.97 
M 324.62 169.31 326.96 172.55 
M 281.49 101.9 293.18 114.16 298.81 120.73 301.45 124.32 307.39 133.8 
M 309.72 137.57 321.47 155.98 
M 325.95 163.14 328.19 166.56 
M 330.47 169.9 332.75 173.14 
M 335.04 176.24 337.31 179.18 
M 288.67 102.73 293.95 107.95 299.59 113.86 302.35 117.11 304.99 120.62 308.8 126.22 
M 311.23 130.02 321.83 146.96 327.47 156.53 
M 296.34 103.73 300.28 107.74 304.38 112.27 
M 307.12 115.51 311.25 120.8 313.9 124.55 318.76 132.1 324.48 141.56 
M 329.03 149.44 331.23 153.36 
M 342.07 171.09 344.24 174.25 
M 303.93 105.09 311.99 114 317.73 121.19 322.83 128.71 326.22 134.35 
M 328.41 138.2 339.3 157.9 
M 347.79 171.64 349.93 174.81 
M 311.5 106.7 318.4 114.3 321.42 117.92 324.25 121.66 326.83 125.42 330.26 131.11 
M 332.36 134.96 338.62 146.94 
M 340.76 150.93 342.94 154.82 
M 347.25 162.16 351.33 169.02 
M 319.18 108.37 324.89 114.69 327.92 118.37 330.63 122.15 333.03 125.99 335.21 129.86 343.38 145.7 348.72 155.45 
M 350.83 159.19 352.89 162.85 
M 326.82 110 331.32 115.18 334.16 118.94 336.67 122.8 341.07 130.61 348.23 144.34 
M 350.25 148.27 356.42 159.79 
M 334.1 111.44 337.56 115.79 340.21 119.59 342.61 123.48 348.09 133.2 
M 350.14 137.05 352.08 140.88 
M 357.87 152.39 362.08 160.19 
M 341.31 113 346.37 120.17 351.08 127.9 355.17 135.5 357.8 141.04 
M 365.73 156.44 367.97 160.29 
M 348.96 115.04 352.82 120.55 356.34 126.29 
M 358.44 130.08 361.94 137.41 
M 363.54 141.03 366.26 146.58 368.37 150.49 375.12 162.35 
M 357.5 118.04 361.74 124.55 364.71 130.18 
M 366.36 133.82 369.46 141.03 
M 371.31 144.79 373.39 148.71 
M 368.1 124.59 370.02 128.37 373.88 137.48 
M 126.31 108.51 125.1 110.06 
M 132.57 107.25 127.17 114.61 
M 138.46 106.41 128.4 120.65 
M 144.5 105.73 139.2 112.91 129.86 126.46 
M 150.75 105.1 147.48 109.29 133.52 129.2 
M 157.41 104.28 155.68 106.26 153.41 109.24 146.18 119.61 137.95 131 132.68 138.59 129.05 144.43 
M 165.27 103.06 161.69 106.57 159.34 109.42 152.42 119.41 139.88 136.68 
M 134.65 144.35 132.24 148.16 
M 130.01 151.99 129.88 152.21 
M 173.98 101.71 170.46 104.69 167.91 107.12 164.26 111.29 
M 159.61 117.77 154.62 124.93 
M 151.85 128.74 146.08 136.66 
M 143.28 140.58 140.63 144.43 
M 138.11 148.25 137.19 149.69 
M 182.07 100.76 179.09 103.12 176.62 105.38 171.62 110.33 169.18 113.13 166.79 116.22 160.64 125.05 
M 157.95 128.85 145.12 147.06 
M 190.29 100.14 185.11 103.97 180.14 108.39 175.28 113.56 171.63 118.07 
M 166.66 125.04 163.98 128.89 
M 161.22 132.88 153.27 144.44 
M 197.62 99.8 188.65 107.04 183.67 111.6 181.28 114.09 176.49 119.85 167.26 132.84 
M 164.47 136.94 161.77 140.99 
M 203.75 99.64 189.55 112.5 184.75 117.48 182.48 120.26 174.82 130.69 166.78 142.54 
M 209.17 99.57 190.37 118.3 188.09 120.99 184.8 125.49 
M 182.36 128.89 176.76 136.72 
M 214.24 99.51 211.39 102.45 204.05 110.54 196.05 118.87 193.63 121.67 191.45 124.56 185.86 132.8 
M 183.18 136.63 180.6 140.33 
M 219.11 99.57 217.02 101.78 200.72 120.39 
M 198.27 123.44 196.07 126.54 
M 194.06 129.7 188.05 139.15 
M 223.99 99.65 217.97 106.51 205.46 121.62 203.08 124.9 200.94 128.2 198.1 133.17 
M 196.16 136.63 195.39 137.97 
M 228.75 99.7 216.34 114.65 211.45 121.02 209.1 124.43 206.94 127.93 202.15 136.9 
M 233.47 99.75 230.94 102.73 220.78 115.65 
M 218.43 118.8 216.13 122.13 
M 213.94 125.66 210.93 131.2 208.62 135.87 
M 238.4 99.66 233.96 105.01 222.86 120.02 220.65 123.45 218.61 127.09 215.79 132.92 
M 243.45 99.52 237.12 107.36 230.86 116.19 226.3 123.09 224.15 126.86 222.24 130.82 217.75 140.89 
M 248.24 99.49 244.59 104.08 240.45 109.76 236.47 115.68 232.08 122.6 229.81 126.44 227.7 130.48 223.18 140.98 
M 221.27 144.96 219.79 147.66 
M 253.02 99.5 250.05 103.23 243.84 112.22 239.89 118.51 234.31 127.93 
M 232.08 132.02 230.06 136.27 
M 226.45 144.75 225.53 146.8 223.13 151.12 
M 257.91 99.71 253.39 105.48 247.2 114.91 236.16 133.41 233.01 139.74 
M 231.18 143.99 228.46 150.21 227.42 152.15 
M 263.17 100.08 259.05 104.98 256.81 108.08 253.6 112.98 
M 251.53 116.3 240.2 134.86 
M 235.86 143.05 232.3 151.46 
M 230.42 155.51 228.35 159.34 
M 226.19 163.05 222.09 170.54 
M 268.55 100.56 264.75 104.96 260.33 111.06 245.48 134.56 
M 238.96 146.44 237.22 150.68 
M 233.74 158.99 229.75 166.47 
M 225.63 173.52 224.31 175.65 
M 273.94 101.08 270.26 105.31 265.99 111.1 253.31 130.71 
M 248.41 138.35 245.13 144 243.25 147.97 238.24 160.58 235.43 166.2 
M 229.24 176.21 227.04 179.34 
M 279.16 101.64 275.75 105.67 271.47 111.39 261.54 126.84 
M 258.95 130.72 252.64 140.34 250.45 144.01 249.5 145.91 
M 244.34 157.94 242.66 161.95 
M 240.9 165.75 239.05 169.26 
M 235.08 175.64 231.8 180.13 228.3 184.42 
M 284.34 102.21 281.42 105.66 276.97 111.63 272.76 118.04 266.13 128.8 257.14 142.27 
M 255 145.98 253.15 149.76 
M 246.2 165.13 242.56 171.93 
M 240.71 175.03 238.71 177.98 
M 234.25 183.61 231.85 186.27 
M 289.7 102.85 285.05 108.41 282.7 111.54 278.28 118.18 275.08 123.5 
M 272.99 127.17 270.77 130.92 
M 268.32 134.73 261.83 144.09 259.72 147.84 254.6 159.23 251.72 164.68 
M 249.73 168.09 247.8 171.3 
M 245.95 174.34 242.16 180.1 
M 237.77 185.48 235.37 187.96 
M 295.21 103.53 290.11 109.66 
M 287.67 112.9 284.09 118.04 281.78 121.68 278.68 127.31 
M 276.69 131.12 273.41 136.82 268.21 144.16 265.8 147.83 264.79 149.7 
M 262.91 153.47 260.32 159.09 258.44 162.71 256.35 166.16 247.29 179.42 
M 245.37 182.09 243.32 184.7 
M 300.51 104.48 295.3 110.89 290.38 117.68 287.9 121.39 285.55 125.25 279.61 136.96 277.36 140.71 271.04 149.82 
M 266.91 157.21 265.05 160.84 
M 263.04 164.33 261.99 166.04 258.54 170.74 
M 256.26 173.65 252.12 179.04 
M 248.31 184.06 246.32 186.45 
M 305.77 105.45 301.61 110.7 298.07 115.58 
M 295.6 119.13 291.84 124.85 289.49 128.85 284.4 138.81 
M 279.82 146.27 277.28 149.96 
M 274.82 153.66 267.45 166.06 264 170.71 
M 254.89 181.38 252.96 183.76 
M 310.88 106.56 303.13 117.11 295.7 128.4 293.3 132.45 286.81 144.32 283.21 150 
M 278.23 157.45 272.71 166.21 269.38 170.82 
M 264.53 176.35 259.79 181.36 
M 257.67 183.68 255.67 185.86 
M 316.16 107.71 306.88 120.64 299.27 132.04 290.02 147.78 283.93 157.44 
M 276.94 167.94 273.61 172.49 271.27 175.23 265.17 181.44 
M 260.62 185.87 258.49 187.84 
M 321.75 108.93 318.07 114.28 305.27 131.9 300.14 139.65 294.32 149.16 
M 291.95 153.01 283.67 166.37 278 174.05 
M 275.69 176.76 273.31 179.29 
M 270.87 181.66 268.45 183.89 
M 327.65 110.16 322.26 117.98 310.05 133.81 
M 307.35 137.61 296.29 154.14 290.45 163.81 
M 288.19 167.56 284.83 172.64 281.42 176.9 
M 271.87 186.21 269.43 188.08 
M 333.67 111.35 326.24 121.8 314.88 135.68 305.68 148.5 
M 303.16 151.92 298.31 158.96 
M 295.99 162.72 291.55 170.25 
M 282.56 182.03 279.01 185.46 277.78 186.45 
M 339.57 112.62 332.52 122.34 329.89 125.67 321.17 135.84 318.33 139.42 312.98 146.73 305.19 156.83 301.56 161.95 
M 299.27 165.57 293.82 174.64 290.53 179.24 
M 288.27 181.93 284.8 185.51 283.61 186.53 
M 345.41 113.93 335.92 126.33 324.56 139.69 320.45 145.04 
M 317.76 148.59 306.04 163.42 303.7 166.84 297.17 177.22 293.87 181.6 
M 350.86 115.64 339.1 130.36 330.7 140.28 319.81 154.09 315.8 158.91 
M 310.67 165.15 305.98 171.71 
M 356.19 117.45 336.63 141.03 323.16 157.88 314.12 168.51 
M 311.73 171.59 307.15 177.73 
M 300.42 185.68 298.73 187.31 
M 361.11 119.68 357.23 124.45 345.3 138.43 338.43 146.91 
M 335.78 150.28 331.81 155.25 325.12 163.05 
M 322.53 166 315.2 174.64 
M 365.73 122.06 363.72 124.57 354.22 135.46 349.83 140.73 
M 347 144.22 335.06 159.14 325.89 169.43 
M 323.45 172.21 321.05 174.9 
M 318.67 177.53 313.94 182.5 
M 369.11 125.67 366.86 128.36 357.06 139.2 350.07 148.24 
M 347.42 151.71 340.93 159.82 334.3 167.21 
M 331.74 170.04 329.27 172.79 
M 324.48 177.94 318.35 183.81 
M 372.3 129.06 362.84 139.22 359.78 142.88 355.69 148.5 
M 353.1 152.15 350.56 155.61 
M 345.42 161.97 342.78 164.95 
M 375.29 132.29 368.74 139.19 365.52 142.84 362.63 146.6 354.9 157.85 352.39 161.11 349.82 164.11 343.32 171.21 
M 340.78 173.94 335.91 179.06 
M 375.29 138.77 371.52 142.9 368.52 146.59 357.97 161.74 355.41 164.84 351.54 169.05 
M 349.01 171.78 346.49 174.46 
M 375.29 146.08 371.75 150.58 363.69 162.12 361.06 165.43 357.14 169.73 
M 375.29 154.31 369.63 162.16 365.55 167.17 
M 360.32 172.98 357.87 175.64 
M 375.29 162.35 371.47 167.12 
M 368.8 170.22 366.49 172.85 
M 153 104.73 154.58 104.72 
M 165.9 102.69 167.75 72.38 168.62 72.4 169.02 102.48 
M 178.83 100.83 183.07 62.17 183.94 62.24 181.96 100.78 
M 191.85 99.72 199.32 58.56 200.18 58.69 194.98 99.87 
M 204.91 99.27 215.43 54.91 216.28 55.09 208.03 99.58 
M 217.97 99.2 229.62 57.42 230.46 57.64 221.08 99.6 
M 231.02 99.34 242.59 59.4 243.43 59.61 234.13 99.75 
M 244.07 99.05 257.85 54.81 258.68 55.05 247.19 99.49 
M 257.15 99.23 270.93 64.46 271.75 64.76 260.23 99.88 
M 270.18 100.24 282.4 74.77 283.2 75.11 273.23 101.02 
M 283.18 101.57 292.77 84.01 293.55 84.38 286.2 102.43 
M 293.63 102.79 295.03 103.49 
M 155.18 104.63 158.91 98.64 160.65 95.54 162.23 92.36 163.61 89.1 165.83 82.36 167.56 75.41 
M 168.66 75.43 172.39 74.27 175.83 72.68 177.39 71.63 178.83 70.42 180.16 69.05 182.65 66.04 
M 183.74 66.12 187.29 66.45 190.72 66.26 192.37 65.88 193.97 65.29 195.53 64.53 198.57 62.67 
M 199.65 62.84 203.18 63.15 206.59 62.95 208.23 62.57 209.82 61.98 211.36 61.21 214.38 59.35 
M 215.45 59.57 218.17 61.13 219.55 61.74 220.96 62.17 222.41 62.39 225.39 62.26 228.45 61.6 
M 229.52 61.87 232.02 63.32 233.3 63.87 234.59 64.24 235.92 64.41 238.64 64.16 241.43 63.39 
M 242.49 63.67 245.93 63.75 249.22 63.33 250.77 62.84 252.26 62.15 253.7 61.29 256.47 59.24 
M 257.52 59.54 259.56 62.32 261.89 64.68 263.23 65.61 264.68 66.37 266.24 66.99 269.55 67.94 
M 270.58 68.31 272.21 71.17 273.14 72.46 274.18 73.62 275.36 74.62 278.1 76.17 281.18 77.31 
M 282.19 77.75 283.61 80.39 285.37 82.63 286.43 83.52 287.64 84.25 288.95 84.84 291.81 85.76 
M 292.8 86.23 292.07 90.13 291.88 92.06 291.87 93.97 292.06 95.86 293.04 99.58 294.54 103.25 
M 170.54 74.88 174.16 73.55 175.83 72.68 177.39 71.63 178.83 70.42 181.43 67.57 
M 171.33 81.17 174.11 80.15 176.58 78.68 177.68 77.75 179.68 75.57 
M 172.12 87.46 174.94 86.29 176.54 85.08 177.93 83.56 
M 185.52 66.32 189.03 66.44 190.72 66.26 192.37 65.88 193.97 65.29 197.06 63.64 
M 185.76 72.29 188.65 72.39 190.05 72.24 192.73 71.45 195.28 70.08 
M 186 78.27 188.28 78.35 189.38 78.23 191.49 77.6 193.5 76.52 
M 186.24 84.24 187.91 84.3 189.49 84.03 191.72 82.97 
M 201.43 63.03 204.91 63.14 206.59 62.95 208.23 62.57 209.82 61.98 212.88 60.31 
M 201.16 69.46 204.04 69.55 205.42 69.4 208.08 68.59 210.61 67.22 
M 200.9 75.89 203.16 75.96 204.26 75.84 206.35 75.21 208.34 74.13 
M 200.63 82.32 203.09 82.29 204.62 81.82 206.07 81.03 
M 216.8 60.39 219.55 61.74 220.96 62.17 222.41 62.39 223.89 62.41 226.92 61.96 
M 216.13 67.25 218.4 68.36 220.76 68.9 221.97 68.92 224.48 68.55 
M 215.46 74.11 217.25 74.98 218.16 75.26 220.06 75.42 222.03 75.13 
M 214.79 80.97 216.09 81.61 217.45 81.92 219.59 81.72 
M 230.77 62.63 233.3 63.87 234.59 64.24 235.92 64.41 237.27 64.38 240.03 63.81 
M 229.93 69.11 232.02 70.13 233.09 70.44 235.3 70.55 237.58 70.08 
M 229.1 75.59 230.75 76.4 231.59 76.64 233.33 76.73 235.12 76.36 
M 228.27 82.07 229.47 82.66 230.72 82.92 232.67 82.63 
M 244.22 63.74 247.6 63.63 249.22 63.33 250.77 62.84 252.26 62.15 255.1 60.3 
M 243.32 70.02 246.11 69.92 248.72 69.27 249.95 68.71 252.29 67.18 
M 242.41 76.3 244.61 76.22 245.66 76.03 247.64 75.26 249.48 74.06 
M 241.51 82.57 243.11 82.52 244.62 82.14 246.67 80.94 
M 258.52 60.96 260.67 63.57 261.89 64.68 263.23 65.61 264.68 66.37 267.88 67.49 
M 257.4 67.73 259.17 69.88 260.18 70.79 262.48 72.19 265.11 73.12 
M 256.27 74.49 257.67 76.19 258.46 76.91 260.28 78.01 262.35 78.74 
M 255.15 81.26 256.17 82.5 257.38 83.47 259.59 84.36 
M 271.38 69.77 273.14 72.46 274.18 73.62 275.36 74.62 276.67 75.46 279.62 76.77 
M 269.92 76.89 271.27 78.96 272.07 79.85 273.98 81.26 276.23 82.26 
M 268.46 84.02 269.95 86.08 271.28 87.06 272.85 87.75 
M 282.87 79.1 284.43 81.58 285.37 82.63 286.43 83.52 287.64 84.25 290.36 85.33 
M 281.21 86.95 282.22 88.57 282.82 89.25 284.3 90.3 286.07 91.01 
M 126.91 152.82 132.55 151.74 134.9 151.03 136.6 150.09 138.96 148.47 141.36 147.3 144.59 147.24 148.38 145.96 150.82 145.89 153.11 144.44 157.86 144.44 160.19 143.59 208.64 135.86 225.89 153.99 226.15 156.99 222.99 161.05 221.75 163.42 221.22 166.49 220.06 168.94 220.36 170.59 222.3 173.22 225.91 177.54 224.35 179.67 219.42 181.62 214.18 183.27 211.96 184.49 209.52 185.51 204.07 186.95 198 191.23 195.82 192.5 192.83 196.48 158.23 188.79 155.22 187.7 153.06 186.27 150.05 185.93 144.42 183.52 142.13 181.16 139.57 179.13 137.23 178.1 135.64 176.58 131.59 175.44 121.6 170.33 
M 125.99 155.11 132.17 154 138.75 151.38 141.59 150.97 145.12 151.32 147.57 151.35 150.12 150.43 152.56 149.85 156.34 148.04 162.51 147.36 164.62 148.27 166.94 147.54 169.18 146.43 174.81 142.81 176.96 143.45 179.1 142.36 181.65 141.77 184.26 141.54 188.17 141.78 
M 124.95 157.67 126.19 157.77 132.2 156.7 133.99 155.79 138.95 155.54 145.44 155.72 148.02 155.34 150.31 155.39 153.01 154.44 155.17 153.04 157.59 152.61 161.1 153.37 164.55 153.24 168.1 153.69 172.28 151.43 174.8 150.3 177.12 149.63 179.55 149.16 182.15 149.52 184.92 149.02 187.22 149.56 193.85 150.41 195.58 148.46 197.27 148.54 
M 124.11 159.71 126.44 159.98 132.33 159.78 134.59 159.4 136.44 158.89 138.86 158.69 142.29 159.29 144.93 159.48 149.78 158.93 152.54 159.03 158.64 158.29 161.61 158.35 165.32 159.14 168.17 159.29 170.25 159.06 171.57 158.29 173.65 157.5 176.33 157.02 179.16 157.41 182.24 158.18 184.71 158.07 186.69 158.5 190.61 157.99 193.35 158 196.5 158.4 199.49 158.38 201.73 157.31 204.58 157.12 208.73 154.65 211.25 154.81 214.98 156.08 216.37 155.95 218.98 155.24 
M 123.7 161.81 126.58 162.28 129.36 162.31 132.18 162.59 136.89 162.34 139.45 162.53 144.86 163.79 150.64 163.67 156.5 164.44 168.22 164.63 170.43 165.08 174.86 164.68 179.03 165.15 183.97 166.19 187.93 166.5 190.63 166.98 192.79 166.87 196.49 168.2 198.8 168.05 
M 123.33 163.87 126.13 164.54 128.99 164.81 134.17 165.73 136.58 165.77 139.02 166.26 141.99 167.21 145.45 167.69 148.5 168.47 153.41 168.33 156.43 168.59 159.36 169.23 161.16 170.71 164.16 171.4 167.29 171.49 175.32 172.94 177.87 173.04 179.65 173.75 182.15 173.57 184.94 173.75 187.81 174.65 190.27 174.92 193.21 174.05 195.37 174.07 
M 122.73 165.98 133.26 169 135.66 169.44 138.26 169.65 144.89 171.65 147.35 172.97 149.92 173.97 153.5 174.38 161.14 176.28 164.04 176.54 169.49 177.58 172.07 177.84 174.32 179.96 179.36 180.77 
M 122.73 168.36 127.81 170.46 133.33 172.14 135.75 172.71 137.23 173.92 139.92 174.58 142.67 175.86 145.64 177.72 148.14 178.9 150.98 179.16 157.38 181.48 159.84 182.15 162.83 182.43 165.86 182.97 167.78 183.74 169.37 185.07 171.97 186.2 177.69 187.86 180.79 189.42 182.69 191.22 184.81 191.84 
M 175.88 193.71 194.13 219.34 193.44 219.87 173.39 195.62 
M 174.26 193.46 174.86 194.49 
M 180.61 204.35 192.74 225.16 192.01 225.62 171.61 195.12 
M 172.64 193.22 173.09 194.19 
M 177.9 204.53 190.33 231.24 189.55 231.63 169.84 194.62 
M 171 192.98 171.32 193.88 
M 175.11 204.52 186.83 237.42 186.02 237.73 168.08 194.1 
M 169.35 192.75 169.55 193.54 
M 172.29 204.35 182.24 243.55 181.4 243.78 166.33 193.59 
M 167.68 192.53 167.79 193.18 
M 169.48 204.07 176.54 249.49 175.68 249.64 164.6 193.07 
M 166.16 192.34 166.19 192.79 
M 166.91 204.88 169.91 255.11 169.04 255.18 163.04 192.58 
M 191.43 217.44 190.2 218.32 189.49 219.26 189.43 219.77 189.58 220.3 190.9 221.99 
M 189.97 222.57 188.58 223.34 187.7 224.26 187.54 224.8 187.58 225.4 188.56 227.44 
M 187.58 227.93 186.04 228.58 184.99 229.45 184.73 230.01 184.66 230.66 185.25 232.97 
M 184.22 233.37 182.56 233.9 181.33 234.71 180.96 235.28 180.77 235.96 180.95 238.47 
M 179.89 238.76 177.33 239.47 176.7 239.89 176.23 240.45 175.74 241.95 175.65 243.79 
M 174.57 243.98 172.68 244.25 171.15 244.9 170.59 245.44 170.17 246.13 169.54 248.83 
M 190.78 217.88 189.76 218.78 189.49 219.26 189.43 219.77 189.58 220.3 190.36 221.42 
M 186.82 212.42 186.03 213.11 185.83 213.48 185.89 214.27 186.5 215.13 
M 182.85 206.96 182.16 207.7 182.21 208.25 182.63 208.85 
M 189.24 222.95 188.05 223.78 187.7 224.26 187.54 224.8 187.58 225.4 188.14 226.73 
M 186.24 217.9 185.26 218.58 184.96 218.98 184.87 219.92 185.33 221.02 
M 183.24 212.85 182.23 213.7 182.16 214.44 182.52 215.31 
M 180.23 207.81 179.5 208.43 179.45 208.97 179.71 209.6 
M 186.78 228.24 185.43 228.98 184.99 229.45 184.73 230.01 184.66 230.66 184.97 232.16 
M 183.91 222.2 182.8 222.81 182.43 223.2 182.16 224.2 182.42 225.44 
M 181.04 216.16 179.88 216.95 179.66 217.73 179.86 218.71 
M 178.17 210.12 177.32 210.7 177.17 211.27 177.31 211.99 
M 183.36 233.61 181.86 234.25 181.33 234.71 180.96 235.28 180.77 235.96 180.81 237.58 
M 181.31 227.98 180.02 228.53 179.56 228.92 179.08 229.99 179.11 231.39 
M 179.25 222.34 178.18 222.8 177.79 223.13 177.39 224.03 177.42 225.2 
M 177.2 216.7 176.02 217.34 175.7 218.06 175.72 219.01 
M 175.14 211.07 174.25 211.55 174.01 212.1 174.02 212.82 
M 178.96 238.94 177.33 239.47 176.7 239.89 176.23 240.45 175.91 241.14 175.67 242.85 
M 177.57 233.58 176.12 234.04 175.15 234.91 174.87 235.52 174.66 237.03 
M 176.17 228.22 174.91 228.62 174.07 229.38 173.83 229.91 173.64 231.21 
M 174.77 222.85 173.3 223.47 172.79 224.29 172.63 225.4 
M 173.38 217.49 172.5 217.77 171.92 218.3 171.62 219.58 
M 171.98 212.13 171.03 212.53 170.71 213.05 170.61 213.76 
M 173.6 244.09 171.85 244.51 171.15 244.9 170.59 245.44 170.17 246.13 169.68 247.86 
M 172.64 238.09 171.09 238.46 170.47 238.8 169.61 239.89 169.18 241.42 
M 171.68 232.08 170.34 232.41 169.8 232.7 169.05 233.64 168.68 234.97 
M 170.72 226.08 169.13 226.61 168.49 227.4 168.17 228.53 
M 169.76 220.07 168.45 220.51 167.93 221.16 167.67 222.09 
M 168.8 214.07 168.07 214.25 167.54 214.63 167.17 215.64 
M 325.12 186.59 329.09 191.38 331.51 194.82 334 197.71 328.9 198.61 325.95 197.32 323.62 197.91 321.51 199.13 320.31 201.56 314.54 203.1 312.59 204.8 310.9 206.73 307.41 206.27 304.75 206.4 303.26 208.55 300.99 209.92 299.56 212.05 297.7 213.67 295.68 215.01 293.5 216.15 290.82 216.99 288.61 218.34 283.94 220.72 281.18 221.12 279.09 222.64 276.34 227.23 274.82 229.3 269.24 231.1 267.19 234.48 266.92 237.39 265.62 236.6 263.42 234.64 262.31 232.54 261.3 230.15 260.05 228.09 257.99 222.97 256.43 219.78 254.7 216.6 252.69 214.23 251.81 211.54 251.5 209.4 250.41 206.93 249.47 203.89 244.86 194.86 
M 320.86 187.43 325.75 190.94 
M 316.59 188.27 321.26 191.85 
M 312.34 189.2 320.89 197.36 
M 308.1 190.18 314.93 196 
M 303.86 191.11 307.17 195.98 309.29 198.29 
M 299.59 191.94 302.33 196.66 304.88 199.63 306.5 201.85 
M 295.32 192.76 298.22 196.64 302.08 202.78 304.06 204.75 
M 290.99 193.23 293.9 196.88 297.28 203.68 
M 286.67 193.67 289.25 198.33 291.42 201.33 292.84 204.8 294.41 207.75 297.34 210.01 
M 282.33 193.99 285.08 198.32 287.46 200.82 288.71 203.98 290.31 206.84 
M 277.99 194.22 282.85 200.98 284.6 203.76 285.88 206.46 287.93 208.91 289.39 211.76 290.48 214.35 
M 273.64 194.43 276.25 198.34 279.53 204.23 281.42 206.78 
M 269.3 194.56 273.55 201.27 274.5 204.91 277.26 209.13 278.02 212.16 280.98 217.07 
M 264.95 194.7 266.89 198.74 267.88 201.92 270.61 207.92 273.42 209.4 274.98 211.14 277.04 216.24 
M 260.6 194.81 262.5 198.38 263.9 201.8 266.72 207.58 268.71 209.85 270.52 212.25 
M 256.26 194.92 259.61 201.68 261.15 204.41 262.26 207.53 263.79 209.52 265.14 211.72 
M 251.91 194.92 257.97 207.36 258.94 211.89 262.14 217.71 266.06 223.43 266.9 226.01 
M 247.56 194.88 249.27 198.3 250.93 201.03 252.03 204.47 254.38 209.03 254.79 211.71 255.65 214.43 257.15 217.16 
M 375.29 132.25 377.29 130.35 380.98 125.69 384.54 121.6 386.59 119.69 388.09 117.38 390.08 115.53 391.6 113.36 392.82 111.05 394.58 109.07 399.75 102.54 404.27 98.55 406.94 97.1 408.9 95.67 410.86 94.07 412.23 92.45 415.07 90.71 417.38 89.8 419.76 87.7 422.44 86.21 425.89 84.76 430.6 80.79 432.47 80.35 433.74 79.31 436.43 78.55 438.94 77.31 441.17 76.66 442.66 75.77 444.88 74.75 448.14 73.78 451.65 72.28 455.48 69.62 458.86 68.69 461.19 68.27 463.68 68.18 468.71 66.33 471.4 66.53 473.28 67.1 477.5 66.6 480.13 66.64 482.41 65.3 485.61 64.96 489.95 73.4 490 76.06 489.32 78.01 489.17 80.48 489.78 83.71 489.81 86.36 488.74 88.42 487.58 94.18 485.76 95.82 485.1 98.63 482.89 99.96 481.05 101.66 479.84 104 479.02 106.72 477.85 109.13 476.08 111.04 474.99 113.63 473.5 115.81 471.88 117.87 469.49 119.15 468.4 121.74 466.63 123.66 459.33 127.29 457.06 128.66 454.89 130.14 449.11 135.14 445.85 135.47 442.18 138.97 439.39 139.76 434.69 141.96 431.8 142.51 427.42 145.01 425.52 146.55 423.14 147.61 420.43 148.35 411.4 152.73 408.11 152.79 405.06 153.09 402.94 154.32 405.02 154.19 411.33 156.06 414.82 157.32 417.65 157.93 420.15 158.2 424.43 159.51 426.86 160.61 430.89 161.99 435.38 163.83 445.62 169.85 451.13 173.59 460.98 179.5 467.66 184.03 469.23 185.78 471.03 188.4 474.94 194.77 476.98 197.63 483.9 208.92 484.61 211.24 486.96 216.84 488.49 219.99 489.33 224.6 488.98 227.5 488.28 230.06 487.22 232.26 486.83 235.42 483.74 243.45 482.06 243.7 480.25 242.53 477.21 242.31 475.7 241.34 469.36 241.4 467.26 241.26 463.38 240.08 456.91 237.37 454.63 236.25 452.43 234.33 450.75 232.51 447.95 230.66 445.5 230.52 442.45 229.25 436.74 228.51 434.66 227.2 432.03 227.37 429.64 225.86 427.85 224.57 426.4 222.64 424.31 220.67 421.53 219.1 418.96 217.29 416.43 215.79 414.06 213.49 410.19 210.92 405.86 207.69 403.75 205.19 401.38 203.5 399.77 201.44 398.24 198.49 396.55 195.96 393.26 191.66 391.56 189.96 388.5 184.44 384.75 179.84 382.78 178.06 375.29 167.66 
M 377.47 132.49 379.63 130.39 381.59 128.17 389.66 120.84 391.49 119.35 400.94 109.13 402.64 107.01 404.63 105.71 406.39 103.91 414.38 100.17 415.33 98.7 418.88 95.16 424.68 92.89 427.31 92.05 429.87 91.59 432.03 90.15 436.76 86.13 438.77 85.14 440.98 86.07 443.63 86.01 447.08 85.45 449.73 84.61 451.64 82.27 453.99 81.49 456.25 79.72 458.4 79.01 461.67 78.36 465.78 78.09 471.14 76.85 473.51 76.56 476.01 75.6 480.7 75.36 482.5 75.1 485.37 74.04 
M 382.08 130.8 384.25 128.96 388.82 125.62 390.79 123.98 392.83 123.06 397.43 119.91 399.42 117.88 402.16 115.89 406.4 112.17 407.09 110.56 409.45 109.36 411.73 107.52 414.16 106.56 417.13 105.87 419.11 103.79 420.09 102.52 430.83 97.95 432.68 97.78 435.89 96.01 
M 380.5 135.23 384.92 131.58 389.82 128.43 393.96 126.01 398.59 123.83 400.76 121.73 403.94 120.18 407.09 118.04 408.58 116.84 409.64 115.34 411.2 114.49 413.76 113.42 416.61 111.65 419.38 110.64 421.81 110.66 424.06 109.67 429.5 108.61 434.73 107.13 441.76 103.98 444.08 102.75 448.65 102.03 451.78 101.92 454.91 101.27 459.02 100.93 462.07 100.17 463.6 100.49 469.3 100.5 471.94 100.69 
M 381.02 137.92 386 134.66 388.46 133.46 390.78 131.84 395.46 129.52 398.43 128.59 400.48 126.82 402.15 125.65 405.6 125.15 408.3 124.28 411.78 121.43 413.37 119.53 416.13 118.87 422.85 116.79 425.18 116.77 427.41 115.54 429.17 115.14 432.62 115.08 441 115.52 443.9 114.74 446.34 114.36 448.65 114.34 450.17 113.31 452.62 112.76 454.7 111.16 457.99 110.52 461.74 110.93 464.76 110.31 467.5 111.05 471.03 111.57 
M 381.39 140.42 384.2 139.34 386.62 137.87 389.19 137.27 391.84 136.04 396.36 133.24 398.75 132.71 401.38 131.37 409.99 128.95 413.62 127.2 415.89 125.62 418.69 125.45 422.16 125.54 427.82 124.21 434.17 123.76 437.46 123.74 
M 375.29 143.88 378.7 143.75 381.72 143.11 384.45 142.05 387.12 141.27 389.81 140.9 392.44 140.02 394.03 138.9 398.66 136.87 405.53 136.8 408.97 135.6 411.37 134.3 412.37 133.15 414.18 133.19 417.28 132.75 427.05 133.95 429.74 133.78 431.99 132.75 433.28 131.43 
M 385.06 145.3 390.18 144.03 394.96 143.51 399.51 141.94 403.25 141.98 407.11 142.29 
M 382.2 148.74 385.17 148.47 387.87 148.51 392.64 147.97 395.05 148.65 400.94 147.47 404.23 148.18 407.31 148.31 410.65 147.56 413.33 148.29 417.16 147.79 
M 375.29 149.7 379.91 151.07 383.39 151.78 387.89 153 
M 382.3 154.09 385.11 155.12 387.08 156.22 389.61 156.51 392.81 157.12 395.81 157.4 398.32 157.41 403.75 157.95 406.63 158.86 410.24 159.62 413 159.43 
M 381.34 156.74 384.21 158.01 392.98 160.06 400.22 162.24 406.1 163.32 408.99 164.83 412.11 164.9 413.83 164.06 415.17 164.73 
M 383.79 160.35 386.72 161.67 390.09 162.31 392.98 163.44 397.22 166.03 399.34 166.18 402.28 167.14 405.08 168.62 407.84 169.28 410.62 170.3 412.78 171.42 
M 381.01 161.22 383.54 162.89 386.28 164.28 391.68 166.6 396.13 169.79 398.97 170.67 401.75 172.18 407.17 174.25 409.5 174.98 411.05 175.97 414.73 178.82 420.88 179.93 422.82 181.12 428.77 182.52 431.85 182.45 434.87 182.76 
M 375.29 159.39 380.61 163.71 388.22 168.18 390.86 169.41 396.12 173.11 398.73 175.18 401.18 176.41 405.05 178.74 407.25 180.58 409.61 181.27 414.46 184.32 417.13 185.59 419.91 186.67 422.63 186.32 426.04 186.74 427.73 187.74 429.8 188.6 431.77 189.14 434.06 190.05 436.4 191.23 438.49 192.88 444.76 194.59 451.76 193 453.93 193.3 455.87 194.19 459.05 193.78 461.34 194.48 464.57 195.11 
M 377.88 163.73 380.36 165.93 387.65 170.81 390.07 172.23 392.43 174.01 397.34 178.62 399.59 180.16 401.04 182.07 405.07 185.94 407.25 187.31 410.3 188.53 415.07 191.92 419.57 193.32 422.18 194.95 426.51 197.16 429.74 196.47 
M 380.29 167.9 382.64 169.91 384.4 171.93 391.17 177.56 393.58 179.89 395.63 182.48 397.79 184.63 400.18 186.06 401.7 187.98 403.52 189.87 405.93 191.38 408.05 192.93 410.24 195.05 412.88 197.18 416.77 199.59 418.8 201.24 421.64 202.03 425.78 205.44 427.9 206.25 432.08 208.38 434.83 209.18 437.52 209.69 439.6 211.07 442.68 211.53 446.96 214.29 449.67 215.14 453.23 215.51 456.46 214.55 
M 375.29 165.21 377.72 167.94 380.07 170.19 382.1 172.78 383.98 174.84 385.97 176.66 389.93 180.91 391.81 183.67 395.76 188.22 398.82 191.47 401 193.16 402.67 195.37 404.75 197.59 407.1 199.65 409.66 201.47 411.82 203.3 416.42 206.28 418.02 208.06 420.13 209.72 425.69 213.32 428.15 214.45 430.71 215.37 432.71 216.6 434.4 217.38 436.36 217.3 439.19 218.79 441.24 220.59 443.77 221.4 450.49 222.92 453.89 224.84 455.6 224.25 464.65 228.47 467.07 230.16 470.14 230.58 
M 335.16 111.65 337.11 110.49 339.27 109.54 341.7 108.85 344.42 108.47 347.46 108.39 350.77 108.59 354.5 109.21 358.71 110.31 367.71 113.09 371.8 114.07 375.24 114.62 377.85 115.71 379.16 117.3 378.88 119.05 376.97 120.42 373.81 120.95 370 120.36 362 118.25 355.22 117.01 
M 340.95 112.54 344.42 111.95 347.46 111.87 350.77 112.07 354.5 112.69 358.71 113.79 367.71 116.57 371.8 117.55 375.24 118.1 376.55 118.64 
M 52.73 143.43 53.05 142.65 54.31 140.72 56.05 138.65 58.46 136.77 61.81 134.82 66.25 132.58 70.75 129.98 74.99 127 79.91 124.09 85.55 121.57 97.68 116.93 103.46 115.01 109.01 113.23 124.46 108.97 126.92 113.15 127.61 117.18 128.53 121.23 129.66 125.32 130.37 129.35 130.47 133.3 130.07 141.1 128.91 144.88 128.1 148.7 127.04 152.49 124.02 159.94 123.35 163.78 121.35 171.37 119.88 175.1 117.76 178.74 114.45 182.14 105.1 181.49 98.27 180.43 92.09 179.22 86.56 177.59 81.54 175.82 76.86 173.8 72.39 171.51 68.37 169.06 64.92 166.32 61.98 163.24 
M 110.85 133.73 110.4 137.05 107.44 143.13 105.71 145.87 102.06 150.73 101.12 155.09 100.98 159.48 100.73 162.07 99.66 164.88 93.55 164.78 84.62 164.38 80.37 163.77 76.28 162.87 72.32 161.48 68.5 159.57 
M 58.54 159.96 50.1 147.63 49.45 145.54 50.7 143.69 52.98 143.4 54.72 144.81 58.45 154.99 62 163.27 
M 60.52 163.27 54.01 159.24 46.86 154.46 43.38 151.92 42.05 150.27 42.18 148.09 43.89 146.91 45.92 147.53 52.14 153.57 56.56 158.13 61.89 163.14 
M 77.91 142.36 76.84 138.31 77.15 134.13 78.8 130.27 81.61 127.15 85.27 125.12 89.4 124.39 93.55 125.04 97.26 127 100.13 130.06 101.85 133.88 102.24 138.06 101.25 142.13 98.99 145.67 95.71 148.27 91.75 149.68 87.56 149.72 83.58 148.4 80.24 145.85 77.91 142.36 
M 77.76 142.01 76.92 138.97 76.86 135.82 77.57 132.75 78.2 131.3 79.98 128.7 82.34 126.61 85.15 125.17 86.66 124.72 89.79 124.39 91.37 124.52 94.41 125.36 
M 79.37 141.34 78.92 140.05 78.53 137.36 78.59 136 79.1 133.68 
M 79.41 132.88 80.45 130.92 81.66 129.47 
M 82.04 129.1 83.32 128.05 84.5 127.35 87.05 126.41 88.4 126.19 91.12 126.24 93.74 126.97 
M 80.97 140.67 80.6 139.59 80.27 137.32 80.32 136.17 80.77 134.15 
M 83.39 130.2 85.29 128.9 87.44 128.11 89.72 127.87 91.99 128.2 93.07 128.57 
M 82.58 140.01 82.28 139.13 82.01 137.29 82.05 136.35 82.46 134.56 
M 84.47 131.57 86.09 130.44 87.83 129.8 89.69 129.61 90.61 129.69 92.41 130.18 
M 84.88 139.22 84.46 137.6 84.58 135.93 84.92 135.12 
M 86.23 133.28 87.83 132.33 89.48 132.03 91.14 132.29 92.62 133.08 93.77 134.3 94.46 135.83 94.61 137.5 94.22 139.13 93.31 140.54 92 141.59 90.42 142.15 88.74 142.17 87.15 141.64 85.82 140.62 84.88 139.22 
M 87.47 132.52 86.84 133.79 
M 86.01 135.44 84.62 138.23 
M 88.98 132.12 87.66 134.76 
M 87.19 135.69 85.19 139.69 
M 90.27 132.16 88.48 135.73 
M 88.38 135.92 85.97 140.74 
M 91.43 132.45 86.92 141.46 
M 92.46 132.99 87.99 141.92 
M 93.34 133.84 89.18 142.16 
M 94.07 134.98 90.5 142.12 
M 94.54 136.66 92.12 141.49 
M 53.65 141.73 58.23 146.32 
M 55.93 138.8 59.27 142.14 
M 58.87 136.53 63.9 141.55 
M 62.19 134.63 65.11 137.54 
M 65.66 132.87 69.88 137.09 
M 69 130.99 73.33 135.33 
M 72.19 128.97 76.8 133.58 
M 75.28 126.83 78.01 129.57 
M 78.55 124.89 81.23 127.57 
M 82.03 123.15 84.46 125.58 
M 85.64 121.54 88.63 124.53 
M 89.4 120.08 93.7 124.39 
M 93.17 118.64 96.95 122.41 
M 96.96 117.2 100.89 121.14 
M 100.85 115.88 105.07 120.1 
M 104.78 114.59 109.07 118.87 
M 108.73 113.32 113.15 117.73 
M 112.79 112.16 117.75 117.12 
M 116.91 111.06 121.29 115.44 
M 121.05 109.98 125.3 114.24 
M 114.98 114.8 114.07 113.53 113.6 113.13 111.74 112.46 
M 120.74 154.05 121.66 154 122.51 154.17 124.11 155.12 124.37 155.67 123.73 156.61 
M 60.88 160.74 62.26 158.23 62.9 156.7 64.01 155.76 
M 71.37 142.48 68.71 141.95 64.11 141.47 62.9 140.84 61.11 138.83 
M 103.19 129.24 101.67 130 100.17 130.14 
M 127.83 143.76 126.78 143.74 125.93 143.97 123.89 145.36 123.06 146.41 122.88 146.86 122.86 147.24 123.25 148.03 
M 82.76 176.25 83.78 175.12 87.12 172.71 
M 113.44 135.87 112.74 136.6 112.09 136.83 109.93 136.5 108.08 136.56 107.18 136.98 106.63 137.58 
M 97.03 156.59 96.48 161.71 95.96 162.95 95.13 164.11 
M 78.04 155.09 78.33 155.86 78.05 157.37 76.17 160.57 75.94 162.62 75.26 163.95 
M 101.4 122.32 99.9 122.15 99.29 122.23 98.96 122.47 97.09 126.91 
M 120.79 166.18 122.39 167.18 
M 55.97 140.32 55.94 138.79 
M 109.85 130.85 108.07 131.87 107.19 132.12 104.13 131.66 102.32 130.91 100.33 130.52 
M 97.33 168.24 96.8 170.27 96.27 170.97 95.75 171.23 91.12 172.24 
M 78.57 174.54 80.66 173.51 83.13 172.61 85.01 171.25 
M 96.69 165.78 95.96 169.35 95.57 169.95 94.51 170.91 91.39 171.9 
M 119.82 175.21 118.5 173.01 118.42 172.38 118.67 171.97 120.07 171.18 
M 123.28 161.05 122.63 161.08 122.5 160.8 
M 120.59 116.15 121.42 116.11 122.52 116.64 
M 85.33 155.31 83.83 156.27 82.47 157.78 80.75 158.74 
M 70.37 148.68 70.84 147.13 71.4 146.31 72.12 145.77 73.15 145.35 74 145.28 
M 61.8 151.58 62.28 151.63 62.64 151.41 62.77 151.07 62.58 150.79 
M 78.51 147.88 79.71 148.41 80.31 148.2 80.55 147.57 80.54 146.08 
M 59.28 157.01 61.75 155.11 
M 83.41 158.92 82.16 159.58 81.19 161.05 80.99 161.47 81.04 161.77 81.87 162.04 
M 79.6 146.85 80.09 146.38 80.27 145.87 
M 78.66 143.48 78.45 143.53 
M 79.11 165.95 81.29 165.58 82.3 165.04 83.4 163.29 83.23 162.12 
M 78.41 143.11 77.94 143.76 
M 124.14 154.89 124.55 155.25 124.56 155.96 123.41 157.13 123.01 157.32 
M 98.04 118.87 97.97 117.83 98.18 116.76 
M 107.45 164.17 103.69 161.83 102.72 161.75 101.53 162.27 100.49 162.2 
M 72.57 139.78 70.36 138.85 69.03 138.54 67.9 138.92 66.37 139.69 64.98 139.78 63.6 139.44 
M 119.83 159.88 120.51 157.71 121.26 156.85 121.71 156.51 122.78 156.24 123.35 156.53 123.39 156.92 123.18 157.23 
M 110.56 134 109.35 134.79 104.55 136.08 102.1 136.54 
M 64.69 153.72 65.84 153.19 66.59 152.16 66.79 151.46 66.68 148.47 65.91 146.67 64.94 146.11 63.98 146.2 
M 112.06 152.6 112.76 150.38 113.22 147.62 114.27 146.2 114.49 145.67 
M 95.12 165.8 94.8 168.73 94.11 170.27 93.49 170.78 92.8 171.07 90.35 171.82 
M 97.46 123.69 97.36 125.37 96.93 126.83 
M 100 144.09 99.35 145.53 98.39 147.12 
M 60.95 143.38 60.15 141.6 60.14 139.78 59.93 138.88 59.2 137.68 58.2 136.97 
M 117.27 116.73 117.17 116.21 117.48 114.53 117.86 113.72 118.47 113.22 119.86 112.86 
M 72.83 165.42 72.93 163.39 72.04 162 
M 78.56 143.33 78.2 143.61 
M 94.51 172.77 90.77 172.74 
M 114.18 179.23 115.63 180.93 
M 92.8 170.23 92.23 170.72 90.86 171.47 90.22 171.53 90.1 171.34 90.19 171.16 
M 97.43 153.26 98.36 152.48 99.4 152.23 99.67 152.54 99.66 153.08 99.32 153.54 98.98 153.68 
M 105.37 146.94 105.93 147.07 108.15 146.13 110.64 146.06 
M 63.06 164.36 60.86 166.15 59.56 166.85 58.17 167.34 56.74 167.61 53.93 167.66 51.24 167.19 43.62 165.22 33.78 161.61 30 160.63 33.84 161.41 43.86 164.2 51.54 165.55 54.02 165.79 56.4 165.55 58.56 164.79 60.39 163.42 61.22 162.51 
M 53.22 158.67 56.07 161.21 59.65 164.04 
M 61.73 165.52 65.49 167.88 72.39 171.51 
M 70.37 170.48 70.36 170.27 
M 126.98 113.52 129.61 116.15 
M 128.49 108.07 134.17 113.75 
M 134.28 106.9 139.85 112.47 
M 140.51 106.18 149.14 114.8 
M 146.79 105.5 152.22 110.92 
M 153.12 104.87 163.02 114.77 
M 159.21 104 166.63 111.42 
M 165.24 103.07 174.11 111.94 
M 171.26 102.13 180.47 111.34 
M 177.38 101.3 186.43 110.34 
M 183.63 100.58 190.25 107.21 
M 190.15 100.15 195.77 105.77 
M 196.78 99.82 203.56 106.6 
M 203.56 99.64 213.44 109.52 
M 210.43 99.55 216.7 105.83 
M 217.38 99.55 226.57 108.74 
M 224.45 99.66 231.47 106.67 
M 231.48 99.73 240.79 109.04 
M 238.37 99.66 246.95 108.24 
M 245.15 99.48 253.72 108.05 
M 252.12 99.5 257.67 105.04 
M 259.4 99.82 269.62 110.04 
M 266.94 100.4 275.34 108.8 
M 274.65 101.15 284.24 110.74 
M 282.46 102 292.54 112.08 
M 290.34 102.93 296 108.59 
M 298.49 104.12 306.91 112.54 
M 307.07 105.73 316.69 115.35 
M 315.96 107.66 324.24 115.95 
M 324.86 109.61 331.16 115.91 
M 333.53 111.32 343.86 121.66 
M 342.41 113.25 347.86 118.69 
M 352.18 116.05 361.44 125.31 
M 364.13 121.04 371.39 128.31 
"/></svg>