<svg xmlns="http://www.w3.org/2000/svg" width="520" height="320"><rect x="0" y="0" width="520" height="320" fill="floralwhite"/><rect x="10" y="10" width="500" height="300" stroke="black" stroke-width="1" fill="none"/><path stroke="black" stroke-width="1" fill="none" stroke-linecap="round" stroke-linejoin="round" d="
M 132.75 105.88 135.21 105.13 145.68 103.26 156.26 102.09 166.8 100.65 177.3 98.96 187.85 97.61 198.46 96.91 209.09 96.64 230.37 96.75 251.64 96.55 262.26 97.13 283.41 99.36 293.95 100.81 304.38 102.89 335.54 109.76 345.74 112.78 355.49 117.04 358.3 119.7 
M 358.3 190.32 356.62 191.85 346.61 195.47 336.29 198.02 315.36 201.85 294.58 206.41 284.04 207.78 273.42 208.46 252.16 209 241.52 208.9 230.89 209.13 209.67 210.72 199.04 210.94 188.43 210.19 177.95 208.39 167.6 205.91 147.1 200.24 136.68 198.1 123.37 196.7 
M 152.27 142.57 154.08 142.8 157.11 142.7 158.51 142.46 
M 168.09 142.06 175.43 142.6 
M 179.02 142.76 182.75 143.04 
M 186.85 143.67 193.35 144.9 197.29 145.28 199.06 145.26 
M 205.96 144.93 209.11 144.42 
M 215.23 143.2 218.29 142.57 
M 223.57 140.5 224.82 139.92 227.84 139.26 234.8 138.9 239.68 138.31 
M 242.7 137.74 245.86 137.33 
M 253.11 137.57 258.6 137.9 264.96 137.45 268.27 137.38 278.67 137.62 282.52 138.06 289.32 139.62 
M 293.62 140.36 295.65 140.59 302.99 140.64 307.02 140.98 315.6 142.11 332.63 142.14 
M 336.2 141.96 341.52 141.73 348.66 141.76 358.3 142.44 
M 135.48 184.85 142.78 199.35 
M 139.5 114.15 136.78 119.79 
M 134.79 162.38 138.62 170.57 
M 141.81 177.5 142.06 178.01 
M 142.11 178.13 148.34 191.37 
M 151.96 105.63 150.8 106.85 149.97 108.42 
M 148.63 111.85 147.11 117.53 145.85 121.09 144.29 124.36 141.15 128.5 
M 139.04 131.26 138.93 131.42 
M 141.82 153.49 142.67 155.33 
M 154.62 182.43 160.38 196.93 163.91 204.88 
M 163.05 109.78 159.41 113.29 157.45 116.11 156.05 119.5 154.75 125.41 
M 153.78 129.26 153.2 131.1 152.41 132.72 
M 161.31 175.8 164.77 183.36 
M 170.9 199.51 173.59 206.07 
M 176.84 112.05 175.92 113.5 174.75 114.72 
M 172.26 116.99 168.23 120.13 165.82 122.51 164.11 125.61 163.6 127.49 
M 162.5 131.21 161.92 133.04 161.16 134.7 
M 173.53 180.81 175.04 184.39 
M 183.25 204.68 184.94 208.28 
M 188.68 108.04 186.03 112.57 183.59 117.31 
M 176.91 125.04 174.19 127.13 
M 171.77 129.53 170.69 130.86 170.01 132.6 
M 168.82 136.24 168.31 138.15 166.97 141.99 
M 178.69 168.84 179.29 170.23 
M 180.94 173.98 182.65 177.78 
M 184.32 181.52 187.61 188.92 
M 189.18 192.53 191.95 199.32 
M 193.41 202.77 194.96 206.28 
M 199.36 107.85 197.52 110.84 
M 195.69 113.83 193.87 116.83 
M 192.22 120.01 190.03 125.06 189.06 126.52 
M 186.87 129.17 183.29 132.86 182.26 134.26 
M 180.37 137.22 179.5 138.78 178.75 140.75 
M 182.78 152.76 184.77 156.81 
M 187.88 164.14 189.24 167.59 
M 193.89 178.45 196.9 185.54 
M 198.4 189.07 199.8 192.48 
M 202.87 199.54 204.49 203.13 
M 207.17 209.66 207.62 210.76 
M 211.93 104.73 209.72 107.39 
M 202.48 119.57 200.95 122.91 
M 198.37 130.07 197.74 131.88 196.14 135.17 190.05 144.29 
M 200.21 165.76 201.54 169.14 
M 204.88 178.6 213.86 199.62 
M 216.91 206.58 218.23 209.8 
M 218.8 110.61 214.32 118.32 210.38 124.18 208.71 127.41 206.54 132.61 
M 203.81 139.71 201.75 145.24 
M 211.06 167.77 211.85 169.57 214.66 177.47 
M 218.75 187.62 220.82 192.69 223.34 198.18 
M 227.04 207.68 227.68 209.37 
M 230.31 111.02 228.25 113.86 
M 222.15 122.5 220.23 125.51 
M 218.44 128.67 213.94 136.53 212.55 140.08 211.48 143.93 
M 219.98 165.71 224.75 179.72 226.1 183.1 228.6 188.64 
M 230.2 192.25 231.62 195.65 
M 233.91 201.88 236.77 208.95 
M 242.96 107.6 242.23 109.33 239.72 114.18 
M 237.82 117.2 236.81 118.65 234.35 121.12 231.66 123.39 229.19 125.89 227.04 128.71 223.25 134.88 221.71 138.33 221.15 140.12 
M 229.23 166.1 232.13 175.27 
M 237.98 187.3 240.71 193.08 242.33 197.69 
M 243.53 200.86 244.91 204.17 
M 246.4 207.54 247.03 208.95 
M 252.65 106.86 249.41 113.44 
M 247.67 116.63 245.78 119.69 
M 241.28 125.15 236.47 130.35 
M 234.1 133 231.73 135.65 
M 229.73 138.06 228.92 139.15 
M 234.44 154.07 237.31 161.17 
M 238.69 164.68 240.85 171.07 
M 243.48 177.91 245.24 181.76 
M 247.04 185.63 248.87 189.5 
M 252.44 197.1 257.3 208.91 
M 256.53 115.64 253.44 120.01 239.24 138.41 
M 250.39 167.67 251.72 172.2 253.74 177.4 
M 257.41 185.24 260.99 192.9 
M 262.52 196.43 267.81 208.64 
M 269.83 104.62 269.2 106.44 267.59 109.73 262.8 117.34 
M 260.91 120.44 256.23 128.37 254.26 131.47 253.1 132.85 
M 250.39 135.73 248.84 137.22 
M 262.15 170.89 267.14 182.22 
M 268.68 185.82 270.15 189.32 
M 271.71 192.9 274.08 198.22 276.61 204.57 278.26 208.15 
M 276.56 107.11 274.21 112.14 270.31 118.19 268.54 121.43 263.5 131.6 259.91 137.86 
M 269.56 161.35 271.38 165.31 
M 273.27 169.32 277.53 178.84 279.91 185.32 281.79 191.19 285.63 200.68 288.66 207.02 
M 288.64 105.83 285.93 110.58 285.15 112.29 
M 283.55 115.69 282.73 117.37 280.75 120.4 277.52 124.73 
M 275.61 127.88 272.81 132.72 269.71 137.43 
M 282.14 165.51 285.32 171.77 288.57 179 292.73 190.59 294.49 194.94 
M 295.93 198.06 298.62 203.37 
M 301.66 105.33 299.6 108.32 
M 297.53 111.32 292.64 119.15 289.49 123.68 
M 287.47 126.8 284.69 131.74 283.65 133.27 
M 281.42 136.25 280.23 137.71 
M 287.81 154.26 293.55 164.84 295.22 168.39 298.75 177.35 302.54 185.36 
M 303.95 188.39 305.94 192.74 309.58 199.94 
M 304.4 119.72 302.57 123.07 
M 300.61 126.32 297.74 131.27 296.92 133.07 
M 295.32 136.71 294.02 139.48 
M 304.16 162.77 311.07 177.82 
M 312.51 180.78 314.71 185.19 317.47 190.08 
M 319.49 193.5 321.93 197.68 
M 323.46 109.14 322.31 110.57 317.33 115.94 315.32 119.14 312.41 126.7 309.9 132.09 
M 308.07 135.55 304.86 140.74 
M 310.19 150.21 314.19 157.43 
M 315.78 160.58 321.93 173.4 327.95 184.85 333.39 194.38 
M 334.55 112.12 333.55 113.7 328.9 119.43 326.85 122.59 324.94 125.92 321.36 132.9 317.56 142.19 
M 322.76 151.01 324.5 154.15 
M 328.2 160.6 331.01 165.39 336.29 175.71 340.92 183.99 343.28 189.16 
M 346.56 113.14 345.61 114.27 344.67 115.91 
M 342.7 119.1 341.67 120.65 336.87 126.24 334.97 129.59 331.65 136.83 328.98 142.16 
M 332.17 147.2 333.95 150.19 
M 335.73 153.17 337.72 156.33 
M 339.88 159.64 342.88 164.33 345.9 169.57 349.62 176.59 353.09 183.64 
M 135.65 170.04 135.17 169.55 134.48 169.19 132.77 168.81 
M 322.81 160.65 321.85 160.83 320.06 160.31 319.26 159.77 317.47 158.04 
M 260.75 160.95 263.01 161.21 264.45 161.73 265.27 161.81 
M 233.7 188.64 234.27 188.37 
M 227.96 160.97 228.2 160.39 227.99 160.01 224.96 157.38 
M 137.62 187.55 137.05 187.93 135.96 188.28 134.7 188.13 133.2 187.6 132.74 187.28 131.79 185.72 131.16 185.04 
M 323.33 155.12 321.35 154.54 319.9 154.78 319.67 154.34 
M 279.38 99.33 279.15 98.88 
M 341.92 143.85 342.59 143.24 343.35 142.87 346.11 142.01 347.38 141.42 347.85 141.05 348.23 140.46 348.6 138.93 348.49 136.82 348.25 135.75 347.8 134.83 
M 204.09 143.98 203.4 144.67 202.92 146 202.95 146.56 
M 132.7 180.09 131.89 180.35 130.67 180.46 
M 297.23 149.09 298.79 149.14 300.11 148.82 300.64 148.53 301.61 147.33 303.1 144.31 
M 270.2 131.81 268.54 131.39 267.24 130.62 266.26 130.38 265.75 130.72 265.58 131.67 
M 195.86 113.59 195.12 112.71 195.06 112.47 195.21 112.33 
M 298.23 187.43 295.77 190.95 294.37 193.57 293.94 194.78 
M 196.8 184.22 195.8 185.1 194.3 185.97 189.56 187.48 187 187.73 
M 180.63 156.66 180.42 156.04 180.71 155.52 181.48 155.34 182.68 155.53 
M 271.49 142.41 270.79 142.25 267.52 142.19 266.29 142.72 265.08 143.69 264.77 144.21 
M 203.78 103.89 202.66 102.27 201.48 99.64 200.77 97.73 200.81 96.86 
M 305.68 194.67 302.04 194.18 301.51 194.23 301.11 194.39 300 195.35 298.44 195.44 
M 267.27 106.62 267.52 105.32 266.61 100.57 266.84 98.64 
M 205.31 151.18 206.62 150.58 207.11 150.18 207.82 148.85 207.96 148.02 207.65 144.84 207.23 143.87 206.75 143.15 206.22 142.81 205.05 142.71 
M 163.96 190.4 163.68 191.74 162.77 193.4 162.42 193.77 161.34 194.22 158.06 194.65 
M 301.33 148.28 303.14 145.43 303.78 143.87 303.55 142.49 303.28 142.18 301.93 141.38 
M 215.49 156.04 215.02 157.16 214.05 158.34 213.61 158.62 213.06 158.61 
M 249.62 116.47 248.58 115.83 246.64 113.94 245.35 112.53 242.66 108.78 240.54 106.99 
M 188.32 202.85 188.09 203.67 187.13 205.1 186.71 206.72 186.01 207.7 
M 303.09 163.71 302.2 162.59 302.29 161.45 303.94 160.24 305 159.05 
M 347.94 132.21 345.5 132.14 344.97 132.25 344.29 133.02 344.25 134.02 
M 188.87 97.49 190.27 95.32 191.24 92.82 192.09 90.3 192.41 88.05 194.41 82.77 194.99 80.01 195.94 77.08 197.81 74.41 198.88 72.52 199.51 70.2 200.65 68.16 201.85 66.58 204.29 61.18 205.6 58.71 206.17 56.48 206.9 55.28 213.86 47.03 215.64 45.7 217.28 45.35 220.16 43.08 222.85 40.25 225.18 38.21 226.28 37.57 227.98 35.93 228.81 34.42 230.7 32.97 233.28 31.53 235.83 31.27 238.56 30 238.87 32.2 240.62 34.99 245.33 46.56 245.06 49.4 245.4 51.77 246.02 53.89 247.11 56.35 248.13 58.16 250.15 60.46 253.06 65.06 254.89 69.99 256.06 71.85 256.28 74.26 257.54 76.54 261.35 80.66 263.68 83.71 265.09 85.83 266.97 89.92 270.98 92.56 275.06 96.59 277.83 98.72 
M 282.51 99.25 282.51 99.25 
M 193.27 97.22 194.66 95.1 197.38 88.1 198.6 82.61 200.67 77.32 201.97 74.88 202.93 72.33 204.47 70.28 205.26 68.72 207.98 64.62 208.64 61.9 208.97 58.56 
M 197.66 96.96 199.25 94.96 200.96 90.11 201.06 87.52 201.84 85.34 203.01 79.96 204.83 76.94 208.85 71.25 210.13 68.8 211.8 66.88 212.62 64.75 213.48 60.3 214.43 58.06 216.65 54.3 219.21 52.94 222.13 52.02 
M 202.06 96.81 203.48 94.7 204.39 92.16 205.63 85.59 206.59 82.39 207.98 79.59 210.79 75.31 211.62 73.66 212.92 70.44 214.22 68.72 216.25 64.02 217.77 61.44 218.81 58.1 220.09 54.82 
M 206.45 96.69 208.18 94.28 209.03 91.85 210.2 84.29 211.64 82.04 213.61 78.11 214.91 75.96 215.63 73.2 217.07 70.31 217.74 67.78 218.74 65.75 220.5 63.63 221.79 60.98 
M 210.85 96.62 211.99 94.62 212.57 92 213.41 89.62 214.01 86.73 215.27 84.45 216.03 82.06 217.41 79.97 218.73 75.4 220.25 72.53 221.86 70.52 222.5 68.03 224.15 66.96 227.75 62.39 229.82 60.73 
M 215.25 96.58 216.18 94.61 216.7 91.94 218.54 86.87 220.78 81.39 221.39 78.84 222.15 76.8 223.61 75.14 225.37 72.57 226.43 70.52 227.6 69.46 230.01 69.04 232.67 66.93 
M 219.65 96.6 220.84 94.85 221.89 92.52 222.63 89.55 225.24 81.07 226.35 79.06 228.01 74.64 229.8 73.46 231.95 72.47 233.34 71.15 234.98 68.33 237.66 66.62 
M 224.05 96.67 225.93 95.23 226.92 92.86 228.01 86.62 229.2 83.6 229.8 81.31 230.07 78.98 231.03 77.35 233.09 75.1 235.17 73.83 237.72 72.98 
M 228.45 96.73 229.93 95.14 230.66 89.85 231.97 87.13 232.86 84.39 235.08 79.86 236.69 77.87 238.72 76.39 241.78 72.99 244.56 72.65 246.74 71.44 
M 232.85 96.77 233.74 95.13 233.94 92.52 234.9 89.87 237.61 85.06 240.68 80.92 
M 237.25 96.76 238.14 94.99 238.92 92.19 239.73 90.17 242.47 86.52 243.68 83.88 245.43 80.93 246.38 78.3 248 75.49 250.77 74.62 
M 241.65 96.63 242.93 94.48 243.37 92 244.36 90.64 245.77 88.14 246.22 85.93 247.61 83.5 249.61 81.26 
M 246.05 96.53 247.48 94.61 247.79 92.55 249.63 87.94 250.35 85.17 251.84 84.44 256.69 78.22 
M 250.45 96.55 251.69 94.96 253.01 90.08 255.55 86.81 
M 254.85 96.59 255.72 95.65 255.91 93.19 257.16 90.79 
M 259.24 96.91 260.31 95.7 261.12 93.33 262.7 91.97 264.86 90.83 
M 263.62 97.23 264.71 96.59 265.56 94.84 268.63 93.89 
M 268 97.66 268.02 97.67 
M 269.97 97.86 271.91 96.75 
M 272.38 98.11 272.38 98.11 
M 276.75 98.59 276.76 98.6 
M 142.1 153.72 204.92 156.46 204.89 157.34 142.02 156.89 
M 142.21 157.25 194.78 163.33 194.7 164.21 141.91 160.4 
M 142.31 160.78 184.53 168.83 184.39 169.7 141.8 163.91 
M 142.42 164.32 174.3 172.96 174.09 173.81 141.7 167.41 
M 142.52 167.87 164.22 175.73 163.96 176.57 141.59 170.9 
M 142.62 171.43 154.44 177.18 154.13 178 141.49 174.38 
M 142.72 176.67 145.09 179.04 144.72 179.83 141.39 179.55 
M 198.61 157.3 196.01 157.53 193.68 158.22 192.67 158.82 191.77 159.61 190.96 160.55 189.52 162.72 
M 189.42 163.83 186.92 163.73 184.64 164.12 183.63 164.58 182.71 165.24 181.86 166.06 180.31 168.02 
M 180.13 169.12 177.77 168.7 175.58 168.79 174.57 169.12 173.64 169.65 172.76 170.36 171.11 172.09 
M 170.86 173.17 168.68 172.46 166.6 172.26 165.62 172.46 164.69 172.86 163.79 173.44 162.05 174.95 
M 161.73 176.01 159.77 175.01 157.84 174.54 156.9 174.61 155.98 174.89 155.06 175.35 153.26 176.61 
M 152.87 177.64 150.92 176.78 149.06 176.44 148.17 176.57 147.31 176.91 146.48 177.42 144.86 178.8 
M 197.29 157.38 194.8 157.8 193.68 158.22 192.67 158.82 191.77 159.61 190.22 161.6 
M 188.16 163.75 185.74 163.84 184.64 164.12 183.63 164.58 182.71 165.24 181.07 167.01 
M 178.94 168.88 176.64 168.66 175.58 168.79 174.57 169.12 173.64 169.65 171.92 171.19 
M 188.87 210.26 192.65 213.94 197.38 220.33 198.85 223.27 200.45 225.98 225.83 265.52 221.2 268.27 220.33 271.1 218.59 273.09 215.97 273.89 211.31 275.94 208.86 276.57 205.9 276.69 200.69 276.4 196.58 274.14 194.4 272.13 190.07 266.47 188.78 264.51 188.08 263.15 184.97 258.71 184.53 257.6 180.9 252.53 167.81 219.82 163.9 212.94 162.44 209.12 160.78 204.07 
M 184.53 209.56 188.97 215 193.82 222.38 197.65 226.68 199.22 229.13 201.75 231.5 203.33 233.71 204.32 236.76 205.53 239.19 207.38 241.74 209.49 244.04 
M 180.19 208.85 182.4 211.46 183.82 214.07 185.52 216.36 187.16 219.01 188.52 221.87 191.46 226.37 192.92 228.95 196.33 234.04 197.6 237.09 199.48 239.28 201.43 244.12 202.91 246.33 204.71 248.63 206.97 250.23 208.35 253.1 
M 175.89 207.92 179.31 213.23 180.37 215.92 184.53 223.5 186.73 225.84 187.84 228.26 190.92 237.49 194.31 242.46 
M 171.6 206.93 173.62 209.83 174.98 212.72 176.24 215.54 177.22 218.16 177.9 220.56 179.07 223.19 180.8 225.75 183.13 227.85 183.39 230.25 183.44 232.66 184.03 235.66 185.58 238.62 187.92 241.1 189.94 246.31 191.22 249.12 193.02 252.03 195.41 255.11 196.83 257.73 197.44 260.02 199.75 264.3 
M 167.34 205.84 168.99 209.31 173.4 220.45 175.18 226.04 175.77 228.62 177.1 231.01 178.59 232.79 179.73 235.41 180.89 238.28 180.94 240.4 182.43 242.7 183.99 246.09 184.57 248.95 
M 163.09 204.69 169.75 222.32 170.56 224.84 171.28 227.99 173.11 233.57 175.34 235.08 177.15 237.93 177.27 239.84 178.42 242.48 179.54 244.2 
M 338.69 197.58 344.51 206.2 346.06 209.58 348.18 211.57 342.8 213.52 340.61 213.68 337.94 214.6 329.51 214.13 326.87 214.49 323.3 214.29 320.61 215.22 319.15 217.48 316.93 218.9 314.26 219.71 312.31 221.44 310.56 223.38 309.09 225.61 308.01 228.27 306.02 230.01 303.18 230.82 300.87 232.15 299.11 234 298.07 236.62 295.44 237.67 293.09 238.98 290.44 239.9 288 241 286.14 242.87 283.55 244.01 280.8 244.81 278.99 246.61 276.85 248.19 275.26 250.32 274.25 253.05 272.92 255.45 269.89 258.44 268.9 260.63 266.86 258.58 265.68 255.85 266.01 252.45 264.88 248.54 261.21 243.23 257.77 235.45 256.15 233.36 254.78 231.27 253.65 228.47 253.05 225.84 251.89 223.1 249.75 220.27 248.67 217.31 248.11 214.87 247.17 212.28 245.06 208.93 
M 334.36 198.38 337.87 203.29 340.8 206.54 
M 330.04 199.19 333.48 203.45 336.32 206.2 338.24 209.88 
M 325.7 199.94 329.3 203.6 
M 321.36 200.67 324.94 203.96 
M 317.04 201.51 320.17 204.8 323.85 210.24 
M 312.73 202.39 316.26 206.32 318.37 209.52 
M 308.44 203.35 311.28 207.72 313.92 210.98 
M 304.16 204.37 307.38 207.98 309.28 211.14 311.39 213.72 
M 299.87 205.34 302.49 209.3 304.54 211.93 306.23 214.73 
M 295.56 206.21 298.54 210.59 300.75 213.2 302.37 216 306.28 220.33 308.3 221.82 
M 291.23 207.02 293.82 211.59 296.22 214.48 300.87 219.39 302.45 221.97 303.54 225.24 304.23 228.47 
M 286.86 207.49 289.59 211.4 297.94 222.26 299.54 225.65 298.99 228.75 
M 282.48 207.95 285.4 211.71 288.45 217.34 290.31 219.71 292.03 222.49 294.77 225 295.98 228.26 
M 278.09 208.2 281.88 214.56 283.05 217.61 284.44 220.5 
M 273.69 208.44 277.66 214.82 278.85 217.43 279.85 220.22 281.93 222.84 283.2 225.02 284.24 227.28 
M 269.3 208.6 271.06 212.7 273.08 215.35 275.29 217.78 277.39 222.37 277.82 224.98 279.15 226.57 281.73 232.86 284.87 236.11 
M 264.9 208.74 266.98 212.51 270.37 217.96 273.17 223.43 273.59 226.42 
M 260.5 208.86 263.69 215.39 266.6 220.5 269.24 226.59 273.65 234.03 275.57 236.77 277.03 239.52 
M 256.1 208.98 258.14 212.62 259.22 215.41 259.71 217.73 261.09 220.63 262.83 223.97 265.05 227.4 266.03 229.6 267.56 232.1 
M 251.7 209 254.46 215.23 255.26 218.12 258.02 223.51 260.19 226.65 261.05 229.71 262.14 232.34 264.31 236.66 265.47 238.87 267.22 241.21 269.27 243.28 
M 247.3 208.95 249.28 212.29 250.21 214.93 250.49 217.68 252.02 220.47 254.26 223.32 255.66 226.03 256.24 228.8 258.9 234.18 
M 357.42 117.95 360.14 116.91 369.26 112.1 376.54 107.46 378.63 105.73 380.9 104.91 385.85 102.63 387.96 101.23 390.08 98.98 392.56 97.76 394.93 95.85 398.52 93.32 400.59 92.22 404.79 88.85 406.85 88 408.8 86.85 411.86 85.63 413.65 83.53 418.95 79.65 424.05 77.29 426.02 75.84 427.33 74.32 429.73 73.85 431.74 72.42 435 71.46 437.3 70.33 441.41 67.12 445.57 61.97 449.83 60.25 451.59 57.83 454.59 56.45 458.35 56.07 461.1 55.5 464.5 51.41 466.35 51.48 468.61 50.84 471.75 48.93 474.28 46.68 478.34 42.69 480.26 41.92 481.98 39.79 482.36 35.52 484.34 54.51 483.32 56.48 482.55 58.69 482.2 61.32 481.53 63.64 480.45 65.53 479.87 67.88 479.92 70.82 479.52 73.32 479.36 76.05 480.21 79.79 480.5 83.09 480 85.65 479.77 88.5 478.82 90.61 477.52 92.39 476.78 94.77 476.67 97.88 475.18 99.61 474.14 101.79 473.77 104.64 473.62 107.7 472.58 109.84 472.48 116.1 471.9 118.8 470.54 120.98 468.91 122.9 467.92 125.45 466.26 127.34 465.94 129.95 466.31 132.67 465.76 134.47 465.68 136.84 465.07 139.38 464.64 145.24 464.1 147.77 464.59 153.71 464.77 159.2 466.13 162.56 466.94 165.36 467.66 170.07 468.02 175.81 467.3 180.49 467.96 182.54 470.71 187.79 471.14 190.19 470.82 192.48 470.07 194.35 470.83 197.73 472.16 207.91 472.21 210.11 471.88 211.84 472.07 214.1 472.75 216.84 473.77 219.93 475.05 225.27 475.31 227.23 478.58 235.63 479.16 237.93 479.48 240.26 480.28 243.08 480.54 245.35 483.58 252.42 483.15 254.78 481.97 256.41 481.12 261.17 480.92 263.78 484.39 280 481.77 277.44 479.46 276.8 477.57 274.87 473.13 272.22 470.18 270.25 468.3 267.8 465.95 266.02 463.06 264.7 457.4 261.12 454.34 258.89 451.84 256.38 449.39 255.17 446.9 253.52 445.04 252.69 443.12 250.54 441.8 249.39 440.23 248.35 436.03 244.04 434.15 242.32 431.55 240.92 427.5 240.37 422.57 237.49 421 235.93 419.77 234.42 418 233.01 415.54 231.9 410.81 227.83 408.15 226.49 405.51 225.73 401.25 223.08 398.99 221.13 394.33 217.54 389.73 214.41 387.66 212.12 385.44 210.53 383.3 208.73 381.08 207.47 377.09 204.58 374.36 203.6 369.63 200.72 364.86 197.31 362.62 195.6 360.49 193.71 357.42 191.55 
M 362.54 119.44 369.65 116.52 372.23 114.94 380.05 110.91 381.82 108.93 383.95 108.6 386.31 107.76 389.1 106.4 391.52 104.4 394.27 103.06 396.88 102.15 400.27 99.85 401.73 99.47 403.93 98.41 406.73 96.73 409.35 94.77 411.93 93.49 419.83 90.81 422.78 88.89 425.5 87.4 427.27 86.61 428.18 85.51 431.99 82.66 441.7 76.88 443.9 76.57 445.66 74.78 446.54 73.11 447.6 71.75 449.82 70.25 
M 360.33 124.43 362.74 123.63 367.35 121.5 370.19 120.59 372.62 119.55 375.12 117.92 382.45 114.38 384.36 113.27 386.76 112.27 392.48 110.26 399.66 107.08 401.36 106.53 403.86 104.76 405.91 104.19 408.62 102.27 413.74 99.3 416.25 98.33 418.38 97.9 419.99 96.08 422.53 94.79 425.45 94.34 428.68 93.43 432.34 93.14 434.37 92 437.21 91.11 442.19 86.99 445.06 85.9 446.41 84.24 448.21 84.03 450.17 82.3 452.43 80.86 455.63 80.84 458.06 80.13 460.82 78.69 462.48 75.94 
M 360.43 128.31 368.57 126.16 373.15 123.8 380.67 120.54 388.51 118.24 390.78 116.94 393.78 116.4 398.65 114.32 406.18 112.05 407.53 110.48 412.26 106.68 415.12 105.67 418.18 105.16 420.7 103.56 425.6 102.12 428.13 101.76 430.68 102 433.76 100.44 436.69 99.33 441.61 96.01 443.91 95.72 448.18 94.48 
M 357.42 132.67 360.41 132.19 363.13 131.45 371.43 129.72 373.82 128.76 376.46 128.21 383.94 125.25 386.84 124.38 391.24 122.45 394.03 122.15 396.36 121.63 398.41 120.59 404.02 118.7 406.78 118.09 411.83 114.91 414.27 114.29 417.52 112.97 420.27 112.23 422.81 112.19 428.13 110.14 433.75 109.25 437.21 108.27 440.43 108.35 442.89 107.22 447.97 102.42 449.42 101.4 451.8 102.32 457.58 102.18 460.4 100.72 462.11 98.36 464.7 97.45 
M 366.2 135.04 369.11 134.58 376.89 132.77 379.42 131.7 381.98 130.09 389.5 127.99 392.31 127.52 398.21 126.87 402.33 125.22 407.23 123.73 409.69 122.46 412.48 121.37 415.01 121.21 421.06 119.67 423.96 119.23 426.69 118.61 428.52 117.66 429.74 116.71 432.46 115.94 435.07 115.34 438.42 114.94 441.44 114.13 443.27 114.37 446.63 112.61 452.72 111.07 454.34 111.06 
M 363.26 139.86 374.11 137.39 376.23 137.3 381.85 135.86 384.88 134.45 387.6 133.97 390.23 134.18 393.2 133.3 396.26 132.91 401.23 133.16 404.18 132.62 409.49 131.05 415.61 128.61 416.56 127.64 418.45 127.21 420.87 127.45 423.84 126.71 426.97 125.1 429.64 125.92 432.21 125.5 441.5 125.31 446.01 123.94 449.05 123.75 451.59 122.86 453.58 121.56 455.94 121.14 458.3 121.02 460.17 119.46 463.56 117.8 467.32 117.67 
M 357.42 143.71 360.57 143.78 363.59 143.6 369.09 142.93 371.77 142.84 376.8 142.11 385.4 140.11 387.9 139.31 390.79 138.78 393.54 138.59 396.74 137.95 401.96 138.02 404.87 137.79 407.34 137.42 409.53 136.71 413.63 137.32 416.14 136.76 
M 360.51 147.44 369.3 146.98 377.27 147.58 383.46 146.79 386.51 146.66 389.37 146.08 392.09 145.06 394.8 145.64 397.63 145.42 402.22 144.16 404.02 144.6 407.16 144.28 410.75 144.42 414.47 144.23 416.8 143.69 419.61 141.93 422.66 141.67 430.03 143.36 432.31 143.65 435.27 143.14 437.17 141.93 438.57 140.41 441.78 140.15 445.43 141.36 448.91 141.22 
M 363.71 151.57 366.66 151.75 372.01 151.38 375.01 151.65 377.5 152.07 380.39 151.84 383.45 151.9 386.61 152.41 389.41 152.01 394.93 151.72 399.21 151.93 401.3 151.78 403.66 151.18 407.41 151.35 411.19 151.76 417.01 151.25 419.07 150.7 419.99 149.92 422.58 149.65 426.59 150.45 429.16 150.32 
M 366.89 155.99 369.77 156.19 372.48 155.93 378.58 155.83 384.24 156.92 389.39 157.35 391.03 157.8 393.09 157.87 395.6 158.42 398.92 158.27 403.88 157.72 407.08 158.61 410.2 158.47 412.22 157.97 414.7 158.31 419.87 157.38 422.82 157.14 426.76 158.16 433.87 158.91 435.83 158.01 438.3 157.53 441.65 157.66 444.46 158.07 446.18 159.74 449.22 159.62 452.33 159.26 454.88 159.93 462.25 159.83 
M 357.42 158.43 360.47 159.33 366.61 159.72 369.6 160.14 372.06 160.87 374.9 161.29 378.09 161.2 382.88 162.43 385.55 162.63 388.37 163.09 391.31 162.99 394.21 162.67 400.19 163.24 402.27 163.21 407.1 163.58 410.27 164.11 413.36 164.96 416.59 165.27 418.09 164.37 425.02 165.5 430.31 167.46 
M 363.74 163.56 369.2 164.3 371.96 164.97 374.61 165.35 376.82 165.86 382.41 166.72 385.66 167.87 391.41 168.67 397.58 168.77 402.14 170.05 404.33 169.77 407.82 170.62 415.95 171.82 418.05 172.8 421.83 172.7 
M 360.7 166.99 363.52 167.46 366.43 168.25 369.29 168.76 371.38 169.66 373.99 170.49 376.75 170.79 382.67 171.9 385.8 172.74 388.54 173.14 391.15 173.17 394.24 173.59 397.11 173.62 399.97 174.32 402.89 176.26 405.77 177.59 408.3 177.56 410.72 178.2 412.73 178.36 415.19 179.07 417.55 179.1 419.53 179.94 422.11 180.51 428.07 181.28 430.27 182.1 433.37 182.53 
M 357.42 169.47 360.67 170.79 363.5 171.5 365.82 172.28 368.43 172.71 374.37 174.85 379.58 176.28 388.19 179.09 393.79 179.08 395.78 179.65 399.24 180.76 401.77 182.51 404.89 183.78 409.99 184.96 411.26 186.3 413.65 186.95 416.71 187.46 419.8 188.52 422.54 189.72 427.31 189.65 
M 357.42 173.15 360.64 174.67 365.83 176.3 368.77 177.03 378.82 180.93 383.71 183.6 386.41 184.69 389.52 184.24 392.5 184.38 396.07 184.98 400.62 188.05 402.93 189.2 407.76 190.26 410.12 191.04 412.62 192.02 418.29 194.74 421.17 195.93 426.7 197.09 429.16 197.9 431.99 198.32 435.91 201.64 438.3 201.73 441.01 202.77 445.63 203.49 
M 363.3 179.46 366.24 180.31 371.29 182.25 375.77 184.59 380.97 186.9 383.47 188.33 386.13 189.48 388.4 189.78 391.26 190.95 394.03 192.42 396.85 193.27 399 193.37 401.86 194.46 404.2 196.17 406.25 197.14 408.44 198.81 412.78 201.24 416.35 202.1 419.22 203.31 427.84 204.99 433.3 206.97 435.96 208.44 438.63 209.59 441.21 210.47 443.63 211.75 446.89 212.47 450.13 212.42 451.92 215.03 457.41 217.31 461.96 217.79 463.8 219.19 464.4 220.23 468.09 221.63 471.81 224.1 
M 362.88 183.69 365.89 184.41 368.37 185.41 373.27 188.41 378.4 190.85 380.81 192.18 383.09 193.14 386.03 194.06 390.28 196.69 392.68 197.8 395.71 198.58 397.8 200.42 400.57 201.94 402.86 202.81 405.35 204.34 410.47 206.38 412.99 207.66 415.93 208.33 418.22 208.43 
M 362.71 187.27 367.13 190.04 375.33 194.48 378.12 195.76 380.77 197.49 385.88 199.76 390.5 202.17 392.34 203.48 394.32 205.24 396.72 206.01 398.98 207.16 400.84 208.64 405.83 210.84 409.41 212.04 411.86 213.85 414.33 215 415.87 216.22 417.94 216.58 420.35 217.34 423.21 218.66 425.64 220.68 429.23 222.96 432.42 224.26 436.99 226.86 438.61 226.7 440.01 227.13 442.02 228.04 444.5 230.9 447.79 231.92 450.38 233.51 453.06 234.58 456.94 236.47 459.37 239.49 461.51 240.92 461.78 241.66 463.98 242.75 466.35 243.31 469.66 245.19 472.36 246.31 475.44 247.92 
M 364.89 192.89 369.55 195.98 372.22 197.98 378.08 200.82 382.23 203.69 386.52 205.63 388.69 206.8 390.05 208.08 391.69 210.14 394.46 211.51 397.15 213.14 405.29 218.69 407.85 219.75 409.99 220.98 412.1 221.92 414.43 223.47 416.79 224.65 419.57 225.74 424.46 228.64 427.17 229.53 431.87 233.69 
M 290.19 98.75 293.77 99.51 295.48 99.13 298.08 96.89 299.71 96.64 302.83 100.93 306.37 101.81 308.29 101.7 311.55 100.25 313.29 100.75 315.37 103.41 316.96 104.46 320.42 105.18 322.13 104.58 325.01 102.85 328.53 106.55 331.97 107.4 333.75 107.4 337.06 106.35 338.67 107.07 341.19 109.81 346.28 111.76 348.05 113.54 
M 46.17 148.07 47.15 146.35 51.48 140.83 54.34 138.43 58.08 136.36 73.63 126.74 79.75 123.49 93.83 117.96 107.84 112.85 126.24 107.39 132.67 105.71 135.23 110.76 135.97 115.67 136.94 120.61 138.14 125.58 138.9 130.5 139.04 135.35 138.73 145 137.59 149.73 136.81 154.49 135.78 159.22 132.8 168.6 132.17 173.37 130.22 182.85 128.77 187.55 126.66 192.17 123.37 196.58 112.1 195.78 103.83 194.57 96.35 192.82 89.45 190.75 83.19 188.43 77.38 185.95 71.93 182.86 67.11 179.78 62.86 176.57 59.3 173.07 
M 115.71 135.7 115.27 139.81 113.42 144.39 
M 106.07 159.16 105.59 162.22 106.04 171.26 105.28 174.94 92.45 174.72 87.17 174.26 81.87 173.47 76.74 172.24 71.81 170.55 67.15 167.99 
M 57.85 172.35 53.26 166.28 43.4 151.53 43.3 149.34 44.96 147.87 47.19 148.24 48.44 150.01 52.2 158.08 54.79 164.14 59.4 173.01 
M 58.92 173.67 54.52 173.18 45.48 171.76 37.09 170.1 35.6 168.49 35.67 166.24 37.32 165.02 39.49 165.54 54.08 171.05 59.13 172.8 
M 75.47 152.12 73.8 145.77 74.27 139.23 76.85 133.2 81.24 128.33 86.98 125.15 93.44 124 99.92 125.02 105.72 128.08 110.22 132.87 112.91 138.85 113.52 145.38 111.97 151.75 108.44 157.28 103.3 161.36 97.12 163.55 90.56 163.62 84.33 161.55 79.11 157.57 75.47 152.12 
M 75.23 151.56 74.43 149.22 73.92 146.8 73.72 144.34 73.82 141.87 74.22 139.44 74.93 137.07 75.92 134.81 77.19 132.69 78.7 130.74 80.45 128.99 82.4 127.48 84.52 126.21 86.78 125.22 89.15 124.51 91.58 124.11 94.05 124.01 96.51 124.21 98.93 124.72 101.27 125.52 
M 76.85 150.88 76.12 148.75 75.66 146.55 75.48 144.31 75.57 142.06 75.94 139.84 76.58 137.68 77.49 135.62 78.64 133.68 80.02 131.9 81.61 130.31 83.39 128.93 85.32 127.78 87.39 126.87 89.55 126.23 91.77 125.86 94.02 125.77 96.26 125.95 98.46 126.41 100.59 127.14 
M 78.48 150.21 77.82 148.29 77.4 146.3 77.23 144.27 77.32 142.24 78 139.07 
M 81.99 132.42 84.38 130.38 86.13 129.34 87.99 128.52 89.94 127.94 91.95 127.61 93.98 127.53 96.01 127.69 98 128.11 99.92 128.77 
M 80.11 149.54 79.52 147.82 79.14 146.04 78.99 144.23 79.07 142.42 79.67 139.61 
M 83.3 133.59 85.38 131.84 86.94 130.91 88.6 130.18 90.34 129.66 92.13 129.36 93.94 129.28 95.75 129.43 97.53 129.81 99.25 130.4 
M 81.73 148.86 81.21 147.35 80.75 144.2 80.82 142.6 81.37 140.06 
M 84.75 134.62 86.37 133.29 87.74 132.47 90.74 131.37 93.91 131.04 95.5 131.18 98.57 132.02 
M 83.36 148.19 82.91 146.89 82.51 144.16 82.57 142.78 83.11 140.36 
M 86 135.86 87.36 134.74 88.55 134.04 91.13 133.09 93.87 132.8 95.24 132.92 97.9 133.65 
M 86.37 147.21 85.7 144.67 85.89 142.05 86.3 141.11 
M 88.17 138.26 88.68 137.69 90.98 136.42 93.56 135.96 96.15 136.37 98.47 137.59 100.27 139.5 101.35 141.9 101.59 144.51 100.97 147.06 99.56 149.27 97.5 150.9 95.03 151.78 92.41 151.81 89.92 150.98 87.83 149.39 86.37 147.21 
M 86.41 141.14 85.88 142.2 
M 89.76 137.09 88.82 138.97 
M 87.43 141.74 85.79 145.02 
M 91.46 136.33 89.68 139.89 
M 88.45 142.35 86.25 146.74 
M 92.9 136.08 90.55 140.79 
M 89.53 142.82 86.93 148.03 
M 94.23 136.06 91.45 141.63 
M 90.64 143.25 87.68 149.16 
M 95.45 136.26 92.35 142.46 
M 91.75 143.66 88.6 149.97 
M 96.6 136.6 93.26 143.28 
M 92.92 143.97 89.55 150.7 
M 97.65 137.15 94.17 144.1 
M 94.08 144.28 90.62 151.21 
M 98.65 137.78 91.75 151.59 
M 99.51 138.7 92.96 151.8 
M 100.35 139.67 94.29 151.79 
M 100.97 141.06 95.74 151.53 
M 101.43 142.78 97.34 150.96 
M 101.31 145.66 99.47 149.34 
M 59.3 173.07 59.48 173.25 
M 47.69 145.62 51.07 149 
M 49.99 142.64 53.65 146.3 
M 52.56 139.92 56.83 144.2 
M 55.63 137.71 59.92 142.01 
M 59 135.8 62.52 139.33 
M 62.28 133.81 67.18 138.71 
M 65.54 131.79 68.87 135.12 
M 68.78 129.75 71.99 132.95 
M 72.04 127.73 77.16 132.85 
M 75.4 125.81 78.66 129.07 
M 78.85 123.97 82.12 127.25 
M 82.53 122.38 85.9 125.75 
M 86.3 120.86 89.68 124.25 
M 90.1 119.39 94.95 124.24 
M 93.92 117.93 98 122.01 
M 97.78 116.51 100.59 119.32 
M 101.65 115.1 104.49 117.94 
M 105.52 113.69 109.89 118.06 
M 109.46 112.35 114.06 116.95 
M 113.49 111.1 116.78 114.39 
M 117.59 109.92 122.22 114.55 
M 121.71 108.76 124.89 111.94 
M 125.76 107.53 129.01 110.78 
M 129.9 106.39 133.97 110.46 
M 105 121.16 102.26 117.41 101.55 116.72 100.06 115.67 
M 119.18 178.57 119.21 177.99 119.52 177.63 120.97 176.82 122.65 176.16 123.79 176.2 
M 110.36 121.56 106.7 118.58 105.6 116.84 104.95 116.19 102.43 114.81 
M 50.13 149.46 48.2 149.68 
M 127.82 173.2 126.61 173.67 125.6 174.84 123.78 176.32 
M 65.38 144.66 64.81 144.73 63.52 144.46 62.1 143.75 60.24 142.21 58.47 141.59 
M 75.85 182.35 77.34 180.69 79.67 176.83 80.15 176.44 81.23 176.16 
M 80.35 182.09 82.84 181.6 83.78 180.82 86.62 179.04 88.52 177.38 89.31 176.29 
M 126.79 143.11 126.04 143.48 125.66 143.88 124.33 146.42 
M 129.5 147.43 126.6 148.53 125.09 149.34 123.63 150.58 123.33 151.02 123.17 151.82 
M 107.4 190.07 106.26 188.72 104.04 186.56 103.11 184.76 103.07 183.84 103.53 183.13 104.16 182.42 105.59 181.26 
M 115.78 182.53 114.49 182.14 113.56 182.25 111.01 183.89 
M 76.47 125.24 77.79 126.22 78.08 126.22 78.27 126.04 
M 62.55 161.92 63.09 161.38 66.18 159.95 66.61 159.46 67.34 158.1 67.53 156.29 67.27 154.09 66.39 152.18 
M 110.26 178.93 109.88 178.87 109.62 178.48 109.25 176.92 108.82 176.04 107.07 174.1 106.56 173.11 
M 122.91 121.12 123.23 121.49 123.67 121.29 
M 103.43 182.7 105.64 180.82 106.52 179.38 106.94 177.9 107.05 176.45 105.95 173.96 105.3 171.75 
M 117.31 179.19 117.09 178.66 117.28 177.76 118.35 176.85 119.95 176.34 123.37 175.96 
M 130.21 132.54 129.75 132.5 127.29 132.98 126.29 133.28 125.98 133.51 
M 64.44 168.87 64.37 167.3 65.29 166.13 
M 105.78 189.49 104.75 188.65 102.09 186.95 100.89 185.44 100.64 184.59 100.75 183.75 101.17 182.98 104.55 180.38 
M 83.4 177.62 84.42 176.52 84.92 175.6 85.52 172 85.66 169.28 85.37 168.62 84.39 167.71 
M 115.71 123.7 114.99 123.64 110.33 121.62 107.22 119.23 106.11 118 
M 121.41 171.27 124.06 172.78 125.84 173.27 125.92 174.23 125.57 174.82 
M 131.52 153.96 130.24 154.37 127.39 154.31 126 154.58 124.51 153.97 
M 66.49 175.43 66.01 174.24 63.88 171.7 63.06 170.44 63.01 169.65 64.06 167.72 
M 128.53 183.58 126.48 183.54 125.59 183 124.53 180.75 123.71 179.65 122.83 178.88 122.33 177.87 
M 86.29 186.04 86.65 185.52 87.22 185.11 88.7 184.31 89.73 184.13 90.76 184.61 
M 55.38 155.22 55.32 156.45 54.96 156.93 54.38 156.98 52.85 156.65 
M 133.3 111.83 131.36 109.09 130.99 108.29 130.86 107.35 131.03 106.11 
M 112.22 150.73 113.35 151.31 
M 124.76 133.4 124.67 133.51 
M 109.19 118.77 107.4 116.8 104.99 115.89 
M 66.87 142.63 64.8 142.79 63.6 142.33 62.45 141.5 61.29 141.13 60.14 140.98 
M 56.98 146.5 57.27 145.43 57.35 144.24 57.1 143.11 56.87 142.75 56.19 142.44 55.39 142.49 53.34 143.33 
M 119.57 166.01 120.14 165.16 120.82 162.89 121.78 161.48 122.18 161.26 123.07 161.18 123.92 161.32 124.34 161.61 
M 77.49 157.8 78.13 158.25 79.44 160.27 79.64 160.93 79.6 161.64 78.74 163.46 77.08 165.76 76.82 166.43 
M 69.76 139.94 69.46 140.4 69.16 141.51 
M 106.07 167.98 103.66 167.25 103.15 167.31 101.87 167.85 99.34 167.78 
M 67.62 179.8 66.31 177.92 64.8 174.71 63.24 172.56 62.55 171.33 62.2 170.36 62.4 169.38 
M 107.27 127.78 105.35 127.89 
M 114.5 181.96 114.02 181.96 113.2 182.27 111.09 183.59 110.68 184.12 
M 74.91 132.71 75.36 132.36 75.87 132.22 77.54 132.43 
M 122.83 134.02 123.71 134.78 124 135.31 124.1 136.09 123.95 138.19 124.15 139.88 
M 67.2 150.62 66.33 150.17 65.61 150.05 63.65 150.2 63.12 150.85 62.86 152.53 
M 102.46 185.02 102.29 184.04 102.59 183.27 103.18 182.52 105.49 180.57 106.33 179.04 106.77 176.77 106.7 175.98 105.7 173.51 
M 61.42 154.63 61.92 155.13 62.37 156.21 
M 111.1 183.49 110.62 184.04 110.57 184.71 111.31 185.52 112.19 185.85 
M 134.09 157.34 133.71 157.87 133.18 158.05 131.84 157.99 130.13 157.53 129 158 
M 132.24 114.89 129.88 112.86 128.29 111.02 127.56 109.89 127.26 109.04 127.36 107.09 
M 113.85 137.95 112.88 138.78 
M 92.66 171.17 92.24 172.7 92.01 175.88 91.71 176.39 91.1 176.94 90.79 177.1 90.52 177.04 
M 108.02 114.24 107.54 115.27 107.26 116.34 106 116.31 
M 112.33 118.37 110.7 117.47 108.75 117.12 107.86 116.65 
M 103.79 124.05 101.89 122.59 101.15 121.74 99.19 118.45 98.71 116.17 
M 106.69 122.62 104.52 120.27 102.48 117.41 101.8 116.73 100.18 115.63 
M 137.55 137.84 138.29 137.08 138.37 136.68 138.23 136.24 137.46 135.21 135.68 133.76 
M 115.93 155.22 116.59 153.56 117.68 152.64 118.65 152.37 120.58 152.5 
M 126.87 145.29 125.77 146.02 123.56 148.82 123.14 149.65 123 150.86 
M 127.02 130.52 126.55 132.45 126.02 133.08 
M 65.2 146.13 64.25 145.98 62.99 145.32 61.63 144.22 60.16 142.6 58.79 141.96 
M 128.1 180.86 126.6 181.03 125.77 180.68 124.39 179.47 123.02 178.55 122.6 177.71 122.84 176.87 
M 79.1 180.79 81.85 179.81 85.21 178.96 86.64 177.94 88.34 176.04 
M 59.29 173.08 59.7 173.78 
M 56 169.93 55.96 170.15 56.12 170.09 
M 53.17 166.12 52.67 167.28 53.28 166.75 53.55 166.69 
M 50.71 162.36 49.96 163.05 49.38 164.41 50.23 163.5 51.26 163.15 
M 48.17 158.74 46.91 159.8 46.09 161.54 47.18 160.25 48.76 159.62 
M 45.74 155.07 43.85 156.55 42.8 158.67 44.12 157 46.37 156.02 
M 43.4 151.36 40.8 153.3 39.51 155.81 41.07 153.75 43.99 152.41 
M 59.08 172.98 60.1 173.24 
M 54.65 171.25 55.09 170.77 55.7 170.43 55.6 170.9 55.78 171.63 
M 50.55 169.72 51.19 168.58 52.16 167.84 51.7 168.71 51.71 170.15 
M 46.49 168.14 47.28 166.39 48.61 165.25 47.79 166.52 47.64 168.56 
M 42.39 166.65 43.38 164.2 45.06 162.66 43.89 164.33 43.57 167.05 
M 38.27 165.25 39.47 162.01 41.52 160.07 39.98 162.14 39.49 165.54 
M 43.95 171.46 49.1 174.6 52.71 176.59 56.38 178.33 60.12 179.75 63.98 180.92 71.93 182.86 
M 71.93 182.86 71.93 182.86 
M 135.94 115.5 136.1 115.66 
M 133.06 105.58 138.49 111.01 
M 138.88 104.36 146.66 112.14 
M 144.92 103.35 153.54 111.98 
M 151.21 102.61 158.92 110.32 
M 157.59 101.95 163.86 108.22 
M 163.81 101.13 171.76 109.08 
M 169.87 100.15 180.41 110.69 
M 175.94 99.18 186.41 109.65 
M 182.1 98.29 192.23 108.43 
M 188.39 97.55 194.71 103.87 
M 195 97.12 200.44 102.56 
M 201.74 96.82 210.15 105.23 
M 208.61 96.65 217.09 105.13 
M 215.57 96.57 225.4 106.4 
M 222.69 96.65 231.43 105.39 
M 229.82 96.74 239.17 106.09 
M 236.89 96.77 244.71 104.59 
M 243.73 96.57 252.73 105.57 
M 250.75 96.55 261.13 106.93 
M 258.06 96.82 265.31 104.07 
M 265.71 97.43 272.54 104.26 
M 273.55 98.23 280.47 105.15 
M 281.49 99.13 289.78 107.42 
M 289.53 100.13 299.39 109.99 
M 298.01 101.57 307.69 111.25 
M 306.94 103.46 312.68 109.2 
M 316.04 105.52 325.37 114.85 
M 325.01 107.45 332.31 114.75 
M 334 109.41 341.26 116.66 
M 343.78 112.14 352.73 121.1 
M 355.92 117.24 362.93 124.25 
M 132.37 196.39 132.92 197.49 
M 129.63 184.75 130.96 187.41 
M 131.75 188.98 133.32 192.13 
M 132.9 185.13 136.05 191.43 
M 138 189.15 138.78 190.73 
M 150.81 196.3 151.6 197.88 
M 152.7 193.92 155.85 200.22 
M 136.59 155.54 138.04 158.43 
M 156.14 194.64 157.71 197.79 
M 139.06 154.32 140.63 157.47 
M 158.74 193.68 159.52 195.25 
M 153.28 176.6 157.4 184.84 
M 163.69 197.43 165.27 200.58 
M 141.89 147.67 144.25 152.39 
M 155.6 175.08 156.85 177.58 
M 157.63 179.15 158.42 180.73 
M 140.58 138.88 146.88 151.48 
M 158.46 174.64 158.68 175.09 
M 140.85 133.27 141.64 134.84 
M 142.43 136.42 143.21 137.99 
M 145.57 142.71 149.51 150.58 
M 163.68 178.92 166.04 183.64 
M 136.51 118.43 138.76 122.93 
M 140.34 126.08 141.12 127.65 
M 142.7 130.8 145.06 135.52 
M 148.21 141.82 154.5 154.41 
M 166.31 178.02 169.46 184.32 
M 133.16 105.56 133.55 106.34 
M 137.49 114.22 139.85 118.94 
M 141.42 122.09 146.93 133.1 
M 152.44 144.12 157.95 155.14 
M 168.18 175.61 171.33 181.9 
M 135.94 104.97 137.91 108.91 
M 140.27 113.63 149.72 132.52 
M 154.44 141.97 159.95 152.98 
M 170.97 175.02 173.33 179.75 
M 174.12 181.32 174.9 182.89 
M 138.73 104.39 141.49 109.9 
M 143.06 113.05 149.36 125.64 
M 158.01 142.95 161.95 150.83 
M 141.52 103.8 144.27 109.31 
M 145.06 110.89 152.14 125.05 
M 162.38 145.52 163.95 148.67 
M 174.27 169.3 174.97 170.7 
M 144.4 103.41 155.03 124.66 
M 164.47 143.55 166.84 148.28 
M 147.31 103.07 150.85 110.15 
M 152.43 113.3 158.73 125.9 
M 166.6 141.64 168.17 144.79 
M 150.22 102.73 153.76 109.81 
M 155.34 112.96 161.63 125.55 
M 166.36 135 168.72 139.72 
M 169.5 141.3 170.29 142.87 
M 176.59 155.46 177.13 156.54 
M 189.97 182.22 190.76 183.8 
M 153.14 102.41 156.68 109.49 
M 157.47 111.07 164.55 125.23 
M 169.28 134.68 171.64 139.4 
M 177.93 151.99 180.26 156.65 
M 184.12 164.36 189.74 175.61 
M 191.32 178.76 193.68 183.48 
M 201.55 199.22 202.33 200.79 
M 156.07 102.11 169.06 128.08 
M 172.99 135.95 174.57 139.1 
M 176.14 142.25 176.93 143.82 
M 180.86 151.69 183.4 156.76 
M 187.16 164.29 192.67 175.3 
M 195.03 180.03 196.6 183.18 
M 203.69 197.34 206.05 202.07 
M 159 101.8 171.2 126.2 
M 175.92 135.65 186.53 156.87 
M 189.51 162.83 194.81 173.43 
M 204.26 192.32 205.83 195.47 
M 210.55 204.91 211.34 206.48 
M 161.9 101.44 173.31 124.26 
M 176.46 130.56 177.24 132.14 
M 178.03 133.71 181.97 141.58 
M 183.54 144.73 185.12 147.88 
M 187.48 152.6 189.67 156.98 
M 191.27 160.19 194.56 166.77 
M 204.01 185.66 205.58 188.81 
M 207.15 191.95 210.3 198.25 
M 164.75 100.98 171.44 114.36 
M 173.01 117.51 177.73 126.95 
M 179.31 130.1 185.6 142.69 
M 190.33 152.14 192.8 157.09 
M 193.44 158.36 197.41 166.31 
M 207.64 186.77 208.43 188.35 
M 210.79 193.07 211.58 194.64 
M 217.87 207.24 218.77 209.02 
M 167.6 100.52 170.35 106.03 
M 171.93 109.18 172.71 110.75 
M 173.5 112.33 175.07 115.47 
M 178.22 121.77 179.8 124.92 
M 181.37 128.07 182.16 129.64 
M 183.73 132.79 185.31 135.94 
M 192.39 150.11 193.96 153.25 
M 197.9 161.13 200.26 165.85 
M 203.41 172.14 204.2 173.72 
M 220.73 206.78 222.22 209.76 
M 170.45 100.06 170.84 100.85 
M 174.78 108.72 175.56 110.29 
M 176.35 111.87 178.71 116.59 
M 196.03 151.22 199.18 157.52 
M 224.36 207.89 225.16 209.5 
M 178.41 109.83 179.2 111.41 
M 184.71 122.43 187.07 127.15 
M 188.65 130.3 189.43 131.87 
M 194.16 141.32 202.03 157.06 
M 216.19 185.39 216.98 186.97 
M 176.15 99.14 182.84 112.52 
M 184.41 115.67 192.28 131.41 
M 198.58 144.01 205.66 158.17 
M 216.68 180.21 220.62 188.08 
M 179 98.68 197.49 135.68 
M 201.43 143.55 202.22 145.12 
M 205.37 151.42 209.3 159.29 
M 211.66 164.01 212.45 165.59 
M 219.53 179.75 222.68 186.05 
M 181.9 98.32 201.18 136.88 
M 209.05 152.63 211.41 157.35 
M 213.77 162.07 216.13 166.79 
M 223.22 180.96 224 182.54 
M 184.8 97.97 188.34 105.06 
M 189.92 108.2 202.51 133.39 
M 211.96 152.28 214.32 157 
M 216.68 161.73 218.25 164.87 
M 224.55 177.47 227.7 183.76 
M 187.71 97.63 188.89 99.99 
M 192.83 107.86 205.42 133.05 
M 227.46 177.12 228.24 178.7 
M 238.48 199.16 239.26 200.73 
M 190.57 97.18 192.54 101.12 
M 196.47 108.99 208.28 132.6 
M 211.43 138.9 212.21 140.47 
M 191.86 93.61 195.41 100.7 
M 198.55 106.99 200.92 111.72 
M 201.7 113.29 215.87 141.63 
M 192.87 89.47 197.99 99.7 
M 201.14 106 202.71 109.15 
M 205.07 113.87 207.43 118.59 
M 209.01 121.74 219.24 142.21 
M 231.05 165.82 235.77 175.26 
M 194.2 85.97 200.1 97.77 
M 207.19 111.94 207.97 113.51 
M 209.55 116.66 216.63 130.83 
M 218.21 133.98 220.57 138.7 
M 222.93 143.42 226.08 149.72 
M 229.22 156.02 230.01 157.59 
M 230.8 159.16 240.24 178.05 
M 241.82 181.2 242.6 182.78 
M 254.41 206.39 255.71 208.99 
M 195.24 81.88 204.29 99.98 
M 209.01 109.43 211.37 114.15 
M 212.94 117.3 218.45 128.32 
M 220.03 131.46 229.47 150.35 
M 230.26 151.93 235.77 162.95 
M 238.92 169.24 241.28 173.97 
M 243.64 178.69 245.22 181.84 
M 257.02 205.45 258.75 208.91 
M 196.7 78.64 210.47 106.19 
M 212.04 109.34 221.49 128.23 
M 222.28 129.8 238.02 161.28 
M 243.53 172.3 244.32 173.88 
M 245.1 175.45 248.25 181.75 
M 260.06 205.36 261.79 208.83 
M 198.83 76.74 213.78 106.65 
M 216.93 112.95 223.23 125.54 
M 230.31 139.71 232.67 144.43 
M 235.03 149.15 239.75 158.6 
M 200.93 74.78 211.16 95.25 
M 212.73 98.4 218.24 109.42 
M 219.82 112.56 226.9 126.73 
M 230.84 134.6 231.62 136.18 
M 232.41 137.75 234.77 142.47 
M 239.49 151.92 241.07 155.07 
M 207.38 81.52 208.16 83.1 
M 208.95 84.67 212.89 92.54 
M 213.67 94.11 229.41 125.6 
M 230.2 127.17 231.78 130.32 
M 234.14 135.04 238.07 142.91 
M 261.69 190.14 262.47 191.71 
M 210.53 81.67 212.11 84.82 
M 212.89 86.39 214.47 89.54 
M 215.25 91.11 231.78 124.17 
M 235.72 132.04 244.38 149.36 
M 264.05 188.71 265.63 191.86 
M 267.2 195.01 268.77 198.16 
M 270.35 201.31 271.14 202.88 
M 204.49 63.43 205.67 65.8 
M 211.18 76.82 214.33 83.11 
M 218.27 90.98 219.84 94.13 
M 220.63 95.71 232.43 119.32 
M 233.22 120.89 234.8 124.04 
M 237.94 130.34 241.09 136.63 
M 242.67 139.78 245.82 146.08 
M 255.26 164.97 256.83 168.12 
M 267.07 188.58 267.85 190.15 
M 268.64 191.73 271.79 198.03 
M 205.91 60.12 207.88 64.05 
M 212.6 73.5 217.33 82.94 
M 222.84 93.96 234.64 117.57 
M 236.22 120.72 238.58 125.44 
M 239.36 127.02 243.3 134.89 
M 256.68 161.65 259.83 167.95 
M 264.55 177.39 265.34 178.96 
M 270.85 189.98 274.78 197.85 
M 207.54 57.2 211.08 64.29 
M 214.23 70.58 220.52 83.18 
M 222.89 87.9 240.99 124.1 
M 242.56 127.25 244.14 130.4 
M 244.92 131.98 248.07 138.27 
M 259.88 161.88 263.03 168.18 
M 266.96 176.05 268.54 179.2 
M 273.26 188.65 274.83 191.79 
M 209.47 54.91 213.8 63.56 
M 214.58 65.14 215.37 66.71 
M 217.73 71.43 223.24 82.45 
M 225.6 87.18 243.71 123.38 
M 245.28 126.53 249.22 134.4 
M 261.81 159.59 263.38 162.74 
M 266.53 169.03 271.25 178.48 
M 272.04 180.05 274.4 184.77 
M 211.35 52.51 218.04 65.89 
M 220.4 70.61 225.13 80.06 
M 228.27 86.36 252.67 135.16 
M 256.61 143.03 257.4 144.6 
M 264.48 158.77 266.05 161.92 
M 268.41 166.64 271.56 172.94 
M 273.14 176.08 276.29 182.38 
M 214.5 52.64 220.01 63.66 
M 223.15 69.96 249.13 121.9 
M 249.91 123.48 253.85 131.35 
M 257.79 139.22 262.51 148.67 
M 266.44 156.54 268.02 159.68 
M 272.74 169.13 273.53 170.7 
M 278.25 180.15 279.04 181.72 
M 217.45 52.39 219.81 57.11 
M 221.39 60.26 222.17 61.83 
M 223.75 64.98 224.53 66.56 
M 225.32 68.13 248.93 115.36 
M 252.87 123.23 256.02 129.52 
M 259.17 135.82 264.68 146.84 
M 270.18 157.86 270.97 159.43 
M 285.14 187.77 285.93 189.34 
M 220 51.33 222.36 56.06 
M 225.51 62.35 227.09 65.5 
M 228.66 68.65 250.7 112.73 
M 261.72 134.76 271.16 153.65 
M 222.21 49.58 225.35 55.88 
M 228.5 62.18 230.86 66.9 
M 231.65 68.47 251.33 107.83 
M 256.05 117.27 259.99 125.14 
M 269.43 144.03 273.37 151.9 
M 290.68 186.53 293.04 191.26 
M 223.43 45.88 228.94 56.9 
M 230.52 60.05 241.54 82.08 
M 244.69 88.38 263.58 126.16 
M 271.45 141.9 275.38 149.77 
M 293.48 185.98 296.63 192.28 
M 302.29 203.6 302.84 204.69 
M 225.54 43.93 241.28 75.41 
M 242.07 76.99 245.22 83.29 
M 246.79 86.43 250.73 94.3 
M 252.3 97.45 258.6 110.05 
M 261.75 116.34 266.47 125.79 
M 275.13 143.1 279.06 150.97 
M 296.38 185.61 298.74 190.33 
M 305.12 203.08 305.59 204.03 
M 228.57 43.83 249.82 86.33 
M 254.55 95.78 262.42 111.52 
M 263.2 113.1 268.71 124.11 
M 278.94 144.58 281.31 149.3 
M 286.03 158.75 286.82 160.32 
M 298.62 183.93 300.2 187.08 
M 228.92 38.37 253.32 87.16 
M 254.1 88.74 255.68 91.89 
M 256.47 93.46 269.85 120.22 
M 280.87 142.26 283.23 146.98 
M 293.46 167.45 298.18 176.89 
M 302.9 186.34 305.26 191.06 
M 230.64 35.65 253.86 82.09 
M 254.65 83.66 274.32 123.02 
M 275.9 126.17 276.69 127.74 
M 277.47 129.31 278.26 130.89 
M 282.98 140.33 284.56 143.48 
M 292.43 159.22 299.51 173.39 
M 307.38 189.13 308.96 192.28 
M 234.23 36.66 266.5 101.2 
M 268.86 105.92 276.73 121.67 
M 277.52 123.24 286.96 142.13 
M 294.83 157.87 299.55 167.32 
M 302.7 173.61 303.49 175.19 
M 237.09 36.23 245.09 52.22 
M 251.97 65.98 253.57 69.19 
M 259.75 81.54 262.5 87.05 
M 263.29 88.63 268.01 98.07 
M 271.95 105.94 277.46 116.96 
M 280.6 123.26 290.05 142.15 
M 293.2 148.45 300.28 162.61 
M 304.22 170.48 306.58 175.21 
M 238.52 32.93 238.63 33.16 
M 268.96 93.81 270.93 97.75 
M 275.65 107.19 279.59 115.06 
M 280.37 116.63 281.16 118.21 
M 281.95 119.78 285.88 127.65 
M 288.24 132.38 296.11 148.12 
M 296.9 149.69 299.26 154.41 
M 306.35 168.58 310.28 176.45 
M 277.83 105.4 280.2 110.12 
M 281.77 113.27 288.07 125.86 
M 292.79 135.31 303.02 155.77 
M 308.53 166.79 311.68 173.09 
M 277.56 98.69 277.95 99.47 
M 281.1 105.77 290.54 124.66 
M 294.48 132.53 299.99 143.55 
M 305.5 154.57 307.07 157.72 
M 311.01 165.59 314.16 171.88 
M 314.94 173.46 315.73 175.03 
M 280.82 99.06 282 101.42 
M 282.79 102.99 289.88 117.16 
M 298.53 134.48 302.47 142.35 
M 307.98 153.37 309.55 156.51 
M 314.27 165.96 316.64 170.68 
M 284.1 99.45 284.49 100.24 
M 285.28 101.81 293.15 117.55 
M 302.6 136.44 304.17 139.59 
M 308.89 149.04 315.98 163.2 
M 287.39 99.86 295.65 116.39 
M 305.09 135.28 307.46 140 
M 315.33 155.74 316.9 158.89 
M 290.67 100.27 291.07 101.06 
M 293.43 105.78 298.94 116.8 
M 306.81 132.54 309.17 137.27 
M 313.1 145.14 313.89 146.71 
M 315.46 149.86 320.19 159.31 
M 294.03 100.83 294.42 101.62 
M 296 104.76 304.65 122.08 
M 307.02 126.8 310.95 134.67 
M 314.89 142.54 322.76 158.29 
M 330.63 174.03 331.42 175.6 
M 297.82 102.25 305.69 117.99 
M 306.48 119.57 307.26 121.14 
M 308.84 124.29 312.77 132.16 
M 318.28 143.18 330.09 166.79 
M 331.66 169.94 334.03 174.66 
M 342.68 191.98 343.47 193.55 
M 300.82 102.1 309.88 120.2 
M 311.45 123.35 315.38 131.22 
M 316.17 132.79 316.96 134.37 
M 320.89 142.24 327.19 154.83 
M 327.98 156.41 332.7 165.85 
M 335.06 170.57 337.42 175.3 
M 344.51 189.46 346.94 194.33 
M 304.29 102.86 311.76 117.82 
M 314.91 124.12 335.38 165.04 
M 344.03 182.36 346.4 187.08 
M 347.97 190.23 348.76 191.8 
M 307.76 103.65 314.45 117.03 
M 316.81 121.75 322.32 132.77 
M 323.11 134.34 325.47 139.07 
M 327.83 143.79 334.91 157.96 
M 338.06 164.25 338.85 165.83 
M 344.36 176.85 345.93 179.99 
M 347.51 183.14 351.44 191.01 
M 311.23 104.43 312.41 106.79 
M 313.2 108.37 326.58 135.13 
M 330.51 143 337.6 157.17 
M 339.96 161.89 341.53 165.04 
M 347.83 177.63 349.4 180.78 
M 350.98 183.93 351.76 185.5 
M 314.7 105.22 315.1 106.01 
M 317.46 110.73 320.61 117.03 
M 321.39 118.6 326.9 129.62 
M 327.69 131.19 329.27 134.34 
M 332.41 140.64 334.77 145.36 
M 335.56 146.94 341.86 159.53 
M 343.43 162.68 345.01 165.82 
M 351.3 178.42 352.88 181.57 
M 318.18 106.01 318.57 106.79 
M 324.08 117.81 325.66 120.96 
M 336.67 143 339.82 149.3 
M 341.4 152.45 342.97 155.59 
M 354.78 179.21 355.56 180.78 
M 321.63 106.75 322.02 107.54 
M 325.17 113.84 329.9 123.28 
M 334.62 132.73 342.49 148.47 
M 356.66 176.8 357.44 178.38 
M 358.23 179.95 359.02 181.53 
M 325.46 108.25 333.33 123.99 
M 337.26 131.86 345.92 149.17 
M 356.94 171.21 360.88 179.08 
M 328.5 108.16 337.55 126.27 
M 340.69 132.56 343.06 137.28 
M 343.84 138.86 349.35 149.88 
M 351.71 154.6 352.5 156.17 
M 359.58 170.34 363.52 178.21 
M 331.96 108.94 341.8 128.61 
M 342.59 130.19 344.95 134.91 
M 348.88 142.78 352.03 149.08 
M 353.61 152.23 356.76 158.52 
M 363.84 172.69 364.63 174.27 
M 335.44 109.73 343.71 126.26 
M 345.28 129.41 346.07 130.99 
M 351.58 142.01 354.72 148.3 
M 357.09 153.02 358.66 156.17 
M 364.96 168.77 366.78 172.41 
M 338.93 110.56 345.62 123.94 
M 360.58 153.85 362.15 157 
M 342.61 111.76 349.3 125.14 
M 350.09 126.72 350.88 128.29 
M 351.67 129.86 353.24 133.01 
M 346.3 112.96 356.92 134.21 
M 350.16 114.53 359.21 132.63 
M 363.14 140.5 363.93 142.08 
M 354.19 116.42 356.94 121.93 
M 358.51 125.08 362.45 132.95 
M 363.24 134.53 366.39 140.82 
M 358.78 119.46 366.78 135.45 
M 365.69 127.11 366.78 129.29 
"/></svg>