<svg xmlns="http://www.w3.org/2000/svg" width="520" height="320"><rect x="0" y="0" width="520" height="320" fill="floralwhite"/><rect x="10" y="10" width="500" height="300" stroke="black" stroke-width="1" fill="none"/><path stroke="black" stroke-width="1" fill="none" stroke-linecap="round" stroke-linejoin="round" d="
M 184.85 125.53 191.5 120.19 198.1 115.41 204.7 111.06 217.91 103.06 224.51 99.83 231.11 97.46 237.72 95.67 257.52 94.8 264.13 96.35 270.73 99.42 277.33 103.21 290.54 111.66 297.14 115.67 303.74 120.32 323.55 136.41 344.22 152.22 
M 344.22 209.96 330.15 223.16 323.55 229.09 316.95 234.52 310.34 239.67 303.74 244.12 290.54 252.39 283.93 255.43 277.33 258.08 270.73 260.47 264.13 261.72 257.52 262.58 250.92 262.22 244.32 262.23 237.72 262.5 231.11 260.81 224.51 258.03 217.91 254.8 211.3 251.23 204.7 248.13 198.1 244.46 191.5 239.77 178.31 228.67 
M 186.47 128.93 186.57 127.97 186.11 126.8 185.4 125.77 184.96 125.45 
M 188.71 138.27 188.98 137.69 188.98 137.04 188.24 135.69 
M 190.26 145.43 190.18 145.09 
M 185.34 126.21 185.78 125.78 186.49 124.22 
M 188.43 135.58 188.91 135.19 189.52 134.19 189.91 133.06 189.91 132.37 189.52 131.24 188.91 130.24 188.43 129.85 
M 190.28 143.97 190.78 143.63 191.42 142.74 191.84 141.74 191.84 141.12 191.42 140.12 190.78 139.24 190.28 138.9 
M 191.4 151.48 192.34 150.55 192.78 149.66 192.78 149.11 192.34 148.23 191.65 147.44 191.12 147.14 
M 191.91 157.66 192.61 156.64 192.61 156.14 191.77 154.99 
M 189 130.59 189.56 130.17 190.29 129.09 190.75 127.88 190.75 127.12 190.29 125.9 189.56 124.83 189 124.41 
M 191.63 139.6 192.23 139.23 192.99 138.28 193.49 137.19 193.49 136.52 192.99 135.44 192.23 134.49 191.63 134.11 
M 193.07 147.73 193.69 147.4 194.49 146.55 195.01 145.59 195.01 144.99 194.49 144.03 193.69 143.19 193.07 142.86 
M 193.49 155.14 194.15 154.84 195 154.07 195.54 153.2 195.54 152.66 195 151.79 194.15 151.02 193.49 150.72 
M 192.56 169.18 193.32 168.89 194.28 168.13 194.9 167.28 194.9 166.75 194.28 165.89 193.32 165.14 192.56 164.84 
M 184.18 215.36 185 215.12 186.06 214.49 186.75 213.79 186.75 213.35 186.06 212.64 184.76 211.94 
M 182.51 220.43 183.83 219.79 184.58 219.1 184.58 218.68 183.43 217.79 
M 189.35 125.41 189.81 124.95 190.4 123.79 190.77 122.47 190.77 121.66 190.57 120.94 
M 192.88 135.16 193.38 134.76 194.02 133.72 194.43 132.55 194.43 131.82 194.02 130.64 193.38 129.61 192.88 129.2 
M 194.93 143.71 195.45 143.35 196.11 142.45 196.53 141.42 196.53 140.78 196.11 139.76 195.45 138.85 194.93 138.5 
M 195.96 151.59 196.48 151.27 197.15 150.45 197.58 149.53 197.58 148.96 197.15 148.03 196.48 147.21 195.96 146.89 
M 186.36 218.94 187.12 218.7 188.09 218.07 188.71 217.36 188.71 216.92 188.09 216.21 187.12 215.59 186.36 215.34 
M 183.98 224.18 184.8 223.94 185.84 223.34 186.51 222.65 186.51 222.23 185.84 221.54 184.8 220.94 183.98 220.7 
M 193.34 130.09 193.92 129.65 194.67 128.52 195.15 127.25 195.15 126.46 194.67 125.19 193.92 124.06 193.34 123.62 
M 196.27 139.33 196.88 138.95 197.67 137.97 198.17 136.85 198.17 136.17 197.67 135.05 196.88 134.07 196.27 133.69 
M 197.83 147.55 198.45 147.21 199.25 146.35 199.76 145.36 199.76 144.76 199.25 143.78 198.45 142.91 197.83 142.57 
M 198.46 162.54 199.15 162.24 200.02 161.47 200.58 160.6 200.58 160.06 200.02 159.19 199.15 158.42 198.46 158.12 
M 197.97 177.34 198.7 177.04 199.64 176.27 200.24 175.39 200.24 174.85 199.64 173.98 198.7 173.2 197.97 172.9 
M 193.57 124.82 194.04 124.34 194.65 123.12 195.04 121.73 195.04 120.87 194.65 119.48 194.08 118.32 
M 197.55 134.95 198.06 134.53 198.72 133.46 199.14 132.24 199.14 131.49 198.72 130.27 198.06 129.2 197.55 128.78 
M 199.71 143.51 200.23 143.15 200.89 142.24 201.32 141.21 201.32 140.57 200.89 139.54 200.23 138.62 199.71 138.27 
M 200.72 151.4 201.24 151.07 201.89 150.24 202.32 149.3 202.32 148.72 201.89 147.78 201.24 146.95 200.72 146.63 
M 201.67 177.7 200.68 177.01 
M 189.77 232.5 190.52 232.27 191.64 231.6 192.36 230.84 192.36 230.37 191.64 229.6 190.52 228.93 189.64 228.67 
M 193.28 118.9 193.29 118.89 
M 197.84 129.72 198.44 129.26 199.21 128.1 199.7 126.78 199.7 125.96 199.21 124.65 198.44 123.48 197.84 123.03 
M 201 139.12 201.62 138.73 202.4 137.73 202.91 136.6 202.91 135.9 202.4 134.77 201.62 133.77 201 133.38 
M 202.58 147.32 203.2 146.98 203.99 146.11 204.5 145.13 204.5 144.52 203.99 143.53 203.2 142.66 202.58 142.32 
M 203.54 162.7 204.19 162.39 205.02 161.59 205.55 160.69 205.55 160.13 205.02 159.23 204.19 158.43 203.54 158.12 
M 194.09 230.7 195.06 230.44 196.3 229.77 197.1 229.02 197.1 228.55 196.3 227.79 195.06 227.13 194.09 226.87 
M 197.99 124.36 198.49 123.87 199.13 122.61 199.54 121.18 199.54 120.3 199.13 118.87 198.49 117.6 197.99 117.11 
M 205.42 151.11 205.93 150.79 206.58 149.96 207.01 149.02 207.01 148.43 206.58 147.49 205.93 146.66 205.42 146.34 
M 205.89 158.84 206.4 158.53 207.07 157.72 207.49 156.8 207.49 156.23 207.07 155.31 206.4 154.5 205.89 154.18 
M 206.11 166.55 206.65 166.23 207.35 165.43 207.79 164.52 207.79 163.96 207.35 163.05 206.65 162.25 206.11 161.94 
M 197.82 118.45 198.47 117.97 199.31 116.75 199.85 115.36 199.77 114.31 
M 202.46 129.37 203.09 128.91 203.89 127.74 204.41 126.41 204.41 125.59 203.89 124.26 203.09 123.08 202.46 122.63 
M 205.69 138.83 206.31 138.44 207.1 137.44 207.61 136.3 207.61 135.6 207.1 134.46 206.31 133.46 205.69 133.07 
M 208 154.84 208.61 154.52 209.4 153.69 209.91 152.76 209.91 152.18 209.4 151.24 208.61 150.42 208 150.1 
M 208.4 162.62 209.03 162.31 209.84 161.49 210.36 160.57 210.36 160 209.84 159.08 209.03 158.27 208.4 157.95 
M 208.58 170.36 209.23 170.04 210.06 169.23 210.6 168.32 210.6 167.75 210.06 166.84 209.23 166.03 208.58 165.72 
M 209.25 177.73 210.09 176.93 210.64 176.03 210.64 175.47 210.09 174.56 209.24 173.76 208.58 173.45 
M 202.68 124.01 203.24 123.53 203.96 122.28 204.42 120.87 204.42 120 203.96 118.59 203.24 117.34 202.68 116.86 
M 206.9 134.38 207.42 133.95 208.09 132.86 208.52 131.62 208.52 130.85 208.09 129.61 207.42 128.52 206.9 128.09 
M 210.6 158.61 211.12 158.29 211.77 157.46 212.2 156.53 212.2 155.95 211.77 155.02 211.12 154.2 210.6 153.88 
M 211 166.49 211.53 166.17 212.21 165.35 212.64 164.43 212.64 163.85 212.21 162.93 211.53 162.11 211 161.79 
M 211.91 177.95 211.11 177.35 
M 203.19 118.66 203.97 118.2 204.96 117.04 205.61 115.72 205.61 114.9 204.96 113.58 203.97 112.41 203.27 112 
M 207.43 129.23 208.12 128.79 209 127.66 209.56 126.37 209.56 125.58 209 124.3 208.12 123.16 207.43 122.72 
M 210.45 138.55 211.08 138.17 211.9 137.18 212.43 136.06 212.43 135.37 211.9 134.26 211.08 133.27 210.45 132.89 
M 211.97 146.73 212.59 146.39 213.38 145.52 213.9 144.54 213.9 143.93 213.38 142.94 212.59 142.07 211.97 141.73 
M 212.69 154.56 213.31 154.24 214.1 153.41 214.61 152.47 214.61 151.89 214.1 150.95 213.31 150.12 212.69 149.79 
M 213.19 162.45 213.81 162.13 214.61 161.3 215.12 160.37 215.12 159.79 214.61 158.86 213.81 158.03 213.19 157.71 
M 213.76 177.99 214.23 177.76 215.06 176.95 215.59 176.03 215.59 175.47 215.06 174.55 214.23 173.74 213.58 173.42 
M 204.09 113.69 204.85 113.27 205.83 112.18 206.46 110.94 206.4 110.05 
M 208.26 124.33 208.9 123.88 209.73 122.72 210.27 121.42 210.27 120.61 209.73 119.3 208.9 118.15 208.26 117.7 
M 211.88 134.21 212.44 133.81 213.16 132.77 213.62 131.59 213.62 130.86 213.16 129.68 212.44 128.64 211.88 128.23 
M 213.89 142.68 214.42 142.33 215.1 141.43 215.54 140.42 215.54 139.79 215.1 138.78 214.42 137.88 213.89 137.53 
M 214.79 150.5 215.3 150.18 215.97 149.35 216.39 148.4 216.39 147.82 215.97 146.88 215.3 146.05 214.79 145.72 
M 215.31 158.34 215.82 158.02 216.48 157.19 216.9 156.25 216.9 155.67 216.48 154.73 215.82 153.9 215.31 153.58 
M 216.81 177.84 216.09 177.32 
M 206.71 109.87 207.28 109.66 207.96 109.14 
M 209.53 119.69 210.4 119.28 211.52 118.22 212.24 117.01 212.24 116.27 211.52 115.06 210.4 114 209.53 113.58 
M 212.94 129.5 213.68 129.09 214.63 128.04 215.24 126.86 215.24 126.13 214.63 124.94 213.68 123.9 212.94 123.49 
M 215.45 138.43 216.11 138.06 216.96 137.12 217.51 136.06 217.51 135.4 216.96 134.33 216.11 133.39 215.45 133.03 
M 216.77 146.49 217.4 146.16 218.21 145.31 218.73 144.34 218.73 143.75 218.21 142.78 217.4 141.93 216.77 141.6 
M 217.42 154.29 218.03 153.96 218.82 153.14 219.33 152.2 219.33 151.62 218.82 150.68 218.03 149.86 217.42 149.53 
M 217.93 162.23 218.55 161.9 219.34 161.07 219.85 160.13 219.85 159.55 219.34 158.6 218.55 157.77 217.93 157.45 
M 219.44 177.46 219.99 176.92 220.52 175.99 220.52 175.41 219.99 174.48 219.16 173.66 218.52 173.34 
M 211.33 115.61 212.14 115.23 213.18 114.24 213.85 113.13 213.85 112.44 213.18 111.32 212.14 110.34 211.33 109.96 
M 214.45 125.15 215.13 124.75 216.01 123.72 216.57 122.56 216.57 121.84 216.01 120.68 215.13 119.66 214.45 119.26 
M 217.18 134.29 217.76 133.92 218.5 132.96 218.98 131.87 218.98 131.19 218.5 130.11 217.76 129.14 217.18 128.77 
M 218.84 142.54 219.38 142.2 220.07 141.34 220.51 140.36 220.51 139.75 220.07 138.78 219.38 137.91 218.84 137.57 
M 219.57 150.25 220.09 149.93 220.75 149.11 221.18 148.19 221.18 147.62 220.75 146.69 220.09 145.87 219.57 145.55 
M 213.71 112.22 214.67 111.87 215.91 110.98 216.71 109.96 216.71 109.34 215.91 108.33 214.67 107.43 213.71 107.08 
M 216.18 121.02 217.04 120.65 218.14 119.69 218.85 118.61 218.85 117.94 218.14 116.86 217.04 115.91 216.18 115.53 
M 218.68 129.95 219.42 129.58 220.37 128.64 220.99 127.56 220.99 126.9 220.37 125.82 219.42 124.88 218.68 124.51 
M 220.58 138.42 221.25 138.07 222.1 137.18 222.65 136.18 222.65 135.56 222.1 134.56 221.25 133.67 220.58 133.32 
M 221.63 146.3 222.27 145.97 223.07 145.14 223.59 144.21 223.59 143.63 223.07 142.69 222.27 141.86 221.63 141.54 
M 222.14 153.99 222.75 153.67 223.53 152.85 224.04 151.93 224.04 151.35 223.53 150.43 222.75 149.61 222.14 149.29 
M 223.14 170.04 223.76 169.71 224.55 168.87 225.07 167.92 225.07 167.33 224.55 166.38 223.76 165.54 223.14 165.21 
M 225.41 175.96 225.43 175.34 224.9 174.4 224.08 173.57 223.44 173.24 
M 221 222.45 221.74 222.17 222.7 221.44 223.31 220.61 223.31 220.1 222.7 219.27 221.74 218.55 221 218.26 
M 216.35 109.15 217.14 108.83 218.16 108.01 218.82 107.07 218.82 106.5 218.16 105.56 217.14 104.74 216.35 104.41 
M 218.36 117.36 219.1 117.01 220.04 116.12 220.64 115.11 220.64 114.48 220.04 113.47 219.1 112.58 218.36 112.23 
M 220.58 125.96 221.22 125.6 222.05 124.68 222.58 123.65 222.58 123 222.05 121.96 221.22 121.05 220.58 120.69 
M 222.51 134.42 223.08 134.07 223.81 133.18 224.28 132.17 224.28 131.55 223.81 130.54 223.08 129.66 222.51 129.31 
M 223.8 142.42 224.33 142.09 225.02 141.26 225.46 140.32 225.46 139.74 225.02 138.79 224.33 137.96 223.8 137.64 
M 224.33 149.97 224.84 149.66 225.5 148.86 225.92 147.96 225.92 147.4 225.5 146.49 224.84 145.69 224.33 145.38 
M 224.64 157.69 225.14 157.36 225.78 156.54 226.19 155.6 226.19 155.02 225.78 154.09 225.14 153.26 224.64 152.94 
M 225.29 165.9 225.79 165.57 226.44 164.72 226.86 163.76 226.86 163.16 226.44 162.2 225.79 161.35 225.29 161.01 
M 225.76 174 226.28 173.67 226.95 172.82 227.38 171.87 227.38 171.27 226.95 170.32 226.28 169.47 225.76 169.14 
M 227.7 179.38 227.62 179.14 
M 218.81 106.12 219.71 105.82 220.86 105.05 221.61 104.17 221.61 103.63 220.86 102.76 219.88 102.1 
M 220.49 113.82 221.35 113.5 222.45 112.66 223.16 111.72 223.16 111.13 222.45 110.19 221.35 109.35 220.49 109.03 
M 222.39 121.99 223.17 121.65 224.17 120.77 224.82 119.78 224.82 119.17 224.17 118.18 223.17 117.3 222.39 116.96 
M 224.22 130.29 224.92 129.94 225.82 129.07 226.4 128.07 226.4 127.46 225.82 126.47 224.92 125.59 224.22 125.25 
M 225.64 138.36 226.29 138.03 227.12 137.18 227.65 136.23 227.65 135.64 227.12 134.69 226.29 133.84 225.64 133.52 
M 226.44 146.04 227.05 145.72 227.84 144.92 228.35 144.01 228.35 143.44 227.84 142.53 227.05 141.73 226.44 141.42 
M 226.78 153.61 227.37 153.3 228.14 152.49 228.63 151.57 228.63 151.01 228.14 150.09 227.37 149.29 226.78 148.97 
M 227.24 161.58 227.83 161.25 228.59 160.41 229.08 159.46 229.08 158.87 228.59 157.92 227.83 157.08 227.24 156.75 
M 227.85 169.8 228.46 169.47 229.24 168.62 229.74 167.65 229.74 167.05 229.24 166.08 228.46 165.22 227.85 164.89 
M 228.31 177.93 228.94 177.6 229.75 176.76 230.27 175.8 230.27 175.21 229.75 174.25 228.94 173.41 228.31 173.08 
M 221.4 103.24 222.1 102.95 223 102.23 223.58 101.41 223.58 100.9 223.25 100.45 
M 222.81 110.5 223.5 110.19 224.37 109.4 224.94 108.52 224.94 107.96 224.37 107.08 223.5 106.29 222.81 105.98 
M 224.45 118.29 225.1 117.96 225.92 117.12 226.46 116.18 226.46 115.59 225.92 114.64 225.1 113.81 224.45 113.48 
M 226.16 126.36 226.75 126.03 227.5 125.17 227.99 124.2 227.99 123.6 227.5 122.63 226.75 121.78 226.16 121.44 
M 227.62 134.41 228.16 134.08 228.86 133.23 229.31 132.28 229.31 131.68 228.86 130.73 228.16 129.89 227.62 129.56 
M 228.64 142.19 229.15 141.87 229.81 141.07 230.23 140.15 230.23 139.59 229.81 138.68 229.15 137.87 228.64 137.56 
M 228.98 149.58 229.47 149.27 230.11 148.49 230.52 147.61 230.52 147.06 230.11 146.17 229.47 145.39 228.98 145.09 
M 229.16 157.2 229.64 156.88 230.26 156.06 230.66 155.13 230.66 154.55 230.26 153.62 229.64 152.8 229.16 152.48 
M 229.86 165.52 230.35 165.19 230.98 164.32 231.38 163.34 231.38 162.74 230.98 161.76 230.35 160.9 229.86 160.56 
M 230.95 181.95 231.48 181.62 232.17 180.78 232.61 179.82 232.61 179.23 232.17 178.28 231.48 177.43 230.95 177.1 
M 231.64 197.04 232.17 196.43 232.63 195.51 232.63 194.95 231.76 193.56 
M 229.68 219.82 230.27 219.52 231.02 218.77 231.5 217.92 231.5 217.39 231.02 216.53 230.27 215.78 229.68 215.49 
M 223.72 100.33 224.51 100.06 225.18 99.59 
M 225.05 107.3 225.85 107.01 226.87 106.26 227.53 105.41 227.53 104.88 226.87 104.03 225.85 103.28 225.05 102.99 
M 226.51 114.73 227.29 114.42 228.29 113.62 228.93 112.72 228.93 112.16 228.29 111.26 227.29 110.46 226.51 110.15 
M 228.02 122.48 228.75 122.16 229.67 121.33 230.27 120.4 230.27 119.82 229.67 118.89 228.75 118.06 228.02 117.74 
M 229.41 130.35 230.07 130.02 230.92 129.2 231.47 128.26 231.47 127.67 230.92 126.73 230.07 125.91 229.41 125.58 
M 231.07 145.63 231.66 145.32 232.43 144.54 232.92 143.65 232.92 143.1 232.43 142.21 231.66 141.42 231.07 141.12 
M 231.26 153.08 231.84 152.77 232.58 151.97 233.06 151.07 233.06 150.51 232.58 149.6 231.84 148.81 231.26 148.5 
M 231.69 161.07 232.27 160.73 233 159.89 233.48 158.93 233.48 158.33 233 157.38 232.27 156.53 231.69 156.2 
M 232.45 169.47 233.05 169.13 233.81 168.26 234.31 167.27 234.31 166.65 233.81 165.66 233.05 164.79 232.45 164.44 
M 233.12 177.82 233.76 177.48 234.57 176.62 235.09 175.64 235.09 175.03 234.57 174.05 233.76 173.18 233.12 172.85 
M 233.35 201.44 234.02 201.13 234.87 200.32 235.41 199.41 235.41 198.85 234.87 197.94 234.02 197.13 233.35 196.82 
M 227.3 104.15 227.93 103.87 228.73 103.14 229.25 102.32 229.25 101.81 228.73 100.98 227.93 100.25 227.3 99.97 
M 228.7 111.33 229.35 111.03 230.17 110.27 230.71 109.4 230.71 108.86 230.17 107.99 229.35 107.22 228.7 106.92 
M 230.08 118.8 230.7 118.49 231.49 117.69 232 116.79 232 116.23 231.49 115.33 230.7 114.54 230.08 114.23 
M 231.39 126.46 231.95 126.15 232.67 125.34 233.14 124.42 233.14 123.85 232.67 122.94 231.95 122.13 231.39 121.81 
M 232.47 134.16 232.99 133.84 233.65 133.04 234.08 132.12 234.08 131.56 233.65 130.64 232.99 129.83 232.47 129.52 
M 233.25 141.74 233.74 141.44 234.37 140.66 234.78 139.77 234.78 139.22 234.37 138.33 233.74 137.55 233.25 137.25 
M 233.42 148.99 233.9 148.69 234.51 147.93 234.9 147.06 234.9 146.52 234.51 145.65 233.9 144.88 233.42 144.59 
M 233.49 156.54 233.95 156.22 234.55 155.4 234.94 154.47 234.94 153.9 234.55 152.97 233.95 152.15 233.49 151.83 
M 235.88 181.94 236.42 181.61 237.11 180.74 237.56 179.77 237.56 179.16 237.11 178.19 236.42 177.33 235.88 176.99 
M 235.51 212.88 236.06 212.57 236.78 211.79 237.24 210.91 237.24 210.36 236.78 209.48 236.06 208.7 235.51 208.39 
M 235.01 220.21 235.58 219.91 236.32 219.13 236.8 218.26 236.8 217.71 236.32 216.84 235.58 216.07 235.01 215.76 
M 229.27 100.97 229.97 100.69 230.87 99.96 231.45 99.14 231.45 98.62 230.65 97.63 
M 230.85 108.13 231.6 107.84 232.56 107.07 233.18 106.21 233.18 105.67 232.56 104.81 231.6 104.04 230.85 103.75 
M 232.27 115.42 233.02 115.11 233.98 114.34 234.61 113.46 234.61 112.92 233.98 112.05 233.02 111.27 232.27 110.97 
M 233.44 122.77 234.14 122.46 235.05 121.68 235.63 120.8 235.63 120.26 235.05 119.37 234.14 118.59 233.44 118.29 
M 234.39 130.21 235.03 129.9 235.86 129.11 236.4 128.23 236.4 127.68 235.86 126.79 235.03 126 234.39 125.7 
M 235.13 137.68 235.73 137.38 236.5 136.6 237 135.72 237 135.17 236.5 134.29 235.73 133.51 235.13 133.21 
M 235.5 145.02 236.08 144.72 236.82 143.96 237.3 143.09 237.3 142.55 236.82 141.68 236.08 140.92 235.5 140.62 
M 235.56 152.38 236.13 152.07 236.85 151.28 237.31 150.38 237.31 149.83 236.85 148.93 236.13 148.14 235.56 147.83 
M 237.98 177.76 238.62 177.41 239.44 176.52 239.96 175.51 239.96 174.89 239.44 173.88 238.62 172.99 237.98 172.64 
M 232.84 104.85 233.43 104.55 234.2 103.76 234.69 102.87 234.69 102.33 234.2 101.44 233.43 100.66 232.84 100.35 
M 234.55 112.2 235.19 111.9 236 111.12 236.52 110.25 236.52 109.7 236 108.82 235.19 108.05 234.55 107.75 
M 235.73 119.33 236.34 119.03 237.12 118.28 237.63 117.42 237.63 116.89 237.12 116.04 236.34 115.28 235.73 114.99 
M 236.55 126.47 237.11 126.18 237.83 125.42 238.29 124.57 238.29 124.04 237.83 123.19 237.11 122.43 236.55 122.14 
M 237.15 133.73 237.66 133.43 238.31 132.66 238.73 131.79 238.73 131.26 238.31 130.39 237.66 129.63 237.15 129.33 
M 237.68 148.24 238.15 147.94 238.76 147.19 239.15 146.34 239.15 145.81 238.76 144.95 238.15 144.2 237.68 143.9 
M 237.66 155.73 238.12 155.41 238.71 154.59 239.1 153.66 239.1 153.09 238.71 152.16 238.12 151.34 237.66 151.02 
M 238.51 164.36 238.98 164 239.58 163.09 239.97 162.05 239.97 161.4 239.58 160.37 238.98 159.45 238.51 159.09 
M 241.01 189.81 241.55 189.49 242.24 188.67 242.68 187.74 242.68 187.17 242.24 186.24 241.55 185.42 241.01 185.09 
M 234.4 101.3 235.07 100.99 235.93 100.2 236.48 99.3 236.48 98.74 235.93 97.84 235.07 97.05 234.4 96.74 
M 236.46 108.85 237.19 108.54 238.13 107.74 238.73 106.84 238.73 106.28 238.13 105.37 237.19 104.57 236.46 104.26 
M 237.96 116.07 238.7 115.77 239.64 115.01 240.25 114.15 240.25 113.62 239.64 112.76 238.7 112 237.96 111.7 
M 238.81 123.02 239.51 122.73 240.41 122 240.98 121.16 240.98 120.65 240.41 119.82 239.51 119.08 238.81 118.8 
M 239.3 129.99 239.95 129.7 240.77 128.97 241.3 128.13 241.3 127.61 240.77 126.78 239.95 126.04 239.3 125.75 
M 239.68 137.15 240.28 136.86 241.06 136.11 241.55 135.27 241.55 134.74 241.06 133.9 240.28 133.15 239.68 132.86 
M 239.85 144.34 240.43 144.04 241.18 143.29 241.66 142.44 241.66 141.92 241.18 141.07 240.43 140.32 239.85 140.03 
M 239.79 151.61 240.36 151.3 241.09 150.52 241.56 149.63 241.56 149.08 241.09 148.19 240.36 147.41 239.79 147.1 
M 240.2 159.7 240.77 159.35 241.5 158.48 241.97 157.48 241.97 156.87 241.5 155.87 240.77 155 240.2 154.65 
M 243.3 209.31 243.97 208.99 244.82 208.19 245.37 207.28 245.37 206.71 244.82 205.8 243.97 205 243.3 204.68 
M 242.33 239.12 243.06 238.83 244 238.09 244.61 237.24 244.61 236.72 244 235.88 243.06 235.13 242.33 234.84 
M 235.63 97.43 236.16 97.11 237.05 95.85 
M 238.2 105.4 238.78 105.07 239.53 104.22 240.01 103.26 240.01 102.66 239.53 101.7 238.78 100.85 238.2 100.52 
M 240.27 112.95 240.88 112.65 241.67 111.86 242.18 110.96 242.18 110.41 241.67 109.52 240.88 108.73 240.27 108.42 
M 241.29 119.79 241.88 119.51 242.65 118.79 243.14 117.97 243.14 117.46 242.65 116.64 241.88 115.92 241.29 115.64 
M 241.68 126.47 242.24 126.2 242.96 125.49 243.42 124.7 243.42 124.2 242.96 123.4 242.24 122.7 241.68 122.42 
M 241.82 133.3 242.34 133.01 243.01 132.29 243.44 131.47 243.44 130.96 243.01 130.13 242.34 129.41 241.82 129.12 
M 242.08 140.48 242.58 140.2 243.22 139.46 243.63 138.62 243.63 138.1 243.22 137.26 242.58 136.52 242.08 136.23 
M 241.97 147.51 242.46 147.22 243.08 146.48 243.48 145.63 243.48 145.11 243.08 144.27 242.46 143.53 241.97 143.24 
M 241.86 154.95 242.34 154.63 242.95 153.81 243.35 152.88 243.35 152.31 242.95 151.38 242.34 150.56 241.86 150.24 
M 242.78 163.75 243.26 163.38 243.87 162.42 244.27 161.34 244.27 160.67 243.87 159.59 243.26 158.64 242.78 158.26 
M 245.99 182.12 246.53 181.77 247.23 180.89 247.68 179.9 247.68 179.28 247.23 178.29 246.53 177.41 245.99 177.06 
M 245.93 189.73 246.47 189.41 247.16 188.59 247.6 187.67 247.6 187.09 247.16 186.17 246.47 185.35 245.93 185.03 
M 245.94 205.54 246.49 205.22 247.19 204.4 247.65 203.47 247.65 202.9 247.19 201.97 246.49 201.16 245.94 200.84 
M 239.52 101.57 240.21 101.24 241.09 100.39 241.66 99.44 241.66 98.84 241.09 97.89 240.21 97.04 239.52 96.71 
M 241.95 109.42 242.67 109.1 243.59 108.27 244.18 107.34 244.18 106.76 243.59 105.82 242.67 104.99 241.95 104.67 
M 243.51 116.59 244.22 116.3 245.14 115.55 245.74 114.7 245.74 114.17 245.14 113.32 244.22 112.57 243.51 112.27 
M 244.13 123.24 244.82 122.97 245.71 122.27 246.28 121.47 246.28 120.98 245.71 120.18 244.82 119.48 244.13 119.21 
M 244.26 129.86 244.92 129.59 245.77 128.89 246.32 128.09 246.32 127.6 245.77 126.8 244.92 126.1 244.26 125.82 
M 244.35 136.76 244.98 136.48 245.8 135.76 246.32 134.94 246.32 134.43 245.8 133.61 244.98 132.89 244.35 132.61 
M 244.35 143.81 244.97 143.52 245.76 142.79 246.27 141.95 246.27 141.44 245.76 140.61 244.97 139.87 244.35 139.58 
M 244.19 151 244.79 150.7 245.57 149.92 246.06 149.04 246.06 148.5 245.57 147.61 244.79 146.84 244.19 146.53 
M 244.57 159.12 245.17 158.77 245.93 157.88 246.42 156.87 246.42 156.25 245.93 155.24 245.17 154.35 244.57 154 
M 248.45 185.93 249.1 185.59 249.94 184.74 250.48 183.78 250.48 183.18 249.94 182.22 249.1 181.37 248.45 181.04 
M 248.39 209.42 249.06 209.11 249.91 208.3 250.45 207.38 250.45 206.81 249.91 205.89 249.06 205.08 248.39 204.76 
M 248.03 232.36 248.72 232.06 249.61 231.27 250.18 230.38 250.18 229.83 249.61 228.95 248.72 228.16 248.03 227.86 
M 240.68 97.59 241.26 97.26 242.01 96.41 242.5 95.39 
M 243.57 105.87 244.17 105.52 244.93 104.64 245.42 103.65 245.42 103.03 244.93 102.03 244.17 101.15 243.57 100.81 
M 245.78 113.48 246.38 113.17 247.14 112.38 247.64 111.48 247.64 110.93 247.14 110.03 246.38 109.24 245.78 108.93 
M 246.84 126.56 247.42 126.3 248.15 125.62 248.62 124.85 248.62 124.38 248.15 123.61 247.42 122.93 246.84 122.67 
M 246.7 133.12 247.26 132.85 247.97 132.14 248.43 131.35 248.43 130.85 247.97 130.06 247.26 129.36 246.7 129.08 
M 246.79 140.16 247.33 139.87 248.02 139.15 248.47 138.33 248.47 137.82 248.02 137 247.33 136.27 246.79 135.99 
M 246.57 147.09 247.09 146.8 247.77 146.07 248.21 145.24 248.21 144.72 247.77 143.89 247.09 143.16 246.57 142.87 
M 246.37 154.46 246.89 154.14 247.54 153.33 247.97 152.41 247.97 151.84 247.54 150.91 246.89 150.1 246.37 149.78 
M 247.28 163.32 247.79 162.94 248.44 161.97 248.86 160.87 248.86 160.18 248.44 159.08 247.79 158.1 247.28 157.72 
M 249.6 173.39 250.13 172.99 250.81 171.98 251.24 170.83 251.24 170.11 250.81 168.96 250.13 167.95 249.6 167.55 
M 250.9 189.71 251.45 189.39 252.15 188.57 252.6 187.65 252.6 187.07 252.15 186.15 251.45 185.33 250.9 185.01 
M 251 205.62 251.55 205.29 252.25 204.47 252.7 203.54 252.7 202.96 252.25 202.03 251.55 201.21 251 200.89 
M 244.93 102.01 245.67 101.68 246.61 100.83 247.22 99.86 247.22 99.26 246.61 98.29 245.67 97.44 244.93 97.11 
M 247.42 109.89 248.14 109.57 249.07 108.74 249.67 107.8 249.67 107.22 249.07 106.29 248.14 105.46 247.42 105.14 
M 248.92 116.98 249.63 116.69 250.55 115.95 251.14 115.11 251.14 114.59 250.55 113.75 249.63 113.01 248.92 112.72 
M 249.43 123.51 250.13 123.24 251.04 122.55 251.62 121.77 251.62 121.29 251.04 120.51 250.13 119.82 249.43 119.55 
M 249.43 130 250.13 129.73 251.03 129.04 251.61 128.26 251.61 127.78 251.03 127 250.13 126.31 249.43 126.04 
M 249.39 136.78 250.09 136.5 250.98 135.79 251.56 134.98 251.56 134.49 250.98 133.68 250.09 132.97 249.39 132.69 
M 249.27 143.7 249.95 143.42 250.83 142.7 251.39 141.88 251.39 141.37 250.83 140.55 249.95 139.83 249.27 139.55 
M 248.98 150.76 249.63 150.46 250.46 149.7 251 148.83 251 148.29 250.46 147.43 249.63 146.66 248.98 146.36 
M 249.26 158.81 249.88 158.46 250.69 157.58 251.21 156.57 251.21 155.94 250.69 154.94 249.88 154.05 249.26 153.7 
M 250.86 168.28 251.49 167.89 252.3 166.9 252.82 165.77 252.82 165.07 252.3 163.94 251.49 162.94 250.86 162.55 
M 252.75 177.74 253.4 177.37 254.22 176.41 254.76 175.33 254.76 174.66 254.22 173.58 253.4 172.62 252.75 172.25 
M 252.92 247.17 253.61 246.87 254.5 246.12 255.08 245.26 255.08 244.73 254.5 243.88 253.61 243.12 252.92 242.83 
M 246.37 98.23 247.02 97.91 247.85 97.08 248.39 96.14 248.39 95.56 248.19 95.21 
M 249.12 106.36 249.74 106.03 250.54 105.17 251.06 104.19 251.06 103.59 250.54 102.61 249.74 101.75 249.12 101.41 
M 251.2 113.86 251.8 113.55 252.57 112.77 253.07 111.89 253.07 111.35 252.57 110.47 251.8 109.69 251.2 109.39 
M 252.02 120.46 252.61 120.19 253.37 119.49 253.86 118.7 253.86 118.21 253.37 117.42 252.61 116.72 252.02 116.45 
M 252.16 126.88 252.76 126.62 253.53 125.94 254.03 125.17 254.03 124.7 253.53 123.93 252.76 123.25 252.16 122.99 
M 252.02 133.43 252.63 133.16 253.42 132.46 253.93 131.67 253.93 131.18 253.42 130.38 252.63 129.68 252.02 129.41 
M 252.05 140.4 252.66 140.12 253.45 139.4 253.95 138.59 253.95 138.09 253.45 137.28 252.66 136.57 252.05 136.29 
M 251.68 147.16 252.27 146.88 253.02 146.17 253.51 145.35 253.51 144.85 253.02 144.04 252.27 143.32 251.68 143.05 
M 251.28 154.33 251.83 154.02 252.53 153.22 252.98 152.32 252.98 151.76 252.53 150.86 251.83 150.06 251.28 149.75 
M 252.09 163.13 252.61 162.75 253.29 161.78 253.73 160.68 253.73 160 253.29 158.9 252.61 157.92 252.09 157.55 
M 254.47 173.29 255 172.89 255.69 171.86 256.14 170.7 256.14 169.98 255.69 168.82 255 167.8 254.47 167.4 
M 255.95 182.15 256.5 181.8 257.19 180.9 257.64 179.89 257.64 179.26 257.19 178.24 256.5 177.35 255.95 176.99 
M 250.74 102.75 251.53 102.42 252.54 101.59 253.19 100.65 253.19 100.07 252.54 99.13 251.53 98.3 250.74 97.98 
M 253.03 110.44 253.78 110.12 254.74 109.32 255.37 108.4 255.37 107.84 254.74 106.93 253.78 106.12 253.03 105.8 
M 254.4 117.44 255.13 117.15 256.07 116.42 256.67 115.59 256.67 115.07 256.07 114.24 255.13 113.51 254.4 113.22 
M 254.9 123.99 255.63 123.72 256.57 123.03 257.18 122.25 257.18 121.76 256.57 120.98 255.63 120.28 254.9 120.01 
M 254.99 130.58 255.74 130.3 256.71 129.61 257.33 128.82 257.33 128.33 256.71 127.54 255.74 126.85 254.99 126.57 
M 254.99 137.37 255.76 137.1 256.74 136.39 257.38 135.59 257.38 135.09 256.74 134.29 255.76 133.58 254.99 133.31 
M 254.76 144.14 255.51 143.86 256.48 143.16 257.1 142.37 257.1 141.87 256.48 141.08 255.51 140.37 254.76 140.1 
M 254.18 150.89 254.88 150.61 255.79 149.87 256.37 149.03 256.37 148.51 255.79 147.68 254.88 146.94 254.18 146.65 
M 255.76 168.2 256.41 167.81 257.25 166.81 257.78 165.68 257.78 164.98 257.25 163.85 256.41 162.85 255.76 162.46 
M 257.72 177.73 258.37 177.36 259.21 176.4 259.75 175.31 259.75 174.63 259.21 173.54 258.37 172.58 257.72 172.2 
M 258.45 185.97 259.1 185.63 259.94 184.77 260.48 183.8 260.48 183.19 259.94 182.22 259.1 181.36 258.45 181.03 
M 258.46 193.74 259.11 193.42 259.95 192.6 260.48 191.66 260.48 191.08 259.95 190.15 259.11 189.32 258.46 189 
M 258.5 209.57 259.16 209.25 260 208.43 260.54 207.5 260.54 206.93 260 206 259.16 205.18 258.5 204.86 
M 252.5 99.27 253.19 98.96 254.09 98.16 254.66 97.25 254.66 96.69 254.09 95.79 253.23 95.03 
M 254.97 107.12 255.63 106.79 256.47 105.96 257.01 105.03 257.01 104.44 256.47 103.51 255.63 102.68 254.97 102.35 
M 256.82 114.42 257.44 114.13 258.25 113.37 258.76 112.51 258.76 111.98 258.25 111.12 257.44 110.36 256.82 110.06 
M 257.56 121.01 258.18 120.74 258.97 120.04 259.48 119.25 259.48 118.76 258.97 117.96 258.18 117.26 257.56 116.99 
M 257.85 127.62 258.48 127.35 259.3 126.65 259.82 125.87 259.82 125.38 259.3 124.59 258.48 123.89 257.85 123.62 
M 257.92 134.37 258.59 134.09 259.43 133.38 259.98 132.57 259.98 132.07 259.43 131.27 258.59 130.55 257.92 130.27 
M 257.99 141.3 258.66 141.02 259.51 140.32 260.06 139.52 260.06 139.03 259.51 138.23 258.66 137.53 257.99 137.26 
M 257.33 147.7 257.97 147.44 258.79 146.76 259.31 145.99 259.31 145.52 258.79 144.75 257.97 144.07 257.33 143.8 
M 256.42 154.38 257 154.08 257.74 153.32 258.22 152.45 258.22 151.92 257.74 151.06 257 150.29 256.42 150 
M 257 163.04 257.55 162.66 258.26 161.7 258.71 160.6 258.71 159.93 258.26 158.83 257.55 157.87 257 157.49 
M 260.97 182.17 261.51 181.82 262.21 180.92 262.67 179.91 262.67 179.28 262.21 178.27 261.51 177.37 260.97 177.02 
M 260.93 189.77 261.47 189.45 262.16 188.62 262.61 187.69 262.61 187.12 262.16 186.19 261.47 185.36 260.93 185.04 
M 260.98 197.72 261.52 197.4 262.21 196.57 262.66 195.63 262.66 195.05 262.21 194.11 261.52 193.28 260.98 192.96 
M 254.8 96.36 255.67 96.08 256.79 95.37 257.29 94.81 
M 256.87 103.77 257.7 103.46 258.76 102.67 259.45 101.77 259.45 101.21 258.76 100.31 257.7 99.51 256.87 99.2 
M 258.87 111.2 259.66 110.9 260.66 110.12 261.31 109.24 261.31 108.7 260.66 107.81 259.66 107.04 258.87 106.73 
M 260.08 118.09 260.84 117.81 261.81 117.08 262.43 116.26 262.43 115.76 261.81 114.93 260.84 114.21 260.08 113.93 
M 260.61 124.74 261.37 124.46 262.34 123.76 262.97 122.96 262.97 122.47 262.34 121.67 261.37 120.97 260.61 120.69 
M 260.88 131.52 261.67 131.24 262.67 130.53 263.31 129.72 263.31 129.22 262.67 128.41 261.67 127.7 260.88 127.42 
M 261.02 138.41 261.82 138.13 262.84 137.42 263.5 136.61 263.5 136.12 262.84 135.31 261.82 134.6 261.02 134.33 
M 260.69 145.01 261.48 144.74 262.49 144.06 263.14 143.28 263.14 142.81 262.49 142.03 261.48 141.35 260.69 141.09 
M 259.74 151.35 260.49 151.08 261.45 150.37 262.06 149.58 262.06 149.08 261.45 148.28 260.49 147.58 259.74 147.31 
M 259.38 158.84 260.09 158.51 260.99 157.66 261.57 156.7 261.57 156.1 260.99 155.13 260.09 154.28 259.38 153.95 
M 260.85 168.28 261.53 167.89 262.41 166.9 262.97 165.77 262.97 165.08 262.41 163.95 261.53 162.96 260.85 162.57 
M 262.79 177.8 263.46 177.42 264.31 176.47 264.87 175.38 264.87 174.71 264.31 173.63 263.46 172.67 262.79 172.3 
M 263.45 185.95 264.1 185.62 264.93 184.77 265.46 183.8 265.46 183.2 264.93 182.23 264.1 181.38 263.45 181.04 
M 263.43 193.73 264.08 193.4 264.91 192.58 265.44 191.64 265.44 191.07 264.91 190.13 264.08 189.3 263.43 188.98 
M 263.49 201.7 264.14 201.37 264.98 200.54 265.51 199.61 265.51 199.02 264.98 198.09 264.14 197.26 263.49 196.93 
M 258.94 100.59 259.67 100.3 260.6 99.54 261.2 98.67 261.2 98.14 260.6 97.28 259.67 96.52 258.94 96.22 
M 261.07 108.1 261.76 107.79 262.63 107 263.2 106.11 263.2 105.56 262.63 104.66 261.76 103.87 261.07 103.56 
M 262.64 115.18 263.29 114.89 264.12 114.15 264.65 113.32 264.65 112.8 264.12 111.97 263.29 111.24 262.64 110.95 
M 263.29 121.75 263.93 121.48 264.74 120.77 265.26 119.98 265.26 119.48 264.74 118.69 263.93 117.98 263.29 117.71 
M 263.73 128.56 264.38 128.28 265.21 127.57 265.74 126.75 265.74 126.25 265.21 125.44 264.38 124.73 263.73 124.45 
M 264.03 135.52 264.7 135.23 265.55 134.51 266.09 133.68 266.09 133.17 265.55 132.35 264.7 131.62 264.03 131.34 
M 264.15 142.44 264.82 142.16 265.67 141.47 266.22 140.68 266.22 140.19 265.67 139.4 264.82 138.7 264.15 138.43 
M 263.3 148.58 263.96 148.33 264.8 147.68 265.35 146.94 265.35 146.49 264.8 145.75 263.96 145.1 263.3 144.85 
M 262.21 163.21 262.81 162.84 263.57 161.89 264.06 160.81 264.06 160.14 263.57 159.07 262.81 158.12 262.21 157.74 
M 265.87 189.7 266.41 189.38 267.09 188.56 267.53 187.64 267.53 187.06 267.09 186.14 266.41 185.32 265.87 185 
M 265.95 197.71 266.49 197.39 267.18 196.56 267.63 195.61 267.63 195.03 267.18 194.09 266.49 193.25 265.95 192.93 
M 266.02 205.68 266.56 205.35 267.26 204.52 267.71 203.59 267.71 203.01 267.26 202.07 266.56 201.24 266.02 200.92 
M 261.44 97.9 262.33 97.64 263.48 96.95 264.08 96.34 
M 263.22 105 264.07 104.71 265.16 103.95 265.86 103.09 265.86 102.56 265.16 101.71 264.07 100.95 263.22 100.66 
M 264.91 112.14 265.71 111.85 266.74 111.11 267.4 110.26 267.4 109.74 266.74 108.89 265.71 108.14 264.91 107.85 
M 265.91 118.89 266.69 118.61 267.68 117.9 268.31 117.09 268.31 116.59 267.68 115.79 266.69 115.07 265.91 114.8 
M 266.44 125.58 267.2 125.3 268.18 124.59 268.81 123.79 268.81 123.29 268.18 122.49 267.2 121.78 266.44 121.5 
M 266.83 132.49 267.6 132.21 268.59 131.49 269.23 130.67 269.23 130.16 268.59 129.34 267.6 128.61 266.83 128.33 
M 267.06 139.45 267.84 139.17 268.83 138.45 269.47 137.65 269.47 137.15 268.83 136.34 267.84 135.62 267.06 135.34 
M 266.71 145.99 267.49 145.73 268.49 145.06 269.13 144.29 269.13 143.82 268.49 143.06 267.49 142.39 266.71 142.12 
M 265.57 152.12 266.34 151.85 267.34 151.17 267.98 150.4 267.98 149.92 267.34 149.14 266.34 148.46 265.57 148.19 
M 264.94 159.34 265.7 159.01 266.66 158.18 267.29 157.25 267.29 156.66 266.66 155.73 265.7 154.9 264.94 154.57 
M 266.22 168.59 266.94 168.21 267.87 167.24 268.46 166.14 268.46 165.46 267.87 164.36 266.94 163.39 266.22 163.01 
M 268.37 193.68 269.01 193.35 269.84 192.53 270.37 191.59 270.37 191.01 269.84 190.08 269.01 189.25 268.37 188.93 
M 268.47 247.76 269.13 247.46 269.97 246.7 270.52 245.83 270.52 245.3 269.97 244.43 269.13 243.67 268.47 243.37 
M 265.53 102.07 266.27 101.79 267.21 101.07 267.82 100.25 267.82 99.74 267.21 98.92 266.27 98.19 265.53 97.91 
M 267.32 109.23 268.02 108.94 268.9 108.19 269.47 107.34 269.47 106.82 268.9 105.97 268.02 105.22 267.32 104.92 
M 268.6 116.06 269.25 115.78 270.09 115.07 270.63 114.27 270.63 113.77 270.09 112.96 269.25 112.25 268.6 111.97 
M 269.13 122.57 269.77 122.3 270.58 121.6 271.11 120.81 271.11 120.32 270.58 119.53 269.77 118.83 269.13 118.56 
M 269.6 129.44 270.23 129.16 271.04 128.43 271.56 127.62 271.56 127.11 271.04 126.3 270.23 125.57 269.6 125.29 
M 269.96 136.45 270.59 136.17 271.4 135.44 271.92 134.61 271.92 134.1 271.4 133.27 270.59 132.53 269.96 132.25 
M 270.09 143.38 270.72 143.11 271.52 142.41 272.04 141.62 272.04 141.12 271.52 140.33 270.72 139.63 270.09 139.36 
M 269.3 149.57 269.94 149.32 270.77 148.67 271.31 147.94 271.31 147.48 270.77 146.75 269.94 146.1 269.3 145.85 
M 267.77 155.58 268.43 155.3 269.27 154.59 269.82 153.78 269.82 153.28 269.27 152.48 268.43 151.77 267.77 151.49 
M 270.1 173.81 270.69 173.42 271.45 172.44 271.93 171.33 271.93 170.64 271.45 169.53 270.69 168.55 270.1 168.17 
M 271.01 205.68 271.55 205.35 272.25 204.52 272.69 203.59 272.69 203 272.25 202.06 271.55 201.23 271.01 200.91 
M 268.14 99.51 269.64 98.91 
M 269.63 106.3 270.48 106.02 271.57 105.3 272.27 104.48 272.27 103.98 271.57 103.17 270.48 102.45 269.63 102.17 
M 271 113.14 271.8 112.86 272.82 112.15 273.48 111.34 273.48 110.84 272.82 110.03 271.8 109.31 271 109.04 
M 271.79 119.72 272.56 119.45 273.54 118.75 274.17 117.96 274.17 117.48 273.54 116.69 272.56 116 271.79 115.73 
M 272.22 126.35 272.97 126.07 273.93 125.37 274.54 124.57 274.54 124.08 273.93 123.28 272.97 122.58 272.22 122.31 
M 272.58 133.24 273.31 132.95 274.25 132.23 274.86 131.42 274.86 130.91 274.25 130.09 273.31 129.37 272.58 129.09 
M 272.8 140.19 273.52 139.91 274.45 139.2 275.05 138.38 275.05 137.88 274.45 137.07 273.52 136.35 272.8 136.07 
M 272.52 146.83 273.26 146.56 274.2 145.88 274.81 145.11 274.81 144.63 274.2 143.85 273.26 143.17 272.52 142.91 
M 271.5 153.07 272.27 152.8 273.26 152.11 273.9 151.33 273.9 150.85 273.26 150.07 272.27 149.38 271.5 149.11 
M 270.86 160.2 271.64 159.88 272.65 159.07 273.3 158.15 273.3 157.59 272.65 156.67 271.64 155.86 270.86 155.54 
M 271.86 169.1 272.6 168.74 273.55 167.81 274.16 166.76 274.16 166.11 273.55 165.06 272.6 164.13 271.86 163.77 
M 272.1 103.53 272.83 103.26 273.76 102.57 274.36 101.79 274.36 101.51 
M 273.56 110.35 274.23 110.07 275.1 109.36 275.66 108.55 275.66 108.06 275.1 107.25 274.23 106.54 273.56 106.26 
M 274.54 116.92 275.17 116.65 275.99 115.97 276.52 115.19 276.52 114.71 275.99 113.94 275.17 113.25 274.54 112.98 
M 274.92 123.31 275.53 123.05 276.33 122.36 276.84 121.59 276.84 121.11 276.33 120.34 275.53 119.65 274.92 119.39 
M 275.25 130.06 275.85 129.78 276.62 129.07 277.11 128.27 277.11 127.77 276.62 126.97 275.85 126.26 275.25 125.99 
M 275.52 136.99 276.1 136.71 276.84 135.98 277.32 135.16 277.32 134.66 276.84 133.84 276.1 133.11 275.52 132.83 
M 275.07 150.42 275.68 150.15 276.45 149.48 276.95 148.72 276.95 148.25 276.45 147.49 275.68 146.82 275.07 146.56 
M 273.87 156.7 274.53 156.42 275.37 155.7 275.91 154.88 275.91 154.38 275.37 153.56 274.53 152.84 273.87 152.56 
M 275.94 107.48 276.76 107.22 277.82 106.54 278.5 105.77 278.5 105.3 277.82 104.53 276.76 103.86 275.94 103.59 
M 277.52 120.38 278.26 120.12 279.2 119.45 279.81 118.69 279.81 118.22 279.2 117.45 278.26 116.78 277.52 116.52 
M 277.79 126.86 278.5 126.59 279.41 125.91 280 125.13 280 124.65 279.41 123.88 278.5 123.19 277.79 122.92 
M 277.99 133.61 278.67 133.33 279.55 132.62 280.12 131.82 280.12 131.32 279.55 130.52 278.67 129.81 277.99 129.54 
M 277.25 153.88 277.99 153.61 278.93 152.89 279.53 152.09 279.53 151.59 278.93 150.79 277.99 150.07 277.25 149.8 
M 276.82 161.13 277.58 160.81 278.57 160.01 279.2 159.11 279.2 158.54 278.57 157.64 277.58 156.84 276.82 156.52 
M 278.55 104.83 279.34 104.52 
M 279.56 111.22 280.2 110.96 281.03 110.29 281.56 109.54 281.56 109.07 281.03 108.32 280.2 107.65 279.56 107.39 
M 280.21 117.52 280.82 117.26 281.59 116.6 282.09 115.86 282.09 115.4 281.59 114.65 280.82 114 280.21 113.74 
M 280.44 123.78 281.03 123.52 281.78 122.86 282.27 122.1 282.27 121.64 281.78 120.89 281.03 120.23 280.44 119.97 
M 280.55 130.3 281.12 130.03 281.84 129.34 282.31 128.56 282.31 128.08 281.84 127.31 281.12 126.62 280.55 126.35 
M 280.63 137.08 281.17 136.8 281.87 136.08 282.31 135.28 282.31 134.78 281.87 133.97 281.17 133.26 280.63 132.98 
M 280.69 144.04 281.23 143.76 281.92 143.04 282.36 142.23 282.36 141.73 281.92 140.91 281.23 140.19 280.69 139.91 
M 280.37 150.82 280.94 150.54 281.66 149.84 282.12 149.04 282.12 148.54 281.66 147.74 280.94 147.04 280.37 146.76 
M 279.79 165.49 280.41 165.16 281.22 164.31 281.73 163.34 281.73 162.75 281.22 161.78 280.41 160.93 279.79 160.6 
M 280.55 189.41 281.09 189.09 281.78 188.27 282.23 187.34 282.23 186.77 281.78 185.84 281.09 185.02 280.55 184.7 
M 282.01 108.41 282.78 108.17 283.86 107.45 
M 282.66 114.6 283.39 114.35 284.33 113.7 284.93 112.97 284.93 112.52 284.33 111.79 283.39 111.14 282.66 110.89 
M 283 120.8 283.7 120.55 284.6 119.89 285.19 119.16 285.19 118.7 284.6 117.96 283.7 117.31 283 117.06 
M 283.09 127.11 283.78 126.85 284.65 126.19 285.21 125.43 285.21 124.97 284.65 124.21 283.78 123.55 283.09 123.29 
M 283.08 133.66 283.74 133.39 284.58 132.7 285.12 131.92 285.12 131.43 284.58 130.65 283.74 129.96 283.08 129.69 
M 283.08 140.48 283.72 140.2 284.54 139.49 285.07 138.68 285.07 138.18 284.54 137.37 283.72 136.66 283.08 136.38 
M 282.99 147.43 283.64 147.15 284.48 146.42 285.01 145.61 285.01 145.1 284.48 144.28 283.64 143.56 282.99 143.28 
M 282.97 169.98 283.68 169.65 284.57 168.81 285.15 167.85 285.15 167.26 284.57 166.3 283.68 165.46 282.97 165.13 
M 283.36 178 284.01 177.68 284.86 176.86 285.4 175.93 285.4 175.35 284.86 174.42 284.01 173.6 283.36 173.28 
M 283.47 232.88 284.11 232.57 284.94 231.77 285.47 230.87 285.47 230.31 284.94 229.41 284.11 228.61 283.47 228.3 
M 285.25 111.8 285.86 111.55 286.64 110.93 287.14 110.22 287.14 109.78 286.81 109.31 
M 285.62 117.87 286.2 117.62 286.95 116.99 287.42 116.27 287.42 115.82 286.95 115.1 286.2 114.47 285.62 114.22 
M 285.73 124.03 286.3 123.78 287.03 123.13 287.5 122.4 287.5 121.94 287.03 121.21 286.3 120.57 285.73 120.31 
M 285.65 130.34 286.21 130.08 286.91 129.42 287.37 128.66 287.37 128.2 286.91 127.45 286.21 126.78 285.65 126.52 
M 285.5 136.92 286.03 136.64 286.71 135.95 287.14 135.15 287.14 134.67 286.71 133.87 286.03 133.18 285.5 132.9 
M 285.51 143.9 286.03 143.61 286.7 142.89 287.13 142.06 287.13 141.55 286.7 140.73 286.03 140 285.51 139.72 
M 285.41 150.95 285.95 150.67 286.65 149.93 287.1 149.09 287.1 148.57 286.65 147.73 285.95 147 285.41 146.71 
M 285.36 166 285.95 165.68 286.71 164.85 287.2 163.91 287.2 163.33 286.71 162.39 285.95 161.56 285.36 161.23 
M 285.58 189.46 286.13 189.13 286.83 188.31 287.28 187.38 287.28 186.8 286.83 185.87 286.13 185.05 285.58 184.73 
M 288.1 114.97 288.79 114.72 289.69 114.1 290.26 113.4 290.26 112.96 289.69 112.26 288.79 111.64 288.1 111.39 
M 288.27 121.03 288.95 120.78 289.82 120.15 290.38 119.43 290.38 118.98 289.82 118.26 288.95 117.63 288.27 117.38 
M 288.25 127.23 288.91 126.97 289.77 126.32 290.32 125.59 290.32 125.13 289.77 124.39 288.91 123.74 288.25 123.49 
M 288.05 133.59 288.7 133.32 289.54 132.65 290.08 131.89 290.08 131.41 289.54 130.65 288.7 129.98 288.05 129.71 
M 287.91 140.31 288.55 140.03 289.36 139.32 289.89 138.52 289.89 138.02 289.36 137.21 288.55 136.5 287.91 136.23 
M 287.89 147.39 288.54 147.1 289.36 146.36 289.89 145.52 289.89 145 289.36 144.16 288.54 143.42 287.89 143.13 
M 287.87 154.67 288.54 154.37 289.41 153.6 289.96 152.73 289.96 152.2 289.41 151.33 288.54 150.56 287.87 150.26 
M 287.93 162.24 288.62 161.93 289.51 161.13 290.08 160.22 290.08 159.66 289.51 158.75 288.62 157.95 287.93 157.63 
M 288.23 170.18 288.91 169.86 289.78 169.04 290.34 168.11 290.34 167.53 289.78 166.6 288.91 165.78 288.23 165.45 
M 288.38 177.99 289.04 177.68 289.87 176.87 290.41 175.95 290.41 175.39 289.87 174.47 289.04 173.66 288.38 173.35 
M 288.2 185.63 288.86 185.31 289.7 184.5 290.24 183.58 290.24 183.02 289.7 182.1 288.86 181.29 288.2 180.97 
M 288.22 193.58 288.88 193.26 289.72 192.42 290.26 191.48 290.26 190.89 289.72 189.95 288.88 189.11 288.22 188.79 
M 290.66 112.13 291.05 111.97 
M 290.85 118.06 291.41 117.82 292.13 117.19 292.59 116.49 292.59 116.05 292.13 115.35 291.41 114.72 290.85 114.48 
M 290.89 124.17 291.44 123.92 292.15 123.28 292.61 122.56 292.61 122.11 292.15 121.38 291.44 120.75 290.89 120.5 
M 290.71 130.36 291.26 130.11 291.97 129.46 292.43 128.73 292.43 128.27 291.97 127.53 291.26 126.88 290.71 126.63 
M 290.34 136.73 290.88 136.46 291.57 135.78 292.02 135 292.02 134.52 291.57 133.75 290.88 133.06 290.34 132.8 
M 290.28 143.7 290.81 143.41 291.49 142.68 291.93 141.85 291.93 141.33 291.49 140.5 290.81 139.77 290.28 139.48 
M 290.38 151.01 290.93 150.71 291.63 149.95 292.08 149.08 292.08 148.55 291.63 147.68 290.93 146.91 290.38 146.61 
M 290.49 158.52 291.06 158.21 291.78 157.42 292.25 156.53 292.25 155.97 291.78 155.08 291.06 154.29 290.49 153.98 
M 290.66 166.27 291.22 165.95 291.95 165.13 292.42 164.21 292.42 163.63 291.95 162.71 291.22 161.89 290.66 161.57 
M 290.97 174.22 291.52 173.9 292.22 173.09 292.67 172.17 292.67 171.6 292.22 170.68 291.52 169.87 290.97 169.55 
M 293.32 115.16 294 114.92 294.87 114.3 
M 293.41 121.15 294.07 120.91 294.92 120.28 295.47 119.57 295.47 119.13 294.92 118.41 294.07 117.78 293.41 117.54 
M 293.07 133.59 293.73 133.33 294.57 132.66 295.12 131.91 295.12 131.44 294.57 130.69 293.73 130.02 293.07 129.76 
M 292.83 140.24 293.49 139.96 294.33 139.25 294.87 138.45 294.87 137.95 294.33 137.15 293.49 136.44 292.83 136.17 
M 292.85 147.39 293.51 147.09 294.35 146.34 294.9 145.49 294.9 144.97 294.35 144.12 293.51 143.36 292.85 143.07 
M 293.34 170.27 294.01 169.95 294.86 169.14 295.41 168.22 295.41 167.65 294.86 166.73 294.01 165.92 293.34 165.61 
M 293.38 177.99 294.04 177.67 294.87 176.87 295.41 175.96 295.41 175.4 294.87 174.49 294.04 173.69 293.38 173.37 
M 293.25 193.62 293.91 193.29 294.75 192.46 295.29 191.51 295.29 190.93 294.75 189.98 293.91 189.15 293.25 188.82 
M 293.42 201.68 294.07 201.36 294.91 200.52 295.45 199.58 295.45 198.99 294.91 198.04 294.07 197.21 293.42 196.88 
M 293.33 217.28 293.98 216.97 294.82 216.16 295.36 215.25 295.36 214.68 294.82 213.77 293.98 212.97 293.33 212.65 
M 295.94 118.15 296.49 117.91 297.2 117.29 297.65 116.59 297.5 115.93 
M 295.96 124.24 296.5 123.99 297.21 123.35 297.66 122.63 297.66 122.18 297.21 121.46 296.5 120.82 295.96 120.57 
M 295.41 136.79 295.96 136.52 296.67 135.84 297.13 135.07 297.13 134.6 296.67 133.82 295.96 133.14 295.41 132.88 
M 295.3 143.73 295.86 143.44 296.57 142.71 297.03 141.88 297.03 141.36 296.57 140.53 295.86 139.8 295.3 139.51 
M 295.46 151.11 296.01 150.81 296.73 150.04 297.19 149.17 297.19 148.63 296.73 147.75 296.01 146.98 295.46 146.68 
M 295.98 174.21 296.52 173.9 297.22 173.09 297.67 172.18 297.67 171.61 297.22 170.7 296.52 169.9 295.98 169.58 
M 295.78 181.76 296.33 181.45 297.03 180.65 297.48 179.74 297.48 179.18 297.03 178.28 296.33 177.48 295.78 177.17 
M 295.87 197.7 296.42 197.38 297.12 196.53 297.57 195.58 297.57 194.99 297.12 194.04 296.42 193.2 295.87 192.87 
M 295.73 221.09 296.28 220.78 296.98 219.98 297.44 219.07 297.44 218.51 296.98 217.6 296.28 216.79 295.73 216.48 
M 298.46 121.21 299.11 120.96 299.95 120.33 300.5 119.62 300.5 119.18 299.95 118.47 299.11 117.85 298.46 117.6 
M 298.16 133.69 298.82 133.43 299.67 132.76 300.22 132.01 300.22 131.54 299.67 130.78 298.82 130.11 298.16 129.85 
M 297.93 140.35 298.6 140.07 299.46 139.36 300.01 138.56 300.01 138.06 299.46 137.26 298.6 136.55 297.93 136.27 
M 297.97 147.52 298.64 147.22 299.5 146.47 300.05 145.61 300.05 145.09 299.5 144.23 298.64 143.48 297.97 143.18 
M 298.4 170.31 299.06 170 299.91 169.19 300.45 168.28 300.45 167.72 299.91 166.81 299.06 166.01 298.4 165.69 
M 298.3 193.67 298.96 193.34 299.81 192.51 300.36 191.57 300.36 190.99 299.81 190.04 298.96 189.21 298.3 188.89 
M 298.43 201.7 299.09 201.38 299.92 200.54 300.47 199.6 300.47 199.01 299.92 198.07 299.09 197.24 298.43 196.91 
M 298.47 209.6 299.12 209.28 299.96 208.46 300.49 207.53 300.49 206.95 299.96 206.02 299.12 205.2 298.47 204.88 
M 298.38 217.34 299.03 217.03 299.88 216.22 300.42 215.3 300.42 214.73 299.88 213.82 299.03 213.01 298.38 212.69 
M 300.97 124.27 301.51 124.02 302.21 123.38 302.66 122.65 302.66 122.2 302.21 121.48 301.51 120.84 300.97 120.59 
M 300.87 130.56 301.42 130.3 302.12 129.65 302.58 128.9 302.58 128.44 302.12 127.7 301.42 127.05 300.87 126.79 
M 300.55 136.95 301.11 136.69 301.82 136 302.28 135.22 302.28 134.74 301.82 133.97 301.11 133.28 300.55 133.01 
M 300.47 143.91 301.03 143.62 301.75 142.89 302.21 142.05 302.21 141.54 301.75 140.7 301.03 139.97 300.47 139.68 
M 300.9 166.47 301.45 166.16 302.16 165.36 302.62 164.46 302.62 163.89 302.16 162.99 301.45 162.19 300.9 161.88 
M 300.97 174.2 301.51 173.89 302.21 173.09 302.65 172.18 302.65 171.62 302.21 170.71 301.51 169.91 300.97 169.59 
M 300.84 181.84 301.39 181.53 302.1 180.72 302.55 179.81 302.55 179.25 302.1 178.34 301.39 177.53 300.84 177.22 
M 300.97 205.68 301.51 205.36 302.21 204.53 302.66 203.59 302.66 203.01 302.21 202.08 301.51 201.25 300.97 200.93 
M 303.46 121.22 304.34 120.81 
M 303.23 133.79 303.89 133.52 304.73 132.85 305.28 132.09 305.28 131.62 304.73 130.85 303.89 130.18 303.23 129.92 
M 303.14 147.7 303.81 147.4 304.67 146.65 305.22 145.79 305.22 145.26 304.67 144.4 303.81 143.65 303.14 143.35 
M 303.31 155.16 303.98 154.86 304.84 154.08 305.39 153.19 305.39 152.65 304.84 151.77 303.98 150.99 303.31 150.68 
M 303.44 170.35 304.1 170.03 304.93 169.23 305.47 168.33 305.47 167.77 304.93 166.87 304.1 166.07 303.44 165.75 
M 303.45 201.71 304.1 201.39 304.94 200.56 305.48 199.62 305.48 199.04 304.94 198.1 304.1 197.28 303.45 196.95 
M 305.96 124.27 306.5 124.02 307.3 123.22 
M 305.88 130.59 306.42 130.33 307.12 129.67 307.57 128.92 307.57 128.46 307.12 127.71 306.42 127.05 305.88 126.79 
M 305.6 144.06 306.16 143.77 306.87 143.03 307.33 142.19 307.33 141.67 306.87 140.83 306.16 140.09 305.6 139.8 
M 305.83 151.5 306.39 151.2 307.11 150.43 307.57 149.55 307.57 149.01 307.11 148.13 306.39 147.36 305.83 147.06 
M 305.95 174.19 306.49 173.88 307.18 173.07 307.63 172.16 307.63 171.6 307.18 170.69 306.49 169.89 305.95 169.57 
M 305.93 189.84 306.49 189.52 307.19 188.69 307.65 187.76 307.65 187.19 307.19 186.25 306.49 185.43 305.93 185.11 
M 305.96 229.07 306.51 228.76 307.2 227.97 307.65 227.08 307.65 226.52 307.2 225.63 306.51 224.84 305.96 224.53 
M 308.24 133.81 308.89 133.55 309.72 132.87 310.25 132.1 310.25 131.63 309.72 130.86 308.89 130.18 308.24 129.92 
M 308.13 140.58 308.78 140.3 309.62 139.58 310.16 138.77 310.16 138.26 309.62 137.45 308.78 136.73 308.13 136.45 
M 308.26 147.83 308.92 147.53 309.77 146.77 310.32 145.92 310.32 145.38 309.77 144.53 308.92 143.77 308.26 143.47 
M 308.4 155.24 309.06 154.94 309.9 154.17 310.44 153.29 310.44 152.75 309.9 151.88 309.06 151.1 308.4 150.8 
M 308.4 162.69 309.04 162.38 309.87 161.6 310.4 160.71 310.4 160.16 309.87 159.28 309.04 158.49 308.4 158.19 
M 308.44 178.09 309.09 177.77 309.92 176.96 310.46 176.04 310.46 175.47 309.92 174.55 309.09 173.74 308.44 173.42 
M 308.44 185.91 309.1 185.6 309.94 184.78 310.48 183.85 310.48 183.28 309.94 182.35 309.1 181.53 308.44 181.21 
M 308.44 217.45 309.09 217.13 309.92 216.31 310.46 215.39 310.46 214.81 309.92 213.89 309.09 213.07 308.44 212.75 
M 308.19 232.49 308.82 232.2 309.62 231.46 310.13 230.62 310.13 230.1 309.62 229.26 308.82 228.52 308.19 228.23 
M 310.84 130.55 311.37 130.29 312.06 129.63 312.5 128.89 312.5 128.42 312.06 127.67 311.37 127.01 310.84 126.76 
M 310.61 137.06 311.15 136.79 311.84 136.09 312.28 135.3 312.28 134.81 311.84 134.02 311.15 133.33 310.61 133.05 
M 310.67 144.15 311.22 143.86 311.92 143.11 312.37 142.27 312.37 141.74 311.92 140.9 311.22 140.15 310.67 139.86 
M 310.93 151.59 311.48 151.29 312.18 150.52 312.63 149.65 312.63 149.11 312.18 148.25 311.48 147.48 310.93 147.18 
M 310.9 158.89 311.43 158.59 312.11 157.82 312.55 156.95 312.55 156.41 312.11 155.55 311.43 154.78 310.9 154.48 
M 310.8 166.36 311.32 166.06 311.99 165.26 312.42 164.37 312.42 163.81 311.99 162.91 311.32 162.12 310.8 161.81 
M 310.94 197.75 311.48 197.43 312.17 196.6 312.61 195.67 312.61 195.09 312.17 194.16 311.48 193.33 310.94 193.01 
M 313.17 133.76 313.8 133.49 314.62 132.81 315.15 132.04 315.15 131.56 314.62 130.79 313.8 130.11 313.17 129.85 
M 313.11 140.59 313.76 140.31 314.59 139.58 315.12 138.76 315.12 138.25 314.59 137.43 313.76 136.7 313.11 136.42 
M 313.3 147.88 313.96 147.58 314.8 146.82 315.34 145.97 315.34 145.43 314.8 144.58 313.96 143.82 313.3 143.52 
M 313.25 162.53 313.88 162.23 314.69 161.45 315.21 160.57 315.21 160.02 314.69 159.14 313.88 158.36 313.25 158.06 
M 313.28 170.22 313.92 169.91 314.73 169.1 315.26 168.19 315.26 167.62 314.73 166.71 313.92 165.9 313.28 165.59 
M 313.41 185.89 314.06 185.57 314.89 184.76 315.43 183.83 315.43 183.26 314.89 182.33 314.06 181.51 313.41 181.19 
M 315.71 130.43 315.93 130.32 
M 315.5 136.98 316.03 136.7 316.72 136 317.15 135.2 317.15 134.71 316.72 133.91 316.03 133.21 315.5 132.94 
M 315.66 144.17 316.21 143.88 316.9 143.12 317.35 142.27 317.35 141.74 316.9 140.89 316.21 140.13 315.66 139.84 
M 315.74 158.71 316.27 158.42 316.95 157.66 317.39 156.81 317.39 156.28 316.95 155.42 316.27 154.67 315.74 154.37 
M 315.57 166.16 316.09 165.85 316.76 165.05 317.19 164.15 317.19 163.59 316.76 162.69 316.09 161.89 315.57 161.58 
M 315.86 174.18 316.4 173.86 317.09 173.03 317.53 172.1 317.53 171.52 317.09 170.59 316.4 169.77 315.86 169.45 
M 315.84 189.75 316.38 189.43 317.07 188.61 317.51 187.69 317.51 187.11 317.07 186.18 316.38 185.37 315.84 185.05 
M 315.81 213.42 316.34 213.1 317.02 212.28 317.46 211.35 317.46 210.77 317.02 209.85 316.34 209.03 315.81 208.71 
M 318.01 133.63 318.65 133.36 319.16 132.92 
M 318.06 140.57 318.71 140.28 319.54 139.55 320.08 138.72 320.08 138.2 319.54 137.37 318.71 136.64 318.06 136.35 
M 318.08 162.37 318.71 162.07 319.52 161.29 320.04 160.41 320.04 159.87 319.52 158.99 318.71 158.22 318.08 157.91 
M 318.38 185.86 319.03 185.55 319.87 184.73 320.4 183.81 320.4 183.23 319.87 182.31 319.03 181.49 318.38 181.17 
M 318.28 209.44 318.92 209.12 319.73 208.3 320.26 207.37 320.26 206.8 319.73 205.87 318.92 205.05 318.28 204.73 
M 320.38 136.91 320.93 136.63 321.62 135.91 322.02 135.19 
M 320.68 144.22 321.23 143.92 321.94 143.16 322.4 142.3 322.4 141.76 321.94 140.9 321.23 140.14 320.68 139.84 
M 320.94 151.57 321.48 151.28 322.17 150.53 322.61 149.68 322.61 149.15 322.17 148.3 321.48 147.54 320.94 147.25 
M 320.62 158.58 321.14 158.28 321.81 157.54 322.25 156.69 322.25 156.17 321.81 155.32 321.14 154.57 320.62 154.28 
M 320.41 166.02 320.93 165.71 321.59 164.91 322.02 164 322.02 163.44 321.59 162.53 320.93 161.73 320.41 161.42 
M 320.93 182 321.47 181.68 322.17 180.86 322.62 179.93 322.62 179.36 322.17 178.44 321.47 177.62 320.93 177.3 
M 320.84 189.74 321.38 189.43 322.09 188.61 322.54 187.69 322.54 187.11 322.09 186.19 321.38 185.38 320.84 185.06 
M 320.81 197.63 321.35 197.31 322.05 196.48 322.5 195.55 322.5 194.98 322.05 194.05 321.35 193.23 320.81 192.91 
M 320.66 213.27 321.2 212.95 321.87 212.13 322.31 211.21 322.31 210.64 321.87 209.71 321.2 208.9 320.66 208.58 
M 323.1 140.65 323.77 140.36 324.62 139.62 325.17 138.77 325.17 138.25 324.62 137.41 323.77 136.66 323.1 136.37 
M 323.33 147.9 323.99 147.61 324.82 146.86 325.36 146.01 325.36 145.49 324.82 144.64 323.99 143.89 323.33 143.6 
M 322.87 162.16 323.49 161.86 324.28 161.08 324.79 160.21 324.79 159.67 324.28 158.79 323.49 158.02 322.87 157.72 
M 322.97 169.97 323.59 169.64 324.38 168.82 324.89 167.9 324.89 167.32 324.38 166.39 323.59 165.57 322.97 165.25 
M 323.3 178.03 323.93 177.71 324.74 176.88 325.27 175.93 325.27 175.35 324.74 174.41 323.93 173.57 323.3 173.25 
M 323.4 185.9 324.05 185.58 324.88 184.76 325.42 183.83 325.42 183.26 324.88 182.33 324.05 181.51 323.4 181.19 
M 323.18 209.33 323.82 209.01 324.65 208.2 325.18 207.28 325.18 206.71 324.65 205.79 323.82 204.98 323.18 204.66 
M 325.86 151.44 326.39 151.16 327.06 150.43 327.5 149.6 327.5 149.09 327.06 148.26 326.39 147.53 325.86 147.25 
M 325.35 158.29 325.86 158 326.52 157.26 326.94 156.43 326.94 155.91 326.52 155.08 325.86 154.34 325.35 154.05 
M 325.11 165.74 325.62 165.43 326.27 164.62 326.69 163.72 326.69 163.15 326.27 162.24 325.62 161.44 325.11 161.13 
M 325.56 173.96 326.07 173.63 326.73 172.79 327.15 171.83 327.15 171.23 326.73 170.27 326.07 169.43 325.56 169.1 
M 325.92 189.84 326.47 189.52 327.17 188.7 327.62 187.78 327.62 187.2 327.17 186.28 326.47 185.46 325.92 185.14 
M 328.24 140.81 328.92 140.5 
M 328.32 147.84 328.96 147.55 329.78 146.82 330.31 145.99 330.31 145.48 329.78 144.66 328.96 143.93 328.32 143.64 
M 327.96 154.7 328.57 154.41 329.37 153.69 329.88 152.86 329.88 152.36 329.37 151.53 328.57 150.81 327.96 150.52 
M 327.54 161.83 328.15 161.53 328.94 160.76 329.44 159.89 329.44 159.35 328.94 158.48 328.15 157.71 327.54 157.41 
M 327.65 169.68 328.26 169.36 329.04 168.53 329.55 167.59 329.55 167.01 329.04 166.07 328.26 165.25 327.65 164.92 
M 328.39 193.77 329.05 193.45 329.88 192.63 330.42 191.7 330.42 191.13 329.88 190.2 329.05 189.38 328.39 189.06 
M 330.92 144.38 331.47 144.1 332.3 143.11 
M 329.73 165.37 330.24 165.06 330.89 164.26 331.31 163.35 331.31 162.78 330.89 161.88 330.24 161.07 329.73 160.76 
M 330.19 173.64 330.7 173.3 331.35 172.45 331.77 171.47 331.77 170.87 331.35 169.9 330.7 169.05 330.19 168.71 
M 330.72 181.9 331.24 181.57 331.9 180.72 332.33 179.75 332.33 179.16 331.9 178.19 331.24 177.34 330.72 177.01 
M 330.9 197.72 331.45 197.4 332.15 196.59 332.6 195.66 332.6 195.09 332.15 194.16 331.45 193.35 330.9 193.03 
M 330.53 213.08 331.07 212.77 331.76 211.98 332.21 211.08 332.21 210.53 331.76 209.63 331.07 208.84 330.53 208.53 
M 332.67 154.39 333.29 154.11 334.09 153.39 334.61 152.58 334.61 152.08 334.09 151.27 333.29 150.55 332.67 150.27 
M 332.21 161.5 332.83 161.2 333.63 160.44 334.14 159.57 334.14 159.03 333.63 158.16 332.83 157.4 332.21 157.1 
M 332.82 177.65 333.44 177.31 334.24 176.45 334.76 175.48 334.76 174.88 334.24 173.91 333.44 173.05 332.82 172.72 
M 333.38 193.79 334.03 193.46 334.86 192.64 335.39 191.7 335.39 191.12 334.86 190.18 334.03 189.35 333.38 189.02 
M 332.79 216.71 333.04 216.59 
M 335.37 150.87 335.89 150.6 336.57 149.9 337.01 149.11 337.01 148.62 336.57 147.83 335.89 147.14 335.37 146.86 
M 334.69 157.63 335.22 157.34 335.89 156.61 336.33 155.79 336.33 155.28 335.89 154.45 335.22 153.72 334.69 153.44 
M 334.44 165.1 334.97 164.78 335.65 163.98 336.09 163.07 336.09 162.51 335.65 161.6 334.97 160.8 334.44 160.49 
M 334.88 173.34 335.41 173.01 336.08 172.15 336.51 171.17 336.51 170.57 336.08 169.6 335.41 168.74 334.88 168.4 
M 335.47 181.7 336 181.36 336.67 180.5 337.11 179.52 337.11 178.92 336.67 177.94 336 177.08 335.47 176.74 
M 335.92 197.76 336.46 197.44 337.16 196.62 337.61 195.68 337.61 195.11 337.16 194.17 336.46 193.35 335.92 193.03 
M 337.52 154.24 338.17 153.96 339 153.25 339.53 152.44 339.53 151.94 339 151.13 338.17 150.42 337.52 150.14 
M 337.06 161.36 337.72 161.06 338.55 160.3 339.1 159.43 339.1 158.89 338.55 158.03 337.72 157.26 337.06 156.96 
M 337.65 177.5 338.3 177.16 339.12 176.3 339.65 175.33 339.65 174.73 339.12 173.75 338.3 172.89 337.65 172.56 
M 338.11 185.74 338.75 185.4 339.57 184.55 340.1 183.58 340.1 182.98 339.57 182.01 338.75 181.16 338.11 180.82 
M 338.34 193.78 338.99 193.45 339.82 192.62 340.36 191.67 340.36 191.09 339.82 190.14 338.99 189.3 338.34 188.98 
M 340.33 150.84 340.88 150.57 341.38 150.07 
M 339.68 157.62 340.24 157.34 340.96 156.61 341.42 155.78 341.42 155.27 340.96 154.44 340.24 153.71 339.68 153.43 
M 340.42 181.65 340.96 181.32 341.65 180.45 342.09 179.48 342.09 178.87 341.65 177.89 340.96 177.03 340.42 176.69 
M 342.61 154.36 343.29 154.08 344.22 153.26 
M 342.28 169.32 342.96 169 343.83 168.18 344.22 167.54 
M 344.22 166.38 343.83 165.74 342.96 164.92 342.28 164.6 
M 342.67 177.5 343.33 177.17 344.22 176.23 
M 344.22 173.87 343.33 172.94 342.67 172.61 
M 343.07 185.7 343.72 185.37 344.22 184.85 
M 344.22 181.65 343.72 181.13 343.07 180.8 
M 344.22 205.41 343.22 204.78 
M 216.38 103.35 217.91 103.06 
M 228.23 98.04 225.75 44.26 226.61 44.2 231.29 97.41 
M 240.93 95.19 250.7 30 251.55 30.11 244.04 95.3 
M 253.94 94.35 278.91 32.97 279.71 33.28 257.08 94.82 
M 266.69 97.17 308.63 44.6 309.31 45.13 269.36 98.78 
M 278.16 103.29 323.32 63.43 323.91 64.07 280.55 105.3 
M 289.1 110.21 318.83 86.16 319.39 86.81 291.49 112.24 
M 296.13 114.49 297.14 115.67 
M 218.49 102.78 221.22 91.27 222.44 85.4 223.48 79.5 224.32 73.58 225.42 61.64 226 49.64 
M 227.09 49.57 232.67 47.63 235.38 46.51 237.99 45.24 240.51 43.79 245.24 40.38 249.72 36.51 
M 250.8 36.66 256.38 38.31 262.02 39.44 264.86 39.71 267.73 39.78 270.61 39.67 276.41 39.11 
M 277.42 39.5 283.03 42.84 285.89 44.35 288.82 45.69 291.82 46.84 298.03 48.59 304.43 49.86 
M 305.29 50.52 307.43 54.97 308.63 57.09 309.97 59.09 311.48 60.97 314.94 64.35 318.81 67.42 
M 319.54 68.22 317.63 72.54 316.84 74.73 316.23 76.96 315.82 79.22 315.58 83.85 315.85 88.56 
M 316.56 89.39 311.29 94.46 308.78 97.11 306.42 99.86 304.23 102.73 300.3 108.84 296.79 115.26 
M 229.9 48.63 235.38 46.51 237.99 45.24 240.51 43.79 242.92 42.16 247.5 38.48 
M 230.62 54.23 235.46 52.36 240 49.96 242.13 48.52 246.17 45.26 
M 231.35 59.84 235.55 58.21 237.56 57.24 241.33 54.88 244.84 52.05 
M 232.08 65.44 235.64 64.06 238.97 62.29 240.54 61.24 243.52 58.84 
M 232.8 71.05 235.73 69.92 238.46 68.46 242.19 65.63 
M 233.53 76.65 236.9 75.24 238.96 73.96 240.86 72.42 
M 253.59 37.52 259.19 38.96 262.02 39.44 264.86 39.71 267.73 39.78 273.51 39.42 
M 253.12 43.28 258.16 44.58 260.71 45.01 265.85 45.32 271.05 45 
M 252.65 49.04 257.14 50.2 259.4 50.58 263.97 50.85 268.59 50.57 
M 252.19 54.81 256.11 55.82 258.09 56.15 262.09 56.39 266.13 56.14 
M 251.72 60.57 256.78 61.72 260.21 61.93 263.68 61.72 
M 251.26 66.34 255.47 67.3 258.33 67.47 261.22 67.29 
M 250.79 72.1 253.03 72.68 255.3 72.98 258.76 72.86 
M 280.21 41.2 285.89 44.35 288.82 45.69 291.82 46.84 294.89 47.8 301.22 49.26 
M 278.36 46.73 283.47 49.57 286.1 50.77 291.57 52.67 297.26 53.98 
M 276.5 52.27 281.04 54.78 285.79 56.78 288.25 57.54 293.31 58.71 
M 274.65 57.8 278.62 60 280.67 60.94 284.92 62.41 289.35 63.43 
M 272.79 63.33 276.2 65.21 279.75 66.71 285.39 68.16 
M 270.93 68.86 275.24 71.1 278.28 72.16 281.44 72.89 
M 269.08 74.39 272.52 76.18 274.95 77.03 277.48 77.61 
M 306.33 52.77 308.63 57.09 309.97 59.09 311.48 60.97 313.14 62.72 316.85 65.91 
M 302.51 58.43 304.54 62.24 305.73 64.01 308.52 67.22 311.8 70.03 
M 298.69 64.08 300.45 67.4 302.63 70.37 303.9 71.71 306.75 74.16 
M 294.87 69.74 296.36 72.55 298.21 75.08 299.29 76.21 301.7 78.29 
M 291.04 75.4 292.98 78.78 294.67 80.71 296.65 82.41 
M 287.22 81.06 288.18 82.86 289.36 84.48 291.6 86.54 
M 318.55 70.37 316.84 74.73 316.23 76.96 315.82 79.22 315.61 81.52 315.68 86.2 
M 312.62 76.94 311.21 80.54 310.71 82.37 310.2 86.13 310.26 90 
M 306.69 83.51 305.58 86.35 304.92 89.26 304.78 90.75 304.83 93.8 
M 300.76 90.08 299.66 93.21 299.36 95.37 299.4 97.6 
M 190.35 180.01 205.77 175.23 206.07 176.04 189.9 182.89 
M 189.71 184.08 231.5 174.46 231.71 175.3 189.08 187.22 
M 188.85 188.15 237.81 181.88 237.94 182.74 188.09 191.25 
M 187.89 192.04 237.99 190.73 238.03 191.59 187.13 195.08 
M 186.97 195.72 238.55 199.58 238.51 200.44 186.58 198.73 
M 186.53 199.29 234.81 207.93 234.67 208.78 186.23 202.32 
M 186.15 202.77 223.36 213.64 223.15 214.48 185.65 205.79 
M 190.33 206.87 206.02 213.64 205.72 214.45 185.31 207.97 
M 204.01 176.92 209.14 177.72 214.24 178 216.77 177.85 219.29 177.49 221.8 176.95 226.8 175.54 
M 227.07 176.59 227.46 178.67 228.22 180.39 228.83 181.05 229.58 181.58 232.5 182.56 
M 232.66 183.64 231.55 185.25 230.97 186.86 230.97 187.66 231.17 188.46 232.67 190.87 
M 232.72 191.96 231.72 193.63 231.24 195.28 231.29 196.08 231.55 196.87 233.2 199.18 
M 233.14 200.27 231.41 201.29 230.14 202.53 229.78 203.29 229.6 204.13 229.84 207.04 
M 229.67 208.11 226.98 208.08 224.5 208.52 223.37 209.01 222.33 209.69 221.36 210.53 219.56 212.53 
M 219.28 213.58 215.94 212.29 212.57 211.52 210.86 211.42 209.15 211.54 207.43 211.83 203.96 212.75 
M 227.24 177.65 227.77 179.59 228.22 180.39 228.83 181.05 229.58 181.58 231.46 182.3 
M 232.07 184.44 231.17 186.05 230.97 186.86 230.97 187.66 231.17 188.46 232.08 190.07 
M 232.19 192.8 231.39 194.46 231.24 195.28 231.29 196.08 231.55 196.87 232.55 198.42 
M 232.24 200.76 230.69 201.87 230.14 202.53 229.78 203.29 229.6 204.13 229.68 206.03 
M 228.31 208.06 225.7 208.22 224.5 208.52 223.37 209.01 222.33 209.69 220.44 211.5 
M 224.51 258.03 228.16 264.47 229.1 267.26 232.01 279.1 229.32 280 225.95 279.62 223.73 278.63 216.84 276.61 212.82 272.81 211.59 271.29 210.9 269.5 209.64 267.15 200.94 253.04 200.54 250.47 198.1 244.46 
M 220.64 256.14 224.16 263.32 225.98 269.07 
M 216.79 254.2 218.44 258.73 219.91 262.2 221.27 264.77 222.75 270.74 224.06 272.82 225.74 275.02 
M 212.99 252.15 214.71 256.03 215.69 259.84 216.79 263.29 
M 209.14 250.22 211.09 253.68 211.78 259.84 213.15 262.96 
M 205.24 248.38 207.05 252.17 207.36 255.05 208.27 257.6 208.45 261.23 
M 201.45 246.32 203.43 254.42 205.21 257.19 
M 316.95 234.52 321.88 238.9 328.92 242.97 337.27 250.04 337.69 252.72 337.12 255.24 333.84 259.27 334.76 265.36 332.96 266.97 330.44 267.39 327.19 267.2 324.14 267.22 321.5 268.23 321.44 271.16 320.15 273.52 318.32 275.17 315.97 275.93 310.47 276.32 304.14 275.88 301.82 276.33 300.46 277.74 298.47 277.95 294.57 276.52 279.97 272.01 277.49 267.9 274.94 264.38 270.73 260.47 
M 313.55 237.17 317.73 239.87 320.78 241.53 326.33 244.94 328.41 246.86 330.34 247.5 333.12 248.91 
M 310.14 239.81 319.9 245.84 322.57 247.78 324.46 249.86 326.43 251.4 328.92 253.03 331.48 253.23 
M 306.56 242.22 309.76 244.82 316.03 248.46 318.78 250.29 320.86 252.09 322.17 253.82 325.16 255.91 327.74 256.23 329.65 257.2 
M 302.97 244.61 308.75 248.87 312.03 250.66 317.34 253.99 319.5 256.19 321.45 257.52 323.43 258.24 325.2 258.45 327.13 261.03 
M 299.32 246.9 302.25 249.02 305.1 250.59 307.35 252.5 310.91 255.16 314.11 257.28 316.21 258.22 318.37 260.66 321.02 261.77 322.66 261.48 324.54 262.65 326.98 265.14 
M 295.67 249.19 298.69 251.81 301.44 253.46 306.58 257.01 313.13 260.46 315.44 262.6 
M 292.01 251.47 298.01 256.33 303.67 259.71 305.86 261.91 310.16 265.21 312.17 266.25 314.15 268.72 
M 288.19 253.47 291.34 256.26 294.18 258.12 299.13 262.59 301.91 264.52 305.05 268.07 
M 284.27 255.27 287.28 258.36 292.39 262.55 296.82 267.11 298 269.16 299.79 271.09 302.99 273.09 
M 280.28 256.9 283.72 259.97 288.17 264.47 291.32 265.86 293.56 267.32 
M 276.26 258.47 279.74 261.18 281.95 263.98 284.2 266.1 287.08 268.02 290.22 269.76 
M 343.36 151.57 346.48 150.88 351.65 148.84 354.14 148.25 358.9 145.88 360.87 145.12 362.56 143.38 364.56 141.68 366.61 140.39 369.25 138.06 372.54 136.68 374.86 134.52 380.46 131.44 382.88 130.62 385.02 130.81 386.66 129.63 388.1 128.21 389.65 127.74 398.93 128.54 401.36 129.15 403.2 129.16 405.73 129.87 408.58 131.05 417.23 135.33 422.29 137.45 424.46 139.08 431.24 146.08 435.64 149.1 437.37 150.62 438.28 152.55 440.24 155.53 440.99 157.29 442.15 159.4 442.58 160.76 445.29 165.44 446.3 168.21 447.81 171.46 448.62 174.02 448.02 175.18 448.48 177.85 448.68 180.31 449.7 183.59 450.26 186.64 449.45 188.98 449.09 191.77 448.33 194.17 447.06 196.14 446.18 198.51 445.01 200.59 444.17 203.01 443.18 205.11 442.69 207.61 442.76 213.88 440.6 215.34 437.78 216.14 435.85 217.85 434.33 219.91 433.89 223.06 432.52 225.28 427.61 227.57 426.55 230.07 425.22 232.3 420.25 234.02 417.01 234.06 414.17 234.48 411.84 235.6 405.76 236.61 402.97 240.81 400.51 241.83 397.84 242.63 396.76 243.6 389.41 243.88 388.3 241.98 386.37 241.06 384.2 240.33 381.54 238.76 378.99 236.46 372.08 232.74 370.15 230.95 367.62 229.67 365.67 228.47 363.08 225.87 360.53 223.7 358.61 222.5 349.5 214.32 346.57 212.83 343.36 210.76 
M 351.36 151.79 356.93 150.42 359.5 149.36 363.92 146.1 367.81 144.01 373.66 139.94 376.59 139.4 378.59 138.03 380.75 137.92 382.84 137.04 388.05 135.38 389.07 134.51 390.71 133.57 393.3 131.25 
M 348.71 156.14 351.69 155.28 354.43 154.21 359.83 152.8 361.99 151.31 367.04 148.32 371.17 146.08 373.07 145.65 376.23 144.49 381.4 143.09 382.92 141.69 385.18 140.78 387.99 140.18 
M 351.53 158.69 357.27 157.02 359.9 156.03 362.39 154.59 367.35 152.16 369.28 151.87 373.31 150.47 375.69 149.83 378.99 148 384.31 145.39 388.17 144.57 390.77 144.24 393.48 143.48 399.5 140.49 403.23 138.98 404.99 138.59 406.23 136.02 
M 348.73 162.44 351.75 162.09 354.83 161.24 357.92 160.62 362.65 158.84 369.34 155.82 374.36 154.49 377.26 153.48 380.23 153.06 382.43 151.22 384.81 150.07 386.76 150.06 388.99 149.58 390.9 148.91 
M 346.35 166.05 348.91 165.54 354.62 164.95 365.62 162.51 369.67 160.8 372.23 160.31 375.37 159.2 378.08 158.03 380.48 156.64 383.12 156.67 388.25 155.38 391.22 155.39 394.43 155.67 
M 346.57 169.22 349.27 168.8 351.95 168.76 355.08 168.42 357.96 168.02 360.22 167.47 362.65 167.19 365.74 167.62 368.29 166.96 370.31 166.84 375.08 165.18 378.05 164.39 380.94 163.29 382.86 163.34 385.53 162.23 389.11 161.5 395.15 160.94 397.13 160.52 399.5 160.26 402.15 159.67 404.16 157.49 406.82 155.78 409.7 154.93 411.77 155.03 414.25 154.14 417.48 154.87 420.25 154.02 423.24 154.26 425.19 153.5 426.83 153.19 429.44 152.42 432.4 150.92 434.84 150.27 
M 343.36 172.29 346.87 172.54 357.39 171.9 362.63 170.88 368.51 170.51 370.91 170.13 375.72 169.04 378.81 169.11 380.84 168.93 383.32 168.28 388.95 167.62 391.16 166.7 394.07 165.92 396.41 164.86 398.91 165.26 401.04 165.12 407.25 163.37 
M 351.89 175.34 357.18 175.25 360.03 175.44 362.96 175.21 365.76 174.63 370.28 173.07 373.05 173.53 376.08 173.37 381.34 172.53 383.84 171.82 386.34 172.27 389.83 171.74 392.29 172.02 395 171.66 400.36 172.72 402.92 172.51 405.64 171.7 408.39 170.35 411.67 169.95 414.42 169.14 417.35 168.87 420.01 169.08 422.56 168.65 432 168.05 435.38 167.63 438.93 168.01 441.13 167.68 
M 343.36 178.21 346.41 178.65 352.05 179.12 360.86 179.33 363.78 179.27 368.99 178.72 373.77 177.71 376.41 177.62 379.75 178.41 381.54 178.24 383.37 178.32 387.06 177.8 392.73 178.02 395.62 177.35 397.67 177.69 400.66 178.59 406.21 178.32 409.45 178.66 412.38 178.76 415.4 177.91 417.99 177.74 
M 346.25 181.61 349.05 181.87 351.93 182.69 355.25 182.98 358.34 183.03 361.2 183.46 363.81 183.43 366.6 183.06 369.49 183.36 374.73 182.79 376.97 182.88 378.78 184.16 380.86 183.86 383.1 184.29 386.97 183.72 393.74 184.06 396.08 183.87 398.98 183.33 402.18 183.05 405.04 183.63 407.27 184.39 412.88 185.01 414.03 185.41 
M 346.23 184.86 349 185.43 357.37 186.53 360.53 187.31 365.21 187.61 367.83 188.02 373.22 187.89 376.12 188.16 379.09 188.68 382 188.84 384.49 189.28 393.05 188.59 397.73 190.17 402.85 190.57 405.2 190.17 407.87 191.6 413.74 192.65 417.54 192.16 420.89 191.12 424.83 192.48 429.47 191.62 431.77 191.52 435.68 192.99 438.08 194.32 
M 343.36 187.08 346.26 187.96 349.14 188.53 351.96 188.98 357.18 189.54 365.04 192.38 367.86 192.56 370.53 192.31 375.23 193.05 378.29 193.19 384.3 194.77 387.26 194.31 392.71 194.91 394.72 195.33 396.38 196.68 405.22 197.06 408.14 198.25 411.34 198.61 416.63 197.88 420.05 197.86 422.57 198.45 428.6 201.32 431.28 201.7 433.35 201.26 438.52 202.07 440.13 201.73 441.29 202.58 442.64 203.89 
M 346.35 191.14 352.23 192.58 359.8 193.94 362.58 194.67 365.19 195.86 370.98 196.31 373.1 197.18 375.84 197.36 378.48 198.87 381.6 199.86 386.89 200.3 390.81 200.03 393.59 200.78 399.42 202.89 402.44 203.79 404.47 204.12 407.55 205.31 410.65 206.07 413.25 205.77 416.67 205.09 418.87 204.96 421.68 205.56 427.35 209.24 430.47 210.23 432.75 209.89 434.41 211.06 435.53 212.43 
M 349.61 195.26 352.51 196.18 357.67 197.21 360.7 198.11 366.03 198.85 368.74 199.9 370.95 201.15 375.69 202.61 378.88 203.96 382.67 206.53 389.22 205.67 395.24 206.29 398.01 208.03 401.02 209.28 402.76 210.21 
M 343.36 195.96 346.79 197.53 352.42 199.63 363.08 202.83 365.37 203.89 372.87 206.42 375.72 206.86 378.08 207.95 379.76 209.75 381.27 211.73 384.22 212.33 
M 352.43 202.92 354.69 204.55 357.1 205.93 359.19 206.66 363.26 209.19 365.93 210.12 369.35 210.35 372.29 210.77 375.41 211.75 377.73 213.07 379.54 215.19 383.3 215.31 386.67 216.3 388.81 217.12 389.73 217.72 390.41 219.06 393.38 220.3 396.51 222.35 400.63 223.44 403.62 223.9 
M 349.38 205.28 356.45 209.56 361.38 211.9 363.62 213.37 366.27 214.45 369.33 215.03 373.52 216.51 378.68 218.82 382.39 220.82 386.04 222.45 389.23 225.61 391.04 226.61 393.85 227.63 397.17 228.43 399.99 229.34 403.31 229.69 407.27 232.36 411.56 232.23 412.66 233.65 
M 348.97 208.85 353.79 211.99 356.33 213.38 359.09 214.51 367.14 218.47 369.22 219.3 370.69 220.45 373.27 221.86 376.28 223.19 379.46 224.33 384.98 227.79 387.01 229.81 388.41 231.79 390.18 232.5 392.92 232.09 395.27 232.75 396.7 234.1 398.81 235.04 
M 346.44 210.13 348.94 211.68 358.59 218.34 361.26 219.73 363.53 221.46 365.99 222.95 368.36 224.85 371.68 225.5 376.19 228.32 378.98 230.33 
M 323.55 136.41 324.44 134.3 325.74 132.6 330.88 128.72 333.67 125.5 335.46 124.28 337.83 123.65 340.6 123.9 343.06 125.42 344.6 127.87 345.17 130.94 344.81 134.07 343.39 136.24 341.75 137.88 340.41 139.84 336.76 146.56 
M 326.58 135.38 330.88 132.17 333.67 128.94 335.46 127.73 337.83 127.1 340.6 127.35 343.06 128.87 343.83 130.1 
M 80.7 191.15 84.45 185.36 87.1 180.49 91.38 175.86 102.56 168.07 107.76 163.24 114.22 157.91 122.05 153.13 130.32 148.38 138.53 144.01 147.7 140.11 163.59 131.78 170.75 128.87 176.87 127.02 181.88 125.92 184.84 125.51 187.52 131.12 188.39 136.62 189.48 142.14 190.8 147.68 191.68 153.19 191.96 158.66 191.92 169.56 190.94 174.95 190.31 180.36 189.44 185.75 186.78 196.49 186.3 201.91 184.65 212.7 183.36 218.07 181.43 223.4 178.31 228.59 164.28 227.98 153.97 226.96 144.9 225.37 128.59 221.7 121.17 219.23 108.32 214.53 102.66 212.23 97.07 209.42 
M 93.04 207.31 88.89 204.59 85.61 201.48 
M 163.76 164.76 163.44 169.46 161.67 174.75 
M 154.16 193.87 153.98 195.1 155.68 204.57 155.39 208.58 139.52 208.31 126.62 207.29 120.08 206.57 113.8 205.01 108.04 202.99 
M 93.23 207.44 77.88 195.4 76.88 193.39 77.78 191.33 79.85 190.62 81.59 191.71 82.95 193.4 87.51 198.27 94.36 206.31 97.24 209.21 
M 95.45 209.62 88.54 208.21 82.28 206.3 
M 78.4 205.24 75.81 204.49 74.4 202.95 
M 74.42 202.6 74.51 200.84 76.32 199.74 78.48 200.22 90.22 206.12 96.28 208.76 
M 96.73 208.96 97.09 209.12 
M 124.94 192.82 120.77 186.98 118.72 180.11 119.02 172.94 121.62 166.26 126.26 160.79 132.42 157.12 139.44 155.64 146.56 156.53 153 159.68 158.07 164.75 161.22 171.2 162.11 178.31 160.64 185.33 156.97 191.49 151.49 196.13 144.81 198.74 137.65 199.03 130.77 196.99 124.94 192.82 
M 154.53 167.28 157.05 172.44 157.76 178.13 156.58 183.75 153.64 188.68 149.26 192.39 143.92 194.47 138.19 194.71 132.69 193.07 128.02 189.74 
M 133.53 182.93 131.86 180.59 131.05 177.84 131.16 174.98 132.21 172.3 134.06 170.12 136.53 168.65 139.33 168.06 142.18 168.41 144.76 169.67 146.79 171.7 148.05 174.28 148.4 177.13 147.81 179.93 146.34 182.4 144.16 184.25 141.48 185.3 138.62 185.41 135.87 184.6 133.53 182.93 
M 132.21 179.59 137.78 185.17 
M 134.95 180 140.29 185.34 
M 136.01 178.74 142.26 184.99 
M 136 176.4 143.94 184.34 
M 138.93 177 145.25 183.32 
M 139.46 175.2 146.46 182.2 
M 141.16 174.58 147.33 180.74 
M 139.5 170.58 147.99 179.08 
M 141.04 169.8 148.4 177.15 
M 142.87 169.3 148.07 174.5 
M 81.96 189.27 85.76 193.08 
M 83.97 186.11 87.88 190.02 
M 85.84 182.8 89.34 186.3 
M 87.87 179.66 91.98 183.77 
M 90.35 176.97 93.26 179.88 
M 93.16 174.61 96.53 177.97 
M 96.2 172.47 99.99 176.26 
M 99.26 170.35 103.12 174.22 
M 102.32 168.24 105.12 171.04 
M 105.03 165.78 108.67 169.41 
M 107.71 163.28 111.07 166.64 
M 110.55 160.94 114.05 164.45 
M 113.38 158.61 116.93 162.15 
M 116.48 156.53 120.45 160.5 
M 119.69 154.57 123.78 158.65 
M 122.92 152.62 125.94 155.65 
M 126.21 150.74 130.11 154.64 
M 129.49 148.85 134.18 153.54 
M 132.85 147.03 135.99 150.18 
M 136.23 145.24 138.91 147.92 
M 139.69 143.52 143 146.84 
M 143.31 141.98 146.94 145.6 
M 146.94 140.43 151.48 144.97 
M 150.4 138.71 155.52 143.83 
M 153.81 136.95 156.45 139.59 
M 157.21 135.17 160.46 138.42 
M 160.59 133.38 163.35 136.14 
M 164 131.62 166.95 134.57 
M 167.68 130.12 171.55 134 
M 171.4 128.67 175.52 132.79 
M 175.37 127.47 180.08 132.18 
M 179.51 126.44 182.32 129.25 
M 183.89 125.64 185.13 126.88 
M 163.2 149.02 162.58 149.08 161.89 148.92 159.42 147.7 158.27 147.33 
M 149.56 148.02 151.09 148.27 151.42 148.04 
M 126.83 160.45 126.81 160.44 
M 152.45 226.69 152.23 226.52 
M 182.06 221.66 181.27 223.05 180.96 224.19 
M 163.7 145.32 162.6 145.8 161.67 146.81 161.05 147.22 159.72 147.33 158.14 147 
M 184.66 154.4 183.85 154.55 183.44 154.47 182 153.25 
M 173.18 131.69 172.97 131.26 172.9 130.21 173.24 128.12 
M 161.36 138.43 159.16 135.29 158.75 134.35 
M 105.4 193.91 103.84 195.9 103.65 196.33 103.72 196.68 
M 123.21 216.17 119.63 217.99 118.59 218.27 
M 116.52 217.49 116.38 216.78 116.67 215.23 
M 90.42 200.04 90.82 197.8 90.98 194.76 91.51 193.63 92.63 192.42 
M 136.85 218.68 135.62 218.5 132.99 217.73 132.11 218.3 
M 183.42 143.91 182.46 141.26 182.53 139.97 183.18 138.63 185.67 136.95 186.29 136.16 186.59 135.13 186.49 134.05 
M 114.68 161.2 115.18 161.58 116.88 160.96 118.38 160.78 
M 179.14 187.34 179.34 187.66 181.32 188.96 182.21 190.93 182.28 191.84 182.15 192.34 
M 175.49 206.04 174.49 208.79 173.44 209.68 
M 177.97 218.9 177.66 217.75 178.07 216.27 178.11 214.51 
M 179.85 136.52 180.15 134.68 180.84 132.42 180.8 131.65 180.52 130.75 179.99 129.82 178.66 128.23 178.16 126.73 
M 115.7 158.64 117.51 159.79 120.07 160.44 124.36 163.03 
M 162.7 224.03 162.09 224.18 159.53 225.85 157.73 227.33 
M 173.66 191.65 171.59 191.66 171.28 191.51 170.08 189.63 169.56 189.15 168.06 188.16 167.03 187.73 165.98 187.56 
M 125.1 192.94 123.47 195.52 123.16 196.68 122.91 199.2 
M 152.07 142.61 153.66 142.22 154.34 141.56 154.6 139.99 154.32 138.73 
M 121.56 202.78 119.51 203.02 
M 190.08 149.09 190.65 149.68 191.14 149.83 
M 101.3 183.06 102.11 182.61 102.72 182.75 103 183.04 103.98 185.39 104.55 187.58 104.61 188.34 
M 102.84 169.28 101.85 169.15 101.39 168.87 
M 177.82 168.02 177.51 167.98 
M 180.64 158.89 180.6 159.23 180.84 159.56 181.18 159.63 181.54 159.45 181.81 158.65 181.61 158.08 
M 187.99 134.09 185.49 131.33 183.21 130.22 181.25 129.52 179.39 128.48 
M 135.1 223.23 135.15 222.54 134.75 221.54 
M 108.91 175.07 108.55 174.56 107.85 174.35 107.39 174.46 107.12 174.99 
M 167.04 143.62 161.52 143.6 159.04 142.79 157.99 142.07 
M 126.86 206.14 127.67 204.56 128.26 202.89 128.25 202.47 127.86 202.1 
M 94.75 203.87 93.44 202.44 92.29 201.67 91.52 200.93 90.88 199.52 90.86 198.28 
M 110.58 186.62 109.79 187.85 107.99 189.37 106.51 191 106.06 192.26 
M 178.24 197.07 177.86 197.43 177.54 197.48 174.05 195.69 
M 111.43 198.25 112.33 196.81 112.83 194.45 112.84 193.76 112.07 191.87 
M 99.25 180.8 99.56 178.76 99.98 177.56 100.87 176.48 102.14 175.92 
M 178.45 196.49 178.16 197.15 177.62 197.47 174.75 196.01 
M 167.66 200.17 167.93 198.51 168.97 195.87 169.04 194.48 168.5 193.8 167.88 193.48 166.1 192.97 
M 116.2 157.6 120.34 159.33 121.75 160.2 123.27 161.98 124.58 162.77 
M 177.56 134.55 177.38 133.84 177.18 131.33 176.7 129.34 176.53 127.12 
M 172.41 208.78 171.65 209.46 171.17 209.55 169.47 208.29 
M 138.7 199.23 138.22 199.01 
M 102.26 183.75 102.51 184.02 102.61 184.75 102.11 185.81 
M 185.44 155.66 185.52 155.24 185.32 154.93 184.15 154.96 
M 101.24 200.66 102.27 198 103.33 197.07 103.65 196.96 104.08 197.06 
M 90.82 197.52 90.89 195.06 91.3 193.97 92.28 192.67 93.46 191.97 
M 170.9 147.71 171.44 148 176.15 148.28 176.8 147.77 
M 172 196.4 171.3 193.78 
M 136.29 207.98 137.08 207.66 137.51 207.29 137.72 206.95 137.66 206.47 
M 173.55 205.65 173.03 207.95 172.66 208.75 171.88 209.51 171.23 209.66 
M 109.24 162.02 109.37 162.78 108.99 164.97 109.24 167.79 
M 186.1 153.46 186.48 152.93 188.52 151.67 189.44 151.3 191.31 150.87 
M 116.02 156.81 120.74 158.68 122.48 159.88 123.86 161.65 
M 184.87 137.99 186.28 136.71 186.75 135.71 186.75 134.57 186.49 133.65 185.61 132.02 185.13 131.36 184.44 130.95 182.81 130.16 181.74 129.86 179.11 128.26 
M 95.92 187.93 97.84 187.49 99.33 186.94 99.91 187.01 100.51 187.36 
M 162.79 215.28 161.79 215.21 161.36 215.02 160.29 213.33 
M 185.54 130.74 182.99 129.75 181.87 129.54 179.96 128.73 179.12 128.14 178.57 127.25 178.48 126.66 
M 173.41 154.38 173.89 154.06 174.51 153.88 176.61 153.65 178.01 154.42 178.91 155.36 179.15 156 
M 169.58 227.61 170.07 227.19 170.13 226.77 168.78 225.64 
M 173.01 148.39 175.9 148.76 176.68 148.58 177.11 148.11 177.36 147.43 177.42 145.22 
M 98.22 210.46 97.18 211.41 95.89 212.23 94.45 212.77 92.93 212.98 91.42 212.86 89.98 212.44 88.7 211.75 84.54 208.68 81.11 206.91 75.57 203.55 69.73 200.8 75.77 203.15 81.56 206.01 85.18 207.49 89.59 210.19 90.64 210.64 91.71 210.86 92.79 210.84 93.81 210.61 94.76 210.15 95.61 209.51 96.39 208.63 
M 87.09 207.8 93.07 210.78 
M 96.22 212.02 101.33 213.77 105.62 214.9 114.4 216.7 
M 98.68 212.89 98.85 211.78 98.75 210.47 
M 103.83 213.05 102.05 211.93 
M 187.75 132.59 191.12 135.96 
M 186.37 124.31 196.31 134.25 
M 190.19 121.24 197.36 128.4 
M 194.14 118.28 201.92 126.07 
M 198.14 115.38 206.36 123.6 
M 202.3 112.64 209.81 120.16 
M 206.53 109.98 216.16 119.61 
M 210.87 107.42 217.82 114.37 
M 215.13 104.78 224.08 113.73 
M 219.52 102.27 227.32 110.08 
M 224.15 100.01 231.15 107.01 
M 229.19 98.15 234.75 103.71 
M 234.49 96.55 241.23 103.29 
M 240.36 95.52 246.98 102.14 
M 246.97 95.23 254.02 102.28 
M 253.64 95.01 262.95 104.31 
M 261.19 95.66 266.87 101.33 
M 273.37 100.94 279.07 106.64 
M 291.69 112.36 299.41 120.08 
M 319.12 132.89 326.43 140.2 
M 348.88 155.76 349.87 156.74 
M 221.79 88.52 223.72 92.37 
M 222.88 82.93 227.12 91.41 
M 223.83 77.07 231.16 91.72 
M 224.61 70.88 234.25 90.16 
M 225.21 64.32 230.23 74.35 
M 233.31 80.52 238.71 91.31 
M 225.65 57.43 234.52 75.17 
M 236.83 79.8 243 92.14 
M 227.9 54.17 237.93 74.23 
M 241.01 80.4 246.41 91.19 
M 229.14 48.88 241.09 72.79 
M 244.18 78.96 247.26 85.13 
M 250.35 91.3 252.21 95.03 
M 232.43 47.71 232.82 48.48 
M 233.59 50.03 235.13 53.11 
M 236.67 56.2 242.07 66.99 
M 247.47 77.79 250.56 83.96 
M 252.87 88.59 255.18 93.22 
M 235.65 46.38 236.03 47.15 
M 237.57 50.24 238.34 51.78 
M 239.89 54.86 245.29 65.66 
M 246.06 67.2 246.83 68.75 
M 249.14 73.37 253.77 82.63 
M 256.08 87.26 260.57 96.24 
M 238.74 44.81 249.92 67.17 
M 252.24 71.8 265.02 97.37 
M 241.71 42.98 252.89 65.35 
M 254.43 68.43 269.8 99.17 
M 244.55 40.91 275.19 102.18 
M 247.3 38.64 257.71 59.47 
M 260.02 64.1 280.66 105.36 
M 250.53 37.34 260.56 57.39 
M 263.64 63.56 272.9 82.08 
M 273.67 83.62 286.35 108.99 
M 254.65 37.82 290.51 109.54 
M 259.09 38.94 259.47 39.71 
M 262.56 45.88 272.58 65.93 
M 274.9 70.56 294.95 110.66 
M 295.72 112.21 297.03 114.81 
M 264.44 41.87 275.23 63.47 
M 279.86 72.72 286.03 85.06 
M 286.8 86.61 297.6 108.2 
M 267.26 39.77 279.22 63.68 
M 283.85 72.93 300.04 105.33 
M 271.07 39.63 282.26 62 
M 285.34 68.17 286.89 71.25 
M 287.66 72.79 301.54 100.56 
M 274.78 39.29 286.74 63.2 
M 288.28 66.28 305.6 100.93 
M 279.36 40.69 286.69 55.34 
M 287.46 56.88 308.02 98 
M 284.78 43.76 299.05 72.3 
M 302.91 80.01 309.08 92.35 
M 289.82 46.07 302.54 71.52 
M 305.63 77.69 311.03 88.49 
M 294.5 47.68 314.94 88.55 
M 298.93 48.78 300.09 51.09 
M 300.86 52.64 301.63 54.18 
M 302.4 55.72 303.17 57.26 
M 303.94 58.81 315.37 81.65 
M 305.17 53.49 316.47 76.09 
M 314.1 63.59 318.06 71.52 
"/></svg>