<svg xmlns="http://www.w3.org/2000/svg" width="520" height="320"><rect x="0" y="0" width="520" height="320" fill="floralwhite"/><rect x="10" y="10" width="500" height="300" stroke="black" stroke-width="1" fill="none"/><path stroke="black" stroke-width="1" fill="none" stroke-linecap="round" stroke-linejoin="round" d="
M 115.27 93.19 126.43 89.09 136.8 86.73 147.33 85.3 157.9 84.09 178.88 80.62 189.41 79.09 200 78.1 210.62 77.58 221.25 77.35 253.15 77.51 263.78 77.23 274.42 77.35 285.02 78.19 306.15 80.62 316.69 82.02 327.14 84 368.55 93.7 378.78 96.62 388.69 100.48 398.03 105.55 398.46 106.06 
M 398.46 180.45 390.03 184.93 379.93 188.27 369.6 190.77 348.72 194.81 328.03 199.77 317.62 201.93 307.05 203.12 296.44 203.77 275.18 204.45 253.91 204.32 243.29 204.75 222.09 206.51 211.47 206.94 200.84 206.62 190.27 205.41 179.83 203.36 169.53 200.73 159.33 197.74 149.18 194.55 138.91 191.79 128.45 189.87 126.64 189.68 
M 239.94 125.94 241.67 125.68 249.31 125.36 251.08 125.14 
M 254.49 124.6 259.49 123.74 263.21 123.58 269.23 123.91 
M 273.11 124.03 274.98 124.03 280.1 123.63 
M 283.63 123.5 291.07 123.67 
M 298.9 124.22 310.74 126.64 314.98 126.98 322.99 127.05 336.57 128.45 352.91 128.38 360.64 127.94 387.03 127.45 392.7 128.06 
M 396.57 128.86 398.46 129.36 
M 129.61 93.78 128.82 95.56 127.85 97.15 
M 123.41 103.05 122.04 104.87 
M 130.24 160.22 131.17 162.39 
M 132.88 166.31 134.75 170.38 
M 140.45 182.57 142.21 186.46 
M 143.32 94.91 141.92 98.63 
M 138.72 105.73 137.79 107.39 136.68 108.88 
M 138.9 155.49 141.72 162.77 
M 143.27 166.68 144.93 170.68 
M 149.22 181.91 150.64 185.61 
M 141.01 116.87 139.28 120.35 
M 137.79 123.6 137.12 125.06 
M 149.99 156.63 151.35 160.46 
M 154.58 168.61 157.74 176.64 
M 159 180.31 160.15 183.84 
M 163.38 194.13 164.87 197.93 
M 158.53 101.78 156.98 110.43 
M 152.66 121.51 149.86 126.8 
M 159.56 156.37 159.93 157.37 
M 167.06 174.56 168.23 178.2 
M 169.27 181.7 170.35 185.23 
M 172.9 192.61 174.19 196.29 
M 175.44 199.87 176.39 202.48 
M 181.24 87.54 180.43 89.27 179.47 90.84 
M 170.14 101.69 169.01 103.09 168.14 104.76 
M 166.13 112.91 165.87 115.2 165.43 117.31 
M 164.33 121.33 162.32 126.95 
M 169.49 156.26 171.02 160.36 175.04 169.48 176.6 173.56 178.26 178.98 
M 181.54 189.68 185.58 200.91 
M 181.2 106.58 178.69 109.15 
M 176.32 111.87 175.23 113.32 174.54 115.18 
M 173.34 119.09 171.62 125.05 170.82 127.05 
M 179.85 155.46 181.37 159.47 
M 183.08 163.75 184.88 168.1 
M 186.58 172.34 190.44 183.74 
M 192.99 191.23 194.22 194.91 
M 195.58 198.69 198.9 206.4 
M 194.7 104.16 193.96 105.96 193.05 107.59 
M 190.95 110.58 189.78 111.95 187.08 114.37 184.61 117 182.78 120.29 182.2 122.27 
M 181.13 126.67 181.03 127.17 
M 192.36 160.11 197.26 172.63 
M 198.91 176.8 200.47 180.87 
M 201.87 184.75 203.14 188.5 
M 204.51 192.32 209.87 206.89 
M 208.25 96.76 206.57 100.16 
M 204.85 103.54 204 105.25 203.33 107.13 
M 200.59 114.64 199.77 116.38 198.71 117.89 
M 194.64 124.11 192.96 127.31 
M 201.35 152.15 202.01 154.08 
M 204.81 161.95 206.06 165.73 
M 207.05 169.24 208.23 172.92 
M 216.82 196.28 219.3 203.5 
M 224.51 86.83 222.32 89.79 
M 220.27 92.89 219.31 94.49 216.73 99.59 
M 215.13 103.12 213.65 106.77 
M 212.33 110.61 209.55 120.72 208.79 122.54 
M 207.25 126.18 206.7 127.47 
M 214.63 158.44 215.83 162.15 
M 216.82 165.66 217.8 169.13 
M 220.46 176.77 221.85 180.64 
M 224.74 188.45 228.55 198.32 231.07 205.77 
M 238.68 79.85 238.19 81.97 237.43 83.8 
M 235.68 87.25 234.69 88.85 231.43 93.34 
M 229.52 96.58 226.2 103.57 
M 224.41 106.94 221.69 111.99 219.52 117.6 
M 216.93 125.42 216.41 127.59 
M 220.3 147.51 220.68 148.5 
M 223.94 156.78 225.14 160.49 
M 226.16 164.02 231.8 180.86 233.18 184.71 236.49 192.89 237.76 196.57 239.2 201.55 
M 240.28 204.89 240.32 205 
M 240.86 96.98 235.15 106.81 
M 233.27 110.14 227.25 122.41 225.8 126.2 225.42 127.69 
M 233.73 158.02 235.72 165.06 
M 236.71 168.57 238.53 174.15 242.56 184.38 
M 243.9 188.17 245.03 191.73 
M 246.05 195.15 249.35 204.5 
M 252.35 97.14 249.7 102.25 248.61 103.77 
M 239.36 115.45 236.56 120.54 235.74 122.36 
M 234.33 126.09 233.8 127.79 
M 242.01 155.37 243.67 162.15 
M 244.6 165.64 246 169.57 
M 248 174.1 251.38 181.24 252.97 185.31 255.34 193.77 
M 256.58 197.39 259.29 204.37 
M 263.8 92.48 259.19 103.42 
M 255.1 109.8 248.99 116.88 243.43 124.25 
M 250.06 149.96 251.36 153.86 
M 253.28 160.97 254.85 166.42 255.71 168.55 
M 257.51 172.91 265.28 191.89 268.29 200.83 
M 274.63 88.05 271.57 95.33 
M 269.94 98.89 268.12 102.3 
M 263.87 108.56 252.87 124.92 
M 255.29 134.47 256.36 137.47 
M 260.73 149.73 262.02 153.64 
M 263.04 157.29 264.13 162.3 265.17 165.95 265.93 168 
M 267.59 172.23 269.45 176.63 
M 271.31 181.01 273.7 187.14 275.54 192.62 
M 276.85 196.31 279.87 204.32 
M 281.56 90.49 280.94 92.45 279.41 96.11 277.61 99.52 272.66 107.75 
M 270.79 111.19 267.99 116.42 265.89 119.68 264.16 121.63 
M 268.39 141.34 270.85 149.1 
M 274.08 160.28 275.21 164.02 
M 276.7 168.11 280.2 176.74 
M 281.86 180.92 286.15 191.36 289.08 200.22 
M 290.43 203.83 290.5 203.98 
M 290.79 85.18 289.5 89.04 
M 288.11 92.82 287.34 94.64 283.58 101.35 282.75 103.17 
M 279.58 110.64 277.28 116.38 275.58 120.07 273.46 124.06 
M 277.73 137.52 279.17 141.63 
M 283.42 153.86 288.47 166.8 
M 289.93 170.85 290.58 172.79 293.39 183.16 296.53 192.34 
M 297.86 196.02 301.01 203.49 
M 296.08 96.88 295.45 98.85 293.83 102.49 292.84 104.15 
M 290.88 107.5 289.91 109.19 286.62 116.64 283.12 123.45 
M 288.07 137.58 290.89 145.7 
M 294.47 154.57 299.13 165.75 300.57 169.77 302.2 175.17 
M 303.03 178.47 303.79 181.66 
M 305.58 188.15 307.24 193.21 308.08 195.16 
M 310.28 199.86 311.63 202.61 
M 311.38 87.84 308.53 92.89 303.71 104 299.08 112.79 
M 297.35 116.45 293.54 123.75 
M 303.79 150.79 306.03 155.58 
M 307.93 159.98 310.05 165.8 312.67 174.37 
M 313.62 177.63 316.36 185.95 321.32 198.47 
M 318.56 97.22 316.86 100.9 
M 315.15 104.6 310.45 113.51 308.83 117.37 307.54 121.58 305.76 125.67 
M 312.54 143.52 314.5 147.91 
M 317.61 155.78 321.42 167.61 324.5 175.06 328.18 184.97 331.96 193.56 
M 334.33 88.3 331.08 93.15 329.15 96.64 327.62 100.55 325.66 106.81 
M 324.15 110.79 322.54 114.7 
M 320.96 118.67 317.91 126.98 
M 328.33 152.25 331.81 162.2 
M 332.9 165.38 335.39 171.94 
M 336.8 175.34 344.91 192.33 
M 346.04 91.09 343.98 94.47 
M 341.78 97.73 338.41 102.57 336.67 106.33 334.77 112.74 
M 333.58 117.11 331.69 123.6 329.94 127.79 
M 338.78 146.25 340.08 149.63 
M 341.29 152.89 349.16 173.4 356.02 188.57 
M 353.27 100.34 350.14 105.43 349.25 107.29 
M 347.56 111.13 345.28 117.18 343.89 121.37 341.92 128.38 
M 350.13 145.46 352.08 149.32 
M 355.29 156.28 359.18 166.55 363.21 175.92 365.61 183.48 
M 367.84 95.86 366.74 97.47 365.9 99.35 
M 364.18 103.08 363.3 104.93 358.97 111.56 357.32 115.43 353.35 128.37 
M 359.58 140.96 361.38 144.55 
M 363.44 148.36 365.38 152.05 
M 366.97 155.37 368.86 159.84 370.94 165.34 375.42 178.68 
M 378.24 99.59 377.19 101.24 375.45 104.9 372.39 112.71 368.35 119.62 366.42 123.2 364.21 127.84 
M 370.35 139.83 377.07 152.25 379.04 156.67 
M 380.15 159.41 381.71 163.44 384.26 171.04 385.69 174.38 
M 385.48 107.53 382.53 112.65 379.35 120.29 377.41 123.81 375.03 127.62 
M 380.58 138.52 387.95 152.81 389.37 155.8 391.62 161.26 395.55 169.51 
M 220.24 201.01 215.99 202.82 215.31 203.35 214.74 204.41 
M 321.59 168.02 320.79 167.74 319.22 166.39 318.43 166.1 
M 264 121.26 263.56 121.71 263.99 122.45 264.84 123.16 266.03 123.43 
M 380.95 112.34 379.83 114.5 379.21 115.12 378.38 115.59 377.79 115.61 377.07 115.39 375.31 114.59 373.42 114.07 
M 342.12 153.82 340.29 152.1 337.12 150.44 334.67 149.38 
M 161.87 123.69 164.17 123.3 165.61 122.34 166.28 121.28 166.8 118.63 
M 142.41 174.65 143.39 173.29 146.23 171.84 
M 322.61 199.48 323.64 198.35 325.52 197.75 326.21 197.26 326.52 196.42 326.45 195.91 326.2 195.51 
M 396.29 181.6 391.24 181.5 389.18 181.82 387.8 182.28 
M 376.6 152.55 376.16 151.34 375.55 148.22 375.54 146.62 375.29 145.08 374.86 144.33 371.59 140.82 
M 304.48 182.41 303.62 180.25 303.27 178.39 304.43 176.48 304.66 175.46 
M 279.54 94.01 280.88 94.63 281.85 93.79 
M 211.51 99.68 211.24 97.3 211.57 94.67 210.6 91.37 
M 274.27 120.29 274.53 121.66 274.45 122.6 272.49 126.02 
M 247.34 94.13 247.71 92.97 247.76 92.02 247.19 90.31 246.34 88.99 245.82 88.58 244.68 88.07 241.23 87.28 240.71 87.03 
M 191.44 182.7 189.77 181 187.89 179.88 187.43 179.53 187.15 179.06 186.84 177.88 186.8 176.82 187.12 176.06 187.75 175.55 
M 142.74 86.94 141.37 86.88 140.52 86.6 140.09 86.28 
M 279.44 163.02 279.12 162.2 277.55 160.11 277.39 159.43 277.56 158.85 278.55 157.84 279.02 157.56 280.26 157.29 
M 120.2 100.47 120.94 99.96 122.63 98.19 
M 205.82 163.25 207.37 165.48 
M 357.26 140.31 356.98 139.54 356.93 138.88 357.29 137.61 358.7 136.18 360.56 134.95 362.7 133.2 
M 294.83 187.38 294.76 189.25 295.21 191.2 296.96 195.05 297.69 195.97 298.3 196.35 
M 394.09 177.91 393.28 178.19 389.28 178.11 385.37 179.57 383.86 179.43 
M 306.06 146.53 305.23 146.24 302.01 145.68 300.46 144 299.1 143.08 
M 170.42 88.82 168.12 88.72 165.9 88.19 163.02 86.69 159.6 85.68 158.58 84.93 158.02 84.08 
M 304.97 162.22 304.45 165.49 303.89 166.39 303.14 167.16 
M 300.36 151.33 300.49 150.78 300.27 150.03 299.4 149.25 298.08 148.6 296.13 148.07 291.82 147.41 290.76 147.43 
M 121.39 93.64 122.38 92.45 122.91 91.08 123 90.34 
M 269.57 163.58 266.72 165.22 266.33 165.6 266.16 166.07 
M 282.61 195.49 283.05 198.04 283.66 199.24 285.61 200.77 288.13 201.97 
M 263.27 100.83 261.67 99.29 259.39 96.74 257.19 93.62 256.45 92.89 254.8 91.76 253.23 90.16 
M 296.9 189.39 297.21 191.09 298.38 193.78 299.07 195.6 299.07 195.95 
M 224.55 146.37 224.73 147.04 224.4 147.37 
M 285.38 167.45 284.84 166.81 282.75 165.91 281.85 165.07 281.51 164.52 280.79 162.43 279.99 161.14 
M 252.95 171.25 251.05 171.78 247.9 173.92 244.83 175.63 243.36 175.78 242.63 175.6 242.06 175.21 
M 283.02 195.25 284.6 198.44 285.66 199.81 287.08 200.96 287.93 201.32 289.64 201.61 
M 246.23 115.21 247.88 115.43 249.41 116.3 251.51 116.9 251.94 116.65 252.23 115.92 
M 171.75 81.86 171.75 81.86 
M 178.31 80.72 179.56 68.18 180.79 65.46 183.7 64.41 186.89 63.57 189.31 62.01 192.19 60.9 194.83 59.97 197.53 59.32 199.48 57.42 205.1 55.33 207.9 54.65 210.97 54.22 216.33 54.03 218.62 53.75 221.74 54.38 224.51 53.38 226.85 51.9 229.92 51.55 232.52 50.68 235.25 49.49 237.14 47.67 239.96 46.89 242.75 47.36 247.7 48.96 250.37 50.06 252.69 50.39 254.97 49.93 261.17 52.96 264.12 53.32 266.42 51.77 269.13 50.63 270.8 48.39 275.62 45.43 278.91 46.26 283.98 45.31 286.8 45.13 289.86 46.11 292.05 46.21 294.55 47.86 298.04 50.74 301.7 54.17 306.37 60.83 309.37 63.5 311.49 64.33 316.73 67.32 319.16 68.02 324.92 70.84 330.89 77.56 333.55 81.25 333.47 85.42 
M 329.78 84.53 329.78 84.53 
M 176.44 81.05 179 80.42 179.8 77.81 179.94 75.46 
M 181.14 80.24 181.32 80.2 
M 183.26 79.88 183.57 79.83 184.56 77.37 184.47 74.3 184.97 66.08 
M 185.85 79.55 188.49 78.25 189.34 73.28 190.69 71.45 190.41 64.59 190.54 62.51 
M 190.58 78.95 193.07 76.59 193.67 74.51 194.35 73.83 195.12 71.84 196.37 67.77 196.19 64.07 
M 195.31 78.4 197.21 76.57 198.24 74.35 200.09 69.47 200.4 66.69 202.31 62.37 203.32 60.57 203.55 57.71 
M 200.07 78.09 202.06 76.14 204.26 71.63 205.26 69.16 205.89 66.83 
M 204.82 77.79 207.01 76.4 209.96 69.4 210.44 66.55 211.64 63.07 213.45 60.54 214.21 57.92 215.13 56.16 
M 209.58 77.62 212.06 76.43 213.38 74.71 214.91 69.47 215.96 66.74 217.58 63.62 
M 214.35 77.47 216.51 75.98 217.21 73.74 218 72.13 219.95 67.09 222.31 63.82 
M 219.11 77.37 221.43 75.84 223.41 69.18 227.04 63.9 228.26 61.64 229.44 60.56 230.87 58.08 
M 223.87 77.31 225.79 75.66 227.06 73.49 227.97 70.71 229.26 68.79 231.34 64.89 
M 228.64 77.27 230.15 75.56 231.6 73.42 233.45 71.23 234.4 68.93 235.89 66.9 236.73 62.42 
M 233.4 77.35 235.43 76.18 239.48 68.09 240.97 63.49 242.42 61.78 243.62 59.18 243.79 55.92 
M 238.17 77.44 240.88 76.25 244.5 67.89 245.31 65.61 246.7 60.7 248.35 57.05 
M 242.93 77.5 245.01 76.18 246.37 73.58 248.36 70.88 249.04 68.05 249.2 65.36 251.01 60.68 252.62 59.68 253.73 57.87 253.85 55.57 255.72 52.24 
M 247.7 77.55 249.15 76.05 252.49 71.37 254.92 66.25 255.81 63.92 256.56 61.28 258.3 60.08 
M 252.46 77.53 254.48 75.82 256.2 74.02 258.87 69.73 260.09 66.86 
M 257.22 77.38 259.44 75.8 261.03 74.39 262.51 72.18 263.76 69.51 264.59 66.29 
M 261.99 77.23 264.03 75.91 265.48 73.7 266.25 70.88 267.3 68.46 271.12 57.34 
M 266.75 77.24 268.73 75.65 270.82 71 271.95 68.97 272.81 65.73 273.74 59.26 275.81 57.86 277.1 55.46 278.6 53.3 
M 271.52 77.26 272.97 75.77 274.16 73.61 274.89 71.1 277.89 65.67 279.22 62.44 279.69 59.2 280.73 57.77 282.58 55.69 284.23 52.97 286.95 47.07 
M 276.28 77.49 277.96 75.91 279.21 74.08 280.44 71.86 281.37 69.7 283.18 66.52 
M 281.03 77.86 282.75 76.58 284.5 74.74 285.86 72.07 288.05 69.7 295.84 58.41 
M 285.77 78.27 288.1 77.38 289.23 74.98 291.24 72.44 292.38 69.2 294.68 67.47 296.53 65.64 297.44 63 298.97 59.92 300.99 57.77 
M 290.51 78.78 293.19 78.24 295.02 75.69 296.65 72.75 299.89 68.5 301.27 65.93 303.72 60.34 
M 295.25 79.3 298.84 78.65 300.66 76.54 301.55 74.08 303.24 71.71 
M 299.98 79.86 303.72 79.69 305.11 77.66 306.35 73.96 307.32 71.76 309.97 69.63 311.81 67.12 
M 304.71 80.44 308.04 80.15 309.88 78.35 311.29 76.65 313.63 72.23 
M 309.43 81.05 313.43 80.84 318.05 76.69 
M 314.16 81.68 318.27 80.94 320.87 78.74 323.57 77.39 
M 318.88 82.34 323.46 81.44 325.73 79.5 327.64 78.14 
M 323.55 83.28 328.07 83.16 
M 132.03 124.87 286.78 127.28 286.78 128.23 132 128.3 
M 132.12 128.69 265.57 137.93 265.51 138.88 131.91 132.11 
M 132.2 132.51 244.12 146.37 244.01 147.31 131.82 135.92 
M 132.29 136.33 222.61 152.59 222.45 153.53 131.73 139.72 
M 132.38 140.16 201.21 156.6 201.01 157.53 131.64 143.51 
M 132.47 143.99 180.09 158.42 179.84 159.34 131.56 147.3 
M 132.55 147.83 159.43 158.09 159.13 159 131.47 151.09 
M 132.64 151.94 139.39 155.92 139.04 156.81 131.39 155.14 
M 271.3 128.24 266.55 129.07 262.04 130.43 259.92 131.4 257.89 132.58 255.95 133.94 252.22 137.01 
M 252.15 138.2 247.47 138.55 242.98 139.45 240.85 140.2 238.79 141.17 236.79 142.32 232.93 144.98 
M 232.79 146.17 228.23 146.05 223.8 146.48 221.66 147.01 219.58 147.76 217.55 148.71 213.58 150.96 
M 213.38 152.15 208.97 151.56 206.79 151.45 204.64 151.54 202.52 151.85 198.38 153.12 194.33 154.96 
M 194.07 156.13 189.85 155.09 187.75 154.76 185.66 154.63 183.57 154.73 179.44 155.57 175.33 156.98 
M 175.01 158.14 171.03 156.68 167 155.79 164.97 155.67 162.93 155.78 160.88 156.08 156.74 157.07 
M 156.37 158.21 152.63 156.4 150.73 155.68 148.8 155.16 146.84 154.86 142.82 154.91 138.72 155.53 
M 268.91 128.62 264.25 129.66 262.04 130.43 259.92 131.4 257.89 132.58 254.07 135.44 
M 244.95 128.6 241.11 129.46 239.28 130.09 235.86 131.87 232.71 134.22 
M 220.99 128.58 217.97 129.25 216.53 129.75 213.83 131.15 211.35 133.01 
M 197.04 128.55 193.77 129.41 191.81 130.44 189.99 131.79 
M 249.8 138.34 245.2 138.91 242.98 139.45 240.85 140.2 238.79 141.17 234.85 143.61 
M 222.32 136.93 218.79 137.37 215.45 138.36 213.87 139.1 210.85 140.97 
M 194.83 135.53 191.2 136.11 188.96 137.03 186.86 138.34 
M 230.5 146.07 225.99 146.17 223.8 146.48 221.66 147.01 219.58 147.76 215.56 149.8 
M 196.03 142.59 193.1 142.65 190.29 143.2 188.93 143.69 186.32 145.01 
M 211.17 151.81 206.79 151.45 204.64 151.54 202.52 151.85 200.44 152.39 196.35 154 
M 183.46 147.65 180.62 147.42 179.22 147.47 176.49 148.03 173.83 149.07 
M 191.96 155.57 187.75 154.76 185.66 154.63 183.57 154.73 181.5 155.05 177.38 156.23 
M 160.46 198.09 163.46 201.01 165.7 203.68 169.11 210.69 170.61 212.83 172.9 214.98 173.83 217.96 178.46 223.04 180.18 225.61 181.77 228.96 183.94 230.85 180.4 236.26 179.27 239.06 177.63 245.14 176.98 248.31 175.32 250.69 172.52 251.92 170.01 253.44 168.1 255.55 166.86 258.27 165.11 260.64 155.64 264.86 156.65 262.49 156.01 259.08 155.28 257.19 154.12 255.26 153.85 252.49 155.12 247.08 155.54 243.61 154.57 240.67 155.09 238.79 154.09 235.09 153.72 232.04 152.64 229 152.41 225.87 151.8 223.14 151.86 219.75 152.26 216.58 152.18 213.99 151.66 208.05 150.81 205.16 150.05 198.55 149.17 194.55 
M 158.64 197.52 161.24 200.92 163.36 203.33 167.28 213.3 168.73 215.87 172.06 220.61 173.62 222.5 
M 156.82 196.95 160.68 203.64 163.35 210.38 164.91 213.5 168.24 218.81 169.54 221.51 171.2 224.04 171.51 227.13 173.04 230.04 
M 155 196.38 157.02 200.4 157.93 203.74 159.38 206.89 160.52 210.05 161.33 213.55 162.44 216.34 164.65 219.25 166.08 221.45 
M 153.18 195.81 154.91 199.94 155.54 203.36 156.4 206.73 157.54 209.52 158.25 212.95 159.16 216.21 160.81 218.77 162.11 221.37 162.8 224.29 163.73 226.98 163.84 230.24 163.57 233.15 164.75 236.2 165.85 240.09 167.98 245 
M 151.37 195.24 152.69 199.32 153.96 206.14 155.06 208.49 155.18 211.9 155.56 214.94 156.85 217.58 157.55 223.66 159.55 229.56 160.27 232.91 160.33 235.34 160.94 238.97 162.21 244.51 161.61 249.09 161.9 251.47 164.49 257.91 
M 374.94 189.7 380.67 195.07 383.68 198.66 385.4 203.17 386.71 210.63 385.17 213.12 383.43 215.42 379.31 219.33 373.87 221.46 371.31 222.8 370.23 225.73 367.37 226.49 364.16 226.21 361.16 226.26 358.43 226.79 355.41 227.14 352.6 227.08 349.96 226.45 348.37 226.85 343.89 230.23 341.78 232.05 338.36 231.46 331.5 229.7 326.24 229 323.86 229.24 320.28 228.27 316.25 227.72 313.53 226.83 311.59 226.71 294.03 216.41 288.23 209.99 284.63 204.19 
M 370.26 190.63 374.23 194.75 379.37 201.06 381.33 203.72 383.28 206.78 385.83 210.05 
M 365.59 191.57 369.52 195.58 371.25 199.14 375.06 204.14 377.09 207.12 
M 360.91 192.45 363.89 196.91 365.69 200.19 367.69 202.79 370.4 204.83 
M 356.22 193.31 359.48 197.57 361.39 200.76 364.1 207.23 367.09 209.65 370.09 211.19 372.75 212.06 374.57 215.12 
M 351.54 194.19 354.88 197.75 359.23 204.14 362.52 209.85 364.85 212.91 367.8 214.62 
M 346.89 195.22 350.08 198.68 352.46 201.86 356.28 207.62 360.54 211.97 362.37 214.72 365.44 217.5 
M 342.23 196.24 344.87 199.47 347.24 201.86 349.58 204.87 351.43 208.09 353.15 209.97 
M 337.61 197.38 340.46 200.52 346.43 208.31 349.48 211.05 353.37 215.87 353.8 219.05 
M 332.99 198.57 338.13 205.08 339.59 207.47 342.1 209.94 346.05 212 348.75 214.44 350.1 220.01 
M 328.36 199.7 331.42 203.77 335.4 209.94 338.97 215.07 
M 323.7 200.7 326.51 204.15 328.39 207.27 330.58 209.9 333.98 215.88 338.98 220.19 340.85 222.32 342.91 225.24 343.62 227.11 
M 319.05 201.71 321.59 205.5 323.35 208.48 325.59 210.74 327.32 212.97 329.04 216.74 
M 314.32 202.3 317.31 206.49 319.67 209.45 323.18 215.14 324.27 217.8 326.41 220.35 329.31 225.84 333.44 229.19 
M 309.59 202.84 312.89 207.46 315.27 210.2 317.46 213.3 319.08 216.09 320.89 219.71 321.47 222.78 
M 304.84 203.26 308.18 207.34 312.5 213.95 316.89 219.48 316.63 223.16 317.34 226.07 
M 300.08 203.55 302.76 207.19 304.49 210.93 306.81 213.89 308.81 216.82 311.44 219.66 314.94 226.07 
M 295.33 203.82 297.95 207.84 299.36 211.32 301.13 214.56 
M 290.56 203.98 294.03 208.32 295.71 211.38 
M 397.51 104.93 400.37 103.79 405.74 100.82 410.22 98.05 415.45 95.36 421.42 92.58 424.1 90.85 435.2 84.39 438.03 82.09 440.36 79.66 442.9 78.27 444.94 78.08 447.92 77.16 451.52 75.58 454.27 73.52 457.45 73.07 460.65 69.99 462.58 68.59 464.75 66.38 467.61 64.48 471.27 61.25 474.39 59.8 476.59 59.19 478.05 56.86 478.14 55.62 480.11 53.1 483.28 51.89 485.66 49.97 487.6 48.82 490 47.09 485.94 64.42 482.75 68.8 481.67 71.5 480.1 73.72 478.15 75.55 476.59 77.82 474.72 79.89 473.18 82.29 472.38 85.42 471.2 88.18 470.2 91.12 469.44 94.35 467.28 96.22 465.52 98.49 462.51 99.52 459.99 101.03 458.84 103.82 457.93 106.8 455.96 108.71 453.51 110.19 451.68 112.4 451.26 116.01 449.32 118.1 447.6 120.32 446.56 122.53 445.81 125.02 444.59 130.88 443.7 133.84 441.98 135.98 439.81 137.76 438.19 140.14 436.26 145.98 434.26 147.75 434.13 150.66 434.58 153.63 434.21 155.8 434.49 158.08 436.46 161.55 437.64 164.23 438.38 166.84 438.44 169.56 438.14 171.91 439.05 176.93 441.72 183.5 443.5 187.24 443.89 189.79 445.27 195.49 445.92 197.34 448.05 201.94 448.09 204.72 448.67 208.03 449.46 210.9 450.6 219.04 448.27 217.56 445.42 216.52 443.85 214.75 441.1 213.96 438.42 212.25 435.79 210.21 432.69 208.62 429.53 205.95 426.63 204.26 425.06 202.7 421.15 199.82 417.23 195.89 415.28 194.31 412.58 192.38 409.4 190.59 406.76 188.85 397.51 181.91 
M 403.25 106.73 406.1 105.32 414.02 101.83 416.43 100.56 419.81 99.22 422.6 97.51 429.32 94.49 431.99 92.99 433.75 91.57 436.54 90.07 438.95 87.46 441.47 86.11 444.81 84.73 447.55 84.18 448.73 82.18 450.49 80.28 453.94 79.17 456.85 78.98 464.71 77.38 
M 397.51 112.63 400.79 112.2 403.71 111.09 406.53 109.73 412.48 107.87 417.3 104.95 420.13 104.52 425.38 102.28 431.16 100.59 434.07 99.37 435.95 97.82 438.3 95.49 440.87 93.54 443.28 91.98 446.21 90.57 449.49 89.54 451.83 88.27 454.61 87.52 
M 401.17 116.45 406.85 114.39 409.44 113.17 417.24 110.09 420.42 109.95 423.11 108.97 425.19 107.69 427.96 106.55 434.23 104.82 436.34 103.15 439.78 101.17 442.28 100.47 
M 407.03 118.16 413.26 115.86 415.44 115.58 421.83 114.17 425.07 113.81 427.66 112.93 429.5 111.91 432.26 110.86 434.58 110.21 437.11 108.49 
M 400.78 124.36 406.95 123.09 410.34 121.62 413.35 120.75 416.23 121.01 419.47 120.01 425.69 119.29 428.25 119.69 434.46 118.29 437.64 117.25 441.62 115.39 444.28 113.92 445.03 113.26 
M 404.04 128.12 407 127.25 410.68 126.62 413.58 125.57 420.02 124.38 423.49 123.91 428.34 124.6 434.77 124.41 437.44 122.23 
M 404.77 132.87 408.13 132.47 411.5 131.54 414.67 130.95 417.82 130.08 421.12 129.84 423.94 129.36 429.77 129.19 433.7 129.4 
M 401.43 137.04 405.18 137.61 409.28 137.54 412.47 137.15 418.63 136.71 421.67 137.51 425.05 137.88 426.8 136.55 428.52 136 
M 405.06 141.13 408.53 141.2 412.4 142.13 416.12 142.6 419.58 142.16 421.61 142.62 
M 402.34 144.21 409.46 145.93 415.71 146.8 417.52 147.64 
M 408.82 150.48 411.58 151.18 417.54 152.35 420.8 151.95 423.7 152.24 
M 397.51 151.12 401.67 152.72 404.82 153.65 407.74 154.2 411.03 155.64 414.31 156.67 417.61 157.43 422.35 156.99 425.76 156.97 428.7 158.12 
M 401.09 156.74 407.61 158.43 410.96 160.48 414.11 161.01 417.19 161.1 420.85 161.58 
M 404.62 161.92 411.78 164.1 417.35 165.41 424.48 166.03 427.58 166.79 431.22 168.99 434.35 171.24 
M 404.49 166.04 407.46 167.38 411.34 168.79 414.34 170.3 420.73 170.62 422.85 171.21 426.76 172.68 429.73 175.36 433.01 177.15 436.1 178.24 
M 397.51 166.51 401.35 168.76 404.11 170.01 409.53 173.7 412.7 175.14 415.83 174.76 419.6 174.91 423.2 175.94 425.74 177.57 428.27 180.02 
M 406.34 175.72 409.14 177.61 412.38 179.04 421.59 181.89 424.11 183.97 426.78 184.31 429.43 185.69 432.31 187.72 
M 406.47 180.02 409.4 181.68 412.22 182.68 414.48 184.16 416.87 186.36 420.27 187.45 
M 397.51 178.06 400.8 180.55 403.99 182.39 406.44 184.35 412.39 187.6 414.59 189.15 416.82 191.15 419.64 192.8 422.08 194.95 425.05 196.71 427.96 197.98 429.39 199.97 431.75 201.9 
M 47.55 140.06 48.09 138.25 49.45 135.55 51.18 132.55 53.23 129.53 55.93 126.9 64.03 120.43 72.98 112.97 78.1 109.5 83.69 106.36 100.36 98.72 109.79 95.09 115.27 93.23 119.17 97.83 121.1 102.75 123.28 107.64 125.7 112.5 127.65 117.41 128.93 122.41 130.84 132.47 130.75 137.62 131.03 142.73 131.04 147.88 130.07 158.28 130.51 163.37 130.66 173.64 130.22 178.83 129.07 184.11 126.64 189.44 114.97 188.59 106.39 187.34 98.65 185.53 91.49 183.37 84.99 180.93 79 178.44 73.34 175.34 68.23 172.07 63.81 168.85 60.01 165.48 
M 108.3 123.61 108.83 127.91 107.62 136.17 106.67 139.92 104.21 146.77 104.51 152.68 105.89 158.85 106.39 162.61 106.11 166.97 92.66 166.77 87.15 166.3 81.7 165.47 76.46 164.19 71.44 162.53 66.59 159.95 
M 58.41 164.66 56.55 161.86 52.23 155.97 44.67 143.82 44.7 141.34 46.51 139.83 48.84 140.33 50.26 142.41 54.53 153.45 57.75 160.07 60.06 165.45 
M 59.51 166.18 45.17 163.4 31.54 160.06 30 158.25 30.21 155.93 32.13 154.57 34.4 155.15 38.76 157.09 59.78 165.22 
M 74.39 137.47 71.71 133.72 70.39 129.3 70.58 124.69 72.26 120.39 75.24 116.87 79.21 114.51 83.72 113.56 88.3 114.13 92.45 116.16 95.71 119.42 97.74 123.56 98.31 128.14 97.36 132.66 95 136.62 91.48 139.6 87.18 141.28 82.57 141.47 78.15 140.16 74.39 137.47 
M 93.43 121.05 95.05 124.36 95.51 128.03 94.75 131.64 92.86 134.81 90.04 137.2 86.6 138.54 82.92 138.69 79.38 137.64 76.37 135.49 
M 79.62 130.81 78.55 129.31 78.02 127.54 78.1 125.7 78.77 123.98 79.96 122.57 81.55 121.63 83.36 121.25 85.19 121.48 86.85 122.29 88.15 123.59 88.96 125.25 89.19 127.08 88.81 128.89 87.87 130.47 86.46 131.66 84.74 132.34 82.89 132.41 81.13 131.89 79.62 130.81 
M 80.21 129.45 83.16 132.4 
M 79.41 126.08 85.41 132.08 
M 83.01 127.1 87.06 131.16 
M 83.19 124.71 88.27 129.79 
M 84.09 123.03 89.01 127.96 
M 85.84 122.22 88.97 125.35 
M 48 138.56 53.39 143.95 
M 49.91 134.75 53.58 138.42 
M 52.09 131.21 56.82 135.95 
M 54.7 128.1 59.67 133.08 
M 57.74 125.43 62.96 130.65 
M 60.92 122.89 65.39 127.36 
M 64.11 120.36 69.4 125.65 
M 67.18 117.71 70.33 120.87 
M 70.31 115.12 73.19 118 
M 73.51 112.61 76.83 115.93 
M 76.92 110.3 79.97 113.35 
M 80.49 108.16 84.5 112.17 
M 84.18 106.13 89.77 111.72 
M 88.09 104.32 91.9 108.13 
M 91.99 102.5 97.71 108.22 
M 95.9 100.69 101.11 105.9 
M 99.86 98.94 102.98 102.06 
M 103.94 97.3 107.37 100.73 
M 108.09 95.73 112.15 99.79 
M 112.33 94.25 117.85 99.77 
M 110.86 99.79 110.36 100.9 110.19 101.89 109.72 102.06 108.71 101.96 
M 124.9 164.91 125.82 165.47 127.78 165.84 128 166.13 127.86 166.84 
M 93.74 149.39 96.8 148.4 99.24 145.92 100.88 145.05 
M 109.5 99.3 108.88 99.96 108.32 99.92 107.12 98.6 106.31 96.9 
M 93.06 162.92 93.18 166.19 93.03 166.76 92.49 167.45 92.06 167.74 91.84 167.63 
M 94.34 137.26 96.25 137.41 
M 113.26 96.79 113.29 101.33 113 102.2 112.35 102.64 
M 53.42 150.55 54.77 149.57 56.12 149.58 
M 109.49 171.68 110.03 170.23 110.34 168.81 110.41 167.53 110.27 166.84 108.78 164.18 107.88 161.75 106.85 160.4 
M 127.34 170.43 126.41 169.45 126.17 168.86 126.17 168.29 126.58 167.52 127.79 166.87 
M 109.22 120.53 107.55 120.68 106.28 121 104.71 122.08 103.3 122.5 100.96 122.28 100.02 121.87 
M 58.45 146.63 60.05 148.08 60.6 148.33 61.38 148.34 63.21 147.84 64.44 147.24 65.33 146.43 65.58 145.84 65.64 144.07 
M 86.55 108.82 86.84 107.92 86.87 107.04 86.39 105.1 
M 75.36 157.12 75.02 158.19 74.87 159.63 74.18 160.94 73.84 161.3 
M 99.38 139.8 99.22 140.23 99.02 140.32 98.96 140.19 
M 83.15 142.81 82.18 142.06 81.77 141.23 
M 71.73 161.89 71.73 160.2 71.51 158.65 70.18 156.15 
M 97.09 121.46 98.39 122.83 98.84 122.82 
M 56.15 156.03 56.8 154.9 59.55 152.3 61.02 150.55 61.8 149.96 65.16 148.68 65.68 148.22 66.45 146.75 66.6 145.84 
M 83.12 166.5 84.11 165.6 84.53 164.96 85.31 160.85 85.32 159.01 84.49 157.76 84.25 157.1 
M 121.11 135.79 121.13 136.8 122.03 138.97 122.49 139.57 123.12 139.93 
M 51.05 133.01 50.88 133.05 
M 83.7 180.39 83.69 179.56 
M 98.27 133.22 97.86 134.32 96.28 136.32 96.14 136.9 96.5 137.38 
M 106.04 131.96 104.85 132.59 103.61 133.82 102.88 135.6 102.11 138.31 101.54 139.5 
M 113.53 145.36 114.33 142.41 114.96 140.94 115.5 140.4 117.68 139.9 
M 114.32 127.04 113 127.87 111.02 128.36 108.31 129.41 106.11 129.93 103.31 131.28 102.33 131.96 
M 109.1 153.24 106.67 153.7 102.49 156.08 99.93 158.04 
M 127.51 139.83 127.34 140.28 127.37 141.13 128.27 142.65 
M 65.12 153.83 65.71 153.21 67.95 152.41 69.79 152.08 70.48 152.23 70.82 152.48 
M 51.87 143.43 51.09 143.27 50.82 143.02 49.9 141.01 48.69 139.27 47.97 138.63 
M 102.77 146.29 103.13 147.25 103.05 147.8 102.74 148.37 101.53 149.27 100.91 149.37 100.66 149.05 
M 78.42 157.03 77.37 159.36 76.17 161.02 75.54 161.59 
M 97.42 105.15 97.99 103.31 98.11 102.4 97.96 101.6 97.33 100.06 
M 115.14 139.52 116.25 140.05 117.48 139.94 117.93 139.68 118.99 138.22 
M 88.79 163.58 89.23 163.26 89.76 163.13 90.35 163.16 90.86 163.42 92.36 165.27 92.56 165.75 92.67 166.6 92.25 167.59 
M 62.67 145.44 62.17 144.85 61.62 145.03 
M 98.35 182.34 96.7 183.47 94.87 184.39 
M 121.66 178 122.37 179.13 123.63 180.25 124.47 181.25 125.6 183.25 126.22 184.95 
M 97.93 149.5 98.68 148.72 99.57 147.3 100.45 146.63 101.34 146.37 101.95 146.44 102.37 146.85 102.52 147.57 
M 59.05 151.77 60.64 150.21 61.5 149.72 63.55 149.09 65 148.43 65.53 148.03 65.97 147.42 66.45 145.76 66.13 142.32 65.68 141.28 
M 73.39 117.34 73.83 116.66 74.31 116.28 74.91 116.37 75.31 116.71 
M 72.73 140.92 73.8 140.73 74.91 141 76.33 141.71 78 142.81 80.13 143.56 81.02 143.67 
M 126.99 183.29 127.85 184.98 128.42 185.53 
M 121.1 149.45 122.12 148.86 126.22 147.41 127.43 147.3 129.19 147.62 
M 103.01 166.39 104.08 164.46 104.45 162.96 104.5 161.28 104.12 158.96 
M 99.55 166.81 99.21 167.44 98.39 167.9 92.51 168.91 
M 101.94 176.92 101.86 175.68 102.42 173.99 103.15 173.27 105.06 172.15 106.73 170.61 107.58 169.03 107.98 167.75 108.16 166.18 
M 118.93 168.3 119.81 166.75 119.9 166.07 119.57 165.68 118.28 165.19 
M 119.24 120.32 118.43 121.2 116.28 122.71 111.94 126.41 110.78 126.85 106.38 126.87 
M 78.83 148.66 79.81 150.15 79.83 150.94 78.68 153.51 77.19 155.52 76.93 156.26 76.81 157.82 76.58 158.41 
M 59.1 152.05 60.67 150.38 61.5 149.83 63.54 149.18 65 148.52 65.54 148.11 65.98 147.51 66.49 145.84 66.18 142.42 65.75 141.36 
M 82.24 168.58 83.93 167.42 84.64 166.43 85.25 165.17 85.88 160 85.73 159.04 84.89 157.98 
M 113.86 172.99 112.65 173.4 112.28 172.74 
M 95.77 135.35 95.25 136.32 95.15 136.92 95.51 137.28 96.34 137.42 
M 98.69 112.12 100.58 112.45 101.07 113 
M 119.64 127.86 119.06 129.35 119.08 129.92 119.44 130.94 119.25 132.48 
M 72.05 134.19 70.41 133.44 68.62 132.94 67.79 132.91 65.82 133.47 64.11 133.4 62.53 132.9 60.65 131.77 
M 87.24 154.68 87.09 155.02 86.74 155.25 84.32 155.05 83.64 155.4 
M 75.99 167.07 76.06 165.19 75.7 164.16 75.73 163.78 
M 90.72 140.3 90.48 139.99 
M 78.89 140.38 79.19 140.72 79.7 140.95 80.38 140.82 
M 82.78 154.04 81.27 155.2 80.49 156.3 80.18 157.22 80.52 157.77 80.9 157.92 81.94 158.05 83.33 157.98 
M 122.68 162.37 126.07 164.65 128.07 165.34 128.26 165.82 127.94 166.73 
M 92.81 148.41 92.46 147.29 91.34 145.67 89.74 144.3 88 143.5 82.7 141.66 
M 118.3 121.23 116.13 122.79 111.74 126.47 110.59 126.83 106.21 126.76 104.15 125.74 
M 113.53 146.98 113.6 145.25 114.73 141.45 115.05 140.86 115.57 140.38 117.16 140.05 
M 65.48 144.41 65.36 142.28 64.68 140.71 63.8 140.26 63.18 140.3 62.77 140.58 62.07 141.5 
M 107.43 187.49 106.75 187.14 
M 75.13 111.51 76.05 112.18 76.79 113.19 
M 125.93 113.08 123.95 116.09 
M 73.64 139.76 74.23 139.83 74.88 140.19 78.69 142.86 80.92 143.54 
M 118.68 144.57 119.04 143.21 119.24 141.28 120.34 139.16 
M 83.31 151.31 82.82 152.19 79.61 154.27 77.94 156.1 
M 60.24 140.79 61.28 142.46 61.03 143.69 61.11 144.3 
M 107.03 146.89 105.37 150.29 104 151.94 102.26 153.45 99.94 157.55 
M 71.02 162.64 70.28 161.06 70.05 160 69.58 158.93 68.04 156.27 68.04 155.98 68.27 155.74 
M 64.17 168.14 61.61 165.74 61.09 165.04 60.85 164.31 60.66 160.71 60.71 160.19 61.18 158.98 
M 120.06 172.65 118.25 171.87 117.27 171.94 115.21 173.11 112.9 174 
M 105.29 186.7 105.12 187.04 
M 117.38 109.23 114.41 107.83 113.09 107.01 110.04 104.27 108.64 102.11 
M 89.66 105.84 90.07 103.4 
M 69.49 146.5 70.06 139.88 69.86 138.94 69.53 138.52 
M 76.73 113.24 77.01 114.33 76.67 116.02 
M 118.54 123.15 116.43 125.04 112.75 127.69 108.25 128.86 105.45 129.33 
M 125.02 184.41 125.32 185.69 125.6 186.06 126.49 186.61 127.82 186.85 
M 104.22 110.87 102.57 109.61 101.76 108.19 100.9 105.24 100.91 103.14 100.53 100.46 
M 56.7 147.67 57.41 148.41 57.92 148.48 
M 69.78 144.54 70.05 142.19 70.39 140.85 71.52 138.53 
M 72.09 155.98 72.19 156.7 71.95 156.88 71.58 156.83 
M 94.1 183.29 92.98 183.82 
M 90.95 183.17 90.69 179.06 
M 126.11 115.91 123.88 119.26 123.59 120.71 123.7 121.5 123.92 122.27 124.35 123.03 127.5 126.16 
M 74.36 113.16 75.45 114.65 75.75 115.6 
M 125.38 178.55 126.19 179.04 126.51 179.49 128.41 183.53 
M 115.09 129.31 111.97 129.34 110.74 129.69 109.92 130.33 109.46 130.97 109.14 131.81 109.25 132.25 
M 89.61 162.68 90.58 162.74 91.06 163.07 92.44 165.14 92.72 166.61 92.48 167.29 92.13 167.67 
M 103.91 182.83 99.45 185.16 98.9 185.59 
M 95.7 155.34 95.78 157.3 95.48 158.13 93.84 160.39 92.93 162.04 92.84 162.76 93.09 165.18 93.06 166.55 
M 126.25 184.24 127.03 186.07 127.89 186.69 
M 100.34 137.8 100.31 138.79 100.15 139.18 99.36 140.22 99.06 140.39 98.91 140.29 
M 116.44 156.73 115.73 156.52 114.08 155.55 112.5 153.83 111.67 153.16 110.72 152.67 109.63 152.47 108.42 152.61 106.36 153.27 102.95 155.24 
M 97.87 124.65 97.94 124.68 
M 85.26 146.92 82.06 146.79 81.52 146.47 81.11 145.87 
M 67.69 131.52 65.83 132.58 65.13 132.82 63.78 132.9 62.3 132.46 61.45 132.03 58.96 130.02 
M 100.27 107.27 100.09 105.27 100.58 103.25 100.42 100.55 100.19 100.02 99.37 99.16 
M 47.87 140.13 47.63 139.76 
M 97.42 118.48 98.12 119.81 98.19 121.64 98.58 122.77 
M 50.29 137.13 49.59 137.04 48.61 137.21 
M 78.41 160.43 81.18 160.29 82.32 160.03 83.72 159.21 83.99 158.93 84.15 158.42 
M 59.97 165.51 60.36 166.21 
M 55.28 160.09 54.72 161.3 55.33 160.85 55.78 160.78 
M 51.45 154.66 50.35 155.56 49.55 157.21 50.63 156.06 52.01 155.6 
M 47.92 149.13 45.64 150.78 44.37 153.13 45.92 151.28 48.62 150.19 
M 44.67 143.47 40.94 145.99 39.19 149.05 41.21 146.49 45.2 144.76 
M 59.75 165.34 60.82 165.64 
M 52.68 162.56 53.39 161.59 54.25 161.06 53.94 161.75 54.03 163.04 
M 46.12 159.94 47.15 157.89 48.59 156.74 47.7 158.05 47.45 160.49 
M 39.55 157.37 40.92 154.18 42.94 152.42 41.46 154.34 40.9 157.84 
M 32.99 154.79 34.68 150.48 37.28 148.11 35.23 150.63 34.35 155.14 
M 39.92 162.1 45.89 165.64 50.24 167.97 54.65 170.01 59.15 171.68 63.78 173.05 73.34 175.34 
M 45.5 163.85 45.1 163.38 
M 120.29 100.7 120.74 101.15 
M 119.01 91.79 125.74 98.52 
M 124.6 89.76 134.36 99.52 
M 130.59 88.13 136.86 94.4 
M 136.82 86.73 147.77 97.68 
M 143.49 85.78 151.87 94.17 
M 150.27 84.94 156.62 91.29 
M 157.14 84.18 166.64 93.68 
M 163.81 83.23 171.12 90.54 
M 170.31 82.11 181.36 93.16 
M 176.81 80.98 183.06 87.24 
M 183.32 79.87 190.67 87.22 
M 190.08 79.01 198.38 87.31 
M 196.99 78.29 206.08 87.38 
M 204.15 77.83 212.91 86.59 
M 211.5 77.56 220 86.05 
M 218.94 77.37 230.27 88.7 
M 226.48 77.28 232.45 83.26 
M 234.18 77.37 240.79 83.97 
M 241.93 77.48 250.86 86.42 
M 249.63 77.57 258.89 86.82 
M 257.07 77.38 263.24 83.56 
M 264.55 77.24 275.65 88.34 
M 272.2 77.26 283.58 88.65 
M 280.37 77.81 289.56 87 
M 288.78 78.59 299.84 89.66 
M 297.35 79.54 308.35 90.54 
M 306.04 80.6 313.6 88.17 
M 314.83 81.77 323.33 90.28 
M 324.06 83.38 329.86 89.18 
M 333.81 85.51 340.78 92.48 
M 343.87 87.95 354.05 98.12 
M 353.9 90.35 363.53 99.98 
M 363.68 92.51 373.83 102.66 
M 373.79 94.99 380.69 101.89 
M 385.34 98.92 392.38 105.95 
M 225.72 126.29 225.15 126.01 224.78 125.13 224.98 124.53 225.55 124.81 225.91 125.69 225.72 126.29 
M 225.16 124.71 225.5 125.24 225.36 126.18 224.89 126.6 224.55 126.06 224.69 125.12 225.16 124.71 
M 240.78 125.17 240.22 124.88 239.86 124 240.07 123.4 240.63 123.69 240.98 124.58 240.78 125.17 
M 241.14 124.4 240.52 124.5 239.71 123.99 239.52 123.39 240.15 123.29 240.96 123.8 241.14 124.4 
M 251.42 124.49 251.99 124.23 252.91 124.5 253.25 125.03 252.67 125.29 251.76 125.02 251.42 124.49 
M 252.92 124.33 252.55 124.84 251.62 125.06 251.06 124.76 251.43 124.25 252.36 124.04 252.92 124.33 
M 245.42 117.45 245.81 116.96 246.75 116.8 247.29 117.12 246.9 117.61 245.96 117.78 245.42 117.45 
M 246.62 117.96 246.22 117.47 246.25 116.52 246.67 116.05 247.07 116.54 247.05 117.49 246.62 117.96 
M 218.65 109 219.28 109.02 219.99 109.67 220.06 110.29 219.43 110.27 218.73 109.63 218.65 109 
M 218.86 109.12 219.41 109.43 219.73 110.32 219.51 110.91 218.96 110.6 218.63 109.7 218.86 109.12 
M 218.3 120.36 218.85 120.67 219.17 121.57 218.94 122.16 218.39 121.85 218.07 120.95 218.3 120.36 
M 218.49 121.98 218.41 121.35 218.93 120.55 219.54 120.38 219.62 121.01 219.1 121.8 218.49 121.98 
M 224.12 109.7 224.31 109.11 225.13 108.61 225.75 108.72 225.55 109.32 224.74 109.81 224.12 109.7 
M 224.4 108.71 224.97 108.99 225.35 109.86 225.16 110.46 224.59 110.19 224.22 109.32 224.4 108.71 
M 234.43 113.54 234.36 114.16 233.66 114.81 233.03 114.84 233.1 114.21 233.8 113.56 234.43 113.54 
M 233.37 113.56 233.84 113.98 233.95 114.93 233.59 115.45 233.13 115.02 233.02 114.08 233.37 113.56 
M 207.97 118.35 208.36 118.84 208.31 119.79 207.87 120.25 207.49 119.75 207.53 118.8 207.97 118.35 
M 208.27 118.66 208.15 119.28 207.4 119.87 206.77 119.84 206.89 119.22 207.64 118.63 208.27 118.66 
M 220.94 100.9 221.51 101.17 221.89 102.05 221.71 102.65 221.14 102.38 220.75 101.51 220.94 100.9 
M 222.04 101.85 221.43 101.98 220.59 101.52 220.37 100.93 220.99 100.8 221.83 101.26 222.04 101.85 
M 211.31 108.31 211.57 107.73 212.43 107.33 213.04 107.5 212.78 108.08 211.92 108.48 211.31 108.31 
M 211.48 108.13 212 107.76 212.95 107.85 213.38 108.31 212.87 108.68 211.92 108.58 211.48 108.13 
M 212.67 99.73 213.08 99.25 214.02 99.1 214.56 99.44 214.15 99.92 213.21 100.06 212.67 99.73 
M 213.99 98.96 213.84 99.57 213.06 100.13 212.44 100.06 212.59 99.45 213.36 98.9 213.99 98.96 
M 233.44 106 232.86 106.22 231.96 105.9 231.65 105.35 232.24 105.12 233.14 105.45 233.44 106 
M 232.85 105.01 232.77 105.64 232.07 106.28 231.44 106.29 231.51 105.67 232.22 105.03 232.85 105.01 
M 205.9 110.4 205.89 111.03 205.26 111.74 204.64 111.83 204.64 111.2 205.27 110.48 205.9 110.4 
M 205.87 111.52 205.26 111.34 204.75 110.54 204.84 109.92 205.45 110.1 205.96 110.9 205.87 111.52 
M 206.72 99.33 207.12 99.81 207.09 100.77 206.67 101.23 206.27 100.74 206.3 99.79 206.72 99.33 
M 206.44 99.6 206.83 100.09 206.79 101.05 206.35 101.5 205.96 101.01 206.01 100.06 206.44 99.6 
M 256.11 114.32 256.74 114.35 257.43 115.02 257.48 115.64 256.85 115.61 256.17 114.94 256.11 114.32 
M 256.08 115.08 256.65 114.81 257.56 115.06 257.91 115.59 257.34 115.86 256.42 115.6 256.08 115.08 
M 259.15 122.11 259.21 122.74 258.66 123.51 258.05 123.67 257.99 123.04 258.54 122.26 259.15 122.11 
M 258.23 123.51 258.37 122.9 259.14 122.34 259.77 122.39 259.63 123 258.86 123.56 258.23 123.51 
M 198.67 115.96 198.1 116.22 197.18 115.94 196.85 115.41 197.42 115.15 198.34 115.43 198.67 115.96 
M 198.28 116.19 197.72 115.91 197.35 115.03 197.54 114.43 198.11 114.71 198.48 115.59 198.28 116.19 
M 240.84 111.95 241.44 112.14 241.95 112.94 241.85 113.57 241.25 113.38 240.74 112.57 240.84 111.95 
M 240.95 113.37 241.11 112.76 241.91 112.23 242.53 112.31 242.37 112.92 241.57 113.45 240.95 113.37 
M 237.74 100.91 237.11 100.98 236.32 100.45 236.16 99.84 236.79 99.77 237.58 100.3 237.74 100.91 
M 237.15 99.68 237.17 100.31 236.57 101.05 235.95 101.16 235.93 100.53 236.53 99.79 237.15 99.68 
M 245.7 103.59 245.29 104.06 244.35 104.2 243.82 103.86 244.23 103.38 245.17 103.25 245.7 103.59 
M 244.34 103.13 244.84 103.51 245.04 104.44 244.73 104.99 244.23 104.61 244.04 103.68 244.34 103.13 
M 251.51 111.58 251.75 112.16 251.45 113.07 250.91 113.39 250.67 112.8 250.97 111.9 251.51 111.58 
M 251.73 112.99 251.17 112.71 250.8 111.83 250.99 111.23 251.56 111.51 251.93 112.39 251.73 112.99 
M 231.05 96.13 230.43 96.28 229.58 95.86 229.34 95.27 229.96 95.12 230.81 95.55 231.05 96.13 
M 230.91 95.82 230.29 95.91 229.48 95.4 229.31 94.79 229.93 94.7 230.73 95.22 230.91 95.82 
M 217.28 90.9 216.79 90.51 216.61 89.57 216.93 89.03 217.43 89.42 217.6 90.36 217.28 90.9 
M 216.65 90.53 216.88 89.94 217.72 89.49 218.33 89.63 218.11 90.22 217.27 90.67 216.65 90.53 
M 206.49 155.7 205.88 155.54 205.34 154.76 205.4 154.14 206.01 154.29 206.56 155.07 206.49 155.7 
M 206.24 155.58 205.82 155.11 205.81 154.16 206.21 153.67 206.63 154.14 206.65 155.09 206.24 155.58 
M 198.72 154.2 199.24 154.55 199.49 155.47 199.21 156.04 198.69 155.69 198.44 154.77 198.72 154.2 
M 198.34 155.49 198.76 155.02 199.7 154.89 200.23 155.24 199.81 155.71 198.87 155.84 198.34 155.49 
M 259.43 105.37 259.47 104.74 260.13 104.06 260.76 104.01 260.73 104.64 260.06 105.32 259.43 105.37 
M 259.58 104.18 260.14 104.46 260.51 105.35 260.31 105.94 259.74 105.66 259.38 104.78 259.58 104.18 
M 263.56 111.75 263.86 112.3 263.65 113.23 263.14 113.61 262.84 113.05 263.05 112.12 263.56 111.75 
M 262.66 112.46 263.29 112.46 264.01 113.08 264.1 113.7 263.47 113.7 262.75 113.08 262.66 112.46 
M 252.12 104.56 252.06 105.19 251.37 105.85 250.74 105.88 250.8 105.25 251.49 104.59 252.12 104.56 
M 251.73 104.56 251.66 105.19 250.95 105.82 250.32 105.84 250.39 105.21 251.1 104.57 251.73 104.56 
M 266.34 118.74 266.69 119.26 266.58 120.21 266.11 120.63 265.76 120.11 265.87 119.16 266.34 118.74 
M 266.82 119.26 266.44 119.77 265.51 119.97 264.96 119.67 265.33 119.17 266.26 118.96 266.82 119.26 
M 242.77 140.88 242.94 140.27 243.74 139.75 244.36 139.83 244.19 140.44 243.39 140.96 242.77 140.88 
M 242.87 140.13 243.5 140.14 244.22 140.76 244.31 141.39 243.68 141.38 242.96 140.76 242.87 140.13 
M 189.58 126.9 190.08 126.52 191.03 126.57 191.48 127.01 191.12 127.29 
M 189.96 127.27 189.58 126.9 
M 190.55 126.23 190.73 126.84 190.52 127.28 
M 189.62 127.27 189.98 126.49 190.55 126.23 
M 196.1 125.14 196 124.52 196.51 123.71 197.11 123.52 197.21 124.15 196.7 124.95 196.1 125.14 
M 196.96 124.97 196.5 124.53 196.4 123.59 196.77 123.07 197.22 123.5 197.32 124.45 196.96 124.97 
M 221.35 95.52 221.88 95.18 222.83 95.32 223.24 95.8 222.71 96.13 221.76 95.99 221.35 95.52 
M 222.16 96.37 222.08 95.74 222.62 94.95 223.23 94.79 223.3 95.42 222.77 96.21 222.16 96.37 
M 230.27 89.6 229.94 89.06 230.1 88.12 230.59 87.72 230.92 88.26 230.76 89.2 230.27 89.6 
M 229.91 89.17 230.21 88.61 231.1 88.27 231.69 88.48 231.39 89.04 230.5 89.38 229.91 89.17 
M 240.88 89.97 241.44 90.26 241.8 91.14 241.59 91.74 241.03 91.45 240.68 90.56 240.88 89.97 
M 240.62 90.47 241.23 90.62 241.78 91.4 241.72 92.03 241.11 91.88 240.56 91.1 240.62 90.47 
M 170.4 116.18 170.31 115.55 170.83 114.75 171.43 114.57 171.52 115.2 171 116 170.4 116.18 
M 171.27 114.74 171.14 115.36 170.39 115.94 169.76 115.9 169.88 115.28 170.64 114.71 171.27 114.74 
M 167.93 125.36 168.24 125.91 168.05 126.84 167.83 127.01 
M 167.42 127.01 167.24 126.68 167.43 125.74 167.93 125.36 
M 168.07 126.94 167.63 126.49 167.56 125.54 167.94 125.04 168.39 125.49 168.45 126.44 168.07 126.94 
M 188.19 117.58 187.94 118.16 187.08 118.57 186.47 118.4 186.72 117.83 187.58 117.41 188.19 117.58 
M 186.61 117.89 187.24 117.78 188.05 118.28 188.24 118.88 187.62 118.99 186.8 118.49 186.61 117.89 
M 205.47 162.5 204.91 162.78 203.98 162.55 203.62 162.03 204.19 161.75 205.11 161.98 205.47 162.5 
M 204.37 161.56 204.7 162.1 204.56 163.04 204.08 163.45 203.74 162.91 203.89 161.97 204.37 161.56 
M 175.25 109.45 174.85 109.94 173.91 110.1 173.37 109.77 173.77 109.29 174.71 109.13 175.25 109.45 
M 174.7 110.23 174.22 109.82 174.07 108.88 174.41 108.34 174.89 108.75 175.03 109.7 174.7 110.23 
M 183.74 110.05 183.11 110.07 182.37 109.48 182.26 108.86 182.89 108.83 183.63 109.43 183.74 110.05 
M 182.71 108.79 183.13 109.26 183.14 110.22 182.73 110.7 182.31 110.23 182.3 109.27 182.71 108.79 
M 267.52 133.38 267.97 132.94 268.92 132.88 269.42 133.27 268.97 133.71 268.02 133.76 267.52 133.38 
M 267.81 133.63 268.28 133.2 269.23 133.17 269.72 133.57 269.26 134 268.3 134.03 267.81 133.63 
M 263.83 141.17 263.4 140.71 263.36 139.76 263.75 139.26 264.18 139.72 264.22 140.67 263.83 141.17 
M 264.46 140.48 263.83 140.44 263.16 139.76 263.12 139.14 263.75 139.18 264.42 139.86 264.46 140.48 
M 245.17 97 245.26 96.38 245.98 95.76 246.61 95.76 246.52 96.38 245.8 97.01 245.17 97 
M 246.46 96.83 245.87 96.61 245.42 95.77 245.55 95.16 246.14 95.38 246.6 96.22 246.46 96.83 
M 252.87 95.05 252.25 94.93 251.66 94.19 251.68 93.56 252.3 93.67 252.89 94.42 252.87 95.05 
M 252.88 93.9 252.49 94.39 251.55 94.57 251 94.25 251.4 93.76 252.34 93.58 252.88 93.9 
M 158.21 124.02 158.79 123.77 159.7 124.05 160.03 124.59 159.45 124.84 158.54 124.55 158.21 124.02 
M 159.84 124.2 159.27 124.47 158.35 124.22 158 123.7 158.57 123.43 159.49 123.68 159.84 124.2 
M 164.69 118.95 164.62 119.58 163.93 120.24 163.3 120.26 163.36 119.63 164.06 118.98 164.69 118.95 
M 164.45 120.18 163.92 119.83 163.67 118.91 163.94 118.34 164.47 118.69 164.72 119.61 164.45 120.18 
M 252.21 162.26 251.59 162.39 250.76 161.94 250.54 161.35 251.15 161.21 251.99 161.67 252.21 162.26 
M 250.65 161.87 251.23 161.62 252.14 161.92 252.46 162.46 251.88 162.7 250.97 162.41 250.65 161.87 
M 237.73 155.75 237.12 155.59 236.59 154.8 236.66 154.18 237.27 154.34 237.8 155.13 237.73 155.75 
M 236.97 154.28 237.34 154.79 237.26 155.74 236.8 156.17 236.43 155.66 236.52 154.71 236.97 154.28 
M 242.46 157.98 242.86 158.46 242.83 159.42 242.4 159.88 242 159.39 242.03 158.44 242.46 157.98 
M 242.37 159.65 242.23 159.04 242.68 158.2 243.27 157.97 243.41 158.59 242.96 159.43 242.37 159.65 
M 162.45 111.23 162.99 110.91 163.93 111.1 164.32 111.59 163.77 111.91 162.83 111.72 162.45 111.23 
M 163.61 112.1 163.24 111.59 163.31 110.64 163.76 110.2 164.14 110.7 164.06 111.65 163.61 112.1 
M 227.28 170.96 227.89 171.12 228.42 171.92 228.34 172.54 227.74 172.37 227.21 171.58 227.28 170.96 
M 227.1 171.62 227.73 171.54 228.52 172.06 228.69 172.67 228.06 172.75 227.27 172.23 227.1 171.62 
M 257.92 139.88 257.87 140.51 257.2 141.18 256.57 141.23 256.62 140.6 257.29 139.93 257.92 139.88 
M 256.72 141.06 257.02 140.5 257.91 140.17 258.5 140.38 258.2 140.94 257.31 141.28 256.72 141.06 
M 274.13 141.14 274.73 141.34 275.21 142.17 275.09 142.79 274.49 142.58 274.01 141.76 274.13 141.14 
M 274.33 141.29 274.74 141.77 274.73 142.73 274.31 143.2 273.9 142.72 273.91 141.77 274.33 141.29 
M 234.26 174.95 234.73 174.53 235.68 174.53 236.16 174.94 235.69 175.35 234.73 175.36 234.26 174.95 
M 234.49 175.03 235.06 174.77 235.98 175.03 236.32 175.56 235.74 175.83 234.83 175.56 234.49 175.03 
M 213.6 78.69 214.17 78.96 214.54 79.84 214.35 80.44 213.78 80.16 213.41 79.29 213.6 78.69 
M 213.59 78.95 214.07 79.36 214.22 80.3 213.89 80.83 213.41 80.43 213.25 79.49 213.59 78.95 
M 223.34 86.8 222.71 86.91 221.9 86.41 221.71 85.81 222.33 85.71 223.14 86.2 223.34 86.8 
M 222.07 86.88 222.29 86.29 223.13 85.83 223.75 85.97 223.52 86.56 222.69 87.01 222.07 86.88 
M 223.54 78.99 223.38 79.6 222.59 80.14 221.97 80.07 222.13 79.46 222.91 78.92 223.54 78.99 
M 223.25 80.06 222.7 79.75 222.37 78.86 222.59 78.27 223.14 78.57 223.47 79.47 223.25 80.06 
M 211.15 85.22 211.76 85.35 212.34 86.11 212.3 86.74 211.68 86.61 211.11 85.85 211.15 85.22 
M 211.4 86.63 211.5 86.01 212.22 85.39 212.85 85.39 212.76 86.02 212.03 86.64 211.4 86.63 
M 206.1 85.09 205.59 84.72 205.36 83.8 205.64 83.24 206.16 83.6 206.39 84.53 206.1 85.09 
M 205.19 84.41 205.69 84.02 206.64 84.08 207.09 84.53 206.59 84.91 205.64 84.85 205.19 84.41 
M 169.27 158.5 169.4 159.12 168.93 159.95 168.34 160.16 168.21 159.55 168.68 158.71 169.27 158.5 
M 168.2 158.93 168.81 159.1 169.33 159.9 169.24 160.53 168.63 160.35 168.12 159.55 168.2 158.93 
M 223.8 156.07 223.24 156.36 222.31 156.14 221.95 155.63 222.51 155.34 223.43 155.56 223.8 156.07 
M 223.07 156.55 222.72 156.02 222.85 155.08 223.33 154.66 223.67 155.19 223.54 156.13 223.07 156.55 
M 265 163.14 264.41 163.37 263.52 163.04 263.21 162.48 263.8 162.26 264.7 162.59 265 163.14 
M 264.57 163.37 264.04 163.03 263.77 162.12 264.02 161.54 264.56 161.88 264.83 162.79 264.57 163.37 
M 268.84 156.4 269.21 156.9 269.14 157.85 268.7 158.3 268.32 157.79 268.39 156.84 268.84 156.4 
M 269.04 158.02 268.64 157.54 268.65 156.58 269.07 156.11 269.48 156.59 269.46 157.55 269.04 158.02 
M 261.58 98.94 261.83 98.36 262.69 97.95 263.3 98.11 263.05 98.69 262.19 99.11 261.58 98.94 
M 262.92 99.07 262.38 98.75 262.09 97.84 262.34 97.26 262.87 97.59 263.17 98.5 262.92 99.07 
M 179.72 163.78 179.2 163.42 178.98 162.49 179.26 161.93 179.78 162.29 180 163.22 179.72 163.78 
M 178.82 162.58 179.45 162.63 180.12 163.31 180.16 163.94 179.53 163.89 178.86 163.21 178.82 162.58 
M 194.77 110.67 194.16 110.49 193.64 109.69 193.73 109.07 194.33 109.24 194.85 110.04 194.77 110.67 
M 193.52 109.83 194.13 109.67 194.99 110.09 195.24 110.67 194.63 110.83 193.77 110.41 193.52 109.83 
M 167.38 175.41 167.7 174.87 168.61 174.58 169.19 174.83 168.86 175.37 167.96 175.66 167.38 175.41 
M 168.17 174.4 168.45 174.97 168.22 175.89 167.7 176.25 167.42 175.68 167.65 174.76 168.17 174.4 
M 199.08 104.38 198.5 104.13 198.07 103.28 198.23 102.67 198.81 102.91 199.24 103.77 199.08 104.38 
M 199.13 104.08 198.59 103.74 198.3 102.84 198.55 102.26 199.09 102.59 199.38 103.5 199.13 104.08 
M 157.61 174.17 157 174.33 156.15 173.9 155.91 173.32 156.52 173.16 157.37 173.59 157.61 174.17 
M 156.78 173.02 156.96 173.62 156.56 174.49 155.98 174.75 155.81 174.15 156.21 173.28 156.78 173.02 
M 166.39 184.29 166.63 184.87 166.33 185.77 165.78 186.09 165.55 185.51 165.85 184.61 166.39 184.29 
M 166.74 184.87 166.29 185.31 165.33 185.36 164.84 184.97 165.29 184.53 166.24 184.48 166.74 184.87 
M 175.79 178.31 175.89 177.69 176.61 177.07 177.24 177.08 177.15 177.7 176.42 178.32 175.79 178.31 
M 175.96 178.15 176.3 177.63 177.22 177.36 177.79 177.62 177.44 178.15 176.53 178.42 175.96 178.15 
M 173.71 185.14 173.12 184.91 172.67 184.08 172.8 183.46 173.39 183.68 173.85 184.52 173.71 185.14 
M 173.96 184.46 173.34 184.51 172.56 183.95 172.42 183.34 173.05 183.29 173.82 183.85 173.96 184.46 
M 239.34 82.77 238.82 83.14 237.88 83.06 237.44 82.6 237.95 82.23 238.9 82.32 239.34 82.77 
M 237.98 83.29 238.16 82.68 238.96 82.17 239.59 82.27 239.4 82.87 238.6 83.38 237.98 83.29 
M 144.09 157.05 143.58 157.43 142.63 157.35 142.19 156.9 142.7 156.53 143.65 156.6 144.09 157.05 
M 142.42 156.92 143.03 156.77 143.88 157.22 144.11 157.81 143.49 157.95 142.65 157.51 142.42 156.92 
M 155.62 113.72 155.57 113.09 156.14 112.33 156.75 112.19 156.8 112.82 156.23 113.58 155.62 113.72 
M 156.01 113.66 155.97 113.03 156.55 112.27 157.17 112.15 157.2 112.78 156.62 113.53 156.01 113.66 
M 159.59 105.91 159.35 106.49 158.49 106.91 157.88 106.76 158.13 106.17 158.98 105.75 159.59 105.91 
M 158.21 106.83 158.51 106.28 159.41 105.95 160 106.17 159.7 106.72 158.8 107.05 158.21 106.83 
M 170.24 104.45 170.17 105.08 169.48 105.73 168.85 105.75 168.92 105.13 169.61 104.48 170.24 104.45 
M 168.88 104.82 169.5 104.88 170.17 105.56 170.2 106.19 169.57 106.14 168.91 105.45 168.88 104.82 
M 184.26 98.49 183.9 97.97 183.99 97.02 184.45 96.59 184.82 97.11 184.72 98.05 184.26 98.49 
M 185.04 97.3 184.54 97.68 183.59 97.61 183.14 97.16 183.65 96.79 184.6 96.86 185.04 97.3 
M 190.4 103.69 189.77 103.74 189.01 103.17 188.87 102.55 189.5 102.5 190.26 103.08 190.4 103.69 
M 190.21 102.67 189.85 103.19 188.93 103.44 188.36 103.16 188.72 102.64 189.64 102.4 190.21 102.67 
M 167.29 192.88 167.49 192.28 168.31 191.79 168.93 191.9 168.73 192.5 167.91 192.99 167.29 192.88 
M 168.36 193.07 167.97 192.58 168.03 191.62 168.46 191.17 168.85 191.67 168.8 192.62 168.36 193.07 
M 184 188.44 183.63 188.95 182.7 189.17 182.15 188.88 182.52 188.36 183.44 188.15 184 188.44 
M 183.62 188.19 183.29 188.72 182.38 189.01 181.81 188.76 182.14 188.22 183.05 187.93 183.62 188.19 
M 173.9 194.33 173.61 193.77 173.83 192.85 174.35 192.48 174.63 193.04 174.41 193.97 173.9 194.33 
M 173.41 193.24 174.04 193.19 174.81 193.75 174.95 194.37 174.33 194.42 173.56 193.86 173.41 193.24 
M 209.83 73.38 210.13 73.94 209.91 74.86 209.4 75.23 209.11 74.68 209.32 73.75 209.83 73.38 
M 210.31 74.1 209.79 74.45 208.84 74.34 208.42 73.88 208.94 73.52 209.89 73.63 210.31 74.1 
M 215.82 67.83 216.4 68.07 216.82 68.93 216.66 69.54 216.08 69.29 215.66 68.43 215.82 67.83 
M 215.76 69.23 216.02 68.65 216.88 68.24 217.48 68.41 217.23 68.98 216.37 69.39 215.76 69.23 
M 201.57 74.65 202.18 74.52 203.01 74.99 203.23 75.58 202.61 75.71 201.78 75.24 201.57 74.65 
M 201.97 74.53 202.48 74.9 202.68 75.83 202.38 76.39 201.88 76.01 201.67 75.08 201.97 74.53 
M 207.18 91.12 206.68 91.51 205.73 91.48 205.27 91.05 205.76 90.65 206.71 90.69 207.18 91.12 
M 206.76 91.57 206.18 91.31 205.8 90.44 205.98 89.83 206.55 90.1 206.94 90.97 206.76 91.57 
M 195.34 93.46 195.81 93.04 196.76 93.02 197.25 93.43 196.78 93.85 195.82 93.87 195.34 93.46 
M 195.62 93.71 196.11 93.31 197.06 93.34 197.52 93.77 197.04 94.16 196.08 94.14 195.62 93.71 
M 251.42 86.44 250.9 86.08 250.67 85.15 250.95 84.59 251.46 84.95 251.7 85.87 251.42 86.44 
M 251.9 85.65 251.27 85.73 250.48 85.19 250.32 84.58 250.95 84.51 251.74 85.04 251.9 85.65 
M 243.93 79.1 244.4 78.68 245.36 78.68 245.83 79.09 245.36 79.51 244.41 79.51 243.93 79.1 
M 245.51 78.73 245.09 79.2 244.14 79.31 243.62 78.96 244.04 78.5 244.99 78.38 245.51 78.73 
M 177.28 103.38 177.44 102.77 178.23 102.24 178.86 102.31 178.69 102.92 177.9 103.45 177.28 103.38 
M 178.77 102.67 178.24 103 177.29 102.85 176.89 102.37 177.42 102.04 178.36 102.19 178.77 102.67 
M 179.87 197.38 180.23 196.87 181.16 196.63 181.72 196.91 181.36 197.43 180.44 197.67 179.87 197.38 
M 180.79 197.87 180.6 197.27 180.99 196.4 181.56 196.13 181.75 196.74 181.36 197.61 180.79 197.87 
M 191.79 194.58 192.4 194.44 193.25 194.88 193.47 195.47 192.86 195.61 192.02 195.17 191.79 194.58 
M 192.83 194.33 192.85 194.96 192.25 195.7 191.63 195.81 191.61 195.18 192.21 194.44 192.83 194.33 
M 161.38 95.14 160.75 95.19 159.99 94.62 159.85 94.01 160.47 93.96 161.24 94.52 161.38 95.14 
M 161.34 94.57 160.74 94.76 159.86 94.39 159.58 93.83 160.18 93.63 161.06 94 161.34 94.57 
M 169.61 99.2 168.98 99.2 168.26 98.57 168.17 97.95 168.8 97.95 169.52 98.57 169.61 99.2 
M 169.56 98.29 169.08 98.7 168.13 98.7 167.65 98.28 168.13 97.87 169.08 97.88 169.56 98.29 
M 149.28 112.25 149.62 111.73 150.54 111.47 151.11 111.74 150.77 112.26 149.85 112.52 149.28 112.25 
M 150.16 111.27 150.38 111.86 150.05 112.76 149.5 113.06 149.28 112.47 149.6 111.58 150.16 111.27 
M 151.81 100.7 152.43 100.84 152.99 101.61 152.94 102.23 152.32 102.09 151.76 101.32 151.81 100.7 
M 152.97 101.05 152.59 101.55 151.65 101.74 151.1 101.44 151.49 100.94 152.42 100.74 152.97 101.05 
M 135.45 169.81 135.07 169.31 135.12 168.36 135.56 167.9 135.94 168.4 135.89 169.35 135.45 169.81 
M 135.78 168.18 135.73 168.81 135.05 169.48 134.43 169.53 134.47 168.9 135.15 168.23 135.78 168.18 
M 136.18 161.65 135.95 162.24 135.1 162.67 134.48 162.52 134.72 161.93 135.57 161.5 136.18 161.65 
M 135.25 161.36 135.51 161.94 135.24 162.85 134.71 163.19 134.45 162.62 134.72 161.7 135.25 161.36 
M 148.65 168.43 149.22 168.16 150.13 168.43 150.47 168.96 149.9 169.22 148.99 168.96 148.65 168.43 
M 149.08 169.24 149.33 168.66 150.19 168.25 150.8 168.42 150.55 169 149.69 169.41 149.08 169.24 
M 210 178.69 210.45 178.25 211.4 178.19 211.91 178.57 211.46 179.02 210.51 179.08 210 178.69 
M 211.02 179.36 210.77 178.78 211.07 177.87 211.61 177.54 211.85 178.12 211.56 179.03 211.02 179.36 
M 216.84 188.79 216.28 188.5 215.92 187.62 216.12 187.02 216.68 187.31 217.04 188.19 216.84 188.79 
M 216.56 188.63 216.3 188.05 216.58 187.14 217.11 186.8 217.37 187.37 217.1 188.29 216.56 188.63 
M 217.86 182.18 217.51 182.7 216.6 182.97 216.02 182.7 216.37 182.17 217.28 181.91 217.86 182.18 
M 217.59 182.12 217.14 182.56 216.18 182.6 215.69 182.21 216.15 181.77 217.1 181.73 217.59 182.12 
M 263.65 89.68 263.41 90.26 262.56 90.68 261.94 90.53 262.19 89.95 263.04 89.52 263.65 89.68 
M 262.51 90.77 262.57 90.14 263.27 89.49 263.9 89.47 263.83 90.09 263.13 90.74 262.51 90.77 
M 272.66 101.76 272.72 101.13 273.41 100.47 274.04 100.44 273.98 101.07 273.29 101.73 272.66 101.76 
M 272.64 100.95 273.27 100.88 274.05 101.43 274.2 102.04 273.58 102.11 272.8 101.56 272.64 100.95 
M 272.75 94.21 272.37 94.71 271.43 94.89 270.88 94.58 271.27 94.08 272.21 93.9 272.75 94.21 
M 271.64 93.7 271.97 94.23 271.83 95.17 271.35 95.58 271.02 95.05 271.16 94.11 271.64 93.7 
M 273.63 85.25 274.16 84.91 275.1 85.04 275.51 85.52 274.98 85.86 274.04 85.72 273.63 85.25 
M 274.04 84.89 274.61 85.16 275 86.03 274.82 86.63 274.25 86.37 273.86 85.5 274.04 84.89 
M 259.7 81.88 260.08 82.39 260.01 83.34 259.56 83.78 259.18 83.28 259.25 82.32 259.7 81.88 
M 260.27 83.17 259.65 83.06 259.05 82.32 259.07 81.69 259.69 81.8 260.29 82.54 260.27 83.17 
M 266.67 82.87 267.12 82.42 268.07 82.35 268.57 82.73 268.13 83.17 267.18 83.25 266.67 82.87 
M 268.18 82.34 267.84 82.87 266.92 83.13 266.35 82.86 266.7 82.34 267.61 82.07 268.18 82.34 
M 263.1 77.98 262.48 77.86 261.89 77.1 261.93 76.47 262.54 76.6 263.13 77.35 263.1 77.98 
M 261.91 76.82 262.52 77 263.03 77.8 262.94 78.42 262.33 78.25 261.82 77.44 261.91 76.82 
M 207.5 185.25 207.78 185.81 207.54 186.74 207.02 187.1 206.74 186.53 206.98 185.61 207.5 185.25 
M 207.97 186.04 207.42 186.34 206.49 186.13 206.11 185.63 206.66 185.33 207.59 185.53 207.97 186.04 
M 211.38 193.75 210.77 193.91 209.91 193.5 209.66 192.92 210.27 192.75 211.13 193.17 211.38 193.75 
M 211.16 193.01 210.72 193.45 209.76 193.51 209.26 193.13 209.71 192.69 210.66 192.62 211.16 193.01 
M 222.02 188.99 222.6 188.74 223.51 189.03 223.84 189.57 223.25 189.82 222.35 189.53 222.02 188.99 
M 223.65 189.31 223.05 189.48 222.18 189.07 221.93 188.49 222.54 188.32 223.4 188.73 223.65 189.31 
M 256.22 76.17 256.01 76.76 255.17 77.22 254.55 77.09 254.77 76.5 255.61 76.04 256.22 76.17 
M 255.34 77.35 255.19 76.74 255.62 75.89 256.21 75.65 256.36 76.26 255.93 77.11 255.34 77.35 
M 229.4 76.71 229.99 76.93 230.46 77.77 230.33 78.38 229.73 78.17 229.27 77.33 229.4 76.71 
M 230.18 78.2 229.75 77.74 229.71 76.79 230.1 76.3 230.53 76.76 230.57 77.71 230.18 78.2 
M 240.15 75.01 239.65 74.63 239.45 73.7 239.76 73.15 240.26 73.53 240.46 74.46 240.15 75.01 
M 239.57 73.46 240.05 73.87 240.2 74.81 239.86 75.35 239.38 74.94 239.24 74 239.57 73.46 
M 231.22 72.77 231.02 72.17 231.4 71.29 231.96 71.02 232.16 71.62 231.78 72.49 231.22 72.77 
M 231.34 72.57 231.37 71.94 232.03 71.26 232.65 71.2 232.62 71.83 231.96 72.52 231.34 72.57 
M 176.84 93.49 176.72 92.87 177.2 92.05 177.8 91.84 177.92 92.46 177.44 93.29 176.84 93.49 
M 177.45 91.95 177.53 92.58 177.01 93.37 176.4 93.54 176.32 92.92 176.84 92.12 177.45 91.95 
M 192.18 86.55 192.73 86.85 193.06 87.75 192.84 88.34 192.29 88.03 191.96 87.14 192.18 86.55 
M 192.05 86.88 192.58 87.22 192.84 88.14 192.57 88.71 192.05 88.37 191.79 87.45 192.05 86.88 
M 183.73 90.25 183.97 89.67 184.83 89.25 185.44 89.41 185.19 89.99 184.33 90.41 183.73 90.25 
M 184.43 89.11 184.74 89.66 184.55 90.6 184.05 90.98 183.74 90.43 183.93 89.5 184.43 89.11 
M 155.66 90.39 155.23 90.84 154.28 90.93 153.77 90.57 154.2 90.11 155.15 90.02 155.66 90.39 
M 154.58 89.76 154.88 90.32 154.67 91.25 154.16 91.62 153.86 91.07 154.08 90.14 154.58 89.76 
M 143.14 103.71 143.71 103.44 144.63 103.68 144.98 104.2 144.41 104.48 143.49 104.23 143.14 103.71 
M 144.15 103.24 144.26 103.86 143.79 104.68 143.19 104.88 143.07 104.27 143.55 103.44 144.15 103.24 
M 147.49 95.43 146.86 95.43 146.13 94.81 146.04 94.19 146.67 94.18 147.4 94.81 147.49 95.43 
M 147.4 95.16 146.78 95.04 146.2 94.29 146.23 93.66 146.85 93.78 147.43 94.53 147.4 95.16 
M 205.08 174.22 205.59 173.86 206.54 173.97 206.97 174.43 206.45 174.79 205.5 174.68 205.08 174.22 
M 205.3 174.4 205.88 174.15 206.79 174.44 207.12 174.98 206.54 175.22 205.63 174.94 205.3 174.4 
M 271.89 74.23 272.52 74.27 273.21 74.93 273.26 75.56 272.63 75.52 271.95 74.86 271.89 74.23 
M 272.68 74.18 272.78 74.8 272.29 75.61 271.69 75.8 271.58 75.18 272.08 74.37 272.68 74.18 
M 281.62 89.76 281.13 90.16 280.18 90.15 279.71 89.72 280.2 89.32 281.15 89.34 281.62 89.76 
M 280.05 90.13 280.46 89.65 281.4 89.5 281.93 89.83 281.53 90.31 280.58 90.46 280.05 90.13 
M 284.53 80.04 284 80.36 283.06 80.21 282.65 79.72 283.19 79.39 284.13 79.55 284.53 80.04 
M 283.72 79.16 283.8 79.79 283.29 80.59 282.68 80.76 282.59 80.14 283.11 79.34 283.72 79.16 
M 197.19 170.76 197.51 171.3 197.33 172.24 196.83 172.63 196.52 172.08 196.7 171.15 197.19 170.76 
M 197.63 172.07 197.02 171.92 196.47 171.15 196.53 170.52 197.14 170.67 197.69 171.45 197.63 172.07 
M 274.32 153.76 273.98 153.23 274.12 152.29 274.59 151.88 274.93 152.41 274.8 153.35 274.32 153.76 
M 274.34 153.54 274.25 152.91 274.76 152.11 275.36 151.93 275.45 152.55 274.94 153.36 274.34 153.54 
M 280.81 146.33 280.42 146.82 279.48 147 278.94 146.67 279.33 146.18 280.27 146.01 280.81 146.33 
M 279.93 145.78 280.07 146.39 279.64 147.24 279.05 147.47 278.9 146.86 279.34 146.01 279.93 145.78 
M 260.32 146.66 260.9 146.42 261.81 146.72 262.13 147.27 261.55 147.51 260.64 147.2 260.32 146.66 
M 261.83 146.57 261.43 147.06 260.5 147.22 259.95 146.9 260.35 146.41 261.29 146.24 261.83 146.57 
M 257.58 177.89 256.99 178.12 256.1 177.8 255.78 177.26 256.37 177.03 257.27 177.34 257.58 177.89 
M 256.22 178.13 256.45 177.55 257.3 177.12 257.92 177.27 257.68 177.85 256.83 178.28 256.22 178.13 
M 265.37 177.21 264.74 177.32 263.93 176.83 263.73 176.23 264.35 176.12 265.17 176.62 265.37 177.21 
M 263.89 176.42 264.52 176.5 265.15 177.21 265.16 177.84 264.53 177.76 263.9 177.05 263.89 176.42 
M 272.44 177.06 271.81 177.11 271.04 176.55 270.9 175.93 271.53 175.88 272.3 176.44 272.44 177.06 
M 271.72 177.22 271.49 176.63 271.8 175.73 272.34 175.42 272.58 176 272.27 176.9 271.72 177.22 
M 288.21 139.95 287.88 139.41 288.05 138.47 288.54 138.07 288.86 138.61 288.7 139.55 288.21 139.95 
M 287.72 139.33 288.18 138.89 289.13 138.85 289.62 139.24 289.17 139.67 288.21 139.72 287.72 139.33 
M 288.29 151.94 288.19 151.32 288.7 150.52 289.31 150.33 289.4 150.96 288.89 151.76 288.29 151.94 
M 288.07 151.09 288.68 150.94 289.53 151.37 289.77 151.96 289.16 152.11 288.31 151.67 288.07 151.09 
M 280.06 138 280.24 138.61 279.83 139.47 279.25 139.72 279.08 139.12 279.49 138.26 280.06 138 
M 280.35 139.08 279.72 139.08 279 138.46 278.91 137.84 279.54 137.84 280.26 138.46 280.35 139.08 
M 281.63 153.99 281 153.98 280.28 153.35 280.19 152.73 280.82 152.73 281.54 153.36 281.63 153.99 
M 281 154.08 280.74 153.51 281 152.59 281.52 152.24 281.79 152.82 281.53 153.73 281 154.08 
M 197.42 177.69 197.39 178.32 196.74 179.01 196.11 179.07 196.14 178.44 196.79 177.75 197.42 177.69 
M 196.76 179.1 196.57 178.5 196.96 177.63 197.53 177.36 197.71 177.96 197.33 178.83 196.76 179.1 
M 191.63 178.26 191.01 178.14 190.41 177.4 190.44 176.77 191.06 176.88 191.65 177.63 191.63 178.26 
M 191.24 176.82 191.25 177.45 190.65 178.18 190.03 178.29 190.01 177.66 190.62 176.92 191.24 176.82 
M 190.3 169.38 189.87 168.92 189.82 167.97 190.22 167.48 190.65 167.93 190.69 168.89 190.3 169.38 
M 189.86 169.04 190.03 168.43 190.82 167.9 191.45 167.98 191.28 168.58 190.49 169.11 189.86 169.04 
M 240.69 190.78 240.07 190.86 239.28 190.34 239.11 189.73 239.73 189.65 240.53 190.18 240.69 190.78 
M 239.45 189.69 239.97 190.04 240.22 190.96 239.95 191.53 239.43 191.17 239.18 190.26 239.45 189.69 
M 144.48 88.52 144.02 88.95 143.07 88.98 142.58 88.58 143.04 88.15 144 88.12 144.48 88.52 
M 143.94 87.95 143.76 88.55 142.96 89.06 142.33 88.97 142.51 88.36 143.32 87.86 143.94 87.95 
M 164.57 85.6 164.78 85.01 165.61 84.54 166.22 84.66 166.02 85.25 165.19 85.73 164.57 85.6 
M 164.81 84.7 165.41 84.9 165.9 85.72 165.79 86.34 165.19 86.14 164.7 85.32 164.81 84.7 
M 140.29 118.13 139.82 117.72 139.68 116.77 140.02 116.24 140.5 116.66 140.63 117.6 140.29 118.13 
M 140.29 117.9 139.99 117.35 140.2 116.42 140.71 116.04 141.01 116.6 140.8 117.53 140.29 117.9 
M 138.94 108.04 139.07 108.66 138.62 109.49 138.03 109.71 137.89 109.1 138.35 108.26 138.94 108.04 
M 139 108.36 138.71 108.92 137.82 109.28 137.23 109.07 137.52 108.51 138.4 108.16 139 108.36 
M 223.06 71.41 223.46 71.9 223.44 72.85 223.01 73.32 222.61 72.83 222.63 71.88 223.06 71.41 
M 222.83 73.06 222.82 72.43 223.42 71.7 224.04 71.59 224.06 72.22 223.45 72.96 222.83 73.06 
M 274.75 159.31 275.36 159.47 275.89 160.26 275.82 160.89 275.21 160.72 274.67 159.93 274.75 159.31 
M 275.44 159.39 275.5 160.02 274.94 160.79 274.32 160.93 274.27 160.3 274.83 159.53 275.44 159.39 
M 217.86 61.19 217.5 61.71 216.58 61.94 216.01 61.66 216.38 61.14 217.3 60.91 217.86 61.19 
M 216.95 60.7 217.13 61.3 216.74 62.17 216.17 62.44 215.99 61.84 216.38 60.97 216.95 60.7 
M 228.24 62.51 228.47 61.92 229.31 61.48 229.93 61.62 229.7 62.21 228.85 62.65 228.24 62.51 
M 229.53 61.49 229.31 62.08 228.48 62.55 227.86 62.42 228.08 61.83 228.91 61.36 229.53 61.49 
M 222.58 65.41 222.43 64.8 222.86 63.94 223.44 63.7 223.59 64.32 223.16 65.17 222.58 65.41 
M 222.85 65.26 222.79 64.63 223.36 63.87 223.97 63.73 224.02 64.36 223.46 65.12 222.85 65.26 
M 292.3 72.19 291.9 72.68 290.96 72.85 290.42 72.52 290.82 72.03 291.76 71.87 292.3 72.19 
M 291.31 71.63 291.54 72.22 291.23 73.12 290.68 73.43 290.45 72.85 290.76 71.95 291.31 71.63 
M 293.79 76.79 294.04 77.37 293.76 78.28 293.22 78.61 292.97 78.03 293.26 77.12 293.79 76.79 
M 293.81 77.04 293.73 77.67 293.03 78.31 292.39 78.32 292.47 77.69 293.18 77.05 293.81 77.04 
M 290.41 88.83 291.04 88.81 291.78 89.42 291.88 90.04 291.25 90.05 290.52 89.45 290.41 88.83 
M 291.04 90.15 290.94 89.53 291.44 88.72 292.04 88.52 292.14 89.15 291.64 89.96 291.04 90.15 
M 284.13 70.61 284.66 70.95 284.92 71.87 284.66 72.44 284.13 72.1 283.87 71.18 284.13 70.61 
M 283.71 71.27 284.34 71.3 285.03 71.96 285.1 72.58 284.47 72.56 283.78 71.9 283.71 71.27 
M 268.33 105.68 267.75 105.93 266.84 105.65 266.51 105.11 267.09 104.86 268 105.14 268.33 105.68 
M 267.56 106.11 267.26 105.56 267.45 104.62 267.95 104.24 268.26 104.79 268.07 105.72 267.56 106.11 
M 273.4 116.54 273.63 115.95 274.48 115.52 275.1 115.67 274.86 116.26 274.01 116.69 273.4 116.54 
M 274.93 115.86 274.43 116.24 273.48 116.19 273.02 115.75 273.52 115.37 274.47 115.42 274.93 115.86 
M 266.85 69.96 266.68 70.57 265.88 71.09 265.26 71.01 265.43 70.4 266.22 69.88 266.85 69.96 
M 266.71 70.18 266.25 70.6 265.29 70.64 264.8 70.24 265.27 69.81 266.22 69.78 266.71 70.18 
M 276.82 109.81 276.24 110.06 275.33 109.78 275 109.24 275.58 108.99 276.49 109.27 276.82 109.81 
M 275.27 109.87 275.71 109.42 276.66 109.33 277.17 109.7 276.73 110.16 275.78 110.24 275.27 109.87 
M 279.71 102.43 280.29 102.17 281.2 102.45 281.54 102.98 280.96 103.24 280.05 102.96 279.71 102.43 
M 280.49 103.42 280.41 102.79 280.95 102 281.56 101.84 281.63 102.47 281.1 103.25 280.49 103.42 
M 280.88 169.15 280.95 169.77 280.42 170.56 279.81 170.72 279.74 170.1 280.27 169.31 280.88 169.15 
M 280.18 169.23 280.5 169.77 280.33 170.71 279.84 171.1 279.52 170.56 279.69 169.62 280.18 169.23 
M 194.59 77.77 195.07 78.18 195.22 79.12 194.88 79.65 194.4 79.25 194.25 78.3 194.59 77.77 
M 195.46 78.63 194.88 78.89 193.97 78.61 193.63 78.08 194.2 77.82 195.12 78.1 195.46 78.63 
M 200.36 86.59 200.07 87.15 199.19 87.51 198.59 87.3 198.88 86.74 199.76 86.39 200.36 86.59 
M 198.91 86.49 199.5 86.72 199.94 87.56 199.8 88.18 199.21 87.95 198.77 87.1 198.91 86.49 
M 295 158.18 295.04 157.55 295.72 156.87 296.34 156.83 296.3 157.46 295.63 158.13 295 158.18 
M 294.98 157.73 295.49 157.36 296.44 157.44 296.88 157.89 296.37 158.26 295.42 158.18 294.98 157.73 
M 279.82 95.19 279.77 95.82 279.08 96.48 278.45 96.52 278.51 95.89 279.19 95.23 279.82 95.19 
M 279.86 95.82 279.27 96.04 278.38 95.71 278.07 95.16 278.66 94.94 279.56 95.27 279.86 95.82 
M 287.68 100.76 287.17 100.39 286.95 99.46 287.25 98.9 287.76 99.28 287.97 100.2 287.68 100.76 
M 287.87 99.23 287.69 99.84 286.89 100.35 286.27 100.26 286.44 99.66 287.25 99.14 287.87 99.23 
M 286.44 111.47 287.06 111.55 287.7 112.26 287.71 112.89 287.08 112.81 286.45 112.1 286.44 111.47 
M 286.64 111.6 287.15 111.97 287.38 112.89 287.09 113.45 286.57 113.09 286.35 112.16 286.64 111.6 
M 263.27 62.81 263.83 62.51 264.76 62.71 265.14 63.22 264.58 63.52 263.65 63.32 263.27 62.81 
M 263.48 62.93 264.1 62.81 264.93 63.29 265.13 63.89 264.51 64 263.69 63.52 263.48 62.93 
M 274.41 63.34 273.78 63.32 273.08 62.66 273.02 62.04 273.65 62.06 274.34 62.72 274.41 63.34 
M 274.44 62.65 273.85 62.87 272.95 62.55 272.64 62 273.23 61.78 274.13 62.1 274.44 62.65 
M 257.36 65.83 257.83 65.41 258.78 65.38 259.26 65.79 258.8 66.21 257.84 66.23 257.36 65.83 
M 257.84 65.25 258.38 65.59 258.66 66.5 258.4 67.08 257.87 66.74 257.59 65.83 257.84 65.25 
M 278.05 67.24 278.67 67.34 279.28 68.07 279.27 68.7 278.65 68.6 278.04 67.87 278.05 67.24 
M 277.94 68.05 278.52 67.79 279.43 68.06 279.77 68.6 279.19 68.85 278.28 68.58 277.94 68.05 
M 189.51 75.65 189.07 76.1 188.12 76.18 187.61 75.8 188.05 75.35 189 75.28 189.51 75.65 
M 188.54 76.45 188.36 75.85 188.76 74.98 189.34 74.72 189.51 75.33 189.11 76.19 188.54 76.45 
M 197.49 68.07 198.11 67.98 198.91 68.5 199.09 69.1 198.47 69.19 197.66 68.68 197.49 68.07 
M 199 68.44 198.45 68.75 197.52 68.56 197.13 68.06 197.68 67.75 198.61 67.94 199 68.44 
M 191.13 66.07 191.71 66.35 191.95 66.93 191.35 67.09 190.49 66.68 190.36 66.37 
M 191 66.13 191.2 66.31 191.32 67.26 190.97 67.78 190.5 67.36 190.42 66.35 
M 208.23 66.51 208.49 67.08 208.21 68 207.68 68.33 207.42 67.76 207.7 66.84 208.23 66.51 
M 207.26 67.63 207.78 67.27 208.73 67.38 209.15 67.84 208.63 68.2 207.68 68.09 207.26 67.63 
M 203.58 61.38 204.18 61.54 204.72 62.33 204.64 62.96 204.03 62.79 203.5 62 203.58 61.38 
M 204.2 62.89 203.93 62.32 204.19 61.4 204.72 61.05 204.99 61.62 204.73 62.54 204.2 62.89 
M 137.04 175.95 136.44 176.16 135.56 175.8 135.27 175.24 135.86 175.04 136.75 175.39 137.04 175.95 
M 136.47 176.25 136.03 175.79 135.99 174.84 136.38 174.35 136.82 174.8 136.86 175.76 136.47 176.25 
M 240.45 183.8 239.87 183.56 239.44 182.71 239.6 182.1 240.18 182.34 240.61 183.19 240.45 183.8 
M 239.36 183.24 239.83 182.83 240.79 182.82 241.27 183.22 240.8 183.64 239.84 183.65 239.36 183.24 
M 283.24 56.34 282.82 55.87 282.8 54.92 283.2 54.44 283.62 54.9 283.64 55.86 283.24 56.34 
M 283.81 55.82 283.21 55.62 282.72 54.8 282.83 54.18 283.43 54.38 283.92 55.2 283.81 55.82 
M 269.2 55.31 269.04 55.74 268.73 55.57 
M 269.19 55.39 269.15 55.37 
M 269.24 55.25 269.19 55.39 
M 275.81 55.45 275.21 55.26 274.71 54.44 274.82 53.82 275.42 54.01 275.91 54.83 275.81 55.45 
M 274.63 54.88 275.13 54.5 276.08 54.55 276.53 54.99 276.03 55.38 275.08 55.32 274.63 54.88 
M 133.38 103.84 133.61 104.43 133.28 105.32 132.73 105.63 132.5 105.04 132.83 104.14 133.38 103.84 
M 133.22 104.03 133.27 104.65 132.7 105.42 132.09 105.56 132.04 104.93 132.61 104.16 133.22 104.03 
M 128.41 110.18 127.92 110.59 126.97 110.57 126.5 110.14 126.99 109.74 127.94 109.76 128.41 110.18 
M 126.75 110.01 127.37 109.95 128.15 110.5 128.3 111.11 127.68 111.17 126.9 110.62 126.75 110.01 
M 297.22 97.01 297.35 97.63 296.88 98.46 296.29 98.67 296.16 98.06 296.63 97.22 297.22 97.01 
M 296.17 97.41 296.77 97.61 297.25 98.44 297.13 99.06 296.53 98.85 296.05 98.03 296.17 97.41 
M 297.1 88.78 297.34 88.19 298.19 87.77 298.8 87.92 298.56 88.51 297.71 88.93 297.1 88.78 
M 298.05 87.63 298.16 88.25 297.67 89.07 297.07 89.27 296.96 88.65 297.45 87.83 298.05 87.63 
M 300.97 81.57 301.57 81.79 302.04 82.62 301.91 83.23 301.32 83.02 300.85 82.19 300.97 81.57 
M 300.78 82.1 301.41 82.18 302.05 82.88 302.06 83.51 301.44 83.44 300.8 82.73 300.78 82.1 
M 237.12 61.99 236.66 61.56 236.55 60.61 236.91 60.1 237.38 60.52 237.48 61.47 237.12 61.99 
M 236.37 60.7 237 60.81 237.59 61.56 237.57 62.19 236.95 62.07 236.35 61.33 236.37 60.7 
M 241.91 66.43 242.54 66.39 243.29 66.98 243.42 67.59 242.79 67.63 242.03 67.05 241.91 66.43 
M 242.83 66.31 242.88 66.93 242.31 67.7 241.7 67.84 241.65 67.21 242.21 66.44 242.83 66.31 
M 249.03 62.65 248.58 63.09 247.62 63.13 247.13 62.74 247.59 62.31 248.54 62.26 249.03 62.65 
M 247.38 62.9 247.91 62.55 248.85 62.66 249.28 63.13 248.75 63.48 247.81 63.37 247.38 62.9 
M 243.87 57.06 243.95 57.68 243.43 58.48 242.83 58.65 242.74 58.03 243.26 57.23 243.87 57.06 
M 244.01 58.16 243.38 58.08 242.74 57.37 242.73 56.74 243.36 56.82 243.99 57.53 244.01 58.16 
M 178.68 84.92 178.05 85.01 177.25 84.49 177.07 83.89 177.7 83.8 178.5 84.31 178.68 84.92 
M 177.17 84.24 177.8 84.19 178.57 84.75 178.71 85.36 178.08 85.42 177.31 84.85 177.17 84.24 
M 169.75 91.33 169.19 91.63 168.26 91.41 167.89 90.9 168.44 90.61 169.37 90.82 169.75 91.33 
M 169.54 91.18 168.92 91.32 168.09 90.87 167.86 90.28 168.48 90.14 169.32 90.59 169.54 91.18 
M 302.39 153.72 302.89 153.34 303.84 153.4 304.29 153.84 303.79 154.23 302.84 154.17 302.39 153.72 
M 302.7 153.43 303.32 153.56 303.91 154.31 303.87 154.94 303.26 154.81 302.67 154.06 302.7 153.43 
M 290.35 160.12 290.07 160.69 289.19 161.05 288.59 160.86 288.87 160.29 289.75 159.92 290.35 160.12 
M 290.18 160.63 289.55 160.7 288.77 160.16 288.61 159.55 289.23 159.48 290.02 160.02 290.18 160.63 
M 292.49 108.07 293.11 108.01 293.88 108.58 294.02 109.19 293.4 109.24 292.63 108.68 292.49 108.07 
M 293.98 108.62 293.38 108.82 292.5 108.45 292.22 107.89 292.82 107.69 293.7 108.05 293.98 108.62 
M 282.53 121.62 282.02 121.98 281.07 121.88 280.64 121.42 281.15 121.06 282.1 121.16 282.53 121.62 
M 281.23 122.15 281.36 121.53 282.11 120.95 282.74 120.99 282.62 121.61 281.86 122.19 281.23 122.15 
M 279.59 115.78 279.27 115.24 279.44 114.3 279.93 113.91 280.25 114.45 280.08 115.39 279.59 115.78 
M 280.11 114.21 279.99 114.82 279.24 115.42 278.61 115.39 278.73 114.77 279.48 114.18 280.11 114.21 
M 300.06 111.82 300.35 112.38 300.11 113.31 299.59 113.67 299.31 113.1 299.55 112.18 300.06 111.82 
M 299.11 112.65 299.73 112.54 300.55 113.02 300.75 113.62 300.13 113.73 299.31 113.25 299.11 112.65 
M 127.41 116.8 127.77 116.5 128.72 116.53 129.19 116.96 128.7 117.36 127.74 117.33 127.54 117.14 
M 127.94 117.6 128.01 116.97 128.7 116.32 129.33 116.29 129.27 116.92 128.57 117.57 127.94 117.6 
M 285.22 62.32 284.6 62.4 283.8 61.87 283.64 61.26 284.26 61.18 285.06 61.71 285.22 62.32 
M 284.92 62.33 284.37 62.01 284.06 61.11 284.3 60.52 284.84 60.84 285.15 61.74 284.92 62.33 
M 292.89 57.47 292.8 56.85 293.31 56.04 293.91 55.86 294.01 56.48 293.5 57.29 292.89 57.47 
M 294 56.25 293.61 56.75 292.68 56.93 292.13 56.62 292.52 56.12 293.45 55.94 294 56.25 
M 186.68 81.96 187.29 81.78 188.15 82.18 188.41 82.76 187.81 82.93 186.94 82.53 186.68 81.96 
M 188.1 81.89 187.77 82.43 186.85 82.7 186.28 82.44 186.62 81.91 187.53 81.64 188.1 81.89 
M 259.71 58.51 259.27 58.97 258.32 59.06 257.81 58.69 258.24 58.24 259.19 58.15 259.71 58.51 
M 259.45 58.38 258.93 58.75 257.99 58.66 257.55 58.2 258.07 57.83 259.01 57.93 259.45 58.38 
M 249.98 73.61 249.44 73.93 248.5 73.78 248.1 73.29 248.64 72.96 249.58 73.12 249.98 73.61 
M 248.49 73.93 248.82 73.39 249.73 73.09 250.31 73.34 249.98 73.88 249.07 74.17 248.49 73.93 
M 122.42 99.69 123.05 99.63 123.83 100.18 123.98 100.79 123.35 100.86 122.57 100.31 122.42 99.69 
M 123.92 100.26 123.32 100.44 122.45 100.04 122.19 99.47 122.79 99.29 123.66 99.69 123.92 100.26 
M 297.1 128.27 296.58 127.91 296.35 126.98 296.63 126.42 297.15 126.78 297.38 127.7 297.1 128.27 
M 297.37 126.83 297.09 127.39 296.21 127.75 295.61 127.55 295.9 126.98 296.78 126.62 297.37 126.83 
M 305.59 115.2 306.21 115.09 307.03 115.59 307.22 116.19 306.6 116.29 305.79 115.8 305.59 115.2 
M 307.07 115.98 306.45 115.92 305.79 115.22 305.77 114.59 306.39 114.66 307.05 115.35 307.07 115.98 
M 182.88 74.09 182.41 73.67 182.28 72.73 182.63 72.2 183.1 72.62 183.23 73.57 182.88 74.09 
M 182.69 72.42 182.93 73 182.64 73.91 182.1 74.24 181.86 73.66 182.15 72.75 182.69 72.42 
M 304.48 103.53 304.51 104.16 303.92 104.91 303.3 105.03 303.27 104.4 303.86 103.65 304.48 103.53 
M 303.65 104.97 303.67 104.34 304.31 103.63 304.94 103.56 304.92 104.19 304.28 104.89 303.65 104.97 
M 300.22 67.28 299.77 66.84 299.69 65.89 300.07 65.38 300.52 65.82 300.59 66.77 300.22 67.28 
M 300.81 66.04 300.33 66.46 299.38 66.46 298.9 66.04 299.38 65.63 300.33 65.63 300.81 66.04 
M 130.21 96.66 129.63 96.41 129.21 95.56 129.38 94.95 129.96 95.19 130.38 96.05 130.21 96.66 
M 129.44 95.17 129.9 95.6 130 96.55 129.64 97.06 129.18 96.63 129.08 95.69 129.44 95.17 
M 137.53 100.31 137.38 99.7 137.82 98.85 138.4 98.61 138.55 99.23 138.12 100.07 137.53 100.31 
M 138.49 99.97 137.92 99.69 137.56 98.81 137.75 98.21 138.32 98.49 138.69 99.37 138.49 99.97 
M 293.39 172.37 293.3 171.75 293.82 170.95 294.43 170.77 294.52 171.4 294 172.2 293.39 172.37 
M 294.22 172.23 293.79 171.77 293.76 170.81 294.16 170.32 294.58 170.79 294.61 171.74 294.22 172.23 
M 308.77 74.84 308.14 74.77 307.51 74.06 307.49 73.43 308.12 73.5 308.76 74.21 308.77 74.84 
M 308.47 74.78 308.02 74.34 307.95 73.38 308.32 72.88 308.77 73.32 308.84 74.27 308.47 74.78 
M 307.02 68.31 306.63 67.82 306.68 66.87 307.12 66.41 307.51 66.91 307.45 67.86 307.02 68.31 
M 306.42 67.04 307.04 67.14 307.66 67.86 307.66 68.49 307.04 68.4 306.41 67.67 306.42 67.04 
M 300.94 74.77 300.35 74.55 299.89 73.71 300.02 73.1 300.61 73.32 301.07 74.15 300.94 74.77 
M 300.54 73.21 300.68 73.82 300.24 74.67 299.66 74.9 299.51 74.29 299.95 73.44 300.54 73.21 
M 294.31 65.11 293.73 65.36 292.82 65.07 292.49 64.54 293.07 64.29 293.98 64.57 294.31 65.11 
M 293.68 65.49 293.27 65.01 293.27 64.06 293.69 63.59 294.1 64.06 294.1 65.02 293.68 65.49 
M 308.23 82.04 307.6 82.07 306.86 81.48 306.74 80.86 307.37 80.83 308.11 81.42 308.23 82.04 
M 307.7 80.76 307.71 81.39 307.09 82.11 306.46 82.21 306.46 81.58 307.08 80.85 307.7 80.76 
M 311.33 87.79 311.93 87.62 312.8 88.02 313.05 88.6 312.45 88.77 311.58 88.36 311.33 87.79 
M 312.18 87.47 312.38 88.06 312.02 88.95 311.45 89.23 311.25 88.63 311.62 87.75 312.18 87.47 
M 319.25 84.88 318.66 85.08 317.78 84.72 317.49 84.15 318.09 83.95 318.97 84.32 319.25 84.88 
M 319.06 84.75 318.43 84.74 317.72 84.1 317.64 83.48 318.27 83.49 318.98 84.12 319.06 84.75 
M 317.64 76.78 317.41 77.37 316.57 77.82 315.95 77.67 316.18 77.09 317.02 76.64 317.64 76.78 
M 317.42 77.6 316.81 77.46 316.24 76.69 316.29 76.06 316.91 76.2 317.47 76.97 317.42 77.6 
M 304.43 91.18 304.92 91.57 305.1 92.5 304.78 93.05 304.28 92.66 304.11 91.72 304.43 91.18 
M 303.92 91.85 304.55 91.89 305.24 92.55 305.29 93.18 304.66 93.14 303.98 92.48 303.92 91.85 
M 302.78 173.12 302.2 173.36 301.29 173.06 300.97 172.51 301.56 172.27 302.46 172.58 302.78 173.12 
M 301.25 173.19 301.67 172.72 302.61 172.59 303.14 172.93 302.73 173.41 301.78 173.53 301.25 173.19 
M 307.79 175.25 307.42 174.74 307.51 173.79 307.96 173.35 308.33 173.87 308.24 174.82 307.79 175.25 
M 308.07 175 307.73 174.48 307.85 173.53 308.32 173.11 308.67 173.64 308.54 174.58 308.07 175 
M 260.07 183.94 260.35 183.38 261.24 183.02 261.83 183.22 261.55 183.78 260.66 184.14 260.07 183.94 
M 261.4 183 261.18 183.6 260.34 184.06 259.73 183.93 259.94 183.34 260.78 182.87 261.4 183 
M 324.64 78.31 325.27 78.4 325.89 79.12 325.89 79.76 325.27 79.67 324.64 78.95 324.64 78.31 
M 324.73 78.54 325.3 78.81 325.7 79.68 325.52 80.28 324.94 80.02 324.55 79.15 324.73 78.54 
M 329.27 90.71 328.88 90.22 328.91 89.27 329.34 88.8 329.74 89.3 329.7 90.25 329.27 90.71 
M 328.75 90.22 329.09 89.69 330 89.42 330.58 89.68 330.23 90.21 329.32 90.48 328.75 90.22 
M 321.02 94.23 320.39 94.16 319.75 93.46 319.73 92.83 320.36 92.9 321 93.6 321.02 94.23 
M 319.72 93.22 320.34 93.3 320.98 94.01 320.98 94.64 320.36 94.56 319.73 93.85 319.72 93.22 
M 151.22 85.48 150.6 85.61 149.72 85 
M 150.96 84.87 151.22 85.48 
M 150.79 85.62 150.3 85.23 150.24 84.94 
M 151.07 84.85 151.11 85.08 150.79 85.62 
M 313.82 110.9 313.83 111.53 313.22 112.27 312.6 112.37 312.58 111.74 313.2 111.01 313.82 110.9 
M 312.52 111.86 313.03 111.49 313.98 111.58 314.42 112.03 313.9 112.4 312.95 112.31 312.52 111.86 
M 241.06 197.51 241.57 197.13 242.52 197.21 242.96 197.66 242.45 198.03 241.5 197.96 241.06 197.51 
M 242.72 197.41 242.18 197.74 241.24 197.58 240.84 197.09 241.38 196.76 242.32 196.93 242.72 197.41 
M 128.25 189.83 128.47 189.62 128.68 189.9 
M 127.98 189.78 128.09 189.33 128.67 189.57 128.85 189.94 
M 338.74 91.87 339.21 92.3 339.31 93.25 338.96 93.77 338.49 93.34 338.39 92.39 338.74 91.87 
M 338.2 93.15 338.65 92.71 339.6 92.65 340.1 93.03 339.65 93.47 338.7 93.53 338.2 93.15 
M 336.07 86.05 335.75 86.93 335.2 87.24 334.98 86.65 335.26 85.86 
M 335.95 86.94 335.44 86.56 335.29 85.87 
M 336.18 86.08 336.25 86.38 335.95 86.94 
M 325.95 97.45 326.58 97.41 327.34 97.98 327.48 98.59 326.85 98.64 326.08 98.07 325.95 97.45 
M 326.67 98.75 326.51 98.14 326.94 97.29 327.52 97.04 327.68 97.65 327.25 98.51 326.67 98.75 
M 310.01 99.37 309.62 99.87 308.68 100.05 308.14 99.74 308.52 99.24 309.46 99.06 310.01 99.37 
M 309.75 99.3 309.26 99.69 308.3 99.65 307.85 99.21 308.34 98.82 309.29 98.87 309.75 99.3 
M 272.33 187.23 271.93 186.74 271.96 185.79 272.39 185.33 272.79 185.82 272.76 186.77 272.33 187.23 
M 272.95 186.7 272.35 186.51 271.86 185.69 271.96 185.07 272.56 185.27 273.06 186.08 272.95 186.7 
M 132.61 185 132.37 184.41 132.67 183.51 133.21 183.19 133.45 183.77 133.15 184.67 132.61 185 
M 132.6 184.75 132.68 184.12 133.39 183.49 134.02 183.48 133.94 184.1 133.23 184.74 132.6 184.75 
M 314.28 142.18 313.81 141.76 313.68 140.81 314.03 140.29 314.5 140.7 314.63 141.65 314.28 142.18 
M 314.13 141.96 313.96 141.35 314.36 140.49 314.94 140.23 315.11 140.84 314.71 141.7 314.13 141.96 
M 315.71 134.01 315.25 133.59 315.14 132.64 315.49 132.12 315.96 132.54 316.07 133.49 315.71 134.01 
M 315.14 132.5 315.67 132.85 315.94 133.76 315.67 134.33 315.15 133.99 314.88 133.08 315.14 132.5 
M 232.3 55.51 232.23 56.41 231.78 56.85 231.41 56.35 231.45 55.8 
M 231.9 55.65 232.11 56.64 231.78 57.17 231.29 56.77 231.15 55.9 
M 135.97 93.39 135.5 92.97 135.4 92.02 135.76 91.5 136.22 91.93 136.32 92.88 135.97 93.39 
M 136.35 91.91 136.09 92.48 135.22 92.88 134.62 92.7 134.88 92.13 135.74 91.73 136.35 91.91 
M 319 106.76 318.41 106.52 317.98 105.67 318.13 105.06 318.71 105.3 319.15 106.15 319 106.76 
M 319.25 105.67 318.74 106.05 317.79 105.98 317.35 105.53 317.85 105.16 318.8 105.23 319.25 105.67 
M 333.62 102.63 332.99 102.55 332.36 101.84 332.35 101.21 332.98 101.29 333.61 102 333.62 102.63 
M 332.52 102.48 332.76 101.9 333.6 101.46 334.22 101.61 333.98 102.19 333.13 102.63 332.52 102.48 
M 319.58 101.17 319.03 100.86 318.72 99.96 318.95 99.37 319.49 99.68 319.81 100.58 319.58 101.17 
M 319.85 99.85 319.48 100.35 318.55 100.56 317.99 100.26 318.37 99.75 319.3 99.55 319.85 99.85 
M 326.54 108.7 327.16 108.59 327.98 109.09 328.17 109.68 327.55 109.79 326.73 109.3 326.54 108.7 
M 327.91 109.67 327.33 109.42 326.9 108.57 327.06 107.96 327.65 108.2 328.07 109.06 327.91 109.67 
M 123.93 90.33 124.41 90.73 124.57 91.67 124.24 92.21 123.76 91.81 123.6 90.87 123.93 90.33 
M 123.9 91.97 123.87 91.34 124.45 90.59 125.07 90.46 125.1 91.09 124.52 91.85 123.9 91.97 
M 238.04 68.17 237.43 68.34 236.57 67.93 236.31 67.36 236.92 67.19 237.78 67.59 238.04 68.17 
M 236.99 68.46 236.96 67.83 237.55 67.08 238.16 66.96 238.2 67.59 237.61 68.34 236.99 68.46 
M 252.7 58.12 252.08 58.02 251.47 57.29 251.48 56.66 252.1 56.76 252.71 57.49 252.7 58.12 
M 252.75 57.68 252.13 57.62 251.48 56.92 251.45 56.29 252.08 56.36 252.73 57.05 252.75 57.68 
M 324.5 154.77 324.88 155.27 324.82 156.22 324.37 156.67 323.99 156.17 324.05 155.22 324.5 154.77 
M 324.97 155.23 324.66 155.78 323.76 156.09 323.17 155.85 323.49 155.31 324.39 155 324.97 155.23 
M 345.54 89.51 346.09 89.2 347.02 89.39 347.41 89.89 346.86 90.2 345.93 90.01 345.54 89.51 
M 347.01 90.18 346.44 89.93 346.04 89.06 346.2 88.51 
M 346.51 88.59 346.79 88.71 347.19 89.58 347.01 90.18 
M 275.84 197.64 276.47 197.7 277.13 198.39 277.16 199.02 276.53 198.96 275.87 198.27 275.84 197.64 
M 277.21 198.19 276.66 198.5 275.73 198.3 275.35 197.8 275.9 197.49 276.83 197.69 277.21 198.19 
M 297.63 182.47 298.04 181.99 298.98 181.86 299.51 182.2 299.1 182.68 298.16 182.81 297.63 182.47 
M 297.88 182.1 298.51 182.11 299.22 182.75 299.3 183.37 298.67 183.36 297.96 182.73 297.88 182.1 
M 311.03 180.79 311.42 181.28 311.38 182.24 310.95 182.7 310.56 182.2 310.6 181.25 311.03 180.79 
M 311.7 181.87 311.08 181.95 310.28 181.43 310.11 180.83 310.73 180.74 311.53 181.26 311.7 181.87 
M 319 174.49 318.4 174.31 317.88 173.51 317.97 172.88 318.58 173.06 319.09 173.86 319 174.49 
M 317.87 174.07 318.28 173.59 319.22 173.44 319.76 173.77 319.35 174.26 318.41 174.41 317.87 174.07 
M 303.76 185.2 304.3 185.51 304.61 186.41 304.38 187 303.83 186.68 303.52 185.78 303.76 185.2 
M 303.41 186.4 303.87 185.97 304.83 185.95 305.31 186.35 304.85 186.78 303.89 186.8 303.41 186.4 
M 286.14 185.6 286.69 185.31 287.62 185.52 287.99 186.02 287.44 186.32 286.51 186.11 286.14 185.6 
M 286.62 186.39 286.84 185.8 287.67 185.34 288.29 185.47 288.07 186.06 287.23 186.52 286.62 186.39 
M 314.17 191.28 313.56 191.11 313.03 190.32 313.11 189.69 313.72 189.86 314.25 190.65 314.17 191.28 
M 313.99 191.12 313.53 190.69 313.44 189.74 313.81 189.23 314.26 189.66 314.35 190.61 313.99 191.12 
M 342.78 98.29 343.24 97.87 344.2 97.84 344.68 98.24 344.22 98.66 343.27 98.69 342.78 98.29 
M 343 98.28 343.6 98.08 344.49 98.43 344.78 98.99 344.18 99.19 343.3 98.84 343 98.28 
M 334.26 107.5 334.79 107.84 335.08 108.75 334.82 109.33 334.29 108.99 334.01 108.08 334.26 107.5 
M 335.12 107.98 334.76 108.49 333.83 108.72 333.27 108.44 333.63 107.92 334.56 107.69 335.12 107.98 
M 343.19 107.95 343.76 107.69 344.68 107.97 345.01 108.5 344.44 108.76 343.52 108.48 343.19 107.95 
M 343.39 108.38 343.94 108.06 344.87 108.25 345.26 108.74 344.71 109.06 343.78 108.87 343.39 108.38 
M 330.21 181.32 330.79 181.06 331.7 181.33 332.04 181.86 331.46 182.12 330.55 181.85 330.21 181.32 
M 330.58 181.11 331.16 181.36 331.56 182.22 331.39 182.83 330.82 182.58 330.41 181.71 330.58 181.11 
M 325.57 115.85 325.9 115.31 326.81 115.02 327.39 115.27 327.06 115.81 326.15 116.1 325.57 115.85 
M 327.17 115.8 326.54 115.78 325.83 115.14 325.76 114.52 326.39 114.53 327.09 115.17 327.17 115.8 
M 320.81 127.91 320.8 127.28 321.42 126.55 322.04 126.45 322.05 127.08 321.43 127.81 320.81 127.91 
M 321.24 127.88 321.21 127.25 321.8 126.5 322.42 126.38 322.45 127.01 321.85 127.76 321.24 127.88 
M 332.69 138.91 333.32 138.92 334.04 139.55 334.12 140.18 333.49 140.17 332.78 139.54 332.69 138.91 
M 333.6 138.84 333.62 139.47 333.03 140.22 332.41 140.34 332.39 139.71 332.98 138.96 333.6 138.84 
M 330.32 130.48 330.94 130.41 331.73 130.95 331.89 131.56 331.26 131.63 330.48 131.09 330.32 130.48 
M 330.39 131.16 330.94 130.86 331.87 131.06 332.25 131.56 331.7 131.86 330.77 131.67 330.39 131.16 
M 354.1 96.83 353.6 96.45 353.4 95.52 353.7 94.97 354.21 95.34 354.41 96.28 354.1 96.83 
M 353.81 96.62 353.7 96 354.18 95.17 354.78 94.97 354.89 95.59 354.41 96.41 353.81 96.62 
M 355.58 101.47 355.74 102.08 355.32 102.93 354.74 103.18 354.58 102.57 355 101.71 355.58 101.47 
M 355.48 102.97 355.04 102.52 354.99 101.57 355.37 101.07 355.81 101.52 355.87 102.47 355.48 102.97 
M 338.02 162.76 337.58 163.22 336.63 163.31 336.12 162.94 336.55 162.49 337.5 162.4 338.02 162.76 
M 337.67 162.45 337.28 162.94 336.34 163.11 335.8 162.78 336.2 162.29 337.13 162.13 337.67 162.45 
M 190.37 188 189.75 188.12 188.93 187.64 188.72 187.05 189.34 186.93 190.17 187.41 190.37 188 
M 190.05 187.01 189.77 187.57 188.89 187.93 188.29 187.73 188.57 187.17 189.46 186.81 190.05 187.01 
M 348.98 99.34 348.97 99.97 348.33 100.67 347.7 100.74 347.72 100.11 348.36 99.41 348.98 99.34 
M 347.67 100.33 348.15 99.91 349.1 99.92 349.58 100.33 349.1 100.74 348.15 100.74 347.67 100.33 
M 337.79 149.7 337.18 149.85 336.33 149.42 336.09 148.83 336.71 148.68 337.56 149.11 337.79 149.7 
M 337.24 148.6 337.17 149.23 336.47 149.88 335.84 149.9 335.91 149.27 336.61 148.62 337.24 148.6 
M 333.49 114.29 333.9 114.77 333.91 115.72 333.49 116.2 333.08 115.72 333.08 114.77 333.49 114.29 
M 334.2 115.39 333.58 115.46 332.79 114.91 332.63 114.3 333.26 114.24 334.04 114.78 334.2 115.39 
M 361.16 93.72 360.59 93.45 360.21 92.58 360.4 91.98 360.97 92.25 361.35 93.12 361.16 93.72 
M 360.79 92.12 360.97 92.73 360.58 93.6 360 93.86 359.82 93.25 360.22 92.39 360.79 92.12 
M 364.72 109.58 365.34 109.65 365.99 110.35 366 110.98 365.38 110.91 364.73 110.21 364.72 109.58 
M 366.08 110.38 365.46 110.49 364.64 110 364.44 109.4 365.06 109.29 365.88 109.78 366.08 110.38 
M 358.94 112.35 358.78 112.96 358 113.51 357.38 113.44 357.53 112.83 358.31 112.28 358.94 112.35 
M 357.93 112.2 358.3 112.72 358.22 113.67 357.76 114.1 357.39 113.59 357.48 112.64 357.93 112.2 
M 351.52 108.96 351.24 108.39 351.47 107.47 351.99 107.11 352.27 107.67 352.04 108.6 351.52 108.96 
M 352.04 108.7 351.63 108.22 351.62 107.27 352.03 106.79 352.45 107.27 352.45 108.22 352.04 108.7 
M 367.73 100.45 368.26 100.78 368.54 101.69 368.29 102.27 367.75 101.93 367.48 101.02 367.73 100.45 
M 367.77 100.67 368.15 101.18 368.08 102.13 367.63 102.57 367.25 102.06 367.33 101.11 367.77 100.67 
M 341.36 130.25 341.15 129.66 341.5 128.77 342.05 128.48 342.26 129.07 341.92 129.96 341.36 130.25 
M 341.05 129.68 341.51 129.25 342.46 129.21 342.96 129.6 342.5 130.03 341.55 130.07 341.05 129.68 
M 360 122.66 359.67 123.2 358.77 123.49 358.19 123.24 358.51 122.7 359.42 122.41 360 122.66 
M 359.21 123.67 358.92 123.1 359.16 122.18 359.68 121.82 359.96 122.39 359.72 123.31 359.21 123.67 
M 349.36 115.69 349.24 115.07 349.71 114.24 350.31 114.03 350.43 114.65 349.95 115.48 349.36 115.69 
M 349.8 114.13 350.02 114.73 349.68 115.62 349.12 115.91 348.91 115.32 349.25 114.43 349.8 114.13 
M 362.55 102.78 361.94 102.63 361.39 101.85 361.45 101.22 362.06 101.37 362.61 102.15 362.55 102.78 
M 361.96 102.72 361.8 102.11 362.22 101.26 362.81 101.02 362.96 101.63 362.54 102.48 361.96 102.72 
M 368.73 117.37 368.72 118 368.1 118.72 367.48 118.81 367.48 118.18 368.1 117.46 368.73 117.37 
M 367.38 118.14 367.96 117.91 368.86 118.23 369.17 118.78 368.58 119.01 367.68 118.69 367.38 118.14 
M 131.17 145.95 131.04 145.92 
M 131.03 145.08 131.22 145.32 131.17 145.95 
M 131.03 145.42 131.25 145.61 131.32 146.24 131.04 146.23 
M 375.03 107.58 374.4 107.52 373.75 106.82 373.73 106.19 374.36 106.26 375.01 106.95 375.03 107.58 
M 373.66 106.94 374.24 106.71 375.14 107.02 375.46 107.56 374.87 107.8 373.97 107.49 373.66 106.94 
M 369.22 94.25 368.59 94.19 368 93.57 
M 369.2 93.86 369.22 94.25 
M 368.6 93.72 368.2 94.24 367.58 94.37 367.54 93.75 367.73 93.5 
M 375.3 97.8 375.09 98.39 374.25 98.85 373.63 98.72 373.85 98.13 374.69 97.67 375.3 97.8 
M 375.13 98.57 374.5 98.49 373.87 97.77 373.86 97.14 374.49 97.23 375.12 97.94 375.13 98.57 
M 344.79 118.12 344.37 118.58 343.42 118.7 342.9 118.34 343.32 117.88 344.27 117.76 344.79 118.12 
M 344.52 117.97 344.03 118.37 343.08 118.32 342.62 117.89 343.12 117.5 344.07 117.54 344.52 117.97 
M 344.03 191.57 344.63 191.38 345.51 191.76 345.78 192.33 345.18 192.52 344.3 192.14 344.03 191.57 
M 345.49 192.38 344.89 192.18 344.41 191.36 344.52 190.74 345.12 190.94 345.6 191.76 345.49 192.38 
M 310.91 120.79 311.2 120.23 312.08 119.87 312.68 120.08 312.39 120.64 311.51 121 310.91 120.79 
M 311.13 120.14 311.76 120.21 312.41 120.9 312.44 121.53 311.81 121.47 311.16 120.77 311.13 120.14 
M 375.85 115.96 375.72 115.34 376.18 114.5 376.77 114.29 376.9 114.9 376.44 115.74 375.85 115.96 
M 375.59 115.18 376.17 114.94 377.07 115.24 377.39 115.79 376.81 116.03 375.91 115.72 375.59 115.18 
M 384.34 107.69 384.48 107.08 385.25 106.52 385.88 106.57 385.74 107.19 384.97 107.75 384.34 107.69 
M 385.74 106.78 385.31 107.24 384.37 107.34 383.85 106.98 384.28 106.52 385.22 106.42 385.74 106.78 
M 353.5 90.51 353.34 90.23 
M 353.74 90.32 353.5 90.51 
M 385.01 99.16 385.58 99.43 385.96 100.31 385.77 100.91 385.2 100.63 384.82 99.76 385.01 99.16 
M 386.11 100.07 385.5 100.23 384.65 99.81 384.41 99.23 385.02 99.07 385.87 99.49 386.11 100.07 
M 346.13 173.89 346.72 173.65 347.62 173.97 347.93 174.52 347.34 174.75 346.44 174.43 346.13 173.89 
M 346.31 174.28 346.88 174.03 347.8 174.3 348.13 174.83 347.56 175.09 346.65 174.82 346.31 174.28 
M 382.78 114.15 382.73 113.52 383.3 112.76 383.92 112.62 383.96 113.25 383.4 114.02 382.78 114.15 
M 383.25 114.11 383.14 113.49 383.63 112.67 384.23 112.47 384.34 113.09 383.85 113.91 383.25 114.11 
M 388.01 125.6 387.4 125.76 386.55 125.33 386.31 124.75 386.92 124.59 387.77 125.02 388.01 125.6 
M 387.62 125.74 387.09 125.39 386.83 124.48 387.09 123.91 387.62 124.25 387.88 125.17 387.62 125.74 
M 377.95 122.38 377.63 121.84 377.81 120.9 378.31 120.51 378.62 121.06 378.44 121.99 377.95 122.38 
M 378.39 120.77 378.35 121.4 377.69 122.08 377.06 122.13 377.1 121.51 377.76 120.82 378.39 120.77 
M 393.38 110.16 393.4 109.53 394.04 108.82 394.67 108.75 394.65 109.38 394.01 110.08 393.38 110.16 
M 393.94 110.17 393.82 109.55 394.29 108.73 394.89 108.52 395.01 109.14 394.54 109.96 393.94 110.17 
M 395.64 118.05 395.74 117.43 396.46 116.81 397.09 116.81 397 117.44 396.27 118.05 395.64 118.05 
M 395.66 117.58 396.21 117.27 397.14 117.46 397.53 117.95 396.98 118.26 396.04 118.08 395.66 117.58 
M 342.14 154.5 342.25 153.88 342.99 153.28 343.62 153.3 343.51 153.92 342.77 154.52 342.14 154.5 
M 342.2 154.15 342.7 153.76 343.65 153.82 344.1 154.26 343.6 154.64 342.65 154.59 342.2 154.15 
M 390.07 133.92 390.07 134.55 389.45 135.27 388.83 135.36 388.82 134.73 389.45 134.01 390.07 133.92 
M 389.84 134.03 389.68 134.64 388.89 135.17 388.26 135.1 388.43 134.49 389.21 133.96 389.84 134.03 
M 396.37 130.64 396.67 130.09 397.56 129.76 398.15 129.98 397.85 130.53 396.96 130.86 396.37 130.64 
M 396.82 129.73 397.34 130.1 397.57 131.02 397.29 131.58 396.77 131.22 396.54 130.3 396.82 129.73 
M 363.66 128.23 363.22 128.68 362.27 128.76 361.76 128.39 362.2 127.94 363.15 127.86 363.66 128.23 
M 362.74 127.59 362.91 128.19 362.5 129.05 361.92 129.3 361.75 128.69 362.16 127.84 362.74 127.59 
M 351.89 141.22 351.28 141.06 350.74 140.28 350.81 139.65 351.42 139.81 351.96 140.59 351.89 141.22 
M 351.18 141.14 351.14 140.51 351.71 139.75 352.32 139.61 352.37 140.24 351.8 141.01 351.18 141.14 
M 364.51 140.64 364.98 141.06 365.1 142.01 364.75 142.53 364.28 142.11 364.16 141.17 364.51 140.64 
M 364.21 141 364.71 141.38 364.92 142.31 364.61 142.86 364.11 142.48 363.91 141.55 364.21 141 
M 381.02 101.85 380.41 101.7 379.86 100.92 379.92 100.29 380.53 100.44 381.08 101.22 381.02 101.85 
M 379.75 101.12 380.33 100.89 381.23 101.2 381.55 101.75 380.96 101.98 380.06 101.67 379.75 101.12 
M 375.78 138.77 376.27 139.17 376.42 140.11 376.1 140.65 375.61 140.24 375.46 139.3 375.78 138.77 
M 376.04 138.99 376.15 139.61 375.65 140.43 375.05 140.62 374.95 140 375.44 139.18 376.04 138.99 
M 331.98 159.6 331.4 159.38 330.94 158.54 331.08 157.92 331.67 158.15 332.12 158.98 331.98 159.6 
M 331.33 158.06 331.68 158.59 331.56 159.53 331.09 159.95 330.74 159.43 330.86 158.48 331.33 158.06 
M 357.47 152.8 358.1 152.87 358.75 153.56 358.78 154.19 358.15 154.13 357.5 153.43 357.47 152.8 
M 357.76 154.12 357.89 153.51 358.66 152.94 359.29 152.99 359.15 153.61 358.38 154.17 357.76 154.12 
M 364.44 158.9 364.47 159.53 363.89 160.29 363.27 160.41 363.24 159.78 363.82 159.03 364.44 158.9 
M 364.43 159.21 364.07 159.73 363.15 159.98 362.59 159.7 362.94 159.18 363.86 158.93 364.43 159.21 
M 353.57 181.23 353.28 181.79 352.39 182.15 351.8 181.94 352.09 181.38 352.97 181.03 353.57 181.23 
M 352.02 181.89 352.49 181.47 353.44 181.45 353.93 181.85 353.46 182.27 352.5 182.29 352.02 181.89 
M 400.59 111.2 399.96 111.17 399.27 110.5 399.22 109.88 399.85 109.91 400.53 110.57 400.59 111.2 
M 399.52 111.16 399.67 110.55 400.45 109.99 401.08 110.05 400.93 110.66 400.15 111.22 399.52 111.16 
M 352.36 161.44 352.36 162.07 351.73 162.79 351.11 162.87 351.11 162.24 351.74 161.52 352.36 161.44 
M 352.37 161.81 351.94 162.26 350.99 162.35 350.47 161.99 350.91 161.53 351.86 161.44 352.37 161.81 
M 347.64 133.66 348.03 134.15 348 135.11 347.56 135.57 347.17 135.07 347.21 134.12 347.64 133.66 
M 348.24 134.27 347.8 134.72 346.85 134.81 346.34 134.44 346.78 133.98 347.73 133.9 348.24 134.27 
M 401.78 145.64 401.92 146.25 401.47 147.09 400.88 147.32 400.74 146.7 401.19 145.86 401.78 145.64 
M 401.1 147.16 401.11 146.53 401.74 145.83 402.37 145.75 402.36 146.38 401.72 147.09 401.1 147.16 
M 385.92 142.17 385.93 142.8 385.32 143.53 384.69 143.63 384.69 142.99 385.3 142.27 385.92 142.17 
M 384.72 142.46 385.32 142.67 385.8 143.49 385.69 144.11 385.09 143.91 384.61 143.08 384.72 142.46 
M 362.09 192.24 362.24 192.07 362.86 191.97 362.86 192.1 
M 362.21 191.97 362.29 192.2 
M 361.63 192.32 362.21 191.97 
M 380.43 177.57 380.41 178.2 379.76 178.9 379.13 178.97 379.16 178.34 379.81 177.64 380.43 177.57 
M 380.32 178.76 379.75 178.5 379.36 177.63 379.54 177.02 380.11 177.29 380.5 178.16 380.32 178.76 
M 385.22 119.47 384.62 119.65 383.74 119.27 383.47 118.7 384.08 118.52 384.95 118.9 385.22 119.47 
M 384.45 119.8 384.18 119.24 384.42 118.32 384.94 117.96 385.22 118.53 384.97 119.45 384.45 119.8 
M 393.99 161.98 393.68 161.43 393.87 160.5 394.37 160.11 394.68 160.66 394.49 161.59 393.99 161.98 
M 394.78 160.63 394.39 161.13 393.46 161.32 392.91 161.01 393.29 160.51 394.23 160.32 394.78 160.63 
M 401.23 164.94 400.64 165.18 399.74 164.87 399.42 164.33 400 164.09 400.91 164.4 401.23 164.94 
M 401.05 164.67 400.44 164.83 399.58 164.41 399.34 163.83 399.95 163.67 400.8 164.09 401.05 164.67 
M 397.51 170.78 396.88 170.71 396.23 170.02 396.2 169.39 396.83 169.45 397.48 170.15 397.51 170.78 
M 396.22 170.44 396.65 169.97 397.6 169.87 398.12 170.23 397.69 170.69 396.74 170.8 396.22 170.44 
M 366.98 169.2 366.44 168.87 366.15 167.97 366.39 167.38 366.93 167.71 367.23 168.62 366.98 169.2 
M 365.96 168.32 366.55 168.1 367.45 168.44 367.75 168.99 367.15 169.21 366.26 168.88 365.96 168.32 
M 295.98 201.86 295.65 201.33 295.79 200.39 296.27 199.98 296.61 200.51 296.46 201.45 295.98 201.86 
M 295.54 201.34 295.91 200.84 296.84 200.63 297.4 200.93 297.02 201.44 296.09 201.64 295.54 201.34 
M 353.58 169.18 353.34 169.76 352.49 170.19 351.88 170.03 352.12 169.45 352.97 169.02 353.58 169.18 
M 352.54 168.9 352.89 169.43 352.75 170.38 352.27 170.79 351.93 170.26 352.07 169.32 352.54 168.9 
M 403.64 172.32 403.44 172.92 402.62 173.4 402 173.29 402.2 172.69 403.02 172.21 403.64 172.32 
M 402.72 173.53 402.61 172.9 403.11 172.09 403.71 171.9 403.81 172.52 403.32 173.33 402.72 173.53 
M 389.85 172.72 390.3 172.27 391.25 172.21 391.75 172.58 391.31 173.03 390.36 173.1 389.85 172.72 
M 390.22 172.22 390.82 172.42 391.3 173.25 391.18 173.87 390.58 173.66 390.1 172.84 390.22 172.22 
M 305.63 146.55 305.27 147.07 304.35 147.31 303.78 147.03 304.14 146.51 305.06 146.27 305.63 146.55 
M 305.4 146.58 304.88 146.94 303.93 146.83 303.51 146.36 304.03 146.01 304.97 146.12 305.4 146.58 
M 347.53 156.61 347.78 156.03 348.64 155.61 349.24 155.78 348.99 156.36 348.14 156.77 347.53 156.61 
M 348.99 155.78 348.6 156.28 347.66 156.46 347.12 156.15 347.5 155.65 348.44 155.47 348.99 155.78 
"/></svg>