<svg xmlns="http://www.w3.org/2000/svg" width="520" height="320"><rect x="0" y="0" width="520" height="320" fill="floralwhite"/><rect x="10" y="10" width="500" height="300" stroke="black" stroke-width="1" fill="none"/><path stroke="black" stroke-width="1" fill="none" stroke-linecap="round" stroke-linejoin="round" d="
M 112.05 110.48 122.63 107.25 133.19 105.27 154.3 103.17 175.4 100.12 185.96 98.99 196.51 98.42 217.62 98.05 238.73 98.3 249.28 98.02 259.83 98.05 270.39 98.74 280.94 99.7 302.05 101.96 312.6 103.73 354.82 112.13 365.37 115.23 375.92 119.69 386.48 130.18 
M 386.48 174.2 375.92 183.3 365.37 186.88 354.82 189.4 333.71 192.77 323.15 194.71 312.6 196.98 302.05 198.88 291.49 199.89 280.94 200.42 259.83 200.98 238.73 200.81 228.17 201.35 217.62 202.2 207.06 202.83 196.51 202.92 185.96 202.23 175.4 200.7 164.85 198.53 154.3 195.96 143.74 193.19 133.19 190.81 122.67 189.28 
M 128.51 177.53 128.51 176.94 
M 116.49 115.76 117.75 112.76 117.75 108.74 
M 130.72 153.15 130.72 151.49 128.07 143 126.38 139.91 
M 131.44 177.81 130.35 177.07 
M 128.04 143.73 128.91 142.17 131.66 133.54 131.66 128.2 128.91 119.56 124.64 111.94 121.31 108.96 
M 121.71 125.56 127.06 124.5 
M 124.08 130.81 127.13 130.78 
M 125.9 137.64 126.55 137.88 
M 130.67 133.62 133.55 132.14 139.4 126.1 143.18 119.26 143.18 115.03 139.4 108.19 136.25 104.94 
M 150.2 154.09 150.2 152.97 147.27 145.4 142.72 138.71 139.18 136.1 
M 135.82 151.15 144.64 150.01 
M 141.83 118.22 142.72 117.77 147.57 112.93 150.69 107.45 150.69 104.06 150.39 103.53 
M 150.08 154.08 154.65 148 157.63 141.03 157.63 136.72 154.65 129.74 150.03 123.59 146.42 121.19 
M 158.36 182.79 158.56 182.1 
M 149.57 104.27 150.84 103.49 
M 156.56 135.63 160.92 130.96 164.24 124.72 164.24 120.86 160.92 114.62 155.77 109.11 151.75 106.96 
M 168.9 155 166.01 148.1 161.54 142.1 158.05 139.75 
M 169.61 184.72 168.62 182.38 
M 160.36 114.6 162.03 112.37 164.46 106.67 164.46 103.14 163.88 101.78 
M 170.37 155.07 173.33 150.53 175.86 143.73 175.86 139.52 173.33 132.71 169.41 126.7 166.34 124.36 
M 170.56 184.87 171.7 182.87 
M 165.4 107.79 169.61 106.44 175.01 102.99 177.79 99.86 
M 174.95 137.81 179.69 132.68 182.87 126.63 182.87 122.89 179.69 116.85 174.77 111.51 170.92 109.43 
M 167.09 121.59 176.82 120.16 
M 166.77 124.31 176.99 125.02 
M 169.82 128.06 176.81 129.52 
M 187.03 155.88 184.11 149.2 179.58 143.41 176.04 141.15 
M 188.04 186.84 186.72 183.82 
M 181.31 119.13 184.92 115.66 187.99 110.47 187.99 107.26 184.92 102.08 182.13 99.4 
M 172.74 105.99 182.56 104.56 
M 173.26 109.25 182.59 109.26 
M 174.04 111.38 182.2 113.1 
M 189.96 156.02 192.65 152.15 195.22 145.66 195.22 141.64 192.65 135.16 188.67 129.43 185.56 127.2 
M 182.51 140.65 190.38 138.63 
M 182.44 143.4 190.85 143.59 
M 182.52 147.04 190.48 148.59 
M 188.77 186.88 191.37 183.14 
M 189.37 113.67 193.95 112.45 199.81 109.34 203.59 105.81 203.59 103.63 199.81 100.11 196.62 98.42 
M 194.3 142.26 196.47 141.24 201.7 136.34 205.07 130.8 205.07 127.36 201.7 121.82 196.47 116.92 192.39 115.01 
M 206.29 156.81 204.02 152.14 199.35 146.66 195.7 144.52 
M 195.97 156.31 201.71 155.25 
M 206.28 187.14 204.68 183.75 204.22 183.2 
M 200.6 187.2 202.17 186.83 
M 202.61 106.33 206.34 105.6 211.12 103.71 214.2 101.57 214.2 100.24 211.14 98.11 
M 203.87 127.52 205.33 126.91 210.17 122.87 213.28 118.3 213.28 115.47 210.17 110.91 205.33 106.87 203.19 105.98 
M 211.14 157.05 212.86 154.7 215.35 148.75 215.35 145.07 212.86 139.12 209 133.86 205.99 131.81 
M 211.23 186.91 212.73 184.83 213.36 183.29 
M 212.67 119.32 216.71 118.17 221.88 115.24 225.21 111.92 225.21 109.87 221.88 106.55 216.71 103.62 213.1 102.6 
M 214.46 145.81 217.52 144.4 222.37 139.91 225.5 134.84 225.5 131.7 222.37 126.62 217.52 122.14 213.73 120.39 
M 224.23 157.68 222.72 154.57 218.31 149.41 214.86 147.4 
M 223.2 186.21 222.6 184.95 219.72 181.5 
M 224.02 109.86 226.05 109.31 229.71 107.29 232.07 105.01 232.07 103.6 229.71 101.32 226.05 99.31 223.19 98.52 
M 224.38 131.84 226.4 130.88 230.37 127.09 232.94 122.81 232.94 120.15 230.37 115.87 226.4 112.08 224.02 110.95 
M 228.24 157.87 230.33 154.99 232.6 149.49 232.6 146.09 230.33 140.59 226.82 135.73 224.38 134.05 
M 221 144.83 228.51 143.71 
M 221.51 148.13 228.57 148.23 
M 221.87 150.47 228.11 152.21 
M 229.17 185.83 229.72 185.01 231.73 179.76 
M 224.02 180.58 228.31 181.45 
M 232.02 121.13 234.95 120.1 239.17 117.11 241.89 113.73 241.89 111.64 239.17 108.26 234.95 105.28 231.65 104.12 
M 228.47 110.54 237.04 109.66 
M 228.22 112.51 236.97 112.54 
M 228.91 114.89 237.09 115.4 
M 232.42 147.27 235.72 145.57 239.94 141.21 242.66 136.28 242.66 133.23 239.94 128.3 235.72 123.95 232.42 122.25 
M 241.39 158.51 239.86 155.2 235.74 150.16 232.53 148.19 
M 239.97 185.44 235.74 180.22 234.95 179.74 
M 239.91 109.1 241.49 108.52 244.55 106.29 246.52 103.77 246.52 102.21 244.55 99.68 242.51 98.2 
M 241.68 132.81 243.65 131.68 247.02 127.77 249.19 123.35 249.19 120.61 247.02 116.18 243.65 112.28 241.01 110.75 
M 244.59 158.67 247.01 155 249.08 149.49 249.08 146.08 247.01 140.57 243.8 135.7 241.68 134.1 
M 247.57 185.45 249.71 179.75 249.71 176.56 
M 238.82 180.69 245.9 182.72 
M 248.42 120.25 250.75 119.3 254.63 116.17 257.12 112.63 257.12 110.43 254.63 106.89 250.75 103.76 247.73 102.53 
M 248.91 146.72 251.94 145 255.82 140.58 258.33 135.57 258.33 132.47 255.82 127.47 251.94 123.05 248.91 121.33 
M 249.26 176.91 249.92 176.48 
M 258.34 159.33 256.26 154.59 252.33 149.47 249.26 147.47 
M 257.18 185.52 253 180.22 249.81 178.23 
M 254.3 106.96 256.12 106.27 259.33 103.84 261.39 101.09 261.39 99.39 260.42 98.09 
M 250.75 98.97 257.33 98.51 
M 251.02 99.85 257.27 100.32 
M 251.64 101.38 257.19 102 
M 257.43 132.14 259.74 130.74 263.01 126.78 265.12 122.3 265.12 119.53 263.01 115.04 259.74 111.08 257.18 109.54 
M 254.89 118.51 260.94 117.93 
M 254.4 120.59 261.32 121.35 
M 254.42 123.13 260.87 124.17 
M 257.89 158.25 258.58 157.69 261.66 152.75 263.64 147.15 263.64 143.69 261.66 138.09 258.58 133.14 257.43 132.22 
M 264.31 185.49 266.4 179.54 266.4 175.73 265.44 172.99 
M 258.95 173.91 261.37 173.48 
M 255.53 177.68 262.91 177.89 
M 255.29 181.17 262.92 182.25 
M 264.36 119.33 267.17 118.27 271.32 115.14 273.99 111.59 273.99 109.4 271.32 105.86 267.17 102.72 263.93 101.5 
M 264.79 145.36 267.94 143.63 271.98 139.21 274.58 134.21 274.58 131.11 271.98 126.11 267.94 121.69 264.79 119.97 
M 261.77 129.96 269.6 128.88 
M 261.5 132.37 269.76 132.93 
M 261.36 135.24 269.42 136.69 
M 265.63 175.88 268.53 174.01 269.55 172.71 
M 275.21 160.15 275.21 159.23 272.59 153.32 268.53 148.1 265.36 146.06 
M 274.12 185.39 273.87 184.83 269.83 179.65 266.68 177.63 
M 272.2 106.84 274.15 106.26 278.09 103.94 280.63 101.3 280.62 99.67 
M 268.36 98.95 271.18 98.81 
M 268.51 100.38 275.84 100.51 
M 267.91 102.08 276.07 102.24 
M 273.85 131.29 276.52 129.8 279.93 126 282.13 121.69 282.13 119.02 279.93 114.71 276.52 110.9 273.85 109.42 
M 270.91 118.2 278.02 116.98 
M 271.32 119.97 278.37 119.95 
M 271.32 122.35 278.22 123.81 
M 274.27 156.67 274.84 156.29 278.52 151.33 280.9 145.7 280.9 142.22 278.52 136.6 274.84 131.63 273.65 130.83 
M 281.18 185.31 283.35 179.15 283.35 175.28 281.14 169.02 280.56 168.08 
M 272.3 173.58 279.67 172.23 
M 272.14 177.16 279.79 176.91 
M 272.82 180.02 279.4 181.87 
M 282.29 120.09 285.77 118.94 290.24 116.01 293.11 112.68 293.11 110.62 290.24 107.3 285.77 104.36 282.29 103.22 
M 282.53 145.71 285.94 144.01 290.3 139.65 293.11 134.72 293.11 131.66 290.3 126.73 285.94 122.37 282.53 120.67 
M 279.31 130.89 287.82 129.29 
M 279.4 133.23 287.9 133.62 
M 279.03 135.37 287.91 136.65 
M 283.11 176.37 286.47 174.36 290.78 169.22 293.53 163.45 
M 293.56 161.04 293.56 159.79 290.78 153.96 286.47 148.82 283.11 146.81 
M 290.92 185.04 286.74 179.57 283.61 177.59 
M 292.73 110.42 295.79 109.68 299.7 107.79 302.23 105.65 302.23 104.32 299.7 102.18 298.41 101.55 
M 289.9 104.11 297.44 103.62 
M 289.48 105.08 297.36 105.41 
M 290.14 106.43 297.24 106.45 
M 292.11 131.16 294.31 130.02 297.92 126.31 300.25 122.09 300.25 119.49 297.92 115.27 294.31 111.55 292.08 110.4 
M 294.04 161.07 295.81 159.92 299.65 154.98 302.12 149.39 302.12 145.92 299.65 140.33 295.81 135.39 292.82 133.46 
M 298.92 184.55 300.89 179.34 300.89 175.73 298.69 169.9 295.26 164.75 293.53 163.45 
M 301.07 121.38 304.41 120.28 308.69 117.44 311.45 114.23 311.45 112.24 308.69 109.03 304.41 106.2 301.32 105.17 
M 301.24 146.89 304.48 145.26 308.75 140.97 311.5 136.11 311.5 133.1 308.75 128.24 304.48 123.94 301.14 122.27 
M 301.27 176.8 304.5 174.86 308.64 169.9 311.31 164.28 311.31 160.8 308.64 155.19 304.5 150.22 301.27 148.29 
M 298.07 159.89 306.15 158.21 
M 298.34 162.73 306.16 162.09 
M 298.13 165.79 306.49 166.78 
M 306.58 183.76 303.19 179.43 300.21 177.52 
M 310.47 110.65 312.6 110.01 315.94 108.01 318.1 105.73 318.1 104.85 
M 307.16 104 312.04 103.64 
M 307.82 104.78 314.5 104.8 
M 307.17 106.35 313.83 106.3 
M 310.52 132.59 312.72 131.39 316.12 127.67 318.32 123.45 318.32 120.84 316.12 116.63 312.72 112.9 310.47 111.68 
M 310.35 161.46 312.84 159.7 316.23 154.92 318.41 149.49 318.41 146.14 316.23 140.71 312.84 135.93 310.52 134.28 
M 315.81 182.5 317.1 178.91 317.1 175.43 315.07 169.8 311.92 164.83 310.35 163.6 
M 307.33 174.33 313.59 172.61 
M 307.08 176.9 313.23 177.19 
M 306.64 180.28 313.83 181.24 
M 317.99 121.14 321.02 120.03 324.89 117.17 327.38 113.94 327.38 111.94 324.89 108.71 321.02 105.85 318.52 104.93 
M 318.18 146.62 321.2 144.96 325.07 140.72 327.56 135.91 327.56 132.93 325.07 128.12 321.2 123.88 318.18 122.22 
M 317.64 175.5 320.57 173.62 324.31 168.82 326.73 163.37 326.73 160 324.31 154.56 320.57 149.75 317.64 147.87 
M 315.01 159.08 322.28 157.78 
M 314.52 161.24 322.01 161.65 
M 314.69 164.26 322.78 165.62 
M 321.21 181.68 318.21 177.71 316.38 176.49 
M 326.31 109.66 328.78 108.91 331.1 107.49 
M 326.67 130.6 327.95 129.79 330.94 126.04 332.87 121.78 332.87 119.15 330.94 114.89 327.95 111.14 326.49 110.22 
M 326.86 160.81 329.29 158.97 332.4 154.25 334.4 148.91 334.4 145.6 332.4 140.26 329.29 135.54 326.86 133.7 
M 329.44 180.59 330.95 176.17 330.95 172.84 329.11 167.45 326.27 162.7 325.87 162.36 
M 321.68 171.7 327.85 170.69 
M 321.69 174.65 327.68 174.8 
M 321.93 177.51 327.39 178.83 
M 333.29 119.02 336.09 117.93 339.66 115.13 341.97 111.97 341.97 110.01 341.57 109.47 
M 333.68 144.14 336.05 142.72 339.56 138.52 341.82 133.77 341.82 130.82 339.56 126.07 336.05 121.87 333.31 120.23 
M 330.35 129.47 337.96 128.5 
M 330.69 132.14 337.59 131.91 
M 330.45 134.52 337.77 135.55 
M 332.29 172.74 334.96 170.89 338.36 166.13 340.56 160.75 340.56 157.41 338.36 152.03 334.96 147.27 333.68 146.39 
M 336.23 179.8 332.56 174.61 330.29 173.05 
M 340.3 127.38 341.91 126.35 344.8 122.68 346.67 118.52 346.67 115.94 344.8 111.78 343.22 109.77 
M 339.62 114.87 343.23 113.83 
M 337.88 117.36 342.84 116.93 
M 337.87 119.19 343.23 120.83 
M 341.11 157.59 343.23 155.78 345.94 151.13 347.69 145.86 347.69 142.6 345.94 137.34 343.23 132.69 341.11 130.87 
M 339.12 141.62 344.6 140.65 
M 338.82 144.32 344.06 144.17 
M 338.74 147.32 344.52 147.84 
M 341.01 179.31 341.96 177.59 343.7 172.05 343.7 168.61 341.96 163.07 339.77 159.1 
M 347.42 115.73 350.35 114.66 354.03 111.97 
M 347.06 140 349.63 138.58 353.32 134.5 355.7 129.88 355.7 127.03 353.32 122.41 349.63 118.33 346.75 116.74 
M 345 168.41 347.79 166.52 351.36 161.68 353.66 156.2 353.66 152.81 351.36 147.32 347.79 142.48 347.06 141.99 
M 345.87 150.76 349.59 150.03 
M 343.83 154.2 349.17 154.76 
M 342.75 157.71 349.65 158.92 
M 351.69 178.16 350.85 176.08 347.13 170.86 344.22 168.83 
M 354.61 124.24 356.81 123.13 360.3 119.61 362.55 115.63 362.55 114.4 
M 352.83 150.32 354.66 149.05 357.86 144.58 359.93 139.53 359.93 136.4 357.86 131.35 354.85 127.16 
M 352.6 178.06 355.43 173.42 357.55 167.35 357.55 163.6 355.43 157.53 352.83 153.28 
M 364.05 115.26 364.73 115.04 
M 363.02 138.94 366.3 137.38 370.5 133.4 373.21 128.89 373.21 126.1 370.5 121.59 366.3 117.6 363.02 116.05 
M 360.59 166.69 363.8 164.81 367.9 159.99 370.55 154.54 370.55 151.16 367.9 145.7 363.8 140.88 360.59 139 
M 357.3 150.45 365.4 149.13 
M 357.59 153.16 365.9 152.86 
M 357.47 155.94 365.52 156.76 
M 367.95 175.55 367.62 174.81 363.5 169.53 360.29 167.47 
M 374.28 127.63 377.24 126.25 379.96 123.7 
M 371.22 119.06 376.11 119.87 
M 371.56 152.84 374.31 151.12 377.83 146.71 380.1 141.73 380.1 138.64 377.83 133.66 374.31 129.25 372.24 127.96 
M 376.33 173.53 377.99 169.53 377.99 165.99 375.61 160.27 371.93 155.22 369.6 153.62 
M 366.63 165.07 373.55 162.99 
M 366.18 168.02 373.83 167.81 
M 365.92 170.29 373.78 172.33 
M 381.28 138.63 384.59 137.26 386.48 135.71 
M 378.61 164.81 381.9 163.3 386.11 159.41 386.48 158.82 
M 386.48 148.48 386.48 148.48 
M 378.89 172.03 378.38 171.79 
M 126.93 185.73 128.51 180.01 128.51 177.53 
M 137.6 187.46 136.1 183.85 131.95 178.17 131.44 177.81 
M 141.41 188.25 142.15 186.63 143.92 179.87 
M 155.06 191.49 155.06 189.84 152.56 183.53 
M 143.49 188.68 150.76 186.7 
M 154.15 190.94 154.91 190.19 157.97 184.14 158.36 182.79 
M 170.47 194.74 171.28 192.73 171.28 188.83 169.61 184.72 
M 170.31 185.31 170.56 184.87 
M 175.68 195.7 174.94 194.56 172.26 192.47 
M 186.66 197.11 188.75 192.32 188.75 188.47 188.04 186.84 
M 182.13 99.4 182.13 99.4 
M 193.96 197.55 192.2 194.86 189.52 192.81 
M 196.62 98.42 196.62 98.42 
M 193.18 194.67 202.77 196.19 
M 206.49 191.81 208.91 190.14 211.23 186.91 
M 210.63 197.39 209.47 195.72 206.79 193.79 
M 227.01 196.28 226.59 195.67 224.37 194.09 
M 242.02 195.7 242.57 194.53 242.57 190.99 239.97 185.44 
M 242.51 98.2 242.51 98.2 
M 241.61 192.75 244.02 190.93 247.57 185.45 
M 259.17 195.82 259.71 194.64 259.71 191.07 257.18 185.52 
M 246.86 190.02 255.17 188.92 
M 247.17 192.84 254.88 193.08 
M 260.96 195.81 258.77 194.23 
M 275.94 195.5 276.47 194.32 276.47 190.69 274.12 185.39 
M 263.91 195.53 264.73 195.74 
M 277.85 195.46 277.63 195.14 275.54 193.6 
M 292.97 194.81 293.33 194 293.33 190.43 290.92 185.04 
M 280.64 189 288.47 187.81 
M 280.37 192.61 289.02 192.39 
M 280.69 194.86 283.15 195.29 
M 294.01 194.72 292.41 193.52 
M 309.48 192.82 309.48 189.87 307.02 184.32 306.58 183.76 
M 308.93 192.91 308.6 192.65 
M 318.52 104.93 318.52 104.93 
M 324.12 190.11 324.12 187.86 321.81 182.47 321.21 181.68 
M 324.05 188.17 326.27 186.31 329.11 181.56 329.44 180.59 
M 343.22 109.77 343.22 109.77 
M 341.57 183.94 349.32 183.8 
M 341.31 186.99 342.79 187.3 
M 352.27 178.59 352.6 178.06 
M 355.47 185.4 353.19 183.46 
M 370.28 181.82 370.28 180.79 367.95 175.55 
M 357.37 179.2 365.22 178.25 
M 357.6 182.26 365.62 182.76 
M 379.96 123.7 379.96 123.7 
M 376.11 119.87 376.11 119.87 
M 369.33 182.08 371.93 180.29 375.61 175.24 376.33 173.53 
M 142.1 104.01 143.75 104.15 
M 155.75 102.6 159.49 68.76 160.4 68.83 159.05 102.48 
M 169.33 100.63 173.94 56.68 174.85 56.75 172.63 100.52 
M 182.97 98.92 190.2 53.05 191.11 53.16 186.27 98.98 
M 196.68 98.06 208.14 44.68 209.04 44.86 199.98 98.33 
M 210.42 97.73 223.12 48.49 224.01 48.7 213.71 98.09 
M 224.15 97.76 236.95 52.87 237.84 53.1 227.43 98.19 
M 237.87 97.87 251.94 47.67 252.83 47.9 241.16 98.24 
M 251.6 97.59 266.54 48.66 267.43 48.91 254.88 98.04 
M 265.34 97.97 279.42 60.98 280.29 61.28 268.59 98.62 
M 279.04 99.06 291.81 70.08 292.66 70.42 282.26 99.83 
M 292.71 100.44 302.43 80.53 303.28 80.89 295.9 101.27 
M 300.54 101.3 302.05 101.96 
M 144.39 104.09 148.67 97.57 150.69 94.18 152.53 90.71 154.17 87.15 156.9 79.76 159.12 72.14 
M 160.27 72.23 163.96 70.65 167.3 68.65 168.77 67.41 170.09 66 171.3 64.45 173.48 61.07 
M 174.62 61.16 178.2 61.52 181.64 61.35 183.29 60.96 184.89 60.35 186.45 59.56 189.48 57.63 
M 190.62 57.78 194.76 57.12 196.76 56.63 198.67 55.96 200.49 55.1 203.86 52.81 207 50.02 
M 208.13 50.24 210.91 52.09 213.82 53.41 215.35 53.76 216.92 53.9 218.54 53.85 221.85 53.41 
M 222.97 53.68 225.47 55.62 226.76 56.43 228.11 57.04 229.52 57.45 232.52 57.67 235.67 57.36 
M 236.79 57.65 240.24 57.65 243.51 57.14 245.04 56.59 246.49 55.84 247.88 54.9 250.54 52.69 
M 251.65 52.98 254.58 54.28 256.05 54.75 257.53 55.04 259.02 55.1 262.02 54.6 265.05 53.56 
M 266.16 53.87 268 57.14 270.21 60 271.53 61.2 273 62.24 274.59 63.14 278.02 64.68 
M 279.1 65.05 280.97 67.78 283.16 70.06 284.42 70.94 285.82 71.64 287.32 72.19 290.53 72.98 
M 291.6 73.41 292.99 76.29 293.81 77.61 294.76 78.78 295.86 79.79 298.47 81.36 301.46 82.52 
M 302.52 82.97 301.13 87.08 300.28 91.21 300.17 93.3 300.27 95.39 300.57 97.5 301.52 101.73 
M 162.14 71.47 165.69 69.72 167.3 68.65 168.77 67.41 170.09 66 172.41 62.79 
M 162.61 78.53 165.34 77.19 167.7 75.42 168.71 74.34 170.49 71.88 
M 163.09 85.6 165.84 84.09 167.33 82.68 168.57 80.97 
M 176.42 61.38 179.94 61.53 181.64 61.35 183.29 60.96 184.89 60.35 187.97 58.63 
M 176.66 68.13 179.56 68.25 180.97 68.1 183.65 67.28 186.19 65.86 
M 176.9 74.88 179.19 74.97 181.37 74.6 182.41 74.21 184.41 73.09 
M 177.14 81.63 179.62 81.61 181.16 81.14 182.62 80.32 
M 192.71 57.49 196.76 56.63 198.67 55.96 200.49 55.1 202.22 54.04 205.45 51.45 
M 192.53 63.26 196.02 62.53 197.66 61.95 200.71 60.3 203.49 58.07 
M 192.36 69.04 195.27 68.42 196.65 67.94 199.2 66.56 201.53 64.7 
M 192.18 74.82 194.53 74.32 196.69 73.44 199.57 71.32 
M 192 80.6 194.63 79.93 196.19 79.08 197.61 77.94 
M 209.51 51.2 212.35 52.84 213.82 53.41 215.35 53.76 216.92 53.9 220.19 53.67 
M 208.9 57.79 211.34 59.2 212.61 59.68 215.27 60.11 218.08 59.91 
M 208.29 64.37 210.33 65.55 211.4 65.96 213.63 66.31 215.98 66.15 
M 207.68 70.96 210.18 72.24 211.98 72.52 213.88 72.39 
M 207.07 77.54 208.97 78.51 210.33 78.73 211.77 78.63 
M 224.21 54.69 226.76 56.43 228.11 57.04 229.52 57.45 231 57.65 234.08 57.55 
M 223.46 60.77 225.66 62.27 226.82 62.8 229.3 63.32 231.96 63.23 
M 222.72 66.85 224.56 68.1 226.54 68.84 227.6 68.99 229.83 68.92 
M 221.97 72.93 223.45 73.94 225.05 74.54 227.7 74.6 
M 221.23 79.02 222.94 80.06 224.21 80.32 225.57 80.28 
M 238.53 57.69 241.91 57.49 243.51 57.14 245.04 56.59 246.49 55.84 249.22 53.83 
M 237.7 63.36 240.6 63.19 241.98 62.89 244.55 61.77 246.89 60.05 
M 236.87 69.04 239.3 68.89 240.45 68.64 242.6 67.7 244.57 66.26 
M 236.04 74.71 238.93 74.4 240.66 73.64 242.24 72.48 
M 235.21 80.39 237.4 80.15 238.71 79.57 239.91 78.69 
M 253.11 53.67 256.05 54.75 257.53 55.04 259.02 55.1 260.52 54.95 263.53 54.12 
M 252.16 59.9 254.69 60.83 255.96 61.07 258.53 61 261.12 60.28 
M 251.21 66.12 253.33 66.91 255.46 67.16 256.54 67.04 258.72 66.45 
M 250.26 72.35 251.97 72.98 253.69 73.18 256.31 72.61 
M 249.31 78.58 251.25 79.18 252.57 79.14 253.9 78.78 
M 267.06 55.53 269.04 58.64 270.21 60 271.53 61.2 273 62.24 276.28 63.94 
M 265.83 63.01 267.47 65.58 268.43 66.7 270.73 68.55 273.44 69.95 
M 264.6 70.49 265.89 72.51 266.65 73.4 268.46 74.85 270.59 75.95 
M 263.37 77.97 264.87 80.09 266.2 81.16 267.75 81.96 
M 280.02 66.45 282.01 69 283.16 70.06 284.42 70.94 285.82 71.64 288.9 72.61 
M 278.55 74.06 280.08 76.02 280.96 76.83 283 78.04 285.36 78.79 
M 277.09 81.68 278.76 83.6 280.18 84.45 281.83 84.97 
M 292.27 74.88 293.81 77.61 294.76 78.78 295.86 79.79 297.1 80.65 299.94 81.97 
M 290.57 83.8 291.57 85.58 292.18 86.34 293.7 87.55 295.55 88.41 
M 127.01 151.35 325.69 161.5 325.65 162.42 127.01 154.51 
M 126.93 155.64 291.72 173.28 291.63 174.19 126.59 158.76 
M 126.47 159.87 257.58 181.4 257.44 182.3 126.11 162.96 
M 126.11 164.09 223.58 185.86 223.39 186.76 126.42 167.28 
M 126.46 168.5 190.02 186.7 189.78 187.59 126.44 171.54 
M 126.47 172.94 157.18 183.98 156.89 184.85 126.56 175.77 
M 304.61 161.58 297.47 162.64 290.5 164.23 287.11 165.32 283.79 166.62 280.52 168.1 274.1 171.4 
M 273.98 172.55 266.94 172.84 263.46 173.17 260.01 173.68 256.61 174.41 249.94 176.47 243.39 179.07 
M 243.21 180.21 236.33 179.76 232.9 179.72 229.5 179.86 226.12 180.22 219.43 181.56 212.8 183.45 
M 212.56 184.58 205.9 183.4 202.57 183 199.24 182.78 195.91 182.78 189.26 183.4 182.6 184.58 
M 182.3 185.69 175.92 183.81 169.49 182.48 166.24 182.12 162.97 181.99 159.68 182.04 153.05 182.49 
M 152.69 183.59 146.68 180.92 140.54 178.79 137.4 178.03 134.21 177.48 126.5 176.83 
M 301.03 162.07 293.96 163.34 290.5 164.23 287.11 165.32 283.79 166.62 277.3 169.71 
M 275.04 160.98 268.96 162.07 263.07 163.77 260.21 164.88 254.63 167.54 
M 249.05 159.88 243.95 160.79 241.47 161.43 236.63 163.15 231.96 165.38 
M 223.06 158.78 218.95 159.52 214.98 160.66 213.05 161.41 209.29 163.21 
M 197.07 157.68 192.43 158.63 189.48 159.68 186.62 161.04 
M 270.45 172.66 263.46 173.17 260.01 173.68 256.61 174.41 253.26 175.35 246.66 177.73 
M 243.32 170.07 237.54 170.5 231.89 171.52 229.13 172.29 223.68 174.26 
M 216.18 167.49 211.63 167.82 207.18 168.63 205 169.24 200.71 170.79 
M 189.04 164.9 185.71 165.15 182.46 165.74 177.73 167.32 
M 239.76 179.95 232.9 179.72 229.5 179.86 226.12 180.22 222.77 180.8 216.11 182.47 
M 210.74 175.65 205.48 175.48 202.87 175.59 197.71 176.31 192.61 177.59 
M 181.72 171.36 178.06 171.24 174.44 171.51 169.1 172.71 
M 209.23 183.96 202.57 183 199.24 182.78 195.91 182.78 192.58 183 185.93 183.95 
M 176.38 177.39 172.05 176.77 169.89 176.63 165.56 176.77 161.23 177.39 
M 179.11 184.71 172.72 183.05 169.49 182.48 166.24 182.12 162.97 181.99 156.37 182.23 
M 154.3 195.96 157.18 199.06 160.65 204.38 162.36 207.53 166.86 212.63 168.16 214.54 170.23 217.13 174.86 221.76 176.77 224.2 177.74 226.53 179.48 228.22 176.84 235.66 175.25 241.34 173.39 243.26 172.54 246.18 169.43 250.82 168.19 253.46 165.94 255.08 163.97 256.98 161.86 258.73 159.93 261.98 152.95 265.31 152.94 263.21 152.5 261.08 149.56 256.75 149.38 254.58 150.78 252.43 150.8 249.07 150.51 245.72 150.57 243.42 149.87 240.63 149.91 237.62 149.18 234.78 148.2 228.72 148.18 223.1 147.25 220.59 146.89 217.8 147.08 214.66 146.33 212.57 145.88 209.65 146.01 202.69 145.62 199.49 143.74 193.19 
M 152.53 195.5 155.2 198.52 158.42 203.76 161.47 210.42 163.59 213.17 167.44 217.04 
M 150.76 195.03 153.13 198.29 155.69 203.26 157.54 206.01 158.7 209.09 161.81 215.56 162.53 217.78 164.42 219.9 164.99 222.84 166.54 225.32 168.34 227.43 169.68 230.58 171.43 233.55 
M 148.99 194.57 150.91 197.78 153.71 203.27 154.72 206.06 156.28 208.25 158.63 218.83 159.6 221.29 160.99 223.9 162.64 226.37 163.84 228.78 167.1 236.5 167.9 239.46 169.09 241.86 
M 147.22 194.1 148.89 197.47 151.48 203.35 151.68 206.68 152.65 209.56 153.27 212.82 154.15 216.05 154.81 219.25 158.95 226.82 159.94 229.93 160.31 232.84 160.47 236.28 
M 145.45 193.64 148.01 199.97 148.59 203.17 149.02 206.78 149.03 209.97 149.58 213.14 150.48 215.77 150.87 218.98 151.66 222.01 153.06 224.34 154.03 226.81 154.53 229.83 155.25 232.39 155.04 238.18 155.47 240.98 
M 345.65 190.28 351.66 201.93 350.89 202.42 342.87 192.05 
M 332.08 192.41 354.87 228.63 354.11 229.14 329.34 194.24 
M 318.6 195.04 344.06 233.62 343.31 234.14 315.9 196.92 
M 305.16 197.69 329.61 238.39 328.83 238.88 302.38 199.45 
M 291.56 199.17 306.92 229.77 306.12 230.2 288.67 200.75 
M 282.4 199.66 287.36 211.8 286.55 212.23 279.48 201.18 
M 350.09 201.39 349.48 206.76 349.41 212.07 349.69 214.7 350.18 217.3 350.87 219.88 352.59 225.01 
M 351.63 225.65 348.94 225.47 346.46 225.81 345.33 226.26 344.29 226.92 343.32 227.76 341.52 229.76 
M 340.57 230.42 337.26 230.16 334.11 230.42 332.62 230.86 331.19 231.5 329.81 232.32 327.16 234.32 
M 326.19 234.94 322 232.01 319.84 230.72 317.61 229.6 315.3 228.69 310.44 227.44 305.39 226.71 
M 304.38 227.26 301.29 222.7 297.83 218.55 295.89 216.69 293.79 215 291.56 213.44 286.86 210.59 
M 349.74 204.08 349.35 209.43 349.41 212.07 349.69 214.7 350.18 217.3 351.69 222.45 
M 350.27 225.53 347.66 225.55 346.46 225.81 345.33 226.26 344.29 226.92 342.41 228.72 
M 345.67 220.12 343.52 220.14 342.52 220.35 340.74 221.27 339.18 222.76 
M 341.07 214.72 339.37 214.74 338.59 214.9 337.18 215.63 335.96 216.8 
M 336.47 209.32 334.66 209.45 333.63 209.98 332.73 210.84 
M 338.91 230.25 335.66 230.2 334.11 230.42 332.62 230.86 331.19 231.5 328.48 233.29 
M 334.93 225.64 332.14 225.59 330.81 225.78 328.29 226.71 325.96 228.24 
M 330.96 221.02 328.62 220.98 327.5 221.14 325.4 221.92 323.45 223.2 
M 326.98 216.4 324.2 216.5 322.5 217.12 320.93 218.16 
M 323 211.79 321.58 211.76 320.24 212.05 318.42 213.12 
M 324.11 233.44 319.84 230.72 317.61 229.6 315.3 228.69 312.9 227.98 307.93 227.04 
M 317.77 225.47 314.5 223.38 311.01 221.82 309.18 221.28 305.37 220.56 
M 311.43 217.49 309.15 216.04 306.73 214.96 302.8 214.08 
M 302.86 224.95 299.63 220.56 297.83 218.55 295.89 216.69 293.79 215 289.24 211.99 
M 386.48 130.18 389.36 129.15 394.68 125.97 399.43 123.39 404.32 121.23 406.48 119.77 408.28 118.12 410.85 116.52 415.59 113.97 417.85 112.04 428.46 105.68 430.97 104.63 435.08 101.97 436.53 101.91 441.86 99.98 443.82 98.28 447.39 96.17 453.19 91.12 455.22 90.79 459.7 88.77 461.76 86.05 464.11 85.3 476.79 86.97 488.89 96.05 490 99.68 489.29 104.51 489.32 110.33 487.78 116.29 486.45 118.72 484.6 120.62 483.31 123.09 481.69 125.32 477.41 128.8 474.54 129.8 472.31 131.45 471.19 134.19 469.61 136.45 468.32 139 464.93 143.31 463.03 145.26 462.75 148.28 462.78 151.2 462.18 153.5 461.39 155.6 463.76 161.72 464.27 163.99 470.86 173.05 471.89 174.88 473.66 177.45 481.87 187.19 483.47 189.46 484.23 194.33 486.31 202.58 486.69 205.39 485.67 207.82 483.88 209.48 482.42 211.48 480.66 213.43 479.16 215.8 478.16 218.67 476.65 221.03 474.22 222.8 462.18 226.97 460.82 225.73 459.04 224.42 455.95 223.86 454.25 223.07 450.76 220.89 448.85 219.17 448.49 216.9 446.61 214.58 442.67 213.23 440.14 211.51 436.34 210.59 429.8 205.16 427.78 204.14 424.34 203.28 421.66 201.66 419.41 199.81 413.46 193.41 408.89 189.6 406.81 188.29 402.54 184.15 399.39 182.98 396.84 181.6 394.18 180.65 391.72 178.88 386.48 174.2 
M 386.48 133.36 389.4 132.51 392.23 131.03 394.8 129.89 397.37 129.06 400.1 127.64 402.9 126.87 405.45 125.4 408 124.6 410.07 123.2 414.67 120.48 419.3 117.32 421.92 115.79 424.18 115.1 427.16 113.34 430.24 112.97 433.44 111.64 435.27 111.09 436.75 109.68 438.32 107.78 440.28 106.66 447.29 104.44 450.06 104.21 452.55 103.5 454.53 101.23 457.51 98.36 459.07 96.46 466.36 96.35 469.73 95.37 472.1 92.77 
M 392.42 134.77 395.06 133.55 400.74 131.66 403.55 130.91 405.83 129.9 408.59 129.79 414.11 127.88 416.65 126.39 419.96 124.84 422.67 123.34 425.78 121.08 428.52 120.25 430.99 118.84 434.12 118.48 436.95 117.82 439 115.94 440.84 115.01 443.42 114.41 446.23 113.17 449.08 111.58 453.97 111.04 457.27 108.5 
M 386.48 139.72 389.81 139.45 392.83 138.6 398.27 136.48 401.11 135.81 404.07 134.79 409.42 133.8 414.64 132.6 417.13 131.27 421.04 130.96 424.02 130.08 426.91 127.5 428.76 126.52 432.04 125.64 436.24 124.01 439.6 123.88 441.92 124.05 443.63 122.71 446.14 121.95 452.5 121.81 454.57 121.18 457.9 120.99 460.48 120.02 465.24 117.38 467.49 116.72 469.65 115.58 471.96 113.53 476.24 111.98 479.11 111.96 
M 396.32 142.17 399.16 141.13 402.09 141.02 404.93 140.5 409.87 138.72 412.8 138.58 415.59 137.55 421.71 136.84 424.81 136.22 428.88 134.73 431.26 133.23 437.81 133.16 443.78 131.69 
M 396.47 146.21 399.49 145.99 402.47 146.02 405.21 145.76 406.84 145.42 409.56 144.56 412.07 144.21 419.47 144.58 425.52 143.01 426.97 141.36 428.78 141.62 435.75 141.56 438.73 142 441.45 141.17 
M 396.79 150.54 404.72 150.1 406.9 150.75 409.82 150.37 412.98 149.65 416.47 150.14 419.92 150.07 423.09 149.51 425.88 149.46 428.16 148.75 429.96 147.92 433.04 148.42 436.35 148.41 438.27 149.4 440.54 148.58 
M 393.86 153.8 404 155.52 412.59 155.3 416.22 156.16 421.14 155.63 423.71 155.9 426.64 155.6 429.28 154.91 432.74 155.04 436.78 156.29 
M 396.07 158.23 399.05 158.57 401.97 158.47 405.2 159.11 413.11 159.77 419.42 160.84 422.48 161.88 425.85 162.03 427.32 161.38 434.81 162.96 440.52 165.11 443.98 164.59 451.62 165.82 454.19 165.91 456.15 166.31 
M 389.78 160.13 395.83 161.99 399.02 162.7 402.66 162.75 405.77 163.36 410.47 165.01 412.76 164.76 415.96 165.44 418.94 166.6 421.85 167.02 424.86 167.95 427.16 168.87 431.01 169.02 433.73 170.75 436.85 172.21 439.56 172.99 442.71 172.07 451.64 173.33 454.23 174.28 457.37 174.22 461.01 175.53 462.28 175.53 
M 392.76 164.83 404.63 167.75 410.35 169.94 416.35 171.72 419.09 172.17 424.56 173.58 426.01 174.13 428.02 175.58 430.48 176.26 433.84 176.79 
M 386.48 165.17 389.66 166.86 392.79 168.28 395.56 169.26 404.36 171.45 407.34 172.81 412.97 176.11 415.52 176.96 419.42 179.65 422.37 181.13 431.02 183.97 433.57 185.21 435.88 186.08 439.2 185.29 442.16 186.55 447.11 188.1 449.3 188.39 451.94 189.08 453.48 192.16 
M 386.48 168.35 389.78 170.21 392.98 171.44 395.7 173.01 398.31 174.25 400.9 175.04 406.5 177.75 409.06 179.8 411.9 181.46 417.24 183.89 418.82 184.98 421.46 186.39 424.5 187.34 429.46 190.71 432.51 192.22 434.38 192.82 436.82 193.92 439.2 195.65 442.19 196.14 444.31 197.86 449.24 200.19 
M 389.6 173.74 394.98 177.07 397.56 178.31 400.35 179.05 402.87 180.37 405.57 182.26 410.4 186.26 415.05 188.49 417.12 189.66 419.5 191.35 421.86 192.77 424.57 194.82 428.16 195.99 430.28 197.85 432.45 199.47 438.39 201.82 440.52 203.31 442.95 204.6 446.18 206.98 451.16 209.36 453.53 211.18 455.52 212.14 456.81 212.96 459.96 214.06 461.94 216.03 463.98 217.17 467.8 217.71 471.36 219.51 473 221.1 
M 363.85 185.36 360.01 185.92 358.19 186.52 356.47 187.33 353.29 189.57 354.82 189.4 
M 42.91 144.05 43.33 143.22 44.79 141.16 46.62 138.9 48.88 136.82 51.78 135.14 60.31 130.77 69.57 125.37 74.67 122.74 80.28 120.45 91.85 116.41 102.16 113.28 112.05 110.55 115.77 114.2 117.6 118.17 119.68 122.12 121.99 126.03 123.84 130 125.05 134.06 126.86 142.27 126.75 146.5 127.01 150.69 127 154.91 126.05 163.48 126.46 167.65 126.57 176.08 126.14 180.36 125.02 184.73 122.67 189.18 110.87 188.47 102.26 187.24 87.35 183.87 80.92 181.66 75.04 179.34 69.46 176.64 64.32 173.8 59.75 170.58 
M 104.12 133.71 104.62 137.21 103.4 143.96 102.45 147.02 100.05 152.72 100.13 155.25 100.41 157.71 101.85 162.93 102.36 166.1 102.14 169.8 94.28 169.78 88.56 169.54 77.58 168.43 72.38 167.2 67.45 165.6 62.69 163.34 
M 56.73 168.26 50.01 160.62 47.29 157.04 40.06 148.21 39.66 145.9 41.1 144.07 43.42 144.05 44.98 145.7 48.65 151.64 52.98 159.57 59.83 170.51 
M 59.27 171.19 53.29 168.09 48.98 166.04 45.06 163.78 36.85 159.49 30.95 156.07 30 154.07 31.06 152.04 33.48 151.32 35.56 152.44 40.77 156.7 46.36 160.77 49.85 163.53 53.8 166.14 59.71 170.39 
M 68.01 141.26 67.18 138.11 67.42 134.86 68.7 131.87 70.88 129.45 73.73 127.87 76.93 127.3 80.15 127.81 83.03 129.33 85.26 131.7 86.6 134.67 86.9 137.92 86.13 141.08 84.38 143.82 81.83 145.85 78.76 146.94 75.5 146.97 72.41 145.94 69.82 143.97 68.01 141.26 
M 67.89 140.98 67.24 138.62 67.14 137.4 67.4 134.97 68.24 132.67 68.87 131.62 70.49 129.78 72.51 128.4 74.8 127.56 77.24 127.31 79.66 127.66 80.82 128.06 
M 69.58 140.28 69.26 139.34 68.97 137.36 69.01 136.36 69.42 134.57 
M 71.69 131.16 73.34 130.03 75.22 129.34 77.2 129.14 78.2 129.22 80.12 129.75 
M 71.28 139.58 70.8 137.33 71.17 135.09 
M 73.19 132.31 74.89 131.34 76.39 131 77.93 131.03 79.42 131.44 
M 73.43 138.82 73.09 137.56 73.19 136.26 73.35 135.88 
M 74.94 133.9 75.71 133.47 76.99 133.24 78.28 133.44 79.43 134.05 80.32 135 80.86 136.19 80.98 137.48 80.67 138.75 79.97 139.85 78.95 140.66 77.72 141.09 76.42 141.11 75.18 140.69 74.15 139.91 73.43 138.82 
M 73.75 136.04 73.11 137.32 
M 76.48 133.33 75.78 134.73 
M 75.03 136.23 73.6 139.09 
M 77.83 133.37 76.69 135.66 
M 76.42 136.19 74.45 140.13 
M 78.98 133.81 75.49 140.8 
M 79.96 134.61 76.71 141.1 
M 80.71 135.85 78.17 140.94 
M 80.71 138.59 80.48 139.05 
M 44.4 141.71 48.43 145.73 
M 46.87 138.68 49.67 141.49 
M 49.9 136.23 52.82 139.14 
M 53.44 134.28 57.47 138.31 
M 57.07 132.41 62.14 137.49 
M 60.69 130.55 64.8 134.66 
M 64.2 128.56 68.34 132.71 
M 67.64 126.52 70.73 129.61 
M 71.16 124.55 74.37 127.76 
M 74.79 122.69 78.26 126.16 
M 78.69 121.1 84.05 126.46 
M 82.68 119.61 85.52 122.44 
M 86.75 118.18 90.69 122.12 
M 90.83 116.77 95.61 121.55 
M 94.98 115.43 98.37 118.82 
M 99.19 114.15 104.41 119.38 
M 103.44 112.92 108.61 118.09 
M 107.75 111.74 112.71 116.7 
M 112.39 110.89 114.28 112.78 
M 86.57 132.34 87.66 132.23 88.81 132.48 92.17 134.03 92.87 134.22 93.72 134.23 94.08 134.05 
M 124.64 146.1 122.64 147.26 121.63 148.35 121.12 149.24 121.12 149.59 121.52 150.49 
M 124.1 150.52 123.52 150.6 121.9 150.31 121.65 150.35 121.56 150.57 
M 101.6 152.73 102.44 151.45 103.14 150.89 
M 58.92 157.36 61.08 156.48 61.56 156 62.29 154.56 62.42 153.66 62.06 150.33 61.62 149.32 61.1 148.56 60.54 148.19 59.63 148.03 
M 56.03 164.55 57.33 162.34 58.11 159.88 58.54 159.23 60.02 158.09 
M 100.26 134.12 97.71 132.47 95.62 131.62 94.46 130.76 94.05 130.68 93.43 130.89 
M 73.65 125.88 74.27 127.78 
M 71.56 145.29 71.59 146.37 72.31 147.83 73.54 149.19 75.34 150.23 
M 100.78 185.93 99.37 184.8 98.73 183.92 98.18 182.9 98.14 182 98.37 181.12 99.02 180.36 101.62 178.28 102.16 177.48 102.55 176.61 102.99 174.21 
M 72.75 162.56 72.38 163.15 72.08 165.35 69.94 168.61 
M 115.34 152.43 116.26 152.18 119.12 150.94 119.67 150.8 121.47 150.79 
M 107 136.33 104.28 137.1 102.39 137.83 100.23 138.33 97.53 139.63 96.32 140.6 
M 54.33 161.71 56.19 159.89 56.84 159 
M 77.77 126.08 78.86 126.92 80.49 127.88 82.38 128.29 84.59 129.59 87.33 130.47 88.83 131.29 
M 80.91 168.94 81.05 166.96 80.8 166.09 79.66 164.86 79.18 164.09 78.6 163.93 
M 79.86 161.97 78.98 162.23 78.27 162.83 77.41 164.08 77.32 164.38 77.62 164.69 
M 111.24 185.25 111.81 185.72 113.08 187.47 113.69 187.95 
M 55.18 163.18 55.4 162.66 56.79 160.89 57.58 159.25 58.09 158.64 58.77 158.2 
M 119 151.95 120.07 151.58 121.53 151.56 121.87 151.26 121.84 150.83 
M 92.79 140.48 93 141.54 92.86 142.31 91.45 144.41 91.3 145.19 
M 65.16 148.93 64.77 147.74 64.38 147.29 63.08 146.53 61.36 146 58.01 146.01 
M 93.27 172.34 92.72 173.55 91.6 174.4 86.9 175.59 
M 117.73 170.33 119.55 171.46 121.46 172.17 121.68 172.71 121.19 173.8 
M 54.1 147.61 54.9 147.94 55.72 148.58 57 150.33 57.14 150.85 57.04 151.26 
M 92.06 164.33 91.75 165.3 90.23 167.01 89.86 167.73 89.35 169.19 89.02 172.58 88.75 173.31 87.83 174.3 
M 125.49 182.9 124.31 182.4 
M 122.93 152.27 122.31 151.13 121.72 150.66 
M 58.58 132.12 58.33 131.78 
M 107.12 154.2 107.15 153.34 107.52 151.63 108.46 149.21 109.02 148.49 110.82 148.12 
M 94.09 124.99 94.11 125.92 93.88 127.26 93.2 128.64 92.86 129.94 92.95 131.31 
M 108.19 143.13 111.65 142.06 112.16 142.41 112.65 143.21 
M 107.15 135.35 105.94 136.01 100.04 136.87 99.05 136.78 96.44 136.12 95.61 135.52 95.22 134.86 
M 121.45 151.81 121.86 151.65 122.01 151.35 121.99 150.98 121.7 150.67 
M 107.01 151.51 107.53 150 108.53 148.67 109.1 148.36 111.26 148.01 
M 55.16 134.38 53.19 135.51 50.57 136.14 48.81 137.04 
M 109.66 125.76 107.92 124.98 106.88 124.11 106.2 123.75 104.72 123.36 99.82 123.35 98.4 123.13 
M 114.02 160.53 114.66 160.83 115.5 160.7 116.45 159.92 117.87 158.14 118.7 157.67 119.83 157.56 
M 90.68 164.18 90.58 164.88 90.23 165.64 88.66 167.85 87.87 169.45 87.88 173.3 87.69 173.83 87.18 174.44 
M 91.89 142.51 90.92 143.61 90.26 144.81 90.32 145.32 90.97 145.58 
M 106.97 111.94 105.65 112.3 
M 100.55 115.32 99.72 113.99 
M 62.12 132.22 60.95 131.88 59.73 131.06 
M 57.17 166.32 58.04 165.14 
M 122.92 132.28 122.2 132.89 121.68 133.88 121.51 134.95 121.75 137.12 
M 103.93 114.62 102.61 113.15 
M 52.86 153.98 54.96 155.64 56.16 156.25 56.8 156.36 57.68 156.23 60.13 155.43 
M 79 164.55 78.84 164.09 78.54 164.06 78.38 164.28 
M 44.05 163.25 50.71 168.02 55.25 170.83 59.97 173.31 64.87 175.48 75.04 179.34 
M 50.6 167.94 50.9 166.94 
M 44.52 163.6 44.56 163.52 
M 112.96 110.2 120.04 117.27 
M 118.57 108.49 127.06 116.97 
M 124.33 106.93 134.31 116.91 
M 130.49 105.77 140.96 116.24 
M 136.91 104.87 144.61 112.57 
M 143.53 104.17 152.74 113.38 
M 150.22 103.55 155.96 109.28 
M 156.8 102.81 166.04 112.04 
M 163.2 101.88 173.15 111.84 
M 169.59 100.96 178.28 109.64 
M 176.01 100.05 185.92 109.97 
M 182.62 99.35 188.17 104.9 
M 189.39 98.8 197.79 107.2 
M 196.34 98.43 205.17 107.26 
M 203.47 98.24 211.49 106.26 
M 210.67 98.12 220.7 108.15 
M 217.92 98.05 225.54 105.68 
M 225.35 98.16 231.78 104.59 
M 232.75 98.24 241.25 106.75 
M 240.08 98.26 250.85 109.03 
M 247.22 98.08 256 106.86 
M 254.49 98.04 264.22 107.77 
M 261.97 98.19 268.21 104.43 
M 269.8 98.7 276.04 104.94 
M 277.83 99.41 284.3 105.88 
M 285.94 100.21 293.17 107.44 
M 294.12 101.07 301.89 108.84 
M 302.39 102.02 311.74 111.37 
M 311.19 103.5 317.33 109.64 
M 320.3 105.29 330.64 115.63 
M 329.49 107.16 336.84 114.51 
M 338.56 108.91 347.13 117.48 
M 347.62 110.65 358.4 121.44 
M 357.08 112.8 367.3 123.02 
M 367.9 116.3 376.73 125.12 
M 145.17 102.93 145.67 103.95 
M 147.51 99.38 149.59 103.54 
M 149.78 95.7 153.5 103.13 
M 156.45 100.8 157.41 102.72 
M 158.47 96.6 161.25 102.16 
M 161.93 95.28 165.09 101.61 
M 159.46 82.12 162.74 88.67 
M 165.19 93.58 166.01 95.21 
M 166.83 96.85 168.93 101.05 
M 161.79 78.54 165.88 86.73 
M 164.37 75.47 167.65 82.02 
M 176.68 91.85 179.13 96.76 
M 178.04 86.34 183.9 98.07 
M 171.25 64.52 173.29 68.61 
M 175.75 73.52 179.02 80.07 
M 182.29 86.61 183.11 88.25 
M 183.93 89.89 186.38 94.8 
M 173.65 61.09 176.51 66.82 
M 178.15 70.09 183.87 81.54 
M 178.38 62.32 179.2 63.96 
M 183.29 72.14 184.93 75.42 
M 200.24 97.8 200.5 98.33 
M 185.48 60.05 185.89 60.87 
M 186.71 62.51 187.53 64.15 
M 188.66 58.18 191.52 63.91 
M 193.16 67.18 196.43 73.73 
M 197.25 75.36 198.89 78.64 
M 192.45 57.52 194.49 61.62 
M 196.13 64.89 201.86 76.34 
M 199.87 64.13 204.78 73.95 
M 207.24 78.86 209.69 83.77 
M 210.51 85.41 211.33 87.05 
M 215.42 95.23 216.87 98.13 
M 204.17 64.49 205.8 67.76 
M 206.62 69.4 207.44 71.04 
M 209.08 74.31 214.8 85.77 
M 217.26 90.68 220.99 98.15 
M 213.06 74.04 218.79 85.5 
M 222.06 92.04 225.12 98.16 
M 211.06 61.81 212.7 65.09 
M 213.52 66.72 214.33 68.36 
M 219.24 78.18 220.06 79.82 
M 225.79 91.27 229.25 98.2 
M 212.9 57.26 217.81 67.08 
M 221.9 75.27 222.72 76.9 
M 228.45 88.36 233.39 98.23 
M 216.48 56.19 222.21 67.65 
M 223.85 70.92 230.39 84.01 
M 233.67 90.56 235.3 93.83 
M 220.61 56.21 221.43 57.85 
M 222.25 59.49 224.7 64.4 
M 227.16 69.31 232.07 79.13 
M 232.89 80.76 233.7 82.4 
M 225.84 58.44 229.93 66.62 
M 230.75 68.26 236.48 79.71 
M 229.46 57.43 233.14 64.8 
M 238.87 76.25 242.96 84.44 
M 233.65 57.59 237.33 64.95 
M 241.42 73.13 245.51 81.32 
M 252.88 96.04 253.88 98.06 
M 237.81 57.67 239.04 60.13 
M 247.22 76.49 248.85 79.77 
M 252.13 86.31 253.76 89.58 
M 254.58 91.22 256.22 94.49 
M 257.04 96.13 258.07 98.2 
M 256.16 86.13 260.25 94.32 
M 261.07 95.95 262.26 98.35 
M 251.54 68.67 254.82 75.22 
M 258.91 83.4 263 91.58 
M 254.66 66.67 258.75 74.85 
M 262.02 81.39 263.66 84.67 
M 264.47 86.3 266.11 89.58 
M 252.01 53.15 253.24 55.6 
M 268.79 86.7 270.43 89.97 
M 271.24 91.61 272.88 94.88 
M 257.03 54.94 257.44 55.76 
M 271.35 83.58 274.62 90.13 
M 275.44 91.76 279.34 99.56 
M 273.76 80.18 279.49 91.64 
M 281.95 96.55 282.77 98.19 
M 278.14 80.71 283.87 92.16 
M 284.09 84.36 284.91 86 
M 291.45 99.09 292.35 100.89 
M 288.66 85.28 291.94 91.82 
M 294.39 96.73 296.7 101.36 
M 288.04 75.79 288.86 77.43 
M 291.31 82.34 295.4 90.52 
M 297.04 93.8 301.07 101.85 
M 290.8 73.09 292.85 77.18 
M 296.12 83.73 297.76 87 
M 298.57 88.64 300.02 91.53 
M 300.43 84.12 301.43 86.12 
"/></svg>