<svg xmlns="http://www.w3.org/2000/svg" width="520" height="320"><rect x="0" y="0" width="520" height="320" fill="floralwhite"/><rect x="10" y="10" width="500" height="300" stroke="black" stroke-width="1" fill="none"/><path stroke="black" stroke-width="1" fill="none" stroke-linecap="round" stroke-linejoin="round" d="
M 118.96 112.08 130.93 109.81 154.82 107.41 178.71 103.92 190.65 102.64 202.6 101.98 214.54 101.68 226.49 101.56 250.38 101.85 262.32 101.53 274.27 101.56 286.21 102.35 310.1 104.68 322.05 106.03 333.99 108.06 381.77 117.65 393.72 121.19 405.66 126.28 406.65 127.27 
M 406.65 179.99 405.66 180.85 393.72 184.93 381.77 187.81 357.88 191.66 345.94 193.88 333.99 196.47 322.05 198.65 310.1 199.79 298.16 200.41 274.27 201.04 250.38 200.85 238.43 201.46 226.49 202.44 214.54 203.16 202.6 203.26 190.65 202.47 178.71 200.72 166.76 198.24 154.82 195.31 142.87 192.14 130.93 189.43 118.98 187.67 107.04 186.76 
M 406.65 142.85 402.74 141.16 399.05 140.39 391.66 139.04 384.02 137.86 372.28 135.66 360.77 133.28 352.72 131.94 344.35 130.85 331.88 129.79 323.89 129.5 317.78 129.58 
M 313.67 129.69 303.64 129.75 296.05 129.22 281.03 127.72 271.64 127.39 
M 261.08 127.49 257.6 127.73 
M 254.07 128.09 250.47 128.5 
M 239.44 129.75 224.73 131.05 
M 220.89 131.45 213.08 132.06 
M 209.16 132.19 203.35 132.16 193.72 131.6 
M 189.76 131.44 181.61 131.43 
M 177.54 131.51 169.53 131.68 
M 157.59 131.36 153.52 131.14 
M 149.39 130.92 141.25 130.68 
M 133.66 130.51 130.03 130.56 
M 112.94 180.15 114.23 181.95 
M 115.03 175.61 116.78 178.17 
M 119.01 174.13 121.63 178.18 
M 119.82 160.55 120.59 161.8 
M 125.68 170.08 128.35 174.27 
M 131.13 178.33 132.56 180.31 136.9 185.5 
M 121.76 156.1 126.29 163.78 130.34 170.16 
M 136.23 178.45 140.86 184.16 142.45 185.88 
M 123.29 150.8 124.97 153.9 
M 127.36 158.07 129.54 161.66 
M 138.34 174.52 141.4 178.62 
M 124.96 145.54 124.97 145.57 
M 134.11 161.34 137.34 166.06 
M 140.36 170.41 143.39 174.71 
M 146.5 178.85 149.77 182.72 
M 125.52 138.01 129.01 144.8 
M 145.35 170.63 148.41 174.96 
M 155.04 182.97 156.79 184.83 162.13 189.81 
M 123.97 126.6 133.46 144.45 
M 147.16 166.08 150.38 170.88 
M 153.52 175.23 155.13 177.37 158.61 181.37 160.42 183.22 
M 164.04 186.77 167.54 190.06 
M 119.74 111.93 123.27 117.24 125.59 121.17 138.17 144.09 
M 152.86 167.19 157.12 173.35 158.81 175.48 
M 162.31 179.61 165.95 183.44 
M 124.02 111.12 128.03 117.41 138.4 135.74 
M 140.89 140.04 143.01 143.63 
M 128.18 110.33 132.7 117.5 148.09 143.32 
M 173.87 179.91 180.52 187.35 
M 132.35 109.65 145.01 129.18 147.62 133.38 153.21 143.03 
M 170.91 169.66 172.54 171.6 
M 136.7 109.19 147.72 124.91 150.42 128.97 153.02 133.28 158.48 143.11 
M 176.34 169.07 178.48 171.6 
M 141.2 108.71 150.33 120.75 153.14 124.68 155.81 128.86 163.54 143 
M 184.23 171.56 187.64 175.84 
M 190.75 179.92 193.63 183.76 
M 196.43 187.38 199.27 190.78 
M 145.89 108.25 152.77 116.73 155.69 120.59 158.45 124.63 161.04 128.95 168.92 143.44 
M 189.67 171.45 195.85 179.71 
M 207.49 194.01 210.38 196.83 
M 150.66 107.8 158.01 116.66 160.88 120.63 163.6 124.75 166.19 129.03 173.78 142.88 
M 194.86 171.18 200.78 179.4 
M 155.36 107.33 160.16 112.96 163.11 116.78 165.98 120.74 170.04 126.89 
M 172.61 131.2 178.63 142.1 
M 199.87 170.82 205.69 179.13 
M 211.74 187.1 214.78 190.69 
M 217.73 193.79 220.56 196.33 
M 159.77 106.69 165.25 113.13 168.22 116.91 171.1 120.79 175.22 126.84 
M 177.83 131.11 182.94 140.1 
M 204.84 170.48 207.7 174.74 
M 219.8 190.35 222.67 193.18 
M 225.42 195.47 227.41 196.88 
M 164.12 106.05 170.42 113.35 173.37 117.05 179.08 124.75 181.82 128.88 189.62 141.86 
M 168.43 105.43 175.63 113.63 181.43 120.95 184.34 124.82 187.14 128.93 191.17 135.5 
M 194.09 139.9 196 142.54 
M 213.53 168.01 216.37 172.49 220.85 178.84 
M 235 193.54 237.67 195.39 
M 172.72 104.8 177.93 110.54 186.65 121.16 189.52 125.06 195.02 133.49 198.06 137.77 202.17 142.88 
M 218.12 167.23 220.03 170.32 
M 228.76 182.29 231.61 185.46 
M 234.39 188.2 237.12 190.61 
M 176.93 104.18 183.15 110.99 188.88 117.88 191.66 121.61 198.67 131.7 
M 201.83 135.8 208.6 143.85 
M 239.22 187.49 242.05 189.89 
M 181.13 103.66 185.46 108.26 191.07 114.91 202.03 130.07 205.27 133.98 212.29 141.9 214.2 144.38 
M 226.64 165.01 231.23 172.26 235.52 177.9 
M 244.2 186.86 247.11 189.25 
M 185.32 103.21 190.57 108.89 193.33 112.19 195.99 115.64 203.9 126.58 206.98 130.33 213.91 137.9 217.36 142 219.15 144.47 
M 232.06 166.03 234.63 169.99 
M 237.4 173.83 238.84 175.72 243.28 180.73 
M 252.14 188.64 254.94 190.73 
M 257.59 192.59 260.09 194.22 
M 189.37 102.78 192.92 106.51 195.67 109.68 198.32 112.97 205.99 123.22 208.88 126.76 217.24 135.96 
M 220.65 140.07 224.16 144.88 
M 235.35 163.64 237.97 167.78 240.73 171.65 245.22 177.12 
M 254.15 185.74 262.03 191.96 
M 193.46 102.49 198.08 107.32 200.76 110.43 211.07 123.25 220.58 133.85 223.96 137.97 228.71 144.76 
M 239.53 162.72 241.41 165.63 
M 250.11 176.81 253.1 179.92 
M 256.01 182.68 258.79 185.14 
M 261.41 187.4 263.87 189.53 
M 197.61 102.26 203.24 107.99 213.48 119.86 222.32 129.75 225.58 133.67 228.83 138.01 233.42 144.92 
M 243.36 161.31 244.68 163.39 248.95 169.31 
M 251.92 173.05 254.87 176.43 
M 274.47 194.93 275.87 195.87 
M 201.76 102.03 205.7 105.64 212.23 112.41 
M 214.74 115.19 224.27 125.74 227.32 129.39 232.01 135.77 
M 235.08 140.33 238.77 146.14 
M 246.9 159.57 247.85 161 
M 259.4 175.89 262.19 178.84 
M 264.9 181.59 267.42 184.19 
M 271.96 189.03 274.14 191.22 
M 278.76 194.94 280.16 195.84 
M 206.24 101.89 210.84 105.79 213.48 108.26 223.69 118.9 229.23 125.3 232.15 129.13 236.66 135.65 
M 239.55 140.1 243.5 146.58 
M 251.29 159.1 252.25 160.48 
M 255.21 164.6 258.18 168.5 
M 261.07 172.09 269.29 181.28 
M 276.13 188.99 278.42 191.23 
M 211.08 101.77 215.88 105.6 221.01 110.36 226.07 115.51 231.31 121.49 236.88 128.95 239.81 133.17 242.59 137.47 246.25 143.68 
M 248.56 147.62 248.56 147.63 
M 255.24 157.93 261.23 166.1 264.26 169.89 271.27 178.16 
M 273.73 181.11 277.14 185.27 280.58 189.01 
M 216.24 101.67 220.82 105.18 225.92 109.78 230.95 114.97 236.08 121.17 241.68 128.63 244.44 132.73 253.36 147.96 
M 264.34 163.67 267.49 167.64 
M 273.33 174.79 278.28 181.05 
M 280.56 183.9 282.87 186.59 
M 221.68 101.61 225.69 104.62 228.24 106.83 233.25 111.77 240.97 120.78 243.76 124.34 247.79 130.21 
M 250.19 134.24 253.5 140.29 257.1 146.37 
M 262.38 154.41 262.71 154.89 
M 265.85 159.23 269.12 163.43 
M 272.34 167.4 278.11 174.67 
M 280.6 177.97 282.93 181.06 
M 227.29 101.58 230.5 104.03 233.05 106.27 235.54 108.71 241.83 115.59 
M 244.54 118.7 248.7 123.91 251.3 127.75 253.64 131.72 256.9 137.82 
M 259.16 141.97 263.06 148.52 
M 265.83 152.71 267.34 154.79 
M 270.61 159.11 278.8 169.21 282.85 174.64 
M 287.6 181.17 289.99 184.15 
M 233.01 101.66 235.28 103.5 237.75 105.79 248.01 116.62 250.8 119.87 253.5 123.49 257.07 129.34 
M 259.26 133.41 264.86 144.03 268.24 149.43 
M 269.3 150.99 273.73 156.95 280.56 165.23 284.93 171.05 
M 289.86 178.14 293.5 182.91 297.46 187.14 
M 238.36 101.74 242.28 105.38 252.78 116.2 255.53 119.47 258.11 123.13 259.3 125.09 
M 261.6 129.09 267.08 139.77 269.49 144.13 272.17 148.39 276.95 154.78 
M 280.38 158.99 285.37 165.22 289.5 171.14 
M 297 181.52 299.67 184.5 
M 243.34 101.78 251.89 110.1 256.03 114.35 
M 258.75 117.51 261.36 121.04 
M 263.82 124.9 267.26 131.09 271.78 139.87 274.29 144.22 277.07 148.41 278.66 150.5 
M 285.37 158.99 290.07 165.31 295.26 173.2 299.12 178.44 
M 248.16 101.83 259.23 112.52 261.96 115.56 264.6 118.98 267.16 122.78 269.59 126.83 276.67 139.9 277.99 142.05 
M 283.89 150.5 287.21 154.78 
M 303.96 178.48 306.71 181.55 
M 252.92 101.78 261.07 109.35 263.8 112.16 266.5 115.32 269.16 118.87 271.78 122.72 275.54 128.94 
M 278 133.27 280.51 137.68 
M 283.23 142.06 284.66 144.23 294.1 157.07 298.19 163.43 
M 303.4 171.41 304.75 173.3 308.83 178.2 
M 311.53 181.14 316.9 186.53 
M 257.78 101.65 262.98 106.24 265.68 108.86 268.4 111.8 271.12 115.13 276.58 122.66 279.25 126.74 284.38 135.51 288.74 142.18 
M 297.86 155.02 300.54 159.29 
M 303.09 163.47 306.95 169.37 308.27 171.11 
M 310.93 174.44 316.28 180.47 
M 318.96 183.31 324.25 188.5 
M 263.02 101.53 267.64 105.61 270.35 108.37 275.91 114.97 281.54 122.6 289.63 135.68 291.17 137.92 
M 294.29 142.33 300.31 150.84 
M 302.98 155.07 309.21 165.16 311.76 168.71 318.32 176.67 
M 268.62 101.55 272.39 105.06 275.15 108.01 280.84 114.87 286.35 122.7 291.82 131.37 294.88 135.86 302.64 146.67 
M 307.86 154.93 311.52 160.82 313.98 164.41 317.8 169.4 
M 274.11 101.56 277.27 104.71 280.07 107.84 285.64 114.95 296.79 131.54 306.2 144.55 313.82 156.45 317.49 161.83 
M 322.54 168.6 325.14 172.02 
M 327.8 175.48 330.5 178.85 
M 279.64 101.92 282.16 104.66 287.61 111.45 293.03 119.03 300.16 129.43 
M 303.35 133.75 306.54 138.04 
M 309.55 142.23 321 159.42 332.67 175.32 
M 338.16 181.91 340.91 184.84 
M 284.65 102.25 286.91 104.88 292.27 111.72 303.51 127.24 309.94 135.67 312.95 139.84 322.05 153.56 
M 324.57 157.22 332.27 168.14 
M 334.94 171.8 337.66 175.39 
M 340.41 178.81 345.9 185.01 
M 289.41 102.64 299.77 115.42 311.9 131.13 316.38 137.37 
M 321.73 145.53 326.94 153.35 
M 332.1 160.83 334.7 164.58 
M 337.33 168.34 342.71 175.65 
M 294.19 103.08 307.79 118.88 314.07 126.65 317.17 130.75 320.04 134.91 328 147.42 345.09 172.44 
M 299.29 103.56 313.25 118.55 319.54 126.29 322.45 130.42 331.75 145.27 
M 339.76 157.31 348.85 171.07 354.1 178.31 358.07 183.3 
M 305.03 104.15 315.58 114.67 320.37 120.1 
M 323.42 124.03 324.9 126.05 328.96 132.43 
M 331.59 136.74 339.66 149.31 
M 342.33 153.43 347.56 161.73 
M 350.11 165.78 352.64 169.66 
M 357.78 177.04 361.67 182.2 364.84 186.03 
M 311.32 104.81 317.88 111.06 321.09 114.38 324.24 117.97 325.74 119.92 
M 331.49 128.15 346.25 151.52 355.2 166.27 
M 365.31 181.01 369.27 185.98 
M 317.87 105.56 323.32 110.86 326.44 114.26 329.49 117.95 332.51 121.94 338.25 130.41 347.52 145.3 
M 350.18 149.67 352.77 154.08 
M 355.3 158.45 357.8 162.72 
M 360.28 166.82 362.76 170.74 
M 365.23 174.49 367.72 178.08 
M 324.3 106.41 328.57 110.84 334.84 118.1 337.95 122.17 340.93 126.39 345.05 132.75 
M 352.81 145.65 355.39 150.13 
M 360.38 159.03 362.87 163.31 
M 330.58 107.48 337.07 114.49 340.34 118.38 343.51 122.52 349.22 130.96 355.53 141.7 
M 360.49 150.72 365.41 159.66 
M 377.53 179.03 379.98 182.42 
M 336.92 108.65 342.56 114.76 345.92 118.75 349.09 122.92 353.34 129.24 
M 355.91 133.5 358.33 137.84 
M 360.7 142.27 366.7 153.67 372.88 164.48 
M 375.31 168.49 379.98 176.02 
M 343.42 109.98 349.81 117.12 
M 353.07 121.23 356.02 125.44 
M 361.11 134.05 372.9 156.53 
M 377.81 165.02 384.77 176.62 
M 349.95 111.32 353.68 115.45 357.01 119.56 359.96 123.8 363.79 130.3 
M 366.16 134.69 374.26 150.42 380.27 161.37 
M 387.25 173.52 389.59 177.15 
M 356.34 112.63 359.14 115.89 362.29 120.07 365.08 124.37 370.01 133.13 385.07 161.81 
M 387.42 166.08 392.09 174 
M 362.33 113.78 364.46 116.42 367.44 120.63 370.14 124.97 377.47 138.09 383.03 149.02 
M 387.5 157.74 389.85 162.14 
M 368.14 114.86 372.62 121.17 377.87 129.85 381.48 136.34 
M 383.69 140.62 388.89 151.27 394.73 162.33 
M 374.09 116.06 377.97 121.61 383.26 130.22 387.74 138.7 393.71 151.25 399.77 162.38 
M 380.34 117.35 383.52 121.92 388.7 130.45 390.9 134.65 396.49 146.96 397.58 149.09 
M 387.12 119.23 391.78 126.34 394.14 130.57 396.16 134.71 399.62 142.81 402.71 149.13 
M 405.08 153.57 406.65 156.46 
M 394.12 121.36 397.28 126.41 399.49 130.61 404.76 142.86 406.65 146.85 
M 401.5 124.5 402.62 126.43 404.69 130.62 406.65 135.18 
M 121.55 111.59 119.86 113.59 
M 127.2 110.51 121.84 117.22 
M 132.48 109.64 122.84 122.26 
M 137.41 109.11 124.14 127.19 
M 142.45 108.58 138.74 113.55 127.54 129.3 125.35 132.59 
M 147.64 108.09 143.66 113.34 132.25 129.45 129.39 133.58 125.43 140.07 
M 152.99 107.58 148.79 113.1 134.08 133.63 131.2 137.86 126.97 144.9 
M 124.97 148.5 122.95 152.18 
M 158.64 106.85 153.99 112.94 138.99 133.6 131.7 144.33 
M 124.97 156.13 121.88 161.74 
M 164.67 105.97 161.67 109.5 159.13 112.94 153.68 120.63 141.01 137.85 136.6 144.25 
M 128.04 158.45 126.31 161.66 
M 116.46 178.18 113.75 181.85 
M 171.4 104.99 169.52 106.74 166.81 109.74 164.21 113.09 158.94 120.59 144.7 140.01 
M 130.88 161.65 128.52 165.9 
M 178.67 103.93 174.84 107.21 172.06 110.08 169.37 113.3 147.69 143.3 
M 133.31 165.97 130.87 170.17 
M 128.46 174.28 126.02 178.24 
M 185.5 103.19 180.14 107.74 177.33 110.49 174.57 113.57 171.87 117.01 161.78 131.18 
M 158.6 135.6 153.29 143.03 
M 138.36 166.08 135.87 170.27 
M 192.55 102.54 188.09 105.81 185.32 108.25 179.79 113.89 177.04 117.17 174.29 120.82 166.94 131.25 
M 163.79 135.73 160.64 140.24 
M 138.46 174.52 134.6 180.36 131.38 184.68 
M 199.59 102.15 196.08 104.46 193.23 106.56 190.43 108.87 187.7 111.42 182.23 117.4 179.46 120.9 175.17 126.86 
M 172.11 131.21 168.96 135.75 
M 165.82 140.34 164.05 142.95 
M 145.93 170.65 141.07 178.61 
M 206.03 101.9 201.28 105.21 195.53 109.66 192.75 112.11 190.06 114.77 187.41 117.74 184.68 121.07 178.9 128.9 168.91 143.44 
M 153.24 167.24 150.97 170.9 
M 148.54 174.97 146.17 178.84 
M 211.51 101.76 200.62 110.41 196.37 114.18 
M 193.69 116.89 189.81 121.41 184.2 128.89 177.75 137.91 174.48 142.76 
M 158.42 167.63 156.16 171.16 
M 216.39 101.66 202.74 113.53 199.87 116.21 197.18 119 194.65 121.99 190.81 127.16 
M 187.92 131.13 180.21 141.96 
M 161.57 171.38 158.95 175.49 
M 220.89 101.62 204.79 116.72 201.96 119.62 198.15 124.24 
M 195.71 127.62 185.57 141.93 
M 167.28 171.53 164.53 175.69 
M 225.19 101.58 209.86 116.86 206.88 119.96 204.13 123.12 201.67 126.4 192.48 139.96 
M 174.65 169.38 170.39 175.81 
M 162.76 186.71 160.36 189.73 
M 229.33 101.6 223.69 107.38 213.48 118.3 
M 210.56 121.61 206.53 126.72 196.37 142.57 
M 176.37 175.87 173.55 179.89 
M 233.49 101.67 225.79 109.8 217.12 119.6 214.28 123.11 210.44 128.54 
M 208.18 132.2 201.9 142.86 
M 184.87 171.54 182.23 175.87 
M 237.63 101.73 229.25 110.79 
M 226.47 113.99 222.22 119.07 219.43 122.67 216.78 126.44 214.38 130.25 211.21 135.97 
M 209.11 139.9 207.05 143.55 
M 241.7 101.77 232.7 111.82 227.23 118.49 224.52 122.13 221.91 125.97 219.51 129.96 212 144.19 
M 196.35 169.48 195.48 171.14 
M 181.76 190.64 178.96 193.51 
M 245.73 101.8 242.55 105.35 234.76 114.63 229.48 121.63 226.95 125.49 224.57 129.58 217.17 144.11 
M 200.98 169.86 198.03 175.33 
M 195.54 179.71 192.86 183.76 
M 249.78 101.84 244.6 107.87 238.21 115.93 
M 235.57 119.48 231.81 125.13 229.5 129.26 222.14 144.35 
M 195.19 187.37 193.77 189.17 189.31 193.76 
M 254.05 101.75 249.11 107.51 241.74 117.22 236.57 124.88 233.21 131.27 
M 231.14 135.75 226.75 145.12 
M 211.71 168.31 207.84 174.73 
M 205.38 179.13 201.66 185.4 198.97 189.12 197.54 190.76 
M 194.62 193.82 191.82 196.36 
M 258.37 101.64 253.65 107.17 246.61 116.75 241.46 124.53 239.02 128.82 237.92 131.09 
M 235.83 135.68 231.51 145.37 
M 262.54 101.53 258.24 106.8 253.71 112.93 246.41 124.11 243.85 128.45 241.48 133.03 238.39 140.21 
M 236.37 144.91 236.01 145.73 
M 223.37 166.06 220.6 170.34 
M 217.99 174.66 215.48 178.96 
M 213.01 183.14 210.53 187.1 
M 266.6 101.54 262.85 106.26 258.31 112.59 253.77 119.61 248.67 128 246.11 132.55 243.78 137.32 240.73 144.61 
M 225.57 170.34 223.02 174.62 
M 218.09 183.05 215.64 187.04 
M 270.75 101.55 267.51 105.63 262.87 112.23 258.37 119.27 250.71 132.03 248.14 136.7 245.85 141.54 243.72 146.65 
M 234.44 163.79 233.01 166.03 
M 230.42 170.23 225.54 178.7 
M 223.11 182.8 220.67 186.76 
M 275.08 101.62 272.26 105.07 269.81 108.43 265.18 115.39 252.54 136.11 251.27 138.46 
M 239.57 162.71 237.66 165.81 
M 235.16 169.98 232.78 174.23 
M 279.54 101.91 277.13 104.72 274.59 108.04 269.77 115.18 254.31 140.2 251.86 144.84 250.81 147.19 
M 242.31 165.55 239.88 169.7 
M 228.02 189.27 225.54 192.73 
M 284.18 102.21 279.51 107.84 275.74 113.17 
M 273.28 116.91 258.82 139.84 256.25 144.29 254.37 148.02 
M 249.07 160.8 248.07 163.12 245.85 167.44 242.34 173.55 
M 240.01 177.5 237.66 181.31 
M 288.84 102.59 284.34 107.91 281.9 111.26 273 124.75 
M 270.3 128.95 263.35 139.73 259.59 146.23 
M 254.21 158.44 252.57 162.69 250.57 167.19 249.47 169.27 
M 242.54 180.82 237.64 187.72 
M 293.46 103.01 289.04 108.18 286.66 111.41 280.52 120.63 
M 277.87 124.69 267.94 139.79 265.3 144.04 262.81 148.51 
M 259.55 155.81 255.18 166.8 254.17 168.94 
M 252.05 173.05 250.95 175.02 247.49 180.42 
M 245.07 183.81 240 190.19 
M 298 103.43 294.94 106.98 
M 292.52 110.07 290.15 113.38 
M 287.78 116.93 281.47 126.73 272.67 139.88 269.95 144.15 267.07 149.18 
M 265.22 153.01 262.52 159.41 
M 260.63 163.99 258.7 168.44 
M 247.6 186.49 245.02 189.52 
M 242.37 192.39 238.29 196.42 
M 302.43 103.88 298.47 108.62 293.63 115.31 283.6 131.08 274.77 144.22 272.22 148.4 269.1 154.81 
M 267.2 159.21 265.29 163.63 
M 252.58 185.94 248.8 190.34 244.75 194.33 
M 306.96 104.35 303.39 108.52 300.83 111.89 298.37 115.42 294.74 121.06 
M 292.35 125.02 288.62 131.24 284.29 137.72 
M 281.29 142.04 277.12 148.41 275.99 150.53 
M 270.08 163.41 268.04 167.61 
M 265.86 171.63 263.66 175.4 
M 311.6 104.85 308.61 108.28 303.27 115.34 300.75 119.14 297.1 125.18 
M 294.77 129.34 291.06 135.73 289.64 137.87 
M 286.7 142.13 282.3 148.37 279.85 152.6 273.99 165.37 270.66 171.33 
M 266.06 178.47 263.89 181.69 
M 257.31 190.41 254.82 192.98 
M 316.34 105.38 311.26 111.43 305.79 118.99 303.16 123.07 300.78 127.29 296.29 135.9 293.71 140.18 292.27 142.28 
M 289.32 146.42 285.12 152.62 283.98 154.74 
M 279.88 163.18 276.72 169.25 275.52 171.15 
M 273.08 174.79 270.63 178.18 
M 268.3 181.33 266.09 184.29 
M 263.95 187.1 261.77 189.78 
M 259.48 192.32 257.03 194.66 
M 321.13 105.93 316.77 111.12 313.97 114.76 308.37 122.84 305.78 127.16 299.07 140.3 296.42 144.52 290.58 152.74 289.3 154.83 
M 286.91 159.01 281.56 169.17 279.14 172.93 275.26 178.02 
M 272.73 181.13 270.34 184.03 
M 265.95 189.33 263.78 191.75 
M 325.74 106.66 319.51 114.45 313.84 122.49 311.07 126.86 308.56 131.35 302.93 142.45 
M 300.35 146.66 293.24 157.05 290.73 161.2 287.37 167.23 
M 285.07 171.05 283.88 172.91 281.28 176.36 272.22 186.59 
M 330.28 107.43 324.91 114.28 319.39 122.14 316.52 126.48 313.79 130.99 307.84 142.33 
M 305.38 146.64 297.03 159.24 
M 294.4 163.35 290.81 169.29 287.19 174.7 
M 284.58 177.99 281.84 181.04 
M 279.09 183.89 274.04 188.99 
M 334.87 108.23 330.15 114.29 327.51 117.93 319.08 130.61 316.35 135.18 308.93 148.6 302 159.3 
M 299.21 163.44 292.93 173.13 290.47 176.54 287.85 179.68 283.71 183.94 
M 280.96 186.56 278.33 188.99 
M 339.49 109.18 330.04 121.88 324.33 130.34 320.06 137.1 
M 317.41 141.62 314.89 146.06 
M 312.33 150.44 308.3 157.02 301.33 167.52 
M 296.24 174.98 292.47 179.86 289.81 182.75 287.04 185.42 282.92 189.05 
M 344.28 110.16 335.4 122.04 329.5 130.26 323.62 139.06 319.6 145.68 
M 317.01 150.02 311.68 158.76 
M 308.94 163.16 303.54 171.41 
M 300.94 175.07 297.14 180.02 293.21 184.29 
M 287.73 189.21 285 191.35 
M 349.23 111.17 343.81 118.61 337.88 126.23 331.7 134.59 325.8 143.27 319.08 153.85 
M 316.4 158.12 307.11 173.16 304.53 176.84 299.38 183.1 296.76 185.83 292.68 189.43 
M 354.3 112.22 349.4 119 340.21 130.48 333.88 138.88 322.51 155.47 318.45 161.71 
M 315.79 166.01 310.64 174.47 
M 302.98 184.55 299.04 188.48 294.95 191.77 
M 359.39 113.23 354.95 119.39 352.06 123.13 342.41 134.71 337.63 140.97 
M 331.71 149.36 324.6 159.1 321.87 163.08 314.14 175.68 310.4 181.23 
M 364.48 114.18 361.62 118.06 
M 358.91 121.71 354.45 127.31 344.55 138.92 341.37 143.05 335.39 151.34 326.71 162.7 322.68 168.59 
M 369.53 115.12 359.75 127.8 349.93 139.15 346.7 143.15 339.09 153.32 
M 336.09 157.15 333.13 160.84 
M 330.25 164.49 324.86 172.06 
M 374.49 116.14 364.84 128.39 355.27 139.58 350.47 145.46 
M 347.38 149.48 344.32 153.48 
M 341.27 157.35 335.29 164.6 
M 332.42 168.16 328.36 173.65 324.6 179.29 
M 322.15 182.89 319.68 186.21 
M 379.45 117.17 366.8 132.72 357.26 143.96 349.54 153.8 
M 346.48 157.67 336.02 170.06 331.95 175.35 
M 329.37 178.92 325.63 184.14 321.9 188.72 
M 384.26 118.39 362.37 144.58 350.13 159.99 342.6 168.73 
M 336.92 175.39 331.66 182.1 
M 326.61 188.27 324.09 190.92 
M 388.91 119.76 378.62 131.97 
M 375.34 135.8 372.13 139.58 
M 368.97 143.36 365.87 147.19 
M 362.83 151.03 355.26 160.49 347.71 169.19 
M 341.97 175.62 339.23 178.8 
M 393.49 121.12 374.01 143.99 
M 370.86 147.86 367.81 151.71 
M 361.84 159.22 358.82 162.84 
M 352.78 169.67 344.26 179.02 
M 341.55 181.98 338.88 184.85 
M 336.23 187.58 333.61 190.1 
M 397.64 122.86 394.74 126.38 380.69 142.54 363.88 163.44 
M 357.85 170.2 352.04 176.46 
M 343.85 184.92 338.5 189.86 
M 401.65 124.57 396.55 130.59 389.12 138.72 385.66 142.78 380.86 148.9 
M 377.79 152.9 368.9 164.04 
M 365.92 167.47 357.05 176.97 
M 405.55 126.23 401.84 130.62 390.57 142.85 385.7 149.1 
M 382.67 153.24 378.27 159.17 372.42 166.36 364.94 174.46 
M 359.22 180.4 356.49 183.15 
M 406.65 130.94 395.52 142.83 392.06 147 390.49 149.14 
M 387.45 153.4 383.1 159.59 378.8 165.12 
M 375.88 168.55 367 178.01 
M 406.65 136.41 400.56 142.81 396.97 146.96 393.75 151.25 385.04 163.85 382.19 167.45 374.84 175.46 
M 369.07 181.38 366.28 184.11 
M 406.65 141.9 402.06 146.97 398.73 151.22 391.25 162.17 
M 388.39 166.14 385.51 169.71 
M 379.69 175.99 373.96 181.83 
M 406.65 147.96 405.6 149.24 
M 402.3 153.49 394.7 164.52 391.78 168.48 388.85 171.98 384.48 176.59 
M 406.65 154.86 399.76 164.59 395.23 170.56 
M 406.65 162.1 406.39 162.46 
M 403.35 166.66 400.3 170.63 
M 405.35 170.57 402.3 174.21 
M 399.27 177.57 396.92 180.12 
M 166.76 105.67 166.76 105.67 
M 170.67 105.1 176.01 71.76 178.02 69.6 180.98 68.38 183.74 66.97 185.6 64.66 186.58 61.46 189.71 56.25 192.66 55.03 195.01 53.27 196.57 50.72 197.59 47.63 199.13 45.05 203.5 41.28 206.07 39.81 208.91 38.52 212.32 38.01 215.68 37.72 218.74 37.15 221.51 36.29 223.21 33.86 225.1 31.57 227.7 30 230.46 31.6 233.07 33.6 236.35 34.91 241.63 35.43 243.4 36.9 245.87 38.23 249.27 37.73 253.15 37.73 256.35 37.21 259.07 36.2 261.42 34.7 264.08 33.37 266.72 32.55 268 35.05 272.92 43.07 273.52 45.58 274.67 48.63 274.46 50.29 277.26 56.52 278.6 58.34 280.96 59.87 282.63 62.06 285.08 68.1 292.34 76.99 291.82 79.33 290.89 81.25 290.18 83.4 291.6 88.42 289.67 102.67 
M 286.21 102.35 286.21 102.35 
M 171.64 104.96 172.86 103.72 173.63 101.28 174.71 98.77 175.46 96.01 175.74 93.59 177.11 87.74 176.44 81.82 177.64 78.64 
M 176.51 104.25 177.61 102.96 178.13 97.92 178.95 95.39 180.25 92.52 181.43 90.37 182.08 87.59 181.46 80.18 181.63 76.38 181.23 74.6 181.01 69.51 182.64 67.24 
M 181.4 103.63 182.67 101.94 183.46 97.06 184.37 94.11 186.84 88.51 187.44 85.23 186.77 82.17 187.41 80.09 187.91 77.43 187.71 73.53 
M 186.3 103.11 187.27 101.02 187.93 98.54 188.39 95.92 189.62 92.82 191.2 89.53 191.54 85.95 192.53 83.81 192.31 82.04 193.29 77.64 193.59 73.28 193.18 67.95 194.15 65.67 194.71 63.01 
M 191.2 102.61 192.23 100.49 193.89 95.3 194.96 93 195.57 89.89 196.69 86.85 197.07 81.59 198.45 78.77 198.69 75.67 201.24 68.82 201.78 66.09 201.12 62.61 201.73 59.45 202.48 56.86 204 54.69 
M 196.12 102.34 197.92 100.39 200.48 92.63 201.25 89.67 202.2 86.95 203.21 81.62 204.71 75.99 205.1 73.54 206.28 70.64 
M 201.04 102.07 202.74 100.13 203.73 97.31 205.14 92.12 207.32 87.09 207.79 84.8 208.79 82.46 209.37 79.07 210.03 72.66 211.73 68.74 213.05 66.17 213.33 63.94 213.98 62.03 215.2 60.09 214.02 56.82 214.2 53.62 215.23 51.28 216.08 48.13 217.51 45.17 217.78 42.32 218.56 39.59 220.18 36.93 
M 205.97 101.9 207.2 99.67 209.09 94.28 211.96 89.39 212.44 86.71 213.56 84.34 213.33 81.77 214.64 79.08 215.45 76.35 216.19 72.95 217.76 70.24 218.5 67.66 218.77 64.85 219.72 62.89 220.33 60.37 220.62 57 221.52 53.3 223.24 49.58 224.13 46.88 224.09 45.38 225.76 42.96 226 40.18 226.12 34.63 
M 210.89 101.78 212.39 99.78 215.99 92.1 217.63 86.18 218.1 81.9 218.05 80.08 219.1 76.47 220.44 73.2 223 70.02 223.82 67.75 224.86 66.07 226.81 61.26 226.97 58.01 226.64 53.77 226.13 50.8 
M 215.82 101.67 219.19 97.97 220.1 95.03 222.33 88.88 223.46 83.6 223.74 78.55 226.56 72.85 228.13 70.94 229.94 65.72 
M 220.74 101.62 222.45 99.71 224.43 94.97 225.52 92.36 226.45 86.86 227.89 83.98 228.74 80.96 230.4 78.57 232.15 74.02 233.05 72.12 235.04 62.71 235.08 60.15 236.18 57.03 236.6 53.62 236.54 50.25 237.26 46.87 
M 225.67 101.57 227.26 99.84 228.17 97.74 229.59 91.97 230.69 89.29 232.23 86.81 234.19 81.26 235.55 79.16 237.74 73 238.69 67.92 
M 230.6 101.62 232.44 99.93 233.15 97.64 237.27 90.57 239.03 87.95 240.51 80.42 241.27 77.81 241.83 74.86 243.15 72.46 243.51 70.52 244.63 67.38 245.34 64.71 245.45 63 
M 235.52 101.69 237.3 99.89 238.13 97.61 241.11 92.33 242.83 90.36 243.7 87.88 245.3 80.91 246.82 77.53 247.34 74.86 247.22 72.76 248.87 67.46 250.63 66.4 251.68 64.59 251.99 61.77 253.94 58.51 254.76 55.69 255.52 52.18 256.74 48.46 256.9 45.22 
M 240.45 101.76 242.45 99.97 244.02 97.62 245.32 94.86 245.83 92.07 246.09 89.59 247.02 87.47 247.69 84.24 249.53 81.34 250.84 78.44 251.92 75.46 252.24 72.94 253.61 70.73 254.39 67.99 256.02 66.39 256.38 63.89 256.52 60.86 259.74 55.75 260.37 52.05 
M 245.38 101.8 247.38 99.88 249.17 97.79 250.41 95.11 251.41 89.61 252.05 87.02 253.43 84.05 255.29 81.5 256.47 79.2 258.73 73.81 259.52 71.24 260.79 68.14 260.96 65.52 261.4 63.83 262.17 62.16 263.28 58.42 265.37 54.03 265.84 50.3 267.33 47.86 267.09 43.91 268.19 41.9 268.98 39.27 
M 250.3 101.85 252.3 100.27 254.4 95.47 256.26 89.37 258.69 84.59 260.57 82.9 261.71 80.45 263.62 73.65 264.58 66.82 266.84 63.06 267.43 60.33 269.45 57.12 270.29 53.36 271.42 51.35 271.63 49.15 271.13 47.36 
M 255.23 101.72 256.99 100.29 257.69 97.86 258.91 95.42 259.87 92.37 261.58 89.12 263.6 84.59 265.26 82.32 265.32 79.09 266.29 76.29 267.47 73.62 267.81 69.22 269.24 65.58 271.58 62 273.87 59.57 
M 260.16 101.59 262.14 99.79 263.41 97.57 265.81 92.75 268.54 84.31 269.77 81.3 270.03 78.54 270.92 77.01 
M 265.08 101.54 267.65 99.91 270.22 94.88 270.76 92.56 271.68 89.95 272.1 88.03 273.1 84.95 273.56 82.57 274.48 79.61 
M 270.01 101.55 272.22 99.99 273.17 98.01 274.1 95.62 275.46 93.05 276.29 90.43 277.49 87.99 278.65 82.6 280.17 79.8 
M 274.94 101.61 276.54 101.06 277.86 99.2 280.71 93.65 281.81 90.82 282.9 88.82 284.15 85.85 
M 279.85 101.93 282.34 101.37 284.18 99.44 287.21 94.98 
M 125.07 144.97 137.09 144.22 146.93 143.27 149.85 143.39 152.82 143.01 161.77 143.15 164.69 142.9 167.56 143.4 170.21 143.48 179.41 141.97 185.06 141.96 188.24 141.77 191.16 141.96 194.19 142.41 203.66 142.99 209.9 144.1 215.24 144.5 221.1 144.53 226.97 145.14 229.9 145.19 236.24 145.74 239.24 146.22 242.24 146.23 245.14 147.05 247.8 147.57 263.51 148.54 271.19 150.06 253.34 158.87 246.82 159.58 242.02 162 236.27 163.49 230.09 164.32 224.22 165.45 218.9 167.1 210.08 168.57 207.02 168.92 204.28 169.61 201.12 169.88 194.72 169.36 191.89 169.37 189.49 169.82 177.13 168.93 172.1 169.66 169.22 169.67 166.13 169.42 162.75 168.51 156.59 167.32 154.13 167.35 149.13 166.79 134.59 161.55 130.24 159.69 124.97 156.73 
M 124.97 146.45 134.38 146.45 140.32 146.14 147 146.07 155.86 146.38 164.69 146.37 167.82 147.08 170.82 147.44 173.68 146.99 182.77 146.45 192.13 147.57 
M 124.97 147.93 128.54 148.3 134.59 148.58 140.57 148.45 155.93 149.73 161.68 149.59 165.11 150.33 171.74 151.26 174.56 151.34 177.27 151.16 183.34 151.42 186.4 151.95 189.3 153.23 192.19 153.88 194.47 154.04 200.12 155.3 206.74 157.23 209.53 157.26 212.72 157.89 218.15 158.33 220.98 158.97 
M 124.97 149.41 128.58 150.01 134.61 150.54 140.57 150.69 150.04 152.56 153.38 152.87 158.57 152.84 161.57 153.16 171.56 155.61 179.61 156.41 
M 134.75 152.51 137.6 152.89 140.57 153.07 143.81 153.74 147.26 154.8 152.92 156.17 158.48 156.45 161.53 156.97 165.07 158.14 
M 124.97 152.36 131.91 154 140.49 155.57 147.07 157.8 152.49 159.22 158.38 160.53 161.2 161.69 164.43 162.39 170.53 165.23 175.63 166.74 180.68 168.85 
M 128.71 155.06 134.78 156.81 137.28 157.34 149.16 161.84 
M 134.8 158.9 137.17 160.24 
M 166.76 198.24 169.12 202.22 171.04 204.99 176.14 210.06 179 211.74 181.86 214.09 183.49 216.19 185.07 219.29 186.66 221.5 187.68 224.08 194.23 232.26 196.75 234.36 192.54 239.81 191.39 242.71 191.12 246.49 189.91 252.69 189.48 255.67 188.29 257.99 186.59 259.99 186.13 263.24 185.46 266.27 183.73 268.54 180.33 268.92 174.73 270.87 171.98 272.31 165.31 280 166.62 278.59 167.22 276.03 165.73 273.11 164.31 269.6 162.87 266.79 163.7 262.78 163.91 258.72 162.79 255.51 162.25 251.82 162.24 249.92 161.05 246.91 161.62 244.17 162.08 240.39 162.14 237.27 160.82 231.69 159.51 228.57 158.91 225.5 158.78 222.04 158.41 218.16 158.56 214.41 157.73 211.4 157.56 208.3 156.53 202.32 155.65 199.43 154.82 195.31 
M 164.85 197.77 168.58 204.78 170.41 207.77 172.77 210.36 175.03 213.19 177.55 215.28 179.11 217.65 181.33 220.45 184.21 226.37 
M 162.94 197.3 165.07 201.29 166.46 204.53 167.5 207.57 169.52 210.41 171.08 213.6 177.85 225.14 
M 161.02 196.83 164.51 204.08 165.36 207.11 167.58 213.46 169.05 216.68 170.84 219.67 173.06 224.97 174.56 228.02 175.45 230.23 178.69 240.2 180.9 242.73 183.54 244.88 185.1 247.27 185.38 249.55 
M 159.11 196.36 162.25 203.21 163.14 206.39 164.32 212.52 165.37 216.47 166.73 219.62 168.1 222.13 168.32 224.89 169.75 227.49 169.68 230.99 171.31 233.37 176.4 247.99 178.24 249.89 179.1 252.43 180.69 256.01 181.72 258.99 
M 157.19 195.89 158.7 199.98 160.38 205.78 160.5 208.69 161.6 211.52 163.22 218.09 163.81 222.4 163.58 225.58 164.24 228.56 165.3 231.56 167.74 237.27 167.56 240.93 
M 357.88 191.66 362.35 197.88 365.51 201.65 361.25 203.65 358.22 202.1 355.18 202.6 352.4 203.54 349.05 203.6 342.95 204.39 340.66 206.08 338.02 207.5 334.86 208.41 332.58 210.2 329.82 211.46 327.04 212.57 323.85 213.08 318.45 215.24 316.86 217.59 314.47 219.24 311.01 219.01 308.6 220.22 305.8 221.21 302.97 222 299.45 222.21 296.18 222.92 293.67 226.4 289.17 228.83 288.13 226.82 283.86 221.88 282.41 219.49 279.72 212.59 278.45 208.61 276.86 205.14 274.27 201.04 
M 353.04 192.56 358 198.86 
M 348.2 193.46 354.3 198.55 
M 343.37 194.44 349.76 199.05 
M 338.55 195.48 343.82 200.4 
M 333.73 196.51 339.8 201.07 
M 328.89 197.4 332.5 203.02 
M 324.04 198.28 327.01 204.13 
M 319.16 198.92 322.18 204.14 
M 314.25 199.4 317.95 203.19 320.51 206.12 
M 309.34 199.83 312.49 205.5 314.68 209.02 
M 304.42 200.09 307.59 205.82 309.55 209.74 311.71 212.23 
M 299.5 200.34 302.63 205.81 307.48 212.49 
M 294.58 200.51 299.83 209.5 305.49 218.67 
M 289.65 200.65 294.41 208.96 296.74 212.48 297.52 216.36 
M 284.73 200.79 287.15 204.93 288.53 208.59 290.93 216.25 292.45 220.05 
M 279.8 200.91 282.22 204.84 283.75 208.53 284.82 212.87 286.19 216.28 286.8 219.97 289.19 223.01 
M 405.66 126.28 408.84 125.17 411.65 123.72 421.78 117.92 426.96 115.77 429.51 114.02 432.21 112.93 438.12 109.92 440.53 109.07 442.59 106.32 445.11 103.66 449.97 99.46 452.99 98.4 455.65 96.34 458.65 95.05 461.16 93.36 463.21 92.35 466.48 91.78 469.67 89.78 472.38 87.78 474.99 87.14 477.23 85.92 479.08 84.16 482.59 81.63 484.61 79.33 487.23 77.48 489.73 77.3 468.95 100.48 467.87 103.5 465.56 105.29 463.68 107.5 463.44 110.73 463.5 114.26 462.28 116.81 459.32 117.98 457.65 120.43 457.33 124.19 456.26 127.13 455.01 129.62 454.46 131.51 454.79 134.29 454.06 137.11 453.53 140.26 454.92 144.48 454.47 146.69 453.87 152.28 452.85 155.19 451.31 157.68 452.33 161.14 454.18 164.16 454.55 167.29 454.11 169.62 452.7 171.02 452.82 173.94 453.97 177.95 454.62 182.79 459.12 192.5 460.13 195.54 461.16 199.57 463.81 204.79 468.94 214.01 470.93 218.69 486.83 237.48 484.48 235.08 482.45 234.12 480.74 232.57 478.24 232.19 475.81 230.54 474.7 228.66 472.74 227.05 469.42 224.79 462.32 221.21 459.42 219.56 456.81 217.63 453.1 213.49 450.47 212.71 446.99 212.12 444.18 210.48 442.34 208.57 437.08 204.5 434.16 202.67 429.44 197.6 427.53 196.83 421.97 192.59 416.61 189.45 413.78 187.59 405.66 180.85 
M 409.1 128.29 411.92 126.5 419.84 122.5 422.58 121.33 425.63 120.68 428.28 119.86 430.1 117.91 432.86 116.23 438.58 114.29 444.17 110.26 446.77 108.76 453.06 105.54 
M 412.05 130 415.19 128.3 420.88 125.92 423.99 125.17 426.87 124 430.02 123.25 432.91 122.19 434.5 120.78 437.29 119.34 439.47 118.59 441.71 116.5 445.09 115.03 
M 408.93 134.09 412.2 133.13 415.52 131.44 418.47 130.68 421.42 130.29 424.6 128.89 427.94 128.36 430.95 127.31 433.54 127.3 438.68 124.8 
M 412.27 136.23 415.78 135.06 418.79 133.71 421.8 133.3 425.44 132.49 428.65 132.05 430.97 131.32 434.04 131.8 440.25 130.23 
M 412.84 139.49 416.21 138.51 418.98 137.24 422.24 136.25 425.54 135.83 429.1 134.91 431.62 134.88 440.46 134.24 443.37 132.32 448.5 132.39 451.88 131.22 453.38 128.75 
M 413.39 143.02 416.91 142.37 423.52 140.46 426.81 140.44 429.9 139.56 
M 410.07 146.53 414.02 146.48 420.98 145.74 423.85 145.14 427.21 145.87 430.37 145.63 432.28 144.19 434.98 143.56 
M 405.66 148.11 409.85 149.08 417.41 149.88 420.71 149.47 424.22 149.43 430.12 149.7 431.75 149.49 434.36 148.57 437.03 148.34 446.66 149.65 450.17 148.69 453.36 148.54 
M 410.07 151.77 413.74 152.28 417.42 153.12 421.26 153.6 424.21 153.33 429.33 153.21 431.32 154.42 434.55 153.98 
M 417.79 156.06 420.63 156.52 428.06 158.46 432.04 158.32 
M 413.97 158.81 417.29 159.08 420.43 159.94 422.47 160.93 425.34 160.86 429.05 161.35 432.54 161.52 435.33 161.37 441.46 162 
M 405.66 159.02 409.76 160.76 412.94 161.89 419.42 163.56 423.16 163.9 430.23 164.11 
M 416.47 165.79 419.56 167.34 423.08 167.93 427.53 167.59 430.77 168.43 435.66 170.11 437.64 169.93 441.88 171.34 445.61 172.37 
M 416.16 169.43 419.35 169.92 429.6 172.1 432.43 173.35 
M 409.41 169.03 416.18 172.41 419.43 173.14 422.65 173.35 426.29 174.3 429.5 174.78 432.85 176.1 436.07 178.8 439.2 180.75 441.9 181.08 
M 412.91 173.69 416.67 174.72 419.81 176 422.2 177.39 425.37 177.91 428.51 178.85 431.96 180.27 438.42 184.77 441.57 186.04 443.93 187.24 445.34 189.23 447.64 190.68 
M 409.21 175.02 416.18 178.39 419.26 180.15 422.22 180.73 427.77 182.35 431.44 184.59 434.17 187.18 437.51 189.38 439.86 190.58 442.16 191.27 443.9 192.19 447.61 193.75 450.31 194.69 452.53 196.72 455.95 199.43 
M 405.66 175.39 415.3 182 418.04 183.4 420.82 184.17 424.31 184.66 427.41 186.11 430.13 188 432.72 190.61 435.21 192.68 437.44 193.22 
M 408.82 180.56 414.3 185.04 416.98 186.78 420.13 187.61 422.94 188.73 426.51 189.7 428.8 192.05 431.37 193.97 433.54 195.32 438.62 199.15 445.02 205.95 
M 391.72 182.93 387.71 183.68 386.28 184.98 384.15 188.39 382.12 188.75 378.3 186.68 376.11 186.03 374.03 186.22 372.01 186.48 370.63 187.84 367.86 189.88 369.83 189.83 
M 42.1 157.6 42.48 156.7 45.98 150.78 48.67 147.45 52.28 144.31 56.83 141.38 61.96 138.6 66.8 135.47 71.74 131.8 77.38 128.21 83.57 125.11 96.53 119.5 107.93 115.45 118.96 112.16 121.72 116.54 122.46 120.69 123.46 124.89 124.71 129.12 125.48 133.27 125.56 137.32 125.04 145.3 123.7 149.11 122.75 152.99 121.53 156.83 118.05 164.33 117.27 168.24 114.94 175.93 113.25 179.69 110.82 183.34 107.04 186.68 97.04 186.06 89.71 185.24 83.25 184.16 77.44 183 72.05 181.69 66.9 180.11 62.15 178.38 57.98 176.55 54.26 174.5 
M 104.45 140.75 103.94 144.15 100.65 150.36 98.74 153.09 94.68 157.74 93.58 162.12 93.27 166.4 92.79 168.75 91.38 171.34 70.92 170.58 66.5 170.06 62.14 169.06 58.1 167.65 
M 52.31 173.96 49.9 171.83 43.98 167.1 38.66 162.13 38.07 159.69 39.59 157.68 42.06 157.57 43.76 159.25 46.35 163.37 54.37 174.38 
M 53.99 175.25 44.05 176.18 33.92 176.75 31.49 176.04 30.26 173.73 31.25 171.56 33.63 170.8 43.59 172.58 54.04 174.23 
M 69.56 152.34 68.39 147.92 68.72 143.36 70.52 139.16 73.58 135.76 77.58 133.55 82.08 132.75 86.6 133.46 90.64 135.59 93.77 138.92 95.64 143.09 96.07 147.64 94.99 152.09 92.53 155.94 88.95 158.78 84.64 160.31 80.07 160.35 75.73 158.91 72.09 156.14 69.56 152.34 
M 69.39 151.95 68.83 150.32 68.48 148.64 68.33 146.92 68.4 145.2 68.69 143.5 69.18 141.86 69.87 140.28 70.75 138.8 71.81 137.44 73.03 136.23 74.38 135.17 75.86 134.29 77.44 133.6 79.09 133.11 80.78 132.82 82.5 132.75 84.22 132.89 85.9 133.25 87.53 133.81 
M 71.21 151.19 70.73 149.8 70.3 146.88 70.37 145.41 70.82 143.24 
M 70.87 143.06 71.62 141.18 72.92 139.22 
M 74.42 137.63 76.76 136.04 78.12 135.45 80.99 134.78 83.94 134.84 86.78 135.63 
M 73.03 150.44 72.38 148.07 72.27 146.84 72.33 145.61 72.68 143.89 
M 75.81 139.04 77.67 137.79 78.79 137.3 81.19 136.74 83.65 136.79 86.02 137.45 
M 74.85 149.69 74.53 148.75 74.24 146.8 74.57 144.44 
M 77.24 140.42 78.57 139.55 79.47 139.15 81.39 138.7 83.37 138.74 85.27 139.27 
M 77.15 148.92 76.69 147.15 76.82 145.33 77 144.89 
M 78.94 142.19 80.36 141.4 82.16 141.08 83.97 141.36 85.59 142.22 86.84 143.55 87.59 145.22 87.76 147.04 87.33 148.82 86.34 150.36 84.91 151.49 83.19 152.1 81.36 152.12 79.62 151.55 78.17 150.44 77.15 148.92 
M 80.17 141.51 79.51 142.82 
M 78.4 145.04 76.91 148.01 
M 81.83 141.14 80.43 143.94 
M 79.92 144.97 77.6 149.59 
M 83.25 141.25 78.52 150.71 
M 84.53 141.66 79.59 151.52 
M 85.68 142.32 80.86 151.96 
M 86.64 143.34 82.26 152.11 
M 87.4 144.79 83.86 151.87 
M 87.76 147.03 85.93 150.69 
M 44.29 160.11 45 160.83 
M 44.05 153.96 47.25 157.16 
M 46.34 150.34 51.83 155.83 
M 49.04 147.12 54.37 152.46 
M 52.2 144.38 55.34 147.51 
M 55.79 142.05 61.66 147.93 
M 59.55 139.9 63.98 144.33 
M 63.3 137.73 68.78 143.22 
M 66.88 135.41 70.57 139.1 
M 70.27 132.89 73.38 135.99 
M 73.79 130.49 77.11 133.81 
M 77.4 128.19 81.98 132.77 
M 81.35 126.22 85.19 130.06 
M 85.35 124.32 88.64 127.6 
M 89.45 122.5 93.96 127.01 
M 93.6 120.74 97.09 124.23 
M 97.8 119.03 101.15 122.38 
M 102.12 117.43 106.26 121.58 
M 106.53 115.93 110.34 119.74 
M 111.01 114.5 116.71 120.2 
M 115.58 113.15 120.85 118.43 
M 102.41 144.5 103.23 145.88 104.83 146.95 105.53 147.23 110.18 147.82 
M 67.01 142.31 66.02 142.09 63.93 141.29 62.64 141.06 61.38 141.15 60.18 141.69 
M 98.41 152.6 100.25 153.99 101.36 154.17 102.17 153.94 
M 117.96 112.55 119.04 112.3 
M 67.66 139.28 67.79 139.83 67.64 140.4 67.36 140.66 66.47 140.99 
M 115.26 147.36 116.01 147.89 116.85 149.35 117.9 149.97 
M 74.08 182.19 75.6 181.57 78.73 180.83 
M 114.5 117.85 112.73 116.73 112.08 116.05 111.13 114.46 
M 113.28 161.84 112.44 160.43 111.55 158.42 111.68 157.32 113.04 155.27 
M 81.4 176.23 81.63 175.33 82.34 174.06 83.25 173.46 84.28 173.48 84.78 173.81 86.23 175.9 86.54 177.41 
M 63.12 178.5 62.89 175.83 62.61 174.93 61.9 174.03 58.69 171.33 56.9 169.03 56.48 167.86 
M 81.02 160.34 80.29 160.56 78.52 161.58 77.19 163.05 
M 117.82 115.73 120.3 114.29 
M 48.49 150.99 50.4 152.45 51.92 154.37 53.61 155.5 
M 102.26 184.62 103.87 182.55 104.42 181.04 104.81 178.9 104.58 177.48 103.05 174.7 102.43 173.05 
M 103.43 139.34 99.8 140.74 97.48 141.99 96.55 142.87 96.26 143.4 96.05 145.16 
M 112.94 115.82 111.95 114.21 
M 104.73 149.3 105.37 149.12 106.56 149.09 108.4 149.36 110.28 150.07 111.7 149.97 
M 59.54 173.29 58.37 172.45 57.47 171.47 56.46 170.02 56.25 169.2 56.27 167.86 56.52 167.35 
M 95.66 123.79 94.82 125.22 93.58 128.1 92.71 129.47 92.4 130.78 92.43 131.59 
M 115.87 171.44 116.11 171.8 
M 63.09 143.62 61.09 143.08 60.12 143.02 58.99 143.3 57.12 143.22 56.2 143.06 55.04 142.53 
M 121.15 156.79 121.57 156.7 
M 92.48 184.28 93.83 183.14 94.87 180.9 95.29 179.44 
M 75.71 158.9 75.3 159.67 74.99 161.46 74.69 162.28 72.06 165.08 
M 122 142.27 121.55 142.97 119.9 144.09 
M 122.71 134.07 123.44 138.63 
M 63.78 137.42 64.11 137.84 64.69 137.96 
M 120.07 120.67 119.33 121.72 118.76 123.06 117.94 124.43 116.83 126 116.28 126.56 114.08 127.74 
M 76.47 160.62 75.07 162.59 72.55 164.73 71.3 166.12 
M 96.34 184.65 97.04 183.97 98.83 182.85 99.73 182.05 100.4 181.25 101.34 179.67 101.87 178.39 102.3 176.09 102 173.68 
M 90.85 170.73 90.16 172.56 89.6 176.5 89.06 177.49 86.94 178.65 85.86 178.95 
M 52.14 159.8 56.63 158.7 57.97 158.09 58.47 157.65 59.11 156.21 59.17 155.25 59.05 152.88 58.73 151.72 58.22 150.75 
M 100.56 147.37 99.69 149.14 98.38 150.65 98.07 151.24 98.22 151.74 99.31 152.81 
M 62.58 178.54 62.27 175.79 61.83 174.8 60.85 173.83 58.51 172.13 56.58 169.72 56.38 168.85 
M 118.02 138.38 119.42 139.47 120.35 140.46 121.15 141.95 121.17 142.59 
M 108.65 140.61 107.68 140.38 106.34 140.31 105.6 140.71 105.69 141.23 
M 97.79 181.81 99.16 179.71 100.39 175.49 100.78 173.07 100.64 172.19 100.09 170.92 
M 77.59 182.53 79.68 181.6 80.93 180.85 83.08 179.07 84.07 177.73 84.58 177.34 85.7 177.06 86.19 177.4 
M 89.05 167.24 88.98 168.04 88.64 168.91 87.55 170.31 86.28 172.69 86.29 173.46 86.85 176.57 86.84 177.2 86.42 178.08 
M 102.57 168.03 100.31 167.5 99.69 167.59 98.19 168.21 96.29 168.12 95.16 168.26 
M 104.17 183.32 105.07 180.75 105.3 178.49 104.8 177.19 103.6 175.38 102.45 172.73 
M 60.84 145.8 58.92 145.79 56.02 145.45 54.38 144.46 53.53 143.5 
M 118.81 123.69 116.69 126.55 114.33 127.86 112.26 128.7 111.06 129.82 
M 54.07 162.52 54.51 161.67 55.12 161.08 58.36 159.53 58.85 158.99 59.69 157.51 59.92 156.57 59.96 155.53 59.69 153.08 59.31 151.89 
M 60.33 177.3 60.05 175.81 59.39 174.5 58.2 173.62 55.89 170.96 55.64 170.1 56.16 167.98 
M 89.39 158.83 90.14 158.53 90.78 158.02 91.78 156.53 
M 101.42 147.75 101.23 150.03 100.89 151.84 101.31 152.62 101.94 152.86 
M 94.18 137 94.39 135.68 93.82 134.31 
M 61.96 159.14 61.98 154.05 61.76 152.51 61.34 151.16 60.41 149.79 59.53 149.1 58.57 148.56 57.76 148.4 
M 54.26 174.49 54.95 175.24 
M 48.23 170.48 47.25 171.82 46.9 173.52 47.65 172.26 49.25 171.3 
M 43.16 166.28 40.41 169.35 39.51 172.52 40.8 169.78 44.19 167.28 
M 38.55 161.67 33.57 166.87 32.12 171.52 33.96 167.31 39.5 162.91 
M 54.02 174.5 55.27 174.56 
M 46.8 173.1 47.38 170.8 48.46 169.44 47.97 170.82 48.35 173.31 
M 40.04 171.93 40.76 167.09 42.64 164.37 41.35 167.12 41.63 172.21 
M 33.28 170.91 34.15 163.38 36.81 159.3 34.74 163.41 34.9 171.04 
M 41.11 176.37 44.85 177.69 48.42 178.73 52.02 179.46 55.66 179.91 59.36 180.11 66.9 180.11 
M 44.9 177.71 46.31 176.99 47.01 176.15 
M 52.49 179.15 52 179.16 51.66 179.39 
M 122.48 120.76 122.67 120.95 
M 121.24 111.65 128.39 118.79 
M 127.87 110.39 137.14 119.66 
M 134.76 109.4 142.59 117.23 
M 141.88 108.64 152.48 119.24 
M 149.08 107.95 155.65 114.52 
M 156.22 107.21 164.94 115.93 
M 163.1 106.2 169.1 112.2 
M 169.98 105.2 176.16 111.38 
M 176.86 104.2 187.49 114.83 
M 183.91 103.37 193.81 113.26 
M 191.05 102.62 202.44 114.01 
M 198.52 102.21 207.86 111.55 
M 206.09 101.9 213.1 108.9 
M 213.78 101.7 221.64 109.57 
M 221.57 101.61 230.6 110.64 
M 229.45 101.61 240.78 112.94 
M 237.45 101.72 247.9 112.17 
M 245.41 101.8 252.32 108.71 
M 253.26 101.77 262.16 110.66 
M 260.95 101.57 271.92 112.55 
M 268.81 101.55 280.44 113.18 
M 276.88 101.73 283.46 108.32 
M 285.32 102.29 294.35 111.33 
M 293.97 103.06 303.54 112.63 
M 302.7 103.91 309.16 110.36 
M 311.51 104.83 320.01 113.34 
M 320.4 105.85 330.95 116.39 
M 329.78 107.34 339.9 117.46 
M 339.51 109.18 348.58 118.26 
M 349.42 111.21 355.8 117.59 
M 359.31 113.22 370.27 124.18 
M 368.99 115.02 379.94 125.97 
M 378.92 117.06 387.9 126.04 
M 389.75 120.01 397.64 127.9 
M 402.59 124.97 412.99 135.37 
M 233.12 119.82 232.48 119.74 231.81 119.01 231.8 118.36 232.45 118.44 233.11 119.17 233.12 119.82 
M 233.2 119.21 232.56 119.31 231.72 118.79 231.53 118.16 232.17 118.06 233.01 118.58 233.2 119.21 
M 224.91 109.59 224.47 110.08 223.49 110.2 222.95 109.84 223.39 109.35 224.36 109.23 224.91 109.59 
M 224.26 110.39 223.81 109.92 223.76 108.93 224.16 108.42 224.61 108.89 224.66 109.87 224.26 110.39 
M 221.38 117.27 221.19 116.65 221.6 115.75 222.19 115.47 222.37 116.1 221.97 117 221.38 117.27 
M 221.15 115.96 221.78 116.14 222.33 116.96 222.25 117.6 221.62 117.43 221.07 116.61 221.15 115.96 
M 245.85 112.81 245.25 112.55 244.82 111.66 245 111.03 245.59 111.3 246.02 112.19 245.85 112.81 
M 246.05 111.52 245.64 112.02 244.66 112.18 244.11 111.84 244.53 111.34 245.5 111.18 246.05 111.52 
M 239.58 127.43 239.27 126.85 239.48 125.89 240 125.5 240.31 126.07 240.1 127.03 239.58 127.43 
M 239.18 126.03 239.8 126.23 240.32 127.06 240.22 127.71 239.59 127.51 239.07 126.68 239.18 126.03 
M 218.46 128.53 218.68 127.91 219.54 127.42 220.17 127.55 219.96 128.17 219.1 128.65 218.46 128.53 
M 219.36 127.29 219.52 127.92 219.09 128.81 218.49 129.06 218.32 128.43 218.76 127.55 219.36 127.29 
M 226.87 125.94 227.52 125.98 228.23 126.67 228.28 127.32 227.63 127.28 226.92 126.59 226.87 125.94 
M 228.32 126.53 227.73 126.81 226.78 126.55 226.42 126.01 227 125.73 227.95 125.99 228.32 126.53 
M 236.62 106.04 235.97 106.08 235.18 105.49 235.04 104.86 235.69 104.81 236.48 105.4 236.62 106.04 
M 235.35 104.87 235.9 105.22 236.19 106.16 235.92 106.76 235.37 106.41 235.08 105.47 235.35 104.87 
M 250.1 131.84 249.98 132.48 249.21 133.1 248.56 133.08 248.68 132.44 249.44 131.82 250.1 131.84 
M 248.78 132.97 249.1 132.4 250.03 132.08 250.64 132.32 250.31 132.88 249.38 133.21 248.78 132.97 
M 248.52 119.13 248.86 119.68 248.71 120.65 248.21 121.07 247.87 120.52 248.02 119.55 248.52 119.13 
M 249.1 119.92 248.54 120.26 247.57 120.1 247.15 119.6 247.71 119.26 248.68 119.42 249.1 119.92 
M 255.89 126.68 256.11 127.29 255.77 128.21 255.19 128.52 254.97 127.91 255.31 126.99 255.89 126.68 
M 255.57 126.85 255.74 127.48 255.32 128.37 254.72 128.63 254.55 128 254.97 127.11 255.57 126.85 
M 250 139.63 249.57 140.12 248.6 140.26 248.05 139.91 248.48 139.42 249.45 139.28 250 139.63 
M 248.44 140.24 248.8 139.7 249.75 139.43 250.34 139.72 249.98 140.26 249.03 140.52 248.44 140.24 
M 238.56 139.75 238.74 139.13 239.56 138.59 240.21 138.68 240.03 139.3 239.2 139.84 238.56 139.75 
M 238.67 139.44 239.2 139.06 240.18 139.16 240.63 139.64 240.09 140.01 239.11 139.91 238.67 139.44 
M 241.82 95.64 242.34 95.24 243.32 95.28 243.79 95.73 243.28 96.14 242.3 96.09 241.82 95.64 
M 242.72 94.94 242.99 95.54 242.71 96.48 242.16 96.83 241.89 96.24 242.17 95.29 242.72 94.94 
M 220.37 100.89 220.32 100.24 220.9 99.44 221.53 99.3 221.59 99.95 221.01 100.74 220.37 100.89 
M 221.27 99.41 221.19 100.06 220.46 100.72 219.81 100.74 219.89 100.09 220.61 99.43 221.27 99.41 
M 247.94 105.13 247.51 104.64 247.52 103.66 247.94 103.16 248.37 103.66 248.37 104.64 247.94 105.13 
M 247.21 103.97 247.86 103.93 248.65 104.52 248.79 105.15 248.14 105.2 247.35 104.61 247.21 103.97 
M 229.77 96.62 230.4 96.75 231 97.54 230.96 98.19 230.32 98.06 229.73 97.27 229.77 96.62 
M 230.54 98.13 230.2 97.58 230.36 96.61 230.87 96.19 231.21 96.75 231.04 97.72 230.54 98.13 
M 209.6 118.4 210.15 118.76 210.41 119.71 210.14 120.3 209.59 119.94 209.33 118.99 209.6 118.4 
M 209.23 119.74 209.66 119.25 210.63 119.11 211.18 119.46 210.75 119.96 209.78 120.1 209.23 119.74 
M 207.5 139.97 207.72 139.36 208.58 138.87 209.22 139 209 139.62 208.14 140.1 207.5 139.97 
M 207.97 138.84 208.46 139.27 208.6 140.25 208.24 140.8 207.75 140.37 207.62 139.39 207.97 138.84 
M 256.22 113.05 256.78 112.72 257.75 112.88 258.16 113.38 257.61 113.72 256.63 113.56 256.22 113.05 
M 256.56 113.63 256.98 113.12 257.95 112.96 258.5 113.29 258.09 113.8 257.12 113.97 256.56 113.63 
M 261.69 120.13 262.24 120.48 262.53 121.42 262.26 122.02 261.71 121.67 261.42 120.73 261.69 120.13 
M 262.5 120.54 262.21 121.12 261.29 121.49 260.67 121.27 260.97 120.69 261.89 120.33 262.5 120.54 
M 202.85 127.81 203.34 127.38 204.33 127.37 204.82 127.79 204.34 128.22 203.35 128.24 202.85 127.81 
M 204.09 128.51 203.7 127.99 203.76 127.01 204.21 126.54 204.61 127.06 204.55 128.04 204.09 128.51 
M 201.97 112.89 201.42 112.54 201.14 111.59 201.41 111 201.96 111.35 202.24 112.29 201.97 112.89 
M 201.59 111.2 201.87 111.79 201.6 112.74 201.05 113.09 200.78 112.5 201.05 111.55 201.59 111.2 
M 206.77 104.28 207.37 104.51 207.84 105.38 207.69 106.02 207.08 105.78 206.62 104.92 206.77 104.28 
M 207.26 104.4 207.43 105.03 207.01 105.92 206.41 106.18 206.24 105.55 206.66 104.66 207.26 104.4 
M 247.69 85.35 247.18 85.75 246.19 85.69 245.73 85.23 246.24 84.84 247.23 84.9 247.69 85.35 
M 246.12 84.83 246.73 85.06 247.21 85.92 247.07 86.56 246.46 86.33 245.98 85.47 246.12 84.83 
M 256.07 89.82 255.56 89.41 255.38 88.45 255.71 87.88 256.22 88.29 256.4 89.26 256.07 89.82 
M 255.8 88.11 256.07 88.7 255.79 89.65 255.24 90 254.98 89.4 255.25 88.46 255.8 88.11 
M 237.96 89.12 237.57 88.6 237.63 87.62 238.08 87.15 238.48 87.67 238.42 88.65 237.96 89.12 
M 238.45 88.76 237.93 88.35 237.74 87.39 238.06 86.82 238.58 87.22 238.77 88.19 238.45 88.76 
M 257.08 99.7 257.7 99.49 258.61 99.85 258.92 100.43 258.3 100.64 257.38 100.28 257.08 99.7 
M 258.25 99.36 258.23 100.01 257.56 100.73 256.92 100.81 256.93 100.16 257.6 99.43 258.25 99.36 
M 222.16 90.61 221.61 90.26 221.33 89.32 221.59 88.72 222.14 89.07 222.43 90.02 222.16 90.61 
M 221.16 89.43 221.82 89.44 222.56 90.09 222.64 90.74 221.99 90.73 221.25 90.08 221.16 89.43 
M 185.26 133.39 185.91 133.38 186.67 134 186.78 134.64 186.13 134.66 185.37 134.04 185.26 133.39 
M 185.28 133.89 185.93 133.8 186.75 134.34 186.93 134.96 186.29 135.05 185.46 134.52 185.28 133.89 
M 197.06 119.83 197.64 119.55 198.6 119.8 198.97 120.34 198.38 120.62 197.43 120.37 197.06 119.83 
M 198 119.33 198.21 119.95 197.84 120.86 197.25 121.16 197.05 120.54 197.42 119.63 198 119.33 
M 188.37 117.4 187.93 117.88 186.95 118 186.41 117.63 186.85 117.15 187.83 117.04 188.37 117.4 
M 186.73 117.17 187.37 117.28 187.99 118.05 187.97 118.7 187.33 118.59 186.71 117.82 186.73 117.17 
M 195.06 98.53 195.21 99.16 194.75 100.03 194.14 100.27 193.99 99.63 194.45 98.76 195.06 98.53 
M 194.22 98.75 194.71 99.18 194.83 100.16 194.47 100.7 193.98 100.27 193.86 99.29 194.22 98.75 
M 202.17 90.9 201.82 90.35 201.97 89.38 202.47 88.95 202.81 89.51 202.67 90.48 202.17 90.9 
M 201.8 89.39 202.37 89.7 202.72 90.62 202.49 91.23 201.92 90.92 201.57 90 201.8 89.39 
M 194.1 111.84 193.49 112.07 192.57 111.74 192.25 111.17 192.86 110.94 193.79 111.27 194.1 111.84 
M 193.84 111.15 193.38 111.62 192.4 111.7 191.88 111.31 192.33 110.85 193.31 110.77 193.84 111.15 
M 212 96.77 212.54 97.13 212.82 98.07 212.55 98.66 212 98.31 211.73 97.36 212 96.77 
M 211.55 97.52 212.2 97.49 212.97 98.1 213.1 98.74 212.45 98.77 211.67 98.16 211.55 97.52 
M 254.63 137.18 255.15 136.78 256.13 136.83 256.6 137.28 256.09 137.68 255.1 137.63 254.63 137.18 
M 254.87 137.25 255.48 137.03 256.4 137.4 256.7 137.98 256.08 138.19 255.17 137.83 254.87 137.25 
M 267.26 132.45 267.91 132.44 268.68 133.06 268.79 133.7 268.13 133.72 267.37 133.1 267.26 132.45 
M 267.7 132.4 268.15 132.88 268.19 133.86 267.79 134.37 267.34 133.9 267.29 132.92 267.7 132.4 
M 271.18 111.91 271.41 112.53 271.06 113.45 270.49 113.76 270.26 113.15 270.61 112.22 271.18 111.91 
M 270.74 113.58 270.62 112.94 271.12 112.09 271.74 111.88 271.86 112.52 271.36 113.37 270.74 113.58 
M 268.68 102.48 269.07 103 269.01 103.99 268.56 104.45 268.16 103.93 268.22 102.95 268.68 102.48 
M 269.35 103.65 268.7 103.69 267.91 103.1 267.77 102.46 268.42 102.42 269.21 103.01 269.35 103.65 
M 191.91 82.74 191.63 83.33 190.73 83.73 190.1 83.54 190.38 82.95 191.28 82.55 191.91 82.74 
M 191.63 83.56 191 83.38 190.47 82.55 190.56 81.91 191.18 82.09 191.72 82.92 191.63 83.56 
M 194.98 91.39 194.35 91.56 193.47 91.13 193.21 90.54 193.84 90.37 194.72 90.79 194.98 91.39 
M 193.95 91.7 193.88 91.05 194.43 90.24 195.06 90.07 195.14 90.72 194.58 91.53 193.95 91.7 
M 199.84 82.71 199.33 82.31 199.14 81.34 199.46 80.78 199.98 81.18 200.17 82.15 199.84 82.71 
M 198.95 81.48 199.6 81.51 200.31 82.19 200.38 82.84 199.73 82.81 199.01 82.13 198.95 81.48 
M 209.71 79.49 209.07 79.38 208.45 78.62 208.46 77.97 209.11 78.08 209.73 78.84 209.71 79.49 
M 209.01 79.47 208.88 78.84 209.36 77.98 209.97 77.75 210.1 78.39 209.62 79.25 209.01 79.47 
M 176.75 138.26 177.03 137.67 177.94 137.28 178.56 137.48 178.27 138.07 177.37 138.46 176.75 138.26 
M 177.05 137.42 177.67 137.63 178.16 138.49 178.04 139.13 177.42 138.91 176.93 138.06 177.05 137.42 
M 164.05 140.93 163.5 141.27 162.53 141.12 162.11 140.62 162.66 140.27 163.64 140.43 164.05 140.93 
M 163.55 140.19 163.32 140.8 162.44 141.26 161.81 141.11 162.05 140.5 162.92 140.04 163.55 140.19 
M 229.69 164.4 229.71 165.14 229.07 165 228.76 164.59 
M 229.13 165.1 228.94 164.55 
M 229.89 164.36 229.71 164.81 229.13 165.1 
M 173.77 112.02 174.41 111.89 175.26 112.39 175.48 113 174.84 113.13 173.98 112.63 173.77 112.02 
M 175.36 112.65 174.71 112.73 173.9 112.18 173.72 111.55 174.37 111.47 175.19 112.02 175.36 112.65 
M 270.28 120.98 270.89 121.2 271.38 122.06 271.25 122.7 270.63 122.48 270.15 121.62 270.28 120.98 
M 270.17 122.3 270.54 121.76 271.5 121.52 272.08 121.82 271.7 122.35 270.75 122.59 270.17 122.3 
M 169.15 117.67 168.87 118.26 167.97 118.66 167.34 118.47 167.62 117.88 168.52 117.48 169.15 117.67 
M 168.97 118.28 168.31 118.3 167.55 117.67 167.44 117.03 168.09 117.01 168.85 117.64 168.97 118.28 
M 182.62 110.06 183.08 109.6 184.06 109.52 184.58 109.91 184.12 110.37 183.14 110.45 182.62 110.06 
M 183.88 110.68 183.46 110.18 183.48 109.19 183.92 108.71 184.34 109.21 184.32 110.19 183.88 110.68 
M 176.59 102.79 175.95 102.7 175.3 101.96 175.29 101.31 175.94 101.4 176.59 102.14 176.59 102.79 
M 175.22 101.84 175.87 101.82 176.64 102.44 176.75 103.09 176.1 103.11 175.33 102.48 175.22 101.84 
M 168.53 105.41 168.41 105.85 167.6 106.41 166.95 106.33 167.12 105.7 167.27 105.59 
M 167.79 105.52 168.07 106.52 167.76 107.09 167.24 106.71 167.08 105.62 
M 182.93 98.45 183.58 98.5 184.27 99.2 184.32 99.85 183.67 99.8 182.97 99.1 182.93 98.45 
M 184.19 98.67 183.85 99.22 182.91 99.51 182.31 99.25 182.66 98.7 183.6 98.4 184.19 98.67 
M 214.15 112.73 213.9 112.13 214.21 111.19 214.76 110.86 215.02 111.46 214.71 112.39 214.15 112.73 
M 214.42 112.54 214.25 111.91 214.68 111.03 215.28 110.77 215.45 111.4 215.02 112.29 214.42 112.54 
M 159.36 120.26 159.8 119.79 160.78 119.68 161.32 120.05 160.87 120.53 159.89 120.63 159.36 120.26 
M 159.68 120.52 160.13 120.05 161.11 119.95 161.64 120.33 161.19 120.8 160.21 120.9 159.68 120.52 
M 266.55 149.09 266.5 148.71 267.15 148.7 267.9 149.36 
M 267.24 149.22 268.01 149.12 268.54 149.5 
M 279.61 120.38 279.52 121.03 278.77 121.67 278.12 121.67 278.21 121.03 278.96 120.38 279.61 120.38 
M 278.77 121.77 278.65 121.13 279.16 120.28 279.78 120.08 279.89 120.72 279.38 121.57 278.77 121.77 
M 288.28 146.3 288.67 146.82 288.61 147.8 288.16 148.27 287.76 147.75 287.82 146.77 288.28 146.3 
M 288.11 148.03 288 147.38 288.52 146.54 289.14 146.35 289.24 146.99 288.73 147.83 288.11 148.03 
M 282.89 136.03 283.54 135.97 284.34 136.54 284.5 137.17 283.85 137.23 283.04 136.66 282.89 136.03 
M 284.3 137.04 283.68 136.84 283.18 135.99 283.29 135.35 283.91 135.55 284.41 136.4 284.3 137.04 
M 241.04 78.82 240.79 79.42 239.9 79.85 239.27 79.68 239.53 79.08 240.41 78.65 241.04 78.82 
M 239.47 79.55 239.96 79.12 240.94 79.11 241.44 79.53 240.95 79.96 239.97 79.97 239.47 79.55 
M 226.49 80.03 227.13 79.94 227.96 80.47 228.15 81.1 227.5 81.19 226.67 80.66 226.49 80.03 
M 226.67 80.95 227.1 80.46 228.08 80.33 228.63 80.69 228.19 81.18 227.22 81.31 226.67 80.95 
M 264.73 84.49 264.48 83.89 264.77 82.95 265.33 82.61 265.59 83.21 265.29 84.15 264.73 84.49 
M 265.67 83.94 265.04 83.79 264.47 82.98 264.53 82.34 265.16 82.49 265.73 83.29 265.67 83.94 
M 263.06 93.69 262.87 93.07 263.27 92.17 263.86 91.89 264.05 92.51 263.65 93.41 263.06 93.69 
M 263.55 92.04 263.68 92.68 263.18 93.54 262.57 93.75 262.44 93.11 262.94 92.26 263.55 92.04 
M 271.69 90.39 271.39 89.81 271.62 88.85 272.15 88.47 272.45 89.05 272.22 90 271.69 90.39 
M 272.45 88.9 272.15 89.48 271.24 89.84 270.62 89.63 270.92 89.05 271.84 88.68 272.45 88.9 
M 257.37 77.08 257.7 76.52 258.64 76.21 259.24 76.46 258.91 77.02 257.97 77.33 257.37 77.08 
M 258.95 77.16 258.31 77.01 257.74 76.21 257.79 75.56 258.43 75.71 259.01 76.51 258.95 77.16 
M 278.8 99.49 278.26 99.12 278.02 98.16 278.32 97.58 278.85 97.95 279.09 98.91 278.8 99.49 
M 278.07 99.1 278.32 98.5 279.21 98.07 279.84 98.24 279.58 98.84 278.7 99.27 278.07 99.1 
M 287.95 92.53 288.15 93.15 287.77 94.06 287.18 94.34 286.98 93.72 287.37 92.82 287.95 92.53 
M 288.3 93.59 287.65 93.66 286.85 93.09 286.69 92.46 287.33 92.39 288.14 92.96 288.3 93.59 
M 285.92 102.04 286.54 102.24 287.05 103.09 286.93 103.73 286.31 103.52 285.81 102.68 285.92 102.04 
M 286.72 103.57 286.3 103.08 286.3 102.09 286.73 101.6 287.15 102.1 287.15 103.08 286.72 103.57 
M 285.02 86.1 284.52 86.52 283.54 86.51 283.05 86.07 283.55 85.65 284.54 85.67 285.02 86.1 
M 284.4 85.43 284.27 86.07 283.5 86.68 282.85 86.65 282.97 86.01 283.75 85.4 284.4 85.43 
M 283.46 110.84 283.3 111.48 282.49 112.04 281.84 111.97 282 111.34 282.81 110.78 283.46 110.84 
M 283.08 112.02 282.56 111.63 282.35 110.67 282.66 110.09 283.19 110.48 283.4 111.45 283.08 112.02 
M 273.72 160.58 273.83 159.93 274.59 159.31 275.25 159.32 275.14 159.97 274.38 160.59 273.72 160.58 
M 274.09 160.59 274.25 159.96 275.06 159.39 275.71 159.46 275.55 160.09 274.74 160.66 274.09 160.59 
M 266.44 164.76 266.31 164.13 266.78 163.26 267.39 163.04 267.53 163.67 267.06 164.54 266.44 164.76 
M 266.18 163.76 266.83 163.68 267.64 164.23 267.82 164.86 267.17 164.94 266.35 164.39 266.18 163.76 
M 185.27 93.11 185.21 92.46 185.78 91.66 186.41 91.5 186.48 92.15 185.9 92.95 185.27 93.11 
M 185.7 93.04 185.62 92.39 186.17 91.58 186.8 91.41 186.88 92.05 186.33 92.87 185.7 93.04 
M 277.36 71.57 277.39 72.22 276.79 73 276.15 73.12 276.12 72.47 276.72 71.69 277.36 71.57 
M 276.04 72.13 276.69 72.12 277.44 72.75 277.54 73.4 276.89 73.41 276.14 72.77 276.04 72.13 
M 284.69 75.06 285.27 75.35 285.64 76.26 285.43 76.88 284.85 76.59 284.48 75.67 284.69 75.06 
M 284.36 75.69 285.01 75.74 285.71 76.43 285.76 77.08 285.11 77.04 284.41 76.34 284.36 75.69 
M 178.52 88.77 177.92 88.54 177.46 87.67 177.6 87.03 178.21 87.27 178.67 88.14 178.52 88.77 
M 177.33 88.08 177.89 87.74 178.86 87.9 179.28 88.41 178.72 88.75 177.75 88.58 177.33 88.08 
M 193.04 74.66 192.62 75.16 191.65 75.32 191.09 74.97 191.51 74.47 192.48 74.32 193.04 74.66 
M 191.42 74.44 192.05 74.58 192.64 75.37 192.59 76.02 191.96 75.88 191.37 75.09 191.42 74.44 
M 281.17 65.07 280.53 65.42 280.35 64.79 280.49 64.49 
M 281.32 65.27 281.11 65.83 280.54 65.52 280.2 64.59 280.29 64.36 
M 286.95 119.52 286.8 118.88 287.27 118.01 287.88 117.78 288.02 118.41 287.55 119.28 286.95 119.52 
M 287.02 119.29 287.17 118.66 287.97 118.08 288.62 118.14 288.47 118.77 287.67 119.35 287.02 119.29 
M 297.42 114.38 298.05 114.2 298.94 114.61 299.21 115.2 298.58 115.39 297.69 114.97 297.42 114.38 
M 298.98 115.14 298.34 115.03 297.72 114.26 297.74 113.61 298.38 113.73 299 114.49 298.98 115.14 
M 293.87 107.24 293.61 106.64 293.92 105.7 294.48 105.36 294.73 105.96 294.43 106.9 293.87 107.24 
M 294.35 105.57 294.4 106.22 293.8 107.01 293.17 107.15 293.12 106.49 293.71 105.71 294.35 105.57 
M 158.84 109.62 158.22 109.81 157.32 109.41 157.04 108.82 157.67 108.63 158.56 109.03 158.84 109.62 
M 157.19 109.21 157.81 109.02 158.72 109.41 159 110 158.37 110.2 157.47 109.8 157.19 109.21 
M 264.78 178.43 265.41 178.58 265.99 179.38 265.93 180.03 265.3 179.88 264.72 179.08 264.78 178.43 
M 264.64 179.44 265.18 179.07 266.15 179.19 266.59 179.67 266.05 180.04 265.08 179.92 264.64 179.44 
M 178.4 80.73 178.01 80.2 178.08 79.22 178.55 78.76 178.93 79.28 178.86 80.27 178.4 80.73 
M 178.3 80.48 178.25 79.83 178.83 79.03 179.47 78.89 179.52 79.54 178.94 80.33 178.3 80.48 
M 210.61 90.24 210.54 89.59 211.1 88.78 211.73 88.61 211.8 89.26 211.24 90.07 210.61 90.24 
M 211.41 88.71 211.4 89.37 210.74 90.1 210.09 90.18 210.11 89.53 210.76 88.79 211.41 88.71 
M 195.89 67.89 195.24 67.88 194.5 67.23 194.42 66.58 195.07 66.59 195.81 67.24 195.89 67.89 
M 195.33 67.97 194.99 67.41 195.16 66.44 195.66 66.02 196 66.58 195.83 67.55 195.33 67.97 
M 202.53 70.55 203.1 70.22 204.07 70.4 204.47 70.91 203.91 71.24 202.94 71.06 202.53 70.55 
M 204.21 70.97 203.56 70.96 202.83 70.3 202.75 69.65 203.4 69.67 204.13 70.33 204.21 70.97 
M 285.56 155.42 286.18 155.61 286.71 156.45 286.61 157.09 285.98 156.9 285.46 156.06 285.56 155.42 
M 286.13 155.51 286.29 156.14 285.85 157.02 285.24 157.27 285.08 156.63 285.53 155.75 286.13 155.51 
M 211.35 69.37 211.31 68.72 211.92 67.94 212.55 67.81 212.59 68.46 211.99 69.24 211.35 69.37 
M 211.21 68.46 211.86 68.37 212.68 68.91 212.86 69.54 212.22 69.63 211.39 69.09 211.21 68.46 
M 255.13 68.22 254.69 68.69 253.71 68.79 253.17 68.42 253.62 67.94 254.6 67.84 255.13 68.22 
M 254.68 67.78 254.39 68.36 253.47 68.74 252.86 68.53 253.15 67.95 254.06 67.57 254.68 67.78 
M 262.86 69.22 262.4 69.68 261.41 69.74 260.9 69.34 261.36 68.89 262.35 68.83 262.86 69.22 
M 261.35 68.76 261.93 69.05 262.3 69.97 262.09 70.58 261.51 70.29 261.14 69.37 261.35 68.76 
M 245.59 73.07 245 72.81 244.57 71.92 244.74 71.29 245.34 71.55 245.76 72.44 245.59 73.07 
M 244.94 71.47 245.31 72 245.22 72.98 244.75 73.43 244.37 72.9 244.47 71.92 244.94 71.47 
M 268.73 75.75 269.38 75.67 270.19 76.23 270.35 76.86 269.71 76.94 268.89 76.38 268.73 75.75 
M 269.32 75.59 269.69 76.12 269.59 77.1 269.11 77.55 268.74 77.01 268.85 76.03 269.32 75.59 
M 271.04 67.86 270.39 67.87 269.64 67.22 269.54 66.58 270.19 66.58 270.94 67.22 271.04 67.86 
M 269.96 67.89 270.05 67.25 270.8 66.61 271.45 66.61 271.36 67.25 270.61 67.9 269.96 67.89 
M 243.05 182.67 242.85 183.29 242.01 183.8 241.36 183.69 241.56 183.07 242.41 182.56 243.05 182.67 
M 241.92 183.87 241.97 183.22 242.68 182.53 243.33 182.49 243.27 183.14 242.57 183.83 241.92 183.87 
M 253.13 191.11 252.75 191.64 251.79 191.87 251.21 191.57 251.59 191.04 252.55 190.81 253.13 191.11 
M 251.56 190.9 252.18 191.1 252.68 191.95 252.56 192.59 251.94 192.39 251.44 191.54 251.56 190.9 
M 202.11 172.78 202.19 172.14 202.92 171.48 203.58 171.46 203.5 172.11 202.76 172.77 202.11 172.78 
M 203.49 171.74 203.06 172.23 202.08 172.35 201.54 171.99 201.97 171.5 202.95 171.38 203.49 171.74 
M 274.31 58.08 274.87 57.75 275.7 57.9 
M 276.01 58.58 275.69 58.77 274.72 58.59 274.31 58.08 
M 275.94 58.43 275.36 58.48 274.56 57.9 274.41 57.27 275.06 57.21 275.54 57.55 
M 267.97 54.99 267.49 55.43 266.5 55.44 266 55.03 266.49 54.59 267.47 54.57 267.97 54.99 
M 266.42 54.51 267.02 54.77 267.45 55.66 267.27 56.29 266.68 56.03 266.25 55.14 266.42 54.51 
M 299.84 127.93 299.24 127.66 298.83 126.77 299.01 126.14 299.6 126.41 300.02 127.3 299.84 127.93 
M 300.01 127.5 299.4 127.27 298.94 126.4 299.08 125.77 299.69 126 300.15 126.87 300.01 127.5 
M 311.77 110.03 311.42 109.48 311.56 108.5 312.05 108.08 312.4 108.62 312.26 109.6 311.77 110.03 
M 311.95 108.3 312.12 108.93 311.68 109.82 311.08 110.07 310.91 109.44 311.35 108.55 311.95 108.3 
M 306.41 123.56 306.84 123.07 307.82 122.94 308.36 123.3 307.93 123.79 306.95 123.92 306.41 123.56 
M 306.69 123.15 307.34 123.2 308.03 123.9 308.07 124.55 307.42 124.5 306.73 123.8 306.69 123.15 
M 167.72 173.25 167.08 173.36 166.24 172.85 166.04 172.23 166.68 172.12 167.52 172.63 167.72 173.25 
M 166.14 172.65 166.78 172.53 167.63 173.02 167.84 173.64 167.2 173.76 166.35 173.26 166.14 172.65 
M 210.51 182.63 209.96 182.98 208.99 182.83 208.56 182.33 209.11 181.98 210.09 182.13 210.51 182.63 
M 208.99 181.97 209.58 182.25 209.97 183.15 209.78 183.77 209.19 183.49 208.8 182.59 208.99 181.97 
M 226.88 176.36 227.29 176.87 227.27 177.85 226.83 178.33 226.41 177.83 226.44 176.85 226.88 176.36 
M 226.79 176.6 227.04 177.2 226.73 178.14 226.17 178.47 225.92 177.87 226.23 176.94 226.79 176.6 
M 144.49 118.69 144.88 118.17 145.84 117.96 146.41 118.27 146.02 118.8 145.06 119 144.49 118.69 
M 144.85 118.03 145.47 118.25 145.95 119.11 145.82 119.74 145.2 119.52 144.72 118.66 144.85 118.03 
M 153.25 128.63 152.61 128.77 151.74 128.31 151.51 127.7 152.14 127.55 153.01 128.02 153.25 128.63 
M 152.94 128.66 152.34 128.4 151.92 127.51 152.09 126.88 152.69 127.14 153.11 128.03 152.94 128.66 
M 152.41 119.16 151.76 119.14 151.04 118.47 150.97 117.82 151.62 117.84 152.34 118.52 152.41 119.16 
M 151.68 117.74 151.89 118.36 151.5 119.27 150.92 119.56 150.72 118.94 151.1 118.03 151.68 117.74 
M 217.48 75.46 217.04 75.94 216.06 76.05 215.52 75.69 215.96 75.21 216.94 75.09 217.48 75.46 
M 216.06 76.18 216.26 75.56 217.1 75.05 217.75 75.16 217.55 75.78 216.7 76.29 216.06 76.18 
M 206.98 62.08 206.62 61.54 206.73 60.57 207.21 60.12 207.57 60.66 207.46 61.64 206.98 62.08 
M 207.04 61.85 206.89 61.22 207.34 60.34 207.94 60.1 208.1 60.73 207.65 61.61 207.04 61.85 
M 216.49 54.33 216.17 53.76 216.35 52.79 216.86 52.39 217.19 52.96 217 53.92 216.49 54.33 
M 216.97 54.05 216.55 53.56 216.55 52.57 216.98 52.08 217.4 52.57 217.4 53.56 216.97 54.05 
M 221.97 61.6 222.61 61.49 223.45 62.01 223.65 62.63 223 62.74 222.16 62.22 221.97 61.6 
M 223.54 61.98 222.97 62.29 222.01 62.07 221.62 61.55 222.2 61.24 223.16 61.45 223.54 61.98 
M 185.02 73.56 185.65 73.74 186.19 74.56 186.11 75.2 185.49 75.03 184.94 74.21 185.02 73.56 
M 186.32 74.41 185.69 74.59 184.8 74.16 184.54 73.57 185.17 73.39 186.05 73.82 186.32 74.41 
M 236.76 70.27 236.44 69.7 236.65 68.74 237.17 68.34 237.48 68.92 237.28 69.88 236.76 70.27 
M 236.43 69.84 236.73 69.26 237.65 68.9 238.26 69.11 237.96 69.69 237.05 70.05 236.43 69.84 
M 222.86 70.15 223.24 69.62 224.2 69.4 224.78 69.7 224.39 70.23 223.43 70.45 222.86 70.15 
M 223.99 70.66 223.65 70.1 223.83 69.13 224.33 68.72 224.67 69.28 224.49 70.25 223.99 70.66 
M 282.2 170.66 282.83 170.53 283.7 171 283.93 171.61 283.29 171.75 282.42 171.27 282.2 170.66 
M 283.67 170.7 283.28 171.22 282.32 171.44 281.75 171.13 282.14 170.6 283.1 170.39 283.67 170.7 
M 233.75 189.75 233.1 189.73 232.36 189.07 232.28 188.43 232.94 188.44 233.67 189.1 233.75 189.75 
M 233.12 189.83 232.84 189.24 233.1 188.29 233.64 187.93 233.92 188.52 233.66 189.47 233.12 189.83 
M 198.56 50.94 198.91 51.64 198.75 52.27 198.15 52.02 198.04 51.81 
M 198.44 51.14 198.88 50.83 199.53 50.9 199.37 51.53 198.56 52.1 197.91 52.03 
M 236.39 59.71 236.53 59.08 237.31 58.48 237.96 58.52 237.83 59.15 237.04 59.75 236.39 59.71 
M 236.71 58.52 237.25 58.89 237.5 59.84 237.22 60.43 236.68 60.06 236.43 59.11 236.71 58.52 
M 255.69 59.15 255.14 59.49 254.16 59.33 253.75 58.83 254.31 58.49 255.28 58.65 255.69 59.15 
M 254.98 59.69 254.58 59.18 254.63 58.2 255.08 57.73 255.48 58.24 255.43 59.22 254.98 59.69 
M 247.06 61.92 247.05 62.57 246.39 63.3 245.74 63.38 245.75 62.73 246.41 62 247.06 61.92 
M 245.96 63.26 246.16 62.64 247.01 62.13 247.65 62.24 247.45 62.86 246.6 63.37 245.96 63.26 
M 226.7 186.98 226.39 187.55 225.47 187.9 224.86 187.68 225.17 187.11 226.09 186.76 226.7 186.98 
M 225.91 186.59 226 187.24 225.46 188.06 224.83 188.24 224.74 187.59 225.29 186.77 225.91 186.59 
M 194.53 182.01 195.03 182.43 195.19 183.4 194.85 183.95 194.35 183.54 194.19 182.56 194.53 182.01 
M 195.01 182.3 194.93 182.95 194.19 183.6 193.53 183.61 193.62 182.96 194.36 182.31 195.01 182.3 
M 178.54 169.05 178.71 169.55 178.07 169.67 177.22 169.16 177.15 168.93 
M 178.06 169.01 177.47 169.74 176.83 169.86 176.81 169.21 177.01 168.95 
M 285.69 182.35 285.51 182.98 284.7 183.53 284.05 183.45 284.22 182.82 285.04 182.27 285.69 182.35 
M 284.43 182.29 284.95 182.68 285.17 183.64 284.86 184.21 284.34 183.83 284.12 182.86 284.43 182.29 
M 274.63 183.99 274.52 183.35 275.04 182.51 275.66 182.31 275.77 182.95 275.25 183.79 274.63 183.99 
M 274.62 183.69 274.91 183.11 275.82 182.72 276.44 182.92 276.15 183.51 275.24 183.89 274.62 183.69 
M 321.99 141.19 321.94 140.54 322.52 139.74 323.16 139.6 323.21 140.25 322.62 141.04 321.99 141.19 
M 322.48 139.65 322.75 140.24 322.47 141.19 321.93 141.54 321.66 140.95 321.94 140 322.48 139.65 
M 317.32 165.84 316.68 165.99 315.81 165.53 315.57 164.92 316.2 164.77 317.08 165.23 317.32 165.84 
M 315.98 164.79 316.52 165.15 316.77 166.11 316.48 166.69 315.94 166.32 315.69 165.37 315.98 164.79 
M 331.43 148.04 331.86 148.53 331.88 149.51 331.46 150.01 331.02 149.52 331.01 148.54 331.43 148.04 
M 332.06 148.6 331.66 149.12 330.69 149.3 330.13 148.98 330.53 148.46 331.5 148.28 332.06 148.6 
M 307.84 172.39 308.47 172.54 309.05 173.34 308.99 173.99 308.36 173.84 307.78 173.04 307.84 172.39 
M 307.9 173.73 308.18 173.15 309.09 172.76 309.71 172.96 309.42 173.55 308.52 173.93 307.9 173.73 
M 127.92 137.69 128.56 137.85 129.13 138.65 129.06 139.3 128.43 139.14 127.86 138.34 127.92 137.69 
M 127.74 138.56 128.35 138.31 129.28 138.62 129.61 139.18 129.01 139.43 128.08 139.12 127.74 138.56 
M 290.73 192.38 290.08 192.31 289.41 191.58 289.39 190.93 290.04 191.01 290.71 191.73 290.73 192.38 
M 290.43 191 290.3 191.64 289.52 192.24 288.87 192.21 289 191.57 289.78 190.96 290.43 191 
M 201.29 137.3 200.93 137.84 199.98 138.11 199.39 137.83 199.75 137.29 200.7 137.02 201.29 137.3 
M 201.05 137.79 200.4 137.79 199.66 137.15 199.56 136.5 200.22 136.5 200.96 137.15 201.05 137.79 
M 324.8 106.5 324.63 106.68 324.43 106.44 
M 318.94 122.42 318.77 123.05 317.96 123.61 317.31 123.54 317.48 122.91 318.29 122.35 318.94 122.42 
M 318.79 122.64 318.33 123.1 317.35 123.16 316.83 122.76 317.29 122.31 318.28 122.25 318.79 122.64 
M 242.2 51.83 241.64 51.49 241.34 50.55 241.59 49.95 242.15 50.29 242.45 51.23 242.2 51.83 
M 242.61 50.66 242.08 51.04 241.1 50.95 240.65 50.48 241.18 50.1 242.16 50.19 242.61 50.66 
M 257.37 43.48 257.72 44.03 257.59 45.01 257.1 45.44 256.74 44.89 256.88 43.91 257.37 43.48 
M 256.6 44.86 257.02 44.36 257.99 44.21 258.55 44.55 258.13 45.05 257.15 45.2 256.6 44.86 
M 152.22 173.75 152.86 173.85 153.49 174.61 153.48 175.26 152.83 175.16 152.2 174.4 152.22 173.75 
M 152.92 173.76 153.06 174.4 152.58 175.26 151.97 175.48 151.83 174.85 152.31 173.98 152.92 173.76 
M 262.44 170.59 262.85 171.09 262.83 172.08 262.39 172.56 261.97 172.05 262 171.07 262.44 170.59 
M 262.64 170.86 262.64 171.51 262 172.25 261.35 172.35 261.35 171.7 261.99 170.95 262.64 170.86 
M 323.34 174.51 323.73 173.99 324.7 173.79 325.27 174.11 324.87 174.63 323.91 174.83 323.34 174.51 
M 323.6 174.04 324.25 174.08 324.96 174.77 325.01 175.42 324.36 175.38 323.65 174.68 323.6 174.04 
M 336.92 166.36 337.55 166.53 338.1 167.34 338.02 167.99 337.39 167.82 336.84 167 336.92 166.36 
M 336.76 166.94 337.41 166.94 338.15 167.6 338.23 168.25 337.58 168.24 336.85 167.58 336.76 166.94 
M 334.41 156.47 334.92 156.06 335.9 156.09 336.38 156.53 335.88 156.94 334.89 156.91 334.41 156.47 
M 335.8 157.13 335.3 156.72 335.14 155.75 335.48 155.19 335.98 155.61 336.14 156.58 335.8 157.13 
M 313.04 116.15 313.13 116.8 312.59 117.62 311.96 117.8 311.87 117.16 312.41 116.33 313.04 116.15 
M 312.04 116.38 312.58 116.75 312.83 117.71 312.54 118.29 312 117.92 311.75 116.97 312.04 116.38 
M 332.39 124.19 332.97 123.89 333.93 124.13 334.3 124.66 333.72 124.96 332.77 124.72 332.39 124.19 
M 333.2 123.69 333.52 124.26 333.31 125.22 332.79 125.62 332.47 125.04 332.68 124.08 333.2 123.69 
M 326.27 113.12 326.88 112.89 327.8 113.23 328.12 113.8 327.51 114.04 326.58 113.7 326.27 113.12 
M 326.56 113.87 326.98 113.37 327.95 113.2 328.5 113.54 328.09 114.05 327.12 114.21 326.56 113.87 
M 319.51 113.66 319.68 114.29 319.25 115.17 318.66 115.43 318.48 114.8 318.91 113.92 319.51 113.66 
M 319.26 115.28 318.92 114.72 319.09 113.75 319.59 113.33 319.93 113.89 319.76 114.86 319.26 115.28 
M 313.02 191.39 312.41 191.19 311.9 190.35 312.01 189.7 312.63 189.91 313.14 190.75 313.02 191.39 
M 312.68 191.28 312.35 190.72 312.54 189.75 313.05 189.35 313.38 189.91 313.19 190.88 312.68 191.28 
M 230.47 48.15 229.85 47.95 229.35 47.1 229.46 46.46 230.08 46.66 230.59 47.51 230.47 48.15 
M 229.66 47.99 229.73 47.34 230.46 46.67 231.11 46.65 231.04 47.3 230.31 47.97 229.66 47.99 
M 123.55 152.55 122.84 152.65 
M 123.05 151.8 123.31 151.94 123.55 152.55 
M 122.96 152.16 123.35 152.52 123.43 153.17 122.72 153.1 
M 139.26 186.81 139.78 187.21 139.99 188.17 139.67 188.74 139.15 188.35 138.95 187.38 139.26 186.81 
M 138.91 188.28 139.24 187.72 140.17 187.4 140.78 187.65 140.45 188.21 139.51 188.52 138.91 188.28 
M 330.15 167.19 329.65 167.61 328.66 167.59 328.18 167.16 328.68 166.74 329.66 166.75 330.15 167.19 
M 328.42 167.05 329.07 166.96 329.89 167.49 330.08 168.12 329.43 168.21 328.6 167.67 328.42 167.05 
M 315.73 178.75 315.88 178.12 316.68 177.55 317.33 177.61 317.18 178.24 316.38 178.81 315.73 178.75 
M 316.94 177.55 316.77 178.18 315.95 178.73 315.3 178.65 315.47 178.02 316.29 177.47 316.94 177.55 
M 316.12 132.61 315.74 133.14 314.78 133.38 314.2 133.08 314.58 132.55 315.53 132.31 316.12 132.61 
M 314.7 133.44 314.92 132.83 315.79 132.35 316.42 132.49 316.2 133.1 315.34 133.57 314.7 133.44 
M 336.15 134.89 336.4 134.29 337.28 133.85 337.91 134.01 337.66 134.61 336.78 135.05 336.15 134.89 
M 337.37 133.78 337.27 134.42 336.51 135.06 335.86 135.05 335.96 134.4 336.72 133.77 337.37 133.78 
M 346.97 126.56 347.62 126.48 348.44 127.03 348.61 127.66 347.96 127.74 347.14 127.19 346.97 126.56 
M 347.04 127.18 347.64 126.92 348.58 127.23 348.92 127.79 348.32 128.04 347.38 127.74 347.04 127.18 
M 342.85 115.52 342.75 114.87 343.27 114.04 343.89 113.84 343.99 114.49 343.47 115.33 342.85 115.52 
M 344.12 114.61 343.52 114.87 342.58 114.57 342.24 114.02 342.83 113.76 343.77 114.05 344.12 114.61 
M 334.97 112.97 335.62 112.93 336.4 113.53 336.53 114.16 335.88 114.2 335.1 113.61 334.97 112.97 
M 336.31 114.07 335.72 113.8 335.3 112.91 335.48 112.28 336.07 112.55 336.49 113.44 336.31 114.07 
M 345.47 133.2 345.89 133.7 345.86 134.69 345.42 135.17 345.01 134.66 345.04 133.68 345.47 133.2 
M 345.61 134.92 345.28 134.35 345.47 133.38 345.99 132.98 346.31 133.55 346.12 134.51 345.61 134.92 
M 132.08 113.45 131.78 114.03 130.86 114.39 130.25 114.18 130.55 113.6 131.46 113.23 132.08 113.45 
M 131.86 114.08 131.21 114.04 130.5 113.36 130.45 112.71 131.1 112.75 131.81 113.43 131.86 114.08 
M 207.06 46.23 207.35 46.81 207.11 47.77 206.58 48.14 206.28 47.56 206.52 46.61 207.06 46.23 
M 207.23 47.81 206.72 47.4 206.54 46.44 206.87 45.87 207.38 46.28 207.56 47.25 207.23 47.81 
M 218.09 46.11 218.18 45.47 218.93 44.82 219.58 44.83 219.48 45.47 218.74 46.11 218.09 46.11 
M 219.4 44.97 219.06 45.53 218.12 45.84 217.52 45.58 217.86 45.03 218.8 44.72 219.4 44.97 
M 249.11 44.97 248.94 45.59 248.11 46.13 247.47 46.05 247.64 45.42 248.47 44.88 249.11 44.97 
M 248.38 46.25 248.11 45.66 248.38 44.71 248.93 44.36 249.2 44.95 248.93 45.9 248.38 46.25 
M 336.79 176.8 336.22 176.48 335.9 175.55 336.13 174.94 336.7 175.26 337.03 176.19 336.79 176.8 
M 337.1 175.47 336.68 175.97 335.7 176.12 335.15 175.77 335.57 175.28 336.54 175.12 337.1 175.47 
M 329.01 184.15 328.37 184.26 327.53 183.75 327.32 183.14 327.96 183.02 328.81 183.53 329.01 184.15 
M 328.57 184.27 328.07 183.86 327.91 182.89 328.25 182.33 328.75 182.75 328.91 183.72 328.57 184.27 
M 261.65 155.9 262.31 155.87 263.08 156.48 263.2 157.12 262.55 157.15 261.77 156.54 261.65 155.9 
M 262.83 157.14 262.33 156.73 262.17 155.75 262.51 155.2 263.01 155.61 263.17 156.59 262.83 157.14 
M 349.2 157.74 349.45 157.14 350.33 156.7 350.97 156.86 350.71 157.46 349.83 157.9 349.2 157.74 
M 349.34 157.21 349.98 157.09 350.83 157.59 351.04 158.2 350.4 158.32 349.55 157.82 349.34 157.21 
M 324.77 122.46 325.23 122.91 325.31 123.9 324.92 124.42 324.46 123.96 324.38 122.98 324.77 122.46 
M 325.27 124.06 324.75 123.66 324.57 122.69 324.89 122.12 325.4 122.53 325.59 123.49 325.27 124.06 
M 264.13 41.52 264.44 40.95 265.37 40.6 265.98 40.83 265.66 41.41 264.74 41.75 264.13 41.52 
M 265.53 40.6 265.29 41.2 264.41 41.65 263.78 41.5 264.02 40.89 264.9 40.44 265.53 40.6 
M 188.13 187.56 187.51 187.79 186.59 187.44 186.28 186.87 186.89 186.64 187.81 186.99 188.13 187.56 
M 187.12 187.96 186.99 187.33 187.47 186.46 188.08 186.24 188.22 186.88 187.74 187.74 187.12 187.96 
M 340.66 184.85 340.55 185.49 339.8 186.12 339.15 186.11 339.25 185.47 340.01 184.84 340.66 184.85 
M 340.62 185.25 340.09 185.63 339.11 185.53 338.66 185.05 339.19 184.68 340.17 184.78 340.62 185.25 
M 365.5 154.22 364.89 154.47 363.96 154.16 363.63 153.59 364.23 153.35 365.16 153.66 365.5 154.22 
M 364.96 153.27 364.8 153.9 363.98 154.46 363.34 154.38 363.5 153.75 364.32 153.2 364.96 153.27 
M 362.71 164.06 363.36 164.01 364.16 164.59 364.3 165.23 363.65 165.28 362.86 164.69 362.71 164.06 
M 364.24 164.79 363.59 164.86 362.78 164.3 362.62 163.67 363.27 163.6 364.08 164.16 364.24 164.79 
M 236.23 41.77 235.68 41.41 235.43 40.46 235.71 39.87 236.25 40.24 236.51 41.19 236.23 41.77 
M 236.6 41.22 235.97 41.06 235.41 40.25 235.48 39.6 236.11 39.76 236.67 40.57 236.6 41.22 
M 357.34 140.51 356.69 140.58 355.87 140.03 355.7 139.4 356.35 139.33 357.17 139.88 357.34 140.51 
M 357.24 139.76 356.7 140.11 355.72 139.98 355.29 139.49 355.84 139.13 356.81 139.27 357.24 139.76 
M 372.06 144.7 371.41 144.78 370.6 144.22 370.43 143.59 371.08 143.52 371.89 144.07 372.06 144.7 
M 371.95 144.4 371.3 144.38 370.58 143.7 370.51 143.05 371.17 143.08 371.88 143.76 371.95 144.4 
M 382.92 152.11 383.12 151.49 383.97 150.99 384.61 151.1 384.4 151.72 383.56 152.22 382.92 152.11 
M 384.25 151.03 384 151.64 383.11 152.07 382.48 151.91 382.73 151.31 383.62 150.87 384.25 151.03 
M 374.23 153.05 374.52 153.63 374.29 154.59 373.76 154.97 373.46 154.39 373.69 153.43 374.23 153.05 
M 374.01 153.26 374.19 153.88 373.78 154.78 373.19 155.05 373.01 154.42 373.42 153.53 374.01 153.26 
M 376.57 132.18 375.97 131.93 375.53 131.05 375.7 130.42 376.3 130.67 376.73 131.55 376.57 132.18 
M 376.88 131.35 376.25 131.51 375.37 131.05 375.13 130.45 375.77 130.29 376.64 130.75 376.88 131.35 
M 354.09 131.7 354.54 131.22 355.52 131.11 356.05 131.49 355.61 131.96 354.63 132.07 354.09 131.7 
M 355.72 131.21 355.29 131.7 354.31 131.83 353.77 131.47 354.2 130.98 355.17 130.85 355.72 131.21 
M 354.56 122.57 354.22 122.01 354.39 121.04 354.89 120.63 355.23 121.18 355.06 122.15 354.56 122.57 
M 355.1 122.25 354.62 121.81 354.51 120.83 354.88 120.29 355.35 120.73 355.47 121.71 355.1 122.25 
M 364.07 138.74 364.08 138.09 364.74 137.35 365.38 137.27 365.38 137.92 364.72 138.65 364.07 138.74 
M 364.9 138.73 364.56 138.17 364.74 137.2 365.25 136.8 365.58 137.36 365.4 138.33 364.9 138.73 
M 357.73 113.27 357.18 112.81 
M 357.9 112.95 357.73 113.27 
M 357.53 112.88 357.49 113.11 356.98 113.52 356.65 112.95 356.7 112.71 
M 369.31 116.38 369.82 116.78 370.01 117.75 369.69 118.32 369.17 117.91 368.98 116.95 369.31 116.38 
M 369.2 118.04 369.26 117.39 369.97 116.71 370.62 116.67 370.57 117.32 369.86 118.01 369.2 118.04 
M 349.04 183.16 349.68 183.04 350.53 183.54 350.74 184.16 350.1 184.28 349.25 183.78 349.04 183.16 
M 349.94 182.91 350.1 183.54 349.66 184.43 349.05 184.67 348.89 184.04 349.34 183.16 349.94 182.91 
M 375.41 122.19 376.03 121.99 376.93 122.39 377.21 122.98 376.59 123.17 375.69 122.77 375.41 122.19 
M 376.25 123.33 376.1 122.7 376.57 121.83 377.17 121.59 377.32 122.23 376.85 123.1 376.25 123.33 
M 378.68 164.46 378.99 165.04 378.76 166 378.24 166.38 377.93 165.81 378.16 164.85 378.68 164.46 
M 379.08 165 378.68 165.51 377.71 165.71 377.15 165.39 377.54 164.87 378.51 164.68 379.08 165 
M 385.52 161.75 385.03 161.32 384.9 160.34 385.26 159.8 385.74 160.23 385.87 161.21 385.52 161.75 
M 385.6 161.49 385.23 160.95 385.35 159.98 385.83 159.54 386.19 160.07 386.08 161.05 385.6 161.49 
M 383.94 124.53 384.32 123.99 385.27 123.75 385.85 124.04 385.48 124.58 384.52 124.82 383.94 124.53 
M 385.34 124.89 384.81 124.51 384.59 123.55 384.9 122.97 385.43 123.36 385.65 124.32 385.34 124.89 
M 393.55 165.82 392.96 165.55 392.54 164.66 392.72 164.03 393.32 164.3 393.73 165.19 393.55 165.82 
M 393.15 164.18 393.34 164.8 392.93 165.7 392.34 165.97 392.15 165.34 392.56 164.45 393.15 164.18 
M 399.61 156.93 398.98 156.76 398.43 155.94 398.51 155.29 399.14 155.47 399.69 156.29 399.61 156.93 
M 399.8 156.22 399.16 156.33 398.32 155.81 398.12 155.19 398.77 155.09 399.61 155.6 399.8 156.22 
M 197.07 57.37 197.42 57.92 197.25 58.9 196.75 59.31 196.41 58.76 196.57 57.79 197.07 57.37 
M 196.56 59 196.68 58.36 197.45 57.74 198.1 57.77 197.98 58.41 197.21 59.03 196.56 59 
M 357.99 170.91 357.85 171.55 357.06 172.13 356.41 172.08 356.55 171.45 357.34 170.86 357.99 170.91 
M 357.55 172.16 357.09 171.7 357.01 170.72 357.39 170.2 357.86 170.65 357.94 171.64 357.55 172.16 
M 400.75 141.23 400.69 140.58 401.26 139.78 401.89 139.62 401.96 140.27 401.39 141.08 400.75 141.23 
M 400.71 140.85 401.1 140.34 402.07 140.14 402.64 140.46 402.24 140.98 401.27 141.17 400.71 140.85 
M 352.3 192.7 352.21 192.28 352.53 191.71 353.05 192.1 353.14 192.54 
M 352.6 192.64 352.85 191.88 353.41 191.55 353.66 192.15 353.56 192.47 
M 113.32 179.52 113.61 179.71 113.17 180.19 112.89 180.23 
M 113.42 179.31 113.86 179.37 113.69 179.99 112.87 180.54 112.69 180.52 
M 410.37 168.2 409.97 167.69 410.01 166.71 410.46 166.24 410.87 166.75 410.82 167.73 410.37 168.2 
M 409.76 167.59 410.21 167.11 411.19 167.01 411.72 167.38 411.28 167.85 410.3 167.96 409.76 167.59 
M 385.74 170.54 386.36 170.32 387.28 170.68 387.58 171.26 386.96 171.48 386.05 171.12 385.74 170.54 
M 386.32 171.57 386.43 170.92 387.18 170.3 387.83 170.31 387.73 170.95 386.97 171.58 386.32 171.57 
M 379.61 176.86 379.54 176.21 380.11 175.4 380.74 175.25 380.81 175.89 380.24 176.7 379.61 176.86 
M 379.48 175.76 380.13 175.82 380.82 176.52 380.86 177.17 380.21 177.12 379.52 176.42 379.48 175.76 
M 388.55 183.19 388.72 182.56 389.55 182.02 390.19 182.11 390.02 182.73 389.19 183.27 388.55 183.19 
M 389.01 181.99 389.48 182.44 389.57 183.42 389.19 183.95 388.72 183.5 388.63 182.52 389.01 181.99 
M 377.45 185.27 377.5 184.62 378.21 183.93 378.86 183.89 378.81 184.54 378.1 185.23 377.45 185.27 
M 378.67 185.12 378.1 184.81 377.75 183.89 377.98 183.28 378.55 183.59 378.9 184.51 378.67 185.12 
M 407.73 128.35 407.27 128.64 406.63 128.55 406.81 127.92 407.11 127.73 
M 407.51 128.14 406.76 128.4 406.15 128.16 406.47 127.59 406.84 127.46 
M 393.5 121.12 393.75 121.75 393.53 122.37 392.96 122.07 392.59 121.15 392.69 120.88 
M 392.58 120.98 393.19 121.22 393.66 122.09 393.51 122.72 392.9 122.49 392.44 121.62 392.58 120.98 
M 135.81 119.36 136.45 119.28 137.28 119.81 137.46 120.44 136.81 120.53 135.99 119.99 135.81 119.36 
M 137.38 119.8 136.79 120.08 135.84 119.82 135.48 119.27 136.07 118.99 137.02 119.26 137.38 119.8 
M 120.55 168.75 120.06 168.32 119.93 167.34 120.29 166.8 120.78 167.23 120.91 168.21 120.55 168.75 
M 121.13 168.01 120.48 168 119.74 167.35 119.66 166.7 120.31 166.71 121.05 167.36 121.13 168.01 
M 412.4 136.01 412.14 136.61 411.25 137.03 410.62 136.86 410.88 136.27 411.77 135.84 412.4 136.01 
M 410.78 136.62 411.34 136.28 412.31 136.43 412.73 136.93 412.17 137.28 411.2 137.12 410.78 136.62 
"/></svg>