<svg xmlns="http://www.w3.org/2000/svg" width="520" height="320"><rect x="0" y="0" width="520" height="320" fill="floralwhite"/><rect x="10" y="10" width="500" height="300" stroke="black" stroke-width="1" fill="none"/><path stroke="black" stroke-width="1" fill="none" stroke-linecap="round" stroke-linejoin="round" d="
M 144.38 135.27 161.31 127.85 169.76 124.47 178.22 121.4 195.12 115.76 203.58 113.48 212.03 111.81 220.49 110.54 245.85 109.93 254.31 111.02 262.76 113.19 271.22 115.87 296.58 124.66 305.04 127.94 330.4 139.29 356.49 150.29 
M 356.49 203.88 338.85 212.99 330.4 217.18 313.49 224.64 305.04 227.79 288.13 233.62 279.67 235.77 262.76 239.32 254.31 240.21 245.85 240.81 237.4 240.55 220.49 240.76 212.03 239.56 203.58 237.6 195.12 235.32 186.67 232.81 178.22 230.62 169.76 228.02 161.31 224.72 152.87 220.87 
M 356.49 166.41 344.85 165.49 339.09 164.65 321.94 161.02 303.84 157.47 300.94 157.03 294.88 156.5 285.79 156.11 281.6 155.49 
M 278.89 154.95 269.53 152.75 265.36 152.06 
M 262.64 151.63 260 151.2 
M 249.69 150.19 245.67 150.24 238.74 150.94 
M 233.28 151.42 230.54 151.69 
M 227.75 152.05 220.54 153.04 217.63 153.32 213.34 153.45 
M 210.6 153.35 202.53 152.75 
M 199.69 152.74 193.83 153.11 
M 190.92 153.46 182.23 154.61 
M 179.31 154.97 173.28 155.9 
M 170.21 156.44 164.29 157.43 
M 161.51 157.84 158.81 158.19 
M 156.74 210.13 158.83 212.79 
M 159.17 207.33 161.31 210.11 
M 165.7 215.54 167.94 218.17 
M 155.74 195.96 157.29 198.41 
M 166.07 210.21 168.33 212.95 
M 170.59 215.65 172.86 218.26 
M 155.87 189.45 157.4 191.98 
M 168.67 207.51 173.29 213.06 
M 177.78 218.37 179.96 220.88 
M 159.11 188.09 164 195.4 
M 166.31 198.62 168.71 201.73 
M 171.16 204.73 173.62 207.62 
M 178.24 213.19 182.59 218.53 
M 186.84 223.37 188.99 225.51 
M 164.46 189.67 166.16 192.23 
M 170.9 198.8 173.44 201.9 
M 176.03 204.88 180.87 210.6 
M 185.15 216.1 187.23 218.71 
M 189.33 221.17 191.49 223.44 
M 156.17 169.41 159.44 175.39 
M 168.32 189.11 172.94 195.78 
M 180.84 205.06 183.32 207.97 
M 189.61 216.33 191.7 218.89 
M 155.11 159.72 160.12 169.35 
M 161.96 172.56 162.97 174.26 
M 172.13 188.48 172.61 189.23 
M 174.96 192.66 178.81 197.64 182.92 202.29 
M 185.51 205.29 187.82 208.23 
M 191.88 213.89 193.94 216.54 
M 206.52 229.48 208.36 231.24 
M 144.7 135.13 148.12 139.92 151.65 145.63 157.54 156.65 
M 159.19 159.84 162.57 166.18 
M 164.41 169.39 166.84 173.36 
M 175 186.23 179.56 192.88 
M 187.6 202.51 192.12 208.5 
M 196.14 214.1 199.42 217.94 202.81 221.44 
M 207.11 225.81 209.11 227.84 
M 148.18 133.62 152.38 139.79 155.78 145.67 158.31 150.43 
M 159.98 153.6 164.22 161.41 168.91 169.44 
M 170.96 172.71 171.11 172.94 
M 179.46 186.19 181.83 189.64 
M 187.16 196.37 191.1 201.16 196.43 208.71 
M 200.59 214.21 202.84 216.78 
M 205.13 219.25 207.4 221.63 
M 151.52 132.17 156.43 139.69 163.22 152 173.54 169.51 
M 177.63 176.01 177.71 176.14 
M 179.81 179.51 183.08 184.63 185.53 188.04 194.67 199.69 
M 198.89 205.88 201.94 210.24 204.1 213 212.05 221.86 
M 154.71 130.77 160.4 139.57 165.65 148.71 171.5 157.96 179.15 171.32 182.32 176.3 
M 184.48 179.64 188.02 184.69 197.19 196.5 
M 201.47 202.89 205.58 208.91 
M 212.25 217.13 214.49 219.64 
M 216.65 222.02 218.72 224.24 
M 157.81 129.39 161.01 134.11 168.06 145.41 176.19 157.84 183.68 171.44 187.99 178 190.39 181.33 194.38 186.37 
M 197.08 189.75 200.82 194.84 206.04 202.9 
M 208.14 206.02 210.31 209.05 
M 221.08 221.98 222.99 224.02 
M 224.72 225.82 227.8 228.8 
M 229.3 230.03 230.88 231.13 
M 160.83 128.06 178.85 154.59 188.15 171.46 190.29 174.7 193.92 179.61 
M 196.57 182.93 201.82 189.67 
M 204.18 193.02 210.57 202.87 
M 212.78 206.09 219.25 214.7 
M 225.2 221.5 226.92 223.35 
M 234.85 230.3 236.62 231.38 
M 163.87 126.82 169.01 133.83 179.16 148.26 182.3 153.08 
M 184.26 156.32 190.67 168.08 192.67 171.4 196.13 176.23 
M 198.69 179.49 201.34 182.8 
M 206.29 189.42 208.5 192.74 
M 210.65 196.08 217.32 206.12 
M 219.51 209.18 222.6 213.21 227.4 218.73 
M 229.12 220.67 230.75 222.46 
M 232.32 224.12 235.54 227.06 
M 242.49 231.86 244.16 232.88 
M 166.85 125.63 173.19 133.74 183.58 148.38 187.76 154.71 192.46 162.92 
M 194.31 166.29 197.34 171.28 207.33 184.18 219.5 202.8 
M 221.74 205.99 225.85 211.34 
M 227.77 213.62 229.62 215.77 
M 231.38 217.81 236.37 223.32 
M 238.06 224.91 239.77 226.38 
M 241.52 227.75 243.25 229.05 
M 244.93 230.28 246.55 231.43 
M 169.71 124.49 177.46 133.73 191.2 153.14 
M 193.24 156.27 200.01 167.85 202.27 171.1 206.06 175.86 
M 208.55 179.06 210.82 182.28 
M 212.9 185.53 214.93 188.87 
M 217.07 192.31 220.48 197.58 224.98 204.1 230.02 210.45 
M 231.89 212.69 233.7 214.86 
M 238.91 220.89 240.64 222.65 
M 242.37 224.28 244.1 225.8 
M 247.43 228.57 248.99 229.84 
M 172.56 123.46 177.86 129.17 181.8 133.84 192.52 148.69 198.84 157.87 202.77 164.47 204.98 167.73 212.39 177.25 214.5 180.46 221.49 192.29 
M 223.73 195.73 228.14 202.02 
M 230.23 204.72 232.23 207.19 
M 234.16 209.54 237.88 214.11 
M 239.7 216.28 244.99 222.07 
M 175.39 122.43 180.15 127.19 184.23 131.59 186.33 134.17 195.97 147.46 
M 198.11 150.4 201.3 154.91 205.34 161.31 208.79 166.07 
M 211.3 169.19 213.8 172.33 
M 218.08 178.78 222.72 187.12 226.97 193.94 231.31 200.06 236.38 206.4 
M 240.32 211.18 242.23 213.46 
M 244.09 215.66 247.58 219.72 
M 253.78 226.37 255.21 227.89 
M 178.3 121.37 186.62 129.58 190.98 134.66 201.48 149.28 204.53 153.8 
M 206.56 156.89 209.8 161.55 217.37 170.66 219.59 173.9 221.57 177.2 227.05 187.16 230.16 192.11 
M 232.31 195.23 236.52 200.76 
M 240.68 205.74 242.74 208.17 
M 244.74 210.55 248.43 215.09 
M 251.67 219.19 253.16 221.06 
M 254.61 222.85 256.03 224.6 
M 258.91 227.94 260.46 229.46 
M 181.4 120.37 186.83 125.57 192.29 131.25 
M 194.49 133.84 197.64 138.08 204.74 148.38 
M 206.68 151.34 209.63 155.83 211.8 158.81 215.52 163.16 
M 218.11 166.09 221.79 170.74 223.95 174.07 226.78 179.06 
M 228.55 182.33 231.27 187.13 233.27 190.29 236.46 194.81 
M 238.61 197.58 242.96 202.7 
M 245.11 205.14 247.16 207.57 
M 252.5 214.54 254.01 216.69 
M 258.21 222.8 259.62 224.7 
M 184.52 119.35 193.47 128.11 197.91 132.97 200.04 135.67 202.09 138.62 211.77 153.31 214.98 157.56 
M 217.4 160.35 221.25 164.62 223.76 167.7 226.09 171 228.19 174.37 230.96 179.27 
M 234.46 185.44 236.37 188.47 
M 238.46 191.5 241.79 195.84 245.15 199.72 
M 251.38 206.99 253.15 209.4 
M 254.75 211.76 257.62 216.41 
M 260.36 220.89 261.79 222.98 
M 187.67 118.31 194.68 125.17 
M 196.86 127.37 200.19 130.87 202.39 133.46 204.53 136.3 214.15 150.8 216.09 153.47 218.24 156.15 223.09 161.64 226.82 166.28 
M 229.15 169.6 232.31 174.63 238.52 185.25 
M 247.2 196.78 249.4 199.25 
M 251.51 201.63 254.38 205.21 256.83 208.94 
M 261.1 216.4 262.52 218.79 
M 190.82 117.23 202.57 128.81 204.81 131.3 206.98 134.03 218.58 150.77 227.45 161.48 229.87 164.68 234.35 171.47 239.75 180.59 242.58 185.05 
M 244.7 188.09 249.12 193.81 
M 251.29 196.34 253.38 198.73 
M 263.21 213.95 264.71 216.5 
M 266.29 218.93 267.97 221.2 
M 194.02 116.14 205.15 126.64 207.38 129.03 209.53 131.67 220.25 146.77 
M 222.09 149.22 229.39 158.23 231.69 161.34 236.21 168.11 242.6 178.7 
M 244.5 181.7 248.79 187.83 
M 253.07 193.35 256.18 197.07 258.95 200.77 
M 260.6 203.33 263.75 208.66 
M 270.37 218.95 272.13 221.11 
M 197.43 115.14 207.92 124.37 210.1 126.64 212.19 129.17 218.03 137.52 223.71 145.21 231.44 155.06 235.77 161.25 238.96 166.18 
M 240.87 169.31 242.62 172.27 
M 244.35 175.15 247.23 179.66 251.63 185.93 260.85 198.05 
M 265.76 205.95 267.47 208.68 
M 271 214.04 272.77 216.53 
M 201.02 114.17 208.59 120.12 210.79 122.06 212.9 124.21 214.91 126.61 216.8 129.22 222.37 137.3 232.64 150.76 
M 234.58 153.44 239.81 160.98 246.95 172.99 249.97 177.59 
M 252.17 180.78 258.93 189.88 
M 261.02 192.64 262.92 195.31 
M 267.89 203.27 269.67 205.99 
M 277.01 216.4 278.79 218.56 
M 284.34 224.35 286.34 226.12 
M 204.86 113.23 209.19 116.29 213.63 119.86 215.66 121.88 217.57 124.14 224.7 134.39 234.01 146.64 241.88 157.5 243.83 160.56 248.84 169.52 250.72 172.48 254.98 178.85 260.89 186.72 
M 265.12 192.5 268.57 197.93 
M 273.87 206.13 275.81 208.89 
M 283.07 218.42 284.88 220.48 
M 208.91 112.43 214.12 116.02 216.28 117.81 218.28 119.76 220.09 121.88 221.78 124.19 226.94 131.58 233.62 140.11 
M 235.44 142.58 241.04 150.06 
M 243.08 152.76 246.94 158.62 
M 248.62 161.62 250.22 164.64 
M 272.63 198.01 275.27 202.14 280.19 209.04 
M 282.06 211.61 283.85 214 
M 285.61 216.26 287.44 218.39 
M 212.87 111.68 216.58 114.2 218.7 115.93 220.67 117.81 222.45 119.83 229.08 128.92 234.93 135.92 240.35 143.43 246.3 150.96 248.3 153.79 251.77 159.77 255.8 167.55 
M 257.62 170.7 260.75 175.47 268.22 184.97 270.46 188.04 274.99 195.36 
M 276.75 198.17 278.63 200.95 
M 284.54 209.14 286.37 211.63 
M 288.18 213.97 290.05 216.16 
M 292.05 218.21 294.19 220.16 
M 216.75 111.1 220.96 114.2 222.89 115.97 224.65 117.89 231.21 126.38 237.07 133.07 244.3 143.09 250.39 150.62 252.31 153.48 254.07 156.49 256.48 161.18 
M 258.09 164.39 260.69 169.22 263.8 173.92 
M 266.19 177.06 268.72 180.22 
M 271.19 183.38 272.38 184.97 275.39 189.62 
M 277.2 192.62 279.02 195.51 
M 282.92 201.08 284.93 203.82 
M 288.82 209.11 290.68 211.54 
M 220.34 110.57 223.14 112.55 225.05 114.2 226.81 115.99 231.67 121.88 239.17 130.25 241.01 132.64 245.4 139.05 
M 247.27 141.56 252.35 147.7 254.34 150.38 257.99 156.38 263.01 166.09 264.88 169.28 266.94 172.34 273.06 180.23 
M 277.41 186.62 279.3 189.74 
M 281.18 192.74 285.15 198.4 
M 301.28 217.61 303.42 219.61 
M 224.53 110.41 227.23 112.46 229.01 114.1 236.72 122.33 
M 238.56 124.28 241.35 127.43 243.15 129.76 247.48 136.18 
M 253.25 143.69 256.29 147.45 258.26 150.23 261.09 154.78 
M 262.87 157.95 264.63 161.2 
M 268.32 167.67 269.32 169.25 277.45 180.33 
M 279.51 183.54 283.35 189.82 
M 289.39 198.27 291.39 200.93 
M 295.29 206.21 297.22 208.69 
M 303.41 215.28 305.54 217.35 
M 228.85 110.28 233.04 113.77 240.96 121.6 
M 242.76 123.58 245.4 126.88 251.44 135.86 
M 253.29 138.38 258.25 144.53 263.27 151.65 
M 265.23 154.73 268.98 161.18 
M 270.91 164.48 273.01 167.73 
M 275.27 170.9 279.8 177.22 
M 281.83 180.42 283.73 183.61 
M 285.62 186.74 288.56 191.17 293.54 197.86 
M 299.4 205.88 301.33 208.34 
M 233.51 110.22 237.23 113.2 240.78 116.39 244.31 119.88 246.05 121.86 247.75 124.05 254.55 134.09 262.32 144.2 267.51 151.58 
M 271.46 157.94 274.45 162.95 281.26 172.57 284.29 177.28 
M 286.15 180.43 289.84 186.41 
M 293.68 191.84 295.65 194.53 
M 299.62 200.13 303.48 205.5 
M 307.5 210.32 309.61 212.6 
M 313.86 217.1 315.34 218.67 
M 238.42 110.15 243.26 114.02 246.77 117.38 248.47 119.27 250.13 121.39 256.85 131.05 266.54 143.98 271.73 151.6 
M 273.71 154.8 276.75 159.77 282.52 167.96 
M 284.71 171.08 290.34 180.15 
M 292.14 182.98 295.85 188.35 
M 301.73 196.83 303.71 199.73 
M 305.68 202.52 309.64 207.68 
M 313.81 212.51 315.93 214.88 
M 243.33 110 247.47 113.38 250.86 116.93 254.18 121.17 269.74 142.48 
M 271.79 145.51 279.95 158.26 
M 282.25 161.54 284.61 164.79 
M 286.88 167.94 292.66 176.82 
M 294.45 179.61 299.97 187.67 
M 313.91 207.58 315.97 210.14 
M 248.58 110.28 251.55 113 256.63 118.85 267.02 132.53 271.86 139.64 
M 273.85 142.66 279.87 151.9 
M 284.18 158.29 288.88 164.66 
M 293.05 170.69 294.92 173.57 
M 300.4 181.78 302.27 184.54 
M 310.14 196.41 312.18 199.34 
M 314.19 202.2 316.19 205 
M 253.67 110.94 255.61 112.88 259.09 116.75 267.69 127.55 271.21 132.57 276.91 141.42 281.98 148.88 
M 286.24 155.01 290.91 161.27 
M 293.14 164.36 295.2 167.39 
M 297.13 170.35 300.91 176.06 
M 306.56 184.5 308.48 187.45 
M 310.45 190.46 312.45 193.5 
M 322.5 208.15 324.55 210.91 
M 259.07 112.24 265.04 118.87 270.14 125.21 273.5 130.07 281.01 141.61 286.29 148.78 
M 288.52 151.74 290.82 154.77 
M 295.39 160.94 297.45 164.03 
M 299.4 167.1 301.34 170.13 
M 303.3 173.1 305.23 175.99 
M 307.15 178.84 310.97 184.7 
M 312.9 187.71 314.85 190.74 
M 318.82 196.8 320.82 199.82 
M 264.57 113.76 267.4 116.8 270.82 120.82 274.09 125.16 276.65 128.95 
M 278.44 131.69 283.2 138.77 286.36 142.92 
M 288.6 145.71 296.73 155.97 299.89 160.66 
M 301.84 163.82 304.74 168.53 313.54 181.99 
M 315.44 185.05 317.34 188.1 
M 319.24 191.14 323.13 197.22 
M 270.33 115.58 273.01 118.63 276.29 122.78 283.53 133.12 287.6 138.6 296.9 149.67 300.3 154.21 
M 302.4 157.36 306.31 163.76 
M 312.24 173.02 318.03 182.35 
M 319.89 185.46 321.74 188.52 
M 323.61 191.57 325.5 194.62 
M 331.2 203.6 333.12 206.5 
M 276.04 117.59 278.43 120.41 282.98 126.32 
M 284.91 128.92 286.92 131.58 
M 289 134.29 301.59 149.5 306.94 157.37 
M 310.91 163.75 312.85 166.87 
M 320.63 179.55 327.96 192.03 
M 281.97 119.69 301.57 143.7 306.15 149.53 308.42 152.68 312.67 159.12 320.41 171.77 330.5 189.46 
M 337.74 201.4 341.34 206.87 
M 288.44 121.93 295.11 129.78 304.96 142.31 
M 307.28 145.18 310.86 149.73 315.4 156.18 322.13 167.28 
M 323.99 170.55 325.83 173.88 
M 327.65 177.22 329.46 180.53 
M 333.08 186.88 336.58 192.92 
M 338.34 195.88 340.14 198.84 
M 295.2 124.2 299.77 129.64 306.09 138.07 313.18 146.84 318.05 153.28 322.19 159.69 324.02 162.87 331.99 177.79 
M 335.62 184.26 339.11 190.36 
M 340.81 193.35 342.55 196.33 
M 302.08 126.79 310.52 137.97 317.98 147.1 322.86 153.63 326.78 160.12 331.05 168.31 
M 334.52 175.03 339.9 184.73 
M 308.94 129.69 315.02 137.92 322.81 147.41 325.3 150.72 327.48 154.05 332.02 162.3 
M 337.11 172.22 338.85 175.55 
M 345.78 188.35 349.17 194.31 
M 351.02 197.15 352.99 199.92 
M 315.75 132.77 319.72 138.05 327.53 147.81 329.86 151.18 333.76 157.91 341.46 172.66 
M 344.8 179.13 346.51 182.38 
M 349.96 188.79 353.48 194.54 
M 322.71 135.93 329.74 144.91 332.15 148.27 334.34 151.66 337.26 156.73 
M 339.09 160.04 342.53 166.52 
M 344.11 169.69 348.94 179.3 
M 350.69 182.62 352.48 185.9 
M 329.8 139.03 334.52 145.34 336.81 148.7 340.93 155.45 343.7 160.39 
M 345.37 163.58 351.44 176.07 
M 355.01 182.71 356.49 185.31 
M 336.69 141.93 339.37 145.69 343.72 152.36 348.35 160.58 
M 351.24 166.75 354.09 172.86 
M 343.51 144.83 347.54 150.88 
M 349.57 154.19 352.26 159.1 356.49 168.74 
M 350.18 147.65 354.37 154.26 
M 356.1 157.51 356.49 158.31 
M 144.83 135.08 144.5 135.5 
M 151.45 132.2 146.47 138.3 
M 158.02 129.3 153.72 134.36 148.07 141.74 
M 164.65 126.51 161.83 129.41 157.71 134.23 149.43 145.62 
M 170.84 124.08 165.75 129.31 161.64 134.09 154.67 144.14 
M 152.57 147.15 150.92 149.43 
M 176.93 121.87 171.67 127.15 167.65 131.47 163.61 136.64 160.68 141.05 
M 158.7 144.13 155.66 148.78 152.47 153.23 
M 183.74 119.6 177.55 125.23 173.72 129.16 170.7 132.59 
M 168.67 135.15 165.66 139.39 160.71 147.25 
M 158.68 150.42 153.83 157.42 
M 191.71 116.93 187.78 120.01 183.76 123.51 179.82 127.18 175.9 131.34 171.83 136.38 169.82 139.25 162.74 150.41 
M 160.68 153.6 156.48 159.78 
M 199.79 114.5 194.43 118.44 190.14 121.97 184.17 127.35 180.17 131.39 176.1 136.35 174.1 139.17 169.11 146.95 
M 167.01 150.24 158.44 163 
M 156.43 166.2 155.71 167.41 
M 206.56 112.89 199.05 118.54 194.62 122.2 186.64 129.58 182.52 133.88 180.42 136.42 178.43 139.18 170.46 151.66 164.79 159.8 
M 162.56 163 158.37 169.36 
M 156.46 172.6 156.12 173.21 
M 212.44 111.75 203.96 118.43 199.19 122.39 195.07 126.19 189.18 132.04 184.91 136.69 182.83 139.34 178.11 146.7 
M 173.99 153.08 163.58 167.78 160.45 172.54 
M 217.9 110.93 206.58 120.23 200.67 125.48 
M 198.61 127.48 189.56 137.15 187.41 139.7 184.43 143.85 
M 182.54 146.81 179.67 151.43 176.38 156.22 
M 174.01 159.52 168.05 167.8 164.09 173.63 
M 222.81 110.47 218.25 114.19 209.21 122.14 202.21 128.79 198.28 133.01 192.06 140.19 189.98 142.77 187.01 146.99 
M 185.07 149.99 178.64 159.52 
M 176.26 162.85 168.99 173.15 
M 157.88 192 156.08 195.22 
M 227 110.34 222.51 114.2 211.76 124.25 202.77 133.51 197.67 139.44 
M 195.6 141.95 192.52 145.82 190.52 148.6 185.38 156.33 
M 183.13 159.62 180.81 162.95 
M 178.47 166.28 174.03 172.66 
M 158.47 198.44 156.54 201.51 
M 230.89 110.25 226.53 114.18 216.52 124.15 203.16 138.78 199.06 143.63 195.03 148.81 187.61 159.62 
M 185.3 163.01 182.99 166.39 
M 180.74 169.71 177.29 174.84 
M 156.96 207.36 155.82 208.95 
M 234.56 110.21 228.55 115.96 220.84 124.17 203.48 144.2 200.51 147.84 
M 198.52 150.44 190.96 161.24 185.24 169.79 
M 181.05 176.26 178.89 179.48 
M 174.25 186.7 172.79 189.23 
M 171.04 192.46 169.33 195.61 
M 159.42 210.09 157.34 212.79 
M 238.19 110.15 232.51 115.7 226.66 122.05 222.83 126.63 212.18 140.06 203.86 149.58 201 153.46 
M 198.96 156.34 193.13 164.61 187.62 173.09 
M 185.61 176.35 181.39 182.9 
M 175.48 192.69 171.28 200.34 168.39 204.66 
M 241.84 110.05 238.81 112.95 234.54 117.42 228.55 124.25 216.66 140.28 214.49 142.92 208.03 150.2 203.38 156.6 
M 201.3 159.58 194.27 169.68 
M 186.19 183 184.08 186.33 
M 178.4 196.05 176.77 199.06 
M 175.1 201.96 173.25 204.8 
M 164.49 215.51 162.33 218.02 
M 245.51 109.94 243.06 112.24 238.77 116.75 232.48 123.99 228.78 128.94 221.04 140.13 218.93 142.92 211.24 151.92 
M 209.35 154.43 201.34 166.16 
M 198.99 169.55 195.77 174.59 190.13 184.69 187.05 189.75 
M 183.19 196.24 181.5 199.27 
M 173.95 210.38 171.65 213.02 
M 248.72 110.3 245.18 113.71 240.88 118.4 236.65 123.44 233.74 127.29 
M 231.9 129.89 223.26 142.64 214.48 153.46 211.75 157.42 
M 208.26 163.01 200.6 174.43 197.75 179.52 
M 194.17 186.36 186.34 199.45 
M 184.62 202.37 182.9 205.15 
M 181.01 207.86 177.77 211.84 174.32 215.72 
M 251.97 110.72 247.26 115.3 242.99 120.11 240.88 122.72 236.95 128.06 227.52 142.17 224.33 146.42 
M 222.15 149.22 216.96 156.19 214.43 160.33 
M 212.84 163.14 211.09 166.1 
M 206.87 172.55 203.59 177.62 201.68 181.08 199.07 186.29 
M 197.27 189.75 195.32 193.16 
M 193.25 196.46 187.51 205.39 
M 183.67 210.72 181.49 213.31 
M 179.23 215.86 176.94 218.35 
M 255.25 111.26 251.34 114.9 247.19 119.43 245.08 122 241.05 127.48 232.7 140.21 
M 230.69 143.09 223.39 153.04 221.43 155.97 219.67 158.89 215 167.58 213.12 170.73 206.55 180.83 203.77 186.12 
M 202.02 189.66 200.18 193.13 
M 198.16 196.49 196.04 199.7 
M 186.12 213.54 181.77 218.5 
M 258.45 112.09 255.4 114.76 251.25 119.03 249.19 121.47 245.1 126.92 235.85 141.22 227.8 152.57 224.12 158.62 221.77 163.14 
M 218.68 169.12 215.9 173.91 210.33 182.31 
M 206.49 189.41 203.8 194.76 202.79 196.45 
M 200.7 199.74 196.37 205.82 
M 190.46 213.81 188.49 216.28 
M 261.7 112.92 257.45 116.74 255.34 118.87 251.15 123.76 247.12 129.34 240.71 139.42 
M 238.88 142.25 233.99 149.29 230.22 155.15 228.49 158.29 223.88 167.71 221.33 172.34 
M 219.37 175.53 213.8 183.8 211.73 187.3 207.19 196.26 
M 196.65 211.48 194.71 214.05 
M 192.83 216.5 188.88 221.17 
M 264.85 113.85 261.64 116.78 257.38 121.08 253.13 126.19 247.23 134.82 241.92 143.29 236.22 151.87 233.55 156.47 
M 231.93 159.7 230.4 163.02 
M 228.9 166.3 225.64 172.58 
M 223.73 175.68 221.63 178.84 
M 217.19 185.41 215.11 188.86 
M 213.25 192.42 209.62 199.54 
M 205.48 205.96 201.13 211.58 
M 267.87 114.81 261.6 121.03 257.25 125.87 253.13 131.55 248.42 138.83 
M 246.7 141.6 243.27 147.12 
M 241.42 150.02 239.53 153.07 
M 237.7 156.25 235.25 161.26 232.3 168.08 230.71 171.32 228.96 174.43 227 177.49 221.6 185.44 
M 219.52 188.82 215.78 195.86 
M 214 199.41 212.14 202.83 
M 210.13 206.03 207.99 208.97 
M 270.8 115.73 261.45 125.58 259.28 128.17 257.19 131 251.51 139.93 242.87 154.27 241 157.58 239.28 161.03 237.04 166.34 
M 233.92 173.07 231.17 177.73 224.89 187.15 222.93 190.54 217.54 201.12 214.75 206.09 
M 212.71 209.11 210.57 211.87 
M 208.42 214.44 204.34 219.22 
M 273.53 116.7 269.9 120.86 263.48 127.78 261.33 130.44 259.28 133.33 252.19 145.07 243.3 160.62 241.59 164.17 239.34 169.55 
M 237.83 172.99 236.13 176.24 
M 234.22 179.34 232.21 182.42 
M 230.18 185.56 228.23 188.84 
M 224.6 195.73 222.83 199.26 
M 219.26 206.11 217.33 209.19 
M 276.24 117.66 271.86 122.94 265.55 130.05 263.45 132.77 259.6 138.8 250.23 155.19 
M 248.3 158.5 245.37 163.63 242.89 168.97 
M 241.4 172.51 239.06 177.6 238.14 179.19 
M 236.24 182.33 233.34 187.06 230.66 192.1 
M 228.92 195.52 225.41 202.42 
M 219.8 212.02 216.77 216 213.7 219.61 
M 279 118.65 267.7 132.51 265.69 135.32 261.92 141.34 253.25 156.53 248.25 164.86 
M 246.43 168.31 243.37 175.32 
M 240.15 182.07 236.52 188.47 
M 234.81 191.81 229.65 201.85 
M 224.13 211.64 222.19 214.55 
M 209.76 227.88 207.52 229.54 
M 281.95 119.68 271.87 132.6 268.02 138.08 265.22 142.56 
M 261.66 148.65 257.17 156.39 250.19 167.8 
M 248.43 171.17 246.9 174.65 
M 242.38 185.03 237.27 194.74 
M 235.57 197.97 233.83 201.18 
M 232.04 204.4 230.21 207.64 
M 226.42 213.91 223.57 218.23 220.69 222 
M 285.1 120.77 281.72 125.05 272.18 138.21 268.57 143.95 261.15 156.34 255.05 165.97 251.44 172.41 249.9 175.87 246.4 184.77 
M 241.51 194.39 236.2 203.66 
M 226.73 218.87 224.85 221.56 
M 288.37 121.9 283.95 127.59 278.1 135.83 274.47 141.25 267.31 153.12 257.09 169.14 254.57 173.89 
M 253.09 177.29 251.71 180.83 
M 250.36 184.39 248.94 187.81 
M 242.32 200.04 240.47 203.04 
M 238.56 206.06 234.67 212.11 
M 291.77 123.05 286.26 130.22 278.53 141.52 269.61 156.28 261.12 169.23 258.54 173.87 
M 257.06 177.12 252.87 187.38 
M 251.42 190.65 248.35 196.68 
M 246.67 199.57 244.87 202.48 
M 242.94 205.44 236.81 214.29 
M 234.75 217.1 232.7 219.84 
M 295.26 124.22 288.68 132.89 284.57 138.73 279.11 147.33 271.85 159.58 266.39 167.68 
M 264.39 170.82 261.84 175.48 258.36 183.68 
M 253.84 193.25 251.64 197.66 249.18 201.95 
M 245.37 207.81 243.28 210.75 
M 241.13 213.62 236.79 219.06 
M 234.66 221.61 232.58 224.06 
M 298.76 125.5 291.17 135.59 287.04 141.47 283.27 147.37 276.19 159.74 273.13 164.53 
M 270.93 167.69 268.79 170.79 
M 266.92 173.9 266.07 175.48 261.06 186.72 
M 257.8 192.85 256.24 195.73 
M 253.21 201.39 251.54 204.29 
M 249.69 207.23 245.54 213.01 
M 243.33 215.76 241.09 218.39 
M 234.48 225.54 232.41 227.69 
M 302.23 126.85 293.76 138.3 287.68 147.22 283.87 153.48 278.77 163.1 276.81 166.26 273.54 170.86 
M 271.48 173.91 270.52 175.45 268.23 180.22 
M 266.81 183.42 265.3 186.57 
M 260.12 195.42 258.49 198.18 
M 253.7 206.66 249.84 212.44 
M 243.2 220.28 236.47 226.9 
M 305.69 128.23 296.43 141.01 290.34 150.08 286.43 156.61 284 161.55 
M 282.36 164.78 279.52 169.48 276.28 174.01 
M 274.31 177.09 273.39 178.65 268.72 188.05 267.82 189.55 
M 265.96 192.47 260.52 200.68 
M 251.82 214.63 248.63 218.53 246.4 220.92 242.99 224.2 
M 308.97 129.71 299.15 143.74 293.05 153.02 289.17 159.75 286.71 164.75 
M 285.03 167.97 284.15 169.55 277.91 178.75 276.07 181.88 272.8 188.06 270.05 192.44 
M 268.05 195.23 263.22 201.93 259.16 208.76 
M 255.61 214.15 251.61 219.19 
M 245.06 225.68 242.82 227.58 
M 312.26 131.19 309.45 135.12 298.88 151.13 
M 296.8 154.38 293.71 159.43 290.99 164.53 
M 289.28 167.84 286.54 172.6 283.45 177.28 
M 281.36 180.41 279.4 183.54 
M 277.59 186.63 274.98 191.11 272.07 195.27 
M 270 197.94 266.93 201.92 264.26 205.95 
M 260.88 211.34 257.29 216.41 
M 315.59 132.7 311.94 137.94 299.37 157.45 
M 297.27 160.81 288.75 175.62 282.56 185.18 277.05 194.05 268.95 204.62 264.39 211.34 
M 262.59 213.93 259.86 217.57 255.13 222.82 
M 253.16 224.74 251.1 226.6 
M 248.97 228.39 246.82 230.07 
M 319.12 134.3 316.49 137.94 311.07 146.74 300.66 162.25 288.83 181.88 281.05 194.18 279.18 196.91 274.13 203.44 
M 270.17 208.72 268.21 211.38 
M 322.88 136 321.26 138.14 319.38 141.04 315.84 146.97 313.92 149.91 302.92 165.41 295.93 176.48 
M 293.96 179.71 288.07 189.68 
M 286.17 192.77 282.4 198.36 
M 278.46 203.64 268.25 216.57 
M 266.22 218.93 262.31 223 
M 250.55 232.27 248.54 233.56 
M 326.82 137.72 324.23 141.36 318.76 150.24 307.4 165.35 300.08 176.11 
M 298.08 179.16 294.14 185.68 
M 292.23 189.08 287.6 196.99 284.77 201.11 
M 282.83 203.78 278.75 209.01 
M 276.62 211.54 272.38 216.55 
M 270.3 218.96 266.18 223.2 
M 258.38 229.39 256.42 230.72 
M 252.43 233.24 251.35 233.89 
M 330.82 139.47 329.13 141.77 323.58 150.58 321.49 153.53 312.01 165.32 300.25 181.81 
M 298.26 184.94 296.35 188.26 
M 294.49 191.66 291.78 196.61 288.09 202.45 284.17 207.85 278.79 214.03 
M 274.49 218.82 272.4 221.1 
M 260.28 230.78 258.32 231.94 
M 334.85 141.16 332.02 145.12 326.18 153.92 323.96 156.8 316.67 165.41 313.21 169.96 
M 311 173.01 306.63 178.82 
M 304.5 181.64 302.44 184.54 
M 300.47 187.63 296.78 194.32 
M 295 197.63 293.19 200.76 
M 289.42 206.48 287.41 209.14 
M 285.29 211.64 275.56 221.94 273.5 224.05 270.42 226.81 
M 266.32 229.74 264.31 230.94 
M 338.8 142.82 328.48 157.26 318.94 168.57 311.09 178.91 
M 308.89 181.71 305.68 185.92 303.66 188.9 300.88 193.77 
M 297.3 200.36 295.48 203.43 
M 291.64 209.03 287.41 213.99 
M 280.87 220.57 278.77 222.67 
M 272.66 228.3 270.62 229.8 
M 342.68 144.48 336.14 153.43 
M 333.95 156.36 330.6 160.59 323.54 168.94 320.12 173.31 
M 317.86 176.25 311.16 184.71 
M 309.01 187.48 305.97 191.9 301.39 199.95 
M 299.58 203.07 296.78 207.45 293.88 211.39 
M 291.8 213.85 289.6 216.18 
M 280.99 224.42 278.98 226.3 
M 346.53 146.12 337.25 158.31 328 169.45 322.37 176.62 
M 320.11 179.5 317.86 182.32 
M 315.63 185.07 312.35 189.11 310.29 191.94 308.33 194.93 303.67 202.7 
M 283.27 226.14 281.29 227.83 
M 350.35 147.72 344.33 155.64 332.37 170.04 323.43 181.35 316.78 189.48 312.66 194.98 309.75 199.4 
M 305.93 205.29 304.08 208.08 
M 302.31 210.73 298.68 215.63 
M 294.47 220.14 292.2 222.26 
M 354.1 149.29 349.16 155.81 339.07 167.76 333.33 174.87 
M 331.14 177.68 328.94 180.47 
M 326.72 183.22 318.04 193.89 
M 316.03 196.6 314.05 199.38 
M 308.25 207.76 306.45 210.38 
M 356.49 152.55 351.28 159.08 343.46 168.12 331.11 183.74 
M 328.88 186.41 325.54 190.35 321.36 195.63 310.65 210.15 
M 356.49 158.46 347.75 168.25 336.53 182.9 328.83 192.13 
M 324.66 197.38 320.71 202.6 
M 316.79 207.66 314.9 210.11 
M 313.09 212.5 311.35 214.85 
M 307.91 219.39 306.12 221.57 
M 356.49 163.44 352.02 168.26 349.5 171.32 340.81 183.36 331 195.19 
M 328.93 197.81 324.96 203.02 
M 319.19 210.34 317.34 212.61 
M 355.06 169.76 351.39 174.44 344.98 183.79 341.79 187.84 
M 339.61 190.42 334.2 196.91 323.47 210.77 
M 321.63 212.98 319.81 215.12 
M 356.49 173.42 347.02 187.04 338.45 197.29 331.41 206.35 
M 356.49 179.72 351.22 187.42 347.94 191.44 
M 337.56 204.14 335.6 206.71 
M 333.71 209.26 331.91 211.74 
M 356.49 186.26 354.45 189 
M 352.19 191.78 347.91 196.92 
M 356.49 191.95 350.17 199.8 
M 356.49 197.43 354.56 199.94 
M 193.82 115.83 195.13 115.76 
M 204.35 113.08 204.75 61.88 205.47 61.88 206.95 112.81 
M 215.05 111.05 221.51 44.9 222.23 44.96 217.67 110.97 
M 225.89 110.11 238.67 41.43 239.38 41.55 228.5 110.29 
M 236.77 109.87 255.87 30 256.58 30.16 239.38 110.12 
M 247.67 109.9 273.56 37.91 274.25 38.15 250.22 110.49 
M 258.41 111.77 291.49 49.85 292.14 50.18 260.86 112.7 
M 268.88 114.79 311.23 48.78 311.85 49.17 271.26 115.88 
M 279.14 118.36 322.5 54.79 323.11 55.19 281.5 119.53 
M 289.42 121.89 323.58 73.12 324.18 73.53 291.78 123.05 
M 299.69 125.49 328.74 87.78 329.32 88.21 301.99 126.76 
M 309.73 129.68 331.53 104.5 332.09 104.96 311.96 131.06 
M 320.95 134.74 321.95 135.59 
M 195.61 115.63 199.86 99.72 202.05 88.93 203.6 78.01 204.71 67 
M 205.62 67 209.67 64.21 213.41 61.11 216.68 57.55 220.86 51.51 
M 221.77 51.59 225.43 51.77 229.01 51.52 232.44 50.62 237.39 48.29 
M 238.29 48.45 242.29 46.9 246.05 44.98 249.44 42.51 253.96 37.98 
M 254.85 38.18 258.07 40.58 261.46 42.57 265.11 43.95 270.97 45.11 
M 271.84 45.41 276.6 50 280.14 52.51 284.04 54.46 288.18 56.04 
M 289 56.46 295.07 57.35 299.08 57.29 303.05 56.55 307 55.38 
M 307.77 55.87 310.67 58.75 312.9 60.07 315.44 60.8 318.17 61.14 
M 318.93 61.65 318.09 67.19 318.19 70.84 318.96 74.44 320.16 78 
M 320.92 78.51 321.14 81.74 321.77 84.81 323.02 87.65 325.84 91.55 
M 326.57 92.09 326.26 97.3 326.71 100.65 327.81 103.87 329.35 107.02 
M 330.05 107.6 326.04 116.46 323.99 122.57 322.59 128.87 321.6 135.29 
M 207.67 65.62 211.6 62.71 213.41 61.11 216.68 57.55 219.52 53.58 
M 208 70.27 211.54 67.65 213.17 66.21 216.11 63.01 218.67 59.43 
M 208.33 74.92 211.48 72.59 212.93 71.31 215.54 68.47 217.82 65.29 
M 208.67 79.57 212.69 76.42 214.97 73.92 216.96 71.14 
M 209 84.22 212.45 81.52 214.4 79.38 216.11 76.99 
M 209.33 88.87 212.2 86.62 213.84 84.84 215.26 82.85 
M 209.67 93.52 211.96 91.72 213.27 90.29 214.41 88.7 
M 223.61 51.71 227.24 51.72 229.01 51.52 232.44 50.62 235.76 49.14 
M 223.46 56.3 226.81 56.31 230.04 55.79 231.61 55.3 234.67 53.94 
M 223.32 60.89 226.38 60.9 227.88 60.73 230.78 59.97 233.58 58.73 
M 223.18 65.48 225.96 65.49 227.32 65.34 229.95 64.65 232.49 63.52 
M 223.03 70.07 226.75 69.95 229.12 69.33 231.4 68.31 
M 222.89 74.67 226.19 74.55 228.29 74 230.32 73.1 
M 222.75 79.26 224.68 79.26 226.55 78.96 229.23 77.89 
M 222.6 83.85 225.06 83.77 226.63 83.36 228.14 82.68 
M 222.46 88.44 224.5 88.37 225.8 88.03 227.05 87.47 
M 240.31 47.7 244.21 46 246.05 44.98 249.44 42.51 252.5 39.56 
M 239.71 52.56 243.31 51 246.61 48.99 248.13 47.78 250.95 45.06 
M 239.11 57.43 242.41 56 243.96 55.14 246.82 53.05 249.4 50.55 
M 238.51 62.29 241.5 60.99 244.25 59.32 245.51 58.32 247.86 56.05 
M 237.91 67.16 241.87 65.29 244.2 63.59 246.31 61.55 
M 237.31 72.02 239.7 70.99 241.89 69.65 244.76 67.05 
M 236.71 76.89 239.78 75.44 241.58 74.12 243.22 72.54 
M 236.12 81.75 238.73 80.51 240.27 79.39 241.67 78.04 
M 235.52 86.62 237.69 85.59 238.97 84.66 240.12 83.54 
M 256.45 39.41 259.73 41.65 261.46 42.57 265.11 43.95 268.99 44.8 
M 255.54 44.37 258.59 46.45 260.2 47.31 263.59 48.59 267.2 49.38 
M 254.63 49.33 257.46 51.25 260.48 52.71 262.08 53.23 265.42 53.96 
M 253.72 54.28 256.32 56.05 259.09 57.39 260.56 57.87 263.63 58.54 
M 252.82 59.24 256.42 61.52 259.05 62.51 261.84 63.12 
M 251.91 64.2 255.16 66.26 257.53 67.15 260.06 67.7 
M 251 69.16 253.9 70.99 256.02 71.79 258.27 72.28 
M 250.09 74.12 252.64 75.73 254.51 76.43 256.48 76.86 
M 249.18 79.08 251.38 80.47 252.99 81.07 254.7 81.45 
M 248.27 84.03 250.13 85.2 251.48 85.71 252.91 86.03 
M 273.38 47.01 276.6 50 280.14 52.51 282.05 53.55 286.1 55.28 
M 271.89 52.01 274.86 54.78 276.45 56 279.89 58.04 283.62 59.64 
M 270.41 57.01 273.12 59.55 274.58 60.67 277.73 62.54 281.14 64 
M 268.92 62.02 271.38 64.32 272.7 65.33 275.56 67.04 278.66 68.36 
M 267.43 67.02 269.64 69.09 272.08 70.82 276.19 72.72 
M 265.94 72.03 268.96 74.67 271.24 76.03 273.71 77.08 
M 264.45 77.03 266.17 78.63 268.05 79.97 271.23 81.44 
M 262.96 82.04 265.21 84.01 266.91 85.02 268.75 85.8 
M 261.47 87.04 263.34 88.67 264.75 89.51 266.27 90.16 
M 291.03 56.84 295.07 57.35 297.08 57.41 301.07 57 305.03 56 
M 288.98 61.28 292.71 61.75 294.57 61.8 298.25 61.42 301.9 60.5 
M 286.94 65.72 290.36 66.15 292.06 66.2 295.43 65.85 298.77 65.01 
M 284.9 70.16 288 70.55 291.08 70.5 292.6 70.28 295.64 69.51 
M 282.86 74.6 287.03 74.99 289.78 74.71 292.5 74.02 
M 280.82 79.04 284.52 79.39 286.96 79.13 289.37 78.53 
M 278.78 83.48 282.01 83.78 284.13 83.56 286.24 83.03 
M 276.73 87.92 278.58 88.15 280.4 88.12 283.11 87.54 
M 274.69 92.36 276.22 92.55 277.74 92.53 279.98 92.04 
M 308.7 56.9 310.67 58.75 312.9 60.07 314.13 60.5 316.79 61 
M 306.35 61.12 308.18 62.84 309.18 63.53 311.4 64.48 313.87 64.94 
M 304 65.35 305.69 66.94 306.62 67.58 308.67 68.45 310.95 68.88 
M 301.65 69.58 303.2 71.04 304.05 71.62 305.94 72.43 308.04 72.82 
M 299.3 73.8 301.49 75.67 303.21 76.4 305.12 76.76 
M 296.94 78.03 298.22 79.23 299.67 80.09 302.2 80.7 
M 294.59 82.26 296.36 83.76 297.74 84.35 299.28 84.64 
M 292.24 86.48 293.79 87.81 295.01 88.32 296.36 88.58 
M 289.89 90.71 291.23 91.85 292.28 92.3 293.45 92.52 
M 287.54 94.94 288.66 95.9 289.55 96.27 290.53 96.46 
M 318.57 63.5 318.09 67.19 318.05 69.02 318.5 72.65 319.53 76.22 
M 315.67 68.52 315.23 71.89 315.32 75.22 315.6 76.86 316.54 80.13 
M 312.76 73.54 312.36 76.58 312.45 79.59 312.7 81.08 313.55 84.03 
M 309.86 78.56 309.5 81.28 309.47 82.63 309.8 85.3 310.56 87.94 
M 306.95 83.58 306.64 85.97 306.7 88.35 307.57 91.84 
M 304.04 88.59 303.75 91.7 304 93.74 304.58 95.75 
M 301.14 93.61 300.91 95.37 300.96 97.1 301.6 99.65 
M 298.23 98.63 298.05 100.06 298.09 101.47 298.61 103.56 
M 321 80.14 321.38 83.3 321.77 84.81 323.02 87.65 324.83 90.28 
M 318.04 85.31 318.38 88.1 319.2 90.71 319.83 91.94 321.42 94.26 
M 315.08 90.48 315.37 92.9 315.67 94.06 316.63 96.23 318.01 98.25 
M 312.12 95.64 312.62 98.68 313.43 100.53 314.6 102.24 
M 309.16 100.81 309.36 102.5 309.86 104.08 311.2 106.22 
M 306.2 105.98 306.52 107.93 307.04 109.11 307.79 110.21 
M 326.39 93.84 326.26 97.3 326.4 98.99 327.19 102.27 328.55 105.45 
M 322.78 99.89 322.67 102.74 323.04 105.5 323.43 106.84 324.56 109.47 
M 319.16 105.93 319.08 108.18 319.37 110.36 320.57 113.48 
M 315.55 111.98 315.55 114.42 315.93 115.98 316.57 117.49 
M 156.12 175.64 157.99 175.35 161.39 175.44 163.77 173.67 176.49 172.41 178.56 179.07 178.15 181.09 177.55 183.09 176.6 185.2 172.84 187.55 172.06 188.56 163.3 189.84 160.8 188.68 158.41 187.85 156.1 186.68 
M 156.17 176.81 160.18 177.01 163.71 175.96 167.79 174.08 170.72 174.09 174.12 173.37 
M 157.23 178.69 160.17 179 162.54 179.02 164 178.75 165.86 178.04 168.26 178.1 171.85 179.2 
M 156.3 181.11 160.27 181.88 162 181.53 163.25 181.51 
M 156.3 183.75 157.46 184.21 165.19 185.96 
M 187.73 232.04 201.46 252.58 200.88 253.01 185.61 233.57 
M 186.39 231.79 186.87 232.66 
M 191.2 240.68 200.09 257.15 199.47 257.51 184.14 233.1 
M 185.05 231.54 185.4 232.36 
M 188.94 240.74 197.87 261.88 197.21 262.18 182.68 232.62 
M 183.7 231.3 183.93 232.05 
M 186.62 240.64 194.76 266.66 194.08 266.89 181.23 232.14 
M 182.33 231.06 182.47 231.72 
M 184.28 240.4 190.76 271.35 190.05 271.52 179.79 231.65 
M 180.95 230.82 181.01 231.37 
M 181.96 240.08 185.86 275.84 185.14 275.93 178.37 231.16 
M 179.52 230.58 179.52 231.01 
M 179.61 239.4 180.05 279.97 179.32 280 176.91 230.66 
M 199.35 251.06 198.29 251.69 197.67 252.39 197.7 253.21 198.72 254.61 
M 197.93 255.07 196.76 255.6 195.99 256.27 195.85 257.17 196.59 258.85 
M 195.76 259.23 194.47 259.65 193.57 260.28 193.25 261.23 193.65 263.12 
M 192.79 263.42 191.4 263.73 190.36 264.31 189.86 265.28 189.91 267.32 
M 189.03 267.53 186.9 267.93 185.96 268.66 185.51 269.85 185.37 271.34 
M 184.46 271.45 182.89 271.52 181.59 271.93 180.7 272.86 179.99 275.03 
M 198.79 251.37 197.91 252.03 197.67 252.39 197.7 253.21 198.3 254.13 
M 195.8 247 195.12 247.5 194.88 248.08 195.43 249.11 
M 192.81 242.62 192.21 243.17 192.22 243.6 192.55 244.09 
M 197.32 255.32 196.3 255.91 195.99 256.27 195.85 257.17 196.27 258.26 
M 194.34 249.94 193.33 250.67 193.22 251.36 193.54 252.19 
M 191.37 244.56 190.66 245.07 190.59 245.54 190.81 246.13 
M 195.09 259.42 193.95 259.93 193.57 260.28 193.25 261.23 193.45 262.45 
M 193 254.61 191.75 255.31 191.49 256.1 191.65 257.11 
M 190.91 249.79 190.18 250.12 189.77 250.63 189.85 251.76 
M 188.83 244.97 188.11 245.38 187.96 245.83 188.05 246.41 
M 192.07 263.56 190.82 263.98 190.36 264.31 189.86 265.28 189.83 266.6 
M 190.63 259.07 189.55 259.43 189.16 259.72 188.73 260.55 188.7 261.69 
M 189.19 254.59 187.95 255.13 187.59 255.83 187.57 256.78 
M 187.74 250.11 187.02 250.35 186.57 250.8 186.44 251.87 
M 186.3 245.63 185.55 245.96 185.33 246.38 185.31 246.96 
M 188.26 267.61 186.9 267.93 185.96 268.66 185.68 269.2 185.42 270.57 
M 187.16 262.51 185.99 262.78 185.53 263.05 184.94 263.88 184.71 265.06 
M 186.05 257.41 185.07 257.64 184.4 258.16 184 259.54 
M 184.94 252.31 184.15 252.49 183.61 252.91 183.29 254.02 
M 183.84 247.21 183.24 247.35 182.83 247.67 182.58 248.51 
M 183.66 271.47 182.19 271.67 181.59 271.93 180.7 272.86 180.18 274.25 
M 183.11 266.72 181.81 266.9 180.84 267.49 180.49 267.95 180.04 269.18 
M 182.56 261.98 180.97 262.34 180.29 263.05 179.89 264.11 
M 182 257.23 180.66 257.54 180.08 258.14 179.75 259.04 
M 181.45 252.49 180.35 252.74 179.88 253.23 179.6 253.98 
M 180.9 247.75 180.29 247.83 179.83 248.11 179.46 248.91 
M 313.49 224.64 320.07 229.55 321.53 231.03 321.82 232.8 325.32 244.16 325.23 246.77 324.53 248.91 323.56 250.9 322.11 252.52 320.13 253.52 318.39 254.85 317.01 256.34 314.51 256.12 312.21 256.4 303.68 256.68 302.47 258.54 299.91 261.94 297.63 260.81 293.86 257.91 290.23 258.05 285.06 256.76 282.23 256.26 279.99 256.36 278.06 256.02 277.01 256.3 275.97 256.15 270.73 248.7 269.08 247.53 267.42 245.46 265.8 242.75 262.76 239.32 
M 310.1 225.91 312.29 228.92 314.46 230.5 317.13 233.86 318.27 235.97 
M 306.7 227.17 308.86 230.01 312.66 233.49 314.49 235.4 315.73 237.43 316.92 238.72 318.54 239.77 320.42 242.7 
M 303.29 228.39 307.36 233.05 309.6 234.53 311.84 236.56 313.18 238.24 314.47 240.3 
M 299.87 229.58 302.25 232.17 304.2 234 305.85 236.31 309.42 238.94 311.39 240.83 313.03 242.12 314.96 244.23 315.87 246.86 317.45 249.5 
M 296.45 230.76 298.75 233.8 300.54 235.71 302.33 237.23 303.99 239.33 307.43 242.19 313.09 247.33 315.56 253.18 
M 293.02 231.94 295.2 234.79 298.96 238.82 301.61 241.35 302.95 243.36 305.09 245.38 309.95 249.19 311.91 252.14 313.33 254.71 314.64 255.33 
M 289.6 233.11 292.24 235.89 295.52 240.06 297.98 242.37 299.59 244.98 303.8 248.32 
M 286.12 234.13 290.72 239.12 293.86 243.12 295.09 244.15 296.37 245.53 297.91 247.48 299.03 249.92 
M 282.61 235.02 288.49 241.85 290.28 243.72 291.8 246.06 292.76 247.15 295.13 251.11 296.43 253.79 
M 279.1 235.89 280.96 238.39 285.12 242.67 286.59 244.67 289.98 250.52 291.52 252.3 293.78 253.71 295.48 255.7 
M 275.56 236.67 281.51 243.9 284.41 248.29 284.95 249.93 286.34 252.24 287.59 253.75 
M 272.03 237.46 280.19 247.13 281.05 249.07 281.46 250.92 
M 268.48 238.18 270.82 240.95 272.88 243.07 274.77 245.73 276.03 248.42 
M 264.93 238.89 267.18 242.01 273.72 249.94 
M 355.76 149.99 358.36 149.44 366.14 145.11 369.82 143.3 378.8 139.39 380.44 138.03 381.23 137.89 383.15 136.19 384.61 135.44 388.03 133.17 394.3 133.96 396.59 134.9 400.11 135.7 403.39 139.01 405.71 140.66 412.08 144.1 418.16 149.16 423.22 156.46 424.46 159.83 425.64 161.43 428.26 164.38 428.72 166.47 428.18 168.14 428.72 170.87 428.94 173.14 432.17 182.94 432.69 185.53 432.81 187.72 432.27 189.71 431.15 191.4 430.51 193.57 429.38 195.29 428.65 197.51 426.68 201.44 425.28 203.05 421.71 205.49 420.44 207.23 418.51 208.32 416.27 212.14 414.72 213.66 413.36 215.37 412.57 217.65 411.18 219.3 409.21 220.25 407.46 221.38 404.98 221.73 403.15 222.74 400.78 223.19 396.3 224.36 394.86 225.68 388.39 228.36 384.66 226.3 382.1 224.19 379.75 222.81 378.57 221.59 375.82 219.5 373 216.46 371.61 215.32 369.6 213.82 367.03 212.53 365.08 211.24 355.76 204.25 
M 362.57 150.34 364.54 149.28 369.19 147.77 371.01 146.96 372.77 145.73 375.28 145.25 379.36 143.22 382.86 141.68 
M 360.84 154.64 366.91 151.96 369.33 151.11 372.81 149.15 376.84 148.16 378.82 147.2 385.62 145.28 387.54 144.14 391.24 140.11 393.39 139.35 395.67 137.29 398.04 137.47 
M 358.49 158.07 360.81 157.47 365.09 155.21 368.93 153.77 370.92 152.84 373.09 152.36 375.47 152.11 377.57 151.69 378.98 150.45 381.26 149.29 383.38 148.91 
M 362.84 159.54 369.6 156.76 376.36 155.55 378.44 154.96 380.68 154.55 382.2 153.7 384.12 153.17 386.34 152.06 388.63 151.17 390.45 149.93 392.23 149.3 394.12 149.38 397.12 148.22 401.96 147.5 
M 358.28 163.44 360.39 163.21 364.88 161.97 369.67 160.33 371.81 160.28 374.43 159.6 376.89 159.17 378.69 158.97 381.07 159.15 383.4 158.63 385.5 158.02 392.94 154.91 393.66 153.88 395.12 153.48 396.91 153.56 401.95 151.83 403.89 151.94 
M 355.76 166.26 358.43 166.43 360.8 166.28 367.68 164.48 369.81 163.72 372.14 163.16 374.41 162.92 377.03 162.27 378.99 162.24 385.53 161.69 387.58 160.7 391.05 160.84 393.23 160.55 
M 358.5 169.34 360.79 169.4 368.26 168.5 373 167.2 375.53 167.32 377.64 167.08 381.41 166.14 383.8 166.17 386.05 165.47 388.28 165.49 393.65 164.95 395.31 164.56 398.48 163.03 401.24 163.33 404.24 163.95 406.33 163.95 408.32 163.37 410.15 163.12 411.69 162.12 413.28 161.57 416.4 161.54 418.72 162.06 
M 363.39 172.33 365.93 172.27 373.02 171.54 375.25 171.85 377.76 171.75 378.84 171.35 382.68 170.62 385.81 170.65 388.68 171.29 391.45 170.57 393.69 170.22 395.08 169.03 396.24 168.8 398.32 168.76 401.61 169.45 403.75 169.67 405.69 169.1 407.8 168.99 409.34 167.97 411.97 167.39 414.42 167.06 417.69 167.34 
M 358.61 174.82 365.89 175.03 368.39 175.5 370.98 175.69 373.22 175.37 374.76 175.46 376.9 175.11 378.63 175.7 380.79 175.58 383.35 174.84 386.12 175.29 388.72 175.35 391.26 174.89 393.54 174.91 396.83 174.08 398.77 174.01 403.39 174.92 405.25 174.4 408.34 174 413.12 174.44 417.51 174.04 420.37 174.29 423.06 173.98 424.97 172.62 426.67 172.83 
M 355.76 177.12 358.76 177.57 361.4 177.66 376.19 179.7 378.96 179.71 382.95 179.36 385.62 179.97 388.11 180.02 389.76 179.55 391.79 179.81 394.06 179.53 
M 363.27 181.32 365.49 181.91 370.1 182.56 374.91 182.42 379.86 182.94 385.69 183.3 388.3 183.73 390.84 184.43 393.5 184.7 394.79 184 400.53 184.96 404.9 186.6 410.6 186.38 
M 360.68 183.91 363.07 184.19 365.27 184.7 370.12 186.24 372.47 186.5 375.57 186.23 377.92 186.52 381.69 187.51 383.19 187.17 386 187.65 388.36 188.49 390.67 188.72 394.96 189.89 395.93 189.98 397.74 189.58 399.83 190.97 402.39 191.88 405.12 192.38 407.23 192.03 409.93 192.01 414.4 192.2 418.91 192.95 
M 358.46 186.18 360.64 186.9 363.06 187.39 365.27 188.07 367.65 189.11 372.26 189.42 374.95 189.87 377.42 190.05 384.7 192.62 386.88 193.04 388.87 193.09 394.32 194.04 395.71 195.27 397.51 195.78 402.73 196.56 404.03 197.58 409.19 198.62 416.09 199.16 417.42 200.35 418.97 200.85 421.18 201.18 
M 355.76 187.97 358.34 189.15 365.52 191.3 370.61 192.35 372.23 193 377.29 193.54 379.56 194.16 384.42 196.87 386.49 197.21 389.33 199.05 391.8 199.97 394.07 200.17 403.11 202.69 406.22 201.37 408.61 202.01 410.05 202.16 411.78 203.08 
M 362.99 193.75 365.19 194.7 370 196.43 376.68 197.3 379.32 198.7 381.45 200.29 383.99 201.39 386.08 202.25 388.04 202.78 389.31 203.5 391.73 204.41 394.08 204.89 398.71 207.4 400.4 207.89 401.98 208.14 403.98 208.92 
M 362.72 196.78 366.83 199.38 369.04 200.25 371.57 200.06 374 200.39 376.98 201.06 378.78 202.61 380.69 203.93 382.55 204.9 386.48 206.11 388.23 207.15 390.31 207.76 392.42 209.05 394.86 210.25 
M 360.5 198.68 366.59 202.39 368.9 203.46 373.3 204.76 375.67 205.82 377.81 207.13 379.61 207.35 
M 355.76 198.82 364.64 204.25 366.84 205.43 368.98 206.19 372.34 209.03 374.81 209.75 376.84 210.7 378.26 212.48 384.97 216.16 386.91 217.67 390.72 220.04 
M 358.3 203.42 360.46 204.9 362.87 206.19 364.63 207.7 369.28 210.16 370.84 211.3 372.53 212.89 374.71 214.02 376.34 215.89 378.75 217.02 
M 345.81 207.1 343.22 208.42 342.26 209.5 341.58 210.7 341.09 212.08 339.85 212.86 337.04 212.16 335.59 212.07 333.22 213.58 331.23 217.56 329.71 217.58 326.77 217.03 325.23 217.32 323.89 217.91 322.86 218.9 321.31 221.27 321.95 221.01 
M 96.24 187.66 98.16 183.4 99.42 179.83 101.27 175.93 104.01 172.43 109.77 165.95 115.21 157.97 118.56 153.88 122.4 150.24 130.19 143.86 133.93 141.2 137.52 138.9 140.63 137.14 144.38 135.33 147.33 139.53 148.79 143.93 152.28 152.68 153.76 157.09 154.73 161.54 156.17 170.5 156.09 175.05 156.3 179.58 156.3 184.13 155.55 193.3 155.87 197.82 155.97 206.91 155.63 211.49 154.74 216.12 152.87 220.8 144.71 220.22 138.75 219.38 133.39 218.28 128.25 216.72 123.64 214.92 119.53 212.92 115.79 210.84 106.24 204.53 
M 104.54 203.32 103.13 202.32 100.62 200.1 98.74 197.86 97.1 194.95 
M 137.44 186.86 137.66 192.2 138.43 197.38 138.67 200.43 138.32 204.04 125.14 203.75 121.24 203.25 117.52 202.39 114.08 201.1 110.88 199.41 
M 103.48 202.16 100.94 199.57 93.9 191.22 93 189.49 93.56 187.72 95.22 187.14 96.93 188.01 98.85 191.15 103.08 199.07 106.45 204.36 
M 104.91 204.38 99.36 201.85 87.97 195.83 87.18 194.17 87.95 192.58 89.75 192.19 91.35 193.07 100.09 199.89 103.02 201.81 106.34 204.26 
M 114.87 180.02 113.54 175.01 113.92 169.84 115.96 165.07 119.43 161.22 123.96 158.71 129.06 157.81 134.18 158.61 138.77 161.03 142.32 164.81 144.44 169.53 144.92 174.7 143.7 179.73 140.91 184.1 136.85 187.32 131.97 189.05 126.78 189.11 121.87 187.47 117.74 184.33 114.87 180.02 
M 114.67 179.58 114.04 177.73 113.64 175.82 113.48 173.88 113.56 171.93 113.88 170 114.44 168.13 115.22 166.35 116.22 164.67 117.42 163.13 118.8 161.75 120.34 160.55 122.02 159.55 123.8 158.77 125.67 158.21 127.6 157.89 129.55 157.81 131.49 157.97 133.4 158.37 135.25 159.01 
M 116.01 179.02 115.44 177.35 115.07 175.61 114.93 173.85 115 172.08 115.29 170.33 115.8 168.63 116.51 167.01 117.42 165.49 119.09 163.5 
M 119.56 163.03 121.16 161.75 122.68 160.84 124.3 160.13 126 159.62 127.75 159.33 129.52 159.26 131.28 159.4 133.02 159.77 134.69 160.34 
M 117.35 178.47 116.83 176.96 116.38 173.82 116.44 172.23 116.88 170.06 
M 120.61 164.03 121.97 162.94 123.34 162.13 126.33 161.03 127.9 160.77 131.07 160.84 134.14 161.68 
M 118.69 177.91 118.23 176.58 117.82 173.79 117.88 172.38 118.3 170.37 
M 121.62 165.07 124 163.42 126.65 162.45 129.46 162.15 130.86 162.27 133.58 163.02 
M 120.03 177.36 119.37 174.99 119.27 173.76 119.32 172.52 119.76 170.53 
M 122.57 166.16 124.67 164.7 126.98 163.86 129.43 163.6 130.66 163.7 133.03 164.36 
M 121.37 176.8 121.02 175.81 120.72 173.73 120.76 172.67 121.15 170.92 
M 123.44 167.34 125.33 165.99 127.3 165.27 129.4 165.05 130.45 165.14 132.47 165.7 
M 123.48 176.14 122.95 174.13 123.2 171.83 
M 125.08 168.87 127.12 167.62 129.16 167.25 131.21 167.57 133.04 168.54 134.46 170.05 135.31 171.94 135.5 174.01 135.01 176.02 133.9 177.77 132.27 179.06 130.32 179.75 128.25 179.77 126.28 179.12 124.63 177.86 123.48 176.14 
M 123.34 171.91 123.07 172.44 
M 126.36 168.03 125.63 169.49 
M 124.23 172.3 123.08 174.61 
M 127.71 167.51 126.28 170.37 
M 125.16 172.62 123.45 176.03 
M 128.9 167.3 126.93 171.24 
M 126.16 172.78 124.05 177 
M 129.95 167.38 127.61 172.06 
M 127.32 172.64 124.69 177.91 
M 130.96 167.54 125.47 178.5 
M 131.85 167.92 126.26 179.1 
M 132.71 168.37 127.19 179.42 
M 133.48 169.01 128.12 179.73 
M 134.19 169.77 129.19 179.76 
M 134.78 170.76 130.28 179.75 
M 135.29 171.9 131.59 179.3 
M 135.47 173.71 133.15 178.37 
M 99.75 199.06 101.89 201.21 
M 96.51 187.13 100.51 191.13 
M 97.86 184.14 101.08 187.36 
M 99.03 180.96 102.57 184.5 
M 100.33 177.92 103.24 180.83 
M 101.89 175.14 104.53 177.77 
M 103.8 172.7 106.01 174.9 
M 105.87 170.42 109.94 174.48 
M 107.92 168.12 110.65 170.85 
M 109.9 165.76 113.41 169.27 
M 111.68 163.2 115.24 166.75 
M 113.44 160.61 116.36 163.53 
M 115.19 158.01 117.37 160.19 
M 117.14 155.62 119.69 158.16 
M 119.17 153.3 122.89 157.02 
M 121.4 151.19 124.16 153.95 
M 123.71 149.15 127.27 152.71 
M 126.08 147.18 130.1 151.2 
M 128.49 145.23 130.79 147.54 
M 130.93 143.33 133.55 145.95 
M 133.47 141.53 136.36 144.42 
M 136.1 139.81 138.73 142.44 
M 138.81 138.17 142.64 142.01 
M 141.63 136.65 143.96 138.98 
M 134.76 194.45 135.4 192.58 135.85 190.54 135.86 189.87 135.33 188.75 135.16 187.92 
M 155.01 163.16 154.39 162.97 153.92 163.01 153.62 163.21 153.42 163.67 153.37 164.58 
M 104.9 183.6 105.65 183.04 108.4 182.3 109.05 182.36 
M 154.7 216.22 154.28 216.12 151.93 214.45 150 212.71 148.04 211.26 
M 152.54 167.48 151.96 168.56 150.87 169.02 150.49 169.34 
M 141.56 163.11 141.03 163.44 
M 108.41 205.99 108.48 202 108.05 200.37 107.63 199.85 
M 112.98 171.72 113.67 173.22 
M 148.43 153.72 146.71 155.22 145.74 155.51 144.4 155.25 143.23 154.77 141.51 153.77 
M 112.1 205.9 111.11 204.86 110.35 203.65 109.77 202.41 109.64 201.5 109.19 200.46 107.83 198.97 106.52 197.92 
M 128.85 205.68 125.93 207.5 125.36 207.7 124.26 207.63 123.77 207.4 123.48 206.99 123.34 205.99 123.52 204.73 
M 114.23 183.58 113.03 185.4 112.36 187.27 112.32 188.32 111.89 189.19 
M 113.14 184.43 111.76 186.77 111.63 187.33 111.76 188.39 
M 150.01 207.68 150.26 208.45 150.62 208.77 152.99 209.11 
M 139 193.67 137.95 191.64 137.33 189.82 136.32 188.42 136.14 187.58 
M 118.18 161.28 118.07 162.2 117.67 163.17 
M 118.91 189.77 119.7 187.9 119.42 186.4 119.24 186.12 
M 117.24 189.14 118.49 188.78 119.37 187.98 119.49 187.5 119.42 186.43 
M 140.9 143.15 140.56 144.8 140.16 144.96 139.56 144.79 
M 130.91 147.25 131.35 144.91 131.15 143.18 
M 153.62 160.31 153.17 161.15 152.85 162.42 153.07 164.65 
M 152 209.88 151.89 209.67 152.13 209.44 153.34 209.3 
M 136.08 213.36 137.51 213.22 137.97 212.79 138.21 211.73 137.77 210.33 
M 140.09 188.83 138.34 187.88 137.23 187.02 
M 125.15 155.86 126.12 156.19 126.86 156.64 128.32 157.94 
M 125.49 188.68 125 189.92 125.27 190.82 
M 147.88 169.13 147.21 170.52 148.13 172.63 
M 114.55 161.27 116.32 162.44 116.52 162.8 116.67 164.28 
M 141.05 185.39 139.73 185.04 
M 105.89 203.12 105.64 201.42 105.06 200.09 104.7 199.75 103.27 199.05 102.85 198.66 
M 102.79 198.56 102.4 197.73 
M 131.15 155.4 130.99 157.1 130.52 158.04 
M 109.97 187.92 109.47 186.72 108.89 185.95 108.92 185.64 
M 96.42 187.75 96.57 187.19 97.68 185.35 99.67 183.25 
M 139.62 190.74 137.07 188.39 136.79 187.34 
M 150.72 190.5 151.41 191.01 153.37 191.94 153.86 192.41 153.69 192.91 152.69 193.88 
M 107.79 205.58 108.23 202.76 108.19 202 107.73 200.33 106.22 198.66 104.87 197.68 
M 139.07 155.17 136 155.98 134.46 156.02 133.85 156.21 132.67 156.85 131.05 158.12 
M 138.68 138.89 137.97 139.09 137.32 139.03 
M 155.01 190.2 154.59 190.43 154.45 191.73 
M 117.32 163.29 117.19 163.7 
M 124.54 206.28 124.36 203.24 124.53 201.74 124.97 201.09 
M 100.99 194.32 100.8 194.11 101.39 191.94 
M 146.77 199.65 145.86 199.14 144.49 198.85 143.77 199.13 142.37 200.07 
M 121.83 202.65 122.41 201.67 123.58 200.72 124.54 200.38 125.4 200.71 
M 135.85 207.79 134.69 208.89 134.69 209.17 134.93 209.41 
M 117.86 184.42 116.66 185.7 116.35 186.45 116.51 186.91 
M 131.44 149.36 131.59 148.35 131.51 146.88 131.89 145.33 131.72 143.32 131.49 142.93 
M 132.57 207.48 130.79 208.35 129.01 208.94 127.5 209.94 
M 117.53 184.02 115.86 185.29 115.05 186.55 
M 118.56 189.39 119.57 187.94 119.46 186.6 119.28 186.15 
M 143.9 212.3 141.29 212.92 140.64 212.93 140.08 212.75 138.96 211.16 137.78 209.99 
M 134.64 192.11 135.04 190.22 134.66 188.1 
M 153.13 197.53 151.74 195.97 151.4 195.11 151.61 194.47 152.52 193.9 
M 151.77 194.83 151.98 194.3 152.6 193.87 
M 100.1 182.56 101.33 181.35 101.97 180.95 104.7 179.92 105.49 179.26 105.93 178.05 105.94 177.3 105.8 175.51 105.52 174.67 
M 128.06 205.07 126.64 206.09 125.64 206.32 125.06 205.82 124.54 203.92 
M 154.2 209.52 154.6 209.11 
M 116.23 160.74 116.67 161.67 116.73 164.21 
M 101.06 178.05 101.73 178.53 102.28 178.41 102.67 177.87 102.64 177.62 102.39 177.41 
M 155.35 204.29 155.89 203.73 
M 155.86 201.03 154.47 200.4 
M 126.68 213.52 126.44 212.49 126.17 212.04 124.98 211.62 124.02 211.5 
M 141.96 211.91 141.1 212.13 140.43 212.1 139.93 211.88 138.12 210.13 137.21 209.64 
M 139.97 217.8 140.04 216.77 139.6 216.04 139.16 214.8 
M 144.85 173.86 145.27 173.42 145.96 172.09 
M 113.98 159.81 115.38 160.18 116.29 160.93 116.67 161.82 116.73 164.22 
M 134.41 151.27 133.29 150.35 132.74 149.28 132.12 147.06 132.14 145.47 131.86 143.42 
M 115.22 191.26 116.24 191.23 118.07 190.63 118.55 190.31 119.22 189.37 119.72 187.93 
M 124.4 156.13 126.32 156.7 126.98 157.04 128.05 157.99 
M 137.47 142.21 136.15 139.78 
M 132.9 207.96 131.98 208.36 129.03 209.06 127.8 209.91 
M 108.67 206.17 108.68 205.98 
M 110.02 177.64 110.62 177.45 111.48 177.57 113.56 178.62 114.71 179.43 
M 115.99 181.71 115.86 182.28 
M 128.04 197.2 128.63 196.7 128.67 196.37 128.23 196.08 127.39 195.93 
M 137.52 216.5 137.76 215.78 138.35 215.1 138.6 214.47 138.61 213.17 138.8 212.25 138.74 211.79 138.32 210.97 
M 107 205.29 106.11 206.08 105.02 206.75 103.81 207.19 102.55 207.35 101.29 207.24 100.1 206.87 99.05 206.3 95.57 203.67 88.01 199.39 92.92 201.71 95.97 202.92 99.7 205.14 100.6 205.51 101.52 205.69 103.3 205.45 104.81 204.5 105.46 203.75 
M 97.55 200.89 100.55 203.15 103.82 205.19 
M 105.79 206.28 109.51 208.13 115.79 210.84 
M 148.14 141.98 148.74 142.57 
M 146.37 134.41 153.48 141.52 
M 150.41 132.65 155.58 137.83 
M 154.44 130.89 159.08 135.53 
M 158.45 129.11 164.98 135.64 
M 162.51 127.37 169.96 134.83 
M 166.65 125.71 173.03 132.1 
M 170.81 124.09 176.26 129.53 
M 175.07 122.55 183.15 130.63 
M 179.35 121.03 187.83 129.52 
M 183.72 119.61 188.34 124.24 
M 188.07 118.17 195.7 125.8 
M 192.39 116.69 197.12 121.42 
M 196.8 115.31 202.47 120.98 
M 201.36 114.08 208.66 121.37 
M 206.07 112.99 211.71 118.64 
M 210.9 112.03 216.73 117.86 
M 215.9 111.23 221.37 116.7 
M 220.99 110.53 227.97 117.51 
M 226.6 110.35 230.99 114.74 
M 232.29 110.24 237.32 115.27 
M 238 110.16 246.23 118.38 
M 243.63 109.99 249.88 116.25 
M 249.88 110.45 256.24 116.81 
M 256.92 111.69 263.78 118.55 
M 264.88 113.86 272.04 121.02 
M 273.5 116.68 278.74 121.93 
M 282.47 119.86 287.83 125.22 
M 291.29 122.88 299.23 130.83 
M 300.3 126.1 308.74 134.54 
M 310.3 130.31 317.93 137.93 
M 320.9 135.11 326.21 140.43 
M 331.21 139.63 337.41 145.83 
M 341.23 143.85 345.7 148.33 
M 351.28 148.11 356.03 152.87 
M 361.23 152.27 363.29 154.33 
M 154.87 217.02 155.52 218.32 
M 156.81 220.91 157.54 222.37 
M 155.64 213.49 158.23 218.67 
M 157.71 212.55 160.94 219.03 
M 159.77 211.62 161.07 214.21 
M 155.87 198.75 157.95 202.9 
M 158.6 204.2 160.54 208.08 
M 156.12 194.17 158.06 198.05 
M 159.36 200.64 162.6 207.12 
M 156.6 174.85 156.93 175.51 
M 175.39 212.43 176.03 213.72 
M 158.69 173.96 159.4 175.38 
M 176.18 208.95 178.77 214.13 
M 178.27 208.06 180.22 211.94 
M 186.05 223.6 186.69 224.9 
M 189.28 230.08 189.93 231.38 
M 191.12 233.76 191.34 234.2 
M 144.41 135.26 144.6 135.64 
M 148.94 144.33 150.56 147.57 
M 151.86 150.16 155.75 157.93 
M 181.01 208.46 182.31 211.05 
M 193.32 233.08 194.32 235.08 
M 146.49 134.36 156.53 154.44 
M 177.91 197.19 179.85 201.08 
M 183.74 208.85 184.39 210.15 
M 185.04 211.44 186.33 214.04 
M 148.57 133.45 160.56 157.42 
M 167.68 171.67 168.45 173.21 
M 175.46 187.22 181.29 198.88 
M 187.77 211.84 189.06 214.43 
M 198.78 233.86 199.97 236.25 
M 150.66 132.55 154.22 139.67 
M 156.16 143.56 161.99 155.22 
M 163.94 159.11 164.58 160.4 
M 165.88 162.99 170.87 172.97 
M 177.54 186.31 181.43 194.09 
M 200.86 232.95 203.12 237.48 
M 152.74 131.64 155.65 137.47 
M 158.89 143.95 162.78 151.72 
M 167.31 160.79 173.14 172.45 
M 177.89 181.95 181.57 189.29 
M 184.8 195.77 186.75 199.66 
M 205.6 237.37 206 238.16 
M 154.81 130.72 157.08 135.26 
M 161.62 144.33 164.21 149.51 
M 168.09 157.28 170.04 161.17 
M 171.98 165.05 175.7 172.49 
M 179.11 179.31 181.05 183.19 
M 187.53 196.15 190.12 201.33 
M 208.4 237.89 208.87 238.83 
M 156.89 129.8 159.8 135.63 
M 163.69 143.41 165.63 147.29 
M 166.28 148.59 169.52 155.07 
M 170.17 156.36 171.46 158.95 
M 175.35 166.73 181.83 179.68 
M 182.48 180.98 183.13 182.27 
M 188.96 193.93 191.55 199.12 
M 158.96 128.88 163.82 138.6 
M 165.77 142.49 173.54 158.03 
M 177.43 165.81 181.96 174.88 
M 186.5 183.95 187.14 185.24 
M 191.03 193.02 192.97 196.9 
M 161.36 128.61 166.55 138.98 
M 167.84 141.57 173.02 151.93 
M 180.15 166.18 183.39 172.66 
M 193.75 193.39 194.4 194.69 
M 195.05 195.98 195.7 197.28 
M 163.15 127.11 168.65 138.12 
M 169.95 140.71 175.78 152.38 
M 183.55 167.92 185.5 171.81 
M 189.38 179.58 190.68 182.17 
M 192.62 186.06 194.57 189.95 
M 165.26 126.27 177.89 151.53 
M 185.67 167.08 187.61 170.97 
M 194.74 185.22 196.03 187.81 
M 167.37 125.42 174.82 140.32 
M 176.12 142.91 180.65 151.98 
M 187.13 164.94 189.08 168.83 
M 195.55 181.78 198.15 186.97 
M 222.11 234.9 222.76 236.2 
M 169.49 124.58 176.94 139.48 
M 178.23 142.07 183.42 152.44 
M 187.95 161.51 188.6 162.8 
M 189.89 165.39 190.54 166.69 
M 193.78 173.17 194.43 174.46 
M 195.08 175.76 195.72 177.05 
M 196.37 178.35 198.96 183.53 
M 206.74 199.08 207.38 200.37 
M 171.63 123.79 179.08 138.69 
M 179.73 139.99 186.2 152.94 
M 189.44 159.42 191.39 163.31 
M 197.22 174.97 200.46 181.45 
M 201.1 182.74 206.29 193.11 
M 207.58 195.7 210.17 200.88 
M 173.77 123.01 177.34 130.14 
M 177.99 131.44 189 153.46 
M 192.24 159.94 194.18 163.83 
M 199.36 174.19 203.9 183.26 
M 204.55 184.56 208.43 192.33 
M 210.38 196.22 212.32 200.1 
M 218.15 211.76 220.09 215.65 
M 175.92 122.23 191.14 152.68 
M 195.03 160.46 210.58 191.55 
M 218.35 207.1 220.29 210.98 
M 223.53 217.46 224.18 218.76 
M 227.42 225.24 229.36 229.12 
M 178.07 121.46 192.64 150.61 
M 196.53 158.38 199.77 164.86 
M 201.06 167.45 202.36 170.04 
M 204.3 173.93 210.78 186.88 
M 212.72 190.77 213.37 192.07 
M 218.55 202.43 219.2 203.73 
M 221.14 207.61 223.74 212.8 
M 229.57 224.46 230.86 227.05 
M 180.24 120.74 196.11 152.48 
M 198.06 156.37 203.24 166.74 
M 206.48 173.21 212.96 186.17 
M 214.9 190.06 215.55 191.35 
M 220.73 201.72 221.38 203.01 
M 223.97 208.2 224.62 209.49 
M 229.8 219.86 230.45 221.15 
M 182.42 120.03 184.69 124.57 
M 185.99 127.16 190.52 136.23 
M 191.82 138.82 193.76 142.7 
M 195.7 146.59 196.35 147.89 
M 197 149.18 198.29 151.77 
M 199.59 154.37 200.89 156.96 
M 201.53 158.25 202.83 160.84 
M 208.66 172.5 209.95 175.1 
M 211.9 178.98 212.55 180.28 
M 213.19 181.57 215.14 185.46 
M 223.56 202.3 224.85 204.89 
M 231.98 219.15 232.63 220.44 
M 238.46 232.1 239.11 233.4 
M 184.6 119.32 186.87 123.86 
M 188.17 126.45 190.76 131.63 
M 194 138.11 196.59 143.29 
M 212.13 174.39 214.08 178.27 
M 234.81 219.73 236.1 222.32 
M 186.78 118.61 190.99 127.03 
M 194.88 134.81 195.53 136.1 
M 197.47 139.99 198.12 141.28 
M 203.3 151.65 204.6 154.24 
M 211.08 167.2 216.91 178.86 
M 188.95 117.87 193.81 127.59 
M 195.1 130.18 200.93 141.84 
M 202.23 144.43 208.71 157.39 
M 213.89 167.75 219.72 179.41 
M 228.79 197.55 231.38 202.73 
M 191.11 117.13 212.81 160.53 
M 216.05 167.01 217.35 169.6 
M 218.64 172.2 222.53 179.97 
M 224.47 183.86 225.12 185.15 
M 230.95 196.81 233.54 201.99 
M 193.28 116.39 215.63 161.09 
M 216.92 163.68 217.57 164.98 
M 222.11 174.05 224.7 179.23 
M 225.99 181.82 227.94 185.71 
M 234.41 198.66 235.06 199.96 
M 248.02 225.87 248.67 227.17 
M 249.96 229.76 253.2 236.24 
M 195.45 115.67 206.14 137.05 
M 206.79 138.35 217.15 159.08 
M 224.28 173.33 226.22 177.21 
M 228.82 182.4 230.11 184.99 
M 235.94 196.65 237.88 200.54 
M 201.06 121.82 205.6 130.89 
M 209.48 138.66 219.2 158.1 
M 231.51 182.72 232.16 184.01 
M 237.34 194.38 237.99 195.67 
M 246.41 212.51 247.06 213.81 
M 200.66 115.95 202.61 119.84 
M 203.25 121.14 208.44 131.5 
M 211.68 137.98 222.04 158.71 
M 198.63 106.82 200.25 110.06 
M 203.49 116.54 210.62 130.79 
M 213.86 137.27 215.8 141.15 
M 216.45 142.45 228.11 165.77 
M 263.74 237.03 264.69 238.94 
M 199.47 103.43 202.39 109.26 
M 205.63 115.74 213.4 131.29 
M 215.35 135.18 217.29 139.06 
M 218.58 141.66 221.18 146.84 
M 222.47 149.43 230.24 164.98 
M 241.91 188.3 244.5 193.48 
M 265.23 234.94 266.6 237.68 
M 200.6 100.62 204.49 108.4 
M 205.79 110.99 207.08 113.58 
M 207.73 114.87 214.85 129.13 
M 220.68 140.79 221.98 143.38 
M 222.63 144.67 228.46 156.33 
M 229.75 158.93 232.35 164.11 
M 234.29 167.99 236.23 171.88 
M 238.82 177.06 239.47 178.36 
M 241.41 182.25 242.06 183.54 
M 242.71 184.84 247.24 193.91 
M 260.2 219.82 261.5 222.41 
M 267.33 234.07 268.62 236.66 
M 203.32 100.99 203.97 102.28 
M 205.26 104.87 205.91 106.17 
M 208.5 111.35 209.15 112.65 
M 209.8 113.94 218.87 132.08 
M 222.75 139.85 224.05 142.44 
M 225.34 145.04 229.88 154.11 
M 231.17 156.7 238.95 172.24 
M 239.6 173.54 249.31 192.97 
M 250.61 195.57 252.55 199.45 
M 261.62 217.59 263.57 221.48 
M 201.74 92.76 202.07 93.41 
M 211.14 111.55 222.15 133.57 
M 224.74 138.76 226.04 141.35 
M 227.33 143.94 232.51 154.3 
M 233.81 156.9 246.12 181.51 
M 250.65 190.58 251.3 191.88 
M 252.6 194.47 253.24 195.76 
M 264.26 217.79 266.2 221.68 
M 202.38 88.98 204.65 93.51 
M 205.95 96.1 207.24 98.69 
M 213.72 111.65 226.03 136.27 
M 226.68 137.56 227.32 138.86 
M 229.27 142.74 234.45 153.11 
M 239.63 163.47 242.22 168.66 
M 243.52 171.25 247.41 179.02 
M 202.97 85.08 211.72 102.57 
M 215.6 110.35 224.67 128.49 
M 225.32 129.78 229.86 138.85 
M 231.8 142.74 236.98 153.1 
M 240.22 159.58 240.87 160.88 
M 241.52 162.17 243.46 166.06 
M 247.35 173.83 249.29 177.72 
M 203.49 81.04 213.53 101.12 
M 220.65 115.37 221.95 117.97 
M 222.6 119.26 225.84 125.74 
M 226.48 127.04 238.79 151.65 
M 240.09 154.24 241.38 156.83 
M 242.68 159.43 246.57 167.2 
M 203.95 76.89 216.58 102.16 
M 223.06 115.11 225 119 
M 225.65 120.29 240.55 150.09 
M 244.43 157.87 248.97 166.94 
M 249.62 168.23 251.56 172.12 
M 267.76 204.51 268.4 205.81 
M 272.94 214.87 273.59 216.17 
M 204.37 72.68 219.6 103.12 
M 224.13 112.19 226.72 117.38 
M 229.96 123.85 241.62 147.18 
M 242.27 148.47 243.57 151.06 
M 246.16 156.24 249.4 162.72 
M 250.05 164.02 253.28 170.5 
M 260.41 184.75 261.06 186.04 
M 270.13 204.18 273.37 210.66 
M 205.16 69.17 221.68 102.21 
M 225.56 109.98 229.45 117.76 
M 234.63 128.12 244.35 147.56 
M 245.65 150.15 246.94 152.74 
M 247.59 154.04 250.18 159.22 
M 261.84 182.54 264.43 187.72 
M 272.85 204.56 276.74 212.34 
M 207.17 68.13 217.21 88.21 
M 219.16 92.1 224.34 102.46 
M 225.63 105.05 226.28 106.35 
M 226.93 107.65 231.46 116.71 
M 234.05 121.9 248.95 151.7 
M 250.25 154.29 250.9 155.58 
M 252.19 158.17 252.84 159.47 
M 254.14 162.06 254.78 163.36 
M 263.85 181.5 267.09 187.97 
M 269.68 193.16 270.98 195.75 
M 274.22 202.23 276.81 207.41 
M 209.05 66.82 219.74 88.2 
M 222.33 93.38 226.22 101.15 
M 226.87 102.45 227.51 103.74 
M 229.46 107.63 233.99 116.7 
M 235.93 120.59 250.83 150.39 
M 252.13 152.98 255.37 159.46 
M 265.73 180.19 267.03 182.78 
M 270.92 190.55 273.51 195.73 
M 274.16 197.03 276.1 200.92 
M 278.04 204.8 278.69 206.1 
M 210.89 65.43 222.23 88.11 
M 224.17 91.99 229.35 102.36 
M 231.3 106.24 235.83 115.31 
M 238.42 120.5 252.68 149 
M 253.32 150.3 257.21 158.07 
M 268.22 180.09 268.87 181.39 
M 271.46 186.57 277.94 199.53 
M 212.68 63.93 213.65 65.88 
M 215.59 69.76 224.66 87.9 
M 226.61 91.79 231.79 102.15 
M 233.73 106.04 259.64 157.87 
M 262.88 164.34 266.12 170.82 
M 270.01 178.6 271.3 181.19 
M 273.9 186.37 275.19 188.96 
M 279.08 196.73 280.37 199.33 
M 214.39 62.29 216.66 66.83 
M 217.31 68.12 227.02 87.56 
M 228.97 91.44 231.56 96.63 
M 232.21 97.92 232.85 99.22 
M 234.15 101.81 256.17 145.86 
M 258.12 149.75 261.36 156.22 
M 263.3 160.11 268.48 170.48 
M 272.37 178.25 273.67 180.84 
M 216.02 60.49 220.24 68.91 
M 221.53 71.5 227.36 83.16 
M 231.25 90.94 233.19 94.82 
M 235.78 100 237.08 102.6 
M 238.37 105.19 256.51 141.46 
M 265.58 159.6 273.36 175.15 
M 217.58 58.52 220.49 64.35 
M 221.79 66.95 223.08 69.54 
M 224.38 72.13 228.91 81.2 
M 232.8 88.97 235.39 94.15 
M 237.98 99.34 239.93 103.22 
M 241.22 105.81 257.42 138.2 
M 261.3 145.98 264.54 152.46 
M 269.73 162.82 270.37 164.12 
M 271.02 165.41 275.56 174.48 
M 290.46 204.28 291.75 206.87 
M 219.06 56.42 222.63 63.55 
M 224.57 67.44 225.22 68.73 
M 226.51 71.32 231.05 80.39 
M 234.29 86.87 238.17 94.64 
M 240.12 98.53 248.54 115.37 
M 251.78 121.85 260.2 138.69 
M 261.49 141.29 267.32 152.95 
M 273.8 165.9 276.39 171.09 
M 291.94 202.18 293.88 206.07 
M 220.5 54.24 226.01 65.25 
M 226.66 66.54 233.14 79.5 
M 235.73 84.68 248.68 110.59 
M 249.98 113.19 251.27 115.78 
M 253.22 119.66 257.1 127.44 
M 257.75 128.73 263.58 140.39 
M 265.53 144.28 269.41 152.05 
M 277.19 167.6 279.78 172.78 
M 294.03 201.29 295.97 205.17 
M 301.8 216.83 302.45 218.13 
M 305.04 223.31 305.69 224.61 
M 306.47 226.17 306.93 227.08 
M 222.84 53.83 236.12 80.39 
M 238.06 84.28 256.2 120.55 
M 259.44 127.03 266.56 141.28 
M 267.21 142.58 271.74 151.65 
M 280.81 169.79 282.11 172.38 
M 286 180.15 286.64 181.45 
M 295.71 199.59 297.66 203.47 
M 304.13 216.43 304.78 217.72 
M 308.71 225.57 309.07 226.29 
M 225.43 53.94 238.06 79.2 
M 239.35 81.8 258.79 120.66 
M 261.38 125.85 272.39 147.87 
M 281.46 166.01 284.05 171.19 
M 293.77 190.63 295.71 194.51 
M 298.95 200.99 300.25 203.58 
M 300.89 204.88 301.54 206.17 
M 228.22 54.46 228.87 55.76 
M 229.52 57.06 259.32 116.65 
M 259.96 117.95 260.61 119.24 
M 261.26 120.54 276.16 150.34 
M 278.75 155.52 280.05 158.11 
M 283.29 164.59 284.58 167.18 
M 291.06 180.14 296.89 191.8 
M 302.72 203.46 304.66 207.35 
M 231.21 55.38 241.58 76.11 
M 242.87 78.7 269.43 131.82 
M 270.73 134.41 277.86 148.66 
M 279.15 151.25 286.92 166.8 
M 292.75 178.46 296.64 186.23 
M 232.78 53.44 233.43 54.73 
M 234.07 56.03 242.49 72.87 
M 245.09 78.05 250.27 88.42 
M 251.56 91.01 266.46 120.81 
M 267.11 122.1 271 129.88 
M 274.24 136.35 278.77 145.42 
M 280.72 149.31 289.14 166.15 
M 291.73 171.34 298.21 184.29 
M 300.8 189.47 302.74 193.36 
M 236.81 56.44 245.23 73.28 
M 247.18 77.17 267.26 117.33 
M 267.91 118.63 272.44 127.69 
M 277.62 138.06 280.22 143.24 
M 282.81 148.42 285.4 153.61 
M 287.34 157.49 291.88 166.56 
M 292.52 167.86 293.82 170.45 
M 295.12 173.04 297.06 176.93 
M 302.24 187.29 305.48 193.77 
M 236.58 50.89 236.9 51.54 
M 238.84 55.43 242.08 61.9 
M 242.73 63.2 257.63 93 
M 258.28 94.29 269.29 116.32 
M 271.23 120.21 275.77 129.28 
M 279.01 135.75 280.95 139.64 
M 281.6 140.94 287.43 152.6 
M 290.67 159.08 294.55 166.85 
M 295.2 168.14 299.09 175.92 
M 304.27 186.28 307.51 192.76 
M 238.87 50.41 242.43 57.53 
M 245.02 62.71 254.09 80.85 
M 256.03 84.74 272.88 118.43 
M 273.53 119.72 278.71 130.09 
M 281.3 135.27 290.37 153.41 
M 292.96 158.59 297.49 167.66 
M 301.38 175.43 302.68 178.02 
M 306.56 185.8 308.51 189.68 
M 309.8 192.28 310.45 193.57 
M 241 49.59 245.21 58.01 
M 247.15 61.9 255.57 78.74 
M 258.81 85.22 275.01 117.61 
M 276.95 121.5 282.13 131.86 
M 283.43 134.46 289.26 146.12 
M 295.09 157.78 299.62 166.85 
M 304.16 175.91 304.81 177.21 
M 309.34 186.28 311.28 190.17 
M 243.09 48.7 257.66 77.85 
M 262.2 86.92 275.8 114.13 
M 279.04 120.61 284.22 130.97 
M 285.52 133.56 291.35 145.22 
M 298.47 159.48 301.06 164.66 
M 304.3 171.14 310.13 182.8 
M 245.11 47.68 260.33 78.13 
M 264.87 87.19 277.82 113.11 
M 280.41 118.29 294.02 145.5 
M 301.14 159.75 303.09 163.64 
M 306.97 171.41 308.27 174 
M 309.57 176.59 311.51 180.48 
M 247.05 46.49 262.92 78.23 
M 265.51 83.41 266.16 84.71 
M 267.45 87.3 278.47 109.33 
M 282.35 117.1 290.13 132.65 
M 291.42 135.24 295.96 144.31 
M 303.08 158.56 305.03 162.45 
M 310.86 174.11 314.1 180.58 
M 248.9 45.12 265.42 78.15 
M 266.71 80.74 280.32 107.95 
M 280.96 109.25 281.61 110.54 
M 282.26 111.84 292.62 132.57 
M 293.92 135.16 299.75 146.82 
M 302.99 153.3 306.23 159.78 
M 309.47 166.25 315.95 179.21 
M 250.66 43.57 254.87 51.99 
M 258.11 58.47 264.59 71.42 
M 265.23 72.72 267.18 76.61 
M 268.47 79.2 294.39 131.02 
M 295.68 133.61 302.16 146.57 
M 302.81 147.86 303.45 149.16 
M 304.75 151.75 307.34 156.93 
M 312.52 167.3 321.59 185.44 
M 322.89 188.03 325.48 193.21 
M 252.35 41.88 253.32 43.82 
M 253.97 45.12 256.56 50.3 
M 260.45 58.08 283.77 104.72 
M 285.06 107.31 292.84 122.86 
M 293.49 124.15 305.79 148.77 
M 306.44 150.06 309.68 156.54 
M 314.86 166.91 319.4 175.98 
M 320.05 177.27 323.93 185.05 
M 325.23 187.64 327.82 192.82 
M 333.65 204.48 335.59 208.37 
M 336.24 209.66 336.89 210.96 
M 254.03 40.17 259.54 51.18 
M 263.42 58.96 277.03 86.16 
M 279.62 91.35 284.8 101.71 
M 288.04 108.19 307.47 147.06 
M 309.42 150.94 326.26 184.63 
M 334.03 200.18 335.98 204.06 
M 336.62 205.36 337.27 206.66 
M 339.22 210.54 339.83 211.76 
M 257.73 42.51 258.06 43.16 
M 258.71 44.45 261.3 49.64 
M 265.83 58.71 278.79 84.62 
M 282.03 91.1 286.56 100.16 
M 290.45 107.94 309.24 145.51 
M 312.47 151.99 315.71 158.47 
M 316.36 159.76 318.3 163.65 
M 319.6 166.24 326.08 179.2 
M 333.85 194.74 335.15 197.34 
M 336.44 199.93 338.39 203.81 
M 339.03 205.11 339.68 206.4 
M 261.36 44.7 263.63 49.23 
M 264.93 51.82 265.57 53.12 
M 268.16 58.3 281.77 85.51 
M 282.42 86.8 288.89 99.76 
M 292.13 106.24 312.21 146.4 
M 312.86 147.7 318.69 159.36 
M 321.93 165.84 328.41 178.79 
M 330.35 182.68 331.65 185.27 
M 336.18 194.34 337.48 196.93 
M 339.42 200.82 340.07 202.11 
M 264.52 45.93 266.14 49.17 
M 267.43 51.76 288.81 94.52 
M 289.46 95.81 290.1 97.11 
M 294.64 106.18 300.47 117.84 
M 301.76 120.43 306.3 129.5 
M 307.59 132.09 308.89 134.68 
M 311.48 139.86 314.07 145.05 
M 314.72 146.34 320.55 158 
M 324.44 165.78 327.03 170.96 
M 327.68 172.26 330.92 178.73 
M 332.21 181.32 332.86 182.62 
M 339.34 195.58 340.63 198.17 
M 267.42 46.67 277.46 66.76 
M 281.35 74.53 292.36 96.56 
M 293.01 97.85 294.95 101.74 
M 296.9 105.62 302.08 115.99 
M 304.02 119.88 307.26 126.35 
M 309.85 131.54 311.8 135.42 
M 315.03 141.9 315.68 143.2 
M 316.98 145.79 318.27 148.38 
M 327.34 166.52 329.93 171.7 
M 331.23 174.29 332.53 176.88 
M 342.24 196.32 342.89 197.61 
M 270.2 47.16 278.94 64.65 
M 281.54 69.83 295.79 98.34 
M 299.03 104.82 305.5 117.77 
M 306.15 119.07 307.45 121.66 
M 310.69 128.14 311.33 129.43 
M 312.63 132.02 313.93 134.61 
M 314.57 135.91 315.22 137.21 
M 318.46 143.68 320.4 147.57 
M 321.05 148.87 321.7 150.16 
M 325.59 157.94 332.71 172.19 
M 343.73 194.21 344.37 195.51 
M 345.67 198.1 346.32 199.39 
M 274.09 49.87 280.24 62.18 
M 280.89 63.47 282.19 66.06 
M 282.83 67.36 297.73 97.16 
M 300.32 102.34 309.39 120.48 
M 310.69 123.07 313.93 129.55 
M 317.82 137.32 324.29 150.28 
M 328.83 159.35 335.31 172.3 
M 344.38 190.44 346.97 195.62 
M 278.5 53.61 298.25 93.13 
M 302.79 102.2 328.05 152.73 
M 330.64 157.91 337.77 172.16 
M 339.71 176.05 340.36 177.35 
M 346.19 189.01 349.43 195.48 
M 282.09 55.74 292.78 77.12 
M 294.73 81.01 299.91 91.37 
M 301.2 93.96 303.15 97.85 
M 305.09 101.74 321.9 135.36 
M 322.04 135.63 331.43 154.42 
M 332.08 155.71 334.02 159.6 
M 337.26 166.08 340.5 172.56 
M 341.15 173.85 343.74 179.03 
M 349.57 190.69 350.22 191.99 
M 285.33 57.14 293.43 73.34 
M 296.67 79.82 300.55 87.59 
M 307.03 100.55 322.51 131.5 
M 325.28 137.05 334.03 154.54 
M 334.68 155.84 335.33 157.13 
M 339.86 166.2 342.45 171.39 
M 344.4 175.27 345.69 177.86 
M 351.52 189.52 353.46 193.41 
M 288.48 58.36 295.93 73.26 
M 299.17 79.74 302.4 86.22 
M 310.18 101.77 310.83 103.06 
M 314.06 109.54 314.71 110.84 
M 316.66 114.72 321.84 125.09 
M 328.53 138.47 335.33 152.08 
M 346.99 175.4 348.29 177.99 
M 352.82 187.06 354.77 190.95 
M 291.36 59.06 292.33 61 
M 293.63 63.59 298.81 73.96 
M 300.75 77.85 305.29 86.92 
M 310.47 97.28 312.41 101.17 
M 316.3 108.94 318.24 112.83 
M 318.89 114.12 324.07 124.48 
M 331.76 139.86 337.27 150.88 
M 296.34 63.96 300.23 71.74 
M 303.47 78.21 315.78 102.83 
M 319.02 109.31 325.04 121.36 
M 334.97 141.21 343.71 158.7 
M 298.3 62.81 302.84 71.88 
M 305.43 77.06 310.61 87.42 
M 313.2 92.61 317.74 101.68 
M 320.98 108.15 326.12 118.44 
M 338.18 142.55 346.27 158.75 
M 356.64 179.48 360.53 187.25 
M 302.07 65.28 305.31 71.76 
M 306.61 74.35 308.55 78.23 
M 309.2 79.53 312.44 86.01 
M 316.32 93.78 320.21 101.56 
M 321.51 104.15 322.15 105.44 
M 323.45 108.03 327.27 115.68 
M 341.4 143.93 344.31 149.76 
M 344.96 151.05 348.85 158.83 
M 349.49 160.12 352.09 165.3 
M 357.27 175.67 363.1 187.33 
M 304.42 64.9 307.01 70.08 
M 308.95 73.97 314.78 85.63 
M 318.67 93.41 319.97 96 
M 320.61 97.29 321.91 99.88 
M 323.85 103.77 328.49 113.04 
M 344.62 145.31 364.22 184.5 
M 307.98 66.95 309.27 69.54 
M 311.86 74.72 317.69 86.38 
M 326.76 104.52 329.73 110.45 
M 347.84 146.68 361.77 174.53 
M 305.98 57.88 306.3 58.52 
M 306.95 59.82 308.24 62.41 
M 312.13 70.18 320.55 87.03 
M 321.2 88.32 322.5 90.91 
M 351.05 148.02 351.37 148.66 
M 353.31 152.55 353.96 153.85 
M 354.61 155.14 357.85 161.62 
M 358.5 162.91 363.79 173.5 
M 309.53 59.91 310.5 61.85 
M 314.39 69.63 321.06 82.97 
M 355.22 151.3 359.76 160.37 
M 361.7 164.25 364.22 169.29 
M 313.3 62.38 315.57 66.92 
M 316.86 69.51 318.12 72.02 
M 357.45 150.69 362.31 160.41 
M 363.75 163.29 364.22 164.22 
M 316.19 63.08 317.89 66.5 
M 360.66 152.03 364.22 159.15 
M 363.86 153.37 364.22 154.08 
"/></svg>