<svg xmlns="http://www.w3.org/2000/svg" width="520" height="320"><rect x="0" y="0" width="520" height="320" fill="floralwhite"/><rect x="10" y="10" width="500" height="300" stroke="black" stroke-width="1" fill="none"/><path stroke="black" stroke-width="1" fill="none" stroke-linecap="round" stroke-linejoin="round" d="
M 171.24 110.46 190.18 98.47 199.63 93.03 209.09 88.07 228.01 78.97 237.46 75.29 246.92 72.59 256.38 70.55 265.84 70.11 275.3 69.96 284.75 69.56 294.21 71.32 303.67 74.82 313.13 79.14 332.04 88.75 341.5 93.33 350.96 98.62 369.87 110.97 379.33 116.95 408.58 134.73 
M 389.03 199.04 379.33 205.98 369.87 212.16 360.41 218.02 350.96 223.1 332.04 232.51 322.58 235.98 313.13 238.99 303.67 241.71 294.21 243.14 284.75 244.12 275.3 243.7 265.84 243.72 256.38 244.03 246.92 242.1 237.46 238.94 228.01 235.26 218.55 231.2 209.09 227.67 199.63 223.48 190.18 218.14 180.75 211.94 
M 408.58 149.37 403.78 148.71 396.93 147.42 383.29 144.2 365.25 140.33 347.58 136.14 329.66 133.81 326.36 133.05 313.43 129.09 305.17 127.06 
M 302.01 126.32 294.23 124.73 291.08 124.46 284.61 124.34 273.07 125.52 
M 269.78 125.85 263.06 126.79 
M 259.6 127.36 254.34 128.14 249.08 128.59 
M 239.08 128.3 232.49 128.12 
M 215.03 130.57 211.55 131.26 
M 208.06 131.94 204.53 132.63 
M 197.2 134.16 186.38 136.54 
M 184.36 198.51 185.26 199.69 
M 187.92 203.11 190.62 206.48 
M 184.62 192.74 188.7 198.08 195.55 206.58 
M 198.28 209.86 200.98 213.02 
M 184.57 186.45 189.36 192.86 
M 205.84 213.13 208.45 216.14 
M 184.28 179.65 185.6 181.56 
M 202.74 203.44 205.42 206.82 
M 190.68 182.53 195.99 189.45 
M 199.07 193.12 202.09 196.68 
M 207.61 203.61 215.29 213.41 
M 223.06 221.51 225.48 223.84 
M 197.75 186.05 203.92 193.28 
M 206.96 196.85 212.3 203.83 
M 219.89 213.52 222.52 216.36 
M 234.1 228.08 235.88 229.77 
M 185.2 161.42 187.99 165.68 
M 203.55 187.62 205.5 189.82 
M 208.71 193.48 213.06 198.85 217.95 205.8 221.76 210.63 
M 224.41 213.61 231.98 221.53 
M 238.44 228.28 240.52 230.25 
M 189.79 161.79 192.53 166.02 
M 209.53 189.24 213.35 193.72 
M 218.61 200.89 222.24 206.04 223.54 207.64 
M 234.02 219.11 236.37 221.68 
M 238.61 224.12 240.76 226.41 
M 242.87 228.53 244.95 230.47 
M 184.14 145.25 188.01 152 194.31 161.91 
M 215.39 190.83 219.2 195.81 222.83 201.15 
M 230.64 210.84 233.37 213.76 
M 236 216.58 240.86 221.93 
M 243.09 224.39 245.24 226.66 
M 251.49 232.29 253.58 233.79 
M 179.92 129.4 187.9 144.24 193.8 154.04 
M 196.34 158.01 198.9 162.05 
M 222.25 194.2 225.9 199.63 229.7 204.68 
M 235.19 210.95 237.93 213.93 
M 245.38 222.19 249.72 226.83 
M 172.82 109.47 177.63 117.47 182.73 127.05 
M 184.78 130.88 194.74 148.15 198.44 154.14 
M 201 158.15 205.34 165.15 
M 226.33 193.8 230.34 199.74 232.93 203.14 235.66 206.42 247.61 219.81 
M 249.9 222.38 252.08 224.73 
M 175.8 107.6 179.59 113.81 187.92 128.88 194.79 140.19 201.8 152.28 209.67 164.72 
M 231.57 194.95 233.71 198.06 
M 239.01 204.93 244.55 211.35 
M 178.7 105.78 183.54 113.68 189.99 124.87 197.18 136.16 206.4 152.43 214.29 164.57 
M 236.84 195.96 241.06 201.71 
M 243.78 205.11 249.19 211.52 
M 256.47 219.83 258.49 222.07 
M 274.49 233.51 276.56 234.53 
M 181.56 103.98 192 120.87 199.49 132.17 201.87 136.05 209.73 150.5 
M 212.19 154.52 214.8 158.49 
M 217.59 162.49 218.68 163.99 
M 241.9 196.58 248.48 205.25 
M 264.11 223.23 265.93 224.89 
M 184.37 102.18 192.79 115.19 
M 195.18 118.84 204.12 132.1 206.43 136.1 213.03 148.52 215.39 152.57 217.97 156.5 223.27 163.67 
M 247.01 197.27 247.86 198.44 
M 260.3 213.96 266.94 221.44 268.79 223.17 271.84 225.6 
M 278.17 230 280.17 231.36 
M 187.14 100.41 206.16 128.26 210.91 136.19 218.7 150.51 
M 221.22 154.47 225.49 160.34 227.94 163.39 
M 251.95 197.83 252.43 198.49 
M 257.43 205.1 262.11 210.69 
M 264.23 213.18 269.87 219.59 
M 273.84 223.2 275.95 224.88 
M 189.86 98.67 195.59 106.58 208 124.46 213.05 132.25 216.5 138.19 
M 218.7 142.26 222.04 148.41 224.5 152.42 227.25 156.29 232.64 163.06 
M 257.03 198.6 259.29 201.56 
M 263.94 207.23 268.12 212.27 
M 270.05 214.58 273.92 218.8 
M 284.08 227.65 285.96 229.23 
M 287.83 230.71 289.76 232.08 
M 291.78 233.31 293.52 234.22 
M 192.56 97.1 199.81 106.52 212.44 124.59 216.28 130.33 
M 218.71 134.18 226.69 148.29 229.26 152.27 237.96 163.33 
M 262.93 200.09 270.09 208.9 
M 272.11 211.4 276.13 216.02 
M 284.28 223.8 286.19 225.57 
M 195.17 95.6 204.09 106.54 219.5 128.48 222.02 132.23 225.61 138.07 
M 227.92 142.09 231.51 148.17 234.28 152.09 241.85 161.7 
M 268.75 201.2 275.25 209.42 280.44 215.38 
M 282.5 217.51 286.51 221.47 
M 290.18 225.18 293.81 228.57 
M 295.75 230.11 297.82 231.52 
M 197.72 94.13 206.04 103.63 208.45 106.67 214.77 115.6 
M 217.45 119.35 226.57 132.27 229.07 136.09 232.63 142.08 
M 235.16 146.07 236.5 148.05 245.47 159.57 247.59 162.8 
M 273.76 201.46 274.07 201.86 
M 276.28 204.69 280.61 210.02 
M 284.78 214.81 292.35 222.94 
M 299.81 229.92 301.99 231.37 
M 200.27 92.69 207.96 100.97 212.97 106.98 231.12 132.44 234.78 138.25 
M 237.3 142.18 238.61 144.14 241.55 147.95 247.63 155.56 250.26 159.45 251.41 161.42 
M 280.63 204.03 287.06 211.94 
M 289.04 214.29 294.49 220.62 
M 299.79 226.52 301.81 228.26 
M 202.92 91.3 212.38 101.22 217.6 107.44 232.95 129.09 240.46 140.46 244.91 146.04 
M 248.01 149.75 249.55 151.62 252.32 155.5 256.15 162 
M 287.24 206.22 293.07 213.78 
M 298.23 220.48 299.95 222.63 
M 205.68 89.86 216.89 101.59 222.24 107.96 232.29 122.36 242.08 137.04 244.89 140.69 251.14 147.86 254.08 151.61 256.73 155.59 260.31 161.83 
M 289.39 202.85 291.45 205.66 
M 293.35 208.35 295.14 210.92 
M 298.53 215.85 300.2 218.24 
M 208.51 88.37 221.44 102.04 224.16 105.15 226.79 108.47 236.62 122.98 243.65 133.78 246.33 137.34 252.48 144.28 255.57 147.9 257.01 149.84 
M 264.45 161.86 264.56 162.05 
M 294.49 203.73 297.14 207.9 
M 211.46 86.96 223.25 99.52 228.64 105.6 231.24 108.96 233.73 112.62 245.4 130.61 247.9 134.04 250.72 137.42 256.89 144.29 259.92 148.05 261.32 150.05 
M 266.41 158.13 268.53 161.9 
M 298.79 204.3 299.05 204.75 
M 214.46 85.55 227.74 99.89 233.14 106.08 235.74 109.59 247.4 127.48 249.74 130.75 252.34 134.02 261.25 144.32 265.55 150.3 
M 270.51 158.32 272.33 161.5 
M 305.88 210.76 308.59 215.06 309.59 216.36 
M 217.46 84.14 235.08 103.26 237.74 106.63 240.28 110.25 251.83 127.49 254.21 130.6 264.06 142.43 
M 266.94 146.39 272.21 154.52 
M 274.5 158.33 276.2 161.26 
M 309.63 210.91 311.62 213.81 
M 220.46 82.69 237.16 100.39 241.09 105.38 
M 243.59 108.96 254.04 124.21 256.28 127.23 262.65 135.01 
M 265.45 138.52 269.7 144.37 276.1 154.41 
M 278.26 158.04 280.26 161.45 
M 309.66 204.69 313.66 210.99 
M 320.16 218.62 322.49 220.76 
M 223.45 81.22 236.69 94.61 239.4 97.43 242.04 100.52 244.55 103.89 249.32 111.06 256.26 120.88 260.71 126.79 265.65 132.91 271.02 140.25 276.34 148.38 283.96 161.03 
M 315.69 207.94 317.81 210.9 
M 319.96 213.58 322.16 216.02 
M 326.8 220.49 329.23 222.62 
M 226.47 79.73 239.12 91.75 241.78 94.43 244.37 97.35 246.83 100.58 253.75 111.02 256.1 114.32 260.59 120.48 269.88 132.59 275.07 140.12 281.08 149.76 
M 283.16 153.3 285.28 156.8 
M 287.61 160.44 288.19 161.32 
M 229.64 78.33 241.58 88.94 244.23 91.49 246.76 94.24 249.15 97.29 258.06 110.76 272.81 130.68 
M 275.29 134.19 279.12 139.82 281.48 143.63 286.65 152.6 
M 291.39 159.92 292.51 161.56 
M 322.42 205.35 324.13 207.68 
M 328.45 213.01 330.7 215.52 
M 232.97 77.04 241.22 83.87 246.61 88.66 249.12 91.29 251.43 94.16 260 107.19 271.26 122.45 280.77 135.68 283.14 139.4 286.25 144.9 
M 290.36 152.04 295.3 159.56 
M 236.25 75.76 243.39 81.35 248.79 85.97 251.34 88.53 253.63 91.26 255.71 94.2 261.86 103.73 282.56 131.7 286.06 137.12 
M 292.08 148.05 294.26 151.72 
M 296.65 155.49 299.28 159.4 
M 331.53 205.91 334.89 210.24 
M 239.62 74.67 246.73 80.05 
M 249.41 82.28 253.32 85.92 255.66 88.56 257.73 91.35 263.65 100.42 270.63 109.38 279.5 121.68 284.35 127.9 286.81 131.32 290.11 136.74 
M 294 144.11 297.04 149.74 299.33 153.52 303.34 159.36 
M 243.02 73.7 247.29 76.77 252.59 81.05 255.15 83.43 257.52 85.96 259.64 88.65 265.42 97.28 274.74 108.93 281.25 118.31 288.54 127.52 290.92 130.97 293.08 134.59 296.01 140.18 
M 297.93 144 301.01 149.78 303.34 153.59 306.02 157.44 309.07 161.38 
M 346.84 212.39 349.54 214.89 
M 246.32 72.76 249.14 74.73 254.37 78.79 256.91 81.03 259.29 83.44 261.46 86.01 267.25 94.24 276.45 105.46 279.74 110.14 
M 281.86 113.33 285.18 117.98 292.57 127.21 294.88 130.7 297.01 134.38 302.91 145.99 305.08 149.88 307.49 153.65 310.26 157.43 313.43 161.39 
M 343.83 204.38 346.28 206.99 
M 348.9 209.57 351.57 212.11 
M 249.7 71.99 253.58 74.69 258.69 78.72 261.07 80.97 263.28 83.39 271.29 93.86 278.17 102.01 280.39 105.03 286.78 114.63 294.1 123.71 296.51 126.98 299.87 132.41 
M 303.97 140.12 306.01 144.08 
M 308.18 147.99 310.56 151.77 
M 316.22 159.32 318.26 161.93 
M 353.43 209.27 356.02 211.88 
M 253.1 71.25 258.02 74.56 260.52 76.47 262.91 78.55 265.15 80.8 279.98 98.57 282.17 101.5 288.46 111.17 290.72 114.35 298.05 123.45 300.44 126.83 302.75 130.46 306.01 136.2 
M 308.12 140.14 311.36 146.06 313.75 149.9 317.89 155.54 
M 320.81 159.39 322.76 162.05 
M 256.61 70.54 262.43 74.3 264.83 76.19 267.1 78.25 269.24 80.47 281.92 95.13 286.15 101.04 291.35 109.23 
M 295.92 115.45 299.57 119.98 304.43 126.72 309.11 134.21 314.72 144.09 
M 317.19 148.02 322.71 155.65 
M 325.46 159.5 327.04 161.84 
M 356.71 203.36 359.3 206.09 
M 261.2 70.32 264.39 72.24 266.8 73.92 269.09 75.78 273.42 79.96 281.86 89.25 286.07 94.49 294.27 107.22 297.6 111.87 
M 299.95 114.9 302.38 118.01 
M 304.84 121.32 307.32 124.84 
M 309.8 128.49 313.43 134.16 316.88 140.15 
M 319.34 144.18 320.62 146.19 328.83 157.67 330.04 159.59 
M 266.01 70.11 268.78 71.78 271.09 73.43 273.32 75.25 277.65 79.33 281.91 83.78 286.1 88.52 288.15 91.13 291.14 95.57 
M 293.13 98.74 298.32 106.63 309.01 121.1 
M 311.56 124.72 315.32 130.32 322.62 142.33 326.81 148.27 
M 334.43 159.6 336.44 163.02 
M 271.1 70.02 275.31 72.88 277.54 74.68 281.9 78.68 286.15 83.08 288.22 85.45 291.22 89.37 
M 293.19 92.25 300.29 102.99 310.74 117.37 
M 318.26 128.51 323.12 136.42 
M 325.77 140.46 331.42 148.34 
M 334.03 152.1 336.41 155.78 
M 340.8 162.97 340.91 163.15 
M 276.04 69.92 279.54 72.33 283.96 76.04 288.23 80.25 290.29 82.56 294.27 87.72 302.38 99.53 307.72 106.99 
M 310.06 110.26 318.7 122.93 326 134.57 328.69 138.57 337.06 150.18 344.9 162.41 
M 280.74 69.72 283.74 71.84 288.13 75.55 292.32 79.87 295.34 83.59 
M 297.37 86.25 311.98 106.74 
M 314.31 110.18 330.18 134.65 337.26 144.37 
M 339.92 148.1 349.02 161.88 
M 285.56 69.71 290.09 73.24 294.3 77.37 298.42 82.22 302.58 87.62 312.9 101.84 324.37 119.62 333.13 132.67 
M 338.77 140.33 341.53 144.1 
M 344.07 147.77 346.43 151.35 
M 350.96 158.22 353.21 161.56 
M 291.59 70.83 294.15 73.01 298.37 77.33 302.57 82.28 305.73 86.29 
M 307.84 89.05 312.98 95.95 318.1 103.55 
M 322.52 110.68 324.85 114.35 
M 332.27 125.13 340.43 136.25 
M 343.22 140.02 347.07 145.61 350.58 151.06 
M 297.84 72.66 300.36 75.15 304.61 79.87 310.94 87.66 317.03 95.85 322.14 103.79 
M 324.34 107.34 330.2 116.26 336.72 124.96 
M 350.18 143.46 352.52 147.21 
M 304.15 75.04 310.81 82.46 317 90.22 320.94 95.78 329.6 109.27 331.99 112.73 337.2 119.53 341.42 124.68 
M 344.27 128.22 348.46 133.74 351.05 137.53 354.59 143.3 
M 359.31 150.85 361.72 154.48 
M 364.09 158.06 366.44 161.69 
M 310.97 78.15 314.79 82.44 318.81 87.4 322.78 92.75 325.89 97.31 
M 328.08 100.61 335.16 110.85 
M 337.76 114.24 343.34 120.96 
M 346.22 124.39 349.07 127.95 
M 351.79 131.66 355.55 137.42 362.62 148.92 368.62 158.16 
M 370.96 161.94 373.1 165.48 
M 317.98 81.65 324.56 89.77 338.42 108.94 341.06 112.32 348.12 120.72 
M 350.97 124.18 355.08 129.66 361.3 139.38 
M 363.67 143.23 372.01 156.44 377.62 165.99 
M 324.81 85.13 330.72 92.39 336.69 100.3 
M 339.21 103.63 345.79 112.1 354.19 122.33 356.94 125.93 359.66 129.72 363.54 135.59 
M 365.98 139.48 368.34 143.29 
M 332.19 88.83 343.89 103.4 
M 346.52 106.8 358.75 122.37 364.39 129.93 369.55 137.76 373.04 143.46 
M 375.32 147.28 378.79 153.18 384.35 163.2 
M 339.98 92.59 347.26 101.51 359.11 117.14 
M 361.95 120.69 367.79 128.26 
M 370.54 132.2 374.32 138.03 377.73 143.77 
M 379.93 147.66 382.14 151.65 
M 386.53 159.75 388.72 163.75 
M 348.71 97.36 351.89 101.39 359.52 111.89 366.63 120.83 
M 369.68 124.66 372.64 128.6 
M 377.87 136.44 381.26 142.25 386.56 152.2 
M 357.54 102.9 363.95 111.78 371.37 121.02 
M 374.5 124.96 378.89 130.93 382.52 136.85 
M 384.69 140.78 386.77 144.73 
M 388.82 148.73 394.09 158.89 397.38 164.79 
M 366.02 108.44 369.9 113.56 
M 372.95 117.35 379.32 125.28 
M 382.2 129.31 385.9 135.36 391.13 145.31 
M 395.25 153.35 397.36 157.39 
M 375 114.21 382.56 123.64 385.47 127.73 388.01 131.82 393.44 141.89 
M 397.56 149.84 403.73 161.72 
M 384.03 119.79 388.6 126.15 
M 391.19 130.27 395.73 138.42 
M 397.86 142.4 407.89 161.96 
M 391.88 124.58 396.89 132.81 401.35 140.85 404.36 146.67 
M 406.23 150.48 408.58 155.29 
M 399.08 129.01 402.69 135.19 
M 404.89 139.18 408.58 146.5 
M 406.29 133.35 408.58 137.47 
M 177.59 106.48 172.88 112.84 
M 185.92 101.19 180.97 107.07 174.86 115.76 
M 194.64 95.9 187.39 103.85 184.9 106.93 182.5 110.25 176.18 119.77 
M 202.61 91.47 195.03 99.63 
M 192.61 102.33 188.87 106.78 186.44 110.1 177.64 123.75 
M 211.8 86.8 207.11 91.16 202.44 95.89 197.84 100.87 192.94 106.64 188.08 113.52 179.63 127 
M 222.55 81.66 216.55 86.58 211.41 91.26 204.28 98.35 199.56 103.58 194.63 109.83 192.2 113.37 181.18 130.87 
M 233.31 76.9 226.64 82.1 219.68 87.9 
M 214.56 92.59 206.18 100.92 201.35 106.52 198.87 109.76 194.03 116.98 185.28 130.87 
M 182.73 134.7 182.13 135.57 
M 240.62 74.39 225.6 86.83 220.22 91.63 216.53 95.17 
M 214.14 97.51 208.11 103.7 205.65 106.57 203.17 109.77 199.56 115.04 
M 197.19 118.78 194.76 122.7 
M 192.22 126.71 183.19 140.08 
M 246.9 72.59 244.03 74.93 227.43 89.37 218.6 97.84 
M 213.81 102.7 208.79 108.32 
M 206.29 111.57 202.77 116.83 195.5 128.49 184.08 144.92 
M 253.05 71.26 248.43 74.74 229.34 92 224.26 96.98 217.16 104.39 214.63 107.13 210.75 111.8 
M 206.04 118.75 203.78 122.48 
M 198.8 130.27 190.31 142.25 
M 184.92 150.03 184.88 150.09 
M 258.51 70.45 255.26 72.8 250.53 76.69 234.23 91.96 228.78 97.27 216.66 110.6 214.06 113.78 210.48 118.93 
M 205.91 126.33 200.72 134.1 
M 197.85 138.12 189.33 150.07 
M 186.73 153.93 185.08 156.47 
M 262.84 70.25 259.74 72.59 254.96 76.66 236.34 94.62 230.95 100.11 221.33 111.14 216.2 117.48 213.82 120.92 206.67 132.15 192.52 152.07 188.69 157.84 
M 186.31 161.7 185.26 163.47 
M 266.91 70.09 264.19 72.26 259.34 76.53 238.48 97.44 230.77 105.82 223.35 114.76 219.59 119.55 
M 217.18 122.95 211.12 132.24 207.06 138.15 
M 204.22 142.17 201.34 146.21 
M 198.53 150.19 193.24 157.93 
M 190.76 161.8 188.44 165.69 
M 270.71 70.03 263.66 76.28 255.64 84.68 
M 253.27 87.22 243.47 97.37 237.87 103.48 232.86 109.18 226.63 116.8 
M 221.7 123.2 214.25 134.22 
M 197.87 158.05 195.3 161.93 
M 192.87 165.83 192.76 166.01 
M 274.39 69.97 270.41 73.52 265.48 78.38 249.71 95.73 
M 246.86 98.93 233.58 114.28 
M 228.65 120.32 224.99 125.1 218.74 134.19 
M 216.03 138.2 199.9 162.08 
M 278.15 69.83 272.16 75.41 267.19 80.66 255.43 94.19 240.64 111.98 
M 235.54 117.91 233.09 120.83 
M 228.29 127.04 220.55 138.14 
M 214.91 146.45 212.21 150.53 
M 204.52 162.26 202.48 165.31 
M 192.14 183.31 190.79 185.58 
M 281.97 69.67 276.38 74.84 270.06 81.66 
M 267.58 84.5 259.39 94.29 243.88 114.11 236.22 122.92 233.87 125.85 230.36 130.65 
M 227.85 134.21 218 148.49 209.16 162.41 
M 195.38 185.76 192.04 191.15 189.54 194.64 185.62 199.7 
M 285.59 69.71 283.07 71.91 278.09 76.86 272.94 82.6 265.48 91.46 260.89 97.36 248.38 114.46 238.08 126.46 232.36 134.39 
M 226.88 142.12 222.55 148.4 218.66 154.51 
M 199.67 186.57 197.93 189.53 
M 288.66 70.28 284.82 73.75 282.32 76.25 277.17 81.96 269.38 91.23 263.61 98.89 
M 261.35 102.15 252.82 114.47 248.88 119.45 
M 246.16 122.57 243.53 125.57 
M 241.09 128.53 236.65 134.76 
M 234.26 138.27 231.55 142.11 
M 220.85 158.44 217.59 164.16 
M 198.06 196.57 195.38 199.91 
M 291.75 70.86 288.97 73.33 284.01 78.37 278.8 84.33 273.53 90.71 268.64 97.06 257.17 114.24 254.64 117.74 251.96 121.1 246.5 127.43 242.96 132.05 
M 233.48 146.13 230.65 150.21 
M 227.97 154.29 223.31 162.42 
M 208.08 188.85 207.47 189.91 
M 203.01 196.71 200.37 200.03 
M 294.8 71.54 290.65 75.33 285.66 80.59 280.43 86.74 275.2 93.3 270.47 99.88 261.44 113.83 258.97 117.42 256.35 120.88 248.32 130.74 245.01 135.58 
M 242.97 138.87 238.37 146.09 
M 235.67 150.06 231.58 156.14 230.38 158.19 
M 205.3 200.18 202.55 203.44 
M 199.76 206.67 196.97 209.84 
M 297.6 72.57 294.7 75.11 289.82 80.07 282.05 89.21 276.96 95.96 269.09 107.92 
M 266.81 111.51 263.22 116.95 259.36 122.19 
M 256.7 125.6 252.78 130.68 250.4 134.06 248.29 137.41 245.39 142.48 
M 243.25 146.08 240.79 149.91 
M 238.1 153.91 234.15 160.05 232.49 163.06 
M 300.53 73.66 296.33 77.33 293.87 79.79 288.87 85.37 283.69 91.8 278.76 98.75 268.63 114.63 
M 263.67 121.7 257.25 130.37 254.87 133.9 252.74 137.39 247 147.88 244.64 151.72 239.25 159.82 237.1 163.38 
M 220.43 192.2 219.23 194.03 
M 303.52 74.76 300.43 77.38 295.44 82.26 290.42 87.97 287.86 91.17 282.86 98.14 271.6 115.97 261.7 129.91 258.27 135.36 
M 256.24 138.97 250.59 149.74 
M 248.3 153.59 242.97 161.67 
M 224.33 193.26 218.93 200.92 
M 216.56 204.08 211.5 210.26 
M 306.34 76.04 302.07 79.79 297 84.87 291.92 90.77 289.41 94.09 284.52 101.22 275.67 115.55 266.06 129.44 263.76 133.09 260.66 138.74 
M 258.78 142.46 256.97 146.1 
M 255.06 149.76 252.93 153.56 
M 250.49 157.49 246.83 162.9 
M 228.08 194.39 225.55 197.87 
M 223.15 201.17 219.69 205.9 216.08 210.44 
M 309.12 77.31 303.7 82.31 298.57 87.61 293.43 93.78 288.49 100.81 279.59 115.2 270.29 129.08 268.06 132.71 265.97 136.54 260.4 148.07 257.33 153.67 
M 252.38 161.42 251.69 162.43 
M 227.47 201.35 222.86 207.63 
M 212.93 218.99 211.11 220.75 
M 311.86 78.56 305.33 84.93 300.16 90.48 297.54 93.58 292.48 100.49 287.76 107.78 281.33 118.3 274.44 128.79 272.21 132.47 270.18 136.3 264.65 148.28 262.71 152.06 259.33 157.69 
M 227.23 207.78 224.99 210.74 
M 222.68 213.59 220.23 216.36 
M 314.49 79.84 304.38 90.47 299.1 96.65 296.54 100.12 290.58 109.3 
M 286.28 116.28 278.7 128.43 275.34 134.18 
M 273.34 138.18 267.86 150.4 
M 265.84 154.23 264.78 156.11 261.11 161.69 
M 239.3 198.19 236.66 201.56 
M 231.73 207.86 229.45 210.82 
M 316.99 81.13 305.97 93.33 300.67 99.71 295.73 107.02 281.84 129.94 
M 279.58 133.87 278.46 135.87 275.54 142.17 
M 271.93 150.54 269.95 154.46 
M 267.75 158.22 265.27 162.03 
M 245.05 196.97 244.04 198.33 
M 236.36 207.98 233.99 210.91 
M 319.44 82.4 312.76 90.38 304.85 99.3 302.26 102.72 299.79 106.39 295.26 113.89 284.98 131.48 281.58 137.6 
M 279.5 141.84 274.97 152.55 272.95 156.49 271.82 158.36 
M 249.31 197.6 248.73 198.45 
M 246.18 201.89 239.83 209.66 236.2 213.85 
M 321.9 83.67 316.73 90.24 309.07 99 306.44 102.23 303.91 105.75 299.3 113.3 285.67 137.18 
M 283.42 141.38 281.37 145.7 
M 279.53 150.04 276.8 156.32 273.92 161.43 
M 253.27 198.49 252.09 200.32 249.57 203.66 245.8 208.35 
M 240.82 214.07 238.32 216.68 
M 324.4 84.93 318.26 92.95 310.68 101.92 306.9 107.07 
M 304.54 110.78 296.25 125.27 
M 294.21 128.92 289.7 136.78 
M 287.31 140.89 283.99 147.25 280.36 155.82 277.71 161.23 
M 247.97 211.48 245.47 214.3 
M 327.01 86.23 319.79 95.8 312.37 105.03 309.92 108.5 307.58 112.18 294.86 134.48 287.64 146.64 285.59 150.87 281.06 161.4 
M 233.85 228.08 232.48 229.01 
M 329.74 87.6 316.55 105.08 314.17 108.41 310.7 113.77 
M 308.46 117.47 298.79 134.32 290.35 148.22 
M 288.25 152.33 286.42 156.56 
M 284.69 160.86 284.55 161.2 
M 264.07 200.33 263.83 200.73 
M 261.51 204.51 259.21 208.09 
M 256.91 211.43 255.76 213.03 252.03 217.3 
M 332.6 89.03 327.62 95.64 318.31 108.6 316.05 111.98 311.61 119.16 302.74 134.26 296.62 144.01 
M 294.26 147.92 291.03 153.87 288.38 160.3 
M 263.35 207.36 258.78 214.18 
M 335.62 90.48 331.77 95.5 322.39 108.92 316.91 117.4 
M 314.76 120.99 306.81 134.23 297.03 149.74 294.94 153.58 294 155.63 
M 292.21 159.83 291.55 161.52 
M 269.77 202.7 267.4 206.44 
M 338.69 91.97 333.64 98.73 322.05 115.92 313.48 130.31 301 149.78 298.87 153.51 296.99 157.44 295.29 161.56 
M 273.91 201.88 271.48 205.54 
M 266.66 212.62 264.32 215.93 
M 259.59 221.91 258.37 223.29 255.76 225.74 254.36 226.81 
M 248.63 230.59 245.83 232.16 
M 341.86 93.53 338.1 98.52 333.06 105.67 325.06 117.89 
M 322.96 121.34 315.37 134.17 311.48 140.11 
M 308.83 144.09 306.29 147.97 
M 303.97 151.73 302.87 153.58 300.97 157.4 299.2 161.58 
M 277.69 201.89 273.1 208.3 
M 270.59 211.72 268.14 215.02 
M 265.74 218.18 260.98 223.92 
M 344.97 95.27 337.54 105.46 332.57 112.71 328.1 119.76 319.58 134.3 315.87 140.14 
M 313.2 144.08 307 153.65 305.06 157.43 303.32 161.4 
M 281.64 201.87 279.97 204.13 
M 274.69 210.94 272.09 214.16 
M 259.87 228.14 257.28 230.29 
M 254.58 232.19 252.03 233.71 
M 348.15 97.05 339.57 108.88 332.31 119.73 327.97 126.98 321.53 138.32 319.08 142.21 311.3 153.63 309.27 157.44 307.48 161.45 
M 285.36 202.23 284.39 203.51 
M 281.69 206.95 273.58 216.46 
M 268.5 222.15 266.11 224.84 
M 351.34 98.87 341.69 112.29 336.77 119.55 329.96 130.77 323.64 142.37 321.15 146.2 317.18 151.79 
M 312.73 159.32 311.77 161.35 
M 288.98 202.62 286.09 206.36 
M 262.84 231.1 260.34 233.1 
M 354.42 100.87 343.92 115.67 336.61 126.8 334.25 130.7 332.09 134.64 328.15 142.5 325.92 146.35 318.27 157.42 316.01 161.66 
M 290.36 205.81 284.93 212.21 
M 274.06 223.17 271.59 225.65 
M 269.2 228.03 266.85 230.3 
M 357.49 102.86 346.23 119.04 338.82 130.47 336.49 134.51 330.53 146.44 328.22 150.21 324.32 155.69 
M 321.87 159.41 320.29 162.1 
M 294.37 205.25 293.14 206.94 289.2 211.67 
M 286.48 214.6 283.71 217.35 
M 273.26 227.25 270.89 229.49 
M 360.5 104.82 350.96 118.87 343.6 130.16 341.12 134.23 338.86 138.34 334.89 146.42 332.79 150.25 331.57 152.1 
M 329.06 155.79 325.05 161.74 
M 298.09 204.82 295.73 208.04 
M 363.49 106.78 353.25 122.33 345.87 133.9 343.42 138.02 337.05 150.18 334.77 153.95 329.41 161.99 
M 301.61 204.61 298.21 209.27 294.58 213.6 
M 292.06 216.34 289.44 218.95 
M 281.45 226.06 276.6 230.2 
M 366.5 108.76 348.02 137.7 345.57 141.82 338.95 153.8 333.6 162.25 
M 305.22 204.38 305.07 204.59 
M 300.59 210.6 297.09 214.67 293.41 218.49 
M 285.5 225.63 282.95 227.75 
M 369.64 110.82 362.44 122.47 349.99 141.52 343.03 153.49 337.12 163.23 
M 308.77 204.5 306.38 207.77 
M 304.11 210.67 299.52 215.85 
M 292.11 222.96 289.49 225.24 
M 372.99 112.94 367.16 122.66 354.43 141.35 348.25 151.21 
M 345.94 155.07 341.2 162.95 
M 312.53 204.72 312.52 204.73 
M 305.4 213.52 300.78 218.26 
M 376.52 115.17 371.96 122.91 369.65 126.51 358.92 141.32 353.66 149.08 350.06 154.75 
M 347.69 158.52 344.78 163.25 
M 311.63 210.96 307.96 215.03 302.08 220.58 
M 380.19 117.47 374.5 126.84 371.96 130.43 360.75 145.16 351.86 158.19 
M 349.43 161.87 348.38 163.49 
M 320.58 205.09 313.23 213.83 
M 310.71 216.4 308.25 218.7 
M 383.89 119.71 379.33 127.18 376.8 130.78 365.36 145.14 352.2 163.61 
M 324.36 205.63 317.4 213.73 
M 314.88 216.43 312.36 218.85 
M 302.59 226.54 300.15 228.29 
M 292.81 233.23 290.78 234.46 
M 387.56 121.93 384.01 127.58 381.55 131.14 378.83 134.67 370.02 145.19 360.57 158.02 
M 357.96 161.48 356.16 163.89 
M 328.25 206.01 326.8 207.62 
M 321.62 213.47 319.1 216.25 
M 311.6 223.12 309.12 224.94 
M 391.12 124.11 386.09 131.6 383.46 135.08 371.82 148.96 360.54 163.91 
M 328.45 210.34 325.86 213.16 
M 323.34 215.93 319.62 219.83 315.9 223.16 
M 313.41 225.09 308.45 228.38 
M 394.61 126.26 387.89 135.59 376.45 149.21 364.58 164.61 
M 335.42 207.48 332.73 210.25 
M 325.14 218.25 322.7 220.73 
M 320.25 223.02 317.78 225.09 
M 310.31 230.04 307.84 231.4 
M 398.04 128.38 392.25 136.14 381.02 149.63 368.83 165.21 
M 337.16 210.19 334.46 212.9 
M 401.47 130.45 392.49 141.77 
M 389.68 145.11 385.47 150.16 373.38 165.51 
M 347 204.12 344.49 207.11 
M 336.34 215.46 333.77 217.98 
M 404.89 132.51 389.85 150.74 377.77 166.01 
M 351.54 203.54 351.37 203.78 
M 349.06 206.79 347.86 208.28 343.87 212.56 
M 408.25 134.54 394.2 151.32 387.45 159.88 
M 384.78 163.26 382.58 166 
M 353.48 206.46 351.2 209.4 
M 348.7 212.27 346.01 215.06 
M 408.58 139.96 398.58 151.84 387.02 166.46 
M 359.76 203.13 357.71 206.17 
M 408.58 145.31 402.92 152.21 396.1 160.99 
M 393.48 164.35 391.35 167.03 
M 364.4 202.24 363.94 202.92 
M 408.58 150.57 395.49 167.77 
M 408.58 156.13 403.34 163.56 399.7 168.33 
M 372.4 202.98 369.05 207.45 
M 408.58 162.24 403.41 169.42 
M 408.58 168.51 407.4 170.1 
M 245.51 71.88 267.79 30 268.58 30.39 248.86 72.17 
M 258.46 69.71 272.88 42.1 273.67 42.48 261.64 70.3 
M 271.6 69.33 280.09 53.66 280.89 54.03 274.73 69.97 
M 284.79 69.07 289.33 63.1 290.1 63.52 287.73 70.11 
M 302.33 73.99 303.67 74.82 
M 266.55 34.68 266.62 37.43 267.17 39.95 267.71 41.08 268.44 42.12 269.34 43.08 271.44 44.86 
M 272.44 45.33 273.02 48.17 273.45 49.49 274.04 50.71 274.8 51.81 276.8 53.67 279.24 55.23 
M 280.25 55.69 281.4 58.3 282.91 60.52 283.87 61.41 284.97 62.14 286.19 62.74 288.88 63.7 
M 289.85 64.22 292.13 67.41 293.37 68.86 294.73 70.17 296.21 71.32 299.54 73.13 303.2 74.53 
M 266.55 36.07 266.81 38.73 267.17 39.95 267.71 41.08 268.44 42.12 270.36 43.99 
M 263.49 44.33 263.68 46.37 263.96 47.31 264.93 48.97 266.4 50.4 
M 260.42 52.6 260.55 54.02 261.03 55.27 262.44 56.82 
M 272.7 46.77 273.45 49.49 274.04 50.71 274.8 51.81 275.72 52.79 277.99 54.47 
M 270.51 54.97 271.01 56.74 271.39 57.53 272.48 58.88 273.96 59.97 
M 185.24 166.38 204.99 165.19 210.46 164.67 215.86 164.47 220.71 163.78 226.2 163.52 231.25 163.05 234 163.08 236.88 163.39 245.52 163.06 258.73 161.79 263.53 162.09 265.87 162.01 277.2 161.17 279.75 161.47 285.29 161.15 297.88 161.69 303.12 161.39 306.04 161.53 311.03 161.34 313.74 161.39 319.19 162.05 322.01 162.18 324.61 161.73 326.63 161.79 328.64 162.04 331.58 161.85 334.53 162.43 337.17 163.24 340.11 163.11 343.44 163.28 345.77 163.23 348.54 163.5 353.97 163.61 356.27 163.91 359.41 163.79 362.03 164.07 365.09 164.71 367.6 164.95 369.84 165.41 372.47 165.42 380.46 166.25 382.71 165.98 385.52 166.21 390.46 166.84 397.99 168.31 400.64 168.34 403.28 169.39 406.24 170.03 413.83 170.42 415.9 170.23 421.74 171.55 429.48 173.02 433.06 173.37 436.06 173.37 438.1 173.91 446.52 174.21 449.45 175.54 451.82 177.06 454.73 177.37 456.92 177.24 462.15 178.18 464.19 178.22 466.05 178.94 467.16 179.7 433.2 190.85 430.31 191.07 427.22 191.07 424.94 191.9 422.33 192.39 417.68 193.95 414.89 194.26 410.12 195.7 407.57 196.26 404.82 196.6 401.83 196.72 396.33 197.34 393.53 197.49 391.42 198.34 386.8 199.64 378.74 200.45 373.02 200.65 365.47 201.97 363.13 202.56 360.21 202.55 357.52 202.76 352.43 203.49 349.66 203.63 344.56 204.34 341.79 204.49 334.33 205.75 328.96 206.05 326.4 205.92 317.76 204.6 313.04 204.75 305.36 204.38 297.98 204.3 295.04 203.79 292.44 203.53 289.25 202.67 286.39 202.14 284.24 202.33 281.4 201.82 276.77 201.86 274.05 201.48 269.17 201.27 266.42 200.85 260.6 199.64 257.51 198.68 254.95 198.24 235.53 195.85 232.68 195.13 229.08 194.54 195.19 185.35 191.31 182.75 188.52 181.76 186.18 180.47 184.25 179.64 
M 185.22 167.92 194.32 167.87 228.89 166.85 234.16 167.1 242.29 167.05 247.54 167.35 250.09 167.18 257.96 167.04 260.76 167.14 263.68 167 269.04 167.45 277.09 167.11 287.44 167.94 289.84 167.85 292.91 168.51 298.21 169.18 304.33 168.73 306.71 169.28 309.02 169.53 313.95 169.52 316.61 170.19 319.47 170.64 322.02 170.67 326.61 171.43 328.96 171.36 334.21 172.72 337.25 173.27 342.52 173.69 345.35 173.69 350.92 174.4 353.89 174.57 356.49 174.87 361.27 175.86 364.37 176.16 371.91 178.28 377.24 178.98 381.87 180.39 384.12 180.76 388.73 181.87 391.56 182.17 395.13 181.88 400.83 182.5 403.02 183.48 406.85 185.89 410.21 186.27 416.79 185.55 419.53 185.98 
M 185.13 169.41 194.36 169.8 216.32 170.08 221.57 170.5 224.25 170.41 229.01 170.72 231.57 170.56 237.19 170.76 242.32 170.73 250.01 172.26 255.51 171.98 263.61 172.5 269.25 173.28 271.87 173.07 277.01 173.54 279.52 173.94 281.72 174.62 290.11 175.25 292.98 175.91 295.85 176.04 298.23 176.34 303.99 176.5 306.61 176.85 309.43 177.76 312.01 179.01 314.82 179.35 317.07 179.37 322.33 180.36 324.35 180.44 328.62 181.98 334.23 182.81 336.49 183.7 338.91 184.29 341.9 184.94 349.93 186.17 354.76 187.87 357.01 188.4 360.06 188.59 368.56 189.85 371.21 189.91 374.68 190.34 376.78 191.79 379.02 192.95 381.26 193.85 383.77 194.5 386.31 194.69 389.34 195.43 392.29 196.45 396.36 196.88 
M 186.28 171.05 197.18 171.96 205.51 172.27 210.84 172.99 216.28 173.31 218.84 173.68 224.2 174.14 234.49 174.69 237.33 175.14 245.08 175.44 250.28 176.49 255.94 177.02 258.14 177.54 260.81 177.7 263.43 178.65 266.38 179.26 271.62 179.77 276.19 179.94 278.87 180.5 284.33 182.05 289.47 183.17 292.28 184.04 295.14 184.71 300.69 184.88 303.08 185.18 305.73 185.8 311.15 188.25 314.03 189.09 316.3 189.41 320.43 191.41 322.99 192.07 326.11 192.55 333.66 194.8 336.56 194.48 339.65 194.83 342.02 195.75 346.12 196.68 353.18 199.9 
M 184.86 172.47 197.49 174.14 202.72 174.36 205.55 174.71 208.33 175.09 210.72 175.8 218.85 176.54 224.67 177.41 227.09 178.11 229.42 178.45 232.18 178.57 240.18 179.95 242.67 180.03 245.63 180.65 250.67 181.19 253.23 181.83 255.52 182.7 260.47 184.03 263.48 185.02 267.71 186.87 270.43 187.01 273.68 186.94 276.66 187.31 279.32 187.86 283.19 189.55 285.93 190.51 293.34 193.53 296.02 194.22 298.7 194.44 301.79 194.45 305.01 195.21 
M 188.95 174.66 194.72 175.75 205.62 177.4 215.87 179.46 218.87 179.77 221.41 180.27 224.21 181.36 226.79 181.73 231.87 183.02 234.69 183.57 239.88 184.87 244.97 186.41 
M 184.58 175.54 194.74 177.76 199.99 179.3 202.9 179.84 210.67 181.71 215.8 182.67 221.19 184.26 223.78 185.67 226.3 186.18 231.35 188.25 236.51 189.84 240.78 192.34 243.07 193.36 244.96 194.57 246.97 195.61 
M 188.74 178.4 191.62 179.13 194.33 180.18 196.81 181.56 202.32 183.03 205.3 184.25 208.1 185.13 210.24 186.11 215.87 187.24 218.33 188.35 220.16 189.8 
M 237.46 238.94 241.7 245.42 251 272.16 249.6 274.45 246.61 275.15 242.98 273.48 239.39 271.48 236.93 270.67 235.76 271.78 233.77 271.93 229.92 268.07 227.84 264.94 222.01 254.11 213.54 239.76 212.9 233.51 209.09 227.67 
M 233.38 237.35 235.2 241.07 237.07 244.18 239.08 249.68 240.63 252.83 244.9 259.08 245.81 261.64 
M 229.29 235.76 230.44 239.25 233.11 244.33 234.3 247.52 236.29 253.98 239.25 260.46 242.62 266.24 243.39 268.31 
M 225.25 234.08 228.22 240.54 228.7 243.28 231.4 248.72 231.65 252.21 232.23 255.38 233.61 258.25 234.78 261.17 235.46 263.72 
M 221.22 232.35 223 236.03 224.6 238.82 226.1 244.15 228.25 249.19 228.58 252.9 229.41 256.8 229.64 260.22 
M 217.17 230.68 219.65 237.18 221.02 240.03 222.73 244.91 224.19 247.65 224.79 250.48 225.84 253.69 228 262.01 228.76 262.79 
M 213.06 229.15 215.02 232.61 216.75 239.08 217.33 242.22 218.32 244.62 218.78 247.44 
M 360.41 218.02 363.46 222.61 366.17 225.37 368.9 226.88 364.79 227.83 360.13 230.09 358.75 232.42 356.83 234.21 355.2 236.26 352.74 237.3 349.91 237.98 348.62 240.39 347.25 242.55 344.78 243.81 342.76 245.5 341.44 247.9 340.69 250.85 338.99 252.87 336.95 254.55 334.73 256.05 330.05 258.81 328.49 264.64 326.97 266.77 322.93 270.02 320.11 274.44 319.39 276.49 316.05 280 314.82 278.25 314.01 276.28 313.37 273.08 312.2 270.1 308.07 264.85 306.35 263.15 304.6 259.61 301.65 254.55 296.68 246.71 294.21 243.14 
M 356.55 220.1 360.54 224.26 363.12 227.85 
M 352.69 222.17 357.14 225.89 359.77 228.99 
M 348.8 224.18 352.96 229.1 
M 344.88 226.14 349.04 230.96 
M 340.95 228.1 347.89 235.18 
M 337.03 230.04 341.71 233.87 344.44 236.94 346.96 238.12 
M 333.1 231.99 340.42 238.1 342.86 241.24 346.02 242.9 
M 329.03 233.61 333.26 237.26 336.22 239.54 338.77 242.41 340.92 245.43 
M 324.91 235.12 328.79 238.68 331.18 241.3 334.06 243.6 337.43 248.56 
M 320.77 236.55 324.77 240.05 327.36 242.91 329.34 245.57 330.36 247.31 331.56 249.87 
M 316.59 237.89 320.24 241.5 322.7 244.29 324.3 246.71 326.38 248.29 327.98 250.96 328.92 253.91 
M 312.41 239.2 315.75 242.55 317.92 244.98 321 250.02 
M 308.2 240.41 311.2 243.59 314.04 245.55 316.08 247.51 317.72 250.75 318.84 254.35 320.29 256.7 321.2 259.39 322.92 261.69 
M 303.99 241.62 309.1 247.13 311.61 249.49 313.85 252.46 316.47 258.1 317.99 260.12 
M 299.66 242.32 302.02 246 303.49 248.89 305.32 250.96 311.16 260.03 312.75 261.99 314.84 263.98 318.24 268.85 318.04 270.7 318.09 273.88 
M 407.7 134.21 413.26 132.1 416 131.33 418.09 130.3 424.56 125.38 431.33 120.86 433.63 119.8 435.58 118.62 446.21 113.74 448.23 111.92 449.27 111.64 451.41 109.83 458.78 105.08 461 102.93 463.5 101.32 465.74 100.3 467.12 100.17 469.75 99.24 472.65 99.03 456.57 113.88 455.55 116.04 454.98 121.82 454.12 124.57 449.82 130.15 448.74 134.92 447.81 137.46 447.57 140.42 447.42 145.76 447.91 148.84 448.1 154.59 446.58 156.09 444.25 157.46 443.33 160.15 443.26 163.33 442.82 165.51 445.16 168.17 446.72 170.71 448.03 173.38 447.6 174.7 
M 448.67 185.77 449.36 187.81 450.79 193.85 450.69 195.78 450.34 197.44 452.29 205.36 453.89 208.31 457.31 213.95 471.7 229.6 467.51 226.84 465.06 226.21 463.4 224.37 458.52 222.08 455.98 220.28 453.34 218.9 450.2 216.35 447.67 214.92 445.9 213.24 442.74 210.7 439.51 207.3 437.76 205.94 435.41 204.29 432.46 202.89 430.37 201.57 425.13 197.62 419.53 194.05 418.94 193.5 
M 407.7 136.75 410.78 136.09 413.59 135.05 419.2 133.48 420.99 132.31 423.38 131.29 428.09 127.85 430.37 126.44 436.13 124.69 
M 407.7 139.3 410.95 139.03 413.92 138.08 417.08 137.49 419.56 136.47 421.77 136.07 424.57 135.24 433.79 129.96 
M 407.7 141.84 410.95 141.99 416.66 140.39 419.88 139.69 422.34 138.69 424.64 138.4 427.4 137.29 429.48 135.2 432.17 133.36 436.62 131.86 
M 416.21 143.3 419.22 142.55 422.1 141.25 424.6 141.29 426.87 140.92 432.52 138.07 435.39 135.85 437.99 135.86 
M 411.36 147.13 417.05 146.48 419.76 145.54 426.94 144.43 429.32 143.05 433.27 142.23 
M 414.5 149.27 417.27 149.26 420.26 149.02 422.8 149.22 425.62 149.13 428.46 148.34 431.22 147.17 433.95 146.37 436.83 145.18 
M 411.07 152.3 417.44 151.87 420.87 151.95 423.23 152.56 425.82 152.9 
M 417.6 155.47 420.6 154.97 426.31 156.21 
M 411.37 158.13 414.93 158.61 427.19 158.46 
M 418.45 161.87 421.22 161.91 427.98 161.57 433.58 163.25 
M 414.56 163.66 418.05 164.16 423.31 166.11 426.94 165.94 429.03 166.22 431.86 168 434.32 167.89 437.13 168.41 440.28 168.5 
M 417.84 166.87 420.46 167.87 425.44 169.37 430.77 169.83 
M 411.69 168.88 417.61 170.19 422.4 171.68 
M 407.7 169.84 408.51 170.17 
M 432.08 190.93 433.93 192 438.9 193.75 442.16 194.09 
M 426.96 191.17 430.98 193.75 433.86 195 436.3 195.83 437.89 197.55 440.14 199.51 443.02 200.09 445.63 201.48 
M 422.51 192.36 423.15 192.93 425.72 194.5 428.69 195.87 430.51 197.76 433.23 199.17 436.31 200.53 438 201.81 439.93 203.85 442.57 205.01 444.3 207.52 
M 379.33 116.95 380.86 115.6 382.62 114.49 384.67 113.66 387.03 113.14 389.7 112.94 392.73 113.09 396.1 113.59 399.73 114.34 403.53 115.26 407.7 116.56 412.15 118.17 416.43 120.55 419.3 123.37 420.08 125.87 418.66 127.56 415.49 128.1 407.92 127.35 404.59 127.39 401.56 127.73 398.25 128.51 
M 383.65 117.58 384.67 117.16 387.03 116.64 389.7 116.44 392.73 116.6 396.1 117.09 399.73 117.84 405.61 119.42 
M 409.92 120.87 412.15 121.67 414.29 122.87 
M 93.91 154.28 94.78 152.37 96.7 149.7 101.76 143.58 104.91 141.2 113.84 135.38 118.79 131.96 124.11 128.67 129.95 125.5 142.77 120.21 154.87 115.59 160.47 113.68 171.24 110.54 174.77 115.51 176.5 120.74 178.47 125.94 180.65 131.12 182.39 136.35 183.53 141.63 185.19 152.25 185.05 157.65 185.26 163.01 185.22 168.4 184.23 179.27 184.58 184.62 184.62 195.39 184.16 200.82 183.05 206.31 180.75 211.84 168.18 211.1 159.08 209.58 150.87 207.73 143.08 205.03 136.11 201.86 124.07 195.11 118.28 191.32 113 187.43 108.71 183.36 
M 160.72 141.28 161.14 145.82 159.79 154.41 158.81 158.27 156.32 165.33 156.33 168.55 156.57 171.62 158.16 178.3 158.85 182.32 158.87 186.99 150.51 187.12 144.46 186.9 138.67 186.49 132.73 185.3 127.09 183.46 121.76 180.97 116.9 178.26 
M 106.13 181.02 100.67 172.67 97.27 167.05 94.78 163.39 91.63 157.58 91.56 155.44 93.26 154.11 95.4 154.68 96.64 156.47 102.77 170.71 105.81 176.79 108.82 183.61 
M 108.16 184.2 95.16 175.3 84.49 167.47 82.98 166.03 82.86 163.88 84.39 162.27 86.56 162.47 88.21 163.91 99.29 174.72 108.71 183.47 
M 123.67 163.33 119.82 157.93 117.92 151.57 118.2 144.94 120.61 138.76 124.9 133.7 130.6 130.3 137.09 128.94 143.67 129.76 149.63 132.67 154.33 137.37 157.24 143.33 158.06 149.91 156.7 156.4 153.3 162.1 148.24 166.39 142.06 168.8 135.43 169.08 129.07 167.18 123.67 163.33 
M 151.04 139.71 153.38 144.48 154.03 149.74 152.94 154.94 150.23 159.5 146.18 162.93 141.23 164.86 135.93 165.08 130.84 163.56 126.52 160.48 
M 131.56 154.12 130.02 151.96 129.26 149.42 129.37 146.77 130.34 144.29 132.05 142.27 134.33 140.91 136.93 140.37 139.57 140.69 141.95 141.86 143.83 143.74 144.99 146.12 145.32 148.75 144.78 151.35 143.42 153.63 141.39 155.35 138.92 156.31 136.27 156.42 133.72 155.66 131.56 154.12 
M 131.25 153.67 132.04 154.46 
M 129.69 149.74 136.36 156.42 
M 133.27 150.96 138.63 156.32 
M 132.43 147.75 140.41 155.73 
M 137.33 150.28 141.93 154.89 
M 137 147.59 143.21 153.8 
M 137.94 146.16 144.16 152.38 
M 137.02 142.88 144.9 150.75 
M 137.43 140.92 145.31 148.8 
M 140.75 141.87 144.98 146.1 
M 93.98 154.13 94.21 154.36 
M 96.89 157.05 98.44 158.6 
M 95.91 150.8 98.71 153.6 
M 98.2 147.83 103.13 152.76 
M 100.58 144.96 104.06 148.43 
M 103.3 142.41 107.82 146.94 
M 106.4 140.25 109.13 142.98 
M 109.6 138.2 114.28 142.88 
M 112.76 136.1 116.2 139.53 
M 115.89 133.97 118.69 136.76 
M 119.01 131.83 123.05 135.87 
M 122.26 129.81 125.61 133.16 
M 125.57 127.87 128.97 131.27 
M 128.98 126.02 132.8 129.84 
M 132.61 124.39 137.11 128.89 
M 136.32 122.84 140.9 127.41 
M 140.06 121.32 144.1 125.35 
M 143.8 119.8 147.29 123.29 
M 147.57 118.31 150.55 121.29 
M 151.39 116.87 156.38 121.86 
M 155.25 115.47 159.28 119.5 
M 159.17 114.13 164 118.96 
M 163.19 112.89 167.84 117.54 
M 167.28 111.72 170.4 114.84 
M 122.18 129.87 123.18 130.1 
M 174.24 131.35 173.31 133.33 171.72 135.88 171.65 136.46 171.77 136.88 172.3 137.39 173.23 137.9 
M 111.5 142.82 109.81 142.75 107.52 143.76 105.77 143.79 104.98 144.06 
M 133.16 196.64 132.83 195.57 133.17 194.39 135.47 190.99 136.1 189.59 136.5 189.08 137.95 188 
M 118.05 158.09 117.43 156.35 116.87 155.57 115.53 154.54 114.4 154.41 113.59 154.62 113.15 155.07 112.81 155.95 
M 98.59 161.03 98.13 159.3 96.69 156.28 
M 159.03 181.54 158.73 180.41 158.31 179.56 156.58 177.74 155.23 175.14 153.78 173.39 
M 164.93 165.77 163.5 163.56 163.08 162.45 163.31 161.46 164.01 160.51 
M 156.01 191.47 154.89 190.32 154.63 189.4 155.08 188.11 155.82 187.06 156.66 186.22 
M 115.96 145.35 114.71 145.31 112.52 144.57 110.36 144.27 
M 126.09 127.59 127.36 127.92 127.9 127.64 
M 146.87 203.07 148.22 204.24 149.47 204.68 151.54 203.96 153.74 203.83 155.11 203.2 
M 119.59 161.27 119.65 159.92 120.06 158.27 
M 130.23 192.4 129.52 192.68 128.36 192.68 126.4 191.84 124.92 190.54 123.77 189.27 123.47 188.75 123.35 188.12 
M 119.52 175.46 118.14 172.59 116.36 169.81 116.48 169.18 117.53 168.32 
M 157.21 153.97 160.16 154.06 160.68 154.17 162.31 155.03 162.85 155.09 
M 167.35 138.19 167.73 139.74 168.14 140.41 172.06 143.33 172.72 143.97 173.21 144.85 
M 113.03 138.63 112.43 138.11 112.01 137.98 109.69 138.14 
M 106.18 140.39 105.84 140.87 105.19 141.34 
M 146.7 180.19 145.97 180.64 140.38 181.65 
M 124.35 133.76 124.71 133.92 
M 128.56 187.45 129.33 186.96 131.91 186.06 133.56 184.38 135.67 182.92 
M 153.47 161.83 152.98 163.28 
M 149.22 201.42 150.31 201.72 154.35 201.73 155.02 201.4 155.21 200.87 155.16 200.41 
M 97.97 157.7 96.84 155.52 95.2 154.06 94.47 153.05 
M 126.61 173.09 125.56 174.49 124.88 175.1 124.78 175.57 
M 169.35 149.62 168.42 151.4 168.37 152.77 168.74 153.9 
M 155.97 157.62 156.02 157.57 
M 143.66 127.76 144.39 126.32 145.8 122.82 146.17 121.39 146.22 120.02 145.87 118.98 
M 160.71 171.38 158.63 171.04 157.03 171.15 153.24 170.58 152.6 170.63 151.08 171.2 150.19 171.28 
M 148.05 166.47 147.8 167.03 147.49 169.31 147.11 170.57 145.42 172.97 
M 162.86 133.93 160.99 133.4 158.92 132 157.5 131.62 156.63 131.53 151.99 131.91 
M 127.31 181.96 128.01 178.75 128.87 178.4 131.26 177.96 
M 171.55 207.52 170.91 205.47 170.19 204.46 167.84 202.09 163.83 199.56 160.75 198.47 
M 111.93 152.8 111.07 152.2 110.36 151.1 110.07 150.45 109.73 148.15 109.1 146.94 108.47 146.28 
M 113.86 172.29 113.89 170.81 114.84 169.62 
M 108.92 165.47 111.1 164.03 113.83 163.22 115.66 162.29 116.35 161.08 116.5 160.3 116.22 157.16 
M 154.58 123.27 153.33 121.52 151.96 120.22 151.13 119.62 149.52 118.85 148.4 117.98 
M 121.35 193.33 120.45 190.53 120.39 189.75 119.9 188.08 119.5 187.35 117.51 185.56 
M 165.62 127.92 164.63 128.77 163.69 129 162.16 128.78 159.24 128.81 158.44 128.65 157.81 128.39 156.87 127.59 
M 110.92 187.45 110.45 189.94 110.39 192.36 110.72 194.79 111.42 197.17 114.52 204.36 116.28 209.43 116.92 212.05 117.36 214.71 117.56 217.4 117.51 220.11 117.16 222.78 114.91 233.09 113.57 238.21 112.7 240.72 111.64 243.15 110.4 245.49 104.55 254.25 102.06 258.88 104.47 254.21 109.98 245.26 111.13 242.92 112.09 240.49 112.85 238 113.99 232.9 115.86 222.58 116.1 220.03 116.06 217.47 115.78 214.93 115.27 212.42 114.57 209.95 112.71 205.14 109.3 197.96 108.44 195.32 107.96 192.55 107.92 189.72 108.33 187.01 
M 111 188.05 110.65 188.89 
M 108.17 193.79 107.22 195.28 105.41 197.43 103.24 199.26 100.73 200.59 98.04 201.41 95.27 201.77 92.49 201.68 89.76 201.12 87.18 200 84.94 198.37 81.23 194.48 73.45 183.84 66.94 175.57 63.94 171.23 62.57 168.98 61.36 166.64 59.4 161.76 61.44 166.6 62.74 168.89 64.18 171.08 67.31 175.28 74.11 183.31 82.23 193.62 85.89 197.21 87.95 198.6 90.24 199.5 92.67 199.91 95.15 199.9 97.59 199.49 99.91 198.69 102 197.49 103.79 195.86 105.3 193.92 106.57 191.77 108.16 188.12 
M 91.97 201.57 88.88 201.63 86.14 201.18 83.54 200.22 81.18 198.86 76.86 195.85 74.64 194.57 72.28 193.61 69.8 193.06 67.26 193.03 64.74 193.5 62.32 194.37 60.05 195.61 57.98 197.17 56.11 198.99 50.98 204.97 47.34 208.77 50.91 204.91 55.84 198.74 57.67 196.82 59.74 195.14 62.04 193.77 64.53 192.78 67.17 192.18 69.89 192.12 72.57 192.62 75.11 193.55 77.49 194.81 81.92 197.66 84.15 198.85 86.7 199.65 
M 91.87 199.77 93.95 199.4 96.35 198.66 98.61 197.64 100.66 196.25 102.54 194.58 105.87 190.79 107.23 188.68 108.44 186.4 
M 96.63 176.34 101.41 180.69 105.6 184.1 109.96 187.16 114.53 189.93 124.07 195.11 
M 103 181.99 104.03 182.17 104.96 182.64 105.14 182.94 105.13 183.72 
M 176.86 121.68 178.09 122.91 
M 172.11 109.92 180.48 118.29 
M 176.42 107.21 181.87 112.67 
M 180.73 104.51 187.24 111.02 
M 185.01 101.78 192.41 109.18 
M 189.29 99.04 197.19 106.95 
M 193.7 96.44 200.4 103.15 
M 198.15 93.88 206.76 102.49 
M 202.7 91.42 209.36 98.08 
M 207.3 89.01 217.34 99.05 
M 212.01 86.7 221.14 95.83 
M 216.78 84.46 224.19 91.87 
M 221.51 82.17 231.85 92.52 
M 226.2 79.86 236.42 90.07 
M 231.12 77.76 240.79 87.43 
M 236.16 75.79 243.34 82.96 
M 241.52 74.13 250.64 83.25 
M 246.97 72.58 253.02 78.62 
M 252.74 71.33 261.62 80.21 
M 258.86 70.43 267.68 79.26 
M 265.56 70.12 275.21 79.77 
M 272.45 70 278.26 75.81 
M 279.25 69.79 287.39 77.92 
M 286.32 69.85 296.48 80 
M 295.16 71.67 300.78 77.29 
M 306.71 76.21 315.96 85.46 
M 320.41 82.9 326.35 88.83 
M 334.44 89.91 339.87 95.34 
M 349.15 97.61 358.12 106.58 
M 368.86 110.31 375.16 116.6 
M 387.4 121.83 396.37 130.8 
M 405.39 132.81 414.49 141.91 
M 184.53 208.75 185.31 210.32 
M 186.1 211.89 186.88 213.46 
M 184.01 201.58 187.62 208.81 
M 184.53 196.48 185.23 197.89 
M 187.58 202.59 192.29 212 
M 185.19 191.67 195.38 212.05 
M 184.56 184.27 185.14 185.44 
M 189.06 193.28 198.47 212.09 
M 199.26 213.66 200.04 215.23 
M 186.65 182.32 187.44 183.89 
M 191.36 191.73 200.77 210.55 
M 201.55 212.12 202.33 213.68 
M 193.65 190.18 197.57 198.02 
M 198.36 199.59 203.06 209 
M 196.73 190.2 203 202.75 
M 203.79 204.32 205.36 207.45 
M 200.61 191.83 206.1 202.81 
M 205.31 195.09 206.1 196.66 
M 193.55 165.43 193.8 165.94 
M 183.35 138.89 184.13 140.46 
M 196.68 165.55 196.77 165.74 
M 176.28 118.63 182.56 131.17 
M 183.34 132.74 184.12 134.31 
M 198.24 162.54 199.7 165.47 
M 222.54 211.15 223.33 212.72 
M 180.19 120.3 182.54 125 
M 183.32 126.57 185.68 131.28 
M 186.46 132.84 187.24 134.41 
M 200.57 161.07 202.69 165.3 
M 219.39 198.71 220.18 200.27 
M 221.74 203.41 222.53 204.98 
M 223.31 206.55 224.88 209.68 
M 226.45 212.82 228.02 215.96 
M 178.6 110.99 179.39 112.56 
M 184.09 121.97 186.44 126.67 
M 187.23 128.24 188.01 129.81 
M 221.73 197.24 227.21 208.22 
M 228 209.79 231.14 216.06 
M 178.98 105.61 183.29 114.23 
M 207.6 162.84 208.38 164.41 
M 224.06 195.78 231.12 209.89 
M 232.69 213.02 233.47 214.59 
M 246.02 239.68 247.26 242.17 
M 181.31 104.14 181.7 104.92 
M 182.49 106.49 186.41 114.33 
M 226.39 194.3 235.02 211.55 
M 235.8 213.12 236.59 214.69 
M 248.35 238.21 250.68 242.87 
M 183.64 102.65 189.52 114.41 
M 229.63 194.63 238.13 211.64 
M 239.7 214.77 240.48 216.34 
M 249.89 235.16 254.09 243.56 
M 185.96 101.17 191.06 111.36 
M 232.98 195.2 240.45 210.15 
M 241.24 211.72 242.02 213.29 
M 253.78 236.81 255.35 239.95 
M 256.14 241.51 257.38 244 
M 188.29 99.68 194.95 113.01 
M 236.41 195.92 238.86 200.82 
M 239.64 202.39 244.35 211.8 
M 256.11 235.32 258.46 240.03 
M 259.24 241.6 260.4 243.9 
M 190.62 98.22 192.58 102.14 
M 193.37 103.7 196.5 109.98 
M 204.34 125.66 205.91 128.79 
M 206.7 130.36 207.48 131.93 
M 240.41 197.79 245.9 208.77 
M 262.36 241.7 263.09 243.14 
M 193 96.84 196.53 103.9 
M 197.32 105.47 198.89 108.6 
M 203.59 118.01 211.43 133.69 
M 242.95 196.74 245.93 202.69 
M 246.71 204.26 247.5 205.83 
M 195.78 96.26 197.35 99.39 
M 199.7 104.1 200.48 105.66 
M 205.97 116.64 214.6 133.89 
M 228.71 162.12 229.29 163.28 
M 247.53 199.75 248.31 201.32 
M 197.77 94.1 198.95 96.45 
M 209.14 116.84 216.19 130.95 
M 216.98 132.52 217.76 134.09 
M 249.91 198.38 250.69 199.95 
M 211.53 115.49 218.59 129.6 
M 219.37 131.17 220.16 132.74 
M 234.27 160.96 235.4 163.23 
M 253.09 198.6 253.87 200.17 
M 213.96 114.21 215.53 117.35 
M 216.31 118.92 221.8 129.89 
M 238.27 162.83 238.5 163.29 
M 256.07 198.43 256.3 198.89 
M 257.09 200.46 257.87 202.03 
M 219.53 119.21 222.67 125.48 
M 234.51 143.03 235.29 144.6 
M 236.07 146.16 237.64 149.3 
M 283.12 240.25 285.04 244.09 
M 236.17 140.22 240.88 149.63 
M 269.1 206.08 273.81 215.49 
M 274.59 217.06 275.37 218.63 
M 276.16 220.2 276.94 221.76 
M 285.57 239.01 287.95 243.79 
M 237.09 135.92 239.44 140.62 
M 240.22 142.19 245.71 153.17 
M 270.02 201.78 270.8 203.35 
M 271.59 204.92 278.64 219.03 
M 286.48 234.71 290.87 243.49 
M 238.79 133.18 239.57 134.75 
M 240.36 136.32 248.2 152 
M 273.29 202.18 281.91 219.43 
M 288.18 231.98 293.79 243.19 
M 242.06 133.58 248.33 146.13 
M 249.11 147.7 250.68 150.83 
M 256.17 161.81 256.26 161.99 
M 276.56 202.58 284.4 218.26 
M 290.67 230.81 296.65 242.78 
M 244.53 132.39 252.37 148.08 
M 257.07 157.48 259.24 161.8 
M 279.3 201.93 288.44 220.21 
M 295.49 234.32 299.5 242.34 
M 232.09 101.39 232.88 102.95 
M 246.99 131.18 253.26 143.73 
M 254.05 145.29 255.62 148.43 
M 259.54 156.27 262.39 161.97 
M 282.4 202 289.33 215.86 
M 297.17 231.54 299.52 236.25 
M 300.31 237.81 302.36 241.91 
M 232.99 97.04 237.69 106.45 
M 251.8 134.67 254.94 140.94 
M 255.73 142.51 257.29 145.65 
M 261.21 153.49 265.48 162.03 
M 285.58 202.22 289.44 209.94 
M 291.01 213.08 291.79 214.65 
M 301.99 235.03 303.55 238.17 
M 304.53 240.12 305.12 241.3 
M 233.1 91.12 240.15 105.23 
M 255.05 135.03 255.83 136.59 
M 263.68 152.28 268.49 161.91 
M 288.83 202.59 290.33 205.59 
M 236.41 91.62 245.04 108.87 
M 266.99 152.78 268.56 155.91 
M 270.13 159.05 271.38 161.54 
M 299.92 218.64 300.71 220.21 
M 301.49 221.77 304.63 228.05 
M 238.2 89.05 247.61 107.87 
M 272.7 158.05 273.48 159.62 
M 300.14 212.93 301.71 216.07 
M 302.49 217.64 304.06 220.77 
M 304.84 222.34 306.41 225.48 
M 307.2 227.05 308.76 230.18 
M 241.55 89.62 248.61 103.73 
M 302.71 211.93 304.28 215.07 
M 305.06 216.64 308.2 222.91 
M 308.98 224.48 312.9 232.32 
M 244.12 88.62 249.61 99.6 
M 250.39 101.16 251.18 102.73 
M 303.71 207.8 306.06 212.5 
M 306.84 214.07 313.12 226.61 
M 313.9 228.18 314.69 229.75 
M 247.59 89.42 249.16 92.56 
M 249.94 94.12 250.72 95.69 
M 265.62 125.49 266.41 127.06 
M 267.19 128.62 267.97 130.19 
M 281.3 156.85 282.09 158.42 
M 306.39 207.03 315.8 225.85 
M 316.59 227.42 318.15 230.55 
M 266.74 121.58 268.31 124.72 
M 269.87 127.86 270.66 129.43 
M 271.44 130.99 273.01 134.13 
M 283.2 154.52 283.99 156.08 
M 284.77 157.65 286.56 161.22 
M 308.18 204.47 308.29 204.7 
M 309.08 206.26 320.05 228.22 
M 270.21 122.39 275.7 133.36 
M 284.32 150.61 285.1 152.18 
M 285.89 153.75 289.73 161.42 
M 311.34 204.65 311.76 205.5 
M 312.55 207.07 321.17 224.32 
M 270.58 117 279.2 134.25 
M 287.83 151.49 292.87 161.57 
M 314.49 204.81 315.27 206.38 
M 316.06 207.95 323.11 222.06 
M 323.9 223.63 324.68 225.2 
M 273.02 115.74 280.86 131.42 
M 288.7 147.1 295.94 161.58 
M 317.46 204.62 323.99 217.67 
M 324.77 219.24 325.55 220.81 
M 326.34 222.38 327.12 223.94 
M 263.61 90.77 265.17 93.91 
M 266.74 97.05 267.53 98.61 
M 276.15 115.86 282.42 128.41 
M 291.83 147.23 292.62 148.79 
M 293.4 150.36 299.02 161.6 
M 323.19 209.95 325.55 214.66 
M 327.12 217.79 327.9 219.36 
M 265.17 87.76 266.73 90.9 
M 268.3 94.03 270.65 98.74 
M 281.63 120.69 285.55 128.53 
M 295.75 148.92 302 161.43 
M 265.94 83.18 266.73 84.74 
M 267.51 86.31 273.78 98.86 
M 283.98 119.24 284.76 120.81 
M 285.55 122.38 286.33 123.95 
M 299.66 150.61 300.44 152.17 
M 302.01 155.31 303.58 158.45 
M 256.14 57.42 256.53 58.21 
M 267.5 80.16 268.29 81.73 
M 269.07 83.3 278.48 102.12 
M 270.63 80.28 274.55 88.12 
M 275.34 89.69 280.04 99.1 
M 273.76 80.41 274.55 81.97 
M 276.11 85.11 281.6 96.09 
M 261.21 49.17 262.78 52.3 
M 263.56 53.87 264.35 55.44 
M 276.11 78.96 277.68 82.1 
M 278.46 83.66 281.6 89.94 
M 283.16 93.07 283.95 94.64 
M 262.38 45.37 266.69 53.99 
M 267.48 55.56 268.26 57.13 
M 279.24 79.08 280.02 80.65 
M 283.16 86.92 283.94 88.49 
M 284.72 90.06 285.51 91.63 
M 296.49 113.58 297.27 115.15 
M 298.84 118.29 299.62 119.85 
M 264.33 43.14 272.17 58.82 
M 280.01 74.5 280.8 76.07 
M 285.5 85.48 286.29 87.04 
M 298.05 110.57 302.75 119.98 
M 303.54 121.54 305.1 124.68 
M 265.89 40.12 274.52 57.37 
M 275.3 58.94 276.09 60.51 
M 280.79 69.92 286.28 80.89 
M 298.04 104.42 306.66 121.67 
M 277.18 56.55 277.57 57.34 
M 280.7 63.61 281.49 65.18 
M 282.27 66.74 283.06 68.31 
M 283.84 69.88 285.41 73.02 
M 286.19 74.58 289.33 80.86 
M 300.31 102.81 308.15 118.49 
M 308.93 120.06 309.71 121.63 
M 284.05 64.16 292.28 80.62 
M 303.26 102.58 311.1 118.26 
M 311.88 119.82 312.66 121.39 
M 353.64 203.34 355.79 207.64 
M 356.57 209.21 357.36 210.78 
M 288.07 66.06 294.73 79.39 
M 305.71 101.34 312.76 115.46 
M 313.55 117.02 314.33 118.59 
M 326.09 142.11 329.23 148.39 
M 330.01 149.96 333.93 157.8 
M 356.5 202.92 359.81 209.54 
M 362.16 214.25 363.19 216.3 
M 293.72 71.23 298.03 79.85 
M 308.22 100.24 316.06 115.92 
M 329.39 142.58 335.66 155.12 
M 336.45 156.69 337.23 158.26 
M 359.41 202.61 362.32 208.44 
M 297.43 72.51 300.96 79.56 
M 312.72 103.09 316.64 110.93 
M 317.42 112.5 318.2 114.06 
M 331.53 140.72 339.37 156.4 
M 362.45 202.56 366.03 209.72 
M 366.82 211.29 367.54 212.74 
M 301.19 73.9 302.37 76.25 
M 305.5 82.53 307.86 87.23 
M 310.21 91.94 310.99 93.5 
M 314.91 101.34 315.7 102.91 
M 324.32 120.16 325.11 121.73 
M 332.95 137.41 333.73 138.98 
M 334.51 140.55 343.14 157.8 
M 365.25 202.03 366.66 204.84 
M 369.81 211.13 370.21 211.94 
M 306.99 79.36 313.26 91.91 
M 324.24 113.86 325.02 115.43 
M 325.81 117 328.16 121.7 
M 328.94 123.27 332.08 129.54 
M 336.78 138.95 345.41 156.2 
M 368.08 201.55 368.93 203.24 
M 309.4 78.04 316.45 92.15 
M 326.65 112.54 335.27 129.79 
M 339.19 137.63 344.68 148.61 
M 345.46 150.18 346.25 151.74 
M 347.03 153.31 348.6 156.45 
M 370.9 201.05 371.34 201.92 
M 312.98 79.07 315.73 84.56 
M 316.51 86.13 319.65 92.4 
M 329.06 111.22 337.68 128.47 
M 343.17 139.45 344.74 142.58 
M 345.52 144.15 349.44 151.99 
M 317.5 81.98 321.42 89.82 
M 331.62 110.21 339.46 125.89 
M 340.24 127.46 341.03 129.02 
M 348.08 143.14 348.87 144.7 
M 321.64 84.11 323.21 87.25 
M 333.4 107.64 342.02 124.88 
M 336.72 108.14 337.51 109.71 
M 338.29 111.28 342.21 119.12 
M 342.99 120.69 343.78 122.26 
M 345.35 125.39 346.13 126.96 
M 346.91 128.53 347.7 130.1 
M 348.48 131.67 350.83 136.37 
M 364.16 163.03 365 164.69 
M 341.6 111.76 344.73 118.03 
M 346.3 121.17 347.09 122.74 
M 347.87 124.31 354.14 136.85 
M 367.47 163.51 368.26 165.09 
M 348.03 118.48 355.08 132.59 
M 355.87 134.16 356.65 135.73 
M 369.98 162.39 371.49 165.42 
M 350.5 117.3 359.13 134.55 
M 368.54 153.37 370.11 156.5 
M 371.67 159.64 372.46 161.21 
M 352.2 114.56 361.61 133.38 
M 362.4 134.95 363.18 136.52 
M 368.67 147.49 369.45 149.06 
M 370.24 150.63 371.81 153.77 
M 372.59 155.34 376.51 163.18 
M 345.88 95.78 346.27 96.56 
M 354.9 113.81 365.09 134.2 
M 371.36 146.74 379.2 162.42 
M 357.59 113.06 359.16 116.2 
M 359.94 117.76 363.08 124.04 
M 363.86 125.6 367 131.88 
M 372.49 142.85 373.27 144.42 
M 374.05 145.99 382.68 163.24 
M 362.08 115.9 366.78 125.31 
M 367.57 126.88 368.35 128.45 
M 374.62 140.99 384.82 161.38 
M 365.05 115.72 366.62 118.85 
M 368.19 121.99 368.97 123.56 
M 379.17 143.94 387.01 159.63 
M 382.16 143.79 384.51 148.5 
M 385.3 150.07 387.65 154.77 
M 388.43 156.34 389.22 157.91 
M 383.59 140.52 385.94 145.22 
M 386.73 146.79 390.65 154.63 
M 396.92 167.18 397.42 168.18 
M 387.13 141.47 387.92 143.03 
M 388.7 144.6 391.84 150.88 
M 399.68 166.56 400.57 168.34 
M 382.71 126.48 384.28 129.62 
M 385.06 131.19 385.84 132.75 
M 401.53 164.12 404.27 169.6 
M 385.27 125.46 389.97 134.87 
M 390.75 136.44 391.54 138.01 
M 403.3 161.53 407.59 170.11 
M 386.53 121.85 393.59 135.96 
M 395.15 139.1 395.94 140.67 
M 407.7 164.19 410.72 170.24 
M 386.2 115.06 387.77 118.19 
M 388.55 119.76 389.92 122.5 
M 390.55 123.76 398.79 140.23 
M 410.55 163.75 413.88 170.42 
M 389.8 116.12 390.58 117.69 
M 391.37 119.26 394.36 125.23 
M 394.99 126.5 399.3 135.12 
M 400.09 136.69 402.44 141.4 
M 413.41 163.35 416.66 169.84 
M 393.61 117.61 398.58 127.55 
M 399.41 129.21 402.94 136.27 
M 394.48 113.2 395.26 114.77 
M 396.04 116.34 401.33 126.91 
M 403.8 131.86 405.76 135.78 
M 399.4 116.91 404.22 126.55 
M 401.28 114.53 402.06 116.09 
M 402.84 117.66 407.26 126.48 
M 405.59 117.01 406.37 118.58 
M 407.15 120.15 407.94 121.72 
M 408.72 123.28 409.51 124.85 
M 410.16 126.16 410.43 126.69 
"/></svg>