<svg xmlns="http://www.w3.org/2000/svg" width="520" height="320"><rect x="0" y="0" width="520" height="320" fill="floralwhite"/><rect x="10" y="10" width="500" height="300" stroke="black" stroke-width="1" fill="none"/><path stroke="black" stroke-width="1" fill="none" stroke-linecap="round" stroke-linejoin="round" d="
M 166.03 85.73 175.21 82.33 187.62 79.71 200.22 78.2 212.77 76.31 225.28 74.22 237.9 72.88 250.57 72.32 263.26 72.14 275.95 72.34 301.32 72.13 313.96 73.21 339.15 76.3 351.59 78.82 376.29 84.62 388.62 87.63 400.46 92.17 408.54 97.98 
M 408.54 208.21 401.6 212.9 389.52 216.79 364.64 221.77 339.92 227.5 327.3 228.78 314.62 229.39 301.94 229.77 289.25 229.67 276.57 229.93 263.92 230.99 251.26 231.83 238.58 231.54 226.01 229.83 213.66 226.92 189.31 219.77 176.87 217.24 175.72 217.13 
M 181.47 135.46 182.62 135.62 
M 194.09 135.43 197.66 135.24 
M 205.56 135.31 209.9 135.64 
M 223.56 137.02 231.29 138.51 236.26 139.29 240.6 139.39 244.73 139.22 248.67 138.83 250.48 138.47 
M 254.13 137.75 257.84 137.07 
M 261.61 136.43 263.5 136.11 266.83 135.06 269.9 133.74 273.32 132.77 275.31 132.58 
M 279.44 132.34 285.73 132.09 295.03 130.78 
M 299.01 130.58 303.28 130.74 
M 307.64 131.02 311.8 131.11 
M 319.41 130.61 323.35 130.5 
M 327.46 130.55 337.89 130.86 342.88 131.77 348.25 133 353.31 133.88 357.87 134.25 366.81 134.62 376.95 136.03 381.71 136.41 390.67 136.64 399.79 137.4 404.05 137.55 408.54 138.04 
M 184.59 85.67 183.05 86.95 180.31 89.8 179.17 91.47 
M 175.92 99.38 174.96 104.03 
M 183.6 185.96 186.64 194.09 
M 189.15 201.6 191.11 207.27 193.72 213.51 
M 195.48 217.63 197.54 222.18 
M 199.87 87.16 198.7 88.81 197.27 90.19 
M 188.99 98.71 187.85 100.36 187.04 102.35 
M 185.71 106.63 183.84 116.04 
M 192.11 177.33 194.84 183.49 197.05 189.72 
M 198.27 193.58 199.48 197.44 
M 202.27 205.44 205.76 215.3 208.31 221.45 
M 210.48 225.91 210.53 226 
M 214.04 87.13 213.31 89.23 211.63 93.19 209.69 96.86 207.38 100.14 206.04 101.59 
M 200.29 107.02 198.86 108.38 196.45 111.59 194.95 115.72 194.56 118.15 
M 192.54 127.44 191.02 131.59 
M 202.9 175.04 203.63 176.65 
M 207.51 186.04 210.03 193.99 
M 214.17 206.14 215.68 210.28 
M 217.28 214.47 218.12 216.59 221.29 223.38 
M 223.54 227.92 224.28 229.42 
M 224.96 89.99 223.17 93.84 
M 218.13 105.61 217.18 107.45 215.99 109.06 
M 213.45 112.13 210.68 114.98 
M 207.77 117.69 206.28 119.02 203.95 122.34 203.25 124.46 
M 200.8 133.18 200.15 135.21 
M 215.32 174.62 220.49 187.63 
M 223.63 196.21 225.16 200.43 
M 226.57 204.51 227.91 208.51 
M 231.06 216.87 237.1 231.34 
M 234.37 97.56 233.23 99.25 231.27 102.9 229.48 106.73 227.11 112.81 
M 225.21 116.54 224.12 118.28 219.88 122.53 
M 217.27 125.57 216.08 127.22 215.19 129.17 
M 213.63 133.52 212.97 135.93 
M 230.03 179.36 231.79 183.85 
M 235.2 192.7 238.16 201.02 
M 241.65 209.8 243.29 214.06 
M 244.65 217.97 247.22 225.36 
M 248.5 228.88 249.57 231.79 
M 250.51 89.39 248.32 92.91 
M 246.31 96.59 242.68 104.27 
M 240.87 108.12 238.23 113.98 237.53 116.12 
M 236.19 120.46 235.55 122.67 234.73 124.69 
M 228.35 135.7 227.17 137.68 
M 240.44 169.3 242.26 174.69 244.09 181.96 246.4 188.32 
M 248.08 192.68 252.84 205.44 
M 254.45 209.67 258.1 219.75 259.84 225.06 
M 260.71 228.19 261.41 231.16 
M 266.64 87.02 263.42 92.41 258.46 98.87 257.42 100.68 
M 255.4 104.34 250.5 113.67 249.67 115.7 
M 248.17 119.92 246.19 126.53 243.9 132.85 
M 242.37 137.18 241.59 139.38 
M 254.62 175.49 257.01 183.29 
M 260.02 191.69 263.12 200.13 
M 266.88 209.16 268.42 213.3 
M 269.62 217.05 271.25 222.37 273.2 230.21 
M 280.01 81.39 278.41 88.42 276.59 92.35 275.42 94.04 
M 270.68 100.74 267.6 106.22 263.79 113.87 261.67 117.5 256.83 127.07 
M 255.06 131.07 254.28 133.18 253.25 137.92 
M 262.03 162.19 262.78 165.14 
M 263.68 168.78 264.85 172.69 
M 268.94 184.96 271.89 193.31 
M 273.61 197.71 275.9 203.99 278.18 211.5 280.38 217.47 
M 281.91 221.42 283.34 225.2 
M 284.84 228.99 285.16 229.75 
M 287.92 93.32 287.24 95.51 286.38 97.52 
M 284.52 101.38 282.42 105 
M 280.08 108.4 273.69 116.43 271.45 119.99 267.54 127.68 265.8 131.76 265.16 133.81 
M 272.91 162.14 276.04 174.99 277.12 178.83 278.72 183.18 282.14 190.7 
M 284.37 195.63 285.38 197.99 286.68 201.97 288.14 207.38 
M 289.38 211.22 290.85 215.22 
M 292.5 219.33 297.21 229.73 
M 304.42 80.62 299.94 93.35 
M 298.32 97.47 294.89 105.52 
M 293.06 109.46 292.1 111.39 289.65 114.75 283.82 120.57 282.44 122.12 
M 279.79 125.33 275.26 131.46 
M 280.85 152.62 281.62 154.97 
M 284.46 163.44 285.15 165.53 287.71 175.1 
M 289.19 179.37 294.5 191.56 299.92 205.03 305.55 220.85 307.05 224.77 309.11 229.55 
M 311.11 93.01 309.35 96.98 
M 307.57 100.94 304.69 106.72 303.58 108.51 
M 301.21 111.96 297.45 116.98 290.28 127.5 287.05 131.94 
M 292.28 149.77 295.58 158.76 
M 299.29 170.98 300.69 176.62 302.29 181.01 310.22 199.87 314.5 211.98 319.26 224.21 321.38 229.06 
M 319.53 95.95 318.77 98.06 316.92 101.96 314.81 105.65 311.4 110.99 
M 309.19 114.65 303.82 124.08 301.29 127.49 298.39 130.51 
M 311.58 170.62 313.49 176.77 316.36 183.8 
M 318.34 188.54 322.09 197.69 
M 324.06 202.3 326.6 208.73 329.12 216.31 331.87 222.75 
M 334.21 227.84 334.31 228.07 
M 339.06 76.96 337.61 78.35 336.35 79.94 
M 330.31 91.01 327.97 97.27 326.02 101.09 324.92 102.89 
M 322.83 106.63 319.99 112.59 314.64 125.06 311.38 131.16 
M 324.83 168.56 328.73 178.06 
M 330.41 182.51 332.35 188.53 334.99 197.81 
M 336.39 201.8 340.2 211.9 342.06 216.2 346.78 225.96 
M 348.94 83.01 346.48 86.33 
M 344.01 89.63 342.82 91.33 340.75 95.02 338.31 101.28 
M 336.69 105.48 335.81 107.52 331.2 114.68 329.1 118.52 328.17 120.57 
M 324.07 128.53 322.95 130.49 
M 333.6 159.26 341.34 176.69 343.76 183.15 
M 345.02 187.04 346.94 194.08 
M 347.88 197.5 349.43 202.68 350.8 206.4 351.77 208.51 
M 353.87 212.89 358.87 222.7 
M 360.74 84.7 358.87 88.68 
M 356.7 92.38 353.23 97.72 351.13 101.53 347.19 109.46 342.86 117.08 338.81 125.05 335.43 130.69 
M 345 155.22 347.63 160.52 
M 353.59 174.33 358.01 187.43 362.25 198.62 366.04 207.88 
M 367.6 211.56 368.45 213.46 370.88 218.01 
M 370.99 90.65 368.88 94.5 
M 364.82 102.41 362.07 108.68 360.05 112.71 355.67 120.49 353.72 124.65 350.62 133.46 
M 363.55 165.34 364.86 169.06 
M 366.21 172.79 368.32 178.38 374.34 193.18 380.1 205.13 385.35 215.01 
M 386.21 91.58 383.63 95.02 
M 375.98 105.56 375.01 107.63 372.1 116.96 368.44 125.65 364.37 134.42 
M 377.42 162.55 380.14 169.66 
M 381.28 172.95 383.27 178.09 384.88 181.75 389.31 191.16 
M 391.31 195.11 398.27 209.25 
M 395.06 102.74 388.98 111.97 386.79 115.95 384.83 120.18 383.07 124.63 379.42 136.27 
M 389.05 155.49 393.74 165.27 395.29 168.8 400.36 181.55 405.39 192.15 408.39 199.41 
M 202.63 113.67 202.55 115.72 203.61 118.73 
M 278.66 112.98 280.08 113.37 282.2 114.72 283.64 116.19 286.18 119.63 
M 377.7 141.09 378.2 142.21 378.66 144.84 379.21 146.17 
M 377.41 178.65 378.01 181.23 377.85 182.12 377.22 183.11 376.26 183.69 373.03 184.33 
M 312.01 164.74 313.11 165.91 314.81 167.05 316.56 167.58 318.38 167.6 318.65 167.77 318.68 168.07 
M 307.84 102.66 306.07 99.74 305.41 99.15 302.85 97.98 300.46 97.6 
M 196.97 222.01 197.76 221.56 197.94 221 
M 267.1 105.18 267.18 102.65 268.37 100.94 268.58 100.06 268.54 98.89 
M 232.79 109.32 228.51 111.06 227.21 111.8 224.23 114.37 222.52 115.4 221.85 115.99 220.94 117.42 220.82 118.12 221.03 118.94 
M 254.06 191.99 254.89 190.16 255.11 188.58 254.85 180.24 254.29 177.9 
M 383.88 121.72 384.33 121.51 384.74 121.04 385.42 118.85 385.72 118.68 386.22 118.72 
M 231.8 172.71 234.68 173.13 235.22 173.34 237.33 176.17 
M 401.65 135.48 401.45 134.65 400.44 133.29 399.83 132.06 399.47 130.6 398.83 129.09 398.05 127.78 397.33 127.12 
M 275.07 87.22 272.21 88.67 270.54 88.93 269.36 88.62 267.39 86.79 265.12 85.45 
M 390.98 144.87 391.06 144.5 390.72 144.16 
M 320.04 196.52 319.04 196.89 318.18 196.96 317.38 196.62 315.82 195.06 313.5 193.11 311.25 191.77 310.78 191.29 310.05 189.98 
M 319.3 183.95 319.74 184.69 319.86 186.23 320.41 186.51 
M 293.88 109.56 289.53 108.63 289.31 108.88 289.12 110.38 
M 399.89 117.3 398.92 117.69 397.49 118.85 395.96 119.6 395.26 119.83 394.43 119.6 
M 262.36 183.89 258.27 181.43 257.73 180.74 257.29 179.07 256.64 177.8 254.05 175.13 
M 289.2 117.35 287.9 117.37 287.24 117.66 286.5 118.52 286.34 119.03 286.45 119.62 
M 279.88 201.26 279.17 201.48 277.12 202.86 276.25 203.08 273.15 203.24 269.5 203.99 267.78 204.53 266.85 204.33 
M 197.51 186.34 197.81 188.75 197.54 189.32 196.76 189.88 
M 228.73 116.24 227.04 116.98 225.72 117.79 225.35 118.32 225.19 118.9 225.2 119.61 225.42 120.09 
M 199.24 186.9 199.32 187.92 199.02 189.38 197.82 191.68 
M 280.93 107.87 281.93 107.95 282.84 107.79 283.58 107.36 284.21 106.83 285.71 104.93 286.53 103.13 287.26 100.88 287.65 98.97 
M 309.21 174.94 308.14 174.55 306.9 174.47 302.37 176.89 
M 348.26 116.83 350.28 117.61 351.65 119.68 352.38 120.32 353.26 120.82 355.05 121.31 357.96 121.39 
M 202.15 102.81 197.63 97.97 194.21 95.49 192.56 94 191.86 93.54 188.9 92.31 187.55 92 186.47 91.51 
M 356.4 211.95 356.06 212.84 356.08 213.44 356.64 214.8 357.2 215.51 359.4 217.5 360.09 217.96 361.49 218.49 362.17 218.51 363.71 218.2 
M 390.78 152.39 389.57 151.73 388.76 150.48 388.71 149.97 388.86 149.49 389.59 148.38 389.8 147.73 
M 296.96 170.27 297.28 168.59 297.26 167.61 296.46 163.16 296.17 162.26 294.85 160.25 294.61 159.13 
M 376.05 84.57 375.08 84.81 370.86 86.75 369.52 86.78 363.82 85.27 362.79 84.79 361 83.55 
M 227.04 223.71 225.55 223.53 224.42 223.67 223.82 224.05 223.69 224.35 224.17 224.87 
M 349.68 152.76 350.36 152.48 351.38 152.43 353.54 153.14 354.21 153.67 355.29 155.4 355.58 156.13 355.63 156.94 
M 275.97 175.98 278.98 177.91 
M 256.46 106.4 257.19 106.4 257.94 107.02 
M 323.42 179.42 322.81 178.62 321.26 177.75 320.29 176.85 319.89 176.25 318.74 173.16 318.25 172.49 
M 195.01 78.78 195.01 78.78 
M 202.14 77.99 206.54 57.72 212.81 55.33 214.57 52.76 217.18 46.57 220.17 45.11 224.19 44.98 230.14 42.56 233.9 37.57 235.42 34.69 237.18 32 239.85 30.23 243.18 30 245.72 31.31 251.84 34.06 253.34 33.71 256.18 34.88 260.2 37.77 263.37 37.01 266.34 35.83 269.41 34.84 272.1 33.45 274.98 33.23 277.78 34.47 279.6 34.74 281.92 36.84 283.96 42.82 286.51 46 290.68 49.85 298.26 57.66 301.76 60.13 304.98 72.42 
M 301.25 72.13 301.25 72.13 
M 200.22 78.2 201.82 76.92 203.18 71.3 204.68 68.61 205.54 65.23 
M 205.43 77.58 206.96 75.76 207.73 73.01 208.29 70.07 208.31 67.82 
M 210.6 76.69 212.25 74.82 213.16 69.07 213.13 63.88 213.85 61.39 
M 215.77 75.8 217.47 73.88 218.59 71.66 218.68 64.7 218.97 62.36 220.3 57.3 221.7 54.91 222.35 52.32 
M 220.94 74.91 222.6 73.73 223.49 71.29 224.44 67.31 224.34 64 223.91 61.42 224.93 58.98 225.63 56.46 
M 226.12 74.11 227.9 72.12 229.28 66.32 230.18 64.27 231.55 59.19 231.96 55.71 231.35 51.95 233.06 50.1 234.94 47.38 235.9 44.16 236.41 41.11 237.33 37.31 
M 231.32 73.45 233.18 71.34 234.4 68.68 235.23 66.1 237.24 61.04 237.94 58.27 237.94 55.42 238.46 51.66 238.15 49.15 239.59 46.35 
M 236.54 72.97 238.51 71.17 239.56 68.73 240.61 65.52 241.94 62.53 243.62 57.03 244.86 54.66 245.67 52.35 244.48 49.34 244.67 46.66 246.34 44.51 246.9 40.82 
M 241.78 72.63 244.03 71.14 244.85 68.4 248.21 62.17 248.98 59.43 249.14 57.02 250.78 56.31 251.11 53.74 251.18 49.15 252.64 44.97 254.04 42.36 255.1 39.49 
M 247.02 72.42 248.92 71.18 250.09 68.6 253.54 62.52 254.56 59.96 256.52 57.9 
M 252.26 72.27 253.73 71.14 257.02 65.36 261.72 59.01 263.1 56.22 264.07 53.69 
M 257.51 72.19 259.45 70.26 263.71 63.94 266.12 57.61 267.99 55.9 
M 262.75 72.13 265.06 70.48 267.85 66.06 268.7 63.91 269.65 60.61 270.99 57.28 
M 267.99 72.22 270.34 70.45 272.01 67.61 274.31 62.92 276.1 60.21 276.82 57.61 276.77 54.38 277.87 52.48 278.37 48.29 279.1 44.85 280.74 42.09 281.02 39.73 
M 273.24 72.31 275.88 70.2 278.55 65.34 280.81 59.69 281.87 57.71 282.32 56.06 284.1 54.55 285.88 51.02 
M 278.48 72.36 281.68 70.22 284.51 62.65 286.3 60.9 287.98 59.77 288.51 58.03 
M 283.73 72.35 286.34 70.73 289.16 65.81 290.07 63.45 
M 288.97 72.18 292.03 71.24 294.16 68.91 297.07 63.66 297.76 61.54 297.61 58.72 
M 294.21 72.11 294.22 72.11 
M 298.96 72.12 302.52 66.99 
M 182 140.78 318.83 137.45 318.86 138.5 181.87 144.35 
M 181.81 145.78 298.68 151.06 298.65 152.11 181.82 149.32 
M 181.85 150.79 278.04 161.91 277.93 162.96 181.93 154.3 
M 181.9 155.82 257.18 169.99 257 171.02 181.83 159.27 
M 181.8 160.85 236.39 175.29 236.14 176.31 181.49 164.18 
M 181.34 165.81 215.93 177.86 215.62 178.86 181.03 168.99 
M 180.84 170.86 196.1 177.75 195.71 178.72 180.57 173.61 
M 304 139.13 299.25 140.51 296.98 141.38 294.83 142.43 292.82 143.69 290.93 145.16 289.16 146.82 285.84 150.48 
M 285.8 151.8 281.1 152.56 278.84 153.12 276.67 153.88 274.62 154.87 272.67 156.08 270.81 157.48 267.28 160.67 
M 267.14 161.98 262.57 162.13 260.34 162.39 258.19 162.86 256.13 163.57 254.14 164.51 252.22 165.67 248.52 168.36 
M 248.29 169.66 243.91 169.21 241.76 169.18 239.65 169.37 237.6 169.8 235.6 170.48 233.64 171.37 229.81 173.55 
M 229.5 174.84 225.37 173.82 223.33 173.51 221.3 173.42 219.29 173.58 217.3 173.99 215.33 174.62 211.42 176.29 
M 211.02 177.55 207.21 175.99 205.3 175.42 203.38 175.07 201.44 174.96 199.49 175.11 197.52 175.47 193.58 176.61 
M 193.09 177.84 189.55 176.11 187.76 175.46 185.94 175.02 184.1 174.83 182.24 174.88 180.44 175.14 
M 301.6 139.79 296.98 141.38 294.83 142.43 292.82 143.69 290.93 145.16 287.48 148.61 
M 270.94 141.02 267.4 142.23 265.75 143.04 262.76 145.13 260.11 147.78 
M 240.28 142.24 237.82 143.09 235.6 144.32 234.59 145.11 232.75 146.95 
M 283.43 152.14 278.84 153.12 276.67 153.88 274.62 154.87 272.67 156.08 269.02 159.04 
M 257.01 151.47 253.49 152.22 251.83 152.8 248.76 154.48 245.97 156.75 
M 230.59 150.79 228.14 151.31 226.98 151.72 224.85 152.89 222.91 154.47 
M 264.84 162.01 260.34 162.39 258.19 162.86 256.13 163.57 254.14 164.51 250.35 166.97 
M 231.72 159.01 228.79 159.26 227.4 159.57 224.76 160.64 222.3 162.24 
M 246.09 169.39 241.76 169.18 239.65 169.37 237.6 169.8 235.6 170.48 231.72 172.42 
M 227.43 174.28 223.33 173.51 221.3 173.42 219.29 173.58 217.3 173.99 213.37 175.41 
M 243.3 231.91 248.78 237.07 253.07 239.03 255.81 242.06 268.45 265.33 266.87 268.2 264.44 270.22 260.4 275.01 258.9 277.88 256.59 280 254.31 279.16 251.48 277.77 244.2 276.77 239.75 275.81 237.39 277.44 234.29 278.35 231.88 276.99 224.87 266.62 222.33 262.42 213.18 252.55 200.07 234.5 198.78 231.7 197.57 227.52 195.01 221.3 
M 238.07 231.5 241.38 235.98 249.31 243.5 251.1 246.21 
M 232.85 231.02 238.46 237.97 240.62 241 243.58 244.08 245.77 246.77 246.99 250.56 248.53 253.61 250.82 256.75 253.39 259.76 
M 227.68 230.12 234.1 240.02 236.58 243.3 240.03 249.91 242.35 253.06 
M 222.53 229.13 228.59 239.12 230.29 242.62 230.7 246.22 232.74 250.62 234.99 254.19 236.84 256.26 238.44 258.78 239.52 262.24 240.65 264.51 242.48 266.84 244.9 270.66 247.39 273.41 
M 217.44 227.88 219.29 231.63 221.31 234.98 224.14 238.14 225.68 241.08 225.68 244.83 226.71 248.83 
M 212.36 226.55 214.21 230.77 215.4 234.36 217.07 237.8 218.96 240.96 220.07 246.51 220.34 250.51 221.76 253.01 223.4 255.45 225.04 259.79 
M 207.33 225.09 209.41 229.93 210.72 233.68 211.61 237.58 211.96 240.9 213.42 244.07 215.79 246.9 216.75 249.7 218.24 252.89 
M 202.3 223.58 205.69 232.2 207.18 239.58 208.47 242.81 209.4 246.52 
M 378.51 219.1 384.79 228.67 388.17 231.61 388.77 243.5 388.12 246.81 386.51 249.65 383.65 251.09 380.57 252.22 373.95 253 371.32 253.69 364.36 252.9 361.6 254.43 359.17 256.45 355.93 257.42 353.13 258.55 350.38 258.34 348.7 257.19 345.85 254.86 343.33 254.12 340.41 253.61 334.02 251.68 330.19 250.25 318.61 244.51 317.43 241.23 313.98 235.52 310.91 229.52 
M 373.35 220.03 376.8 224.7 378.55 228.53 380.36 231.71 383.09 234.47 
M 368.2 220.99 371.43 225.23 375.87 231.74 377.96 235.54 
M 363.07 222.11 366.11 226.01 371.1 231.84 373.33 235.59 375.52 238.03 379.05 240.74 
M 357.96 223.28 361.9 227.61 364.47 230.69 366.02 233.72 371 238.78 373.04 242.22 375.15 244.21 378.16 245.67 
M 352.88 224.58 356.9 228.78 359.56 231.93 362.1 235.64 363.56 238.97 365.67 241.9 368.55 243.3 370.49 246.39 
M 347.78 225.81 354.61 233.23 357.1 236.3 357.78 239.83 359.89 242.76 
M 342.65 226.91 346.25 230.91 354.51 241.04 
M 337.48 227.78 340.11 231.99 345.43 238.76 348.64 241.44 350.48 245 353.06 248.19 354.34 251.45 
M 332.27 228.37 339.05 237.95 340.71 241.36 344.1 245.43 346.74 248.96 348.93 251.25 350.88 255.22 352.31 258.68 
M 327.04 228.79 330.12 233.14 331.89 236.27 332.91 238.9 335.27 242.21 337.39 245.63 340.45 249.36 
M 321.81 229.11 324.95 233.76 326.65 237.98 329.04 240.6 330.77 244.49 332.67 247.65 336.52 250.4 
M 316.57 229.32 319.31 234.28 325.89 244.78 
M 407.49 95.7 410.69 95.2 413.83 93.86 417.3 92.02 420.25 89.92 423.12 88.13 427.39 86.63 432.96 83.82 435.2 82.29 446.54 77.47 449.25 76.01 450.29 73.27 452.2 71.88 454 69.18 458.94 67.61 462.11 66.08 465.45 65.59 468.19 64.93 471.13 61.6 473.87 57.38 478 52.58 462.23 74.9 462.41 78.64 461.76 81.55 460.39 83.72 459.55 86.44 458.33 89.41 455.4 95.04 454.87 98.5 454.95 105.21 454.63 112.24 453.03 114.42 452.05 117.16 450.68 122.97 450.21 126.09 450.25 133.42 448.77 135.52 447.66 138 447.8 144.48 447.47 147.03 448.14 150.73 448.48 154.08 447.35 162.83 448.57 171.05 448.65 174.58 449.17 178.05 449.36 181.19 450.54 187.19 450.56 192.49 450.77 195.5 450.68 198.04 456.49 211.36 456.07 212.92 455.86 215.07 456.07 218.51 455.86 221.53 456.67 225.58 457.05 228.52 461.27 237.81 478.05 260.36 471.77 256.78 469.28 254.78 467.47 251.8 464.48 250.69 462.07 249.31 458.58 246.72 455.86 244.12 453.49 241.57 450.61 239.63 448.81 239.01 441.08 234.94 438.76 233.19 436.72 230.57 431.24 226.86 428.02 225.87 425.45 223.97 422.25 222.12 417.11 217.76 413.7 216.02 410.8 213.75 407.49 210.53 
M 407.49 101.44 410.95 101.11 414.22 99.6 417.87 98.24 420.89 96.28 424.3 94.67 427.68 93.3 433.92 92.05 436.11 90.84 438.69 89.73 441.14 87.97 
M 414.69 105.74 418.41 103.87 422.02 103.04 425.11 101.6 427.83 101.34 434.22 99.93 
M 411.92 112.62 415.03 111.57 421.41 110.03 425.2 109.59 428.13 108.49 431.12 107.87 433.46 106.42 437.09 105.78 439.86 104.86 
M 414.96 118.14 418.01 117.52 420.91 117.14 424.28 116.36 431.73 112.45 434.94 111.47 437.19 111.44 439.45 111.74 443.29 111.23 
M 414.99 123.85 418.41 123.31 421.76 123.08 425.72 121.57 429.36 121.35 432.09 119.67 435.29 118.87 437.83 119.75 441.33 119.56 
M 414.99 130.76 418.11 130.78 421.32 129.68 425.86 128.84 429.64 127.36 432.38 128.18 435.59 126.66 438.91 126.05 
M 407.49 135.89 412.26 137.57 419.04 138.21 428.6 136.88 
M 418.52 142.22 422.46 142.21 426.01 142.39 429.83 142.29 431.97 142.06 440.14 142.23 442.55 141.66 446.47 141.53 
M 419.02 148.03 422.09 147.84 426.4 148.61 
M 417.1 155.23 420.77 155.06 423.91 155.33 426.33 156.27 
M 415.46 161.76 418.91 162.13 422.54 162.04 429.76 164.14 433.31 164.56 436.43 164.69 439.56 164.24 
M 415.17 167.48 418.2 168.32 421.3 168.76 429.33 170.29 432.7 171.82 
M 418.98 174.36 422.24 175.02 429.56 178.13 433.93 179.25 436.94 179.68 439.05 179.58 
M 412.3 177.74 426.65 183.93 429.64 185.65 430.72 187.42 434.1 188.09 
M 418.92 186.53 422.69 187.41 425.75 188.88 428.63 191.44 431.03 193.2 434.31 194.01 437.54 193.68 441.17 194.39 443.75 195.32 446.61 197.3 
M 411.07 190.59 421.78 193.73 428.1 197.19 433.3 198.42 439.43 201.73 439.88 203.43 442.85 203.94 445.79 205.76 
M 417.85 198.85 420.91 200.63 424.04 201.94 428.15 204.06 436.05 208.72 437.99 211.01 440.71 212.08 442.97 213.31 
M 414.75 204.08 418.34 205.55 421.8 207.19 425.31 209.24 428.74 210.95 431.53 213.18 433.88 215.76 436.98 217.01 439.56 219.24 441.94 219.22 445.41 220.66 
M 407.49 204.79 411.47 208.18 415.07 209.97 418.2 212.05 420.77 214.25 430.13 219.41 434.09 222.07 436.66 224.13 438.93 225.63 442.04 228.87 444.91 231.43 447.32 233.86 451.23 234.76 454.76 234.52 457.88 236.6 460.37 237.66 
M 378.51 85.11 381.39 80.16 382.95 77.8 384.78 75.72 386.97 74 389.54 72.66 392.47 71.67 396.1 71.38 400.47 71.85 405.28 72.79 410.15 74.84 413.78 77.68 415.47 80.79 415 83.61 412.64 85.59 409.28 86.51 406.05 86.95 403.3 87.84 397.83 90.84 
M 381.02 84.99 382.17 83.18 
M 383.86 80.96 384.78 79.91 386.97 78.2 389.54 76.85 392.47 75.86 396.1 75.58 400.47 76.04 405.28 76.99 407.72 78.01 
M 60.48 170.19 62.33 168.19 65.36 164.2 68.65 158.79 72.15 152.03 77.44 146.04 89.75 135.26 95.5 128.48 102.39 121.63 110.56 115.53 118.9 109.72 127.42 104.31 136.33 99.12 151.93 90.98 158.14 88.03 163.11 86.31 166 85.68 170.16 92.31 172.14 99.11 174.41 105.9 176.93 112.67 178.94 119.47 180.21 126.33 182.02 140.1 181.77 147.07 181.93 154.01 181.79 160.97 180.43 174.98 180.77 181.9 180.63 195.82 180 202.82 178.57 209.87 175.72 216.95 159.25 216.22 147.12 215.06 126.79 211.23 117.29 208.63 108.68 205.68 94.24 199.8 87.97 196.93 
M 85 195.53 75.53 190.79 70.7 187.34 67.2 183.71 65.92 182.18 
M 149.79 134.77 150.28 140.79 148.53 152.4 147.17 157.56 145.38 162.13 144.08 166.41 144.39 174.33 147.25 186.62 147.36 192.02 128.47 191.8 113.6 191.01 105.85 189.82 98.58 187.96 91.99 185.42 
M 86.34 196.61 83.48 194.36 79.08 191.3 74.69 188.6 72.62 187.12 68.34 183.83 63.82 180.71 57.49 176.01 55.56 174.02 55.47 171.31 57.48 169.5 60.08 169.81 71.74 181.05 77.14 186.48 84.99 193.41 88.11 196.74 
M 84.83 198.13 80.56 198.88 64.72 201.1 53.95 202.16 46.26 203.36 43.64 203.13 41.94 201.04 42.56 198.64 44.75 197.37 73.77 196.84 79.24 196.9 86.35 196.61 
M 87.72 196.62 87.75 196.62 
M 103.53 151.51 102.59 147.96 102.86 144.29 104.3 140.9 106.77 138.17 109.99 136.39 113.61 135.75 117.24 136.32 120.5 138.04 123.01 140.72 124.53 144.07 124.87 147.74 124 151.31 122.02 154.41 119.14 156.7 115.67 157.93 111.99 157.97 108.5 156.81 105.57 154.57 103.53 151.51 
M 103.39 151.2 102.66 148.54 102.6 145.77 102.83 144.4 103.78 141.81 104.49 140.62 106.32 138.55 108.6 136.99 111.2 136.04 113.95 135.75 115.33 135.86 118 136.6 
M 105.33 150.4 104.97 149.33 104.64 147.11 104.87 144.88 105.29 143.58 
M 107.75 140.09 109.56 138.85 110.59 138.4 112.78 137.89 115.03 137.94 117.19 138.54 
M 107.27 149.6 106.99 148.78 106.74 147.07 106.92 145.35 107.24 144.35 
M 109.08 141.71 110.52 140.72 112.15 140.12 113.86 139.94 114.73 140.02 116.39 140.47 
M 109.64 148.76 109.27 147.34 109.37 145.87 109.59 145.35 
M 110.9 143.47 112.23 142.71 113.67 142.45 115.13 142.68 116.43 143.37 117.44 144.44 118.04 145.78 118.18 147.25 117.83 148.68 117.04 149.92 115.89 150.83 114.5 151.33 113.03 151.34 111.63 150.88 110.46 149.98 109.64 148.76 
M 111.22 143.27 111.04 143.63 
M 110.09 145.53 109.28 147.15 
M 113.16 142.55 111.98 144.91 
M 111.48 145.9 109.87 149.11 
M 114.69 142.61 112.91 146.18 
M 112.87 146.27 110.86 150.29 
M 116 143.14 112.06 151.02 
M 117.1 144.09 113.48 151.34 
M 117.94 145.56 115.18 151.08 
M 61.52 169.07 66.67 174.22 
M 64.31 165.58 68.8 170.06 
M 66.82 161.79 71.53 166.5 
M 69.15 157.82 74.43 163.11 
M 71.29 153.68 74.85 157.24 
M 73.93 150.02 77.93 154.02 
M 76.88 146.67 82.18 151.98 
M 80.17 143.67 84.59 148.1 
M 83.54 140.75 89.32 146.53 
M 86.88 137.8 93.01 143.92 
M 90.16 134.78 95.07 139.69 
M 93.05 131.38 98.77 137.1 
M 95.97 128.01 100.94 132.98 
M 99.13 124.87 105.07 130.81 
M 102.28 121.73 106.58 126.03 
M 105.87 119.03 110.25 123.41 
M 109.48 116.34 112.95 119.81 
M 113.16 113.72 119.07 119.64 
M 116.86 111.14 121.47 115.75 
M 120.64 108.62 126.16 114.15 
M 124.49 106.17 130.14 111.82 
M 128.37 103.76 133.67 109.07 
M 132.34 101.44 138.03 107.13 
M 136.32 99.12 140.54 103.34 
M 140.46 96.98 144.35 100.86 
M 144.61 94.83 150.28 100.5 
M 148.74 92.66 153.62 97.55 
M 152.89 90.52 157.09 94.73 
M 157.16 88.5 160.55 91.89 
M 161.74 86.79 167.58 92.62 
M 134.95 159.22 135.59 157.31 135.65 155.46 136.72 151.04 137.35 149.87 137.81 149.49 138.33 149.33 
M 112.56 169.72 111.05 173.17 111.16 173.86 112.21 176.79 112.32 177.55 112.2 178.69 111.8 179.34 
M 166.68 158.54 165.96 158.91 164.61 159.15 160.98 158.79 160.19 158.93 159.24 159.4 157.56 160.8 
M 76.59 152.33 76.99 152.92 77.54 154.72 
M 161.36 146.47 156.37 147.59 154.69 147.73 153.69 148.12 152.57 148.82 
M 96.83 180.53 97.48 178.98 98.21 178.1 101.3 177.49 102.38 176.52 103.64 172.38 
M 120.21 125.86 118.83 127.58 118.38 129.19 118.59 130.13 
M 141.95 108.05 142.42 107.54 144.56 106.05 145.91 104.82 
M 128.31 117.04 125.3 114.72 124.26 113.72 121.64 109.63 121.24 108.23 
M 153.43 96.1 153.76 95.4 154.21 92.66 153.98 90.01 
M 161.21 134.23 159.05 133.3 154.3 132.04 153.5 131.97 152.79 132.06 152.22 132.39 151.8 132.9 151.38 134.04 151.43 135.31 
M 123.85 205.88 125.44 205.61 128.02 205.79 129.09 205.65 129.39 205.37 129.65 204.6 129.33 203.04 
M 89.31 145.95 86.55 145.32 80.74 145.09 79.8 145 79.02 144.67 
M 167.38 158.83 166.36 159.28 165.11 159.49 164.27 159.53 161.38 159.2 160.49 159.3 158.91 160.12 
M 70.05 179.5 70.5 179.55 71.26 179.97 71.71 180.49 71.76 181.08 
M 116.1 126.71 118.3 130.03 118.69 130.28 
M 79.68 147.18 78.69 147.41 78.19 148.02 77.87 150.72 
M 154.24 204.1 153.07 204.16 150.48 204.82 149.6 204.67 148.87 204.46 147.65 203.79 146.24 202.42 145.43 201.87 
M 155.9 108.46 154.47 106.93 154.32 105.82 154.38 104.67 153.5 100.8 
M 170.51 143.62 170.6 141.44 170.01 137.77 169.47 135.46 169.18 134.88 168.66 134.32 
M 79.72 186.95 78.49 186.55 77.23 185.67 76.45 185.52 
M 102.6 147.84 101.45 147.55 98.96 145.93 97.88 145.72 97.1 145.86 
M 122.56 191.79 121.67 190.74 121.49 190.24 121.52 189.22 122.1 186.95 122.59 186.06 123.35 185.36 125.26 184.15 126.22 183.29 127.41 181.61 
M 115.63 164.67 115.18 165.71 115.28 167.72 115.13 168.59 114.67 169.51 113.41 171.08 112.37 172.82 112.06 173.65 112.36 176.18 
M 114.02 169.57 112.95 171.03 111.98 172.77 111.73 173.53 112.43 177.62 112.41 178.27 112.21 178.79 111.62 179.53 
M 138.51 150.4 139.81 149.39 140.71 147.68 141.51 146.7 142.18 146.31 
M 171.65 121.33 169.45 120.29 166.1 117.26 163.52 116.05 
M 110.72 189.92 110.97 189.44 111.4 189.38 111.76 189.82 111.69 190.25 
M 96.99 156.18 98.44 158.59 98.81 160.01 98.81 160.83 98.39 162.06 95.93 165.52 
M 139.68 180.82 140.16 180.21 140.7 178.92 140.77 178.55 140.58 177.9 139.76 176.88 137.54 176.03 
M 141.27 134.8 139.15 139.03 138.46 139.4 
M 175.98 190.81 173.61 188.74 
M 99.18 140.44 98.98 141.06 98.62 141.49 95.86 144.04 95.06 145.81 
M 172.59 172.88 172.95 171.54 172.94 171.05 172.19 170.13 171.19 169.45 168.22 168.52 163.46 167.79 
M 152.07 175.88 152.52 176.19 152.73 176.52 152.69 176.88 151.76 178.02 150.76 178.74 
M 175.04 203.46 174.87 202.57 175.05 201.72 175.29 201.43 176.31 200.98 
M 145.88 136.06 147.72 137.1 148.96 138.27 149.89 140.32 149.68 141.35 
M 161.9 199.04 161.82 197.09 161.97 195.22 161.52 194.16 
M 163.44 197.49 162.21 195.82 161.88 194.73 161.42 194.01 
M 161.78 127.11 161.14 126.14 160.41 125.53 159.77 125.26 158.12 125.33 155.65 125.85 155.14 126.12 154.85 126.57 
M 149.61 150.86 150.61 151.36 151.27 152.07 
M 129.9 148.4 130.76 148.52 132.08 148.18 133.36 148.14 135.33 148.4 137.41 149.26 137.99 149.31 
M 97.49 189.51 97.32 188.76 97.66 188.11 98.48 187.53 101.3 186.46 102.44 185.54 103.29 184.49 
M 119.06 116.16 119.93 113.43 120.07 110.64 120.58 108.65 
M 126.04 110.68 124.45 108.67 122.76 107.27 
M 121.5 190.91 121.34 190.46 121.37 189.52 122.21 186.6 122.78 185.78 125.5 183.87 126.43 182.97 127.94 180.5 
M 89.2 198.1 86.58 200.18 83.71 201.82 82.18 202.5 78.97 203.38 75.74 203.67 72.54 203.65 66.27 202.9 69.4 203.09 72.54 202.97 75.62 202.56 78.6 201.85 81.33 200.67 82.58 199.87 84.95 198.03 86.98 195.88 
M 87.99 196.9 88.89 197.67 
M 83.69 194.52 83.8 194.97 84.07 194.82 
M 79.56 191.65 79.52 192.95 79.94 192.36 80.3 192.18 
M 75.48 189.06 75.27 189.54 75.23 190.93 75.75 189.95 76.32 189.56 
M 71.53 186.28 71.07 187.12 70.95 188.91 71.55 187.53 72.35 186.91 
M 67.67 183.37 66.88 184.71 66.66 186.89 67.36 185.11 68.62 184.05 
M 63.73 180.64 62.68 182.29 62.38 184.86 63.16 182.7 64.7 181.33 
M 59.87 177.79 58.49 179.88 58.09 182.84 58.97 180.28 60.87 178.52 
M 56.19 174.67 54.29 177.46 53.8 180.82 54.77 177.87 57.12 175.62 
M 87.78 197.02 89.14 196.91 
M 83.42 196.7 83.88 196.35 84.09 196.64 
M 78.87 196.9 79.11 196.33 79.67 195.7 79.74 196.27 80.12 196.88 
M 74.55 196.86 74.78 195.98 75.47 195.06 75.41 195.93 75.83 196.89 
M 70.21 196.96 70.45 195.64 71.26 194.41 71.07 195.58 71.54 196.92 
M 65.89 197.08 66.11 195.29 67.05 193.77 66.74 195.24 67.28 197.05 
M 61.58 197.1 61.78 194.94 62.84 193.12 62.41 194.89 62.97 197.06 
M 57.27 197.16 57.45 194.6 58.64 192.48 58.07 194.55 58.69 197.15 
M 52.97 197.18 53.11 194.25 54.43 191.84 53.74 194.2 54.38 197.17 
M 48.67 197.24 48.78 193.91 50.22 191.19 49.41 193.86 50.09 197.25 
M 44.36 197.59 44.45 193.56 46.01 190.55 45.08 193.51 45.79 197.31 
M 52.77 202.35 66.35 205.13 73.47 206.21 80.64 206.87 87.57 207.02 94.43 206.74 108.68 205.68 
M 105.8 205.44 105.2 205.96 
M 168.49 89.65 173.6 94.76 
M 171.06 83.83 182.66 95.43 
M 177.4 81.77 184.58 88.96 
M 184.25 80.24 192.75 88.73 
M 191.61 79.2 203.85 91.44 
M 199.12 78.32 206.52 85.72 
M 206.57 77.38 215.08 85.89 
M 213.73 76.15 225.51 87.93 
M 220.89 74.92 228.9 82.93 
M 228.21 73.85 239.14 84.78 
M 235.77 73.02 243.57 80.82 
M 243.66 72.52 255.86 84.71 
M 251.81 72.28 261.61 82.07 
M 260.09 72.16 270.79 82.86 
M 268.55 72.23 280.19 83.87 
M 277.06 72.35 283.63 78.92 
M 285.39 72.29 297.02 83.92 
M 293.6 72.11 300.09 78.6 
M 302.08 72.19 312.43 82.54 
M 311.18 72.91 321.66 83.39 
M 320.59 73.93 332.14 85.47 
M 330.15 75.09 342.18 87.13 
M 339.84 76.39 351.08 87.63 
M 350.36 78.52 362.07 90.23 
M 361.42 81.19 370.83 90.59 
M 372.39 83.77 378.8 90.17 
M 383.29 86.28 389.95 92.94 
M 395.4 90 403.9 98.5 
"/></svg>