<svg xmlns="http://www.w3.org/2000/svg" width="520" height="320"><rect x="0" y="0" width="520" height="320" fill="floralwhite"/><rect x="10" y="10" width="500" height="300" stroke="black" stroke-width="1" fill="none"/><path stroke="black" stroke-width="1" fill="none" stroke-linecap="round" stroke-linejoin="round" d="
M 196.19 101.05 201.45 98.83 211.16 95.69 221.18 93.77 231.29 92.44 241.35 90.79 251.37 88.86 261.44 87.25 271.6 86.28 281.78 85.82 291.98 85.63 312.38 85.89 322.58 85.61 332.78 85.6 342.94 86.42 363.18 89.01 373.26 90.56 383.21 92.82 402.9 98.12 412.8 100.58 422.61 103.37 432.08 107.16 440.97 112.16 442.34 113.91 
M 442.34 189.9 433.43 194.67 423.78 197.99 413.87 200.39 403.88 202.45 393.96 204.81 384.13 207.55 374.23 210 364.14 211.46 353.96 212.22 333.58 212.96 313.18 212.8 303.01 213.54 292.86 214.59 282.68 215.28 272.48 215.18 262.35 214.03 252.38 211.89 242.57 209.07 223.22 202.61 213.39 199.92 206.04 198.68 
M 225.28 137.48 228.57 137.15 
M 235.95 137.12 240.09 137.42 
M 244.34 137.79 248.49 138.02 
M 266.99 140.53 269.38 140.88 275.58 140.92 
M 286.79 139.53 293.86 138.1 
M 297.19 137.19 298.74 136.63 301.55 135.19 304.75 134.16 308.52 133.71 316.55 133.36 323.59 132.15 327.2 131.73 331.26 131.78 339.89 132.6 345.57 132.47 
M 349.2 132.24 353.01 132.18 
M 356.97 132.26 360.94 132.35 
M 369.53 133.15 377.34 135.02 382.27 135.91 395.23 136.57 405.13 138.06 409.76 138.45 439.18 139.19 442.34 139.78 
M 204.28 109.14 202.89 112.45 
M 211.73 183.66 212.1 184.55 
M 213.72 188.55 215.3 192.5 
M 216.77 196.31 218.51 201.32 
M 213.42 107.42 213.01 109.72 211.89 114.02 211.14 115.99 
M 224.73 192.55 228.44 203.72 
M 227.1 99.11 225.95 100.63 224.95 102.32 
M 223.27 106 222.58 108 222.11 110.22 
M 220.61 119.55 220.22 121.87 219.6 123.97 
M 216.33 131.61 214.63 134.91 
M 237.59 204.45 238.7 207.79 
M 235.75 106.83 234.39 108.15 231.99 111.11 231.15 112.95 
M 226.86 130.26 225.2 134.92 
M 228.74 151.87 228.92 152.41 
M 240.78 185.72 240.92 186.18 
M 241.98 189.95 244.2 197.54 
M 245.48 201.47 248.24 209.47 
M 248.45 108.09 247.36 109.66 244.85 112.48 242.32 115.3 239.62 117.96 237.45 121.17 236.8 123.2 
M 233.37 135.42 232.81 137.02 
M 251.2 187.64 256.24 203.52 
M 258.55 107.25 256.28 112.99 254.28 116.34 253 117.74 
M 250.35 120.45 248.97 121.76 246.64 124.81 245.04 128.6 244.56 130.82 
M 245.94 144.7 247.61 149.2 
M 260.98 186.74 263.17 192.72 
M 264.55 196.82 266.45 202.78 270.06 213.04 
M 270.2 102.99 268.47 106.6 
M 266.81 110.3 266.03 112.2 265.41 114.26 
M 262.41 122.02 261.43 123.74 259.2 126.9 256.31 132.12 
M 254.56 136.1 253.71 138.27 
M 270.75 185.31 273.26 192.64 
M 274.56 196.66 276 200.8 
M 277.63 205.12 279.12 209.27 
M 280.35 213.13 281.01 215.26 
M 279.83 102.14 278.23 105.92 
M 276.7 109.76 275.27 113.72 
M 273.02 122.27 272.52 124.48 271.24 128.63 266.95 138.3 
M 270.75 152.14 271.04 152.86 
M 282.3 188.57 283.72 192.71 
M 285.14 196.84 286.6 201 
M 289.49 209.23 291.29 214.69 
M 290.48 102.54 284.35 115.33 283.61 117.31 
M 282.28 121.42 279.12 131.88 278.59 134.08 
M 290.29 183.14 290.39 183.44 
M 291.77 187.55 293.08 191.58 
M 296.15 200.05 297.92 204.49 
M 299.45 208.68 300.97 213.75 
M 297.62 110.19 293.12 119.33 288.04 130.69 286.94 135.08 286.17 139.66 
M 299.23 182.12 300.84 187.43 305.91 201.96 
M 306.99 205.7 308.55 211.19 309.24 213.09 
M 310.3 106.59 304.79 114.73 302.71 118.14 300.05 123.74 
M 298.37 127.56 297.53 129.48 296.85 131.56 
M 300.01 152.47 300.22 153.17 
M 307.16 181.57 312.8 195.83 
M 314.06 199.78 315.46 205.19 317.86 212.82 
M 322.77 103.02 320.41 108.83 318.44 112.33 317.15 113.78 
M 314.48 116.62 311.84 119.49 
M 307.21 125.94 304.14 131.2 302.66 134.73 
M 314.91 178 319.55 188.21 321.58 193 322.23 195.01 
M 323.38 198.87 325 204.53 326.99 210.43 
M 331.92 102.49 330.3 106.32 
M 328.51 110.01 327.56 111.82 325.33 115.11 320.58 121.47 317.19 126.45 
M 314.87 129.72 312.16 133.56 
M 315.57 146.87 317.63 153.35 
M 327.25 184.19 329.07 188.78 
M 330.91 193.38 333.64 200.18 337.74 212.83 
M 343.77 94.24 340.65 102.01 
M 338.87 105.71 336.9 109.24 
M 332.51 115.96 327.13 124.58 323.22 130.21 
M 325.78 146.67 327.34 151.1 
M 335.34 179.22 340.92 193.16 
M 343.78 201.42 347.59 212.48 
M 348.73 101.14 347.85 103.01 344.9 108.33 
M 342.9 111.89 340.97 115.55 
M 339.12 119.31 337.24 123.07 
M 332.5 130.02 331.02 131.76 
M 335.91 146.68 338.17 153.57 
M 342.43 169 343.58 173.13 344.34 175.32 
M 346.01 179.81 349.51 188.89 
M 352.96 197.79 355.46 204.28 357.8 211.93 
M 357.83 96.15 357.14 98.18 356.25 100.03 
M 350.78 111.17 345.26 125.37 342.61 130.96 
M 346.34 147.26 347.78 151.58 
M 352.97 166.65 357.36 178.36 
M 358.72 182.53 360.7 190.01 
M 361.71 193.73 366.2 207.36 367.59 210.96 
M 370.16 90.09 368.27 93.47 
M 366.64 97.3 364.66 103.56 363.88 105.55 
M 362.11 109.33 359.08 114.7 357.31 118.57 355.68 122.62 350.99 132.15 
M 356.36 147.46 357.81 151.77 
M 361.47 161.53 365.15 170.49 
M 366.94 175.08 369.12 181.43 370.2 185.24 371.76 192.13 373.76 199.25 374.83 202.81 376.56 207.45 
M 374.77 103.75 372.38 109.78 368.44 117.16 365.74 122.99 
M 361.95 130.54 360.99 132.35 
M 365.51 146.69 368.33 153.9 
M 369.75 157.03 374 166.32 
M 375.97 171 378.24 177.29 379.93 182.89 
M 380.82 186.34 383.12 194.81 385.36 201.09 
M 390.73 95.28 388.74 98.93 
M 386.79 102.64 384.11 108.49 381.21 114.18 
M 379.22 117.95 378.24 119.85 377.41 121.91 
M 375.86 126.15 375.14 128.33 373.67 131.02 
M 379.47 153.08 379.9 154.02 
M 380.01 154.27 381.72 157.99 
M 385.25 166.73 386.36 170.4 
M 387.37 173.93 389.85 181.32 
M 391.39 185.25 396.49 199.21 
M 398.24 100.33 397.32 102.27 396.57 104.39 
M 395.12 108.69 394.41 110.87 390.07 121.06 
M 388.4 125.25 384.76 136.12 
M 391.98 154.76 395.89 166.02 
M 397.12 169.64 398.94 174.96 404.27 189.2 408.28 197.79 
M 408.53 102.8 407.32 104.47 405.35 108.3 404.02 112.8 402.9 117.52 401.51 122 399.21 128.56 
M 397.01 133.66 395.62 136.61 
M 402.83 152.11 405.92 159.81 
M 407.18 163.33 409.87 171.54 412.51 178.43 415.53 185.59 419.93 194.89 
M 419.63 107.39 416.49 113 413.81 119.13 
M 412.26 123.49 411.54 125.72 409.15 135.25 408.01 138.35 
M 414.9 152.85 418.16 160.31 
M 419.81 164.02 421.87 169.13 425.87 179.99 
M 427.28 183.32 430.48 190.26 
M 427.16 116.1 426.17 118.05 419.02 138.6 
M 427.72 156.1 430.79 162.01 432.28 165.36 440.01 184.1 
M 353.27 113.24 352.83 113.46 352.3 114.03 351.79 116.36 351.23 116.84 
M 408.55 111.2 409.03 110.51 408.94 110.19 
M 352.95 181.54 354.09 179.85 354.34 179.23 354.56 177.92 354.42 177.28 354.16 176.77 353.76 176.41 351.26 175.55 350.77 175.25 
M 313.66 123.69 315.49 124.62 317.43 125.87 318.91 126.38 319.33 127.1 
M 396.91 156.97 399.2 154.28 401.08 151.34 402.38 149.95 404.5 148.06 
M 306.64 124.98 304.86 124.57 302.72 124.63 301.97 125.06 300.58 126.9 
M 231.74 147.34 229.81 145.94 228.98 145.59 227.21 145.3 226.48 144.69 
M 236.3 131.31 235.79 132.22 234.86 133.31 232.95 134.67 231.29 136.15 230.22 137.96 
M 362.05 124.86 360.22 123.34 358.14 122.19 351.36 119.69 350.78 119.78 
M 351.79 117.1 350.71 117.57 
M 310.35 194.54 309.8 194.95 307.92 197.74 307.33 198.23 306.45 198.51 304.28 198.45 
M 409.22 140.02 407.78 139.16 407.42 138.78 406.79 136.62 406.2 135.59 
M 337.86 172.27 336.83 172.4 335.09 173.44 333.13 174.3 332.45 174.82 
M 301.77 95.33 300.65 94.99 299.26 93.71 298.75 90.06 
M 382.13 142.96 382.46 142.88 
M 295.5 131.4 294.46 134.21 294.29 135.91 294.51 136.7 294.97 137.53 295.68 138.45 296.57 139.25 
M 412.88 200.11 412.64 200.64 
M 390.19 156.12 391.25 156.86 391.76 157.01 392.69 156.92 393.54 156.38 394.8 154.91 395.47 153.53 395.55 152.87 395.28 151.68 
M 285.07 148.26 285.5 147.72 285.68 147.1 285.85 145.41 285.83 142.39 285.58 140.65 285.01 139.11 284.54 138.36 282.82 136.92 281.98 136.63 
M 305.49 186.86 304.77 186.38 304.57 185.71 305.08 184.65 306.47 182.76 
M 392.51 95.45 392.43 95.31 
M 442.34 163.33 441.42 162.63 440.59 161.53 
M 254.64 115.16 252.95 116.46 252.54 117.03 252.71 118.85 253.63 120.58 254.6 121.81 256.94 123.8 258.23 124.68 
M 389.95 186.98 387.56 187.31 386.81 187.64 386.19 188.18 383.5 192.06 383.11 192.75 382.73 194.17 381.93 195.42 
M 240.9 98.85 239.68 99.76 238.88 99.92 237.98 99.85 237.01 99.56 233.74 98.07 229.98 96.71 226.68 94.47 
M 230.08 104.41 229.11 99.2 228.54 98.02 226.54 95.25 225.87 94.65 223.34 93.49 
M 331.49 181.88 330.38 180.5 329.56 178.12 329.5 177.49 
M 289.61 107.58 290.78 108.54 291.92 109.02 292.53 109.47 
M 273.1 85.1 306.3 33.61 307.16 34.14 276.79 85.98 
M 288.2 84.79 308.67 50.16 309.56 50.65 291.85 85.63 
M 303.31 85.02 314.34 64.83 315.26 65.26 306.9 85.82 
M 318.41 85.04 323.07 76.58 324.02 76.94 321.98 85.63 
M 331.74 85.06 333.48 85.6 
M 304.07 39.42 303.36 42.81 303.2 44.47 303.24 46.09 303.53 47.66 304.05 49.2 304.78 50.7 306.62 53.62 
M 307.74 54.23 307.77 57.56 307.97 59.14 308.36 60.64 308.97 62.04 309.8 63.34 310.83 64.56 313.24 66.85 
M 314.39 67.39 315.21 70.44 315.78 71.84 316.5 73.11 317.42 74.23 318.52 75.19 319.78 76.02 322.61 77.42 
M 323.8 77.88 324.98 80.55 325.7 81.74 326.56 82.76 327.56 83.59 328.73 84.25 330.02 84.74 332.87 85.41 
M 303.67 41.12 303.2 44.47 303.24 46.09 303.53 47.66 304.05 49.2 305.66 52.17 
M 298.67 51.56 298.3 54.12 298.34 55.37 298.96 57.75 300.19 60.03 
M 293.66 62 293.41 63.78 293.58 65.49 294.72 67.89 
M 307.72 55.91 307.97 59.14 308.36 60.64 308.97 62.04 309.8 63.34 312 65.72 
M 304.1 66.35 304.26 68.44 304.52 69.42 305.45 71.18 306.88 72.72 
M 211.73 150.43 401.06 153.03 401.05 154.04 211.7 153.95 
M 211.68 154.96 373.86 166.2 373.8 167.21 211.42 158.46 
M 211.31 159.45 346.34 176.42 346.22 177.42 210.89 162.91 
M 210.78 163.87 318.72 183.68 318.55 184.68 210.42 167.32 
M 210.49 168.3 291.26 188 291.04 188.99 210.73 171.85 
M 210.73 172.89 264.2 189.41 263.92 190.39 210.65 176.3 
M 210.63 177.46 237.75 187.96 237.42 188.91 210.66 180.7 
M 210.58 183.29 212.16 184.19 211.78 185.13 210.42 184.77 
M 381.23 154.03 375.26 155.29 372.36 156.1 369.54 157.1 366.82 158.32 364.2 159.76 361.67 161.39 356.77 165.02 
M 356.69 166.29 350.79 166.91 347.9 167.41 345.08 168.1 342.34 169.03 339.67 170.18 337.07 171.54 332 174.62 
M 331.85 175.88 326.08 175.88 323.23 176.07 320.43 176.47 317.69 177.1 315 177.96 312.36 179.03 307.16 181.56 
M 306.95 182.82 301.34 182.2 298.57 182.09 295.82 182.19 293.1 182.53 290.4 183.11 287.74 183.89 282.46 185.86 
M 282.17 187.1 276.8 185.89 274.12 185.49 271.44 185.3 268.77 185.35 266.1 185.64 263.43 186.14 258.11 187.53 
M 257.75 188.76 252.66 186.99 250.1 186.3 247.52 185.83 244.91 185.59 242.29 185.59 239.64 185.81 234.32 186.63 
M 233.9 187.83 229.11 185.64 226.68 184.73 224.21 184.04 221.7 183.58 219.14 183.35 216.55 183.34 211.3 183.7 
M 378.22 154.62 372.36 156.1 369.54 157.1 366.82 158.32 364.2 159.76 359.2 163.17 
M 353.66 154.56 348.62 155.82 346.2 156.69 343.86 157.74 341.61 158.97 337.3 161.9 
M 329.1 154.49 324.88 155.55 322.85 156.27 319.01 158.19 315.41 160.64 
M 304.54 154.42 301.14 155.28 299.51 155.86 296.41 157.4 293.51 159.38 
M 279.98 154.36 276.16 155.45 273.81 156.62 271.61 158.12 
M 353.72 166.56 347.9 167.41 345.08 168.1 342.34 169.03 339.67 170.18 334.52 173.04 
M 327.31 165.09 322.51 165.79 317.92 167.13 315.72 168.08 311.47 170.44 
M 300.9 163.63 297.11 164.18 293.5 165.24 291.76 165.99 288.42 167.84 
M 274.49 162.17 270.38 162.9 267.81 163.89 265.37 165.24 
M 328.96 175.84 323.23 176.07 320.43 176.47 317.69 177.1 315 177.96 309.75 180.26 
M 299.52 172.67 295.13 172.84 290.88 173.63 288.82 174.29 284.79 176.05 
M 270.08 169.49 267.03 169.61 265.54 169.82 262.64 170.62 259.84 171.85 
M 304.14 182.47 298.57 182.09 295.82 182.19 293.1 182.53 290.4 183.11 285.09 184.83 
M 268.67 176.8 265.05 176.56 263.26 176.62 259.74 177.21 256.29 178.34 
M 279.49 186.45 274.12 185.49 271.44 185.3 268.77 185.35 266.1 185.64 260.77 186.79 
M 255.21 187.83 250.1 186.3 247.52 185.83 244.91 185.59 242.29 185.59 236.98 186.18 
M 274.64 215.37 278.83 221.21 281.74 224.39 284.7 226.92 286.26 229.2 305.81 254.2 305.88 257.75 304.82 260.17 303.99 262.82 300.01 266.71 297.74 268.25 294.74 269.41 293.94 272.69 291.79 274.61 289.32 276.38 286.64 275.82 284.29 275.57 281.39 274.63 273.99 269.72 271.12 270.34 269.62 273.07 267.82 275.5 261.8 273.66 258.62 272.27 256.83 268.06 251.99 259.43 251.97 258.14 250.24 255.55 241.09 248.13 239.39 245.97 234.65 238.63 222.86 216.78 223.24 212.62 221.55 208.49 219.09 204.84 215.81 200.39 
M 269.61 214.93 272.78 218.88 274.66 221.99 276.68 224.93 281.92 229.25 284.81 231.44 289.93 235.81 291.79 238.64 
M 264.58 214.46 267.58 218.11 269.9 221.21 271.79 224.32 273.25 227.47 275.05 230.66 277.82 233.03 280.44 234.49 282.96 236.27 284.15 238.94 285.97 241.87 286.8 246.05 288.49 249.42 291.81 251.56 294.43 252.68 296.81 254.89 299.08 258.15 300.16 260.44 
M 259.62 213.5 264.53 219.92 268.58 226.36 269.94 229.28 271.96 231.93 273.74 234.75 279.85 242.59 280.52 246.27 281.89 249.26 283.94 252.08 286.46 255.17 289.25 258.18 
M 254.67 212.51 257.09 215.73 260.98 221.87 264.97 230.53 268.39 236.18 270.83 239.32 272.41 242.88 273.79 245.46 
M 249.79 211.18 252.09 214.49 253.75 217.42 254.87 220.64 257.59 226.51 259.36 229.8 262.55 235.17 264.03 238.59 264.03 242.05 
M 244.92 209.83 247.14 213.23 250 219.45 251.26 222.46 253.05 228.38 255.25 231.48 258.43 234.37 259.79 236.98 259.23 240.57 260.09 244.46 261.38 247.78 
M 240.12 208.28 242.37 211.96 243.92 214.89 245.32 218.32 246.4 221.74 248.25 227.97 248.92 231.31 250.42 234.35 252.29 237.36 252.86 239.31 253.83 245.78 254.81 248.18 256.5 250.16 258.22 254.32 259.82 257.25 
M 235.31 206.72 236.88 210.92 238.4 214.41 240.33 220.41 244.02 230.15 244.8 233.73 244.86 236.52 246.63 239.41 248.74 241.98 249.8 244.6 251.26 247.51 251.75 250.3 252.87 253.47 254.57 255.95 254.95 259.88 255.69 263.9 257.22 266.89 
M 230.54 205.05 234.31 216.42 236.99 222.48 238.4 228.57 239.47 231.32 240.45 235.06 242.74 241.15 243.93 243.69 246.24 246.49 247.42 248.89 248.12 251.9 
M 225.77 203.38 227.51 207.4 228.62 210.54 229.59 214.66 230.82 218.28 232.46 221.42 232.78 224.3 234.09 226.92 235.63 233.53 236.55 235.19 
M 220.93 201.93 223.16 205.88 224.11 208.8 226.02 212.02 227.21 214.65 228.37 219.22 228.94 223.96 228.97 227.16 
M 421.72 198.64 426.07 203.45 428.56 207.28 431.94 210.07 433.63 212.24 438.96 227.13 438.47 230.44 435.94 232.19 433.22 233.64 430.79 235.49 428.58 237.55 425.49 238.69 422.77 239.01 420.91 238.89 418.1 237.81 414.49 236.68 412.53 239.01 409.97 240.48 406.59 240.9 403.24 240.88 397.68 242 395.19 241.89 391.34 240.38 389.01 240.39 386.51 240.02 383.92 239.07 381.94 238.72 378.41 236.82 371.97 233.81 364.13 225.37 362.27 224.34 358.54 221.87 355.51 218.35 353.09 212.28 
M 416.79 199.74 420.14 203.08 422.52 206.22 425.4 209.21 428 212.41 430.74 216.2 432.79 218.56 434.06 221.46 
M 411.86 200.84 418.01 206.34 419.9 209.6 422.41 212.27 424.7 215.56 426.49 219.36 427.69 221.13 429.94 223.88 
M 406.9 201.84 412.42 207.82 414.3 210.49 415.99 213.39 417.99 215.91 
M 401.95 202.85 405.36 206.25 410.26 212.39 411.72 214.76 413.37 216.75 
M 397.05 204.05 399.72 207.94 404.93 213.87 406.86 216.37 409.17 218.8 410.68 221.7 413.08 223.87 
M 392.14 205.26 395.29 209.25 397.94 211.92 399.9 214.78 402.74 217.67 404.62 220.09 408.12 225.95 
M 387.28 206.65 390.57 210.51 392.63 213.28 395.3 215.55 397.43 218.09 399.43 221.24 402 223.76 403.79 226.45 
M 382.42 208.03 388 215.3 392.3 220.46 394.38 222.71 396.58 224.54 398.72 226.76 
M 377.51 209.21 382.79 216.85 388.73 222.23 391.09 224.58 392.97 226.94 394.37 229.76 396.41 232.02 398.83 233.73 400.54 236.72 402.36 239.2 405.62 240.22 
M 372.6 210.39 375.62 214.47 380.85 220.58 383.54 223.35 387.79 228.59 389.74 232.34 390.71 235.22 392.63 237.89 
M 367.58 211.02 371.27 215.21 373.56 218.34 375.28 221.06 379.65 227 
M 362.57 211.64 369.63 221.99 370.89 225.5 373.09 228.61 376.13 230.88 378.7 234.31 
M 357.53 211.98 360.22 217.04 363.27 219.69 365.05 222.57 
M 441.33 112.36 444.5 111.87 447.68 110.47 450.89 109.39 456.41 106.56 458.5 104.91 461.63 104.19 464.12 102.43 465.65 102.33 469 101.13 471.71 98.69 475.67 95.63 477.89 93.01 481.04 91.13 483.81 91.09 486.05 91.34 487.49 89.35 490 86.95 487.27 95.95 486.98 99.53 486.02 102.44 484.71 105.28 482.67 107.53 480.86 109.99 479.47 112.88 477.76 114.91 476.55 117.44 474.79 123.03 473.54 129.17 470.95 130.86 468.86 133.06 467.63 135.96 467.4 139.69 466.08 142.55 464.14 144.85 464.2 148.3 463.47 150.94 461.88 153.09 461.94 156.89 463.28 165.9 462.76 167.47 463.18 170.12 463.28 173.06 464.01 176.44 466.38 179.84 467.14 182.83 468.04 192.43 468 195.28 467.68 197.73 466.99 199.7 471.33 213.1 467.9 211.89 465.65 211.46 463.74 209.12 461.98 206.34 458.63 204.26 454.77 201.02 450.91 198.14 447.77 196.22 441.33 191.11 
M 444.7 115.87 447.52 115.01 450.84 113.71 457.25 110.61 459.85 109.89 464.84 107.85 467.6 106.3 
M 441.33 120.23 445.03 119.83 448.03 118.96 451.43 118.4 454.84 116.39 457.5 114.27 462.72 112.64 465.49 112.52 468.51 111.58 471.02 111.48 474.6 109.27 478.87 107.18 
M 445.37 124.06 448.76 123.26 451.99 121.78 455.22 121.02 458.01 119.21 461.29 118.86 463.61 118.95 466.55 117.96 
M 452.65 126.06 455.68 125.34 458.7 124.87 461.58 123.93 
M 448.68 133.33 452.73 132.47 455.91 131.36 458.26 131.49 
M 445.7 137.49 449.01 137.52 452.43 137.84 458.83 136.21 462.49 136.75 
M 441.33 139.92 445.76 140.61 453.35 140.87 456.45 140.71 
M 449.61 145.21 456.32 145.13 
M 441.33 147.8 446.15 148.72 449.78 148.96 454.48 150.33 456.9 150.51 458.72 151.04 
M 447.06 153.17 450.72 153.81 453.24 155.65 
M 446.72 157.51 450.69 158.53 459.93 162.13 
M 441.33 159.61 445.34 161.95 448.75 163.24 452.95 163.56 456.75 164.84 460.06 166.62 
M 452.61 168.23 457.28 169.82 
M 441.33 167.48 445.7 169.94 449.49 171.09 453.4 173.23 
M 445.87 173.95 449.3 175.39 456.6 180.09 459.07 182.19 
M 453.53 182.5 455.48 184.46 456.56 187.19 460.86 188.37 
M 452.26 185.76 454.87 188.34 
M 445.8 185.8 449.31 187.78 452.06 190.52 454.91 192.54 
M 441.33 187.17 445.4 189.87 450.9 193.82 455.13 196.04 459.67 198.94 
M 340.7 83.87 344.87 84.51 347.01 84.14 350.42 81.91 352.55 81.69 356.58 86.61 360.58 87.17 362.39 86.55 365.52 84.11 367.5 84.13 370.36 87.45 371.79 88.59 375.82 89.56 378 89.21 381.51 87.36 383.46 88.66 385.58 91.54 387.21 92.28 388.99 92.64 390.83 92.73 392.66 91.97 394.69 91.42 396.93 91.68 399.7 94.93 401.44 96.26 405.59 97.44 411.29 95.63 415.66 100.07 419.02 100.65 421.06 100.8 425.02 100.29 426.54 101.4 429.25 104.56 431.53 106.84 
M 104.57 162.8 107.47 157.56 109.76 153.04 113.13 148.35 118.05 144.28 128.93 136.69 134.09 132.04 140.22 127.06 147.23 122.65 154.91 118.33 162.44 114.47 169.63 111.06 176.86 108.04 189.32 103.4 196.18 101.04 200.19 105.74 202.13 110.73 204.33 115.7 206.79 120.63 208.74 125.62 209.99 130.68 211.79 140.87 211.57 146.08 211.76 151.25 211.65 156.44 210.4 166.94 210.75 172.09 210.67 182.47 210.09 187.71 208.75 193.03 206.04 198.41 191.3 197.7 180.48 196.53 170.84 195.05 162.05 193.3 153.59 191.44 145.82 189.5 138.83 187.51 132.33 185.38 120.82 180.35 
M 183.16 136.41 183.63 140.81 181.92 149.33 180.62 153.09 179.03 156.55 177.88 159.81 178.18 165.78 179.8 171.59 180.62 175.15 180.65 179.26 163.63 178.83 156.83 178.51 150.16 177.97 143.29 177.13 136.73 175.92 130.75 174.32 
M 118.99 180.17 101.64 167.86 100.39 165.66 101.19 163.31 103.45 162.23 105.56 163.3 107.16 165.26 112.59 170.83 120.89 180.27 
M 117.42 181.88 113.13 182.92 
M 110.56 183.35 103.16 184.24 98.08 185.03 95.89 183.94 95.35 181.46 96.84 179.48 99.23 179.14 107.5 179.76 
M 108.55 179.83 119.39 180.16 
M 143.27 155.65 140.36 151.59 138.93 146.79 139.14 141.8 140.96 137.14 144.19 133.33 148.48 130.77 153.38 129.74 158.34 130.36 162.83 132.56 166.36 136.09 168.56 140.58 169.18 145.54 168.15 150.44 165.59 154.73 161.78 157.96 157.12 159.78 152.12 159.99 147.33 158.56 143.27 155.65 
M 163.89 137.86 165.65 141.45 166.14 145.42 165.32 149.33 163.27 152.77 160.22 155.35 156.5 156.81 152.5 156.97 148.67 155.83 145.41 153.51 
M 148.95 148.45 147.79 146.83 147.22 144.91 147.3 142.91 148.03 141.05 149.32 139.52 151.04 138.5 152.99 138.09 154.98 138.34 156.77 139.22 158.19 140.63 159.07 142.43 159.31 144.41 158.9 146.37 157.88 148.08 156.35 149.38 154.49 150.1 152.49 150.19 150.58 149.62 148.95 148.45 
M 149.27 146.78 152.67 150.18 
M 150.53 145.32 155.09 149.87 
M 150.81 142.86 156.88 148.93 
M 152.14 141.47 158.21 147.54 
M 153.4 140 159.05 145.65 
M 154.48 138.35 159.14 143.01 
M 106.71 158.91 112.21 164.4 
M 108.8 154.93 112.24 158.37 
M 111.11 151.17 116.69 156.75 
M 113.8 147.8 119.28 153.28 
M 117.12 145.06 120.99 148.93 
M 120.62 142.5 124.4 146.27 
M 124.2 140.02 127.86 143.67 
M 127.76 137.51 133.76 143.51 
M 131.07 134.76 136.17 139.86 
M 134.27 131.89 137.81 135.43 
M 137.61 129.18 142.59 134.15 
M 141.04 126.54 145.9 131.4 
M 144.76 124.2 150.75 130.18 
M 148.54 121.91 153.9 127.27 
M 152.42 119.73 156.64 123.95 
M 156.34 117.59 161.11 122.36 
M 160.35 115.54 165.61 120.79 
M 164.41 113.53 170.03 119.15 
M 168.52 111.58 174.01 117.07 
M 172.76 109.75 178.47 115.46 
M 177.04 107.97 182.08 113.02 
M 181.49 106.36 187.31 112.18 
M 185.9 104.71 189.85 108.65 
M 190.31 103.05 196.24 108.98 
M 194.81 101.49 200.66 107.35 
M 125.37 170.91 124.6 168.6 122.1 164.74 122.24 164.06 123.25 163.24 
M 106.39 159.47 108.7 157.3 109.19 157.2 109.67 157.83 
M 203.86 149.23 203.98 148.43 203.87 146.21 202.3 140.82 
M 204.06 156.97 203.77 157.4 203.01 157.71 
M 168.85 163.29 166.46 162.99 165.07 163.16 161.44 164.68 157.58 167.01 
M 171.87 188.17 175.55 188.22 
M 149.12 177.24 148.76 177.42 148.61 177.36 148.7 177.24 
M 136.76 180.84 138.47 180.06 140.8 179.49 142.1 178.92 143.42 177.97 144.35 177.04 144.91 176.32 145.75 174.7 
M 164.48 174.03 164.61 171.59 164.39 170.72 163.48 168.87 163.17 167.64 162.46 167.29 
M 120.69 147.92 119.43 147.54 118.12 147.85 116.58 150.1 
M 143.7 178.75 144.9 177.66 146.72 175.46 147.43 175.13 148.18 174.96 148.71 175.06 149.02 175.32 149.38 176.35 149.12 177.17 
M 201.43 197.61 200.46 196.96 199 195.11 197.64 192.73 
M 192.08 126.67 189.74 127.14 189.2 127.55 
M 121.82 148.5 121.01 147.78 120.3 147.42 119.63 147.31 118.54 147.43 117.87 147.84 117.17 149.34 116.8 149.77 
M 166.82 132.98 164.47 132.6 163.38 132.14 160.62 130.44 158.38 129.66 157.17 128.85 156.71 128.83 
M 123.6 181.61 121.6 179.29 121.03 178.12 119.95 174.96 117.34 171.41 116.55 170.05 116.43 169.54 
M 183.16 149.31 186.39 150.13 187.23 150.85 
M 153.14 177.97 148.94 178.68 
M 192.9 106.12 191.07 104.18 190.35 103.04 
M 186.79 160.31 187.08 160.68 186.99 160.95 186.7 161.09 
M 156.27 173.45 155.64 175.39 154.67 176.61 153.23 177.34 149.14 178.39 
M 138.97 145.99 136.88 144.82 136.31 144.65 135.44 144.69 134.8 144.98 
M 133.63 140.64 133.5 141.78 132.67 144.11 132.46 145.93 132.84 147.13 134.26 148.96 
M 209.94 163.95 207.68 161.81 206.96 161.35 204.99 160.63 200.23 160.33 199.25 160.53 197.6 161.7 
M 138.85 130.88 138.79 132.1 137.84 134.65 137.81 137.3 137.06 139.31 
M 141.91 169.14 141.8 168.16 140.83 166.82 140.46 165.94 140.15 165.61 139.7 165.63 
M 181.37 145.65 181.71 146.6 182.22 147.14 184.9 148.63 186.75 150.2 
M 132.53 185.45 132.38 184.64 132.5 183.96 132.83 183.37 134.49 181.67 134.97 181.36 
M 182.13 117.64 181.14 118.87 180 119.89 178.75 120.63 178.16 120.8 177.16 120.88 175.88 120.62 173.78 119.44 
M 203 118.41 201.92 117.27 199.83 116.43 197.4 115.21 
M 203.6 175.28 203.52 174.27 203.66 173.01 204.29 170.44 204.35 169.52 203.97 168.72 203.13 168.13 202 167.91 200.03 167.16 198.97 166.91 195.07 166.49 
M 157.3 178.93 155.84 179.03 154.22 179.46 153.51 179.43 
M 197.9 191.2 197.19 190.8 196.54 189.98 196 188.95 195.28 186.94 194.34 186.34 192.09 185.89 
M 194 145.86 190.86 146.26 189.36 146.9 188.2 147.74 187.24 148.84 186.95 149.26 186.9 149.95 
M 132.23 163.13 131.39 164.4 130.26 166.85 130.26 168.93 129.67 169.96 
M 130.13 152.98 132.16 153.48 134.28 153.6 136.47 154.21 136.86 154.21 137.08 153.99 
M 155.86 184.84 156.72 184.45 157.49 183.46 159.08 180.47 159.53 179.15 159.67 178.12 
M 146.67 183.58 146.81 184.4 147.07 184.8 148.68 185.91 
M 134.66 169.05 135.28 169.39 136.15 169.45 137.17 169.41 138.38 169.13 139.91 168.32 140.34 167.79 140.4 167.34 
M 199.46 164.33 195.51 165.72 194.71 165.82 188.17 165.45 
M 122.16 181.56 120.95 182.62 119.55 183.57 118.02 184.33 116.36 184.83 114.6 184.97 112.88 184.65 111.32 183.94 110 182.93 108.92 181.76 105.53 176.64 104.1 173.96 105.71 176.51 108.66 179.96 110.82 181.91 112.01 182.6 113.29 182.97 114.58 183.02 115.82 182.73 117 182.17 118.1 181.41 120.02 179.42 
M 122.39 187.95 119.71 193.47 118.16 196.19 116.37 198.8 114.3 201.22 111.92 203.37 109.26 205.13 106.45 206.57 103.54 207.73 100.57 208.65 94.59 210.03 85.61 211.5 82.76 212.18 80.07 213.3 77.54 214.78 75.21 216.6 70.67 220.63 63.48 226.2 59.04 230.25 57.04 232.49 55.2 234.88 53.55 237.39 52.15 240.05 51.11 242.87 50.47 245.81 50.14 248.82 50.03 251.84 50.42 257.89 49.94 251.84 49.97 248.81 50.21 245.78 50.77 242.78 51.76 239.88 53.1 237.14 54.71 234.53 56.5 232.06 58.46 229.72 62.86 225.47 69.88 219.7 74.3 215.55 76.7 213.57 79.35 211.92 82.23 210.62 85.25 209.81 94.17 208.08 99.97 206.57 102.76 205.62 105.45 204.45 108.01 203.06 110.35 201.41 112.41 199.43 114.22 197.19 115.79 194.75 117.17 192.16 119.63 186.7 
M 122.28 188.29 118.99 196.66 116.17 205.32 115.03 208.21 113.65 211.03 112.04 213.7 104.89 223.53 103.28 226.03 101.86 228.63 100.67 231.32 99.84 234.15 98.83 240.02 98.59 242.99 98.64 245.95 99.1 248.88 99.86 251.75 100.95 254.51 102.42 257.08 104.31 259.35 106.58 261.27 109.14 262.78 111.93 263.87 114.85 264.58 117.83 264.96 120.85 265.08 126.88 264.64 132.84 263.55 126.9 264.73 120.85 265.34 117.81 265.3 114.77 265.01 111.78 264.37 108.89 263.33 106.19 261.84 103.77 259.91 101.72 257.58 100.09 254.94 98.88 252.09 98 249.12 97.43 246.07 97.29 242.97 97.45 239.89 98.32 233.79 99.12 230.78 100.3 227.89 101.7 225.12 103.29 222.48 110.14 212.49 111.59 209.94 112.8 207.27 113.8 204.49 115.02 200.38 
M 122.04 188.85 121.56 191.26 120.28 194.32 119.33 195.74 
M 109.02 202.34 106.88 202.66 94.72 202.61 85.71 203.59 70.55 204.12 61.58 205.25 55.68 206.44 52.78 207.22 47.16 209.37 44.49 210.74 41.99 212.39 39.69 214.33 37.6 216.5 35.71 218.85 34.01 221.35 32.49 223.97 30 229.49 32.41 223.93 33.86 221.26 35.49 218.7 37.34 216.27 39.39 214.02 41.67 211.98 44.18 210.22 46.86 208.75 49.65 207.49 52.51 206.4 58.4 204.78 64.39 203.63 70.42 202.74 85.54 201.78 94.58 200.53 97.66 200.36 106.65 200.24 109.44 199.76 112.02 198.74 114.01 197.46 
M 119.18 187.74 119.2 187.59 
M 120.87 180.29 121.85 181.16 
M 113.79 176.5 113.67 177.89 114.14 177.14 114.43 176.98 
M 107.31 171.92 106.51 173.19 106.25 175.3 106.96 173.59 108.24 172.56 
M 101.17 167.04 99.33 169.64 98.83 172.7 99.79 170.04 101.96 168.09 
M 120.57 180.52 122.1 180.43 
M 112.92 180.04 113.24 178.84 113.95 177.92 113.85 178.8 114.37 180.1 
M 105.43 179.61 105.7 177.16 106.8 175.35 106.3 177.13 106.9 179.72 
M 97.95 179.32 98.15 175.49 99.65 172.78 98.76 175.45 99.39 179.15 
M 105.32 183.97 111.97 185.95 116.33 186.87 120.72 187.47 125.16 187.8 129.67 187.9 138.83 187.51 
M 109.58 184.99 109.71 185.31 
M 200.81 107.32 203.2 109.71 
M 200.7 99.13 211.3 109.73 
M 206.51 96.86 217.39 107.74 
M 212.97 95.24 224.8 107.06 
M 219.79 93.96 227.04 101.22 
M 226.89 92.99 235.51 101.61 
M 234.09 92.1 243.83 101.84 
M 240.94 90.87 247.7 97.62 
M 247.72 89.56 255.56 97.41 
M 254.5 88.26 265.49 99.25 
M 261.55 87.23 272.92 98.6 
M 268.88 86.47 277.08 94.67 
M 276.49 85.99 286.7 96.21 
M 284.31 85.73 293.68 95.11 
M 292.28 85.63 301.67 95.01 
M 300.46 85.72 309.73 94.99 
M 308.67 85.84 319.28 96.45 
M 316.72 85.81 326.31 95.4 
M 324.56 85.57 333.17 94.17 
M 332.67 85.6 342.38 95.3 
M 341.45 86.29 352.9 97.74 
M 350.58 87.33 357.34 94.09 
M 359.89 88.56 366.21 94.88 
M 369.35 89.94 376.35 96.93 
M 379.44 91.95 386.81 99.31 
M 390.32 94.74 401.6 106.02 
M 401.4 97.74 410.4 106.74 
M 412.14 100.39 420.09 108.34 
M 423.57 103.74 430.04 110.21 
M 438.92 111 444.28 116.36 
"/></svg>