<svg xmlns="http://www.w3.org/2000/svg" width="520" height="320"><rect x="0" y="0" width="520" height="320" fill="floralwhite"/><rect x="10" y="10" width="500" height="300" stroke="black" stroke-width="1" fill="none"/><path stroke="black" stroke-width="1" fill="none" stroke-linecap="round" stroke-linejoin="round" d="
M 166.73 145.82 174.02 141.58 181.29 137.77 188.55 134.3 203.08 127.93 210.34 125.35 217.61 123.46 224.87 122.03 246.67 121.34 253.93 122.57 261.2 125.02 268.46 128.05 290.26 137.98 297.52 141.68 319.32 154.51 341.83 166.98 
M 341.83 198.19 326.58 208.55 319.32 213.28 312.05 217.61 304.79 221.71 297.52 225.26 282.99 231.85 275.73 234.27 268.46 236.38 261.2 238.29 253.93 239.29 246.67 239.97 239.4 239.68 232.14 239.69 224.87 239.91 217.61 238.56 210.34 236.35 203.08 233.77 195.81 230.93 188.55 228.46 181.29 225.53 174.02 221.79 159.52 212.95 
M 341.83 175.09 323.23 171.16 308.44 168.77 297.08 166.59 289.81 165.54 
M 286.96 165.13 282.77 164.52 278.65 163.66 
M 275.95 162.91 266.46 160.39 253.72 157.66 248.44 157.51 244.31 157.74 
M 241.55 158.02 232.06 158.89 220.66 160.5 217.8 160.69 213.7 160.64 
M 211.05 160.53 208.43 160.46 
M 205.74 160.45 204.37 160.47 200.04 161.01 
M 194.19 162.01 191.28 162.58 
M 188.39 163.15 182.58 164.2 
M 173.53 165.82 171.98 166.12 
M 168.2 207.88 172.84 213.52 
M 182.8 218.93 186.08 222.81 
M 183.65 213.83 185.88 216.53 
M 187.98 219.16 190.02 221.71 
M 168.62 187.93 169.38 189.08 
M 188.76 214.08 190.83 216.81 
M 192.82 219.44 194.84 221.95 
M 170.09 182.85 175.07 190.62 
M 195.5 217.11 197.49 219.7 
M 171.29 177.02 178.99 189.21 
M 198.44 215 200.19 217.33 
M 172.01 169.86 174.88 174.74 182.97 187.66 
M 203.98 216.02 207.34 219.97 
M 209.6 222.4 211.87 224.72 
M 171.05 159.8 174.31 164.97 180.97 176.51 
M 183.04 179.81 187.65 186.98 
M 209.37 216.47 212.54 220.16 
M 167.13 145.59 171.46 152.55 174.5 157.09 
M 176.53 160.13 179.45 164.85 184.95 175.01 189.08 181.55 192.53 186.47 
M 215.53 217.77 220.94 223.93 225.87 228.9 
M 170.45 143.66 180.63 158.46 182.59 161.63 189.86 175.06 194.06 181.53 197.54 186.1 
M 216.39 212.4 219.56 216.59 222.67 220.35 
M 228.48 226.5 231.76 229.58 
M 173.76 141.73 183.47 155.37 187.48 161.72 194.78 175.01 196.86 178.25 202.04 185.05 
M 219.92 210.43 222.37 213.83 225.42 217.66 
M 229.27 221.94 232.76 225.55 
M 235.98 228.6 239.29 231.13 
M 177.13 139.94 186.15 152.38 190.39 158.6 192.38 161.7 197.91 171.57 200.96 176.49 
M 203.29 179.67 206.73 183.96 
M 223.72 208.84 226.07 212.04 
M 230.05 216.88 231.92 218.97 
M 237.13 224.59 238.81 226.25 
M 180.43 138.21 182.59 140.94 195.29 158.62 197.34 161.67 203.09 171.46 205.22 174.72 211.39 182.59 
M 226.47 205.67 230.72 211.3 
M 232.69 213.66 234.59 215.86 
M 243.5 225.52 245.25 227.09 
M 183.68 136.62 187.46 141.19 200.25 158.71 202.36 161.74 207.36 169.78 
M 209.63 172.97 215.78 180.8 216.91 182.49 
M 225.47 196.87 231.18 205.21 
M 233.27 207.93 239.14 214.96 
M 241.03 217.16 242.89 219.26 
M 246.53 223.14 251.63 227.95 
M 186.85 135.11 190.42 139.02 192.54 141.68 204.1 157.53 
M 206.14 160.54 209.16 165.21 212.55 169.86 
M 215.05 172.9 218.79 177.52 219.88 179.12 
M 221.91 182.34 224.22 186.44 
M 228.17 193.52 231.55 198.78 
M 233.7 201.84 237.84 207.17 
M 239.86 209.59 241.87 211.93 
M 251.25 222.53 254.43 225.93 
M 189.97 133.69 193.31 137.09 197.62 142.27 205.78 153.69 211.7 162.58 213.87 165.57 220.15 172.89 
M 222.56 175.97 224.74 179.2 
M 226.7 182.5 233.05 193.82 237.23 199.98 240.37 204.01 
M 242.49 206.51 246.71 211.25 
M 252.44 217.96 254.09 220.01 
M 193.08 132.36 198.32 137.62 200.48 140.11 202.53 142.81 208.54 151.5 214.19 160.1 216.29 162.96 223.76 171.42 226.2 174.53 228.43 177.82 231.35 182.78 
M 234.85 189.07 237.57 193.61 241.79 199.53 243.98 202.23 249.44 208.3 
M 251.49 210.62 255.15 215.18 
M 256.75 217.36 258.24 219.5 
M 196.16 131.03 201.03 135.76 205.37 140.68 209.46 146.45 216 156.29 
M 220.02 161.63 227.28 170 
M 229.7 173.17 231.94 176.48 
M 233.99 179.79 240.15 190.4 242.08 193.36 246.47 199.21 251.97 205.41 
M 254.02 207.7 255.92 210 
M 257.64 212.33 259.22 214.67 
M 263.46 221.57 264.88 223.74 
M 267.98 227.66 269.7 229.35 
M 199.25 129.65 203.82 133.92 208.24 138.65 212.39 144.25 219.9 155.08 223.81 160.08 230.79 168.39 233.16 171.65 236.44 176.69 
M 238.41 179.9 243.65 188.71 
M 245.63 191.68 248.88 196.14 254.28 202.53 
M 256.31 204.83 259.1 208.31 263 214.45 
M 202.47 128.2 206.86 132 209.09 134.14 211.26 136.53 213.34 139.16 218.31 146.05 
M 220.23 148.67 224.76 154.8 233.1 165.12 238.7 173.36 
M 240.7 176.57 245.05 183.88 247.95 188.36 
M 252.26 194.35 256.45 199.59 
M 258.48 202 261.28 205.58 263.7 209.3 
M 270.08 219.41 271.79 221.74 
M 275.31 225.77 277.11 227.44 
M 206.2 126.82 210.12 129.95 212.31 131.97 214.42 134.25 225.94 149.64 232.45 157.89 
M 234.47 160.52 239.81 168.2 242.82 172.99 
M 244.6 176 246.3 178.87 
M 248.08 181.76 253.3 189.45 258.68 196.57 
M 260.74 199.17 264.39 204.18 
M 265.99 206.7 267.59 209.26 
M 272.8 216.99 274.58 219.42 
M 210.2 125.4 213.5 127.86 215.61 129.76 217.62 131.9 219.52 134.28 225 141.9 236.09 156.2 243.13 166.25 
M 245.04 169.34 249.26 176.68 254.25 184.25 
M 256.49 187.42 265.14 198.93 
M 266.91 201.54 270.15 206.69 
M 273.7 211.93 275.58 214.54 
M 214.59 124.25 216.82 125.88 219.78 128.67 
M 221.61 130.79 227.74 139.11 235.21 148.58 241.66 157.16 
M 243.67 159.89 246.66 164.28 252.52 174.66 
M 254.37 177.65 258.6 183.96 
M 265.63 193.22 267.73 196.09 
M 272.93 204.15 274.63 206.79 
M 280.34 214.7 282.2 217.12 
M 218.72 123.24 221.84 125.81 223.61 127.68 230.35 136.46 236.09 143.29 244.33 154.16 
M 246.34 156.72 248.35 159.47 
M 250.23 162.37 255.92 172.88 258.67 177.51 
M 260.75 180.67 264.28 185.47 267.98 190.11 
M 270.26 193.12 272.28 196.03 
M 274.06 198.86 275.74 201.6 
M 279.29 206.99 283.21 212.31 
M 222.63 122.47 224.59 124.14 226.3 125.91 232.88 133.97 238.7 140.44 244.04 147.73 249.91 154.98 251.92 157.64 253.78 160.53 255.46 163.51 259.42 171.28 
M 265.25 180.7 273.76 191.6 276.66 196.1 
M 280.19 201.77 282.06 204.49 
M 226.4 121.97 229.64 125.11 
M 231.22 126.89 233.66 129.68 239.3 135.53 242.11 138.84 
M 243.89 141.23 246.48 144.95 249.28 148.57 
M 251.28 150.95 255.29 156 
M 257.17 158.83 258.92 161.83 
M 260.57 164.94 264.71 172.97 266.61 176.09 269.95 180.68 
M 272.42 183.8 277.11 190.11 
M 279.1 193.21 280.95 196.23 
M 290.69 209.8 294.5 214.7 
M 298.41 218.92 299.57 220.01 
M 230.49 121.8 240.02 130.95 243.74 134.94 245.52 137.2 250.71 144.64 256.65 151.82 259.6 155.8 
M 263.28 161.77 269.42 172.97 271.45 176.07 274.95 180.7 
M 279.56 187.06 283.46 193.32 
M 287.34 199.19 289.36 201.9 
M 291.36 204.5 295.28 209.62 
M 297.18 212.09 299.1 214.41 
M 235 121.69 242.8 128.39 246.39 132.19 248.12 134.4 253.25 141.82 258 147.79 
M 260 150.23 262.99 154.22 267.83 161.73 
M 269.68 164.91 272.45 169.79 275.6 174.59 
M 277.88 177.7 281.28 182.4 289.01 194.84 295.92 204.09 
M 240.3 121.58 243.89 124.36 247.42 127.59 250.83 131.65 255.03 137.65 
M 256.77 140.05 258.58 142.42 
M 260.48 144.79 263.44 148.5 268.55 155.57 
M 270.6 158.58 276.48 168.27 
M 278.65 171.54 284.25 179.36 288.97 187.13 
M 292.65 192.9 294.55 195.56 
M 298.45 200.82 302.36 206.26 
M 245.8 121.37 248.54 123.55 251.94 127.01 263.08 141.71 
M 265.01 144.18 269.08 149.61 
M 271.16 152.53 274.22 157.08 280.28 166.8 288.09 177.86 
M 289.98 180.87 294.43 188.1 297.17 192.05 
M 308.81 208.48 310.76 210.98 
M 252.27 122.29 256.37 126.74 268.66 142.5 274.7 151.12 282.76 163.66 289.68 173.23 292.66 177.67 
M 294.49 180.54 296.27 183.34 
M 298.05 186.03 299.86 188.65 
M 301.7 191.3 303.57 194.06 
M 305.5 196.95 307.48 199.89 
M 309.48 202.78 311.48 205.58 
M 258.79 124.21 262.67 128.69 269.54 137.22 276.19 146.9 
M 278.16 149.87 285.19 160.5 293.18 171.43 
M 295.22 174.41 297.12 177.3 
M 298.96 180.11 300.78 182.84 
M 310.17 196.86 314.19 202.73 
M 265.91 126.98 268.99 130.54 272.37 134.82 283.64 151.51 296.82 169.56 303.55 179.84 
M 307.3 185.42 314.97 197.05 
M 316.95 200.01 318.95 202.93 
M 273.47 130.4 276.8 134.95 279.45 138.95 
M 281.3 141.74 283.21 144.53 
M 285.2 147.29 297.45 163.06 300.59 167.68 
M 302.52 170.77 305.41 175.38 312.16 185.53 
M 317.86 194.46 319.78 197.43 
M 279.99 133.41 285.89 141.77 
M 287.91 144.44 298.13 156.73 300.41 159.71 302.55 162.79 309.32 173.76 
M 311.29 176.78 313.26 179.76 
M 315.19 182.76 317.1 185.81 
M 318.98 188.88 320.83 191.92 
M 326.46 200.88 328.15 203.49 
M 286.78 136.44 287.24 137.04 
M 288.7 138.95 295.17 146.85 
M 297.49 149.51 303.3 156.51 306.48 161.16 
M 308.5 164.34 316.29 176.77 
M 320.16 183.03 322.02 186.2 
M 295.24 140.51 303.79 150.71 308.3 156.54 312.62 162.88 321.32 176.98 
M 304.97 146.09 309.96 152.22 
M 312.32 155.23 316.81 161.57 
M 318.85 164.72 323.52 172.54 335.27 193.46 
M 314.62 151.8 318.81 157.14 323.11 163.52 326.76 169.83 331.12 178.02 
M 334.66 184.64 336.46 187.84 
M 339.98 193.95 341.21 196.1 
M 323.63 156.89 327.23 162.35 
M 329.07 165.57 337.61 181.98 
M 341.18 188.37 341.83 189.51 
M 331.07 161.04 337.24 172.67 
M 338.93 175.95 341.83 181.53 
M 337.52 164.61 341.83 172.71 
M 169.46 144.23 167.48 147.19 
M 177.25 139.88 174.38 143.58 169.16 151.51 
M 186.13 135.45 183.11 138.53 179.07 143.54 170.29 156.94 
M 196.72 130.78 190.04 136.77 185.89 141.08 183.83 143.62 181.9 146.35 179.09 150.76 
M 177.13 153.87 171.54 162.11 
M 207.67 126.3 200.85 131.8 197.01 135.39 191.99 140.4 
M 189.85 142.72 186.75 146.55 183.94 150.81 
M 182.09 153.81 177.94 160.08 
M 175.63 163.32 173.26 166.61 
M 216.13 123.85 210.76 127.99 206.02 131.99 201.92 135.83 198.1 139.86 191.78 146.95 189.79 149.61 185.02 156.98 
M 182.96 160.06 178.39 166.51 
M 176 169.82 171.51 176.14 
M 222.9 122.42 213.87 129.81 206.99 136.24 202.99 140.38 195.83 148.73 
M 193.81 151.33 185.68 163.33 
M 183.41 166.58 178.73 173.16 
M 172.22 182.7 170.23 185.87 
M 228.05 121.9 221.34 127.65 216.83 131.91 207.93 141.04 202.8 146.78 
M 198.78 151.69 195.78 155.68 190.58 163.34 
M 188.32 166.65 183.75 173.3 
M 181.54 176.53 179.4 179.69 
M 177.27 182.84 173.19 189.22 
M 232.41 121.72 227.73 125.95 223.86 129.71 209.78 145.18 
M 207.69 147.48 202.7 153.33 198.71 158.67 189.78 171.71 182.34 183.02 
M 180.19 186.21 178.1 189.42 
M 169.07 204.99 167.12 207.86 
M 236.44 121.66 231.85 125.96 228.13 129.81 221.13 138.11 
M 218.97 140.75 213.67 147.04 208.44 152.79 
M 206.5 155.12 203.67 158.89 195.89 169.92 
M 185.28 186.4 184.79 187.15 
M 240.38 121.58 236.19 125.63 232.28 129.76 225.76 137.98 
M 223.75 140.66 218.58 147.38 212.08 154.62 209.22 158.17 
M 203.32 166.52 197.46 174.95 192.44 183.18 
M 244.36 121.43 238.71 127.12 233.85 132.8 
M 232.04 135.18 222.33 148.61 
M 220.14 151.24 214.68 157.5 211.93 161.24 
M 210.18 163.87 200.46 178.14 195.75 186.44 
M 181 211.06 180.04 212.38 176.76 216.22 
M 248.02 121.57 243.38 126.31 239.32 131.06 235.6 135.97 229.09 145.43 
M 224.95 150.99 220.54 156.34 
M 218.43 158.97 214.82 164.25 
M 213.16 166.97 207.05 176.28 
M 204.85 179.61 201.64 185.15 
M 186.06 211.55 184.32 213.85 
M 251.34 122.13 248.03 125.48 243.91 130.31 240.12 135.42 237.43 139.35 
M 235.59 142.07 230.71 149.11 222.3 160.19 218.79 165.75 216.46 169.95 
M 214.72 172.93 208.35 182.73 
M 254.67 122.82 250.5 127.16 246.45 132.18 242.72 137.51 237.28 145.78 229.19 156.89 226.27 161.25 
M 224.5 164.18 222.91 167.09 
M 221.41 169.96 219.88 172.89 
M 218.15 175.97 214.08 182.25 
M 194.28 214.23 194.14 214.42 
M 257.87 123.9 254.93 126.81 252.9 129.13 248.91 134.32 239.8 148.11 233.91 156.38 230.18 162.29 223.11 175.98 
M 221.28 179.12 219.2 182.35 
M 198.54 215.02 196.86 217.19 
M 194.97 219.58 191.42 223.7 
M 261.19 125.02 257.36 128.87 255.29 131.31 251.32 136.67 236.6 158.92 234.04 163.52 
M 232.46 166.74 228.7 174.67 226.08 179.27 
M 224.08 182.39 222.16 185.23 
M 199.68 219.8 197.82 222.08 
M 264.38 126.35 259.82 131.01 255.71 136.28 250.08 144.69 240.29 160.15 
M 237 166.63 234.8 171.68 232.47 176.5 
M 230.74 179.59 225.71 187.15 
M 204.61 219.9 202.68 222.21 
M 267.54 127.66 264.43 130.74 262.28 133.11 260.19 135.72 256.26 141.46 251.08 149.7 245.91 158.18 242.25 164.69 237.75 175.07 235.26 179.86 
M 231.37 185.93 229.27 189.02 
M 270.56 129.03 266.89 132.76 264.75 135.18 262.68 137.85 258.85 143.71 249.61 159.35 
M 247.74 162.61 245.88 165.99 
M 244.17 169.48 242.64 173.04 
M 239.61 179.86 237.83 183 
M 235.89 186.04 231.88 192.25 
M 226.43 202.36 225.68 203.84 
M 222.82 209.36 221.08 212.33 
M 273.52 130.43 269.39 134.86 267.28 137.34 265.26 140.07 261.54 145.97 252.2 162.2 
M 248.34 168.91 247.42 170.63 245.06 175.93 
M 243.59 179.4 241.17 184.36 238.33 189 
M 232.9 198.74 231.17 202.09 
M 218.02 222.71 215.98 224.9 
M 276.54 131.83 271.92 137.21 267.97 142.54 264.29 148.43 254.58 165.12 
M 252.57 168.41 249.7 173.45 247.37 178.64 
M 245.92 182.12 244.38 185.51 
M 240.89 191.89 237.47 198.39 
M 230.54 211.36 228.71 214.51 
M 226.81 217.48 222.96 222.73 
M 216.9 229.03 213.63 231.64 
M 279.71 133.28 274.49 139.88 272.61 142.5 267.1 151.13 261.79 160.22 253.91 172.98 252.11 176.26 250.54 179.66 248.45 184.97 
M 246.99 188.41 244.55 193.26 238.64 204.25 
M 235.11 210.44 232.35 215.09 227.63 222.25 
M 225.76 224.79 223.85 227.09 
M 283.02 134.79 275.3 145.43 266.25 160.17 259.19 171.28 
M 255.58 177.58 253.3 182.64 251.27 187.98 
M 249.86 191.4 247.52 196.21 245.02 200.73 
M 241.5 206.66 239.67 209.63 
M 237.82 212.6 235.93 215.56 
M 234.02 218.49 228.36 226.53 
M 286.45 136.3 281.57 143.12 278 148.44 270.95 160.1 261.66 174.45 
M 259.89 177.52 257.6 182.34 254.2 190.97 
M 248.04 203.23 245.37 207.5 240.52 214.74 
M 289.99 137.86 286.17 143.13 282.47 148.67 273.63 163.31 266.19 174.54 
M 264.34 177.6 262.01 182.27 258.56 190.53 
M 257.09 193.79 253.42 201.35 251.86 204.14 248.32 209.74 243.24 216.82 
M 233.02 229.27 231.12 231.39 
M 293.52 139.64 287.11 148.63 283.5 154.4 276.38 166.65 271 174.52 
M 267.34 180.71 263.11 190.26 
M 261.58 193.42 253.85 207.73 
M 252.08 210.54 250.15 213.37 
M 297.12 141.47 290.12 151.32 286.33 157.37 283.71 162.08 
M 282.05 165.24 279.37 169.98 273.04 179.12 271.32 182.22 267.03 191.68 258.05 207.15 
M 252.8 215.51 249.68 219.5 246.38 223.15 
M 241.94 227.56 239.76 229.55 
M 300.62 143.51 295.29 151.03 289.3 160.39 284.38 170.11 282.56 173.23 276.34 182.28 270.83 193.11 
M 269.07 196.06 264.43 202.89 261.98 206.82 
M 260.42 209.48 258.82 212.19 
M 257.09 214.91 255.22 217.57 
M 253.21 220.13 251.1 222.54 
M 304.12 145.59 298.54 153.72 294.43 160.08 292.47 163.41 287.5 173.28 285.65 176.35 281.46 182.4 278.62 187.03 
M 276.94 190.1 273.57 196.04 
M 271.66 198.83 269.66 201.51 
M 267.69 204.12 264.99 207.98 260.15 215.83 257.43 219.57 
M 307.62 147.67 297.59 163.05 295.62 166.43 290.36 176.29 282.31 188.69 277.89 196.13 
M 276.05 198.9 274.06 201.55 
M 272 204.13 269.99 206.69 
M 266.41 211.84 262.2 218.14 260.43 220.48 257.64 223.74 
M 255.7 225.77 253.7 227.69 
M 247.39 232.6 245.79 233.65 
M 311.21 149.82 300.56 166.08 293 179.16 287.97 187.16 
M 285.94 190.28 279.47 200.4 270.55 211.86 
M 266.91 216.92 265.12 219.31 
M 263.33 221.55 261.52 223.62 
M 315.01 152.03 303.32 169.16 294.56 183.57 
M 292.57 186.85 288.61 193.32 
M 286.69 196.34 282.05 203.18 277.06 209.48 
M 275.07 211.98 271.15 216.97 
M 265.41 223.75 262.65 226.53 259.92 228.86 
M 319 154.33 317.16 157.02 308.22 169.1 302.97 176.92 
M 301 179.97 296.1 187.82 290.4 197.66 285.73 204.58 
M 283.82 207.16 281.84 209.69 
M 279.83 212.18 275.72 217.05 
M 273.67 219.44 271.64 221.74 
M 323.04 156.56 320.31 160.29 316.82 164.63 
M 314.45 167.59 310.98 172.2 300.62 187.12 291.33 203.15 286.62 209.82 
M 284.63 212.35 278.32 219.42 
M 272.11 225.9 270.08 227.71 
M 268.07 229.29 266.12 230.66 
M 326.98 158.74 323.25 163.53 316.04 172.19 305.24 186.82 302.26 191.25 
M 300.36 194.44 296.76 201.05 
M 294.98 204.16 292.24 208.45 290.34 211.11 287.32 214.85 
M 283.05 219.38 280.89 221.53 
M 330.76 160.86 328.33 163.98 321.14 172.37 311.12 185.48 
M 308.97 188.23 306.89 191.03 
M 304.9 193.99 299.48 203.63 
M 297.7 206.71 293.97 212.27 
M 285.6 221.43 283.45 223.43 
M 281.35 225.38 279.29 227.28 
M 334.43 162.92 323.87 175.63 309.59 193.94 
M 307.63 196.89 305.76 199.99 
M 303.97 203.16 300.37 209.23 
M 298.52 212 296.62 214.58 
M 294.64 217 292.55 219.26 
M 338.1 164.93 328.79 176.17 323.21 183.28 
M 320.98 186.1 316.56 191.53 
M 314.42 194.19 312.36 196.94 
M 310.41 199.84 308.53 202.84 
M 306.68 205.87 302.1 212.97 299.35 216.69 
M 341.78 166.95 333.57 176.8 321.43 191.97 
M 313.21 202.74 311.3 205.6 
M 303.96 216.3 302.37 218.39 
M 341.83 173.18 329.58 188.5 323 196.34 317.97 202.88 
M 314.07 208.25 310.27 213.47 
M 341.83 179.56 333.28 190.39 
M 331.07 192.99 324.69 200.7 
M 322.71 203.26 318.79 208.34 
M 341.83 186.13 338.03 190.93 
M 335.85 193.52 331.49 198.63 
M 341.83 192.51 340.55 194.01 
M 336.2 199.11 334.83 200.75 
M 209.12 124.93 242.43 30 243.11 30.23 211.83 124.96 
M 219.59 122.39 246.9 50.54 247.58 50.79 222.28 122.54 
M 230.33 121.24 253.61 70.41 254.27 70.7 232.93 121.72 
M 241.11 120.94 258.7 87.55 259.35 87.86 243.72 121.45 
M 251.92 121.7 265.12 103.63 265.71 104.03 254.32 122.71 
M 262.21 125.01 269.31 118.22 269.85 118.68 264.4 126.36 
M 274.75 130.61 275.73 131.46 
M 239.95 39.78 239.99 43.98 240.45 48.08 241.56 52.03 244.17 57.73 
M 245.02 58.04 245.54 62.23 246.47 66.28 248.02 70.1 251.28 75.5 
M 252.11 75.86 252.54 81.25 253.45 84.64 254.99 87.83 256.94 90.89 
M 257.75 91.29 258.63 96.49 259.81 99.7 261.61 102.65 263.8 105.43 
M 264.55 105.94 264.57 109.09 265 112.12 266.06 114.95 268.6 118.89 
M 269.28 119.49 269.82 122.51 270.74 125.33 272.25 127.85 275.39 131.17 
M 239.95 41.89 240.15 46.05 240.45 48.08 241.56 52.03 243.22 55.85 
M 238.24 47.64 238.43 51.51 239.15 55.26 239.74 57.07 241.29 60.62 
M 236.53 53.4 236.71 56.97 236.97 58.72 237.92 62.12 239.35 65.4 
M 234.83 59.15 234.99 62.44 235.23 64.04 236.1 67.16 237.42 70.18 
M 233.12 64.9 233.49 69.36 234.28 72.21 235.48 74.96 
M 231.42 70.66 231.55 73.36 232.05 75.98 233.55 79.73 
M 229.71 76.41 230 80.01 230.64 82.3 231.61 84.51 
M 228 82.17 228.26 85.33 228.83 87.34 229.68 89.29 
M 226.3 87.92 226.52 90.65 227.01 92.38 227.74 94.06 
M 224.59 93.68 224.78 95.97 225.19 97.43 225.81 98.84 
M 245.25 60.15 245.94 64.28 247.17 68.21 248.02 70.1 250.12 73.72 
M 243.34 66.36 243.96 70.08 244.44 71.88 245.84 75.32 247.73 78.58 
M 241.43 72.57 241.98 75.88 242.41 77.48 243.65 80.54 245.33 83.44 
M 239.53 78.79 240.38 83.08 241.46 85.76 242.93 88.29 
M 237.62 85 238.35 88.68 239.28 90.98 240.54 93.15 
M 235.71 91.22 236.32 94.28 237.09 96.2 238.14 98.01 
M 233.8 97.43 234.28 99.89 234.91 101.41 235.74 102.86 
M 252.18 77.68 252.54 81.25 252.91 82.97 254.15 86.26 255.94 89.37 
M 250.04 83.83 250.35 86.9 250.67 88.38 251.73 91.21 253.27 93.88 
M 247.9 89.99 248.43 93.79 249.32 96.16 250.61 98.4 
M 245.76 96.14 245.97 98.21 246.49 100.18 247.94 102.92 
M 243.62 102.29 243.78 103.86 244.18 105.36 245.27 107.43 
M 257.97 93.05 258.63 96.49 259.14 98.13 260.64 101.21 262.67 104.05 
M 255.56 99.8 256.06 102.43 256.45 103.69 257.6 106.05 259.16 108.23 
M 253.15 106.54 253.49 108.38 254.13 110.09 255.65 112.41 
M 264.53 107.52 264.71 110.63 265 112.12 266.06 114.95 267.68 117.6 
M 167.39 191.46 169.49 191.13 172.35 191.09 174.47 190.83 180.37 188.76 182.95 187.66 185.04 187.08 188.15 186.97 192.88 187.18 215.65 181.89 217.64 182.83 224.28 186.47 228.91 188.62 229.31 191.06 228.44 193.2 225.64 196.43 224.88 198.37 224.95 200.97 226.03 205.24 226.23 206.63 223.21 209.25 221 209.85 219.18 210.83 217.55 212 215.47 212.71 210.49 216.19 208.13 216.78 190.61 213.55 187.16 211.95 184.98 211.17 182.93 210.55 180.69 210.18 173.65 207.25 171.79 205.38 167.11 203.15 165.21 202.01 
M 171.91 192.02 173.91 191.92 182.95 189.84 185.19 189.08 187.72 188.63 190.52 188.91 192.69 188.63 195.06 188.02 196.65 186.89 203.45 184.22 
M 167.1 193.84 169.26 193.66 171.6 193.79 174.04 193.53 178.71 192.7 183.28 192.31 187.78 191.27 190.59 191.59 192.78 191.43 194.35 190.55 195.61 190.05 197.57 189.8 199.83 188.93 202.37 188.8 204.88 189.18 208.58 188.81 213.43 187.85 216.18 188.17 
M 167.06 195.02 171.8 195.33 176.54 195.18 179.15 194.71 183.75 194.75 190.84 193.95 195.07 193.79 196.28 193.1 197.69 193.15 199.99 192.56 202.57 192.52 
M 166.5 196.21 177.32 197.29 179.39 196.9 184.16 196.6 186.24 197.1 188.67 197.43 191.15 197.15 197.72 197.69 200.03 197.24 201.34 197.43 204.62 196.9 207.33 197.09 209.91 196.88 214.04 197.28 217.93 198.47 220.17 197.88 222.62 197.84 
M 166.96 197.53 177.35 199.02 184.37 199.02 186.6 199.64 188.48 200.52 193.25 200.75 195.47 200.53 200.21 201.43 203.65 201.74 205.61 201.16 207.98 201.21 210.53 201.72 211.94 201.33 214.12 201.47 
M 171.8 199.64 176.48 201.22 183.71 202.01 192.96 203.36 195.37 202.96 197.85 204.26 200.4 204.97 202.15 204.7 204.1 205.27 208.67 206.15 213.14 206.55 215.57 206.11 218.17 206.61 220.48 206.1 222.29 206.1 
M 166.91 200.18 171.42 201.33 175.9 203.53 178.7 203.94 186.2 205.56 187.9 206.32 192.97 205.94 195.26 206.57 
M 171.36 203.22 175.94 205.37 178.18 206.09 181.07 206.63 183.56 207.76 188.16 208.57 190.94 208.61 192.92 209.28 
M 210.34 236.35 214.29 242.29 216.33 244.9 217.47 247.98 223.94 272.75 223.15 274.59 222.58 276.66 220.73 277.69 218.55 278.29 217.08 279.69 214.77 279.47 213.35 278.28 208.94 275.43 207.55 274.85 206.25 275.22 204.67 276.69 202.7 277.77 201.25 278.84 193.53 269.46 191.36 265.83 189.74 261.8 186.16 256.91 183.41 252.54 178.17 234.2 177.73 231.44 176.33 229.62 175.87 226.43 174.02 221.79 
M 206.96 235.15 208.53 237.82 210.79 242.32 211.33 244.67 214.11 250.11 215.2 251.46 217.67 257.47 
M 203.58 233.95 204.84 236.47 207.46 240.72 209.7 248.35 210.88 250.83 212.23 252.86 213.43 257.06 214.66 258.87 216.2 260.48 217.77 263.47 218.44 265.63 
M 200.24 232.66 202.4 237.45 204.13 239.61 205.25 241.82 205.07 243.78 206.08 248.45 207.73 250.92 209.05 253.28 209.41 255.2 210.2 257.58 211.49 260.07 214.58 265.16 214.88 267.04 215.69 269.17 217.11 271.16 217.73 272.89 
M 196.9 231.35 198.21 234.11 199.85 238.8 201.76 242.79 202.2 244.84 203 247.02 203.37 249.36 205.7 253.02 206.62 255.74 
M 193.52 230.15 194.87 233.1 197.95 242.15 199.27 244.22 201.26 248.31 201.98 250.26 202.27 252.31 203.77 254.28 204.54 256.78 204.88 259.49 205.69 261.81 206.86 264.35 209.31 268.88 210.48 272.38 211.6 274.48 
M 190.12 228.99 193.09 236.4 195.26 243.54 196.12 245.53 197.8 247.19 199.01 249.28 199.24 251.03 200.11 253.15 201.28 254.6 201.58 257.82 202.37 260.5 202.97 266.05 
M 186.76 227.74 187.91 230.57 189.38 235.09 189.72 237.52 190.66 239.36 191.2 241.49 193.1 246.23 194.15 250.41 195.34 251.94 196.92 256.56 197.94 258.72 199.15 261.93 200.29 266.78 
M 183.44 226.4 184.68 229.35 185.47 234.28 186.28 236.69 188.09 241.06 188.34 243.38 188.88 245.98 190.17 249.77 191.11 253.75 190.84 255.66 191.88 258.3 193.2 260.55 193.86 262.26 
M 180.16 224.95 181.21 227.91 181.82 230.77 182.19 233.47 182.97 235.78 184.73 240.1 185.42 242.71 185.47 249.58 186.19 252.29 186.53 253.03 186.41 254.02 
M 176.97 223.31 179.08 232.04 179.41 234.68 180.07 237.16 181.14 239.14 181.73 241.17 
M 320.06 212.22 327.31 218.47 326.89 219.06 318.57 214.34 
M 310.81 217.7 318.54 224.58 318.11 225.15 309.28 219.78 
M 301.36 222.79 310.54 231.51 310.08 232.07 299.72 224.78 
M 291.65 227.37 303.33 239.08 302.85 239.62 289.93 229.29 
M 281.81 231.65 296.47 248.02 295.96 248.52 279.96 233.45 
M 271.61 234.93 289.44 257.76 288.89 258.22 269.63 236.58 
M 261.25 237.69 282.01 268.94 281.42 269.35 259.14 239.17 
M 255.03 238.61 279.25 279.62 278.64 280 252.83 239.97 
M 326.06 218.59 322.63 219.31 320.69 220.34 319.11 221.93 317.76 223.89 
M 317.23 224.62 313.92 225.65 312.12 226.86 310.74 228.58 309.62 230.64 
M 309.05 231.34 306.88 232.13 305.01 233.24 303.6 234.82 302.16 237.91 
M 301.56 238.58 298.43 240.39 296.84 242.01 295.76 244.06 295.01 246.39 
M 294.36 247.02 291.15 249.07 289.53 250.84 288.42 253.03 287.66 255.48 
M 286.96 256.06 284.65 257.69 282.69 259.57 281.27 261.84 279.93 265.82 
M 279.19 266.33 277.2 269.09 276.51 271.08 276.46 273.25 276.82 275.52 
M 324.88 218.76 322.63 219.31 320.69 220.34 319.86 221.08 318.42 222.89 
M 316.08 224.9 313.92 225.65 312.12 226.86 311.38 227.66 310.16 229.59 
M 307.94 231.71 305.9 232.63 305.01 233.24 303.6 234.82 302.59 236.82 
M 300.46 239.13 298.43 240.39 296.84 242.01 296.24 242.99 295.36 245.2 
M 295.34 236.09 293.46 237.4 292.6 238.59 292.03 240.04 
M 293.23 247.65 291.15 249.07 289.53 250.84 288.92 251.89 288.02 254.24 
M 289.15 244.5 287.56 245.59 286.31 246.95 285.85 247.75 285.16 249.55 
M 285.07 241.35 283.97 242.11 283.1 243.05 282.29 244.86 
M 285.78 256.86 283.61 258.59 281.91 260.65 281.27 261.84 280.31 264.44 
M 282.22 253.4 280.43 254.82 279.02 256.53 278.49 257.51 277.71 259.66 
M 278.65 249.94 277.24 251.06 276.13 252.41 275.1 254.87 
M 275.09 246.48 273.62 247.77 272.94 248.85 272.49 250.08 
M 278.45 267.23 277.2 269.09 276.51 271.08 276.41 272.15 276.61 274.37 
M 275.46 263.26 274.38 264.85 274.01 265.69 273.7 267.49 273.88 269.4 
M 272.46 259.29 271.25 261.33 270.99 262.83 271.14 264.43 
M 269.47 255.31 268.49 256.96 268.28 258.16 268.4 259.46 
M 266.47 251.34 265.92 252.16 265.62 253.04 265.66 254.49 
M 341.11 166.58 343.4 165.89 347.15 163.74 350.97 161.15 353.06 160.25 355.22 159.64 356.73 158.6 358.31 157.16 361.84 154.42 363.53 153.29 367.34 150.76 370.82 148.76 379.19 144.53 380.83 143.17 381.81 142.73 383.62 141.17 389.55 137.26 391.26 135.61 393.36 134.34 396.26 133.14 401.31 131.5 403.47 130.23 406.01 129.46 407.08 128 408.4 126.78 414.81 122.18 416.47 120.52 418.4 119.74 419.75 118.38 421.18 116.45 423.68 114.17 425.92 113.04 427.06 111.51 428.51 110.66 431.24 108.08 433.09 118.78 430.86 122.2 429.66 126.67 429.34 129.18 428.81 131.11 428.83 133.11 429.24 137.49 429.11 139.56 427.85 141.1 427.51 143.56 427.41 146.23 426.77 148.23 425.56 149.65 424.07 153.37 423.99 158.13 423.53 162.58 422.16 166.54 421.7 168.74 420.85 170.11 421.07 172.13 421.04 174.3 420.73 176.73 420.71 179.43 420.1 181.34 419.85 183.31 419.23 184.91 418.76 188.64 419.97 193.97 420.24 196.43 419.59 200.15 418.79 201.54 418.85 203.78 419.56 206.42 421.17 211 421.23 212.52 421.64 214.32 422.89 216.97 424.35 222.68 424.41 224.17 424.78 225.91 429.14 234.15 431.56 239.75 432.22 242 431.27 245.06 431.69 247.52 431.87 249.74 431.83 251.75 433.04 261.92 432.17 261.01 430.03 260.47 428.45 258.98 425.11 258.16 421.27 254.47 419.49 253.16 418.5 252.07 416.64 250.6 414.44 249.9 411.38 246.65 410.14 245.61 409.11 245.77 407.4 244.38 405.7 242.39 403.68 241.07 401.04 239.96 396.58 237.16 394.61 236.46 393.2 235.07 389.34 233.15 387.36 231.73 385.25 230.55 382.88 228.7 380.73 227.41 379.32 226.16 376.54 224.09 373.74 221.32 370.57 218.91 368.18 217.82 362.38 213.66 357.94 210.82 354.77 207.85 352.94 206.83 350.73 206.09 348.65 205.07 346.67 203.7 345.24 202.09 341.11 198.67 
M 341.11 168.19 343.31 167.76 347.24 165.88 351.31 163.52 353.53 162.54 357.61 161.07 359.1 159.85 360.99 158.92 364.85 156.11 366.64 155 368.97 154.3 372.76 152.42 374.5 151.19 376.76 150.55 380.48 148.45 384.09 146.88 385.87 145.81 387.13 144.34 389.02 142.79 390.84 140.7 392.83 139.67 395.2 139.28 397.23 138.16 399.2 136.68 
M 341.11 169.79 343.4 169.49 351.74 165.92 354.09 164.99 356.38 164.32 358.13 163.44 362.1 161.95 369.52 157.51 371.61 156.71 373.33 155.7 375.47 154.73 377.07 154.4 379.12 153.37 383.33 152.04 385.62 150.88 387.47 150.54 391.18 146.84 397.62 143.06 401.12 141.91 406.75 141.15 411.02 138.84 413.5 137.27 415.89 135.49 418.06 134.51 
M 341.11 171.4 343.59 171.08 345.57 170.57 347.61 169.7 349.82 169.17 353.9 167.42 356.42 166.68 362.46 164.46 364.51 163.4 366.47 161.66 368.25 160.82 374.11 158.51 376.38 158.31 378.47 157.78 381.93 155.64 385.79 154.1 389.77 151.7 391.9 151.08 394.41 149.91 397.36 149.25 399.77 149.03 
M 343.65 172.67 352.2 170.59 358.42 167.98 362.26 167.26 371.16 163.04 375.81 162.13 377.91 162.1 379.95 161.21 382.09 160.94 383.6 160.07 385.44 159.35 
M 341.11 174.61 343.7 174.37 348.03 173.35 350.36 173.01 356.78 171.32 358.89 170.93 360.65 170.34 362.6 170.04 364.63 169.03 369.82 167.31 371.74 166.41 373.9 166.56 376.56 165.78 378.88 165.42 380.59 165.23 382.78 165.34 385.02 164.89 389.29 163.32 394.55 160.74 395.03 159.94 396.45 159.51 398.34 159.66 400.77 158.94 403.37 157.54 405.31 158.04 407.27 157.5 409.5 157.65 411.85 157.24 
M 345.88 175.72 348.05 175.16 350.23 174.94 352.73 174.44 354.99 174.28 357.2 173.78 359.36 173.87 363.77 173.23 365.81 172.27 370.41 170.79 372.19 169.71 374.56 169.16 379.33 168.34 381.17 168.54 385.88 167.95 387.63 167.6 389.8 166.86 393.2 167.15 
M 341.11 177.81 343.85 177.92 348.22 177.23 352.81 176.81 357.82 176.09 359.55 176.47 363.99 176.37 368.96 175.62 376.08 173.59 378.45 173.76 380.08 173.5 383.82 172.24 386.19 172.18 
M 341.11 179.42 343.94 179.67 347.95 179.67 350.67 179.33 355.41 179.2 357.8 178.73 359.65 178.78 362.15 179.15 364.29 179.16 369.41 178.9 371.81 178.61 373.99 178.13 376.1 178.14 378.81 178.38 380.93 177.85 383.24 176.89 385.67 176.88 388.54 177.43 
M 347.9 181.72 353.33 181.76 360.13 181.36 367.08 181.36 371.77 182.1 375.87 181.94 377.37 181.41 379.55 181.67 381.11 182.11 383.66 181.41 386.31 181.22 388.94 181.78 391.44 181.48 394.15 180.83 
M 345.86 183.53 347.91 183.88 350.67 183.77 355.98 184.12 358.12 184.1 363.08 183.73 365.49 184.05 367.5 184.59 372.23 185.07 373.53 185.41 374.89 185.38 376.63 186.09 379.08 186.14 383.51 185.57 385.77 185.79 
M 348.26 185.91 350.55 185.82 355.72 186.03 357.97 186.51 359.92 187.21 364.57 187.27 366.68 188.25 368.62 188.24 373.22 188.66 377.94 188.33 380.57 188.84 386.09 188.87 391.42 189.88 393.63 190.52 396.96 189.71 398.35 189.84 400.55 190.57 
M 343.79 186.77 348.47 187.71 355.57 188.24 359.73 189.49 363.9 190.18 365.98 190.08 368.47 191.11 371.02 191.72 373.04 192.5 376.02 192.32 378.78 191.81 380.76 192.61 382.62 193.03 385.99 192.89 388.53 193.82 391.09 194.41 393.11 194.32 395.41 195.3 396.66 195.59 397.82 195 
M 346.03 189 348.27 189.77 355.2 190.77 359.5 191.87 363.62 193.19 365.93 193.18 368 194.35 370.44 195.24 372.83 195 375.1 195.09 380.15 195.92 382.05 196.95 387.27 198.36 389.2 198.3 391.4 198.62 393.51 199.21 395.16 199.04 396.16 199.68 397.56 200.87 402.55 201.6 404.42 202.37 405.67 203.25 411.08 204.05 414.47 204.25 416.3 204.09 
M 348.18 191.74 350.69 192.15 355.16 193.22 357.12 193.83 358.67 195 365.7 196.38 368.36 197.23 371.11 197.34 373.11 198.04 374.66 198.36 377.37 198.47 379.71 198.77 382.13 199.66 384.27 201.25 386.53 202.27 388.3 202.74 391.39 204.43 393.65 205.07 396.24 205.16 403.04 207.65 408.29 206.36 409.95 207.26 411.57 207.16 413.04 208.12 
M 341.11 190.65 343.56 191.78 348.36 193.58 352.55 194.8 356.54 196.2 365.2 199.58 370.24 201.36 372.3 201.92 374.61 201.82 378.6 202.56 381.23 204.01 383.3 205.65 385.66 206.76 388.08 207.23 389.69 207.93 390.89 208.78 393.32 209.51 395.36 209.86 400.03 212.45 403.13 212.99 407.63 214.74 409.15 215 414.37 214.27 416.27 215.26 417.97 217.34 420.39 217.97 
M 345.93 194.73 352.2 197.13 356.11 198.37 360.48 200.55 364.56 202.25 368.42 204.86 370.73 205.61 373.16 205.11 375.65 205.3 378.43 206.03 381.99 208.92 383.81 209.98 387.66 210.96 389.42 211.86 391.38 212.55 395.88 215.01 402.88 217.73 405.08 218.19 406.7 218.94 
M 341.11 193.86 345.81 196.59 350.08 198.49 356.32 200.76 360.06 202.75 367.65 207.43 370.08 208.4 374.14 209.71 376.71 210.28 378.54 211.78 380.58 212.08 382.4 212.92 386.14 215.38 387.92 216.77 389.6 218.39 391.25 219.3 393.77 219.93 396.26 221.25 398.65 221.97 405.01 223.41 407.73 224.58 409.76 226.17 414 227.74 416.27 229.23 417.59 229.76 418.8 230.92 421.02 231.09 
M 345.69 198.46 347.61 199.78 349.55 200.55 351.92 201.18 356.37 203.25 358.02 204.2 361.23 206.71 365.37 209.03 367.26 210.32 369.49 210.98 371.23 211.82 372.88 213.35 375.15 214.33 377.06 214.9 378.57 216.5 382.84 219.23 384.99 220.28 386.89 221.67 389.01 222.53 390.57 223.81 392.65 224.57 
M 345.46 200.32 347.13 201.79 349.12 202.96 355.74 205.68 357.65 206.66 359.32 208.45 360.83 209.68 365.14 212.03 366.61 213.35 371.1 215.55 374.26 218.16 376.14 219.19 377.96 220.81 380.22 221.78 381.97 222.92 383.3 224.37 385.03 225.2 390.13 226.86 392.18 228.53 395.48 230.05 396.72 231.15 398.76 232.12 400.63 232.8 402.68 234.48 411.57 240.13 414.01 240.42 415.46 241.24 
M 332.25 201.99 328.93 204.68 328.1 205.86 326.45 208.89 326.58 208.55 
M 92.98 198.33 94.08 196.77 99.6 192.39 106.08 183.92 110.62 179.66 115.24 176.32 119.36 172.94 123.83 168.75 129.06 164.72 134.94 160.96 140.83 157.48 146.42 154.51 152.03 151.85 161.42 147.72 166.73 145.86 168.84 149.61 169.46 153.25 171.27 160.59 171.91 164.23 172.04 167.82 171.82 174.95 170.92 178.42 170.3 181.93 169.48 185.42 167.09 192.31 166.6 195.83 165.05 202.81 163.88 206.26 162.18 209.65 159.52 212.86 150.14 212.41 143.26 211.87 131.41 210.64 121.39 209.4 116.98 208.83 105.62 206.6 102.22 205.61 
M 152.4 175.17 152.09 178.25 149.74 184.17 148.42 186.92 145.46 191.12 144.91 194.8 145.06 200.44 144.47 202.69 133.77 202.28 120.72 202.26 116.68 202.08 112.91 201.68 
M 100.86 205.85 91.91 202.29 90.4 201.42 89.91 199.66 90.84 198.16 92.64 198.09 98.45 202.5 102.47 205.82 
M 102.37 206.44 99.07 207.55 90.67 210.92 88.95 211.37 87.36 210.63 86.9 208.96 87.89 207.5 94.93 206.44 102.2 205.77 
M 122.25 186.21 121.63 183.87 121.81 181.45 122.76 179.22 124.39 177.42 126.51 176.24 128.89 175.82 131.29 176.2 133.43 177.33 135.09 179.1 136.08 181.31 136.31 183.72 135.74 186.07 134.43 188.12 132.53 189.62 130.25 190.43 127.83 190.46 125.53 189.69 123.6 188.22 122.25 186.21 
M 122.16 186 121.87 185.14 121.6 183.34 121.79 181.52 122.42 179.81 122.89 179.03 124.09 177.67 124.81 177.1 126.43 176.27 128.21 175.86 130.03 175.9 131.78 176.38 
M 123.49 185.45 123.04 183.31 123.24 181.69 
M 124.83 178.95 126.25 177.91 127.63 177.41 129.82 177.32 131.23 177.71 
M 124.81 184.9 124.52 183.83 124.57 182.3 
M 125.76 180.05 126.91 179.19 127.95 178.81 129.06 178.69 130.68 179.03 
M 126.28 184.39 126.03 183.46 126.08 182.78 
M 126.86 181.18 127.98 180.41 128.94 180.24 129.89 180.39 130.75 180.84 131.41 181.55 131.81 182.43 131.9 183.4 131.67 184.34 131.15 185.16 130.39 185.76 129.48 186.08 128.51 186.09 127.59 185.79 126.82 185.2 126.28 184.39 
M 127.4 180.73 127.07 181.4 
M 126.34 182.86 126.03 183.46 
M 128.7 180.28 127.76 182.17 
M 127.43 182.82 126.49 184.71 
M 129.74 180.36 127.18 185.48 
M 130.61 180.77 128.03 185.93 
M 131.34 181.47 129.03 186.09 
M 131.83 182.63 130.24 185.82 
M 93.85 197.09 97.29 200.52 
M 96.17 195.1 98.5 197.44 
M 98.57 193.2 102.77 197.4 
M 100.68 191.01 103.83 194.16 
M 102.58 188.6 105.31 191.33 
M 104.42 186.14 107.82 189.54 
M 106.3 183.71 109.51 186.93 
M 108.52 181.63 112.42 185.53 
M 110.76 179.56 113.94 182.75 
M 113.25 177.76 115.79 180.29 
M 115.72 175.92 119.44 179.64 
M 118.09 173.98 120.76 176.66 
M 120.39 171.98 123.2 174.79 
M 122.61 169.9 125.23 172.52 
M 124.93 167.91 128.07 171.05 
M 127.36 166.04 131.38 170.05 
M 129.85 164.22 133.49 167.87 
M 132.47 162.54 136.01 166.08 
M 135.1 160.87 137.96 163.73 
M 137.81 159.27 141.89 163.35 
M 140.51 157.67 144.17 161.33 
M 143.31 156.16 146.94 159.79 
M 146.12 154.67 150.23 158.78 
M 149.03 153.27 151.78 156.03 
M 151.95 151.89 155.46 155.4 
M 154.94 150.58 158.99 154.63 
M 157.93 149.26 161.26 152.59 
M 160.91 147.94 164.8 151.83 
M 164.01 146.74 167.38 150.11 
M 158.88 161.38 158.5 161.82 158.02 163.19 157.74 163.5 
M 137.89 172.36 136.73 173.12 136.38 173.71 136.38 175.67 135.98 177.85 
M 123.93 172.26 122.59 172.46 121.48 172.9 120.16 174.04 
M 114.41 208.31 113.99 207.59 113.82 206.44 113.25 205.54 
M 166.71 161.94 165.24 160.81 163.9 160.1 162.11 159.35 161.64 159.45 
M 111.23 187.41 111.9 186.81 112.07 186.36 111.84 184.37 111.84 181.38 
M 138.39 180.63 139.66 181.67 140.37 181.81 140.94 181.68 
M 102.82 188.28 105.01 186.59 108.86 185.06 109.51 184.17 
M 124.69 168.2 124.58 168.18 
M 122.01 170.46 121.85 170.97 
M 139.88 205.96 140.02 205.32 142.15 202.62 142.54 201.5 142.77 200.42 142.77 199.41 141.77 197.49 
M 99.04 199.59 102.26 198.81 104.16 196.92 104.69 196.2 
M 102.5 188.69 104.34 187.3 
M 121.17 171.25 120.55 173.31 119.78 174.26 
M 145.02 179.15 147.62 179.03 148.33 178.87 148.6 178.63 
M 160.52 149.38 159.75 148.46 
M 170.55 167.04 172 166.55 
M 162.89 208.24 162.85 208.17 
M 163.31 207.41 162.38 206.4 161.23 205.96 
M 111.33 207.7 111.18 206.42 110.04 204.33 108.26 202.8 106.3 201.59 
M 124.29 191.85 123.36 190.87 123.1 190.78 122.48 191.1 122.06 191.66 
M 158.41 211.53 160.03 209.09 160.58 207.73 
M 107.74 207.01 107.1 206.12 106.28 205.8 105.28 205.73 104.89 205.48 
M 107.28 199.04 105.87 197.59 105.67 197.06 105.47 194.81 105.66 193.57 106.66 192.18 
M 144.27 197.42 143.04 196.52 142.57 195.88 140.56 193.92 140.04 192.41 139.33 192.18 
M 137.13 162.56 134.61 163.97 134 164.94 133.9 165.76 
M 125.74 176.45 123.22 175.73 121.01 175.7 119.43 176.07 118.77 176.65 
M 144.99 209.99 144.58 209.7 144.41 209.26 144.43 208.71 144.72 208.43 
M 160.61 195.15 159.51 194.9 158.28 194.33 156.41 193.08 155.85 192.45 
M 148.04 184.7 148.15 184.32 149.34 182.56 150 180.56 
M 120.5 186.3 120.44 187.34 120.28 187.71 117.99 190.84 117.67 192.51 117.46 192.93 
M 115.11 177.53 115.45 176.8 115.25 176.31 
M 151.1 182.54 154.81 181.12 156.2 181.12 
M 149.6 160.87 148.93 160.9 147.95 160.67 144.45 158.93 141.95 158.05 
M 150.81 160.03 149.71 160.66 148.62 160.66 147.57 160.31 144.6 158.83 143.56 158.53 
M 152.43 208.27 153.76 209.53 155.59 212.67 
M 149.69 202.24 149.31 201.53 149.5 200.76 150.71 198.87 151.3 198.53 
M 120.13 203.37 123.19 202.49 125.14 201.63 126.65 200.46 127.86 199.02 
M 120.33 172.03 120.38 173.1 
M 110.73 184.91 110.94 184.24 110.95 182.58 110.71 180.9 110.28 179.98 
M 163.06 155.92 161.65 155.1 157.64 153.65 
M 123.81 177.44 122.14 177.18 120.11 176.41 119.33 176.55 118.88 176.99 
M 159.96 203.97 158.65 204.2 157.99 204.06 156.9 202.45 155.38 201.17 154.98 200.45 
M 148.47 205.74 147.76 205.81 147.42 206.17 147.44 206.38 
M 102.02 205.45 103.14 206.1 
M 96.38 204 96.25 204.45 96.39 205.51 96.62 204.67 97.02 204.25 
M 90.84 201.68 90.16 203.27 90.25 205.27 90.53 203.48 91.58 202.1 
M 102.21 205.82 103.21 205.56 
M 97.51 206.15 97.56 205.63 97.91 204.96 97.98 205.52 98.36 206.06 
M 92.91 206.76 92.82 205.47 93.3 204.18 93.23 205.36 93.82 206.62 
M 88.35 207.41 88.07 205.31 88.69 203.4 88.48 205.2 89.29 207.22 
M 93.65 209.76 97.31 210.08 102.51 210.05 107.67 209.25 112.85 207.99 
M 99.3 208.7 98.58 209.23 97.96 210.1 
M 169.75 154.57 171.26 156.07 
M 166.74 145.81 174.16 153.24 
M 170.37 143.7 177.41 150.75 
M 174 141.59 178.84 146.44 
M 177.76 139.62 184.81 146.67 
M 181.53 137.65 189.15 145.27 
M 185.42 135.79 191.2 141.58 
M 189.33 133.97 195.95 140.59 
M 193.34 132.25 201.48 140.38 
M 197.34 130.5 204.09 137.26 
M 201.3 128.73 206.42 133.84 
M 205.41 127.1 210.99 132.67 
M 209.65 125.6 217.84 133.79 
M 214.15 124.36 220.31 130.52 
M 218.76 123.23 223.79 128.26 
M 223.56 122.29 229.62 128.35 
M 228.87 121.87 236.98 129.98 
M 234.44 121.69 242.32 129.57 
M 240.08 121.59 246.31 127.82 
M 245.6 121.38 251.56 127.33 
M 252.25 122.29 260.23 130.26 
M 260.48 124.78 266.02 130.31 
M 270.4 128.96 275.36 133.92 
M 281.08 133.91 287.6 140.42 
M 291.56 138.64 296.84 143.93 
M 304.42 145.76 312.89 154.24 
M 318.34 153.94 323.07 158.68 
M 331.3 161.16 339.56 169.42 
M 344.1 168.22 347.31 171.44 
M 160.49 211.68 161.85 214.39 
M 162.06 209.8 165.49 216.65 
M 163.34 207.34 169.09 218.84 
M 164.46 204.55 172.68 220.98 
M 165.91 202.43 176.13 222.88 
M 169.34 204.27 179.51 224.62 
M 173.03 206.64 182.78 226.13 
M 167.62 190.79 167.92 191.38 
M 176.46 208.46 185.93 227.4 
M 168.65 187.83 170.3 191.12 
M 179.6 209.72 186.19 222.9 
M 169.63 184.77 172.77 191.04 
M 182.49 210.48 186.22 217.94 
M 170.41 181.31 175.07 190.62 
M 185.42 211.33 186.25 212.99 
M 171.11 177.69 177.2 189.86 
M 171.86 174.16 179.33 189.1 
M 172.02 169.46 181.44 188.31 
M 171.9 164.2 183.55 187.49 
M 169.88 155.14 185.84 187.05 
M 167.51 145.37 188.31 186.97 
M 169.45 144.24 188.38 182.09 
M 171.4 143.1 189.04 178.39 
M 173.34 141.97 189.7 174.69 
M 218.57 232.44 222.05 239.38 
M 175.31 140.9 189.75 169.77 
M 217.34 224.95 224.82 239.9 
M 177.3 139.85 189.82 164.88 
M 217.4 220.06 227.3 239.84 
M 179.29 138.81 189.88 159.98 
M 217.47 215.16 229.77 239.76 
M 181.28 137.77 190.58 156.37 
M 218.17 211.55 232.24 239.69 
M 183.31 136.8 190.05 150.27 
M 220.08 210.34 234.75 239.69 
M 185.34 135.83 189.51 144.17 
M 222.18 209.53 237.26 239.68 
M 187.36 134.86 189.61 139.36 
M 224.17 208.48 239.78 239.7 
M 225.91 206.93 242.34 239.8 
M 224.92 199.94 244.9 239.9 
M 225.66 196.4 247.41 239.9 
M 220.31 180.68 222.77 185.59 
M 227.28 194.61 249.81 239.67 
M 221.08 177.2 226.15 187.34 
M 228.73 192.49 252.21 239.45 
M 221.85 173.71 249.44 228.89 
M 221.97 168.94 248.92 222.83 
M 222.13 164.23 248.44 216.84 
M 222.98 160.9 249.28 213.52 
M 223.19 156.3 250.13 210.19 
M 223.39 151.69 250.98 206.87 
M 223.63 147.15 251.86 203.61 
M 223.37 141.61 252.89 200.64 
M 223.12 136.08 253.92 197.67 
M 222.22 129.26 254.3 193.42 
M 218.11 116.03 254.69 189.17 
M 217.22 109.21 255.07 184.92 
M 218.24 106.24 255.46 180.67 
M 219.27 103.28 255.84 176.42 
M 219.98 99.67 255.59 170.88 
M 221 96.7 255.97 166.63 
M 283.56 221.81 287.55 229.79 
M 222.03 93.73 255.71 161.1 
M 283.3 216.28 289.6 228.87 
M 223.06 90.76 254.82 154.28 
M 283.69 212.03 291.64 227.94 
M 224.08 87.8 255.2 150.03 
M 284.07 207.78 293.69 227.01 
M 225.11 84.83 255.59 145.78 
M 284.46 203.53 295.73 226.08 
M 226.14 81.86 254.69 138.96 
M 284.85 199.27 297.78 225.14 
M 227.17 78.89 251.87 128.3 
M 285.23 195.02 299.79 224.15 
M 228.19 75.93 251.61 122.76 
M 284.97 189.49 301.81 223.16 
M 229.22 72.96 252 118.51 
M 285.36 185.24 303.83 222.18 
M 230.25 69.99 252.38 114.26 
M 285.1 179.71 305.81 221.13 
M 231.27 67.02 253.41 111.29 
M 285.49 175.45 307.77 220.02 
M 232.3 64.06 253.15 105.76 
M 285.87 171.2 309.73 218.92 
M 233.33 61.09 252.9 100.23 
M 286.26 166.95 311.69 217.81 
M 234.35 58.12 253.28 95.97 
M 286.64 162.7 313.63 216.67 
M 235.38 55.15 253.67 91.72 
M 287.3 158.99 315.56 215.51 
M 236.41 52.19 252.98 85.33 
M 288.01 155.39 317.5 214.36 
M 237.43 49.22 245.87 66.1 
M 251.75 77.85 252.13 78.61 
M 288.05 150.46 318.21 210.77 
M 238.46 46.25 240.45 50.24 
M 288.1 145.52 317.61 204.55 
M 239.49 43.28 239.95 44.21 
M 288.11 140.53 316.99 198.28 
M 289.09 137.46 316.36 192 
M 292.4 139.07 315.18 184.62 
M 295.77 140.79 314.7 178.64 
M 299.24 142.69 315.6 175.42 
M 302.8 144.81 315.96 171.11 
M 306.38 146.93 315.68 165.54 
M 309.96 149.07 316.05 161.26 
M 313.52 151.17 317.04 158.22 
M 317.04 153.2 317.36 153.84 
M 345.94 180.88 348.37 185.73 
M 344.91 173.79 348.37 180.71 
M 344.85 168.64 348.37 175.69 
M 348.31 170.54 348.37 170.67 
"/></svg>